<svg xmlns="http://www.w3.org/2000/svg" viewBox="0 0 24 24" width="24" height="24">
  <title>00.square</title>
  <path transform="matrix(0.9044338456103161, 0, 0, 0.9044338456103161, -0.6974032856385799, 19.64705882352941)" d="M6.96 2.60L21.12 2.60C23.72 2.60 25.09 1.23 25.09-1.34L25.09-15.57C25.09-18.14 23.72-19.51 21.12-19.51L6.96-19.51C4.37-19.51 2.99-18.14 2.99-15.57L2.99-1.34C2.99 1.23 4.37 2.60 6.96 2.60ZM7.18-0.01C6.15-0.01 5.60-0.53 5.60-1.61L5.60-15.29C5.60-16.37 6.15-16.90 7.18-16.90L20.91-16.90C21.91-16.90 22.49-16.37 22.49-15.29L22.49-1.61C22.49-0.53 21.91-0.01 20.91-0.01ZM10.41-3.61C12.71-3.61 13.41-6.16 13.41-8.46C13.41-10.77 12.71-13.32 10.41-13.32C8.09-13.32 7.39-10.77 7.39-8.46C7.39-6.16 8.09-3.61 10.41-3.61ZM17.70-3.61C20.00-3.61 20.71-6.16 20.71-8.46C20.71-10.77 20.00-13.32 17.70-13.32C15.39-13.32 14.68-10.77 14.68-8.46C14.68-6.16 15.39-3.61 17.70-3.61ZM10.41-5.12C9.59-5.12 9.28-6.50 9.28-8.46C9.28-10.43 9.59-11.81 10.41-11.81C11.21-11.81 11.52-10.43 11.52-8.46C11.52-6.50 11.21-5.12 10.41-5.12ZM17.70-5.12C16.89-5.12 16.57-6.50 16.57-8.46C16.57-10.43 16.89-11.81 17.70-11.81C18.50-11.81 18.82-10.43 18.82-8.46C18.82-6.50 18.50-5.12 17.70-5.12Z" fill="currentColor"/>
</svg>