<svg xmlns="http://www.w3.org/2000/svg" viewBox="0 0 24 24" width="24" height="24">
  <title>01.square.fill</title>
  <path transform="matrix(0.9044338456103161, 0, 0, 0.9044338456103161, -0.6974032856385799, 19.64705882352941)" d="M6.96 2.60L21.12 2.60C23.72 2.60 25.09 1.23 25.09-1.34L25.09-15.57C25.09-18.14 23.72-19.51 21.12-19.51L6.96-19.51C4.37-19.51 2.99-18.14 2.99-15.57L2.99-1.34C2.99 1.23 4.37 2.60 6.96 2.60ZM11.14-3.39C8.73-3.39 7.99-6.05 7.99-8.46C7.99-10.88 8.73-13.54 11.14-13.54C13.57-13.54 14.30-10.88 14.30-8.46C14.30-6.05 13.57-3.39 11.14-3.39ZM18.39-3.49C17.82-3.49 17.38-3.94 17.38-4.50L17.38-11.41L16.43-10.65C16.28-10.54 16.15-10.48 15.95-10.48C15.57-10.48 15.27-10.73 15.27-11.19C15.27-11.53 15.43-11.78 15.69-11.98L16.90-12.91C17.24-13.17 17.66-13.44 18.21-13.44C18.93-13.44 19.36-13.04 19.36-12.33L19.36-4.50C19.36-3.94 18.91-3.49 18.39-3.49ZM11.14-4.98C11.98-4.98 12.30-6.41 12.30-8.46C12.30-10.52 11.98-11.95 11.14-11.95C10.30-11.95 9.98-10.52 9.98-8.46C9.98-6.41 10.30-4.98 11.14-4.98Z" fill="currentColor"/>
</svg>