<svg xmlns="http://www.w3.org/2000/svg" viewBox="0 0 24 24" width="24" height="24">
  
  <path transform="matrix(0.8181527644614893, 0, 0, 0.8181527644614893, 0.28379674017257894, 18.922339405560884)" d="M14.32 3.76C21.07 3.76 26.54-1.71 26.54-8.46C26.54-15.21 21.07-20.68 14.32-20.68C7.57-20.68 2.10-15.21 2.10-8.46C2.10-1.71 7.57 3.76 14.32 3.76ZM14.32 1.08C9.05 1.08 4.78-3.19 4.78-8.46C4.78-13.73 9.05-18 14.32-18C19.59-18 23.86-13.73 23.86-8.46C23.86-3.19 19.59 1.08 14.32 1.08ZM10.86-3.61C13.18-3.61 13.88-6.16 13.88-8.46C13.88-10.77 13.18-13.32 10.86-13.32C8.55-13.32 7.85-10.77 7.85-8.46C7.85-6.16 8.55-3.61 10.86-3.61ZM15.89-3.84L19.79-3.84C20.27-3.84 20.52-4.16 20.52-4.58C20.52-5.03 20.26-5.33 19.79-5.33L17.27-5.33L17.27-5.43L18.81-7.35C19.89-8.66 20.36-9.53 20.36-10.63C20.36-12.23 19.25-13.31 17.65-13.31C16.17-13.31 15.04-12.15 15.04-10.92C15.04-10.45 15.30-10.11 15.80-10.11C16.21-10.11 16.49-10.30 16.62-10.73C16.80-11.39 17.05-11.85 17.64-11.85C18.27-11.85 18.59-11.27 18.59-10.55C18.59-9.66 17.98-8.77 17.33-7.96L15.50-5.61C15.21-5.25 15.02-4.96 15.02-4.59C15.02-4.15 15.32-3.84 15.89-3.84ZM10.86-5.12C10.05-5.12 9.74-6.50 9.74-8.46C9.74-10.43 10.05-11.81 10.86-11.81C11.67-11.81 11.99-10.43 11.99-8.46C11.99-6.50 11.67-5.12 10.86-5.12Z" fill="currentColor"/>
</svg>