<svg xmlns="http://www.w3.org/2000/svg" viewBox="0 0 24 24" width="24" height="24">
  <title>05.square</title>
  <path transform="matrix(0.9044338456103161, 0, 0, 0.9044338456103161, -0.6974032856385799, 19.64705882352941)" d="M6.96 2.60L21.12 2.60C23.72 2.60 25.09 1.23 25.09-1.34L25.09-15.57C25.09-18.14 23.72-19.51 21.12-19.51L6.96-19.51C4.37-19.51 2.99-18.14 2.99-15.57L2.99-1.34C2.99 1.23 4.37 2.60 6.96 2.60ZM7.18-0.01C6.15-0.01 5.60-0.53 5.60-1.61L5.60-15.29C5.60-16.37 6.15-16.90 7.18-16.90L20.91-16.90C21.91-16.90 22.49-16.37 22.49-15.29L22.49-1.61C22.49-0.53 21.91-0.01 20.91-0.01ZM10.50-3.61C12.82-3.61 13.51-6.16 13.51-8.46C13.51-10.77 12.82-13.32 10.50-13.32C8.19-13.32 7.49-10.77 7.49-8.46C7.49-6.16 8.19-3.61 10.50-3.61ZM17.59-3.61C19.41-3.61 20.38-5.11 20.38-6.94C20.38-8.46 19.70-9.96 18.22-9.96C17.50-9.96 16.92-9.57 16.68-8.98L16.62-8.98L16.78-11.58L19.32-11.58C19.78-11.58 20.04-11.89 20.04-12.32C20.04-12.76 19.76-13.07 19.32-13.07L16.21-13.07C15.57-13.07 15.29-12.66 15.26-12.02L15.09-9C15.08-8.86 15.07-8.65 15.07-8.51C15.07-7.99 15.35-7.59 15.91-7.59C16.25-7.59 16.44-7.71 16.68-8.04C16.90-8.37 17.16-8.64 17.57-8.64C18.32-8.64 18.59-7.68 18.59-6.89C18.59-6.06 18.32-5.09 17.55-5.09C17.00-5.09 16.69-5.51 16.50-6.05C16.36-6.45 16.07-6.64 15.73-6.64C15.26-6.64 14.96-6.35 14.96-5.88C14.96-5.64 15.02-5.40 15.11-5.19C15.48-4.25 16.50-3.61 17.59-3.61ZM10.50-5.12C9.69-5.12 9.39-6.50 9.39-8.46C9.39-10.43 9.69-11.81 10.50-11.81C11.31-11.81 11.63-10.43 11.63-8.46C11.63-6.50 11.31-5.12 10.50-5.12Z" fill="currentColor"/>
</svg>