<svg xmlns="http://www.w3.org/2000/svg" viewBox="0 0 24 24" width="24" height="24">
  
  <path transform="matrix(0.8181527644614893, 0, 0, 0.8181527644614893, 0.28379674017257894, 18.922339405560884)" d="M14.32 3.76C21.07 3.76 26.54-1.71 26.54-8.46C26.54-15.21 21.07-20.68 14.32-20.68C7.57-20.68 2.10-15.21 2.10-8.46C2.10-1.71 7.57 3.76 14.32 3.76ZM14.32 1.08C9.05 1.08 4.78-3.19 4.78-8.46C4.78-13.73 9.05-18 14.32-18C19.59-18 23.86-13.73 23.86-8.46C23.86-3.19 19.59 1.08 14.32 1.08ZM16.99-3.61C19.30-3.61 20.00-6.16 20.00-8.46C20.00-10.77 19.30-13.32 16.99-13.32C14.67-13.32 13.98-10.77 13.98-8.46C13.98-6.16 14.67-3.61 16.99-3.61ZM11.30-3.70C11.81-3.70 12.25-4.14 12.25-4.66L12.25-12.16C12.25-12.84 11.82-13.23 11.14-13.23C10.62-13.23 10.22-12.97 9.89-12.73L8.74-11.82C8.48-11.64 8.33-11.39 8.33-11.07C8.33-10.64 8.63-10.39 8.98-10.39C9.16-10.39 9.29-10.45 9.43-10.56L10.35-11.30L10.35-4.66C10.35-4.14 10.77-3.70 11.30-3.70ZM16.99-5.12C16.17-5.12 15.87-6.50 15.87-8.46C15.87-10.43 16.17-11.81 16.99-11.81C17.80-11.81 18.11-10.43 18.11-8.46C18.11-6.50 17.80-5.12 16.99-5.12Z" fill="currentColor"/>
</svg>