<svg xmlns="http://www.w3.org/2000/svg" viewBox="0 0 24 24" width="24" height="24">
  <title>11.circle</title>
  <path transform="matrix(0.8181527644614893, 0, 0, 0.8181527644614893, 0.28379674017257894, 18.922339405560884)" d="M14.32 3.76C21.07 3.76 26.54-1.71 26.54-8.46C26.54-15.21 21.07-20.68 14.32-20.68C7.57-20.68 2.10-15.21 2.10-8.46C2.10-1.71 7.57 3.76 14.32 3.76ZM14.32 1.08C9.05 1.08 4.78-3.19 4.78-8.46C4.78-13.73 9.05-18 14.32-18C19.59-18 23.86-13.73 23.86-8.46C23.86-3.19 19.59 1.08 14.32 1.08ZM12.02-3.70C12.54-3.70 12.96-4.14 12.96-4.66L12.96-12.16C12.96-12.84 12.55-13.23 11.87-13.23C11.34-13.23 10.95-12.97 10.62-12.73L9.46-11.82C9.21-11.64 9.05-11.39 9.05-11.07C9.05-10.64 9.34-10.39 9.70-10.39C9.89-10.39 10.02-10.45 10.16-10.56L11.07-11.30L11.07-4.66C11.07-4.14 11.50-3.70 12.02-3.70ZM17.37-3.70C17.88-3.70 18.30-4.14 18.30-4.66L18.30-12.16C18.30-12.84 17.89-13.23 17.21-13.23C16.69-13.23 16.28-12.97 15.96-12.73L14.80-11.82C14.55-11.64 14.39-11.39 14.39-11.07C14.39-10.64 14.68-10.39 15.04-10.39C15.23-10.39 15.35-10.45 15.49-10.56L16.42-11.30L16.42-4.66C16.42-4.14 16.84-3.70 17.37-3.70Z" fill="currentColor"/>
</svg>