<svg xmlns="http://www.w3.org/2000/svg" viewBox="0 0 24 24" width="24" height="24">
  <title>12.lane</title>
  <path transform="matrix(0.9049133969600566, 0, 0, 0.9049133969600566, -0.704135737009544, 19.6033934252386)" d="M2.99-0.35C2.99 0.36 3.57 0.95 4.29 0.95C5.02 0.95 5.60 0.36 5.60-0.35L5.60-16.45C5.60-17.17 5.02-17.75 4.29-17.75C3.57-17.75 2.99-17.17 2.99-16.45ZM22.49-0.35C22.49 0.36 23.07 0.95 23.79 0.95C24.50 0.95 25.09 0.36 25.09-0.35L25.09-16.45C25.09-17.17 24.50-17.75 23.79-17.75C23.07-17.75 22.49-17.17 22.49-16.45ZM14.86-3.64L19.24-3.64C19.72-3.64 20.02-3.94 20.02-4.42C20.02-4.90 19.72-5.19 19.24-5.19L16.37-5.19L16.37-5.26L18.05-7.07C18.43-7.50 18.76-7.88 19.02-8.21C19.50-8.86 19.82-9.49 19.82-10.34C19.82-12.05 18.50-13.02 16.84-13.02C15.47-13.02 14.25-12.13 14.00-11.03C13.97-10.90 13.96-10.77 13.96-10.64C13.96-10.14 14.27-9.81 14.78-9.81C15.21-9.81 15.48-10.04 15.64-10.44C15.83-11.09 16.21-11.51 16.83-11.51C17.54-11.51 17.93-10.96 17.93-10.25C17.93-9.70 17.73-9.29 17.41-8.84C17.21-8.55 16.95-8.20 16.57-7.79L14.47-5.48C14.19-5.18 13.95-4.89 13.95-4.44C13.95-4.03 14.18-3.64 14.86-3.64ZM11.16-3.57C11.77-3.57 12.14-4.00 12.14-4.61L12.14-11.91C12.14-12.61 11.70-13.01 10.99-13.01C10.44-13.01 10.03-12.76 9.59-12.43L8.38-11.54C8.12-11.34 7.96-11.11 7.96-10.78C7.96-10.38 8.24-10.08 8.64-10.08C8.84-10.08 8.95-10.15 9.12-10.27L10.14-11.03L10.17-11.03L10.17-4.61C10.17-4.00 10.55-3.57 11.16-3.57Z" fill="currentColor"/>
</svg>