<svg xmlns="http://www.w3.org/2000/svg" viewBox="0 0 24 24" width="24" height="24">
  <title>16.circle</title>
  <path transform="matrix(0.8181527644614893, 0, 0, 0.8181527644614893, 0.28379674017257894, 18.922339405560884)" d="M14.32 3.76C21.07 3.76 26.54-1.71 26.54-8.46C26.54-15.21 21.07-20.68 14.32-20.68C7.57-20.68 2.10-15.21 2.10-8.46C2.10-1.71 7.57 3.76 14.32 3.76ZM14.32 1.08C9.05 1.08 4.78-3.19 4.78-8.46C4.78-13.73 9.05-18 14.32-18C19.59-18 23.86-13.73 23.86-8.46C23.86-3.19 19.59 1.08 14.32 1.08ZM16.83-3.61C18.61-3.61 19.59-5.09 19.59-6.87C19.59-8.39 18.90-9.86 17.41-9.86C16.49-9.86 15.83-9.21 15.60-8.30L15.56-8.30L15.56-8.58C15.56-9.96 15.75-11.81 16.80-11.81C17.26-11.81 17.53-11.48 17.72-11.06C17.91-10.69 18.15-10.51 18.55-10.51C19.08-10.51 19.29-10.88 19.29-11.29C19.29-11.41 19.28-11.58 19.24-11.72C18.97-12.73 17.99-13.30 16.85-13.30C14.48-13.30 13.79-10.73 13.79-8.37C13.79-6.23 14.47-3.61 16.83-3.61ZM11.07-3.70C11.59-3.70 12.02-4.14 12.02-4.66L12.02-12.16C12.02-12.84 11.60-13.23 10.92-13.23C10.39-13.23 10.00-12.97 9.67-12.73L8.52-11.82C8.26-11.64 8.11-11.39 8.11-11.07C8.11-10.64 8.40-10.39 8.75-10.39C8.94-10.39 9.07-10.45 9.21-10.56L10.13-11.30L10.13-4.66C10.13-4.14 10.56-3.70 11.07-3.70ZM16.80-5.09C16.08-5.09 15.77-6 15.77-6.83C15.77-7.66 16.10-8.47 16.80-8.47C17.52-8.47 17.82-7.63 17.81-6.79C17.81-5.95 17.48-5.09 16.80-5.09Z" fill="currentColor"/>
</svg>