<svg xmlns="http://www.w3.org/2000/svg" viewBox="0 0 24 24" width="24" height="24">
  <title>18.square</title>
  <path transform="matrix(0.9044338456103161, 0, 0, 0.9044338456103161, -0.6974032856385799, 19.64705882352941)" d="M6.96 2.60L21.12 2.60C23.72 2.60 25.09 1.23 25.09-1.34L25.09-15.57C25.09-18.14 23.72-19.51 21.12-19.51L6.96-19.51C4.37-19.51 2.99-18.14 2.99-15.57L2.99-1.34C2.99 1.23 4.37 2.60 6.96 2.60ZM7.18-0.01C6.15-0.01 5.60-0.53 5.60-1.61L5.60-15.29C5.60-16.37 6.15-16.90 7.18-16.90L20.91-16.90C21.91-16.90 22.49-16.37 22.49-15.29L22.49-1.61C22.49-0.53 21.91-0.01 20.91-0.01ZM16.59-3.62C18.39-3.62 19.62-4.70 19.62-6.33C19.62-7.55 18.87-8.47 17.91-8.68L17.91-8.73C18.71-8.98 19.36-9.74 19.36-10.78C19.36-12.28 18.23-13.28 16.59-13.28C15.15-13.28 13.85-12.42 13.85-10.79C13.85-9.64 14.58-8.95 15.32-8.73L15.32-8.68C14.34-8.47 13.59-7.55 13.59-6.34C13.59-4.65 14.88-3.62 16.59-3.62ZM10.96-3.70C11.47-3.70 11.89-4.14 11.89-4.66L11.89-12.16C11.89-12.84 11.47-13.23 10.80-13.23C10.28-13.23 9.87-12.97 9.55-12.73L8.39-11.82C8.14-11.64 7.98-11.39 7.98-11.07C7.98-10.64 8.27-10.39 8.63-10.39C8.82-10.39 8.94-10.45 9.08-10.56L10.01-11.30L10.01-4.66C10.01-4.14 10.43-3.70 10.96-3.70ZM16.61-9.29C15.98-9.29 15.66-9.93 15.66-10.59C15.66-11.32 16.00-11.93 16.61-11.93C17.24-11.93 17.55-11.31 17.55-10.59C17.55-9.87 17.21-9.29 16.61-9.29ZM16.61-4.99C15.90-4.99 15.54-5.66 15.54-6.47C15.54-7.28 15.90-7.93 16.61-7.93C17.29-7.93 17.67-7.31 17.67-6.47C17.67-5.66 17.31-4.99 16.61-4.99Z" fill="currentColor"/>
</svg>