<svg xmlns="http://www.w3.org/2000/svg" viewBox="0 0 24 24" width="24" height="24">
  <title>18.square.fill</title>
  <path transform="matrix(0.9044338456103161, 0, 0, 0.9044338456103161, -0.6974032856385799, 19.64705882352941)" d="M6.96 2.60L21.12 2.60C23.72 2.60 25.09 1.23 25.09-1.34L25.09-15.57C25.09-18.14 23.72-19.51 21.12-19.51L6.96-19.51C4.37-19.51 2.99-18.14 2.99-15.57L2.99-1.34C2.99 1.23 4.37 2.60 6.96 2.60ZM16.77-3.41C14.98-3.41 13.63-4.48 13.63-6.23C13.63-7.51 14.41-8.47 15.43-8.70L15.43-8.74C14.65-8.98 13.90-9.69 13.90-10.90C13.90-12.60 15.26-13.50 16.77-13.50C18.48-13.50 19.68-12.46 19.68-10.89C19.68-9.80 19.00-9 18.14-8.74L18.14-8.70C19.15-8.47 19.92-7.51 19.92-6.23C19.92-4.54 18.63-3.41 16.77-3.41ZM10.86-3.49C10.31-3.49 9.87-3.94 9.87-4.50L9.87-11.41L8.92-10.65C8.77-10.54 8.64-10.48 8.43-10.48C8.06-10.48 7.76-10.73 7.76-11.19C7.76-11.53 7.92-11.78 8.18-11.98L9.39-12.91C9.73-13.17 10.15-13.44 10.71-13.44C11.41-13.44 11.86-13.04 11.86-12.33L11.86-4.50C11.86-3.94 11.40-3.49 10.86-3.49ZM16.78-9.34C17.43-9.34 17.77-9.94 17.77-10.70C17.77-11.44 17.44-12.08 16.78-12.08C16.15-12.08 15.80-11.45 15.80-10.70C15.80-9.98 16.14-9.34 16.78-9.34ZM16.78-4.84C17.51-4.84 17.88-5.54 17.88-6.39C17.88-7.25 17.50-7.91 16.78-7.91C16.05-7.91 15.68-7.23 15.68-6.39C15.68-5.53 16.05-4.84 16.78-4.84Z" fill="currentColor"/>
</svg>