<svg xmlns="http://www.w3.org/2000/svg" viewBox="0 0 24 24" width="24" height="24">
  <title>2.circle</title>
  <path transform="matrix(0.8181527644614893, 0, 0, 0.8181527644614893, 0.28379674017257894, 18.922339405560884)" d="M14.32 3.76C21.07 3.76 26.54-1.71 26.54-8.46C26.54-15.21 21.07-20.68 14.32-20.68C7.57-20.68 2.10-15.21 2.10-8.46C2.10-1.71 7.57 3.76 14.32 3.76ZM14.32 1.08C9.05 1.08 4.78-3.19 4.78-8.46C4.78-13.73 9.05-18 14.32-18C19.59-18 23.86-13.73 23.86-8.46C23.86-3.19 19.59 1.08 14.32 1.08ZM11.67-3.23L17.57-3.23C18.21-3.23 18.64-3.62 18.64-4.24C18.64-4.86 18.21-5.24 17.57-5.24L14.04-5.24L14.04-5.33L16.31-7.66C17.47-8.79 18.16-9.70 18.16-10.92C18.16-12.75 16.64-13.97 14.36-13.97C12.57-13.97 11.06-13.01 10.64-11.67C10.58-11.48 10.56-11.31 10.56-11.12C10.56-10.52 10.98-10.17 11.60-10.17C12.13-10.17 12.39-10.46 12.62-10.80C12.93-11.39 13.42-12.01 14.34-12.01C15.23-12.01 15.82-11.51 15.82-10.73C15.82-10.01 15.23-9.39 14.51-8.67L11.07-5.20C10.72-4.88 10.61-4.56 10.61-4.22C10.61-3.63 11.03-3.23 11.67-3.23Z" fill="currentColor"/>
</svg>