<svg xmlns="http://www.w3.org/2000/svg" viewBox="0 0 24 24" width="24" height="24">
  <title>20.calendar</title>
  <path transform="matrix(0.8280769852822255, 0, 0, 0.8280769852822255, -0.4745269286754006, 18.996603590490054)" d="M6.96 2.60L23.17 2.60C25.77 2.60 27.14 1.24 27.14-1.32L27.14-15.56C27.14-18.13 25.77-19.50 23.17-19.50L6.96-19.50C4.37-19.50 2.99-18.13 2.99-15.56L2.99-1.32C2.99 1.24 4.37 2.60 6.96 2.60ZM7.04 0C6.11 0 5.60-0.47 5.60-1.46L5.60-12.11C5.60-13.09 6.11-13.56 7.04-13.56L23.07-13.56C24.01-13.56 24.53-13.09 24.53-12.11L24.53-1.46C24.53-0.47 24.01 0 23.07 0ZM18.47-1.89C20.79-1.89 21.48-4.44 21.48-6.75C21.48-9.05 20.79-11.60 18.47-11.60C16.16-11.60 15.46-9.05 15.46-6.75C15.46-4.44 16.16-1.89 18.47-1.89ZM9.73-2.13L13.63-2.13C14.11-2.13 14.36-2.45 14.36-2.87C14.36-3.32 14.10-3.62 13.63-3.62L11.11-3.62L11.11-3.71L12.66-5.64C13.72-6.95 14.19-7.80 14.19-8.91C14.19-10.52 13.09-11.60 11.48-11.60C10.02-11.60 8.87-10.43 8.87-9.21C8.87-8.73 9.14-8.39 9.63-8.39C10.04-8.39 10.32-8.58 10.45-9.02C10.64-9.68 10.89-10.14 11.47-10.14C12.12-10.14 12.42-9.56 12.42-8.84C12.42-7.95 11.81-7.05 11.17-6.25L9.34-3.90C9.05-3.54 8.86-3.23 8.86-2.87C8.86-2.43 9.15-2.13 9.73-2.13ZM18.47-3.40C17.66-3.40 17.36-4.78 17.36-6.75C17.36-8.71 17.66-10.09 18.47-10.09C19.29-10.09 19.59-8.71 19.59-6.75C19.59-4.78 19.29-3.40 18.47-3.40Z" fill="currentColor"/>
</svg>