<svg xmlns="http://www.w3.org/2000/svg" viewBox="0 0 24 24" width="24" height="24">
  
  <path transform="matrix(0.8280769852822255, 0, 0, 0.8280769852822255, -0.4745269286754006, 18.996603590490054)" d="M6.96 2.60L23.17 2.60C25.77 2.60 27.14 1.24 27.14-1.32L27.14-15.56C27.14-18.13 25.77-19.50 23.17-19.50L6.96-19.50C4.37-19.50 2.99-18.13 2.99-15.56L2.99-1.32C2.99 1.24 4.37 2.60 6.96 2.60ZM7.04 0C6.11 0 5.60-0.47 5.60-1.46L5.60-12.11C5.60-13.09 6.11-13.56 7.04-13.56L23.07-13.56C24.01-13.56 24.53-13.09 24.53-12.11L24.53-1.46C24.53-0.47 24.01 0 23.07 0ZM10.25-2.13L14.16-2.13C14.64-2.13 14.88-2.45 14.88-2.87C14.88-3.32 14.63-3.62 14.16-3.62L11.64-3.62L11.64-3.71L13.17-5.64C14.25-6.95 14.72-7.80 14.72-8.91C14.72-10.52 13.62-11.60 12.01-11.60C10.55-11.60 9.40-10.43 9.40-9.21C9.40-8.73 9.67-8.39 10.16-8.39C10.57-8.39 10.85-8.58 10.98-9.02C11.17-9.68 11.41-10.14 12-10.14C12.63-10.14 12.95-9.56 12.95-8.84C12.95-7.95 12.34-7.05 11.70-6.25L9.87-3.90C9.57-3.54 9.39-3.23 9.39-2.87C9.39-2.43 9.68-2.13 10.25-2.13ZM17.55-1.98C18.04-1.98 18.25-2.17 18.40-2.60L20.87-9.35C21.01-9.73 21.09-10.03 21.09-10.41C21.09-10.98 20.66-11.36 20.10-11.36L16.50-11.36C16.05-11.36 15.77-11.03 15.77-10.61C15.77-10.17 16.05-9.87 16.50-9.87L19.21-9.87L19.21-9.75L16.84-3.48C16.75-3.22 16.70-3.05 16.70-2.77C16.70-2.39 16.93-1.98 17.55-1.98Z" fill="currentColor"/>
</svg>