<svg xmlns="http://www.w3.org/2000/svg" viewBox="0 0 24 24" width="24" height="24">
  <title>27.square</title>
  <path transform="matrix(0.9044338456103161, 0, 0, 0.9044338456103161, -0.6974032856385799, 19.64705882352941)" d="M6.96 2.60L21.12 2.60C23.72 2.60 25.09 1.23 25.09-1.34L25.09-15.57C25.09-18.14 23.72-19.51 21.12-19.51L6.96-19.51C4.37-19.51 2.99-18.14 2.99-15.57L2.99-1.34C2.99 1.23 4.37 2.60 6.96 2.60ZM7.18-0.01C6.15-0.01 5.60-0.53 5.60-1.61L5.60-15.29C5.60-16.37 6.15-16.90 7.18-16.90L20.91-16.90C21.91-16.90 22.49-16.37 22.49-15.29L22.49-1.61C22.49-0.53 21.91-0.01 20.91-0.01ZM9.23-3.84L13.14-3.84C13.62-3.84 13.86-4.16 13.86-4.58C13.86-5.03 13.61-5.33 13.14-5.33L10.62-5.33L10.62-5.43L12.15-7.35C13.23-8.66 13.70-9.53 13.70-10.63C13.70-12.23 12.60-13.31 10.99-13.31C9.52-13.31 8.37-12.15 8.37-10.92C8.37-10.45 8.65-10.11 9.14-10.11C9.55-10.11 9.82-10.30 9.96-10.73C10.15-11.39 10.39-11.85 10.98-11.85C11.61-11.85 11.93-11.27 11.93-10.55C11.93-9.66 11.32-8.77 10.68-7.96L8.85-5.61C8.55-5.25 8.37-4.96 8.37-4.59C8.37-4.15 8.66-3.84 9.23-3.84ZM16.52-3.69C17.00-3.69 17.23-3.88 17.38-4.31L19.85-11.06C19.98-11.45 20.07-11.74 20.07-12.13C20.07-12.70 19.63-13.07 19.08-13.07L15.48-13.07C15.04-13.07 14.74-12.75 14.74-12.33C14.74-11.89 15.04-11.58 15.48-11.58L18.19-11.58L18.19-11.47L15.82-5.20C15.73-4.95 15.68-4.76 15.68-4.48C15.68-4.11 15.91-3.69 16.52-3.69Z" fill="currentColor"/>
</svg>