<svg xmlns="http://www.w3.org/2000/svg" viewBox="0 0 24 24" width="24" height="24">
  
  <path transform="matrix(0.9044338456103161, 0, 0, 0.9044338456103161, -0.6974032856385799, 19.64705882352941)" d="M6.96 2.60L21.12 2.60C23.72 2.60 25.09 1.23 25.09-1.34L25.09-15.57C25.09-18.14 23.72-19.51 21.12-19.51L6.96-19.51C4.37-19.51 2.99-18.14 2.99-15.57L2.99-1.34C2.99 1.23 4.37 2.60 6.96 2.60ZM7.18-0.01C6.15-0.01 5.60-0.53 5.60-1.61L5.60-15.29C5.60-16.37 6.15-16.90 7.18-16.90L20.91-16.90C21.91-16.90 22.49-16.37 22.49-15.29L22.49-1.61C22.49-0.53 21.91-0.01 20.91-0.01ZM11.33-3.63C13.02-3.63 14.29-4.66 14.29-6.38C14.29-7.72 13.49-8.47 12.52-8.58L12.52-8.63C13.45-8.87 14.02-9.75 14.02-10.77C14.02-12.36 12.84-13.28 11.27-13.28C10.09-13.28 9.04-12.63 8.71-11.59C8.65-11.38 8.61-11.17 8.61-10.97C8.61-10.57 8.87-10.22 9.40-10.22C9.81-10.22 10.11-10.36 10.23-10.79C10.38-11.38 10.70-11.80 11.29-11.80C11.95-11.80 12.26-11.24 12.26-10.56C12.26-9.81 11.87-9.21 11.06-9.21L10.85-9.21C10.39-9.21 10.14-8.95 10.14-8.54C10.14-8.12 10.39-7.88 10.85-7.88L11.07-7.88C11.99-7.88 12.46-7.38 12.46-6.46C12.46-5.75 12.09-5.11 11.33-5.11C10.62-5.11 10.29-5.59 10.15-6.07C10.01-6.48 9.74-6.70 9.32-6.70C8.81-6.70 8.47-6.40 8.47-5.88C8.47-5.67 8.51-5.46 8.57-5.27C8.91-4.21 10.07-3.63 11.33-3.63ZM18.09-3.70C18.61-3.70 19.04-4.14 19.04-4.66L19.04-12.16C19.04-12.84 18.62-13.23 17.94-13.23C17.41-13.23 17.02-12.97 16.69-12.73L15.54-11.82C15.28-11.64 15.13-11.39 15.13-11.07C15.13-10.64 15.42-10.39 15.77-10.39C15.96-10.39 16.09-10.45 16.23-10.56L17.14-11.30L17.14-4.66C17.14-4.14 17.58-3.70 18.09-3.70Z" fill="currentColor"/>
</svg>