<svg xmlns="http://www.w3.org/2000/svg" viewBox="0 0 24 24" width="24" height="24">
  
  <path transform="matrix(0.9044338456103161, 0, 0, 0.9044338456103161, -0.6974032856385799, 19.64705882352941)" d="M6.96 2.60L21.12 2.60C23.72 2.60 25.09 1.23 25.09-1.34L25.09-15.57C25.09-18.14 23.72-19.51 21.12-19.51L6.96-19.51C4.37-19.51 2.99-18.14 2.99-15.57L2.99-1.34C2.99 1.23 4.37 2.60 6.96 2.60ZM10.48-3.41C9.16-3.41 7.93-4.02 7.58-5.12C7.52-5.32 7.49-5.54 7.49-5.77C7.49-6.30 7.84-6.62 8.38-6.62C8.81-6.62 9.11-6.40 9.25-5.95C9.39-5.46 9.74-4.97 10.48-4.97C11.27-4.97 11.64-5.64 11.64-6.38C11.64-7.32 11.16-7.84 10.21-7.84L9.97-7.84C9.50-7.84 9.23-8.11 9.23-8.54C9.23-8.96 9.50-9.25 9.97-9.25L10.20-9.25C11.04-9.25 11.44-9.88 11.44-10.65C11.44-11.36 11.13-11.94 10.43-11.94C9.82-11.94 9.49-11.51 9.34-10.90C9.21-10.44 8.89-10.29 8.46-10.29C7.90-10.29 7.64-10.66 7.64-11.07C7.64-11.30 7.66-11.51 7.73-11.73C8.07-12.82 9.19-13.49 10.42-13.49C12.05-13.49 13.29-12.54 13.29-10.88C13.29-9.81 12.69-8.88 11.71-8.63L11.71-8.58C12.74-8.47 13.57-7.69 13.57-6.28C13.57-4.50 12.25-3.41 10.48-3.41ZM17.73-3.41C16.41-3.41 15.19-4.02 14.84-5.12C14.78-5.32 14.74-5.54 14.74-5.77C14.74-6.30 15.09-6.62 15.62-6.62C16.07-6.62 16.36-6.40 16.49-5.95C16.64-5.46 16.99-4.97 17.73-4.97C18.53-4.97 18.89-5.64 18.89-6.38C18.89-7.32 18.40-7.84 17.46-7.84L17.23-7.84C16.75-7.84 16.48-8.11 16.48-8.54C16.48-8.96 16.75-9.25 17.23-9.25L17.45-9.25C18.28-9.25 18.69-9.88 18.69-10.65C18.69-11.36 18.38-11.94 17.67-11.94C17.07-11.94 16.75-11.51 16.59-10.90C16.46-10.44 16.14-10.29 15.71-10.29C15.15-10.29 14.88-10.66 14.88-11.07C14.88-11.30 14.92-11.51 14.98-11.73C15.32-12.82 16.43-13.49 17.67-13.49C19.31-13.49 20.53-12.54 20.53-10.88C20.53-9.81 19.95-8.88 18.97-8.63L18.97-8.58C19.99-8.47 20.82-7.69 20.82-6.28C20.82-4.50 19.50-3.41 17.73-3.41Z" fill="currentColor"/>
</svg>