<svg xmlns="http://www.w3.org/2000/svg" viewBox="0 0 24 24" width="24" height="24">
  
  <path transform="matrix(0.9044338456103161, 0, 0, 0.9044338456103161, -0.6974032856385799, 19.64705882352941)" d="M6.96 2.60L21.12 2.60C23.72 2.60 25.09 1.23 25.09-1.34L25.09-15.57C25.09-18.14 23.72-19.51 21.12-19.51L6.96-19.51C4.37-19.51 2.99-18.14 2.99-15.57L2.99-1.34C2.99 1.23 4.37 2.60 6.96 2.60ZM7.18-0.01C6.15-0.01 5.60-0.53 5.60-1.61L5.60-15.29C5.60-16.37 6.15-16.90 7.18-16.90L20.91-16.90C21.91-16.90 22.49-16.37 22.49-15.29L22.49-1.61C22.49-0.53 21.91-0.01 20.91-0.01ZM10.36-3.63C12.05-3.63 13.31-4.66 13.31-6.38C13.31-7.72 12.52-8.47 11.54-8.58L11.54-8.63C12.48-8.87 13.04-9.75 13.04-10.77C13.04-12.36 11.87-13.28 10.30-13.28C9.12-13.28 8.06-12.63 7.73-11.59C7.68-11.38 7.64-11.17 7.64-10.97C7.64-10.57 7.90-10.22 8.43-10.22C8.84-10.22 9.14-10.36 9.26-10.79C9.41-11.38 9.73-11.80 10.31-11.80C10.98-11.80 11.29-11.24 11.29-10.56C11.29-9.81 10.90-9.21 10.09-9.21L9.88-9.21C9.42-9.21 9.16-8.95 9.16-8.54C9.16-8.12 9.42-7.88 9.88-7.88L10.10-7.88C11.02-7.88 11.48-7.38 11.48-6.46C11.48-5.75 11.12-5.11 10.36-5.11C9.64-5.11 9.32-5.59 9.18-6.07C9.04-6.48 8.77-6.70 8.34-6.70C7.84-6.70 7.50-6.40 7.50-5.88C7.50-5.67 7.54-5.46 7.59-5.27C7.93-4.21 9.09-3.63 10.36-3.63ZM18.68-3.69C19.16-3.69 19.56-3.97 19.56-4.61L19.56-5.58L19.88-5.58C20.39-5.58 20.60-5.91 20.60-6.32C20.60-6.76 20.38-7.05 19.88-7.05L19.56-7.05L19.56-11.85C19.56-12.73 18.98-13.22 18.13-13.22C17.11-13.22 16.72-12.59 16.37-11.73L14.65-7.82C14.46-7.36 14.38-7.00 14.38-6.61C14.38-5.98 14.79-5.58 15.45-5.58L17.79-5.58L17.79-4.61C17.79-3.95 18.23-3.69 18.68-3.69ZM17.84-7.01L15.95-7.01L15.95-7.09L17.79-11.66L17.84-11.66Z" fill="currentColor"/>
</svg>