<svg xmlns="http://www.w3.org/2000/svg" viewBox="0 0 24 24" width="24" height="24">
  
  <path transform="matrix(0.9044338456103161, 0, 0, 0.9044338456103161, -0.6974032856385799, 19.64705882352941)" d="M6.96 2.60L21.12 2.60C23.72 2.60 25.09 1.23 25.09-1.34L25.09-15.57C25.09-18.14 23.72-19.51 21.12-19.51L6.96-19.51C4.37-19.51 2.99-18.14 2.99-15.57L2.99-1.34C2.99 1.23 4.37 2.60 6.96 2.60ZM7.18-0.01C6.15-0.01 5.60-0.53 5.60-1.61L5.60-15.29C5.60-16.37 6.15-16.90 7.18-16.90L20.91-16.90C21.91-16.90 22.49-16.37 22.49-15.29L22.49-1.61C22.49-0.53 21.91-0.01 20.91-0.01ZM10.55-3.63C12.25-3.63 13.51-4.66 13.51-6.38C13.51-7.72 12.71-8.47 11.73-8.58L11.73-8.63C12.67-8.87 13.23-9.75 13.23-10.77C13.23-12.36 12.06-13.28 10.50-13.28C9.32-13.28 8.25-12.63 7.92-11.59C7.86-11.38 7.84-11.17 7.84-10.97C7.84-10.57 8.09-10.22 8.63-10.22C9.04-10.22 9.33-10.36 9.46-10.79C9.61-11.38 9.93-11.80 10.50-11.80C11.18-11.80 11.47-11.24 11.47-10.56C11.47-9.81 11.09-9.21 10.29-9.21L10.07-9.21C9.62-9.21 9.36-8.95 9.36-8.54C9.36-8.12 9.62-7.88 10.07-7.88L10.30-7.88C11.20-7.88 11.67-7.38 11.67-6.46C11.67-5.75 11.32-5.11 10.55-5.11C9.83-5.11 9.50-5.59 9.36-6.07C9.23-6.48 8.95-6.70 8.54-6.70C8.03-6.70 7.70-6.40 7.70-5.88C7.70-5.67 7.73-5.46 7.79-5.27C8.12-4.21 9.29-3.63 10.55-3.63ZM17.52-3.61C19.32-3.61 20.30-5.11 20.30-6.94C20.30-8.46 19.62-9.96 18.14-9.96C17.41-9.96 16.84-9.57 16.59-8.98L16.54-8.98L16.70-11.58L19.25-11.58C19.71-11.58 19.96-11.89 19.96-12.32C19.96-12.76 19.69-13.07 19.25-13.07L16.14-13.07C15.50-13.07 15.21-12.66 15.18-12.02L15.01-9C15-8.86 15-8.65 15-8.51C15-7.99 15.27-7.59 15.83-7.59C16.17-7.59 16.37-7.71 16.59-8.04C16.83-8.37 17.09-8.64 17.48-8.64C18.23-8.64 18.50-7.68 18.50-6.89C18.50-6.06 18.25-5.09 17.48-5.09C16.92-5.09 16.61-5.51 16.43-6.05C16.28-6.45 16.00-6.64 15.64-6.64C15.18-6.64 14.88-6.35 14.88-5.88C14.88-5.64 14.94-5.40 15.04-5.19C15.40-4.25 16.42-3.61 17.52-3.61Z" fill="currentColor"/>
</svg>