<svg xmlns="http://www.w3.org/2000/svg" viewBox="0 0 24 24" width="24" height="24">
  
  <path transform="matrix(0.8181527644614893, 0, 0, 0.8181527644614893, 0.28379674017257894, 18.922339405560884)" d="M14.32 3.76C21.07 3.76 26.54-1.72 26.54-8.46C26.54-15.21 21.07-20.68 14.32-20.68C7.58-20.68 2.10-15.21 2.10-8.46C2.10-1.72 7.58 3.76 14.32 3.76ZM11.09-3.41C9.77-3.41 8.54-4.02 8.19-5.12C8.13-5.32 8.10-5.54 8.10-5.77C8.10-6.30 8.45-6.62 8.98-6.62C9.42-6.62 9.71-6.40 9.86-5.95C10.00-5.46 10.35-4.97 11.09-4.97C11.88-4.97 12.25-5.64 12.25-6.38C12.25-7.32 11.77-7.84 10.82-7.84L10.58-7.84C10.11-7.84 9.84-8.11 9.84-8.54C9.84-8.96 10.11-9.25 10.58-9.25L10.80-9.25C11.65-9.25 12.05-9.88 12.05-10.65C12.05-11.36 11.74-11.94 11.04-11.94C10.43-11.94 10.10-11.51 9.95-10.90C9.82-10.44 9.50-10.29 9.07-10.29C8.51-10.29 8.24-10.66 8.24-11.07C8.24-11.30 8.27-11.51 8.34-11.73C8.68-12.82 9.80-13.49 11.03-13.49C12.66-13.49 13.90-12.54 13.90-10.88C13.90-9.81 13.30-8.88 12.32-8.63L12.32-8.58C13.35-8.47 14.18-7.69 14.18-6.28C14.18-4.50 12.86-3.41 11.09-3.41ZM17.02-3.48C16.36-3.48 16.13-3.91 16.13-4.31C16.13-4.61 16.17-4.78 16.28-5.06L18.74-11.59L18.74-11.71L15.91-11.71C15.46-11.71 15.14-12.04 15.14-12.50C15.14-12.94 15.45-13.28 15.91-13.28L19.66-13.28C20.26-13.28 20.72-12.89 20.72-12.28C20.72-11.88 20.64-11.57 20.48-11.17L17.91-4.14C17.74-3.68 17.52-3.48 17.02-3.48Z" fill="currentColor"/>
</svg>