<svg xmlns="http://www.w3.org/2000/svg" viewBox="0 0 24 24" width="24" height="24">
  <title>39.square</title>
  <path transform="matrix(0.9044338456103161, 0, 0, 0.9044338456103161, -0.6974032856385799, 19.64705882352941)" d="M6.96 2.60L21.12 2.60C23.72 2.60 25.09 1.23 25.09-1.34L25.09-15.57C25.09-18.14 23.72-19.51 21.12-19.51L6.96-19.51C4.37-19.51 2.99-18.14 2.99-15.57L2.99-1.34C2.99 1.23 4.37 2.60 6.96 2.60ZM7.18-0.01C6.15-0.01 5.60-0.53 5.60-1.61L5.60-15.29C5.60-16.37 6.15-16.90 7.18-16.90L20.91-16.90C21.91-16.90 22.49-16.37 22.49-15.29L22.49-1.61C22.49-0.53 21.91-0.01 20.91-0.01ZM16.73-7.05C17.66-7.05 18.30-7.69 18.55-8.61L18.59-8.61L18.59-8.32C18.59-6.95 18.39-5.10 17.33-5.10C16.90-5.10 16.62-5.39 16.42-5.85C16.23-6.23 15.97-6.40 15.60-6.40C15.06-6.40 14.84-6.04 14.84-5.63C14.84-5.48 14.86-5.33 14.89-5.19C15.16-4.17 16.15-3.61 17.29-3.61C19.65-3.61 20.36-6.16 20.36-8.53C20.36-10.66 19.66-13.30 17.31-13.30C15.54-13.30 14.54-11.81 14.54-10.03C14.54-8.52 15.23-7.05 16.73-7.05ZM10.46-3.63C12.15-3.63 13.42-4.66 13.42-6.38C13.42-7.72 12.62-8.47 11.64-8.58L11.64-8.63C12.59-8.87 13.15-9.75 13.15-10.77C13.15-12.36 11.98-13.28 10.41-13.28C9.22-13.28 8.17-12.63 7.84-11.59C7.78-11.38 7.75-11.17 7.75-10.97C7.75-10.57 8.00-10.22 8.53-10.22C8.94-10.22 9.25-10.36 9.36-10.79C9.52-11.38 9.83-11.80 10.42-11.80C11.09-11.80 11.39-11.24 11.39-10.56C11.39-9.81 11.00-9.21 10.20-9.21L9.98-9.21C9.53-9.21 9.27-8.95 9.27-8.54C9.27-8.12 9.53-7.88 9.98-7.88L10.21-7.88C11.12-7.88 11.59-7.38 11.59-6.46C11.59-5.75 11.23-5.11 10.45-5.11C9.75-5.11 9.42-5.59 9.28-6.07C9.14-6.48 8.87-6.70 8.45-6.70C7.95-6.70 7.61-6.40 7.61-5.88C7.61-5.67 7.64-5.46 7.70-5.27C8.03-4.21 9.20-3.63 10.46-3.63ZM17.33-8.44C16.63-8.44 16.32-9.27 16.32-10.10C16.32-10.96 16.66-11.81 17.33-11.81C18.06-11.81 18.36-10.96 18.36-10.09C18.36-9.23 18.04-8.44 17.33-8.44Z" fill="currentColor"/>
</svg>