<svg xmlns="http://www.w3.org/2000/svg" viewBox="0 0 24 24" width="24" height="24">
  
  <path transform="matrix(0.9049133969600566, 0, 0, 0.9049133969600566, -0.704135737009544, 19.6033934252386)" d="M2.99-0.35C2.99 0.36 3.57 0.95 4.29 0.95C5.02 0.95 5.60 0.36 5.60-0.35L5.60-16.45C5.60-17.17 5.02-17.75 4.29-17.75C3.57-17.75 2.99-17.17 2.99-16.45ZM22.49-0.35C22.49 0.36 23.07 0.95 23.79 0.95C24.50 0.95 25.09 0.36 25.09-0.35L25.09-16.45C25.09-17.17 24.50-17.75 23.79-17.75C23.07-17.75 22.49-17.17 22.49-16.45ZM15.50-3.11C16.04-3.11 16.52-3.41 16.52-4.15L16.52-5.11L16.92-5.11C17.53-5.11 17.75-5.51 17.75-5.95C17.75-6.43 17.51-6.81 16.92-6.81L16.52-6.81L16.52-11.89C16.52-12.89 15.83-13.43 14.84-13.43C13.84-13.43 13.35-12.89 12.91-12.06C12.20-10.76 11.13-8.66 10.59-7.41C10.45-7.02 10.34-6.64 10.34-6.23C10.34-5.59 10.78-5.11 11.53-5.11L14.50-5.11L14.50-4.15C14.50-3.41 14.98-3.11 15.50-3.11ZM14.54-6.74L12.12-6.74L12.12-6.84C12.75-8.34 13.72-10.27 14.50-11.72L14.54-11.72Z" fill="currentColor"/>
</svg>