<svg xmlns="http://www.w3.org/2000/svg" viewBox="0 0 24 24" width="24" height="24">
  <title>43.circle</title>
  <path transform="matrix(0.8181527644614893, 0, 0, 0.8181527644614893, 0.28379674017257894, 18.922339405560884)" d="M14.32 3.76C21.07 3.76 26.54-1.71 26.54-8.46C26.54-15.21 21.07-20.68 14.32-20.68C7.57-20.68 2.10-15.21 2.10-8.46C2.10-1.71 7.57 3.76 14.32 3.76ZM14.32 1.08C9.05 1.08 4.78-3.19 4.78-8.46C4.78-13.73 9.05-18 14.32-18C19.59-18 23.86-13.73 23.86-8.46C23.86-3.19 19.59 1.08 14.32 1.08ZM17.70-3.63C19.39-3.63 20.66-4.66 20.66-6.38C20.66-7.72 19.86-8.47 18.88-8.58L18.88-8.63C19.82-8.87 20.38-9.75 20.38-10.77C20.38-12.36 19.21-13.28 17.65-13.28C16.46-13.28 15.40-12.63 15.07-11.59C15.01-11.38 14.99-11.17 14.99-10.97C14.99-10.57 15.23-10.22 15.77-10.22C16.18-10.22 16.48-10.36 16.61-10.79C16.76-11.38 17.07-11.80 17.65-11.80C18.33-11.80 18.62-11.24 18.62-10.56C18.62-9.81 18.23-9.21 17.44-9.21L17.21-9.21C16.77-9.21 16.51-8.95 16.51-8.54C16.51-8.12 16.77-7.88 17.21-7.88L17.45-7.88C18.35-7.88 18.82-7.38 18.82-6.46C18.82-5.75 18.47-5.11 17.70-5.11C16.98-5.11 16.65-5.59 16.51-6.07C16.38-6.48 16.10-6.70 15.69-6.70C15.18-6.70 14.85-6.40 14.85-5.88C14.85-5.67 14.88-5.46 14.94-5.27C15.27-4.21 16.44-3.63 17.70-3.63ZM11.86-3.69C12.34-3.69 12.74-3.97 12.74-4.61L12.74-5.58L13.04-5.58C13.57-5.58 13.77-5.91 13.77-6.32C13.77-6.76 13.55-7.05 13.05-7.05L12.74-7.05L12.74-11.85C12.74-12.73 12.16-13.22 11.31-13.22C10.29-13.22 9.89-12.59 9.55-11.73L7.83-7.82C7.64-7.36 7.56-7.00 7.56-6.61C7.56-5.98 7.96-5.58 8.63-5.58L10.96-5.58L10.96-4.61C10.96-3.95 11.41-3.69 11.86-3.69ZM11.00-7.01L9.12-7.01L9.12-7.09L10.97-11.66L11.00-11.66Z" fill="currentColor"/>
</svg>