<svg xmlns="http://www.w3.org/2000/svg" viewBox="0 0 24 24" width="24" height="24">
  
  <path transform="matrix(0.9044338456103161, 0, 0, 0.9044338456103161, -0.6974032856385799, 19.64705882352941)" d="M6.96 2.60L21.12 2.60C23.72 2.60 25.09 1.23 25.09-1.34L25.09-15.57C25.09-18.14 23.72-19.51 21.12-19.51L6.96-19.51C4.37-19.51 2.99-18.14 2.99-15.57L2.99-1.34C2.99 1.23 4.37 2.60 6.96 2.60ZM12.66-2.72C11.92-2.72 11.38-3.18 11.38-3.86C11.38-4.17 11.45-4.41 11.60-4.66L15.69-11.78L15.69-11.88L11.02-11.88C10.37-11.88 9.94-12.29 9.94-12.91C9.94-13.54 10.36-13.93 11.02-13.93L16.84-13.93C17.87-13.93 18.53-13.34 18.53-12.46C18.53-12.05 18.43-11.68 18.12-11.16L13.93-3.60C13.56-2.94 13.22-2.72 12.66-2.72Z" fill="currentColor"/>
</svg>