<svg xmlns="http://www.w3.org/2000/svg" viewBox="0 0 24 24" width="24" height="24">
  <title>75.arrow.trianglehead.counterclockwise</title>
  <path transform="matrix(0.7513267873244064, 0, 0, 0.7513267873244064, 1.240765615893461, 19.17371993674452)" d="M14.32 3.76C21.07 3.76 26.54-1.72 26.54-8.46C26.54-14.38 22.35-19.30 16.75-20.44L16.75-21.96C16.75-22.86 16.03-23.10 15.38-22.61L11.54-19.80C11.03-19.43 11.04-18.83 11.54-18.46L15.38-15.67C16.03-15.19 16.75-15.42 16.75-16.30L16.75-17.68C20.85-16.62 23.86-12.89 23.86-8.46C23.86-3.19 19.59 1.08 14.32 1.08C9.05 1.08 4.78-3.19 4.78-8.46C4.78-11.47 6.16-14.09 8.34-15.83C8.94-16.39 9.14-17.17 8.64-17.80C8.19-18.39 7.31-18.49 6.63-17.88C3.82-15.62 2.10-12.20 2.10-8.46C2.10-1.72 7.57 3.76 14.32 3.76ZM9.63-3.77C10.08-3.77 10.30-3.95 10.46-4.36L13.13-10.65C13.27-10.99 13.38-11.33 13.38-11.71C13.38-12.35 12.90-12.67 12.36-12.67L8.50-12.67C8.06-12.67 7.77-12.38 7.77-11.93C7.77-11.50 8.06-11.20 8.50-11.20L11.51-11.20L11.51-11.12L8.92-5.21C8.82-4.99 8.77-4.78 8.77-4.55C8.77-4.08 9.13-3.77 9.63-3.77ZM17.45-3.68C19.29-3.68 20.43-5.02 20.43-6.86C20.43-8.40 19.58-9.71 18.08-9.71C17.32-9.71 16.69-9.38 16.38-8.77L16.34-8.77L16.51-11.19L19.32-11.19C19.77-11.19 20.04-11.48 20.04-11.93C20.04-12.39 19.77-12.67 19.32-12.67L15.96-12.67C15.32-12.67 15-12.32 14.96-11.66L14.75-8.44C14.72-7.89 15.02-7.43 15.61-7.43C16.00-7.43 16.20-7.56 16.44-7.85C16.68-8.18 17.02-8.40 17.44-8.40C18.26-8.40 18.63-7.62 18.63-6.81C18.63-5.92 18.21-5.17 17.43-5.17C16.83-5.17 16.43-5.54 16.22-6.07C16.03-6.42 15.76-6.60 15.42-6.60C14.95-6.60 14.65-6.30 14.65-5.85C14.65-5.59 14.75-5.34 14.91-5.14C15.28-4.22 16.43-3.68 17.45-3.68Z" fill="currentColor"/>
</svg>