<svg xmlns="http://www.w3.org/2000/svg" viewBox="0 0 24 24" width="24" height="24">
  
  <path transform="matrix(0.8181527644614893, 0, 0, 0.8181527644614893, 0.28379674017257894, 18.922339405560884)" d="M14.32 3.76C21.07 3.76 26.54-1.71 26.54-8.46C26.54-15.21 21.07-20.68 14.32-20.68C7.57-20.68 2.10-15.21 2.10-8.46C2.10-1.71 7.57 3.76 14.32 3.76ZM14.32 1.08C9.05 1.08 4.78-3.19 4.78-8.46C4.78-13.73 9.05-18 14.32-18C19.59-18 23.86-13.73 23.86-8.46C23.86-3.19 19.59 1.08 14.32 1.08ZM14.30-2.95C16.97-2.95 18.73-4.21 18.73-6.12C18.73-7.43 17.79-8.46 16.36-8.71L16.36-8.81C17.58-9.15 18.28-10.01 18.28-11.13C18.28-12.83 16.69-13.97 14.31-13.97C11.94-13.97 10.35-12.83 10.35-11.13C10.35-10.01 11.03-9.16 12.27-8.81L12.27-8.71C10.83-8.46 9.89-7.43 9.89-6.11C9.89-4.20 11.63-2.95 14.30-2.95ZM14.31-9.46C13.37-9.46 12.70-10.07 12.70-10.89C12.70-11.71 13.37-12.30 14.31-12.30C15.25-12.30 15.93-11.71 15.93-10.89C15.93-10.07 15.26-9.46 14.31-9.46ZM14.32-4.62C13.20-4.62 12.38-5.31 12.38-6.27C12.38-7.22 13.20-7.92 14.32-7.92C15.46-7.92 16.27-7.22 16.27-6.27C16.27-5.31 15.45-4.62 14.32-4.62Z" fill="currentColor"/>
</svg>