<svg xmlns="http://www.w3.org/2000/svg" viewBox="0 0 24 24" width="24" height="24">
  
  <path transform="matrix(0.9044338456103161, 0, 0, 0.9044338456103161, -0.6974032856385799, 19.64705882352941)" d="M6.96 2.60L21.12 2.60C23.72 2.60 25.09 1.23 25.09-1.34L25.09-15.57C25.09-18.14 23.72-19.51 21.12-19.51L6.96-19.51C4.37-19.51 2.99-18.14 2.99-15.57L2.99-1.34C2.99 1.23 4.37 2.60 6.96 2.60ZM14.07-2.71C11.27-2.71 9.46-4.00 9.46-6C9.46-7.38 10.44-8.46 11.94-8.72L11.94-8.82C10.64-9.20 9.93-10.08 9.93-11.25C9.93-13.03 11.59-14.23 14.09-14.23C16.59-14.23 18.26-13.03 18.26-11.25C18.26-10.08 17.52-9.19 16.24-8.82L16.24-8.72C17.73-8.46 18.73-7.38 18.73-6.01C18.73-4.01 16.89-2.71 14.07-2.71ZM14.09-9.52C15.07-9.52 15.76-10.14 15.76-11.00C15.76-11.85 15.06-12.46 14.09-12.46C13.13-12.46 12.42-11.85 12.42-11.00C12.42-10.14 13.13-9.52 14.09-9.52ZM14.10-4.46C15.26-4.46 16.11-5.18 16.11-6.18C16.11-7.17 15.28-7.89 14.10-7.89C12.94-7.89 12.08-7.16 12.08-6.18C12.08-5.18 12.94-4.46 14.10-4.46Z" fill="currentColor"/>
</svg>