<svg xmlns="http://www.w3.org/2000/svg" viewBox="0 0 24 24" width="24" height="24">
  
  <path transform="matrix(0.8181527644614893, 0, 0, 0.8181527644614893, 0.28379674017257894, 18.922339405560884)" d="M14.32 3.76C21.07 3.76 26.54-1.71 26.54-8.46C26.54-15.21 21.07-20.68 14.32-20.68C7.57-20.68 2.10-15.21 2.10-8.46C2.10-1.71 7.57 3.76 14.32 3.76ZM14.32 1.08C9.05 1.08 4.78-3.19 4.78-8.46C4.78-13.73 9.05-18 14.32-18C19.59-18 23.86-13.73 23.86-8.46C23.86-3.19 19.59 1.08 14.32 1.08ZM10.66-2.99C11.26-2.99 11.66-3.30 11.85-4.03L12.47-5.89L16.15-5.89L16.77-4.03C16.97-3.30 17.36-2.99 17.96-2.99C18.67-2.99 19.11-3.42 19.11-4.09C19.11-4.30 19.07-4.55 18.95-4.90L16.16-12.63C15.84-13.57 15.22-14.03 14.29-14.03C13.38-14.03 12.79-13.57 12.46-12.63L9.67-4.90C9.55-4.55 9.50-4.30 9.50-4.09C9.50-3.42 9.95-2.99 10.66-2.99ZM12.97-7.68L14.25-11.68L14.38-11.68L15.64-7.68Z" fill="currentColor"/>
</svg>