<svg xmlns="http://www.w3.org/2000/svg" viewBox="0 0 24 24" width="24" height="24">
  <title>airpods.pro.chargingcase.wireless.radiowaves.left.and.right.fill</title>
  <path transform="matrix(0.40137974286610223, 0, 0, 0.40137974286610223, 1.1580432737535278, 15.398400752587019)" d="M13.38-11.98L20.86-11.98C21.07-12.49 21.60-12.83 22.22-12.83L31.79-12.83C32.41-12.83 32.93-12.49 33.14-11.98L40.62-11.98L40.62-12.30C40.62-16.84 38.10-19.01 33.32-19.01L20.68-19.01C15.90-19.01 13.38-16.84 13.38-12.30ZM6.83-0.46C7.25-0.95 7.11-1.57 6.66-2.09C5.17-3.75 4.32-6 4.32-8.46C4.32-10.92 5.16-13.18 6.66-14.84C7.13-15.35 7.25-15.97 6.83-16.46C6.40-16.98 5.63-17.03 5.05-16.41C3.18-14.39 2.10-11.51 2.10-8.46C2.10-5.40 3.13-2.57 5.05-0.52C5.64 0.11 6.40 0.06 6.83-0.46ZM47.19-0.46C47.63 0.06 48.39 0.11 48.97-0.52C50.89-2.57 51.93-5.40 51.93-8.46C51.93-11.51 50.85-14.39 48.97-16.41C48.40-17.03 47.64-16.98 47.19-16.46C46.77-15.97 46.91-15.35 47.37-14.84C48.88-13.17 49.70-10.92 49.70-8.46C49.70-6 48.87-3.75 47.37-2.09C46.91-1.57 46.78-0.95 47.19-0.46ZM10.36-3.83C10.76-4.31 10.61-4.91 10.21-5.45C9.61-6.22 9.26-7.35 9.26-8.46C9.26-9.57 9.61-10.70 10.21-11.48C10.61-12.02 10.76-12.61 10.36-13.10C9.93-13.62 9.11-13.64 8.58-13.03C7.58-11.85 7.03-10.21 7.03-8.46C7.03-6.71 7.58-5.07 8.58-3.90C9.11-3.28 9.93-3.30 10.36-3.83ZM43.68-3.83C44.10-3.30 44.93-3.28 45.46-3.90C46.45-5.07 47.00-6.71 47.00-8.46C47.00-10.21 46.45-11.85 45.46-13.03C44.93-13.64 44.10-13.62 43.68-13.10C43.28-12.61 43.43-12.02 43.82-11.48C44.41-10.70 44.77-9.57 44.77-8.46C44.77-7.35 44.41-6.22 43.82-5.45C43.42-4.91 43.28-4.31 43.68-3.83ZM20.68 2.07L33.34 2.07C38.30 2.07 40.65-0.27 40.65-5.20L40.65-10.78L33.15-10.78C32.94-10.27 32.44-9.94 31.79-9.94L22.23-9.94C21.61-9.94 21.09-10.27 20.88-10.78L13.38-10.78L13.38-5.20C13.38-0.27 15.73 2.07 20.68 2.07ZM27.01-5.39C26.38-5.38 25.86-5.91 25.86-6.53C25.86-7.16 26.38-7.69 27.01-7.69C27.64-7.69 28.17-7.16 28.17-6.53C28.17-5.93 27.64-5.40 27.01-5.39Z" fill="currentColor"/>
</svg>