<svg xmlns="http://www.w3.org/2000/svg" viewBox="0 0 24 24" width="24" height="24">
  
  <path transform="matrix(0.7023319615912208, 0, 0, 0.7023319615912208, -0.09876543209876543, 17.938271604938272)" d="M8.99 1.11L13.25 1.11C15.09 1.11 16.17 0.02 16.17-1.85L16.17-19.56C16.17-21.43 15.09-22.52 13.25-22.52L8.99-22.52C7.14-22.52 6.06-21.43 6.06-19.56L6.06-1.85C6.06 0.02 7.14 1.11 8.99 1.11ZM9.36-1.35C8.82-1.35 8.52-1.65 8.52-2.17L8.52-19.23C8.52-19.76 8.82-20.06 9.36-20.06L12.88-20.06C13.42-20.06 13.72-19.76 13.72-19.23L13.72-2.17C13.72-1.65 13.42-1.35 12.88-1.35ZM21.22 1.11L25.50 1.11C27.34 1.11 28.42 0.02 28.42-1.85L28.42-11.50C28.42-13.37 27.34-14.46 25.50-14.46L21.22-14.46C19.38-14.46 18.30-13.37 18.30-11.50L18.30-1.85C18.30 0.02 19.38 1.11 21.22 1.11ZM21.61-1.35C21.06-1.35 20.77-1.65 20.77-2.17L20.77-11.17C20.77-11.70 21.06-12 21.61-12L25.11-12C25.65-12 25.96-11.70 25.96-11.17L25.96-2.17C25.96-1.65 25.65-1.35 25.11-1.35ZM4.17 5.61L30.28 5.61C30.94 5.61 31.46 5.06 31.46 4.41C31.46 3.75 30.94 3.19 30.28 3.19L4.17 3.19C3.52 3.19 2.99 3.75 2.99 4.41C2.99 5.06 3.52 5.61 4.17 5.61Z" fill="currentColor"/>
</svg>