<svg xmlns="http://www.w3.org/2000/svg" viewBox="0 0 24 24" width="24" height="24">
  <title>american.football.circle</title>
  <path transform="matrix(0.8181527644614893, 0, 0, 0.8181527644614893, 0.28379674017257894, 18.922339405560884)" d="M14.32 3.76C21.07 3.76 26.54-1.71 26.54-8.46C26.54-15.21 21.07-20.68 14.32-20.68C7.57-20.68 2.10-15.21 2.10-8.46C2.10-1.71 7.57 3.76 14.32 3.76ZM14.32 1.08C9.05 1.08 4.78-3.19 4.78-8.46C4.78-13.73 9.05-18 14.32-18C19.59-18 23.86-13.73 23.86-8.46C23.86-3.19 19.59 1.08 14.32 1.08ZM19.88-12.93C19.66-13.58 19.44-13.80 18.79-14.02C17.79-14.31 16.70-14.34 15.59-14.14L20.00-9.73C20.20-10.84 20.17-11.93 19.88-12.93ZM17.60-5.18C18.55-6.12 19.22-7.22 19.64-8.37L14.23-13.78C13.08-13.37 11.98-12.69 11.04-11.74C10.09-10.80 9.42-9.70 9-8.57L14.41-3.14C15.56-3.56 16.66-4.23 17.60-5.18ZM13.58-6.02C13.44-5.91 13.27-5.92 13.13-6.04L11.88-7.27C11.77-7.39 11.77-7.58 11.88-7.72C12.02-7.84 12.21-7.84 12.34-7.72L12.73-7.32L13.09-7.68L12.68-8.06C12.56-8.18 12.56-8.39 12.68-8.52C12.81-8.65 13.01-8.65 13.14-8.53L13.54-8.11L13.88-8.47L13.49-8.87C13.36-8.99 13.36-9.19 13.49-9.32C13.61-9.45 13.80-9.45 13.92-9.32L14.33-8.92L14.70-9.27L14.29-9.68C14.16-9.79 14.16-10.00 14.29-10.11C14.41-10.24 14.61-10.24 14.73-10.11L15.13-9.73L15.49-10.07L15.08-10.46C14.96-10.59 14.96-10.79 15.08-10.92C15.21-11.03 15.41-11.04 15.53-10.92L16.78-9.69C16.90-9.55 16.89-9.35 16.78-9.22C16.65-9.11 16.45-9.11 16.32-9.23L15.93-9.63L15.57-9.27L15.97-8.87C16.10-8.75 16.10-8.55 15.97-8.43C15.84-8.30 15.66-8.31 15.53-8.43L15.13-8.84L14.78-8.47L15.16-8.07C15.29-7.95 15.29-7.75 15.16-7.63C15.05-7.50 14.85-7.50 14.73-7.63L14.33-8.02L13.97-7.68L14.38-7.28C14.51-7.16 14.51-6.95 14.38-6.83C14.25-6.70 14.05-6.70 13.92-6.83L13.54-7.23L13.18-6.88L13.58-6.47C13.70-6.35 13.70-6.16 13.58-6.02ZM9.86-2.91C10.85-2.61 11.95-2.58 13.05-2.78L8.64-7.20C8.44-6.09 8.48-4.99 8.77-4.00C8.98-3.34 9.20-3.12 9.86-2.91Z" fill="currentColor"/>
</svg>