<svg xmlns="http://www.w3.org/2000/svg" viewBox="0 0 24 24" width="24" height="24">
  
  <path transform="matrix(0.8237787865971885, 0, 0, 0.8237787865971885, -0.22359752805461852, 18.969940827224647)" d="M26.44-17.79C26.02-19.17 25.55-19.64 24.16-20.06C22.13-20.67 19.84-20.75 17.54-20.34L26.72-11.17C27.14-13.46 27.05-15.75 26.44-17.79ZM21.71-1.59C23.67-3.54 25.09-5.85 25.96-8.24L14.61-19.58C12.22-18.71 9.91-17.30 7.97-15.33C6-13.38 4.59-11.07 3.71-8.70L15.07 2.66C17.46 1.79 19.76 0.38 21.71-1.59ZM13.29-3.36C13.03-3.12 12.62-3.12 12.36-3.38L9.74-5.99C9.49-6.25 9.49-6.66 9.74-6.91C10.00-7.17 10.43-7.17 10.68-6.93L11.52-6.07L12.26-6.82L11.41-7.66C11.16-7.91 11.16-8.32 11.41-8.58C11.67-8.85 12.09-8.85 12.34-8.59L13.18-7.73L13.93-8.48L13.08-9.33C12.83-9.59 12.82-10.00 13.08-10.25C13.34-10.51 13.76-10.51 14.00-10.27L14.86-9.41L15.61-10.16L14.75-11.00C14.51-11.25 14.50-11.67 14.75-11.93C15.01-12.19 15.43-12.19 15.68-11.93L16.54-11.09L17.27-11.82L16.43-12.67C16.17-12.93 16.17-13.34 16.43-13.59C16.69-13.85 17.10-13.85 17.34-13.61L19.97-10.98C20.23-10.72 20.23-10.31 19.97-10.05C19.71-9.80 19.30-9.80 19.04-10.07L18.20-10.90L17.45-10.16L18.30-9.32C18.56-9.06 18.56-8.64 18.30-8.38C18.04-8.12 17.63-8.13 17.38-8.39L16.54-9.23L15.77-8.48L16.63-7.64C16.89-7.38 16.89-6.97 16.63-6.70C16.37-6.45 15.96-6.46 15.70-6.71L14.86-7.56L14.11-6.82L14.95-5.96C15.22-5.72 15.22-5.30 14.95-5.04C14.70-4.79 14.29-4.78 14.03-5.04L13.18-5.88L12.45-5.14L13.29-4.30C13.55-4.05 13.55-3.63 13.29-3.36ZM5.52 3.14C7.56 3.75 9.84 3.83 12.13 3.42L2.95-5.75C2.54-3.46 2.63-1.17 3.23 0.87C3.66 2.25 4.14 2.72 5.52 3.14Z" fill="currentColor"/>
</svg>