<svg xmlns="http://www.w3.org/2000/svg" viewBox="0 0 24 24" width="24" height="24">
  <title>antenna.radiowaves.left.and.right.slash</title>
  <path transform="matrix(0.7646356033452808, 0, 0, 0.7646356033452808, 0.3960573476702509, 19.58291155206843)" d="M25.17 0.32C25.55 0.69 26.17 0.68 26.52 0.32C26.89-0.07 26.89-0.66 26.52-1.03L5.39-22.15C5.02-22.52 4.41-22.54 4.03-22.16C3.67-21.80 3.67-21.16 4.03-20.81ZM26.00-3.87C27.47-5.84 28.25-8.36 28.25-11.05C28.25-14.17 27.15-17.13 25.23-19.18C24.63-19.82 23.85-19.78 23.39-19.24C22.96-18.73 23.11-18.09 23.58-17.57C25.11-15.87 25.96-13.57 25.96-11.05C25.96-8.99 25.39-7.07 24.34-5.53ZM6.96-2.85C7.39-3.36 7.25-4.00 6.77-4.54C5.24-6.22 4.41-8.53 4.41-11.05C4.41-13.10 4.97-15 5.99-16.55L4.34-18.21C2.91-16.25 2.10-13.71 2.10-11.05C2.10-7.92 3.15-5.00 5.12-2.92C5.72-2.27 6.50-2.31 6.96-2.85ZM22.32-7.55C22.89-8.53 23.17-9.76 23.17-11.05C23.17-12.83 22.61-14.52 21.59-15.71C21.04-16.35 20.19-16.32 19.76-15.79C19.35-15.29 19.50-14.68 19.90-14.12C20.50-13.32 20.87-12.18 20.87-11.05C20.87-10.46 20.75-9.86 20.54-9.33ZM10.61-6.30C11.02-6.81 10.86-7.42 10.45-7.97C9.84-8.75 9.48-9.91 9.48-11.05C9.48-11.64 9.61-12.20 9.80-12.74L8.00-14.54C7.46-13.51 7.18-12.30 7.18-11.05C7.18-9.26 7.75-7.58 8.77-6.38C9.32-5.74 10.16-5.77 10.61-6.30ZM15.18 2.60C15.86 2.60 16.28 2.12 16.28 1.37L16.28-6.26L14.07-8.46L14.07 1.37C14.07 2.10 14.53 2.60 15.18 2.60Z" fill="currentColor"/>
</svg>