<svg xmlns="http://www.w3.org/2000/svg" viewBox="0 0 24 24" width="24" height="24">
  
  <path transform="matrix(0.9073188020556442, 0, 0, 0.9073188020556442, -0.7113237639553431, 19.682083997873473)" d="M9.43 2.55L18.59 2.55C20.64 2.55 22.27 1.96 23.34 0.88C24.45-0.21 25.03-1.83 25.03-3.88L25.03-13.04C25.03-15.09 24.45-16.71 23.34-17.80C22.25-18.89 20.64-19.49 18.59-19.49L9.43-19.49C7.37-19.49 5.75-18.88 4.68-17.80C3.57-16.71 2.99-15.09 2.99-13.04L2.99-3.88C2.99-1.83 3.57-0.21 4.68 0.88C5.75 1.96 7.37 2.55 9.43 2.55ZM9.55-16.88L13.24-16.88L13.24-15.43C11.87-15.29 10.63-14.77 9.61-13.95L7.20-16.37C7.79-16.70 8.59-16.88 9.55-16.88ZM18.47-16.88C19.43-16.88 20.23-16.70 20.82-16.37L18.38-13.92C17.37-14.73 16.14-15.28 14.78-15.43L14.78-16.88ZM22.42-12.93L22.42-9.23L20.94-9.23C20.79-10.59 20.26-11.82 19.45-12.83L21.91-15.29C22.25-14.68 22.42-13.90 22.42-12.93ZM5.60-12.93C5.60-13.90 5.77-14.68 6.11-15.29L8.52-12.88C7.70-11.86 7.16-10.61 7.01-9.23L5.60-9.23ZM10.80-12.75C11.51-13.27 12.33-13.62 13.24-13.73L13.24-10.31ZM14.78-13.73C15.68-13.59 16.50-13.24 17.19-12.73L14.78-10.31ZM8.71-9.23C8.84-10.15 9.19-10.98 9.71-11.68L12.16-9.23ZM15.86-9.23L18.26-11.65C18.77-10.96 19.13-10.14 19.24-9.23ZM5.60-4.01L5.60-7.70L7.01-7.70C7.16-6.33 7.70-5.07 8.52-4.07L6.11-1.64C5.77-2.25 5.60-3.04 5.60-4.01ZM8.71-7.70L12.16-7.70L9.71-5.26C9.19-5.95 8.84-6.79 8.71-7.70ZM15.86-7.70L19.25-7.70C19.13-6.81 18.77-5.99 18.27-5.30ZM22.42-4.01C22.42-3.04 22.25-2.25 21.91-1.64L19.45-4.10C20.26-5.11 20.80-6.35 20.94-7.70L22.42-7.70ZM14.78-6.62L17.19-4.21C16.50-3.69 15.68-3.34 14.78-3.21ZM10.80-4.18L13.24-6.62L13.24-3.20C12.33-3.32 11.50-3.67 10.80-4.18ZM18.47-0.05L14.78-0.05L14.78-1.51C16.14-1.66 17.37-2.20 18.39-3.01L20.84-0.56C20.23-0.22 19.43-0.05 18.47-0.05ZM9.55-0.05C8.58-0.05 7.79-0.22 7.18-0.56L9.61-2.99C10.63-2.18 11.87-1.64 13.24-1.50L13.24-0.05Z" fill="currentColor"/>
</svg>