<svg xmlns="http://www.w3.org/2000/svg" viewBox="0 0 24 24" width="24" height="24">
  
  <path transform="matrix(0.7488664618984935, 0, 0, 0.7488664618984935, 4.838964458095656, 18.349275998244845)" d="M2.99 1.92C2.99 3.74 4.17 4.88 6.08 4.88L13.04 4.88C14.95 4.88 16.14 3.74 16.14 1.92L16.14-18.88C16.14-20.70 14.95-21.83 13.04-21.83L6.08-21.83C4.17-21.83 2.99-20.70 2.99-18.88ZM5.45 1.57L5.45-18.53C5.45-19.08 5.80-19.41 6.40-19.41L12.73-19.41C13.32-19.41 13.69-19.08 13.69-18.53L13.69 1.57C13.69 2.12 13.32 2.45 12.73 2.45L6.40 2.45C5.80 2.45 5.45 2.12 5.45 1.57ZM9.57-11.36C11.38-11.36 12.84-12.82 12.84-14.63C12.84-16.44 11.38-17.91 9.57-17.91C7.76-17.91 6.29-16.44 6.29-14.63C6.29-12.82 7.76-11.36 9.57-11.36ZM9.57-13.34C8.86-13.34 8.29-13.92 8.29-14.63C8.29-15.34 8.86-15.91 9.57-15.91C10.29-15.91 10.86-15.34 10.86-14.63C10.86-13.92 10.29-13.34 9.57-13.34ZM7.70-7.15C8.45-7.15 9.06-7.76 9.06-8.51C9.06-9.26 8.45-9.87 7.70-9.87C6.95-9.87 6.34-9.26 6.34-8.51C6.34-7.76 6.95-7.15 7.70-7.15ZM11.45-7.15C12.19-7.15 12.80-7.76 12.80-8.51C12.80-9.26 12.19-9.87 11.45-9.87C10.70-9.87 10.09-9.26 10.09-8.51C10.09-7.76 10.70-7.15 11.45-7.15Z" fill="currentColor"/>
</svg>