<svg xmlns="http://www.w3.org/2000/svg" viewBox="0 0 24 24" width="24" height="24">
  <title>apps.iphone</title>
  <path transform="matrix(0.7612250966399049, 0, 0, 0.7612250966399049, 2.454950936663692, 18.449598572702946)" d="M4.27 1.29C4.27 3.30 5.68 4.66 7.78 4.66L17.39 4.66C19.44 4.66 20.81 3.30 20.81 1.28L20.81-18.23C20.81-20.25 19.44-21.61 17.39-21.61L7.78-21.61C5.68-21.61 4.27-20.25 4.27-18.23ZM6.88 0.59L6.88-17.53C6.88-18.40 7.39-18.88 8.29-18.88L16.80-18.88C17.68-18.88 18.21-18.39 18.21-17.53L18.21 0.59C18.21 1.44 17.68 1.93 16.80 1.93L8.29 1.93C7.39 1.93 6.88 1.45 6.88 0.59ZM8.85-15.33L9.97-15.33C10.25-15.33 10.44-15.50 10.44-15.76L10.44-16.92C10.44-17.18 10.25-17.36 9.97-17.36L8.85-17.36C8.59-17.36 8.41-17.18 8.41-16.92L8.41-15.76C8.41-15.50 8.59-15.33 8.85-15.33ZM11.96-15.33L13.09-15.33C13.37-15.33 13.56-15.50 13.56-15.76L13.56-16.92C13.56-17.18 13.37-17.36 13.09-17.36L11.96-17.36C11.71-17.36 11.53-17.18 11.53-16.92L11.53-15.76C11.53-15.50 11.71-15.33 11.96-15.33ZM15.07-15.33L16.21-15.33C16.48-15.33 16.68-15.50 16.68-15.76L16.68-16.92C16.68-17.18 16.48-17.36 16.21-17.36L15.07-17.36C14.81-17.36 14.64-17.18 14.64-16.92L14.64-15.76C14.64-15.50 14.81-15.33 15.07-15.33ZM8.85-12.09L9.97-12.09C10.25-12.09 10.44-12.27 10.44-12.53L10.44-13.70C10.44-13.96 10.25-14.13 9.97-14.13L8.85-14.13C8.59-14.13 8.41-13.96 8.41-13.70L8.41-12.53C8.41-12.27 8.59-12.09 8.85-12.09ZM11.96-12.09L13.09-12.09C13.37-12.09 13.56-12.27 13.56-12.53L13.56-13.70C13.56-13.96 13.37-14.13 13.09-14.13L11.96-14.13C11.71-14.13 11.53-13.96 11.53-13.70L11.53-12.53C11.53-12.27 11.71-12.09 11.96-12.09ZM15.07-12.09L16.21-12.09C16.48-12.09 16.68-12.27 16.68-12.53L16.68-13.70C16.68-13.96 16.48-14.13 16.21-14.13L15.07-14.13C14.81-14.13 14.64-13.96 14.64-13.70L14.64-12.53C14.64-12.27 14.81-12.09 15.07-12.09ZM8.85-8.86L9.97-8.86C10.25-8.86 10.44-9.04 10.44-9.30L10.44-10.46C10.44-10.72 10.25-10.90 9.97-10.90L8.85-10.90C8.59-10.90 8.41-10.72 8.41-10.46L8.41-9.30C8.41-9.04 8.59-8.86 8.85-8.86ZM11.96-8.86L13.09-8.86C13.37-8.86 13.56-9.04 13.56-9.30L13.56-10.46C13.56-10.72 13.37-10.90 13.09-10.90L11.96-10.90C11.71-10.90 11.53-10.72 11.53-10.46L11.53-9.30C11.53-9.04 11.71-8.86 11.96-8.86ZM8.85 0.46L9.97 0.46C10.25 0.46 10.44 0.28 10.44 0.02L10.44-1.14C10.44-1.39 10.25-1.57 9.97-1.57L8.85-1.57C8.59-1.57 8.41-1.39 8.41-1.14L8.41 0.02C8.41 0.28 8.59 0.46 8.85 0.46ZM11.96 0.46L13.09 0.46C13.37 0.46 13.56 0.28 13.56 0.02L13.56-1.14C13.56-1.39 13.37-1.57 13.09-1.57L11.96-1.57C11.71-1.57 11.53-1.39 11.53-1.14L11.53 0.02C11.53 0.28 11.71 0.46 11.96 0.46ZM15.07 0.46L16.21 0.46C16.48 0.46 16.68 0.28 16.68 0.02L16.68-1.14C16.68-1.39 16.48-1.57 16.21-1.57L15.07-1.57C14.81-1.57 14.64-1.39 14.64-1.14L14.64 0.02C14.64 0.28 14.81 0.46 15.07 0.46Z" fill="currentColor"/>
</svg>