<svg xmlns="http://www.w3.org/2000/svg" viewBox="0 0 24 24" width="24" height="24">
  
  <path transform="matrix(0.6794055201698513, 0, 0, 0.6794055201698513, 1.7253184713375793, 17.7484076433121)" d="M2.99-18.46L5.34-18.46L5.34-19.72C5.34-20.40 5.78-20.82 6.48-20.82L11.03-20.82L11.03-23.18L6.18-23.18C4.24-23.18 2.99-21.96 2.99-20.07ZM18.26-18.86L20.63-18.86L20.63-20.07C20.63-21.96 19.36-23.18 17.43-23.18L12.57-23.18L12.57-20.82L17.12-20.82C17.82-20.82 18.26-20.40 18.26-19.72ZM12.81 6.26L24.06 6.26C26.00 6.26 27.26 5.04 27.26 3.15L27.26-14.04C27.26-15.93 26.00-17.16 24.06-17.16L12.81-17.16C10.88-17.16 9.62-15.93 9.62-14.04L9.62 3.15C9.62 5.04 10.88 6.26 12.81 6.26ZM2.99-12.30L5.34-12.30L5.34-16.91L2.99-16.91ZM13.11 3.90C12.41 3.90 11.98 3.48 11.98 2.81L11.98-13.69C11.98-14.37 12.41-14.79 13.11-14.79L23.75-14.79C24.46-14.79 24.90-14.37 24.90-13.69L24.90 2.81C24.90 3.48 24.46 3.90 23.75 3.90ZM13.95-11.45L14.82-11.45C15.09-11.45 15.29-11.64 15.29-11.88L15.29-12.80C15.29-13.05 15.09-13.24 14.82-13.24L13.95-13.24C13.71-13.24 13.51-13.05 13.51-12.80L13.51-11.88C13.51-11.65 13.71-11.45 13.95-11.45ZM16.65-11.45L17.53-11.45C17.81-11.45 18-11.64 18-11.88L18-12.80C18-13.05 17.81-13.24 17.53-13.24L16.65-13.24C16.41-13.24 16.23-13.05 16.23-12.80L16.23-11.88C16.23-11.65 16.41-11.45 16.65-11.45ZM19.36-11.45L20.24-11.45C20.50-11.45 20.70-11.64 20.70-11.88L20.70-12.80C20.70-13.05 20.50-13.24 20.24-13.24L19.36-13.24C19.10-13.24 18.91-13.05 18.91-12.80L18.91-11.88C18.91-11.65 19.10-11.45 19.36-11.45ZM22.04-11.45L22.93-11.45C23.20-11.45 23.40-11.64 23.40-11.88L23.40-12.80C23.40-13.05 23.20-13.24 22.93-13.24L22.04-13.24C21.81-13.24 21.62-13.05 21.62-12.80L21.62-11.88C21.62-11.65 21.81-11.45 22.04-11.45ZM2.99-6.18L5.34-6.18L5.34-10.77L2.99-10.77ZM13.95-8.68L14.82-8.68C15.09-8.68 15.29-8.86 15.29-9.12L15.29-10.02C15.29-10.28 15.09-10.46 14.82-10.46L13.95-10.46C13.71-10.46 13.51-10.27 13.51-10.02L13.51-9.12C13.51-8.86 13.71-8.68 13.95-8.68ZM16.65-8.68L17.53-8.68C17.81-8.68 18-8.86 18-9.12L18-10.02C18-10.28 17.81-10.46 17.53-10.46L16.65-10.46C16.41-10.46 16.21-10.27 16.21-10.02L16.21-9.12C16.21-8.86 16.41-8.68 16.65-8.68ZM19.36-8.68L20.24-8.68C20.50-8.68 20.70-8.86 20.70-9.11L20.70-10.02C20.70-10.28 20.50-10.46 20.24-10.46L19.36-10.46C19.10-10.46 18.91-10.27 18.91-10.02L18.91-9.11C18.91-8.86 19.10-8.68 19.36-8.68ZM22.04-8.68L22.93-8.68C23.20-8.68 23.40-8.86 23.40-9.11L23.40-10.02C23.40-10.28 23.20-10.46 22.93-10.46L22.04-10.46C21.81-10.46 21.62-10.27 21.62-10.02L21.62-9.11C21.62-8.86 21.81-8.68 22.04-8.68ZM13.95-5.89L14.82-5.89C15.09-5.89 15.29-6.08 15.29-6.34L15.29-7.23C15.29-7.49 15.09-7.70 14.82-7.70L13.95-7.70C13.71-7.70 13.51-7.49 13.51-7.23L13.51-6.34C13.51-6.08 13.71-5.89 13.95-5.89ZM16.65-5.89L17.53-5.89C17.81-5.89 18-6.08 18-6.34L18-7.23C18-7.49 17.81-7.70 17.53-7.70L16.65-7.70C16.41-7.70 16.21-7.49 16.21-7.23L16.21-6.34C16.21-6.08 16.41-5.89 16.65-5.89ZM6.18 0.23L7.92 0.23L7.92-2.12L6.48-2.12C5.78-2.12 5.34-2.54 5.34-3.21L5.34-4.63L2.99-4.63L2.99-2.87C2.99-0.98 4.24 0.23 6.18 0.23ZM13.95 2.34L14.82 2.34C15.09 2.34 15.29 2.16 15.29 1.90L15.29 1.00C15.29 0.74 15.09 0.56 14.82 0.56L13.95 0.56C13.71 0.56 13.51 0.75 13.51 1.00L13.51 1.90C13.51 2.16 13.71 2.34 13.95 2.34ZM16.65 2.34L17.53 2.34C17.81 2.34 18 2.16 18 1.90L18 1.00C18 0.74 17.81 0.56 17.53 0.56L16.65 0.56C16.41 0.56 16.21 0.75 16.21 1.00L16.21 1.90C16.21 2.16 16.41 2.34 16.65 2.34ZM19.36 2.34L20.24 2.34C20.50 2.34 20.70 2.16 20.70 1.90L20.70 1.00C20.70 0.74 20.50 0.56 20.24 0.56L19.36 0.56C19.10 0.56 18.91 0.75 18.91 1.00L18.91 1.90C18.91 2.16 19.10 2.34 19.36 2.34ZM22.04 2.34L22.93 2.34C23.20 2.34 23.40 2.16 23.40 1.90L23.40 1.00C23.40 0.74 23.20 0.56 22.93 0.56L22.04 0.56C21.81 0.56 21.63 0.75 21.63 1.00L21.63 1.90C21.63 2.16 21.81 2.34 22.04 2.34Z" fill="currentColor"/>
</svg>