<svg xmlns="http://www.w3.org/2000/svg" viewBox="0 0 24 24" width="24" height="24">
  <title>arcade.stick.console.fill</title>
  <path transform="matrix(0.5804401643353004, 0, 0, 0.5804401643353004, 0.2639474322236104, 16.907666936342803)" d="M8.37 2.59L32.07 2.59C35.96 2.59 37.86 0.22 37.37-3.87L36.09-14.47C35.71-17.75 33.88-19.50 30.87-19.50L9.56-19.50C6.55-19.50 4.73-17.75 4.34-14.47L3.07-3.87C2.57 0.22 4.48 2.59 8.37 2.59ZM12.06-5.06C11.51-5.06 11.09-5.32 11.09-5.71L11.09-9.01C9.87-9.42 8.99-10.56 8.99-11.92C8.99-13.59 10.36-14.96 12.06-14.96C13.73-14.96 15.12-13.61 15.12-11.92C15.12-10.57 14.23-9.42 13.03-9.04L13.03-5.71C13.03-5.32 12.61-5.06 12.06-5.06ZM19.23-9.19C18.19-9.19 17.36-10.01 17.36-11.05C17.36-12.09 18.19-12.91 19.23-12.91C20.27-12.91 21.09-12.09 21.09-11.05C21.09-10.01 20.27-9.19 19.23-9.19ZM24.49-9.19C23.46-9.19 22.62-10.01 22.62-11.05C22.62-12.09 23.46-12.91 24.49-12.91C25.52-12.91 26.36-12.09 26.36-11.05C26.36-10.01 25.52-9.19 24.49-9.19ZM29.73-9.19C28.70-9.19 27.86-10.01 27.86-11.05C27.86-12.09 28.70-12.91 29.73-12.91C30.76-12.91 31.59-12.09 31.59-11.05C31.59-10.01 30.76-9.19 29.73-9.19ZM12.07-2.30C9.49-2.30 7.66-3.68 7.66-5.64C7.66-6.98 8.52-8.05 9.88-8.59L9.88-6.77C9.52-6.49 9.30-6.09 9.30-5.64C9.30-4.52 10.43-3.75 12.07-3.75C13.69-3.75 14.80-4.52 14.80-5.64C14.80-6.09 14.60-6.48 14.24-6.76L14.24-8.60C15.59-8.04 16.44-6.98 16.44-5.64C16.44-3.68 14.63-2.30 12.07-2.30ZM20.89-3.95C19.85-3.95 19.02-4.77 19.02-5.81C19.02-6.86 19.85-7.69 20.89-7.69C21.93-7.69 22.76-6.86 22.76-5.81C22.76-4.77 21.93-3.95 20.89-3.95ZM26.16-3.95C25.11-3.95 24.28-4.77 24.28-5.81C24.28-6.86 25.11-7.69 26.16-7.69C27.19-7.69 28.02-6.86 28.02-5.81C28.02-4.77 27.19-3.95 26.16-3.95ZM31.39-3.95C30.36-3.95 29.52-4.77 29.52-5.81C29.52-6.86 30.36-7.69 31.39-7.69C32.44-7.69 33.27-6.86 33.27-5.81C33.27-4.77 32.44-3.95 31.39-3.95Z" fill="currentColor"/>
</svg>