<svg xmlns="http://www.w3.org/2000/svg" viewBox="0 0 24 24" width="24" height="24">
  
  <path transform="matrix(0.8382449246889325, 0, 0, 0.8382449246889325, -0.504911591355599, 19.082514734774065)" d="M5.21-13.75L24.62-13.75C26.10-13.75 26.85-14.59 26.85-16.05L26.85-17.19C26.85-18.66 26.10-19.50 24.62-19.50L5.21-19.50C3.80-19.50 2.99-18.66 2.99-17.19L2.99-16.05C2.99-14.59 3.75-13.75 5.21-13.75ZM8.50 2.60L21.34 2.60C23.84 2.60 25.22 1.25 25.22-1.23L25.22-11.95L4.63-11.95L4.63-1.23C4.63 1.25 6 2.60 8.50 2.60ZM11.20-7.32C10.61-7.32 10.17-7.76 10.17-8.38L10.17-8.75C10.17-9.38 10.61-9.80 11.20-9.80L18.64-9.80C19.24-9.80 19.68-9.38 19.68-8.75L19.68-8.38C19.68-7.76 19.24-7.32 18.64-7.32Z" fill="currentColor"/>
</svg>