<svg xmlns="http://www.w3.org/2000/svg" viewBox="0 0 24 24" width="24" height="24">
  
  <path transform="matrix(0.8181527644614893, 0, 0, 0.8181527644614893, 0.28379674017257894, 18.91275167785235)" d="M14.32 3.77C21.07 3.77 26.54-1.70 26.54-8.45C26.54-15.19 21.07-20.67 14.32-20.67C7.58-20.67 2.10-15.19 2.10-8.45C2.10-1.70 7.58 3.77 14.32 3.77ZM9.07-11.07C8.30-11.07 7.90-11.51 7.90-12.28L7.90-12.88C7.90-13.65 8.33-14.10 9.07-14.10L19.58-14.10C20.36-14.10 20.74-13.65 20.74-12.88L20.74-12.28C20.74-11.51 20.36-11.07 19.58-11.07ZM10.91-2.38C9.60-2.38 8.86-3.08 8.86-4.41L8.86-10.05L19.78-10.05L19.78-4.41C19.78-3.08 19.04-2.38 17.74-2.38ZM12.34-7.51L16.30-7.51C16.62-7.51 16.85-7.73 16.85-8.06L16.85-8.26C16.85-8.59 16.62-8.80 16.30-8.80L12.34-8.80C12.04-8.80 11.79-8.59 11.79-8.26L11.79-8.06C11.79-7.73 12.04-7.51 12.34-7.51Z" fill="currentColor"/>
</svg>