<svg xmlns="http://www.w3.org/2000/svg" viewBox="0 0 24 24" width="24" height="24">
  <title>arrow.up.message.fill</title>
  <path transform="matrix(0.7096327096327096, 0, 0, 0.7096327096327096, 0.5114345114345114, 18.652806652806653)" d="M16.18 2.43C24.34 2.43 30.28-2.55 30.28-9.39C30.28-16.24 24.32-21.18 16.18-21.18C8.05-21.18 2.10-16.24 2.10-9.39C2.10-4.44 4.73-3.09 4.73-1.02C4.73-0.12 4.46 0.48 3.75 1.13C3.13 1.70 3.48 2.43 4.39 2.43C6.06 2.43 7.76 1.90 9.01 1.00C11.09 1.93 13.50 2.43 16.18 2.43ZM16.23-15.52C16.57-15.52 16.86-15.41 17.19-15.09L21.15-11.29C21.38-11.06 21.50-10.83 21.50-10.50C21.50-9.89 20.99-9.46 20.41-9.46C20.10-9.46 19.80-9.59 19.59-9.82L17.99-11.52L17.38-12.35L17.48-10.56L17.48-4.38C17.48-3.73 16.92-3.16 16.23-3.16C15.55-3.16 14.99-3.73 14.99-4.38L14.99-10.56L15.09-12.35L14.47-11.52L12.88-9.82C12.67-9.59 12.36-9.46 12.05-9.46C11.46-9.46 10.97-9.89 10.97-10.50C10.97-10.83 11.10-11.06 11.31-11.29L15.28-15.09C15.60-15.41 15.90-15.52 16.23-15.52Z" fill="currentColor"/>
</svg>