<svg xmlns="http://www.w3.org/2000/svg" viewBox="0 0 24 24" width="24" height="24">
  
  <path transform="matrix(0.7179918664983873, 0, 0, 0.7179918664983873, -0.14556163230963381, 18.06647034076567)" d="M6.96 2.60L26.87 2.60C29.46 2.60 30.84 1.23 30.84-1.34L30.84-15.56C30.84-18.13 29.46-19.50 26.87-19.50L6.96-19.50C4.37-19.50 2.99-18.14 2.99-15.56L2.99-1.34C2.99 1.24 4.37 2.60 6.96 2.60ZM19.38-6.77C18.60-6.77 18.07-7.22 18.07-8.07L18.07-13.35C18.07-13.97 18.48-14.43 19.08-14.43C19.69-14.43 20.10-13.99 20.10-13.37L20.10-11.67L19.97-10.09L21.43-11.68L24.76-15.01C25.00-15.26 25.28-15.38 25.62-15.38C26.24-15.38 26.71-14.94 26.71-14.26C26.71-13.98 26.58-13.69 26.36-13.48L23.00-10.13L21.40-8.65L22.92-8.79L24.66-8.79C25.30-8.79 25.72-8.38 25.72-7.78C25.72-7.18 25.30-6.77 24.68-6.77Z" fill="currentColor"/>
</svg>