<svg xmlns="http://www.w3.org/2000/svg" viewBox="0 0 24 24" width="24" height="24">
  
  <path transform="matrix(0.6609863155176865, 0, 0, 0.6609863155176865, 0.6134779240898529, 18.359411309062743)" d="M25.68 0.94C29.40 0.94 32.36-1.80 32.36-5.23C32.36-7.75 30.93-10.01 28.58-10.98C28.58-16.32 24.73-20.18 19.75-20.18C16.65-20.18 14.27-18.62 12.76-16.45C9.73-17.21 6.61-14.99 6.47-11.67C3.76-11.16 2.10-8.72 2.10-5.74C2.10-2.10 5.29 0.94 9.45 0.94ZM25.68-1.66L9.46-1.68C6.76-1.68 4.75-3.55 4.75-5.74C4.75-8.07 6.21-9.74 8.55-9.74C8.72-9.74 8.80-9.83 8.79-10.01C8.67-13.43 11.11-14.67 13.70-13.89C13.85-13.84 13.95-13.88 14.03-14.00C15.20-16.04 16.88-17.57 19.72-17.57C23.32-17.57 25.90-14.73 26.07-11.37C26.11-10.69 26.06-9.97 26.00-9.40C25.98-9.22 26.05-9.13 26.21-9.11C28.34-8.73 29.70-7.27 29.70-5.23C29.70-3.26 27.94-1.66 25.68-1.66ZM17.74-3.47C20.29-3.47 22.35-5.54 22.35-8.13C22.35-10.39 20.77-12.27 18.64-12.69L18.64-13.70C18.64-14.26 18.05-14.48 17.60-14.12L15.46-12.32C15.07-11.99 15.05-11.47 15.46-11.13L17.60-9.29C18.05-8.92 18.64-9.15 18.64-9.70L18.64-10.97C19.84-10.58 20.68-9.47 20.68-8.13C20.68-6.47 19.37-5.14 17.74-5.14C16.10-5.14 14.79-6.47 14.79-8.11C14.79-8.57 14.41-8.93 13.96-8.93C13.50-8.93 13.13-8.57 13.13-8.11C13.13-5.54 15.19-3.47 17.74-3.47Z" fill="currentColor"/>
</svg>