<svg xmlns="http://www.w3.org/2000/svg" viewBox="0 0 24 24" width="24" height="24">
  <title>arrow.trianglehead.2.counterclockwise</title>
  <path transform="matrix(0.6923274371200635, 0, 0, 0.6923274371200635, 2.08565474811659, 17.857904248948905)" d="M23.86-8.46C23.86-5.93 22.84-3.63 21.19-1.97C20.58-1.22 20.73-0.52 21.18-0.07C21.67 0.42 22.56 0.53 23.17-0.18C25.25-2.31 26.54-5.24 26.54-8.46C26.54-14.45 22.24-19.43 16.54-20.48L16.54-22.02C16.54-22.91 15.82-23.14 15.15-22.65L11.33-19.85C10.82-19.48 10.83-18.88 11.33-18.52L15.16-15.71C15.82-15.23 16.54-15.47 16.54-16.36L16.54-17.74C20.74-16.75 23.86-12.97 23.86-8.46ZM4.78-8.46C4.78-10.99 5.80-13.30 7.45-14.96C8.06-15.70 7.91-16.41 7.46-16.85C6.97-17.34 6.08-17.45 5.47-16.75C3.39-14.63 2.10-11.68 2.10-8.46C2.10-2.47 6.40 2.51 12.11 3.55L12.11 5.09C12.11 5.99 12.82 6.22 13.49 5.73L17.31 2.93C17.82 2.55 17.82 1.96 17.31 1.58L13.48-1.21C12.82-1.69 12.11-1.46 12.11-0.57L12.11 0.82C7.90-0.19 4.78-3.95 4.78-8.46Z" fill="currentColor"/>
</svg>