<svg xmlns="http://www.w3.org/2000/svg" viewBox="0 0 24 24" width="24" height="24">
  
  <path transform="matrix(0.849933598937583, 0, 0, 0.849933598937583, -0.20119521912350669, 19.191235059760956)" d="M2.70-10.54C2.70-5.19 7.03-0.86 12.38-0.86C14.27-0.86 16.02-1.42 17.48-2.37L22.58 2.73C22.97 3.12 23.48 3.30 24.02 3.30C25.17 3.30 26.02 2.43 26.02 1.30C26.02 0.76 25.82 0.26 25.44-0.12L20.39-5.19C21.45-6.70 22.05-8.54 22.05-10.54C22.05-15.89 17.72-20.23 12.38-20.23C7.03-20.23 2.70-15.89 2.70-10.54ZM5.46-10.54C5.46-14.36 8.57-17.45 12.38-17.45C16.20-17.45 19.29-14.36 19.29-10.54C19.29-6.73 16.20-3.62 12.38-3.62C8.57-3.62 5.46-6.73 5.46-10.54ZM9.59-10.57L10.38-11.36L13.15-8.58L12.33-7.77C11.91-7.37 12.08-6.64 12.75-6.64L15.55-6.64C16.00-6.64 16.25-6.95 16.25-7.45L16.25-10.08C16.25-10.76 15.54-10.91 15.13-10.52L14.32-9.73L11.55-12.50L12.39-13.32C12.81-13.73 12.63-14.45 11.96-14.45L9.16-14.45C8.73-14.45 8.46-14.14 8.46-13.64L8.46-11.02C8.46-10.34 9.19-10.18 9.59-10.57Z" fill="currentColor"/>
</svg>