<svg xmlns="http://www.w3.org/2000/svg" viewBox="0 0 24 24" width="24" height="24">
  <title>arrow.up.left.arrow.down.right.square</title>
  <path transform="matrix(0.9044338456103161, 0, 0, 0.9044338456103161, -0.6974032856385799, 19.64705882352941)" d="M6.96 2.60L21.12 2.60C23.72 2.60 25.09 1.23 25.09-1.34L25.09-15.57C25.09-18.14 23.72-19.51 21.12-19.51L6.96-19.51C4.37-19.51 2.99-18.14 2.99-15.57L2.99-1.34C2.99 1.23 4.37 2.60 6.96 2.60ZM7.18-0.01C6.15-0.01 5.60-0.53 5.60-1.61L5.60-15.29C5.60-16.37 6.15-16.90 7.18-16.90L20.91-16.90C21.91-16.90 22.49-16.37 22.49-15.29L22.49-1.61C22.49-0.53 21.91-0.01 20.91-0.01ZM12.43-14.86C12.09-14.53 12.09-14.03 12.42-13.70L17.54-8.58L17.88-8.25L17.78-8.26L15.79-8.30C15.56-8.31 15.36-8.21 15.21-8.06C14.86-7.72 14.86-7.23 15.20-6.90C15.35-6.75 15.59-6.66 15.81-6.66L19.83-6.60C20.31-6.60 20.71-7.01 20.71-7.48L20.65-11.51C20.65-11.73 20.54-11.96 20.40-12.11C20.06-12.45 19.59-12.45 19.24-12.11C19.10-11.95 19.01-11.74 19.01-11.53L19.05-9.52L19.05-9.40L18.73-9.75L13.61-14.87C13.28-15.20 12.76-15.20 12.43-14.86ZM15.64-2.03C15.97-2.37 15.98-2.87 15.64-3.20L10.52-8.32L10.18-8.65L10.30-8.64L12.30-8.60C12.54-8.60 12.74-8.68 12.89-8.85C13.23-9.19 13.22-9.66 12.88-10.00C12.74-10.14 12.52-10.24 12.29-10.24L8.26-10.29C7.78-10.30 7.38-9.90 7.38-9.42L7.44-5.39C7.45-5.18 7.54-4.95 7.69-4.79C8.03-4.45 8.50-4.45 8.84-4.79C9-4.95 9.08-5.16 9.07-5.37L9.04-7.38L9.04-7.48L9.36-7.14L14.47-2.03C14.80-1.69 15.30-1.70 15.64-2.03Z" fill="currentColor"/>
</svg>