<svg xmlns="http://www.w3.org/2000/svg" viewBox="0 0 24 24" width="24" height="24">
  <title>arrow.down.to.line.square</title>
  <path transform="matrix(0.9044338456103161, 0, 0, 0.9044338456103161, -0.6974032856385799, 19.64705882352941)" d="M6.96 2.60L21.12 2.60C23.72 2.60 25.09 1.23 25.09-1.34L25.09-15.57C25.09-18.14 23.72-19.51 21.12-19.51L6.96-19.51C4.37-19.51 2.99-18.14 2.99-15.57L2.99-1.34C2.99 1.23 4.37 2.60 6.96 2.60ZM7.18-0.01C6.15-0.01 5.60-0.53 5.60-1.61L5.60-15.29C5.60-16.37 6.15-16.90 7.18-16.90L20.91-16.90C21.91-16.90 22.49-16.37 22.49-15.29L22.49-1.61C22.49-0.53 21.91-0.01 20.91-0.01ZM14.04-5.03C14.31-5.03 14.57-5.14 14.75-5.33L18.56-9.11C18.77-9.30 18.86-9.55 18.86-9.80C18.86-10.34 18.48-10.73 17.95-10.73C17.68-10.73 17.45-10.63 17.26-10.44L16.52-9.69L14.86-7.80L14.99-9.69L14.99-14.19C14.99-14.77 14.60-15.18 14.04-15.18C13.46-15.18 13.08-14.77 13.08-14.19L13.08-9.69L13.22-7.79L11.53-9.70L10.84-10.44C10.66-10.63 10.44-10.73 10.15-10.73C9.61-10.73 9.23-10.35 9.23-9.80C9.23-9.57 9.35-9.29 9.53-9.11L13.32-5.33C13.52-5.13 13.77-5.03 14.04-5.03ZM9.84-2.39L18.25-2.39C18.77-2.39 19.17-2.80 19.17-3.33C19.17-3.86 18.77-4.25 18.25-4.25L9.84-4.25C9.32-4.25 8.92-3.86 8.92-3.33C8.92-2.80 9.32-2.39 9.84-2.39Z" fill="currentColor"/>
</svg>