<svg xmlns="http://www.w3.org/2000/svg" viewBox="0 0 24 24" width="24" height="24">
  
  <path transform="matrix(0.8181527644614893, 0, 0, 0.8181527644614893, 0.28379674017257894, 18.922339405560884)" d="M14.32 3.76C21.07 3.76 26.54-1.71 26.54-8.46C26.54-15.21 21.07-20.68 14.32-20.68C7.57-20.68 2.10-15.21 2.10-8.46C2.10-1.71 7.57 3.76 14.32 3.76ZM14.32 1.08C9.05 1.08 4.78-3.19 4.78-8.46C4.78-13.73 9.05-18 14.32-18C19.59-18 23.86-13.73 23.86-8.46C23.86-3.19 19.59 1.08 14.32 1.08ZM14.33-1.35C14.67-1.35 14.94-1.49 15.19-1.73L18.32-4.91C18.52-5.11 18.61-5.36 18.61-5.63C18.61-6.16 18.19-6.56 17.64-6.56C17.33-6.56 17.06-6.42 16.90-6.21L16.29-5.58L15.30-4.29L15.39-6.62L15.39-10.30L15.30-12.63L16.29-11.36L16.90-10.71C17.06-10.50 17.33-10.37 17.64-10.37C18.19-10.37 18.61-10.76 18.61-11.30C18.61-11.57 18.52-11.81 18.32-12.01L15.19-15.19C14.94-15.43 14.67-15.59 14.33-15.59C13.99-15.59 13.71-15.43 13.48-15.19L10.35-12.01C10.15-11.82 10.05-11.57 10.05-11.30C10.05-10.76 10.46-10.37 11.03-10.37C11.32-10.37 11.60-10.50 11.75-10.71L12.38-11.36L13.35-12.63L13.27-10.30L13.27-6.62L13.35-4.29L12.38-5.58L11.75-6.21C11.60-6.42 11.32-6.56 11.03-6.56C10.46-6.56 10.05-6.16 10.05-5.63C10.05-5.36 10.15-5.11 10.35-4.91L13.48-1.73C13.71-1.49 13.99-1.35 14.33-1.35Z" fill="currentColor"/>
</svg>