<svg xmlns="http://www.w3.org/2000/svg" viewBox="0 0 24 24" width="24" height="24">
  <title>arrow.down.left.and.arrow.up.right.square.fill</title>
  <path transform="matrix(0.9044338456103161, 0, 0, 0.9044338456103161, -0.6974032856385799, 19.64705882352941)" d="M6.96 2.60L21.12 2.60C23.72 2.60 25.09 1.23 25.09-1.34L25.09-15.57C25.09-18.14 23.72-19.51 21.12-19.51L6.96-19.51C4.37-19.51 2.99-18.14 2.99-15.57L2.99-1.34C2.99 1.23 4.37 2.60 6.96 2.60ZM19.37-8.32C18.81-8.32 18.36-8.77 18.36-9.33L18.36-9.86L18.52-11.48L16.20-9C15.77-8.53 15.05-8.55 14.60-8.99C14.17-9.43 14.17-10.16 14.61-10.58L17.09-12.89L15.49-12.74L14.96-12.74C14.41-12.74 13.96-13.18 13.96-13.73C13.96-14.30 14.41-14.75 14.96-14.75L19.10-14.75C19.92-14.75 20.38-14.34 20.38-13.48L20.38-9.33C20.38-8.77 19.93-8.32 19.37-8.32ZM13.20-2.14L9.06-2.14C8.23-2.14 7.78-2.55 7.78-3.42L7.78-7.57C7.78-8.13 8.23-8.58 8.79-8.58C9.34-8.58 9.80-8.13 9.80-7.57L9.80-7.04L9.63-5.41L11.96-7.90C12.39-8.37 13.11-8.34 13.55-7.91C13.98-7.46 13.99-6.74 13.55-6.32L11.07-4.01L12.67-4.16L13.20-4.16C13.75-4.16 14.20-3.71 14.20-3.16C14.20-2.60 13.75-2.14 13.20-2.14Z" fill="currentColor"/>
</svg>