<svg xmlns="http://www.w3.org/2000/svg" viewBox="0 0 24 24" width="24" height="24">
  <title>arrow.turn.up.forward.iphone</title>
  <path transform="matrix(0.5779433344621289, 0, 0, 0.5779433344621289, 0.2729427700643414, 16.896715204876397)" d="M21.05 1.29C21.05 3.30 22.46 4.66 24.56 4.66L34.17 4.66C36.22 4.66 37.59 3.30 37.59 1.28L37.59-18.23C37.59-20.25 36.22-21.61 34.17-21.61L24.56-21.61C22.46-21.61 21.05-20.25 21.05-18.23ZM23.66 0.59L23.66-17.53C23.66-18.40 24.18-18.88 25.07-18.88L33.59-18.88C34.46-18.88 34.99-18.39 34.99-17.53L34.99 0.59C34.99 1.44 34.46 1.93 33.59 1.93L25.07 1.93C24.18 1.93 23.66 1.45 23.66 0.59ZM4.45 1.18C5.31 1.18 5.91 0.60 5.91-0.27L5.91-2.03C5.91-5.64 8.26-7.02 11.24-7.02L11.94-7.02L14.55-7.13L12.40-5.26L11.33-4.35C10.98-4.04 10.83-3.67 10.83-3.23C10.83-2.44 11.41-1.85 12.23-1.85C12.62-1.85 12.97-1.99 13.31-2.32L18.30-7.35C18.63-7.68 18.81-8.05 18.81-8.47C18.81-8.89 18.63-9.27 18.30-9.60L13.29-14.65C12.97-14.94 12.62-15.09 12.23-15.09C11.41-15.09 10.83-14.50 10.83-13.70C10.83-13.28 10.98-12.89 11.33-12.60L12.40-11.68L14.54-9.82L11.94-9.93L11.25-9.93C6.90-9.93 2.99-7.58 2.99-2.02L2.99-0.27C2.99 0.60 3.60 1.18 4.45 1.18Z" fill="currentColor"/>
</svg>