<svg xmlns="http://www.w3.org/2000/svg" viewBox="0 0 24 24" width="24" height="24">
  <title>arrow.down.backward.toptrailing.rectangle</title>
  <path transform="matrix(0.7179918664983873, 0, 0, 0.7179918664983873, -0.14556163230963381, 18.06647034076567)" d="M6.96 2.60L26.87 2.60C29.46 2.60 30.84 1.23 30.84-1.34L30.84-15.56C30.84-18.13 29.46-19.50 26.87-19.50L6.96-19.50C4.37-19.50 2.99-18.14 2.99-15.56L2.99-1.34C2.99 1.24 4.37 2.60 6.96 2.60ZM7.18-0.01C6.15-0.01 5.60-0.53 5.60-1.61L5.60-15.29C5.60-16.37 6.15-16.89 7.18-16.89L26.65-16.89C27.67-16.89 28.23-16.37 28.23-15.29L28.23-1.61C28.23-0.53 27.67-0.01 26.65-0.01ZM19.50-6.96L24.57-6.96C25.16-6.97 25.56-7.35 25.56-7.91C25.56-8.48 25.16-8.88 24.55-8.88L22.50-8.88L21.46-8.78L22.96-10.15L26.19-13.38C26.39-13.58 26.52-13.86 26.52-14.14C26.52-14.77 26.07-15.19 25.48-15.19C25.16-15.19 24.90-15.07 24.68-14.85L21.47-11.65L20.07-10.13L20.19-11.27L20.19-13.24C20.18-13.85 19.79-14.26 19.22-14.26C18.64-14.26 18.27-13.86 18.26-13.28L18.26-8.20C18.26-7.42 18.73-6.96 19.50-6.96Z" fill="currentColor"/>
</svg>