<svg xmlns="http://www.w3.org/2000/svg" viewBox="0 0 24 24" width="24" height="24">
  <title>arrow.down.left</title>
  <path transform="matrix(1.1142537830255355, 0, 0, 1.1142537830255355, -1.3297036875567758, 21.355004205220084)" d="M5.86-8.33L5.86-12.75C5.86-13.57 5.23-14.24 4.44-14.24C3.66-14.24 2.99-13.58 2.99-12.73L3-0.97C3-0.06 3.61 0.56 4.54 0.56L16.30 0.56C17.17 0.56 17.80-0.09 17.80-0.88C17.80-1.65 17.13-2.29 16.32-2.29L12.07-2.29L7.62-2.11L9.45-3.80L20.46-14.82C21.14-15.52 21.05-16.36 20.47-16.91C19.89-17.50 19.05-17.52 18.40-16.88L7.38-5.87L5.66-4.01Z" fill="currentColor"/>
</svg>