<svg xmlns="http://www.w3.org/2000/svg" viewBox="0 0 24 24" width="24" height="24">
  
  <path transform="matrix(0.7397774888021962, 0, 0, 0.7397774888021962, -0.21066319895968766, 18.363242306025143)" d="M6.96 2.46L26.31 2.46C28.65 2.46 30.02 1.09 30.02-1.48L30.02-13.55C30.02-16.11 28.64-17.48 26.06-17.48L15.42-17.48C14.55-17.48 14.03-17.68 13.34-18.23L12.70-18.75C11.85-19.43 11.23-19.66 9.95-19.66L6.66-19.66C4.37-19.66 2.99-18.30 2.99-15.76L2.99-1.48C2.99 1.09 4.37 2.46 6.96 2.46ZM7.18-0.15C6.15-0.15 5.60-0.67 5.60-1.75L5.60-15.50C5.60-16.51 6.16-17.05 7.17-17.05L9.26-17.05C10.11-17.05 10.63-16.86 11.32-16.30L11.96-15.79C12.81-15.11 13.44-14.87 14.72-14.87L25.84-14.87C26.85-14.87 27.42-14.36 27.42-13.28L27.42-1.75C27.42-0.67 26.85-0.15 25.84-0.15ZM16.52-2.07C17.13-2.07 17.63-2.58 17.63-3.16L17.63-8.65L17.55-10.15L18.08-9.50L19.51-7.98C19.70-7.78 19.96-7.66 20.24-7.66C20.75-7.66 21.21-8.05 21.21-8.60C21.21-8.89 21.09-9.09 20.91-9.29L17.38-12.68C17.09-12.96 16.82-13.07 16.52-13.07C16.23-13.07 15.95-12.96 15.67-12.68L12.14-9.29C11.94-9.09 11.84-8.89 11.84-8.60C11.84-8.05 12.28-7.66 12.80-7.66C13.08-7.66 13.35-7.78 13.54-7.98L14.95-9.50L15.49-10.16L15.41-8.65L15.41-3.16C15.41-2.58 15.91-2.07 16.52-2.07Z" fill="currentColor"/>
</svg>