<svg xmlns="http://www.w3.org/2000/svg" viewBox="0 0 24 24" width="24" height="24">
  
  <path transform="matrix(1.114699500794785, 0, 0, 1.114699500794785, -1.330312208040854, 21.42160564392467)" d="M3.46 0.07C4.04 0.64 4.86 0.68 5.53 0.04L16.55-10.98L18.26-12.83L18.07-8.51L18.07-4.09C18.07-3.28 18.69-2.60 19.49-2.60C20.27-2.60 20.93-3.27 20.93-4.13L20.93-15.87C20.93-16.78 20.32-17.41 19.38-17.41L7.63-17.41C6.75-17.41 6.12-16.75 6.12-15.96C6.12-15.19 6.80-14.57 7.61-14.57L11.85-14.57L16.31-14.73L14.47-13.04L3.47-2.02C2.78-1.32 2.88-0.49 3.46 0.07Z" fill="currentColor"/>
</svg>