<svg xmlns="http://www.w3.org/2000/svg" viewBox="0 0 24 24" width="24" height="24">
  <title>arrow.right.square</title>
  <path transform="matrix(0.9044338456103161, 0, 0, 0.9044338456103161, -0.6974032856385799, 19.64705882352941)" d="M6.96 2.60L21.12 2.60C23.72 2.60 25.09 1.23 25.09-1.34L25.09-15.57C25.09-18.14 23.72-19.51 21.12-19.51L6.96-19.51C4.37-19.51 2.99-18.14 2.99-15.57L2.99-1.34C2.99 1.23 4.37 2.60 6.96 2.60ZM7.18-0.01C6.15-0.01 5.60-0.53 5.60-1.61L5.60-15.29C5.60-16.37 6.15-16.90 7.18-16.90L20.91-16.90C21.91-16.90 22.49-16.37 22.49-15.29L22.49-1.61C22.49-0.53 21.91-0.01 20.91-0.01ZM9.26-7.30L15.33-7.30L16.82-7.37L16.11-6.80L14.47-5.25C14.25-5.05 14.13-4.77 14.13-4.48C14.13-3.91 14.54-3.45 15.13-3.45C15.43-3.45 15.66-3.56 15.86-3.77L19.51-7.57C19.80-7.86 19.91-8.16 19.91-8.47C19.91-8.78 19.80-9.07 19.51-9.38L15.86-13.17C15.66-13.37 15.43-13.50 15.13-13.50C14.54-13.50 14.13-13.02 14.13-12.46C14.13-12.16 14.25-11.88 14.47-11.68L16.11-10.15L16.82-9.56L15.33-9.64L9.26-9.64C8.64-9.64 8.11-9.12 8.11-8.47C8.11-7.83 8.64-7.30 9.26-7.30Z" fill="currentColor"/>
</svg>