<svg xmlns="http://www.w3.org/2000/svg" viewBox="0 0 24 24" width="24" height="24">
  <title>arrowtriangle.backward</title>
  <path transform="matrix(1.0274934778246037, 0, 0, 1.0274934778246037, -0.45635159542444326, 20.675496688741724)" d="M20.11-17.96C19.59-17.96 19.17-17.77 18.57-17.46L3.91-10.35C2.84-9.82 2.39-9.23 2.39-8.45C2.39-7.65 2.84-7.08 3.91-6.55L18.57 0.57C19.18 0.87 19.61 1.08 20.12 1.08C21.12 1.08 21.86 0.32 21.86-0.93L21.86-15.97C21.86-17.20 21.11-17.96 20.11-17.96ZM19.11-14.72C19.18-14.72 19.22-14.67 19.22-14.59L19.23-2.30C19.23-2.21 19.18-2.17 19.13-2.17C19.08-2.17 19.04-2.19 18.98-2.21L6.11-8.32C6.06-8.36 6.01-8.39 6.01-8.45C6.01-8.51 6.06-8.54 6.11-8.57L18.97-14.67C19.03-14.70 19.07-14.72 19.11-14.72Z" fill="currentColor"/>
</svg>