<svg xmlns="http://www.w3.org/2000/svg" viewBox="0 0 24 24" width="24" height="24">
  
  <path transform="matrix(0.8181527644614893, 0, 0, 0.8181527644614893, 0.28379674017257894, 18.91275167785235)" d="M14.32 3.77C21.07 3.77 26.54-1.70 26.54-8.45C26.54-15.19 21.07-20.67 14.32-20.67C7.58-20.67 2.10-15.19 2.10-8.45C2.10-1.70 7.58 3.77 14.32 3.77ZM14.32-15.80C14.59-15.80 14.86-15.70 15.12-15.45L19.88-10.31C20.24-9.93 20.38-9.67 20.38-9.33C20.38-8.77 19.95-8.37 19.42-8.37L17.10-8.37L17.10-3.33C17.10-2.29 16.49-1.69 15.47-1.69L13.16-1.69C12.14-1.69 11.54-2.29 11.54-3.33L11.54-8.37L9.20-8.37C8.65-8.37 8.26-8.77 8.26-9.30C8.26-9.67 8.41-9.96 8.73-10.31L13.54-15.45C13.77-15.70 14.07-15.80 14.32-15.80Z" fill="currentColor"/>
</svg>