<svg xmlns="http://www.w3.org/2000/svg" viewBox="0 0 24 24" width="24" height="24">
  
  <path transform="matrix(0.7179918664983873, 0, 0, 0.7179918664983873, -0.14556163230963381, 18.06647034076567)" d="M6.96 2.60L26.87 2.60C29.46 2.60 30.84 1.23 30.84-1.34L30.84-15.56C30.84-18.13 29.46-19.50 26.87-19.50L6.96-19.50C4.37-19.50 2.99-18.14 2.99-15.56L2.99-1.34C2.99 1.24 4.37 2.60 6.96 2.60ZM18.40-15.34C18.95-15.34 19.34-14.92 19.34-14.36L19.34-13.08L19.22-11.63L20.51-13.10L22.72-15.32C22.96-15.54 23.21-15.66 23.52-15.66C24.09-15.66 24.52-15.23 24.52-14.65C24.52-14.38 24.39-14.11 24.19-13.90L21.95-11.66L20.45-10.37L21.83-10.52L23.20-10.52C23.78-10.52 24.19-10.11 24.19-9.57C24.19-9.02 23.78-8.63 23.21-8.63L18.64-8.63C17.92-8.63 17.46-9.02 17.46-9.81L17.46-14.34C17.46-14.91 17.85-15.34 18.40-15.34ZM15.42-1.57C14.88-1.57 14.48-1.98 14.48-2.54L14.48-3.82L14.61-5.27L13.31-3.80L11.10-1.58C10.88-1.36 10.62-1.24 10.31-1.24C9.74-1.24 9.30-1.66 9.30-2.25C9.30-2.52 9.45-2.79 9.64-3L11.88-5.24L13.37-6.53L12-6.39L10.63-6.39C10.04-6.39 9.64-6.79 9.64-7.32C9.64-7.88 10.04-8.27 10.61-8.27L15.19-8.27C15.91-8.27 16.37-7.88 16.37-7.09L16.37-2.57C16.37-1.99 15.97-1.57 15.42-1.57Z" fill="currentColor"/>
</svg>