<svg xmlns="http://www.w3.org/2000/svg" viewBox="0 0 24 24" width="24" height="24">
  <title>arrow.up.right.and.arrow.down.left.rectangle</title>
  <path transform="matrix(0.7179918664983873, 0, 0, 0.7179918664983873, -0.14556163230963381, 18.06647034076567)" d="M6.96 2.60L26.87 2.60C29.46 2.60 30.84 1.23 30.84-1.34L30.84-15.56C30.84-18.13 29.46-19.50 26.87-19.50L6.96-19.50C4.37-19.50 2.99-18.14 2.99-15.56L2.99-1.34C2.99 1.24 4.37 2.60 6.96 2.60ZM7.18-0.01C6.15-0.01 5.60-0.53 5.60-1.61L5.60-15.29C5.60-16.37 6.15-16.89 7.18-16.89L26.65-16.89C27.67-16.89 28.23-16.37 28.23-15.29L28.23-1.61C28.23-0.53 27.67-0.01 26.65-0.01ZM18.34-14.95C17.81-14.95 17.45-14.54 17.45-14.00L17.45-9.66C17.45-8.92 17.88-8.54 18.57-8.54L22.95-8.54C23.48-8.54 23.87-8.92 23.87-9.45C23.87-9.96 23.48-10.34 22.93-10.34L21.61-10.34L20.26-10.20L21.71-11.44L23.87-13.61C24.07-13.80 24.19-14.06 24.19-14.31C24.19-14.86 23.79-15.26 23.25-15.26C22.96-15.26 22.71-15.15 22.49-14.94L20.36-12.81L19.10-11.34L19.23-12.79L19.23-14.03C19.23-14.57 18.86-14.95 18.34-14.95ZM10.58-1.64C10.88-1.64 11.12-1.75 11.33-1.96L13.48-4.09L14.73-5.55L14.59-4.11L14.59-2.87C14.59-2.33 14.96-1.95 15.49-1.95C16.01-1.95 16.38-2.36 16.38-2.89L16.38-7.24C16.38-7.98 15.95-8.36 15.26-8.36L10.88-8.36C10.35-8.36 9.96-7.98 9.96-7.45C9.96-6.94 10.35-6.56 10.90-6.56L12.22-6.56L13.56-6.70L12.12-5.46L9.95-3.29C9.76-3.11 9.63-2.84 9.63-2.59C9.63-2.04 10.04-1.64 10.58-1.64Z" fill="currentColor"/>
</svg>