<svg xmlns="http://www.w3.org/2000/svg" viewBox="0 0 24 24" width="24" height="24">
  <title>arrow.turn.left.down</title>
  <path transform="matrix(0.8954179783140959, 0, 0, 0.8954179783140959, 0.9034627492130114, 19.57607555089192)" d="M18.61-19.63C13.38-19.63 10.75-17.40 10.75-12.16L10.75-4.77L10.83-1.79L8.91-3.97L5.43-7.46C5.16-7.73 4.80-7.91 4.38-7.91C3.59-7.91 2.99-7.31 2.99-6.47C2.99-6.11 3.14-5.75 3.45-5.44L11.12 2.25C11.40 2.54 11.81 2.71 12.21 2.71C12.61 2.71 13.01 2.54 13.29 2.25L20.96-5.44C21.27-5.75 21.42-6.11 21.42-6.47C21.42-7.31 20.82-7.91 20.03-7.91C19.61-7.91 19.25-7.73 18.98-7.46L15.50-3.97L13.58-1.80L13.66-4.77L13.66-11.95C13.65-15.49 15.18-16.73 18.67-16.73C19.35-16.72 19.91-16.69 20.34-16.69C21.20-16.69 21.80-17.21 21.80-18.07C21.80-18.98 21.07-19.39 20.44-19.51C19.90-19.61 19.28-19.63 18.61-19.63Z" fill="currentColor"/>
</svg>