<svg xmlns="http://www.w3.org/2000/svg" viewBox="0 0 24 24" width="24" height="24">
  <title>arrowtriangle.left.and.line.vertical.and.arrowtriangle.right.fill</title>
  <path transform="matrix(0.5345230222318313, 0, 0, 0.5345230222318313, 1.1590796477971845, 16.516301941747855)" d="M20.29 4.08C20.89 4.08 21.42 3.63 21.42 3L21.42-19.89C21.42-20.52 20.88-20.98 20.29-20.98C19.69-20.98 19.14-20.52 19.14-19.89L19.14 3C19.14 3.63 19.68 4.08 20.29 4.08ZM2.32-7.09L12.13-1.34C13.20-0.70 14.48-1.30 14.48-2.52L14.48-14.32C14.48-15.55 13.20-16.18 12.13-15.55L2.32-9.75C1.34-9.16 1.31-7.69 2.32-7.09ZM38.24-7.09C39.25-7.69 39.23-9.16 38.24-9.75L28.43-15.55C27.36-16.18 26.07-15.55 26.07-14.32L26.07-2.52C26.07-1.30 27.36-0.70 28.43-1.34Z" fill="currentColor"/>
</svg>