<svg xmlns="http://www.w3.org/2000/svg" viewBox="0 0 24 24" width="24" height="24">
  <title>arrowkeys.up.filled</title>
  <path transform="matrix(0.4603902526751191, 0, 0, 0.4603902526751191, 0.6242244402481791, 15.903425950903696)" d="M20.61-9.40L28.78-9.40C30.26-9.40 31.34-10.49 31.34-12.01L31.34-20.04C31.34-21.56 30.26-22.65 28.78-22.65L20.61-22.65C19.14-22.65 18.08-21.56 18.08-20.04L18.08-12.01C18.08-10.49 19.14-9.40 20.61-9.40ZM22.14-13.16C21.54-13.16 21.21-13.82 21.53-14.37L24.01-18.61C24.32-19.13 25.07-19.13 25.37-18.62L27.88-14.37C28.20-13.83 27.87-13.16 27.27-13.16ZM5.53 5.70L13.69 5.70C15.18 5.70 16.24 4.61 16.24 3.08L16.24-4.95C16.24-6.47 15.18-7.56 13.69-7.56L5.53-7.56C4.04-7.56 2.99-6.47 2.99-4.95L2.99 3.08C2.99 4.61 4.04 5.70 5.53 5.70ZM20.61 5.70L28.78 5.70C30.26 5.70 31.34 4.61 31.34 3.08L31.34-4.95C31.34-6.47 30.26-7.56 28.78-7.56L20.61-7.56C19.14-7.56 18.08-6.47 18.08-4.95L18.08 3.08C18.08 4.61 19.14 5.70 20.61 5.70ZM35.72 5.70L43.89 5.70C45.36 5.70 46.43 4.61 46.43 3.08L46.43-4.95C46.43-6.47 45.36-7.56 43.89-7.56L35.72-7.56C34.24-7.56 33.18-6.47 33.18-4.95L33.18 3.08C33.18 4.61 34.24 5.70 35.72 5.70ZM5.63 3.56C5.33 3.56 5.12 3.34 5.12 3.04L5.12-4.90C5.12-5.20 5.33-5.43 5.63-5.43L13.59-5.43C13.89-5.43 14.10-5.20 14.10-4.90L14.10 3.04C14.10 3.34 13.89 3.56 13.59 3.56ZM20.73 3.56C20.44 3.56 20.23 3.34 20.23 3.04L20.23-4.90C20.23-5.20 20.44-5.43 20.73-5.43L28.69-5.43C28.98-5.43 29.20-5.20 29.20-4.90L29.20 3.04C29.20 3.34 28.98 3.56 28.69 3.56ZM35.82 3.56C35.53 3.56 35.31 3.34 35.31 3.04L35.31-4.90C35.31-5.20 35.53-5.43 35.82-5.43L43.78-5.43C44.07-5.43 44.29-5.20 44.29-4.90L44.29 3.04C44.29 3.34 44.07 3.56 43.78 3.56Z" fill="currentColor"/>
</svg>