<svg xmlns="http://www.w3.org/2000/svg" viewBox="0 0 24 24" width="24" height="24">
  <title>asterisk</title>
  <path transform="matrix(0.8150270614453996, 0, 0, 0.8150270614453996, 0.8156638013371529, 18.886341929321873)" d="M13.73 3.82C14.81 3.82 15.45 3.19 15.43 2.10C15.43 1.95 15.42 1.75 15.41 1.54L15.09-6.13L21.39-2.14C21.83-1.82 22.30-1.66 22.79-1.66C23.75-1.66 24.46-2.39 24.46-3.39C24.46-4.16 24.09-4.69 23.32-5.05L16.49-8.45L23.32-11.86C24.11-12.22 24.46-12.75 24.46-13.52C24.46-14.51 23.75-15.23 22.79-15.23C22.30-15.23 21.83-15.08 21.39-14.77L15.09-10.78L15.41-18.45C15.42-18.66 15.43-18.84 15.43-19.01C15.45-20.10 14.81-20.72 13.73-20.72C12.64-20.72 12.01-20.10 12.02-19.01C12.02-18.84 12.04-18.66 12.05-18.45L12.36-10.78L6.07-14.77C5.61-15.08 5.14-15.23 4.66-15.23C3.69-15.23 2.99-14.52 2.99-13.52C2.99-12.75 3.35-12.22 4.14-11.86L10.97-8.45L4.14-5.05C3.35-4.69 2.99-4.15 2.99-3.39C2.99-2.39 3.69-1.66 4.66-1.66C5.14-1.66 5.61-1.82 6.07-2.14L12.36-6.13L12.05 1.54C12.04 1.75 12.02 1.95 12.02 2.10C12.01 3.19 12.64 3.82 13.73 3.82Z" fill="currentColor"/>
</svg>