<svg xmlns="http://www.w3.org/2000/svg" viewBox="0 0 24 24" width="24" height="24">
  <title>axle.2.rear.lock</title>
  <path transform="matrix(0.7535696749025368, 0, 0, 0.7535696749025368, 1.039018573657827, 18.405825886500008)" d="M4.22-13.34L5.36-12.91C6.40-12.54 7.38-13.03 7.76-14.09L8.47-16.04L13.27-16.04L13.27-5.27C13.65-5.44 14.10-5.53 14.57-5.53C15.01-5.53 15.41-5.46 15.79-5.32L15.79-16.04L19.71-16.04L19.62-15.77C19.23-14.71 19.68-13.71 20.71-13.34L21.84-12.91C22.89-12.54 23.86-13.03 24.25-14.09L25.96-18.79C26.36-19.85 25.90-20.85 24.87-21.22L23.73-21.64C22.70-22.02 21.71-21.54 21.33-20.47L20.64-18.56L9.40-18.56L9.48-18.79C9.87-19.85 9.42-20.85 8.39-21.22L7.24-21.64C6.21-22.02 5.23-21.54 4.84-20.47L3.13-15.77C2.74-14.71 3.19-13.71 4.22-13.34ZM12.57 4.55L16.57 4.55C17.30 4.55 17.67 4.16 17.67 3.38L17.67 0.32C17.67-0.34 17.40-0.71 16.88-0.82L16.88-1.70C16.88-3.18 15.97-4.15 14.58-4.15C13.18-4.15 12.26-3.18 12.26-1.70L12.26-0.82C11.73-0.71 11.46-0.35 11.46 0.32L11.46 3.38C11.46 4.16 11.85 4.55 12.57 4.55ZM5.70 4.77L7.00 4.77C8.10 4.77 8.85 3.97 8.85 2.85L8.85 1.61L10.15 1.61L10.15 0.33C10.15-0.15 10.27-0.56 10.45-0.89L8.85-0.89L8.85-2.14C8.85-3.27 8.10-4.07 7.00-4.07L5.70-4.07C4.59-4.07 3.84-3.27 3.84-2.14L3.84 2.85C3.84 3.97 4.59 4.77 5.70 4.77ZM18.98 1.61L20.24 1.61L20.24 2.85C20.24 3.97 21 4.77 22.09 4.77L23.39 4.77C24.49 4.77 25.25 3.97 25.25 2.85L25.25-2.14C25.25-3.27 24.49-4.07 23.39-4.07L22.09-4.07C21-4.07 20.24-3.27 20.24-2.14L20.24-0.89L18.69-0.89C18.88-0.56 18.98-0.15 18.98 0.33ZM13.35-0.84L13.35-1.79C13.35-2.58 13.83-3.08 14.58-3.08C15.32-3.08 15.81-2.58 15.81-1.79L15.81-0.84Z" fill="currentColor"/>
</svg>