<svg xmlns="http://www.w3.org/2000/svg" viewBox="0 0 24 24" width="24" height="24">
  
  <path transform="matrix(0.6920789402541228, 0, 0, 0.6920789402541228, 0.5482562854825628, 17.87843970408398)" d="M16.55-15.19C18.66-15.19 20.59-14.47 22.14-13.28C22.42-13.08 22.76-13.09 23.02-13.35L25.82-16.15C26.12-16.45 26.11-16.91 25.78-17.18C23.27-19.25 20.05-20.51 16.55-20.51C13.04-20.51 9.82-19.25 7.32-17.18C6.98-16.91 6.97-16.45 7.29-16.15L10.08-13.35C10.34-13.09 10.70-13.08 10.99-13.30C12.54-14.47 14.46-15.19 16.55-15.19ZM31.00-6.06C31.00-9.57 29.74-12.80 27.66-15.32C27.39-15.63 26.94-15.63 26.64-15.33L23.84-12.53C23.58-12.27 23.57-11.91 23.79-11.63C24.97-10.08 25.68-8.14 25.68-6.06C25.68-3.94 24.96-1.98 23.68-0.36C23.48-0.11 23.50 0.21 23.72 0.45L26.57 3.29C26.87 3.60 27.32 3.60 27.60 3.27C29.72 0.75 31.00-2.51 31.00-6.06ZM2.10-6.06C2.10-2.51 3.39 0.76 5.52 3.28C5.79 3.60 6.23 3.60 6.54 3.29L9.38 0.45C9.61 0.21 9.62-0.11 9.41-0.36C8.14-1.98 7.42-3.94 7.42-6.06C7.42-8.14 8.12-10.08 9.32-11.63C9.53-11.91 9.53-12.27 9.27-12.53L6.47-15.33C6.16-15.63 5.71-15.63 5.44-15.29C3.35-12.79 2.10-9.56 2.10-6.06ZM14.09-0.94L16.09-0.94L16.09-0.02C16.09 0.20 16.23 0.35 16.45 0.35C16.68 0.35 16.82 0.20 16.82-0.02L16.82-0.94L17.18-0.94C19.16-0.94 20.71-1.89 20.71-3.82C20.71-5.21 19.69-6.18 18.29-6.30L18.29-6.38C19.39-6.53 20.20-7.51 20.20-8.60C20.20-10.36 18.71-11.16 17.12-11.16L16.82-11.16L16.82-12.15C16.82-12.38 16.66-12.53 16.45-12.53C16.23-12.53 16.09-12.38 16.09-12.15L16.09-11.16L14.09-11.16C13.43-11.16 13.07-10.72 13.07-10.10L13.07-1.98C13.07-1.36 13.43-0.94 14.09-0.94ZM14.85-6.83L14.85-9.76L16.09-9.76L16.09-6.83ZM18.46-8.34C18.46-7.38 17.75-6.94 16.82-6.86L16.82-9.76C17.75-9.73 18.46-9.29 18.46-8.34ZM14.85-2.32L14.85-5.55L16.09-5.55L16.09-2.32ZM18.87-3.95C18.87-2.78 18-2.33 16.82-2.32L16.82-5.55C17.96-5.53 18.87-5.12 18.87-3.95Z" fill="currentColor"/>
</svg>