<svg xmlns="http://www.w3.org/2000/svg" viewBox="0 0 24 24" width="24" height="24">
  <title>banknote.fill</title>
  <path transform="matrix(0.6464646464646465, 0, 0, 0.6464646464646465, 0.06818181818181812, 17.46590909090909)" d="M2.99 0.33C2.99 0.96 3.41 1.38 4.04 1.38L32.86 1.38C33.50 1.38 33.93 0.96 33.93 0.33L33.93-17.24C33.93-17.87 33.50-18.29 32.86-18.29L4.04-18.29C3.41-18.29 2.99-17.87 2.99-17.24ZM5.65-1.89L5.65-15.02C5.65-15.43 5.86-15.64 6.25-15.64L30.67-15.64C31.05-15.64 31.27-15.43 31.27-15.02L31.27-1.89C31.27-1.48 31.05-1.28 30.67-1.28L6.25-1.28C5.86-1.28 5.65-1.48 5.65-1.89ZM6.98-2.87C6.98-2.71 7.08-2.63 7.23-2.63L15.71-2.63C14.64-3.83 14.00-5.88 14.00-8.47C14.00-11.04 14.64-13.08 15.70-14.29L7.23-14.29C7.08-14.29 6.98-14.20 6.98-14.04ZM21.16-2.63L29.67-2.63C29.82-2.63 29.92-2.71 29.92-2.87L29.92-14.04C29.92-14.20 29.82-14.29 29.67-14.29L21.19-14.29C22.28-13.08 22.92-11.04 22.92-8.47C22.92-5.88 22.27-3.83 21.16-2.63ZM15.54-8.47C15.54-5.06 16.71-2.91 18.41-2.91C20.17-2.91 21.39-5.06 21.39-8.47C21.39-11.87 20.17-14.02 18.41-14.02C16.71-14.02 15.54-11.87 15.54-8.47Z" fill="currentColor"/>
</svg>