<svg xmlns="http://www.w3.org/2000/svg" viewBox="0 0 24 24" width="24" height="24">
  <title>baseball</title>
  <path transform="matrix(0.8181527644614893, 0, 0, 0.8181527644614893, 0.28379674017257894, 18.922339405560884)" d="M14.32 3.76C21.07 3.76 26.54-1.71 26.54-8.46C26.54-15.21 21.07-20.68 14.32-20.68C7.57-20.68 2.10-15.21 2.10-8.46C2.10-1.71 7.57 3.76 14.32 3.76ZM14.32 1.66C13.92 1.66 13.52 1.64 13.13 1.59C13.29 0.95 13.41 0.28 13.45-0.40L13.91-0.39C14.26-0.38 14.54-0.67 14.54-1.01C14.54-1.35 14.27-1.63 13.92-1.64L13.49-1.64C13.48-2.29 13.41-2.92 13.29-3.55L13.70-3.66C14.03-3.74 14.23-4.08 14.13-4.42C14.04-4.77 13.70-4.96 13.37-4.86L12.98-4.76C12.79-5.38 12.55-5.99 12.25-6.57L12.67-6.81C13.00-6.98 13.07-7.38 12.89-7.65C12.71-7.98 12.34-8.07 12.05-7.90L11.61-7.66C11.24-8.24 10.82-8.78 10.35-9.27L10.71-9.64C10.98-9.91 10.95-10.29 10.71-10.51C10.45-10.77 10.07-10.78 9.83-10.54L9.43-10.14C8.99-10.52 8.51-10.88 8.00-11.19L8.19-11.53C8.37-11.84 8.26-12.20 7.96-12.35C7.64-12.54 7.25-12.45 7.09-12.14L6.90-11.79C6.29-12.08 5.67-12.32 5.03-12.50C6.60-16.08 10.17-18.59 14.32-18.59C14.70-18.59 15.07-18.57 15.43-18.53C15.27-17.88 15.16-17.21 15.12-16.54L14.70-16.55C14.34-16.54 14.07-16.27 14.06-15.90C14.05-15.57 14.32-15.29 14.67-15.29L15.08-15.28C15.11-14.68 15.16-14.09 15.27-13.50L14.73-13.36C14.38-13.27 14.21-12.91 14.31-12.60C14.38-12.27 14.70-12.06 15.05-12.15L15.56-12.29C15.76-11.64 16.02-11.00 16.34-10.38L15.90-10.14C15.60-9.97 15.52-9.59 15.69-9.29C15.84-9 16.22-8.87 16.52-9.06L16.96-9.30C17.32-8.74 17.72-8.23 18.16-7.75L17.88-7.46C17.64-7.23 17.64-6.84 17.91-6.59C18.13-6.36 18.52-6.34 18.77-6.59L19.07-6.88C19.55-6.46 20.06-6.08 20.61-5.75L20.40-5.39C20.24-5.09 20.34-4.70 20.64-4.54C20.93-4.37 21.33-4.46 21.49-4.77L21.70-5.16C22.32-4.86 22.96-4.63 23.61-4.44C22.07-0.86 18.48 1.66 14.32 1.66ZM18.45-10.16C18.73-10.32 18.84-10.66 18.67-11.00C18.52-11.30 18.12-11.43 17.82-11.24L17.57-11.09C17.31-11.60 17.10-12.12 16.93-12.64L17.18-12.70C17.54-12.81 17.71-13.15 17.61-13.46C17.54-13.78 17.21-14.00 16.86-13.91L16.64-13.85C16.55-14.32 16.50-14.79 16.48-15.26L16.89-15.25C17.23-15.25 17.50-15.50 17.50-15.86C17.52-16.20 17.24-16.49 16.89-16.50L16.49-16.50C16.54-17.11 16.63-17.71 16.78-18.29C21.19-17.19 24.45-13.21 24.45-8.46C24.45-7.51 24.32-6.60 24.07-5.73C23.50-5.89 22.92-6.11 22.38-6.36L22.56-6.69C22.73-7.01 22.62-7.37 22.32-7.55C22.02-7.72 21.64-7.62 21.48-7.31L21.28-6.96C20.86-7.23 20.45-7.54 20.06-7.88L20.33-8.14C20.59-8.43 20.55-8.81 20.31-9.04C20.09-9.27 19.70-9.29 19.44-9.04L19.16-8.75C18.81-9.14 18.48-9.56 18.19-10.02ZM11.71-0.42L12.07-0.42C12.02 0.18 11.93 0.76 11.78 1.35C7.42 0.21 4.20-3.75 4.20-8.46C4.20-9.41 4.32-10.34 4.57-11.21C5.14-11.05 5.70-10.84 6.23-10.58L6.04-10.22C5.86-9.90 5.96-9.53 6.28-9.36C6.59-9.20 6.94-9.27 7.11-9.60L7.32-9.97C7.71-9.73 8.09-9.45 8.45-9.14L8.27-8.96C8.02-8.71 8.03-8.31 8.29-8.09C8.54-7.83 8.91-7.82 9.16-8.07L9.35-8.26C9.73-7.86 10.07-7.43 10.37-6.96L10.13-6.82C9.81-6.66 9.73-6.25 9.91-5.96C10.08-5.67 10.42-5.55 10.75-5.72L11.00-5.87C11.25-5.39 11.45-4.90 11.60-4.41L11.24-4.31C10.91-4.22 10.71-3.88 10.80-3.55C10.90-3.20 11.23-3 11.55-3.09L11.92-3.19C12.02-2.68 12.08-2.18 12.09-1.66L11.73-1.68C11.38-1.68 11.10-1.39 11.10-1.05C11.10-0.70 11.38-0.43 11.71-0.42Z" fill="currentColor"/>
</svg>