<svg xmlns="http://www.w3.org/2000/svg" viewBox="0 0 24 24" width="24" height="24">
  
  <path transform="matrix(0.8181527644614893, 0, 0, 0.8181527644614893, 0.28379674017257894, 18.922339405560884)" d="M14.32 3.76C19.39 3.76 23.81 0.63 25.64-3.84C24.45-4.04 23.30-4.42 22.22-4.93L21.98-4.51C21.81-4.20 21.39-4.08 21.06-4.25C20.74-4.44 20.63-4.85 20.81-5.19L21.02-5.58C20.46-5.93 19.90-6.32 19.39-6.76L19.09-6.46C18.81-6.18 18.39-6.20 18.14-6.46C17.86-6.74 17.87-7.14 18.13-7.41L18.42-7.71C17.95-8.20 17.52-8.75 17.13-9.35L16.68-9.09C16.35-8.89 15.94-9.02 15.77-9.34C15.59-9.67 15.69-10.07 16.01-10.25L16.46-10.51C16.13-11.17 15.86-11.85 15.66-12.54L15.11-12.40C14.72-12.29 14.38-12.52 14.31-12.87C14.19-13.22 14.38-13.61 14.75-13.70L15.33-13.85C15.22-14.47 15.15-15.11 15.14-15.73L14.70-15.75C14.31-15.75 14.03-16.05 14.05-16.41C14.05-16.79 14.33-17.12 14.72-17.11L15.15-17.10C15.26-18.28 15.50-19.46 15.93-20.58C15.40-20.65 14.86-20.68 14.32-20.68C8.32-20.68 4.35-16.50 3.02-13.10C4.20-12.90 5.33-12.55 6.39-12.04L6.60-12.40C6.77-12.73 7.20-12.83 7.54-12.63C7.86-12.47 7.97-12.07 7.78-11.73L7.58-11.37C8.11-11.04 8.61-10.68 9.11-10.28L9.52-10.69C9.76-10.95 10.18-10.93 10.46-10.65C10.72-10.41 10.77-10.01 10.48-9.71L10.09-9.32C10.58-8.80 11.03-8.24 11.43-7.62L11.89-7.86C12.21-8.04 12.62-7.95 12.81-7.61C13.00-7.31 12.91-6.89 12.56-6.69L12.11-6.45C12.43-5.81 12.69-5.18 12.89-4.52L13.30-4.63C13.66-4.73 14.03-4.52 14.13-4.14C14.24-3.77 14.02-3.42 13.65-3.32L13.23-3.20C13.36-2.53 13.42-1.86 13.44-1.20L13.90-1.18C14.27-1.17 14.58-0.87 14.58-0.50C14.58-0.13 14.26 0.19 13.89 0.18L13.41 0.16C13.31 1.35 13.05 2.52 12.63 3.64C13.18 3.73 13.75 3.76 14.32 3.76ZM26.54-8.46C26.54-14.11 22.66-18.95 17.38-20.29C16.99-19.25 16.75-18.16 16.66-17.07L17.06-17.06C17.45-17.05 17.75-16.73 17.74-16.36C17.73-15.97 17.44-15.70 17.06-15.70L16.65-15.71C16.68-15.23 16.72-14.73 16.82-14.25L17.10-14.31C17.46-14.39 17.78-14.16 17.86-13.82C17.94-13.48 17.80-13.13 17.43-13.01L17.14-12.94C17.32-12.38 17.53-11.84 17.80-11.30L18.09-11.46C18.41-11.64 18.82-11.51 18.98-11.19C19.17-10.83 19.07-10.45 18.77-10.29L18.48-10.13C18.79-9.64 19.14-9.21 19.50-8.80L19.78-9.09C20.07-9.39 20.50-9.34 20.74-9.09C21-8.85 21.06-8.40 20.77-8.11L20.48-7.83C20.89-7.48 21.33-7.16 21.79-6.88L21.97-7.24C22.15-7.57 22.55-7.69 22.88-7.50C23.21-7.31 23.34-6.90 23.14-6.56L22.96-6.22C23.95-5.75 25.02-5.44 26.11-5.27C26.39-6.29 26.54-7.36 26.54-8.46ZM2.10-8.46C2.10-2.85 5.88 1.93 11.17 3.35C11.55 2.33 11.81 1.24 11.89 0.15L11.53 0.14C11.17 0.13 10.86-0.16 10.86-0.55C10.86-0.91 11.17-1.23 11.54-1.22L11.92-1.21C11.91-1.75 11.85-2.27 11.74-2.81L11.37-2.72C11.00-2.64 10.64-2.82 10.54-3.20C10.44-3.56 10.66-3.93 11.02-4.03L11.39-4.13C11.23-4.64 11.03-5.16 10.77-5.66L10.49-5.51C10.14-5.33 9.77-5.47 9.60-5.78C9.39-6.08 9.48-6.53 9.81-6.70L10.08-6.86C9.76-7.35 9.40-7.80 9-8.23L8.80-8.02C8.53-7.75 8.13-7.78 7.85-8.04C7.59-8.29 7.55-8.71 7.82-8.98L8.02-9.18C7.64-9.50 7.25-9.79 6.83-10.05L6.63-9.67C6.43-9.32 6.05-9.23 5.72-9.41C5.38-9.57 5.27-10.00 5.45-10.34L5.65-10.72C4.68-11.19 3.61-11.52 2.54-11.68C2.25-10.65 2.10-9.57 2.10-8.46Z" fill="currentColor"/>
</svg>