<svg xmlns="http://www.w3.org/2000/svg" viewBox="0 0 24 24" width="24" height="24">
  
  <path transform="matrix(0.8181527644614893, 0, 0, 0.8181527644614893, 0.28379674017257894, 18.922339405560884)" d="M14.32 3.76C21.07 3.76 26.54-1.72 26.54-8.46C26.54-15.21 21.07-20.68 14.32-20.68C7.58-20.68 2.10-15.21 2.10-8.46C2.10-1.72 7.58 3.76 14.32 3.76ZM12.02-11.77C11.89-12.97 12.05-13.82 12.29-14.47C12.87-14.67 13.57-14.79 14.17-14.82C13.30-14.29 12.81-13.42 12.81-12.47C12.81-12.33 12.81-12.21 12.83-12.09C12.55-12 12.28-11.89 12.02-11.77ZM13.69-12.33C13.68-13.46 14.34-14.25 15.73-14.66C17.34-14.29 18.75-13.29 19.64-11.93C18.54-12.38 17.29-12.62 16.02-12.62C15.22-12.62 14.44-12.53 13.69-12.33ZM10.72-11.07C10.58-11.73 10.18-12.49 9.56-12.68C10.08-13.24 10.68-13.71 11.34-14.07C11.12-13.30 11.09-12.41 11.23-11.38C11.04-11.29 10.89-11.18 10.72-11.07ZM7.96-8.53C7.93-9.60 8.38-11.02 9.05-12C9.60-11.84 9.90-11.12 9.93-10.51C9.16-9.94 8.52-9.27 7.96-8.53ZM13.96-11.52C14.61-11.67 15.32-11.75 16.02-11.75C17.55-11.75 18.94-11.39 20.27-10.65C20.54-9.97 20.70-9.22 20.70-8.46C20.70-7.52 20.48-6.64 20.12-5.85C19.13-8.68 15.01-9.61 13.96-11.52ZM12.13-10.88C12.45-11.03 12.76-11.16 13.07-11.26C14.26-8.73 19.20-7.83 19.48-4.75C18.69-3.64 17.55-2.80 16.25-2.39C13.72-5.37 12.53-8.54 12.13-10.88ZM10.78-10.09C10.97-10.21 11.16-10.34 11.37-10.46C11.80-8.05 13.00-5.00 15.32-2.16C14.99-2.10 14.66-2.09 14.32-2.09C13.55-2.09 12.81-2.25 12.13-2.55C9.60-4.51 10.76-7.34 10.78-10.09ZM8.10-7.17C8.60-7.99 9.20-8.71 9.87-9.34C9.74-7.54 9.34-5.46 10.03-3.80C9.08-4.68 8.38-5.86 8.10-7.17Z" fill="currentColor"/>
</svg>