<svg xmlns="http://www.w3.org/2000/svg" viewBox="0 0 24 24" width="24" height="24">
  <title>beats.studiobuds.plus.chargingcase.fill</title>
  <path transform="matrix(0.6489226869455006, 0, 0, 0.6489226869455006, 0.6387832699619773, 17.490494296577946)" d="M3.59-14.20L31.42-14.20C30.42-15.93 28.91-17.34 26.92-18.30C25.03-19.23 22.58-19.64 19.22-19.64L15.80-19.64C12.42-19.64 9.98-19.23 8.09-18.30C6.09-17.34 4.59-15.93 3.59-14.20ZM15.80 2.72L19.22 2.72C22.58 2.72 25.03 2.31 26.92 1.38C30.88-0.52 32.92-4.28 32.92-8.46C32.92-10.03 32.63-11.54 32.05-12.91L2.96-12.91C2.38-11.54 2.10-10.03 2.10-8.46C2.10-4.28 4.13-0.52 8.09 1.38C9.98 2.31 12.42 2.72 15.80 2.72ZM17.51-3.70C16.08-3.70 14.98-4.80 14.98-6.20L14.98-9.84L16.13-10.35L16.13-8.32C16.56-8.64 17.02-8.78 17.51-8.78C18.89-8.78 20.06-7.62 20.06-6.20C20.06-4.83 18.91-3.70 17.51-3.70ZM17.51-4.83C18.27-4.83 18.89-5.46 18.89-6.20C18.89-6.95 18.27-7.59 17.51-7.59C16.77-7.59 16.13-6.97 16.13-6.20C16.13-5.46 16.76-4.83 17.51-4.83Z" fill="currentColor"/>
</svg>