<svg xmlns="http://www.w3.org/2000/svg" viewBox="0 0 24 24" width="24" height="24">
  <title>brazilianrealsign.circle</title>
  <path transform="matrix(0.8181527644614893, 0, 0, 0.8181527644614893, 0.28379674017257894, 18.922339405560884)" d="M14.32 3.76C21.07 3.76 26.54-1.71 26.54-8.46C26.54-15.21 21.07-20.68 14.32-20.68C7.57-20.68 2.10-15.21 2.10-8.46C2.10-1.71 7.57 3.76 14.32 3.76ZM14.32 1.08C9.05 1.08 4.78-3.19 4.78-8.46C4.78-13.73 9.05-18 14.32-18C19.59-18 23.86-13.73 23.86-8.46C23.86-3.19 19.59 1.08 14.32 1.08ZM17.72-3.12C17.89-3.12 18-3.23 18-3.40L18-4.27C19.49-4.36 20.53-5.20 20.53-6.62C20.53-7.98 19.66-8.51 18.55-9.01L18-9.25L18-11.63C18.56-11.52 18.83-11.09 18.95-10.57C19.05-10.31 19.27-10.07 19.65-10.07C20.10-10.07 20.34-10.35 20.34-10.71C20.34-10.84 20.31-11.02 20.25-11.13C19.93-12.27 19.04-12.76 18-12.84L18-13.70C18-13.86 17.89-13.97 17.72-13.97C17.55-13.97 17.45-13.86 17.45-13.70L17.45-12.84C16.07-12.75 15.01-11.93 15.01-10.54C15.01-9.30 15.71-8.68 16.93-8.13L17.45-7.91L17.45-5.48C16.83-5.57 16.50-5.93 16.36-6.57C16.27-6.93 16.01-7.09 15.68-7.09C15.26-7.09 14.96-6.86 14.96-6.43C14.96-6.32 14.99-6.18 15.04-6.05C15.34-4.85 16.30-4.34 17.45-4.27L17.45-3.40C17.45-3.23 17.55-3.12 17.72-3.12ZM9.25-4.00C9.76-4.00 10.04-4.31 10.04-4.83L10.04-7.51L11.19-7.51L12.40-4.64C12.57-4.23 12.76-4.00 13.22-4.00C13.68-4.00 13.99-4.30 13.99-4.76C13.99-4.96 13.91-5.17 13.83-5.36L12.73-7.83C13.61-8.26 14.06-9.18 14.06-10.25C14.06-12.04 12.94-12.98 11.20-12.98L9.25-12.98C8.75-12.98 8.45-12.70 8.45-12.16L8.45-4.83C8.45-4.32 8.71-4.00 9.25-4.00ZM10.04-8.71L10.04-11.72L11.05-11.72C11.95-11.72 12.43-11.10 12.43-10.22C12.43-9.34 12-8.71 11.06-8.71ZM16.49-10.65C16.49-11.23 16.90-11.55 17.45-11.64L17.45-9.50C16.89-9.79 16.49-10.11 16.49-10.65ZM19.03-6.47C19.03-5.86 18.67-5.54 18-5.47L18-7.66C18.56-7.39 19.03-7.10 19.03-6.47Z" fill="currentColor"/>
</svg>