<svg xmlns="http://www.w3.org/2000/svg" viewBox="0 0 24 24" width="24" height="24">
  
  <path transform="matrix(0.7677312940470835, 0, 0, 0.7677312940470835, -0.2941970310391362, 19.04003598740441)" d="M16.07-21.71C15.28-21.71 14.72-21.30 14.13-20.37L12.06-17.02L8.59-17.02C5.05-17.02 2.99-14.93 2.99-11.41L2.99-2.23C2.99 1.29 5.05 3.38 8.59 3.38L23.44 3.38C26.99 3.38 29.04 1.28 29.04-2.23L29.04-11.41C29.04-14.92 26.99-17.02 23.44-17.02L20.07-17.02L18-20.37C17.40-21.32 16.86-21.71 16.07-21.71Z" fill="currentColor"/>
</svg>