<svg xmlns="http://www.w3.org/2000/svg" viewBox="0 0 24 24" width="24" height="24">
  
  <path transform="matrix(0.7677312940470835, 0, 0, 0.7677312940470835, -0.2941970310391362, 17.928924876293298)" d="M16.07 4.83C16.86 4.83 17.40 4.43 17.99 3.47L20.06 0.12L23.44 0.12C26.99 0.12 29.04-1.98 29.04-5.48L29.04-14.66C29.04-18.18 26.99-20.27 23.44-20.27L8.59-20.27C5.05-20.27 2.99-18.18 2.99-14.66L2.99-5.48C2.99-1.97 5.05 0.12 8.59 0.12L12.06 0.12L14.14 3.48C14.73 4.42 15.28 4.83 16.07 4.83ZM16.07 2.20L14.03-1.48C13.61-2.26 13.27-2.50 12.38-2.50L8.71-2.50C6.61-2.50 5.60-3.55 5.60-5.60L5.60-14.54C5.60-16.61 6.61-17.66 8.71-17.66L23.32-17.66C25.41-17.66 26.43-16.61 26.43-14.54L26.43-5.60C26.43-3.55 25.41-2.50 23.32-2.50L19.75-2.50C18.86-2.50 18.50-2.27 18.08-1.48Z" fill="currentColor"/>
</svg>