<svg xmlns="http://www.w3.org/2000/svg" viewBox="0 0 24 24" width="24" height="24">
  <title>button.horizontal.top.press.fill</title>
  <path transform="matrix(0.6867873910127431, 0, 0, 0.6867873910127431, -0.05231388329979891, 18.4466800804829)" d="M20.87-15.87L18.80-15.87L18.80-21.96C18.80-22.69 18.25-23.20 17.55-23.20C16.85-23.20 16.30-22.69 16.30-21.96L16.30-15.87L14.19-15.87C13.15-15.87 12.70-14.80 13.39-14.02L16.76-10.21C17.20-9.69 17.87-9.68 18.33-10.21L21.69-14.02C22.38-14.79 21.98-15.87 20.87-15.87ZM9.87-0.20L25.23-0.20C29.32-0.20 32.11-2.65 32.11-6.48C32.11-10.30 29.32-12.76 25.23-12.76L22.83-12.76L19.61-9.12C18.47-7.84 16.59-7.84 15.48-9.12L12.27-12.76L9.87-12.76C5.79-12.76 2.99-10.30 2.99-6.48C2.99-2.65 5.79-0.20 9.87-0.20ZM9.87 4.43L25.23 4.43C29.13 4.43 31.72 2.41 32.09-1.41C30.55 0.42 28.13 1.51 25.23 1.51L9.87 1.51C6.97 1.51 4.55 0.42 3.02-1.41C3.40 2.43 5.96 4.43 9.87 4.43Z" fill="currentColor"/>
</svg>