<svg xmlns="http://www.w3.org/2000/svg" viewBox="0 0 24 24" width="24" height="24">
  <title>button.horizontal.top.press</title>
  <path transform="matrix(0.6867873910127431, 0, 0, 0.6867873910127431, -0.05231388329979891, 18.430583501006033)" d="M20.87-15.87L18.80-15.87L18.80-21.96C18.80-22.69 18.25-23.20 17.55-23.20C16.85-23.20 16.30-22.69 16.30-21.96L16.30-15.87L14.19-15.87C13.15-15.87 12.70-14.80 13.39-14.02L16.76-10.21C17.20-9.69 17.87-9.68 18.33-10.21L21.69-14.02C22.38-14.79 21.98-15.87 20.87-15.87ZM9.87 4.48L25.23 4.48C29.44 4.48 32.11 1.71 32.11-2.64L32.11-6.43C32.11-10.25 29.32-12.71 25.23-12.71L22.84-12.71L20.53-10.11L25.23-10.11C27.71-10.11 29.51-8.66 29.51-6.43C29.51-4.21 27.71-2.75 25.23-2.75L9.87-2.75C7.38-2.75 5.59-4.21 5.59-6.43C5.59-8.66 7.38-10.11 9.87-10.11L14.57-10.11L12.27-12.71L9.87-12.71C5.79-12.71 3-10.27 2.99-6.43L2.99-2.64C2.99 1.71 5.66 4.48 9.87 4.48ZM9.87-0.15L25.23-0.15C26.82-0.15 28.23-0.53 29.34-1.22C28.86 0.69 27.36 1.86 25.23 1.86L9.87 1.86C7.75 1.86 6.25 0.69 5.77-1.22C6.88-0.53 8.27-0.15 9.87-0.15Z" fill="currentColor"/>
</svg>