<svg xmlns="http://www.w3.org/2000/svg" viewBox="0 0 24 24" width="24" height="24">
  
  <path transform="matrix(0.7262411347517731, 0, 0, 0.7262411347517731, 6.91063829787234, 18.144680851063832)" d="M4.64-18.09L9.40-18.09L9.40-20.73C9.40-21.76 8.92-22.23 7.89-22.23L6.15-22.23C5.12-22.23 4.64-21.76 4.64-20.73ZM15.61 1.52C15.98 1.90 16.59 1.90 16.97 1.52C17.33 1.15 17.33 0.54 16.97 0.18L-1.58-18.38C-1.96-18.74-2.58-18.75-2.95-18.38C-3.32-18.01-3.32-17.39-2.95-17.03ZM11.04-7.86L11.04-15.08C11.04-16.11 10.57-16.59 9.54-16.59L4.50-16.59C3.83-16.59 3.42-16.39 3.22-15.96L3.22-15.68ZM5.88 5.31L8.16 5.31L8.16-3.63L8.33-3.63L3-8.96L3-5.94C3-4.91 3.47-4.44 4.50-4.44L5.88-4.44Z" fill="currentColor"/>
</svg>