<svg xmlns="http://www.w3.org/2000/svg" viewBox="0 0 24 24" width="24" height="24">
  
  <path transform="matrix(0.6648487209453318, 0, 0, 0.6648487209453318, 1.4429294896766653, 17.652512660693418)" d="M2.99 0.52C2.99 1.20 3.55 1.77 4.24 1.77L8.67 1.77L6.47 5.30C6.13 5.85 6.41 6.54 7.11 6.54L7.90 6.54C8.30 6.54 8.53 6.41 8.75 6.06L11.41 1.77L20.05 1.77L22.72 6.06C22.93 6.41 23.17 6.54 23.58 6.54L24.27 6.54C24.97 6.54 25.35 5.85 24.95 5.23L22.80 1.77L27.52 1.77C28.21 1.77 28.77 1.20 28.77 0.52C28.77-0.18 28.21-0.74 27.52-0.74L27.29-0.74L27.29-16.72C27.29-18.32 26.34-19.30 24.60-19.51C23.94-19.59 23.20-19.66 22.43-19.72L22.43-20.96C22.49-20.95 22.56-20.94 22.62-20.94C23.25-20.86 23.79-21.43 23.79-22.08C23.79-22.69 23.29-23.16 22.62-23.23C20.84-23.44 18.38-23.54 15.87-23.54C13.42-23.54 10.91-23.44 9.09-23.23C8.44-23.14 7.96-22.69 7.96-22.08C7.96-21.43 8.50-20.86 9.13-20.94C9.19-20.95 9.26-20.95 9.33-20.96L9.33-19.72C8.54-19.66 7.80-19.59 7.14-19.51C5.41-19.30 4.46-18.32 4.46-16.72L4.46-0.74L4.24-0.74C3.55-0.74 2.99-0.18 2.99 0.52ZM15.87-19.96C14.30-19.96 12.69-19.91 11.19-19.84L11.19-21.13C12.59-21.21 14.20-21.26 15.87-21.26C17.54-21.26 19.17-21.21 20.58-21.13L20.58-19.84C19.07-19.91 17.45-19.96 15.87-19.96ZM6.55-16.23C6.55-16.96 6.90-17.36 7.63-17.45C9.56-17.72 12.56-17.84 15.87-17.84C19.16-17.84 22.17-17.72 24.12-17.45C24.88-17.37 25.18-17.03 25.18-16.23L25.18-0.74L6.55-0.74ZM13.41-8.07C13.41-7.71 13.66-7.46 14.05-7.46L17.68-7.46C18.07-7.46 18.32-7.71 18.32-8.07L18.32-14.02C18.32-15.48 17.33-16.46 15.87-16.46C14.39-16.46 13.41-15.48 13.41-14.02ZM7.77-8.07C7.77-7.71 8.02-7.46 8.40-7.46L11.66-7.46C12.05-7.46 12.29-7.71 12.29-8.07L12.29-13.70C12.29-14.99 11.33-15.96 10.04-15.96C8.73-15.96 7.77-14.99 7.77-13.70ZM19.44-8.07C19.44-7.71 19.69-7.46 20.07-7.46L23.33-7.46C23.71-7.46 23.96-7.71 23.96-8.07L23.96-13.70C23.96-14.99 23.00-15.96 21.70-15.96C20.40-15.96 19.44-15 19.44-13.70ZM15.87-2.00C16.97-2.00 17.84-2.84 17.84-3.93C17.84-5.05 16.97-5.93 15.87-5.93C14.75-5.93 13.91-5.06 13.91-3.93C13.91-2.84 14.74-2.00 15.87-2.00Z" fill="currentColor"/>
</svg>