<svg xmlns="http://www.w3.org/2000/svg" viewBox="0 0 24 24" width="24" height="24">
  <title>capsule.on.rectangle</title>
  <path transform="matrix(0.6518971224853578, 0, 0, 0.6518971224853578, 0.051948051948051965, 17.511841100076396)" d="M6.96-1.77L8.84-1.77C10.21 1.77 13.57 3.93 18.06 3.93L23.75 3.93C29.68 3.93 33.67 0.14 33.67-5.63C33.67-10.29 31.05-13.68 26.92-14.79L26.92-16.90C26.92-19.46 25.54-20.84 22.95-20.84L6.96-20.84C4.36-20.84 2.99-19.46 2.99-16.90L2.99-5.71C2.99-3.13 4.36-1.77 6.96-1.77ZM7.18-4.37C6.16-4.37 5.60-4.90 5.60-5.98L5.60-16.63C5.60-17.71 6.15-18.22 7.18-18.22L22.72-18.22C23.74-18.22 24.30-17.71 24.30-16.63L24.30-15.18C24.12-15.19 23.94-15.19 23.75-15.19L18.06-15.19C12.11-15.19 8.14-11.38 8.14-5.63C8.14-5.20 8.17-4.78 8.21-4.37ZM18.06 1.34C13.62 1.34 10.75-1.39 10.75-5.63C10.75-9.86 13.62-12.60 18.06-12.60L23.75-12.60C28.18-12.60 31.07-9.86 31.07-5.63C31.07-1.39 28.18 1.34 23.75 1.34Z" fill="currentColor"/>
</svg>