<svg xmlns="http://www.w3.org/2000/svg" viewBox="0 0 24 24" width="24" height="24">
  <title>capsule.on.capsule</title>
  <path transform="matrix(0.6375295729049931, 0, 0, 0.6375295729049931, 0.0948823309675011, 17.40156892043332)" d="M2.99-11.31C2.99-6.80 5.43-3.48 9.35-2.27C10.59 1.56 14.05 3.93 18.75 3.93L24.45 3.93C30.39 3.93 34.36 0.14 34.36-5.63C34.36-10.15 31.90-13.48 27.96-14.68C26.72-18.50 23.26-20.87 18.60-20.87L12.90-20.87C6.95-20.87 2.99-17.06 2.99-11.31ZM8.84-5.63C8.84-5.52 8.84-5.41 8.85-5.32C6.80-6.47 5.59-8.58 5.59-11.31C5.59-15.53 8.46-18.28 12.90-18.28L18.60-18.28C21.46-18.28 23.67-17.13 24.88-15.19C24.73-15.19 24.59-15.19 24.45-15.19L18.75-15.19C12.80-15.19 8.84-11.38 8.84-5.63ZM11.44-5.63C11.44-9.86 14.31-12.60 18.76-12.60L24.45-12.60C28.89-12.60 31.77-9.86 31.77-5.63C31.77-1.39 28.89 1.34 24.45 1.34L18.76 1.34C14.31 1.34 11.44-1.39 11.44-5.63Z" fill="currentColor"/>
</svg>