<svg xmlns="http://www.w3.org/2000/svg" viewBox="0 0 24 24" width="24" height="24">
  <title>car.side.rear.crop.trunk.partition</title>
  <path transform="matrix(0.9225225225225225, 0, 0, 0.9225225225225225, -0.756756756756757, 19.80540540540541)" d="M2.99-3.57L2.99-1.14L11.46-1.14C12.13 0.40 13.64 1.44 15.45 1.44C17.25 1.44 18.76 0.40 19.43-1.14L20.63-1.14C23.34-1.14 24.67-2.53 24.67-5.40L24.67-8.70C24.67-11.03 23.50-12.47 21.15-13.27L19.31-13.89C16.96-15.91 13.55-18.36 9.02-18.36L7.18-18.36C5.51-18.36 4.15-18.30 2.99-18.15L2.99-15.69C4.09-15.88 5.40-15.93 7.18-15.93L9.02-15.93C12.06-15.93 14.45-14.81 17.50-12.14C18.08-11.64 18.43-11.48 19.18-11.24L20.41-10.84C21.63-10.45 22.23-9.75 22.23-8.61L22.23-5.40C22.23-4.16 21.71-3.57 20.63-3.57L19.73-3.57C19.42-5.67 17.65-7.24 15.45-7.24C13.24-7.24 11.47-5.67 11.16-3.57ZM9.38-10.72C9.64-10.42 10.00-10.42 10.27-10.72L12.20-12.89C12.62-13.35 12.34-13.96 11.75-13.96L7.91-13.96C7.29-13.96 7.05-13.31 7.44-12.89ZM7.92-8.36L15.45-8.36C15.82-8.36 16.13-8.66 16.13-9.04C16.13-9.42 15.82-9.71 15.45-9.71L7.92-9.71C7.55-9.71 7.24-9.42 7.24-9.04C7.24-8.66 7.55-8.36 7.92-8.36ZM15.45-0.76C14.25-0.76 13.30-1.70 13.30-2.89C13.30-4.09 14.25-5.04 15.45-5.04C16.64-5.04 17.59-4.09 17.59-2.89C17.59-1.70 16.64-0.76 15.45-0.76Z" fill="currentColor"/>
</svg>