<svg xmlns="http://www.w3.org/2000/svg" viewBox="0 0 24 24" width="24" height="24">
  <title>car.top.lane.dashed.departure.left</title>
  <path transform="matrix(0.7429449775105454, 0, 0, 0.7429449775105454, 0.8870128461358666, 18.342602532614443)" d="M16.20 1.24C19.86-0.88 21.02-2.77 19.76-4.95L15.11-13.00L15.52-13.23C16.03-13.52 16.17-14.13 15.87-14.67L15.71-14.93C15.42-15.47 14.81-15.63 14.30-15.34L13.90-15.11L12.75-17.09C11.47-19.29 8.89-19.50 5.68-17.77L5.68-19.69C5.68-20.21 5.29-20.63 4.75-20.63L3.93-20.63C3.39-20.63 2.99-20.21 2.99-19.69L2.99-15.83C1.44-14.26 1.07-12.54 2.02-10.89L3.18-8.88L2.78-8.65C2.26-8.34 2.13-7.75 2.43-7.21L2.57-6.95C2.86-6.41 3.48-6.23 3.98-6.54L4.39-6.77L9.02 1.25C10.30 3.43 12.49 3.38 16.20 1.24ZM27.49-13.98C28.02-13.98 28.42-14.39 28.42-14.92L28.42-19.69C28.42-20.21 28.02-20.61 27.49-20.61L26.66-20.61C26.13-20.61 25.72-20.21 25.72-19.69L25.72-14.92C25.72-14.39 26.13-13.98 26.66-13.98ZM15.19-0.47C12.60 1.02 11.32 1.20 10.73 0.20L3.77-11.87C3.08-13.07 3.94-14.45 6.33-15.83C8.71-17.20 10.32-17.25 11.02-16.05L17.99-4.00C18.56-2.98 17.78-1.97 15.19-0.47ZM9.97-9.53C10.66-9.91 11.70-10.42 11.99-10.59C12.57-10.93 12.68-11.32 12.40-11.94L11.75-13.34C11.21-14.48 10.22-14.46 7.89-13.13C5.55-11.77 5.04-10.92 5.77-9.89L6.64-8.63C7.04-8.05 7.45-7.97 8.03-8.30C8.31-8.47 9.30-9.13 9.97-9.53ZM27.49-5.23C28.02-5.23 28.42-5.64 28.42-6.16L28.42-10.92C28.42-11.45 28.02-11.86 27.49-11.86L26.66-11.86C26.13-11.86 25.72-11.45 25.72-10.92L25.72-6.16C25.72-5.64 26.13-5.23 26.66-5.23ZM14.31-2.02C16.65-3.38 17.21-4.20 16.39-5.23L15.94-5.80C15.28-6.63 14.39-6.50 12.39-5.33C10.37-4.17 9.81-3.48 10.20-2.48L10.46-1.80C10.96-0.59 11.94-0.66 14.31-2.02ZM4.75 3.55C5.29 3.55 5.68 3.15 5.68 2.61L5.68-2.18C5.68-2.71 5.29-3.12 4.75-3.12L3.93-3.12C3.39-3.12 2.99-2.71 2.99-2.18L2.99 2.61C2.99 3.15 3.39 3.55 3.93 3.55ZM27.49 3.55C28.02 3.55 28.42 3.15 28.42 2.63L28.42-2.18C28.42-2.71 28.02-3.11 27.49-3.11L26.66-3.11C26.13-3.11 25.72-2.71 25.72-2.18L25.72 2.63C25.72 3.15 26.13 3.55 26.66 3.55Z" fill="currentColor"/>
</svg>