<svg xmlns="http://www.w3.org/2000/svg" viewBox="0 0 24 24" width="24" height="24">
  <title>car.top.lane.dashed.arrowtriangle.inward.fill</title>
  <path transform="matrix(0.49211841599384853, 0, 0, 0.49211841599384853, 0.5294117647058822, 16.149365628604382)" d="M11.61-13.85L12.45-13.85C12.97-13.85 13.37-14.25 13.37-14.78L13.37-19.49C13.37-20.02 12.97-20.41 12.45-20.41L11.61-20.41C11.09-20.41 10.68-20.02 10.68-19.49L10.68-14.78C10.68-14.25 11.09-13.85 11.61-13.85ZM34.17-13.85L35.00-13.85C35.53-13.85 35.94-14.25 35.94-14.78L35.94-19.49C35.94-20.02 35.53-20.41 35.00-20.41L34.17-20.41C33.64-20.41 33.25-20.02 33.25-19.49L33.25-14.78C33.25-14.25 33.64-13.85 34.17-13.85ZM23.30 2.40C27.56 2.40 29.51 1.36 29.51-1.17L29.51-10.44L29.98-10.44C30.57-10.44 31.02-10.90 31.01-11.50L31.00-11.80C30.98-12.42 30.57-12.87 29.96-12.87L29.51-12.87L29.51-15.19C29.51-17.84 27.22-19.32 23.31-19.32C19.41-19.32 17.11-17.84 17.11-15.19L17.11-12.90L16.65-12.90C16.05-12.90 15.63-12.45 15.62-11.84L15.62-11.53C15.61-10.92 16.05-10.46 16.64-10.46L17.11-10.46L17.11-1.17C17.11 1.36 19.05 2.40 23.30 2.40ZM23.30-10.14C22.48-10.13 21.28-10.04 20.92-10.04C20.21-10.04 19.92-10.32 19.85-11.05L19.70-12.66C19.58-13.97 20.51-14.48 23.31-14.48C26.12-14.47 27.04-13.97 26.92-12.66L26.78-11.05C26.71-10.32 26.39-10.04 25.71-10.04C25.35-10.04 24.11-10.13 23.30-10.14ZM2.99-5.80C2.99-5.04 3.64-4.71 4.29-5.11L8.58-7.69C9.20-8.06 9.19-8.85 8.58-9.21L4.29-11.81C3.63-12.21 2.99-11.86 2.99-11.12ZM43.63-5.80L43.63-11.12C43.63-11.86 42.98-12.20 42.33-11.81L38.04-9.21C37.42-8.84 37.42-8.07 38.04-7.69L42.33-5.11C42.97-4.72 43.63-5.04 43.63-5.80ZM11.61-5.17L12.45-5.17C12.97-5.17 13.37-5.57 13.37-6.09L13.37-10.79C13.37-11.32 12.97-11.72 12.45-11.72L11.61-11.72C11.09-11.72 10.68-11.32 10.68-10.79L10.68-6.09C10.68-5.57 11.09-5.17 11.61-5.17ZM34.17-5.17L35.00-5.17C35.53-5.17 35.94-5.57 35.94-6.09L35.94-10.79C35.94-11.32 35.53-11.72 35.00-11.72L34.17-11.72C33.64-11.72 33.25-11.32 33.25-10.79L33.25-6.09C33.25-5.57 33.64-5.17 34.17-5.17ZM23.30-1.07C20.47-1.08 19.54-1.51 19.73-2.88L19.84-3.66C20.00-4.75 20.88-5.07 23.31-5.07C25.73-5.07 26.61-4.75 26.78-3.66L26.89-2.87C27.08-1.52 26.16-1.08 23.30-1.07ZM11.61 3.55L12.45 3.55C12.97 3.55 13.37 3.15 13.37 2.63L13.37-2.11C13.37-2.64 12.97-3.05 12.45-3.05L11.61-3.05C11.09-3.05 10.68-2.64 10.68-2.11L10.68 2.63C10.68 3.15 11.09 3.55 11.61 3.55ZM34.17 3.55L35.00 3.55C35.53 3.55 35.94 3.15 35.94 2.63L35.94-2.11C35.94-2.64 35.53-3.05 35.00-3.05L34.17-3.05C33.64-3.05 33.25-2.64 33.25-2.11L33.25 2.63C33.25 3.15 33.64 3.55 34.17 3.55Z" fill="currentColor"/>
</svg>