<svg xmlns="http://www.w3.org/2000/svg" viewBox="0 0 24 24" width="24" height="24">
  
  <path transform="matrix(0.6394404895716248, 0, 0, 0.6394404895716248, 1.370550768077932, 17.406519295616334)" d="M23.94-6.25C27.45-6.25 29.03-7.11 29.03-9.19L29.03-16.80L29.41-16.80C29.91-16.80 30.26-17.19 30.26-17.68L30.26-17.94C30.26-18.45 29.91-18.82 29.41-18.82L29.03-18.82L29.03-20.70C29.03-22.86 27.15-24.09 23.94-24.09C20.73-24.09 18.86-22.86 18.86-20.70L18.86-18.80L18.47-18.80C17.99-18.80 17.61-18.42 17.61-17.92L17.61-17.66C17.61-17.17 17.99-16.78 18.47-16.78L18.86-16.78L18.86-9.19C18.86-7.11 20.44-6.25 23.94-6.25ZM23.94-16.54C23.29-16.54 22.28-16.46 21.97-16.46C21.40-16.46 21.14-16.71 21.08-17.31L20.98-18.62C20.87-19.71 21.63-20.12 23.94-20.12C26.25-20.12 27.01-19.71 26.91-18.62L26.79-17.31C26.73-16.71 26.47-16.46 25.91-16.46C25.61-16.46 24.62-16.54 23.94-16.54ZM23.94-9.12C21.60-9.12 20.84-9.48 21-10.61L21.09-11.24C21.22-12.14 21.95-12.42 23.94-12.42C25.93-12.42 26.65-12.14 26.79-11.24L26.88-10.61C27.07-9.48 26.30-9.12 23.94-9.12ZM16.82-5.03C17.73-4.11 18.94-3.64 19.82-3.60C20.37-3.56 20.77-3.94 20.75-4.45C20.75-4.91 20.44-5.23 19.79-5.33C19.15-5.43 18.55-5.72 18.02-6.23C17.52-6.76 17.23-7.36 17.12-8.05C17.03-8.66 16.77-8.95 16.25-8.95C15.73-8.95 15.33-8.54 15.40-7.95C15.53-6.83 16.01-5.82 16.82-5.03ZM14.46-2.66C15.87-1.25 17.65-0.40 19.56-0.36C20.14-0.35 20.53-0.73 20.53-1.27C20.53-1.73 20.16-2.06 19.54-2.12C18.12-2.21 16.76-2.80 15.67-3.87C14.59-4.96 14.00-6.32 13.91-7.75C13.86-8.40 13.55-8.72 13.03-8.72C12.55-8.72 12.14-8.38 12.16-7.77C12.29-5.85 13.05-4.07 14.46-2.66ZM14.40 7.18L14.40 5.19L14.78 5.19C15.28 5.19 15.63 4.80 15.63 4.31L15.63 4.07C15.63 3.55 15.28 3.18 14.78 3.18L14.40 3.18L14.40 1.31C14.40-0.87 12.53-2.10 9.32-2.10C6.11-2.10 4.23-0.87 4.23 1.31L4.23 3.20L3.84 3.20C3.36 3.20 2.99 3.57 2.99 4.09L2.99 4.34C2.99 4.83 3.36 5.21 3.84 5.21L4.23 5.21L4.23 7.18ZM9.30 5.47C8.66 5.47 7.65 5.53 7.35 5.53C6.79 5.53 6.52 5.29 6.47 4.69L6.35 3.38C6.26 2.29 7.01 1.88 9.30 1.88C11.63 1.88 12.38 2.29 12.28 3.38L12.16 4.69C12.12 5.29 11.86 5.53 11.27 5.53C10.98 5.53 10.00 5.47 9.30 5.47Z" fill="currentColor"/>
</svg>