<svg xmlns="http://www.w3.org/2000/svg" viewBox="0 0 24 24" width="24" height="24">
  
  <path transform="matrix(0.6435394670688789, 0, 0, 0.6435394670688789, 1.9132730015082968, 17.444947209653094)" d="M15.67 7.08C21.77 7.08 24.43 5.61 24.43 2.18L24.43-11.37L27.76-8.04C28.24-7.56 29.03-7.57 29.51-8.05C29.96-8.52 29.98-9.32 29.51-9.79L24.43-14.84L24.43-18.22C24.43-21.91 21.28-24 15.67-24C10.08-24 6.91-21.91 6.91-18.22L6.91-5.94L1.84-0.89C1.37-0.42 1.38 0.36 1.84 0.84C2.32 1.32 3.11 1.34 3.59 0.84L6.91-2.47L6.91 2.18C6.91 5.61 9.57 7.08 15.67 7.08ZM15.68-11.02C14.47-11.02 12.74-10.92 12.21-10.92C11.29-10.92 10.89-11.29 10.80-12.23L10.59-14.58C10.44-16.37 11.73-17.07 15.68-17.07C19.63-17.07 20.92-16.37 20.77-14.58L20.55-12.23C20.47-11.29 20.07-10.92 19.15-10.92C18.62-10.92 16.83-11.02 15.68-11.02ZM15.68 2.09C11.64 2.09 10.37 1.46 10.64-0.35L10.80-1.49C11.00-2.95 12.23-3.46 15.68-3.46C19.13-3.46 20.34-2.95 20.55-1.49L20.72-0.35C20.99 1.46 19.72 2.09 15.68 2.09Z" fill="currentColor"/>
</svg>