<svg xmlns="http://www.w3.org/2000/svg" viewBox="0 0 24 24" width="24" height="24">
  <title>car.top.arrowtriangle.front.left.fill</title>
  <path transform="matrix(0.6435394670688789, 0, 0, 0.6435394670688789, 5.265460030165913, 17.444947209653094)" d="M13.76 7.08C19.85 7.08 22.51 5.61 22.51 2.18L22.51-11.55L23.27-11.55C24-11.55 24.53-12.11 24.53-12.87L24.53-13.29C24.53-14.06 24-14.60 23.27-14.60L22.51-14.60L22.51-18.22C22.51-21.91 19.36-24 13.76-24C8.16-24 5.00-21.91 5.00-18.22L5.00-14.65L4.24-14.65C3.50-14.65 2.99-14.10 2.99-13.34L2.99-12.91C2.99-12.14 3.50-11.60 4.24-11.60L5.00-11.60L5.00 2.18C5.00 5.61 7.66 7.08 13.76 7.08ZM-3.60-14.54C-3.60-13.78-2.94-13.45-2.30-13.85L1.99-16.44C2.63-16.80 2.60-17.59 1.99-17.95L-2.30-20.55C-2.94-20.95-3.60-20.60-3.60-19.86ZM13.76-10.98C12.57-10.98 10.85-10.89 10.32-10.89C9.41-10.89 9.01-11.24 8.93-12.18L8.73-14.50C8.58-16.27 9.86-16.96 13.76-16.96C17.66-16.96 18.94-16.27 18.79-14.50L18.57-12.18C18.49-11.24 18.11-10.89 17.18-10.89C16.66-10.89 14.89-10.98 13.76-10.98ZM13.76 1.98C9.76 1.98 8.52 1.36 8.78-0.43L8.93-1.56C9.14-3.01 10.36-3.50 13.76-3.50C17.16-3.50 18.38-3.01 18.59-1.56L18.74-0.43C19.00 1.36 17.75 1.98 13.76 1.98Z" fill="currentColor"/>
</svg>