<svg xmlns="http://www.w3.org/2000/svg" viewBox="0 0 24 24" width="24" height="24">
  
  <path transform="matrix(0.5788700867024765, 0, 0, 0.5788700867024765, 0.27166147562089193, 16.901175441123506)" d="M3.20-0.88C4.30 3.14 5.43 4.37 7.99 4.37L22.23 4.37C24.11 4.37 25.36 3.35 25.83 1.45L30.33-16.78C31.00-19.45 29.65-21.30 27.14-21.30C24.35-21.30 22.23-18.76 22.66-15.54C20.36-13.52 19.14-9.98 19.30-5.74C16.91-6.12 14.19-6.32 11.48-6.32C4.86-6.32 2.17-4.62 3.20-0.88ZM18-13.42L19.30-18.41C19.49-19.13 18.94-19.64 18.21-19.42L13.55-18.02C12.84-17.81 12.64-17.05 13.16-16.54L16.55-13.07C17.09-12.53 17.81-12.67 18-13.42ZM5.54-1.52C5.07-3.21 6.42-3.88 11.48-3.88C15.79-3.88 18.82-3.28 20.11-3.21C20.98-3.20 21.54-3.79 21.54-4.64C21.48-9.23 22.55-12.41 24.59-14.02C25.07-14.41 25.20-14.77 25.07-15.57C24.75-17.67 25.82-18.87 27.11-18.87C27.83-18.87 28.20-18.32 27.97-17.40L23.45 0.87C23.27 1.57 22.88 1.93 22.23 1.93L7.99 1.93C6.82 1.93 6.39 1.58 5.54-1.52ZM31.11-9.07C30.93-8.33 31.48-7.85 32.21-8.06L36.87-9.46C37.57-9.67 37.76-10.42 37.24-10.93L33.86-14.43C33.33-14.96 32.60-14.80 32.41-14.06Z" fill="currentColor"/>
</svg>