<svg xmlns="http://www.w3.org/2000/svg" viewBox="0 0 24 24" width="24" height="24">
  
  <path transform="matrix(0.7270165170550055, 0, 0, 0.7270165170550055, -0.17177964281123037, 18.155501174674704)" d="M18.83-7.54C18.83-9.14 17.44-10.00 17.44-10.97C17.44-11.54 17.59-11.82 17.96-12.35C18.62-13.22 17.39-14.11 16.73-13.27C16.17-12.55 15.91-11.87 15.91-11.06C15.91-9.39 17.27-8.64 17.27-7.54C17.27-7.01 16.97-6.56 16.64-6.06C15.80-5.98 14.96-5.87 14.18-5.74C14.34-10.00 13.13-13.52 10.82-15.54C11.25-18.76 9.13-21.30 6.35-21.30C3.84-21.30 2.50-19.45 3.15-16.78L7.66 1.44C8.12 3.35 9.39 4.37 11.26 4.37L25.49 4.37C28.05 4.37 29.19 3.13 30.28-0.88C31.08-3.75 29.67-5.41 25.98-6.04C26.21-6.47 26.39-6.95 26.39-7.54C26.39-9.14 25.01-10.00 25.01-10.97C25.01-11.54 25.16-11.82 25.54-12.35C26.19-13.22 24.96-14.11 24.30-13.27C23.73-12.55 23.48-11.87 23.48-11.06C23.48-9.39 24.84-8.64 24.84-7.54C24.84-7.07 24.60-6.67 24.33-6.23C23.71-6.28 23.04-6.30 22.34-6.32C22.50-6.67 22.62-7.07 22.62-7.54C22.62-9.14 21.22-10.00 21.22-10.97C21.22-11.54 21.38-11.82 21.75-12.35C22.41-13.22 21.18-14.11 20.52-13.27C19.95-12.55 19.70-11.87 19.70-11.06C19.70-9.39 21.06-8.64 21.06-7.54C21.06-7.09 20.84-6.70 20.58-6.29C19.88-6.28 19.18-6.25 18.50-6.21C18.69-6.59 18.83-7.02 18.83-7.54ZM27.95-1.54C27.09 1.58 26.66 1.93 25.49 1.93L11.26 1.93C10.61 1.93 10.21 1.57 10.03 0.87L5.51-17.41C5.29-18.32 5.66-18.87 6.38-18.87C7.66-18.87 8.73-17.67 8.41-15.57C8.30-14.77 8.43-14.41 8.89-14.03C10.93-12.42 12.01-9.25 11.95-4.65C11.94-3.79 12.52-3.21 13.37-3.22C13.92-3.25 14.79-3.38 15.95-3.50C16.03-2.89 16.29-2.37 16.73-1.80C17.38-0.97 18.61-1.85 17.96-2.72C17.70-3.08 17.54-3.34 17.47-3.67C18.15-3.73 18.90-3.79 19.70-3.82C19.73-3.08 19.99-2.46 20.52-1.80C21.16-0.97 22.39-1.85 21.75-2.72C21.42-3.16 21.27-3.43 21.23-3.88C21.48-3.88 21.74-3.88 22.01-3.88C22.54-3.88 23.03-3.87 23.48-3.86C23.52-3.11 23.77-2.47 24.30-1.80C24.95-0.97 26.18-1.85 25.54-2.72C25.24-3.12 25.08-3.39 25.03-3.76C27.61-3.50 28.30-2.81 27.95-1.54Z" fill="currentColor"/>
</svg>