<svg xmlns="http://www.w3.org/2000/svg" viewBox="0 0 24 24" width="24" height="24">
  <title>carseat.right.backrest.up.and.down.fill</title>
  <path transform="matrix(0.5814731844688403, 0, 0, 0.5814731844688403, 0.2627555730681461, 16.91640120227658)" d="M37.17-0.88C38.19-4.59 35.53-6.26 28.93-6.26C26.06-6.26 23.13-6.01 20.75-5.58C21.26-10.04 19.93-13.71 17.02-15.71C17.45-18.96 15.33-21.25 12.98-21.25C11.03-21.25 9.59-19.68 10.30-16.78L14.80 1.44C15.27 3.33 16.50 4.34 18.36 4.34L32.43 4.34C34.97 4.34 36.08 3.12 37.17-0.88ZM22.52-13.42C22.71-12.67 23.45-12.53 23.98-13.07L27.36-16.54C27.88-17.05 27.68-17.81 26.98-18.02L22.31-19.42C21.59-19.64 21.04-19.13 21.22-18.41ZM9.41-9.07L8.11-14.06C7.92-14.80 7.20-14.96 6.67-14.43L3.28-10.93C2.77-10.42 2.95-9.67 3.66-9.46L8.31-8.06C9.05-7.85 9.60-8.33 9.41-9.07Z" fill="currentColor"/>
</svg>