<svg xmlns="http://www.w3.org/2000/svg" viewBox="0 0 24 24" width="24" height="24">
  
  <path transform="matrix(0.5989615729427678, 0, 0, 0.5989615729427678, 2.0431934859831626, 17.112081248583348)" d="M30.05-4.86C31.07-8.57 28.41-10.24 21.81-10.24C18.93-10.24 16.01-9.98 13.63-9.55C14.13-14.02 12.81-17.70 9.89-19.70C10.32-22.93 8.20-25.23 5.86-25.23C3.89-25.23 2.46-23.66 3.18-20.77L7.68-2.53C8.14-0.64 9.38 0.36 11.23 0.36L25.29 0.36C27.84 0.36 28.96-0.87 30.05-4.86ZM23.67-11.98C24.43-11.98 24.76-12.63 24.36-13.28L21.79-17.57C21.41-18.20 20.63-18.18 20.26-17.57L17.66-13.28C17.26-12.63 17.61-11.98 18.35-11.98ZM23.67 2.11L18.36 2.11C17.61 2.11 17.26 2.75 17.66 3.40L20.26 7.70C20.63 8.31 21.40 8.32 21.79 7.70L24.38 3.41C24.75 2.77 24.43 2.11 23.67 2.11Z" fill="currentColor"/>
</svg>