<svg xmlns="http://www.w3.org/2000/svg" viewBox="0 0 24 24" width="24" height="24">
  <title>carseat.right.backrest.up.and.down</title>
  <path transform="matrix(0.5786738111404293, 0, 0, 0.5786738111404293, 0.2711191500026977, 16.899513615808125)" d="M37.34-0.88C38.37-4.62 35.67-6.32 29.05-6.32C26.34-6.32 23.63-6.12 21.23-5.74C21.40-9.98 20.18-13.52 17.87-15.54C18.30-18.76 16.18-21.30 13.39-21.30C10.89-21.30 9.54-19.45 10.21-16.78L14.71 1.45C15.18 3.35 16.43 4.37 18.30 4.37L32.53 4.37C35.11 4.37 36.23 3.14 37.34-0.88ZM22.52-13.42C22.71-12.67 23.45-12.53 23.98-13.07L27.36-16.54C27.88-17.05 27.68-17.81 26.98-18.02L22.31-19.42C21.59-19.64 21.04-19.13 21.22-18.41ZM34.99-1.52C34.15 1.58 33.71 1.93 32.53 1.93L18.30 1.93C17.66 1.93 17.26 1.57 17.09 0.87L12.56-17.40C12.34-18.32 12.70-18.87 13.43-18.87C14.71-18.87 15.79-17.67 15.47-15.57C15.34-14.77 15.47-14.41 15.94-14.02C17.99-12.41 19.05-9.23 19.00-4.64C19.00-3.79 19.56-3.20 20.43-3.21C21.70-3.28 24.75-3.88 29.05-3.88C34.11-3.88 35.46-3.21 34.99-1.52ZM9.41-9.07L8.11-14.06C7.92-14.80 7.20-14.96 6.67-14.43L3.28-10.93C2.77-10.42 2.95-9.67 3.66-9.46L8.31-8.06C9.05-7.85 9.60-8.33 9.41-9.07Z" fill="currentColor"/>
</svg>