<svg xmlns="http://www.w3.org/2000/svg" viewBox="0 0 24 24" width="24" height="24">
  
  <path transform="matrix(0.5981219197103274, 0, 0, 0.5981219197103274, 1.9868294890073943, 17.118933368927845)" d="M30.28-4.85C31.31-8.60 28.62-10.29 22.01-10.29C19.30-10.29 16.58-10.09 14.18-9.71C14.34-13.97 13.13-17.50 10.82-19.51C11.25-22.73 9.13-25.28 6.35-25.28C3.84-25.28 2.50-23.43 3.15-20.75L7.66-2.53C8.12-0.62 9.39 0.40 11.26 0.40L25.49 0.40C28.05 0.40 29.19-0.84 30.28-4.85ZM27.95-5.51C27.09-2.39 26.66-2.04 25.49-2.04L11.26-2.04C10.61-2.04 10.21-2.40 10.03-3.11L5.51-21.39C5.29-22.29 5.66-22.84 6.38-22.84C7.66-22.84 8.73-21.64 8.41-19.55C8.30-18.74 8.43-18.39 8.89-18C10.93-16.39 12.01-13.22 11.95-8.63C11.94-7.76 12.52-7.18 13.37-7.20C14.66-7.25 17.70-7.85 22.01-7.85C27.06-7.85 28.41-7.18 27.95-5.51ZM23.82-11.98C24.59-11.98 24.91-12.63 24.53-13.28L21.94-17.57C21.56-18.20 20.78-18.18 20.41-17.57L17.81-13.28C17.41-12.63 17.77-11.98 18.52-11.98ZM23.82 2.11L18.52 2.11C17.77 2.11 17.41 2.75 17.81 3.40L20.41 7.70C20.78 8.31 21.55 8.32 21.94 7.70L24.53 3.41C24.91 2.77 24.59 2.11 23.82 2.11Z" fill="currentColor"/>
</svg>