<svg xmlns="http://www.w3.org/2000/svg" viewBox="0 0 24 24" width="24" height="24">
  <title>carseat.left.and.heat.waves</title>
  <path transform="matrix(0.726988201688549, 0, 0, 0.726988201688549, -0.1718745647188875, 18.155261434218477)" d="M3.20-0.88C4.30 3.13 5.43 4.37 7.99 4.37L22.23 4.37C24.11 4.37 25.36 3.35 25.83 1.44L30.33-16.78C31.00-19.45 29.65-21.30 27.14-21.30C24.35-21.30 22.23-18.76 22.66-15.54C20.36-13.52 19.14-10.00 19.30-5.74C18.61-5.86 17.88-5.95 17.14-6.02C17.38-6.46 17.57-6.94 17.57-7.54C17.57-9.14 16.17-10.00 16.17-10.97C16.17-11.54 16.32-11.82 16.71-12.35C17.36-13.22 16.13-14.11 15.47-13.27C14.91-12.55 14.65-11.87 14.65-11.06C14.65-9.39 16.01-8.64 16.01-7.54C16.01-7.05 15.75-6.63 15.45-6.18C14.80-6.22 14.14-6.26 13.49-6.28C13.65-6.64 13.78-7.05 13.78-7.54C13.78-9.14 12.39-10.00 12.39-10.97C12.39-11.54 12.54-11.82 12.93-12.35C13.57-13.22 12.34-14.11 11.68-13.27C11.12-12.55 10.86-11.87 10.86-11.06C10.86-9.39 12.22-8.64 12.22-7.54C12.22-7.10 12.01-6.71 11.75-6.32C11.66-6.32 11.57-6.32 11.48-6.32C10.85-6.32 10.25-6.30 9.69-6.27C9.87-6.63 10.00-7.05 10.00-7.54C10.00-9.14 8.60-10.00 8.60-10.97C8.60-11.54 8.75-11.82 9.14-12.35C9.79-13.22 8.55-14.11 7.90-13.27C7.34-12.55 7.08-11.87 7.08-11.06C7.08-9.39 8.44-8.64 8.44-7.54C8.44-7.02 8.14-6.59 7.83-6.08C3.89-5.51 2.39-3.83 3.20-0.88ZM5.54-1.54C5.26-2.55 5.64-3.20 7.11-3.55C7.18-2.93 7.44-2.38 7.90-1.80C8.55-0.97 9.79-1.85 9.13-2.72C8.82-3.13 8.67-3.40 8.63-3.77C9.26-3.83 10.01-3.87 10.86-3.88C10.89-3.12 11.14-2.47 11.68-1.80C12.33-0.97 13.57-1.85 12.91-2.72C12.59-3.16 12.43-3.43 12.40-3.87C13.21-3.86 13.96-3.82 14.66-3.77C14.70-3.06 14.95-2.45 15.47-1.80C16.11-0.97 17.36-1.85 16.70-2.72C16.43-3.08 16.29-3.33 16.22-3.64C18.04-3.47 19.37-3.26 20.11-3.22C20.98-3.21 21.54-3.79 21.54-4.65C21.48-9.25 22.55-12.42 24.59-14.03C25.07-14.41 25.20-14.77 25.07-15.57C24.75-17.67 25.82-18.87 27.11-18.87C27.83-18.87 28.20-18.32 27.97-17.41L23.45 0.87C23.27 1.57 22.88 1.93 22.23 1.93L7.99 1.93C6.82 1.93 6.39 1.58 5.54-1.54Z" fill="currentColor"/>
</svg>