<svg xmlns="http://www.w3.org/2000/svg" viewBox="0 0 24 24" width="24" height="24">
  <title>cart</title>
  <path transform="matrix(0.7312196515281348, 0, 0, 0.7312196515281348, 0.25192802056555275, 17.539845758354755)" d="M12-1.78L25.62-1.78C26.23-1.78 26.78-2.25 26.78-2.94C26.78-3.62 26.23-4.09 25.62-4.09L12.30-4.09C11.81-4.09 11.50-4.44 11.43-4.97L11.25-6.16L25.75-6.16C27.60-6.16 28.58-7.28 28.85-9.13L29.70-14.79C29.72-14.95 29.74-15.15 29.74-15.29C29.74-16.05 29.24-16.58 28.31-16.58L9.75-16.58L9.59-17.72C9.43-18.81 8.96-19.36 7.58-19.36L3.64-19.36C2.96-19.36 2.39-18.79 2.39-18.09C2.39-17.41 2.96-16.84 3.64-16.84L7.13-16.84L8.89-4.72C9.16-2.89 10.15-1.78 12-1.78ZM27.04-14.27L26.34-9.34C26.27-8.80 25.99-8.47 25.48-8.47L10.92-8.47L10.08-14.27ZM12.97 4.21C14.16 4.21 15.11 3.26 15.11 2.07C15.11 0.89 14.16-0.06 12.97-0.06C11.79-0.06 10.84 0.89 10.84 2.07C10.84 3.26 11.79 4.21 12.97 4.21ZM23.72 4.21C24.90 4.21 25.85 3.26 25.85 2.07C25.85 0.89 24.90-0.06 23.72-0.06C22.54-0.06 21.57 0.89 21.57 2.07C21.57 3.26 22.54 4.21 23.72 4.21Z" fill="currentColor"/>
</svg>