<svg xmlns="http://www.w3.org/2000/svg" viewBox="0 0 24 24" width="24" height="24">
  <title>cat</title>
  <path transform="matrix(0.6110514381191073, 0, 0, 0.6110514381191073, 0.1740064446831362, 17.15216612960974)" d="M9.15 5.71L10.86 5.71C12.46 5.71 13.51 4.76 13.51 3.30C13.51 2.00 12.75 1.38 11.92 1.16L11.92-0.36C11.92-1.44 12.01-2.12 12.21-2.74C13.55-2.20 15.46-1.90 17.10-1.90C18.62-1.90 20.29-2.06 21.63-2.34C21.76-1.78 21.89-1.29 21.89-1.14C21.89 0.43 21.73 1.24 21.73 2.82C21.73 4.63 22.75 5.71 24.53 5.71L26.14 5.71C27.67 5.71 28.75 4.72 28.75 3.30C28.75 1.97 28.03 1.42 27.20 1.17L27.20 0.33C27.20-5.36 31.64-3.34 31.98-11.84C34.11-12.19 35.72-13.73 35.72-15.06C35.72-16.64 34.21-18.41 32.66-19.39C32.31-21.07 31.17-22.21 30.30-22.21C29.39-22.21 28.39-21.12 27.86-19.72C26.88-18.94 25.86-17.55 25.24-16.46L24.70-15.50C24.41-14.99 24.15-14.72 23.72-14.72C19.34-14.72 17.61-15.39 13.07-15.39C10.65-15.39 9.15-14.53 8.25-13.38C7.86-12.90 7.43-12.89 6.93-13.20C5.75-13.84 5.05-15.05 5.05-16.56C5.05-18.89 6.89-20.51 9.57-20.51C10.61-20.51 11.63-20.31 12.87-19.80C14.29-19.23 15.01-21.16 13.68-21.73C12.20-22.31 10.80-22.57 9.57-22.57C5.71-22.57 2.99-20.09 2.99-16.56C2.99-14.13 4.16-12.20 6.02-11.25C6.64-10.93 6.83-10.66 6.82-10.03C6.80-9.25 6.80-8.63 6.80-8.18C6.80-4.85 5.05-3.76 5.59-1.79L7.13 3.88C7.46 5.14 8.12 5.71 9.15 5.71ZM9.69 3.69C9.34 3.69 9.12 3.48 8.95 2.86L7.54-2.33C7.31-3.14 8.81-4.15 8.81-8.18C8.81-9.80 8.88-13.37 13.07-13.37C17.06-13.37 20.37-12.70 24.09-12.70C24.97-12.70 25.85-13.39 26.46-14.47L27.06-15.52C27.79-16.79 28.52-17.85 29.23-18.25C29.70-19.48 29.95-20.00 30.20-20.10C30.35-20.02 30.73-19.43 30.94-18.33C32.40-17.40 33.70-15.97 33.70-15.13C33.70-14.61 32.59-13.68 30.95-13.68L30.80-13.68C30.28-13.68 29.99-13.38 29.99-12.84L29.99-12.64C29.99-5.17 25.18-7.56 25.18 0.33L25.18 1.99C25.18 2.33 25.39 2.54 25.72 2.54L26.05 2.54C26.51 2.54 26.74 2.75 26.74 3.12C26.74 3.49 26.51 3.69 26.03 3.69L24.74 3.69C24.08 3.69 23.74 3.33 23.74 2.68C23.74 1.58 23.91 0.76 23.91-1.14C23.91-1.82 23.32-3.64 23.32-4.51C23.32-4.84 23.54-5.41 23.80-6.05C24.26-7.15 22.52-7.89 22.04-6.71C21.73-5.93 21.43-5.11 21.43-4.36C20.31-4.09 18.64-3.91 17.10-3.91C15.60-3.91 14.04-4.18 13.03-4.56C13.50-5.26 13.85-5.93 13.99-6.34C14.39-7.45 12.76-8.19 12.19-6.97C11.78-6.08 11.36-5.40 10.80-4.45C10.20-3.40 9.90-2.66 9.90-1.31L9.90 1.99C9.90 2.33 10.11 2.54 10.44 2.54L10.80 2.54C11.27 2.54 11.51 2.78 11.51 3.12C11.51 3.52 11.26 3.69 10.80 3.69ZM31.02-15.50C31.44-15.50 31.78-15.84 31.78-16.28C31.78-16.69 31.44-17.04 31.02-17.04C30.59-17.04 30.25-16.69 30.25-16.28C30.25-15.84 30.59-15.50 31.02-15.50Z" fill="currentColor"/>
</svg>