<svg xmlns="http://www.w3.org/2000/svg" viewBox="0 0 24 24" width="24" height="24">
  <title>cedisign.bank.building</title>
  <path transform="matrix(0.7299686341602509, 0, 0, 0.7299686341602509, -0.18135158254918737, 18.18049615055603)" d="M4.88 1.52L28.63 1.52L28.63 0.57C28.63 0.02 28.30-0.30 27.76-0.30L27.14-0.30L27.14-13.02L28.13-13.02C28.90-13.02 29.36-13.59 29.36-14.17C29.36-14.59 29.11-14.98 28.61-15.27L18.32-21.20C17.82-21.49 17.27-21.66 16.75-21.66C16.22-21.66 15.67-21.49 15.18-21.20L4.89-15.27C4.37-14.98 4.15-14.59 4.15-14.17C4.15-13.59 4.59-13.02 5.38-13.02L6.38-13.02L6.38-0.30L5.74-0.30C5.20-0.30 4.88 0.02 4.88 0.57ZM8.46-0.30L8.46-14.64L16.38-19.08C16.49-19.14 16.63-19.17 16.75-19.17C16.88-19.17 17.00-19.14 17.12-19.08L25.04-14.64L25.04-0.30ZM16.75-2.32C16.96-2.32 17.11-2.46 17.11-2.68L17.11-3.62C18.75-3.69 20.26-4.45 20.81-5.94C20.88-6.13 20.93-6.34 20.93-6.55C20.93-7.04 20.59-7.36 20.10-7.36C19.66-7.36 19.43-7.14 19.28-6.73C18.95-5.82 18.13-5.24 17.11-5.16L17.11-12.36C18.11-12.26 18.90-11.64 19.21-10.79C19.38-10.37 19.61-10.16 20.05-10.16C20.53-10.16 20.86-10.46 20.86-10.96C20.86-11.25 20.77-11.52 20.65-11.75C20.00-13.11 18.62-13.80 17.11-13.89L17.11-14.82C17.11-15.04 16.96-15.19 16.75-15.19C16.54-15.19 16.38-15.04 16.38-14.82L16.38-13.89C13.72-13.69 12.19-11.64 12.19-8.77C12.19-5.95 13.63-3.84 16.38-3.63L16.38-2.68C16.38-2.47 16.54-2.32 16.75-2.32ZM14.05-8.77C14.05-10.52 14.80-12.11 16.38-12.35L16.38-5.17C14.74-5.41 14.05-7.04 14.05-8.77ZM4.14 4.72L29.24 4.72C29.86 4.72 30.39 4.21 30.39 3.57C30.39 2.94 29.86 2.43 29.24 2.43L4.14 2.43C3.52 2.43 2.99 2.94 2.99 3.57C2.99 4.21 3.52 4.72 4.14 4.72Z" fill="currentColor"/>
</svg>