<svg xmlns="http://www.w3.org/2000/svg" viewBox="0 0 24 24" width="24" height="24">
  
  <path transform="matrix(0.5402553550701699, 0, 0, 0.5402553550701699, 0.3855650522317189, 16.571066793289013)" d="M21.50 6.60C23.21 6.60 24.63 5.19 24.63 3.48C24.63 2.09 23.71 0.90 22.44 0.49L22.44-1.97C22.68-2.02 22.90-2.09 23.11-2.17C25.36-0.42 28.13-0.56 29.82-1.96C32.77 0.36 37.42-1.35 38.04-4.76C39.15-5.03 40.01-6.05 40.01-7.25C40.01-8.66 38.85-9.82 37.44-9.82C36.02-9.82 34.88-8.66 34.88-7.25C34.88-6.30 35.40-5.46 36.18-5.03C35.77-2.96 32.79-2.00 30.95-3.40C31.16-3.83 31.29-4.30 31.35-4.83C32.63-5.23 33.56-6.42 33.56-7.83C33.56-9.55 32.14-10.97 30.42-10.97C28.70-10.97 27.28-9.55 27.28-7.83C27.28-6.45 28.20-5.25 29.45-4.84C29.10-2.91 26.78-2.11 24.77-3.30C25.51-4.09 25.96-5.16 25.96-6.32C25.96-8.44 24.48-10.21 22.51-10.66L22.51-16.97C25.04-17.36 27.25-19.16 27.25-21.35C27.25-22.16 26.80-22.70 25.79-23.00C24.56-23.36 23.06-23.52 21.50-23.52C19.95-23.52 18.45-23.36 17.21-23.00C16.21-22.70 15.76-22.16 15.76-21.35C15.76-19.16 17.96-17.36 20.50-16.96L20.50-10.66C18.53-10.21 17.05-8.44 17.05-6.32C17.05-5.16 17.50-4.09 18.22-3.30C16.22-2.11 13.90-2.91 13.55-4.84C14.80-5.25 15.71-6.45 15.71-7.83C15.71-9.55 14.30-10.97 12.57-10.97C10.85-10.97 9.43-9.55 9.43-7.83C9.43-6.42 10.37-5.23 11.65-4.83C11.71-4.30 11.84-3.83 12.05-3.40C10.21-2.00 7.23-2.96 6.82-5.03C7.59-5.46 8.12-6.30 8.12-7.25C8.12-8.66 6.97-9.82 5.55-9.82C4.15-9.82 2.99-8.66 2.99-7.25C2.99-6.05 3.84-5.03 4.96-4.76C5.57-1.35 10.23 0.36 13.17-1.96C14.87-0.56 17.64-0.42 19.89-2.17C20.10-2.09 20.33-2.02 20.57-1.97L20.57 0.49C19.30 0.90 18.38 2.09 18.38 3.48C18.38 5.19 19.78 6.60 21.50 6.60Z" fill="currentColor"/>
</svg>