<svg xmlns="http://www.w3.org/2000/svg" viewBox="0 0 24 24" width="24" height="24">
  
  <path transform="matrix(0.7407407407407407, 0, 0, 0.7407407407407407, 0.5546875000000013, 18.276041666666664)" d="M8.02-20.32L22.90-20.32C22.82-21.39 22.16-21.97 21-21.97L9.90-21.97C8.75-21.97 8.10-21.39 8.02-20.32ZM5.65-16.83L25.27-16.83C25.10-17.98 24.50-18.64 23.21-18.64L7.70-18.64C6.40-18.64 5.80-17.98 5.65-16.83ZM6.96 5.03L23.94 5.03C26.53 5.03 27.91 3.66 27.91 1.09L27.91-10.97C27.91-13.54 26.53-14.91 23.94-14.91L6.96-14.91C4.36-14.91 2.99-13.55 2.99-10.97L2.99 1.09C2.99 3.67 4.36 5.03 6.96 5.03ZM14.16 0.89C13.68 0.89 13.30 0.68 12.95 0.25L10.13-3.16C9.89-3.45 9.79-3.74 9.79-4.05C9.79-4.70 10.31-5.23 10.96-5.23C11.34-5.23 11.65-5.09 11.95-4.70L14.12-1.98L18.84-9.53C19.13-9.97 19.48-10.20 19.89-10.20C20.52-10.20 21.11-9.74 21.11-9.08C21.11-8.80 20.96-8.50 20.79-8.21L15.32 0.23C15.04 0.66 14.63 0.89 14.16 0.89Z" fill="currentColor"/>
</svg>