<svg xmlns="http://www.w3.org/2000/svg" viewBox="0 0 24 24" width="24" height="24">
  <title>chevron.right.dotted.chevron.right</title>
  <path transform="matrix(0.903954802259887, 0, 0, 0.903954802259887, -0.7012711864406778, 19.6853813559322)" d="M14.43 2.03C14.86 2.03 15.22 1.88 15.53 1.57L24.54-7.24C24.94-7.63 25.11-8.03 25.11-8.51C25.10-8.99 24.93-9.41 24.54-9.77L15.53-18.59C15.22-18.88 14.86-19.03 14.43-19.03C13.54-19.03 12.83-18.34 12.83-17.46C12.83-17.04 13.01-16.63 13.32-16.31L21.35-8.51L13.32-0.70C13.02-0.39 12.83 0.01 12.83 0.46C12.83 1.32 13.54 2.03 14.43 2.03ZM4.23-16.16C4.92-16.16 5.48-16.72 5.48-17.41C5.48-18.11 4.92-18.66 4.23-18.66C3.54-18.66 2.99-18.11 2.99-17.41C2.99-16.72 3.54-16.16 4.23-16.16ZM6.47-13.92C7.16-13.92 7.71-14.48 7.71-15.18C7.71-15.87 7.16-16.42 6.47-16.42C5.78-16.42 5.21-15.87 5.21-15.18C5.21-14.48 5.78-13.92 6.47-13.92ZM8.70-11.68C9.39-11.68 9.94-12.25 9.94-12.94C9.94-13.63 9.39-14.18 8.70-14.18C8.00-14.18 7.44-13.63 7.44-12.94C7.44-12.25 8.00-11.68 8.70-11.68ZM10.92-9.45C11.61-9.45 12.16-10.01 12.16-10.70C12.16-11.39 11.61-11.94 10.92-11.94C10.23-11.94 9.67-11.39 9.67-10.70C9.67-10.01 10.23-9.45 10.92-9.45ZM13.15-7.21C13.84-7.21 14.39-7.77 14.39-8.46C14.39-9.15 13.84-9.70 13.15-9.70C12.46-9.70 11.89-9.15 11.89-8.46C11.89-7.77 12.46-7.21 13.15-7.21ZM10.92-4.97C11.61-4.97 12.16-5.53 12.16-6.22C12.16-6.91 11.61-7.46 10.92-7.46C10.23-7.46 9.67-6.91 9.67-6.22C9.67-5.53 10.23-4.97 10.92-4.97ZM8.70-2.73C9.39-2.73 9.94-3.29 9.94-3.98C9.94-4.68 9.39-5.23 8.70-5.23C8.00-5.23 7.44-4.68 7.44-3.98C7.44-3.29 8.00-2.73 8.70-2.73ZM6.47-0.49C7.16-0.49 7.71-1.05 7.71-1.75C7.71-2.44 7.16-2.99 6.47-2.99C5.78-2.99 5.21-2.44 5.21-1.75C5.21-1.05 5.78-0.49 6.47-0.49ZM4.23 1.75C4.92 1.75 5.48 1.18 5.48 0.49C5.48-0.20 4.92-0.75 4.23-0.75C3.54-0.75 2.99-0.20 2.99 0.49C2.99 1.18 3.54 1.75 4.23 1.75Z" fill="currentColor"/>
</svg>