<svg xmlns="http://www.w3.org/2000/svg" viewBox="0 0 24 24" width="24" height="24">
  <title>chevron.right.square</title>
  <path transform="matrix(0.9044338456103161, 0, 0, 0.9044338456103161, -0.6974032856385799, 19.64705882352941)" d="M6.96 2.60L21.12 2.60C23.72 2.60 25.09 1.23 25.09-1.34L25.09-15.57C25.09-18.14 23.72-19.51 21.12-19.51L6.96-19.51C4.37-19.51 2.99-18.14 2.99-15.57L2.99-1.34C2.99 1.23 4.37 2.60 6.96 2.60ZM7.18-0.01C6.15-0.01 5.60-0.53 5.60-1.61L5.60-15.29C5.60-16.37 6.15-16.90 7.18-16.90L20.91-16.90C21.91-16.90 22.49-16.37 22.49-15.29L22.49-1.61C22.49-0.53 21.91-0.01 20.91-0.01ZM11.45-2.71C11.81-2.34 12.56-2.37 12.95-2.73L17.64-7.15C18.39-7.84 18.39-9.06 17.64-9.75L12.95-14.16C12.52-14.57 11.87-14.57 11.47-14.19C11.03-13.78 11.02-13.08 11.45-12.68L15.95-8.45L11.45-4.22C11.03-3.82 11.00-3.14 11.45-2.71Z" fill="currentColor"/>
</svg>