<svg xmlns="http://www.w3.org/2000/svg" viewBox="0 0 24 24" width="24" height="24">
  <title>circle.dashed.rectangle</title>
  <path transform="matrix(0.7179918664983873, 0, 0, 0.7179918664983873, -0.14556163230963381, 18.06647034076567)" d="M6.96 2.60L26.87 2.60C29.46 2.60 30.84 1.23 30.84-1.34L30.84-15.56C30.84-18.13 29.46-19.50 26.87-19.50L6.96-19.50C4.37-19.50 2.99-18.14 2.99-15.56L2.99-1.34C2.99 1.24 4.37 2.60 6.96 2.60ZM7.18-0.01C6.15-0.01 5.60-0.53 5.60-1.61L5.60-15.29C5.60-16.37 6.15-16.89 7.18-16.89L26.65-16.89C27.67-16.89 28.23-16.37 28.23-15.29L28.23-1.61C28.23-0.53 27.67-0.01 26.65-0.01ZM13.01-13.56L14.31-12.27C14.82-12.63 15.42-12.89 16.07-13.00L16.07-14.82C14.93-14.68 13.88-14.23 13.01-13.56ZM17.78-14.82L17.78-13.00C18.42-12.89 19.01-12.63 19.54-12.27L20.82-13.56C19.96-14.23 18.90-14.67 17.78-14.82ZM10.51-9.27L12.34-9.27C12.45-9.93 12.71-10.55 13.09-11.06L11.80-12.36C11.12-11.47 10.66-10.42 10.51-9.27ZM22.03-12.35L20.74-11.06C21.11-10.54 21.38-9.93 21.49-9.27L23.31-9.27C23.16-10.42 22.70-11.47 22.03-12.35ZM23.30-7.57L21.47-7.57C21.35-6.94 21.09-6.35 20.74-5.84L22.03-4.55C22.69-5.40 23.14-6.45 23.30-7.57ZM11.80-4.52L13.10-5.82C12.74-6.34 12.48-6.93 12.36-7.57L10.52-7.57C10.68-6.43 11.13-5.39 11.80-4.52ZM20.81-3.34L19.52-4.63C19.01-4.25 18.42-4.00 17.78-3.89L17.78-2.06C18.90-2.21 19.96-2.66 20.81-3.34ZM16.07-2.06L16.07-3.89C15.42-4.00 14.82-4.25 14.31-4.62L13.01-3.33C13.89-2.66 14.93-2.21 16.07-2.06Z" fill="currentColor"/>
</svg>