<svg xmlns="http://www.w3.org/2000/svg" viewBox="0 0 24 24" width="24" height="24">
  
  <path transform="matrix(0.5932105202178195, 0, 0, 0.5932105202178195, 0.22732012513034405, 17.019117135905457)" d="M36.70-8.45C36.70-7.76 36.15-7.14 35.41-7.14L32.00-7.14C32.05-7.57 32.07-8.02 32.07-8.46C32.07-8.91 32.05-9.34 32.00-9.77L7.70-9.77C8.36-15.90 13.55-20.68 19.85-20.68C26.16-20.68 31.35-15.90 32.00-9.77L35.41-9.77C36.15-9.77 36.70-9.15 36.70-8.45ZM2.99-8.45C2.99-9.15 3.55-9.77 4.29-9.77L7.70-9.77C7.65-9.34 7.63-8.91 7.63-8.46C7.63-8.02 7.65-7.57 7.70-7.14L32.00-7.14C31.34-1.02 26.14 3.76 19.85 3.76C13.56 3.76 8.36-1.02 7.70-7.14L4.29-7.14C3.55-7.14 2.99-7.76 2.99-8.45Z" fill="currentColor"/>
</svg>