<svg xmlns="http://www.w3.org/2000/svg" viewBox="0 0 24 24" width="24" height="24">
  
  <path transform="matrix(0.8181527644614893, 0, 0, 0.8181527644614893, 0.28379674017257894, 18.922339405560884)" d="M14.32 3.76C21.07 3.76 26.54-1.72 26.54-8.46C26.54-15.21 21.07-20.68 14.32-20.68C7.58-20.68 2.10-15.21 2.10-8.46C2.10-1.72 7.58 3.76 14.32 3.76ZM14.32-2.02C10.79-2.02 7.88-4.93 7.88-8.46C7.88-11.99 10.78-14.91 14.31-14.91C17.85-14.91 20.77-11.99 20.77-8.46C20.77-4.93 17.85-2.02 14.32-2.02ZM11.29-7.50L14.31-7.50C14.68-7.50 14.99-7.78 14.99-8.16L14.99-12.12C14.99-12.48 14.68-12.77 14.31-12.77C13.95-12.77 13.65-12.48 13.65-12.12L13.65-8.81L11.29-8.81C10.90-8.81 10.63-8.53 10.63-8.16C10.63-7.77 10.90-7.50 11.29-7.50Z" fill="currentColor"/>
</svg>