<svg xmlns="http://www.w3.org/2000/svg" viewBox="0 0 24 24" width="24" height="24">
  
  <path transform="matrix(0.8181527644614893, 0, 0, 0.8181527644614893, 0.28379674017257894, 18.91275167785235)" d="M14.32 3.77C21.07 3.77 26.54-1.70 26.54-8.45C26.54-15.19 21.07-20.67 14.32-20.67C7.58-20.67 2.10-15.19 2.10-8.45C2.10-1.70 7.58 3.77 14.32 3.77ZM21.80-11.45C21.80-10.46 20.67-8.99 18.84-8.73C18.66-10.41 17.36-11.70 15.61-11.92C15.48-12.09 15.35-12.27 15.20-12.43C15.41-14.09 16.85-15.34 17.92-15.39C18.14-15.39 18.28-15.28 18.28-15.09C18.28-14.79 17.89-14.25 17.89-13.50C17.89-12.28 18.71-11.48 20.06-11.50C20.81-11.50 21.25-11.82 21.53-11.82C21.70-11.82 21.80-11.67 21.80-11.45ZM9.20-5.50C7.79-5.50 6.84-6.40 6.84-7.68C6.84-8.70 7.46-9.49 8.37-9.80C8.58-11.59 10.10-12.98 11.94-12.98C13.41-12.98 14.50-12.19 15.11-11.07C16.76-11.05 17.99-9.86 17.99-8.29C17.99-6.70 16.78-5.50 15.20-5.50ZM10.66-2.89L11.44-4.66C11.50-4.79 11.57-4.85 11.73-4.85L13.18-4.85C13.31-4.85 13.38-4.73 13.31-4.59L12.81-3.68L14.06-3.68C14.25-3.68 14.30-3.49 14.17-3.38L11.37-0.73C11.23-0.61 11.07-0.71 11.12-0.84L11.87-2.64L10.82-2.64C10.66-2.64 10.61-2.75 10.66-2.89Z" fill="currentColor"/>
</svg>