<svg xmlns="http://www.w3.org/2000/svg" viewBox="0 0 24 24" width="24" height="24">
  <title>cloud.rain.circle</title>
  <path transform="matrix(0.8181527644614893, 0, 0, 0.8181527644614893, 0.28379674017257894, 18.922339405560884)" d="M14.32 3.76C21.07 3.76 26.54-1.71 26.54-8.46C26.54-15.21 21.07-20.68 14.32-20.68C7.57-20.68 2.10-15.21 2.10-8.46C2.10-1.71 7.57 3.76 14.32 3.76ZM14.32 1.08C9.05 1.08 4.78-3.19 4.78-8.46C4.78-13.73 9.05-18 14.32-18C19.59-18 23.86-13.73 23.86-8.46C23.86-3.19 19.59 1.08 14.32 1.08ZM10.73-6.91L17.39-6.91C19.17-6.91 20.52-8.27 20.52-9.98C20.52-11.74 19.11-13.04 17.27-13.04C16.59-14.38 15.36-15.20 13.79-15.20C11.75-15.20 10.08-13.66 9.84-11.64C8.84-11.31 8.12-10.45 8.12-9.32C8.12-7.97 9.11-6.91 10.73-6.91ZM10.63-3.71L11.40-5.04C11.55-5.31 11.46-5.65 11.19-5.80C10.92-5.95 10.59-5.86 10.44-5.59L9.67-4.27C9.52-4.00 9.61-3.66 9.88-3.50C10.15-3.35 10.48-3.45 10.63-3.71ZM15.76-3.71L16.54-5.04C16.69-5.31 16.59-5.65 16.32-5.80C16.05-5.95 15.73-5.86 15.57-5.59L14.80-4.27C14.65-4.00 14.74-3.66 15.01-3.50C15.28-3.35 15.61-3.45 15.76-3.71ZM12.23-2.03L13.97-5.03C14.12-5.30 14.04-5.64 13.77-5.79C13.50-5.94 13.16-5.85 13.01-5.59L11.29-2.58C11.13-2.32 11.21-1.98 11.48-1.83C11.75-1.68 12.08-1.77 12.23-2.03ZM17.37-2.03L19.10-5.03C19.25-5.30 19.17-5.64 18.90-5.79C18.63-5.94 18.29-5.85 18.14-5.59L16.42-2.58C16.27-2.32 16.35-1.98 16.62-1.83C16.89-1.68 17.21-1.77 17.37-2.03Z" fill="currentColor"/>
</svg>