<svg xmlns="http://www.w3.org/2000/svg" viewBox="0 0 24 24" width="24" height="24">
  <title>cloud.sun.rain.circle</title>
  <path transform="matrix(0.8181527644614893, 0, 0, 0.8181527644614893, 0.28379674017257894, 18.922339405560884)" d="M14.32 3.76C21.07 3.76 26.54-1.71 26.54-8.46C26.54-15.21 21.07-20.68 14.32-20.68C7.57-20.68 2.10-15.21 2.10-8.46C2.10-1.71 7.57 3.76 14.32 3.76ZM14.32 1.08C9.05 1.08 4.78-3.19 4.78-8.46C4.78-13.73 9.05-18 14.32-18C19.59-18 23.86-13.73 23.86-8.46C23.86-3.19 19.59 1.08 14.32 1.08ZM16.64-13.78C16.96-13.78 17.20-14.04 17.20-14.34L17.20-15.39C17.20-15.70 16.96-15.96 16.64-15.96C16.34-15.96 16.08-15.70 16.08-15.39L16.08-14.34C16.08-14.04 16.34-13.78 16.64-13.78ZM18.97-12.82C19.17-12.61 19.56-12.60 19.77-12.81L20.51-13.56C20.72-13.78 20.72-14.16 20.51-14.36C20.30-14.57 19.93-14.58 19.71-14.36L18.97-13.62C18.74-13.41 18.75-13.03 18.97-12.82ZM13.52-12.82C13.75-12.60 14.12-12.61 14.33-12.82C14.54-13.03 14.54-13.39 14.33-13.61L13.59-14.36C13.36-14.57 13.01-14.57 12.80-14.36C12.57-14.16 12.59-13.79 12.80-13.57ZM19.30-10.50C19.30-11.98 18.12-13.15 16.64-13.15C15.74-13.15 14.93-12.69 14.47-12C14.71-11.78 14.92-11.53 15.09-11.26C16.71-11.05 17.95-9.88 18.16-8.33C18.87-8.82 19.30-9.62 19.30-10.50ZM8.95-5.13L14.70-5.13C16.22-5.13 17.37-6.29 17.37-7.80C17.37-9.30 16.20-10.44 14.60-10.46C14.03-11.54 12.98-12.29 11.58-12.29C9.82-12.29 8.37-10.97 8.17-9.25C7.30-8.95 6.70-8.19 6.70-7.22C6.70-6 7.61-5.13 8.95-5.13ZM20.50-9.95L21.53-9.95C21.84-9.95 22.09-10.20 22.09-10.50C22.09-10.82 21.84-11.06 21.53-11.06L20.50-11.06C20.19-11.06 19.93-10.82 19.93-10.50C19.93-10.20 20.19-9.95 20.50-9.95ZM19.71-6.63C19.93-6.41 20.29-6.43 20.51-6.64C20.71-6.87 20.72-7.23 20.51-7.44L19.78-8.17C19.56-8.38 19.18-8.39 18.96-8.17C18.75-7.97 18.74-7.59 18.96-7.37ZM13.36-2.73L13.98-3.79C14.11-4.01 14.03-4.27 13.80-4.39C13.59-4.52 13.32-4.45 13.21-4.24L12.59-3.18C12.48-2.98 12.53-2.70 12.76-2.57C12.97-2.45 13.24-2.52 13.36-2.73ZM9.59-2.72L10.20-3.79C10.32-4.01 10.27-4.27 10.03-4.39C9.82-4.52 9.55-4.44 9.43-4.24L8.81-3.16C8.70-2.96 8.77-2.68 8.99-2.58C9.20-2.45 9.47-2.51 9.59-2.72ZM11.10-1.51L11.68-2.53C11.80-2.74 11.74-3.01 11.51-3.14C11.30-3.26 11.04-3.19 10.90-2.98L10.31-1.96C10.18-1.75 10.27-1.48 10.49-1.36C10.70-1.23 10.98-1.30 11.10-1.51ZM14.82-1.51L15.42-2.53C15.54-2.74 15.47-3.02 15.26-3.14C15.04-3.26 14.78-3.19 14.65-2.98L14.05-1.96C13.92-1.75 14.00-1.48 14.24-1.35C14.44-1.22 14.71-1.30 14.82-1.51Z" fill="currentColor"/>
</svg>