<svg xmlns="http://www.w3.org/2000/svg" viewBox="0 0 24 24" width="24" height="24">
  
  <path transform="matrix(0.5715561509265461, 0, 0, 0.5715561509265461, 1.3770931011386471, 16.63934478143424)" d="M23.73-20.84C24.35-20.84 24.86-21.36 24.86-21.97L24.86-24.32C24.86-24.94 24.35-25.44 23.73-25.44C23.11-25.44 22.61-24.94 22.61-24.32L22.61-21.97C22.61-21.36 23.11-20.84 23.73-20.84ZM16.65-18.57C17.10-18.13 17.82-18.13 18.26-18.56C18.68-19.00 18.68-19.70 18.25-20.14L16.58-21.82C16.15-22.27 15.42-22.25 14.99-21.82C14.55-21.39 14.57-20.67 15-20.24ZM29.21-18.56C29.64-18.13 30.38-18.13 30.82-18.56L32.47-20.23C32.91-20.66 32.91-21.39 32.47-21.82C32.04-22.25 31.34-22.24 30.89-21.81L29.23-20.14C28.78-19.71 28.79-18.98 29.21-18.56ZM6.36-0.87L19.14-0.87C22.68-0.87 25.43-3.55 25.43-7.02C25.43-7.16 25.43-7.29 25.42-7.43C27.87-8.14 29.65-10.38 29.65-13.08C29.65-16.36 27.02-19.00 23.74-19.00C21.01-19.00 18.74-17.19 18.05-14.70C16.61-16.35 14.59-17.27 12.22-17.27C8.25-17.27 4.96-14.31 4.45-10.37C2.43-9.73 1.09-7.96 1.09-5.75C1.09-2.91 3.25-0.87 6.36-0.87ZM19.99-13.09C19.99-15.20 21.64-16.85 23.74-16.85C25.83-16.85 27.48-15.20 27.48-13.09C27.48-11.43 26.41-10.01 24.91-9.52C24.06-11.43 22.24-12.77 19.99-13.09ZM6.38-3.25C4.46-3.25 3.48-4.31 3.48-5.71C3.48-6.91 4.21-7.92 5.88-8.37C6.49-8.52 6.69-8.80 6.76-9.42C7.13-12.75 9.42-14.89 12.22-14.89C14.39-14.89 16.10-13.69 17.21-11.53C17.48-11.00 17.78-10.83 18.41-10.83C21.46-10.83 23.04-9.09 23.04-6.97C23.04-4.89 21.40-3.25 19.13-3.25ZM32.60-11.96L34.96-11.96C35.58-11.96 36.08-12.47 36.08-13.08C36.08-13.70 35.58-14.20 34.96-14.20L32.60-14.20C31.99-14.20 31.48-13.70 31.48-13.08C31.48-12.47 31.99-11.96 32.60-11.96ZM30.89-4.34C31.34-3.90 32.04-3.90 32.47-4.34C32.91-4.77 32.89-5.48 32.46-5.92L30.80-7.59C30.38-8.02 29.65-8.03 29.21-7.59C28.78-7.16 28.79-6.43 29.23-6ZM16.30 3.20L13.82 3.20L14.85 1.24C14.98 0.98 14.87 0.80 14.61 0.80L11.81 0.80C11.48 0.80 11.38 0.91 11.27 1.15L9.73 4.66C9.61 4.95 9.73 5.13 10.03 5.13L12.08 5.13L10.55 8.86C10.48 9.02 10.51 9.14 10.62 9.19C10.72 9.23 10.85 9.20 10.98 9.07L16.48 3.79C16.72 3.54 16.64 3.20 16.30 3.20Z" fill="currentColor"/>
</svg>