<svg xmlns="http://www.w3.org/2000/svg" viewBox="0 0 24 24" width="24" height="24">
  
  <path transform="matrix(0.8181527644614893, 0, 0, 0.8181527644614893, 0.28379674017257894, 18.922339405560884)" d="M14.32 3.76C21.07 3.76 26.54-1.71 26.54-8.46C26.54-15.21 21.07-20.68 14.32-20.68C7.57-20.68 2.10-15.21 2.10-8.46C2.10-1.71 7.57 3.76 14.32 3.76ZM14.32 1.08C9.05 1.08 4.78-3.19 4.78-8.46C4.78-13.73 9.05-18 14.32-18C19.59-18 23.86-13.73 23.86-8.46C23.86-3.19 19.59 1.08 14.32 1.08ZM10.73-7.04L17.39-7.04C19.17-7.04 20.52-8.40 20.52-10.11C20.52-11.87 19.11-13.17 17.27-13.17C16.59-14.51 15.36-15.33 13.79-15.33C11.75-15.33 10.08-13.78 9.84-11.77C8.84-11.44 8.12-10.58 8.12-9.45C8.12-8.10 9.11-7.04 10.73-7.04ZM11.48-4.05L12.13-5.17C12.27-5.41 12.20-5.78 11.92-5.93C11.66-6.08 11.31-5.98 11.17-5.72L10.52-4.62C10.38-4.36 10.46-4.01 10.73-3.86C11.00-3.70 11.34-3.81 11.48-4.05ZM17.52-4.05L18.16-5.17C18.30-5.41 18.22-5.78 17.95-5.93C17.68-6.08 17.34-5.98 17.20-5.72L16.56-4.62C16.42-4.36 16.49-4.01 16.77-3.86C17.03-3.70 17.38-3.81 17.52-4.05ZM14.51-4.05L15.14-5.16C15.28-5.41 15.21-5.77 14.94-5.92C14.67-6.07 14.33-5.96 14.19-5.71L13.55-4.61C13.41-4.35 13.48-4.00 13.76-3.84C14.02-3.69 14.37-3.80 14.51-4.05ZM10.07-1.78C10.49-1.78 10.84-2.13 10.84-2.57C10.84-2.99 10.49-3.34 10.07-3.34C9.64-3.34 9.28-2.99 9.28-2.57C9.28-2.13 9.64-1.78 10.07-1.78ZM16.10-1.78C16.52-1.78 16.88-2.13 16.88-2.57C16.88-2.99 16.52-3.34 16.10-3.34C15.67-3.34 15.32-2.99 15.32-2.57C15.32-2.13 15.67-1.78 16.10-1.78ZM13.09-1.78C13.51-1.78 13.86-2.13 13.86-2.55C13.86-2.99 13.51-3.34 13.09-3.34C12.66-3.34 12.30-2.99 12.30-2.55C12.30-2.13 12.66-1.78 13.09-1.78Z" fill="currentColor"/>
</svg>