<svg xmlns="http://www.w3.org/2000/svg" viewBox="0 0 24 24" width="24" height="24">
  <title>convertible.side.arrow.trianglehead.backward.fill</title>
  <path transform="matrix(0.45090268604139144, 0, 0, 0.45090268604139144, 0.6525759577278731, 16.941438178879572)" d="M37.08-17.34L37.03-19.02C40.02-19.27 43.13-18.35 45.42-17.31C45.97-17.06 46.63-17.31 46.89-17.86C47.12-18.42 46.86-19.09 46.30-19.31C43.90-20.41 40.41-21.45 36.96-21.23L36.91-22.80C36.89-23.72 36.28-23.92 35.61-23.43L31.86-20.68C31.28-20.27 31.30-19.66 31.89-19.27L35.75-16.66C36.47-16.20 37.08-16.44 37.08-17.34ZM37.92-13.45C36.15-13.77 34.56-13.90 32.53-13.77L21.53-13.09C22.98-14.17 24.43-15.15 26.23-16.14C27.64-16.97 26.46-19.02 24.93-18.19C22.02-16.61 19.32-14.81 17.02-12.87L9.01-11.37C5.03-10.63 2.99-8.74 2.99-5.48L2.99-3.73C2.99-1.77 3.87-0.80 5.82-0.56L7.96-0.32C7.83-0.74 7.75-1.39 7.75-1.91C7.75-4.77 10.05-7.08 12.93-7.08C15.80-7.08 18.11-4.77 18.11-1.91C18.11-1.51 18.06-1.09 17.99-0.77L32.47-0.77C32.39-1.10 32.33-1.50 32.33-1.91C32.33-4.77 34.64-7.08 37.51-7.08C40.38-7.08 42.69-4.61 42.69-1.73C42.69-1.52 42.68-1.38 42.66-1.18L43.71-1.29C46.15-1.54 47.34-2.89 47.34-5.41L47.34-7.70C47.34-10.65 46.22-11.93 43.43-12.45ZM12.93 1.77C14.98 1.77 16.62 0.15 16.62-1.91C16.62-3.95 14.98-5.58 12.93-5.58C10.88-5.58 9.25-3.95 9.25-1.91C9.25 0.15 10.88 1.77 12.93 1.77ZM37.51 1.77C39.56 1.77 41.20 0.15 41.20-1.91C41.20-3.95 39.56-5.58 37.51-5.58C35.46-5.58 33.83-3.95 33.83-1.91C33.83 0.15 35.46 1.77 37.51 1.77Z" fill="currentColor"/>
</svg>