<svg xmlns="http://www.w3.org/2000/svg" viewBox="0 0 24 24" width="24" height="24">
  
  <path transform="matrix(0.8181527644614893, 0, 0, 0.8181527644614893, 0.28379674017257894, 18.922339405560884)" d="M14.32-20.68C7.57-20.68 2.10-15.21 2.10-8.46C2.10-1.71 7.57 3.76 14.32 3.76C21.07 3.76 26.54-1.71 26.54-8.46C26.54-15.21 21.07-20.68 14.32-20.68ZM5.75-5.19L5.02-4.45C4.49-5.68 4.20-7.04 4.20-8.46C4.20-14.05 8.73-18.59 14.32-18.59C15.74-18.59 17.10-18.29 18.33-17.77L17.57-17.00C17.27-16.71 17.27-16.25 17.57-15.96C17.86-15.67 18.32-15.66 18.61-15.96L19.70-17.04C20.10-16.79 20.47-16.52 20.82-16.22L6.56-1.96C6.26-2.31 5.99-2.68 5.74-3.08L6.80-4.15C7.09-4.44 7.08-4.90 6.80-5.19C6.50-5.48 6.05-5.48 5.75-5.19ZM15.80-15.25L14.21-13.66C13.92-13.36 13.92-12.90 14.21-12.61C14.51-12.33 14.96-12.30 15.27-12.61L16.85-14.19C17.14-14.48 17.14-14.95 16.85-15.25C16.56-15.54 16.09-15.54 15.80-15.25ZM10.03-0.97L8.94 0.12C8.55-0.13 8.18-0.40 7.83-0.69L22.09-14.95C22.38-14.60 22.65-14.23 22.90-13.84L21.84-12.79C21.55-12.49 21.56-12.04 21.84-11.73C22.14-11.44 22.59-11.44 22.89-11.73L23.63-12.47C24.15-11.24 24.45-9.88 24.45-8.46C24.45-2.87 19.91 1.66 14.32 1.66C12.90 1.66 11.54 1.37 10.31 0.84L11.07 0.08C11.37-0.21 11.37-0.68 11.07-0.97C10.78-1.25 10.32-1.27 10.03-0.97ZM12.45-11.89L10.86-10.31C10.57-10.02 10.57-9.55 10.86-9.26C11.17-8.96 11.63-8.96 11.92-9.26L13.50-10.84C13.79-11.13 13.79-11.60 13.50-11.89C13.21-12.19 12.75-12.19 12.45-11.89ZM20.07-11.02L18.49-9.43C18.20-9.14 18.21-8.68 18.49-8.38C18.79-8.09 19.24-8.09 19.55-8.38L21.13-9.96C21.42-10.27 21.42-10.72 21.13-11.02C20.84-11.31 20.37-11.31 20.07-11.02ZM9.09-8.54L7.51-6.96C7.22-6.67 7.22-6.20 7.51-5.91C7.82-5.61 8.27-5.61 8.57-5.91L10.15-7.49C10.45-7.79 10.43-8.25 10.15-8.54C9.86-8.84 9.40-8.84 9.09-8.54ZM16.72-7.66L15.14-6.09C14.85-5.79 14.85-5.33 15.14-5.03C15.45-4.73 15.90-4.73 16.20-5.03L17.78-6.62C18.07-6.91 18.07-7.37 17.78-7.66C17.48-7.96 17.02-7.96 16.72-7.66ZM13.37-4.32L11.79-2.74C11.50-2.44 11.50-1.98 11.79-1.69C12.08-1.39 12.55-1.39 12.84-1.69L14.43-3.27C14.72-3.56 14.72-4.02 14.43-4.32C14.13-4.61 13.68-4.62 13.37-4.32Z" fill="currentColor"/>
</svg>