<svg xmlns="http://www.w3.org/2000/svg" viewBox="0 0 24 24" width="24" height="24">
  <title>cross.case.fill</title>
  <path transform="matrix(0.7105190119344991, 0, 0, 0.7105190119344991, -0.1232306411323898, 18.01165695253955)" d="M6.90 3.42L27.21 3.42C29.79 3.42 31.14 2.10 31.14-0.46L31.14-11.99C31.14-14.54 29.79-15.87 27.21-15.87L23.34-15.87L23.34-17.04C23.34-19.27 22.11-20.34 19.85-20.34L14.26-20.34C12.07-20.34 10.78-19.27 10.78-17.04L10.78-15.87L6.90-15.87C4.34-15.87 2.99-14.54 2.99-11.99L2.99-0.46C2.99 2.10 4.34 3.42 6.90 3.42ZM13.14-16.95C13.14-17.74 13.59-18.19 14.41-18.19L19.71-18.19C20.53-18.19 20.99-17.74 20.99-16.95L20.99-15.87L13.14-15.87ZM11.41-5.31L11.41-7.16C11.41-7.89 11.91-8.39 12.63-8.39L14.91-8.39L14.91-10.65C14.91-11.39 15.40-11.88 16.14-11.88L17.99-11.88C18.73-11.88 19.22-11.39 19.22-10.65L19.22-8.39L21.49-8.39C22.23-8.39 22.72-7.89 22.72-7.16L22.72-5.31C22.72-4.58 22.23-4.08 21.49-4.08L19.22-4.08L19.22-1.80C19.22-1.07 18.73-0.57 17.99-0.57L16.14-0.57C15.40-0.57 14.91-1.07 14.91-1.80L14.91-4.08L12.63-4.08C11.91-4.08 11.41-4.58 11.41-5.31Z" fill="currentColor"/>
</svg>