<svg xmlns="http://www.w3.org/2000/svg" viewBox="0 0 24 24" width="24" height="24">
  
  <path transform="matrix(0.9044338456103161, 0, 0, 0.9044338456103161, -0.6974032856385799, 19.64705882352941)" d="M6.96 2.60L21.12 2.60C23.72 2.60 25.09 1.23 25.09-1.34L25.09-15.57C25.09-18.14 23.72-19.51 21.12-19.51L6.96-19.51C4.37-19.51 2.99-18.14 2.99-15.57L2.99-1.34C2.99 1.23 4.37 2.60 6.96 2.60ZM7.18-0.01C6.15-0.01 5.60-0.53 5.60-1.61L5.60-15.29C5.60-16.37 6.15-16.90 7.18-16.90L20.91-16.90C21.91-16.90 22.49-16.37 22.49-15.29L22.49-1.61C22.49-0.53 21.91-0.01 20.91-0.01ZM11.11-3.26L14.05-3.26C17.32-3.26 19.17-5.14 19.17-8.54C19.17-11.92 17.34-13.80 14.05-13.80L11.11-13.80C10.24-13.80 9.80-13.28 9.80-12.39L9.80-4.68C9.80-3.79 10.23-3.26 11.11-3.26ZM12.19-5.14L12.19-11.92L13.69-11.92C15.63-11.92 16.64-10.77 16.64-8.53C16.64-6.25 15.64-5.14 13.69-5.14Z" fill="currentColor"/>
</svg>