<svg xmlns="http://www.w3.org/2000/svg" viewBox="0 0 24 24" width="24" height="24">
  
  <path transform="matrix(0.9044338456103161, 0, 0, 0.9044338456103161, -0.6974032856385799, 19.64705882352941)" d="M6.96 2.60L21.12 2.60C23.72 2.60 25.09 1.23 25.09-1.34L25.09-15.57C25.09-18.14 23.72-19.51 21.12-19.51L6.96-19.51C4.37-19.51 2.99-18.14 2.99-15.57L2.99-1.34C2.99 1.23 4.37 2.60 6.96 2.60ZM7.18-0.01C6.15-0.01 5.60-0.53 5.60-1.61L5.60-15.29C5.60-16.37 6.15-16.90 7.18-16.90L20.91-16.90C21.91-16.90 22.49-16.37 22.49-15.29L22.49-1.61C22.49-0.53 21.91-0.01 20.91-0.01ZM9.55-3.94C10.02-3.94 10.34-4.27 10.34-4.76L10.34-6.36L10.93-6.95L12.68-4.41C12.84-4.13 13.08-3.94 13.42-3.94C13.83-3.94 14.17-4.24 14.17-4.63C14.17-4.86 14.09-5.03 13.96-5.20L12.08-7.88L13.84-9.69C14.03-9.89 14.12-10.04 14.12-10.28C14.12-10.65 13.83-10.96 13.43-10.96C13.20-10.96 12.96-10.83 12.80-10.64L10.37-7.97L10.34-7.97L10.34-12.73C10.34-13.21 10.02-13.55 9.55-13.55C9.09-13.55 8.77-13.22 8.77-12.74L8.77-4.76C8.77-4.27 9.09-3.94 9.55-3.94ZM16.16-3.94C16.54-3.94 16.90-4.21 16.90-4.76L16.90-7.96C16.90-8.72 17.16-9.46 18.04-9.46C18.30-9.46 18.59-9.50 18.77-9.64C18.94-9.75 19.03-9.94 19.03-10.18C19.03-10.66 18.71-10.96 18.25-10.96C17.52-10.96 17.06-10.31 16.91-9.59L16.84-9.59L16.84-10.17C16.84-10.63 16.55-10.96 16.14-10.96C15.70-10.96 15.41-10.63 15.41-10.17L15.41-4.76C15.41-4.27 15.69-3.94 16.16-3.94ZM19.45-4.04C19.99-4.04 20.37-4.42 20.37-4.95C20.37-5.48 19.99-5.86 19.45-5.86C18.91-5.86 18.53-5.48 18.53-4.95C18.53-4.42 18.91-4.04 19.45-4.04Z" fill="currentColor"/>
</svg>