<svg xmlns="http://www.w3.org/2000/svg" viewBox="0 0 24 24" width="24" height="24">
  
  <path transform="matrix(0.8181527644614893, 0, 0, 0.8181527644614893, 0.28379674017257894, 18.922339405560884)" d="M14.32 3.76C21.07 3.76 26.54-1.71 26.54-8.46C26.54-15.21 21.07-20.68 14.32-20.68C7.57-20.68 2.10-15.21 2.10-8.46C2.10-1.71 7.57 3.76 14.32 3.76ZM14.32 1.08C9.05 1.08 4.78-3.19 4.78-8.46C4.78-13.73 9.05-18 14.32-18C19.59-18 23.86-13.73 23.86-8.46C23.86-3.19 19.59 1.08 14.32 1.08ZM9.82-3.94C10.28-3.94 10.61-4.27 10.61-4.76L10.61-6.36L11.20-6.95L12.94-4.41C13.11-4.13 13.34-3.94 13.69-3.94C14.09-3.94 14.44-4.24 14.44-4.63C14.44-4.86 14.36-5.03 14.23-5.20L12.35-7.88L14.10-9.69C14.30-9.89 14.39-10.04 14.39-10.28C14.39-10.65 14.09-10.96 13.70-10.96C13.45-10.96 13.22-10.83 13.07-10.64L10.63-7.97L10.61-7.97L10.61-12.73C10.61-13.21 10.28-13.55 9.82-13.55C9.36-13.55 9.04-13.22 9.04-12.74L9.04-4.76C9.04-4.27 9.36-3.94 9.82-3.94ZM16.43-3.94C16.80-3.94 17.17-4.21 17.17-4.76L17.17-7.96C17.17-8.72 17.43-9.46 18.30-9.46C18.56-9.46 18.84-9.50 19.03-9.64C19.21-9.75 19.30-9.94 19.30-10.18C19.30-10.66 18.98-10.96 18.52-10.96C17.78-10.96 17.32-10.31 17.18-9.59L17.10-9.59L17.10-10.17C17.10-10.63 16.80-10.96 16.39-10.96C15.97-10.96 15.68-10.63 15.68-10.17L15.68-4.76C15.68-4.27 15.96-3.94 16.43-3.94ZM19.71-4.04C20.25-4.04 20.64-4.42 20.64-4.95C20.64-5.48 20.25-5.86 19.71-5.86C19.17-5.86 18.80-5.48 18.80-4.95C18.80-4.42 19.17-4.04 19.71-4.04Z" fill="currentColor"/>
</svg>