<svg xmlns="http://www.w3.org/2000/svg" viewBox="0 0 24 24" width="24" height="24">
  <title>danishkronesign.bank.building</title>
  <path transform="matrix(0.7299686341602509, 0, 0, 0.7299686341602509, -0.18135158254918737, 18.18049615055603)" d="M4.88 1.52L28.63 1.52L28.63 0.57C28.63 0.02 28.30-0.30 27.76-0.30L27.14-0.30L27.14-13.02L28.13-13.02C28.90-13.02 29.36-13.59 29.36-14.17C29.36-14.59 29.11-14.98 28.61-15.27L18.32-21.20C17.82-21.49 17.27-21.66 16.75-21.66C16.22-21.66 15.67-21.49 15.18-21.20L4.89-15.27C4.37-14.98 4.15-14.59 4.15-14.17C4.15-13.59 4.59-13.02 5.38-13.02L6.38-13.02L6.38-0.30L5.74-0.30C5.20-0.30 4.88 0.02 4.88 0.57ZM8.46-0.30L8.46-14.64L16.38-19.08C16.49-19.14 16.63-19.17 16.75-19.17C16.88-19.17 17.00-19.14 17.12-19.08L25.04-14.64L25.04-0.30ZM12.52-4.41C12.95-4.41 13.25-4.72 13.25-5.18L13.25-6.69L13.82-7.24L15.46-4.85C15.62-4.58 15.83-4.41 16.16-4.41C16.55-4.41 16.88-4.69 16.88-5.06C16.88-5.29 16.79-5.43 16.68-5.60L14.91-8.12L16.55-9.83C16.73-10.03 16.83-10.16 16.83-10.38C16.83-10.75 16.55-11.03 16.17-11.03C15.95-11.03 15.73-10.91 15.57-10.73L13.28-8.21L13.25-8.21L13.25-12.70C13.25-13.16 12.95-13.48 12.52-13.48C12.08-13.48 11.77-13.17 11.77-12.70L11.77-5.18C11.77-4.72 12.08-4.41 12.52-4.41ZM18.75-4.41C19.10-4.41 19.44-4.65 19.44-5.18L19.44-8.20C19.44-8.92 19.69-9.61 20.52-9.62C20.77-9.62 21.04-9.66 21.21-9.80C21.36-9.89 21.46-10.07 21.46-10.30C21.46-10.76 21.16-11.03 20.72-11.03C20.03-11.03 19.59-10.42 19.45-9.74L19.38-9.74L19.38-10.29C19.38-10.72 19.11-11.03 18.71-11.03C18.32-11.03 18.04-10.72 18.04-10.29L18.04-5.18C18.04-4.72 18.30-4.41 18.75-4.41ZM21.86-4.50C22.36-4.50 22.72-4.86 22.72-5.37C22.72-5.87 22.36-6.22 21.86-6.22C21.34-6.22 20.99-5.87 20.99-5.37C20.99-4.86 21.34-4.50 21.86-4.50ZM4.14 4.72L29.24 4.72C29.86 4.72 30.39 4.21 30.39 3.57C30.39 2.94 29.86 2.43 29.24 2.43L4.14 2.43C3.52 2.43 2.99 2.94 2.99 3.57C2.99 4.21 3.52 4.72 4.14 4.72Z" fill="currentColor"/>
</svg>