<svg xmlns="http://www.w3.org/2000/svg" viewBox="0 0 24 24" width="24" height="24">
  
  <path transform="matrix(0.6703325477873789, 0, 0, 0.6703325477873789, 2.7109190887666923, 17.97800471327573)" d="M20.25-10.95C22.95-10.95 24.73-12.69 24.73-15.29C24.73-16.49 24.25-17.61 23.81-18.56C23.12-20.04 22.03-21.81 21.07-23.30C20.82-23.65 20.55-23.84 20.25-23.84C19.95-23.84 19.69-23.65 19.43-23.30C18.47-21.81 17.39-20.04 16.70-18.56C16.27-17.61 15.79-16.49 15.79-15.29C15.79-12.69 17.57-10.95 20.25-10.95ZM6.52 6C7.22 6 7.70 5.52 7.70 4.83L7.70 3.67L17.33 3.67L17.33 4.83C17.33 5.52 17.81 6 18.50 6C19.21 6 19.69 5.52 19.69 4.83L19.69 3.56C21.15 3.21 22.04 2.05 22.04 0.36L22.04-9.47C21.33-9.28 20.93-9.23 20.25-9.23C16.63-9.23 14.07-11.74 14.07-15.29C14.07-16.91 14.70-18.29 15.15-19.27C15.82-20.71 16.42-21.68 17.18-22.93L6.33-22.93C4.29-22.93 2.99-21.66 2.99-19.63L2.99 0.36C2.99 2.05 3.88 3.21 5.34 3.56L5.34 4.83C5.34 5.52 5.82 6 6.52 6ZM8.57-15.60C7.56-15.60 6.75-16.42 6.75-17.41C6.75-18.40 7.56-19.22 8.57-19.22C9.55-19.22 10.37-18.40 10.37-17.41C10.37-16.42 9.55-15.60 8.57-15.60ZM7.49-5.66C7.00-5.66 6.62-6.05 6.62-6.53C6.62-7.02 7.00-7.41 7.49-7.41L10.83-7.41C11.32-7.41 11.71-7.02 11.71-6.53C11.71-6.05 11.32-5.66 10.83-5.66ZM14.20-5.66C13.71-5.66 13.32-6.05 13.32-6.53C13.32-7.02 13.71-7.41 14.20-7.41L17.54-7.41C18.02-7.41 18.41-7.02 18.41-6.53C18.41-6.05 18.02-5.66 17.54-5.66ZM7.49-2.63C7.00-2.63 6.62-3 6.62-3.49C6.62-3.98 7.00-4.36 7.49-4.36L10.83-4.36C11.32-4.36 11.71-3.98 11.71-3.49C11.71-3 11.32-2.63 10.83-2.63ZM14.20-2.63C13.71-2.63 13.32-3 13.32-3.49C13.32-3.98 13.71-4.36 14.20-4.36L17.54-4.36C18.02-4.36 18.41-3.98 18.41-3.49C18.41-3 18.02-2.63 17.54-2.63ZM7.49 0.42C7.00 0.42 6.62 0.04 6.62-0.46C6.62-0.94 7.00-1.32 7.49-1.32L10.83-1.32C11.32-1.32 11.71-0.94 11.71-0.46C11.71 0.04 11.32 0.42 10.83 0.42ZM14.20 0.42C13.71 0.42 13.32 0.04 13.32-0.46C13.32-0.94 13.71-1.32 14.20-1.32L17.54-1.32C18.02-1.32 18.41-0.94 18.41-0.46C18.41 0.04 18.02 0.42 17.54 0.42Z" fill="currentColor"/>
</svg>