<svg xmlns="http://www.w3.org/2000/svg" viewBox="0 0 24 24" width="24" height="24">
  <title>delete.right.fill</title>
  <path transform="matrix(0.777879064114251, 0, 0, 0.777879064114251, -0.324521422060164, 18.572470373746583)" d="M6.96 2.60L17.06 2.60C18.79 2.60 19.90 2.14 21.02 0.89L27.46-6.02C28.38-7.04 28.70-7.71 28.70-8.46C28.70-9.21 28.38-9.87 27.46-10.89L21.04-17.84C19.91-19.09 18.79-19.50 17.06-19.50L6.96-19.50C4.37-19.50 2.99-18.13 2.99-15.56L2.99-1.17C2.99 1.41 4.37 2.60 6.96 2.60ZM9.90-3.46C9.22-3.46 8.70-3.98 8.70-4.68C8.70-4.98 8.82-5.29 9.06-5.51L11.98-8.43L9.06-11.36C8.82-11.58 8.70-11.88 8.70-12.19C8.70-12.87 9.22-13.39 9.90-13.39C10.25-13.39 10.54-13.27 10.77-13.04L13.69-10.14L16.62-13.05C16.86-13.30 17.14-13.41 17.48-13.41C18.15-13.41 18.69-12.88 18.69-12.20C18.69-11.88 18.57-11.60 18.33-11.36L15.41-8.43L18.32-5.52C18.56-5.30 18.68-4.99 18.68-4.68C18.68-3.98 18.15-3.46 17.47-3.46C17.12-3.46 16.82-3.57 16.58-3.81L13.69-6.71L10.79-3.81C10.56-3.57 10.25-3.46 9.90-3.46Z" fill="currentColor"/>
</svg>