<svg xmlns="http://www.w3.org/2000/svg" viewBox="0 0 24 24" width="24" height="24">
  
  <path transform="matrix(0.9044338456103161, 0, 0, 0.9044338456103161, -0.6974032856385799, 19.64705882352941)" d="M6.96 2.60L21.12 2.60C23.72 2.60 25.09 1.23 25.09-1.34L25.09-15.57C25.09-18.14 23.72-19.51 21.12-19.51L6.96-19.51C4.37-19.51 2.99-18.14 2.99-15.57L2.99-1.34C2.99 1.23 4.37 2.60 6.96 2.60ZM19.25-11.68C18.16-11.70 17.26-12.56 17.26-13.66C17.26-14.75 18.16-15.63 19.25-15.63C20.33-15.63 21.22-14.75 21.22-13.66C21.22-12.56 20.32-11.66 19.25-11.68ZM14.05-6.47C12.95-6.47 12.08-7.36 12.08-8.46C12.08-9.54 12.96-10.41 14.05-10.41C15.12-10.41 16.01-9.54 16.01-8.46C16.01-7.36 15.13-6.47 14.05-6.47ZM8.84-1.25C7.75-1.25 6.87-2.14 6.87-3.25C6.87-4.32 7.75-5.20 8.84-5.20C9.91-5.20 10.80-4.32 10.80-3.25C10.80-2.14 9.91-1.25 8.84-1.25Z" fill="currentColor"/>
</svg>