<svg xmlns="http://www.w3.org/2000/svg" viewBox="0 0 24 24" width="24" height="24">
  <title>digitalcrown.horizontal.arrow.clockwise.fill</title>
  <path transform="matrix(0.7184825158656448, 0, 0, 0.7184825158656448, 1.0627876393421185, 17.989042550338198)" d="M15.22-11.23C22.39-11.23 26.96-13.42 26.96-16.75C26.96-20.07 22.39-22.25 15.22-22.25C8.05-22.25 3.48-20.07 3.48-16.75C3.48-13.42 8.05-11.23 15.22-11.23ZM15.22-4.49C22.86-4.49 27.46-6.75 27.46-11.91L27.46-13.25C26.59-12.22 25.31-11.38 23.67-10.75L23.67-9.13C23.67-8.67 23.29-8.29 22.83-8.29C22.37-8.29 22.00-8.66 22.00-9.13L22.00-10.21C21.33-10.04 20.63-9.89 19.96-9.79L19.96-8.39C19.96-7.92 19.58-7.55 19.11-7.55C18.66-7.55 18.27-7.92 18.27-8.39L18.27-9.57C17.52-9.50 16.70-9.46 15.96-9.45L15.96-8.11C15.96-7.64 15.59-7.28 15.13-7.28C14.66-7.28 14.29-7.64 14.29-8.11L14.29-9.45C13.51-9.47 12.73-9.52 11.98-9.60L11.98-8.39C11.98-7.92 11.59-7.55 11.13-7.55C10.66-7.55 10.29-7.92 10.29-8.39L10.29-9.82C9.59-9.94 8.89-10.08 8.26-10.27L8.26-9.13C8.26-8.66 7.89-8.29 7.42-8.29C6.96-8.29 6.57-8.67 6.57-9.13L6.57-10.83C5.04-11.45 3.82-12.26 2.99-13.25L2.99-11.91C2.99-6.75 7.59-4.49 15.22-4.49ZM10.04 4.80L10.58 3.16C12.38 3.60 14.29 3.82 16.24 3.82C18.93 3.82 21.54 3.39 23.86 2.59C24.42 2.40 24.63 1.93 24.63 1.48C24.63 0.75 24.02 0.04 23.09 0.39C21.01 1.10 18.69 1.49 16.24 1.49C14.53 1.49 12.88 1.28 11.32 0.91L11.87-0.74C12.20-1.75 11.18-2.38 10.43-2.10L6.12-0.48C5.41-0.21 5.17 0.56 5.60 1.22L8.11 5.09C8.58 5.79 9.73 5.79 10.04 4.80Z" fill="currentColor"/>
</svg>