<svg xmlns="http://www.w3.org/2000/svg" viewBox="0 0 24 24" width="24" height="24">
  <title>digitalcrown.horizontal.arrow.counterclockwise</title>
  <path transform="matrix(0.7118892195388585, 0, 0, 0.7118892195388585, 1.1631551228791723, 18.02584989141579)" d="M15.22-4.24C22.86-4.24 27.46-6.50 27.46-11.66L27.46-16.50C27.46-20.18 22.66-22.51 15.22-22.51C7.79-22.51 2.99-20.18 2.99-16.50L2.99-11.66C2.99-6.50 7.59-4.24 15.22-4.24ZM15.22-13.01C9.41-13.01 5.60-14.41 5.60-16.50C5.60-18.57 9.41-19.98 15.22-19.98C21.04-19.98 24.86-18.57 24.86-16.50C24.86-14.41 21.04-13.01 15.22-13.01ZM8.95-10.27L8.95-11.18C9.49-11.04 10.05-10.92 10.64-10.83L10.64-9.53C10.64-9.07 11.02-8.68 11.48-8.68C11.94-8.68 12.33-9.07 12.33-9.53L12.33-10.62C12.95-10.56 13.61-10.52 14.29-10.50L14.29-9.25C14.29-8.79 14.66-8.41 15.13-8.41C15.59-8.41 15.96-8.79 15.96-9.25L15.96-10.50C16.64-10.51 17.30-10.55 17.93-10.61L17.93-9.53C17.93-9.07 18.30-8.68 18.77-8.68C19.23-8.68 19.61-9.07 19.61-9.53L19.61-10.80C20.20-10.89 20.77-11.00 21.29-11.13L21.29-10.27C21.29-9.80 21.67-9.42 22.14-9.42C22.59-9.42 22.97-9.81 22.97-10.27L22.97-11.63C23.67-11.88 24.30-12.18 24.86-12.50L24.86-11.66C24.86-8.20 21.20-6.84 15.22-6.84C9.25-6.84 5.60-8.20 5.60-11.66L5.60-12.50C6.09-12.21 6.66-11.94 7.28-11.70L7.28-10.27C7.28-9.81 7.65-9.42 8.12-9.42C8.58-9.42 8.95-9.80 8.95-10.27ZM5.17 1.48C5.17 1.93 5.39 2.40 5.94 2.59C8.26 3.39 10.88 3.82 13.56 3.82C15.52 3.82 17.44 3.60 19.22 3.16L19.77 4.80C20.07 5.79 21.22 5.79 21.69 5.09L24.20 1.22C24.63 0.56 24.39-0.21 23.70-0.48L19.37-2.10C18.63-2.38 17.61-1.75 17.93-0.74L18.48 0.91C16.92 1.28 15.28 1.49 13.56 1.49C11.12 1.49 8.80 1.10 6.71 0.39C5.78 0.04 5.17 0.75 5.17 1.48Z" fill="currentColor"/>
</svg>