<svg xmlns="http://www.w3.org/2000/svg" viewBox="0 0 24 24" width="24" height="24">
  <title>divide</title>
  <path transform="matrix(1.0104598381685415, 0, 0, 1.0104598381685415, -1.0195381882770866, 20.46654825340438)" d="M12.88-13.27C14.04-13.27 14.96-14.14 14.96-15.32C14.96-16.48 14.04-17.39 12.88-17.39C11.72-17.39 10.80-16.48 10.80-15.32C10.80-14.14 11.72-13.27 12.88-13.27ZM4.48-6.94L21.29-6.94C22.09-6.94 22.78-7.62 22.78-8.45C22.78-9.27 22.09-9.96 21.29-9.96L4.48-9.96C3.70-9.96 2.99-9.27 2.99-8.45C2.99-7.62 3.70-6.94 4.48-6.94ZM12.88 0.63C14.04 0.63 14.96-0.25 14.96-1.42C14.96-2.58 14.04-3.48 12.88-3.48C11.72-3.48 10.80-2.58 10.80-1.42C10.80-0.25 11.72 0.63 12.88 0.63Z" fill="currentColor"/>
</svg>