<svg xmlns="http://www.w3.org/2000/svg" viewBox="0 0 24 24" width="24" height="24">
  <title>document.on.document.fill</title>
  <path transform="matrix(0.6653671215074723, 0, 0, 0.6653671215074723, 1.7972709551656931, 17.63352826510721)" d="M23.59 0.42L23.89 0.42C26.04 0.42 27.68-0.81 27.68-3.54L27.68-14.55L21.05-14.55C19.88-14.55 19.11-15.32 19.11-16.48L19.11-23.50L12.79-23.50C10.28-23.50 8.87-22.10 8.87-19.63L8.87-19.15L10.75-19.15C12.70-19.15 14.05-18.69 15.35-17.39L22.00-10.75C23.25-9.50 23.59-7.99 23.59-6.15ZM21.42-16.21L27.46-16.21C27.41-16.62 27.11-17.00 26.63-17.48L22.03-22.22C21.59-22.68 21.19-22.99 20.78-23.03L20.78-16.86C20.78-16.41 20.96-16.21 21.42-16.21ZM6.93 6.56L17.86 6.56C20.43 6.56 21.80 5.18 21.80 2.59L21.80-6.39L13.35-6.39C11.86-6.39 11.11-7.14 11.11-8.63L11.11-17.36L6.93-17.36C4.36-17.36 2.99-15.98 2.99-13.39L2.99 2.59C2.99 5.19 4.35 6.56 6.93 6.56ZM13.56-8.18L21.57-8.18C21.43-8.71 21.11-9.22 20.57-9.77L14.46-15.96C13.91-16.52 13.43-16.90 12.90-17.06L12.90-8.85C12.90-8.41 13.13-8.18 13.56-8.18Z" fill="currentColor"/>
</svg>