<svg xmlns="http://www.w3.org/2000/svg" viewBox="0 0 24 24" width="24" height="24">
  
  <path transform="matrix(0.6108327368169888, 0, 0, 0.6108327368169888, 0.17465998568360774, 17.232641374373657)" d="M27.19-17.29C28.99-17.29 29.89-20.25 29.89-21.11C29.89-21.90 29.46-22.32 28.64-22.32L25.75-22.32C24.93-22.32 24.48-21.90 24.48-21.11C24.48-20.25 25.38-17.29 27.19-17.29ZM5.24 5.19L7.71 5.19C9.15 5.19 9.98 4.28 9.98 3.21C9.98 2.06 9.38 1.63 8.18 1.50C7.66 1.44 7.69 0.79 8.12 0.71C11.00 0.22 12.81-1.09 13.22-3.63C14.99-2.45 17.85-2.27 20.84-2.61C20.81-0.87 20.55 1.41 20.55 2.61C20.55 4.16 21.55 5.19 23.04 5.19L25.04 5.19C26.48 5.19 27.32 4.28 27.32 3.23C27.32 2.11 26.75 1.64 25.56 1.46C25.25 1.42 25.13 1.24 25.18 0.93C25.38-0.18 26.05-2.67 26.45-3.86C27.28-6.34 28.44-7.97 28.44-10.58C28.44-11.66 28.72-12.32 28.96-12.62C29.88-12.08 30.56-11.78 31.50-11.78C33.62-11.78 35.73-13.91 35.73-16.18C35.73-17.43 34.71-17.46 33.54-18.21C32.51-18.89 31.90-19.80 30.93-20.34C30.61-18.71 29.37-16.17 27.19-16.17C25.86-16.17 24.88-17.13 24.26-18.22C23.33-16.96 22.93-15.96 20.46-15.11L10.28-14.33C10.04-14.31 9.84-14.24 9.70-14.19L8.85-15.21C7.30-17.07 4.86-14.84 6.40-13.07L7.35-11.99C6.86-10.83 6.60-9.42 6.60-7.68C6.60-4.96 6.41-4.25 5.66-3.66C3.73-2.11 2.99-1.10 2.99 0.61L2.99 2.85C2.99 4.23 3.94 5.19 5.24 5.19ZM31.55-16.03C31.11-16.03 30.79-16.36 30.79-16.78C30.79-17.21 31.11-17.52 31.55-17.52C31.96-17.52 32.29-17.21 32.29-16.78C32.29-16.36 31.96-16.03 31.55-16.03Z" fill="currentColor"/>
</svg>