<svg xmlns="http://www.w3.org/2000/svg" viewBox="0 0 24 24" width="24" height="24">
  
  <path transform="matrix(0.8181527644614893, 0, 0, 0.8181527644614893, 0.28379674017257894, 18.922339405560884)" d="M14.32 3.76C21.07 3.76 26.54-1.71 26.54-8.46C26.54-15.21 21.07-20.68 14.32-20.68C7.57-20.68 2.10-15.21 2.10-8.46C2.10-1.71 7.57 3.76 14.32 3.76ZM14.32 1.08C9.05 1.08 4.78-3.19 4.78-8.46C4.78-13.73 9.05-18 14.32-18C19.59-18 23.86-13.73 23.86-8.46C23.86-3.19 19.59 1.08 14.32 1.08ZM13.32-4.51C14.29-4.51 15.21-4.88 15.66-5.75L15.69-5.75L15.70-5.16C15.74-4.70 16.08-4.41 16.54-4.41C17.05-4.41 17.37-4.75 17.37-5.26L17.37-12.48L18.21-12.48C18.41-12.48 18.57-12.63 18.57-12.83C18.57-13.03 18.41-13.18 18.21-13.18L17.37-13.18L17.36-13.55C17.32-14.04 17.02-14.31 16.52-14.31C16.02-14.31 15.70-14.04 15.67-13.55L15.67-13.18L13.58-13.18C13.38-13.18 13.23-13.03 13.23-12.83C13.23-12.63 13.38-12.48 13.58-12.48L15.67-12.48L15.67-10.23L15.61-10.23C15.23-11.10 14.30-11.47 13.32-11.47C11.52-11.47 10.20-10.08 10.20-8.00C10.20-6.04 11.44-4.51 13.32-4.51ZM13.83-5.91C12.66-5.91 11.93-6.81 11.93-8.00C11.93-9.26 12.71-10.11 13.83-10.11C14.98-10.11 15.67-9.15 15.67-8.00C15.67-6.79 14.91-5.91 13.83-5.91ZM10.78-3.32C10.78-3.11 10.95-2.95 11.16-2.95L17.33-2.95C17.53-2.95 17.71-3.11 17.71-3.32C17.71-3.53 17.53-3.68 17.33-3.68L11.16-3.68C10.95-3.68 10.78-3.53 10.78-3.32Z" fill="currentColor"/>
</svg>