<svg xmlns="http://www.w3.org/2000/svg" viewBox="0 0 24 24" width="24" height="24">
  
  <path transform="matrix(0.8537602134400534, 0, 0, 0.8537602134400534, -0.5512756378189096, 19.208604302151077)" d="M4.29-12.07C5.14-12.07 5.60-12.54 5.60-13.39L5.60-15.95C5.60-17.03 6.15-17.54 7.18-17.54L9.79-17.54C10.64-17.54 11.11-18.01 11.11-18.86C11.11-19.70 10.64-20.16 9.79-20.16L6.96-20.16C4.37-20.16 2.99-18.80 2.99-16.22L2.99-13.39C2.99-12.54 3.46-12.07 4.29-12.07ZM25.11-12.07C25.96-12.07 26.41-12.54 26.41-13.39L26.41-16.22C26.41-18.79 25.04-20.16 22.44-20.16L19.62-20.16C18.76-20.16 18.29-19.70 18.29-18.86C18.29-18.01 18.76-17.54 19.62-17.54L22.22-17.54C23.24-17.54 23.80-17.03 23.80-15.95L23.80-13.39C23.80-12.54 24.27-12.07 25.11-12.07ZM14.71-4.50C16.90-4.50 18.67-6.27 18.67-8.46C18.67-10.65 16.90-12.43 14.71-12.43C12.52-12.43 10.75-10.65 10.75-8.46C10.75-6.27 12.52-4.50 14.71-4.50ZM6.96 3.27L9.79 3.27C10.64 3.27 11.11 2.80 11.11 1.96C11.11 1.13 10.64 0.66 9.79 0.66L7.18 0.66C6.15 0.66 5.60 0.14 5.60-0.94L5.60-3.50C5.60-4.35 5.13-4.82 4.29-4.82C3.45-4.82 2.99-4.35 2.99-3.50L2.99-0.67C2.99 1.90 4.37 3.27 6.96 3.27ZM19.62 3.27L22.44 3.27C25.04 3.27 26.41 1.90 26.41-0.67L26.41-3.50C26.41-4.35 25.95-4.82 25.11-4.82C24.26-4.82 23.80-4.35 23.80-3.50L23.80-0.94C23.80 0.14 23.24 0.66 22.22 0.66L19.62 0.66C18.76 0.66 18.29 1.13 18.29 1.96C18.29 2.80 18.76 3.27 19.62 3.27Z" fill="currentColor"/>
</svg>