<svg xmlns="http://www.w3.org/2000/svg" viewBox="0 0 24 24" width="24" height="24">
  <title>dot.circle.viewfinder</title>
  <path transform="matrix(0.8537602134400534, 0, 0, 0.8537602134400534, -0.5512756378189096, 19.208604302151077)" d="M4.29-12.07C5.14-12.07 5.60-12.54 5.60-13.39L5.60-15.95C5.60-17.03 6.15-17.54 7.18-17.54L9.79-17.54C10.64-17.54 11.11-18.01 11.11-18.86C11.11-19.70 10.64-20.16 9.79-20.16L6.96-20.16C4.37-20.16 2.99-18.80 2.99-16.22L2.99-13.39C2.99-12.54 3.46-12.07 4.29-12.07ZM25.11-12.07C25.96-12.07 26.41-12.54 26.41-13.39L26.41-16.22C26.41-18.79 25.04-20.16 22.44-20.16L19.62-20.16C18.76-20.16 18.29-19.70 18.29-18.86C18.29-18.01 18.76-17.54 19.62-17.54L22.22-17.54C23.24-17.54 23.80-17.03 23.80-15.95L23.80-13.39C23.80-12.54 24.27-12.07 25.11-12.07ZM14.71-2.14C18.19-2.14 21.02-4.98 21.02-8.46C21.02-11.95 18.19-14.78 14.71-14.78C11.23-14.78 8.39-11.95 8.39-8.46C8.39-4.98 11.23-2.14 14.71-2.14ZM14.71-3.90C12.19-3.90 10.15-5.94 10.15-8.46C10.15-10.98 12.19-13.03 14.71-13.03C17.23-13.03 19.28-10.98 19.28-8.46C19.28-5.94 17.23-3.90 14.71-3.90ZM14.71-5.40C16.41-5.40 17.78-6.77 17.78-8.46C17.78-10.16 16.41-11.53 14.71-11.53C13.02-11.53 11.64-10.16 11.64-8.46C11.64-6.77 13.02-5.40 14.71-5.40ZM6.96 3.27L9.79 3.27C10.64 3.27 11.11 2.80 11.11 1.96C11.11 1.13 10.64 0.66 9.79 0.66L7.18 0.66C6.15 0.66 5.60 0.14 5.60-0.94L5.60-3.50C5.60-4.35 5.13-4.82 4.29-4.82C3.45-4.82 2.99-4.35 2.99-3.50L2.99-0.67C2.99 1.90 4.37 3.27 6.96 3.27ZM19.62 3.27L22.44 3.27C25.04 3.27 26.41 1.90 26.41-0.67L26.41-3.50C26.41-4.35 25.95-4.82 25.11-4.82C24.26-4.82 23.80-4.35 23.80-3.50L23.80-0.94C23.80 0.14 23.24 0.66 22.22 0.66L19.62 0.66C18.76 0.66 18.29 1.13 18.29 1.96C18.29 2.80 18.76 3.27 19.62 3.27Z" fill="currentColor"/>
</svg>