<svg xmlns="http://www.w3.org/2000/svg" viewBox="0 0 24 24" width="24" height="24">
  
  <path transform="matrix(0.8023820717755837, 0, 0, 0.8023820717755837, 0.08180535966149516, 18.760695815702867)" d="M5.81 2.91L23.89 2.91C25.98 2.91 27.32 1.37 27.32-0.52C27.32-1.09 27.16-1.69 26.85-2.25L17.79-18.04C17.14-19.18 16.01-19.76 14.86-19.76C13.70-19.76 12.56-19.17 11.92-18.04L2.86-2.24C2.54-1.69 2.39-1.09 2.39-0.52C2.39 1.37 3.73 2.91 5.81 2.91ZM14.86-1.82C12.84-1.82 11.50-3.12 11.50-5.09C11.50-6 11.88-6.88 12.23-7.61C12.75-8.71 13.56-10.01 14.26-11.10C14.44-11.37 14.64-11.50 14.86-11.50C15.09-11.50 15.28-11.37 15.46-11.10C16.16-10.01 16.97-8.71 17.48-7.62C17.84-6.89 18.22-6 18.22-5.09C18.22-3.12 16.88-1.82 14.86-1.82Z" fill="currentColor"/>
</svg>