<svg xmlns="http://www.w3.org/2000/svg" viewBox="0 0 24 24" width="24" height="24">
  
  <path transform="matrix(0.7821570424686831, 0, 0, 0.7821570424686831, 2.3895508707607704, 18.82859761686526)" d="M2.99-1.58C2.99 1.93 5.11 4.05 8.54 4.05C11.09 4.05 12.97 2.86 14.17 0.64L15.20-1.24C17.39-5.29 21.59-6.27 21.59-12.11C21.59-17.74 17.89-21.52 12.38-21.52C6.76-21.52 2.99-17.71 2.99-12.04ZM6.56-6.77L6.56-12.38C6.56-15.69 8.81-17.92 12.35-17.92C15.86-17.92 18.08-15.71 18.08-12.41C18.08-11.88 17.65-11.45 17.12-11.45C16.58-11.45 16.15-11.88 16.15-12.41C16.15-14.58 14.72-16.00 12.35-16.00C9.96-16.00 8.48-14.55 8.48-12.38L8.48-11.09L11.46-11.09C13.44-11.09 14.75-9.88 14.75-8.09C14.75-7.32 14.43-6.41 13.91-5.77L12.48-3.96C12.28-3.70 12-3.55 11.71-3.55C11.18-3.55 10.75-3.96 10.75-4.49C10.75-4.72 10.84-4.96 11.00-5.17L12.32-6.81C12.60-7.17 12.79-7.63 12.79-8.00C12.79-8.71 12.27-9.18 11.48-9.18L8.48-9.18L8.48-6.77C8.48-6.23 8.06-5.81 7.51-5.81C6.97-5.81 6.56-6.23 6.56-6.77Z" fill="currentColor"/>
</svg>