<svg xmlns="http://www.w3.org/2000/svg" viewBox="0 0 24 24" width="24" height="24">
  <title>earbuds.case</title>
  <path transform="matrix(0.6943314347708164, 0, 0, 0.6943314347708164, -0.07485760781122863, 17.870626525630595)" d="M8.99 1.25L25.80 1.25C29.57 1.25 31.79-0.83 31.79-4.37L31.79-10.71C31.79-15.76 29.39-18.16 24.33-18.16L10.46-18.16C5.39-18.16 2.99-15.76 2.99-10.71L2.99-4.37C2.99-0.83 5.23 1.25 8.99 1.25ZM10.42-15.55L24.36-15.55C27.60-15.55 29.10-14.16 29.19-11.05L5.60-11.05C5.70-14.16 7.20-15.55 10.42-15.55ZM8.99-1.35C6.60-1.35 5.60-2.27 5.60-4.37L5.60-9.61L29.19-9.61L29.19-4.37C29.19-2.27 28.20-1.35 25.80-1.35ZM15.06-5.91L19.72-5.91C20.33-5.91 20.75-6.33 20.75-6.94C20.75-7.54 20.33-7.96 19.72-7.96L15.06-7.96C14.48-7.96 14.03-7.54 14.03-6.94C14.03-6.33 14.48-5.91 15.06-5.91Z" fill="currentColor"/>
</svg>