<svg xmlns="http://www.w3.org/2000/svg" viewBox="0 0 24 24" width="24" height="24">
  <title>electronic.toll.collection</title>
  <path transform="matrix(0.6353933978654753, 0, 0, 0.6353933978654753, 0.10126582278481, 17.383469843633655)" d="M29.78 0.46C32.41 0.46 33.83-1.49 34.32-3.64C34.41-3.95 34.46-4.32 34.46-4.62C34.46-5.31 34.07-5.98 33.07-5.98C32.32-5.98 31.85-5.57 31.75-4.80C31.55-3.52 31.11-2.11 29.71-2.11C27.79-2.11 27.35-5.65 27.35-8.48C27.35-11.81 27.84-14.84 29.70-14.84C30.96-14.84 31.46-13.50 31.71-12.19C31.86-11.37 32.31-10.91 33.13-10.91C33.89-10.91 34.41-11.41 34.41-12.28C34.41-12.63 34.35-12.98 34.28-13.29C33.76-15.60 32.17-17.40 29.67-17.40C25.54-17.40 24.30-12.66 24.30-8.48C24.30-4.24 25.56 0.46 29.78 0.46ZM4.46 0.12L9.94 0.12C10.80 0.12 11.39-0.35 11.39-1.23C11.39-2.03 10.90-2.58 9.94-2.58L5.94-2.58L5.94-7.44L9.80-7.44C10.61-7.44 11.16-7.86 11.16-8.70C11.16-9.45 10.69-9.96 9.80-9.96L5.94-9.96L5.94-14.39L9.94-14.39C10.90-14.39 11.39-14.93 11.39-15.73C11.39-16.62 10.80-17.09 9.94-17.09L4.46-17.09C3.50-17.09 2.99-16.45 2.99-15.50L2.99-1.45C2.99-0.55 3.48 0.12 4.46 0.12ZM18.35 0.23C19.36 0.23 19.84-0.43 19.84-1.38L19.84-14.24L22.09-14.24C23.12-14.24 23.63-14.81 23.63-15.66C23.63-16.59 23.02-17.09 22.09-17.09L14.59-17.09C13.70-17.09 13.05-16.63 13.05-15.66C13.05-14.72 13.65-14.24 14.59-14.24L16.85-14.24L16.85-1.38C16.85-0.45 17.33 0.23 18.35 0.23Z" fill="currentColor"/>
</svg>