<svg xmlns="http://www.w3.org/2000/svg" viewBox="0 0 24 24" width="24" height="24">
  
  <path transform="matrix(0.7524985302763081, 0, 0, 0.7524985302763081, -0.24867724867724883, 17.82451499118166)" d="M10.51 4.79C11.03 4.79 11.41 4.56 12.02 4.01L16.36 0.11L23.95 0.11C27.50 0.11 29.57-1.98 29.57-5.48L29.57-14.66C29.57-18.18 27.50-20.27 23.95-20.27L8.59-20.27C5.05-20.27 2.99-18.18 2.99-14.66L2.99-5.48C2.99-1.97 5.13 0.11 8.46 0.11L9.34 0.11L9.34 3.47C9.34 4.28 9.77 4.79 10.51 4.79ZM16.28-13.25C15.33-13.25 14.57-14.02 14.57-14.98C14.57-15.93 15.33-16.69 16.28-16.69C17.23-16.69 18-15.93 18-14.98C18-14.02 17.23-13.25 16.28-13.25ZM16.28-8.36C15.33-8.36 14.57-9.13 14.57-10.08C14.57-11.03 15.33-11.80 16.28-11.80C17.23-11.80 18-11.03 18-10.08C18-9.13 17.23-8.36 16.28-8.36ZM16.28-3.47C15.33-3.47 14.57-4.23 14.57-5.18C14.57-6.14 15.33-6.90 16.28-6.90C17.23-6.90 18-6.14 18-5.18C18-4.23 17.23-3.47 16.28-3.47Z" fill="currentColor"/>
</svg>