<svg xmlns="http://www.w3.org/2000/svg" viewBox="0 0 24 24" width="24" height="24">
  <title>envelope.stack</title>
  <path transform="matrix(0.7219402143260011, 0, 0, 0.7219402143260011, -0.15736040609137047, 18.112521150592215)" d="M8.81-20.30L24.88-20.30C24.84-21.38 24.13-21.96 22.98-21.96L10.71-21.96C9.55-21.96 8.85-21.38 8.81-20.30ZM6.45-16.82L27.25-16.82C27.21-17.95 26.48-18.62 25.18-18.62L8.51-18.62C7.21-18.62 6.48-17.95 6.45-16.82ZM6.77 5.03L27.14 5.03C29.38 5.03 30.69 3.71 30.69 1.25L30.69-11.12C30.69-13.58 29.37-14.89 26.91-14.89L6.54-14.89C4.30-14.89 2.99-13.58 2.99-11.12L2.99 1.25C2.99 3.71 4.31 5.03 6.77 5.03ZM15.89-4.37L6.83-12.54L26.84-12.54L17.79-4.37C17.50-4.10 17.17-3.95 16.84-3.95C16.50-3.95 16.18-4.10 15.89-4.37ZM28.37-10.99L28.37 0.89L22.07-5.41L28.37-11.10C28.37-10.99 28.37-10.99 28.37-10.99ZM5.31-11.00C5.31-11.04 5.31-11.06 5.31-11.09L11.61-5.41L5.31 0.89ZM6.83 2.67C6.71 2.67 6.61 2.66 6.50 2.65L13.17-4.02L14.60-2.72C15.33-2.07 16.03-1.78 16.84-1.78C17.64-1.78 18.35-2.07 19.07-2.72L20.51-4.02L27.18 2.65C27.07 2.66 26.96 2.67 26.85 2.67Z" fill="currentColor"/>
</svg>