<svg xmlns="http://www.w3.org/2000/svg" viewBox="0 0 24 24" width="24" height="24">
  
  <path transform="matrix(0.6895622895622896, 0, 0, 0.6895622895622896, -0.06060606060606055, 17.826262626262626)" d="M6.96 1.97L28.28 1.97C30.62 1.97 31.99 0.60 31.99-1.97L31.99-14.93C31.99-17.50 30.61-18.87 28.02-18.87L6.70-18.87C4.37-18.87 2.99-17.50 2.99-14.93L2.99-1.97C2.99 0.60 4.37 1.97 6.96 1.97ZM16.49-7.86L6.97-16.44C7.01-16.44 7.01-16.44 7.01-16.44L28.01-16.44L18.49-7.86C18.16-7.57 17.84-7.43 17.48-7.43C17.14-7.43 16.80-7.57 16.49-7.86ZM29.57-14.82L29.57-2.36L22.96-8.96L29.57-14.91C29.57-14.82 29.57-14.82 29.57-14.82ZM5.41-14.84L5.41-14.91L12.02-8.95L5.41-2.36ZM7.01-0.47C6.88-0.47 6.76-0.47 6.64-0.49L13.65-7.50L15.16-6.14C15.91-5.46 16.64-5.16 17.48-5.16C18.33-5.16 19.07-5.46 19.82-6.14L21.33-7.50L28.34-0.49C28.22-0.47 28.10-0.47 27.97-0.47Z" fill="currentColor"/>
</svg>