<svg xmlns="http://www.w3.org/2000/svg" viewBox="0 0 24 24" width="24" height="24">
  
  <path transform="matrix(0.689005517426995, 0, 0, 0.689005517426995, 0.55470327008478, 17.829632620104967)" d="M16.61 4.35C24.74 4.35 31.13-2.03 31.13-9.70C31.13-13.76 29.36-17.40 26.84-19.79C25.73-20.81 24.55-21.27 22.92-21.27L10.29-21.27C8.67-21.27 7.48-20.81 6.38-19.79C3.87-17.40 2.10-13.76 2.10-9.70C2.10-2.03 8.47 4.35 16.61 4.35ZM12.84-13.02C11.61-13.02 10.62-14.03 10.62-15.23C10.62-16.45 11.61-17.45 12.84-17.45C14.05-17.45 15.05-16.45 15.05-15.23C15.05-14.03 14.05-13.02 12.84-13.02ZM20.37-13.02C19.15-13.02 18.15-14.03 18.15-15.23C18.15-16.45 19.15-17.45 20.37-17.45C21.60-17.45 22.59-16.45 22.59-15.23C22.59-14.03 21.60-13.02 20.37-13.02ZM9.06-6.69C7.38-6.69 6.01-8.05 6.01-9.74C6.01-11.43 7.38-12.79 9.06-12.79C10.75-12.79 12.12-11.43 12.12-9.74C12.12-8.05 10.75-6.69 9.06-6.69ZM16.61-6.69C14.93-6.69 13.56-8.05 13.56-9.74C13.56-11.43 14.93-12.79 16.61-12.79C18.29-12.79 19.65-11.43 19.65-9.74C19.65-8.05 18.29-6.69 16.61-6.69ZM24.15-6.69C22.46-6.69 21.09-8.05 21.09-9.74C21.09-11.43 22.46-12.79 24.15-12.79C25.83-12.79 27.20-11.43 27.20-9.74C27.20-8.05 25.83-6.69 24.15-6.69ZM12.84-0.29C11.16-0.29 9.79-1.65 9.79-3.34C9.79-5.03 11.16-6.40 12.84-6.40C14.52-6.40 15.89-5.03 15.89-3.34C15.89-1.65 14.52-0.29 12.84-0.29ZM20.37-0.29C18.69-0.29 17.32-1.65 17.32-3.34C17.32-5.03 18.69-6.40 20.37-6.40C22.05-6.40 23.43-5.03 23.43-3.34C23.43-1.65 22.05-0.29 20.37-0.29Z" fill="currentColor"/>
</svg>