<svg xmlns="http://www.w3.org/2000/svg" viewBox="0 0 24 24" width="24" height="24">
  <title>exclamationmark.bubble</title>
  <path transform="matrix(0.7524985302763081, 0, 0, 0.7524985302763081, -0.24867724867724883, 17.84656084656085)" d="M10.79 4.73C11.51 4.73 12.06 4.41 12.94 3.63L16.93 0.12L23.95 0.12C27.50 0.12 29.57-1.98 29.57-5.48L29.57-14.66C29.57-18.18 27.50-20.27 23.95-20.27L8.59-20.27C5.05-20.27 2.99-18.18 2.99-14.66L2.99-5.48C2.99-1.97 5.13 0.12 8.46 0.12L9.14 0.12L9.14 2.89C9.14 4.03 9.76 4.73 10.79 4.73ZM11.43 1.83L11.43-1.48C11.43-2.21 11.10-2.50 10.42-2.50L8.71-2.50C6.61-2.50 5.60-3.55 5.60-5.60L5.60-14.54C5.60-16.61 6.61-17.66 8.71-17.66L23.84-17.66C25.93-17.66 26.95-16.61 26.95-14.54L26.95-5.60C26.95-3.55 25.93-2.50 23.84-2.50L16.76-2.50C16.01-2.50 15.66-2.36 15.12-1.82ZM16.28-8.24C16.97-8.24 17.37-8.63 17.40-9.35L17.58-14.67C17.61-15.42 17.05-15.95 16.27-15.95C15.48-15.95 14.94-15.43 14.96-14.68L15.14-9.35C15.16-8.64 15.57-8.24 16.28-8.24ZM16.28-4.30C17.09-4.30 17.73-4.85 17.73-5.64C17.73-6.42 17.10-6.97 16.28-6.97C15.47-6.97 14.82-6.42 14.82-5.64C14.82-4.86 15.48-4.30 16.28-4.30Z" fill="currentColor"/>
</svg>