<svg xmlns="http://www.w3.org/2000/svg" viewBox="0 0 24 24" width="24" height="24">
  <title>exclamationmark.message.fill</title>
  <path transform="matrix(0.7096327096327096, 0, 0, 0.7096327096327096, 0.5114345114345114, 18.652806652806653)" d="M16.18 2.43C24.34 2.43 30.28-2.55 30.28-9.39C30.28-16.24 24.32-21.18 16.18-21.18C8.05-21.18 2.10-16.24 2.10-9.39C2.10-4.44 4.73-3.09 4.73-1.02C4.73-0.12 4.46 0.48 3.75 1.13C3.13 1.70 3.48 2.43 4.39 2.43C6.06 2.43 7.76 1.90 9.01 1.00C11.09 1.93 13.50 2.43 16.18 2.43ZM16.23-7.43C15.49-7.43 15.06-7.85 15.04-8.60L14.85-14.14C14.82-14.93 15.39-15.48 16.22-15.48C17.05-15.48 17.63-14.93 17.60-14.13L17.41-8.61C17.38-7.84 16.96-7.43 16.23-7.43ZM16.23-3.32C15.39-3.32 14.70-3.89 14.70-4.71C14.70-5.53 15.38-6.12 16.23-6.12C17.09-6.12 17.75-5.53 17.75-4.71C17.75-3.88 17.09-3.32 16.23-3.32Z" fill="currentColor"/>
</svg>