<svg xmlns="http://www.w3.org/2000/svg" viewBox="0 0 24 24" width="24" height="24">
  
  <path transform="matrix(0.7462469027838508, 0, 0, 0.7462469027838508, 0.39090511587232113, 18.18714473108876)" d="M7.48-13.64L23.64-13.64C24.75-13.64 25.77-13.38 26.64-12.94L23.98-19.07C23.25-20.75 21.80-21.69 19.84-21.69L11.27-21.69C9.32-21.69 7.88-20.75 7.15-19.07L4.49-12.94C5.36-13.38 6.36-13.64 7.48-13.64ZM5.24 3.33L12.86 3.33C13.30 4.37 14.34 5.11 15.55 5.11C16.76 5.11 17.80 4.37 18.25 3.33L25.88 3.33C26.51 3.33 27.04 2.80 27.04 2.17C27.04 1.52 26.51 1.00 25.88 1.00L18.25 1.00C17.94 0.32 17.40-0.23 16.71-0.53L16.71-3.08L23.64-3.08C26.31-3.08 28.13-4.89 28.13-7.54C28.13-10.18 26.31-12 23.64-12L7.48-12C4.80-12 2.99-10.18 2.99-7.54C2.99-4.89 4.80-3.08 7.48-3.08L14.39-3.08L14.39-0.53C13.71-0.23 13.16 0.32 12.86 1.00L5.24 1.00C4.59 1.00 4.07 1.52 4.07 2.17C4.07 2.80 4.59 3.33 5.24 3.33ZM22.16-7.54C22.16-8.31 22.84-8.98 23.63-8.98C24.40-8.98 25.08-8.31 25.08-7.54C25.08-6.73 24.40-6.11 23.63-6.08C22.84-6.08 22.16-6.71 22.16-7.54Z" fill="currentColor"/>
</svg>