<svg xmlns="http://www.w3.org/2000/svg" viewBox="0 0 24 24" width="24" height="24">
  <title>eyedropper.halffull</title>
  <path transform="matrix(0.7760687257862651, 0, 0, 0.7760687257862651, -0.09174773747079268, 18.330810715178515)" d="M21.87-7.39L22.25-7.79C22.93-8.50 22.95-9.33 22.23-10.04L21.93-10.36C23.84-12.02 25.86-12.14 27.22-13.52C29.09-15.40 28.68-18.16 27.18-19.66C25.70-21.18 22.93-21.56 21.02-19.72C19.64-18.36 19.52-16.34 17.86-14.41L17.55-14.73C16.86-15.45 16.01-15.43 15.30-14.75L14.89-14.37C14.09-13.59 14.18-12.84 14.93-12.11L15.39-11.65L6.96-3.21C3.09 0.66 4.46 0.86 2.70 3.27L3.98 4.64C6.35 2.87 6.79 4.38 10.66 0.53L19.15-7.90L19.62-7.43C20.37-6.68 21.09-6.59 21.87-7.39ZM11.91-4.32C11.53-4.73 11.61-5.11 12.01-5.52L16.75-10.29L17.82-9.21L13.05-4.44C12.69-4.07 12.23-3.97 11.91-4.32Z" fill="currentColor"/>
</svg>