<svg xmlns="http://www.w3.org/2000/svg" viewBox="0 0 24 24" width="24" height="24">
  <title>eyeglasses.slash</title>
  <path transform="matrix(0.5085419149781486, 0, 0, 0.5085419149781486, 0.933253873659118, 16.294915113504686)" d="M32.72 3.67C33.08 4.03 33.70 4.04 34.07 3.67C34.43 3.29 34.44 2.68 34.07 2.32L11.19-20.55C10.82-20.93 10.21-20.93 9.82-20.55C9.47-20.19 9.47-19.56 9.82-19.21ZM31.20-16.23C27.61-16.23 24.60-13.80 23.71-10.51L26.29-7.91C26.20-8.16 26.17-8.43 26.17-8.70C26.27-11.36 28.49-13.51 31.20-13.51C33.98-13.51 36.25-11.25 36.25-8.46C36.25-5.75 34.11-3.55 31.44-3.43C31.16-3.43 30.89-3.47 30.64-3.55L33.25-0.96C36.20-1.77 38.45-4.27 38.88-7.35L40.49-7.35C41.10-7.35 41.43-7.68 41.43-8.30L41.43-9.33C41.43-9.95 41.11-10.27 40.49-10.27L38.75-10.27C37.95-13.68 34.86-16.23 31.20-16.23ZM12.34-0.69C15.91-0.69 18.91-3.12 19.78-6.41C19.80-6.52 19.83-6.62 19.85-6.73L17.17-9.41C17.30-9.13 17.38-8.80 17.38-8.46C17.38-5.67 15.12-3.41 12.34-3.41C9.54-3.41 7.28-5.66 7.28-8.46C7.28-11.25 9.54-13.51 12.34-13.51C12.68-13.51 13.01-13.43 13.29-13.30L10.59-15.98C10.49-15.96 10.39-15.94 10.29-15.91C7.57-15.19 5.43-13.02 4.77-10.27L3.04-10.27C2.41-10.27 2.10-9.95 2.10-9.33L2.10-8.30C2.10-7.68 2.43-7.35 3.04-7.35L4.64-7.35C5.18-3.57 8.41-0.69 12.34-0.69Z" fill="currentColor"/>
</svg>