<svg xmlns="http://www.w3.org/2000/svg" viewBox="0 0 24 24" width="24" height="24">
  <title>f.cursive</title>
  <path transform="matrix(0.9719058466211086, 0, 0, 0.9719058466211086, 1.5330296127562648, 20.143507972665148)" d="M6.14 1.91C9 1.91 10.90 0.27 11.36-2.99L12.05-7.85L16.95-7.85C17.72-7.85 18.29-8.41 18.29-9.18C18.29-9.94 17.71-10.49 16.93-10.49L12.41-10.49L12.81-13.30C13.09-15.28 13.85-16.03 15.25-16.03C16.34-16.03 16.82-15.89 17.31-15.89C18.04-15.89 18.55-16.37 18.55-17.13C18.55-18.30 17.06-18.67 15.40-18.67C12.54-18.67 10.64-17.02 10.18-13.76L9.71-10.49L5.52-10.49C4.75-10.49 4.17-9.94 4.17-9.18C4.17-8.41 4.76-7.85 5.53-7.85L9.35-7.85L8.73-3.45C8.46-1.48 7.69-0.73 6.29-0.73C5.20-0.73 4.73-0.87 4.23-0.87C3.50-0.87 2.99-0.39 2.99 0.38C2.99 1.55 4.46 1.91 6.14 1.91Z" fill="currentColor"/>
</svg>