<svg xmlns="http://www.w3.org/2000/svg" viewBox="0 0 24 24" width="24" height="24">
  <title>f.square</title>
  <path transform="matrix(0.9044338456103161, 0, 0, 0.9044338456103161, -0.6974032856385799, 19.64705882352941)" d="M6.96 2.60L21.12 2.60C23.72 2.60 25.09 1.23 25.09-1.34L25.09-15.57C25.09-18.14 23.72-19.51 21.12-19.51L6.96-19.51C4.37-19.51 2.99-18.14 2.99-15.57L2.99-1.34C2.99 1.23 4.37 2.60 6.96 2.60ZM7.18-0.01C6.15-0.01 5.60-0.53 5.60-1.61L5.60-15.29C5.60-16.37 6.15-16.90 7.18-16.90L20.91-16.90C21.91-16.90 22.49-16.37 22.49-15.29L22.49-1.61C22.49-0.53 21.91-0.01 20.91-0.01ZM11.58-3.09C12.39-3.09 12.83-3.62 12.83-4.49L12.83-7.51L16.59-7.51C17.17-7.51 17.54-7.84 17.54-8.40C17.54-8.98 17.17-9.30 16.59-9.30L12.82-9.30L12.82-11.86L16.90-11.86C17.53-11.86 17.94-12.22 17.94-12.83C17.94-13.44 17.53-13.80 16.90-13.80L11.65-13.80C10.78-13.80 10.34-13.28 10.34-12.39L10.34-4.49C10.34-3.63 10.78-3.09 11.58-3.09Z" fill="currentColor"/>
</svg>