<svg xmlns="http://www.w3.org/2000/svg" viewBox="0 0 24 24" width="24" height="24">
  
  <path transform="matrix(0.7078667219687543, 0, 0, 0.7078667219687543, 2.904189133139776, 17.98506843633347)" d="M7.42 5.67L18.28 5.67C18.86 5.67 19.20 5.23 19.20 4.64C19.20 3.62 18.35 2.94 17.16 2.94L14.10 2.94L14.10-2.94C18.96-3.55 22.71-7.69 22.71-12.73C22.71-18.18 18.30-22.58 12.86-22.58C7.41-22.58 2.99-18.18 2.99-12.73C2.99-7.69 6.75-3.55 11.61-2.94L11.61 2.94L8.55 2.94C7.36 2.94 6.50 3.62 6.50 4.64C6.50 5.23 6.84 5.67 7.42 5.67ZM12.86-5.09C8.65-5.09 5.23-8.51 5.23-12.73C5.23-16.95 8.65-20.37 12.86-20.37C17.07-20.37 20.50-16.95 20.50-12.73C20.50-8.51 17.07-5.09 12.86-5.09ZM15.49-12.73C15.49-12.87 15.48-13.01 15.46-13.15L17.36-13.15C18.42-13.15 19.02-13.70 19.02-14.75C19.02-16.62 17.39-18.43 15.75-18.43C14.38-18.43 13.64-17.34 13.00-15.35C12.95-15.35 12.90-15.35 12.86-15.35C12.71-15.35 12.57-15.34 12.43-15.33L12.43-17.21C12.43-18.28 11.88-18.88 10.83-18.88C8.98-18.88 7.15-17.26 7.15-15.61C7.15-14.24 8.24-13.50 10.23-12.86C10.23-12.81 10.23-12.77 10.23-12.73C10.23-12.57 10.24-12.43 10.27-12.29L8.37-12.29C7.30-12.29 6.70-11.74 6.70-10.70C6.70-8.84 8.33-7.01 9.97-7.01C11.34-7.01 12.08-8.11 12.73-10.09C12.77-10.09 12.82-10.09 12.86-10.09C13.01-10.09 13.15-10.10 13.29-10.13L13.29-8.23C13.29-7.17 13.84-6.56 14.88-6.56C16.75-6.56 18.57-8.19 18.57-9.83C18.57-11.20 17.47-11.94 15.49-12.59C15.49-12.63 15.49-12.68 15.49-12.73ZM12.86-11.43C12.15-11.43 11.57-12.01 11.57-12.73C11.57-13.43 12.15-14.02 12.86-14.02C13.57-14.02 14.16-13.43 14.16-12.73C14.16-12.01 13.57-11.43 12.86-11.43Z" fill="currentColor"/>
</svg>