<svg xmlns="http://www.w3.org/2000/svg" viewBox="0 0 24 24" width="24" height="24">
  <title>fan.floor.fill</title>
  <path transform="matrix(0.7078667219687543, 0, 0, 0.7078667219687543, 2.904189133139776, 17.98506843633347)" d="M7.42 5.67L18.28 5.67C18.86 5.67 19.20 5.23 19.20 4.64C19.20 3.62 18.35 2.94 17.16 2.94L14.10 2.94L14.10-2.94C18.96-3.55 22.71-7.69 22.71-12.73C22.71-18.18 18.30-22.58 12.86-22.58C7.41-22.58 2.99-18.18 2.99-12.73C2.99-7.69 6.75-3.55 11.61-2.94L11.61 2.94L8.55 2.94C7.36 2.94 6.50 3.62 6.50 4.64C6.50 5.23 6.84 5.67 7.42 5.67ZM15.57-13.17C15.60-12.97 15.61-12.82 15.60-12.57C17.67-11.91 18.83-11.13 18.83-9.70C18.83-7.99 16.92-6.28 14.98-6.28C13.88-6.28 13.30-6.91 13.30-8.03L13.30-10.01C13.10-9.97 12.95-9.96 12.70-9.97C12.04-7.90 11.26-6.75 9.83-6.75C8.12-6.75 6.41-8.66 6.41-10.61C6.41-11.70 7.04-12.28 8.14-12.28L10.14-12.28C10.10-12.48 10.09-12.63 10.10-12.87C8.03-13.55 6.88-14.31 6.88-15.75C6.88-17.46 8.79-19.16 10.73-19.16C11.82-19.16 12.41-18.53 12.41-17.43L12.41-15.45C12.60-15.47 12.76-15.48 13.00-15.48C13.68-17.54 14.44-18.70 15.88-18.70C17.59-18.70 19.29-16.79 19.29-14.85C19.29-13.75 18.66-13.17 17.55-13.17ZM12.86-11.43C13.57-11.43 14.16-12.01 14.16-12.73C14.16-13.43 13.57-14.02 12.86-14.02C12.15-14.02 11.57-13.43 11.57-12.73C11.57-12.01 12.15-11.43 12.86-11.43Z" fill="currentColor"/>
</svg>