<svg xmlns="http://www.w3.org/2000/svg" viewBox="0 0 24 24" width="24" height="24">
  
  <path transform="matrix(0.7475543875018251, 0, 0, 0.7475543875018251, -0.2339027595269383, 18.250547525186157)" d="M7.82-18.53L24.90-18.53L24.90-18.67C24.90-20.46 23.43-21.33 21.42-21.33L11.31-21.33C9.38-21.33 7.82-20.46 7.82-18.67ZM10.28 4.61L22.44 4.61C24.23 4.61 25.11 3.77 25.11 1.93L25.11 0.09L25.95 0.09C28.39 0.09 29.74-1.21 29.74-3.66L29.74-13.01C29.74-15.46 28.39-16.76 25.95-16.76L6.77-16.76C4.42-16.76 2.99-15.46 2.99-13.01L2.99-3.66C2.99-1.21 4.34 0.09 6.77 0.09L7.61 0.09L7.61 1.93C7.61 3.77 8.48 4.61 10.28 4.61ZM10.03-11.05C9.66-11.05 9.43-11.27 9.43-11.65L9.43-12.79C9.43-13.16 9.66-13.37 10.03-13.37L11.16-13.37C11.53-13.37 11.75-13.16 11.75-12.79L11.75-11.65C11.75-11.27 11.53-11.05 11.16-11.05ZM13.91-11.05C13.54-11.05 13.31-11.27 13.31-11.65L13.31-12.79C13.31-13.16 13.54-13.37 13.91-13.37L15.04-13.37C15.41-13.37 15.63-13.16 15.63-12.79L15.63-11.65C15.63-11.27 15.41-11.05 15.04-11.05ZM17.79-11.05C17.43-11.05 17.20-11.27 17.20-11.65L17.20-12.79C17.20-13.16 17.43-13.37 17.79-13.37L18.93-13.37C19.29-13.37 19.51-13.16 19.51-12.79L19.51-11.65C19.51-11.27 19.29-11.05 18.93-11.05ZM21.67-11.05C21.29-11.05 21.08-11.27 21.08-11.65L21.08-12.79C21.08-13.16 21.29-13.37 21.67-13.37L22.80-13.37C23.17-13.37 23.40-13.16 23.40-12.79L23.40-11.65C23.40-11.27 23.17-11.05 22.80-11.05ZM10.03-7.07C9.66-7.07 9.43-7.28 9.43-7.65L9.43-8.79C9.43-9.16 9.66-9.39 10.03-9.39L11.16-9.39C11.53-9.39 11.75-9.16 11.75-8.79L11.75-7.65C11.75-7.28 11.53-7.07 11.16-7.07ZM13.91-7.07C13.54-7.07 13.31-7.28 13.31-7.65L13.31-8.79C13.31-9.16 13.54-9.39 13.91-9.39L15.04-9.39C15.41-9.39 15.63-9.16 15.63-8.79L15.63-7.65C15.63-7.28 15.41-7.07 15.04-7.07ZM17.79-7.07C17.43-7.07 17.20-7.28 17.20-7.65L17.20-8.79C17.20-9.16 17.43-9.39 17.79-9.39L18.93-9.39C19.29-9.39 19.51-9.16 19.51-8.79L19.51-7.65C19.51-7.28 19.29-7.07 18.93-7.07ZM21.67-7.07C21.29-7.07 21.08-7.28 21.08-7.65L21.08-8.79C21.08-9.16 21.29-9.39 21.67-9.39L22.80-9.39C23.17-9.39 23.40-9.16 23.40-8.79L23.40-7.65C23.40-7.28 23.17-7.07 22.80-7.07ZM10.70 2.39C10.18 2.39 9.91 2.13 9.91 1.61L9.91-2.45C9.91-2.98 10.18-3.22 10.70-3.22L22.03-3.22C22.55-3.22 22.80-2.98 22.80-2.45L22.80 1.61C22.80 2.13 22.55 2.39 22.03 2.39ZM12.80 0.59L20.04 0.59C20.60 0.59 21.05 0.14 21.05-0.43C21.05-0.98 20.60-1.44 20.04-1.44L12.80-1.44C12.22-1.44 11.78-0.98 11.78-0.43C11.78 0.14 12.22 0.59 12.80 0.59Z" fill="currentColor"/>
</svg>