<svg xmlns="http://www.w3.org/2000/svg" viewBox="0 0 24 24" width="24" height="24">
  <title>figure.australian.football</title>
  <path transform="matrix(0.694049071438254, 0, 0, 0.694049071438254, 0.7840101097066978, 17.917039446929646)" d="M20.85-17.57C22.32-17.57 23.53-18.76 23.53-20.25C23.53-21.73 22.32-22.93 20.85-22.93C19.36-22.93 18.16-21.73 18.16-20.25C18.16-18.76 19.36-17.57 20.85-17.57ZM7.90-5.05L14.77-5.05L21.12-4.16C23.54-3.81 25.31-4.89 25.31-7.21L25.31-11.41C25.31-11.58 25.49-11.65 25.61-11.53L26.68-10.44L26.68-6.39C26.68-5.66 27.30-5.05 28.02-5.05C28.75-5.05 29.33-5.66 29.33-6.39L29.33-10.99C29.33-11.34 29.21-11.68 28.95-11.94L25.93-14.93C25.02-15.83 23.85-16.35 22.56-16.35L10.77-16.35C10.04-16.35 9.43-15.74 9.43-15.02C9.43-14.29 10.03-13.70 10.77-13.70L19.83-13.70C20.16-13.70 20.37-13.46 20.37-13.16L20.37-7.71L7.90-7.71C7.15-7.71 6.56-7.13 6.56-6.39C6.56-5.66 7.16-5.05 7.90-5.05ZM4.23-10.35C5.81-8.78 7.62-8.95 8.31-9.62C8.98-10.32 9.04-11.99 7.45-13.58C5.85-15.18 4.17-15.13 3.48-14.43C2.80-13.73 2.64-11.98 4.23-10.35ZM23.07 5.50C23.59 6.01 24.42 6.01 24.93 5.50C25.45 4.99 25.44 4.16 24.93 3.63L21.02-0.33L22.34-2.87C21.89-2.84 21.42-2.87 20.94-2.93L19.11-3.19L18.14-0.52C17.96-0.04 18.07 0.49 18.46 0.88Z" fill="currentColor"/>
</svg>