<svg xmlns="http://www.w3.org/2000/svg" viewBox="0 0 24 24" width="24" height="24">
  <title>figure.sailing</title>
  <path transform="matrix(0.6942595912499012, 0, 0, 0.6942595912499012, -0.07464291916474375, 17.725081932304597)" d="M4.69 0.66L21.19 0.66L26.06-4.22C26.30-4.45 26.66-4.45 26.89-4.22L28.79-2.33L26.78-0.29C25.63 0.86 27.38 2.60 28.52 1.44L31.42-1.45C31.93-1.97 31.91-2.71 31.42-3.21L28.04-6.57C27.38-7.24 26.48-7.63 25.55-7.63L17.25-7.63L17.25-21.34C17.25-22.31 15.84-22.72 15.23-21.63L3.81-1.04C3.30-0.15 3.81 0.66 4.69 0.66ZM5.95-0.97C5.79-0.97 5.74-1.11 5.81-1.23L15.35-18.41C15.42-18.55 15.62-18.50 15.62-18.35L15.62-0.97ZM24.75-8.85C26.24-8.85 27.45-10.05 27.45-11.54C27.45-13.03 26.24-14.23 24.75-14.23C23.26-14.23 22.07-13.03 22.07-11.54C22.07-10.05 23.26-8.85 24.75-8.85ZM19.51-5.13C19.72-5.13 19.80-4.92 19.66-4.79L17.25-2.37L17.25-5.13ZM3.77 5.79L4.99 5.79C8.26 5.79 8.94 3.83 11.07 3.83C13.21 3.83 13.90 5.79 17.16 5.79C20.43 5.79 21.12 3.83 23.24 3.83C25.37 3.83 26.06 5.79 29.32 5.79L30.55 5.79C30.98 5.79 31.34 5.44 31.34 5.00C31.34 4.57 30.98 4.23 30.55 4.23L29.32 4.23C27.12 4.23 26.38 2.29 23.24 2.29C20.11 2.29 19.37 4.23 17.16 4.23C14.95 4.23 14.20 2.29 11.07 2.29C7.95 2.29 7.20 4.23 4.99 4.23L3.77 4.23C3.34 4.23 2.99 4.57 2.99 5.00C2.99 5.44 3.34 5.79 3.77 5.79Z" fill="currentColor"/>
</svg>