<svg xmlns="http://www.w3.org/2000/svg" viewBox="0 0 24 24" width="24" height="24">
  
  <path transform="matrix(0.8181527644614893, 0, 0, 0.8181527644614893, 0.28379674017257894, 18.922339405560884)" d="M14.32 3.76C21.07 3.76 26.54-1.71 26.54-8.46C26.54-15.21 21.07-20.68 14.32-20.68C7.57-20.68 2.10-15.21 2.10-8.46C2.10-1.71 7.57 3.76 14.32 3.76ZM14.32 1.08C9.05 1.08 4.78-3.19 4.78-8.46C4.78-13.73 9.05-18 14.32-18C19.59-18 23.86-13.73 23.86-8.46C23.86-3.19 19.59 1.08 14.32 1.08ZM13.62-0.90C13.92-0.76 14.33-0.84 14.52-1.21L16.04-4.28C16.18-4.54 16.21-4.85 15.91-5.16L14.11-6.95L16.45-8.13C16.56-8.18 16.66-8.16 16.75-8.07L20.04-4.79C20.31-4.52 20.73-4.55 20.96-4.79C21.22-5.05 21.22-5.47 20.96-5.73L16.11-10.59C15.89-10.80 15.66-10.95 15.34-10.95L12.94-10.95L11.39-12.49L11.84-12.93C12.56-13.08 13.61-13.35 14.11-13.86C15.04-14.79 15.07-15.52 14.45-16.13C13.85-16.73 13.11-16.71 12.20-15.79C11.68-15.27 11.41-14.23 11.26-13.49L10.34-12.56C10.05-12.28 10.10-11.88 10.36-11.65L12.21-9.80C12.33-9.68 12.49-9.61 12.67-9.61L13.75-9.61C13.79-9.61 13.80-9.55 13.77-9.53L12.62-8.95C11.52-8.41 11.25-6.91 12.39-6.08L14.65-4.43L13.34-1.80C13.17-1.48 13.30-1.07 13.62-0.90ZM13.90-15.55C14.19-15.27 14.11-14.99 13.55-14.43C13.23-14.12 12.63-13.96 12.15-13.82C12.28-14.31 12.45-14.89 12.77-15.21C13.34-15.77 13.58-15.86 13.90-15.55ZM17.92-10.30C18.68-10.30 19.30-10.93 19.30-11.70C19.30-12.46 18.68-13.08 17.92-13.08C17.14-13.08 16.52-12.46 16.52-11.70C16.52-10.93 17.14-10.30 17.92-10.30ZM7.63-4.02C7.63-3.64 7.93-3.35 8.29-3.35L11.43-3.35C11.71-3.35 11.93-3.55 12.05-3.79L12.73-5.13L12.05-5.63C11.66-5.91 11.52-6.09 11.46-6.22L10.93-4.68L8.29-4.68C7.93-4.68 7.63-4.38 7.63-4.02Z" fill="currentColor"/>
</svg>