<svg xmlns="http://www.w3.org/2000/svg" viewBox="0 0 24 24" width="24" height="24">
  
  <path transform="matrix(0.6592665393738899, 0, 0, 0.6592665393738899, 4.289671801228803, 17.55305902192203)" d="M4.30 6.74L10.45 6.74C11.25 6.74 11.63 6.34 11.75 5.66L12.79-0.04L17.48-0.04L16.54 5.17C16.38 6.08 16.99 6.67 17.66 6.74C18.29 6.80 19.00 6.49 19.15 5.66L20.34-1.00C20.52-1.98 19.93-2.59 19.22-2.66L14.96-3.14L15.33-7.10C15.34-7.30 15.48-7.42 15.66-7.42L19.08-7.42C19.79-7.42 20.40-8.02 20.40-8.74L20.40-15.50C20.40-16.04 20.06-16.52 19.57-16.72C19.08-16.93 18.52-16.83 18.13-16.44L17.45-15.76L16.79-16.36C17.09-16.77 16.99-17.30 16.63-17.63L10.29-23.33C9.88-23.71 9.28-23.67 8.89-23.25L8.31-22.57C7.95-22.16 7.96-21.59 8.39-21.19L14.70-15.52C15.08-15.16 15.59-15.19 15.97-15.50L16.62-14.93L11.38-9.68C10.77-9.07 10.38-8.31 10.29-7.36L9.25 4.10L4.30 4.10C3.56 4.10 2.99 4.68 2.99 5.41C2.99 6.15 3.56 6.74 4.30 6.74ZM10.25-11.47C11.73-11.47 12.93-12.67 12.93-14.17C12.93-15.63 11.73-16.84 10.25-16.84C8.77-16.84 7.56-15.63 7.56-14.17C7.56-12.67 8.77-11.47 10.25-11.47ZM17.81-12.43L17.81-10.02L15.38-10.02Z" fill="currentColor"/>
</svg>