<svg xmlns="http://www.w3.org/2000/svg" viewBox="0 0 24 24" width="24" height="24">
  <title>figure.golf.circle</title>
  <path transform="matrix(0.8181527644614893, 0, 0, 0.8181527644614893, 0.28379674017257894, 18.922339405560884)" d="M14.32 3.76C21.07 3.76 26.54-1.71 26.54-8.46C26.54-15.21 21.07-20.68 14.32-20.68C7.57-20.68 2.10-15.21 2.10-8.46C2.10-1.71 7.57 3.76 14.32 3.76ZM14.32 1.08C9.05 1.08 4.78-3.19 4.78-8.46C4.78-13.73 9.05-18 14.32-18C19.59-18 23.86-13.73 23.86-8.46C23.86-3.19 19.59 1.08 14.32 1.08ZM12.63-0.41C12.98-0.41 13.29-0.70 13.29-1.07L13.29-3.96L14.61-5.93C14.68-6.02 14.82-6 14.84-5.88L15.05-4.15C15.06-4.04 15.08-3.97 15.13-3.87L16.27-0.83C16.43-0.42 16.80-0.34 17.11-0.45C17.41-0.56 17.65-0.88 17.50-1.29L16.36-4.29L16.36-10.09C16.36-10.75 16.08-11.44 15.45-11.71L15.05-11.87C14.34-12.18 13.66-12.07 13.05-11.65L11.63-10.62L10.13-11.24L13.30-15.66L14.31-15.66C14.63-15.66 14.88-15.90 14.88-16.21C14.88-16.52 14.63-16.77 14.31-16.77L13.30-16.77C13.18-16.77 13.04-16.71 12.96-16.61L9.04-11.18C8.79-10.83 8.86-10.37 9.25-10.21L11.45-9.26C11.54-9.21 11.63-9.21 11.77-9.21L13.23-9.21C13.44-9.21 13.51-9.08 13.51-8.93L13.51-7.25L12.05-4.46C11.99-4.37 11.98-4.28 11.98-4.16L11.98-1.07C11.98-0.70 12.27-0.41 12.63-0.41ZM15.77-12.40C16.52-12.40 17.13-13.01 17.13-13.77C17.13-14.52 16.52-15.13 15.77-15.13C15.01-15.13 14.40-14.52 14.40-13.77C14.40-13.01 15.01-12.40 15.77-12.40Z" fill="currentColor"/>
</svg>