<svg xmlns="http://www.w3.org/2000/svg" viewBox="0 0 24 24" width="24" height="24">
  <title>figure.seated.side.left.windshield.front.and.heat.waves.air.distribution.upper</title>
  <path transform="matrix(0.5710105850824796, 0, 0, 0.5710105850824796, 2.05923972407278, 16.842356264303227)" d="M19.39-10.13C19.98-10.13 20.45-10.59 20.45-11.18L20.45-15.69L22.32-15.69C23.25-15.69 23.63-16.64 23.03-17.31L20.09-20.59C19.68-21.05 19.14-21.05 18.73-20.59L15.80-17.31C15.19-16.64 15.55-15.69 16.50-15.69L18.35-15.69L18.35-11.18C18.35-10.59 18.82-10.13 19.39-10.13ZM31.57-14.17C33.43-14.17 34.92-15.70 34.92-17.50C34.92-19.37 33.43-20.88 31.57-20.88C29.71-20.88 28.22-19.37 28.22-17.50C28.22-15.68 29.71-14.17 31.57-14.17ZM3.45-10.24C3.87-9.74 4.61-10.29 4.21-10.80C3.95-11.17 3.89-11.36 3.89-11.64C3.89-12.08 4.18-12.34 4.43-12.68C5.05-12.93 5.77-13.09 6.39-13.13C6.50-13.29 6.59-13.44 6.59-13.64C6.59-14.30 5.71-14.54 5.71-15.68C5.71-16.14 5.86-16.57 6.22-17.05C6.63-17.54 7.38-17.02 6.98-16.49C6.73-16.13 6.66-15.94 6.66-15.68C6.66-14.89 7.54-14.67 7.54-13.64C7.54-13.41 7.49-13.22 7.42-13.05C7.90-12.97 8.38-12.83 8.81-12.66C8.64-12.40 8.48-12.09 8.48-11.64C8.48-11.16 8.64-10.71 9.01-10.24C9.41-9.74 10.15-10.29 9.76-10.80C9.50-11.17 9.43-11.36 9.43-11.64C9.43-12.14 9.81-12.40 10.08-12.82L13.07-16.62C13.42-17.07 13.36-17.55 12.93-17.89C11.61-18.91 9.14-19.65 6.59-19.65C4.04-19.65 1.58-18.91 0.27-17.89C-0.18-17.55-0.22-17.06 0.13-16.62L3.25-12.63C3.08-12.39 2.94-12.08 2.94-11.64C2.94-11.16 3.09-10.71 3.45-10.24ZM3.28-12.60L3.25-12.63C3.50-13.01 3.82-13.25 3.82-13.64C3.82-14.30 2.94-14.54 2.94-15.68C2.94-16.14 3.09-16.57 3.46-17.05C3.87-17.54 4.62-17.02 4.21-16.49C3.95-16.13 3.89-15.94 3.89-15.68C3.89-14.89 4.76-14.67 4.76-13.64C4.76-13.22 4.61-12.93 4.43-12.68C4.27-12.61 4.10-12.54 3.96-12.47C3.71-12.35 3.46-12.38 3.28-12.60ZM9.22-12.47C9.09-12.53 8.95-12.60 8.81-12.66C9.07-13.02 9.38-13.27 9.38-13.64C9.38-14.30 8.48-14.54 8.48-15.68C8.48-16.14 8.64-16.57 9.01-17.05C9.42-17.54 10.16-17.02 9.76-16.49C9.50-16.13 9.43-15.94 9.43-15.68C9.43-14.89 10.31-14.67 10.31-13.64C10.31-13.29 10.21-13.03 10.08-12.82L9.90-12.60C9.74-12.39 9.47-12.35 9.22-12.47ZM6.21-10.24C6.62-9.74 7.38-10.29 6.98-10.80C6.73-11.17 6.66-11.36 6.66-11.64C6.66-12.22 7.18-12.48 7.42-13.05C7.13-13.10 6.84-13.13 6.59-13.13C6.53-13.13 6.46-13.13 6.39-13.13C6.13-12.76 5.71-12.40 5.71-11.64C5.71-11.16 5.86-10.71 6.21-10.24ZM11.77 3.49C12.45 4.18 13.57 4.14 14.39 3.29L19.64-2.13C19.83-2.33 19.96-2.37 20.24-2.26L24.23-0.75C26.87 0.23 29.53-0.73 30.74-2.92L33.27-7.52C34.31-9.43 33.97-11.34 32.19-12.32C30.45-13.28 28.64-12.56 27.59-10.64L24.18-4.44L21.32-5.50C19.80-6.05 18.53-5.87 17.32-4.61L11.88 1.03C11.07 1.86 11.16 2.88 11.77 3.49Z" fill="currentColor"/>
</svg>