<svg xmlns="http://www.w3.org/2000/svg" viewBox="0 0 24 24" width="24" height="24">
  
  <path transform="matrix(0.8181527644614893, 0, 0, 0.8181527644614893, 0.28379674017257894, 18.922339405560884)" d="M14.32 3.76C21.07 3.76 26.54-1.72 26.54-8.46C26.54-15.21 21.07-20.68 14.32-20.68C7.58-20.68 2.10-15.21 2.10-8.46C2.10-1.72 7.58 3.76 14.32 3.76ZM17.51-13.85C16.78-13.85 16.21-14.43 16.21-15.14C16.21-15.86 16.78-16.43 17.51-16.43C18.21-16.43 18.79-15.86 18.79-15.14C18.79-14.43 18.21-13.85 17.51-13.85ZM12.95-11.47C12.15-11.47 11.52-12.12 11.52-12.93C11.52-13.72 12.15-14.37 12.95-14.37C13.75-14.37 14.40-13.72 14.40-12.93C14.40-12.12 13.75-11.47 12.95-11.47ZM9.18-8.30L9.18-11.50C9.18-11.87 9.49-12.16 9.86-12.16C10.24-12.16 10.55-11.87 10.55-11.50L10.55-9.42L18.46-13.38C18.81-13.55 19.21-13.42 19.38-13.08C19.55-12.75 19.41-12.34 19.08-12.16L15.29-10.28C15.14-10.22 15.12-10.11 15.15-9.97L16.85-3.16C16.97-2.75 16.85-2.53 16.62-2.38L13.73-0.46C13.41-0.23 13.01-0.33 12.80-0.63C12.59-0.94 12.67-1.37 12.98-1.57L15.40-3.19L14.67-5.11L13.34-2.64C13.20-2.37 13.00-2.25 12.70-2.25L9.86-2.25C9.49-2.25 9.18-2.54 9.18-2.92C9.18-3.29 9.49-3.59 9.86-3.59L12.26-3.59L13.28-6.13L12.64-8.73C12.61-8.84 12.50-8.89 12.40-8.84L10.17-7.72C9.74-7.50 9.18-7.76 9.18-8.30Z" fill="currentColor"/>
</svg>