<svg xmlns="http://www.w3.org/2000/svg" viewBox="0 0 24 24" width="24" height="24">
  
  <path transform="matrix(0.8181527644614893, 0, 0, 0.8181527644614893, 0.28379674017257894, 18.922339405560884)" d="M14.32 3.76C21.07 3.76 26.54-1.71 26.54-8.46C26.54-15.21 21.07-20.68 14.32-20.68C7.57-20.68 2.10-15.21 2.10-8.46C2.10-1.71 7.57 3.76 14.32 3.76ZM14.32 1.08C9.05 1.08 4.78-3.19 4.78-8.46C4.78-13.73 9.05-18 14.32-18C19.59-18 23.86-13.73 23.86-8.46C23.86-3.19 19.59 1.08 14.32 1.08ZM14.58-12.81C15.33-12.81 15.95-13.42 15.95-14.19C15.95-14.95 15.33-15.57 14.58-15.57C13.80-15.57 13.18-14.95 13.18-14.19C13.18-13.42 13.80-12.81 14.58-12.81ZM19.61-10.84C19.98-10.84 20.29-11.13 20.29-11.51C20.29-11.88 19.98-12.18 19.61-12.18L13.28-12.18C12.64-12.18 12.12-11.85 11.82-11.29L9.05-5.73L7.50-7.27C7.23-7.54 6.82-7.52 6.56-7.27C6.30-7.00 6.29-6.59 6.56-6.33L8.79-4.09C9.07-3.81 9.52-3.84 9.75-4.18L11.58-6.86C11.67-7.00 11.85-7.01 11.98-6.91L14.23-5.20L14.23-2.09C14.23-1.71 14.51-1.42 14.87-1.42C15.25-1.42 15.55-1.71 15.55-2.09L15.55-5.54C15.55-5.72 15.48-5.88 15.35-6L13.18-8.19L14.36-10.51C14.46-10.73 14.64-10.84 14.87-10.84ZM19.27-9.33C19.27-8.70 19.99-8.19 20.87-8.19C21.76-8.19 22.49-8.70 22.49-9.33C22.49-9.96 21.76-10.46 20.87-10.46C19.99-10.46 19.27-9.96 19.27-9.33ZM15.82-8.02L18.05-8.02C18.41-8.02 18.70-8.32 18.70-8.67C18.70-9.05 18.41-9.35 18.05-9.35L16.10-9.35L15.19-10.27L14.94-10.27C14.88-10.27 14.87-10.25 14.85-10.21L14.34-9.22L15.36-8.21C15.48-8.09 15.64-8.02 15.82-8.02Z" fill="currentColor"/>
</svg>