<svg xmlns="http://www.w3.org/2000/svg" viewBox="0 0 24 24" width="24" height="24">
  <title>figure.indoor.soccer.circle.fill</title>
  <path transform="matrix(0.8181527644614893, 0, 0, 0.8181527644614893, 0.28379674017257894, 18.922339405560884)" d="M14.32 3.76C21.07 3.76 26.54-1.72 26.54-8.46C26.54-15.21 21.07-20.68 14.32-20.68C7.58-20.68 2.10-15.21 2.10-8.46C2.10-1.72 7.58 3.76 14.32 3.76ZM15.97-13.54C15.18-13.54 14.53-14.18 14.53-14.99C14.53-15.79 15.18-16.43 15.97-16.43C16.79-16.43 17.43-15.79 17.43-14.99C17.43-14.18 16.79-13.54 15.97-13.54ZM9.49-8.78C9.12-8.96 8.99-9.39 9.15-9.74L10.54-12.47C10.66-12.73 10.91-12.89 11.19-12.89L15.47-12.89C16.34-12.89 16.90-12.60 17.43-12.06L18.16-11.33L19.10-13.16C19.28-13.52 19.70-13.68 20.06-13.50C20.45-13.32 20.57-12.89 20.38-12.53L19.03-9.77C18.81-9.33 18.19-9.27 17.86-9.60L16.30-11.09C16.21-11.17 16.10-11.14 16.05-11.05L14.74-8.45L17.71-8.45C18.27-8.45 18.54-7.85 18.34-7.42L16.63-3.66C16.45-3.26 16.09-3.13 15.68-3.29C15.32-3.42 15.16-3.87 15.33-4.23L16.52-6.93L13.25-6.71C12.01-6.63 11.44-7.83 11.92-8.77L13.15-11.20C13.21-11.32 13.14-11.45 13.00-11.45L11.63-11.45L10.45-9.11C10.29-8.78 9.90-8.59 9.49-8.78ZM8.23-2.44C8.04-2.82 8.21-3.25 8.60-3.41L11.13-4.49L11.86-6.50C12.19-6.21 12.73-6.05 13.29-6.08L13.58-6.09L12.35-3.62C12.26-3.46 12.14-3.34 11.99-3.28L9.18-2.06C8.94-1.96 8.45-1.96 8.23-2.44ZM19.01-1.50C18.21-1.50 17.57-2.14 17.57-2.95C17.57-3.76 18.21-4.42 19.01-4.42C19.83-4.42 20.47-3.76 20.47-2.95C20.47-2.14 19.83-1.50 19.01-1.50Z" fill="currentColor"/>
</svg>