<svg xmlns="http://www.w3.org/2000/svg" viewBox="0 0 24 24" width="24" height="24">
  
  <path transform="matrix(0.7332306320619583, 0, 0, 0.7332306320619583, 2.1696699448180996, 19.170097279380176)" d="M4.85-15.52L4.85-18.42L6.62-18.42C7.52-18.42 7.93-19.34 7.32-20.02L4.58-23.07C4.18-23.52 3.64-23.54 3.25-23.07L0.49-20.02C-0.09-19.37 0.23-18.43 1.20-18.43L2.95-18.43L2.95-15.52C2.95-14.98 3.38-14.55 3.89-14.55C4.43-14.55 4.85-14.98 4.85-15.52ZM23.26-14.27C25.13-14.27 26.61-15.82 26.61-17.61C26.61-19.48 25.13-20.99 23.26-20.99C21.40-20.99 19.91-19.48 19.91-17.61C19.91-15.79 21.40-14.27 23.26-14.27ZM6.90-12.41L10.14-12.41L10.14-10.64C10.14-9.75 11.06-9.34 11.73-9.95L14.80-12.69C15.23-13.10 15.26-13.63 14.80-14.04L11.73-16.78C11.09-17.36 10.14-17.03 10.14-16.08L10.14-14.32L6.90-14.32C6.35-14.32 5.94-13.90 5.94-13.38C5.94-12.83 6.35-12.41 6.90-12.41ZM3.46 3.38C4.14 4.08 5.26 4.02 6.08 3.18L11.33-2.25C11.52-2.44 11.65-2.48 11.93-2.37L15.93-0.87C18.55 0.13 21.22-0.84 22.43-3.04L24.96-7.64C26.00-9.55 25.66-11.46 23.88-12.43C22.14-13.39 20.33-12.68 19.28-10.76L15.87-4.56L13.01-5.60C11.50-6.16 10.22-5.98 9.01-4.72L3.57 0.91C2.77 1.75 2.85 2.77 3.46 3.38ZM1.20-8.31C0.23-8.31-0.09-7.37 0.49-6.73L3.25-3.67C3.64-3.20 4.18-3.22 4.58-3.67L7.32-6.73C7.93-7.41 7.52-8.32 6.62-8.32L4.85-8.32L4.85-11.23C4.85-11.77 4.43-12.19 3.89-12.19C3.38-12.19 2.95-11.77 2.95-11.23L2.95-8.31Z" fill="currentColor"/>
</svg>