<svg xmlns="http://www.w3.org/2000/svg" viewBox="0 0 24 24" width="24" height="24">
  <title>figure.badminton</title>
  <path transform="matrix(0.6611696882994275, 0, 0, 0.6611696882994275, 1.678246696184423, 17.658874297497768)" d="M8.12 2.82L13.70 2.82C14.18 2.82 14.67 2.60 14.94 2.11L17.39-2.41C17.48-2.59 17.71-2.57 17.77-2.39L19.02 0.95L14.26 4.13C13.65 4.52 13.49 5.34 13.89 5.98C14.30 6.59 15.12 6.75 15.74 6.34L21.21 2.71C21.80 2.31 22.08 1.69 21.90 1.01L18.56-12.27C18.47-12.66 18.55-12.88 18.86-13.02L27.50-17.34C28.16-17.68 28.42-18.49 28.10-19.15C27.76-19.82 26.96-20.10 26.30-19.76L8.40-10.79L5.65-13.55C5.52-13.68 5.39-13.78 5.25-13.89L7.76-18.28C7.90-18.26 8.04-18.25 8.19-18.25C9.70-18.25 10.91-19.45 10.91-20.96C10.91-22.48 9.70-23.68 8.19-23.68C6.68-23.68 5.48-22.48 5.48-20.96C5.48-20.19 5.79-19.51 6.29-19.02L3.15-13.51C2.86-13.00 2.96-12.42 3.39-11.99L7.18-8.23C7.54-7.88 8.17-7.68 8.84-8.02L13.01-10.11C13.29-10.25 13.55-10.14 13.61-9.88L14.86-4.86L12.84 0.14L8.12 0.14C7.37 0.14 6.79 0.73 6.79 1.48C6.79 2.21 7.37 2.82 8.12 2.82ZM8.19-19.80C7.54-19.80 7.03-20.31 7.03-20.96C7.03-21.62 7.54-22.13 8.19-22.13C8.85-22.13 9.35-21.62 9.35-20.96C9.35-20.31 8.85-19.80 8.19-19.80ZM14.51-15.48C15.98-15.48 17.19-16.68 17.19-18.16C17.19-19.63 15.98-20.84 14.51-20.84C13.02-20.84 11.82-19.63 11.82-18.16C11.82-16.68 13.02-15.48 14.51-15.48Z" fill="currentColor"/>
</svg>