<svg xmlns="http://www.w3.org/2000/svg" viewBox="0 0 24 24" width="24" height="24">
  
  <path transform="matrix(0.6729758149316509, 0, 0, 0.6729758149316509, 3.282046791728342, 17.686119873817034)" d="M10.08-17.93C11.55-17.93 12.76-19.15 12.76-20.63C12.76-22.10 11.55-23.31 10.08-23.31C8.60-23.31 7.38-22.10 7.38-20.63C7.38-19.15 8.60-17.93 10.08-17.93ZM11.88 0.39C12.47 0.48 13.09 0.20 13.32-0.56L14.93-5.96C15.16-6.75 14.84-7.43 14.09-7.70L9.98-9.18L10.59-13.39C10.62-13.58 10.77-13.65 10.95-13.56L13.02-12.62C13.30-12.49 13.54-12.46 13.90-12.42L19.18-11.88C19.90-11.80 20.53-12.32 20.58-13.02C20.65-13.71 20.13-14.34 19.43-14.41L14.06-14.94L10.01-16.80C8.21-17.61 6.35-16.71 6.12-14.91L5.44-9.82C5.24-8.29 6.20-6.88 7.70-6.54L12.14-5.51L10.86-1.30C10.58-0.36 11.19 0.27 11.88 0.39ZM22.84-15.63C22.63-16.07 22.15-16.23 21.74-16.02C21.23-15.79 20.85-15.57 20.45-15.38C20.99-15.11 21.41-14.66 21.62-14.11C21.87-14.25 22.11-14.38 22.46-14.55C22.86-14.77 23.04-15.25 22.84-15.63ZM6.60 6.41L11.05 6.41C11.50 6.41 11.86 6.05 11.86 5.60L11.86 3.61L15.50 3.61C15.94 3.61 16.31 3.23 16.31 2.79L16.31 0.80L18.50 0.80C18.95 0.80 19.30 0.45 19.31 0L19.75-10.83C19.51-10.83 19.44-10.82 19.34-10.82C18.91-10.80 18.48-10.85 18.12-10.90L17.71-0.84L15.50-0.84C15.04-0.84 14.70-0.49 14.70-0.04L14.70 1.97L11.05 1.97C10.59 1.97 10.23 2.33 10.23 2.79L10.23 4.78L6.60 4.78C6.14 4.78 5.77 5.16 5.77 5.60C5.77 6.04 6.16 6.41 6.60 6.41ZM3.61 4.14C4.15 4.42 4.90 4.36 5.39 3.63L8.63-1.20C8.77-1.41 8.85-1.65 8.89-1.95L9.38-4.86L7.43-5.31C7.14-5.38 6.83-5.48 6.55-5.63L6.34-2.37L3.27 2.21C2.72 3.05 3.05 3.81 3.61 4.14Z" fill="currentColor"/>
</svg>