<svg xmlns="http://www.w3.org/2000/svg" viewBox="0 0 24 24" width="24" height="24">
  <title>figure.socialdance</title>
  <path transform="matrix(0.6697086185742496, 0, 0, 0.6697086185742496, -0.0034475233196538113, 17.723270278851842)" d="M25.61-16.85C27.01-16.85 28.15-18 28.15-19.39C28.15-20.80 27.01-21.94 25.61-21.94C24.21-21.94 23.06-20.80 23.06-19.39C23.06-18 24.21-16.85 25.61-16.85ZM11.18-16.35C12.59-16.35 13.72-17.50 13.72-18.89C13.72-20.30 12.59-21.43 11.18-21.43C9.79-21.43 8.64-20.30 8.64-18.89C8.64-17.50 9.79-16.35 11.18-16.35ZM4.22-13.16L6.69-12.96C6.84-12.95 6.94-12.84 6.94-12.68L6.94-8.14C6.94-7.22 7.24-6.29 7.80-5.57L10.73-1.82L9.25 3.15C9.04 3.86 9.43 4.61 10.13 4.79C10.79 4.98 11.54 4.66 11.77 3.90L13.41-1.59C13.44-1.68 13.45-1.76 13.45-1.85L17.91 3.79C18.35 4.35 19.20 4.45 19.75 4.00C20.32 3.53 20.41 2.72 19.97 2.16L11.85-8.12L12.22-11.72C12.25-11.94 12.43-12.04 12.61-11.94L15.42-10.54C15.62-10.43 15.97-10.35 16.28-10.35L20.85-10.35C21.14-10.35 21.47-10.46 21.69-10.65L23.73-12.42C23.89-12.56 24.09-12.49 24.16-12.30L25.30-9.19L20.50-7.86C19.97-7.72 19.57-7.28 19.52-6.71L18.98-1.36C18.90-0.49 19.65 0.07 20.30 0.07C20.96 0.07 21.54-0.42 21.61-1.11L22.04-5.46L25.24-5.94L23.67-2.80C23.48-2.43 23.39-2.00 23.55-1.62L25.80 4.02C26.10 4.75 26.89 5.00 27.52 4.75C28.18 4.48 28.52 3.71 28.25 3.04L26.26-1.93L28.99-5.82C29.71-6.83 29.98-8.12 29.75-9.32L29.33-11.67C29.29-11.92 29.48-12.09 29.73-12L31.13-11.53C32.16-11.18 32.94-11.84 32.85-12.87L32.29-18.54C32.21-19.28 31.55-19.80 30.84-19.73C30.13-19.65 29.59-19.00 29.66-18.27L30.02-14.66L26.77-15.75C25.35-16.22 23.84-15.96 22.68-14.96L20.37-12.97L16.43-12.97L12.81-14.78C12.25-15.07 11.70-15.22 11.07-15.27L6.08-15.64L7.24-19.10C7.48-19.80 7.10-20.55 6.41-20.78C5.73-21 4.98-20.64 4.76-19.95L3.06-14.89C2.79-14.07 3.36-13.22 4.22-13.16Z" fill="currentColor"/>
</svg>