<svg xmlns="http://www.w3.org/2000/svg" viewBox="0 0 24 24" width="24" height="24">
  
  <path transform="matrix(0.684582676219381, 0, 0, 0.684582676219381, 0.09467939637232892, 17.820277783257257)" d="M17.40-17.74C18.88-17.74 20.09-18.94 20.09-20.44C20.09-21.91 18.88-23.11 17.40-23.11C15.91-23.11 14.71-21.91 14.71-20.44C14.71-18.94 15.91-17.74 17.40-17.74ZM5.60-2.79L6.26-2.79C6.81-2.79 7.20-3.19 7.20-3.74L7.20-6.11L8.84-6.11L8.78-5.98C8.46-5.33 8.73-4.55 9.34-4.24C9.97-3.91 10.75-4.18 11.06-4.82L11.71-6.11L23.10-6.11L23.73-4.82C24.05-4.18 24.82-3.91 25.46-4.24C26.06-4.55 26.33-5.33 26.02-5.98L25.96-6.11L27.59-6.11L27.59-3.74C27.59-3.19 27.96-2.79 28.52-2.79L29.18-2.79C29.73-2.79 30.12-3.19 30.12-3.74L30.12-6.11L30.98-6.11C31.43-6.11 31.79-6.47 31.79-6.91C31.79-7.37 31.43-7.73 30.98-7.73L30.12-7.73L30.12-10.10C30.12-10.66 29.73-11.05 29.18-11.05L28.52-11.05C27.96-11.05 27.59-10.66 27.59-10.10L27.59-7.73L25.15-7.73L21.63-14.85C21.09-15.94 20.09-16.56 18.83-16.56L15.96-16.56C14.71-16.56 13.70-15.94 13.16-14.85L9.64-7.73L7.20-7.73L7.20-10.10C7.20-10.66 6.81-11.05 6.26-11.05L5.60-11.05C5.05-11.05 4.66-10.66 4.66-10.10L4.66-7.73L3.80-7.73C3.34-7.73 2.99-7.37 2.99-6.91C2.99-6.47 3.34-6.11 3.80-6.11L4.66-6.11L4.66-3.74C4.66-3.19 5.05-2.79 5.60-2.79ZM14.68-8.96L20.12-8.96L20.12-11.38C20.12-11.57 20.38-11.63 20.47-11.41L22.29-7.73L12.50-7.73L14.33-11.41C14.44-11.63 14.68-11.57 14.68-11.39ZM12.54 6.08C13.16 6.20 13.86 5.88 14.05 5.02L15.16-0.11L17.40-3.98L19.63-0.11L20.74 5.02C20.93 5.92 21.69 6.22 22.31 6.06C22.92 5.92 23.43 5.33 23.24 4.45L22.10-0.84C22.09-0.94 22.07-1.02 22.03-1.13L20.71-4.86L14.10-4.86L12.76-1.13C12.73-1.02 12.70-0.94 12.69-0.84L11.55 4.45C11.37 5.37 11.91 5.95 12.54 6.08Z" fill="currentColor"/>
</svg>