<svg xmlns="http://www.w3.org/2000/svg" viewBox="0 0 24 24" width="24" height="24">
  
  <path transform="matrix(0.6966622586476869, 0, 0, 0.6966622586476869, 2.7879694541364772, 17.91982114487878)" d="M12.38-17.47C13.85-17.47 15.06-18.69 15.06-20.17C15.06-21.64 13.85-22.85 12.38-22.85C10.90-22.85 9.68-21.64 9.68-20.17C9.68-18.69 10.90-17.47 12.38-17.47ZM4.32-13.77L8.17-13.77C8.32-13.77 8.43-13.65 8.41-13.50L8.05-8.50C7.91-6.64 9.01-5.50 10.57-5.17L15.50-4.14L16.56 1.16C16.72 1.93 17.51 2.31 18.09 2.19C18.82 2.05 19.29 1.35 19.14 0.63L17.92-5.51C17.81-6.02 17.38-6.39 16.90-6.55L13.11-7.73L13.44-12.32C13.46-12.60 13.73-12.70 13.95-12.53L15.79-11.00C16.01-10.82 16.30-10.70 16.62-10.70L22.15-10.70C22.89-10.70 23.46-11.30 23.46-12.01C23.46-12.75 22.89-13.32 22.15-13.32L17.09-13.32L14.46-15.52C13.78-16.09 13.15-16.41 12.16-16.41L6.09-16.41L7.43-20.86C7.64-21.56 7.24-22.29 6.55-22.50C5.85-22.71 5.10-22.31 4.90-21.61L3.06-15.47C2.80-14.61 3.22-13.77 4.32-13.77ZM9.48 5.80C10.10 5.99 10.89 5.71 11.13 4.92L12.96-1.17C13.01-1.35 13.02-1.55 13.02-1.73L13.02-3.39L10.31-3.96C10.25-3.97 10.20-3.98 10.14-4.00L10.38-1.75L8.60 4.17C8.40 4.85 8.80 5.59 9.48 5.80Z" fill="currentColor"/>
</svg>