<svg xmlns="http://www.w3.org/2000/svg" viewBox="0 0 24 24" width="24" height="24">
  <title>figure.seated.side.left.airbag.on</title>
  <path transform="matrix(0.7969477527463379, 0, 0, 0.7969477527463379, 0.20927870574446983, 18.81995589097056)" d="M9.33-8.46C12.84-8.46 15.60-11.36 15.60-14.73C15.60-18.27 12.84-21.11 9.33-21.11C5.82-21.11 2.99-18.27 2.99-14.73C2.99-11.36 5.82-8.46 9.33-8.46ZM23.26-14.14C25.13-14.14 26.60-15.68 26.60-17.47C26.60-19.35 25.13-20.86 23.26-20.86C21.40-20.86 19.91-19.35 19.91-17.47C19.91-15.66 21.40-14.14 23.26-14.14ZM21.15-1.43C21.69-1.85 22.23-2.53 22.70-3.40L24.96-7.51C26.02-9.41 25.68-11.34 23.87-12.29C22.14-13.27 20.34-12.54 19.28-10.62L16.99-6.49ZM3.46 3.52C4.14 4.21 5.26 4.15 6.08 3.30L11.33-2.11C11.52-2.31 11.65-2.34 11.93-2.24L16.15-0.64C17.13-0.28 18.19-0.32 18.97-0.47L15.74-4.46L13.01-5.47C11.50-6.02 10.22-5.85 9.01-4.58L3.57 1.05C2.78 1.89 2.85 2.89 3.46 3.52ZM23.77 3.62C24.32 3.19 24.36 2.52 23.85 1.90L21.15-1.43C20.51-0.98 19.77-0.66 18.97-0.47L22.08 3.35C22.59 3.98 23.23 4.05 23.77 3.62Z" fill="currentColor"/>
</svg>