<svg xmlns="http://www.w3.org/2000/svg" viewBox="0 0 24 24" width="24" height="24">
  <title>figure.snowboarding.circle</title>
  <path transform="matrix(0.8181527644614893, 0, 0, 0.8181527644614893, 0.28379674017257894, 18.922339405560884)" d="M14.32 3.76C21.07 3.76 26.54-1.71 26.54-8.46C26.54-15.21 21.07-20.68 14.32-20.68C7.57-20.68 2.10-15.21 2.10-8.46C2.10-1.71 7.57 3.76 14.32 3.76ZM14.32 1.08C9.05 1.08 4.78-3.19 4.78-8.46C4.78-13.73 9.05-18 14.32-18C19.59-18 23.86-13.73 23.86-8.46C23.86-3.19 19.59 1.08 14.32 1.08ZM16.56-12.33C17.32-12.33 17.94-12.94 17.94-13.71C17.94-14.47 17.32-15.09 16.56-15.09C15.79-15.09 15.16-14.47 15.16-13.71C15.16-12.94 15.79-12.33 16.56-12.33ZM11.66-4.14C11.98-3.95 12.41-4.04 12.61-4.36L14.11-6.77L15.68-6.69L14.67-5.09C14.47-4.77 14.57-4.31 14.91-4.14C15.23-3.95 15.63-4.03 15.84-4.36L17.44-6.91C17.72-7.36 17.48-7.93 16.86-8.00L14.17-8.30C13.93-8.33 13.85-8.57 13.97-8.74L15.07-10.42C15.14-10.51 15.27-10.54 15.36-10.48L19.44-8.03C19.76-7.84 20.20-7.93 20.39-8.25C20.58-8.59 20.47-9 20.16-9.20L12.07-14.06C11.94-14.13 11.82-14.14 11.68-14.14L9.11-14.14C8.73-14.14 8.41-13.84 8.41-13.48C8.41-13.10 8.73-12.79 9.11-12.79L11.51-12.79L12.61-12.13C12.73-12.06 12.76-11.93 12.69-11.82L11.29-9.73C10.52-8.59 11.14-7.08 12.55-6.87L11.44-5.09C11.24-4.77 11.33-4.34 11.66-4.14ZM10.03-2.50L18.56-2.50C19.27-2.50 19.86-2.65 20.32-3.05C20.55-3.25 20.53-3.49 20.39-3.67C20.27-3.84 20.02-3.91 19.76-3.73C19.45-3.49 19.14-3.38 18.56-3.38L10.03-3.38C9.47-3.38 9.15-3.49 8.84-3.73C8.60-3.89 8.37-3.86 8.21-3.70C8.06-3.54 8.03-3.25 8.27-3.05C8.73-2.65 9.33-2.50 10.03-2.50Z" fill="currentColor"/>
</svg>