<svg xmlns="http://www.w3.org/2000/svg" viewBox="0 0 24 24" width="24" height="24">
  <title>figure.climbing.circle</title>
  <path transform="matrix(0.8181527644614893, 0, 0, 0.8181527644614893, 0.28379674017257894, 18.922339405560884)" d="M14.32 3.76C21.07 3.76 26.54-1.71 26.54-8.46C26.54-15.21 21.07-20.68 14.32-20.68C7.57-20.68 2.10-15.21 2.10-8.46C2.10-1.71 7.57 3.76 14.32 3.76ZM14.32 1.08C9.05 1.08 4.78-3.19 4.78-8.46C4.78-13.73 9.05-18 14.32-18C19.59-18 23.86-13.73 23.86-8.46C23.86-3.19 19.59 1.08 14.32 1.08ZM7.97-9.50L11.03-9.50L12.83-7.86C12.91-7.79 12.87-7.68 12.76-7.68L10.71-7.68C10.51-7.68 10.31-7.64 10.17-7.50L7.89-5.20C7.63-4.92 7.62-4.52 7.89-4.24C8.16-3.98 8.58-3.98 8.84-4.24L10.89-6.29L13.07-5.93L13.07-4.79C13.07-3.75 13.82-3.09 14.77-3.09C15.07-3.09 15.35-3.16 15.60-3.30L15.60-0.64C15.60-0.41 15.80-0.21 16.03-0.21C16.27-0.21 16.46-0.41 16.46-0.64L16.46-4.29C16.49-4.30 16.50-4.31 16.51-4.32L18.42-6.23C18.54-6.35 18.62-6.53 18.62-6.70L18.62-9.53C18.62-9.94 18.48-10.29 18.23-10.54L14.52-14.23L14.52-12.32L16.03-10.82C16.14-10.71 16.14-10.61 16.03-10.50L14.38-8.85L13.95-9.15L13.95-16.36C13.95-16.62 13.73-16.80 13.50-16.80C13.27-16.80 13.07-16.61 13.07-16.36L13.07-9.77L11.67-10.75C11.55-10.83 11.45-10.85 11.26-10.85L7.97-10.85C7.59-10.85 7.29-10.56 7.29-10.18C7.29-9.82 7.59-9.50 7.97-9.50ZM19.00-11.29C19.76-11.29 20.38-11.91 20.38-12.68C20.38-13.43 19.76-14.05 19.00-14.05C18.23-14.05 17.61-13.43 17.61-12.68C17.61-11.91 18.23-11.29 19.00-11.29ZM17.03-8.00C17.13-8.10 17.26-8.05 17.26-7.91L17.26-6.97L16.46-6.18L16.46-7.45ZM13.95-4.79L13.95-5.85C14.55-5.88 15.14-6.14 15.60-6.59L15.60-5.31L15.56-5.27C15.32-5.03 15.30-4.65 15.50-4.39C15.36-4.14 15.11-3.97 14.77-3.97C14.27-3.97 13.95-4.24 13.95-4.79Z" fill="currentColor"/>
</svg>