<svg xmlns="http://www.w3.org/2000/svg" viewBox="0 0 24 24" width="24" height="24">
  
  <path transform="matrix(0.7382574528675967, 0, 0, 0.7382574528675967, -0.206120904076998, 19.14932291936653)" d="M28.44-16.04C28.83-15.68 29.44-15.68 29.81-16.04C30.16-16.41 30.18-17.03 29.80-17.40L27.07-20.13L28.30-21.38C28.97-22.07 28.54-22.96 27.68-22.99L23.55-23.23C22.96-23.25 22.58-22.88 22.62-22.28L22.85-18.18C22.90-17.26 23.84-16.90 24.47-17.53L25.71-18.77ZM6.34-14.27C8.20-14.27 9.69-15.79 9.69-17.61C9.69-19.48 8.20-20.99 6.34-20.99C4.48-20.99 2.99-19.48 2.99-17.61C2.99-15.82 4.48-14.27 6.34-14.27ZM19.31-16.95C19.31-17.87 18.39-18.25 17.73-17.65L14.66-14.91C14.21-14.50 14.21-13.97 14.66-13.56L17.73-10.82C18.38-10.22 19.31-10.59 19.31-11.52L19.31-13.28L23.85-13.28C24.40-13.28 24.82-13.70 24.82-14.23C24.82-14.77 24.40-15.19 23.85-15.19L19.31-15.19ZM26.13 3.38C26.75 2.77 26.84 1.75 26.03 0.91L20.59-4.72C19.38-5.98 18.11-6.16 16.59-5.60L13.73-4.56L10.32-10.76C9.27-12.68 7.46-13.39 5.72-12.43C3.94-11.46 3.60-9.55 4.64-7.64L7.17-3.04C8.38-0.84 11.04 0.13 13.68-0.87L17.67-2.37C17.94-2.48 18.08-2.44 18.27-2.25L23.52 3.18C24.34 4.02 25.46 4.08 26.13 3.38ZM28.30-7.10L27.07-8.34L29.80-11.07C30.18-11.46 30.16-12.07 29.81-12.43C29.44-12.81 28.83-12.81 28.44-12.43L25.71-9.70L24.47-10.95C23.84-11.59 22.90-11.21 22.85-10.31L22.62-6.20C22.58-5.60 22.96-5.23 23.55-5.26L27.68-5.48C28.54-5.53 28.97-6.42 28.30-7.10Z" fill="currentColor"/>
</svg>