<svg xmlns="http://www.w3.org/2000/svg" viewBox="0 0 24 24" width="24" height="24">
  <title>figure.seated.side.left.airbag.on.2</title>
  <path transform="matrix(0.6237788228414687, 0, 0, 0.6237788228414687, 0.13606493220117577, 17.338046368585992)" d="M9.33-8.46C12.84-8.46 15.60-11.36 15.60-14.73C15.60-18.27 12.84-21.11 9.33-21.11C5.82-21.11 2.99-18.27 2.99-14.73C2.99-11.36 5.82-8.46 9.33-8.46ZM23.26-14.14C25.13-14.14 26.60-15.68 26.60-17.47C26.60-19.35 25.13-20.86 23.26-20.86C21.40-20.86 19.91-19.35 19.91-17.47C19.91-15.66 21.40-14.14 23.26-14.14ZM21.15-1.43C21.69-1.85 22.23-2.53 22.70-3.40L24.96-7.51C26.02-9.41 25.68-11.34 23.87-12.29C22.14-13.27 20.34-12.54 19.28-10.62L16.99-6.49ZM28.54 3.98L34.15 3.98C34.69 3.98 35.05 3.61 35.05 3.09C35.05 2.58 34.68 2.21 34.15 2.21L30.55 2.21L30.55 2.18L32.88-0.21C33.84-1.15 34.51-2.04 34.51-3.18C34.51-4.90 33.14-6.04 31.00-6.04C29.40-6.04 27.98-5.17 27.62-3.90C27.59-3.71 27.55-3.56 27.55-3.40C27.55-2.87 27.91-2.51 28.45-2.51C28.93-2.51 29.20-2.77 29.41-3.15C29.66-3.75 30.16-4.30 31.02-4.30C31.90-4.30 32.48-3.80 32.48-3.06C32.48-2.39 31.93-1.80 31.32-1.18L27.98 2.17C27.70 2.44 27.55 2.72 27.55 3.06C27.55 3.62 27.93 3.98 28.54 3.98ZM3.46 3.52C4.14 4.21 5.26 4.15 6.08 3.30L11.33-2.11C11.52-2.31 11.65-2.34 11.93-2.24L16.15-0.64C17.13-0.28 18.19-0.32 18.97-0.47L15.74-4.46L13.01-5.47C11.50-6.02 10.22-5.85 9.01-4.58L3.57 1.05C2.78 1.89 2.85 2.89 3.46 3.52ZM23.77 3.62C24.32 3.19 24.36 2.52 23.85 1.90L21.15-1.43C20.51-0.98 19.77-0.66 18.97-0.47L22.08 3.35C22.59 3.98 23.23 4.05 23.77 3.62Z" fill="currentColor"/>
</svg>