<svg xmlns="http://www.w3.org/2000/svg" viewBox="0 0 24 24" width="24" height="24">
  
  <path transform="matrix(0.8181527644614893, 0, 0, 0.8181527644614893, 0.28379674017257894, 18.922339405560884)" d="M14.32 3.76C21.07 3.76 26.54-1.72 26.54-8.46C26.54-15.21 21.07-20.68 14.32-20.68C7.58-20.68 2.10-15.21 2.10-8.46C2.10-1.72 7.58 3.76 14.32 3.76ZM12.29-13.20C11.48-13.20 10.85-13.84 10.85-14.64C10.85-15.42 11.48-16.07 12.29-16.07C13.08-16.07 13.71-15.42 13.71-14.64C13.71-13.84 13.08-13.20 12.29-13.20ZM12.25-4.35C11.96-4.38 11.59-4.38 11.26-4.36L17.29-11.16L12.63-11.16C12.32-11.16 12.04-10.95 11.95-10.63L11.45-8.88L13.97-9.98C14.25-10.11 14.57-10.10 14.82-9.95L15.22-9.75L13.96-8.32L13.93-8.33L10.93-6.76C10.66-6.62 10.38-6.55 10.13-6.55C9.27-6.55 8.59-7.24 8.87-8.32L9.49-10.68C9.79-11.80 10.86-12.54 12.15-12.54L17.95-12.54C18.36-12.54 18.66-12.25 18.66-11.86C18.66-11.67 18.59-11.51 18.46-11.36ZM16.09-7.76L17.05-8.85L18.86-7.93C19.31-7.70 19.42-7.27 19.25-6.96C19.11-6.64 18.70-6.45 18.21-6.69ZM11.29-5.32L10.48-4.42L8.70-4.42C8.45-4.42 8.25-4.63 8.25-4.88C8.25-5.11 8.45-5.32 8.70-5.32ZM19.92-5.32C20.18-5.32 20.38-5.11 20.38-4.88C20.38-4.63 20.18-4.42 19.92-4.42L13.13-4.42L13.95-5.32ZM14.31-2.05C12.91-2.05 12.56-2.92 11.66-2.92C10.75-2.92 10.39-2.05 9-2.05L8.74-2.05C8.55-2.05 8.39-2.21 8.39-2.40C8.39-2.61 8.54-2.78 8.74-2.78L9-2.78C9.90-2.78 10.25-3.64 11.66-3.64C12.98-3.64 13.37-2.78 14.31-2.78C15.25-2.78 15.63-3.64 16.97-3.64C18.36-3.64 18.73-2.78 19.63-2.78L19.88-2.78C20.07-2.78 20.24-2.61 20.24-2.40C20.24-2.21 20.07-2.05 19.88-2.05L19.63-2.05C18.23-2.05 17.88-2.92 16.97-2.92C16.05-2.92 15.70-2.05 14.31-2.05Z" fill="currentColor"/>
</svg>