<svg xmlns="http://www.w3.org/2000/svg" viewBox="0 0 24 24" width="24" height="24">
  <title>figure.seated.seatbelt.left.drive.seats.1.2.fill</title>
  <path transform="matrix(0.6491427036050396, 0, 0, 0.6491427036050396, 0.06100518909842867, 17.505329082176058)" d="M10.28-15.34C11.78-15.34 12.98-16.59 12.98-18.05C12.98-19.56 11.78-20.79 10.28-20.79C8.77-20.79 7.57-19.56 7.57-18.05C7.57-16.57 8.77-15.34 10.28-15.34ZM25.21-16.32L30.04-16.32C30.41-16.32 30.48-16.72 30.20-16.91L28.07-18.39C27.76-18.59 27.48-18.59 27.19-18.39L25.04-16.91C24.76-16.72 24.82-16.32 25.21-16.32ZM14.44-12.95L16.73-15.49C17.17-15.98 17.13-16.52 16.71-16.88C16.30-17.23 15.80-17.24 15.34-16.72L12.75-13.82C13.37-13.59 13.96-13.30 14.44-12.95ZM24.93-12.98L24.93-9.98C24.93-9.12 25.56-8.47 26.43-8.47L28.84-8.47C29.70-8.47 30.34-9.12 30.34-9.98L30.34-12.98C30.34-13.84 29.70-14.48 28.84-14.48L26.43-14.48C25.56-14.48 24.93-13.84 24.93-12.98ZM5.05-5.27L12.75-13.82C12.02-14.09 11.19-14.21 10.28-14.21C6.77-14.21 4.70-12.53 4.70-9.70C4.70-9.02 4.73-8.11 4.84-7.18ZM15.49-5.27L15.70-7.18C15.82-8.11 15.86-9.02 15.86-9.70C15.86-11.07 15.36-12.18 14.44-12.95L8.41-6.23C9.04-6.33 9.66-6.36 10.28-6.36C12-6.36 13.73-6.13 15.49-5.27ZM21.45-4.27L21.45-1.27C21.45-0.41 22.08 0.23 22.95 0.23L25.36 0.23C26.21 0.23 26.86-0.41 26.86-1.27L26.86-4.27C26.86-5.13 26.21-5.78 25.36-5.78L22.95-5.78C22.08-5.78 21.45-5.13 21.45-4.27ZM28.39-4.27L28.39-1.27C28.39-0.41 29.03 0.23 29.88 0.23L32.30 0.23C33.16 0.23 33.80-0.41 33.80-1.27L33.80-4.27C33.80-5.13 33.16-5.78 32.30-5.78L29.88-5.78C29.03-5.78 28.39-5.13 28.39-4.27ZM3.46-4.31C2.91-3.93 2.89-3.35 3.14-2.98C3.39-2.61 3.88-2.45 4.39-2.77C4.68-2.96 4.96-3.14 5.26-3.30L5.05-5.27C4.48-5.00 3.95-4.70 3.46-4.31ZM7.34 3.82C8.09 3.71 8.59 3.19 8.48 2.25L8.00-2.20L12.54-2.20L12.06 2.25C11.96 3.19 12.46 3.71 13.22 3.82C13.98 3.89 14.57 3.42 14.66 2.51L15.28-3.30C15.59-3.14 15.88-2.96 16.15-2.77C16.66-2.45 17.14-2.60 17.39-2.96C17.65-3.33 17.65-3.91 17.09-4.31C16.59-4.70 16.07-5.00 15.49-5.27L15.28-3.30C13.70-4.22 11.95-4.57 10.28-4.57C8.59-4.57 6.83-4.22 5.26-3.30L5.88 2.51C5.98 3.42 6.56 3.89 7.34 3.82Z" fill="currentColor"/>
</svg>