<svg xmlns="http://www.w3.org/2000/svg" viewBox="0 0 24 24" width="24" height="24">
  <title>florinsign</title>
  <path transform="matrix(0.9502598366740905, 0, 0, 0.9502598366740905, 0.4910913140311819, 20.040089086859687)" d="M6.49 2.06C10.44 2.06 12.42 0.18 13.09-3.68L13.80-7.88L18.64-7.88C19.29-7.88 19.73-8.27 19.73-8.88C19.73-9.50 19.29-9.93 18.64-9.93L14.14-9.93L14.66-12.96C15.02-15.05 16.03-16.13 18.18-16.13C19.04-16.13 19.44-15.98 20.14-16.01C20.82-16.08 21.23-16.46 21.23-17.17C21.23-17.79 20.75-18.27 20.20-18.52C19.44-18.89 18.47-18.98 17.74-18.98C13.89-18.98 11.73-17.13 11.10-13.31L10.51-9.93L6.01-9.93C5.36-9.93 4.91-9.50 4.91-8.88C4.91-8.27 5.36-7.88 6.01-7.88L10.17-7.88L9.52-4.09C9.15-1.95 8.26-0.81 5.95-0.81C5.26-0.81 4.57-0.93 4.05-0.89C3.43-0.82 2.99-0.46 2.99 0.26C2.99 0.91 3.40 1.35 4.01 1.63C4.73 1.95 5.66 2.06 6.49 2.06Z" fill="currentColor"/>
</svg>