<svg xmlns="http://www.w3.org/2000/svg" viewBox="0 0 24 24" width="24" height="24">
  
  <path transform="matrix(0.7011777595179403, 0, 0, 0.7011777595179403, 0.816762530813476, 17.850451930977812)" d="M6.04-1.17L14.80-1.17L14.80 0.34L13.02 0.34C12.02 0.34 11.67 1.25 12.30 1.99L15.26 5.57C15.66 6.04 16.29 6.04 16.68 5.57L19.63 1.99C20.23 1.27 19.89 0.34 18.93 0.34L17.11 0.34L17.11-1.17L25.86-1.17C27.75-1.17 28.91-2.33 28.91-4.18L28.91-8.11C28.91-9.95 27.75-11.11 25.86-11.11L17.11-11.11L17.11-12.68L25.86-12.68C27.75-12.68 28.91-13.83 28.91-15.68L28.91-19.61C28.91-21.46 27.75-22.61 25.86-22.61L6.04-22.61C4.16-22.61 2.99-21.46 2.99-19.61L2.99-15.68C2.99-13.83 4.16-12.68 6.04-12.68L14.80-12.68L14.80-11.11L6.04-11.11C4.16-11.11 2.99-9.95 2.99-8.11L2.99-4.18C2.99-2.33 4.16-1.17 6.04-1.17Z" fill="currentColor"/>
</svg>