<svg xmlns="http://www.w3.org/2000/svg" viewBox="0 0 24 24" width="24" height="24">
  
  <path transform="matrix(0.8181527644614893, 0, 0, 0.8181527644614893, 0.28379674017257894, 18.922339405560884)" d="M14.32 3.76C21.07 3.76 26.54-1.71 26.54-8.46C26.54-15.21 21.07-20.68 14.32-20.68C7.57-20.68 2.10-15.21 2.10-8.46C2.10-1.71 7.57 3.76 14.32 3.76ZM14.32 1.08C9.05 1.08 4.78-3.19 4.78-8.46C4.78-13.73 9.05-18 14.32-18C19.59-18 23.86-13.73 23.86-8.46C23.86-3.19 19.59 1.08 14.32 1.08ZM11.94-1.14C12.49-1.14 12.84-1.45 12.83-1.98L12.71-9C12.71-9.25 12.79-9.38 13.00-9.48C13.85-9.86 14.24-10.27 14.18-11.44L13.99-15.19C13.97-15.49 13.80-15.68 13.54-15.68C13.27-15.68 13.10-15.48 13.10-15.18L13.16-11.52C13.16-11.30 13.01-11.16 12.81-11.16C12.60-11.16 12.45-11.30 12.45-11.51L12.40-15.29C12.40-15.59 12.21-15.76 11.94-15.76C11.67-15.76 11.50-15.59 11.50-15.29L11.43-11.51C11.43-11.30 11.29-11.16 11.07-11.16C10.88-11.16 10.73-11.30 10.73-11.52L10.79-15.18C10.79-15.48 10.63-15.68 10.36-15.68C10.08-15.68 9.90-15.49 9.89-15.19L9.71-11.44C9.67-10.27 10.04-9.86 10.90-9.48C11.11-9.38 11.19-9.25 11.19-9L11.06-1.98C11.05-1.45 11.40-1.14 11.94-1.14ZM16.36-6.47L16.23-2.00C16.21-1.45 16.57-1.14 17.11-1.14C17.67-1.14 18-1.44 18-1.96L18-15.28C18-15.60 17.79-15.76 17.54-15.76C17.31-15.76 17.14-15.63 16.93-15.34C15.93-13.93 15.21-11.17 15.21-8.72L15.21-8.30C15.21-7.85 15.38-7.54 15.74-7.30L16.03-7.09C16.27-6.94 16.36-6.77 16.36-6.47Z" fill="currentColor"/>
</svg>