<svg xmlns="http://www.w3.org/2000/svg" viewBox="0 0 24 24" width="24" height="24">
  
  <path transform="matrix(0.8181527644614893, 0, 0, 0.8181527644614893, 0.28379674017257894, 18.922339405560884)" d="M14.32 3.76C21.07 3.76 26.54-1.72 26.54-8.46C26.54-15.21 21.07-20.68 14.32-20.68C7.58-20.68 2.10-15.21 2.10-8.46C2.10-1.72 7.58 3.76 14.32 3.76ZM22.88-8.51C22.88-8.12 22.65-7.84 22.24-7.59L16.77-4.38C16.52-4.24 16.32-4.17 16.08-4.17C15.59-4.17 15.19-4.54 15.19-5.20L15.19-8.10C15.07-7.90 14.91-7.75 14.65-7.59L9.18-4.38C8.94-4.24 8.73-4.17 8.48-4.17C8.00-4.17 7.58-4.54 7.58-5.20L7.58-11.80C7.58-12.47 7.99-12.82 8.48-12.82C8.73-12.82 8.94-12.76 9.18-12.62L14.65-9.41C14.91-9.26 15.08-9.11 15.19-8.92L15.19-11.80C15.19-12.47 15.59-12.82 16.07-12.82C16.32-12.82 16.52-12.76 16.77-12.62L22.24-9.41C22.65-9.16 22.88-8.88 22.88-8.51Z" fill="currentColor"/>
</svg>