<svg xmlns="http://www.w3.org/2000/svg" viewBox="0 0 24 24" width="24" height="24">
  
  <path transform="matrix(0.7513133281958077, 0, 0, 0.7513133281958077, 2.057913808240182, 18.356815112781717)" d="M0.81-10.89C-0.08-10.89-0.32-10.17 0.18-9.52L2.98-5.68C3.35-5.17 3.95-5.18 4.31-5.68L7.11-9.52C7.59-10.17 7.36-10.89 6.48-10.89L5.10-10.89C6.16-14.99 9.89-18 14.32-18C19.59-18 23.86-13.73 23.86-8.46C23.86-3.19 19.59 1.08 14.32 1.08C11.31 1.08 8.70-0.30 6.95-2.48C6.39-3.08 5.61-3.28 4.98-2.79C4.39-2.33 4.29-1.45 4.90-0.77C7.16 2.04 10.58 3.76 14.32 3.76C21.06 3.76 26.54-1.71 26.54-8.46C26.54-15.21 21.06-20.68 14.32-20.68C8.40-20.68 3.48-16.49 2.34-10.89ZM12.47-3.11C13.02-3.11 13.39-3.48 13.39-4.05L13.39-4.96L15.87-4.96C16.07-4.96 16.22-5.11 16.22-5.32C16.22-5.52 16.07-5.68 15.87-5.68L13.39-5.68L13.39-7.63L16.89-7.63C17.37-7.63 17.70-7.93 17.70-8.38C17.70-8.81 17.37-9.12 16.89-9.12L13.39-9.12L13.39-11.99L17.24-11.99C17.74-11.99 18.08-12.30 18.08-12.76C18.08-13.23 17.74-13.54 17.24-13.54L12.47-13.54C11.87-13.54 11.53-13.17 11.53-12.57L11.53-5.68L10.42-5.68C10.21-5.68 10.05-5.52 10.05-5.32C10.05-5.11 10.21-4.96 10.42-4.96L11.53-4.96L11.53-4.05C11.53-3.48 11.91-3.11 12.47-3.11Z" fill="currentColor"/>
</svg>