<svg xmlns="http://www.w3.org/2000/svg" viewBox="0 0 24 24" width="24" height="24">
  <title>fuelpump.arrowtriangle.left.fill</title>
  <path transform="matrix(0.5817105796051305, 0, 0, 0.5817105796051305, 0.2608393942098284, 16.921816857127784)" d="M11.61 3.67C11.61 4.32 12.15 4.86 12.80 4.86L30.23 4.86C30.88 4.86 31.43 4.32 31.43 3.67C31.43 3.01 30.88 2.47 30.23 2.47L29.50 2.47L29.50-10.48C30.52-9.86 30.94-8.95 30.94-7.90C30.94-6.04 30.66-3.82 30.66-1.84C30.66 0.21 31.95 1.51 33.94 1.51C36.13 1.51 37.37 0.05 37.37-2.54C37.37-5.50 36.82-8.93 35.70-14.19L35.45-15.33C35.19-16.55 34.82-17.54 34.10-18.43L32.80-20.06C32.14-20.89 30.86-19.92 31.57-19.04L33.22-16.97C33.32-16.84 33.33-16.68 33.23-16.52L32.26-14.72C31.98-14.19 32.04-13.83 32.48-13.34L34.75-10.93C35.44-7.69 35.80-4.82 35.80-2.54C35.80-0.94 35.13-0.07 33.94-0.07C32.89-0.07 32.24-0.73 32.24-1.84C32.24-3.59 32.52-5.79 32.52-7.90C32.52-9.83 31.64-11.34 29.50-12.22L29.50-18.60C29.50-20.66 28.36-21.79 26.32-21.79L16.72-21.79C14.66-21.79 13.55-20.65 13.55-18.60L13.55 2.47L12.80 2.47C12.15 2.47 11.61 3.01 11.61 3.67ZM17.20-11.00C16.39-11.00 15.89-11.46 15.89-12.19L15.89-18.25C15.89-18.97 16.38-19.44 17.20-19.44L25.84-19.44C26.65-19.44 27.15-18.97 27.15-18.25L27.15-12.19C27.15-11.46 26.64-11.00 25.84-11.00ZM3.43-9.21C2.85-8.87 2.84-8.06 3.43-7.71L9.19-4.31C9.82-3.94 10.56-4.25 10.56-4.96L10.56-11.98C10.56-12.67 9.81-12.98 9.19-12.62Z" fill="currentColor"/>
</svg>