<svg xmlns="http://www.w3.org/2000/svg" viewBox="0 0 24 24" width="24" height="24">
  <title>gauge.with.needle</title>
  <path transform="matrix(0.8181527644614893, 0, 0, 0.8181527644614893, 0.28379674017257894, 18.922339405560884)" d="M14.32 3.76C21.07 3.76 26.54-1.71 26.54-8.46C26.54-15.21 21.07-20.68 14.32-20.68C7.57-20.68 2.10-15.21 2.10-8.46C2.10-1.71 7.57 3.76 14.32 3.76ZM14.32 1.08C9.05 1.08 4.78-3.19 4.78-8.46C4.78-13.73 9.05-18 14.32-18C19.59-18 23.86-13.73 23.86-8.46C23.86-3.19 19.59 1.08 14.32 1.08ZM14.32-6.42C15.45-6.42 16.36-7.34 16.36-8.46C16.36-9.14 16.02-9.77 15.45-10.16L10.03-13.86C9.27-14.36 8.54-13.63 9.04-12.87L12.54-7.45C12.94-6.82 13.58-6.42 14.32-6.42Z" fill="currentColor"/>
</svg>