<svg xmlns="http://www.w3.org/2000/svg" viewBox="0 0 24 24" width="24" height="24">
  
  <path transform="matrix(0.7330255198826013, 0, 0, 0.7330255198826013, 1.8421561258455919, 18.177386449049713)" d="M10.35 5.21L19.02 5.21C19.66 5.21 20.20 4.68 20.20 4.02C20.20 3.38 19.66 2.84 19.02 2.84L15.86 2.84L15.86 1.10C18.47 0.87 20.82-0.14 22.72-1.71L23.60-0.82C24.07-0.36 24.82-0.36 25.28-0.82C25.75-1.28 25.75-2.04 25.28-2.50L21.62-6.16C22.73-7.62 23.39-9.45 23.39-11.43C23.39-16.24 19.49-20.14 14.67-20.14C12.69-20.14 10.86-19.49 9.41-18.38L6.05-21.73C5.59-22.18 4.84-22.18 4.38-21.73C3.91-21.27 3.93-20.51 4.38-20.05L4.96-19.48C3.15-17.31 2.09-14.51 2.09-11.43C2.09-4.82 7.04 0.52 13.49 1.10L13.49 2.84L10.35 2.84C9.70 2.84 9.16 3.38 9.16 4.02C9.16 4.68 9.70 5.21 10.35 5.21ZM14.67-5.02C10.95-5.02 8.26-7.70 8.26-11.43C8.26-15.15 10.95-17.84 14.67-17.84C18.40-17.84 21.08-15.15 21.08-11.43C21.08-7.70 18.40-5.02 14.67-5.02ZM14.67-2.71C16.65-2.71 18.48-3.38 19.95-4.48L21.04-3.39C19.29-2.02 17.11-1.22 14.67-1.22C8.94-1.22 4.46-5.70 4.46-11.43C4.46-13.86 5.26-16.05 6.63-17.79L7.72-16.70C6.61-15.23 5.95-13.41 5.95-11.43C5.95-6.61 9.86-2.71 14.67-2.71Z" fill="currentColor"/>
</svg>