<svg xmlns="http://www.w3.org/2000/svg" viewBox="0 0 24 24" width="24" height="24">
  <title>globe.americas.fill</title>
  <path transform="matrix(0.8181527644614893, 0, 0, 0.8181527644614893, 0.28379674017257894, 18.922339405560884)" d="M14.32 3.76C21.07 3.76 26.54-1.71 26.54-8.46C26.54-15.21 21.07-20.68 14.32-20.68C7.57-20.68 2.10-15.21 2.10-8.46C2.10-1.71 7.57 3.76 14.32 3.76ZM14.32 1.66C8.73 1.66 4.20-2.87 4.20-8.46C4.20-10.69 4.91-12.74 6.13-14.41C6.11-13.27 6.89-12.11 8.43-10.77L10.13-9.30C10.66-8.82 10.98-8.59 10.98-8.30C10.98-7.78 10.41-7.45 10.41-6.81C10.41-6.21 10.68-5.73 11.29-5.27C13.18-3.84 13.62-3.66 13.62-3.23C13.63-2.46 13.17-1.89 13.17-1.17C13.17-0.54 14.00 0.18 14.74 0.18C16.23 0.18 20.32-5.18 20.32-7.18C20.32-8.31 17.80-10.51 16.48-10.51C15.90-10.51 14.99-9.69 14.33-9.69C13.66-9.69 12.19-10.99 12.19-11.57C12.19-11.88 12.46-12.06 12.77-12.06C13.35-12.06 14.25-11.13 15.16-11.13C15.93-11.13 16.30-11.63 16.30-12.34C16.30-12.77 16.07-13.20 15.77-13.70C16.92-14.26 19.15-15.35 20.03-16.83C22.70-15 24.45-11.93 24.45-8.46C24.45-2.87 19.91 1.66 14.32 1.66Z" fill="currentColor"/>
</svg>