<svg xmlns="http://www.w3.org/2000/svg" viewBox="0 0 24 24" width="24" height="24">
  <title>graduationcap.fill</title>
  <path transform="matrix(0.6237816764132553, 0, 0, 0.6237816764132553, 0.13596491228070184, 15.578654970760233)" d="M33.73-14.11L22.30-19.34C21.05-19.90 20.02-20.17 19.02-20.14C18.02-20.17 16.99-19.90 15.74-19.34L4.31-14.11C3.45-13.72 2.99-13.01 2.99-12.25C2.99-11.48 3.45-10.77 4.31-10.38L8.66-8.44L16.38-12.02C16.34-12.11 16.32-12.18 16.32-12.25C16.32-13.17 17.66-13.82 19.05-13.82C20.44-13.82 21.77-13.17 21.77-12.25C21.77-11.31 20.44-10.65 19.05-10.65C18.62-10.65 18.19-10.71 17.80-10.83L10.61-7.50L15.74-5.16C16.99-4.57 18.02-4.32 19.02-4.34C20.02-4.32 21.05-4.58 22.30-5.16L33.73-10.38C34.59-10.78 35.05-11.48 35.05-12.25C35.05-13.01 34.59-13.72 33.73-14.11ZM10.57-5.54L10.57 1.16C12.66 2.40 15.59 3.14 19.02 3.14C25.89 3.14 30.76 0.16 30.76-3.57L30.76-7.07L23.04-3.53C21.60-2.86 20.26-2.53 19.02-2.54C17.78-2.53 16.45-2.86 15-3.53ZM7.28-7.05L7.28-3.57C7.28-2.55 7.78-1.38 8.71-0.38L8.71-6.40ZM7.61 3.93L7.61 6.94C7.61 7.99 8.30 8.67 9.34 8.67L9.93 8.67C10.97 8.67 11.66 7.99 11.66 6.94L11.66 3.93C11.66 3.12 11.25 2.52 10.57 2.30L10.57 1.16C9.82 0.71 9.19 0.20 8.71-0.38L8.71 2.30C8.03 2.52 7.61 3.11 7.61 3.93Z" fill="currentColor"/>
</svg>