<svg xmlns="http://www.w3.org/2000/svg" viewBox="0 0 24 24" width="24" height="24">
  
  <path transform="matrix(0.8181527644614893, 0, 0, 0.8181527644614893, 0.28379674017257894, 18.922339405560884)" d="M14.32 3.76C21.07 3.76 26.54-1.71 26.54-8.46C26.54-15.21 21.07-20.68 14.32-20.68C7.57-20.68 2.10-15.21 2.10-8.46C2.10-1.71 7.57 3.76 14.32 3.76ZM14.32 1.08C9.05 1.08 4.78-3.19 4.78-8.46C4.78-13.73 9.05-18 14.32-18C19.59-18 23.86-13.73 23.86-8.46C23.86-3.19 19.59 1.08 14.32 1.08ZM20.93-11.34L15.77-13.69C15.22-13.95 14.77-14.07 14.31-14.06C13.86-14.07 13.41-13.95 12.84-13.69L7.70-11.34C7.31-11.17 7.11-10.85 7.11-10.51C7.11-10.18 7.31-9.88 7.70-9.70L9.66-8.82L13.11-10.42C13.09-10.45 13.09-10.49 13.09-10.52C13.09-10.95 13.71-11.23 14.33-11.23C14.95-11.23 15.56-10.95 15.56-10.52C15.56-10.08 14.95-9.80 14.33-9.80C14.13-9.80 13.95-9.82 13.77-9.88L10.57-8.39L12.84-7.35C13.41-7.08 13.86-6.97 14.31-6.98C14.77-6.97 15.22-7.08 15.77-7.35L20.93-9.70C21.32-9.88 21.52-10.18 21.52-10.51C21.52-10.85 21.32-11.17 20.93-11.34ZM14.31-3.61C17.41-3.61 19.57-4.95 19.57-6.61L19.57-8.18L16.11-6.60C15.47-6.30 14.86-6.15 14.31-6.16C13.76-6.15 13.16-6.29 12.52-6.60L10.55-7.50L10.55-4.49C11.47-3.94 12.79-3.61 14.31-3.61ZM9.05-8.18L9.05-6.61C9.05-6.16 9.28-5.64 9.68-5.19L9.68-7.90ZM9.22-3.34L9.22-2.25C9.22-1.79 9.53-1.49 9.98-1.49L10.24-1.49C10.70-1.49 11.00-1.79 11.00-2.25L11.00-3.34C11.00-3.69 10.83-3.95 10.55-4.05L10.55-4.49C10.21-4.69 9.91-4.92 9.68-5.19L9.68-4.05C9.40-3.95 9.22-3.69 9.22-3.34Z" fill="currentColor"/>
</svg>