<svg xmlns="http://www.w3.org/2000/svg" viewBox="0 0 24 24" width="24" height="24">
  <title>graph.3d</title>
  <path transform="matrix(0.8124172596921029, 0, 0, 0.8124172596921029, -0.4290320218129726, 19.02576936273592)" d="M15.30-17.21C15.95-17.21 16.48-17.74 16.48-18.40C16.48-19.04 15.95-19.57 15.30-19.57C14.66-19.57 14.12-19.04 14.12-18.40C14.12-17.74 14.66-17.21 15.30-17.21ZM15.30-13.91C15.95-13.91 16.48-14.44 16.48-15.08C16.48-15.73 15.95-16.25 15.30-16.25C14.66-16.25 14.12-15.73 14.12-15.08C14.12-14.44 14.66-13.91 15.30-13.91ZM13.85 0.66C14.85 1.23 15.75 1.22 16.75 0.66L25.16-4.21C26.45-4.96 26.39-6.47 25.16-7.18L16.75-12.05C15.75-12.60 14.85-12.62 13.85-12.04L5.45-7.18C4.18-6.45 4.14-4.97 5.45-4.21ZM14.79-10.31C15.15-10.52 15.45-10.52 15.80-10.31L18.34-8.85L15.29-7.01L12.18-8.80ZM23.31-5.99C23.60-5.82 23.60-5.57 23.31-5.40L20.70-3.90L17.18-5.92L20.21-7.77ZM7.31-5.40C7.00-5.58 7.00-5.81 7.31-5.99L10.27-7.70L13.43-5.88L10.04-3.82ZM14.79-1.08L11.93-2.73L15.32-4.79L18.79-2.80L15.80-1.08C15.45-0.87 15.15-0.87 14.79-1.08ZM7.62 0.48C8.18 0.15 8.38-0.57 8.05-1.14C7.72-1.69 7.01-1.89 6.45-1.56C5.88-1.24 5.70-0.52 6.01 0.05C6.34 0.61 7.05 0.80 7.62 0.48ZM22.98 0.48C23.54 0.80 24.26 0.61 24.59 0.05C24.91-0.52 24.71-1.24 24.15-1.56C23.59-1.89 22.88-1.69 22.56-1.14C22.23-0.57 22.43 0.15 22.98 0.48ZM4.75 2.12C5.30 1.80 5.51 1.08 5.19 0.53C4.86-0.04 4.14-0.23 3.57 0.08C3.02 0.41 2.82 1.14 3.14 1.69C3.47 2.25 4.18 2.44 4.75 2.12ZM25.85 2.12C26.41 2.44 27.13 2.25 27.46 1.69C27.77 1.14 27.57 0.41 27.02 0.08C26.46-0.23 25.75-0.04 25.42 0.53C25.09 1.08 25.30 1.80 25.85 2.12Z" fill="currentColor"/>
</svg>