<svg xmlns="http://www.w3.org/2000/svg" viewBox="0 0 24 24" width="24" height="24">
  <title>greaterthan.square.fill</title>
  <path transform="matrix(0.9044338456103161, 0, 0, 0.9044338456103161, -0.6974032856385799, 19.64705882352941)" d="M6.96 2.60L21.12 2.60C23.72 2.60 25.09 1.23 25.09-1.34L25.09-15.57C25.09-18.14 23.72-19.51 21.12-19.51L6.96-19.51C4.37-19.51 2.99-18.14 2.99-15.57L2.99-1.34C2.99 1.23 4.37 2.60 6.96 2.60ZM11.05-3.54C10.35-3.54 9.83-4.04 9.83-4.75C9.83-5.33 10.09-5.68 10.78-5.96L16.05-8.44L16.05-8.53L10.78-11.04C10.10-11.33 9.83-11.70 9.83-12.27C9.83-12.96 10.34-13.46 11.04-13.46C11.33-13.46 11.53-13.41 11.78-13.30L18.71-9.67C19.28-9.38 19.57-8.99 19.57-8.44C19.57-7.88 19.29-7.51 18.71-7.23L11.78-3.70C11.54-3.60 11.33-3.54 11.05-3.54Z" fill="currentColor"/>
</svg>