<svg xmlns="http://www.w3.org/2000/svg" viewBox="0 0 24 24" width="24" height="24">
  
  <path transform="matrix(0.8390691576532284, 0, 0, 0.8390691576532284, -0.5073746312684366, 19.13864306784661)" d="M4.30-2.81L9.02-2.81L9.02 1.76C9.02 2.55 9.57 3.07 10.31 3.07C11.03 3.07 11.59 2.55 11.59 1.76L11.59-2.81L18.16-2.81L18.16 1.76C18.16 2.55 18.73 3.07 19.46 3.07C20.18 3.07 20.74 2.55 20.74 1.76L20.74-2.81L25.51-2.81C26.32-2.81 26.82-3.38 26.82-4.09C26.82-4.83 26.32-5.38 25.51-5.38L20.74-5.38L20.74-11.53L25.51-11.53C26.32-11.53 26.82-12.09 26.82-12.81C26.82-13.55 26.32-14.10 25.51-14.10L20.74-14.10L20.74-18.79C20.74-19.58 20.18-20.09 19.46-20.09C18.73-20.09 18.16-19.58 18.16-18.79L18.16-14.10L11.59-14.10L11.59-18.79C11.59-19.58 11.03-20.09 10.31-20.09C9.57-20.09 9.02-19.58 9.02-18.79L9.02-14.10L4.30-14.10C3.49-14.10 2.99-13.55 2.99-12.81C2.99-12.09 3.49-11.53 4.30-11.53L9.02-11.53L9.02-5.38L4.30-5.38C3.49-5.38 2.99-4.83 2.99-4.09C2.99-3.38 3.49-2.81 4.30-2.81ZM11.59-5.38L11.59-11.53L18.16-11.53L18.16-5.38Z" fill="currentColor"/>
</svg>