<svg xmlns="http://www.w3.org/2000/svg" viewBox="0 0 24 24" width="24" height="24">
  <title>h.circle</title>
  <path transform="matrix(0.8181527644614893, 0, 0, 0.8181527644614893, 0.28379674017257894, 18.922339405560884)" d="M14.32 3.76C21.07 3.76 26.54-1.71 26.54-8.46C26.54-15.21 21.07-20.68 14.32-20.68C7.57-20.68 2.10-15.21 2.10-8.46C2.10-1.71 7.57 3.76 14.32 3.76ZM14.32 1.08C9.05 1.08 4.78-3.19 4.78-8.46C4.78-13.73 9.05-18 14.32-18C19.59-18 23.86-13.73 23.86-8.46C23.86-3.19 19.59 1.08 14.32 1.08ZM10.79-3.09C11.60-3.09 12.08-3.62 12.08-4.51L12.08-7.66L16.52-7.66L16.52-4.51C16.52-3.62 17.00-3.09 17.80-3.09C18.62-3.09 19.09-3.62 19.09-4.51L19.09-12.55C19.09-13.44 18.62-13.97 17.80-13.97C17.00-13.97 16.52-13.44 16.52-12.55L16.52-9.61L12.08-9.61L12.08-12.55C12.08-13.44 11.60-13.97 10.79-13.97C10.00-13.97 9.52-13.44 9.52-12.55L9.52-4.51C9.52-3.62 10.00-3.09 10.79-3.09Z" fill="currentColor"/>
</svg>