<svg xmlns="http://www.w3.org/2000/svg" viewBox="0 0 24 24" width="24" height="24">
  
  <path transform="matrix(0.7670411985018727, 0, 0, 0.7670411985018727, 0.792841885983373, 18.764044943820224)" d="M13.95 4.22C17.44 4.22 19.76 2.84 21.40 0.05C22.65-1.83 23.52-4.56 24.13-6.56C24.52-7.76 25.02-9.26 25.09-9.91C25.16-10.66 24.69-11.23 23.96-11.30C23.13-11.38 22.58-10.91 22.09-9.88L20.45-6.30C20.30-5.98 20.14-5.86 19.97-5.86C19.78-5.86 19.59-5.96 19.63-6.34L20.94-18.74C21.04-19.59 20.44-20.13 19.72-20.20C18.98-20.30 18.29-19.88 18.18-19.10L16.80-9.63C16.52-9.74 16.21-9.83 15.87-9.89L15.87-20.48C15.87-21.25 15.26-21.86 14.46-21.86C13.66-21.86 13.05-21.25 13.05-20.48L13.05-10.02C12.73-9.98 12.39-9.95 12.07-9.89L10.95-19.38C10.84-20.20 10.17-20.64 9.43-20.55C8.70-20.50 8.06-19.91 8.16-19.04L9.25-9.08C8.91-8.93 8.59-8.75 8.31-8.58L6.88-16.10C6.73-16.93 6.09-17.32 5.38-17.25C4.65-17.17 4.03-16.59 4.14-15.68L5.48-4.29C6.12 1.01 9.12 4.22 13.95 4.22Z" fill="currentColor"/>
</svg>