<svg xmlns="http://www.w3.org/2000/svg" viewBox="0 0 24 24" width="24" height="24">
  
  <path transform="matrix(0.7746998784368856, 0, 0, 0.7746998784368856, 2.4448638040450534, 18.550131387387996)" d="M13.68 4.45C19.13 4.45 22.57 0.96 22.57-4.91L22.57-7.89C22.57-10.71 21.18-12.45 18.83-12.50C18.50-13.39 17.68-13.93 16.64-13.93C16.32-13.93 16.02-13.89 15.73-13.79C15.35-14.77 14.54-15.34 13.49-15.34C13.29-15.34 13.09-15.32 12.89-15.26L12.89-18.53C12.89-20.23 11.77-21.36 10.16-21.36C8.51-21.36 7.37-20.23 7.37-18.53L7.37-9.59C7.37-9.52 7.34-9.47 7.28-9.47C7.24-9.47 7.22-9.49 7.20-9.54L6.62-10.88C6.18-11.72 5.45-12.18 4.57-12.18C3.20-12.18 2.10-11.27 2.10-9.80C2.10-9.38 2.18-8.86 2.33-8.41L4.45-2.51C6.11 2.07 9.26 4.46 13.68 4.45ZM13.75 2.18C10.41 2.18 7.97 0.57 6.52-3.28L4.31-9.11C4.27-9.26 4.23-9.38 4.23-9.54C4.23-9.86 4.48-10.14 4.86-10.14C5.17-10.14 5.37-9.96 5.50-9.64L7.22-6.04C7.50-5.43 7.93-5.21 8.40-5.21C8.99-5.21 9.46-5.66 9.46-6.35L9.46-18.66C9.46-19.05 9.74-19.35 10.13-19.35C10.52-19.35 10.79-19.05 10.79-18.66L10.79-10.09C10.79-9.59 11.23-9.18 11.74-9.18C12.25-9.18 12.67-9.59 12.67-10.09L12.67-13.10C12.84-13.17 13.05-13.21 13.25-13.21C13.71-13.21 14.02-12.90 14.02-12.42L14.02-9.61C14.02-9.09 14.44-8.71 14.94-8.71C15.43-8.71 15.86-9.09 15.86-9.61L15.86-11.70C16.03-11.77 16.24-11.80 16.44-11.80C16.90-11.80 17.20-11.50 17.20-11.02L17.20-9.15C17.20-8.63 17.64-8.23 18.15-8.23C18.64-8.23 19.08-8.63 19.08-9.15L19.08-10.22C19.96-10.22 20.44-9.40 20.44-7.90L20.44-5.11C20.44-0.47 17.93 2.18 13.75 2.18Z" fill="currentColor"/>
</svg>