<svg xmlns="http://www.w3.org/2000/svg" viewBox="0 0 24 24" width="24" height="24">
  
  <path transform="matrix(0.586483390607102, 0, 0, 0.586483390607102, 0.24742268041237114, 16.95876288659794)" d="M18.41-16.25C18.42-20.11 15.38-23.02 10.59-23.02L9.20-23.03C7.90-23.03 6.89-22.93 6.30-22.78C5.40-22.56 4.64-21.97 4.64-20.99C4.64-20.61 4.72-20.33 4.84-20.11C4.91-19.99 4.89-19.92 4.79-19.88C4.13-19.55 3.63-18.95 3.63-18.14C3.63-17.68 3.76-17.29 3.98-16.98C4.07-16.85 4.05-16.75 3.91-16.66C3.46-16.36 3.13-15.76 3.13-15.08C3.13-14.58 3.27-14.09 3.54-13.82C3.67-13.70 3.64-13.62 3.52-13.51C3.19-13.21 2.99-12.73 2.99-12.14C2.99-11.09 3.83-10.22 4.91-10.22L8.51-10.22C9.36-10.22 9.91-9.80 9.91-9.12C9.91-7.79 8.19-5.27 8.19-3.43C8.19-2.43 8.85-1.79 9.74-1.79C10.49-1.79 10.90-2.27 11.34-3.14C12.86-6.08 14.87-8.47 16.42-10.54C17.79-12.33 18.40-13.88 18.41-16.25ZM23.53-16.35C23.53-19.48 21.59-22.04 19.00-22.04L17.39-22.04C19.18-20.65 20.00-18.57 19.98-16.23C19.98-13.76 19.13-11.93 18.14-10.61L19.37-10.61C21.73-10.61 23.53-13.11 23.53-16.35ZM21.67-0.66C21.66 3.20 24.70 6.11 29.48 6.11L30.88 6.12C32.18 6.12 33.19 6.02 33.77 5.87C34.68 5.65 35.44 5.06 35.44 4.08C35.44 3.71 35.36 3.42 35.24 3.20C35.17 3.09 35.18 3.02 35.29 2.96C35.95 2.65 36.45 2.04 36.45 1.23C36.45 0.77 36.30 0.38 36.09 0.07C36.01-0.06 36.02-0.16 36.16-0.25C36.62-0.55 36.95-1.15 36.95-1.83C36.95-2.33 36.80-2.82 36.54-3.08C36.41-3.21 36.43-3.29 36.56-3.41C36.88-3.69 37.09-4.18 37.09-4.77C37.09-5.82 36.25-6.69 35.17-6.69L31.56-6.69C30.71-6.69 30.16-7.11 30.16-7.79C30.16-9.12 31.89-11.64 31.89-13.48C31.89-14.48 31.23-15.11 30.34-15.11C29.58-15.11 29.18-14.64 28.75-13.77C27.21-10.83 25.21-8.43 23.66-6.38C22.29-4.58 21.68-3.04 21.67-0.66ZM16.55-0.56C16.55 2.57 18.48 5.13 21.07 5.13L22.69 5.13C20.89 3.74 20.07 1.68 20.09-0.67C20.10-3.15 20.95-4.97 21.94-6.30L20.70-6.30C18.35-6.30 16.55-3.80 16.55-0.56Z" fill="currentColor"/>
</svg>