<svg xmlns="http://www.w3.org/2000/svg" viewBox="0 0 24 24" width="24" height="24">
  <title>hands.clap</title>
  <path transform="matrix(0.5997842513776003, 0, 0, 0.5997842513776003, 0.7406853603464694, 17.3865494142088)" d="M11.87-19.03C12.36-19.15 12.69-19.64 12.59-20.12L11.91-23.25C11.80-23.74 11.32-24.05 10.83-23.95C10.34-23.85 10.00-23.36 10.10-22.86L10.78-19.75C10.89-19.27 11.37-18.93 11.87-19.03ZM7.21-17.73C7.56-17.37 8.14-17.37 8.48-17.73C8.84-18.09 8.85-18.66 8.48-19.02L6.22-21.29C5.85-21.66 5.30-21.64 4.93-21.29C4.57-20.93 4.56-20.38 4.93-20.00ZM17.66-18.30C17.50-18.14 17.37-17.95 17.27-17.75C16.22-18.55 14.95-18.45 13.97-17.47C13.68-17.17 13.49-16.80 13.43-16.42C12.40-17.05 11.30-16.93 10.42-16.05C9.57-15.22 9.46-14.07 10.05-13.07C9.69-13.03 9.35-12.86 9.08-12.59C8.07-11.58 8.09-10.17 9.11-9.15L9.77-8.47C9.41-8.45 9.04-8.27 8.75-7.98C7.73-6.97 7.77-5.50 8.82-4.44L16.17 2.89C19.35 6.08 23.13 6.80 26.46 5.16C28.62 5.18 30.76 4.27 32.61 2.43C35.77-0.74 36.29-4.63 34.16-9.13L31.48-14.80C30.95-15.93 30.04-16.62 28.92-16.61C28.36-16.61 27.38-16.32 26.93-15.43C26.09-16.02 25.03-16.01 24.20-15.41L21.29-18.30C20.19-19.41 18.77-19.37 17.66-18.30ZM23.80-11.27L18.71-16.36C18.75-16.45 18.81-16.55 18.89-16.63C19.20-16.92 19.63-16.91 19.96-16.58L23.23-13.31C23.25-13.10 23.30-12.90 23.38-12.70L23.93-11.38C23.95-11.33 23.95-11.30 23.92-11.26C23.88-11.23 23.84-11.24 23.80-11.27ZM5.99-13.65C6.46-13.56 6.96-13.86 7.05-14.36C7.14-14.85 6.84-15.32 6.35-15.42L3.20-16.10C2.67-16.21 2.18-15.87 2.11-15.34C2.04-14.86 2.36-14.41 2.84-14.32ZM27.54 1.64C24.55 4.63 20.82 4.56 17.52 1.25L10.51-5.77C10.22-6.05 10.21-6.43 10.49-6.71C10.76-7.00 11.17-7.00 11.45-6.70L15.74-2.41C16.13-2.03 16.72-2.06 17.09-2.43C17.46-2.80 17.50-3.40 17.11-3.79L10.66-10.23C10.37-10.51 10.36-10.90 10.64-11.18C10.91-11.46 11.32-11.46 11.60-11.17L17.61-5.17C18-4.78 18.60-4.80 18.96-5.17C19.32-5.54 19.36-6.14 18.97-6.53L11.91-13.59C11.63-13.89 11.61-14.29 11.88-14.57C12.16-14.84 12.56-14.84 12.86-14.54L19.76-7.64C20.13-7.27 20.73-7.28 21.11-7.65C21.48-8.03 21.49-8.63 21.12-9L15.28-14.85C14.99-15.13 14.99-15.53 15.26-15.81C15.54-16.08 15.94-16.08 16.22-15.79L24.55-7.46C25.07-6.95 25.70-7.01 26.12-7.43C26.47-7.78 26.64-8.29 26.39-8.94L24.90-12.81C24.74-13.24 24.90-13.59 25.23-13.75C25.58-13.91 25.91-13.75 26.13-13.30L28.83-7.48C30.62-3.63 30.01-0.82 27.54 1.64ZM30.73-8.38L28.30-13.51C28.28-13.61 28.25-13.70 28.25-13.79C28.25-14.12 28.51-14.43 28.93-14.43C29.20-14.43 29.46-14.25 29.60-13.95L32.26-8.23C34.04-4.38 33.45-1.57 30.97 0.88C30.95 0.91 30.91 0.95 30.88 0.97C32.44-1.73 32.39-4.88 30.73-8.38Z" fill="currentColor"/>
</svg>