<svg xmlns="http://www.w3.org/2000/svg" viewBox="0 0 24 24" width="24" height="24">
  
  <path transform="matrix(0.7508432321454759, 0, 0, 0.7508432321454759, -0.24373075230972274, 18.55961284645843)" d="M11.04-1.59C11.04 1.92 13.16 4.04 16.58 4.04C19.14 4.04 21.02 2.85 22.22 0.63L23.25-1.24C25.44-5.30 29.63-6.27 29.63-12.12C29.63-17.75 25.95-21.52 20.41-21.52C14.80-21.52 11.04-17.72 11.04-12.04ZM5.09-15.80C6.23-15.80 7.17-16.73 7.17-17.89C7.17-19.04 6.23-19.98 5.09-19.98C3.93-19.98 2.99-19.04 2.99-17.89C2.99-16.73 3.93-15.80 5.09-15.80ZM13.31-1.68L13.31-12.04C13.31-16.37 16.15-19.24 20.41-19.24C24.59-19.24 27.35-16.39 27.35-12.12C27.35-7.31 23.57-6.48 21.18-2.17L20.24-0.52C19.43 0.97 18.33 1.73 16.69 1.73C14.58 1.73 13.31 0.45 13.31-1.68ZM15.02-5.02C15.02-3.81 15.95-3 17.32-3C19.14-3 20.36-4.43 20.36-6.30C20.36-9.57 16.99-10.14 17.00-12.56C17.00-14.32 18.36-15.57 20.40-15.57C22.51-15.57 23.89-14.21 23.89-12.13C23.89-11.58 24.34-11.13 24.88-11.13C25.42-11.13 25.86-11.58 25.86-12.13C25.86-15.38 23.68-17.54 20.40-17.54C17.18-17.54 15.02-15.46 15.02-12.56C15.02-10.00 17.26-9.19 17.26-8.11C17.26-6.89 15.02-7.11 15.02-5.02ZM5.09-9.52C6.23-9.52 7.17-10.45 7.17-11.61C7.17-12.76 6.23-13.70 5.09-13.70C3.93-13.70 2.99-12.76 2.99-11.61C2.99-10.45 3.93-9.52 5.09-9.52ZM5.09-3.22C6.23-3.22 7.17-4.16 7.17-5.31C7.17-6.47 6.23-7.41 5.09-7.41C3.93-7.41 2.99-6.47 2.99-5.31C2.99-4.16 3.93-3.22 5.09-3.22ZM5.09 3.06C6.23 3.06 7.17 2.12 7.17 0.96C7.17-0.19 6.23-1.13 5.09-1.13C3.93-1.13 2.99-0.19 2.99 0.96C2.99 2.12 3.93 3.06 5.09 3.06Z" fill="currentColor"/>
</svg>