<svg xmlns="http://www.w3.org/2000/svg" viewBox="0 0 24 24" width="24" height="24">
  
  <path transform="matrix(0.74788197487584, 0, 0, 0.74788197487584, 0.4312007011393513, 18.384750219106046)" d="M15.47-20.07C8.09-20.07 2.10-14.09 2.10-6.69C2.10-3.13 3.49 0.14 5.84 2.57C6.39 3.15 7.31 3.13 7.88 2.59C8.41 2.05 8.30 1.15 7.71 0.48C5.99-1.38 4.93-3.94 4.93-6.70C4.93-12.57 9.60-17.26 15.47-17.26C21.34-17.26 26.00-12.57 26.00-6.70C26.00-3.94 24.96-1.38 23.24 0.48C22.65 1.15 22.54 2.05 23.06 2.59C23.63 3.13 24.55 3.15 25.11 2.57C27.45 0.14 28.84-3.13 28.84-6.69C28.84-14.09 22.86-20.07 15.47-20.07ZM17.92-10.72C17.68-10.37 17.88-9.87 18.36-9.87L18.93-9.87L18.93-9.89C18.93-7.80 20.02-7.51 20.02-6.54C20.02-5.58 18.63-5.20 18.63-3.18C18.63-2.47 18.84-1.91 19.32-1.28C19.90-0.57 20.98-1.31 20.40-2.07C20.06-2.52 19.97-2.79 19.97-3.25C19.97-4.52 21.35-5.00 21.35-6.54C21.35-8.06 20.27-8.37 20.25-9.87L20.80-9.87C21.27-9.87 21.49-10.37 21.25-10.72L20.05-12.41C19.82-12.77 19.37-12.80 19.11-12.41ZM13.84-10.71C13.59-10.36 13.79-9.86 14.27-9.86L14.82-9.86L14.82-9.88C14.82-7.79 15.93-7.49 15.93-6.52C15.93-5.55 14.54-5.20 14.54-3.15C14.54-2.45 14.75-1.89 15.25-1.27C15.77-0.57 16.88-1.29 16.30-2.06C15.97-2.51 15.88-2.78 15.88-3.22C15.88-4.50 17.26-4.98 17.26-6.52C17.26-8.05 16.17-8.34 16.16-9.86L16.71-9.86C17.18-9.86 17.40-10.35 17.14-10.71L15.97-12.40C15.73-12.76 15.29-12.79 15.02-12.40ZM9.71-10.69C9.47-10.35 9.67-9.84 10.15-9.84L10.72-9.84L10.72-9.87C10.72-7.77 11.81-7.48 11.81-6.50C11.81-5.53 10.44-5.18 10.44-3.14C10.44-2.45 10.64-1.88 11.12-1.24C11.68-0.55 12.77-1.29 12.20-2.04C11.87-2.50 11.77-2.75 11.77-3.21C11.77-4.49 13.15-4.96 13.15-6.50C13.15-8.04 12.07-8.33 12.05-9.84L12.61-9.84C13.09-9.84 13.30-10.34 13.04-10.69L11.86-12.39C11.61-12.74 11.18-12.76 10.91-12.39Z" fill="currentColor"/>
</svg>