<svg xmlns="http://www.w3.org/2000/svg" viewBox="0 0 24 24" width="24" height="24">
  
  <path transform="matrix(0.7971352950334735, 0, 0, 0.7971352950334735, 0.3278841662774403, 18.74451191032228)" d="M14.64 1.24C21.68 1.24 27.19-1.96 27.19-5.94L27.19-12.33C27.19-12.35 27.19-12.38 27.19-12.40C27.19-15.67 21.63-18.16 14.64-18.16C7.64-18.16 2.10-15.67 2.10-12.40C2.10-12.38 2.10-12.35 2.10-12.33L2.10-5.94C2.10-1.96 7.59 1.24 14.64 1.24ZM14.64-8.96C8.89-8.96 4.56-10.51 4.56-12.40C4.56-14.23 8.89-15.69 14.64-15.69C20.38-15.69 24.71-14.23 24.71-12.40C24.71-10.51 20.37-8.96 14.64-8.96ZM14.64-6.48C18.79-6.48 22.43-7.38 24.71-8.82L24.71-5.94C24.71-3.34 20.94-1.24 14.64-1.24C8.33-1.24 4.56-3.34 4.56-5.94L4.56-8.82C6.83-7.38 10.48-6.48 14.64-6.48Z" fill="currentColor"/>
</svg>