<svg xmlns="http://www.w3.org/2000/svg" viewBox="0 0 24 24" width="24" height="24">
  
  <path transform="matrix(0.5134376253509828, 0, 0, 0.5134376253509828, 0.42358604091455887, 16.350180505415164)" d="M4.16 4.76L38.40 4.76C39 4.76 39.48 4.27 39.48 3.68C39.48 3.08 39 2.60 38.40 2.60L34.68 2.60L34.68-14.64C34.78-14.66 34.89-14.67 35.04-14.67C36.79-14.67 37.96-13.76 39.74-13.76C40.54-13.76 40.89-13.84 41.32-14.03C41.81-14.25 42.02-14.61 42.02-15.16L42.02-20.33C42.02-20.73 41.80-20.99 41.32-20.99C40.98-20.99 40.52-20.77 39.69-20.77C37.96-20.77 36.75-21.70 34.83-21.70C34.02-21.70 33.67-21.62 33.25-21.43C32.78-21.22 32.53-20.84 32.53-20.32L32.53 2.60L27.32 2.60C27.35 2.40 27.36 2.18 27.36 1.96L27.36-8.55L28.52-7.96C30.35-7.01 31.41-9.33 29.86-10.16L18.39-16.25C17.30-16.83 16.38-16.83 15.29-16.25L3.82-10.16C2.27-9.33 3.33-7.01 5.16-7.96L6.29-8.54L6.29 1.96C6.29 2.19 6.30 2.40 6.34 2.60L4.16 2.60C3.56 2.60 3.07 3.08 3.07 3.68C3.07 4.27 3.56 4.76 4.16 4.76ZM20.33-4.91C20.33-5.44 19.98-5.79 19.44-5.79L14.25-5.79C13.71-5.79 13.36-5.44 13.36-4.91L13.36 2.20L9.93 2.20C9.22 2.20 8.84 1.82 8.84 1.10L8.84-9.86L16.48-13.79C16.70-13.92 16.97-13.92 17.21-13.79L24.81-9.87L24.81 1.10C24.81 1.82 24.42 2.20 23.73 2.20L20.33 2.20Z" fill="currentColor"/>
</svg>