<svg xmlns="http://www.w3.org/2000/svg" viewBox="0 0 24 24" width="24" height="24">
  <title>hryvniasign.bank.building.fill</title>
  <path transform="matrix(0.7299686341602509, 0, 0, 0.7299686341602509, -0.18135158254918737, 18.18049615055603)" d="M4.14 4.72L29.24 4.72C29.86 4.72 30.39 4.21 30.39 3.57C30.39 2.94 29.86 2.43 29.24 2.43L28.63 2.43L28.63 1.46C28.63 0.93 28.30 0.60 27.76 0.60L27.14 0.60L27.14-13.02L28.13-13.02C28.90-13.02 29.36-13.59 29.36-14.17C29.36-14.59 29.11-14.98 28.61-15.27L18.32-21.20C17.82-21.49 17.27-21.66 16.75-21.66C16.22-21.66 15.67-21.49 15.18-21.20L4.89-15.27C4.37-14.98 4.15-14.59 4.15-14.17C4.15-13.59 4.59-13.02 5.38-13.02L6.38-13.02L6.38 0.60L5.74 0.60C5.20 0.60 4.88 0.93 4.88 1.46L4.88 2.43L4.14 2.43C3.52 2.43 2.99 2.94 2.99 3.57C2.99 4.21 3.52 4.72 4.14 4.72ZM16.72-12.88C18.59-12.88 20.44-12 20.44-10.14C20.44-9.64 20.25-9.20 19.96-8.87L20.99-8.87C21.21-8.87 21.38-8.71 21.38-8.48C21.38-8.27 21.21-8.12 20.99-8.12L12.56-8.12C12.35-8.12 12.18-8.27 12.18-8.48C12.18-8.71 12.35-8.87 12.56-8.87L17.79-8.87C18.33-9.12 18.56-9.57 18.56-10.00C18.56-10.91 17.66-11.34 16.71-11.34C15.96-11.34 15.29-11.05 14.86-10.35C14.65-10.05 14.44-9.91 14.06-9.91C13.59-9.91 13.27-10.20 13.27-10.64C13.27-10.97 13.36-11.20 13.54-11.46C14.29-12.60 15.62-12.88 16.72-12.88ZM16.79-2.02C14.94-2.02 12.97-2.92 12.97-4.78C12.97-5.30 13.21-5.86 13.58-6.23L12.56-6.23C12.35-6.23 12.18-6.39 12.18-6.61C12.18-6.83 12.35-6.98 12.56-6.98L20.99-6.98C21.21-6.98 21.38-6.83 21.38-6.61C21.38-6.39 21.21-6.23 20.99-6.23L15.71-6.23C15.15-5.99 14.87-5.50 14.87-4.96C14.87-4.04 15.81-3.55 16.83-3.55C17.74-3.55 18.46-3.89 18.86-4.65C19.08-4.96 19.29-5.12 19.68-5.12C20.13-5.12 20.47-4.82 20.47-4.38C20.47-4.15 20.39-3.89 20.26-3.67C19.64-2.48 18.25-2.02 16.79-2.02Z" fill="currentColor"/>
</svg>