<svg xmlns="http://www.w3.org/2000/svg" viewBox="0 0 24 24" width="24" height="24">
  <title>humidifier.and.ellipsis</title>
  <path transform="matrix(0.7250070801472671, 0, 0, 0.7250070801472671, 2.4757858963466437, 18.09175870858114)" d="M10.62-2.14L15.64-2.14C20.34-2.14 22.77-4.65 22.77-8.91C22.77-12.23 19.99-16.49 16.78-20.78C16.11-21.66 15.64-22.20 14.37-22.20L11.88-22.20C10.62-22.20 10.15-21.66 9.48-20.78C6.26-16.49 3.48-12.23 3.48-8.91C3.48-4.65 5.91-2.14 10.62-2.14ZM11.36-19.55C11.55-19.82 11.67-19.89 11.99-19.89L14.26-19.89C14.58-19.89 14.70-19.82 14.89-19.55C15.47-18.76 16.02-18.01 16.51-17.30L9.74-17.30C10.24-18.01 10.78-18.76 11.36-19.55ZM13.14-12.05C11.91-12.05 10.90-11.31 10.48-10.25L5.95-10.25C6.29-11.65 7.10-13.25 8.30-15.14L17.95-15.14C19.16-13.25 19.97-11.65 20.30-10.25L15.79-10.25C15.36-11.31 14.34-12.05 13.14-12.05ZM13.14-8.16C12.54-8.16 12.09-8.59 12.09-9.19C12.09-9.77 12.54-10.23 13.14-10.23C13.73-10.23 14.17-9.77 14.17-9.19C14.17-8.59 13.73-8.16 13.14-8.16ZM13.14-6.33C14.33-6.33 15.35-7.05 15.77-8.10L20.43-8.10C20.16-5.73 18.64-4.45 15.64-4.45L10.62-4.45C7.62-4.45 6.09-5.73 5.82-8.10L10.49-8.10C10.91-7.05 11.92-6.33 13.14-6.33ZM5.21 5.39C6.46 5.39 7.45 4.39 7.45 3.15C7.45 1.92 6.46 0.93 5.21 0.93C3.98 0.93 2.99 1.92 2.99 3.15C2.99 4.39 3.98 5.39 5.21 5.39ZM13.14 5.39C14.37 5.39 15.36 4.39 15.36 3.15C15.36 1.92 14.37 0.93 13.14 0.93C11.91 0.93 10.91 1.92 10.91 3.15C10.91 4.39 11.91 5.39 13.14 5.39ZM21.06 5.39C22.29 5.39 23.29 4.39 23.29 3.15C23.29 1.92 22.29 0.93 21.06 0.93C19.83 0.93 18.83 1.92 18.83 3.15C18.83 4.39 19.83 5.39 21.06 5.39Z" fill="currentColor"/>
</svg>