<svg xmlns="http://www.w3.org/2000/svg" viewBox="0 0 24 24" width="24" height="24">
  <title>humidifier.and.droplets</title>
  <path transform="matrix(0.7234703970609015, 0, 0, 0.7234703970609015, 2.8605341246290794, 18.116998728274694)" d="M12.66-20.36C13.18-20.36 13.62-20.78 13.62-21.32C13.62-21.84 13.18-22.28 12.66-22.28C12.13-22.28 11.70-21.84 11.70-21.32C11.70-20.78 12.13-20.36 12.66-20.36ZM6.26-19.16C6.79-19.16 7.22-19.59 7.22-20.12C7.22-20.65 6.79-21.08 6.26-21.08C5.73-21.08 5.30-20.65 5.30-20.12C5.30-19.59 5.73-19.16 6.26-19.16ZM19.05-19.16C19.58-19.16 20.02-19.59 20.02-20.12C20.02-20.65 19.58-21.08 19.05-21.08C18.52-21.08 18.09-20.65 18.09-20.12C18.09-19.59 18.52-19.16 19.05-19.16ZM12.66-16.73C13.18-16.73 13.62-17.17 13.62-17.70C13.62-18.23 13.18-18.66 12.66-18.66C12.13-18.66 11.70-18.23 11.70-17.70C11.70-17.17 12.13-16.73 12.66-16.73ZM8.45-16.29C8.98-16.29 9.41-16.71 9.41-17.25C9.41-17.78 8.98-18.21 8.45-18.21C7.91-18.21 7.48-17.78 7.48-17.25C7.48-16.71 7.91-16.29 8.45-16.29ZM16.86-16.29C17.39-16.29 17.82-16.71 17.82-17.25C17.82-17.78 17.39-18.21 16.86-18.21C16.34-18.21 15.90-17.78 15.90-17.25C15.90-16.71 16.34-16.29 16.86-16.29ZM10.11 5.37L15.15 5.37C19.85 5.37 22.28 2.86 22.28-1.39C22.28-4.73 19.50-8.99 16.28-13.27C15.61-14.14 15.14-14.68 13.88-14.68L11.39-14.68C10.13-14.68 9.66-14.14 8.99-13.27C5.77-8.99 2.99-4.73 2.99-1.39C2.99 2.86 5.41 5.37 10.11 5.37ZM10.86-12.05C11.06-12.30 11.18-12.38 11.50-12.38L13.77-12.38C14.09-12.38 14.20-12.30 14.40-12.05C14.98-11.25 15.52-10.50 16.02-9.79L9.25-9.79C9.74-10.50 10.29-11.25 10.86-12.05ZM12.64-4.54C11.41-4.54 10.39-3.80 9.98-2.74L5.46-2.74C5.80-4.14 6.61-5.74 7.80-7.63L17.46-7.63C18.66-5.74 19.48-4.14 19.80-2.74L15.29-2.74C14.87-3.80 13.85-4.54 12.64-4.54ZM12.64-0.64C12.04-0.64 11.60-1.08 11.60-1.69C11.60-2.27 12.04-2.72 12.64-2.72C13.23-2.72 13.68-2.27 13.68-1.69C13.68-1.08 13.23-0.64 12.64-0.64ZM12.64 1.18C13.84 1.18 14.86 0.46 15.28-0.59L19.93-0.59C19.66 1.78 18.14 3.06 15.15 3.06L10.11 3.06C7.13 3.06 5.60 1.78 5.33-0.59L10.00-0.59C10.42 0.46 11.43 1.18 12.64 1.18Z" fill="currentColor"/>
</svg>