<svg xmlns="http://www.w3.org/2000/svg" viewBox="0 0 24 24" width="24" height="24">
  
  <path transform="matrix(0.7935653105149503, 0, 0, 0.7935653105149503, -0.3713963380622536, 18.732905681400283)" d="M4.23 2.68C4.92 2.68 5.47 2.16 5.47 1.46L5.47-18.43C5.47-19.11 4.91-19.65 4.23-19.65C3.56-19.65 2.99-19.11 2.99-18.43L2.99 1.46C2.99 2.14 3.55 2.68 4.23 2.68ZM10.16 2.68C10.85 2.68 11.40 2.16 11.40 1.46L11.40-18.43C11.40-19.11 10.84-19.65 10.16-19.65C9.49-19.65 8.93-19.11 8.93-18.43L8.93 1.46C8.93 2.14 9.49 2.68 10.16 2.68ZM16.10 2.68C16.78 2.68 17.33 2.16 17.33 1.46L17.33-18.43C17.33-19.11 16.77-19.65 16.10-19.65C15.43-19.65 14.86-19.11 14.86-18.43L14.86 1.46C14.86 2.14 15.42 2.68 16.10 2.68ZM23.44-4.59L27.63-7.39C28.39-7.91 28.36-8.99 27.63-9.48L23.44-12.35C22.46-13.01 21.43-12.64 21.45-11.48L21.45-5.45C21.43-4.32 22.51-3.98 23.44-4.59Z" fill="currentColor"/>
</svg>