<svg xmlns="http://www.w3.org/2000/svg" viewBox="0 0 24 24" width="24" height="24">
  <title>indianrupeesign.bank.building.fill</title>
  <path transform="matrix(0.7299686341602509, 0, 0, 0.7299686341602509, -0.18135158254918737, 18.18049615055603)" d="M4.14 4.72L29.24 4.72C29.86 4.72 30.39 4.21 30.39 3.57C30.39 2.94 29.86 2.43 29.24 2.43L28.63 2.43L28.63 1.46C28.63 0.93 28.30 0.60 27.76 0.60L27.14 0.60L27.14-13.02L28.13-13.02C28.90-13.02 29.36-13.59 29.36-14.17C29.36-14.59 29.11-14.98 28.61-15.27L18.32-21.20C17.82-21.49 17.27-21.66 16.75-21.66C16.22-21.66 15.67-21.49 15.18-21.20L4.89-15.27C4.37-14.98 4.15-14.59 4.15-14.17C4.15-13.59 4.59-13.02 5.38-13.02L6.38-13.02L6.38 0.60L5.74 0.60C5.20 0.60 4.88 0.93 4.88 1.46L4.88 2.43L4.14 2.43C3.52 2.43 2.99 2.94 2.99 3.57C2.99 4.21 3.52 4.72 4.14 4.72ZM15.84-6.22L15.33-6.21L18.38-3.34C18.57-3.14 18.74-2.91 18.74-2.64C18.74-2.17 18.32-1.77 17.85-1.77C17.47-1.77 17.25-1.97 17.00-2.20L13.25-5.77C12.94-6.07 12.73-6.33 12.73-6.74L12.73-6.80C12.73-7.31 13.11-7.61 13.64-7.61L15.21-7.61C16.36-7.61 17.25-7.99 17.41-9.12L13.16-9.12C12.95-9.12 12.79-9.29 12.79-9.49C12.79-9.70 12.95-9.87 13.16-9.87L17.41-9.87C17.24-10.96 16.32-11.39 15.21-11.39L13.36-11.39C12.96-11.39 12.70-11.66 12.70-12.06L12.70-12.12C12.70-12.53 12.96-12.80 13.36-12.80L20.41-12.80C20.64-12.80 20.79-12.63 20.79-12.41C20.79-12.21 20.64-12.05 20.41-12.05L18.22-12.05C18.93-11.52 19.27-10.73 19.34-9.87L20.41-9.87C20.64-9.87 20.79-9.70 20.79-9.49C20.79-9.28 20.64-9.12 20.41-9.12L19.32-9.12C19.10-7.43 17.77-6.28 15.84-6.22Z" fill="currentColor"/>
</svg>