<svg xmlns="http://www.w3.org/2000/svg" viewBox="0 0 24 24" width="24" height="24">
  <title>info.square.fill</title>
  <path transform="matrix(0.9044338456103161, 0, 0, 0.9044338456103161, -0.6974032856385799, 19.64705882352941)" d="M6.96 2.60L21.12 2.60C23.72 2.60 25.09 1.23 25.09-1.34L25.09-15.57C25.09-18.14 23.72-19.51 21.12-19.51L6.96-19.51C4.37-19.51 2.99-18.14 2.99-15.57L2.99-1.34C2.99 1.23 4.37 2.60 6.96 2.60ZM14.04-12.35C13.08-12.35 12.30-13.14 12.30-14.10C12.30-15.08 13.08-15.84 14.04-15.84C15-15.84 15.77-15.08 15.77-14.10C15.77-13.14 15-12.35 14.04-12.35ZM11.91-1.75C11.32-1.75 10.86-2.16 10.86-2.77C10.86-3.33 11.32-3.79 11.91-3.79L13.32-3.79L13.32-8.52L12.13-8.52C11.54-8.52 11.09-8.94 11.09-9.54C11.09-10.10 11.54-10.56 12.13-10.56L14.48-10.56C15.23-10.56 15.62-10.03 15.62-9.23L15.62-3.79L16.86-3.79C17.46-3.79 17.92-3.33 17.92-2.77C17.92-2.16 17.46-1.75 16.86-1.75Z" fill="currentColor"/>
</svg>