<svg xmlns="http://www.w3.org/2000/svg" viewBox="0 0 24 24" width="24" height="24">
  
  <path transform="matrix(0.7524985302763081, 0, 0, 0.7524985302763081, -0.24867724867724883, 17.82451499118166)" d="M10.51 4.79C11.03 4.79 11.41 4.56 12.02 4.01L16.36 0.11L23.95 0.11C27.50 0.11 29.57-1.98 29.57-5.48L29.57-14.66C29.57-18.18 27.50-20.27 23.95-20.27L8.59-20.27C5.05-20.27 2.99-18.18 2.99-14.66L2.99-5.48C2.99-1.97 5.13 0.11 8.46 0.11L9.34 0.11L9.34 3.47C9.34 4.28 9.77 4.79 10.51 4.79ZM16.24-13.68C15.35-13.68 14.63-14.40 14.63-15.29C14.63-16.21 15.35-16.92 16.24-16.92C17.12-16.92 17.84-16.21 17.84-15.29C17.84-14.40 17.12-13.68 16.24-13.68ZM14.26-3.86C13.71-3.86 13.29-4.24 13.29-4.80C13.29-5.32 13.71-5.74 14.26-5.74L15.56-5.74L15.56-10.13L14.47-10.13C13.92-10.13 13.50-10.52 13.50-11.07C13.50-11.60 13.92-12.01 14.47-12.01L16.64-12.01C17.34-12.01 17.71-11.53 17.71-10.79L17.71-5.74L18.86-5.74C19.41-5.74 19.83-5.32 19.83-4.80C19.83-4.24 19.41-3.86 18.86-3.86Z" fill="currentColor"/>
</svg>