<svg xmlns="http://www.w3.org/2000/svg" viewBox="0 0 24 24" width="24" height="24">
  <title>inset.filled.bottomleading.bottomtrailing.rectangle</title>
  <path transform="matrix(0.7179918664983873, 0, 0, 0.7179918664983873, -0.14556163230963381, 18.06647034076567)" d="M6.96 2.60L26.87 2.60C29.46 2.60 30.84 1.23 30.84-1.34L30.84-15.56C30.84-18.13 29.46-19.50 26.87-19.50L6.96-19.50C4.37-19.50 2.99-18.14 2.99-15.56L2.99-1.34C2.99 1.24 4.37 2.60 6.96 2.60ZM7.18-0.01C6.15-0.01 5.60-0.53 5.60-1.61L5.60-15.29C5.60-16.37 6.15-16.89 7.18-16.89L26.65-16.89C27.67-16.89 28.23-16.37 28.23-15.29L28.23-1.61C28.23-0.53 27.67-0.01 26.65-0.01ZM8.24-1.80L13.93-1.80C14.53-1.80 14.78-2.05 14.78-2.66L14.78-7.59C14.78-8.20 14.53-8.46 13.93-8.46L8.24-8.46C7.63-8.46 7.39-8.20 7.39-7.59L7.39-2.66C7.39-2.05 7.63-1.80 8.24-1.80ZM19.90-1.80L25.59-1.80C26.19-1.80 26.44-2.05 26.44-2.66L26.44-7.59C26.44-8.20 26.19-8.46 25.59-8.46L19.90-8.46C19.29-8.46 19.05-8.20 19.05-7.59L19.05-2.66C19.05-2.05 19.29-1.80 19.90-1.80Z" fill="currentColor"/>
</svg>