<svg xmlns="http://www.w3.org/2000/svg" viewBox="0 0 24 24" width="24" height="24">
  
  <path transform="matrix(0.7315330761537362, 0, 0, 0.7315330761537362, 3.9159879982854706, 18.19374196313759)" d="M5.60-5.05L2.99-5.05L2.99 1.65C2.99 3.82 4.42 5.20 6.66 5.20L19.90 5.20C22.13 5.20 23.55 3.82 23.55 1.65L23.55-18.57C23.55-20.74 22.13-22.14 19.90-22.14L6.66-22.14C4.42-22.14 2.99-20.74 2.99-18.57L2.99-11.88L5.60-11.88L5.60-18.15C5.60-19.03 6.09-19.52 7.02-19.52L19.52-19.52C20.45-19.52 20.94-19.03 20.94-18.15L20.94 1.23C20.94 2.10 20.45 2.60 19.52 2.60L7.02 2.60C6.09 2.60 5.60 2.10 5.60 1.23ZM-1.45-8.47C-1.45-7.80-0.91-7.27-0.28-7.27L9.06-7.27L10.78-7.38L10.01-6.79L8.33-5.21C8.11-5.00 7.98-4.72 7.98-4.42C7.98-3.86 8.40-3.36 9-3.36C9.32-3.36 9.54-3.48 9.75-3.69L13.45-7.55C13.76-7.85 13.86-8.16 13.86-8.47C13.86-8.79 13.76-9.08 13.45-9.40L9.75-13.25C9.54-13.46 9.32-13.58 9-13.58C8.40-13.58 7.98-13.10 7.98-12.53C7.98-12.23 8.11-11.93 8.33-11.73L10.01-10.16L10.79-9.56L9.06-9.67L-0.28-9.67C-0.91-9.67-1.45-9.14-1.45-8.47Z" fill="currentColor"/>
</svg>