<svg xmlns="http://www.w3.org/2000/svg" viewBox="0 0 24 24" width="24" height="24">
  <title>iphone.and.arrow.right.outward</title>
  <path transform="matrix(0.7612250966399049, 0, 0, 0.7612250966399049, -0.3818019625334528, 18.449598572702946)" d="M20.81-5.05L18.21-5.05L18.21 0.59C18.21 1.44 17.68 1.93 16.80 1.93L8.29 1.93C7.39 1.93 6.88 1.45 6.88 0.59L6.88-17.53C6.88-18.40 7.39-18.88 8.29-18.88L16.80-18.88C17.68-18.88 18.21-18.39 18.21-17.53L18.21-11.88L20.81-11.88L20.81-18.23C20.81-20.25 19.44-21.61 17.39-21.61L7.78-21.61C5.68-21.61 4.27-20.25 4.27-18.23L4.27 1.29C4.27 3.30 5.68 4.66 7.78 4.66L17.39 4.66C19.44 4.66 20.81 3.30 20.81 1.28ZM12.86-8.47C12.86-7.80 13.41-7.27 14.04-7.27L23.46-7.27L25.20-7.38L24.41-6.79L22.73-5.21C22.51-5.00 22.38-4.72 22.38-4.42C22.38-3.86 22.80-3.36 23.40-3.36C23.72-3.36 23.94-3.48 24.15-3.69L27.86-7.55C28.16-7.85 28.27-8.16 28.27-8.47C28.27-8.79 28.16-9.08 27.86-9.40L24.15-13.25C23.94-13.46 23.72-13.58 23.40-13.58C22.80-13.58 22.38-13.10 22.38-12.53C22.38-12.23 22.51-11.93 22.73-11.73L24.41-10.16L25.20-9.56L23.46-9.67L14.04-9.67C13.41-9.67 12.86-9.14 12.86-8.47Z" fill="currentColor"/>
</svg>