<svg xmlns="http://www.w3.org/2000/svg" viewBox="0 0 24 24" width="24" height="24">
  
  <path transform="matrix(0.8181527644614893, 0, 0, 0.8181527644614893, 0.28379674017257894, 18.922339405560884)" d="M14.32 3.76C21.07 3.76 26.54-1.71 26.54-8.46C26.54-15.21 21.07-20.68 14.32-20.68C7.57-20.68 2.10-15.21 2.10-8.46C2.10-1.71 7.57 3.76 14.32 3.76ZM14.32 1.08C9.05 1.08 4.78-3.19 4.78-8.46C4.78-13.73 9.05-18 14.32-18C19.59-18 23.86-13.73 23.86-8.46C23.86-3.19 19.59 1.08 14.32 1.08ZM10.32-3.62C10.32-2.64 11.04-1.95 12.07-1.95L16.57-1.95C17.61-1.95 18.32-2.64 18.32-3.62L18.32-13.30C18.32-14.29 17.61-14.98 16.57-14.98L12.07-14.98C11.04-14.98 10.32-14.29 10.32-13.30ZM13.11-13.79C13.11-13.95 13.22-14.05 13.35-14.05L15.29-14.05C15.43-14.05 15.53-13.95 15.53-13.79C15.53-13.65 15.43-13.56 15.29-13.56L13.35-13.56C13.22-13.56 13.11-13.65 13.11-13.79ZM11.52-4.20L11.52-12.73L17.12-12.73L17.12-4.20ZM7.83-5.24C8.00-5.43 7.96-5.68 7.76-5.92C7.14-6.61 6.81-7.50 6.81-8.46C6.81-9.42 7.14-10.31 7.76-11.00C7.96-11.24 8.00-11.50 7.83-11.70C7.66-11.91 7.35-11.91 7.13-11.68C6.34-10.82 5.91-9.68 5.91-8.46C5.91-7.25 6.34-6.11 7.13-5.24C7.35-5.02 7.66-5.02 7.83-5.24ZM20.82-5.24C20.99-5.02 21.30-5.02 21.53-5.24C22.31-6.11 22.75-7.25 22.75-8.46C22.75-9.68 22.31-10.82 21.53-11.68C21.30-11.91 20.99-11.91 20.82-11.70C20.65-11.50 20.70-11.24 20.89-11.00C21.52-10.31 21.84-9.42 21.84-8.46C21.84-7.50 21.52-6.61 20.89-5.92C20.70-5.68 20.65-5.43 20.82-5.24ZM19.23-6.56C19.41-6.33 19.76-6.34 19.95-6.60C20.36-7.11 20.60-7.77 20.60-8.46C20.60-9.16 20.36-9.81 19.95-10.34C19.76-10.58 19.41-10.59 19.23-10.37C19.07-10.17 19.11-9.94 19.29-9.69C19.55-9.38 19.68-8.94 19.68-8.46C19.68-7.98 19.55-7.56 19.29-7.24C19.11-6.98 19.07-6.76 19.23-6.56ZM9.42-6.56C9.59-6.76 9.54-6.98 9.36-7.24C9.11-7.56 8.98-7.98 8.98-8.46C8.98-8.94 9.11-9.38 9.36-9.69C9.54-9.94 9.59-10.17 9.42-10.37C9.25-10.59 8.89-10.58 8.71-10.34C8.29-9.81 8.05-9.16 8.05-8.46C8.05-7.77 8.29-7.11 8.71-6.60C8.89-6.34 9.25-6.33 9.42-6.56ZM14.33-2.65C14.05-2.65 13.80-2.89 13.80-3.18C13.80-3.46 14.05-3.69 14.33-3.69C14.61-3.69 14.84-3.46 14.84-3.18C14.84-2.89 14.61-2.65 14.33-2.65Z" fill="currentColor"/>
</svg>