<svg xmlns="http://www.w3.org/2000/svg" viewBox="0 0 24 24" width="24" height="24">
  <title>ipod.shuffle.gen4</title>
  <path transform="matrix(1.0968294772922023, 0, 0, 1.0968294772922023, -1.2776349614395888, 21.28020565552699)" d="M2.99-3.16C2.99-1.24 4.18 0 6.01 0L18.19 0C20.03 0 21.22-1.24 21.22-3.16L21.22-13.75C21.22-15.67 19.99-16.92 18.19-16.92L6.01-16.92C4.18-16.92 2.99-15.67 2.99-13.75ZM5.71-3.67L5.71-13.24C5.71-13.90 6.11-14.31 6.71-14.31L17.48-14.31C18.11-14.31 18.49-13.90 18.49-13.16L18.49-3.67C18.49-3.01 18.11-2.60 17.48-2.60L6.71-2.60C6.11-2.60 5.71-3.01 5.71-3.67ZM12.11-3.82C14.66-3.82 16.73-5.89 16.73-8.46C16.73-11.03 14.66-13.10 12.11-13.10C9.54-13.10 7.48-11.03 7.48-8.46C7.48-5.89 9.54-3.82 12.11-3.82ZM12.11-5.78C10.61-5.78 9.42-6.96 9.42-8.46C9.42-9.96 10.61-11.14 12.11-11.14C13.61-11.14 14.79-9.96 14.79-8.46C14.79-6.96 13.61-5.78 12.11-5.78Z" fill="currentColor"/>
</svg>