<svg xmlns="http://www.w3.org/2000/svg" viewBox="0 0 24 24" width="24" height="24">
  
  <path transform="matrix(0.6937669376693767, 0, 0, 0.6937669376693767, -0.9593495934959351, 17.670731707317074)" d="M7.78 4.66L10.18 4.66C9.16 3.52 8.41 1.97 8.21-0.07L6.88-0.07L6.88-16.86L18.21-16.86L18.21-9.50C19.07-9.59 19.95-9.61 20.81-9.62L20.81-18.23C20.81-20.25 19.44-21.61 17.39-21.61L7.78-21.61C5.68-21.61 4.27-20.25 4.27-18.23L4.27 1.30C4.27 3.32 5.68 4.66 7.78 4.66ZM12.56-18.47C12.13-18.47 11.78-18.82 11.78-19.25C11.78-19.68 12.13-20.02 12.56-20.02C12.98-20.02 13.32-19.68 13.32-19.25C13.32-18.82 12.98-18.47 12.56-18.47ZM21.45 2.67C22.91 2.67 24.41 5.26 27.66 5.26C30.79 5.26 33.09 2.48 33.09-1.20C33.09-7.29 27.73-7.91 21.45-7.91C15.18-7.91 9.81-7.28 9.81-1.20C9.81 2.48 12.11 5.26 15.25 5.26C18.49 5.26 19.97 2.67 21.45 2.67ZM21.45 0.48C18.66 0.48 17.70 3.04 15.23 3.04C13.23 3.04 12.01 1.49 12.01-1.20C12.01-5.14 15.18-5.71 21.45-5.71C27.73-5.71 30.89-5.16 30.89-1.20C30.89 1.49 29.68 3.04 27.67 3.04C25.21 3.04 24.23 0.48 21.45 0.48Z" fill="currentColor"/>
</svg>