<svg xmlns="http://www.w3.org/2000/svg" viewBox="0 0 24 24" width="24" height="24">
  
  <path transform="matrix(0.45511111111111113, 0, 0, 0.45511111111111113, 1.0453333333333332, 15.847999999999999)" d="M24.07 2.48C30.12 2.48 35.02-2.41 35.02-8.45C35.02-14.50 30.12-19.39 24.07-19.39C18.04-19.39 13.14-14.50 13.14-8.45C13.14-2.41 18.04 2.48 24.07 2.48ZM6.83-0.46C7.25-0.95 7.11-1.57 6.66-2.09C5.17-3.75 4.32-6 4.32-8.46C4.32-10.92 5.16-13.17 6.66-14.84C7.13-15.35 7.25-15.97 6.83-16.46C6.40-16.98 5.63-17.03 5.05-16.41C3.18-14.39 2.10-11.51 2.10-8.46C2.10-5.40 3.13-2.57 5.05-0.52C5.64 0.11 6.40 0.06 6.83-0.46ZM41.31-0.45C41.74 0.07 42.50 0.11 43.09-0.50C45.02-2.55 46.04-5.40 46.04-8.45C46.04-11.50 44.96-14.38 43.09-16.39C42.52-17.02 41.75-16.97 41.31-16.45C40.89-15.96 41.03-15.35 41.50-14.82C43.00-13.17 43.82-10.91 43.82-8.45C43.82-5.99 42.98-3.74 41.50-2.09C41.03-1.56 40.90-0.94 41.31-0.45ZM22.54-11.87L21.55-13.04C21.40-13.20 21.42-13.37 21.57-13.50L22.17-14.02C22.36-14.16 22.51-14.13 22.68-13.97L23.67-12.94C23.82-12.76 23.80-12.57 23.67-12.42L23.06-11.86C22.88-11.68 22.70-11.66 22.54-11.87ZM25.65-11.87C25.48-11.66 25.29-11.68 25.11-11.86L24.52-12.42C24.39-12.57 24.35-12.76 24.50-12.94L25.50-13.97C25.68-14.13 25.83-14.16 26.00-14.02L26.60-13.50C26.75-13.37 26.78-13.20 26.63-13.04ZM10.36-3.83C10.76-4.31 10.61-4.91 10.21-5.45C9.61-6.22 9.26-7.35 9.26-8.46C9.26-9.57 9.61-10.70 10.21-11.48C10.61-12.02 10.76-12.61 10.36-13.10C9.93-13.62 9.11-13.64 8.58-13.03C7.58-11.85 7.03-10.21 7.03-8.46C7.03-6.71 7.58-5.07 8.58-3.90C9.11-3.28 9.93-3.30 10.36-3.83ZM37.79-3.82C38.21-3.29 39.05-3.28 39.57-3.89C40.57-5.07 41.12-6.70 41.12-8.45C41.12-10.21 40.57-11.84 39.57-13.02C39.05-13.63 38.21-13.61 37.79-13.09C37.39-12.60 37.55-12.01 37.93-11.47C38.54-10.70 38.89-9.56 38.89-8.45C38.89-7.35 38.54-6.21 37.93-5.44C37.54-4.90 37.39-4.30 37.79-3.82ZM21.43-3.61C20.81-3.61 20.47-3.86 20.36-4.27L20.34-4.65L20.19-4.10C20.05-3.71 19.70-3.66 19.25-3.79L18.08-4.10C17.53-4.25 17.33-4.68 17.48-5.24L19.29-11.71C19.44-12.27 19.69-12.59 20.26-12.80L20.70-12.96L22.17-11.16C22.48-10.79 22.92-10.76 23.25-11.10L23.68-11.54L23.68-3.61ZM24.48-3.61L24.48-11.54L24.93-11.10C25.25-10.76 25.69-10.79 26.00-11.16L27.48-12.96L27.90-12.80C28.48-12.59 28.72-12.27 28.88-11.71L30.68-5.24C30.83-4.68 30.64-4.25 30.09-4.10L28.91-3.79C28.48-3.66 28.13-3.71 27.97-4.10L27.83-4.65L27.81-4.27C27.69-3.86 27.36-3.61 26.73-3.61ZM21.84-6.14L22.76-6.79C22.92-6.91 22.96-7.13 22.84-7.30C22.72-7.45 22.49-7.50 22.34-7.37L21.43-6.70C21.27-6.60 21.25-6.38 21.35-6.21C21.47-6.05 21.69-6.01 21.84-6.14ZM26.34-6.14C26.51-6.01 26.73-6.05 26.85-6.21C26.94-6.38 26.92-6.60 26.77-6.70L25.84-7.37C25.70-7.50 25.46-7.45 25.35-7.30C25.23-7.13 25.27-6.91 25.43-6.79Z" fill="currentColor"/>
</svg>