<svg xmlns="http://www.w3.org/2000/svg" viewBox="0 0 24 24" width="24" height="24">
  
  <path transform="matrix(0.45511111111111113, 0, 0, 0.45511111111111113, 1.0453333333333332, 15.847999999999999)" d="M24.07 2.48C30.12 2.48 35.02-2.41 35.02-8.45C35.02-14.50 30.12-19.39 24.07-19.39C18.04-19.39 13.14-14.50 13.14-8.45C13.14-2.41 18.04 2.48 24.07 2.48ZM6.83-0.46C7.25-0.95 7.11-1.57 6.66-2.09C5.17-3.75 4.32-6 4.32-8.46C4.32-10.92 5.16-13.17 6.66-14.84C7.13-15.35 7.25-15.97 6.83-16.46C6.40-16.98 5.63-17.03 5.05-16.41C3.18-14.39 2.10-11.51 2.10-8.46C2.10-5.40 3.13-2.57 5.05-0.52C5.64 0.11 6.40 0.06 6.83-0.46ZM41.31-0.45C41.74 0.07 42.50 0.11 43.09-0.50C45.02-2.55 46.04-5.40 46.04-8.45C46.04-11.50 44.96-14.38 43.09-16.39C42.52-17.02 41.75-16.97 41.31-16.45C40.89-15.96 41.03-15.35 41.50-14.82C43.00-13.17 43.82-10.91 43.82-8.45C43.82-5.99 42.98-3.74 41.50-2.09C41.03-1.56 40.90-0.94 41.31-0.45ZM24.07-0.08C19.45-0.08 15.70-3.83 15.70-8.45C15.70-13.08 19.45-16.82 24.07-16.82C28.70-16.82 32.44-13.08 32.44-8.45C32.44-3.83 28.70-0.08 24.07-0.08ZM22.62-11.74C22.78-11.54 22.95-11.55 23.12-11.73L23.70-12.28C23.84-12.41 23.85-12.60 23.71-12.76L22.75-13.75C22.59-13.91 22.44-13.93 22.28-13.80L21.69-13.30C21.55-13.17 21.54-13.02 21.67-12.87ZM25.59-11.74L26.54-12.87C26.67-13.02 26.66-13.17 26.52-13.30L25.93-13.80C25.77-13.93 25.62-13.91 25.46-13.75L24.50-12.76C24.35-12.60 24.39-12.41 24.50-12.28L25.08-11.73C25.25-11.57 25.43-11.54 25.59-11.74ZM10.36-3.83C10.76-4.31 10.61-4.91 10.21-5.45C9.61-6.22 9.26-7.35 9.26-8.46C9.26-9.57 9.61-10.70 10.21-11.48C10.61-12.02 10.76-12.61 10.36-13.10C9.93-13.62 9.11-13.64 8.58-13.03C7.58-11.85 7.03-10.21 7.03-8.46C7.03-6.71 7.58-5.07 8.58-3.90C9.11-3.28 9.93-3.30 10.36-3.83ZM37.79-3.82C38.21-3.29 39.05-3.28 39.57-3.89C40.57-5.07 41.12-6.70 41.12-8.45C41.12-10.21 40.57-11.84 39.57-13.02C39.05-13.63 38.21-13.61 37.79-13.09C37.39-12.60 37.55-12.01 37.93-11.47C38.54-10.70 38.89-9.56 38.89-8.45C38.89-7.35 38.54-6.21 37.93-5.44C37.54-4.90 37.39-4.30 37.79-3.82ZM21.56-3.83L23.72-3.83L23.72-11.44L23.30-11.00C22.98-10.69 22.57-10.71 22.27-11.06L20.86-12.79L20.45-12.63C19.90-12.43 19.66-12.13 19.51-11.59L17.79-5.39C17.64-4.85 17.82-4.45 18.35-4.31L19.48-4.00C19.90-3.88 20.23-3.94 20.37-4.30L20.52-4.85L20.53-4.46C20.64-4.07 20.96-3.83 21.56-3.83ZM24.48-3.83L26.64-3.83C27.23-3.83 27.55-4.07 27.67-4.46L27.68-4.85L27.83-4.30C27.96-3.94 28.30-3.88 28.72-4.00L29.85-4.31C30.38-4.45 30.56-4.85 30.41-5.39L28.69-11.59C28.54-12.13 28.30-12.43 27.75-12.63L27.35-12.79L25.93-11.06C25.64-10.72 25.22-10.69 24.90-11.00L24.48-11.44ZM26.26-6.25L25.38-6.88C25.23-7.00 25.20-7.21 25.31-7.36C25.42-7.51 25.64-7.55 25.78-7.43L26.66-6.80C26.81-6.69 26.85-6.48 26.74-6.32C26.63-6.16 26.41-6.13 26.26-6.25ZM21.95-6.25C21.80-6.13 21.59-6.16 21.48-6.32C21.39-6.48 21.40-6.69 21.56-6.80L22.43-7.43C22.58-7.55 22.80-7.51 22.91-7.36C23.03-7.21 22.99-7.00 22.84-6.88Z" fill="currentColor"/>
</svg>