<svg xmlns="http://www.w3.org/2000/svg" viewBox="0 0 24 24" width="24" height="24">
  
  <path transform="matrix(0.6609863155176865, 0, 0, 0.6609863155176865, 0.6134779240898529, 18.367157242447714)" d="M25.68 0.93C29.40 0.93 32.36-1.82 32.36-5.24C32.36-7.76 30.93-10.01 28.58-10.99C28.58-16.34 24.73-20.19 19.75-20.19C16.65-20.19 14.27-18.63 12.76-16.46C9.73-17.23 6.61-15 6.47-11.68C3.76-11.17 2.10-8.73 2.10-5.75C2.10-2.11 5.29 0.93 9.45 0.93ZM23.77-8.24C23.77-6.26 22.16-4.66 20.19-4.66C18.71-4.66 17.47-5.55 16.78-7.14L15.49-5.86C15.30-5.67 15.05-5.67 14.89-5.84L13.55-7.18L12.61-6.25C12.43-6.07 12.18-6.06 12-6.23L10.31-7.93C10.15-8.11 10.16-8.34 10.29-8.50L11.20-9.43C11.34-9.57 11.50-9.63 11.66-9.63L16.86-9.63C17.41-10.98 18.73-11.84 20.19-11.84C22.16-11.84 23.77-10.24 23.77-8.24ZM22.00-8.25C22.00-8.85 21.50-9.33 20.92-9.33C20.32-9.33 19.84-8.84 19.84-8.25C19.84-7.65 20.32-7.17 20.92-7.17C21.50-7.17 22.00-7.65 22.00-8.25Z" fill="currentColor"/>
</svg>