<svg xmlns="http://www.w3.org/2000/svg" viewBox="0 0 24 24" width="24" height="24">
  
  <path transform="matrix(0.45511111111111113, 0, 0, 0.45511111111111113, 1.0453333333333332, 15.847999999999999)" d="M24.07 2.48C30.12 2.48 35.02-2.41 35.02-8.45C35.02-14.50 30.12-19.39 24.07-19.39C18.04-19.39 13.14-14.50 13.14-8.45C13.14-2.41 18.04 2.48 24.07 2.48ZM6.83-0.46C7.25-0.95 7.11-1.57 6.66-2.09C5.17-3.75 4.32-6 4.32-8.46C4.32-10.92 5.16-13.17 6.66-14.84C7.13-15.35 7.25-15.97 6.83-16.46C6.40-16.98 5.63-17.03 5.05-16.41C3.18-14.39 2.10-11.51 2.10-8.46C2.10-5.40 3.13-2.57 5.05-0.52C5.64 0.11 6.40 0.06 6.83-0.46ZM41.31-0.45C41.74 0.07 42.50 0.11 43.09-0.50C45.02-2.55 46.04-5.40 46.04-8.45C46.04-11.50 44.96-14.38 43.09-16.39C42.52-17.02 41.75-16.97 41.31-16.45C40.89-15.96 41.03-15.35 41.50-14.82C43.00-13.17 43.82-10.91 43.82-8.45C43.82-5.99 42.98-3.74 41.50-2.09C41.03-1.56 40.90-0.94 41.31-0.45ZM24.07-0.08C19.45-0.08 15.70-3.83 15.70-8.45C15.70-13.08 19.45-16.82 24.07-16.82C28.70-16.82 32.44-13.08 32.44-8.45C32.44-3.83 28.70-0.08 24.07-0.08ZM24.08-15C22.07-15 20.45-13.39 20.45-11.38C20.45-9.89 21.30-8.58 22.69-8.02L22.69-2.74C22.69-2.57 22.73-2.41 22.86-2.29L23.84-1.36C23.98-1.23 24.23-1.20 24.39-1.37L26.12-3.09C26.30-3.26 26.29-3.53 26.12-3.70L25.16-4.65L26.52-6.01C26.68-6.18 26.70-6.43 26.51-6.61L25.22-7.93C26.82-8.64 27.71-9.89 27.71-11.38C27.71-13.38 26.11-15 24.08-15ZM24.08-11.55C23.52-11.55 23.07-12 23.07-12.56C23.07-13.13 23.52-13.57 24.08-13.57C24.64-13.57 25.09-13.13 25.09-12.56C25.09-12 24.64-11.55 24.08-11.55ZM10.36-3.83C10.76-4.31 10.61-4.91 10.21-5.45C9.61-6.22 9.26-7.35 9.26-8.46C9.26-9.57 9.61-10.70 10.21-11.48C10.61-12.02 10.76-12.61 10.36-13.10C9.93-13.62 9.11-13.64 8.58-13.03C7.58-11.85 7.03-10.21 7.03-8.46C7.03-6.71 7.58-5.07 8.58-3.90C9.11-3.28 9.93-3.30 10.36-3.83ZM37.79-3.82C38.21-3.29 39.05-3.28 39.57-3.89C40.57-5.07 41.12-6.70 41.12-8.45C41.12-10.21 40.57-11.84 39.57-13.02C39.05-13.63 38.21-13.61 37.79-13.09C37.39-12.60 37.55-12.01 37.93-11.47C38.54-10.70 38.89-9.56 38.89-8.45C38.89-7.35 38.54-6.21 37.93-5.44C37.54-4.90 37.39-4.30 37.79-3.82Z" fill="currentColor"/>
</svg>