<svg xmlns="http://www.w3.org/2000/svg" viewBox="0 0 24 24" width="24" height="24">
  
  <path transform="matrix(0.6691988036489758, 0, 0, 0.6691988036489758, 0.9778251734925532, 17.80021587768278)" d="M25.83-7.29C26.30-6.87 26.98-6.90 27.46-7.49C29.07-9.49 29.95-12.36 29.95-15.32C29.95-18.26 29.03-21.18 27.46-23.13C26.98-23.72 26.30-23.74 25.83-23.33C25.36-22.93 25.36-22.31 25.77-21.80C27.06-20.10 27.79-17.75 27.79-15.32C27.79-12.87 27.04-10.54 25.77-8.82C25.37-8.31 25.37-7.69 25.83-7.29ZM10.08 5.88C10.65 6.38 11.44 6.43 11.98 5.89L15.60 2.27C16.14 1.73 16.13 0.90 15.59 0.36L13.92-1.30L16.43-3.80C16.95-4.32 16.95-5.17 16.41-5.71L14.16-7.97C17.30-9.57 19.07-12.21 19.07-15.32C19.07-19.76 15.48-23.33 11.03-23.33C6.56-23.33 2.99-19.77 2.99-15.32C2.99-12.15 4.78-9.32 7.64-8.00L7.64 2.95C7.64 3.39 7.78 3.90 8.16 4.22ZM11.03 3.64L9.77 2.40L9.77-9.66C7.15-10.22 5.24-12.54 5.24-15.32C5.24-18.50 7.82-21.07 11.03-21.07C14.23-21.07 16.80-18.50 16.80-15.32C16.80-12.56 14.87-10.22 11.95-9.60L11.95-6.95L14.16-4.73L11.82-2.44L11.82-0.20L13.35 1.30ZM21.55-10.45C21.98-10.05 22.70-10.10 23.16-10.66C24.06-11.78 24.57-13.51 24.57-15.32C24.57-17.11 24.06-18.83 23.16-19.97C22.70-20.53 21.98-20.58 21.55-20.17C21.08-19.75 21.06-19.13 21.45-18.60C22.04-17.78 22.42-16.52 22.42-15.32C22.42-14.11 22.03-12.86 21.45-12.04C21.07-11.50 21.08-10.88 21.55-10.45ZM11.03-15.60C12.07-15.60 12.93-16.45 12.93-17.50C12.93-18.54 12.07-19.38 11.03-19.38C9.97-19.38 9.14-18.54 9.14-17.50C9.14-16.45 9.98-15.60 11.03-15.60Z" fill="currentColor"/>
</svg>