<svg xmlns="http://www.w3.org/2000/svg" viewBox="0 0 24 24" width="24" height="24">
  
  <path transform="matrix(0.7960199004975125, 0, 0, 0.7960199004975125, 0.3302238805970148, 17.671641791044777)" d="M14.66-2.05C22.51-2.05 27.22-5.59 27.22-9.96C27.22-14.34 22.51-17.87 14.65-17.87C6.81-17.87 2.10-14.34 2.10-9.96C2.10-5.59 6.81-2.05 14.66-2.05ZM13.10-6C12.35-6 11.89-6.52 11.89-7.35L11.89-13.05C11.89-13.88 12.36-14.39 13.10-14.39C13.86-14.39 14.32-13.88 14.32-13.05L14.32-8.00L16.88-8.00C17.52-8.00 17.93-7.62 17.93-7.01C17.93-6.40 17.52-6 16.88-6ZM14.66 3.62C17.81 3.62 19.73 2.16 19.73-0.35L19.73-0.80C18.16-0.45 16.48-0.26 14.66-0.26C12.86-0.26 11.16-0.45 9.60-0.80L9.60-0.35C9.60 2.16 11.52 3.62 14.66 3.62Z" fill="currentColor"/>
</svg>