<svg xmlns="http://www.w3.org/2000/svg" viewBox="0 0 24 24" width="24" height="24">
  
  <path transform="matrix(0.7268597387847814, 0, 0, 0.7268597387847814, -0.17206132879046, 18.14565587734242)" d="M12.89 2.09L20.60 2.09C27.52 2.09 30.50-1.00 30.50-7.69L30.50-15.12C30.50-17.65 29.14-19.00 26.59-19.00L6.90-19.00C4.36-19.00 2.99-17.65 2.99-15.12L2.99-7.69C2.99-1.00 5.98 2.09 12.89 2.09ZM12.97-0.53C7.80-0.53 5.60-2.73 5.60-7.63L5.60-14.85C5.60-15.86 6.14-16.39 7.14-16.39L26.37-16.39C27.35-16.39 27.90-15.86 27.90-14.85L27.90-7.63C27.90-2.73 25.69-0.53 20.53-0.53ZM20.14-3.70C20.66-3.70 21.08-4.13 21.08-4.65L21.08-12.16C21.08-12.84 20.67-13.23 19.99-13.23C19.46-13.23 19.07-12.97 18.74-12.71L17.58-11.82C17.33-11.64 17.17-11.39 17.17-11.07C17.17-10.64 17.46-10.39 17.82-10.39C18.01-10.39 18.14-10.45 18.28-10.56L19.20-11.30L19.20-4.65C19.20-4.13 19.62-3.70 20.14-3.70ZM13.16-3.83L16.28-3.83C16.70-3.83 17.05-4.18 17.05-4.61C17.05-5.03 16.70-5.39 16.28-5.39L14.11-5.39L14.11-12.28C14.11-12.79 13.69-13.21 13.18-13.21C12.66-13.21 12.23-12.79 12.23-12.28L12.23-4.80C12.23-4.21 12.57-3.83 13.16-3.83Z" fill="currentColor"/>
</svg>