<svg xmlns="http://www.w3.org/2000/svg" viewBox="0 0 24 24" width="24" height="24">
  <title>l4.button.horizontal</title>
  <path transform="matrix(0.7134894091415831, 0, 0, 0.7134894091415831, -0.13210702341137148, 18.036789297658864)" d="M12.29 2.40L21.71 2.40C28.63 2.40 31.02-0.08 31.02-6.68L31.02-10.24C31.02-16.84 28.63-19.32 21.71-19.32L12.29-19.32C5.38-19.32 2.99-16.84 2.99-10.24L2.99-6.68C2.99-0.08 5.38 2.40 12.29 2.40ZM12.29-0.21C7.21-0.21 5.60-1.82 5.60-6.68L5.60-10.24C5.60-15.11 7.21-16.71 12.29-16.71L21.71-16.71C26.80-16.71 28.41-15.11 28.41-10.24L28.41-6.68C28.41-1.82 26.80-0.21 21.71-0.21ZM21.20-3.69C21.69-3.69 22.09-3.97 22.09-4.61L22.09-5.58L22.39-5.58C22.91-5.58 23.12-5.91 23.12-6.32C23.12-6.76 22.90-7.05 22.41-7.05L22.09-7.05L22.09-11.85C22.09-12.73 21.50-13.22 20.66-13.22C19.64-13.22 19.24-12.59 18.90-11.73L17.18-7.82C16.99-7.36 16.91-7.00 16.91-6.61C16.91-5.98 17.31-5.58 17.98-5.58L20.31-5.58L20.31-4.61C20.31-3.95 20.77-3.69 21.20-3.69ZM12.23-3.83L15.35-3.83C15.77-3.83 16.13-4.18 16.13-4.61C16.13-5.04 15.77-5.39 15.35-5.39L13.18-5.39L13.18-12.28C13.18-12.79 12.76-13.22 12.26-13.22C11.73-13.22 11.31-12.79 11.31-12.28L11.31-4.82C11.31-4.21 11.65-3.83 12.23-3.83ZM20.36-7.01L18.47-7.01L18.47-7.09L20.31-11.66L20.36-11.66Z" fill="currentColor"/>
</svg>