<svg xmlns="http://www.w3.org/2000/svg" viewBox="0 0 24 24" width="24" height="24">
  <title>laptopcomputer.slash</title>
  <path transform="matrix(0.5707915273132664, 0, 0, 0.5707915273132664, 0.29431438127090304, 16.813958234421985)" d="M31.28 3.74C31.65 4.11 32.26 4.10 32.63 3.74C33 3.36 33.01 2.77 32.64 2.39L9.66-20.60C9.29-20.98 8.67-20.98 8.30-20.60C7.93-20.24 7.93-19.61 8.30-19.24ZM33.95 1.55L36.42 1.55C37.30 1.55 38.03 0.82 38.03-0.07C38.03-0.95 37.30-1.68 36.42-1.68L34.01-1.68L34.01-15.43C34.01-17.39 32.92-18.46 30.97-18.46L13.96-18.46L16.57-15.84L30.32-15.84C31.03-15.84 31.39-15.50 31.39-14.77L31.39-1.73L30.68-1.73ZM23.72-1.68L9.62-1.68L9.62-14.77C9.62-15.11 9.74-15.34 9.95-15.46L7.83-17.58C7.30-17.11 7.01-16.39 7.01-15.43L7.01-1.68L4.59-1.68C3.71-1.68 2.99-0.95 2.99-0.07C2.99 0.82 3.71 1.55 4.59 1.55L26.94 1.55Z" fill="currentColor"/>
</svg>