<svg xmlns="http://www.w3.org/2000/svg" viewBox="0 0 24 24" width="24" height="24">
  <title>larisign.square</title>
  <path transform="matrix(0.9044338456103161, 0, 0, 0.9044338456103161, -0.6974032856385799, 19.64705882352941)" d="M6.96 2.60L21.12 2.60C23.72 2.60 25.09 1.23 25.09-1.34L25.09-15.57C25.09-18.14 23.72-19.51 21.12-19.51L6.96-19.51C4.37-19.51 2.99-18.14 2.99-15.57L2.99-1.34C2.99 1.23 4.37 2.60 6.96 2.60ZM7.18-0.01C6.15-0.01 5.60-0.53 5.60-1.61L5.60-15.29C5.60-16.37 6.15-16.90 7.18-16.90L20.91-16.90C21.91-16.90 22.49-16.37 22.49-15.29L22.49-1.61C22.49-0.53 21.91-0.01 20.91-0.01ZM9.86-3.34L17.66-3.34C18.13-3.34 18.43-3.62 18.43-4.07C18.43-4.51 18.13-4.79 17.66-4.79L15.05-4.79C12.57-4.79 10.84-6.59 10.84-8.74C10.84-10.25 11.58-11.34 12.73-11.82L12.73-9.07C12.73-8.86 12.88-8.71 13.09-8.71C13.30-8.71 13.45-8.86 13.45-9.07L13.45-12.04C13.68-12.07 13.92-12.09 14.17-12.09C14.41-12.09 14.67-12.07 14.91-12.02L14.91-9.07C14.91-8.86 15.06-8.71 15.27-8.71C15.48-8.71 15.63-8.86 15.63-9.07L15.63-11.79C16.62-11.36 17.31-10.48 17.40-9.39C17.46-8.94 17.73-8.60 18.21-8.60C18.69-8.60 19.02-8.92 19.02-9.40C19.02-11.23 17.55-12.82 15.63-13.37L15.63-14.54C15.63-14.74 15.48-14.91 15.27-14.91C15.06-14.91 14.91-14.74 14.91-14.54L14.91-13.54C14.66-13.57 14.40-13.58 14.16-13.58C13.91-13.58 13.68-13.57 13.45-13.55L13.45-14.54C13.45-14.74 13.30-14.91 13.09-14.91C12.88-14.91 12.73-14.74 12.73-14.54L12.73-13.41C10.68-12.89 9.16-11.25 9.16-9.04C9.16-7.32 9.94-5.61 11.54-4.79L11.54-4.75L9.86-4.75C9.39-4.75 9.09-4.48 9.09-4.05C9.09-3.61 9.39-3.34 9.86-3.34Z" fill="currentColor"/>
</svg>