<svg xmlns="http://www.w3.org/2000/svg" viewBox="0 0 24 24" width="24" height="24">
  <title>lasso</title>
  <path transform="matrix(0.7960199004975125, 0, 0, 0.7960199004975125, 0.3302238805970148, 17.699626865671643)" d="M2.10-8.52C2.10-2.99 6.81 0.34 12.96 0.34C13.48 0.34 13.86 0.33 14.21 0.30C14.74 0.52 15.36 0.63 16.05 0.63C17.79 0.63 19.52 0.18 21.09-0.61C21.09-0.59 21.09-0.55 21.09-0.53C21.09 0.75 20.32 2.05 19.05 2.88C18.60 3.20 18.32 3.54 18.32 4.05C18.32 4.68 18.81 5.17 19.54 5.17C19.85 5.17 20.07 5.09 20.36 4.90C22.28 3.63 23.48 1.55 23.48-0.55C23.48-1.07 23.43-1.57 23.31-2.04C25.64-3.93 27.22-6.62 27.22-9.54C27.22-15.45 22.24-19.49 15.80-19.49C8.68-19.49 2.10-15.05 2.10-8.52ZM4.49-8.51C4.49-13.58 10.01-17.10 15.81-17.10C20.84-17.10 24.83-14.09 24.83-9.55C24.83-7.56 23.79-5.67 22.23-4.24C21.15-5.57 19.49-6.36 17.54-6.36C14.51-6.36 12.29-4.77 12.29-2.44C12.29-2.31 12.29-2.18 12.30-2.06C7.84-2.30 4.49-4.52 4.49-8.51ZM14.70-2.46C14.70-3.34 16.00-3.96 17.70-3.96C18.75-3.96 19.65-3.55 20.26-2.86C18.96-2.16 17.50-1.75 16.05-1.75C15.28-1.75 14.70-2.03 14.70-2.46Z" fill="currentColor"/>
</svg>