<svg xmlns="http://www.w3.org/2000/svg" viewBox="0 0 24 24" width="24" height="24">
  <title>latch.2.case</title>
  <path transform="matrix(0.7105190119344991, 0, 0, 0.7105190119344991, -0.1232306411323898, 18.01165695253955)" d="M6.90 3.42L27.21 3.42C29.79 3.42 31.14 2.10 31.14-0.46L31.14-11.99C31.14-14.54 29.79-15.87 27.21-15.87L23.34-15.87L23.34-17.04C23.34-19.27 22.11-20.34 19.85-20.34L14.26-20.34C12.07-20.34 10.78-19.27 10.78-17.04L10.78-15.87L6.90-15.87C4.34-15.87 2.99-14.54 2.99-11.99L2.99-0.46C2.99 2.10 4.34 3.42 6.90 3.42ZM13.14-16.95C13.14-17.74 13.59-18.19 14.41-18.19L19.71-18.19C20.53-18.19 20.99-17.74 20.99-16.95L20.99-15.87L13.14-15.87ZM25.70-9.81C25.70-10.76 25.15-11.30 24.20-11.30L21.36-11.30C20.41-11.30 19.86-10.76 19.86-9.81L19.86-9.79L14.25-9.79L14.25-9.81C14.25-10.76 13.70-11.30 12.75-11.30L9.91-11.30C8.96-11.30 8.41-10.76 8.41-9.81L8.41-9.79L5.60-9.79L5.60-11.93C5.60-12.90 6.11-13.39 7.04-13.39L27.08-13.39C28.02-13.39 28.52-12.90 28.52-11.93L28.52-9.79L25.70-9.79ZM7.04 0.95C6.11 0.95 5.60 0.46 5.60-0.52L5.60-7.61L8.41-7.61L8.41-7.58C8.41-6.63 8.96-6.08 9.91-6.08L12.75-6.08C13.70-6.08 14.25-6.63 14.25-7.58L14.25-7.61L19.86-7.61L19.86-7.58C19.86-6.63 20.41-6.08 21.36-6.08L24.20-6.08C25.15-6.08 25.70-6.63 25.70-7.58L25.70-7.61L28.52-7.61L28.52-0.52C28.52 0.46 28.02 0.95 27.08 0.95Z" fill="currentColor"/>
</svg>