<svg xmlns="http://www.w3.org/2000/svg" viewBox="0 0 24 24" width="24" height="24">
  
  <path transform="matrix(0.7868449362225296, 0, 0, 0.7868449362225296, 0.3494698017519593, 18.472516221188798)" d="M2.10-14.29C2.10-5.38 7.46 0.49 15.69 0.49C18.74 0.49 21.33-0.56 23.09-2.33C23.67-1.05 23.98 0.39 24.49 2.02C24.69 2.65 25.15 2.95 25.69 2.95C26.70 2.95 27.52 2.02 27.52 0.91C27.52-0.50 26.18-2.79 24.80-4.79C25.31-5.92 25.58-7.20 25.58-8.57C25.58-13.66 21.45-17.36 15.74-17.36C13.78-17.36 11.86-16.82 9.75-16.82C7.98-16.82 6.53-17.36 5.31-18.74C4.44-19.75 2.84-19.66 2.46-18.13C2.17-16.97 2.10-14.93 2.10-14.29ZM9-11.36C9.69-9.22 11.93-8.16 14.84-7.48C18.67-6.57 20.34-5.85 21.74-4.34C20.41-2.78 18.29-1.86 15.69-1.86C8.80-1.86 4.45-6.67 4.45-14.29C4.45-14.85 4.45-15.48 4.52-15.95C4.55-16.15 4.65-16.17 4.79-16.08C6.09-15.05 7.99-14.46 9.75-14.46C11.03-14.46 12.20-14.64 13.24-14.77C14.17-14.91 14.96-15 15.74-15C20.14-15 23.24-12.33 23.24-8.57C23.24-7.93 23.16-7.34 23.02-6.79C21.35-8.07 18.94-8.87 15.56-9.40C13.08-9.79 11.21-10.36 10.01-11.89C9.53-12.47 8.77-12.07 9-11.36Z" fill="currentColor"/>
</svg>