<svg xmlns="http://www.w3.org/2000/svg" viewBox="0 0 24 24" width="24" height="24">
  <title>lessthanorequalto.square.fill</title>
  <path transform="matrix(0.9044338456103161, 0, 0, 0.9044338456103161, -0.6974032856385799, 19.64705882352941)" d="M6.96 2.60L21.12 2.60C23.72 2.60 25.09 1.23 25.09-1.34L25.09-15.57C25.09-18.14 23.72-19.51 21.12-19.51L6.96-19.51C4.37-19.51 2.99-18.14 2.99-15.57L2.99-1.34C2.99 1.23 4.37 2.60 6.96 2.60ZM16.83-6.25C16.66-6.25 16.50-6.28 16.23-6.41L10.28-9.11C9.66-9.38 9.41-9.76 9.41-10.32C9.41-10.86 9.66-11.29 10.28-11.57L16.23-14.26C16.50-14.38 16.66-14.40 16.83-14.40C17.47-14.40 17.91-13.85 17.91-13.34C17.91-12.93 17.66-12.54 17.24-12.35L12.69-10.35L12.69-10.31L17.24-8.31C17.66-8.13 17.91-7.75 17.91-7.32C17.91-6.82 17.47-6.25 16.83-6.25ZM9.30-3.54C9.30-4.14 9.79-4.62 10.42-4.62L17.23-4.62C17.86-4.62 18.34-4.14 18.34-3.54C18.34-2.98 17.86-2.50 17.23-2.50L10.42-2.50C9.79-2.50 9.30-2.98 9.30-3.54Z" fill="currentColor"/>
</svg>