<svg xmlns="http://www.w3.org/2000/svg" viewBox="0 0 24 24" width="24" height="24">
  <title>lightbulb.max.fill</title>
  <path transform="matrix(0.6019988242210464, 0, 0, 0.6019988242210464, 1.3650793650793658, 19.841269841269842)" d="M16.37-26.05C16.37-25.36 16.96-24.76 17.66-24.76C18.38-24.76 18.96-25.36 18.96-26.05L18.96-28.34C18.96-29.04 18.36-29.64 17.66-29.64C16.96-29.64 16.37-29.04 16.37-28.34ZM24.64-23.75C24.15-23.25 24.14-22.44 24.64-21.94C25.16-21.42 25.97-21.43 26.47-21.94L28.08-23.55C28.58-24.06 28.58-24.86 28.08-25.37C27.57-25.88 26.77-25.88 26.26-25.37ZM8.86-21.94C9.35-21.43 10.17-21.42 10.68-21.94C11.19-22.44 11.18-23.25 10.68-23.75L9.07-25.37C8.58-25.88 7.75-25.88 7.24-25.37C6.74-24.86 6.74-24.06 7.24-23.55ZM17.66-22.82C13.46-22.82 10.09-19.78 10.09-15.81C10.09-11.66 12.53-10.39 13.15-3.43C13.21-2.80 13.59-2.41 14.24-2.41L21.08-2.41C21.73-2.41 22.11-2.80 22.17-3.43C22.80-10.39 25.24-11.66 25.24-15.81C25.24-19.78 21.86-22.82 17.66-22.82ZM6.55-13.66C7.25-13.66 7.86-14.24 7.86-14.94C7.86-15.66 7.25-16.24 6.55-16.24L4.28-16.24C3.57-16.24 2.99-15.64 2.99-14.94C2.99-14.25 3.57-13.66 4.28-13.66ZM31.04-13.66C31.75-13.66 32.34-14.25 32.34-14.94C32.34-15.64 31.75-16.24 31.04-16.24L28.76-16.24C28.07-16.24 27.47-15.66 27.47-14.94C27.47-14.24 28.07-13.66 28.76-13.66ZM14.13 0.26L21.20 0.26C21.64 0.26 22.00-0.09 22.00-0.53C22.00-0.97 21.64-1.32 21.20-1.32L14.13-1.32C13.68-1.32 13.34-0.97 13.34-0.53C13.34-0.09 13.68 0.26 14.13 0.26ZM17.66 3.59C19.45 3.59 20.88 2.68 20.96 1.36L14.34 1.36C14.43 2.68 15.87 3.59 17.66 3.59Z" fill="currentColor"/>
</svg>