<svg xmlns="http://www.w3.org/2000/svg" viewBox="0 0 24 24" width="24" height="24">
  <title>light.recessed.3.fill</title>
  <path transform="matrix(0.518113742157458, 0, 0, 0.518113742157458, 0.45173041894353383, 15.105646630236794)" d="M12.14-6.16C17.29-6.16 21.26-8.63 21.26-11.88C21.26-15.14 17.29-17.61 12.14-17.61C6.97-17.61 2.99-15.14 2.99-11.88C2.99-8.61 6.97-6.16 12.14-6.16ZM32.46-6.15C37.61-6.15 41.59-8.61 41.59-11.87C41.59-15.13 37.61-17.60 32.46-17.60C27.28-17.60 23.32-15.14 23.32-11.87C23.32-8.61 27.28-6.15 32.46-6.15ZM12.13-8.46C8.82-8.46 6.36-9.87 6.36-11.75C6.36-13.64 8.82-15.05 12.13-15.05C15.45-15.05 17.91-13.64 17.91-11.75C17.91-9.88 15.45-8.46 12.13-8.46ZM32.46-8.45C29.14-8.45 26.67-9.87 26.67-11.74C26.67-13.63 29.14-15.05 32.46-15.05C35.77-15.05 38.24-13.63 38.24-11.74C38.24-9.87 35.77-8.45 32.46-8.45ZM7.57-11.75C7.57-10.61 9.60-9.67 12.12-9.67C14.66-9.67 16.71-10.61 16.71-11.75C16.71-12.16 16.45-12.53 16.02-12.84C15.23-11.88 13.76-11.24 12.12-11.24C10.49-11.24 9.01-11.87 8.19-12.82C7.80-12.53 7.57-12.16 7.57-11.75ZM27.89-11.74C27.89-10.59 29.92-9.66 32.45-9.66C34.98-9.66 37.03-10.59 37.03-11.74C37.03-12.16 36.77-12.53 36.34-12.84C35.55-11.87 34.08-11.23 32.45-11.23C30.82-11.23 29.33-11.86 28.52-12.82C28.13-12.52 27.89-12.14 27.89-11.74ZM22.30 5.63C27.46 5.63 31.42 3.15 31.42-0.09C31.42-3.36 27.46-5.84 22.30-5.84C17.12-5.84 13.16-3.36 13.16-0.09C13.16 3.16 17.12 5.63 22.30 5.63ZM22.29 3.33C18.98 3.33 16.51 1.91 16.51 0.02C16.51-1.86 18.98-3.27 22.29-3.27C25.61-3.27 28.08-1.86 28.08 0.02C28.08 1.90 25.61 3.33 22.29 3.33ZM17.74 0.02C17.74 1.17 19.76 2.12 22.29 2.12C24.82 2.12 26.87 1.17 26.87 0.02C26.87-0.39 26.61-0.75 26.18-1.07C25.41-0.09 23.92 0.54 22.29 0.54C20.65 0.54 19.16-0.08 18.35-1.04C17.98-0.74 17.74-0.38 17.74 0.02Z" fill="currentColor"/>
</svg>