<svg xmlns="http://www.w3.org/2000/svg" viewBox="0 0 24 24" width="24" height="24">
  <title>line.diagonal.trianglehead.up.right.left.down</title>
  <path transform="matrix(0.9136653983476818, 0, 0, 0.9136653983476818, -0.4561407937392481, 19.71440530675201)" d="M12.60-1.45L10.54-3.52L18.56-11.52L20.60-9.48C21.25-8.84 22.17-9.21 22.42-10.11L24.54-18C24.75-18.84 24-19.57 23.17-19.35L15.30-17.23C14.40-16.98 14.03-16.08 14.67-15.43L16.72-13.37L8.70-5.36L6.66-7.41C6.01-8.05 5.09-7.68 4.84-6.76L2.73 1.11C2.51 1.96 3.27 2.68 4.10 2.46L11.95 0.34C12.87 0.11 13.24-0.81 12.60-1.45Z" fill="currentColor"/>
</svg>