<svg xmlns="http://www.w3.org/2000/svg" viewBox="0 0 24 24" width="24" height="24">
  <title>lirasign</title>
  <path transform="matrix(0.9598800149981253, 0, 0, 0.9598800149981253, 1.0269966254218228, 20.13273340832396)" d="M4.63 1.95L18.28 1.95C19.16 1.95 19.79 1.39 19.79 0.53C19.79-0.34 19.15-0.89 18.28-0.89L8.09-0.89L8.09-1.00C9.90-1.75 10.66-3.88 10.66-5.72C10.66-5.86 10.66-6 10.65-6.14L16.30-6.14C16.77-6.14 17.11-6.47 17.11-6.93C17.11-7.38 16.77-7.71 16.30-7.71L10.45-7.71C10.34-8.25 10.20-8.73 10.05-9.20L16.30-9.20C16.77-9.20 17.11-9.54 17.11-10.00C17.11-10.44 16.77-10.78 16.30-10.78L9.66-10.78C9.59-11.20 9.54-11.66 9.54-12.18C9.54-14.81 11.68-16.07 14.37-16.07C15.06-16.07 15.68-16.00 16.25-15.88C16.71-15.81 17.41-15.64 17.82-15.64C18.57-15.64 19.07-16.07 19.07-16.83C19.07-17.60 18.52-18.04 17.88-18.28C16.66-18.80 15.21-18.89 13.89-18.89C9.52-18.89 6.06-16.66 6.06-12.40C6.06-11.84 6.13-11.30 6.22-10.78L3.88-10.78C3.41-10.78 3.07-10.44 3.07-10.00C3.07-9.54 3.41-9.20 3.88-9.20L6.60-9.20C6.74-8.71 6.89-8.21 7.01-7.71L3.88-7.71C3.41-7.71 3.07-7.38 3.07-6.93C3.07-6.47 3.41-6.14 3.88-6.14L7.28-6.14C7.30-5.95 7.30-5.77 7.30-5.57C7.30-3.61 6.28-1.83 4.34-1.08C3.69-0.77 3.16-0.29 3.16 0.52C3.16 1.32 3.74 1.95 4.63 1.95Z" fill="currentColor"/>
</svg>