<svg xmlns="http://www.w3.org/2000/svg" viewBox="0 0 24 24" width="24" height="24">
  
  <path transform="matrix(0.6937669376693767, 0, 0, 0.6937669376693767, 2.8780487804878048, 18.357723577235774)" d="M9.55-17.37L16.75-17.37C17.47-17.37 17.92-17.82 17.92-18.60L17.92-19.84C17.92-20.61 17.47-21.07 16.75-21.07L15.82-21.07C15.73-22.45 14.58-23.58 13.15-23.58C11.72-23.58 10.57-22.45 10.48-21.07L9.55-21.07C8.82-21.07 8.38-20.61 8.38-19.84L8.38-18.60C8.38-17.82 8.82-17.37 9.55-17.37ZM13.15-19.92C12.57-19.92 12.11-20.40 12.11-20.96C12.11-21.54 12.57-22.01 13.15-22.01C13.72-22.01 14.19-21.54 14.19-20.96C14.19-20.40 13.72-19.92 13.15-19.92ZM6.94 5.25L19.36 5.25C21.90 5.25 23.31 3.83 23.31 1.25L23.31-16.46C23.31-19.03 21.90-20.46 19.44-20.46L19.22-20.46C19.29-20.31 19.31-20.12 19.31-19.95L19.31-18.60C19.31-17.06 18.28-15.96 16.75-15.96L9.55-15.96C8.02-15.96 6.98-17.06 6.98-18.60L6.98-19.95C6.98-20.12 7.01-20.31 7.08-20.46L6.86-20.46C4.39-20.46 2.99-19.03 2.99-16.46L2.99 1.25C2.99 3.83 4.39 5.25 6.94 5.25ZM8.21-9.95C7.58-9.95 7.05-10.49 7.05-11.11C7.05-11.75 7.58-12.27 8.21-12.27C8.86-12.27 9.38-11.77 9.38-11.11C9.38-10.48 8.86-9.95 8.21-9.95ZM11.61-10.18C11.10-10.18 10.68-10.61 10.68-11.11C10.68-11.63 11.10-12.06 11.61-12.06L18.30-12.06C18.82-12.06 19.24-11.63 19.24-11.11C19.24-10.61 18.82-10.18 18.30-10.18ZM8.21-5.66C7.57-5.66 7.05-6.18 7.05-6.82C7.05-7.45 7.57-7.97 8.21-7.97C8.86-7.97 9.38-7.46 9.38-6.82C9.38-6.18 8.86-5.66 8.21-5.66ZM11.61-5.88C11.07-5.88 10.68-6.29 10.68-6.82C10.68-7.34 11.09-7.75 11.61-7.75L18.30-7.75C18.82-7.75 19.24-7.34 19.24-6.82C19.24-6.29 18.83-5.88 18.30-5.88ZM8.21-1.13C7.58-1.13 7.05-1.65 7.05-2.29C7.05-2.92 7.58-3.45 8.21-3.45C8.86-3.45 9.38-2.93 9.38-2.29C9.38-1.64 8.86-1.13 8.21-1.13ZM11.61-1.35C11.10-1.35 10.68-1.78 10.68-2.29C10.68-2.80 11.09-3.20 11.61-3.20L18.30-3.20C18.82-3.20 19.24-2.80 19.24-2.29C19.24-1.78 18.82-1.35 18.30-1.35Z" fill="currentColor"/>
</svg>