<svg xmlns="http://www.w3.org/2000/svg" viewBox="0 0 24 24" width="24" height="24">
  
  <path transform="matrix(0.8500808908289431, 0, 0, 0.8500808908289431, 0.24069150696018604, 19.195257907729193)" d="M23.96 0.06C24.34 0.43 24.96 0.43 25.32 0.06C25.68-0.32 25.70-0.93 25.32-1.30L6.79-19.83C6.42-20.19 5.80-20.20 5.43-19.83C5.06-19.46 5.06-18.83 5.43-18.47ZM20.82-7.97L24.91-16.84C25.93-19.04 24.23-20.58 22.08-19.59L13.27-15.53ZM8.43-13.31L3.32-10.96C1.37-10.07 1.78-7.31 4.00-7.30L12.41-7.28C12.55-7.28 12.57-7.27 12.57-7.11L12.60 1.27C12.60 3.45 15.35 3.93 16.31 1.84L18.61-3.13Z" fill="currentColor"/>
</svg>