<svg xmlns="http://www.w3.org/2000/svg" viewBox="0 0 24 24" width="24" height="24">
  
  <path transform="matrix(0.7612250966399049, 0, 0, 0.7612250966399049, 2.454950936663692, 18.449598572702946)" d="M4.27 1.29C4.27 3.30 5.68 4.66 7.78 4.66L17.39 4.66C19.44 4.66 20.81 3.30 20.81 1.28L20.81-18.23C20.81-20.25 19.44-21.61 17.39-21.61L7.78-21.61C5.68-21.61 4.27-20.25 4.27-18.23ZM6.88 0.59L6.88-17.53C6.88-18.40 7.39-18.88 8.29-18.88L16.80-18.88C17.68-18.88 18.21-18.39 18.21-17.53L18.21 0.59C18.21 1.44 17.68 1.93 16.80 1.93L8.29 1.93C7.39 1.93 6.88 1.45 6.88 0.59ZM10.51-4.43L14.58-4.43C15.25-4.43 15.59-4.78 15.59-5.50L15.59-8.65C15.59-9.23 15.34-9.57 14.88-9.68L14.88-10.45C14.88-11.94 13.93-12.98 12.55-12.98C11.17-12.98 10.22-11.94 10.22-10.45L10.22-9.67C9.75-9.57 9.52-9.23 9.52-8.65L9.52-5.50C9.52-4.78 9.84-4.43 10.51-4.43ZM11.44-9.70L11.44-10.52C11.44-11.30 11.87-11.80 12.55-11.80C13.22-11.80 13.66-11.30 13.66-10.52L13.66-9.70Z" fill="currentColor"/>
</svg>