<svg xmlns="http://www.w3.org/2000/svg" viewBox="0 0 24 24" width="24" height="24">
  <title>lock.rectangle.on.rectangle</title>
  <path transform="matrix(0.6677099634846114, 0, 0, 0.6677099634846114, 0.004694835680751019, 17.64945226917058)" d="M6.96-1.77L9.01-1.77L9.01-0.02C9.01 2.55 10.38 3.91 12.98 3.91L28.97 3.91C31.56 3.91 32.94 2.54 32.94-0.02L32.94-11.21C32.94-13.78 31.56-15.15 28.97-15.15L26.92-15.15L26.92-16.90C26.92-19.46 25.54-20.84 22.95-20.84L6.96-20.84C4.36-20.84 2.99-19.46 2.99-16.90L2.99-5.71C2.99-3.13 4.36-1.77 6.96-1.77ZM7.18-4.37C6.15-4.37 5.60-4.90 5.60-5.98L5.60-16.63C5.60-17.71 6.15-18.22 7.18-18.22L22.72-18.22C23.74-18.22 24.30-17.71 24.30-16.63L24.30-15.15L12.98-15.15C10.38-15.15 9.01-13.79 9.01-11.21L9.01-4.37ZM13.21 1.30C12.18 1.30 11.63 0.79 11.63-0.29L11.63-10.95C11.63-12.02 12.18-12.54 13.21-12.54L28.75-12.54C29.77-12.54 30.33-12.02 30.33-10.95L30.33-0.29C30.33 0.79 29.77 1.30 28.75 1.30ZM16.80-1.11C16.80-0.22 17.21 0.20 18.05 0.20L23.92 0.20C24.75 0.20 25.16-0.22 25.16-1.11L25.16-5.61C25.16-6.40 24.84-6.82 24.21-6.89L24.21-8.18C24.21-10.32 22.90-11.78 20.99-11.78C19.07-11.78 17.77-10.32 17.77-8.18L17.77-6.90C17.12-6.82 16.80-6.40 16.80-5.61ZM19.24-6.93L19.24-8.29C19.24-9.52 19.93-10.34 20.99-10.34C22.03-10.34 22.72-9.53 22.72-8.29L22.72-6.93Z" fill="currentColor"/>
</svg>