<svg xmlns="http://www.w3.org/2000/svg" viewBox="0 0 24 24" width="24" height="24">
  <title>lock.rectangle.dashed</title>
  <path transform="matrix(0.7179918664983873, 0, 0, 0.7179918664983873, -0.14556163230963381, 18.06647034076567)" d="M2.99-13.23L5.60-13.23L5.60-15.29C5.60-16.37 6.15-16.89 7.18-16.89L9.21-16.89L9.21-19.50L6.96-19.50C4.37-19.50 2.99-18.13 2.99-15.56ZM30.84-13.23L30.84-15.56C30.84-18.13 29.46-19.50 26.87-19.50L24.61-19.50L24.61-16.89L26.65-16.89C27.68-16.89 28.23-16.37 28.23-15.29L28.23-13.23ZM11.00-16.89L16.02-16.89L16.02-19.50L11.00-19.50ZM17.81-16.89L22.82-16.89L22.82-19.50L17.81-19.50ZM12.75-3.96C12.75-3.06 13.15-2.64 13.98-2.64L19.86-2.64C20.70-2.64 21.09-3.06 21.09-3.96L21.09-8.46C21.09-9.25 20.78-9.66 20.14-9.74L20.14-11.02C20.14-13.17 18.84-14.63 16.92-14.63C15-14.63 13.70-13.17 13.70-11.02L13.70-9.74C13.07-9.66 12.75-9.25 12.75-8.46ZM15.19-9.77L15.19-11.13C15.19-12.36 15.87-13.17 16.92-13.17C17.98-13.17 18.66-12.36 18.66-11.13L18.66-9.77ZM2.99-5.45L5.60-5.45L5.60-11.44L2.99-11.44ZM30.84-5.45L30.84-11.44L28.23-11.44L28.23-5.45ZM6.96 2.60L9.21 2.60L9.21 0L7.18 0C6.15 0 5.60-0.53 5.60-1.61L5.60-3.66L2.99-3.66L2.99-1.32C2.99 1.24 4.37 2.60 6.96 2.60ZM26.87 2.60C29.46 2.60 30.84 1.24 30.84-1.32L30.84-3.66L28.23-3.66L28.23-1.61C28.23-0.53 27.68 0 26.65 0L24.61 0L24.61 2.60ZM11.00 2.60L16.02 2.60L16.02 0L11.00 0ZM17.81 2.60L22.82 2.60L22.82 0L17.81 0Z" fill="currentColor"/>
</svg>