<svg xmlns="http://www.w3.org/2000/svg" viewBox="0 0 24 24" width="24" height="24">
  <title>lt.button.roundedtop.horizontal</title>
  <path transform="matrix(0.7268597387847814, 0, 0, 0.7268597387847814, -0.17206132879046, 18.14565587734242)" d="M12.89-19.00C5.98-19.00 2.99-15.93 2.99-9.22L2.99-1.80C2.99 0.73 4.36 2.09 6.90 2.09L26.59 2.09C29.14 2.09 30.50 0.73 30.50-1.80L30.50-9.22C30.50-15.93 27.52-19.00 20.60-19.00ZM12.97-16.39L20.53-16.39C25.69-16.39 27.90-14.18 27.90-9.28L27.90-2.07C27.90-1.05 27.35-0.53 26.37-0.53L7.14-0.53C6.14-0.53 5.60-1.05 5.60-2.07L5.60-9.28C5.60-14.18 7.80-16.39 12.97-16.39ZM12.71-3.83L15.83-3.83C16.25-3.83 16.62-4.18 16.62-4.61C16.62-5.03 16.25-5.39 15.83-5.39L13.66-5.39L13.66-12.28C13.66-12.79 13.24-13.21 12.74-13.21C12.21-13.21 11.79-12.79 11.79-12.28L11.79-4.80C11.79-4.21 12.13-3.83 12.71-3.83ZM19.35-3.69C19.86-3.69 20.29-4.11 20.29-4.64L20.29-11.52L21.49-11.52C21.91-11.52 22.25-11.87 22.25-12.30C22.25-12.73 21.91-13.07 21.49-13.07L17.17-13.07C16.73-13.07 16.39-12.73 16.39-12.30C16.39-11.87 16.73-11.52 17.17-11.52L18.40-11.52L18.40-4.64C18.40-4.11 18.82-3.69 19.35-3.69Z" fill="currentColor"/>
</svg>