<svg xmlns="http://www.w3.org/2000/svg" viewBox="0 0 24 24" width="24" height="24">
  
  <path transform="matrix(0.7134894091415831, 0, 0, 0.7134894091415831, -0.13210702341137148, 18.036789297658864)" d="M12.29 2.40L21.71 2.40C28.63 2.40 31.02-0.08 31.02-6.68L31.02-10.24C31.02-16.84 28.63-19.32 21.71-19.32L12.29-19.32C5.38-19.32 2.99-16.84 2.99-10.24L2.99-6.68C2.99-0.08 5.38 2.40 12.29 2.40ZM12.29-0.21C7.21-0.21 5.60-1.82 5.60-6.68L5.60-10.24C5.60-15.11 7.21-16.71 12.29-16.71L21.71-16.71C26.80-16.71 28.41-15.11 28.41-10.24L28.41-6.68C28.41-1.82 26.80-0.21 21.71-0.21ZM19.85-3.84L23.75-3.84C24.23-3.84 24.48-4.16 24.48-4.58C24.48-5.03 24.22-5.33 23.75-5.33L21.23-5.33L21.23-5.43L22.77-7.35C23.85-8.66 24.32-9.53 24.32-10.63C24.32-12.23 23.21-13.31 21.61-13.31C20.14-13.31 19.00-12.15 19.00-10.92C19.00-10.45 19.27-10.11 19.76-10.11C20.17-10.11 20.45-10.30 20.58-10.73C20.77-11.39 21.01-11.85 21.60-11.85C22.23-11.85 22.55-11.27 22.55-10.55C22.55-9.66 21.94-8.77 21.29-7.96L19.46-5.61C19.17-5.25 18.98-4.96 18.98-4.59C18.98-4.15 19.28-3.84 19.85-3.84ZM10.42-3.68C10.95-3.68 11.25-4.02 11.25-4.57L11.25-10.35L11.32-10.35L12.69-4.69C12.81-4.20 13.10-3.86 13.62-3.86C14.12-3.86 14.39-4.17 14.52-4.70L15.89-10.35L15.95-10.35L15.95-4.57C15.95-4.01 16.24-3.68 16.77-3.68C17.32-3.68 17.61-4.02 17.61-4.57L17.61-11.92C17.61-12.75 17.11-13.21 16.29-13.21C15.55-13.21 15.13-12.88 14.98-12.15L13.62-6.38L13.58-6.38L12.21-12.15C12.05-12.90 11.60-13.21 10.91-13.21C10.09-13.21 9.59-12.74 9.59-11.92L9.59-4.57C9.59-4.02 9.90-3.68 10.42-3.68Z" fill="currentColor"/>
</svg>