<svg xmlns="http://www.w3.org/2000/svg" viewBox="0 0 24 24" width="24" height="24">
  
  <path transform="matrix(0.7134894091415831, 0, 0, 0.7134894091415831, -0.13210702341137148, 18.036789297658864)" d="M12.29 2.40L21.71 2.40C28.63 2.40 31.02-0.08 31.02-6.68L31.02-10.24C31.02-16.84 28.63-19.32 21.71-19.32L12.29-19.32C5.38-19.32 2.99-16.84 2.99-10.24L2.99-6.68C2.99-0.08 5.38 2.40 12.29 2.40ZM12.29-0.21C7.21-0.21 5.60-1.82 5.60-6.68L5.60-10.24C5.60-15.11 7.21-16.71 12.29-16.71L21.71-16.71C26.80-16.71 28.41-15.11 28.41-10.24L28.41-6.68C28.41-1.82 26.80-0.21 21.71-0.21ZM21.80-3.63C23.48-3.63 24.75-4.66 24.75-6.38C24.75-7.72 23.95-8.47 22.97-8.58L22.97-8.63C23.92-8.87 24.48-9.75 24.48-10.77C24.48-12.36 23.30-13.28 21.74-13.28C20.55-13.28 19.50-12.63 19.17-11.59C19.11-11.38 19.08-11.17 19.08-10.97C19.08-10.57 19.34-10.22 19.86-10.22C20.27-10.22 20.58-10.36 20.70-10.79C20.85-11.38 21.16-11.80 21.75-11.80C22.42-11.80 22.72-11.24 22.72-10.56C22.72-9.81 22.34-9.21 21.53-9.21L21.32-9.21C20.86-9.21 20.60-8.95 20.60-8.54C20.60-8.12 20.86-7.88 21.32-7.88L21.54-7.88C22.44-7.88 22.92-7.38 22.92-6.46C22.92-5.75 22.56-5.11 21.79-5.11C21.08-5.11 20.75-5.59 20.61-6.07C20.47-6.48 20.19-6.70 19.78-6.70C19.28-6.70 18.94-6.40 18.94-5.88C18.94-5.67 18.97-5.46 19.03-5.27C19.36-4.21 20.53-3.63 21.80-3.63ZM10.32-3.68C10.84-3.68 11.16-4.02 11.16-4.57L11.16-10.35L11.21-10.35L12.60-4.69C12.71-4.20 13.00-3.86 13.51-3.86C14.02-3.86 14.30-4.17 14.41-4.70L15.79-10.35L15.86-10.35L15.86-4.57C15.86-4.01 16.15-3.68 16.68-3.68C17.23-3.68 17.51-4.02 17.51-4.57L17.51-11.92C17.51-12.75 17.00-13.21 16.20-13.21C15.46-13.21 15.04-12.88 14.87-12.15L13.52-6.38L13.49-6.38L12.11-12.15C11.94-12.90 11.51-13.21 10.80-13.21C9.98-13.21 9.49-12.74 9.49-11.92L9.49-4.57C9.49-4.02 9.80-3.68 10.32-3.68Z" fill="currentColor"/>
</svg>