<svg xmlns="http://www.w3.org/2000/svg" viewBox="0 0 24 24" width="24" height="24">
  <title>m3.button.horizontal.fill</title>
  <path transform="matrix(0.7134894091415831, 0, 0, 0.7134894091415831, -0.13210702341137148, 18.036789297658864)" d="M12.29 2.40L21.71 2.40C28.63 2.40 31.02-0.08 31.02-6.68L31.02-10.24C31.02-16.84 28.63-19.32 21.71-19.32L12.29-19.32C5.38-19.32 2.99-16.84 2.99-10.24L2.99-6.68C2.99-0.08 5.38 2.40 12.29 2.40ZM22.01-3.41C20.70-3.41 19.46-4.02 19.11-5.12C19.05-5.32 19.02-5.54 19.02-5.77C19.02-6.30 19.37-6.62 19.91-6.62C20.34-6.62 20.64-6.40 20.78-5.95C20.93-5.46 21.27-4.97 22.01-4.97C22.80-4.97 23.17-5.64 23.17-6.38C23.17-7.32 22.69-7.84 21.74-7.84L21.50-7.84C21.04-7.84 20.77-8.11 20.77-8.54C20.77-8.96 21.04-9.25 21.50-9.25L21.73-9.25C22.57-9.25 22.97-9.88 22.97-10.65C22.97-11.36 22.66-11.94 21.96-11.94C21.35-11.94 21.04-11.51 20.87-10.90C20.74-10.44 20.43-10.29 19.99-10.29C19.43-10.29 19.17-10.66 19.17-11.07C19.17-11.30 19.21-11.51 19.27-11.73C19.61-12.82 20.72-13.49 21.95-13.49C23.59-13.49 24.82-12.54 24.82-10.88C24.82-9.81 24.22-8.88 23.24-8.63L23.24-8.58C24.28-8.47 25.10-7.69 25.10-6.28C25.10-4.50 23.78-3.41 22.01-3.41ZM10.02-3.46C9.47-3.46 9.14-3.82 9.14-4.39L9.14-12.06C9.14-12.93 9.66-13.42 10.52-13.42C11.25-13.42 11.72-13.10 11.89-12.32L13.31-6.30L13.35-6.30L14.77-12.32C14.93-13.07 15.36-13.42 16.14-13.42C17.00-13.42 17.53-12.94 17.53-12.06L17.53-4.39C17.53-3.82 17.23-3.46 16.65-3.46C16.09-3.46 15.79-3.82 15.79-4.39L15.79-10.42L15.73-10.42L14.30-4.54C14.17-3.97 13.88-3.64 13.35-3.64C12.80-3.64 12.50-4.00 12.39-4.52L10.96-10.42L10.89-10.42L10.89-4.39C10.89-3.82 10.56-3.46 10.02-3.46Z" fill="currentColor"/>
</svg>