<svg xmlns="http://www.w3.org/2000/svg" viewBox="0 0 24 24" width="24" height="24">
  
  <path transform="matrix(0.7179918664983873, 0, 0, 0.7179918664983873, -0.14556163230963381, 18.06647034076567)" d="M8.12 2.60L25.91 2.60C29.02 2.60 30.84 0.70 30.84-2.53L30.84-14.37C30.84-17.60 29.02-19.50 25.91-19.50L8.12-19.50C4.89-19.50 2.99-17.60 2.99-14.37L2.99-2.53C2.99 0.70 4.89 2.60 8.12 2.60ZM8.33-0.01C6.61-0.01 5.60-1.02 5.60-2.74L5.60-14.16C5.60-15.88 6.61-16.89 8.33-16.89L25.50-16.89C27.22-16.89 28.23-15.88 28.23-14.16L28.23-2.74C28.23-1.02 27.22-0.01 25.50-0.01ZM8.78-12.64C9.40-12.64 9.90-13.17 9.90-13.77C9.90-14.38 9.40-14.89 8.78-14.89C8.16-14.89 7.65-14.38 7.65-13.77C7.65-13.17 8.16-12.64 8.78-12.64ZM12.30-12.64C12.93-12.64 13.43-13.16 13.43-13.77C13.43-14.38 12.93-14.89 12.30-14.89C11.68-14.89 11.18-14.38 11.18-13.77C11.18-13.16 11.68-12.64 12.30-12.64ZM15.82-12.64C16.44-12.64 16.95-13.16 16.95-13.77C16.95-14.38 16.44-14.89 15.82-14.89C15.20-14.89 14.70-14.38 14.70-13.77C14.70-13.16 15.20-12.64 15.82-12.64Z" fill="currentColor"/>
</svg>