<svg xmlns="http://www.w3.org/2000/svg" viewBox="0 0 24 24" width="24" height="24">
  <title>macwindow.on.rectangle</title>
  <path transform="matrix(0.6677099634846114, 0, 0, 0.6677099634846114, 0.004694835680751019, 17.64945226917058)" d="M7.41-1.77L9.01-1.77L9.01-0.50C9.01 2.27 10.64 3.91 13.43 3.91L28.70 3.91C31.37 3.91 32.94 2.27 32.94-0.50L32.94-10.73C32.94-13.52 31.37-15.15 28.70-15.15L26.92-15.15L26.92-16.42C26.92-19.21 25.35-20.84 22.68-20.84L7.41-20.84C4.62-20.84 2.99-19.21 2.99-16.42L2.99-6.19C2.99-3.40 4.62-1.77 7.41-1.77ZM7.58-4.37C6.30-4.37 5.60-5.09 5.60-6.36L5.60-16.24C5.60-17.52 6.30-18.22 7.58-18.22L22.32-18.22C23.59-18.22 24.30-17.52 24.30-16.24L24.30-15.15L13.43-15.15C10.64-15.15 9.01-13.52 9.01-10.73L9.01-4.37ZM13.61 1.30C12.33 1.30 11.63 0.59 11.63-0.68L11.63-10.56C11.63-11.84 12.33-12.54 13.61-12.54L28.35-12.54C29.61-12.54 30.33-11.84 30.33-10.56L30.33-0.68C30.33 0.59 29.61 1.30 28.35 1.30ZM14.72-8.40C15.33-8.40 15.82-8.92 15.82-9.50C15.82-10.10 15.33-10.62 14.72-10.62C14.10-10.62 13.61-10.10 13.61-9.50C13.61-8.92 14.10-8.40 14.72-8.40ZM18.18-8.40C18.79-8.40 19.29-8.91 19.29-9.50C19.29-10.10 18.79-10.62 18.18-10.62C17.57-10.62 17.07-10.10 17.07-9.50C17.07-8.91 17.57-8.40 18.18-8.40ZM21.64-8.40C22.25-8.40 22.75-8.91 22.75-9.50C22.75-10.10 22.25-10.62 21.64-10.62C21.02-10.62 20.53-10.10 20.53-9.50C20.53-8.91 21.02-8.40 21.64-8.40Z" fill="currentColor"/>
</svg>