<svg xmlns="http://www.w3.org/2000/svg" viewBox="0 0 24 24" width="24" height="24">
  
  <path transform="matrix(0.8181527644614893, 0, 0, 0.8181527644614893, 0.28379674017257894, 18.922339405560884)" d="M14.32 3.76C21.07 3.76 26.54-1.71 26.54-8.46C26.54-15.21 21.07-20.68 14.32-20.68C7.57-20.68 2.10-15.21 2.10-8.46C2.10-1.71 7.57 3.76 14.32 3.76ZM14.32 1.08C9.05 1.08 4.78-3.19 4.78-8.46C4.78-13.73 9.05-18 14.32-18C19.59-18 23.86-13.73 23.86-8.46C23.86-3.19 19.59 1.08 14.32 1.08ZM10.95-3.39C11.48-3.39 11.85-3.69 11.85-4.29L11.85-7.54C11.85-9.23 12.36-10.65 13.79-10.92L13.79-3.94C13.79-3.60 13.99-3.40 14.31-3.40C14.63-3.40 14.81-3.60 14.81-3.94L14.81-10.93C16.30-10.68 16.80-9.25 16.80-7.54L16.80-4.29C16.80-3.73 17.14-3.39 17.71-3.39C18.25-3.39 18.61-3.71 18.61-4.29L18.61-7.55C18.61-10.29 17.33-12.29 14.81-12.53L14.81-13.76C14.81-14.09 14.63-14.30 14.31-14.30C13.99-14.30 13.79-14.09 13.79-13.76L13.79-12.53C11.30-12.28 10.04-10.25 10.04-7.55L10.04-4.29C10.04-3.73 10.39-3.39 10.95-3.39Z" fill="currentColor"/>
</svg>