<svg xmlns="http://www.w3.org/2000/svg" viewBox="0 0 24 24" width="24" height="24">
  <title>manatsign.bank.building</title>
  <path transform="matrix(0.7299686341602509, 0, 0, 0.7299686341602509, -0.18135158254918737, 18.18049615055603)" d="M4.88 1.52L28.63 1.52L28.63 0.57C28.63 0.02 28.30-0.30 27.76-0.30L27.14-0.30L27.14-13.02L28.13-13.02C28.90-13.02 29.36-13.59 29.36-14.17C29.36-14.59 29.11-14.98 28.61-15.27L18.32-21.20C17.82-21.49 17.27-21.66 16.75-21.66C16.22-21.66 15.67-21.49 15.18-21.20L4.89-15.27C4.37-14.98 4.15-14.59 4.15-14.17C4.15-13.59 4.59-13.02 5.38-13.02L6.38-13.02L6.38-0.30L5.74-0.30C5.20-0.30 4.88 0.02 4.88 0.57ZM8.46-0.30L8.46-14.64L16.38-19.08C16.49-19.14 16.63-19.17 16.75-19.17C16.88-19.17 17.00-19.14 17.12-19.08L25.04-14.64L25.04-0.30ZM13.38-3.60C13.92-3.60 14.29-3.91 14.29-4.51L14.29-7.76C14.29-9.46 14.81-10.86 16.24-11.14L16.24-4.15C16.24-3.82 16.44-3.62 16.76-3.62C17.06-3.62 17.26-3.82 17.26-4.15L17.26-11.14C18.74-10.89 19.24-9.46 19.24-7.76L19.24-4.51C19.24-3.95 19.59-3.60 20.16-3.60C20.70-3.60 21.05-3.93 21.05-4.51L21.05-7.77C21.05-10.50 19.78-12.52 17.26-12.75L17.26-13.98C17.26-14.30 17.06-14.51 16.76-14.51C16.44-14.51 16.24-14.30 16.24-13.98L16.24-12.74C13.75-12.49 12.49-10.48 12.49-7.77L12.49-4.51C12.49-3.95 12.83-3.60 13.38-3.60ZM4.14 4.72L29.24 4.72C29.86 4.72 30.39 4.21 30.39 3.57C30.39 2.94 29.86 2.43 29.24 2.43L4.14 2.43C3.52 2.43 2.99 2.94 2.99 3.57C2.99 4.21 3.52 4.72 4.14 4.72Z" fill="currentColor"/>
</svg>