<svg xmlns="http://www.w3.org/2000/svg" viewBox="0 0 24 24" width="24" height="24">
  <title>map.circle</title>
  <path transform="matrix(0.8181527644614893, 0, 0, 0.8181527644614893, 0.28379674017257894, 18.922339405560884)" d="M14.32 3.76C21.07 3.76 26.54-1.71 26.54-8.46C26.54-15.21 21.07-20.68 14.32-20.68C7.57-20.68 2.10-15.21 2.10-8.46C2.10-1.71 7.57 3.76 14.32 3.76ZM14.32 1.08C9.05 1.08 4.78-3.19 4.78-8.46C4.78-13.73 9.05-18 14.32-18C19.59-18 23.86-13.73 23.86-8.46C23.86-3.19 19.59 1.08 14.32 1.08ZM12.70-4.46L15.39-2.95C15.53-2.87 15.67-2.81 15.83-2.79L15.83-12.36L13.22-13.93C13.02-14.04 12.95-14.07 12.70-14.17ZM8.23-3.74C8.23-3.19 8.57-2.92 9.04-2.92C9.22-2.92 9.40-2.96 9.60-3.07L11.84-4.30L11.84-14.11C11.71-14.06 11.55-13.99 11.37-13.90L8.82-12.46C8.40-12.22 8.23-11.92 8.23-11.45ZM16.69-2.81C16.76-2.84 16.83-2.86 16.91-2.91L19.78-4.52C20.21-4.77 20.38-5.06 20.38-5.53L20.38-13.20C20.38-13.76 20.04-14.03 19.52-14.03C19.34-14.03 19.14-13.96 18.93-13.84L16.69-12.61Z" fill="currentColor"/>
</svg>