<svg xmlns="http://www.w3.org/2000/svg" viewBox="0 0 24 24" width="24" height="24">
  <title>map.circle.fill</title>
  <path transform="matrix(0.8181527644614893, 0, 0, 0.8181527644614893, 0.28379674017257894, 18.922339405560884)" d="M14.32 3.76C21.07 3.76 26.54-1.72 26.54-8.46C26.54-15.21 21.07-20.68 14.32-20.68C7.58-20.68 2.10-15.21 2.10-8.46C2.10-1.72 7.58 3.76 14.32 3.76ZM12.63-4.27L12.63-14.40C12.80-14.38 12.97-14.29 13.17-14.17L15.89-12.54L15.89-2.52C15.73-2.55 15.59-2.61 15.42-2.70ZM7.97-3.53L7.97-11.58C7.97-12.05 8.16-12.39 8.57-12.63L11.23-14.13C11.43-14.23 11.59-14.31 11.73-14.36L11.73-4.09L9.39-2.82C9.19-2.72 9-2.66 8.80-2.66C8.32-2.66 7.97-2.95 7.97-3.53ZM16.79-2.55L16.79-12.80L19.13-14.07C19.34-14.20 19.55-14.26 19.75-14.26C20.29-14.26 20.65-13.98 20.65-13.39L20.65-5.40C20.65-4.93 20.46-4.59 20.02-4.34L17.03-2.65C16.95-2.60 16.86-2.58 16.79-2.55Z" fill="currentColor"/>
</svg>