<svg xmlns="http://www.w3.org/2000/svg" viewBox="0 0 24 24" width="24" height="24">
  
  <path transform="matrix(0.7369027058146229, 0, 0, 0.7369027058146229, 1.294587809493926, 18.208981001727114)" d="M11.84-15.49L17.21-15.49L20.86-22.00L8.19-22.00ZM6.90-8.21C8.10-9.86 9.81-11.10 11.80-11.68L6.46-21.29L3.26-16.46C2.91-15.94 2.89-15.40 3.26-14.77ZM17.25-11.68C19.24-11.09 20.94-9.84 22.15-8.21L25.79-14.77C26.16-15.40 26.16-15.94 25.79-16.46L22.59-21.29ZM14.52 5.14C18.82 5.14 22.31 1.66 22.31-2.64C22.31-6.95 18.82-10.43 14.52-10.43C10.22-10.43 6.74-6.95 6.74-2.64C6.74 1.66 10.22 5.14 14.52 5.14ZM12.34 1.36C11.85 1.73 11.31 1.37 11.52 0.76L12.38-1.79L10.18-3.38C9.74-3.69 9.84-4.37 10.49-4.37L13.20-4.34L14.02-6.93C14.20-7.51 14.85-7.51 15.04-6.93L15.86-4.34L18.56-4.37C19.23-4.37 19.31-3.69 18.88-3.38L16.68-1.80L17.53 0.76C17.74 1.38 17.21 1.73 16.71 1.36L14.53-0.23Z" fill="currentColor"/>
</svg>