<svg xmlns="http://www.w3.org/2000/svg" viewBox="0 0 24 24" width="24" height="24">
  
  <path transform="matrix(0.8023820717755837, 0, 0, 0.8023820717755837, 0.08180535966149516, 18.760695815702867)" d="M13.84-8.96L13.84-13.58C13.84-14.20 14.21-14.63 14.85-14.63C15.48-14.63 15.86-14.20 15.86-13.58L15.86-6.94L18.21-4.57L25.51-4.57L17.79-18.04C17.14-19.18 16.01-19.76 14.86-19.76C13.70-19.76 12.56-19.17 11.92-18.04L9.32-13.49ZM12.71-4.56L15.79-4.56L5.60-14.79C5.14-15.25 4.54-15.26 4.05-14.81C3.57-14.32 3.61-13.70 4.05-13.24ZM6.41-8.45L4.21-4.57L10.29-4.57ZM26.85-2.25L26.52-2.82L3.20-2.82L2.86-2.24C2.54-1.69 2.39-1.09 2.39-0.52C2.39 1.37 3.73 2.91 5.81 2.91L23.89 2.91C25.98 2.91 27.32 1.37 27.32-0.52C27.32-1.09 27.16-1.69 26.85-2.25Z" fill="currentColor"/>
</svg>