<svg xmlns="http://www.w3.org/2000/svg" viewBox="0 0 24 24" width="24" height="24">
  
  <path transform="matrix(0.7508432321454759, 0, 0, 0.7508432321454759, -0.24373075230972274, 18.854377474703035)" d="M20.32-5.38C22.72-5.38 24.59-7.18 24.59-9.86L24.59-17.78C24.59-20.45 22.72-22.25 20.32-22.25C17.92-22.25 16.04-20.45 16.04-17.78L16.04-9.86C16.04-7.18 17.92-5.38 20.32-5.38ZM5.09-15.80C6.23-15.80 7.17-16.73 7.17-17.89C7.17-19.04 6.23-19.98 5.09-19.98C3.93-19.98 2.99-19.04 2.99-17.89C2.99-16.73 3.93-15.80 5.09-15.80ZM5.09-9.52C6.23-9.52 7.17-10.45 7.17-11.61C7.17-12.76 6.23-13.70 5.09-13.70C3.93-13.70 2.99-12.76 2.99-11.61C2.99-10.45 3.93-9.52 5.09-9.52ZM14.85 4.00L25.80 4.00C26.51 4.00 27.09 3.42 27.09 2.73C27.09 2.04 26.51 1.48 25.80 1.48L21.54 1.48L21.54-0.68C26.29-1.17 29.63-4.56 29.63-9.54L29.63-11.81C29.63-12.50 29.05-13.04 28.36-13.04C27.66-13.04 27.08-12.50 27.08-11.81L27.08-9.62C27.08-5.64 24.30-3.01 20.32-3.01C16.35-3.01 13.57-5.64 13.57-9.62L13.57-11.81C13.57-12.50 13.00-13.04 12.29-13.04C11.60-13.04 11.03-12.50 11.03-11.81L11.03-9.54C11.03-4.56 14.36-1.17 19.11-0.68L19.11 1.48L14.85 1.48C14.14 1.48 13.56 2.04 13.56 2.73C13.56 3.42 14.14 4.00 14.85 4.00ZM5.09-3.22C6.23-3.22 7.17-4.16 7.17-5.31C7.17-6.47 6.23-7.41 5.09-7.41C3.93-7.41 2.99-6.47 2.99-5.31C2.99-4.16 3.93-3.22 5.09-3.22ZM5.09 3.06C6.23 3.06 7.17 2.12 7.17 0.96C7.17-0.19 6.23-1.13 5.09-1.13C3.93-1.13 2.99-0.19 2.99 0.96C2.99 2.12 3.93 3.06 5.09 3.06Z" fill="currentColor"/>
</svg>