<svg xmlns="http://www.w3.org/2000/svg" viewBox="0 0 24 24" width="24" height="24">
  
  <path transform="matrix(0.7568366592756837, 0, 0, 0.7568366592756837, 0.4124168514412416, 18.407982261640797)" d="M15.30 4.75C22.58 4.75 28.52-1.20 28.52-8.46C28.52-15.73 22.58-21.68 15.30-21.68C8.04-21.68 2.10-15.73 2.10-8.46C2.10-1.20 8.04 4.75 15.30 4.75ZM15.30 0.22C10.51 0.22 6.63-3.67 6.63-8.46C6.63-13.27 10.51-17.14 15.30-17.14C20.11-17.14 23.99-13.27 23.99-8.46C23.99-3.67 20.11 0.22 15.30 0.22ZM12.13-1.90C12.30-1.90 12.40-1.98 12.48-2.16L14.61-6.95L14.61-5.34C14.61-4.90 14.91-4.56 15.33-4.56C15.76-4.56 16.05-4.90 16.05-5.34L16.05-9.42C16.05-10.16 16.39-10.92 17.20-10.92C18-10.92 18.26-10.30 18.26-9.52L18.26-5.34C18.26-4.90 18.56-4.56 19.01-4.56C19.46-4.56 19.77-4.90 19.77-5.34L19.77-9.94C19.77-11.24 19.13-12.36 17.73-12.36C17.46-12.36 17.19-12.30 16.96-12.21L17.99-14.53C18.02-14.60 18.04-14.66 18.04-14.73C18.04-14.94 17.88-15.07 17.70-15.07C17.51-15.07 17.41-14.95 17.34-14.80L15.73-11.18C15.48-11.94 14.93-12.36 14.09-12.36C13.17-12.36 12.59-11.73 12.40-10.92L12.34-10.92L12.34-11.58C12.34-12.05 12.05-12.35 11.61-12.35C11.17-12.35 10.89-12.04 10.89-11.58L10.89-5.34C10.89-4.90 11.18-4.56 11.65-4.56C12.12-4.56 12.40-4.90 12.40-5.34L12.40-9.35C12.40-10.15 12.76-10.92 13.56-10.92C14.30-10.92 14.61-10.35 14.61-9.59L14.61-8.67L11.84-2.43C11.80-2.37 11.79-2.30 11.79-2.23C11.79-2.02 11.94-1.90 12.13-1.90Z" fill="currentColor"/>
</svg>