<svg xmlns="http://www.w3.org/2000/svg" viewBox="0 0 24 24" width="24" height="24">
  
  <path transform="matrix(0.9044338456103161, 0, 0, 0.9044338456103161, -0.6974032856385799, 19.64705882352941)" d="M6.96 2.60L21.12 2.60C23.72 2.60 25.09 1.23 25.09-1.34L25.09-15.57C25.09-18.14 23.72-19.51 21.12-19.51L6.96-19.51C4.37-19.51 2.99-18.14 2.99-15.57L2.99-1.34C2.99 1.23 4.37 2.60 6.96 2.60ZM7.18-0.01C6.15-0.01 5.60-0.53 5.60-1.61L5.60-15.29C5.60-16.37 6.15-16.90 7.18-16.90L20.91-16.90C21.91-16.90 22.49-16.37 22.49-15.29L22.49-1.61C22.49-0.53 21.91-0.01 20.91-0.01ZM10.88-1.90C11.05-1.90 11.14-1.98 11.21-2.16L13.35-6.95L13.35-5.34C13.35-4.90 13.64-4.56 14.06-4.56C14.51-4.56 14.79-4.90 14.79-5.34L14.79-9.42C14.79-10.16 15.13-10.92 15.94-10.92C16.73-10.92 16.99-10.30 16.99-9.52L16.99-5.34C16.99-4.90 17.31-4.56 17.75-4.56C18.20-4.56 18.50-4.90 18.50-5.34L18.50-9.94C18.50-11.24 17.86-12.36 16.48-12.36C16.20-12.36 15.94-12.30 15.70-12.21L16.72-14.53C16.76-14.60 16.77-14.66 16.77-14.73C16.77-14.94 16.62-15.07 16.43-15.07C16.24-15.07 16.15-14.95 16.08-14.80L14.47-11.18C14.21-11.94 13.66-12.36 12.82-12.36C11.92-12.36 11.33-11.73 11.13-10.92L11.09-10.92L11.09-11.58C11.09-12.05 10.79-12.35 10.36-12.35C9.90-12.35 9.62-12.04 9.62-11.58L9.62-5.34C9.62-4.90 9.91-4.56 10.38-4.56C10.86-4.56 11.14-4.90 11.14-5.34L11.14-9.35C11.14-10.15 11.50-10.92 12.30-10.92C13.03-10.92 13.35-10.35 13.35-9.59L13.35-8.67L10.57-2.43C10.54-2.37 10.52-2.30 10.52-2.23C10.52-2.02 10.68-1.90 10.88-1.90Z" fill="currentColor"/>
</svg>