<svg xmlns="http://www.w3.org/2000/svg" viewBox="0 0 24 24" width="24" height="24">
  <title>millsign.circle.fill</title>
  <path transform="matrix(0.8181527644614893, 0, 0, 0.8181527644614893, 0.28379674017257894, 18.922339405560884)" d="M14.32 3.76C21.07 3.76 26.54-1.72 26.54-8.46C26.54-15.21 21.07-20.68 14.32-20.68C7.58-20.68 2.10-15.21 2.10-8.46C2.10-1.72 7.58 3.76 14.32 3.76ZM10.49-4.37C10.00-4.37 9.68-4.73 9.68-5.19L9.68-11.72C9.68-12.20 9.98-12.53 10.45-12.53C10.91-12.53 11.23-12.21 11.23-11.72L11.23-11.03L11.29-11.03C11.48-11.87 12.09-12.54 13.04-12.54C13.93-12.54 14.51-12.09 14.77-11.30L16.45-15.08C16.52-15.25 16.63-15.36 16.82-15.36C17.02-15.36 17.18-15.23 17.18-15.01C17.18-14.95 17.17-14.88 17.13-14.80L16.05-12.39C16.30-12.48 16.57-12.54 16.86-12.54C18.32-12.54 19.00-11.37 19.00-10.00L19.00-5.19C19.00-4.72 18.67-4.37 18.20-4.37C17.72-4.37 17.39-4.72 17.39-5.19L17.39-9.55C17.39-10.38 17.12-11.02 16.30-11.02C15.46-11.02 15.11-10.23 15.11-9.46L15.11-5.19C15.11-4.72 14.80-4.37 14.34-4.37C13.90-4.37 13.58-4.72 13.58-5.19L13.58-6.90L11.37-1.86C11.27-1.69 11.18-1.61 11.00-1.61C10.80-1.61 10.63-1.72 10.63-1.95C10.63-2.02 10.65-2.09 10.69-2.14L13.58-8.71L13.58-9.63C13.58-10.43 13.25-11.02 12.49-11.02C11.66-11.02 11.29-10.21 11.29-9.39L11.29-5.19C11.29-4.72 10.99-4.37 10.49-4.37Z" fill="currentColor"/>
</svg>