<svg xmlns="http://www.w3.org/2000/svg" viewBox="0 0 24 24" width="24" height="24">
  <title>minus.plus.batteryblock.stack.arrowtriangle.right.fill</title>
  <path transform="matrix(0.4431457417117651, 0, 0, 0.4431457417117651, 0.6757558890253896, 15.77279743773747)" d="M6.96-2.04L26.51-2.04C29.60-2.04 30.48-2.95 30.48-5.98L30.48-15.47C30.48-17.88 29.11-19.21 26.65-19.21L25.63-19.21L25.63-20.41C25.63-21.39 25.07-21.96 24.11-21.96L21.91-21.96C20.94-21.96 20.38-21.39 20.38-20.41L20.38-19.21L13.10-19.21L13.10-20.41C13.10-21.39 12.54-21.96 11.57-21.96L9.38-21.96C8.41-21.96 7.85-21.39 7.85-20.41L7.85-19.21L6.96-19.21C4.37-19.21 2.99-17.85 2.99-15.27L2.99-5.98C2.99-3.41 4.37-2.04 6.96-2.04ZM8.58 1.64L32.21 1.64C33.41 1.64 34.15 0.94 34.15-0.22L34.15-12.53C34.15-13.48 33.64-14.29 32.23-14.30L32.23-0.89C32.23-0.49 32.00-0.28 31.62-0.28L6.66-0.28C6.67 1.22 7.56 1.64 8.58 1.64ZM22.57-7.41C22.05-7.41 21.66-7.82 21.66-8.33L21.66-9.73L20.24-9.73C19.72-9.73 19.32-10.14 19.32-10.64C19.32-11.14 19.72-11.55 20.24-11.55L21.66-11.55L21.66-12.96C21.66-13.48 22.05-13.89 22.57-13.89C23.07-13.89 23.48-13.48 23.48-12.96L23.48-11.55L24.88-11.55C25.38-11.55 25.80-11.14 25.80-10.64C25.80-10.14 25.38-9.73 24.88-9.73L23.48-9.73L23.48-8.33C23.48-7.82 23.07-7.41 22.57-7.41ZM47.67-8.02L41.92-11.43C41.30-11.78 40.56-11.47 40.56-10.78L40.56-3.76C40.56-3.06 41.29-2.74 41.92-3.12L47.67-6.52C48.28-6.87 48.26-7.68 47.67-8.02ZM8.88-9.74C8.37-9.74 7.96-10.15 7.96-10.65C7.96-11.14 8.37-11.55 8.88-11.55L12.95-11.55C13.46-11.55 13.86-11.14 13.86-10.65C13.86-10.15 13.46-9.74 12.95-9.74ZM12.47 4.93L35.55 4.93C36.74 4.93 37.45 4.25 37.45 3.12L37.45-8.44C37.45-9.42 36.87-10.13 35.68-10.17L35.68 2.57C35.68 2.95 35.46 3.18 35.09 3.18L10.59 3.18C10.61 4.57 11.58 4.93 12.47 4.93Z" fill="currentColor"/>
</svg>