<svg xmlns="http://www.w3.org/2000/svg" viewBox="0 0 24 24" width="24" height="24">
  
  <path transform="matrix(0.8181527644614893, 0, 0, 0.8181527644614893, 0.28379674017257894, 18.91275167785235)" d="M14.32 3.77C21.07 3.77 26.54-1.70 26.54-8.45C26.54-15.19 21.07-20.67 14.32-20.67C7.58-20.67 2.10-15.19 2.10-8.45C2.10-1.70 7.58 3.77 14.32 3.77ZM17.71-9.22C17.55-9.22 17.43-9.35 17.41-9.50C17.16-11.50 17.09-11.51 14.99-11.91C14.82-11.94 14.72-12.05 14.72-12.22C14.72-12.38 14.82-12.49 14.99-12.52C17.09-12.80 17.13-12.89 17.41-14.92C17.43-15.08 17.55-15.21 17.71-15.21C17.87-15.21 17.99-15.08 18-14.92C18.28-12.94 18.36-12.93 20.43-12.52C20.59-12.49 20.71-12.38 20.71-12.22C20.71-12.04 20.59-11.94 20.40-11.91C18.35-11.60 18.26-11.52 18-9.50C17.99-9.35 17.87-9.22 17.71-9.22ZM14.17-1.66C10.56-1.66 7.82-4.28 7.82-7.90C7.82-10.48 9.35-12.91 11.66-13.83C12.22-14.04 12.64-13.68 12.38-13.13C12.18-12.62 11.99-11.70 11.99-10.97C11.99-7.76 14.06-5.75 17.29-5.75C18.01-5.75 18.77-5.91 19.22-6.08C19.79-6.33 20.14-5.86 19.90-5.32C19.03-3.25 16.77-1.66 14.17-1.66Z" fill="currentColor"/>
</svg>