<svg xmlns="http://www.w3.org/2000/svg" viewBox="0 0 24 24" width="24" height="24">
  
  <path transform="matrix(0.9044338456103161, 0, 0, 0.9044338456103161, -0.6974032856385799, 19.64705882352941)" d="M6.96 2.60L21.12 2.60C23.72 2.60 25.09 1.23 25.09-1.34L25.09-15.57C25.09-18.14 23.72-19.51 21.12-19.51L6.96-19.51C4.37-19.51 2.99-18.14 2.99-15.57L2.99-1.34C2.99 1.23 4.37 2.60 6.96 2.60ZM7.18-0.01C6.15-0.01 5.60-0.53 5.60-1.61L5.60-15.29C5.60-16.37 6.15-16.90 7.18-16.90L20.91-16.90C21.91-16.90 22.49-16.37 22.49-15.29L22.49-1.61C22.49-0.53 21.91-0.01 20.91-0.01ZM11.12-3.18C11.64-3.18 11.95-3.52 11.95-4.04L11.95-8.11L13.31-8.11L15.23-4.03C15.46-3.50 15.86-3.18 16.45-3.18C17.19-3.18 17.60-3.67 17.60-4.28L17.60-8.11L18.29-8.11C18.50-8.11 18.67-8.27 18.67-8.47C18.67-8.68 18.50-8.85 18.29-8.85L17.60-8.85L17.60-12.91C17.60-13.45 17.30-13.77 16.77-13.77C16.24-13.77 15.95-13.45 15.95-12.91L15.95-8.85L14.57-8.85L12.67-12.91C12.45-13.43 12.05-13.77 11.44-13.77C10.78-13.77 10.29-13.35 10.29-12.68L10.29-8.85L9.64-8.85C9.45-8.85 9.28-8.68 9.28-8.47C9.28-8.27 9.45-8.11 9.64-8.11L10.29-8.11L10.29-4.04C10.29-3.52 10.61-3.18 11.12-3.18ZM11.95-10.88L12.01-10.88L12.97-8.85L11.95-8.85ZM15.88-6.05L14.92-8.11L15.95-8.11L15.95-6.05Z" fill="currentColor"/>
</svg>