<svg xmlns="http://www.w3.org/2000/svg" viewBox="0 0 24 24" width="24" height="24">
  <title>nairasign.gauge.chart.leftthird.topthird.rightthird</title>
  <path transform="matrix(0.6920789402541228, 0, 0, 0.6920789402541228, 0.5482562854825628, 17.87843970408398)" d="M16.55-15.19C18.66-15.19 20.59-14.47 22.14-13.28C22.42-13.08 22.76-13.09 23.02-13.35L25.82-16.15C26.12-16.45 26.11-16.91 25.78-17.18C23.27-19.25 20.05-20.51 16.55-20.51C13.04-20.51 9.82-19.25 7.32-17.18C6.98-16.91 6.97-16.45 7.29-16.15L10.08-13.35C10.34-13.09 10.70-13.08 10.99-13.30C12.54-14.47 14.46-15.19 16.55-15.19ZM31.00-6.06C31.00-9.57 29.74-12.80 27.66-15.32C27.39-15.63 26.94-15.63 26.64-15.33L23.84-12.53C23.58-12.27 23.57-11.91 23.79-11.63C24.97-10.08 25.68-8.14 25.68-6.06C25.68-3.94 24.96-1.98 23.68-0.36C23.48-0.11 23.50 0.21 23.72 0.45L26.57 3.29C26.87 3.60 27.32 3.60 27.60 3.27C29.72 0.75 31.00-2.51 31.00-6.06ZM2.10-6.06C2.10-2.51 3.39 0.76 5.52 3.28C5.79 3.60 6.23 3.60 6.54 3.29L9.38 0.45C9.61 0.21 9.62-0.11 9.41-0.36C8.14-1.98 7.42-3.94 7.42-6.06C7.42-8.14 8.12-10.08 9.32-11.63C9.53-11.91 9.53-12.27 9.27-12.53L6.47-15.33C6.16-15.63 5.71-15.63 5.44-15.29C3.35-12.79 2.10-9.56 2.10-6.06ZM11.77-6.02C11.77-5.82 11.93-5.66 12.14-5.66L12.79-5.66L12.79-1.59C12.79-1.07 13.10-0.73 13.62-0.73C14.13-0.73 14.45-1.07 14.45-1.59L14.45-5.66L15.81-5.66L17.72-1.59C17.95-1.05 18.35-0.73 18.95-0.73C19.69-0.73 20.10-1.22 20.10-1.83L20.10-5.66L20.79-5.66C21-5.66 21.16-5.82 21.16-6.02C21.16-6.23 21-6.40 20.79-6.40L20.10-6.40L20.10-10.46C20.10-11.00 19.79-11.32 19.27-11.32C18.74-11.32 18.45-11.00 18.45-10.46L18.45-6.40L17.06-6.40L15.15-10.46C14.94-10.99 14.54-11.32 13.93-11.32C13.28-11.32 12.79-10.90 12.79-10.23L12.79-6.40L12.14-6.40C11.93-6.40 11.77-6.23 11.77-6.02ZM14.45-8.44L14.51-8.44L15.47-6.40L14.45-6.40ZM18.38-3.60L17.40-5.66L18.45-5.66L18.45-3.60Z" fill="currentColor"/>
</svg>