<svg xmlns="http://www.w3.org/2000/svg" viewBox="0 0 24 24" width="24" height="24">
  <title>network</title>
  <path transform="matrix(0.8181527644614893, 0, 0, 0.8181527644614893, 0.28379674017257894, 18.922339405560884)" d="M14.32 3.76C21.07 3.76 26.54-1.71 26.54-8.46C26.54-15.21 21.07-20.68 14.32-20.68C7.57-20.68 2.10-15.21 2.10-8.46C2.10-1.71 7.57 3.76 14.32 3.76ZM11.32-10.92C11.26-11.37 11.06-11.77 10.77-12.06C11.74-14.51 13.27-16.72 15.25-18.55C15.36-18.54 15.49-18.53 15.61-18.50C14.23-16.04 13.38-13.29 13.16-10.45C12.54-10.57 11.92-10.72 11.32-10.92ZM6-14.24C7.56-16.46 9.97-18.04 12.76-18.47C11.21-16.75 10.00-14.78 9.15-12.64C8.84-12.62 8.55-12.52 8.30-12.36C7.48-12.90 6.70-13.52 6-14.24ZM18.15-14.19C18.14-15.35 18.28-16.52 18.60-17.65C20.70-16.66 22.41-14.99 23.43-12.90C22.34-12.08 21.14-11.44 19.86-10.99C19.51-11.40 19.00-11.66 18.42-11.68C18.25-12.49 18.15-13.34 18.15-14.19ZM16.43-14.18C16.43-13.08 16.57-12 16.82-10.96C16.65-10.76 16.54-10.54 16.45-10.29C16.16-10.27 15.86-10.25 15.55-10.25C15.33-10.25 15.11-10.25 14.88-10.27C15.05-12.56 15.64-14.77 16.64-16.79C16.49-15.94 16.42-15.07 16.43-14.18ZM4.20-8.46C4.20-9.96 4.52-11.39 5.11-12.67C5.80-12.01 6.55-11.43 7.35-10.91C7.35-10.83 7.34-10.75 7.34-10.66C7.34-10.02 7.64-9.46 8.11-9.08C7.91-7.99 7.79-6.89 7.77-5.77C6.52-6.40 5.31-7.18 4.20-8.12C4.20-8.24 4.20-8.36 4.20-8.46ZM24.45-8.46C24.45-7.58 24.34-6.73 24.13-5.92C23.50-5.58 22.85-5.29 22.20-5.03C21.19-5.95 20.34-7.03 19.70-8.21C20.02-8.50 20.23-8.88 20.31-9.32C21.64-9.77 22.91-10.41 24.07-11.21C24.32-10.34 24.45-9.42 24.45-8.46ZM9.49-5.00C9.47-6.26 9.56-7.50 9.79-8.71C10.18-8.80 10.52-9 10.79-9.28C11.54-9.04 12.32-8.85 13.10-8.73C13.13-7.35 13.28-5.99 13.57-4.66C13.37-4.50 13.20-4.30 13.08-4.07C11.86-4.25 10.65-4.57 9.49-5.00ZM15.55-8.53C15.94-8.53 16.32-8.55 16.70-8.58C17.00-8.13 17.47-7.82 18.01-7.72C18.63-6.53 19.42-5.41 20.36-4.44C19.15-4.13 17.93-3.94 16.70-3.87C16.45-4.48 15.91-4.93 15.26-5.07C15-6.21 14.86-7.37 14.84-8.54C15.07-8.54 15.32-8.53 15.55-8.53ZM4.59-5.65C5.61-4.93 6.69-4.32 7.82-3.83C7.89-2.63 8.09-1.43 8.39-0.25C6.59-1.56 5.23-3.45 4.59-5.65ZM14.32 1.66C13.01 1.66 11.75 1.42 10.61 0.96C10.09-0.36 9.76-1.73 9.60-3.14C10.70-2.78 11.84-2.51 12.98-2.34C13.27-1.64 13.93-1.14 14.74-1.09C15.13-0.20 15.59 0.67 16.11 1.50C15.54 1.61 14.93 1.66 14.32 1.66ZM16.34-1.76C16.44-1.88 16.54-2.00 16.62-2.14C18.38-2.21 20.13-2.52 21.83-3.07C22.07-2.89 22.30-2.72 22.54-2.54C21.38-0.94 19.76 0.32 17.86 1.03C17.27 0.14 16.76-0.79 16.34-1.76Z" fill="currentColor"/>
</svg>