<svg xmlns="http://www.w3.org/2000/svg" viewBox="0 0 24 24" width="24" height="24">
  <title>oar.2.crossed.circle</title>
  <path transform="matrix(0.8181527644614893, 0, 0, 0.8181527644614893, 0.28379674017257894, 18.922339405560884)" d="M14.32 3.76C21.07 3.76 26.54-1.71 26.54-8.46C26.54-15.21 21.07-20.68 14.32-20.68C7.57-20.68 2.10-15.21 2.10-8.46C2.10-1.71 7.57 3.76 14.32 3.76ZM14.32 1.08C9.05 1.08 4.78-3.19 4.78-8.46C4.78-13.73 9.05-18 14.32-18C19.59-18 23.86-13.73 23.86-8.46C23.86-3.19 19.59 1.08 14.32 1.08ZM8.44-3.75C8.96-3.21 9.62-3.08 10.00-3.47L12.35-5.82C12.75-6.22 12.95-6.59 13.01-7.00L13.14-7.79L14.31-8.95L15.47-7.79L15.60-7.00C15.67-6.59 15.86-6.22 16.25-5.82L18.61-3.47C18.98-3.08 19.64-3.21 20.18-3.75C20.71-4.28 20.84-4.93 20.45-5.31L18.08-7.66C17.70-8.05 17.32-8.25 16.92-8.32L16.13-8.45L14.96-9.61L18.23-12.89L18.46-12.67C18.64-12.48 18.93-12.49 19.11-12.67C19.29-12.86 19.30-13.14 19.11-13.32L18.01-14.41C17.82-14.61 17.54-14.60 17.37-14.41C17.18-14.24 17.17-13.95 17.37-13.77L17.58-13.55L14.31-10.27L11.03-13.55L11.25-13.77C11.44-13.95 11.43-14.24 11.25-14.41C11.06-14.60 10.78-14.61 10.59-14.41L9.49-13.32C9.30-13.14 9.32-12.86 9.49-12.67C9.69-12.49 9.97-12.48 10.16-12.67L10.37-12.89L13.65-9.61L12.49-8.45L11.68-8.32C11.29-8.25 10.91-8.05 10.52-7.66L8.17-5.31C7.78-4.93 7.90-4.28 8.44-3.75Z" fill="currentColor"/>
</svg>