<svg xmlns="http://www.w3.org/2000/svg" viewBox="0 0 24 24" width="24" height="24">
  
  <path transform="matrix(0.6824257994050372, 0, 0, 0.6824257994050372, 0.7525282087293235, 17.99435467355556)" d="M4.39-1.96L10.79 4.45C12.66 6.33 14.73 6.34 16.57 4.50L24.97-3.91L24.97 4.14C24.97 5.44 26.59 5.72 27.21 4.69L29.26 1.32C29.84 0.39 29.98-0.06 29.98-1.45L29.98-8.27C29.98-9.61 29.66-10.86 28.65-11.87L25.62-14.91C24.79-15.74 23.58-15.73 22.86-15.04L22.77-14.94L20.07-17.64C19.54-18.18 18.98-18.56 18.42-18.79L18.42-19.17C18.42-21.69 16.73-23.44 14.30-23.44C11.87-23.44 10.18-21.69 10.18-19.17L10.18-13.56L4.35-7.72C2.51-5.88 2.54-3.82 4.39-1.96ZM12.02-19.11C12.02-20.58 12.95-21.55 14.30-21.55C15.66-21.55 16.57-20.58 16.57-19.11L16.57-18.98C15.80-18.84 15.04-18.40 14.30-17.67L12.02-15.40ZM6.42-3.77C5.73-4.45 5.74-5.23 6.46-5.94L16.08-15.57C16.24-15.73 16.41-15.86 16.57-15.95L16.57-11.14C15.48-10.77 14.71-9.74 14.71-8.52C14.71-6.97 15.95-5.73 17.50-5.73C19.03-5.73 20.27-6.97 20.27-8.52C20.27-9.74 19.50-10.77 18.42-11.14L18.42-15.42L24.43-9.40C25.13-8.72 25.14-7.95 24.43-7.24L14.80 2.39C14.09 3.11 13.32 3.09 12.63 2.41ZM17.51-7.38C16.86-7.38 16.36-7.90 16.36-8.53C16.36-9.14 16.86-9.66 17.51-9.66C18.12-9.66 18.63-9.14 18.63-8.53C18.63-7.90 18.12-7.38 17.51-7.38Z" fill="currentColor"/>
</svg>