<svg xmlns="http://www.w3.org/2000/svg" viewBox="0 0 24 24" width="24" height="24">
  <title>parkingsign.radiowaves.right.and.safetycone</title>
  <path transform="matrix(0.5174853446533253, 0, 0, 0.5174853446533253, 0.9144936325045463, 16.562995654293765)" d="M24.49-4.31C24.94-3.80 25.69-3.75 26.27-4.37C28.21-6.42 29.23-9.26 29.23-12.32C29.23-15.36 28.15-18.25 26.27-20.26C25.70-20.88 24.94-20.84 24.49-20.32C24.08-19.83 24.21-19.21 24.68-18.69C26.18-17.03 27-14.78 27-12.32C27-9.86 26.17-7.61 24.68-5.94C24.21-5.43 24.08-4.80 24.49-4.31ZM4.17 3.08C5.47 3.08 6.26 2.26 6.26 0.93L6.26-4.72L10.65-4.72C15.33-4.72 18.54-7.80 18.54-12.32C18.54-16.86 15.40-19.92 10.80-19.92L4.17-19.92C2.88-19.92 2.10-19.10 2.10-17.75L2.10 0.93C2.10 2.27 2.88 3.08 4.17 3.08ZM20.98-7.69C21.41-7.16 22.23-7.14 22.76-7.76C23.75-8.93 24.30-10.57 24.30-12.32C24.30-14.06 23.75-15.70 22.76-16.89C22.23-17.50 21.41-17.47 20.98-16.96C20.58-16.46 20.73-15.88 21.12-15.34C21.73-14.55 22.08-13.43 22.08-12.32C22.08-11.20 21.73-10.08 21.12-9.30C20.73-8.77 20.58-8.17 20.98-7.69ZM6.26-8.18L6.26-16.44L9.87-16.44C12.68-16.44 14.32-14.98 14.32-12.32C14.32-9.67 12.68-8.18 9.86-8.18ZM29.33 3.08L39.70 3.08C40.29 3.08 40.75 2.63 40.75 2.04C40.75 1.46 40.29 1.00 39.70 1.00L39.54 1.00L37.02-11.11C36.81-12.15 36.22-12.69 35.18-12.69L33.87-12.69C32.81-12.69 32.23-12.15 32.02-11.11L29.52 1.00L29.33 1.00C28.76 1.00 28.29 1.46 28.29 2.04C28.29 2.63 28.76 3.08 29.33 3.08Z" fill="currentColor"/>
</svg>