<svg xmlns="http://www.w3.org/2000/svg" viewBox="0 0 24 24" width="24" height="24">
  
  <path transform="matrix(0.5227156712608474, 0, 0, 0.5227156712608474, 0.903522205206738, 16.609114752790454)" d="M6.83-4.31C7.25-4.80 7.11-5.43 6.66-5.94C5.17-7.61 4.32-9.86 4.32-12.32C4.32-14.78 5.16-17.03 6.66-18.69C7.13-19.21 7.25-19.83 6.83-20.32C6.40-20.84 5.63-20.88 5.05-20.26C3.18-18.25 2.10-15.36 2.10-12.32C2.10-9.26 3.13-6.42 5.05-4.37C5.64-3.75 6.40-3.80 6.83-4.31ZM35.63-4.31C36.06-3.80 36.82-3.75 37.41-4.37C39.33-6.42 40.36-9.26 40.36-12.32C40.36-15.36 39.28-18.25 37.41-20.26C36.83-20.88 36.07-20.84 35.63-20.32C35.20-19.83 35.33-19.21 35.80-18.69C37.30-17.03 38.13-14.78 38.13-12.32C38.13-9.86 37.30-7.61 35.80-5.94C35.34-5.43 35.21-4.80 35.63-4.31ZM15.30 3.08C16.59 3.08 17.39 2.26 17.39 0.93L17.39-4.72L21.79-4.72C26.46-4.72 29.67-7.80 29.67-12.32C29.67-16.86 26.53-19.92 21.94-19.92L15.30-19.92C14.02-19.92 13.23-19.10 13.23-17.75L13.23 0.93C13.23 2.27 14.02 3.08 15.30 3.08ZM10.36-7.69C10.76-8.17 10.61-8.77 10.21-9.30C9.61-10.08 9.26-11.20 9.26-12.32C9.26-13.43 9.61-14.55 10.21-15.34C10.61-15.88 10.76-16.46 10.36-16.96C9.93-17.47 9.11-17.50 8.58-16.89C7.58-15.70 7.03-14.06 7.03-12.32C7.03-10.57 7.58-8.93 8.58-7.76C9.11-7.14 9.93-7.16 10.36-7.69ZM32.11-7.69C32.53-7.16 33.36-7.14 33.89-7.76C34.89-8.93 35.44-10.57 35.44-12.32C35.44-14.06 34.89-15.70 33.89-16.89C33.36-17.50 32.53-17.47 32.11-16.96C31.71-16.46 31.86-15.88 32.25-15.34C32.85-14.55 33.20-13.43 33.20-12.32C33.20-11.20 32.85-10.08 32.25-9.30C31.85-8.77 31.71-8.17 32.11-7.69ZM17.39-8.18L17.39-16.44L21-16.44C23.81-16.44 25.45-14.98 25.45-12.32C25.45-9.67 23.81-8.18 20.98-8.18Z" fill="currentColor"/>
</svg>