<svg xmlns="http://www.w3.org/2000/svg" viewBox="0 0 24 24" width="24" height="24">
  <title>pedal.brake</title>
  <path transform="matrix(0.8207101290602247, 0, 0, 0.8207101290602247, -0.4525126903557495, 18.764257667577006)" d="M6.98 2.39L20.98 2.39C25.02 2.39 26.63 0.38 27.14-4.00C27.45-6.62 27.45-9.25 27.04-12.79C26.51-17.44 23.99-19.32 19.03-18.79L7.46-17.47C4.56-17.16 2.99-15.45 2.99-12.67L2.99-1.58C2.99 0.94 4.45 2.39 6.98 2.39ZM7.20-0.21C6.21-0.21 5.58-0.82 5.58-1.79L5.58-12.67C5.58-13.96 6.34-14.74 7.72-14.89L19.31-16.18C22.52-16.55 24.13-15.45 24.45-12.70C24.86-9.21 24.86-6.66 24.55-4.08C24.20-1.15 23.58-0.21 20.98-0.21ZM9.07-10.58L21.14-10.58C21.63-10.58 22.02-10.97 22.02-11.46C22.02-11.94 21.63-12.34 21.14-12.34L9.07-12.34C8.59-12.34 8.20-11.94 8.20-11.46C8.20-10.97 8.59-10.58 9.07-10.58ZM9.07-6.73L21.14-6.73C21.63-6.73 22.02-7.13 22.02-7.61C22.02-8.10 21.63-8.48 21.14-8.48L9.07-8.48C8.59-8.48 8.20-8.10 8.20-7.61C8.20-7.13 8.59-6.73 9.07-6.73ZM9.07-2.88L21.14-2.88C21.63-2.88 22.02-3.28 22.02-3.76C22.02-4.25 21.63-4.64 21.14-4.64L9.07-4.64C8.59-4.64 8.20-4.25 8.20-3.76C8.20-3.28 8.59-2.88 9.07-2.88Z" fill="currentColor"/>
</svg>