<svg xmlns="http://www.w3.org/2000/svg" viewBox="0 0 24 24" width="24" height="24">
  <title>pedal.accelerator.fill</title>
  <path transform="matrix(0.7743496672716274, 0, 0, 0.7743496672716274, 1.6052631578947372, 18.551724137931036)" d="M10.21 4.45L19.96 4.45C22.39 4.45 23.85 3.01 23.85 0.60L23.86-17.50C23.86-19.85 22.35-21.38 19.99-21.38L8.38-21.38C5.02-21.38 2.99-19.34 2.99-15.97L2.99-13.79C2.99-10.54 3.76-8.51 5.54-6.20L6.33-5.18L6.33 0.60C6.33 3.01 7.78 4.45 10.21 4.45ZM8.50-13.70C7.99-13.70 7.58-14.11 7.58-14.61C7.58-15.13 7.99-15.54 8.50-15.54L18.76-15.54C19.27-15.54 19.69-15.13 19.69-14.61C19.69-14.11 19.27-13.70 18.76-13.70ZM9.62-9.28C9.12-9.28 8.71-9.68 8.71-10.21C8.71-10.71 9.12-11.12 9.62-11.12L18.76-11.12C19.27-11.12 19.69-10.71 19.69-10.21C19.69-9.68 19.27-9.28 18.76-9.28ZM11.54-4.88C11.03-4.88 10.63-5.29 10.63-5.79C10.63-6.30 11.03-6.73 11.54-6.73L18.76-6.73C19.27-6.73 19.69-6.30 19.69-5.79C19.69-5.29 19.27-4.88 18.76-4.88ZM11.54-0.46C11.03-0.46 10.63-0.86 10.63-1.38C10.63-1.89 11.03-2.30 11.54-2.30L18.76-2.30C19.27-2.30 19.69-1.89 19.69-1.38C19.69-0.86 19.27-0.46 18.76-0.46Z" fill="currentColor"/>
</svg>