<svg xmlns="http://www.w3.org/2000/svg" viewBox="0 0 24 24" width="24" height="24">
  
  <path transform="matrix(0.7362650353370626, 0, 0, 0.7362650353370626, 1.8231491111711096, 18.30712011859822)" d="M2.99-18.79L6.41-18.79L6.41-20.67C6.41-21.60 5.92-22.15 5.06-22.15L4.34-22.15C3.48-22.15 2.99-21.57 2.99-20.66ZM15.53 5.02L21.59 5.02C23.43 5.02 24.66 3.76 24.66 1.92L24.66-18.83C24.66-20.68 23.43-21.93 21.59-21.93L15.53-21.93C13.69-21.93 12.45-20.67 12.45-18.82L12.45 1.92C12.45 3.77 13.69 5.02 15.53 5.02ZM22.35-18.14L17.80-18.14C17.51-18.14 17.30-18.34 17.30-18.63C17.30-18.91 17.51-19.14 17.79-19.14L22.35-19.14ZM2.99 1.89L4.20 4.72C4.37 5.11 4.96 5.11 5.12 4.75L6.41 1.89L6.41-17.16L2.99-17.16ZM22.35-16.10L19.50-16.10C19.21-16.10 19.00-16.30 19.00-16.59C19.00-16.88 19.20-17.10 19.49-17.10L22.35-17.10ZM22.35-14.06L19.50-14.06C19.21-14.06 19.00-14.26 19.00-14.57C19.00-14.84 19.20-15.06 19.49-15.06L22.35-15.06ZM22.35-12.04L19.50-12.04C19.21-12.04 19.00-12.22 19.00-12.53C19.00-12.81 19.20-13.03 19.49-13.03L22.35-13.03ZM22.35-10.01L19.50-10.01C19.21-10.01 19.00-10.20 19.00-10.49C19.00-10.76 19.20-11.00 19.49-11.00L22.35-11.00ZM22.35-7.97L17.80-7.97C17.51-7.97 17.30-8.17 17.30-8.46C17.30-8.73 17.51-8.96 17.79-8.96L22.35-8.96ZM22.35-5.92L19.50-5.92C19.21-5.92 19.00-6.13 19.00-6.42C19.00-6.70 19.20-6.94 19.49-6.94L22.35-6.94ZM22.35-3.89L19.50-3.89C19.21-3.89 19.00-4.09 19.00-4.38C19.00-4.66 19.20-4.89 19.49-4.89L22.35-4.89ZM22.35-1.86L19.50-1.86C19.21-1.86 19.00-2.06 19.00-2.36C19.00-2.64 19.20-2.86 19.49-2.86L22.35-2.86ZM22.35 0.18L19.50 0.18C19.21 0.18 19.00-0.02 19.00-0.33C19.00-0.60 19.20-0.82 19.49-0.82L22.35-0.82ZM22.35 2.20L17.80 2.20C17.51 2.20 17.30 2.02 17.30 1.71C17.30 1.43 17.51 1.21 17.79 1.21L22.35 1.21Z" fill="currentColor"/>
</svg>