<svg xmlns="http://www.w3.org/2000/svg" viewBox="0 0 24 24" width="24" height="24">
  <title>person.crop.rectangle.fill</title>
  <path transform="matrix(0.7179918664983873, 0, 0, 0.7179918664983873, -0.14556163230963381, 18.06647034076567)" d="M6.96 2.60L26.87 2.60C29.46 2.60 30.84 1.23 30.84-1.34L30.84-15.56C30.84-18.13 29.46-19.50 26.87-19.50L6.96-19.50C4.37-19.50 2.99-18.14 2.99-15.56L2.99-1.34C2.99 1.24 4.37 2.60 6.96 2.60ZM16.92-6.33C14.68-6.34 12.96-8.20 12.96-10.66C12.95-12.97 14.71-14.92 16.92-14.92C19.14-14.92 20.88-12.97 20.88-10.66C20.88-8.20 19.15-6.32 16.92-6.33ZM9.50 0.09C10.48-2.58 13.41-4.45 16.92-4.45C20.43-4.45 23.37-2.58 24.34 0.09Z" fill="currentColor"/>
</svg>