<svg xmlns="http://www.w3.org/2000/svg" viewBox="0 0 24 24" width="24" height="24">
  
  <path transform="matrix(0.42989084802686817, 0, 0, 0.42989084802686817, 0.7153652392947103, 15.624685138539043)" d="M12.93-8.73C15.52-8.73 17.67-11.03 17.67-13.97C17.67-16.83 15.50-19.07 12.93-19.07C10.35-19.07 8.16-16.80 8.17-13.95C8.17-11.03 10.34-8.73 12.93-8.73ZM26.26-8.73C28.85-8.73 31.02-11.03 31.02-13.97C31.02-16.83 28.84-19.07 26.26-19.07C23.68-19.07 21.50-16.80 21.50-13.95C21.52-11.03 23.67-8.73 26.26-8.73ZM39.59-8.73C42.18-8.73 44.34-11.03 44.34-13.97C44.34-16.83 42.16-19.07 39.59-19.07C37.01-19.07 34.83-16.80 34.83-13.95C34.84-11.03 37.00-8.73 39.59-8.73ZM5.65 2.20L20.18 2.20C22.17 2.20 22.85 1.58 22.85 0.47C22.85-2.54 19.00-6.67 12.91-6.67C6.84-6.67 2.99-2.54 2.99 0.47C2.99 1.58 3.67 2.20 5.65 2.20ZM26.26-6.67C24.33-6.67 22.63-6.25 21.21-5.58C23.25-3.96 24.56-1.82 24.56 0.47C24.56 1.14 24.41 1.72 24.13 2.20L33.53 2.20C35.51 2.20 36.19 1.58 36.19 0.47C36.19-2.54 32.33-6.67 26.26-6.67ZM39.59-6.67C37.66-6.67 35.95-6.25 34.54-5.58C36.59-3.97 37.90-1.82 37.90 0.47C37.90 1.14 37.75 1.72 37.46 2.20L46.85 2.20C48.83 2.20 49.51 1.58 49.51 0.47C49.51-2.54 45.66-6.67 39.59-6.67Z" fill="currentColor"/>
</svg>