<svg xmlns="http://www.w3.org/2000/svg" viewBox="0 0 24 24" width="24" height="24">
  
  <path transform="matrix(0.7754051188853551, 0, 0, 0.7754051188853551, 1.4593366651522044, 18.574284416174464)" d="M13.59-12.76C15.86-12.76 17.63-14.68 17.63-17.12C17.63-19.48 15.83-21.38 13.59-21.38C11.34-21.38 9.56-19.46 9.56-17.10C9.57-14.67 11.33-12.76 13.59-12.76ZM13.59-14.73C12.46-14.73 11.61-15.69 11.61-17.11C11.60-18.46 12.47-19.41 13.59-19.41C14.72-19.41 15.59-18.46 15.59-17.12C15.59-15.70 14.73-14.73 13.59-14.73ZM7.36-4.31L19.83-4.31C20.92-4.31 21.60-4.92 21.60-5.98C21.60-8.54 18.41-11.73 13.59-11.73C8.78-11.73 5.59-8.54 5.59-5.98C5.59-4.92 6.26-4.31 7.36-4.31ZM8.02-6.29C7.84-6.29 7.76-6.36 7.78-6.49C7.93-7.68 10.00-9.76 13.59-9.76C17.19-9.76 19.24-7.68 19.41-6.49C19.42-6.36 19.35-6.29 19.16-6.29ZM4.21 4.42L22.99 4.42C23.66 4.42 24.20 3.87 24.20 3.20C24.20 2.53 23.66 1.98 22.99 1.98L22.25 1.98L22.25-0.36C22.25-1.77 21.48-2.60 20.02-2.60L7.17-2.60C5.71-2.60 4.93-1.77 4.93-0.36L4.93 1.98L4.21 1.98C3.54 1.98 2.99 2.53 2.99 3.20C2.99 3.87 3.54 4.42 4.21 4.42ZM11.33 1.80C10.84 1.80 10.45 1.42 10.45 0.91C10.45 0.42 10.84 0.04 11.33 0.04L15.87 0.04C16.37 0.04 16.75 0.42 16.75 0.91C16.75 1.42 16.37 1.80 15.87 1.80Z" fill="currentColor"/>
</svg>