<svg xmlns="http://www.w3.org/2000/svg" viewBox="0 0 24 24" width="24" height="24">
  
  <path transform="matrix(0.8181527644614893, 0, 0, 0.8181527644614893, 0.28379674017257894, 18.922339405560884)" d="M14.32 3.76C21.07 3.76 26.54-1.71 26.54-8.46C26.54-15.21 21.07-20.68 14.32-20.68C7.57-20.68 2.10-15.21 2.10-8.46C2.10-1.71 7.57 3.76 14.32 3.76ZM14.32 1.08C9.05 1.08 4.78-3.19 4.78-8.46C4.78-13.73 9.05-18 14.32-18C19.59-18 23.86-13.73 23.86-8.46C23.86-3.19 19.59 1.08 14.32 1.08ZM17.19-9.04C18.39-9.04 19.39-10.11 19.39-11.47C19.39-12.81 18.39-13.84 17.19-13.84C15.98-13.84 14.98-12.79 14.98-11.47C14.99-10.11 15.98-9.04 17.19-9.04ZM10.86-8.92C11.92-8.92 12.80-9.86 12.80-11.04C12.80-12.20 11.91-13.10 10.86-13.10C9.83-13.10 8.94-12.18 8.94-11.04C8.94-9.86 9.82-8.92 10.86-8.92ZM7.88-3.95L11.93-3.95C11.36-4.79 11.95-6.43 13.21-7.43C12.61-7.80 11.84-8.09 10.86-8.09C8.44-8.09 6.84-6.30 6.84-4.84C6.84-4.28 7.11-3.95 7.88-3.95ZM13.80-3.95L20.57-3.95C21.49-3.95 21.80-4.24 21.80-4.76C21.80-6.15 20.02-8.07 17.19-8.07C14.36-8.07 12.56-6.15 12.56-4.76C12.56-4.24 12.88-3.95 13.80-3.95Z" fill="currentColor"/>
</svg>