<svg xmlns="http://www.w3.org/2000/svg" viewBox="0 0 24 24" width="24" height="24">
  
  <path transform="matrix(0.7102233319461784, 0, 0, 0.7102233319461784, 2.378693300041615, 17.98834789846026)" d="M7.59-20.82L19.36-20.82C19.28-21.91 18.61-22.51 17.44-22.51L9.52-22.51C8.34-22.51 7.69-21.91 7.59-20.82ZM5.60-17.30L21.35-17.30C21.19-18.46 20.59-19.14 19.28-19.14L7.69-19.14C6.36-19.14 5.77-18.46 5.60-17.30ZM6.96 5.65L20.39 5.65C22.73 5.65 24.11 4.29 24.11 1.71L24.11-11.53C24.11-14.10 22.72-15.47 20.13-15.47L6.96-15.47C4.37-15.47 2.99-14.10 2.99-11.53L2.99 1.71C2.99 4.29 4.37 5.65 6.96 5.65ZM16.95-3.42C15.56-3.42 14.40-4.65 14.40-6.21C14.40-7.75 15.57-8.95 16.96-8.95C18.34-8.95 19.49-7.77 19.49-6.22C19.49-4.65 18.34-3.42 16.95-3.42ZM9.67-3.28C8.46-3.28 7.45-4.34 7.44-5.72C7.44-7.04 8.47-8.10 9.67-8.10C10.88-8.10 11.88-7.07 11.88-5.72C11.88-4.34 10.89-3.28 9.67-3.28ZM6.98 3.15C5.89 3.15 5.39 2.66 5.39 1.54L5.39-0.01C6.12-1.18 7.68-2.24 9.66-2.24C10.62-2.24 11.39-2.02 12.07-1.61C10.95-0.74 10.22 0.90 10.23 2.12C10.23 2.53 10.30 2.89 10.46 3.15ZM12.23 3.15C12.01 3.12 11.71 2.78 11.71 2.20C11.71 0.08 13.73-2.21 16.95-2.21C19.08-2.21 20.88-1.16 21.73 0.25L21.73 1.54C21.73 2.66 21.12 3.15 20.12 3.15Z" fill="currentColor"/>
</svg>