<svg xmlns="http://www.w3.org/2000/svg" viewBox="0 0 24 24" width="24" height="24">
  
  <path transform="matrix(0.7393766182715855, 0, 0, 0.7393766182715855, -0.2072922573836764, 18.140187239698726)" d="M9.45 0.39L10.09 0.27L10.09 1.41C10.09 3.73 11.33 4.97 13.68 4.97L26.45 4.97C28.79 4.97 30.04 3.73 30.04 1.41L30.04-11.43C30.04-13.75 28.79-14.99 26.45-14.99L23.36-14.99L22.72-18.60C22.32-20.89 20.88-21.89 18.56-21.49L5.99-19.28C3.68-18.87 2.67-17.43 3.07-15.14L5.31-2.50C5.71-0.21 7.15 0.79 9.45 0.39ZM7.64-3.15L5.48-15.32C5.33-16.17 5.78-16.78 6.60-16.92L18.79-19.08C19.61-19.22 20.24-18.80 20.40-17.94L20.92-14.99L13.68-14.99C11.33-14.99 10.09-13.75 10.09-11.43L10.09-2.17L9.23-2.02C8.41-1.88 7.78-2.31 7.64-3.15ZM12.49 1.17L12.49-11.18C12.49-12.05 13.03-12.57 13.88-12.57L26.25-12.57C27.07-12.57 27.63-12.05 27.63-11.18L27.63 1.17C27.63 1.85 27.29 2.32 26.73 2.50C25.75 0.19 23.14-1.39 20.06-1.39C16.98-1.39 14.38 0.19 13.38 2.50C12.83 2.32 12.49 1.85 12.49 1.17ZM20.06-3.05C22.09-3.05 23.66-4.76 23.66-6.97C23.66-9.08 22.08-10.84 20.06-10.84C18.05-10.84 16.45-9.08 16.45-6.97C16.45-4.76 18.04-3.05 20.06-3.05Z" fill="currentColor"/>
</svg>