<svg xmlns="http://www.w3.org/2000/svg" viewBox="0 0 24 24" width="24" height="24">
  
  <path transform="matrix(0.7513133281958077, 0, 0, 0.7513133281958077, 2.057913808240182, 18.356815112781717)" d="M0.81-10.89C-0.08-10.89-0.32-10.17 0.18-9.52L2.98-5.68C3.35-5.17 3.95-5.18 4.31-5.68L7.11-9.52C7.59-10.17 7.36-10.89 6.48-10.89L5.10-10.89C6.16-14.99 9.89-18 14.32-18C19.59-18 23.86-13.73 23.86-8.46C23.86-3.19 19.59 1.08 14.32 1.08C11.31 1.08 8.70-0.30 6.95-2.48C6.39-3.08 5.61-3.28 4.98-2.79C4.39-2.33 4.29-1.45 4.90-0.77C7.16 2.04 10.58 3.76 14.32 3.76C21.06 3.76 26.54-1.71 26.54-8.46C26.54-15.21 21.06-20.68 14.32-20.68C8.40-20.68 3.48-16.49 2.34-10.89ZM15.46-2.20C15.87-2.20 16.09-2.45 16.16-2.91L17.73-12.53C17.75-12.62 17.77-12.74 17.77-12.87C17.77-13.27 17.53-13.55 17.10-13.55C16.69-13.55 16.46-13.30 16.39-12.86L14.81-3.22C14.80-3.13 14.78-3.02 14.78-2.88C14.78-2.48 15.02-2.20 15.46-2.20ZM11.52-4.27C13.39-4.27 14.39-5.36 14.39-6.93C14.39-8.41 13.54-9.01 12.33-9.46L11.63-9.71C10.89-9.98 10.35-10.31 10.35-11.10C10.35-11.75 10.76-12.25 11.48-12.25C12.15-12.25 12.57-11.86 12.76-11.18C12.89-10.82 13.13-10.66 13.49-10.66C13.93-10.66 14.18-10.96 14.18-11.33C14.18-11.47 14.14-11.63 14.11-11.74C13.77-12.91 12.74-13.55 11.48-13.55C9.81-13.55 8.78-12.48 8.78-10.99C8.78-9.64 9.54-8.89 10.83-8.43L11.48-8.20C12.28-7.91 12.81-7.55 12.81-6.77C12.81-6.08 12.34-5.57 11.54-5.57C10.82-5.57 10.35-5.95 10.16-6.66C10.03-7.02 9.79-7.18 9.41-7.18C9-7.18 8.72-6.88 8.72-6.47C8.72-6.30 8.77-6.09 8.84-5.93C9.23-4.84 10.23-4.27 11.52-4.27ZM19.34-4.37C19.86-4.37 20.26-4.76 20.26-5.27C20.26-5.78 19.86-6.18 19.34-6.18C18.82-6.18 18.43-5.78 18.43-5.27C18.43-4.76 18.82-4.37 19.34-4.37Z" fill="currentColor"/>
</svg>