<svg xmlns="http://www.w3.org/2000/svg" viewBox="0 0 24 24" width="24" height="24">
  
  <path transform="matrix(0.8181527644614893, 0, 0, 0.8181527644614893, 0.28379674017257894, 18.922339405560884)" d="M14.32 3.76C21.07 3.76 26.54-1.71 26.54-8.46C26.54-15.21 21.07-20.68 14.32-20.68C7.57-20.68 2.10-15.21 2.10-8.46C2.10-1.71 7.57 3.76 14.32 3.76ZM14.32 1.08C9.05 1.08 4.78-3.19 4.78-8.46C4.78-13.73 9.05-18 14.32-18C19.59-18 23.86-13.73 23.86-8.46C23.86-3.19 19.59 1.08 14.32 1.08ZM9.73-6.33C9.73-5.79 10.08-5.45 10.63-5.45L13.50-5.45L13.50-3.41C13.50-2.34 14.07-1.15 14.32-1.15C14.55-1.15 15.14-2.34 15.14-3.41L15.14-5.45L18.01-5.45C18.56-5.45 18.91-5.79 18.91-6.33C18.91-7.55 17.85-8.80 16.25-9.39L16.07-12.05C16.91-12.52 17.58-13.04 17.86-13.42C18.02-13.63 18.11-13.84 18.11-14.04C18.11-14.43 17.80-14.71 17.37-14.71L11.27-14.71C10.84-14.71 10.54-14.43 10.54-14.04C10.54-13.84 10.62-13.62 10.79-13.41C11.09-13.04 11.73-12.52 12.57-12.05L12.39-9.39C10.79-8.80 9.73-7.55 9.73-6.33Z" fill="currentColor"/>
</svg>