<svg xmlns="http://www.w3.org/2000/svg" viewBox="0 0 24 24" width="24" height="24">
  <title>platter.2.filled.ipad</title>
  <path transform="matrix(0.7315330761537362, 0, 0, 0.7315330761537362, 2.2914702100300053, 18.19374196313759)" d="M2.99 1.65C2.99 3.82 4.42 5.20 6.64 5.20L19.89 5.20C22.11 5.20 23.55 3.82 23.55 1.65L23.55-18.57C23.55-20.74 22.11-22.14 19.89-22.14L6.64-22.14C4.42-22.14 2.99-20.74 2.99-18.57ZM5.60 1.23L5.60-18.15C5.60-19.03 6.09-19.52 7.02-19.52L19.52-19.52C20.45-19.52 20.94-19.03 20.94-18.15L20.94 1.23C20.94 2.10 20.45 2.60 19.52 2.60L7.02 2.60C6.09 2.60 5.60 2.10 5.60 1.23ZM8.98-10.75L17.58-10.75C18.20-10.75 18.62-11.16 18.62-11.80L18.62-14.38C18.62-15.02 18.20-15.45 17.58-15.45L8.98-15.45C8.36-15.45 7.93-15.02 7.93-14.38L7.93-11.80C7.93-11.16 8.36-10.75 8.98-10.75ZM8.98-1.52L17.58-1.52C18.20-1.52 18.62-1.93 18.62-2.59L18.62-5.16C18.62-5.80 18.20-6.22 17.58-6.22L8.98-6.22C8.36-6.22 7.93-5.80 7.93-5.16L7.93-2.59C7.93-1.93 8.36-1.52 8.98-1.52Z" fill="currentColor"/>
</svg>