<svg xmlns="http://www.w3.org/2000/svg" viewBox="0 0 24 24" width="24" height="24">
  <title>platter.filled.bottom.iphone</title>
  <path transform="matrix(0.7612250966399049, 0, 0, 0.7612250966399049, 2.454950936663692, 18.449598572702946)" d="M4.27 1.29C4.27 3.30 5.68 4.66 7.78 4.66L17.39 4.66C19.44 4.66 20.81 3.30 20.81 1.28L20.81-18.23C20.81-20.25 19.44-21.61 17.39-21.61L7.78-21.61C5.68-21.61 4.27-20.25 4.27-18.23ZM6.88 0.59L6.88-17.53C6.88-18.40 7.39-18.88 8.29-18.88L16.80-18.88C17.68-18.88 18.21-18.39 18.21-17.53L18.21 0.59C18.21 1.44 17.68 1.93 16.80 1.93L8.29 1.93C7.39 1.93 6.88 1.45 6.88 0.59ZM9.46 0.40L15.63 0.40C16.25 0.40 16.66-0.02 16.66-0.67L16.66-2.21C16.66-2.86 16.25-3.28 15.63-3.28L9.46-3.28C8.84-3.28 8.41-2.86 8.41-2.21L8.41-0.67C8.41-0.02 8.84 0.40 9.46 0.40Z" fill="currentColor"/>
</svg>