<svg xmlns="http://www.w3.org/2000/svg" viewBox="0 0 24 24" width="24" height="24">
  
  <path transform="matrix(0.8181527644614893, 0, 0, 0.8181527644614893, 0.28379674017257894, 18.922339405560884)" d="M14.32 3.76C21.07 3.76 26.54-1.71 26.54-8.46C26.54-15.21 21.07-20.68 14.32-20.68C7.57-20.68 2.10-15.21 2.10-8.46C2.10-1.71 7.57 3.76 14.32 3.76ZM14.32 1.08C9.05 1.08 4.78-3.19 4.78-8.46C4.78-13.73 9.05-18 14.32-18C19.59-18 23.86-13.73 23.86-8.46C23.86-3.19 19.59 1.08 14.32 1.08ZM8.23-4.34L13.62-7.86C14.05-8.16 14.04-8.73 13.62-9.01L8.23-12.56C7.77-12.86 7.16-12.59 7.16-12.07L7.16-4.80C7.16-4.30 7.75-4.02 8.23-4.34ZM15.61-4.31L16.72-4.31C17.26-4.31 17.53-4.62 17.53-5.07L17.53-11.85C17.53-12.30 17.26-12.60 16.72-12.60L15.61-12.60C15.07-12.60 14.80-12.30 14.80-11.85L14.80-5.07C14.80-4.62 15.07-4.31 15.61-4.31ZM19.58-4.31L20.70-4.31C21.22-4.31 21.50-4.62 21.50-5.07L21.50-11.85C21.50-12.30 21.22-12.60 20.70-12.60L19.58-12.60C19.04-12.60 18.76-12.30 18.76-11.85L18.76-5.07C18.76-4.62 19.04-4.31 19.58-4.31Z" fill="currentColor"/>
</svg>