<svg xmlns="http://www.w3.org/2000/svg" viewBox="0 0 24 24" width="24" height="24">
  
  <path transform="matrix(0.5526770293609672, 0, 0, 0.5526770293609672, 0.3484455958549222, 16.67616580310881)" d="M2.99-0.91C2.99 0.41 3.79 1.07 4.73 1.07C5.14 1.07 5.57 0.95 5.99 0.71L18.59-6.62C19.54-7.18 20.00-7.69 20.00-8.46C20.00-9.23 19.54-9.75 18.59-10.30L5.99-17.64C5.57-17.87 5.14-17.99 4.73-17.99C3.79-17.99 2.99-17.33 2.99-16.02ZM25.48 1.02L28.28 1.02C29.45 1.02 30.05 0.42 30.05-0.75L30.05-16.18C30.05-17.37 29.45-17.95 28.28-17.95L25.48-17.95C24.30-17.95 23.71-17.36 23.71-16.18L23.71-0.75C23.71 0.42 24.29 1.02 25.48 1.02ZM34.61 1.02L37.42 1.02C38.58 1.02 39.18 0.42 39.18-0.75L39.18-16.18C39.18-17.37 38.58-17.95 37.42-17.95L34.61-17.95C33.45-17.95 32.85-17.36 32.85-16.18L32.85-0.75C32.85 0.42 33.43 1.02 34.61 1.02Z" fill="currentColor"/>
</svg>