<svg xmlns="http://www.w3.org/2000/svg" viewBox="0 0 24 24" width="24" height="24">
  <title>plus.rectangle.on.rectangle</title>
  <path transform="matrix(0.6677099634846114, 0, 0, 0.6677099634846114, 0.004694835680751019, 17.64945226917058)" d="M6.96-1.77L9.01-1.77L9.01-0.02C9.01 2.55 10.38 3.91 12.98 3.91L28.97 3.91C31.56 3.91 32.94 2.54 32.94-0.02L32.94-11.21C32.94-13.78 31.56-15.15 28.97-15.15L26.92-15.15L26.92-16.90C26.92-19.46 25.54-20.84 22.95-20.84L6.96-20.84C4.36-20.84 2.99-19.46 2.99-16.90L2.99-5.71C2.99-3.13 4.36-1.77 6.96-1.77ZM7.18-4.37C6.15-4.37 5.60-4.90 5.60-5.98L5.60-16.63C5.60-17.71 6.15-18.22 7.18-18.22L22.72-18.22C23.74-18.22 24.30-17.71 24.30-16.63L24.30-15.15L12.98-15.15C10.38-15.15 9.01-13.79 9.01-11.21L9.01-4.37ZM13.21 1.30C12.18 1.30 11.63 0.79 11.63-0.29L11.63-10.95C11.63-12.02 12.18-12.54 13.21-12.54L28.75-12.54C29.77-12.54 30.33-12.02 30.33-10.95L30.33-0.29C30.33 0.79 29.77 1.30 28.75 1.30ZM16.77-4.44L19.80-4.44L19.80-1.41C19.80-0.71 20.29-0.22 20.98-0.22C21.67-0.22 22.17-0.71 22.17-1.41L22.17-4.44L25.21-4.44C25.90-4.44 26.39-4.93 26.39-5.63C26.39-6.32 25.90-6.82 25.21-6.82L22.17-6.82L22.17-9.86C22.17-10.55 21.67-11.04 20.98-11.04C20.29-11.04 19.80-10.55 19.80-9.86L19.80-6.82L16.77-6.82C16.07-6.82 15.59-6.32 15.59-5.63C15.59-4.93 16.07-4.44 16.77-4.44Z" fill="currentColor"/>
</svg>