<svg xmlns="http://www.w3.org/2000/svg" viewBox="0 0 24 24" width="24" height="24">
  <title>power</title>
  <path transform="matrix(0.7945375543140907, 0, 0, 0.7945375543140907, 0.6219739292364992, 19.011173184357542)" d="M14.32-8.31C15.15-8.31 15.70-8.91 15.70-9.77L15.70-19.93C15.70-20.81 15.15-21.41 14.32-21.41C13.49-21.41 12.94-20.81 12.94-19.93L12.94-9.77C12.94-8.91 13.49-8.31 14.32-8.31ZM14.32 3.76C21.07 3.76 26.54-1.71 26.54-8.46C26.54-12.04 25.03-15.08 22.88-17.14C21.53-18.49 19.58-16.73 20.96-15.29C22.76-13.56 23.86-11.14 23.86-8.46C23.86-3.19 19.59 1.08 14.32 1.08C9.05 1.08 4.78-3.19 4.78-8.46C4.78-11.17 5.89-13.57 7.68-15.29C9.07-16.75 7.13-18.47 5.78-17.14C3.61-15.11 2.10-11.96 2.10-8.46C2.10-1.71 7.57 3.76 14.32 3.76Z" fill="currentColor"/>
</svg>