<svg xmlns="http://www.w3.org/2000/svg" viewBox="0 0 24 24" width="24" height="24">
  
  <path transform="matrix(0.9044338456103161, 0, 0, 0.9044338456103161, -0.6974032856385799, 19.64705882352941)" d="M6.96 2.60L21.12 2.60C23.72 2.60 25.09 1.23 25.09-1.34L25.09-15.57C25.09-18.14 23.72-19.51 21.12-19.51L6.96-19.51C4.37-19.51 2.99-18.14 2.99-15.57L2.99-1.34C2.99 1.23 4.37 2.60 6.96 2.60ZM7.18-0.01C6.15-0.01 5.60-0.53 5.60-1.61L5.60-15.29C5.60-16.37 6.15-16.90 7.18-16.90L20.91-16.90C21.91-16.90 22.49-16.37 22.49-15.29L22.49-1.61C22.49-0.53 21.91-0.01 20.91-0.01ZM9.80-3.13L18.28-3.13C19.02-3.13 19.55-3.66 19.55-4.39L19.55-12.54C19.55-13.28 19.02-13.80 18.28-13.80L9.80-13.80C9.06-13.80 8.53-13.28 8.53-12.54L8.53-4.39C8.53-3.66 9.06-3.13 9.80-3.13ZM14.05-9.13C13.28-9.13 12.66-9.76 12.66-10.54C12.66-11.31 13.28-11.93 14.05-11.93C14.82-11.93 15.45-11.31 15.45-10.54C15.45-9.76 14.82-9.13 14.05-9.13ZM11.65-5.00C10.99-5.00 10.46-5.53 10.46-6.18C10.46-6.82 10.99-7.34 11.65-7.34C12.29-7.34 12.82-6.82 12.82-6.18C12.82-5.53 12.29-5.00 11.65-5.00ZM16.45-5.00C15.81-5.00 15.28-5.53 15.28-6.18C15.28-6.82 15.81-7.34 16.45-7.34C17.10-7.34 17.64-6.82 17.64-6.18C17.64-5.53 17.10-5.00 16.45-5.00Z" fill="currentColor"/>
</svg>