<svg xmlns="http://www.w3.org/2000/svg" viewBox="0 0 24 24" width="24" height="24">
  
  <path transform="matrix(0.7237772123268307, 0, 0, 0.7237772123268307, 3.6666666666666665, 18.123833757421544)" d="M10.10 5.36L12.93 5.36C14.41 5.36 15.19 4.57 15.19 3.06L15.19-1.28C15.19-2.60 15.77-3.28 16.90-4.13C18.91-5.68 20.04-8.02 20.04-10.50L20.04-13.61C20.04-14.80 19.36-15.46 18.18-15.48L16.85-15.48L16.85-20.61C16.85-21.54 16.10-22.28 15.20-22.28C14.29-22.28 13.54-21.54 13.54-20.61L13.54-15.48L9.49-15.48L9.49-20.61C9.49-21.54 8.77-22.28 7.86-22.28C6.94-22.28 6.20-21.54 6.20-20.61L6.20-15.48L4.84-15.48C3.64-15.46 2.99-14.80 2.99-13.61L2.99-10.50C2.99-8.02 4.10-5.68 6.13-4.13C7.25-3.28 7.83-2.60 7.83-1.28L7.83 3.06C7.83 4.57 8.59 5.36 10.10 5.36Z" fill="currentColor"/>
</svg>