<svg xmlns="http://www.w3.org/2000/svg" viewBox="0 0 24 24" width="24" height="24">
  
  <path transform="matrix(0.8181527644614893, 0, 0, 0.8181527644614893, 0.28379674017257894, 18.922339405560884)" d="M14.32 3.76C21.07 3.76 26.54-1.72 26.54-8.46C26.54-15.21 21.07-20.68 14.32-20.68C7.58-20.68 2.10-15.21 2.10-8.46C2.10-1.72 7.58 3.76 14.32 3.76ZM9.13-6.77C7.80-6.77 6.75-7.84 6.75-9.15C6.75-10.48 7.80-11.54 9.13-11.54C10.44-11.54 11.52-10.48 11.52-9.15C11.52-7.84 10.44-6.77 9.13-6.77ZM19.51-6.77C18.20-6.77 17.12-7.84 17.12-9.15C17.12-10.48 18.20-11.54 19.51-11.54C20.84-11.54 21.89-10.48 21.89-9.15C21.89-7.84 20.84-6.77 19.51-6.77ZM14.32-1.18C13.01-1.18 11.93-2.25 11.93-3.56C11.93-4.88 13.01-5.95 14.32-5.95C15.63-5.95 16.71-4.88 16.71-3.56C16.71-2.25 15.63-1.18 14.32-1.18Z" fill="currentColor"/>
</svg>