<svg xmlns="http://www.w3.org/2000/svg" viewBox="0 0 24 24" width="24" height="24">
  <title>poweroutlet.type.a</title>
  <path transform="matrix(0.7612250966399049, 0, 0, 0.7612250966399049, -0.274754683318466, 18.44513826940232)" d="M9.60 2.06L22.64 2.06C23.60 2.06 24.50 1.71 25.16 1.07C27.74-1.38 29.26-4.96 29.26-8.46C29.26-11.96 27.74-15.54 25.16-18C24.50-18.63 23.59-19.00 22.64-19.00L9.60-19.00C8.63-19.00 7.68-18.61 7.00-17.93C4.50-15.48 2.99-11.93 2.99-8.46C2.99-4.96 4.51-1.38 7.08 1.07C7.75 1.71 8.65 2.06 9.60 2.06ZM9.70-0.41C9.30-0.41 9.01-0.53 8.77-0.76C6.75-2.66 5.51-5.58 5.51-8.43C5.51-11.26 6.76-14.20 8.79-16.10C9.04-16.32 9.32-16.43 9.70-16.43L22.54-16.43C22.95-16.43 23.23-16.32 23.47-16.08C25.49-14.18 26.74-11.26 26.74-8.43C26.74-5.58 25.49-2.66 23.47-0.76C23.23-0.53 22.95-0.41 22.54-0.41ZM11.16-3.74C11.82-3.74 12.36-4.25 12.36-4.92L12.36-11.91C12.36-12.57 11.82-13.11 11.16-13.11C10.49-13.11 9.97-12.57 9.97-11.91L9.97-4.92C9.97-4.25 10.49-3.74 11.16-3.74ZM21.08-3.74C21.74-3.74 22.27-4.27 22.27-4.93L22.27-11.89C22.27-12.57 21.74-13.11 21.08-13.11C20.41-13.11 19.89-12.56 19.89-11.89L19.89-4.93C19.89-4.27 20.41-3.74 21.08-3.74Z" fill="currentColor"/>
</svg>