<svg xmlns="http://www.w3.org/2000/svg" viewBox="0 0 24 24" width="24" height="24">
  <title>poweroutlet.type.b.square.fill</title>
  <path transform="matrix(0.9044338456103161, 0, 0, 0.9044338456103161, -0.6974032856385799, 19.64705882352941)" d="M6.96 2.60L21.12 2.60C23.72 2.60 25.09 1.23 25.09-1.34L25.09-15.57C25.09-18.14 23.72-19.51 21.12-19.51L6.96-19.51C4.37-19.51 2.99-18.14 2.99-15.57L2.99-1.34C2.99 1.23 4.37 2.60 6.96 2.60ZM9.43-2.61C8.60-2.61 8.02-3.20 8.02-4.03L8.02-12.89C8.02-13.72 8.60-14.31 9.43-14.31L18.66-14.31C19.48-14.31 20.07-13.72 20.07-12.89L20.07-4.03C20.07-3.20 19.48-2.61 18.66-2.61ZM11.59-8.36C12.01-8.36 12.35-8.68 12.35-9.11L12.35-11.24C12.35-11.66 12.01-12 11.59-12C11.17-12 10.84-11.66 10.84-11.24L10.84-9.11C10.84-8.68 11.17-8.36 11.59-8.36ZM16.48-8.36C16.91-8.36 17.24-8.68 17.24-9.11L17.24-11.24C17.24-11.66 16.91-12 16.48-12C16.07-12 15.74-11.66 15.74-11.24L15.74-9.11C15.74-8.68 16.07-8.36 16.48-8.36ZM13.21-4.57L14.88-4.57C15.13-4.57 15.26-4.70 15.26-4.95L15.26-5.66C15.26-6.35 14.73-6.89 14.04-6.89C13.34-6.89 12.82-6.35 12.82-5.66L12.82-4.95C12.82-4.70 12.95-4.57 13.21-4.57Z" fill="currentColor"/>
</svg>