<svg xmlns="http://www.w3.org/2000/svg" viewBox="0 0 24 24" width="24" height="24">
  
  <path transform="matrix(0.7268597387847814, 0, 0, 0.7268597387847814, -0.17206132879046, 18.14565587734242)" d="M12.89 2.09L20.60 2.09C27.52 2.09 30.50-1.00 30.50-7.69L30.50-15.12C30.50-17.65 29.14-19.00 26.59-19.00L6.90-19.00C4.36-19.00 2.99-17.65 2.99-15.12L2.99-7.69C2.99-1.00 5.98 2.09 12.89 2.09ZM14.20-3.50C13.49-3.50 13.09-3.97 13.09-4.70L13.09-12.32C13.09-13.08 13.52-13.55 14.20-13.55L17.07-13.55C19.30-13.55 20.79-12.34 20.79-10.25C20.79-9.02 20.09-7.89 18.98-7.39L20.29-5.31C20.44-5.07 20.54-4.80 20.54-4.51C20.54-3.91 20.12-3.50 19.50-3.50C18.98-3.50 18.66-3.71 18.36-4.24L16.78-7.03L15.36-7.03L15.36-4.70C15.36-4.00 14.95-3.50 14.20-3.50ZM15.36-8.68L16.83-8.68C17.92-8.68 18.54-9.21 18.54-10.21C18.54-11.19 17.88-11.80 16.85-11.80L15.36-11.80Z" fill="currentColor"/>
</svg>