<svg xmlns="http://www.w3.org/2000/svg" viewBox="0 0 24 24" width="24" height="24">
  <title>r.joystick.press.down</title>
  <path transform="matrix(0.7128933444722918, 0, 0, 0.7128933444722918, 1.4987468671679198, 19.418546365914786)" d="M11.58-22.89L14.06-19.58C14.40-19.13 15.05-19.14 15.39-19.58L17.88-22.89C18.40-23.57 18.12-24.43 17.20-24.43L12.25-24.43C11.37-24.43 11.05-23.58 11.58-22.89ZM14.73-1.79C22.45-1.79 27.36-5.24 27.36-9.96C27.36-14.70 22.44-18.13 14.72-18.13C7.01-18.13 2.10-14.70 2.10-9.96C2.10-5.24 7.01-1.79 14.73-1.79ZM14.73-4.37C8.82-4.37 4.88-6.62 4.88-9.96C4.88-13.30 8.82-15.55 14.72-15.55C20.63-15.55 24.59-13.30 24.59-9.96C24.59-6.62 20.64-4.37 14.73-4.37ZM12.83-6.39C13.38-6.39 13.72-6.76 13.72-7.37L13.72-8.91L14.72-8.91L15.90-6.97C16.20-6.53 16.41-6.38 16.79-6.38C17.26-6.38 17.63-6.69 17.63-7.16C17.63-7.37 17.57-7.56 17.43-7.75L16.44-9.22C17.32-9.55 17.85-10.34 17.85-11.30C17.85-12.77 16.79-13.68 15.08-13.68L12.94-13.68C12.32-13.68 11.95-13.29 11.95-12.62L11.95-7.37C11.95-6.75 12.28-6.39 12.83-6.39ZM13.72-10.27L13.72-12.29L14.87-12.29C15.59-12.29 16.01-11.89 16.01-11.26C16.01-10.64 15.59-10.27 14.86-10.27ZM14.73 3.62C17.87 3.62 19.80 2.16 19.80-0.35L19.80-0.71C18.26-0.35 16.56-0.18 14.73-0.18C12.90-0.18 11.20-0.35 9.66-0.71L9.66-0.35C9.66 2.16 11.59 3.62 14.73 3.62Z" fill="currentColor"/>
</svg>