<svg xmlns="http://www.w3.org/2000/svg" viewBox="0 0 24 24" width="24" height="24">
  <title>r4.button.horizontal</title>
  <path transform="matrix(0.7134894091415831, 0, 0, 0.7134894091415831, -0.13210702341137148, 18.036789297658864)" d="M12.29 2.40L21.71 2.40C28.63 2.40 31.02-0.08 31.02-6.68L31.02-10.24C31.02-16.84 28.63-19.32 21.71-19.32L12.29-19.32C5.38-19.32 2.99-16.84 2.99-10.24L2.99-6.68C2.99-0.08 5.38 2.40 12.29 2.40ZM12.29-0.21C7.21-0.21 5.60-1.82 5.60-6.68L5.60-10.24C5.60-15.11 7.21-16.71 12.29-16.71L21.71-16.71C26.80-16.71 28.41-15.11 28.41-10.24L28.41-6.68C28.41-1.82 26.80-0.21 21.71-0.21ZM21.79-3.69C22.28-3.69 22.68-3.97 22.68-4.61L22.68-5.58L22.98-5.58C23.51-5.58 23.71-5.91 23.71-6.32C23.71-6.76 23.48-7.05 22.99-7.05L22.68-7.05L22.68-11.85C22.68-12.73 22.09-13.22 21.25-13.22C20.23-13.22 19.83-12.59 19.49-11.73L17.77-7.82C17.58-7.36 17.50-7.00 17.50-6.61C17.50-5.98 17.89-5.58 18.56-5.58L20.89-5.58L20.89-4.61C20.89-3.95 21.35-3.69 21.79-3.69ZM11.59-3.68C12.18-3.68 12.52-4.07 12.52-4.68L12.52-7.27L13.41-7.27L14.46-4.48C14.64-3.96 14.93-3.68 15.45-3.68C15.90-3.68 16.34-3.98 16.32-4.61C16.32-4.77 16.25-4.98 16.16-5.23L15.18-7.66C16.04-8.16 16.39-9.15 16.39-10.15C16.39-12.07 15.28-13.07 13.45-13.07L11.58-13.07C10.96-13.07 10.63-12.69 10.63-12.08L10.63-4.68C10.63-4.07 10.96-3.68 11.59-3.68ZM20.94-7.01L19.05-7.01L19.05-7.09L20.89-11.66L20.94-11.66ZM12.52-8.61L12.52-11.59L13.29-11.59C14.07-11.59 14.48-10.92 14.48-10.11C14.48-9.29 14.12-8.61 13.29-8.61Z" fill="currentColor"/>
</svg>