<svg xmlns="http://www.w3.org/2000/svg" viewBox="0 0 24 24" width="24" height="24">
  <title>radio.fill</title>
  <path transform="matrix(0.7179918664983873, 0, 0, 0.7179918664983873, -0.14556163230963381, 19.921195496184183)" d="M6.96 2.60L26.87 2.60C29.46 2.60 30.84 1.23 30.84-1.34L30.84-15.56C30.84-18.13 29.46-19.50 26.87-19.50L25.57-19.50L9.84-24.61C9.23-24.81 8.55-24.47 8.37-23.86C8.17-23.25 8.51-22.57 9.12-22.37L17.95-19.50L6.96-19.50C4.37-19.50 2.99-18.14 2.99-15.56L2.99-1.34C2.99 1.24 4.37 2.60 6.96 2.60ZM14.09-13.27C13.57-13.27 13.15-13.70 13.15-14.21C13.15-14.73 13.57-15.14 14.09-15.14C14.59-15.14 15-14.73 15-14.21C15-13.70 14.59-13.27 14.09-13.27ZM24.55-10.97C23.50-10.96 22.63-11.81 22.63-12.86C22.63-13.91 23.50-14.79 24.55-14.78C25.61-14.77 26.46-13.90 26.46-12.86C26.46-11.81 25.62-10.98 24.55-10.97ZM16.96-12.45C16.45-12.45 16.05-12.88 16.05-13.38C16.05-13.90 16.45-14.33 16.96-14.33C17.48-14.33 17.89-13.90 17.89-13.38C17.89-12.88 17.48-12.45 16.96-12.45ZM11.20-12.45C10.69-12.45 10.28-12.88 10.28-13.38C10.28-13.90 10.68-14.33 11.20-14.33C11.71-14.33 12.11-13.90 12.11-13.38C12.11-12.88 11.71-12.45 11.20-12.45ZM19.11-10.36C18.61-10.36 18.21-10.77 18.21-11.29C18.21-11.81 18.61-12.23 19.11-12.23C19.63-12.23 20.05-11.81 20.05-11.29C20.05-10.77 19.63-10.36 19.11-10.36ZM9.04-10.36C8.53-10.36 8.11-10.77 8.11-11.29C8.11-11.81 8.53-12.23 9.04-12.23C9.54-12.23 9.94-11.81 9.94-11.29C9.94-10.77 9.54-10.36 9.04-10.36ZM14.09-10.31C13.57-10.31 13.15-10.72 13.15-11.24C13.15-11.77 13.57-12.19 14.09-12.19C14.59-12.19 15-11.77 15-11.24C15-10.72 14.59-10.31 14.09-10.31ZM16.75-9.14C16.24-9.14 15.82-9.57 15.82-10.07C15.82-10.58 16.24-11.02 16.75-11.02C17.25-11.02 17.66-10.58 17.66-10.07C17.66-9.57 17.25-9.14 16.75-9.14ZM11.41-9.14C10.91-9.14 10.50-9.57 10.50-10.07C10.50-10.58 10.91-11.02 11.41-11.02C11.92-11.02 12.35-10.58 12.35-10.07C12.35-9.57 11.92-9.14 11.41-9.14ZM24.55-5.59C23.50-5.59 22.63-6.47 22.63-7.52C22.63-8.57 23.50-9.42 24.55-9.42C25.61-9.42 26.46-8.58 26.46-7.52C26.46-6.46 25.61-5.59 24.55-5.59ZM19.85-7.58C19.35-7.58 18.94-7.99 18.94-8.51C18.94-9.01 19.35-9.42 19.85-9.42C20.36-9.42 20.78-9.01 20.78-8.51C20.78-7.99 20.36-7.58 19.85-7.58ZM8.30-7.58C7.79-7.58 7.38-7.99 7.38-8.51C7.38-9.01 7.79-9.42 8.30-9.42C8.81-9.42 9.23-9.01 9.23-8.51C9.23-7.99 8.81-7.58 8.30-7.58ZM14.09-7.55C13.57-7.55 13.15-7.96 13.15-8.46C13.15-8.96 13.57-9.38 14.09-9.38C14.59-9.38 15-8.96 15-8.46C15-7.96 14.59-7.55 14.09-7.55ZM16.75-5.91C16.24-5.91 15.82-6.33 15.82-6.84C15.82-7.36 16.24-7.78 16.75-7.78C17.26-7.78 17.66-7.36 17.66-6.84C17.66-6.33 17.26-5.91 16.75-5.91ZM11.41-5.91C10.90-5.91 10.50-6.33 10.50-6.84C10.50-7.36 10.90-7.78 11.41-7.78C11.92-7.78 12.35-7.36 12.35-6.84C12.35-6.33 11.92-5.91 11.41-5.91ZM19.11-4.77C18.61-4.77 18.21-5.20 18.21-5.73C18.21-6.23 18.61-6.64 19.11-6.64C19.63-6.64 20.05-6.23 20.05-5.73C20.05-5.20 19.63-4.77 19.11-4.77ZM9.04-4.77C8.53-4.77 8.11-5.20 8.11-5.73C8.11-6.23 8.53-6.64 9.04-6.64C9.54-6.64 9.94-6.23 9.94-5.73C9.94-5.20 9.54-4.77 9.04-4.77ZM14.09-4.73C13.57-4.73 13.15-5.17 13.15-5.68C13.15-6.19 13.57-6.61 14.09-6.61C14.59-6.61 15-6.19 15-5.68C15-5.17 14.59-4.73 14.09-4.73ZM16.96-2.64C16.45-2.64 16.05-3.06 16.05-3.59C16.05-4.09 16.45-4.51 16.96-4.51C17.48-4.51 17.89-4.09 17.89-3.59C17.89-3.06 17.48-2.64 16.96-2.64ZM11.20-2.64C10.68-2.64 10.28-3.06 10.28-3.59C10.28-4.09 10.69-4.51 11.20-4.51C11.71-4.51 12.11-4.09 12.11-3.59C12.11-3.06 11.71-2.64 11.20-2.64ZM14.09-1.77C13.57-1.77 13.15-2.19 13.15-2.71C13.15-3.22 13.57-3.66 14.09-3.66C14.59-3.66 15-3.22 15-2.71C15-2.19 14.59-1.77 14.09-1.77Z" fill="currentColor"/>
</svg>