<svg xmlns="http://www.w3.org/2000/svg" viewBox="0 0 24 24" width="24" height="24">
  <title>rb.circle</title>
  <path transform="matrix(0.8181527644614893, 0, 0, 0.8181527644614893, 0.28379674017257894, 18.922339405560884)" d="M14.32 3.76C21.07 3.76 26.54-1.71 26.54-8.46C26.54-15.21 21.07-20.68 14.32-20.68C7.57-20.68 2.10-15.21 2.10-8.46C2.10-1.71 7.57 3.76 14.32 3.76ZM14.32 1.08C9.05 1.08 4.78-3.19 4.78-8.46C4.78-13.73 9.05-18 14.32-18C19.59-18 23.86-13.73 23.86-8.46C23.86-3.19 19.59 1.08 14.32 1.08ZM16.14-3.83L18.59-3.83C20.18-3.83 21.07-4.95 21.07-6.46C21.07-7.57 20.38-8.59 19.32-8.68L19.32-8.74C20.21-8.89 20.82-9.83 20.82-10.76C20.82-12.22 19.86-13.07 18.50-13.07L16.14-13.07C15.52-13.07 15.20-12.64 15.20-12.08L15.20-4.80C15.20-4.23 15.52-3.83 16.14-3.83ZM8.96-3.68C9.56-3.68 9.90-4.07 9.90-4.68L9.90-7.27L10.79-7.27L11.85-4.48C12.02-3.96 12.32-3.68 12.82-3.68C13.29-3.68 13.72-3.98 13.71-4.61C13.70-4.77 13.64-4.98 13.55-5.23L12.56-7.66C13.42-8.16 13.78-9.15 13.78-10.15C13.78-12.07 12.67-13.07 10.84-13.07L8.95-13.07C8.34-13.07 8.00-12.69 8.00-12.08L8.00-4.68C8.00-4.07 8.34-3.68 8.96-3.68ZM17.06-9.20L17.06-11.66L17.94-11.66C18.73-11.66 19.02-11.16 19.02-10.46C19.02-9.68 18.61-9.20 17.84-9.20ZM9.90-8.61L9.90-11.59L10.68-11.59C11.46-11.59 11.86-10.92 11.86-10.11C11.86-9.29 11.51-8.61 10.66-8.61ZM17.06-5.23L17.06-7.98L17.93-7.98C18.70-7.98 19.18-7.51 19.18-6.61C19.18-5.78 18.80-5.23 17.96-5.23Z" fill="currentColor"/>
</svg>