<svg xmlns="http://www.w3.org/2000/svg" viewBox="0 0 24 24" width="24" height="24">
  
  <path transform="matrix(0.7515044767356525, 0, 0, 0.7515044767356525, -0.2457067371202113, 18.349625715543812)" d="M5.72-9.32L7.96-9.32C9.80-9.32 10.69-10.21 10.69-12.09L10.69-16.73C10.69-18.61 9.80-19.50 7.96-19.50L5.72-19.50C3.88-19.50 2.99-18.61 2.99-16.73L2.99-12.09C2.99-10.21 3.88-9.32 5.72-9.32ZM15.18-9.32L17.41-9.32C19.25-9.32 20.14-10.21 20.14-12.09L20.14-16.73C20.14-18.61 19.25-19.50 17.41-19.50L15.18-19.50C13.34-19.50 12.45-18.61 12.45-16.73L12.45-12.09C12.45-10.21 13.34-9.32 15.18-9.32ZM24.63-9.32L26.86-9.32C28.71-9.32 29.60-10.21 29.60-12.09L29.60-16.73C29.60-18.61 28.71-19.50 26.86-19.50L24.63-19.50C22.78-19.50 21.89-18.61 21.89-16.73L21.89-12.09C21.89-10.21 22.78-9.32 24.63-9.32ZM5.73-11.46C5.32-11.46 5.12-11.66 5.12-12.08L5.12-16.75C5.12-17.16 5.32-17.36 5.73-17.36L7.95-17.36C8.36-17.36 8.55-17.16 8.55-16.75L8.55-12.08C8.55-11.66 8.36-11.46 7.95-11.46ZM15.19-11.46C14.77-11.46 14.58-11.66 14.58-12.08L14.58-16.75C14.58-17.16 14.77-17.36 15.19-17.36L17.40-17.36C17.81-17.36 18.01-17.16 18.01-16.75L18.01-12.08C18.01-11.66 17.81-11.46 17.40-11.46ZM24.63-11.46C24.22-11.46 24.04-11.66 24.04-12.08L24.04-16.75C24.04-17.16 24.22-17.36 24.63-17.36L26.85-17.36C27.27-17.36 27.46-17.16 27.46-16.75L27.46-12.08C27.46-11.66 27.27-11.46 26.85-11.46ZM5.72 2.60L7.96 2.60C9.80 2.60 10.69 1.72 10.69-0.16L10.69-4.80C10.69-6.68 9.80-7.57 7.96-7.57L5.72-7.57C3.88-7.57 2.99-6.68 2.99-4.80L2.99-0.16C2.99 1.72 3.88 2.60 5.72 2.60ZM15.18 2.60L17.41 2.60C19.25 2.60 20.14 1.72 20.14-0.16L20.14-4.80C20.14-6.68 19.25-7.57 17.41-7.57L15.18-7.57C13.34-7.57 12.45-6.68 12.45-4.80L12.45-0.16C12.45 1.72 13.34 2.60 15.18 2.60ZM24.63 2.60L26.86 2.60C28.71 2.60 29.60 1.72 29.60-0.16L29.60-4.80C29.60-6.68 28.71-7.57 26.86-7.57L24.63-7.57C22.78-7.57 21.89-6.68 21.89-4.80L21.89-0.16C21.89 1.72 22.78 2.60 24.63 2.60ZM5.73 0.47C5.32 0.47 5.12 0.27 5.12-0.15L5.12-4.80C5.12-5.23 5.32-5.44 5.73-5.44L7.95-5.44C8.36-5.44 8.55-5.23 8.55-4.80L8.55-0.15C8.55 0.27 8.36 0.47 7.95 0.47ZM15.19 0.47C14.77 0.47 14.58 0.27 14.58-0.15L14.58-4.80C14.58-5.23 14.77-5.44 15.19-5.44L17.40-5.44C17.81-5.44 18.01-5.23 18.01-4.80L18.01-0.15C18.01 0.27 17.81 0.47 17.40 0.47ZM24.63 0.47C24.22 0.47 24.04 0.27 24.04-0.15L24.04-4.80C24.04-5.23 24.22-5.44 24.63-5.44L26.85-5.44C27.27-5.44 27.46-5.23 27.46-4.80L27.46-0.15C27.46 0.27 27.27 0.47 26.85 0.47Z" fill="currentColor"/>
</svg>