<svg xmlns="http://www.w3.org/2000/svg" viewBox="0 0 24 24" width="24" height="24">
  
  <path transform="matrix(0.6677099634846114, 0, 0, 0.6677099634846114, 0.004694835680751019, 17.6377151799687)" d="M30.90 5.47C31.28 5.85 31.89 5.85 32.25 5.47C32.63 5.10 32.63 4.50 32.25 4.13L5.77-22.36C5.40-22.73 4.78-22.73 4.41-22.36C4.04-22.00 4.04-21.38 4.41-21.01ZM22.85-20.84L9.40-20.84L12.01-18.22L22.63-18.22C23.65-18.22 24.21-17.71 24.21-16.63L24.21-15.15L15.08-15.15L17.68-12.54L28.75-12.54C29.77-12.54 30.33-12.02 30.33-10.95L30.33-1.20C30.33-0.77 30.26-0.41 30.12-0.11L32.38 2.14C32.74 1.59 32.94 0.87 32.94-0.02L32.94-11.21C32.94-13.78 31.56-15.15 28.97-15.15L26.82-15.15L26.82-16.90C26.82-19.46 25.44-20.84 22.85-20.84ZM12.98 3.91L27.23 3.91L24.62 1.30L13.21 1.30C12.18 1.30 11.63 0.79 11.63-0.29L11.63-10.01C11.63-10.56 11.71-11.05 11.88-11.44L9.68-13.64C9.23-13.04 9.01-12.23 9.01-11.21L9.01-4.37L7.18-4.37C6.15-4.37 5.60-4.90 5.60-5.98L5.60-15.71C5.60-16.38 5.73-16.93 5.96-17.34L3.82-19.50C3.27-18.90 2.99-18.02 2.99-16.90L2.99-5.71C2.99-3.13 4.36-1.77 6.96-1.77L9.01-1.77L9.01-0.02C9.01 2.55 10.38 3.91 12.98 3.91Z" fill="currentColor"/>
</svg>