<svg xmlns="http://www.w3.org/2000/svg" viewBox="0 0 24 24" width="24" height="24">
  <title>rectangle.on.rectangle.circle</title>
  <path transform="matrix(0.8181527644614893, 0, 0, 0.8181527644614893, 0.28379674017257894, 18.922339405560884)" d="M14.32 3.76C21.07 3.76 26.54-1.71 26.54-8.46C26.54-15.21 21.07-20.68 14.32-20.68C7.57-20.68 2.10-15.21 2.10-8.46C2.10-1.71 7.57 3.76 14.32 3.76ZM14.32 1.08C9.05 1.08 4.78-3.19 4.78-8.46C4.78-13.73 9.05-18 14.32-18C19.59-18 23.86-13.73 23.86-8.46C23.86-3.19 19.59 1.08 14.32 1.08ZM9.53-10.02C9.53-11.50 10.32-12.29 11.81-12.29L18.35-12.29L18.35-12.39C18.35-13.41 17.79-13.96 16.72-13.96L9.36-13.96C8.29-13.96 7.73-13.41 7.73-12.33L7.73-7.15C7.73-6.08 8.29-5.53 9.34-5.53L9.53-5.53ZM11.88-3.11L19.25-3.11C20.32-3.11 20.88-3.66 20.88-4.72L20.88-9.94C20.88-10.99 20.32-11.55 19.25-11.55L11.88-11.55C10.82-11.55 10.25-10.99 10.25-9.94L10.25-4.72C10.25-3.66 10.82-3.11 11.88-3.11Z" fill="currentColor"/>
</svg>