<svg xmlns="http://www.w3.org/2000/svg" viewBox="0 0 24 24" width="24" height="24">
  <title>rectangle.portrait.on.rectangle.portrait.angled</title>
  <path transform="matrix(0.6602563084639007, 0, 0, 0.6602563084639007, 1.412305015074614, 17.728967004624145)" d="M29.09-13.49C29.09-16.08 27.71-17.45 25.15-17.45L22.39-17.45L21.87-20.50C21.41-23.06 19.83-24.16 17.30-23.73L6.27-21.79C3.74-21.34 2.64-19.76 3.08-17.19L5.86-1.45C6.28 0.96 7.73 2.11 10.01 1.84L10.01 2.50C10.01 5.09 11.38 6.47 13.95 6.47L25.15 6.47C27.71 6.47 29.09 5.09 29.09 2.50ZM8.39-2.12L5.70-17.44C5.52-18.45 5.93-19.07 7.00-19.27L17.48-21.12C18.54-21.29 19.15-20.85 19.32-19.83L19.76-17.45L13.95-17.45C11.38-17.45 10.01-16.08 10.01-13.49L10.01-0.81C9.09-0.71 8.55-1.20 8.39-2.12ZM26.47-13.27L26.47 2.29C26.47 3.29 25.95 3.87 24.87 3.87L14.21 3.87C13.14 3.87 12.62 3.29 12.62 2.29L12.62-13.27C12.62-14.29 13.14-14.85 14.21-14.85L24.87-14.85C25.95-14.85 26.47-14.29 26.47-13.27Z" fill="currentColor"/>
</svg>