<svg xmlns="http://www.w3.org/2000/svg" viewBox="0 0 24 24" width="24" height="24">
  
  <path transform="matrix(0.7619047619047619, 0, 0, 0.7619047619047619, 1.6294642857142865, 18.580357142857142)" d="M4.95-9.82L7.27-9.82L7.27-17.99C7.27-18.86 7.78-19.38 8.71-19.38L18.52-19.38C19.44-19.38 19.96-18.84 19.96-17.98L19.96-17.30L22.28-17.30L22.28-18.34C22.28-20.41 20.93-21.76 18.81-21.76L8.41-21.76C6.28-21.76 4.95-20.41 4.95-18.35ZM22.34-15.81L17.50-15.81C16.90-15.81 16.57-15.35 16.57-14.88C16.58-14.41 16.91-13.95 17.53-13.95L19.25-13.93L20.51-14.09L19.16-12.93L17.45-11.24C17.23-11.02 17.12-10.73 17.12-10.48C17.12-9.94 17.65-9.43 18.18-9.43C18.41-9.43 18.69-9.54 18.91-9.77L20.60-11.46L21.76-12.82L21.61-11.59L21.61-9.82C21.61-9.19 22.08-8.87 22.56-8.86C23.02-8.87 23.48-9.19 23.48-9.79L23.48-14.67C23.48-15.39 23.07-15.81 22.34-15.81ZM4.89-1.46L9.73-1.46C10.32-1.46 10.65-1.92 10.65-2.39C10.64-2.86 10.32-3.33 9.69-3.33L7.97-3.34L6.71-3.19L8.06-4.35L9.77-6.04C10.00-6.26 10.10-6.53 10.11-6.80C10.11-7.34 9.59-7.84 9.05-7.84C8.81-7.84 8.53-7.73 8.32-7.50L6.62-5.81L5.46-4.45L5.61-5.68L5.63-7.45C5.63-8.09 5.14-8.40 4.68-8.41C4.21-8.40 3.74-8.09 3.74-7.49L3.74-2.60C3.74-1.89 4.15-1.46 4.89-1.46ZM8.41 4.49L18.81 4.49C20.94 4.49 22.28 3.14 22.28 1.08L22.28-7.45L19.97-7.45L19.97 0.71C19.97 1.58 19.44 2.11 18.52 2.11L8.71 2.11C7.79 2.11 7.27 1.57 7.27 0.71L7.27 0.02L4.95 0.02L4.95 1.08C4.95 3.14 6.29 4.49 8.41 4.49Z" fill="currentColor"/>
</svg>