<svg xmlns="http://www.w3.org/2000/svg" viewBox="0 0 24 24" width="24" height="24">
  <title>repeat.1.circle.fill</title>
  <path transform="matrix(0.8181527644614893, 0, 0, 0.8181527644614893, 0.28379674017257894, 18.922339405560884)" d="M14.32 3.76C21.07 3.76 26.54-1.72 26.54-8.46C26.54-15.21 21.07-20.68 14.32-20.68C7.58-20.68 2.10-15.21 2.10-8.46C2.10-1.72 7.58 3.76 14.32 3.76ZM12.89-13.77C12.89-14.17 13.14-14.43 13.56-14.43C13.73-14.43 13.92-14.37 14.05-14.25L16.65-12.08C16.99-11.80 16.99-11.38 16.65-11.10L14.05-8.92C13.91-8.81 13.73-8.75 13.56-8.75C13.14-8.75 12.89-9 12.89-9.40L12.89-10.79L9.94-10.79C8.84-10.79 8.12-10.10 8.12-9.06L8.12-8.45C8.12-7.99 7.76-7.63 7.31-7.63C6.86-7.63 6.50-8.00 6.50-8.45L6.50-9.18C6.50-11.16 7.91-12.41 10.08-12.41L12.89-12.41ZM20.10-9.60C19.58-9.60 19.24-9.94 19.24-10.45L19.24-12.63L18.77-12.27C18.64-12.16 18.50-12.12 18.36-12.12C18-12.12 17.74-12.39 17.74-12.71C17.74-12.93 17.82-13.10 18.01-13.25L18.91-13.95C19.30-14.24 19.57-14.34 19.96-14.34C20.54-14.34 20.94-13.95 20.94-13.35L20.94-10.45C20.94-9.94 20.61-9.60 20.10-9.60ZM13.04-2.39C13.04-1.99 12.80-1.73 12.38-1.73C12.19-1.73 12.01-1.80 11.88-1.92L9.29-4.08C8.95-4.36 8.94-4.79 9.28-5.06L11.88-7.24C12.01-7.35 12.20-7.41 12.38-7.41C12.79-7.41 13.04-7.16 13.04-6.76L13.04-5.38L17.46-5.38C18.56-5.38 19.29-6.08 19.29-7.11L19.29-7.73C19.29-8.18 19.64-8.53 20.10-8.53C20.55-8.53 20.92-8.18 20.92-7.73L20.92-7.01C20.92-5.04 19.51-3.76 17.33-3.76L13.04-3.76Z" fill="currentColor"/>
</svg>