<svg xmlns="http://www.w3.org/2000/svg" viewBox="0 0 24 24" width="24" height="24">
  
  <path transform="matrix(0.8181527644614893, 0, 0, 0.8181527644614893, 0.28379674017257894, 18.922339405560884)" d="M14.32 3.76C21.07 3.76 26.54-1.72 26.54-8.46C26.54-15.21 21.07-20.68 14.32-20.68C7.58-20.68 2.10-15.21 2.10-8.46C2.10-1.72 7.58 3.76 14.32 3.76ZM14.93-14.36C14.93-14.81 15.21-15.11 15.67-15.11C15.84-15.11 16.05-15.04 16.21-14.89L18.91-12.64C19.29-12.32 19.29-11.82 18.91-11.52L16.21-9.27C16.05-9.14 15.84-9.08 15.67-9.08C15.21-9.08 14.93-9.36 14.93-9.82L14.93-11.20L10.35-11.20C9.25-11.20 8.52-10.52 8.52-9.48L8.52-8.81C8.52-8.33 8.12-7.92 7.62-7.92C7.13-7.92 6.71-8.33 6.71-8.81L6.71-9.57C6.71-11.64 8.20-13.00 10.48-13.00L14.93-13.00ZM13.63-2.53C13.63-2.07 13.35-1.78 12.89-1.78C12.71-1.78 12.50-1.85 12.35-1.99L9.64-4.24C9.27-4.57 9.27-5.06 9.64-5.37L12.35-7.62C12.50-7.75 12.71-7.80 12.89-7.80C13.35-7.80 13.63-7.52 13.63-7.07L13.63-5.68L18.21-5.68C19.31-5.68 20.04-6.36 20.04-7.41L20.04-8.07C20.04-8.55 20.44-8.96 20.94-8.96C21.43-8.96 21.84-8.55 21.84-8.07L21.84-7.31C21.84-5.25 20.36-3.89 18.08-3.89L13.63-3.89Z" fill="currentColor"/>
</svg>