<svg xmlns="http://www.w3.org/2000/svg" viewBox="0 0 24 24" width="24" height="24">
  
  <path transform="matrix(0.7568366592756837, 0, 0, 0.7568366592756837, 0.4124168514412416, 18.407982261640797)" d="M15.30 4.75C22.58 4.75 28.52-1.20 28.52-8.46C28.52-15.73 22.58-21.68 15.30-21.68C8.04-21.68 2.10-15.73 2.10-8.46C2.10-1.20 8.04 4.75 15.30 4.75ZM15.30 0.22C10.51 0.22 6.63-3.67 6.63-8.46C6.63-13.27 10.51-17.14 15.30-17.14C20.11-17.14 23.99-13.27 23.99-8.46C23.99-3.67 20.11 0.22 15.30 0.22Z" fill="currentColor"/>
</svg>