<svg xmlns="http://www.w3.org/2000/svg" viewBox="0 0 24 24" width="24" height="24">
  
  <path transform="matrix(0.6721806485492976, 0, 0, 0.6721806485492976, -0.008664828672705571, 17.679401339109887)" d="M32.74-11.80C32.74-13.98 31.51-15.19 29.31-15.19L6.40-15.19C4.20-15.19 2.99-13.98 2.99-11.80L2.99-5.11C2.99-2.93 4.21-1.71 6.41-1.71L29.32-1.71C31.52-1.71 32.74-2.93 32.74-5.11ZM30.30-11.41L30.30-5.50C30.30-4.63 29.82-4.15 28.99-4.15L6.73-4.15C5.91-4.15 5.41-4.63 5.41-5.50L5.41-11.41C5.41-12.28 5.91-12.76 6.74-12.76L6.79-12.76L6.79-7.57C6.79-7.25 7.03-7.03 7.34-7.03C7.66-7.03 7.88-7.27 7.88-7.58L7.88-12.76L8.88-12.76L8.88-9.46C8.88-9.14 9.14-8.92 9.45-8.92C9.77-8.92 9.98-9.15 9.98-9.47L9.98-12.76L10.99-12.76L10.99-9.46C10.99-9.14 11.24-8.92 11.54-8.92C11.87-8.92 12.08-9.15 12.08-9.47L12.08-12.76L13.09-12.76L13.09-9.46C13.09-9.14 13.34-8.92 13.64-8.92C13.97-8.92 14.18-9.15 14.18-9.47L14.18-12.76L15.20-12.76L15.20-9.46C15.20-9.14 15.45-8.92 15.75-8.92C16.08-8.92 16.29-9.15 16.29-9.47L16.29-12.76L17.31-12.76L17.31-7.57C17.31-7.25 17.55-7.03 17.86-7.03C18.19-7.03 18.40-7.27 18.40-7.58L18.40-12.76L19.41-12.76L19.41-9.46C19.41-9.14 19.65-8.92 19.96-8.92C20.29-8.92 20.50-9.15 20.50-9.47L20.50-12.76L21.52-12.76L21.52-9.46C21.52-9.14 21.76-8.92 22.07-8.92C22.39-8.92 22.61-9.15 22.61-9.47L22.61-12.76L23.61-12.76L23.61-9.46C23.61-9.14 23.86-8.92 24.16-8.92C24.49-8.92 24.71-9.15 24.71-9.47L24.71-12.76L25.72-12.76L25.72-9.46C25.72-9.14 25.97-8.92 26.27-8.92C26.60-8.92 26.81-9.15 26.81-9.47L26.81-12.76L27.82-12.76L27.82-7.57C27.82-7.25 28.08-7.03 28.38-7.03C28.70-7.03 28.92-7.27 28.92-7.58L28.92-12.76L28.99-12.76C29.82-12.76 30.30-12.28 30.30-11.41Z" fill="currentColor"/>
</svg>