<svg xmlns="http://www.w3.org/2000/svg" viewBox="0 0 24 24" width="24" height="24">
  <title>rupeesign.gauge.chart.lefthalf.righthalf</title>
  <path transform="matrix(0.6920789402541228, 0, 0, 0.6920789402541228, 0.5482562854825628, 17.87038112962432)" d="M31.00-6.07C31.00-13.61 25.24-19.79 17.88-20.46C17.45-20.51 17.12-20.19 17.12-19.76L17.12-15.81C17.12-15.45 17.38-15.18 17.74-15.13C22.22-14.54 25.68-10.72 25.68-6.07C25.68-3.95 24.96-1.99 23.68-0.39C23.48-0.13 23.48 0.20 23.72 0.42L26.57 3.27C26.87 3.59 27.32 3.57 27.60 3.26C29.72 0.73 31.00-2.52 31.00-6.07ZM2.10-6.07C2.10-2.52 3.38 0.73 5.51 3.26C5.78 3.57 6.22 3.57 6.53 3.27L9.38 0.42C9.61 0.19 9.61-0.13 9.41-0.39C8.14-1.99 7.42-3.95 7.42-6.07C7.42-10.72 10.89-14.54 15.36-15.13C15.71-15.18 15.97-15.45 15.97-15.81L15.97-19.76C15.97-20.19 15.64-20.51 15.21-20.46C7.86-19.79 2.10-13.61 2.10-6.07ZM12.07-1.46C12.57-1.46 12.87-1.78 12.87-2.30L12.87-4.98L14.00-4.98L15.21-2.11C15.39-1.68 15.63-1.46 16.02-1.46C16.45-1.46 16.82-1.75 16.82-2.23C16.82-2.44 16.73-2.61 16.63-2.82L15.54-5.30C16.45-5.73 16.88-6.73 16.88-7.72C16.88-9.34 15.93-10.45 14.03-10.45L12.06-10.45C11.55-10.45 11.26-10.14 11.26-9.63L11.26-2.30C11.26-1.78 11.55-1.46 12.07-1.46ZM12.87-6.18L12.87-9.19L13.88-9.19C14.77-9.19 15.25-8.59 15.25-7.69C15.25-6.81 14.80-6.18 13.89-6.18ZM20.27-1.45C21.64-1.45 22.82-2.19 22.82-3.59C22.82-4.69 22.14-5.16 21.06-5.43L20.11-5.66C19.65-5.78 19.28-6.02 19.28-6.48C19.28-7.02 19.68-7.35 20.21-7.35C20.80-7.35 21.20-7.00 21.43-6.55C21.55-6.38 21.77-6.28 21.96-6.28C22.37-6.28 22.56-6.49 22.56-6.81C22.56-6.89 22.54-7.02 22.50-7.13C22.23-7.97 21.27-8.46 20.25-8.46C18.79-8.46 17.77-7.70 17.77-6.40C17.77-5.34 18.46-4.77 19.48-4.51L20.45-4.28C20.93-4.15 21.28-3.93 21.28-3.42C21.28-2.88 20.86-2.55 20.31-2.55C19.65-2.55 19.29-2.78 18.94-3.35C18.74-3.61 18.50-3.73 18.28-3.73C17.93-3.73 17.67-3.48 17.67-3.13C17.67-3.02 17.71-2.89 17.77-2.77C18.09-1.84 19.23-1.45 20.27-1.45Z" fill="currentColor"/>
</svg>