<svg xmlns="http://www.w3.org/2000/svg" viewBox="0 0 24 24" width="24" height="24">
  <title>s.square.fill</title>
  <path transform="matrix(0.9044338456103161, 0, 0, 0.9044338456103161, -0.6974032856385799, 19.64705882352941)" d="M6.96 2.60L21.12 2.60C23.72 2.60 25.09 1.23 25.09-1.34L25.09-15.57C25.09-18.14 23.72-19.51 21.12-19.51L6.96-19.51C4.37-19.51 2.99-18.14 2.99-15.57L2.99-1.34C2.99 1.23 4.37 2.60 6.96 2.60ZM13.93-2.75C11.75-2.75 10.24-3.69 9.75-4.78C9.62-5.02 9.56-5.25 9.56-5.48C9.56-6.12 10.01-6.53 10.66-6.53C11.12-6.53 11.43-6.34 11.73-5.95C12.27-5.13 13.01-4.75 14.09-4.75C15.22-4.75 16.07-5.23 16.07-6.08C16.07-6.79 15.63-7.08 14.23-7.42L12.68-7.80C10.69-8.26 9.62-9.21 9.62-10.84C9.62-12.89 11.41-14.31 14.06-14.31C16.05-14.31 17.58-13.44 18.09-12.25C18.22-12 18.27-11.75 18.27-11.54C18.27-10.91 17.85-10.56 17.23-10.56C16.72-10.56 16.43-10.76 16.11-11.17C15.64-11.99 15.01-12.36 14.00-12.36C12.94-12.36 12.26-11.85 12.26-11.04C12.26-10.41 12.69-10.05 13.88-9.79L15.39-9.43C17.52-8.95 18.68-7.99 18.68-6.32C18.68-4.14 16.80-2.75 13.93-2.75Z" fill="currentColor"/>
</svg>