<svg xmlns="http://www.w3.org/2000/svg" viewBox="0 0 24 24" width="24" height="24">
  <title>shareplay</title>
  <path transform="matrix(0.5606657906263688, 0, 0, 0.5606657906263688, 0.823915900131406, 16.92444152431012)" d="M3.35 1.35C4.05 1.35 4.61 0.80 4.61 0.09C4.61-9.09 11.48-16.56 19.93-16.56C28.38-16.56 35.27-9.09 35.27 0.09C35.27 0.80 35.82 1.35 36.50 1.35C37.21 1.35 37.77 0.80 37.77 0.09C37.77-10.46 29.77-19.08 19.93-19.08C10.10-19.08 2.10-10.46 2.10 0.09C2.10 0.80 2.66 1.35 3.35 1.35ZM19.96-6.71C21.96-6.71 23.66-8.50 23.66-10.78C23.66-13.00 21.95-14.74 19.96-14.74C17.94-14.74 16.24-12.97 16.24-10.76C16.25-8.50 17.93-6.71 19.96-6.71ZM8.80 1.34C9.49 1.34 10.08 0.79 10.08 0.09C10.08-3.63 11.91-7.01 14.82-8.94C14.52-9.87 14.47-10.83 14.70-11.78C10.38-9.63 7.55-5.00 7.55 0.09C7.55 0.79 8.11 1.34 8.80 1.34ZM31.07 1.34C31.77 1.34 32.33 0.79 32.33 0.09C32.33-4.99 29.52-9.61 25.22-11.77C25.43-10.83 25.37-9.86 25.08-8.93C27.98-7.00 29.80-3.63 29.80 0.09C29.80 0.79 30.38 1.34 31.07 1.34ZM14.11 1.51L25.77 1.51C26.86 1.51 27.55 0.98 27.55 0.09C27.55-2.25 24.59-5.40 19.95-5.40C15.30-5.40 12.35-2.25 12.35 0.09C12.35 0.98 13.02 1.51 14.11 1.51Z" fill="currentColor"/>
</svg>