<svg xmlns="http://www.w3.org/2000/svg" viewBox="0 0 24 24" width="24" height="24">
  
  <path transform="matrix(0.8181527644614893, 0, 0, 0.8181527644614893, 0.28379674017257894, 18.922339405560884)" d="M14.32 3.76C21.07 3.76 26.54-1.71 26.54-8.46C26.54-15.21 21.07-20.68 14.32-20.68C7.57-20.68 2.10-15.21 2.10-8.46C2.10-1.71 7.57 3.76 14.32 3.76ZM14.32 1.08C9.05 1.08 4.78-3.19 4.78-8.46C4.78-13.73 9.05-18 14.32-18C19.59-18 23.86-13.73 23.86-8.46C23.86-3.19 19.59 1.08 14.32 1.08ZM13.42-13.28C13.89-13.75 13.90-14.46 13.43-14.91C13.00-15.35 12.27-15.40 11.80-14.96C11.74-14.87 10.04-13.27 9.09-12.21C8.24-11.29 7.82-10.08 7.89-8.84C7.97-7.56 8.58-6.36 9.59-5.51C10.41-4.79 11.47-4.44 12.54-4.44C13.66-4.44 14.75-4.80 15.59-5.58C16.20-6.11 16.89-6.84 16.90-6.86C17.33-7.35 17.31-8.06 16.84-8.48C16.37-8.94 15.63-8.91 15.21-8.44C15.19-8.44 14.58-7.75 14.05-7.28C13.18-6.52 11.80-6.64 11.10-7.24C10.57-7.72 10.27-8.31 10.22-8.96C10.16-9.60 10.39-10.20 10.82-10.64C11.68-11.65 13.41-13.27 13.42-13.28ZM15.21-3.46C14.74-2.99 14.73-2.27 15.19-1.83C15.63-1.36 16.36-1.32 16.83-1.77C16.90-1.85 18.59-3.47 19.54-4.52C20.39-5.45 20.81-6.64 20.74-7.90C20.66-9.18 20.05-10.37 19.07-11.23C18.22-11.94 17.16-12.29 16.08-12.29C14.96-12.29 13.89-11.92 13.04-11.16C12.43-10.63 11.74-9.89 11.73-9.87C11.30-9.38 11.32-8.65 11.79-8.24C12.26-7.79 13.00-7.82 13.42-8.29C13.43-8.30 14.05-9 14.58-9.45C15.45-10.22 16.83-10.08 17.53-9.49C18.06-9.01 18.36-8.41 18.41-7.75C18.47-7.14 18.23-6.54 17.81-6.06C16.93-5.09 15.22-3.47 15.21-3.46Z" fill="currentColor"/>
</svg>