<svg xmlns="http://www.w3.org/2000/svg" viewBox="0 0 24 24" width="24" height="24">
  
  <path transform="matrix(0.9044338456103161, 0, 0, 0.9044338456103161, -0.6974032856385799, 19.64705882352941)" d="M6.96 2.60L21.12 2.60C23.72 2.60 25.09 1.23 25.09-1.34L25.09-15.57C25.09-18.14 23.72-19.51 21.12-19.51L6.96-19.51C4.37-19.51 2.99-18.14 2.99-15.57L2.99-1.34C2.99 1.23 4.37 2.60 6.96 2.60ZM7.18-0.01C6.15-0.01 5.60-0.53 5.60-1.61L5.60-15.29C5.60-16.37 6.15-16.90 7.18-16.90L20.91-16.90C21.91-16.90 22.49-16.37 22.49-15.29L22.49-1.61C22.49-0.53 21.91-0.01 20.91-0.01ZM12.95-3.39L16.29-3.39C18.33-3.39 19.13-4.45 19.13-6.49L19.13-12.82C19.13-13.31 18.84-13.62 18.39-13.62C17.93-13.62 17.64-13.31 17.64-12.82L17.64-6.71C17.64-5.30 17.36-4.92 15.94-4.92L13.32-4.92L13.32-9.79C13.32-10.25 13.08-10.56 12.62-10.56C12.15-10.56 11.88-10.25 11.88-9.79L11.88-4.41C11.88-3.71 12.33-3.39 12.95-3.39ZM9.71-3.30C10.18-3.30 10.44-3.60 10.44-4.09L10.44-12L12.91-12C14.20-12 14.77-11.67 14.77-10.25L14.77-7.11C14.77-6.64 15.05-6.35 15.49-6.35C15.93-6.35 16.21-6.64 16.21-7.11L16.21-10.58C16.21-12.63 15.32-13.52 13.31-13.52L10.18-13.52C9.40-13.52 8.98-13.14 8.98-12.35L8.98-4.09C8.98-3.59 9.25-3.30 9.71-3.30Z" fill="currentColor"/>
</svg>