<svg xmlns="http://www.w3.org/2000/svg" viewBox="0 0 24 24" width="24" height="24">
  
  <path transform="matrix(0.7732970850324724, 0, 0, 0.7732970850324724, 0.4005437245129144, 18.51563207974626)" d="M4.71-0.90L14.03 4.24C14.66 4.59 15.34 4.59 15.98 4.24L25.29-0.90C26.46-1.55 27.01-2.24 27.01-3.88L27.01-13.50C27.01-14.77 26.54-15.59 25.44-16.18L17.25-20.74C15.79-21.56 14.21-21.56 12.75-20.74L4.56-16.18C3.47-15.59 2.99-14.77 2.99-13.50L2.99-3.88C2.99-2.24 3.55-1.55 4.71-0.90ZM20.48-12.93L12.09-17.59L13.79-18.54C14.61-19.01 15.39-19.02 16.21-18.54L23.38-14.54ZM15-9.89L6.62-14.54L9.63-16.24L18.02-11.58ZM6.14-2.89C5.52-3.23 5.31-3.60 5.31-4.20L5.31-12.50L13.79-7.76L13.79 1.39ZM23.87-2.89L16.21 1.39L16.21-7.76L24.70-12.50L24.70-4.20C24.70-3.60 24.48-3.23 23.87-2.89Z" fill="currentColor"/>
</svg>