<svg xmlns="http://www.w3.org/2000/svg" viewBox="0 0 24 24" width="24" height="24">
  
  <path transform="matrix(0.7912223767578427, 0, 0, 0.7912223767578427, 1.0866944830783503, 18.699119146963376)" d="M8.03 2.95C8.03 3.61 8.58 4.17 9.25 4.17L18.35 4.17C19.02 4.17 19.57 3.62 19.57 2.95C19.57 2.29 19.03 1.73 18.35 1.73L15.01 1.73L15.01-5.34L21.84-5.34C23.59-5.34 24.60-6.34 24.60-8.06L24.60-15.43C24.60-17.16 23.59-18.14 21.84-18.14L15.01-18.14L15.01-19.89C15.01-20.55 14.46-21.11 13.79-21.11C13.13-21.11 12.57-20.57 12.57-19.89L12.57-18.14L5.74-18.14C4.00-18.14 2.99-17.16 2.99-15.43L2.99-8.06C2.99-6.34 4.00-5.34 5.74-5.34L12.57-5.34L12.57 1.73L9.25 1.73C8.58 1.73 8.03 2.29 8.03 2.95ZM6.05-15.63L21.54-15.63C21.84-15.63 22.04-15.43 22.04-15.12L22.04-8.37C22.04-8.06 21.84-7.85 21.54-7.85L6.05-7.85C5.74-7.85 5.54-8.06 5.54-8.37L5.54-15.12C5.54-15.43 5.74-15.63 6.05-15.63ZM11.07-9.25L16.52-9.25C17.34-9.25 17.58-9.88 17.10-10.55L14.51-14.19C14.11-14.74 13.49-14.73 13.10-14.19L10.51-10.56C10.02-9.87 10.23-9.25 11.07-9.25Z" fill="currentColor"/>
</svg>