<svg xmlns="http://www.w3.org/2000/svg" viewBox="0 0 24 24" width="24" height="24">
  <title>singaporedollarsign.circle.fill</title>
  <path transform="matrix(0.8181527644614893, 0, 0, 0.8181527644614893, 0.28379674017257894, 18.922339405560884)" d="M14.32 3.76C21.07 3.76 26.54-1.72 26.54-8.46C26.54-15.21 21.07-20.68 14.32-20.68C7.58-20.68 2.10-15.21 2.10-8.46C2.10-1.72 7.58 3.76 14.32 3.76ZM17.73-2.87C17.55-2.87 17.43-3 17.43-3.16L17.43-4.07C16.24-4.15 15.22-4.70 14.89-5.93C14.86-6.06 14.84-6.21 14.84-6.32C14.84-6.75 15.15-7.03 15.59-7.03C15.98-7.03 16.22-6.80 16.31-6.48C16.45-5.82 16.78-5.43 17.43-5.34L17.43-7.89L16.91-8.10C15.67-8.65 14.89-9.28 14.89-10.62C14.89-12.11 16.04-12.93 17.43-13.02L17.43-13.91C17.43-14.07 17.55-14.20 17.73-14.20C17.88-14.20 18.02-14.07 18.02-13.91L18.02-13.02C19.15-12.93 20.11-12.39 20.41-11.20C20.45-11.06 20.47-10.95 20.47-10.79C20.47-10.42 20.21-10.11 19.73-10.11C19.32-10.11 19.11-10.32 19.00-10.65C18.87-11.21 18.59-11.64 18.02-11.74L18.02-9.27L18.59-9.02C19.78-8.51 20.67-7.92 20.67-6.54C20.67-5.05 19.55-4.17 18.02-4.07L18.02-3.16C18.02-3 17.88-2.87 17.73-2.87ZM10.97-3.70C9.62-3.70 8.58-4.30 8.16-5.44C8.09-5.60 8.03-5.82 8.03-6C8.03-6.43 8.33-6.75 8.77-6.75C9.16-6.75 9.42-6.59 9.55-6.20C9.75-5.47 10.24-5.07 10.99-5.07C11.82-5.07 12.30-5.60 12.30-6.32C12.30-7.13 11.75-7.50 10.92-7.80L10.24-8.04C8.89-8.53 8.10-9.32 8.10-10.71C8.10-12.28 9.18-13.39 10.93-13.39C12.25-13.39 13.32-12.73 13.68-11.51C13.71-11.38 13.75-11.23 13.75-11.07C13.75-10.69 13.50-10.37 13.03-10.37C12.64-10.37 12.39-10.52 12.26-10.91C12.06-11.61 11.63-12.02 10.92-12.02C10.18-12.02 9.76-11.51 9.76-10.84C9.76-10.02 10.31-9.68 11.07-9.39L11.82-9.13C13.08-8.65 13.97-8.03 13.97-6.48C13.97-4.83 12.93-3.70 10.97-3.70ZM16.45-10.73C16.45-10.16 16.88-9.82 17.43-9.54L17.43-11.74C16.86-11.67 16.45-11.33 16.45-10.73ZM18.02-5.34C18.68-5.43 19.09-5.77 19.09-6.38C19.09-7.03 18.63-7.32 18.02-7.61Z" fill="currentColor"/>
</svg>