<svg xmlns="http://www.w3.org/2000/svg" viewBox="0 0 24 24" width="24" height="24">
  <title>singaporedollarsign.arrow.trianglehead.counterclockwise.rotate.90</title>
  <path transform="matrix(0.7513133281958077, 0, 0, 0.7513133281958077, 2.057913808240182, 18.356815112781717)" d="M0.81-10.89C-0.08-10.89-0.32-10.17 0.18-9.52L2.98-5.68C3.35-5.17 3.95-5.18 4.31-5.68L7.11-9.52C7.59-10.17 7.36-10.89 6.48-10.89L5.10-10.89C6.16-14.99 9.89-18 14.32-18C19.59-18 23.86-13.73 23.86-8.46C23.86-3.19 19.59 1.08 14.32 1.08C11.31 1.08 8.70-0.30 6.95-2.48C6.39-3.08 5.61-3.28 4.98-2.79C4.39-2.33 4.29-1.45 4.90-0.77C7.16 2.04 10.58 3.76 14.32 3.76C21.06 3.76 26.54-1.71 26.54-8.46C26.54-15.21 21.06-20.68 14.32-20.68C8.40-20.68 3.48-16.49 2.34-10.89ZM17.47-3.26C17.63-3.26 17.75-3.39 17.75-3.54L17.75-4.37C19.18-4.48 20.20-5.29 20.20-6.67C20.20-7.96 19.39-8.50 18.28-8.98L17.75-9.21L17.75-11.52C18.28-11.41 18.54-11.03 18.67-10.50C18.76-10.20 18.97-10.01 19.35-10.01C19.79-10.01 20.03-10.28 20.03-10.63C20.03-10.78 20.00-10.89 19.97-11.00C19.69-12.12 18.80-12.62 17.75-12.70L17.75-13.54C17.75-13.69 17.63-13.82 17.47-13.82C17.32-13.82 17.20-13.69 17.20-13.54L17.20-12.70C15.90-12.61 14.85-11.86 14.85-10.46C14.85-9.23 15.57-8.65 16.72-8.13L17.20-7.93L17.20-5.55C16.58-5.64 16.29-6.01 16.16-6.62C16.07-6.91 15.86-7.13 15.49-7.13C15.09-7.13 14.80-6.88 14.80-6.47C14.80-6.36 14.82-6.23 14.86-6.11C15.15-4.96 16.10-4.44 17.20-4.37L17.20-3.54C17.20-3.39 17.32-3.26 17.47-3.26ZM11.20-4.03C13.02-4.03 13.99-5.09 13.99-6.62C13.99-8.06 13.17-8.64 11.99-9.07L11.31-9.33C10.59-9.59 10.07-9.91 10.07-10.68C10.07-11.30 10.46-11.78 11.17-11.78C11.82-11.78 12.23-11.40 12.41-10.75C12.53-10.39 12.76-10.25 13.13-10.25C13.55-10.25 13.78-10.54 13.78-10.90C13.78-11.04 13.76-11.18 13.72-11.29C13.38-12.43 12.39-13.04 11.17-13.04C9.54-13.04 8.54-12.01 8.54-10.56C8.54-9.26 9.28-8.53 10.54-8.09L11.17-7.85C11.94-7.58 12.46-7.23 12.46-6.47C12.46-5.80 12-5.31 11.23-5.31C10.52-5.31 10.07-5.67 9.88-6.35C9.75-6.71 9.53-6.87 9.16-6.87C8.75-6.87 8.48-6.57 8.48-6.18C8.48-6.01 8.53-5.81 8.59-5.66C8.99-4.59 9.96-4.03 11.20-4.03ZM16.29-10.58C16.29-11.14 16.68-11.45 17.20-11.53L17.20-9.46C16.68-9.73 16.29-10.04 16.29-10.58ZM18.75-6.52C18.75-5.95 18.36-5.63 17.75-5.55L17.75-7.68C18.32-7.42 18.75-7.14 18.75-6.52Z" fill="currentColor"/>
</svg>