<svg xmlns="http://www.w3.org/2000/svg" viewBox="0 0 24 24" width="24" height="24">
  <title>slider.horizontal.below.rectangle</title>
  <path transform="matrix(0.7839534527637422, 0, 0, 0.7839534527637422, 0.43362425355994505, 17.920992191088654)" d="M6.81-4.80L22.70-4.80C25.16-4.80 26.52-6.12 26.52-8.59L26.52-16.52C26.52-19.00 25.16-20.31 22.70-20.31L6.81-20.31C4.42-20.31 2.99-19.00 2.99-16.52L2.99-8.59C2.99-6.12 4.34-4.80 6.81-4.80ZM6.90-7.20C6.05-7.20 5.60-7.65 5.60-8.51L5.60-16.61C5.60-17.46 6.05-17.92 6.90-17.92L22.59-17.92C23.45-17.92 23.91-17.46 23.91-16.61L23.91-8.51C23.91-7.65 23.45-7.20 22.59-7.20ZM19.14 5.20C20.46 5.20 21.61 4.38 22.10 3.23L25.34 3.23C25.98 3.23 26.52 2.66 26.52 1.99C26.52 1.31 25.98 0.75 25.34 0.75L22.10 0.75C21.62-0.42 20.47-1.27 19.14-1.27C17.81-1.27 16.66-0.42 16.17 0.75L4.21 0.75C3.53 0.75 2.99 1.31 2.99 1.99C2.99 2.66 3.53 3.23 4.21 3.23L16.17 3.23C16.66 4.38 17.81 5.20 19.14 5.20ZM19.14 3.48C18.32 3.48 17.65 2.81 17.65 1.99C17.65 1.15 18.32 0.50 19.14 0.50C19.98 0.50 20.63 1.15 20.63 1.99C20.63 2.81 19.98 3.48 19.14 3.48Z" fill="currentColor"/>
</svg>