<svg xmlns="http://www.w3.org/2000/svg" viewBox="0 0 24 24" width="24" height="24">
  
  <path transform="matrix(0.8181527644614893, 0, 0, 0.8181527644614893, 0.28379674017257894, 18.922339405560884)" d="M14.32 3.76C21.07 3.76 26.54-1.71 26.54-8.46C26.54-15.21 21.07-20.68 14.32-20.68C7.57-20.68 2.10-15.21 2.10-8.46C2.10-1.71 7.57 3.76 14.32 3.76ZM15.09-12.56L15.09-15.73L17.85-17.95C19.56-17.32 21.06-16.23 22.18-14.84L21.14-11.41L18.14-10.21ZM7.50-11.41L6.46-14.84C7.58-16.23 9.07-17.31 10.77-17.95L13.55-15.70L13.55-12.56L10.50-10.21ZM4.20-8.46L6.93-10.00L10.08-8.72L11.20-5.21L9.52-3.05L5.80-2.99C4.78-4.57 4.20-6.45 4.20-8.46ZM19.11-3L17.43-5.17L18.56-8.72L21.71-10.00L24.45-8.46C24.45-6.42 23.85-4.54 22.82-2.94ZM14.32 1.66C13.34 1.66 12.39 1.52 11.48 1.27L10.71-2.09L12.25-4.04L16.35-4.04L17.92-2.04L17.16 1.27C16.25 1.52 15.30 1.66 14.32 1.66Z" fill="currentColor"/>
</svg>