<svg xmlns="http://www.w3.org/2000/svg" viewBox="0 0 24 24" width="24" height="24">
  
  <path transform="matrix(0.7375396139441083, 0, 0, 0.7375396139441083, 0.854796888504755, 18.24027657735523)" d="M27.23-3.21L27.23-13.71C27.23-14.82 26.67-15.80 25.72-16.34L16.63-21.60C15.67-22.16 14.55-22.16 13.59-21.60L8.44-18.61L18.42-8.64C19.16-9.28 19.75-9.50 20.39-9.50C21.02-9.50 21.66-9.26 22.18-8.78L24.67-6.45L24.67-3.69C24.67-3.41 24.59-3.13 24.20-2.85L26.13-0.93C26.91-1.55 27.23-2.34 27.23-3.21ZM25.39 3.18C25.77 3.55 26.38 3.55 26.74 3.18C27.12 2.80 27.12 2.19 26.74 1.82L4.84-20.09C4.46-20.45 3.86-20.46 3.48-20.09C3.12-19.72 3.12-19.09 3.48-18.73ZM2.99-3.21C2.99-2.11 3.55-1.14 4.50-0.59L13.59 4.68C14.55 5.24 15.67 5.24 16.63 4.68L21.79 1.69L19.91-0.20L15.75 2.20C15.35 2.44 14.87 2.44 14.47 2.20L6.20-2.58C5.81-2.81 5.58-3.19 5.57-3.95L7.83-5.96C8.32-6.42 8.81-6.63 9.36-6.63C9.93-6.63 10.49-6.40 10.99-5.95L13.20-3.96L14.75-5.36L11.70-8.40C9.94-8.09 8.17-9.63 8.51-11.59L4.09-16.01C3.34-15.38 2.99-14.59 2.99-13.71Z" fill="currentColor"/>
</svg>