<svg xmlns="http://www.w3.org/2000/svg" viewBox="0 0 24 24" width="24" height="24">
  
  <path transform="matrix(0.8181527644614893, 0, 0, 0.8181527644614893, 0.28379674017257894, 18.922339405560884)" d="M14.32 3.76C21.07 3.76 26.54-1.71 26.54-8.46C26.54-15.21 21.07-20.68 14.32-20.68C7.57-20.68 2.10-15.21 2.10-8.46C2.10-1.71 7.57 3.76 14.32 3.76ZM14.32 1.08C9.05 1.08 4.78-3.19 4.78-8.46C4.78-13.73 9.05-18 14.32-18C19.59-18 23.86-13.73 23.86-8.46C23.86-3.19 19.59 1.08 14.32 1.08ZM19.44-2.46C19.68-2.21 20.09-2.21 20.32-2.46C20.57-2.71 20.57-3.09 20.32-3.34L9.20-14.47C8.94-14.72 8.54-14.72 8.30-14.47C8.06-14.23 8.06-13.83 8.30-13.58ZM13.61-11.41L17.02-7.99L17.02-12.74C17.02-13.17 16.68-13.51 16.24-13.51C15.94-13.51 15.74-13.38 15.41-13.10ZM11.37-6.07L12.91-6.07C12.97-6.07 13.01-6.05 13.04-6.02L15.41-3.80C15.70-3.53 15.95-3.41 16.25-3.41C16.41-3.41 16.54-3.48 16.63-3.56L16.72-3.84L10.36-10.22L10.30-10.22C10.15-10.05 10.05-9.80 10.05-9.48L10.05-7.43C10.05-6.54 10.52-6.07 11.37-6.07Z" fill="currentColor"/>
</svg>