<svg xmlns="http://www.w3.org/2000/svg" viewBox="0 0 24 24" width="24" height="24">
  
  <path transform="matrix(0.8181527644614893, 0, 0, 0.8181527644614893, 0.28379674017257894, 18.922339405560884)" d="M14.32 3.76C21.07 3.76 26.54-1.71 26.54-8.46C26.54-15.21 21.07-20.68 14.32-20.68C7.57-20.68 2.10-15.21 2.10-8.46C2.10-1.71 7.57 3.76 14.32 3.76ZM14.32 1.08C9.05 1.08 4.78-3.19 4.78-8.46C4.78-13.73 9.05-18 14.32-18C19.59-18 23.86-13.73 23.86-8.46C23.86-3.19 19.59 1.08 14.32 1.08ZM13.76-3.41C14.18-3.41 14.52-3.74 14.52-4.17L14.52-12.74C14.52-13.17 14.18-13.51 13.75-13.51C13.44-13.51 13.24-13.38 12.91-13.10L10.55-10.90C10.51-10.86 10.48-10.85 10.42-10.85L8.87-10.85C8.03-10.85 7.56-10.38 7.56-9.48L7.56-7.43C7.56-6.54 8.03-6.07 8.87-6.07L10.42-6.07C10.48-6.07 10.51-6.05 10.55-6.02L12.91-3.80C13.21-3.53 13.45-3.41 13.76-3.41ZM18.62-4.35C18.95-4.15 19.34-4.22 19.55-4.54C20.30-5.65 20.73-7.01 20.73-8.46C20.73-9.90 20.31-11.27 19.55-12.39C19.34-12.71 18.94-12.80 18.62-12.59C18.28-12.36 18.23-11.95 18.48-11.59C19.07-10.73 19.38-9.63 19.38-8.46C19.38-7.31 19.05-6.18 18.47-5.34C18.23-4.98 18.27-4.56 18.62-4.35ZM16.41-5.86C16.71-5.65 17.11-5.73 17.32-6.02C17.79-6.66 18.07-7.54 18.07-8.47C18.07-9.39 17.79-10.27 17.32-10.91C17.12-11.19 16.71-11.27 16.41-11.07C16.08-10.85 16.01-10.44 16.27-10.04C16.55-9.66 16.71-9.07 16.71-8.47C16.71-7.89 16.54-7.30 16.27-6.89C16.01-6.48 16.08-6.09 16.41-5.86Z" fill="currentColor"/>
</svg>