<svg xmlns="http://www.w3.org/2000/svg" viewBox="0 0 24 24" width="24" height="24">
  
  <path transform="matrix(0.9049133969600566, 0, 0, 0.9049133969600566, -0.704135737009544, 19.645811240721102)" d="M2.99-1.36C2.99 1.23 4.36 2.60 6.93 2.60L21.15 2.60C23.72 2.60 25.09 1.23 25.09-1.36L25.09-15.53C25.09-18.12 23.73-19.50 21.15-19.50L6.93-19.50C4.35-19.50 2.99-18.12 2.99-15.53ZM5.60-1.58L5.60-8.45L22.49-8.45L22.49-1.58C22.49-0.56 21.96 0 20.88 0L7.20 0C6.12 0 5.60-0.56 5.60-1.58Z" fill="currentColor"/>
</svg>