<svg xmlns="http://www.w3.org/2000/svg" viewBox="0 0 24 24" width="24" height="24">
  <title>square.grid.3x3.fill</title>
  <path transform="matrix(0.8169778203287059, 0, 0, 0.8169778203287059, -0.44135950215414077, 18.921972235519387)" d="M5.18-13.37L7.90-13.37C9.27-13.37 10.09-14.20 10.09-15.61L10.09-18.22C10.09-19.64 9.27-20.47 7.90-20.47L5.18-20.47C3.81-20.47 2.99-19.64 2.99-18.22L2.99-15.61C2.99-14.20 3.81-13.37 5.18-13.37ZM13.86-13.37L16.58-13.37C17.95-13.37 18.77-14.20 18.77-15.61L18.77-18.22C18.77-19.64 17.95-20.47 16.58-20.47L13.86-20.47C12.49-20.47 11.67-19.64 11.67-18.22L11.67-15.61C11.67-14.20 12.49-13.37 13.86-13.37ZM22.57-13.37L25.28-13.37C26.65-13.37 27.47-14.20 27.47-15.61L27.47-18.22C27.47-19.64 26.65-20.47 25.28-20.47L22.57-20.47C21.20-20.47 20.37-19.64 20.37-18.22L20.37-15.61C20.37-14.20 21.20-13.37 22.57-13.37ZM5.18-4.92L7.90-4.92C9.27-4.92 10.09-5.75 10.09-7.16L10.09-9.79C10.09-11.19 9.27-12.02 7.90-12.02L5.18-12.02C3.81-12.02 2.99-11.19 2.99-9.79L2.99-7.16C2.99-5.75 3.81-4.92 5.18-4.92ZM13.86-4.92L16.58-4.92C17.95-4.92 18.77-5.75 18.77-7.16L18.77-9.79C18.77-11.19 17.95-12.02 16.58-12.02L13.86-12.02C12.49-12.02 11.67-11.19 11.67-9.79L11.67-7.16C11.67-5.75 12.49-4.92 13.86-4.92ZM22.57-4.92L25.28-4.92C26.65-4.92 27.47-5.75 27.47-7.16L27.47-9.79C27.47-11.19 26.65-12.02 25.28-12.02L22.57-12.02C21.20-12.02 20.37-11.19 20.37-9.79L20.37-7.16C20.37-5.75 21.20-4.92 22.57-4.92ZM5.18 3.53L7.90 3.53C9.27 3.53 10.09 2.70 10.09 1.28L10.09-1.34C10.09-2.74 9.27-3.57 7.90-3.57L5.18-3.57C3.81-3.57 2.99-2.74 2.99-1.34L2.99 1.28C2.99 2.70 3.81 3.53 5.18 3.53ZM13.86 3.53L16.58 3.53C17.95 3.53 18.77 2.70 18.77 1.28L18.77-1.34C18.77-2.74 17.95-3.57 16.58-3.57L13.86-3.57C12.49-3.57 11.67-2.74 11.67-1.34L11.67 1.28C11.67 2.70 12.49 3.53 13.86 3.53ZM22.57 3.53L25.28 3.53C26.65 3.53 27.47 2.70 27.47 1.28L27.47-1.34C27.47-2.74 26.65-3.57 25.28-3.57L22.57-3.57C21.20-3.57 20.37-2.74 20.37-1.34L20.37 1.28C20.37 2.70 21.20 3.53 22.57 3.53Z" fill="currentColor"/>
</svg>