<svg xmlns="http://www.w3.org/2000/svg" viewBox="0 0 24 24" width="24" height="24">
  <title>square.and.arrow.down</title>
  <path transform="matrix(0.7821570424686831, 0, 0, 0.7821570424686831, 1.2667277726856097, 18.425297891842344)" d="M9.67-9.25C9.09-9.25 8.61-8.82 8.61-8.23C8.61-7.92 8.73-7.70 8.94-7.48L12.80-3.79C13.10-3.47 13.41-3.36 13.72-3.36C14.04-3.36 14.34-3.47 14.65-3.79L18.50-7.48C18.71-7.70 18.83-7.92 18.83-8.23C18.83-8.82 18.34-9.25 17.78-9.25C17.47-9.25 17.18-9.13 16.98-8.91L15.41-7.23L14.81-6.45L14.93-8.17L14.93-19.82C14.93-20.45 14.39-21 13.72-21C13.05-21 12.53-20.45 12.53-19.82L12.53-8.17L12.63-6.45L12.04-7.23L10.46-8.91C10.25-9.13 9.96-9.25 9.67-9.25ZM8.11 4.57L19.34 4.57C22.62 4.57 24.46 2.74 24.46-0.55L24.46-9.59C24.46-12.88 22.62-14.71 19.34-14.71L17.13-14.71L17.13-12.09L19.23-12.09C20.91-12.09 21.84-11.16 21.84-9.48L21.84-0.66C21.84 1.02 20.91 1.96 19.23 1.96L8.21 1.96C6.54 1.96 5.60 1.02 5.60-0.66L5.60-9.48C5.60-11.16 6.54-12.09 8.21-12.09L10.30-12.09L10.30-14.71L8.11-14.71C4.83-14.71 2.99-12.88 2.99-9.59L2.99-0.55C2.99 2.74 4.83 4.57 8.11 4.57Z" fill="currentColor"/>
</svg>