<svg xmlns="http://www.w3.org/2000/svg" viewBox="0 0 24 24" width="24" height="24">
  
  <path transform="matrix(0.883367839889579, 0, 0, 0.883367839889579, -0.5931677018633539, 19.45341614906832)" d="M7.51-17.40C8.16-17.40 8.68-17.93 8.68-18.57C8.68-19.22 8.16-19.76 7.51-19.76C6.87-19.76 6.33-19.22 6.33-18.57C6.33-17.93 6.87-17.40 7.51-17.40ZM10.88-17.40C11.52-17.40 12.05-17.93 12.05-18.57C12.05-19.22 11.52-19.76 10.88-19.76C10.23-19.76 9.70-19.22 9.70-18.57C9.70-17.93 10.23-17.40 10.88-17.40ZM14.24-17.40C14.88-17.40 15.41-17.93 15.41-18.57C15.41-19.22 14.88-19.76 14.24-19.76C13.59-19.76 13.07-19.22 13.07-18.57C13.07-17.93 13.59-17.40 14.24-17.40ZM17.61-17.40C18.26-17.40 18.79-17.93 18.79-18.57C18.79-19.22 18.26-19.76 17.61-19.76C16.97-19.76 16.43-19.22 16.43-18.57C16.43-17.93 16.97-17.40 17.61-17.40ZM20.98-17.40C21.62-17.40 22.15-17.93 22.15-18.57C22.15-19.22 21.62-19.76 20.98-19.76C20.33-19.76 19.80-19.22 19.80-18.57C19.80-17.93 20.33-17.40 20.98-17.40ZM24.34-17.40C24.98-17.40 25.52-17.93 25.52-18.57C25.52-19.22 24.98-19.76 24.34-19.76C23.70-19.76 23.17-19.22 23.17-18.57C23.17-17.93 23.70-17.40 24.34-17.40ZM4.04 2.88L23.43 2.88C24.15 2.88 24.74 2.30 24.74 1.58C24.74 0.86 24.15 0.28 23.43 0.28L5.92 0.28C5.68 0.28 5.59 0.18 5.59-0.05L5.59-17.67C5.59-18.39 5.02-18.97 4.29-18.97C3.56-18.97 2.99-18.39 2.99-17.67L2.99 1.83C2.99 2.46 3.41 2.88 4.04 2.88ZM24.34-14.04C24.98-14.04 25.52-14.57 25.52-15.21C25.52-15.86 24.98-16.38 24.34-16.38C23.70-16.38 23.17-15.86 23.17-15.21C23.17-14.57 23.70-14.04 24.34-14.04ZM13.01-4.16L12.05-5.13L17.85-10.93L18.83-9.95C19.25-9.54 19.89-9.75 20.02-10.35L20.82-14.06C20.93-14.61 20.46-15.07 19.91-14.94L16.20-14.17C15.59-14.05 15.36-13.43 15.79-13.01L16.71-12.08L10.90-6.27L9.96-7.22C9.54-7.63 8.89-7.42 8.78-6.82L7.97-3.11C7.85-2.55 8.32-2.10 8.87-2.23L12.59-3C13.21-3.12 13.43-3.74 13.01-4.16ZM24.34-10.66C24.98-10.66 25.52-11.20 25.52-11.85C25.52-12.49 24.98-13.02 24.34-13.02C23.70-13.02 23.17-12.49 23.17-11.85C23.17-11.20 23.70-10.66 24.34-10.66ZM24.34-7.30C24.98-7.30 25.52-7.83 25.52-8.47C25.52-9.12 24.98-9.64 24.34-9.64C23.70-9.64 23.17-9.12 23.17-8.47C23.17-7.83 23.70-7.30 24.34-7.30ZM24.34-3.94C24.98-3.94 25.52-4.46 25.52-5.11C25.52-5.75 24.98-6.28 24.34-6.28C23.70-6.28 23.17-5.75 23.17-5.11C23.17-4.46 23.70-3.94 24.34-3.94ZM24.34-0.56C24.98-0.56 25.52-1.10 25.52-1.75C25.52-2.39 24.98-2.92 24.34-2.92C23.70-2.92 23.17-2.39 23.17-1.75C23.17-1.10 23.70-0.56 24.34-0.56Z" fill="currentColor"/>
</svg>