<svg xmlns="http://www.w3.org/2000/svg" viewBox="0 0 24 24" width="24" height="24">
  
  <path transform="matrix(0.6509026188660056, 0, 0, 0.6509026188660056, 0.054919908466819045, 17.511060259344013)" d="M3.90-13.90L7.01-13.90C7.62-13.90 7.93-14.23 7.93-14.81L7.93-17.91C7.93-18.52 7.62-18.86 7.01-18.86L3.90-18.86C3.32-18.86 2.99-18.50 2.99-17.91L2.99-14.81C2.99-14.25 3.32-13.90 3.90-13.90ZM15.38 1.54L29.84 1.54C32.38 1.54 33.71 0.20 33.71-2.31L33.71-14.61C33.71-17.12 32.38-18.47 29.84-18.47L15.38-18.47C12.84-18.47 11.50-17.13 11.50-14.61L11.50-2.31C11.50 0.20 12.84 1.54 15.38 1.54ZM3.90-5.99L7.01-5.99C7.62-5.99 7.93-6.32 7.93-6.90L7.93-10.00C7.93-10.62 7.62-10.95 7.01-10.95L3.90-10.95C3.32-10.95 2.99-10.59 2.99-10.00L2.99-6.90C2.99-6.34 3.32-5.99 3.90-5.99ZM3.90 1.92L7.02 1.92C7.62 1.92 7.95 1.59 7.95 1.01L7.95-2.09C7.95-2.71 7.62-3.04 7.02-3.04L3.90-3.04C3.32-3.04 2.99-2.68 2.99-2.09L2.99 1.01C2.99 1.57 3.32 1.92 3.90 1.92Z" fill="currentColor"/>
</svg>