<svg xmlns="http://www.w3.org/2000/svg" viewBox="0 0 24 24" width="24" height="24">
  
  <path transform="matrix(0.7259322274209556, 0, 0, 0.7259322274209556, 0.477243726074011, 18.486601446193113)" d="M13.91-17.07L21.23-17.07C19.50-20.19 16.16-22.30 12.33-22.30C6.68-22.30 2.10-17.72 2.10-12.07C2.10-7.91 4.58-4.32 8.16-2.73L8.16-11.34C8.16-14.92 10.32-17.07 13.91-17.07ZM9.94 0.49C9.94 3.06 11.32 4.43 13.91 4.43L25.69 4.43C28.28 4.43 29.65 3.06 29.65 0.49L29.65-11.34C29.65-13.92 28.28-15.28 25.69-15.28L13.91-15.28C11.32-15.28 9.94-13.92 9.94-11.34Z" fill="currentColor"/>
</svg>