<svg xmlns="http://www.w3.org/2000/svg" viewBox="0 0 24 24" width="24" height="24">
  <title>star.bubble</title>
  <path transform="matrix(0.7524985302763081, 0, 0, 0.7524985302763081, -0.24867724867724883, 17.84656084656085)" d="M10.79 4.73C11.51 4.73 12.06 4.41 12.94 3.63L16.93 0.12L23.95 0.12C27.50 0.12 29.57-1.98 29.57-5.48L29.57-14.66C29.57-18.18 27.50-20.27 23.95-20.27L8.59-20.27C5.05-20.27 2.99-18.18 2.99-14.66L2.99-5.48C2.99-1.97 5.13 0.12 8.46 0.12L9.14 0.12L9.14 2.89C9.14 4.03 9.76 4.73 10.79 4.73ZM11.43 1.83L11.43-1.48C11.43-2.21 11.10-2.50 10.42-2.50L8.71-2.50C6.61-2.50 5.60-3.55 5.60-5.60L5.60-14.54C5.60-16.61 6.61-17.66 8.71-17.66L23.84-17.66C25.93-17.66 26.95-16.61 26.95-14.54L26.95-5.60C26.95-3.55 25.93-2.50 23.84-2.50L16.76-2.50C16.01-2.50 15.66-2.36 15.12-1.82ZM13.85-5.66L16.31-7.46L18.76-5.66C19.28-5.29 19.90-5.63 19.65-6.33L18.70-9.20L21.20-10.99C21.71-11.37 21.54-12.05 20.87-12.05L17.78-12.04L16.86-14.91C16.66-15.53 15.96-15.53 15.76-14.91L14.84-12.04L11.74-12.05C11.09-12.05 10.89-11.37 11.41-10.99L13.92-9.20L12.96-6.33C12.73-5.64 13.34-5.29 13.85-5.66Z" fill="currentColor"/>
</svg>