<svg xmlns="http://www.w3.org/2000/svg" viewBox="0 0 24 24" width="24" height="24">
  <title>steeringwheel.arrowtriangle.right</title>
  <path transform="matrix(0.5714597435529986, 0, 0, 0.5714597435529986, 0.8012738973126554, 16.835085173967947)" d="M14.32 3.76C21.07 3.76 26.54-1.71 26.54-8.46C26.54-15.21 21.07-20.68 14.32-20.68C7.57-20.68 2.10-15.21 2.10-8.46C2.10-1.71 7.57 3.76 14.32 3.76ZM6.39-13.98C8.11-16.52 11.02-18.14 14.30-18.14C17.57-18.14 20.47-16.52 22.21-13.99C22.66-13.36 22.45-12.67 21.71-12.67L6.88-12.67C6.15-12.67 5.94-13.36 6.39-13.98ZM36.66-9.20L30.89-12.61C30.28-12.97 29.53-12.66 29.53-11.98L29.53-4.95C29.53-4.24 30.27-3.93 30.89-4.30L36.66-7.70C37.25-8.05 37.23-8.86 36.66-9.20ZM14.30-5.50C12.96-5.50 11.87-6.57 11.87-7.93C11.87-9.27 12.96-10.35 14.30-10.35C15.64-10.35 16.72-9.27 16.72-7.93C16.72-6.57 15.64-5.50 14.30-5.50ZM5.03-5.82C4.85-6.48 5.19-6.79 5.77-6.70C8.98-6.29 11.43-3.49 11.36-0.19C11.34 0.36 10.93 0.70 10.37 0.42C7.71-0.79 5.78-3.06 5.03-5.82ZM23.58-5.82C22.83-3.06 20.89-0.79 18.23 0.42C17.67 0.70 17.26 0.36 17.26-0.19C17.18-3.48 19.63-6.29 22.85-6.70C23.41-6.79 23.77-6.48 23.58-5.82Z" fill="currentColor"/>
</svg>