<svg xmlns="http://www.w3.org/2000/svg" viewBox="0 0 24 24" width="24" height="24">
  <title>steeringwheel.arrow.trianglehead.counterclockwise.and.clockwise</title>
  <path transform="matrix(0.5883890044012133, 0, 0, 0.5883890044012133, 3.574488695522004, 17.929742594261903)" d="M1.99-15.80L1.14-16.28C2.51-18.61 4.49-20.54 6.87-21.86C7.42-22.16 7.64-22.76 7.37-23.32C7.11-23.88 6.46-24.09 5.86-23.75C3.14-22.24 0.84-20.02-0.74-17.33L-1.55-17.78C-2.14-18.13-2.73-17.82-2.67-17.05L-2.43-13.41C-2.39-12.76-1.88-12.47-1.29-12.77L1.93-14.44C2.65-14.81 2.59-15.45 1.99-15.80ZM26.65-15.80C26.05-15.45 25.99-14.81 26.71-14.44L29.93-12.77C30.52-12.47 31.02-12.76 31.07-13.41L31.31-17.05C31.36-17.82 30.79-18.13 30.19-17.78L29.38-17.33C27.80-20.02 25.50-22.24 22.78-23.75C22.18-24.09 21.53-23.88 21.26-23.32C21-22.76 21.21-22.16 21.76-21.86C24.15-20.54 26.13-18.61 27.50-16.28ZM14.32 3.76C21.07 3.76 26.54-1.71 26.54-8.46C26.54-15.21 21.07-20.68 14.32-20.68C7.57-20.68 2.10-15.21 2.10-8.46C2.10-1.71 7.57 3.76 14.32 3.76ZM6.40-13.98C8.11-16.52 11.02-18.14 14.30-18.14C17.57-18.14 20.47-16.52 22.21-13.99C22.66-13.36 22.45-12.67 21.71-12.67L6.88-12.67C6.15-12.67 5.94-13.36 6.40-13.98ZM14.31-5.50C12.96-5.50 11.87-6.57 11.87-7.93C11.87-9.27 12.96-10.35 14.31-10.35C15.64-10.35 16.72-9.27 16.72-7.93C16.72-6.57 15.64-5.50 14.31-5.50ZM5.03-5.82C4.85-6.48 5.19-6.79 5.77-6.70C8.98-6.29 11.43-3.49 11.36-0.19C11.34 0.36 10.93 0.70 10.37 0.42C7.72-0.79 5.78-3.06 5.03-5.82ZM23.58-5.82C22.83-3.06 20.89-0.79 18.23 0.42C17.67 0.70 17.26 0.36 17.26-0.19C17.18-3.48 19.63-6.29 22.85-6.70C23.43-6.79 23.77-6.48 23.58-5.82Z" fill="currentColor"/>
</svg>