<svg xmlns="http://www.w3.org/2000/svg" viewBox="0 0 24 24" width="24" height="24">
  
  <path transform="matrix(0.6920789402541228, 0, 0, 0.6920789402541228, 0.5482562854825628, 17.87038112962432)" d="M31.00-6.07C31.00-13.61 25.24-19.79 17.88-20.46C17.45-20.51 17.12-20.19 17.12-19.76L17.12-15.81C17.12-15.45 17.38-15.18 17.74-15.13C22.22-14.54 25.68-10.72 25.68-6.07C25.68-3.95 24.96-1.99 23.68-0.39C23.48-0.13 23.48 0.20 23.72 0.42L26.57 3.27C26.87 3.59 27.32 3.57 27.60 3.26C29.72 0.73 31.00-2.52 31.00-6.07ZM2.10-6.07C2.10-2.52 3.38 0.73 5.51 3.26C5.78 3.57 6.22 3.57 6.53 3.27L9.38 0.42C9.61 0.19 9.61-0.13 9.41-0.39C8.14-1.99 7.42-3.95 7.42-6.07C7.42-10.72 10.89-14.54 15.36-15.13C15.71-15.18 15.97-15.45 15.97-15.81L15.97-19.76C15.97-20.19 15.64-20.51 15.21-20.46C7.86-19.79 2.10-13.61 2.10-6.07ZM12.94-0.90L19.59-0.90C20.06-0.90 20.39-1.20 20.39-1.64C20.39-2.11 20.03-2.40 19.59-2.40L14.73-2.40L14.73-2.45C15.57-2.82 15.95-3.79 15.95-4.73C15.95-5.03 15.93-5.29 15.87-5.51L18.64-5.51C18.98-5.51 19.22-5.73 19.22-6.04C19.22-6.33 18.97-6.55 18.64-6.55L15.61-6.55C15.47-7.11 15.42-7.44 15.42-7.82C15.42-9.02 16.37-9.68 17.73-9.68C18.16-9.68 18.57-9.62 18.87-9.56C19.05-9.53 19.24-9.49 19.41-9.49C19.80-9.49 20.06-9.71 20.06-10.10C20.06-10.56 19.71-10.79 19.28-10.91C18.70-11.10 18.22-11.16 17.47-11.16C15.28-11.16 13.58-10.04 13.58-7.95C13.58-7.50 13.66-7.07 13.80-6.55L12.67-6.55C12.34-6.55 12.09-6.33 12.09-6.04C12.09-5.73 12.34-5.51 12.67-5.51L14.06-5.51C14.13-5.20 14.18-4.93 14.18-4.66C14.18-3.68 13.70-2.91 12.81-2.51C12.46-2.34 12.16-2.07 12.16-1.66C12.16-1.20 12.49-0.90 12.94-0.90Z" fill="currentColor"/>
</svg>