<svg xmlns="http://www.w3.org/2000/svg" viewBox="0 0 24 24" width="24" height="24">
  
  <path transform="matrix(0.9582631480441699, 0, 0, 0.9582631480441699, 1.0174059517125218, 20.090960134755754)" d="M4.79 1.99L18.33 1.99C19.17 1.99 19.84 1.46 19.84 0.57C19.84-0.33 19.17-0.84 18.33-0.84L8.10-0.84L8.10-0.95C9.83-1.66 10.69-3.67 10.69-5.67C10.69-6.35 10.59-6.90 10.48-7.42L16.29-7.42C16.92-7.42 17.39-7.83 17.39-8.44C17.39-9.04 16.92-9.45 16.29-9.45L9.97-9.45C9.77-10.17 9.56-11.07 9.56-12.14C9.56-14.78 11.65-16.07 14.39-16.07C15.27-16.07 16.14-15.96 16.83-15.76C17.18-15.69 17.53-15.63 17.86-15.63C18.57-15.63 19.10-16.02 19.10-16.82C19.10-17.47 18.73-17.87 18.14-18.18C16.89-18.79 15.29-18.88 13.91-18.88C9.55-18.88 6.09-16.69 6.09-12.36C6.09-11.50 6.25-10.65 6.56-9.45L4.20-9.45C3.55-9.45 3.08-9.04 3.08-8.44C3.08-7.80 3.57-7.42 4.20-7.42L7.03-7.42C7.25-6.63 7.32-6.07 7.32-5.53C7.32-3.53 6.29-1.78 4.38-1.08C3.74-0.76 3.16-0.28 3.16 0.56C3.16 1.45 3.83 1.99 4.79 1.99Z" fill="currentColor"/>
</svg>