<svg xmlns="http://www.w3.org/2000/svg" viewBox="0 0 24 24" width="24" height="24">
  <title>sterlingsign.arrow.trianglehead.counterclockwise.rotate.90</title>
  <path transform="matrix(0.7513133281958077, 0, 0, 0.7513133281958077, 2.057913808240182, 18.356815112781717)" d="M0.81-10.89C-0.08-10.89-0.32-10.17 0.18-9.52L2.98-5.68C3.35-5.17 3.95-5.18 4.31-5.68L7.11-9.52C7.59-10.17 7.36-10.89 6.48-10.89L5.10-10.89C6.16-14.99 9.89-18 14.32-18C19.59-18 23.86-13.73 23.86-8.46C23.86-3.19 19.59 1.08 14.32 1.08C11.31 1.08 8.70-0.30 6.95-2.48C6.39-3.08 5.61-3.28 4.98-2.79C4.39-2.33 4.29-1.45 4.90-0.77C7.16 2.04 10.58 3.76 14.32 3.76C21.06 3.76 26.54-1.71 26.54-8.46C26.54-15.21 21.06-20.68 14.32-20.68C8.40-20.68 3.48-16.49 2.34-10.89ZM10.88-3.57L17.25-3.57C17.68-3.57 18.01-3.86 18.01-4.29C18.01-4.72 17.66-5.00 17.25-5.00L12.60-5.00L12.60-5.05C13.39-5.41 13.76-6.33 13.76-7.24C13.76-7.51 13.73-7.76 13.69-7.98L16.35-7.98C16.66-7.98 16.89-8.19 16.89-8.47C16.89-8.77 16.65-8.98 16.35-8.98L13.43-8.98C13.30-9.52 13.25-9.82 13.25-10.18C13.25-11.34 14.17-11.96 15.46-11.96C15.88-11.96 16.28-11.92 16.55-11.85C16.72-11.81 16.91-11.79 17.07-11.79C17.45-11.79 17.70-12 17.70-12.36C17.70-12.81 17.36-13.03 16.93-13.15C16.39-13.32 15.94-13.38 15.21-13.38C13.13-13.38 11.50-12.32 11.50-10.31C11.50-9.88 11.57-9.47 11.71-8.98L10.63-8.98C10.30-8.98 10.08-8.77 10.08-8.47C10.08-8.19 10.30-7.98 10.63-7.98L11.95-7.98C12.02-7.69 12.07-7.42 12.07-7.17C12.07-6.23 11.61-5.48 10.76-5.11C10.42-4.95 10.14-4.70 10.14-4.30C10.14-3.86 10.45-3.57 10.88-3.57Z" fill="currentColor"/>
</svg>