<svg xmlns="http://www.w3.org/2000/svg" viewBox="0 0 24 24" width="24" height="24">
  <title>suitcase.rolling.and.suitcase.fill</title>
  <path transform="matrix(0.6901199622590646, 0, 0, 0.6901199622590646, 0.7060250707642535, 17.82693085321472)" d="M2.99-2.32L8.24-2.32L8.24-4.77C8.24-7.56 10.00-9.28 12.77-9.28L13.78-9.28L13.80-9.43C14.21-11.18 15.66-12.38 17.89-12.38L20.60-12.38L20.60-13.85C20.60-15.73 19.29-17.04 17.41-17.04L16.77-17.04L16.77-20.29C16.77-21.94 15.75-22.93 14.00-22.93L9.66-22.93C7.86-22.93 6.82-21.94 6.82-20.29L6.82-17.04L6.16-17.04C4.29-17.04 2.99-15.73 2.99-13.85ZM9.04-17.04L9.04-20.11C9.04-20.60 9.34-20.89 9.87-20.89L13.79-20.89C14.27-20.89 14.55-20.60 14.55-20.11L14.55-17.04ZM15.18 6.05L24.52 6.05L24.52-7.54L24.35-7.54L24.35-8.26C24.35-9.89 23.44-10.68 21.81-10.68L17.87-10.68C16.31-10.68 15.34-9.89 15.34-8.26L15.34-7.54L15.18-7.54ZM17.13-7.54L17.13-8.20C17.13-8.74 17.43-9.02 17.98-9.02L21.71-9.02C22.27-9.02 22.56-8.74 22.56-8.20L22.56-7.54ZM12.77 6.05L13.36 6.05L13.36-7.58L12.77-7.58C10.93-7.58 9.94-6.61 9.94-4.77L9.94 3.25C9.94 5.09 10.93 6.05 12.77 6.05ZM26.33 6.05L26.91 6.05C28.76 6.05 29.74 5.09 29.74 3.25L29.74-4.77C29.74-6.61 28.76-7.58 26.91-7.58L26.33-7.58ZM6.94 6.05L7.62 6.05C8.10 6.05 8.44 5.77 8.48 5.31C8.32 4.68 8.24 3.98 8.24 3.25L8.24-0.12L2.99-0.12L2.99 1.22C2.99 2.91 4.03 4.15 5.60 4.35L5.91 4.36L5.91 5.03C5.91 5.65 6.32 6.05 6.94 6.05Z" fill="currentColor"/>
</svg>