<svg xmlns="http://www.w3.org/2000/svg" viewBox="0 0 24 24" width="24" height="24">
  
  <path transform="matrix(0.8181527644614893, 0, 0, 0.8181527644614893, 0.28379674017257894, 18.922339405560884)" d="M14.32 3.76C21.07 3.76 26.54-1.71 26.54-8.46C26.54-15.21 21.07-20.68 14.32-20.68C7.57-20.68 2.10-15.21 2.10-8.46C2.10-1.71 7.57 3.76 14.32 3.76ZM14.32 1.08C9.05 1.08 4.78-3.19 4.78-8.46C4.78-13.73 9.05-18 14.32-18C19.59-18 23.86-13.73 23.86-8.46C23.86-3.19 19.59 1.08 14.32 1.08ZM15.01-13.93L15.01-15.25C15.01-15.68 14.70-16.00 14.31-16.00C13.93-16.00 13.61-15.68 13.61-15.25L13.61-13.93C13.61-13.52 13.92-13.18 14.31-13.18C14.70-13.18 15.01-13.52 15.01-13.93ZM17.25-11.68C17.53-11.41 17.96-11.43 18.26-11.72L19.20-12.66C19.49-12.96 19.50-13.39 19.23-13.68C18.95-13.95 18.50-13.95 18.21-13.65L17.27-12.70C16.97-12.40 16.97-11.96 17.25-11.68ZM10.37-11.72C10.66-11.43 11.11-11.40 11.38-11.68C11.66-11.96 11.65-12.41 11.36-12.70L10.41-13.65C10.11-13.96 9.67-13.93 9.40-13.68C9.13-13.39 9.13-12.96 9.43-12.66ZM17.67-8.77C17.67-10.62 16.15-12.13 14.31-12.13C12.48-12.13 10.96-10.62 10.96-8.77C10.96-8.46 11.02-8.13 11.11-7.84L17.52-7.84C17.61-8.13 17.67-8.46 17.67-8.77ZM8.10-8.32L9.42-8.32C9.84-8.32 10.17-8.64 10.17-9.02C10.17-9.41 9.84-9.73 9.42-9.73L8.10-9.73C7.69-9.73 7.37-9.41 7.37-9.02C7.37-8.65 7.69-8.32 8.10-8.32ZM19.21-8.32L20.52-8.32C20.94-8.32 21.26-8.64 21.26-9.02C21.26-9.41 20.94-9.73 20.52-9.73L19.21-9.73C18.80-9.73 18.46-9.41 18.46-9.02C18.46-8.64 18.80-8.32 19.21-8.32ZM8.14-5.46L20.47-5.46C20.91-5.46 21.26-5.81 21.26-6.22C21.26-6.64 20.91-6.98 20.47-6.98L8.14-6.98C7.72-6.98 7.37-6.64 7.37-6.22C7.37-5.81 7.73-5.46 8.14-5.46ZM18.04-1.58C18.25-1.58 18.40-1.77 18.36-1.99L18.30-2.64L18.84-2.25C19.01-2.13 19.25-2.18 19.35-2.34C19.48-2.52 19.41-2.77 19.17-2.87L18.60-3.13L19.18-3.41C19.39-3.50 19.46-3.73 19.36-3.91C19.27-4.09 19.01-4.13 18.84-4.01L18.30-3.62L18.36-4.27C18.40-4.49 18.25-4.68 18.04-4.68C17.81-4.68 17.66-4.49 17.68-4.27L17.73-3.62L17.20-4.01C17.04-4.13 16.79-4.10 16.70-3.91C16.59-3.75 16.65-3.52 16.88-3.41L17.45-3.13L16.86-2.86C16.65-2.77 16.59-2.53 16.69-2.34C16.78-2.17 17.03-2.13 17.20-2.25L17.73-2.64L17.70-1.99C17.66-1.77 17.81-1.58 18.04-1.58ZM14.31-1.58C14.52-1.58 14.67-1.77 14.65-1.99L14.59-2.64L15.13-2.25C15.29-2.13 15.53-2.18 15.63-2.34C15.75-2.52 15.68-2.77 15.46-2.87L14.87-3.13L15.46-3.41C15.67-3.50 15.74-3.73 15.63-3.91C15.54-4.09 15.28-4.13 15.13-4.01L14.59-3.62L14.65-4.27C14.67-4.49 14.52-4.68 14.31-4.68C14.09-4.68 13.93-4.49 13.96-4.27L14.02-3.62L13.48-4.01C13.31-4.13 13.08-4.10 12.97-3.91C12.87-3.75 12.93-3.52 13.15-3.41L13.73-3.13L13.15-2.86C12.93-2.77 12.87-2.53 12.97-2.34C13.07-2.17 13.31-2.13 13.48-2.25L14.02-2.64L13.97-1.99C13.95-1.77 14.09-1.58 14.31-1.58ZM10.59-1.58C10.80-1.58 10.95-1.77 10.92-1.99L10.86-2.64L11.40-2.25C11.57-2.13 11.81-2.18 11.91-2.34C12.04-2.52 11.96-2.77 11.73-2.87L11.16-3.13L11.74-3.41C11.95-3.50 12.01-3.73 11.92-3.91C11.82-4.09 11.57-4.13 11.40-4.01L10.86-3.62L10.92-4.27C10.95-4.49 10.80-4.68 10.59-4.68C10.37-4.68 10.22-4.49 10.24-4.27L10.29-3.62L9.76-4.01C9.60-4.13 9.35-4.10 9.26-3.91C9.15-3.75 9.21-3.52 9.43-3.41L10.01-3.13L9.42-2.86C9.21-2.77 9.15-2.53 9.25-2.34C9.34-2.17 9.59-2.13 9.76-2.25L10.29-2.64L10.24-1.99C10.23-1.77 10.37-1.58 10.59-1.58Z" fill="currentColor"/>
</svg>