<svg xmlns="http://www.w3.org/2000/svg" viewBox="0 0 24 24" width="24" height="24">
  <title>sunset</title>
  <path transform="matrix(0.6658863311223826, 0, 0, 0.6658863311223826, 0.010144362075692692, 17.634022629730783)" d="M18.80-11.48L22.38-14.84C22.63-15.08 22.78-15.34 22.78-15.66C22.78-16.21 22.37-16.62 21.81-16.62C21.48-16.62 21.21-16.45 21-16.22L19.75-14.89L18.96-13.84L19.11-15.74L19.11-19.73C19.11-20.38 18.61-20.91 18.01-20.91C17.40-20.91 16.90-20.38 16.90-19.73L16.90-15.74L17.05-13.88L16.37-14.81L15.02-16.22C14.81-16.45 14.55-16.62 14.23-16.62C13.65-16.62 13.24-16.21 13.24-15.66C13.24-15.34 13.39-15.08 13.65-14.84L17.23-11.48C17.51-11.23 17.73-11.12 18.01-11.12C18.29-11.12 18.52-11.23 18.80-11.48ZM24.06-8.03C24.49-7.59 25.22-7.61 25.69-8.09L27.52-9.90C28.00-10.38 28.00-11.10 27.56-11.53C27.14-11.95 26.43-11.95 25.95-11.47L24.12-9.64C23.64-9.18 23.63-8.45 24.06-8.03ZM11.95-8.03C12.38-8.46 12.38-9.18 11.89-9.64L10.07-11.47C9.59-11.95 8.88-11.95 8.45-11.53C8.02-11.10 8.02-10.38 8.50-9.90L10.32-8.09C10.79-7.61 11.53-7.59 11.95-8.03ZM4.27 3.98L31.75 3.98C32.45 3.98 33.02 3.41 33.02 2.74C33.02 2.06 32.46 1.50 31.75 1.50L23.36 1.50C24.06 0.52 24.43-0.69 24.43-1.97C24.43-5.52 21.53-8.43 18.01-8.43C14.48-8.43 11.58-5.52 11.58-1.97C11.58-0.69 11.96 0.52 12.66 1.50L4.27 1.50C3.56 1.50 2.99 2.07 2.99 2.74C2.99 3.40 3.56 3.98 4.27 3.98ZM13.89-1.97C13.89-4.25 15.75-6.09 18.01-6.09C20.26-6.09 22.13-4.25 22.13-1.97C22.13-0.53 21.39 0.76 20.32 1.50L15.69 1.50C14.63 0.76 13.89-0.53 13.89-1.97ZM5.66-1.42L8.25-1.42C8.93-1.42 9.46-1.92 9.45-2.53C9.43-3.14 8.93-3.63 8.25-3.63L5.66-3.63C4.99-3.63 4.49-3.14 4.49-2.53C4.49-1.92 5.00-1.42 5.66-1.42ZM27.76-1.42L30.35-1.42C31.02-1.42 31.52-1.92 31.52-2.53C31.52-3.14 31.02-3.63 30.35-3.63L27.76-3.63C27.09-3.63 26.55-3.14 26.57-2.53C26.58-1.92 27.09-1.42 27.76-1.42Z" fill="currentColor"/>
</svg>