<svg xmlns="http://www.w3.org/2000/svg" viewBox="0 0 24 24" width="24" height="24">
  <title>suv.side.rear.open.crop.fill</title>
  <path transform="matrix(0.7736476276820792, 0, 0, 0.7736476276820792, 0.16409791477787916, 19.86038077969175)" d="M2.99-19.25L2.99-0.05L8.88-0.05C8.80-0.43 8.75-0.83 8.75-1.25C8.75-4.29 11.24-6.76 14.27-6.76C17.31-6.76 19.78-4.30 19.78-1.25C19.78-0.83 19.73-0.43 19.64-0.05L20.98-0.05C23.39-0.05 24.63-1.41 24.63-4.05L24.63-9.89C24.63-11.61 24-13.61 22.92-15.16L22.31-16.04C21.83-16.73 21.32-17.31 20.74-17.77L23.38-20.44C23.67-20.74 23.98-20.86 24.45-20.86L26.47-20.86C27.16-20.86 27.61-21.33 27.61-21.98C27.61-22.63 27.16-23.09 26.47-23.09L24.54-23.09C23.30-23.09 22.49-22.77 21.75-22.02L18.64-18.88C17.75-19.16 16.73-19.29 15.54-19.29L4.96-19.29C4.25-19.29 3.59-19.27 2.99-19.25ZM14.27 2.77C16.49 2.77 18.28 0.97 18.28-1.25C18.28-3.48 16.49-5.27 14.27-5.27C12.06-5.27 10.24-3.47 10.24-1.25C10.24 0.97 12.05 2.77 14.27 2.77Z" fill="currentColor"/>
</svg>