<svg xmlns="http://www.w3.org/2000/svg" viewBox="0 0 24 24" width="24" height="24">
  <title>swedishkronasign.circle.fill</title>
  <path transform="matrix(0.8181527644614893, 0, 0, 0.8181527644614893, 0.28379674017257894, 18.922339405560884)" d="M14.32 3.76C21.07 3.76 26.54-1.72 26.54-8.46C26.54-15.21 21.07-20.68 14.32-20.68C7.58-20.68 2.10-15.21 2.10-8.46C2.10-1.72 7.58 3.76 14.32 3.76ZM10.28-3.73C9.79-3.73 9.45-4.08 9.45-4.59L9.45-12.90C9.45-13.42 9.79-13.76 10.28-13.76C10.76-13.76 11.10-13.41 11.10-12.89L11.10-7.95L11.13-7.95L13.65-10.72C13.83-10.92 14.07-11.05 14.33-11.05C14.74-11.05 15.06-10.73 15.06-10.34C15.06-10.09 14.95-9.94 14.75-9.71L12.94-7.84L14.88-5.07C15.02-4.88 15.11-4.71 15.11-4.45C15.11-4.03 14.74-3.73 14.31-3.73C13.95-3.73 13.71-3.93 13.52-4.22L11.73-6.86L11.10-6.25L11.10-4.59C11.10-4.08 10.76-3.73 10.28-3.73ZM17.19-3.73C16.70-3.73 16.39-4.08 16.39-4.59L16.39-10.22C16.39-10.71 16.71-11.05 17.16-11.05C17.59-11.05 17.91-10.71 17.91-10.22L17.91-9.62L17.98-9.62C18.13-10.38 18.61-11.05 19.37-11.05C19.86-11.05 20.20-10.75 20.20-10.24C20.20-9.98 20.10-9.79 19.91-9.68C19.72-9.52 19.43-9.48 19.15-9.48C18.23-9.47 17.96-8.71 17.96-7.92L17.96-4.59C17.96-4.01 17.59-3.73 17.19-3.73Z" fill="currentColor"/>
</svg>