<svg xmlns="http://www.w3.org/2000/svg" viewBox="0 0 24 24" width="24" height="24">
  <title>syringe</title>
  <path transform="matrix(0.7064733883355165, 0, 0, 0.7064733883355165, 0.09380563825261579, 18.055423525954534)" d="M3.02 5.10C3.46 5.51 4.11 5.48 4.55 5.06L8.88 0.73L9.36 1.21C10.68 2.51 12.47 2.46 13.85 1.09L25.34-10.39L26.61-9.12C27.13-8.59 27.97-8.59 28.50-9.12C29.02-9.63 29.03-10.48 28.50-11.00L27.21-12.28L27.75-12.83C28.28-13.35 28.29-14.19 27.76-14.72L26.33-16.14L27.57-17.39L28.73-16.23C29.25-15.71 30.11-15.71 30.62-16.23C31.14-16.76 31.14-17.60 30.62-18.13L26.60-22.15C26.07-22.66 25.23-22.66 24.71-22.15C24.20-21.63 24.19-20.78 24.71-20.25L25.88-19.10L24.62-17.85L22.85-19.63C22.32-20.14 21.48-20.14 20.96-19.63L20.41-19.08L19.15-20.36C18.61-20.89 17.78-20.87 17.26-20.36C16.73-19.83 16.72-19.01 17.26-18.47L18.53-17.20L7.03-5.71C5.65-4.30 5.60-2.52 6.93-1.22L7.36-0.79L3.02 3.55C2.60 3.98 2.58 4.66 3.02 5.10ZM10.82-0.69L8.81-2.68C8.38-3.12 8.38-3.69 8.81-4.13L10.17-5.47L11.85-3.80C12.09-3.54 12.47-3.55 12.71-3.80C12.95-4.03 12.94-4.42 12.70-4.65L11.02-6.33L12.63-7.95L14.31-6.25C14.55-6.01 14.93-6.01 15.18-6.25C15.41-6.49 15.40-6.88 15.18-7.11L13.48-8.79L15.09-10.41L16.78-8.72C17.03-8.48 17.39-8.48 17.65-8.72C17.87-8.96 17.87-9.34 17.64-9.59L15.95-11.26L17.57-12.87L19.24-11.18C19.49-10.95 19.85-10.95 20.10-11.18C20.34-11.40 20.33-11.80 20.10-12.05L18.41-13.72L20.20-15.52L23.66-12.07L12.25-0.66C11.82-0.23 11.26-0.26 10.82-0.69Z" fill="currentColor"/>
</svg>