<svg xmlns="http://www.w3.org/2000/svg" viewBox="0 0 24 24" width="24" height="24">
  
  <path transform="matrix(0.7401383171730099, 0, 0, 0.7401383171730099, 0.014318093103931284, 17.646986611485662)" d="M22.63-4.68L24.48-2.84L28.64-7.01C29.59-7.96 29.70-8.52 29.70-9.91L29.70-14.36C29.70-15.68 29.38-16.17 28.39-17.16L25.72-19.83C24.73-20.82 24.25-21.14 22.92-21.14L18.48-21.14C17.09-21.14 16.54-21.01 15.59-20.06L11.40-15.89L13.25-14.04L17.45-18.23C17.68-18.47 17.89-18.60 18.26-18.60L22.84-18.60C23.18-18.60 23.43-18.47 23.65-18.25L26.81-15.08C27.04-14.86 27.15-14.63 27.15-14.29L27.15-9.69C27.15-9.30 27.05-9.09 26.81-8.87ZM26.20 3.73C26.58 4.09 27.19 4.10 27.55 3.73C27.91 3.35 27.93 2.74 27.55 2.37L6.20-18.98C5.82-19.35 5.21-19.36 4.84-18.98C4.48-18.62 4.48-17.99 4.84-17.63ZM21.41-11.11C22.39-11.11 23.14-11.87 23.14-12.84C23.14-13.82 22.39-14.58 21.41-14.58C20.41-14.58 19.68-13.82 19.68-12.84C19.68-11.87 20.41-11.11 21.41-11.11ZM20.99 0.66L19.15-1.20L15.47 2.48C14.73 3.22 13.98 3.23 13.22 2.48L6.09-4.64C5.33-5.40 5.36-6.16 6.08-6.89L9.79-10.58L7.93-12.42L4.05-8.54C2.25-6.75 2.23-4.80 4.05-2.98L11.57 4.52C13.39 6.34 15.33 6.33 17.12 4.52Z" fill="currentColor"/>
</svg>