<svg xmlns="http://www.w3.org/2000/svg" viewBox="0 0 24 24" width="24" height="24">
  
  <path transform="matrix(0.9044338456103161, 0, 0, 0.9044338456103161, -0.6974032856385799, 19.64705882352941)" d="M6.96 2.60L21.12 2.60C23.72 2.60 25.09 1.23 25.09-1.34L25.09-15.57C25.09-18.14 23.72-19.51 21.12-19.51L6.96-19.51C4.37-19.51 2.99-18.14 2.99-15.57L2.99-1.34C2.99 1.23 4.37 2.60 6.96 2.60ZM11.50-2.24L8.10-5.66C7.30-6.46 7.24-7.30 8.05-8.12L13.82-13.93C14.26-14.39 14.58-14.68 15.29-14.68L17.60-14.68C18.18-14.68 18.50-14.48 18.90-14.10L20.02-13.00C20.40-12.60 20.54-12.27 20.54-11.70L20.54-9.46C20.54-8.72 20.25-8.41 19.79-7.97L13.97-2.18C13.15-1.37 12.30-1.45 11.50-2.24ZM16.05-10.21C16.43-9.83 17.03-9.83 17.41-10.22C17.80-10.59 17.79-11.20 17.41-11.57C17.04-11.94 16.44-11.94 16.05-11.57C15.68-11.19 15.68-10.57 16.05-10.21Z" fill="currentColor"/>
</svg>