<svg xmlns="http://www.w3.org/2000/svg" viewBox="0 0 24 24" width="24" height="24">
  <title>teletype.answer</title>
  <path transform="matrix(0.5874928284566838, 0, 0, 0.5874928284566838, 0.4165232358003461, 16.970740103270224)" d="M8.87-3.46C12.42 0.09 16.66 2.80 20.09 2.80C21.69 2.80 23.09 2.16 24.01 1.14C24.88 0.14 25.23-0.61 25.23-1.27C25.23-1.78 24.91-2.24 24.13-2.80L21.18-4.91C20.45-5.43 20.11-5.52 19.68-5.52C19.30-5.52 19.00-5.46 18.36-5.11L16.45-4.07C16.22-3.94 16.11-3.91 15.95-3.91C15.71-3.91 15.57-3.97 15.34-4.07C14.41-4.49 13.13-5.50 11.99-6.64C10.85-7.78 9.96-8.93 9.49-9.87C9.43-10.00 9.36-10.17 9.36-10.37C9.36-10.52 9.45-10.68 9.54-10.84L10.65-12.77C10.96-13.30 11.05-13.58 11.05-14.00C11.05-14.47 10.90-14.96 10.44-15.61L8.41-18.43C7.84-19.24 7.36-19.72 6.70-19.72C5.91-19.72 4.93-19.10 4.23-18.43C3.22-17.46 2.70-16.10 2.70-14.59C2.70-11.16 5.34-6.98 8.87-3.46ZM15.63-14.33L17.72-14.33C18.52-14.33 18.96-14.78 18.96-15.59L18.96-17.68C18.96-18.49 18.52-18.94 17.72-18.94L15.63-18.94C14.82-18.94 14.36-18.49 14.36-17.68L14.36-15.59C14.36-14.78 14.82-14.33 15.63-14.33ZM21.54-14.33L23.65-14.33C24.43-14.33 24.90-14.78 24.90-15.59L24.90-17.68C24.90-18.49 24.43-18.94 23.65-18.94L21.54-18.94C20.73-18.94 20.26-18.49 20.26-17.68L20.26-15.59C20.26-14.78 20.73-14.33 21.54-14.33ZM27.46-14.33L29.54-14.33C30.35-14.33 30.81-14.78 30.81-15.59L30.81-17.68C30.81-18.49 30.35-18.94 29.54-18.94L27.46-18.94C26.65-18.94 26.20-18.49 26.20-17.68L26.20-15.59C26.20-14.78 26.65-14.33 27.46-14.33ZM33.35-14.33L35.46-14.33C36.26-14.33 36.74-14.78 36.74-15.59L36.74-17.68C36.74-18.49 36.26-18.94 35.46-18.94L33.35-18.94C32.57-18.94 32.12-18.49 32.12-17.68L32.12-15.59C32.12-14.78 32.57-14.33 33.35-14.33ZM15.60-8.40L17.70-8.40C18.50-8.40 18.96-8.85 18.96-9.66L18.96-11.78C18.96-12.57 18.50-13.03 17.70-13.03L15.60-13.03C14.81-13.03 14.36-12.57 14.36-11.78L14.36-9.66C14.36-8.85 14.81-8.40 15.60-8.40ZM21.52-8.40L29.59-8.40C30.39-8.40 30.82-8.85 30.82-9.66L30.82-11.78C30.82-12.57 30.39-13.03 29.59-13.03L21.52-13.03C20.71-13.03 20.26-12.57 20.26-11.78L20.26-9.66C20.26-8.85 20.71-8.40 21.52-8.40ZM33.40-8.40L35.50-8.40C36.30-8.40 36.74-8.85 36.74-9.66L36.74-11.78C36.74-12.57 36.30-13.03 35.50-13.03L33.40-13.03C32.60-13.03 32.14-12.57 32.14-11.78L32.14-9.66C32.14-8.85 32.60-8.40 33.40-8.40Z" fill="currentColor"/>
</svg>