<svg xmlns="http://www.w3.org/2000/svg" viewBox="0 0 24 24" width="24" height="24">
  
  <path transform="matrix(0.8181527644614893, 0, 0, 0.8181527644614893, 0.28379674017257894, 18.922339405560884)" d="M14.32 3.76C21.07 3.76 26.54-1.71 26.54-8.46C26.54-15.21 21.07-20.68 14.32-20.68C7.57-20.68 2.10-15.21 2.10-8.46C2.10-1.71 7.57 3.76 14.32 3.76ZM14.32 1.08C9.05 1.08 4.78-3.19 4.78-8.46C4.78-13.73 9.05-18 14.32-18C19.59-18 23.86-13.73 23.86-8.46C23.86-3.19 19.59 1.08 14.32 1.08ZM14.31-2.32C14.50-2.32 14.70-2.33 14.89-2.36C14.67-2.82 14.58-3.36 14.58-3.91C14.58-6.43 16.62-8.48 19.14-8.48C19.58-8.48 20.02-8.41 20.43-8.26L20.43-8.44C20.43-11.80 17.66-14.55 14.31-14.55C14.12-14.55 13.96-14.54 13.77-14.53C13.97-14.07 14.06-13.56 14.06-13.02C14.06-10.50 12.01-8.46 9.50-8.46C9.05-8.46 8.61-8.52 8.20-8.66C8.19-8.58 8.19-8.52 8.19-8.44C8.19-5.09 10.96-2.32 14.31-2.32ZM8.30-9.55C8.68-9.43 9.07-9.36 9.50-9.36C11.58-9.36 13.15-10.93 13.15-13.02C13.15-13.51 13.07-13.96 12.87-14.38C10.55-13.82 8.73-11.91 8.30-9.55ZM15.79-2.51C18.11-3.09 19.91-5.02 20.32-7.37C19.95-7.49 19.57-7.57 19.14-7.57C17.05-7.57 15.49-6 15.49-3.91C15.49-3.40 15.59-2.94 15.79-2.51Z" fill="currentColor"/>
</svg>