<svg xmlns="http://www.w3.org/2000/svg" viewBox="0 0 24 24" width="24" height="24">
  
  <path transform="matrix(0.8181527644614893, 0, 0, 0.8181527644614893, 0.28379674017257894, 18.922339405560884)" d="M14.32 3.76C21.07 3.76 26.54-1.72 26.54-8.46C26.54-15.21 21.07-20.68 14.32-20.68C7.58-20.68 2.10-15.21 2.10-8.46C2.10-1.72 7.58 3.76 14.32 3.76ZM19.96-14.13C21.49-12.61 21.29-9.96 19.54-8.18C18.50-7.17 17.24-6.77 15.97-6.73C14.36-6.68 13.41-6.56 12.05-5.37C12.15-5.11 12.09-4.83 11.86-4.59L9.54-2.26C9.25-1.96 8.78-1.96 8.47-2.26L8.07-2.66C7.77-2.98 7.78-3.41 8.07-3.71L10.41-6.06C10.64-6.29 10.97-6.35 11.23-6.22C12.40-7.57 12.53-8.54 12.56-10.16C12.57-11.40 13.02-12.69 14.02-13.71C15.77-15.46 18.42-15.66 19.96-14.13ZM16.23-13.78L16.88-13.14L17.73-13.98C17.25-14.05 16.73-13.98 16.23-13.78ZM17.50-12.52L18.45-11.57L19.56-12.69C19.45-12.91 19.30-13.11 19.13-13.29C18.97-13.44 18.81-13.57 18.64-13.66ZM14.43-12.36L15.27-11.52L16.25-12.52L15.43-13.34C15.23-13.21 15.05-13.04 14.87-12.87C14.71-12.70 14.55-12.54 14.43-12.36ZM15.88-10.90L16.84-9.95L17.82-10.95L16.88-11.88ZM19.07-10.95L19.62-10.39C19.78-10.83 19.86-11.27 19.82-11.70ZM13.73-10.00L14.64-10.90L13.98-11.57C13.75-11.04 13.66-10.50 13.73-10.00ZM17.45-9.33L18.19-8.60C18.35-8.72 18.53-8.86 18.69-9.02C18.87-9.21 19.04-9.40 19.17-9.60L18.45-10.32ZM14.06-9.07C14.16-8.89 14.29-8.75 14.43-8.60C14.61-8.40 14.82-8.26 15.05-8.14L16.22-9.33L15.27-10.29ZM16.03-7.90C16.46-7.86 16.93-7.95 17.40-8.14L16.84-8.72Z" fill="currentColor"/>
</svg>