<svg xmlns="http://www.w3.org/2000/svg" viewBox="0 0 24 24" width="24" height="24">
  <title>tent</title>
  <path transform="matrix(0.5514270328486807, 0, 0, 0.5514270328486807, 0.6817447495961229, 16.573910994808614)" d="M9.94 4.07L31.10 4.07C32.73 4.07 33.32 2.57 32.65 1.25L27.91-8.24L36.22 3.38C36.56 3.84 37.00 4.04 37.44 4.04C38.11 4.04 38.66 3.61 38.66 2.80L38.66-0.80C38.66-1.35 38.19-1.82 37.63-1.82C37.08-1.82 36.61-1.35 36.61-0.80L36.61 0.48L22.15-19.75C21.28-20.96 19.76-20.95 18.89-19.75L4.43 0.48L4.43-0.80C4.43-1.35 3.97-1.82 3.41-1.82C2.85-1.82 2.39-1.35 2.39-0.80L2.39 2.80C2.39 3.61 2.94 4.04 3.61 4.04C4.04 4.04 4.49 3.84 4.82 3.38L13.14-8.24L8.40 1.25C7.73 2.57 8.32 4.07 9.94 4.07ZM11.12 1.78C10.96 1.78 10.91 1.64 10.98 1.51L20.37-17.55C20.44-17.71 20.61-17.71 20.68-17.55L30.07 1.51C30.14 1.64 30.07 1.78 29.93 1.78L26.21 1.78L21.39-8.60C21.20-8.99 20.86-9.19 20.52-9.19C20.18-9.19 19.83-8.99 19.65-8.60L14.82 1.78ZM20.52-6.08L22.34 1.78L18.69 1.78Z" fill="currentColor"/>
</svg>