<svg xmlns="http://www.w3.org/2000/svg" viewBox="0 0 24 24" width="24" height="24">
  
  <path transform="matrix(0.813473149030823, 0, 0, 0.813473149030823, -0.4308865586272641, 18.88274547187798)" d="M4.21-16.42L17.32-16.42C18.01-16.42 18.55-16.99 18.55-17.66C18.55-18.35 18.01-18.90 17.32-18.90L4.21-18.90C3.53-18.90 2.99-18.34 2.99-17.66C2.99-16.99 3.53-16.42 4.21-16.42ZM21.61-16.42L26.34-16.42C27.02-16.42 27.57-16.99 27.57-17.66C27.57-18.35 27.04-18.90 26.34-18.90L21.61-18.90C20.92-18.90 20.39-18.34 20.39-17.66C20.39-16.99 20.93-16.42 21.61-16.42ZM4.21-10.29L6.34-10.29C7.02-10.29 7.56-10.85 7.56-11.53C7.56-12.22 7.02-12.77 6.34-12.77L4.21-12.77C3.53-12.77 2.99-12.21 2.99-11.53C2.99-10.86 3.53-10.29 4.21-10.29ZM10.62-10.29L16.34-10.29C17.03-10.29 17.57-10.85 17.57-11.53C17.57-12.22 17.03-12.77 16.34-12.77L10.62-12.77C9.94-12.77 9.40-12.21 9.40-11.53C9.40-10.86 9.94-10.29 10.62-10.29ZM20.63-10.29L26.34-10.29C27.02-10.29 27.57-10.85 27.57-11.53C27.57-12.22 27.04-12.77 26.34-12.77L20.63-12.77C19.93-12.77 19.41-12.21 19.41-11.53C19.41-10.86 19.95-10.29 20.63-10.29ZM4.22-4.18L8.95-4.18C9.63-4.18 10.17-4.75 10.17-5.43C10.17-6.11 9.64-6.66 8.95-6.66L4.22-6.66C3.53-6.66 2.99-6.11 2.99-5.43C2.99-4.76 3.54-4.18 4.22-4.18ZM13.23-4.18L26.36-4.18C27.04-4.18 27.57-4.75 27.57-5.43C27.57-6.11 27.04-6.66 26.36-6.66L13.23-6.66C12.55-6.66 12.01-6.11 12.01-5.43C12.01-4.76 12.55-4.18 13.23-4.18ZM4.21 1.98L16.31 1.98C16.99 1.98 17.54 1.41 17.54 0.74C17.54 0.05 17.00-0.50 16.31-0.50L4.21-0.50C3.53-0.50 2.99 0.06 2.99 0.74C2.99 1.41 3.53 1.98 4.21 1.98Z" fill="currentColor"/>
</svg>