<svg xmlns="http://www.w3.org/2000/svg" viewBox="0 0 24 24" width="24" height="24">
  
  <path transform="matrix(0.6559057135536767, 0, 0, 0.6559057135536767, 2.09607993850884, 17.541890853189855)" d="M6.47-4.44L23.72-4.44C26.00-4.44 27.21-5.64 27.21-7.90L27.21-20.23C27.21-22.48 26.00-23.70 23.72-23.70L6.47-23.70C4.21-23.70 2.99-22.48 2.99-20.23L2.99-7.90C2.99-5.65 4.21-4.44 6.47-4.44ZM11.16-13.90C9.75-13.90 8.60-15.05 8.60-16.46C8.60-17.86 9.75-19.02 11.16-19.02C12.55-19.02 13.71-17.86 13.71-16.46C13.71-15.05 12.55-13.90 11.16-13.90ZM6.77-6.80C5.87-6.80 5.34-7.32 5.34-8.23L5.34-9.07L7.97-11.45C8.41-11.85 8.86-12.05 9.33-12.05C9.83-12.05 10.34-11.85 10.78-11.44L12.70-9.70L17.50-13.97C17.99-14.40 18.53-14.60 19.10-14.60C19.65-14.60 20.24-14.39 20.70-13.96L24.89-9.98L24.89-8.21C24.89-7.32 24.32-6.80 23.47-6.80ZM4.13 1.18L26.06 1.18C26.70 1.18 27.21 0.68 27.21 0.05C27.21-0.60 26.70-1.10 26.06-1.10L4.13-1.10C3.49-1.10 2.99-0.60 2.99 0.05C2.99 0.68 3.49 1.18 4.13 1.18ZM4.13 6.80L18.79 6.80C19.42 6.80 19.93 6.29 19.93 5.66C19.93 5.03 19.42 4.52 18.79 4.52L4.13 4.52C3.49 4.52 2.99 5.03 2.99 5.66C2.99 6.29 3.49 6.80 4.13 6.80Z" fill="currentColor"/>
</svg>