<svg xmlns="http://www.w3.org/2000/svg" viewBox="0 0 24 24" width="24" height="24">
  
  <path transform="matrix(0.813473149030823, 0, 0, 0.813473149030823, -0.4308865586272641, 18.887511916110583)" d="M19.96-16.43L26.34-16.42C27.02-16.42 27.57-16.99 27.57-17.66C27.57-18.35 27.04-18.90 26.34-18.90L19.96-18.91C19.27-18.91 18.74-18.35 18.74-17.67C18.74-17.00 19.28-16.43 19.96-16.43ZM6.33-9.88C7.91-9.88 9.21-10.99 9.21-12.62C9.21-14.18 8.14-15.23 6.71-15.23C6.02-15.23 5.45-14.99 5.05-14.47C5.41-15.98 6.62-16.99 8.30-17.09C8.77-17.12 9.13-17.48 9.13-17.95C9.13-18.52 8.65-18.86 8.03-18.86C5.37-18.86 3.01-16.62 3.01-13.57C3.01-11.33 4.42-9.88 6.33-9.88ZM13.76-9.88C15.35-9.88 16.64-10.99 16.64-12.62C16.64-14.18 15.57-15.23 14.16-15.23C13.46-15.23 12.88-14.99 12.49-14.47C12.86-15.98 14.06-16.99 15.73-17.09C16.20-17.12 16.57-17.48 16.57-17.95C16.57-18.52 16.09-18.86 15.47-18.86C12.81-18.86 10.45-16.62 10.45-13.57C10.45-11.33 11.86-9.88 13.76-9.88ZM19.96-10.30L26.34-10.29C27.02-10.29 27.57-10.85 27.57-11.53C27.57-12.22 27.04-12.76 26.34-12.77L19.96-12.79C19.27-12.79 18.74-12.22 18.74-11.54C18.74-10.88 19.28-10.30 19.96-10.30ZM4.21-4.16L26.34-4.16C27.02-4.16 27.57-4.72 27.57-5.39C27.57-6.08 27.04-6.63 26.34-6.63L4.21-6.63C3.53-6.63 2.99-6.07 2.99-5.39C2.99-4.73 3.53-4.16 4.21-4.16ZM4.21 1.98L26.34 1.98C27.02 1.98 27.57 1.41 27.57 0.74C27.57 0.05 27.04-0.50 26.34-0.50L4.21-0.50C3.53-0.50 2.99 0.06 2.99 0.74C2.99 1.41 3.53 1.98 4.21 1.98Z" fill="currentColor"/>
</svg>