<svg xmlns="http://www.w3.org/2000/svg" viewBox="0 0 24 24" width="24" height="24">
  
  <path transform="matrix(0.6837606837606838, 0, 0, 0.6837606837606838, -0.04326923076923084, 17.77724358974359)" d="M4.52 0.43C5.44 0.43 5.92 0.05 6.20-0.91L7.29-4.18L13.93-4.18L15.02-0.91C15.29 0.05 15.79 0.43 16.70 0.43C17.66 0.43 18.29-0.15 18.29-1.05C18.29-1.41 18.23-1.69 18.12-2.06L13.16-15.59C12.74-16.78 11.93-17.34 10.63-17.34C9.39-17.34 8.59-16.78 8.17-15.60L3.16-1.96C3.05-1.62 2.99-1.31 2.99-1.02C2.99-0.13 3.57 0.43 4.52 0.43ZM10.59-14.07L10.68-14.07L13.13-6.66L8.12-6.66ZM25.18 0.43C27.19 0.43 28.73-0.50 29.44-2.16L29.55-2.16L29.55-0.90C29.55-0.04 30.13 0.45 30.89 0.45C31.69 0.45 32.24-0.07 32.24-0.96L32.24-11.82C32.24-12.73 31.69-13.24 30.89-13.24C30.11-13.24 29.55-12.73 29.55-11.82L29.55-10.58L29.44-10.58C28.72-12.21 27.14-13.20 25.18-13.20C21.88-13.20 19.73-10.50 19.73-6.40C19.73-2.25 21.88 0.43 25.18 0.43ZM26.02-1.86C23.91-1.86 22.58-3.60 22.58-6.39C22.58-9.16 23.91-10.91 26.02-10.91C28.11-10.91 29.48-9.11 29.48-6.36C29.48-3.61 28.14-1.86 26.02-1.86Z" fill="currentColor"/>
</svg>