<svg xmlns="http://www.w3.org/2000/svg" viewBox="0 0 24 24" width="24" height="24">
  <title>text.page.fill</title>
  <path transform="matrix(0.7828746177370031, 0, 0, 0.7828746177370031, 1.6788990825688077, 18.61467889908257)" d="M2.99 0.35C2.99 2.94 4.35 4.32 6.93 4.32L19.44 4.32C22.01 4.32 23.38 2.94 23.38 0.35L23.38-17.26C23.38-19.85 22.01-21.22 19.44-21.22L6.93-21.22C4.35-21.22 2.99-19.85 2.99-17.26ZM8.84-14.09C8.37-14.09 8.03-14.44 8.03-14.89C8.03-15.33 8.37-15.68 8.84-15.68L17.54-15.68C18-15.68 18.34-15.33 18.34-14.89C18.34-14.44 18-14.09 17.54-14.09ZM8.84-9.96C8.37-9.96 8.03-10.32 8.03-10.77C8.03-11.21 8.37-11.55 8.84-11.55L17.54-11.55C18-11.55 18.34-11.21 18.34-10.77C18.34-10.32 18-9.96 17.54-9.96ZM8.84-5.85C8.37-5.85 8.03-6.19 8.03-6.62C8.03-7.08 8.37-7.43 8.84-7.43L13.13-7.43C13.58-7.43 13.91-7.08 13.91-6.62C13.91-6.19 13.58-5.85 13.13-5.85Z" fill="currentColor"/>
</svg>