<svg xmlns="http://www.w3.org/2000/svg" viewBox="0 0 24 24" width="24" height="24">
  <title>thermometer.and.ellipsis</title>
  <path transform="matrix(0.6664063516855395, 0, 0, 0.6664063516855395, 3.245607184693479, 17.80632565404139)" d="M13.14-0.42C16.36-0.42 18.98-3.01 18.98-6.25C18.98-7.89 18.32-9.33 17.09-10.46C16.91-10.63 16.90-10.69 16.90-10.92L16.90-19.66C16.90-22.05 15.36-23.72 13.14-23.72C10.89-23.72 9.35-22.05 9.35-19.66L9.35-10.92C9.35-10.69 9.34-10.63 9.16-10.46C7.92-9.34 7.27-7.89 7.27-6.25C7.27-3.01 9.89-0.42 13.14-0.42ZM13.14-2.52C11.06-2.52 9.38-4.21 9.38-6.28C9.38-7.56 9.98-8.67 11.05-9.38C11.36-9.57 11.47-9.75 11.47-10.16L11.47-19.59C11.47-20.80 12.14-21.61 13.14-21.61C14.11-21.61 14.78-20.80 14.78-19.59L14.78-10.16C14.78-9.75 14.89-9.57 15.21-9.38C16.25-8.67 16.88-7.56 16.88-6.28C16.88-4.21 15.19-2.52 13.14-2.52ZM13.13-3.89C14.45-3.89 15.52-4.96 15.52-6.29C15.52-7.21 14.99-7.97 14.24-8.39C13.91-8.55 13.80-8.68 13.80-9.15L13.80-14.53C13.80-15.01 13.50-15.32 13.13-15.32C12.75-15.32 12.45-15.01 12.45-14.53L12.45-9.15C12.45-8.68 12.34-8.55 12.01-8.39C11.26-7.97 10.73-7.21 10.73-6.29C10.73-4.96 11.80-3.89 13.13-3.89ZM5.21 6.29C6.46 6.29 7.45 5.30 7.45 4.05C7.45 2.82 6.46 1.82 5.21 1.82C3.98 1.82 2.99 2.82 2.99 4.05C2.99 5.30 3.98 6.29 5.21 6.29ZM13.14 6.29C14.37 6.29 15.36 5.30 15.36 4.05C15.36 2.82 14.37 1.82 13.14 1.82C11.91 1.82 10.91 2.82 10.91 4.05C10.91 5.30 11.91 6.29 13.14 6.29ZM21.06 6.29C22.29 6.29 23.29 5.30 23.29 4.05C23.29 2.82 22.29 1.82 21.06 1.82C19.83 1.82 18.83 2.82 18.83 4.05C18.83 5.30 19.83 6.29 21.06 6.29Z" fill="currentColor"/>
</svg>