<svg xmlns="http://www.w3.org/2000/svg" viewBox="0 0 24 24" width="24" height="24">
  <title>thermometer.variable.and.figure.circle.fill</title>
  <path transform="matrix(0.8181527644614893, 0, 0, 0.8181527644614893, 0.28379674017257894, 18.91275167785235)" d="M14.32 3.77C21.07 3.77 26.54-1.70 26.54-8.45C26.54-15.19 21.07-20.67 14.32-20.67C7.58-20.67 2.10-15.19 2.10-8.45C2.10-1.70 7.58 3.77 14.32 3.77ZM17.86-12.90C17.10-12.90 16.48-13.51 16.48-14.30C16.48-15.06 17.10-15.68 17.86-15.68C18.63-15.68 19.25-15.06 19.25-14.30C19.25-13.51 18.63-12.90 17.86-12.90ZM11.23-1.39C9.32-1.39 7.78-2.91 7.78-4.80C7.78-5.78 8.16-6.63 8.89-7.31C9.04-7.42 9.05-7.48 9.05-7.64L9.05-13.05C9.05-14.45 9.93-15.41 11.23-15.41C12.52-15.41 13.42-14.45 13.42-13.05L13.41-7.64C13.41-7.48 13.43-7.41 13.54-7.31C14.29-6.62 14.66-5.78 14.66-4.80C14.66-2.91 13.14-1.39 11.23-1.39ZM11.23-2.57C12.46-2.57 13.48-3.57 13.48-4.83C13.48-5.61 13.11-6.27 12.47-6.69C12.28-6.82 12.20-6.94 12.20-7.20L12.20-13.01C12.20-13.73 11.81-14.20 11.23-14.20C10.62-14.20 10.23-13.73 10.23-13.01L10.23-7.20C10.23-6.94 10.16-6.82 9.97-6.69C9.33-6.27 8.98-5.61 8.98-4.83C8.98-3.57 9.97-2.57 11.23-2.57ZM11.23-12.56C10.98-12.56 10.79-12.76 10.79-13.01C10.79-13.24 10.98-13.43 11.23-13.43C11.46-13.43 11.66-13.24 11.66-13.01C11.66-12.76 11.46-12.56 11.23-12.56ZM18.70-1.68C18.34-1.68 18.06-1.96 18.06-2.32L18.06-6.75C18.06-6.87 17.98-6.95 17.86-6.95C17.77-6.95 17.67-6.87 17.67-6.75L17.67-2.32C17.67-1.96 17.39-1.68 17.04-1.68C16.68-1.68 16.39-1.96 16.39-2.32L16.39-9.61C16.39-9.70 16.31-9.80 16.20-9.80C16.11-9.80 16.02-9.70 16.02-9.61L16.02-7.21C16.02-6.89 15.75-6.62 15.43-6.62C15.12-6.62 14.85-6.89 14.85-7.21L14.85-9.90C14.85-11.29 15.90-12.21 17.40-12.21L18.34-12.21C19.83-12.21 20.88-11.29 20.88-9.90L20.88-7.21C20.88-6.89 20.63-6.62 20.30-6.62C19.99-6.62 19.71-6.89 19.71-7.21L19.71-9.61C19.71-9.70 19.63-9.80 19.52-9.80C19.42-9.80 19.35-9.70 19.35-9.61L19.35-2.32C19.35-1.96 19.05-1.68 18.70-1.68ZM11.23-11.00C10.98-11.00 10.79-11.21 10.79-11.45C10.79-11.68 10.98-11.87 11.23-11.87C11.46-11.87 11.66-11.68 11.66-11.45C11.66-11.21 11.46-11.00 11.23-11.00ZM11.23-9.46C10.98-9.46 10.79-9.66 10.79-9.90C10.79-10.14 10.98-10.34 11.23-10.34C11.46-10.34 11.66-10.14 11.66-9.90C11.66-9.66 11.46-9.46 11.23-9.46ZM11.21-3.35C10.39-3.35 9.75-4.01 9.75-4.84C9.75-5.40 10.07-5.88 10.52-6.13C10.73-6.23 10.79-6.30 10.79-6.59L10.79-8.36C10.79-8.58 10.98-8.78 11.23-8.78C11.46-8.78 11.66-8.58 11.66-8.36L11.66-6.59C11.66-6.30 11.71-6.23 11.89-6.13C12.38-5.87 12.70-5.40 12.70-4.84C12.70-4.02 12.04-3.35 11.21-3.35Z" fill="currentColor"/>
</svg>