<svg xmlns="http://www.w3.org/2000/svg" viewBox="0 0 24 24" width="24" height="24">
  
  <path transform="matrix(0.6856836748359448, 0, 0, 0.6856836748359448, 4.028927280032141, 17.789473684210527)" d="M4.30-20.64L18.95-20.64C19.61-20.64 20.14-21.18 20.14-21.83C20.14-22.49 19.61-23.03 18.95-23.03L4.30-23.03C3.64-23.03 3.11-22.49 3.11-21.83C3.11-21.18 3.64-20.64 4.30-20.64ZM18.71-12.96L19.04-19.28L4.20-19.28L4.52-12.96C6.26-13.77 8.74-14.23 11.63-14.23C14.51-14.23 16.98-13.77 18.71-12.96ZM11.63-6.40C16.46-6.40 20.03-7.77 20.03-9.64C20.03-11.50 16.44-12.87 11.63-12.87C6.81-12.87 3.22-11.50 3.22-9.64C3.22-7.77 6.81-6.40 11.63-6.40ZM11.63-8.37C8.26-8.37 6.01-8.89 6.01-9.64C6.01-10.37 8.26-10.90 11.63-10.90C14.99-10.90 17.23-10.37 17.23-9.64C17.23-8.89 14.99-8.37 11.63-8.37ZM11.29-0.88L11.95-0.88C15.98-0.88 18.98-3.13 19.76-6.97C18.11-5.78 15.21-5.11 11.63-5.11C8.06-5.11 5.14-5.78 3.49-6.97C4.25-3.14 7.25-0.88 11.29-0.88ZM11.63 6.14C13.71 6.14 16.36 5.61 17.57 4.41C17.89 4.05 17.95 3.59 17.80 3.08L16.69-0.60C15.28 0.11 13.66 0.48 11.96 0.48L11.25 0.48C9.56 0.48 7.96 0.12 6.56-0.57L5.44 3.08C5.30 3.59 5.34 4.05 5.68 4.41C6.89 5.61 9.53 6.14 11.63 6.14Z" fill="currentColor"/>
</svg>