<svg xmlns="http://www.w3.org/2000/svg" viewBox="0 0 24 24" width="24" height="24">
  
  <path transform="matrix(0.8181527644614893, 0, 0, 0.8181527644614893, 0.28379674017257894, 18.91275167785235)" d="M14.32 3.77C21.07 3.77 26.54-1.70 26.54-8.45C26.54-15.19 21.07-20.67 14.32-20.67C7.58-20.67 2.10-15.19 2.10-8.45C2.10-1.70 7.58 3.77 14.32 3.77ZM14.23-9.53C10.23-9.53 8.05-10.56 8.05-12.50C8.05-13.80 9.15-15.02 11.38-15.64C11.85-15.77 12.20-15.62 12.32-15.26C12.43-14.88 12.25-14.52 11.82-14.39C10.11-13.86 9.48-13.21 9.48-12.54C9.48-11.46 11.02-10.88 14.17-10.88C17.14-10.88 19.15-11.48 19.15-12.02C19.15-12.46 17.95-12.87 16.00-12.87C14.27-12.87 13.03-12.49 12.02-12.09C11.63-11.93 11.21-12.05 11.06-12.39C10.91-12.70 11.00-13.14 11.43-13.32C12.61-13.84 14.14-14.18 16.05-14.18C18.74-14.18 20.59-13.38 20.59-12.01C20.59-10.51 18.18-9.53 14.23-9.53ZM14.40-7.37C12.98-7.37 11.29-7.56 9.96-7.95C9.55-8.05 9.36-8.40 9.45-8.74C9.56-9.11 9.91-9.22 10.29-9.12C11.51-8.77 13.04-8.59 14.40-8.59C16.21-8.59 17.91-8.88 19.08-9.32C19.45-9.47 19.82-9.39 19.98-9.07C20.13-8.74 19.98-8.37 19.62-8.21C18.30-7.70 16.44-7.37 14.40-7.37ZM14.86-5.25C14.05-5.25 13.34-5.30 12.84-5.38C12.39-5.45 12.21-5.79 12.27-6.12C12.34-6.43 12.62-6.63 13.03-6.57C13.54-6.52 14.20-6.47 14.84-6.47C16.35-6.47 17.74-6.69 19.16-7.14C19.57-7.25 19.90-7.14 20.02-6.82C20.13-6.52 20.02-6.12 19.58-5.98C18.13-5.50 16.56-5.26 14.86-5.25ZM14.23-3.23C13.79-3.29 13.62-3.61 13.65-3.91C13.70-4.25 13.99-4.48 14.41-4.44C15.50-4.31 16.70-4.39 17.71-4.64C18.11-4.73 18.43-4.59 18.54-4.25C18.63-3.93 18.47-3.57 18.08-3.46C16.90-3.15 15.41-3.11 14.23-3.23ZM13.79-1.17C13.38-1.22 13.18-1.51 13.22-1.84C13.25-2.16 13.52-2.39 13.92-2.33C14.27-2.30 14.66-2.30 15.01-2.34C15.43-2.40 15.70-2.16 15.74-1.84C15.76-1.49 15.54-1.22 15.15-1.17C14.70-1.13 14.24-1.13 13.79-1.17Z" fill="currentColor"/>
</svg>