<svg xmlns="http://www.w3.org/2000/svg" viewBox="0 0 24 24" width="24" height="24">
  <title>tram</title>
  <path transform="matrix(0.6440251572327044, 0, 0, 0.6440251572327044, 2.818867924528302, 17.486792452830187)" d="M5.57 7.01L6.35 7.01C6.76 7.01 7.00 6.88 7.21 6.53L7.86 5.48L20.54 5.48L21.20 6.53C21.41 6.88 21.64 7.01 22.05 7.01L22.75 7.01C23.45 7.01 23.79 6.30 23.41 5.70L21.16 2.06C23.91 1.91 25.52 0.01 25.52-2.77L25.52-10.68C25.52-13.93 25.20-16.55 24.73-18.53C24.06-21.66 22.27-23.39 19.35-23.78C18.39-23.91 16.43-24.05 14.25-24.05C11.91-24.05 10.11-23.91 9.15-23.78C6.25-23.39 4.45-21.66 3.79-18.53C3.32-16.55 2.99-14.00 2.99-10.76L2.99-2.77C2.99-0.02 4.57 1.86 7.24 2.05L4.93 5.75C4.58 6.32 4.88 7.01 5.57 7.01ZM8.04-0.05C6.06-0.05 5.10-1.22 5.10-2.94L5.10-10.76C5.10-13.93 5.43-16.29 5.86-18.21C6.32-20.36 7.49-21.47 9.47-21.70C10.36-21.81 12.04-21.91 14.25-21.91C16.31-21.91 18.14-21.81 19.04-21.70C21.01-21.47 22.20-20.36 22.65-18.21C23.09-16.29 23.41-13.86 23.41-10.68L23.41-2.94C23.41-1.22 22.45-0.05 20.46-0.05ZM11.25-18.68L17.26-18.68C17.77-18.68 18.12-19.03 18.12-19.55C18.12-20.05 17.77-20.40 17.26-20.40L11.25-20.40C10.75-20.40 10.39-20.05 10.39-19.55C10.39-19.03 10.75-18.68 11.25-18.68ZM14.25-6.54C17.20-6.56 19.39-6.68 20.64-6.82C21.40-6.91 21.74-7.42 21.74-8.14L21.74-10.99C21.74-13.28 21.49-15.25 21.33-16.01C21.21-16.59 20.82-17.00 20.24-17.07C18.97-17.24 17.43-17.32 14.25-17.33C11.06-17.32 9.53-17.24 8.24-17.07C7.66-17.00 7.29-16.59 7.17-16.01C7.02-15.25 6.76-13.28 6.76-10.99L6.76-8.14C6.76-7.42 7.11-6.91 7.86-6.82C9.11-6.68 11.30-6.56 14.25-6.54ZM19.77-1.73C20.68-1.73 21.40-2.44 21.40-3.36C21.40-4.29 20.70-4.99 19.77-4.99C18.84-4.99 18.14-4.29 18.14-3.36C18.14-2.44 18.84-1.73 19.77-1.73ZM8.72-1.73C9.64-1.73 10.35-2.43 10.35-3.36C10.35-4.30 9.67-4.99 8.72-4.99C7.79-4.99 7.10-4.30 7.10-3.36C7.10-2.43 7.79-1.73 8.72-1.73ZM9.15 3.39L9.97 2.07L18.43 2.07L19.25 3.39Z" fill="currentColor"/>
</svg>