<svg xmlns="http://www.w3.org/2000/svg" viewBox="0 0 24 24" width="24" height="24">
  <title>truck.pickup.side.air.fresh</title>
  <path transform="matrix(0.4344874405974202, 0, 0, 0.4344874405974202, 0.7016293279022403, 15.632892057026476)" d="M12.38 1.66C14.20 1.66 15.75 0.57 16.39-1.01L33.33-1.01C33.97 0.57 35.52 1.66 37.36 1.66C39.19 1.66 40.73 0.57 41.38-1.01L45.68-1.01C47.74-1.01 49.02-2.31 49.02-4.44L49.02-9.48C49.02-11.65 47.65-12.97 45.45-12.97L36.09-12.97L35.92-14.52C35.63-17.06 34.17-18.39 31.62-18.39L26.92-18.39C22.76-18.39 20.48-17.81 17.73-16.09L15.95-14.96L17.52-12.90L19.10-13.89C21.46-15.36 23.26-15.81 26.92-15.81L31.59-15.81C32.63-15.81 33.20-15.30 33.32-14.30L33.75-10.41L45.36-10.41C46.05-10.41 46.45-9.94 46.45-9.16L46.45-4.82C46.45-4.04 46.05-3.59 45.36-3.59L41.60-3.59C41.19-5.57 39.47-7.03 37.36-7.03C35.25-7.03 33.52-5.57 33.11-3.59L16.62-3.59C16.21-5.57 14.48-7.03 12.38-7.03C10.27-7.03 8.53-5.57 8.12-3.59L6.66-3.59C5.98-3.59 5.57-4.04 5.57-4.82L5.57-7.13C5.57-8.75 6.55-9.59 9.02-9.95L13.05-10.52L11.26-12.87L8.70-12.50C4.85-11.95 2.99-10.21 2.99-7.13L2.99-4.44C2.99-2.26 4.27-1.01 6.34-1.01L8.34-1.01C8.99 0.57 10.54 1.66 12.38 1.66ZM21.30-11.79L21.30-10.85L18.60-10.85C17.48-10.85 17.04-11.07 16.32-12.02L13.17-16.13C12.16-17.46 10.97-17.99 9.15-17.99L6.30-17.99C5.75-17.99 5.31-17.53 5.31-16.98C5.31-16.44 5.75-15.98 6.30-15.98L9.15-15.98C10.46-15.98 10.95-15.77 11.60-14.91L14.72-10.79C15.75-9.43 16.91-8.85 18.60-8.85L21.30-8.85L21.30-7.89C21.30-7.02 22.07-6.76 22.71-7.18L25.66-9.08C26.26-9.46 26.27-10.22 25.66-10.61L22.72-12.49C22.07-12.93 21.30-12.67 21.30-11.79ZM12.38-0.76C11.31-0.76 10.48-1.59 10.48-2.66C10.48-3.73 11.31-4.55 12.38-4.55C13.43-4.55 14.26-3.73 14.26-2.66C14.26-1.59 13.43-0.76 12.38-0.76ZM37.36-0.76C36.29-0.76 35.46-1.59 35.46-2.66C35.46-3.73 36.29-4.55 37.36-4.55C38.41-4.55 39.25-3.73 39.25-2.66C39.25-1.59 38.41-0.76 37.36-0.76Z" fill="currentColor"/>
</svg>