<svg xmlns="http://www.w3.org/2000/svg" viewBox="0 0 24 24" width="24" height="24">
  <title>tsa.slash</title>
  <path transform="matrix(0.586483390607102, 0, 0, 0.586483390607102, 0.24742268041237114, 17.182969558688402)" d="M30.79 3.48C31.16 3.86 31.78 3.84 32.14 3.47C32.51 3.09 32.52 2.51 32.14 2.12L8.87-21.14C8.48-21.53 7.88-21.53 7.50-21.14C7.14-20.79 7.14-20.16 7.50-19.79ZM22.78-11.86C23.58-11.87 24.02-12.45 24.02-13.15C24.02-14.94 22.39-17.46 19.48-17.46C18.06-17.46 16.92-16.89 16.18-15.95L18.12-14.03C18.33-14.58 18.77-14.98 19.46-14.98C20.57-14.98 21.19-14.07 21.39-12.88C21.53-12.12 22.10-11.86 22.78-11.86ZM35.70 0.45C36.50 0.45 37.09-0.15 37.09-0.96C37.09-1.21 37.05-1.44 37.01-1.68L33.84-15.43C33.55-16.68 32.75-17.34 31.50-17.34C30.28-17.34 29.54-16.69 29.26-15.42L26.92-5.23L29.33-2.80L29.52-3.80L33.54-3.80L34.18-0.87C34.35 0 34.82 0.45 35.70 0.45ZM8.38 0.43C9.39 0.43 9.88-0.23 9.88-1.20L9.88-14.26L10.70-14.26L7.88-17.09L4.50-17.09C3.62-17.09 2.99-16.64 2.99-15.68C2.99-14.74 3.57-14.26 4.50-14.26L6.88-14.26L6.88-1.20C6.88-0.25 7.36 0.43 8.38 0.43ZM29.93-6.12L31.46-13.77L31.51-13.77L33.09-6.12ZM19.52 0.56C21.49 0.56 22.80-0.34 23.50-1.69L21.39-3.80C21.26-2.65 20.63-1.91 19.56-1.91C18.39-1.91 17.72-2.85 17.52-4.04C17.33-4.82 16.76-5.12 16.10-5.12C15.36-5.12 14.84-4.57 14.84-3.75C14.84-1.79 16.56 0.56 19.52 0.56Z" fill="currentColor"/>
</svg>