<svg xmlns="http://www.w3.org/2000/svg" viewBox="0 0 24 24" width="24" height="24">
  <title>turkishlirasign.gauge.chart.lefthalf.righthalf</title>
  <path transform="matrix(0.6920789402541228, 0, 0, 0.6920789402541228, 0.5482562854825628, 17.87038112962432)" d="M31.00-6.07C31.00-13.61 25.24-19.79 17.88-20.46C17.45-20.51 17.12-20.19 17.12-19.76L17.12-15.81C17.12-15.45 17.38-15.18 17.74-15.13C22.22-14.54 25.68-10.72 25.68-6.07C25.68-3.95 24.96-1.99 23.68-0.39C23.48-0.13 23.48 0.20 23.72 0.42L26.57 3.27C26.87 3.59 27.32 3.57 27.60 3.26C29.72 0.73 31.00-2.52 31.00-6.07ZM2.10-6.07C2.10-2.52 3.38 0.73 5.51 3.26C5.78 3.57 6.22 3.57 6.53 3.27L9.38 0.42C9.61 0.19 9.61-0.13 9.41-0.39C8.14-1.99 7.42-3.95 7.42-6.07C7.42-10.72 10.89-14.54 15.36-15.13C15.71-15.18 15.97-15.45 15.97-15.81L15.97-19.76C15.97-20.19 15.64-20.51 15.21-20.46C7.86-19.79 2.10-13.61 2.10-6.07ZM15.39-0.94L15.56-0.94C16.90-0.94 18.38-1.38 19.30-2.24C20.06-2.95 20.59-3.93 20.59-4.86C20.59-5.33 20.29-5.68 19.75-5.68C19.25-5.68 19.00-5.38 18.90-4.95C18.81-4.36 18.56-3.87 18.20-3.48C17.63-2.88 16.77-2.57 15.89-2.57L15.89-6.04L18.25-6.96C18.42-7.03 18.52-7.15 18.52-7.30C18.52-7.52 18.36-7.68 18.15-7.68C18.09-7.68 18.02-7.65 17.96-7.63L15.89-6.83L15.89-8.20L18.25-9.12C18.42-9.19 18.52-9.32 18.52-9.49C18.52-9.64 18.41-9.84 18.16-9.84C18.09-9.84 18.04-9.82 17.96-9.80L15.89-8.99L15.89-10.41C15.89-10.95 15.53-11.32 15-11.32C14.47-11.32 14.10-10.95 14.10-10.41L14.10-8.32L12.61-7.75C12.43-7.68 12.36-7.57 12.36-7.39C12.36-7.20 12.52-7.03 12.71-7.03C12.77-7.03 12.84-7.04 12.91-7.07L14.10-7.54L14.10-6.16L12.61-5.58C12.43-5.51 12.36-5.40 12.36-5.23C12.36-5.03 12.52-4.86 12.71-4.86C12.77-4.86 12.84-4.88 12.91-4.91L14.10-5.37L14.10-2.11C14.10-1.39 14.61-0.94 15.39-0.94Z" fill="currentColor"/>
</svg>