<svg xmlns="http://www.w3.org/2000/svg" viewBox="0 0 24 24" width="24" height="24">
  <title>turkishlirasign.arrow.trianglehead.counterclockwise.rotate.90</title>
  <path transform="matrix(0.7513133281958077, 0, 0, 0.7513133281958077, 2.057913808240182, 18.356815112781717)" d="M0.81-10.89C-0.08-10.89-0.32-10.17 0.18-9.52L2.98-5.68C3.35-5.17 3.95-5.18 4.31-5.68L7.11-9.52C7.59-10.17 7.36-10.89 6.48-10.89L5.10-10.89C6.16-14.99 9.89-18 14.32-18C19.59-18 23.86-13.73 23.86-8.46C23.86-3.19 19.59 1.08 14.32 1.08C11.31 1.08 8.70-0.30 6.95-2.48C6.39-3.08 5.61-3.28 4.98-2.79C4.39-2.33 4.29-1.45 4.90-0.77C7.16 2.04 10.58 3.76 14.32 3.76C21.06 3.76 26.54-1.71 26.54-8.46C26.54-15.21 21.06-20.68 14.32-20.68C8.40-20.68 3.48-16.49 2.34-10.89ZM13.17-3.39L13.35-3.39C14.68-3.39 16.16-3.83 17.09-4.69C17.85-5.40 18.36-6.38 18.36-7.31C18.36-7.78 18.07-8.13 17.52-8.13C17.03-8.13 16.78-7.83 16.68-7.38C16.58-6.81 16.34-6.32 15.98-5.93C15.41-5.33 14.55-5.02 13.68-5.02L13.68-8.48L16.03-9.40C16.20-9.47 16.29-9.60 16.29-9.75C16.29-9.97 16.15-10.13 15.94-10.13C15.87-10.13 15.81-10.10 15.74-10.08L13.68-9.28L13.68-10.65L16.03-11.57C16.21-11.64 16.29-11.77 16.29-11.94C16.29-12.09 16.20-12.29 15.95-12.29C15.88-12.29 15.81-12.27 15.74-12.25L13.68-11.44L13.68-12.86C13.68-13.39 13.31-13.77 12.79-13.77C12.26-13.77 11.88-13.39 11.88-12.86L11.88-10.77L10.39-10.20C10.22-10.13 10.14-10.02 10.14-9.84C10.14-9.64 10.29-9.48 10.49-9.48C10.55-9.48 10.62-9.49 10.69-9.52L11.88-9.98L11.88-8.60L10.39-8.03C10.22-7.96 10.14-7.85 10.14-7.68C10.14-7.48 10.29-7.31 10.49-7.31C10.55-7.31 10.63-7.32 10.70-7.36L11.88-7.82L11.88-4.56C11.88-3.84 12.40-3.39 13.17-3.39Z" fill="currentColor"/>
</svg>