<svg xmlns="http://www.w3.org/2000/svg" viewBox="0 0 24 24" width="24" height="24">
  <title>u.square</title>
  <path transform="matrix(0.9044338456103161, 0, 0, 0.9044338456103161, -0.6974032856385799, 19.64705882352941)" d="M6.96 2.60L21.12 2.60C23.72 2.60 25.09 1.23 25.09-1.34L25.09-15.57C25.09-18.14 23.72-19.51 21.12-19.51L6.96-19.51C4.37-19.51 2.99-18.14 2.99-15.57L2.99-1.34C2.99 1.23 4.37 2.60 6.96 2.60ZM7.18-0.01C6.15-0.01 5.60-0.53 5.60-1.61L5.60-15.29C5.60-16.37 6.15-16.90 7.18-16.90L20.91-16.90C21.91-16.90 22.49-16.37 22.49-15.29L22.49-1.61C22.49-0.53 21.91-0.01 20.91-0.01ZM14.05-3C16.83-3 18.71-4.58 18.71-6.98L18.71-12.60C18.71-13.46 18.27-13.97 17.47-13.97C16.70-13.97 16.24-13.46 16.24-12.60L16.24-7.22C16.24-5.89 15.38-5.03 14.05-5.03C12.73-5.03 11.85-5.89 11.85-7.22L11.85-12.60C11.85-13.46 11.40-13.97 10.61-13.97C9.83-13.97 9.38-13.46 9.38-12.60L9.38-6.98C9.38-4.58 11.26-3 14.05-3Z" fill="currentColor"/>
</svg>