<svg xmlns="http://www.w3.org/2000/svg" viewBox="0 0 24 24" width="24" height="24">
  
  <path transform="matrix(0.45511111111111113, 0, 0, 0.45511111111111113, 1.0453333333333332, 15.847999999999999)" d="M24.07 2.48C30.12 2.48 35.02-2.41 35.02-8.45C35.02-14.50 30.12-19.39 24.07-19.39C18.04-19.39 13.14-14.50 13.14-8.45C13.14-2.41 18.04 2.48 24.07 2.48ZM6.83-0.46C7.25-0.95 7.11-1.57 6.66-2.09C5.17-3.75 4.32-6 4.32-8.46C4.32-10.92 5.16-13.17 6.66-14.84C7.13-15.35 7.25-15.97 6.83-16.46C6.40-16.98 5.63-17.03 5.05-16.41C3.18-14.39 2.10-11.51 2.10-8.46C2.10-5.40 3.13-2.57 5.05-0.52C5.64 0.11 6.40 0.06 6.83-0.46ZM41.31-0.45C41.74 0.07 42.50 0.11 43.09-0.50C45.02-2.55 46.04-5.40 46.04-8.45C46.04-11.50 44.96-14.38 43.09-16.39C42.52-17.02 41.75-16.97 41.31-16.45C40.89-15.96 41.03-15.35 41.50-14.82C43.00-13.17 43.82-10.91 43.82-8.45C43.82-5.99 42.98-3.74 41.50-2.09C41.03-1.56 40.90-0.94 41.31-0.45ZM19.11-8.00C18.81-8.00 18.57-8.27 18.57-8.60C18.57-10.63 20.11-13.48 23.43-13.80L23.43-14.53C23.43-14.89 23.71-15.18 24.07-15.18C24.43-15.18 24.73-14.89 24.73-14.53L24.73-13.80C28.04-13.48 29.57-10.63 29.57-8.60C29.57-8.27 29.34-8.00 29.03-8.00C28.82-8.00 28.63-8.12 28.42-8.37C28.11-8.81 27.77-9 27.34-9C26.91-9 26.59-8.80 26.29-8.32C26.13-8.10 25.99-8.00 25.80-8.00C25.62-8.00 25.46-8.11 25.34-8.31C25.20-8.55 24.96-8.73 24.73-8.84L24.73-4.14C24.73-3.02 23.87-2.27 22.80-2.27C21.71-2.27 20.87-3.08 20.87-4.16C20.87-4.56 21.14-4.86 21.53-4.86C21.90-4.86 22.17-4.56 22.17-4.17C22.17-3.80 22.43-3.53 22.79-3.53C23.17-3.53 23.43-3.80 23.43-4.16L23.43-8.84C23.19-8.73 22.96-8.55 22.82-8.31C22.68-8.10 22.52-8.00 22.35-8.00C22.16-8.00 22.02-8.10 21.87-8.32C21.55-8.80 21.25-9 20.81-9C20.37-9 20.04-8.81 19.72-8.37C19.51-8.12 19.34-8.00 19.11-8.00ZM10.36-3.83C10.76-4.31 10.61-4.91 10.21-5.45C9.61-6.22 9.26-7.35 9.26-8.46C9.26-9.57 9.61-10.70 10.21-11.48C10.61-12.02 10.76-12.61 10.36-13.10C9.93-13.62 9.11-13.64 8.58-13.03C7.58-11.85 7.03-10.21 7.03-8.46C7.03-6.71 7.58-5.07 8.58-3.90C9.11-3.28 9.93-3.30 10.36-3.83ZM37.79-3.82C38.21-3.29 39.05-3.28 39.57-3.89C40.57-5.07 41.12-6.70 41.12-8.45C41.12-10.21 40.57-11.84 39.57-13.02C39.05-13.63 38.21-13.61 37.79-13.09C37.39-12.60 37.55-12.01 37.93-11.47C38.54-10.70 38.89-9.56 38.89-8.45C38.89-7.35 38.54-6.21 37.93-5.44C37.54-4.90 37.39-4.30 37.79-3.82Z" fill="currentColor"/>
</svg>