<svg xmlns="http://www.w3.org/2000/svg" viewBox="0 0 24 24" width="24" height="24">
  
  <path transform="matrix(0.7986273592263298, 0, 0, 0.7986273592263298, 3.8624239588207763, 15.823116518483856)" d="M10.18 0.41C14.60 0.41 17.39-2.14 17.39-5.94L17.39-15.79C17.39-16.73 16.78-17.31 15.83-17.31C14.89-17.31 14.30-16.73 14.30-15.79L14.30-6.23C14.30-3.83 12.79-2.27 10.18-2.27C7.59-2.27 6.09-3.83 6.09-6.23L6.09-15.79C6.09-16.73 5.47-17.31 4.54-17.31C3.60-17.31 2.99-16.73 2.99-15.79L2.99-5.94C2.99-2.14 5.79 0.41 10.18 0.41ZM3.93 4.23L16.45 4.23C16.98 4.23 17.39 3.84 17.39 3.32C17.39 2.79 16.98 2.40 16.45 2.40L3.93 2.40C3.40 2.40 2.99 2.79 2.99 3.32C2.99 3.84 3.40 4.23 3.93 4.23ZM3.93 7.73L16.45 7.73C16.98 7.73 17.39 7.35 17.39 6.82C17.39 6.29 16.98 5.91 16.45 5.91L3.93 5.91C3.40 5.91 2.99 6.29 2.99 6.82C2.99 7.35 3.40 7.73 3.93 7.73Z" fill="currentColor"/>
</svg>