<svg xmlns="http://www.w3.org/2000/svg" viewBox="0 0 24 24" width="24" height="24">
  
  <path transform="matrix(0.8181527644614893, 0, 0, 0.8181527644614893, 0.28379674017257894, 18.91275167785235)" d="M14.32 3.77C21.07 3.77 26.54-1.70 26.54-8.45C26.54-15.19 21.07-20.67 14.32-20.67C7.58-20.67 2.10-15.19 2.10-8.45C2.10-1.70 7.58 3.77 14.32 3.77ZM9.54-3.69C8.27-3.69 7.54-4.35 7.54-5.58L7.54-11.24C7.54-12.48 8.31-13.18 9.54-13.18L15.56-13.18C16.84-13.18 17.51-12.48 17.51-11.24L17.51-5.63C17.51-4.41 16.79-3.69 15.53-3.69ZM18.20-6.63L18.20-10.20L20.26-11.95C20.51-12.16 20.78-12.29 21.02-12.29C21.50-12.29 21.83-11.96 21.83-11.45L21.83-5.39C21.83-4.86 21.50-4.54 21.02-4.54C20.78-4.54 20.52-4.66 20.26-4.89Z" fill="currentColor"/>
</svg>