<svg xmlns="http://www.w3.org/2000/svg" viewBox="0 0 24 24" width="24" height="24">
  
  <path transform="matrix(0.6751054852320675, 0, 0, 0.6751054852320675, -0.2231012658227849, 17.715981012658226)" d="M8.16 1.44L20.31 1.44C23.40 1.44 25.16-0.29 25.16-3.30L25.16-4.58L29.25-1.11C29.85-0.61 30.45-0.27 31.05-0.27C32.16-0.27 32.92-1.05 32.92-2.25L32.92-14.58C32.92-15.77 32.16-16.56 31.05-16.56C30.45-16.56 29.85-16.22 29.25-15.71L25.16-12.25L25.16-13.62C25.16-16.63 23.40-18.38 20.31-18.38L8.16-18.38C5.14-18.38 3.29-16.63 3.29-13.62L3.29-3.18C3.29-0.18 5.05 1.44 8.16 1.44ZM8.58-0.89C6.80-0.89 5.79-1.85 5.79-3.68L5.79-13.24C5.79-15.12 6.80-16.04 8.58-16.04L19.88-16.04C21.66-16.04 22.66-15.07 22.66-13.24L22.66-3.68C22.66-1.85 21.63-0.89 19.88-0.89ZM30.13-3.25L25.16-7.29L25.16-9.54L30.13-13.58C30.22-13.65 30.29-13.70 30.39-13.70C30.52-13.70 30.57-13.61 30.57-13.46L30.57-3.36C30.57-3.22 30.52-3.13 30.39-3.13C30.29-3.13 30.22-3.19 30.13-3.25Z" fill="currentColor"/>
</svg>