<svg xmlns="http://www.w3.org/2000/svg" viewBox="0 0 24 24" width="24" height="24">
  
  <path transform="matrix(0.7828746177370031, 0, 0, 0.7828746177370031, 1.6788990825688077, 18.61467889908257)" d="M6.93 4.32L19.44 4.32C22.01 4.32 23.38 2.94 23.38 0.35L23.38-17.26C23.38-19.85 22.01-21.22 19.44-21.22L16.66-21.22C16.16-21.22 15.87-20.86 15.87-20.39L15.87-20.18C15.87-18.63 14.81-17.71 13.18-17.71C11.55-17.71 10.50-18.63 10.50-20.18L10.50-20.39C10.50-20.86 10.21-21.22 9.70-21.22L6.93-21.22C4.35-21.22 2.99-19.85 2.99-17.26L2.99 0.35C2.99 2.94 4.36 4.32 6.93 4.32ZM8.96-12.06C8.51-12.06 8.18-12.40 8.18-12.84C8.18-13.28 8.51-13.61 8.96-13.61L17.41-13.61C17.85-13.61 18.19-13.28 18.19-12.84C18.19-12.40 17.85-12.06 17.41-12.06ZM8.96-7.93C8.51-7.93 8.18-8.26 8.18-8.68C8.18-9.13 8.51-9.47 8.96-9.47L13.13-9.47C13.56-9.47 13.90-9.13 13.90-8.68C13.90-8.26 13.56-7.93 13.13-7.93Z" fill="currentColor"/>
</svg>