<svg xmlns="http://www.w3.org/2000/svg" viewBox="0 0 24 24" width="24" height="24">
  
  <path transform="matrix(0.7757575757575758, 0, 0, 0.7757575757575758, 0.15621425093754127, 18.62727272727273)" d="M6.02 4.34L15.32 4.34C15.21 4.17 15.12 4.00 15.04 3.80L14.31 1.86L6.26 1.86C5.79 1.86 5.47 1.55 5.47 1.07L5.47-12.82L21.98-12.82L21.98-5.60C22.80-5.93 23.66-6.06 24.47-5.80L24.47-18.32C24.47-20.17 23.23-21.43 21.42-21.43L6.02-21.43C4.22-21.43 2.99-20.17 2.99-18.32L2.99 1.22C2.99 3.07 4.22 4.34 6.02 4.34ZM5.47-18.16C5.47-18.63 5.79-18.95 6.26-18.95L21.20-18.95C21.67-18.95 21.98-18.63 21.98-18.16L21.98-14.61L5.47-14.61ZM8.10-15.64C8.73-15.64 9.26-16.17 9.26-16.80C9.26-17.45 8.73-17.96 8.10-17.96C7.46-17.96 6.94-17.45 6.94-16.80C6.94-16.17 7.46-15.64 8.10-15.64ZM11.34-15.64C11.99-15.64 12.52-16.17 12.52-16.80C12.52-17.45 11.99-17.96 11.34-17.96C10.71-17.96 10.18-17.45 10.18-16.80C10.18-16.17 10.71-15.64 11.34-15.64ZM17.04-16.10L19.72-16.10C20.14-16.10 20.44-16.39 20.44-16.82C20.44-17.23 20.14-17.52 19.72-17.52L17.04-17.52C16.62-17.52 16.31-17.23 16.31-16.82C16.31-16.39 16.62-16.10 17.04-16.10ZM7.64-5.52C7.64-2.14 10.39 0.57 13.68 0.57C13.72 0.57 13.77 0.57 13.84 0.57C13.64 0.04 13.45-0.50 13.27-1.03C13.24-1.03 13.20-1.03 13.16-1.04C11.30-1.18 9.20-2.98 9.20-5.52C9.20-8.04 11.20-10.04 13.72-10.04C16.11-10.04 18.07-8.20 18.21-5.88C18.21-5.84 18.21-5.77 18.21-5.72C18.79-5.71 19.32-5.58 19.76-5.41C19.77-5.57 19.77-5.73 19.77-5.89C19.59-9.07 16.96-11.60 13.72-11.60C10.37-11.60 7.64-8.87 7.64-5.52ZM17.87 4.35L23.39 4.35C24.07 4.35 24.66 3.96 24.91 3.27L27.47-3.60C27.70-4.25 27.38-4.77 26.92-4.95C26.45-5.11 25.85-4.95 25.61-4.30L25.45-3.88C24.87-4.14 24.33-4.55 23.45-4.55C22.07-4.55 21.54-3.63 20.63-3.63C19.72-3.63 19.20-4.55 17.81-4.55C16.93-4.55 16.39-4.14 15.81-3.88L15.66-4.30C15.41-4.95 14.81-5.11 14.34-4.95C13.89-4.77 13.56-4.25 13.79-3.60L16.35 3.27C16.61 3.96 17.19 4.35 17.87 4.35ZM20.63-2.14C22.08-2.14 22.43-3.06 23.45-3.06C24.05-3.06 24.39-2.74 24.94-2.50L23.21 2.09C23.14 2.29 23.03 2.36 22.85 2.36L18.41 2.36C18.23 2.36 18.12 2.29 18.05 2.09L16.32-2.50C16.88-2.74 17.21-3.06 17.81-3.06C18.83-3.06 19.18-2.14 20.63-2.14Z" fill="currentColor"/>
</svg>