<svg xmlns="http://www.w3.org/2000/svg" viewBox="0 0 24 24" width="24" height="24">
  <title>waveform.path.ecg.rectangle</title>
  <path transform="matrix(0.7179918664983873, 0, 0, 0.7179918664983873, -0.14556163230963381, 18.06647034076567)" d="M6.96 2.60L26.87 2.60C29.46 2.60 30.84 1.23 30.84-1.34L30.84-15.56C30.84-18.13 29.46-19.50 26.87-19.50L6.96-19.50C4.37-19.50 2.99-18.14 2.99-15.56L2.99-1.34C2.99 1.24 4.37 2.60 6.96 2.60ZM7.18-0.01C6.15-0.01 5.60-0.53 5.60-1.61L5.60-15.29C5.60-16.37 6.15-16.89 7.18-16.89L26.65-16.89C27.67-16.89 28.23-16.37 28.23-15.29L28.23-9.07L25.43-9.07C24.93-9.07 24.63-8.82 24.48-8.38L23.82-6.56L21.45-13.77C21.21-14.50 20.13-14.51 19.82-13.75L17.91-9.07L15.38-9.07C14.87-9.07 14.58-8.82 14.43-8.38L13.78-6.56L11.39-13.77C11.16-14.50 10.08-14.51 9.77-13.75L7.85-9.07L5.60-9.07L5.60-7.34L8.41-7.34C8.92-7.34 9.18-7.58 9.38-8.03L10.57-10.95L12.96-3.26C13.18-2.52 14.36-2.53 14.60-3.29L15.89-7.34L18.41-7.34C18.91-7.34 19.17-7.58 19.36-8.03L20.61-10.96L23.00-3.26C23.24-2.52 24.41-2.53 24.66-3.29L25.93-7.34L28.23-7.34L28.23-1.61C28.23-0.53 27.67-0.01 26.65-0.01Z" fill="currentColor"/>
</svg>