<svg xmlns="http://www.w3.org/2000/svg" viewBox="0 0 24 24" width="24" height="24">
  <title>wave.3.backward.circle</title>
  <path transform="matrix(0.8181527644614893, 0, 0, 0.8181527644614893, 0.28379674017257894, 18.922339405560884)" d="M14.32 3.76C21.07 3.76 26.54-1.71 26.54-8.46C26.54-15.21 21.07-20.68 14.32-20.68C7.57-20.68 2.10-15.21 2.10-8.46C2.10-1.71 7.57 3.76 14.32 3.76ZM14.32 1.08C9.05 1.08 4.78-3.19 4.78-8.46C4.78-13.73 9.05-18 14.32-18C19.59-18 23.86-13.73 23.86-8.46C23.86-3.19 19.59 1.08 14.32 1.08ZM9.40-8.45C9.40-5.92 10.13-3.46 11.46-1.45C11.78-0.98 12.35-0.86 12.81-1.15C13.28-1.45 13.37-2.05 13.04-2.55C11.93-4.22 11.31-6.30 11.31-8.45C11.31-10.62 11.93-12.69 13.04-14.36C13.37-14.86 13.28-15.46 12.81-15.76C12.35-16.05 11.77-15.93 11.46-15.46C10.13-13.44 9.40-10.98 9.40-8.45ZM12.98-8.45C12.98-6.60 13.52-4.79 14.52-3.38C14.82-2.92 15.39-2.80 15.84-3.09C16.30-3.39 16.41-3.98 16.08-4.51C15.34-5.59 14.92-7.00 14.92-8.45C14.92-9.91 15.34-11.32 16.08-12.40C16.41-12.93 16.30-13.52 15.84-13.82C15.39-14.11 14.82-13.99 14.52-13.54C13.52-12.14 12.98-10.34 12.98-8.45ZM16.58-8.45C16.58-7.28 16.95-6.11 17.55-5.27C17.85-4.85 18.42-4.75 18.87-5.02C19.36-5.34 19.44-5.94 19.09-6.49C18.73-7.01 18.53-7.72 18.53-8.45C18.53-9.20 18.73-9.91 19.09-10.42C19.45-10.97 19.37-11.57 18.87-11.89C18.42-12.16 17.86-12.06 17.55-11.64C16.95-10.78 16.58-9.61 16.58-8.45Z" fill="currentColor"/>
</svg>