<svg xmlns="http://www.w3.org/2000/svg" viewBox="0 0 24 24" width="24" height="24">
  <title>waveform.path.ecg.text.page.fill</title>
  <path transform="matrix(0.7828746177370031, 0, 0, 0.7828746177370031, 1.6788990825688077, 18.61467889908257)" d="M2.99 0.35C2.99 2.94 4.35 4.32 6.93 4.32L19.44 4.32C22.01 4.32 23.38 2.94 23.38 0.35L23.38-17.26C23.38-19.85 22.01-21.22 19.44-21.22L6.93-21.22C4.35-21.22 2.99-19.85 2.99-17.26ZM8.67-11.44C8.29-11.44 7.97-11.74 7.97-12.13C7.97-12.50 8.29-12.83 8.67-12.83L10.16-12.83L11.07-16.63C11.26-17.36 12.25-17.34 12.40-16.62L13.37-11.91L14.37-15.06C14.59-15.77 15.53-15.79 15.71-15.09L16.29-12.83L17.68-12.83C18.09-12.83 18.40-12.53 18.40-12.13C18.40-11.74 18.08-11.44 17.68-11.44L15.86-11.44C15.49-11.44 15.25-11.63 15.15-11.95L15-12.56L13.96-9.06C13.73-8.32 12.76-8.33 12.60-9.07L11.71-13.37L11.37-12C11.29-11.65 11.02-11.44 10.63-11.44ZM8.75-4.64C8.27-4.64 7.93-5.00 7.93-5.46C7.93-5.91 8.27-6.25 8.75-6.25L17.63-6.25C18.09-6.25 18.43-5.91 18.43-5.46C18.43-5.00 18.09-4.64 17.63-4.64ZM8.75-1.14C8.27-1.14 7.93-1.49 7.93-1.93C7.93-2.39 8.27-2.75 8.75-2.75L13.13-2.75C13.59-2.75 13.92-2.39 13.92-1.93C13.92-1.49 13.59-1.14 13.13-1.14Z" fill="currentColor"/>
</svg>