<svg xmlns="http://www.w3.org/2000/svg" viewBox="0 0 24 24" width="24" height="24">
  <title>wind.snow</title>
  <path transform="matrix(0.8153323134566053, 0, 0, 0.8153323134566053, -0.44393286300272505, 19.729732518590552)" d="M23.75-16.72C24.07-16.72 24.29-16.99 24.26-17.32L24.15-18.27L24.95-17.71C25.20-17.52 25.55-17.57 25.70-17.84C25.88-18.12 25.75-18.48 25.43-18.60L24.59-19.00L25.45-19.39C25.75-19.52 25.88-19.86 25.71-20.14C25.57-20.40 25.20-20.47 24.94-20.27L24.16-19.72L24.26-20.66C24.30-20.99 24.08-21.27 23.75-21.27C23.43-21.27 23.19-21 23.24-20.67L23.33-19.72L22.55-20.29C22.28-20.47 21.93-20.41 21.79-20.14C21.62-19.86 21.74-19.52 22.04-19.39L22.91-19.00L22.04-18.60C21.74-18.47 21.61-18.13 21.77-17.84C21.93-17.58 22.28-17.52 22.55-17.71L23.33-18.26L23.25-17.32C23.21-16.98 23.44-16.72 23.75-16.72ZM4.29-11.86C5.98-12.38 7.72-12.64 9.39-12.64C11.53-12.64 13.11-12.30 15.14-12.30C17.32-12.30 18.75-13.80 18.75-15.77C18.75-17.77 17.23-19.22 15.30-19.22C13.95-19.22 12.71-18.39 12.18-17.24C11.93-16.76 12.04-16.22 12.50-15.96C12.97-15.70 13.55-15.86 13.84-16.42C14.09-16.95 14.66-17.34 15.30-17.34C16.20-17.34 16.88-16.73 16.88-15.77C16.88-14.80 16.20-14.18 15.14-14.18C13.24-14.18 11.61-14.52 9.39-14.52C7.49-14.52 5.53-14.19 3.73-13.65C3.15-13.49 2.89-12.97 3.04-12.47C3.19-11.95 3.67-11.68 4.29-11.86ZM22.70-6.14C25.52-6.14 27.53-7.96 27.53-10.48C27.53-12.95 25.63-14.78 23.23-14.78C21.16-14.78 19.52-13.38 19.13-11.50C18.98-10.93 19.25-10.43 19.76-10.30C20.27-10.17 20.79-10.46 20.95-11.10C21.18-12.16 22.13-12.90 23.23-12.90C24.59-12.90 25.65-11.91 25.65-10.48C25.65-9.01 24.49-8.02 22.70-8.02C19.15-8.02 15.23-10.05 10.52-10.05C8.10-10.05 5.86-9.67 3.73-8.94C3.15-8.75 2.89-8.25 3.04-7.75C3.19-7.23 3.69-6.95 4.30-7.16C6.25-7.86 8.25-8.18 10.52-8.18C15.16-8.18 18.68-6.14 22.70-6.14ZM15.16 2.31C17.06 2.31 18.54 0.89 18.54-1.10C18.54-3.98 15.60-5.59 10.28-5.59C8.11-5.59 5.74-5.18 3.73-4.49C3.15-4.30 2.89-3.80 3.04-3.30C3.19-2.79 3.69-2.50 4.30-2.71C6.15-3.36 8.20-3.71 10.28-3.71C14.40-3.71 16.66-2.70 16.66-1.10C16.66-0.14 16.01 0.43 15.16 0.43C14.37 0.43 13.86-0.08 13.66-0.94C13.51-1.45 13.07-1.78 12.50-1.66C11.93-1.54 11.70-0.98 11.86-0.42C12.20 1.13 13.44 2.31 15.16 2.31ZM23.75 0.74C24.07 0.74 24.29 0.47 24.26 0.14L24.15-0.81L24.95-0.25C25.20-0.06 25.55-0.12 25.70-0.39C25.88-0.66 25.75-1.02 25.43-1.15L24.59-1.54L25.45-1.95C25.75-2.07 25.88-2.40 25.71-2.68C25.57-2.95 25.20-3.02 24.94-2.82L24.16-2.27L24.26-3.20C24.30-3.53 24.08-3.81 23.75-3.81C23.43-3.81 23.19-3.55 23.24-3.21L23.33-2.26L22.55-2.82C22.28-3.01 21.93-2.95 21.79-2.68C21.62-2.40 21.74-2.07 22.04-1.93L22.91-1.54L22.04-1.15C21.74-1.02 21.61-0.67 21.77-0.39C21.93-0.12 22.28-0.06 22.55-0.26L23.33-0.81L23.25 0.14C23.21 0.47 23.44 0.74 23.75 0.74Z" fill="currentColor"/>
</svg>