<svg xmlns="http://www.w3.org/2000/svg" viewBox="0 0 24 24" width="24" height="24">
  
  <path transform="matrix(0.8181527644614893, 0, 0, 0.8181527644614893, 0.28379674017257894, 18.922339405560884)" d="M14.32 3.76C21.07 3.76 26.54-1.71 26.54-8.46C26.54-15.21 21.07-20.68 14.32-20.68C7.57-20.68 2.10-15.21 2.10-8.46C2.10-1.71 7.57 3.76 14.32 3.76ZM14.32 1.08C9.05 1.08 4.78-3.19 4.78-8.46C4.78-13.73 9.05-18 14.32-18C19.59-18 23.86-13.73 23.86-8.46C23.86-3.19 19.59 1.08 14.32 1.08ZM7.70-8.41C7.70-8.20 7.86-8.05 8.07-8.05L9.50-8.05L10.30-4.00C10.42-3.41 10.82-3.07 11.40-3.07C11.95-3.07 12.36-3.41 12.49-3.97L13.50-8.05L15.13-8.05L16.13-3.97C16.25-3.39 16.64-3.07 17.23-3.07C17.81-3.07 18.21-3.40 18.33-4.00L19.14-8.05L20.57-8.05C20.78-8.05 20.93-8.20 20.93-8.41C20.93-8.63 20.78-8.78 20.57-8.78L19.28-8.78L20.02-12.50C20.04-12.61 20.05-12.71 20.05-12.83C20.05-13.31 19.71-13.62 19.21-13.62C18.81-13.62 18.46-13.35 18.39-12.91L17.71-8.78L16.20-8.78L15.20-12.84C15.09-13.34 14.80-13.61 14.32-13.61C13.85-13.61 13.55-13.31 13.43-12.83L12.43-8.78L10.92-8.78L10.24-12.91C10.18-13.34 9.84-13.62 9.41-13.62C8.91-13.62 8.58-13.31 8.58-12.83C8.58-12.75 8.59-12.63 8.61-12.50L9.35-8.78L8.07-8.78C7.86-8.78 7.70-8.63 7.70-8.41ZM14.29-11.21L14.36-11.21L14.95-8.78L13.68-8.78ZM11.51-5.21L11.04-8.05L12.26-8.05L11.57-5.21ZM17.06-5.21L16.37-8.05L17.59-8.05L17.13-5.21Z" fill="currentColor"/>
</svg>