<svg xmlns="http://www.w3.org/2000/svg" viewBox="0 0 24 24" width="24" height="24">
  <title>xmark.app.fill</title>
  <path transform="matrix(0.9073188020556442, 0, 0, 0.9073188020556442, -0.7113237639553431, 19.682083997873473)" d="M9.43 2.55L18.59 2.55C20.64 2.55 22.27 1.96 23.34 0.88C24.45-0.21 25.03-1.83 25.03-3.88L25.03-13.04C25.03-15.09 24.45-16.71 23.34-17.80C22.25-18.89 20.64-19.49 18.59-19.49L9.43-19.49C7.37-19.49 5.75-18.88 4.68-17.80C3.57-16.71 2.99-15.09 2.99-13.04L2.99-3.88C2.99-1.83 3.57-0.21 4.68 0.88C5.75 1.96 7.37 2.55 9.43 2.55ZM10.22-3.47C9.54-3.47 9.01-4.01 9.01-4.69C9.01-5.00 9.14-5.30 9.38-5.53L12.29-8.45L9.38-11.37C9.14-11.59 9.01-11.89 9.01-12.21C9.01-12.89 9.54-13.41 10.22-13.41C10.57-13.41 10.85-13.29 11.09-13.05L14.00-10.15L16.93-13.07C17.18-13.31 17.46-13.43 17.80-13.43C18.48-13.43 19.01-12.90 19.01-12.22C19.01-11.91 18.89-11.63 18.64-11.38L15.73-8.45L18.63-5.53C18.88-5.31 19.00-5.00 19.00-4.69C19.00-4.01 18.47-3.47 17.79-3.47C17.44-3.47 17.13-3.59 16.90-3.83L14.00-6.73L11.11-3.83C10.88-3.59 10.57-3.47 10.22-3.47Z" fill="currentColor"/>
</svg>