<svg xmlns="http://www.w3.org/2000/svg" viewBox="0 0 24 24" width="24" height="24">
  <title>xmark.diamond.fill</title>
  <path transform="matrix(0.7347595330205949, 0, 0, 0.7347595330205949, 0.2424123944575498, 18.21675448641644)" d="M3.79-5.66L13.20 3.76C15.04 5.60 16.97 5.61 18.80 3.79L28.24-5.67C30.07-7.50 30.06-9.43 28.22-11.27L18.81-20.68C16.97-22.52 15.05-22.54 13.22-20.71L3.76-11.25C1.93-9.42 1.95-7.49 3.79-5.66ZM12.22-3.47C11.54-3.47 11.02-4.00 11.02-4.69C11.02-4.99 11.14-5.30 11.38-5.52L14.30-8.44L11.38-11.37C11.14-11.59 11.02-11.89 11.02-12.20C11.02-12.88 11.54-13.41 12.22-13.41C12.57-13.41 12.84-13.29 13.09-13.05L16.00-10.15L18.94-13.07C19.18-13.31 19.46-13.42 19.80-13.42C20.47-13.42 21-12.89 21-12.22C21-11.89 20.89-11.61 20.65-11.37L17.73-8.44L20.64-5.53C20.88-5.31 21-5.00 21-4.69C21-4.00 20.47-3.47 19.78-3.47C19.43-3.47 19.14-3.59 18.90-3.82L16.00-6.73L13.11-3.82C12.87-3.59 12.57-3.47 12.22-3.47Z" fill="currentColor"/>
</svg>