<svg xmlns="http://www.w3.org/2000/svg" viewBox="0 0 24 24" width="24" height="24">
  <title>xmark.rectangle.portrait</title>
  <path transform="matrix(0.7828746177370031, 0, 0, 0.7828746177370031, 1.6788990825688077, 18.61467889908257)" d="M2.99 0.35C2.99 2.94 4.35 4.32 6.93 4.32L19.44 4.32C22.01 4.32 23.38 2.94 23.38 0.35L23.38-17.26C23.38-19.85 22.01-21.22 19.44-21.22L6.93-21.22C4.35-21.22 2.99-19.85 2.99-17.26ZM5.60 0.13L5.60-17.04C5.60-18.06 6.12-18.62 7.20-18.62L19.17-18.62C20.25-18.62 20.77-18.06 20.77-17.04L20.77 0.13C20.77 1.16 20.25 1.71 19.17 1.71L7.20 1.71C6.12 1.71 5.60 1.16 5.60 0.13ZM10.28-3.90L13.20-6.82L16.11-3.90C16.34-3.68 16.61-3.56 16.95-3.56C17.59-3.56 18.09-4.07 18.09-4.71C18.09-5.03 17.96-5.30 17.74-5.52L14.81-8.44L17.74-11.38C17.96-11.59 18.09-11.87 18.09-12.18C18.09-12.82 17.59-13.31 16.95-13.31C16.62-13.31 16.35-13.21 16.13-12.97L13.20-10.05L10.27-12.97C10.04-13.21 9.77-13.31 9.45-13.31C8.80-13.31 8.30-12.82 8.30-12.18C8.30-11.87 8.43-11.59 8.65-11.38L11.58-8.44L8.65-5.52C8.43-5.30 8.30-5.03 8.30-4.71C8.30-4.07 8.80-3.56 9.45-3.56C9.79-3.56 10.07-3.68 10.28-3.90Z" fill="currentColor"/>
</svg>