<svg xmlns="http://www.w3.org/2000/svg" viewBox="0 0 24 24" width="24" height="24">
  <title>zr.button.roundedtop.horizontal</title>
  <path transform="matrix(0.7268597387847814, 0, 0, 0.7268597387847814, -0.17206132879046, 18.14565587734242)" d="M12.89-19.00C5.98-19.00 2.99-15.93 2.99-9.22L2.99-1.80C2.99 0.73 4.36 2.09 6.90 2.09L26.59 2.09C29.14 2.09 30.50 0.73 30.50-1.80L30.50-9.22C30.50-15.93 27.52-19.00 20.60-19.00ZM12.97-16.39L20.53-16.39C25.69-16.39 27.90-14.18 27.90-9.28L27.90-2.07C27.90-1.05 27.35-0.53 26.37-0.53L7.14-0.53C6.14-0.53 5.60-1.05 5.60-2.07L5.60-9.28C5.60-14.18 7.80-16.39 12.97-16.39ZM18.18-3.68C18.77-3.68 19.11-4.07 19.11-4.68L19.11-7.27L19.99-7.27L21.05-4.48C21.23-3.95 21.53-3.68 22.03-3.68C22.49-3.68 22.92-3.98 22.92-4.61C22.91-4.77 22.85-4.98 22.75-5.23L21.77-7.66C22.63-8.16 22.99-9.15 22.99-10.15C22.99-12.06 21.88-13.05 20.05-13.05L18.16-13.05C17.54-13.05 17.21-12.69 17.21-12.07L17.21-4.68C17.21-4.07 17.55-3.68 18.18-3.68ZM11.18-3.81L15.08-3.81C15.52-3.81 15.84-4.14 15.84-4.58C15.84-5.05 15.49-5.36 15.08-5.36L12.32-5.36L12.32-5.43L15.48-11.40C15.60-11.63 15.69-11.85 15.69-12.15C15.69-12.69 15.30-13.05 14.75-13.05L11.03-13.05C10.61-13.05 10.23-12.74 10.23-12.28C10.23-11.85 10.56-11.51 11.03-11.51L13.64-11.51L13.64-11.44L10.44-5.44C10.30-5.18 10.24-4.96 10.24-4.68C10.24-4.13 10.63-3.81 11.18-3.81ZM19.11-8.61L19.11-11.59L19.88-11.59C20.67-11.59 21.07-10.92 21.07-10.11C21.07-9.29 20.71-8.61 19.88-8.61Z" fill="currentColor"/>
</svg>