<svg xmlns="http://www.w3.org/2000/svg" viewBox="0 0 24 24" width="24" height="24">
  
  <path transform="matrix(0.8703042665306816, 0, 0, 0.8703042665306816, 0.17440081591024992, 19.36868944416114)" d="M13.59 3.02C19.93 3.02 25.08-2.11 25.08-8.46C25.08-14.81 19.93-19.96 13.59-19.96C7.24-19.96 2.10-14.81 2.10-8.46C2.10-2.11 7.24 3.02 13.59 3.02ZM13.59 2.13C7.73 2.13 2.99-2.60 2.99-8.46C2.99-14.32 7.73-19.07 13.59-19.07C19.45-19.07 24.19-14.32 24.19-8.46C24.19-2.60 19.45 2.13 13.59 2.13ZM11.05-3.53C13.22-3.53 13.73-6.39 13.73-8.46C13.73-10.55 13.22-13.39 11.05-13.39C8.88-13.39 8.38-10.55 8.38-8.46C8.38-6.39 8.88-3.53 11.05-3.53ZM17.44-3.61C17.67-3.61 17.89-3.82 17.89-4.08L17.89-12.81C17.89-13.10 17.68-13.30 17.39-13.30C17.12-13.30 16.90-13.17 16.73-13.03L15.14-11.72C15.04-11.63 14.96-11.52 14.96-11.36C14.96-11.16 15.09-10.99 15.32-10.99C15.42-10.99 15.48-11.03 15.55-11.09L16.97-12.23L16.97-4.08C16.97-3.82 17.18-3.61 17.44-3.61ZM11.05-4.31C9.57-4.31 9.29-6.74 9.29-8.46C9.29-10.20 9.57-12.61 11.05-12.61C12.53-12.61 12.82-10.20 12.82-8.46C12.82-6.74 12.53-4.31 11.05-4.31Z" fill="currentColor"/>
</svg>