<svg xmlns="http://www.w3.org/2000/svg" viewBox="0 0 24 24" width="24" height="24">
  <title>07.square</title>
  <path transform="matrix(0.9642184557438794, 0, 0, 0.9642184557438794, -0.8813559322033897, 20.15819209039548)" d="M6.15 1.91L20.58 1.91C22.65 1.91 23.73 0.81 23.73-1.24L23.73-15.68C23.73-17.73 22.65-18.83 20.58-18.83L6.15-18.83C4.08-18.83 2.99-17.75 2.99-15.68L2.99-1.24C2.99 0.83 4.08 1.91 6.15 1.91ZM6.18 1.04C4.65 1.04 3.86 0.25 3.86-1.28L3.86-15.63C3.86-17.17 4.65-17.96 6.18-17.96L20.54-17.96C22.02-17.96 22.86-17.17 22.86-15.63L22.86-1.28C22.86 0.25 22.02 1.04 20.54 1.04ZM10.28-3.53C12.45-3.53 12.95-6.39 12.95-8.46C12.95-10.55 12.45-13.39 10.28-13.39C8.11-13.39 7.59-10.55 7.59-8.46C7.59-6.39 8.11-3.53 10.28-3.53ZM15.23-3.60C15.47-3.60 15.59-3.71 15.68-3.95L18.69-12.09C18.76-12.28 18.81-12.47 18.81-12.66C18.81-12.98 18.59-13.21 18.23-13.21L14.36-13.21C14.13-13.21 13.97-13.03 13.97-12.81C13.97-12.59 14.13-12.41 14.36-12.41L17.89-12.41L17.89-12.34L14.89-4.42C14.84-4.28 14.80-4.16 14.80-4.01C14.80-3.79 14.95-3.60 15.23-3.60ZM10.28-4.31C8.80-4.31 8.51-6.74 8.51-8.46C8.51-10.20 8.80-12.61 10.28-12.61C11.75-12.61 12.04-10.20 12.04-8.46C12.04-6.74 11.75-4.31 10.28-4.31Z" fill="currentColor"/>
</svg>