<svg xmlns="http://www.w3.org/2000/svg" viewBox="0 0 24 24" width="24" height="24">
  
  <path transform="matrix(0.9642184557438794, 0, 0, 0.9642184557438794, -0.8813559322033897, 20.135593220338983)" d="M2.99-0.12C2.99 0.13 3.19 0.32 3.42 0.32C3.67 0.32 3.86 0.13 3.86-0.12L3.86-16.76C3.86-16.99 3.67-17.19 3.42-17.19C3.19-17.19 2.99-16.99 2.99-16.76ZM22.86-0.12C22.86 0.13 23.06 0.32 23.30 0.32C23.53 0.32 23.73 0.13 23.73-0.12L23.73-16.76C23.73-16.99 23.53-17.19 23.30-17.19C23.06-17.19 22.86-16.99 22.86-16.76ZM11.38-3.34C11.67-3.34 11.86-3.56 11.86-3.84L11.86-12.87C11.86-13.20 11.66-13.38 11.33-13.38C11.07-13.38 10.90-13.28 10.70-13.13L8.70-11.67C8.55-11.57 8.45-11.45 8.45-11.26C8.45-11.04 8.61-10.88 8.84-10.88C8.93-10.88 9.04-10.90 9.12-10.96L10.90-12.27L10.90-3.84C10.90-3.55 11.07-3.34 11.38-3.34ZM16.96-3.34C17.25-3.34 17.43-3.56 17.43-3.84L17.43-12.87C17.43-13.20 17.23-13.38 16.91-13.38C16.64-13.38 16.48-13.28 16.27-13.13L14.27-11.67C14.12-11.57 14.03-11.45 14.03-11.26C14.03-11.04 14.19-10.88 14.40-10.88C14.51-10.88 14.60-10.90 14.70-10.96L16.48-12.27L16.48-3.84C16.48-3.55 16.65-3.34 16.96-3.34Z" fill="currentColor"/>
</svg>