<svg xmlns="http://www.w3.org/2000/svg" viewBox="0 0 24 24" width="24" height="24">
  <title>15.arrow.trianglehead.clockwise</title>
  <path transform="matrix(0.793739053670674, 0, 0, 0.793739053670674, 1.214760553931877, 19.600179579917572)" d="M13.59 3.02C19.93 3.02 25.08-2.11 25.08-8.46C25.08-12.62 22.86-16.28 19.52-18.28C19.29-18.43 18.98-18.38 18.87-18.16C18.75-17.94 18.81-17.68 19.03-17.54C22.13-15.70 24.19-12.32 24.19-8.46C24.19-2.60 19.45 2.13 13.59 2.13C7.73 2.13 2.99-2.60 2.99-8.46C2.99-13.63 6.68-17.93 11.58-18.87L11.58-16.61C11.58-16.14 11.91-15.97 12.33-16.27L15.86-18.74C16.21-18.98 16.21-19.31 15.86-19.56L12.33-22.02C11.91-22.32 11.58-22.16 11.58-21.68L11.58-19.78C6.19-18.82 2.10-14.12 2.10-8.46C2.10-2.11 7.24 3.02 13.59 3.02ZM10.63-3.76C10.90-3.76 11.06-3.97 11.06-4.23L11.06-12.49C11.06-12.80 10.88-12.96 10.58-12.96C10.34-12.96 10.18-12.87 10.00-12.73L8.17-11.40C8.04-11.31 7.95-11.19 7.95-11.02C7.95-10.83 8.10-10.66 8.29-10.66C8.39-10.66 8.47-10.69 8.55-10.75L10.18-11.95L10.18-4.23C10.18-3.96 10.35-3.76 10.63-3.76ZM15.96-3.70C17.72-3.70 18.83-5.04 18.83-6.79C18.83-8.41 17.81-9.75 16.21-9.75C15.39-9.75 14.63-9.36 14.20-8.68L14.53-12.08L17.99-12.08C18.21-12.08 18.38-12.25 18.38-12.47C18.38-12.70 18.21-12.86 17.99-12.86L14.38-12.86C13.99-12.86 13.80-12.67 13.77-12.27L13.41-8.31C13.38-7.99 13.55-7.78 13.83-7.78C14.09-7.78 14.21-7.96 14.36-8.12C14.74-8.68 15.34-9.02 16.02-9.02C17.23-9.02 17.98-7.99 17.98-6.76C17.98-5.54 17.25-4.46 15.97-4.46C14.99-4.46 14.29-5.11 14.06-5.95C13.98-6.19 13.84-6.32 13.65-6.32C13.42-6.32 13.27-6.16 13.27-5.92C13.27-5.81 13.29-5.68 13.32-5.57C13.65-4.42 14.75-3.70 15.96-3.70Z" fill="currentColor"/>
</svg>