<svg xmlns="http://www.w3.org/2000/svg" viewBox="0 0 24 24" width="24" height="24">
  <title>15.calendar</title>
  <path transform="matrix(0.86941755815928, 0, 0, 0.86941755815928, -0.5980641874681609, 19.335710646968927)" d="M6.15 1.93L22.84 1.93C24.91 1.93 25.99 0.83 25.99-1.21L25.99-15.66C25.99-17.70 24.91-18.81 22.84-18.81L6.15-18.81C4.08-18.81 2.99-17.73 2.99-15.66L2.99-1.21C2.99 0.86 4.08 1.93 6.15 1.93ZM6.14 1.07C4.64 1.07 3.86 0.29 3.86-1.22L3.86-11.50C3.86-13.01 4.64-13.78 6.14-13.78L22.85-13.78C24.29-13.78 25.13-13.01 25.13-11.50L25.13-1.22C25.13 0.29 24.29 1.07 22.85 1.07ZM11.61-1.51C11.85-1.51 12.06-1.72 12.06-1.97L12.06-10.70C12.06-10.99 11.85-11.20 11.55-11.20C11.29-11.20 11.07-11.06 10.91-10.92L9.32-9.61C9.20-9.52 9.13-9.41 9.13-9.26C9.13-9.05 9.27-8.89 9.48-8.89C9.60-8.89 9.66-8.93 9.73-8.98L11.14-10.13L11.14-1.97C11.14-1.72 11.36-1.51 11.61-1.51ZM16.43-1.43C18.09-1.43 18.96-3 18.96-4.68C18.96-6.26 18.20-7.79 16.69-7.79C16.04-7.79 15.34-7.49 14.99-6.70L14.95-6.70L15.22-10.30L18.18-10.30C18.42-10.30 18.56-10.46 18.56-10.70C18.56-10.92 18.41-11.10 18.18-11.10L15.04-11.10C14.64-11.10 14.47-10.84 14.44-10.46L14.17-6.74C14.16-6.55 14.14-6.32 14.14-6.21C14.14-5.94 14.30-5.74 14.59-5.74C14.84-5.74 14.94-5.88 15.08-6.11C15.39-6.67 15.83-7.05 16.46-7.05C17.57-7.05 18.07-5.75 18.07-4.65C18.07-3.45 17.55-2.20 16.43-2.20C15.57-2.20 14.99-2.93 14.81-3.77C14.74-4.07 14.59-4.16 14.41-4.16C14.17-4.16 14.02-4.00 14.02-3.76C14.02-3.62 14.06-3.42 14.11-3.29C14.40-2.20 15.29-1.43 16.43-1.43Z" fill="currentColor"/>
</svg>