<svg xmlns="http://www.w3.org/2000/svg" viewBox="0 0 24 24" width="24" height="24">
  
  <path transform="matrix(0.8703042665306816, 0, 0, 0.8703042665306816, 0.17440081591024992, 19.36868944416114)" d="M13.59 3.02C19.93 3.02 25.08-2.11 25.08-8.46C25.08-14.81 19.93-19.96 13.59-19.96C7.24-19.96 2.10-14.81 2.10-8.46C2.10-2.11 7.24 3.02 13.59 3.02ZM13.59 2.13C7.73 2.13 2.99-2.60 2.99-8.46C2.99-14.32 7.73-19.07 13.59-19.07C19.45-19.07 24.19-14.32 24.19-8.46C24.19-2.60 19.45 2.13 13.59 2.13ZM15.55-3.53C17.19-3.53 18.07-5.05 18.07-6.80C18.07-8.39 17.31-9.93 15.75-9.93C14.65-9.93 13.93-9.09 13.71-8.00L13.66-8.00L13.66-8.20C13.66-9.79 13.90-12.60 15.56-12.60C16.34-12.60 16.79-12.02 17.03-11.27C17.11-11.05 17.20-10.89 17.46-10.89C17.71-10.89 17.84-11.03 17.84-11.26C17.84-11.37 17.81-11.53 17.75-11.71C17.48-12.71 16.64-13.38 15.57-13.38C13.36-13.38 12.80-10.41 12.80-8.26C12.80-6.08 13.43-3.53 15.55-3.53ZM10.46-3.61C10.70-3.61 10.91-3.82 10.91-4.08L10.91-12.81C10.91-13.10 10.71-13.30 10.41-13.30C10.15-13.30 9.93-13.17 9.76-13.03L8.17-11.72C8.06-11.63 7.99-11.52 7.99-11.36C7.99-11.16 8.12-10.99 8.34-10.99C8.45-10.99 8.51-11.03 8.58-11.09L10.00-12.23L10.00-4.08C10.00-3.82 10.21-3.61 10.46-3.61ZM15.55-4.31C14.40-4.31 13.84-5.67 13.84-6.84C13.84-7.95 14.46-9.16 15.54-9.16C16.66-9.16 17.19-7.92 17.19-6.76C17.19-5.63 16.65-4.31 15.55-4.31Z" fill="currentColor"/>
</svg>