<svg xmlns="http://www.w3.org/2000/svg" viewBox="0 0 24 24" width="24" height="24">
  <title>16.square.fill</title>
  <path transform="matrix(0.9642184557438794, 0, 0, 0.9642184557438794, -0.8813559322033897, 20.15819209039548)" d="M6.15 1.91L20.58 1.91C22.65 1.91 23.73 0.81 23.73-1.24L23.73-15.68C23.73-17.73 22.65-18.83 20.58-18.83L6.15-18.83C4.08-18.83 2.99-17.75 2.99-15.68L2.99-1.24C2.99 0.83 4.08 1.91 6.15 1.91ZM15.35-3.49C13.22-3.49 12.59-6.07 12.59-8.26C12.59-10.42 13.15-13.41 15.38-13.41C16.45-13.41 17.30-12.75 17.58-11.73C17.63-11.54 17.66-11.39 17.66-11.29C17.66-11.05 17.52-10.90 17.27-10.90C17.02-10.90 16.92-11.06 16.84-11.30C16.61-12.04 16.14-12.62 15.36-12.62C13.70-12.62 13.46-9.80 13.46-8.20L13.46-8.00L13.51-8.00C13.73-9.09 14.45-9.94 15.55-9.94C17.12-9.94 17.88-8.39 17.88-6.79C17.88-5.03 17.00-3.49 15.35-3.49ZM10.23-3.57C9.97-3.57 9.75-3.80 9.75-4.05L9.75-12.26L8.33-11.10C8.26-11.04 8.19-11.00 8.09-11.00C7.86-11.00 7.72-11.17 7.72-11.38C7.72-11.54 7.79-11.65 7.91-11.74L9.52-13.05C9.68-13.20 9.90-13.34 10.17-13.34C10.48-13.34 10.69-13.14 10.69-12.83L10.69-4.05C10.69-3.80 10.46-3.57 10.23-3.57ZM15.35-4.29C16.45-4.29 17.00-5.61 17.00-6.75C17.00-7.91 16.46-9.16 15.34-9.16C14.25-9.16 13.64-7.95 13.64-6.83C13.64-5.65 14.20-4.29 15.35-4.29Z" fill="currentColor"/>
</svg>