<svg xmlns="http://www.w3.org/2000/svg" viewBox="0 0 24 24" width="24" height="24">
  <title>18.circle</title>
  <path transform="matrix(0.8703042665306816, 0, 0, 0.8703042665306816, 0.17440081591024992, 19.36868944416114)" d="M13.59 3.02C19.93 3.02 25.08-2.11 25.08-8.46C25.08-14.81 19.93-19.96 13.59-19.96C7.24-19.96 2.10-14.81 2.10-8.46C2.10-2.11 7.24 3.02 13.59 3.02ZM13.59 2.13C7.73 2.13 2.99-2.60 2.99-8.46C2.99-14.32 7.73-19.07 13.59-19.07C19.45-19.07 24.19-14.32 24.19-8.46C24.19-2.60 19.45 2.13 13.59 2.13ZM15.63-3.56C17.25-3.56 18.32-4.72 18.32-6.29C18.32-7.45 17.61-8.51 16.65-8.72L16.65-8.74C17.51-9.05 18.06-9.89 18.06-10.86C18.06-12.25 17.14-13.35 15.63-13.35C14.23-13.35 13.23-12.32 13.23-10.86C13.23-9.84 13.76-9.05 14.65-8.74L14.65-8.72C13.65-8.50 12.96-7.46 12.96-6.29C12.96-4.75 14.00-3.56 15.63-3.56ZM10.65-3.61C10.89-3.61 11.10-3.82 11.10-4.08L11.10-12.81C11.10-13.10 10.90-13.30 10.59-13.30C10.34-13.30 10.11-13.17 9.95-13.03L8.36-11.72C8.24-11.63 8.18-11.52 8.18-11.36C8.18-11.16 8.31-10.99 8.52-10.99C8.64-10.99 8.70-11.03 8.77-11.09L10.18-12.23L10.18-4.08C10.18-3.82 10.39-3.61 10.65-3.61ZM15.64-9.07C14.81-9.07 14.11-9.74 14.11-10.79C14.11-11.81 14.73-12.60 15.64-12.60C16.65-12.60 17.18-11.71 17.18-10.79C17.18-9.80 16.54-9.07 15.64-9.07ZM15.64-4.31C14.54-4.31 13.89-5.24 13.89-6.34C13.89-7.45 14.55-8.31 15.64-8.31C16.64-8.31 17.39-7.56 17.39-6.34C17.39-5.25 16.75-4.31 15.64-4.31Z" fill="currentColor"/>
</svg>