<svg xmlns="http://www.w3.org/2000/svg" viewBox="0 0 24 24" width="24" height="24">
  <title>18.square.fill</title>
  <path transform="matrix(0.9642184557438794, 0, 0, 0.9642184557438794, -0.8813559322033897, 20.15819209039548)" d="M6.15 1.91L20.58 1.91C22.65 1.91 23.73 0.81 23.73-1.24L23.73-15.68C23.73-17.73 22.65-18.83 20.58-18.83L6.15-18.83C4.08-18.83 2.99-17.75 2.99-15.68L2.99-1.24C2.99 0.83 4.08 1.91 6.15 1.91ZM15.43-3.53C13.79-3.53 12.74-4.72 12.74-6.28C12.74-7.46 13.44-8.50 14.44-8.73L14.44-8.74C13.55-9.05 13.02-9.86 13.02-10.89C13.02-12.34 14.02-13.38 15.43-13.38C16.95-13.38 17.88-12.27 17.88-10.88C17.88-9.89 17.33-9.05 16.46-8.74L16.46-8.73C17.43-8.51 18.14-7.45 18.14-6.28C18.14-4.70 17.06-3.53 15.43-3.53ZM10.42-3.57C10.15-3.57 9.94-3.80 9.94-4.05L9.94-12.26L8.52-11.10C8.44-11.04 8.38-11.00 8.27-11.00C8.05-11.00 7.91-11.17 7.91-11.38C7.91-11.54 7.98-11.65 8.10-11.74L9.70-13.05C9.87-13.20 10.09-13.34 10.36-13.34C10.65-13.34 10.88-13.14 10.88-12.83L10.88-4.05C10.88-3.80 10.65-3.57 10.42-3.57ZM15.45-9.07C16.34-9.07 16.99-9.81 16.99-10.82C16.99-11.73 16.46-12.62 15.45-12.62C14.52-12.62 13.90-11.84 13.90-10.82C13.90-9.75 14.61-9.07 15.45-9.07ZM15.45-4.29C16.56-4.29 17.20-5.24 17.20-6.33C17.20-7.55 16.44-8.31 15.45-8.31C14.36-8.31 13.69-7.44 13.69-6.33C13.69-5.23 14.34-4.29 15.45-4.29Z" fill="currentColor"/>
</svg>