<svg xmlns="http://www.w3.org/2000/svg" viewBox="0 0 24 24" width="24" height="24">
  <title>33.circle</title>
  <path transform="matrix(0.8703042665306816, 0, 0, 0.8703042665306816, 0.17440081591024992, 19.36868944416114)" d="M13.59 3.02C19.93 3.02 25.08-2.11 25.08-8.46C25.08-14.81 19.93-19.96 13.59-19.96C7.24-19.96 2.10-14.81 2.10-8.46C2.10-2.11 7.24 3.02 13.59 3.02ZM13.59 2.13C7.73 2.13 2.99-2.60 2.99-8.46C2.99-14.32 7.73-19.07 13.59-19.07C19.45-19.07 24.19-14.32 24.19-8.46C24.19-2.60 19.45 2.13 13.59 2.13ZM10.30-3.56C11.79-3.56 12.89-4.63 12.89-6.33C12.89-7.61 12.22-8.54 11.06-8.65L11.06-8.67C12.12-8.95 12.62-9.93 12.62-10.92C12.62-12.38 11.67-13.36 10.27-13.36C9.09-13.36 8.31-12.68 7.99-11.64C7.92-11.39 7.90-11.18 7.90-11.05C7.90-10.82 8.04-10.64 8.29-10.64C8.55-10.64 8.64-10.78 8.70-11.04C8.85-11.88 9.34-12.60 10.27-12.60C11.24-12.60 11.77-11.80 11.77-10.83C11.77-9.80 11.12-8.99 10.09-8.99L9.60-8.99C9.35-8.99 9.25-8.82 9.25-8.63C9.25-8.41 9.39-8.26 9.60-8.26L10.10-8.26C11.29-8.26 12-7.61 12-6.32C12-5.27 11.46-4.35 10.31-4.35C9.26-4.35 8.67-5.14 8.55-5.91C8.51-6.16 8.39-6.30 8.13-6.30C7.90-6.30 7.73-6.14 7.73-5.88C7.73-5.73 7.78-5.47 7.84-5.29C8.16-4.25 9.08-3.56 10.30-3.56ZM16.86-3.56C18.35-3.56 19.45-4.63 19.45-6.33C19.45-7.61 18.79-8.54 17.63-8.65L17.63-8.67C18.68-8.95 19.18-9.93 19.18-10.92C19.18-12.38 18.23-13.36 16.82-13.36C15.66-13.36 14.87-12.68 14.55-11.64C14.47-11.39 14.46-11.18 14.46-11.05C14.46-10.82 14.60-10.64 14.85-10.64C15.11-10.64 15.20-10.78 15.26-11.04C15.41-11.88 15.90-12.60 16.82-12.60C17.80-12.60 18.33-11.80 18.33-10.83C18.33-9.80 17.68-8.99 16.64-8.99L16.16-8.99C15.91-8.99 15.80-8.82 15.80-8.63C15.80-8.41 15.95-8.26 16.16-8.26L16.66-8.26C17.85-8.26 18.55-7.61 18.55-6.32C18.55-5.27 18.01-4.35 16.88-4.35C15.81-4.35 15.23-5.14 15.12-5.91C15.07-6.16 14.95-6.30 14.70-6.30C14.46-6.30 14.30-6.14 14.30-5.88C14.30-5.73 14.34-5.47 14.40-5.29C14.72-4.25 15.64-3.56 16.86-3.56Z" fill="currentColor"/>
</svg>