<svg xmlns="http://www.w3.org/2000/svg" viewBox="0 0 24 24" width="24" height="24">
  
  <path transform="matrix(0.9642184557438794, 0, 0, 0.9642184557438794, -0.8813559322033897, 20.15819209039548)" d="M6.15 1.91L20.58 1.91C22.65 1.91 23.73 0.81 23.73-1.24L23.73-15.68C23.73-17.73 22.65-18.83 20.58-18.83L6.15-18.83C4.08-18.83 2.99-17.75 2.99-15.68L2.99-1.24C2.99 0.83 4.08 1.91 6.15 1.91ZM10.07-3.53C8.84-3.53 7.90-4.23 7.57-5.26C7.51-5.45 7.48-5.71 7.48-5.87C7.48-6.13 7.64-6.29 7.88-6.29C8.13-6.29 8.25-6.15 8.30-5.89C8.43-5.13 9-4.32 10.08-4.32C11.21-4.32 11.75-5.26 11.75-6.29C11.75-7.59 11.05-8.25 9.86-8.25L9.35-8.25C9.14-8.25 8.99-8.41 8.99-8.63C8.99-8.82 9.11-9 9.35-9L9.84-9C10.89-9 11.53-9.81 11.53-10.84C11.53-11.82 11.00-12.61 10.02-12.61C9.09-12.61 8.60-11.91 8.44-11.06C8.38-10.79 8.30-10.65 8.03-10.65C7.77-10.65 7.64-10.83 7.64-11.06C7.64-11.20 7.65-11.41 7.72-11.66C8.05-12.70 8.85-13.39 10.02-13.39C11.44-13.39 12.40-12.40 12.40-10.95C12.40-9.94 11.89-8.95 10.83-8.67L10.83-8.65C12-8.54 12.67-7.61 12.67-6.30C12.67-4.61 11.57-3.53 10.07-3.53ZM16.68-3.53C15.43-3.53 14.51-4.23 14.19-5.26C14.12-5.45 14.09-5.71 14.09-5.87C14.09-6.13 14.25-6.29 14.48-6.29C14.74-6.29 14.86-6.15 14.91-5.89C15.04-5.13 15.61-4.32 16.69-4.32C17.82-4.32 18.36-5.26 18.36-6.29C18.36-7.59 17.66-8.25 16.46-8.25L15.96-8.25C15.75-8.25 15.60-8.41 15.60-8.63C15.60-8.82 15.71-9 15.96-9L16.45-9C17.48-9 18.13-9.81 18.13-10.84C18.13-11.82 17.60-12.61 16.63-12.61C15.70-12.61 15.21-11.91 15.05-11.06C14.99-10.79 14.91-10.65 14.64-10.65C14.39-10.65 14.25-10.83 14.25-11.06C14.25-11.20 14.26-11.41 14.33-11.66C14.66-12.70 15.46-13.39 16.63-13.39C18.05-13.39 19.01-12.40 19.01-10.95C19.01-9.94 18.50-8.95 17.44-8.67L17.44-8.65C18.60-8.54 19.28-7.61 19.28-6.30C19.28-4.61 18.16-3.53 16.68-3.53Z" fill="currentColor"/>
</svg>