<svg xmlns="http://www.w3.org/2000/svg" viewBox="0 0 24 24" width="24" height="24">
  <title>38.square</title>
  <path transform="matrix(0.9642184557438794, 0, 0, 0.9642184557438794, -0.8813559322033897, 20.15819209039548)" d="M6.15 1.91L20.58 1.91C22.65 1.91 23.73 0.81 23.73-1.24L23.73-15.68C23.73-17.73 22.65-18.83 20.58-18.83L6.15-18.83C4.08-18.83 2.99-17.75 2.99-15.68L2.99-1.24C2.99 0.83 4.08 1.91 6.15 1.91ZM6.18 1.04C4.65 1.04 3.86 0.25 3.86-1.28L3.86-15.63C3.86-17.17 4.65-17.96 6.18-17.96L20.54-17.96C22.02-17.96 22.86-17.17 22.86-15.63L22.86-1.28C22.86 0.25 22.02 1.04 20.54 1.04ZM9.87-3.56C11.36-3.56 12.46-4.63 12.46-6.33C12.46-7.61 11.79-8.54 10.62-8.65L10.62-8.67C11.68-8.95 12.18-9.93 12.18-10.92C12.18-12.38 11.23-13.36 9.82-13.36C8.66-13.36 7.88-12.68 7.55-11.64C7.48-11.39 7.46-11.18 7.46-11.05C7.46-10.82 7.59-10.64 7.85-10.64C8.11-10.64 8.19-10.78 8.25-11.04C8.41-11.88 8.91-12.60 9.82-12.60C10.79-12.60 11.32-11.80 11.32-10.83C11.32-9.80 10.68-8.99 9.64-8.99L9.16-8.99C8.92-8.99 8.80-8.82 8.80-8.63C8.80-8.41 8.95-8.26 9.16-8.26L9.66-8.26C10.85-8.26 11.55-7.61 11.55-6.32C11.55-5.27 11.02-4.35 9.88-4.35C8.81-4.35 8.24-5.14 8.11-5.91C8.06-6.16 7.96-6.30 7.70-6.30C7.45-6.30 7.30-6.14 7.30-5.88C7.30-5.73 7.34-5.47 7.41-5.29C7.72-4.25 8.65-3.56 9.87-3.56ZM16.51-3.56C18.14-3.56 19.20-4.72 19.20-6.29C19.20-7.45 18.49-8.51 17.53-8.72L17.53-8.74C18.40-9.05 18.95-9.89 18.95-10.86C18.95-12.25 18.02-13.35 16.51-13.35C15.12-13.35 14.12-12.32 14.12-10.86C14.12-9.84 14.64-9.05 15.53-8.74L15.53-8.72C14.54-8.50 13.85-7.46 13.85-6.29C13.85-4.75 14.89-3.56 16.51-3.56ZM16.52-9.07C15.70-9.07 14.99-9.74 14.99-10.79C14.99-11.81 15.61-12.60 16.52-12.60C17.54-12.60 18.07-11.71 18.07-10.79C18.07-9.80 17.41-9.07 16.52-9.07ZM16.52-4.31C15.43-4.31 14.78-5.24 14.78-6.34C14.78-7.45 15.45-8.31 16.52-8.31C17.52-8.31 18.27-7.56 18.27-6.34C18.27-5.25 17.64-4.31 16.52-4.31Z" fill="currentColor"/>
</svg>