<svg xmlns="http://www.w3.org/2000/svg" viewBox="0 0 24 24" width="24" height="24">
  <title>38.square.fill</title>
  <path transform="matrix(0.9642184557438794, 0, 0, 0.9642184557438794, -0.8813559322033897, 20.15819209039548)" d="M6.15 1.91L20.58 1.91C22.65 1.91 23.73 0.81 23.73-1.24L23.73-15.68C23.73-17.73 22.65-18.83 20.58-18.83L6.15-18.83C4.08-18.83 2.99-17.75 2.99-15.68L2.99-1.24C2.99 0.83 4.08 1.91 6.15 1.91ZM9.84-3.53C8.61-3.53 7.68-4.23 7.36-5.26C7.30-5.45 7.25-5.71 7.25-5.87C7.25-6.13 7.42-6.29 7.65-6.29C7.92-6.29 8.03-6.15 8.07-5.89C8.20-5.13 8.79-4.32 9.86-4.32C11.00-4.32 11.54-5.26 11.54-6.29C11.54-7.59 10.83-8.25 9.63-8.25L9.14-8.25C8.92-8.25 8.77-8.41 8.77-8.63C8.77-8.82 8.88-9 9.14-9L9.62-9C10.66-9 11.31-9.81 11.31-10.84C11.31-11.82 10.78-12.61 9.80-12.61C8.87-12.61 8.38-11.91 8.23-11.06C8.16-10.79 8.07-10.65 7.80-10.65C7.56-10.65 7.42-10.83 7.42-11.06C7.42-11.20 7.43-11.41 7.51-11.66C7.83-12.70 8.63-13.39 9.80-13.39C11.21-13.39 12.18-12.40 12.18-10.95C12.18-9.94 11.67-8.95 10.61-8.67L10.61-8.65C11.78-8.54 12.45-7.61 12.45-6.30C12.45-4.61 11.34-3.53 9.84-3.53ZM16.54-3.53C14.91-3.53 13.85-4.72 13.85-6.28C13.85-7.46 14.54-8.50 15.54-8.73L15.54-8.74C14.65-9.05 14.12-9.86 14.12-10.89C14.12-12.34 15.13-13.38 16.54-13.38C18.06-13.38 18.98-12.27 18.98-10.88C18.98-9.89 18.43-9.05 17.57-8.74L17.57-8.73C18.54-8.51 19.24-7.45 19.24-6.28C19.24-4.70 18.18-3.53 16.54-3.53ZM16.56-9.07C17.45-9.07 18.09-9.81 18.09-10.82C18.09-11.73 17.57-12.62 16.56-12.62C15.63-12.62 15.01-11.84 15.01-10.82C15.01-9.75 15.71-9.07 16.56-9.07ZM16.56-4.29C17.66-4.29 18.30-5.24 18.30-6.33C18.30-7.55 17.54-8.31 16.56-8.31C15.46-8.31 14.79-7.44 14.79-6.33C14.79-5.23 15.45-4.29 16.56-4.29Z" fill="currentColor"/>
</svg>