<svg xmlns="http://www.w3.org/2000/svg" viewBox="0 0 24 24" width="24" height="24">
  <title>45.square</title>
  <path transform="matrix(0.9642184557438794, 0, 0, 0.9642184557438794, -0.8813559322033897, 20.15819209039548)" d="M6.15 1.91L20.58 1.91C22.65 1.91 23.73 0.81 23.73-1.24L23.73-15.68C23.73-17.73 22.65-18.83 20.58-18.83L6.15-18.83C4.08-18.83 2.99-17.75 2.99-15.68L2.99-1.24C2.99 0.83 4.08 1.91 6.15 1.91ZM6.18 1.04C4.65 1.04 3.86 0.25 3.86-1.28L3.86-15.63C3.86-17.17 4.65-17.96 6.18-17.96L20.54-17.96C22.02-17.96 22.86-17.17 22.86-15.63L22.86-1.28C22.86 0.25 22.02 1.04 20.54 1.04ZM11.12-3.61C11.36-3.61 11.54-3.81 11.54-4.07L11.54-5.92L12.26-5.92C12.50-5.92 12.64-6.07 12.64-6.32C12.64-6.53 12.49-6.69 12.26-6.69L11.54-6.69L11.54-12.64C11.54-13.16 11.21-13.35 10.86-13.35C10.42-13.35 10.21-13.10 10.01-12.68L7.22-7.13C7.11-6.88 7.07-6.69 7.07-6.48C7.07-6.15 7.29-5.92 7.65-5.92L10.68-5.92L10.68-4.07C10.68-3.77 10.88-3.61 11.12-3.61ZM16.51-3.53C18.16-3.53 19.04-5.10 19.04-6.79C19.04-8.36 18.27-9.90 16.76-9.90C16.13-9.90 15.41-9.60 15.06-8.80L15.02-8.80L15.29-12.40L18.26-12.40C18.49-12.40 18.64-12.57 18.64-12.81C18.64-13.03 18.48-13.21 18.26-13.21L15.11-13.21C14.71-13.21 14.54-12.94 14.51-12.56L14.25-8.85C14.24-8.65 14.21-8.43 14.21-8.32C14.21-8.05 14.38-7.85 14.67-7.85C14.91-7.85 15.02-7.99 15.15-8.21C15.46-8.77 15.91-9.15 16.55-9.15C17.65-9.15 18.15-7.86 18.15-6.76C18.15-5.55 17.63-4.31 16.50-4.31C15.64-4.31 15.06-5.04 14.88-5.88C14.81-6.18 14.67-6.27 14.48-6.27C14.24-6.27 14.09-6.11 14.09-5.86C14.09-5.72 14.13-5.53 14.18-5.39C14.48-4.31 15.36-3.53 16.51-3.53ZM10.69-6.68L7.89-6.68L7.89-6.73L10.64-12.36L10.69-12.36Z" fill="currentColor"/>
</svg>