<svg xmlns="http://www.w3.org/2000/svg" viewBox="0 0 24 24" width="24" height="24">
  
  <path transform="matrix(0.8703042665306816, 0, 0, 0.8703042665306816, 0.17440081591024992, 19.36868944416114)" d="M13.59 3.02C19.91 3.02 25.08-2.13 25.08-8.46C25.08-14.79 19.91-19.96 13.59-19.96C7.27-19.96 2.10-14.79 2.10-8.46C2.10-2.13 7.27 3.02 13.59 3.02ZM16.75-3.49C14.60-3.49 13.97-6.07 13.97-8.26C13.97-10.42 14.53-13.41 16.77-13.41C17.84-13.41 18.69-12.75 18.96-11.73C19.02-11.54 19.04-11.39 19.04-11.29C19.04-11.05 18.91-10.90 18.67-10.90C18.40-10.90 18.30-11.06 18.22-11.30C17.99-12.04 17.53-12.62 16.75-12.62C15.08-12.62 14.85-9.80 14.85-8.20L14.85-8.00L14.89-8.00C15.12-9.09 15.84-9.94 16.95-9.94C18.50-9.94 19.28-8.39 19.28-6.79C19.28-5.03 18.40-3.49 16.75-3.49ZM11.06-3.57C10.82-3.57 10.62-3.74 10.62-4.04L10.62-5.89L7.58-5.89C7.21-5.89 6.98-6.14 6.98-6.47C6.98-6.68 7.03-6.87 7.14-7.11L9.94-12.70C10.14-13.13 10.35-13.38 10.80-13.38C11.16-13.38 11.50-13.20 11.50-12.67L11.50-6.68L12.21-6.68C12.45-6.68 12.61-6.52 12.61-6.29C12.61-6.06 12.47-5.89 12.21-5.89L11.50-5.89L11.50-4.04C11.50-3.77 11.30-3.57 11.06-3.57ZM10.62-6.67L10.62-12.39L10.58-12.39L7.82-6.71L7.82-6.67ZM16.73-4.29C17.85-4.29 18.39-5.61 18.39-6.75C18.40-7.91 17.86-9.16 16.72-9.16C15.64-9.16 15.02-7.95 15.02-6.83C15.02-5.65 15.59-4.29 16.73-4.29Z" fill="currentColor"/>
</svg>