<svg xmlns="http://www.w3.org/2000/svg" viewBox="0 0 24 24" width="24" height="24">
  
  <path transform="matrix(0.8685326547921968, 0, 0, 0.8685326547921968, -0.5954198473282442, 19.326483160267195)" d="M24.80 2.48C24.96 2.66 25.23 2.66 25.41 2.48C25.58 2.32 25.57 2.05 25.41 1.88L4.22-19.36C4.07-19.51 3.80-19.55 3.60-19.36C3.43-19.20 3.43-18.91 3.60-18.75ZM16.23-9.29L18.11-16.57C18.19-16.84 18.07-17.09 17.80-17.16C17.54-17.23 17.32-17.07 17.25-16.83L15.50-10.02ZM22.37-16.32C24.36-16.32 25.00-13.80 25.20-12C25.24-11.74 25.38-11.59 25.63-11.59C25.86-11.59 26.02-11.77 26.02-12.01C26.00-12.19 25.98-12.38 25.96-12.54C25.70-14.74 24.79-17.16 22.37-17.16C18.98-17.16 18.27-12.23 18.27-8.54C18.28-8.11 18.28-7.66 18.29-7.23L19.29-6.23C19.20-7.04 19.16-7.85 19.16-8.54C19.16-12.57 19.90-16.32 22.37-16.32ZM3.43 0.25C3.71 0.25 3.87 0.09 3.93-0.18L5.07-5.07L10.05-5.07L11.20-0.18C11.27 0.11 11.43 0.25 11.68 0.25C11.94 0.25 12.15 0.06 12.15-0.20C12.15-0.27 12.13-0.38 12.11-0.45L9.68-10.68L8.51-11.85L9.88-5.92L5.26-5.92L6.98-13.38L6.27-14.10L3.05-0.49C3.01-0.38 2.99-0.27 2.99-0.19C2.99 0.06 3.18 0.25 3.43 0.25ZM13.29 0.23C13.56 0.30 13.77 0.15 13.84-0.09L15.15-5.20L14.43-5.93L12.98-0.34C12.91-0.07 13.03 0.18 13.29 0.23ZM24.73-0.80C25.43-1.65 25.77-2.93 25.97-4.27C25.99-4.39 26.02-4.55 26.02-4.68C26.02-4.93 25.91-5.11 25.62-5.11C25.42-5.11 25.24-4.97 25.22-4.76C25.10-3.59 24.84-2.23 24.09-1.42Z" fill="currentColor"/>
</svg>