<svg xmlns="http://www.w3.org/2000/svg" viewBox="0 0 24 24" width="24" height="24">
  <title>air.pickup.side.fill</title>
  <path transform="matrix(0.4605144810217665, 0, 0, 0.4605144810217665, 0.6238532110091743, 15.920669185105234)" d="M5.40-2.26L7.23-2.26C7.18-2.53 7.15-2.81 7.15-3.11C7.15-5.50 9.05-7.39 11.44-7.39C13.83-7.39 15.73-5.50 15.73-3.11C15.73-2.81 15.69-2.53 15.63-2.26L31.57-2.26C31.51-2.53 31.48-2.81 31.48-3.11C31.48-5.50 33.39-7.39 35.78-7.39C38.17-7.39 40.07-5.50 40.07-3.11C40.07-2.81 40.03-2.53 39.97-2.26L44.00-2.26C45.59-2.26 46.42-3.12 46.42-4.75L46.42-9.21C46.42-10.84 45.59-11.70 44.00-11.70L33.70-11.70L33.40-14.37C33.19-16.21 32.06-17.21 30.25-17.21L25.50-17.21C21.68-17.21 19.86-16.78 17.46-15.27L12.53-12.16L8.18-11.60C4.69-11.14 2.99-9.59 2.99-6.87L2.99-4.75C2.99-3.12 3.82-2.26 5.40-2.26ZM18.49-6.38C18.28-6.38 18.12-6.50 18.12-6.74C18.12-6.82 18.14-6.90 18.16-6.97L19.68-12.63C19.76-12.97 19.95-13.14 20.26-13.14C20.58-13.14 20.75-12.97 20.84-12.63L22.36-6.97C22.37-6.89 22.41-6.81 22.41-6.74C22.41-6.53 22.24-6.38 22.02-6.38C21.82-6.38 21.69-6.48 21.63-6.71L21.23-8.24L19.27-8.24L18.88-6.71C18.83-6.48 18.69-6.38 18.49-6.38ZM23.79-6.38C23.54-6.38 23.39-6.54 23.39-6.80L23.39-12.73C23.39-12.97 23.54-13.14 23.79-13.14C24.04-13.14 24.19-12.97 24.19-12.73L24.19-6.80C24.19-6.54 24.04-6.38 23.79-6.38ZM25.89-6.39C25.65-6.39 25.50-6.55 25.50-6.80L25.50-12.64C25.50-12.89 25.64-13.05 25.89-13.05L27.21-13.05C28.43-13.05 29.11-12.28 29.11-11.11C29.11-10.38 28.82-9.66 28.05-9.34L29.04-7.01C29.07-6.91 29.12-6.81 29.12-6.75C29.12-6.53 28.95-6.39 28.71-6.39C28.52-6.39 28.42-6.48 28.35-6.67L27.30-9.16L26.29-9.16L26.29-6.80C26.29-6.54 26.13-6.39 25.89-6.39ZM26.29-9.80L27.15-9.81C27.91-9.82 28.31-10.32 28.31-11.10C28.31-11.86 27.89-12.40 27.14-12.40L26.29-12.40ZM19.42-8.87L21.09-8.87L20.26-12.15L20.23-12.15ZM11.44 0.19C13.28 0.19 14.73-1.27 14.73-3.11C14.73-4.95 13.28-6.40 11.44-6.40C9.59-6.40 8.14-4.95 8.14-3.11C8.14-1.27 9.59 0.19 11.44 0.19ZM35.78 0.19C37.62 0.19 39.07-1.27 39.07-3.11C39.07-4.95 37.62-6.40 35.78-6.40C33.94-6.40 32.47-4.95 32.47-3.11C32.47-1.27 33.93 0.19 35.78 0.19Z" fill="currentColor"/>
</svg>