<svg xmlns="http://www.w3.org/2000/svg" viewBox="0 0 24 24" width="24" height="24">
  <title>ant.circle.fill</title>
  <path transform="matrix(0.8703042665306816, 0, 0, 0.8703042665306816, 0.17440081591024992, 19.34829168791433)" d="M13.59 3.05C19.91 3.05 25.08-2.12 25.08-8.45C25.08-14.78 19.91-19.93 13.59-19.93C7.27-19.93 2.10-14.78 2.10-8.45C2.10-2.12 7.27 3.05 13.59 3.05ZM8.81-5.50C8.68-6.27 9.01-6.71 9.83-6.90L12.02-7.42C11.77-7.62 11.57-7.96 11.52-8.34L10.18-8.53C9.33-8.66 8.98-9.02 8.98-9.80L8.98-11.82C8.98-12.05 9.12-12.18 9.33-12.18C9.54-12.18 9.67-12.04 9.67-11.82L9.67-9.88C9.67-9.45 9.84-9.26 10.31-9.20L11.58-9.01C11.64-9.21 11.73-9.38 11.85-9.48C10.89-9.71 10.37-10.35 10.37-11.30C10.37-12.19 10.73-13.04 11.39-13.65L11.36-13.69C10.78-14.14 10.72-14.70 11.19-15.34L11.86-16.22C11.93-16.36 12.04-16.43 12.18-16.43C12.35-16.43 12.49-16.29 12.49-16.13C12.49-16.04 12.47-15.96 12.40-15.88L11.71-14.98C11.47-14.64 11.44-14.40 11.77-14.17L11.88-14.09C12.40-14.39 13.01-14.58 13.59-14.58C14.17-14.58 14.78-14.39 15.30-14.09L15.42-14.17C15.74-14.40 15.71-14.64 15.47-14.98L14.78-15.88C14.72-15.96 14.68-16.04 14.68-16.13C14.68-16.30 14.82-16.43 15-16.43C15.15-16.43 15.25-16.36 15.33-16.22L16.00-15.34C16.46-14.70 16.39-14.14 15.83-13.69L15.80-13.65C16.44-13.04 16.82-12.19 16.82-11.30C16.82-10.32 16.29-9.69 15.34-9.47C15.45-9.36 15.55-9.20 15.61-9.01L16.88-9.20C17.33-9.26 17.52-9.45 17.52-9.88L17.52-11.82C17.52-12.04 17.64-12.18 17.85-12.18C18.08-12.18 18.20-12.04 18.20-11.82L18.20-9.80C18.20-9.02 17.85-8.66 17.00-8.53L15.66-8.34C15.61-7.95 15.41-7.59 15.16-7.42L17.34-6.90C18.18-6.70 18.49-6.27 18.36-5.50L17.86-2.19C17.82-1.98 17.71-1.86 17.51-1.86C17.30-1.86 17.13-2.04 17.17-2.26L17.67-5.44C17.74-5.91 17.61-6.13 17.18-6.23C16.99-6.28 16.79-6.34 16.61-6.38C16.80-6.06 16.89-5.67 16.89-5.21C16.89-3.19 15.32-1.29 13.59-1.29C11.86-1.29 10.29-3.19 10.29-5.21C10.29-5.67 10.38-6.06 10.58-6.38C10.39-6.34 10.20-6.28 10.01-6.23C9.57-6.13 9.43-5.91 9.52-5.44L10.01-2.26C10.04-2.04 9.89-1.86 9.68-1.86C9.48-1.86 9.36-1.98 9.33-2.19Z" fill="currentColor"/>
</svg>