<svg xmlns="http://www.w3.org/2000/svg" viewBox="0 0 24 24" width="24" height="24">
  <title>apple.meditate.square.stack.fill</title>
  <path transform="matrix(0.7997500781005936, 0, 0, 0.7997500781005936, 1.873477038425491, 18.757263355201502)" d="M6.86-20.16L18.47-20.16C18.45-20.61 18.15-20.95 17.66-20.95L7.66-20.95C7.17-20.95 6.88-20.61 6.86-20.16ZM5.07-17.46L20.25-17.46C20.21-17.94 19.93-18.28 19.42-18.28L5.91-18.28C5.39-18.28 5.11-17.94 5.07-17.46ZM6.15 4.05L19.25 4.05C21.26 4.05 22.34 2.94 22.34 0.90L22.34-12.14C22.34-14.19 21.25-15.29 19.17-15.29L6.15-15.29C4.08-15.29 2.99-14.21 2.99-12.14L2.99 0.90C2.99 2.98 4.08 4.05 6.15 4.05ZM12.38-1.34C12.18-1.34 11.98-1.54 11.98-1.72L11.98-4.77C8.25-4.97 7.13-8.17 6.96-9.98C6.95-10.23 7.10-10.35 7.29-10.35C8.92-10.36 11.40-9.52 12.34-6.91C13.31-10.08 15.70-11.98 18.74-11.85C19.05-11.85 19.20-11.64 19.20-11.41C19.31-7.56 16.73-4.92 12.75-4.77L12.75-1.72C12.75-1.55 12.60-1.34 12.38-1.34ZM12.77-5.50C16.25-5.66 18.46-7.84 18.47-11.11C15.53-11.13 13.34-9 12.77-5.50ZM11.96-5.51C11.55-8.57 9.16-9.47 7.75-9.59C7.99-7.97 9.05-5.68 11.96-5.51ZM10.50-1.05C10.27-1.05 10.04-1.27 10.04-1.50C10.04-1.75 10.27-1.95 10.50-1.95C10.75-1.95 10.96-1.75 10.96-1.50C10.96-1.27 10.75-1.05 10.50-1.05ZM14.25-1.05C13.99-1.05 13.79-1.27 13.79-1.50C13.79-1.75 13.99-1.95 14.25-1.95C14.47-1.95 14.70-1.75 14.70-1.50C14.70-1.27 14.47-1.05 14.25-1.05ZM8.67-0.40C8.45-0.40 8.23-0.63 8.23-0.86C8.23-1.10 8.45-1.31 8.67-1.31C8.93-1.31 9.14-1.10 9.14-0.86C9.14-0.63 8.93-0.40 8.67-0.40ZM16.05-0.40C15.82-0.40 15.61-0.63 15.61-0.86C15.61-1.10 15.82-1.31 16.05-1.31C16.29-1.31 16.51-1.10 16.51-0.86C16.51-0.63 16.29-0.40 16.05-0.40ZM7.09 0.70C6.84 0.70 6.66 0.49 6.66 0.25C6.66 0.02 6.84-0.19 7.09-0.19C7.32-0.19 7.55 0.02 7.55 0.25C7.55 0.49 7.32 0.70 7.09 0.70ZM17.66 0.70C17.41 0.70 17.21 0.49 17.21 0.25C17.21 0.02 17.41-0.19 17.66-0.19C17.91-0.19 18.12 0.02 18.12 0.25C18.12 0.49 17.91 0.70 17.66 0.70Z" fill="currentColor"/>
</svg>