<svg xmlns="http://www.w3.org/2000/svg" viewBox="0 0 24 24" width="24" height="24">
  
  <path transform="matrix(0.7099278979478647, 0, 0, 0.7099278979478647, -0.12146422628951736, 17.994176372712147)" d="M6.15-2.00L8.23-2.00L8.23-0.47C8.23 1.61 9.30 2.68 11.38 2.68L28.00 2.68C30.07 2.68 31.16 1.57 31.16-0.47L31.16-11.73C31.16-13.78 30.07-14.88 28.00-14.88L25.93-14.88L25.93-16.42C25.93-18.47 24.84-19.57 22.77-19.57L6.15-19.57C4.08-19.57 2.99-18.49 2.99-16.42L2.99-5.16C2.99-3.08 4.08-2.00 6.15-2.00ZM6.18-2.87C4.65-2.87 3.86-3.67 3.86-5.20L3.86-16.37C3.86-17.91 4.65-18.70 6.18-18.70L22.73-18.70C24.21-18.70 25.05-17.91 25.05-16.37L25.05-14.88L11.38-14.88C9.30-14.88 8.23-13.80 8.23-11.73L8.23-2.87ZM11.41 1.82C9.89 1.82 9.09 1.02 9.09-0.52L9.09-11.70C9.09-13.22 9.89-14.02 11.41-14.02L27.97-14.02C29.45-14.02 30.29-13.22 30.29-11.70L30.29-0.52C30.29 1.02 29.45 1.82 27.97 1.82ZM12.15-7.69C11.66-7.38 12.09-6.68 12.59-7.00L15.53-8.84C15.89-9.07 15.84-9.57 15.53-9.76L12.59-11.61C12.09-11.93 11.64-11.23 12.15-10.92L14.84-9.30ZM15.97-6.79C15.97-6.57 16.15-6.40 16.37-6.40L20.11-6.40C20.33-6.40 20.47-6.57 20.47-6.79C20.47-7.00 20.33-7.17 20.11-7.17L16.37-7.17C16.15-7.17 15.97-7.00 15.97-6.79Z" fill="currentColor"/>
</svg>