<svg xmlns="http://www.w3.org/2000/svg" viewBox="0 0 24 24" width="24" height="24">
  <title>apple.meditate</title>
  <path transform="matrix(0.9226779660349668, 0, 0, 0.9226779660349668, -0.7182987942136454, 19.718534560546352)" d="M13.04-1.38C13.28-1.38 13.46-1.57 13.46-1.79L13.46-7.46C20.32-7.64 24.75-12.07 24.56-18.67C24.56-18.96 24.41-19.18 24.04-19.20C18.64-19.39 14.48-15.89 13.03-10.13C11.70-15.06 7.25-16.63 4.32-16.58C4.10-16.58 3.98-16.45 4.00-16.22C4.31-13.14 6.19-7.69 12.62-7.46L12.62-1.79C12.62-1.57 12.82-1.38 13.04-1.38ZM13.55-8.32C14.48-14.55 18.46-18.45 23.71-18.34C23.79-12.49 19.75-8.53 13.55-8.32ZM12.59-8.32C7.22-8.53 5.29-12.81 4.90-15.71C7.45-15.59 11.91-13.98 12.59-8.32ZM9.75-0.71C10.13-0.71 10.43-1.02 10.43-1.39C10.43-1.77 10.13-2.09 9.75-2.09C9.36-2.09 9.06-1.77 9.06-1.39C9.06-1.02 9.36-0.71 9.75-0.71ZM16.35-0.71C16.72-0.71 17.04-1.02 17.04-1.39C17.04-1.77 16.72-2.09 16.35-2.09C15.97-2.09 15.67-1.77 15.67-1.39C15.67-1.02 15.97-0.71 16.35-0.71ZM6.52 0.45C6.89 0.45 7.20 0.14 7.20-0.23C7.20-0.61 6.89-0.91 6.52-0.91C6.14-0.91 5.84-0.61 5.84-0.23C5.84 0.14 6.14 0.45 6.52 0.45ZM19.58 0.45C19.96 0.45 20.26 0.14 20.26-0.23C20.26-0.61 19.96-0.91 19.58-0.91C19.21-0.91 18.89-0.61 18.89-0.23C18.89 0.14 19.21 0.45 19.58 0.45ZM3.68 2.47C4.05 2.47 4.37 2.16 4.37 1.78C4.37 1.41 4.05 1.10 3.68 1.10C3.30 1.10 3 1.41 3 1.78C3 2.16 3.30 2.47 3.68 2.47ZM22.42 2.47C22.79 2.47 23.10 2.16 23.10 1.78C23.10 1.41 22.79 1.10 22.42 1.10C22.03 1.10 21.73 1.41 21.73 1.78C21.73 2.16 22.03 2.47 22.42 2.47Z" fill="currentColor"/>
</svg>