<svg xmlns="http://www.w3.org/2000/svg" viewBox="0 0 24 24" width="24" height="24">
  <title>arrow.up.forward.and.arrow.down.backward.circle</title>
  <path transform="matrix(0.8703042665306816, 0, 0, 0.8703042665306816, 0.17440081591024992, 19.36868944416114)" d="M13.59 3.02C19.93 3.02 25.08-2.11 25.08-8.46C25.08-14.81 19.93-19.96 13.59-19.96C7.24-19.96 2.10-14.81 2.10-8.46C2.10-2.11 7.24 3.02 13.59 3.02ZM13.59 2.13C7.73 2.13 2.99-2.60 2.99-8.46C2.99-14.32 7.73-19.07 13.59-19.07C19.45-19.07 24.19-14.32 24.19-8.46C24.19-2.60 19.45 2.13 13.59 2.13ZM18.33-8.92C18.55-8.92 18.74-9.11 18.74-9.33C18.74-9.55 18.55-9.74 18.33-9.74L17.31-9.73L15.35-9.70L19.07-13.36C19.24-13.52 19.24-13.79 19.08-13.96C18.90-14.13 18.63-14.13 18.46-13.96L14.80-10.23L14.84-12.34L14.84-13.22C14.84-13.44 14.66-13.63 14.43-13.63C14.20-13.63 14.02-13.44 14.02-13.22L14.02-9.36C14.02-9.07 14.20-8.92 14.46-8.92ZM12.75-3.33C12.97-3.33 13.16-3.52 13.16-3.75L13.16-7.61C13.16-7.89 12.97-8.04 12.71-8.04L8.85-8.04C8.63-8.04 8.44-7.86 8.44-7.63C8.44-7.41 8.63-7.22 8.85-7.22L9.87-7.23L11.82-7.25L8.10-3.61C7.93-3.45 7.93-3.18 8.10-3C8.26-2.82 8.54-2.82 8.72-3.01L12.38-6.74L12.34-4.62L12.34-3.75C12.34-3.52 12.52-3.33 12.75-3.33Z" fill="currentColor"/>
</svg>