<svg xmlns="http://www.w3.org/2000/svg" viewBox="0 0 24 24" width="24" height="24">
  
  <path transform="matrix(0.9642184557438794, 0, 0, 0.9642184557438794, -0.8813559322033897, 20.15819209039548)" d="M6.15 1.91L20.58 1.91C22.65 1.91 23.73 0.81 23.73-1.24L23.73-15.68C23.73-17.73 22.65-18.83 20.58-18.83L6.15-18.83C4.08-18.83 2.99-17.75 2.99-15.68L2.99-1.24C2.99 0.83 4.08 1.91 6.15 1.91ZM6.18 1.04C4.65 1.04 3.86 0.25 3.86-1.28L3.86-15.63C3.86-17.17 4.65-17.96 6.18-17.96L20.54-17.96C22.02-17.96 22.86-17.17 22.86-15.63L22.86-1.28C22.86 0.25 22.02 1.04 20.54 1.04ZM9.79-7.46L9.79-10.76C9.79-11.03 9.62-11.19 9.36-11.19C9.13-11.19 8.96-11.02 8.96-10.75L8.96-4.49C8.96-4.20 9.14-4.04 9.40-4.04L15.68-4.04C15.95-4.04 16.11-4.21 16.11-4.44C16.11-4.69 15.95-4.86 15.67-4.86L11.93-4.86L10.28-4.80L11.55-6.04L17.61-12.09C17.70-12.18 17.75-12.28 17.75-12.42C17.75-12.67 17.59-12.83 17.34-12.83C17.19-12.83 17.09-12.79 17.00-12.70L10.96-6.66L9.74-5.38Z" fill="currentColor"/>
</svg>