<svg xmlns="http://www.w3.org/2000/svg" viewBox="0 0 24 24" width="24" height="24">
  <title>arrow.up.page.on.clipboard</title>
  <path transform="matrix(0.6960304513322458, 0, 0, 0.6960304513322458, 1.7920065252854802, 17.889070146818923)" d="M2.99 2.74C2.99 4.82 4.07 5.91 6.14 5.91L17.53 5.91C19.59 5.91 20.67 4.82 20.67 2.74L20.67 0.45L23.20 0.45C25.27 0.45 26.34-0.64 26.34-2.72L26.34-19.68C26.34-21.75 25.27-22.83 23.20-22.83L11.81-22.83C9.76-22.83 8.66-21.75 8.66-19.68L8.66-17.38L6.14-17.38C4.07-17.38 2.99-16.29 2.99-14.21ZM14.36-19.92L14.36-20.12C14.36-20.38 14.55-20.65 14.94-20.65L20.06-20.65C20.46-20.65 20.65-20.38 20.65-20.12L20.65-19.92C20.65-19.66 20.46-19.41 20.06-19.41L14.94-19.41C14.55-19.41 14.36-19.66 14.36-19.92ZM3.86 2.72L3.86-14.18C3.86-15.70 4.65-16.50 6.18-16.50L17.48-16.50C19.01-16.50 19.80-15.70 19.80-14.18L19.80 2.72C19.80 4.23 19.01 5.03 17.48 5.03L6.18 5.03C4.65 5.03 3.86 4.23 3.86 2.72ZM8.29-6.57C8.40-6.57 8.51-6.64 8.59-6.73L10.64-8.81L11.46-9.62L11.43-8.26L11.43-1.02C11.43-0.80 11.61-0.61 11.85-0.61C12.07-0.61 12.26-0.80 12.26-1.02L12.26-8.26L12.22-9.63L13.04-8.81L15.09-6.73C15.19-6.63 15.28-6.57 15.40-6.57C15.60-6.57 15.77-6.75 15.77-6.95C15.77-7.07 15.75-7.14 15.64-7.24L12.14-10.73C12.05-10.83 11.95-10.86 11.85-10.86C11.73-10.86 11.64-10.83 11.55-10.73L8.04-7.24C7.95-7.15 7.92-7.07 7.92-6.95C7.92-6.75 8.09-6.57 8.29-6.57Z" fill="currentColor"/>
</svg>