<svg xmlns="http://www.w3.org/2000/svg" viewBox="0 0 24 24" width="24" height="24">
  <title>arrow.left.to.line</title>
  <path transform="matrix(0.8842832469775475, 0, 0, 0.8842832469775475, -0.6424870466321244, 19.471502590673577)" d="M3.45 0.09C3.70 0.09 3.90-0.11 3.90-0.36L3.90-8.31C3.93-8.24 3.97-8.18 4.02-8.12L12.06-0.05C12.15 0.05 12.25 0.09 12.38 0.09C12.64 0.09 12.83-0.11 12.83-0.34C12.83-0.47 12.77-0.62 12.71-0.68L8.03-5.37L5.24-8.05L7.75-8.00L25.16-8.00C25.41-8.00 25.61-8.19 25.61-8.45C25.61-8.71 25.41-8.89 25.16-8.89L7.75-8.89L5.24-8.85L8.03-11.53L12.71-16.22C12.77-16.29 12.83-16.43 12.83-16.56C12.83-16.79 12.64-16.99 12.38-16.99C12.25-16.99 12.15-16.95 12.06-16.85L4.02-8.78C3.97-8.73 3.93-8.66 3.90-8.60L3.90-16.54C3.90-16.79 3.70-16.99 3.45-16.99C3.19-16.99 2.99-16.79 2.99-16.54L2.99-0.36C2.99-0.11 3.19 0.09 3.45 0.09Z" fill="currentColor"/>
</svg>