<svg xmlns="http://www.w3.org/2000/svg" viewBox="0 0 24 24" width="24" height="24">
  
  <path transform="matrix(1.0554524840239126, 0, 0, 1.0554524840239126, -0.18305504019789653, 20.91156462585034)" d="M20.70 0.11C20.70-0.19 20.58-0.40 20.41-0.75L12.54-17.12C12.27-17.67 11.96-17.92 11.54-17.92C11.12-17.92 10.82-17.67 10.56-17.12L2.67-0.75C2.51-0.39 2.39-0.19 2.39 0.11C2.39 0.67 2.80 1.03 3.49 1.03L19.61 1.03C20.29 1.03 20.70 0.67 20.70 0.11ZM19.73-0.07C19.73 0.07 19.63 0.15 19.42 0.15L3.67 0.15C3.45 0.15 3.36 0.07 3.36-0.07C3.36-0.18 3.41-0.27 3.46-0.36L11.21-16.57C11.27-16.70 11.39-16.85 11.54-16.85C11.70-16.85 11.81-16.70 11.88-16.57L19.63-0.36C19.68-0.27 19.73-0.18 19.73-0.07Z" fill="currentColor"/>
</svg>