<svg xmlns="http://www.w3.org/2000/svg" viewBox="0 0 24 24" width="24" height="24">
  <title>arrow.up.left.and.arrow.down.right.rectangle</title>
  <path transform="matrix(0.735632183908046, 0, 0, 0.735632183908046, -0.1982758620689653, 18.224137931034484)" d="M6.15 1.91L27.02 1.91C29.10 1.91 30.18 0.81 30.18-1.24L30.18-15.68C30.18-17.73 29.10-18.83 27.02-18.83L6.15-18.83C4.08-18.83 2.99-17.75 2.99-15.68L2.99-1.24C2.99 0.83 4.08 1.91 6.15 1.91ZM6.18 1.04C4.65 1.04 3.86 0.25 3.86-1.28L3.86-15.63C3.86-17.17 4.65-17.96 6.18-17.96L26.99-17.96C28.46-17.96 29.31-17.17 29.31-15.63L29.31-1.28C29.31 0.25 28.46 1.04 26.99 1.04ZM9.21-10.20C9.45-10.20 9.62-10.37 9.62-10.62L9.62-12.83L9.56-14.86L10.73-13.64L14.85-9.53C14.93-9.45 15.04-9.39 15.19-9.39C15.42-9.39 15.60-9.55 15.60-9.81C15.60-9.94 15.54-10.04 15.46-10.13L11.33-14.25L10.11-15.42L11.70-15.35L14.37-15.35C14.61-15.35 14.79-15.53 14.79-15.76C14.79-16.00 14.61-16.17 14.37-16.17L9.22-16.17C8.98-16.17 8.80-16.02 8.80-15.75L8.80-10.62C8.80-10.38 8.98-10.20 9.21-10.20ZM17.99-7.52C17.74-7.52 17.58-7.36 17.58-7.11C17.58-6.98 17.64-6.88 17.72-6.80L21.83-2.67L23.06-1.50L21.47-1.56L18.80-1.56C18.56-1.56 18.38-1.38 18.38-1.15C18.38-0.93 18.56-0.74 18.80-0.74L23.94-0.74C24.20-0.74 24.36-0.89 24.36-1.17L24.36-6.30C24.36-6.54 24.19-6.73 23.95-6.73C23.72-6.73 23.54-6.55 23.54-6.30L23.54-4.09L23.60-2.06L22.43-3.28L18.32-7.39C18.23-7.48 18.14-7.52 17.99-7.52Z" fill="currentColor"/>
</svg>