<svg xmlns="http://www.w3.org/2000/svg" viewBox="0 0 24 24" width="24" height="24">
  <title>arrowtriangle.up.arrowtriangle.down.window.right</title>
  <path transform="matrix(0.8926080892608089, 0, 0, 0.8926080892608089, -0.6673640167364017, 19.531380753138077)" d="M6.16 1.69L22.23 1.69C24.43 1.69 25.39 0.73 25.39-1.43L25.39-15.79C25.39-17.55 24.39-18.56 22.62-18.56L16.65-18.56C15.16-18.56 14.11-18.18 12.81-17.20L4.29-10.72C3.39-10.03 2.99-9.40 2.99-8.05L2.99-1.43C2.99 0.73 3.96 1.69 6.16 1.69ZM5.23-8.71C4.45-8.71 4.24-9.57 4.82-10.02L13.36-16.55C14.51-17.44 15.34-17.68 16.65-17.68L22.58-17.68C23.81-17.68 24.53-16.97 24.53-15.74L24.53-10.66C24.53-9.48 23.75-8.71 22.58-8.71ZM15.74-10.50L21-10.50C21.43-10.50 21.57-10.88 21.38-11.20L18.80-15.42C18.59-15.76 18.14-15.79 17.92-15.42L15.36-11.21C15.16-10.89 15.29-10.50 15.74-10.50ZM15.74-6.96L21-6.96C21.43-6.96 21.57-6.57 21.38-6.25L18.80-2.03C18.59-1.69 18.14-1.66 17.92-2.03L15.36-6.23C15.16-6.56 15.29-6.96 15.74-6.96Z" fill="currentColor"/>
</svg>