<svg xmlns="http://www.w3.org/2000/svg" viewBox="0 0 24 24" width="24" height="24">
  <title>arrow.down.right.and.arrow.up.left.rectangle</title>
  <path transform="matrix(0.735632183908046, 0, 0, 0.735632183908046, -0.1982758620689653, 18.224137931034484)" d="M6.15 1.91L27.02 1.91C29.10 1.91 30.18 0.81 30.18-1.24L30.18-15.68C30.18-17.73 29.10-18.83 27.02-18.83L6.15-18.83C4.08-18.83 2.99-17.75 2.99-15.68L2.99-1.24C2.99 0.83 4.08 1.91 6.15 1.91ZM6.18 1.04C4.65 1.04 3.86 0.25 3.86-1.28L3.86-15.63C3.86-17.17 4.65-17.96 6.18-17.96L26.99-17.96C28.46-17.96 29.31-17.17 29.31-15.63L29.31-1.28C29.31 0.25 28.46 1.04 26.99 1.04ZM9.21-16.17C8.96-16.17 8.80-16.01 8.80-15.76C8.80-15.63 8.86-15.53 8.94-15.45L13.07-11.32L14.29-10.15L12.70-10.21L10.03-10.21C9.79-10.21 9.61-10.03 9.61-9.80C9.61-9.56 9.79-9.39 10.02-9.39L15.18-9.39C15.42-9.39 15.60-9.54 15.60-9.82L15.60-14.95C15.60-15.19 15.42-15.38 15.19-15.38C14.95-15.38 14.78-15.20 14.78-14.95L14.78-12.74L14.84-10.71L13.66-11.93L9.55-16.04C9.47-16.13 9.36-16.17 9.21-16.17ZM17.99-1.55C18.22-1.55 18.40-1.72 18.40-1.97L18.40-4.18L18.34-6.21L19.51-4.99L23.63-0.88C23.71-0.80 23.80-0.74 23.95-0.74C24.20-0.74 24.36-0.90 24.36-1.16C24.36-1.29 24.30-1.39 24.22-1.48L20.11-5.60L18.88-6.77L20.47-6.70L23.14-6.70C23.38-6.70 23.57-6.88 23.57-7.11C23.57-7.35 23.38-7.52 23.14-7.52L18-7.52C17.74-7.52 17.58-7.38 17.58-7.10L17.58-1.97C17.58-1.73 17.75-1.55 17.99-1.55Z" fill="currentColor"/>
</svg>