<svg xmlns="http://www.w3.org/2000/svg" viewBox="0 0 24 24" width="24" height="24">
  
  <path transform="matrix(0.7204164907837344, 0, 0, 0.7204164907837344, -0.1528070915998314, 18.091177712114817)" d="M17.52 0.30C17.52 2.14 18.52 3.15 20.38 3.15L27.89 3.15C29.75 3.15 30.75 2.14 30.75 0.30L30.75-17.23C30.75-19.07 29.75-20.06 27.89-20.06L20.38-20.06C18.52-20.06 17.52-19.07 17.52-17.23ZM18.39 0.25L18.39-17.16C18.39-18.56 19.03-19.20 20.45-19.20L27.82-19.20C29.24-19.20 29.88-18.56 29.88-17.16L29.88 0.25C29.88 1.65 29.24 2.27 27.82 2.27L20.45 2.27C19.03 2.27 18.39 1.65 18.39 0.25ZM3.43-0.18C3.69-0.18 3.88-0.38 3.88-0.62L3.88-2.51C3.88-6.13 6.08-8.02 9.57-8.02L11.44-8.02L13.93-8.06L11.45-5.66L10.00-4.24C9.89-4.15 9.87-4.03 9.87-3.90C9.87-3.66 10.05-3.46 10.31-3.46C10.44-3.46 10.56-3.50 10.76-3.70L15.13-8.13C15.22-8.23 15.27-8.33 15.27-8.46C15.27-8.59 15.22-8.70 15.13-8.79L10.64-13.32C10.55-13.42 10.44-13.46 10.31-13.46C10.05-13.46 9.87-13.27 9.87-13.03C9.87-12.90 9.90-12.76 10.00-12.68L11.45-11.27L13.93-8.86L11.44-8.91L9.57-8.91C5.64-8.91 2.99-6.73 2.99-2.50L2.99-0.62C2.99-0.38 3.18-0.18 3.43-0.18Z" fill="currentColor"/>
</svg>