<svg xmlns="http://www.w3.org/2000/svg" viewBox="0 0 24 24" width="24" height="24">
  
  <path transform="matrix(0.8703042665306816, 0, 0, 0.8703042665306816, 0.17440081591024992, 19.36868944416114)" d="M13.59 3.02C19.93 3.02 25.08-2.11 25.08-8.46C25.08-14.81 19.93-19.96 13.59-19.96C7.24-19.96 2.10-14.81 2.10-8.46C2.10-2.11 7.24 3.02 13.59 3.02ZM13.59 2.13C7.73 2.13 2.99-2.60 2.99-8.46C2.99-14.32 7.73-19.07 13.59-19.07C19.45-19.07 24.19-14.32 24.19-8.46C24.19-2.60 19.45 2.13 13.59 2.13ZM10.80-3.42C11.11-3.42 11.29-3.64 11.29-3.90L11.29-4.99L7.89-8.11C7.44-8.52 7.31-8.85 7.31-9.21C7.31-9.56 7.46-9.91 7.89-10.31L11.29-13.45L11.29-14.51C11.29-14.78 11.11-15 10.80-15C10.59-15 10.43-14.88 10.27-14.74L5.06-9.89C4.72-9.59 4.68-9.40 4.68-9.21C4.68-9.02 4.72-8.84 5.06-8.53L10.27-3.70C10.43-3.54 10.59-3.42 10.80-3.42ZM14.04-3.42C14.33-3.42 14.51-3.66 14.51-3.94L14.51-6.75L14.79-6.75C17.84-6.75 19.71-5.93 20.59-3.81C20.71-3.52 20.88-3.42 21.11-3.42C21.36-3.42 21.55-3.62 21.55-3.96C21.55-9.25 18.95-11.60 14.79-11.60L14.51-11.60L14.51-14.47C14.51-14.75 14.33-15 14.03-15C13.82-15 13.65-14.89 13.48-14.74L8.29-9.89C7.95-9.57 7.91-9.40 7.91-9.21C7.91-9.02 7.95-8.84 8.29-8.53L13.48-3.70C13.65-3.53 13.82-3.42 14.04-3.42Z" fill="currentColor"/>
</svg>