<svg xmlns="http://www.w3.org/2000/svg" viewBox="0 0 24 24" width="24" height="24">
  <title>arrow.down.backward.and.arrow.up.forward.rectangle</title>
  <path transform="matrix(0.735632183908046, 0, 0, 0.735632183908046, -0.1982758620689653, 18.224137931034484)" d="M6.15 1.91L27.02 1.91C29.10 1.91 30.18 0.81 30.18-1.24L30.18-15.68C30.18-17.73 29.10-18.83 27.02-18.83L6.15-18.83C4.08-18.83 2.99-17.75 2.99-15.68L2.99-1.24C2.99 0.83 4.08 1.91 6.15 1.91ZM6.18 1.04C4.65 1.04 3.86 0.25 3.86-1.28L3.86-15.63C3.86-17.17 4.65-17.96 6.18-17.96L26.99-17.96C28.46-17.96 29.31-17.17 29.31-15.63L29.31-1.28C29.31 0.25 28.46 1.04 26.99 1.04ZM17.99-9.39C18.14-9.39 18.23-9.45 18.32-9.53L22.43-13.64L23.60-14.86L23.54-12.83L23.54-10.62C23.54-10.37 23.72-10.20 23.95-10.20C24.19-10.20 24.36-10.38 24.36-10.62L24.36-15.75C24.36-16.02 24.20-16.17 23.94-16.17L18.80-16.17C18.56-16.17 18.38-16.00 18.38-15.76C18.38-15.53 18.56-15.35 18.80-15.35L21.47-15.35L23.06-15.42L21.83-14.25L17.72-10.13C17.64-10.04 17.58-9.94 17.58-9.81C17.58-9.55 17.74-9.39 17.99-9.39ZM9.21-6.73C8.98-6.73 8.80-6.54 8.80-6.30L8.80-1.17C8.80-0.89 8.98-0.74 9.22-0.74L14.37-0.74C14.61-0.74 14.79-0.93 14.79-1.15C14.79-1.38 14.61-1.56 14.37-1.56L11.70-1.56L10.11-1.50L11.33-2.67L15.46-6.80C15.54-6.88 15.60-6.98 15.60-7.11C15.60-7.36 15.42-7.52 15.19-7.52C15.04-7.52 14.93-7.48 14.85-7.39L10.73-3.28L9.56-2.06L9.62-4.09L9.62-6.30C9.62-6.55 9.45-6.73 9.21-6.73Z" fill="currentColor"/>
</svg>