<svg xmlns="http://www.w3.org/2000/svg" viewBox="0 0 24 24" width="24" height="24">
  <title>arrow.turn.right.down</title>
  <path transform="matrix(0.9220241311003061, 0, 0, 0.9220241311003061, 1.3084819016747709, 19.79578606158833)" d="M4.93-19.30C4.25-19.30 3.64-19.30 3.42-19.27C3.19-19.22 2.99-19.10 2.99-18.82C2.99-18.55 3.19-18.38 3.46-18.38C3.64-18.38 4.14-18.40 4.88-18.40C9.36-18.40 11.21-16.45 11.21-12.04L11.21-1.76L11.25 1.01L8.82-1.50L3.88-6.43C3.81-6.52 3.68-6.55 3.55-6.55C3.30-6.55 3.12-6.36 3.12-6.11C3.12-5.98 3.15-5.87 3.25-5.78L11.32 2.25C11.41 2.34 11.52 2.39 11.66 2.39C11.79 2.39 11.89 2.34 11.99 2.25L20.06-5.78C20.16-5.87 20.20-5.98 20.20-6.11C20.20-6.36 20.00-6.55 19.76-6.55C19.63-6.55 19.50-6.52 19.43-6.43L14.48-1.50L12.06 1.01L12.11-1.76L12.11-12.06C12.11-17.03 9.98-19.30 4.93-19.30Z" fill="currentColor"/>
</svg>