<svg xmlns="http://www.w3.org/2000/svg" viewBox="0 0 24 24" width="24" height="24">
  
  <path transform="matrix(0.777879064114251, 0, 0, 0.777879064114251, 1.6763901549680944, 18.791248860528714)" d="M13.28-21.59C13.14-21.59 13.02-21.53 12.93-21.43L8.55-17.10C8.43-16.96 8.33-16.84 8.33-16.65C8.33-16.39 8.53-16.21 8.80-16.21C8.94-16.21 9.08-16.25 9.18-16.36L12.86-20.11L12.82-17.60L12.82-11.32C12.82-11.04 13.00-10.86 13.28-10.86C13.55-10.86 13.73-11.04 13.73-11.32L13.73-17.60L13.69-20.11L17.38-16.36C17.48-16.25 17.63-16.21 17.77-16.21C18.02-16.21 18.22-16.39 18.22-16.65C18.22-16.84 18.13-16.96 18-17.10L13.62-21.43C13.52-21.53 13.41-21.59 13.28-21.59ZM2.99-8.73C2.99-8.47 3.19-8.27 3.45-8.27L23.11-8.27C23.36-8.27 23.55-8.47 23.55-8.73C23.55-8.99 23.36-9.19 23.11-9.19L3.45-9.19C3.19-9.19 2.99-8.99 2.99-8.73ZM13.28 4.13C13.41 4.13 13.52 4.07 13.62 3.97L18-0.36C18.13-0.50 18.22-0.63 18.22-0.81C18.22-1.07 18.02-1.25 17.77-1.25C17.63-1.25 17.48-1.21 17.38-1.10L13.69 2.65L13.73 0.14L13.73-6.15C13.73-6.42 13.55-6.60 13.28-6.60C13.00-6.60 12.82-6.42 12.82-6.15L12.82 0.14L12.86 2.65L9.18-1.10C9.08-1.21 8.94-1.25 8.80-1.25C8.53-1.25 8.33-1.07 8.33-0.81C8.33-0.63 8.43-0.50 8.55-0.36L12.93 3.97C13.02 4.07 13.14 4.13 13.28 4.13Z" fill="currentColor"/>
</svg>