<svg xmlns="http://www.w3.org/2000/svg" viewBox="0 0 24 24" width="24" height="24">
  
  <path transform="matrix(0.7052341597796143, 0, 0, 0.7052341597796143, -0.14049586776859524, 17.96694214876033)" d="M6.86 0.97L19.90 0.97C22.35 0.97 23.71-0.38 23.71-2.82L23.71-14.10C23.71-16.55 22.37-17.89 19.92-17.89L6.86-17.89C4.42-17.89 3.04-16.55 3.04-14.10L3.04-2.82C3.04-0.38 4.39 0.97 6.86 0.97ZM24.76-5.03L28.96-1.62C29.38-1.29 29.75-1.08 30.20-1.08C30.91-1.08 31.39-1.58 31.39-2.44L31.39-14.50C31.39-15.34 30.91-15.86 30.20-15.86C29.75-15.86 29.38-15.64 28.96-15.30L24.76-11.92ZM17.53-4.96C17.30-4.96 17.13-5.14 17.13-5.36L17.13-8.34L17.24-11.60L15.38-9.67L9.54-3.83C9.46-3.75 9.38-3.68 9.20-3.68C8.98-3.68 8.79-3.84 8.79-4.09C8.79-4.21 8.84-4.30 8.94-4.42L14.78-10.25L16.72-12.14L13.46-12L10.38-12C10.14-12 9.96-12.16 9.96-12.40C9.96-12.64 10.15-12.83 10.38-12.83L17.50-12.83C17.79-12.83 17.95-12.66 17.95-12.40L17.95-5.36C17.95-5.13 17.79-4.96 17.53-4.96Z" fill="currentColor"/>
</svg>