<svg xmlns="http://www.w3.org/2000/svg" viewBox="0 0 24 24" width="24" height="24">
  
  <path transform="matrix(0.705785048017277, 0, 0, 0.705785048017277, -0.10816523457243976, 17.955061342645774)" d="M12.39 0.79C12.39 2.87 13.48 3.95 15.54 3.95L28.17 3.95C30.25 3.95 31.32 2.87 31.32 0.79L31.32-17.66C31.32-19.73 30.25-20.82 28.17-20.82L15.54-20.82C13.48-20.82 12.39-19.73 12.39-17.66ZM13.25 0.76L13.25-17.64C13.25-19.16 14.05-19.96 15.59-19.96L28.13-19.96C29.66-19.96 30.46-19.16 30.46-17.64L30.46 0.76C30.46 2.29 29.66 3.08 28.13 3.08L15.59 3.08C14.05 3.08 13.25 2.29 13.25 0.76ZM16.00-2.79C17.30-2.79 20.82-4.70 20.82-8.77C20.82-12.83 17.30-14.73 16.00-14.73C15.70-14.73 15.53-14.63 15.53-14.33L15.53-3.20C15.53-2.89 15.70-2.79 16.00-2.79ZM6.73-3.76L6.73-9.34L9.01-9.34C9.54-9.34 9.74-9.91 9.40-10.31L6.77-13.51C6.52-13.83 6.07-13.85 5.78-13.51L3.15-10.31C2.81-9.91 3.02-9.34 3.54-9.34L5.84-9.34L5.84-3.76C5.84-3.50 6.04-3.33 6.28-3.33C6.54-3.33 6.73-3.50 6.73-3.76ZM25.01-5.79C26.75-5.79 28.20-7.11 28.20-8.77C28.20-10.41 26.75-11.73 25.01-11.73C23.16-11.73 21.77-10.41 21.77-8.77C21.76-7.11 23.16-5.79 25.01-5.79Z" fill="currentColor"/>
</svg>