<svg xmlns="http://www.w3.org/2000/svg" viewBox="0 0 24 24" width="24" height="24">
  
  <path transform="matrix(0.4654122352513408, 0, 0, 0.4654122352513408, 0.6092173438778292, 15.943277883828742)" d="M12.94-0.70L12.94-4.77L21.09-4.77C22.32-4.77 23.11-5.53 23.11-6.70L23.11-10.15C23.11-11.32 22.32-12.08 21.09-12.08L12.94-12.08L12.94-16.23C12.94-16.75 12.61-17.11 12.14-17.11C11.82-17.11 11.59-16.97 11.25-16.68L3.56-9.53C3.07-9.07 2.99-8.75 2.99-8.46C2.99-8.10 3.14-7.79 3.56-7.41L11.25-0.26C11.57 0.02 11.82 0.16 12.14 0.16C12.61 0.16 12.94-0.18 12.94-0.70ZM27.86-12.08C26.63-12.08 25.84-11.32 25.84-10.15L25.84-6.70C25.84-5.53 26.63-4.77 27.86-4.77L36.01-4.77L36.01-0.70C36.01-0.18 36.34 0.16 36.81 0.16C37.13 0.16 37.38 0.02 37.70-0.26L45.39-7.41C45.81-7.79 45.96-8.10 45.96-8.46C45.96-8.75 45.88-9.07 45.39-9.53L37.70-16.68C37.36-16.97 37.13-17.11 36.81-17.11C36.34-17.11 36.01-16.75 36.01-16.23L36.01-12.08Z" fill="currentColor"/>
</svg>