<svg xmlns="http://www.w3.org/2000/svg" viewBox="0 0 24 24" width="24" height="24">
  <title>arrow.down.left.arrow.up.right.circle</title>
  <path transform="matrix(0.8703042665306816, 0, 0, 0.8703042665306816, 0.17440081591024992, 19.36868944416114)" d="M13.59 3.02C19.93 3.02 25.08-2.11 25.08-8.46C25.08-14.81 19.93-19.96 13.59-19.96C7.24-19.96 2.10-14.81 2.10-8.46C2.10-2.11 7.24 3.02 13.59 3.02ZM13.59 2.13C7.73 2.13 2.99-2.60 2.99-8.46C2.99-14.32 7.73-19.07 13.59-19.07C19.45-19.07 24.19-14.32 24.19-8.46C24.19-2.60 19.45 2.13 13.59 2.13ZM12.21-6.83C12.36-6.98 12.36-7.22 12.21-7.37C12.15-7.44 12.02-7.49 11.91-7.49L9.60-7.49L8.14-7.46L8.86-8.14L15.26-14.54C15.42-14.71 15.41-14.94 15.27-15.09C15.11-15.25 14.86-15.28 14.71-15.11L8.30-8.71L7.61-7.99L7.64-9.45L7.64-11.74C7.65-11.87 7.59-11.99 7.52-12.07C7.37-12.22 7.14-12.22 6.98-12.07C6.90-11.99 6.86-11.87 6.86-11.75L6.84-7.09C6.84-6.88 7.03-6.70 7.25-6.70L11.91-6.69C12.04-6.69 12.13-6.73 12.21-6.83ZM11.92-1.80C12.07-1.65 12.32-1.66 12.46-1.82L18.87-8.21L19.55-8.93L19.52-7.48L19.52-5.18C19.52-5.05 19.57-4.93 19.64-4.85C19.79-4.70 20.03-4.70 20.18-4.85C20.27-4.95 20.32-5.03 20.32-5.17L20.32-9.83C20.31-10.03 20.13-10.22 19.91-10.22L15.27-10.22C15.14-10.22 15.04-10.18 14.95-10.09C14.80-9.95 14.80-9.70 14.95-9.55C15.01-9.48 15.14-9.43 15.27-9.43L17.57-9.43L19.02-9.46L18.30-8.78L11.91-2.38C11.74-2.21 11.75-1.97 11.92-1.80Z" fill="currentColor"/>
</svg>