<svg xmlns="http://www.w3.org/2000/svg" viewBox="0 0 24 24" width="24" height="24">
  
  <path transform="matrix(0.8703042665306816, 0, 0, 0.8703042665306816, 0.17440081591024992, 19.36868944416114)" d="M13.59 3.02C19.91 3.02 25.08-2.13 25.08-8.46C25.08-14.79 19.91-19.96 13.59-19.96C7.27-19.96 2.10-14.79 2.10-8.46C2.10-2.13 7.27 3.02 13.59 3.02ZM15.28-15.13C15.42-15 15.43-14.74 15.27-14.58L8.84-8.14L8.14-7.48L9.46-7.49L11.89-7.49C12.02-7.49 12.15-7.43 12.21-7.37C12.36-7.22 12.36-6.97 12.21-6.82C12.12-6.73 12.02-6.68 11.91-6.68L7.22-6.69C7.00-6.69 6.80-6.87 6.81-7.09L6.82-11.77C6.82-11.89 6.87-12.02 6.95-12.09C7.10-12.25 7.34-12.25 7.50-12.09C7.57-12.01 7.62-11.89 7.62-11.77L7.62-9.46L7.59-8.02L8.26-8.72L14.71-15.14C14.87-15.32 15.12-15.29 15.28-15.13ZM11.88-1.79C11.74-1.93 11.73-2.18 11.89-2.34L18.33-8.78L19.02-9.45L17.72-9.43L15.28-9.43C15.15-9.43 15.01-9.49 14.96-9.55C14.81-9.70 14.81-9.95 14.96-10.10C15.05-10.20 15.14-10.24 15.27-10.24L19.96-10.23C20.18-10.23 20.37-10.05 20.37-9.83L20.36-5.14C20.36-5.02 20.30-4.90 20.23-4.83C20.07-4.68 19.84-4.68 19.68-4.83C19.61-4.91 19.55-5.03 19.55-5.16L19.56-7.46L19.58-8.91L18.90-8.20L12.46-1.78C12.30-1.61 12.05-1.63 11.88-1.79Z" fill="currentColor"/>
</svg>