<svg xmlns="http://www.w3.org/2000/svg" viewBox="0 0 24 24" width="24" height="24">
  
  <path transform="matrix(0.8772976425179901, 0, 0, 0.8772976425179901, -0.3680938699861822, 19.4258268415137)" d="M7.73-14.82C3.90-10.98 2.19-5.82 2.84-1.41C3.13 1.03 4.59 2.51 7.01 2.80C11.46 3.45 16.61 1.75 20.46-2.11C24.30-5.95 26.00-11.10 25.36-15.55C25.08-17.96 23.59-19.43 21.16-19.73C16.73-20.37 11.58-18.66 7.73-14.82ZM9.02-6.05C8.87-6.21 8.87-6.43 9.01-6.60C9.16-6.74 9.41-6.73 9.55-6.59L10.63-5.50L11.85-6.71L10.77-7.82C10.63-7.95 10.63-8.20 10.76-8.33C10.90-8.47 11.16-8.47 11.30-8.33L12.38-7.24L13.61-8.47L12.52-9.55C12.38-9.69 12.36-9.94 12.50-10.08C12.63-10.21 12.89-10.21 13.02-10.07L14.12-8.99L15.34-10.21L14.25-11.29C14.11-11.44 14.10-11.68 14.24-11.81C14.40-11.96 14.63-11.95 14.78-11.80L15.87-10.72L17.09-11.94L16.00-13.02C15.84-13.17 15.84-13.41 15.98-13.57C16.14-13.70 16.37-13.70 16.52-13.57L19.18-10.89C19.32-10.75 19.34-10.50 19.18-10.36C19.04-10.22 18.80-10.22 18.66-10.36L17.59-11.44L16.37-10.22L17.44-9.14C17.59-8.99 17.59-8.78 17.44-8.61C17.30-8.50 17.06-8.48 16.92-8.61L15.86-9.69L14.64-8.47L15.70-7.41C15.84-7.27 15.83-7.03 15.70-6.88C15.56-6.74 15.32-6.74 15.19-6.88L14.12-7.96L12.89-6.73L13.97-5.66C14.10-5.52 14.10-5.27 13.95-5.13C13.83-5.00 13.57-4.99 13.43-5.13L12.36-6.20L11.14-4.98L12.21-3.91C12.34-3.77 12.36-3.55 12.21-3.39C12.07-3.23 11.85-3.23 11.68-3.39Z" fill="currentColor"/>
</svg>