<svg xmlns="http://www.w3.org/2000/svg" viewBox="0 0 24 24" width="24" height="24">
  
  <path transform="matrix(0.8703042665306816, 0, 0, 0.8703042665306816, 0.17440081591024992, 19.36868944416114)" d="M13.59 3.02C19.91 3.02 25.08-2.13 25.08-8.46C25.08-14.79 19.91-19.96 13.59-19.96C7.27-19.96 2.10-14.79 2.10-8.46C2.10-2.13 7.27 3.02 13.59 3.02ZM10.17-3.30C9.94-3.30 9.77-3.46 9.77-3.67C9.77-3.75 9.80-3.83 9.83-3.91L10.57-6.05L9.71-6.05C9.57-6.05 9.46-6.16 9.46-6.30C9.46-6.45 9.57-6.56 9.71-6.56L10.76-6.56L11.26-8.03L9.71-8.03C9.57-8.03 9.46-8.14 9.46-8.29C9.46-8.43 9.57-8.55 9.71-8.55L11.45-8.55L13.05-13.20C13.14-13.43 13.32-13.59 13.59-13.59C13.88-13.59 14.03-13.46 14.12-13.20L15.74-8.55L17.47-8.55C17.61-8.55 17.74-8.43 17.74-8.29C17.74-8.14 17.61-8.03 17.47-8.03L15.93-8.03L16.44-6.56L17.47-6.56C17.61-6.56 17.74-6.45 17.74-6.30C17.74-6.16 17.61-6.05 17.47-6.05L16.62-6.05L17.37-3.91C17.40-3.83 17.43-3.75 17.43-3.67C17.43-3.42 17.20-3.30 17.00-3.30C16.79-3.30 16.68-3.43 16.62-3.61L15.81-6.05L11.39-6.05L10.57-3.61C10.51-3.42 10.39-3.30 10.17-3.30ZM12.23-8.55L14.96-8.55L13.62-12.53L13.56-12.53ZM11.55-6.56L15.62-6.56L15.14-8.03L12.05-8.03Z" fill="currentColor"/>
</svg>