<svg xmlns="http://www.w3.org/2000/svg" viewBox="0 0 24 24" width="24" height="24">
  <title>autostartstop</title>
  <path transform="matrix(0.8616103955654005, 0, 0, 0.8616103955654005, 0.2925321836943522, 19.19518558962356)" d="M2.10-8.46C2.10-4.31 4.30-0.68 7.65 1.37C7.90 1.54 8.19 1.44 8.31 1.24C8.43 1.02 8.37 0.76 8.14 0.61C5.10-1.18 2.99-4.61 2.99-8.46C2.99-14.32 7.73-19.07 13.59-19.07C19.45-19.07 24.19-14.32 24.19-8.46C24.19-5.18 22.69-2.24 20.34-0.30L18.93-1.82C18.60-2.17 18.22-1.97 18.13-1.54L17.24 2.64C17.14 3.08 17.38 3.30 17.81 3.25L22.07 2.66C22.58 2.59 22.72 2.24 22.39 1.88L20.95 0.34C23.48-1.77 25.08-4.95 25.08-8.46C25.08-14.81 19.93-19.96 13.59-19.96C7.24-19.96 2.10-14.81 2.10-8.46ZM9.75-3.66C9.97-3.66 10.09-3.75 10.18-4.03L11.31-7.05L15.84-7.05L16.97-4.03C17.06-3.76 17.19-3.66 17.43-3.66C17.67-3.66 17.85-3.82 17.85-4.04C17.85-4.14 17.82-4.20 17.79-4.32L14.18-13.85C14.07-14.14 13.88-14.29 13.58-14.29C13.28-14.29 13.09-14.14 12.97-13.85L9.38-4.32C9.33-4.20 9.30-4.14 9.30-4.05C9.30-3.81 9.47-3.66 9.75-3.66ZM11.59-7.83L13.55-13.09L13.61-13.09L15.56-7.83Z" fill="currentColor"/>
</svg>