<svg xmlns="http://www.w3.org/2000/svg" viewBox="0 0 24 24" width="24" height="24">
  <title>backward.end.circle</title>
  <path transform="matrix(0.8703042665306816, 0, 0, 0.8703042665306816, 0.17440081591024992, 19.36868944416114)" d="M13.59 3.02C19.93 3.02 25.08-2.11 25.08-8.46C25.08-14.81 19.93-19.96 13.59-19.96C7.24-19.96 2.10-14.81 2.10-8.46C2.10-2.11 7.24 3.02 13.59 3.02ZM13.59 2.13C7.73 2.13 2.99-2.60 2.99-8.46C2.99-14.32 7.73-19.07 13.59-19.07C19.45-19.07 24.19-14.32 24.19-8.46C24.19-2.60 19.45 2.13 13.59 2.13ZM9.20-3.90L10.45-3.90C10.86-3.90 11.03-4.08 11.03-4.49L11.03-8.10C11.10-8.00 11.18-7.92 11.30-7.86L17.41-4.25C17.57-4.17 17.77-4.08 17.93-4.08C18.26-4.08 18.55-4.32 18.55-4.83L18.55-12.02C18.55-12.53 18.26-12.77 17.93-12.77C17.77-12.77 17.57-12.69 17.41-12.60L11.30-9C11.18-8.93 11.10-8.86 11.03-8.77L11.03-12.43C11.03-12.84 10.86-13.02 10.45-13.02L9.20-13.02C8.80-13.02 8.63-12.84 8.63-12.43L8.63-4.49C8.63-4.08 8.80-3.90 9.20-3.90Z" fill="currentColor"/>
</svg>