<svg xmlns="http://www.w3.org/2000/svg" viewBox="0 0 24 24" width="24" height="24">
  <title>backpack.fill</title>
  <path transform="matrix(0.7465733449985419, 0, 0, 0.7465733449985419, 3.194224461408201, 18.77165354330709)" d="M8.39 4.32L15.21 4.32C18.89 4.32 20.64 2.52 20.60-1.20C20.57-5.68 20.53-8.94 20.43-11.39C20.17-17.23 18.83-19.55 14.64-20.16C14.45-21.52 13.28-22.46 11.81-22.46C10.34-22.46 9.15-21.52 8.98-20.16C4.77-19.55 3.42-17.23 3.18-11.39C3.06-8.94 3.04-5.68 2.99-1.20C2.95 2.52 4.71 4.32 8.39 4.32ZM11.80-20.33C11.09-20.33 10.43-20.31 9.83-20.25C10.04-21.09 10.84-21.64 11.81-21.64C12.77-21.64 13.57-21.09 13.78-20.25C13.17-20.31 12.52-20.33 11.80-20.33ZM6.80-6.82C6.80-7.75 7.41-8.36 8.32-8.36L15.27-8.36C16.18-8.36 16.79-7.75 16.79-6.82L16.79-5.38L6.80-5.38ZM6.80-4.61L16.79-4.61L16.79-1.58C16.79-0.64 16.18-0.04 15.27-0.04L8.32-0.04C7.41-0.04 6.80-0.64 6.80-1.58Z" fill="currentColor"/>
</svg>