<svg xmlns="http://www.w3.org/2000/svg" viewBox="0 0 24 24" width="24" height="24">
  
  <path transform="matrix(0.6887274683884853, 0, 0, 0.6887274683884853, 5.276836158192091, 17.85149313962873)" d="M9.33 6.02C9.56 6.02 9.75 5.84 9.75 5.61C9.75 2.91 12.12 2.18 12.12-0.23C12.12-2.34 10.48-3.27 10.17-5.16L10.95-5.16C11.24-5.16 11.40-5.39 11.33-5.67L10.98-6.94C14.19-7.69 16.54-11.38 16.54-16.04C16.54-20.10 13.82-23.02 9.75-23.02C5.70-23.02 2.99-20.10 2.99-16.04C2.99-11.37 5.33-7.68 8.54-6.93L8.20-5.67C8.13-5.39 8.29-5.16 8.58-5.16L9.33-5.16C9.60-2.82 11.30-2.26 11.30-0.23C11.30 2.02 8.92 2.33 8.92 5.61C8.92 5.84 9.11 6.02 9.33 6.02Z" fill="currentColor"/>
</svg>