<svg xmlns="http://www.w3.org/2000/svg" viewBox="0 0 24 24" width="24" height="24">
  <title>bandage.fill</title>
  <path transform="matrix(0.8654659587044713, 0, 0, 0.8654659587044713, -0.3241723507712191, 19.305987773321764)" d="M21.48-7.78L23.88-10.31C26.31-12.89 26.43-16.09 24.15-18.38C21.89-20.66 18.66-20.50 16.10-18.09L13.57-15.70C14.36-16.35 15.61-16.17 16.51-15.27L21.20-10.59C22.09-9.69 22.14-8.57 21.48-7.78ZM12.46-2.68C13.61-1.54 14.70-1.50 15.88-2.68L20.03-6.86C21.21-8.03 21.19-9.11 20.05-10.25L16.04-14.26C14.89-15.41 13.82-15.42 12.63-14.25L8.46-10.09C7.29-8.92 7.32-7.82 8.46-6.67ZM13.59-10.25C13.21-10.65 13.21-11.23 13.57-11.60C13.97-11.99 14.53-11.99 14.92-11.60C15.29-11.23 15.30-10.66 14.91-10.25C14.54-9.90 13.95-9.90 13.59-10.25ZM11.11-7.79C10.72-8.18 10.72-8.74 11.11-9.14C11.50-9.53 12.07-9.50 12.46-9.12C12.81-8.77 12.83-8.18 12.46-7.80C12.05-7.41 11.48-7.42 11.11-7.79ZM17.39-7.79C17.02-7.42 16.43-7.42 16.04-7.80C15.68-8.17 15.68-8.77 16.04-9.12C16.45-9.53 17.02-9.50 17.39-9.14C17.78-8.74 17.78-8.18 17.39-7.79ZM4.32 1.45C6.59 3.76 9.87 3.66 12.39 1.17L14.84-1.27C14.03-0.61 13.00-0.63 12.09-1.54L7.41-6.22C6.50-7.13 6.40-8.25 7.04-9.06L4.62-6.60C2.14-4.08 2.07-0.84 4.32 1.45ZM13.57-5.32C13.21-5.70 13.18-6.26 13.59-6.67C13.97-7.04 14.54-7.03 14.91-6.67C15.29-6.28 15.30-5.70 14.92-5.32C14.52-4.93 13.97-4.93 13.57-5.32Z" fill="currentColor"/>
</svg>