<svg xmlns="http://www.w3.org/2000/svg" viewBox="0 0 24 24" width="24" height="24">
  
  <path transform="matrix(0.7099278979478647, 0, 0, 0.7099278979478647, -0.12146422628951736, 18.038946723853947)" d="M7.68-0.32C7.90-0.23 8.14-0.35 8.23-0.57L9.01-2.74C9.49-2.66 10.02-2.63 10.58-2.63L23.57-2.63C24.13-2.63 24.64-2.66 25.14-2.74L25.92-0.57C26.00-0.35 26.25-0.23 26.47-0.32C26.71-0.39 26.81-0.64 26.73-0.87L25.99-2.92C28.37-3.59 29.57-5.38 29.57-8.30L29.57-13.51C30.48-13.51 31.16-14.18 31.16-15.11C31.16-16.04 30.48-16.72 29.53-16.72L4.62-16.72C3.67-16.72 2.99-16.04 2.99-15.11C2.99-14.19 3.66-13.54 4.58-13.51L4.58-8.30C4.58-5.38 5.78-3.59 8.16-2.92L7.42-0.87C7.34-0.64 7.44-0.39 7.68-0.32ZM3.86-15.11C3.86-15.55 4.18-15.86 4.63-15.86L29.52-15.86C29.96-15.86 30.29-15.55 30.29-15.11C30.29-14.67 29.96-14.37 29.52-14.37L4.63-14.37C4.18-14.37 3.86-14.67 3.86-15.11ZM10.58-3.50C7.16-3.50 5.45-5.10 5.45-8.30L5.45-13.51L28.70-13.51L28.70-8.30C28.70-5.10 26.99-3.50 23.57-3.50Z" fill="currentColor"/>
</svg>