<svg xmlns="http://www.w3.org/2000/svg" viewBox="0 0 24 24" width="24" height="24">
  <title>beats.powerbeats.pro.2.chargingcase.fill</title>
  <path transform="matrix(0.7937984496124031, 0, 0, 0.7937984496124031, -0.3720930232558137, 18.71627906976744)" d="M11.74 2.66L19.43 2.66C25.04 2.66 28.18-0.23 28.18-5.43L28.18-11.51C28.18-16.69 25.04-19.58 19.43-19.58L11.74-19.58C6.12-19.58 2.99-16.69 2.99-11.51L2.99-5.43C2.99-0.23 6.12 2.66 11.74 2.66ZM15.59-5.68C14.18-5.68 13.10-6.76 13.10-8.12L13.10-11.70L14.23-12.19L14.23-10.21C14.63-10.52 15.09-10.64 15.59-10.64C16.95-10.64 18.08-9.50 18.08-8.12C18.08-6.79 16.96-5.68 15.59-5.68ZM15.59-6.79C16.32-6.79 16.95-7.39 16.95-8.12C16.95-8.86 16.32-9.48 15.59-9.48C14.86-9.48 14.23-8.87 14.23-8.12C14.23-7.39 14.84-6.79 15.59-6.79Z" fill="currentColor"/>
</svg>