<svg xmlns="http://www.w3.org/2000/svg" viewBox="0 0 24 24" width="24" height="24">
  
  <path transform="matrix(0.9460458240946046, 0, 0, 0.9460458240946046, 2.0997782705099777, 20.004434589800443)" d="M12.74-19.03C7.38-19.03 2.99-12.89 2.99-5.37C2.99-1.82 3.94 2.11 4.99 2.11C6.01 2.11 6.76 0.79 6.80-0.42C5.10-0.90 3.84-2.47 3.84-4.32C3.84-5.40 4.24-6.36 4.97-7.14C5.31-12.42 8.70-17.07 12.61-17.07C14.93-17.07 16.00-15.35 16.00-12.14L6.75-7.30C5.40-6.60 4.79-5.51 4.79-4.32C4.79-2.64 6.16-1.23 7.89-1.23C8.73-1.23 9.34-1.45 10.54-2.11L15.19-4.66C17.23-5.78 17.94-7.13 17.94-9.98L17.94-12.47C17.94-16.50 16.18-19.03 12.74-19.03ZM7.86-2.27C6.73-2.27 5.80-3.20 5.80-4.35C5.80-5.48 6.73-6.42 7.86-6.42C9-6.42 9.94-5.48 9.94-4.35C9.94-3.21 9-2.27 7.86-2.27ZM7.86-2.92C8.65-2.92 9.29-3.56 9.29-4.35C9.29-5.13 8.65-5.78 7.86-5.78C7.08-5.78 6.45-5.13 6.45-4.35C6.45-3.56 7.08-2.92 7.86-2.92Z" fill="currentColor"/>
</svg>