<svg xmlns="http://www.w3.org/2000/svg" viewBox="0 0 24 24" width="24" height="24">
  <title>bell.and.waves.left.and.right.fill</title>
  <path transform="matrix(0.5071817731550272, 0, 0, 0.5071817731550272, 0.9361069836552749, 16.294205052005942)" d="M11.98-0.55L31.65-0.55C32.17-0.55 32.50-0.86 32.50-1.32C32.50-2.51 31.42-3.50 30.48-4.54C29.29-5.86 29.34-8.54 29.00-11.05C28.66-14.23 27.49-16.69 24.70-17.45C24.45-19.07 23.31-20.16 21.82-20.16C20.32-20.16 19.18-19.07 18.93-17.45C16.14-16.69 14.96-14.23 14.63-11.05C14.29-8.54 14.34-5.86 13.15-4.54C12.21-3.50 11.13-2.51 11.13-1.32C11.13-0.86 11.46-0.55 11.98-0.55ZM5.84-0.96C6-1.15 5.94-1.42 5.75-1.62C4.01-3.40 2.98-5.78 2.98-8.46C2.98-11.14 4.01-13.52 5.75-15.32C5.94-15.50 6-15.77 5.84-15.96C5.66-16.16 5.36-16.15 5.16-15.94C3.25-13.99 2.10-11.37 2.10-8.46C2.10-5.55 3.25-2.93 5.16-0.98C5.36-0.77 5.66-0.76 5.84-0.96ZM37.79-0.96C37.97-0.76 38.27-0.77 38.47-0.98C40.38-2.93 41.53-5.55 41.53-8.46C41.53-11.37 40.38-13.99 38.47-15.94C38.27-16.15 37.97-16.16 37.79-15.96C37.63-15.77 37.69-15.50 37.88-15.32C39.62-13.52 40.65-11.14 40.65-8.46C40.65-5.78 39.62-3.40 37.88-1.62C37.69-1.42 37.63-1.15 37.79-0.96ZM8.98-4.18C9.14-4.37 9.08-4.63 8.89-4.83C7.95-5.72 7.49-7.04 7.49-8.46C7.49-9.88 7.95-11.20 8.89-12.09C9.08-12.29 9.14-12.56 8.98-12.74C8.80-12.94 8.48-12.93 8.29-12.71C7.23-11.60 6.62-10.10 6.62-8.46C6.62-6.82 7.23-5.33 8.29-4.21C8.48-4.00 8.80-3.98 8.98-4.18ZM34.65-4.18C34.83-3.98 35.14-4.00 35.34-4.21C36.40-5.33 37.01-6.82 37.01-8.46C37.01-10.10 36.40-11.60 35.34-12.71C35.14-12.93 34.83-12.94 34.65-12.74C34.49-12.56 34.55-12.29 34.73-12.09C35.68-11.20 36.14-9.88 36.14-8.46C36.14-7.04 35.68-5.72 34.73-4.83C34.55-4.63 34.49-4.37 34.65-4.18ZM21.82 3.22C23.59 3.22 24.82 1.99 25.09 0.50L18.54 0.50C18.81 1.99 20.04 3.22 21.82 3.22Z" fill="currentColor"/>
</svg>