<svg xmlns="http://www.w3.org/2000/svg" viewBox="0 0 24 24" width="24" height="24">
  <title>birthday.cake</title>
  <path transform="matrix(0.7821570424686831, 0, 0, 0.7821570424686831, -0.33730522456461953, 18.58455545371219)" d="M3.42 4.04L28.13 4.04C28.36 4.04 28.56 3.84 28.56 3.60C28.56 3.36 28.36 3.16 28.13 3.16L26.77 3.16L26.77-3.87C26.77-5.53 25.78-6.52 24.11-6.52L22.90-6.52L22.90-9.61C22.90-11.29 21.91-12.27 20.24-12.27L16.11-12.27L16.11-17.16C16.65-17.32 17.04-17.87 17.04-18.55C17.04-19.38 16.79-19.92 16.18-20.64C15.91-20.96 15.68-20.95 15.41-20.65C14.80-19.96 14.51-19.42 14.51-18.55C14.51-17.91 14.86-17.37 15.36-17.18L15.36-12.27L11.32-12.27C9.64-12.27 8.66-11.29 8.66-9.61L8.66-6.52L7.45-6.52C5.78-6.52 4.79-5.53 4.79-3.87L4.79 3.16L3.42 3.16C3.19 3.16 2.99 3.36 2.99 3.60C2.99 3.84 3.19 4.04 3.42 4.04ZM9.53-9.56C9.53-10.70 10.23-11.39 11.36-11.39L20.21-11.39C21.33-11.39 22.03-10.70 22.03-9.56L22.03-6.52L9.53-6.52ZM15.74-2.44C14.21-2.44 13.64-1.16 12.29-1.16C10.99-1.16 10.41-2.44 8.89-2.44C7.46-2.44 6.83-1.29 5.67-1.17L5.67-3.82C5.67-4.96 6.36-5.65 7.49-5.65L24.07-5.65C25.20-5.65 25.90-4.96 25.90-3.82L25.90-1.16C24.68-1.23 24.04-2.44 22.58-2.44C21.06-2.44 20.47-1.16 19.17-1.16C17.82-1.16 17.25-2.44 15.74-2.44ZM15.74-1.58C16.79-1.58 17.57-0.30 19.17-0.30C20.78-0.30 21.54-1.58 22.58-1.58C23.59-1.58 24.34-0.36 25.90-0.30L25.90 3.16L5.67 3.16L5.67-0.30C7.16-0.41 7.90-1.58 8.89-1.58C9.94-1.58 10.69-0.30 12.29-0.30C13.91-0.30 14.68-1.58 15.74-1.58Z" fill="currentColor"/>
</svg>