<svg xmlns="http://www.w3.org/2000/svg" viewBox="0 0 24 24" width="24" height="24">
  <title>bitcoinsign.bank.building.fill</title>
  <path transform="matrix(0.8244766505636071, 0, 0, 0.8244766505636071, -0.4637681159420288, 18.97584541062802)" d="M3.42 3.45L26.81 3.45C27.06 3.45 27.25 3.25 27.25 3C27.25 2.77 27.06 2.57 26.81 2.57L26.18 2.57L26.18 1.85C26.18 1.65 26.05 1.52 25.84 1.52L25.10 1.52L25.10-13.35L26.23-13.35C26.53-13.35 26.68-13.55 26.68-13.78C26.68-13.92 26.60-14.09 26.41-14.20L16.31-20.03C15.93-20.25 15.52-20.37 15.12-20.37C14.72-20.37 14.31-20.25 13.93-20.03L3.83-14.20C3.63-14.09 3.55-13.92 3.55-13.78C3.55-13.55 3.70-13.35 4.02-13.35L5.14-13.35L5.14 1.52L4.39 1.52C4.20 1.52 4.07 1.65 4.07 1.85L4.07 2.57L3.42 2.57C3.19 2.57 2.99 2.77 2.99 3C2.99 3.25 3.19 3.45 3.42 3.45ZM12.70-2.25C12.41-2.25 12.19-2.47 12.19-2.79L12.19-11.54C12.19-11.86 12.41-12.07 12.70-12.07L13.66-12.07L13.66-13.25C13.66-13.39 13.78-13.51 13.92-13.51C14.06-13.51 14.18-13.39 14.18-13.25L14.18-12.07L15.36-12.07L15.36-13.25C15.36-13.39 15.48-13.51 15.62-13.51C15.77-13.51 15.89-13.39 15.89-13.25L15.89-12.06C17.36-11.94 18.46-11.10 18.46-9.68C18.46-8.57 17.67-7.62 16.54-7.45L16.54-7.35C17.91-7.22 18.97-6.33 18.97-4.91C18.97-3.22 17.67-2.34 15.89-2.26L15.89-0.97C15.89-0.83 15.77-0.71 15.62-0.71C15.48-0.71 15.36-0.83 15.36-0.97L15.36-2.25L14.18-2.25L14.18-0.97C14.18-0.83 14.06-0.71 13.92-0.71C13.78-0.71 13.66-0.83 13.66-0.97L13.66-2.25ZM12.98-7.66L15.15-7.66C16.52-7.66 17.64-8.24 17.64-9.59C17.64-10.84 16.61-11.39 15.36-11.39L12.98-11.39ZM12.98-2.95L15.47-2.95C16.91-2.95 18.15-3.50 18.15-4.96C18.15-6.43 16.84-6.97 15.34-6.97L12.98-6.97Z" fill="currentColor"/>
</svg>