<svg xmlns="http://www.w3.org/2000/svg" viewBox="0 0 24 24" width="24" height="24">
  <title>bolt.brakesignal</title>
  <path transform="matrix(0.659963908223769, 0, 0, 0.659963908223769, 0.6156225831399844, 17.583913379737044)" d="M17.25 2.51C23.31 2.51 28.22-2.41 28.22-8.46C28.22-14.52 23.31-19.43 17.25-19.43C11.20-19.43 6.28-14.52 6.28-8.46C6.28-2.41 11.20 2.51 17.25 2.51ZM17.25 1.62C11.70 1.62 7.17-2.91 7.17-8.46C7.17-14.03 11.70-18.54 17.25-18.54C22.82-18.54 27.33-14.03 27.33-8.46C27.33-2.91 22.82 1.62 17.25 1.62ZM2.10-8.46C2.10-4.92 3.32-1.66 5.34 0.91C5.52 1.14 5.78 1.16 5.99 0.98C6.19 0.82 6.21 0.56 6.05 0.34C4.14-2.06 2.99-5.13 2.99-8.46C2.99-11.79 4.14-14.86 6.05-17.29C6.21-17.48 6.18-17.74 5.99-17.91C5.79-18.07 5.51-18.05 5.34-17.84C3.32-15.26 2.10-12.01 2.10-8.46ZM32.40-8.46C32.40-12.01 31.18-15.26 29.16-17.84C29.00-18.05 28.71-18.07 28.51-17.91C28.32-17.74 28.29-17.48 28.45-17.29C30.36-14.86 31.51-11.79 31.51-8.46C31.51-5.13 30.36-2.06 28.45 0.34C28.29 0.56 28.31 0.82 28.51 0.98C28.72 1.16 28.99 1.14 29.16 0.91C31.18-1.66 32.40-4.92 32.40-8.46ZM12.23-7.55C12.23-7.35 12.39-7.23 12.59-7.23L16.62-7.23L14.44-1.34C14.23-0.81 14.78-0.53 15.12-0.95L21.62-9.12C21.73-9.26 21.77-9.38 21.77-9.47C21.77-9.67 21.62-9.79 21.42-9.79L17.39-9.79L19.57-15.68C19.78-16.21 19.23-16.49 18.89-16.07L12.39-7.90C12.28-7.75 12.23-7.64 12.23-7.55Z" fill="currentColor"/>
</svg>