<svg xmlns="http://www.w3.org/2000/svg" viewBox="0 0 24 24" width="24" height="24">
  <title>bolt.batteryblock.fill</title>
  <path transform="matrix(0.735632183908046, 0, 0, 0.735632183908046, -0.1982758620689653, 18.21551724137931)" d="M6.15 1.17L27.02 1.17C29.10 1.17 30.18 0.07 30.18-1.97L30.18-11.93C30.18-13.97 29.10-15.08 27.02-15.08L24.97-15.08L24.97-16.92C24.97-17.64 24.57-18.07 23.79-18.07L21.18-18.07C20.39-18.07 19.99-17.64 19.99-16.92L19.99-15.08L13.18-15.08L13.18-16.92C13.18-17.64 12.77-18.07 12-18.07L9.38-18.07C8.60-18.07 8.19-17.64 8.19-16.92L8.19-15.08L6.15-15.08C4.08-15.08 2.99-14.00 2.99-11.93L2.99-1.97C2.99 0.09 4.08 1.17 6.15 1.17ZM12.89-6.08C12.89-6.16 12.93-6.25 13.00-6.35L18.02-12.67C18.29-13.00 18.71-12.79 18.56-12.38L16.86-7.83L19.99-7.83C20.14-7.83 20.26-7.72 20.26-7.58C20.26-7.50 20.21-7.41 20.13-7.30L15.12-1.00C14.85-0.67 14.43-0.88 14.59-1.29L16.28-5.85L13.16-5.85C13.01-5.85 12.89-5.94 12.89-6.08Z" fill="currentColor"/>
</svg>