<svg xmlns="http://www.w3.org/2000/svg" viewBox="0 0 24 24" width="24" height="24">
  
  <path transform="matrix(0.7182940516273849, 0, 0, 0.7182940516273849, 0.4932659932659933, 18.54040404040404)" d="M24.15 0.34C27.42 0.34 29.94-1.89 29.94-4.80C29.94-7.09 28.70-9.13 26.36-9.89C26.53-14.86 23.03-18.55 18.55-18.55C15.34-18.55 13.21-16.77 12.04-14.60C9.34-15.73 6.25-13.55 6.28-10.41C3.79-10.22 2.10-8.12 2.10-5.41C2.10-2.18 4.84 0.32 8.50 0.32ZM8.60-5.85L12.70-11.10C12.82-11.24 12.95-11.30 13.08-11.30C13.17-11.30 13.28-11.27 13.37-11.21L18.95-8.21L22.97-10.50C23.40-10.75 23.71-10.37 23.43-10.00L19.36-4.75C19.25-4.61 19.13-4.55 18.98-4.55C18.88-4.55 18.77-4.57 18.67-4.64L13.13-7.63L9.07-5.33C8.67-5.11 8.31-5.46 8.60-5.85Z" fill="currentColor"/>
</svg>