<svg xmlns="http://www.w3.org/2000/svg" viewBox="0 0 24 24" width="24" height="24">
  
  <path transform="matrix(0.9642184557438794, 0, 0, 0.9642184557438794, -0.8813559322033897, 20.15819209039548)" d="M6.15 1.91L20.58 1.91C22.65 1.91 23.73 0.81 23.73-1.24L23.73-15.68C23.73-17.73 22.65-18.83 20.58-18.83L6.15-18.83C4.08-18.83 2.99-17.75 2.99-15.68L2.99-1.24C2.99 0.83 4.08 1.91 6.15 1.91ZM6.18 1.04C4.65 1.04 3.86 0.25 3.86-1.28L3.86-15.63C3.86-17.17 4.65-17.96 6.18-17.96L20.54-17.96C22.02-17.96 22.86-17.17 22.86-15.63L22.86-1.28C22.86 0.25 22.02 1.04 20.54 1.04ZM8.10-7.49C8.10-7.29 8.25-7.16 8.47-7.16L12.70-7.16L10.41-0.96C10.20-0.42 10.76-0.12 11.12-0.56L17.95-9.14C18.07-9.29 18.12-9.41 18.12-9.52C18.12-9.71 17.96-9.84 17.74-9.84L13.51-9.84L15.81-16.04C16.02-16.58 15.45-16.89 15.08-16.44L8.25-7.86C8.14-7.71 8.10-7.59 8.10-7.49Z" fill="currentColor"/>
</svg>