<svg xmlns="http://www.w3.org/2000/svg" viewBox="0 0 24 24" width="24" height="24">
  <title>books.vertical.fill</title>
  <path transform="matrix(0.7963513747461161, 0, 0, 0.7963513747461161, -0.3797218815655423, 18.75762455228392)" d="M18.48 3.95L20.74 3.95C21.79 3.95 22.24 3.41 22.24 2.44L22.24-13.31L23.75 2.66C23.85 3.62 24.34 4.10 25.38 4.02L26.73 3.89C27.77 3.81 28.18 3.22 28.09 2.25L26.39-15.91C26.30-16.89 25.79-17.38 24.75-17.29L23.40-17.14C22.84-17.09 22.46-16.90 22.24-16.58L22.24-19.49C22.24-20.46 21.79-21 20.74-21L18.48-21C17.43-21 16.97-20.46 16.97-19.49L16.97 2.44C16.97 3.41 17.43 3.95 18.48 3.95ZM4.50 3.95L6.26 3.95C7.31 3.95 7.77 3.41 7.77 2.44L7.77-16.79C7.77-17.77 7.31-18.30 6.26-18.30L4.50-18.30C3.45-18.30 2.99-17.77 2.99-16.79L2.99 2.44C2.99 3.41 3.45 3.95 4.50 3.95ZM10.28 3.95L14.46 3.95C15.52 3.95 15.97 3.41 15.97 2.44L15.97-12.88C15.97-13.85 15.52-14.39 14.46-14.39L10.28-14.39C9.22-14.39 8.77-13.85 8.77-12.88L8.77 2.44C8.77 3.41 9.22 3.95 10.28 3.95ZM10.88-11.14C10.64-11.14 10.48-11.32 10.48-11.54C10.48-11.75 10.64-11.92 10.88-11.92L13.86-11.92C14.10-11.92 14.26-11.75 14.26-11.54C14.26-11.32 14.10-11.14 13.86-11.14ZM10.88 1.49C10.64 1.49 10.48 1.31 10.48 1.09C10.48 0.88 10.64 0.70 10.88 0.70L13.86 0.70C14.10 0.70 14.26 0.88 14.26 1.09C14.26 1.31 14.10 1.49 13.86 1.49Z" fill="currentColor"/>
</svg>