<svg xmlns="http://www.w3.org/2000/svg" viewBox="0 0 24 24" width="24" height="24">
  
  <path transform="matrix(0.7369027058146229, 0, 0, 0.7369027058146229, 0.4542314335060449, 18.23488773747841)" d="M7.65-3.57C10.58-3.57 12.12-5.52 12.12-7.76C12.12-8.65 11.77-9.57 11.13-10.20C10.95-10.37 10.85-10.46 10.85-10.66C10.85-10.90 11.02-11.07 11.27-11.07C11.45-11.07 11.55-11.03 11.72-10.89C12.18-10.49 12.54-9.86 12.75-9.14C14.55-9.59 15.38-10.72 15.38-12.64C15.38-12.89 15.57-13.08 15.81-13.08C16.04-13.08 16.24-12.89 16.24-12.64C16.27-10.32 15.16-8.86 12.95-8.32C12.96-8.13 12.98-7.95 12.98-7.75C12.98-5.87 12.09-4.38 10.59-3.49C11.74-2.43 13.35-1.90 15.08-1.90C15.41-1.90 15.84-1.93 16.56-1.99C16.41-2.40 16.35-2.86 16.35-3.30C16.35-9.43 24.66-8.00 24.66-14.32C24.66-16.68 22.58-18.38 20.14-18.38C19.75-18.39 19.24-18.30 18.77-18.14C18.08-19.44 16.71-20.12 15.29-20.12C12.87-20.12 11.14-18.43 11.05-16.08C11.05-15.83 10.85-15.64 10.62-15.64C10.37-15.64 10.18-15.84 10.18-16.13C10.24-17.06 10.49-17.89 10.90-18.59C10.28-18.82 9.62-18.94 8.96-18.94C6.32-18.94 4.65-17.17 4.65-15.28C4.65-13.80 5.70-12.43 7.71-12.43C7.95-12.43 8.16-12.22 8.16-12C8.16-11.77 7.95-11.57 7.71-11.57C5.73-11.57 4.48-12.59 3.98-13.93C2.82-12.77 2.10-11.06 2.10-9.39C2.10-5.99 4.37-3.57 7.65-3.57ZM24.34 3.20C26.59 3.20 27.77 0.28 27.77-3.68C27.77-4.21 27.75-4.72 27.71-5.23C26.86-4.77 25.82-4.51 24.62-4.54C24.38-4.55 24.19-4.73 24.19-4.97C24.19-5.21 24.38-5.41 24.62-5.40C27.39-5.36 29.24-7.00 29.24-9.49C29.24-11.86 27.81-13.64 25.59-14.24C25.23-7.38 17.24-8.52 17.19-3.36C17.17-1.76 18.38-0.49 20.34-0.49C20.91-0.49 21.14-0.50 21.46-0.53C21.61 1.64 22.71 3.20 24.34 3.20Z" fill="currentColor"/>
</svg>