<svg xmlns="http://www.w3.org/2000/svg" viewBox="0 0 24 24" width="24" height="24">
  
  <path transform="matrix(0.8703042665306816, 0, 0, 0.8703042665306816, 0.17440081591024992, 19.36868944416114)" d="M2.10-8.46C2.10-2.16 7.28 3.02 13.59 3.02C19.90 3.02 25.08-2.16 25.08-8.46C25.08-14.78 19.90-19.96 13.58-19.96C7.28-19.96 2.10-14.78 2.10-8.46ZM2.99-8.44L13.58-8.44L8.29-17.64C9.84-18.55 11.66-19.07 13.58-19.07C15.52-19.07 17.34-18.55 18.90-17.64L13.58-8.44L24.19-8.44C24.18-4.52 22.05-1.11 18.89 0.71L13.58-8.44L8.30 0.73C5.13-1.11 3-4.54 2.99-8.44Z" fill="currentColor"/>
</svg>