<svg xmlns="http://www.w3.org/2000/svg" viewBox="0 0 24 24" width="24" height="24">
  
  <path transform="matrix(0.9642184557438794, 0, 0, 0.9642184557438794, -0.8813559322033897, 20.15819209039548)" d="M6.15 1.91L20.58 1.91C22.65 1.91 23.73 0.81 23.73-1.24L23.73-15.68C23.73-17.73 22.65-18.83 20.58-18.83L6.15-18.83C4.08-18.83 2.99-17.75 2.99-15.68L2.99-1.24C2.99 0.83 4.08 1.91 6.15 1.91ZM13.36-2.10C9.86-2.10 7.02-4.93 7.02-8.44C7.02-11.94 9.86-14.78 13.36-14.78C16.86-14.78 19.70-11.94 19.70-8.44C19.70-4.93 16.86-2.10 13.36-2.10ZM13.36-2.93C16.41-2.93 18.87-5.39 18.87-8.44C18.87-11.48 16.41-13.95 13.36-13.95C10.31-13.95 7.85-11.48 7.85-8.44C7.85-5.39 10.31-2.93 13.36-2.93ZM13.36-3.91C10.86-3.91 8.84-5.94 8.84-8.44C8.84-10.93 10.86-12.96 13.36-12.96C15.86-12.96 17.88-10.93 17.88-8.44C17.88-5.94 15.86-3.91 13.36-3.91Z" fill="currentColor"/>
</svg>