<svg xmlns="http://www.w3.org/2000/svg" viewBox="0 0 24 24" width="24" height="24">
  
  <path transform="matrix(0.7775246772968869, 0, 0, 0.7775246772968869, -0.3234624145785876, 19.649202733485197)" d="M18.63-14.53L16.31-14.53L16.31-20.37C16.31-20.64 16.11-20.82 15.86-20.82C15.59-20.82 15.40-20.64 15.40-20.37L15.40-14.53L13.07-14.53C12.54-14.53 12.32-13.95 12.67-13.54L15.34-10.28C15.61-9.95 16.07-9.93 16.36-10.28L19.04-13.54C19.38-13.95 19.18-14.53 18.63-14.53ZM8.04-1.80L23.66-1.80C26.63-1.80 28.71-3.80 28.71-6.69C28.71-9.60 26.63-11.59 23.66-11.59L18.82-11.59L17.17-9.61C16.45-8.74 15.22-8.79 14.54-9.62L12.88-11.59L8.04-11.59C5.07-11.59 2.99-9.60 2.99-6.69C2.99-3.80 5.07-1.80 8.04-1.80ZM8.04 1.15L23.66 1.15C26.29 1.15 28.24-0.48 28.71-3.22C27.63-1.70 25.83-0.76 23.66-0.76L8.04-0.76C5.87-0.76 4.07-1.70 3-3.22C3.48-0.43 5.38 1.15 8.04 1.15Z" fill="currentColor"/>
</svg>