<svg xmlns="http://www.w3.org/2000/svg" viewBox="0 0 24 24" width="24" height="24">
  
  <path transform="matrix(0.9642184557438794, 0, 0, 0.9642184557438794, -0.8813559322033897, 20.15819209039548)" d="M6.15 1.91L20.58 1.91C22.65 1.91 23.73 0.81 23.73-1.24L23.73-15.68C23.73-17.73 22.65-18.83 20.58-18.83L6.15-18.83C4.08-18.83 2.99-17.75 2.99-15.68L2.99-1.24C2.99 0.83 4.08 1.91 6.15 1.91ZM13.46-3.06C10.70-3.06 8.82-5.25 8.82-8.47C8.82-11.70 10.70-13.89 13.46-13.89C15.43-13.89 17.16-12.69 17.50-11.10C17.53-10.89 17.53-10.82 17.53-10.73C17.53-10.44 17.40-10.28 17.12-10.28C16.91-10.28 16.77-10.39 16.71-10.65C16.46-12.11 15.18-13.08 13.46-13.08C11.27-13.08 9.74-11.18 9.74-8.47C9.74-5.77 11.27-3.88 13.46-3.88C15.18-3.88 16.44-4.84 16.71-6.29C16.77-6.55 16.91-6.67 17.12-6.67C17.40-6.67 17.53-6.50 17.53-6.22C17.53-6.13 17.53-6.06 17.50-5.85C17.17-4.23 15.47-3.06 13.46-3.06Z" fill="currentColor"/>
</svg>