<svg xmlns="http://www.w3.org/2000/svg" viewBox="0 0 24 24" width="24" height="24">
  <title>cable.connector</title>
  <path transform="matrix(0.7908557306147668, 0, 0, 0.7908557306147668, 6.759036144578313, 18.682113067655237)" d="M4.63-17.47L8.63-17.47L8.63-19.91C8.63-20.71 8.23-21.09 7.43-21.09L5.82-21.09C5.03-21.09 4.63-20.71 4.63-19.91ZM4.17-4.83L6.07-4.83L6.07 4.20L7.20 4.20L7.20-4.83L9.08-4.83C9.88-4.83 10.27-5.21 10.27-6.01L10.27-15.29C10.27-16.09 9.88-16.48 9.08-16.48L4.17-16.48C3.39-16.48 2.99-16.09 2.99-15.29L2.99-6.01C2.99-5.21 3.39-4.83 4.17-4.83Z" fill="currentColor"/>
</svg>