<svg xmlns="http://www.w3.org/2000/svg" viewBox="0 0 24 24" width="24" height="24">
  <title>cable.connector.slash</title>
  <path transform="matrix(0.7908557306147668, 0, 0, 0.7908557306147668, 6.763608160860491, 18.682113067655237)" d="M4.63-17.47L8.63-17.47L8.63-19.91C8.63-20.71 8.23-21.09 7.43-21.09L5.82-21.09C5.03-21.09 4.63-20.71 4.63-19.91ZM14.86 0.59C15.04 0.75 15.30 0.75 15.47 0.59C15.62 0.42 15.64 0.14 15.47-0.02L-1.61-17.11C-1.76-17.25-2.05-17.27-2.23-17.11C-2.39-16.95-2.39-16.66-2.23-16.50ZM10.27-6.63L10.27-15.29C10.27-16.09 9.87-16.48 9.08-16.48L4.17-16.48C3.45-16.48 3.05-16.13 3.01-15.45L3.01-13.89ZM6.07 4.20L7.18 4.20L7.18-4.70L8.18-4.70L2.99-9.89L2.99-6.01C2.99-5.21 3.38-4.83 4.17-4.83L6.07-4.83Z" fill="currentColor"/>
</svg>