<svg xmlns="http://www.w3.org/2000/svg" viewBox="0 0 24 24" width="24" height="24">
  <title>camera.macro.slash</title>
  <path transform="matrix(0.7997500781005936, 0, 0, 0.7997500781005936, 0.4577423503851119, 18.47141518275539)" d="M15.18-9.13C19.03-9.43 21.71-12.41 21.71-16.37C21.71-17.63 21.45-18.88 20.91-20.11C20.80-20.36 20.53-20.40 20.31-20.17L17.30-17.11L14.73-20.44C14.57-20.65 14.32-20.65 14.14-20.44L11.59-17.11L8.58-20.17C8.36-20.40 8.07-20.36 7.97-20.11C7.54-19.10 7.28-18.09 7.22-17.06ZM25.92 4.29C26.09 4.45 26.37 4.45 26.53 4.29C26.71 4.10 26.70 3.84 26.53 3.68L3.43-19.41C3.27-19.56 3-19.58 2.81-19.41C2.65-19.24 2.65-18.96 2.81-18.80ZM14.44 3.76C17.12 3.76 19.64 2.93 21.69 1.54L18-2.18C16.63-0.94 15.50 0.74 14.87 2.65L14.87-5.31L14.00-6.18L14.00 3.32C14.00 3.59 14.18 3.76 14.44 3.76ZM23.96-0.34C25.21-1.65 26.16-3.21 26.73-4.91C26.84-5.25 26.71-5.47 26.38-5.47C24.19-5.47 22.15-4.92 20.37-3.93ZM13.00 3.67C12.97 3.56 12.96 3.43 12.96 3.32L12.96 0.47C10.86-3.14 6.94-5.47 2.48-5.47C2.17-5.47 2.03-5.25 2.13-4.91C3.63-0.39 7.89 3.13 13.00 3.67Z" fill="currentColor"/>
</svg>