<svg xmlns="http://www.w3.org/2000/svg" viewBox="0 0 24 24" width="24" height="24">
  
  <path transform="matrix(0.8550434201736807, 0, 0, 0.8550434201736807, 0.20641282565130248, 19.19438877755511)" d="M9.41 2.68C11.05 2.68 12.57 2.13 13.79 1.22C15.01 2.13 16.54 2.68 18.18 2.68C22.21 2.68 25.49-0.60 25.49-4.63C25.49-7.64 23.65-10.24 21.05-11.36C21.07-11.64 21.09-11.92 21.09-12.21C21.09-16.23 17.81-19.51 13.78-19.51C9.75-19.51 6.47-16.23 6.47-12.21C6.47-11.92 6.49-11.63 6.52-11.34C3.93-10.22 2.10-7.63 2.10-4.63C2.10-0.60 5.38 2.68 9.41 2.68ZM9.41-11.94C8.70-11.94 8.02-11.84 7.36-11.65C7.35-11.84 7.34-12.02 7.34-12.21C7.34-15.76 10.22-18.64 13.78-18.64C17.33-18.64 20.23-15.77 20.23-12.21C20.23-12.02 20.21-11.84 20.20-11.66C19.56-11.85 18.88-11.94 18.18-11.94C16.54-11.94 15.01-11.39 13.79-10.48C12.57-11.39 11.05-11.94 9.41-11.94ZM9.41-11.07C10.79-11.07 12.07-10.64 13.11-9.90C12.13-8.95 11.40-7.72 11.07-6.35C9.28-7.18 7.93-8.81 7.50-10.78C8.10-10.97 8.74-11.07 9.41-11.07ZM18.18-11.07C18.83-11.07 19.46-10.98 20.06-10.79C19.63-8.82 18.29-7.21 16.51-6.36C16.17-7.73 15.46-8.95 14.47-9.90C15.52-10.64 16.79-11.07 18.18-11.07ZM18.18 1.82C16.79 1.82 15.52 1.38 14.47 0.64C15.86-0.69 16.72-2.57 16.72-4.63C16.72-4.92 16.70-5.20 16.68-5.48C18.75-6.39 20.34-8.24 20.88-10.48C23.09-9.46 24.62-7.23 24.62-4.63C24.62-1.08 21.75 1.82 18.18 1.82ZM9.41 1.82C5.85 1.82 2.96-1.07 2.96-4.63C2.96-7.21 4.49-9.43 6.68-10.46C7.23-8.21 8.82-6.38 10.91-5.48C10.89-5.20 10.86-4.92 10.86-4.63C10.86-2.57 11.73-0.69 13.11 0.64C12.07 1.38 10.79 1.82 9.41 1.82ZM13.78-5.77C13.13-5.77 12.49-5.86 11.89-6.05C12.18-7.34 12.86-8.48 13.79-9.35C14.73-8.48 15.41-7.34 15.69-6.05C15.09-5.86 14.45-5.77 13.78-5.77ZM13.78-4.90C14.50-4.90 15.18-4.99 15.83-5.19C15.84-5.00 15.86-4.82 15.86-4.63C15.86-2.77 15.06-1.09 13.79 0.09C12.53-1.08 11.73-2.77 11.73-4.63C11.73-4.82 11.74-5.00 11.75-5.18C12.40-4.99 13.08-4.90 13.78-4.90Z" fill="currentColor"/>
</svg>