<svg xmlns="http://www.w3.org/2000/svg" viewBox="0 0 24 24" width="24" height="24">
  <title>car.2.fill</title>
  <path transform="matrix(0.5647474078976396, 0, 0, 0.5647474078976396, 0.31237590999338183, 16.685638649900728)" d="M4.45 2.11L5.77 2.11C6.59 2.11 7.22 1.48 7.22 0.66L7.22-1.21C8.25-1.14 9.47-1.09 10.73-1.03L10.73-5.64C10.73-7.72 11.24-8.72 12.14-9.90L13.17-11.24L13.34-11.77C10.86-11.73 9.28-11.66 7.75-11.55C7.31-11.52 7.21-11.77 7.28-12.07C7.63-13.70 8.17-15.16 8.54-15.82C8.91-16.44 9.41-16.84 10.31-16.97C11.10-17.07 12.71-17.12 15.04-17.14C15.35-17.80 15.68-18.23 16.30-18.70C13.08-18.69 10.86-18.63 10.15-18.54C8.84-18.39 7.65-17.74 7.03-16.43C6.63-15.57 5.86-13.35 5.44-11.24L4.39-9.90C3.50-8.72 2.99-7.72 2.99-5.64L2.99 0.66C2.99 1.48 3.63 2.11 4.45 2.11ZM13.24 2.11L14.54 2.11C15.38 2.11 16.01 1.48 16.01 0.66L16.01-1.21C18.59-1.04 22.25-0.93 25.09-0.93C27.93-0.93 31.61-1.04 34.17-1.21L34.17 0.66C34.17 1.48 34.82 2.11 35.64 2.11L36.94 2.11C37.77 2.11 38.40 1.48 38.40 0.66L38.40-5.64C38.40-7.72 37.90-8.72 37.00-9.90L35.95-11.24C35.53-13.35 34.76-15.57 34.36-16.43C33.74-17.74 32.55-18.36 31.24-18.54C30.43-18.64 27.76-18.70 25.09-18.70C22.42-18.70 19.75-18.64 18.94-18.54C17.64-18.36 16.44-17.74 15.83-16.43C15.42-15.57 14.65-13.35 14.23-11.24L13.20-9.90C12.29-8.72 11.78-7.72 11.78-5.64L11.78 0.66C11.78 1.48 12.42 2.11 13.24 2.11ZM16.07-12.09C16.42-13.72 16.96-15.19 17.33-15.84C17.70-16.46 18.20-16.88 19.10-16.99C20.04-17.11 22.14-17.17 25.09-17.17C28.05-17.17 30.15-17.12 31.08-16.99C31.98-16.88 32.48-16.46 32.85-15.84C33.23-15.19 33.74-13.72 34.11-12.09C34.18-11.79 34.08-11.54 33.64-11.58C31.57-11.72 29.38-11.80 25.09-11.80C20.80-11.80 18.61-11.72 16.54-11.58C16.11-11.54 16.01-11.79 16.07-12.09ZM7.41-4.29C6.54-4.29 5.89-4.93 5.89-5.80C5.89-6.67 6.54-7.31 7.41-7.31C8.27-7.31 8.91-6.67 8.91-5.80C8.91-4.93 8.27-4.29 7.41-4.29ZM16.64-4.16C15.75-4.16 15.09-4.82 15.09-5.70C15.09-6.59 15.75-7.24 16.64-7.24C17.53-7.24 18.19-6.59 18.19-5.70C18.19-4.82 17.53-4.16 16.64-4.16ZM33.54-4.16C32.66-4.16 32.00-4.82 32.00-5.70C32.00-6.59 32.66-7.24 33.54-7.24C34.43-7.24 35.09-6.59 35.09-5.70C35.09-4.82 34.43-4.16 33.54-4.16ZM22.20-4.36C21.54-4.36 21.11-4.79 21.11-5.45C21.11-6.11 21.54-6.54 22.20-6.54L27.98-6.54C28.64-6.54 29.07-6.11 29.07-5.45C29.07-4.79 28.64-4.36 27.98-4.36Z" fill="currentColor"/>
</svg>