<svg xmlns="http://www.w3.org/2000/svg" viewBox="0 0 24 24" width="24" height="24">
  
  <path transform="matrix(0.6946140279473613, 0, 0, 0.6946140279473613, -0.07570207570207588, 17.881155881155884)" d="M23.40-18.71L22.54-18.71L22.54-10.27C22.54-8.57 20.79-7.80 17.39-7.80C13.98-7.80 12.20-8.57 12.20-10.27L12.20-18.71L11.34-18.71L11.34-10.25C11.34-7.98 13.46-6.95 17.39-6.95C21.30-6.95 23.40-7.98 23.40-10.25ZM17.38-9.94C20.55-9.94 21.50-10.38 21.36-11.74L21.28-12.54C21.16-13.64 20.26-14.00 17.38-14.00C14.48-14.00 13.58-13.64 13.46-12.54L13.38-11.74C13.24-10.38 14.20-9.94 17.38-9.94ZM5.37-5.11C4.37-6.50 3.89-8.11 3.84-9.73C3.84-10.01 3.66-10.16 3.42-10.16C3.19-10.16 2.99-10.00 2.99-9.73C3.01-7.90 3.59-6.15 4.65-4.62C5.72-3.09 7.18-1.95 8.88-1.30C9.13-1.22 9.33-1.34 9.42-1.51C9.53-1.75 9.45-2.00 9.19-2.11C7.68-2.71 6.34-3.70 5.37-5.11ZM29.40-5.11C28.43-3.70 27.09-2.71 25.59-2.11C25.32-2.00 25.24-1.75 25.35-1.51C25.44-1.34 25.64-1.22 25.89-1.30C27.59-1.95 29.05-3.09 30.12-4.62C31.18-6.15 31.76-7.90 31.78-9.73C31.78-10.00 31.58-10.16 31.36-10.16C31.11-10.16 30.93-10.01 30.94-9.73C30.88-8.11 30.40-6.50 29.40-5.11ZM8.58-7.36C8.04-8.13 7.76-8.92 7.75-9.71C7.70-10.03 7.49-10.18 7.23-10.15C7.04-10.11 6.88-9.95 6.89-9.71C6.95-8.71 7.27-7.73 7.86-6.87C8.48-6.02 9.29-5.38 10.18-4.99C10.44-4.89 10.68-4.99 10.76-5.19C10.85-5.40 10.77-5.64 10.51-5.75C9.76-6.08 9.12-6.60 8.58-7.36ZM26.19-7.36C25.65-6.60 25.01-6.08 24.27-5.75C24.01-5.64 23.92-5.40 24.01-5.19C24.09-4.99 24.33-4.89 24.60-4.99C25.49-5.38 26.30-6.02 26.91-6.87C27.50-7.73 27.82-8.71 27.88-9.71C27.89-9.95 27.73-10.11 27.54-10.15C27.28-10.18 27.07-10.03 27.04-9.71C27.01-8.92 26.73-8.13 26.19-7.36ZM17.39-3C16.45-3 15.64-3.23 14.96-3.67C14.71-3.82 14.47-3.75 14.36-3.55C14.24-3.36 14.29-3.11 14.51-2.96C15.34-2.45 16.34-2.14 17.39-2.14C18.43-2.14 19.43-2.45 20.26-2.96C20.48-3.11 20.52-3.36 20.40-3.55C20.30-3.74 20.05-3.81 19.79-3.67C19.13-3.22 18.32-3 17.39-3ZM17.39 0.93C15.68 0.93 14.09 0.41 12.73-0.49C12.50-0.64 12.25-0.56 12.12-0.38C12-0.19 12.04 0.07 12.25 0.21C13.75 1.23 15.53 1.78 17.39 1.78C19.24 1.78 21.02 1.23 22.52 0.21C22.73 0.07 22.76-0.19 22.64-0.38C22.52-0.56 22.28-0.64 22.03-0.48C20.68 0.41 19.10 0.93 17.39 0.93Z" fill="currentColor"/>
</svg>