<svg xmlns="http://www.w3.org/2000/svg" viewBox="0 0 24 24" width="24" height="24">
  <title>car.top.video.rear.left.fill</title>
  <path transform="matrix(0.621057738961669, 0, 0, 0.621057738961669, 3.2663755458515293, 17.356622998544395)" d="M17.87-2.44C21.80-2.44 23.91-3.47 23.91-5.74L23.91-16.51L24.39-16.51C24.83-16.51 25.14-16.77 25.14-17.14L25.14-17.65C25.14-18.04 24.83-18.30 24.39-18.30L23.91-18.30L23.91-20.96C23.91-23.36 21.70-24.73 17.87-24.73C14.05-24.73 11.86-23.36 11.86-20.96L11.86-18.30L11.39-18.30C10.93-18.30 10.65-18.04 10.65-17.65L10.65-17.14C10.65-16.77 10.93-16.51 11.39-16.51L11.86-16.51L11.86-5.74C11.86-3.47 13.96-2.44 17.87-2.44ZM17.88-15.38C16.90-15.38 15.50-15.29 15.04-15.29C14.32-15.29 13.98-15.57 13.91-16.36L13.78-17.82C13.68-19.16 14.30-19.79 17.88-19.79C21.47-19.79 22.10-19.16 22.00-17.82L21.87-16.36C21.80-15.57 21.46-15.29 20.73-15.29C20.27-15.29 18.67-15.38 17.88-15.38ZM17.88-5.38C14.70-5.38 13.72-5.82 13.86-7.20L13.96-8.00C14.07-9.11 14.98-9.48 17.88-9.48C20.79-9.48 21.69-9.11 21.82-8.00L21.90-7.20C22.04-5.82 21.08-5.38 17.88-5.38ZM11.09 1.07L13.03 0.86C13.21 0.84 13.36 0.80 13.46 0.69C13.64 0.52 13.64 0.26 13.43 0.05L10.42-2.96C10.21-3.18 9.95-3.19 9.77-3C9.67-2.89 9.62-2.74 9.60-2.57L9.40-0.63ZM8.14 7.02L11.33 3.83C11.94 3.22 11.94 2.54 11.34 1.95L8.52-0.88C7.91-1.49 7.25-1.49 6.64-0.88L3.45 2.32C2.84 2.92 2.84 3.60 3.45 4.21L6.26 7.02C6.87 7.63 7.54 7.63 8.14 7.02Z" fill="currentColor"/>
</svg>