<svg xmlns="http://www.w3.org/2000/svg" viewBox="0 0 24 24" width="24" height="24">
  
  <path transform="matrix(0.7511737089201878, 0, 0, 0.7511737089201878, -0.244718309859155, 18.232394366197184)" d="M2.99-3.02C2.99-2.26 3.19-1.68 3.59-1.28L3.59 0.66C3.59 1.46 4.23 2.11 5.05 2.11L6.35 2.11C7.17 2.11 7.82 1.48 7.82 0.66L7.82-0.69L24.79-0.69L24.79 0.66C24.79 1.48 25.42 2.11 26.25 2.11L27.55 2.11C28.37 2.11 29.02 1.48 29.02 0.66L29.02-1.28C29.40-1.68 29.61-2.26 29.61-3.02L29.61-6.33C29.61-8.43 29.13-9.43 28.20-10.59L27.13-11.94L25.80-15.67C25.14-17.57 24.02-18.35 22.45-18.54C21.64-18.64 18.97-18.70 16.30-18.70C13.63-18.70 10.96-18.64 10.15-18.54C8.58-18.35 7.46-17.57 6.80-15.67L5.47-11.94L4.39-10.59C3.47-9.43 2.99-8.43 2.99-6.33ZM3.79-3.12L3.79-6.33C3.79-7.99 4.05-8.85 5.04-10.11L6.21-11.60L7.49-15.32C8.05-16.95 8.94-17.58 10.24-17.73C10.97-17.82 13.44-17.91 16.30-17.91C19.16-17.91 21.62-17.82 22.35-17.73C23.66-17.58 24.55-16.95 25.11-15.32L26.39-11.60L27.56-10.11C28.55-8.85 28.82-7.99 28.82-6.33L28.82-3.12C28.82-2.07 28.28-1.49 27.19-1.49L5.41-1.49C4.32-1.49 3.79-2.07 3.79-3.12ZM8.16-12.18L24.45-12.18C24.90-12.18 25.09-12.55 24.93-13.02L24.21-15.06C23.82-16.20 23.24-16.69 22.18-16.82C21.28-16.93 19.51-16.98 16.30-16.98C13.09-16.98 11.32-16.93 10.41-16.82C9.36-16.69 8.78-16.20 8.38-15.06L7.68-13.02C7.51-12.55 7.70-12.18 8.16-12.18ZM6.84-4.86C7.41-4.86 7.82-5.27 7.82-5.85L7.82-7.76C7.82-8.32 7.41-8.73 6.84-8.73C6.26-8.73 5.85-8.32 5.85-7.76L5.85-5.85C5.85-5.27 6.26-4.86 6.84-4.86ZM25.78-4.86C26.37-4.86 26.78-5.27 26.78-5.85L26.78-7.76C26.78-8.32 26.37-8.73 25.78-8.73C25.23-8.73 24.81-8.31 24.81-7.76L24.81-5.85C24.81-5.29 25.23-4.86 25.78-4.86ZM13.56-5.31L18.91-5.31C19.36-5.31 19.63-5.59 19.63-6.06L19.63-7.56C19.63-8.03 19.36-8.30 18.91-8.30L13.56-8.30C13.13-8.30 12.86-8.03 12.86-7.56L12.86-6.06C12.86-5.59 13.13-5.31 13.56-5.31Z" fill="currentColor"/>
</svg>