<svg xmlns="http://www.w3.org/2000/svg" viewBox="0 0 24 24" width="24" height="24">
  <title>carseat.left.3</title>
  <path transform="matrix(0.816998933061884, 0, 0, 0.816998933061884, -0.44107505982880824, 18.912576910203285)" d="M3.13-1.21C3.98 2.24 5.24 3.28 7.32 3.28L19.99 3.28C21.50 3.28 22.59 2.38 22.97 0.84L27.34-16.99C27.86-19.13 26.74-20.20 25.24-20.20C23.43-20.20 21.70-18.67 22.14-15.76C19.38-14.04 17.77-9.64 18.11-4.80C15.67-5.25 12.82-5.48 9.93-5.48C4.54-5.48 2.39-4.22 3.13-1.21ZM8.67-10.18C10.55-10.18 11.85-11.27 11.85-12.82C11.85-13.97 10.96-14.92 9.76-15.08C10.77-15.32 11.52-16.24 11.52-17.29C11.52-18.62 10.34-19.62 8.68-19.62C7.30-19.62 6.08-18.88 5.88-17.73C5.87-17.64 5.86-17.53 5.86-17.43C5.86-17.18 6.02-17.03 6.25-17.03C6.47-17.03 6.61-17.13 6.64-17.38C6.79-18.28 7.62-18.88 8.67-18.88C9.87-18.88 10.68-18.21 10.68-17.20C10.68-16.20 9.82-15.43 8.71-15.43L7.88-15.43C7.68-15.43 7.50-15.28 7.50-15.06C7.50-14.84 7.64-14.68 7.88-14.68L8.80-14.68C10.07-14.68 11.00-13.89 11.00-12.83C11.00-11.70 10.07-10.92 8.68-10.92C7.57-10.92 6.64-11.53 6.43-12.42C6.38-12.63 6.22-12.73 6.04-12.73C5.84-12.73 5.66-12.59 5.66-12.33C5.66-12.25 5.66-12.19 5.68-12.11C5.88-11.00 7.27-10.18 8.67-10.18ZM3.96-1.43C3.40-3.69 5.05-4.61 9.93-4.61C13.20-4.61 16.20-4.27 18.21-3.91C18.69-3.86 18.97-4.11 18.95-4.61C18.62-9.18 20.13-13.58 22.76-15.13C23.04-15.30 23.03-15.46 22.98-15.82C22.71-18.20 23.94-19.34 25.22-19.34C26.14-19.34 26.86-18.62 26.51-17.17L22.14 0.62C21.86 1.75 21.06 2.40 19.99 2.40L7.32 2.40C5.75 2.40 4.75 1.70 3.96-1.43Z" fill="currentColor"/>
</svg>