<svg xmlns="http://www.w3.org/2000/svg" viewBox="0 0 24 24" width="24" height="24">
  
  <path transform="matrix(0.6280101765466342, 0, 0, 0.6280101765466342, 2.4371643786266635, 17.351905018862645)" d="M27.33-5.44C28.07-8.45 25.92-9.71 20.53-9.71C17.64-9.71 14.79-9.48 12.35-9.05C12.69-13.89 11.07-18.28 8.32-19.99C8.75-22.90 7.02-24.45 5.21-24.45C3.71-24.45 2.59-23.37 3.12-21.22L7.49-3.39C7.86-1.85 8.95-0.96 10.46-0.96L23.12-0.96C25.22-0.96 26.47-1.99 27.33-5.44ZM26.50-5.67C25.71-2.53 24.70-1.83 23.12-1.83L10.46-1.83C9.39-1.83 8.60-2.48 8.32-3.62L3.95-21.41C3.60-22.85 4.31-23.57 5.24-23.57C6.50-23.57 7.75-22.43 7.48-20.05C7.43-19.70 7.42-19.54 7.69-19.37C10.32-17.81 11.82-13.41 11.51-8.85C11.48-8.36 11.77-8.09 12.25-8.16C14.26-8.50 17.26-8.85 20.53-8.85C25.41-8.85 27.06-7.93 26.50-5.67ZM20.16 6.94C20.16 7.37 20.54 7.51 20.87 7.31L25.08 4.76C25.44 4.54 25.43 4.09 25.08 3.88L20.86 1.30C20.53 1.10 20.16 1.24 20.16 1.68ZM13.79 6.94L13.79 1.68C13.79 1.24 13.42 1.10 13.09 1.30L8.87 3.88C8.52 4.09 8.51 4.54 8.87 4.76L13.08 7.31C13.41 7.51 13.79 7.37 13.79 6.94Z" fill="currentColor"/>
</svg>