<svg xmlns="http://www.w3.org/2000/svg" viewBox="0 0 24 24" width="24" height="24">
  <title>carseat.left.fan.fill</title>
  <path transform="matrix(0.8187220299516453, 0, 0, 0.8187220299516453, -0.44622342498945944, 18.927155925294)" d="M3.13-1.21C3.98 2.24 5.24 3.28 7.32 3.28L19.95 3.28C21.46 3.28 22.55 2.38 22.92 0.84L27.28-16.99C27.82-19.20 26.66-20.20 25.29-20.20C23.59-20.20 21.84-18.73 22.28-15.79C19.38-14.07 17.75-9.64 18.15-4.78C15.73-5.24 12.86-5.48 9.93-5.48C4.54-5.48 2.39-4.22 3.13-1.21ZM3.88-12.49C3.88-10.84 5.32-9.22 6.87-9.22C8.10-9.22 8.81-10.22 9.27-12.30L9.74-12.34L9.74-9.98C9.74-9.11 10.17-8.66 11.03-8.66C12.67-8.66 14.29-10.10 14.29-11.65C14.29-12.89 13.29-13.58 11.20-14.05L11.17-14.52L13.52-14.52C14.41-14.52 14.85-14.96 14.85-15.81C14.85-17.46 13.42-19.08 11.87-19.08C10.63-19.08 9.93-18.08 9.47-15.98L9-15.96L9-18.32C9-19.20 8.57-19.64 7.72-19.64C6.06-19.64 4.44-18.20 4.44-16.65C4.44-15.42 5.45-14.72 7.52-14.26L7.55-13.78L5.21-13.78C4.32-13.78 3.88-13.35 3.88-12.49ZM9.36-12.96C8.71-12.96 8.17-13.50 8.17-14.16C8.17-14.81 8.71-15.34 9.36-15.34C10.02-15.34 10.56-14.81 10.56-14.16C10.56-13.50 10.02-12.96 9.36-12.96Z" fill="currentColor"/>
</svg>