<svg xmlns="http://www.w3.org/2000/svg" viewBox="0 0 24 24" width="24" height="24">
  <title>cart.fill</title>
  <path transform="matrix(0.7615647776290346, 0, 0, 0.7615647776290346, 0.17938420348058903, 17.82329317269076)" d="M2.39-18.45C2.39-18.23 2.55-18.04 2.79-18.04L7.28-18.04L9.35-4.02C9.54-2.77 10.20-2.00 11.48-2.00L25.61-2.00C25.82-2.00 26.00-2.18 26.00-2.41C26.00-2.65 25.82-2.82 25.61-2.82L11.67-2.82C10.84-2.82 10.35-3.30 10.21-4.20L9.90-6.12L25.36-6.12C26.79-6.12 27.39-6.90 27.59-8.25L28.62-14.86C28.63-14.96 28.65-15.16 28.65-15.22C28.65-15.64 28.41-15.90 27.93-15.90L8.43-15.90L8.07-18.22C8.02-18.63 7.85-18.86 7.25-18.86L2.79-18.86C2.55-18.86 2.39-18.67 2.39-18.45ZM11.33 1.83C11.33 2.80 12.11 3.56 13.07 3.56C14.04 3.56 14.80 2.80 14.80 1.83C14.80 0.86 14.04 0.09 13.07 0.09C12.11 0.09 11.33 0.86 11.33 1.83ZM21.82 1.83C21.82 2.80 22.61 3.56 23.58 3.56C24.54 3.56 25.31 2.80 25.31 1.83C25.31 0.86 24.54 0.09 23.58 0.09C22.61 0.09 21.82 0.86 21.82 1.83Z" fill="currentColor"/>
</svg>