<svg xmlns="http://www.w3.org/2000/svg" viewBox="0 0 24 24" width="24" height="24">
  
  <path transform="matrix(0.8703042665306816, 0, 0, 0.8703042665306816, 0.17440081591024992, 19.34829168791433)" d="M13.59 3.05C19.91 3.05 25.08-2.12 25.08-8.45C25.08-14.78 19.91-19.93 13.59-19.93C7.27-19.93 2.10-14.78 2.10-8.45C2.10-2.12 7.27 3.05 13.59 3.05ZM9.19-1.68C8.74-1.68 8.38-1.93 8.23-2.51L7.52-5.09C7.29-5.89 8.12-6.41 8.12-8.14C8.12-8.39 8.13-8.78 8.20-9.20C8.24-9.47 8.16-9.62 7.93-9.69C6.83-10.01 6.11-10.95 6.11-12.13C6.11-13.76 7.32-14.88 9.14-14.88C9.75-14.88 10.39-14.75 11.07-14.50C11.44-14.33 11.27-13.76 10.84-13.93C10.22-14.17 9.66-14.30 9.14-14.30C7.70-14.30 6.69-13.41 6.69-12.13C6.69-11.19 7.24-10.46 8.10-10.23C8.40-10.14 8.51-10.20 8.67-10.43C9.04-10.93 9.67-11.36 10.76-11.36C12.82-11.36 13.85-11.04 15.89-11.04C16.09-11.04 16.20-11.14 16.34-11.39L16.78-12.06C17.14-12.63 17.57-13.28 18.02-13.68C18.39-14.37 18.70-14.73 19.00-14.73C19.34-14.73 19.59-14.17 19.78-13.55C20.57-12.97 21.30-12.26 21.30-11.59C21.30-11.09 20.53-10.36 19.45-10.35C19.44-6.19 17.09-7.02 17.09-3.96L17.09-3.45C17.58-3.35 17.86-3.01 17.86-2.58C17.86-2.03 17.46-1.68 16.86-1.68L16.37-1.68C15.74-1.68 15.42-2.02 15.42-2.68C15.42-3.35 15.50-3.80 15.50-4.63C15.50-4.92 15.33-5.53 15.22-6.07C14.46-5.89 13.57-5.79 12.74-5.79C11.89-5.79 10.97-5.93 10.28-6.23C9.97-5.73 9.79-5.40 9.79-4.77L9.79-3.43C10.30-3.35 10.59-3 10.59-2.58C10.59-2.02 10.21-1.68 9.60-1.68ZM19.22-12.26C19.24-12.09 19.39-12.01 19.55-12.04C19.69-12.07 19.80-12.21 19.77-12.38C19.73-12.52 19.58-12.62 19.43-12.59C19.28-12.56 19.18-12.41 19.22-12.26Z" fill="currentColor"/>
</svg>