<svg xmlns="http://www.w3.org/2000/svg" viewBox="0 0 24 24" width="24" height="24">
  <title>character.textbox</title>
  <path transform="matrix(0.6934850331843424, 0, 0, 0.6934850331843424, -0.07232832182039806, 17.85127996749289)" d="M6.98-18.81C4.91-18.81 3.82-17.73 3.82-15.66L3.82-11.73C3.82-11.47 4.00-11.30 4.25-11.30C4.51-11.30 4.69-11.47 4.69-11.73L4.69-15.61C4.69-17.14 5.48-17.94 7.01-17.94L27.82-17.94C29.30-17.94 30.14-17.14 30.14-15.61L30.14-11.73C30.14-11.47 30.32-11.30 30.57-11.30C30.84-11.30 31.01-11.47 31.01-11.73L31.01-15.66C31.01-17.70 29.93-18.81 27.86-18.81ZM13.58-3.04C13.80-3.04 13.92-3.13 14.02-3.41L15.14-6.43L19.68-6.43L20.80-3.41C20.89-3.14 21.02-3.04 21.26-3.04C21.50-3.04 21.68-3.20 21.68-3.42C21.68-3.52 21.66-3.57 21.62-3.70L18.01-13.23C17.91-13.52 17.71-13.66 17.41-13.66C17.12-13.66 16.92-13.52 16.80-13.23L13.21-3.70C13.16-3.57 13.14-3.52 13.14-3.43C13.14-3.19 13.30-3.04 13.58-3.04ZM15.42-7.21L17.38-12.47L17.44-12.47L19.39-7.21ZM4.25-7.29C4.95-7.29 5.51-7.85 5.51-8.54C5.51-9.25 4.95-9.80 4.25-9.80C3.56-9.80 2.99-9.25 2.99-8.54C2.99-7.85 3.56-7.29 4.25-7.29ZM30.57-7.29C31.25-7.29 31.83-7.85 31.83-8.54C31.83-9.25 31.25-9.80 30.57-9.80C29.88-9.80 29.31-9.25 29.31-8.54C29.31-7.85 29.88-7.29 30.57-7.29ZM6.98 1.93L27.86 1.93C29.93 1.93 31.01 0.83 31.01-1.21L31.01-5.26C31.01-5.52 30.84-5.70 30.57-5.70C30.32-5.70 30.14-5.52 30.14-5.26L30.14-1.25C30.14 0.27 29.30 1.07 27.82 1.07L7.01 1.07C5.48 1.07 4.69 0.27 4.69-1.25L4.69-5.26C4.69-5.52 4.51-5.70 4.25-5.70C4.00-5.70 3.82-5.52 3.82-5.26L3.82-1.21C3.82 0.86 4.91 1.93 6.98 1.93Z" fill="currentColor"/>
</svg>