<svg xmlns="http://www.w3.org/2000/svg" viewBox="0 0 24 24" width="24" height="24">
  
  <path transform="matrix(0.8703042665306816, 0, 0, 0.8703042665306816, 0.17440081591024992, 19.36868944416114)" d="M13.59 3.02C19.93 3.02 25.08-2.11 25.08-8.46C25.08-14.81 19.93-19.96 13.59-19.96C7.24-19.96 2.10-14.81 2.10-8.46C2.10-2.11 7.24 3.02 13.59 3.02ZM13.59 2.13C7.73 2.13 2.99-2.60 2.99-8.46C2.99-14.24 7.59-18.93 13.35-19.05L13.35-8.50C13.35-8.19 13.39-8.03 13.58-7.85L20.80-0.69C18.91 1.07 16.38 2.13 13.59 2.13ZM14.14-8.78L14.14-19.04C17.87-18.86 21.08-16.75 22.82-13.69ZM14.52-8.05L23.18-12.97C23.82-11.60 24.19-10.08 24.19-8.46C24.19-5.67 23.11-3.13 21.35-1.24Z" fill="currentColor"/>
</svg>