<svg xmlns="http://www.w3.org/2000/svg" viewBox="0 0 24 24" width="24" height="24">
  <title>chart.bar.horizontal.page.fill</title>
  <path transform="matrix(0.8073163040050457, 0, 0, 0.8073163040050457, 1.943235572374645, 18.81173131504257)" d="M2.99 0.79C2.99 2.87 4.07 3.95 6.14 3.95L18.77 3.95C20.84 3.95 21.93 2.87 21.93 0.79L21.93-17.66C21.93-19.73 20.84-20.82 18.77-20.82L6.14-20.82C4.07-20.82 2.99-19.73 2.99-17.66ZM6.53-17.60L14.19-17.60C14.59-17.60 14.85-17.32 14.85-16.88L14.85-14.50C14.85-14.07 14.59-13.78 14.19-13.78L6.53-13.78C6.12-13.78 5.86-14.07 5.86-14.50L5.86-16.88C5.86-17.32 6.12-17.60 6.53-17.60ZM6.53-12.77L18.39-12.77C18.80-12.77 19.05-12.49 19.05-12.06L19.05-9.68C19.05-9.25 18.80-8.95 18.39-8.95L6.53-8.95C6.12-8.95 5.86-9.25 5.86-9.66L5.86-12.06C5.86-12.49 6.12-12.77 6.53-12.77ZM6.53-7.93L16.29-7.93C16.70-7.93 16.96-7.66 16.96-7.24L16.96-4.84C16.96-4.41 16.70-4.13 16.29-4.13L6.53-4.13C6.12-4.13 5.86-4.41 5.86-4.84L5.86-7.24C5.86-7.66 6.12-7.93 6.53-7.93ZM6.53-3.12L12.15-3.12C12.55-3.12 12.81-2.85 12.81-2.40L12.81-0.01C12.81 0.41 12.55 0.70 12.15 0.70L6.53 0.70C6.12 0.70 5.86 0.41 5.86-0.01L5.86-2.40C5.86-2.85 6.12-3.12 6.53-3.12Z" fill="currentColor"/>
</svg>