<svg xmlns="http://www.w3.org/2000/svg" viewBox="0 0 24 24" width="24" height="24">
  <title>chevron.up.chevron.down</title>
  <path transform="matrix(0.9195402298850575, 0, 0, 0.9195402298850575, 2.140086206896552, 19.780172413793103)" d="M10.72-19.34C10.56-19.34 10.42-19.25 10.29-19.14L3.15-12.20C3.04-12.09 2.99-11.96 2.99-11.84C2.99-11.58 3.19-11.39 3.45-11.39C3.56-11.39 3.69-11.43 3.81-11.53L10.72-18.32L17.65-11.53C17.75-11.43 17.88-11.39 18-11.39C18.26-11.39 18.46-11.58 18.46-11.84C18.46-11.96 18.41-12.09 18.30-12.20L11.17-19.14C11.03-19.25 10.90-19.34 10.72-19.34ZM10.72 2.41C10.90 2.41 11.03 2.33 11.17 2.21L18.30-4.72C18.41-4.84 18.46-4.96 18.46-5.09C18.46-5.34 18.26-5.54 18-5.54C17.88-5.54 17.75-5.50 17.65-5.39L10.72 1.38L3.81-5.39C3.69-5.50 3.56-5.54 3.45-5.54C3.19-5.54 2.99-5.34 2.99-5.09C2.99-4.96 3.04-4.84 3.15-4.72L10.29 2.21C10.42 2.33 10.56 2.41 10.72 2.41Z" fill="currentColor"/>
</svg>