<svg xmlns="http://www.w3.org/2000/svg" viewBox="0 0 24 24" width="24" height="24">
  <title>chevron.down.forward.2</title>
  <path transform="matrix(0.9346476816356335, 0, 0, 0.9346476816356335, -0.6615553121577231, 19.907995618838992)" d="M3.46-6.16C3.19-6.16 2.99-5.96 2.99-5.70C2.99-5.44 3.19-5.24 3.46-5.24L16.15-5.24C16.54-5.24 16.80-5.51 16.80-5.88L16.80-18.69C16.80-18.96 16.61-19.16 16.34-19.16C16.08-19.16 15.87-18.96 15.87-18.69L15.87-6.16ZM10.76 1.30C10.50 1.30 10.30 1.50 10.30 1.77C10.30 2.03 10.50 2.24 10.76 2.24L23.45 2.24C23.84 2.24 24.11 1.97 24.11 1.58L24.11-11.23C24.11-11.48 23.91-11.70 23.65-11.70C23.38-11.70 23.18-11.48 23.18-11.23L23.18 1.30Z" fill="currentColor"/>
</svg>