<svg xmlns="http://www.w3.org/2000/svg" viewBox="0 0 24 24" width="24" height="24">
  <title>chevron.left.to.line</title>
  <path transform="matrix(1.084286319356205, 0, 0, 1.084286319356205, 2.603557814485389, 21.174078780177894)" d="M3.90 0.32L3.90-8.29C3.94-8.19 4.01-8.11 4.09-8.03L13.52 0.61C13.63 0.70 13.73 0.76 13.86 0.76C14.12 0.76 14.33 0.56 14.33 0.30C14.33 0.19 14.30 0.07 14.20-0.02L5.02-8.46L14.20-16.88C14.31-16.98 14.34-17.10 14.34-17.21C14.34-17.47 14.12-17.68 13.89-17.68C13.73-17.68 13.64-17.63 13.55-17.53L4.10-8.88C4.01-8.80 3.94-8.72 3.90-8.61L3.90-17.23C3.90-17.48 3.70-17.68 3.45-17.68C3.19-17.68 2.99-17.48 2.99-17.23L2.99 0.32C2.99 0.57 3.19 0.76 3.45 0.76C3.70 0.76 3.90 0.57 3.90 0.32Z" fill="currentColor"/>
</svg>