<svg xmlns="http://www.w3.org/2000/svg" viewBox="0 0 24 24" width="24" height="24">
  
  <path transform="matrix(0.9642184557438794, 0, 0, 0.9642184557438794, -0.8813559322033897, 20.15819209039548)" d="M6.15 1.91L20.58 1.91C22.65 1.91 23.73 0.81 23.73-1.24L23.73-15.68C23.73-17.73 22.65-18.83 20.58-18.83L6.15-18.83C4.08-18.83 2.99-17.75 2.99-15.68L2.99-1.24C2.99 0.83 4.08 1.91 6.15 1.91ZM13.91-4.56C13.56-4.20 13.16-4.18 12.82-4.56L7.61-9.90C7.42-10.10 7.41-10.36 7.59-10.55C7.76-10.71 8.05-10.73 8.24-10.54L13.36-5.27L18.49-10.54C18.67-10.73 18.97-10.71 19.14-10.55C19.32-10.36 19.31-10.10 19.13-9.90Z" fill="currentColor"/>
</svg>