<svg xmlns="http://www.w3.org/2000/svg" viewBox="0 0 24 24" width="24" height="24">
  
  <path transform="matrix(1.0318419991938734, 0, 0, 1.0318419991938734, 0.38573155985489693, 20.706166868198306)" d="M18.12-17.44C18.12-17.05 18.43-16.73 18.82-16.73C19.21-16.73 19.52-17.05 19.52-17.44C19.52-17.82 19.21-18.13 18.82-18.13C18.43-18.13 18.12-17.82 18.12-17.44ZM2.99-17.44C2.99-17.05 3.30-16.73 3.69-16.73C4.08-16.73 4.38-17.05 4.38-17.44C4.38-17.82 4.08-18.13 3.69-18.13C3.30-18.13 2.99-17.82 2.99-17.44ZM16.23-15.56C16.23-15.18 16.55-14.86 16.93-14.86C17.32-14.86 17.63-15.18 17.63-15.56C17.63-15.94 17.32-16.25 16.93-16.25C16.55-16.25 16.23-15.94 16.23-15.56ZM4.88-15.56C4.88-15.18 5.19-14.86 5.58-14.86C5.96-14.86 6.28-15.18 6.28-15.56C6.28-15.94 5.96-16.25 5.58-16.25C5.19-16.25 4.88-15.94 4.88-15.56ZM14.34-13.68C14.34-13.29 14.65-12.98 15.04-12.98C15.42-12.98 15.74-13.29 15.74-13.68C15.74-14.06 15.42-14.38 15.04-14.38C14.65-14.38 14.34-14.06 14.34-13.68ZM6.77-13.68C6.77-13.29 7.09-12.98 7.48-12.98C7.86-12.98 8.17-13.29 8.17-13.68C8.17-14.06 7.86-14.38 7.48-14.38C7.09-14.38 6.77-14.06 6.77-13.68ZM12.45-11.80C12.45-11.41 12.76-11.11 13.15-11.11C13.54-11.11 13.85-11.41 13.85-11.80C13.85-12.19 13.54-12.50 13.15-12.50C12.76-12.50 12.45-12.19 12.45-11.80ZM8.66-11.80C8.66-11.41 8.98-11.11 9.36-11.11C9.75-11.11 10.07-11.41 10.07-11.80C10.07-12.19 9.75-12.50 9.36-12.50C8.98-12.50 8.66-12.19 8.66-11.80ZM10.56-9.93C10.56-9.54 10.86-9.22 11.25-9.22C11.64-9.22 11.95-9.54 11.95-9.93C11.95-10.31 11.64-10.63 11.25-10.63C10.86-10.63 10.56-10.31 10.56-9.93ZM18.12-6.95C18.12-6.56 18.43-6.25 18.82-6.25C19.21-6.25 19.52-6.56 19.52-6.95C19.52-7.34 19.21-7.65 18.82-7.65C18.43-7.65 18.12-7.34 18.12-6.95ZM2.99-6.95C2.99-6.56 3.30-6.25 3.69-6.25C4.08-6.25 4.38-6.56 4.38-6.95C4.38-7.34 4.08-7.65 3.69-7.65C3.30-7.65 2.99-7.34 2.99-6.95ZM16.23-5.07C16.23-4.69 16.55-4.37 16.93-4.37C17.32-4.37 17.63-4.69 17.63-5.07C17.63-5.46 17.32-5.78 16.93-5.78C16.55-5.78 16.23-5.46 16.23-5.07ZM4.88-5.07C4.88-4.69 5.19-4.37 5.58-4.37C5.96-4.37 6.28-4.69 6.28-5.07C6.28-5.46 5.96-5.78 5.58-5.78C5.19-5.78 4.88-5.46 4.88-5.07ZM14.34-3.20C14.34-2.81 14.65-2.50 15.04-2.50C15.42-2.50 15.74-2.81 15.74-3.20C15.74-3.59 15.42-3.90 15.04-3.90C14.65-3.90 14.34-3.59 14.34-3.20ZM6.77-3.20C6.77-2.81 7.09-2.50 7.48-2.50C7.86-2.50 8.17-2.81 8.17-3.20C8.17-3.59 7.86-3.90 7.48-3.90C7.09-3.90 6.77-3.59 6.77-3.20ZM12.45-1.32C12.45-0.94 12.76-0.62 13.15-0.62C13.54-0.62 13.85-0.94 13.85-1.32C13.85-1.71 13.54-2.02 13.15-2.02C12.76-2.02 12.45-1.71 12.45-1.32ZM8.66-1.32C8.66-0.94 8.98-0.62 9.36-0.62C9.75-0.62 10.07-0.94 10.07-1.32C10.07-1.71 9.75-2.02 9.36-2.02C8.98-2.02 8.66-1.71 8.66-1.32ZM10.56 0.55C10.56 0.94 10.86 1.25 11.25 1.25C11.64 1.25 11.95 0.94 11.95 0.55C11.95 0.18 11.64-0.14 11.25-0.14C10.86-0.14 10.56 0.18 10.56 0.55Z" fill="currentColor"/>
</svg>