<svg xmlns="http://www.w3.org/2000/svg" viewBox="0 0 24 24" width="24" height="24">
  <title>chevron.compact.up.chevron.compact.right.chevron.compact.down.chevron.compact.left</title>
  <path transform="matrix(0.8486656721365822, 0, 0, 0.8486656721365822, -0.5360517155643958, 19.18547986076579)" d="M10.08-17.47C10.21-17.47 10.38-17.54 10.52-17.59L14.75-19.31L19.01-17.59C19.14-17.54 19.32-17.47 19.45-17.47C19.73-17.47 19.95-17.67 19.95-17.95C19.95-18.11 19.86-18.28 19.64-18.36L15.46-20.06C15.23-20.16 14.95-20.25 14.75-20.25C14.54-20.25 14.27-20.16 14.05-20.06L9.89-18.36C9.66-18.27 9.59-18.11 9.59-17.95C9.59-17.67 9.79-17.47 10.08-17.47ZM24.26-3.29C24.41-3.29 24.59-3.36 24.67-3.60L26.37-7.78C26.46-8.00 26.55-8.29 26.55-8.48C26.55-8.68 26.46-8.96 26.37-9.19L24.67-13.35C24.57-13.58 24.41-13.65 24.26-13.65C23.98-13.65 23.78-13.45 23.78-13.16C23.78-13.03 23.84-12.84 23.88-12.71L25.62-8.48L23.88-4.23C23.84-4.10 23.78-3.91 23.78-3.79C23.78-3.49 23.98-3.29 24.26-3.29ZM5.29-3.29C5.55-3.29 5.77-3.49 5.77-3.79C5.77-3.91 5.70-4.10 5.65-4.23L3.93-8.48L5.65-12.71C5.70-12.84 5.77-13.03 5.77-13.16C5.77-13.45 5.55-13.65 5.29-13.65C5.13-13.65 4.97-13.58 4.88-13.35L3.16-9.19C3.07-8.96 2.99-8.68 2.99-8.48C2.99-8.29 3.08-8.00 3.16-7.78L4.88-3.60C4.96-3.36 5.13-3.29 5.29-3.29ZM14.75 3.32C14.95 3.32 15.23 3.22 15.46 3.13L19.64 1.43C19.86 1.35 19.95 1.17 19.95 1.02C19.95 0.75 19.73 0.54 19.45 0.54C19.32 0.54 19.14 0.61 19.01 0.66L14.75 2.38L10.52 0.66C10.38 0.61 10.21 0.54 10.08 0.54C9.79 0.54 9.59 0.75 9.59 1.02C9.59 1.17 9.66 1.34 9.89 1.43L14.05 3.13C14.27 3.22 14.54 3.32 14.75 3.32Z" fill="currentColor"/>
</svg>