<svg xmlns="http://www.w3.org/2000/svg" viewBox="0 0 24 24" width="24" height="24">
  
  <path transform="matrix(0.9642184557438794, 0, 0, 0.9642184557438794, -0.8813559322033897, 20.15819209039548)" d="M6.15 1.91L20.58 1.91C22.65 1.91 23.73 0.81 23.73-1.24L23.73-15.68C23.73-17.73 22.65-18.83 20.58-18.83L6.15-18.83C4.08-18.83 2.99-17.75 2.99-15.68L2.99-1.24C2.99 0.83 4.08 1.91 6.15 1.91ZM10.86-2.71C10.70-2.87 10.69-3.15 10.88-3.32L16.15-8.46L10.88-13.59C10.69-13.77 10.69-14.06 10.86-14.21C11.04-14.38 11.29-14.40 11.48-14.20L16.83-9C17.18-8.67 17.17-8.24 16.83-7.92L11.48-2.71C11.30-2.52 11.03-2.53 10.86-2.71Z" fill="currentColor"/>
</svg>