<svg xmlns="http://www.w3.org/2000/svg" viewBox="0 0 24 24" width="24" height="24">
  <title>circle.grid.3x3</title>
  <path transform="matrix(0.8288813339808969, 0, 0, 0.8288813339808969, -0.4769305488101021, 19.013113161728995)" d="M6.41-13.11C8.30-13.11 9.83-14.65 9.83-16.54C9.83-18.42 8.30-19.96 6.41-19.96C4.54-19.96 2.99-18.42 2.99-16.54C2.99-14.65 4.54-13.11 6.41-13.11ZM15.06-13.11C16.95-13.11 18.48-14.65 18.48-16.54C18.48-18.42 16.95-19.96 15.06-19.96C13.17-19.96 11.64-18.42 11.64-16.54C11.64-14.65 13.17-13.11 15.06-13.11ZM23.70-13.11C25.58-13.11 27.12-14.65 27.12-16.54C27.12-18.42 25.58-19.96 23.70-19.96C21.81-19.96 20.27-18.42 20.27-16.54C20.27-14.65 21.81-13.11 23.70-13.11ZM6.41-13.97C5.00-13.97 3.84-15.12 3.84-16.54C3.84-17.95 5.00-19.10 6.41-19.10C7.83-19.10 8.98-17.95 8.98-16.54C8.98-15.12 7.83-13.97 6.41-13.97ZM15.06-13.97C13.64-13.97 12.49-15.12 12.49-16.54C12.49-17.95 13.64-19.10 15.06-19.10C16.46-19.10 17.63-17.95 17.63-16.54C17.63-15.12 16.46-13.97 15.06-13.97ZM23.70-13.97C22.28-13.97 21.13-15.12 21.13-16.54C21.13-17.95 22.28-19.10 23.70-19.10C25.11-19.10 26.26-17.95 26.26-16.54C26.26-15.12 25.11-13.97 23.70-13.97ZM6.41-5.04C8.30-5.04 9.83-6.57 9.83-8.46C9.83-10.35 8.30-11.88 6.41-11.88C4.52-11.88 2.99-10.35 2.99-8.46C2.99-6.57 4.52-5.04 6.41-5.04ZM15.05-5.04C16.93-5.04 18.48-6.57 18.48-8.46C18.48-10.35 16.93-11.88 15.05-11.88C13.17-11.88 11.63-10.35 11.63-8.46C11.63-6.57 13.17-5.04 15.05-5.04ZM23.70-5.04C25.58-5.04 27.12-6.57 27.12-8.46C27.12-10.35 25.58-11.88 23.70-11.88C21.81-11.88 20.27-10.35 20.27-8.46C20.27-6.57 21.81-5.04 23.70-5.04ZM6.41-5.89C4.99-5.89 3.84-7.04 3.84-8.46C3.84-9.88 4.99-11.03 6.41-11.03C7.83-11.03 8.98-9.88 8.98-8.46C8.98-7.04 7.83-5.89 6.41-5.89ZM15.05-5.89C13.64-5.89 12.48-7.04 12.48-8.46C12.48-9.88 13.64-11.03 15.05-11.03C16.46-11.03 17.63-9.88 17.63-8.46C17.63-7.04 16.46-5.89 15.05-5.89ZM23.70-5.89C22.28-5.89 21.13-7.04 21.13-8.46C21.13-9.88 22.28-11.03 23.70-11.03C25.11-11.03 26.26-9.88 26.26-8.46C26.26-7.04 25.11-5.89 23.70-5.89ZM6.41 3.04C8.30 3.04 9.83 1.50 9.83-0.39C9.83-2.26 8.30-3.81 6.41-3.81C4.52-3.81 2.99-2.26 2.99-0.39C2.99 1.50 4.52 3.04 6.41 3.04ZM15.05 3.04C16.93 3.04 18.48 1.50 18.48-0.39C18.48-2.26 16.93-3.81 15.05-3.81C13.17-3.81 11.63-2.26 11.63-0.39C11.63 1.50 13.17 3.04 15.05 3.04ZM23.70 3.04C25.58 3.04 27.12 1.50 27.12-0.39C27.12-2.26 25.58-3.81 23.70-3.81C21.81-3.81 20.27-2.26 20.27-0.39C20.27 1.50 21.81 3.04 23.70 3.04ZM6.41 2.18C4.99 2.18 3.84 1.03 3.84-0.39C3.84-1.79 4.99-2.95 6.41-2.95C7.83-2.95 8.98-1.79 8.98-0.39C8.98 1.03 7.83 2.18 6.41 2.18ZM15.05 2.18C13.64 2.18 12.48 1.03 12.48-0.39C12.48-1.79 13.64-2.95 15.05-2.95C16.46-2.95 17.63-1.79 17.63-0.39C17.63 1.03 16.46 2.18 15.05 2.18ZM23.70 2.18C22.28 2.18 21.13 1.03 21.13-0.39C21.13-1.79 22.28-2.95 23.70-2.95C25.11-2.95 26.26-1.79 26.26-0.39C26.26 1.03 25.11 2.18 23.70 2.18Z" fill="currentColor"/>
</svg>