<svg xmlns="http://www.w3.org/2000/svg" viewBox="0 0 24 24" width="24" height="24">
  
  <path transform="matrix(0.6509026188660056, 0, 0, 0.6509026188660056, 0.054919908466819045, 17.511060259344013)" d="M2.99-8.44C2.99-8.20 3.19-8.00 3.42-8.00L6.87-8.00C7.11-1.86 12.15 3.02 18.35 3.02C24.55 3.02 29.59-1.86 29.84-8.00L33.28-8.00C33.52-8.00 33.71-8.20 33.71-8.44C33.71-8.67 33.52-8.87 33.28-8.87L29.84-8.87C29.63-15.04 24.56-19.96 18.35-19.96C12.14-19.96 7.08-15.04 6.87-8.87L3.42-8.87C3.19-8.87 2.99-8.67 2.99-8.44ZM18.35-19.07C24.07-19.07 28.72-14.54 28.95-8.87L7.76-8.87C7.97-14.54 12.63-19.07 18.35-19.07ZM18.35 2.13C12.64 2.13 8.00-2.36 7.76-8.00L28.95-8.00C28.70-2.36 24.06 2.13 18.35 2.13Z" fill="currentColor"/>
</svg>