<svg xmlns="http://www.w3.org/2000/svg" viewBox="0 0 24 24" width="24" height="24">
  
  <path transform="matrix(0.8703042665306816, 0, 0, 0.8703042665306816, 0.17440081591024992, 19.36868944416114)" d="M13.59 3.02C19.91 3.02 25.08-2.13 25.08-8.46C25.08-14.79 19.91-19.96 13.59-19.96C7.27-19.96 2.10-14.79 2.10-8.46C2.10-2.13 7.27 3.02 13.59 3.02ZM6.90-7.46C6.67-7.46 6.49-7.64 6.49-7.89C6.49-8.10 6.67-8.29 6.90-8.29L13.20-8.29L13.20-16.51C13.20-16.73 13.37-16.91 13.58-16.91C13.83-16.91 14.00-16.73 14.00-16.51L14.00-7.89C14.00-7.64 13.83-7.46 13.58-7.46Z" fill="currentColor"/>
</svg>