<svg xmlns="http://www.w3.org/2000/svg" viewBox="0 0 24 24" width="24" height="24">
  
  <path transform="matrix(0.8703042665306816, 0, 0, 0.8703042665306816, 0.17440081591024992, 19.36868944416114)" d="M13.59 3.02C19.93 3.02 25.08-2.11 25.08-8.46C25.08-14.81 19.93-19.96 13.59-19.96C7.24-19.96 2.10-14.81 2.10-8.46C2.10-2.11 7.24 3.02 13.59 3.02ZM13.59 2.13C7.73 2.13 2.99-2.60 2.99-8.46C2.99-14.32 7.73-19.07 13.59-19.07C19.45-19.07 24.19-14.32 24.19-8.46C24.19-2.60 19.45 2.13 13.59 2.13ZM13.59-2.16C17.05-2.16 19.90-5.00 19.90-8.46C19.90-11.93 17.05-14.77 13.58-14.77C10.13-14.77 7.28-11.93 7.28-8.46C7.28-5.00 10.13-2.16 13.59-2.16ZM10.03-7.79C9.83-7.79 9.69-7.95 9.69-8.14C9.69-8.36 9.83-8.50 10.03-8.50L13.24-8.50L13.24-12.76C13.24-12.96 13.39-13.11 13.58-13.11C13.80-13.11 13.96-12.96 13.96-12.76L13.96-8.14C13.96-7.95 13.78-7.79 13.58-7.79Z" fill="currentColor"/>
</svg>