<svg xmlns="http://www.w3.org/2000/svg" viewBox="0 0 24 24" width="24" height="24">
  
  <path transform="matrix(0.4740740740740741, 0, 0, 0.4740740740740741, 0.5833333333333333, 17.177018487484)" d="M35.29-17.34L35.17-19.18C38.05-19.25 40.89-18.42 43.29-16.96C43.51-16.83 43.78-16.91 43.91-17.11C44.02-17.33 43.93-17.59 43.71-17.72C41.23-19.23 38.19-20.13 35.11-20.06L35.00-21.79C34.98-22.30 34.58-22.36 34.23-22.10L31.18-19.85C30.83-19.61 30.87-19.23 31.25-19.02L34.51-16.98C34.96-16.71 35.30-16.85 35.29-17.34ZM35.88-12.95C34.05-13.28 33.01-13.34 31.44-13.24L18.29-12.47C19.98-13.84 21.95-15.16 24.32-16.49C24.83-16.77 24.41-17.51 23.80-17.18C21.07-15.67 18.69-14.06 16.65-12.41L8.19-10.78C4.72-10.11 2.99-8.63 2.99-5.54L2.99-4.05C2.99-2.79 3.61-2.13 4.93-1.97L7.71-1.62C7.58-2.05 7.50-2.57 7.50-3.05C7.50-5.53 9.46-7.50 11.95-7.50C14.44-7.50 16.41-5.53 16.41-3.05C16.41-2.73 16.37-2.43 16.32-2.16L32.47-2.16C32.41-2.43 32.38-2.73 32.38-3.05C32.38-5.53 34.35-7.50 36.83-7.50C39.33-7.50 41.29-5.48 41.29-3C41.29-2.82 41.29-2.68 41.27-2.53L42.15-2.64C44.24-2.89 45.18-3.96 45.18-6.05L45.18-8.10C45.18-10.39 44.12-11.50 41.52-11.95ZM11.95 0.41C13.89 0.41 15.41-1.11 15.41-3.05C15.41-4.99 13.89-6.50 11.95-6.50C10.01-6.50 8.50-4.99 8.50-3.05C8.50-1.11 10.01 0.41 11.95 0.41ZM36.83 0.41C38.78 0.41 40.29-1.11 40.29-3.05C40.29-4.99 38.78-6.50 36.83-6.50C34.90-6.50 33.38-4.99 33.38-3.05C33.38-1.11 34.90 0.41 36.83 0.41Z" fill="currentColor"/>
</svg>