<svg xmlns="http://www.w3.org/2000/svg" viewBox="0 0 24 24" width="24" height="24">
  
  <path transform="matrix(0.7148875727988683, 0, 0, 0.7148875727988683, 2.2861858516372515, 18.05280786734979)" d="M13.58-19.07C19.17-19.07 23.74-14.75 24.15-9.28L22.01-9.28C21.54-9.28 21.38-8.94 21.67-8.52L24.14-4.99C24.38-4.65 24.71-4.64 24.96-4.99L27.42-8.52C27.73-8.94 27.56-9.28 27.08-9.28L25.05-9.28C24.63-15.25 19.66-19.96 13.58-19.96C10.21-19.96 7.05-18.47 4.92-16.01C4.73-15.79 4.78-15.49 4.98-15.35C5.16-15.20 5.41-15.22 5.60-15.45C7.58-17.71 10.46-19.07 13.58-19.07ZM7.49-10.95L19.70-10.95L19.70-11.34C19.70-12.27 19.20-12.79 18.27-12.79L8.92-12.79C7.99-12.79 7.49-12.28 7.49-11.34ZM0.09-7.65L2.12-7.65C2.54-1.68 7.51 3.02 13.58 3.02C16.97 3.02 20.12 1.54 22.25-0.91C22.44-1.15 22.39-1.43 22.20-1.58C22.02-1.73 21.76-1.70 21.57-1.49C19.59 0.79 16.71 2.13 13.58 2.13C8.00 2.13 3.43-2.17 3.02-7.65L5.17-7.65C5.64-7.65 5.80-7.98 5.51-8.40L3.04-11.93C2.80-12.28 2.46-12.28 2.21-11.93L-0.25-8.40C-0.55-7.98-0.39-7.65 0.09-7.65ZM8.92-4.14L18.27-4.14C19.20-4.14 19.70-4.65 19.70-5.58L19.70-9.77L7.49-9.77L7.49-5.58C7.49-4.64 7.99-4.14 8.92-4.14ZM9.54-5.66C9.23-5.66 9.04-5.87 9.04-6.18L9.04-7.17C9.04-7.48 9.23-7.69 9.54-7.69L10.85-7.69C11.17-7.69 11.38-7.48 11.38-7.17L11.38-6.18C11.38-5.87 11.17-5.66 10.85-5.66Z" fill="currentColor"/>
</svg>