<svg xmlns="http://www.w3.org/2000/svg" viewBox="0 0 24 24" width="24" height="24">
  <title>cross.case.circle</title>
  <path transform="matrix(0.8703042665306816, 0, 0, 0.8703042665306816, 0.17440081591024992, 19.36868944416114)" d="M13.59 3.02C19.93 3.02 25.08-2.11 25.08-8.46C25.08-14.81 19.93-19.96 13.59-19.96C7.24-19.96 2.10-14.81 2.10-8.46C2.10-2.11 7.24 3.02 13.59 3.02ZM13.59 2.13C7.73 2.13 2.99-2.60 2.99-8.46C2.99-14.32 7.73-19.07 13.59-19.07C19.45-19.07 24.19-14.32 24.19-8.46C24.19-2.60 19.45 2.13 13.59 2.13ZM8.61-2.99L18.56-2.99C19.62-2.99 20.14-3.50 20.14-4.56L20.14-10.88C20.14-11.95 19.62-12.46 18.56-12.46L16.90-12.46L16.90-13.48C16.90-14.31 16.36-14.81 15.47-14.81L11.70-14.81C10.82-14.81 10.28-14.31 10.28-13.48L10.28-12.46L8.61-12.46C7.55-12.46 7.03-11.95 7.03-10.88L7.03-4.56C7.03-3.50 7.55-2.99 8.61-2.99ZM10.99-13.45C10.99-13.89 11.24-14.12 11.71-14.12L15.47-14.12C15.94-14.12 16.18-13.89 16.18-13.45L16.18-12.46L10.99-12.46ZM10.99-7.25L10.99-8.20C10.99-8.48 11.18-8.70 11.47-8.70L12.62-8.70L12.62-9.83C12.62-10.13 12.83-10.34 13.13-10.34L14.05-10.34C14.34-10.34 14.55-10.13 14.55-9.83L14.55-8.70L15.70-8.70C16.00-8.70 16.17-8.48 16.17-8.20L16.17-7.25C16.17-6.96 16.00-6.77 15.70-6.77L14.55-6.77L14.55-5.63C14.55-5.33 14.34-5.12 14.05-5.12L13.13-5.12C12.83-5.12 12.62-5.33 12.62-5.63L12.62-6.77L11.47-6.77C11.18-6.77 10.99-6.96 10.99-7.25Z" fill="currentColor"/>
</svg>