<svg xmlns="http://www.w3.org/2000/svg" viewBox="0 0 24 24" width="24" height="24">
  
  <path transform="matrix(0.7739984882842026, 0, 0, 0.7739984882842026, -0.3129251700680271, 18.548752834467123)" d="M5.95 2.46L25.86 2.46C27.84 2.46 28.83 1.50 28.83-0.48L28.83-12.26C28.83-14.24 27.84-15.20 25.86-15.20L21.43-15.20L21.43-17.00C21.43-18.54 20.51-19.38 18.90-19.38L12.90-19.38C11.33-19.38 10.38-18.54 10.38-17.00L10.38-15.20L5.95-15.20C3.97-15.20 2.99-14.24 2.99-12.26L2.99-0.48C2.99 1.50 3.97 2.46 5.95 2.46ZM11.24-17.04C11.24-17.99 11.84-18.55 12.87-18.55L18.93-18.55C19.97-18.55 20.58-17.99 20.58-17.04L20.58-15.20L11.24-15.20ZM10.79-5.48L10.79-7.32C10.79-7.90 11.18-8.30 11.75-8.30L14.03-8.30L14.03-10.56C14.03-11.13 14.41-11.52 14.99-11.52L16.83-11.52C17.41-11.52 17.80-11.13 17.80-10.56L17.80-8.30L20.06-8.30C20.65-8.30 21.04-7.90 21.04-7.32L21.04-5.48C21.04-4.91 20.65-4.51 20.06-4.51L17.80-4.51L17.80-2.25C17.80-1.68 17.41-1.28 16.83-1.28L14.99-1.28C14.41-1.28 14.03-1.68 14.03-2.25L14.03-4.51L11.75-4.51C11.18-4.51 10.79-4.91 10.79-5.48Z" fill="currentColor"/>
</svg>