<svg xmlns="http://www.w3.org/2000/svg" viewBox="0 0 24 24" width="24" height="24">
  
  <path transform="matrix(0.7231638418079096, 0, 0, 0.7231638418079096, -0.1610169491525424, 18.309322033898304)" d="M5.52-10.15C5.65-10.15 5.78-10.16 5.91-10.17L8.25-0.70C8.66 1.00 9.49 1.71 11.16 1.71L22.50 1.71C24.16 1.71 25.00 1.00 25.41-0.70L27.75-10.17C27.87-10.16 28.00-10.15 28.11-10.15C29.51-10.15 30.64-11.29 30.64-12.68C30.64-14.06 29.51-15.20 28.11-15.20C26.73-15.20 25.59-14.06 25.59-12.68C25.59-12.07 25.80-11.52 26.16-11.09L23.05-9.19C22.44-8.81 21.95-8.89 21.54-9.43L17.77-14.29C18.69-14.65 19.36-15.56 19.36-16.63C19.36-18.02 18.22-19.16 16.83-19.16C15.43-19.16 14.30-18.02 14.30-16.63C14.30-15.55 14.98-14.63 15.94-14.26L11.98-9.23C11.63-8.79 11.19-8.74 10.71-9.05L7.44-11.05C7.82-11.48 8.04-12.06 8.04-12.68C8.04-14.06 6.90-15.20 5.52-15.20C4.13-15.20 2.99-14.06 2.99-12.68C2.99-11.29 4.13-10.15 5.52-10.15ZM16.83-14.95C15.91-14.95 15.16-15.71 15.16-16.63C15.16-17.55 15.91-18.29 16.83-18.29C17.74-18.29 18.50-17.54 18.50-16.63C18.50-15.71 17.75-14.95 16.83-14.95ZM5.52-11.00C4.61-11.00 3.84-11.75 3.84-12.68C3.84-13.59 4.61-14.34 5.52-14.34C6.43-14.34 7.18-13.59 7.18-12.68C7.18-11.75 6.43-11.00 5.52-11.00ZM28.11-11.00C27.20-11.00 26.45-11.75 26.45-12.68C26.45-13.59 27.20-14.34 28.11-14.34C29.04-14.34 29.79-13.59 29.79-12.68C29.79-11.75 29.04-11.00 28.11-11.00ZM10.22-8.36C11.09-7.82 12.05-7.93 12.68-8.75L16.85-14.07L21.06-8.70C21.59-7.99 22.50-7.85 23.10-8.23L26.82-10.50C26.86-10.49 26.89-10.46 26.93-10.44L25.08-2.85L8.58-2.85L6.73-10.45L6.76-10.48ZM11.14 0.87C10.04 0.87 9.36 0.33 9.11-0.70L8.79-2.00L24.87-2.00L24.55-0.70C24.29 0.33 23.61 0.87 22.52 0.87Z" fill="currentColor"/>
</svg>