<svg xmlns="http://www.w3.org/2000/svg" viewBox="0 0 24 24" width="24" height="24">
  
  <path transform="matrix(0.7384970431270734, 0, 0, 0.7384970431270734, 0.4508870618779748, 18.285022717438338)" d="M15.63-15.15C17.74-15.15 19.66-14.44 21.19-13.21C21.43-13.02 21.74-13.04 21.96-13.27L24.38-15.68C24.64-15.94 24.64-16.34 24.36-16.57C22.01-18.56 18.95-19.77 15.63-19.77C12.33-19.77 9.27-18.56 6.91-16.57C6.63-16.34 6.63-15.94 6.89-15.68L9.32-13.27C9.54-13.04 9.87-13.03 10.11-13.24C11.64-14.44 13.56-15.15 15.63-15.15ZM2.10-6.23C2.10-2.91 3.30 0.16 5.31 2.52C5.55 2.81 5.95 2.82 6.21 2.55L8.63 0.11C8.84-0.12 8.86-0.42 8.66-0.67C7.44-2.20 6.71-4.14 6.71-6.23C6.71-8.32 7.43-10.24 8.64-11.77C8.84-12.02 8.82-12.34 8.60-12.57L6.20-14.98C5.94-15.22 5.54-15.25 5.30-14.95C3.29-12.60 2.10-9.55 2.10-6.23ZM29.18-6.23C29.18-9.55 27.98-12.60 25.98-14.95C25.73-15.25 25.34-15.22 25.08-14.98L22.68-12.57C22.45-12.34 22.44-12.02 22.64-11.77C23.85-10.24 24.56-8.32 24.56-6.23C24.56-4.14 23.84-2.20 22.62-0.67C22.42-0.42 22.44-0.12 22.65 0.11L25.07 2.55C25.32 2.82 25.72 2.81 25.97 2.52C27.97 0.16 29.18-2.91 29.18-6.23ZM15.84-1.13C17.63-1.13 19.13-2.06 19.52-3.62C19.56-3.74 19.57-3.87 19.57-3.95C19.57-4.16 19.44-4.31 19.22-4.31C19.01-4.31 18.88-4.18 18.83-3.97C18.54-2.65 17.36-1.86 15.90-1.84L15.90-3.68C15.90-4.93 16.61-5.87 17.84-5.87C18.19-5.87 18.35-5.78 18.47-5.78C18.63-5.78 18.73-5.87 18.73-6.04C18.73-6.13 18.67-6.21 18.59-6.26C18.42-6.39 18.07-6.43 17.85-6.43C16.78-6.43 16.13-5.70 15.90-5.00L15.88-5.00L15.88-6.13C15.88-6.30 15.79-6.41 15.63-6.41C15.47-6.41 15.36-6.30 15.36-6.13L15.36-1.86C13.36-2.12 12.41-3.94 12.41-6.12C12.41-8.44 13.54-10.34 15.84-10.34C17.30-10.34 18.49-9.41 18.77-8.12C18.83-7.93 18.94-7.79 19.15-7.79C19.38-7.79 19.52-7.93 19.52-8.16C19.52-8.24 19.50-8.36 19.48-8.44C19.08-10.00 17.59-11.05 15.84-11.05C13.05-11.05 11.58-8.92 11.58-6.12C11.58-3.38 12.98-1.13 15.84-1.13Z" fill="currentColor"/>
</svg>