<svg xmlns="http://www.w3.org/2000/svg" viewBox="0 0 24 24" width="24" height="24">
  <title>cube.fill</title>
  <path transform="matrix(0.8057916273213723, 0, 0, 0.8057916273213723, 0.687440982058547, 18.84608120868744)" d="M14.04-9L24.71-14.84C24.55-15.07 24.34-15.27 24.07-15.42L15.05-20.63C14.41-21 13.66-21 13.02-20.63L4.01-15.42C3.75-15.27 3.54-15.07 3.38-14.84ZM14.60-8.04L14.60 3.91C14.75 3.87 14.91 3.81 15.05 3.71L24.07-1.51C24.71-1.89 25.09-2.52 25.09-3.26L25.09-13.78ZM13.48-8.04L3-13.78C2.99-13.72 2.99-13.66 2.99-13.61L2.99-3.26C2.99-2.52 3.36-1.89 4.01-1.51L13.02 3.71C13.18 3.81 13.32 3.87 13.48 3.91Z" fill="currentColor"/>
</svg>