<svg xmlns="http://www.w3.org/2000/svg" viewBox="0 0 24 24" width="24" height="24">
  <title>cube.circle.fill</title>
  <path transform="matrix(0.8703042665306816, 0, 0, 0.8703042665306816, 0.17440081591024992, 19.36868944416114)" d="M13.59 3.02C19.91 3.02 25.08-2.13 25.08-8.46C25.08-14.79 19.91-19.96 13.59-19.96C7.27-19.96 2.10-14.79 2.10-8.46C2.10-2.13 7.27 3.02 13.59 3.02ZM13.59-8.73L7.48-12.08C7.56-12.21 7.68-12.33 7.83-12.41L13.02-15.40C13.38-15.62 13.80-15.62 14.17-15.40L19.35-12.41C19.50-12.33 19.63-12.21 19.73-12.08ZM13.91-8.19L19.93-11.50L19.93-5.43C19.93-5.02 19.71-4.65 19.35-4.44L14.17-1.43C14.10-1.38 13.99-1.35 13.91-1.31ZM13.27-8.19L13.27-1.31C13.18-1.35 13.10-1.38 13.02-1.43L7.83-4.44C7.46-4.65 7.24-5.02 7.24-5.43L7.24-11.38C7.24-11.40 7.24-11.46 7.27-11.48Z" fill="currentColor"/>
</svg>