<svg xmlns="http://www.w3.org/2000/svg" viewBox="0 0 24 24" width="24" height="24">
  
  <path transform="matrix(0.7879347491535857, 0, 0, 0.7879347491535857, 0.3471837488457987, 18.666666666666668)" d="M14.79-17.71C15.26-17.71 15.63-18.08 15.63-18.55C15.63-19.03 15.26-19.39 14.79-19.39C14.31-19.39 13.95-19.03 13.95-18.55C13.95-18.08 14.31-17.71 14.79-17.71ZM6.41-14.21C6.89-14.21 7.25-14.59 7.25-15.06C7.25-15.53 6.89-15.90 6.41-15.90C5.94-15.90 5.57-15.53 5.57-15.06C5.57-14.59 5.94-14.21 6.41-14.21ZM23.17-14.21C23.64-14.21 24.01-14.59 24.01-15.06C24.01-15.53 23.64-15.90 23.17-15.90C22.69-15.90 22.31-15.53 22.31-15.06C22.31-14.59 22.69-14.21 23.17-14.21ZM14.79 1.22C19.17 1.22 22.71-2.33 22.71-6.71C22.71-11.10 19.17-14.64 14.79-14.64C10.41-14.64 6.87-11.10 6.87-6.71C6.87-2.33 10.41 1.22 14.79 1.22ZM14.79 0.34C12.94 0.34 11.25-0.38 10.00-1.54L15.19-6.76C15.36-6.93 15.36-7.21 15.19-7.37C15.04-7.51 14.75-7.54 14.59-7.37L9.40-2.16C8.37-3.39 7.73-4.97 7.73-6.71C7.73-10.61 10.89-13.76 14.79-13.76C18.69-13.76 21.84-10.61 21.84-6.71C21.84-2.81 18.69 0.34 14.79 0.34ZM2.94-5.87C3.42-5.87 3.80-6.25 3.80-6.73C3.80-7.20 3.42-7.57 2.94-7.57C2.47-7.57 2.10-7.20 2.10-6.73C2.10-6.25 2.47-5.87 2.94-5.87ZM26.63-5.87C27.11-5.87 27.48-6.25 27.48-6.73C27.48-7.20 27.11-7.57 26.63-7.57C26.16-7.57 25.78-7.20 25.78-6.73C25.78-6.25 26.16-5.87 26.63-5.87ZM6.41 2.47C6.89 2.47 7.25 2.10 7.25 1.63C7.25 1.16 6.89 0.79 6.41 0.79C5.94 0.79 5.57 1.16 5.57 1.63C5.57 2.10 5.94 2.47 6.41 2.47ZM23.17 2.47C23.64 2.47 24.01 2.10 24.01 1.63C24.01 1.16 23.64 0.79 23.17 0.79C22.69 0.79 22.31 1.16 22.31 1.63C22.31 2.10 22.69 2.47 23.17 2.47Z" fill="currentColor"/>
</svg>