<svg xmlns="http://www.w3.org/2000/svg" viewBox="0 0 24 24" width="24" height="24">
  <title>die.face.5.fill</title>
  <path transform="matrix(0.9642184557438794, 0, 0, 0.9642184557438794, -0.8813559322033897, 20.15819209039548)" d="M6.15 1.91L20.58 1.91C22.65 1.91 23.73 0.81 23.73-1.24L23.73-15.68C23.73-17.73 22.65-18.83 20.58-18.83L6.15-18.83C4.08-18.83 2.99-17.75 2.99-15.68L2.99-1.24C2.99 0.83 4.08 1.91 6.15 1.91ZM7.71-12.35C6.73-12.38 5.92-13.15 5.92-14.16C5.92-15.14 6.73-15.93 7.71-15.93C8.67-15.93 9.49-15.14 9.49-14.16C9.49-13.15 8.67-12.34 7.71-12.35ZM19.03-12.35C18.05-12.38 17.24-13.15 17.24-14.16C17.24-15.14 18.05-15.93 19.03-15.93C20.00-15.93 20.81-15.14 20.81-14.16C20.81-13.15 20.00-12.34 19.03-12.35ZM13.37-6.66C12.39-6.66 11.59-7.46 11.59-8.46C11.59-9.43 12.39-10.23 13.37-10.23C14.34-10.23 15.15-9.43 15.15-8.46C15.15-7.46 14.34-6.66 13.37-6.66ZM7.71-1.00C6.73-1.00 5.92-1.79 5.92-2.78C5.92-3.76 6.73-4.56 7.71-4.56C8.67-4.56 9.48-3.76 9.48-2.78C9.48-1.79 8.67-1.00 7.71-1.00ZM19.03-1.00C18.05-1.00 17.25-1.79 17.25-2.78C17.25-3.76 18.05-4.56 19.03-4.56C20.00-4.56 20.81-3.76 20.81-2.78C20.81-1.79 20.00-1.00 19.03-1.00Z" fill="currentColor"/>
</svg>