<svg xmlns="http://www.w3.org/2000/svg" viewBox="0 0 24 24" width="24" height="24">
  <title>die.face.6</title>
  <path transform="matrix(0.9642184557438794, 0, 0, 0.9642184557438794, -0.8813559322033897, 20.15819209039548)" d="M6.15 1.91L20.58 1.91C22.65 1.91 23.73 0.81 23.73-1.24L23.73-15.68C23.73-17.73 22.65-18.83 20.58-18.83L6.15-18.83C4.08-18.83 2.99-17.75 2.99-15.68L2.99-1.24C2.99 0.83 4.08 1.91 6.15 1.91ZM6.18 1.04C4.65 1.04 3.86 0.25 3.86-1.28L3.86-15.63C3.86-17.17 4.65-17.96 6.18-17.96L20.54-17.96C22.02-17.96 22.86-17.17 22.86-15.63L22.86-1.28C22.86 0.25 22.02 1.04 20.54 1.04ZM7.73-12.33C8.71-12.32 9.52-13.13 9.52-14.12C9.52-15.09 8.71-15.88 7.73-15.88C6.76-15.88 5.96-15.09 5.96-14.12C5.96-13.13 6.76-12.35 7.73-12.33ZM19.01-12.33C19.97-12.32 20.75-13.13 20.75-14.12C20.75-15.09 19.97-15.88 19.01-15.88C18.02-15.88 17.21-15.09 17.21-14.12C17.21-13.13 18.02-12.35 19.01-12.33ZM7.73-6.67C8.71-6.67 9.52-7.46 9.52-8.46C9.52-9.42 8.71-10.22 7.73-10.22C6.76-10.22 5.96-9.42 5.96-8.46C5.96-7.46 6.76-6.67 7.73-6.67ZM18.98-6.67C19.96-6.67 20.75-7.46 20.75-8.46C20.75-9.42 19.96-10.22 18.98-10.22C18.01-10.22 17.21-9.42 17.21-8.46C17.21-7.46 18.01-6.67 18.98-6.67ZM7.73-1.04C8.71-1.04 9.49-1.84 9.49-2.81C9.49-3.80 8.71-4.58 7.73-4.58C6.76-4.58 5.96-3.80 5.96-2.81C5.96-1.84 6.76-1.04 7.73-1.04ZM19.01-1.04C19.97-1.04 20.75-1.84 20.75-2.81C20.75-3.80 19.97-4.58 19.01-4.58C18.02-4.58 17.24-3.80 17.24-2.81C17.24-1.84 18.02-1.04 19.01-1.04Z" fill="currentColor"/>
</svg>