<svg xmlns="http://www.w3.org/2000/svg" viewBox="0 0 24 24" width="24" height="24">
  
  <path transform="matrix(0.753495217071376, 0, 0, 0.753495217071376, -0.2516556291390728, 19.72626931567329)" d="M12.26-13.52C12.04-13.52 11.87-13.35 11.87-13.13C11.87-13.02 11.92-12.93 12-12.84L15.96-8.91C16.07-8.81 16.16-8.77 16.28-8.77C16.38-8.77 16.49-8.81 16.58-8.91L20.53-12.84C20.63-12.93 20.67-13.02 20.67-13.13C20.67-13.35 20.48-13.52 20.27-13.52C20.17-13.52 20.04-13.46 19.96-13.38L17.55-10.93L16.68-10.04L16.71-11.68L16.71-23.04C16.71-23.27 16.51-23.46 16.28-23.46C16.04-23.46 15.84-23.27 15.84-23.04L15.84-11.68L15.88-10.03L14.99-10.93L12.57-13.38C12.49-13.46 12.36-13.52 12.26-13.52ZM4.59-0.83L12.82-0.83L12.82 2.09L12.57 2.09C12.33 2.09 12.13 2.26 12.13 2.52C12.13 2.78 12.33 2.95 12.57 2.95L19.95 2.95C20.20 2.95 20.40 2.78 20.40 2.52C20.40 2.26 20.20 2.09 19.95 2.09L19.70 2.09L19.70-0.83L27.93-0.83C28.91-0.83 29.53-1.46 29.53-2.45L29.53-17.59C29.53-18.57 28.91-19.20 27.93-19.20L18.34-19.20L18.34-18.33L27.89-18.33C28.36-18.33 28.66-18.02 28.66-17.55L28.66-2.47C28.66-2.02 28.36-1.71 27.89-1.71L4.64-1.71C4.16-1.71 3.86-2.02 3.86-2.47L3.86-17.55C3.86-18.02 4.16-18.33 4.64-18.33L14.18-18.33L14.18-19.20L4.59-19.20C3.62-19.20 2.99-18.57 2.99-17.59L2.99-2.45C2.99-1.46 3.62-0.83 4.59-0.83Z" fill="currentColor"/>
</svg>