<svg xmlns="http://www.w3.org/2000/svg" viewBox="0 0 24 24" width="24" height="24">
  <title>divide.square</title>
  <path transform="matrix(0.9642184557438794, 0, 0, 0.9642184557438794, -0.8813559322033897, 20.15819209039548)" d="M6.15 1.91L20.58 1.91C22.65 1.91 23.73 0.81 23.73-1.24L23.73-15.68C23.73-17.73 22.65-18.83 20.58-18.83L6.15-18.83C4.08-18.83 2.99-17.75 2.99-15.68L2.99-1.24C2.99 0.83 4.08 1.91 6.15 1.91ZM6.18 1.04C4.65 1.04 3.86 0.25 3.86-1.28L3.86-15.63C3.86-17.17 4.65-17.96 6.18-17.96L20.54-17.96C22.02-17.96 22.86-17.17 22.86-15.63L22.86-1.28C22.86 0.25 22.02 1.04 20.54 1.04ZM13.36-11.92C13.83-11.92 14.19-12.27 14.19-12.71C14.19-13.17 13.83-13.54 13.36-13.54C12.90-13.54 12.54-13.16 12.54-12.70C12.54-12.26 12.90-11.92 13.36-11.92ZM8.18-8.00L18.55-8.00C18.83-8.00 19.03-8.17 19.03-8.45C19.03-8.72 18.83-8.89 18.55-8.89L8.18-8.89C7.89-8.89 7.69-8.72 7.69-8.45C7.69-8.17 7.90-8.00 8.18-8.00ZM13.36-3.36C13.83-3.36 14.19-3.71 14.19-4.16C14.19-4.62 13.83-4.97 13.36-4.97C12.90-4.97 12.54-4.61 12.54-4.15C12.54-3.70 12.90-3.36 13.36-3.36Z" fill="currentColor"/>
</svg>