<svg xmlns="http://www.w3.org/2000/svg" viewBox="0 0 24 24" width="24" height="24">
  <title>document.on.trash.fill</title>
  <path transform="matrix(0.6267597013098298, 0, 0, 0.6267597013098298, 2.3856041131105403, 17.306647080426)" d="M6.08-19.24L8.12-19.24L8.24-16.84L10.58-16.84C11.73-16.84 12.47-16.58 13.24-15.80L16.29-12.75L16.29-16.30C16.29-16.51 16.45-16.68 16.68-16.68C16.91-16.68 17.06-16.51 17.06-16.30L17.06-11.96L20.04-8.98L20.29-16.31C20.29-16.52 20.45-16.66 20.66-16.66C20.89-16.66 21.05-16.51 21.05-16.29L20.79-8.21C21.49-7.48 21.73-6.76 21.73-5.64L21.73 1.07L22.02 1.07C23.24 1.03 24.23 0.06 24.29-1.17L25.24-19.24L27.27-19.24C27.52-19.24 27.69-19.44 27.69-19.66C27.69-19.91 27.50-20.09 27.27-20.09L21.50-20.09L21.50-22.16C21.50-23.58 20.58-24.42 19.04-24.42L14.29-24.42C12.76-24.42 11.84-23.58 11.84-22.16L11.84-20.09L6.08-20.09C5.85-20.09 5.65-19.90 5.65-19.66C5.65-19.43 5.85-19.24 6.08-19.24ZM12.70-22.14C12.70-23.04 13.30-23.58 14.29-23.58L19.04-23.58C20.04-23.58 20.64-23.04 20.64-22.14L20.64-20.09L12.70-20.09ZM6.14 7.49L17.53 7.49C19.59 7.49 20.67 6.40 20.67 4.32L20.67-5.86L12.74-5.86C11.55-5.86 10.97-6.46 10.97-7.65L10.97-15.80L6.14-15.80C4.09-15.80 2.99-14.71 2.99-12.63L2.99 4.32C2.99 6.40 4.07 7.49 6.14 7.49ZM12.84-6.91L20.40-6.91C20.34-7.17 20.12-7.42 19.86-7.69L12.79-14.79C12.52-15.05 12.26-15.28 12.01-15.34L12.01-7.75C12.01-7.17 12.28-6.91 12.84-6.91Z" fill="currentColor"/>
</svg>