<svg xmlns="http://www.w3.org/2000/svg" viewBox="0 0 24 24" width="24" height="24">
  
  <path transform="matrix(0.8073163040050457, 0, 0, 0.8073163040050457, 1.943235572374645, 18.81173131504257)" d="M6.14 3.95L18.77 3.95C20.84 3.95 21.93 2.86 21.93 0.79L21.93-10.68C21.93-11.61 21.77-12.05 21.20-12.63L13.76-20.10C13.18-20.66 12.74-20.82 11.84-20.82L6.14-20.82C4.09-20.82 2.99-19.73 2.99-17.66L2.99 0.79C2.99 2.87 4.07 3.95 6.14 3.95ZM6.18 3.08C4.65 3.08 3.86 2.29 3.86 0.76L3.86-17.64C3.86-19.10 4.65-19.96 6.19-19.96L12.02-19.96L12.02-12.57C12.02-11.41 12.61-10.90 13.70-10.90L21.06-10.90L21.06 0.76C21.06 2.29 20.26 3.08 18.73 3.08ZM13.77-11.74C13.13-11.74 12.87-12 12.87-12.64L12.87-19.75L20.85-11.74Z" fill="currentColor"/>
</svg>