<svg xmlns="http://www.w3.org/2000/svg" viewBox="0 0 24 24" width="24" height="24">
  <title>dongsign.square.fill</title>
  <path transform="matrix(0.9642184557438794, 0, 0, 0.9642184557438794, -0.8813559322033897, 20.15819209039548)" d="M6.15 1.91L20.58 1.91C22.65 1.91 23.73 0.81 23.73-1.24L23.73-15.68C23.73-17.73 22.65-18.83 20.58-18.83L6.15-18.83C4.08-18.83 2.99-17.75 2.99-15.68L2.99-1.24C2.99 0.83 4.08 1.91 6.15 1.91ZM12.77-4.76C11.19-4.76 9.84-6 9.84-7.99C9.84-9.89 11.13-11.23 12.77-11.23C13.86-11.23 14.78-10.69 15.19-9.67L15.26-9.67L15.26-12.45L12.93-12.45C12.79-12.45 12.67-12.56 12.67-12.71C12.67-12.84 12.79-12.97 12.93-12.97L15.26-12.97L15.26-13.70C15.26-13.93 15.41-14.09 15.64-14.09C15.88-14.09 16.02-13.93 16.02-13.70L16.02-12.97L17.00-12.97C17.14-12.97 17.26-12.84 17.26-12.71C17.26-12.56 17.14-12.45 17.00-12.45L16.02-12.45L16.02-5.06C16.02-4.85 15.86-4.68 15.66-4.68C15.45-4.68 15.28-4.85 15.28-5.06L15.28-6.33L15.22-6.33C14.75-5.21 13.80-4.76 12.77-4.76ZM12.95-5.44C14.30-5.44 15.23-6.55 15.23-7.99C15.23-9.40 14.33-10.55 12.95-10.55C11.55-10.55 10.63-9.45 10.63-7.99C10.63-6.57 11.52-5.44 12.95-5.44ZM10.34-3.50C10.34-3.64 10.46-3.77 10.61-3.77L16.10-3.77C16.24-3.77 16.37-3.64 16.37-3.50C16.37-3.36 16.24-3.25 16.10-3.25L10.61-3.25C10.46-3.25 10.34-3.35 10.34-3.50Z" fill="currentColor"/>
</svg>