<svg xmlns="http://www.w3.org/2000/svg" viewBox="0 0 24 24" width="24" height="24">
  <title>dot.squareshape.split.2x2</title>
  <path transform="matrix(0.9642184557438794, 0, 0, 0.9642184557438794, -0.8813559322033897, 20.15819209039548)" d="M2.99 1.30C2.99 1.68 3.22 1.91 3.60 1.91L23.12 1.91C23.50 1.91 23.73 1.68 23.73 1.30L23.73-18.22C23.73-18.60 23.50-18.83 23.12-18.83L3.60-18.83C3.22-18.83 2.99-18.60 2.99-18.22ZM3.86 0.79L3.86-8.00L8.65-8.00C8.63-8.14 8.61-8.30 8.61-8.45C8.61-8.59 8.63-8.73 8.65-8.87L3.86-8.87L3.86-17.72C3.86-17.87 3.95-17.96 4.11-17.96L12.93-17.96L12.93-13.15C13.08-13.17 13.22-13.18 13.37-13.18C13.51-13.18 13.66-13.17 13.79-13.15L13.79-17.96L22.62-17.96C22.77-17.96 22.86-17.87 22.86-17.72L22.86-8.87L18.08-8.87C18.12-8.73 18.12-8.59 18.12-8.45C18.12-8.30 18.12-8.14 18.08-8.00L22.86-8.00L22.86 0.79C22.86 0.95 22.77 1.04 22.62 1.04L13.79 1.04L13.79-3.73C13.66-3.70 13.51-3.69 13.37-3.69C13.22-3.69 13.08-3.70 12.93-3.73L12.93 1.04L4.11 1.04C3.95 1.04 3.86 0.95 3.86 0.79ZM13.37-4.73C15.40-4.73 17.07-6.40 17.07-8.45C17.07-10.48 15.40-12.13 13.37-12.13C11.33-12.13 9.67-10.48 9.67-8.45C9.67-6.40 11.33-4.73 13.37-4.73Z" fill="currentColor"/>
</svg>