<svg xmlns="http://www.w3.org/2000/svg" viewBox="0 0 24 24" width="24" height="24">
  <title>drop.degreesign.slash.fill</title>
  <path transform="matrix(0.795278036657347, 0, 0, 0.795278036657347, 3.6973438956197584, 19.670083876980428)" d="M17.00-16.20C18.69-16.20 20.02-17.52 20.02-19.21C20.02-20.89 18.69-22.22 17.00-22.22C15.33-22.22 14.00-20.89 14.00-19.21C14.00-17.52 15.33-16.20 17.00-16.20ZM17.00-17.02C15.79-17.02 14.82-17.98 14.82-19.21C14.82-20.44 15.79-21.40 17.00-21.40C18.23-21.40 19.20-20.44 19.20-19.21C19.20-17.98 18.23-17.02 17.00-17.02ZM5.51-14.02L17.07-2.46C17.24-3.09 17.32-3.77 17.32-4.49C17.32-6.41 16.55-8.68 15.52-10.91C14.29-13.57 12.55-16.44 10.84-19.07C10.55-19.54 10.22-19.78 9.71-19.78C9.20-19.78 8.87-19.54 8.58-19.07C7.50-17.44 6.46-15.71 5.51-14.02ZM18.90 1.99C19.07 2.17 19.34 2.18 19.51 1.99C19.70 1.82 19.69 1.56 19.51 1.38L1.61-16.52C1.45-16.68 1.18-16.70 1.00-16.52C0.82-16.36 0.82-16.08 1.00-15.91ZM9.71 2.93C12.33 2.93 14.45 1.95 15.77 0.27L4.13-11.38C2.87-8.68 2.10-6.41 2.10-4.49C2.10-0.05 5.14 2.93 9.71 2.93Z" fill="currentColor"/>
</svg>