<svg xmlns="http://www.w3.org/2000/svg" viewBox="0 0 24 24" width="24" height="24">
  <title>dryer.circle</title>
  <path transform="matrix(0.8703042665306816, 0, 0, 0.8703042665306816, 0.17440081591024992, 19.36868944416114)" d="M13.59 3.02C19.93 3.02 25.08-2.11 25.08-8.46C25.08-14.81 19.93-19.96 13.59-19.96C7.24-19.96 2.10-14.81 2.10-8.46C2.10-2.11 7.24 3.02 13.59 3.02ZM13.59 2.13C7.73 2.13 2.99-2.60 2.99-8.46C2.99-14.32 7.73-19.07 13.59-19.07C19.45-19.07 24.19-14.32 24.19-8.46C24.19-2.60 19.45 2.13 13.59 2.13ZM17.73-15.01L9.43-15.01C8.68-15.01 8.19-14.47 8.19-13.66L8.19-11.81L18.97-11.81L18.97-13.66C18.97-14.47 18.47-15.01 17.73-15.01ZM10.32-12.61C10.00-12.61 9.71-12.88 9.71-13.21C9.71-13.54 10.00-13.82 10.32-13.82C10.65-13.82 10.92-13.54 10.92-13.21C10.92-12.88 10.65-12.61 10.32-12.61ZM12.05-12.61C11.72-12.61 11.46-12.88 11.46-13.21C11.46-13.54 11.72-13.82 12.05-13.82C12.38-13.82 12.64-13.54 12.64-13.21C12.64-12.88 12.38-12.61 12.05-12.61ZM15.34-12.90C15.18-12.90 15.04-13.04 15.04-13.21C15.04-13.37 15.18-13.52 15.34-13.52L17.18-13.52C17.34-13.52 17.50-13.37 17.50-13.21C17.50-13.04 17.34-12.90 17.18-12.90ZM9.43-1.92L17.73-1.92C18.47-1.92 18.97-2.46 18.97-3.27L18.97-11.16L8.19-11.16L8.19-3.27C8.19-2.46 8.68-1.92 9.43-1.92ZM11.19-3.66C10.56-3.66 10.14-4.07 10.14-4.72L10.14-8.93C10.14-9.59 10.56-10.00 11.19-10.00L15.97-10.00C16.61-10.00 17.03-9.59 17.03-8.93L17.03-4.72C17.03-4.07 16.61-3.66 15.97-3.66ZM11.21-4.25L15.95-4.25C16.27-4.25 16.42-4.42 16.42-4.75L16.42-8.91C16.42-9.25 16.27-9.40 15.95-9.40L11.21-9.40C10.90-9.40 10.73-9.25 10.73-8.91L10.73-4.75C10.73-4.42 10.90-4.25 11.21-4.25Z" fill="currentColor"/>
</svg>