<svg xmlns="http://www.w3.org/2000/svg" viewBox="0 0 24 24" width="24" height="24">
  <title>dumbbell</title>
  <path transform="matrix(0.8027594857322045, 0, 0, 0.8027594857322045, -0.3988711194731893, 18.81091251175917)" d="M4.68-2.95L5.29-2.95L5.29-2.72C5.29-1.43 6.20-0.59 7.57-0.59L8.38-0.59C9.76-0.59 10.69-1.43 10.69-2.72L10.69-6.28L20.20-6.28L20.20-2.72C20.20-1.43 21.13-0.59 22.51-0.59L23.32-0.59C24.69-0.59 25.61-1.43 25.61-2.72L25.61-2.95L26.21-2.95C27.20-2.95 27.90-3.67 27.90-4.63L27.90-12.30C27.90-13.30 27.20-14.02 26.21-14.02L25.61-14.02L25.61-14.21C25.61-15.52 24.75-16.38 23.45-16.38L22.41-16.38C21.08-16.38 20.20-15.52 20.20-14.21L20.20-10.68L10.69-10.68L10.69-14.21C10.69-15.52 9.82-16.38 8.48-16.38L7.45-16.38C6.14-16.38 5.29-15.52 5.29-14.21L5.29-14.02L4.68-14.02C3.70-14.02 2.99-13.30 2.99-12.30L2.99-4.63C2.99-3.67 3.70-2.95 4.68-2.95ZM7.61-1.43C6.73-1.43 6.13-1.95 6.13-2.72L6.13-14.21C6.13-15 6.68-15.54 7.48-15.54L8.45-15.54C9.28-15.54 9.84-15 9.84-14.21L9.84-2.72C9.84-1.95 9.25-1.43 8.36-1.43ZM22.54-1.43C21.66-1.43 21.05-1.95 21.05-2.72L21.05-14.21C21.05-15 21.61-15.54 22.44-15.54L23.41-15.54C24.21-15.54 24.76-15 24.76-14.21L24.76-2.72C24.76-1.95 24.16-1.43 23.30-1.43ZM26.19-13.20C26.72-13.20 27.08-12.81 27.08-12.28L27.08-4.66C27.08-4.15 26.72-3.77 26.19-3.77L25.61-3.77L25.61-13.20ZM4.70-3.77C4.18-3.77 3.81-4.15 3.81-4.66L3.81-12.28C3.81-12.81 4.18-13.20 4.70-13.20L5.29-13.20L5.29-3.77ZM10.69-7.13L10.69-9.82L20.20-9.82L20.20-7.13Z" fill="currentColor"/>
</svg>