<svg xmlns="http://www.w3.org/2000/svg" viewBox="0 0 24 24" width="24" height="24">
  <title>electronic.toll.collection</title>
  <path transform="matrix(0.832520325203252, 0, 0, 0.832520325203252, -0.4878048780487805, 19.053658536585367)" d="M23.38-0.02C25.89-0.02 26.63-2.21 26.96-4.56C26.99-4.71 27.01-4.86 27.01-4.96C27.01-5.21 26.91-5.40 26.61-5.40C26.41-5.40 26.25-5.25 26.21-5.05C26.04-3.20 25.50-0.86 23.38-0.86C20.60-0.86 20.16-5.79 20.16-8.55C20.16-12.34 20.89-16.09 23.37-16.09C25.36-16.09 25.99-13.57 26.19-11.75C26.24-11.51 26.38-11.36 26.64-11.36C26.86-11.36 27.01-11.53 27.01-11.78C27.01-11.87 26.98-12.09 26.95-12.30C26.70-14.51 25.78-16.92 23.37-16.92C19.98-16.92 19.27-12 19.27-8.55C19.27-5.18 19.93-0.02 23.38-0.02ZM3.42-0.27L8.38-0.27C8.66-0.27 8.85-0.42 8.85-0.70C8.85-0.97 8.66-1.11 8.38-1.11L3.84-1.11L3.84-8.32L8.21-8.32C8.48-8.32 8.68-8.46 8.68-8.72C8.68-9 8.48-9.15 8.21-9.15L3.84-9.15L3.84-15.87L8.38-15.87C8.66-15.87 8.85-16.01 8.85-16.28C8.85-16.56 8.66-16.71 8.38-16.71L3.42-16.71C3.18-16.71 2.99-16.51 2.99-16.22L2.99-0.75C2.99-0.47 3.16-0.27 3.42-0.27ZM14.52-0.18C14.82-0.18 14.98-0.40 14.98-0.73L14.98-15.83L18.08-15.83C18.38-15.83 18.56-15.98 18.56-16.27C18.56-16.56 18.38-16.71 18.08-16.71L10.95-16.71C10.64-16.71 10.45-16.56 10.45-16.27C10.45-15.98 10.64-15.83 10.95-15.83L14.05-15.83L14.05-0.73C14.05-0.39 14.20-0.18 14.52-0.18Z" fill="currentColor"/>
</svg>