<svg xmlns="http://www.w3.org/2000/svg" viewBox="0 0 24 24" width="24" height="24">
  <title>electronic.toll.collection.rectangle.fill</title>
  <path transform="matrix(0.6491695194624065, 0, 0, 0.6491695194624065, 0.2502852795739825, 17.496386458729557)" d="M5.86 0.88L30.34 0.88C32.41 0.88 33.50-0.22 33.50-2.27L33.50-14.66C33.50-16.70 32.41-17.81 30.34-17.81L5.86-17.81C3.79-17.81 2.70-16.72 2.70-14.66L2.70-2.27C2.70-0.20 3.79 0.88 5.86 0.88ZM25.98-3.41C23.25-3.41 22.10-5.80 22.10-8.47C22.10-11.23 23.30-13.50 25.96-13.50C27.42-13.50 28.65-12.69 29.18-11.40C29.27-11.14 29.39-10.86 29.39-10.66C29.39-10.44 29.23-10.31 28.98-10.31C28.78-10.31 28.68-10.42 28.61-10.64C28.13-12.23 27.01-12.80 25.97-12.80C23.82-12.80 22.99-10.62 22.99-8.47C22.99-6.43 23.68-4.15 25.97-4.15C27.30-4.15 28.31-4.84 28.61-6.18C28.64-6.35 28.76-6.50 28.97-6.50C29.23-6.50 29.38-6.35 29.38-6.12C29.38-5.98 29.32-5.82 29.26-5.67C28.82-4.30 27.69-3.41 25.98-3.41ZM7.84-3.52C7.61-3.52 7.44-3.70 7.44-3.95L7.44-12.88C7.44-13.10 7.59-13.29 7.82-13.29L12.07-13.29C12.30-13.29 12.46-13.13 12.46-12.91C12.46-12.69 12.30-12.54 12.07-12.54L8.29-12.54L8.29-8.92L11.89-8.92C12.13-8.92 12.28-8.75 12.28-8.55C12.28-8.32 12.13-8.19 11.89-8.19L8.29-8.19L8.29-4.27L12.07-4.27C12.30-4.27 12.46-4.13 12.46-3.90C12.46-3.69 12.30-3.52 12.07-3.52ZM17.64-3.52C17.40-3.52 17.24-3.69 17.24-3.94L17.24-12.52L14.45-12.52C14.20-12.52 14.06-12.67 14.06-12.90C14.06-13.11 14.20-13.29 14.45-13.29L20.85-13.29C21.12-13.29 21.26-13.11 21.26-12.90C21.26-12.67 21.12-12.52 20.85-12.52L18.09-12.52L18.09-3.94C18.09-3.69 17.91-3.52 17.64-3.52Z" fill="currentColor"/>
</svg>