<svg xmlns="http://www.w3.org/2000/svg" viewBox="0 0 24 24" width="24" height="24">
  <title>ellipsis.vertical.bubble</title>
  <path transform="matrix(0.8023820717755837, 0, 0, 0.8023820717755837, -0.397743300423131, 18.22002820874471)" d="M9.08 3.73C9.35 3.73 9.56 3.57 9.84 3.33L14.06-0.29L23.45-0.29C26.21-0.29 27.91-2.03 27.91-4.76L27.91-14.77C27.91-17.50 26.21-19.23 23.45-19.23L7.45-19.23C4.69-19.23 2.99-17.52 2.99-14.77L2.99-4.76C2.99-2.00 4.69-0.29 7.45-0.29L8.45-0.29L8.45 3.02C8.45 3.46 8.71 3.73 9.08 3.73ZM9.27 2.75L9.27-0.74C9.27-1.04 9.15-1.16 8.85-1.16L7.48-1.16C5.23-1.16 3.86-2.55 3.86-4.78L3.86-14.74C3.86-16.97 5.23-18.36 7.48-18.36L23.43-18.36C25.63-18.36 27.04-16.97 27.04-14.74L27.04-4.78C27.04-2.55 25.63-1.16 23.43-1.16L14.16-1.16C13.78-1.16 13.59-1.10 13.29-0.81ZM15.47-13.36C16.20-13.36 16.79-13.95 16.79-14.67C16.79-15.42 16.20-16.02 15.47-16.02C14.73-16.02 14.14-15.42 14.14-14.67C14.14-13.95 14.73-13.36 15.47-13.36ZM15.47-8.44C16.20-8.44 16.79-9.04 16.79-9.76C16.79-10.50 16.20-11.09 15.47-11.09C14.73-11.09 14.14-10.50 14.14-9.76C14.14-9.04 14.73-8.44 15.47-8.44ZM15.47-3.52C16.20-3.52 16.79-4.11 16.79-4.84C16.79-5.59 16.20-6.18 15.47-6.18C14.73-6.18 14.14-5.59 14.14-4.84C14.14-4.11 14.73-3.52 15.47-3.52Z" fill="currentColor"/>
</svg>