<svg xmlns="http://www.w3.org/2000/svg" viewBox="0 0 24 24" width="24" height="24">
  <title>esim.fill</title>
  <path transform="matrix(0.9642184557438794, 0, 0, 0.9642184557438794, -0.8305084745762703, 20.135593220338983)" d="M2.99-1.21C2.99 0.86 4.08 1.93 6.15 1.93L7.58 1.93L7.58-0.46C7.58-0.68 7.75-0.84 7.98-0.84C8.20-0.84 8.37-0.68 8.37-0.46L8.37 1.93L11.13 1.93L11.13-0.46C11.13-0.68 11.30-0.84 11.53-0.84C11.77-0.84 11.93-0.68 11.93-0.46L11.93 1.93L14.70 1.93L14.70-0.46C14.70-0.68 14.86-0.84 15.09-0.84C15.32-0.84 15.48-0.68 15.48-0.46L15.48 1.93L18.25 1.93L18.25-0.46C18.25-0.68 18.41-0.84 18.64-0.84C18.88-0.84 19.04-0.68 19.04-0.46L19.04 1.93L20.46 1.93C22.54 1.93 23.63 0.83 23.63-1.21L23.63-15.66C23.63-17.70 22.54-18.81 20.46-18.81L19.04-18.81L19.04-16.42C19.04-16.18 18.88-16.02 18.64-16.02C18.41-16.02 18.25-16.18 18.25-16.42L18.25-18.81L15.48-18.81L15.48-16.42C15.48-16.18 15.32-16.02 15.09-16.02C14.86-16.02 14.70-16.18 14.70-16.42L14.70-18.81L11.93-18.81L11.93-16.42C11.93-16.18 11.77-16.02 11.53-16.02C11.30-16.02 11.13-16.18 11.13-16.42L11.13-18.81L8.37-18.81L8.37-16.42C8.37-16.18 8.20-16.02 7.98-16.02C7.75-16.02 7.58-16.18 7.58-16.42L7.58-18.81L6.15-18.81C4.08-18.81 2.99-17.73 2.99-15.66ZM6.93-4.51L6.93-12.35C6.93-12.97 7.35-13.39 7.98-13.39L18.64-13.39C19.28-13.39 19.70-12.97 19.70-12.35L19.70-4.51C19.70-3.89 19.28-3.48 18.64-3.48L7.98-3.48C7.35-3.48 6.93-3.89 6.93-4.51Z" fill="currentColor"/>
</svg>