<svg xmlns="http://www.w3.org/2000/svg" viewBox="0 0 24 24" width="24" height="24">
  
  <path transform="matrix(0.8703042665306816, 0, 0, 0.8703042665306816, 0.17440081591024992, 19.36868944416114)" d="M13.59 3.02C19.93 3.02 25.08-2.11 25.08-8.46C25.08-14.81 19.93-19.96 13.59-19.96C7.24-19.96 2.10-14.81 2.10-8.46C2.10-2.11 7.24 3.02 13.59 3.02ZM13.59 2.13C7.73 2.13 2.99-2.60 2.99-8.46C2.99-14.32 7.73-19.07 13.59-19.07C19.45-19.07 24.19-14.32 24.19-8.46C24.19-2.60 19.45 2.13 13.59 2.13ZM8.51-3.53L12.34-3.53C12.54-3.53 12.69-3.67 12.69-3.87C12.69-4.08 12.54-4.22 12.34-4.22L8.89-4.22L8.89-8.19L12.16-8.19C12.36-8.19 12.49-8.33 12.49-8.53C12.49-8.73 12.36-8.87 12.16-8.87L8.89-8.87L8.89-12.60L12.34-12.60C12.54-12.60 12.69-12.74 12.69-12.94C12.69-13.15 12.54-13.29 12.34-13.29L8.51-13.29C8.27-13.29 8.12-13.13 8.12-12.88L8.12-3.94C8.12-3.68 8.25-3.53 8.51-3.53ZM14.59-3.53L19.29-3.53C19.50-3.53 19.62-3.67 19.62-3.87C19.62-4.08 19.50-4.22 19.29-4.22L15.11-4.22L15.11-4.28L19.41-12.47C19.46-12.57 19.54-12.75 19.54-12.88C19.54-13.17 19.30-13.29 19.13-13.29L14.59-13.29C14.39-13.29 14.24-13.15 14.24-12.94C14.24-12.74 14.39-12.60 14.59-12.60L18.64-12.60L18.64-12.54L14.31-4.32C14.24-4.21 14.19-4.08 14.19-3.94C14.19-3.64 14.40-3.53 14.59-3.53Z" fill="currentColor"/>
</svg>