<svg xmlns="http://www.w3.org/2000/svg" viewBox="0 0 24 24" width="24" height="24">
  <title>ev.plug.dc.nacs.fill</title>
  <path transform="matrix(0.7875711429010921, 0, 0, 0.7875711429010921, 0.347946469773881, 18.66359021688971)" d="M14.80-7.21C19.16-7.21 22.84-5.79 25.70-3.09C26.85-4.95 27.49-7.18 27.49-9.71C27.49-10.95 27.39-12.04 27.18-13.00C26.66-11.20 25.01-9.91 23.00-9.91C20.55-9.91 18.62-11.85 18.62-14.30C18.62-16.36 19.99-18.06 21.88-18.54C20.05-19.09 17.72-19.34 14.80-19.34C11.87-19.34 9.54-19.09 7.71-18.54C9.61-18.06 10.97-16.36 10.97-14.30C10.97-11.85 9.04-9.91 6.59-9.91C4.58-9.91 2.93-11.20 2.41-13.00C2.20-12.04 2.10-10.95 2.10-9.71C2.10-7.18 2.74-4.95 3.89-3.09C6.76-5.79 10.43-7.21 14.80-7.21ZM6.59-10.61C8.64-10.61 10.28-12.23 10.28-14.30C10.28-16.35 8.64-17.99 6.59-17.99C4.52-17.99 2.89-16.35 2.89-14.30C2.89-12.23 4.52-10.61 6.59-10.61ZM23.00-10.61C25.07-10.61 26.70-12.23 26.70-14.30C26.70-16.35 25.07-17.99 23.00-17.99C20.95-17.99 19.31-16.35 19.31-14.30C19.31-12.23 20.95-10.61 23.00-10.61ZM6.59-11.91C5.25-11.91 4.20-12.95 4.20-14.30C4.20-15.63 5.25-16.69 6.59-16.69C7.92-16.69 8.98-15.63 8.98-14.30C8.98-12.95 7.92-11.91 6.59-11.91ZM23.00-11.91C21.67-11.91 20.61-12.95 20.61-14.30C20.61-15.63 21.67-16.69 23.00-16.69C24.35-16.69 25.39-15.63 25.39-14.30C25.39-12.95 24.35-11.91 23.00-11.91ZM6.59-13.21C7.18-13.21 7.68-13.70 7.68-14.30C7.68-14.89 7.18-15.38 6.59-15.38C5.99-15.38 5.50-14.89 5.50-14.30C5.50-13.70 5.99-13.21 6.59-13.21ZM23.00-13.21C23.60-13.21 24.09-13.70 24.09-14.30C24.09-14.89 23.60-15.38 23.00-15.38C22.41-15.38 21.93-14.89 21.93-14.30C21.93-13.70 22.41-13.21 23.00-13.21ZM14.80 2.41C19.37 2.41 23.11 0.57 25.32-2.51C22.51-5.18 19.03-6.52 14.80-6.52C10.56-6.52 7.08-5.18 4.27-2.51C6.47 0.57 10.22 2.41 14.80 2.41ZM14.80-0.67C13.80-0.67 13.00-1.48 13.00-2.46C13.00-3.46 13.80-4.27 14.80-4.27C15.79-4.27 16.59-3.46 16.59-2.46C16.59-1.48 15.79-0.67 14.80-0.67ZM9.55-1.42C8.96-1.42 8.50-1.89 8.50-2.46C8.50-3.05 8.96-3.52 9.55-3.52C10.13-3.52 10.59-3.05 10.59-2.46C10.59-1.89 10.13-1.42 9.55-1.42ZM20.05-1.42C19.46-1.42 19.00-1.89 19.00-2.46C19.00-3.05 19.46-3.52 20.05-3.52C20.63-3.52 21.09-3.05 21.09-2.46C21.09-1.89 20.63-1.42 20.05-1.42Z" fill="currentColor"/>
</svg>