<svg xmlns="http://www.w3.org/2000/svg" viewBox="0 0 24 24" width="24" height="24">
  
  <path transform="matrix(0.9642184557438794, 0, 0, 0.9642184557438794, -0.8813559322033897, 20.15819209039548)" d="M6.15 1.91L20.58 1.91C22.65 1.91 23.73 0.81 23.73-1.24L23.73-15.68C23.73-17.73 22.65-18.83 20.58-18.83L6.15-18.83C4.08-18.83 2.99-17.75 2.99-15.68L2.99-1.24C2.99 0.83 4.08 1.91 6.15 1.91ZM6.18 1.04C4.65 1.04 3.86 0.25 3.86-1.28L3.86-15.63C3.86-17.17 4.65-17.96 6.18-17.96L20.54-17.96C22.02-17.96 22.86-17.17 22.86-15.63L22.86-1.28C22.86 0.25 22.02 1.04 20.54 1.04ZM13.36-6.38C13.64-6.38 13.83-6.59 13.84-6.93L13.93-13.29C13.93-13.63 13.70-13.86 13.36-13.86C13.02-13.86 12.79-13.63 12.80-13.30L12.89-6.93C12.89-6.59 13.08-6.38 13.36-6.38ZM13.36-2.98C13.84-2.98 14.21-3.38 14.21-3.82C14.21-4.29 13.84-4.68 13.36-4.68C12.89-4.68 12.50-4.29 12.50-3.82C12.50-3.38 12.89-2.98 13.36-2.98Z" fill="currentColor"/>
</svg>