<svg xmlns="http://www.w3.org/2000/svg" viewBox="0 0 24 24" width="24" height="24">
  
  <path transform="matrix(0.8550434201736807, 0, 0, 0.8550434201736807, -0.08416833667334656, 19.224448897795593)" d="M6.70-12.61L21.56-12.61C22.41-12.61 23.20-12.40 23.88-12L21.04-18.23C20.47-19.50 19.46-20.14 18.08-20.14L10.18-20.14C8.80-20.14 7.79-19.50 7.23-18.23L4.38-12C5.06-12.40 5.86-12.61 6.70-12.61ZM5.05 1.43L11.99 1.43C12.16 2.45 13.07 3.25 14.13 3.25C15.20 3.25 16.10 2.45 16.28 1.43L23.21 1.43C23.45 1.43 23.65 1.24 23.65 1.00C23.65 0.76 23.45 0.56 23.21 0.56L16.25 0.56C16.05-0.25 15.39-0.90 14.57-1.08L14.57-4.28L21.56-4.28C23.65-4.28 25.28-5.91 25.28-7.99C25.28-10.09 23.65-11.73 21.56-11.73L6.70-11.73C4.62-11.73 2.99-10.09 2.99-7.99C2.99-5.91 4.62-4.28 6.70-4.28L13.70-4.28L13.70-1.08C12.88-0.90 12.21-0.25 12.01 0.56L5.05 0.56C4.82 0.56 4.62 0.76 4.62 1.00C4.62 1.24 4.82 1.43 5.05 1.43ZM20.32-7.99C20.32-8.60 20.85-9.15 21.49-9.15C22.09-9.15 22.64-8.60 22.64-7.99C22.64-7.37 22.09-6.82 21.49-6.83C20.85-6.86 20.32-7.34 20.32-7.99Z" fill="currentColor"/>
</svg>