<svg xmlns="http://www.w3.org/2000/svg" viewBox="0 0 24 24" width="24" height="24">
  <title>f.circle</title>
  <path transform="matrix(0.8703042665306816, 0, 0, 0.8703042665306816, 0.17440081591024992, 19.36868944416114)" d="M13.59 3.02C19.93 3.02 25.08-2.11 25.08-8.46C25.08-14.81 19.93-19.96 13.59-19.96C7.24-19.96 2.10-14.81 2.10-8.46C2.10-2.11 7.24 3.02 13.59 3.02ZM13.59 2.13C7.73 2.13 2.99-2.60 2.99-8.46C2.99-14.32 7.73-19.07 13.59-19.07C19.45-19.07 24.19-14.32 24.19-8.46C24.19-2.60 19.45 2.13 13.59 2.13ZM10.98-3.19C11.27-3.19 11.44-3.38 11.44-3.66L11.44-8.09L16.16-8.09C16.42-8.09 16.56-8.25 16.56-8.47C16.56-8.71 16.42-8.86 16.16-8.86L11.44-8.86L11.44-12.88L16.58-12.88C16.85-12.88 16.99-13.05 16.99-13.28C16.99-13.50 16.85-13.68 16.58-13.68L10.96-13.68C10.69-13.68 10.55-13.48 10.55-13.17L10.55-3.66C10.55-3.39 10.72-3.19 10.98-3.19Z" fill="currentColor"/>
</svg>