<svg xmlns="http://www.w3.org/2000/svg" viewBox="0 0 24 24" width="24" height="24">
  <title>fan.floor</title>
  <path transform="matrix(0.8073163040050457, 0, 0, 0.8073163040050457, 2.2696310312204355, 18.830652790917693)" d="M7.46 3.93L16.65 3.93C16.89 3.93 17.04 3.77 17.04 3.54C17.04 3.11 16.71 2.74 16.08 2.74L12.50 2.74L12.50-2.73C17.30-2.96 21.12-6.93 21.12-11.79C21.12-16.79 17.06-20.85 12.06-20.85C7.04-20.85 2.99-16.79 2.99-11.79C2.99-6.91 6.82-2.95 11.64-2.73L11.64 2.74L8.03 2.74C7.41 2.74 7.08 3.11 7.08 3.54C7.08 3.77 7.23 3.93 7.46 3.93ZM12.06-3.54C7.51-3.54 3.81-7.24 3.81-11.79C3.81-16.34 7.51-20.03 12.06-20.03C16.61-20.03 20.30-16.34 20.30-11.79C20.30-7.24 16.61-3.54 12.06-3.54ZM14.55-11.79C14.55-11.94 14.54-12.09 14.52-12.23L17.23-12.23C18.33-12.23 18.87-12.76 18.87-13.82C18.87-15.88 17.09-17.89 15.16-17.89C13.66-17.89 12.80-16.72 12.26-14.27C12.20-14.29 12.13-14.29 12.06-14.29C11.91-14.29 11.75-14.27 11.61-14.25L11.61-16.95C11.61-18.05 11.09-18.60 10.03-18.60C7.97-18.60 5.95-16.82 5.95-14.88C5.95-13.39 7.13-12.53 9.56-11.99C9.56-11.93 9.56-11.86 9.56-11.79C9.56-11.64 9.57-11.48 9.60-11.33L6.89-11.33C5.79-11.33 5.25-10.82 5.25-9.76C5.25-7.69 7.03-5.68 8.95-5.68C10.45-5.68 11.31-6.86 11.85-9.29C11.92-9.29 11.99-9.28 12.06-9.28C12.21-9.28 12.36-9.30 12.50-9.33L12.50-6.62C12.50-5.52 13.03-4.97 14.09-4.97C16.15-4.97 18.16-6.76 18.16-8.68C18.16-10.18 16.99-11.04 14.55-11.58C14.55-11.65 14.55-11.72 14.55-11.79ZM12.06-10.20C11.18-10.20 10.46-10.90 10.46-11.79C10.46-12.67 11.18-13.38 12.06-13.38C12.94-13.38 13.65-12.67 13.65-11.79C13.65-10.90 12.94-10.20 12.06-10.20Z" fill="currentColor"/>
</svg>