<svg xmlns="http://www.w3.org/2000/svg" viewBox="0 0 24 24" width="24" height="24">
  
  <path transform="matrix(0.7526197444903246, 0, 0, 0.7526197444903246, 0.20740949349226212, 18.451656364390693)" d="M2.93-10.76L14.31 0.55C15.15 1.39 16.20 1.39 17.05 0.55L28.41-10.76C29.16-11.51 29.12-12.49 28.41-13.23C25.42-16.35 20.54-18.33 15.67-18.33C10.80-18.33 5.92-16.35 2.94-13.23C2.20-12.50 2.19-11.51 2.93-10.76ZM3.57-11.34C3.13-11.78 3.14-12.22 3.57-12.66C6.40-15.60 11.04-17.46 15.66-17.46C20.26-17.46 24.87-15.55 27.74-12.66C28.18-12.22 28.18-11.79 27.74-11.34L16.46-0.09C15.93 0.45 15.39 0.45 14.85-0.09Z" fill="currentColor"/>
</svg>