<svg xmlns="http://www.w3.org/2000/svg" viewBox="0 0 24 24" width="24" height="24">
  
  <path transform="matrix(0.8703042665306816, 0, 0, 0.8703042665306816, 0.17440081591024992, 19.36868944416114)" d="M13.59 3.02C19.91 3.02 25.08-2.13 25.08-8.46C25.08-14.79 19.91-19.96 13.59-19.96C7.27-19.96 2.10-14.79 2.10-8.46C2.10-2.13 7.27 3.02 13.59 3.02ZM15.91-12.29C15.13-12.29 14.50-12.93 14.50-13.72C14.50-14.51 15.13-15.14 15.91-15.14C16.70-15.14 17.33-14.51 17.33-13.72C17.33-12.93 16.70-12.29 15.91-12.29ZM10.84-3.79C10.51-3.98 10.42-4.42 10.62-4.73L11.81-6.64C10.32-6.84 9.67-8.41 10.46-9.60L11.94-11.81C12.02-11.95 11.99-12.09 11.85-12.18L10.66-12.88L8.12-12.88C7.75-12.88 7.45-13.20 7.45-13.57C7.45-13.93 7.75-14.24 8.12-14.24L10.85-14.24C10.98-14.24 11.10-14.21 11.20-14.16L19.71-9.04C20.04-8.85 20.14-8.44 19.97-8.10C19.78-7.79 19.34-7.69 19.02-7.88L14.71-10.45C14.60-10.52 14.45-10.50 14.38-10.39L13.21-8.63C13.07-8.40 13.17-8.12 13.44-8.10L16.29-7.78C16.91-7.70 17.13-7.14 16.86-6.69L15.18-4.01C14.98-3.69 14.58-3.61 14.24-3.79C13.91-3.96 13.84-4.42 14.03-4.73L15.11-6.47L13.38-6.56L11.78-4.01C11.58-3.69 11.14-3.61 10.84-3.79ZM8.92-2.34C8.20-2.34 7.65-2.48 7.18-2.88C7.03-3 7.05-3.18 7.15-3.28C7.24-3.36 7.38-3.39 7.54-3.28C7.90-3.02 8.27-2.87 8.92-2.87L18.27-2.87C18.90-2.87 19.28-3 19.65-3.28C19.79-3.41 19.95-3.36 20.03-3.27C20.11-3.15 20.13-3 19.99-2.88C19.55-2.48 18.97-2.34 18.27-2.34Z" fill="currentColor"/>
</svg>