<svg xmlns="http://www.w3.org/2000/svg" viewBox="0 0 24 24" width="24" height="24">
  
  <path transform="matrix(0.8703042665306816, 0, 0, 0.8703042665306816, 0.17440081591024992, 19.36868944416114)" d="M13.59 3.02C19.91 3.02 25.08-2.13 25.08-8.46C25.08-14.79 19.91-19.96 13.59-19.96C7.27-19.96 2.10-14.79 2.10-8.46C2.10-2.13 7.27 3.02 13.59 3.02ZM17.73-11.44C16.95-11.44 16.31-12.07 16.31-12.87C16.31-13.65 16.95-14.29 17.73-14.29C18.53-14.29 19.16-13.65 19.16-12.87C19.16-12.07 18.53-11.44 17.73-11.44ZM6.30-4.73C5.81-4.61 5.50-4.92 5.45-5.25C5.39-5.57 5.55-5.89 5.99-6L10.13-7.05L10.13-8.60C10.13-9.22 10.57-9.48 11.16-9.36L13.93-8.80L15.82-10.21C16.27-10.55 16.83-10.73 17.40-10.73L17.98-10.73C18.48-10.73 18.94-10.46 19.16-10.01L20.30-7.73C20.33-7.64 20.37-7.54 20.37-7.43L20.37-4.79C20.37-4.41 20.10-4.14 19.70-4.14C19.32-4.14 19.04-4.41 19.04-4.79L19.04-7.27L18.33-8.71C18.28-8.81 18.15-8.82 18.06-8.75L15.67-6.96C15.25-6.64 14.73-6.42 14.24-6.35L11.45-5.93L11.45-4.79C11.45-4.43 11.16-4.14 10.78-4.14C10.42-4.14 10.13-4.43 10.13-4.79L10.13-5.68ZM11.45-7.37L12.35-7.59L11.45-7.88ZM14.59-4.14C14.04-4.14 13.59-4.57 13.59-5.13C13.59-5.67 14.04-6.12 14.59-6.12L17.23-6.12C17.78-6.12 18.21-5.67 18.21-5.13C18.21-4.57 17.78-4.14 17.23-4.14ZM17.21-4.57C17.53-4.57 17.78-4.82 17.78-5.13C17.78-5.44 17.53-5.68 17.21-5.68C16.91-5.68 16.66-5.44 16.66-5.13C16.66-4.82 16.91-4.57 17.21-4.57Z" fill="currentColor"/>
</svg>