<svg xmlns="http://www.w3.org/2000/svg" viewBox="0 0 24 24" width="24" height="24">
  
  <path transform="matrix(0.694849607387174, 0, 0, 0.694849607387174, 2.7504944703521947, 17.873012897895414)" d="M9.52 2.45L16.49 2.45C17.87 2.45 18.79 1.49 18.79 0.02L18.79-8.73C18.79-9.96 18.14-10.83 17.11-11.07L17.11-13.80C17.11-17.00 19.11-19.11 21.96-19.11C24.82-19.11 26.81-17.00 26.81-13.80L26.81-11.27C26.81-10.99 27.04-10.80 27.26-10.80C27.49-10.80 27.70-10.98 27.70-11.27L27.70-13.79C27.70-17.54 25.29-19.97 21.96-19.97C18.63-19.97 16.23-17.54 16.23-13.79L16.23-11.16L7.83-11.16C7.73-10.79 7.58-10.45 7.38-10.16L10.66-8.79C11.75-8.34 12.18-7.29 11.82-6.38C11.47-5.48 10.46-4.96 9.38-5.40L8.03-5.95C8.03-5.05 7.99-4.20 8.09-3.80L9.46 1.93C9.49 2.11 9.52 2.29 9.52 2.45ZM4.91-9.90C6-9.90 6.87-10.77 6.87-11.84C6.87-12.94 6-13.80 4.91-13.80C3.86-13.80 2.96-12.94 2.96-11.84C2.96-10.77 3.86-9.90 4.91-9.90ZM4.91-3.21C5.18-3.21 5.41-3.05 5.50-2.71L6.84 2.39C7.14 3.49 8.60 3.12 8.45 2.17C8.37 1.68 7.22-2.67 7.05-3.63C6.95-4.28 6.98-5.94 6.98-7.11C6.98-7.31 7.16-7.44 7.35-7.36L9.76-6.38C10.31-6.14 10.71-6.40 10.85-6.75C10.99-7.13 10.84-7.59 10.27-7.83L7.84-8.84C7.23-9.08 6.59-9.22 5.92-9.30C5.60-9.18 5.27-9.12 4.91-9.12C4.56-9.12 4.23-9.18 3.90-9.30C3.23-9.22 2.60-9.08 1.98-8.84L-0.43-7.83C-1.02-7.59-1.17-7.13-1.03-6.75C-0.88-6.40-0.49-6.14 0.07-6.38L2.47-7.36C2.66-7.44 2.84-7.31 2.84-7.11C2.84-5.94 2.87-4.28 2.77-3.63C2.60-2.67 1.45 1.68 1.38 2.17C1.23 3.12 2.68 3.49 2.98 2.39L4.32-2.71C4.42-3.05 4.64-3.21 4.91-3.21Z" fill="currentColor"/>
</svg>