<svg xmlns="http://www.w3.org/2000/svg" viewBox="0 0 24 24" width="24" height="24">
  <title>figure.seated.side.right.windshield.front.and.heat.waves</title>
  <path transform="matrix(0.8662974814142516, 0, 0, 0.8662974814142516, -0.5887405206324314, 19.416060265845438)" d="M5.99-13.66C7.64-13.66 8.95-14.88 8.95-16.63C8.95-18.29 7.64-19.64 5.99-19.64C4.34-19.64 2.99-18.29 2.99-16.63C2.99-15.04 4.34-13.66 5.99-13.66ZM15.75-8.98C16.05-8.63 16.61-9.01 16.31-9.42C16.03-9.79 15.94-10.02 15.94-10.45C15.94-11.09 16.48-11.41 16.76-11.99C17.44-12.22 18.25-12.38 18.94-12.38C18.97-12.38 19.01-12.38 19.04-12.38C18.84-11.84 18.13-11.34 18.13-10.45C18.13-9.89 18.29-9.45 18.66-8.98C18.95-8.63 19.50-9.01 19.22-9.42C18.94-9.79 18.84-10.02 18.84-10.45C18.84-11.19 19.59-11.52 19.77-12.30C19.52-12.35 19.28-12.36 19.04-12.38C19.08-12.46 19.10-12.55 19.10-12.64C19.10-13.32 18.13-13.79 18.13-14.88C18.13-15.41 18.28-15.86 18.67-16.34C18.97-16.72 19.54-16.32 19.23-15.91C18.94-15.52 18.84-15.27 18.84-14.88C18.84-13.99 19.80-13.68 19.80-12.64C19.80-12.53 19.79-12.41 19.77-12.30C20.41-12.22 21.07-12.04 21.60-11.80C21.34-11.44 21.04-11.03 21.04-10.45C21.04-9.89 21.20-9.45 21.56-8.98C21.86-8.63 22.41-9.01 22.13-9.42C21.84-9.79 21.74-10.02 21.74-10.45C21.74-10.97 22.11-11.29 22.39-11.70C22.42-11.72 22.45-11.74 22.48-11.78L25.93-16.27C26.16-16.55 26.11-16.86 25.84-17.06C24.33-18.16 21.56-18.98 18.94-18.98C16.31-18.98 13.55-18.16 12.05-17.06C11.77-16.86 11.73-16.55 11.94-16.27L15.40-11.78C15.47-11.70 15.56-11.64 15.66-11.61C15.43-11.30 15.22-10.93 15.22-10.45C15.22-9.89 15.39-9.45 15.75-8.98ZM16.20-12.64C16.20-13.32 15.22-13.79 15.22-14.88C15.22-15.41 15.38-15.86 15.76-16.34C16.08-16.72 16.64-16.32 16.32-15.91C16.03-15.52 15.94-15.27 15.94-14.88C15.94-13.99 16.90-13.68 16.90-12.64C16.90-12.39 16.84-12.18 16.76-11.99C16.46-11.89 16.21-11.78 15.98-11.66C15.87-11.60 15.76-11.59 15.66-11.61C15.91-11.99 16.20-12.29 16.20-12.64ZM21.90-11.66C21.81-11.71 21.70-11.75 21.60-11.80C21.81-12.09 22.01-12.35 22.01-12.64C22.01-13.32 21.04-13.79 21.04-14.88C21.04-15.41 21.18-15.86 21.57-16.34C21.88-16.72 22.44-16.32 22.14-15.91C21.84-15.52 21.74-15.27 21.74-14.88C21.74-13.99 22.71-13.68 22.71-12.64C22.71-12.25 22.57-11.95 22.39-11.70C22.25-11.58 22.07-11.57 21.90-11.66ZM23.81 2.10C24.33 1.57 24.39 0.69 23.71-0.02L18.75-5.14C17.72-6.22 16.64-6.38 15.32-5.89L12.69-4.92L9.59-10.59C8.64-12.32 7.02-12.97 5.46-12.11C3.84-11.26 3.53-9.50 4.46-7.80L6.67-3.82C7.82-1.72 9.96-0.71 12.33-1.62L16.28-3.11C16.50-3.20 16.63-3.15 16.79-2.99L21.55 1.92C22.24 2.65 23.24 2.72 23.81 2.10Z" fill="currentColor"/>
</svg>