<svg xmlns="http://www.w3.org/2000/svg" viewBox="0 0 24 24" width="24" height="24">
  
  <path transform="matrix(0.8703042665306816, 0, 0, 0.8703042665306816, 0.17440081591024992, 19.36868944416114)" d="M13.59 3.02C19.93 3.02 25.08-2.11 25.08-8.46C25.08-14.81 19.93-19.96 13.59-19.96C7.24-19.96 2.10-14.81 2.10-8.46C2.10-2.11 7.24 3.02 13.59 3.02ZM13.59 2.13C7.73 2.13 2.99-2.60 2.99-8.46C2.99-14.32 7.73-19.07 13.59-19.07C19.45-19.07 24.19-14.32 24.19-8.46C24.19-2.60 19.45 2.13 13.59 2.13ZM12.45-7.16L16.00-6.05L19.39-4.51C20.26-4.13 20.78-5.37 19.96-5.73L14.11-8.37L14.11-11.52C14.11-11.77 14.17-11.81 14.36-11.87L16.13-12.59C16.35-12.68 16.36-12.73 16.46-12.86L18.32-15.01C18.56-15.29 18.52-15.71 18.25-15.95C17.96-16.18 17.55-16.14 17.32-15.87L15.54-13.82L7.39-10.50C7.02-10.35 6.89-10.21 6.80-10.02L9.75-10.02L11.24-10.61C11.44-10.68 11.51-10.62 11.51-10.50L11.51-8.43C11.51-7.76 11.82-7.35 12.45-7.16ZM11.85-13.24C12.61-13.24 13.23-13.85 13.23-14.64C13.23-15.40 12.61-16.03 11.85-16.03C11.06-16.03 10.44-15.40 10.44-14.64C10.44-13.85 11.06-13.24 11.85-13.24ZM5.88-9.02L11.04-9.02L11.04-9.55L5.88-9.55C5.73-9.55 5.63-9.43 5.63-9.29C5.63-9.14 5.73-9.02 5.88-9.02ZM14.58-9.02L20.60-9.02C20.75-9.02 20.87-9.14 20.87-9.29C20.87-9.43 20.75-9.55 20.60-9.55L14.58-9.55ZM11.85-1.51C11.71-1.01 12.12-0.69 12.50-0.69C12.77-0.69 13.05-0.84 13.15-1.17L14.09-4.62C14.10-4.68 14.11-4.73 14.11-4.79L14.11-6.14L12.54-6.63L12.75-4.83Z" fill="currentColor"/>
</svg>