<svg xmlns="http://www.w3.org/2000/svg" viewBox="0 0 24 24" width="24" height="24">
  <title>figure.child.and.lock.open</title>
  <path transform="matrix(0.694849607387174, 0, 0, 0.694849607387174, 2.7504944703521947, 17.8770842823137)" d="M9.52 2.45L16.49 2.45C17.87 2.45 18.79 1.49 18.79 0.02L18.79-8.73C18.79-9.96 18.14-10.83 17.11-11.07L17.11-13.80C17.11-17.00 19.11-19.11 21.96-19.11C24.82-19.11 26.81-17.00 26.81-13.80L26.81-11.27C26.81-10.99 27.04-10.80 27.26-10.80C27.49-10.80 27.70-10.98 27.70-11.27L27.70-13.79C27.70-17.54 25.29-19.97 21.96-19.97C18.63-19.97 16.23-17.54 16.23-13.79L16.23-11.16L7.82-11.16C7.77-10.93 7.71-10.76 7.63-10.59L8.17-10.30L16.52-10.30C17.33-10.30 17.88-9.69 17.88-8.79L17.88 0.07C17.88 0.97 17.33 1.59 16.52 1.59L9.39 1.59L9.46 1.91C9.49 2.11 9.53 2.29 9.52 2.45ZM4.91-9.91C6-9.91 6.87-10.78 6.87-11.85C6.87-12.95 6-13.82 4.91-13.82C3.86-13.82 2.96-12.95 2.96-11.85C2.96-10.78 3.86-9.91 4.91-9.91ZM4.91-3.22C5.18-3.22 5.41-3.06 5.50-2.72L6.84 2.38C7.14 3.48 8.60 3.11 8.45 2.16C8.37 1.65 7.22-2.68 7.05-3.64C6.95-4.30 6.98-5.95 6.98-7.13C6.98-7.32 7.16-7.45 7.35-7.37L9.76-6.39C10.31-6.15 10.71-6.41 10.85-6.76C10.99-7.14 10.84-7.61 10.27-7.84L7.84-8.85C7.23-9.09 6.59-9.23 5.92-9.32C5.60-9.19 5.27-9.13 4.91-9.13C4.56-9.13 4.23-9.19 3.90-9.32C3.23-9.23 2.60-9.09 1.98-8.85L-0.43-7.84C-1.02-7.61-1.17-7.14-1.03-6.76C-0.88-6.41-0.49-6.15 0.07-6.39L2.47-7.37C2.66-7.45 2.84-7.32 2.84-7.13C2.84-5.95 2.87-4.30 2.77-3.64C2.60-2.68 1.45 1.65 1.38 2.16C1.23 3.11 2.68 3.48 2.98 2.38L4.32-2.72C4.42-3.06 4.64-3.22 4.91-3.22Z" fill="currentColor"/>
</svg>