<svg xmlns="http://www.w3.org/2000/svg" viewBox="0 0 24 24" width="24" height="24">
  <title>figure.seated.side.right.airbag.on</title>
  <path transform="matrix(0.8958954323208014, 0, 0, 0.8958954323208014, -0.17665306125674407, 19.658938873010797)" d="M18.56-8.50C21.68-8.50 24.19-11.09 24.19-14.05C24.19-17.19 21.68-19.71 18.56-19.71C15.45-19.71 13.00-17.19 13.00-14.05C13.00-11.09 15.45-8.50 18.56-8.50ZM5.98-13.55C7.64-13.55 8.95-14.77 8.95-16.51C8.95-18.18 7.64-19.52 5.98-19.52C4.34-19.52 2.99-18.18 2.99-16.51C2.99-14.92 4.34-13.55 5.98-13.55ZM8.05-2.07L11.75-6.53L9.59-10.49C8.63-12.21 7.02-12.87 5.46-12C3.84-11.16 3.53-9.41 4.46-7.70L6.50-4.02C6.98-3.13 7.49-2.45 8.05-2.07ZM23.79 2.19C24.32 1.66 24.38 0.79 23.70 0.07L18.75-5.04C17.71-6.12 16.63-6.27 15.32-5.79L12.18-4.64L9.55-1.38C10.31-1.21 11.29-1.11 12.26-1.49L16.27-3C16.50-3.09 16.62-3.05 16.78-2.88L21.53 2.02C22.23 2.74 23.21 2.81 23.79 2.19ZM5.53 2.31C5.89 2.63 6.33 2.53 6.68 2.12L9.55-1.38C9.01-1.52 8.48-1.77 8.05-2.07L5.47 1.11C5.11 1.57 5.13 2.00 5.53 2.31Z" fill="currentColor"/>
</svg>