<svg xmlns="http://www.w3.org/2000/svg" viewBox="0 0 24 24" width="24" height="24">
  <title>figure.golf</title>
  <path transform="matrix(0.6780836327851697, 0, 0, 0.6780836327851697, 4.697530084352797, 17.7733907548269)" d="M9.68 6.21C10.29 6.21 10.79 5.72 10.79 5.11L10.79-0.38L13.45-4.29C13.52-4.39 13.66-4.36 13.68-4.24L14.10-0.69C14.12-0.50 14.16-0.40 14.24-0.20L16.39 5.51C16.66 6.20 17.30 6.35 17.81 6.15C18.34 5.95 18.73 5.41 18.47 4.72L16.32-0.94L16.32-11.40C16.32-12.57 15.83-13.79 14.71-14.25L14.00-14.54C12.74-15.06 11.54-14.91 10.48-14.14L7.88-12.27L4.45-13.71L10.39-21.95L12.53-21.95C12.89-21.95 13.18-22.24 13.18-22.59C13.18-22.97 12.89-23.26 12.53-23.26L10.59-23.26C10.45-23.26 10.34-23.17 10.27-23.07L3.21-13.32C2.85-12.81 2.88-11.96 3.66-11.64L7.57-9.96C7.75-9.89 7.88-9.88 8.11-9.88L10.77-9.88C11.19-9.88 11.33-9.60 11.33-9.29L11.33-6.27L8.68-1.24C8.59-1.05 8.55-0.91 8.55-0.70L8.55 5.11C8.55 5.72 9.06 6.21 9.68 6.21ZM15.40-15.81C16.71-15.81 17.79-16.89 17.79-18.22C17.79-19.52 16.71-20.60 15.40-20.60C14.07-20.60 13.00-19.52 13.00-18.22C13.00-16.89 14.07-15.81 15.40-15.81Z" fill="currentColor"/>
</svg>