<svg xmlns="http://www.w3.org/2000/svg" viewBox="0 0 24 24" width="24" height="24">
  <title>figure.seated.seatbelt.left.drive.seats.3.fill</title>
  <path transform="matrix(0.5960705068083911, 0, 0, 0.5960705068083911, 0.21315729606985978, 17.055559388250227)" d="M9.27-14.51C10.58-14.51 11.65-15.62 11.65-16.89C11.65-18.23 10.58-19.32 9.27-19.32C7.92-19.32 6.89-18.23 6.89-16.89C6.89-15.50 7.92-14.51 9.27-14.51ZM12.75-12.64L14.81-14.94C15.12-15.28 15.09-15.64 14.80-15.90C14.52-16.13 14.19-16.14 13.89-15.79L11.58-13.22C12-13.05 12.40-12.87 12.75-12.64ZM25.50-12.91L30.29-12.91C30.53-12.91 30.61-13.20 30.39-13.34L28.17-14.86C27.98-14.98 27.80-14.98 27.61-14.86L25.39-13.34C25.17-13.20 25.25-12.91 25.50-12.91ZM4.68-5.51L11.58-13.22C10.84-13.51 10.10-13.59 9.27-13.59C6.18-13.59 4.34-12.11 4.34-9.61C4.34-9.01 4.37-8.20 4.46-7.39ZM13.89-5.51L14.07-7.39C14.14-8.20 14.19-9.01 14.19-9.61C14.19-10.91 13.73-11.94 12.75-12.63L7.03-6.25C7.79-6.40 8.52-6.47 9.27-6.47C10.79-6.47 12.32-6.26 13.89-5.51ZM19.24-9.89L19.24-7.18C19.24-6.41 19.83-5.84 20.59-5.84L22.73-5.84C23.52-5.84 24.09-6.41 24.09-7.18L24.09-9.89C24.09-10.68 23.52-11.25 22.73-11.25L20.59-11.25C19.83-11.25 19.24-10.68 19.24-9.89ZM25.48-9.89L25.48-7.18C25.48-6.41 26.06-5.84 26.84-5.84L28.98-5.84C29.75-5.84 30.33-6.41 30.33-7.18L30.33-9.89C30.33-10.68 29.75-11.25 28.98-11.25L26.84-11.25C26.06-11.25 25.48-10.68 25.48-9.89ZM31.69-9.89L31.69-7.18C31.69-6.41 32.29-5.84 33.07-5.84L35.19-5.84C35.98-5.84 36.55-6.41 36.55-7.18L36.55-9.89C36.55-10.68 35.98-11.25 35.19-11.25L33.07-11.25C32.29-11.25 31.69-10.68 31.69-9.89ZM3.27-4.65C2.94-4.39 2.94-4.04 3.11-3.77C3.27-3.52 3.64-3.36 3.97-3.62C4.25-3.82 4.54-4.00 4.84-4.16L4.68-5.51C4.16-5.26 3.69-4.98 3.27-4.65ZM6.63 2.36C7.25 2.27 7.68 1.80 7.59 1.03L7.16-2.98L11.37-2.98L10.96 1.03C10.88 1.80 11.27 2.27 11.91 2.36C12.56 2.41 13.07 2.03 13.15 1.23L13.71-4.16C14.02-4.00 14.30-3.82 14.58-3.62C14.92-3.36 15.29-3.52 15.45-3.79C15.61-4.05 15.61-4.39 15.28-4.65C14.86-4.98 14.39-5.26 13.89-5.51L13.71-4.16C12.29-4.96 10.76-5.27 9.27-5.27C7.78-5.27 6.22-4.96 4.84-4.16L5.39 1.23C5.47 2.03 5.96 2.41 6.63 2.36Z" fill="currentColor"/>
</svg>