<svg xmlns="http://www.w3.org/2000/svg" viewBox="0 0 24 24" width="24" height="24">
  
  <path transform="matrix(0.8703042665306816, 0, 0, 0.8703042665306816, 0.17440081591024992, 19.36868944416114)" d="M13.59 3.02C19.93 3.02 25.08-2.11 25.08-8.46C25.08-14.81 19.93-19.96 13.59-19.96C7.24-19.96 2.10-14.81 2.10-8.46C2.10-2.11 7.24 3.02 13.59 3.02ZM13.59 2.13C7.73 2.13 2.99-2.60 2.99-8.46C2.99-14.32 7.73-19.07 13.59-19.07C19.45-19.07 24.19-14.32 24.19-8.46C24.19-2.60 19.45 2.13 13.59 2.13ZM12.25-13.65C13.02-13.65 13.65-14.29 13.65-15.06C13.65-15.84 13.02-16.48 12.25-16.48C11.46-16.48 10.84-15.84 10.84-15.06C10.84-14.29 11.46-13.65 12.25-13.65ZM10.97-7.54L13.43-6.97L12.73-4.65C12.59-4.22 12.82-3.90 13.14-3.82C13.44-3.73 13.82-3.86 13.95-4.28L14.81-7.20C14.94-7.61 14.78-7.95 14.40-8.09L12.14-8.91L12.47-11.24C12.49-11.36 12.60-11.41 12.73-11.36L13.86-10.83C14.00-10.76 14.13-10.75 14.32-10.72L17.17-10.44C17.54-10.39 17.86-10.65 17.87-11.02C17.92-11.36 17.65-11.68 17.30-11.72L14.38-12L12.19-13.01C11.24-13.44 10.27-12.96 10.15-12.01L9.79-9.26C9.68-8.45 10.18-7.72 10.97-7.54ZM19.00-12.34C18.94-12.47 18.79-12.54 18.63-12.47C18.33-12.32 18.02-12.15 17.85-12.01C18.01-11.91 18.13-11.77 18.22-11.60C18.38-11.71 18.61-11.86 18.84-11.99C19.01-12.08 19.04-12.22 19.00-12.34ZM10.34-0.48L12.73-0.48C12.86-0.48 12.98-0.60 12.98-0.74L12.98-2.07L15.09-2.07C15.22-2.07 15.35-2.18 15.35-2.33L15.35-3.66L17.33-3.66C17.46-3.66 17.59-3.79 17.59-3.91L17.81-10.15C17.68-10.07 17.55-10.02 17.30-10.00L17.07-4.18L15.09-4.18C14.95-4.18 14.84-4.07 14.84-3.91L14.84-2.60L12.73-2.60C12.60-2.60 12.46-2.46 12.46-2.33L12.46-1.00L10.34-1.00C10.21-1.00 10.08-0.87 10.08-0.74C10.08-0.59 10.21-0.48 10.34-0.48ZM8.79-1.75C9.06-1.62 9.43-1.68 9.67-2.02L11.41-4.64C11.50-4.76 11.52-4.86 11.55-5.03L11.85-6.86L10.86-7.08C10.66-7.13 10.51-7.20 10.38-7.25L10.27-5.23L8.61-2.74C8.31-2.31 8.48-1.91 8.79-1.75Z" fill="currentColor"/>
</svg>