<svg xmlns="http://www.w3.org/2000/svg" viewBox="0 0 24 24" width="24" height="24">
  <title>figure.sailing.circle</title>
  <path transform="matrix(0.8703042665306816, 0, 0, 0.8703042665306816, 0.17440081591024992, 19.36868944416114)" d="M13.59 3.02C19.93 3.02 25.08-2.11 25.08-8.46C25.08-14.81 19.93-19.96 13.59-19.96C7.24-19.96 2.10-14.81 2.10-8.46C2.10-2.11 7.24 3.02 13.59 3.02ZM13.59 2.13C7.73 2.13 2.99-2.60 2.99-8.46C2.99-14.32 7.73-19.07 13.59-19.07C19.45-19.07 24.19-14.32 24.19-8.46C24.19-2.60 19.45 2.13 13.59 2.13ZM6.89-4.75L15.75-4.75L18.40-7.44C18.53-7.57 18.74-7.56 18.87-7.44L19.96-6.35L18.83-5.23C18.25-4.64 19.11-3.76 19.70-4.35L21.27-5.92C21.54-6.19 21.53-6.54 21.27-6.80L19.44-8.63C19.09-8.98 18.62-9.18 18.13-9.18L13.64-9.18L13.64-16.46C13.64-16.98 12.88-17.20 12.55-16.62L6.41-5.65C6.15-5.18 6.43-4.75 6.89-4.75ZM7.03-5.27C6.88-5.27 6.87-5.37 6.93-5.47L12.90-16.17C12.98-16.32 13.11-16.29 13.11-16.16L13.11-5.27ZM17.70-9.96C18.47-9.96 19.10-10.58 19.10-11.37C19.10-12.14 18.47-12.77 17.70-12.77C16.92-12.77 16.29-12.14 16.29-11.37C16.29-10.58 16.92-9.96 17.70-9.96ZM14.95-7.92C15.07-7.92 15.12-7.80 15.05-7.72L13.64-6.32L13.64-7.92ZM6.47-2.14L6.50-2.14C8.24-2.14 8.72-3.28 10.05-3.28C11.37-3.28 11.85-2.14 13.58-2.14C15.33-2.14 15.81-3.28 17.13-3.28C18.46-3.28 18.94-2.14 20.67-2.14L20.71-2.14C20.85-2.14 20.96-2.27 20.96-2.41C20.96-2.54 20.85-2.67 20.71-2.67L20.67-2.67C19.29-2.67 18.80-3.80 17.13-3.80C15.46-3.80 14.98-2.67 13.58-2.67C12.20-2.67 11.72-3.80 10.05-3.80C8.38-3.80 7.89-2.67 6.50-2.67L6.47-2.67C6.33-2.67 6.21-2.54 6.21-2.41C6.21-2.27 6.33-2.14 6.47-2.14Z" fill="currentColor"/>
</svg>