<svg xmlns="http://www.w3.org/2000/svg" viewBox="0 0 24 24" width="24" height="24">
  
  <path transform="matrix(0.6818192627258503, 0, 0, 0.6818192627258503, -0.03661163981908189, 17.78979086672051)" d="M12.12-16.01C13.75-16.01 15.09-17.39 15.09-18.98C15.09-20.65 13.75-21.98 12.12-21.98C10.44-21.98 9.14-20.65 9.14-18.98C9.14-17.24 10.44-16.01 12.12-16.01ZM26.75-8.50C29.87-8.50 32.32-11.09 32.32-14.05C32.32-17.19 29.87-19.71 26.75-19.71C23.64-19.71 21.13-17.19 21.13-14.05C21.13-11.09 23.64-8.50 26.75-8.50ZM16.45-13.69L19.03-16.55C19.41-16.98 19.37-17.41 19.01-17.73C18.68-18.02 18.25-18.02 17.87-17.59L15-14.39C15.53-14.19 16.01-13.95 16.45-13.69ZM6.38-4.78L15-14.39C14.07-14.74 13.15-14.87 12.12-14.87C8.26-14.87 5.96-13.01 5.96-9.89C5.96-9.16 6.01-8.16 6.12-7.13ZM17.86-4.77L18.11-7.13C18.20-8.16 18.26-9.16 18.26-9.89C18.26-11.52 17.68-12.80 16.45-13.69L9.33-5.71C10.27-5.91 11.18-5.96 12.12-5.96C14.02-5.96 15.93-5.73 17.86-4.77ZM3.20-1.41C3.54-1.05 3.98-1.07 4.38-1.45C5.07-2.10 5.75-2.67 6.60-3.11L6.38-4.78C5.23-4.24 4.23-3.46 3.27-2.53C2.92-2.19 2.89-1.72 3.20-1.41ZM21.04-1.39C21.35-1.70 21.32-2.18 20.98-2.52C20.00-3.45 19.02-4.21 17.86-4.77L17.65-3.09C18.49-2.66 19.16-2.09 19.85-1.44C20.25-1.05 20.71-1.04 21.04-1.39ZM8.81 4.99C9.61 4.91 10.13 4.32 10.02 3.35L9.49-1.63L14.73-1.63L14.21 3.35C14.11 4.32 14.63 4.91 15.41 4.99C16.23 5.07 16.86 4.58 16.96 3.62L17.64-3.11C15.90-4.11 13.97-4.50 12.12-4.50C10.27-4.50 8.33-4.11 6.60-3.11L7.28 3.62C7.37 4.58 7.99 5.07 8.81 4.99Z" fill="currentColor"/>
</svg>