<svg xmlns="http://www.w3.org/2000/svg" viewBox="0 0 24 24" width="24" height="24">
  
  <path transform="matrix(0.8505409648897816, 0, 0, 0.8505409648897816, -0.5413720744580992, 19.24189296094285)" d="M14.81-13.78C16.13-13.78 17.20-14.87 17.20-16.20C17.20-17.51 16.13-18.59 14.81-18.59C13.49-18.59 12.41-17.51 12.41-16.20C12.41-14.87 13.49-13.78 14.81-13.78ZM4.59-3.49L10.10-3.01C11.10-2.93 11.30-2.86 12.23-2.60L18.96-0.71L25.01 1.49C25.52 1.68 26.24 1.49 26.45 0.82C26.63 0.25 26.36-0.40 25.78-0.61L19.75-2.80C19.65-2.84 19.45-2.91 19.38-2.94L14.70-4.64C15.32-5.84 16.17-7.76 16.38-9.84C16.42-10.08 16.57-10.21 16.78-10.21L24.83-10.21C25.46-10.21 25.95-10.71 25.95-11.32C25.95-11.94 25.46-12.45 24.83-12.45L16.00-12.45C14.52-12.45 14.39-12.45 12.77-12.89L4.41-15.20C3.82-15.38 3.21-15.02 3.02-14.43C2.87-13.83 3.22-13.21 3.82-13.04L11.61-10.89C11.80-10.84 11.94-10.68 11.92-10.45C11.66-8.48 10.70-6.59 10.20-5.73L5.80-5.73L5.80-10.21C5.80-10.82 5.27-11.32 4.66-11.32C4.05-11.32 3.55-10.82 3.55-10.21L3.55-4.62C3.55-3.96 3.84-3.55 4.59-3.49Z" fill="currentColor"/>
</svg>