<svg xmlns="http://www.w3.org/2000/svg" viewBox="0 0 24 24" width="24" height="24">
  
  <path transform="matrix(0.8703042665306816, 0, 0, 0.8703042665306816, 0.17440081591024992, 19.36868944416114)" d="M13.59 3.02C19.91 3.02 25.08-2.13 25.08-8.46C25.08-14.79 19.91-19.96 13.59-19.96C7.27-19.96 2.10-14.79 2.10-8.46C2.10-2.13 7.27 3.02 13.59 3.02ZM10.10-5.48L10.10-7.29C10.10-7.88 10.51-8.29 11.10-8.29L13.43-8.29L13.43-10.59C13.43-10.79 13.46-10.91 13.58-11.03L18.32-15.75C18.42-15.86 18.59-15.84 18.68-15.75C18.79-15.66 18.79-15.49 18.68-15.39L16.54-13.23L16.54-8.95C16.54-8.58 16.24-8.30 15.88-8.30C15.50-8.30 15.21-8.58 15.21-8.95L15.21-11.89L14.75-11.44L14.75-7.62C14.75-7.25 14.46-6.96 14.10-6.96L13.27-6.96C13.17-6.96 13.10-6.88 13.10-6.80L13.10-3.80C12.73-3.63 12.38-3.45 12.01-3.21C11.46-4.20 10.80-4.93 10.10-5.48ZM11.25-8.95C10.46-8.95 9.82-9.60 9.82-10.38C9.82-11.17 10.46-11.80 11.25-11.80C12.01-11.80 12.67-11.17 12.67-10.38C12.67-9.60 12.01-8.95 11.25-8.95ZM5.52-5.71C5.52-5.85 5.65-5.98 5.78-5.98C7.85-5.98 10.29-5.17 11.70-1.80C13.22-3.22 15.05-3.69 17.45-3.11C18.09-4.35 19.35-5.03 20.74-5.03C20.87-5.03 21-4.92 21-4.77C21-4.64 20.87-4.50 20.74-4.50C19.45-4.50 18.38-3.90 17.85-2.72C17.77-2.54 17.70-2.50 17.52-2.53C15.07-3.23 13.36-2.72 11.86-1.24C11.68-1.07 11.40-1.09 11.29-1.39C10.02-4.70 7.78-5.45 5.78-5.45C5.65-5.45 5.52-5.55 5.52-5.71Z" fill="currentColor"/>
</svg>