<svg xmlns="http://www.w3.org/2000/svg" viewBox="0 0 24 24" width="24" height="24">
  
  <path transform="matrix(0.6223577712579227, 0, 0, 0.6223577712579227, 2.264451613000717, 17.3788575857336)" d="M17.81-9.55C18.05-9.55 18.23-9.74 18.23-9.97L18.23-15.43L20.52-15.43C21.02-15.43 21.23-16.00 20.91-16.38L18.30-19.56C18.02-19.90 17.58-19.88 17.33-19.56L14.72-16.38C14.39-16.00 14.59-15.43 15.11-15.43L17.39-15.43L17.39-9.97C17.39-9.74 17.58-9.55 17.81-9.55ZM28.72-13.66C30.36-13.66 31.71-15.04 31.71-16.63C31.71-18.29 30.36-19.64 28.72-19.64C27.06-19.64 25.75-18.29 25.75-16.63C25.75-14.88 27.06-13.66 28.72-13.66ZM3.02-10.35C3.30-10.02 3.82-10.38 3.56-10.76C3.33-11.09 3.22-11.27 3.22-11.66C3.22-12.21 3.73-12.50 3.96-13.02C4.56-13.22 5.25-13.35 5.85-13.35C5.87-13.35 5.89-13.35 5.92-13.35C5.74-12.88 5.12-12.45 5.12-11.66C5.12-11.17 5.26-10.77 5.57-10.35C5.86-10.02 6.38-10.38 6.12-10.76C5.88-11.09 5.78-11.27 5.78-11.66C5.78-12.30 6.45-12.59 6.61-13.29C6.38-13.32 6.14-13.35 5.92-13.35C5.95-13.43 5.96-13.51 5.96-13.59C5.96-14.18 5.12-14.58 5.12-15.55C5.12-16.03 5.25-16.43 5.58-16.85C5.88-17.21 6.42-16.84 6.13-16.46C5.88-16.11 5.78-15.89 5.78-15.55C5.78-14.79 6.64-14.51 6.64-13.59C6.64-13.49 6.63-13.38 6.61-13.29C7.16-13.21 7.72-13.05 8.17-12.86C7.95-12.54 7.68-12.18 7.68-11.66C7.68-11.17 7.82-10.77 8.13-10.35C8.43-10.02 8.93-10.38 8.67-10.76C8.44-11.09 8.34-11.27 8.34-11.66C8.34-12.15 8.73-12.43 8.98-12.86L12.01-16.78C12.20-17.04 12.16-17.30 11.93-17.48C10.59-18.46 8.16-19.17 5.85-19.17C3.54-19.17 1.11-18.46-0.22-17.48C-0.46-17.30-0.49-17.02-0.30-16.78L2.73-12.83C2.79-12.76 2.86-12.71 2.94-12.69C2.74-12.41 2.57-12.08 2.57-11.66C2.57-11.17 2.70-10.77 3.02-10.35ZM8.45-12.73C8.37-12.77 8.27-12.82 8.17-12.86C8.36-13.11 8.53-13.35 8.53-13.59C8.53-14.18 7.68-14.58 7.68-15.55C7.68-16.03 7.80-16.43 8.14-16.85C8.44-17.21 8.98-16.84 8.68-16.46C8.44-16.11 8.34-15.89 8.34-15.55C8.34-14.79 9.20-14.51 9.20-13.59C9.20-13.29 9.11-13.05 8.98-12.86L8.96-12.83C8.85-12.67 8.64-12.63 8.45-12.73ZM3.42-13.59C3.42-14.18 2.57-14.58 2.57-15.55C2.57-16.03 2.70-16.43 3.04-16.85C3.33-17.21 3.87-16.84 3.57-16.46C3.33-16.11 3.22-15.89 3.22-15.55C3.22-14.79 4.09-14.51 4.09-13.59C4.09-13.37 4.03-13.18 3.96-13.02C3.69-12.94 3.46-12.83 3.25-12.73C3.14-12.67 3.04-12.66 2.94-12.69C3.16-13.02 3.42-13.29 3.42-13.59ZM10.89 2.10C11.47 2.72 12.46 2.65 13.16 1.92L17.92-2.99C18.08-3.15 18.20-3.20 18.43-3.11L22.37-1.62C24.74-0.71 26.88-1.72 28.03-3.82L30.23-7.80C31.17-9.50 30.86-11.26 29.24-12.11C27.68-12.97 26.06-12.32 25.11-10.59L22.02-4.92L19.38-5.89C18.07-6.38 16.98-6.22 15.95-5.14L10.99-0.02C10.31 0.69 10.37 1.57 10.89 2.10Z" fill="currentColor"/>
</svg>