<svg xmlns="http://www.w3.org/2000/svg" viewBox="0 0 24 24" width="24" height="24">
  
  <path transform="matrix(0.8220937700706487, 0, 0, 0.8220937700706487, 1.7061657032755306, 18.965317919075144)" d="M12.53-15.90C13.84-15.90 14.89-16.96 14.89-18.27C14.89-19.58 13.84-20.64 12.53-20.64C11.21-20.64 10.16-19.58 10.16-18.27C10.16-16.96 11.21-15.90 12.53-15.90ZM12.53-5.48C13.01-5.48 13.24-5.14 13.45-4.35C13.77-3.23 14.95 1.39 15.33 2.75C15.49 3.39 15.82 3.69 16.32 3.69C16.99 3.69 17.39 3.08 17.23 2.41C17.14 2.12 15.49-4.57 15.32-5.95C15.14-7.37 15.07-10.45 15.08-11.40C15.09-12.14 15.39-12.54 16.00-12.64C16.51-12.76 20.70-13.29 21.25-13.39C21.75-13.50 22.05-13.90 22.05-14.39C22.05-14.98 21.64-15.35 21.16-15.35C20.93-15.35 20.72-15.32 20.43-15.26C18.89-14.96 15.14-14.58 12.53-14.58C9.90-14.58 6.15-14.95 4.62-15.26C4.32-15.32 4.11-15.35 3.88-15.35C3.40-15.35 2.99-14.98 2.99-14.39C2.99-13.90 3.29-13.49 3.81-13.39C4.35-13.30 8.53-12.75 9.06-12.64C9.66-12.54 9.95-12.14 9.97-11.40C9.98-10.45 9.90-7.37 9.73-5.95C9.55-4.57 7.90 2.12 7.83 2.41C7.65 3.08 8.05 3.69 8.72 3.69C9.22 3.69 9.55 3.39 9.73 2.75C10.10 1.39 11.27-3.22 11.59-4.35C11.81-5.14 12.05-5.48 12.53-5.48Z" fill="currentColor"/>
</svg>