<svg xmlns="http://www.w3.org/2000/svg" viewBox="0 0 24 24" width="24" height="24">
  
  <path transform="matrix(0.8703042665306816, 0, 0, 0.8703042665306816, 0.17440081591024992, 19.36868944416114)" d="M13.59 3.02C19.93 3.02 25.08-2.11 25.08-8.46C25.08-14.81 19.93-19.96 13.59-19.96C7.24-19.96 2.10-14.81 2.10-8.46C2.10-2.11 7.24 3.02 13.59 3.02ZM13.59 2.13C7.73 2.13 2.99-2.60 2.99-8.46C2.99-14.32 7.73-19.07 13.59-19.07C19.45-19.07 24.19-14.32 24.19-8.46C24.19-2.60 19.45 2.13 13.59 2.13ZM14.00-0.13L16.97-2.10C17.26-2.30 17.40-2.60 17.31-2.96L15.52-10.15C15.46-10.38 15.52-10.51 15.69-10.59L20.26-12.89C20.60-13.05 20.73-13.48 20.57-13.80C20.39-14.13 20.00-14.27 19.65-14.11L10.05-9.29L8.39-10.96C8.30-11.05 8.17-11.13 8.05-11.16L9.63-13.93C9.74-13.90 9.86-13.89 9.97-13.89C10.70-13.89 11.27-14.46 11.27-15.19C11.27-15.94 10.70-16.50 9.97-16.50C9.23-16.50 8.67-15.94 8.67-15.19C8.67-14.75 8.86-14.38 9.18-14.14L7.29-10.84C7.13-10.55 7.21-10.23 7.41-10.03L9.42-8.00C9.61-7.83 9.94-7.72 10.28-7.90L12.56-9.06C12.73-9.13 12.88-9.06 12.91-8.92L13.61-6.15L12.49-3.40L9.90-3.40C9.53-3.40 9.23-3.11 9.23-2.71C9.23-2.36 9.53-2.04 9.90-2.04L12.93-2.04C13.18-2.04 13.42-2.16 13.56-2.40L14.92-4.91C14.98-5.02 15.09-5.00 15.14-4.90L15.86-2.98L13.25-1.24C12.96-1.05 12.87-0.63 13.08-0.32C13.27 0 13.69 0.08 14.00-0.13ZM9.97-14.39C9.52-14.39 9.18-14.74 9.18-15.19C9.18-15.64 9.52-16.00 9.97-16.00C10.42-16.00 10.77-15.64 10.77-15.19C10.77-14.74 10.42-14.39 9.97-14.39ZM13.25-11.89C14.04-11.89 14.65-12.53 14.65-13.29C14.65-14.07 14.04-14.70 13.25-14.70C12.49-14.70 11.87-14.07 11.87-13.29C11.87-12.53 12.49-11.89 13.25-11.89Z" fill="currentColor"/>
</svg>