<svg xmlns="http://www.w3.org/2000/svg" viewBox="0 0 24 24" width="24" height="24">
  
  <path transform="matrix(0.8703042665306816, 0, 0, 0.8703042665306816, 0.17440081591024992, 19.36868944416114)" d="M13.59 3.02C19.93 3.02 25.08-2.11 25.08-8.46C25.08-14.81 19.93-19.96 13.59-19.96C7.24-19.96 2.10-14.81 2.10-8.46C2.10-2.11 7.24 3.02 13.59 3.02ZM13.59 2.13C7.73 2.13 2.99-2.60 2.99-8.46C2.99-14.32 7.73-19.07 13.59-19.07C19.45-19.07 24.19-14.32 24.19-8.46C24.19-2.60 19.45 2.13 13.59 2.13ZM17.19-13.16C17.96-13.16 18.59-13.77 18.59-14.55C18.59-15.32 17.96-15.95 17.19-15.95C16.42-15.95 15.80-15.32 15.80-14.55C15.80-13.77 16.42-13.16 17.19-13.16ZM8.31-8.81C9.11-8.81 9.76-9.47 9.76-10.27C9.76-10.55 9.67-10.82 9.53-11.05L13.44-11.05C13.65-11.05 13.77-10.80 13.61-10.65L12.32-9.35C11.73-8.79 11.81-7.92 12.20-7.62L15.49-5.12L14.47-1.96C14.32-1.50 14.60-1.18 14.95-1.10C15.25-1.03 15.61-1.17 15.74-1.58L16.90-5.12C16.97-5.38 16.92-5.66 16.75-5.84L14.53-8.04L17.07-10.58C17.18-10.70 17.34-10.69 17.46-10.58L18.35-9.71L17.13-8.52C16.86-8.25 16.88-7.82 17.13-7.56C17.39-7.31 17.82-7.29 18.08-7.56L19.76-9.23C20.00-9.50 20.00-9.91 19.76-10.17L18.14-11.81C17.75-12.20 17.29-12.38 16.73-12.38L8.98-12.38C8.60-12.38 8.31-12.08 8.31-11.72C7.51-11.72 6.86-11.06 6.86-10.27C6.86-9.47 7.51-8.81 8.31-8.81ZM12.04-7.15L11.68-5.03L8.59-5.03C8.20-5.03 7.92-4.71 7.92-4.36C7.92-3.98 8.20-3.68 8.59-3.68L12.22-3.68C12.57-3.68 12.81-3.87 12.90-4.16L13.48-6.05Z" fill="currentColor"/>
</svg>