<svg xmlns="http://www.w3.org/2000/svg" viewBox="0 0 24 24" width="24" height="24">
  <title>figure.strengthtraining.traditional</title>
  <path transform="matrix(0.753311001251184, 0, 0, 0.753311001251184, 0.05148702898268587, 18.41099786710099)" d="M15.87-16.99C17.19-16.99 18.27-18.06 18.27-19.41C18.27-20.72 17.19-21.79 15.87-21.79C14.54-21.79 13.48-20.72 13.48-19.41C13.48-18.06 14.54-16.99 15.87-16.99ZM4.82-3.45L5.84-3.45C6.14-3.45 6.38-3.69 6.38-4.00L6.38-6.75L8.27-6.75L8.00-6.23C7.73-5.68 7.98-5.02 8.50-4.75C9.05-4.46 9.70-4.69 9.97-5.24L10.72-6.75L21.01-6.75L21.76-5.24C22.03-4.69 22.69-4.46 23.24-4.75C23.75-5.02 24-5.68 23.73-6.23L23.46-6.75L25.35-6.75L25.35-4.00C25.35-3.69 25.57-3.45 25.89-3.45L26.91-3.45C27.21-3.45 27.45-3.69 27.45-4.00L27.45-6.75L28.36-6.75C28.57-6.75 28.73-6.93 28.73-7.13C28.73-7.34 28.57-7.50 28.36-7.50L27.45-7.50L27.45-10.28C27.45-10.58 27.21-10.82 26.91-10.82L25.89-10.82C25.57-10.82 25.35-10.58 25.35-10.28L25.35-7.50L23.10-7.50L19.69-14.38C19.21-15.35 18.30-15.91 17.18-15.91L14.55-15.91C13.43-15.91 12.53-15.35 12.05-14.38L8.64-7.50L6.38-7.50L6.38-10.28C6.38-10.58 6.14-10.82 5.84-10.82L4.82-10.82C4.50-10.82 4.28-10.58 4.28-10.28L4.28-7.50L3.36-7.50C3.15-7.50 2.99-7.34 2.99-7.13C2.99-6.93 3.15-6.75 3.36-6.75L4.28-6.75L4.28-4.00C4.28-3.69 4.50-3.45 4.82-3.45ZM13.46-8.45L18.29-8.45L18.29-11.43C18.29-11.61 18.57-11.70 18.69-11.47L20.65-7.50L11.09-7.50L13.05-11.47C13.17-11.70 13.46-11.63 13.46-11.44ZM11.41 4.73C11.94 4.84 12.55 4.57 12.71 3.82L13.73-0.90L15.87-5.06L17.99-0.90L19.02 3.82C19.18 4.62 19.85 4.88 20.40 4.72C20.91 4.57 21.30 4.09 21.15 3.34L20.12-1.52C20.10-1.62 20.07-1.69 20.04-1.78L18.62-5.81L13.14-5.81L11.68-1.78C11.65-1.69 11.64-1.62 11.61-1.52L10.58 3.34C10.42 4.13 10.88 4.63 11.41 4.73Z" fill="currentColor"/>
</svg>