<svg xmlns="http://www.w3.org/2000/svg" viewBox="0 0 24 24" width="24" height="24">
  
  <path transform="matrix(0.7064579263202666, 0, 0, 0.7064579263202666, 2.25584789907476, 17.978091380446656)" d="M12.30-3.64L16.37-0.67L14.00 4.07C13.72 4.61 13.96 5.30 14.51 5.58C15.01 5.82 15.69 5.68 16.00 5.07L18.77-0.47C19.02-1.00 18.93-1.48 18.54-1.84L16.44-3.81L20.00-3.81C20.66-3.81 21.13-4.31 21.13-4.92L21.13-9.39C21.13-11.23 19.65-12.74 17.79-12.74L13.69-12.74L13.69-12.77L14.38-15.23C14.54-15.81 14.25-16.39 13.69-16.58L13.69-18.21C14.29-18.96 14.94-20.17 14.94-20.98C14.94-21.96 14.30-22.62 13.34-22.62C12.35-22.62 11.70-21.96 11.70-20.98C11.70-20.09 12.32-18.96 12.94-18.23L12.94-16.58C12.62-16.46 12.36-16.20 12.26-15.84L11.16-11.94C10.95-11.19 11.38-10.51 12.18-10.51L12.94-10.51L12.94-8.77L12.71-8.65C10.76-7.66 10.51-4.96 12.30-3.64ZM22.21-12.33C23.52-12.33 24.60-13.41 24.60-14.74C24.60-16.05 23.52-17.13 22.21-17.13C20.87-17.13 19.79-16.05 19.79-14.74C19.79-13.41 20.87-12.33 22.21-12.33ZM16.18-10.51C16.22-10.51 16.25-10.45 16.21-10.42L13.69-9.14L13.69-10.51ZM16.52-5.99L18.75-7.05C18.84-7.09 18.96-7.02 18.96-6.91L18.96-5.99ZM10.72-3.97L9.73-1.02L4.13-1.02C3.50-1.02 2.99-0.52 2.99 0.09C2.99 0.73 3.50 1.23 4.13 1.23L10.52 1.23C10.95 1.23 11.36 0.98 11.54 0.60L12.87-2.06L11.75-2.88C11.33-3.20 10.98-3.56 10.72-3.97Z" fill="currentColor"/>
</svg>