<svg xmlns="http://www.w3.org/2000/svg" viewBox="0 0 24 24" width="24" height="24">
  <title>figure.seated.seatbelt.left.drive.seats.1.2.fill</title>
  <path transform="matrix(0.7318114421513382, 0, 0, 0.7318114421513382, -0.1858929786583432, 18.206843258538242)" d="M9.26-14.51C10.58-14.51 11.65-15.62 11.65-16.89C11.65-18.23 10.58-19.32 9.26-19.32C7.90-19.32 6.87-18.23 6.87-16.89C6.87-15.50 7.90-14.51 9.26-14.51ZM22.38-15.52L27.16-15.52C27.41-15.52 27.49-15.80 27.27-15.94L25.05-17.46C24.87-17.58 24.68-17.58 24.49-17.46L22.28-15.94C22.05-15.80 22.14-15.52 22.38-15.52ZM12.74-12.64L14.81-14.94C15.12-15.28 15.08-15.64 14.79-15.90C14.52-16.13 14.19-16.14 13.88-15.79L11.57-13.22C11.99-13.05 12.39-12.87 12.74-12.64ZM22.36-12.50L22.36-9.79C22.36-9.01 22.93-8.44 23.71-8.44L25.84-8.44C26.61-8.44 27.20-9.01 27.20-9.79L27.20-12.50C27.20-13.28 26.61-13.85 25.84-13.85L23.71-13.85C22.93-13.85 22.36-13.28 22.36-12.50ZM4.65-5.51L11.57-13.22C10.84-13.51 10.09-13.59 9.26-13.59C6.16-13.59 4.32-12.11 4.32-9.61C4.32-9.01 4.35-8.20 4.45-7.39ZM13.88-5.51L14.06-7.39C14.14-8.20 14.19-9.01 14.19-9.61C14.19-10.91 13.73-11.94 12.74-12.63L7.02-6.25C7.78-6.40 8.51-6.47 9.26-6.47C10.78-6.47 12.32-6.26 13.88-5.51ZM19.23-4.56L19.23-1.84C19.23-1.07 19.80-0.49 20.58-0.49L22.72-0.49C23.50-0.49 24.08-1.07 24.08-1.84L24.08-4.56C24.08-5.33 23.50-5.91 22.72-5.91L20.58-5.91C19.80-5.91 19.23-5.33 19.23-4.56ZM25.46-4.56L25.46-1.84C25.46-1.07 26.04-0.49 26.82-0.49L28.96-0.49C29.73-0.49 30.32-1.07 30.32-1.84L30.32-4.56C30.32-5.33 29.73-5.91 28.96-5.91L26.82-5.91C26.04-5.91 25.46-5.33 25.46-4.56ZM3.26-4.65C2.94-4.39 2.93-4.04 3.08-3.77C3.27-3.52 3.64-3.36 3.97-3.62C4.25-3.82 4.54-4.00 4.84-4.16L4.65-5.51C4.15-5.26 3.68-4.98 3.26-4.65ZM6.61 2.36C7.24 2.27 7.66 1.80 7.57 1.03L7.16-2.98L11.36-2.98L10.95 1.03C10.88 1.80 11.26 2.27 11.91 2.36C12.56 2.41 13.07 2.03 13.14 1.23L13.71-4.16C14.02-4.00 14.27-3.82 14.55-3.62C14.89-3.36 15.27-3.52 15.45-3.79C15.60-4.05 15.60-4.39 15.27-4.65C14.86-4.98 14.39-5.26 13.88-5.51L13.71-4.16C12.29-4.96 10.75-5.27 9.26-5.27C7.77-5.27 6.21-4.96 4.84-4.16L5.39 1.23C5.46 2.03 5.94 2.41 6.61 2.36Z" fill="currentColor"/>
</svg>