<svg xmlns="http://www.w3.org/2000/svg" viewBox="0 0 24 24" width="24" height="24">
  <title>figure.baseball.circle</title>
  <path transform="matrix(0.8703042665306816, 0, 0, 0.8703042665306816, 0.17440081591024992, 19.36868944416114)" d="M13.59 3.02C19.93 3.02 25.08-2.11 25.08-8.46C25.08-14.81 19.93-19.96 13.59-19.96C7.24-19.96 2.10-14.81 2.10-8.46C2.10-2.11 7.24 3.02 13.59 3.02ZM13.59 2.13C7.73 2.13 2.99-2.60 2.99-8.46C2.99-14.32 7.73-19.07 13.59-19.07C19.45-19.07 24.19-14.32 24.19-8.46C24.19-2.60 19.45 2.13 13.59 2.13ZM9.52-0.81C9.87-0.75 10.22-0.97 10.28-1.36L10.88-4.61L13.48-6.01C13.52-6.05 13.59-6.04 13.62-5.96L14.92-2.82C15-2.66 15.12-2.54 15.26-2.47L18.11-0.88C18.48-0.68 18.86-0.84 19.02-1.14C19.21-1.46 19.09-1.88 18.77-2.06L16.11-3.52L14.27-10.90C14.17-11.33 13.78-11.65 13.30-11.65L9.36-11.65L11.20-15.57C11.46-16.10 11.09-16.45 10.70-16.45C10.48-16.45 10.27-16.34 10.16-16.07L8.03-10.54C7.95-10.29 7.99-10.02 8.17-9.84L9.82-8.19C10.07-7.95 10.49-7.95 10.75-8.19L11.47-8.92C11.58-9.02 11.72-9.02 11.77-8.87L12.16-7.30L9.88-5.58C9.71-5.46 9.63-5.27 9.61-5.09L8.98-1.59C8.92-1.24 9.15-0.89 9.52-0.81ZM13.07-12.42C13.84-12.42 14.46-13.04 14.46-13.82C14.46-14.59 13.84-15.20 13.07-15.20C12.29-15.20 11.67-14.59 11.67-13.82C11.67-13.04 12.29-12.42 13.07-12.42ZM10.96-10.31L10.28-9.62L9.60-10.31Z" fill="currentColor"/>
</svg>