<svg xmlns="http://www.w3.org/2000/svg" viewBox="0 0 24 24" width="24" height="24">
  <title>figure.basketball</title>
  <path transform="matrix(0.7877368073811313, 0, 0, 0.7877368073811313, 0.405217061841717, 18.717867478522212)" d="M13.98-16.49C15.28-16.49 16.34-17.54 16.34-18.86C16.34-20.17 15.28-21.22 13.98-21.22C12.66-21.22 11.60-20.17 11.60-18.86C11.60-17.54 12.66-16.49 13.98-16.49ZM3.86 3.83C4.29 4.24 4.97 4.31 5.46 3.83L10.27-0.97C10.56-1.24 10.61-1.49 10.58-1.91L10.30-5.14C10.29-5.29 10.42-5.34 10.51-5.26L14.05-2.20L15.84 3.35C16.05 4.01 16.71 4.25 17.26 4.10C17.91 3.90 18.21 3.28 18.01 2.67L16.15-3.20C16.09-3.36 16.00-3.54 15.87-3.67L12.16-7.34L14.54-12.09C14.65-12.30 14.87-12.35 15.04-12.18L17.71-9.49C17.82-9.36 18.01-9.26 18.18-9.21L23.52-7.62C23.96-7.48 24.70-7.65 24.94-8.39C25.11-8.99 24.77-9.62 24.16-9.81L19.11-11.30L16.22-14.23C15.56-14.88 14.80-15.16 13.90-15.16L6.27-15.16C5.82-15.16 5.44-14.92 5.25-14.54L3.12-10.28C2.84-9.73 3.02-9.05 3.62-8.77C4.20-8.50 4.85-8.70 5.14-9.27L6.95-12.90L9.21-12.90C9.47-12.90 9.62-12.64 9.49-12.41L7.84-9.07C7.25-7.90 7.08-6.53 7.41-5.24L8.20-2.13L3.84 2.20C3.40 2.63 3.42 3.39 3.86 3.83ZM23.85-1.17C25.29-1.17 26.45-2.34 26.45-3.77C26.45-5.21 25.29-6.38 23.85-6.38C22.42-6.38 21.25-5.21 21.25-3.77C21.25-2.34 22.42-1.17 23.85-1.17Z" fill="currentColor"/>
</svg>