<svg xmlns="http://www.w3.org/2000/svg" viewBox="0 0 24 24" width="24" height="24">
  <title>figure.american.football</title>
  <path transform="matrix(0.7868449362225296, 0, 0, 0.7868449362225296, -0.0117046229411506, 18.66205624711849)" d="M14.94-16.44C16.25-16.44 17.31-17.50 17.31-18.81C17.31-20.12 16.25-21.18 14.94-21.18C13.63-21.18 12.57-20.12 12.57-18.81C12.57-17.50 13.63-16.44 14.94-16.44ZM6.40 1.61C5.80 2.19 5.93 2.93 6.36 3.33C6.76 3.68 7.45 3.75 8.00 3.20L12.19-0.98C12.26-1.07 12.29-1.11 12.38-1.24L14.51-5.27C14.73-5.70 15.43-5.81 15.94-5.44L20.73-1.79L20.73 3.04C20.73 3.79 21.19 4.24 21.88 4.24C22.56 4.24 23.02 3.79 23.02 3.04L23.02-2.34C23.02-2.67 22.90-2.95 22.59-3.22L17.32-7.75L17.32-12.67C17.32-12.95 17.51-13.17 17.84-13.22L26.58-14.54C27.19-14.64 27.62-15.23 27.53-15.84C27.43-16.46 26.86-16.89 26.23-16.79L8.82-14.17L8.82-16.83C9.49-17.12 10.11-17.55 10.56-18.12C10.76-18.35 10.76-18.64 10.55-18.89C9.68-19.98 8.13-20.59 6.86-20.59C5.57-20.59 4.02-19.98 3.14-18.89C2.94-18.64 2.94-18.35 3.14-18.09C3.96-17.10 5.33-16.50 6.56-16.42L6.56-12.82C6.56-12.12 7.15-11.61 7.86-11.73L11.64-12.29C11.98-12.34 12.22-12.14 12.22-11.79L12.22-7.34L10.42-2.40Z" fill="currentColor"/>
</svg>