<svg xmlns="http://www.w3.org/2000/svg" viewBox="0 0 24 24" width="24" height="24">
  <title>figure.run.circle</title>
  <path transform="matrix(0.8703042665306816, 0, 0, 0.8703042665306816, 0.17440081591024992, 19.36868944416114)" d="M13.59 3.02C19.93 3.02 25.08-2.11 25.08-8.46C25.08-14.81 19.93-19.96 13.59-19.96C7.24-19.96 2.10-14.81 2.10-8.46C2.10-2.11 7.24 3.02 13.59 3.02ZM13.59 2.13C7.73 2.13 2.99-2.60 2.99-8.46C2.99-14.32 7.73-19.07 13.59-19.07C19.45-19.07 24.19-14.32 24.19-8.46C24.19-2.60 19.45 2.13 13.59 2.13ZM15.32-13.04C16.09-13.04 16.71-13.68 16.71-14.44C16.71-15.22 16.09-15.83 15.32-15.83C14.55-15.83 13.92-15.22 13.92-14.44C13.92-13.68 14.55-13.04 15.32-13.04ZM13.13-7.41L15.66-5.98L14.00-4.58C13.71-4.34 13.68-3.96 13.89-3.70C14.12-3.46 14.48-3.46 14.80-3.74L17.05-5.64C17.33-5.88 17.29-6.42 16.95-6.64L14.48-8.26L14.98-9.96C15.05-10.23 15.35-10.27 15.50-10.04L16.22-8.99C16.38-8.75 16.69-8.66 16.95-8.79L19.01-9.71C19.35-9.87 19.49-10.15 19.32-10.48C19.18-10.78 18.88-10.88 18.54-10.72L16.86-10.00L15.74-11.57C15.14-12.38 14.43-12.69 13.25-12.61L10.98-12.45C10.63-12.41 10.39-12.19 10.35-11.82L10.04-9.52C10.00-9.13 10.17-8.86 10.51-8.82C10.85-8.79 11.06-8.99 11.12-9.38L11.41-11.30L12.35-11.36C12.60-11.37 12.80-11.20 12.71-10.96L12.18-9.09C11.87-8.00 12.56-7.72 13.13-7.41ZM8.78-1.79C9.05-1.57 9.39-1.59 9.68-1.89L11.79-3.96C11.96-4.14 12-4.17 12.11-4.44L13.09-6.89L12.89-7.00C12.55-7.20 12.08-7.42 11.82-7.83L10.99-4.91L8.79-2.73C8.50-2.44 8.51-2.03 8.78-1.79Z" fill="currentColor"/>
</svg>