<svg xmlns="http://www.w3.org/2000/svg" viewBox="0 0 24 24" width="24" height="24">
  
  <path transform="matrix(0.8703042665306816, 0, 0, 0.8703042665306816, 0.17440081591024992, 19.36868944416114)" d="M13.59 3.02C19.91 3.02 25.08-2.13 25.08-8.46C25.08-14.79 19.91-19.96 13.59-19.96C7.27-19.96 2.10-14.79 2.10-8.46C2.10-2.13 7.27 3.02 13.59 3.02ZM16.07-13.27C15.29-13.27 14.66-13.89 14.66-14.67C14.66-15.45 15.29-16.08 16.07-16.08C16.85-16.08 17.47-15.45 17.47-14.67C17.47-13.89 16.85-13.27 16.07-13.27ZM13.58-1.45C10.65-1.45 8.70-3.41 8.70-6.34C8.70-7.13 8.89-7.86 9.22-8.52C9.49-9.01 10.21-8.72 9.91-8.14C9.63-7.62 9.48-7.00 9.48-6.34C9.48-3.87 11.11-2.24 13.58-2.24C16.02-2.24 17.66-3.87 17.66-6.33C17.66-6.86 17.30-7.18 16.76-7.18L14.06-7.18C13.10-7.18 12.53-8.04 12.88-9L13.63-11.13C13.73-11.43 13.62-11.65 13.32-11.72L11.86-12.09L9.38-10.78C9.04-10.61 8.67-10.68 8.47-10.97C8.25-11.25 8.33-11.70 8.63-11.87L11.32-13.39C11.58-13.54 11.78-13.56 12.01-13.50L14.80-12.80C15.73-12.57 16.14-11.81 15.86-10.96L15.25-9.07C15.19-8.88 15.27-8.75 15.46-8.75L16.36-8.75C17.71-8.75 18.43-7.89 18.43-6.33C18.43-3.41 16.49-1.45 13.58-1.45ZM18.55-1.45C18.15-1.45 17.82-1.78 17.82-2.18C17.82-2.57 18.15-2.91 18.55-2.91C18.95-2.91 19.27-2.57 19.27-2.18C19.27-1.78 18.95-1.45 18.55-1.45Z" fill="currentColor"/>
</svg>