<svg xmlns="http://www.w3.org/2000/svg" viewBox="0 0 24 24" width="24" height="24">
  
  <path transform="matrix(0.8703042665306816, 0, 0, 0.8703042665306816, 0.17440081591024992, 19.36868944416114)" d="M13.59 3.02C19.93 3.02 25.08-2.11 25.08-8.46C25.08-14.81 19.93-19.96 13.59-19.96C7.24-19.96 2.10-14.81 2.10-8.46C2.10-2.11 7.24 3.02 13.59 3.02ZM13.59 2.13C7.73 2.13 2.99-2.60 2.99-8.46C2.99-14.32 7.73-19.07 13.59-19.07C19.45-19.07 24.19-14.32 24.19-8.46C24.19-2.60 19.45 2.13 13.59 2.13ZM14.06-13.16C14.84-13.16 15.46-13.77 15.46-14.55C15.46-15.32 14.84-15.95 14.06-15.95C13.29-15.95 12.67-15.32 12.67-14.55C12.67-13.77 13.29-13.16 14.06-13.16ZM9.04-2.54C8.67-2.20 8.77-1.77 9.01-1.54C9.26-1.32 9.64-1.28 9.97-1.61L12.45-4.08C12.49-4.11 12.50-4.14 12.55-4.22L13.80-6.60C13.95-6.84 14.34-6.91 14.65-6.69L17.47-4.54L17.47-1.71C17.47-1.25 17.74-1.00 18.14-1.00C18.55-1.00 18.80-1.25 18.80-1.71L18.80-4.86C18.80-5.06 18.74-5.23 18.56-5.39L15.47-8.04L15.47-10.95C15.47-11.11 15.56-11.23 15.76-11.26L20.31-11.94C20.67-12 20.92-12.35 20.87-12.70C20.80-13.08 20.46-13.34 20.10-13.28L10.45-11.82L10.45-13.38C10.85-13.55 11.21-13.80 11.50-14.13C11.60-14.29 11.60-14.45 11.48-14.60C10.96-15.23 10.07-15.60 9.29-15.60C8.54-15.60 7.64-15.23 7.13-14.60C7.00-14.45 7.00-14.29 7.13-14.13C7.61-13.54 8.41-13.20 9.13-13.15L9.13-11.03C9.13-10.62 9.48-10.32 9.90-10.38L12.12-10.71C12.30-10.75 12.46-10.63 12.46-10.42L12.46-7.80L11.39-4.90Z" fill="currentColor"/>
</svg>