<svg xmlns="http://www.w3.org/2000/svg" viewBox="0 0 24 24" width="24" height="24">
  <title>figure.water.fitness.circle.fill</title>
  <path transform="matrix(0.8703042665306816, 0, 0, 0.8703042665306816, 0.17440081591024992, 19.36868944416114)" d="M13.59 3.02C19.91 3.02 25.08-2.13 25.08-8.46C25.08-14.79 19.91-19.96 13.59-19.96C7.27-19.96 2.10-14.79 2.10-8.46C2.10-2.13 7.27 3.02 13.59 3.02ZM13.66-11.02C12.87-11.02 12.23-11.65 12.23-12.43C12.23-13.22 12.87-13.85 13.66-13.85C14.44-13.85 15.08-13.22 15.08-12.43C15.08-11.65 14.44-11.02 13.66-11.02ZM6.71-11.87C6.36-12.06 6.22-12.50 6.42-12.86C6.60-13.22 7.05-13.36 7.42-13.16L12.25-10.59C13.18-10.09 13.93-10.14 14.71-10.55L19.63-13.16C19.98-13.36 20.43-13.22 20.64-12.86C20.81-12.50 20.68-12.06 20.32-11.87L15.36-9.21C15.13-9.09 15.05-8.95 14.99-8.73L14.33-6.32C14.10-6.19 13.88-6.09 13.58-6.09C12.74-6.09 12.46-6.83 11.17-7.13L11.66-8.89C11.71-9.07 11.61-9.23 11.45-9.32ZM13.58-4.65C11.85-4.65 11.36-5.81 10.02-5.81C8.70-5.81 8.20-4.65 6.47-4.65L6.13-4.65C5.99-4.65 5.87-4.78 5.87-4.92C5.87-5.06 5.99-5.18 6.13-5.18L6.47-5.18C7.85-5.18 8.34-6.34 10.02-6.34C11.70-6.34 12.19-5.18 13.58-5.18C14.99-5.18 15.48-6.34 17.16-6.34C18.83-6.34 19.32-5.18 20.71-5.18L21.09-5.18C21.23-5.18 21.36-5.06 21.36-4.92C21.36-4.78 21.23-4.65 21.09-4.65L20.71-4.65C18.97-4.65 18.48-5.81 17.16-5.81C15.81-5.81 15.33-4.65 13.58-4.65ZM9.82-3.84C9.62-3.84 9.48-4.00 9.48-4.18C9.48-4.37 9.62-4.52 9.82-4.52C10.01-4.52 10.16-4.37 10.16-4.18C10.16-4.00 10.01-3.84 9.82-3.84ZM17.38-3.84C17.18-3.84 17.04-4.00 17.04-4.18C17.04-4.37 17.18-4.52 17.38-4.52C17.57-4.52 17.72-4.37 17.72-4.18C17.72-4.00 17.57-3.84 17.38-3.84ZM8.55-3.55C8.37-3.55 8.21-3.70 8.21-3.89C8.21-4.09 8.37-4.23 8.55-4.23C8.75-4.23 8.89-4.09 8.89-3.89C8.89-3.70 8.75-3.55 8.55-3.55ZM11.07-3.55C10.88-3.55 10.73-3.70 10.73-3.89C10.73-4.09 10.88-4.23 11.07-4.23C11.27-4.23 11.41-4.09 11.41-3.89C11.41-3.70 11.27-3.55 11.07-3.55ZM16.11-3.55C15.93-3.55 15.77-3.70 15.77-3.89C15.77-4.09 15.93-4.23 16.11-4.23C16.31-4.23 16.45-4.09 16.45-3.89C16.45-3.70 16.31-3.55 16.11-3.55ZM18.63-3.55C18.43-3.55 18.29-3.70 18.29-3.89C18.29-4.09 18.43-4.23 18.63-4.23C18.82-4.23 18.97-4.09 18.97-3.89C18.97-3.70 18.82-3.55 18.63-3.55ZM6.21-3.16C6.01-3.16 5.87-3.32 5.87-3.50C5.87-3.70 6.01-3.84 6.21-3.84C6.40-3.84 6.55-3.70 6.55-3.50C6.55-3.32 6.40-3.16 6.21-3.16ZM7.36-3.16C7.17-3.16 7.03-3.32 7.03-3.50C7.03-3.70 7.17-3.84 7.36-3.84C7.56-3.84 7.71-3.70 7.71-3.50C7.71-3.32 7.56-3.16 7.36-3.16ZM19.83-3.16C19.63-3.16 19.49-3.32 19.49-3.50C19.49-3.70 19.63-3.84 19.83-3.84C20.02-3.84 20.17-3.70 20.17-3.50C20.17-3.32 20.02-3.16 19.83-3.16ZM21.02-3.16C20.82-3.16 20.68-3.32 20.68-3.50C20.68-3.70 20.82-3.84 21.02-3.84C21.21-3.84 21.36-3.70 21.36-3.50C21.36-3.32 21.21-3.16 21.02-3.16ZM12.28-3.01C12.08-3.01 11.94-3.16 11.94-3.35C11.94-3.55 12.08-3.69 12.28-3.69C12.47-3.69 12.62-3.55 12.62-3.35C12.62-3.16 12.47-3.01 12.28-3.01ZM14.91-3.01C14.72-3.01 14.58-3.16 14.58-3.35C14.58-3.55 14.72-3.69 14.91-3.69C15.11-3.69 15.25-3.55 15.25-3.35C15.25-3.16 15.11-3.01 14.91-3.01ZM13.58-2.80C13.39-2.80 13.25-2.95 13.25-3.14C13.25-3.34 13.39-3.48 13.58-3.48C13.78-3.48 13.92-3.34 13.92-3.14C13.92-2.95 13.78-2.80 13.58-2.80Z" fill="currentColor"/>
</svg>