<svg xmlns="http://www.w3.org/2000/svg" viewBox="0 0 24 24" width="24" height="24">
  <title>figure.strengthtraining.functional</title>
  <path transform="matrix(0.834139924589453, 0, 0, 0.834139924589453, 1.598678789814885, 19.10638517224464)" d="M13.45-15.70C14.77-15.70 15.84-16.78 15.84-18.12C15.84-19.42 14.77-20.51 13.45-20.51C12.12-20.51 11.04-19.42 11.04-18.12C11.04-16.78 12.12-15.70 13.45-15.70ZM10.35 1.80C10.77 1.69 11.03 1.56 11.21 1.23L13.64-3.15C13.66-3.20 13.72-3.23 13.78-3.23L19.71-3.23L19.71 2.34C19.71 2.96 20.21 3.46 20.82 3.46C21.45 3.46 21.95 2.96 21.95 2.34L21.95-4.22C21.95-4.96 21.55-5.38 20.78-5.46L15.81-5.92L15.81-12.15C15.81-13.37 14.95-14.38 13.45-14.38L12.93-14.38C12.04-14.38 11.34-14.23 10.48-13.57L6.77-10.80C6.15-10.35 6.20-9.41 6.84-8.99L11.34-5.99L11.34-5.70L9.39-0.25L3.81 1.28C3.21 1.44 2.86 2.05 3.04 2.64C3.21 3.27 3.76 3.60 4.41 3.42ZM9.39-9.97L11.06-11.21C11.19-11.31 11.34-11.25 11.34-11.07L11.34-8.67Z" fill="currentColor"/>
</svg>