<svg xmlns="http://www.w3.org/2000/svg" viewBox="0 0 24 24" width="24" height="24">
  <title>figure.curling</title>
  <path transform="matrix(0.7315330761537362, 0, 0, 0.7315330761537362, -0.18602657522503208, 18.386344428763636)" d="M19.37-13.88C20.68-13.88 21.74-14.93 21.74-16.24C21.74-17.55 20.68-18.61 19.37-18.61C18.06-18.61 17.00-17.55 17.00-16.24C17.00-14.93 18.06-13.88 19.37-13.88ZM15.33-0.15C15.05 1.32 17.27 1.69 17.55 0.19L18.68-5.99C18.79-6.56 18.42-7.18 17.75-7.28L14.05-7.79L16.35-10.10C16.57-10.32 16.89-10.32 17.11-10.10L23.51-3.70C23.93-3.27 24.64-3.25 25.09-3.70C25.51-4.16 25.54-4.84 25.09-5.29L16.61-13.77C16.09-14.29 15.39-14.59 14.63-14.59L9.73-14.59C9.42-14.59 9.14-14.47 8.93-14.25L5.57-10.89C5.12-10.44 5.13-9.75 5.57-9.30C6-8.86 6.70-8.86 7.15-9.30L10.20-12.35L12.16-12.35C12.38-12.35 12.45-12.15 12.32-12.01L9.28-9C7.82-7.55 8.59-5.05 10.91-5.05L16.22-5.05ZM8.99-4.65L8.68-1.13L4.11-1.13C3.49-1.13 2.99-0.62 2.99-0.01C2.99 0.60 3.49 1.11 4.11 1.11L9.73 1.11C10.29 1.11 10.72 0.69 10.83 0.13L11.60-4.11L10.91-4.11C10.15-4.11 9.50-4.30 8.99-4.65ZM25.70 1.11L29.05 1.11C29.77 1.11 30.33 0.55 30.33-0.16C30.33-0.88 29.77-1.44 29.05-1.44L28.85-1.44L28.85-2.21C28.85-3.02 28.31-3.56 27.50-3.56L26.25-3.56C26.05-3.56 25.90-3.41 25.90-3.21C25.90-3.02 26.05-2.86 26.25-2.86L27.50-2.86C27.89-2.86 28.15-2.60 28.15-2.21L28.15-1.44L25.70-1.44C24.96-1.44 24.41-0.88 24.41-0.16C24.41 0.55 24.96 1.11 25.70 1.11Z" fill="currentColor"/>
</svg>