<svg xmlns="http://www.w3.org/2000/svg" viewBox="0 0 24 24" width="24" height="24">
  <title>flag.slash</title>
  <path transform="matrix(0.8291783431826585, 0, 0, 0.8291783431826585, 0.6670030563963558, 20.046896324456473)" d="M23.30-1.16C23.46-1.00 23.74-1.00 23.91-1.16C24.08-1.35 24.07-1.61 23.91-1.77L4.04-21.63C3.89-21.80 3.61-21.82 3.43-21.63C3.26-21.47 3.26-21.19 3.43-21.02ZM22.80-4.93C23.04-4.99 23.17-5.20 23.17-5.66L23.17-17.00C23.17-17.46 22.88-17.68 22.45-17.68C21.94-17.68 20.86-17.14 18.83-17.14C14.79-17.14 12.28-19.21 8.04-19.22L8.95-18.30C12.59-18.08 14.99-16.30 18.83-16.30C19.92-16.30 20.95-16.41 22.30-16.82L22.30-5.47ZM4.34 2.36C4.57 2.36 4.76 2.17 4.76 1.92L4.76-5.32C5.19-5.34 6.27-5.87 8.24-5.87C12.41-5.87 14.65-3.83 19.08-3.80L18.15-4.72C14.50-4.92 12.09-6.71 8.24-6.71C7.14-6.71 6.09-6.60 4.76-6.19L4.76-17.67L4.24-18.22C4.02-18.18 3.90-17.99 3.90-17.55L3.90 1.92C3.90 2.16 4.10 2.36 4.34 2.36Z" fill="currentColor"/>
</svg>