<svg xmlns="http://www.w3.org/2000/svg" viewBox="0 0 24 24" width="24" height="24">
  <title>flame.gauge.open</title>
  <path transform="matrix(0.7937984496124031, 0, 0, 0.7937984496124031, 0.33488372093023266, 18.710259917920656)" d="M14.70-19.30C7.73-19.30 2.10-13.66 2.10-6.70C2.10-3.22 3.50-0.07 5.80 2.23C6.01 2.44 6.30 2.45 6.49 2.26C6.66 2.09 6.63 1.80 6.40 1.57C4.29-0.55 3-3.49 3-6.70C3-13.18 8.21-18.40 14.70-18.40C21.18-18.40 26.39-13.18 26.39-6.70C26.39-3.49 25.10-0.55 22.99 1.57C22.76 1.80 22.73 2.09 22.89 2.26C23.09 2.45 23.38 2.44 23.59 2.23C25.86-0.06 27.29-3.22 27.29-6.70C27.29-13.66 21.66-19.30 14.70-19.30ZM14.81 0.39C18.15 0.39 20.39-1.90 20.39-5.37C20.39-11.14 15.50-13.61 11.87-13.61C11.45-13.61 11.23-13.46 11.23-13.18C11.23-13.08 11.26-12.97 11.38-12.83C12.20-11.86 13.01-10.64 13.02-9.46C13.02-9.13 12.95-8.84 12.79-8.55C12.42-9.35 11.58-9.87 11.07-9.87C10.92-9.87 10.84-9.76 10.84-9.61C10.84-9.43 10.90-9.02 10.90-8.72C10.90-6.94 9.75-6.23 9.75-3.94C9.75-1.34 11.72 0.39 14.81 0.39ZM14.89-1.50C13.76-1.50 13.01-2.18 13.01-3.21C13.01-4.28 13.76-4.66 13.86-5.34C13.88-5.41 13.91-5.43 13.96-5.39C14.24-5.14 14.44-4.82 14.63-4.48C14.94-4.91 15.11-5.79 14.94-6.83C14.93-6.89 14.96-6.93 15.01-6.89C16.34-6.25 17.04-4.96 17.04-3.77C17.04-2.57 16.35-1.50 14.89-1.50Z" fill="currentColor"/>
</svg>