<svg xmlns="http://www.w3.org/2000/svg" viewBox="0 0 24 24" width="24" height="24">
  <title>flashlight.slash</title>
  <path transform="matrix(0.7420289855072464, 0, 0, 0.7420289855072464, 5.671181605046895, 18.27826086956522)" d="M2.99-19.32L14.03-19.32L14.03-19.80C14.03-21.23 13.34-21.94 11.96-21.94L5.06-21.94C3.68-21.94 2.99-21.23 2.99-19.80ZM11.64-7.38L11.64-10.14C11.64-11.44 11.94-12.32 12.40-13.03L13.08-14.09C13.64-14.98 14.03-15.76 14.03-16.80L14.03-18.33L2.99-18.33L2.99-16.03L7.99-11.03C9.08-11.38 10.41-10.72 10.43-9.36L10.44-8.58ZM-0.33-16.73L16.77 0.38C16.95 0.54 17.21 0.54 17.39 0.38C17.57 0.19 17.55-0.07 17.39-0.25L0.28-17.34C0.13-17.50-0.15-17.53-0.33-17.34C-0.50-17.18-0.50-16.90-0.33-16.73ZM7.45 5.02L9.57 5.02C10.86 5.02 11.64 4.21 11.64 2.88L11.64-3.36L10.08-4.92C9.75-4.42 9.19-4.08 8.53-4.08C7.43-4.08 6.57-4.93 6.57-6.01L6.57-8.43L5.39-9.62L5.39 2.88C5.39 4.21 6.16 5.02 7.45 5.02Z" fill="currentColor"/>
</svg>