<svg xmlns="http://www.w3.org/2000/svg" viewBox="0 0 24 24" width="24" height="24">
  <title>florinsign.gauge.chart.lefthalf.righthalf</title>
  <path transform="matrix(0.7384970431270734, 0, 0, 0.7384970431270734, 0.4508870618779748, 18.274595724629147)" d="M29.18-6.23C29.18-13.32 23.71-19.16 16.77-19.72C16.39-19.77 16.11-19.49 16.11-19.11L16.11-15.70C16.11-15.39 16.34-15.14 16.66-15.11C21.11-14.60 24.56-10.82 24.56-6.23C24.56-4.14 23.85-2.20 22.61-0.67C22.41-0.42 22.41-0.12 22.64 0.11L25.08 2.54C25.35 2.79 25.73 2.79 25.98 2.51C27.97 0.15 29.18-2.91 29.18-6.23ZM2.10-6.23C2.10-2.89 3.32 0.18 5.32 2.53C5.55 2.81 5.93 2.79 6.20 2.54L8.64 0.11C8.87-0.12 8.87-0.42 8.67-0.67C7.43-2.20 6.71-4.14 6.71-6.23C6.71-10.82 10.17-14.60 14.61-15.11C14.94-15.14 15.16-15.39 15.16-15.70L15.16-19.11C15.16-19.49 14.88-19.77 14.51-19.72C7.57-19.16 2.10-13.32 2.10-6.23ZM12.82-1.07C14.43-1.07 15.16-1.98 15.43-3.56L15.89-6.07L18.60-6.07C18.76-6.07 18.89-6.19 18.89-6.36C18.89-6.53 18.76-6.66 18.60-6.66L15.98-6.66L16.31-8.47C16.51-9.64 17.07-10.31 18.26-10.31C18.73-10.31 19.01-10.18 19.25-10.18C19.45-10.18 19.57-10.29 19.57-10.45C19.57-10.65 19.44-10.75 19.24-10.83C18.87-10.98 18.41-11.02 18.20-11.02C16.62-11.02 15.82-10.10 15.54-8.54L15.21-6.66L12.62-6.66C12.45-6.66 12.32-6.53 12.32-6.36C12.32-6.19 12.45-6.07 12.62-6.07L15.11-6.07L14.66-3.66C14.45-2.47 13.96-1.76 12.75-1.76C12.27-1.76 12.05-1.90 11.74-1.90C11.55-1.90 11.44-1.78 11.44-1.62C11.44-1.43 11.55-1.31 11.78-1.23C12.09-1.10 12.48-1.07 12.82-1.07Z" fill="currentColor"/>
</svg>