<svg xmlns="http://www.w3.org/2000/svg" viewBox="0 0 24 24" width="24" height="24">
  <title>fn</title>
  <path transform="matrix(1.0989482721614081, 0, 0, 1.0989482721614081, -1.2839665164198326, 21.433354797166775)" d="M5.31 0.06C5.57 0.06 5.75-0.14 5.75-0.42L5.75-11.72L8.34-11.72C8.61-11.72 8.77-11.88 8.77-12.12C8.77-12.35 8.60-12.52 8.34-12.52L5.75-12.52L5.75-14.20C5.75-15.69 6.40-16.41 7.75-16.41C8.03-16.41 8.33-16.38 8.45-16.39C8.66-16.42 8.78-16.55 8.78-16.75C8.78-17.07 8.43-17.23 7.68-17.23C5.86-17.23 4.86-16.21 4.86-14.29L4.86-12.52L3.41-12.52C3.14-12.52 2.99-12.35 2.99-12.12C2.99-11.88 3.14-11.72 3.41-11.72L4.86-11.72L4.86-0.42C4.86-0.13 5.04 0.06 5.31 0.06ZM11.81 0.06C12.08 0.06 12.26-0.13 12.26-0.42L12.26-7.49C12.26-10.13 13.93-11.93 16.42-11.93C18.75-11.93 20.31-10.39 20.31-8.03L20.31-0.42C20.31-0.13 20.48 0.06 20.74 0.06C21 0.06 21.19-0.14 21.19-0.42L21.19-8.11C21.19-10.90 19.36-12.74 16.57-12.74C14.51-12.74 12.83-11.64 12.22-9.93L12.22-12.28C12.22-12.56 12.04-12.74 11.79-12.74C11.55-12.74 11.37-12.56 11.37-12.28L11.37-0.42C11.37-0.14 11.57 0.06 11.81 0.06Z" fill="currentColor"/>
</svg>