<svg xmlns="http://www.w3.org/2000/svg" viewBox="0 0 24 24" width="24" height="24">
  <title>fork.knife</title>
  <path transform="matrix(0.7565011820330969, 0, 0, 0.7565011820330969, 4.105169684263791, 18.93262411347518)" d="M6.64 4.05C7.52 4.05 8.16 3.54 8.14 2.64L7.91-10.30C7.90-10.76 8.03-10.99 8.40-11.16C9.88-11.84 10.37-12.59 10.29-14.55L9.98-21.50C9.96-21.94 9.70-22.21 9.27-22.21C8.84-22.21 8.59-21.94 8.59-21.47L8.66-14.72C8.66-14.27 8.40-14.07 8.06-14.07C7.72-14.07 7.45-14.27 7.45-14.70L7.34-21.68C7.34-22.11 7.08-22.38 6.64-22.38C6.21-22.38 5.95-22.11 5.95-21.68L5.82-14.70C5.82-14.27 5.57-14.07 5.23-14.07C4.89-14.07 4.64-14.27 4.64-14.72L4.69-21.47C4.69-21.94 4.44-22.21 4.02-22.21C3.59-22.21 3.32-21.94 3.30-21.50L3-14.55C2.91-12.59 3.41-11.84 4.89-11.16C5.26-10.99 5.39-10.76 5.38-10.30L5.14 2.64C5.13 3.54 5.77 4.05 6.64 4.05ZM15.18-5.27L14.85 2.41C14.80 3.54 15.47 4.05 16.35 4.05C17.25 4.05 17.88 3.55 17.88 2.64L17.88-21.64C17.88-22.14 17.59-22.38 17.20-22.38C16.80-22.38 16.57-22.15 16.29-21.75C14.41-19.14 13.28-14.55 13.28-9.63L13.28-8.80C13.28-7.88 13.55-7.37 14.13-6.95L14.63-6.60C15.04-6.29 15.20-5.88 15.18-5.27Z" fill="currentColor"/>
</svg>