<svg xmlns="http://www.w3.org/2000/svg" viewBox="0 0 24 24" width="24" height="24">
  
  <path transform="matrix(0.8703042665306816, 0, 0, 0.8703042665306816, 0.17440081591024992, 19.36868944416114)" d="M13.59 3.02C19.91 3.02 25.08-2.13 25.08-8.46C25.08-14.79 19.91-19.96 13.59-19.96C7.27-19.96 2.10-14.79 2.10-8.46C2.10-2.13 7.27 3.02 13.59 3.02ZM18.59-4.46C18.59-4.05 18.40-3.88 18.01-3.88L16.75-3.88C16.34-3.88 16.16-4.05 16.16-4.46L16.16-8.10C16.09-8.00 16.01-7.92 15.89-7.85L9.73-4.23C9.57-4.14 9.39-4.05 9.22-4.05C8.88-4.05 8.59-4.30 8.59-4.80L8.59-12.05C8.59-12.55 8.88-12.80 9.22-12.80C9.39-12.80 9.57-12.71 9.73-12.63L15.89-9C16.01-8.94 16.09-8.86 16.16-8.75L16.16-12.46C16.16-12.88 16.34-13.04 16.75-13.04L18.01-13.04C18.40-13.04 18.59-12.87 18.59-12.46Z" fill="currentColor"/>
</svg>