<svg xmlns="http://www.w3.org/2000/svg" viewBox="0 0 24 24" width="24" height="24">
  
  <path transform="matrix(0.682766888536616, 0, 0, 0.682766888536616, 0.567789768968114, 17.768846796502736)" d="M15.68 3C23.73 3 29.70-2.40 31.36-9.88C31.49-10.41 31.21-10.76 30.63-10.76L19.84-10.76C19.98-11.33 20.06-11.94 20.06-12.55C20.06-16.70 16.62-19.90 12.15-19.90C6.49-19.90 2.10-15.35 2.10-9.46C2.10-2.14 7.68 3 15.68 3ZM6.87-17.38C8.29-18.39 10.01-18.98 11.88-19.04L11.88-14.53C11.38-14.37 10.91-14.09 10.52-13.72ZM12.96-14.71C12.86-14.71 12.75-14.70 12.64-14.70L12.64-19.03C14.51-18.91 16.14-18.19 17.31-17.05L14.58-14.32C14.12-14.57 13.57-14.71 12.96-14.71ZM9.30-10.79C9.30-10.77 9.30-10.73 9.30-10.72L3.01-10.72C3.30-13.24 4.50-15.41 6.26-16.91L10.02-13.14C9.57-12.49 9.30-11.68 9.30-10.79ZM10.16-10.79C10.16-12.50 11.38-13.85 12.96-13.85C14.30-13.85 15.21-13.01 15.21-11.84C15.21-10.88 14.60-10.21 13.73-10.21C13.04-10.21 12.79-10.54 12.62-10.88C12.55-11.03 12.46-11.14 12.26-11.14C12.05-11.14 11.86-10.98 11.86-10.72C11.86-10.11 12.53-9.35 13.69-9.35C15.06-9.35 16.07-10.37 16.07-11.84C16.07-12.66 15.75-13.37 15.21-13.88L17.82-16.49C18.70-15.41 19.22-14.05 19.22-12.55C19.22-9.45 17.05-7.04 14.24-7.04C11.93-7.04 10.16-8.70 10.16-10.79ZM2.93-9.46C2.93-9.62 2.94-9.80 2.94-9.96L9.39-9.96C9.50-9.28 9.79-8.66 10.20-8.12L4.93-2.86C3.64-4.69 2.93-6.94 2.93-9.46ZM17.89-7.56C18.61-8.19 19.17-9 19.55-9.90L30.53-9.90C29.61-6.07 27.53-2.91 24.69-0.79ZM5.39-2.26L10.70-7.56C11.48-6.81 12.56-6.32 13.79-6.21L13.79 2.04C10.23 1.64 7.30 0.08 5.39-2.26ZM15.68 2.14C15.29 2.14 14.92 2.13 14.55 2.11L14.55-6.21C15.59-6.26 16.51-6.59 17.30-7.10L24.06-0.34C21.68 1.25 18.81 2.14 15.68 2.14Z" fill="currentColor"/>
</svg>