<svg xmlns="http://www.w3.org/2000/svg" viewBox="0 0 24 24" width="24" height="24">
  
  <path transform="matrix(0.8703042665306816, 0, 0, 0.8703042665306816, 0.17440081591024992, 19.36868944416114)" d="M13.59 3.02C19.91 3.02 25.08-2.13 25.08-8.46C25.08-14.79 19.91-19.96 13.59-19.96C7.27-19.96 2.10-14.79 2.10-8.46C2.10-2.13 7.27 3.02 13.59 3.02ZM11.81-3.25C11.58-3.25 11.41-3.43 11.41-3.67L11.41-5.25L10.30-5.25C10.16-5.25 10.04-5.37 10.04-5.52C10.04-5.66 10.16-5.78 10.30-5.78L11.41-5.78L11.41-12.91C11.41-13.18 11.57-13.34 11.82-13.34L16.84-13.34C17.04-13.34 17.20-13.17 17.20-12.98C17.20-12.79 17.04-12.62 16.84-12.62L12.22-12.62L12.22-8.81L16.42-8.81C16.62-8.81 16.78-8.65 16.78-8.46C16.78-8.27 16.62-8.11 16.42-8.11L12.22-8.11L12.22-5.78L15-5.78C15.14-5.78 15.26-5.66 15.26-5.52C15.26-5.37 15.14-5.25 15-5.25L12.22-5.25L12.22-3.67C12.22-3.43 12.05-3.25 11.81-3.25Z" fill="currentColor"/>
</svg>