<svg xmlns="http://www.w3.org/2000/svg" viewBox="0 0 24 24" width="24" height="24">
  <title>fuelpump.slash</title>
  <path transform="matrix(0.7580131764009179, 0, 0, 0.7580131764009179, 1.901176993115701, 17.936042638241172)" d="M18.19-4.63L19.03-3.76L19.03-10.59C20.19-9.95 20.80-8.92 20.80-7.65C20.80-5.93 20.57-3.87 20.54-2.26L21.32-1.49C21.30-1.63 21.29-1.77 21.29-1.93C21.29-3.42 21.56-5.65 21.56-7.65C21.56-9.35 20.70-10.69 19.03-11.43L19.03-18.11C19.03-19.98 18.01-21.02 16.11-21.02L7.34-21.02C5.52-21.02 4.55-20.09 4.48-18.33L5.30-17.51L5.30-18.08C5.30-19.44 5.98-20.16 7.37-20.16L16.09-20.16C17.43-20.16 18.18-19.43 18.18-18.08ZM25.41 5.24C25.58 5.40 25.85 5.40 26.02 5.24C26.21 5.05 26.19 4.79 26.02 4.62L1.13-20.27C0.97-20.43 0.70-20.45 0.52-20.27C0.34-20.11 0.34-19.83 0.52-19.66ZM26.26-2.39C26.26-5.20 25.71-8.47 24.64-13.62L24.26-15.46C24.11-16.20 23.96-16.62 23.43-17.27L21.93-19.16C21.59-19.59 20.98-19.09 21.33-18.64L23.05-16.48C23.17-16.32 23.16-16.16 23.10-16.03L21.98-13.98C21.84-13.70 21.91-13.46 22.09-13.27L24.45-10.76C25.18-7.17 25.50-4.76 25.50-2.39C25.50-0.62 24.71 0.36 23.32 0.36C23.26 0.36 23.20 0.35 23.16 0.35L23.88 1.08C25.41 0.84 26.26-0.38 26.26-2.39ZM17.23-11.55L17.23-18.27C17.23-18.83 16.85-19.21 16.30-19.21L7.15-19.21C6.61-19.21 6.23-18.83 6.23-18.27L6.23-16.56L12.18-10.63L16.30-10.63C16.86-10.63 17.23-11.02 17.23-11.55ZM3.42 4.10L20.02 4.10C20.12 4.10 20.21 4.08 20.27 4.01L18.19 1.95L18.19 3.23L5.29 3.23L5.30-13.48L4.43-14.34L4.43 3.23L3.42 3.23C3.19 3.23 2.99 3.42 2.99 3.67C2.99 3.90 3.19 4.10 3.42 4.10Z" fill="currentColor"/>
</svg>