<svg xmlns="http://www.w3.org/2000/svg" viewBox="0 0 24 24" width="24" height="24">
  <title>gift.circle</title>
  <path transform="matrix(0.8703042665306816, 0, 0, 0.8703042665306816, 0.17440081591024992, 19.36868944416114)" d="M13.59 3.02C19.93 3.02 25.08-2.11 25.08-8.46C25.08-14.81 19.93-19.96 13.59-19.96C7.24-19.96 2.10-14.81 2.10-8.46C2.10-2.11 7.24 3.02 13.59 3.02ZM13.59 2.13C7.73 2.13 2.99-2.60 2.99-8.46C2.99-14.32 7.73-19.07 13.59-19.07C19.45-19.07 24.19-14.32 24.19-8.46C24.19-2.60 19.45 2.13 13.59 2.13ZM7.84-9.53C7.84-8.98 8.16-8.64 8.71-8.64L13.21-8.64L13.21-11.73L12.49-11.73C11.39-11.73 10.68-12.30 10.68-13.17C10.68-13.76 11.10-14.14 11.74-14.14C12.62-14.14 13.21-13.45 13.21-12.40L13.21-11.73L13.97-11.73L13.97-8.64L18.47-8.64C19.02-8.64 19.34-8.98 19.34-9.53L19.34-10.85C19.34-11.38 19.02-11.73 18.47-11.73L16.48-11.73C16.93-12.05 17.21-12.54 17.21-13.16C17.21-14.17 16.48-14.85 15.45-14.85C14.54-14.85 13.85-14.32 13.58-13.44C13.32-14.32 12.63-14.85 11.73-14.85C10.69-14.85 9.96-14.17 9.96-13.16C9.96-12.54 10.24-12.05 10.70-11.73L8.71-11.73C8.17-11.73 7.84-11.38 7.84-10.85ZM15.43-14.14C16.08-14.14 16.50-13.76 16.50-13.17C16.50-12.30 15.79-11.73 14.68-11.73L13.97-11.73L13.97-12.40C13.97-13.45 14.55-14.14 15.43-14.14ZM8.84-4.00C8.84-3.13 9.38-2.63 10.23-2.63L13.21-2.63L13.21-8.12L8.84-8.12ZM13.97-2.63L16.95-2.63C17.80-2.63 18.34-3.13 18.34-4.00L18.34-8.12L13.97-8.12Z" fill="currentColor"/>
</svg>