<svg xmlns="http://www.w3.org/2000/svg" viewBox="0 0 24 24" width="24" height="24">
  
  <path transform="matrix(0.7872078720787208, 0, 0, 0.7872078720787208, 3.2822878228782293, 18.65129151291513)" d="M11.45 4.25C11.67 4.25 11.84 4.09 11.84 3.87L11.84 1.54C16.48 1.44 19.16-1.68 19.16-6.32L19.16-7.78C19.16-8.23 18.91-8.45 18.50-8.45L11.84-8.45L11.84-17.80C14.93-17.72 17.53-15.76 17.99-12.83C18.06-12.54 18.18-12.36 18.50-12.36C18.77-12.36 18.96-12.54 18.96-12.84C18.96-13.08 18.87-13.52 18.80-13.77C17.93-16.86 15.05-18.66 11.84-18.73L11.84-20.77C11.84-20.99 11.67-21.15 11.45-21.15C11.21-21.15 11.06-20.99 11.06-20.77L11.06-18.71C5.71-18.45 2.99-14.30 2.99-8.71C2.99-3.12 5.67 1.23 11.06 1.52L11.06 3.87C11.06 4.09 11.21 4.25 11.45 4.25ZM4.04-8.71C4.04-13.59 6.32-17.50 11.06-17.79L11.06 0.60C6.32 0.29 4.04-3.74 4.04-8.71ZM18.16-7.54L18.16-6.16C18.16-2.23 15.64 0.52 11.84 0.61L11.84-7.54Z" fill="currentColor"/>
</svg>