<svg xmlns="http://www.w3.org/2000/svg" viewBox="0 0 24 24" width="24" height="24">
  
  <path transform="matrix(0.9642184557438794, 0, 0, 0.9642184557438794, -0.8813559322033897, 20.15819209039548)" d="M6.15 1.91L20.58 1.91C22.65 1.91 23.73 0.81 23.73-1.24L23.73-15.68C23.73-17.73 22.65-18.83 20.58-18.83L6.15-18.83C4.08-18.83 2.99-17.75 2.99-15.68L2.99-1.24C2.99 0.83 4.08 1.91 6.15 1.91ZM6.18 1.04C4.65 1.04 3.86 0.25 3.86-1.28L3.86-15.63C3.86-17.17 4.65-17.96 6.18-17.96L20.54-17.96C22.02-17.96 22.86-17.17 22.86-15.63L22.86-1.28C22.86 0.25 22.02 1.04 20.54 1.04ZM13.43-2.13C13.58-2.13 13.70-2.25 13.70-2.41L13.70-3.56C15.81-3.64 17.25-4.97 17.25-7.45L17.25-8.07C17.25-8.33 17.09-8.50 16.83-8.50L13.70-8.50L13.70-12.75C15.11-12.67 16.18-11.75 16.41-10.61C16.45-10.39 16.55-10.31 16.77-10.31C16.98-10.31 17.11-10.45 17.11-10.66C17.11-10.79 17.09-10.95 17.03-11.10C16.52-12.63 15.11-13.36 13.70-13.42L13.70-14.48C13.70-14.64 13.58-14.75 13.43-14.75C13.28-14.75 13.17-14.64 13.17-14.48L13.17-13.42C10.62-13.25 9.26-11.23 9.26-8.52C9.26-5.81 10.63-3.74 13.17-3.56L13.17-2.41C13.17-2.25 13.28-2.13 13.43-2.13ZM10.05-8.52C10.05-10.69 11.03-12.57 13.17-12.75L13.17-4.24C11.10-4.42 10.05-6.22 10.05-8.52ZM16.51-7.88L16.51-7.28C16.51-5.58 15.49-4.31 13.70-4.23L13.70-7.88Z" fill="currentColor"/>
</svg>