<svg xmlns="http://www.w3.org/2000/svg" viewBox="0 0 24 24" width="24" height="24">
  <title>guitars</title>
  <path transform="matrix(0.7282061208653459, 0, 0, 0.7282061208653459, -0.17899657963711624, 18.165573308498583)" d="M3.12 2.10C2.80 2.82 3.09 3.54 3.90 3.54C4.16 3.54 4.43 3.46 4.79 3.15L8.27 0.26C8.53 0.06 8.67-0.04 8.80-0.04C8.93-0.04 9.08 0.06 9.33 0.26L12.82 3.15C13.18 3.46 13.45 3.54 13.71 3.54C14.51 3.54 14.81 2.82 14.50 2.10L9.60-9.16L9.60-15.02C9.60-17.70 10.04-19.70 10.04-20.06C10.04-20.32 9.89-20.48 9.64-20.48C9.48-20.48 9.33-20.38 9.06-20.07L6.48-17.12C6.32-16.92 6.34-16.72 6.54-16.63C7.59-16.18 8.03-15.95 8.03-15.02L8.03-9.21ZM13.04-2.79L13.51-1.72C13.83-3.14 14.80-3.80 14.80-4.85C14.80-5.99 14.02-6.69 14.02-7.65C14.02-7.80 14.10-7.91 14.24-7.91C14.80-7.91 15-6.46 16.05-6.46C16.65-6.46 17.21-7.04 17.25-8.38L17.53-8.38C17.57-7.04 18.14-6.46 18.73-6.46C19.78-6.46 19.97-7.91 20.54-7.91C20.68-7.91 20.77-7.79 20.77-7.65C20.77-6.69 19.98-5.99 19.98-4.85C19.98-3.57 21.41-2.87 21.41-0.66C21.41 1.45 19.84 2.79 17.38 2.79C16.58 2.79 15.86 2.63 15.19 2.36C15.25 2.61 15.25 2.88 15.15 3.16C15.83 3.42 16.57 3.55 17.38 3.55C20.30 3.55 22.17 1.90 22.17-0.66C22.17-3.18 20.73-3.89 20.73-4.82C20.73-5.88 21.52-6.61 21.52-7.65C21.52-8.27 21.14-8.70 20.59-8.70C19.98-8.70 19.61-8.14 19.31-7.70C19.11-7.41 18.96-7.18 18.75-7.18C18.28-7.18 18.15-8.14 18.16-8.66L18.18-15.56C18.18-15.94 18.20-16.04 18.46-16.14C18.66-16.20 18.73-16.30 18.75-16.59L18.98-18.98C19.00-19.18 18.91-19.34 18.79-19.45L17.78-20.33C17.67-20.41 17.53-20.48 17.38-20.48C17.25-20.48 17.11-20.41 17.00-20.33L16.00-19.45C15.87-19.34 15.79-19.18 15.80-18.98L16.03-16.59C16.05-16.30 16.11-16.20 16.31-16.14C16.56-16.05 16.61-15.95 16.61-15.56L16.62-8.66C16.63-8.14 16.50-7.18 16.03-7.18C15.82-7.18 15.67-7.42 15.47-7.70C15.16-8.14 14.80-8.70 14.19-8.70C13.64-8.70 13.27-8.27 13.27-7.65C13.27-6.61 14.05-5.88 14.05-4.82C14.05-4.25 13.45-3.74 13.04-2.79ZM25.69 3.49C28.63 3.49 30.46 2.16 30.46 0.02C30.46-2.19 28.88-2.88 28.88-4.01C28.88-4.89 29.24-5.60 29.24-6.48C29.24-7.79 28.17-8.70 26.46-8.89L26.46-16.00C26.46-16.54 26.54-16.70 26.85-16.91C27.06-17.04 27.12-17.12 27.11-17.30L26.92-20.19C26.91-20.36 26.79-20.48 26.64-20.48L24.71-20.48C24.57-20.48 24.45-20.36 24.43-20.19L24.27-17.30C24.25-17.12 24.30-17.04 24.52-16.91C24.81-16.70 24.90-16.54 24.90-16.00L24.90-8.89C23.18-8.70 22.13-7.79 22.13-6.48C22.13-5.60 22.48-4.89 22.48-4.01C22.48-3.75 22.39-3.52 22.25-3.26C22.38-2.99 22.49-2.72 22.57-2.41C22.91-2.92 23.23-3.41 23.23-4.03C23.23-4.84 22.89-5.68 22.89-6.48C22.89-7.62 23.89-8.20 25.69-8.20C27.34-8.20 28.49-7.70 28.49-6.48C28.49-5.68 28.13-4.84 28.13-4.03C28.13-2.65 29.70-1.91 29.70 0.02C29.70 1.71 28.21 2.74 25.69 2.74C24.12 2.74 22.91 2.34 22.24 1.59C22.13 1.85 22.00 2.05 21.84 2.26C22.66 3.08 24.01 3.49 25.69 3.49ZM3.77 2.43L8.54-8.67L9.07-8.67L13.84 2.43C13.98 2.75 13.68 2.88 13.48 2.73L9.73-0.39C9.38-0.68 9.09-0.83 8.80-0.83C8.52-0.83 8.23-0.68 7.88-0.39L4.14 2.73C3.94 2.88 3.62 2.75 3.77 2.43ZM25.69-3.18C26.33-3.18 26.85-3.70 26.85-4.35C26.85-4.99 26.33-5.52 25.69-5.52C25.04-5.52 24.50-4.99 24.50-4.35C24.50-3.70 25.04-3.18 25.69-3.18ZM15.11-0.83C15.28-0.77 15.47-0.87 15.54-1.03L16.59-3.93C16.65-4.10 16.56-4.30 16.39-4.36C16.21-4.42 16.02-4.34 15.95-4.16L14.89-1.27C14.84-1.09 14.93-0.89 15.11-0.83ZM19.68-0.83C19.85-0.89 19.95-1.09 19.89-1.27L18.83-4.16C18.76-4.34 18.57-4.42 18.39-4.36C18.22-4.30 18.13-4.10 18.19-3.93L19.24-1.03C19.31-0.87 19.50-0.77 19.68-0.83ZM10.30-2.77C10.55-2.77 10.76-2.96 10.76-3.20C10.76-3.46 10.56-3.66 10.30-3.66C10.08-3.66 9.87-3.45 9.87-3.20C9.87-2.96 10.07-2.77 10.30-2.77ZM10.89-1.38C11.13-1.38 11.34-1.58 11.34-1.82C11.34-2.07 11.13-2.27 10.89-2.27C10.65-2.27 10.44-2.06 10.44-1.82C10.44-1.57 10.65-1.38 10.89-1.38ZM11.46 0C11.71 0 11.92-0.21 11.92-0.43C11.92-0.69 11.72-0.89 11.46-0.89C11.24-0.89 11.03-0.68 11.03-0.43C11.03-0.20 11.23 0 11.46 0ZM24.19 0.07L27.16 0.07C27.34 0.07 27.49-0.07 27.49-0.26C27.49-0.45 27.34-0.59 27.16-0.59L24.19-0.59C24.01-0.59 23.86-0.45 23.86-0.26C23.86-0.07 24.01 0.07 24.19 0.07Z" fill="currentColor"/>
</svg>