<svg xmlns="http://www.w3.org/2000/svg" viewBox="0 0 24 24" width="24" height="24">
  <title>hand.point.up.left.and.text</title>
  <path transform="matrix(0.7755679162369535, 0, 0, 0.7755679162369535, -0.3176150621924587, 18.628761973250427)" d="M3.40-18.66L11.38-18.66C11.65-18.98 12.02-19.27 12.48-19.46L3.40-19.46C3.16-19.46 2.99-19.29 2.99-19.05C2.99-18.82 3.16-18.66 3.40-18.66ZM23.79 1.83C27.82 0.36 29.94-3.26 28.11-8.29L27.38-10.32C26.46-12.84 24.96-13.83 23.07-13.17C22.59-13.84 21.80-14.11 20.92-13.78C20.58-13.66 20.26-13.46 19.95-13.22C19.46-13.91 18.64-14.18 17.75-13.85C17.46-13.75 17.14-13.56 16.86-13.34L15.42-17.32C15-18.48 13.95-18.89 12.98-18.54C11.98-18.18 11.46-17.19 11.88-16.03L15.59-5.86C15.60-5.80 15.59-5.75 15.53-5.73C15.49-5.72 15.43-5.73 15.39-5.79L13.03-8.43C12.40-9.13 11.66-9.30 10.99-9.08C10.09-8.75 9.53-7.84 9.90-6.83C10.00-6.59 10.17-6.28 10.36-6.05L14.54-0.96C17.07 2.11 20.27 3.11 23.79 1.83ZM23.53 1.10C20.43 2.24 17.45 1.34 15.15-1.46L10.97-6.56C10.84-6.73 10.73-6.88 10.65-7.11C10.46-7.62 10.72-8.17 11.29-8.38C11.71-8.53 12.14-8.37 12.54-7.92L15.20-4.99C15.48-4.68 15.79-4.62 16.10-4.73C16.46-4.86 16.66-5.21 16.51-5.64L12.62-16.32C12.38-17.02 12.61-17.61 13.24-17.85C13.86-18.07 14.40-17.75 14.66-17.06L17.39-9.56C17.47-9.33 17.68-9.18 17.92-9.26C18.16-9.35 18.21-9.60 18.13-9.83L17.11-12.63C17.36-12.83 17.66-13.03 17.93-13.13C18.66-13.38 19.24-13.08 19.55-12.26L20.31-10.16C20.43-9.84 20.64-9.77 20.84-9.84C21.04-9.91 21.16-10.11 21.05-10.43L20.27-12.56C20.52-12.77 20.82-12.96 21.08-13.05C21.82-13.32 22.41-13.01 22.71-12.19L23.23-10.75C23.34-10.43 23.57-10.36 23.77-10.43C23.95-10.50 24.08-10.70 23.96-11.02L23.44-12.47C24.76-12.96 25.88-12.11 26.64-10.00L27.35-8.05C29.02-3.49 27.20-0.23 23.53 1.10ZM3.40-14.66L11.26-14.66C11.13-15.01 11.06-15.25 10.99-15.47L3.40-15.47C3.16-15.47 2.99-15.29 2.99-15.06C2.99-14.82 3.16-14.66 3.40-14.66ZM3.40-10.66L9.38-10.66C9.61-10.66 9.77-10.83 9.77-11.06C9.77-11.30 9.61-11.46 9.38-11.46L3.40-11.46C3.16-11.46 2.99-11.30 2.99-11.06C2.99-10.83 3.16-10.66 3.40-10.66Z" fill="currentColor"/>
</svg>