<svg xmlns="http://www.w3.org/2000/svg" viewBox="0 0 24 24" width="24" height="24">
  <title>hand.raised.app</title>
  <path transform="matrix(0.9746811345897582, 0, 0, 0.9746811345897582, -0.912621359223301, 20.109651627641348)" d="M9.22 1.93L17.27 1.93C19.35 1.93 20.92 1.39 21.94 0.36C22.97-0.67 23.51-2.24 23.51-4.30L23.51-12.34C23.51-14.40 22.98-15.96 21.94-17.00C20.89-18.05 19.35-18.57 17.27-18.57L9.22-18.57C7.15-18.57 5.58-18.04 4.56-17.00C3.53-15.97 2.99-14.40 2.99-12.34L2.99-4.30C2.99-2.24 3.50-0.68 4.56 0.36C5.60 1.42 7.15 1.93 9.22 1.93ZM9.22 1.05C7.44 1.05 6.11 0.61 5.20-0.28C4.31-1.17 3.86-2.52 3.86-4.30L3.86-12.34C3.86-14.12 4.31-15.47 5.20-16.36C6.09-17.25 7.44-17.70 9.22-17.70L17.27-17.70C19.05-17.70 20.39-17.25 21.29-16.36C22.18-15.47 22.63-14.12 22.63-12.34L22.63-4.30C22.63-2.52 22.18-1.17 21.29-0.28C20.39 0.61 19.05 1.05 17.27 1.05ZM8.37-6.02C8.37-2.71 10.48-1.04 13.15-1.04C15.43-1.04 17.17-2.20 18.04-5.00C18.42-6.16 18.75-7.36 19.08-8.60C19.15-8.86 19.22-9.11 19.22-9.26C19.22-9.61 18.95-9.82 18.61-9.82C18.33-9.82 18.08-9.68 17.92-9.27L16.98-6.97C16.85-6.63 16.66-6.54 16.49-6.54C16.25-6.54 16.08-6.69 16.08-7.07L16.08-14.20C16.08-14.55 15.77-14.86 15.41-14.86C15.05-14.86 14.75-14.55 14.75-14.20L14.75-9.20C14.52-9.30 14.26-9.40 13.99-9.46L13.99-15.54C13.99-15.90 13.70-16.21 13.35-16.21C12.98-16.21 12.68-15.90 12.68-15.54L12.68-9.55C12.38-9.53 12.06-9.49 11.79-9.43L11.79-14.73C11.79-15.09 11.47-15.39 11.12-15.39C10.76-15.39 10.45-15.09 10.45-14.73L10.45-9C10.15-8.87 9.90-8.71 9.68-8.54L9.68-12.50C9.68-12.87 9.39-13.16 9.02-13.16C8.66-13.16 8.37-12.87 8.37-12.50Z" fill="currentColor"/>
</svg>