<svg xmlns="http://www.w3.org/2000/svg" viewBox="0 0 24 24" width="24" height="24">
  <title>hare</title>
  <path transform="matrix(0.571173583221776, 0, 0, 0.571173583221776, 0.2931726907630521, 17.388219544846052)" d="M13.27 3.08C15.18 3.08 17.13 2.65 18.77 1.10C19.57 1.63 20.40 1.90 21.30 1.90C22.09 1.90 23.09 1.54 24.33 1.54C25.61 1.54 26.27 1.90 27.33 1.90C29.17 1.90 30.28 1.09 30.28 0.01C30.28-2.06 27.88-3.48 24.36-3.52C25.65-4.35 27.09-5.23 28.30-5.93C29.72-4.68 31.63-3.97 33.38-3.97C36.62-3.98 38.00-4.92 38.00-7.63C38.00-11.46 34.96-14.64 31.63-14.39L28.86-18.39C27.28-20.65 25.10-21.95 22.69-21.95C20.61-21.95 18.43-20.81 18.43-19.49C18.43-18.56 19.59-17.74 21.68-16.46C23.74-15.25 25.93-13.97 28.10-12.73C27.30-11.95 26.93-11.65 26.46-11.65C25.80-11.65 25.22-11.87 24.06-12.59C20.38-14.81 17.52-16.83 13.80-16.83C9.80-16.83 6.82-14.66 5.27-10.59C3.89-10.44 2.99-9.59 2.99-8.31C2.99-6.84 4.10-5.94 5.70-5.86C7.37-3.43 10.37-2.37 13.86-2.55L15.45-1.37C15.05-1.23 14.66-1.15 14.18-1.15C13.08-1.16 12.26-1.57 11.41-1.57C10.07-1.57 9.23-0.79 9.23 0.35C9.23 2.06 10.79 3.08 13.27 3.08ZM24.32 0.71C23.03 0.71 22.23 1.05 21.32 1.05C20.54 1.05 19.76 0.81 18.97 0.22L14.18-3.38C10.72-3.22 7.85-4.07 6.14-6.68C4.72-6.63 3.86-7.25 3.86-8.33C3.86-9.32 4.64-9.94 5.91-9.88C7.30-13.91 10.03-15.96 13.80-15.96C17.40-15.96 20.38-13.84 23.67-11.82C24.93-11.06 25.70-10.79 26.50-10.79C27.39-10.79 28.14-11.41 29.40-12.88L22.14-17.14C20.36-18.18 19.36-18.98 19.36-19.44C19.36-20.26 21.11-21.09 22.70-21.09C24.77-21.09 26.70-19.96 28.08-18L31.23-13.58C34.30-14.05 37.20-11.13 37.20-7.62C37.20-5.47 36.25-4.77 33.39-4.77C31.59-4.77 29.68-5.58 28.48-6.84C26.29-5.71 24.39-4.54 22.91-3.46C22.62-3.43 22.37-3.39 22.13-3.34L21.38-5.02C19.28-9.62 16.52-10.86 13.65-10.86C13.21-10.86 12.62-10.83 12.29-10.75C11.99-10.68 11.84-10.54 11.84-10.31C11.84-10.08 12.04-9.93 12.28-9.96C12.64-10.02 13.16-10.07 13.64-10.07C16.28-10.07 18.61-8.94 20.65-4.58L21.63-2.43C22.42-2.60 22.98-2.73 24.26-2.73C27.14-2.73 29.45-1.62 29.45-0.02C29.45 0.59 28.59 1.07 27.33 1.07C26.37 1.07 25.39 0.71 24.32 0.71ZM32.84-8.63C33.32-8.63 33.70-9.02 33.70-9.50C33.70-9.97 33.32-10.37 32.84-10.37C32.36-10.37 31.97-9.97 31.97-9.50C31.97-9.02 32.36-8.63 32.84-8.63ZM10.07 0.35C10.07-0.29 10.49-0.77 11.39-0.77C12.15-0.77 12.96-0.38 14.11-0.38C15.05-0.38 15.71-0.50 16.25-0.77L18.08 0.60C16.72 1.89 15.01 2.27 13.25 2.27C11.24 2.27 10.07 1.55 10.07 0.35Z" fill="currentColor"/>
</svg>