<svg xmlns="http://www.w3.org/2000/svg" viewBox="0 0 24 24" width="24" height="24">
  <title>hat.cap</title>
  <path transform="matrix(0.6388974572219073, 0, 0, 0.6388974572219073, 0.08956370842386341, 17.23771477287356)" d="M4.15-0.76C6.71-0.95 12.34-1.93 17.46-3.23C21.14-1.42 25.11 0.62 28.76 0.62C31.46 0.62 33.46-1.80 34.04-3.15C34.54-4.41 34.25-4.88 33.63-5.06L26.78-7.13C24.52-12.34 21.74-16.77 13.71-15.94L13.66-16.29C13.58-16.80 13.15-17.11 12.41-16.99L11.67-16.86C11.06-16.76 10.73-16.28 10.82-15.74L10.86-15.45C4.41-13.69 1.97-7.79 3.38-1.32C3.43-0.97 3.68-0.74 4.15-0.76ZM4.22-1.57C2.85-8.14 5.46-13.80 12.45-14.96C20.89-16.35 23.58-12.29 25.92-7.00C23.20-5.09 9.14-1.88 4.22-1.57ZM33.35-4.30C33.07-2.34 30.97-0.25 28.72-0.25C26.02-0.25 22.71-1.54 18.70-3.55C21.96-4.43 24.89-5.41 26.50-6.36Z" fill="currentColor"/>
</svg>