<svg xmlns="http://www.w3.org/2000/svg" viewBox="0 0 24 24" width="24" height="24">
  
  <path transform="matrix(0.6302314130969966, 0, 0, 0.6302314130969966, 0.11669128508124071, 17.590841949778437)" d="M18.86 0.98C28.10 0.98 34.72-1.96 34.72-6.27C34.72-9.32 30.97-11.48 26.55-12.19C25.90-16.35 23.26-18.73 18.86-18.73C14.45-18.73 11.82-16.35 11.16-12.19C6.74-11.48 2.99-9.32 2.99-6.27C2.99-1.96 9.62 0.98 18.86 0.98ZM18.77-5.02C15.41-5.02 12.83-5.89 11.40-7.07C11.30-8.10 11.30-9.63 11.36-10.62C13.10-9.18 15.94-8.38 18.77-8.38C21.61-8.38 24.47-9.18 26.20-10.62C26.26-9.63 26.25-8.10 26.13-7.07C24.71-5.89 22.15-5.02 18.77-5.02Z" fill="currentColor"/>
</svg>