<svg xmlns="http://www.w3.org/2000/svg" viewBox="0 0 24 24" width="24" height="24">
  <title>headset.circle</title>
  <path transform="matrix(0.8703042665306816, 0, 0, 0.8703042665306816, 0.17440081591024992, 19.36868944416114)" d="M13.59 3.02C19.93 3.02 25.08-2.11 25.08-8.46C25.08-14.81 19.93-19.96 13.59-19.96C7.24-19.96 2.10-14.81 2.10-8.46C2.10-2.11 7.24 3.02 13.59 3.02ZM13.59 2.13C7.73 2.13 2.99-2.60 2.99-8.46C2.99-14.32 7.73-19.07 13.59-19.07C19.45-19.07 24.19-14.32 24.19-8.46C24.19-2.60 19.45 2.13 13.59 2.13ZM13.59-14.38C16.69-14.38 18.71-12.33 18.71-9.21L18.71-9.08C18.67-9.11 18.61-9.11 18.56-9.11C18.19-9.11 17.92-8.79 17.92-8.46L17.92-4.57C17.92-4.21 18.19-3.91 18.56-3.91C18.61-3.91 18.66-3.91 18.70-3.93C18.68-3.69 18.56-3.66 18.22-3.61L15.33-3.11C15.19-3.22 15-3.28 14.81-3.26L13.54-3.02C13.22-2.99 12.98-2.67 13.07-2.33C13.10-2.04 13.42-1.82 13.75-1.86L15.04-2.09C15.22-2.12 15.40-2.25 15.48-2.44L18.36-2.94C18.98-3.05 19.41-3.34 19.41-4.22L19.41-4.43C19.62-4.50 19.76-4.68 19.76-4.96L19.77-7.91C19.77-8.16 19.66-8.43 19.48-8.58L19.48-9.21C19.48-12.76 17.11-15.15 13.59-15.15C10.08-15.15 7.72-12.76 7.72-9.21L7.72-8.58C7.51-8.43 7.42-8.16 7.42-7.91L7.43-4.98C7.43-4.57 7.76-4.37 8.02-4.37C8.06-4.14 8.32-3.91 8.63-3.91C8.99-3.91 9.28-4.21 9.28-4.57L9.28-8.46C9.28-8.81 8.99-9.11 8.63-9.11C8.57-9.11 8.53-9.11 8.47-9.09L8.47-9.21C8.47-12.33 10.49-14.38 13.59-14.38Z" fill="currentColor"/>
</svg>