<svg xmlns="http://www.w3.org/2000/svg" viewBox="0 0 24 24" width="24" height="24">
  
  <path transform="matrix(0.735632183908046, 0, 0, 0.735632183908046, -0.1982758620689653, 18.224137931034484)" d="M6.15 1.91L27.02 1.91C29.10 1.91 30.18 0.81 30.18-1.24L30.18-15.68C30.18-17.73 29.10-18.83 27.02-18.83L6.15-18.83C4.08-18.83 2.99-17.75 2.99-15.68L2.99-1.24C2.99 0.83 4.08 1.91 6.15 1.91ZM13.76-13.76C15.01-13.76 16.05-12.96 16.59-12C17.13-12.96 18.19-13.76 19.42-13.76C21.38-13.76 22.80-12.27 22.80-10.28C22.80-6.90 18.98-4.09 17.00-2.66C16.86-2.55 16.70-2.48 16.59-2.48C16.49-2.48 16.32-2.57 16.18-2.66C14.11-3.96 10.37-6.90 10.37-10.28C10.37-12.27 11.80-13.76 13.76-13.76Z" fill="currentColor"/>
</svg>