<svg xmlns="http://www.w3.org/2000/svg" viewBox="0 0 24 24" width="24" height="24">
  
  <path transform="matrix(0.6075728852053016, 0, 0, 0.6075728852053016, 0.7254883157508372, 17.179755112294075)" d="M18.56-2.18C21.18-2.18 23.78-1.54 25.91-0.53C26.40-0.29 26.94-0.38 27.28-0.80L34.71-10.41C35.20-11.05 35.09-11.75 34.45-12.22C31.00-14.75 24.60-16.65 18.56-16.65C12.52-16.65 6.12-14.75 2.66-12.22C2.03-11.75 1.91-11.05 2.40-10.41L9.83-0.80C10.17-0.38 10.71-0.29 11.20-0.53C13.34-1.54 15.94-2.18 18.56-2.18ZM3.39-11.60C7.27-14.17 13.08-15.77 18.56-15.77C24.04-15.77 29.85-14.17 33.73-11.60C34.04-11.38 34.10-11.05 33.87-10.73L32.33-8.75L25.72-8.75L24.67-11.27C24.53-11.63 24.04-11.63 23.88-11.29L21.73-6.49L18.93-13.18C18.79-13.52 18.33-13.52 18.19-13.18L15.40-6.49L13.23-11.29C13.08-11.63 12.60-11.63 12.45-11.27L11.39-8.75L4.78-8.75L3.25-10.73C3.01-11.05 3.07-11.38 3.39-11.60ZM18.56-3.05C16.08-3.05 13.45-2.43 11.03-1.42C10.75-1.31 10.58-1.28 10.34-1.59L5.41-7.95L11.53-7.95C11.74-7.95 11.89-8.06 11.98-8.25L12.83-10.24L15.01-5.38C15.15-5.05 15.62-5.05 15.75-5.38L18.56-12.11L21.36-5.38C21.49-5.05 21.96-5.05 22.11-5.38L24.28-10.24L25.15-8.25C25.22-8.06 25.38-7.95 25.58-7.95L31.70-7.95L26.78-1.59C26.53-1.28 26.37-1.31 26.09-1.42C23.66-2.43 21.04-3.05 18.56-3.05Z" fill="currentColor"/>
</svg>