<svg xmlns="http://www.w3.org/2000/svg" viewBox="0 0 24 24" width="24" height="24">
  <title>heater.vertical.fill</title>
  <path transform="matrix(0.7908557306147668, 0, 0, 0.7908557306147668, -1.27650626882006, 18.672845227062094)" d="M6.73 4.21L13.20 4.21C14.60 4.21 15.43 3.39 15.43 1.98L15.43-18.86C15.43-20.26 14.60-21.08 13.20-21.08L6.73-21.08C5.31-21.08 4.49-20.26 4.49-18.86L4.49 1.98C4.49 3.39 5.31 4.21 6.73 4.21ZM12.63-13.01C12.35-13.01 12.14-13.22 12.14-13.50L12.14-18.05C12.14-18.32 12.35-18.53 12.63-18.53C12.90-18.53 13.11-18.32 13.11-18.05L13.11-13.50C13.11-13.22 12.90-13.01 12.63-13.01ZM10.34-13.01C10.05-13.01 9.84-13.22 9.84-13.50L9.84-18.05C9.84-18.32 10.05-18.53 10.34-18.53C10.61-18.53 10.82-18.32 10.82-18.05L10.82-13.50C10.82-13.22 10.61-13.01 10.34-13.01ZM19.64-9.98C22.35-9.98 24-12.38 26.55-12.38C27.28-12.38 27.82-12.21 28.46-11.86C28.71-11.72 28.92-11.80 29.03-11.96C29.13-12.15 29.11-12.41 28.85-12.55C28.13-12.98 27.39-13.17 26.55-13.17C23.64-13.17 22.04-10.78 19.64-10.78C18.91-10.78 18.35-10.95 17.73-11.30C17.51-11.43 17.29-11.37 17.18-11.18C17.06-10.98 17.10-10.73 17.33-10.59C18.04-10.14 18.80-9.98 19.64-9.98ZM12.63-5.80C12.35-5.80 12.14-6.01 12.14-6.29L12.14-10.84C12.14-11.11 12.35-11.32 12.63-11.32C12.90-11.32 13.11-11.11 13.11-10.84L13.11-6.29C13.11-6.01 12.90-5.80 12.63-5.80ZM10.34-5.80C10.05-5.80 9.84-6.01 9.84-6.29L9.84-10.84C9.84-11.11 10.05-11.32 10.34-11.32C10.61-11.32 10.82-11.11 10.82-10.84L10.82-6.29C10.82-6.01 10.61-5.80 10.34-5.80ZM19.64-6.87C22.35-6.87 24.01-9.26 26.55-9.26C27.28-9.26 27.83-9.08 28.46-8.73C28.71-8.60 28.93-8.68 29.03-8.85C29.13-9.02 29.11-9.29 28.86-9.43C28.13-9.86 27.39-10.04 26.55-10.04C23.64-10.04 22.04-7.65 19.64-7.65C18.91-7.65 18.35-7.83 17.73-8.18C17.52-8.30 17.29-8.24 17.18-8.06C17.06-7.86 17.10-7.61 17.33-7.46C18.05-7.01 18.81-6.87 19.64-6.87ZM19.64-3.74C22.35-3.74 24-6.13 26.55-6.13C27.28-6.13 27.82-5.96 28.46-5.61C28.71-5.47 28.92-5.55 29.03-5.72C29.13-5.91 29.11-6.16 28.85-6.30C28.13-6.74 27.39-6.93 26.55-6.93C23.64-6.93 22.04-4.54 19.64-4.54C18.91-4.54 18.35-4.70 17.73-5.05C17.51-5.18 17.29-5.12 17.18-4.93C17.06-4.73 17.10-4.49 17.33-4.35C18.04-3.89 18.80-3.74 19.64-3.74ZM12.63 1.39C12.35 1.39 12.14 1.18 12.14 0.91L12.14-3.63C12.14-3.90 12.35-4.11 12.63-4.11C12.90-4.11 13.11-3.90 13.11-3.63L13.11 0.91C13.11 1.18 12.90 1.39 12.63 1.39ZM10.34 1.39C10.05 1.39 9.84 1.18 9.84 0.91L9.84-3.63C9.84-3.90 10.05-4.11 10.34-4.11C10.61-4.11 10.82-3.90 10.82-3.63L10.82 0.91C10.82 1.18 10.61 1.39 10.34 1.39Z" fill="currentColor"/>
</svg>