<svg xmlns="http://www.w3.org/2000/svg" viewBox="0 0 24 24" width="24" height="24">
  <title>hifispeaker.arrow.forward.fill</title>
  <path transform="matrix(0.8641350210970464, 0, 0, 0.8641350210970464, 3.6, 19.30632911392405)" d="M2.99-17.24L2.99-5.27L11.59-5.26L12.61-5.25L11.79-6.07L9.35-8.46C9.26-8.54 9.21-8.67 9.21-8.78C9.21-9 9.39-9.16 9.60-9.16C9.71-9.16 9.80-9.12 9.89-9.04L13.75-5.14C13.84-5.05 13.89-4.95 13.89-4.84C13.89-4.73 13.84-4.63 13.75-4.54L9.89-0.66C9.80-0.57 9.71-0.53 9.60-0.53C9.39-0.53 9.21-0.71 9.21-0.91C9.21-1.02 9.26-1.15 9.35-1.23L11.79-3.62L12.60-4.43L11.59-4.42L2.99-4.41L2.99 0.33C2.99 2.14 3.95 3.12 5.77 3.12L16.97 3.12C18.79 3.12 19.75 2.14 19.75 0.33L19.75-17.24C19.75-19.07 18.80-20.03 16.97-20.03L5.77-20.03C3.93-20.03 2.99-19.07 2.99-17.24ZM11.37-11.94C9.95-11.94 8.81-13.05 8.81-14.47C8.81-15.88 9.96-17.02 11.37-16.99C12.79-16.98 13.91-15.87 13.92-14.47C13.92-13.07 12.77-11.94 11.37-11.94ZM11.37-12.68C12.35-12.68 13.16-13.49 13.16-14.47C13.16-15.45 12.34-16.25 11.37-16.25C10.36-16.25 9.57-15.48 9.57-14.47C9.57-13.49 10.37-12.68 11.37-12.68ZM0.12-4.41L2.99-4.41L2.99-5.27L0.12-5.27C-0.12-5.27-0.30-5.07-0.30-4.84C-0.30-4.61-0.12-4.41 0.12-4.41Z" fill="currentColor"/>
</svg>