<svg xmlns="http://www.w3.org/2000/svg" viewBox="0 0 24 24" width="24" height="24">
  
  <path transform="matrix(0.8641350210970464, 0, 0, 0.8641350210970464, 2.182278481012658, 19.30632911392405)" d="M2.99-17.24L2.99 0.33C2.99 2.14 3.94 3.12 5.75 3.12L16.97 3.12C18.79 3.12 19.73 2.14 19.73 0.33L19.73-17.24C19.73-19.07 18.80-20.03 16.97-20.03L5.75-20.03C3.93-20.03 2.99-19.07 2.99-17.24ZM11.37-11.94C9.95-11.94 8.81-13.05 8.81-14.47C8.81-15.88 9.96-17.02 11.37-16.99C12.79-16.98 13.91-15.87 13.91-14.47C13.92-13.07 12.77-11.94 11.37-11.94ZM11.37-12.68C12.35-12.68 13.16-13.49 13.16-14.47C13.16-15.45 12.34-16.25 11.37-16.25C10.36-16.25 9.57-15.48 9.57-14.47C9.57-13.49 10.37-12.68 11.37-12.68ZM11.37 0.11C8.65 0.11 6.48-2.06 6.48-4.79C6.48-7.52 8.65-9.69 11.37-9.68C14.07-9.68 16.25-7.52 16.25-4.79C16.25-2.06 14.07 0.11 11.37 0.11ZM11.37-2.38C12.71-2.38 13.77-3.46 13.77-4.79C13.77-6.16 12.71-7.21 11.37-7.21C10.02-7.21 8.95-6.16 8.95-4.79C8.95-3.46 10.04-2.38 11.37-2.38Z" fill="currentColor"/>
</svg>