<svg xmlns="http://www.w3.org/2000/svg" viewBox="0 0 24 24" width="24" height="24">
  <title>homepod.mini.arrow.forward</title>
  <path transform="matrix(0.7694619777577397, 0, 0, 0.7694619777577397, 2.315599639314698, 18.465284039675385)" d="M14.29-15.34C17.85-15.34 20.02-15.97 20.02-16.99C20.02-18.02 17.85-18.66 14.29-18.66C10.73-18.66 8.57-18.02 8.57-16.99C8.57-15.97 10.73-15.34 14.29-15.34ZM14.29 1.85C18.90 1.85 20.41 1.20 21.89-0.16C24.18-2.27 25.58-5.33 25.58-8.70C25.58-11.74 24.48-14.54 21.96-16.48C21.66-16.75 21.21-16.71 21.04-16.42C20.43-15.09 18.06-14.30 14.29-14.30C10.51-14.30 8.14-15.09 7.55-16.42C7.36-16.71 6.93-16.75 6.62-16.48C4.25-14.68 3.14-12.11 3-9.01L3.87-9.01C4.00-11.63 4.89-13.85 7.02-15.61C7.88-14.20 10.52-13.42 14.29-13.42C18.06-13.42 20.71-14.20 21.56-15.61C23.86-13.70 24.71-11.25 24.71-8.70C24.71-5.67 23.48-2.81 21.29-0.80C19.82 0.57 18.25 0.98 14.29 0.98C10.32 0.98 8.77 0.57 7.28-0.80C6-1.98 5.06-3.45 4.51-5.05L3.57-5.05C4.20-3.16 5.27-1.46 6.69-0.16C8.16 1.20 9.68 1.85 14.29 1.85ZM-0.41-7.02C-0.41-6.79-0.21-6.59 0.01-6.59L10.43-6.61L11.71-6.62L10.89-5.82L8.45-3.42C8.36-3.34 8.31-3.22 8.31-3.11C8.31-2.91 8.48-2.72 8.71-2.72C8.81-2.72 8.91-2.77 8.99-2.85L12.86-6.73C12.95-6.82 12.98-6.93 12.98-7.03C12.98-7.14 12.95-7.24 12.86-7.34L8.99-11.23C8.91-11.32 8.81-11.36 8.71-11.36C8.48-11.36 8.31-11.19 8.31-10.97C8.31-10.86 8.36-10.73 8.45-10.65L10.89-8.26L11.73-7.44L10.43-7.45L0.01-7.45C-0.21-7.45-0.41-7.25-0.41-7.02Z" fill="currentColor"/>
</svg>