<svg xmlns="http://www.w3.org/2000/svg" viewBox="0 0 24 24" width="24" height="24">
  
  <path transform="matrix(0.7400982943047123, 0, 0, 0.7400982943047123, -0.21162185602775363, 18.263177462107713)" d="M3.42-4.31C3.67-4.31 3.86-4.51 3.86-4.75L3.86-5.43L5.82-5.43C5.25-4.88 4.89-4.09 4.89-3.25C4.89-1.61 6.22-0.26 7.86-0.26L14.51-0.26C16.15-0.26 17.51-1.61 17.51-3.25C17.51-3.98 17.21-4.68 16.76-5.20C17.04-5.16 17.32-5.10 17.60-5.04C21.22-4.22 23.63-2.03 27.36 1.29C28.35 2.23 30.01 2.03 30.01 0.30L30.01-17.24C30.01-18.95 28.35-19.15 27.36-18.22C22.54-13.90 19.71-11.51 14.09-11.51L3.86-11.51L3.86-12.19C3.86-12.43 3.67-12.62 3.42-12.62C3.19-12.62 2.99-12.43 2.99-12.19L2.99-4.75C2.99-4.51 3.19-4.31 3.42-4.31ZM27.88 0.59C22.91-3.84 19.90-6.29 14.09-6.29L3.86-6.29L3.86-10.63L14.09-10.63C19.90-10.63 22.91-13.08 27.88-17.52C28.51-18.07 29.14-18.07 29.14-17.24L29.14 0.30C29.14 1.15 28.51 1.15 27.88 0.59ZM5.75-3.25C5.75-4.39 6.70-5.37 7.86-5.37L14.51-5.37C15.67-5.37 16.63-4.39 16.63-3.25C16.63-2.09 15.67-1.13 14.51-1.13L7.86-1.13C6.70-1.13 5.75-2.09 5.75-3.25Z" fill="currentColor"/>
</svg>