<svg xmlns="http://www.w3.org/2000/svg" viewBox="0 0 24 24" width="24" height="24">
  
  <path transform="matrix(0.8703042665306816, 0, 0, 0.8703042665306816, 0.17440081591024992, 19.36868944416114)" d="M13.59 3.02C19.93 3.02 25.08-2.11 25.08-8.46C25.08-14.81 19.93-19.96 13.59-19.96C7.24-19.96 2.10-14.81 2.10-8.46C2.10-2.11 7.24 3.02 13.59 3.02ZM13.59 2.13C7.73 2.13 2.99-2.60 2.99-8.46C2.99-14.32 7.73-19.07 13.59-19.07C19.45-19.07 24.19-14.32 24.19-8.46C24.19-2.60 19.45 2.13 13.59 2.13ZM10.18-1.58L16.99-1.58C17.59-1.58 17.98-1.97 17.98-2.57L17.98-2.84C17.98-4.51 16.00-6.68 14.65-8.04C14.34-8.33 14.36-8.63 14.65-8.91C16.00-10.25 17.98-12.42 17.98-14.11L17.98-14.36C17.98-14.96 17.59-15.35 16.99-15.35L10.18-15.35C9.59-15.35 9.20-14.96 9.20-14.36L9.20-14.11C9.20-12.42 11.18-10.25 12.54-8.91C12.82-8.63 12.83-8.33 12.54-8.04C11.18-6.68 9.20-4.51 9.20-2.84L9.20-2.57C9.20-1.97 9.59-1.58 10.18-1.58ZM10.65-2.27C10.43-2.27 10.35-2.52 10.52-2.70L13.09-5.46C13.18-5.57 13.21-5.60 13.21-5.73L13.21-8.82C13.21-9 13.18-9.07 13.05-9.21C12.35-9.97 11.71-10.66 11.13-11.33C11.00-11.48 11.07-11.64 11.25-11.64L15.93-11.64C16.11-11.64 16.18-11.48 16.04-11.33C15.48-10.66 14.82-9.97 14.13-9.21C14.00-9.07 13.97-9 13.97-8.82L13.97-5.73C13.97-5.60 13.99-5.57 14.09-5.46L16.66-2.70C16.84-2.52 16.75-2.27 16.54-2.27Z" fill="currentColor"/>
</svg>