<svg xmlns="http://www.w3.org/2000/svg" viewBox="0 0 24 24" width="24" height="24">
  <title>hourglass.bottomhalf.filled</title>
  <path transform="matrix(0.9685962920923193, 0, 0, 0.9685962920923193, 2.726447219069239, 20.195232690124858)" d="M4.48 1.86L14.66 1.86C15.56 1.86 16.16 1.28 16.16 0.36L16.16-0.02C16.16-2.54 13.18-5.80 11.16-7.82C10.72-8.24 10.71-8.70 11.16-9.14C13.18-11.16 16.16-14.39 16.16-16.93L16.16-17.30C16.16-18.21 15.56-18.79 14.66-18.79L4.48-18.79C3.57-18.79 2.99-18.21 2.99-17.30L2.99-16.93C2.99-14.39 5.95-11.16 7.99-9.14C8.43-8.70 8.41-8.24 7.99-7.82C5.95-5.80 2.99-2.54 2.99-0.02L2.99 0.36C2.99 1.28 3.57 1.86 4.48 1.86ZM10.05-9.59C9.70-9.28 9.45-9.28 9.09-9.59C7.96-10.57 5.78-12.93 4.75-14.91C4.62-15.14 4.70-15.32 4.95-15.32L14.19-15.32C14.45-15.32 14.53-15.14 14.40-14.91C13.37-12.93 11.19-10.57 10.05-9.59Z" fill="currentColor"/>
</svg>