<svg xmlns="http://www.w3.org/2000/svg" viewBox="0 0 24 24" width="24" height="24">
  
  <path transform="matrix(0.9685962920923193, 0, 0, 0.9685962920923193, 2.726447219069239, 20.195232690124858)" d="M4.48 1.86L14.66 1.86C15.56 1.86 16.16 1.28 16.16 0.36L16.16-0.02C16.16-2.54 13.18-5.80 11.16-7.82C10.71-8.26 10.72-8.71 11.16-9.14C13.18-11.16 16.16-14.39 16.16-16.93L16.16-17.30C16.16-18.21 15.56-18.79 14.66-18.79L4.48-18.79C3.57-18.79 2.99-18.21 2.99-17.30L2.99-16.93C2.99-14.39 5.95-11.16 7.99-9.14C8.41-8.71 8.43-8.26 7.99-7.82C5.95-5.80 2.99-2.54 2.99-0.02L2.99 0.36C2.99 1.28 3.57 1.86 4.48 1.86ZM5.17 0.81C4.84 0.81 4.70 0.45 4.97 0.18L9.07-3.95C9.22-4.11 9.25-4.17 9.25-4.37L9.25-9.01C9.25-9.28 9.22-9.40 9-9.60C7.96-10.54 6.74-11.77 5.89-12.76C5.70-13.00 5.80-13.23 6.06-13.23L13.09-13.23C13.34-13.23 13.44-13.00 13.25-12.76C12.40-11.77 11.19-10.54 10.14-9.60C9.93-9.40 9.89-9.28 9.89-9.01L9.89-4.37C9.89-4.17 9.91-4.11 10.08-3.95L14.17 0.18C14.44 0.45 14.30 0.81 13.98 0.81Z" fill="currentColor"/>
</svg>