<svg xmlns="http://www.w3.org/2000/svg" viewBox="0 0 24 24" width="24" height="24">
  <title>icloud.circle</title>
  <path transform="matrix(0.8703042665306816, 0, 0, 0.8703042665306816, 0.17440081591024992, 19.36868944416114)" d="M13.59 3.02C19.93 3.02 25.08-2.11 25.08-8.46C25.08-14.81 19.93-19.96 13.59-19.96C7.24-19.96 2.10-14.81 2.10-8.46C2.10-2.11 7.24 3.02 13.59 3.02ZM13.59 2.13C7.73 2.13 2.99-2.60 2.99-8.46C2.99-14.32 7.73-19.07 13.59-19.07C19.45-19.07 24.19-14.32 24.19-8.46C24.19-2.60 19.45 2.13 13.59 2.13ZM9.29-4.27L18.48-4.27C19.95-4.27 20.92-5.29 20.92-6.62C20.92-7.85 20.06-8.81 18.96-8.95C19.00-9.14 19.01-9.40 19.01-9.59C19.01-11.94 17.25-13.80 14.70-13.80C13.22-13.80 11.87-13.11 11.12-11.89C10.92-11.96 10.62-12 10.42-12C9.21-12 8.26-11.13 8.24-9.89C7.16-9.52 6.27-8.46 6.27-7.13C6.27-5.45 7.46-4.27 9.29-4.27Z" fill="currentColor"/>
</svg>