<svg xmlns="http://www.w3.org/2000/svg" viewBox="0 0 24 24" width="24" height="24">
  <title>indianrupeesign.square.fill</title>
  <path transform="matrix(0.9642184557438794, 0, 0, 0.9642184557438794, -0.8813559322033897, 20.15819209039548)" d="M6.15 1.91L20.58 1.91C22.65 1.91 23.73 0.81 23.73-1.24L23.73-15.68C23.73-17.73 22.65-18.83 20.58-18.83L6.15-18.83C4.08-18.83 2.99-17.75 2.99-15.68L2.99-1.24C2.99 0.83 4.08 1.91 6.15 1.91ZM12.01-7.76L11.04-7.76L15.12-3.98C15.21-3.89 15.30-3.80 15.30-3.66C15.30-3.48 15.16-3.29 14.93-3.29C14.77-3.29 14.67-3.38 14.53-3.49L10.16-7.54C10.00-7.69 9.90-7.83 9.90-8.03L9.90-8.04C9.90-8.30 10.08-8.46 10.35-8.46L12.06-8.46C13.44-8.46 14.55-8.95 14.68-10.34L10.15-10.34C10.01-10.34 9.88-10.45 9.88-10.59C9.88-10.73 10.01-10.85 10.15-10.85L14.70-10.85C14.57-12.18 13.56-12.76 12.23-12.76L10.18-12.76C10.00-12.76 9.89-12.89 9.89-13.08L9.89-13.14C9.89-13.32 10.00-13.45 10.18-13.45L16.51-13.45C16.66-13.45 16.78-13.35 16.78-13.18C16.78-13.04 16.66-12.93 16.51-12.93L14.37-12.93C15.13-12.46 15.47-11.65 15.53-10.85L16.51-10.85C16.66-10.85 16.78-10.73 16.78-10.59C16.78-10.45 16.66-10.34 16.51-10.34L15.50-10.34C15.33-8.48 13.79-7.76 12.01-7.76Z" fill="currentColor"/>
</svg>