<svg xmlns="http://www.w3.org/2000/svg" viewBox="0 0 24 24" width="24" height="24">
  <title>info.windshield</title>
  <path transform="matrix(0.6075728852053016, 0, 0, 0.6075728852053016, 0.7254883157508372, 17.179755112294075)" d="M18.56-2.18C21.18-2.18 23.78-1.54 25.91-0.53C26.40-0.29 26.94-0.38 27.28-0.80L34.71-10.41C35.20-11.05 35.09-11.75 34.45-12.22C31.00-14.75 24.60-16.65 18.56-16.65C12.52-16.65 6.12-14.75 2.66-12.22C2.03-11.75 1.91-11.05 2.40-10.41L9.83-0.80C10.17-0.38 10.71-0.29 11.20-0.53C13.34-1.54 15.94-2.18 18.56-2.18ZM18.56-3.05C16.08-3.05 13.45-2.43 11.03-1.42C10.75-1.31 10.58-1.28 10.34-1.59L3.25-10.73C3.01-11.05 3.07-11.38 3.39-11.60C7.27-14.17 13.08-15.77 18.56-15.77C24.04-15.77 29.85-14.17 33.73-11.60C34.04-11.38 34.10-11.05 33.87-10.73L26.78-1.59C26.53-1.28 26.37-1.31 26.09-1.42C23.66-2.43 21.04-3.05 18.56-3.05ZM18.35-12.86C18.77-12.86 19.14-13.20 19.14-13.62C19.14-14.04 18.77-14.39 18.35-14.39C17.94-14.39 17.58-14.04 17.58-13.62C17.58-13.20 17.94-12.86 18.35-12.86ZM16.86-5.12L20.24-5.12C20.47-5.12 20.63-5.29 20.63-5.51C20.63-5.72 20.48-5.91 20.24-5.91L18.96-5.91L18.96-10.96C18.96-11.18 18.80-11.37 18.55-11.37L16.92-11.37C16.69-11.37 16.54-11.19 16.54-10.99C16.54-10.77 16.69-10.59 16.92-10.59L18.15-10.59L18.15-5.91L16.86-5.91C16.62-5.91 16.46-5.72 16.46-5.51C16.46-5.29 16.63-5.12 16.86-5.12Z" fill="currentColor"/>
</svg>