<svg xmlns="http://www.w3.org/2000/svg" viewBox="0 0 24 24" width="24" height="24">
  <title>inset.filled.square</title>
  <path transform="matrix(0.9642184557438794, 0, 0, 0.9642184557438794, -0.8813559322033897, 20.15819209039548)" d="M6.15 1.91L20.58 1.91C22.65 1.91 23.73 0.81 23.73-1.24L23.73-15.68C23.73-17.73 22.65-18.83 20.58-18.83L6.15-18.83C4.08-18.83 2.99-17.75 2.99-15.68L2.99-1.24C2.99 0.83 4.08 1.91 6.15 1.91ZM6.18 1.04C4.65 1.04 3.86 0.25 3.86-1.28L3.86-15.63C3.86-17.17 4.65-17.96 6.18-17.96L20.54-17.96C22.02-17.96 22.86-17.17 22.86-15.63L22.86-1.28C22.86 0.25 22.02 1.04 20.54 1.04ZM6.67-0.01L20.06-0.01C21.30-0.01 21.82-0.53 21.82-1.77L21.82-15.15C21.82-16.39 21.30-16.92 20.06-16.92L6.67-16.92C5.43-16.92 4.91-16.39 4.91-15.15L4.91-1.77C4.91-0.53 5.43-0.01 6.67-0.01Z" fill="currentColor"/>
</svg>