<svg xmlns="http://www.w3.org/2000/svg" viewBox="0 0 24 24" width="24" height="24">
  <title>iphone.gen1.circle.fill</title>
  <path transform="matrix(0.8703042665306816, 0, 0, 0.8703042665306816, 0.17440081591024992, 19.34829168791433)" d="M13.59 3.05C19.91 3.05 25.08-2.12 25.08-8.45C25.08-14.78 19.91-19.93 13.59-19.93C7.27-19.93 2.10-14.78 2.10-8.45C2.10-2.12 7.27 3.05 13.59 3.05ZM9.21-2.70L9.21-14.19C9.21-15.45 9.88-16.14 11.16-16.14L16.02-16.14C17.30-16.14 17.98-15.45 17.98-14.19L17.98-2.70C17.98-1.44 17.30-0.75 16.02-0.75L11.16-0.75C9.88-0.75 9.21-1.44 9.21-2.70ZM12.35-14.94C12.35-14.79 12.49-14.65 12.66-14.65L14.53-14.65C14.70-14.65 14.82-14.79 14.82-14.94C14.82-15.12 14.70-15.25 14.53-15.25L12.66-15.25C12.49-15.25 12.35-15.12 12.35-14.94ZM9.93-3.06L17.25-3.06L17.25-13.82L9.93-13.82ZM13.59-1.48C13.89-1.48 14.12-1.72 14.12-2.02C14.12-2.31 13.89-2.54 13.59-2.54C13.31-2.54 13.05-2.31 13.05-2.02C13.05-1.72 13.31-1.48 13.59-1.48Z" fill="currentColor"/>
</svg>