<svg xmlns="http://www.w3.org/2000/svg" viewBox="0 0 24 24" width="24" height="24">
  <title>iphone.gen1.motion</title>
  <path transform="matrix(0.8615177519771159, 0, 0, 0.8615177519771159, 0.5461887935386174, 19.28419989904089)" d="M10.37 0.32C10.37 2.14 11.37 3.15 13.23 3.15L20.75 3.15C22.61 3.15 23.60 2.14 23.60 0.32L23.60-17.23C23.60-19.07 22.61-20.06 20.75-20.06L13.23-20.06C11.37-20.06 10.37-19.07 10.37-17.23ZM2.99 0.30C2.99 1.82 3.70 2.80 4.99 3.05L5.12 3.06C4.27 2.57 3.80 1.58 3.80 0.35L3.80-17.27C3.80-18.50 4.27-19.48 5.12-19.98L4.99-19.97C3.70-19.71 2.99-18.74 2.99-17.23ZM6.67 0.30C6.67 1.82 7.38 2.80 8.67 3.05L8.80 3.06C7.93 2.57 7.48 1.58 7.48 0.35L7.48-17.27C7.48-18.50 7.93-19.48 8.80-19.98L8.67-19.97C7.38-19.71 6.67-18.74 6.67-17.23ZM15.27-18.33C15.27-18.52 15.41-18.66 15.60-18.66L18.38-18.66C18.56-18.66 18.71-18.52 18.71-18.33C18.71-18.14 18.56-18 18.38-18L15.60-18C15.41-18 15.27-18.14 15.27-18.33ZM11.24-0.22L11.24-16.69L22.73-16.69L22.73-0.22ZM17.00 2.16C16.54 2.16 16.14 1.77 16.14 1.30C16.14 0.82 16.54 0.45 17.00 0.45C17.47 0.45 17.85 0.82 17.85 1.30C17.85 1.77 17.47 2.16 17.00 2.16Z" fill="currentColor"/>
</svg>