<svg xmlns="http://www.w3.org/2000/svg" viewBox="0 0 24 24" width="24" height="24">
  
  <path transform="matrix(0.8615177519771159, 0, 0, 0.8615177519771159, -0.5744573447753658, 19.29429581019687)" d="M23.37-1.85C25.20-1.85 26.20-2.85 26.20-4.70L26.20-12.22C26.20-14.07 25.20-15.08 23.37-15.08L5.82-15.08C3.98-15.08 2.99-14.07 2.99-12.22L2.99-4.70C2.99-2.85 3.98-1.85 5.82-1.85ZM22.83-2.72L6.36-2.72L6.36-14.21L22.83-14.21ZM25.21-8.47C25.21-8.00 24.82-7.62 24.35-7.62C23.88-7.62 23.50-8.00 23.50-8.47C23.50-8.95 23.88-9.33 24.35-9.33C24.82-9.33 25.21-8.95 25.21-8.47ZM5.26-8.47C5.26-8.14 4.99-7.89 4.66-7.89C4.35-7.89 4.09-8.14 4.09-8.47C4.09-8.80 4.35-9.06 4.66-9.06C4.99-9.06 5.26-8.80 5.26-8.47Z" fill="currentColor"/>
</svg>