<svg xmlns="http://www.w3.org/2000/svg" viewBox="0 0 24 24" width="24" height="24">
  
  <path transform="matrix(0.8703042665306816, 0, 0, 0.8703042665306816, 0.17440081591024992, 19.36868944416114)" d="M13.59 3.02C19.93 3.02 25.08-2.11 25.08-8.46C25.08-14.81 19.93-19.96 13.59-19.96C7.24-19.96 2.10-14.81 2.10-8.46C2.10-2.11 7.24 3.02 13.59 3.02ZM13.59 2.13C7.73 2.13 2.99-2.60 2.99-8.46C2.99-14.32 7.73-19.07 13.59-19.07C19.45-19.07 24.19-14.32 24.19-8.46C24.19-2.60 19.45 2.13 13.59 2.13ZM13.16-3.16C15-3.16 16.09-4.36 16.09-6.21L16.09-13.29C16.09-13.58 15.93-13.76 15.64-13.76C15.38-13.76 15.20-13.57 15.20-13.29L15.20-6.22C15.20-4.83 14.43-3.96 13.20-3.96C12.04-3.96 11.16-4.66 11.00-5.70C10.93-5.94 10.79-6.05 10.58-6.05C10.32-6.05 10.17-5.88 10.17-5.60C10.17-5.51 10.18-5.38 10.21-5.25C10.46-4.05 11.65-3.16 13.16-3.16Z" fill="currentColor"/>
</svg>