<svg xmlns="http://www.w3.org/2000/svg" viewBox="0 0 24 24" width="24" height="24">
  
  <path transform="matrix(0.649350288007752, 0, 0, 0.649350288007752, 0.060578884169968594, 17.68312914587296)" d="M14.86-14.95C15.28-14.41 15.79-14.47 16.18-14.88L17.59-16.39C18.02-16.85 18-17.40 17.52-17.93L15.18-20.41C14.89-20.71 14.54-20.73 14.24-20.46L12.54-18.93C12.27-18.68 12.26-18.38 12.49-18.06ZM22.02-14.95L24.40-18.06C24.63-18.38 24.62-18.68 24.35-18.93L22.65-20.46C22.35-20.73 21.98-20.71 21.71-20.41L19.37-17.93C18.88-17.40 18.87-16.85 19.30-16.39L20.71-14.88C21.11-14.47 21.60-14.41 22.02-14.95ZM12.07 3.05L17.85 3.05L17.85-15.28L16.50-13.85C15.83-13.14 14.87-13.23 14.27-14.02L11.05-18.27L9.33-17.63C8.25-17.21 7.86-16.70 7.61-15.81L3.09 0.33C2.79 1.44 3.15 2.00 3.96 2.23L6.91 3.07C7.65 3.28 8.11 3.06 8.29 2.25L9.59-3.27L9.49 0.29C9.45 1.89 10.27 3.05 12.07 3.05ZM18.93 3.05L24.70 3.05C26.51 3.05 27.33 1.89 27.28 0.29L27.19-3.28L28.49 2.25C28.66 3.06 29.12 3.28 29.86 3.07L32.81 2.23C33.62 2.00 33.98 1.44 33.68 0.33L29.17-15.81C28.91-16.70 28.51-17.23 27.45-17.63L25.76-18.26L22.54-14.02C21.94-13.25 20.96-13.15 20.30-13.85L18.93-15.30ZM24.43-2.10L21.14-4.49C20.93-4.64 20.87-4.92 21.04-5.12C21.18-5.33 21.48-5.38 21.67-5.24L24.96-2.86C25.16-2.71 25.21-2.41 25.08-2.21C24.94-2.00 24.63-1.96 24.43-2.10ZM12.35-2.10C12.15-1.96 11.86-2.00 11.72-2.21C11.59-2.41 11.63-2.71 11.82-2.86L15.12-5.24C15.32-5.38 15.61-5.33 15.75-5.12C15.91-4.92 15.87-4.64 15.66-4.49Z" fill="currentColor"/>
</svg>