<svg xmlns="http://www.w3.org/2000/svg" viewBox="0 0 24 24" width="24" height="24">
  
  <path transform="matrix(1.1531531531531531, 0, 0, 1.1531531531531531, 1.7297297297297294, 21.85135135135135)" d="M3.45 0.13C3.73 0.13 3.91-0.05 3.91-0.34L3.91-6.25L6.42-8.88L13.90-0.15C14.09 0.07 14.18 0.13 14.38 0.13C14.64 0.13 14.82-0.05 14.82-0.30C14.82-0.45 14.74-0.57 14.64-0.70L7.09-9.54L13.86-16.48C13.97-16.58 14.03-16.69 14.03-16.82C14.03-17.03 13.84-17.21 13.61-17.21C13.44-17.21 13.35-17.16 13.20-17.00L3.98-7.50L3.91-7.50L3.91-16.73C3.91-17.03 3.73-17.21 3.45-17.21C3.16-17.21 2.99-17.03 2.99-16.73L2.99-0.34C2.99-0.05 3.16 0.13 3.45 0.13Z" fill="currentColor"/>
</svg>