<svg xmlns="http://www.w3.org/2000/svg" viewBox="0 0 24 24" width="24" height="24">
  <title>key.car.side.fill</title>
  <path transform="matrix(0.4997559785261103, 0, 0, 0.4997559785261103, 0.506588579795022, 16.234260614934115)" d="M6.16-2.12L6.96-2.12C6.90-2.45 6.86-2.78 6.86-3.13C6.86-5.63 8.82-7.58 11.31-7.58C13.80-7.58 15.76-5.63 15.76-3.13C15.76-2.78 15.71-2.45 15.66-2.12L30.33-2.12C30.27-2.45 30.22-2.78 30.22-3.13C30.22-5.63 32.19-7.58 34.68-7.58C37.17-7.58 39.13-5.63 39.13-3.13C39.13-2.78 39.09-2.45 39.02-2.12L39.83-2.12C41.96-2.12 43.01-3.21 43.01-5.45L43.01-8.68C43.01-10.63 42.14-11.67 40.08-12.38L38.19-13.02C35.30-15.30 32.65-17.27 28.32-17.27L26.86-17.27C22.43-17.27 20.31-16.80 17.61-15.12L12.88-12.14L7.49-11.47C4.71-11.13 2.99-9.45 2.99-7.08L2.99-5.43C2.99-3.20 4.03-2.12 6.16-2.12ZM29.92-9.63C29.92-7.78 28.42-6.29 26.59-6.29C25.11-6.29 23.91-7.24 23.26-8.95L21.71-7.43C21.62-7.35 21.53-7.34 21.47-7.41L19.96-8.93L18.84-7.79C18.76-7.72 18.67-7.72 18.59-7.79L16.91-9.49C16.82-9.59 16.82-9.68 16.91-9.77L17.78-10.65C17.87-10.75 17.98-10.77 18.07-10.77L23.44-10.77C23.91-12.11 25.16-12.97 26.59-12.97C28.43-12.97 29.92-11.50 29.92-9.63ZM28.28-9.63C28.28-10.21 27.82-10.65 27.26-10.65C26.70-10.65 26.24-10.20 26.24-9.63C26.24-9.07 26.70-8.63 27.26-8.63C27.82-8.63 28.28-9.07 28.28-9.63ZM11.31 0.33C13.25 0.33 14.77-1.20 14.77-3.13C14.77-5.07 13.25-6.59 11.31-6.59C9.38-6.59 7.85-5.07 7.85-3.13C7.85-1.20 9.38 0.33 11.31 0.33ZM34.68 0.33C36.62 0.33 38.13-1.20 38.13-3.13C38.13-5.07 36.62-6.59 34.68-6.59C32.74-6.59 31.22-5.07 31.22-3.13C31.22-1.20 32.74 0.33 34.68 0.33Z" fill="currentColor"/>
</svg>