<svg xmlns="http://www.w3.org/2000/svg" viewBox="0 0 24 24" width="24" height="24">
  <title>key.horizontal</title>
  <path transform="matrix(0.7162559145524882, 0, 0, 0.7162559145524882, -0.1423801084702787, 18.064393339033273)" d="M3.14-8.81C2.95-8.60 2.93-8.32 3.14-8.10L6.75-4.50C6.96-4.28 7.27-4.28 7.46-4.50L9.73-6.76L12.82-3.66C13.01-3.46 13.32-3.47 13.55-3.69L16.68-6.80C18.05-3.25 20.64-1.28 23.74-1.28C27.71-1.28 30.91-4.48 30.91-8.46C30.91-12.46 27.73-15.66 23.74-15.66C20.72-15.66 18.06-13.83 17.00-11.00L5.68-11.00C5.46-11.00 5.20-10.92 4.99-10.71ZM4.03-8.46L5.68-10.11L17.64-10.11C18.40-12.88 20.85-14.78 23.74-14.78C27.22-14.78 30.04-11.96 30.04-8.46C30.04-4.97 27.23-2.16 23.74-2.16C20.87-2.16 18.40-4.07 17.37-7.63L16.23-7.63L13.17-4.57L10.20-7.58L9.29-7.58L7.13-5.40ZM24.38-8.46C24.38-7.49 25.15-6.70 26.13-6.70C27.11-6.70 27.89-7.49 27.89-8.46C27.89-9.45 27.11-10.22 26.13-10.22C25.15-10.22 24.38-9.45 24.38-8.46Z" fill="currentColor"/>
</svg>