<svg xmlns="http://www.w3.org/2000/svg" viewBox="0 0 24 24" width="24" height="24">
  <title>key.slash</title>
  <path transform="matrix(0.7160307193135413, 0, 0, 0.7160307193135413, 5.072704771191077, 18.102300199562723)" d="M10.18-21.61C13.68-21.61 16.49-18.81 16.49-15.32C16.49-12.48 14.64-10.03 11.14-8.96L11.86-8.25C15.40-9.62 17.37-12.21 17.37-15.32C17.37-19.29 14.17-22.49 10.18-22.49C6.74-22.49 3.89-20.11 3.20-16.91L3.94-16.17C4.35-19.24 6.96-21.61 10.18-21.61ZM10.18-15.94C11.16-15.94 11.94-16.72 11.94-17.71C11.94-18.68 11.16-19.46 10.18-19.46C9.20-19.46 8.43-18.68 8.43-17.71C8.43-16.72 9.20-15.94 10.18-15.94ZM-0.79-17.80L19.51 2.50C19.69 2.66 19.96 2.66 20.12 2.50C20.31 2.31 20.30 2.05 20.12 1.88L-0.18-18.41C-0.33-18.57-0.60-18.60-0.79-18.41C-0.95-18.25-0.95-17.96-0.79-17.80ZM10.54 5.29L14.14 1.68C14.34 1.48 14.33 1.23 14.16 1.05L11.06-2.03L11.06-0.86L13.24 1.30L10.18 4.39L8.53 2.74L8.53-6.74L7.64-7.62L7.64 2.74C7.64 2.96 7.71 3.22 7.93 3.43L9.83 5.29C10.04 5.48 10.32 5.51 10.54 5.29Z" fill="currentColor"/>
</svg>