<svg xmlns="http://www.w3.org/2000/svg" viewBox="0 0 24 24" width="24" height="24">
  <title>kipsign.square</title>
  <path transform="matrix(0.9642184557438794, 0, 0, 0.9642184557438794, -0.8813559322033897, 20.15819209039548)" d="M6.15 1.91L20.58 1.91C22.65 1.91 23.73 0.81 23.73-1.24L23.73-15.68C23.73-17.73 22.65-18.83 20.58-18.83L6.15-18.83C4.08-18.83 2.99-17.75 2.99-15.68L2.99-1.24C2.99 0.83 4.08 1.91 6.15 1.91ZM6.18 1.04C4.65 1.04 3.86 0.25 3.86-1.28L3.86-15.63C3.86-17.17 4.65-17.96 6.18-17.96L20.54-17.96C22.02-17.96 22.86-17.17 22.86-15.63L22.86-1.28C22.86 0.25 22.02 1.04 20.54 1.04ZM10.93-3.34C11.17-3.34 11.33-3.50 11.33-3.75L11.33-8.19L12.19-8.19L16.07-3.53C16.17-3.40 16.28-3.34 16.42-3.34C16.64-3.34 16.78-3.50 16.78-3.68C16.78-3.77 16.76-3.87 16.66-3.97L13.07-8.19L16.78-8.19C16.92-8.19 17.04-8.32 17.04-8.46C17.04-8.60 16.92-8.72 16.78-8.72L13.07-8.72L16.68-12.90C16.75-12.98 16.78-13.08 16.78-13.16C16.78-13.38 16.63-13.52 16.42-13.52C16.27-13.52 16.17-13.44 16.08-13.32L12.20-8.72L11.33-8.72L11.33-13.11C11.33-13.36 11.17-13.52 10.93-13.52C10.69-13.52 10.54-13.36 10.54-13.11L10.54-8.72L9.63-8.72C9.47-8.72 9.36-8.61 9.36-8.45C9.36-8.30 9.47-8.19 9.63-8.19L10.54-8.19L10.54-3.75C10.54-3.50 10.69-3.34 10.93-3.34Z" fill="currentColor"/>
</svg>