<svg xmlns="http://www.w3.org/2000/svg" viewBox="0 0 24 24" width="24" height="24">
  <title>kipsign.ring</title>
  <path transform="matrix(0.7882986913010007, 0, 0, 0.7882986913010007, 0.3510392609699784, 18.665127020785217)" d="M14.78 4.23C21.77 4.23 27.46-1.45 27.46-8.46C27.46-15.46 21.77-21.14 14.78-21.14C7.78-21.14 2.10-15.46 2.10-8.46C2.10-1.45 7.78 4.23 14.78 4.23ZM14.78 0.21C9.98 0.21 6.09-3.67 6.09-8.46C6.09-13.25 9.98-17.14 14.78-17.14C19.57-17.14 23.45-13.25 23.45-8.46C23.45-3.67 19.57 0.21 14.78 0.21ZM12.34-3.34C12.57-3.34 12.74-3.50 12.74-3.75L12.74-8.19L13.61-8.19L17.48-3.53C17.59-3.40 17.70-3.34 17.84-3.34C18.06-3.34 18.19-3.50 18.19-3.68C18.19-3.77 18.16-3.87 18.07-3.97L14.47-8.19L18.19-8.19C18.33-8.19 18.45-8.32 18.45-8.46C18.45-8.60 18.33-8.72 18.19-8.72L14.47-8.72L18.08-12.90C18.15-12.98 18.19-13.08 18.19-13.16C18.19-13.38 18.04-13.52 17.84-13.52C17.67-13.52 17.59-13.44 17.48-13.32L13.61-8.72L12.74-8.72L12.74-13.11C12.74-13.36 12.57-13.52 12.34-13.52C12.11-13.52 11.94-13.36 11.94-13.11L11.94-8.72L11.04-8.72C10.89-8.72 10.78-8.61 10.78-8.45C10.78-8.30 10.89-8.19 11.04-8.19L11.94-8.19L11.94-3.75C11.94-3.50 12.11-3.34 12.34-3.34Z" fill="currentColor"/>
</svg>