<svg xmlns="http://www.w3.org/2000/svg" viewBox="0 0 24 24" width="24" height="24">
  <title>kipsign.gauge.chart.leftthird.topthird.rightthird</title>
  <path transform="matrix(0.7384970431270734, 0, 0, 0.7384970431270734, 0.4508870618779748, 18.285022717438338)" d="M15.63-15.15C17.74-15.15 19.66-14.44 21.19-13.21C21.43-13.02 21.74-13.04 21.96-13.27L24.38-15.68C24.64-15.94 24.64-16.34 24.36-16.57C22.01-18.56 18.95-19.77 15.63-19.77C12.33-19.77 9.27-18.56 6.91-16.57C6.63-16.34 6.63-15.94 6.89-15.68L9.32-13.27C9.54-13.04 9.87-13.03 10.11-13.24C11.64-14.44 13.56-15.15 15.63-15.15ZM2.10-6.23C2.10-2.91 3.30 0.16 5.31 2.52C5.55 2.81 5.95 2.82 6.21 2.55L8.63 0.11C8.84-0.12 8.86-0.42 8.66-0.67C7.44-2.20 6.71-4.14 6.71-6.23C6.71-8.32 7.43-10.24 8.64-11.77C8.84-12.02 8.82-12.34 8.60-12.57L6.20-14.98C5.94-15.22 5.54-15.25 5.30-14.95C3.29-12.60 2.10-9.55 2.10-6.23ZM29.18-6.23C29.18-9.55 27.98-12.60 25.98-14.95C25.73-15.25 25.34-15.22 25.08-14.98L22.68-12.57C22.45-12.34 22.44-12.02 22.64-11.77C23.85-10.24 24.56-8.32 24.56-6.23C24.56-4.14 23.84-2.20 22.62-0.67C22.42-0.42 22.44-0.12 22.65 0.11L25.07 2.55C25.32 2.82 25.72 2.81 25.97 2.52C27.97 0.16 29.18-2.91 29.18-6.23ZM13.21-0.95C13.43-0.95 13.59-1.11 13.59-1.36L13.59-5.81L14.46-5.81L18.34-1.15C18.45-1.02 18.55-0.95 18.69-0.95C18.91-0.95 19.05-1.13 19.05-1.29C19.05-1.39 19.02-1.48 18.93-1.59L15.33-5.81L19.04-5.81C19.18-5.81 19.31-5.93 19.31-6.07C19.31-6.21 19.18-6.33 19.04-6.33L15.34-6.33L18.94-10.51C19.01-10.61 19.04-10.70 19.04-10.78C19.04-11.00 18.89-11.14 18.69-11.14C18.54-11.14 18.45-11.06 18.34-10.93L14.46-6.33L13.59-6.33L13.59-10.73C13.59-10.98 13.43-11.14 13.21-11.14C12.96-11.14 12.80-10.98 12.80-10.73L12.80-6.33L11.89-6.33C11.74-6.33 11.64-6.23 11.64-6.07C11.64-5.92 11.74-5.81 11.89-5.81L12.80-5.81L12.80-1.36C12.80-1.11 12.96-0.95 13.21-0.95Z" fill="currentColor"/>
</svg>