<svg xmlns="http://www.w3.org/2000/svg" viewBox="0 0 24 24" width="24" height="24">
  <title>ladybug.circle.fill</title>
  <path transform="matrix(0.8703042665306816, 0, 0, 0.8703042665306816, 0.17440081591024992, 19.34829168791433)" d="M13.59 3.05C19.91 3.05 25.08-2.12 25.08-8.45C25.08-14.78 19.91-19.93 13.59-19.93C7.27-19.93 2.10-14.78 2.10-8.45C2.10-2.12 7.27 3.05 13.59 3.05ZM13.58-11.24C12.47-11.24 11.38-11.45 10.68-11.79C10.29-11.99 10.17-12.20 10.17-12.53C10.17-13.44 10.62-14.20 11.38-14.71L11.43-15.16C11.46-15.40 11.40-15.52 11.14-15.64L10.35-16.04C9.96-16.21 10.21-16.83 10.62-16.63L11.43-16.21C11.91-15.96 12.15-15.63 12.07-15.16L12.05-15.05C12.49-15.21 13.02-15.32 13.58-15.32C14.16-15.32 14.67-15.21 15.13-15.05L15.11-15.16C15.01-15.64 15.28-15.97 15.75-16.21L16.56-16.63C16.96-16.83 17.20-16.21 16.82-16.04L16.03-15.64C15.76-15.52 15.71-15.40 15.75-15.16L15.80-14.71C16.56-14.20 17.00-13.44 17.00-12.53C17.00-12.20 16.88-11.99 16.50-11.79C15.79-11.45 14.71-11.24 13.58-11.24ZM13.58-9.91C13.46-9.91 13.36-9.82 13.36-9.68L13.36-1.76C13.36-1.48 13.20-1.30 12.76-1.34C11.29-1.46 10.04-2.14 9.19-3.23L8.03-2.31C7.84-2.18 7.63-2.19 7.51-2.34C7.38-2.51 7.41-2.71 7.58-2.84L8.79-3.82C8.24-4.75 7.92-5.89 7.92-7.21L6.56-7.21C6.34-7.21 6.21-7.34 6.21-7.55C6.21-7.77 6.34-7.89 6.56-7.89L7.96-7.89C8.05-8.94 8.38-9.98 8.86-10.77L7.66-11.73C7.50-11.85 7.48-12.07 7.59-12.25C7.72-12.41 7.93-12.41 8.11-12.27L9.28-11.33C9.50-11.57 9.75-11.63 9.94-11.52C11.14-10.83 12.42-10.65 13.58-10.65C14.77-10.65 16.02-10.83 17.25-11.52C17.43-11.61 17.66-11.55 17.91-11.33L19.07-12.27C19.24-12.41 19.44-12.42 19.58-12.25C19.69-12.07 19.66-11.86 19.51-11.73L18.33-10.77C18.80-9.98 19.13-8.94 19.22-7.89L20.63-7.89C20.84-7.89 20.98-7.77 20.98-7.55C20.98-7.34 20.82-7.21 20.61-7.21L19.25-7.21C19.24-5.89 18.93-4.75 18.39-3.82L19.59-2.84C19.77-2.71 19.79-2.51 19.65-2.34C19.55-2.19 19.32-2.18 19.15-2.31L17.99-3.23C17.13-2.14 15.89-1.46 14.40-1.34C13.97-1.30 13.82-1.48 13.82-1.76L13.82-9.68C13.82-9.82 13.71-9.91 13.58-9.91ZM9.87-8.39C9.87-7.85 10.35-7.39 10.89-7.39C11.44-7.39 11.89-7.85 11.89-8.39C11.89-8.94 11.44-9.40 10.89-9.40C10.35-9.40 9.87-8.95 9.87-8.39ZM17.32-8.39C17.32-8.95 16.84-9.40 16.30-9.40C15.75-9.40 15.29-8.94 15.29-8.39C15.29-7.85 15.75-7.39 16.30-7.39C16.84-7.39 17.32-7.85 17.32-8.39ZM9.95-5.07C9.95-4.44 10.46-3.93 11.09-3.93C11.71-3.93 12.25-4.44 12.25-5.07C12.25-5.68 11.71-6.22 11.09-6.22C10.46-6.22 9.95-5.68 9.95-5.07ZM17.24-5.07C17.24-5.68 16.72-6.22 16.10-6.22C15.48-6.22 14.94-5.68 14.94-5.07C14.94-4.44 15.48-3.93 16.10-3.93C16.72-3.93 17.24-4.44 17.24-5.07Z" fill="currentColor"/>
</svg>