<svg xmlns="http://www.w3.org/2000/svg" viewBox="0 0 24 24" width="24" height="24">
  <title>lamp.floor</title>
  <path transform="matrix(0.7639510593852581, 0, 0, 0.7639510593852581, 3.682576026774038, 18.544315129811995)" d="M6.29 4.52L15.48 4.52C15.71 4.52 15.87 4.36 15.87 4.14C15.87 3.69 15.54 3.33 14.92 3.33L11.32 3.33L11.32-6.98C13.59-7.00 15.68-7.13 17.19-7.35C18.54-7.55 19.05-8.47 18.66-9.82L15.79-19.69C15.40-21 14.47-21.66 13.13-21.66L8.65-21.66C7.30-21.66 6.38-21 5.99-19.69L3.12-9.82C2.72-8.47 3.25-7.55 4.58-7.35C6.09-7.13 8.18-7.00 10.45-6.98L10.45 3.33L6.86 3.33C6.23 3.33 5.91 3.69 5.91 4.14C5.91 4.36 6.06 4.52 6.29 4.52ZM10.89-7.83C8.80-7.83 6.93-7.93 4.79-8.18C4.01-8.26 3.74-8.82 3.98-9.71L6.79-19.46C7.04-20.37 7.70-20.82 8.65-20.82L13.13-20.82C14.07-20.82 14.74-20.37 14.99-19.46L17.79-9.71C18.05-8.82 17.77-8.26 16.98-8.18C14.85-7.93 12.97-7.83 10.89-7.83Z" fill="currentColor"/>
</svg>