<svg xmlns="http://www.w3.org/2000/svg" viewBox="0 0 24 24" width="24" height="24">
  
  <path transform="matrix(0.9642184557438794, 0, 0, 0.9642184557438794, -0.8813559322033897, 20.15819209039548)" d="M6.15 1.91L20.58 1.91C22.65 1.91 23.73 0.81 23.73-1.24L23.73-15.68C23.73-17.73 22.65-18.83 20.58-18.83L6.15-18.83C4.08-18.83 2.99-17.75 2.99-15.68L2.99-1.24C2.99 0.83 4.08 1.91 6.15 1.91ZM6.18 1.04C4.65 1.04 3.86 0.25 3.86-1.28L3.86-15.63C3.86-17.17 4.65-17.96 6.18-17.96L20.54-17.96C22.02-17.96 22.86-17.17 22.86-15.63L22.86-1.28C22.86 0.25 22.02 1.04 20.54 1.04ZM9.20-3.56L17.00-3.56C17.20-3.56 17.34-3.69 17.34-3.89C17.34-4.09 17.20-4.22 17.00-4.22L14.33-4.22C11.50-4.22 9.53-6.26 9.53-8.73C9.53-10.61 10.56-11.93 12.04-12.45L12.04-9.12C12.04-8.96 12.15-8.85 12.29-8.85C12.43-8.85 12.55-8.96 12.55-9.12L12.55-12.59C12.83-12.64 13.14-12.67 13.44-12.67C13.76-12.67 14.07-12.63 14.38-12.57L14.38-9.12C14.38-8.96 14.50-8.85 14.64-8.85C14.78-8.85 14.89-8.96 14.89-9.12L14.89-12.43C16.30-11.94 17.26-10.72 17.31-9.14C17.31-8.89 17.46-8.73 17.68-8.73C17.92-8.73 18.06-8.89 18.06-9.14C18.02-11.25 16.63-12.66 14.89-13.17L14.89-14.54C14.89-14.70 14.78-14.81 14.64-14.81C14.50-14.81 14.38-14.70 14.38-14.54L14.38-13.29C14.06-13.35 13.76-13.37 13.44-13.37C13.14-13.37 12.83-13.35 12.55-13.30L12.55-14.54C12.55-14.70 12.43-14.81 12.29-14.81C12.15-14.81 12.04-14.70 12.04-14.54L12.04-13.20C10.07-12.66 8.75-10.99 8.75-8.85C8.75-6.69 10.03-4.93 11.71-4.28L11.71-4.22L9.20-4.22C8.99-4.22 8.85-4.09 8.85-3.89C8.85-3.69 8.99-3.56 9.20-3.56Z" fill="currentColor"/>
</svg>