<svg xmlns="http://www.w3.org/2000/svg" viewBox="0 0 24 24" width="24" height="24">
  
  <path transform="matrix(0.8703042665306816, 0, 0, 0.8703042665306816, 0.17440081591024992, 19.36868944416114)" d="M13.59 3.02C19.91 3.02 25.08-2.13 25.08-8.46C25.08-14.79 19.91-19.96 13.59-19.96C7.27-19.96 2.10-14.79 2.10-8.46C2.10-2.13 7.27 3.02 13.59 3.02ZM7.97-13.22C7.99-13.44 8.23-13.49 8.39-13.30C9.07-12.43 10.14-12.22 11.26-12.22C12.05-12.22 12.93-12.35 13.76-12.35C16.38-12.35 18.15-11.16 18.15-8.54C18.15-8.26 18.13-7.99 18.11-7.80C18.09-7.65 17.93-7.61 17.80-7.71C15.29-9.90 13.07-8.47 11.23-10.27C11.06-10.43 10.84-10.27 10.95-10.09C12.18-7.79 15.52-9.08 17.80-6.88C18.35-6.35 19.32-5.03 19.32-4.21C19.32-3.74 19.05-3.41 18.66-3.41C18.48-3.41 18.29-3.49 18.22-3.74C17.85-4.97 17.65-5.55 17.13-6.21C16.55-5.24 15.26-4.59 13.75-4.59C10.20-4.59 7.83-7.32 7.83-11.43C7.83-11.87 7.90-12.60 7.97-13.22Z" fill="currentColor"/>
</svg>