<svg xmlns="http://www.w3.org/2000/svg" viewBox="0 0 24 24" width="24" height="24">
  
  <path transform="matrix(0.8703042665306816, 0, 0, 0.8703042665306816, 0.17440081591024992, 19.36868944416114)" d="M13.59 3.02C19.91 3.02 25.08-2.13 25.08-8.46C25.08-14.79 19.91-19.96 13.59-19.96C7.27-19.96 2.10-14.79 2.10-8.46C2.10-2.13 7.27 3.02 13.59 3.02ZM16.50-6.41C16.41-6.41 16.34-6.43 16.21-6.50L9.82-9.55C9.57-9.67 9.48-9.84 9.48-10.09C9.48-10.32 9.59-10.51 9.82-10.63L16.21-13.68C16.34-13.73 16.41-13.77 16.50-13.77C16.77-13.77 16.95-13.58 16.95-13.34C16.95-13.15 16.85-12.98 16.64-12.89L10.69-10.11L10.69-10.07L16.64-7.29C16.85-7.20 16.95-7.03 16.95-6.84C16.95-6.60 16.77-6.41 16.50-6.41ZM9.45-3.47C9.45-3.70 9.63-3.89 9.88-3.89L16.77-3.89C17.00-3.89 17.19-3.70 17.19-3.47C17.19-3.25 17.00-3.05 16.77-3.05L9.88-3.05C9.63-3.05 9.45-3.25 9.45-3.47Z" fill="currentColor"/>
</svg>