<svg xmlns="http://www.w3.org/2000/svg" viewBox="0 0 24 24" width="24" height="24">
  
  <path transform="matrix(0.7956487956487956, 0, 0, 0.7956487956487956, 0.3310023310023309, 18.708624708624708)" d="M14.66-13.10C15.27-13.10 15.75-13.58 15.75-14.19C15.75-14.79 15.27-15.27 14.66-15.27C14.06-15.27 13.58-14.79 13.58-14.19C13.58-13.58 14.06-13.10 14.66-13.10ZM6.01-9.48C6.62-9.48 7.10-9.96 7.10-10.56C7.10-11.16 6.62-11.65 6.01-11.65C5.41-11.65 4.93-11.16 4.93-10.56C4.93-9.96 5.41-9.48 6.01-9.48ZM23.31-9.48C23.92-9.48 24.40-9.96 24.40-10.56C24.40-11.16 23.92-11.65 23.31-11.65C22.71-11.65 22.23-11.16 22.23-10.56C22.23-9.96 22.71-9.48 23.31-9.48ZM3.18-1.59C3.79-1.59 4.27-2.09 4.27-2.68C4.27-3.28 3.79-3.76 3.18-3.76C2.58-3.76 2.10-3.28 2.10-2.68C2.10-2.09 2.58-1.59 3.18-1.59ZM26.14-1.59C26.74-1.59 27.23-2.09 27.23-2.68C27.23-3.28 26.74-3.76 26.14-3.76C25.55-3.76 25.07-3.28 25.07-2.68C25.07-2.09 25.55-1.59 26.14-1.59ZM9.91-1.82L19.42-1.82C19.65-1.82 19.88-2.04 19.88-2.27C19.88-2.51 19.65-2.73 19.42-2.73L9.91-2.73C9.67-2.73 9.45-2.51 9.45-2.27C9.45-2.04 9.67-1.82 9.91-1.82Z" fill="currentColor"/>
</svg>