<svg xmlns="http://www.w3.org/2000/svg" viewBox="0 0 24 24" width="24" height="24">
  
  <path transform="matrix(0.8703042665306816, 0, 0, 0.8703042665306816, 0.17440081591024992, 19.36868944416114)" d="M13.59 3.02C19.91 3.02 25.08-2.13 25.08-8.46C25.08-14.79 19.91-19.96 13.59-19.96C7.27-19.96 2.10-14.79 2.10-8.46C2.10-2.13 7.27 3.02 13.59 3.02ZM9.50-11.89C9.50-13.91 11.31-15.64 13.58-15.64C15.87-15.64 17.67-13.90 17.67-11.88C17.67-9.68 16.09-8.96 15.88-4.56C15.86-4.35 15.70-4.24 15.53-4.24L11.65-4.24C11.47-4.24 11.32-4.35 11.31-4.56C11.09-8.96 9.50-9.69 9.50-11.89ZM11.66-2.92C11.47-2.92 11.32-3.07 11.32-3.26C11.32-3.45 11.47-3.60 11.66-3.60L15.52-3.60C15.70-3.60 15.86-3.45 15.86-3.26C15.86-3.07 15.70-2.92 15.52-2.92ZM13.59-1.29C12.74-1.29 12.01-1.69 11.96-2.27L15.21-2.27C15.15-1.69 14.44-1.29 13.59-1.29Z" fill="currentColor"/>
</svg>