<svg xmlns="http://www.w3.org/2000/svg" viewBox="0 0 24 24" width="24" height="24">
  <title>lines.measurement.horizontal.aligned.bottom</title>
  <path transform="matrix(0.9523809523809523, 0, 0, 0.9523809523809523, -0.8459821428571428, 16.799107142857142)" d="M3.43 0.41C3.69 0.41 3.88 0.22 3.88-0.04L3.88-10.04C3.88-10.30 3.69-10.49 3.43-10.49C3.18-10.49 2.99-10.30 2.99-10.04L2.99-0.04C2.99 0.22 3.18 0.41 3.43 0.41ZM13.49 0.41C13.75 0.41 13.93 0.22 13.93-0.04L13.93-10.04C13.93-10.30 13.75-10.49 13.49-10.49C13.22-10.49 13.04-10.30 13.04-10.04L13.04-0.04C13.04 0.22 13.22 0.41 13.49 0.41ZM23.54 0.41C23.80 0.41 23.99 0.22 23.99-0.04L23.99-10.04C23.99-10.30 23.80-10.49 23.54-10.49C23.27-10.49 23.10-10.30 23.10-10.04L23.10-0.04C23.10 0.22 23.27 0.41 23.54 0.41ZM8.46 0.41C8.72 0.41 8.89 0.22 8.89-0.04L8.89-5.46C8.89-5.72 8.72-5.91 8.46-5.91C8.19-5.91 8.00-5.72 8.00-5.46L8.00-0.04C8.00 0.22 8.19 0.41 8.46 0.41ZM18.50 0.41C18.76 0.41 18.95 0.22 18.95-0.04L18.95-5.46C18.95-5.72 18.76-5.91 18.50-5.91C18.25-5.91 18.06-5.72 18.06-5.46L18.06-0.04C18.06 0.22 18.25 0.41 18.50 0.41Z" fill="currentColor"/>
</svg>