<svg xmlns="http://www.w3.org/2000/svg" viewBox="0 0 24 24" width="24" height="24">
  
  <path transform="matrix(0.7936191439480075, 0, 0, 0.7936191439480075, 2.097519905678875, 18.719412087919167)" d="M0.36-10.48C-0.11-10.48-0.27-10.14 0.02-9.71L2.48-6.20C2.74-5.85 3.07-5.85 3.32-6.20L5.78-9.73C6.07-10.14 5.91-10.48 5.44-10.48L3.18-10.48C4.13-15.38 8.41-19.07 13.58-19.07C19.44-19.07 24.19-14.32 24.19-8.46C24.19-2.60 19.44 2.13 13.58 2.13C9.73 2.13 6.35 0.08 4.51-3.02C4.36-3.23 4.10-3.30 3.88-3.19C3.68-3.06 3.61-2.77 3.76-2.53C5.78 0.81 9.42 3.02 13.58 3.02C19.93 3.02 25.08-2.11 25.08-8.46C25.08-14.81 19.93-19.96 13.58-19.96C7.92-19.96 3.22-15.87 2.27-10.48ZM10.13-3.64L16.98-3.64C17.18-3.64 17.32-3.79 17.32-3.98C17.32-4.17 17.18-4.32 16.98-4.32L11.17-4.32L11.17-4.41C12.08-4.59 12.68-5.70 12.70-6.75C12.70-6.90 12.69-7.04 12.68-7.18L15.75-7.18C15.90-7.18 16.04-7.32 16.04-7.49C16.04-7.64 15.90-7.77 15.75-7.77L12.60-7.77C12.50-8.31 12.33-8.77 12.20-9.27L15.75-9.27C15.90-9.27 16.04-9.40 16.04-9.56C16.04-9.71 15.90-9.84 15.75-9.84L12.08-9.84C12.06-10.04 12.04-10.28 12.04-10.50C12.04-12.02 13.18-12.81 14.73-12.81C15.28-12.81 15.76-12.71 16.03-12.63C16.20-12.57 16.42-12.52 16.54-12.52C16.72-12.52 16.82-12.63 16.82-12.80C16.82-13.00 16.70-13.09 16.50-13.17C15.94-13.43 15.27-13.50 14.66-13.50C12.60-13.50 11.24-12.40 11.24-10.46C11.24-10.24 11.25-10.04 11.27-9.84L10.18-9.84C10.02-9.84 9.89-9.71 9.89-9.56C9.89-9.40 10.02-9.27 10.18-9.27L11.38-9.27C11.51-8.74 11.68-8.26 11.80-7.77L10.18-7.77C10.02-7.77 9.89-7.64 9.89-7.49C9.89-7.32 10.02-7.18 10.18-7.18L11.89-7.18C11.91-7.03 11.92-6.87 11.91-6.70C11.88-5.55 11.14-4.68 10.10-4.41C9.88-4.35 9.76-4.22 9.76-4.01C9.76-3.76 9.90-3.64 10.13-3.64Z" fill="currentColor"/>
</svg>