<svg xmlns="http://www.w3.org/2000/svg" viewBox="0 0 24 24" width="24" height="24">
  <title>lock.icloud</title>
  <path transform="matrix(0.7182940516273849, 0, 0, 0.7182940516273849, 0.4932659932659933, 18.54040404040404)" d="M24.15 0.34C27.42 0.34 29.94-1.89 29.94-4.80C29.94-7.09 28.70-9.13 26.36-9.89C26.53-14.86 23.03-18.55 18.55-18.55C15.34-18.55 13.21-16.77 12.04-14.60C9.34-15.73 6.25-13.55 6.28-10.41C3.79-10.22 2.10-8.12 2.10-5.41C2.10-2.18 4.84 0.32 8.50 0.32ZM24.14-0.53L8.48-0.55C5.34-0.55 2.96-2.68 2.96-5.41C2.96-7.80 4.41-9.66 6.88-9.66C7.01-9.66 7.07-9.74 7.07-9.87C7.07-13.11 9.71-14.73 12.23-13.70C12.35-13.66 12.42-13.69 12.49-13.80C13.66-15.86 15.45-17.68 18.55-17.68C22.38-17.68 25.22-14.68 25.51-10.82C25.54-10.41 25.50-9.94 25.49-9.48C25.49-9.36 25.54-9.28 25.64-9.26C27.76-8.68 29.06-6.95 29.06-4.80C29.06-2.36 26.92-0.53 24.14-0.53ZM13.54-3.07L18.52-3.07C19.24-3.07 19.63-3.45 19.63-4.25L19.63-8.30C19.63-9.08 19.28-9.46 18.59-9.48L18.59-10.83C18.59-12.47 17.54-13.58 16.02-13.58C14.51-13.58 13.45-12.47 13.45-10.83L13.45-9.48C12.77-9.46 12.41-9.08 12.41-8.30L12.41-4.25C12.41-3.45 12.81-3.07 13.54-3.07ZM14.17-9.48L14.17-10.85C14.17-12.08 14.91-12.88 16.02-12.88C17.14-12.88 17.87-12.08 17.87-10.85L17.87-9.48Z" fill="currentColor"/>
</svg>