<svg xmlns="http://www.w3.org/2000/svg" viewBox="0 0 24 24" width="24" height="24">
  <title>lock.square.dashed</title>
  <path transform="matrix(0.9642184557438794, 0, 0, 0.9642184557438794, -0.8813559322033897, 20.135593220338983)" d="M2.99-12.71L3.86-12.71L3.86-15.61C3.86-17.14 4.65-17.94 6.18-17.94L9.07-17.94L9.07-18.81L6.15-18.81C4.08-18.81 2.99-17.73 2.99-15.66ZM10.13-17.94L16.61-17.94L16.61-18.81L10.13-18.81ZM22.86-12.71L23.73-12.71L23.73-15.66C23.73-17.70 22.65-18.81 20.58-18.81L17.65-18.81L17.65-17.94L20.54-17.94C22.02-17.94 22.86-17.14 22.86-15.61ZM9.08-3.75C9.08-2.79 9.52-2.38 10.38-2.38L16.36-2.38C17.23-2.38 17.65-2.79 17.65-3.75L17.65-8.63C17.65-9.56 17.24-9.98 16.39-10.00L16.39-11.66C16.39-13.62 15.18-14.92 13.37-14.92C11.57-14.92 10.35-13.62 10.35-11.66L10.35-10.00C9.50-9.98 9.08-9.56 9.08-8.63ZM11.07-10.00L11.07-11.70C11.07-13.20 12-14.19 13.37-14.19C14.74-14.19 15.67-13.20 15.67-11.70L15.67-10.00ZM22.86-5.20L23.73-5.20L23.73-11.67L22.86-11.67ZM2.99-5.20L3.86-5.20L3.86-11.67L2.99-11.67ZM17.65 1.93L20.58 1.93C22.65 1.93 23.73 0.83 23.73-1.21L23.73-4.16L22.86-4.16L22.86-1.25C22.86 0.27 22.02 1.07 20.54 1.07L17.65 1.07ZM6.15 1.93L9.07 1.93L9.07 1.07L6.18 1.07C4.65 1.07 3.86 0.27 3.86-1.25L3.86-4.16L2.99-4.16L2.99-1.21C2.99 0.86 4.08 1.93 6.15 1.93ZM10.13 1.93L16.61 1.93L16.61 1.07L10.13 1.07Z" fill="currentColor"/>
</svg>