<svg xmlns="http://www.w3.org/2000/svg" viewBox="0 0 24 24" width="24" height="24">
  
  <path transform="matrix(0.9642184557438794, 0, 0, 0.9642184557438794, -0.8813559322033897, 20.15819209039548)" d="M6.15 1.91L20.58 1.91C22.65 1.91 23.73 0.81 23.73-1.24L23.73-15.68C23.73-17.73 22.65-18.83 20.58-18.83L6.15-18.83C4.08-18.83 2.99-17.75 2.99-15.68L2.99-1.24C2.99 0.83 4.08 1.91 6.15 1.91ZM6.18 1.04C4.65 1.04 3.86 0.25 3.86-1.28L3.86-15.63C3.86-17.17 4.65-17.96 6.18-17.96L20.54-17.96C22.02-17.96 22.86-17.17 22.86-15.63L22.86-1.28C22.86 0.25 22.02 1.04 20.54 1.04ZM8.91-3.18C9.16-3.18 9.33-3.34 9.33-3.61L9.33-12.30L9.40-12.30L12.80-3.68C12.90-3.43 13.08-3.30 13.35-3.30C13.63-3.30 13.80-3.43 13.92-3.68L17.32-12.30L17.39-12.30L17.39-3.61C17.39-3.34 17.55-3.18 17.80-3.18C18.06-3.18 18.22-3.34 18.22-3.61L18.22-13.14C18.22-13.51 17.95-13.76 17.60-13.76C17.26-13.76 17.05-13.62 16.91-13.24L13.38-4.36L13.32-4.36L9.81-13.24C9.66-13.62 9.45-13.76 9.12-13.76C8.75-13.76 8.50-13.51 8.50-13.14L8.50-3.61C8.50-3.34 8.66-3.18 8.91-3.18Z" fill="currentColor"/>
</svg>