<svg xmlns="http://www.w3.org/2000/svg" viewBox="0 0 24 24" width="24" height="24">
  
  <path transform="matrix(0.7340501792114695, 0, 0, 0.7340501792114695, 1.5956989247311828, 18.64516129032258)" d="M6.15 1.27L7.24 1.27L7.24 3.49L5.85 3.49C5.54 3.49 5.31 3.73 5.31 4.03C5.31 4.34 5.54 4.57 5.85 4.57L9.73 4.57C10.03 4.57 10.27 4.34 10.27 4.03C10.27 3.73 10.03 3.49 9.73 3.49L8.33 3.49L8.33 1.27L20.03 1.27L20.03 3.49L18.62 3.49C18.33 3.49 18.08 3.73 18.08 4.03C18.08 4.34 18.33 4.57 18.62 4.57L22.50 4.57C22.80 4.57 23.04 4.34 23.04 4.03C23.04 3.73 22.80 3.49 22.50 3.49L21.11 3.49L21.11 1.27L22.21 1.27C24.28 1.27 25.36 0.16 25.36-1.89L25.36-16.44C25.36-18.50 24.28-19.58 22.21-19.58L21.11-19.58L21.11-22.14C21.11-22.44 20.87-22.68 20.57-22.68C20.26-22.68 20.03-22.44 20.03-22.14L20.03-19.58L8.33-19.58L8.33-22.14C8.33-22.44 8.10-22.68 7.79-22.68C7.49-22.68 7.24-22.44 7.24-22.14L7.24-19.58L6.15-19.58C4.08-19.58 2.99-18.50 2.99-16.44L2.99-1.89C2.99 0.19 4.08 1.27 6.15 1.27ZM6.18 0.40C4.65 0.40 3.86-0.40 3.86-1.93L3.86-16.39C3.86-17.92 4.65-18.71 6.18-18.71L22.17-18.71C23.70-18.71 24.49-17.92 24.49-16.39L24.49-1.93C24.49-0.40 23.65 0.40 22.17 0.40ZM14.29-11.84C14.64-11.84 15.09-12.08 15.35-12.40C15.60-12.71 15.77-13.11 15.77-13.52C15.77-13.58 15.77-13.63 15.76-13.68C15.35-13.66 14.88-13.42 14.59-13.08C14.36-12.82 14.16-12.40 14.16-11.99C14.16-11.93 14.16-11.86 14.17-11.85C14.20-11.82 14.23-11.84 14.29-11.84ZM13.01-5.70C13.50-5.70 13.72-6.02 14.32-6.02C14.95-6.02 15.09-5.70 15.63-5.70C16.18-5.70 16.54-6.21 16.88-6.68C17.27-7.24 17.41-7.79 17.43-7.83C17.40-7.84 16.36-8.25 16.36-9.43C16.36-10.46 17.17-10.93 17.21-10.96C16.68-11.73 15.87-11.75 15.63-11.75C15.04-11.75 14.54-11.39 14.23-11.39C13.90-11.39 13.46-11.73 12.94-11.73C11.94-11.73 10.93-10.91 10.93-9.36C10.93-8.39 11.30-7.37 11.78-6.71C12.18-6.16 12.52-5.70 13.01-5.70Z" fill="currentColor"/>
</svg>