<svg xmlns="http://www.w3.org/2000/svg" viewBox="0 0 24 24" width="24" height="24">
  
  <path transform="matrix(0.7170868347338936, 0, 0, 0.7170868347338936, -0.1428571428571428, 18.07983193277311)" d="M6.15-1.45L27.71-1.45C29.79-1.45 30.88-2.55 30.88-4.61L30.88-12.35C30.88-14.39 29.79-15.50 27.71-15.50L6.15-15.50C4.08-15.50 2.99-14.41 2.99-12.35L2.99-4.61C2.99-2.53 4.08-1.45 6.15-1.45ZM6.18-2.32C4.65-2.32 3.86-3.12 3.86-4.64L3.86-12.30C3.86-13.84 4.65-14.63 6.18-14.63L27.69-14.63C29.16-14.63 30.01-13.84 30.01-12.30L30.01-4.64C30.01-3.12 29.16-2.32 27.69-2.32ZM6.77-4.64C7.00-4.64 7.17-4.82 7.17-5.04L7.17-7.44C7.17-7.66 7.00-7.84 6.77-7.84C6.55-7.84 6.38-7.66 6.38-7.44L6.38-5.04C6.38-4.82 6.55-4.64 6.77-4.64ZM9.14-4.64C9.36-4.64 9.54-4.82 9.54-5.04L9.54-7.44C9.54-7.66 9.36-7.84 9.14-7.84C8.92-7.84 8.74-7.66 8.74-7.44L8.74-5.04C8.74-4.82 8.92-4.64 9.14-4.64ZM26.25-4.98C26.93-4.99 27.49-5.54 27.49-6.22C27.49-6.91 26.93-7.49 26.25-7.49C25.58-7.49 25.00-6.91 25.00-6.22C25.00-5.54 25.58-4.97 26.25-4.98ZM11.96-5.84L16.75-5.84C16.96-5.84 17.14-6.02 17.14-6.23C17.14-6.46 16.96-6.63 16.75-6.63L11.96-6.63C11.74-6.63 11.57-6.46 11.57-6.23C11.57-6.02 11.74-5.84 11.96-5.84Z" fill="currentColor"/>
</svg>