<svg xmlns="http://www.w3.org/2000/svg" viewBox="0 0 24 24" width="24" height="24">
  
  <path transform="matrix(0.8703042665306816, 0, 0, 0.8703042665306816, 0.17440081591024992, 19.36868944416114)" d="M13.59 3.02C19.93 3.02 25.08-2.11 25.08-8.46C25.08-14.81 19.93-19.96 13.59-19.96C7.24-19.96 2.10-14.81 2.10-8.46C2.10-2.11 7.24 3.02 13.59 3.02ZM13.59 2.13C7.73 2.13 2.99-2.60 2.99-8.46C2.99-14.32 7.73-19.07 13.59-19.07C19.45-19.07 24.19-14.32 24.19-8.46C24.19-2.60 19.45 2.13 13.59 2.13ZM10.35-3.60C10.61-3.60 10.75-3.75 10.75-4.01L10.75-7.73C10.75-9.81 11.53-11.34 13.27-11.52L13.27-3.91C13.27-3.71 13.39-3.60 13.58-3.60C13.77-3.60 13.89-3.71 13.89-3.91L13.89-11.52C15.70-11.37 16.45-9.79 16.45-7.73L16.45-4.01C16.45-3.75 16.61-3.60 16.85-3.60C17.11-3.60 17.25-3.75 17.25-4.01L17.25-7.83C17.25-10.24 16.15-12.11 13.89-12.25L13.89-13.71C13.89-13.91 13.77-14.03 13.58-14.03C13.39-14.03 13.27-13.91 13.27-13.71L13.27-12.25C11.02-12.07 9.95-10.20 9.95-7.83L9.95-4.01C9.95-3.75 10.10-3.60 10.35-3.60Z" fill="currentColor"/>
</svg>