<svg xmlns="http://www.w3.org/2000/svg" viewBox="0 0 24 24" width="24" height="24">
  <title>map</title>
  <path transform="matrix(0.8865800865800866, 0, 0, 0.8865800865800866, -0.6493506493506493, 19.5012987012987)" d="M3.82 2.13C4.03 2.13 4.24 2.04 4.48 1.91L10.57-1.50L16.85 2.30C17.23 2.52 17.57 2.63 17.91 2.63C18.23 2.63 18.56 2.53 18.94 2.31L24.89-1.21C25.36-1.48 25.55-1.76 25.55-2.34L25.55-18.09C25.55-18.70 25.23-19.04 24.71-19.04C24.52-19.04 24.29-18.96 24.06-18.83L17.91-15.47L11.78-19.20C11.38-19.43 10.99-19.55 10.61-19.55C10.21-19.55 9.82-19.43 9.43-19.20L3.66-15.71C3.19-15.45 2.99-15.16 2.99-14.57L2.99 1.17C2.99 1.78 3.32 2.13 3.82 2.13ZM10.21-2.30L4.25 1.04C4.20 1.07 4.14 1.09 4.08 1.09C3.95 1.09 3.86 0.98 3.86 0.83L3.86-14.39C3.86-14.67 3.94-14.87 4.22-15.04L9.84-18.42C9.96-18.49 10.09-18.55 10.21-18.59ZM11.09-2.25L11.09-18.54C11.20-18.50 11.33-18.43 11.45-18.38L17.46-14.71L17.46 1.56C17.33 1.51 17.18 1.44 17.06 1.38ZM18.33 1.61L18.33-14.73L24.28-17.96C24.34-17.99 24.40-18.01 24.46-18.01C24.59-18.01 24.68-17.91 24.68-17.75L24.68-2.53C24.68-2.25 24.60-2.05 24.32-1.89L18.73 1.43C18.59 1.50 18.46 1.57 18.33 1.61Z" fill="currentColor"/>
</svg>