<svg xmlns="http://www.w3.org/2000/svg" viewBox="0 0 24 24" width="24" height="24">
  
  <path transform="matrix(0.8003929669129565, 0, 0, 0.8003929669129565, 3.4833185864418224, 18.751974674686018)" d="M7.42-20.93L4.32-20.93C3.52-20.93 2.99-20.39 2.99-19.58L2.99-13.21C2.99-12.43 3.21-12 3.79-11.60L7.42-9.05ZM13.01-20.93L8.27-20.93L8.27-8.55L9.09-7.98L9.32-8.71C9.76-10.01 11.55-10.01 12-8.71L12.22-8.02L13.01-8.57ZM16.95-20.93L13.86-20.93L13.86-9.05L17.51-11.60C18.07-12 18.29-12.46 18.29-13.21L18.29-19.58C18.29-20.39 17.75-20.93 16.95-20.93ZM7.04 3.95L10.66 1.31L14.27 3.95C14.65 4.22 15.09 3.96 14.93 3.47L13.54-0.79L17.17-3.39C17.46-3.60 17.39-4.17 16.90-4.17L12.43-4.17L11.06-8.43C10.93-8.85 10.39-8.85 10.25-8.43L8.88-4.17L4.42-4.17C3.95-4.17 3.81-3.63 4.16-3.36L7.78-0.79L6.41 3.47C6.25 3.96 6.68 4.22 7.04 3.95Z" fill="currentColor"/>
</svg>