<svg xmlns="http://www.w3.org/2000/svg" viewBox="0 0 24 24" width="24" height="24">
  
  <path transform="matrix(0.8284789644012945, 0, 0, 0.8284789644012945, 0.01941747572815533, 19.155339805825243)" d="M14.03-6.22L14.03-14.93C14.03-15.19 14.18-15.39 14.46-15.39C14.73-15.39 14.89-15.19 14.89-14.93L14.89-5.36L16.73-3.50L25.10-3.50L16.66-18.40C16.17-19.27 15.32-19.65 14.46-19.65C13.61-19.65 12.75-19.27 12.26-18.40L8.48-11.74ZM13.99-3.50L15.25-3.50L4.52-14.24C4.34-14.43 4.08-14.41 3.89-14.23C3.70-14.04 3.71-13.79 3.90-13.59ZM6.96-9.07L3.81-3.50L12.52-3.50ZM26.09-1.77L25.56-2.71L3.36-2.71L2.82-1.77C2.53-1.24 2.39-0.70 2.39-0.19C2.39 1.22 3.36 2.38 5.02 2.38L23.91 2.38C25.55 2.38 26.53 1.22 26.53-0.19C26.53-0.70 26.39-1.25 26.09-1.77Z" fill="currentColor"/>
</svg>