<svg xmlns="http://www.w3.org/2000/svg" viewBox="0 0 24 24" width="24" height="24">
  
  <path transform="matrix(0.8703042665306816, 0, 0, 0.8703042665306816, 0.17440081591024992, 19.36868944416114)" d="M13.59 3.02C19.93 3.02 25.08-2.11 25.08-8.46C25.08-14.81 19.93-19.96 13.59-19.96C7.24-19.96 2.10-14.81 2.10-8.46C2.10-2.11 7.24 3.02 13.59 3.02ZM13.59 2.13C7.73 2.13 2.99-2.60 2.99-8.46C2.99-14.32 7.73-19.07 13.59-19.07C19.45-19.07 24.19-14.32 24.19-8.46C24.19-2.60 19.45 2.13 13.59 2.13ZM13.59-6.19C14.78-6.19 15.54-7.11 15.54-8.32L15.54-13.49C15.54-14.70 14.78-15.61 13.59-15.61C12.40-15.61 11.64-14.70 11.64-13.49L11.64-8.32C11.64-7.11 12.40-6.19 13.59-6.19ZM10.79-1.27L16.39-1.27C16.59-1.27 16.76-1.43 16.76-1.63C16.76-1.84 16.59-2.00 16.39-2.00L13.96-2.00L13.96-3.96C16.28-4.13 17.89-5.84 17.89-8.09L17.89-9.32C17.89-9.52 17.73-9.69 17.53-9.69C17.33-9.69 17.16-9.52 17.16-9.32L17.16-8.09C17.16-6.01 15.80-4.66 13.59-4.66C11.38-4.66 10.03-6.01 10.03-8.09L10.03-9.32C10.03-9.52 9.86-9.69 9.66-9.69C9.46-9.69 9.29-9.52 9.29-9.32L9.29-8.09C9.29-5.84 10.90-4.13 13.22-3.96L13.22-2.00L10.79-2.00C10.58-2.00 10.42-1.84 10.42-1.63C10.42-1.43 10.58-1.27 10.79-1.27Z" fill="currentColor"/>
</svg>