<svg xmlns="http://www.w3.org/2000/svg" viewBox="0 0 24 24" width="24" height="24">
  <title>moonphase.waxing.gibbous</title>
  <path transform="matrix(0.8703042665306816, 0, 0, 0.8703042665306816, 0.17440081591024992, 19.36868944416114)" d="M13.59 3.02C19.91 3.02 25.08-2.13 25.08-8.46C25.08-14.79 19.91-19.96 13.59-19.96C7.27-19.96 2.10-14.79 2.10-8.46C2.10-2.13 7.27 3.02 13.59 3.02ZM8.50-8.44C8.50-13.22 11.30-17.25 15.60-18.86C20.48-17.92 24.19-13.63 24.19-8.46C24.19-3.27 20.44 1.07 15.49 1.96C11.26 0.32 8.50-3.68 8.50-8.44Z" fill="currentColor"/>
</svg>