<svg xmlns="http://www.w3.org/2000/svg" viewBox="0 0 24 24" width="24" height="24">
  
  <path transform="matrix(0.8703042665306816, 0, 0, 0.8703042665306816, 0.17440081591024992, 19.36868944416114)" d="M13.59 3.02C19.93 3.02 25.08-2.11 25.08-8.46C25.08-14.81 19.93-19.96 13.59-19.96C7.24-19.96 2.10-14.81 2.10-8.46C2.10-2.11 7.24 3.02 13.59 3.02ZM13.59 2.13C7.73 2.13 2.99-2.60 2.99-8.46C2.99-14.32 7.73-19.07 13.59-19.07C19.45-19.07 24.19-14.32 24.19-8.46C24.19-2.60 19.45 2.13 13.59 2.13ZM16.43-10.37C16.64-10.37 16.80-10.54 16.80-10.73L16.80-13.75L16.77-14.44L17.17-14.04L18.15-13.02C18.22-12.95 18.33-12.91 18.42-12.91C18.62-12.91 18.79-13.07 18.79-13.28C18.79-13.37 18.75-13.46 18.61-13.59L16.68-15.50C16.62-15.56 16.51-15.61 16.43-15.61C16.34-15.61 16.24-15.56 16.17-15.50L14.24-13.59C14.11-13.48 14.07-13.37 14.07-13.28C14.07-13.07 14.23-12.91 14.43-12.91C14.54-12.91 14.64-12.97 14.71-13.04L15.71-14.05L16.08-14.43L16.04-13.75L16.04-10.73C16.04-10.54 16.21-10.37 16.43-10.37ZM9.86-4.62L17.71-4.62C18.12-5.00 18.46-5.48 18.70-6.02C18.80-6.20 18.79-6.36 18.69-6.46C18.61-6.54 18.47-6.56 18.28-6.49C17.77-6.29 17.19-6.18 16.42-6.18C13.38-6.18 11.54-8.00 11.54-11.06C11.54-11.80 11.67-12.48 11.93-13.00C12.01-13.18 12-13.35 11.91-13.46C11.79-13.57 11.60-13.58 11.40-13.46C9.61-12.55 8.40-10.71 8.40-8.41C8.40-6.89 8.92-5.57 9.86-4.62ZM6.74-3.20L20.44-3.20C20.65-3.20 20.81-3.35 20.81-3.55C20.81-3.77 20.65-3.91 20.44-3.91L6.74-3.91C6.54-3.91 6.36-3.75 6.36-3.55C6.36-3.35 6.54-3.20 6.74-3.20Z" fill="currentColor"/>
</svg>