<svg xmlns="http://www.w3.org/2000/svg" viewBox="0 0 24 24" width="24" height="24">
  
  <path transform="matrix(0.8703042665306816, 0, 0, 0.8703042665306816, 0.17440081591024992, 19.36868944416114)" d="M13.59 3.02C19.93 3.02 25.08-2.11 25.08-8.46C25.08-14.81 19.93-19.96 13.59-19.96C7.24-19.96 2.10-14.81 2.10-8.46C2.10-2.11 7.24 3.02 13.59 3.02ZM13.59 2.13C7.73 2.13 2.99-2.60 2.99-8.46C2.99-14.32 7.73-19.07 13.59-19.07C19.45-19.07 24.19-14.32 24.19-8.46C24.19-2.60 19.45 2.13 13.59 2.13ZM16.73-9.76C16.79-9.76 16.84-9.80 16.85-9.88C17.12-11.92 17.21-12.06 19.37-12.40C19.46-12.42 19.51-12.46 19.51-12.54C19.51-12.62 19.46-12.67 19.37-12.68C17.24-13.11 17.31-13.23 16.85-15.20C16.84-15.28 16.79-15.32 16.73-15.32C16.66-15.32 16.62-15.28 16.61-15.20C16.15-13.23 16.27-13.09 14.09-12.68C14.00-12.67 13.96-12.62 13.96-12.54C13.96-12.46 14.00-12.42 14.09-12.40C16.27-11.98 16.31-11.92 16.61-9.88C16.62-9.80 16.66-9.76 16.73-9.76ZM13.56-1.50C16.28-1.50 18.97-3.15 19.73-5.34C19.86-5.71 19.62-5.94 19.34-5.81C18.84-5.59 17.89-5.44 16.96-5.44C13.44-5.44 10.98-7.90 10.98-11.43C10.98-12.43 11.14-13.18 11.38-13.86C11.50-14.19 11.25-14.41 10.93-14.30C8.53-13.48 6.98-10.73 6.98-8.03C6.98-4.36 9.88-1.50 13.56-1.50Z" fill="currentColor"/>
</svg>