<svg xmlns="http://www.w3.org/2000/svg" viewBox="0 0 24 24" width="24" height="24">
  
  <path transform="matrix(0.8283507989903713, 0, 0, 0.8283507989903713, 0.017267417288451936, 19.35619819527026)" d="M2.52 0.18C2.23 0.80 2.45 1.22 3.14 1.27L7.82 1.65C8.51 1.71 8.98 1.20 8.64 0.62L7.50-1.35L14.46-4.83L21.42-1.35L20.29 0.62C19.96 1.20 20.41 1.71 21.11 1.65L25.79 1.27C26.47 1.22 26.71 0.80 26.41 0.18L24.40-4.07C24.11-4.69 23.45-4.84 23.11-4.24L21.86-2.09L14.89-5.55L14.89-13.91L17.26-13.91C17.95-13.91 18.15-14.55 17.75-15.13L15.08-19.00C14.70-19.56 14.23-19.56 13.83-19.00L11.16-15.13C10.76-14.57 10.97-13.91 11.65-13.91L14.03-13.91L14.03-5.55L7.07-2.09L5.82-4.24C5.47-4.84 4.82-4.69 4.52-4.07Z" fill="currentColor"/>
</svg>