<svg xmlns="http://www.w3.org/2000/svg" viewBox="0 0 24 24" width="24" height="24">
  <title>multiply.square.fill</title>
  <path transform="matrix(0.9642184557438794, 0, 0, 0.9642184557438794, -0.8813559322033897, 20.15819209039548)" d="M6.15 1.91L20.58 1.91C22.65 1.91 23.73 0.81 23.73-1.24L23.73-15.68C23.73-17.73 22.65-18.83 20.58-18.83L6.15-18.83C4.08-18.83 2.99-17.75 2.99-15.68L2.99-1.24C2.99 0.83 4.08 1.91 6.15 1.91ZM9.41-4.02C9.14-4.02 8.93-4.22 8.93-4.48C8.93-4.62 8.98-4.72 9.09-4.84L12.70-8.45L9.09-12.06C8.98-12.18 8.93-12.28 8.93-12.42C8.93-12.67 9.14-12.87 9.41-12.87C9.56-12.87 9.66-12.82 9.77-12.70L13.37-9.12L16.97-12.70C17.09-12.83 17.19-12.87 17.33-12.87C17.60-12.87 17.81-12.68 17.81-12.42C17.81-12.28 17.77-12.18 17.65-12.06L14.04-8.45L17.65-4.84C17.77-4.72 17.80-4.62 17.80-4.48C17.80-4.22 17.60-4.02 17.33-4.02C17.19-4.02 17.07-4.07 16.96-4.20L13.37-7.78L9.79-4.20C9.66-4.07 9.56-4.02 9.41-4.02Z" fill="currentColor"/>
</svg>