<svg xmlns="http://www.w3.org/2000/svg" viewBox="0 0 24 24" width="24" height="24">
  
  <path transform="matrix(0.8980372954773013, 0, 0, 0.8980372954773013, 3.6012744570062867, 19.28484036445535)" d="M9.97-8.54L9.97-11.63C9.97-12.35 10.16-12.60 10.85-12.75L15.59-13.79C15.89-13.85 16.08-14.07 16.08-14.38L16.08-18.52C16.08-19.02 15.69-19.32 15.21-19.23L9.76-18.05C9.22-17.93 8.93-17.63 8.93-17.13L8.98-9.54ZM17.61 1.79C17.79 1.97 18.05 1.98 18.22 1.79C18.41 1.62 18.40 1.36 18.22 1.18L1.08-15.96C0.93-16.11 0.66-16.14 0.47-15.96C0.30-15.80 0.30-15.52 0.47-15.35ZM6 3.02C7.63 3.02 9.97 1.89 9.97-1.31L9.97-4.38L8.99-5.36L9-4.48C8.99-3.81 8.63-3.35 8.02-3.23L6.18-2.85C4.03-2.40 2.99-1.36 2.99 0.29C2.99 1.91 4.22 3.02 6 3.02Z" fill="currentColor"/>
</svg>