<svg xmlns="http://www.w3.org/2000/svg" viewBox="0 0 24 24" width="24" height="24">
  
  <path transform="matrix(0.9620443442314919, 0, 0, 0.9620443442314919, 1.216459977452086, 20.1510710259301)" d="M5.31 1.92C5.63 1.92 5.82 1.71 5.82 1.39L5.82-7.98L10.93-7.98L16.16 1.42C16.32 1.73 16.55 1.92 16.93 1.92C17.36 1.92 17.63 1.63 17.63 1.22L17.63-7.98L19.04-7.98C19.24-7.98 19.43-8.16 19.43-8.37C19.43-8.57 19.24-8.75 19.04-8.75L17.63-8.75L17.63-18.33C17.63-18.67 17.43-18.87 17.11-18.87C16.79-18.87 16.62-18.67 16.62-18.33L16.62-8.75L11.63-8.75L6.32-18.29C6.12-18.67 5.91-18.87 5.51-18.87C5.12-18.87 4.80-18.62 4.80-18.15L4.80-8.75L3.38-8.75C3.16-8.75 2.99-8.57 2.99-8.37C2.99-8.16 3.16-7.98 3.38-7.98L4.80-7.98L4.80 1.39C4.80 1.71 5.00 1.92 5.31 1.92ZM5.82-16.97L5.93-16.97L10.50-8.75L5.82-8.75ZM16.50 0.02L12.06-7.98L16.62-7.98L16.62 0.02Z" fill="currentColor"/>
</svg>