<svg xmlns="http://www.w3.org/2000/svg" viewBox="0 0 24 24" width="24" height="24">
  
  <path transform="matrix(0.8703042665306816, 0, 0, 0.8703042665306816, 0.17440081591024992, 19.36868944416114)" d="M13.59 3.02C19.93 3.02 25.08-2.11 25.08-8.46C25.08-14.81 19.93-19.96 13.59-19.96C7.24-19.96 2.10-14.81 2.10-8.46C2.10-2.11 7.24 3.02 13.59 3.02ZM13.59 2.13C7.73 2.13 2.99-2.60 2.99-8.46C2.99-14.32 7.73-19.07 13.59-19.07C19.45-19.07 24.19-14.32 24.19-8.46C24.19-2.60 19.45 2.13 13.59 2.13ZM9.09-2.44L18.11-2.44C19.11-2.44 19.63-2.95 19.63-3.95L19.63-12.93C19.63-13.92 19.11-14.44 18.11-14.44L11.23-14.44C10.22-14.44 9.69-13.92 9.69-12.93L9.69-3.39C9.69-2.87 9.53-2.58 9.09-2.44ZM11.89-11.26C11.72-11.26 11.58-11.40 11.58-11.57C11.58-11.74 11.71-11.87 11.89-11.87L17.44-11.87C17.63-11.87 17.75-11.74 17.75-11.57C17.75-11.40 17.61-11.26 17.44-11.26ZM11.89-9.18C11.72-9.18 11.58-9.32 11.58-9.48C11.58-9.67 11.71-9.80 11.89-9.80L17.44-9.80C17.63-9.80 17.75-9.67 17.75-9.48C17.75-9.32 17.61-9.18 17.44-9.18ZM7.54-8.92L7.54-3.62C7.54-3.15 7.91-2.92 8.30-2.92C8.66-2.93 9.02-3.16 9.02-3.62L9.02-9.73L8.40-9.73C7.86-9.73 7.54-9.42 7.54-8.92ZM15.47-6.98C15.28-6.98 15.15-7.11 15.15-7.29C15.15-7.45 15.28-7.59 15.47-7.59L17.44-7.59C17.61-7.59 17.74-7.45 17.74-7.29C17.74-7.11 17.61-6.98 17.44-6.98ZM12.16-5.02C11.79-5.02 11.55-5.26 11.55-5.63L11.55-6.98C11.55-7.35 11.79-7.59 12.16-7.59L13.64-7.59C14.03-7.59 14.26-7.35 14.26-6.98L14.26-5.63C14.26-5.26 14.03-5.02 13.64-5.02ZM15.47-5.02C15.28-5.02 15.15-5.13 15.15-5.32C15.15-5.48 15.28-5.63 15.47-5.63L17.44-5.63C17.61-5.63 17.74-5.48 17.74-5.32C17.74-5.13 17.63-5.02 17.44-5.02Z" fill="currentColor"/>
</svg>