<svg xmlns="http://www.w3.org/2000/svg" viewBox="0 0 24 24" width="24" height="24">
  
  <path transform="matrix(0.8703042665306816, 0, 0, 0.8703042665306816, 0.17440081591024992, 19.36868944416114)" d="M15.59-19.76C14.94-19.89 14.27-19.96 13.59-19.96C7.24-19.96 2.10-14.81 2.10-8.46C2.10-7.77 2.17-7.10 2.30-6.45L8.21-7.68C8.17-7.93 8.14-8.19 8.14-8.46C8.14-11.45 10.61-13.89 13.61-13.89C13.85-13.89 14.10-13.86 14.34-13.84ZM23.20-14.73C21.64-17.16 19.17-18.95 16.27-19.61L15.02-13.69C16.27-13.36 17.33-12.60 18.05-11.57ZM24.75-11.11C24.49-12.18 24.09-13.20 23.57-14.13L18.42-10.98C18.60-10.63 18.74-10.27 18.84-9.87ZM13.59-3.74C16.20-3.74 18.30-5.86 18.30-8.46C18.30-11.06 16.20-13.18 13.59-13.18C10.99-13.18 8.87-11.06 8.87-8.46C8.87-5.86 10.99-3.74 13.59-3.74ZM13.59-5.72C12.06-5.72 10.84-6.94 10.84-8.46C10.84-9.98 12.06-11.21 13.59-11.21C15.12-11.21 16.34-9.98 16.34-8.46C16.34-6.94 15.12-5.72 13.59-5.72ZM13.59-6.46C14.68-6.46 15.60-7.36 15.60-8.46C15.60-9.56 14.68-10.46 13.59-10.46C12.49-10.46 11.59-9.56 11.59-8.46C11.59-7.36 12.49-6.46 13.59-6.46ZM11.60 2.84C12.26 2.96 12.91 3.02 13.59 3.02C19.93 3.02 25.08-2.11 25.08-8.46C25.08-9.14 25.02-9.80 24.89-10.44L18.98-9.21C19.03-8.96 19.05-8.72 19.05-8.46C19.05-5.46 16.61-3 13.61-3C13.35-3 13.09-3.02 12.84-3.06ZM2.45-5.78C2.71-4.72 3.11-3.70 3.62-2.78L8.78-5.92C8.59-6.27 8.46-6.64 8.37-7.02ZM4.01-2.19C5.55 0.23 8.05 2.04 10.92 2.68L12.15-3.21C10.93-3.53 9.86-4.30 9.15-5.33Z" fill="currentColor"/>
</svg>