<svg xmlns="http://www.w3.org/2000/svg" viewBox="0 0 24 24" width="24" height="24">
  
  <path transform="matrix(0.8190264418626076, 0, 0, 0.8190264418626076, -0.20607388023577045, 18.897937115273983)" d="M24.43-19.36C23.72-18.87 16.14-13.52 12.34-10.02C14.85-9.41 16.83-7.54 17.44-4.90C20.94-8.71 26.31-16.28 26.79-17.00C27.87-18.64 26.04-20.48 24.43-19.36ZM12.90-5.50C13.76-4.64 14.30-3.62 14.45-2.64C15.21-2.84 15.87-3.29 16.66-4.09C16.72-4.15 16.77-4.20 16.83-4.27C16.39-7.01 14.25-8.96 11.70-9.42C11.64-9.36 11.57-9.30 11.51-9.23C10.70-8.44 10.24-7.76 10.04-6.97C11.02-6.87 12.05-6.36 12.90-5.50ZM2.93 0.19C4.79 2.81 8.85 3.73 11.45 1.92C13.71 0.35 14.19-2.07 12.71-4.20C11.38-6.13 8.96-6.64 7.38-5.52C5.54-4.22 6.28-2.44 5.16-1.63C4.23-0.96 3.56-1.38 3.02-1.02C2.67-0.79 2.54-0.38 2.93 0.19Z" fill="currentColor"/>
</svg>