<svg xmlns="http://www.w3.org/2000/svg" viewBox="0 0 24 24" width="24" height="24">
  <title>parkingsign.circle</title>
  <path transform="matrix(0.8703042665306816, 0, 0, 0.8703042665306816, 0.17440081591024992, 19.36868944416114)" d="M13.59 3.02C19.93 3.02 25.08-2.11 25.08-8.46C25.08-14.81 19.93-19.96 13.59-19.96C7.24-19.96 2.10-14.81 2.10-8.46C2.10-2.11 7.24 3.02 13.59 3.02ZM13.59 2.13C7.73 2.13 2.99-2.60 2.99-8.46C2.99-14.32 7.73-19.07 13.59-19.07C19.45-19.07 24.19-14.32 24.19-8.46C24.19-2.60 19.45 2.13 13.59 2.13ZM11.06-3.19C11.34-3.19 11.51-3.38 11.51-3.66L11.51-7.22L14.31-7.22C16.22-7.22 17.58-8.57 17.58-10.44C17.58-12.32 16.21-13.68 14.31-13.68L11.03-13.68C10.77-13.68 10.62-13.48 10.62-13.20L10.62-3.66C10.62-3.39 10.79-3.19 11.06-3.19ZM11.51-7.99L11.51-12.90L14.27-12.90C15.68-12.90 16.69-11.87 16.69-10.44C16.69-9.02 15.68-7.99 14.27-7.99Z" fill="currentColor"/>
</svg>