<svg xmlns="http://www.w3.org/2000/svg" viewBox="0 0 24 24" width="24" height="24">
  
  <path transform="matrix(0.8703042665306816, 0, 0, 0.8703042665306816, 0.17440081591024992, 19.36868944416114)" d="M13.59 3.02C19.91 3.02 25.08-2.13 25.08-8.46C25.08-14.79 19.91-19.96 13.59-19.96C7.27-19.96 2.10-14.79 2.10-8.46C2.10-2.13 7.27 3.02 13.59 3.02ZM10.35-12.86C10.35-14.07 10.91-14.89 11.73-14.89C12.55-14.89 13.11-14.06 13.11-12.86C13.11-11.63 12.55-10.79 11.73-10.79C10.91-10.79 10.35-11.63 10.35-12.86ZM14.09-12.86C14.09-14.06 14.65-14.89 15.47-14.89C16.29-14.89 16.86-14.07 16.86-12.86C16.86-11.63 16.29-10.79 15.47-10.79C14.65-10.79 14.09-11.63 14.09-12.86ZM7.55-9.52C7.55-10.75 8.11-11.58 8.93-11.58C9.75-11.58 10.31-10.75 10.31-9.52C10.31-8.31 9.75-7.48 8.93-7.48C8.11-7.48 7.55-8.31 7.55-9.52ZM16.89-9.52C16.89-10.75 17.45-11.58 18.27-11.58C19.10-11.58 19.65-10.75 19.65-9.52C19.65-8.31 19.10-7.48 18.27-7.48C17.45-7.48 16.89-8.31 16.89-9.52ZM9.15-4.80C9.15-5.87 9.83-6.45 10.43-6.94C10.76-7.21 11.06-7.45 11.25-7.77C11.37-7.97 11.48-8.23 11.60-8.50C11.98-9.36 12.41-10.38 13.61-10.38C14.77-10.38 15.21-9.38 15.60-8.50C15.70-8.21 15.83-7.95 15.96-7.72C16.14-7.44 16.44-7.21 16.76-6.94C17.36-6.45 18.04-5.87 18.04-4.80C18.04-3.69 17.20-2.88 16.05-2.88C15.47-2.88 15.04-3.06 14.64-3.22C14.29-3.36 13.98-3.49 13.61-3.49C13.21-3.49 12.90-3.36 12.55-3.22C12.15-3.06 11.72-2.88 11.14-2.88C9.98-2.88 9.15-3.69 9.15-4.80Z" fill="currentColor"/>
</svg>