<svg xmlns="http://www.w3.org/2000/svg" viewBox="0 0 24 24" width="24" height="24">
  <title>pencil.and.ruler</title>
  <path transform="matrix(0.7912223767578427, 0, 0, 0.7912223767578427, 2.3106165971256374, 18.71766342141864)" d="M2.99-18.88L4.93-18.88L4.93-20.13C4.93-20.81 4.62-21.13 4.02-21.13L3.86-21.13C3.29-21.13 2.99-20.75 2.99-20.13ZM13.65 4.15L18.89 4.15C20.50 4.15 21.50 3.15 21.50 1.54L21.50-18.48C21.50-20.10 20.50-21.09 18.89-21.09L13.65-21.09C12.04-21.09 11.05-20.10 11.05-18.48L11.05 1.54C11.05 3.15 12.04 4.15 13.65 4.15ZM13.75 3.32C12.56 3.32 11.88 2.61 11.88 1.45L11.88-18.41C11.88-19.57 12.56-20.26 13.75-20.26L18.80-20.26C19.98-20.26 20.66-19.57 20.67-18.41L15.73-18.41C15.53-18.41 15.39-18.27 15.39-18.08C15.39-17.88 15.53-17.75 15.73-17.75L20.67-17.75L20.67-16.49L17.59-16.49C17.38-16.49 17.26-16.36 17.26-16.16C17.26-15.95 17.38-15.83 17.59-15.83L20.67-15.83L20.67-14.57L17.59-14.57C17.38-14.57 17.26-14.43 17.26-14.23C17.26-14.04 17.38-13.91 17.59-13.91L20.67-13.91L20.67-12.66L17.59-12.66C17.38-12.66 17.26-12.50 17.26-12.32C17.26-12.12 17.38-12 17.59-12L20.67-12L20.67-10.73L17.59-10.73C17.38-10.73 17.26-10.59 17.26-10.39C17.26-10.20 17.38-10.08 17.59-10.08L20.67-10.08L20.67-8.80L15.73-8.80C15.53-8.80 15.39-8.66 15.39-8.46C15.39-8.27 15.53-8.14 15.73-8.14L20.67-8.14L20.67-6.87L17.59-6.87C17.38-6.87 17.26-6.74 17.26-6.55C17.26-6.35 17.38-6.21 17.59-6.21L20.67-6.21L20.67-4.96L17.59-4.96C17.38-4.96 17.26-4.83 17.26-4.63C17.26-4.43 17.38-4.30 17.59-4.30L20.67-4.30L20.67-3.04L17.59-3.04C17.38-3.04 17.26-2.91 17.26-2.71C17.26-2.52 17.38-2.38 17.59-2.38L20.67-2.38L20.67-1.11L17.59-1.11C17.38-1.11 17.26-0.98 17.26-0.80C17.26-0.59 17.38-0.46 17.59-0.46L20.67-0.46L20.67 0.79L15.73 0.79C15.53 0.79 15.39 0.93 15.39 1.13C15.39 1.32 15.53 1.44 15.73 1.44L20.67 1.44L20.67 1.45C20.67 2.61 19.98 3.32 18.80 3.32ZM2.99 1.57L3.75 3.98C3.81 4.17 4.08 4.17 4.14 4.00L4.93 1.58L4.93-17.88L2.99-17.88Z" fill="currentColor"/>
</svg>