<svg xmlns="http://www.w3.org/2000/svg" viewBox="0 0 24 24" width="24" height="24">
  
  <path transform="matrix(0.816490380920904, 0, 0, 0.816490380920904, 0.04826982049313333, 18.80063130749452)" d="M2.60-9.41L6.16 1.49C6.63 2.94 7.39 3.49 8.93 3.49L20.38 3.49C21.90 3.49 22.68 2.94 23.13 1.49L26.65-9.26C27.15-10.83 26.87-11.78 25.63-12.69L16.48-19.43C15.15-20.39 14.14-20.39 12.82-19.43L3.67-12.69C2.43-11.79 2.13-10.88 2.60-9.41ZM14.64-19.28C15.05-19.28 15.48-19.10 15.96-18.74L25.11-11.99C26.02-11.32 26.19-10.69 25.82-9.53L22.32 1.22C21.98 2.26 21.47 2.63 20.38 2.63L14.64 2.63Z" fill="currentColor"/>
</svg>