<svg xmlns="http://www.w3.org/2000/svg" viewBox="0 0 24 24" width="24" height="24">
  <title>person.bust.circle.fill</title>
  <path transform="matrix(0.8703042665306816, 0, 0, 0.8703042665306816, 0.17440081591024992, 19.36868944416114)" d="M13.59 3.02C19.91 3.02 25.08-2.13 25.08-8.46C25.08-14.79 19.91-19.96 13.59-19.96C7.27-19.96 2.10-14.79 2.10-8.46C2.10-2.13 7.27 3.02 13.59 3.02ZM13.58-11.11C12.29-11.11 11.31-12.21 11.31-13.65C11.31-14.99 12.32-16.13 13.58-16.13C14.86-16.13 15.86-14.99 15.86-13.65C15.86-12.21 14.87-11.11 13.58-11.11ZM9.50-5.98C9.05-5.98 8.73-6.23 8.73-6.63C8.73-8.04 10.55-10.17 13.57-10.17C16.59-10.17 18.41-8.04 18.41-6.63C18.41-6.23 18.09-5.98 17.64-5.98ZM8.31-1.71C8.12-1.71 7.96-1.88 7.96-2.06C7.96-2.26 8.12-2.43 8.31-2.43L8.40-2.43L8.40-4.63C8.40-5.07 8.66-5.34 9.09-5.34L18.08-5.34C18.52-5.34 18.79-5.07 18.79-4.63L18.79-2.43L18.87-2.43C19.05-2.43 19.22-2.26 19.22-2.06C19.22-1.88 19.05-1.71 18.87-1.71ZM11.89-3.15L15.28-3.15C15.45-3.15 15.60-3.30 15.60-3.47C15.60-3.66 15.45-3.79 15.28-3.79L11.89-3.79C11.72-3.79 11.58-3.66 11.58-3.47C11.58-3.30 11.72-3.15 11.89-3.15Z" fill="currentColor"/>
</svg>