<svg xmlns="http://www.w3.org/2000/svg" viewBox="0 0 24 24" width="24" height="24">
  
  <path transform="matrix(0.793739053670674, 0, 0, 0.793739053670674, 1.214760553931877, 19.600179579917572)" d="M13.59 3.02C19.93 3.02 25.08-2.11 25.08-8.46C25.08-14.12 21-18.82 15.60-19.78L15.60-21.68C15.60-22.16 15.27-22.32 14.85-22.02L11.32-19.56C10.97-19.31 10.97-18.98 11.32-18.74L14.85-16.27C15.27-15.97 15.60-16.14 15.60-16.61L15.60-18.87C20.50-17.93 24.19-13.63 24.19-8.46C24.19-2.60 19.45 2.13 13.59 2.13C7.73 2.13 2.99-2.60 2.99-8.46C2.99-12.32 5.05-15.70 8.14-17.54C8.37-17.68 8.43-17.94 8.31-18.16C8.19-18.38 7.90-18.43 7.65-18.28C4.31-16.28 2.10-12.62 2.10-8.46C2.10-2.11 7.24 3.02 13.59 3.02ZM16.66-8.77C17.96-8.77 18.95-9.89 18.95-11.33C18.95-12.69 17.94-13.83 16.66-13.83C15.40-13.83 14.38-12.68 14.39-11.33C14.40-9.89 15.39-8.77 16.66-8.77ZM9.89-8.65C11.02-8.65 11.89-9.61 11.89-10.88C11.89-12.06 10.99-13.04 9.89-13.04C8.80-13.04 7.90-12.06 7.91-10.86C7.92-9.61 8.78-8.65 9.89-8.65ZM6.46-3.45L11.52-3.45C10.88-3.91 11.34-5.70 12.66-6.81C12.01-7.35 11.10-7.75 9.89-7.75C7.27-7.75 5.64-5.86 5.64-4.18C5.64-3.67 5.89-3.45 6.46-3.45ZM12.73-3.45L20.59-3.45C21.22-3.45 21.54-3.63 21.54-4.16C21.54-5.64 19.66-7.71 16.66-7.71C13.63-7.71 11.75-5.64 11.75-4.16C11.75-3.63 12.08-3.45 12.73-3.45Z" fill="currentColor"/>
</svg>