<svg xmlns="http://www.w3.org/2000/svg" viewBox="0 0 24 24" width="24" height="24">
  <title>person.slash</title>
  <path transform="matrix(0.8970593840835293, 0, 0, 0.8970593840835293, 0.05388923658051081, 19.779252403660404)" d="M23.71 2.34C23.88 2.52 24.15 2.52 24.33 2.34C24.52 2.17 24.49 1.90 24.33 1.73L2.91-19.69C2.75-19.85 2.48-19.88 2.30-19.69C2.13-19.52 2.13-19.24 2.30-19.08ZM12.93-18.09C15.06-18.09 16.79-16.18 16.79-13.82C16.79-12.09 15.98-10.65 14.78-9.93L15.39-9.32C16.77-10.21 17.67-11.87 17.67-13.82C17.67-16.64 15.54-18.94 12.93-18.94C11.05-18.94 9.43-17.74 8.67-16.02L9.33-15.36C9.89-16.96 11.29-18.09 12.93-18.09ZM20.45 1.18L4.96 1.18C4.13 1.18 3.87 0.98 3.87 0.45C3.87-2.17 7.22-5.94 12.90-5.94C13.04-5.94 13.18-5.94 13.32-5.94L12.49-6.77C6.63-6.59 2.99-2.47 2.99 0.49C2.99 1.55 3.66 2.03 5.07 2.03L20.74 2.03C20.93 2.03 21.09 2.02 21.26 2.00Z" fill="currentColor"/>
</svg>