<svg xmlns="http://www.w3.org/2000/svg" viewBox="0 0 24 24" width="24" height="24">
  <title>pesetasign.arrow.trianglehead.counterclockwise.rotate.90</title>
  <path transform="matrix(0.7936191439480075, 0, 0, 0.7936191439480075, 2.097519905678875, 18.719412087919167)" d="M0.36-10.48C-0.11-10.48-0.27-10.14 0.02-9.71L2.48-6.20C2.74-5.85 3.07-5.85 3.32-6.20L5.78-9.73C6.07-10.14 5.91-10.48 5.44-10.48L3.18-10.48C4.13-15.38 8.41-19.07 13.58-19.07C19.44-19.07 24.19-14.32 24.19-8.46C24.19-2.60 19.44 2.13 13.58 2.13C9.73 2.13 6.35 0.08 4.51-3.02C4.36-3.23 4.10-3.30 3.88-3.19C3.68-3.06 3.61-2.77 3.76-2.53C5.78 0.81 9.42 3.02 13.58 3.02C19.93 3.02 25.08-2.11 25.08-8.46C25.08-14.81 19.93-19.96 13.58-19.96C7.92-19.96 3.22-15.87 2.27-10.48ZM11.20-3.35C11.44-3.35 11.60-3.52 11.60-3.74L11.60-7.27L13.85-7.27C15.68-7.27 16.98-8.36 17.09-10.13L17.75-10.13C17.91-10.13 18.02-10.24 18.02-10.39C18.02-10.55 17.91-10.65 17.75-10.65L17.07-10.65C16.93-12.35 15.64-13.42 13.85-13.42L11.21-13.42C10.97-13.42 10.82-13.27 10.82-13.01L10.82-10.65L10.02-10.65C9.87-10.65 9.74-10.55 9.74-10.39C9.74-10.24 9.87-10.13 10.02-10.13L10.82-10.13L10.82-3.74C10.82-3.52 10.98-3.35 11.20-3.35ZM11.60-12.74L13.68-12.74C15.11-12.74 16.13-12.01 16.27-10.65L11.60-10.65ZM11.60-7.96L11.60-10.13L16.27-10.13C16.17-8.71 15.18-7.96 13.66-7.96Z" fill="currentColor"/>
</svg>