<svg xmlns="http://www.w3.org/2000/svg" viewBox="0 0 24 24" width="24" height="24">
  <title>pesetasign.bank.building.fill</title>
  <path transform="matrix(0.8244766505636071, 0, 0, 0.8244766505636071, -0.4637681159420288, 18.97584541062802)" d="M3.42 3.45L26.81 3.45C27.06 3.45 27.25 3.25 27.25 3C27.25 2.77 27.06 2.57 26.81 2.57L26.18 2.57L26.18 1.85C26.18 1.65 26.05 1.52 25.84 1.52L25.10 1.52L25.10-13.35L26.23-13.35C26.53-13.35 26.68-13.55 26.68-13.78C26.68-13.92 26.60-14.09 26.41-14.20L16.31-20.03C15.93-20.25 15.52-20.37 15.12-20.37C14.72-20.37 14.31-20.25 13.93-20.03L3.83-14.20C3.63-14.09 3.55-13.92 3.55-13.78C3.55-13.55 3.70-13.35 4.02-13.35L5.14-13.35L5.14 1.52L4.39 1.52C4.20 1.52 4.07 1.65 4.07 1.85L4.07 2.57L3.42 2.57C3.19 2.57 2.99 2.77 2.99 3C2.99 3.25 3.19 3.45 3.42 3.45ZM12.73-2.03C12.49-2.03 12.33-2.19 12.33-2.43L12.33-8.85L11.53-8.85C11.37-8.85 11.25-8.98 11.25-9.13C11.25-9.28 11.37-9.39 11.53-9.39L12.33-9.39L12.33-11.75C12.33-12.01 12.48-12.16 12.73-12.16L15.39-12.16C17.20-12.16 18.50-11.11 18.63-9.39L19.31-9.39C19.48-9.39 19.59-9.28 19.59-9.13C19.59-8.98 19.48-8.85 19.31-8.85L18.66-8.85C18.55-7.08 17.24-5.98 15.39-5.98L13.13-5.98L13.13-2.43C13.13-2.19 12.96-2.03 12.73-2.03ZM13.13-9.39L17.81-9.39C17.67-10.75 16.65-11.48 15.21-11.48L13.13-11.48ZM13.13-6.67L15.20-6.67C16.72-6.67 17.73-7.43 17.82-8.85L13.13-8.85Z" fill="currentColor"/>
</svg>