<svg xmlns="http://www.w3.org/2000/svg" viewBox="0 0 24 24" width="24" height="24">
  
  <path transform="matrix(0.8244766505636071, 0, 0, 0.8244766505636071, -0.4637681159420288, 18.97584541062802)" d="M4.07 1.68L26.18 1.68L26.18 1.20C26.18 1.01 26.05 0.88 25.84 0.88L25.10 0.88L25.10-13.35L26.23-13.35C26.53-13.35 26.68-13.55 26.68-13.78C26.68-13.92 26.60-14.09 26.41-14.20L16.31-20.03C15.93-20.25 15.52-20.37 15.12-20.37C14.72-20.37 14.31-20.25 13.93-20.03L3.83-14.20C3.63-14.09 3.55-13.92 3.55-13.78C3.55-13.55 3.70-13.35 4.02-13.35L5.14-13.35L5.14 0.88L4.39 0.88C4.20 0.88 4.07 1.01 4.07 1.20ZM5.99 0.88L5.99-14.43L14.43-19.22C14.64-19.35 14.87-19.42 15.12-19.42C15.36-19.42 15.60-19.35 15.82-19.22L24.25-14.43L24.25 0.88ZM12.90-3.11C13.14-3.11 13.30-3.28 13.30-3.52L13.30-6.86L15.53-6.86C17.06-6.86 18.18-7.64 18.59-8.86L19.45-8.86C19.59-8.86 19.72-8.98 19.72-9.12C19.72-9.26 19.59-9.38 19.45-9.38L18.73-9.38C18.76-9.59 18.77-9.80 18.77-10.02C18.77-10.24 18.76-10.44 18.73-10.64L19.45-10.64C19.59-10.64 19.72-10.76 19.72-10.90C19.72-11.04 19.59-11.16 19.45-11.16L18.60-11.16C18.19-12.39 17.10-13.18 15.55-13.18L12.89-13.18C12.64-13.18 12.49-13.03 12.49-12.77L12.49-11.16L11.68-11.16C11.54-11.16 11.43-11.04 11.43-10.90C11.43-10.75 11.54-10.64 11.68-10.64L12.49-10.64L12.49-9.38L11.68-9.38C11.54-9.38 11.43-9.26 11.43-9.12C11.43-8.96 11.54-8.86 11.68-8.86L12.49-8.86L12.49-3.52C12.49-3.28 12.67-3.11 12.90-3.11ZM13.30-12.50L15.36-12.50C16.50-12.50 17.37-12.04 17.75-11.16L13.30-11.16ZM17.98-10.02C17.98-9.80 17.95-9.57 17.91-9.38L13.30-9.38L13.30-10.64L17.92-10.64C17.95-10.45 17.98-10.24 17.98-10.02ZM13.30-7.55L13.30-8.86L17.74-8.86C17.34-8.00 16.49-7.55 15.36-7.55ZM3.42 3.45L26.81 3.45C27.06 3.45 27.25 3.25 27.25 3C27.25 2.77 27.06 2.57 26.81 2.57L3.42 2.57C3.19 2.57 2.99 2.77 2.99 3C2.99 3.25 3.19 3.45 3.42 3.45Z" fill="currentColor"/>
</svg>