<svg xmlns="http://www.w3.org/2000/svg" viewBox="0 0 24 24" width="24" height="24">
  <title>phone.pause.circle.fill</title>
  <path transform="matrix(0.8703042665306816, 0, 0, 0.8703042665306816, 0.17440081591024992, 19.34829168791433)" d="M13.59 3.05C19.91 3.05 25.08-2.12 25.08-8.45C25.08-14.78 19.91-19.93 13.59-19.93C7.27-19.93 2.10-14.78 2.10-8.45C2.10-2.12 7.27 3.05 13.59 3.05ZM14.25-9.84C13.96-9.84 13.80-10.01 13.80-10.25L13.80-14.68C13.80-14.93 13.96-15.09 14.25-15.09L14.95-15.09C15.25-15.09 15.40-14.93 15.40-14.68L15.40-10.25C15.40-10.01 15.25-9.84 14.95-9.84ZM17.21-9.84C16.91-9.84 16.77-10.01 16.77-10.25L16.77-14.68C16.77-14.93 16.91-15.09 17.21-15.09L17.91-15.09C18.20-15.09 18.35-14.93 18.35-14.68L18.35-10.25C18.35-10.01 18.20-9.84 17.91-9.84ZM9.87-4.89C7.91-6.86 6.45-9.15 6.45-11.05C6.45-11.89 6.75-12.63 7.30-13.17C7.69-13.54 8.23-13.89 8.66-13.89C9.04-13.89 9.27-13.63 9.59-13.17L10.71-11.59C10.97-11.25 11.05-10.97 11.05-10.71C11.05-10.48 10.99-10.32 10.83-10.03L10.21-8.96C10.16-8.88 10.10-8.80 10.10-8.72C10.10-8.61 10.14-8.51 10.18-8.43C10.45-7.90 10.93-7.28 11.55-6.64C12.20-6 12.90-5.46 13.42-5.21C13.55-5.16 13.64-5.13 13.76-5.13C13.85-5.13 13.91-5.16 14.03-5.21L15.09-5.80C15.42-5.99 15.61-6.02 15.82-6.02C16.07-6.02 16.23-5.98 16.64-5.68L18.27-4.51C18.71-4.21 18.89-3.94 18.89-3.67C18.89-3.29 18.73-2.91 18.23-2.34C17.72-1.79 16.96-1.42 16.07-1.42C14.19-1.42 11.82-2.93 9.87-4.89Z" fill="currentColor"/>
</svg>