<svg xmlns="http://www.w3.org/2000/svg" viewBox="0 0 24 24" width="24" height="24">
  
  <path transform="matrix(1.1721611721611722, 0, 0, 1.1721611721611722, -1.5027472527472527, 21.903846153846153)" d="M7.07-0.45C7.36-0.45 7.54-0.63 7.54-0.90L7.54-15.57L15.66-15.57L15.66-3.46C15.66-1.45 16.44-0.53 18.19-0.53C19.17-0.53 19.50-0.74 19.50-1.08C19.50-1.31 19.37-1.44 19.09-1.44C18.88-1.44 18.67-1.38 18.26-1.38C17.11-1.38 16.59-2.06 16.59-3.57L16.59-15.57L19.61-15.57C19.86-15.57 20.05-15.74 20.05-16.02C20.05-16.29 19.86-16.45 19.61-16.45L3.43-16.45C3.18-16.45 2.99-16.29 2.99-16.02C2.99-15.74 3.18-15.57 3.43-15.57L6.61-15.57L6.61-0.90C6.61-0.63 6.79-0.45 7.07-0.45Z" fill="currentColor"/>
</svg>