<svg xmlns="http://www.w3.org/2000/svg" viewBox="0 0 24 24" width="24" height="24">
  
  <path transform="matrix(0.7099278979478647, 0, 0, 0.7099278979478647, -0.12146422628951736, 17.994176372712147)" d="M11.38-15.93L25.93-15.93L25.93-16.42C25.93-18.47 24.84-19.57 22.77-19.57L6.15-19.57C4.08-19.57 2.99-18.49 2.99-16.42L2.99-5.16C2.99-3.08 4.08-2.00 6.15-2.00L7.17-2.00L7.17-11.73C7.17-14.38 8.73-15.93 11.38-15.93ZM11.38 2.68L28.00 2.68C30.07 2.68 31.16 1.57 31.16-0.47L31.16-11.73C31.16-13.78 30.07-14.88 28.00-14.88L11.38-14.88C9.30-14.88 8.23-13.80 8.23-11.73L8.23-0.47C8.23 1.61 9.30 2.68 11.38 2.68ZM16.18-1.64L16.18-10.57C16.18-10.99 16.63-11.17 17.02-10.96L24.48-6.56C24.84-6.35 24.84-5.86 24.48-5.64L17.02-1.24C16.63-1.03 16.18-1.22 16.18-1.64Z" fill="currentColor"/>
</svg>