<svg xmlns="http://www.w3.org/2000/svg" viewBox="0 0 24 24" width="24" height="24">
  
  <path transform="matrix(0.735632183908046, 0, 0, 0.735632183908046, -0.1982758620689653, 18.224137931034484)" d="M6.15 1.91L27.02 1.91C29.10 1.91 30.18 0.81 30.18-1.24L30.18-15.68C30.18-17.73 29.10-18.83 27.02-18.83L6.15-18.83C4.08-18.83 2.99-17.75 2.99-15.68L2.99-1.24C2.99 0.83 4.08 1.91 6.15 1.91ZM6.18 1.04C4.65 1.04 3.86 0.25 3.86-1.28L3.86-15.63C3.86-17.17 4.65-17.96 6.18-17.96L26.99-17.96C28.46-17.96 29.31-17.17 29.31-15.63L29.31-1.28C29.31 0.25 28.46 1.04 26.99 1.04ZM14.32-3.87L21.04-7.92C21.45-8.18 21.45-8.71 21.04-8.95L14.32-13.05C13.92-13.29 13.42-13.09 13.42-12.66L13.42-4.27C13.42-3.83 13.91-3.62 14.32-3.87Z" fill="currentColor"/>
</svg>