<svg xmlns="http://www.w3.org/2000/svg" viewBox="0 0 24 24" width="24" height="24">
  <title>plusminus.circle.fill</title>
  <path transform="matrix(0.8703042665306816, 0, 0, 0.8703042665306816, 0.17440081591024992, 19.34829168791433)" d="M13.59 3.05C19.91 3.05 25.08-2.12 25.08-8.45C25.08-14.78 19.91-19.93 13.59-19.93C7.27-19.93 2.10-14.78 2.10-8.45C2.10-2.12 7.27 3.05 13.59 3.05ZM10.17-10.49C9.94-10.49 9.75-10.68 9.75-10.91C9.75-11.13 9.94-11.32 10.17-11.32L13.18-11.32L13.18-14.33C13.18-14.54 13.37-14.73 13.59-14.74C13.80-14.74 14.02-14.55 14.02-14.33L14.02-11.32L17.00-11.32C17.24-11.32 17.43-11.13 17.43-10.91C17.43-10.68 17.24-10.49 17.00-10.49L14.02-10.49L14.02-7.49C14.02-7.25 13.82-7.08 13.59-7.08C13.37-7.07 13.18-7.27 13.18-7.49L13.18-10.49ZM10.17-3.18C9.94-3.18 9.75-3.36 9.75-3.59C9.75-3.81 9.94-4.00 10.17-4.00L17.00-4.00C17.24-4.00 17.43-3.81 17.43-3.59C17.43-3.36 17.24-3.18 17.00-3.18Z" fill="currentColor"/>
</svg>