<svg xmlns="http://www.w3.org/2000/svg" viewBox="0 0 24 24" width="24" height="24">
  
  <path transform="matrix(0.8236808236808236, 0, 0, 0.8236808236808236, 0.2722007722007722, 18.787921267697318)" d="M13.58-19.96C7.28-19.96 2.10-14.78 2.10-8.46C2.10-4.02 4.66-0.14 8.33 1.75C8.91 2.06 9.32 1.29 8.73 0.96C5.34-0.79 2.99-4.35 2.99-8.46C2.99-14.31 7.73-19.07 13.58-19.07C17.53-19.07 21-16.89 22.83-13.68C23.14-13.11 23.92-13.52 23.57-14.12C21.59-17.60 17.85-19.96 13.58-19.96ZM15.91-9.22L20.36-9.22C20.58-9.22 20.74-9.38 20.74-9.60C20.74-9.80 20.58-9.95 20.36-9.95L15.25-9.95ZM19.05 3.42C19.42 3.26 19.61 2.84 19.44 2.46L17.50-2.07L20.32-2.00C20.61-1.99 20.77-2.32 20.57-2.54L14.14-9.60C13.95-9.82 13.58-9.68 13.58-9.38L13.72 0.05C13.71 0.36 14.07 0.48 14.29 0.27L16.17-1.65L18.08 3.02C18.23 3.39 18.66 3.57 19.05 3.42ZM17.81-7.15L22.24-7.15C22.44-7.15 22.62-7.32 22.62-7.54C22.62-7.73 22.45-7.89 22.24-7.89L17.13-7.89ZM19.66-5.11L24.13-5.11C24.33-5.11 24.49-5.26 24.49-5.47C24.49-5.67 24.33-5.82 24.13-5.82L19.01-5.82L19.34-5.46C19.44-5.34 19.56-5.23 19.66-5.11ZM21.34-3.05L26.00-3.05C26.21-3.05 26.38-3.20 26.38-3.41C26.38-3.62 26.21-3.77 26.00-3.77L20.86-3.77C21.06-3.54 21.21-3.29 21.34-3.05Z" fill="currentColor"/>
</svg>