<svg xmlns="http://www.w3.org/2000/svg" viewBox="0 0 24 24" width="24" height="24">
  <title>point.3.filled.connected.trianglepath.dotted</title>
  <path transform="matrix(0.8296872467995463, 0, 0, 0.8296872467995463, -0.4793388429752068, 19.019931939718035)" d="M6.29-11.59C8.12-11.59 9.60-13.07 9.60-14.89C9.60-16.71 8.12-18.20 6.29-18.20C4.46-18.20 2.99-16.71 2.99-14.89C2.99-13.07 4.46-11.59 6.29-11.59ZM23.80-11.59C25.62-11.59 27.09-13.07 27.09-14.89C27.09-16.71 25.62-18.20 23.80-18.20C21.96-18.20 20.48-16.71 20.48-14.89C20.48-13.07 21.96-11.59 23.80-11.59ZM11.98-14.11C12.35-14.11 12.66-14.43 12.66-14.80C12.66-15.18 12.35-15.48 11.98-15.48C11.60-15.48 11.29-15.18 11.29-14.80C11.29-14.43 11.60-14.11 11.98-14.11ZM15.05-14.11C15.42-14.11 15.74-14.43 15.74-14.80C15.74-15.18 15.42-15.48 15.05-15.48C14.67-15.48 14.37-15.18 14.37-14.80C14.37-14.43 14.67-14.11 15.05-14.11ZM18.11-14.11C18.48-14.11 18.80-14.43 18.80-14.80C18.80-15.18 18.48-15.48 18.11-15.48C17.73-15.48 17.43-15.18 17.43-14.80C17.43-14.43 17.73-14.11 18.11-14.11ZM20.78-8.87C21.15-8.87 21.47-9.19 21.47-9.56C21.47-9.94 21.15-10.24 20.78-10.24C20.40-10.24 20.10-9.94 20.10-9.56C20.10-9.19 20.40-8.87 20.78-8.87ZM9.29-8.87C9.67-8.87 9.97-9.19 9.97-9.56C9.97-9.94 9.67-10.24 9.29-10.24C8.92-10.24 8.60-9.94 8.60-9.56C8.60-9.19 8.92-8.87 9.29-8.87ZM18.60-6.47C18.97-6.47 19.28-6.77 19.28-7.15C19.28-7.52 18.97-7.84 18.60-7.84C18.22-7.84 17.91-7.52 17.91-7.15C17.91-6.77 18.22-6.47 18.60-6.47ZM11.47-6.47C11.85-6.47 12.16-6.77 12.16-7.15C12.16-7.52 11.85-7.84 11.47-7.84C11.10-7.84 10.79-7.52 10.79-7.15C10.79-6.77 11.10-6.47 11.47-6.47ZM15.05 1.28C16.88 1.28 18.35-0.20 18.35-2.03C18.35-3.86 16.88-5.33 15.05-5.33C13.22-5.33 11.74-3.86 11.74-2.03C11.74-0.20 13.22 1.28 15.05 1.28Z" fill="currentColor"/>
</svg>