<svg xmlns="http://www.w3.org/2000/svg" viewBox="0 0 24 24" width="24" height="24">
  
  <path transform="matrix(0.7600241387229808, 0, 0, 0.7600241387229808, -0.20060406563242816, 17.069853625616602)" d="M6.15-1.72L8.67-1.72L8.67-0.19C8.67 1.88 9.76 2.95 11.84 2.95L21.13 2.95C21.12 2.84 21.12 2.65 21.12 2.50L21.12 2.09L11.86 2.09C10.34 2.09 9.54 1.29 9.54-0.23L9.54-11.95C9.54-13.48 10.34-14.27 11.86-14.27L23.59-14.27C25.05-14.27 25.90-13.48 25.90-11.95L25.90-4.49L26.78-3.55L26.78-11.99C26.78-14.04 25.69-15.14 23.61-15.14L21.09-15.14L21.09-16.68C21.09-18.73 20.00-19.83 17.93-19.83L15.69-19.83L15.69-18.96L17.89-18.96C19.37-18.96 20.21-18.16 20.21-16.63L20.21-15.14L11.84-15.14C9.76-15.14 8.67-14.06 8.67-11.99L8.67-2.60L6.18-2.60C4.65-2.60 3.86-3.39 3.86-4.92L3.86-6.93L2.99-6.93L2.99-4.88C2.99-2.81 4.08-1.72 6.15-1.72ZM9.40-18.96L14.67-18.96L14.67-19.83L9.40-19.83ZM2.99-14.63L3.86-14.63L3.86-16.63C3.86-18.16 4.65-18.96 6.18-18.96L8.38-18.96L8.38-19.83L6.15-19.83C4.08-19.83 2.99-18.75 2.99-16.68ZM2.99-7.98L3.86-7.98L3.86-13.58L2.99-13.58ZM27.52 6.43C27.88 6.27 28.07 5.85 27.90 5.47L25.96 0.94L28.78 1.01C29.07 1.02 29.23 0.69 29.03 0.47L22.61-6.59C22.41-6.81 22.04-6.66 22.04-6.35L22.18 3.06C22.17 3.38 22.54 3.49 22.75 3.28L24.63 1.36L26.54 6.04C26.70 6.40 27.12 6.59 27.52 6.43Z" fill="currentColor"/>
</svg>