<svg xmlns="http://www.w3.org/2000/svg" viewBox="0 0 24 24" width="24" height="24">
  <title>poweroutlet.type.c.fill</title>
  <path transform="matrix(0.8703042665306816, 0, 0, 0.8703042665306816, 0.17440081591024992, 19.36868944416114)" d="M13.59 3.02C19.91 3.02 25.08-2.13 25.08-8.46C25.08-14.79 19.91-19.96 13.59-19.96C7.27-19.96 2.10-14.79 2.10-8.46C2.10-2.13 7.27 3.02 13.59 3.02ZM8.39-6.33C7.21-6.33 6.26-7.29 6.26-8.46C6.26-9.63 7.21-10.59 8.39-10.59C9.56-10.59 10.52-9.63 10.52-8.46C10.52-7.29 9.56-6.33 8.39-6.33ZM18.80-6.33C17.61-6.33 16.66-7.29 16.66-8.46C16.66-9.63 17.61-10.59 18.80-10.59C19.97-10.59 20.93-9.63 20.93-8.46C20.93-7.29 19.97-6.33 18.80-6.33Z" fill="currentColor"/>
</svg>