<svg xmlns="http://www.w3.org/2000/svg" viewBox="0 0 24 24" width="24" height="24">
  <title>poweroutlet.type.m</title>
  <path transform="matrix(0.925524222704266, 0, 0, 0.925524222704266, -0.7657266811279824, 19.809110629067245)" d="M6.15 1.93L21.43 1.93C23.51 1.93 24.60 0.83 24.60-1.21L24.60-15.66C24.60-17.70 23.51-18.81 21.43-18.81L6.15-18.81C4.08-18.81 2.99-17.73 2.99-15.66L2.99-1.21C2.99 0.86 4.08 1.93 6.15 1.93ZM6.18 1.07C4.65 1.07 3.86 0.27 3.86-1.25L3.86-15.61C3.86-17.14 4.65-17.94 6.18-17.94L21.41-17.94C22.88-17.94 23.73-17.14 23.73-15.61L23.73-1.25C23.73 0.27 22.88 1.07 21.41 1.07ZM13.79-10.72C14.65-10.72 15.34-11.43 15.34-12.28C15.34-13.14 14.65-13.83 13.79-13.83C12.94-13.83 12.23-13.14 12.23-12.28C12.23-11.43 12.94-10.72 13.79-10.72ZM9.69-3.11C10.54-3.11 11.24-3.81 11.24-4.66C11.24-5.51 10.54-6.21 9.69-6.21C8.84-6.21 8.13-5.51 8.13-4.66C8.13-3.81 8.84-3.11 9.69-3.11ZM17.89-3.11C18.75-3.11 19.45-3.81 19.45-4.66C19.45-5.51 18.75-6.21 17.89-6.21C17.04-6.21 16.35-5.51 16.35-4.66C16.35-3.81 17.04-3.11 17.89-3.11Z" fill="currentColor"/>
</svg>