<svg xmlns="http://www.w3.org/2000/svg" viewBox="0 0 24 24" width="24" height="24">
  <title>poweroutlet.type.l.square.fill</title>
  <path transform="matrix(0.9642184557438794, 0, 0, 0.9642184557438794, -0.8813559322033897, 20.15819209039548)" d="M6.15 1.91L20.58 1.91C22.65 1.91 23.73 0.81 23.73-1.24L23.73-15.68C23.73-17.73 22.65-18.83 20.58-18.83L6.15-18.83C4.08-18.83 2.99-17.75 2.99-15.68L2.99-1.24C2.99 0.83 4.08 1.91 6.15 1.91ZM11.40-2.04C10.88-2.04 10.51-2.39 10.51-2.93L10.51-13.96C10.51-14.48 10.88-14.84 11.40-14.84L15.32-14.84C15.84-14.84 16.21-14.48 16.21-13.96L16.21-2.93C16.21-2.39 15.84-2.04 15.32-2.04ZM13.36-11.04C13.97-11.04 14.45-11.52 14.45-12.13C14.45-12.73 13.97-13.21 13.36-13.21C12.76-13.21 12.28-12.73 12.28-12.13C12.28-11.52 12.76-11.04 13.36-11.04ZM13.36-7.38C13.97-7.38 14.45-7.86 14.45-8.46C14.45-9.07 13.97-9.55 13.36-9.55C12.76-9.55 12.28-9.07 12.28-8.46C12.28-7.86 12.76-7.38 13.36-7.38ZM13.36-3.71C13.97-3.71 14.45-4.20 14.45-4.79C14.45-5.40 13.97-5.88 13.36-5.88C12.76-5.88 12.28-5.40 12.28-4.79C12.28-4.20 12.76-3.71 13.36-3.71Z" fill="currentColor"/>
</svg>