<svg xmlns="http://www.w3.org/2000/svg" viewBox="0 0 24 24" width="24" height="24">
  <title>printer.dotmatrix.filled.and.paper.inverse</title>
  <path transform="matrix(0.795278036657347, 0, 0, 0.795278036657347, -0.3765144454799625, 18.612301957129542)" d="M7.51-17.30L23.61-17.30L23.61-17.87C23.61-19.59 22.72-20.34 20.98-20.34L10.15-20.34C8.43-20.34 7.51-19.59 7.51-17.87ZM5.92-0.07L6.61-0.07L6.61-7.59C6.61-9.18 7.56-10.13 9.15-10.13L22.00-10.13C23.59-10.13 24.54-9.18 24.54-7.59L24.54-0.07L25.21-0.07C27.15-0.07 28.14-1.02 28.14-2.98L28.14-13.46C28.14-15.42 27.15-16.37 25.21-16.37L5.92-16.37C4.00-16.37 2.99-15.42 2.99-13.46L2.99-2.98C2.99-1.02 3.97-0.07 5.92-0.07ZM20.95-13.03C20.95-13.75 21.57-14.39 22.34-14.39C23.04-14.39 23.67-13.75 23.67-13.03C23.67-12.29 23.04-11.66 22.34-11.67C21.57-11.70 20.95-12.26 20.95-13.03ZM7.66 2.13C7.66 3.09 8.30 3.71 9.26 3.71L21.89 3.71C22.85 3.71 23.48 3.09 23.48 2.13L23.48-7.59C23.48-8.48 22.89-9.07 22.00-9.07L9.15-9.07C8.26-9.07 7.66-8.48 7.66-7.59ZM11.39-5.44C10.88-5.44 10.45-5.85 10.45-6.36C10.45-6.89 10.88-7.30 11.39-7.30C11.91-7.30 12.33-6.89 12.33-6.36C12.33-5.85 11.91-5.44 11.39-5.44ZM19.78-5.44C19.27-5.44 18.84-5.85 18.84-6.36C18.84-6.89 19.27-7.30 19.78-7.30C20.30-7.30 20.72-6.89 20.72-6.36C20.72-5.85 20.30-5.44 19.78-5.44ZM11.39-1.75C10.88-1.75 10.45-2.16 10.45-2.68C10.45-3.20 10.88-3.61 11.39-3.61C11.91-3.61 12.33-3.20 12.33-2.68C12.33-2.16 11.91-1.75 11.39-1.75ZM19.78-1.75C19.27-1.75 18.84-2.16 18.84-2.68C18.84-3.20 19.27-3.61 19.78-3.61C20.30-3.61 20.72-3.20 20.72-2.68C20.72-2.16 20.30-1.75 19.78-1.75ZM11.39 1.95C10.88 1.95 10.45 1.54 10.45 1.01C10.45 0.48 10.88 0.08 11.39 0.08C11.91 0.08 12.33 0.48 12.33 1.01C12.33 1.54 11.91 1.95 11.39 1.95ZM19.78 1.95C19.27 1.95 18.84 1.54 18.84 1.01C18.84 0.48 19.27 0.08 19.78 0.08C20.30 0.08 20.72 0.48 20.72 1.01C20.72 1.54 20.30 1.95 19.78 1.95Z" fill="currentColor"/>
</svg>