<svg xmlns="http://www.w3.org/2000/svg" viewBox="0 0 24 24" width="24" height="24">
  
  <path transform="matrix(0.9642184557438794, 0, 0, 0.9642184557438794, -0.8813559322033897, 20.135593220338983)" d="M4.66-9.49L10.63-9.49C11.72-9.49 12.30-10.00 12.30-11.18L12.30-17.12C12.30-18.29 11.72-18.81 10.63-18.81L4.66-18.81C3.57-18.81 2.99-18.29 2.99-17.12L2.99-11.18C2.99-10.00 3.57-9.49 4.66-9.49ZM16.09-9.49L22.05-9.49C23.14-9.49 23.73-10.00 23.73-11.18L23.73-17.12C23.73-18.29 23.14-18.81 22.05-18.81L16.09-18.81C15-18.81 14.41-18.29 14.41-17.12L14.41-11.18C14.41-10.00 15-9.49 16.09-9.49ZM4.69-10.31C4.07-10.31 3.81-10.57 3.81-11.20L3.81-17.10C3.81-17.73 4.07-17.99 4.69-17.99L10.59-17.99C11.23-17.99 11.48-17.73 11.48-17.10L11.48-11.20C11.48-10.57 11.23-10.31 10.59-10.31ZM16.13-10.31C15.49-10.31 15.23-10.57 15.23-11.20L15.23-17.10C15.23-17.73 15.49-17.99 16.13-17.99L22.03-17.99C22.65-17.99 22.91-17.73 22.91-17.10L22.91-11.20C22.91-10.57 22.65-10.31 22.03-10.31ZM6.75-13.05L8.53-13.05C8.68-13.05 8.74-13.11 8.74-13.30L8.74-15.01C8.74-15.19 8.68-15.25 8.53-15.25L6.75-15.25C6.60-15.25 6.55-15.19 6.55-15.01L6.55-13.30C6.55-13.11 6.60-13.05 6.75-13.05ZM18.19-13.05L19.97-13.05C20.12-13.05 20.19-13.11 20.19-13.30L20.19-15.01C20.19-15.19 20.12-15.25 19.97-15.25L18.19-15.25C18.04-15.25 17.99-15.19 17.99-15.01L17.99-13.30C17.99-13.11 18.04-13.05 18.19-13.05ZM4.66 1.93L10.63 1.93C11.72 1.93 12.30 1.43 12.30 0.25L12.30-5.70C12.30-6.87 11.72-7.38 10.63-7.38L4.66-7.38C3.57-7.38 2.99-6.87 2.99-5.70L2.99 0.25C2.99 1.43 3.57 1.93 4.66 1.93ZM15.07-4.73L16.84-4.73C17.00-4.73 17.06-4.79 17.06-4.98L17.06-6.70C17.06-6.87 17.00-6.94 16.84-6.94L15.07-6.94C14.91-6.94 14.86-6.87 14.86-6.70L14.86-4.98C14.86-4.79 14.91-4.73 15.07-4.73ZM21.29-4.73L23.06-4.73C23.23-4.73 23.29-4.79 23.29-4.98L23.29-6.70C23.29-6.87 23.23-6.94 23.06-6.94L21.29-6.94C21.13-6.94 21.08-6.87 21.08-6.70L21.08-4.98C21.08-4.79 21.13-4.73 21.29-4.73ZM4.69 1.11C4.07 1.11 3.81 0.86 3.81 0.22L3.81-5.67C3.81-6.30 4.07-6.56 4.69-6.56L10.59-6.56C11.23-6.56 11.48-6.30 11.48-5.67L11.48 0.22C11.48 0.86 11.23 1.11 10.59 1.11ZM6.75-1.62L8.53-1.62C8.68-1.62 8.74-1.69 8.74-1.88L8.74-3.59C8.74-3.76 8.68-3.82 8.53-3.82L6.75-3.82C6.60-3.82 6.55-3.76 6.55-3.59L6.55-1.88C6.55-1.69 6.60-1.62 6.75-1.62ZM18.21-1.62L19.99-1.62C20.14-1.62 20.20-1.69 20.20-1.88L20.20-3.59C20.20-3.76 20.14-3.82 19.99-3.82L18.21-3.82C18.05-3.82 18-3.76 18-3.59L18-1.88C18-1.69 18.05-1.62 18.21-1.62ZM15.07 1.49L16.84 1.49C17.00 1.49 17.06 1.43 17.06 1.24L17.06-0.48C17.06-0.64 17.00-0.71 16.84-0.71L15.07-0.71C14.91-0.71 14.86-0.64 14.86-0.48L14.86 1.24C14.86 1.43 14.91 1.49 15.07 1.49ZM21.29 1.49L23.06 1.49C23.23 1.49 23.29 1.43 23.29 1.24L23.29-0.48C23.29-0.64 23.23-0.71 23.06-0.71L21.29-0.71C21.13-0.71 21.08-0.64 21.08-0.48L21.08 1.24C21.08 1.43 21.13 1.49 21.29 1.49Z" fill="currentColor"/>
</svg>