<svg xmlns="http://www.w3.org/2000/svg" viewBox="0 0 24 24" width="24" height="24">
  
  <path transform="matrix(0.7857581338244322, 0, 0, 0.7857581338244322, 0.35174953959484356, 19.430939226519335)" d="M14.82 1.05C22.22 1.05 27.55-3.38 27.55-9.46C27.55-15.56 22.22-19.97 14.82-19.97C7.43-19.97 2.10-15.56 2.10-9.46C2.10-5.02 4.62-3.84 4.62-1.70C4.62-0.75 4.21-0.16 3.56 0.42C3.27 0.66 3.38 1.05 3.77 1.05C5.21 1.05 6.87 0.41 7.97-0.45C9.93 0.54 12.25 1.05 14.82 1.05ZM14.86-6.89C14.59-6.89 14.41-7.07 14.41-7.35L14.41-7.76C14.41-8.73 14.84-9.34 15.81-10.02C16.95-10.82 17.37-11.32 17.37-12.13C17.37-13.18 16.48-13.95 15.08-13.95C13.79-13.95 12.87-13.03 12.77-12.08L12.73-11.92C12.68-11.72 12.53-11.59 12.29-11.59C12.07-11.59 11.88-11.74 11.88-12.02C11.88-12.20 11.89-12.33 11.92-12.47C12.09-13.69 13.28-14.75 15.12-14.75C16.96-14.75 18.32-13.70 18.32-12.19C18.32-11.06 17.80-10.36 16.57-9.53C15.63-8.89 15.30-8.45 15.30-7.70L15.30-7.34C15.30-7.08 15.14-6.89 14.86-6.89ZM14.85-3.73C14.37-3.73 13.98-4.13 13.98-4.58C13.98-5.04 14.37-5.44 14.85-5.44C15.33-5.44 15.71-5.04 15.71-4.58C15.71-4.13 15.33-3.73 14.85-3.73Z" fill="currentColor"/>
</svg>