<svg xmlns="http://www.w3.org/2000/svg" viewBox="0 0 24 24" width="24" height="24">
  <title>questionmark.square.dashed</title>
  <path transform="matrix(0.9642184557438794, 0, 0, 0.9642184557438794, -0.8813559322033897, 20.135593220338983)" d="M2.99-12.71L3.86-12.71L3.86-15.61C3.86-17.14 4.65-17.94 6.18-17.94L9.07-17.94L9.07-18.81L6.15-18.81C4.08-18.81 2.99-17.73 2.99-15.66ZM10.13-17.94L16.61-17.94L16.61-18.81L10.13-18.81ZM22.86-12.71L23.73-12.71L23.73-15.66C23.73-17.70 22.65-18.81 20.58-18.81L17.65-18.81L17.65-17.94L20.54-17.94C22.02-17.94 22.86-17.14 22.86-15.61ZM13.16-6.12C13.43-6.12 13.59-6.30 13.59-6.56L13.59-6.93C13.59-7.66 13.92-8.11 14.86-8.74C16.08-9.57 16.58-10.27 16.58-11.38C16.58-12.88 15.25-13.93 13.42-13.93C11.59-13.93 10.41-12.87 10.23-11.66C10.21-11.51 10.21-11.39 10.21-11.21C10.21-10.95 10.38-10.79 10.61-10.79C10.84-10.79 10.99-10.91 11.04-11.11L11.09-11.27C11.17-12.22 12.09-13.14 13.37-13.14C14.77-13.14 15.64-12.38 15.64-11.33C15.64-10.52 15.23-10.02 14.10-9.23C13.14-8.55 12.71-7.95 12.71-6.98L12.71-6.57C12.71-6.29 12.89-6.12 13.16-6.12ZM22.86-5.20L23.73-5.20L23.73-11.67L22.86-11.67ZM2.99-5.20L3.86-5.20L3.86-11.67L2.99-11.67ZM13.15-2.98C13.62-2.98 14.00-3.38 14.00-3.82C14.00-4.29 13.62-4.68 13.15-4.68C12.67-4.68 12.29-4.29 12.29-3.82C12.29-3.38 12.67-2.98 13.15-2.98ZM17.65 1.93L20.58 1.93C22.65 1.93 23.73 0.83 23.73-1.21L23.73-4.16L22.86-4.16L22.86-1.25C22.86 0.27 22.02 1.07 20.54 1.07L17.65 1.07ZM6.15 1.93L9.07 1.93L9.07 1.07L6.18 1.07C4.65 1.07 3.86 0.27 3.86-1.25L3.86-4.16L2.99-4.16L2.99-1.21C2.99 0.86 4.08 1.93 6.15 1.93ZM10.13 1.93L16.61 1.93L16.61 1.07L10.13 1.07Z" fill="currentColor"/>
</svg>