<svg xmlns="http://www.w3.org/2000/svg" viewBox="0 0 24 24" width="24" height="24">
  <title>quote.opening</title>
  <path transform="matrix(0.8224899598393575, 0, 0, 0.8224899598393575, -0.45783132530120474, 18.95421686746988)" d="M14.03-6.06C14.03-8.99 11.85-11.37 8.93-11.37C7.43-11.37 5.88-10.76 4.72-9.29L4.42-9.29C4.88-11.59 6.98-14.33 10.51-15.07C10.75-15.12 10.96-15.16 11.09-15.20C11.32-15.26 11.52-15.40 11.52-15.64C11.52-15.97 11.26-16.17 10.90-16.17C10.50-16.17 10.11-16.08 9.70-15.96C8.00-15.50 6.50-14.60 5.38-13.38C3.89-11.81 2.99-9.71 2.99-7.28C2.99-3.13 5.61-0.74 8.70-0.74C11.74-0.74 14.03-3.06 14.03-6.06ZM27.30-6.06C27.30-8.99 25.11-11.37 22.18-11.37C20.70-11.37 19.15-10.76 18-9.29L17.70-9.29C18.13-11.59 20.24-14.33 23.77-15.07C24-15.12 24.22-15.16 24.35-15.20C24.60-15.26 24.77-15.40 24.77-15.64C24.77-15.97 24.54-16.17 24.18-16.17C23.77-16.17 23.39-16.08 22.96-15.96C21.26-15.50 19.77-14.60 18.64-13.38C17.16-11.81 16.27-9.71 16.27-7.28C16.27-3.13 18.88-0.74 21.96-0.74C25.01-0.74 27.30-3.06 27.30-6.06Z" fill="currentColor"/>
</svg>