<svg xmlns="http://www.w3.org/2000/svg" viewBox="0 0 24 24" width="24" height="24">
  <title>rectangle.connected.to.line.below</title>
  <path transform="matrix(0.8559010364426614, 0, 0, 0.8559010364426614, 1.2978936810431292, 19.221664994984955)" d="M3.42 1.43L10.36 1.43C10.54 2.45 11.44 3.25 12.50 3.25C13.56 3.25 14.47 2.45 14.65 1.43L21.57 1.43C21.82 1.43 22.02 1.24 22.02 1.00C22.02 0.76 21.82 0.56 21.57 0.56L14.63 0.56C14.43-0.25 13.76-0.90 12.94-1.08L12.94-4.24L18.86-4.24C20.93-4.24 22.02-5.36 22.02-7.39L22.02-16.98C22.02-19.02 20.93-20.12 18.86-20.12L6.15-20.12C4.08-20.12 2.99-19.02 2.99-16.98L2.99-7.39C2.99-5.36 4.08-4.24 6.15-4.24L12.07-4.24L12.07-1.08C11.24-0.90 10.58-0.25 10.38 0.56L3.42 0.56C3.19 0.56 2.99 0.76 2.99 1.00C2.99 1.24 3.19 1.43 3.42 1.43ZM6.18-5.11C4.71-5.11 3.86-5.91 3.86-7.44L3.86-16.93C3.86-18.46 4.71-19.25 6.18-19.25L18.82-19.25C20.30-19.25 21.14-18.46 21.14-16.93L21.14-7.44C21.14-5.91 20.30-5.11 18.82-5.11Z" fill="currentColor"/>
</svg>