<svg xmlns="http://www.w3.org/2000/svg" viewBox="0 0 24 24" width="24" height="24">
  <title>rectangle.3.group.bubble.fill</title>
  <path transform="matrix(0.8023820717755837, 0, 0, 0.8023820717755837, -0.397743300423131, 18.21062529384109)" d="M9.02 3.75C9.28 3.75 9.48 3.60 9.73 3.39L13.98-0.29L23.45-0.29C26.21-0.29 27.91-2.03 27.91-4.76L27.91-14.77C27.91-17.50 26.21-19.23 23.45-19.23L7.45-19.23C4.69-19.23 2.99-17.52 2.99-14.77L2.99-4.76C2.99-2.00 4.69-0.29 7.45-0.29L8.45-0.29L8.45 3.09C8.45 3.49 8.68 3.75 9.02 3.75ZM7.80-10.24C7.22-10.24 6.91-10.52 6.91-11.14L6.91-14.13C6.91-14.75 7.22-15.02 7.80-15.02L13.73-15.02C14.32-15.02 14.65-14.75 14.65-14.13L14.65-11.14C14.65-10.52 14.32-10.24 13.73-10.24ZM18.15-5.30C17.57-5.30 17.26-5.57 17.26-6.19L17.26-13.24C17.26-13.85 17.57-14.12 18.15-14.12L22.50-14.12C23.07-14.12 23.39-13.85 23.39-13.24L23.39-6.19C23.39-5.57 23.07-5.30 22.50-5.30ZM9.33-4.49C8.74-4.49 8.43-4.76 8.43-5.39L8.43-7.61C8.43-8.23 8.74-8.50 9.33-8.50L14.51-8.50C15.09-8.50 15.40-8.23 15.40-7.61L15.40-5.39C15.40-4.76 15.09-4.49 14.51-4.49Z" fill="currentColor"/>
</svg>