<svg xmlns="http://www.w3.org/2000/svg" viewBox="0 0 24 24" width="24" height="24">
  
  <path transform="matrix(0.7498535442296427, 0, 0, 0.7498535442296427, 1.7583479789103684, 18.326889279437612)" d="M11.03-21.77C10.59-21.77 10.45-21.39 10.65-21.05L13.21-16.85C13.43-16.49 13.88-16.50 14.09-16.85L16.66-21.07C16.88-21.40 16.72-21.77 16.29-21.77ZM6.15-1.68L21.18-1.68C23.25-1.68 24.33-2.78 24.33-4.83L24.33-12.05C24.33-14.10 23.25-15.20 21.18-15.20L6.15-15.20C4.08-15.20 2.99-14.12 2.99-12.05L2.99-4.83C2.99-2.75 4.08-1.68 6.15-1.68ZM6.18-2.54C4.65-2.54 3.86-3.34 3.86-4.86L3.86-12.01C3.86-13.54 4.65-14.33 6.18-14.33L21.14-14.33C22.62-14.33 23.46-13.54 23.46-12.01L23.46-4.86C23.46-3.34 22.62-2.54 21.14-2.54ZM11.03 4.90L16.29 4.90C16.72 4.90 16.88 4.52 16.66 4.20L14.09-0.02C13.88-0.38 13.43-0.39 13.21-0.02L10.65 4.17C10.45 4.51 10.59 4.90 11.03 4.90Z" fill="currentColor"/>
</svg>