<svg xmlns="http://www.w3.org/2000/svg" viewBox="0 0 24 24" width="24" height="24">
  
  <path transform="matrix(0.804272698711907, 0, 0, 0.804272698711907, -0.40339302544769096, 18.786050895381713)" d="M4.76-9.49L26.07-9.49C27.23-9.49 27.86-10.03 27.86-11.26L27.86-17.04C27.86-18.27 27.23-18.81 26.07-18.81L4.76-18.81C3.60-18.81 2.99-18.27 2.99-17.04L2.99-11.26C2.99-10.03 3.60-9.49 4.76-9.49ZM4.76 1.93L26.07 1.93C27.23 1.93 27.86 1.39 27.86 0.16L27.86-5.61C27.86-6.84 27.23-7.38 26.07-7.38L4.76-7.38C3.60-7.38 2.99-6.84 2.99-5.61L2.99 0.16C2.99 1.39 3.60 1.93 4.76 1.93Z" fill="currentColor"/>
</svg>