<svg xmlns="http://www.w3.org/2000/svg" viewBox="0 0 24 24" width="24" height="24">
  
  <path transform="matrix(0.6769800343778923, 0, 0, 0.6769800343778923, -0.02300674335581121, 17.708052360174534)" d="M4.62-13.09L9.87-13.09C10.91-13.09 11.50-13.59 11.50-14.73L11.50-17.73C11.50-18.86 10.91-19.37 9.87-19.37L4.62-19.37C3.57-19.37 2.99-18.86 2.99-17.73L2.99-14.73C2.99-13.59 3.57-13.09 4.62-13.09ZM15.13-13.09L20.38-13.09C21.43-13.09 22.01-13.59 22.01-14.73L22.01-17.73C22.01-18.86 21.43-19.37 20.38-19.37L15.13-19.37C14.09-19.37 13.50-18.86 13.50-17.73L13.50-14.73C13.50-13.59 14.09-13.09 15.13-13.09ZM25.65-13.09L30.89-13.09C31.95-13.09 32.53-13.59 32.53-14.73L32.53-17.73C32.53-18.86 31.95-19.37 30.89-19.37L25.65-19.37C24.60-19.37 24.02-18.86 24.02-17.73L24.02-14.73C24.02-13.59 24.60-13.09 25.65-13.09ZM4.62-5.29L9.87-5.29C10.91-5.29 11.50-5.80 11.50-6.93L11.50-9.94C11.50-11.06 10.91-11.58 9.87-11.58L4.62-11.58C3.57-11.58 2.99-11.06 2.99-9.94L2.99-6.93C2.99-5.80 3.57-5.29 4.62-5.29ZM15.13-5.29L20.38-5.29C21.43-5.29 22.01-5.80 22.01-6.93L22.01-9.94C22.01-11.06 21.43-11.58 20.38-11.58L15.13-11.58C14.09-11.58 13.50-11.06 13.50-9.94L13.50-6.93C13.50-5.80 14.09-5.29 15.13-5.29ZM25.65-5.29L30.89-5.29C31.95-5.29 32.53-5.80 32.53-6.93L32.53-9.94C32.53-11.06 31.95-11.58 30.89-11.58L25.65-11.58C24.60-11.58 24.02-11.06 24.02-9.94L24.02-6.93C24.02-5.80 24.60-5.29 25.65-5.29ZM4.62 2.51L9.87 2.51C10.91 2.51 11.50 2.00 11.50 0.87L11.50-2.13C11.50-3.26 10.91-3.77 9.87-3.77L4.62-3.77C3.57-3.77 2.99-3.26 2.99-2.13L2.99 0.87C2.99 2.00 3.57 2.51 4.62 2.51ZM15.13 2.51L20.38 2.51C21.43 2.51 22.01 2.00 22.01 0.87L22.01-2.13C22.01-3.26 21.43-3.77 20.38-3.77L15.13-3.77C14.09-3.77 13.50-3.26 13.50-2.13L13.50 0.87C13.50 2.00 14.09 2.51 15.13 2.51ZM25.65 2.51L30.89 2.51C31.95 2.51 32.53 2.00 32.53 0.87L32.53-2.13C32.53-3.26 31.95-3.77 30.89-3.77L25.65-3.77C24.60-3.77 24.02-3.26 24.02-2.13L24.02 0.87C24.02 2.00 24.60 2.51 25.65 2.51Z" fill="currentColor"/>
</svg>