<svg xmlns="http://www.w3.org/2000/svg" viewBox="0 0 24 24" width="24" height="24">
  <title>rectangle.portrait.split.2x1.slash.fill</title>
  <path transform="matrix(0.8073163040050457, 0, 0, 0.8073163040050457, 1.9396287967824422, 18.81173131504257)" d="M3.50-19.57L12.02-11.04L12.02-20.82L6.14-20.82C4.88-20.82 4.00-20.40 3.50-19.57ZM12.89-10.17L21.93-1.14L21.93-17.66C21.93-19.73 20.84-20.82 18.77-20.82L12.89-20.82ZM23.27 2.99C23.44 3.15 23.72 3.15 23.88 2.99C24.07 2.80 24.05 2.54 23.88 2.37L1.65-19.86C1.49-20.02 1.23-20.04 1.03-19.86C0.87-19.69 0.87-19.42 1.03-19.24ZM2.99-15.70L2.99 0.79C2.99 2.87 4.07 3.95 6.14 3.95L12.02 3.95L12.02-6.67ZM12.89-5.80L12.89 3.95L18.77 3.95C20.04 3.95 20.93 3.52 21.40 2.71Z" fill="currentColor"/>
</svg>