<svg xmlns="http://www.w3.org/2000/svg" viewBox="0 0 24 24" width="24" height="24">
  <title>restart</title>
  <path transform="matrix(1.0256410256410255, 0, 0, 1.0256410256410255, 2.9555288461538476, 20.665865384615383)" d="M16.39 1.30C16.96 1.30 17.32 0.89 17.32 0.21L17.32-17.10C17.32-17.79 16.96-18.20 16.39-18.20C16.10-18.20 15.88-18.12 15.55-17.92L1.11-9.43C0.57-9.13 0.32-8.87 0.32-8.45C0.32-8.03 0.57-7.77 1.11-7.45L15.55 1.02C15.88 1.22 16.10 1.30 16.39 1.30ZM16.22 0.34C16.11 0.34 16.02 0.29 15.93 0.23L1.59-8.11C1.46-8.19 1.31-8.30 1.31-8.45C1.31-8.60 1.46-8.71 1.59-8.78L15.93-17.13C16.02-17.19 16.11-17.24 16.22-17.24C16.36-17.24 16.44-17.14 16.44-16.92L16.44 0.02C16.44 0.23 16.36 0.34 16.22 0.34Z" fill="currentColor"/>
</svg>