<svg xmlns="http://www.w3.org/2000/svg" viewBox="0 0 24 24" width="24" height="24">
  <title>robotic.vacuum</title>
  <path transform="matrix(0.8126984126984127, 0, 0, 0.8126984126984127, 0.2952380952380953, 18.89047619047619)" d="M14.40-0.91C21.02-0.91 26.71-2.92 26.71-6.20L26.71-10.92C26.71-10.93 26.71-10.95 26.71-10.96C26.71-14.02 21.40-16.04 14.40-16.04C7.41-16.04 2.10-14.02 2.10-10.96L2.10-10.92L2.10-6.20C2.10-2.92 7.78-0.91 14.40-0.91ZM14.40-6.76C8.60-6.76 2.98-8.38 2.98-10.96C2.98-13.31 7.56-15.22 14.40-15.22C21.25-15.22 25.83-13.31 25.83-10.96C25.83-8.38 20.19-6.76 14.40-6.76ZM14.40-10.88C16.31-10.88 17.66-11.37 17.66-12.21C17.66-13.03 16.32-13.55 14.40-13.55C12.48-13.55 11.14-13.03 11.14-12.21C11.14-11.37 12.49-10.88 14.40-10.88ZM14.40-11.52C13.05-11.52 11.93-11.81 11.93-12.21C11.93-12.57 12.86-12.90 14.40-12.90C15.95-12.90 16.88-12.57 16.88-12.21C16.88-11.81 15.75-11.52 14.40-11.52ZM10.72-8.32C11.32-8.32 11.82-8.55 11.82-8.86C11.82-9.16 11.32-9.40 10.72-9.40C10.11-9.40 9.62-9.16 9.62-8.86C9.62-8.55 10.11-8.32 10.72-8.32ZM18.08-8.32C18.69-8.32 19.20-8.55 19.20-8.86C19.20-9.16 18.69-9.40 18.08-9.40C17.48-9.40 16.98-9.16 16.98-8.86C16.98-8.55 17.48-8.32 18.08-8.32ZM14.40-5.89C19.78-5.89 24.12-7.09 25.86-9L25.86-6.25C25.86-4.93 24.56-3.80 22.43-3L22.43-3.76C22.43-4.11 22.18-4.31 21.88-4.21C19.59-3.52 17.23-3.18 14.40-3.18C11.61-3.18 9.20-3.52 6.93-4.21C6.62-4.31 6.36-4.11 6.36-3.76L6.36-3C4.24-3.80 2.93-4.93 2.93-6.25L2.93-9C4.69-7.09 9.02-5.89 14.40-5.89ZM14.40-7.90C15-7.90 15.50-8.14 15.50-8.45C15.50-8.73 15-8.99 14.40-8.99C13.80-8.99 13.30-8.73 13.30-8.45C13.30-8.14 13.80-7.90 14.40-7.90Z" fill="currentColor"/>
</svg>