<svg xmlns="http://www.w3.org/2000/svg" viewBox="0 0 24 24" width="24" height="24">
  <title>roman.shade.closed</title>
  <path transform="matrix(0.8469809760132341, 0, 0, 0.8469809760132341, -0.42183622828784184, 19.161290322580644)" d="M3.13-19.83C3.13-19.59 3.33-19.39 3.56-19.39L25.86-19.39C26.11-19.39 26.30-19.59 26.30-19.83C26.30-20.06 26.11-20.26 25.86-20.26L3.56-20.26C3.33-20.26 3.13-20.06 3.13-19.83ZM6.18-11.48L25.21-11.48C25.61-11.48 25.86-11.73 25.86-12.11L25.86-17.24C25.86-17.60 25.61-17.85 25.21-17.85L6.18-17.85C5.78-17.85 5.52-17.60 5.52-17.24L5.52-12.11C5.52-11.73 5.78-11.48 6.18-11.48ZM3.56-16.57C3.86-16.57 4.09-16.80 4.09-17.10C4.09-17.39 3.86-17.63 3.56-17.63C3.27-17.63 3.04-17.39 3.04-17.10C3.04-16.80 3.27-16.57 3.56-16.57ZM3.56-13.80C3.86-13.80 4.09-14.04 4.09-14.33C4.09-14.63 3.86-14.86 3.56-14.86C3.27-14.86 3.04-14.63 3.04-14.33C3.04-14.04 3.27-13.80 3.56-13.80ZM3.56-11.03C3.86-11.03 4.09-11.26 4.09-11.55C4.09-11.85 3.86-12.07 3.56-12.07C3.27-12.07 3.04-11.85 3.04-11.55C3.04-11.26 3.27-11.03 3.56-11.03ZM6.18-4.07L25.21-4.07C25.61-4.07 25.86-4.31 25.86-4.69L25.86-9.82C25.86-10.18 25.61-10.44 25.21-10.44L6.18-10.44C5.78-10.44 5.52-10.18 5.52-9.82L5.52-4.69C5.52-4.31 5.78-4.07 6.18-4.07ZM3.56-4.99C3.79-4.99 4.00-5.18 4.00-5.43L4.00-8.87C4.00-9.11 3.80-9.30 3.56-9.30C3.33-9.30 3.14-9.11 3.14-8.87L3.14-5.43C3.14-5.18 3.34-4.99 3.56-4.99ZM6.18 3.35L25.21 3.35C25.61 3.35 25.86 3.11 25.86 2.73L25.86-2.40C25.86-2.77 25.61-3.02 25.21-3.02L6.18-3.02C5.78-3.02 5.52-2.77 5.52-2.40L5.52 2.73C5.52 3.11 5.78 3.35 6.18 3.35Z" fill="currentColor"/>
</svg>