<svg xmlns="http://www.w3.org/2000/svg" viewBox="0 0 24 24" width="24" height="24">
  
  <path transform="matrix(0.7825156655968211, 0, 0, 0.7825156655968211, -0.33837689133425064, 18.62540119211371)" d="M11.72-18.09C5.47-18.09 2.99-15.14 2.99-9.42L2.99-1.86C2.99 0.11 4.04 1.16 6.02 1.16L25.50 1.16C27.48 1.16 28.55 0.08 28.55-1.86L28.55-9.42C28.55-15.14 26.06-18.09 19.82-18.09ZM10.64-3.64C10.36-3.64 10.17-3.84 10.17-4.13L10.17-12.75C10.17-13.04 10.34-13.23 10.63-13.23L12.55-13.23C14.26-13.23 15.22-12.16 15.22-10.50C15.22-9.18 14.59-8.30 13.64-7.95L15.19-4.37C15.23-4.27 15.27-4.16 15.27-4.09C15.27-3.81 15.07-3.64 14.82-3.64C14.59-3.64 14.45-3.75 14.36-3.97L12.76-7.72L11.10-7.72L11.10-4.13C11.10-3.84 10.92-3.64 10.64-3.64ZM19.11-3.60C18.86-3.60 18.66-3.80 18.66-4.05L18.66-12.39L16.73-12.39C16.51-12.39 16.34-12.56 16.34-12.79C16.34-13.01 16.51-13.18 16.73-13.18L21.28-13.18C21.50-13.18 21.68-13.01 21.68-12.79C21.68-12.56 21.50-12.39 21.28-12.39L19.57-12.39L19.57-4.05C19.57-3.80 19.37-3.60 19.11-3.60ZM11.10-8.50L12.47-8.50C13.72-8.50 14.30-9.33 14.30-10.48C14.30-11.74 13.58-12.45 12.46-12.45L11.10-12.45Z" fill="currentColor"/>
</svg>