<svg xmlns="http://www.w3.org/2000/svg" viewBox="0 0 24 24" width="24" height="24">
  <title>rublesign.gauge.chart.leftthird.topthird.rightthird</title>
  <path transform="matrix(0.7384970431270734, 0, 0, 0.7384970431270734, 0.4508870618779748, 18.285022717438338)" d="M15.63-15.15C17.74-15.15 19.66-14.44 21.19-13.21C21.43-13.02 21.74-13.04 21.96-13.27L24.38-15.68C24.64-15.94 24.64-16.34 24.36-16.57C22.01-18.56 18.95-19.77 15.63-19.77C12.33-19.77 9.27-18.56 6.91-16.57C6.63-16.34 6.63-15.94 6.89-15.68L9.32-13.27C9.54-13.04 9.87-13.03 10.11-13.24C11.64-14.44 13.56-15.15 15.63-15.15ZM2.10-6.23C2.10-2.91 3.30 0.16 5.31 2.52C5.55 2.81 5.95 2.82 6.21 2.55L8.63 0.11C8.84-0.12 8.86-0.42 8.66-0.67C7.44-2.20 6.71-4.14 6.71-6.23C6.71-8.32 7.43-10.24 8.64-11.77C8.84-12.02 8.82-12.34 8.60-12.57L6.20-14.98C5.94-15.22 5.54-15.25 5.30-14.95C3.29-12.60 2.10-9.55 2.10-6.23ZM29.18-6.23C29.18-9.55 27.98-12.60 25.98-14.95C25.73-15.25 25.34-15.22 25.08-14.98L22.68-12.57C22.45-12.34 22.44-12.02 22.64-11.77C23.85-10.24 24.56-8.32 24.56-6.23C24.56-4.14 23.84-2.20 22.62-0.67C22.42-0.42 22.44-0.12 22.65 0.11L25.07 2.55C25.32 2.82 25.72 2.81 25.97 2.52C27.97 0.16 29.18-2.91 29.18-6.23ZM13.63-1.03C13.88-1.03 14.03-1.20 14.03-1.44L14.03-2.99L16.92-2.99C17.07-2.99 17.18-3.08 17.18-3.26C17.18-3.40 17.07-3.50 16.92-3.50L14.03-3.50L14.03-5.12L16.28-5.12C18.20-5.12 19.48-6.29 19.48-8.11C19.48-9.97 18.13-11.10 16.29-11.10L13.63-11.10C13.39-11.10 13.24-10.92 13.24-10.66L13.24-5.64L11.98-5.64C11.81-5.64 11.71-5.53 11.71-5.38C11.71-5.23 11.81-5.12 11.98-5.12L13.24-5.12L13.24-3.50L11.98-3.50C11.81-3.50 11.71-3.40 11.71-3.26C11.71-3.08 11.81-2.99 11.98-2.99L13.24-2.99L13.24-1.44C13.24-1.20 13.39-1.03 13.63-1.03ZM14.03-5.80L14.03-10.39L16.10-10.39C17.73-10.39 18.66-9.53 18.66-8.11C18.66-6.67 17.74-5.80 16.10-5.80Z" fill="currentColor"/>
</svg>