<svg xmlns="http://www.w3.org/2000/svg" viewBox="0 0 24 24" width="24" height="24">
  <title>rugbyball.circle</title>
  <path transform="matrix(0.8703042665306816, 0, 0, 0.8703042665306816, 0.17440081591024992, 19.36868944416114)" d="M13.59 3.02C19.93 3.02 25.08-2.11 25.08-8.46C25.08-14.81 19.93-19.96 13.59-19.96C7.24-19.96 2.10-14.81 2.10-8.46C2.10-2.11 7.24 3.02 13.59 3.02ZM13.59 2.13C7.73 2.13 2.99-2.60 2.99-8.46C2.99-14.32 7.73-19.07 13.59-19.07C19.45-19.07 24.19-14.32 24.19-8.46C24.19-2.60 19.45 2.13 13.59 2.13ZM19.20-13.69L15.79-10.28L16.30-9.76C16.39-9.67 16.38-9.50 16.30-9.41C16.21-9.33 16.05-9.32 15.96-9.41L14.55-10.82C14.46-10.91 14.46-11.06 14.55-11.16C14.65-11.25 14.82-11.25 14.91-11.16L15.43-10.62L18.84-14.02C18.76-14.07 18.64-14.11 18.49-14.16C15.64-15.01 12.43-13.95 10.29-11.79C8.13-9.63 7.01-6.40 7.93-3.57C7.97-3.46 8.02-3.34 8.05-3.23L11.46-6.66L10.93-7.18C10.84-7.29 10.84-7.44 10.93-7.54C11.03-7.63 11.19-7.63 11.27-7.54L12.67-6.13C12.76-6.04 12.76-5.87 12.67-5.79C12.59-5.71 12.43-5.70 12.33-5.79L11.81-6.30L8.40-2.89C8.50-2.84 8.61-2.80 8.74-2.75C11.59-1.89 14.80-2.95 16.96-5.11C19.11-7.27 20.19-10.48 19.32-13.32C19.29-13.48 19.24-13.59 19.20-13.69ZM15.38-8.84C15.47-8.74 15.47-8.59 15.38-8.50C15.29-8.41 15.14-8.40 15.05-8.50L13.64-9.90C13.55-10.00 13.55-10.15 13.64-10.24C13.73-10.34 13.90-10.34 13.98-10.24ZM14.50-7.93C14.59-7.84 14.59-7.68 14.50-7.58C14.41-7.50 14.25-7.49 14.16-7.58L12.76-8.99C12.67-9.08 12.67-9.25 12.76-9.34C12.86-9.43 13.02-9.43 13.10-9.34ZM13.57-7.03C13.66-6.95 13.66-6.79 13.57-6.69C13.49-6.61 13.34-6.60 13.24-6.69L11.84-8.10C11.74-8.19 11.74-8.34 11.84-8.44C11.93-8.53 12.09-8.53 12.18-8.44Z" fill="currentColor"/>
</svg>