<svg xmlns="http://www.w3.org/2000/svg" viewBox="0 0 24 24" width="24" height="24">
  
  <path transform="matrix(0.8772449692058149, 0, 0, 0.8772449692058149, -0.35384048278338076, 19.419344443847994)" d="M24.90-17.70C24.81-18.02 24.71-18.28 24.60-18.48L18.02-11.91L19.08-10.83C19.22-10.69 19.22-10.46 19.08-10.34C18.94-10.20 18.71-10.20 18.57-10.34L15.95-12.96C15.80-13.11 15.81-13.32 15.95-13.48C16.09-13.61 16.32-13.62 16.45-13.48L17.52-12.39L24.09-18.97C23.89-19.08 23.66-19.18 23.32-19.28C18.33-20.82 12.15-19.25 7.71-14.81C3.29-10.38 1.71-4.20 3.27 0.80C3.38 1.13 3.46 1.38 3.59 1.58L10.16-5.00L9.08-6.09C8.93-6.25 8.94-6.46 9.08-6.61C9.22-6.75 9.45-6.76 9.60-6.61L12.22-3.98C12.36-3.84 12.36-3.60 12.22-3.46C12.08-3.32 11.86-3.32 11.71-3.46L10.66-4.52L4.09 2.06C4.28 2.17 4.52 2.26 4.84 2.37C9.86 3.90 16.01 2.34 20.45-2.10C24.87-6.53 26.45-12.69 24.90-17.70ZM14.23-11.25C14.10-11.39 14.10-11.61 14.23-11.75C14.38-11.89 14.59-11.91 14.74-11.75L17.37-9.12C17.51-8.98 17.51-8.75 17.37-8.60C17.23-8.48 16.99-8.47 16.85-8.60ZM12.50-9.54C12.38-9.68 12.38-9.90 12.50-10.04C12.66-10.18 12.87-10.20 13.02-10.04L15.64-7.41C15.79-7.27 15.79-7.04 15.64-6.90C15.50-6.77 15.27-6.76 15.13-6.90ZM10.79-7.82C10.66-7.96 10.66-8.18 10.79-8.32C10.95-8.46 11.16-8.47 11.31-8.32L13.93-5.70C14.07-5.55 14.07-5.32 13.93-5.17C13.79-5.05 13.56-5.03 13.42-5.17Z" fill="currentColor"/>
</svg>