<svg xmlns="http://www.w3.org/2000/svg" viewBox="0 0 24 24" width="24" height="24">
  <title>ruler.fill</title>
  <path transform="matrix(0.7296565483824996, 0, 0, 0.7296565483824996, -0.1804189824711413, 18.173578452330055)" d="M30.40-11.31C30.40-13.09 29.37-14.12 27.57-14.12L5.81-14.12C4.02-14.12 2.99-13.09 2.99-11.31L2.99-5.61C2.99-3.83 4.02-2.80 5.81-2.80L27.57-2.80C29.37-2.80 30.40-3.83 30.40-5.61ZM6.38-13.01L6.38-7.82C6.38-7.61 6.25-7.46 6.05-7.46C5.85-7.46 5.71-7.61 5.71-7.82L5.71-13.01ZM8.51-13.01L8.51-9.84C8.51-9.63 8.38-9.49 8.17-9.49C7.98-9.49 7.84-9.63 7.84-9.84L7.84-13.01ZM10.64-13.01L10.64-9.84C10.64-9.63 10.51-9.49 10.30-9.49C10.11-9.49 9.97-9.63 9.97-9.84L9.97-13.01ZM12.77-13.01L12.77-9.84C12.77-9.63 12.63-9.49 12.43-9.49C12.23-9.49 12.09-9.63 12.09-9.84L12.09-13.01ZM14.91-13.01L14.91-9.84C14.91-9.63 14.77-9.49 14.57-9.49C14.37-9.49 14.23-9.63 14.23-9.84L14.23-13.01ZM17.04-13.01L17.04-7.82C17.04-7.61 16.91-7.46 16.71-7.46C16.51-7.46 16.37-7.61 16.37-7.82L16.37-13.01ZM19.17-13.01L19.17-9.84C19.17-9.63 19.04-9.49 18.83-9.49C18.64-9.49 18.50-9.63 18.50-9.84L18.50-13.01ZM21.30-13.01L21.30-9.84C21.30-9.63 21.18-9.49 20.96-9.49C20.78-9.49 20.64-9.63 20.64-9.84L20.64-13.01ZM23.44-13.01L23.44-9.84C23.44-9.63 23.30-9.49 23.10-9.49C22.90-9.49 22.76-9.63 22.76-9.84L22.76-13.01ZM25.57-13.01L25.57-9.84C25.57-9.63 25.43-9.49 25.23-9.49C25.03-9.49 24.89-9.63 24.89-9.84L24.89-13.01ZM27.68-13.01L27.68-7.82C27.68-7.61 27.55-7.46 27.34-7.46C27.15-7.46 27.01-7.61 27.01-7.82L27.01-13.01Z" fill="currentColor"/>
</svg>