<svg xmlns="http://www.w3.org/2000/svg" viewBox="0 0 24 24" width="24" height="24">
  <title>sailboat.fill</title>
  <path transform="matrix(0.6533945890760592, 0, 0, 0.6533945890760592, 1.9655436447166925, 17.52833078101072)" d="M5.72-2.10C8.14-1.83 11.44-1.80 13.95-2.02L13.71 0.59C10.92 0.64 8.12 0.64 5.44 0.64C4.73 0.64 4.43 1.15 4.65 1.78L5.57 4.29C5.70 4.21 5.81 4.10 5.96 4.01C6.88 3.36 7.90 2.66 9.32 2.66C10.78 2.66 11.82 3.39 12.74 4.07C13.55 4.68 14.04 5.04 14.88 5.04C15.74 5.04 16.23 4.68 17.04 4.07C17.94 3.39 19.00 2.66 20.45 2.66C21.87 2.66 22.90 3.36 23.80 4.01C23.94 4.10 24.08 4.21 24.21 4.30C25.35 2.93 26.11 1.32 26.11 0.53C26.11 0.02 25.76-0.30 25.15-0.21C21.82 0.25 18.21 0.46 14.58 0.56L14.80-2.04C18.04-1.71 21.28-1.88 23.31-2.19C24.66-2.40 25.34-2.94 25.78-4.11C26.47-5.96 26.73-7.68 26.73-9.57C26.73-14.53 24.59-19.99 17.86-23.54C17.58-23.70 17.27-23.77 16.99-23.77C16.39-23.77 15.88-23.41 15.81-22.61L15.35-17.57L5.24-3.45C4.76-2.78 4.98-2.17 5.72-2.10ZM16.62-22.55C16.63-22.72 16.85-22.77 16.92-22.57C17.80-19.98 18.42-16.84 18.42-13.73C18.42-9.91 17.47-6.14 14.93-3.48ZM14.88 6.84C17.77 6.84 18.25 4.46 20.45 4.46C22.70 4.46 23.03 6.84 26.31 6.84L27.32 6.84C27.55 6.84 27.73 6.66 27.73 6.43C27.73 6.21 27.55 6.02 27.32 6.02L26.31 6.02C24.91 6.02 24.11 5.41 23.23 4.80C22.46 4.25 21.62 3.64 20.45 3.64C19.24 3.64 18.40 4.28 17.64 4.85C16.83 5.46 16.08 6.02 14.88 6.02C13.70 6.02 12.95 5.46 12.14 4.85C11.38 4.28 10.52 3.64 9.32 3.64C8.16 3.64 7.31 4.25 6.55 4.80C5.67 5.41 4.86 6.02 3.46 6.02L3.40 6.02C3.18 6.02 2.99 6.21 2.99 6.43C2.99 6.66 3.18 6.84 3.40 6.84L3.46 6.84C6.74 6.84 7.07 4.46 9.32 4.46C11.53 4.46 12 6.84 14.88 6.84Z" fill="currentColor"/>
</svg>