<svg xmlns="http://www.w3.org/2000/svg" viewBox="0 0 24 24" width="24" height="24">
  <title>scalemass</title>
  <path transform="matrix(0.8486656721365822, 0, 0, 0.8486656721365822, 0.018472429067958096, 19.17553455992044)" d="M3.15 0.14C2.61 2.21 3.42 3.33 5.47 3.33L22.76 3.33C24.82 3.33 25.63 2.21 25.08 0.14L22.38-10.28C21.98-11.85 21-12.68 19.55-12.68L14.55-12.68L14.55-14.10C16.03-14.32 17.20-15.62 17.20-17.14C17.20-18.83 15.79-20.24 14.12-20.24C12.43-20.24 11.04-18.82 11.04-17.14C11.04-15.61 12.21-14.32 13.69-14.10L13.69-12.68L8.70-12.68C7.24-12.68 6.26-11.85 5.85-10.28ZM14.12-14.88C12.88-14.88 11.86-15.90 11.86-17.14C11.86-18.38 12.87-19.42 14.12-19.42C15.35-19.42 16.39-18.39 16.39-17.14C16.39-15.91 15.36-14.88 14.12-14.88ZM4.01 0.14L6.69-10.10C7.00-11.24 7.68-11.81 8.74-11.81L19.49-11.81C20.55-11.81 21.25-11.24 21.55-10.10L24.22 0.14C24.62 1.66 24.14 2.46 22.75 2.46L5.48 2.46C4.09 2.46 3.61 1.66 4.01 0.14Z" fill="currentColor"/>
</svg>