<svg xmlns="http://www.w3.org/2000/svg" viewBox="0 0 24 24" width="24" height="24">
  
  <path transform="matrix(0.6047720292936452, 0, 0, 0.6047720292936452, 0.7313961729270022, 16.42598638868287)" d="M29.00 3.41C29.18 3.57 29.45 3.57 29.61 3.41C29.80 3.22 29.79 2.96 29.61 2.80L8.78-18.05C8.63-18.20 8.36-18.22 8.17-18.05C8.00-17.87 8.00-17.60 8.17-17.43ZM34.71 0.18C34.96 0.18 35.17-0.01 35.17-0.27C35.17-10.07 27.74-18.07 18.62-18.07C16.18-18.07 13.85-17.50 11.77-16.46L12.45-15.77C14.33-16.68 16.42-17.18 18.62-17.18C27.25-17.18 34.28-9.57 34.28-0.27C34.28-0.01 34.46 0.18 34.71 0.18ZM2.54 0.18C2.80 0.18 2.99-0.01 2.99-0.27C2.99-6.08 5.73-11.25 9.91-14.29L9.28-14.92C4.95-11.72 2.10-6.34 2.10-0.27C2.10-0.01 2.31 0.18 2.54 0.18ZM20.37-7.85C21.39-8.47 22.07-9.69 22.07-11.11C22.07-13.14 20.52-14.82 18.64-14.82C17.27-14.82 16.08-13.92 15.57-12.66ZM29.70 0.11C29.80 0.02 29.88-0.11 29.88-0.26C29.88-4.91 27.08-8.95 23.06-10.71C23.06-10.39 23.02-10.08 22.95-9.77C26.44-8.14 28.85-4.68 28.98-0.62ZM7.83 0.18C8.07 0.18 8.29-0.01 8.29-0.26C8.29-4.50 10.78-8.14 14.40-9.80C14.34-9.86 14.29-9.91 14.23-9.97L13.75-10.45C9.97-8.61 7.38-4.72 7.38-0.26C7.38-0.01 7.58 0.18 7.83 0.18ZM12.67 0.54L24.73 0.54L18.39-5.81C14.05-5.70 11.38-2.72 11.38-0.53C11.38 0.11 11.89 0.54 12.67 0.54Z" fill="currentColor"/>
</svg>