<svg xmlns="http://www.w3.org/2000/svg" viewBox="0 0 24 24" width="24" height="24">
  <title>shekelsign.circle</title>
  <path transform="matrix(0.8703042665306816, 0, 0, 0.8703042665306816, 0.17440081591024992, 19.36868944416114)" d="M13.59 3.02C19.93 3.02 25.08-2.11 25.08-8.46C25.08-14.81 19.93-19.96 13.59-19.96C7.24-19.96 2.10-14.81 2.10-8.46C2.10-2.11 7.24 3.02 13.59 3.02ZM13.59 2.13C7.73 2.13 2.99-2.60 2.99-8.46C2.99-14.32 7.73-19.07 13.59-19.07C19.45-19.07 24.19-14.32 24.19-8.46C24.19-2.60 19.45 2.13 13.59 2.13ZM12.34-3.59L15.61-3.59C17.46-3.59 18.07-4.51 18.07-6.36L18.07-13.02C18.07-13.25 17.94-13.38 17.74-13.38C17.54-13.38 17.41-13.25 17.41-13.02L17.41-6.36C17.41-4.83 16.97-4.30 15.42-4.30L12.53-4.30L12.53-10.24C12.53-10.46 12.40-10.59 12.20-10.59C12-10.59 11.87-10.46 11.87-10.24L11.87-4.05C11.87-3.77 12.06-3.59 12.34-3.59ZM9.45-3.52C9.63-3.52 9.76-3.64 9.76-3.86L9.76-12.59L12.69-12.59C14.12-12.59 14.64-12.11 14.64-10.55L14.64-6.69C14.64-6.47 14.78-6.33 14.98-6.33C15.18-6.33 15.30-6.47 15.30-6.69L15.30-10.69C15.30-12.36 14.72-13.30 12.91-13.30L9.59-13.30C9.29-13.30 9.11-13.11 9.11-12.82L9.11-3.86C9.11-3.64 9.23-3.52 9.45-3.52Z" fill="currentColor"/>
</svg>