<svg xmlns="http://www.w3.org/2000/svg" viewBox="0 0 24 24" width="24" height="24">
  <title>shippingbox.and.arrow.backward.fill</title>
  <path transform="matrix(0.6208318176306535, 0, 0, 0.6208318176306535, 0.5158239359767189, 17.32557293561295)" d="M29.38-12.29L18.20-18.46L21.71-20.43C22.18-20.70 22.62-20.84 23.05-20.84C23.48-20.84 23.92-20.70 24.39-20.43L33.64-15.26C33.89-15.12 34.01-15.04 34.10-14.92ZM23.05-8.81L12-14.92C12.09-15.04 12.22-15.12 12.46-15.25L17.05-17.81L28.27-11.68ZM23.58 3.68L23.58-7.88L34.54-13.88C34.58-13.75 34.61-13.57 34.61-13.30L34.61-3.69C34.61-2.67 34.28-2.16 33.42-1.69L23.87 3.56C23.79 3.61 23.67 3.67 23.58 3.68ZM2.39-7.49C2.39-7.61 2.44-7.71 2.53-7.80L6.47-11.77C6.55-11.85 6.63-11.89 6.75-11.89C6.97-11.89 7.15-11.73 7.15-11.51C7.15-11.40 7.09-11.27 7.01-11.19L4.56-8.78L3.66-7.90L4.78-7.91L11.51-7.92L11.51-13.30C11.51-13.57 11.52-13.75 11.57-13.88L22.54-7.88L22.54 3.68C22.43 3.67 22.32 3.61 22.23 3.56L12.68-1.69C11.82-2.16 11.51-2.67 11.51-3.69L11.51-7.07L4.78-7.08L3.68-7.09L4.56-6.22L7.01-3.81C7.09-3.73 7.15-3.60 7.15-3.49C7.15-3.28 6.97-3.11 6.75-3.11C6.63-3.11 6.55-3.15 6.47-3.23L2.53-7.18C2.44-7.28 2.39-7.38 2.39-7.49ZM15.80-7.49C15.80-7.73 15.61-7.92 15.38-7.92L11.51-7.92L11.51-7.07L15.38-7.07C15.61-7.07 15.80-7.25 15.80-7.49Z" fill="currentColor"/>
</svg>