<svg xmlns="http://www.w3.org/2000/svg" viewBox="0 0 24 24" width="24" height="24">
  <title>shoe</title>
  <path transform="matrix(0.5975723622782446, 0, 0, 0.5975723622782446, 0.2142857142857144, 16.931272407548427)" d="M18.74-14.88C16.76-16.03 15.04-15.87 13.54-13.93C12.14-12.16 10.65-11.37 9.12-11.37C7.78-11.37 6.86-11.71 5.91-12.21C4.62-12.88 2.99-12.19 2.99-10.55L2.99-4.80C2.99-2.07 4.39-0.90 6.70-0.90L25.70-0.90C28.70-0.90 30.62-1.42 33.41-2.96C35.57-4.17 36.46-5.51 36.46-7.16C36.46-9.55 34.95-11.04 32.48-11.04C31.29-11.04 28.51-10.58 27.42-10.58C26.31-10.58 25.98-10.65 24.83-11.32ZM3.91-4.14C3.87-4.34 3.86-4.56 3.86-4.80L3.86-10.55C3.86-11.52 4.70-11.87 5.47-11.45C6.52-10.90 7.61-10.50 9.12-10.50C10.92-10.50 12.68-11.43 14.21-13.41C15.48-15.02 16.58-15.12 18.29-14.12L19.04-13.69L17.31-11.21C17.19-11.05 17.23-10.82 17.39-10.70C17.55-10.57 17.79-10.62 17.92-10.78L19.70-13.30L21.53-12.23L19.95-10.00C19.82-9.82 19.85-9.60 20.02-9.48C20.19-9.35 20.41-9.39 20.54-9.56L22.17-11.86L23.96-10.82L22.51-8.74C22.39-8.57 22.42-8.34 22.58-8.23C22.76-8.10 22.98-8.13 23.11-8.31L24.62-10.44C25.75-9.80 26.26-9.71 27.42-9.71C28.57-9.71 31.35-10.16 32.48-10.16C34.16-10.16 35.37-9.29 35.37-7.95C35.37-7.55 35.12-6.95 34.02-6.41L30.46-4.70C29.21-4.09 28.07-3.89 25.70-3.89L5.59-3.89C4.83-3.89 4.30-3.95 3.91-4.14ZM4.05-3.39C4.48-3.21 4.92-3.14 5.59-3.14L25.70-3.14C28.05-3.14 29.34-3.36 30.82-4.08L34.37-5.75C34.97-6.05 35.31-6.34 35.52-6.70C35.52-6.59 35.51-6.48 35.48-6.36C35.26-5.38 34.51-4.57 33-3.73C30.35-2.26 28.57-1.77 25.70-1.77L6.70-1.77C5.32-1.77 4.42-2.26 4.05-3.39Z" fill="currentColor"/>
</svg>