<svg xmlns="http://www.w3.org/2000/svg" viewBox="0 0 24 24" width="24" height="24">
  <title>shuffle.circle</title>
  <path transform="matrix(0.8703042665306816, 0, 0, 0.8703042665306816, 0.17440081591024992, 19.36868944416114)" d="M13.59 3.02C19.93 3.02 25.08-2.11 25.08-8.46C25.08-14.81 19.93-19.96 13.59-19.96C7.24-19.96 2.10-14.81 2.10-8.46C2.10-2.11 7.24 3.02 13.59 3.02ZM13.59 2.13C7.73 2.13 2.99-2.60 2.99-8.46C2.99-14.32 7.73-19.07 13.59-19.07C19.45-19.07 24.19-14.32 24.19-8.46C24.19-2.60 19.45 2.13 13.59 2.13ZM17.31-3.21C17.31-2.99 17.44-2.85 17.63-2.85C17.73-2.85 17.84-2.88 17.93-2.96L20.34-4.82C20.55-4.98 20.55-5.32 20.34-5.48L17.93-7.34C17.84-7.42 17.73-7.45 17.63-7.45C17.44-7.45 17.31-7.31 17.31-7.08L17.31-5.61L16.24-5.61C15.43-5.61 15.02-5.86 14.43-6.59L12.86-8.45L14.43-10.31C15.02-11.04 15.43-11.30 16.24-11.30L17.30-11.30L17.30-9.82C17.30-9.59 17.44-9.45 17.63-9.45C17.73-9.45 17.84-9.48 17.93-9.56L20.33-11.41C20.54-11.58 20.55-11.92 20.34-12.08L17.93-13.95C17.84-14.02 17.73-14.05 17.63-14.05C17.43-14.05 17.30-13.91 17.30-13.69L17.30-12.08L16.23-12.08C15.25-12.08 14.66-11.79 13.93-10.93L12.35-9.06L10.78-10.92C10.05-11.78 9.47-12.07 8.47-12.07L7.01-12.07C6.77-12.07 6.61-11.89 6.61-11.67C6.61-11.46 6.79-11.29 7.01-11.29L8.48-11.29C9.22-11.29 9.68-11.03 10.29-10.30L11.85-8.45L10.29-6.60C9.68-5.87 9.21-5.63 8.48-5.63L7.00-5.63C6.79-5.63 6.61-5.44 6.61-5.23C6.61-5.00 6.77-4.83 7.00-4.83L8.47-4.83C9.47-4.83 10.05-5.12 10.78-5.98L12.35-7.85L13.93-5.96C14.66-5.11 15.25-4.82 16.23-4.82L17.31-4.82Z" fill="currentColor"/>
</svg>