<svg xmlns="http://www.w3.org/2000/svg" viewBox="0 0 24 24" width="24" height="24">
  
  <path transform="matrix(0.8658887197699983, 0, 0, 0.8658887197699983, 1.4216133942161342, 19.331303906646372)" d="M7.63 2.65C7.63 2.89 7.84 3.08 8.06 3.08L16.36 3.08C16.61 3.08 16.79 2.89 16.79 2.65C16.79 2.41 16.61 2.21 16.36 2.21L12.66 2.21L12.66-7.10L19.46-7.10C20.72-7.10 21.45-7.83 21.45-9.05L21.45-14.99C21.45-16.20 20.72-16.91 19.46-16.91L12.66-16.91L12.66-19.57C12.66-19.82 12.46-20.02 12.22-20.02C11.98-20.02 11.78-19.82 11.78-19.57L11.78-16.91L4.97-16.91C3.71-16.91 2.99-16.20 2.99-14.99L2.99-9.05C2.99-7.83 3.71-7.10 4.97-7.10L11.78-7.10L11.78 2.21L8.06 2.21C7.84 2.21 7.63 2.41 7.63 2.65ZM9.46-9.80C8.94-9.80 8.77-10.15 9.09-10.62L11.78-14.46C12.04-14.84 12.39-14.84 12.66-14.46L15.35-10.62C15.68-10.15 15.49-9.80 14.99-9.80Z" fill="currentColor"/>
</svg>