<svg xmlns="http://www.w3.org/2000/svg" viewBox="0 0 24 24" width="24" height="24">
  <title>signpost.and.arrowtriangle.up.circle.fill</title>
  <path transform="matrix(0.8703042665306816, 0, 0, 0.8703042665306816, 0.17440081591024992, 19.34829168791433)" d="M13.59 3.05C19.91 3.05 25.08-2.12 25.08-8.45C25.08-14.78 19.91-19.93 13.59-19.93C7.27-19.93 2.10-14.78 2.10-8.45C2.10-2.12 7.27 3.05 13.59 3.05ZM7.72-8.84L7.72-12.60C7.72-13.37 8.18-13.82 8.98-13.82L13.21-13.82L13.21-15.54C13.21-15.75 13.38-15.91 13.58-15.91C13.79-15.91 13.97-15.75 13.97-15.54L13.97-13.82L18.20-13.82C19.00-13.82 19.45-13.37 19.45-12.60L19.45-8.84C19.45-8.06 19.00-7.61 18.20-7.61L13.97-7.61L13.97-1.73L16.22-1.73C16.44-1.73 16.61-1.55 16.61-1.36C16.61-1.16 16.44-0.97 16.22-0.97L10.95-0.97C10.75-0.97 10.56-1.15 10.56-1.36C10.56-1.56 10.75-1.73 10.95-1.73L13.21-1.73L13.21-7.61L8.98-7.61C8.18-7.61 7.72-8.06 7.72-8.84ZM11.60-9.82C11.39-9.53 11.51-9.30 11.82-9.30L15.36-9.30C15.66-9.30 15.79-9.53 15.59-9.82L13.86-12.27C13.70-12.52 13.49-12.50 13.32-12.27Z" fill="currentColor"/>
</svg>