<svg xmlns="http://www.w3.org/2000/svg" viewBox="0 0 24 24" width="24" height="24">
  <title>skateboard</title>
  <path transform="matrix(0.8734355135569446, 0, 0, 0.8734355135569446, -0.3513608559046437, 19.38283372372413)" d="M4.24 1.44C6.23 3.43 9.11 3.52 11.14 1.66C11.07 1.86 11.11 2.12 11.29 2.29L11.65 2.63C11.92 2.87 12.25 2.88 12.49 2.64L14.86 0.27C15.11 0.02 15.11-0.35 14.86-0.60L14.51-0.95C14.34-1.11 14.12-1.16 13.91-1.10L21.53-8.71C21.47-8.50 21.52-8.27 21.68-8.11L22.03-7.76C22.28-7.52 22.64-7.52 22.89-7.76L25.25-10.14C25.50-10.37 25.50-10.71 25.25-10.97L24.91-11.33C24.74-11.51 24.48-11.54 24.27-11.46C26.10-13.51 26.03-16.38 24.04-18.36C22.07-20.34 19.17-20.41 17.13-18.56C17.24-18.79 17.19-19.03 17.00-19.21L16.65-19.57C16.42-19.80 16.02-19.80 15.79-19.56L13.43-17.21C13.18-16.98 13.18-16.61 13.43-16.36L13.78-16.01C13.97-15.83 14.21-15.79 14.44-15.88L6.75-8.19C6.84-8.41 6.80-8.66 6.61-8.85L6.26-9.20C6.01-9.43 5.66-9.43 5.41-9.20L3.06-6.84C2.81-6.60 2.81-6.21 3.05-5.98L3.41-5.61C3.60-5.43 3.83-5.39 4.04-5.48C2.18-3.43 2.25-0.55 4.24 1.44ZM4.85 0.82C3.21-0.82 3.21-3.41 4.85-5.07L17.53-17.75C19.17-19.39 21.79-19.39 23.43-17.75C25.08-16.10 25.08-13.49 23.43-11.84L10.75 0.83C9.11 2.47 6.50 2.47 4.85 0.82ZM18.88-14.99C19.13-14.74 19.55-14.74 19.79-14.99C20.05-15.25 20.05-15.66 19.79-15.91C19.55-16.16 19.14-16.16 18.88-15.90C18.63-15.66 18.63-15.23 18.88-14.99ZM17.09-13.22C17.36-12.95 17.75-12.95 18.02-13.22C18.27-13.46 18.27-13.89 18.02-14.13C17.78-14.38 17.36-14.38 17.11-14.13C16.84-13.88 16.84-13.46 17.09-13.22ZM20.67-13.18C20.92-12.94 21.34-12.94 21.59-13.18C21.84-13.45 21.84-13.86 21.59-14.12C21.34-14.37 20.92-14.37 20.67-14.12C20.41-13.86 20.41-13.45 20.67-13.18ZM18.89-11.41C19.15-11.16 19.56-11.16 19.82-11.41C20.06-11.66 20.06-12.08 19.82-12.33C19.56-12.60 19.15-12.60 18.89-12.33C18.63-12.08 18.63-11.66 18.89-11.41ZM8.48-4.61C8.74-4.35 9.15-4.35 9.41-4.61C9.66-4.85 9.66-5.27 9.41-5.53C9.16-5.78 8.74-5.78 8.50-5.53C8.24-5.26 8.24-4.85 8.48-4.61ZM6.71-2.82C6.96-2.58 7.38-2.58 7.63-2.82C7.89-3.08 7.89-3.49 7.63-3.75C7.38-4.00 6.97-4.00 6.71-3.74C6.47-3.49 6.47-3.07 6.71-2.82ZM10.29-2.81C10.55-2.55 10.96-2.55 11.21-2.81C11.46-3.07 11.46-3.48 11.21-3.74C10.96-3.98 10.55-3.98 10.29-3.74C10.04-3.48 10.04-3.07 10.29-2.81ZM8.51-1.02C8.75-0.77 9.18-0.77 9.42-1.02C9.69-1.29 9.69-1.70 9.42-1.96C9.18-2.21 8.75-2.21 8.51-1.96C8.25-1.70 8.25-1.29 8.51-1.02Z" fill="currentColor"/>
</svg>