<svg xmlns="http://www.w3.org/2000/svg" viewBox="0 0 24 24" width="24" height="24">
  <title>skis.fill</title>
  <path transform="matrix(0.7058172168758533, 0, 0, 0.7058172168758533, 0.09760576073023985, 17.96877364051729)" d="M3.61-1.00C4.82 0.20 6.61 0.21 7.84-1.01L24.32-17.48C25.54-18.71 25.52-20.51 24.33-21.71C23.11-22.92 21.33-22.93 20.10-21.71L3.61-5.21C2.39-3.98 2.39-2.21 3.61-1.00ZM9.40 4.79C10.62 6.01 12.41 6.02 13.63 4.79L30.12-11.70C31.34-12.93 31.34-14.71 30.12-15.93C28.91-17.12 27.12-17.13 25.90-15.91L9.41 0.57C8.19 1.79 8.20 3.59 9.40 4.79ZM13.56-12.32C13.34-12.53 13.34-12.88 13.56-13.10C13.78-13.32 14.12-13.31 14.34-13.10L15.70-11.74C15.93-11.52 15.93-11.17 15.70-10.96C15.48-10.73 15.13-10.73 14.92-10.96ZM10.30-9.06C10.09-9.28 10.09-9.62 10.30-9.84C10.52-10.07 10.88-10.07 11.09-9.84L12.45-8.48C12.67-8.26 12.67-7.92 12.45-7.70C12.23-7.48 11.88-7.48 11.66-7.70ZM19.36-6.52C19.14-6.74 19.14-7.09 19.36-7.31C19.58-7.52 19.92-7.52 20.14-7.31L21.50-5.95C21.73-5.73 21.73-5.38 21.50-5.17C21.29-4.95 20.94-4.95 20.72-5.17ZM16.10-3.27C15.89-3.48 15.89-3.83 16.10-4.05C16.32-4.28 16.68-4.28 16.90-4.05L18.26-2.70C18.47-2.47 18.47-2.13 18.26-1.91C18.04-1.69 17.68-1.69 17.46-1.91Z" fill="currentColor"/>
</svg>