<svg xmlns="http://www.w3.org/2000/svg" viewBox="0 0 24 24" width="24" height="24">
  <title>slider.horizontal.below.square.and.square.filled</title>
  <path transform="matrix(0.684583500467977, 0, 0, 0.684583500467977, -0.04572803850782181, 17.13838748495788)" d="M13.79-5.37C15.63-5.37 16.58-6.29 16.58-8.14L16.58-15.94C16.58-17.79 15.63-18.71 13.79-18.71L5.79-18.71C3.94-18.71 2.99-17.79 2.99-15.94L2.99-8.14C2.99-6.29 3.94-5.37 5.79-5.37ZM29.41-5.40C31.25-5.40 32.20-6.32 32.20-8.17L32.20-15.91C32.20-17.77 31.25-18.68 29.41-18.68L21.46-18.68C19.62-18.68 18.67-17.77 18.67-15.91L18.67-8.17C18.67-6.32 19.62-5.40 21.46-5.40ZM13.78-6.21L5.79-6.21C4.44-6.21 3.86-6.81 3.86-8.17L3.86-15.93C3.86-17.27 4.44-17.88 5.79-17.88L13.78-17.88C15.13-17.88 15.73-17.27 15.73-15.93L15.73-8.17C15.73-6.81 15.13-6.21 13.78-6.21ZM3.41 0.87C3.19 0.87 2.99 1.07 2.99 1.30C2.99 1.55 3.19 1.75 3.41 1.75L7.27 1.75C7.46 2.86 8.45 3.70 9.62 3.70C10.79 3.70 11.78 2.86 11.98 1.75L31.77 1.75C32.00 1.75 32.20 1.55 32.20 1.30C32.20 1.07 32.00 0.87 31.77 0.87L11.98 0.87C11.78-0.25 10.79-1.09 9.62-1.09C8.45-1.09 7.46-0.25 7.27 0.87ZM9.62 2.84C8.77 2.84 8.10 2.16 8.10 1.29C8.10 0.43 8.77-0.23 9.62-0.23C10.48-0.23 11.16 0.43 11.16 1.29C11.16 2.16 10.48 2.84 9.62 2.84Z" fill="currentColor"/>
</svg>