<svg xmlns="http://www.w3.org/2000/svg" viewBox="0 0 24 24" width="24" height="24">
  
  <path transform="matrix(0.8703042665306816, 0, 0, 0.8703042665306816, 0.17440081591024992, 19.36868944416114)" d="M13.59 3.02C19.91 3.02 25.08-2.13 25.08-8.46C25.08-14.79 19.91-19.96 13.59-19.96C7.27-19.96 2.10-14.79 2.10-8.46C2.10-2.13 7.27 3.02 13.59 3.02ZM13.59-2.20C10.14-2.20 7.34-5.00 7.34-8.46C7.34-11.92 10.14-14.71 13.59-14.71C17.05-14.71 19.84-11.92 19.84-8.46C19.84-5.00 17.05-2.20 13.59-2.20ZM9.23-11.94L9.82-10.02L11.43-9.38L13.24-10.78L13.24-12.42L11.66-13.70C10.70-13.35 9.87-12.74 9.23-11.94ZM17.95-11.94C17.32-12.74 16.48-13.35 15.50-13.70L13.95-12.45L13.95-10.78L15.76-9.38L17.37-10.02ZM8.91-5.44L11.03-5.46L11.91-6.59L11.23-8.70L9.60-9.35L8.02-8.46C8.02-7.32 8.34-6.30 8.91-5.44ZM18.28-5.43C18.83-6.29 19.16-7.32 19.17-8.46L17.59-9.35L15.96-8.70L15.28-6.59L16.16-5.46ZM13.59-2.88C14.14-2.88 14.66-2.95 15.16-3.11L15.61-5.02L14.85-6.02L12.34-6.02L11.57-5.03L12.02-3.11C12.53-2.95 13.04-2.88 13.59-2.88Z" fill="currentColor"/>
</svg>