<svg xmlns="http://www.w3.org/2000/svg" viewBox="0 0 24 24" width="24" height="24">
  
  <path transform="matrix(0.7284108692559397, 0, 0, 0.7284108692559397, 2.9261630388390953, 18.51728553137004)" d="M8.93-17.89L15.98-17.89C16.49-17.89 16.80-18.19 16.80-18.68L16.80-19.83C16.80-20.33 16.49-20.61 15.98-20.61L14.54-20.61C14.52-21.76 13.59-22.68 12.46-22.68C11.32-22.68 10.39-21.76 10.37-20.61L8.93-20.61C8.43-20.61 8.11-20.33 8.11-19.83L8.11-18.68C8.11-18.19 8.43-17.89 8.93-17.89ZM12.46-19.54C11.85-19.54 11.38-20.03 11.38-20.61C11.38-21.21 11.85-21.69 12.46-21.69C13.05-21.69 13.54-21.21 13.54-20.61C13.54-20.03 13.05-19.54 12.46-19.54ZM6.14 4.78L18.77 4.78C20.84 4.78 21.93 3.69 21.93 1.62L21.93-16.84C21.93-18.91 20.84-20.00 18.80-20.00L17.80-20.00L17.80-18.68C17.80-17.63 17.04-16.90 15.98-16.90L8.93-16.90C7.86-16.90 7.11-17.63 7.11-18.68L7.11-20.00L6.12-20.00C4.07-20.00 2.99-18.91 2.99-16.84L2.99 1.62C2.99 3.69 4.07 4.78 6.14 4.78ZM9.75-7.52C9.66-7.52 9.60-7.58 9.57-7.66C9.40-9.07 9.27-9.76 8.82-10.21C8.38-10.64 7.68-10.78 6.28-10.97C6.21-10.97 6.14-11.05 6.14-11.12C6.14-11.20 6.21-11.27 6.28-11.30C7.68-11.47 8.38-11.60 8.82-12.05C9.27-12.49 9.40-13.18 9.57-14.59C9.60-14.66 9.66-14.73 9.75-14.73C9.82-14.73 9.89-14.66 9.90-14.59C10.09-13.18 10.22-12.49 10.65-12.05C11.10-11.60 11.80-11.47 13.20-11.30C13.29-11.27 13.35-11.20 13.35-11.12C13.35-11.05 13.29-10.97 13.20-10.97C11.80-10.78 11.10-10.64 10.65-10.21C10.22-9.76 10.09-9.07 9.90-7.66C9.89-7.58 9.82-7.52 9.75-7.52ZM6.91-4.50C6.69-4.50 6.52-4.68 6.52-4.90C6.52-5.11 6.69-5.29 6.91-5.29L18-5.29C18.21-5.29 18.39-5.11 18.39-4.90C18.39-4.68 18.21-4.50 18-4.50ZM6.91 0.11C6.70 0.11 6.52-0.07 6.52-0.29C6.52-0.52 6.69-0.69 6.91-0.69L13.25-0.69C13.48-0.69 13.65-0.52 13.65-0.29C13.65-0.07 13.46 0.11 13.25 0.11Z" fill="currentColor"/>
</svg>