<svg xmlns="http://www.w3.org/2000/svg" viewBox="0 0 24 24" width="24" height="24">
  <title>speaker.plus</title>
  <path transform="matrix(0.7420289855072464, 0, 0, 0.7420289855072464, -0.21739130434782616, 18.282608695652176)" d="M4.63-4.24L8.25-4.24C8.44-4.24 8.57-4.20 8.68-4.08L14.31 0.91C14.59 1.18 14.89 1.37 15.26 1.37C15.79 1.37 16.10 0.98 16.10 0.48L16.10-17.38C16.10-17.88 15.79-18.30 15.26-18.30C14.89-18.30 14.61-18.09 14.31-17.82L8.68-12.71C8.57-12.61 8.44-12.57 8.25-12.57L4.63-12.57C3.50-12.57 2.99-12.01 2.99-10.89L2.99-5.91C2.99-4.77 3.52-4.24 4.63-4.24ZM4.64-5.06C4.05-5.06 3.84-5.29 3.84-5.87L3.84-10.92C3.84-11.52 4.05-11.74 4.64-11.74L8.33-11.74C8.70-11.74 8.93-11.79 9.21-12.06L14.75-17.12C14.85-17.20 14.92-17.29 15.05-17.29C15.15-17.29 15.23-17.20 15.23-17.06L15.23 0.12C15.23 0.27 15.15 0.35 15.06 0.35C14.96 0.35 14.89 0.32 14.77 0.20L9.21-4.76C8.94-4.99 8.70-5.06 8.33-5.06ZM20.04-8.03L24.30-8.03L24.30-3.75C24.30-3.50 24.50-3.29 24.75-3.29C25.01-3.29 25.22-3.49 25.22-3.75L25.22-8.03L29.48-8.03C29.74-8.03 29.94-8.23 29.94-8.46C29.94-8.73 29.75-8.93 29.48-8.93L25.22-8.93L25.22-13.20C25.22-13.46 25.01-13.66 24.75-13.66C24.50-13.66 24.30-13.45 24.30-13.20L24.30-8.93L20.04-8.93C19.77-8.93 19.58-8.73 19.58-8.46C19.58-8.23 19.78-8.03 20.04-8.03Z" fill="currentColor"/>
</svg>