<svg xmlns="http://www.w3.org/2000/svg" viewBox="0 0 24 24" width="24" height="24">
  
  <path transform="matrix(0.7084544070845441, 0, 0, 0.7084544070845441, -0.11706102117061024, 17.998339559983396)" d="M4.63-4.24L8.25-4.24C8.44-4.24 8.57-4.20 8.68-4.08L14.31 0.91C14.59 1.18 14.89 1.37 15.26 1.37C15.79 1.37 16.10 0.98 16.10 0.48L16.10-17.38C16.10-17.88 15.79-18.30 15.26-18.30C14.89-18.30 14.61-18.09 14.31-17.82L8.68-12.71C8.57-12.61 8.44-12.57 8.25-12.57L4.63-12.57C3.50-12.57 2.99-12.01 2.99-10.89L2.99-5.91C2.99-4.77 3.52-4.24 4.63-4.24ZM4.64-5.06C4.05-5.06 3.84-5.29 3.84-5.87L3.84-10.92C3.84-11.52 4.05-11.74 4.64-11.74L8.33-11.74C8.70-11.74 8.93-11.79 9.21-12.06L14.75-17.12C14.85-17.20 14.92-17.29 15.05-17.29C15.15-17.29 15.23-17.20 15.23-17.06L15.23 0.12C15.23 0.27 15.15 0.35 15.06 0.35C14.96 0.35 14.89 0.32 14.77 0.20L9.21-4.76C8.94-4.99 8.70-5.06 8.33-5.06ZM20.04-7.99L30.73-7.99C31.00-7.99 31.22-8.19 31.22-8.44C31.22-8.71 31.02-8.91 30.73-8.91L20.04-8.91C19.75-8.91 19.55-8.71 19.55-8.44C19.55-8.19 19.77-7.99 20.04-7.99Z" fill="currentColor"/>
</svg>