<svg xmlns="http://www.w3.org/2000/svg" viewBox="0 0 24 24" width="24" height="24">
  
  <path transform="matrix(0.8023820717755837, 0, 0, 0.8023820717755837, -0.397743300423131, 18.22002820874471)" d="M9.08 3.73C9.35 3.73 9.56 3.57 9.84 3.33L14.06-0.29L23.45-0.29C26.21-0.29 27.91-2.03 27.91-4.76L27.91-14.77C27.91-17.50 26.21-19.23 23.45-19.23L7.45-19.23C4.69-19.23 2.99-17.52 2.99-14.77L2.99-4.76C2.99-2.00 4.69-0.29 7.45-0.29L8.45-0.29L8.45 3.02C8.45 3.46 8.71 3.73 9.08 3.73ZM9.27 2.75L9.27-0.74C9.27-1.04 9.15-1.16 8.85-1.16L7.48-1.16C5.23-1.16 3.86-2.55 3.86-4.78L3.86-14.74C3.86-16.97 5.23-18.36 7.48-18.36L23.43-18.36C25.63-18.36 27.04-16.97 27.04-14.74L27.04-4.78C27.04-2.55 25.63-1.16 23.43-1.16L14.16-1.16C13.78-1.16 13.59-1.10 13.29-0.81ZM15.21-4.48C15.49-4.48 15.64-4.70 15.64-4.97L15.64-14.60C15.64-14.87 15.49-15.09 15.21-15.09C15.01-15.09 14.86-14.98 14.71-14.84L11.85-12.07C11.79-12.02 11.72-12 11.63-12L9.63-12C9.06-12 8.63-11.55 8.63-10.98L8.63-8.54C8.63-7.96 9.06-7.51 9.63-7.51L11.63-7.51C11.72-7.51 11.79-7.49 11.85-7.43L14.71-4.72C14.86-4.59 15.01-4.48 15.21-4.48ZM20.31-5.54C20.47-5.43 20.66-5.44 20.80-5.61C21.63-6.60 22.13-7.98 22.13-9.79C22.13-11.25 21.67-12.64 20.82-13.95C20.70-14.13 20.48-14.16 20.31-14.05C20.16-13.91 20.13-13.71 20.24-13.54C21.02-12.38 21.40-11.13 21.40-9.79C21.40-8.31 21-6.97 20.21-6.02C20.10-5.88 20.12-5.66 20.31-5.54ZM17.98-7.16C18.13-7.04 18.36-7.07 18.50-7.24C19.03-7.90 19.30-8.86 19.30-9.79C19.30-10.73 19.02-11.66 18.50-12.33C18.36-12.50 18.13-12.53 17.98-12.41C17.82-12.28 17.79-12.08 17.91-11.91C18.33-11.41 18.56-10.64 18.56-9.79C18.56-8.98 18.32-8.21 17.88-7.64C17.79-7.49 17.81-7.30 17.98-7.16Z" fill="currentColor"/>
</svg>