<svg xmlns="http://www.w3.org/2000/svg" viewBox="0 0 24 24" width="24" height="24">
  <title>square.fill.on.square.fill</title>
  <path transform="matrix(0.8407224958949097, 0, 0, 0.8407224958949097, -0.5123152709359604, 19.093596059113302)" d="M2.99-4.88C2.99-2.81 4.08-1.72 6.15-1.72L7.63-1.72L7.63-11.99C7.63-14.64 9.18-16.18 11.84-16.18L21.09-16.18L21.09-16.68C21.09-18.73 20.00-19.83 17.93-19.83L6.15-19.83C4.08-19.83 2.99-18.75 2.99-16.68ZM11.84 2.95L23.61 2.95C25.69 2.95 26.78 1.85 26.78-0.19L26.78-11.99C26.78-14.04 25.69-15.14 23.61-15.14L11.84-15.14C9.76-15.14 8.67-14.06 8.67-11.99L8.67-0.19C8.67 1.88 9.76 2.95 11.84 2.95Z" fill="currentColor"/>
</svg>