<svg xmlns="http://www.w3.org/2000/svg" viewBox="0 0 24 24" width="24" height="24">
  <title>square.and.arrow.up.on.square.fill</title>
  <path transform="matrix(0.6724454951405306, 0, 0, 0.6724454951405306, 1.4641449960598885, 17.894405043341216)" d="M7.65 1.42L18.19 1.42C21.19 1.42 22.86-0.26 22.86-3.26L22.86-12.07C22.86-15.07 21.19-16.73 18.19-16.73L13.36-16.73L13.36-20.72L13.32-22.36L14.20-21.47L16.62-19.02C16.70-18.94 16.82-18.88 16.92-18.88C17.13-18.88 17.32-19.05 17.32-19.28C17.32-19.38 17.27-19.48 17.19-19.56L13.23-23.50C13.14-23.59 13.03-23.64 12.93-23.64C12.82-23.64 12.71-23.59 12.62-23.50L8.65-19.56C8.57-19.48 8.52-19.38 8.52-19.28C8.52-19.05 8.68-18.88 8.91-18.88C9.01-18.88 9.14-18.94 9.22-19.02L11.64-21.47L12.53-22.37L12.49-20.72L12.49-16.73L13.36-16.73L13.36-7.82C13.36-7.58 13.16-7.38 12.93-7.38C12.69-7.38 12.49-7.58 12.49-7.82L12.49-16.73L7.65-16.73C4.65-16.73 2.99-15.07 2.99-12.07L2.99-3.26C2.99-0.26 4.65 1.42 7.65 1.42ZM13.14 6.11L23.67 6.11C26.67 6.11 28.35 4.43 28.35 1.43L28.35-7.38C28.35-10.31 26.77-11.95 23.91-12.05L23.91-3.26C23.91 0.32 21.77 2.46 18.19 2.46L8.54 2.46C8.91 4.80 10.51 6.11 13.14 6.11Z" fill="currentColor"/>
</svg>