<svg xmlns="http://www.w3.org/2000/svg" viewBox="0 0 24 24" width="24" height="24">
  
  <path transform="matrix(0.6217364905889496, 0, 0, 0.6217364905889496, 0.14207650273224037, 17.245901639344265)" d="M4.66-9.49L10.63-9.49C11.72-9.49 12.30-10.00 12.30-11.18L12.30-17.12C12.30-18.29 11.72-18.81 10.63-18.81L4.66-18.81C3.57-18.81 2.99-18.29 2.99-17.12L2.99-11.18C2.99-10.00 3.57-9.49 4.66-9.49ZM16.09-9.49L22.05-9.49C23.14-9.49 23.73-10.00 23.73-11.18L23.73-17.12C23.73-18.29 23.14-18.81 22.05-18.81L16.09-18.81C15-18.81 14.41-18.29 14.41-17.12L14.41-11.18C14.41-10.00 15-9.49 16.09-9.49ZM27.52-9.49L33.48-9.49C34.58-9.49 35.16-10.00 35.16-11.18L35.16-17.12C35.16-18.29 34.58-18.81 33.48-18.81L27.52-18.81C26.43-18.81 25.84-18.29 25.84-17.12L25.84-11.18C25.84-10.00 26.43-9.49 27.52-9.49ZM4.69-10.31C4.07-10.31 3.81-10.57 3.81-11.20L3.81-17.10C3.81-17.73 4.07-17.99 4.69-17.99L10.59-17.99C11.23-17.99 11.48-17.73 11.48-17.10L11.48-11.20C11.48-10.57 11.23-10.31 10.59-10.31ZM16.13-10.31C15.49-10.31 15.23-10.57 15.23-11.20L15.23-17.10C15.23-17.73 15.49-17.99 16.13-17.99L22.03-17.99C22.65-17.99 22.91-17.73 22.91-17.10L22.91-11.20C22.91-10.57 22.65-10.31 22.03-10.31ZM27.55-10.31C26.92-10.31 26.66-10.57 26.66-11.20L26.66-17.10C26.66-17.73 26.92-17.99 27.55-17.99L33.46-17.99C34.09-17.99 34.34-17.73 34.34-17.10L34.34-11.20C34.34-10.57 34.09-10.31 33.46-10.31ZM4.66 1.93L10.63 1.93C11.72 1.93 12.30 1.43 12.30 0.25L12.30-5.70C12.30-6.87 11.72-7.38 10.63-7.38L4.66-7.38C3.57-7.38 2.99-6.87 2.99-5.70L2.99 0.25C2.99 1.43 3.57 1.93 4.66 1.93ZM16.09 1.93L22.05 1.93C23.14 1.93 23.73 1.43 23.73 0.25L23.73-5.70C23.73-6.87 23.14-7.38 22.05-7.38L16.09-7.38C15-7.38 14.41-6.87 14.41-5.70L14.41 0.25C14.41 1.43 15 1.93 16.09 1.93ZM27.52 1.93L33.48 1.93C34.58 1.93 35.16 1.43 35.16 0.25L35.16-5.70C35.16-6.87 34.58-7.38 33.48-7.38L27.52-7.38C26.43-7.38 25.84-6.87 25.84-5.70L25.84 0.25C25.84 1.43 26.43 1.93 27.52 1.93ZM4.69 1.11C4.07 1.11 3.81 0.86 3.81 0.22L3.81-5.67C3.81-6.30 4.07-6.56 4.69-6.56L10.59-6.56C11.23-6.56 11.48-6.30 11.48-5.67L11.48 0.22C11.48 0.86 11.23 1.11 10.59 1.11ZM16.13 1.11C15.49 1.11 15.23 0.86 15.23 0.22L15.23-5.67C15.23-6.30 15.49-6.56 16.13-6.56L22.03-6.56C22.65-6.56 22.91-6.30 22.91-5.67L22.91 0.22C22.91 0.86 22.65 1.11 22.03 1.11ZM27.55 1.11C26.92 1.11 26.66 0.86 26.66 0.22L26.66-5.67C26.66-6.30 26.92-6.56 27.55-6.56L33.46-6.56C34.09-6.56 34.34-6.30 34.34-5.67L34.34 0.22C34.34 0.86 34.09 1.11 33.46 1.11Z" fill="currentColor"/>
</svg>