<svg xmlns="http://www.w3.org/2000/svg" viewBox="0 0 24 24" width="24" height="24">
  
  <path transform="matrix(0.6727105505189857, 0, 0, 0.6727105505189857, 1.4599921166732361, 17.892786756011034)" d="M12.93-7.38C13.16-7.38 13.36-7.58 13.36-7.82L13.36-20.71L13.32-22.36L14.20-21.47L16.62-19.02C16.70-18.93 16.82-18.88 16.92-18.88C17.13-18.88 17.32-19.05 17.32-19.28C17.32-19.38 17.27-19.48 17.19-19.56L13.23-23.50C13.14-23.59 13.03-23.63 12.93-23.63C12.82-23.63 12.71-23.59 12.62-23.50L8.65-19.56C8.57-19.48 8.52-19.38 8.52-19.28C8.52-19.05 8.68-18.88 8.91-18.88C9.01-18.88 9.14-18.93 9.22-19.02L11.64-21.47L12.53-22.37L12.49-20.71L12.49-7.82C12.49-7.58 12.69-7.38 12.93-7.38ZM7.65 1.42L8.47 1.42L8.47 1.43C8.47 4.43 10.14 6.11 13.14 6.11L23.67 6.11C26.67 6.11 28.35 4.43 28.35 1.43L28.35-7.38C28.35-10.38 26.67-12.05 23.67-12.05L22.86-12.05L22.86-12.07C22.86-15.07 21.19-16.73 18.19-16.73L15-16.73L15-15.87L18.19-15.87C20.63-15.87 21.98-14.51 21.98-12.08L21.98-3.25C21.98-0.81 20.63 0.55 18.19 0.55L7.64 0.55C5.21 0.55 3.86-0.81 3.86-3.25L3.86-12.08C3.86-14.51 5.21-15.87 7.64-15.87L10.85-15.87L10.85-16.73L7.65-16.73C4.65-16.73 2.99-15.07 2.99-12.07L2.99-3.26C2.99-0.26 4.65 1.42 7.65 1.42ZM13.14 5.23C10.72 5.23 9.35 3.87 9.35 1.43L9.35 1.42L18.19 1.42C21.19 1.42 22.86-0.26 22.86-3.26L22.86-11.17L23.67-11.17C26.11-11.17 27.47-9.81 27.47-7.38L27.47 1.43C27.47 3.87 26.11 5.23 23.67 5.23Z" fill="currentColor"/>
</svg>