<svg xmlns="http://www.w3.org/2000/svg" viewBox="0 0 24 24" width="24" height="24">
  
  <path transform="matrix(0.78902758514409, 0, 0, 0.78902758514409, -0.35783633841886253, 18.666666666666668)" d="M5.95-4.35L25.37-4.35C27.35-4.35 28.34-5.30 28.34-7.28L28.34-15.02C28.34-17.00 27.35-17.95 25.37-17.95L5.95-17.95C3.97-17.95 2.99-17.00 2.99-15.02L2.99-7.28C2.99-5.30 3.97-4.35 5.95-4.35ZM5.95-5.19C4.51-5.19 3.86-5.85 3.86-7.30L3.86-15C3.86-16.45 4.51-17.11 5.95-17.11L25.37-17.11C26.81-17.11 27.46-16.45 27.46-15L27.46-7.30C27.46-5.85 26.81-5.19 25.37-5.19ZM3.74 1.05L6.30 1.05C6.53 1.05 6.69 0.89 6.69 0.68L6.69-1.88C6.69-2.11 6.54-2.26 6.30-2.26L3.74-2.26C3.50-2.26 3.34-2.11 3.34-1.88L3.34 0.68C3.34 0.89 3.50 1.05 3.74 1.05ZM9.07 1.05L11.63 1.05C11.86 1.05 12.01 0.89 12.01 0.68L12.01-1.88C12.01-2.11 11.86-2.26 11.63-2.26L9.07-2.26C8.82-2.26 8.66-2.11 8.66-1.88L8.66 0.68C8.66 0.89 8.82 1.05 9.07 1.05ZM14.39 1.05L16.95 1.05C17.18 1.05 17.34 0.89 17.34 0.68L17.34-1.88C17.34-2.11 17.18-2.26 16.95-2.26L14.39-2.26C14.14-2.26 13.98-2.11 13.98-1.88L13.98 0.68C13.98 0.89 14.14 1.05 14.39 1.05ZM19.71 1.05L22.28 1.05C22.50 1.05 22.66 0.89 22.66 0.68L22.66-1.88C22.66-2.11 22.50-2.26 22.28-2.26L19.71-2.26C19.46-2.26 19.30-2.11 19.30-1.88L19.30 0.68C19.30 0.89 19.46 1.05 19.71 1.05ZM25.03 1.05L27.60 1.05C27.82 1.05 27.98 0.89 27.98 0.68L27.98-1.88C27.98-2.11 27.82-2.26 27.60-2.26L25.03-2.26C24.79-2.26 24.63-2.11 24.63-1.88L24.63 0.68C24.63 0.89 24.79 1.05 25.03 1.05Z" fill="currentColor"/>
</svg>