<svg xmlns="http://www.w3.org/2000/svg" viewBox="0 0 24 24" width="24" height="24">
  <title>square.stack.3d.down.right.fill</title>
  <path transform="matrix(0.7807258310460506, 0, 0, 0.7807258310460506, 0.975297346752058, 18.706312900274476)" d="M3.67-1.63C3.74-1.63 3.80-1.64 3.86-1.68L3.86-14.06C3.86-14.38 3.97-14.57 4.23-14.71L14.93-20.87C14.91-21.16 14.63-21.40 14.34-21.40C14.19-21.40 14.02-21.35 13.83-21.25L3.82-15.47C3.07-15.04 2.99-14.89 2.99-14.03L2.99-2.50C2.99-2.03 3.19-1.63 3.67-1.63ZM8.60 1.22C8.67 1.22 8.73 1.20 8.79 1.17L8.79-11.21C8.79-11.54 8.87-11.70 9.15-11.86L19.86-18.02C19.85-18.29 19.61-18.55 19.27-18.55C19.11-18.55 18.95-18.50 18.76-18.40L8.75-12.62C8.00-12.19 7.91-12.05 7.91-11.18L7.91 0.35C7.91 0.86 8.18 1.22 8.60 1.22ZM13.88 4.22C14.11 4.22 14.41 4.11 14.78 3.91L24.38-1.62C25.10-2.04 25.25-2.27 25.25-3.14L25.25-14.23C25.25-15.08 24.94-15.53 24.39-15.53C24.14-15.53 23.85-15.43 23.51-15.25L13.91-9.70C13.20-9.29 13.03-9.02 13.03-8.18L13.03 2.91C13.03 3.75 13.31 4.22 13.88 4.22Z" fill="currentColor"/>
</svg>