<svg xmlns="http://www.w3.org/2000/svg" viewBox="0 0 24 24" width="24" height="24">
  
  <path transform="matrix(0.8703042665306816, 0, 0, 0.8703042665306816, 0.17440081591024992, 19.36868944416114)" d="M13.59 3.02C19.93 3.02 25.08-2.11 25.08-8.46C25.08-14.81 19.93-19.96 13.59-19.96C7.24-19.96 2.10-14.81 2.10-8.46C2.10-2.11 7.24 3.02 13.59 3.02ZM13.59 2.13C7.73 2.13 2.99-2.60 2.99-8.46C2.99-14.32 7.73-19.07 13.59-19.07C19.45-19.07 24.19-14.32 24.19-8.46C24.19-2.60 19.45 2.13 13.59 2.13ZM13.58-1.76C17.30-1.76 20.30-4.76 20.30-8.46C20.30-12.16 17.30-15.18 13.58-15.18C9.88-15.18 6.88-12.16 6.88-8.46C6.88-4.76 9.88-1.76 13.58-1.76ZM8.23-10.90C9.13-12.94 11.19-14.38 13.58-14.38C15.97-14.38 18.05-12.94 18.95-10.90C19.04-10.69 18.97-10.51 18.77-10.51L8.39-10.51C8.19-10.51 8.12-10.69 8.23-10.90ZM13.57-6.52C12.83-6.52 12.22-7.11 12.22-7.88C12.22-8.64 12.83-9.25 13.57-9.25C14.34-9.25 14.95-8.64 14.95-7.88C14.95-7.11 14.34-6.52 13.57-6.52ZM7.83-7.11C7.77-7.35 7.85-7.49 8.09-7.48C10.36-7.43 12.16-5.44 11.92-3.20C11.91-2.96 11.74-2.84 11.51-2.93C9.68-3.62 8.29-5.18 7.83-7.11ZM19.35-7.11C18.89-5.18 17.50-3.62 15.67-2.93C15.43-2.84 15.27-2.96 15.26-3.20C15.02-5.40 16.80-7.43 19.09-7.48C19.32-7.49 19.41-7.35 19.35-7.11Z" fill="currentColor"/>
</svg>