<svg xmlns="http://www.w3.org/2000/svg" viewBox="0 0 24 24" width="24" height="24">
  <title>steeringwheel.exclamationmark</title>
  <path transform="matrix(0.6988806988806989, 0, 0, 0.6988806988806989, -0.08845208845208852, 17.91728091728092)" d="M14.48 3.02C20.82 3.02 25.97-2.11 25.97-8.46C25.97-14.81 20.82-19.96 14.48-19.96C8.13-19.96 2.99-14.81 2.99-8.46C2.99-2.11 8.13 3.02 14.48 3.02ZM4.88-12.81C6.47-16.46 10.20-19.07 14.47-19.07C18.76-19.07 22.48-16.46 24.08-12.82C24.28-12.46 24.14-12.12 23.77-12.12L5.19-12.12C4.82-12.12 4.68-12.46 4.88-12.81ZM30.63-6.05C30.88-6.05 31.08-6.23 31.08-6.49L31.16-15.05C31.17-15.36 30.96-15.57 30.63-15.57C30.30-15.57 30.09-15.36 30.09-15.05L30.19-6.49C30.19-6.23 30.38-6.05 30.63-6.05ZM14.46-4.97C13.13-4.97 12.02-6.05 12.02-7.42C12.02-8.78 13.13-9.86 14.46-9.86C15.83-9.86 16.92-8.78 16.92-7.42C16.92-6.05 15.83-4.97 14.46-4.97ZM4.16-6.06C4.05-6.46 4.21-6.71 4.63-6.70C8.70-6.62 11.93-3.02 11.50 0.97C11.47 1.41 11.18 1.62 10.76 1.45C7.48 0.22 4.97-2.59 4.16-6.06ZM24.80-6.06C23.99-2.59 21.48 0.22 18.20 1.45C17.78 1.62 17.48 1.41 17.46 0.97C17.04-2.99 20.23-6.62 24.32-6.70C24.75-6.71 24.90-6.46 24.80-6.06ZM30.63-1.36C31.16-1.36 31.61-1.82 31.61-2.32C31.61-2.86 31.16-3.28 30.63-3.28C30.08-3.28 29.66-2.86 29.66-2.32C29.66-1.82 30.11-1.36 30.63-1.36Z" fill="currentColor"/>
</svg>