<svg xmlns="http://www.w3.org/2000/svg" viewBox="0 0 24 24" width="24" height="24">
  
  <path transform="matrix(0.943952802359882, 0, 0, 0.943952802359882, 0.019911504424778848, 20.141592920353983)" d="M2.10-6.67C2.10-3.83 4.04-1.90 6.84-1.90C8.55-1.90 10.04-2.60 10.75-3.87L10.88-3.87C10.64-2.20 9.21-0.89 8.14 0.14C7.43 0.84 7.83 1.90 8.85 1.90L16.54 1.90C17.55 1.90 17.95 0.84 17.24 0.14C16.17-0.89 14.74-2.20 14.51-3.87L14.63-3.87C15.34-2.60 16.82-1.90 18.53-1.90C21.34-1.90 23.29-3.83 23.29-6.67C23.29-9.35 21.15-11.52 18.52-11.52C17.54-11.52 16.45-11.20 15.61-10.49C17.16-11.80 17.50-13.27 17.50-14.34C17.50-17.02 15.34-19.15 12.69-19.15C10.04-19.15 7.89-17.02 7.89-14.34C7.89-13.27 8.23-11.80 9.77-10.49C8.93-11.20 7.84-11.52 6.87-11.52C4.22-11.52 2.10-9.35 2.10-6.67Z" fill="currentColor"/>
</svg>