<svg xmlns="http://www.w3.org/2000/svg" viewBox="0 0 24 24" width="24" height="24">
  
  <path transform="matrix(0.8703042665306816, 0, 0, 0.8703042665306816, 0.17440081591024992, 19.36868944416114)" d="M13.59 3.02C19.91 3.02 25.08-2.13 25.08-8.46C25.08-14.79 19.91-19.96 13.59-19.96C7.27-19.96 2.10-14.79 2.10-8.46C2.10-2.13 7.27 3.02 13.59 3.02ZM9.36-4.75L9.36-11.63C9.36-12.39 9.86-12.90 10.57-12.90L11.17-12.90L11.17-14.68C11.17-15.52 11.67-16.04 12.45-16.04L14.75-16.04C15.53-16.04 16.03-15.52 16.03-14.68L16.03-12.90L16.62-12.90C17.34-12.90 17.84-12.39 17.84-11.63L17.84-4.75ZM11.87-12.90L15.32-12.90L15.32-14.67C15.32-15.07 15.08-15.33 14.72-15.33L12.45-15.33C12.09-15.33 11.87-15.08 11.87-14.67ZM9.36-4.07L17.84-4.07L17.84-3.28C17.84-2.54 17.39-2.03 16.72-1.99L16.43-1.99L16.43-1.56C16.43-1.29 16.28-1.14 16.02-1.14L15.75-1.14C15.48-1.14 15.34-1.29 15.34-1.56L15.34-1.98L11.85-1.98L11.85-1.56C11.85-1.29 11.72-1.14 11.45-1.14L11.17-1.14C10.90-1.14 10.76-1.29 10.76-1.56L10.76-1.99L10.46-1.99C9.80-2.03 9.36-2.54 9.36-3.28Z" fill="currentColor"/>
</svg>