<svg xmlns="http://www.w3.org/2000/svg" viewBox="0 0 24 24" width="24" height="24">
  
  <path transform="matrix(0.6658863311223826, 0, 0, 0.6658863311223826, 0.010144362075692692, 18.230979321108077)" d="M18.01-13.61C18.23-13.61 18.43-13.80 18.43-14.04L18.43-18.15C18.43-18.40 18.23-18.59 18.01-18.59C17.78-18.59 17.58-18.40 17.58-18.15L17.58-14.04C17.58-13.80 17.78-13.61 18.01-13.61ZM24.05-11.11C24.21-10.95 24.49-10.95 24.66-11.11L27.56-14.02C27.75-14.20 27.74-14.46 27.56-14.63C27.42-14.78 27.14-14.80 26.96-14.63L24.05-11.71C23.89-11.55 23.88-11.26 24.05-11.11ZM11.36-11.11C11.52-10.95 11.80-10.95 11.96-11.11C12.12-11.26 12.12-11.55 11.96-11.71L9.05-14.63C8.87-14.80 8.60-14.78 8.45-14.63C8.27-14.46 8.26-14.20 8.45-14.02ZM24.08-5.07C24.08-8.40 21.35-11.16 18.01-11.16C14.66-11.16 11.93-8.40 11.93-5.07C11.93-3.94 12.26-2.88 12.82-1.98L23.19-1.98C23.75-2.88 24.08-3.94 24.08-5.07ZM4.92-4.93L9.04-4.93C9.29-4.93 9.47-5.13 9.47-5.36C9.46-5.59 9.28-5.79 9.04-5.79L4.92-5.79C4.69-5.79 4.49-5.59 4.49-5.36C4.49-5.13 4.69-4.93 4.92-4.93ZM26.98-4.93L31.09-4.93C31.34-4.93 31.52-5.13 31.52-5.36C31.52-5.59 31.34-5.79 31.09-5.79L26.98-5.79C26.75-5.79 26.54-5.59 26.54-5.36C26.55-5.13 26.75-4.93 26.98-4.93ZM3.47-0.13L32.54-0.13C32.81-0.13 33.02-0.32 33.02-0.55C33.02-0.80 32.81-0.97 32.54-0.97L3.47-0.97C3.20-0.97 2.99-0.80 2.99-0.55C2.99-0.32 3.20-0.13 3.47-0.13Z" fill="currentColor"/>
</svg>