<svg xmlns="http://www.w3.org/2000/svg" viewBox="0 0 24 24" width="24" height="24">
  
  <path transform="matrix(0.730593607305936, 0, 0, 0.730593607305936, -0.06335616438356118, 18.43835616438356)" d="M16.51-17.52C16.73-17.52 16.93-17.72 16.93-17.95L16.93-22.07C16.93-22.31 16.73-22.50 16.51-22.50C16.28-22.50 16.09-22.31 16.09-22.07L16.09-17.95C16.09-17.72 16.28-17.51 16.51-17.52ZM22.56-15.01C22.71-14.86 23.00-14.86 23.16-15.02L26.06-17.93C26.25-18.12 26.24-18.38 26.06-18.53C25.92-18.69 25.65-18.71 25.46-18.53L22.56-15.62C22.39-15.46 22.39-15.18 22.56-15.01ZM10.46-15.01C10.63-15.18 10.63-15.46 10.46-15.62L7.56-18.53C7.37-18.71 7.10-18.69 6.95-18.53C6.77-18.38 6.76-18.12 6.95-17.93L9.86-15.02C10.02-14.86 10.31-14.86 10.46-15.01ZM5.17-4.14L29.61-4.14C29.85-4.14 30.04-4.30 30.04-4.51C30.04-4.73 29.85-4.90 29.61-4.90L21.06-4.90C22.04-5.98 22.64-7.41 22.64-8.98C22.64-12.35 19.88-15.11 16.51-15.11C13.14-15.11 10.38-12.35 10.38-8.98C10.38-7.41 10.98-5.98 11.96-4.90L5.17-4.90C4.95-4.90 4.76-4.73 4.76-4.51C4.76-4.30 4.95-4.14 5.17-4.14ZM11.24-8.98C11.24-11.88 13.61-14.25 16.51-14.25C19.42-14.25 21.79-11.88 21.79-8.98C21.79-7.32 21.01-5.85 19.82-4.90L13.21-4.90C12.01-5.85 11.24-7.32 11.24-8.98ZM3.42-8.85L7.54-8.85C7.78-8.85 7.97-9.04 7.97-9.27C7.97-9.49 7.78-9.70 7.54-9.70L3.42-9.70C3.19-9.70 2.99-9.50 2.99-9.27C2.99-9.05 3.19-8.85 3.42-8.85ZM25.49-8.85L29.60-8.85C29.85-8.85 30.04-9.04 30.04-9.27C30.04-9.49 29.85-9.70 29.60-9.70L25.49-9.70C25.25-9.70 25.04-9.50 25.05-9.27C25.05-9.05 25.25-8.85 25.49-8.85ZM3.40 0.36L27.86 0.36C28.08 0.36 28.27 0.21 28.27-0.01C28.27-0.23 28.08-0.40 27.86-0.40L3.40-0.40C3.18-0.40 2.99-0.23 2.99-0.01C2.99 0.21 3.18 0.36 3.40 0.36ZM5.17 4.88L29.61 4.88C29.85 4.88 30.04 4.71 30.04 4.49C30.04 4.27 29.85 4.11 29.61 4.11L5.17 4.11C4.95 4.11 4.76 4.27 4.76 4.49C4.76 4.71 4.95 4.88 5.17 4.88Z" fill="currentColor"/>
</svg>