<svg xmlns="http://www.w3.org/2000/svg" viewBox="0 0 24 24" width="24" height="24">
  
  <path transform="matrix(0.5086934923000497, 0, 0, 0.5086934923000497, 0.4798807749627423, 17.630402384500744)" d="M24.74-12.88C25.00-12.88 25.18-13.07 25.18-13.32L25.28-21.87C25.28-22.20 25.07-22.41 24.74-22.41C24.41-22.41 24.20-22.20 24.21-21.87L24.29-13.32C24.29-13.07 24.49-12.88 24.74-12.88ZM5.40-2.31L8.10-2.31C8.52-0.80 9.88 0.27 11.54 0.27C13.20 0.27 14.57-0.80 14.99-2.31L31.00-2.31C31.43-0.80 32.79 0.27 34.45 0.27C36.11 0.27 37.48-0.80 37.90-2.31L39.90-2.31C41.51-2.31 42.30-3.15 42.30-4.76L42.30-9.96C42.30-11.34 41.85-12.74 40.98-14.02L40.46-14.77C39.33-16.43 37.68-17.21 35.32-17.21L26.23-17.21L26.21-16.34L35.32-16.34C37.42-16.34 38.78-15.71 39.75-14.29L40.27-13.52C41.04-12.35 41.44-11.20 41.44-9.96L41.44-4.73C41.44-3.70 40.95-3.18 39.88-3.18L38.03-3.18C38.03-3.22 38.04-3.27 38.04-3.30C38.04-5.32 36.46-6.89 34.45-6.89C32.44-6.89 30.87-5.32 30.87-3.30C30.87-3.27 30.87-3.22 30.87-3.18L15.12-3.18C15.13-3.22 15.13-3.27 15.13-3.30C15.13-5.32 13.55-6.89 11.54-6.89C9.53-6.89 7.96-5.32 7.96-3.30C7.96-3.27 7.96-3.22 7.96-3.18L5.43-3.18C4.39-3.18 3.86-3.74 3.86-4.84L3.86-6.74C3.86-9.11 5.25-10.36 8.46-10.76L13.01-11.32L17.82-14.36C19.68-15.52 21-16.02 23.27-16.23L23.26-17.11C20.80-16.90 19.35-16.34 17.37-15.09L12.70-12.16L8.36-11.63C4.76-11.18 2.99-9.55 2.99-6.74L2.99-4.79C2.99-3.16 3.82-2.31 5.40-2.31ZM24.74-8.19C25.28-8.19 25.71-8.64 25.71-9.15C25.71-9.69 25.28-10.11 24.74-10.11C24.20-10.11 23.77-9.69 23.77-9.15C23.77-8.64 24.21-8.19 24.74-8.19ZM11.54-0.60C10.02-0.60 8.82-1.78 8.82-3.30C8.82-4.84 10.02-6.02 11.54-6.02C13.07-6.02 14.25-4.84 14.25-3.30C14.25-1.78 13.07-0.60 11.54-0.60ZM34.45-0.60C32.92-0.60 31.73-1.78 31.73-3.30C31.73-4.84 32.92-6.02 34.45-6.02C35.98-6.02 37.16-4.84 37.16-3.30C37.16-1.78 35.98-0.60 34.45-0.60Z" fill="currentColor"/>
</svg>