<svg xmlns="http://www.w3.org/2000/svg" viewBox="0 0 24 24" width="24" height="24">
  <title>swedishkronasign.circle.fill</title>
  <path transform="matrix(0.8703042665306816, 0, 0, 0.8703042665306816, 0.17440081591024992, 19.36868944416114)" d="M13.59 3.02C19.91 3.02 25.08-2.13 25.08-8.46C25.08-14.79 19.91-19.96 13.59-19.96C7.27-19.96 2.10-14.79 2.10-8.46C2.10-2.13 7.27 3.02 13.59 3.02ZM9.86-3.40C9.63-3.40 9.48-3.57 9.48-3.81L9.48-13.50C9.48-13.75 9.63-13.91 9.86-13.91C10.09-13.91 10.24-13.75 10.24-13.50L10.24-7.21L10.29-7.21L13.58-10.85C13.65-10.93 13.76-10.98 13.85-10.98C14.05-10.98 14.19-10.83 14.19-10.66C14.19-10.55 14.16-10.49 14.07-10.39L11.58-7.69L14.19-4.01C14.26-3.91 14.29-3.82 14.29-3.74C14.29-3.54 14.13-3.40 13.93-3.40C13.80-3.40 13.69-3.47 13.62-3.57L11.05-7.21L10.24-6.38L10.24-3.81C10.24-3.57 10.09-3.40 9.86-3.40ZM16.20-3.40C15.97-3.40 15.83-3.55 15.83-3.81L15.83-10.61C15.83-10.83 15.97-10.98 16.18-10.98C16.38-10.98 16.52-10.83 16.52-10.61L16.52-9.47L16.62-9.47C16.80-10.31 17.31-10.98 18.14-10.98C18.47-10.98 18.83-10.85 18.83-10.52C18.83-10.38 18.74-10.28 18.57-10.27C18.42-10.23 18.26-10.25 18.08-10.25C16.95-10.25 16.56-9 16.56-8.04L16.56-3.81C16.56-3.54 16.41-3.40 16.20-3.40Z" fill="currentColor"/>
</svg>