<svg xmlns="http://www.w3.org/2000/svg" viewBox="0 0 24 24" width="24" height="24">
  <title>t.circle.fill</title>
  <path transform="matrix(0.8703042665306816, 0, 0, 0.8703042665306816, 0.17440081591024992, 19.36868944416114)" d="M13.59 3.02C19.91 3.02 25.08-2.13 25.08-8.46C25.08-14.79 19.91-19.96 13.59-19.96C7.27-19.96 2.10-14.79 2.10-8.46C2.10-2.13 7.27 3.02 13.59 3.02ZM13.52-3.14C13.25-3.14 13.07-3.34 13.07-3.62L13.07-12.89L9.87-12.89C9.64-12.89 9.47-13.07 9.47-13.29C9.47-13.55 9.64-13.70 9.87-13.70L17.29-13.70C17.53-13.70 17.70-13.55 17.70-13.29C17.70-13.07 17.53-12.89 17.29-12.89L13.98-12.89L13.98-3.62C13.98-3.34 13.80-3.14 13.52-3.14Z" fill="currentColor"/>
</svg>