<svg xmlns="http://www.w3.org/2000/svg" viewBox="0 0 24 24" width="24" height="24">
  
  <path transform="matrix(0.9642184557438794, 0, 0, 0.9642184557438794, -0.8813559322033897, 20.15819209039548)" d="M6.15 1.91L20.58 1.91C22.65 1.91 23.73 0.81 23.73-1.24L23.73-15.68C23.73-17.73 22.65-18.83 20.58-18.83L6.15-18.83C4.08-18.83 2.99-17.75 2.99-15.68L2.99-1.24C2.99 0.83 4.08 1.91 6.15 1.91ZM11.46-2.25L7.39-6.32C6.94-6.79 6.93-7.27 7.41-7.76L13.44-13.83C13.83-14.20 14.11-14.43 14.68-14.43L17.04-14.43C17.51-14.43 17.74-14.27 18.06-13.97L19.17-12.90C19.49-12.59 19.61-12.35 19.61-11.87L19.61-9.55C19.61-8.95 19.38-8.67 19.00-8.31L12.91-2.25C12.41-1.77 11.92-1.79 11.46-2.25ZM15.84-10.70C16.11-10.43 16.57-10.42 16.83-10.70C17.11-10.98 17.12-11.44 16.84-11.70C16.56-11.96 16.09-11.96 15.84-11.70C15.56-11.39 15.56-10.96 15.84-10.70Z" fill="currentColor"/>
</svg>