<svg xmlns="http://www.w3.org/2000/svg" viewBox="0 0 24 24" width="24" height="24">
  
  <path transform="matrix(0.7173882583718649, 0, 0, 0.7173882583718649, -0.14375788146279955, 18.069852114716188)" d="M25.29 0.39C24.87 0.87 25.50 1.43 25.93 0.97C26.95-0.22 27.49-1.88 27.56-3.67L30.43-3.67C30.66-3.67 30.87-3.87 30.87-4.10C30.87-4.35 30.66-4.54 30.43-4.54L27.55-4.54C27.50-5.70 27.27-6.88 26.85-8.03L30.43-8.03C30.66-8.03 30.87-8.24 30.87-8.46C30.87-8.71 30.66-8.89 30.43-8.89L26.51-8.89C26.09-10.07 25.84-11.26 25.78-12.39L30.43-12.39C30.66-12.39 30.87-12.57 30.87-12.82C30.87-13.05 30.66-13.27 30.43-13.27L25.77-13.27C25.80-14.87 26.25-16.30 27.12-17.32C27.55-17.79 26.92-18.35 26.47-17.89C25.46-16.70 24.93-15.06 24.86-13.27L22.24-13.27C22.29-12.97 22.34-12.67 22.37-12.39L24.86-12.39C24.90-11.24 25.15-10.04 25.57-8.89L22.59-8.89C22.61-8.67 22.61-8.25 22.59-8.03L25.90-8.03C26.32-6.86 26.57-5.66 26.64-4.54L22.37-4.54C22.34-4.25 22.29-3.95 22.24-3.67L26.65-3.67C26.60-2.05 26.16-0.62 25.29 0.39ZM21.55-8.46C21.57-10.95 21.35-12.98 20.79-14.96C20.19-17.05 18.73-17.88 16.35-17.88L15.87-17.88C9.42-17.88 2.99-13.52 2.99-8.46C2.99-3.40 9.42 0.96 15.87 0.96L16.35 0.96C18.73 0.96 20.19 0.13 20.79-1.96C21.35-3.94 21.57-5.98 21.55-8.46ZM20.68-8.46C20.70-5.93 20.47-4.05 19.96-2.19C19.50-0.62 18.39 0.09 16.35 0.09L15.87 0.09C9.95 0.09 3.86-3.89 3.86-8.46C3.86-13.03 9.95-17.02 15.87-17.02L16.35-17.02C18.29-17.02 19.48-16.37 19.96-14.73C20.47-12.87 20.70-11.00 20.68-8.46Z" fill="currentColor"/>
</svg>