<svg xmlns="http://www.w3.org/2000/svg" viewBox="0 0 24 24" width="24" height="24">
  <title>tengesign.arrow.trianglehead.counterclockwise.rotate.90</title>
  <path transform="matrix(0.7936191439480075, 0, 0, 0.7936191439480075, 2.097519905678875, 18.719412087919167)" d="M0.36-10.48C-0.11-10.48-0.27-10.14 0.02-9.71L2.48-6.20C2.74-5.85 3.07-5.85 3.32-6.20L5.78-9.73C6.07-10.14 5.91-10.48 5.44-10.48L3.18-10.48C4.13-15.38 8.41-19.07 13.58-19.07C19.44-19.07 24.19-14.32 24.19-8.46C24.19-2.60 19.44 2.13 13.58 2.13C9.73 2.13 6.35 0.08 4.51-3.02C4.36-3.23 4.10-3.30 3.88-3.19C3.68-3.06 3.61-2.77 3.76-2.53C5.78 0.81 9.42 3.02 13.58 3.02C19.93 3.02 25.08-2.11 25.08-8.46C25.08-14.81 19.93-19.96 13.58-19.96C7.92-19.96 3.22-15.87 2.27-10.48ZM9.74-13.18C9.74-13.03 9.86-12.93 10.00-12.93L17.17-12.93C17.31-12.93 17.44-13.04 17.44-13.18C17.44-13.32 17.31-13.44 17.17-13.44L10.00-13.44C9.86-13.44 9.74-13.32 9.74-13.18ZM13.61-3.28C13.83-3.28 13.99-3.45 13.99-3.68L13.99-10.72L17.11-10.72C17.30-10.72 17.44-10.86 17.44-11.05C17.44-11.23 17.30-11.37 17.11-11.37L10.09-11.37C9.90-11.37 9.76-11.23 9.76-11.05C9.76-10.86 9.90-10.72 10.09-10.72L13.21-10.72L13.21-3.68C13.21-3.45 13.38-3.28 13.61-3.28Z" fill="currentColor"/>
</svg>