<svg xmlns="http://www.w3.org/2000/svg" viewBox="0 0 24 24" width="24" height="24">
  
  <path transform="matrix(0.9642184557438794, 0, 0, 0.9642184557438794, -0.8813559322033897, 20.15819209039548)" d="M6.15 1.91L20.58 1.91C22.65 1.91 23.73 0.81 23.73-1.24L23.73-15.68C23.73-17.73 22.65-18.83 20.58-18.83L6.15-18.83C4.08-18.83 2.99-17.75 2.99-15.68L2.99-1.24C2.99 0.83 4.08 1.91 6.15 1.91ZM6.18 1.04C4.65 1.04 3.86 0.25 3.86-1.28L3.86-15.63C3.86-17.17 4.65-17.96 6.18-17.96L20.54-17.96C22.02-17.96 22.86-17.17 22.86-15.63L22.86-1.28C22.86 0.25 22.02 1.04 20.54 1.04ZM9.52-13.18C9.52-13.03 9.63-12.93 9.77-12.93L16.95-12.93C17.10-12.93 17.21-13.04 17.21-13.18C17.21-13.32 17.10-13.44 16.95-13.44L9.77-13.44C9.63-13.44 9.52-13.32 9.52-13.18ZM13.38-3.28C13.61-3.28 13.77-3.45 13.77-3.68L13.77-10.72L16.89-10.72C17.07-10.72 17.21-10.86 17.21-11.05C17.21-11.23 17.07-11.37 16.89-11.37L9.87-11.37C9.68-11.37 9.54-11.23 9.54-11.05C9.54-10.86 9.68-10.72 9.87-10.72L12.98-10.72L12.98-3.68C12.98-3.45 13.16-3.28 13.38-3.28Z" fill="currentColor"/>
</svg>