<svg xmlns="http://www.w3.org/2000/svg" viewBox="0 0 24 24" width="24" height="24">
  <title>text.line.last.and.arrowtriangle.forward</title>
  <path transform="matrix(0.6791351638148295, 0, 0, 0.6791351638148295, 2.5332272184639875, 16.84274164999053)" d="M6.42-18.09C6.16-18.09 5.99-17.92 5.99-17.66C5.99-17.40 6.16-17.23 6.42-17.23L28.23-17.23C28.49-17.23 28.66-17.40 28.66-17.66C28.66-17.92 28.49-18.09 28.23-18.09ZM6.42-11.96C6.16-11.96 5.99-11.78 5.99-11.53C5.99-11.27 6.16-11.10 6.42-11.10L28.23-11.10C28.49-11.10 28.66-11.27 28.66-11.53C28.66-11.78 28.49-11.96 28.23-11.96ZM6.42-5.84C6.16-5.84 5.99-5.65 5.99-5.39C5.99-5.14 6.16-4.96 6.42-4.96L28.23-4.96C28.49-4.96 28.66-5.14 28.66-5.39C28.66-5.65 28.49-5.84 28.23-5.84ZM-0.07-2.27C-0.40-2.47-0.79-2.33-0.79-1.90L-0.79 3.36C-0.79 3.80-0.41 3.95-0.08 3.74L4.14 1.16C4.49 0.95 4.50 0.50 4.14 0.28ZM6.91-0.61C6.32-0.61 5.99-0.28 5.99 0.32L5.99 1.16C5.99 1.76 6.32 2.09 6.91 2.09L27.74 2.09C28.34 2.09 28.66 1.76 28.66 1.16L28.66 0.32C28.66-0.28 28.34-0.61 27.74-0.61Z" fill="currentColor"/>
</svg>