<svg xmlns="http://www.w3.org/2000/svg" viewBox="0 0 24 24" width="24" height="24">
  
  <path transform="matrix(0.6938524666081244, 0, 0, 0.6938524666081244, 0.55017073897849, 18.080748206976487)" d="M5.07-9.64C6.42-4.56 10.10-2.30 14.95-3.54C15.27-3.63 15.59-3.73 15.89-3.82C15.89-3.77 15.89-3.73 15.89-3.69C14.92-3.64 14.00-3.21 13.37-2.37C12.26-0.90 12.95 0.45 12.22 1.42C11.77 2.00 10.77 1.86 10.31 2.48C9.96 2.95 10.00 3.69 10.75 4.34C13.27 6.50 17.75 5.84 19.56 3.43C20.47 2.21 20.81 0.77 20.38-0.55C21.47-0.84 22.20-1.49 23.07-2.73C25.89-6.76 29.53-15.66 29.86-16.51C30.59-18.41 28.61-19.84 27.08-18.46C26.64-18.05 23.81-15.12 21.09-12C21.04-12.60 20.92-13.21 20.74-13.84L18.73-21.27C18.30-22.82 17.12-23.47 15.56-23.05L4.93-20.21C3.39-19.80 2.70-18.62 3.11-17.07ZM5.94-9.88L3.95-17.30C3.68-18.33 4.14-19.14 5.17-19.41L15.77-22.24C16.82-22.51 17.61-22.04 17.89-21.01L19.88-13.61C20.11-12.70 20.24-11.85 20.24-11.02C19.01-9.57 17.86-8.14 17.04-6.95C16.45-6.13 16.11-5.47 15.96-4.78C15.60-4.63 15.26-4.52 14.87-4.42C10.48-3.27 7.17-5.30 5.94-9.88ZM27.61-17.85C28.39-18.66 29.53-17.84 29.11-16.82C28.79-16.07 25.58-8.30 22.90-4.05C22.08-5.68 20.12-7.05 18.32-7.27C21.41-11.40 27.02-17.25 27.61-17.85ZM15.32-15.45C16.00-15.61 16.41-15.27 16.70-15.36C16.86-15.41 17.02-15.67 16.91-16.05C16.66-16.99 15.75-17.48 14.85-17.24C13.92-16.98 13.37-16.11 13.63-15.19C13.73-14.79 14.02-14.64 14.19-14.68C14.48-14.75 14.63-15.26 15.32-15.45ZM8.99-13.73C9.67-13.90 10.08-13.56 10.37-13.65C10.54-13.70 10.69-13.96 10.58-14.34C10.32-15.28 9.41-15.77 8.52-15.53C7.58-15.27 7.04-14.40 7.30-13.48C7.41-13.08 7.69-12.91 7.86-12.97C8.16-13.04 8.29-13.54 8.99-13.73ZM14.21-6.94C16.51-7.57 17.95-9.32 17.96-11.55C17.96-11.98 17.63-12.16 17.27-11.91C16.20-11.11 14.84-10.50 13.55-10.13C12.13-9.70 10.51-9.48 9.07-9.67C8.66-9.74 8.45-9.43 8.68-9.06C9.79-7.15 11.92-6.34 14.21-6.94ZM18.74-2.73C18.13-3.19 17.46-3.49 16.79-3.62C16.70-4.49 17.03-5.45 17.74-6.47L17.75-6.49C19.49-6.54 21.81-4.93 22.37-3.27C22.36-3.25 22.36-3.23 22.35-3.22C21.50-2.02 20.82-1.56 19.99-1.38C19.70-1.86 19.28-2.32 18.74-2.73ZM11.57 3.83C11.13 3.49 11.10 3.09 11.27 2.88C11.54 2.51 12.41 2.64 12.93 1.90C13.79 0.69 13.17-0.64 14.04-1.82C14.98-3.08 16.80-3.13 18.21-2.09C20.04-0.75 20.05 1.31 18.89 2.91C17.40 4.97 13.69 5.57 11.57 3.83Z" fill="currentColor"/>
</svg>