<svg xmlns="http://www.w3.org/2000/svg" viewBox="0 0 24 24" width="24" height="24">
  
  <path transform="matrix(0.735632183908046, 0, 0, 0.735632183908046, -0.1982758620689653, 19.060344827586206)" d="M16.58-6.68C16.82-6.68 17.02-6.88 17.02-7.11L17.02-19.77L16.98-21.42L17.86-20.52L20.27-18.07C20.36-17.99 20.47-17.93 20.58-17.93C20.79-17.93 20.98-18.11 20.98-18.33C20.98-18.45 20.93-18.53 20.85-18.61L16.90-22.55C16.79-22.64 16.70-22.69 16.58-22.69C16.48-22.69 16.37-22.64 16.28-22.55L12.30-18.61C12.22-18.53 12.18-18.45 12.18-18.33C12.18-18.11 12.35-17.93 12.57-17.93C12.68-17.93 12.80-17.99 12.88-18.07L15.29-20.52L16.18-21.42L16.15-19.77L16.15-7.11C16.15-6.88 16.35-6.68 16.58-6.68ZM18.66-15.32L18.66-14.52L21.86-14.52C22.84-14.52 23.46-14.23 24.02-13.50L29.09-6.90C29.19-6.75 29.14-6.57 28.95-6.57L20.37-6.57C19.99-6.57 19.82-6.33 19.82-5.99L19.82-5.91C19.82-4.07 18.43-2.61 16.58-2.61C14.74-2.61 13.36-4.07 13.36-5.91L13.36-5.99C13.36-6.33 13.17-6.57 12.80-6.57L4.23-6.57C4.03-6.57 3.98-6.75 4.09-6.90L9.15-13.50C9.71-14.23 10.34-14.52 11.31-14.52L14.51-14.52L14.51-15.32L11.45-15.32C9.84-15.32 9.23-15 8.29-13.75L3.42-7.41C3.09-6.97 2.99-6.67 2.99-5.98L2.99 0.34C2.99 2.41 4.08 3.49 6.15 3.49L27.02 3.49C29.10 3.49 30.18 2.39 30.18 0.34L30.18-5.98C30.18-6.67 30.07-6.97 29.74-7.41L24.89-13.75C23.93-15 23.33-15.32 21.71-15.32Z" fill="currentColor"/>
</svg>