<svg xmlns="http://www.w3.org/2000/svg" viewBox="0 0 24 24" width="24" height="24">
  
  <path transform="matrix(0.8119251506501745, 0, 0, 0.8119251506501745, 0.05899143672692664, 19.069457659372027)" d="M3.61 2.07L25.80 2.07C26.61 2.07 27.02 1.66 27.02 1.10C27.02 0.84 26.93 0.56 26.77 0.28L15.64-18.97C15.45-19.32 15.09-19.49 14.71-19.49C14.31-19.49 13.97-19.32 13.77-18.97L2.65 0.28C2.48 0.56 2.39 0.84 2.39 1.10C2.39 1.66 2.80 2.07 3.61 2.07ZM3.84 1.21C3.56 1.21 3.40 1.08 3.40 0.87C3.40 0.77 3.42 0.67 3.49 0.55L14.39-18.32C14.47-18.46 14.58-18.53 14.71-18.53C14.82-18.53 14.94-18.46 15.02-18.32L25.92 0.55C25.99 0.67 26.02 0.77 26.02 0.87C26.02 1.08 25.85 1.21 25.56 1.21Z" fill="currentColor"/>
</svg>