<svg xmlns="http://www.w3.org/2000/svg" viewBox="0 0 24 24" width="24" height="24">
  
  <path transform="matrix(0.8703042665306816, 0, 0, 0.8703042665306816, 0.17440081591024992, 19.34829168791433)" d="M13.59 3.05C19.91 3.05 25.08-2.12 25.08-8.45C25.08-14.78 19.91-19.93 13.59-19.93C7.27-19.93 2.10-14.78 2.10-8.45C2.10-2.12 7.27 3.05 13.59 3.05ZM9.91-8.45C9.91-12.81 13.43-16.18 17.80-16.18C18.07-16.18 18.25-16.03 18.25-15.81C18.25-15.59 18.07-15.42 17.80-15.42C14.78-15.42 12.23-13.69 11.18-11.16C11.81-11.75 12.67-12.13 13.59-12.13C15.60-12.13 17.27-10.46 17.27-8.45C17.27-4.09 13.75-0.71 9.38-0.71C9.12-0.71 8.93-0.87 8.93-1.09C8.93-1.31 9.12-1.48 9.38-1.48C12.40-1.48 14.92-3.20 15.98-5.73C15.36-5.13 14.52-4.76 13.59-4.76C11.58-4.76 9.91-6.43 9.91-8.45ZM10.68-8.45C10.68-6.83 11.98-5.53 13.59-5.53C15.20-5.53 16.51-6.83 16.51-8.45C16.51-10.05 15.20-11.37 13.59-11.37C11.98-11.37 10.68-10.05 10.68-8.45ZM12.56-8.45C12.56-9.02 13.03-9.48 13.59-9.48C14.17-9.48 14.63-9.02 14.63-8.45C14.63-7.89 14.17-7.42 13.59-7.42C13.03-7.42 12.56-7.89 12.56-8.45Z" fill="currentColor"/>
</svg>