<svg xmlns="http://www.w3.org/2000/svg" viewBox="0 0 24 24" width="24" height="24">
  
  <path transform="matrix(0.4605144810217665, 0, 0, 0.4605144810217665, 0.6238532110091743, 17.693470048569885)" d="M22.09-13.61L27.43-13.61C28.28-13.61 28.69-14.03 28.69-14.93L28.69-19.42C28.69-20.29 28.31-20.70 27.56-20.74L27.56-21.93C27.56-23.73 26.45-24.91 24.76-24.91C23.09-24.91 21.96-23.73 21.96-21.93L21.96-20.74C21.21-20.70 20.84-20.29 20.84-19.42L20.84-14.93C20.84-14.03 21.26-13.61 22.09-13.61ZM22.71-21.97C22.71-23.31 23.53-24.18 24.76-24.18C26.00-24.18 26.82-23.31 26.82-21.97L26.82-20.74L22.71-20.74ZM5.40-2.26L7.23-2.26C7.18-2.53 7.15-2.81 7.15-3.11C7.15-5.50 9.05-7.39 11.44-7.39C13.83-7.39 15.73-5.50 15.73-3.11C15.73-2.81 15.69-2.53 15.63-2.26L31.57-2.26C31.51-2.53 31.48-2.81 31.48-3.11C31.48-5.50 33.39-7.39 35.78-7.39C38.17-7.39 40.07-5.50 40.07-3.11C40.07-2.81 40.03-2.53 39.97-2.26L44.00-2.26C45.59-2.26 46.42-3.12 46.42-4.75L46.42-9.21C46.42-10.84 45.59-11.70 44.00-11.70L33.70-11.70L33.40-14.37C33.19-16.18 32.09-17.14 30.45-17.19L29.73-17.19L29.73-14.93C29.73-13.45 28.84-12.56 27.43-12.56L22.09-12.56C20.67-12.56 19.79-13.45 19.79-14.93L19.79-16.48C19.05-16.18 18.26-15.76 17.46-15.27L12.53-12.16L8.18-11.60C4.69-11.14 2.99-9.59 2.99-6.87L2.99-4.75C2.99-3.12 3.82-2.26 5.40-2.26ZM11.44 0.19C13.28 0.19 14.73-1.27 14.73-3.11C14.73-4.95 13.28-6.40 11.44-6.40C9.59-6.40 8.14-4.95 8.14-3.11C8.14-1.27 9.59 0.19 11.44 0.19ZM35.78 0.19C37.62 0.19 39.07-1.27 39.07-3.11C39.07-4.95 37.62-6.40 35.78-6.40C33.94-6.40 32.47-4.95 32.47-3.11C32.47-1.27 33.93 0.19 35.78 0.19Z" fill="currentColor"/>
</svg>