<svg xmlns="http://www.w3.org/2000/svg" viewBox="0 0 24 24" width="24" height="24">
  <title>truck.pickup.side.arrow.left.and.right.fill</title>
  <path transform="matrix(0.4605144810217665, 0, 0, 0.4605144810217665, 0.6238532110091743, 14.114788167480672)" d="M5.40-2.26L7.23-2.26C7.18-2.53 7.15-2.81 7.15-3.11C7.15-5.50 9.05-7.39 11.44-7.39C13.83-7.39 15.73-5.50 15.73-3.11C15.73-2.81 15.69-2.53 15.63-2.26L31.57-2.26C31.51-2.53 31.48-2.81 31.48-3.11C31.48-5.50 33.39-7.39 35.78-7.39C38.17-7.39 40.07-5.50 40.07-3.11C40.07-2.81 40.03-2.53 39.97-2.26L44.00-2.26C45.59-2.26 46.42-3.12 46.42-4.75L46.42-9.21C46.42-10.84 45.59-11.70 44.00-11.70L33.70-11.70L33.40-14.37C33.19-16.21 32.06-17.21 30.25-17.21L25.50-17.21C21.68-17.21 19.86-16.78 17.46-15.27L12.53-12.16L8.18-11.60C4.69-11.14 2.99-9.59 2.99-6.87L2.99-4.75C2.99-3.12 3.82-2.26 5.40-2.26ZM11.44 0.19C13.28 0.19 14.73-1.27 14.73-3.11C14.73-4.95 13.28-6.40 11.44-6.40C9.59-6.40 8.14-4.95 8.14-3.11C8.14-1.27 9.59 0.19 11.44 0.19ZM35.78 0.19C37.62 0.19 39.07-1.27 39.07-3.11C39.07-4.95 37.62-6.40 35.78-6.40C33.94-6.40 32.47-4.95 32.47-3.11C32.47-1.27 33.93 0.19 35.78 0.19ZM15.43 7.50L15.43 5.73L33.04 5.73L33.04 7.50C33.04 8.00 33.56 8.19 33.97 7.88L36.67 5.84C37.02 5.58 37.00 5.11 36.67 4.86L33.97 2.82C33.56 2.51 33.04 2.70 33.04 3.20L33.04 4.97L15.43 4.97L15.43 3.20C15.43 2.70 14.92 2.51 14.48 2.82L11.79 4.86C11.47 5.11 11.45 5.58 11.79 5.84L14.48 7.88C14.91 8.18 15.43 8.00 15.43 7.50Z" fill="currentColor"/>
</svg>