<svg xmlns="http://www.w3.org/2000/svg" viewBox="0 0 24 24" width="24" height="24">
  <title>truck.pickup.side.arrowtriangle.up.arrowtriangle.down.fill</title>
  <path transform="matrix(0.4605144810217665, 0, 0, 0.4605144810217665, 0.6238532110091743, 14.875050602989447)" d="M5.40-2.26L7.23-2.26C7.18-2.53 7.15-2.81 7.15-3.11C7.15-5.50 9.05-7.39 11.44-7.39C13.83-7.39 15.73-5.50 15.73-3.11C15.73-2.81 15.69-2.53 15.63-2.26L31.57-2.26C31.51-2.53 31.48-2.81 31.48-3.11C31.48-5.50 33.39-7.39 35.78-7.39C38.17-7.39 40.07-5.50 40.07-3.11C40.07-2.81 40.03-2.53 39.97-2.26L44.00-2.26C45.59-2.26 46.42-3.12 46.42-4.75L46.42-9.21C46.42-10.84 45.59-11.70 44.00-11.70L33.70-11.70L33.40-14.37C33.19-16.21 32.06-17.21 30.25-17.21L25.50-17.21C21.68-17.21 19.86-16.78 17.46-15.27L12.53-12.16L8.18-11.60C4.69-11.14 2.99-9.59 2.99-6.87L2.99-4.75C2.99-3.12 3.82-2.26 5.40-2.26ZM20.91-4.88C20.46-4.88 20.32-5.26 20.53-5.59L23.09-9.80C23.30-10.16 23.75-10.15 23.96-9.80L26.54-5.58C26.74-5.25 26.60-4.88 26.16-4.88ZM11.44 0.19C13.28 0.19 14.73-1.27 14.73-3.11C14.73-4.95 13.28-6.40 11.44-6.40C9.59-6.40 8.14-4.95 8.14-3.11C8.14-1.27 9.59 0.19 11.44 0.19ZM35.78 0.19C37.62 0.19 39.07-1.27 39.07-3.11C39.07-4.95 37.62-6.40 35.78-6.40C33.94-6.40 32.47-4.95 32.47-3.11C32.47-1.27 33.93 0.19 35.78 0.19ZM20.91-0.47C20.46-0.47 20.32-0.07 20.53 0.26L23.09 4.46C23.30 4.83 23.75 4.80 23.96 4.46L26.54 0.25C26.74-0.08 26.60-0.47 26.16-0.47Z" fill="currentColor"/>
</svg>