<svg xmlns="http://www.w3.org/2000/svg" viewBox="0 0 24 24" width="24" height="24">
  <title>truck.side.roof.cargo.carrier</title>
  <path transform="matrix(0.4952602050686787, 0, 0, 0.4952602050686787, 0.5200232153221125, 17.626813697040046)" d="M19.91-17.61L29.95-17.61C30.74-17.61 31.13-18.13 31.13-18.93L31.13-20.82C31.13-22.30 30.45-22.99 28.77-22.99L27.19-22.99C25.99-22.99 24.95-22.63 23.63-21.75L19.97-19.14C19.38-18.71 19.22-18.54 19.22-18.22C19.22-17.82 19.44-17.61 19.91-17.61ZM5.23-2.12L7.64-2.12C8.03-0.73 9.30 0.27 10.84 0.27C12.39 0.27 13.65-0.73 14.05-2.12L30.27-2.12C30.67-0.73 31.95 0.27 33.48 0.27C35.02 0.27 36.28-0.73 36.68-2.12L41.13-2.12C42.61-2.12 43.37-2.92 43.37-4.44L43.37-8.64C43.37-10.16 42.61-10.95 41.13-10.95L31.55-10.95L31.27-13.35C31.05-15.06 30.02-15.98 28.34-15.98L23.92-15.98C20.37-15.98 18.68-15.59 16.44-14.18L11.86-11.30L7.83-10.77C4.57-10.34 2.99-8.88 2.99-6.36L2.99-4.44C2.99-2.92 3.76-2.12 5.23-2.12ZM36.81-3.06C36.81-4.93 35.34-6.40 33.48-6.40C31.62-6.40 30.14-4.93 30.14-3.06L30.15-3L14.18-3C14.18-3.01 14.18-3.04 14.18-3.06C14.18-4.93 12.71-6.40 10.84-6.40C8.98-6.40 7.51-4.93 7.51-3.06L7.51-3L5.25-3C4.32-3 3.86-3.48 3.86-4.49L3.86-6.36C3.86-8.46 5.05-9.54 7.92-9.90L12.16-10.44L16.92-13.42C19.02-14.73 20.52-15.12 23.92-15.12L28.31-15.12C29.54-15.12 30.26-14.45 30.39-13.20L30.71-10.08L41.11-10.08C42.04-10.08 42.50-9.60 42.50-8.59L42.50-4.49C42.50-3.48 42.04-3 41.11-3L36.81-3C36.81-3.01 36.81-3.04 36.81-3.06ZM10.84-0.60C9.46-0.60 8.38-1.66 8.38-3.06C8.38-4.45 9.46-5.52 10.84-5.52C12.23-5.52 13.31-4.45 13.31-3.06C13.31-1.66 12.23-0.60 10.84-0.60ZM33.48-0.60C32.09-0.60 31.02-1.66 31.02-3.06C31.02-4.45 32.09-5.52 33.48-5.52C34.88-5.52 35.93-4.45 35.93-3.06C35.93-1.66 34.88-0.60 33.48-0.60Z" fill="currentColor"/>
</svg>