<svg xmlns="http://www.w3.org/2000/svg" viewBox="0 0 24 24" width="24" height="24">
  
  <path transform="matrix(0.9642184557438794, 0, 0, 0.9642184557438794, -0.8813559322033897, 20.15819209039548)" d="M6.15 1.91L20.58 1.91C22.65 1.91 23.73 0.81 23.73-1.24L23.73-15.68C23.73-17.73 22.65-18.83 20.58-18.83L6.15-18.83C4.08-18.83 2.99-17.75 2.99-15.68L2.99-1.24C2.99 0.83 4.08 1.91 6.15 1.91ZM13.37-3.20C13.14-3.20 12.97-3.36 12.97-3.61L12.97-6.09L11.13-5.33C11.09-5.31 11.02-5.30 10.97-5.30C10.79-5.30 10.72-5.44 10.72-5.54C10.72-5.67 10.78-5.74 10.92-5.81L12.97-6.66L12.97-8.29L11.13-7.52C11.09-7.50 11.02-7.49 10.97-7.49C10.79-7.49 10.72-7.63 10.72-7.73C10.72-7.85 10.78-7.93 10.92-8.00L12.97-8.85L12.97-12.56L9.86-12.56C9.62-12.56 9.46-12.71 9.46-12.91C9.46-13.14 9.61-13.29 9.86-13.29L16.90-13.29C17.12-13.29 17.29-13.14 17.29-12.91C17.29-12.71 17.13-12.56 16.90-12.56L13.78-12.56L13.78-9.20L15.62-9.96C15.67-9.98 15.74-10.00 15.79-10.00C15.90-10.00 16.03-9.93 16.03-9.75C16.03-9.62 15.97-9.55 15.82-9.48L13.78-8.63L13.78-7.01L15.62-7.77C15.67-7.79 15.74-7.80 15.79-7.80C15.90-7.80 16.03-7.73 16.03-7.56C16.03-7.43 15.97-7.36 15.82-7.29L13.78-6.45L13.78-3.61C13.78-3.36 13.62-3.20 13.37-3.20Z" fill="currentColor"/>
</svg>