<svg xmlns="http://www.w3.org/2000/svg" viewBox="0 0 24 24" width="24" height="24">
  <title>tugriksign.bank.building.fill</title>
  <path transform="matrix(0.8244766505636071, 0, 0, 0.8244766505636071, -0.4637681159420288, 18.97584541062802)" d="M3.42 3.45L26.81 3.45C27.06 3.45 27.25 3.25 27.25 3C27.25 2.77 27.06 2.57 26.81 2.57L26.18 2.57L26.18 1.85C26.18 1.65 26.05 1.52 25.84 1.52L25.10 1.52L25.10-13.35L26.23-13.35C26.53-13.35 26.68-13.55 26.68-13.78C26.68-13.92 26.60-14.09 26.41-14.20L16.31-20.03C15.93-20.25 15.52-20.37 15.12-20.37C14.72-20.37 14.31-20.25 13.93-20.03L3.83-14.20C3.63-14.09 3.55-13.92 3.55-13.78C3.55-13.55 3.70-13.35 4.02-13.35L5.14-13.35L5.14 1.52L4.39 1.52C4.20 1.52 4.07 1.65 4.07 1.85L4.07 2.57L3.42 2.57C3.19 2.57 2.99 2.77 2.99 3C2.99 3.25 3.19 3.45 3.42 3.45ZM15.13-1.92C14.89-1.92 14.73-2.07 14.73-2.33L14.73-4.82L12.89-4.04C12.84-4.03 12.77-4.02 12.73-4.02C12.55-4.02 12.48-4.16 12.48-4.27C12.48-4.38 12.54-4.46 12.68-4.52L14.73-5.38L14.73-7.01L12.89-6.23C12.84-6.22 12.77-6.20 12.73-6.20C12.55-6.20 12.48-6.35 12.48-6.46C12.48-6.57 12.54-6.64 12.68-6.71L14.73-7.57L14.73-11.29L11.61-11.29C11.38-11.29 11.21-11.43 11.21-11.64C11.21-11.86 11.38-12 11.61-12L18.66-12C18.88-12 19.04-11.86 19.04-11.64C19.04-11.44 18.89-11.29 18.66-11.29L15.54-11.29L15.54-7.91L17.38-8.68C17.43-8.70 17.50-8.72 17.54-8.72C17.67-8.72 17.79-8.64 17.79-8.46C17.79-8.34 17.73-8.27 17.59-8.20L15.54-7.35L15.54-5.72L17.38-6.49C17.43-6.52 17.50-6.53 17.54-6.53C17.67-6.53 17.79-6.45 17.79-6.28C17.79-6.15 17.73-6.08 17.59-6.01L15.54-5.16L15.54-2.33C15.54-2.07 15.38-1.92 15.13-1.92Z" fill="currentColor"/>
</svg>