<svg xmlns="http://www.w3.org/2000/svg" viewBox="0 0 24 24" width="24" height="24">
  <title>tv.fill</title>
  <path transform="matrix(0.7262411347517731, 0, 0, 0.7262411347517731, -0.17021276595744705, 18.144680851063832)" d="M5.37-0.80L28.15-0.80C29.70-0.80 30.53-1.63 30.53-3.18L30.53-16.79C30.53-18.34 29.70-19.17 28.15-19.17L5.37-19.17C3.83-19.17 2.99-18.34 2.99-16.79L2.99-3.18C2.99-1.63 3.83-0.80 5.37-0.80ZM11.16 2.25L22.36 2.25C22.61 2.25 22.80 2.06 22.80 1.80C22.80 1.56 22.61 1.37 22.36 1.37L11.16 1.37C10.91 1.37 10.71 1.56 10.71 1.80C10.71 2.06 10.91 2.25 11.16 2.25Z" fill="currentColor"/>
</svg>