<svg xmlns="http://www.w3.org/2000/svg" viewBox="0 0 24 24" width="24" height="24">
  <title>videoprojector.fill</title>
  <path transform="matrix(0.6233260287314342, 0, 0, 0.6233260287314342, 0.13732651570489396, 17.37618699780862)" d="M19.03-2.89C22.68-2.89 25.49-5.70 25.49-9.34C25.49-12.98 22.68-15.81 19.03-15.81C15.39-15.81 12.57-12.98 12.57-9.34C12.57-5.70 15.39-2.89 19.03-2.89ZM11.58-9.34C11.58-11.92 12.82-14.16 14.75-15.49L5.95-15.49C4.10-15.49 2.99-14.40 2.99-12.55L2.99-6.15C2.99-4.43 3.96-3.36 5.59-3.23L5.59-2.10C5.59-1.70 5.86-1.44 6.27-1.44L10.35-1.44C10.75-1.44 11.02-1.70 11.02-2.10L11.02-3.22L14.73-3.22C12.81-4.55 11.58-6.77 11.58-9.34ZM32.12-15.49L23.31-15.49C25.24-14.16 26.50-11.92 26.50-9.34C26.50-6.77 25.25-4.55 23.33-3.22L27.05-3.22L27.05-2.10C27.05-1.70 27.32-1.44 27.73-1.44L31.80-1.44C32.20-1.44 32.47-1.70 32.47-2.10L32.47-3.23C34.11-3.36 35.07-4.43 35.07-6.15L35.07-12.55C35.07-14.40 33.97-15.49 32.12-15.49ZM19.03-4.96C16.57-4.96 14.64-6.88 14.64-9.34C14.64-11.80 16.57-13.73 19.03-13.73C21.49-13.73 23.43-11.80 23.43-9.34C23.43-6.88 21.49-4.96 19.03-4.96ZM19.03-5.64C21.12-5.64 22.75-7.27 22.75-9.34C22.75-11.43 21.12-13.05 19.03-13.05C16.95-13.05 15.32-11.43 15.32-9.34C15.32-7.27 16.95-5.64 19.03-5.64ZM28.44-11.94C28.44-12.18 28.62-12.35 28.85-12.35L32.06-12.35C32.30-12.35 32.47-12.18 32.47-11.94C32.47-11.71 32.30-11.53 32.06-11.53L28.85-11.53C28.62-11.53 28.44-11.71 28.44-11.94ZM28.44-9.93C28.44-10.16 28.62-10.34 28.85-10.34L32.06-10.34C32.30-10.34 32.47-10.16 32.47-9.93C32.47-9.69 32.30-9.52 32.06-9.52L28.85-9.52C28.62-9.52 28.44-9.69 28.44-9.93Z" fill="currentColor"/>
</svg>