<svg xmlns="http://www.w3.org/2000/svg" viewBox="0 0 24 24" width="24" height="24">
  
  <path transform="matrix(0.8023820717755837, 0, 0, 0.8023820717755837, -0.397743300423131, 18.22002820874471)" d="M9.08 3.73C9.35 3.73 9.56 3.57 9.84 3.33L14.06-0.29L23.45-0.29C26.21-0.29 27.91-2.03 27.91-4.76L27.91-14.77C27.91-17.50 26.21-19.23 23.45-19.23L7.45-19.23C4.69-19.23 2.99-17.52 2.99-14.77L2.99-4.76C2.99-2.00 4.69-0.29 7.45-0.29L8.45-0.29L8.45 3.02C8.45 3.46 8.71 3.73 9.08 3.73ZM9.27 2.75L9.27-0.74C9.27-1.04 9.15-1.16 8.85-1.16L7.48-1.16C5.23-1.16 3.86-2.55 3.86-4.78L3.86-14.74C3.86-16.97 5.23-18.36 7.48-18.36L23.43-18.36C25.63-18.36 27.04-16.97 27.04-14.74L27.04-4.78C27.04-2.55 25.63-1.16 23.43-1.16L14.16-1.16C13.78-1.16 13.59-1.10 13.29-0.81ZM10.75-5.19L16.93-5.19C18.12-5.19 18.76-5.84 18.76-7.02L18.76-12.48C18.76-13.65 18.13-14.31 16.95-14.31L10.75-14.31C9.57-14.31 8.91-13.65 8.91-12.48L8.91-7.02C8.91-5.84 9.56-5.19 10.75-5.19ZM19.37-8.11L21.46-6.42C21.64-6.27 21.84-6.16 22.04-6.16C22.39-6.16 22.63-6.41 22.63-6.83L22.63-12.67C22.63-13.08 22.39-13.32 22.04-13.32C21.84-13.32 21.64-13.22 21.46-13.07L19.37-11.39Z" fill="currentColor"/>
</svg>