<svg xmlns="http://www.w3.org/2000/svg" viewBox="0 0 24 24" width="24" height="24">
  <title>volleyball.circle.fill</title>
  <path transform="matrix(0.8703042665306816, 0, 0, 0.8703042665306816, 0.17440081591024992, 19.36868944416114)" d="M13.59 3.02C19.91 3.02 25.08-2.13 25.08-8.46C25.08-14.79 19.91-19.96 13.59-19.96C7.27-19.96 2.10-14.79 2.10-8.46C2.10-2.13 7.27 3.02 13.59 3.02ZM15.74-11.26C14.21-12.63 11.00-13.46 8.78-12.48C9.94-13.84 11.67-14.73 13.59-14.73C14.50-14.73 15.36-14.52 16.15-14.18C16.66-13.50 16.46-12.45 15.74-11.26ZM14.52-5.20C14.09-6.04 13.82-7.00 13.77-7.96C15.84-9.83 17.32-12.07 17.04-13.68C17.72-13.22 18.32-12.63 18.79-11.95C18.95-10.65 18.39-7.77 14.52-5.20ZM13.35-8.47C11.29-9.45 8.81-9.83 7.30-8.65C7.34-9.55 7.56-10.42 7.95-11.20C9.88-13.05 13.72-12.22 15.38-10.71C14.86-9.97 14.16-9.22 13.35-8.47ZM16.86-3.11C16.07-3.32 15.38-3.87 14.85-4.64C18.06-6.75 19.15-9.14 19.38-10.83C19.69-10.10 19.85-9.29 19.85-8.46C19.85-6.20 18.64-4.21 16.86-3.11ZM13.10-7.85C13.22-5.82 14.32-3.55 16.07-2.70C15.30-2.37 14.46-2.18 13.50-2.18C12.32-2.92 10.23-5.19 9.90-8.73C10.90-8.70 12.02-8.37 13.10-7.85ZM9.23-8.71C9.49-5.73 10.99-3.55 12.26-2.33C9.64-2.89 7.63-5.11 7.34-7.80C7.80-8.37 8.47-8.65 9.23-8.71Z" fill="currentColor"/>
</svg>