<svg xmlns="http://www.w3.org/2000/svg" viewBox="0 0 24 24" width="24" height="24">
  
  <path transform="matrix(0.9642184557438794, 0, 0, 0.9642184557438794, -0.8813559322033897, 20.15819209039548)" d="M6.15 1.91L20.58 1.91C22.65 1.91 23.73 0.81 23.73-1.24L23.73-15.68C23.73-17.73 22.65-18.83 20.58-18.83L6.15-18.83C4.08-18.83 2.99-17.75 2.99-15.68L2.99-1.24C2.99 0.83 4.08 1.91 6.15 1.91ZM10.35-3.13C9.98-3.13 9.77-3.30 9.69-3.67L7.28-13.21C7.27-13.28 7.27-13.31 7.27-13.37C7.27-13.63 7.43-13.79 7.70-13.79C7.96-13.79 8.09-13.66 8.14-13.38L10.35-4.42L10.41-4.42L12.82-13.31C12.89-13.61 13.08-13.73 13.36-13.73C13.66-13.73 13.83-13.61 13.90-13.31L16.31-4.42L16.38-4.42L18.57-13.38C18.64-13.66 18.77-13.79 19.02-13.79C19.29-13.79 19.46-13.63 19.46-13.37C19.46-13.31 19.46-13.28 19.44-13.21L17.04-3.67C16.95-3.30 16.73-3.13 16.37-3.13C16.00-3.13 15.79-3.30 15.69-3.66L13.39-12.33L13.32-12.33L11.03-3.66C10.93-3.30 10.72-3.13 10.35-3.13Z" fill="currentColor"/>
</svg>