<svg xmlns="http://www.w3.org/2000/svg" viewBox="0 0 24 24" width="24" height="24">
  <title>wave.3.backward.circle</title>
  <path transform="matrix(0.8703042665306816, 0, 0, 0.8703042665306816, 0.17440081591024992, 19.36868944416114)" d="M13.59 3.02C19.93 3.02 25.08-2.11 25.08-8.46C25.08-14.81 19.93-19.96 13.59-19.96C7.24-19.96 2.10-14.81 2.10-8.46C2.10-2.11 7.24 3.02 13.59 3.02ZM13.59 2.13C7.73 2.13 2.99-2.60 2.99-8.46C2.99-14.32 7.73-19.07 13.59-19.07C19.45-19.07 24.19-14.32 24.19-8.46C24.19-2.60 19.45 2.13 13.59 2.13ZM8.85-8.48C8.85-5.73 9.66-3.09 11.23-0.86C11.37-0.66 11.60-0.61 11.80-0.74C11.99-0.89 12.04-1.14 11.88-1.32C10.44-3.22 9.64-5.72 9.64-8.48C9.64-11.25 10.44-13.76 11.88-15.66C12.04-15.84 11.99-16.09 11.80-16.23C11.60-16.36 11.37-16.31 11.23-16.11C9.66-13.88 8.85-11.25 8.85-8.48ZM12.68-8.48C12.68-6.38 13.27-4.49 14.40-3.01C14.54-2.82 14.77-2.79 14.95-2.91C15.13-3.04 15.20-3.28 15.06-3.48C14.03-4.82 13.49-6.55 13.49-8.48C13.49-10.43 14.03-12.16 15.06-13.49C15.20-13.70 15.13-13.95 14.95-14.06C14.77-14.19 14.54-14.14 14.40-13.96C13.27-12.49 12.68-10.61 12.68-8.48ZM16.48-8.48C16.48-7.25 16.86-6.02 17.54-5.14C17.68-4.96 17.94-4.91 18.12-5.05C18.33-5.21 18.33-5.46 18.18-5.68C17.61-6.42 17.29-7.44 17.29-8.48C17.29-9.54 17.61-10.55 18.18-11.30C18.34-11.51 18.33-11.77 18.12-11.93C17.94-12.06 17.70-12.01 17.54-11.84C16.86-10.95 16.48-9.71 16.48-8.48Z" fill="currentColor"/>
</svg>