<svg xmlns="http://www.w3.org/2000/svg" viewBox="0 0 24 24" width="24" height="24">
  <title>wave.3.backward</title>
  <path transform="matrix(0.7642423328835243, 0, 0, 0.7642423328835243, 4.539133236786803, 18.468344402462268)" d="M2.10-8.46C2.10-3.82 3.54 0.62 6.18 4.39C6.55 4.92 7.27 4.43 6.90 3.93C4.37 0.28 3.02-3.96 3.02-8.46C3.02-12.97 4.36-17.21 6.90-20.85C7.29-21.39 6.54-21.83 6.18-21.33C3.52-17.54 2.10-13.11 2.10-8.46ZM8.21-8.46C8.21-4.99 9.30-1.69 11.33 1.04C11.73 1.58 12.43 1.07 12.06 0.56C10.14-2.05 9.12-5.16 9.12-8.46C9.12-11.75 10.14-14.88 12.06-17.50C12.43-18 11.73-18.52 11.33-17.98C9.30-15.25 8.21-11.94 8.21-8.46ZM14.31-8.46C14.31-6.15 15.12-4.01 16.58-2.37C17.03-1.85 17.65-2.43 17.31-2.84C15.93-4.42 15.22-6.30 15.22-8.46C15.22-10.62 15.93-12.49 17.32-14.09C17.67-14.51 17.09-15.14 16.58-14.57C15.12-12.91 14.31-10.78 14.31-8.46Z" fill="currentColor"/>
</svg>