<svg xmlns="http://www.w3.org/2000/svg" viewBox="0 0 24 24" width="24" height="24">
  
  <path transform="matrix(0.8703042665306816, 0, 0, 0.8703042665306816, 0.17440081591024992, 19.34829168791433)" d="M13.59 3.05C19.91 3.05 25.08-2.12 25.08-8.45C25.08-14.78 19.91-19.93 13.59-19.93C7.27-19.93 2.10-14.78 2.10-8.45C2.10-2.12 7.27 3.05 13.59 3.05ZM13.58-5.57C13.36-5.57 13.22-5.73 13.22-5.94C13.21-8.85 13.21-11.75 13.20-14.66C13.20-14.89 13.37-15.04 13.58-15.04C13.78-15.04 13.97-14.89 13.97-14.66C13.96-11.75 13.96-8.85 13.95-5.94C13.95-5.73 13.79-5.57 13.58-5.57ZM5.80-10.73C7.20-12.45 9.69-13.70 12.29-14.03L12.29-13.75C12.29-13.22 12.29-12.70 12.29-12.19C10.28-11.92 8.46-10.99 7.07-9.54C6.95-9.40 6.77-9.39 6.66-9.52L5.82-10.36C5.72-10.48 5.71-10.62 5.80-10.73ZM21.35-10.73C21.46-10.62 21.45-10.48 21.34-10.36L20.51-9.53C20.39-9.40 20.21-9.40 20.10-9.53C18.74-11.02 16.91-11.92 14.86-12.19C14.86-12.70 14.87-13.22 14.87-13.75L14.87-14.03C17.47-13.71 19.96-12.43 21.35-10.73ZM8.57-7.92C9.39-8.92 10.78-9.66 12.30-9.94C12.30-9.41 12.30-8.88 12.30-8.36L12.30-8.03C11.40-7.78 10.56-7.29 9.96-6.64C9.83-6.50 9.67-6.49 9.55-6.61L8.59-7.57C8.48-7.68 8.48-7.82 8.57-7.92ZM18.59-7.92C18.68-7.80 18.68-7.68 18.57-7.57L17.61-6.61C17.50-6.49 17.33-6.50 17.20-6.63C16.61-7.29 15.76-7.79 14.85-8.03L14.85-8.36C14.85-8.88 14.86-9.41 14.86-9.94C16.39-9.67 17.79-8.92 18.59-7.92ZM13.58-3.07C13.09-3.07 12.68-3.48 12.68-3.97C12.68-4.46 13.09-4.86 13.58-4.86C14.06-4.86 14.47-4.45 14.47-3.97C14.47-3.48 14.06-3.07 13.58-3.07Z" fill="currentColor"/>
</svg>