<svg xmlns="http://www.w3.org/2000/svg" viewBox="0 0 24 24" width="24" height="24">
  <title>wifi.router</title>
  <path transform="matrix(0.653644835950466, 0, 0, 0.653644835950466, 0.04672539256989672, 17.53810800459594)" d="M18.28-18.53C15.52-18.53 12.89-17.71 10.65-16.15C10.45-16.00 10.41-15.77 10.54-15.57C10.69-15.38 10.93-15.34 11.12-15.48C13.01-16.92 15.52-17.72 18.28-17.72C21.05-17.72 23.55-16.93 25.44-15.48C25.64-15.34 25.88-15.38 26.03-15.57C26.16-15.77 26.11-16.01 25.91-16.15C23.67-17.71 21.05-18.53 18.28-18.53ZM18.28-14.70C16.17-14.70 14.29-14.11 12.81-12.97C12.62-12.83 12.59-12.61 12.70-12.42C12.83-12.23 13.08-12.18 13.28-12.32C14.61-13.34 16.35-13.89 18.28-13.89C20.23-13.89 21.96-13.34 23.29-12.32C23.50-12.18 23.74-12.23 23.86-12.42C23.99-12.61 23.94-12.83 23.75-12.97C22.29-14.11 20.40-14.70 18.28-14.70ZM18.28-10.89C17.04-10.89 15.82-10.51 14.94-9.83C14.75-9.68 14.71-9.42 14.85-9.26C15.01-9.05 15.26-9.04 15.48-9.20C16.22-9.76 17.24-10.08 18.28-10.08C19.32-10.08 20.34-9.76 21.09-9.20C21.30-9.04 21.55-9.04 21.73-9.26C21.86-9.42 21.81-9.68 21.63-9.83C20.74-10.51 19.51-10.89 18.28-10.89ZM5.40 1.58L31.17 1.58C32.66 1.58 33.59 0.67 33.59-0.80L33.59-4.24C33.59-5.72 32.66-6.63 31.17-6.63L5.40-6.63C3.91-6.63 2.99-5.72 2.99-4.24L2.99-0.80C2.99 0.67 3.91 1.58 5.40 1.58ZM5.40 0.71C4.45 0.71 3.86 0.14 3.86-0.80L3.86-4.24C3.86-5.19 4.45-5.77 5.40-5.77L31.17-5.77C32.11-5.77 32.71-5.19 32.71-4.24L32.71-0.80C32.71 0.14 32.11 0.71 31.17 0.71ZM16.54-1.24C17.25-1.24 17.81-1.83 17.81-2.54C17.81-3.25 17.25-3.82 16.54-3.82C15.82-3.82 15.23-3.25 15.23-2.54C15.23-1.83 15.82-1.24 16.54-1.24ZM20.81-1.24C21.52-1.24 22.09-1.83 22.09-2.54C22.09-3.25 21.52-3.82 20.81-3.82C20.10-3.82 19.51-3.25 19.51-2.54C19.51-1.83 20.10-1.24 20.81-1.24ZM25.09-1.24C25.79-1.24 26.37-1.83 26.37-2.54C26.37-3.25 25.79-3.82 25.09-3.82C24.38-3.82 23.79-3.25 23.79-2.54C23.79-1.83 24.38-1.24 25.09-1.24ZM29.37-1.24C30.07-1.24 30.64-1.82 30.64-2.53C30.64-3.25 30.07-3.82 29.37-3.82C28.64-3.82 28.07-3.25 28.07-2.53C28.07-1.82 28.64-1.24 29.37-1.24ZM6.62-2.68L10.42-2.68C10.64-2.68 10.83-2.86 10.83-3.09C10.83-3.33 10.64-3.50 10.42-3.50L6.62-3.50C6.40-3.50 6.21-3.33 6.21-3.09C6.21-2.86 6.40-2.68 6.62-2.68Z" fill="currentColor"/>
</svg>