<svg xmlns="http://www.w3.org/2000/svg" viewBox="0 0 24 24" width="24" height="24">
  
  <path transform="matrix(0.716484746711447, 0, 0, 0.716484746711447, -0.1410579345088161, 18.037567992530178)" d="M4.34-15.91C4.52-15.79 4.78-15.81 4.96-16.03C5.67-16.93 6.57-17.59 7.57-17.89C7.83-17.98 7.95-18.20 7.90-18.41C7.85-18.67 7.61-18.80 7.24-18.69C6.11-18.35 5.06-17.60 4.28-16.58C4.07-16.31 4.14-16.04 4.34-15.91ZM29.55-15.91C29.75-16.04 29.82-16.31 29.61-16.58C28.83-17.60 27.79-18.35 26.65-18.69C26.29-18.80 26.04-18.67 25.99-18.41C25.95-18.20 26.06-17.98 26.32-17.89C27.32-17.59 28.22-16.93 28.93-16.03C29.11-15.81 29.37-15.79 29.55-15.91ZM18.54-15.91C18.73-15.79 18.98-15.81 19.17-16.03C19.89-16.93 20.79-17.59 21.77-17.89C22.03-17.98 22.15-18.20 22.11-18.41C22.07-18.66 21.82-18.80 21.45-18.69C20.31-18.35 19.27-17.61 18.48-16.58C18.28-16.32 18.34-16.04 18.54-15.91ZM15.35-15.91C15.55-16.04 15.61-16.32 15.41-16.58C14.63-17.61 13.58-18.35 12.45-18.69C12.07-18.80 11.82-18.66 11.79-18.41C11.74-18.20 11.86-17.98 12.12-17.89C13.10-17.59 14.00-16.93 14.72-16.03C14.91-15.81 15.16-15.79 15.35-15.91ZM16.95-10.57C17.18-10.57 17.38-10.77 17.38-11.02L17.38-14.00C17.38-14.24 17.18-14.44 16.95-14.44C16.71-14.44 16.51-14.24 16.51-14.00L16.51-11.02C16.51-10.77 16.71-10.57 16.95-10.57ZM6.15 1.88L27.74 1.88C29.82 1.88 30.90 0.77 30.90-1.28L30.90-9.91C30.90-11.95 29.82-13.07 27.74-13.07L18.93-13.07L18.93-12.20L27.71-12.20C29.18-12.20 30.04-11.40 30.04-9.87L30.04-1.32C30.04 0.21 29.18 1.01 27.71 1.01L6.18 1.01C4.65 1.01 3.86 0.21 3.86-1.32L3.86-9.87C3.86-11.40 4.65-12.20 6.18-12.20L14.96-12.20L14.96-13.07L6.15-13.07C4.08-13.07 2.99-11.99 2.99-9.91L2.99-1.28C2.99 0.80 4.08 1.88 6.15 1.88ZM16.95-4.49C17.18-4.49 17.38-4.69 17.38-4.93L17.38-7.92C17.38-8.16 17.18-8.36 16.95-8.36C16.71-8.36 16.51-8.16 16.51-7.92L16.51-4.93C16.51-4.69 16.71-4.49 16.95-4.49Z" fill="currentColor"/>
</svg>