<svg xmlns="http://www.w3.org/2000/svg" viewBox="0 0 24 24" width="24" height="24">
  
  <path transform="matrix(0.8403085507959954, 0, 0, 0.8403085507959954, 0.40491025818749105, 19.114721811915313)" d="M3.15 2.88C3.15 3.19 3.40 3.43 3.70 3.43L23.74 3.43C24.05 3.43 24.29 3.19 24.29 2.88C24.29 2.57 24.05 2.32 23.74 2.32L23.02 2.32L23.02-6.45L23.47-6.45C24.26-6.45 24.70-7.03 24.57-7.90L22.88-19.20C22.77-19.89 22.27-20.37 21.54-20.37L6.06-20.37C5.33-20.37 4.82-19.89 4.72-19.20L3.02-7.90C2.89-7.03 3.33-6.45 4.11-6.45L4.30-6.45L4.30 2.32L3.70 2.32C3.40 2.32 3.15 2.57 3.15 2.88ZM4.82-13.84L5.59-19.03C5.63-19.31 5.84-19.49 6.14-19.49L13.31-19.49L13.30-13.84ZM14.16-19.49L21.46-19.49C21.76-19.49 21.96-19.31 22.01-19.03L22.78-13.84L14.18-13.84ZM3.93-7.89L4.70-13.02L13.29-13.02L13.28-7.31L4.43-7.31C4.07-7.31 3.87-7.54 3.93-7.89ZM14.18-13.02L22.90-13.02L23.67-7.89C23.72-7.54 23.52-7.31 23.17-7.31L14.20-7.31ZM5.19 2.32L5.19-6.45L22.13-6.45L22.13 2.32Z" fill="currentColor"/>
</svg>