<svg xmlns="http://www.w3.org/2000/svg" viewBox="0 0 24 24" width="24" height="24">
  
  <path transform="matrix(0.6518971224853578, 0, 0, 0.6518971224853578, 0.051948051948051965, 17.51948051948052)" d="M8.47 2.88C8.47 3.19 8.72 3.43 9.04 3.43L27.75 3.43C28.05 3.43 28.30 3.19 28.30 2.88C28.30 2.57 28.05 2.32 27.75 2.32L27.02 2.32L27.02 1.80L32.92 2.12C33.40 2.16 33.67 1.86 33.67 1.39L33.67-18.43C33.67-18.90 33.40-19.20 32.92-19.17L26.96-18.84L26.96-19.56C26.91-20.04 26.52-20.37 25.96-20.37L10.70-20.37C10.14-20.37 9.75-20.04 9.69-19.56L9.69-18.84L3.74-19.17C3.26-19.20 2.99-18.90 2.99-18.43L2.99 1.39C2.99 1.86 3.26 2.16 3.74 2.12L9.63 1.80L9.63 2.32L9.04 2.32C8.72 2.32 8.47 2.57 8.47 2.88ZM10.52-19.17C10.52-19.37 10.64-19.49 10.80-19.49L18.05-19.49L18.05 2.32L10.52 2.32ZM25.85-19.49C26.02-19.49 26.13-19.37 26.13-19.17L26.13 2.32L18.84 2.32L18.84-19.49ZM3.84-12.48L3.84-18.19C3.84-18.27 3.88-18.30 3.96-18.30L9.63-18L9.63-12.30L3.95-12.38C3.87-12.38 3.84-12.42 3.84-12.48ZM27.02-12.30L27.02-18L32.70-18.30C32.78-18.30 32.81-18.27 32.81-18.19L32.81-12.48C32.81-12.42 32.79-12.38 32.71-12.38ZM3.84-5.64L3.84-11.41C3.84-11.47 3.87-11.52 3.94-11.52L9.63-11.45L9.63-5.59L3.94-5.53C3.87-5.53 3.84-5.58 3.84-5.64ZM27.02-5.59L27.02-11.45L32.72-11.52C32.79-11.52 32.81-11.47 32.81-11.41L32.81-5.64C32.81-5.58 32.79-5.53 32.72-5.53ZM3.84 1.15L3.84-4.56C3.84-4.62 3.87-4.68 3.95-4.68L9.63-4.73L9.63 0.96L3.96 1.25C3.88 1.27 3.84 1.22 3.84 1.15ZM27.02 0.96L27.02-4.73L32.71-4.68C32.79-4.68 32.81-4.62 32.81-4.56L32.81 1.15C32.81 1.22 32.78 1.27 32.70 1.25Z" fill="currentColor"/>
</svg>