<svg xmlns="http://www.w3.org/2000/svg" viewBox="0 0 24 24" width="24" height="24">
  <title>x.squareroot</title>
  <path transform="matrix(0.983669548511047, 0, 0, 0.983669548511047, -0.9394812680115274, 20.5014409221902)" d="M6.30 0.59C6.73 0.59 6.96 0.30 7.07-0.06L12.02-16.98L22.85-16.98C23.13-16.98 23.32-17.16 23.32-17.43C23.32-17.71 23.13-17.87 22.85-17.87L11.99-17.87C11.54-17.87 11.30-17.72 11.17-17.30L6.36-0.75L6.27-0.75L3.91-8.93C3.84-9.19 3.69-9.32 3.47-9.32C3.18-9.32 2.99-9.13 2.99-8.87C2.99-8.77 3.02-8.67 3.06-8.55L5.59 0C5.71 0.39 5.94 0.59 6.30 0.59ZM14.32-1.32C14.52-1.32 14.63-1.41 14.75-1.59L17.70-5.99L17.75-5.99L20.67-1.59C20.80-1.41 20.91-1.32 21.12-1.32C21.38-1.32 21.56-1.50 21.56-1.76C21.56-1.88 21.52-1.97 21.45-2.07L18.29-6.73L21.49-11.40C21.56-11.52 21.60-11.61 21.60-11.72C21.60-11.94 21.42-12.13 21.15-12.13C20.96-12.13 20.85-12.05 20.73-11.86L17.81-7.46L17.74-7.46L14.84-11.86C14.71-12.05 14.60-12.13 14.39-12.13C14.14-12.13 13.95-11.94 13.95-11.68C13.95-11.57 13.98-11.47 14.06-11.36L17.19-6.74L13.99-2.04C13.92-1.92 13.89-1.84 13.89-1.72C13.89-1.50 14.06-1.32 14.32-1.32Z" fill="currentColor"/>
</svg>