<svg xmlns="http://www.w3.org/2000/svg" viewBox="0 0 24 24" width="24" height="24">
  
  <path transform="matrix(0.735632183908046, 0, 0, 0.735632183908046, -0.1982758620689653, 18.224137931034484)" d="M6.15 1.91L27.02 1.91C29.10 1.91 30.18 0.81 30.18-1.24L30.18-15.68C30.18-17.73 29.10-18.83 27.02-18.83L6.15-18.83C4.08-18.83 2.99-17.75 2.99-15.68L2.99-1.24C2.99 0.83 4.08 1.91 6.15 1.91ZM12.63-4.02C12.36-4.02 12.15-4.22 12.15-4.48C12.15-4.62 12.20-4.72 12.32-4.83L15.93-8.45L12.32-12.06C12.20-12.16 12.15-12.28 12.15-12.41C12.15-12.67 12.36-12.87 12.63-12.87C12.79-12.87 12.88-12.82 13.00-12.70L16.59-9.11L20.19-12.70C20.32-12.83 20.41-12.87 20.55-12.87C20.82-12.87 21.04-12.67 21.04-12.42C21.04-12.28 20.99-12.18 20.87-12.06L17.26-8.45L20.87-4.84C20.99-4.72 21.02-4.62 21.02-4.48C21.02-4.22 20.82-4.02 20.55-4.02C20.41-4.02 20.30-4.07 20.18-4.18L16.59-7.78L13.01-4.18C12.88-4.07 12.79-4.02 12.63-4.02Z" fill="currentColor"/>
</svg>