<svg xmlns="http://www.w3.org/2000/svg" viewBox="0 0 24 24" width="24" height="24">
  
  <path transform="matrix(0.735632183908046, 0, 0, 0.735632183908046, -0.1982758620689653, 18.21551724137931)" d="M6.15-0.75L27.02-0.75C29.10-0.75 30.18-1.83 30.18-3.90L30.18-7.71C30.18-8.65 29.94-9.23 29.39-9.82L24.77-14.68C23.77-15.75 22.97-16.15 21.69-16.15L11.47-16.15C10.21-16.15 9.41-15.75 8.39-14.68L3.79-9.82C3.22-9.23 2.99-8.65 2.99-7.71L2.99-3.90C2.99-1.83 4.08-0.75 6.15-0.75ZM4.51-8.63C4.20-8.63 4.13-8.92 4.31-9.12L9.20-14.32C9.90-15.07 10.45-15.34 11.39-15.34L21.79-15.34C22.71-15.34 23.26-15.07 23.96-14.32L28.85-9.12C29.05-8.92 28.98-8.63 28.65-8.63ZM6.18-1.62C4.65-1.62 3.86-2.41 3.86-3.95L3.86-7.18C3.86-7.62 4.05-7.82 4.48-7.82L28.69-7.82C29.11-7.82 29.31-7.62 29.31-7.18L29.31-3.95C29.31-2.41 28.51-1.62 26.99-1.62ZM10.27-3.07C10.55-3.07 10.77-3.28 10.77-3.55L10.77-5.88C10.77-6.15 10.55-6.38 10.27-6.38C10.00-6.38 9.79-6.15 9.79-5.88L9.79-3.55C9.79-3.28 10.00-3.07 10.27-3.07ZM12.46-3.07C12.73-3.07 12.95-3.28 12.95-3.55L12.95-5.88C12.95-6.15 12.73-6.38 12.46-6.38C12.18-6.38 11.96-6.15 11.96-5.88L11.96-3.55C11.96-3.28 12.18-3.07 12.46-3.07ZM17.66-3.07C17.93-3.07 18.15-3.28 18.15-3.55L18.15-5.88C18.15-6.15 17.93-6.38 17.66-6.38C17.38-6.38 17.17-6.15 17.17-5.88L17.17-3.55C17.17-3.28 17.38-3.07 17.66-3.07ZM19.84-3.07C20.12-3.07 20.33-3.28 20.33-3.55L20.33-5.88C20.33-6.15 20.12-6.38 19.84-6.38C19.57-6.38 19.35-6.15 19.35-5.88L19.35-3.55C19.35-3.28 19.57-3.07 19.84-3.07ZM7.01-3.50C7.68-3.50 8.21-4.05 8.21-4.72C8.21-5.39 7.68-5.93 7.01-5.93C6.33-5.93 5.79-5.39 5.79-4.72C5.79-4.05 6.33-3.50 7.01-3.50ZM15.06-3.93C15.49-3.93 15.86-4.29 15.86-4.72C15.86-5.17 15.49-5.52 15.06-5.52C14.63-5.52 14.26-5.17 14.26-4.72C14.26-4.29 14.63-3.93 15.06-3.93ZM22.50-4.23L27.18-4.23C27.45-4.23 27.66-4.44 27.66-4.72C27.66-4.99 27.45-5.21 27.18-5.21L22.50-5.21C22.23-5.21 22.02-4.99 22.02-4.72C22.02-4.44 22.23-4.23 22.50-4.23Z" fill="currentColor"/>
</svg>