<svg xmlns="http://www.w3.org/2000/svg" viewBox="0 0 24 24" width="24" height="24">
  
  <path transform="matrix(0.8284789644012945, 0, 0, 0.8284789644012945, 0.01941747572815533, 19.155339805825243)" d="M5.02-19.65C3.36-19.65 2.39-18.48 2.39-17.07C2.39-16.56 2.53-16.02 2.82-15.49L12.26 1.13C12.75 1.99 13.61 2.38 14.46 2.38C15.32 2.38 16.17 1.99 16.66 1.13L26.09-15.49C26.39-16.02 26.53-16.56 26.53-17.07C26.53-18.48 25.55-19.65 23.91-19.65ZM5.72-17.27L23.19-17.27C23.71-17.27 24.02-16.77 23.74-16.25L15.04-0.87C14.77-0.38 14.16-0.38 13.89-0.87L5.18-16.25C4.89-16.77 5.20-17.27 5.72-17.27Z" fill="currentColor"/>
</svg>