<svg xmlns="http://www.w3.org/2000/svg" viewBox="0 0 24 24" width="24" height="24">
  <title>z.circle</title>
  <path transform="matrix(0.8703042665306816, 0, 0, 0.8703042665306816, 0.17440081591024992, 19.36868944416114)" d="M13.59 3.02C19.93 3.02 25.08-2.11 25.08-8.46C25.08-14.81 19.93-19.96 13.59-19.96C7.24-19.96 2.10-14.81 2.10-8.46C2.10-2.11 7.24 3.02 13.59 3.02ZM13.59 2.13C7.73 2.13 2.99-2.60 2.99-8.46C2.99-14.32 7.73-19.07 13.59-19.07C19.45-19.07 24.19-14.32 24.19-8.46C24.19-2.60 19.45 2.13 13.59 2.13ZM10.27-3.27L17.07-3.27C17.31-3.27 17.47-3.45 17.47-3.67C17.47-3.90 17.31-4.07 17.07-4.07L10.83-4.07L10.83-4.14L17.00-12.62C17.17-12.84 17.20-12.94 17.20-13.14C17.20-13.44 16.97-13.68 16.64-13.68L10.15-13.68C9.91-13.68 9.75-13.50 9.75-13.28C9.75-13.04 9.91-12.88 10.15-12.88L16.13-12.88L16.13-12.81L9.91-4.31C9.75-4.08 9.70-3.98 9.70-3.79C9.70-3.49 9.94-3.27 10.27-3.27Z" fill="currentColor"/>
</svg>