<svg xmlns="http://www.w3.org/2000/svg" viewBox="0 0 24 24" width="24" height="24">
  <title>z.square.fill</title>
  <path transform="matrix(0.9642184557438794, 0, 0, 0.9642184557438794, -0.8813559322033897, 20.15819209039548)" d="M6.15 1.91L20.58 1.91C22.65 1.91 23.73 0.81 23.73-1.24L23.73-15.68C23.73-17.73 22.65-18.83 20.58-18.83L6.15-18.83C4.08-18.83 2.99-17.75 2.99-15.68L2.99-1.24C2.99 0.83 4.08 1.91 6.15 1.91ZM10.02-3.23C9.69-3.23 9.46-3.46 9.46-3.75C9.46-3.95 9.50-4.05 9.67-4.29L15.91-12.83L15.91-12.90L9.90-12.90C9.67-12.90 9.50-13.07 9.50-13.30C9.50-13.54 9.67-13.71 9.90-13.71L16.44-13.71C16.78-13.71 17.02-13.48 17.02-13.17C17.02-12.97 16.97-12.87 16.80-12.64L10.59-4.11L10.59-4.04L16.88-4.04C17.12-4.04 17.29-3.88 17.29-3.64C17.29-3.41 17.12-3.23 16.88-3.23Z" fill="currentColor"/>
</svg>