<svg xmlns="http://www.w3.org/2000/svg" viewBox="0 0 24 24" width="24" height="24">
  <title>02.circle</title>
  <path transform="matrix(0.8806329549363605, 0, 0, 0.8806329549363605, 0.15273477812177494, 19.45098039215686)" d="M13.45 2.89C19.73 2.89 24.81-2.19 24.81-8.46C24.81-14.74 19.73-19.82 13.45-19.82C7.18-19.82 2.10-14.74 2.10-8.46C2.10-2.19 7.18 2.89 13.45 2.89ZM13.45 2.32C7.49 2.32 2.67-2.50 2.67-8.46C2.67-14.43 7.49-19.24 13.45-19.24C19.42-19.24 24.23-14.43 24.23-8.46C24.23-2.50 19.42 2.32 13.45 2.32ZM10.17-3.54C12.29-3.54 12.75-6.47 12.75-8.46C12.75-10.46 12.29-13.38 10.17-13.38C8.05-13.38 7.59-10.46 7.59-8.46C7.59-6.47 8.05-3.54 10.17-3.54ZM14.50-3.73L18.50-3.73C18.68-3.73 18.81-3.86 18.81-4.03C18.81-4.21 18.68-4.34 18.50-4.34L15.06-4.34L15.06-4.38L17.39-7.69C18.27-8.94 18.59-9.80 18.59-10.77C18.59-12.20 17.84-13.38 16.38-13.38C15.04-13.38 14.17-12.13 14.17-10.86C14.17-10.73 14.26-10.56 14.48-10.56C14.64-10.56 14.75-10.66 14.77-10.82C14.92-11.95 15.40-12.77 16.39-12.77C17.51-12.77 17.98-11.68 17.98-10.73C17.98-9.87 17.68-9.13 16.91-8.05L14.27-4.36C14.18-4.23 14.16-4.13 14.16-4.01C14.16-3.82 14.31-3.73 14.50-3.73ZM10.17-4.16C8.54-4.16 8.27-6.82 8.27-8.46C8.27-10.10 8.54-12.77 10.17-12.77C11.80-12.77 12.07-10.10 12.07-8.46C12.07-6.82 11.80-4.16 10.17-4.16Z" fill="currentColor"/>
</svg>