<svg xmlns="http://www.w3.org/2000/svg" viewBox="0 0 24 24" width="24" height="24">
  
  <path transform="matrix(0.9752380952380952, 0, 0, 0.9752380952380952, -0.9142857142857141, 20.251428571428573)" d="M6 1.79L20.48 1.79C22.44 1.79 23.50 0.71 23.50-1.22L23.50-15.70C23.50-17.64 22.44-18.71 20.48-18.71L6-18.71C4.03-18.71 2.99-17.67 2.99-15.70L2.99-1.22C2.99 0.75 4.03 1.79 6 1.79ZM6.02 1.22C4.41 1.22 3.56 0.38 3.56-1.25L3.56-15.68C3.56-17.30 4.41-18.14 6.02-18.14L20.45-18.14C22.02-18.14 22.92-17.30 22.92-15.68L22.92-1.25C22.92 0.38 22.02 1.22 20.45 1.22ZM9.83-3.54C11.94-3.54 12.41-6.47 12.41-8.46C12.41-10.46 11.94-13.38 9.83-13.38C7.71-13.38 7.24-10.46 7.24-8.46C7.24-6.47 7.71-3.54 9.83-3.54ZM16.30-3.54C17.92-3.54 18.75-5.13 18.75-6.75C18.75-8.32 17.99-9.88 16.48-9.88C15.84-9.88 15.12-9.59 14.75-8.75L14.73-8.75L15.01-12.57L18.04-12.57C18.22-12.57 18.34-12.70 18.34-12.90C18.34-13.08 18.21-13.21 18.04-13.21L14.92-13.21C14.58-13.21 14.44-12.98 14.41-12.68L14.12-8.80C14.11-8.61 14.10-8.37 14.10-8.29C14.10-8.06 14.23-7.91 14.45-7.91C14.67-7.91 14.75-8.06 14.86-8.26C15.18-8.86 15.67-9.28 16.35-9.28C17.52-9.28 18.08-7.91 18.08-6.74C18.08-5.46 17.51-4.16 16.30-4.16C15.39-4.16 14.74-4.96 14.58-5.86C14.53-6.13 14.41-6.20 14.27-6.20C14.07-6.20 13.96-6.07 13.96-5.87C13.96-5.78 14.00-5.60 14.04-5.50C14.30-4.37 15.14-3.54 16.30-3.54ZM9.83-4.16C8.20-4.16 7.93-6.82 7.93-8.46C7.93-10.10 8.20-12.77 9.83-12.77C11.45-12.77 11.72-10.10 11.72-8.46C11.72-6.82 11.45-4.16 9.83-4.16Z" fill="currentColor"/>
</svg>