<svg xmlns="http://www.w3.org/2000/svg" viewBox="0 0 24 24" width="24" height="24">
  <title>08.circle</title>
  <path transform="matrix(0.8806329549363605, 0, 0, 0.8806329549363605, 0.15273477812177494, 19.45098039215686)" d="M13.45 2.89C19.73 2.89 24.81-2.19 24.81-8.46C24.81-14.74 19.73-19.82 13.45-19.82C7.18-19.82 2.10-14.74 2.10-8.46C2.10-2.19 7.18 2.89 13.45 2.89ZM13.45 2.32C7.49 2.32 2.67-2.50 2.67-8.46C2.67-14.43 7.49-19.24 13.45-19.24C19.42-19.24 24.23-14.43 24.23-8.46C24.23-2.50 19.42 2.32 13.45 2.32ZM10.14-3.54C12.26-3.54 12.73-6.47 12.73-8.46C12.73-10.46 12.26-13.38 10.14-13.38C8.03-13.38 7.56-10.46 7.56-8.46C7.56-6.47 8.03-3.54 10.14-3.54ZM16.77-3.57C18.32-3.57 19.35-4.73 19.35-6.29C19.35-7.43 18.68-8.51 17.71-8.73L17.71-8.74C18.59-9.06 19.09-9.94 19.09-10.88C19.09-12.21 18.23-13.34 16.77-13.34C15.38-13.34 14.47-12.26 14.47-10.88C14.47-9.90 14.93-9.06 15.87-8.74L15.87-8.73C14.87-8.51 14.20-7.44 14.20-6.29C14.20-4.80 15.18-3.57 16.77-3.57ZM10.14-4.16C8.52-4.16 8.25-6.82 8.25-8.46C8.25-10.10 8.52-12.77 10.14-12.77C11.77-12.77 12.04-10.10 12.04-8.46C12.04-6.82 11.77-4.16 10.14-4.16ZM16.78-9.01C15.93-9.01 15.13-9.67 15.13-10.83C15.13-11.93 15.81-12.74 16.78-12.74C17.87-12.74 18.43-11.79 18.43-10.83C18.43-9.76 17.72-9.01 16.78-9.01ZM16.78-4.17C15.61-4.17 14.88-5.14 14.88-6.32C14.88-7.51 15.62-8.39 16.78-8.39C17.82-8.39 18.67-7.63 18.67-6.32C18.67-5.17 17.95-4.17 16.78-4.17Z" fill="currentColor"/>
</svg>