<svg xmlns="http://www.w3.org/2000/svg" viewBox="0 0 24 24" width="24" height="24">
  
  <path transform="matrix(0.9752380952380952, 0, 0, 0.9752380952380952, -0.9142857142857141, 20.251428571428573)" d="M6 1.79L20.48 1.79C22.44 1.79 23.50 0.71 23.50-1.22L23.50-15.70C23.50-17.64 22.44-18.71 20.48-18.71L6-18.71C4.03-18.71 2.99-17.67 2.99-15.70L2.99-1.22C2.99 0.75 4.03 1.79 6 1.79ZM16.11-7.00C14.58-7.00 13.82-8.52 13.82-10.11C13.82-11.84 14.67-13.38 16.24-13.38C18.28-13.38 18.89-10.84 18.89-8.67C18.89-6.53 18.38-3.56 16.21-3.56C15.19-3.56 14.38-4.22 14.07-5.29C14.02-5.45 13.99-5.61 13.99-5.72C13.99-5.91 14.10-6.04 14.30-6.04C14.44-6.04 14.54-5.95 14.64-5.66C14.88-4.79 15.39-4.18 16.20-4.18C17.99-4.18 18.23-7.10 18.23-8.77L18.23-8.98L18.20-8.98C17.99-7.86 17.27-7.00 16.11-7.00ZM9.84-3.55C7.72-3.55 7.27-6.47 7.27-8.46C7.27-10.45 7.72-13.38 9.84-13.38C11.96-13.38 12.42-10.45 12.42-8.46C12.42-6.47 11.96-3.55 9.84-3.55ZM9.84-4.16C11.47-4.16 11.74-6.82 11.74-8.46C11.74-10.10 11.47-12.76 9.84-12.76C8.21-12.76 7.95-10.10 7.95-8.46C7.95-6.82 8.21-4.16 9.84-4.16ZM16.24-7.59C17.40-7.59 18.08-8.87 18.08-10.10C18.08-11.32 17.46-12.76 16.24-12.76C15.06-12.76 14.46-11.36 14.46-10.10C14.46-8.91 15.06-7.59 16.24-7.59Z" fill="currentColor"/>
</svg>