<svg xmlns="http://www.w3.org/2000/svg" viewBox="0 0 24 24" width="24" height="24">
  
  <path transform="matrix(0.8806329549363605, 0, 0, 0.8806329549363605, 0.15273477812177494, 19.45098039215686)" d="M13.45 2.89C19.70 2.89 24.81-2.21 24.81-8.46C24.81-14.71 19.70-19.82 13.45-19.82C7.21-19.82 2.10-14.71 2.10-8.46C2.10-2.21 7.21 2.89 13.45 2.89ZM13.91-3.16C13.75-3.16 13.62-3.29 13.62-3.46L13.62-12.98L13.56-12.98L11.14-11.43C11.11-11.40 11.06-11.39 11.00-11.39C10.84-11.39 10.71-11.52 10.71-11.68C10.71-11.80 10.76-11.88 10.88-11.95L13.41-13.59C13.59-13.72 13.71-13.77 13.85-13.77C14.05-13.77 14.21-13.63 14.21-13.43L14.21-3.46C14.21-3.29 14.10-3.16 13.91-3.16Z" fill="currentColor"/>
</svg>