<svg xmlns="http://www.w3.org/2000/svg" viewBox="0 0 24 24" width="24" height="24">
  <title>10.arrow.trianglehead.counterclockwise</title>
  <path transform="matrix(0.8026614816060077, 0, 0, 0.8026614816060077, 1.2016947552691777, 19.67667125832011)" d="M13.45 2.89C19.73 2.89 24.81-2.19 24.81-8.46C24.81-14.07 20.75-18.73 15.40-19.65L15.40-21.63C15.40-22.00 15.13-22.15 14.78-21.90L11.31-19.48C11.02-19.28 11.02-19.01 11.31-18.81L14.78-16.38C15.13-16.14 15.40-16.28 15.40-16.65L15.40-19.07C20.44-18.15 24.23-13.76 24.23-8.46C24.23-2.50 19.42 2.32 13.45 2.32C7.49 2.32 2.67-2.50 2.67-8.46C2.67-12.47 4.85-15.98 8.12-17.84C8.26-17.92 8.31-18.09 8.24-18.23C8.17-18.36 7.98-18.41 7.83-18.33C4.39-16.37 2.10-12.67 2.10-8.46C2.10-2.19 7.18 2.89 13.45 2.89ZM15.95-3.75C18.19-3.75 18.86-6.29 18.86-8.40C18.86-10.59 18.13-13.07 15.95-13.07C13.70-13.07 13.02-10.51 13.02-8.40C13.02-6.21 13.77-3.75 15.95-3.75ZM10.54-3.80C10.75-3.80 10.86-3.96 10.86-4.15L10.86-12.67C10.86-12.88 10.73-13.01 10.51-13.01C10.35-13.01 10.24-12.94 10.10-12.84L8.13-11.41C8.03-11.33 7.95-11.25 7.95-11.11C7.95-10.96 8.07-10.83 8.23-10.83C8.30-10.83 8.38-10.84 8.45-10.89L10.21-12.18L10.21-4.15C10.21-3.95 10.32-3.80 10.54-3.80ZM15.95-4.34C14.19-4.34 13.68-6.62 13.68-8.40C13.68-10.21 14.20-12.47 15.95-12.47C17.70-12.47 18.21-10.18 18.21-8.40C18.21-6.63 17.72-4.34 15.95-4.34Z" fill="currentColor"/>
</svg>