<svg xmlns="http://www.w3.org/2000/svg" viewBox="0 0 24 24" width="24" height="24">
  
  <path transform="matrix(0.8806329549363605, 0, 0, 0.8806329549363605, 0.15273477812177494, 19.45098039215686)" d="M13.45 2.89C19.73 2.89 24.81-2.19 24.81-8.46C24.81-14.74 19.73-19.82 13.45-19.82C7.18-19.82 2.10-14.74 2.10-8.46C2.10-2.19 7.18 2.89 13.45 2.89ZM13.45 2.32C7.49 2.32 2.67-2.50 2.67-8.46C2.67-14.43 7.49-19.24 13.45-19.24C19.42-19.24 24.23-14.43 24.23-8.46C24.23-2.50 19.42 2.32 13.45 2.32ZM15.16-3.54C17.27-3.54 17.74-6.47 17.74-8.46C17.74-10.46 17.27-13.38 15.16-13.38C13.04-13.38 12.57-10.46 12.57-8.46C12.57-6.47 13.04-3.54 15.16-3.54ZM10.37-3.62C10.55-3.62 10.71-3.77 10.71-3.96L10.71-12.93C10.71-13.14 10.55-13.29 10.35-13.29C10.14-13.29 9.98-13.20 9.86-13.08L8.17-11.67C8.09-11.60 8.04-11.53 8.04-11.41C8.04-11.25 8.14-11.12 8.32-11.12C8.40-11.12 8.45-11.14 8.51-11.19L10.02-12.42L10.02-3.96C10.02-3.77 10.18-3.62 10.37-3.62ZM15.16-4.16C13.54-4.16 13.27-6.82 13.27-8.46C13.27-10.10 13.54-12.77 15.16-12.77C16.78-12.77 17.05-10.10 17.05-8.46C17.05-6.82 16.78-4.16 15.16-4.16Z" fill="currentColor"/>
</svg>