<svg xmlns="http://www.w3.org/2000/svg" viewBox="0 0 24 24" width="24" height="24">
  
  <path transform="matrix(0.8806329549363605, 0, 0, 0.8806329549363605, 0.15273477812177494, 19.45098039215686)" d="M13.45 2.89C19.70 2.89 24.81-2.21 24.81-8.46C24.81-14.71 19.70-19.82 13.45-19.82C7.21-19.82 2.10-14.71 2.10-8.46C2.10-2.21 7.21 2.89 13.45 2.89ZM15.16-3.57C13.95-3.57 13.10-4.30 12.80-5.31C12.73-5.48 12.69-5.75 12.69-5.91C12.69-6.09 12.80-6.23 12.97-6.23C13.20-6.23 13.27-6.11 13.30-5.89C13.42-5.06 14.05-4.18 15.18-4.18C16.39-4.18 16.97-5.19 16.97-6.29C16.97-7.66 16.21-8.36 14.96-8.36L14.41-8.36C14.25-8.36 14.13-8.48 14.13-8.65C14.13-8.79 14.20-8.94 14.41-8.94L14.95-8.94C16.03-8.94 16.72-9.80 16.72-10.88C16.72-11.91 16.15-12.75 15.12-12.75C14.12-12.75 13.59-11.96 13.45-11.09C13.41-10.86 13.36-10.72 13.14-10.72C12.95-10.72 12.86-10.86 12.86-11.05C12.86-11.17 12.87-11.38 12.94-11.64C13.25-12.67 13.97-13.35 15.12-13.35C16.49-13.35 17.37-12.35 17.37-10.95C17.37-9.95 16.88-8.95 15.81-8.68L15.81-8.66C17.03-8.55 17.64-7.56 17.64-6.33C17.64-4.65 16.59-3.57 15.16-3.57ZM10.46-3.62C10.28-3.62 10.13-3.79 10.13-3.97L10.13-12.42L8.60-11.19C8.54-11.14 8.50-11.12 8.41-11.12C8.24-11.12 8.13-11.25 8.13-11.41C8.13-11.53 8.18-11.60 8.26-11.67L9.95-13.07C10.08-13.18 10.24-13.29 10.44-13.29C10.64-13.29 10.80-13.13 10.80-12.93L10.80-3.97C10.80-3.79 10.64-3.62 10.46-3.62Z" fill="currentColor"/>
</svg>