<svg xmlns="http://www.w3.org/2000/svg" viewBox="0 0 24 24" width="24" height="24">
  
  <path transform="matrix(0.9752380952380952, 0, 0, 0.9752380952380952, -0.9142857142857141, 20.251428571428573)" d="M6 1.79L20.48 1.79C22.44 1.79 23.50 0.71 23.50-1.22L23.50-15.70C23.50-17.64 22.44-18.71 20.48-18.71L6-18.71C4.03-18.71 2.99-17.67 2.99-15.70L2.99-1.22C2.99 0.75 4.03 1.79 6 1.79ZM6.02 1.22C4.41 1.22 3.56 0.38 3.56-1.25L3.56-15.68C3.56-17.30 4.41-18.14 6.02-18.14L20.45-18.14C22.02-18.14 22.92-17.30 22.92-15.68L22.92-1.25C22.92 0.38 22.02 1.22 20.45 1.22ZM15.06-3.54C16.65-3.54 17.50-5.07 17.50-6.79C17.50-8.39 16.72-9.93 15.18-9.93C14.03-9.93 13.31-9.05 13.10-7.93L13.07-7.93L13.07-8.14C13.07-9.81 13.31-12.75 15.07-12.75C15.91-12.75 16.42-12.12 16.65-11.31C16.71-11.12 16.77-10.95 16.99-10.95C17.17-10.95 17.29-11.05 17.29-11.24C17.29-11.33 17.25-11.50 17.19-11.70C16.91-12.69 16.13-13.37 15.09-13.37C12.93-13.37 12.41-10.31 12.41-8.24C12.41-6.07 13.02-3.54 15.06-3.54ZM10.18-3.62C10.36-3.62 10.52-3.77 10.52-3.96L10.52-12.93C10.52-13.14 10.36-13.29 10.16-13.29C9.95-13.29 9.80-13.20 9.66-13.08L7.98-11.67C7.89-11.60 7.85-11.53 7.85-11.41C7.85-11.25 7.95-11.12 8.13-11.12C8.21-11.12 8.26-11.14 8.32-11.19L9.83-12.42L9.83-3.96C9.83-3.77 10.00-3.62 10.18-3.62ZM15.06-4.16C13.84-4.16 13.22-5.58 13.22-6.87C13.22-8.04 13.90-9.33 15.05-9.33C16.24-9.33 16.84-8.00 16.84-6.77C16.84-5.55 16.25-4.16 15.06-4.16Z" fill="currentColor"/>
</svg>