<svg xmlns="http://www.w3.org/2000/svg" viewBox="0 0 24 24" width="24" height="24">
  <title>21.square</title>
  <path transform="matrix(0.9752380952380952, 0, 0, 0.9752380952380952, -0.9142857142857141, 20.251428571428573)" d="M6 1.79L20.48 1.79C22.44 1.79 23.50 0.71 23.50-1.22L23.50-15.70C23.50-17.64 22.44-18.71 20.48-18.71L6-18.71C4.03-18.71 2.99-17.67 2.99-15.70L2.99-1.22C2.99 0.75 4.03 1.79 6 1.79ZM6.02 1.22C4.41 1.22 3.56 0.38 3.56-1.25L3.56-15.68C3.56-17.30 4.41-18.14 6.02-18.14L20.45-18.14C22.02-18.14 22.92-17.30 22.92-15.68L22.92-1.25C22.92 0.38 22.02 1.22 20.45 1.22ZM8.87-3.73L12.88-3.73C13.05-3.73 13.18-3.86 13.18-4.03C13.18-4.21 13.05-4.34 12.88-4.34L9.43-4.34L9.43-4.38L11.77-7.69C12.64-8.94 12.96-9.80 12.96-10.77C12.96-12.20 12.22-13.38 10.76-13.38C9.41-13.38 8.54-12.13 8.54-10.86C8.54-10.73 8.64-10.56 8.86-10.56C9.01-10.56 9.13-10.66 9.14-10.82C9.29-11.95 9.77-12.77 10.77-12.77C11.88-12.77 12.35-11.68 12.35-10.73C12.35-9.87 12.06-9.13 11.29-8.05L8.65-4.36C8.55-4.23 8.53-4.13 8.53-4.01C8.53-3.82 8.68-3.73 8.87-3.73ZM16.77-3.62C16.95-3.62 17.10-3.77 17.10-3.96L17.10-12.93C17.10-13.14 16.95-13.29 16.73-13.29C16.54-13.29 16.37-13.20 16.24-13.08L14.57-11.67C14.47-11.60 14.43-11.53 14.43-11.41C14.43-11.25 14.53-11.12 14.71-11.12C14.80-11.12 14.84-11.14 14.89-11.19L16.42-12.42L16.42-3.96C16.42-3.77 16.58-3.62 16.77-3.62Z" fill="currentColor"/>
</svg>