<svg xmlns="http://www.w3.org/2000/svg" viewBox="0 0 24 24" width="24" height="24">
  <title>25.square.fill</title>
  <path transform="matrix(0.9752380952380952, 0, 0, 0.9752380952380952, -0.9142857142857141, 20.251428571428573)" d="M6 1.79L20.48 1.79C22.44 1.79 23.50 0.71 23.50-1.22L23.50-15.70C23.50-17.64 22.44-18.71 20.48-18.71L6-18.71C4.03-18.71 2.99-17.67 2.99-15.70L2.99-1.22C2.99 0.75 4.03 1.79 6 1.79ZM7.96-3.73C7.77-3.73 7.63-3.82 7.63-4.02C7.63-4.13 7.65-4.23 7.73-4.36L10.38-8.05C11.14-9.13 11.44-9.87 11.44-10.73C11.44-11.68 10.97-12.76 9.86-12.76C8.87-12.76 8.38-11.95 8.24-10.80C8.23-10.66 8.11-10.56 7.95-10.56C7.72-10.56 7.64-10.73 7.64-10.86C7.64-12.13 8.50-13.38 9.84-13.38C11.31-13.38 12.05-12.20 12.05-10.77C12.05-9.80 11.73-8.94 10.86-7.69L8.53-4.38L8.53-4.34L11.96-4.34C12.14-4.34 12.27-4.21 12.27-4.03C12.27-3.86 12.14-3.73 11.96-3.73ZM16.03-3.55C14.86-3.55 14.03-4.37 13.77-5.50C13.73-5.60 13.69-5.78 13.69-5.88C13.69-6.07 13.80-6.20 13.99-6.20C14.14-6.20 14.26-6.13 14.31-5.86C14.47-4.96 15.12-4.16 16.03-4.16C17.24-4.16 17.81-5.46 17.81-6.74C17.81-7.91 17.25-9.28 16.08-9.28C15.40-9.28 14.91-8.86 14.59-8.26C14.48-8.06 14.40-7.91 14.18-7.91C13.96-7.91 13.83-8.06 13.83-8.29C13.83-8.37 13.84-8.61 13.85-8.80L14.14-12.67C14.17-12.98 14.31-13.21 14.64-13.21L17.77-13.21C17.94-13.21 18.07-13.07 18.07-12.89C18.07-12.70 17.95-12.57 17.77-12.57L14.74-12.57L14.45-8.75L14.48-8.75C14.85-9.59 15.57-9.88 16.21-9.88C17.72-9.88 18.48-8.32 18.48-6.76C18.48-5.13 17.65-3.55 16.03-3.55Z" fill="currentColor"/>
</svg>