<svg xmlns="http://www.w3.org/2000/svg" viewBox="0 0 24 24" width="24" height="24">
  <title>30.arrow.trianglehead.counterclockwise</title>
  <path transform="matrix(0.8026614816060077, 0, 0, 0.8026614816060077, 1.2016947552691777, 19.67667125832011)" d="M13.45 2.89C19.73 2.89 24.81-2.19 24.81-8.46C24.81-14.07 20.75-18.73 15.40-19.65L15.40-21.63C15.40-22.00 15.13-22.15 14.78-21.90L11.31-19.48C11.02-19.28 11.02-19.01 11.31-18.81L14.78-16.38C15.13-16.14 15.40-16.28 15.40-16.65L15.40-19.07C20.44-18.15 24.23-13.76 24.23-8.46C24.23-2.50 19.42 2.32 13.45 2.32C7.49 2.32 2.67-2.50 2.67-8.46C2.67-12.47 4.85-15.98 8.12-17.84C8.26-17.92 8.31-18.09 8.24-18.23C8.17-18.36 7.98-18.41 7.83-18.33C4.39-16.37 2.10-12.67 2.10-8.46C2.10-2.19 7.18 2.89 13.45 2.89ZM16.99-3.74C19.22-3.74 19.91-6.28 19.91-8.40C19.91-10.58 19.18-13.05 16.99-13.05C14.75-13.05 14.06-10.51 14.06-8.40C14.06-6.21 14.81-3.74 16.99-3.74ZM9.81-3.75C11.43-3.75 12.63-4.83 12.63-6.38C12.63-7.63 11.84-8.45 10.63-8.59C11.58-8.82 12.30-9.57 12.30-10.71C12.30-12.06 11.27-13.03 9.75-13.03C8.55-13.03 7.64-12.35 7.31-11.37C7.24-11.20 7.21-10.99 7.21-10.82C7.21-10.62 7.31-10.51 7.50-10.51C7.71-10.51 7.76-10.65 7.80-10.83C7.97-11.74 8.67-12.42 9.75-12.42C10.84-12.42 11.66-11.77 11.66-10.66C11.66-9.55 10.78-8.85 9.63-8.85L8.91-8.85C8.74-8.85 8.61-8.73 8.61-8.55C8.61-8.39 8.74-8.27 8.91-8.27L9.66-8.27C11.02-8.27 11.98-7.66 11.98-6.34C11.98-5.19 11.09-4.36 9.81-4.36C8.68-4.36 7.82-5.00 7.63-5.96C7.58-6.14 7.51-6.30 7.32-6.30C7.13-6.30 7.01-6.15 7.01-5.99C7.01-5.79 7.05-5.61 7.14-5.43C7.54-4.31 8.61-3.75 9.81-3.75ZM16.99-4.34C15.25-4.34 14.72-6.63 14.72-8.40C14.72-10.22 15.25-12.47 16.99-12.47C18.75-12.47 19.25-10.18 19.25-8.40C19.25-6.63 18.76-4.34 16.99-4.34Z" fill="currentColor"/>
</svg>