<svg xmlns="http://www.w3.org/2000/svg" viewBox="0 0 24 24" width="24" height="24">
  <title>32.square.fill</title>
  <path transform="matrix(0.9752380952380952, 0, 0, 0.9752380952380952, -0.9142857142857141, 20.251428571428573)" d="M6 1.79L20.48 1.79C22.44 1.79 23.50 0.71 23.50-1.22L23.50-15.70C23.50-17.64 22.44-18.71 20.48-18.71L6-18.71C4.03-18.71 2.99-17.67 2.99-15.70L2.99-1.22C2.99 0.75 4.03 1.79 6 1.79ZM14.39-3.73C14.20-3.73 14.05-3.82 14.05-4.02C14.05-4.13 14.09-4.23 14.17-4.36L16.82-8.05C17.58-9.13 17.87-9.87 17.87-10.73C17.87-11.68 17.40-12.76 16.29-12.76C15.29-12.76 14.81-11.95 14.67-10.80C14.66-10.66 14.54-10.56 14.38-10.56C14.16-10.56 14.07-10.73 14.07-10.86C14.07-12.13 14.93-13.38 16.28-13.38C17.74-13.38 18.48-12.20 18.48-10.77C18.48-9.80 18.16-8.94 17.29-7.69L14.96-4.38L14.96-4.34L18.40-4.34C18.57-4.34 18.70-4.21 18.70-4.03C18.70-3.86 18.57-3.73 18.40-3.73ZM10.15-3.57C8.93-3.57 8.09-4.30 7.78-5.31C7.71-5.48 7.68-5.75 7.68-5.91C7.68-6.09 7.78-6.23 7.96-6.23C8.18-6.23 8.25-6.11 8.29-5.89C8.40-5.06 9.04-4.18 10.16-4.18C11.38-4.18 11.95-5.19 11.95-6.29C11.95-7.66 11.19-8.36 9.95-8.36L9.40-8.36C9.23-8.36 9.12-8.48 9.12-8.65C9.12-8.79 9.19-8.94 9.40-8.94L9.94-8.94C11.02-8.94 11.71-9.80 11.71-10.88C11.71-11.91 11.13-12.75 10.10-12.75C9.11-12.75 8.58-11.96 8.44-11.09C8.39-10.86 8.34-10.72 8.12-10.72C7.93-10.72 7.84-10.86 7.84-11.05C7.84-11.17 7.85-11.38 7.92-11.64C8.24-12.67 8.95-13.35 10.10-13.35C11.47-13.35 12.35-12.35 12.35-10.95C12.35-9.95 11.86-8.95 10.79-8.68L10.79-8.66C12.01-8.55 12.62-7.56 12.62-6.33C12.62-4.65 11.58-3.57 10.15-3.57Z" fill="currentColor"/>
</svg>