<svg xmlns="http://www.w3.org/2000/svg" viewBox="0 0 24 24" width="24" height="24">
  
  <path transform="matrix(0.8806329549363605, 0, 0, 0.8806329549363605, 0.15273477812177494, 19.45098039215686)" d="M13.45 2.89C19.70 2.89 24.81-2.21 24.81-8.46C24.81-14.71 19.70-19.82 13.45-19.82C7.21-19.82 2.10-14.71 2.10-8.46C2.10-2.21 7.21 2.89 13.45 2.89ZM10.01-3.57C8.80-3.57 7.95-4.30 7.64-5.31C7.58-5.48 7.54-5.75 7.54-5.91C7.54-6.09 7.65-6.23 7.83-6.23C8.04-6.23 8.11-6.11 8.14-5.89C8.26-5.06 8.89-4.18 10.02-4.18C11.24-4.18 11.81-5.19 11.81-6.29C11.81-7.66 11.06-8.36 9.81-8.36L9.26-8.36C9.09-8.36 8.98-8.48 8.98-8.65C8.98-8.79 9.05-8.94 9.26-8.94L9.80-8.94C10.88-8.94 11.57-9.80 11.57-10.88C11.57-11.91 10.99-12.75 9.96-12.75C8.96-12.75 8.44-11.96 8.30-11.09C8.25-10.86 8.20-10.72 7.99-10.72C7.80-10.72 7.70-10.86 7.70-11.05C7.70-11.17 7.71-11.38 7.78-11.64C8.10-12.67 8.81-13.35 9.96-13.35C11.33-13.35 12.21-12.35 12.21-10.95C12.21-9.95 11.72-8.95 10.65-8.68L10.65-8.66C11.87-8.55 12.48-7.56 12.48-6.33C12.48-4.65 11.44-3.57 10.01-3.57ZM16.48-3.57C14.88-3.57 13.92-4.80 13.92-6.29C13.92-7.44 14.59-8.51 15.57-8.73L15.57-8.74C14.65-9.06 14.19-9.90 14.19-10.88C14.19-12.26 15.09-13.34 16.48-13.34C17.94-13.34 18.81-12.21 18.81-10.88C18.81-9.93 18.29-9.06 17.41-8.74L17.41-8.73C18.39-8.51 19.05-7.43 19.05-6.29C19.05-4.75 18.02-3.57 16.48-3.57ZM16.50-9.01C17.43-9.01 18.15-9.76 18.15-10.83C18.15-11.79 17.58-12.74 16.50-12.74C15.52-12.74 14.84-11.93 14.84-10.83C14.84-9.67 15.64-9.01 16.50-9.01ZM16.50-4.17C17.67-4.17 18.38-5.17 18.38-6.33C18.38-7.63 17.53-8.39 16.50-8.39C15.34-8.39 14.60-7.51 14.60-6.33C14.60-5.16 15.33-4.17 16.50-4.17Z" fill="currentColor"/>
</svg>