<svg xmlns="http://www.w3.org/2000/svg" viewBox="0 0 24 24" width="24" height="24">
  
  <path transform="matrix(0.9752380952380952, 0, 0, 0.9752380952380952, -0.9142857142857141, 20.251428571428573)" d="M6 1.79L20.48 1.79C22.44 1.79 23.50 0.71 23.50-1.22L23.50-15.70C23.50-17.64 22.44-18.71 20.48-18.71L6-18.71C4.03-18.71 2.99-17.67 2.99-15.70L2.99-1.22C2.99 0.75 4.03 1.79 6 1.79ZM6.02 1.22C4.41 1.22 3.56 0.38 3.56-1.25L3.56-15.68C3.56-17.30 4.41-18.14 6.02-18.14L20.45-18.14C22.02-18.14 22.92-17.30 22.92-15.68L22.92-1.25C22.92 0.38 22.02 1.22 20.45 1.22ZM16.09-7.00C17.25-7.00 17.96-7.86 18.18-8.98L18.21-8.98L18.21-8.77C18.21-7.10 17.96-4.18 16.17-4.18C15.36-4.18 14.86-4.79 14.60-5.66C14.52-5.94 14.41-6.04 14.27-6.04C14.06-6.04 13.97-5.91 13.97-5.72C13.97-5.61 13.99-5.45 14.05-5.27C14.36-4.22 15.15-3.56 16.18-3.56C18.35-3.56 18.87-6.53 18.87-8.67C18.87-10.84 18.26-13.38 16.22-13.38C14.65-13.38 13.78-11.84 13.78-10.11C13.78-8.52 14.55-7.00 16.09-7.00ZM9.98-3.57C11.41-3.57 12.46-4.65 12.46-6.33C12.46-7.56 11.85-8.55 10.63-8.66L10.63-8.68C11.70-8.95 12.19-9.95 12.19-10.95C12.19-12.35 11.31-13.35 9.94-13.35C8.78-13.35 8.07-12.67 7.76-11.64C7.69-11.38 7.66-11.17 7.66-11.05C7.66-10.86 7.77-10.72 7.96-10.72C8.18-10.72 8.23-10.86 8.26-11.09C8.41-11.96 8.94-12.75 9.94-12.75C10.97-12.75 11.54-11.91 11.54-10.88C11.54-9.80 10.85-8.94 9.77-8.94L9.22-8.94C9.02-8.94 8.95-8.79 8.95-8.65C8.95-8.48 9.07-8.36 9.22-8.36L9.79-8.36C11.03-8.36 11.78-7.66 11.78-6.29C11.78-5.19 11.21-4.18 10.00-4.18C8.87-4.18 8.24-5.06 8.11-5.88C8.09-6.11 8.02-6.22 7.79-6.22C7.62-6.22 7.50-6.09 7.50-5.91C7.50-5.75 7.55-5.48 7.61-5.31C7.92-4.29 8.77-3.57 9.98-3.57ZM16.22-7.59C15.02-7.59 14.44-8.91 14.44-10.10C14.44-11.36 15.02-12.77 16.22-12.77C17.44-12.77 18.05-11.32 18.05-10.10C18.05-8.87 17.38-7.59 16.22-7.59Z" fill="currentColor"/>
</svg>