<svg xmlns="http://www.w3.org/2000/svg" viewBox="0 0 24 24" width="24" height="24">
  
  <path transform="matrix(0.8806329549363605, 0, 0, 0.8806329549363605, 0.15273477812177494, 19.45098039215686)" d="M13.45 2.89C19.73 2.89 24.81-2.19 24.81-8.46C24.81-14.74 19.73-19.82 13.45-19.82C7.18-19.82 2.10-14.74 2.10-8.46C2.10-2.19 7.18 2.89 13.45 2.89ZM13.45 2.32C7.49 2.32 2.67-2.50 2.67-8.46C2.67-14.43 7.49-19.24 13.45-19.24C19.42-19.24 24.23-14.43 24.23-8.46C24.23-2.50 19.42 2.32 13.45 2.32ZM16.46-3.54C18.59-3.54 19.04-6.47 19.04-8.46C19.04-10.46 18.59-13.38 16.46-13.38C14.34-13.38 13.89-10.46 13.89-8.46C13.89-6.47 14.34-3.54 16.46-3.54ZM11.09-3.62C11.26-3.62 11.40-3.80 11.40-3.97L11.40-6.02L12.20-6.02C12.39-6.02 12.52-6.13 12.52-6.33C12.52-6.50 12.36-6.62 12.20-6.62L11.40-6.62L11.40-12.81C11.40-13.24 11.12-13.36 10.90-13.36C10.56-13.36 10.39-13.15 10.24-12.83L7.25-6.97C7.17-6.79 7.13-6.63 7.13-6.47C7.13-6.21 7.30-6.02 7.62-6.02L10.75-6.02L10.75-3.97C10.75-3.76 10.88-3.62 11.09-3.62ZM16.46-4.16C14.84-4.16 14.58-6.82 14.58-8.46C14.58-10.10 14.84-12.77 16.46-12.77C18.09-12.77 18.36-10.10 18.36-8.46C18.36-6.82 18.09-4.16 16.46-4.16ZM10.75-6.62L7.77-6.62L7.77-6.64L10.70-12.52L10.75-12.52Z" fill="currentColor"/>
</svg>