<svg xmlns="http://www.w3.org/2000/svg" viewBox="0 0 24 24" width="24" height="24">
  
  <path transform="matrix(0.9752380952380952, 0, 0, 0.9752380952380952, -0.9142857142857141, 20.251428571428573)" d="M6 1.79L20.48 1.79C22.44 1.79 23.50 0.71 23.50-1.22L23.50-15.70C23.50-17.64 22.44-18.71 20.48-18.71L6-18.71C4.03-18.71 2.99-17.67 2.99-15.70L2.99-1.22C2.99 0.75 4.03 1.79 6 1.79ZM6.02 1.22C4.41 1.22 3.56 0.38 3.56-1.25L3.56-15.68C3.56-17.30 4.41-18.14 6.02-18.14L20.45-18.14C22.02-18.14 22.92-17.30 22.92-15.68L22.92-1.25C22.92 0.38 22.02 1.22 20.45 1.22ZM10.79-3.62C10.97-3.62 11.12-3.80 11.12-3.97L11.12-6.02L11.92-6.02C12.11-6.02 12.22-6.13 12.22-6.33C12.22-6.50 12.08-6.62 11.92-6.62L11.12-6.62L11.12-12.81C11.12-13.24 10.84-13.36 10.61-13.36C10.28-13.36 10.11-13.15 9.95-12.83L6.97-6.97C6.89-6.79 6.84-6.63 6.84-6.47C6.84-6.21 7.02-6.02 7.32-6.02L10.46-6.02L10.46-3.97C10.46-3.76 10.59-3.62 10.79-3.62ZM17.50-3.62C17.67-3.62 17.82-3.80 17.82-3.97L17.82-6.02L18.62-6.02C18.81-6.02 18.93-6.13 18.93-6.33C18.93-6.50 18.79-6.62 18.62-6.62L17.82-6.62L17.82-12.81C17.82-13.24 17.54-13.36 17.31-13.36C16.98-13.36 16.82-13.15 16.65-12.83L13.68-6.97C13.59-6.79 13.55-6.63 13.55-6.47C13.55-6.21 13.72-6.02 14.03-6.02L17.17-6.02L17.17-3.97C17.17-3.76 17.30-3.62 17.50-3.62ZM10.46-6.62L7.49-6.62L7.49-6.64L10.42-12.52L10.46-12.52ZM17.17-6.62L14.19-6.62L14.19-6.64L17.12-12.52L17.17-12.52Z" fill="currentColor"/>
</svg>