<svg xmlns="http://www.w3.org/2000/svg" viewBox="0 0 24 24" width="24" height="24">
  
  <path transform="matrix(0.9752380952380952, 0, 0, 0.9752380952380952, -0.9142857142857141, 20.251428571428573)" d="M6 1.79L20.48 1.79C22.44 1.79 23.50 0.71 23.50-1.22L23.50-15.70C23.50-17.64 22.44-18.71 20.48-18.71L6-18.71C4.03-18.71 2.99-17.67 2.99-15.70L2.99-1.22C2.99 0.75 4.03 1.79 6 1.79ZM6.02 1.22C4.41 1.22 3.56 0.38 3.56-1.25L3.56-15.68C3.56-17.30 4.41-18.14 6.02-18.14L20.45-18.14C22.02-18.14 22.92-17.30 22.92-15.68L22.92-1.25C22.92 0.38 22.02 1.22 20.45 1.22ZM11.24-3.62C11.41-3.62 11.57-3.80 11.57-3.97L11.57-6.02L12.36-6.02C12.55-6.02 12.67-6.13 12.67-6.33C12.67-6.50 12.53-6.62 12.36-6.62L11.57-6.62L11.57-12.81C11.57-13.24 11.29-13.36 11.05-13.36C10.72-13.36 10.56-13.15 10.39-12.83L7.42-6.97C7.34-6.79 7.29-6.63 7.29-6.47C7.29-6.21 7.46-6.02 7.77-6.02L10.91-6.02L10.91-3.97C10.91-3.76 11.04-3.62 11.24-3.62ZM14.91-3.60C15.09-3.60 15.19-3.70 15.26-3.89L18.38-12.33C18.42-12.46 18.47-12.62 18.47-12.76C18.47-13.03 18.29-13.21 18-13.21L14.09-13.21C13.91-13.21 13.78-13.08 13.78-12.90C13.78-12.73 13.91-12.59 14.09-12.59L17.78-12.59L17.78-12.53L14.66-4.27C14.61-4.15 14.59-4.04 14.59-3.93C14.59-3.73 14.72-3.60 14.91-3.60ZM10.91-6.62L7.93-6.62L7.93-6.64L10.86-12.52L10.91-12.52Z" fill="currentColor"/>
</svg>