<svg xmlns="http://www.w3.org/2000/svg" viewBox="0 0 24 24" width="24" height="24">
  <title>49.square</title>
  <path transform="matrix(0.9752380952380952, 0, 0, 0.9752380952380952, -0.9142857142857141, 20.251428571428573)" d="M6 1.79L20.48 1.79C22.44 1.79 23.50 0.71 23.50-1.22L23.50-15.70C23.50-17.64 22.44-18.71 20.48-18.71L6-18.71C4.03-18.71 2.99-17.67 2.99-15.70L2.99-1.22C2.99 0.75 4.03 1.79 6 1.79ZM6.02 1.22C4.41 1.22 3.56 0.38 3.56-1.25L3.56-15.68C3.56-17.30 4.41-18.14 6.02-18.14L20.45-18.14C22.02-18.14 22.92-17.30 22.92-15.68L22.92-1.25C22.92 0.38 22.02 1.22 20.45 1.22ZM16.03-7.00C17.18-7.00 17.91-7.86 18.11-8.98L18.15-8.98L18.15-8.77C18.15-7.10 17.89-4.18 16.11-4.18C15.29-4.18 14.80-4.79 14.54-5.66C14.46-5.94 14.36-6.04 14.20-6.04C14.00-6.04 13.90-5.91 13.90-5.72C13.90-5.61 13.93-5.45 13.99-5.27C14.30-4.22 15.09-3.56 16.13-3.56C18.29-3.56 18.81-6.53 18.81-8.67C18.81-10.84 18.20-13.38 16.16-13.38C14.59-13.38 13.72-11.84 13.72-10.11C13.72-8.52 14.48-7.00 16.03-7.00ZM10.99-3.62C11.17-3.62 11.31-3.80 11.31-3.97L11.31-6.02L12.12-6.02C12.30-6.02 12.42-6.13 12.42-6.33C12.42-6.50 12.27-6.62 12.12-6.62L11.31-6.62L11.31-12.81C11.31-13.24 11.04-13.36 10.80-13.36C10.46-13.36 10.31-13.15 10.15-12.83L7.17-6.97C7.08-6.79 7.03-6.63 7.03-6.47C7.03-6.21 7.21-6.02 7.52-6.02L10.65-6.02L10.65-3.97C10.65-3.76 10.78-3.62 10.99-3.62ZM16.16-7.59C14.96-7.59 14.38-8.91 14.38-10.10C14.38-11.36 14.96-12.77 16.16-12.77C17.37-12.77 17.99-11.32 17.99-10.10C17.99-8.87 17.31-7.59 16.16-7.59ZM10.65-6.62L7.68-6.62L7.68-6.64L10.62-12.52L10.65-12.52Z" fill="currentColor"/>
</svg>