<svg xmlns="http://www.w3.org/2000/svg" viewBox="0 0 24 24" width="24" height="24">
  <title>50.circle</title>
  <path transform="matrix(0.8806329549363605, 0, 0, 0.8806329549363605, 0.15273477812177494, 19.45098039215686)" d="M13.45 2.89C19.73 2.89 24.81-2.19 24.81-8.46C24.81-14.74 19.73-19.82 13.45-19.82C7.18-19.82 2.10-14.74 2.10-8.46C2.10-2.19 7.18 2.89 13.45 2.89ZM13.45 2.32C7.49 2.32 2.67-2.50 2.67-8.46C2.67-14.43 7.49-19.24 13.45-19.24C19.42-19.24 24.23-14.43 24.23-8.46C24.23-2.50 19.42 2.32 13.45 2.32ZM16.77-3.53C18.89-3.53 19.35-6.45 19.35-8.45C19.35-10.44 18.89-13.37 16.77-13.37C14.65-13.37 14.19-10.44 14.19-8.45C14.19-6.45 14.65-3.53 16.77-3.53ZM10.34-3.53C11.95-3.53 12.79-5.11 12.79-6.74C12.79-8.31 12.02-9.87 10.51-9.87C9.88-9.87 9.15-9.56 8.79-8.74L8.75-8.74L9.05-12.56L12.07-12.56C12.26-12.56 12.38-12.69 12.38-12.88C12.38-13.05 12.25-13.18 12.07-13.18L8.94-13.18C8.60-13.18 8.47-12.97 8.45-12.66L8.16-8.79C8.14-8.59 8.13-8.36 8.13-8.26C8.13-8.04 8.26-7.90 8.48-7.90C8.71-7.90 8.79-8.05 8.89-8.24C9.21-8.85 9.70-9.27 10.38-9.27C11.55-9.27 12.12-7.90 12.12-6.73C12.12-5.45 11.54-4.14 10.34-4.14C9.42-4.14 8.78-4.95 8.61-5.85C8.57-6.11 8.45-6.19 8.30-6.19C8.11-6.19 7.99-6.05 7.99-5.86C7.99-5.75 8.04-5.58 8.06-5.48C8.33-4.36 9.16-3.53 10.34-3.53ZM16.77-4.14C15.14-4.14 14.87-6.81 14.87-8.45C14.87-10.09 15.14-12.75 16.77-12.75C18.40-12.75 18.67-10.09 18.67-8.45C18.67-6.81 18.40-4.14 16.77-4.14Z" fill="currentColor"/>
</svg>