<svg xmlns="http://www.w3.org/2000/svg" viewBox="0 0 24 24" width="24" height="24">
  <title>6.alt.circle.fill</title>
  <path transform="matrix(0.8806329549363605, 0, 0, 0.8806329549363605, 0.15273477812177494, 19.45098039215686)" d="M13.45 2.89C19.70 2.89 24.81-2.21 24.81-8.46C24.81-14.71 19.70-19.82 13.45-19.82C7.21-19.82 2.10-14.71 2.10-8.46C2.10-2.21 7.21 2.89 13.45 2.89ZM13.49-3.16C11.34-3.16 9.82-4.61 9.82-6.61C9.82-7.76 10.31-8.89 11.46-10.38C11.65-10.65 13.18-12.53 13.83-13.35C13.98-13.54 14.06-13.69 14.25-13.69C14.43-13.69 14.51-13.56 14.51-13.44C14.51-13.34 14.45-13.25 14.39-13.18C13.64-12.23 12.14-10.43 11.91-10.08C11.53-9.60 11.39-9.40 11.20-9.08L11.29-9.07C11.85-9.55 12.69-9.83 13.58-9.83C15.64-9.83 17.11-8.47 17.11-6.55C17.11-4.56 15.60-3.16 13.49-3.16ZM13.49-3.73C15.25-3.73 16.54-4.91 16.54-6.54C16.54-8.17 15.25-9.33 13.44-9.33C11.67-9.33 10.39-8.19 10.39-6.60C10.39-4.95 11.73-3.73 13.49-3.73Z" fill="currentColor"/>
</svg>