<svg xmlns="http://www.w3.org/2000/svg" viewBox="0 0 24 24" width="24" height="24">
  <title>60.arrow.trianglehead.clockwise</title>
  <path transform="matrix(0.8026614816060077, 0, 0, 0.8026614816060077, 1.2016947552691777, 19.67667125832011)" d="M13.45 2.89C19.73 2.89 24.81-2.19 24.81-8.46C24.81-12.67 22.51-16.37 19.08-18.33C18.93-18.41 18.74-18.36 18.67-18.23C18.60-18.09 18.64-17.92 18.79-17.84C22.07-15.98 24.23-12.47 24.23-8.46C24.23-2.50 19.42 2.32 13.45 2.32C7.49 2.32 2.67-2.50 2.67-8.46C2.67-13.76 6.48-18.15 11.52-19.07L11.52-16.65C11.52-16.28 11.78-16.14 12.13-16.38L15.60-18.81C15.89-19.01 15.89-19.28 15.60-19.48L12.13-21.90C11.78-22.15 11.52-22.00 11.52-21.63L11.52-19.65C6.16-18.73 2.10-14.07 2.10-8.46C2.10-2.19 7.18 2.89 13.45 2.89ZM17.11-3.74C19.35-3.74 20.03-6.28 20.03-8.40C20.03-10.58 19.30-13.05 17.11-13.05C14.87-13.05 14.19-10.51 14.19-8.40C14.19-6.21 14.93-3.74 17.11-3.74ZM9.97-3.73C11.71-3.73 12.79-5.14 12.79-6.82C12.79-8.48 11.68-9.81 10.05-9.81C8.87-9.81 7.86-9.04 7.58-7.90C7.58-9.02 7.69-9.80 7.88-10.44C8.21-11.55 8.86-12.46 10.02-12.46C10.92-12.46 11.60-11.93 11.89-11.07C11.96-10.90 12.05-10.71 12.25-10.71C12.42-10.71 12.54-10.83 12.54-11.00C12.54-11.14 12.52-11.29 12.43-11.44C12.06-12.47 11.12-13.04 10.02-13.04C8.64-13.04 7.77-12.09 7.31-10.80C6.88-9.53 6.83-7.68 7.11-6.48C7.44-4.98 8.41-3.73 9.97-3.73ZM17.11-4.34C15.36-4.34 14.84-6.63 14.84-8.40C14.84-10.22 15.36-12.47 17.11-12.47C18.87-12.47 19.37-10.18 19.37-8.40C19.37-6.63 18.88-4.34 17.11-4.34ZM9.97-4.34C8.63-4.34 7.77-5.55 7.77-6.89C7.77-8.14 8.72-9.21 9.95-9.21C11.26-9.21 12.13-8.14 12.13-6.82C12.13-5.44 11.24-4.34 9.97-4.34Z" fill="currentColor"/>
</svg>