<svg xmlns="http://www.w3.org/2000/svg" viewBox="0 0 24 24" width="24" height="24">
  
  <path transform="matrix(0.8729752770673487, 0, 0, 0.8729752770673487, -0.6086956521739131, 19.36061381074169)" d="M6 1.82L22.89 1.82C24.86 1.82 25.90 0.75 25.90-1.20L25.90-15.67C25.90-17.61 24.86-18.68 22.89-18.68L6-18.68C4.03-18.68 2.99-17.64 2.99-15.67L2.99-1.20C2.99 0.77 4.03 1.82 6 1.82ZM6.04 1.24C4.41 1.24 3.56 0.40 3.56-1.22L3.56-11.29C3.56-12.91 4.41-13.76 6.04-13.76L22.85-13.76C24.42-13.76 25.32-12.91 25.32-11.29L25.32-1.22C25.32 0.40 24.42 1.24 22.85 1.24ZM12.88-1.02C13.02-1.02 13.10-1.08 13.20-1.25L17.88-10.61C17.96-10.77 17.99-10.85 17.99-10.98C17.99-11.25 17.77-11.43 17.44-11.43L11.65-11.43C11.47-11.43 11.36-11.29 11.36-11.13C11.36-10.97 11.47-10.84 11.65-10.84L17.32-10.84L17.32-10.78L12.61-1.55C12.57-1.45 12.56-1.39 12.56-1.31C12.56-1.14 12.69-1.02 12.88-1.02Z" fill="currentColor"/>
</svg>