<svg xmlns="http://www.w3.org/2000/svg" viewBox="0 0 24 24" width="24" height="24">
  
  <path transform="matrix(0.8026614816060077, 0, 0, 0.8026614816060077, 1.2016947552691777, 19.67667125832011)" d="M13.45 2.89C19.73 2.89 24.81-2.19 24.81-8.46C24.81-14.07 20.75-18.73 15.40-19.65L15.40-21.63C15.40-22.00 15.13-22.15 14.78-21.90L11.31-19.48C11.02-19.28 11.02-19.01 11.31-18.81L14.78-16.38C15.13-16.14 15.40-16.28 15.40-16.65L15.40-19.07C20.44-18.15 24.23-13.76 24.23-8.46C24.23-2.50 19.42 2.32 13.45 2.32C7.49 2.32 2.67-2.50 2.67-8.46C2.67-12.47 4.85-15.98 8.12-17.84C8.26-17.92 8.31-18.09 8.24-18.23C8.17-18.36 7.98-18.41 7.83-18.33C4.39-16.37 2.10-12.67 2.10-8.46C2.10-2.19 7.18 2.89 13.45 2.89ZM8.12-3.81C8.27-3.81 8.36-3.89 8.41-4.02L12.11-12.11C12.16-12.22 12.21-12.35 12.21-12.48C12.21-12.73 12.07-12.87 11.84-12.87L7.20-12.87C7.04-12.87 6.93-12.75 6.93-12.59C6.93-12.42 7.04-12.30 7.20-12.30L11.60-12.30L11.60-12.29L7.89-4.32C7.86-4.25 7.83-4.15 7.83-4.08C7.83-3.90 7.95-3.81 8.12-3.81ZM16.22-3.70C17.95-3.70 19.07-5.05 19.07-6.76C19.07-8.40 18-9.74 16.39-9.74C15.55-9.74 14.75-9.36 14.32-8.66L14.68-12.26L18.27-12.26C18.45-12.26 18.59-12.38 18.59-12.57C18.59-12.75 18.46-12.87 18.27-12.87L14.61-12.87C14.29-12.87 14.13-12.71 14.10-12.40L13.71-8.26C13.68-8.00 13.80-7.84 14.02-7.84C14.25-7.84 14.37-8.03 14.48-8.17C14.91-8.79 15.55-9.15 16.29-9.15C17.59-9.15 18.41-8.06 18.41-6.76C18.41-5.47 17.64-4.31 16.24-4.31C15.18-4.31 14.41-5.00 14.17-5.93C14.13-6.14 14.02-6.25 13.86-6.25C13.68-6.25 13.56-6.12 13.56-5.94C13.56-5.84 13.58-5.70 13.62-5.59C13.95-4.44 14.99-3.70 16.22-3.70Z" fill="currentColor"/>
</svg>