<svg xmlns="http://www.w3.org/2000/svg" viewBox="0 0 24 24" width="24" height="24">
  
  <path transform="matrix(0.8806329549363605, 0, 0, 0.8806329549363605, 0.15273477812177494, 19.45098039215686)" d="M13.45 2.89C19.73 2.89 24.81-2.19 24.81-8.46C24.81-14.74 19.73-19.82 13.45-19.82C7.18-19.82 2.10-14.74 2.10-8.46C2.10-2.19 7.18 2.89 13.45 2.89ZM13.45 2.32C7.49 2.32 2.67-2.50 2.67-8.46C2.67-14.43 7.49-19.24 13.45-19.24C19.42-19.24 24.23-14.43 24.23-8.46C24.23-2.50 19.42 2.32 13.45 2.32ZM13.44-13.37C14.31-13.37 15.01-14.07 15.01-14.94C15.01-15.81 14.31-16.51 13.44-16.51C12.57-16.51 11.87-15.81 11.87-14.94C11.87-14.07 12.57-13.37 13.44-13.37ZM13.44-12.57C11.73-12.57 9.28-12.88 8.11-13.04C8.00-13.05 7.90-13.09 7.78-13.09C7.49-13.09 7.17-12.83 7.17-12.40C7.17-12.07 7.36-11.79 7.68-11.71C8.06-11.63 10.82-11.27 11.17-11.21C11.51-11.16 11.72-10.86 11.73-10.44C11.75-9.81 11.73-7.80 11.57-6.89C11.41-5.98 10.37-1.61 10.32-1.43C10.21-0.95 10.48-0.53 10.96-0.53C11.29-0.53 11.52-0.73 11.65-1.17C11.88-2.04 12.62-5.09 12.87-5.81C13.03-6.33 13.14-6.53 13.44-6.53C13.73-6.53 13.86-6.34 14.04-5.81C14.26-5.10 15.01-2.06 15.23-1.17C15.34-0.73 15.60-0.53 15.93-0.53C16.41-0.53 16.68-0.95 16.56-1.43C16.51-1.61 15.45-5.98 15.32-6.89C15.16-7.80 15.16-9.81 15.16-10.44C15.16-10.86 15.38-11.14 15.71-11.21C16.05-11.30 18.81-11.59 19.21-11.71C19.51-11.81 19.71-12.07 19.71-12.40C19.71-12.83 19.38-13.09 19.10-13.09C18.97-13.09 18.88-13.05 18.77-13.04C17.60-12.88 15.16-12.57 13.44-12.57Z" fill="currentColor"/>
</svg>