<svg xmlns="http://www.w3.org/2000/svg" viewBox="0 0 24 24" width="24" height="24">
  <title>airplane.up.forward.app</title>
  <path transform="matrix(0.9905204101373574, 0, 0, 0.9905204101373574, -0.959953569355775, 20.3749274521184)" d="M9.18 1.64L16.99 1.64C19.08 1.64 20.63 1.11 21.64 0.09C22.66-0.91 23.18-2.48 23.18-4.56L23.18-12.35C23.18-14.43 22.68-15.97 21.64-17.00C20.61-18.04 19.08-18.55 16.99-18.55L9.18-18.55C7.10-18.55 5.54-18.02 4.52-17.00C3.52-16.00 2.99-14.43 2.99-12.35L2.99-4.56C2.99-2.48 3.49-0.94 4.52 0.09C5.58 1.15 7.10 1.64 9.18 1.64ZM9.18 1.07C7.30 1.07 5.91 0.60 4.96-0.33C4.03-1.27 3.56-2.67 3.56-4.56L3.56-12.35C3.56-14.24 4.03-15.64 4.96-16.58C5.91-17.51 7.30-17.98 9.18-17.98L16.99-17.98C18.88-17.98 20.27-17.51 21.21-16.58C22.15-15.64 22.61-14.24 22.61-12.35L22.61-4.56C22.61-2.67 22.15-1.27 21.21-0.33C20.27 0.60 18.88 1.07 16.99 1.07ZM18.88-14.03C18.39-14.52 17.37-14.21 16.56-13.41L14.75-11.60C14.53-11.38 14.41-11.32 14.11-11.33L8.26-11.60C8.09-11.61 7.92-11.54 7.80-11.43L7.31-10.95C7.21-10.84 7.24-10.69 7.41-10.62L12.04-8.87L9.91-6.29L7.77-6.90C7.61-6.95 7.50-6.93 7.36-6.79L7.16-6.59C7.05-6.48 7.04-6.36 7.16-6.25L11.10-2.32C11.20-2.20 11.32-2.21 11.43-2.32L11.63-2.52C11.77-2.66 11.79-2.77 11.74-2.93L11.13-5.06L13.72-7.18L15.46-2.57C15.53-2.40 15.68-2.37 15.79-2.47L16.28-2.95C16.38-3.07 16.45-3.25 16.44-3.42L16.17-9.27C16.16-9.57 16.22-9.69 16.44-9.91L18.25-11.72C19.05-12.53 19.36-13.55 18.88-14.03Z" fill="currentColor"/>
</svg>