<svg xmlns="http://www.w3.org/2000/svg" viewBox="0 0 24 24" width="24" height="24">
  
  <path transform="matrix(0.8107680126682502, 0, 0, 0.8107680126682502, -0.4228028503562946, 18.84560570071259)" d="M3.28-19.37L27.36-19.37C27.53-19.37 27.66-19.50 27.66-19.66C27.66-19.82 27.53-19.95 27.36-19.95L3.28-19.95C3.12-19.95 2.99-19.82 2.99-19.66C2.99-19.50 3.12-19.37 3.28-19.37ZM7.30 3.06L12.34 3.06C13.24 3.06 13.85 2.45 13.85 1.55L13.85-15.47C13.85-16.37 13.24-16.97 12.34-16.97L7.30-16.97C6.40-16.97 5.79-16.37 5.79-15.47L5.79 1.55C5.79 2.45 6.40 3.06 7.30 3.06ZM18.36-4.41L23.40-4.41C24.30-4.41 24.90-5.02 24.90-5.92L24.90-15.47C24.90-16.37 24.30-16.97 23.40-16.97L18.36-16.97C17.46-16.97 16.85-16.37 16.85-15.47L16.85-5.92C16.85-5.02 17.46-4.41 18.36-4.41Z" fill="currentColor"/>
</svg>