<svg xmlns="http://www.w3.org/2000/svg" viewBox="0 0 24 24" width="24" height="24">
  <title>align.horizontal.left.fill</title>
  <path transform="matrix(0.8107680126682502, 0, 0, 0.8107680126682502, 0.251781472684085, 18.84560570071259)" d="M3.28 3.89C3.43 3.89 3.56 3.75 3.56 3.60L3.56-20.48C3.56-20.65 3.43-20.78 3.28-20.78C3.12-20.78 2.99-20.65 2.99-20.48L2.99 3.60C2.99 3.75 3.12 3.89 3.28 3.89ZM7.46-9.98L17.03-9.98C17.92-9.98 18.53-10.58 18.53-11.48L18.53-16.52C18.53-17.43 17.92-18.04 17.03-18.04L7.46-18.04C6.57-18.04 5.96-17.43 5.96-16.52L5.96-11.48C5.96-10.58 6.57-9.98 7.46-9.98ZM7.46 1.08L24.49 1.08C25.38 1.08 25.99 0.47 25.99-0.42L25.99-5.47C25.99-6.36 25.38-6.97 24.49-6.97L7.46-6.97C6.57-6.97 5.96-6.36 5.96-5.47L5.96-0.42C5.96 0.47 6.57 1.08 7.46 1.08Z" fill="currentColor"/>
</svg>