<svg xmlns="http://www.w3.org/2000/svg" viewBox="0 0 24 24" width="24" height="24">
  
  <path transform="matrix(0.7839534527637422, 0, 0, 0.7839534527637422, 5.307303628847038, 18.61920073495636)" d="M5.40 4.31L11.67 4.31C13.25 4.31 14.09 3.48 14.09 1.90L14.09-18.79C14.09-20.37 13.25-21.20 11.67-21.20L5.40-21.20C3.82-21.20 2.99-20.37 2.99-18.79L2.99 1.90C2.99 3.48 3.82 4.31 5.40 4.31ZM5.43 3.73C4.21 3.73 3.56 3.08 3.56 1.86L3.56-18.76C3.56-19.98 4.21-20.63 5.43-20.63L11.65-20.63C12.86-20.63 13.50-19.98 13.50-18.76L13.50 1.86C13.50 3.08 12.86 3.73 11.65 3.73ZM6.42-11.24C7.25-11.24 7.92-11.91 7.92-12.71C7.92-13.57 7.25-14.25 6.42-14.25C5.57-14.25 4.90-13.57 4.90-12.71C4.90-11.91 5.57-11.24 6.42-11.24ZM10.69-11.24C11.51-11.24 12.18-11.91 12.18-12.71C12.18-13.57 11.51-14.25 10.69-14.25C9.83-14.25 9.15-13.57 9.15-12.71C9.15-11.91 9.83-11.24 10.69-11.24ZM6.42-6.95C7.25-6.95 7.92-7.63 7.92-8.46C7.92-9.32 7.25-10.00 6.42-10.00C5.57-10.00 4.90-9.32 4.90-8.46C4.90-7.63 5.57-6.95 6.42-6.95ZM10.69-2.71C11.51-2.71 12.19-3.39 12.19-4.21L12.19-8.46C12.19-9.32 11.51-10.00 10.69-10.00C9.83-10.00 9.15-9.32 9.15-8.46L9.15-4.21C9.15-3.39 9.83-2.71 10.69-2.71ZM6.42-2.71C7.25-2.71 7.92-3.38 7.92-4.21C7.92-5.04 7.25-5.72 6.42-5.72C5.57-5.72 4.90-5.04 4.90-4.21C4.90-3.38 5.57-2.71 6.42-2.71Z" fill="currentColor"/>
</svg>