<svg xmlns="http://www.w3.org/2000/svg" viewBox="0 0 24 24" width="24" height="24">
  
  <path transform="matrix(0.8861197646244375, 0, 0, 0.8861197646244375, -0.64797507788162, 19.487019730010385)" d="M19.56-18.74L11.53-18.74C10.13-18.74 8.98-18.32 8.16-17.58L9.09-17.58C9.73-17.95 10.52-18.15 11.45-18.16L19.56-18.16C22.20-18.16 23.79-16.58 23.79-13.93L23.79-2.96C23.79-0.30 22.20 1.27 19.56 1.27L18.45 1.27C18.22 1.48 18 1.69 17.75 1.84L19.56 1.84C22.54 1.84 24.36 0 24.36-2.96L24.36-9.64L24.61-9.64C25.18-9.64 25.56-10.08 25.56-10.71L25.56-12.90C25.56-13.52 25.18-13.95 24.61-13.95L24.36-13.95C24.36-16.90 22.54-18.74 19.56-18.74ZM7.32 1.84L14.55 1.84C17.21 1.84 18.89 0.16 18.89-2.48L18.89-8.40L19.15-8.40C19.70-8.40 20.05-8.81 20.05-9.41L20.05-11.50C20.05-12.09 19.70-12.49 19.15-12.49L18.89-12.49C18.83-15.07 17.17-16.69 14.55-16.69L7.32-16.69C4.66-16.69 2.99-15.01 2.99-12.35L2.99-2.48C2.99 0.16 4.66 1.84 7.32 1.84ZM7.32 1.32C4.98 1.32 3.50-0.15 3.50-2.50L3.50-12.35C3.50-14.71 4.98-16.17 7.32-16.17L14.55-16.17C16.90-16.17 18.38-14.71 18.38-12.35L18.38-2.50C18.38-0.15 16.90 1.32 14.55 1.32Z" fill="currentColor"/>
</svg>