<svg xmlns="http://www.w3.org/2000/svg" viewBox="0 0 24 24" width="24" height="24">
  <title>appletvremote.gen1.fill</title>
  <path transform="matrix(0.7839534527637422, 0, 0, 0.7839534527637422, 5.330271015158475, 18.61920073495636)" d="M2.99 2.04C2.99 3.54 3.76 4.31 5.25 4.31L11.77 4.31C13.25 4.31 14.03 3.54 14.03 2.04L14.03-18.94C14.03-20.43 13.25-21.20 11.77-21.20L5.25-21.20C3.76-21.20 2.99-20.43 2.99-18.94ZM8.51-10.84C6.42-10.84 4.71-12.56 4.71-14.65C4.71-16.76 6.42-18.47 8.51-18.47C10.62-18.47 12.32-16.76 12.32-14.65C12.32-12.56 10.62-10.84 8.51-10.84ZM8.52-13.11C9.39-13.11 10.07-13.80 10.07-14.65C10.07-15.50 9.39-16.20 8.52-16.20C7.68-16.20 6.98-15.50 6.98-14.65C6.98-13.80 7.68-13.11 8.52-13.11ZM8.51-6.34C7.65-6.34 6.98-7.02 6.98-7.83C6.98-8.67 7.65-9.35 8.51-9.35C9.33-9.35 10.01-8.67 10.01-7.83C10.01-7.02 9.33-6.34 8.51-6.34Z" fill="currentColor"/>
</svg>