<svg xmlns="http://www.w3.org/2000/svg" viewBox="0 0 24 24" width="24" height="24">
  <title>apple.classical.pages.fill</title>
  <path transform="matrix(0.7907714673989861, 0, 0, 0.7907714673989861, 2.1308014127353103, 18.6268654593762)" d="M2.99 1.27C2.99 2.55 3.87 3.38 5.24 3.38C9.22 3.36 13.97 3.08 17.94 2.46C19.34 2.24 20.21 1.50 20.21 0.09L20.21-19.03C20.21-20.44 19.20-21.21 17.81-20.99C13.97-20.39 9.22-19.95 5.40-19.96C3.84-19.96 2.99-19.14 2.99-17.70ZM10.08 4.27L18.96 4.27C20.93 4.27 21.97 3.22 21.97 1.25L21.97-17.40C21.97-18.48 21.61-19.23 21.08-19.45C21.09-19.32 21.09-19.18 21.09-19.03L21.09 0.09C21.09 2.00 19.82 3.08 18.07 3.33C15.59 3.69 12.80 3.98 10.08 4.27ZM7.55-7.23C7.55-9.43 9.06-10.88 10.42-12.18C10.35-12.61 10.30-13.00 10.30-13.32C10.30-15.38 11.06-16.84 12.21-17.03C12.71-17.10 13.01-16.62 13.01-15.83C13.01-13.85 12.06-12.48 11.11-11.21L11.51-9.60C11.85-9.84 12.25-10.01 12.70-10.08C14.20-10.31 15.20-9.39 15.20-7.77C15.20-6.35 14.31-5.10 12.88-4.49C13.08-3.68 13.20-3.01 13.20-2.59C13.20-1.59 12.57-0.82 11.65-0.69C10.58-0.53 9.90-0.93 9.90-1.78C9.90-2.33 10.24-2.77 10.76-2.86C11.24-2.93 11.54-2.67 11.54-2.20C11.54-1.90 11.33-1.69 11.33-1.43C11.33-1.20 11.52-1.10 11.77-1.15C12.36-1.24 12.75-1.79 12.75-2.52C12.75-2.99 12.64-3.62 12.48-4.34C12.26-4.27 12-4.21 11.72-4.16C9.07-3.74 7.55-5.03 7.55-7.23ZM10.73-13.32C10.73-13.13 10.77-12.86 10.80-12.55C11.77-13.48 12.57-14.37 12.57-15.45C12.57-15.66 12.46-15.77 12.25-15.74C11.34-15.60 10.73-14.63 10.73-13.32ZM9.07-6.93C9.07-5.31 10.07-4.41 11.79-4.68C11.99-4.71 12.19-4.76 12.36-4.82C12.14-5.73 11.84-6.75 11.54-7.78C11.13-7.57 10.80-7.30 10.54-7.08C10.37-6.95 10.27-6.96 10.27-7.13C10.27-7.96 10.58-8.72 11.12-9.28L10.73-10.72C9.87-9.56 9.07-8.43 9.07-6.93ZM11.96-7.96C12.26-6.94 12.54-5.89 12.76-4.99C13.50-5.37 13.98-6.01 13.98-6.76C13.98-7.93 12.90-8.31 11.96-7.96Z" fill="currentColor"/>
</svg>