<svg xmlns="http://www.w3.org/2000/svg" viewBox="0 0 24 24" width="24" height="24">
  
  <path transform="matrix(0.8806329549363605, 0, 0, 0.8806329549363605, 0.15273477812177494, 19.45098039215686)" d="M13.45 2.89C19.73 2.89 24.81-2.19 24.81-8.46C24.81-14.74 19.73-19.82 13.45-19.82C7.18-19.82 2.10-14.74 2.10-8.46C2.10-2.19 7.18 2.89 13.45 2.89ZM13.45 2.32C7.49 2.32 2.67-2.50 2.67-8.46C2.67-14.43 7.49-19.24 13.45-19.24C19.42-19.24 24.23-14.43 24.23-8.46C24.23-2.50 19.42 2.32 13.45 2.32ZM13.15-4.16C13.34-4.16 13.44-4.35 13.44-4.48L13.44-7.64C17.52-7.76 20.16-10.42 20.02-14.32C20.02-14.50 19.91-14.68 19.63-14.68C16.55-14.84 14.09-12.84 13.13-9.50C12.19-12.35 9.53-13.17 7.98-13.16C7.84-13.16 7.70-13.07 7.71-12.87C7.91-11.02 9.08-7.80 12.83-7.64L12.83-4.48C12.83-4.32 13.00-4.16 13.15-4.16ZM13.43-8.19C14.00-11.94 16.35-14.21 19.48-14.12C19.51-10.63 17.17-8.31 13.43-8.19ZM12.84-8.19C9.61-8.36 8.54-10.95 8.32-12.59C9.75-12.52 12.43-11.63 12.84-8.19ZM11.29-3.87C11.50-3.87 11.70-4.05 11.70-4.25C11.70-4.48 11.50-4.65 11.29-4.65C11.09-4.65 10.89-4.48 10.89-4.25C10.89-4.05 11.09-3.87 11.29-3.87ZM15.01-3.87C15.21-3.87 15.40-4.05 15.40-4.25C15.40-4.48 15.21-4.65 15.01-4.65C14.79-4.65 14.61-4.48 14.61-4.25C14.61-4.05 14.79-3.87 15.01-3.87ZM9.47-3.21C9.69-3.21 9.87-3.41 9.87-3.61C9.87-3.81 9.69-4.01 9.47-4.01C9.27-4.01 9.08-3.81 9.08-3.61C9.08-3.41 9.27-3.21 9.47-3.21ZM16.80-3.21C17.02-3.21 17.21-3.41 17.21-3.61C17.21-3.81 17.02-4.01 16.80-4.01C16.61-4.01 16.43-3.81 16.43-3.61C16.43-3.41 16.61-3.21 16.80-3.21ZM7.90-2.09C8.09-2.09 8.27-2.27 8.27-2.48C8.27-2.67 8.09-2.87 7.90-2.87C7.68-2.87 7.51-2.67 7.51-2.48C7.51-2.27 7.68-2.09 7.90-2.09ZM18.41-2.09C18.63-2.09 18.81-2.27 18.81-2.48C18.81-2.67 18.63-2.87 18.41-2.87C18.20-2.87 18.02-2.67 18.02-2.48C18.02-2.27 18.20-2.09 18.41-2.09Z" fill="currentColor"/>
</svg>