<svg xmlns="http://www.w3.org/2000/svg" viewBox="0 0 24 24" width="24" height="24">
  <title>applewatch.slash</title>
  <path transform="matrix(0.927536231884058, 0, 0, 0.927536231884058, 2.20309822066495, 19.83695652173913)" d="M8.14-19.23C7.66-19.23 7.30-18.97 7.15-18.50L6.61-16.77C6.39-16.04 5.75-15.77 5.39-15.52L5.81-15.11C6.41-15.50 7.15-15.70 8.03-15.70L13.03-15.70C15.29-15.70 16.64-14.36 16.64-12.08L16.64-4.77C16.64-4.61 16.62-4.44 16.62-4.28L17.13-3.75C17.18-4.07 17.21-4.41 17.21-4.77L17.21-9.11L17.34-9.11C17.81-9.11 18.12-9.45 18.12-9.95L18.12-11.65C18.12-12.13 17.81-12.48 17.34-12.48L17.20-12.48C17.12-14.04 16.55-15.06 15.36-15.73C14.84-16.01 14.65-16.16 14.46-16.77L13.90-18.50C13.75-18.97 13.41-19.23 12.90-19.23ZM18.19-0.40C18.30-0.28 18.47-0.27 18.60-0.40C18.70-0.50 18.71-0.70 18.60-0.82L2.94-16.49C2.85-16.59 2.67-16.64 2.53-16.49C2.41-16.38 2.41-16.20 2.53-16.08ZM8.14 2.33L12.90 2.33C13.41 2.33 13.75 2.09 13.90 1.61L14.46-0.12C14.65-0.74 14.85-0.89 15.38-1.18C15.48-1.24 15.59-1.30 15.69-1.37L15.26-1.78C14.68-1.41 13.93-1.20 13.04-1.20L8.04-1.20C5.77-1.20 4.42-2.54 4.42-4.82L4.42-12.12C4.42-12.29 4.43-12.47 4.45-12.63L3.91-13.16C3.87-12.84 3.84-12.49 3.84-12.12L3.84-4.79C3.84-3.01 4.42-1.89 5.70-1.17C6.21-0.89 6.42-0.73 6.61-0.12L7.15 1.61C7.30 2.09 7.66 2.33 8.14 2.33Z" fill="currentColor"/>
</svg>