<svg xmlns="http://www.w3.org/2000/svg" viewBox="0 0 24 24" width="24" height="24">
  
  <path transform="matrix(0.7198032335359809, 0, 0, 0.7198032335359809, 3.0146853853848548, 18.094350424843572)" d="M2.99-10.46C2.98-9.39 3.39-8.45 4.24-7.62L9.75-2.07C7.24-0.12 6.67 0.88 6.67 2.26C6.67 3.98 8.10 5.39 10.00 5.43C11.10 5.44 12.01 4.97 12.64 4.31L20.82-3.87C22.50-5.53 22.34-7.41 20.43-9.34L15.30-14.46L17.37-16.54C18.02-17.21 18.41-18.07 18.43-18.94C18.46-20.87 16.98-22.36 15.02-22.36C13.90-22.36 13.08-21.97 12.05-20.95L3.94-12.87C3.33-12.23 3-11.40 2.99-10.46ZM5.64-13.75L12.47-20.55C13.34-21.45 14.06-21.77 15.02-21.77C16.65-21.77 17.86-20.59 17.86-18.95C17.86-18.25 17.54-17.52 16.96-16.95L9.71-9.70C10.25-12.19 8.29-14.19 5.64-13.75ZM3.63-10.31C3.63-12.05 4.77-13.23 6.35-13.23C8.00-13.23 9.18-12.01 9.18-10.23C9.18-10.07 9.18-9.60 9.13-9.32C9.04-8.85 9.57-8.74 9.75-8.91L14.89-14.06L20.03-8.92C21.73-7.22 21.83-5.70 20.41-4.28L13.36 2.78C13.50 1.07 12.96 0.33 11.51-1.14L5.07-7.62C4.01-8.68 3.63-9.39 3.63-10.31ZM7.24 2.26C7.24 0.87 8.06-0.08 10.22-1.64L11.11-0.74C12.38 0.55 12.80 1.24 12.82 2.26C12.83 3.68 11.57 4.83 10.00 4.83C8.46 4.83 7.24 3.67 7.24 2.26Z" fill="currentColor"/>
</svg>