<svg xmlns="http://www.w3.org/2000/svg" viewBox="0 0 24 24" width="24" height="24">
  <title>aqi.low</title>
  <path transform="matrix(0.7612250966399049, 0, 0, 0.7612250966399049, -0.06512042818911823, 18.440677966101696)" d="M15.87-20.33C16.24-20.33 16.50-20.59 16.50-20.95C16.50-21.32 16.23-21.60 15.87-21.60C15.53-21.60 15.25-21.32 15.25-20.95C15.25-20.60 15.52-20.33 15.87-20.33ZM10.49-17.23C10.86-17.23 11.11-17.50 11.11-17.86C11.11-18.22 10.85-18.48 10.49-18.48C10.15-18.48 9.87-18.20 9.87-17.86C9.87-17.50 10.14-17.23 10.49-17.23ZM21.26-17.23C21.62-17.23 21.88-17.50 21.88-17.86C21.88-18.22 21.61-18.48 21.26-18.48C20.92-18.48 20.64-18.20 20.64-17.86C20.64-17.50 20.89-17.23 21.26-17.23ZM5.11-14.09C5.48-14.09 5.73-14.34 5.73-14.71C5.73-15.07 5.46-15.33 5.11-15.33C4.76-15.33 4.49-15.07 4.49-14.71C4.49-14.36 4.76-14.09 5.11-14.09ZM15.87-14.09C16.24-14.09 16.50-14.34 16.50-14.71C16.50-15.07 16.23-15.33 15.87-15.33C15.52-15.33 15.25-15.07 15.25-14.71C15.25-14.36 15.52-14.09 15.87-14.09ZM26.59-14.09C26.96-14.09 27.21-14.34 27.21-14.71C27.21-15.08 26.96-15.33 26.59-15.33C26.25-15.33 25.97-15.05 25.97-14.71C25.97-14.36 26.24-14.09 26.59-14.09ZM10.49-10.97C10.86-10.97 11.11-11.23 11.11-11.60C11.11-11.95 10.85-12.22 10.49-12.22C10.15-12.22 9.87-11.94 9.87-11.60C9.87-11.23 10.14-10.97 10.49-10.97ZM21.26-10.97C21.62-10.97 21.88-11.23 21.88-11.60C21.88-11.95 21.61-12.22 21.26-12.22C20.92-12.22 20.64-11.94 20.64-11.60C20.64-11.23 20.89-10.97 21.26-10.97ZM5.11-7.84C5.48-7.84 5.73-8.10 5.73-8.46C5.73-8.81 5.46-9.08 5.11-9.08C4.76-9.08 4.49-8.82 4.49-8.46C4.49-8.11 4.76-7.84 5.11-7.84ZM15.87-7.84C16.24-7.84 16.50-8.10 16.50-8.46C16.50-8.81 16.23-9.08 15.87-9.08C15.52-9.08 15.25-8.82 15.25-8.46C15.25-8.11 15.52-7.84 15.87-7.84ZM26.59-7.84C26.96-7.84 27.21-8.10 27.21-8.46C27.21-8.84 26.96-9.08 26.59-9.08C26.25-9.08 25.97-8.80 25.97-8.46C25.97-8.11 26.24-7.84 26.59-7.84ZM10.49-4.70C10.86-4.70 11.11-4.96 11.11-5.32C11.11-5.68 10.85-5.96 10.49-5.96C10.15-5.96 9.87-5.68 9.87-5.32C9.87-4.97 10.14-4.70 10.49-4.70ZM21.26-4.70C21.62-4.70 21.88-4.96 21.88-5.32C21.88-5.68 21.61-5.96 21.26-5.96C20.92-5.96 20.64-5.68 20.64-5.32C20.64-4.97 20.89-4.70 21.26-4.70ZM5.11-1.59C5.48-1.59 5.73-1.84 5.73-2.21C5.73-2.57 5.46-2.84 5.11-2.84C4.77-2.84 4.49-2.55 4.49-2.21C4.49-1.84 4.73-1.59 5.11-1.59ZM15.87-1.59C16.24-1.59 16.50-1.84 16.50-2.21C16.50-2.57 16.23-2.84 15.87-2.84C15.53-2.84 15.25-2.55 15.25-2.21C15.25-1.84 15.50-1.59 15.87-1.59ZM26.59-1.59C26.98-1.59 27.21-1.83 27.21-2.21C27.21-2.57 26.94-2.84 26.59-2.84C26.25-2.84 25.97-2.55 25.97-2.21C25.97-1.86 26.24-1.59 26.59-1.59ZM10.49 1.56C10.86 1.56 11.11 1.31 11.11 0.94C11.11 0.59 10.85 0.30 10.49 0.30C10.15 0.30 9.87 0.59 9.87 0.94C9.87 1.29 10.14 1.56 10.49 1.56ZM21.26 1.56C21.62 1.56 21.88 1.31 21.88 0.94C21.88 0.59 21.61 0.30 21.26 0.30C20.92 0.30 20.64 0.59 20.64 0.94C20.64 1.29 20.89 1.56 21.26 1.56ZM15.87 4.68C16.24 4.68 16.50 4.41 16.50 4.03C16.50 3.68 16.23 3.41 15.87 3.41C15.53 3.41 15.25 3.69 15.25 4.03C15.25 4.41 15.52 4.68 15.87 4.68Z" fill="currentColor"/>
</svg>