<svg xmlns="http://www.w3.org/2000/svg" viewBox="0 0 24 24" width="24" height="24">
  <title>arcade.stick.console.fill</title>
  <path transform="matrix(0.6442066307634512, 0, 0, 0.6442066307634512, 0.07211803136368089, 17.446817391748006)" d="M7.20 1.43L29.82 1.43C33.01 1.43 34.39-0.21 33.96-3.84L32.66-14.65C32.36-17.12 30.98-18.34 28.56-18.34L8.47-18.34C6.04-18.34 4.66-17.12 4.37-14.65L3.07-3.84C2.64-0.21 4.02 1.43 7.20 1.43ZM10.99-5.13C10.80-5.13 10.69-5.20 10.69-5.33L10.69-9.29C9.46-9.46 8.50-10.50 8.50-11.78C8.50-13.15 9.61-14.27 10.99-14.27C12.36-14.27 13.49-13.15 13.49-11.78C13.49-10.50 12.53-9.46 11.30-9.29L11.30-5.33C11.30-5.20 11.19-5.13 10.99-5.13ZM17.47-9.53C16.70-9.53 16.09-10.13 16.09-10.90C16.09-11.68 16.70-12.28 17.47-12.28C18.25-12.28 18.87-11.68 18.87-10.90C18.87-10.13 18.25-9.53 17.47-9.53ZM22.43-9.53C21.66-9.53 21.05-10.13 21.05-10.90C21.05-11.68 21.66-12.28 22.43-12.28C23.20-12.28 23.81-11.68 23.81-10.90C23.81-10.13 23.20-9.53 22.43-9.53ZM27.36-9.53C26.59-9.53 25.98-10.13 25.98-10.90C25.98-11.68 26.59-12.28 27.36-12.28C28.14-12.28 28.75-11.68 28.75-10.90C28.75-10.13 28.14-9.53 27.36-9.53ZM10.99-3.16C9-3.16 7.61-4.22 7.61-5.74C7.61-6.94 8.47-7.85 9.80-8.17L9.80-7.58C8.81-7.28 8.18-6.60 8.18-5.74C8.18-4.57 9.35-3.75 10.99-3.75C12.64-3.75 13.79-4.57 13.79-5.74C13.79-6.60 13.17-7.28 12.20-7.58L12.20-8.17C13.51-7.85 14.38-6.94 14.38-5.74C14.38-4.22 12.97-3.16 10.99-3.16ZM19.13-4.59C18.35-4.59 17.74-5.19 17.74-5.96C17.74-6.75 18.35-7.35 19.13-7.35C19.90-7.35 20.51-6.75 20.51-5.96C20.51-5.19 19.90-4.59 19.13-4.59ZM24.07-4.59C23.30-4.59 22.69-5.19 22.69-5.96C22.69-6.75 23.30-7.35 24.07-7.35C24.84-7.35 25.45-6.75 25.45-5.96C25.45-5.19 24.84-4.59 24.07-4.59ZM29.00-4.59C28.23-4.59 27.62-5.19 27.62-5.96C27.62-6.75 28.23-7.35 29.00-7.35C29.78-7.35 30.39-6.75 30.39-5.96C30.39-5.19 29.78-4.59 29.00-4.59Z" fill="currentColor"/>
</svg>