<svg xmlns="http://www.w3.org/2000/svg" viewBox="0 0 24 24" width="24" height="24">
  
  <path transform="matrix(0.9752380952380952, 0, 0, 0.9752380952380952, -0.9142857142857141, 20.251428571428573)" d="M6 1.79L20.48 1.79C22.44 1.79 23.50 0.71 23.50-1.22L23.50-15.70C23.50-17.64 22.44-18.71 20.48-18.71L6-18.71C4.03-18.71 2.99-17.67 2.99-15.70L2.99-1.22C2.99 0.75 4.03 1.79 6 1.79ZM6.02 1.22C4.41 1.22 3.56 0.38 3.56-1.25L3.56-15.68C3.56-17.30 4.41-18.14 6.02-18.14L20.45-18.14C22.02-18.14 22.92-17.30 22.92-15.68L22.92-1.25C22.92 0.38 22.02 1.22 20.45 1.22ZM18.16-9.32C18.33-9.32 18.46-9.45 18.46-9.61L18.46-13.39C18.46-13.57 18.33-13.69 18.16-13.69L14.36-13.69C14.20-13.69 14.07-13.56 14.07-13.39C14.07-13.24 14.20-13.10 14.36-13.10L15.50-13.13L17.52-13.13L14.07-9.74C13.96-9.62 13.96-9.43 14.07-9.32C14.19-9.19 14.38-9.19 14.51-9.32L17.89-12.76L17.87-10.57L17.87-9.61C17.87-9.45 18.01-9.32 18.16-9.32ZM12.14-3.28C12.29-3.28 12.42-3.41 12.42-3.57C12.42-3.74 12.29-3.87 12.14-3.87L10.99-3.84L8.98-3.86L12.42-7.23C12.54-7.35 12.54-7.54 12.42-7.65C12.30-7.78 12.12-7.78 11.99-7.65L8.60-4.21L8.61-6.40L8.61-7.37C8.61-7.52 8.48-7.65 8.33-7.65C8.17-7.65 8.04-7.52 8.04-7.37L8.04-3.57C8.04-3.40 8.17-3.28 8.32-3.28Z" fill="currentColor"/>
</svg>