<svg xmlns="http://www.w3.org/2000/svg" viewBox="0 0 24 24" width="24" height="24">
  <title>arrow.up.left.and.arrow.down.right.circle.fill</title>
  <path transform="matrix(0.8806329549363605, 0, 0, 0.8806329549363605, 0.15273477812177494, 19.45098039215686)" d="M13.45 2.89C19.70 2.89 24.81-2.21 24.81-8.46C24.81-14.71 19.70-19.82 13.45-19.82C7.21-19.82 2.10-14.71 2.10-8.46C2.10-2.21 7.21 2.89 13.45 2.89ZM8.54-9.32C8.38-9.32 8.25-9.45 8.25-9.61L8.25-13.39C8.25-13.56 8.38-13.68 8.54-13.68L12.34-13.68C12.50-13.68 12.63-13.55 12.63-13.39C12.63-13.23 12.50-13.10 12.34-13.10L11.20-13.11L9.19-13.11L12.63-9.74C12.74-9.62 12.74-9.43 12.63-9.32C12.52-9.19 12.33-9.19 12.20-9.32L8.81-12.76L8.84-10.57L8.84-9.61C8.84-9.45 8.71-9.32 8.54-9.32ZM14.57-3.29C14.40-3.29 14.27-3.42 14.27-3.59C14.27-3.74 14.40-3.87 14.57-3.87L15.71-3.86L17.72-3.86L14.29-7.23C14.17-7.35 14.17-7.54 14.29-7.65C14.40-7.78 14.58-7.78 14.72-7.65L18.09-4.22L18.08-6.40L18.08-7.37C18.08-7.52 18.21-7.65 18.36-7.65C18.53-7.65 18.66-7.52 18.66-7.37L18.66-3.57C18.66-3.41 18.53-3.29 18.38-3.29Z" fill="currentColor"/>
</svg>