<svg xmlns="http://www.w3.org/2000/svg" viewBox="0 0 24 24" width="24" height="24">
  <title>arrow.down.right.topleft.rectangle</title>
  <path transform="matrix(0.7391367114190848, 0, 0, 0.7391367114190848, -0.2087483759203117, 18.253789519272413)" d="M6 1.79L27.05 1.79C29.00 1.79 30.05 0.71 30.05-1.22L30.05-15.70C30.05-17.64 29.00-18.71 27.05-18.71L6-18.71C4.03-18.71 2.99-17.67 2.99-15.70L2.99-1.22C2.99 0.75 4.03 1.79 6 1.79ZM6.02 1.22C4.41 1.22 3.56 0.38 3.56-1.25L3.56-15.68C3.56-17.30 4.41-18.14 6.02-18.14L27.01-18.14C28.57-18.14 29.47-17.30 29.47-15.68L29.47-1.25C29.47 0.38 28.57 1.22 27.01 1.22ZM12.90-8.53C13.05-8.53 13.17-8.65 13.17-8.81L13.17-14.53C13.17-14.72 13.05-14.84 12.90-14.84C12.73-14.84 12.61-14.72 12.61-14.54L12.61-9.49L11.54-10.59L5.89-16.24C5.84-16.30 5.77-16.35 5.65-16.35C5.47-16.35 5.36-16.23 5.36-16.05C5.36-15.95 5.40-15.88 5.46-15.82L11.12-10.16L12.22-9.08L7.16-9.08C6.97-9.08 6.87-8.96 6.87-8.79C6.87-8.63 6.97-8.53 7.16-8.53Z" fill="currentColor"/>
</svg>