<svg xmlns="http://www.w3.org/2000/svg" viewBox="0 0 24 24" width="24" height="24">
  
  <path transform="matrix(0.9752380952380952, 0, 0, 0.9752380952380952, -0.9142857142857141, 20.251428571428573)" d="M6 1.79L20.48 1.79C22.44 1.79 23.50 0.71 23.50-1.22L23.50-15.70C23.50-17.64 22.44-18.71 20.48-18.71L6-18.71C4.03-18.71 2.99-17.67 2.99-15.70L2.99-1.22C2.99 0.75 4.03 1.79 6 1.79ZM6.02 1.22C4.41 1.22 3.56 0.38 3.56-1.25L3.56-15.68C3.56-17.30 4.41-18.14 6.02-18.14L20.45-18.14C22.02-18.14 22.92-17.30 22.92-15.68L22.92-1.25C22.92 0.38 22.02 1.22 20.45 1.22ZM7.98-8.18L17.51-8.19L18.16-8.19L17.11-7.13L14.64-4.65C14.58-4.59 14.53-4.51 14.53-4.44C14.53-4.29 14.66-4.18 14.81-4.18C14.88-4.18 14.94-4.21 15-4.27L19.00-8.26C19.05-8.32 19.08-8.39 19.08-8.46C19.08-8.53 19.05-8.60 19.00-8.66L15-12.64C14.94-12.70 14.88-12.73 14.81-12.73C14.66-12.73 14.53-12.60 14.53-12.47C14.53-12.40 14.58-12.32 14.64-12.26L17.11-9.79L18.16-8.73L17.51-8.73L7.98-8.75C7.82-8.75 7.69-8.63 7.69-8.46C7.69-8.31 7.82-8.18 7.98-8.18Z" fill="currentColor"/>
</svg>