<svg xmlns="http://www.w3.org/2000/svg" viewBox="0 0 24 24" width="24" height="24">
  <title>arrow.up.backward.and.arrow.down.forward.square</title>
  <path transform="matrix(0.9752380952380952, 0, 0, 0.9752380952380952, -0.9142857142857141, 20.251428571428573)" d="M6 1.79L20.48 1.79C22.44 1.79 23.50 0.71 23.50-1.22L23.50-15.70C23.50-17.64 22.44-18.71 20.48-18.71L6-18.71C4.03-18.71 2.99-17.67 2.99-15.70L2.99-1.22C2.99 0.75 4.03 1.79 6 1.79ZM6.02 1.22C4.41 1.22 3.56 0.38 3.56-1.25L3.56-15.68C3.56-17.30 4.41-18.14 6.02-18.14L20.45-18.14C22.02-18.14 22.92-17.30 22.92-15.68L22.92-1.25C22.92 0.38 22.02 1.22 20.45 1.22ZM8.33-9.32C8.48-9.32 8.61-9.45 8.61-9.61L8.61-10.57L8.60-12.76L11.99-9.32C12.12-9.19 12.30-9.19 12.42-9.32C12.54-9.43 12.54-9.62 12.42-9.74L8.98-13.13L10.99-13.13L12.14-13.10C12.29-13.10 12.42-13.24 12.42-13.39C12.42-13.56 12.29-13.69 12.14-13.69L8.32-13.69C8.17-13.69 8.04-13.57 8.04-13.39L8.04-9.61C8.04-9.45 8.17-9.32 8.33-9.32ZM14.36-3.28L18.16-3.28C18.33-3.28 18.46-3.40 18.46-3.57L18.46-7.37C18.46-7.52 18.33-7.65 18.16-7.65C18.01-7.65 17.87-7.52 17.87-7.37L17.87-6.40L17.89-4.21L14.51-7.65C14.38-7.78 14.19-7.78 14.07-7.65C13.96-7.54 13.96-7.35 14.07-7.23L17.52-3.86L15.50-3.84L14.36-3.87C14.20-3.87 14.07-3.74 14.07-3.57C14.07-3.41 14.20-3.28 14.36-3.28Z" fill="currentColor"/>
</svg>