<svg xmlns="http://www.w3.org/2000/svg" viewBox="0 0 24 24" width="24" height="24">
  
  <path transform="matrix(0.7309064953604568, 0, 0, 0.7309064953604568, 0.4668094218415417, 18.586723768736615)" d="M23.84 0.22C27.01 0.22 29.46-1.91 29.46-4.73C29.46-6.97 28.29-8.99 25.92-9.69C26.13-14.57 22.71-18.25 18.33-18.25C15.11-18.25 13.02-16.44 11.89-14.24C9.27-15.45 6.19-13.27 6.26-10.16C3.81-10.05 2.10-8.04 2.10-5.37C2.10-2.19 4.76 0.19 8.32 0.19ZM22.41-8.41C22.56-8.41 22.62-8.26 22.52-8.12L21.35-6.28C21.16-5.99 20.91-5.96 20.71-6.28L19.52-8.12C19.42-8.27 19.48-8.41 19.66-8.41L20.84-8.41C20.54-10.56 18.73-12.18 16.52-12.18C15.30-12.18 14.19-11.67 13.42-10.86C13.31-10.76 13.15-10.76 13.07-10.85C12.98-10.93 12.97-11.09 13.08-11.18C13.96-12.07 15.18-12.63 16.52-12.63C18.97-12.63 21.01-10.78 21.29-8.41ZM10.65-7.25C10.50-7.25 10.44-7.42 10.54-7.56L11.70-9.40C11.89-9.69 12.15-9.70 12.35-9.40L13.52-7.56C13.63-7.41 13.57-7.25 13.38-7.25L12.22-7.25C12.50-5.12 14.33-3.50 16.52-3.50C17.75-3.50 18.86-4.01 19.64-4.82C19.75-4.91 19.90-4.92 19.98-4.83C20.06-4.75 20.07-4.59 19.98-4.49C19.10-3.61 17.88-3.04 16.52-3.04C14.07-3.04 12.05-4.89 11.77-7.25Z" fill="currentColor"/>
</svg>