<svg xmlns="http://www.w3.org/2000/svg" viewBox="0 0 24 24" width="24" height="24">
  
  <path transform="matrix(0.8801787863159705, 0, 0, 0.8801787863159705, 0.15884476534295922, 19.565755544094895)" d="M13.45 2.77C19.70 2.77 24.81-2.36 24.81-8.60C24.81-14.85 19.70-19.96 13.45-19.96C7.21-19.96 2.10-14.85 2.10-8.60C2.10-2.36 7.21 2.77 13.45 2.77ZM11.25-2.96C11.12-2.96 11.00-3.02 10.91-3.12L7.75-6.22C7.70-6.27 7.64-6.35 7.64-6.46C7.64-6.64 7.77-6.76 7.95-6.76C8.05-6.76 8.13-6.69 8.19-6.63L10.55-4.27L10.99-3.71L10.96-4.93L10.96-9.73C10.96-12.26 12.52-13.93 14.85-13.93C17.19-13.93 18.74-12.26 18.74-9.73L18.74-7.78C18.74-7.61 18.62-7.49 18.46-7.49C18.28-7.49 18.16-7.61 18.16-7.78L18.16-9.73C18.16-11.91 16.84-13.36 14.85-13.36C12.86-13.36 11.54-11.91 11.54-9.73L11.54-4.93L11.51-3.71L11.95-4.27L14.31-6.63C14.38-6.70 14.45-6.76 14.55-6.76C14.73-6.76 14.86-6.64 14.86-6.46C14.86-6.35 14.81-6.28 14.75-6.22L11.59-3.12C11.50-3.02 11.38-2.96 11.25-2.96Z" fill="currentColor"/>
</svg>