<svg xmlns="http://www.w3.org/2000/svg" viewBox="0 0 24 24" width="24" height="24">
  <title>arrow.left.arrow.right.square</title>
  <path transform="matrix(0.9752380952380952, 0, 0, 0.9752380952380952, -0.9142857142857141, 20.251428571428573)" d="M6 1.79L20.48 1.79C22.44 1.79 23.50 0.71 23.50-1.22L23.50-15.70C23.50-17.64 22.44-18.71 20.48-18.71L6-18.71C4.03-18.71 2.99-17.67 2.99-15.70L2.99-1.22C2.99 0.75 4.03 1.79 6 1.79ZM6.02 1.22C4.41 1.22 3.56 0.38 3.56-1.25L3.56-15.68C3.56-17.30 4.41-18.14 6.02-18.14L20.45-18.14C22.02-18.14 22.92-17.30 22.92-15.68L22.92-1.25C22.92 0.38 22.02 1.22 20.45 1.22ZM11.06-8.25C11.20-8.25 11.33-8.38 11.33-8.53C11.33-8.60 11.29-8.71 11.21-8.78L9.47-10.52L8.29-11.70L9.38-11.67L18.86-11.67C19.01-11.67 19.15-11.79 19.15-11.95C19.15-12.11 19.03-12.26 18.86-12.26L9.38-12.26L8.29-12.23L9.47-13.41L11.21-15.15C11.29-15.22 11.33-15.33 11.33-15.40C11.33-15.54 11.20-15.67 11.06-15.67C10.96-15.67 10.89-15.64 10.82-15.57L7.42-12.16C7.30-12.05 7.32-11.87 7.42-11.77L10.82-8.34C10.89-8.26 10.95-8.25 11.06-8.25ZM7.29-4.92C7.29-4.76 7.42-4.64 7.58-4.64L17.05-4.64L18.14-4.66L16.96-3.49L15.21-1.75C15.14-1.68 15.09-1.57 15.09-1.50C15.09-1.36 15.23-1.22 15.38-1.22C15.49-1.22 15.55-1.23 15.62-1.31L19.01-4.73C19.11-4.85 19.13-5.02 19.01-5.13L15.62-8.54C15.55-8.61 15.48-8.64 15.38-8.64C15.23-8.64 15.09-8.51 15.09-8.37C15.09-8.30 15.14-8.19 15.21-8.12L16.96-6.38L18.14-5.20L17.05-5.23L7.58-5.23C7.41-5.23 7.29-5.07 7.29-4.92Z" fill="currentColor"/>
</svg>