<svg xmlns="http://www.w3.org/2000/svg" viewBox="0 0 24 24" width="24" height="24">
  <title>arrow.up.right.and.arrow.down.left.rectangle.fill</title>
  <path transform="matrix(0.7391367114190848, 0, 0, 0.7391367114190848, -0.2087483759203117, 18.253789519272413)" d="M6 1.79L27.05 1.79C29.00 1.79 30.05 0.71 30.05-1.22L30.05-15.70C30.05-17.64 29.00-18.71 27.05-18.71L6-18.71C4.03-18.71 2.99-17.67 2.99-15.70L2.99-1.22C2.99 0.75 4.03 1.79 6 1.79ZM17.91-15.42C18.07-15.42 18.20-15.29 18.20-15.13L18.20-12.67L18.19-10.52L19.25-11.64L23.86-16.24C23.92-16.30 23.99-16.34 24.11-16.34C24.28-16.34 24.39-16.22 24.39-16.05C24.39-15.95 24.35-15.88 24.29-15.82L19.68-11.20L18.56-10.11L20.18-10.15L23.18-10.15C23.34-10.15 23.47-10.02 23.47-9.86C23.47-9.70 23.34-9.57 23.18-9.57L17.89-9.57C17.73-9.57 17.63-9.68 17.63-9.86L17.63-15.13C17.63-15.29 17.75-15.42 17.91-15.42ZM15.13-1.51C14.98-1.51 14.84-1.64 14.84-1.79L14.84-4.25L14.86-6.40L13.78-5.29L9.19-0.69C9.13-0.63 9.06-0.59 8.94-0.59C8.77-0.59 8.65-0.70 8.65-0.88C8.65-0.97 8.70-1.04 8.75-1.10L13.37-5.72L14.48-6.81L12.86-6.79L9.86-6.79C9.70-6.79 9.57-6.91 9.57-7.07C9.57-7.23 9.70-7.36 9.86-7.36L15.15-7.36C15.30-7.36 15.42-7.24 15.42-7.07L15.42-1.79C15.42-1.64 15.29-1.51 15.13-1.51Z" fill="currentColor"/>
</svg>