<svg xmlns="http://www.w3.org/2000/svg" viewBox="0 0 24 24" width="24" height="24">
  <title>arrow.uturn.up.circle</title>
  <path transform="matrix(0.8806329549363605, 0, 0, 0.8806329549363605, 0.15273477812177494, 19.45098039215686)" d="M13.45 2.89C19.73 2.89 24.81-2.19 24.81-8.46C24.81-14.74 19.73-19.82 13.45-19.82C7.18-19.82 2.10-14.74 2.10-8.46C2.10-2.19 7.18 2.89 13.45 2.89ZM13.45 2.32C7.49 2.32 2.67-2.50 2.67-8.46C2.67-14.43 7.49-19.24 13.45-19.24C19.42-19.24 24.23-14.43 24.23-8.46C24.23-2.50 19.42 2.32 13.45 2.32ZM8.19-9.60C8.02-9.60 7.90-9.48 7.90-9.30L7.90-7.36C7.90-4.84 9.46-3.15 11.79-3.15C14.13-3.15 15.69-4.84 15.69-7.36L15.69-12.15L15.66-13.37L16.10-12.83L18.46-10.46C18.53-10.38 18.60-10.32 18.70-10.32C18.88-10.32 19.01-10.44 19.01-10.63C19.01-10.73 18.96-10.80 18.90-10.86L15.74-13.98C15.64-14.06 15.53-14.12 15.40-14.12C15.27-14.12 15.15-14.06 15.06-13.98L11.89-10.86C11.84-10.80 11.79-10.73 11.79-10.63C11.79-10.44 11.92-10.32 12.09-10.32C12.20-10.32 12.27-10.39 12.34-10.46L14.70-12.83L15.14-13.37L15.11-12.15L15.11-7.36C15.11-5.18 13.78-3.73 11.79-3.73C9.80-3.73 8.48-5.18 8.48-7.36L8.48-9.30C8.48-9.48 8.37-9.60 8.19-9.60Z" fill="currentColor"/>
</svg>