<svg xmlns="http://www.w3.org/2000/svg" viewBox="0 0 24 24" width="24" height="24">
  <title>arrow.forward.circle.fill</title>
  <path transform="matrix(0.8806329549363605, 0, 0, 0.8806329549363605, 0.15273477812177494, 19.45098039215686)" d="M13.45 2.89C19.70 2.89 24.81-2.21 24.81-8.46C24.81-14.71 19.70-19.82 13.45-19.82C7.21-19.82 2.10-14.71 2.10-8.46C2.10-2.21 7.21 2.89 13.45 2.89ZM19.29-8.46C19.29-8.39 19.25-8.32 19.20-8.26L15.20-4.27C15.14-4.21 15.08-4.18 15.01-4.18C14.87-4.18 14.74-4.30 14.74-4.44C14.74-4.51 14.79-4.59 14.85-4.65L17.32-7.13L18.39-8.19L16.78-8.18L8.19-8.18C8.03-8.18 7.90-8.31 7.90-8.46C7.90-8.63 8.03-8.75 8.19-8.75L16.78-8.75L18.38-8.73L17.32-9.79L14.85-12.26C14.79-12.32 14.74-12.40 14.74-12.47C14.74-12.60 14.87-12.73 15.01-12.73C15.08-12.73 15.14-12.70 15.20-12.64L19.20-8.66C19.25-8.60 19.29-8.53 19.29-8.46Z" fill="currentColor"/>
</svg>