<svg xmlns="http://www.w3.org/2000/svg" viewBox="0 0 24 24" width="24" height="24">
  <title>arrow.up.circle.dotted</title>
  <path transform="matrix(0.8865800865800866, 0, 0, 0.8865800865800866, 0.1402597402597403, 19.490909090909092)" d="M13.38-18.50C13.70-18.50 13.97-18.77 13.97-19.09C13.97-19.42 13.70-19.69 13.38-19.69C13.05-19.69 12.79-19.42 12.79-19.09C12.79-18.77 13.05-18.50 13.38-18.50ZM16.69-17.96C17.00-17.96 17.27-18.23 17.27-18.55C17.27-18.88 17.00-19.15 16.69-19.15C16.36-19.15 16.09-18.88 16.09-18.55C16.09-18.23 16.36-17.96 16.69-17.96ZM10.08-17.96C10.39-17.96 10.66-18.23 10.66-18.55C10.66-18.88 10.39-19.15 10.08-19.15C9.75-19.15 9.48-18.88 9.48-18.55C9.48-18.23 9.75-17.96 10.08-17.96ZM19.66-16.45C19.98-16.45 20.25-16.72 20.25-17.04C20.25-17.37 19.98-17.64 19.66-17.64C19.34-17.64 19.07-17.37 19.07-17.04C19.07-16.72 19.34-16.45 19.66-16.45ZM7.10-16.45C7.42-16.45 7.69-16.72 7.69-17.04C7.69-17.37 7.42-17.64 7.10-17.64C6.77-17.64 6.50-17.37 6.50-17.04C6.50-16.72 6.77-16.45 7.10-16.45ZM22.01-14.11C22.34-14.11 22.59-14.37 22.59-14.70C22.59-15.02 22.34-15.29 22.01-15.29C21.68-15.29 21.41-15.02 21.41-14.70C21.41-14.37 21.68-14.11 22.01-14.11ZM4.75-14.11C5.07-14.11 5.34-14.37 5.34-14.70C5.34-15.02 5.07-15.29 4.75-15.29C4.43-15.29 4.16-15.02 4.16-14.70C4.16-14.37 4.43-14.11 4.75-14.11ZM13.38-2.77C13.54-2.77 13.66-2.89 13.66-3.06L13.66-11.65L13.65-13.24L14.71-12.19L17.17-9.71C17.23-9.66 17.32-9.61 17.39-9.61C17.52-9.61 17.65-9.74 17.65-9.89C17.65-9.96 17.61-10.02 17.57-10.08L13.58-14.07C13.52-14.13 13.45-14.16 13.38-14.16C13.31-14.16 13.23-14.13 13.18-14.07L9.19-10.08C9.13-10.02 9.09-9.96 9.09-9.89C9.09-9.74 9.21-9.61 9.35-9.61C9.42-9.61 9.52-9.66 9.57-9.71L12.04-12.19L13.10-13.24L13.09-11.65L13.09-3.06C13.09-2.89 13.22-2.77 13.38-2.77ZM23.52-11.16C23.84-11.16 24.11-11.43 24.11-11.75C24.11-12.08 23.84-12.34 23.52-12.34C23.19-12.34 22.92-12.08 22.92-11.75C22.92-11.43 23.19-11.16 23.52-11.16ZM3.25-11.16C3.56-11.16 3.83-11.43 3.83-11.75C3.83-12.08 3.56-12.34 3.25-12.34C2.92-12.34 2.65-12.08 2.65-11.75C2.65-11.43 2.92-11.16 3.25-11.16ZM24.07-7.85C24.40-7.85 24.66-8.12 24.66-8.45C24.66-8.78 24.40-9.04 24.07-9.04C23.74-9.04 23.48-8.78 23.48-8.45C23.48-8.12 23.74-7.85 24.07-7.85ZM2.68-7.85C3.01-7.85 3.28-8.12 3.28-8.45C3.28-8.78 3.01-9.04 2.68-9.04C2.37-9.04 2.10-8.78 2.10-8.45C2.10-8.12 2.37-7.85 2.68-7.85ZM23.52-4.55C23.84-4.55 24.11-4.82 24.11-5.14C24.11-5.47 23.84-5.73 23.52-5.73C23.19-5.73 22.92-5.47 22.92-5.14C22.92-4.82 23.19-4.55 23.52-4.55ZM3.25-4.55C3.56-4.55 3.83-4.82 3.83-5.14C3.83-5.47 3.56-5.73 3.25-5.73C2.92-5.73 2.65-5.47 2.65-5.14C2.65-4.82 2.92-4.55 3.25-4.55ZM22.01-1.61C22.34-1.61 22.59-1.88 22.59-2.19C22.59-2.52 22.34-2.79 22.01-2.79C21.68-2.79 21.41-2.52 21.41-2.19C21.41-1.88 21.68-1.61 22.01-1.61ZM4.75-1.61C5.07-1.61 5.34-1.88 5.34-2.19C5.34-2.52 5.07-2.79 4.75-2.79C4.43-2.79 4.16-2.52 4.16-2.19C4.16-1.88 4.43-1.61 4.75-1.61ZM19.66 0.74C19.98 0.74 20.25 0.48 20.25 0.15C20.25-0.18 19.98-0.45 19.66-0.45C19.34-0.45 19.07-0.18 19.07 0.15C19.07 0.48 19.34 0.74 19.66 0.74ZM7.10 0.74C7.42 0.74 7.69 0.48 7.69 0.15C7.69-0.18 7.42-0.45 7.10-0.45C6.77-0.45 6.50-0.18 6.50 0.15C6.50 0.48 6.77 0.74 7.10 0.74ZM16.69 2.25C17.00 2.25 17.27 1.98 17.27 1.66C17.27 1.34 17.00 1.07 16.69 1.07C16.36 1.07 16.09 1.34 16.09 1.66C16.09 1.98 16.36 2.25 16.69 2.25ZM10.08 2.25C10.39 2.25 10.66 1.98 10.66 1.66C10.66 1.34 10.39 1.07 10.08 1.07C9.75 1.07 9.48 1.34 9.48 1.66C9.48 1.98 9.75 2.25 10.08 2.25ZM13.38 2.79C13.70 2.79 13.97 2.52 13.97 2.20C13.97 1.88 13.70 1.61 13.38 1.61C13.05 1.61 12.79 1.88 12.79 2.20C12.79 2.52 13.05 2.79 13.38 2.79Z" fill="currentColor"/>
</svg>