<svg xmlns="http://www.w3.org/2000/svg" viewBox="0 0 24 24" width="24" height="24">
  <title>arrow.trianglehead.rectanglepath</title>
  <path transform="matrix(0.7391367114190848, 0, 0, 0.7391367114190848, -0.2087483759203117, 19.181721881217968)" d="M9.87-20.86L9.87-18.68L6-18.68C4.03-18.68 2.99-17.64 2.99-15.67L2.99-1.20C2.99 0.77 4.03 1.82 6 1.82L27.05 1.82C29.00 1.82 30.05 0.75 30.05-1.20L30.05-15.67C30.05-17.61 29.00-18.68 27.05-18.68L16.96-18.68C16.79-18.68 16.66-18.55 16.66-18.40C16.66-18.23 16.79-18.11 16.96-18.11L27.01-18.11C28.57-18.11 29.47-17.27 29.47-15.64L29.47-1.22C29.47 0.40 28.57 1.24 27.01 1.24L6.02 1.24C4.41 1.24 3.56 0.40 3.56-1.22L3.56-15.64C3.56-17.27 4.41-18.11 6.02-18.11L9.87-18.11L9.87-15.87C9.87-15.50 10.14-15.36 10.49-15.61L13.96-18.02C14.25-18.23 14.25-18.49 13.96-18.70L10.49-21.13C10.14-21.38 9.87-21.22 9.87-20.86Z" fill="currentColor"/>
</svg>