<svg xmlns="http://www.w3.org/2000/svg" viewBox="0 0 24 24" width="24" height="24">
  
  <path transform="matrix(0.7521668870280593, 0, 0, 0.7521668870280593, -0.24768620537681807, 18.35962979286029)" d="M16.88 0.14C16.88 1.98 17.80 2.92 19.64 2.92L26.81 2.92C28.65 2.92 29.58 1.98 29.58 0.14L29.58-17.05C29.58-18.89 28.65-19.83 26.81-19.83L19.64-19.83C17.80-19.83 16.88-18.89 16.88-17.05ZM17.45 0.14L17.45-17.05C17.45-18.59 18.13-19.25 19.66-19.25L26.79-19.25C28.32-19.25 29.00-18.59 29.00-17.05L29.00 0.14C29.00 1.69 28.32 2.34 26.79 2.34L19.66 2.34C18.13 2.34 17.45 1.69 17.45 0.14ZM3.26-0.56C3.41-0.56 3.53-0.69 3.53-0.83L3.53-2.75C3.53-6.16 5.60-8.19 9.12-8.19L11.30-8.19L13.77-8.21L11.30-5.77L9.80-4.27C9.74-4.21 9.73-4.14 9.73-4.04C9.73-3.90 9.83-3.77 10.01-3.77C10.09-3.77 10.17-3.81 10.35-3.98L14.54-8.26C14.60-8.32 14.64-8.38 14.64-8.46C14.64-8.54 14.60-8.60 14.54-8.66L10.21-13.07C10.15-13.13 10.09-13.15 10.01-13.15C9.83-13.15 9.73-13.02 9.73-12.88C9.73-12.80 9.75-12.70 9.80-12.67L11.30-11.16L13.77-8.71L11.30-8.73L9.12-8.73C5.25-8.73 2.99-6.48 2.99-2.74L2.99-0.83C2.99-0.69 3.11-0.56 3.26-0.56Z" fill="currentColor"/>
</svg>