<svg xmlns="http://www.w3.org/2000/svg" viewBox="0 0 24 24" width="24" height="24">
  
  <path transform="matrix(0.7391367114190848, 0, 0, 0.7391367114190848, -0.2087483759203117, 18.253789519272413)" d="M6 1.79L27.05 1.79C29.00 1.79 30.05 0.71 30.05-1.22L30.05-15.70C30.05-17.64 29.00-18.71 27.05-18.71L6-18.71C4.03-18.71 2.99-17.67 2.99-15.70L2.99-1.22C2.99 0.75 4.03 1.79 6 1.79ZM12.89-2.09C12.73-2.09 12.61-2.20 12.61-2.39L12.61-7.44L11.54-6.33L5.89-0.68C5.84-0.62 5.77-0.59 5.65-0.59C5.47-0.59 5.36-0.70 5.36-0.87C5.36-0.97 5.40-1.04 5.46-1.10L11.12-6.76L12.23-7.84L10.62-7.85L7.17-7.85C6.98-7.85 6.87-7.96 6.87-8.13C6.87-8.30 6.98-8.39 7.17-8.39L12.90-8.39C13.05-8.39 13.17-8.27 13.17-8.11L13.17-2.39C13.17-2.20 13.05-2.09 12.89-2.09Z" fill="currentColor"/>
</svg>