<svg xmlns="http://www.w3.org/2000/svg" viewBox="0 0 24 24" width="24" height="24">
  
  <path transform="matrix(0.9190450547478011, 0, 0, 0.9190450547478011, -0.7463651050080773, 19.781367797522886)" d="M3.26-8.19L21.42-8.19L23.88-8.21L21.45-5.79L16.16-0.50C16.11-0.46 16.09-0.38 16.09-0.29C16.09-0.15 16.20-0.02 16.37-0.02C16.45-0.02 16.51-0.05 16.57-0.11L24.67-8.26C24.73-8.32 24.75-8.38 24.75-8.46C24.75-8.54 24.73-8.60 24.67-8.66L16.71-16.70C16.55-16.88 16.45-16.91 16.37-16.91C16.20-16.91 16.09-16.78 16.09-16.64C16.09-16.55 16.10-16.48 16.16-16.42L21.45-11.13L23.88-8.71L21.42-8.73L3.26-8.73C3.12-8.73 2.99-8.61 2.99-8.46C2.99-8.31 3.12-8.19 3.26-8.19Z" fill="currentColor"/>
</svg>