<svg xmlns="http://www.w3.org/2000/svg" viewBox="0 0 24 24" width="24" height="24">
  
  <path transform="matrix(0.9910728221048146, 0, 0, 0.9910728221048146, -0.7418590323054102, 20.08366778538327)" d="M13.14 1.64L13.14-4.68C13.14-9.33 15.29-13.16 19.24-15.49L20.65-13.56C20.86-13.27 21.18-13.30 21.30-13.71L22.70-17.71C22.79-18.05 22.65-18.26 22.28-18.25L18.07-18.18C17.63-18.18 17.50-17.89 17.72-17.60L18.90-15.96C15.67-14.03 13.58-11.11 12.86-7.57C12.13-11.11 10.03-14.03 6.80-15.96L7.99-17.60C8.20-17.89 8.07-18.18 7.65-18.18L3.42-18.25C3.07-18.26 2.91-18.05 3.02-17.71L4.41-13.71C4.55-13.30 4.84-13.27 5.06-13.56L6.47-15.49C10.41-13.16 12.56-9.33 12.56-4.68L12.56 1.64C12.56 1.80 12.69 1.93 12.86 1.93C13.01 1.93 13.14 1.80 13.14 1.64Z" fill="currentColor"/>
</svg>