<svg xmlns="http://www.w3.org/2000/svg" viewBox="0 0 24 24" width="24" height="24">
  <title>arrow.counterclockwise.circle</title>
  <path transform="matrix(0.8806329549363605, 0, 0, 0.8806329549363605, 0.15273477812177494, 19.45098039215686)" d="M13.45 2.89C19.73 2.89 24.81-2.19 24.81-8.46C24.81-14.74 19.73-19.82 13.45-19.82C7.18-19.82 2.10-14.74 2.10-8.46C2.10-2.19 7.18 2.89 13.45 2.89ZM13.45 2.32C7.49 2.32 2.67-2.50 2.67-8.46C2.67-14.43 7.49-19.24 13.45-19.24C19.42-19.24 24.23-14.43 24.23-8.46C24.23-2.50 19.42 2.32 13.45 2.32ZM13.45-3C16.21-3 18.38-5.16 18.38-7.92C18.38-10.68 16.21-12.81 13.45-12.81C13.07-12.81 12.68-12.80 12.20-12.71L14.11-14.63C14.23-14.74 14.26-14.84 14.26-14.95C14.26-15.11 14.13-15.26 13.93-15.26C13.86-15.26 13.77-15.20 13.73-15.16L11.19-12.52C11.11-12.45 11.07-12.34 11.07-12.23C11.07-12.13 11.11-12.02 11.19-11.95L13.73-9.30C13.77-9.27 13.86-9.21 13.93-9.21C14.13-9.21 14.26-9.36 14.26-9.52C14.26-9.63 14.23-9.73 14.11-9.84L11.91-12.05C12.22-12.14 12.80-12.20 13.45-12.20C15.87-12.20 17.77-10.32 17.77-7.92C17.77-5.50 15.87-3.61 13.45-3.61C11.05-3.61 9.16-5.51 9.16-7.92C9.16-8.09 9.04-8.23 8.85-8.23C8.70-8.23 8.55-8.09 8.55-7.92C8.55-5.16 10.69-3 13.45-3Z" fill="currentColor"/>
</svg>