<svg xmlns="http://www.w3.org/2000/svg" viewBox="0 0 24 24" width="24" height="24">
  <title>arrow.backward.circle.fill</title>
  <path transform="matrix(0.8806329549363605, 0, 0, 0.8806329549363605, 0.15273477812177494, 19.45098039215686)" d="M13.45 2.89C19.70 2.89 24.81-2.21 24.81-8.46C24.81-14.71 19.70-19.82 13.45-19.82C7.21-19.82 2.10-14.71 2.10-8.46C2.10-2.21 7.21 2.89 13.45 2.89ZM7.90-8.46C7.90-8.53 7.93-8.60 7.98-8.66L11.99-12.64C12.04-12.70 12.09-12.73 12.16-12.73C12.32-12.73 12.45-12.60 12.45-12.47C12.45-12.40 12.40-12.32 12.34-12.26L9.87-9.79L8.81-8.73L10.41-8.75L19.00-8.75C19.16-8.75 19.29-8.63 19.29-8.46C19.29-8.31 19.16-8.18 19.00-8.18L10.41-8.18L8.80-8.19L9.87-7.13L12.34-4.65C12.40-4.59 12.45-4.51 12.45-4.44C12.45-4.30 12.32-4.18 12.16-4.18C12.09-4.18 12.04-4.21 11.99-4.27L7.98-8.26C7.93-8.32 7.90-8.39 7.90-8.46Z" fill="currentColor"/>
</svg>