<svg xmlns="http://www.w3.org/2000/svg" viewBox="0 0 24 24" width="24" height="24">
  
  <path transform="matrix(0.7391367114190848, 0, 0, 0.7391367114190848, -0.2087483759203117, 18.253789519272413)" d="M6 1.79L27.05 1.79C29.00 1.79 30.05 0.71 30.05-1.22L30.05-15.70C30.05-17.64 29.00-18.71 27.05-18.71L6-18.71C4.03-18.71 2.99-17.67 2.99-15.70L2.99-1.22C2.99 0.75 4.03 1.79 6 1.79ZM6.02 1.22C4.41 1.22 3.56 0.38 3.56-1.25L3.56-15.68C3.56-17.30 4.41-18.14 6.02-18.14L27.01-18.14C28.57-18.14 29.47-17.30 29.47-15.68L29.47-1.25C29.47 0.38 28.57 1.22 27.01 1.22ZM17.91-9.57C18.02-9.57 18.09-9.61 18.15-9.67L22.76-14.27L23.82-15.38L23.81-13.24L23.81-10.78C23.81-10.62 23.95-10.49 24.11-10.49C24.27-10.49 24.40-10.62 24.40-10.78L24.40-16.05C24.40-16.23 24.28-16.35 24.13-16.35L18.83-16.35C18.67-16.35 18.54-16.22 18.54-16.05C18.54-15.89 18.67-15.76 18.83-15.76L21.83-15.76L23.44-15.79L22.34-14.71L17.72-10.09C17.66-10.03 17.63-9.96 17.63-9.86C17.63-9.68 17.73-9.57 17.91-9.57ZM8.93-6.43C8.78-6.43 8.65-6.30 8.65-6.14L8.65-0.87C8.65-0.70 8.75-0.59 8.92-0.59L14.20-0.59C14.37-0.59 14.50-0.71 14.50-0.87C14.50-1.03 14.37-1.16 14.20-1.16L11.20-1.16L9.60-1.14L10.70-2.21L15.32-6.83C15.38-6.89 15.42-6.96 15.42-7.07C15.42-7.24 15.30-7.36 15.13-7.36C15.01-7.36 14.94-7.31 14.88-7.25L10.28-2.65L9.21-1.55L9.22-3.69L9.22-6.14C9.22-6.30 9.09-6.43 8.93-6.43Z" fill="currentColor"/>
</svg>