<svg xmlns="http://www.w3.org/2000/svg" viewBox="0 0 24 24" width="24" height="24">
  <title>arrow.down.circle.fill</title>
  <path transform="matrix(0.8806329549363605, 0, 0, 0.8806329549363605, 0.15273477812177494, 19.45098039215686)" d="M13.45 2.89C19.70 2.89 24.81-2.21 24.81-8.46C24.81-14.71 19.70-19.82 13.45-19.82C7.21-19.82 2.10-14.71 2.10-8.46C2.10-2.21 7.21 2.89 13.45 2.89ZM13.45-2.77C13.38-2.77 13.31-2.80 13.25-2.86L9.26-6.86C9.20-6.91 9.18-6.97 9.18-7.04C9.18-7.18 9.29-7.31 9.43-7.31C9.50-7.31 9.59-7.27 9.64-7.21L12.12-4.73L13.18-3.67L13.17-5.27L13.17-13.86C13.17-14.03 13.30-14.16 13.45-14.16C13.62-14.16 13.75-14.03 13.75-13.86L13.75-5.27L13.72-3.68L14.78-4.73L17.25-7.21C17.31-7.27 17.39-7.31 17.46-7.31C17.59-7.31 17.72-7.18 17.72-7.04C17.72-6.97 17.70-6.91 17.64-6.86L13.65-2.86C13.59-2.80 13.52-2.77 13.45-2.77Z" fill="currentColor"/>
</svg>