<svg xmlns="http://www.w3.org/2000/svg" viewBox="0 0 24 24" width="24" height="24">
  <title>australiandollarsign.square</title>
  <path transform="matrix(0.9752380952380952, 0, 0, 0.9752380952380952, -0.9142857142857141, 20.251428571428573)" d="M6 1.79L20.48 1.79C22.44 1.79 23.50 0.71 23.50-1.22L23.50-15.70C23.50-17.64 22.44-18.71 20.48-18.71L6-18.71C4.03-18.71 2.99-17.67 2.99-15.70L2.99-1.22C2.99 0.75 4.03 1.79 6 1.79ZM6.02 1.22C4.41 1.22 3.56 0.38 3.56-1.25L3.56-15.68C3.56-17.30 4.41-18.14 6.02-18.14L20.45-18.14C22.02-18.14 22.92-17.30 22.92-15.68L22.92-1.25C22.92 0.38 22.02 1.22 20.45 1.22ZM16.75-2.27C16.86-2.27 16.97-2.38 16.97-2.50L16.97-3.64C18.43-3.73 19.29-4.71 19.29-5.98C19.29-7.39 18.35-8.05 17.30-8.58L16.97-8.73L16.97-12.67C18.04-12.56 18.49-11.79 18.56-10.66C18.57-10.49 18.69-10.38 18.86-10.38C19.03-10.38 19.15-10.50 19.15-10.69C19.15-10.75 19.15-10.82 19.14-10.96C19.00-12.33 18.13-13.10 16.97-13.20L16.97-14.26C16.97-14.38 16.86-14.47 16.75-14.47C16.63-14.47 16.52-14.38 16.52-14.26L16.52-13.20C15.30-13.13 14.31-12.35 14.31-10.99C14.31-9.73 15.09-9 16.29-8.43L16.52-8.31L16.52-4.18C15.33-4.29 14.85-5.14 14.73-6.32C14.72-6.53 14.58-6.60 14.46-6.60C14.30-6.60 14.14-6.50 14.14-6.30C14.14-6.25 14.14-6.18 14.16-6.04C14.30-4.73 15.09-3.75 16.52-3.64L16.52-2.50C16.52-2.38 16.63-2.27 16.75-2.27ZM7.11-3.38C7.29-3.38 7.37-3.46 7.42-3.62L8.17-6.49L11.50-6.49L12.27-3.62C12.32-3.46 12.40-3.38 12.57-3.38C12.74-3.38 12.87-3.47 12.87-3.67C12.87-3.74 12.86-3.80 12.84-3.86L10.30-13.04C10.23-13.30 10.11-13.46 9.86-13.46C9.57-13.46 9.46-13.30 9.39-13.03L6.84-3.86C6.83-3.80 6.82-3.74 6.82-3.67C6.82-3.47 6.95-3.38 7.11-3.38ZM14.89-11.03C14.89-12.06 15.62-12.60 16.52-12.67L16.52-8.95C15.57-9.43 14.89-10.03 14.89-11.03ZM8.31-7.01L9.80-12.59L9.87-12.59L11.37-7.01ZM16.99-8.07C17.98-7.59 18.70-7.02 18.70-5.93C18.70-4.85 17.96-4.24 16.97-4.17L16.97-8.09Z" fill="currentColor"/>
</svg>