<svg xmlns="http://www.w3.org/2000/svg" viewBox="0 0 24 24" width="24" height="24">
  <title>backward.frame.fill</title>
  <path transform="matrix(0.879271852996737, 0, 0, 0.879271852996737, 1.2065945388974755, 19.439464193714578)" d="M22.61-0.15C23.36-0.15 23.65-0.46 23.65-1.20L23.65-15.73C23.65-16.48 23.36-16.77 22.61-16.77L20.16-16.77C19.42-16.77 19.13-16.48 19.13-15.73L19.13-1.20C19.13-0.46 19.42-0.15 20.16-0.15ZM15.20-1.14L15.20-15.80C15.20-16.49 14.75-16.77 14.30-16.77C14.10-16.77 13.91-16.71 13.75-16.62L1.45-9.21C1.10-9.01 0.90-8.80 0.90-8.46C0.90-8.12 1.10-7.92 1.45-7.71L13.75-0.30C13.91-0.22 14.10-0.15 14.30-0.15C14.75-0.15 15.20-0.43 15.20-1.14Z" fill="currentColor"/>
</svg>