<svg xmlns="http://www.w3.org/2000/svg" viewBox="0 0 24 24" width="24" height="24">
  
  <path transform="matrix(1.0587262200165426, 0, 0, 1.0587262200165426, 1.0570719602977667, 20.957816377171213)" d="M19.49-0.15C19.65-0.15 19.78-0.28 19.78-0.45L19.78-16.48C19.78-16.64 19.65-16.77 19.49-16.77C19.34-16.77 19.21-16.64 19.21-16.48L19.21-0.45C19.21-0.28 19.34-0.15 19.49-0.15ZM15.19-1.14L15.19-15.80C15.19-16.49 14.74-16.77 14.29-16.77C14.10-16.77 13.90-16.71 13.75-16.62L1.45-9.21C1.10-9.01 0.89-8.80 0.89-8.46C0.89-8.12 1.10-7.92 1.45-7.71L13.75-0.30C13.90-0.22 14.10-0.15 14.29-0.15C14.74-0.15 15.19-0.43 15.19-1.14ZM14.61-1.09C14.61-0.84 14.48-0.73 14.32-0.73C14.24-0.73 14.14-0.74 14.06-0.80L1.61-8.24C1.48-8.31 1.44-8.39 1.44-8.46C1.44-8.54 1.48-8.61 1.61-8.68L14.06-16.13C14.14-16.18 14.24-16.20 14.32-16.20C14.48-16.20 14.61-16.08 14.61-15.84Z" fill="currentColor"/>
</svg>