<svg xmlns="http://www.w3.org/2000/svg" viewBox="0 0 24 24" width="24" height="24">
  <title>barcode</title>
  <path transform="matrix(0.9146123615576992, 0, 0, 0.9146123615576992, -0.7331189710610935, 19.765273311897104)" d="M2.99 0.16L4.82 0.16L4.82-17.14L2.99-17.14ZM6.61 0.16L7.65 0.16L7.65-17.14L6.61-17.14ZM9.40 0.16L12.41 0.16L12.41-17.14L9.40-17.14ZM13.50 0.16L15.41 0.16L15.41-17.14L13.50-17.14ZM16.55 0.16L19.52 0.16L19.52-17.14L16.55-17.14ZM20.43 0.16L22.76 0.16L22.76-17.14L20.43-17.14ZM23.34 0.16L24.86 0.16L24.86-17.14L23.34-17.14Z" fill="currentColor"/>
</svg>