<svg xmlns="http://www.w3.org/2000/svg" viewBox="0 0 24 24" width="24" height="24">
  
  <path transform="matrix(0.6631694838417201, 0, 0, 0.6631694838417201, 0.01632018651641709, 17.617499654493358)" d="M12-11.02L17.36-7.31C17.79-7.02 18.41-7.05 18.91-7.41L24.14-11.02C24.71-11.43 24.71-11.95 24.14-12.35L18.91-15.97C18.41-16.32 17.79-16.36 17.36-16.07L12-12.35C11.43-11.95 11.43-11.43 12-11.02ZM3.42-4.58L8.77-0.88C9.19-0.59 9.83-0.61 10.34-0.97L15.54-4.58C16.14-4.99 16.14-5.52 15.54-5.92L10.34-9.54C9.83-9.88 9.19-9.93 8.77-9.63L3.42-5.92C2.85-5.52 2.85-4.99 3.42-4.58ZM20.60-4.58L25.93-0.88C26.37-0.59 26.99-0.61 27.50-0.97L32.72-4.58C33.29-4.99 33.29-5.52 32.72-5.92L27.50-9.54C26.99-9.88 26.37-9.93 25.93-9.63L20.60-5.92C20.00-5.52 20.00-4.99 20.60-4.58Z" fill="currentColor"/>
</svg>