<svg xmlns="http://www.w3.org/2000/svg" viewBox="0 0 24 24" width="24" height="24">
  
  <path transform="matrix(0.9092523530456402, 0, 0, 0.9092523530456402, -0.717101758124667, 19.693127330847098)" d="M9.62 2.51L18.20 2.51C22.65 2.51 24.98 0.23 24.98-4.13L24.98-12.80C24.98-17.16 22.65-19.43 18.20-19.43L9.62-19.43C5.26-19.43 2.99-17.16 2.99-12.80L2.99-4.13C2.99 0.23 5.26 2.51 9.62 2.51ZM13.98-2.92C10.92-2.92 8.45-5.38 8.45-8.46C8.45-10.51 9.56-12.34 11.32-13.32L11.32-8.46C11.32-6.98 12.49-5.84 13.98-5.84C15.45-5.84 16.64-7.01 16.64-8.46C16.64-9.91 15.42-11.16 13.98-11.16C13.46-11.16 12.95-10.97 12.52-10.66L12.52-13.80C12.95-13.93 13.44-13.98 13.98-13.98C16.99-13.98 19.51-11.51 19.51-8.46C19.51-5.44 17.05-2.92 13.98-2.92ZM13.98-7.00C13.20-7.00 12.54-7.65 12.54-8.46C12.54-9.23 13.22-9.90 13.98-9.90C14.74-9.90 15.43-9.21 15.43-8.46C15.43-7.69 14.77-7.00 13.98-7.00Z" fill="currentColor"/>
</svg>