<svg xmlns="http://www.w3.org/2000/svg" viewBox="0 0 24 24" width="24" height="24">
  
  <path transform="matrix(0.6612424125016143, 0, 0, 0.6612424125016143, 0.6129407206509105, 17.594730724525377)" d="M2.13-9.16L9.98-9.16C10.10-9.55 10.45-9.82 10.90-9.82L23.54-9.82C24-9.82 24.34-9.55 24.46-9.16L32.31-9.16C31.91-14.25 28.25-16.92 21.64-16.92L12.80-16.92C6.19-16.92 2.53-14.25 2.13-9.16ZM21.64 0C28.36 0 32.34-3.19 32.34-8.59L24.46-8.59C24.34-8.20 24-7.92 23.54-7.92L10.90-7.92C10.45-7.92 10.10-8.20 9.98-8.59L2.10-8.59C2.10-3.19 6.08 0 12.80 0ZM17.21-4.14C16.62-4.11 16.13-4.61 16.13-5.20C16.13-5.80 16.62-6.30 17.21-6.30C17.81-6.30 18.30-5.80 18.30-5.20C18.30-4.64 17.81-4.14 17.21-4.14Z" fill="currentColor"/>
</svg>