<svg xmlns="http://www.w3.org/2000/svg" viewBox="0 0 24 24" width="24" height="24">
  
  <path transform="matrix(0.96640241600604, 0, 0, 0.96640241600604, 2.0396375990939974, 20.176670441676105)" d="M12.53-18.81C7.29-18.81 2.99-12.80 2.99-5.43C2.99-1.96 3.91 1.89 4.92 1.89C5.96 1.89 6.70 0.55 6.73-0.64C5.06-1.10 3.86-2.61 3.86-4.42C3.86-5.45 4.23-6.36 4.91-7.11C5.24-12.32 8.55-16.90 12.41-16.90C14.68-16.90 15.73-15.21 15.73-12.06L6.66-7.32C5.34-6.64 4.75-5.57 4.75-4.42C4.75-2.78 6.08-1.41 7.77-1.41C8.59-1.41 9.20-1.63 10.38-2.27L14.93-4.76C16.92-5.85 17.63-7.16 17.63-9.97L17.63-12.39C17.63-16.34 15.90-18.81 12.53-18.81ZM7.77-2.38C6.63-2.38 5.72-3.29 5.72-4.43C5.72-5.57 6.63-6.49 7.77-6.49C8.88-6.49 9.81-5.57 9.81-4.43C9.81-3.30 8.88-2.38 7.77-2.38ZM7.77-2.98C8.57-2.98 9.22-3.63 9.22-4.43C9.22-5.24 8.57-5.89 7.77-5.89C6.96-5.89 6.32-5.24 6.32-4.43C6.32-3.63 6.96-2.98 7.77-2.98Z" fill="currentColor"/>
</svg>