<svg xmlns="http://www.w3.org/2000/svg" viewBox="0 0 24 24" width="24" height="24">
  <title>beats.studiobuds.plus.chargingcase.fill</title>
  <path transform="matrix(0.7243916242218449, 0, 0, 0.7243916242218449, 0.4804753820033958, 18.120543293718164)" d="M3.26-13.22L28.55-13.22C27.67-14.85 26.30-16.16 24.52-17.02C22.84-17.84 20.71-18.20 17.55-18.20L14.27-18.20C11.10-18.20 8.96-17.84 7.29-17.02C5.52-16.16 4.14-14.85 3.26-13.22ZM14.27 1.30L17.55 1.30C20.71 1.30 22.84 0.94 24.52 0.12C27.80-1.45 29.71-4.59 29.71-8.45C29.71-9.97 29.41-11.38 28.84-12.63L2.96-12.63C2.40-11.38 2.10-9.97 2.10-8.45C2.10-4.59 4.01-1.45 7.29 0.12C8.96 0.94 11.10 1.30 14.27 1.30ZM15.91-4.46C14.64-4.46 13.65-5.45 13.65-6.67L13.65-9.89L14.68-10.35L14.68-8.55C15.05-8.84 15.47-8.95 15.91-8.95C17.13-8.95 18.19-7.91 18.19-6.67C18.19-5.46 17.16-4.46 15.91-4.46ZM15.91-5.46C16.58-5.46 17.13-6.01 17.13-6.67C17.13-7.32 16.58-7.90 15.91-7.90C15.26-7.90 14.68-7.34 14.68-6.67C14.68-6.01 15.23-5.46 15.91-5.46Z" fill="currentColor"/>
</svg>