<svg xmlns="http://www.w3.org/2000/svg" viewBox="0 0 24 24" width="24" height="24">
  <title>bell.slash.circle.fill</title>
  <path transform="matrix(0.8806329549363605, 0, 0, 0.8806329549363605, 0.15273477812177494, 19.440660474716204)" d="M13.45 2.91C19.70 2.91 24.81-2.20 24.81-8.45C24.81-14.70 19.70-19.80 13.45-19.80C7.21-19.80 2.10-14.70 2.10-8.45C2.10-2.20 7.21 2.91 13.45 2.91ZM10.41-12.77C10.78-13.20 11.27-13.50 11.91-13.66C12.02-14.58 12.64-15.18 13.45-15.18C14.25-15.18 14.88-14.58 15-13.66C16.52-13.29 17.19-12.01 17.41-10.43C17.65-8.84 17.55-7.13 18.30-6.30C18.83-5.72 19.39-5.18 19.39-4.52C19.39-4.31 19.23-4.18 18.98-4.18ZM19.50-1.97L6.97-14.51C6.86-14.63 6.84-14.80 6.97-14.94C7.09-15.06 7.28-15.06 7.39-14.94L19.92-2.40C20.04-2.29 20.04-2.11 19.92-1.97C19.80-1.84 19.62-1.85 19.50-1.97ZM16.46-4.18L7.79-4.18C7.62-4.18 7.50-4.31 7.50-4.51C7.50-5.18 8.09-5.72 8.59-6.30C9.33-7.15 9.23-8.84 9.48-10.43C9.52-10.65 9.55-10.85 9.60-11.06ZM13.45-1.85C12.48-1.85 11.86-2.44 11.71-3.45L15.20-3.45C15.05-2.44 14.41-1.85 13.45-1.85Z" fill="currentColor"/>
</svg>