<svg xmlns="http://www.w3.org/2000/svg" viewBox="0 0 24 24" width="24" height="24">
  <title>bell.and.waves.left.and.right</title>
  <path transform="matrix(0.5162331115144182, 0, 0, 0.5162331115144182, 0.9171203871748337, 16.367816091954023)" d="M10.90-1.05C10.90-0.70 11.13-0.47 11.46-0.47L18.20-0.47C18.22 1.58 19.57 3.05 21.47 3.05C23.38 3.05 24.71 1.58 24.74-0.47L31.48-0.47C31.80-0.47 32.04-0.70 32.04-1.05C32.04-2.25 31.00-3.22 30.08-4.25C28.77-5.73 28.90-8.72 28.49-11.55C28.08-14.36 26.91-16.63 24.21-17.27C24-18.93 22.90-19.97 21.47-19.97C20.04-19.97 18.94-18.93 18.73-17.27C16.03-16.63 14.86-14.36 14.45-11.55C14.04-8.72 14.17-5.73 12.86-4.25C11.95-3.22 10.90-2.25 10.90-1.05ZM11.54-1.05L11.54-1.17C11.54-1.90 12.50-3.01 13.29-3.82C14.79-5.39 14.58-8.64 15.02-11.43C15.50-14.24 16.49-16.04 18.59-16.61C19.02-16.72 19.28-16.88 19.34-17.26C19.52-18.43 20.24-19.39 21.47-19.39C22.70-19.39 23.41-18.43 23.60-17.26C23.66-16.88 23.92-16.72 24.35-16.61C26.45-16.04 27.45-14.24 27.91-11.43C28.37-8.64 28.15-5.39 29.65-3.82C30.43-3.01 31.39-1.90 31.39-1.17L31.39-1.05ZM5.61-1.11C5.71-1.23 5.66-1.42 5.55-1.54C3.75-3.33 2.67-5.74 2.67-8.46C2.67-11.19 3.75-13.59 5.55-15.40C5.66-15.50 5.71-15.69 5.61-15.81C5.50-15.94 5.30-15.93 5.17-15.80C3.27-13.90 2.10-11.33 2.10-8.46C2.10-5.59 3.27-3.02 5.17-1.13C5.30-1.00 5.50-0.98 5.61-1.11ZM37.34-1.11C37.44-0.98 37.65-1.00 37.77-1.13C39.68-3.02 40.84-5.59 40.84-8.46C40.84-11.33 39.68-13.90 37.77-15.80C37.65-15.93 37.44-15.94 37.34-15.81C37.23-15.69 37.28-15.50 37.38-15.40C39.19-13.59 40.27-11.19 40.27-8.46C40.27-5.74 39.19-3.33 37.38-1.54C37.28-1.42 37.23-1.23 37.34-1.11ZM8.71-4.30C8.80-4.42 8.78-4.61 8.65-4.71C7.62-5.61 7.14-7.00 7.14-8.46C7.14-9.94 7.62-11.31 8.65-12.21C8.78-12.33 8.80-12.52 8.71-12.62C8.59-12.75 8.39-12.74 8.26-12.61C7.18-11.54 6.56-10.08 6.56-8.46C6.56-6.84 7.18-5.39 8.26-4.31C8.39-4.18 8.59-4.17 8.71-4.30ZM34.24-4.30C34.35-4.17 34.56-4.18 34.69-4.31C35.77-5.39 36.38-6.84 36.38-8.46C36.38-10.08 35.77-11.54 34.69-12.61C34.56-12.74 34.35-12.75 34.24-12.62C34.14-12.52 34.16-12.33 34.30-12.21C35.32-11.31 35.80-9.94 35.80-8.46C35.80-7.00 35.32-5.61 34.30-4.71C34.16-4.61 34.14-4.42 34.24-4.30ZM18.77-0.47L24.16-0.47C24.07 1.32 22.97 2.50 21.47 2.50C19.97 2.50 18.87 1.32 18.77-0.47Z" fill="currentColor"/>
</svg>