<svg xmlns="http://www.w3.org/2000/svg" viewBox="0 0 24 24" width="24" height="24">
  
  <path transform="matrix(0.8806329549363605, 0, 0, 0.8806329549363605, 0.15273477812177494, 19.45098039215686)" d="M13.45 2.89C19.73 2.89 24.81-2.19 24.81-8.46C24.81-14.74 19.73-19.82 13.45-19.82C7.18-19.82 2.10-14.74 2.10-8.46C2.10-2.19 7.18 2.89 13.45 2.89ZM13.45 2.32C7.49 2.32 2.67-2.50 2.67-8.46C2.67-14.43 7.49-19.24 13.45-19.24C19.42-19.24 24.23-14.43 24.23-8.46C24.23-2.50 19.42 2.32 13.45 2.32ZM12.36-13.49C13.49-12.90 14.46-12.18 15.19-11.46C15.70-12.25 16.16-12.63 16.63-12.80C15.83-14.44 14.78-15.56 13.29-16.38C13.04-16.51 12.84-16.43 12.75-16.21C12.48-15.41 12.34-14.46 12.36-13.49ZM17.44-12.45C16.70-12.45 16.08-12.20 15.29-10.64C13.86-12.32 10.86-14.17 7.82-14.39C7.54-14.40 7.41-14.27 7.38-14.03C7.15-10.88 9.69-8.46 13.13-8.19C12.32-6.27 10.84-4.08 9.19-2.53C9.05-2.43 9.04-2.25 9.16-2.07C9.82-1.02 11.93-0.42 13.38-0.91C13.55-0.97 13.65-1.03 13.65-1.28L13.65-3.82C15.59-3.81 18.27-4.80 17.64-8.10L17.48-8.86C18.36-9.04 19.01-9.41 19.35-9.83L20.87-9.62C21.12-9.59 21.20-9.95 20.94-10.05L19.63-10.56C19.58-11.44 18.66-12.45 17.44-12.45ZM17.71-10.91C17.71-11.07 17.85-11.20 18.04-11.20C18.20-11.20 18.36-11.07 18.36-10.91C18.36-10.71 18.20-10.58 18.04-10.58C17.85-10.58 17.71-10.71 17.71-10.91Z" fill="currentColor"/>
</svg>