<svg xmlns="http://www.w3.org/2000/svg" viewBox="0 0 24 24" width="24" height="24">
  <title>bitcoinsign.gauge.chart.leftthird.topthird.rightthird</title>
  <path transform="matrix(0.74788197487584, 0, 0, 0.74788197487584, 0.4312007011393513, 18.36878638007747)" d="M15.47-15.15C17.57-15.15 19.48-14.43 21-13.21C21.25-13.01 21.56-13.04 21.79-13.27L24.11-15.57C24.38-15.84 24.38-16.23 24.09-16.48C21.76-18.45 18.74-19.64 15.47-19.64C12.20-19.64 9.18-18.45 6.84-16.48C6.56-16.23 6.56-15.84 6.83-15.57L9.16-13.27C9.39-13.04 9.71-13.02 9.97-13.23C11.47-14.43 13.39-15.15 15.47-15.15ZM28.84-6.27C28.84-9.55 27.67-12.56 25.68-14.89C25.44-15.18 25.03-15.15 24.77-14.91L22.46-12.60C22.24-12.36 22.23-12.04 22.42-11.79C23.64-10.28 24.35-8.36 24.35-6.27C24.35-4.17 23.63-2.24 22.43-0.74C22.22-0.48 22.23-0.16 22.45 0.07L24.76 2.41C25.02 2.68 25.42 2.67 25.66 2.39C27.64 0.06 28.84-2.98 28.84-6.27ZM2.10-6.27C2.10-2.98 3.29 0.06 5.29 2.39C5.52 2.67 5.93 2.68 6.18 2.41L8.48 0.07C8.72-0.16 8.73-0.48 8.52-0.74C7.32-2.24 6.59-4.17 6.59-6.27C6.59-8.36 7.31-10.28 8.52-11.79C8.72-12.04 8.70-12.36 8.47-12.60L6.16-14.91C5.91-15.15 5.51-15.18 5.26-14.89C3.28-12.56 2.10-9.55 2.10-6.27ZM13.08-1.31L14.12-1.31L14.12 0C14.12 0.12 14.23 0.22 14.34 0.22C14.46 0.22 14.57 0.12 14.57 0L14.57-1.31L15.75-1.31L15.75 0C15.75 0.12 15.84 0.22 15.96 0.22C16.08 0.22 16.18 0.12 16.18 0L16.18-1.31C17.93-1.38 19.24-2.24 19.24-3.88C19.24-5.30 18.14-6.14 16.82-6.27L16.82-6.38C17.93-6.54 18.71-7.44 18.71-8.57C18.71-9.96 17.64-10.78 16.18-10.89L16.18-12.08C16.18-12.20 16.08-12.30 15.96-12.30C15.84-12.30 15.75-12.20 15.75-12.08L15.75-10.90L14.57-10.90L14.57-12.08C14.57-12.20 14.46-12.30 14.34-12.30C14.23-12.30 14.12-12.20 14.12-12.08L14.12-10.90L13.08-10.90C12.84-10.90 12.67-10.72 12.67-10.48L12.67-1.73C12.67-1.49 12.84-1.31 13.08-1.31ZM13.29-6.53L13.29-10.36L15.75-10.36C17.02-10.36 18.08-9.79 18.08-8.51C18.08-7.15 16.96-6.53 15.56-6.53ZM13.29-1.86L13.29-5.98L15.71-5.98C17.24-5.98 18.60-5.40 18.60-3.90C18.60-2.44 17.32-1.86 15.84-1.86Z" fill="currentColor"/>
</svg>