<svg xmlns="http://www.w3.org/2000/svg" viewBox="0 0 24 24" width="24" height="24">
  <title>bolt.horizontal</title>
  <path transform="matrix(0.6709948240249854, 0, 0, 0.6709948240249854, 0.3951351282301434, 17.331263562761016)" d="M2.55-3.46C2.12-2.89 2.63-2.36 3.22-2.71L11.57-7.62L22.75-1.61C22.91-1.52 23.05-1.48 23.18-1.48C23.37-1.48 23.53-1.56 23.68-1.77L32.02-12.38C32.47-12.94 32.00-13.55 31.36-13.17L23.09-8.27L11.87-14.32C11.74-14.39 11.61-14.41 11.50-14.41C11.31-14.41 11.13-14.33 10.99-14.14ZM3.42-3.49C3.34-3.45 3.32-3.52 3.36-3.57L11.44-13.73C11.47-13.79 11.52-13.82 11.59-13.77L22.72-7.80C23.03-7.64 23.19-7.68 23.47-7.84L31.22-12.45C31.32-12.50 31.37-12.41 31.32-12.35L23.23-2.16C23.18-2.10 23.14-2.09 23.06-2.12L11.94-8.09C11.64-8.25 11.46-8.21 11.18-8.05Z" fill="currentColor"/>
</svg>