<svg xmlns="http://www.w3.org/2000/svg" viewBox="0 0 24 24" width="24" height="24">
  
  <path transform="matrix(0.7937984496124031, 0, 0, 0.7937984496124031, -0.3720930232558137, 18.72093023255814)" d="M3.27-9.55C3.38-9.55 3.41-9.57 3.49-9.63L15.04-19.32C15.21-19.48 15.39-19.55 15.59-19.55C15.79-19.55 15.96-19.48 16.15-19.32L27.69-9.63C27.76-9.57 27.80-9.55 27.90-9.55C28.07-9.55 28.18-9.66 28.18-9.81C28.18-9.93 28.14-10.00 28.02-10.09L25.42-12.28L25.42-16.56C25.42-16.80 25.24-16.97 25.01-16.97L24.21-16.97C23.98-16.97 23.79-16.80 23.79-16.56L23.79-13.64L16.55-19.71C16.24-19.98 15.91-20.12 15.59-20.12C15.26-20.12 14.93-19.98 14.63-19.71L3.15-10.09C3.04-10.00 2.99-9.93 2.99-9.81C2.99-9.66 3.11-9.55 3.27-9.55ZM5.75 1.23C5.75 2.46 6.48 3.19 7.71 3.19L23.46 3.19C24.69 3.19 25.42 2.46 25.42 1.23L25.42-10.31L16.34-17.95C15.80-18.40 15.33-18.39 14.81-17.95L5.75-10.35ZM11.23-5.31C11.23-5.38 11.26-5.46 11.34-5.59L17.00-12.70C17.27-13.03 17.68-12.81 17.52-12.41L15.61-7.25L19.13-7.25C19.28-7.25 19.38-7.16 19.38-7.02C19.38-6.95 19.35-6.87 19.27-6.74L13.61 0.38C13.34 0.70 12.93 0.48 13.09 0.08L15-5.09L11.48-5.09C11.33-5.09 11.23-5.17 11.23-5.31Z" fill="currentColor"/>
</svg>