<svg xmlns="http://www.w3.org/2000/svg" viewBox="0 0 24 24" width="24" height="24">
  
  <path transform="matrix(0.7391367114190848, 0, 0, 0.7391367114190848, -0.2087483759203117, 18.245127760935468)" d="M6 1.05L27.05 1.05C29.00 1.05 30.05-0.02 30.05-1.96L30.05-11.95C30.05-13.89 29.00-14.96 27.05-14.96L24.79-14.96L24.79-16.88C24.79-17.55 24.41-17.95 23.66-17.95L20.96-17.95C20.21-17.95 19.85-17.55 19.85-16.88L19.85-14.96L13.20-14.96L13.20-16.88C13.20-17.55 12.82-17.95 12.07-17.95L9.38-17.95C8.63-17.95 8.26-17.55 8.26-16.88L8.26-14.96L6-14.96C4.03-14.96 2.99-13.91 2.99-11.95L2.99-1.96C2.99 0.01 4.03 1.05 6 1.05ZM12.86-6.05C12.86-6.13 12.89-6.20 12.96-6.30L18.04-12.68C18.27-12.97 18.64-12.79 18.52-12.43L16.79-7.80L19.95-7.80C20.09-7.80 20.18-7.71 20.18-7.59C20.18-7.52 20.13-7.45 20.06-7.35L14.99-0.96C14.75-0.67 14.38-0.87 14.53-1.22L16.25-5.86L13.09-5.86C12.96-5.86 12.86-5.93 12.86-6.05Z" fill="currentColor"/>
</svg>