<svg xmlns="http://www.w3.org/2000/svg" viewBox="0 0 24 24" width="24" height="24">
  
  <path transform="matrix(0.8082431551064474, 0, 0, 0.8082431551064474, -0.22255941583673255, 18.77420266828342)" d="M18.06 3.90L20.14 3.90C21.22 3.90 21.67 3.36 21.67 2.38L21.67-12.81L23.02 2.60C23.11 3.57 23.58 4.05 24.67 3.98L25.85 3.89C26.93 3.82 27.33 3.22 27.25 2.23L25.70-15.55C25.61-16.55 25.11-17.04 24.04-16.95L22.85-16.84C22.27-16.79 21.89-16.61 21.67-16.29L21.67-19.23C21.67-20.21 21.22-20.75 20.14-20.75L18.06-20.75C16.98-20.75 16.54-20.21 16.54-19.23L16.54 2.38C16.54 3.36 16.98 3.90 18.06 3.90ZM4.51 3.90L6.15 3.90C7.23 3.90 7.68 3.36 7.68 2.38L7.68-16.70C7.68-17.68 7.23-18.22 6.15-18.22L4.51-18.22C3.43-18.22 2.99-17.68 2.99-16.70L2.99 2.38C2.99 3.36 3.43 3.90 4.51 3.90ZM10.09 3.90L14.12 3.90C15.20 3.90 15.64 3.36 15.64 2.38L15.64-12.81C15.64-13.79 15.20-14.33 14.12-14.33L10.09-14.33C9.01-14.33 8.57-13.79 8.57-12.81L8.57 2.38C8.57 3.36 9.01 3.90 10.09 3.90ZM10.55-11.37C10.37-11.37 10.24-11.50 10.24-11.66C10.24-11.82 10.37-11.95 10.55-11.95L13.66-11.95C13.84-11.95 13.97-11.82 13.97-11.66C13.97-11.50 13.84-11.37 13.66-11.37ZM10.55 1.51C10.37 1.51 10.24 1.38 10.24 1.23C10.24 1.07 10.37 0.94 10.55 0.94L13.66 0.94C13.84 0.94 13.97 1.07 13.97 1.23C13.97 1.38 13.84 1.51 13.66 1.51Z" fill="currentColor"/>
</svg>