<svg xmlns="http://www.w3.org/2000/svg" viewBox="0 0 24 24" width="24" height="24">
  <title>book.circle</title>
  <path transform="matrix(0.8806329549363605, 0, 0, 0.8806329549363605, 0.15273477812177494, 19.45098039215686)" d="M13.45 2.89C19.73 2.89 24.81-2.19 24.81-8.46C24.81-14.74 19.73-19.82 13.45-19.82C7.18-19.82 2.10-14.74 2.10-8.46C2.10-2.19 7.18 2.89 13.45 2.89ZM13.45 2.32C7.49 2.32 2.67-2.50 2.67-8.46C2.67-14.43 7.49-19.24 13.45-19.24C19.42-19.24 24.23-14.43 24.23-8.46C24.23-2.50 19.42 2.32 13.45 2.32ZM10.42-13.55C9.13-13.55 7.72-13.03 7.11-12.07C7.07-11.96 7.03-11.94 7.03-11.81L7.03-3.63C7.03-3.53 7.11-3.43 7.23-3.43C7.31-3.43 7.36-3.47 7.42-3.53C8.09-4.20 9.11-4.56 10.36-4.56C11.27-4.56 12.13-4.23 12.82-3.62C12.89-3.57 12.94-3.54 13.01-3.54C13.10-3.54 13.16-3.62 13.16-3.71L13.16-12.12C13.16-12.23 13.15-12.32 13.08-12.39C12.35-13.17 11.45-13.55 10.42-13.55ZM16.49-13.55C15.47-13.55 14.58-13.17 13.83-12.39C13.77-12.32 13.76-12.23 13.76-12.12L13.76-3.71C13.76-3.62 13.82-3.54 13.90-3.54C13.99-3.54 14.04-3.57 14.11-3.62C14.80-4.23 15.63-4.56 16.56-4.56C17.84-4.56 18.86-4.20 19.49-3.53C19.55-3.47 19.59-3.43 19.69-3.43C19.80-3.43 19.88-3.53 19.88-3.63L19.88-11.81C19.88-11.94 19.84-11.96 19.80-12.07C19.18-13.03 17.78-13.55 16.49-13.55Z" fill="currentColor"/>
</svg>