<svg xmlns="http://www.w3.org/2000/svg" viewBox="0 0 24 24" width="24" height="24">
  <title>brazilianrealsign</title>
  <path transform="matrix(0.6892837910608508, 0, 0, 0.6892837910608508, -0.059773828756057856, 17.831987075928915)" d="M25.46 4.44C25.63 4.44 25.73 4.32 25.73 4.16L25.73 1.44C29.07 1.36 32.00-0.52 32.00-3.68C32.00-6.74 29.39-8.17 26.68-8.89L25.73-9.14L25.73-18.09C28.49-17.99 30.79-16.48 30.96-13.75C30.98-13.55 31.08-13.42 31.28-13.42C31.52-13.42 31.61-13.56 31.61-13.71C31.61-13.85 31.59-14.00 31.48-14.58C30.91-17.19 28.51-18.59 25.73-18.68L25.73-21.07C25.73-21.25 25.63-21.36 25.46-21.36C25.30-21.36 25.20-21.25 25.20-21.07L25.20-18.68C22.27-18.60 19.36-16.86 19.36-13.86C19.36-11.02 21.82-9.60 24.57-8.84L25.20-8.67L25.20 0.83C22.17 0.73 19.73-0.94 19.51-4.04C19.50-4.23 19.39-4.35 19.20-4.35C19.00-4.35 18.88-4.22 18.88-4.02C18.88-3.82 18.90-3.71 18.93-3.53C19.41-0.35 22.09 1.34 25.20 1.44L25.20 4.16C25.20 4.32 25.30 4.44 25.46 4.44ZM3.32 1.93C3.50 1.93 3.63 1.79 3.63 1.59L3.63-7.42L8.87-7.42C9.16-7.42 9.53-7.46 9.71-7.49L14.82 1.76C14.89 1.88 14.96 1.93 15.13 1.93C15.29 1.93 15.43 1.83 15.43 1.65C15.43 1.57 15.40 1.46 15.35 1.39L10.38-7.59C13.66-8.26 15.09-10.39 15.09-13.21C15.09-16.85 12.60-18.98 8.77-18.98L3.30-18.98C3.12-18.98 2.99-18.84 2.99-18.64L2.99 1.59C2.99 1.79 3.12 1.93 3.32 1.93ZM3.63-8.00L3.63-18.39L8.73-18.39C12.15-18.39 14.43-16.63 14.43-13.21C14.43-9.83 12.13-8.00 8.74-8.00ZM24.76-9.41C22.23-10.22 19.99-11.21 19.99-13.88C19.99-16.50 22.46-18.01 25.20-18.09L25.20-9.29ZM26.51-8.31C29.10-7.58 31.36-6.39 31.36-3.67C31.36-0.76 28.71 0.76 25.73 0.84L25.73-8.52Z" fill="currentColor"/>
</svg>