<svg xmlns="http://www.w3.org/2000/svg" viewBox="0 0 24 24" width="24" height="24">
  
  <path transform="matrix(0.8111533586818758, 0, 0, 0.8111533586818758, -0.42395437262357394, 18.297528517110266)" d="M15.32 3.53C15.54 3.53 15.69 3.41 15.86 3.19L18.18-0.34L23.45-0.34C26.00-0.34 27.64-2.02 27.64-4.55L27.64-14.86C27.64-17.38 26.00-19.05 23.45-19.05L7.18-19.05C4.63-19.05 2.99-17.41 2.99-14.86L2.99-4.55C2.99-1.98 4.63-0.34 7.18-0.34L12.46-0.34L14.78 3.19C14.94 3.41 15.09 3.53 15.32 3.53ZM15.32 2.95L12.91-0.70C12.82-0.84 12.73-0.91 12.50-0.91L7.22-0.91C5.00-0.91 3.56-2.36 3.56-4.57L3.56-14.82C3.56-17.04 5.00-18.48 7.22-18.48L23.43-18.48C25.57-18.48 27.07-17.04 27.07-14.82L27.07-4.57C27.07-2.36 25.57-0.91 23.43-0.91L18.13-0.91C17.91-0.91 17.82-0.84 17.72-0.70Z" fill="currentColor"/>
</svg>