<svg xmlns="http://www.w3.org/2000/svg" viewBox="0 0 24 24" width="24" height="24">
  <title>building.fill</title>
  <path transform="matrix(0.7879347491535857, 0, 0, 0.7879347491535857, 3.8698060941828247, 18.666666666666668)" d="M4.41 4.23L16.24 4.23C17.21 4.23 17.65 3.79 17.65 2.82L17.65-19.75C17.65-20.72 17.21-21.15 16.24-21.15L4.41-21.15C3.43-21.15 2.99-20.72 2.99-19.75L2.99 2.82C2.99 3.79 3.43 4.23 4.41 4.23ZM6.20-14.33L6.20-17.03C6.20-17.23 6.32-17.36 6.52-17.36L9.25-17.36C9.43-17.36 9.55-17.23 9.55-17.03L9.55-14.33C9.55-14.14 9.43-14.00 9.25-14.00L6.52-14.00C6.32-14.00 6.20-14.14 6.20-14.33ZM11.12-14.33L11.12-17.03C11.12-17.23 11.24-17.36 11.43-17.36L14.16-17.36C14.36-17.36 14.47-17.23 14.47-17.03L14.47-14.33C14.47-14.14 14.36-14.00 14.16-14.00L11.43-14.00C11.24-14.00 11.12-14.14 11.12-14.33ZM6.20-9.09L6.20-11.79C6.20-11.99 6.32-12.12 6.52-12.12L9.25-12.12C9.43-12.12 9.55-11.99 9.55-11.79L9.55-9.09C9.55-8.89 9.43-8.77 9.25-8.77L6.52-8.77C6.32-8.77 6.20-8.89 6.20-9.09ZM11.12-9.09L11.12-11.79C11.12-11.99 11.24-12.12 11.43-12.12L14.16-12.12C14.36-12.12 14.47-11.99 14.47-11.79L14.47-9.09C14.47-8.89 14.36-8.77 14.16-8.77L11.43-8.77C11.24-8.77 11.12-8.89 11.12-9.09ZM6.20-3.86L6.20-6.55C6.20-6.74 6.32-6.88 6.52-6.88L9.25-6.88C9.43-6.88 9.55-6.74 9.55-6.55L9.55-3.86C9.55-3.66 9.43-3.53 9.25-3.53L6.52-3.53C6.32-3.53 6.20-3.66 6.20-3.86ZM11.12-3.86L11.12-6.55C11.12-6.74 11.24-6.88 11.43-6.88L14.16-6.88C14.36-6.88 14.47-6.74 14.47-6.55L14.47-3.86C14.47-3.66 14.36-3.53 14.16-3.53L11.43-3.53C11.24-3.53 11.12-3.66 11.12-3.86ZM7.76 3.69L7.76 0.68C7.76-0.11 8.10-0.47 8.89-0.47L11.77-0.47C12.56-0.47 12.90-0.11 12.90 0.68L12.90 3.69Z" fill="currentColor"/>
</svg>