<svg xmlns="http://www.w3.org/2000/svg" viewBox="0 0 24 24" width="24" height="24">
  
  <path transform="matrix(0.7090430688270323, 0, 0, 0.7090430688270323, -0.11882010801828002, 17.97839634399668)" d="M6 1.82L16.97 1.82C16.85 1.65 16.77 1.44 16.72 1.24L6.04 1.24C4.41 1.24 3.56 0.40 3.56-1.22L3.56-11.29C3.56-12.91 4.41-13.76 6.04-13.76L22.86-13.76C23.34-13.76 23.77-13.68 24.12-13.51C24.21-13.52 24.30-13.51 24.40-13.51C24.94-13.51 25.43-13.41 25.90-13.22L25.90-15.67C25.90-17.61 24.86-18.68 22.89-18.68L6-18.68C4.03-18.68 2.99-17.64 2.99-15.67L2.99-1.20C2.99 0.77 4.03 1.82 6 1.82ZM24.40-5.61C26.20-5.61 27.60-7.16 27.60-9.16C27.60-11.03 26.18-12.63 24.40-12.63C22.63-12.63 21.21-11.03 21.21-9.16C21.21-7.16 22.61-5.61 24.40-5.61ZM12.04-9.69L12.73-9.69C13.01-9.69 13.03-9.71 13.03-9.98L13.03-10.68C13.03-10.93 13.01-10.97 12.73-10.97L12.04-10.97C11.75-10.97 11.73-10.93 11.73-10.68L11.73-9.98C11.73-9.71 11.75-9.69 12.04-9.69ZM16.17-9.69L16.85-9.69C17.13-9.69 17.17-9.71 17.17-9.98L17.17-10.68C17.17-10.93 17.13-10.97 16.85-10.97L16.17-10.97C15.89-10.97 15.86-10.93 15.86-10.68L15.86-9.98C15.86-9.71 15.89-9.69 16.17-9.69ZM20.30-9.69L20.36-9.69C20.40-10.14 20.52-10.57 20.71-10.97L20.30-10.97C20.02-10.97 19.99-10.93 19.99-10.68L19.99-9.98C19.99-9.71 20.02-9.69 20.30-9.69ZM7.90-5.61L8.59-5.61C8.87-5.61 8.89-5.65 8.89-5.91L8.89-6.60C8.89-6.87 8.87-6.89 8.59-6.89L7.90-6.89C7.62-6.89 7.59-6.87 7.59-6.60L7.59-5.91C7.59-5.65 7.62-5.61 7.90-5.61ZM12.04-5.61L12.73-5.61C13.01-5.61 13.03-5.65 13.03-5.91L13.03-6.60C13.03-6.87 13.01-6.89 12.73-6.89L12.04-6.89C11.75-6.89 11.73-6.87 11.73-6.60L11.73-5.91C11.73-5.65 11.75-5.61 12.04-5.61ZM16.17-5.61L16.85-5.61C17.13-5.61 17.17-5.65 17.17-5.91L17.17-6.60C17.17-6.87 17.13-6.89 16.85-6.89L16.17-6.89C15.89-6.89 15.86-6.87 15.86-6.60L15.86-5.91C15.86-5.65 15.89-5.61 16.17-5.61ZM20.30-5.61L20.99-5.61C21.27-5.61 21.30-5.65 21.30-5.92C21.15-6.13 20.98-6.49 20.89-6.89L20.30-6.89C20.02-6.89 19.99-6.87 19.99-6.60L19.99-5.91C19.99-5.65 20.02-5.61 20.30-5.61ZM18.70 1.79L30.08 1.79C30.75 1.79 31.20 1.42 31.20 0.84C31.20-1.24 28.58-4.13 24.39-4.13C20.18-4.13 17.57-1.24 17.57 0.84C17.57 1.42 18.01 1.79 18.70 1.79ZM7.90-1.55L8.59-1.55C8.87-1.55 8.89-1.57 8.89-1.84L8.89-2.53C8.89-2.79 8.87-2.82 8.59-2.82L7.90-2.82C7.62-2.82 7.59-2.79 7.59-2.53L7.59-1.84C7.59-1.57 7.62-1.55 7.90-1.55ZM12.04-1.55L12.73-1.55C13.01-1.55 13.03-1.57 13.03-1.84L13.03-2.53C13.03-2.79 13.01-2.82 12.73-2.82L12.04-2.82C11.75-2.82 11.73-2.79 11.73-2.53L11.73-1.84C11.73-1.57 11.75-1.55 12.04-1.55ZM16.17-1.55L16.85-1.55C17.13-1.55 17.17-1.57 17.17-1.84L17.17-2.53C17.17-2.79 17.13-2.82 16.85-2.82L16.17-2.82C15.89-2.82 15.86-2.79 15.86-2.53L15.86-1.84C15.86-1.57 15.89-1.55 16.17-1.55Z" fill="currentColor"/>
</svg>