<svg xmlns="http://www.w3.org/2000/svg" viewBox="0 0 24 24" width="24" height="24">
  
  <path transform="matrix(0.5382108693366972, 0, 0, 0.5382108693366972, 0.8710186061179439, 16.55376852727846)" d="M20.67 0.81C25.79 0.81 29.94-3.34 29.94-8.46C29.94-13.58 25.79-17.73 20.67-17.73C15.55-17.73 11.40-13.58 11.40-8.46C11.40-3.34 15.55 0.81 20.67 0.81ZM5.61-1.11C5.71-1.23 5.66-1.42 5.55-1.54C3.75-3.33 2.67-5.74 2.67-8.46C2.67-11.19 3.75-13.59 5.55-15.40C5.66-15.50 5.71-15.69 5.61-15.81C5.50-15.94 5.30-15.93 5.17-15.80C3.27-13.90 2.10-11.33 2.10-8.46C2.10-5.59 3.27-3.02 5.17-1.13C5.30-1.00 5.50-0.98 5.61-1.11ZM35.74-1.11C35.86-0.98 36.06-1.00 36.19-1.13C38.09-3.02 39.26-5.59 39.26-8.46C39.26-11.33 38.09-13.90 36.19-15.80C36.06-15.93 35.86-15.94 35.74-15.81C35.65-15.69 35.68-15.50 35.80-15.40C37.61-13.59 38.68-11.19 38.68-8.46C38.68-5.74 37.61-3.33 35.80-1.54C35.68-1.42 35.65-1.23 35.74-1.11ZM15.91-3.96C15.05-3.96 14.57-4.44 14.57-5.32L14.57-10.82C14.57-11.70 15.05-12.18 15.91-12.18L17.36-12.18C17.79-12.18 17.91-12.20 18.19-12.50L18.64-13.02C18.93-13.34 19.14-13.41 19.61-13.41L21.55-13.41C22.05-13.41 22.22-13.32 22.51-13.02L22.99-12.50C23.29-12.19 23.39-12.18 23.81-12.18L25.42-12.18C26.29-12.18 26.75-11.70 26.75-10.82L26.75-5.32C26.75-4.44 26.29-3.96 25.42-3.96ZM8.71-4.30C8.80-4.42 8.78-4.61 8.65-4.71C7.62-5.61 7.14-7.00 7.14-8.46C7.14-9.94 7.62-11.31 8.65-12.21C8.78-12.33 8.80-12.52 8.71-12.62C8.59-12.75 8.39-12.74 8.26-12.61C7.18-11.54 6.56-10.08 6.56-8.46C6.56-6.84 7.18-5.39 8.26-4.31C8.39-4.18 8.59-4.17 8.71-4.30ZM32.65-4.30C32.77-4.17 32.96-4.18 33.09-4.31C34.17-5.39 34.78-6.84 34.78-8.46C34.78-10.08 34.17-11.54 33.09-12.61C32.96-12.74 32.77-12.75 32.65-12.62C32.55-12.52 32.58-12.33 32.71-12.21C33.73-11.31 34.22-9.94 34.22-8.46C34.22-7.00 33.73-5.61 32.71-4.71C32.58-4.61 32.55-4.42 32.65-4.30ZM20.67-5.11C22.34-5.11 23.68-6.45 23.68-8.13C23.68-9.82 22.34-11.16 20.67-11.16C19.00-11.16 17.65-9.82 17.65-8.13C17.65-6.45 19.00-5.11 20.67-5.11ZM24.89-9.91C25.17-9.91 25.38-10.13 25.38-10.41C25.38-10.69 25.17-10.90 24.89-10.90C24.61-10.90 24.39-10.69 24.39-10.41C24.39-10.13 24.61-9.91 24.89-9.91ZM20.67-5.53C19.23-5.53 18.07-6.68 18.07-8.13C18.07-9.57 19.23-10.75 20.67-10.75C22.10-10.75 23.25-9.57 23.25-8.13C23.25-6.68 22.10-5.53 20.67-5.53Z" fill="currentColor"/>
</svg>