<svg xmlns="http://www.w3.org/2000/svg" viewBox="0 0 24 24" width="24" height="24">
  
  <path transform="matrix(0.8806329549363605, 0, 0, 0.8806329549363605, 0.15273477812177494, 19.45098039215686)" d="M13.45 2.89C19.70 2.89 24.81-2.21 24.81-8.46C24.81-14.71 19.70-19.82 13.45-19.82C7.21-19.82 2.10-14.71 2.10-8.46C2.10-2.21 7.21 2.89 13.45 2.89ZM9.39-12.26C9.39-12.96 9.54-13.64 9.86-14.33C9.90-14.50 10.10-14.51 10.21-14.36L11.87-12.69L13.28-14.51C13.38-14.66 13.54-14.66 13.64-14.51L15.05-12.69L16.71-14.36C16.82-14.51 17.02-14.50 17.06-14.33C17.38-13.64 17.53-12.96 17.53-12.26C17.53-9.96 15.95-8.29 13.72-8.17L13.72-2.00C14.79-4.57 17.23-6.21 19.98-6.21C20.17-6.21 20.25-6.05 20.18-5.87C19.27-3.04 16.51-1.04 13.46-1.04C13.31-1.04 13.20-1.16 13.20-1.31L13.20-8.17C10.97-8.29 9.39-9.96 9.39-12.26ZM6.73-5.87C6.67-6.05 6.75-6.21 6.94-6.21C9.40-6.21 11.61-4.91 12.81-2.80L12.81-1.31C12.81-1.23 12.83-1.15 12.86-1.08C10.05-1.32 7.61-3.22 6.73-5.87Z" fill="currentColor"/>
</svg>