<svg xmlns="http://www.w3.org/2000/svg" viewBox="0 0 24 24" width="24" height="24">
  <title>camera.macro.slash</title>
  <path transform="matrix(0.8136670639650377, 0, 0, 0.8136670639650377, 0.5482717520858169, 18.65792610250298)" d="M14.41-9.20C18.39-9.35 21.21-12.32 21.21-16.37C21.21-17.64 20.94-18.86 20.43-20.06C20.34-20.23 20.19-20.25 20.04-20.07L16.91-16.91L14.26-20.37C14.14-20.51 14.00-20.51 13.89-20.37L11.24-16.91L8.11-20.07C7.96-20.25 7.79-20.23 7.72-20.06C7.24-18.95 6.97-17.82 6.93-16.68ZM25.50 4.02C25.62 4.14 25.80 4.14 25.91 4.02C26.05 3.89 26.03 3.71 25.91 3.60L3.20-19.10C3.09-19.21 2.91-19.23 2.78-19.10C2.66-18.98 2.66-18.80 2.78-18.68ZM14.07 3.61C16.82 3.61 19.36 2.72 21.41 1.25L17.82-2.34C16.24-0.93 15.02 0.90 14.36 3.02L14.36-5.81L13.78-6.39L13.78 3.29C13.78 3.49 13.90 3.61 14.07 3.61ZM23.26-0.35C24.50-1.68 25.46-3.25 26.03-4.97C26.10-5.19 25.99-5.34 25.79-5.34C23.65-5.34 21.61-4.79 19.83-3.77ZM12.93 3.55C12.91 3.48 12.90 3.38 12.90 3.29L12.90 0.93C10.84-2.91 6.81-5.34 2.36-5.34C2.16-5.34 2.05-5.19 2.12-4.97C3.60-0.45 7.82 3.09 12.93 3.55Z" fill="currentColor"/>
</svg>