<svg xmlns="http://www.w3.org/2000/svg" viewBox="0 0 24 24" width="24" height="24">
  <title>car.top.lane.dashed.departure.right</title>
  <path transform="matrix(0.8366992431982458, 0, 0, 0.8366992431982458, -0.5002926603385083, 19.177310695559953)" d="M12.11 1.05C15.36 2.93 17.75 3.11 18.84 1.22L24.30-8.26L24.71-8.04C25.08-7.83 25.38-7.88 25.55-8.16L25.82-8.61C25.98-8.89 25.88-9.21 25.52-9.41L25.11-9.66L26.46-11.99C27.29-13.43 26.91-14.98 25.42-16.43L25.42-19.90C25.42-19.98 25.36-20.04 25.28-20.04L24.98-20.04C24.90-20.04 24.84-19.98 24.84-19.90L24.84-16.95C24.36-17.33 23.80-17.72 23.16-18.09C19.91-19.96 17.40-19.89 16.25-17.88L14.89-15.54L14.50-15.77C14.14-15.98 13.83-15.90 13.66-15.62L13.39-15.18C13.23-14.89 13.34-14.60 13.70-14.39L14.10-14.16L8.63-4.68C7.54-2.79 8.87-0.83 12.11 1.05ZM3.13-13.83L3.42-13.83C3.50-13.83 3.56-13.89 3.56-13.97L3.56-19.88C3.56-19.97 3.50-20.02 3.42-20.02L3.13-20.02C3.05-20.02 2.99-19.97 2.99-19.88L2.99-13.97C2.99-13.89 3.05-13.83 3.13-13.83ZM12.40 0.55C9.45-1.16 8.23-2.82 9.13-4.38L16.76-17.60C17.73-19.28 19.91-19.31 22.89-17.60C25.85-15.88 26.95-13.97 25.97-12.27L18.35 0.95C17.45 2.50 15.36 2.27 12.40 0.55ZM18.53-10.04C19.21-9.64 20.60-8.73 21.01-8.51C21.63-8.14 22.09-8.20 22.54-8.87L23.34-10.03C24.09-11.11 23.95-11.96 20.72-13.83C17.48-15.69 16.66-15.39 16.11-14.20L15.52-12.91C15.19-12.20 15.34-11.78 15.96-11.41C16.37-11.18 17.65-10.55 18.53-10.04ZM3.13-5.47L3.42-5.47C3.50-5.47 3.56-5.53 3.56-5.61L3.56-11.52C3.56-11.61 3.50-11.66 3.42-11.66L3.13-11.66C3.05-11.66 2.99-11.61 2.99-11.52L2.99-5.61C2.99-5.53 3.05-5.47 3.13-5.47ZM13.48-1.28C16.27 0.33 17.34 0.41 17.91-0.81L18.23-1.55C18.68-2.55 18.08-3.33 15.52-4.82C12.94-6.30 11.98-6.42 11.33-5.54L10.85-4.88C10.05-3.79 10.69-2.89 13.48-1.28ZM24.98 2.87L25.28 2.87C25.36 2.87 25.42 2.81 25.42 2.73L25.42-3.19C25.42-3.27 25.36-3.33 25.28-3.33L24.98-3.33C24.90-3.33 24.84-3.27 24.84-3.19L24.84 2.73C24.84 2.81 24.90 2.87 24.98 2.87ZM3.13 2.88L3.42 2.88C3.50 2.88 3.56 2.82 3.56 2.74L3.56-3.16C3.56-3.26 3.50-3.30 3.42-3.30L3.13-3.30C3.05-3.30 2.99-3.26 2.99-3.16L2.99 2.74C2.99 2.82 3.05 2.88 3.13 2.88Z" fill="currentColor"/>
</svg>