<svg xmlns="http://www.w3.org/2000/svg" viewBox="0 0 24 24" width="24" height="24">
  <title>car.rear.hazardsign.fill</title>
  <path transform="matrix(0.8329266308768505, 0, 0, 0.8329266308768505, 0.008784773060029227, 19.218155197657396)" d="M4.84 2.32L23.95 2.32C25.50 2.32 26.40 1.22 26.40-0.08C26.40-0.59 26.27-1.13 25.97-1.64L16.45-18.49C15.98-19.31 15.19-19.65 14.40-19.65C13.61-19.65 12.81-19.31 12.34-18.49L2.82-1.64C2.52-1.13 2.39-0.59 2.39-0.08C2.39 1.22 3.29 2.32 4.84 2.32ZM8.09-1.30L8.09-4.43C8.09-5.44 8.36-5.87 8.75-6.41L9.23-7.05L9.87-8.84C10.18-9.70 10.69-10.09 11.41-10.16C11.79-10.22 13.07-10.24 14.27-10.24C15.48-10.24 16.76-10.22 17.14-10.16C17.86-10.09 18.38-9.70 18.69-8.84L19.31-7.05L19.79-6.41C20.19-5.87 20.46-5.44 20.46-4.43L20.46-1.30C20.46-0.93 20.17-0.64 19.79-0.64L19.18-0.64C18.81-0.64 18.50-0.93 18.50-1.30L18.50-1.90L10.04-1.90L10.04-1.30C10.04-0.93 9.74-0.64 9.39-0.64L8.78-0.64C8.38-0.64 8.09-0.93 8.09-1.30ZM10.37-7.38L18.19-7.38C18.40-7.38 18.48-7.57 18.41-7.77L18.06-8.73C17.85-9.30 17.55-9.59 17.03-9.64C16.57-9.69 15.80-9.73 14.27-9.73C12.76-9.73 11.98-9.69 11.53-9.64C11.00-9.59 10.69-9.32 10.49-8.73L10.16-7.77C10.08-7.57 10.16-7.38 10.37-7.38ZM9.77-3.88C10.02-3.88 10.21-4.05 10.21-4.32L10.21-5.26C10.21-5.50 10.02-5.67 9.77-5.67C9.52-5.67 9.34-5.50 9.34-5.26L9.34-4.32C9.34-4.05 9.52-3.88 9.77-3.88ZM18.77-3.88C19.03-3.88 19.21-4.05 19.21-4.32L19.21-5.26C19.21-5.50 19.03-5.67 18.77-5.67C18.54-5.67 18.35-5.48 18.35-5.26L18.35-4.32C18.35-4.05 18.54-3.88 18.77-3.88ZM12.96-4.05L15.53-4.05C15.71-4.05 15.83-4.20 15.83-4.42L15.83-5.17C15.83-5.37 15.71-5.48 15.53-5.48L12.96-5.48C12.76-5.48 12.66-5.37 12.66-5.17L12.66-4.42C12.66-4.20 12.76-4.05 12.96-4.05Z" fill="currentColor"/>
</svg>