<svg xmlns="http://www.w3.org/2000/svg" viewBox="0 0 24 24" width="24" height="24">
  
  <path transform="matrix(0.5062790467714823, 0, 0, 0.5062790467714823, 0.48709581726490647, 16.28359537229309)" d="M6-2.30L7.46-2.30C7.88-0.87 9.16 0.15 10.75 0.15C12.33 0.15 13.63-0.87 14.04-2.30L31.44-2.30C31.85-0.87 33.15 0.15 34.73 0.15C36.32 0.15 37.62-0.87 38.03-2.30L39.49-2.30C41.50-2.30 42.49-3.34 42.49-5.44L42.49-8.68C42.49-10.55 41.70-11.50 39.68-12.20L37.78-12.87C34.72-15.36 32.26-17.07 27.95-17.07L26.59-17.07C22.25-17.07 20.11-16.62 17.47-14.95L12.73-11.98L7.28-11.31C4.64-10.98 2.99-9.39 2.99-7.14L2.99-5.44C2.99-3.34 3.98-2.30 6-2.30ZM38.16-3.27C38.16-5.19 36.66-6.70 34.73-6.70C32.81-6.70 31.30-5.19 31.30-3.27C31.30-3.14 31.31-3 31.32-2.87L14.16-2.87C14.17-3 14.18-3.14 14.18-3.27C14.18-5.19 12.67-6.70 10.75-6.70C8.82-6.70 7.32-5.19 7.32-3.27C7.32-3.14 7.34-3 7.35-2.87L6-2.87C4.37-2.87 3.56-3.73 3.56-5.44L3.56-7.14C3.56-9.07 5.03-10.46 7.35-10.75L12.18-11.33C12.95-11.41 13.14-11.52 13.56-11.78L17.80-14.45C20.38-16.07 22.42-16.50 26.59-16.50L27.95-16.50C31.49-16.50 34.02-15.34 37.14-12.61C37.54-12.26 37.69-12.21 38.02-12.11L39.59-11.61C41.27-11.07 41.92-10.29 41.92-8.68L41.92-5.44C41.92-3.73 41.11-2.87 39.49-2.87L38.13-2.87C38.16-3 38.16-3.14 38.16-3.27ZM20.11-4.88L25.37-4.88C25.76-4.88 25.86-5.23 25.70-5.48L23.11-9.71C22.93-10.02 22.54-10.03 22.35-9.71L19.78-5.50C19.62-5.24 19.72-4.88 20.11-4.88ZM10.75-0.42C9.16-0.42 7.90-1.69 7.90-3.27C7.90-4.86 9.16-6.13 10.75-6.13C12.34-6.13 13.61-4.86 13.61-3.27C13.61-1.69 12.34-0.42 10.75-0.42ZM34.73-0.42C33.14-0.42 31.89-1.69 31.89-3.27C31.89-4.86 33.14-6.13 34.73-6.13C36.33-6.13 37.58-4.86 37.58-3.27C37.58-1.69 36.33-0.42 34.73-0.42Z" fill="currentColor"/>
</svg>