<svg xmlns="http://www.w3.org/2000/svg" viewBox="0 0 24 24" width="24" height="24">
  <title>car.top.radiowaves.2.front.left.front.front.right.fill</title>
  <path transform="matrix(0.6454866364094806, 0, 0, 0.6454866364094806, 1.5839636913767026, 17.816944024205746)" d="M16.14-24.50C14.24-24.50 12.43-24.18 10.79-23.57C10.58-23.50 10.51-23.36 10.57-23.19C10.63-23.02 10.79-22.96 10.99-23.03C12.57-23.61 14.31-23.93 16.14-23.93C17.96-23.93 19.70-23.61 21.28-23.03C21.48-22.96 21.64-23.02 21.70-23.19C21.76-23.36 21.68-23.50 21.48-23.57C19.84-24.18 18.04-24.50 16.14-24.50ZM22.59-23.11C22.58-23.04 22.57-22.97 22.55-22.90C22.50-22.77 22.45-22.66 22.38-22.58C24.75-21.50 26.98-19.73 28.73-17.18C28.86-16.98 29.02-16.97 29.16-17.06C29.30-17.14 29.33-17.33 29.21-17.51C27.45-20.14 25.11-21.97 22.59-23.11ZM9.69-23.11C7.16-21.97 4.83-20.14 3.06-17.51C2.94-17.33 2.98-17.14 3.12-17.06C3.26-16.97 3.40-16.98 3.54-17.18C5.31-19.73 7.52-21.50 9.90-22.58C9.83-22.66 9.77-22.77 9.73-22.90C9.71-22.97 9.69-23.04 9.69-23.11ZM16.14-20.44C14.70-20.44 13.32-20.18 12.05-19.72C11.89-19.66 11.82-19.51 11.88-19.35C11.93-19.21 12.09-19.13 12.30-19.21C13.46-19.63 14.78-19.86 16.14-19.86C17.50-19.86 18.81-19.63 19.97-19.21C20.18-19.13 20.33-19.21 20.39-19.35C20.45-19.51 20.38-19.66 20.23-19.72C18.95-20.18 17.58-20.44 16.14-20.44ZM21.29-19.27C21.28-19.20 21.25-19.11 21.22-19.04C21.18-18.93 21.13-18.83 21.06-18.75C22.88-17.89 24.50-16.55 25.72-14.75C25.80-14.60 25.97-14.55 26.11-14.65C26.26-14.73 26.30-14.92 26.17-15.12C24.89-17.02 23.18-18.39 21.29-19.27ZM10.99-19.27C9.12-18.39 7.39-17.02 6.11-15.12C5.98-14.92 6.01-14.73 6.16-14.65C6.30-14.55 6.47-14.60 6.55-14.75C7.78-16.55 9.41-17.89 11.21-18.75C11.16-18.83 11.10-18.93 11.05-19.04C11.03-19.11 11.02-19.20 10.99-19.27ZM16.20 6.48C19.93 6.48 22.07 5.45 22.07 3.27L22.07-7.66L22.52-7.66C22.95-7.66 23.18-7.86 23.18-8.19L23.18-8.72C23.18-9.05 22.95-9.27 22.52-9.27L22.07-9.27L22.07-11.96C22.07-14.27 19.95-15.59 16.20-15.59C12.43-15.59 10.30-14.27 10.30-11.96L10.30-9.27L9.83-9.27C9.42-9.27 9.18-9.05 9.18-8.72L9.18-8.19C9.18-7.86 9.42-7.66 9.83-7.66L10.30-7.66L10.30 3.27C10.30 5.45 12.45 6.48 16.20 6.48ZM16.18-6.32C15.41-6.32 13.73-6.22 13.28-6.22C12.56-6.22 12.21-6.50 12.14-7.30L12.02-8.71C11.92-10.02 12.46-10.68 16.18-10.68C19.90-10.68 20.45-10.02 20.34-8.71L20.23-7.30C20.14-6.50 19.80-6.22 19.09-6.22C18.62-6.22 17.20-6.32 16.18-6.32ZM16.18 3.77C12.96 3.77 12.01 3.33 12.13 1.98L12.20 1.17C12.30 0.08 13.22-0.29 16.18-0.29C19.15-0.29 20.06 0.08 20.17 1.17L20.24 1.98C20.36 3.33 19.39 3.77 16.18 3.77Z" fill="currentColor"/>
</svg>