<svg xmlns="http://www.w3.org/2000/svg" viewBox="0 0 24 24" width="24" height="24">
  <title>carseat.left.backrest.up.and.down.fill</title>
  <path transform="matrix(0.6749925435957562, 0, 0, 0.6749925435957562, -0.017886223309638627, 17.711069724329718)" d="M3.12-1.25C3.93 2.09 5.23 3.08 7.22 3.08L19.52 3.08C20.96 3.08 22.04 2.20 22.41 0.73L26.75-17.09C27.25-19.09 26.16-20.00 24.88-20.00C23.27-20.00 21.67-18.68 22.02-15.81C19.17-14.18 17.46-9.54 17.86-4.62C15.41-5.06 12.55-5.31 9.60-5.31C4.45-5.31 2.44-4.11 3.12-1.25ZM16.22-11.58L17.48-16.70C17.58-17.06 17.27-17.26 16.97-17.16L12.25-15.67C11.92-15.57 11.80-15.16 12.05-14.92L15.54-11.41C15.76-11.20 16.13-11.21 16.22-11.58ZM27.06-7.95C26.96-7.57 27.28-7.38 27.59-7.49L32.29-8.94C32.64-9.04 32.73-9.45 32.47-9.69L28.99-13.22C28.78-13.44 28.42-13.43 28.32-13.05Z" fill="currentColor"/>
</svg>