<svg xmlns="http://www.w3.org/2000/svg" viewBox="0 0 24 24" width="24" height="24">
  
  <path transform="matrix(0.8373576976680451, 0, 0, 0.8373576976680451, -0.4993014168590868, 19.084831145113224)" d="M26.74-1.25C27.42-4.11 25.39-5.31 20.26-5.31C17.32-5.31 14.45-5.06 11.99-4.61C12.39-9.57 10.66-14.20 7.80-15.83C8.19-18.68 6.57-20.00 4.98-20.00C3.70-20.00 2.61-19.09 3.11-17.09L7.46 0.73C7.82 2.20 8.89 3.08 10.34 3.08L22.63 3.08C24.63 3.08 25.93 2.09 26.74-1.25ZM18.63-10.29L23.80-10.29C23.98-10.29 24.09-10.43 24.09-10.58C24.09-10.75 23.95-10.88 23.80-10.88L19.16-10.86L19.16-10.88L22.44-14.54C23.30-15.48 23.66-16.22 23.66-17.07C23.66-18.54 22.63-19.51 21.01-19.51C19.56-19.51 18.36-18.61 18.20-17.38C18.19-17.30 18.18-17.20 18.18-17.12C18.18-16.93 18.29-16.82 18.47-16.82C18.67-16.82 18.77-16.91 18.79-17.09C18.86-18.18 19.78-18.93 21.01-18.93C22.25-18.93 23.07-18.20 23.07-17.10C23.07-16.39 22.77-15.75 22.00-14.87L18.46-10.93C18.34-10.80 18.29-10.73 18.29-10.62C18.29-10.43 18.43-10.29 18.63-10.29ZM26.19-1.39C25.43 1.72 24.28 2.51 22.63 2.51L10.34 2.51C9.18 2.51 8.31 1.78 8.00 0.56L3.66-17.18C3.28-18.71 4.07-19.43 5.00-19.43C6.26-19.43 7.50-18.32 7.25-15.89C7.22-15.66 7.18-15.53 7.41-15.41C10.21-13.85 11.81-9.20 11.41-4.58C11.39-4.16 11.63-3.95 12.04-4.03C14.25-4.45 17.26-4.73 20.26-4.73C25.05-4.73 26.78-3.77 26.19-1.39Z" fill="currentColor"/>
</svg>