<svg xmlns="http://www.w3.org/2000/svg" viewBox="0 0 24 24" width="24" height="24">
  
  <path transform="matrix(0.8375120525583301, 0, 0, 0.8375120525583301, -0.5037373356902628, 19.086137132192746)" d="M3.12-1.25C3.93 2.09 5.23 3.08 7.22 3.08L19.52 3.08C20.96 3.08 22.04 2.20 22.39 0.73L26.75-17.09C27.23-19.09 26.14-20.00 24.88-20.00C23.29-20.00 21.66-18.68 22.05-15.83C19.18-14.20 17.46-9.57 17.87-4.61C15.41-5.06 12.54-5.31 9.60-5.31C4.45-5.31 2.44-4.11 3.12-1.25ZM3.66-1.39C3.08-3.77 4.80-4.73 9.60-4.73C12.60-4.73 15.61-4.45 17.82-4.03C18.23-3.95 18.47-4.16 18.43-4.58C18.05-9.20 19.65-13.85 22.45-15.41C22.66-15.53 22.64-15.66 22.61-15.89C22.36-18.32 23.60-19.43 24.86-19.43C25.79-19.43 26.58-18.71 26.20-17.18L21.86 0.56C21.55 1.78 20.67 2.51 19.52 2.51L7.22 2.51C5.57 2.51 4.42 1.72 3.66-1.39Z" fill="currentColor"/>
</svg>