<svg xmlns="http://www.w3.org/2000/svg" viewBox="0 0 24 24" width="24" height="24">
  <title>cedisign.square</title>
  <path transform="matrix(0.9752380952380952, 0, 0, 0.9752380952380952, -0.9142857142857141, 20.251428571428573)" d="M6 1.79L20.48 1.79C22.44 1.79 23.50 0.71 23.50-1.22L23.50-15.70C23.50-17.64 22.44-18.71 20.48-18.71L6-18.71C4.03-18.71 2.99-17.67 2.99-15.70L2.99-1.22C2.99 0.75 4.03 1.79 6 1.79ZM6.02 1.22C4.41 1.22 3.56 0.38 3.56-1.25L3.56-15.68C3.56-17.30 4.41-18.14 6.02-18.14L20.45-18.14C22.02-18.14 22.92-17.30 22.92-15.68L22.92-1.25C22.92 0.38 22.02 1.22 20.45 1.22ZM13.24-2.21C13.38-2.21 13.46-2.31 13.46-2.44L13.46-3.62C15.01-3.66 16.46-4.42 16.91-5.88C16.97-6.06 17.02-6.19 17.02-6.38C17.02-6.55 16.89-6.68 16.71-6.68C16.56-6.68 16.44-6.57 16.41-6.40C16.14-5.04 14.96-4.23 13.46-4.20L13.46-12.80C14.98-12.75 16.15-11.73 16.36-10.51C16.39-10.35 16.46-10.24 16.65-10.24C16.85-10.24 16.97-10.37 16.97-10.57C16.97-10.66 16.93-10.82 16.88-10.99C16.43-12.42 15.08-13.34 13.46-13.37L13.46-14.46C13.46-14.59 13.38-14.67 13.24-14.67C13.11-14.67 13.03-14.59 13.03-14.46L13.03-13.37C10.50-13.21 9.19-11.19 9.19-8.53C9.19-5.89 10.48-3.80 13.03-3.63L13.03-2.44C13.03-2.31 13.11-2.21 13.24-2.21ZM9.83-8.53C9.83-10.79 10.88-12.62 13.03-12.80L13.03-4.21C10.86-4.37 9.83-6.23 9.83-8.53Z" fill="currentColor"/>
</svg>