<svg xmlns="http://www.w3.org/2000/svg" viewBox="0 0 24 24" width="24" height="24">
  
  <path transform="matrix(0.74788197487584, 0, 0, 0.74788197487584, 0.4312007011393513, 18.36878638007747)" d="M15.47-15.15C17.57-15.15 19.48-14.43 21-13.21C21.25-13.01 21.56-13.04 21.79-13.27L24.11-15.57C24.38-15.84 24.38-16.23 24.09-16.48C21.76-18.45 18.74-19.64 15.47-19.64C12.20-19.64 9.18-18.45 6.84-16.48C6.56-16.23 6.56-15.84 6.83-15.57L9.16-13.27C9.39-13.04 9.71-13.02 9.97-13.23C11.47-14.43 13.39-15.15 15.47-15.15ZM28.84-6.27C28.84-9.55 27.67-12.56 25.68-14.89C25.44-15.18 25.03-15.15 24.77-14.91L22.46-12.60C22.24-12.36 22.23-12.04 22.42-11.79C23.64-10.28 24.35-8.36 24.35-6.27C24.35-4.17 23.63-2.24 22.43-0.74C22.22-0.48 22.23-0.16 22.45 0.07L24.76 2.41C25.02 2.68 25.42 2.67 25.66 2.39C27.64 0.06 28.84-2.98 28.84-6.27ZM2.10-6.27C2.10-2.98 3.29 0.06 5.29 2.39C5.52 2.67 5.93 2.68 6.18 2.41L8.48 0.07C8.72-0.16 8.73-0.48 8.52-0.74C7.32-2.24 6.59-4.17 6.59-6.27C6.59-8.36 7.31-10.28 8.52-11.79C8.72-12.04 8.70-12.36 8.47-12.60L6.16-14.91C5.91-15.15 5.51-15.18 5.26-14.89C3.28-12.56 2.10-9.55 2.10-6.27ZM15.42-1.05C15.55-1.05 15.64-1.16 15.64-1.28L15.64-2.34C16.48-2.37 17.27-2.65 17.86-3.23C18.13-3.52 18.50-4.14 18.50-4.45C18.50-4.66 18.33-4.73 18.22-4.73C18.04-4.73 17.99-4.63 17.92-4.45C17.53-3.52 16.79-2.92 15.64-2.87L15.64-9.38C16.68-9.32 17.54-8.77 17.92-7.76C17.98-7.58 18.08-7.50 18.21-7.50C18.39-7.50 18.49-7.62 18.49-7.77C18.49-8.14 18.16-8.67 17.85-9C17.29-9.56 16.54-9.87 15.64-9.90L15.64-10.97C15.64-11.09 15.55-11.19 15.42-11.19C15.30-11.19 15.21-11.09 15.21-10.97L15.21-9.90C13.15-9.77 12.07-8.17 12.07-6.12C12.07-4.07 13.15-2.47 15.21-2.34L15.21-1.28C15.21-1.16 15.30-1.05 15.42-1.05ZM12.68-6.12C12.68-7.89 13.55-9.25 15.21-9.38L15.21-2.87C13.56-3.01 12.68-4.36 12.68-6.12Z" fill="currentColor"/>
</svg>