<svg xmlns="http://www.w3.org/2000/svg" viewBox="0 0 24 24" width="24" height="24">
  
  <path transform="matrix(0.7429981134813525, 0, 0, 0.7429981134813525, -0.22028733130169798, 18.28646060078363)" d="M19.21 2.24C25.05 2.24 29.91-2.63 29.91-8.46C29.91-14.29 25.03-19.16 19.20-19.16C15.86-19.16 12.84-17.57 10.88-15.12C10.32-15.28 9.73-15.36 9.06-15.36C6.15-15.36 4.30-13.89 3.69-11.81C3.60-11.54 3.54-11.20 3.54-11.00C3.54-10.84 3.62-10.76 3.79-10.76C3.96-10.76 4.03-10.84 4.04-11.03C4.56-13.62 6.41-14.87 9.06-14.87C9.60-14.87 10.09-14.80 10.55-14.68C9.28-12.94 8.52-10.79 8.51-8.50L8.18-8.47C4.72-8.20 2.99-6.70 2.99-4.24C2.99-1.82 4.99-0.13 7.86-0.13C9.20-0.13 10.45-0.50 11.46-1.14C13.43 0.94 16.18 2.24 19.21 2.24ZM21.88-10.93C21.88-14.96 19.41-17.45 15.33-17.45C15.02-17.44 14.73-17.43 14.45-17.40C15.87-18.15 17.47-18.57 19.20-18.57C24.81-18.57 29.30-14.10 29.32-8.46C29.33-3.77 26.19 0.14 21.88 1.30ZM9.12-8.46C9.12-11.77 10.65-14.67 13.04-16.51C13.75-16.71 14.52-16.79 15.35-16.79C19.02-16.79 21.18-14.58 21.18-10.91L21.18-9.19L14.24-8.65C12-8.47 10.34-7.91 9.22-6.97C9.15-7.46 9.12-7.96 9.12-8.46ZM14.37-8.02L21.18-8.55L21.18-5.21C21.18-2.24 18.91 0.29 15.87 1.09C12.63-0.04 10.16-2.74 9.38-6.14C10.36-7.17 12.04-7.82 14.37-8.02ZM3.52-4.32C3.52-6.39 5.16-7.73 8.27-7.98L8.52-8.00C8.63-5.55 9.59-3.30 11.11-1.54C10.18-0.97 9.07-0.63 7.89-0.63C5.38-0.63 3.52-2.12 3.52-4.32ZM19.21 1.64C18.46 1.64 17.73 1.57 17.03 1.42C19.02 0.64 20.58-0.82 21.15-2.67L21.18-2.67L21.18 1.45C20.54 1.58 19.89 1.64 19.21 1.64Z" fill="currentColor"/>
</svg>