<svg xmlns="http://www.w3.org/2000/svg" viewBox="0 0 24 24" width="24" height="24">
  <title>characters.lowercase</title>
  <path transform="matrix(0.5604816639299398, 0, 0, 0.5604816639299398, 0.32512315270935965, 16.935960591133004)" d="M15.87 0.15C16.02 0.15 16.14 0.06 16.14-0.16L16.14-3.88L16.15-3.88C16.76-1.39 18.75 0.19 21.13 0.19C24.28 0.19 26.51-2.54 26.51-6.39C26.51-10.21 24.28-12.93 21.13-12.93C18.68-12.93 16.73-11.31 16.17-8.91L16.14-8.91L16.14-17.50C16.14-17.70 16.02-17.80 15.86-17.80C15.67-17.80 15.56-17.70 15.56-17.50L15.56-0.16C15.56 0.06 15.68 0.15 15.87 0.15ZM7.17 0.15C9.46 0.15 11.47-1.11 12.07-2.94L12.08-2.94L12.08-0.16C12.08 0.04 12.20 0.15 12.35 0.15C12.54 0.15 12.66 0.04 12.66-0.16L12.66-8.57C12.66-11.23 10.99-12.93 8.20-12.93C5.77-12.93 4.15-11.80 3.56-9.89C3.49-9.67 3.42-9.39 3.42-9.22C3.42-9.05 3.56-8.94 3.73-8.94C3.88-8.94 3.98-9.05 4.01-9.22C4.41-11.17 5.88-12.39 8.19-12.39C10.64-12.39 12.08-10.84 12.08-8.54L12.08-7.34L7.44-7.01C4.48-6.80 2.99-5.50 2.99-3.39C2.99-1.30 4.72 0.15 7.17 0.15ZM33.71 0.19C36.05 0.19 37.99-1.11 38.61-3.23C38.65-3.34 38.67-3.48 38.67-3.61C38.67-3.73 38.59-3.87 38.41-3.87C38.26-3.87 38.20-3.76 38.16-3.60C37.58-1.51 35.81-0.35 33.71-0.35C30.59-0.35 28.71-2.66 28.71-6.38C28.71-10.09 30.66-12.39 33.66-12.39C35.74-12.39 37.52-11.23 38.10-9.14C38.14-8.98 38.20-8.89 38.36-8.89C38.53-8.89 38.61-8.99 38.61-9.13C38.61-9.26 38.59-9.39 38.57-9.45C37.97-11.55 35.99-12.93 33.66-12.93C30.22-12.93 28.13-10.34 28.13-6.34C28.13-2.36 30.27 0.19 33.71 0.19ZM21.09-0.35C18.20-0.35 16.22-2.82 16.22-6.35C16.22-9.88 18.21-12.39 21.09-12.39C23.98-12.39 25.91-9.96 25.91-6.39C25.91-2.80 23.96-0.35 21.09-0.35ZM7.20-0.40C5.12-0.40 3.57-1.64 3.57-3.43C3.57-5.12 4.86-6.25 7.55-6.46L12.08-6.82L12.08-4.69C12.08-2.38 9.86-0.40 7.20-0.40Z" fill="currentColor"/>
</svg>