<svg xmlns="http://www.w3.org/2000/svg" viewBox="0 0 24 24" width="24" height="24">
  
  <path transform="matrix(0.7960591176664524, 0, 0, 0.7960591176664524, 0.10624998961379095, 18.73366983284717)" d="M3.43-6.33L12.82 3.06C14.23 4.46 15.71 4.43 17.09 3.06L26.45-6.33C27.82-7.70 27.88-9.19 26.47-10.59L17.10-19.97C15.68-21.39 14.23-21.35 12.82-19.96L3.43-10.59C2.03-9.19 2.03-7.73 3.43-6.33ZM13.71-2.91C13.58-2.91 13.51-2.94 13.42-3.05L9.75-7.28C9.69-7.36 9.64-7.44 9.64-7.54C9.64-7.71 9.79-7.82 9.93-7.82C10.04-7.82 10.14-7.78 10.21-7.69L13.70-3.68L19.85-13.21C19.92-13.29 20.02-13.36 20.12-13.36C20.26-13.36 20.40-13.22 20.40-13.08C20.40-13.02 20.38-12.94 20.36-12.88L13.99-3.05C13.91-2.95 13.83-2.91 13.71-2.91Z" fill="currentColor"/>
</svg>