<svg xmlns="http://www.w3.org/2000/svg" viewBox="0 0 24 24" width="24" height="24">
  <title>circle.slash</title>
  <path transform="matrix(0.8806329549363605, 0, 0, 0.8806329549363605, 0.15273477812177494, 19.45098039215686)" d="M22.24-1.29C23.85-3.25 24.81-5.75 24.81-8.46C24.81-14.71 19.70-19.82 13.45-19.82C10.75-19.82 8.24-18.86 6.29-17.25L6.69-16.85C8.54-18.36 10.90-19.24 13.45-19.24C19.41-19.24 24.23-14.41 24.23-8.46C24.23-5.89 23.33-3.55 21.84-1.69ZM23.93 2.47C24.05 2.59 24.23 2.59 24.35 2.47C24.49 2.34 24.47 2.18 24.35 2.06L2.96-19.35C2.86-19.44 2.68-19.48 2.54-19.35C2.43-19.23 2.43-19.04 2.54-18.93ZM20.18-0.02C18.34 1.43 16.00 2.32 13.45 2.32C7.51 2.32 2.67-2.52 2.67-8.46C2.67-11.00 3.56-13.35 5.04-15.19L4.63-15.59C3.05-13.64 2.10-11.16 2.10-8.46C2.10-2.21 7.21 2.89 13.45 2.89C16.15 2.89 18.62 1.95 20.58 0.38Z" fill="currentColor"/>
</svg>