<svg xmlns="http://www.w3.org/2000/svg" viewBox="0 0 24 24" width="24" height="24">
  <title>circle.hexagongrid.circle.fill</title>
  <path transform="matrix(0.8806329549363605, 0, 0, 0.8806329549363605, 0.15273477812177494, 19.440660474716204)" d="M13.45 2.91C19.70 2.91 24.81-2.20 24.81-8.45C24.81-14.70 19.70-19.80 13.45-19.80C7.21-19.80 2.10-14.70 2.10-8.45C2.10-2.20 7.21 2.91 13.45 2.91ZM10.86-11.00C9.69-11.00 8.73-11.96 8.73-13.15C8.73-14.33 9.69-15.28 10.86-15.28C12.05-15.28 13.01-14.33 13.01-13.15C13.01-11.96 12.05-11.00 10.86-11.00ZM16.04-11.00C14.86-11.00 13.90-11.96 13.90-13.15C13.90-14.33 14.86-15.28 16.04-15.28C17.23-15.28 18.19-14.33 18.19-13.15C18.19-11.96 17.23-11.00 16.04-11.00ZM8.29-6.30C7.10-6.30 6.14-7.27 6.14-8.45C6.14-9.63 7.10-10.58 8.29-10.58C9.46-10.58 10.42-9.63 10.42-8.45C10.42-7.27 9.46-6.30 8.29-6.30ZM13.45-6.30C12.27-6.30 11.32-7.27 11.32-8.45C11.32-9.63 12.27-10.58 13.45-10.58C14.64-10.58 15.60-9.63 15.60-8.45C15.60-7.27 14.64-6.30 13.45-6.30ZM18.63-6.30C17.45-6.30 16.49-7.27 16.49-8.45C16.49-9.63 17.45-10.58 18.63-10.58C19.82-10.58 20.77-9.63 20.77-8.45C20.77-7.27 19.82-6.30 18.63-6.30ZM10.86-1.61C9.69-1.61 8.73-2.57 8.73-3.75C8.73-4.93 9.69-5.89 10.86-5.89C12.05-5.89 13.01-4.93 13.01-3.75C13.01-2.57 12.05-1.61 10.86-1.61ZM16.04-1.61C14.86-1.61 13.90-2.57 13.90-3.75C13.90-4.93 14.86-5.89 16.04-5.89C17.23-5.89 18.19-4.93 18.19-3.75C18.19-2.57 17.23-1.61 16.04-1.61Z" fill="currentColor"/>
</svg>