<svg xmlns="http://www.w3.org/2000/svg" viewBox="0 0 24 24" width="24" height="24">
  
  <path transform="matrix(0.6785950960901259, 0, 0, 0.6785950960901259, 0.982107355864811, 17.71257832487035)" d="M24.87-9.61C29.38-10.42 30.97-13.31 30.97-14.55C30.97-14.75 30.84-14.88 30.63-14.88C30.33-14.88 29.09-14.41 27.95-14.41C24.91-14.41 22.89-16.35 22.89-19.22C22.89-20.61 23.46-21.70 23.46-22.03C23.46-22.31 23.29-22.44 22.86-22.38C19.93-21.96 18.36-18.94 18.23-16.17C18.43-15.91 18.59-15.64 18.73-15.29C22.16-15.07 24.60-12.95 24.87-9.61ZM5.81-4.10L18.71-4.10C21.76-4.10 24.18-6.40 24.18-9.30C24.18-12.27 21.69-14.47 18.40-14.46C16.95-17.31 14.66-18.82 11.85-18.82C8.27-18.82 5.26-15.86 4.97-12.02C2.85-11.51 1.50-9.94 1.50-7.99C1.50-5.71 3.28-4.10 5.81-4.10ZM14.29 0.66L12.48 0.66L13.79-1.78C13.92-2.04 13.82-2.24 13.55-2.24L12.82-2.24C12.48-2.24 12.35-2.12 12.25-1.88L10.86 1.31C10.72 1.63 10.92 1.79 11.20 1.79L12.68 1.79L11.26 5.18C11.18 5.37 11.23 5.50 11.34 5.54C11.47 5.59 11.61 5.54 11.72 5.38L14.55 1.18C14.73 0.91 14.61 0.66 14.29 0.66Z" fill="currentColor"/>
</svg>