<svg xmlns="http://www.w3.org/2000/svg" viewBox="0 0 24 24" width="24" height="24">
  
  <path transform="matrix(0.6785950960901259, 0, 0, 0.6785950960901259, 0.982107355864811, 17.694217903142363)" d="M24.87-9.43C29.38-10.24 30.97-13.13 30.97-14.37C30.97-14.58 30.84-14.71 30.63-14.71C30.33-14.71 29.09-14.23 27.95-14.23C24.91-14.23 22.89-16.16 22.89-19.04C22.89-20.43 23.46-21.52 23.46-21.84C23.46-22.13 23.29-22.25 22.86-22.20C19.93-21.77 18.36-18.76 18.23-16.00C18.43-15.73 18.59-15.46 18.73-15.11C22.16-14.88 24.60-12.76 24.87-9.43ZM5.81-3.91L18.71-3.91C21.76-3.91 24.18-6.22 24.18-9.13C24.18-12.08 21.69-14.30 18.40-14.27C16.95-17.12 14.66-18.63 11.85-18.63C8.27-18.63 5.26-15.67 4.97-11.85C2.85-11.32 1.50-9.75 1.50-7.82C1.50-5.53 3.28-3.91 5.81-3.91ZM5.20 1.95L7.11-1.34C7.23-1.52 7.18-1.69 7.04-1.78C6.91-1.85 6.75-1.80 6.63-1.62L4.72 1.68C4.63 1.86 4.65 2.03 4.80 2.11C4.95 2.20 5.11 2.14 5.20 1.95ZM14.54 1.95L16.45-1.34C16.57-1.52 16.52-1.69 16.37-1.78C16.24-1.85 16.09-1.80 15.97-1.62L14.06 1.68C13.96 1.86 13.99 2.03 14.13 2.11C14.27 2.20 14.44 2.14 14.54 1.95ZM8.93 5.23L10.84 1.93C10.96 1.75 10.91 1.58 10.77 1.50C10.64 1.43 10.48 1.46 10.36 1.66L8.45 4.95C8.36 5.14 8.38 5.30 8.52 5.39C8.67 5.47 8.84 5.41 8.93 5.23ZM18.27 5.23L20.18 1.93C20.30 1.75 20.25 1.58 20.10 1.50C19.97 1.43 19.82 1.48 19.70 1.66L17.79 4.95C17.68 5.14 17.72 5.30 17.86 5.39C18 5.47 18.16 5.41 18.27 5.23Z" fill="currentColor"/>
</svg>