<svg xmlns="http://www.w3.org/2000/svg" viewBox="0 0 24 24" width="24" height="24">
  
  <path transform="matrix(0.7181519538162376, 0, 0, 0.7181519538162376, 1.1014830446246744, 17.12327024618491)" d="M7.13-4.02L21.91-4.02C25.48-4.02 28.25-6.70 28.25-10.08C28.25-13.51 25.36-16.05 21.60-16.05C20.13-19.09 17.65-21.06 14.03-21.06C9.86-21.06 6.43-17.60 6.08-13.25C3.88-12.68 2.10-10.99 2.10-8.55C2.10-6.08 3.95-4.02 7.13-4.02ZM16.25 1.25L14.45 1.25L16.02-1.76C16.15-2.02 16.04-2.23 15.77-2.23L15.05-2.23C14.71-2.23 14.58-2.10 14.47-1.85L12.83 1.91C12.69 2.23 12.89 2.39 13.17 2.39L14.65 2.39L13.00 6.41C12.93 6.60 12.97 6.73 13.09 6.77C13.21 6.82 13.36 6.77 13.46 6.61L16.52 1.78C16.70 1.51 16.58 1.25 16.25 1.25Z" fill="currentColor"/>
</svg>