<svg xmlns="http://www.w3.org/2000/svg" viewBox="0 0 24 24" width="24" height="24">
  <title>cloud.sun.rain.circle.fill</title>
  <path transform="matrix(0.8806329549363605, 0, 0, 0.8806329549363605, 0.15273477812177494, 19.440660474716204)" d="M13.45 2.91C19.70 2.91 24.81-2.20 24.81-8.45C24.81-14.70 19.70-19.80 13.45-19.80C7.21-19.80 2.10-14.70 2.10-8.45C2.10-2.20 7.21 2.91 13.45 2.91ZM16.34-14.29C16.18-14.29 16.05-14.41 16.05-14.54L16.05-16.32C16.05-16.46 16.18-16.58 16.34-16.58C16.51-16.58 16.62-16.46 16.62-16.32L16.62-14.54C16.62-14.41 16.51-14.29 16.34-14.29ZM13.32-13.20L12.07-14.44C11.96-14.54 11.96-14.73 12.07-14.84C12.19-14.93 12.35-14.94 12.47-14.82L13.71-13.57C13.82-13.46 13.82-13.28 13.71-13.17C13.59-13.08 13.44-13.08 13.32-13.20ZM18.98-13.20C18.87-13.29 18.87-13.49 18.98-13.57L20.24-14.82C20.36-14.94 20.52-14.93 20.61-14.82C20.72-14.72 20.72-14.55 20.61-14.44L19.38-13.20C19.27-13.08 19.09-13.08 18.98-13.20ZM19.22-10.54C19.22-9.41 18.62-8.48 17.71-7.93C17.51-9.52 16.21-10.66 14.52-10.84C14.29-11.21 14.03-11.55 13.72-11.85C14.20-12.79 15.18-13.44 16.34-13.44C17.94-13.44 19.22-12.15 19.22-10.54ZM7.70-4.68C6.21-4.68 5.32-5.66 5.32-6.82C5.32-7.97 6.09-8.74 7.09-9.04C7.30-10.97 8.87-12.50 10.76-12.50C12.33-12.50 13.48-11.61 14.18-10.31C15.89-10.25 17.18-9.07 17.18-7.51C17.18-5.94 15.87-4.68 14.23-4.68ZM20.34-10.28C20.18-10.28 20.06-10.39 20.06-10.54C20.06-10.70 20.18-10.82 20.34-10.82L22.10-10.82C22.27-10.82 22.38-10.70 22.38-10.54C22.38-10.39 22.27-10.28 22.10-10.28ZM20.24-6.26L18.98-7.51C18.87-7.63 18.87-7.80 18.98-7.91C19.09-8.00 19.28-8.03 19.38-7.91L20.61-6.66C20.73-6.54 20.72-6.38 20.61-6.26C20.52-6.18 20.33-6.15 20.24-6.26ZM7.93-1.59C7.84-1.44 7.66-1.41 7.54-1.48C7.38-1.57 7.32-1.75 7.41-1.89L8.33-3.47C8.41-3.62 8.59-3.67 8.73-3.59C8.87-3.50 8.94-3.32 8.85-3.18ZM11.65-1.58C11.57-1.43 11.38-1.38 11.25-1.46C11.10-1.55 11.04-1.72 11.13-1.88L12.05-3.46C12.14-3.60 12.32-3.64 12.45-3.57C12.60-3.48 12.66-3.30 12.56-3.16ZM9.38-0.69C9.29-0.54 9.12-0.49 8.98-0.57C8.84-0.66 8.78-0.84 8.86-0.98L9.61-2.27C9.70-2.43 9.88-2.45 10.01-2.39C10.17-2.32 10.22-2.13 10.13-1.98ZM13.10-0.68C13.01-0.53 12.83-0.48 12.70-0.55C12.55-0.64 12.49-0.82 12.59-0.97L13.34-2.26C13.42-2.41 13.59-2.44 13.73-2.38C13.90-2.31 13.95-2.11 13.85-1.97Z" fill="currentColor"/>
</svg>