<svg xmlns="http://www.w3.org/2000/svg" viewBox="0 0 24 24" width="24" height="24">
  <title>cloud.rain.circle.fill</title>
  <path transform="matrix(0.8806329549363605, 0, 0, 0.8806329549363605, 0.15273477812177494, 19.440660474716204)" d="M13.45 2.91C19.70 2.91 24.81-2.20 24.81-8.45C24.81-14.70 19.70-19.80 13.45-19.80C7.21-19.80 2.10-14.70 2.10-8.45C2.10-2.20 7.21 2.91 13.45 2.91ZM9.41-6.97C7.82-6.97 6.89-8.02 6.89-9.26C6.89-10.46 7.77-11.32 8.87-11.60C9.06-13.80 10.78-15.54 12.87-15.54C14.70-15.54 15.94-14.53 16.68-13.02C18.57-13.02 20.04-11.75 20.04-10.02C20.04-8.31 18.62-6.97 16.84-6.97ZM9.38-3.30C9.28-3.15 9.11-3.11 8.98-3.19C8.82-3.27 8.77-3.45 8.86-3.60L9.95-5.47C10.04-5.63 10.22-5.66 10.35-5.59C10.50-5.50 10.56-5.32 10.46-5.18ZM14.41-3.30C14.33-3.15 14.16-3.11 14.02-3.19C13.88-3.27 13.82-3.45 13.90-3.60L15-5.47C15.08-5.63 15.26-5.66 15.40-5.59C15.54-5.50 15.60-5.32 15.52-5.18ZM15.89-1.51C15.81-1.36 15.63-1.31 15.49-1.38C15.35-1.48 15.29-1.65 15.38-1.80L17.52-5.47C17.61-5.61 17.79-5.66 17.92-5.59C18.07-5.50 18.13-5.32 18.04-5.18ZM10.85-1.51C10.76-1.36 10.58-1.31 10.45-1.38C10.30-1.48 10.24-1.65 10.34-1.80L12.48-5.47C12.56-5.61 12.74-5.66 12.87-5.59C13.02-5.50 13.08-5.32 13.00-5.18Z" fill="currentColor"/>
</svg>