<svg xmlns="http://www.w3.org/2000/svg" viewBox="0 0 24 24" width="24" height="24">
  
  <path transform="matrix(0.7181519538162376, 0, 0, 0.7181519538162376, 1.1014830446246744, 17.12327024618491)" d="M7.13-4.02L21.91-4.02C25.48-4.02 28.25-6.70 28.25-10.08C28.25-13.51 25.36-16.05 21.60-16.05C20.13-19.09 17.65-21.06 14.03-21.06C9.86-21.06 6.43-17.60 6.08-13.25C3.88-12.68 2.10-10.99 2.10-8.55C2.10-6.08 3.95-4.02 7.13-4.02ZM16.25 1.25L14.45 1.25L16.02-1.76C16.15-2.02 16.04-2.23 15.77-2.23L15.05-2.23C14.71-2.23 14.58-2.10 14.47-1.85L12.83 1.91C12.69 2.23 12.89 2.39 13.17 2.39L14.65 2.39L13.00 6.41C12.93 6.60 12.97 6.73 13.09 6.77C13.21 6.82 13.36 6.77 13.46 6.61L16.52 1.78C16.70 1.51 16.58 1.25 16.25 1.25ZM5.19 1.78C5.33 1.88 5.50 1.82 5.60 1.63L7.51-1.66C7.63-1.85 7.58-2.02 7.43-2.10C7.30-2.18 7.15-2.13 7.03-1.95L5.12 1.35C5.02 1.54 5.05 1.70 5.19 1.78ZM20.88 1.78C21.04 1.88 21.19 1.82 21.29 1.63L23.20-1.66C23.32-1.85 23.27-2.02 23.13-2.10C23.00-2.18 22.84-2.13 22.72-1.95L20.81 1.35C20.71 1.54 20.74 1.70 20.88 1.78ZM7.57 5.06C7.72 5.14 7.88 5.09 7.98 4.90L9.89 1.62C10.01 1.42 9.96 1.27 9.82 1.17C9.68 1.10 9.53 1.15 9.41 1.34L7.50 4.62C7.39 4.82 7.43 4.97 7.57 5.06ZM23.26 5.06C23.41 5.14 23.57 5.09 23.67 4.90L25.58 1.62C25.70 1.42 25.65 1.27 25.51 1.17C25.38 1.10 25.22 1.15 25.10 1.34L23.19 4.62C23.09 4.82 23.12 4.97 23.26 5.06Z" fill="currentColor"/>
</svg>