<svg xmlns="http://www.w3.org/2000/svg" viewBox="0 0 24 24" width="24" height="24">
  <title>convertible.side.fill</title>
  <path transform="matrix(0.47752285021451224, 0, 0, 0.47752285021451224, 0.5730274202574146, 16.054068602000594)" d="M35.55-12.90C33.68-13.23 32.72-13.28 31.24-13.18L17.79-12.41C19.51-13.85 21.59-15.25 24.02-16.63C24.35-16.82 24.08-17.30 23.66-17.07C20.94-15.56 18.63-13.98 16.64-12.38L8.05-10.71C4.68-10.05 2.99-8.65 2.99-5.58L2.99-4.10C2.99-2.99 3.56-2.38 4.76-2.23L7.66-1.85C7.51-2.31 7.43-2.78 7.43-3.29C7.43-5.71 9.34-7.62 11.75-7.62C14.17-7.62 16.08-5.71 16.08-3.29C16.08-2.98 16.05-2.70 16.01-2.41L32.64-2.41C32.58-2.70 32.54-2.98 32.54-3.29C32.54-5.71 34.45-7.62 36.87-7.62C39.29-7.62 41.20-5.72 41.20-3.29C41.20-3.12 41.20-2.95 41.18-2.79L41.95-2.89C43.98-3.16 44.87-4.17 44.87-6.19L44.87-8.24C44.87-10.39 43.82-11.47 41.23-11.92ZM11.75 0.15C13.68 0.15 15.19-1.36 15.19-3.29C15.19-5.21 13.68-6.73 11.75-6.73C9.82-6.73 8.31-5.21 8.31-3.29C8.31-1.36 9.82 0.15 11.75 0.15ZM36.87 0.15C38.80 0.15 40.31-1.36 40.31-3.29C40.31-5.21 38.80-6.73 36.87-6.73C34.95-6.73 33.43-5.21 33.43-3.29C33.43-1.36 34.95 0.15 36.87 0.15Z" fill="currentColor"/>
</svg>