<svg xmlns="http://www.w3.org/2000/svg" viewBox="0 0 24 24" width="24" height="24">
  <title>convertible.side.hill.down.fill</title>
  <path transform="matrix(0.5147566766045604, 0, 0, 0.5147566766045604, 0.4632812347982569, 16.36999380687069)" d="M28.17-20.60C26.72-20.07 26.03-19.71 25.03-19.05L15.90-13.05C16.54-14.77 17.41-16.58 18.57-18.55C18.73-18.81 18.34-19.04 18.14-18.71C16.84-16.55 15.87-14.50 15.12-12.57L9.76-7.93C7.66-6.11 7.05-4.43 8.30-2.27L8.89-1.24C9.34-0.46 10.00-0.27 10.89-0.64L13.08-1.56C12.80-1.82 12.54-2.11 12.33-2.47C11.36-4.16 11.92-6.28 13.62-7.25C15.30-8.24 17.43-7.66 18.40-5.98C18.53-5.75 18.62-5.54 18.70-5.32L30.36-12.06C30.21-12.23 30.08-12.42 29.95-12.64C28.97-14.33 29.53-16.45 31.23-17.43C32.93-18.41 35.04-17.85 36.02-16.15C36.09-16.02 36.16-15.90 36.21-15.79L36.71-16.17C38.03-17.18 38.25-18.26 37.43-19.66L36.60-21.11C35.73-22.62 34.55-22.95 32.54-22.21ZM34.38-11.98C35.73-12.76 36.18-14.44 35.40-15.79C34.62-17.14 32.94-17.59 31.59-16.80C30.23-16.02 29.79-14.36 30.57-13.00C31.36-11.65 33.02-11.20 34.38-11.98ZM10.32 5.46C10.41 5.60 10.56 5.65 10.72 5.57L41.70-12.25C41.82-12.33 41.88-12.48 41.80-12.62C41.71-12.77 41.52-12.82 41.39-12.74L10.42 5.09C10.29 5.16 10.25 5.33 10.32 5.46ZM16.76-1.80C18.11-2.59 18.56-4.27 17.78-5.61C16.99-6.97 15.33-7.42 13.97-6.63C12.62-5.85 12.18-4.18 12.95-2.82C13.73-1.48 15.41-1.03 16.76-1.80ZM6.95 0.60L5.13-2.53C4.97-2.84 4.66-2.80 4.50-2.51L3.05 0.32C2.88 0.63 3.06 0.95 3.43 0.96L6.60 1.13C6.91 1.14 7.13 0.88 6.95 0.60Z" fill="currentColor"/>
</svg>