<svg xmlns="http://www.w3.org/2000/svg" viewBox="0 0 24 24" width="24" height="24">
  
  <path transform="matrix(0.7515044767356525, 0, 0, 0.7515044767356525, -0.2457067371202113, 18.34081902245707)" d="M26.59-17.79C28.55-17.79 29.60-16.71 29.60-14.78L29.60-13.91L2.99-13.91L2.99-14.78C2.99-16.73 4.03-17.79 6-17.79ZM7.09-1.89L8.86-3.16L10.62-1.89C10.76-1.79 10.92-1.89 10.86-2.07L10.18-4.14L11.95-5.41C12.06-5.47 12.02-5.71 11.85-5.71L9.68-5.71L9.01-7.77C8.96-7.93 8.75-7.93 8.70-7.77L8.03-5.71L5.86-5.71C5.68-5.71 5.63-5.50 5.75-5.39L7.52-4.14L6.87-2.07C6.79-1.89 6.96-1.79 7.09-1.89ZM6 0.91C4.03 0.91 2.99-0.13 2.99-2.09L2.99-11.37L29.60-11.37L29.60-2.09C29.60-0.15 28.55 0.91 26.59 0.91Z" fill="currentColor"/>
</svg>