<svg xmlns="http://www.w3.org/2000/svg" viewBox="0 0 24 24" width="24" height="24">
  <title>creditcard.viewfinder</title>
  <path transform="matrix(0.9351598173515981, 0, 0, 0.9351598173515981, -0.7945205479452055, 19.884931506849316)" d="M3.27-12.53C3.46-12.53 3.56-12.64 3.56-12.83L3.56-16.09C3.56-17.71 4.41-18.55 6.02-18.55L9.28-18.55C9.47-18.55 9.59-18.66 9.59-18.84C9.59-19.03 9.47-19.13 9.28-19.13L6-19.13C4.03-19.13 2.99-18.08 2.99-16.11L2.99-12.83C2.99-12.64 3.09-12.53 3.27-12.53ZM24.09-12.53C24.28-12.53 24.38-12.64 24.38-12.83L24.38-16.11C24.38-18.06 23.33-19.13 21.38-19.13L18.08-19.13C17.89-19.13 17.79-19.03 17.79-18.84C17.79-18.66 17.89-18.55 18.08-18.55L21.34-18.55C22.90-18.55 23.80-17.71 23.80-16.09L23.80-12.83C23.80-12.64 23.91-12.53 24.09-12.53ZM7.14-11.17L20.24-11.17L20.24-11.58C20.24-12.53 19.72-13.07 18.76-13.07L8.61-13.07C7.66-13.07 7.14-12.54 7.14-11.58ZM8.61-3.86L18.76-3.86C19.72-3.86 20.24-4.39 20.24-5.36L20.24-9.91L7.14-9.91L7.14-5.36C7.14-4.38 7.66-3.86 8.61-3.86ZM9.33-5.47C9-5.47 8.77-5.70 8.77-6.02L8.77-7.10C8.77-7.43 9-7.65 9.33-7.65L10.75-7.65C11.09-7.65 11.31-7.43 11.31-7.10L11.31-6.02C11.31-5.70 11.09-5.47 10.75-5.47ZM6 2.26L9.28 2.26C9.47 2.26 9.59 2.17 9.59 1.98C9.59 1.79 9.47 1.69 9.28 1.69L6.02 1.69C4.41 1.69 3.56 0.84 3.56-0.77L3.56-4.03C3.56-4.22 3.46-4.34 3.27-4.34C3.09-4.34 2.99-4.22 2.99-4.03L2.99-0.75C2.99 1.22 4.03 2.26 6 2.26ZM18.08 2.26L21.38 2.26C23.33 2.26 24.38 1.18 24.38-0.75L24.38-4.03C24.38-4.22 24.28-4.34 24.09-4.34C23.91-4.34 23.80-4.22 23.80-4.03L23.80-0.77C23.80 0.84 22.90 1.69 21.34 1.69L18.08 1.69C17.89 1.69 17.79 1.79 17.79 1.98C17.79 2.17 17.89 2.26 18.08 2.26Z" fill="currentColor"/>
</svg>