<svg xmlns="http://www.w3.org/2000/svg" viewBox="0 0 24 24" width="24" height="24">
  
  <path transform="matrix(0.7515044767356525, 0, 0, 0.7515044767356525, -0.2457067371202113, 18.34081902245707)" d="M6 0.91L26.59 0.91C28.55 0.91 29.60-0.15 29.60-2.09L29.60-14.78C29.60-16.71 28.55-17.79 26.59-17.79L6-17.79C4.03-17.79 2.99-16.73 2.99-14.78L2.99-2.09C2.99-0.13 4.03 0.91 6 0.91ZM3.56-14.74C3.56-16.37 4.41-17.21 6.02-17.21L26.55-17.21C28.13-17.21 29.03-16.37 29.03-14.74L29.03-14.21L3.56-14.21ZM6.02 0.34C4.41 0.34 3.56-0.49 3.56-2.12L3.56-11.67L29.03-11.67L29.03-2.12C29.03-0.49 28.13 0.34 26.55 0.34ZM7.42-2.36L10.29-2.36C10.98-2.36 11.44-2.82 11.44-3.48L11.44-5.66C11.44-6.32 10.98-6.79 10.29-6.79L7.42-6.79C6.73-6.79 6.26-6.32 6.26-5.66L6.26-3.48C6.26-2.82 6.73-2.36 7.42-2.36Z" fill="currentColor"/>
</svg>