<svg xmlns="http://www.w3.org/2000/svg" viewBox="0 0 24 24" width="24" height="24">
  
  <path transform="matrix(0.6895622895622896, 0, 0, 0.6895622895622896, -0.06060606060606055, 17.56767676767677)" d="M6 0.91L17.82 0.91L17.82 0.34L6.04 0.34C4.41 0.34 3.56-0.49 3.56-2.12L3.56-11.67L29.03-11.67L29.03-7.16C29.10-7.16 29.18-7.16 29.25-7.16C29.37-7.16 29.48-7.16 29.60-7.15L29.60-14.78C29.60-16.71 28.56-17.79 26.59-17.79L6-17.79C4.03-17.79 2.99-16.73 2.99-14.78L2.99-2.09C2.99-0.13 4.03 0.91 6 0.91ZM3.56-14.74C3.56-16.37 4.41-17.21 6.04-17.21L26.55-17.21C28.13-17.21 29.03-16.37 29.03-14.74L29.03-14.21L3.56-14.21ZM19.02 1.59C19.20 1.59 19.31 1.49 19.31 1.29L19.31-5.99C19.31-6.16 19.20-6.27 19.02-6.27C18.91-6.27 18.83-6.25 18.77-6.20L16.73-4.98C16.64-4.92 16.58-4.82 16.58-4.70C16.58-4.52 16.72-4.41 16.89-4.41C16.96-4.41 17.02-4.42 17.07-4.46L18.68-5.41L18.71-5.41L18.71 1.29C18.71 1.46 18.84 1.59 19.02 1.59ZM21.26 1.62L25.84 1.62C26.00 1.62 26.14 1.50 26.14 1.32C26.14 1.15 26.00 1.03 25.84 1.03L21.90 1.03L21.90 1.01L24.08-1.31C25.43-2.74 25.76-3.30 25.76-4.07C25.76-5.32 24.71-6.27 23.36-6.27C22.31-6.27 21.43-5.72 21.08-4.88C21-4.65 20.92-4.39 20.92-4.17C20.92-3.98 21.04-3.84 21.22-3.84C21.39-3.84 21.53-3.98 21.52-4.14C21.54-4.32 21.56-4.48 21.62-4.61C21.91-5.29 22.56-5.70 23.36-5.70C24.34-5.70 25.14-4.97 25.14-4.07C25.14-3.47 24.84-3 23.63-1.71L21.05 1.03C20.95 1.14 20.92 1.22 20.92 1.31C20.92 1.50 21.07 1.62 21.26 1.62ZM29.33 1.64C30.87 1.64 31.99 0.69 31.99-0.62C31.99-1.57 31.42-2.29 30.60-2.53C31.28-2.87 31.66-3.49 31.66-4.24C31.66-5.41 30.63-6.27 29.25-6.27C28.10-6.27 27.14-5.66 26.89-4.69C26.85-4.54 26.85-4.41 26.85-4.30C26.85-4.11 26.95-3.98 27.14-3.98C27.33-3.98 27.42-4.11 27.45-4.32C27.59-5.13 28.32-5.70 29.25-5.70C30.29-5.70 31.05-5.07 31.05-4.24C31.05-3.38 30.29-2.75 29.18-2.75L28.41-2.75C28.23-2.75 28.11-2.64 28.11-2.46C28.11-2.29 28.23-2.17 28.41-2.17L29.18-2.17C30.57-2.17 31.38-1.61 31.38-0.62C31.38 0.34 30.52 1.07 29.33 1.07C28.24 1.07 27.39 0.46 27.27-0.38C27.23-0.56 27.14-0.68 26.96-0.68C26.77-0.68 26.67-0.55 26.67-0.36C26.67-0.22 26.70-0.11 26.73 0C27.02 1.00 28.04 1.64 29.33 1.64Z" fill="currentColor"/>
</svg>