<svg xmlns="http://www.w3.org/2000/svg" viewBox="0 0 24 24" width="24" height="24">
  
  <path transform="matrix(0.8806329549363605, 0, 0, 0.8806329549363605, 0.15273477812177494, 19.45098039215686)" d="M13.45 2.89C19.73 2.89 24.81-2.19 24.81-8.46C24.81-14.74 19.73-19.82 13.45-19.82C7.18-19.82 2.10-14.74 2.10-8.46C2.10-2.19 7.18 2.89 13.45 2.89ZM13.45 2.32C7.49 2.32 2.67-2.50 2.67-8.46C2.67-14.43 7.49-19.24 13.45-19.24C19.42-19.24 24.23-14.43 24.23-8.46C24.23-2.50 19.42 2.32 13.45 2.32ZM17.13-13.39L16.01-12.27C15.90-12.15 15.70-12.15 15.59-12.27C15.47-12.39 15.47-12.59 15.59-12.70L16.63-13.76C15.69-14.32 14.61-14.65 13.45-14.65C10.09-14.65 7.27-11.81 7.27-8.45C7.27-7.31 7.59-6.21 8.17-5.29L9.21-6.33C9.33-6.45 9.53-6.45 9.64-6.33C9.76-6.21 9.76-6.02 9.64-5.92L8.51-4.78C8.63-4.62 8.77-4.46 8.89-4.31L17.60-13.02C17.45-13.16 17.30-13.28 17.13-13.39ZM18.73-11.63L17.70-10.59C17.58-10.48 17.39-10.48 17.26-10.59C17.14-10.71 17.14-10.91 17.26-11.00L18.39-12.14C18.27-12.30 18.15-12.46 18.01-12.61L9.32-3.90C9.46-3.77 9.61-3.63 9.76-3.52L10.91-4.65C11.02-4.77 11.20-4.77 11.32-4.65C11.45-4.54 11.45-4.34 11.32-4.22L10.28-3.18C11.20-2.59 12.30-2.26 13.45-2.26C16.82-2.26 19.65-5.10 19.65-8.45C19.65-9.60 19.31-10.70 18.73-11.63ZM15.06-11.33L14.18-10.45C14.06-10.32 13.88-10.32 13.76-10.45C13.64-10.57 13.64-10.75 13.76-10.86L14.63-11.74C14.74-11.87 14.94-11.87 15.06-11.74C15.18-11.63 15.18-11.44 15.06-11.33ZM16.75-9.63L15.86-8.77C15.74-8.65 15.56-8.65 15.45-8.77C15.32-8.88 15.32-9.07 15.45-9.19L16.32-10.07C16.43-10.18 16.62-10.18 16.75-10.07C16.86-9.95 16.86-9.75 16.75-9.63ZM13.25-9.52L12.36-8.64C12.25-8.52 12.07-8.52 11.95-8.64C11.84-8.75 11.84-8.95 11.95-9.06L12.83-9.94C12.94-10.05 13.13-10.05 13.25-9.94C13.37-9.82 13.37-9.62 13.25-9.52ZM14.93-7.84L14.05-6.96C13.95-6.84 13.75-6.84 13.63-6.96C13.51-7.08 13.51-7.25 13.63-7.37L14.51-8.26C14.61-8.38 14.81-8.38 14.93-8.26C15.05-8.13 15.05-7.95 14.93-7.84ZM11.45-7.72L10.58-6.86C10.46-6.74 10.28-6.74 10.16-6.86C10.05-6.96 10.05-7.16 10.16-7.28L11.04-8.14C11.16-8.26 11.36-8.26 11.45-8.14C11.58-8.04 11.58-7.84 11.45-7.72ZM13.14-6.05L12.27-5.17C12.15-5.06 11.95-5.06 11.85-5.17C11.73-5.29 11.73-5.47 11.85-5.59L12.71-6.46C12.83-6.59 13.03-6.59 13.14-6.46C13.25-6.36 13.25-6.16 13.14-6.05Z" fill="currentColor"/>
</svg>