<svg xmlns="http://www.w3.org/2000/svg" viewBox="0 0 24 24" width="24" height="24">
  
  <path transform="matrix(0.8337404331542094, 0, 0, 0.8337404331542094, -0.4914509037616024, 18.76599902296043)" d="M2.99-13.78C2.99-13.61 3.13-13.49 3.28-13.49L8.98-13.49L8.98-2.70C8.98-2.37 9.16-2.17 9.49-2.17L20.41-2.17L20.41 3.52C20.41 3.66 20.52 3.82 20.68 3.82C20.86 3.82 20.99 3.66 20.99 3.52L20.99-2.17L26.70-2.17C26.84-2.17 26.98-2.29 26.98-2.46C26.98-2.64 26.84-2.75 26.70-2.75L20.99-2.75L20.99-13.55C20.99-13.88 20.80-14.06 20.47-14.06L9.55-14.06L9.55-19.76C9.55-19.90 9.46-20.05 9.28-20.05C9.11-20.05 8.98-19.90 8.98-19.76L8.98-14.06L3.28-14.06C3.13-14.06 2.99-13.95 2.99-13.78ZM9.77-2.75C9.64-2.75 9.55-2.84 9.55-2.98L9.55-13.49L20.19-13.49C20.32-13.49 20.41-13.39 20.41-13.27L20.41-2.75Z" fill="currentColor"/>
</svg>