<svg xmlns="http://www.w3.org/2000/svg" viewBox="0 0 24 24" width="24" height="24">
  
  <path transform="matrix(0.8806329549363605, 0, 0, 0.8806329549363605, 0.15273477812177494, 19.440660474716204)" d="M13.45 2.91C19.70 2.91 24.81-2.20 24.81-8.45C24.81-14.70 19.70-19.80 13.45-19.80C7.21-19.80 2.10-14.70 2.10-8.45C2.10-2.20 7.21 2.91 13.45 2.91ZM7.41-7.42L7.41-9.55C7.41-10.24 7.88-10.70 8.55-10.70L11.25-10.70L11.25-13.39C11.25-14.07 11.71-14.54 12.40-14.54L14.53-14.54C15.21-14.54 15.68-14.07 15.68-13.39L15.68-10.70L18.36-10.70C19.05-10.70 19.51-10.24 19.51-9.55L19.51-7.42C19.51-6.74 19.05-6.27 18.36-6.27L15.68-6.27L15.68-3.59C15.68-2.89 15.21-2.43 14.53-2.43L12.40-2.43C11.71-2.43 11.25-2.89 11.25-3.59L11.25-6.27L8.55-6.27C7.88-6.27 7.41-6.74 7.41-7.42Z" fill="currentColor"/>
</svg>