<svg xmlns="http://www.w3.org/2000/svg" viewBox="0 0 24 24" width="24" height="24">
  <title>cruzeirosign.square</title>
  <path transform="matrix(0.9752380952380952, 0, 0, 0.9752380952380952, -0.9142857142857141, 20.251428571428573)" d="M6 1.79L20.48 1.79C22.44 1.79 23.50 0.71 23.50-1.22L23.50-15.70C23.50-17.64 22.44-18.71 20.48-18.71L6-18.71C4.03-18.71 2.99-17.67 2.99-15.70L2.99-1.22C2.99 0.75 4.03 1.79 6 1.79ZM6.02 1.22C4.41 1.22 3.56 0.38 3.56-1.25L3.56-15.68C3.56-17.30 4.41-18.14 6.02-18.14L20.45-18.14C22.02-18.14 22.92-17.30 22.92-15.68L22.92-1.25C22.92 0.38 22.02 1.22 20.45 1.22ZM13.50-3.61C15.28-3.61 16.75-4.57 17.11-6.13C17.13-6.22 17.14-6.35 17.14-6.40C17.14-6.56 17.05-6.70 16.88-6.70C16.71-6.70 16.59-6.60 16.56-6.42C16.30-5.05 15.08-4.20 13.54-4.18L13.54-6.06C13.54-7.35 14.21-8.33 15.48-8.33C15.89-8.33 16.03-8.23 16.17-8.23C16.30-8.23 16.37-8.32 16.37-8.45C16.37-8.52 16.34-8.58 16.28-8.63C16.09-8.77 15.71-8.80 15.49-8.80C14.38-8.80 13.75-8.03 13.54-7.34L13.50-7.34L13.50-8.54C13.50-8.68 13.43-8.78 13.30-8.78C13.16-8.78 13.08-8.68 13.08-8.54L13.08-4.21C10.98-4.42 9.98-6.26 9.98-8.52C9.98-10.89 11.13-12.80 13.50-12.80C15.02-12.80 16.25-11.81 16.52-10.46C16.55-10.31 16.63-10.20 16.82-10.20C17.00-10.20 17.11-10.30 17.11-10.49C17.11-10.55 17.09-10.64 17.07-10.70C16.72-12.27 15.26-13.36 13.50-13.36C10.75-13.36 9.33-11.26 9.33-8.52C9.33-5.84 10.70-3.61 13.50-3.61Z" fill="currentColor"/>
</svg>