<svg xmlns="http://www.w3.org/2000/svg" viewBox="0 0 24 24" width="24" height="24">
  <title>cup.and.saucer.fill</title>
  <path transform="matrix(0.7284108692559397, 0, 0, 0.7284108692559397, -0.17669654289372616, 18.150234741784036)" d="M16.41-2.88L16.98-2.88C21.40-2.88 24.35-4.91 25.65-8.12L26.43-8.12C28.42-8.12 29.74-9.33 29.74-11.14C29.74-12.95 28.42-14.16 26.43-14.16L26.41-14.16L26.41-14.46C26.41-16.76 22.38-18.54 16.71-18.54C11.03-18.54 7.00-16.76 7.00-14.46L7.00-12.33C7.00-6.77 10.29-2.88 16.41-2.88ZM16.71-10.97C11.37-10.97 7.57-12.52 7.57-14.46C7.57-16.42 11.37-17.96 16.71-17.96C22.04-17.96 25.84-16.42 25.84-14.46C25.84-12.52 22.04-10.97 16.71-10.97ZM26.41-12.33L26.41-13.59L26.43-13.59C28.07-13.59 29.18-12.62 29.18-11.14C29.18-9.68 28.07-8.68 26.43-8.68L25.86-8.68C26.23-9.79 26.41-11.02 26.41-12.33ZM16.71 1.65C24.64 1.65 30.45-0.55 30.45-3.61C30.45-5.03 29.18-6.32 26.94-7.25C26.66-7.23 26.51-7.23 26.24-7.23C24.63-3.87 21.33-2.00 16.98-2.00L16.41-2.00C11.89-2.00 8.60-4.02 7.07-7.46C4.43-6.50 2.99-5.12 2.99-3.61C2.99-0.55 8.78 1.65 16.71 1.65Z" fill="currentColor"/>
</svg>