<svg xmlns="http://www.w3.org/2000/svg" viewBox="0 0 24 24" width="24" height="24">
  <title>d.square.fill</title>
  <path transform="matrix(0.9752380952380952, 0, 0, 0.9752380952380952, -0.9142857142857141, 20.251428571428573)" d="M6 1.79L20.48 1.79C22.44 1.79 23.50 0.71 23.50-1.22L23.50-15.70C23.50-17.64 22.44-18.71 20.48-18.71L6-18.71C4.03-18.71 2.99-17.67 2.99-15.70L2.99-1.22C2.99 0.75 4.03 1.79 6 1.79ZM9.89-3.29C9.71-3.29 9.62-3.42 9.62-3.62L9.62-13.27C9.62-13.46 9.71-13.59 9.89-13.59L13.00-13.59C15.89-13.59 17.72-11.63 17.72-8.50C17.72-5.16 15.90-3.29 13.00-3.29ZM10.22-3.87L12.93-3.87C15.41-3.87 17.04-5.44 17.04-8.47C17.04-11.32 15.40-13.02 12.93-13.02L10.22-13.02Z" fill="currentColor"/>
</svg>