<svg xmlns="http://www.w3.org/2000/svg" viewBox="0 0 24 24" width="24" height="24">
  <title>danishkronesign.bank.building.fill</title>
  <path transform="matrix(0.8436315702751689, 0, 0, 0.8436315702751689, -0.5210084033613445, 19.13791398912506)" d="M3.27 3.27L26.41 3.27C26.57 3.27 26.70 3.14 26.70 2.98C26.70 2.82 26.57 2.70 26.41 2.70L25.77 2.70L25.77 2.00C25.77 1.90 25.68 1.80 25.55 1.80L24.81 1.80L24.81-13.46L25.96-13.46C26.17-13.46 26.26-13.59 26.26-13.76C26.26-13.84 26.21-13.96 26.09-14.03L15.96-19.88C15.60-20.09 15.21-20.19 14.85-20.19C14.47-20.19 14.09-20.09 13.72-19.88L3.60-14.03C3.47-13.96 3.42-13.84 3.42-13.76C3.42-13.59 3.52-13.46 3.73-13.46L4.89-13.46L4.89 1.80L4.14 1.80C4.01 1.80 3.91 1.90 3.91 2.00L3.91 2.70L3.27 2.70C3.12 2.70 2.99 2.82 2.99 2.98C2.99 3.14 3.12 3.27 3.27 3.27ZM10.76-1.97C10.58-1.97 10.46-2.10 10.46-2.29L10.46-12.19C10.46-12.39 10.58-12.52 10.76-12.52C10.93-12.52 11.05-12.39 11.05-12.19L11.05-5.67L11.11-5.67L14.52-9.46C14.58-9.53 14.65-9.56 14.72-9.56C14.87-9.56 14.99-9.45 14.99-9.32C14.99-9.22 14.95-9.18 14.89-9.11L12.29-6.27L15-2.44C15.06-2.36 15.07-2.29 15.07-2.23C15.07-2.07 14.95-1.97 14.79-1.97C14.71-1.97 14.63-2.00 14.57-2.09L11.88-5.88L11.05-5.02L11.05-2.29C11.05-2.10 10.93-1.97 10.76-1.97ZM16.96-1.97C16.78-1.97 16.68-2.09 16.68-2.29L16.68-9.27C16.68-9.45 16.78-9.56 16.95-9.56C17.11-9.56 17.20-9.45 17.20-9.27L17.20-8.03L17.31-8.03C17.51-8.88 18-9.56 18.84-9.56C19.14-9.56 19.51-9.46 19.51-9.16C19.51-9.05 19.42-8.95 19.25-8.95C19.11-8.95 18.96-8.99 18.81-8.99C17.64-8.99 17.24-7.65 17.24-6.66L17.24-2.29C17.24-2.09 17.13-1.97 16.96-1.97ZM20.34-1.98C20.05-1.98 19.82-2.20 19.82-2.50C19.82-2.79 20.05-3.04 20.34-3.04C20.64-3.04 20.88-2.79 20.88-2.50C20.88-2.20 20.64-1.98 20.34-1.98Z" fill="currentColor"/>
</svg>