<svg xmlns="http://www.w3.org/2000/svg" viewBox="0 0 24 24" width="24" height="24">
  <title>dice</title>
  <path transform="matrix(0.8516300731869594, 0, 0, 0.8516300731869594, -0.5449101796407185, 19.18063872255489)" d="M6-1.77L8.67-1.77L8.67-0.30C8.67 1.66 9.71 2.71 11.68 2.71L23.47 2.71C25.43 2.71 26.47 1.63 26.47-0.30L26.47-12.09C26.47-14.03 25.43-15.11 23.47-15.11L20.79-15.11L20.79-16.56C20.79-18.49 19.75-19.57 17.79-19.57L6-19.57C4.03-19.57 2.99-18.53 2.99-16.56L2.99-4.77C2.99-2.81 4.03-1.77 6-1.77ZM6.02-2.34C4.41-2.34 3.56-3.18 3.56-4.80L3.56-16.54C3.56-18.15 4.41-19.00 6.02-19.00L17.75-19.00C19.31-19.00 20.21-18.15 20.21-16.54L20.21-15.11L11.68-15.11C9.71-15.11 8.67-14.05 8.67-12.09L8.67-2.34ZM11.71 2.13C10.09 2.13 9.25 1.29 9.25-0.33L9.25-12.06C9.25-13.69 10.09-14.53 11.71-14.53L23.44-14.53C25.00-14.53 25.90-13.69 25.90-12.06L25.90-0.33C25.90 1.29 25.00 2.13 23.44 2.13ZM12.59-9.70C13.41-9.68 14.10-10.37 14.10-11.21C14.10-12.05 13.41-12.71 12.59-12.71C11.75-12.71 11.07-12.05 11.07-11.21C11.07-10.37 11.75-9.71 12.59-9.70ZM22.58-9.70C23.40-9.68 24.07-10.37 24.07-11.21C24.07-12.05 23.40-12.71 22.58-12.71C21.75-12.71 21.06-12.05 21.06-11.21C21.06-10.37 21.75-9.71 22.58-9.70ZM17.58-4.66C18.40-4.66 19.09-5.36 19.09-6.20C19.09-7.02 18.40-7.69 17.58-7.69C16.75-7.69 16.08-7.02 16.08-6.20C16.08-5.36 16.75-4.66 17.58-4.66ZM12.59 0.33C13.41 0.33 14.07-0.35 14.07-1.18C14.07-2.02 13.41-2.70 12.59-2.70C11.75-2.70 11.07-2.02 11.07-1.18C11.07-0.35 11.75 0.33 12.59 0.33ZM22.58 0.33C23.40 0.33 24.07-0.35 24.07-1.18C24.07-2.02 23.40-2.70 22.58-2.70C21.75-2.70 21.07-2.02 21.07-1.18C21.07-0.35 21.75 0.33 22.58 0.33Z" fill="currentColor"/>
</svg>