<svg xmlns="http://www.w3.org/2000/svg" viewBox="0 0 24 24" width="24" height="24">
  
  <path transform="matrix(0.863697705802969, 0, 0, 0.863697705802969, 0.04149797570850122, 20.087044534412957)" d="M16.52-14.95L14.14-14.95L14.14-20.65C14.14-20.84 14.02-20.94 13.84-20.94C13.65-20.94 13.55-20.84 13.55-20.65L13.55-14.95L11.16-14.95C10.75-14.95 10.59-14.48 10.85-14.17L13.41-10.98C13.62-10.70 14.04-10.68 14.29-10.98L16.84-14.17C17.10-14.48 16.93-14.95 16.52-14.95ZM13.84 2.21C20.36 2.21 24.70 0.34 24.70-3.95L24.70-8.19C24.70-10.54 21.64-12.23 16.82-12.73L16.38-12.18C21.12-11.78 24.13-10.23 24.13-8.19C24.13-5.81 19.99-4.10 13.84-4.10C7.70-4.10 3.56-5.81 3.56-8.19C3.56-10.22 6.57-11.78 11.32-12.18L10.88-12.71C6.05-12.23 2.99-10.54 2.99-8.19L2.99-3.95C2.99 0.34 7.34 2.21 13.84 2.21ZM6.66-2.44L6.66-4.55C7.54-4.24 8.54-4.00 9.67-3.82L9.67-1.52C9.67-1.37 9.80-1.23 9.96-1.23C10.11-1.23 10.25-1.37 10.25-1.52L10.25-3.74C11.27-3.61 12.38-3.54 13.56-3.53L13.56-1.23C13.56-1.07 13.69-0.94 13.85-0.94C14.00-0.94 14.13-1.07 14.13-1.23L14.13-3.53C15.32-3.54 16.43-3.61 17.45-3.74L17.45-1.52C17.45-1.37 17.58-1.23 17.73-1.23C17.89-1.23 18.02-1.37 18.02-1.52L18.02-3.82C19.15-4.00 20.17-4.24 21.04-4.55L21.04-2.44C21.04-2.29 21.16-2.16 21.33-2.16C21.48-2.16 21.62-2.29 21.62-2.44L21.62-4.77C22.76-5.25 23.61-5.84 24.13-6.54L24.13-3.95C24.13 0 20.00 1.64 13.84 1.64C7.69 1.64 3.56 0 3.56-3.95L3.56-6.54C4.08-5.84 4.93-5.24 6.08-4.77L6.08-2.44C6.08-2.29 6.21-2.16 6.36-2.16C6.53-2.16 6.66-2.29 6.66-2.44Z" fill="currentColor"/>
</svg>