<svg xmlns="http://www.w3.org/2000/svg" viewBox="0 0 24 24" width="24" height="24">
  
  <path transform="matrix(0.7649783355744808, 0, 0, 0.7649783355744808, -0.28597041685342894, 19.915732855221876)" d="M12.05-13.46C11.91-13.46 11.79-13.34 11.79-13.20C11.79-13.13 11.82-13.07 11.88-13.01L15.88-9.01C15.93-8.95 16.01-8.92 16.08-8.92C16.15-8.92 16.22-8.95 16.28-9.01L20.26-13.01C20.31-13.07 20.34-13.13 20.34-13.20C20.34-13.34 20.21-13.46 20.09-13.46C20.02-13.46 19.92-13.43 19.86-13.37L17.29-10.77L16.35-9.83L16.36-11.44L16.36-23.13C16.36-23.29 16.23-23.41 16.08-23.41C15.91-23.41 15.79-23.29 15.79-23.13L15.79-11.44L15.80-9.82L14.86-10.77L12.27-13.37C12.21-13.43 12.12-13.46 12.05-13.46ZM4.28-0.96L12.70-0.96L12.70 2.14L12.40 2.14C12.22 2.14 12.09 2.26 12.09 2.44C12.09 2.61 12.22 2.72 12.40 2.72L19.72 2.72C19.90 2.72 20.03 2.61 20.03 2.44C20.03 2.26 19.90 2.14 19.72 2.14L19.42 2.14L19.42-0.96L27.84-0.96C28.62-0.96 29.13-1.48 29.13-2.25L29.13-17.72C29.13-18.49 28.62-19.01 27.84-19.01L17.82-19.01L17.82-18.43L27.80-18.43C28.25-18.43 28.56-18.13 28.56-17.68L28.56-2.29C28.56-1.84 28.25-1.54 27.80-1.54L4.32-1.54C3.86-1.54 3.56-1.84 3.56-2.29L3.56-17.68C3.56-18.13 3.86-18.43 4.32-18.43L14.29-18.43L14.29-19.01L4.28-19.01C3.50-19.01 2.99-18.49 2.99-17.72L2.99-2.25C2.99-1.48 3.50-0.96 4.28-0.96Z" fill="currentColor"/>
</svg>