<svg xmlns="http://www.w3.org/2000/svg" viewBox="0 0 24 24" width="24" height="24">
  
  <path transform="matrix(0.8107680126682502, 0, 0, 0.8107680126682502, 0.6175771971496449, 18.84560570071259)" d="M4.49 1.58L6.73 1.58L6.73 3.60C6.73 3.75 6.86 3.89 7.02 3.89C7.17 3.89 7.30 3.75 7.30 3.60L7.30 1.58L9.54 1.58C10.43 1.58 11.04 0.97 11.04 0.07L11.04-16.97C11.04-17.87 10.43-18.47 9.54-18.47L7.30-18.47L7.30-20.48C7.30-20.65 7.17-20.78 7.02-20.78C6.86-20.78 6.73-20.65 6.73-20.48L6.73-18.47L4.49-18.47C3.60-18.47 2.99-17.87 2.99-16.97L2.99 0.07C2.99 0.97 3.60 1.58 4.49 1.58ZM18.55-2.17L20.78-2.17L20.78 3.60C20.78 3.75 20.91 3.89 21.07 3.89C21.22 3.89 21.36 3.75 21.36 3.60L21.36-2.17L23.59-2.17C24.49-2.17 25.09-2.78 25.09-3.67L25.09-13.23C25.09-14.12 24.49-14.73 23.59-14.73L21.36-14.73L21.36-20.48C21.36-20.65 21.22-20.78 21.07-20.78C20.91-20.78 20.78-20.65 20.78-20.48L20.78-14.73L18.55-14.73C17.65-14.73 17.04-14.12 17.04-13.23L17.04-3.67C17.04-2.78 17.65-2.17 18.55-2.17ZM4.52 1.01C3.95 1.01 3.56 0.61 3.56 0.05L3.56-16.95C3.56-17.51 3.95-17.89 4.52-17.89L9.50-17.89C10.08-17.89 10.46-17.51 10.46-16.95L10.46 0.05C10.46 0.61 10.08 1.01 9.50 1.01ZM18.57-2.74C18.01-2.74 17.61-3.13 17.61-3.70L17.61-13.20C17.61-13.76 18.01-14.16 18.57-14.16L23.57-14.16C24.13-14.16 24.52-13.76 24.52-13.20L24.52-3.70C24.52-3.13 24.13-2.74 23.57-2.74Z" fill="currentColor"/>
</svg>