<svg xmlns="http://www.w3.org/2000/svg" viewBox="0 0 24 24" width="24" height="24">
  <title>dongsign.circle</title>
  <path transform="matrix(0.8806329549363605, 0, 0, 0.8806329549363605, 0.15273477812177494, 19.45098039215686)" d="M13.45 2.89C19.73 2.89 24.81-2.19 24.81-8.46C24.81-14.74 19.73-19.82 13.45-19.82C7.18-19.82 2.10-14.74 2.10-8.46C2.10-2.19 7.18 2.89 13.45 2.89ZM13.45 2.32C7.49 2.32 2.67-2.50 2.67-8.46C2.67-14.43 7.49-19.24 13.45-19.24C19.42-19.24 24.23-14.43 24.23-8.46C24.23-2.50 19.42 2.32 13.45 2.32ZM12.94-4.85C13.97-4.85 14.92-5.31 15.38-6.48L15.43-6.48L15.43-5.09C15.43-4.92 15.57-4.79 15.73-4.79C15.89-4.79 16.02-4.92 16.02-5.09L16.02-12.38L17.03-12.38C17.14-12.38 17.25-12.48 17.25-12.60C17.25-12.71 17.14-12.82 17.03-12.82L16.02-12.82L16.02-13.62C16.02-13.80 15.90-13.92 15.73-13.92C15.54-13.92 15.42-13.80 15.42-13.62L15.42-12.82L13.09-12.82C12.97-12.82 12.87-12.71 12.87-12.60C12.87-12.48 12.97-12.38 13.09-12.38L15.42-12.38L15.42-9.52L15.35-9.52C14.94-10.55 14.05-11.12 12.94-11.12C11.34-11.12 10.10-9.80 10.10-7.98C10.10-5.99 11.48-4.85 12.94-4.85ZM13.07-5.39C11.64-5.39 10.72-6.54 10.72-7.98C10.72-9.43 11.65-10.57 13.07-10.57C14.46-10.57 15.39-9.42 15.39-7.98C15.39-6.53 14.45-5.39 13.07-5.39ZM10.56-3.61C10.56-3.47 10.66-3.39 10.78-3.39L16.15-3.39C16.27-3.39 16.37-3.49 16.37-3.61C16.37-3.73 16.27-3.83 16.15-3.83L10.78-3.83C10.66-3.83 10.56-3.73 10.56-3.61Z" fill="currentColor"/>
</svg>