<svg xmlns="http://www.w3.org/2000/svg" viewBox="0 0 24 24" width="24" height="24">
  
  <path transform="matrix(0.7761103531908443, 0, 0, 0.7761103531908443, -0.3192360163710779, 18.566621191450658)" d="M3.27 3.28C3.47 3.28 3.57 3.16 3.57 3L3.57-19.02C3.57-19.39 3.82-19.63 4.16-19.63L27.57-19.63C27.93-19.63 28.16-19.39 28.16-19.02L28.16 3C28.16 3.16 28.28 3.28 28.46 3.28C28.64 3.28 28.76 3.16 28.76 3L28.76-19.13C28.76-19.77 28.30-20.20 27.61-20.20L4.14-20.20C3.45-20.20 2.99-19.77 2.99-19.13L2.99 3C2.99 3.16 3.11 3.28 3.27 3.28ZM4.46 2.82C4.46 2.95 4.57 2.99 4.69 2.95L12.05 0.83C12.18 0.80 12.27 0.67 12.27 0.53L12.27-16.29C12.27-16.44 12.21-16.55 12.09-16.57L4.64-18.74C4.57-18.75 4.46-18.73 4.46-18.61ZM27.27 2.82L27.27-18.61C27.27-18.73 27.18-18.75 27.09-18.74L19.65-16.57C19.54-16.55 19.48-16.44 19.48-16.29L19.48 0.53C19.48 0.67 19.56 0.80 19.69 0.83L27.06 2.95C27.18 2.99 27.27 2.95 27.27 2.82ZM10.64-11.57L6.16-11.88C6.06-11.88 6-11.94 6-12.08L6-16.32C6-16.46 6.12-16.50 6.21-16.49L10.66-15.55C10.77-15.53 10.84-15.47 10.84-15.35L10.84-11.77C10.84-11.65 10.79-11.55 10.64-11.57ZM21.09-11.57C20.94-11.55 20.91-11.65 20.91-11.77L20.91-15.35C20.91-15.47 20.98-15.53 21.08-15.55L25.52-16.49C25.62-16.50 25.73-16.46 25.73-16.32L25.73-12.08C25.73-11.94 25.68-11.88 25.57-11.88ZM6-5.70L6-10.05C6-10.17 6.08-10.27 6.20-10.27L10.66-10.04C10.79-10.04 10.84-9.94 10.84-9.82L10.84-5.93C10.84-5.80 10.78-5.74 10.66-5.74L6.18-5.50C6.06-5.50 6-5.58 6-5.70ZM25.73-5.70C25.73-5.58 25.68-5.50 25.56-5.50L21.08-5.74C20.96-5.74 20.91-5.80 20.91-5.93L20.91-9.82C20.91-9.94 20.94-10.04 21.08-10.04L25.55-10.27C25.66-10.27 25.73-10.17 25.73-10.05ZM21.18-4.20L25.51-3.91C25.65-3.89 25.73-3.82 25.73-3.70L25.73 0.53C25.73 0.67 25.65 0.73 25.52 0.69L21.04-0.43C20.94-0.45 20.91-0.54 20.91-0.60L20.91-4.02C20.91-4.15 21.01-4.21 21.18-4.20ZM10.57-4.20C10.73-4.21 10.84-4.15 10.84-4.02L10.84-0.60C10.84-0.54 10.79-0.45 10.71-0.43L6.21 0.69C6.09 0.73 6 0.67 6 0.53L6-3.70C6-3.82 6.09-3.89 6.22-3.91Z" fill="currentColor"/>
</svg>