<svg xmlns="http://www.w3.org/2000/svg" viewBox="0 0 24 24" width="24" height="24">
  <title>earbud.right</title>
  <path transform="matrix(1.038118410381184, 0, 0, 1.038118410381184, 2.468369829683699, 20.722627737226276)" d="M6.77-9.25C8.84-9.25 10.29-11.06 10.29-13.64C10.29-16.23 8.84-18.04 6.77-18.04C4.56-18.04 2.99-16.23 2.99-13.64C2.99-11.06 4.56-9.25 6.77-9.25ZM10.23-17.72C10.07-17.72 9.90-17.71 9.73-17.71C10.64-16.77 11.18-15.35 11.18-13.64C11.18-10.69 9.54-8.57 7.14-8.37C7.17-8.34 7.21-8.32 7.24-8.29C7.96-7.63 8.52-6.49 8.52-5.72L8.52 0.09C8.52 0.74 8.99 1.23 9.59 1.23L10.88 1.23C11.46 1.23 11.94 0.74 11.94 0.09L11.94-5.72C11.94-6.49 12.50-7.63 13.22-8.29C13.29-8.34 13.36-8.41 13.44-8.47C14.77-9.60 15.38-11.12 15.38-12.61C15.38-15.22 13.49-17.72 10.23-17.72ZM4.61-11.79C4.21-11.79 3.88-12.61 3.88-13.64C3.88-14.67 4.21-15.48 4.61-15.48C5.02-15.48 5.34-14.67 5.34-13.64C5.34-12.61 5.02-11.79 4.61-11.79Z" fill="currentColor"/>
</svg>