<svg xmlns="http://www.w3.org/2000/svg" viewBox="0 0 24 24" width="24" height="24">
  
  <path transform="matrix(0.8806329549363605, 0, 0, 0.8806329549363605, 0.15273477812177494, 19.45098039215686)" d="M13.45 2.89C19.70 2.89 24.81-2.21 24.81-8.46C24.81-14.71 19.70-19.82 13.45-19.82C7.21-19.82 2.10-14.71 2.10-8.46C2.10-2.21 7.21 2.89 13.45 2.89ZM8.30-7.76C7.98-7.76 7.76-7.93 7.76-8.21C7.76-8.37 7.82-8.50 7.97-8.66L12.96-14.52C13.09-14.67 13.28-14.74 13.45-14.74C13.63-14.74 13.83-14.67 13.95-14.52L18.95-8.66C19.09-8.50 19.15-8.37 19.15-8.21C19.15-7.93 18.93-7.76 18.62-7.76ZM8.45-3.73C7.98-3.73 7.69-4.05 7.69-4.52L7.69-5.29C7.69-5.78 7.98-6.11 8.45-6.11L18.46-6.11C18.93-6.11 19.23-5.78 19.23-5.29L19.23-4.52C19.23-4.05 18.93-3.73 18.46-3.73Z" fill="currentColor"/>
</svg>