<svg xmlns="http://www.w3.org/2000/svg" viewBox="0 0 24 24" width="24" height="24">
  
  <path transform="matrix(0.7384970431270734, 0, 0, 0.7384970431270734, -0.20683686715707505, 18.248377325832973)" d="M6 1.04L27.06 1.04C28.99 1.04 30.07-0.04 30.07-1.97L30.07-14.95C30.07-16.89 28.99-17.96 27.06-17.96L6-17.96C4.07-17.96 2.99-16.89 2.99-14.95L2.99-1.97C2.99-0.04 4.07 1.04 6 1.04ZM6.02 0.47C4.45 0.47 3.56-0.42 3.56-2.00L3.56-14.93C3.56-16.50 4.45-17.39 6.02-17.39L27.02-17.39C28.61-17.39 29.50-16.50 29.50-14.93L29.50-2.00C29.50-0.42 28.61 0.47 27.02 0.47ZM23.36-11.14L26.33-11.14C26.86-11.14 27.25-11.53 27.25-12.06L27.25-14.23C27.25-14.75 26.86-15.14 26.33-15.14L23.36-15.14C22.83-15.14 22.44-14.75 22.44-14.23L22.44-12.06C22.44-11.53 22.83-11.14 23.36-11.14ZM12.05-6.16L21.01-6.16C21.18-6.16 21.30-6.30 21.30-6.46C21.30-6.62 21.18-6.75 21.01-6.75L12.05-6.75C11.88-6.75 11.75-6.62 11.75-6.46C11.75-6.30 11.88-6.16 12.05-6.16ZM12.05-3.43L18.98-3.43C19.15-3.43 19.28-3.57 19.28-3.73C19.28-3.89 19.15-4.02 18.98-4.02L12.05-4.02C11.88-4.02 11.75-3.89 11.75-3.73C11.75-3.57 11.88-3.43 12.05-3.43Z" fill="currentColor"/>
</svg>