<svg xmlns="http://www.w3.org/2000/svg" viewBox="0 0 24 24" width="24" height="24">
  <title>envelope.front.fill</title>
  <path transform="matrix(0.7384970431270734, 0, 0, 0.7384970431270734, -0.20683686715707505, 18.248377325832973)" d="M6 1.04L27.06 1.04C28.99 1.04 30.07-0.04 30.07-1.97L30.07-14.95C30.07-16.89 28.99-17.96 27.06-17.96L6-17.96C4.07-17.96 2.99-16.89 2.99-14.95L2.99-1.97C2.99-0.04 4.07 1.04 6 1.04ZM23.36-11.14C22.83-11.14 22.44-11.53 22.44-12.06L22.44-14.23C22.44-14.74 22.83-15.14 23.36-15.14L26.33-15.14C26.85-15.14 27.23-14.74 27.23-14.23L27.23-12.06C27.23-11.53 26.85-11.14 26.33-11.14ZM12.05-6.18C11.88-6.18 11.75-6.30 11.75-6.46C11.75-6.62 11.88-6.75 12.05-6.75L21.01-6.75C21.18-6.75 21.30-6.62 21.30-6.46C21.30-6.30 21.18-6.18 21.01-6.18ZM12.05-3.45C11.88-3.45 11.75-3.57 11.75-3.73C11.75-3.89 11.88-4.02 12.05-4.02L19.00-4.02C19.16-4.02 19.29-3.89 19.29-3.73C19.29-3.57 19.16-3.45 19.00-3.45Z" fill="currentColor"/>
</svg>