<svg xmlns="http://www.w3.org/2000/svg" viewBox="0 0 24 24" width="24" height="24">
  
  <path transform="matrix(0.74788197487584, 0, 0, 0.74788197487584, 0.4312007011393513, 18.356525290434675)" d="M28.84-6.27C28.84-13.28 23.44-19.04 16.57-19.59C16.21-19.64 15.91-19.36 15.91-18.98L15.91-15.70C15.91-15.39 16.14-15.13 16.48-15.11C20.89-14.61 24.35-10.84 24.35-6.27C24.35-4.17 23.64-2.24 22.41-0.74C22.20-0.48 22.20-0.16 22.44 0.07L24.77 2.40C25.04 2.66 25.44 2.66 25.68 2.37C27.64 0.04 28.84-2.98 28.84-6.27ZM2.10-6.27C2.10-2.96 3.30 0.07 5.30 2.40C5.52 2.67 5.89 2.66 6.16 2.40L8.51 0.07C8.74-0.16 8.74-0.48 8.53-0.74C7.31-2.24 6.59-4.17 6.59-6.27C6.59-10.84 10.04-14.61 14.47-15.11C14.80-15.13 15.02-15.39 15.02-15.70L15.02-18.98C15.02-19.36 14.74-19.64 14.37-19.59C7.51-19.04 2.10-13.28 2.10-6.27ZM10.65-1.36L14.34-1.36C14.50-1.36 14.60-1.48 14.60-1.63C14.60-1.78 14.50-1.90 14.34-1.90L10.95-1.90L10.95-5.91L14.17-5.91C14.32-5.91 14.41-6.02 14.41-6.18C14.41-6.33 14.32-6.43 14.17-6.43L10.95-6.43L10.95-10.21L14.34-10.21C14.50-10.21 14.60-10.32 14.60-10.48C14.60-10.63 14.50-10.73 14.34-10.73L10.65-10.73C10.49-10.73 10.36-10.62 10.36-10.43L10.36-1.68C10.36-1.48 10.46-1.36 10.65-1.36ZM16.38-1.36L20.91-1.36C21.06-1.36 21.15-1.48 21.15-1.63C21.15-1.78 21.06-1.90 20.91-1.90L16.77-1.90L16.77-1.95L20.96-10.08C21.01-10.16 21.08-10.32 21.08-10.42C21.08-10.69 20.86-10.73 20.77-10.73L16.39-10.73C16.24-10.73 16.13-10.63 16.13-10.48C16.13-10.32 16.24-10.21 16.39-10.21L20.40-10.21L20.40-10.15L16.17-2.00C16.11-1.91 16.07-1.79 16.07-1.69C16.07-1.45 16.24-1.36 16.38-1.36Z" fill="currentColor"/>
</svg>