<svg xmlns="http://www.w3.org/2000/svg" viewBox="0 0 24 24" width="24" height="24">
  <title>ev.charger.arrowtriangle.right.fill</title>
  <path transform="matrix(0.5998301262337814, 0, 0, 0.5998301262337814, 0.20753888059045789, 17.075125208681136)" d="M2.99 3.66C2.99 3.81 3.12 3.96 3.26 3.96L19.55 3.96C19.69 3.96 19.84 3.81 19.84 3.66C19.84 3.52 19.69 3.39 19.55 3.39L18.54 3.39L18.54-10.64C19.73-10.00 20.39-8.93 20.39-7.64C20.39-5.81 20.12-3.62 20.12-2.03C20.12-0.19 21.12 0.97 22.71 0.97C24.30 0.97 25.30-0.19 25.30-2.02L25.30-8.52C25.30-9.61 25.96-9.97 26.65-10.56C27.19-11.00 27.67-11.41 27.67-12.34L27.67-14.00C27.67-14.29 27.52-14.48 27.29-14.48L26.48-14.48L26.48-16.48C26.48-16.66 26.33-16.83 26.14-16.83C25.95-16.83 25.80-16.66 25.80-16.48L25.82-14.48L24.20-14.48L24.22-16.48C24.22-16.66 24.07-16.83 23.88-16.83C23.68-16.83 23.54-16.66 23.54-16.48L23.54-14.48L22.73-14.48C22.51-14.48 22.36-14.29 22.36-14.00L22.36-12.34C22.36-11.41 22.84-11.00 23.37-10.56C24.06-9.97 24.71-9.61 24.71-8.52L24.71-2.02C24.71-0.53 23.94 0.40 22.71 0.40C21.47 0.40 20.68-0.54 20.68-2.03C20.68-3.46 20.95-5.65 20.95-7.64C20.95-9.27 20.09-10.57 18.54-11.27L18.54-17.98C18.54-19.83 17.53-20.88 15.66-20.88L7.16-20.88C5.26-20.88 4.29-19.86 4.29-17.98L4.29 3.39L3.26 3.39C3.12 3.39 2.99 3.52 2.99 3.66ZM6.88-10.55C6.14-10.55 5.63-11.04 5.63-11.80L5.63-18.27C5.63-19.03 6.14-19.55 6.88-19.55L15.94-19.55C16.69-19.55 17.21-19.03 17.21-18.27L17.21-11.80C17.21-11.04 16.69-10.55 15.94-10.55ZM36.06-8.88L29.88-12.68C29.54-12.89 29.12-12.69 29.12-12.35L29.12-4.57C29.12-4.22 29.54-4.03 29.88-4.24L36.06-7.98C36.42-8.21 36.42-8.66 36.06-8.88Z" fill="currentColor"/>
</svg>