<svg xmlns="http://www.w3.org/2000/svg" viewBox="0 0 24 24" width="24" height="24">
  
  <path transform="matrix(0.745269286754003, 0, 0, 0.745269286754003, 3.4890829694323138, 18.305676855895197)" d="M11.44-6.02C15.76-6.02 19.36-9.62 19.36-13.96C19.36-18.27 15.75-21.88 11.41-21.88C7.09-21.88 3.50-18.27 3.50-13.96C3.50-9.62 7.10-6.02 11.44-6.02ZM8.40-14.55C7.35-14.55 6.53-15.38 6.53-16.42C6.53-17.46 7.35-18.28 8.40-18.28C9.45-18.28 10.27-17.46 10.27-16.42C10.27-15.38 9.45-14.55 8.40-14.55ZM14.44-14.55C13.39-14.55 12.57-15.38 12.57-16.42C12.57-17.46 13.39-18.28 14.44-18.28C15.48-18.28 16.30-17.46 16.30-16.42C16.30-15.38 15.48-14.55 14.44-14.55ZM7.11-10.35C6.36-10.35 5.77-10.95 5.77-11.68C5.77-12.43 6.36-13.03 7.11-13.03C7.85-13.03 8.45-12.43 8.45-11.68C8.45-10.95 7.85-10.35 7.11-10.35ZM15.73-10.35C14.98-10.35 14.38-10.95 14.38-11.68C14.38-12.43 14.98-13.03 15.73-13.03C16.48-13.03 17.07-12.43 17.07-11.68C17.07-10.95 16.48-10.35 15.73-10.35ZM11.41-7.69C10.37-7.69 9.55-8.51 9.55-9.55C9.55-10.59 10.37-11.43 11.41-11.43C12.47-11.43 13.29-10.59 13.29-9.55C13.29-8.51 12.47-7.69 11.41-7.69ZM7.20 4.96L15.64 4.96C18.64 4.96 20.74 2.87 20.74-0.08C20.74-3.04 18.64-5.12 15.64-5.12L7.20-5.12C4.20-5.12 2.10-3.04 2.10-0.08C2.10 2.87 4.20 4.96 7.20 4.96ZM7.14 3.02C5.40 3.02 4.03 1.65 4.03-0.08C4.03-1.82 5.40-3.19 7.14-3.19C8.87-3.19 10.25-1.82 10.25-0.08C10.25 1.65 8.87 3.02 7.14 3.02ZM15.70 3.02C13.97 3.02 12.59 1.65 12.59-0.08C12.59-1.82 13.97-3.19 15.70-3.19C17.44-3.19 18.81-1.82 18.81-0.08C18.81 1.65 17.44 3.02 15.70 3.02Z" fill="currentColor"/>
</svg>