<svg xmlns="http://www.w3.org/2000/svg" viewBox="0 0 24 24" width="24" height="24">
  <title>eye</title>
  <path transform="matrix(0.6586903383507011, 0, 0, 0.6586903383507011, 0.4253184098803551, 17.561559243535314)" d="M17.58 1.29C26.34 1.29 32.75-6.18 32.75-8.45C32.75-10.72 26.26-18.18 17.58-18.18C8.88-18.18 2.39-10.72 2.39-8.45C2.39-6.18 8.80 1.29 17.58 1.29ZM17.58 0.59C9.09 0.59 3.13-6.61 3.13-8.45C3.13-10.30 9.09-17.50 17.58-17.50C26.05-17.50 32.02-10.30 32.02-8.45C32.02-6.61 26.05 0.59 17.58 0.59ZM17.58-1.90C21.19-1.90 24.14-4.84 24.14-8.46C24.14-12.08 21.19-15.02 17.58-15.02C13.96-15.02 11.00-12.08 11.00-8.46C11.00-4.84 13.96-1.90 17.58-1.90ZM17.58-6.53C16.50-6.53 15.63-7.38 15.63-8.46C15.63-9.54 16.50-10.41 17.58-10.41C18.64-10.41 19.51-9.54 19.51-8.46C19.51-7.38 18.64-6.53 17.58-6.53Z" fill="currentColor"/>
</svg>