<svg xmlns="http://www.w3.org/2000/svg" viewBox="0 0 24 24" width="24" height="24">
  
  <path transform="matrix(0.8534155144645165, 0, 0, 0.8534155144645165, -0.3002215038301421, 18.97277062679752)" d="M20.48-8.38L20.67-8.60C21.14-9.12 21.16-9.71 20.66-10.24L20.29-10.63C21.96-12.14 23.95-12.47 25.10-13.64C26.73-15.28 26.20-17.59 25.05-18.75C23.91-19.90 21.62-20.39 19.95-18.79C18.76-17.66 18.45-15.66 16.95-13.98L16.55-14.36C16.03-14.86 15.43-14.81 14.91-14.37L14.68-14.18C14.05-13.63 14.19-13.04 14.72-12.52L15.36-11.87L6.54-3.05C3.15 0.34 4.55 0.06 2.70 2.66L3.42 3.47C5.94 1.63 5.81 3.21 9.27-0.21L18.16-9.07L18.83-8.41C19.35-7.89 19.93-7.73 20.48-8.38ZM5.54 0.79C4.84 0.04 4.98-0.66 5.67-1.35L15.79-11.46L17.75-9.49L7.57 0.67C6.97 1.27 6.21 1.51 5.54 0.79Z" fill="currentColor"/>
</svg>