<svg xmlns="http://www.w3.org/2000/svg" viewBox="0 0 24 24" width="24" height="24">
  
  <path transform="matrix(0.9351598173515981, 0, 0, 0.9351598173515981, -0.7945205479452055, 19.884931506849316)" d="M3.27-12.53C3.46-12.53 3.56-12.64 3.56-12.83L3.56-16.09C3.56-17.71 4.41-18.55 6.02-18.55L9.28-18.55C9.47-18.55 9.59-18.66 9.59-18.84C9.59-19.03 9.47-19.13 9.28-19.13L6-19.13C4.03-19.13 2.99-18.08 2.99-16.11L2.99-12.83C2.99-12.64 3.09-12.53 3.27-12.53ZM24.09-12.53C24.28-12.53 24.38-12.64 24.38-12.83L24.38-16.11C24.38-18.06 23.33-19.13 21.38-19.13L18.08-19.13C17.89-19.13 17.79-19.03 17.79-18.84C17.79-18.66 17.89-18.55 18.08-18.55L21.34-18.55C22.90-18.55 23.80-17.71 23.80-16.09L23.80-12.83C23.80-12.64 23.91-12.53 24.09-12.53ZM12.70-7.00L12.81-7.00C13.70-7.00 14.13-7.42 14.13-8.31L14.13-11.88C14.13-12.05 13.99-12.18 13.84-12.18C13.68-12.18 13.55-12.05 13.55-11.88L13.55-8.20C13.55-7.83 13.23-7.58 12.93-7.58L12.54-7.58C12.36-7.58 12.25-7.48 12.25-7.31C12.25-7.09 12.38-7.00 12.70-7.00ZM9.54-9.67C9.69-9.67 9.82-9.80 9.82-9.95L9.82-11.87C9.82-12.04 9.69-12.16 9.54-12.16C9.38-12.16 9.25-12.04 9.25-11.87L9.25-9.95C9.25-9.80 9.38-9.67 9.54-9.67ZM17.67-9.67C17.84-9.67 17.96-9.80 17.96-9.95L17.96-11.87C17.96-12.04 17.84-12.16 17.67-12.16C17.52-12.16 17.39-12.04 17.39-11.87L17.39-9.95C17.39-9.80 17.52-9.67 17.67-9.67ZM13.56-3.52C14.81-3.52 16.07-4.03 16.99-4.96C17.03-5.00 17.11-5.07 17.11-5.21C17.11-5.39 16.97-5.48 16.83-5.48C16.72-5.48 16.64-5.46 16.51-5.32C15.79-4.61 14.68-4.09 13.56-4.09C12.43-4.09 11.32-4.61 10.61-5.32C10.46-5.46 10.38-5.48 10.28-5.48C10.14-5.48 10.01-5.39 10.01-5.21C10.01-5.07 10.08-5.00 10.13-4.96C11.05-4.04 12.30-3.52 13.56-3.52ZM6 2.26L9.28 2.26C9.47 2.26 9.59 2.17 9.59 1.98C9.59 1.79 9.47 1.69 9.28 1.69L6.02 1.69C4.41 1.69 3.56 0.84 3.56-0.77L3.56-4.03C3.56-4.22 3.46-4.34 3.27-4.34C3.09-4.34 2.99-4.22 2.99-4.03L2.99-0.75C2.99 1.22 4.03 2.26 6 2.26ZM18.08 2.26L21.38 2.26C23.33 2.26 24.38 1.18 24.38-0.75L24.38-4.03C24.38-4.22 24.28-4.34 24.09-4.34C23.91-4.34 23.80-4.22 23.80-4.03L23.80-0.77C23.80 0.84 22.90 1.69 21.34 1.69L18.08 1.69C17.89 1.69 17.79 1.79 17.79 1.98C17.79 2.17 17.89 2.26 18.08 2.26Z" fill="currentColor"/>
</svg>