<svg xmlns="http://www.w3.org/2000/svg" viewBox="0 0 24 24" width="24" height="24">
  <title>fan.floor.fill</title>
  <path transform="matrix(0.8317089018843404, 0, 0, 0.8317089018843404, 2.043859649122808, 19.037037037037035)" d="M7.57 3.56L16.37 3.56C16.55 3.56 16.66 3.45 16.66 3.29C16.66 2.99 16.44 2.70 15.96 2.70L12.27 2.70L12.27-2.52C17.09-2.68 20.95-6.64 20.95-11.51C20.95-16.46 16.93-20.48 11.98-20.48C7.01-20.48 2.99-16.46 2.99-11.51C2.99-6.63 6.87-2.66 11.70-2.52L11.70 2.70L7.98 2.70C7.50 2.70 7.29 2.99 7.29 3.29C7.29 3.45 7.39 3.56 7.57 3.56ZM14.39-11.95C14.44-11.73 14.45-11.46 14.41-11.26C17.00-10.79 18.19-9.89 18.19-8.34C18.19-6.32 16.14-4.51 14.00-4.51C12.94-4.51 12.42-5.05 12.42-6.16L12.42-9.08C12.20-9.05 11.92-9.02 11.73-9.06C11.26-6.48 10.36-5.30 8.81-5.30C6.79-5.30 4.97-7.35 4.97-9.47C4.97-10.54 5.51-11.06 6.63-11.06L9.55-11.06C9.50-11.29 9.49-11.55 9.53-11.74C6.94-12.22 5.75-13.13 5.75-14.66C5.75-16.69 7.80-18.50 9.94-18.50C11.00-18.50 11.52-17.96 11.52-16.84L11.52-13.92C11.75-13.97 12.02-13.98 12.21-13.96C12.69-16.54 13.58-17.72 15.13-17.72C17.16-17.72 18.97-15.67 18.97-13.54C18.97-12.48 18.43-11.95 17.31-11.95ZM11.98-9.82C12.90-9.82 13.65-10.57 13.65-11.51C13.65-12.43 12.90-13.18 11.98-13.18C11.04-13.18 10.29-12.43 10.29-11.51C10.29-10.57 11.04-9.82 11.98-9.82Z" fill="currentColor"/>
</svg>