<svg xmlns="http://www.w3.org/2000/svg" viewBox="0 0 24 24" width="24" height="24">
  
  <path transform="matrix(0.8806329549363605, 0, 0, 0.8806329549363605, 0.15273477812177494, 19.45098039215686)" d="M13.45 2.89C19.73 2.89 24.81-2.19 24.81-8.46C24.81-14.74 19.73-19.82 13.45-19.82C7.18-19.82 2.10-14.74 2.10-8.46C2.10-2.19 7.18 2.89 13.45 2.89ZM13.45 2.32C7.49 2.32 2.67-2.50 2.67-8.46C2.67-14.43 7.49-19.24 13.45-19.24C19.42-19.24 24.23-14.43 24.23-8.46C24.23-2.50 19.42 2.32 13.45 2.32ZM6.71-4.70L15.62-4.70L18.27-7.39C18.40-7.54 18.61-7.51 18.73-7.39L19.82-6.30L18.70-5.18C18.12-4.61 18.98-3.71 19.57-4.30L21.14-5.87C21.41-6.14 21.39-6.50 21.14-6.75L19.31-8.58C18.95-8.94 18.49-9.13 18-9.13L13.51-9.13L13.51-16.45C13.51-16.96 12.75-17.18 12.42-16.59L6.23-5.60C5.96-5.13 6.25-4.70 6.71-4.70ZM6.76-5.14C6.59-5.14 6.57-5.27 6.63-5.39L12.81-16.39C12.91-16.57 13.07-16.54 13.07-16.38L13.07-5.14ZM17.57-9.94C18.34-9.94 18.97-10.57 18.97-11.34C18.97-12.13 18.34-12.75 17.57-12.75C16.78-12.75 16.16-12.13 16.16-11.34C16.16-10.57 16.78-9.94 17.57-9.94ZM14.82-7.88C14.94-7.88 14.99-7.76 14.92-7.68L13.51-6.27L13.51-7.88ZM6.21-2.12L6.25-2.12C7.97-2.12 8.47-3.27 9.86-3.27C11.21-3.27 11.73-2.12 13.45-2.12C15.19-2.12 15.69-3.27 17.06-3.27C18.43-3.27 18.95-2.12 20.67-2.12L20.70-2.12C20.81-2.12 20.92-2.23 20.92-2.34C20.92-2.46 20.81-2.55 20.70-2.55L20.67-2.55C19.23-2.55 18.71-3.71 17.06-3.71C15.40-3.71 14.89-2.55 13.45-2.55C12.02-2.55 11.52-3.71 9.86-3.71C8.19-3.71 7.69-2.55 6.25-2.55L6.21-2.55C6.09-2.55 5.99-2.46 5.99-2.34C5.99-2.23 6.09-2.12 6.21-2.12Z" fill="currentColor"/>
</svg>