<svg xmlns="http://www.w3.org/2000/svg" viewBox="0 0 24 24" width="24" height="24">
  <title>figure.ice.hockey.circle</title>
  <path transform="matrix(0.8806329549363605, 0, 0, 0.8806329549363605, -0.6315789473684212, 19.45098039215686)" d="M14.34 2.89C20.63 2.89 25.70-2.19 25.70-8.46C25.70-14.74 20.63-19.82 14.34-19.82C8.07-19.82 2.99-14.74 2.99-8.46C2.99-2.19 8.07 2.89 14.34 2.89ZM14.34 2.32C8.38 2.32 3.56-2.50 3.56-8.46C3.56-14.43 8.38-19.24 14.34-19.24C20.31-19.24 25.13-14.43 25.13-8.46C25.13-2.50 20.31 2.32 14.34 2.32ZM15.19-13.68C15.96-13.68 16.59-14.30 16.59-15.08C16.59-15.86 15.96-16.49 15.19-16.49C14.40-16.49 13.76-15.86 13.76-15.08C13.76-14.30 14.40-13.68 15.19-13.68ZM13.98-6.82L13.98-4.09C13.98-3.82 14.14-3.69 14.41-3.69L16.29-3.69C16.77-3.69 16.76-4.30 16.39-4.42L15.33-4.77L15.33-7.43C15.33-7.71 15.15-7.96 14.88-8.07L13.03-8.93L13.63-10.13L16.23-7.69L16.23-7.43C16.23-7.05 16.51-6.79 16.88-6.79C16.97-6.79 17.05-6.81 17.13-6.83L19.93-4.22C20.10-4.04 20.20-4.03 20.41-4.03L22.18-4.03C22.30-4.03 22.41-4.13 22.41-4.24L22.41-4.56C22.41-4.69 22.30-4.79 22.18-4.79L19.99-4.79L17.46-7.14C17.51-7.22 17.53-7.32 17.53-7.43L17.53-10.38C17.53-10.63 17.46-10.73 17.24-10.92L14.38-13.09C13.75-13.57 13.00-13.65 12.27-13.36L10.13-12.49C9.49-12.23 9.59-11.53 10.11-11.26L10.93-10.84L10.49-9.95C9.88-8.77 10.34-7.71 11.55-7.42ZM14.11-11.06C14.17-11.19 14.30-11.23 14.41-11.16L16.23-9.96L16.23-8.29L13.83-10.51ZM10.49-7.45L10.11-6.28L7.80-6.28C7.54-6.28 7.39-6.13 7.39-5.85L7.39-3.98C7.39-3.49 8.03-3.50 8.13-3.87L8.46-4.93L10.61-4.93C10.89-4.93 11.10-5.10 11.20-5.29L11.98-6.84L11.46-6.98C11.06-7.09 10.72-7.25 10.49-7.45ZM6.50-6.13L6.50-3.48C6.50-3.36 6.61-3.26 6.73-3.26C6.83-3.26 6.95-3.34 6.95-3.48L6.95-6.13C6.95-6.23 6.83-6.35 6.73-6.35C6.60-6.35 6.50-6.23 6.50-6.13ZM14.14-2.79L16.78-2.79C16.90-2.79 17.00-2.89 17.00-3.01C17.00-3.12 16.92-3.23 16.78-3.23L14.14-3.23C14.02-3.23 13.92-3.12 13.92-3.01C13.92-2.89 14.03-2.79 14.14-2.79ZM18.25-2.14C18.25-1.86 18.71-1.64 19.31-1.64C19.93-1.64 20.40-1.86 20.40-2.14L20.40-2.72C20.40-2.99 19.93-3.21 19.31-3.21C18.71-3.21 18.25-2.99 18.25-2.72Z" fill="currentColor"/>
</svg>