<svg xmlns="http://www.w3.org/2000/svg" viewBox="0 0 24 24" width="24" height="24">
  <title>figure.outdoor.rowing.circle.fill</title>
  <path transform="matrix(0.8806329549363605, 0, 0, 0.8806329549363605, 0.15273477812177494, 19.45098039215686)" d="M13.45 2.89C19.70 2.89 24.81-2.21 24.81-8.46C24.81-14.71 19.70-19.82 13.45-19.82C7.21-19.82 2.10-14.71 2.10-8.46C2.10-2.21 7.21 2.89 13.45 2.89ZM11.33-13.11C10.54-13.11 9.91-13.73 9.91-14.52C9.91-15.29 10.54-15.93 11.33-15.93C12.11-15.93 12.74-15.29 12.74-14.52C12.74-13.73 12.11-13.11 11.33-13.11ZM11.41-4.57C11.30-4.59 11.04-4.61 10.85-4.58L16.61-10.97L11.67-10.97C11.33-10.97 11.03-10.75 10.95-10.42L10.42-8.58L13.03-9.71C13.32-9.83 13.61-9.82 13.88-9.68L14.53-9.35L13.63-8.34L13.46-8.40L9.94-6.55C9.67-6.40 9.40-6.32 9.13-6.32C8.31-6.32 7.63-7.01 7.91-8.07L8.55-10.45C8.85-11.55 9.89-12.30 11.19-12.30L16.89-12.30C17.25-12.30 17.55-12 17.55-11.63C17.55-11.45 17.47-11.29 17.34-11.14ZM14.84-7.71L15.75-8.73L17.92-7.65C18.39-7.43 18.48-7.01 18.33-6.73C18.18-6.41 17.80-6.21 17.32-6.46ZM10.64-5.02L10.24-4.58L7.69-4.58C7.57-4.58 7.46-4.69 7.46-4.80C7.46-4.92 7.57-5.02 7.69-5.02ZM19.23-5.02C19.35-5.02 19.45-4.92 19.45-4.80C19.45-4.69 19.35-4.58 19.23-4.58L12.02-4.58L12.42-5.02ZM13.45-2.30C12.13-2.30 11.75-3.14 10.78-3.14C9.79-3.14 9.42-2.30 8.10-2.30L7.70-2.30C7.58-2.30 7.48-2.39 7.48-2.50C7.48-2.61 7.56-2.73 7.70-2.73L8.10-2.73C9.14-2.73 9.49-3.59 10.78-3.59C12.05-3.59 12.42-2.73 13.45-2.73C14.48-2.73 14.86-3.59 16.14-3.59C17.41-3.59 17.78-2.73 18.81-2.73L19.22-2.73C19.35-2.73 19.44-2.61 19.44-2.50C19.44-2.39 19.34-2.30 19.22-2.30L18.81-2.30C17.50-2.30 17.12-3.14 16.14-3.14C15.16-3.14 14.79-2.30 13.45-2.30Z" fill="currentColor"/>
</svg>