<svg xmlns="http://www.w3.org/2000/svg" viewBox="0 0 24 24" width="24" height="24">
  
  <path transform="matrix(0.6922231184266994, 0, 0, 0.6922231184266994, 4.645499461936041, 17.89138776169419)" d="M9.56 5.92C10.16 5.92 10.65 5.44 10.65 4.84L10.65-0.53L13.28-4.42C13.34-4.51 13.45-4.48 13.48-4.37L13.89-0.84C13.91-0.67 13.95-0.56 14.03-0.36L16.15 5.23C16.39 5.91 17.03 6.05 17.53 5.86C18.05 5.66 18.43 5.14 18.18 4.45L16.07-1.09L16.07-11.34C16.07-12.49 15.60-13.69 14.48-14.13L13.80-14.43C12.56-14.93 11.38-14.78 10.34-14.03L7.78-12.20L4.28-13.68L10.15-21.82L12.30-21.82C12.63-21.82 12.88-22.08 12.88-22.38C12.88-22.71 12.63-22.96 12.30-22.96L10.37-22.96C10.25-22.96 10.17-22.88 10.11-22.80L3.21-13.25C2.86-12.76 2.87-11.92 3.68-11.57L7.49-9.94C7.66-9.87 7.78-9.86 8.03-9.86L10.62-9.86C11.04-9.86 11.17-9.59 11.17-9.28L11.17-6.32L8.58-1.38C8.48-1.21 8.45-1.07 8.45-0.87L8.45 4.84C8.45 5.44 8.95 5.92 9.56 5.92ZM15.22-15.76C16.51-15.76 17.57-16.82 17.57-18.12C17.57-19.41 16.51-20.46 15.22-20.46C13.92-20.46 12.87-19.41 12.87-18.12C12.87-16.82 13.92-15.76 15.22-15.76Z" fill="currentColor"/>
</svg>