<svg xmlns="http://www.w3.org/2000/svg" viewBox="0 0 24 24" width="24" height="24">
  <title>figure.core.training.circle</title>
  <path transform="matrix(0.8806329549363605, 0, 0, 0.8806329549363605, 0.15273477812177494, 19.45098039215686)" d="M13.45 2.89C19.73 2.89 24.81-2.19 24.81-8.46C24.81-14.74 19.73-19.82 13.45-19.82C7.18-19.82 2.10-14.74 2.10-8.46C2.10-2.19 7.18 2.89 13.45 2.89ZM13.45 2.32C7.49 2.32 2.67-2.50 2.67-8.46C2.67-14.43 7.49-19.24 13.45-19.24C19.42-19.24 24.23-14.43 24.23-8.46C24.23-2.50 19.42 2.32 13.45 2.32ZM7.21-9.34C7.98-9.34 8.60-9.97 8.60-10.73C8.60-11.50 7.98-12.13 7.21-12.13C6.45-12.13 5.81-11.50 5.81-10.73C5.81-9.97 6.45-9.34 7.21-9.34ZM11.50-5.39L13.34-5.39C14.88-5.39 15.32-6.26 15.18-7.27L14.74-10.64L17.17-10.64C17.53-10.64 17.82-10.95 17.82-11.32C17.82-11.67 17.53-11.98 17.17-11.98L13.92-11.98C13.55-11.98 13.27-11.71 13.27-11.26L13.27-7.85L12.16-7.85C11.58-7.85 11.06-8.04 10.79-8.51C10.72-8.61 10.72-8.75 10.84-8.91L12.50-10.86C12.89-11.33 12.57-11.98 12.02-11.98L9.69-11.98C9.33-11.98 9.04-11.67 9.04-11.32C9.04-10.95 9.32-10.64 9.69-10.64L10.65-10.64L9.68-9.49C8.99-8.68 8.36-8.10 7.35-7.65L6.33-7.21L6.64-8.32C6.75-8.68 6.50-9.05 6.16-9.13C5.80-9.22 5.45-9 5.36-8.65L4.72-6.21C4.55-5.54 5.13-5.21 5.71-5.47L7.79-6.40C8.00-6.48 8.12-6.47 8.29-6.35C8.95-5.77 10.03-5.39 11.50-5.39ZM22.23-8.21L18.56-8.21C18.52-8.21 18.46-8.20 18.39-8.20L15.54-7.98L15.63-7.32C15.67-6.96 15.66-6.61 15.56-6.28L18.62-6.89L22.23-6.89C22.59-6.89 22.91-7.17 22.91-7.55C22.91-7.92 22.59-8.21 22.23-8.21Z" fill="currentColor"/>
</svg>