<svg xmlns="http://www.w3.org/2000/svg" viewBox="0 0 24 24" width="24" height="24">
  
  <path transform="matrix(0.8806329549363605, 0, 0, 0.8806329549363605, 0.15273477812177494, 19.45098039215686)" d="M13.45 2.89C19.73 2.89 24.81-2.19 24.81-8.46C24.81-14.74 19.73-19.82 13.45-19.82C7.18-19.82 2.10-14.74 2.10-8.46C2.10-2.19 7.18 2.89 13.45 2.89ZM13.45 2.32C7.49 2.32 2.67-2.50 2.67-8.46C2.67-14.43 7.49-19.24 13.45-19.24C19.42-19.24 24.23-14.43 24.23-8.46C24.23-2.50 19.42 2.32 13.45 2.32ZM16.50-12.32C17.29-12.32 17.91-12.95 17.91-13.72C17.91-14.51 17.29-15.13 16.50-15.13C15.73-15.13 15.09-14.51 15.09-13.72C15.09-12.95 15.73-12.32 16.50-12.32ZM12.11-0.87C12.47-0.87 12.79-1.16 12.79-1.54L12.79-7.59C14.25-7.84 15.52-8.81 16.15-10.13C16.20-10.25 16.34-10.34 16.61-10.24L19.88-9.15C20.32-8.99 20.64-9.25 20.74-9.55C20.82-9.88 20.72-10.28 20.29-10.42L10.52-13.69C10.05-13.83 9.75-13.58 9.66-13.27C9.55-12.95 9.67-12.56 10.09-12.41L13.61-11.23C13.77-11.18 13.84-10.99 13.73-10.83C13.38-10.23 12.82-9.87 12.11-9.87L8.78-9.87L8.78-13.23C8.78-13.63 8.51-13.89 8.10-13.89C7.70-13.89 7.44-13.63 7.44-13.23L7.44-9.26C7.44-8.82 7.65-8.61 7.99-8.57L10.95-8.07L11.44-5.16L11.44-1.54C11.44-1.16 11.73-0.87 12.11-0.87Z" fill="currentColor"/>
</svg>