<svg xmlns="http://www.w3.org/2000/svg" viewBox="0 0 24 24" width="24" height="24">
  
  <path transform="matrix(0.8806329549363605, 0, 0, 0.8806329549363605, 0.15273477812177494, 19.45098039215686)" d="M13.45 2.89C19.73 2.89 24.81-2.19 24.81-8.46C24.81-14.74 19.73-19.82 13.45-19.82C7.18-19.82 2.10-14.74 2.10-8.46C2.10-2.19 7.18 2.89 13.45 2.89ZM13.45 2.32C7.49 2.32 2.67-2.50 2.67-8.46C2.67-14.43 7.49-19.24 13.45-19.24C19.42-19.24 24.23-14.43 24.23-8.46C24.23-2.50 19.42 2.32 13.45 2.32ZM10.22-12.45C10.86-12.45 11.40-12.95 11.40-13.62C11.40-14.24 10.88-14.78 10.22-14.78C9.60-14.78 9.07-14.24 9.07-13.62C9.07-12.95 9.60-12.45 10.22-12.45ZM16.68-12.45C17.30-12.45 17.84-12.95 17.84-13.62C17.84-14.24 17.32-14.78 16.68-14.78C16.02-14.78 15.50-14.24 15.50-13.62C15.50-12.95 16.03-12.45 16.68-12.45ZM13.46-10.80C14.00-10.80 14.51-10.77 14.80-10.71C15.20-10.65 15.38-10.41 15.39-10.01C15.39-9.55 15.39-7.97 15.27-7.22C15.15-6.50 14.32-3.01 14.29-2.88C14.18-2.55 14.37-2.27 14.68-2.27C14.94-2.27 15.08-2.40 15.16-2.72C15.35-3.42 15.94-5.82 16.14-6.40C16.27-6.82 16.38-7.01 16.68-7.01C16.91-7.01 17.05-6.87 17.21-6.40C17.39-5.85 18.01-3.42 18.18-2.72C18.23-2.40 18.39-2.27 18.63-2.27C18.95-2.27 19.14-2.55 19.05-2.88C19.02-3.02 18.19-6.50 18.06-7.22C17.96-7.97 17.98-9.55 17.98-10.03C17.98-10.39 18.14-10.68 18.45-10.75C18.73-10.82 20.91-11.04 21.21-11.14C21.42-11.20 21.55-11.38 21.55-11.60C21.55-11.86 21.38-12.07 21.16-12.07C21.06-12.07 21-12.04 20.89-12.01C19.97-11.87 18.05-11.71 16.68-11.64C15.54-11.63 14.27-11.58 13.50-11.58C12.69-11.58 11.39-11.63 10.22-11.64C8.87-11.71 6.95-11.85 6-12.01C5.91-12.04 5.85-12.07 5.74-12.07C5.54-12.07 5.36-11.87 5.36-11.60C5.36-11.37 5.50-11.16 5.68-11.14C6.01-11.05 8.17-10.80 8.47-10.75C8.74-10.68 8.94-10.41 8.95-10.03C8.96-9.55 8.95-7.97 8.84-7.22C8.71-6.50 7.89-3.01 7.84-2.88C7.77-2.55 7.93-2.27 8.26-2.27C8.52-2.27 8.65-2.40 8.74-2.72C8.93-3.42 9.52-5.82 9.71-6.40C9.86-6.82 9.96-7.01 10.22-7.01C10.51-7.01 10.66-6.87 10.79-6.40C10.96-5.85 11.59-3.42 11.75-2.72C11.81-2.40 11.96-2.27 12.22-2.27C12.53-2.27 12.71-2.55 12.61-2.88C12.57-3.02 11.74-6.50 11.63-7.22C11.52-7.97 11.52-9.55 11.54-10.01C11.55-10.41 11.73-10.65 12.12-10.71C12.46-10.77 13.01-10.82 13.46-10.80Z" fill="currentColor"/>
</svg>