<svg xmlns="http://www.w3.org/2000/svg" viewBox="0 0 24 24" width="24" height="24">
  <title>figure.fishing</title>
  <path transform="matrix(0.7355529217397551, 0, 0, 0.7355529217397551, -0.19588406421721816, 18.1415795711669)" d="M9-14.85C10.28-14.85 11.34-15.90 11.34-17.20C11.34-18.48 10.28-19.55 9-19.55C7.70-19.55 6.63-18.48 6.63-17.20C6.63-15.90 7.70-14.85 9-14.85ZM4.46-3.59L6.63-4.92L6.63-0.06C7.29-0.39 8.00-0.79 8.84-1.09L9.04-3.23C9.06-3.35 9.22-3.39 9.28-3.28L10.21-1.42C10.43-1.44 10.65-1.46 10.89-1.46C11.58-1.46 12.16-1.34 12.69-1.16L11.32-4.83L11.32-7.79L27.26-17.57C27.43-17.67 27.45-17.88 27.34-18.04C27.25-18.20 27.07-18.25 26.91-18.14L11.32-8.58L11.32-11.30C11.32-12.49 10.49-13.49 9.01-13.49L8.51-13.49C7.62-13.49 6.63-13.37 5.74-12.49L3.29-10.08C2.88-9.67 2.88-8.99 3.29-8.60L6.39-5.54L4.13-4.16C3.98-4.08 3.94-3.87 4.03-3.70C4.13-3.55 4.32-3.50 4.46-3.59ZM6.63-8.19L5.52-9.33L6.29-10.13C6.42-10.25 6.63-10.18 6.63-9.98ZM3.93 2.85L4.88 2.85C7.70 2.85 8.55 0.93 10.89 0.93C13.23 0.93 14.09 2.85 16.91 2.85C19.72 2.85 20.58 0.93 22.92 0.93C25.25 0.93 26.11 2.85 28.93 2.85L29.88 2.85C30.05 2.85 30.18 2.72 30.18 2.55C30.18 2.40 30.05 2.26 29.88 2.26L28.93 2.26C26.48 2.26 25.64 0.34 22.92 0.34C20.20 0.34 19.35 2.26 16.91 2.26C14.46 2.26 13.61 0.34 10.89 0.34C8.18 0.34 7.32 2.26 4.88 2.26L3.93 2.26C3.76 2.26 3.63 2.40 3.63 2.55C3.63 2.72 3.76 2.85 3.93 2.85Z" fill="currentColor"/>
</svg>