<svg xmlns="http://www.w3.org/2000/svg" viewBox="0 0 24 24" width="24" height="24">
  <title>figure.open.water.swim.circle.fill</title>
  <path transform="matrix(0.8806329549363605, 0, 0, 0.8806329549363605, 0.15273477812177494, 19.45098039215686)" d="M13.45 2.89C19.70 2.89 24.81-2.21 24.81-8.46C24.81-14.71 19.70-19.82 13.45-19.82C7.21-19.82 2.10-14.71 2.10-8.46C2.10-2.21 7.21 2.89 13.45 2.89ZM12.23-13.54C12.23-13.66 12.35-13.76 12.47-13.76C13.20-13.76 13.63-13.58 14.19-13.04C14.74-13.58 15.18-13.76 15.90-13.76C16.02-13.76 16.14-13.66 16.14-13.54C16.14-13.42 16.04-13.31 15.93-13.31C15.30-13.31 14.92-13.18 14.51-12.75C14.39-12.62 14.29-12.56 14.19-12.56C14.09-12.56 13.98-12.62 13.86-12.75C13.45-13.18 13.07-13.31 12.46-13.31C12.33-13.31 12.23-13.42 12.23-13.54ZM11.59-7.85L12.59-8.51C12.79-8.65 12.75-8.84 12.62-8.98L11.45-10.17L9.40-8.72C9.05-8.46 8.67-8.55 8.46-8.78C8.20-9.05 8.16-9.52 8.59-9.82L11.12-11.64C11.46-11.88 11.89-11.85 12.20-11.54L15.60-7.99C14.74-7.64 14.30-7.08 13.45-7.08C12.69-7.08 12.28-7.51 11.59-7.85ZM16.83-8.61C16.05-8.61 15.43-9.26 15.43-10.03C15.43-10.82 16.05-11.44 16.83-11.44C17.61-11.44 18.23-10.82 18.23-10.03C18.23-9.26 17.61-8.61 16.83-8.61ZM6.12-5.59C6.01-5.59 5.89-5.67 5.89-5.81C5.89-5.92 6.01-6.04 6.12-6.04L6.26-6.04C7.68-6.04 8.19-7.18 9.84-7.18C11.51-7.18 12.01-6.04 13.45-6.04C14.89-6.04 15.41-7.18 17.06-7.18C18.73-7.18 19.23-6.04 20.66-6.04L20.79-6.04C20.89-6.04 21.01-5.92 21.01-5.81C21.01-5.67 20.89-5.59 20.79-5.59L20.66-5.59C18.94-5.59 18.42-6.74 17.06-6.74C15.68-6.74 15.18-5.59 13.45-5.59C11.74-5.59 11.23-6.74 9.84-6.74C8.48-6.74 7.97-5.59 6.26-5.59ZM6.12-3.80C6.01-3.80 5.89-3.88 5.89-4.02C5.89-4.15 6.01-4.24 6.12-4.24L6.26-4.24C7.68-4.24 8.19-5.39 9.84-5.39C11.51-5.39 12.01-4.24 13.45-4.24C14.89-4.24 15.41-5.39 17.06-5.39C18.73-5.39 19.23-4.24 20.66-4.24L20.79-4.24C20.89-4.24 21.01-4.15 21.01-4.02C21.01-3.88 20.89-3.80 20.79-3.80L20.66-3.80C18.94-3.80 18.42-4.95 17.06-4.95C15.68-4.95 15.18-3.80 13.45-3.80C11.74-3.80 11.23-4.95 9.84-4.95C8.48-4.95 7.97-3.80 6.26-3.80Z" fill="currentColor"/>
</svg>