<svg xmlns="http://www.w3.org/2000/svg" viewBox="0 0 24 24" width="24" height="24">
  <title>figure.elliptical.circle.fill</title>
  <path transform="matrix(0.8806329549363605, 0, 0, 0.8806329549363605, 0.15273477812177494, 19.45098039215686)" d="M13.45 2.89C19.70 2.89 24.81-2.21 24.81-8.46C24.81-14.71 19.70-19.82 13.45-19.82C7.21-19.82 2.10-14.71 2.10-8.46C2.10-2.21 7.21 2.89 13.45 2.89ZM12.22-13.54C11.43-13.54 10.79-14.17 10.79-14.94C10.79-15.73 11.43-16.35 12.22-16.35C12.98-16.35 13.63-15.73 13.63-14.94C13.63-14.17 12.98-13.54 12.22-13.54ZM15.49-3.20C15.18-3.09 14.79-3.21 14.63-3.63L13.58-6.23L10.93-7.77C10.36-8.10 10.00-8.75 10.05-9.43L10.24-11.68C10.32-12.60 11.10-13.10 11.99-12.81L14.46-11.99L16.90-12.26C17.77-12.34 17.93-11.06 17.05-10.96L14.55-10.66C14.40-10.65 14.24-10.66 14.10-10.71L12.77-11.18C12.63-11.23 12.55-11.18 12.53-11.04L12.39-8.75L14.46-7.22C14.59-7.11 14.67-7.05 14.70-6.96L15.83-4.10C16.02-3.64 15.81-3.29 15.49-3.20ZM14.47-1.31C14.36-1.27 14.24-1.35 14.19-1.43C14.14-1.54 14.19-1.69 14.36-1.75L16.75-2.53L16.75-10.46L16.98-10.49C17.11-10.51 17.11-10.51 17.19-10.52L17.19-2.37C17.19-2.29 17.12-2.21 17.03-2.17ZM9.47-2.11C9.19-2.29 9.02-2.66 9.29-3.06L10.86-5.43L10.76-7.35L12.25-6.49L12.18-5.21C12.16-5.06 12.12-4.96 12.06-4.88L10.36-2.33C10.11-1.93 9.74-1.92 9.47-2.11ZM9.18-1.03C9.06-1.03 8.96-1.14 8.96-1.25C8.96-1.36 9.05-1.48 9.18-1.48L12.12-1.48C12.25-1.48 12.34-1.36 12.34-1.25C12.34-1.14 12.23-1.03 12.12-1.03Z" fill="currentColor"/>
</svg>