<svg xmlns="http://www.w3.org/2000/svg" viewBox="0 0 24 24" width="24" height="24">
  <title>figure.seated.side.left.air.distribution.indirect</title>
  <path transform="matrix(0.7317710963424621, 0, 0, 0.7317710963424621, 2.6613430790983448, 20.30508646427419)" d="M13.18-24.59L13.18-22.22L11.77-22.22C10.55-22.22 9.82-21.81 9.05-20.80L5.57-16.18C4.97-15.40 4.28-15.08 3.11-15.08L1.97-15.08C1.80-15.08 1.68-14.95 1.68-14.79C1.68-14.64 1.80-14.51 1.97-14.51L3.11-14.51C4.44-14.51 5.23-14.88 5.98-15.84L9.49-20.43C10.17-21.29 10.78-21.64 11.77-21.64L13.18-21.64L13.18-19.21C13.18-18.81 13.65-18.64 13.98-18.90L17.16-21.46C17.44-21.67 17.47-22.09 17.16-22.34L13.98-24.89C13.65-25.15 13.18-24.98 13.18-24.59ZM20.89-13.57C22.51-13.57 23.85-14.92 23.85-16.49C23.85-18.11 22.51-19.44 20.89-19.44C19.28-19.44 17.99-18.11 17.99-16.49C17.99-14.73 19.28-13.57 20.89-13.57ZM3.38 1.90C3.95 2.52 4.92 2.44 5.60 1.72L10.28-3.11C10.44-3.27 10.57-3.32 10.79-3.22L14.74-1.72C17.05-0.84 19.13-1.91 20.30-4.02L22.39-7.84C23.32-9.50 23.00-11.23 21.41-12.06C19.89-12.91 18.28-12.27 17.36-10.57L14.31-5.00L11.73-5.95C10.43-6.43 9.38-6.28 8.36-5.23L3.48-0.19C2.81 0.52 2.87 1.38 3.38 1.90Z" fill="currentColor"/>
</svg>