<svg xmlns="http://www.w3.org/2000/svg" viewBox="0 0 24 24" width="24" height="24">
  <title>figure.rugby</title>
  <path transform="matrix(0.7105190119344991, 0, 0, 0.7105190119344991, -0.1232306411323898, 18.115736885928392)" d="M17.20-16.22C18.50-16.22 19.55-17.27 19.55-18.57C19.55-19.88 18.50-20.92 17.20-20.92C15.90-20.92 14.85-19.88 14.85-18.57C14.85-17.27 15.90-16.22 17.20-16.22ZM26.50-12.69C27.09-12.69 27.60-13.17 27.60-13.78C27.60-14.39 27.09-14.87 26.50-14.87L14.93-14.87C13.89-14.87 12.96-14.32 12.48-13.36L7.61-3.60L4.85-6.35C4.42-6.79 3.71-6.77 3.30-6.35C2.88-5.92 2.88-5.24 3.30-4.80L7.18-0.90C7.63-0.45 8.38-0.52 8.75-1.07L11.93-5.72C12.12-5.99 12.48-6.02 12.73-5.85L16.65-2.85L16.65 2.61C16.65 3.23 17.13 3.70 17.74 3.70C18.35 3.70 18.84 3.23 18.84 2.61L18.84-3.40C18.84-3.68 18.71-3.95 18.52-4.16L14.71-7.98L16.76-12.08C16.97-12.48 17.31-12.69 17.73-12.69ZM25.65-10.09C25.65-9.05 26.89-8.18 28.41-8.18C29.92-8.18 31.14-9.05 31.14-10.09C31.14-11.14 29.92-12 28.41-12C26.89-12 25.65-11.14 25.65-10.09ZM19.38-7.76L23.77-7.76C24.38-7.76 24.86-8.27 24.86-8.85C24.86-9.47 24.38-9.96 23.77-9.96L19.83-9.96L17.99-11.80L17.77-11.80C17.67-11.80 17.58-11.75 17.53-11.65L16.70-10.01L18.61-8.09C18.83-7.86 19.10-7.76 19.38-7.76Z" fill="currentColor"/>
</svg>