<svg xmlns="http://www.w3.org/2000/svg" viewBox="0 0 24 24" width="24" height="24">
  
  <path transform="matrix(0.9192196148601127, 0, 0, 0.9192196148601127, -0.3327928823587003, 19.87092196546399)" d="M5.93-13.57C7.56-13.57 8.85-14.73 8.85-16.49C8.85-18.11 7.56-19.44 5.93-19.44C4.31-19.44 2.99-18.11 2.99-16.49C2.99-14.92 4.31-13.57 5.93-13.57ZM14.50-8.91C14.66-8.91 14.73-8.96 14.80-9.16L16.00-12.35L20.64-12.35L21.83-9.16C21.90-8.98 21.97-8.91 22.17-8.91C22.32-8.91 22.45-9.02 22.45-9.16C22.45-9.25 22.44-9.27 22.42-9.35L18.71-19.08C18.64-19.28 18.52-19.37 18.33-19.37C18.12-19.37 17.99-19.28 17.92-19.08L14.21-9.35C14.19-9.27 14.18-9.25 14.18-9.19C14.18-9.01 14.30-8.91 14.50-8.91ZM16.22-12.94L18.29-18.41L18.34-18.41L20.41-12.94ZM23.45 1.90C23.96 1.38 24.02 0.52 23.34-0.19L18.48-5.23C17.46-6.28 16.41-6.43 15.11-5.95L12.52-5.00L9.47-10.57C8.54-12.27 6.95-12.91 5.43-12.06C3.82-11.23 3.52-9.50 4.44-7.84L6.54-4.02C7.71-1.91 9.79-0.84 12.09-1.72L16.04-3.22C16.27-3.32 16.38-3.27 16.55-3.11L21.22 1.72C21.91 2.44 22.89 2.52 23.45 1.90Z" fill="currentColor"/>
</svg>