<svg xmlns="http://www.w3.org/2000/svg" viewBox="0 0 24 24" width="24" height="24">
  
  <path transform="matrix(0.9130267611243582, 0, 0, 0.9130267611243582, -0.2401846409719104, 19.804021841924985)" d="M3.93-9.84C3.81-9.73 3.81-9.54 3.93-9.42C4.03-9.30 4.22-9.30 4.34-9.42L4.83-9.91C5.80-9.04 7.09-8.50 8.52-8.50C9.93-8.50 11.20-9.04 12.16-9.90L12.64-9.42C12.76-9.30 12.95-9.30 13.07-9.42C13.18-9.54 13.18-9.73 13.07-9.84L12.59-10.32C13.45-11.30 13.98-12.59 13.98-13.95C13.98-15.39 13.45-16.69 12.59-17.67L13.07-18.16C13.18-18.27 13.18-18.47 13.07-18.56C12.95-18.68 12.76-18.68 12.64-18.56L12.18-18.09C11.20-18.97 9.94-19.50 8.52-19.50C7.09-19.50 5.80-18.96 4.82-18.08L4.34-18.56C4.22-18.68 4.03-18.68 3.93-18.56C3.81-18.47 3.81-18.27 3.93-18.16L4.42-17.67C3.53-16.69 2.99-15.38 2.99-13.95C2.99-12.59 3.53-11.31 4.41-10.34ZM20.88-13.45C22.50-13.45 23.82-14.79 23.82-16.36C23.82-17.99 22.50-19.32 20.88-19.32C19.25-19.32 17.98-17.99 17.98-16.36C17.98-14.61 19.25-13.45 20.88-13.45ZM8.52-18.91C9.77-18.91 10.90-18.46 11.77-17.68L8.50-14.41L5.23-17.67C6.11-18.45 7.25-18.91 8.52-18.91ZM13.41-13.95C13.41-12.71 12.94-11.59 12.18-10.73L8.91-14.00L12.18-17.26C12.94-16.39 13.41-15.22 13.41-13.95ZM3.57-13.95C3.57-15.22 4.04-16.38 4.83-17.26L8.07-14.00L4.82-10.75C4.04-11.61 3.57-12.74 3.57-13.95ZM8.52-9.07C7.28-9.07 6.12-9.55 5.24-10.34L8.50-13.58L11.75-10.31C10.89-9.54 9.75-9.07 8.52-9.07ZM18.81-2.17C19.37-2.54 19.89-3.22 20.38-4.11L22.38-7.73C23.31-9.41 22.99-11.12 21.39-11.95C19.86-12.81 18.28-12.16 17.34-10.46L15.19-6.53ZM3.38 1.99C3.95 2.60 4.92 2.53 5.60 1.82L10.27-3C10.43-3.16 10.55-3.21 10.77-3.12L14.72-1.63C15.70-1.25 16.66-1.34 17.43-1.54L14.88-4.69L11.72-5.85C10.42-6.33 9.35-6.18 8.33-5.12L3.48-0.11C2.81 0.60 2.87 1.46 3.38 1.99ZM21.32 2.10C21.69 1.82 21.71 1.43 21.38 1.00L18.81-2.17C18.42-1.91 17.93-1.66 17.43-1.54L20.26 1.92C20.59 2.31 20.99 2.39 21.32 2.10Z" fill="currentColor"/>
</svg>