<svg xmlns="http://www.w3.org/2000/svg" viewBox="0 0 24 24" width="24" height="24">
  
  <path transform="matrix(0.8806329549363605, 0, 0, 0.8806329549363605, 0.15273477812177494, 19.45098039215686)" d="M13.45 2.89C19.73 2.89 24.81-2.19 24.81-8.46C24.81-14.74 19.73-19.82 13.45-19.82C7.18-19.82 2.10-14.74 2.10-8.46C2.10-2.19 7.18 2.89 13.45 2.89ZM13.45 2.32C7.49 2.32 2.67-2.50 2.67-8.46C2.67-14.43 7.49-19.24 13.45-19.24C19.42-19.24 24.23-14.43 24.23-8.46C24.23-2.50 19.42 2.32 13.45 2.32ZM13.41-13.86C14.18-13.86 14.81-14.51 14.81-15.29C14.81-16.05 14.18-16.70 13.41-16.70C12.63-16.70 12-16.05 12-15.29C12-14.51 12.63-13.86 13.41-13.86ZM16.37-1.18C16.75-1.18 17.03-1.48 17.03-1.85L17.03-5.51C17.03-5.67 16.96-5.89 16.75-6.02L14.38-7.58L14.38-11.58C14.38-11.67 14.45-11.74 14.54-11.74L19.68-11.74C20.04-11.74 20.32-12.04 20.32-12.40C20.32-12.76 20.04-13.05 19.68-13.05L12.39-13.05C11.78-13.05 11.44-12.83 11.12-12.45L9.40-10.34C8.98-9.83 9.30-9.11 9.84-9.11L11.74-9.11L11.74-8.18C11.74-7.58 12.09-7.02 12.63-6.73L15.71-5.09L15.71-1.85C15.71-1.48 16.01-1.18 16.37-1.18ZM11.07-10.38L11.79-11.25L11.79-10.38ZM8.95-1.41C9.20-1.14 9.61-1.10 9.89-1.36L12.48-3.62C12.61-3.73 12.66-3.79 12.70-3.90L13.46-5.79L12.42-6.34C12.25-6.43 12.12-6.53 12.08-6.59L11.51-4.54L9.01-2.33C8.74-2.11 8.71-1.68 8.95-1.41Z" fill="currentColor"/>
</svg>