<svg xmlns="http://www.w3.org/2000/svg" viewBox="0 0 24 24" width="24" height="24">
  <title>figure.sailing</title>
  <path transform="matrix(0.753495217071376, 0, 0, 0.753495217071376, -0.2516556291390728, 18.233506256642293)" d="M5.04-0.18L19.88-0.18L24.28-4.58C24.50-4.80 24.86-4.79 25.05-4.58L26.87-2.78L25.00-0.89C24.05 0.08 25.49 1.55 26.46 0.57L29.07-2.04C29.51-2.47 29.50-3.11 29.07-3.52L26.03-6.55C25.43-7.14 24.66-7.48 23.84-7.48L16.28-7.48L16.28-19.91C16.28-20.71 15.12-21.05 14.60-20.14L4.30-1.58C3.88-0.83 4.30-0.18 5.04-0.18ZM5.11-0.76C4.75-0.76 4.69-1.08 4.80-1.29L15.12-19.86C15.32-20.23 15.69-20.11 15.69-19.82L15.69-0.76ZM23.12-8.82C24.42-8.82 25.46-9.88 25.46-11.18C25.46-12.48 24.42-13.52 23.12-13.52C21.82-13.52 20.75-12.48 20.75-11.18C20.75-9.88 21.82-8.82 23.12-8.82ZM18.55-5.39C18.74-5.39 18.83-5.19 18.70-5.06L16.28-2.64L16.28-5.39ZM3.28 4.14L4.24 4.14C7.05 4.14 7.91 2.21 10.25 2.21C12.59 2.21 13.44 4.14 16.27 4.14C19.09 4.14 19.95 2.21 22.28 2.21C24.61 2.21 25.46 4.14 28.29 4.14L29.24 4.14C29.40 4.14 29.53 4.01 29.53 3.84C29.53 3.69 29.40 3.55 29.24 3.55L28.29 3.55C25.85 3.55 25.00 1.63 22.28 1.63C19.56 1.63 18.70 3.55 16.27 3.55C13.82 3.55 12.97 1.63 10.25 1.63C7.54 1.63 6.68 3.55 4.24 3.55L3.28 3.55C3.13 3.55 2.99 3.69 2.99 3.84C2.99 4.01 3.13 4.14 3.28 4.14Z" fill="currentColor"/>
</svg>