<svg xmlns="http://www.w3.org/2000/svg" viewBox="0 0 24 24" width="24" height="24">
  <title>figure.flexibility.circle</title>
  <path transform="matrix(0.8806329549363605, 0, 0, 0.8806329549363605, 0.15273477812177494, 19.45098039215686)" d="M13.45 2.89C19.73 2.89 24.81-2.19 24.81-8.46C24.81-14.74 19.73-19.82 13.45-19.82C7.18-19.82 2.10-14.74 2.10-8.46C2.10-2.19 7.18 2.89 13.45 2.89ZM13.45 2.32C7.49 2.32 2.67-2.50 2.67-8.46C2.67-14.43 7.49-19.24 13.45-19.24C19.42-19.24 24.23-14.43 24.23-8.46C24.23-2.50 19.42 2.32 13.45 2.32ZM10.44-12.59C11.23-12.59 11.85-13.23 11.85-14.02C11.85-14.78 11.23-15.41 10.44-15.41C9.67-15.41 9.04-14.78 9.04-14.02C9.04-13.23 9.67-12.59 10.44-12.59ZM19.99-3.46L15.74-5.77L13.29-7.48C13.09-7.61 12.93-7.76 12.77-7.93C13.03-8.09 13.14-8.38 13.07-8.65L12.59-10.62C12.41-11.30 11.78-11.78 11.07-11.78L9.53-11.78C9.07-11.78 8.74-11.67 8.43-11.36L6.69-9.61C6.47-9.40 6.46-9.07 6.59-8.81L7.82-6.67L7.82-2.89C7.82-2.53 8.11-2.21 8.47-2.21C8.82-2.21 9.13-2.53 9.13-2.89L9.13-6.13L12.90-5.86L15.18-4.57L19.38-2.31C19.77-2.11 20.14-2.30 20.29-2.58C20.45-2.89 20.31-3.29 19.99-3.46ZM7.98-9.02L9.12-10.18L10.00-7.89L9.30-7.50L8.86-7.50Z" fill="currentColor"/>
</svg>