<svg xmlns="http://www.w3.org/2000/svg" viewBox="0 0 24 24" width="24" height="24">
  
  <path transform="matrix(0.8268388106168415, 0, 0, 0.8268388106168415, 5.0675938076725515, 19.005939150617923)" d="M2.99-19.61L3.19-15.80C3.21-15.15 3.46-14.77 3.96-14.39L6.30-12.68C6.61-12.47 6.79-12.29 6.79-11.75L6.79 2.63C6.79 3.18 7.23 3.62 7.78 3.62C8.33 3.62 8.78 3.18 8.78 2.63L8.78-5.23C8.78-5.39 8.92-5.52 9.08-5.52C9.25-5.52 9.38-5.39 9.38-5.23L9.38 2.63C9.38 3.18 9.82 3.62 10.37 3.62C10.93 3.62 11.38 3.18 11.38 2.63L11.38-10.18C11.38-10.35 11.51-10.48 11.67-10.48C11.84-10.48 11.98-10.35 11.98-10.18L11.98-6C11.98-5.50 12.38-5.09 12.88-5.09C13.37-5.09 13.78-5.50 13.78-6L13.78-10.66C13.78-13.02 12.06-14.59 9.76-14.59L7.73-14.59C7.10-14.59 6.68-14.71 6.14-15.09L4.99-15.91L4.78-19.70C4.75-20.20 4.34-20.59 3.82-20.57C3.33-20.52 2.96-20.10 2.99-19.61ZM9.08-15.94C10.36-15.94 11.39-16.97 11.39-18.25C11.39-19.54 10.36-20.57 9.08-20.57C7.79-20.57 6.76-19.54 6.76-18.25C6.76-16.97 7.79-15.94 9.08-15.94Z" fill="currentColor"/>
</svg>