<svg xmlns="http://www.w3.org/2000/svg" viewBox="0 0 24 24" width="24" height="24">
  
  <path transform="matrix(0.8958201324963506, 0, 0, 0.8958201324963506, -0.6769625053113604, 19.670561249983116)" d="M5.93-13.57C7.56-13.57 8.85-14.73 8.85-16.49C8.85-18.11 7.56-19.44 5.93-19.44C4.32-19.44 2.99-18.11 2.99-16.49C2.99-14.92 4.32-13.57 5.93-13.57ZM15.40-9C15.64-8.73 16.10-9.04 15.87-9.39C15.60-9.73 15.49-9.97 15.49-10.42C15.49-11.07 16.08-11.40 16.32-12.01C16.98-12.22 17.75-12.36 18.41-12.36C18.48-12.36 18.54-12.36 18.60-12.36C18.45-11.81 17.68-11.29 17.68-10.42C17.68-9.87 17.84-9.45 18.18-9C18.43-8.73 18.89-9.04 18.66-9.39C18.39-9.73 18.28-9.97 18.28-10.42C18.28-11.17 19.07-11.50 19.20-12.30C19.00-12.34 18.80-12.35 18.60-12.36C18.62-12.42 18.63-12.49 18.63-12.55C18.63-13.20 17.68-13.71 17.68-14.72C17.68-15.23 17.82-15.66 18.20-16.11C18.46-16.44 18.94-16.11 18.67-15.76C18.39-15.38 18.28-15.12 18.28-14.72C18.28-13.85 19.22-13.52 19.22-12.55C19.22-12.47 19.21-12.39 19.20-12.30C19.86-12.22 20.54-12.02 21.07-11.79C20.80-11.41 20.47-10.99 20.47-10.42C20.47-9.87 20.63-9.45 20.96-9C21.22-8.73 21.68-9.04 21.43-9.39C21.18-9.73 21.07-9.97 21.07-10.42C21.07-10.95 21.46-11.26 21.73-11.70C21.77-11.72 21.81-11.75 21.84-11.80L25.21-16.17C25.38-16.39 25.34-16.65 25.11-16.82C23.63-17.89 20.91-18.68 18.41-18.68C15.93-18.68 13.21-17.89 11.72-16.82C11.50-16.65 11.46-16.39 11.63-16.17L14.99-11.80C15.09-11.67 15.23-11.61 15.39-11.63C15.61-11.95 15.84-12.25 15.84-12.55C15.84-13.20 14.91-13.71 14.91-14.72C14.91-15.23 15.04-15.66 15.41-16.11C15.67-16.44 16.15-16.11 15.88-15.76C15.60-15.38 15.49-15.12 15.49-14.72C15.49-13.85 16.43-13.52 16.43-12.55C16.43-12.34 16.39-12.16 16.32-12.01C16.03-11.91 15.76-11.80 15.54-11.68C15.48-11.65 15.43-11.64 15.39-11.63C15.14-11.30 14.91-10.91 14.91-10.42C14.91-9.87 15.05-9.45 15.40-9ZM21.29-11.68C21.22-11.72 21.15-11.75 21.07-11.79C21.26-12.06 21.42-12.29 21.42-12.55C21.42-13.20 20.47-13.71 20.47-14.72C20.47-15.23 20.61-15.66 20.99-16.11C21.25-16.44 21.71-16.11 21.46-15.76C21.18-15.38 21.07-15.12 21.07-14.72C21.07-13.85 22.01-13.52 22.01-12.55C22.01-12.20 21.89-11.93 21.73-11.70C21.60-11.61 21.45-11.60 21.29-11.68ZM23.45 1.90C23.96 1.38 24.02 0.52 23.36-0.19L18.48-5.23C17.46-6.28 16.41-6.43 15.11-5.95L12.52-5.00L9.47-10.57C8.54-12.27 6.95-12.91 5.43-12.06C3.83-11.23 3.52-9.50 4.44-7.84L6.54-4.02C7.71-1.91 9.79-0.84 12.09-1.72L16.04-3.22C16.27-3.32 16.39-3.27 16.56-3.11L21.23 1.72C21.91 2.44 22.89 2.52 23.45 1.90Z" fill="currentColor"/>
</svg>