<svg xmlns="http://www.w3.org/2000/svg" viewBox="0 0 24 24" width="24" height="24">
  
  <path transform="matrix(0.7505130460275579, 0, 0, 0.7505130460275579, 3.2063427528818593, 18.35004397537379)" d="M9.30-17.09C10.61-17.09 11.66-18.14 11.66-19.43C11.66-20.73 10.61-21.79 9.30-21.79C8.02-21.79 6.96-20.73 6.96-19.43C6.96-18.14 8.02-17.09 9.30-17.09ZM10.76-0.70C11.29-0.54 11.93-0.73 12.15-1.46L13.61-6.33C13.79-7.00 13.52-7.57 12.90-7.79L9.14-9.15L9.69-13.05C9.71-13.25 9.90-13.34 10.09-13.24L11.99-12.38C12.25-12.26 12.43-12.22 12.76-12.20L17.52-11.72C18.13-11.66 18.67-12.08 18.69-12.68C18.75-13.24 18.32-13.78 17.74-13.84L12.89-14.32L9.21-16.01C7.64-16.72 6.01-15.94 5.81-14.34L5.21-9.76C5.03-8.43 5.87-7.20 7.18-6.90L11.27-5.95L10.09-2.09C9.87-1.37 10.25-0.87 10.76-0.70ZM20.43-14.82C20.33-14.99 20.16-15.05 20.02-14.96C19.13-14.54 18.98-14.45 18.83-14.31C19.00-14.18 19.14-14.04 19.25-13.86C19.35-13.95 19.44-14.02 20.26-14.45C20.43-14.53 20.48-14.70 20.43-14.82ZM6.15 4.86L10.11 4.86C10.27 4.86 10.41 4.72 10.41 4.57L10.41 2.17L14.04 2.17C14.19 2.17 14.33 2.04 14.33 1.88L14.33-0.53L18.04-0.53C18.19-0.53 18.33-0.66 18.33-0.82L18.71-11.13C18.67-11.10 18.61-11.07 18.56-11.04C18.42-10.95 18.27-10.90 18.13-10.88L17.74-1.10L14.04-1.10C13.88-1.10 13.75-0.97 13.75-0.81L13.75 1.58L10.11 1.58C9.95 1.58 9.82 1.71 9.82 1.88L9.82 4.28L6.15 4.28C5.99 4.28 5.86 4.41 5.86 4.57C5.86 4.73 5.99 4.86 6.15 4.86ZM3.57 2.75C4.02 2.98 4.63 2.88 5.02 2.30L7.95-2.06C8.07-2.23 8.12-2.44 8.17-2.70L8.65-5.66L6.98-6.04C6.71-6.09 6.47-6.19 6.22-6.30L6.01-3.02L3.23 1.11C2.74 1.84 3.05 2.50 3.57 2.75Z" fill="currentColor"/>
</svg>