<svg xmlns="http://www.w3.org/2000/svg" viewBox="0 0 24 24" width="24" height="24">
  <title>figure.outdoor.rowing.circle</title>
  <path transform="matrix(0.8806329549363605, 0, 0, 0.8806329549363605, 0.15273477812177494, 19.45098039215686)" d="M13.45 2.89C19.73 2.89 24.81-2.19 24.81-8.46C24.81-14.74 19.73-19.82 13.45-19.82C7.18-19.82 2.10-14.74 2.10-8.46C2.10-2.19 7.18 2.89 13.45 2.89ZM13.45 2.32C7.49 2.32 2.67-2.50 2.67-8.46C2.67-14.43 7.49-19.24 13.45-19.24C19.42-19.24 24.23-14.43 24.23-8.46C24.23-2.50 19.42 2.32 13.45 2.32ZM11.33-13.11C12.11-13.11 12.74-13.75 12.74-14.52C12.74-15.29 12.11-15.93 11.33-15.93C10.54-15.93 9.91-15.29 9.91-14.52C9.91-13.75 10.54-13.11 11.33-13.11ZM11.41-4.56L17.34-11.16C17.47-11.29 17.55-11.45 17.55-11.63C17.55-12 17.25-12.30 16.90-12.30L11.19-12.30C9.89-12.30 8.85-11.55 8.54-10.45L7.91-8.07C7.62-7.01 8.31-6.32 9.13-6.32C9.40-6.32 9.67-6.40 9.94-6.54L13.46-8.40L13.63-8.34L14.54-9.35L13.88-9.68C13.61-9.82 13.32-9.83 13.03-9.71L10.42-8.58L10.95-10.42C11.03-10.75 11.33-10.97 11.67-10.97L16.61-10.97L10.85-4.58C11.04-4.61 11.30-4.59 11.41-4.56ZM14.85-7.71L17.33-6.46C17.81-6.21 18.18-6.41 18.33-6.73C18.48-7.01 18.39-7.43 17.93-7.65L15.75-8.73ZM10.63-5.02L7.68-5.02C7.56-5.02 7.46-4.91 7.46-4.79C7.46-4.68 7.56-4.58 7.68-4.58L10.23-4.58ZM19.23-5.02L12.42-5.02L12.02-4.58L19.23-4.58C19.35-4.58 19.45-4.68 19.45-4.79C19.45-4.91 19.35-5.02 19.23-5.02ZM13.45-2.29C14.79-2.29 15.16-3.14 16.14-3.14C17.12-3.14 17.50-2.29 18.81-2.29L19.22-2.29C19.34-2.29 19.44-2.39 19.44-2.50C19.44-2.61 19.35-2.73 19.22-2.73L18.81-2.73C17.78-2.73 17.41-3.59 16.14-3.59C14.86-3.59 14.48-2.73 13.45-2.73C12.42-2.73 12.05-3.59 10.78-3.59C9.49-3.59 9.13-2.73 8.10-2.73L7.70-2.73C7.56-2.73 7.48-2.61 7.48-2.50C7.48-2.39 7.57-2.29 7.70-2.29L8.10-2.29C9.41-2.29 9.79-3.14 10.78-3.14C11.75-3.14 12.13-2.29 13.45-2.29Z" fill="currentColor"/>
</svg>