<svg xmlns="http://www.w3.org/2000/svg" viewBox="0 0 24 24" width="24" height="24">
  
  <path transform="matrix(0.7680759843236756, 0, 0, 0.7680759843236756, 2.4725574678912814, 18.54363663109667)" d="M13.38-2.14L16.71-6.73L18.82-2.88C19.54 0.42 19.61 2.96 19.61 3.35C19.61 4.01 20.12 4.50 20.72 4.50C21.34 4.50 21.82 4.01 21.82 3.38C21.82 3.26 21.56 0.42 20.96-3.49L20.94-3.68C20.25-8.17 17.19-16.36 9.89-21.21C9.52-21.45 9.20-21.54 8.82-21.54L4.09-21.54C3.48-21.54 2.99-21.05 2.99-20.44C2.99-19.82 3.48-19.32 4.09-19.32L8.74-19.32C9.89-18.53 10.89-17.66 11.80-16.73C11.93-16.62 11.95-16.42 11.86-16.28L8.14-9.93C7.68-9.12 8.23-8.25 9.09-8.25L14.17-8.25L11.50-3.34L11.39-3.14L8.11 2.86C7.82 3.40 8.00 4.08 8.54 4.37C9.05 4.63 9.73 4.51 10.05 3.91ZM7.27-13.55C8.55-13.55 9.59-14.58 9.59-15.86C9.59-17.14 8.55-18.18 7.27-18.18C5.99-18.18 4.96-17.14 4.96-15.86C4.96-14.58 5.99-13.55 7.27-13.55ZM11.00-10.46L11.82-11.87C11.96-12.11 12.22-12.06 12.34-11.89L13.29-10.46Z" fill="currentColor"/>
</svg>