<svg xmlns="http://www.w3.org/2000/svg" viewBox="0 0 24 24" width="24" height="24">
  <title>figure.tennis.circle</title>
  <path transform="matrix(0.8806329549363605, 0, 0, 0.8806329549363605, 0.15273477812177494, 19.45098039215686)" d="M13.45 2.89C19.73 2.89 24.81-2.19 24.81-8.46C24.81-14.74 19.73-19.82 13.45-19.82C7.18-19.82 2.10-14.74 2.10-8.46C2.10-2.19 7.18 2.89 13.45 2.89ZM13.45 2.32C7.49 2.32 2.67-2.50 2.67-8.46C2.67-14.43 7.49-19.24 13.45-19.24C19.42-19.24 24.23-14.43 24.23-8.46C24.23-2.50 19.42 2.32 13.45 2.32ZM8.20-15.80C7.35-15.80 6.68-15.11 6.68-14.25C6.68-13.51 7.20-12.62 7.99-12.26L7.99-10.09C7.99-9.87 8.05-9.67 8.21-9.54L10.04-8.10C10.27-7.92 10.51-7.93 10.79-8.05L12.81-8.89C13.09-9.01 13.24-8.86 13.28-8.67L14.27-3.15L11.50-2.04C11.17-1.91 11.00-1.54 11.13-1.20C11.29-0.82 11.66-0.69 11.99-0.83L15.25-2.13C15.53-2.25 15.68-2.53 15.67-2.82L15.49-5.37C15.47-5.66 15.77-5.81 15.98-5.66L17.95-4.35L17.95-1.43C17.95-1.07 18.25-0.77 18.61-0.77C18.97-0.77 19.25-1.07 19.25-1.43L19.25-4.69C19.25-4.93 19.15-5.11 18.97-5.26L16.43-7.34L15.94-10.05C15.89-10.35 15.93-10.62 16.05-10.89L18.19-15.15C18.35-15.48 18.21-15.87 17.89-16.03C17.57-16.20 17.18-16.07 17.02-15.75L14.92-11.54C14.77-11.24 14.54-11.05 14.23-10.91L10.54-9.38L9.05-10.57C8.86-10.72 8.63-10.75 8.44-10.69L8.44-12.27C9.22-12.64 9.73-13.52 9.73-14.25C9.73-15.11 9.04-15.80 8.20-15.80ZM8.20-15.35C8.81-15.35 9.28-14.88 9.28-14.25C9.28-13.64 8.89-12.94 8.20-12.66C7.51-12.94 7.13-13.64 7.13-14.25C7.13-14.88 7.58-15.35 8.20-15.35ZM12.76-11.33C13.52-11.33 14.17-11.98 14.17-12.74C14.17-13.51 13.52-14.16 12.76-14.16C11.99-14.16 11.34-13.51 11.34-12.74C11.34-11.98 11.99-11.33 12.76-11.33Z" fill="currentColor"/>
</svg>