<svg xmlns="http://www.w3.org/2000/svg" viewBox="0 0 24 24" width="24" height="24">
  <title>figure.martial.arts</title>
  <path transform="matrix(0.77341014017296, 0, 0, 0.77341014017296, 2.2531616008303805, 18.63133914707869)" d="M10.69-16.79C11.98-16.79 13.03-17.86 13.03-19.16C13.03-20.44 11.98-21.50 10.69-21.50C9.39-21.50 8.33-20.44 8.33-19.16C8.33-17.86 9.39-16.79 10.69-16.79ZM15.63 4.35C16.24 4.35 16.72 3.86 16.72 3.25L16.72-2.86C16.72-3.13 16.58-3.49 16.24-3.71L12.32-6.33L12.32-12.97C12.32-13.13 12.43-13.24 12.59-13.24L21.13-13.24C21.74-13.24 22.22-13.75 22.22-14.34C22.22-14.95 21.74-15.45 21.13-15.45L8.99-15.45C7.96-15.45 7.41-15.08 6.87-14.41L4.00-10.91C3.32-10.05 3.87-8.85 4.76-8.85L7.92-8.85L7.92-7.32C7.92-6.33 8.50-5.38 9.39-4.91L14.53-2.14L14.53 3.25C14.53 3.86 15.02 4.35 15.63 4.35ZM6.81-10.97L7.98-12.43L7.98-10.97ZM3.26 3.97C3.67 4.44 4.35 4.49 4.82 4.07L9.14 0.29C9.34 0.09 9.43 0.01 9.50-0.19L10.72-3.18L8.95-4.11C8.78-4.22 8.60-4.36 8.44-4.49L7.52-1.22L3.35 2.43C2.91 2.81 2.86 3.53 3.26 3.97Z" fill="currentColor"/>
</svg>