<svg xmlns="http://www.w3.org/2000/svg" viewBox="0 0 24 24" width="24" height="24">
  
  <path transform="matrix(0.7872078720787208, 0, 0, 0.7872078720787208, 3.2641333406524518, 18.669741697416974)" d="M9.74-16.55C11.03-16.55 12.06-17.58 12.06-18.86C12.06-20.14 11.03-21.18 9.74-21.18C8.45-21.18 7.43-20.14 7.43-18.86C7.43-17.58 8.45-16.55 9.74-16.55ZM3.52-10.80C2.24-9.05 3.38-6.66 5.88-7.03L9.83-7.63L8.21-2.80C7.71-1.29 9.81-0.66 10.28-2.07L12.41-8.53C12.67-9.28 12.20-10.02 11.32-10.02L7.43-10.02L9.47-12.75C9.68-13.02 9.81-13.04 10.08-13.04L18.13-13.04C18.71-13.04 19.21-13.52 19.21-14.12C19.21-14.72 18.73-15.20 18.13-15.20L7.89-15.20C7.14-15.20 6.40-14.81 5.93-14.17ZM4.46 3.67C4.46 4.01 4.70 4.23 5.07 4.23L13.63 4.23C13.99 4.23 14.24 4.01 14.24 3.67L14.24-0.06C14.24-0.41 13.99-0.63 13.63-0.63L5.07-0.63C4.70-0.63 4.46-0.41 4.46-0.06Z" fill="currentColor"/>
</svg>