<svg xmlns="http://www.w3.org/2000/svg" viewBox="0 0 24 24" width="24" height="24">
  <title>firewall.fill</title>
  <path transform="matrix(0.8856599204289916, 0, 0, 0.8856599204289916, 1.346133886870783, 19.208095485210173)" d="M12.02 3.15C12.29 3.15 12.60 3 12.79 2.88C19.16-1.04 21.07-2.17 21.07-5.72L21.07-14.51C21.07-15.81 20.75-16.24 19.50-16.72C17.26-17.57 15.11-18.47 12.87-19.25C12.56-19.36 12.32-19.43 12.02-19.43C11.74-19.43 11.50-19.36 11.19-19.25C8.96-18.41 6.79-17.57 4.56-16.72C3.29-16.27 2.99-15.81 2.99-14.51L2.99-5.72C2.99-2.17 4.96-1.13 11.26 2.88C11.46 3 11.75 3.15 12.02 3.15ZM13.57-13.71C13.57-14.00 13.85-14.06 14.04-13.93L16.99-11.93C17.23-11.77 17.19-11.50 17.02-11.38L14.11-9.38C13.89-9.23 13.57-9.35 13.57-9.69L13.57-11.36L7.17-11.36C7.02-11.36 6.89-11.48 6.89-11.65C6.89-11.81 7.02-11.94 7.17-11.94L13.57-11.94ZM7.03-5.40C6.86-5.52 6.83-5.79 7.07-5.95L10.01-7.96C10.21-8.09 10.48-8.03 10.48-7.73L10.48-5.95L16.88-5.95C17.04-5.95 17.17-5.82 17.17-5.67C17.17-5.51 17.04-5.38 16.88-5.38L10.48-5.38L10.48-3.71C10.48-3.38 10.17-3.25 9.95-3.40Z" fill="currentColor"/>
</svg>