<svg xmlns="http://www.w3.org/2000/svg" viewBox="0 0 24 24" width="24" height="24">
  
  <path transform="matrix(0.8593487747566297, 0, 0, 0.8593487747566297, -0.5679758308157101, 19.270896273917423)" d="M3.96-14.09L25.29-14.09C25.89-14.09 26.26-14.45 26.26-15.06L26.26-17.29C26.26-17.89 25.89-18.27 25.29-18.27L3.96-18.27C3.36-18.27 2.99-17.89 2.99-17.29L2.99-15.06C2.99-14.45 3.36-14.09 3.96-14.09ZM3.46 1.35L25.80 1.35C25.96 1.35 26.09 1.22 26.09 1.05C26.09 0.90 25.96 0.77 25.80 0.77L24.02 0.77L24.02-13.20L5.23-13.20L5.23 0.77L3.46 0.77C3.30 0.77 3.18 0.90 3.18 1.05C3.18 1.22 3.30 1.35 3.46 1.35ZM8.48 0.77L8.48-10.22C8.48-11.25 9.06-11.84 10.05-11.84L19.18-11.84C20.19-11.84 20.75-11.25 20.75-10.22L20.75 0.77L20.18 0.77L20.18-10.25C20.18-10.89 19.83-11.25 19.23-11.25L10.02-11.25C9.42-11.25 9.07-10.89 9.07-10.25L9.07 0.77ZM14.61-0.34C12.64-0.34 11.40-1.39 11.40-3.06C11.40-4.50 12.14-4.93 12.14-6.09C12.14-6.29 12.09-6.55 12.09-6.67C12.09-6.74 12.14-6.77 12.21-6.77C12.49-6.77 13.07-6.46 13.30-5.96C13.54-6.86 13.21-7.84 12.43-8.75C12.28-8.95 12.40-9.18 12.70-9.18C15.01-9.18 18.12-7.62 18.12-3.97C18.12-1.77 16.71-0.34 14.61-0.34ZM14.68-1.54C15.59-1.54 16.02-2.19 16.02-2.94C16.02-3.68 15.57-4.48 14.70-4.91C14.82-4.36 14.77-3.77 14.52-3.39C14.43-3.60 14.24-3.83 14.05-3.96C13.97-3.49 13.50-3.26 13.50-2.60C13.50-1.97 13.97-1.54 14.68-1.54Z" fill="currentColor"/>
</svg>