<svg xmlns="http://www.w3.org/2000/svg" viewBox="0 0 24 24" width="24" height="24">
  <title>flag.square</title>
  <path transform="matrix(0.9752380952380952, 0, 0, 0.9752380952380952, -0.9142857142857141, 20.251428571428573)" d="M6 1.79L20.48 1.79C22.44 1.79 23.50 0.71 23.50-1.22L23.50-15.70C23.50-17.64 22.44-18.71 20.48-18.71L6-18.71C4.03-18.71 2.99-17.67 2.99-15.70L2.99-1.22C2.99 0.75 4.03 1.79 6 1.79ZM6.02 1.22C4.41 1.22 3.56 0.38 3.56-1.25L3.56-15.68C3.56-17.30 4.41-18.14 6.02-18.14L20.45-18.14C22.02-18.14 22.92-17.30 22.92-15.68L22.92-1.25C22.92 0.38 22.02 1.22 20.45 1.22ZM8.64-2.30C8.82-2.30 8.93-2.44 8.93-2.57L8.93-6.40C9.22-6.50 9.74-6.69 10.63-6.69C12.76-6.69 14.04-5.59 16.23-5.59C16.96-5.59 17.44-5.67 17.88-5.89C18.27-6.09 18.45-6.28 18.45-6.56L18.45-12.45C18.45-12.69 18.32-12.84 18.07-12.84C17.78-12.84 17.20-12.55 16.16-12.55C14.03-12.55 12.75-13.65 10.57-13.65C9.75-13.65 9.29-13.52 8.92-13.36C8.53-13.20 8.34-12.96 8.34-12.68L8.34-2.57C8.34-2.44 8.45-2.30 8.64-2.30Z" fill="currentColor"/>
</svg>