<svg xmlns="http://www.w3.org/2000/svg" viewBox="0 0 24 24" width="24" height="24">
  
  <path transform="matrix(0.9449981543004798, 0, 0, 0.9449981543004798, -0.6411960132890355, 19.962347729789588)" d="M4.28 2.16C4.43 2.16 4.56 2.03 4.56 1.85L4.56-5.60C5.03-5.60 6.11-6.15 8.14-6.15C12.23-6.15 14.66-4.09 18.74-4.09C20.27-4.09 21.09-4.30 21.81-4.63C22.39-4.90 22.78-5.24 22.78-5.73L22.78-16.91C22.78-17.32 22.56-17.50 22.22-17.50C21.71-17.50 20.64-16.95 18.61-16.95C14.51-16.95 12.09-19.01 8.02-19.01C6.48-19.01 5.65-18.80 4.93-18.47C4.36-18.20 3.97-17.86 3.97-17.37L3.97 1.85C3.97 2.02 4.11 2.16 4.28 2.16Z" fill="currentColor"/>
</svg>