<svg xmlns="http://www.w3.org/2000/svg" viewBox="0 0 24 24" width="24" height="24">
  <title>flag.circle.fill</title>
  <path transform="matrix(0.8806329549363605, 0, 0, 0.8806329549363605, 0.15273477812177494, 19.440660474716204)" d="M13.45 2.91C19.70 2.91 24.81-2.20 24.81-8.45C24.81-14.70 19.70-19.80 13.45-19.80C7.21-19.80 2.10-14.70 2.10-8.45C2.10-2.20 7.21 2.91 13.45 2.91ZM8.85-2.30C8.66-2.30 8.55-2.43 8.55-2.55L8.55-12.67C8.55-12.95 8.74-13.18 9.13-13.35C9.50-13.51 9.96-13.63 10.78-13.63C12.96-13.63 14.23-12.54 16.37-12.54C17.40-12.54 17.99-12.82 18.27-12.82C18.53-12.82 18.66-12.68 18.66-12.42L18.66-6.55C18.66-6.27 18.48-6.07 18.09-5.88C17.64-5.66 17.16-5.58 16.43-5.58C14.25-5.58 12.97-6.68 10.84-6.68C9.95-6.68 9.43-6.49 9.14-6.39L9.14-2.55C9.14-2.43 9.04-2.30 8.85-2.30Z" fill="currentColor"/>
</svg>