<svg xmlns="http://www.w3.org/2000/svg" viewBox="0 0 24 24" width="24" height="24">
  <title>flame.gauge.open</title>
  <path transform="matrix(0.8023820717755837, 0, 0, 0.8023820717755837, 0.31687823225199807, 18.76943986603579)" d="M14.57-19.16C7.68-19.16 2.10-13.58 2.10-6.70C2.10-3.25 3.50-0.12 5.78 2.16C5.94 2.31 6.14 2.33 6.25 2.20C6.35 2.09 6.34 1.90 6.18 1.73C4.01-0.42 2.67-3.41 2.67-6.70C2.67-13.27 7.99-18.59 14.57-18.59C21.14-18.59 26.45-13.27 26.45-6.70C26.45-3.41 25.13-0.42 22.95 1.73C22.78 1.90 22.77 2.09 22.88 2.20C22.98 2.33 23.19 2.31 23.34 2.16C25.61-0.11 27.02-3.25 27.02-6.70C27.02-13.58 21.46-19.16 14.57-19.16ZM14.70 0.34C18.04 0.34 20.27-1.95 20.27-5.43C20.27-11.23 15.38-13.71 11.67-13.71C11.29-13.71 11.11-13.59 11.11-13.35C11.11-13.27 11.13-13.17 11.26-13.04C12.09-12.04 12.93-10.78 12.93-9.61C12.93-9.25 12.83-8.91 12.64-8.60C12.27-9.41 11.37-9.91 10.90-9.91C10.78-9.91 10.72-9.84 10.72-9.73C10.72-9.55 10.78-9.13 10.78-8.84C10.78-6.94 9.61-6.28 9.61-3.97C9.61-1.37 11.59 0.34 14.70 0.34ZM14.75-1.57C13.64-1.57 12.90-2.25 12.90-3.26C12.90-4.31 13.64-4.70 13.75-5.37C13.76-5.43 13.78-5.44 13.83-5.41C14.11-5.17 14.32-4.84 14.51-4.50C14.81-4.93 14.98-5.79 14.80-6.83C14.80-6.89 14.84-6.93 14.87-6.89C16.17-6.25 16.88-4.98 16.88-3.81C16.88-2.61 16.20-1.57 14.75-1.57Z" fill="currentColor"/>
</svg>