<svg xmlns="http://www.w3.org/2000/svg" viewBox="0 0 24 24" width="24" height="24">
  <title>fluid.brakesignal</title>
  <path transform="matrix(0.6804891015417331, 0, 0, 0.6804891015417331, 0.5725677830940987, 17.761562998405104)" d="M16.79 2.37C22.77 2.37 27.63-2.48 27.63-8.46C27.63-14.44 22.77-19.30 16.79-19.30C10.82-19.30 5.96-14.44 5.96-8.46C5.96-2.48 10.82 2.37 16.79 2.37ZM20.58-5.48C20.34-5.78 20.10-5.78 19.88-5.48C19.21-4.64 18.04-4.11 16.79-4.11C15.55-4.11 14.40-4.64 13.71-5.48C13.49-5.78 13.24-5.78 13.01-5.48C12.34-4.64 11.18-4.11 9.93-4.11C8.79-4.11 7.73-4.56 7.04-5.27C6.71-6.28 6.53-7.35 6.53-8.46C6.53-14.12 11.13-18.73 16.79-18.73C22.45-18.73 27.06-14.12 27.06-8.46C27.06-7.35 26.88-6.28 26.54-5.27C25.85-4.56 24.80-4.11 23.66-4.11C22.41-4.11 21.25-4.64 20.58-5.48ZM31.49-8.46C31.49-11.95 30.26-15.15 28.24-17.68C28.15-17.81 27.96-17.82 27.83-17.72C27.71-17.63 27.69-17.45 27.80-17.32C29.75-14.89 30.91-11.81 30.91-8.46C30.91-5.11 29.75-2.03 27.80 0.38C27.69 0.53 27.70 0.69 27.83 0.80C27.97 0.91 28.13 0.90 28.24 0.75C30.26-1.76 31.49-4.97 31.49-8.46ZM2.10-8.46C2.10-4.97 3.33-1.76 5.34 0.75C5.46 0.90 5.61 0.91 5.75 0.80C5.88 0.69 5.91 0.53 5.79 0.38C3.84-2.03 2.67-5.11 2.67-8.46C2.67-11.81 3.84-14.89 5.79-17.32C5.91-17.45 5.87-17.63 5.75-17.72C5.63-17.82 5.45-17.81 5.34-17.68C3.33-15.15 2.10-11.95 2.10-8.46Z" fill="currentColor"/>
</svg>