<svg xmlns="http://www.w3.org/2000/svg" viewBox="0 0 24 24" width="24" height="24">
  <title>fluid.batteryblock</title>
  <path transform="matrix(0.7391367114190848, 0, 0, 0.7391367114190848, -0.2087483759203117, 18.245127760935468)" d="M6 1.05L27.05 1.05C29.00 1.05 30.05-0.02 30.05-1.96L30.05-11.95C30.05-13.89 29.00-14.96 27.05-14.96L24.79-14.96L24.79-16.88C24.79-17.55 24.41-17.95 23.66-17.95L20.96-17.95C20.21-17.95 19.85-17.55 19.85-16.88L19.85-14.96L13.20-14.96L13.20-16.88C13.20-17.55 12.82-17.95 12.07-17.95L9.38-17.95C8.63-17.95 8.26-17.55 8.26-16.88L8.26-14.96L6-14.96C4.03-14.96 2.99-13.91 2.99-11.95L2.99-1.96C2.99 0.01 4.03 1.05 6 1.05ZM20.31-7.59C20.06-7.89 19.83-7.89 19.61-7.59C18.91-6.75 17.77-6.22 16.52-6.22C15.28-6.22 14.12-6.75 13.43-7.59C13.21-7.89 12.97-7.89 12.74-7.59C12.06-6.75 10.91-6.22 9.64-6.22C8.39-6.22 7.24-6.75 6.56-7.59C6.33-7.89 6.08-7.89 5.86-7.59C5.33-6.94 4.65-6.49 3.56-6.30L3.56-11.92C3.56-13.55 4.41-14.39 6.02-14.39L27.01-14.39C28.57-14.39 29.47-13.55 29.47-11.92L29.47-6.30C28.39-6.49 27.70-6.94 27.18-7.59C26.95-7.89 26.72-7.89 26.47-7.59C25.80-6.75 24.64-6.22 23.39-6.22C22.14-6.22 20.98-6.75 20.31-7.59Z" fill="currentColor"/>
</svg>