<svg xmlns="http://www.w3.org/2000/svg" viewBox="0 0 24 24" width="24" height="24">
  
  <path transform="matrix(0.7825156655968211, 0, 0, 0.7825156655968211, -0.33837689133425064, 18.63457129756992)" d="M6 1.66L25.54 1.66C27.50 1.66 28.55 0.60 28.55-1.34L28.55-13.43C28.55-15.36 27.50-16.44 25.54-16.44L14.05-16.44C12.97-16.44 12.53-16.56 11.87-17.19L11.27-17.75C10.51-18.49 10.11-18.62 8.89-18.62L5.57-18.62C3.83-18.62 2.99-17.78 2.99-16.07L2.99-1.34C2.99 0.62 4.03 1.66 6 1.66ZM4.32-13.61L4.32-13.66C4.32-14.51 4.83-15.11 6-15.11L25.54-15.11C26.71-15.11 27.22-14.51 27.22-13.66L27.22-13.61Z" fill="currentColor"/>
</svg>