<svg xmlns="http://www.w3.org/2000/svg" viewBox="0 0 24 24" width="24" height="24">
  <title>forward.end.circle.fill</title>
  <path transform="matrix(0.8806329549363605, 0, 0, 0.8806329549363605, 0.15273477812177494, 19.45098039215686)" d="M13.45 2.89C19.70 2.89 24.81-2.21 24.81-8.46C24.81-14.71 19.70-19.82 13.45-19.82C7.21-19.82 2.10-14.71 2.10-8.46C2.10-2.21 7.21 2.89 13.45 2.89ZM18.39-4.42C18.39-4.03 18.22-3.89 17.85-3.89L16.59-3.89C16.21-3.89 16.07-4.03 16.07-4.42L16.07-8.11C16.00-8.03 15.95-7.97 15.86-7.93L9.57-4.23C9.45-4.16 9.26-4.07 9.11-4.07C8.81-4.07 8.52-4.29 8.52-4.77L8.52-12.08C8.52-12.56 8.81-12.79 9.11-12.79C9.26-12.79 9.45-12.69 9.57-12.62L15.86-8.92C15.95-8.87 16.00-8.82 16.07-8.74L16.07-12.50C16.07-12.89 16.21-13.04 16.59-13.04L17.85-13.04C18.22-13.04 18.39-12.89 18.39-12.50Z" fill="currentColor"/>
</svg>