<svg xmlns="http://www.w3.org/2000/svg" viewBox="0 0 24 24" width="24" height="24">
  <title>fuel.filter.water</title>
  <path transform="matrix(0.6661462399167317, 0, 0, 0.6661462399167317, 0.7900078064012499, 17.62841530054645)" d="M3.26-13.70L6.76-13.70L7.10-14.72C7.80-16.92 8.66-18.05 11.94-19.32L12.95-19.71L20.71-19.71L21.71-19.32C25.00-18.05 25.85-16.92 26.57-14.72L26.89-13.70L30.40-13.70C30.54-13.70 30.67-13.84 30.67-13.98C30.67-14.13 30.54-14.27 30.40-14.27L27.39-14.27L27.01-15.38C26.34-17.30 25.29-18.59 21.96-19.85L20.91-20.26L20.91-22.80C20.91-23.18 20.63-23.46 20.25-23.46L13.42-23.46C13.07-23.46 12.77-23.18 12.77-22.80L12.77-20.26L11.70-19.85C8.38-18.59 7.31-17.30 6.66-15.38L6.28-14.27L3.26-14.27C3.12-14.27 2.99-14.13 2.99-13.98C2.99-13.84 3.12-13.70 3.26-13.70ZM13.35-20.29L13.35-22.89L20.33-22.89L20.33-20.29ZM13.55 6.56L20.38 6.56C20.74 6.56 21.02 6.28 21.02 5.92L21.02 3.38L22.20 3.07C24.54 2.43 25.25 1.52 25.75-1.39L27.34-10.70L30.40-10.70C30.54-10.70 30.67-10.85 30.67-10.99C30.67-11.13 30.54-11.27 30.40-11.27L26.85-11.27L26.07-6.90C25.24-7.03 24.50-7.34 23.88-8.13C23.66-8.43 23.44-8.43 23.19-8.13C22.55-7.32 21.42-6.80 20.19-6.80C18.96-6.80 17.86-7.32 17.19-8.13C16.96-8.43 16.73-8.43 16.51-8.13C15.83-7.32 14.73-6.80 13.51-6.80C12.30-6.80 11.18-7.32 10.52-8.13C10.30-8.43 10.07-8.43 9.84-8.13C9.30-7.49 8.51-7.03 7.58-6.87L6.81-11.27L3.26-11.27C3.12-11.27 2.99-11.13 2.99-10.99C2.99-10.85 3.12-10.70 3.26-10.70L6.33-10.70L7.93-1.39C8.43 1.52 9.14 2.43 11.47 3.07L12.89 3.45L12.89 5.92C12.89 6.28 13.18 6.56 13.55 6.56ZM13.46 5.99L13.46 3.39L20.45 3.39L20.45 5.99Z" fill="currentColor"/>
</svg>