<svg xmlns="http://www.w3.org/2000/svg" viewBox="0 0 24 24" width="24" height="24">
  
  <path transform="matrix(0.7008898015058179, 0, 0, 0.7008898015058179, -0.09445585215605767, 17.901437371663242)" d="M17.72 0.27C17.82 0.27 17.92 0.20 17.92 0.07C17.92 0 17.89-0.06 17.84-0.13C16.11-2.13 14.82-4.77 14.82-8.40C14.82-11.55 15.93-14.72 17.85-16.73C17.89-16.77 17.92-16.83 17.92-16.91C17.92-17.04 17.82-17.11 17.72-17.11C17.60-17.11 17.55-17.06 17.44-16.96C15.40-14.85 14.29-11.82 14.29-8.40C14.29-4.98 15.28-2.31 17.44 0.11C17.53 0.21 17.60 0.27 17.72 0.27ZM28.09 0.27C28.21 0.27 28.28 0.21 28.37 0.11C30.53-2.31 31.52-4.98 31.52-8.40C31.52-11.82 30.41-14.85 28.37-16.96C28.25-17.06 28.21-17.11 28.09-17.11C27.98-17.11 27.89-17.04 27.89-16.91C27.89-16.83 27.91-16.77 27.96-16.73C29.88-14.72 30.98-11.55 30.98-8.40C30.98-4.77 29.70-2.13 27.97-0.13C27.91-0.06 27.89 0 27.89 0.07C27.89 0.20 27.98 0.27 28.09 0.27ZM4.01 0.16C5.80 0.16 6.55-0.79 7.00-2.92L8.71-11.03L11.43-11.03C11.59-11.03 11.68-11.13 11.68-11.30C11.68-11.46 11.58-11.55 11.43-11.55L8.82-11.55L9.33-13.91C9.73-15.81 10.27-16.55 11.77-16.55C12.07-16.55 12.38-16.51 12.50-16.51C12.68-16.51 12.76-16.61 12.76-16.73C12.76-16.99 12.50-17.07 11.74-17.07C9.96-17.07 9.20-16.13 8.75-13.99L8.24-11.55L5.88-11.55C5.71-11.55 5.59-11.46 5.59-11.30C5.59-11.13 5.71-11.03 5.88-11.03L8.13-11.03L6.43-3C6.02-1.10 5.48-0.36 3.98-0.36C3.68-0.36 3.39-0.40 3.25-0.40C3.07-0.40 2.99-0.30 2.99-0.18C2.99 0.08 3.26 0.16 4.01 0.16ZM19.25-2.84C19.37-2.84 19.44-2.88 19.55-3.02L22.95-8.06L22.97-8.06L26.40-2.98C26.47-2.87 26.54-2.84 26.66-2.84C26.82-2.84 26.94-2.96 26.94-3.11C26.94-3.15 26.93-3.22 26.87-3.32L23.30-8.57L26.81-13.49C26.89-13.61 26.93-13.65 26.93-13.76C26.93-13.91 26.78-14.02 26.64-14.02C26.53-14.02 26.45-13.96 26.33-13.78L22.97-9L22.95-9L19.59-13.78C19.46-13.93 19.42-14.02 19.29-14.02C19.11-14.02 19.00-13.90 19.00-13.76C19.00-13.65 19.04-13.58 19.11-13.48L22.62-8.57L19.05-3.32C18.98-3.21 18.97-3.14 18.97-3.09C18.97-2.94 19.10-2.84 19.25-2.84Z" fill="currentColor"/>
</svg>