<svg xmlns="http://www.w3.org/2000/svg" viewBox="0 0 24 24" width="24" height="24">
  
  <path transform="matrix(0.8806329549363605, 0, 0, 0.8806329549363605, 0.15273477812177494, 19.440660474716204)" d="M13.45 2.91C19.70 2.91 24.81-2.20 24.81-8.45C24.81-14.70 19.70-19.80 13.45-19.80C7.21-19.80 2.10-14.70 2.10-8.45C2.10-2.20 7.21 2.91 13.45 2.91ZM13.45-1.88C13.27-1.88 13.07-1.89 12.87-1.90L12.60-1.38C12.49-1.18 12.38-1.14 12.18-1.17C11.98-1.20 11.87-1.29 11.85-1.50L11.75-2.10C11.38-2.20 11.02-2.32 10.68-2.48L10.24-2.10C10.08-1.95 9.95-1.95 9.75-2.05C9.59-2.14 9.52-2.26 9.55-2.47L9.69-3.05C9.38-3.27 9.07-3.53 8.80-3.80L8.27-3.57C8.06-3.49 7.92-3.55 7.79-3.71C7.66-3.84 7.63-3.97 7.75-4.16L8.07-4.66C7.85-4.98 7.65-5.32 7.49-5.67L6.93-5.64C6.68-5.63 6.59-5.73 6.53-5.94C6.43-6.11 6.46-6.23 6.62-6.36L7.10-6.74C7.00-7.10 6.94-7.48 6.90-7.86L6.34-8.06C6.13-8.13 6.06-8.25 6.06-8.45C6.06-8.66 6.15-8.78 6.34-8.84L6.90-9.01C6.94-9.40 7.00-9.77 7.10-10.16L6.64-10.51C6.46-10.64 6.45-10.79 6.50-10.97C6.59-11.17 6.70-11.24 6.91-11.24L7.49-11.23C7.65-11.57 7.85-11.91 8.06-12.22L7.76-12.73C7.64-12.91 7.68-13.05 7.79-13.20C7.92-13.35 8.07-13.39 8.25-13.31L8.80-13.09C9.07-13.36 9.38-13.62 9.69-13.85L9.57-14.41C9.53-14.64 9.60-14.75 9.76-14.86C9.95-14.94 10.09-14.93 10.24-14.80L10.68-14.41C11.02-14.58 11.38-14.70 11.75-14.80L11.85-15.39C11.87-15.61 11.99-15.69 12.19-15.74C12.38-15.75 12.52-15.69 12.60-15.52L12.87-15C13.07-15.01 13.27-15.02 13.45-15.02C13.65-15.02 13.85-15.01 14.04-15L14.31-15.52C14.41-15.73 14.57-15.75 14.75-15.74C14.95-15.68 15.04-15.57 15.07-15.39L15.14-14.80C15.52-14.71 15.89-14.58 16.24-14.41L16.68-14.80C16.85-14.96 16.99-14.93 17.18-14.86C17.32-14.72 17.38-14.59 17.34-14.41L17.20-13.85C17.53-13.62 17.84-13.38 18.11-13.09L18.64-13.31C18.87-13.41 19.00-13.34 19.15-13.20C19.24-13.02 19.25-12.89 19.15-12.73L18.83-12.23C19.07-11.92 19.25-11.59 19.42-11.23L20.00-11.25C20.24-11.27 20.34-11.13 20.44-10.96C20.45-10.77 20.41-10.63 20.27-10.51L19.80-10.17C19.91-9.80 19.97-9.40 20.00-9.01L20.57-8.84C20.77-8.78 20.85-8.66 20.85-8.45C20.85-8.25 20.78-8.13 20.57-8.06L20.00-7.86C19.97-7.48 19.91-7.10 19.80-6.74L20.27-6.39C20.44-6.25 20.47-6.12 20.40-5.92C20.34-5.73 20.23-5.66 20.02-5.66L19.42-5.67C19.25-5.31 19.07-4.98 18.83-4.66L19.15-4.17C19.27-4.00 19.25-3.86 19.11-3.69C19.00-3.53 18.87-3.50 18.67-3.57L18.11-3.79C17.84-3.52 17.53-3.27 17.21-3.05L17.34-2.48C17.38-2.27 17.34-2.16 17.14-2.05C16.98-1.93 16.85-1.95 16.70-2.09L16.24-2.48C15.89-2.32 15.53-2.18 15.15-2.10L15.07-1.51C15.04-1.30 14.95-1.22 14.74-1.17C14.54-1.13 14.43-1.18 14.32-1.36L14.03-1.90C13.85-1.89 13.65-1.88 13.45-1.88ZM10.73-13.79L13.00-9.94C13.14-9.98 13.29-10.01 13.45-10.01C14.20-10.01 14.82-9.49 14.98-8.79L19.43-8.79C19.25-11.94 16.65-14.44 13.45-14.44C12.48-14.44 11.55-14.20 10.73-13.79ZM7.46-8.45C7.46-6.35 8.54-4.49 10.20-3.42L12.48-7.22C12.12-7.50 11.89-7.96 11.89-8.45C11.89-8.91 12.08-9.33 12.41-9.61L10.16-13.45C8.54-12.39 7.46-10.55 7.46-8.45ZM12.48-8.45C12.48-7.91 12.91-7.46 13.45-7.46C13.99-7.46 14.44-7.91 14.44-8.45C14.44-8.99 13.99-9.42 13.45-9.42C12.91-9.42 12.48-8.99 12.48-8.45ZM10.77-3.08C11.58-2.68 12.49-2.45 13.45-2.45C16.66-2.45 19.29-4.97 19.43-8.14L14.99-8.14C14.85-7.42 14.21-6.88 13.45-6.88C13.32-6.88 13.21-6.90 13.08-6.93Z" fill="currentColor"/>
</svg>