<svg xmlns="http://www.w3.org/2000/svg" viewBox="0 0 24 24" width="24" height="24">
  <title>globe.asia.australia</title>
  <path transform="matrix(0.8806329549363605, 0, 0, 0.8806329549363605, 0.15273477812177494, 19.45098039215686)" d="M13.45 2.89C19.73 2.89 24.81-2.19 24.81-8.46C24.81-14.74 19.73-19.82 13.45-19.82C7.18-19.82 2.10-14.74 2.10-8.46C2.10-2.19 7.18 2.89 13.45 2.89ZM8.10-6.14C7.34-7.14 6.69-7.58 6.07-7.58C5.39-7.58 4.86-7.15 4.37-6.16L3.47-4.41C2.95-5.66 2.67-7.03 2.67-8.46C2.67-14.43 7.50-19.24 13.45-19.24C15.11-19.24 16.68-18.87 18.07-18.21C17.09-17.82 16.58-17.37 16.58-16.86C16.58-15.84 18.32-15.66 18.32-14.94C18.32-14.46 17.31-13.50 16.39-13.10C15.45-12.73 15.01-12.29 15.01-11.63C15.02-10.97 14.21-12.26 13.20-12.26C12.71-12.26 12.39-11.94 12.39-11.41C12.39-10.64 13.45-10.02 13.45-9.46C13.45-8.80 12.80-7.44 10.99-7.44C10.22-7.44 9.75-7.08 9.75-6.48C9.75-5.96 10.65-5.47 10.65-5.33C10.65-5.06 10.14-4.37 9.96-4.37C9.64-4.37 9.06-4.91 8.10-6.14ZM13.45 2.32C9.21 2.32 5.53-0.14 3.79-3.70L4.84-5.85C5.23-6.64 5.63-7.00 6.07-7.00C6.50-7.00 7.01-6.62 7.63-5.79C8.74-4.36 9.40-3.79 9.96-3.79C10.50-3.79 11.24-4.72 11.24-5.33C11.24-5.87 10.34-6.18 10.34-6.48C10.34-6.71 10.58-6.84 10.99-6.84C13.18-6.84 14.04-8.65 14.04-9.46C14.04-10.24 12.97-10.95 12.97-11.40C12.97-11.55 13.07-11.66 13.18-11.66C13.32-11.66 13.52-11.58 14.00-11.29C15.01-10.70 15.61-10.69 15.61-11.64C15.61-12.01 15.87-12.27 16.63-12.57C17.78-13.04 18.90-14.18 18.90-14.94C18.90-15.93 17.17-16.42 17.17-16.86C17.17-17.11 17.74-17.48 18.77-17.84C22.03-15.98 24.23-12.48 24.23-8.46C24.23-7.17 24.01-5.94 23.59-4.79C23.26-5.81 22.70-6.29 21.98-6.29C21.71-6.29 21.42-6.23 21.07-6.13C20.52-5.96 20.31-6.04 19.90-6.50C19.43-7.03 19.08-7.21 18.47-7.21C17.23-7.21 16.64-6.68 16.10-5.00C15.90-4.39 15.62-4.17 14.64-3.81L14.11-3.61C13.27-3.30 13.08-2.72 13.39-1.35C13.68-0.15 14.20 0.42 14.96 0.42C15.68 0.42 16.20 0.12 16.82 0.12C17.58 0.11 18.04 0.52 18.47 1.08C16.97 1.86 15.27 2.32 13.45 2.32ZM15.71-9.22C16.45-9.22 16.78-9.88 17.61-10.13C18.16-10.29 18.46-10.85 18.46-11.32C18.46-11.71 18.26-12.04 17.84-12.04C17.40-12.04 16.99-11.70 16.72-11.12C16.57-10.79 16.34-10.63 15.71-10.46C15.23-10.31 15.07-10.14 15.07-9.77C15.07-9.39 15.38-9.22 15.71-9.22ZM16.82-0.47C16.09-0.47 15.83-0.16 15.06-0.16C14.47-0.16 14.16-0.63 13.98-1.48C13.78-2.31 13.76-2.78 14.18-3.01C14.68-3.29 16.18-3.33 16.66-4.83C17.09-6.11 17.52-6.62 18.32-6.62C19.90-6.62 19.45-5.46 20.53-5.46C20.99-5.46 21.29-5.71 21.81-5.71C22.45-5.71 22.97-5.23 23.19-3.83C22.28-1.90 20.80-0.29 18.98 0.80C18.48 0.15 17.87-0.47 16.82-0.47ZM12.43-3.98C13.07-3.98 13.71-4.72 13.71-5.40C13.71-6.22 13.37-6.61 12.98-6.61C12.55-6.61 12.28-6.11 12.28-5.32C12.28-4.89 11.89-4.88 11.89-4.43C11.89-4.16 12.11-3.98 12.43-3.98ZM10.44-1.90C10.93-1.90 11.25-2.16 11.25-2.58C11.25-2.88 11.00-3.08 10.66-3.08C9.30-3.08 9.25-3.86 8.59-3.86C8.21-3.86 7.96-3.64 7.96-3.34C7.96-3.08 8.21-2.88 8.55-2.88C9.29-2.88 8.94-1.90 10.44-1.90Z" fill="currentColor"/>
</svg>