<svg xmlns="http://www.w3.org/2000/svg" viewBox="0 0 24 24" width="24" height="24">
  <title>graduationcap.fill</title>
  <path transform="matrix(0.6454866364094806, 0, 0, 0.6454866364094806, 0.07110438729198187, 16.30473961660435)" d="M33.28-13.11L21.46-18.55C20.23-19.13 19.36-19.30 18.48-19.28C17.60-19.30 16.73-19.13 15.50-18.55L3.68-13.11C3.25-12.91 2.99-12.54 2.99-12.11C2.99-11.68 3.25-11.31 3.68-11.10L10.10-8.19L16.61-11.57C16.38-11.74 16.25-11.94 16.25-12.13C16.25-12.59 17.14-13.15 18.48-13.15C19.82-13.15 20.68-12.59 20.68-12.13C20.68-11.64 19.82-11.06 18.48-11.06C17.99-11.06 17.55-11.14 17.19-11.27L10.68-7.89L15.50-5.67C16.75-5.10 17.60-4.92 18.48-4.93C19.36-4.92 20.23-5.10 21.46-5.67L33.28-11.10C33.71-11.31 33.97-11.68 33.97-12.11C33.97-12.54 33.71-12.91 33.28-13.11ZM10.68-6.91L10.68-0.13C12.42 1.00 15.06 1.86 18.48 1.86C25.04 1.86 28.71-1.31 28.71-3.39L28.71-8.04L21.82-4.88C20.58-4.30 19.54-4.04 18.48-4.05C17.43-4.04 16.38-4.30 15.14-4.88ZM8.24-8.03L8.24-3.39C8.24-2.51 8.88-1.46 10.10-0.53L10.10-7.17ZM9.20 1.72L9.20 4.90C9.20 5.57 9.57 5.94 10.24 5.94L10.54 5.94C11.20 5.94 11.58 5.57 11.58 4.90L11.58 1.72C11.58 1.11 11.26 0.75 10.68 0.69L10.68-0.13C10.48-0.26 10.28-0.39 10.10-0.53L10.10 0.69C9.52 0.75 9.20 1.11 9.20 1.72Z" fill="currentColor"/>
</svg>