<svg xmlns="http://www.w3.org/2000/svg" viewBox="0 0 24 24" width="24" height="24">
  <title>hand.pinch.fill</title>
  <path transform="matrix(0.8474522433323055, 0, 0, 0.8474522433323055, -0.5336227357929819, 19.444952716954838)" d="M5.73-17.92C4.86-16.93 3.68-15.18 3.01-13.04C2.87-12.66 3.45-12.52 3.56-12.87C4.21-14.91 5.33-16.58 6.16-17.54C6.48-17.91 6.04-18.25 5.73-17.92ZM18.76 0.48C23.29 0.48 26.59-2.54 26.59-6.82C26.59-8.41 25.38-15.11 23.80-15.11C23.60-15.11 23.45-15 23.53-14.82L23.68-14.38C23.98-13.58 23.06-13.42 22.80-14.05L22.52-14.74C21.96-16.16 20.59-16.52 19.34-16.38C19.10-16.35 19.00-16.13 19.10-15.90C19.31-15.45 19.56-14.96 19.78-14.51C20.11-13.82 19.30-13.36 18.87-14.12C18.70-14.41 18.55-14.70 18.39-14.99C17.20-17.11 15.12-17.11 13.07-16.50L9.98-15.57C8.12-15.02 8.68-12.56 10.91-13.08L13.59-13.71C14.65-13.97 15.36-13.83 15.94-13.08C16.79-11.88 17.58-9.90 17.58-8.81C17.58-6.94 16.55-5.85 14.79-5.85C13.66-5.85 12.40-6.33 11.32-7.23L9.05-9.14C7.76-10.23 5.81-8.66 7.29-7.10L11.09-3.06C13.24-0.77 15.98 0.48 18.76 0.48ZM5.73-2.94C6.04-2.61 6.48-2.95 6.16-3.32C5.33-4.27 4.21-5.95 3.56-7.99C3.45-8.34 2.87-8.20 3.01-7.82C3.68-5.68 4.86-3.93 5.73-2.94Z" fill="currentColor"/>
</svg>