<svg xmlns="http://www.w3.org/2000/svg" viewBox="0 0 24 24" width="24" height="24">
  
  <path transform="matrix(0.9670839848004757, 0, 0, 0.9670839848004757, -0.005943734097861864, 20.17787837981021)" d="M20.46-0.68C23.02-3.25 23.66-6.62 21.25-10.90C20.30-12.59 19.34-14.24 18.35-15.86C18.21-16.10 18.11-16.23 17.99-16.35C17.61-16.72 17.10-16.65 16.75-16.30C16.49-16.03 16.35-15.66 16.57-15.14L18.18-11.51C18.43-10.93 18.29-10.61 18.09-10.39C16.62-8.95 16.43-7.01 17.84-5.59C17.95-5.46 17.95-5.29 17.84-5.17C17.73-5.05 17.55-5.05 17.44-5.17C16.32-6.28 15.76-8.39 17.19-10.25L9.12-18.33C8.74-18.70 8.11-18.70 7.73-18.33C7.35-17.94 7.35-17.32 7.73-16.95L13.18-11.51C12.76-11.37 12.38-11.16 11.98-10.93L5.26-17.66C4.88-18.02 4.24-18.02 3.88-17.66C3.48-17.29 3.48-16.64 3.88-16.28L10.49-9.64C10.15-9.25 9.81-8.85 9.53-8.44L3.75-14.21C3.36-14.60 2.74-14.60 2.36-14.21C1.98-13.84 1.98-13.21 2.36-12.83L8.60-6.57C8.41-6.04 8.29-5.55 8.23-5.12L3.91-9.45C3.55-9.82 2.91-9.82 2.53-9.45C2.14-9.06 2.14-8.44 2.53-8.05L9.68-0.91C13.42 2.84 17.55 2.21 20.46-0.68Z" fill="currentColor"/>
</svg>