<svg xmlns="http://www.w3.org/2000/svg" viewBox="0 0 24 24" width="24" height="24">
  
  <path transform="matrix(0.7409637827843666, 0, 0, 0.7409637827843666, 1.781724610283961, 18.263576154161548)" d="M10.55-17.98C10.70-17.98 10.84-18.12 10.84-18.27L10.85-21.66C10.85-21.82 10.72-21.95 10.56-21.95C10.39-21.95 10.27-21.82 10.27-21.66L10.25-18.27C10.25-18.12 10.38-17.98 10.55-17.98ZM7.38-16.69C7.49-16.78 7.49-16.98 7.38-17.10L4.99-19.50C4.88-19.62 4.69-19.62 4.59-19.50C4.48-19.38 4.48-19.21 4.59-19.09L6.96-16.69C7.08-16.57 7.27-16.57 7.38-16.69ZM13.72-16.68C13.82-16.56 14.02-16.56 14.12-16.68L16.54-19.05C16.65-19.16 16.65-19.35 16.54-19.46C16.42-19.58 16.24-19.58 16.13-19.46L13.72-17.07C13.61-16.96 13.61-16.78 13.72-16.68ZM20.64 4.51C24.49 3.12 26.66-0.32 24.84-5.31L24.14-7.24C23.23-9.75 21.80-10.72 19.97-10.08C19.51-10.73 18.73-11.00 17.86-10.69C17.52-10.57 17.19-10.37 16.88-10.10C16.43-10.77 15.63-11.04 14.77-10.72C14.45-10.61 14.12-10.41 13.83-10.17L12.34-14.24C11.95-15.33 10.96-15.69 10.09-15.39C9.18-15.05 8.68-14.14 9.08-13.05L12.88-2.60C12.90-2.54 12.89-2.48 12.83-2.47C12.80-2.45 12.74-2.46 12.68-2.53L10.04-5.50C9.42-6.20 8.70-6.36 8.07-6.15C7.21-5.84 6.69-4.97 7.05-4.02C7.15-3.80 7.29-3.53 7.46-3.32L11.73 1.88C14.12 4.79 17.25 5.75 20.64 4.51ZM20.46 4.03C17.34 5.17 14.33 4.16 12.16 1.50L7.91-3.70C7.77-3.87 7.66-4.04 7.57-4.28C7.38-4.82 7.65-5.41 8.25-5.63C8.68-5.79 9.16-5.61 9.60-5.12L12.23-2.17C12.48-1.90 12.75-1.84 13.04-1.95C13.37-2.06 13.58-2.37 13.44-2.77L9.62-13.24C9.35-13.99 9.60-14.65 10.28-14.89C10.96-15.14 11.53-14.79 11.80-14.04L14.46-6.73C14.53-6.54 14.67-6.39 14.87-6.46C15.08-6.53 15.08-6.74 15.01-6.93L14.00-9.68C14.27-9.91 14.60-10.10 14.88-10.21C15.67-10.49 16.29-10.16 16.62-9.27L17.33-7.31C17.44-7.02 17.59-6.97 17.74-7.03C17.88-7.08 17.99-7.22 17.88-7.51L17.10-9.66C17.37-9.88 17.70-10.08 17.98-10.18C18.76-10.46 19.39-10.14 19.71-9.25L20.20-7.89C20.31-7.59 20.47-7.54 20.63-7.59C20.75-7.64 20.86-7.79 20.75-8.09L20.20-9.60C21.63-10.11 22.79-9.25 23.60-7.04L24.30-5.11C25.98-0.50 24.06 2.72 20.46 4.03ZM6.06-13.51C6.06-13.66 5.93-13.80 5.77-13.80L2.38-13.82C2.21-13.82 2.09-13.69 2.09-13.52C2.09-13.36 2.21-13.23 2.38-13.23L5.77-13.22C5.93-13.22 6.06-13.35 6.06-13.51Z" fill="currentColor"/>
</svg>