<svg xmlns="http://www.w3.org/2000/svg" viewBox="0 0 24 24" width="24" height="24">
  
  <path transform="matrix(0.8806329549363605, 0, 0, 0.8806329549363605, 0.15273477812177494, 19.45098039215686)" d="M13.45 2.89C19.70 2.89 24.81-2.21 24.81-8.46C24.81-14.71 19.70-19.82 13.45-19.82C7.21-19.82 2.10-14.71 2.10-8.46C2.10-2.21 7.21 2.89 13.45 2.89ZM13.89-3.48C13.45-3.48 12.98-3.66 12.52-4.00L10.25-5.61C10.18-5.61 10.09-5.61 10.02-5.61C8.30-5.61 7.00-6.14 6.21-7.28C5.47-7.31 4.95-7.69 4.95-8.37C4.95-8.96 5.40-9.33 6.04-9.38C6.81-11.38 8.24-12.43 10.15-12.43C11.99-12.43 13.35-11.38 15.08-10.41C15.77-9.98 16.09-9.88 16.46-9.88C16.72-9.88 17.06-10.07 17.61-10.62L14.21-12.54C13.45-12.95 12.62-13.46 12.62-13.92C12.62-14.55 13.72-15.01 14.57-15.01C15.64-15.01 16.72-14.47 17.48-13.36L18.91-11.23C20.40-11.43 22.03-9.98 22.03-7.99C22.03-6.71 21.35-6.36 19.88-6.36C19.00-6.36 18.05-6.73 17.40-7.36C16.91-6.82 16.52-6.48 16.17-6.23C15.83-6.29 15.67-6.29 15.33-6.29C14.87-6.29 14.43-6.28 14.05-6.15L13.65-7.17C12.94-8.96 11.73-9.88 10.09-9.88C9.64-9.88 9.18-9.80 9.18-9.50C9.18-9.33 9.28-9.23 9.49-9.23L10.14-9.23C11.45-9.23 12.48-8.50 13.15-7.00L13.75-5.68C14.18-5.79 14.57-5.86 15.39-5.86C16.97-5.86 18.23-5.19 18.23-4.27C18.23-3.82 17.77-3.48 16.90-3.48C16.31-3.48 16.09-3.68 15.39-3.68C14.72-3.68 14.26-3.48 13.89-3.48ZM19.62-8.39C19.83-8.39 20.03-8.61 20.03-8.81C20.03-9.05 19.86-9.21 19.62-9.21C19.43-9.21 19.23-9.02 19.23-8.80C19.23-8.59 19.41-8.39 19.62-8.39ZM9.48-3.29C8.24-3.29 7.62-3.77 7.62-4.51C7.62-4.93 7.89-5.24 8.51-5.24C8.88-5.24 9.53-5.18 9.73-5.18C9.86-5.18 9.95-5.18 10.04-5.18L11.87-3.81C11.24-3.45 10.51-3.29 9.48-3.29Z" fill="currentColor"/>
</svg>