<svg xmlns="http://www.w3.org/2000/svg" viewBox="0 0 24 24" width="24" height="24">
  
  <path transform="matrix(0.8423823626192827, 0, 0, 0.8423823626192827, 2.404738400789733, 19.453109575518262)" d="M2.99-1.66C2.99 1.15 4.86 3.02 7.65 3.02C9.89 3.02 11.64 1.79 12.62-0.32L13.17-1.49C15.71-6.93 19.79-6.61 19.79-12.16C19.79-17.33 16.51-20.72 11.52-20.72C6.47-20.72 2.99-17.16 2.99-11.99ZM3.56-1.65L3.56-11.99C3.56-16.86 6.77-20.14 11.52-20.14C16.13-20.14 19.22-16.92 19.22-12.16C19.22-6.95 15.26-7.13 12.68-1.77L12.07-0.52C11.14 1.42 9.60 2.45 7.65 2.45C5.20 2.45 3.56 0.80 3.56-1.65ZM6.14-4.64C6.14-3.79 6.82-3.22 7.83-3.22C9.39-3.22 10.57-4.41 10.57-5.99C10.57-9.40 6.71-9.75 6.71-12.57C6.71-15.07 8.63-16.95 11.45-16.95C14.31-16.95 16.13-15.12 16.13-12.28C16.13-12.12 16.25-11.99 16.42-11.99C16.58-11.99 16.71-12.12 16.71-12.28C16.71-15.45 14.63-17.53 11.45-17.53C8.31-17.53 6.14-15.39 6.14-12.57C6.14-9.84 8.43-8.93 8.43-7.62C8.43-5.68 6.14-6.41 6.14-4.64Z" fill="currentColor"/>
</svg>