<svg xmlns="http://www.w3.org/2000/svg" viewBox="0 0 24 24" width="24" height="24">
  <title>heat.waves.and.fan</title>
  <path transform="matrix(0.7010847624806256, 0, 0, 0.7010847624806256, 4.897408861353506, 17.859218121598804)" d="M11.18-16.41C11.18-17.84 9.67-18.84 9.67-20.36C9.67-21.02 9.87-21.48 10.34-22.15C10.59-22.49 10.16-22.83 9.87-22.46C9.29-21.73 9.07-21.15 9.07-20.36C9.07-18.84 10.58-17.55 10.58-16.41C10.58-15.34 9.07-13.99 9.07-12.55C9.07-11.68 9.29-11.11 9.86-10.42C10.08-10.10 10.55-10.42 10.29-10.78C9.87-11.36 9.67-11.81 9.67-12.55C9.67-13.99 11.18-14.93 11.18-16.41ZM15.70-16.41C15.70-17.84 14.18-18.84 14.18-20.36C14.18-21.02 14.39-21.48 14.86-22.15C15.12-22.49 14.66-22.83 14.39-22.46C13.80-21.73 13.59-21.15 13.59-20.36C13.59-18.84 15.11-17.55 15.11-16.41C15.11-15.34 13.59-13.99 13.59-12.55C13.59-11.68 13.80-11.11 14.36-10.42C14.60-10.10 15.06-10.42 14.81-10.78C14.39-11.36 14.18-11.81 14.18-12.55C14.18-13.99 15.70-14.93 15.70-16.41ZM6.66-16.41C6.66-17.84 5.14-18.84 5.14-20.36C5.14-21.02 5.36-21.48 5.82-22.15C6.07-22.49 5.64-22.83 5.36-22.46C4.77-21.73 4.55-21.15 4.55-20.36C4.55-18.84 6.08-17.55 6.08-16.41C6.08-15.34 4.55-13.99 4.55-12.55C4.55-11.68 4.77-11.11 5.33-10.42C5.58-10.10 6.02-10.42 5.77-10.78C5.36-11.36 5.14-11.81 5.14-12.55C5.14-13.99 6.66-14.93 6.66-16.41ZM12.23 5.91C14.39 5.91 16.46 4.05 16.46 1.99C16.46 0.40 15.22-0.53 12.50-1.01L12.46-1.71L15.59-1.71C16.73-1.71 17.27-2.27 17.27-3.36C17.27-5.50 15.43-7.58 13.35-7.58C11.77-7.58 10.82-6.34 10.36-3.62L9.68-3.56L9.68-6.70C9.68-7.83 9.12-8.40 8.04-8.40C5.86-8.40 3.79-6.55 3.79-4.46C3.79-2.87 5.05-1.95 7.76-1.46L7.77-0.77L4.69-0.77C3.53-0.77 2.99-0.23 2.99 0.86C2.99 3.01 4.84 5.10 6.93 5.10C8.48 5.10 9.46 3.88 9.91 1.15L10.61 1.11L10.61 4.21C10.61 5.34 11.16 5.91 12.23 5.91ZM10.13 0.33C9.26 0.33 8.55-0.38 8.55-1.24C8.55-2.11 9.26-2.84 10.13-2.84C10.99-2.84 11.70-2.11 11.70-1.24C11.70-0.38 10.99 0.33 10.13 0.33Z" fill="currentColor"/>
</svg>