<svg xmlns="http://www.w3.org/2000/svg" viewBox="0 0 24 24" width="24" height="24">
  <title>helm</title>
  <path transform="matrix(0.7426747896721787, 0, 0, 0.7426747896721787, 0.44212358572671895, 18.275021758050478)" d="M6.46 1.05L8.14-0.63C10.01 1.15 12.52 2.25 15.27 2.33L15.27 4.71C15.27 4.88 15.39 5.02 15.55 5.02C15.74 5.02 15.84 4.88 15.84 4.71L15.84 2.33C18.61 2.25 21.11 1.15 22.98-0.63L24.66 1.05C24.77 1.17 24.96 1.20 25.07 1.09C25.21 0.95 25.18 0.76 25.07 0.66L23.38-1.03C25.15-2.89 26.26-5.40 26.33-8.16L28.72-8.16C28.88-8.16 29.03-8.27 29.03-8.44C29.03-8.63 28.88-8.74 28.72-8.74L26.33-8.74C26.26-11.50 25.15-13.99 23.38-15.87L25.07-17.54C25.18-17.66 25.21-17.85 25.09-17.95C24.96-18.09 24.77-18.07 24.66-17.95L22.98-16.27C21.11-18.04 18.61-19.15 15.84-19.22L15.84-21.61C15.84-21.76 15.74-21.91 15.55-21.91C15.39-21.91 15.27-21.76 15.27-21.61L15.27-19.22C12.52-19.15 10.01-18.04 8.14-16.27L6.46-17.95C6.35-18.07 6.15-18.09 6.02-17.95C5.91-17.85 5.94-17.66 6.06-17.54L7.73-15.87C5.96-13.99 4.86-11.50 4.78-8.74L2.40-8.74C2.24-8.74 2.10-8.63 2.10-8.44C2.10-8.27 2.24-8.16 2.40-8.16L4.78-8.16C4.86-5.40 5.96-2.89 7.73-1.03L6.06 0.66C5.94 0.76 5.91 0.95 6.06 1.09C6.15 1.20 6.35 1.17 6.46 1.05ZM8.53-15.88C10.30-17.55 12.67-18.61 15.27-18.68L15.27-9.14ZM15.84-18.68C18.46-18.61 20.82-17.55 22.59-15.88L15.84-9.14ZM16.25-8.74L22.99-15.48C24.67-13.71 25.72-11.34 25.79-8.74ZM5.33-8.74C5.40-11.34 6.45-13.71 8.12-15.48L14.87-8.74ZM5.33-8.16L14.87-8.16L8.12-1.42C6.45-3.19 5.40-5.55 5.33-8.16ZM16.25-8.16L25.79-8.16C25.72-5.55 24.67-3.19 22.99-1.42ZM8.53-1.01L15.27-7.76L15.27 1.78C12.67 1.71 10.30 0.66 8.53-1.01ZM15.84-7.76L22.59-1.01C20.82 0.66 18.46 1.71 15.84 1.78Z" fill="currentColor"/>
</svg>