<svg xmlns="http://www.w3.org/2000/svg" viewBox="0 0 24 24" width="24" height="24">
  
  <path transform="matrix(0.8806329549363605, 0, 0, 0.8806329549363605, 0.15273477812177494, 19.45098039215686)" d="M13.45 2.89C19.73 2.89 24.81-2.19 24.81-8.46C24.81-14.74 19.73-19.82 13.45-19.82C7.18-19.82 2.10-14.74 2.10-8.46C2.10-2.19 7.18 2.89 13.45 2.89ZM13.45 2.32C7.49 2.32 2.67-2.50 2.67-8.46C2.67-14.43 7.49-19.24 13.45-19.24C19.42-19.24 24.23-14.43 24.23-8.46C24.23-2.50 19.42 2.32 13.45 2.32ZM6.45-2.85L18.94-2.85C19.04-2.85 19.16-2.93 19.16-3.07C19.16-3.19 19.05-3.29 18.94-3.29L17.51-3.29L17.51-11.57C17.61-11.59 17.75-11.61 17.94-11.61C18.67-11.61 19.11-11.24 19.91-11.24C20.16-11.24 20.33-11.25 20.52-11.34C20.66-11.41 20.75-11.51 20.75-11.65L20.75-13.69C20.75-13.84 20.65-13.91 20.54-13.91C20.41-13.91 20.24-13.82 19.88-13.82C19.16-13.82 18.73-14.19 17.93-14.19C17.64-14.19 17.47-14.14 17.33-14.09C17.19-14.03 17.09-13.91 17.09-13.78L17.09-8.99L12.16-11.51C11.88-11.66 11.61-11.65 11.33-11.50L6.18-8.86C5.94-8.74 6.09-8.36 6.39-8.51L11.52-11.13C11.70-11.20 11.81-11.20 11.98-11.13L17.09-8.53L17.09-3.29L15.95-3.29C16.03-3.43 16.07-3.61 16.07-3.82L16.07-8.65C15.96-8.70 15.86-8.75 15.76-8.80L11.75-10.84L7.75-8.79C7.65-8.74 7.55-8.70 7.48-8.65L7.48-3.82C7.48-3.61 7.50-3.42 7.58-3.29L6.45-3.29C6.35-3.29 6.25-3.20 6.25-3.07C6.25-2.92 6.35-2.85 6.45-2.85ZM10.21-3.29L10.21-6.79C10.21-6.97 10.35-7.09 10.52-7.09L12.96-7.09C13.15-7.09 13.28-6.97 13.28-6.79L13.28-3.29Z" fill="currentColor"/>
</svg>