<svg xmlns="http://www.w3.org/2000/svg" viewBox="0 0 24 24" width="24" height="24">
  <title>humidifier.and.droplets</title>
  <path transform="matrix(0.8641350210970464, 0, 0, 0.8641350210970464, 2.8860993920186515, 19.31645569620253)" d="M10.54-18.84C10.86-18.84 11.13-19.11 11.13-19.44C11.13-19.77 10.86-20.04 10.54-20.04C10.21-20.04 9.94-19.77 9.94-19.44C9.94-19.11 10.21-18.84 10.54-18.84ZM5.57-18.05C5.89-18.05 6.16-18.32 6.16-18.64C6.16-18.97 5.89-19.23 5.57-19.23C5.24-19.23 4.97-18.97 4.97-18.64C4.97-18.32 5.24-18.05 5.57-18.05ZM15.50-18.05C15.83-18.05 16.10-18.32 16.10-18.64C16.10-18.97 15.83-19.23 15.50-19.23C15.18-19.23 14.91-18.97 14.91-18.64C14.91-18.32 15.18-18.05 15.50-18.05ZM10.54-15.69C10.86-15.69 11.13-15.96 11.13-16.29C11.13-16.62 10.86-16.89 10.54-16.89C10.21-16.89 9.94-16.62 9.94-16.29C9.94-15.96 10.21-15.69 10.54-15.69ZM7.11-15.30C7.44-15.30 7.71-15.57 7.71-15.90C7.71-16.23 7.44-16.50 7.11-16.50C6.79-16.50 6.52-16.23 6.52-15.90C6.52-15.57 6.79-15.30 7.11-15.30ZM13.96-15.30C14.29-15.30 14.55-15.57 14.55-15.90C14.55-16.23 14.29-16.50 13.96-16.50C13.63-16.50 13.37-16.23 13.37-15.90C13.37-15.57 13.63-15.30 13.96-15.30ZM8.53 3.11L12.55 3.11C16.21 3.11 18.11 0.86 18.11-2.33C18.11-3.87 17.11-6.41 15.48-9.27L15.48-9.32L15.46-9.32C14.74-10.57 13.90-11.87 12.97-13.17C12.77-13.48 12.40-13.77 11.89-13.77L9.18-13.77C8.67-13.77 8.31-13.48 8.10-13.17C7.17-11.87 6.34-10.57 5.63-9.32L5.59-9.32L5.59-9.26C3.96-6.41 2.99-3.86 2.99-2.33C2.98 0.86 4.86 3.11 8.53 3.11ZM8.52-12.82C8.71-13.09 8.79-13.18 9.19-13.18L11.88-13.18C12.29-13.18 12.36-13.09 12.56-12.82C13.37-11.64 14.12-10.45 14.77-9.32L6.30-9.32C6.96-10.45 7.70-11.64 8.52-12.82ZM10.52-4.39C9.53-4.39 8.73-3.68 8.58-2.72L3.60-2.72C3.75-4.13 4.63-6.29 5.98-8.73L15.11-8.73C16.45-6.29 17.34-4.13 17.48-2.72L12.47-2.72C12.33-3.68 11.52-4.39 10.52-4.39ZM10.52-1.05C9.74-1.05 9.15-1.64 9.15-2.41C9.15-3.21 9.74-3.80 10.52-3.80C11.32-3.80 11.91-3.21 11.91-2.41C11.91-1.64 11.32-1.05 10.52-1.05ZM10.52-0.46C11.52-0.46 12.34-1.17 12.48-2.13L17.51-2.13C17.43 0.62 15.77 2.53 12.55 2.53L8.53 2.53C5.30 2.53 3.66 0.62 3.59-2.13L8.58-2.13C8.72-1.17 9.52-0.46 10.52-0.46Z" fill="currentColor"/>
</svg>