<svg xmlns="http://www.w3.org/2000/svg" viewBox="0 0 24 24" width="24" height="24">
  <title>i.square.fill</title>
  <path transform="matrix(0.9752380952380952, 0, 0, 0.9752380952380952, -0.9142857142857141, 20.251428571428573)" d="M6 1.79L20.48 1.79C22.44 1.79 23.50 0.71 23.50-1.22L23.50-15.70C23.50-17.64 22.44-18.71 20.48-18.71L6-18.71C4.03-18.71 2.99-17.67 2.99-15.70L2.99-1.22C2.99 0.75 4.03 1.79 6 1.79ZM13.24-3.22C13.07-3.22 12.94-3.35 12.94-3.52L12.94-13.37C12.94-13.56 13.07-13.68 13.24-13.68C13.43-13.68 13.55-13.56 13.55-13.37L13.55-3.52C13.55-3.35 13.43-3.22 13.24-3.22Z" fill="currentColor"/>
</svg>