<svg xmlns="http://www.w3.org/2000/svg" viewBox="0 0 24 24" width="24" height="24">
  
  <path transform="matrix(0.7309064953604568, 0, 0, 0.7309064953604568, 0.4668094218415417, 17.130620985010708)" d="M17.36-2.18L17.36-1.61L24.74-1.61C27.75-1.61 29.46-3.48 29.46-6.02C29.46-8.07 28.29-9.95 25.92-10.58C26.13-15.47 22.71-19.15 18.33-19.15C15.11-19.15 13.02-17.33 11.89-15.13C9.27-16.03 6.19-14.17 6.26-11.06C3.81-10.95 2.10-9.07 2.10-6.56C2.10-3.74 4.02-1.61 7.42-1.61L13.82-1.61L13.82-2.18L7.41-2.18C4.37-2.18 2.67-4.08 2.67-6.56C2.67-8.80 4.13-10.52 6.59-10.52C6.71-10.52 6.75-10.59 6.75-10.71C6.75-13.86 9.40-15.28 11.98-14.54C12.08-14.52 12.15-14.53 12.22-14.64C13.39-16.70 15.20-18.57 18.33-18.57C22.15-18.57 25.04-15.59 25.36-11.61C25.39-11.24 25.35-10.80 25.35-10.37C25.35-10.28 25.39-10.20 25.50-10.17C27.60-9.61 28.89-7.99 28.89-6.02C28.89-3.80 27.42-2.18 24.73-2.18ZM11.55 0.56C11.41 0.56 11.30 0.69 11.30 0.84C11.30 0.91 11.33 0.97 11.38 1.03L15.38 5.03C15.43 5.09 15.50 5.11 15.59 5.11C15.66 5.11 15.73 5.09 15.79 5.03L19.76 1.03C19.82 0.97 19.85 0.91 19.85 0.84C19.85 0.69 19.72 0.56 19.59 0.56C19.52 0.56 19.43 0.61 19.37 0.67L16.78 3.27L15.86 4.21L15.87 2.60L15.87-8.48C15.87-8.65 15.74-8.78 15.59-8.78C15.42-8.78 15.29-8.65 15.29-8.48L15.29 2.60L15.30 4.21L14.36 3.27L11.78 0.67C11.72 0.61 11.63 0.56 11.55 0.56Z" fill="currentColor"/>
</svg>