<svg xmlns="http://www.w3.org/2000/svg" viewBox="0 0 24 24" width="24" height="24">
  <title>indianrupeesign.circle</title>
  <path transform="matrix(0.8806329549363605, 0, 0, 0.8806329549363605, 0.15273477812177494, 19.45098039215686)" d="M13.45 2.89C19.73 2.89 24.81-2.19 24.81-8.46C24.81-14.74 19.73-19.82 13.45-19.82C7.18-19.82 2.10-14.74 2.10-8.46C2.10-2.19 7.18 2.89 13.45 2.89ZM13.45 2.32C7.49 2.32 2.67-2.50 2.67-8.46C2.67-14.43 7.49-19.24 13.45-19.24C19.42-19.24 24.23-14.43 24.23-8.46C24.23-2.50 19.42 2.32 13.45 2.32ZM12.08-7.85C13.83-7.85 15.39-8.51 15.53-10.35L16.57-10.35C16.69-10.35 16.79-10.45 16.79-10.57C16.79-10.69 16.69-10.79 16.57-10.79L15.55-10.79C15.50-11.59 15.16-12.41 14.37-12.88L16.57-12.88C16.69-12.88 16.79-12.97 16.79-13.09C16.79-13.23 16.69-13.31 16.57-13.31L10.34-13.31C10.18-13.31 10.10-13.22 10.10-13.07L10.10-13.02C10.10-12.88 10.18-12.77 10.34-12.77L12.42-12.77C13.77-12.77 14.80-12.15 14.91-10.79L10.30-10.79C10.18-10.79 10.09-10.69 10.09-10.57C10.09-10.45 10.18-10.35 10.30-10.35L14.88-10.35C14.77-8.93 13.62-8.41 12.19-8.41L10.46-8.41C10.24-8.41 10.10-8.29 10.10-8.07L10.10-8.06C10.10-7.91 10.18-7.78 10.32-7.66L14.75-3.57C14.87-3.47 14.94-3.41 15.08-3.41C15.27-3.41 15.38-3.56 15.38-3.69C15.38-3.81 15.29-3.88 15.22-3.96L10.99-7.85Z" fill="currentColor"/>
</svg>