<svg xmlns="http://www.w3.org/2000/svg" viewBox="0 0 24 24" width="24" height="24">
  
  <path transform="matrix(0.8806329549363605, 0, 0, 0.8806329549363605, 0.15273477812177494, 19.45098039215686)" d="M22.27-1.30C23.85-3.25 24.81-5.75 24.81-8.46C24.81-14.74 19.73-19.82 13.45-19.82C10.75-19.82 8.24-18.88 6.29-17.29L6.69-16.89C8.54-18.36 10.90-19.24 13.45-19.24C19.42-19.24 24.23-14.43 24.23-8.46C24.23-5.91 23.36-3.56 21.86-1.70ZM23.93 2.45C24.05 2.57 24.23 2.57 24.35 2.45C24.49 2.32 24.47 2.14 24.35 2.03L2.96-19.37C2.86-19.48 2.70-19.50 2.54-19.37C2.43-19.25 2.43-19.07 2.54-18.95ZM21.23-2.34C22.55-4.03 23.34-6.15 23.34-8.46C23.34-13.92 18.91-18.35 13.45-18.35C11.14-18.35 9.02-17.57 7.34-16.24ZM13.45 2.89C16.17 2.89 18.66 1.93 20.60 0.36L20.20-0.05C18.35 1.43 16.01 2.32 13.45 2.32C7.49 2.32 2.67-2.50 2.67-8.46C2.67-11.03 3.56-13.37 5.04-15.22L4.63-15.62C3.05-13.68 2.10-11.19 2.10-8.46C2.10-2.19 7.18 2.89 13.45 2.89ZM13.45 1.43C15.76 1.43 17.88 0.62 19.56-0.69L5.68-14.58C4.35-12.89 3.56-10.78 3.56-8.46C3.56-3 7.99 1.43 13.45 1.43Z" fill="currentColor"/>
</svg>