<svg xmlns="http://www.w3.org/2000/svg" viewBox="0 0 24 24" width="24" height="24">
  
  <path transform="matrix(0.7222457328255043, 0, 0, 0.7222457328255043, -0.15827338129496393, 18.089716462124418)" d="M4.04 0.30C6.02 0.30 9.98-1.96 16.84-1.96C23.61-1.96 27.68 0.30 29.63 0.30C30.23 0.30 30.68-0.02 30.68-0.86L30.68-16.00C30.68-16.83 30.23-17.16 29.63-17.16C27.68-17.16 23.61-14.89 16.84-14.89C10.05-14.89 5.99-17.17 4.04-17.17C3.43-17.17 2.99-16.84 2.99-16.01L2.99-0.86C2.99-0.02 3.43 0.30 4.04 0.30ZM4.09-0.29C3.74-0.29 3.56-0.45 3.56-0.86L3.56-16.01C3.56-16.42 3.74-16.57 4.09-16.57C5.88-16.57 9.90-14.32 16.84-14.32C23.77-14.32 27.79-16.56 29.58-16.56C29.93-16.56 30.11-16.41 30.11-16.00L30.11-0.86C30.11-0.45 29.93-0.29 29.58-0.29C27.79-0.29 23.77-2.53 16.84-2.53C9.81-2.53 5.91-0.29 4.09-0.29ZM16.84-3.55C22.88-3.55 27.18-1.96 28.80-1.45C29.03-1.38 29.23-1.55 29.23-1.78L29.23-15.20C29.23-15.43 29.03-15.60 28.80-15.53C27.18-15.02 22.88-13.43 16.84-13.43C10.79-13.43 6.49-15.04 4.86-15.54C4.64-15.62 4.44-15.46 4.44-15.21L4.44-1.77C4.44-1.54 4.64-1.37 4.86-1.44C6.49-1.95 10.79-3.55 16.84-3.55Z" fill="currentColor"/>
</svg>