<svg xmlns="http://www.w3.org/2000/svg" viewBox="0 0 24 24" width="24" height="24">
  
  <path transform="matrix(0.8115390711681725, 0, 0, 0.8115390711681725, 0.6543033761293384, 18.84260580123633)" d="M6 3.89L9.70 3.89C9.06 3.28 8.72 2.37 8.72 1.22L8.72 0.69L3.56 0.69L3.56-17.55L10.04-17.55C10.63-17.94 11.37-18.16 12.25-18.16L21.08-18.16C20.93-19.86 19.90-20.75 18.07-20.75L6-20.75C4.03-20.75 2.99-19.71 2.99-17.73L2.99 0.87C2.99 2.85 4.03 3.89 6 3.89ZM12.25 3.89L22.30 3.89C24.05 3.89 24.97 2.96 24.97 1.22L24.97-14.60C24.97-16.35 24.05-17.27 22.30-17.27L12.25-17.27C10.54-17.27 9.61-16.35 9.61-14.60L9.61 1.22C9.61 2.96 10.54 3.89 12.25 3.89ZM16.98-15.40C16.75-15.40 16.52-15.61 16.52-15.87C16.52-16.11 16.75-16.32 16.98-16.32C17.24-16.32 17.45-16.11 17.45-15.87C17.45-15.61 17.24-15.40 16.98-15.40ZM10.18 1.00L10.18-14.36L24.40-14.36L24.40 1.00ZM17.00 3.06C16.62 3.06 16.29 2.73 16.29 2.34C16.29 1.95 16.62 1.63 17.00 1.63C17.40 1.63 17.72 1.95 17.72 2.34C17.72 2.73 17.40 3.06 17.00 3.06Z" fill="currentColor"/>
</svg>