<svg xmlns="http://www.w3.org/2000/svg" viewBox="0 0 24 24" width="24" height="24">
  <title>ipad.gen1</title>
  <path transform="matrix(0.8115390711681725, 0, 0, 0.8115390711681725, 2.228245363766048, 18.84260580123633)" d="M6 3.89L18.07 3.89C20.05 3.89 21.09 2.85 21.09 0.87L21.09-17.73C21.09-19.71 20.05-20.75 18.07-20.75L6-20.75C4.03-20.75 2.99-19.71 2.99-17.73L2.99 0.87C2.99 2.85 4.03 3.89 6 3.89ZM12.04-18.64C11.75-18.64 11.52-18.88 11.52-19.16C11.52-19.45 11.75-19.69 12.04-19.69C12.32-19.69 12.56-19.45 12.56-19.16C12.56-18.88 12.32-18.64 12.04-18.64ZM3.56 0.69L3.56-17.55L20.52-17.55L20.52 0.69ZM12.06 2.95C11.61 2.95 11.24 2.58 11.24 2.13C11.24 1.69 11.61 1.34 12.06 1.34C12.50 1.34 12.86 1.69 12.86 2.13C12.86 2.58 12.50 2.95 12.06 2.95Z" fill="currentColor"/>
</svg>