<svg xmlns="http://www.w3.org/2000/svg" viewBox="0 0 24 24" width="24" height="24">
  
  <path transform="matrix(0.8806329549363605, 0, 0, 0.8806329549363605, 0.15273477812177494, 19.45098039215686)" d="M13.45 2.89C19.73 2.89 24.81-2.19 24.81-8.46C24.81-14.74 19.73-19.82 13.45-19.82C7.18-19.82 2.10-14.74 2.10-8.46C2.10-2.19 7.18 2.89 13.45 2.89ZM13.45 2.32C7.49 2.32 2.67-2.50 2.67-8.46C2.67-14.43 7.49-19.24 13.45-19.24C19.42-19.24 24.23-14.43 24.23-8.46C24.23-2.50 19.42 2.32 13.45 2.32ZM17.77-5.31L17.77-14.18C17.77-15.48 17.09-16.17 15.80-16.17L11.09-16.17C9.80-16.17 9.12-15.48 9.13-14.17L9.13-13.97L9.71-13.36L9.71-14.18C9.71-15.16 10.13-15.59 11.12-15.59L11.99-15.59C12.02-15.59 12.05-15.57 12.05-15.53L12.05-15.47C12.05-15.16 12.22-14.98 12.50-14.98L14.38-14.98C14.66-14.98 14.86-15.16 14.86-15.47L14.86-15.53C14.86-15.57 14.86-15.59 14.89-15.59L15.76-15.59C16.76-15.59 17.18-15.16 17.18-14.18L17.18-5.89ZM19.21-2.31C19.32-2.19 19.51-2.18 19.63-2.31C19.75-2.45 19.75-2.63 19.63-2.74L7.70-14.68C7.58-14.81 7.38-14.81 7.27-14.68C7.14-14.55 7.15-14.38 7.27-14.26ZM11.09-0.74L15.80-0.74C17.09-0.74 17.78-1.42 17.78-2.73L17.78-3.04L17.18-3.62L17.18-2.72C17.18-1.73 16.76-1.32 15.76-1.32L11.12-1.32C10.13-1.32 9.71-1.73 9.71-2.71L9.71-11.11L9.13-11.70L9.13-2.72C9.13-1.41 9.80-0.74 11.09-0.74ZM11.95-1.77L14.93-1.77C15.09-1.77 15.23-1.90 15.23-2.06C15.23-2.23 15.09-2.37 14.93-2.37L11.95-2.37C11.79-2.37 11.67-2.23 11.67-2.06C11.67-1.90 11.79-1.77 11.95-1.77Z" fill="currentColor"/>
</svg>