<svg xmlns="http://www.w3.org/2000/svg" viewBox="0 0 24 24" width="24" height="24">
  <title>iphone.app.switcher</title>
  <path transform="matrix(0.879271852996737, 0, 0, 0.879271852996737, 0.6398763523956728, 19.434312210200925)" d="M12.91 2.92L20.09 2.92C21.93 2.92 22.85 1.98 22.85 0.14L22.85-17.05C22.85-18.89 21.93-19.83 20.09-19.83L12.91-19.83C11.07-19.83 10.15-18.89 10.15-17.05L10.15 0.14C10.15 1.98 11.07 2.92 12.91 2.92ZM12.94 2.34C11.40 2.34 10.72 1.69 10.72 0.14L10.72-17.05C10.72-18.59 11.40-19.25 12.94-19.25L20.06-19.25C21.60-19.25 22.28-18.59 22.28-17.05L22.28 0.14C22.28 1.69 21.60 2.34 20.06 2.34ZM7.15-0.76L7.15-16.15C7.15-17.38 7.55-18.32 8.36-18.83C7.17-18.54 6.57-17.65 6.57-16.16L6.57-0.75C6.57 0.73 7.17 1.62 8.36 1.92C7.55 1.41 7.15 0.46 7.15-0.76ZM3.56-1.79L3.56-15.12C3.56-16.34 3.96-17.29 4.77-17.79C3.59-17.51 2.99-16.61 2.99-15.12L2.99-1.79C2.99-0.32 3.59 0.57 4.77 0.88C3.96 0.38 3.56-0.59 3.56-1.79Z" fill="currentColor"/>
</svg>