<svg xmlns="http://www.w3.org/2000/svg" viewBox="0 0 24 24" width="24" height="24">
  <title>iphone.gen1.slash</title>
  <path transform="matrix(0.879271852996737, 0, 0, 0.879271852996737, 2.457695113116612, 19.434312210200925)" d="M17.18-3.97L17.18-17.05C17.18-18.89 16.27-19.83 14.43-19.83L7.24-19.83C5.39-19.83 4.46-18.88 4.48-17.03L4.48-16.72L5.03-16.17L5.03-16.63L16.59-16.63L16.59-4.56ZM9.26-18.19C9.26-18.35 9.39-18.48 9.55-18.48L12.11-18.48C12.27-18.48 12.40-18.35 12.40-18.19C12.40-18.02 12.27-17.89 12.11-17.89L9.55-17.89C9.39-17.89 9.26-18.02 9.26-18.19ZM19.68 0.81C19.79 0.93 19.96 0.90 20.09 0.81C20.24 0.70 20.20 0.50 20.09 0.39L2.02-17.71C1.92-17.80 1.75-17.85 1.61-17.71C1.49-17.59 1.49-17.40 1.61-17.29ZM7.24 2.92L14.43 2.92C16.27 2.92 17.19 1.97 17.19 0.12L17.19-0.18L16.61-0.76L16.61-0.28L5.04-0.28L5.04-12.34L4.48-12.89L4.48 0.14C4.48 1.98 5.40 2.92 7.24 2.92ZM10.83 1.98C10.38 1.98 10.01 1.61 10.01 1.16C10.01 0.71 10.38 0.35 10.83 0.35C11.27 0.35 11.64 0.71 11.64 1.16C11.64 1.61 11.27 1.98 10.83 1.98Z" fill="currentColor"/>
</svg>