<svg xmlns="http://www.w3.org/2000/svg" viewBox="0 0 24 24" width="24" height="24">
  
  <path transform="matrix(0.70494286107669, 0, 0, 0.70494286107669, -0.10656753407682773, 17.97686906237092)" d="M6 0.28L28.35 0.28C30.32 0.28 31.36-0.80 31.36-2.73L31.36-14.23C31.36-16.16 30.32-17.24 28.35-17.24L6-17.24C4.03-17.24 2.99-16.20 2.99-14.23L2.99-2.73C2.99-0.76 4.03 0.28 6 0.28ZM13.72-11.57C13.55-11.57 13.46-11.65 13.46-11.89L13.46-12.71C13.46-12.96 13.55-13.04 13.72-13.04L14.34-13.04C14.54-13.04 14.60-12.96 14.60-12.71L14.60-11.89C14.60-11.65 14.54-11.57 14.34-11.57ZM16.29-11.57C16.11-11.57 16.04-11.65 16.04-11.89L16.04-12.71C16.04-12.96 16.11-13.04 16.29-13.04L16.93-13.04C17.11-13.04 17.17-12.96 17.17-12.71L17.17-11.89C17.17-11.65 17.11-11.57 16.93-11.57ZM18.87-11.57C18.69-11.57 18.61-11.65 18.61-11.89L18.61-12.71C18.61-12.96 18.69-13.04 18.87-13.04L19.49-13.04C19.66-13.04 19.75-12.96 19.75-12.71L19.75-11.89C19.75-11.65 19.66-11.57 19.49-11.57ZM21.42-11.57C21.25-11.57 21.16-11.65 21.16-11.89L21.16-12.71C21.16-12.96 21.25-13.04 21.42-13.04L22.04-13.04C22.22-13.04 22.30-12.96 22.30-12.71L22.30-11.89C22.30-11.65 22.22-11.57 22.04-11.57ZM23.98-11.57C23.80-11.57 23.74-11.65 23.74-11.89L23.74-12.71C23.74-12.96 23.80-13.04 23.98-13.04L24.62-13.04C24.80-13.04 24.87-12.96 24.87-12.71L24.87-11.89C24.87-11.65 24.80-11.57 24.62-11.57ZM26.57-11.57C26.37-11.57 26.31-11.65 26.31-11.89L26.31-12.71C26.31-12.96 26.37-13.04 26.57-13.04L27.19-13.04C27.36-13.04 27.43-12.96 27.43-12.71L27.43-11.89C27.43-11.65 27.36-11.57 27.19-11.57ZM11.55-8.84C11.79-8.59 11.79-8.36 11.55-8.12L7.55-4.20C7.25-3.93 6.90-4.09 6.90-4.41L6.90-12.55C6.90-12.87 7.25-13.03 7.55-12.76ZM13.72-7.79C13.55-7.79 13.46-7.89 13.46-8.12L13.46-8.95C13.46-9.19 13.55-9.28 13.72-9.28L14.34-9.28C14.54-9.28 14.60-9.19 14.60-8.95L14.60-8.12C14.60-7.89 14.54-7.79 14.34-7.79ZM16.29-7.79C16.11-7.79 16.04-7.89 16.04-8.12L16.04-8.95C16.04-9.19 16.11-9.28 16.29-9.28L16.93-9.28C17.11-9.28 17.17-9.19 17.17-8.95L17.17-8.12C17.17-7.89 17.11-7.79 16.93-7.79ZM18.87-7.79C18.69-7.79 18.61-7.89 18.61-8.12L18.61-8.95C18.61-9.19 18.69-9.28 18.87-9.28L19.49-9.28C19.66-9.28 19.75-9.19 19.75-8.95L19.75-8.12C19.75-7.89 19.66-7.79 19.49-7.79ZM21.42-7.79C21.25-7.79 21.16-7.89 21.16-8.12L21.16-8.95C21.16-9.19 21.25-9.28 21.42-9.28L22.04-9.28C22.22-9.28 22.30-9.19 22.30-8.95L22.30-8.12C22.30-7.89 22.22-7.79 22.04-7.79ZM23.98-7.79C23.80-7.79 23.74-7.89 23.74-8.12L23.74-8.95C23.74-9.19 23.80-9.28 23.98-9.28L24.62-9.28C24.80-9.28 24.87-9.19 24.87-8.95L24.87-8.12C24.87-7.89 24.80-7.79 24.62-7.79ZM26.57-7.79C26.37-7.79 26.31-7.89 26.31-8.12L26.31-8.95C26.31-9.19 26.37-9.28 26.57-9.28L27.19-9.28C27.36-9.28 27.43-9.19 27.43-8.95L27.43-8.12C27.43-7.89 27.36-7.79 27.19-7.79ZM13.72-4.03C13.55-4.03 13.46-4.11 13.46-4.36L13.46-5.18C13.46-5.43 13.55-5.51 13.72-5.51L14.34-5.51C14.54-5.51 14.60-5.43 14.60-5.18L14.60-4.36C14.60-4.11 14.54-4.03 14.34-4.03ZM16.29-4.03C16.11-4.03 16.04-4.11 16.04-4.36L16.04-5.18C16.04-5.43 16.11-5.51 16.29-5.51L24.62-5.51C24.80-5.51 24.87-5.43 24.87-5.18L24.87-4.36C24.87-4.11 24.80-4.03 24.62-4.03ZM26.57-4.03C26.37-4.03 26.31-4.11 26.31-4.36L26.31-5.18C26.31-5.43 26.37-5.51 26.57-5.51L27.19-5.51C27.36-5.51 27.43-5.43 27.43-5.18L27.43-4.36C27.43-4.11 27.36-4.03 27.19-4.03Z" fill="currentColor"/>
</svg>