<svg xmlns="http://www.w3.org/2000/svg" viewBox="0 0 24 24" width="24" height="24">
  <title>kph.circle</title>
  <path transform="matrix(0.8806329549363605, 0, 0, 0.8806329549363605, 0.15273477812177494, 19.45098039215686)" d="M13.45 2.89C19.73 2.89 24.81-2.19 24.81-8.46C24.81-14.74 19.73-19.82 13.45-19.82C7.18-19.82 2.10-14.74 2.10-8.46C2.10-2.19 7.18 2.89 13.45 2.89ZM13.45 2.32C7.49 2.32 2.67-2.50 2.67-8.46C2.67-14.43 7.49-19.24 13.45-19.24C19.42-19.24 24.23-14.43 24.23-8.46C24.23-2.50 19.42 2.32 13.45 2.32ZM6.98-4.57C7.18-4.57 7.30-4.69 7.30-4.90L7.30-7.21L7.99-8.36L9.94-4.83C10.00-4.71 10.07-4.58 10.24-4.58C10.41-4.58 10.52-4.72 10.52-4.86C10.52-4.93 10.49-4.99 10.43-5.10L8.34-8.88L10.20-11.87C10.23-11.94 10.25-11.99 10.25-12.06C10.25-12.22 10.14-12.34 9.97-12.34C9.84-12.34 9.76-12.27 9.69-12.15L7.32-8.21L7.30-8.21L7.30-12.04C7.30-12.23 7.17-12.35 6.96-12.35C6.80-12.35 6.68-12.21 6.68-12.04L6.68-4.90C6.68-4.71 6.79-4.57 6.98-4.57ZM16.66-4.57C16.86-4.57 16.98-4.70 16.98-4.91L16.98-8.29L19.59-8.29L19.59-4.91C19.59-4.70 19.71-4.57 19.90-4.57C20.09-4.57 20.20-4.70 20.20-4.91L20.20-12.01C20.20-12.22 20.09-12.35 19.90-12.35C19.71-12.35 19.59-12.22 19.59-12.01L19.59-8.84L16.98-8.84L16.98-12.01C16.98-12.22 16.86-12.35 16.66-12.35C16.49-12.35 16.37-12.22 16.37-12.01L16.37-4.91C16.37-4.70 16.49-4.57 16.66-4.57ZM11.89-4.61C12.09-4.61 12.21-4.72 12.21-4.91L12.21-7.61L13.28-7.61C14.58-7.61 15.13-8.75 15.13-9.94C15.13-11.26 14.44-12.26 13.29-12.26L11.88-12.26C11.72-12.26 11.60-12.15 11.60-11.94L11.60-4.91C11.60-4.72 11.72-4.61 11.89-4.61ZM12.21-8.14L12.21-11.72L13.14-11.72C14.10-11.72 14.54-10.96 14.54-9.94C14.54-8.98 14.10-8.14 13.14-8.14Z" fill="currentColor"/>
</svg>