<svg xmlns="http://www.w3.org/2000/svg" viewBox="0 0 24 24" width="24" height="24">
  
  <path transform="matrix(0.8507809903622466, 0, 0, 0.8507809903622466, 0.40977068793619087, 20.384845463609174)" d="M11.21-20.81L13.17-18.23C13.41-17.92 13.84-17.93 14.06-18.23L16.02-20.81C16.28-21.14 16.11-21.61 15.70-21.61L11.53-21.61C11.12-21.61 10.96-21.14 11.21-20.81ZM13.62-2.25C20.82-2.25 25.15-5.50 25.15-9.52C25.15-13.54 20.82-16.78 13.61-16.78C6.42-16.78 2.10-13.54 2.10-9.52C2.10-5.50 6.42-2.25 13.62-2.25ZM11.71-6.02C11.54-6.02 11.43-6.14 11.43-6.29L11.43-13.05C11.43-13.21 11.54-13.32 11.71-13.32C11.86-13.32 11.99-13.21 11.99-13.05L11.99-6.57L15.57-6.57C15.74-6.57 15.84-6.47 15.84-6.29C15.84-6.13 15.74-6.02 15.57-6.02ZM13.62 1.90C16.36 1.90 17.98 0.80 17.98-1.07L17.98-1.80C16.64-1.52 15.19-1.37 13.62-1.37C12.07-1.37 10.61-1.52 9.27-1.80L9.27-1.07C9.27 0.80 10.89 1.90 13.62 1.90Z" fill="currentColor"/>
</svg>