<svg xmlns="http://www.w3.org/2000/svg" viewBox="0 0 24 24" width="24" height="24">
  <title>l1.circle</title>
  <path transform="matrix(0.8806329549363605, 0, 0, 0.8806329549363605, 0.15273477812177494, 19.45098039215686)" d="M13.45 2.89C19.73 2.89 24.81-2.19 24.81-8.46C24.81-14.74 19.73-19.82 13.45-19.82C7.18-19.82 2.10-14.74 2.10-8.46C2.10-2.19 7.18 2.89 13.45 2.89ZM13.45 2.32C7.49 2.32 2.67-2.50 2.67-8.46C2.67-14.43 7.49-19.24 13.45-19.24C19.42-19.24 24.23-14.43 24.23-8.46C24.23-2.50 19.42 2.32 13.45 2.32ZM10.03-3.73L13.64-3.73C13.80-3.73 13.95-3.87 13.95-4.04C13.95-4.21 13.80-4.35 13.64-4.35L10.38-4.35L10.38-12.98C10.38-13.16 10.22-13.32 10.05-13.32C9.86-13.32 9.70-13.16 9.70-12.98L9.70-4.09C9.70-3.87 9.84-3.73 10.03-3.73ZM16.55-3.62C16.72-3.62 16.88-3.77 16.88-3.96L16.88-12.93C16.88-13.14 16.72-13.29 16.51-13.29C16.31-13.29 16.15-13.20 16.02-13.08L14.33-11.67C14.25-11.60 14.20-11.53 14.20-11.41C14.20-11.25 14.31-11.12 14.48-11.12C14.58-11.12 14.61-11.14 14.67-11.19L16.20-12.42L16.20-3.96C16.20-3.77 16.36-3.62 16.55-3.62Z" fill="currentColor"/>
</svg>