<svg xmlns="http://www.w3.org/2000/svg" viewBox="0 0 24 24" width="24" height="24">
  <title>lamp.desk</title>
  <path transform="matrix(0.7865654474755341, 0, 0, 0.7865654474755341, 1.9626103577490444, 18.63558919927457)" d="M4.43 4.28L13.18 4.28C13.36 4.28 13.48 4.16 13.48 4.00C13.48 3.69 13.25 3.40 12.77 3.40L8.75 3.40L8.75-1.78C9.08-1.90 9.32-2.20 9.32-2.59C9.32-3.05 8.93-3.43 8.46-3.43C8.34-3.43 8.23-3.41 8.12-3.36L4.56-6.90C4.64-7.04 4.69-7.20 4.69-7.37C4.69-7.55 4.64-7.70 4.55-7.84L10.65-13.48C10.66-11.67 10.86-10.00 11.43-8.24C11.71-7.34 12.59-7.09 13.15-7.65L15.41-9.91C16.00-9.36 16.77-9.05 17.63-9.05C19.38-9.06 20.81-10.49 20.81-12.25C20.81-13.10 20.48-13.88 19.95-14.45L22.24-16.75C22.79-17.30 22.55-18.19 21.64-18.47C19.13-19.25 16.77-19.32 13.96-19.15L13.49-19.66C12.57-20.68 11.32-20.86 10.27-20.00L9.19-21.07C9.07-21.16 8.91-21.19 8.79-21.07C8.67-20.96 8.67-20.78 8.79-20.66L9.86-19.59C9.02-18.54 9.21-17.31 10.22-16.39L10.73-15.93C10.70-15.35 10.68-14.80 10.66-14.25L4.09-8.18C4.01-8.21 3.93-8.23 3.83-8.23C3.38-8.23 2.99-7.84 2.99-7.37C2.99-6.89 3.35-6.53 3.83-6.53C3.93-6.53 4.02-6.54 4.09-6.56L7.71-2.96C7.65-2.85 7.62-2.72 7.62-2.59C7.62-2.20 7.84-1.90 8.18-1.78L8.18 3.40L4.83 3.40C4.35 3.40 4.14 3.69 4.14 4.00C4.14 4.16 4.25 4.28 4.43 4.28ZM12.74-8.05C12.48-7.79 12.12-7.90 11.95-8.43C11.18-10.85 11.14-13.17 11.33-15.89C11.33-16.10 11.27-16.22 11.13-16.34L10.62-16.82C9.77-17.58 9.62-18.55 10.46-19.42C11.33-20.26 12.30-20.11 13.07-19.27L13.55-18.75C13.66-18.61 13.78-18.56 13.99-18.55C16.71-18.74 19.03-18.70 21.46-17.93C21.98-17.77 22.09-17.40 21.83-17.14ZM20.24-12.25C20.24-10.80 19.07-9.63 17.63-9.62C16.92-9.62 16.29-9.89 15.82-10.32L19.54-14.04C19.97-13.57 20.24-12.94 20.24-12.25Z" fill="currentColor"/>
</svg>