<svg xmlns="http://www.w3.org/2000/svg" viewBox="0 0 24 24" width="24" height="24">
  <title>lamp.floor</title>
  <path transform="matrix(0.7872078720787208, 0, 0, 0.7872078720787208, 3.669289808111107, 18.7619926199262)" d="M6.19 4.11L14.98 4.11C15.15 4.11 15.27 4.00 15.27 3.84C15.27 3.54 15.06 3.25 14.58 3.25L10.88 3.25L10.88-6.98C13.16-7.00 15.22-7.11 16.63-7.32C17.89-7.51 18.42-8.37 18.07-9.61L15.26-19.50C14.92-20.68 14.14-21.29 12.96-21.29L8.20-21.29C7.02-21.29 6.25-20.68 5.91-19.50L3.09-9.61C2.74-8.37 3.28-7.51 4.54-7.32C5.94-7.11 8.00-7.00 10.30-6.98L10.30 3.25L6.59 3.25C6.11 3.25 5.89 3.54 5.89 3.84C5.89 4.00 6.01 4.11 6.19 4.11ZM10.58-7.57C8.52-7.57 6.70-7.68 4.61-7.92C3.79-8.00 3.45-8.63 3.71-9.59L6.47-19.41C6.70-20.27 7.31-20.72 8.20-20.72L12.96-20.72C13.85-20.72 14.46-20.27 14.70-19.41L17.45-9.59C17.72-8.63 17.38-8.00 16.56-7.92C14.46-7.68 12.64-7.57 10.58-7.57Z" fill="currentColor"/>
</svg>