<svg xmlns="http://www.w3.org/2000/svg" viewBox="0 0 24 24" width="24" height="24">
  <title>laptopcomputer.and.arrow.down</title>
  <path transform="matrix(0.6469547637098813, 0, 0, 0.6469547637098813, 0.06671721000758146, 18.887793783169066)" d="M14.41-11.52C14.27-11.52 14.16-11.39 14.16-11.25C14.16-11.18 14.19-11.12 14.25-11.06L18.25-7.07C18.30-7.01 18.38-6.97 18.45-6.97C18.52-6.97 18.59-7.01 18.64-7.07L22.63-11.06C22.69-11.12 22.71-11.18 22.71-11.25C22.71-11.39 22.58-11.52 22.45-11.52C22.38-11.52 22.29-11.48 22.23-11.43L19.65-8.82L18.71-7.89L18.73-9.49L18.73-21.18C18.73-21.34 18.60-21.47 18.45-21.47C18.28-21.47 18.15-21.34 18.15-21.18L18.15-9.49L18.16-7.88L17.23-8.82L14.64-11.43C14.58-11.48 14.50-11.52 14.41-11.52ZM3.71 0.18L33.18 0.18C33.61 0.18 33.90-0.13 33.90-0.55C33.90-0.98 33.61-1.29 33.18-1.29L30.62-1.29L30.62-14.85C30.62-16.31 29.87-17.06 28.41-17.06L20.21-17.06L20.21-16.49L28.37-16.49C29.48-16.49 30.05-15.95 30.05-14.84L30.05-1.29L6.84-1.29L6.84-14.84C6.84-15.95 7.39-16.49 8.51-16.49L16.68-16.49L16.68-17.06L8.47-17.06C7.01-17.06 6.27-16.31 6.27-14.85L6.27-1.29L3.71-1.29C3.28-1.29 2.99-0.98 2.99-0.55C2.99-0.13 3.28 0.18 3.71 0.18Z" fill="currentColor"/>
</svg>