<svg xmlns="http://www.w3.org/2000/svg" viewBox="0 0 24 24" width="24" height="24">
  <title>larisign.square.fill</title>
  <path transform="matrix(0.9752380952380952, 0, 0, 0.9752380952380952, -0.9142857142857141, 20.251428571428573)" d="M6 1.79L20.48 1.79C22.44 1.79 23.50 0.71 23.50-1.22L23.50-15.70C23.50-17.64 22.44-18.71 20.48-18.71L6-18.71C4.03-18.71 2.99-17.67 2.99-15.70L2.99-1.22C2.99 0.75 4.03 1.79 6 1.79ZM9.15-3.66C8.98-3.66 8.86-3.76 8.86-3.93C8.86-4.08 8.98-4.18 9.15-4.18L11.78-4.18L11.78-4.24C10.11-4.84 8.73-6.57 8.73-8.80C8.73-10.92 10.02-12.59 11.95-13.10L11.95-14.52C11.95-14.64 12.06-14.73 12.18-14.73C12.29-14.73 12.40-14.64 12.40-14.52L12.40-13.21C12.70-13.25 13.00-13.29 13.31-13.29C13.64-13.29 13.98-13.25 14.29-13.20L14.29-14.52C14.29-14.64 14.39-14.73 14.51-14.73C14.63-14.73 14.73-14.64 14.73-14.52L14.73-13.09C16.42-12.61 17.80-11.24 17.85-9.11C17.85-8.89 17.73-8.77 17.54-8.77C17.37-8.77 17.25-8.89 17.25-9.11C17.20-10.77 16.18-12.02 14.73-12.50L14.73-9.11C14.73-8.99 14.63-8.88 14.51-8.88C14.39-8.88 14.29-8.99 14.29-9.11L14.29-12.62C13.98-12.70 13.66-12.73 13.31-12.73C13.00-12.73 12.70-12.70 12.40-12.63L12.40-9.11C12.40-8.99 12.29-8.88 12.18-8.88C12.06-8.88 11.95-8.99 11.95-9.11L11.95-12.52C10.43-12.01 9.35-10.63 9.35-8.72C9.35-6.22 11.34-4.18 14.19-4.18L16.88-4.18C17.04-4.18 17.14-4.08 17.14-3.93C17.14-3.76 17.04-3.66 16.88-3.66Z" fill="currentColor"/>
</svg>