<svg xmlns="http://www.w3.org/2000/svg" viewBox="0 0 24 24" width="24" height="24">
  <title>lessthan.square</title>
  <path transform="matrix(0.9752380952380952, 0, 0, 0.9752380952380952, -0.9142857142857141, 20.251428571428573)" d="M6 1.79L20.48 1.79C22.44 1.79 23.50 0.71 23.50-1.22L23.50-15.70C23.50-17.64 22.44-18.71 20.48-18.71L6-18.71C4.03-18.71 2.99-17.67 2.99-15.70L2.99-1.22C2.99 0.75 4.03 1.79 6 1.79ZM6.02 1.22C4.41 1.22 3.56 0.38 3.56-1.25L3.56-15.68C3.56-17.30 4.41-18.14 6.02-18.14L20.45-18.14C22.02-18.14 22.92-17.30 22.92-15.68L22.92-1.25C22.92 0.38 22.02 1.22 20.45 1.22ZM16.02-4.41C16.21-4.41 16.34-4.52 16.34-4.71C16.34-4.85 16.27-4.96 16.10-5.04L9.89-8.41L9.89-8.47L16.10-11.85C16.27-11.94 16.34-12.04 16.34-12.19C16.34-12.38 16.21-12.48 16.02-12.48C15.94-12.48 15.89-12.46 15.80-12.41L9.32-8.81C9.18-8.72 9.11-8.60 9.11-8.45C9.11-8.29 9.18-8.17 9.32-8.09L15.80-4.48C15.89-4.44 15.94-4.41 16.02-4.41Z" fill="currentColor"/>
</svg>