<svg xmlns="http://www.w3.org/2000/svg" viewBox="0 0 24 24" width="24" height="24">
  <title>lightbulb.circle</title>
  <path transform="matrix(0.8806329549363605, 0, 0, 0.8806329549363605, 0.15273477812177494, 19.45098039215686)" d="M13.45 2.89C19.73 2.89 24.81-2.19 24.81-8.46C24.81-14.74 19.73-19.82 13.45-19.82C7.18-19.82 2.10-14.74 2.10-8.46C2.10-2.19 7.18 2.89 13.45 2.89ZM13.45 2.32C7.49 2.32 2.67-2.50 2.67-8.46C2.67-14.43 7.49-19.24 13.45-19.24C19.42-19.24 24.23-14.43 24.23-8.46C24.23-2.50 19.42 2.32 13.45 2.32ZM9.42-11.87C9.42-9.74 10.99-8.98 11.20-4.49C11.21-4.30 11.37-4.20 11.53-4.20L15.39-4.20C15.55-4.20 15.70-4.30 15.71-4.49C15.93-8.98 17.50-9.74 17.50-11.87C17.50-13.85 15.71-15.60 13.45-15.60C11.20-15.60 9.42-13.84 9.42-11.87ZM11.51-2.95L15.40-2.95C15.56-2.95 15.70-3.09 15.70-3.26C15.70-3.42 15.56-3.55 15.40-3.55L11.51-3.55C11.34-3.55 11.21-3.42 11.21-3.26C11.21-3.09 11.34-2.95 11.51-2.95ZM13.45-1.35C14.30-1.35 15.02-1.73 15.08-2.31L11.82-2.31C11.87-1.73 12.62-1.35 13.45-1.35Z" fill="currentColor"/>
</svg>