<svg xmlns="http://www.w3.org/2000/svg" viewBox="0 0 24 24" width="24" height="24">
  <title>lightswitch.on.fill</title>
  <path transform="matrix(0.8111533586818758, 0, 0, 0.8111533586818758, 3.4543726235741445, 18.844106463878326)" d="M6 3.89L15.08 3.89C17.04 3.89 18.08 2.85 18.08 0.89L18.08-17.75C18.08-19.72 17.04-20.77 15.08-20.77L6-20.77C4.03-20.77 2.99-19.72 2.99-17.75L2.99 0.89C2.99 2.85 4.03 3.89 6 3.89ZM6.02-11.41C4.99-11.41 4.45-11.95 4.45-12.98L4.45-17.73C4.45-18.75 4.99-19.30 6.02-19.30L15.06-19.30C16.08-19.30 16.62-18.75 16.62-17.73L16.62-12.98C16.62-11.95 16.08-11.41 15.06-11.41Z" fill="currentColor"/>
</svg>