<svg xmlns="http://www.w3.org/2000/svg" viewBox="0 0 24 24" width="24" height="24">
  
  <path transform="matrix(0.8806329549363605, 0, 0, 0.8806329549363605, 0.15273477812177494, 19.45098039215686)" d="M13.45 2.89C19.70 2.89 24.81-2.21 24.81-8.46C24.81-14.71 19.70-19.82 13.45-19.82C7.21-19.82 2.10-14.71 2.10-8.46C2.10-2.21 7.21 2.89 13.45 2.89ZM9.42-11.87C9.42-13.84 11.20-15.60 13.45-15.60C15.71-15.60 17.48-13.84 17.48-11.87C17.48-9.74 15.93-8.98 15.71-4.49C15.69-4.30 15.55-4.20 15.39-4.20L11.53-4.20C11.37-4.20 11.21-4.30 11.20-4.49C10.99-8.98 9.42-9.74 9.42-11.87ZM11.51-2.96C11.34-2.96 11.21-3.09 11.21-3.26C11.21-3.42 11.34-3.55 11.51-3.55L15.40-3.55C15.56-3.55 15.69-3.42 15.69-3.26C15.69-3.09 15.56-2.96 15.40-2.96ZM13.45-1.35C12.62-1.35 11.87-1.73 11.82-2.32L15.08-2.32C15.02-1.73 14.30-1.35 13.45-1.35Z" fill="currentColor"/>
</svg>