<svg xmlns="http://www.w3.org/2000/svg" viewBox="0 0 24 24" width="24" height="24">
  <title>line.3.horizontal.decrease.circle.fill</title>
  <path transform="matrix(0.8806329549363605, 0, 0, 0.8806329549363605, 0.15273477812177494, 19.45098039215686)" d="M13.45 2.89C19.70 2.89 24.81-2.21 24.81-8.46C24.81-14.71 19.70-19.82 13.45-19.82C7.21-19.82 2.10-14.71 2.10-8.46C2.10-2.21 7.21 2.89 13.45 2.89ZM6.76-11.51C6.60-11.51 6.47-11.63 6.47-11.80C6.47-11.98 6.60-12.09 6.76-12.09L20.17-12.09C20.33-12.09 20.46-11.98 20.46-11.80C20.46-11.63 20.33-11.51 20.17-11.51ZM8.46-7.66C8.29-7.66 8.16-7.78 8.16-7.96C8.16-8.13 8.29-8.25 8.46-8.25L18.48-8.25C18.64-8.25 18.77-8.13 18.77-7.96C18.77-7.78 18.64-7.66 18.48-7.66ZM10.22-3.79C10.04-3.79 9.91-3.90 9.91-4.07C9.91-4.24 10.04-4.36 10.22-4.36L16.72-4.36C16.88-4.36 17.00-4.24 17.00-4.07C17.00-3.90 16.88-3.79 16.72-3.79Z" fill="currentColor"/>
</svg>