<svg xmlns="http://www.w3.org/2000/svg" viewBox="0 0 24 24" width="24" height="24">
  
  <path transform="matrix(0.8119251506501745, 0, 0, 0.8119251506501745, 1.6574690770694573, 18.860133206470028)" d="M16.15 3.87C20.04 3.87 22.49 1.43 22.49-2.46L22.49-9.02C22.49-10.45 22.08-11.55 21.23-12.35L13.83-19.16C12.52-20.37 11.16-20.77 9.46-20.77L5.86-20.77C4.03-20.77 2.99-19.76 2.99-17.89L2.99 1.00C2.99 2.84 4.00 3.87 5.86 3.87ZM16.13 3.29L5.89 3.29C4.41 3.29 3.56 2.50 3.56 0.97L3.56-17.86C3.56-19.35 4.36-20.19 5.89-20.19L9.42-20.19C10.97-20.19 12.27-19.79 13.43-18.73L20.81-11.95C21.56-11.26 21.91-10.28 21.91-8.99L21.91-2.48C21.91 1.07 19.68 3.29 16.13 3.29ZM7.52-8.53L17.95-8.53C18.12-8.53 18.25-8.65 18.25-8.81C18.25-8.99 18.12-9.11 17.95-9.11L7.52-9.11C7.35-9.11 7.22-8.99 7.22-8.81C7.22-8.65 7.35-8.53 7.52-8.53ZM7.52-4.68L17.95-4.68C18.12-4.68 18.25-4.79 18.25-4.97C18.25-5.14 18.12-5.25 17.95-5.25L7.52-5.25C7.35-5.25 7.22-5.14 7.22-4.97C7.22-4.79 7.35-4.68 7.52-4.68ZM7.52-0.77L17.95-0.77C18.12-0.77 18.25-0.89 18.25-1.07C18.25-1.24 18.12-1.36 17.95-1.36L7.52-1.36C7.35-1.36 7.22-1.24 7.22-1.07C7.22-0.89 7.35-0.77 7.52-0.77Z" fill="currentColor"/>
</svg>