<svg xmlns="http://www.w3.org/2000/svg" viewBox="0 0 24 24" width="24" height="24">
  
  <path transform="matrix(0.8806329549363605, 0, 0, 0.8806329549363605, 0.15273477812177494, 19.45098039215686)" d="M13.45 2.89C19.73 2.89 24.81-2.19 24.81-8.46C24.81-14.74 19.73-19.82 13.45-19.82C7.18-19.82 2.10-14.74 2.10-8.46C2.10-2.19 7.18 2.89 13.45 2.89ZM13.45 2.32C7.49 2.32 2.67-2.50 2.67-8.46C2.67-14.43 7.49-19.24 13.45-19.24C19.42-19.24 24.23-14.43 24.23-8.46C24.23-2.50 19.42 2.32 13.45 2.32ZM6.76-9.56L20.18-9.56C20.33-9.56 20.46-9.68 20.46-9.86C20.46-10.03 20.33-10.14 20.18-10.14L6.76-10.14C6.59-10.14 6.46-10.03 6.46-9.86C6.46-9.68 6.59-9.56 6.76-9.56ZM8.45-5.72L18.49-5.72C18.64-5.72 18.77-5.84 18.77-6.01C18.77-6.19 18.64-6.29 18.49-6.29L8.45-6.29C8.29-6.29 8.14-6.19 8.14-6.01C8.14-5.84 8.29-5.72 8.45-5.72Z" fill="currentColor"/>
</svg>