<svg xmlns="http://www.w3.org/2000/svg" viewBox="0 0 24 24" width="24" height="24">
  <title>lirasign.arrow.trianglehead.counterclockwise.rotate.90</title>
  <path transform="matrix(0.802575770810915, 0, 0, 0.802575770810915, 2.089223748358903, 18.790543435845475)" d="M0.28-10.41C-0.09-10.41-0.23-10.14 0.01-9.79L2.44-6.32C2.64-6.02 2.91-6.02 3.11-6.32L5.53-9.79C5.78-10.14 5.64-10.41 5.26-10.41L2.84-10.41C3.76-15.45 8.16-19.24 13.45-19.24C19.42-19.24 24.23-14.43 24.23-8.46C24.23-2.50 19.42 2.32 13.45 2.32C9.45 2.32 5.93 0.14 4.08-3.13C4.00-3.27 3.82-3.32 3.68-3.25C3.55-3.18 3.50-2.99 3.59-2.84C5.54 0.60 9.25 2.89 13.45 2.89C19.72 2.89 24.81-2.19 24.81-8.46C24.81-14.74 19.72-19.82 13.45-19.82C7.84-19.82 3.19-15.76 2.26-10.41ZM10.01-3.71L16.83-3.71C16.99-3.71 17.11-3.83 17.11-4.00C17.11-4.14 16.99-4.25 16.83-4.25L10.91-4.25L10.91-4.35C11.87-4.51 12.50-5.68 12.50-6.77C12.50-6.94 12.48-7.09 12.47-7.24L15.59-7.24C15.71-7.24 15.83-7.36 15.83-7.49C15.83-7.63 15.71-7.72 15.59-7.72L12.40-7.72C12.29-8.29 12.11-8.77 11.98-9.27L15.59-9.27C15.71-9.27 15.83-9.39 15.83-9.53C15.83-9.66 15.71-9.76 15.59-9.76L11.87-9.76C11.84-9.98 11.81-10.24 11.81-10.50C11.81-12.06 12.96-12.87 14.55-12.87C15.14-12.87 15.62-12.76 15.86-12.68C16.03-12.62 16.25-12.55 16.38-12.55C16.51-12.55 16.59-12.63 16.59-12.77C16.59-12.93 16.50-13.01 16.34-13.08C15.79-13.34 15.12-13.42 14.51-13.42C12.49-13.42 11.18-12.35 11.18-10.45C11.18-10.21 11.19-9.98 11.23-9.76L10.14-9.76C10.01-9.76 9.88-9.66 9.88-9.53C9.88-9.39 10.01-9.27 10.14-9.27L11.33-9.27C11.46-8.73 11.65-8.24 11.77-7.72L10.14-7.72C10.01-7.72 9.88-7.63 9.88-7.49C9.88-7.36 10.01-7.24 10.14-7.24L11.86-7.24C11.87-7.08 11.88-6.91 11.88-6.75C11.89-5.57 11.14-4.62 10.00-4.32C9.82-4.29 9.71-4.18 9.71-4.01C9.71-3.82 9.82-3.71 10.01-3.71Z" fill="currentColor"/>
</svg>