<svg xmlns="http://www.w3.org/2000/svg" viewBox="0 0 24 24" width="24" height="24">
  
  <path transform="matrix(0.7981510025284163, 0, 0, 0.7981510025284163, 0.3075877126810376, 18.74375241589439)" d="M11.16-16.37C11.95-16.72 12.81-16.96 13.69-17.06C13.97-17.10 14.17-17.32 14.17-17.59L14.17-20.44C14.17-20.77 13.93-21 13.59-20.98C12.06-20.85 10.61-20.45 9.28-19.80C8.98-19.68 8.89-19.35 9.06-19.05L10.49-16.58C10.62-16.35 10.89-16.27 11.16-16.37ZM15.60-17.06C16.50-16.97 17.33-16.73 18.13-16.37C18.39-16.27 18.67-16.36 18.81-16.59L20.24-19.05C20.40-19.35 20.30-19.68 19.99-19.80C18.68-20.44 17.23-20.84 15.70-20.98C15.38-20.99 15.12-20.74 15.12-20.41L15.12-17.59C15.12-17.32 15.32-17.10 15.60-17.06ZM7.66-13.58C8.18-14.29 8.81-14.91 9.52-15.45C9.75-15.61 9.82-15.90 9.68-16.14L8.25-18.60C8.09-18.88 7.76-18.96 7.49-18.77C6.25-17.93 5.18-16.83 4.34-15.61C4.15-15.34 4.23-15.01 4.51-14.85L6.97-13.41C7.21-13.27 7.50-13.34 7.66-13.58ZM19.77-15.43C20.47-14.91 21.11-14.29 21.63-13.58C21.80-13.35 22.07-13.28 22.32-13.43L24.77-14.85C25.07-15.01 25.15-15.34 24.97-15.61C24.12-16.83 23.04-17.89 21.82-18.76C21.55-18.96 21.20-18.88 21.04-18.59L19.63-16.13C19.49-15.88 19.55-15.60 19.77-15.43ZM22.57-11.93C22.91-11.14 23.16-10.29 23.24-9.40C23.29-9.12 23.48-8.93 23.77-8.93L26.63-8.93C26.96-8.93 27.20-9.16 27.16-9.49C27.05-11.04 26.65-12.48 26.00-13.82C25.86-14.11 25.54-14.20 25.25-14.04L22.78-12.61C22.52-12.46 22.46-12.20 22.57-11.93ZM6.04-9.40C6.12-10.30 6.36-11.14 6.71-11.93C6.82-12.19 6.75-12.46 6.49-12.61L4.03-14.03C3.75-14.19 3.42-14.09 3.28-13.78C2.67-12.47 2.27-11.04 2.13-9.50C2.12-9.18 2.36-8.93 2.70-8.93L5.52-8.93C5.80-8.93 6-9.12 6.04-9.40ZM11.19-3.71L18.01-3.71C18.18-3.71 18.29-3.83 18.29-4.00C18.29-4.14 18.18-4.25 18.01-4.25L12.09-4.25L12.09-4.35C13.05-4.51 13.69-5.68 13.69-6.77C13.69-6.94 13.66-7.09 13.65-7.24L16.77-7.24C16.90-7.24 17.02-7.36 17.02-7.49C17.02-7.63 16.90-7.72 16.77-7.72L13.58-7.72C13.48-8.29 13.29-8.77 13.16-9.27L16.77-9.27C16.90-9.27 17.02-9.39 17.02-9.53C17.02-9.66 16.90-9.76 16.77-9.76L13.05-9.76C13.02-9.98 13.00-10.24 13.00-10.50C13.00-12.06 14.14-12.87 15.74-12.87C16.32-12.87 16.79-12.76 17.04-12.68C17.21-12.62 17.44-12.55 17.57-12.55C17.70-12.55 17.78-12.63 17.78-12.77C17.78-12.93 17.67-13.01 17.52-13.08C16.96-13.34 16.30-13.42 15.69-13.42C13.68-13.42 12.36-12.35 12.36-10.45C12.36-10.21 12.38-9.98 12.41-9.76L11.32-9.76C11.18-9.76 11.06-9.66 11.06-9.53C11.06-9.39 11.18-9.27 11.32-9.27L12.52-9.27C12.64-8.73 12.83-8.24 12.95-7.72L11.32-7.72C11.18-7.72 11.06-7.63 11.06-7.49C11.06-7.36 11.18-7.24 11.32-7.24L13.04-7.24C13.05-7.08 13.07-6.91 13.07-6.75C13.07-5.57 12.33-4.62 11.18-4.32C11.00-4.29 10.90-4.18 10.90-4.01C10.90-3.82 11.00-3.71 11.19-3.71ZM23.26-7.51C23.17-6.61 22.93-5.75 22.57-4.96C22.46-4.71 22.54-4.44 22.79-4.29L25.25-2.87C25.54-2.71 25.86-2.80 26.00-3.09C26.64-4.41 27.04-5.86 27.16-7.41C27.19-7.73 26.94-7.98 26.61-7.98L23.77-7.98C23.48-7.98 23.29-7.79 23.26-7.51ZM6.71-4.96C6.38-5.75 6.15-6.61 6.05-7.51C6.01-7.79 5.79-7.98 5.52-7.98L2.67-7.98C2.34-7.98 2.11-7.75 2.13-7.42C2.25-5.87 2.66-4.43 3.28-3.09C3.42-2.80 3.76-2.70 4.05-2.86L6.50-4.29C6.76-4.44 6.84-4.71 6.71-4.96ZM21.63-3.33C21.11-2.63 20.47-2.00 19.76-1.46C19.54-1.30 19.48-1.01 19.61-0.77L21.04 1.69C21.20 1.98 21.54 2.06 21.81 1.86C23.04 1.02 24.11-0.06 24.97-1.29C25.15-1.56 25.08-1.89 24.80-2.05L22.32-3.48C22.07-3.63 21.80-3.56 21.63-3.33ZM9.53-1.46C8.82-1.99 8.20-2.61 7.68-3.32C7.51-3.54 7.24-3.62 6.98-3.47L4.52-2.05C4.24-1.89 4.15-1.56 4.34-1.29C5.18-0.06 6.26 1.00 7.49 1.86C7.76 2.06 8.09 1.98 8.25 1.69L9.68-0.77C9.82-1.01 9.75-1.30 9.53-1.46ZM18.13-0.54C17.36-0.19 16.50 0.05 15.60 0.15C15.32 0.19 15.12 0.41 15.12 0.68L15.12 3.54C15.12 3.87 15.36 4.10 15.69 4.08C17.23 3.96 18.68 3.55 20.02 2.91C20.31 2.78 20.40 2.45 20.24 2.17L18.81-0.32C18.67-0.55 18.39-0.64 18.13-0.54ZM13.69 0.15C12.81 0.06 11.96-0.18 11.18-0.53C10.92-0.64 10.64-0.55 10.50-0.32L9.07 2.17C8.91 2.45 9 2.78 9.29 2.91C10.61 3.54 12.06 3.94 13.58 4.08C13.91 4.09 14.17 3.86 14.17 3.53L14.17 0.68C14.17 0.41 13.97 0.19 13.69 0.15Z" fill="currentColor"/>
</svg>