<svg xmlns="http://www.w3.org/2000/svg" viewBox="0 0 24 24" width="24" height="24">
  
  <path transform="matrix(0.8921414880641226, 0, 0, 0.8921414880641226, -0.6659696811291163, 19.53213129271491)" d="M3.74-13.98L5.25-14.89C5.54-15.07 5.54-15.49 5.25-15.67L3.74-16.58C3.36-16.80 2.99-16.71 2.99-16.25L2.99-14.31C2.99-13.89 3.38-13.78 3.74-13.98ZM8.79-15.01L25.11-15.01C25.29-15.01 25.41-15.12 25.41-15.29C25.41-15.47 25.29-15.59 25.11-15.59L8.79-15.59C8.61-15.59 8.51-15.47 8.51-15.29C8.51-15.12 8.61-15.01 8.79-15.01ZM3.74-7.16L5.25-8.06C5.54-8.24 5.54-8.66 5.25-8.84L3.74-9.75C3.36-9.98 2.99-9.88 2.99-9.43L2.99-7.48C2.99-7.05 3.38-6.95 3.74-7.16ZM8.79-8.16L25.11-8.16C25.29-8.16 25.41-8.27 25.41-8.45C25.41-8.63 25.29-8.73 25.11-8.73L8.79-8.73C8.61-8.73 8.51-8.63 8.51-8.45C8.51-8.27 8.61-8.16 8.79-8.16ZM3.74-0.29L5.25-1.20C5.54-1.38 5.54-1.79 5.25-1.97L3.74-2.89C3.36-3.12 2.99-3.01 2.99-2.57L2.99-0.62C2.99-0.19 3.38-0.08 3.74-0.29ZM8.79-1.31L25.11-1.31C25.29-1.31 25.41-1.43 25.41-1.61C25.41-1.77 25.29-1.89 25.11-1.89L8.79-1.89C8.61-1.89 8.51-1.77 8.51-1.61C8.51-1.43 8.61-1.31 8.79-1.31Z" fill="currentColor"/>
</svg>