<svg xmlns="http://www.w3.org/2000/svg" viewBox="0 0 24 24" width="24" height="24">
  
  <path transform="matrix(0.7074868936013494, 0, 0, 0.7074868936013494, -0.12380794588463662, 18.09056836591206)" d="M6.52 1.71L11.03 0.84C13.20 0.43 14.06-0.66 14.06-2.98L14.06-4.86L17.13-5.51L20.20-4.86L20.20-2.98C20.20-0.66 21.08 0.43 23.25 0.84L27.76 1.71C29.94 2.13 31.84 0.87 31.11-1.93L27.47-15.82C26.95-17.73 25.44-19.01 23.65-19.01C21.54-19.01 20.20-17.71 20.20-15.73L20.20-5.44L17.43-6.05L17.43-18.19C17.43-18.34 17.30-18.47 17.13-18.47C16.98-18.47 16.85-18.34 16.85-18.19L16.85-6.05L14.06-5.44L14.06-15.73C14.06-17.71 12.73-19.01 10.63-19.01C8.84-19.01 7.31-17.73 6.81-15.82L3.16-1.93C2.43 0.87 4.32 2.13 6.52 1.71ZM7.80-3.54L13.49-4.75L13.49-2.98C13.49-0.95 12.83-0.11 10.92 0.27L6.29 1.17C4.44 1.54 3.18 0.28 3.70-1.69L7.38-15.66C7.82-17.31 9.13-18.43 10.63-18.43C12.30-18.43 13.49-17.32 13.49-15.73L13.49-5.31L12.47-5.09L9.01-8.18C8.93-8.27 8.71-8.27 8.61-8.16C8.52-8.06 8.52-7.86 8.64-7.76L11.79-4.96L7.69-4.08C7.55-4.05 7.44-3.89 7.48-3.75C7.50-3.62 7.66-3.50 7.80-3.54ZM20.78-15.73C20.78-17.32 21.96-18.43 23.65-18.43C25.15-18.43 26.45-17.31 26.89-15.66L30.56-1.69C31.09 0.28 29.84 1.54 27.98 1.17L23.34 0.27C21.43-0.11 20.78-0.95 20.78-2.98L20.78-4.75L26.47-3.54C26.61-3.50 26.77-3.62 26.80-3.75C26.82-3.89 26.73-4.05 26.58-4.08L22.48-4.96L25.63-7.76C25.75-7.86 25.75-8.06 25.66-8.16C25.56-8.27 25.35-8.27 25.27-8.18L21.81-5.09L20.78-5.31Z" fill="currentColor"/>
</svg>