<svg xmlns="http://www.w3.org/2000/svg" viewBox="0 0 24 24" width="24" height="24">
  <title>m.circle</title>
  <path transform="matrix(0.8806329549363605, 0, 0, 0.8806329549363605, 0.15273477812177494, 19.45098039215686)" d="M13.45 2.89C19.73 2.89 24.81-2.19 24.81-8.46C24.81-14.74 19.73-19.82 13.45-19.82C7.18-19.82 2.10-14.74 2.10-8.46C2.10-2.19 7.18 2.89 13.45 2.89ZM13.45 2.32C7.49 2.32 2.67-2.50 2.67-8.46C2.67-14.43 7.49-19.24 13.45-19.24C19.42-19.24 24.23-14.43 24.23-8.46C24.23-2.50 19.42 2.32 13.45 2.32ZM9.02-3.21C9.20-3.21 9.32-3.33 9.32-3.50L9.32-12.76L9.38-12.76L12.98-3.60C13.07-3.39 13.22-3.28 13.44-3.28C13.68-3.28 13.82-3.39 13.91-3.60L17.51-12.76L17.57-12.76L17.57-3.50C17.57-3.33 17.68-3.21 17.86-3.21C18.04-3.21 18.15-3.33 18.15-3.50L18.15-13.20C18.15-13.49 17.94-13.68 17.67-13.68C17.40-13.68 17.24-13.56 17.11-13.23L13.46-4.02L13.41-4.02L9.77-13.23C9.64-13.56 9.48-13.68 9.22-13.68C8.94-13.68 8.74-13.49 8.74-13.20L8.74-3.50C8.74-3.33 8.85-3.21 9.02-3.21Z" fill="currentColor"/>
</svg>