<svg xmlns="http://www.w3.org/2000/svg" viewBox="0 0 24 24" width="24" height="24">
  
  <path transform="matrix(0.7775246772968869, 0, 0, 0.7775246772968869, -0.3234624145785876, 18.57858769931663)" d="M10.80 1.29L20.89 1.29C26.99 1.29 28.71-1.01 28.71-6.53L28.71-10.39C28.71-15.91 26.99-18.21 20.89-18.21L10.80-18.21C4.71-18.21 2.99-15.91 2.99-10.39L2.99-6.53C2.99-1.01 4.71 1.29 10.80 1.29ZM18.39-3.73C18.20-3.73 18.06-3.82 18.06-4.02C18.06-4.13 18.08-4.23 18.16-4.36L20.81-8.05C21.57-9.13 21.87-9.87 21.87-10.73C21.87-11.68 21.41-12.76 20.29-12.76C19.30-12.76 18.82-11.95 18.67-10.80C18.66-10.66 18.54-10.56 18.38-10.56C18.15-10.56 18.07-10.73 18.07-10.86C18.07-12.13 18.94-13.38 20.27-13.38C21.74-13.38 22.48-12.20 22.48-10.77C22.48-9.80 22.16-8.94 21.29-7.69L18.96-4.38L18.96-4.34L22.39-4.34C22.57-4.34 22.70-4.21 22.70-4.03C22.70-3.86 22.57-3.73 22.39-3.73ZM9.73-3.59C9.54-3.59 9.40-3.75 9.40-3.94L9.40-12.79C9.40-13.11 9.60-13.30 9.93-13.30C10.17-13.30 10.37-13.13 10.45-12.82L12.82-4.64L12.89-4.64L15.22-12.82C15.30-13.15 15.48-13.30 15.77-13.30C16.11-13.30 16.29-13.14 16.29-12.79L16.29-3.94C16.29-3.75 16.16-3.59 15.97-3.59C15.77-3.59 15.63-3.73 15.63-3.94L15.63-12.08L15.60-12.08L13.31-4.14C13.24-3.87 13.13-3.70 12.84-3.70C12.56-3.70 12.45-3.90 12.38-4.14L10.09-12.08L10.04-12.08L10.04-3.94C10.04-3.74 9.91-3.59 9.73-3.59Z" fill="currentColor"/>
</svg>