<svg xmlns="http://www.w3.org/2000/svg" viewBox="0 0 24 24" width="24" height="24">
  <title>macbook.and.ipod</title>
  <path transform="matrix(0.6349206349206349, 0, 0, 0.6349206349206349, 0.10267857142857162, 17.167410714285715)" d="M3.71 0.18L25.03 0.18C24.87-0.13 24.79-0.67 24.79-1.15L24.79-1.29L6.84-1.29L6.84-14.84C6.84-15.95 7.41-16.49 8.52-16.49L30.09-16.49C30.09-16.84 29.88-17.06 29.52-17.06L8.48-17.06C7.02-17.06 6.27-16.31 6.27-14.85L6.27-1.29L3.71-1.29C3.28-1.29 2.99-0.98 2.99-0.55C2.99-0.13 3.28 0.18 3.71 0.18ZM25.66-1.15C25.66 0.13 26.31 0.79 27.57 0.79L32.58 0.79C33.84 0.79 34.49 0.13 34.49-1.15L34.49-13.07C34.49-14.34 33.84-15 32.58-15L27.57-15C26.31-15 25.66-14.34 25.66-13.07ZM30.08-13.38C29.86-13.38 29.70-13.58 29.70-13.79C29.70-13.99 29.86-14.16 30.08-14.16C30.29-14.16 30.47-13.99 30.47-13.79C30.47-13.58 30.29-13.38 30.08-13.38ZM26.26-1.62L26.26-12.61L33.90-12.61L33.90-1.62ZM30.08 0.14C29.79 0.14 29.53-0.12 29.53-0.42C29.53-0.74 29.79-0.98 30.08-0.98C30.41-0.98 30.63-0.74 30.63-0.42C30.63-0.12 30.41 0.14 30.08 0.14Z" fill="currentColor"/>
</svg>