<svg xmlns="http://www.w3.org/2000/svg" viewBox="0 0 24 24" width="24" height="24">
  
  <path transform="matrix(0.7963913516876653, 0, 0, 0.7963913516876653, 0.329444703686421, 18.733551096593562)" d="M14.65 4.10C21.59 4.10 27.21-1.51 27.21-8.46C27.21-15.40 21.59-21.01 14.65-21.01C7.71-21.01 2.10-15.40 2.10-8.46C2.10-1.51 7.71 4.10 14.65 4.10ZM14.65 0.20C9.87 0.20 5.99-3.68 5.99-8.46C5.99-13.25 9.87-17.12 14.65-17.12C19.44-17.12 23.31-13.25 23.31-8.46C23.31-3.68 19.44 0.20 14.65 0.20ZM14.85-4.17C14.99-4.17 15.09-4.28 15.09-4.42L15.09-11.74L15.19-11.74L17.26-4.58C17.32-4.37 17.38-4.24 17.61-4.24C17.85-4.24 17.93-4.37 18-4.59L20.05-11.74L20.14-11.74L20.14-4.42C20.14-4.28 20.25-4.17 20.39-4.17C20.52-4.17 20.63-4.28 20.63-4.42L20.63-12.32C20.63-12.57 20.47-12.74 20.23-12.74C19.97-12.74 19.86-12.61 19.79-12.34L17.68-4.98L17.58-4.98L15.43-12.35C15.38-12.59 15.27-12.74 15.01-12.74C14.77-12.74 14.60-12.56 14.60-12.32L14.60-4.42C14.60-4.28 14.71-4.17 14.85-4.17ZM8.93-4.17C9.08-4.17 9.20-4.28 9.20-4.43L9.20-7.90L10.90-7.90L12.46-4.34C12.50-4.22 12.57-4.17 12.70-4.17C12.83-4.17 12.96-4.24 12.96-4.41C12.96-4.45 12.94-4.54 12.90-4.61L11.39-8.04C12.27-8.32 12.89-9.06 12.89-10.29C12.89-11.73 12.02-12.64 10.62-12.64L8.92-12.64C8.79-12.64 8.67-12.52 8.67-12.38L8.67-4.43C8.67-4.28 8.79-4.17 8.93-4.17ZM9.20-8.37L9.20-12.18L10.56-12.18C11.72-12.18 12.38-11.41 12.38-10.28C12.38-9.18 11.78-8.37 10.57-8.37Z" fill="currentColor"/>
</svg>