<svg xmlns="http://www.w3.org/2000/svg" viewBox="0 0 24 24" width="24" height="24">
  
  <path transform="matrix(0.8806329549363605, 0, 0, 0.8806329549363605, 0.15273477812177494, 19.45098039215686)" d="M13.45 2.89C19.73 2.89 24.81-2.19 24.81-8.46C24.81-14.74 19.73-19.82 13.45-19.82C7.18-19.82 2.10-14.74 2.10-8.46C2.10-2.19 7.18 2.89 13.45 2.89ZM13.45 2.32C7.49 2.32 2.67-2.50 2.67-8.46C2.67-14.43 7.49-19.24 13.45-19.24C19.42-19.24 24.23-14.43 24.23-8.46C24.23-2.50 19.42 2.32 13.45 2.32ZM11.53-13.68C11.53-12.70 12.23-11.89 13.16-11.75L13.16-4.98C13.16-4.25 13.27-3.94 13.45-3.94C13.65-3.94 13.75-4.23 13.75-4.98L13.75-11.75C14.67-11.89 15.38-12.70 15.38-13.68C15.38-14.74 14.53-15.61 13.45-15.61C12.39-15.61 11.53-14.74 11.53-13.68ZM12.86-13.75C12.57-13.75 12.34-13.97 12.34-14.27C12.34-14.58 12.56-14.79 12.86-14.79C13.17-14.79 13.39-14.58 13.39-14.27C13.39-13.97 13.17-13.75 12.86-13.75ZM13.45-1.92C16.97-1.92 19.62-2.96 19.62-4.59C19.62-6.05 16.86-6.95 14.77-6.95L14.77-6.34C16.61-6.34 19.02-5.60 19.02-4.58C19.02-3.35 16.62-2.52 13.45-2.52C10.29-2.52 7.89-3.34 7.89-4.58C7.89-5.60 10.30-6.34 12.14-6.34L12.14-6.95C10.04-6.95 7.29-6.05 7.29-4.59C7.29-2.96 9.95-1.92 13.45-1.92Z" fill="currentColor"/>
</svg>