<svg xmlns="http://www.w3.org/2000/svg" viewBox="0 0 24 24" width="24" height="24">
  
  <path transform="matrix(0.7391367114190848, 0, 0, 0.7391367114190848, -0.2087483759203117, 18.253789519272413)" d="M6.89 1.79L26.14 1.79C28.55 1.79 30.05 0.28 30.05-2.11L30.05-14.81C30.05-17.20 28.55-18.71 26.14-18.71L6.89-18.71C4.49-18.71 2.99-17.20 2.99-14.81L2.99-2.11C2.99 0.28 4.49 1.79 6.89 1.79ZM6.91-18.14L26.12-18.14C27.90-18.14 29.11-17.18 29.40-15.59L3.63-15.59C3.93-17.18 5.13-18.14 6.91-18.14ZM6.91 1.22C4.85 1.22 3.56-0.07 3.56-2.14L3.56-14.79C3.56-14.86 3.56-14.94 3.56-15.01L29.47-15.01C29.47-14.94 29.47-14.86 29.47-14.79L29.47-2.14C29.47-0.07 28.18 1.22 26.12 1.22ZM16.75-2.80L20.89-6.93C21.01-7.04 21.13-7.13 21.13-7.29C21.13-7.46 21.01-7.58 20.82-7.58C20.74-7.58 20.67-7.56 20.61-7.50L19.36-6.23L16.79-3.63L16.82-6.21L16.82-11.17C16.82-11.32 16.69-11.46 16.52-11.46C16.37-11.46 16.24-11.32 16.24-11.17L16.24-6.21L16.27-3.63L13.70-6.23L12.45-7.50C12.39-7.56 12.32-7.58 12.23-7.58C12.04-7.58 11.93-7.46 11.93-7.29C11.93-7.13 12.05-7.04 12.16-6.93L16.31-2.80C16.38-2.73 16.44-2.70 16.52-2.70C16.62-2.70 16.69-2.74 16.75-2.80Z" fill="currentColor"/>
</svg>