<svg xmlns="http://www.w3.org/2000/svg" viewBox="0 0 24 24" width="24" height="24">
  
  <path transform="matrix(0.829284094590217, 0, 0, 0.829284094590217, 2.9815354713313895, 19.900874635568513)" d="M7.32-9.87C7.32-7.68 8.70-5.99 10.88-5.99C13.05-5.99 14.43-7.68 14.43-9.87L14.43-17.72C14.43-19.91 13.05-21.59 10.88-21.59C8.70-21.59 7.32-19.91 7.32-17.72ZM7.90-9.87L7.90-17.72C7.90-19.57 9.02-21.05 10.88-21.05C12.71-21.05 13.84-19.57 13.84-17.72L13.84-9.87C13.84-8.02 12.71-6.54 10.88-6.54C9.02-6.54 7.90-8.02 7.90-9.87ZM5.64 2.53L16.11 2.53C16.27 2.53 16.39 2.40 16.39 2.25C16.39 2.09 16.27 1.96 16.11 1.96L11.17 1.96L11.17-2.17C15.52-2.30 18.30-5.27 18.30-9.33L18.30-11.46C18.30-11.63 18.18-11.75 18.01-11.75C17.86-11.75 17.73-11.63 17.73-11.46L17.73-9.33C17.73-5.50 15.05-2.74 10.88-2.74C6.70-2.74 4.02-5.50 4.02-9.33L4.02-11.46C4.02-11.63 3.89-11.75 3.73-11.75C3.57-11.75 3.45-11.63 3.45-11.46L3.45-9.33C3.45-5.27 6.22-2.30 10.58-2.17L10.58 1.96L5.64 1.96C5.48 1.96 5.36 2.09 5.36 2.25C5.36 2.40 5.48 2.53 5.64 2.53Z" fill="currentColor"/>
</svg>