<svg xmlns="http://www.w3.org/2000/svg" viewBox="0 0 24 24" width="24" height="24">
  <title>microwave</title>
  <path transform="matrix(0.7853965332106151, 0, 0, 0.7853965332106151, -0.3469857340082836, 18.640589047399907)" d="M4.99-0.62L26.44-0.62C27.64-0.62 28.45-1.50 28.45-2.82L28.45-14.09C28.45-15.41 27.64-16.29 26.44-16.29L4.99-16.29C3.79-16.29 2.99-15.41 2.99-14.09L2.99-2.82C2.99-1.50 3.79-0.62 4.99-0.62ZM4.97-1.20C4.13-1.20 3.56-1.83 3.56-2.79L3.56-14.12C3.56-15.08 4.13-15.71 4.97-15.71L20.27-15.71L20.27-1.20ZM26.47-15.71C27.32-15.71 27.88-15.08 27.88-14.12L27.88-5.04L20.86-5.04L20.86-15.71ZM6.57-2.99L17.26-2.99C18.01-2.99 18.47-3.47 18.47-4.22L18.47-12.69C18.47-13.44 18.01-13.92 17.26-13.92L6.57-13.92C5.82-13.92 5.37-13.44 5.37-12.69L5.37-4.22C5.37-3.47 5.82-2.99 6.57-2.99ZM22.57-11.12L26.18-11.12C26.30-11.12 26.39-11.21 26.39-11.33L26.39-13.71C26.39-13.83 26.30-13.92 26.18-13.92L22.57-13.92C22.46-13.92 22.36-13.83 22.36-13.71L22.36-11.33C22.36-11.21 22.46-11.12 22.57-11.12ZM6.57-3.57C6.19-3.57 5.95-3.82 5.95-4.22L5.95-12.69C5.95-13.09 6.19-13.34 6.57-13.34L17.26-13.34C17.65-13.34 17.88-13.09 17.88-12.69L17.88-4.22C17.88-3.82 17.65-3.57 17.26-3.57ZM22.65-9.63L26.10-9.63C26.25-9.63 26.39-9.77 26.39-9.93C26.39-10.09 26.25-10.23 26.10-10.23L22.65-10.23C22.49-10.23 22.36-10.09 22.36-9.93C22.36-9.77 22.49-9.63 22.65-9.63ZM22.65-8.16L26.10-8.16C26.25-8.16 26.39-8.29 26.39-8.45C26.39-8.60 26.25-8.74 26.10-8.74L22.65-8.74C22.49-8.74 22.36-8.60 22.36-8.45C22.36-8.29 22.49-8.16 22.65-8.16ZM27.88-2.79C27.88-1.83 27.32-1.20 26.47-1.20L20.86-1.20L20.86-4.45L27.88-4.45Z" fill="currentColor"/>
</svg>