<svg xmlns="http://www.w3.org/2000/svg" viewBox="0 0 24 24" width="24" height="24">
  
  <path transform="matrix(0.7391367114190848, 0, 0, 0.7391367114190848, -0.2087483759203117, 18.253789519272413)" d="M6 1.79L27.05 1.79C29.00 1.79 30.05 0.71 30.05-1.22L30.05-15.70C30.05-17.64 29.00-18.71 27.05-18.71L6-18.71C4.03-18.71 2.99-17.67 2.99-15.70L2.99-1.22C2.99 0.75 4.03 1.79 6 1.79ZM10.96-8.14C10.80-8.14 10.66-8.30 10.66-8.44C10.66-8.60 10.79-8.75 10.96-8.75L22.09-8.75C22.27-8.75 22.39-8.60 22.39-8.44C22.39-8.30 22.24-8.14 22.09-8.14Z" fill="currentColor"/>
</svg>