<svg xmlns="http://www.w3.org/2000/svg" viewBox="0 0 24 24" width="24" height="24">
  
  <path transform="matrix(0.8026614816060077, 0, 0, 0.8026614816060077, 1.2016947552691777, 19.67667125832011)" d="M13.45 2.89C19.73 2.89 24.81-2.19 24.81-8.46C24.81-12.67 22.51-16.37 19.08-18.33C18.93-18.41 18.74-18.36 18.67-18.23C18.60-18.09 18.64-17.92 18.79-17.84C22.07-15.98 24.23-12.47 24.23-8.46C24.23-2.50 19.42 2.32 13.45 2.32C7.49 2.32 2.67-2.50 2.67-8.46C2.67-13.76 6.48-18.15 11.52-19.07L11.52-16.65C11.52-16.28 11.78-16.14 12.13-16.38L15.60-18.81C15.89-19.01 15.89-19.28 15.60-19.48L12.13-21.90C11.78-22.15 11.52-22.00 11.52-21.63L11.52-19.65C6.16-18.73 2.10-14.07 2.10-8.46C2.10-2.19 7.18 2.89 13.45 2.89ZM7.89-8.14L19.02-8.14C19.17-8.14 19.32-8.30 19.32-8.44C19.32-8.60 19.20-8.75 19.02-8.75L7.89-8.75C7.72-8.75 7.59-8.60 7.59-8.44C7.59-8.30 7.73-8.14 7.89-8.14Z" fill="currentColor"/>
</svg>