<svg xmlns="http://www.w3.org/2000/svg" viewBox="0 0 24 24" width="24" height="24">
  
  <path transform="matrix(0.8806329549363605, 0, 0, 0.8806329549363605, 0.15273477812177494, 19.440660474716204)" d="M13.45 2.91C19.70 2.91 24.81-2.20 24.81-8.45C24.81-14.70 19.70-19.80 13.45-19.80C7.21-19.80 2.10-14.70 2.10-8.45C2.10-2.20 7.21 2.91 13.45 2.91ZM9.81-6.30C8.79-7.28 8.21-8.70 8.21-10.31C8.21-12.63 9.42-14.45 11.19-15.41C11.38-15.53 11.55-15.53 11.66-15.42C11.74-15.33 11.77-15.18 11.68-15.01C11.41-14.46 11.29-13.78 11.29-13.02C11.29-9.83 13.17-7.92 16.32-7.92C17.14-7.92 17.72-8.06 18.26-8.25C18.42-8.33 18.56-8.30 18.63-8.23C18.70-8.16 18.71-8.00 18.63-7.86C18.36-7.25 17.96-6.73 17.50-6.30ZM6.11-5.10C5.95-5.10 5.82-5.20 5.82-5.38C5.82-5.53 5.95-5.65 6.11-5.65L20.79-5.65C20.96-5.65 21.08-5.55 21.08-5.38C21.08-5.20 20.96-5.10 20.79-5.10ZM7.68-3.07C7.45-3.07 7.27-3.26 7.27-3.48C7.27-3.70 7.45-3.90 7.68-3.90C7.90-3.90 8.10-3.70 8.10-3.48C8.10-3.26 7.90-3.07 7.68-3.07ZM10.58-3.07C10.36-3.07 10.16-3.26 10.16-3.48C10.16-3.70 10.36-3.90 10.58-3.90C10.80-3.90 10.99-3.70 10.99-3.48C10.99-3.26 10.80-3.07 10.58-3.07ZM13.46-3.07C13.24-3.07 13.05-3.26 13.05-3.48C13.05-3.70 13.24-3.90 13.46-3.90C13.69-3.90 13.89-3.70 13.89-3.48C13.89-3.26 13.69-3.07 13.46-3.07ZM16.35-3.07C16.13-3.07 15.94-3.26 15.94-3.48C15.94-3.70 16.13-3.90 16.35-3.90C16.57-3.90 16.77-3.70 16.77-3.48C16.77-3.26 16.57-3.07 16.35-3.07ZM19.24-3.07C19.02-3.07 18.82-3.26 18.82-3.48C18.82-3.70 19.02-3.90 19.24-3.90C19.46-3.90 19.65-3.70 19.65-3.48C19.65-3.26 19.46-3.07 19.24-3.07ZM9.14-1.35C8.92-1.35 8.73-1.54 8.73-1.76C8.73-1.98 8.92-2.18 9.14-2.18C9.36-2.18 9.56-1.98 9.56-1.76C9.56-1.54 9.36-1.35 9.14-1.35ZM12.05-1.35C11.82-1.35 11.63-1.54 11.63-1.76C11.63-1.98 11.82-2.18 12.05-2.18C12.27-2.18 12.46-1.98 12.46-1.76C12.46-1.54 12.27-1.35 12.05-1.35ZM14.93-1.35C14.71-1.35 14.52-1.54 14.52-1.76C14.52-1.98 14.71-2.18 14.93-2.18C15.15-2.18 15.35-1.98 15.35-1.76C15.35-1.54 15.15-1.35 14.93-1.35ZM17.80-1.35C17.58-1.35 17.39-1.54 17.39-1.76C17.39-1.98 17.58-2.18 17.80-2.18C18.02-2.18 18.22-1.98 18.22-1.76C18.22-1.54 18.02-1.35 17.80-1.35Z" fill="currentColor"/>
</svg>