<svg xmlns="http://www.w3.org/2000/svg" viewBox="0 0 24 24" width="24" height="24">
  <title>moped</title>
  <path transform="matrix(0.6267590340644367, 0, 0, 0.6267590340644367, 0.12708902214188678, 17.295624182349126)" d="M3.59-1.95L4.17-1.95C4.54 0.88 6.97 3.08 9.89 3.08C12.82 3.08 15.25 0.88 15.62-1.95L23.41-1.95C23.78 0.89 26.20 3.08 29.13 3.08C32.32 3.08 34.90 0.49 34.90-2.68C34.90-5.87 32.32-8.46 29.13-8.46C28.86-8.46 28.59-8.44 28.34-8.40L25.95-19.56C25.89-19.86 25.65-19.98 25.32-19.98L22.38-19.98C22.22-19.98 22.09-19.85 22.09-19.69C22.09-19.54 22.22-19.39 22.38-19.39L25.25-19.39C25.37-19.39 25.44-19.37 25.45-19.28L26.70-13.50L23.72-13.50C23.30-13.50 23.09-13.27 23.09-12.86L23.09-2.52L16.75-2.52L16.75-10.16C16.75-10.61 16.58-10.73 16.11-10.73L9.66-10.73C4.80-10.73 2.41-6.53 3.11-2.23C3.15-1.95 3.14-1.95 3.59-1.95ZM29.88-12.57C30.21-12.54 30.36-12.81 30.30-13.13L29.79-15.56C29.72-15.89 29.48-16.03 29.18-15.88C28.95-15.74 28.72-15.55 28.57-15.30C28.02-14.51 28.27-13.37 29.06-12.86C29.29-12.70 29.59-12.60 29.88-12.57ZM23.66-12.93L26.82-12.93L27.81-8.31C25.86-7.84 24.29-6.40 23.66-4.52ZM9.63-11.77L16.45-11.77C16.62-11.77 16.75-11.89 16.75-12.06C16.75-12.21 16.62-12.34 16.45-12.34L9.63-12.34C9.48-12.34 9.35-12.21 9.35-12.06C9.35-11.89 9.48-11.77 9.63-11.77ZM3.63-2.52C3.11-6.28 5.10-10.16 9.66-10.16L16.17-10.16L16.17-2.52ZM29.13-1.80C29.63-1.80 30.02-2.20 30.02-2.68C30.02-3.09 29.74-3.43 29.37-3.54L28.45-7.84C28.68-7.86 28.90-7.89 29.13-7.89C32.00-7.89 34.32-5.55 34.32-2.68C34.32 0.18 32.00 2.51 29.13 2.51C26.25 2.51 23.94 0.20 23.94-2.68C23.94-5.14 25.63-7.20 27.93-7.75L28.83-3.52C28.49-3.40 28.24-3.07 28.24-2.68C28.24-2.20 28.64-1.80 29.13-1.80ZM9.89 2.51C7.27 2.51 5.10 0.57 4.75-1.95L15.04-1.95C14.67 0.56 12.50 2.51 9.89 2.51Z" fill="currentColor"/>
</svg>