<svg xmlns="http://www.w3.org/2000/svg" viewBox="0 0 24 24" width="24" height="24">
  
  <path transform="matrix(0.7408211249773919, 0, 0, 0.7408211249773919, 1.2392837764514373, 18.271296798697776)" d="M4.17-11.13L24.87-11.13C25.97-11.13 26.31-12.30 25.48-13.02L15.47-21.55C14.84-22.10 14.18-22.10 13.55-21.55L3.56-13.02C2.73-12.30 3.06-11.13 4.17-11.13ZM4.20-11.68C3.70-11.68 3.54-12.23 3.95-12.59L14.05-21.21C14.37-21.48 14.66-21.48 14.96-21.21L25.09-12.59C25.50-12.23 25.34-11.68 24.83-11.68ZM3.27-8.18L25.78-8.18C25.93-8.18 26.06-8.31 26.06-8.46C26.06-8.63 25.93-8.75 25.78-8.75L3.27-8.75C3.12-8.75 2.99-8.63 2.99-8.46C2.99-8.31 3.12-8.18 3.27-8.18ZM4.17-5.79C3.06-5.79 2.73-4.62 3.56-3.90L13.55 4.63C14.18 5.17 14.84 5.17 15.47 4.63L25.48-3.90C26.31-4.62 25.97-5.79 24.87-5.79ZM4.20-5.25L24.83-5.25C25.34-5.25 25.50-4.69 25.09-4.34L14.96 4.29C14.66 4.56 14.37 4.56 14.05 4.29L3.95-4.34C3.54-4.69 3.70-5.25 4.20-5.25Z" fill="currentColor"/>
</svg>