<svg xmlns="http://www.w3.org/2000/svg" viewBox="0 0 24 24" width="24" height="24">
  
  <path transform="matrix(0.5167283805484696, 0, 0, 0.5167283805484696, 0.7644967607014372, 16.313723204217375)" d="M40.78-0.91L28.45-17.12C27.83-17.93 26.72-17.93 26.10-17.12L18.36-6.95L14.07-12.33C13.45-13.11 12.45-13.11 11.84-12.33L2.72-0.91C2.00-0.01 2.53 1.03 3.60 1.03L39.82 1.03C40.97 1.03 41.47 0 40.78-0.91ZM27.28-10.78C25.64-10.78 24.87-9.23 23.47-9.23C22.70-9.23 22.13-9.69 21.49-10.10L26.57-16.77C26.99-17.33 27.57-17.33 27.98-16.77L33.07-10.10C32.44-9.68 31.86-9.23 31.10-9.23C29.70-9.23 28.92-10.78 27.28-10.78ZM12.95-8.43C11.46-8.43 10.76-7.11 9.52-7.11C9.16-7.11 8.87-7.21 8.58-7.35L12.29-11.99C12.73-12.53 13.17-12.53 13.61-11.99L17.31-7.35C17.03-7.21 16.73-7.11 16.39-7.11C15.14-7.11 14.44-8.43 12.95-8.43ZM14.73 0.46C14.03 0.46 13.88-0.11 14.17-0.49L21.14-9.64C21.80-9.20 22.43-8.65 23.47-8.65C25.21-8.65 25.79-10.20 27.28-10.20C28.77-10.20 29.37-8.65 31.10-8.65C32.13-8.65 32.77-9.20 33.42-9.63L40.38-0.49C40.68-0.11 40.54 0.46 39.82 0.46ZM9.52-6.59C11.06-6.59 11.60-7.90 12.95-7.90C14.31-7.90 14.84-6.59 16.39-6.59C16.90-6.59 17.30-6.73 17.66-6.91L18-6.47L13.78-0.91C13.41-0.43 13.38 0.08 13.59 0.46L3.52 0.46C2.96 0.46 2.80-0.11 3.12-0.49L8.24-6.91C8.59-6.73 9-6.59 9.52-6.59Z" fill="currentColor"/>
</svg>