<svg xmlns="http://www.w3.org/2000/svg" viewBox="0 0 24 24" width="24" height="24">
  <title>multiply.square</title>
  <path transform="matrix(0.9752380952380952, 0, 0, 0.9752380952380952, -0.9142857142857141, 20.251428571428573)" d="M6 1.79L20.48 1.79C22.44 1.79 23.50 0.71 23.50-1.22L23.50-15.70C23.50-17.64 22.44-18.71 20.48-18.71L6-18.71C4.03-18.71 2.99-17.67 2.99-15.70L2.99-1.22C2.99 0.75 4.03 1.79 6 1.79ZM6.02 1.22C4.41 1.22 3.56 0.38 3.56-1.25L3.56-15.68C3.56-17.30 4.41-18.14 6.02-18.14L20.45-18.14C22.02-18.14 22.92-17.30 22.92-15.68L22.92-1.25C22.92 0.38 22.02 1.22 20.45 1.22ZM9.26-4.00L13.24-7.98L17.24-4.00C17.34-3.89 17.40-3.87 17.52-3.87C17.71-3.87 17.85-4.00 17.85-4.16C17.85-4.27 17.82-4.34 17.73-4.43L13.71-8.45L17.73-12.47C17.82-12.56 17.85-12.63 17.85-12.73C17.85-12.90 17.71-13.03 17.52-13.03C17.41-13.03 17.34-13.01 17.24-12.90L13.24-8.91L9.26-12.90C9.15-13.01 9.08-13.03 8.98-13.03C8.79-13.03 8.65-12.90 8.65-12.73C8.65-12.63 8.67-12.56 8.77-12.47L12.79-8.45L8.77-4.43C8.67-4.34 8.65-4.27 8.65-4.16C8.65-4.00 8.79-3.87 8.98-3.87C9.09-3.87 9.15-3.89 9.26-4.00Z" fill="currentColor"/>
</svg>