<svg xmlns="http://www.w3.org/2000/svg" viewBox="0 0 24 24" width="24" height="24">
  <title>music.pages.fill</title>
  <path transform="matrix(0.7907714673989861, 0, 0, 0.7907714673989861, 2.1308014127353103, 18.6268654593762)" d="M2.99 1.27C2.99 2.55 3.87 3.38 5.24 3.38C9.22 3.36 13.97 3.08 17.94 2.46C19.34 2.24 20.21 1.50 20.21 0.09L20.21-19.03C20.21-20.44 19.20-21.21 17.81-20.99C13.97-20.39 9.22-19.95 5.40-19.96C3.84-19.96 2.99-19.14 2.99-17.70ZM10.08 4.27L18.96 4.27C20.93 4.27 21.97 3.22 21.97 1.25L21.97-17.40C21.97-18.48 21.61-19.23 21.08-19.45C21.09-19.32 21.09-19.18 21.09-19.03L21.09 0.09C21.09 2.00 19.82 3.08 18.07 3.33C15.59 3.69 12.80 3.98 10.08 4.27ZM7.72-2.26C6.79-2.18 6.13-2.72 6.13-3.56C6.13-4.46 6.68-5.07 7.80-5.41L8.72-5.68C8.99-5.78 9.12-5.99 9.12-6.28L9.09-12.86C9.09-13.16 9.27-13.37 9.64-13.49L14.98-15.14C15.59-15.35 15.81-15.21 15.81-14.70L15.81-6.57C15.81-4.92 14.59-4.22 13.75-4.13C12.80-4.04 12.12-4.57 12.12-5.43C12.12-6.28 12.67-6.86 13.83-7.23L14.70-7.51C14.99-7.61 15.15-7.84 15.15-8.14L15.13-11.81C15.13-12.09 14.95-12.16 14.65-12.08L10.16-10.70C9.88-10.61 9.82-10.51 9.82-10.20L9.82-4.75C9.82-3.09 8.57-2.36 7.72-2.26Z" fill="currentColor"/>
</svg>