<svg xmlns="http://www.w3.org/2000/svg" viewBox="0 0 24 24" width="24" height="24">
  
  <path transform="matrix(0.8436315702751689, 0, 0, 0.8436315702751689, -0.5210084033613445, 19.13791398912506)" d="M3.91 1.79L25.77 1.79L25.77 1.41C25.77 1.30 25.68 1.21 25.55 1.21L24.81 1.21L24.81-13.46L25.96-13.46C26.17-13.46 26.26-13.59 26.26-13.76C26.26-13.84 26.21-13.96 26.09-14.03L15.96-19.88C15.60-20.09 15.21-20.19 14.85-20.19C14.47-20.19 14.09-20.09 13.72-19.88L3.60-14.03C3.47-13.96 3.42-13.84 3.42-13.76C3.42-13.59 3.52-13.46 3.73-13.46L4.89-13.46L4.89 1.21L4.14 1.21C4.01 1.21 3.91 1.30 3.91 1.41ZM5.46 1.21L5.46-14.43L14.07-19.35C14.32-19.49 14.57-19.56 14.85-19.56C15.12-19.56 15.38-19.49 15.61-19.35L24.22-14.43L24.22 1.21ZM12.05-3.05C12.22-3.05 12.35-3.18 12.35-3.36L12.35-7.78L14.66-7.78L17.05-3.39C17.18-3.14 17.36-3.05 17.54-3.05C17.79-3.05 17.99-3.20 17.99-3.47L17.99-7.78L18.64-7.78C18.76-7.78 18.87-7.89 18.87-8.00C18.87-8.12 18.76-8.23 18.64-8.23L17.99-8.23L17.99-12.73C17.99-12.91 17.85-13.05 17.66-13.05C17.48-13.05 17.36-12.91 17.36-12.73L17.36-8.23L15.09-8.23L12.66-12.71C12.53-12.95 12.35-13.05 12.16-13.05C11.91-13.05 11.73-12.89 11.73-12.62L11.73-8.23L11.06-8.23C10.95-8.23 10.84-8.12 10.84-8.00C10.84-7.89 10.95-7.78 11.06-7.78L11.73-7.78L11.73-3.36C11.73-3.18 11.87-3.05 12.05-3.05ZM12.35-11.86L12.43-11.86L14.41-8.23L12.35-8.23ZM17.26-4.22L15.33-7.78L17.36-7.78L17.36-4.22ZM3.27 3.27L26.41 3.27C26.57 3.27 26.70 3.14 26.70 2.98C26.70 2.82 26.57 2.70 26.41 2.70L3.27 2.70C3.12 2.70 2.99 2.82 2.99 2.98C2.99 3.14 3.12 3.27 3.27 3.27Z" fill="currentColor"/>
</svg>