<svg xmlns="http://www.w3.org/2000/svg" viewBox="0 0 24 24" width="24" height="24">
  
  <path transform="matrix(0.9905204101373574, 0, 0, 0.9905204101373574, -0.959953569355775, 20.3749274521184)" d="M9.18 1.64L16.99 1.64C19.08 1.64 20.63 1.11 21.64 0.09C22.66-0.91 23.18-2.48 23.18-4.56L23.18-12.35C23.18-14.43 22.68-15.97 21.64-17.00C20.61-18.04 19.08-18.55 16.99-18.55L9.18-18.55C7.10-18.55 5.54-18.02 4.52-17.00C3.52-16.00 2.99-14.43 2.99-12.35L2.99-4.56C2.99-2.48 3.49-0.94 4.52 0.09C5.58 1.15 7.10 1.64 9.18 1.64ZM13.09-2.26C9.67-2.26 6.89-5.04 6.89-8.46C6.89-11.88 9.67-14.66 13.09-14.66C16.51-14.66 19.30-11.88 19.30-8.46C19.30-5.04 16.51-2.26 13.09-2.26ZM9.30-12.62L17.26-4.69C18.16-5.68 18.71-7.01 18.71-8.46C18.71-11.57 16.20-14.09 13.09-14.09C11.64-14.09 10.31-13.54 9.30-12.62ZM7.46-8.46C7.46-5.36 9.98-2.84 13.09-2.84C14.54-2.84 15.87-3.38 16.88-4.29L8.92-12.23C8.02-11.23 7.46-9.90 7.46-8.46Z" fill="currentColor"/>
</svg>