<svg xmlns="http://www.w3.org/2000/svg" viewBox="0 0 24 24" width="24" height="24">
  <title>notequal</title>
  <path transform="matrix(1.3209494324045408, 0, 0, 1.3209494324045408, -1.9473684210526314, 23.187010207406836)" d="M5.25-1.21C5.38-1.11 5.57-1.14 5.65-1.27L8.06-4.56L17.85-4.56C18.01-4.56 18.13-4.69 18.13-4.84C18.13-5.00 18.01-5.13 17.85-5.13L8.48-5.13L13.32-11.73L17.85-11.73C18.01-11.73 18.13-11.86 18.13-12.02C18.13-12.18 18.01-12.30 17.85-12.30L13.73-12.30L15.95-15.32C16.04-15.46 16.03-15.63 15.89-15.71C15.76-15.82 15.61-15.82 15.49-15.66L13.03-12.30L3.27-12.30C3.12-12.30 2.99-12.18 2.99-12.02C2.99-11.86 3.12-11.73 3.27-11.73L12.61-11.73L7.77-5.13L3.27-5.13C3.12-5.13 2.99-5.00 2.99-4.84C2.99-4.69 3.12-4.56 3.27-4.56L7.36-4.56L5.19-1.61C5.09-1.46 5.11-1.29 5.25-1.21Z" fill="currentColor"/>
</svg>