<svg xmlns="http://www.w3.org/2000/svg" viewBox="0 0 24 24" width="24" height="24">
  <title>notequal.square.fill</title>
  <path transform="matrix(0.9752380952380952, 0, 0, 0.9752380952380952, -0.9142857142857141, 20.251428571428573)" d="M6 1.79L20.48 1.79C22.44 1.79 23.50 0.71 23.50-1.22L23.50-15.70C23.50-17.64 22.44-18.71 20.48-18.71L6-18.71C4.03-18.71 2.99-17.67 2.99-15.70L2.99-1.22C2.99 0.75 4.03 1.79 6 1.79ZM18.22-6.69C18.39-6.69 18.52-6.57 18.52-6.40C18.52-6.23 18.39-6.12 18.22-6.12L11.77-6.12L10.41-4.27C10.30-4.14 10.13-4.11 10.00-4.21C9.86-4.29 9.83-4.46 9.94-4.61L11.04-6.12L8.26-6.12C8.09-6.12 7.96-6.23 7.96-6.40C7.96-6.57 8.09-6.69 8.26-6.69L11.47-6.69L14.06-10.21L8.26-10.21C8.09-10.21 7.96-10.32 7.96-10.49C7.96-10.66 8.09-10.78 8.26-10.78L14.47-10.78L16.09-12.97C16.21-13.13 16.37-13.13 16.49-13.02C16.64-12.94 16.65-12.76 16.55-12.62L15.20-10.78L18.22-10.78C18.39-10.78 18.52-10.66 18.52-10.49C18.52-10.32 18.39-10.21 18.22-10.21L14.78-10.21L12.18-6.69Z" fill="currentColor"/>
</svg>