<svg xmlns="http://www.w3.org/2000/svg" viewBox="0 0 24 24" width="24" height="24">
  
  <path transform="matrix(0.9380203583360157, 0, 0, 0.9380203583360157, -0.8006801634643383, 19.95470383768354)" d="M3.79 0.16C4.62 1.02 5.52 1.20 6.04 0.64L10.13-3.46C10.78-4.10 11.09-4.68 11.19-5.30L11.47-7.10L13.65-9.27L15.82-7.10L16.10-5.30C16.21-4.68 16.51-4.10 17.17-3.46L21.26 0.64C21.77 1.20 22.68 1.02 23.51 0.16C24.38-0.67 24.54-1.56 23.99-2.10L19.88-6.18C19.24-6.83 18.67-7.15 18.05-7.23L16.22-7.55L14.07-9.69L20.63-16.24L21.36-15.50C21.48-15.36 21.64-15.36 21.77-15.50C21.90-15.63 21.90-15.80 21.77-15.91L19.86-17.82C19.75-17.95 19.58-17.95 19.45-17.82C19.32-17.68 19.32-17.53 19.45-17.41L20.19-16.66L13.65-10.13L7.10-16.66L7.84-17.41C7.97-17.53 7.97-17.68 7.84-17.82C7.71-17.95 7.55-17.95 7.43-17.82L5.52-15.91C5.39-15.80 5.39-15.63 5.52-15.50C5.65-15.36 5.81-15.36 5.93-15.50L6.67-16.24L13.22-9.69L11.07-7.55L9.25-7.23C8.63-7.15 8.05-6.83 7.42-6.18L3.30-2.10C2.75-1.56 2.92-0.67 3.79 0.16Z" fill="currentColor"/>
</svg>