<svg xmlns="http://www.w3.org/2000/svg" viewBox="0 0 24 24" width="24" height="24">
  <title>p2.button.horizontal</title>
  <path transform="matrix(0.7775246772968869, 0, 0, 0.7775246772968869, -0.3234624145785876, 18.57858769931663)" d="M10.80 1.29L20.89 1.29C26.99 1.29 28.71-1.01 28.71-6.53L28.71-10.39C28.71-15.91 26.99-18.21 20.89-18.21L10.80-18.21C4.71-18.21 2.99-15.91 2.99-10.39L2.99-6.53C2.99-1.01 4.71 1.29 10.80 1.29ZM10.80 0.71C5.09 0.71 3.56-1.38 3.56-6.53L3.56-10.39C3.56-15.54 5.09-17.64 10.80-17.64L20.89-17.64C26.61-17.64 28.14-15.54 28.14-10.39L28.14-6.53C28.14-1.38 26.61 0.71 20.89 0.71ZM17.23-3.73L21.23-3.73C21.41-3.73 21.55-3.86 21.55-4.03C21.55-4.21 21.41-4.34 21.23-4.34L17.80-4.34L17.80-4.38L20.13-7.69C21.01-8.94 21.32-9.80 21.32-10.77C21.32-12.20 20.58-13.38 19.11-13.38C17.78-13.38 16.91-12.13 16.91-10.86C16.91-10.73 16.99-10.56 17.21-10.56C17.38-10.56 17.50-10.66 17.51-10.82C17.66-11.95 18.14-12.77 19.14-12.77C20.25-12.77 20.71-11.68 20.71-10.73C20.71-9.87 20.41-9.13 19.65-8.05L17.00-4.36C16.92-4.23 16.90-4.13 16.90-4.01C16.90-3.82 17.04-3.73 17.23-3.73ZM11.06-3.62C11.31-3.62 11.41-3.80 11.41-3.96L11.41-7.43L13.04-7.43C14.63-7.43 15.56-8.65 15.56-10.32C15.56-11.98 14.59-13.21 13.05-13.21L11.06-13.21C10.91-13.21 10.73-13.11 10.73-12.84L10.73-3.96C10.73-3.75 10.85-3.62 11.06-3.62ZM11.41-8.04L11.41-12.57L12.90-12.57C14.21-12.57 14.87-11.63 14.87-10.32C14.87-9.01 14.21-8.04 12.90-8.04Z" fill="currentColor"/>
</svg>