<svg xmlns="http://www.w3.org/2000/svg" viewBox="0 0 24 24" width="24" height="24">
  
  <path transform="matrix(0.7775246772968869, 0, 0, 0.7775246772968869, -0.3234624145785876, 18.57858769931663)" d="M10.80 1.29L20.89 1.29C26.99 1.29 28.71-1.01 28.71-6.53L28.71-10.39C28.71-15.91 26.99-18.21 20.89-18.21L10.80-18.21C4.71-18.21 2.99-15.91 2.99-10.39L2.99-6.53C2.99-1.01 4.71 1.29 10.80 1.29ZM10.80 0.71C5.09 0.71 3.56-1.38 3.56-6.53L3.56-10.39C3.56-15.54 5.09-17.64 10.80-17.64L20.89-17.64C26.61-17.64 28.14-15.54 28.14-10.39L28.14-6.53C28.14-1.38 26.61 0.71 20.89 0.71ZM20.38-3.62C20.55-3.62 20.71-3.80 20.71-3.97L20.71-6.02L21.50-6.02C21.69-6.02 21.81-6.13 21.81-6.33C21.81-6.50 21.66-6.62 21.50-6.62L20.71-6.62L20.71-12.81C20.71-13.24 20.43-13.36 20.19-13.36C19.86-13.36 19.70-13.15 19.54-12.83L16.56-6.97C16.48-6.79 16.43-6.63 16.43-6.47C16.43-6.21 16.61-6.02 16.91-6.02L20.05-6.02L20.05-3.97C20.05-3.76 20.18-3.62 20.38-3.62ZM10.95-3.62C11.19-3.62 11.30-3.80 11.30-3.96L11.30-7.43L12.91-7.43C14.50-7.43 15.43-8.65 15.43-10.32C15.43-11.98 14.47-13.21 12.93-13.21L10.95-13.21C10.78-13.21 10.61-13.11 10.61-12.84L10.61-3.96C10.61-3.75 10.72-3.62 10.95-3.62ZM11.30-8.04L11.30-12.57L12.79-12.57C14.10-12.57 14.75-11.63 14.75-10.32C14.75-9.01 14.10-8.04 12.79-8.04ZM20.05-6.62L17.07-6.62L17.07-6.64L20.00-12.52L20.05-12.52Z" fill="currentColor"/>
</svg>