<svg xmlns="http://www.w3.org/2000/svg" viewBox="0 0 24 24" width="24" height="24">
  
  <path transform="matrix(0.8806329549363605, 0, 0, 0.8806329549363605, 0.15273477812177494, 19.45098039215686)" d="M13.45 2.89C19.73 2.89 24.81-2.19 24.81-8.46C24.81-14.74 19.73-19.82 13.45-19.82C7.18-19.82 2.10-14.74 2.10-8.46C2.10-2.19 7.18 2.89 13.45 2.89ZM13.45 2.32C7.49 2.32 2.67-2.50 2.67-8.46C2.67-14.43 7.49-19.24 13.45-19.24C19.42-19.24 24.23-14.43 24.23-8.46C24.23-2.50 19.42 2.32 13.45 2.32ZM13.80-0.79C14.10-0.79 14.29-0.97 14.45-1.39L19.29-14.05C19.34-14.19 19.37-14.29 19.37-14.40C19.37-14.66 19.22-14.80 18.97-14.80C18.86-14.80 18.75-14.78 18.62-14.73L5.95-9.89C5.53-9.73 5.34-9.54 5.34-9.25C5.34-8.93 5.55-8.77 6.06-8.60L10.91-7.13C11.09-7.07 11.31-7.14 11.44-7.27L18.82-14.40C18.88-14.45 18.94-14.47 19.00-14.44C19.05-14.41 19.01-14.32 18.97-14.26L11.81-6.88C11.68-6.75 11.61-6.54 11.67-6.35L13.16-1.50C13.32-1.01 13.48-0.79 13.80-0.79Z" fill="currentColor"/>
</svg>