<svg xmlns="http://www.w3.org/2000/svg" viewBox="0 0 24 24" width="24" height="24">
  
  <path transform="matrix(1.1082251082251082, 0, 0, 1.1082251082251082, 4.142857142857142, 21.376623376623378)" d="M3.27 0.56C3.43 0.56 3.56 0.43 3.56 0.27L3.56-17.20C3.56-17.36 3.43-17.48 3.27-17.48C3.12-17.48 2.99-17.36 2.99-17.20L2.99 0.27C2.99 0.43 3.12 0.56 3.27 0.56ZM10.90 0.56C11.06 0.56 11.19 0.43 11.19 0.27L11.19-17.20C11.19-17.36 11.06-17.48 10.90-17.48C10.75-17.48 10.62-17.36 10.62-17.20L10.62 0.27C10.62 0.43 10.75 0.56 10.90 0.56Z" fill="currentColor"/>
</svg>