<svg xmlns="http://www.w3.org/2000/svg" viewBox="0 0 24 24" width="24" height="24">
  <title>peacesign</title>
  <path transform="matrix(0.8806329549363605, 0, 0, 0.8806329549363605, 0.15273477812177494, 19.45098039215686)" d="M13.45 2.89C19.73 2.89 24.81-2.19 24.81-8.46C24.81-14.74 19.73-19.82 13.45-19.82C7.18-19.82 2.10-14.74 2.10-8.46C2.10-2.19 7.18 2.89 13.45 2.89ZM2.67-8.46C2.67-14.34 7.36-19.11 13.20-19.24L13.20-8.55L5.24-1.46C3.63-3.35 2.67-5.79 2.67-8.46ZM13.77-8.50L13.77-19.24C19.58-19.08 24.23-14.32 24.23-8.46C24.23-5.79 23.27-3.35 21.67-1.46ZM13.20-7.76L13.20 2.32C10.22 2.25 7.54 0.97 5.63-1.04ZM13.77-7.70L21.28-1.04C19.38 0.96 16.72 2.23 13.77 2.32Z" fill="currentColor"/>
</svg>