<svg xmlns="http://www.w3.org/2000/svg" viewBox="0 0 24 24" width="24" height="24">
  <title>pencil.circle</title>
  <path transform="matrix(0.8806329549363605, 0, 0, 0.8806329549363605, 0.15273477812177494, 19.45098039215686)" d="M13.45 2.89C19.73 2.89 24.81-2.19 24.81-8.46C24.81-14.74 19.73-19.82 13.45-19.82C7.18-19.82 2.10-14.74 2.10-8.46C2.10-2.19 7.18 2.89 13.45 2.89ZM13.45 2.32C7.49 2.32 2.67-2.50 2.67-8.46C2.67-14.43 7.49-19.24 13.45-19.24C19.42-19.24 24.23-14.43 24.23-8.46C24.23-2.50 19.42 2.32 13.45 2.32ZM18.48-12.76L18.96-13.24C19.25-13.52 19.23-13.77 19.00-14.00L18.97-14.03C18.75-14.25 18.49-14.21 18.25-13.97L17.75-13.48ZM9.18-3.48L18.05-12.34L17.33-13.07L8.47-4.21L7.72-2.89C7.66-2.79 7.78-2.71 7.85-2.75Z" fill="currentColor"/>
</svg>