<svg xmlns="http://www.w3.org/2000/svg" viewBox="0 0 24 24" width="24" height="24">
  
  <path transform="matrix(0.9619576229782458, 0, 0, 0.9619576229782458, -0.5909735521297423, 20.125652648785426)" d="M20.05-15.39L20.85-16.17C21.29-16.61 21.29-17.00 20.91-17.39L20.87-17.43C20.51-17.78 20.09-17.73 19.69-17.33L18.90-16.55ZM5.06-0.43L19.30-14.66L18.16-15.81L3.94-1.61L2.72 0.53C2.63 0.68 2.81 0.82 2.94 0.75ZM5.09 0.76L23.20 0.76C23.36 0.76 23.48 0.63 23.48 0.48C23.48 0.32 23.36 0.19 23.20 0.19L5.66 0.19Z" fill="currentColor"/>
</svg>