<svg xmlns="http://www.w3.org/2000/svg" viewBox="0 0 24 24" width="24" height="24">
  
  <path transform="matrix(0.8247400736236281, 0, 0, 0.8247400736236281, 0.02767394736298301, 18.87659252792826)" d="M2.60-9.47L6.20 1.46C6.64 2.86 7.29 3.33 8.75 3.33L20.31 3.33C21.77 3.33 22.42 2.86 22.86 1.46L26.40-9.29C26.89-10.80 26.65-11.64 25.46-12.52L16.25-19.30C14.99-20.24 14.07-20.24 12.81-19.30L3.60-12.52C2.41-11.64 2.14-10.88 2.60-9.47ZM3.16-9.64C2.80-10.73 3-11.36 3.95-12.05L13.15-18.83C14.17-19.58 14.89-19.58 15.91-18.83L25.11-12.05C26.06-11.36 26.24-10.69 25.84-9.46L25.15-7.34L3.91-7.34Z" fill="currentColor"/>
</svg>