<svg xmlns="http://www.w3.org/2000/svg" viewBox="0 0 24 24" width="24" height="24">
  <title>person.crop.circle.dashed</title>
  <path transform="matrix(0.8806329549363605, 0, 0, 0.8806329549363605, 0.15273477812177494, 19.45098039215686)" d="M13.45-19.24C14.77-19.24 16.01-19.01 17.18-18.59L17.39-19.11C16.16-19.57 14.84-19.82 13.45-19.82C12.08-19.82 10.75-19.57 9.52-19.11L9.75-18.59C10.90-19.02 12.15-19.24 13.45-19.24ZM23.24-13.00L23.77-13.21C22.63-15.67 20.64-17.64 18.20-18.77L17.99-18.25C20.30-17.17 22.16-15.30 23.24-13.00ZM8.91-18.25L8.70-18.76C6.26-17.63 4.28-15.64 3.14-13.21L3.67-13.00C4.73-15.29 6.61-17.17 8.91-18.25ZM13.45-6.70C15.70-6.70 17.40-8.61 17.40-11.10C17.40-13.43 15.66-15.41 13.45-15.41C11.26-15.41 9.49-13.43 9.50-11.10C9.50-8.61 11.21-6.70 13.45-6.70ZM2.67-8.46C2.67-9.77 2.89-11.02 3.33-12.16L2.80-12.40C2.36-11.17 2.10-9.84 2.10-8.46C2.10-7.09 2.36-5.75 2.80-4.52L3.33-4.75C2.91-5.89 2.67-7.16 2.67-8.46ZM24.23-8.46C24.23-7.16 24-5.89 23.58-4.75L24.11-4.52C24.56-5.75 24.81-7.09 24.81-8.46C24.81-9.84 24.56-11.16 24.11-12.39L23.59-12.16C24.01-11.02 24.23-9.77 24.23-8.46ZM13.45 2.89C17.95 2.89 21.97 0.11 23.75-3.70L23.24-3.91C22.75-2.88 22.10-1.92 21.28-1.05C20.47-2.65 17.51-4.66 13.45-4.66C9.41-4.66 6.45-2.64 5.61-1.08C4.82-1.93 4.15-2.89 3.67-3.91L3.15-3.70C4.93 0.11 8.95 2.89 13.45 2.89Z" fill="currentColor"/>
</svg>