<svg xmlns="http://www.w3.org/2000/svg" viewBox="0 0 24 24" width="24" height="24">
  
  <path transform="matrix(0.5275631117980423, 0, 0, 0.5275631117980423, 0.42349304482225647, 17.253996647920403)" d="M37.99-5.87C38.13-5.77 38.30-5.80 38.39-5.93C39.90-7.85 40.90-10.79 40.90-13.77C40.90-16.75 39.90-19.68 38.39-21.61C38.30-21.74 38.13-21.76 37.99-21.66C37.85-21.56 37.83-21.40 37.95-21.25C39.48-19.22 40.31-16.59 40.31-13.77C40.31-10.93 39.48-8.31 37.95-6.29C37.83-6.13 37.85-5.98 37.99-5.87ZM24.95-8.72C27.52-8.72 29.47-10.91 29.47-13.77C29.47-16.44 27.48-18.71 24.95-18.71C22.42-18.71 20.41-16.44 20.41-13.77C20.41-10.91 22.37-8.72 24.95-8.72ZM34.34-8.99C34.49-8.88 34.64-8.91 34.75-9.04C35.64-10.20 36.28-11.80 36.28-13.77C36.28-15.73 35.64-17.34 34.75-18.49C34.64-18.62 34.49-18.64 34.34-18.55C34.21-18.45 34.18-18.28 34.30-18.12C35.26-16.79 35.71-15.50 35.71-13.77C35.71-12.02 35.26-10.73 34.30-9.41C34.18-9.26 34.21-9.08 34.34-8.99ZM11.46-8.46C13.70-8.46 15.40-10.36 15.40-12.86C15.40-15.19 13.65-17.17 11.46-17.17C9.26-17.17 7.52-15.19 7.52-12.86C7.52-10.36 9.21-8.46 11.46-8.46ZM4.51 1.80L14.93 1.80C13.63 1.13 14.44-2.41 17.07-4.70C15.79-5.82 13.95-6.67 11.43-6.67C6.22-6.67 2.99-2.94 2.99 0.39C2.99 1.42 3.54 1.80 4.51 1.80ZM16.95 1.80L32.88 1.80C33.98 1.80 34.62 1.49 34.62 0.48C34.62-2.50 30.90-6.61 24.91-6.61C18.94-6.61 15.21-2.50 15.21 0.48C15.21 1.49 15.86 1.80 16.95 1.80Z" fill="currentColor"/>
</svg>