<svg xmlns="http://www.w3.org/2000/svg" viewBox="0 0 24 24" width="24" height="24">
  <title>pesetasign.circle.fill</title>
  <path transform="matrix(0.8806329549363605, 0, 0, 0.8806329549363605, 0.15273477812177494, 19.45098039215686)" d="M13.45 2.89C19.70 2.89 24.81-2.21 24.81-8.46C24.81-14.71 19.70-19.82 13.45-19.82C7.21-19.82 2.10-14.71 2.10-8.46C2.10-2.21 7.21 2.89 13.45 2.89ZM11.06-3.43C10.89-3.43 10.76-3.56 10.76-3.74L10.76-10.16L9.95-10.16C9.82-10.16 9.71-10.25 9.71-10.39C9.71-10.52 9.82-10.62 9.95-10.62L10.76-10.62L10.76-13.00C10.76-13.20 10.88-13.31 11.06-13.31L13.64-13.31C15.42-13.31 16.69-12.28 16.80-10.62L17.51-10.62C17.65-10.62 17.75-10.52 17.75-10.39C17.75-10.25 17.65-10.16 17.51-10.16L16.83-10.16C16.73-8.43 15.45-7.36 13.64-7.36L11.37-7.36L11.37-3.74C11.37-3.56 11.24-3.43 11.06-3.43ZM11.37-10.62L16.16-10.62C16.04-12 15-12.77 13.51-12.77L11.37-12.77ZM11.37-7.92L13.51-7.92C15.06-7.92 16.09-8.70 16.18-10.16L11.37-10.16Z" fill="currentColor"/>
</svg>