<svg xmlns="http://www.w3.org/2000/svg" viewBox="0 0 24 24" width="24" height="24">
  
  <path transform="matrix(0.9876543209876543, 0, 0, 0.9876543209876543, 1.0798611111111112, 20.368055555555554)" d="M5.34 1.65C5.53 1.65 5.66 1.51 5.66 1.32L5.66-6.71L10.56-6.71C14.33-6.71 16.98-8.73 17.10-12.41L18.83-12.41C19.00-12.41 19.13-12.54 19.13-12.69C19.13-12.86 19.00-12.97 18.83-12.97L17.10-12.97C16.96-16.39 14.55-18.60 10.56-18.60L5.33-18.60C5.14-18.60 5.02-18.45 5.02-18.25L5.02-12.97L3.28-12.97C3.12-12.97 2.99-12.86 2.99-12.69C2.99-12.54 3.12-12.41 3.28-12.41L5.02-12.41L5.02 1.32C5.02 1.51 5.16 1.65 5.34 1.65ZM5.66-18.01L10.52-18.01C13.93-18.01 16.31-16.24 16.45-12.97L5.66-12.97ZM5.66-7.29L5.66-12.41L16.45-12.41C16.35-9.08 13.95-7.29 10.52-7.29Z" fill="currentColor"/>
</svg>