<svg xmlns="http://www.w3.org/2000/svg" viewBox="0 0 24 24" width="24" height="24">
  <title>photo.artframe</title>
  <path transform="matrix(0.7391367114190848, 0, 0, 0.7391367114190848, -0.2087483759203117, 18.253789519272413)" d="M3.50-18.71C3.18-18.71 2.99-18.53 2.99-18.20L2.99 1.28C2.99 1.59 3.18 1.79 3.50 1.79L29.53 1.79C29.86 1.79 30.05 1.59 30.05 1.28L30.05-18.20C30.05-18.53 29.86-18.71 29.53-18.71ZM3.79-18.14L29.25-18.14C29.39-18.14 29.47-18.05 29.47-17.92L29.47 1.00C29.47 1.13 29.39 1.22 29.25 1.22L3.79 1.22C3.66 1.22 3.56 1.13 3.56 1.00L3.56-17.92C3.56-18.05 3.66-18.14 3.79-18.14ZM5.43-16.64C5.19-16.64 5.06-16.51 5.06-16.27L5.06-0.66C5.06-0.42 5.19-0.28 5.43-0.28L27.61-0.28C27.84-0.28 27.97-0.42 27.97-0.66L27.97-16.27C27.97-16.51 27.84-16.64 27.61-16.64ZM5.80-16.05L27.25-16.05C27.34-16.05 27.39-16.01 27.39-15.90L27.39-2.96L21.53-8.30C21.01-8.75 20.54-9 19.88-9C19.27-9 18.80-8.75 18.29-8.31L13.65-4.17L11.71-6.01C11.29-6.41 10.89-6.63 10.35-6.63C9.82-6.63 9.46-6.41 9.04-6.01L5.65-2.80L5.65-15.90C5.65-16.01 5.70-16.05 5.80-16.05ZM12.13-8.77C13.42-8.77 14.48-9.83 14.48-11.13C14.48-12.43 13.42-13.51 12.13-13.51C10.83-13.51 9.76-12.43 9.76-11.13C9.76-9.83 10.83-8.77 12.13-8.77Z" fill="currentColor"/>
</svg>