<svg xmlns="http://www.w3.org/2000/svg" viewBox="0 0 24 24" width="24" height="24">
  <title>photo.fill.on.rectangle.fill</title>
  <path transform="matrix(0.7170868347338936, 0, 0, 0.7170868347338936, -0.1428571428571428, 18.050420168067227)" d="M11.07-15.76L25.80-15.76L25.80-16.34C25.80-18.27 24.76-19.35 22.79-19.35L6-19.35C4.03-19.35 2.99-18.30 2.99-16.34L2.99-5.02C2.99-3.05 4.03-2.00 6-2.00L7.17-2.00L7.17-11.87C7.17-14.32 8.61-15.76 11.07-15.76ZM11.07 2.47L27.87 2.47C29.84 2.47 30.88 1.39 30.88-0.54L30.88-11.87C30.88-13.80 29.84-14.88 27.87-14.88L11.07-14.88C9.11-14.88 8.06-13.84 8.06-11.87L8.06-0.54C8.06 1.43 9.11 2.47 11.07 2.47ZM16.28-6.21C14.87-6.21 13.76-7.37 13.76-8.78C13.76-10.15 14.87-11.32 16.28-11.32C17.67-11.32 18.81-10.15 18.81-8.78C18.81-7.37 17.67-6.21 16.28-6.21ZM11.11 1.89C9.48 1.89 8.64 1.05 8.64-0.57L8.64-0.63L12.18-3.90C12.64-4.34 13.03-4.55 13.58-4.55C14.17-4.55 14.59-4.32 15.06-3.89L16.86-2.21L21.68-6.35C22.25-6.83 22.72-7.09 23.40-7.09C24.09-7.09 24.63-6.82 25.17-6.34L30.29-1.66L30.29-0.57C30.29 1.05 29.39 1.89 27.83 1.89Z" fill="currentColor"/>
</svg>