<svg xmlns="http://www.w3.org/2000/svg" viewBox="0 0 24 24" width="24" height="24">
  
  <path transform="matrix(0.879271852996737, 0, 0, 0.879271852996737, 2.4688304997424013, 19.434312210200925)" d="M4.49 0.14C4.49 1.98 5.41 2.92 7.24 2.92L14.43 2.92C16.27 2.92 17.19 1.98 17.19 0.14L17.19-17.05C17.19-18.89 16.27-19.83 14.43-19.83L7.24-19.83C5.41-19.83 4.49-18.89 4.49-17.05ZM5.06 0.14L5.06-17.05C5.06-18.59 5.74-19.25 7.28-19.25L14.40-19.25C15.94-19.25 16.62-18.59 16.62-17.05L16.62 0.14C16.62 1.69 15.94 2.34 14.40 2.34L7.28 2.34C5.74 2.34 5.06 1.69 5.06 0.14ZM7.64-14.47L14.04-14.47C14.72-14.47 15.12-14.87 15.12-15.55L15.12-16.68C15.12-17.36 14.72-17.75 14.04-17.75L7.64-17.75C6.96-17.75 6.56-17.36 6.56-16.68L6.56-15.55C6.56-14.87 6.96-14.47 7.64-14.47ZM8.18-10.05C8.27-10.05 8.32-10.08 8.41-10.17L9.94-11.67L10.57-12.29L10.55-11.67L10.55-6.54C10.55-6.35 10.68-6.23 10.84-6.23C11.00-6.23 11.13-6.35 11.13-6.54L11.13-11.67L11.11-12.29L11.74-11.67L13.27-10.17C13.36-10.08 13.39-10.05 13.50-10.05C13.65-10.05 13.77-10.15 13.77-10.31C13.77-10.42 13.72-10.48 13.66-10.54L11.03-13.18C10.98-13.23 10.91-13.25 10.84-13.25C10.77-13.25 10.69-13.23 10.65-13.18L8.02-10.54C7.96-10.48 7.91-10.42 7.91-10.31C7.91-10.15 8.03-10.05 8.18-10.05Z" fill="currentColor"/>
</svg>