<svg xmlns="http://www.w3.org/2000/svg" viewBox="0 0 24 24" width="24" height="24">
  
  <path transform="matrix(0.8516300731869594, 0, 0, 0.8516300731869594, -0.5449101796407185, 19.19061876247505)" d="M2.99-4.79C2.99-2.82 4.03-1.78 6-1.78L7.79-1.78L7.79-12.11C7.79-14.55 9.23-16.00 11.68-16.00L20.79-16.00L20.79-16.57C20.79-18.52 19.75-19.58 17.79-19.58L6-19.58C4.03-19.58 2.99-18.54 2.99-16.57ZM11.68 2.70L23.47 2.70C25.43 2.70 26.47 1.62 26.47-0.32L26.47-12.11C26.47-14.04 25.43-15.12 23.47-15.12L11.68-15.12C9.71-15.12 8.67-14.07 8.67-12.11L8.67-0.32C8.67 1.64 9.71 2.70 11.68 2.70ZM17.57-1.13C17.43-1.13 17.29-1.27 17.29-1.42L17.29-5.93L12.77-5.93C12.62-5.93 12.48-6.07 12.48-6.21C12.48-6.39 12.61-6.53 12.77-6.53L17.29-6.53L17.29-11.04C17.29-11.19 17.43-11.33 17.57-11.33C17.74-11.33 17.88-11.20 17.88-11.04L17.88-6.53L22.38-6.53C22.56-6.53 22.69-6.39 22.69-6.21C22.69-6.07 22.55-5.93 22.38-5.93L17.88-5.93L17.88-1.42C17.88-1.25 17.74-1.13 17.57-1.13Z" fill="currentColor"/>
</svg>