<svg xmlns="http://www.w3.org/2000/svg" viewBox="0 0 24 24" width="24" height="24">
  <title>plus.viewfinder</title>
  <path transform="matrix(0.9351598173515981, 0, 0, 0.9351598173515981, -0.7945205479452055, 19.884931506849316)" d="M3.27-12.53C3.46-12.53 3.56-12.64 3.56-12.83L3.56-16.09C3.56-17.71 4.41-18.55 6.02-18.55L9.28-18.55C9.47-18.55 9.59-18.66 9.59-18.84C9.59-19.03 9.47-19.13 9.28-19.13L6-19.13C4.03-19.13 2.99-18.08 2.99-16.11L2.99-12.83C2.99-12.64 3.09-12.53 3.27-12.53ZM24.09-12.53C24.28-12.53 24.38-12.64 24.38-12.83L24.38-16.11C24.38-18.06 23.33-19.13 21.38-19.13L18.08-19.13C17.89-19.13 17.79-19.03 17.79-18.84C17.79-18.66 17.89-18.55 18.08-18.55L21.34-18.55C22.90-18.55 23.80-17.71 23.80-16.09L23.80-12.83C23.80-12.64 23.91-12.53 24.09-12.53ZM8.88-8.18L13.39-8.18L13.39-3.67C13.39-3.52 13.54-3.36 13.68-3.36C13.85-3.36 13.99-3.49 13.99-3.67L13.99-8.18L18.50-8.18C18.66-8.18 18.80-8.32 18.80-8.46C18.80-8.64 18.67-8.78 18.50-8.78L13.99-8.78L13.99-13.29C13.99-13.45 13.85-13.58 13.68-13.58C13.54-13.58 13.39-13.44 13.39-13.29L13.39-8.78L8.88-8.78C8.71-8.78 8.58-8.64 8.58-8.46C8.58-8.32 8.73-8.18 8.88-8.18ZM6 2.26L9.28 2.26C9.47 2.26 9.59 2.17 9.59 1.98C9.59 1.79 9.47 1.69 9.28 1.69L6.02 1.69C4.41 1.69 3.56 0.84 3.56-0.77L3.56-4.03C3.56-4.22 3.46-4.34 3.27-4.34C3.09-4.34 2.99-4.22 2.99-4.03L2.99-0.75C2.99 1.22 4.03 2.26 6 2.26ZM18.08 2.26L21.38 2.26C23.33 2.26 24.38 1.18 24.38-0.75L24.38-4.03C24.38-4.22 24.28-4.34 24.09-4.34C23.91-4.34 23.80-4.22 23.80-4.03L23.80-0.77C23.80 0.84 22.90 1.69 21.34 1.69L18.08 1.69C17.89 1.69 17.79 1.79 17.79 1.98C17.79 2.17 17.89 2.26 18.08 2.26Z" fill="currentColor"/>
</svg>