<svg xmlns="http://www.w3.org/2000/svg" viewBox="0 0 24 24" width="24" height="24">
  
  <path transform="matrix(0.6985946240960568, 0, 0, 0.6985946240960568, 0.534588620548506, 17.91076545231273)" d="M2.10-8.46C2.10-1.99 6.15 2.03 12.43 2.03L20.39 2.03C26.67 2.03 30.73-1.99 30.73-8.46C30.73-14.93 26.67-18.95 20.39-18.95L12.43-18.95C6.15-18.95 2.10-14.93 2.10-8.46ZM16.39-3.38C16.25-3.38 16.11-3.52 16.11-3.67L16.11-8.18L11.61-8.18C11.45-8.18 11.31-8.32 11.31-8.46C11.31-8.64 11.44-8.78 11.61-8.78L16.11-8.78L16.11-13.29C16.11-13.44 16.25-13.58 16.39-13.58C16.57-13.58 16.71-13.45 16.71-13.29L16.71-8.78L21.22-8.78C21.39-8.78 21.52-8.64 21.52-8.46C21.52-8.32 21.38-8.18 21.22-8.18L16.71-8.18L16.71-3.67C16.71-3.50 16.57-3.38 16.39-3.38Z" fill="currentColor"/>
</svg>