<svg xmlns="http://www.w3.org/2000/svg" viewBox="0 0 24 24" width="24" height="24">
  
  <path transform="matrix(0.8111533586818758, 0, 0, 0.8111533586818758, -0.42395437262357394, 18.297528517110266)" d="M8.75 3.53C8.94 3.53 9.11 3.41 9.26 3.28L13.52-0.34L23.45-0.34C26.00-0.34 27.64-2.02 27.64-4.55L27.64-14.86C27.64-17.38 26.00-19.05 23.45-19.05L7.18-19.05C4.63-19.05 2.99-17.41 2.99-14.86L2.99-4.55C2.99-1.98 4.63-0.34 7.18-0.34L8.32-0.34L8.32 3.04C8.32 3.34 8.51 3.53 8.75 3.53ZM15.30-4.61C15.16-4.61 15.02-4.75 15.02-4.91L15.02-9.41L10.52-9.41C10.36-9.41 10.22-9.56 10.22-9.70C10.22-9.87 10.35-10.02 10.52-10.02L15.02-10.02L15.02-14.52C15.02-14.67 15.16-14.82 15.30-14.82C15.48-14.82 15.62-14.70 15.62-14.52L15.62-10.02L20.13-10.02C20.30-10.02 20.43-9.87 20.43-9.70C20.43-9.56 20.29-9.41 20.13-9.41L15.62-9.41L15.62-4.91C15.62-4.73 15.48-4.61 15.30-4.61Z" fill="currentColor"/>
</svg>