<svg xmlns="http://www.w3.org/2000/svg" viewBox="0 0 24 24" width="24" height="24">
  
  <path transform="matrix(1.0937482247930126, 0, 0, 1.0937482247930126, 3.899307641512248, 21.09317163784251)" d="M15.86-5.73L4.41-17.18C3.89-17.70 2.99-17.47 2.99-16.66L2.99-13.97L12.36-4.59L15.49-4.59C16.17-4.59 16.31-5.27 15.86-5.73ZM-1.23-16.11L15.62 0.75C15.74 0.86 15.93 0.86 16.04 0.75C16.17 0.61 16.15 0.45 16.04 0.33L-0.82-16.54C-0.91-16.63-1.09-16.66-1.23-16.54C-1.35-16.42-1.35-16.23-1.23-16.11ZM2.99-10.64L2.99-0.39C2.99 0.26 3.59 0.62 4.05 0.16L8.93-4.70Z" fill="currentColor"/>
</svg>