<svg xmlns="http://www.w3.org/2000/svg" viewBox="0 0 24 24" width="24" height="24">
  <title>pointer.arrow.rays</title>
  <path transform="matrix(0.8057916273213723, 0, 0, 0.8057916273213723, 0.3097261567516525, 19.007759391160818)" d="M14.51-16.56C14.68-16.56 14.84-16.72 14.84-16.89L14.84-20.54C14.84-20.72 14.68-20.87 14.51-20.87C14.33-20.87 14.18-20.72 14.18-20.54L14.18-16.89C14.18-16.72 14.33-16.56 14.51-16.56ZM20.24-14.19C20.34-14.06 20.58-14.06 20.70-14.19L23.29-16.76C23.40-16.90 23.40-17.11 23.29-17.24C23.16-17.36 22.93-17.36 22.80-17.24L20.24-14.65C20.11-14.53 20.11-14.31 20.24-14.19ZM8.78-14.19C8.91-14.31 8.91-14.53 8.78-14.65L6.21-17.24C6.08-17.36 5.86-17.36 5.73-17.24C5.61-17.11 5.61-16.90 5.73-16.76L8.32-14.19C8.44-14.06 8.66-14.06 8.78-14.19ZM19.43 3.43C19.76 3.28 19.92 2.91 19.77 2.57L17.79-2.04L20.71-1.92C20.95-1.90 21.08-2.20 20.93-2.39L14.51-9.59C14.33-9.77 13.99-9.64 13.99-9.38L14.20 0.06C14.20 0.33 14.52 0.45 14.70 0.26L16.61-1.71L18.57 3.07C18.70 3.40 19.08 3.56 19.43 3.43ZM22.61-8.46C22.61-8.29 22.76-8.13 22.93-8.13L26.59-8.13C26.75-8.13 26.92-8.29 26.92-8.46C26.92-8.64 26.75-8.79 26.59-8.79L22.93-8.79C22.76-8.79 22.61-8.64 22.61-8.46ZM6.41-8.46C6.41-8.64 6.25-8.79 6.08-8.79L2.43-8.79C2.26-8.79 2.10-8.64 2.10-8.46C2.10-8.29 2.26-8.13 2.43-8.13L6.08-8.13C6.25-8.13 6.41-8.29 6.41-8.46ZM8.78-2.73C8.66-2.86 8.44-2.86 8.32-2.73L5.73-0.16C5.61-0.04 5.61 0.19 5.73 0.32C5.86 0.43 6.08 0.43 6.21 0.32L8.78-2.27C8.91-2.39 8.91-2.63 8.78-2.73Z" fill="currentColor"/>
</svg>