<svg xmlns="http://www.w3.org/2000/svg" viewBox="0 0 24 24" width="24" height="24">
  <title>pointer.arrow.slash.square.fill</title>
  <path transform="matrix(0.9752380952380952, 0, 0, 0.9752380952380952, -0.9142857142857141, 20.251428571428573)" d="M6 1.79L20.48 1.79C22.44 1.79 23.50 0.71 23.50-1.22L23.50-15.70C23.50-17.64 22.44-18.71 20.48-18.71L6-18.71C4.03-18.71 2.99-17.67 2.99-15.70L2.99-1.22C2.99 0.75 4.03 1.79 6 1.79ZM15.45-7.52L10.28-12.70L10.23-14.91C10.23-15.18 10.57-15.30 10.75-15.12L17.16-7.93C17.32-7.73 17.19-7.44 16.93-7.45ZM19.29-1.98L6.76-14.53C6.64-14.65 6.63-14.82 6.76-14.95C6.88-15.07 7.08-15.07 7.20-14.95L19.72-2.41C19.84-2.30 19.84-2.12 19.72-1.98C19.59-1.85 19.41-1.86 19.29-1.98ZM15.67-2.11C15.30-1.98 14.94-2.14 14.81-2.46L12.84-7.24L10.93-5.29C10.75-5.09 10.44-5.20 10.44-5.47L10.34-10.13L14.89-5.57L16.01-2.96C16.15-2.63 16.00-2.26 15.67-2.11Z" fill="currentColor"/>
</svg>