<svg xmlns="http://www.w3.org/2000/svg" viewBox="0 0 24 24" width="24" height="24">
  
  <path transform="matrix(0.7213299520991828, 0, 0, 0.7213299520991828, 2.7017049289685926, 18.10312764158918)" d="M7.88 4.27L16.23 4.27C16.55 4.93 17.37 5.40 18.32 5.40C19.41 5.40 20.40 4.62 20.60 3.62C22.01 3.56 22.79 2.55 22.79 1.32C22.79 0.21 22.04-0.68 21-0.81C21.06-1.65 20.78-2.40 20.27-2.94L21.80-10.98C22.05-12.38 21.59-13.50 20.60-14.12C21.26-14.66 21.68-15.48 21.68-16.39C21.68-18 20.37-19.32 18.75-19.32C18.56-20.41 17.60-21.23 16.45-21.23C15.73-21.23 15.07-20.89 14.64-20.38C14.16-20.58 13.55-20.58 13.00-20.43C12.62-21.56 11.63-22.32 10.45-22.32C9.26-22.32 8.25-21.66 8.02-20.77C6.90-21.05 5.75-20.25 5.75-18.87C4.35-18.87 3.16-17.55 3.16-16.13C3.16-15.21 3.50-14.47 4.09-14.00C3.22-13.37 2.81-12.29 3.06-10.98L5.64 2.60C5.86 3.80 6.63 4.27 7.88 4.27ZM12.43-15.23C10.77-15.23 9.42-14.31 9.08-12.97C8.48-14.10 7.51-14.64 6.29-14.64C5.68-14.64 5.13-14.53 4.66-14.33C4.09-14.67 3.75-15.32 3.75-16.13C3.75-17.24 4.65-18.34 6.35-18.34C5.95-19.49 6.97-20.65 8.33-20.19C8.46-21.01 9.28-21.75 10.45-21.75C11.55-21.75 12.55-20.88 12.56-19.64C13.23-20.18 14.39-20.06 14.81-19.58C15.14-20.27 15.76-20.66 16.45-20.66C17.48-20.66 18.33-19.77 18.18-18.67C19.72-19.04 21.11-17.88 21.11-16.39C21.11-15.55 20.66-14.82 20.00-14.40C19.58-14.55 19.10-14.64 18.56-14.64C17.34-14.64 16.37-14.10 15.77-12.97C15.45-14.31 14.10-15.23 12.43-15.23ZM10.84 3.69L9.46-11.51C9.29-13.38 10.51-14.66 12.43-14.66C14.36-14.66 15.56-13.38 15.40-11.51L14.43-0.68C13.80-0.21 13.41 0.50 13.41 1.28C13.41 2.73 14.59 3.79 16.08 3.68L16.08 3.69ZM15.96-11.54C16.11-13.16 17.23-14.06 18.56-14.06C20.48-14.06 21.60-12.80 21.25-11.00L19.78-3.34C19.37-3.60 18.87-3.75 18.32-3.75C16.83-3.75 15.66-2.63 15.68-1.21C15.45-1.17 15.22-1.11 15.02-1.03ZM7.86 3.69C6.94 3.69 6.36 3.39 6.20 2.50L3.61-11.00C3.27-12.80 4.37-14.06 6.29-14.06C7.63-14.06 8.74-13.16 8.89-11.54L10.25 3.69ZM18.32 4.82C17.14 4.82 16.41 4.05 16.64 3.07C15.15 3.38 13.99 2.60 13.99 1.28C13.99 0.20 14.98-0.68 16.24-0.73C16.03-2.10 16.93-3.16 18.32-3.16C19.78-3.16 20.70-1.96 20.39-0.42C21.47-0.36 22.21 0.38 22.21 1.32C22.21 2.46 21.57 3.18 20.14 3.08C20.06 4.05 19.28 4.82 18.32 4.82Z" fill="currentColor"/>
</svg>