<svg xmlns="http://www.w3.org/2000/svg" viewBox="0 0 24 24" width="24" height="24">
  <title>power</title>
  <path transform="matrix(0.8520552504576469, 0, 0, 0.8520552504576469, 0.5371942086869694, 19.533699450823764)" d="M13.45-8.73C13.62-8.73 13.75-8.86 13.75-9.02L13.75-20.30C13.75-20.45 13.62-20.58 13.45-20.58C13.30-20.58 13.17-20.45 13.17-20.30L13.17-9.02C13.17-8.86 13.30-8.73 13.45-8.73ZM13.45 2.89C19.73 2.89 24.81-2.19 24.81-8.46C24.81-12.49 22.78-15.48 20.68-17.23C20.33-17.52 19.98-17.05 20.31-16.78C22.76-14.75 24.23-11.80 24.23-8.46C24.23-2.50 19.42 2.32 13.45 2.32C7.49 2.32 2.67-2.50 2.67-8.46C2.67-11.80 4.16-14.75 6.60-16.78C6.94-17.05 6.57-17.52 6.23-17.23C4.13-15.48 2.10-12.49 2.10-8.46C2.10-2.19 7.18 2.89 13.45 2.89Z" fill="currentColor"/>
</svg>