<svg xmlns="http://www.w3.org/2000/svg" viewBox="0 0 24 24" width="24" height="24">
  
  <path transform="matrix(0.9752380952380952, 0, 0, 0.9752380952380952, -0.9142857142857141, 20.251428571428573)" d="M6 1.79L20.48 1.79C22.44 1.79 23.50 0.71 23.50-1.22L23.50-15.70C23.50-17.64 22.44-18.71 20.48-18.71L6-18.71C4.03-18.71 2.99-17.67 2.99-15.70L2.99-1.22C2.99 0.75 4.03 1.79 6 1.79ZM13.24-2.58C9.98-2.58 7.36-5.20 7.36-8.46C7.36-11.72 9.98-14.34 13.24-14.34C16.50-14.34 19.13-11.72 19.13-8.46C19.13-5.20 16.50-2.58 13.24-2.58ZM10.46-7.35C11.07-7.35 11.58-7.85 11.58-8.46C11.58-9.07 11.07-9.57 10.46-9.57C9.86-9.57 9.34-9.07 9.34-8.46C9.34-7.85 9.86-7.35 10.46-7.35ZM16.02-7.35C16.63-7.35 17.13-7.85 17.13-8.46C17.13-9.07 16.63-9.57 16.02-9.57C15.41-9.57 14.91-9.07 14.91-8.46C14.91-7.85 15.41-7.35 16.02-7.35ZM13.22-4.41C13.82-4.41 14.30-4.89 14.30-5.48L14.30-6.05C14.30-6.16 14.23-6.21 14.13-6.21L12.34-6.21C12.23-6.21 12.18-6.16 12.18-6.05L12.18-5.48C12.18-4.89 12.64-4.41 13.22-4.41Z" fill="currentColor"/>
</svg>