<svg xmlns="http://www.w3.org/2000/svg" viewBox="0 0 24 24" width="24" height="24">
  
  <path transform="matrix(0.7832338993422059, 0, 0, 0.7832338993422059, -0.34052317576870106, 18.631482331344653)" d="M2.99 0.55L11.81 0.55C13.91 0.55 15.45-0.62 15.45-2.72C15.45-4.82 13.91-6.12 11.81-6.12L6.68-6.12C4.80-6.12 3.56-7.27 3.56-8.94C3.56-10.63 4.90-11.65 6.68-11.65L11.86-11.65L11.86-10.46C11.86-9.91 12.27-9.52 12.84-9.52L15.22-9.52C16.28-9.52 16.76-9.12 17.54-8.33C19.01-6.88 20.02-6.39 21.60-6.39L23.45-6.39C24.05-6.39 24.46-6.77 24.46-7.35L24.46-8.85L27.88-8.85C28.24-8.85 28.52-9.14 28.52-9.49C28.52-9.87 28.24-10.16 27.88-10.16L24.46-10.16L24.46-13.70L27.88-13.70C28.24-13.70 28.52-13.98 28.52-14.36C28.52-14.72 28.24-15.02 27.88-15.02L24.46-15.02L24.46-16.58C24.46-17.11 24.05-17.48 23.45-17.48L21.60-17.48C20.00-17.48 19.00-16.99 17.54-15.52C16.76-14.72 16.28-14.33 15.22-14.33L12.84-14.33C12.27-14.33 11.86-13.96 11.86-13.39L11.86-12.22L6.62-12.22C4.52-12.22 2.99-11.05 2.99-8.94C2.99-6.86 4.52-5.54 6.62-5.54L11.75-5.54C13.63-5.54 14.87-4.41 14.87-2.72C14.87-1.04 13.54-0.02 11.75-0.02L2.99-0.02Z" fill="currentColor"/>
</svg>