<svg xmlns="http://www.w3.org/2000/svg" viewBox="0 0 24 24" width="24" height="24">
  
  <path transform="matrix(0.8806329549363605, 0, 0, 0.8806329549363605, 0.15273477812177494, 19.45098039215686)" d="M13.45 2.89C19.73 2.89 24.81-2.19 24.81-8.46C24.81-14.74 19.73-19.82 13.45-19.82C7.18-19.82 2.10-14.74 2.10-8.46C2.10-2.19 7.18 2.89 13.45 2.89ZM13.45 2.32C7.49 2.32 2.67-2.50 2.67-8.46C2.67-14.43 7.49-19.24 13.45-19.24C19.42-19.24 24.23-14.43 24.23-8.46C24.23-2.50 19.42 2.32 13.45 2.32ZM13.45-12.64C14.27-12.64 14.95-13.31 14.95-14.13C14.95-14.95 14.27-15.63 13.45-15.63C12.63-15.63 11.95-14.95 11.95-14.13C11.95-13.31 12.63-12.64 13.45-12.64ZM8.17-6.38C9.32-6.38 10.27-7.31 10.27-8.46C10.27-9.61 9.32-10.56 8.17-10.56C7.02-10.56 6.08-9.61 6.08-8.46C6.08-7.31 7.02-6.38 8.17-6.38ZM18.74-6.38C19.89-6.38 20.82-7.31 20.82-8.46C20.82-9.61 19.89-10.56 18.74-10.56C17.59-10.56 16.64-9.61 16.64-8.46C16.64-7.31 17.59-6.38 18.74-6.38Z" fill="currentColor"/>
</svg>