<svg xmlns="http://www.w3.org/2000/svg" viewBox="0 0 24 24" width="24" height="24">
  
  <path transform="matrix(0.8065532451165721, 0, 0, 0.8065532451165721, -0.4102079395085063, 18.729678638941397)" d="M7.48-17.06L23.31-17.06L23.31-17.74C23.31-19.46 22.54-20.20 20.84-20.20L9.94-20.20C8.24-20.20 7.48-19.46 7.48-17.74ZM9.96 3.52L20.81 3.52C22.54 3.52 23.32 2.77 23.32 1.04L23.32-0.06L25.02-0.06C26.87-0.06 27.79-0.95 27.79-2.81L27.79-13.57C27.79-15.43 26.87-16.32 25.02-16.32L5.75-16.32C3.91-16.32 2.99-15.43 2.99-13.57L2.99-2.81C2.99-0.95 3.91-0.06 5.75-0.06L7.46-0.06L7.46 1.04C7.46 2.77 8.24 3.52 9.96 3.52ZM20.68-13.14C20.68-13.83 21.29-14.45 22.03-14.45C22.71-14.45 23.32-13.83 23.32-13.14C23.32-12.42 22.71-11.79 22.03-11.82C21.29-11.86 20.68-12.38 20.68-13.14ZM9.95 2.95C8.55 2.95 8.06 2.45 8.06 1.05L8.06-8.02C8.06-9.41 8.58-9.94 9.96-9.94L20.81-9.94C22.21-9.94 22.71-9.41 22.71-8.02L22.71 1.05C22.71 2.45 22.22 2.95 20.82 2.95ZM11.09-6.26C11.59-6.26 12-6.64 12-7.16C12-7.66 11.59-8.05 11.09-8.05C10.59-8.05 10.20-7.66 10.20-7.16C10.20-6.64 10.59-6.26 11.09-6.26ZM19.73-6.26C20.25-6.26 20.65-6.64 20.65-7.16C20.65-7.66 20.25-8.05 19.73-8.05C19.24-8.05 18.84-7.66 18.84-7.16C18.84-6.64 19.24-6.26 19.73-6.26ZM11.09-2.44C11.59-2.44 12-2.82 12-3.33C12-3.83 11.59-4.22 11.09-4.22C10.59-4.22 10.20-3.83 10.20-3.33C10.20-2.82 10.59-2.44 11.09-2.44ZM19.73-2.44C20.25-2.44 20.65-2.82 20.65-3.33C20.65-3.83 20.25-4.22 19.73-4.22C19.24-4.22 18.84-3.83 18.84-3.33C18.84-2.82 19.24-2.44 19.73-2.44ZM11.09 1.39C11.59 1.39 12 1.01 12 0.49C12-0.01 11.59-0.40 11.09-0.40C10.59-0.40 10.20-0.01 10.20 0.49C10.20 1.01 10.59 1.39 11.09 1.39ZM19.73 1.39C20.25 1.39 20.65 1.01 20.65 0.49C20.65-0.01 20.25-0.40 19.73-0.40C19.24-0.40 18.84-0.01 18.84 0.49C18.84 1.01 19.24 1.39 19.73 1.39Z" fill="currentColor"/>
</svg>