<svg xmlns="http://www.w3.org/2000/svg" viewBox="0 0 24 24" width="24" height="24">
  
  <path transform="matrix(0.8806329549363605, 0, 0, 0.8806329549363605, 0.15273477812177494, 19.45098039215686)" d="M13.45 2.89C19.70 2.89 24.81-2.21 24.81-8.46C24.81-14.71 19.70-19.82 13.45-19.82C7.21-19.82 2.10-14.71 2.10-8.46C2.10-2.21 7.21 2.89 13.45 2.89ZM8.74-5.26C8.74-5.41 8.87-5.54 9.01-5.54C9.08-5.54 9.18-5.51 9.23-5.44L9.93-4.73L11.25-3.40L11.24-5.85L11.24-10.45C11.24-12.87 12.60-14.40 14.73-14.40C16.80-14.40 18.20-12.95 18.20-10.77C18.20-8.70 16.84-7.31 14.84-7.31C14.37-7.31 13.95-7.42 13.77-7.57C13.70-7.63 13.66-7.72 13.66-7.80C13.66-7.95 13.77-8.05 13.91-8.05C14.13-8.05 14.30-7.86 14.82-7.86C16.52-7.86 17.65-9.04 17.65-10.77C17.65-12.62 16.48-13.86 14.73-13.86C12.91-13.86 11.80-12.56 11.80-10.44L11.80-5.85L11.77-3.40L13.11-4.73L13.80-5.44C13.86-5.51 13.93-5.54 14.00-5.54C14.17-5.54 14.29-5.41 14.29-5.26C14.29-5.18 14.26-5.12 14.19-5.05L11.79-2.67C11.71-2.59 11.63-2.55 11.51-2.55C11.39-2.55 11.30-2.59 11.21-2.67L8.84-5.05C8.79-5.11 8.74-5.18 8.74-5.26Z" fill="currentColor"/>
</svg>