<svg xmlns="http://www.w3.org/2000/svg" viewBox="0 0 24 24" width="24" height="24">
  <title>questionmark.diamond</title>
  <path transform="matrix(0.7960591176664524, 0, 0, 0.7960591176664524, 0.10624998961379095, 18.73366983284717)" d="M3.43-6.33L12.82 3.06C14.23 4.46 15.71 4.43 17.09 3.06L26.45-6.33C27.82-7.70 27.88-9.19 26.47-10.59L17.10-19.97C15.68-21.39 14.23-21.35 12.82-19.96L3.43-10.59C2.03-9.19 2.03-7.73 3.43-6.33ZM3.83-6.70C2.68-7.83 2.71-9.06 3.83-10.20L13.20-19.56C14.33-20.70 15.54-20.70 16.69-19.56L26.03-10.21C27.14-9.09 27.19-7.83 26.05-6.70L16.68 2.65C15.54 3.79 14.31 3.76 13.20 2.65ZM14.75-6.14C14.92-6.14 15.04-6.28 15.04-6.47L15.04-6.90C15.04-7.66 15.35-8.12 16.31-8.78C17.55-9.63 17.98-10.32 17.98-11.37C17.98-12.73 16.75-13.77 14.98-13.77C13.20-13.77 12.06-12.68 11.93-11.44C11.92-11.30 11.92-11.20 11.92-11.04C11.92-10.83 12.04-10.71 12.21-10.71C12.39-10.71 12.52-10.82 12.52-10.99L12.50-11.13C12.50-12.15 13.51-13.21 14.94-13.21C16.43-13.21 17.37-12.41 17.37-11.32C17.37-10.51 16.98-9.97 15.81-9.16C14.80-8.45 14.45-7.85 14.45-6.95L14.45-6.47C14.45-6.28 14.58-6.14 14.75-6.14ZM14.73-3.11C15.15-3.11 15.47-3.46 15.47-3.84C15.47-4.24 15.15-4.58 14.73-4.58C14.32-4.58 13.99-4.24 13.99-3.84C13.99-3.46 14.32-3.11 14.73-3.11Z" fill="currentColor"/>
</svg>