<svg xmlns="http://www.w3.org/2000/svg" viewBox="0 0 24 24" width="24" height="24">
  
  <path transform="matrix(0.7825156655968211, 0, 0, 0.7825156655968211, -0.33837689133425064, 18.63457129756992)" d="M6 1.66L25.54 1.66C27.50 1.66 28.55 0.60 28.55-1.34L28.55-13.43C28.55-15.36 27.50-16.44 25.54-16.44L14.05-16.44C12.96-16.44 12.52-16.56 11.86-17.19L11.26-17.75C10.50-18.49 10.10-18.62 8.88-18.62L5.57-18.62C3.83-18.62 2.99-17.78 2.99-16.07L2.99-1.34C2.99 0.62 4.03 1.66 6 1.66ZM6.02 1.09C4.41 1.09 3.56 0.26 3.56-1.37L3.56-16.00C3.56-17.40 4.24-18.08 5.64-18.08L8.80-18.08C9.82-18.08 10.24-17.94 10.95-17.27L11.54-16.70C12.23-16.04 12.74-15.87 13.97-15.87L25.51-15.87C27.07-15.87 27.97-15.02 27.97-13.39L27.97-1.37C27.97 0.26 27.07 1.09 25.51 1.09ZM15.57-5.06C15.75-5.06 15.87-5.19 15.87-5.38L15.87-5.82C15.87-6.59 16.17-7.04 17.13-7.70C18.39-8.55 18.81-9.25 18.81-10.29C18.81-11.65 17.58-12.70 15.80-12.70C14.02-12.70 12.89-11.60 12.75-10.36C12.74-10.23 12.74-10.13 12.74-9.96C12.74-9.75 12.86-9.63 13.03-9.63C13.21-9.63 13.34-9.74 13.34-9.91L13.34-10.05C13.32-11.07 14.33-12.14 15.77-12.14C17.26-12.14 18.19-11.34 18.19-10.24C18.19-9.43 17.80-8.89 16.63-8.09C15.63-7.37 15.27-6.77 15.27-5.87L15.27-5.38C15.27-5.19 15.40-5.06 15.57-5.06ZM15.56-2.02C15.97-2.02 16.30-2.37 16.30-2.75C16.30-3.15 15.97-3.49 15.56-3.49C15.15-3.49 14.82-3.15 14.82-2.75C14.82-2.37 15.15-2.02 15.56-2.02Z" fill="currentColor"/>
</svg>