<svg xmlns="http://www.w3.org/2000/svg" viewBox="0 0 24 24" width="24" height="24">
  <title>quote.opening</title>
  <path transform="matrix(0.8374223094537128, 0, 0, 0.8374223094537128, -0.5024533856722275, 19.080471050049066)" d="M13.83-6.08C13.83-8.95 11.68-11.32 8.78-11.32C7.25-11.32 5.65-10.69 4.43-9.11L4.14-9.11C4.51-11.43 6.64-14.43 10.44-15.15C10.64-15.19 10.85-15.21 10.97-15.22C11.20-15.26 11.44-15.38 11.44-15.62C11.44-15.90 11.21-16.05 10.90-16.05C10.50-16.05 10.08-15.96 9.69-15.86C7.97-15.41 6.46-14.52 5.33-13.29C3.87-11.74 2.99-9.67 2.99-7.28C2.99-3.20 5.57-0.86 8.59-0.86C11.59-0.86 13.83-3.14 13.83-6.08ZM26.87-6.08C26.87-8.95 24.71-11.32 21.81-11.32C20.30-11.32 18.67-10.69 17.47-9.11L17.17-9.11C17.54-11.43 19.66-14.43 23.47-15.15C23.66-15.19 23.87-15.21 23.99-15.22C24.25-15.26 24.46-15.38 24.46-15.62C24.46-15.90 24.25-16.05 23.94-16.05C23.52-16.05 23.11-15.96 22.71-15.86C20.99-15.41 19.49-14.52 18.35-13.29C16.90-11.74 16.03-9.67 16.03-7.28C16.03-3.20 18.60-0.86 21.63-0.86C24.62-0.86 26.87-3.14 26.87-6.08Z" fill="currentColor"/>
</svg>