<svg xmlns="http://www.w3.org/2000/svg" viewBox="0 0 24 24" width="24" height="24">
  <title>r.joystick.fill</title>
  <path transform="matrix(0.8676495509235723, 0, 0, 0.8676495509235723, 0.17996949669547524, 18.456532791052364)" d="M13.62-2.25C20.82-2.25 25.15-5.50 25.15-9.52C25.15-13.54 20.82-16.78 13.61-16.78C6.42-16.78 2.10-13.54 2.10-9.52C2.10-5.50 6.42-2.25 13.62-2.25ZM11.64-6.02C11.47-6.02 11.36-6.14 11.36-6.29L11.36-12.97C11.36-13.16 11.46-13.28 11.61-13.28L13.80-13.28C15.09-13.28 16.01-12.39 16.01-11.16C16.01-10.13 15.38-9.33 14.39-9.11L15.89-6.53C15.95-6.43 16.00-6.38 16.00-6.27C16.00-6.12 15.88-6.02 15.73-6.02C15.60-6.02 15.53-6.09 15.46-6.22L13.82-9.05L11.92-9.05L11.92-6.29C11.92-6.14 11.79-6.02 11.64-6.02ZM11.92-9.59L13.83-9.59C14.79-9.59 15.43-10.22 15.43-11.16C15.43-12.11 14.79-12.73 13.83-12.73L11.92-12.73ZM13.62 1.90C16.36 1.90 17.98 0.80 17.98-1.07L17.98-1.80C16.64-1.52 15.19-1.37 13.62-1.37C12.07-1.37 10.61-1.52 9.27-1.80L9.27-1.07C9.27 0.80 10.89 1.90 13.62 1.90Z" fill="currentColor"/>
</svg>