<svg xmlns="http://www.w3.org/2000/svg" viewBox="0 0 24 24" width="24" height="24">
  
  <path transform="matrix(0.759403844052758, 0, 0, 0.759403844052758, 0.4070317802487069, 18.425268461790132)" d="M13.90-20.26C7.39-20.26 2.10-15 2.10-8.46C2.10-1.95 7.37 3.34 13.90 3.34C19.31 3.34 23.91-0.33 25.27-5.30C25.07-5.34 24.90-5.44 24.74-5.55C23.45-0.74 19.08 2.77 13.90 2.77C7.68 2.77 2.67-2.26 2.67-8.46C2.67-14.68 7.69-19.69 13.90-19.69C19.09-19.69 23.45-16.18 24.74-11.38C24.90-11.51 25.08-11.58 25.27-11.63C23.88-16.61 19.31-20.26 13.90-20.26ZM13.90 0.40C18.80 0.40 22.76-3.56 22.76-8.46C22.76-13.36 18.80-17.32 13.90-17.32C8.99-17.32 5.04-13.36 5.04-8.46C5.04-3.56 8.99 0.40 13.90 0.40ZM13.90-0.18C9.30-0.18 5.61-3.88 5.61-8.46C5.61-13.04 9.30-16.75 13.90-16.75C18.48-16.75 22.18-13.04 22.18-8.46C22.18-3.88 18.48-0.18 13.90-0.18ZM11.64-4.01C11.80-4.01 11.92-4.14 11.92-4.29L11.92-7.78L14.41-7.78L16.48-4.21C16.56-4.07 16.64-4.01 16.78-4.01C16.93-4.01 17.04-4.10 17.04-4.25C17.04-4.34 17.02-4.41 16.93-4.52L14.98-7.84C16.25-8.09 17.05-9.05 17.05-10.37C17.05-11.88 15.95-12.96 14.34-12.96L11.60-12.96C11.45-12.96 11.33-12.83 11.33-12.66L11.33-4.29C11.33-4.14 11.47-4.01 11.64-4.01ZM11.92-8.33L11.92-12.41L14.39-12.41C15.63-12.41 16.49-11.60 16.49-10.37C16.49-9.15 15.63-8.33 14.39-8.33ZM25.89-10.65C25.57-10.89 25.13-10.73 25.13-10.35L25.13-6.59C25.13-6.19 25.57-6.04 25.89-6.27L28.22-8.03C28.50-8.25 28.51-8.67 28.22-8.89Z" fill="currentColor"/>
</svg>