<svg xmlns="http://www.w3.org/2000/svg" viewBox="0 0 24 24" width="24" height="24">
  
  <path transform="matrix(0.7775246772968869, 0, 0, 0.7775246772968869, -0.3234624145785876, 18.57858769931663)" d="M10.80 1.29L20.89 1.29C26.99 1.29 28.71-1.01 28.71-6.53L28.71-10.39C28.71-15.91 26.99-18.21 20.89-18.21L10.80-18.21C4.71-18.21 2.99-15.91 2.99-10.39L2.99-6.53C2.99-1.01 4.71 1.29 10.80 1.29ZM20.34-3.62C20.14-3.62 20.02-3.77 20.02-3.97L20.02-6.02L16.88-6.02C16.57-6.02 16.39-6.21 16.39-6.47C16.39-6.63 16.44-6.79 16.52-6.97L19.50-12.82C19.66-13.15 19.83-13.35 20.16-13.35C20.39-13.35 20.67-13.24 20.67-12.81L20.67-6.62L21.47-6.62C21.62-6.62 21.77-6.50 21.77-6.33C21.77-6.14 21.66-6.02 21.47-6.02L20.67-6.02L20.67-3.97C20.67-3.80 20.52-3.62 20.34-3.62ZM10.58-3.68C10.38-3.68 10.24-3.83 10.24-4.03L10.24-12.91C10.24-13.14 10.36-13.27 10.57-13.27L12.48-13.27C14.16-13.27 15.06-12.19 15.06-10.59C15.06-9.20 14.37-8.34 13.42-8.04L15.09-4.18C15.13-4.13 15.14-4.05 15.14-4.00C15.14-3.83 15.01-3.68 14.80-3.68C14.65-3.68 14.54-3.74 14.47-3.89L12.76-7.86L10.92-7.86L10.92-4.03C10.92-3.83 10.79-3.68 10.58-3.68ZM10.92-8.47L12.42-8.47C13.76-8.47 14.38-9.36 14.38-10.58C14.38-11.94 13.59-12.64 12.41-12.64L10.92-12.64ZM20.02-6.62L20.02-12.52L19.97-12.52L17.04-6.64L17.04-6.62Z" fill="currentColor"/>
</svg>