<svg xmlns="http://www.w3.org/2000/svg" viewBox="0 0 24 24" width="24" height="24">
  <title>recordingtape.circle</title>
  <path transform="matrix(0.8806329549363605, 0, 0, 0.8806329549363605, 0.15273477812177494, 19.45098039215686)" d="M13.45 2.89C19.73 2.89 24.81-2.19 24.81-8.46C24.81-14.74 19.73-19.82 13.45-19.82C7.18-19.82 2.10-14.74 2.10-8.46C2.10-2.19 7.18 2.89 13.45 2.89ZM13.45 2.32C7.49 2.32 2.67-2.50 2.67-8.46C2.67-14.43 7.49-19.24 13.45-19.24C19.42-19.24 24.23-14.43 24.23-8.46C24.23-2.50 19.42 2.32 13.45 2.32ZM6.18-8.46C6.18-6.67 7.63-5.21 9.42-5.21L17.50-5.21C19.29-5.21 20.75-6.67 20.75-8.46C20.75-10.25 19.29-11.72 17.50-11.72C15.70-11.72 14.26-10.25 14.26-8.46C14.26-7.38 14.78-6.40 15.63-5.79L11.27-5.79C12.13-6.40 12.66-7.38 12.66-8.46C12.66-10.25 11.21-11.72 9.42-11.72C7.63-11.72 6.18-10.25 6.18-8.46ZM6.75-8.46C6.75-9.94 7.95-11.13 9.42-11.13C10.88-11.13 12.07-9.94 12.07-8.46C12.07-7.00 10.88-5.80 9.42-5.80C7.95-5.80 6.75-7.00 6.75-8.46ZM14.85-8.46C14.85-9.94 16.03-11.13 17.50-11.13C18.96-11.13 20.18-9.94 20.18-8.46C20.18-7.00 18.96-5.80 17.50-5.80C16.04-5.80 14.85-7.00 14.85-8.46Z" fill="currentColor"/>
</svg>