<svg xmlns="http://www.w3.org/2000/svg" viewBox="0 0 24 24" width="24" height="24">
  
  <path transform="matrix(0.6898410132039882, 0, 0, 0.6898410132039882, 1.2643492320129344, 17.84074373484236)" d="M6.04 1.24C4.41 1.24 3.56 0.40 3.56-1.22L3.56-4.91C5.12-3.34 7.28-2.37 9.64-2.37C11.74-2.37 13.66-3.12 15.15-4.37L21.90 2.41C22.01 2.51 22.17 2.60 22.35 2.60C22.77 2.60 23.00 2.27 23.00 1.95C23.00 1.78 22.95 1.63 22.82 1.50L16.07-5.26C17.41-6.77 18.23-8.78 18.23-10.95C18.23-13.93 16.70-16.57 14.37-18.11L27.01-18.11C28.58-18.11 29.48-17.27 29.48-15.64L29.48-1.22C29.48 0.40 28.58 1.24 27.01 1.24L23.44 1.24C23.53 1.42 23.59 1.62 23.59 1.82L27.05 1.82C29.02 1.82 30.06 0.75 30.06-1.20L30.06-15.67C30.06-17.61 29.02-18.68 27.05-18.68L13.36-18.68C12.23-19.23 10.98-19.54 9.64-19.54C4.93-19.54 1.07-15.67 1.07-10.95C1.07-8.91 1.78-7.02 2.99-5.54L2.99-1.20C2.99 0.77 4.03 1.82 6 1.82L20.60 1.82L20.03 1.24ZM1.63-10.95C1.63-15.35 5.25-18.96 9.64-18.96C14.05-18.96 17.66-15.35 17.66-10.95C17.66-6.55 14.05-2.93 9.64-2.93C5.25-2.93 1.63-6.55 1.63-10.95ZM5.70-12L13.61-12C13.76-12 13.89-12.13 13.89-12.29C13.89-12.45 13.76-12.59 13.61-12.59L5.70-12.59C5.53-12.59 5.40-12.45 5.40-12.29C5.40-12.13 5.53-12 5.70-12ZM5.70-9.32L11.36-9.32C11.51-9.32 11.65-9.45 11.65-9.61C11.65-9.76 11.51-9.89 11.36-9.89L5.70-9.89C5.53-9.89 5.40-9.76 5.40-9.61C5.40-9.45 5.53-9.32 5.70-9.32Z" fill="currentColor"/>
</svg>