<svg xmlns="http://www.w3.org/2000/svg" viewBox="0 0 24 24" width="24" height="24">
  <title>rectangle.on.rectangle.square.fill</title>
  <path transform="matrix(0.9752380952380952, 0, 0, 0.9752380952380952, -0.9142857142857141, 20.251428571428573)" d="M6 1.79L20.48 1.79C22.44 1.79 23.50 0.71 23.50-1.22L23.50-15.70C23.50-17.64 22.44-18.71 20.48-18.71L6-18.71C4.03-18.71 2.99-17.67 2.99-15.70L2.99-1.22C2.99 0.75 4.03 1.79 6 1.79ZM8.46-10.32L8.46-5.39L7.78-5.39C6.89-5.39 6.41-5.89 6.41-6.77L6.41-12.54C6.41-13.44 6.89-13.91 7.78-13.91L16.25-13.91C17.17-13.91 17.63-13.42 17.63-12.54L17.63-12.06L10.20-12.07C9.06-12.07 8.46-11.46 8.46-10.32ZM10.23-3.16C9.33-3.16 8.86-3.63 8.86-4.54L8.86-10.30C8.86-11.18 9.33-11.67 10.23-11.67L18.70-11.67C19.61-11.67 20.07-11.18 20.07-10.30L20.07-4.54C20.07-3.63 19.61-3.16 18.70-3.16Z" fill="currentColor"/>
</svg>