<svg xmlns="http://www.w3.org/2000/svg" viewBox="0 0 24 24" width="24" height="24">
  <title>restart.circle</title>
  <path transform="matrix(0.8806329549363605, 0, 0, 0.8806329549363605, 0.15273477812177494, 19.45098039215686)" d="M13.45 2.89C19.73 2.89 24.81-2.19 24.81-8.46C24.81-14.74 19.73-19.82 13.45-19.82C7.18-19.82 2.10-14.74 2.10-8.46C2.10-2.19 7.18 2.89 13.45 2.89ZM13.45 2.32C7.49 2.32 2.67-2.50 2.67-8.46C2.67-14.43 7.49-19.24 13.45-19.24C19.42-19.24 24.23-14.43 24.23-8.46C24.23-2.50 19.42 2.32 13.45 2.32ZM8.48-9.20C7.91-8.85 7.91-8.10 8.48-7.73L15.21-3.66C15.77-3.32 16.48-3.64 16.48-4.27L16.48-12.73C16.48-13.34 15.77-13.66 15.21-13.32ZM8.77-8.71L15.52-12.86C15.76-13.01 15.90-12.88 15.90-12.75L15.90-4.24C15.90-4.10 15.76-3.98 15.52-4.14L8.77-8.24C8.57-8.36 8.57-8.58 8.77-8.71Z" fill="currentColor"/>
</svg>