<svg xmlns="http://www.w3.org/2000/svg" viewBox="0 0 24 24" width="24" height="24">
  <title>retarder.brakesignal.and.exclamationmark</title>
  <path transform="matrix(0.5801042374801723, 0, 0, 0.5801042374801723, 0.7831407205982324, 16.91162474507138)" d="M16.79 2.37C22.77 2.37 27.63-2.48 27.63-8.46C27.63-14.44 22.77-19.30 16.79-19.30C10.82-19.30 5.96-14.44 5.96-8.46C5.96-2.48 10.82 2.37 16.79 2.37ZM16.79 1.79C11.13 1.79 6.53-2.80 6.53-8.46C6.53-14.12 11.13-18.73 16.79-18.73C22.45-18.73 27.06-14.12 27.06-8.46C27.06-2.80 22.45 1.79 16.79 1.79ZM31.49-8.46C31.49-11.95 30.26-15.15 28.24-17.68C28.15-17.81 27.96-17.82 27.83-17.72C27.71-17.63 27.69-17.45 27.80-17.32C29.75-14.89 30.91-11.81 30.91-8.46C30.91-5.11 29.75-2.03 27.80 0.38C27.69 0.53 27.70 0.69 27.83 0.80C27.97 0.91 28.13 0.90 28.24 0.75C30.26-1.76 31.49-4.97 31.49-8.46ZM2.10-8.46C2.10-4.97 3.33-1.76 5.34 0.75C5.46 0.90 5.61 0.91 5.75 0.80C5.88 0.69 5.91 0.53 5.79 0.38C3.84-2.03 2.67-5.11 2.67-8.46C2.67-11.81 3.84-14.89 5.79-17.32C5.91-17.45 5.87-17.63 5.75-17.72C5.63-17.82 5.45-17.81 5.34-17.68C3.33-15.15 2.10-11.95 2.10-8.46ZM35.77-6.12C35.92-6.12 36.05-6.25 36.05-6.41L36.09-15.02C36.09-15.22 35.96-15.35 35.77-15.35C35.57-15.35 35.44-15.22 35.44-15.02L35.47-6.41C35.47-6.25 35.60-6.12 35.77-6.12ZM9.13-8.46C9.13-6.54 10.45-5.19 12.30-5.19C13.43-5.19 14.27-5.77 15.30-6.70L16.80-8.09L18.29-6.70C19.45-5.63 20.25-5.19 21.30-5.19C23.16-5.19 24.50-6.54 24.50-8.46C24.50-10.38 23.16-11.77 21.30-11.77C20.27-11.77 19.46-11.31 18.29-10.22L16.80-8.84L15.30-10.22C14.27-11.17 13.43-11.75 12.30-11.77C10.45-11.77 9.13-10.38 9.13-8.46ZM9.71-8.46C9.71-10.04 10.78-11.18 12.30-11.18C13.15-11.17 13.82-10.80 14.91-9.83L16.41-8.46L14.91-7.11C13.92-6.25 13.23-5.78 12.30-5.78C10.78-5.78 9.71-6.89 9.71-8.46ZM17.20-8.46L18.70-9.83C19.78-10.80 20.46-11.17 21.30-11.18C22.82-11.18 23.92-10.04 23.92-8.46C23.92-6.90 22.83-5.78 21.30-5.78C20.37-5.78 19.68-6.25 18.70-7.11ZM35.77-1.58C36.20-1.58 36.57-1.97 36.57-2.39C36.57-2.85 36.20-3.21 35.77-3.21C35.31-3.21 34.96-2.85 34.96-2.39C34.96-1.97 35.32-1.58 35.77-1.58Z" fill="currentColor"/>
</svg>