<svg xmlns="http://www.w3.org/2000/svg" viewBox="0 0 24 24" width="24" height="24">
  
  <path transform="matrix(0.8507809903622466, 0, 0, 0.8507809903622466, -0.5423728813559325, 19.786640079760716)" d="M26.50-6.53C26.50-6.61 26.46-6.67 26.41-6.73L19.21-13.99C19.15-14.04 19.10-14.07 19.01-14.07C18.84-14.07 18.73-13.95 18.73-13.80C18.73-13.72 18.75-13.63 18.80-13.58L23.16-9.23L25.63-6.77L23.16-6.80L5.78-6.80C4.38-6.80 3.53-7.64 3.53-9.20L3.53-16.54C3.53-17.94 4.37-18.79 5.78-18.79L14.20-18.79C14.37-18.79 14.46-18.90 14.46-19.05C14.46-19.22 14.34-19.32 14.19-19.32L5.78-19.32C4.01-19.32 2.99-18.32 2.99-16.54L2.99-9.20C2.99-7.27 4.01-6.26 5.78-6.26L23.16-6.26L25.63-6.28L23.16-3.82L18.80 0.54C18.75 0.57 18.73 0.67 18.73 0.75C18.73 0.89 18.84 1.02 19.01 1.02C19.10 1.02 19.15 1.00 19.21 0.94L26.41-6.33C26.46-6.39 26.50-6.43 26.50-6.53Z" fill="currentColor"/>
</svg>