<svg xmlns="http://www.w3.org/2000/svg" viewBox="0 0 24 24" width="24" height="24">
  
  <path transform="matrix(0.7007372627422482, 0, 0, 0.7007372627422482, -0.0936065797594754, 17.953529478376524)" d="M13.98-14.65C14.24-14.65 14.36-14.87 14.23-15.05C13.85-15.56 13.37-16.21 13.09-16.56C13.02-16.66 12.88-16.75 12.74-16.75L12.73-16.75C12.57-16.75 12.47-16.61 12.57-16.45C12.84-16.02 13.17-15.45 13.51-14.92C13.61-14.75 13.71-14.65 13.98-14.65ZM3.28-0.25L4.64-0.25C4.93-0.25 5.09-0.35 5.14-0.59C6.49-5.79 6.52-11.12 4.83-16.51C4.79-16.62 4.73-16.66 4.58-16.66L4.20-16.66C4.11-16.66 4.03-16.61 4.07-16.48C5.39-10.72 5.11-5.81 3.02-0.66C2.92-0.39 3.06-0.25 3.28-0.25ZM29.78-0.25L31.15-0.25C31.49-0.25 31.57-0.45 31.51-0.73C29.88-8.13 25.69-13.18 21.41-16.55C21.27-16.65 21.20-16.66 21.07-16.66L20.92-16.66C20.80-16.66 20.71-16.54 20.82-16.41C25.64-11.51 28.10-6.64 29.20-0.66C29.26-0.36 29.43-0.25 29.78-0.25ZM16.46-8.91L16.48-8.91C16.71-8.91 16.92-9.13 16.82-9.42C16.64-9.94 16.43-10.52 16.18-11.12C16.07-11.40 15.94-11.48 15.71-11.48L15.71-11.48C15.53-11.48 15.38-11.36 15.46-11.10C15.68-10.42 15.84-9.84 15.96-9.35C16.04-9.06 16.21-8.91 16.46-8.91ZM17.75-0.25L17.77-0.25C18.05-0.25 18.26-0.46 18.25-0.74C18.14-2.31 17.95-4.07 17.72-5.24C17.67-5.46 17.50-5.60 17.27-5.60L17.26-5.60C17.03-5.60 16.88-5.45 16.92-5.21C17.11-4.07 17.20-2.30 17.24-0.74C17.24-0.46 17.46-0.25 17.75-0.25Z" fill="currentColor"/>
</svg>