<svg xmlns="http://www.w3.org/2000/svg" viewBox="0 0 24 24" width="24" height="24">
  
  <path transform="matrix(0.8806329549363605, 0, 0, 0.8806329549363605, 0.15273477812177494, 19.45098039215686)" d="M10.15-5.16C11.17-5.06 12.28-5.02 13.45-5.02C20.32-5.02 24.81-6.62 24.81-8.46C24.81-14.71 19.70-19.82 13.45-19.82C11.61-19.82 10.01-15.33 10.01-8.46C10.01-7.29 10.05-6.18 10.15-5.16ZM9.57-5.20C9.48-6.23 9.43-7.32 9.43-8.46C9.43-13.91 10.52-18.16 12.08-19.73C6.47-19.05 2.10-14.24 2.10-8.46C2.10-7.00 4.96-5.68 9.57-5.20ZM10.20-4.58C10.68 0.04 11.99 2.89 13.45 2.89C19.23 2.89 24.05-1.48 24.73-7.09C23.16-5.53 18.90-4.44 13.45-4.44C12.32-4.44 11.23-4.49 10.20-4.58ZM9.63-4.64C6.05-5.02 3.38-5.92 2.18-7.08C2.82-1.93 6.93 2.17 12.07 2.81C10.91 1.62 10.01-1.05 9.63-4.64Z" fill="currentColor"/>
</svg>