<svg xmlns="http://www.w3.org/2000/svg" viewBox="0 0 24 24" width="24" height="24">
  
  <path transform="matrix(0.7026211060793194, 0, 0, 0.7026211060793194, -0.09962947715109127, 17.57337634400148)" d="M2.99-7.09C2.99-4.85 3.21-4.03 4.89-3.18L11.51 0.19C13.73 1.32 15.11 1.59 17.58 0.86L27.62-2.11C30.41-2.93 31.45-4.38 31.45-7.09L31.45-14.25C31.45-16.08 30.43-17.13 28.57-17.13L5.86-17.13C4.00-17.13 2.99-16.10 2.99-14.26ZM17.43-4.48C16.04-4.48 15.16-5.33 14.91-6.57C14.87-6.71 14.87-6.80 14.87-6.88C14.87-7.10 14.98-7.27 15.18-7.27C15.33-7.27 15.46-7.20 15.48-6.97C15.60-5.89 16.30-5.09 17.46-5.09C18.59-5.09 19.24-5.92 19.24-7.01C19.24-8.14 18.68-8.64 17.64-9.05L17.03-9.28C15.73-9.79 15-10.46 15-11.87C15-13.28 15.97-14.27 17.33-14.27C18.53-14.27 19.35-13.57 19.68-12.45C19.71-12.33 19.73-12.13 19.73-12C19.73-11.80 19.62-11.66 19.42-11.66C19.24-11.66 19.14-11.75 19.11-11.94C19.00-12.89 18.40-13.64 17.33-13.64C16.27-13.64 15.67-12.90 15.67-11.88C15.67-10.84 16.31-10.30 17.25-9.93L17.85-9.69C19.08-9.20 19.91-8.58 19.91-7.07C19.91-5.57 19.05-4.48 17.43-4.48ZM8.81-4.58C8.61-4.58 8.47-4.72 8.47-4.92L8.47-13.82C8.47-14.04 8.59-14.17 8.80-14.17L10.72-14.17C12.39-14.17 13.30-13.09 13.30-11.50C13.30-10.10 12.61-9.25 11.65-8.94L13.34-5.09C13.36-5.03 13.37-4.96 13.37-4.90C13.37-4.72 13.24-4.58 13.04-4.58C12.88-4.58 12.79-4.63 12.70-4.79L10.99-8.75L9.15-8.75L9.15-4.92C9.15-4.72 9.02-4.58 8.81-4.58ZM21.95-4.61C21.74-4.61 21.62-4.77 21.62-4.97L21.62-13.75C21.62-13.95 21.74-14.09 21.95-14.09L24.14-14.09C25.51-14.09 26.32-13.09 26.32-11.78C26.32-10.77 25.77-9.76 24.93-9.59L24.93-9.54C26.09-9.39 26.68-8.34 26.68-7.16C26.68-5.64 25.77-4.61 24.19-4.61ZM9.15-9.38L10.66-9.38C12-9.38 12.61-10.27 12.61-11.48C12.61-12.84 11.84-13.55 10.64-13.55L9.15-13.55ZM22.28-9.80L23.86-9.80C25.01-9.80 25.63-10.56 25.63-11.71C25.63-12.77 25.07-13.48 24-13.48L22.28-13.48ZM22.28-5.23L24.07-5.23C25.30-5.23 25.99-5.98 25.99-7.21C25.99-8.46 25.24-9.19 23.98-9.19L22.28-9.19Z" fill="currentColor"/>
</svg>