<svg xmlns="http://www.w3.org/2000/svg" viewBox="0 0 24 24" width="24" height="24">
  <title>sailboat.circle</title>
  <path transform="matrix(0.8806329549363605, 0, 0, 0.8806329549363605, 0.15273477812177494, 19.45098039215686)" d="M13.45 2.89C19.73 2.89 24.81-2.19 24.81-8.46C24.81-14.74 19.73-19.82 13.45-19.82C7.18-19.82 2.10-14.74 2.10-8.46C2.10-2.19 7.18 2.89 13.45 2.89ZM13.45 2.32C7.49 2.32 2.67-2.50 2.67-8.46C2.67-14.43 7.49-19.24 13.45-19.24C19.42-19.24 24.23-14.43 24.23-8.46C24.23-2.50 19.42 2.32 13.45 2.32ZM9.16-1.45L16.71-1.45C16.98-1.45 17.24-1.56 17.39-1.77C18.21-2.67 18.62-3.60 18.62-4.01C18.62-4.25 18.47-4.38 18.21-4.36C16.46-4.11 14.58-4.01 12.68-3.96L12.80-5.34C14.40-5.17 16.10-5.26 17.13-5.43C17.79-5.53 18.12-5.78 18.33-6.33C18.70-7.32 18.82-8.19 18.82-9.15C18.82-11.68 17.73-14.47 14.30-16.29C14.18-16.36 14.05-16.38 13.93-16.38C13.55-16.38 13.22-16.09 13.18-15.70L12.93-12.83L8.00-5.95C7.79-5.66 7.90-5.40 8.21-5.38C9.35-5.25 10.99-5.23 12.25-5.31L12.12-3.95C10.75-3.93 9.38-3.93 8.05-3.93C7.75-3.93 7.63-3.68 7.71-3.42L8.18-2.16C8.33-1.71 8.72-1.45 9.16-1.45ZM13.73-15.70C13.75-15.87 13.91-15.87 13.96-15.74C14.33-14.52 14.65-12.89 14.65-11.29C14.65-9.30 14.18-7.35 12.86-5.96Z" fill="currentColor"/>
</svg>