<svg xmlns="http://www.w3.org/2000/svg" viewBox="0 0 24 24" width="24" height="24">
  
  <path transform="matrix(0.7893012679693221, 0, 0, 0.7893012679693221, 0.35472308937449437, 18.681697306046942)" d="M7.36 0.96L10.42 0.96C10.72 0.96 10.93 1.04 11.16 1.27L13.32 3.42C14.36 4.46 15.15 4.46 16.17 3.42L18.35 1.27C18.57 1.04 18.79 0.96 19.09 0.96L22.15 0.96C23.61 0.96 24.18 0.40 24.18-1.07L24.18-4.13C24.18-4.43 24.27-4.64 24.48-4.86L26.64-7.04C27.68-8.06 27.68-8.86 26.64-9.89L24.48-12.06C24.27-12.28 24.18-12.49 24.18-12.80L24.18-15.86C24.18-17.33 23.61-17.88 22.15-17.88L19.09-17.88C18.79-17.88 18.57-17.96 18.35-18.19L16.17-20.34C15.14-21.40 14.36-21.40 13.31-20.34L11.16-18.19C10.95-17.98 10.72-17.88 10.42-17.88L7.36-17.88C5.88-17.88 5.33-17.33 5.33-15.86L5.33-12.80C5.33-12.49 5.24-12.28 5.03-12.06L2.87-9.89C1.83-8.86 1.83-8.06 2.87-7.04L5.03-4.86C5.24-4.64 5.33-4.43 5.33-4.13L5.33-1.07C5.33 0.40 5.88 0.96 7.36 0.96Z" fill="currentColor"/>
</svg>