<svg xmlns="http://www.w3.org/2000/svg" viewBox="0 0 24 24" width="24" height="24">
  <title>sidebar.squares.trailing</title>
  <path transform="matrix(0.7391367114190848, 0, 0, 0.7391367114190848, -0.2087483759203117, 18.253789519272413)" d="M6.89 1.79L26.14 1.79C28.55 1.79 30.05 0.28 30.05-2.11L30.05-14.81C30.05-17.20 28.55-18.71 26.14-18.71L6.89-18.71C4.49-18.71 2.99-17.20 2.99-14.81L2.99-2.11C2.99 0.28 4.49 1.79 6.89 1.79ZM6.91 1.22C4.85 1.22 3.56-0.07 3.56-2.14L3.56-14.79C3.56-16.85 4.85-18.14 6.91-18.14L21.18-18.14L21.18 1.22ZM26.12-18.14C28.18-18.14 29.47-16.85 29.47-14.79L29.47-2.14C29.47-0.07 28.18 1.22 26.12 1.22L21.75 1.22L21.75-18.14ZM26.91-12.25C27.12-12.25 27.25-12.38 27.25-12.55L27.25-15.13C27.25-15.34 27.12-15.46 26.91-15.46L24.30-15.46C24.12-15.46 23.99-15.34 23.99-15.13L23.99-12.55C23.99-12.38 24.12-12.25 24.30-12.25ZM26.91-6.84C27.12-6.84 27.25-6.98 27.25-7.16L27.25-9.74C27.25-9.95 27.12-10.07 26.91-10.07L24.30-10.07C24.12-10.07 23.99-9.95 23.99-9.74L23.99-7.16C23.99-6.98 24.12-6.84 24.30-6.84ZM26.91-1.45C27.12-1.45 27.25-1.58 27.25-1.77L27.25-4.35C27.25-4.55 27.12-4.66 26.91-4.66L24.30-4.66C24.12-4.66 23.99-4.55 23.99-4.35L23.99-1.77C23.99-1.58 24.12-1.45 24.30-1.45Z" fill="currentColor"/>
</svg>