<svg xmlns="http://www.w3.org/2000/svg" viewBox="0 0 24 24" width="24" height="24">
  <title>signpost.right.and.left.fill</title>
  <path transform="matrix(0.884741662346639, 0, 0, 0.884741662346639, 0.9813374805598767, 19.594608605495075)" d="M6.43-3.08L12.19-3.08L12.19 2.14L8.41 2.14C8.26 2.14 8.13 2.27 8.13 2.44C8.13 2.59 8.26 2.72 8.41 2.72L16.51 2.72C16.66 2.72 16.79 2.59 16.79 2.44C16.79 2.27 16.66 2.14 16.51 2.14L12.76 2.14L12.76-3.08L15.60-3.08C16.34-3.08 16.80-3.53 16.80-4.28L16.80-7.97C16.80-8.70 16.34-9.15 15.60-9.15L12.76-9.15L12.76-11.10L18.48-11.10C18.98-11.10 19.30-11.25 19.59-11.51L21.47-13.24C22.07-13.77 22.08-14.47 21.46-15.06L19.59-16.75C19.30-17.03 18.98-17.17 18.48-17.17L12.76-17.17L12.76-19.61C12.76-19.76 12.63-19.89 12.47-19.89C12.32-19.89 12.19-19.76 12.19-19.61L12.19-17.17L9.32-17.17C8.57-17.17 8.11-16.72 8.11-15.97L8.11-12.28C8.11-11.55 8.57-11.10 9.32-11.10L12.19-11.10L12.19-9.15L6.43-9.15C5.92-9.15 5.61-9 5.32-8.73L3.43-7.01C2.85-6.48 2.82-5.78 3.46-5.19L5.32-3.50C5.61-3.22 5.92-3.08 6.43-3.08Z" fill="currentColor"/>
</svg>