<svg xmlns="http://www.w3.org/2000/svg" viewBox="0 0 24 24" width="24" height="24">
  <title>signpost.and.arrowtriangle.up</title>
  <path transform="matrix(0.883367839889579, 0, 0, 0.883367839889579, 1.5548654244306417, 19.474120082815734)" d="M7.50 2.57C7.50 2.73 7.64 2.86 7.78 2.86L15.86 2.86C16.03 2.86 16.15 2.73 16.15 2.57C16.15 2.41 16.03 2.29 15.86 2.29L12.12 2.29L12.12-7.46L18.83-7.46C19.98-7.46 20.66-8.14 20.66-9.26L20.66-14.82C20.66-15.94 19.98-16.61 18.83-16.61L12.12-16.61L12.12-19.50C12.12-19.65 11.99-19.78 11.82-19.78C11.67-19.78 11.54-19.65 11.54-19.50L11.54-16.61L4.82-16.61C3.67-16.61 2.99-15.94 2.99-14.82L2.99-9.26C2.99-8.14 3.67-7.46 4.82-7.46L11.54-7.46L11.54 2.29L7.78 2.29C7.64 2.29 7.50 2.41 7.50 2.57ZM4.82-16.03L18.83-16.03C19.63-16.03 20.09-15.57 20.09-14.82L20.09-9.26C20.09-8.50 19.63-8.05 18.83-8.05L4.82-8.05C4.03-8.05 3.56-8.50 3.56-9.26L3.56-14.82C3.56-15.57 4.03-16.03 4.82-16.03ZM9.07-9.94L14.58-9.94C14.98-9.94 15.15-10.23 14.87-10.63L12.20-14.45C11.95-14.77 11.68-14.77 11.46-14.45L8.80-10.63C8.52-10.23 8.68-9.94 9.07-9.94Z" fill="currentColor"/>
</svg>