<svg xmlns="http://www.w3.org/2000/svg" viewBox="0 0 24 24" width="24" height="24">
  
  <path transform="matrix(0.8806329549363605, 0, 0, 0.8806329549363605, 0.15273477812177494, 19.45098039215686)" d="M13.45 2.89C19.73 2.89 24.81-2.19 24.81-8.46C24.81-14.74 19.73-19.82 13.45-19.82C7.18-19.82 2.10-14.74 2.10-8.46C2.10-2.19 7.18 2.89 13.45 2.89ZM13.45 2.32C7.49 2.32 2.67-2.50 2.67-8.46C2.67-14.43 7.49-19.24 13.45-19.24C19.42-19.24 24.23-14.43 24.23-8.46C24.23-2.50 19.42 2.32 13.45 2.32ZM13.45-4.82C15.47-4.82 17.11-6.46 17.11-8.46C17.11-10.48 15.47-12.12 13.45-12.12C11.45-12.12 9.81-10.48 9.81-8.46C9.81-6.46 11.45-4.82 13.45-4.82ZM13.45-5.37C11.74-5.37 10.37-6.75 10.37-8.46C10.37-10.17 11.74-11.55 13.45-11.55C15.16-11.55 16.55-10.17 16.55-8.46C16.55-6.75 15.16-5.37 13.45-5.37Z" fill="currentColor"/>
</svg>