<svg xmlns="http://www.w3.org/2000/svg" viewBox="0 0 24 24" width="24" height="24">
  <title>sos.circle.fill</title>
  <path transform="matrix(0.8806329549363605, 0, 0, 0.8806329549363605, 0.15273477812177494, 19.45098039215686)" d="M13.45 2.89C19.70 2.89 24.81-2.21 24.81-8.46C24.81-14.71 19.70-19.82 13.45-19.82C7.21-19.82 2.10-14.71 2.10-8.46C2.10-2.21 7.21 2.89 13.45 2.89ZM7.70-4.39C6.11-4.39 5.33-5.18 5.26-6.61C5.24-6.71 5.32-6.79 5.41-6.79L6.59-6.79C6.69-6.79 6.74-6.73 6.75-6.62C6.81-6.01 7.16-5.65 7.72-5.65C8.29-5.65 8.60-5.94 8.60-6.50C8.60-7.03 8.29-7.30 7.50-7.69L7.01-7.96C5.81-8.55 5.37-9.21 5.37-10.32C5.37-11.66 6.23-12.56 7.70-12.56C9.21-12.56 9.93-11.71 10.00-10.36C10.00-10.24 9.93-10.21 9.83-10.21L8.74-10.21C8.64-10.21 8.58-10.24 8.57-10.35C8.50-10.97 8.23-11.31 7.70-11.31C7.22-11.31 6.90-10.98 6.90-10.50C6.90-9.94 7.16-9.64 7.92-9.23L8.40-9C9.69-8.34 10.13-7.80 10.13-6.67C10.13-5.29 9.22-4.39 7.70-4.39ZM19.30-4.39C17.70-4.39 16.92-5.18 16.83-6.61C16.83-6.71 16.90-6.79 16.99-6.79L18.18-6.79C18.28-6.79 18.32-6.73 18.34-6.62C18.40-6.01 18.74-5.65 19.31-5.65C19.88-5.65 20.17-5.94 20.17-6.50C20.17-7.03 19.86-7.28 19.09-7.69L18.61-7.96C17.41-8.59 16.95-9.21 16.95-10.32C16.95-11.66 17.81-12.56 19.30-12.56C20.79-12.56 21.50-11.71 21.60-10.36C21.60-10.24 21.53-10.21 21.42-10.21L20.31-10.21C20.23-10.21 20.17-10.24 20.17-10.35C20.09-10.97 19.80-11.31 19.30-11.31C18.82-11.31 18.48-10.98 18.48-10.50C18.48-9.94 18.74-9.63 19.50-9.23L19.99-9C21.28-8.34 21.70-7.80 21.70-6.67C21.70-5.29 20.82-4.39 19.30-4.39ZM13.49-4.39C11.65-4.39 10.69-5.77 10.69-8.46C10.69-11.16 11.65-12.55 13.49-12.55C15.29-12.55 16.27-11.16 16.27-8.46C16.27-5.77 15.29-4.39 13.49-4.39ZM13.49-5.72C14.27-5.72 14.67-6.57 14.67-8.46C14.67-10.35 14.27-11.21 13.49-11.21C12.68-11.21 12.27-10.35 12.27-8.46C12.27-6.57 12.68-5.72 13.49-5.72Z" fill="currentColor"/>
</svg>