<svg xmlns="http://www.w3.org/2000/svg" viewBox="0 0 24 24" width="24" height="24">
  <title>speaker.plus.fill</title>
  <path transform="matrix(0.7551622418879056, 0, 0, 0.7551622418879056, -0.2566371681415931, 18.38938053097345)" d="M15.11 1.22C15.56 1.22 15.79 0.88 15.79 0.45L15.79-17.38C15.79-17.80 15.56-18.14 15.11-18.14C14.80-18.14 14.53-17.98 14.33-17.78L8.95-12.55C8.84-12.42 8.68-12.39 8.47-12.39L4.71-12.39C3.76-12.39 2.99-11.60 2.99-10.66L2.99-6.12C2.99-5.18 3.76-4.41 4.71-4.41L8.47-4.41C8.68-4.41 8.84-4.35 8.95-4.23L14.33 0.86C14.53 1.05 14.80 1.22 15.11 1.22ZM19.56-8.18L24.06-8.18L24.06-3.67C24.06-3.52 24.21-3.36 24.35-3.36C24.53-3.36 24.67-3.49 24.67-3.67L24.67-8.18L29.17-8.18C29.33-8.18 29.47-8.32 29.47-8.46C29.47-8.64 29.34-8.78 29.17-8.78L24.67-8.78L24.67-13.29C24.67-13.45 24.53-13.58 24.35-13.58C24.21-13.58 24.06-13.44 24.06-13.29L24.06-8.78L19.56-8.78C19.38-8.78 19.25-8.64 19.25-8.46C19.25-8.32 19.39-8.18 19.56-8.18Z" fill="currentColor"/>
</svg>