<svg xmlns="http://www.w3.org/2000/svg" viewBox="0 0 24 24" width="24" height="24">
  
  <path transform="matrix(0.8256732785034672, 0, 0, 0.8256732785034672, -0.46734397677793904, 18.98597000483793)" d="M3.27-1.90C3.43-1.90 3.56-2.03 3.56-2.18L3.56-3.64L8.75-3.64C9.43-3.64 9.59-3.59 10.01-3.28C11.23-2.43 12.47-1.14 14.70-1.14C16.91-1.14 18.01-2.33 19.23-3.20C19.64-3.49 20.19-3.73 20.72-3.73C21.94-3.73 22.70-2.89 22.70-1.63L22.70 0.56C22.70 0.97 22.79 1.07 23.19 1.07L26.71 1.07C27.09 1.07 27.21 0.95 27.21 0.56L27.21-0.71C27.21-5.63 24.68-8.70 20.10-8.70L19.37-8.70C19.13-8.70 18.91-8.82 18.84-9.05L18-11.33C17.92-11.57 17.77-11.67 17.51-11.67L17.45-11.67L17.45-12.89C17.45-13.43 17.07-13.79 16.56-13.79L15.16-13.79L15.16-14.96C15.55-15.08 15.87-15.35 16.05-15.71L20.57-15.12C21.45-15 22.08-15.57 22.08-16.44C22.08-17.30 21.45-17.87 20.57-17.75L16.07-17.17C15.81-17.66 15.30-17.99 14.71-17.99C14.10-17.99 13.58-17.66 13.32-17.17L8.85-17.75C7.97-17.87 7.32-17.30 7.32-16.44C7.32-15.57 7.97-15 8.85-15.12L13.34-15.70C13.52-15.34 13.86-15.07 14.29-14.95L14.29-13.79L12.82-13.79C12.30-13.79 11.93-13.43 11.93-12.89L11.93-11.67L11.86-11.67C11.60-11.67 11.45-11.57 11.37-11.33L10.52-9.05C10.45-8.82 10.24-8.70 10.00-8.70L3.56-8.70L3.56-10.14C3.56-10.30 3.43-10.43 3.27-10.43C3.12-10.43 2.99-10.30 2.99-10.14L2.99-2.18C2.99-2.03 3.12-1.90 3.27-1.90Z" fill="currentColor"/>
</svg>