<svg xmlns="http://www.w3.org/2000/svg" viewBox="0 0 24 24" width="24" height="24">
  
  <path transform="matrix(0.9769128029002099, 0, 0, 0.9769128029002099, -0.9192902117916426, 20.271322266742988)" d="M2.99-0.60C2.99-0.43 3.12-0.30 3.27-0.30L23.18-0.30C23.33-0.30 23.46-0.43 23.46-0.60C23.46-0.75 23.33-0.88 23.18-0.88L14.51-0.88L14.51-6.95L15.45-6.95C16.00-6.95 16.34-7.29 16.34-7.84L16.34-9.80C16.34-10.34 16.00-10.68 15.45-10.68L14.51-10.68L14.51-12.90L15.45-12.90C16.00-12.90 16.34-13.24 16.34-13.79L16.34-14.94C16.34-15.98 15.66-16.63 14.57-16.63L11.85-16.63C10.78-16.63 10.13-15.98 10.13-14.94L10.13-13.79C10.13-13.24 10.45-12.90 10.99-12.90L11.96-12.90L11.96-10.68L11.00-10.68C10.48-10.68 10.14-10.34 10.14-9.80L10.14-7.84C10.14-7.29 10.48-6.95 11.00-6.95L11.96-6.95L11.96-0.88L3.27-0.88C3.12-0.88 2.99-0.75 2.99-0.60Z" fill="currentColor"/>
</svg>