<svg xmlns="http://www.w3.org/2000/svg" viewBox="0 0 24 24" width="24" height="24">
  <title>square.stack.3d.up.slash</title>
  <path transform="matrix(0.7960199004975125, 0, 0, 0.7960199004975125, 1.246735074626866, 18.949626865671643)" d="M15.02-8.32L24.53-13.79C24.94-14.02 25.17-14.24 25.17-14.61C25.17-14.98 24.94-15.20 24.53-15.43L14.81-21.04C14.53-21.20 14.34-21.29 14.11-21.29C13.88-21.29 13.69-21.20 13.41-21.04L6.38-16.98L6.79-16.56L13.77-20.58C13.90-20.65 13.99-20.70 14.11-20.70C14.23-20.70 14.31-20.65 14.45-20.58L24.26-14.93C24.40-14.85 24.50-14.77 24.50-14.61C24.50-14.46 24.40-14.37 24.26-14.30L14.61-8.74ZM24.70 3.64C24.81 3.76 25.00 3.76 25.11 3.64C25.24 3.52 25.23 3.34 25.11 3.22L2.30-19.59C2.20-19.69 2.02-19.72 1.89-19.59C1.77-19.48 1.77-19.29 1.89-19.17ZM5.19-13.00L3.23-14.95C3.05-14.81 3-14.66 3-14.48C3-14.27 3.09-14.13 3.30-14.02ZM14.11-1.96C14.34-1.96 14.53-2.05 14.81-2.21L16.45-3.15L16.02-3.57L14.45-2.67C14.32-2.60 14.23-2.55 14.11-2.55C13.99-2.55 13.90-2.60 13.77-2.67L3.09-8.80C3.05-8.75 3-8.65 3-8.48C3-8.32 3.09-8.14 3.35-8.00L13.39-2.21C13.68-2.05 13.88-1.96 14.11-1.96ZM18.83-4.52L24.87-8.00C25.11-8.14 25.22-8.32 25.22-8.48C25.22-8.65 25.16-8.75 25.13-8.80L18.41-4.93ZM14.11 3.83C14.34 3.83 14.53 3.73 14.81 3.56L20.11 0.50L19.69 0.09L14.45 3.11C14.32 3.19 14.23 3.22 14.11 3.22C13.99 3.22 13.90 3.19 13.77 3.11L3.09-3.02C3.05-2.98 3-2.86 3-2.71C3-2.54 3.09-2.37 3.35-2.23L13.39 3.56C13.68 3.73 13.88 3.83 14.11 3.83ZM22.50-0.86L24.87-2.23C25.11-2.37 25.22-2.54 25.22-2.71C25.22-2.86 25.16-2.98 25.13-3.02L22.08-1.27Z" fill="currentColor"/>
</svg>