<svg xmlns="http://www.w3.org/2000/svg" viewBox="0 0 24 24" width="24" height="24">
  
  <path transform="matrix(0.8752136752136752, 0, 0, 0.8752136752136752, -0.6153846153846154, 19.364102564102566)" d="M4.50-13.09L7.65-13.09C8.64-13.09 9.18-13.52 9.18-14.60L9.18-17.75C9.18-18.82 8.64-19.27 7.65-19.27L4.50-19.27C3.53-19.27 2.99-18.82 2.99-17.75L2.99-14.60C2.99-13.52 3.53-13.09 4.50-13.09ZM12.84-13.09L16.00-13.09C16.97-13.09 17.51-13.52 17.51-14.60L17.51-17.75C17.51-18.82 16.97-19.27 16.00-19.27L12.84-19.27C11.86-19.27 11.32-18.82 11.32-17.75L11.32-14.60C11.32-13.52 11.86-13.09 12.84-13.09ZM21.18-13.09L24.33-13.09C25.31-13.09 25.84-13.52 25.84-14.60L25.84-17.75C25.84-18.82 25.31-19.27 24.33-19.27L21.18-19.27C20.19-19.27 19.65-18.82 19.65-17.75L19.65-14.60C19.65-13.52 20.19-13.09 21.18-13.09ZM4.54-13.66C3.83-13.66 3.56-13.93 3.56-14.63L3.56-17.73C3.56-18.42 3.83-18.69 4.54-18.69L7.63-18.69C8.32-18.69 8.59-18.42 8.59-17.73L8.59-14.63C8.59-13.93 8.32-13.66 7.63-13.66ZM21.20-13.66C20.51-13.66 20.24-13.93 20.24-14.63L20.24-17.73C20.24-18.42 20.51-18.69 21.20-18.69L24.30-18.69C25.00-18.69 25.27-18.42 25.27-17.73L25.27-14.63C25.27-13.93 25.00-13.66 24.30-13.66ZM4.50-5.32L7.65-5.32C8.64-5.32 9.18-5.77 9.18-6.84L9.18-10.00C9.18-11.06 8.64-11.51 7.65-11.51L4.50-11.51C3.53-11.51 2.99-11.06 2.99-10.00L2.99-6.84C2.99-5.77 3.53-5.32 4.50-5.32ZM12.84-5.32L16.00-5.32C16.97-5.32 17.51-5.77 17.51-6.84L17.51-10.00C17.51-11.06 16.97-11.51 16.00-11.51L12.84-11.51C11.86-11.51 11.32-11.06 11.32-10.00L11.32-6.84C11.32-5.77 11.86-5.32 12.84-5.32ZM21.18-5.32L24.33-5.32C25.31-5.32 25.84-5.77 25.84-6.84L25.84-10.00C25.84-11.06 25.31-11.51 24.33-11.51L21.18-11.51C20.19-11.51 19.65-11.06 19.65-10.00L19.65-6.84C19.65-5.77 20.19-5.32 21.18-5.32ZM4.54-5.91C3.83-5.91 3.56-6.18 3.56-6.87L3.56-9.96C3.56-10.66 3.83-10.93 4.54-10.93L7.63-10.93C8.32-10.93 8.59-10.66 8.59-9.96L8.59-6.87C8.59-6.18 8.32-5.91 7.63-5.91ZM12.87-5.91C12.18-5.91 11.91-6.18 11.91-6.87L11.91-9.96C11.91-10.66 12.18-10.93 12.87-10.93L15.96-10.93C16.65-10.93 16.92-10.66 16.92-9.96L16.92-6.87C16.92-6.18 16.65-5.91 15.96-5.91ZM21.20-5.91C20.51-5.91 20.24-6.18 20.24-6.87L20.24-9.96C20.24-10.66 20.51-10.93 21.20-10.93L24.30-10.93C25.00-10.93 25.27-10.66 25.27-9.96L25.27-6.87C25.27-6.18 25.00-5.91 24.30-5.91ZM4.50 2.44L7.65 2.44C8.64 2.44 9.18 1.99 9.18 0.93L9.18-2.24C9.18-3.30 8.64-3.75 7.65-3.75L4.50-3.75C3.53-3.75 2.99-3.30 2.99-2.24L2.99 0.93C2.99 1.99 3.53 2.44 4.50 2.44ZM12.84 2.44L16.00 2.44C16.97 2.44 17.51 1.99 17.51 0.93L17.51-2.24C17.51-3.30 16.97-3.75 16.00-3.75L12.84-3.75C11.86-3.75 11.32-3.30 11.32-2.24L11.32 0.93C11.32 1.99 11.86 2.44 12.84 2.44ZM21.18 2.44L24.33 2.44C25.31 2.44 25.84 1.99 25.84 0.93L25.84-2.24C25.84-3.30 25.31-3.75 24.33-3.75L21.18-3.75C20.19-3.75 19.65-3.30 19.65-2.24L19.65 0.93C19.65 1.99 20.19 2.44 21.18 2.44ZM4.54 1.85C3.83 1.85 3.56 1.58 3.56 0.89L3.56-2.20C3.56-2.89 3.83-3.16 4.54-3.16L7.63-3.16C8.32-3.16 8.59-2.89 8.59-2.20L8.59 0.89C8.59 1.58 8.32 1.85 7.63 1.85ZM12.87 1.85C12.18 1.85 11.91 1.58 11.91 0.89L11.91-2.20C11.91-2.89 12.18-3.16 12.87-3.16L15.96-3.16C16.65-3.16 16.92-2.89 16.92-2.20L16.92 0.89C16.92 1.58 16.65 1.85 15.96 1.85ZM21.20 1.85C20.51 1.85 20.24 1.58 20.24 0.89L20.24-2.20C20.24-2.89 20.51-3.16 21.20-3.16L24.30-3.16C25.00-3.16 25.27-2.89 25.27-2.20L25.27 0.89C25.27 1.58 25.00 1.85 24.30 1.85Z" fill="currentColor"/>
</svg>