<svg xmlns="http://www.w3.org/2000/svg" viewBox="0 0 24 24" width="24" height="24">
  <title>square.on.circle</title>
  <path transform="matrix(0.800875958079149, 0, 0, 0.800875958079149, 0.32003754106053517, 19.22665415297982)" d="M2.10-12.16C2.10-7.78 5.16-4.13 9.27-3.20L9.27 0.30C9.27 2.27 10.31 3.32 12.28 3.32L24.06 3.32C26.03 3.32 27.07 2.27 27.07 0.30L27.07-11.48C27.07-13.45 26.03-14.50 24.06-14.50L20.18-14.50C19.15-18.46 15.56-21.36 11.29-21.36C6.20-21.36 2.10-17.25 2.10-12.16ZM2.67-12.16C2.67-17.00 6.45-20.79 11.29-20.79C15.32-20.79 18.61-18.16 19.59-14.50L12.28-14.50C10.31-14.50 9.27-13.45 9.27-11.48L9.27-3.79C5.43-4.66 2.67-8.02 2.67-12.16ZM12.30 2.74C10.69 2.74 9.84 1.90 9.84 0.27L9.84-11.45C9.84-13.08 10.69-13.92 12.30-13.92L24.04-13.92C25.65-13.92 26.50-13.08 26.50-11.45L26.50 0.27C26.50 1.90 25.65 2.74 24.04 2.74Z" fill="currentColor"/>
</svg>