<svg xmlns="http://www.w3.org/2000/svg" viewBox="0 0 24 24" width="24" height="24">
  <title>star.square.on.square.fill</title>
  <path transform="matrix(0.8516300731869594, 0, 0, 0.8516300731869594, -0.5449101796407185, 19.18063872255489)" d="M2.99-4.77C2.99-2.81 4.03-1.77 6-1.77L7.79-1.77L7.79-12.09C7.79-14.54 9.23-15.98 11.68-15.98L20.79-15.98L20.79-16.56C20.79-18.49 19.75-19.57 17.79-19.57L6-19.57C4.03-19.57 2.99-18.53 2.99-16.56ZM11.68 2.71L23.47 2.71C25.43 2.71 26.47 1.63 26.47-0.30L26.47-12.09C26.47-14.03 25.43-15.11 23.47-15.11L11.68-15.11C9.71-15.11 8.67-14.05 8.67-12.09L8.67-0.30C8.67 1.66 9.71 2.71 11.68 2.71ZM14.06-0.50C13.80-0.32 13.46-0.49 13.59-0.87L14.92-4.99L11.41-7.50C11.14-7.69 11.27-8.11 11.60-8.11L15.94-8.11L17.26-12.22C17.37-12.53 17.78-12.53 17.88-12.22L19.21-8.11L23.54-8.11C23.89-8.11 23.94-7.64 23.74-7.51L20.23-4.99L21.56-0.87C21.69-0.49 21.35-0.32 21.08-0.50L17.57-3.06Z" fill="currentColor"/>
</svg>