<svg xmlns="http://www.w3.org/2000/svg" viewBox="0 0 24 24" width="24" height="24">
  <title>stroller</title>
  <path transform="matrix(0.8783667867558758, 0, 0, 0.8783667867558758, -0.1358723623262983, 19.14873906330417)" d="M8.55 3.25C9.96 3.25 11.09 2.21 11.23 0.86L19.29 0.86C19.43 2.21 20.55 3.25 21.96 3.25C23.46 3.25 24.64 2.07 24.64 0.56C24.64-0.95 23.46-2.12 21.96-2.12C21.45-2.12 20.98-1.98 20.57-1.75L17.31-5.00L19.23-5.00C22.44-5.00 24.49-7.50 24.49-11.55C24.49-15.80 22.29-19.52 16.84-19.52C16.13-19.52 15.71-19.16 15.71-18.52L15.71-11.54L10.76-11.54L5.88-16.41C5.70-16.58 5.63-16.63 5.37-16.63L3.28-16.63C3.12-16.63 2.99-16.50 2.99-16.34C2.99-16.18 3.12-16.05 3.28-16.05L5.41-16.05L9.93-11.54L5.75-11.54C5.59-11.54 5.46-11.41 5.46-11.25C5.46-11.10 5.59-10.96 5.75-10.96L6.35-10.96L6.87-8.32C7.27-6.20 8.98-5.00 11.64-5.00L13.21-5.00L9.95-1.75C9.54-1.98 9.07-2.12 8.55-2.12C7.05-2.12 5.88-0.94 5.88 0.56C5.88 2.06 7.05 3.25 8.55 3.25ZM16.30-18.45C16.30-18.76 16.49-18.94 16.82-18.94C21.34-18.94 23.92-16.25 23.92-11.55L23.92-11.54L16.30-11.54ZM11.64-5.59C9.30-5.59 7.80-6.60 7.44-8.41L6.94-10.96L23.89-10.96C23.72-7.63 21.96-5.59 19.23-5.59ZM11.23 0.27C11.16-0.36 10.89-0.91 10.46-1.34L14.13-5.00L16.38-5.00L20.05-1.34C19.63-0.93 19.36-0.36 19.29 0.27ZM8.55 2.66C7.38 2.66 6.46 1.73 6.46 0.56C6.46-0.61 7.38-1.54 8.55-1.54C9.73-1.54 10.65-0.61 10.65 0.56C10.65 1.73 9.73 2.66 8.55 2.66ZM21.96 2.66C20.79 2.66 19.86 1.73 19.86 0.56C19.86-0.61 20.79-1.54 21.96-1.54C23.13-1.54 24.06-0.61 24.06 0.56C24.06 1.73 23.13 2.66 21.96 2.66Z" fill="currentColor"/>
</svg>