<svg xmlns="http://www.w3.org/2000/svg" viewBox="0 0 24 24" width="24" height="24">
  
  <path transform="matrix(0.916577157178661, 0, 0, 0.916577157178661, 0.0827067669172925, 19.755102040816325)" d="M13.01-17.89C13.42-17.89 13.75-18.21 13.75-18.63C13.75-19.04 13.42-19.37 13.01-19.37C12.59-19.37 12.27-19.04 12.27-18.63C12.27-18.21 12.59-17.89 13.01-17.89ZM20.19-14.92C20.61-14.92 20.93-15.25 20.93-15.66C20.93-16.07 20.61-16.39 20.19-16.39C19.78-16.39 19.45-16.07 19.45-15.66C19.45-15.25 19.78-14.92 20.19-14.92ZM5.81-14.92C6.22-14.92 6.55-15.25 6.55-15.66C6.55-16.07 6.22-16.39 5.81-16.39C5.40-16.39 5.07-16.07 5.07-15.66C5.07-15.25 5.40-14.92 5.81-14.92ZM13.01-3.09C15.97-3.09 18.38-5.50 18.38-8.46C18.38-11.44 15.97-13.84 13.01-13.84C10.03-13.84 7.63-11.44 7.63-8.46C7.63-5.50 10.03-3.09 13.01-3.09ZM23.17-7.72C23.59-7.72 23.91-8.05 23.91-8.46C23.91-8.87 23.59-9.20 23.17-9.20C22.76-9.20 22.43-8.87 22.43-8.46C22.43-8.05 22.76-7.72 23.17-7.72ZM2.84-7.72C3.25-7.72 3.57-8.05 3.57-8.46C3.57-8.87 3.25-9.20 2.84-9.20C2.43-9.20 2.10-8.87 2.10-8.46C2.10-8.05 2.43-7.72 2.84-7.72ZM20.19-0.53C20.61-0.53 20.93-0.86 20.93-1.27C20.93-1.69 20.61-2.02 20.19-2.02C19.78-2.02 19.45-1.69 19.45-1.27C19.45-0.86 19.78-0.53 20.19-0.53ZM5.81-0.53C6.22-0.53 6.55-0.86 6.55-1.27C6.55-1.69 6.22-2.02 5.81-2.02C5.40-2.02 5.07-1.69 5.07-1.27C5.07-0.86 5.40-0.53 5.81-0.53ZM13.01 2.45C13.42 2.45 13.75 2.12 13.75 1.70C13.75 1.29 13.42 0.96 13.01 0.96C12.59 0.96 12.27 1.29 12.27 1.70C12.27 2.12 12.59 2.45 13.01 2.45Z" fill="currentColor"/>
</svg>