<svg xmlns="http://www.w3.org/2000/svg" viewBox="0 0 24 24" width="24" height="24">
  <title>sun.dust.circle</title>
  <path transform="matrix(0.8806329549363605, 0, 0, 0.8806329549363605, 0.15273477812177494, 19.45098039215686)" d="M13.45 2.89C19.73 2.89 24.81-2.19 24.81-8.46C24.81-14.74 19.73-19.82 13.45-19.82C7.18-19.82 2.10-14.74 2.10-8.46C2.10-2.19 7.18 2.89 13.45 2.89ZM13.45 2.32C7.49 2.32 2.67-2.50 2.67-8.46C2.67-14.43 7.49-19.24 13.45-19.24C19.42-19.24 24.23-14.43 24.23-8.46C24.23-2.50 19.42 2.32 13.45 2.32ZM13.45-13.52C13.63-13.52 13.75-13.69 13.75-13.82L13.75-16.29C13.75-16.48 13.63-16.58 13.45-16.58C13.28-16.58 13.16-16.48 13.16-16.29L13.16-13.82C13.16-13.65 13.29-13.52 13.45-13.52ZM10.21-11.68C10.36-11.81 10.29-12 10.21-12.09L8.46-13.84C8.34-13.96 8.17-13.91 8.06-13.79C7.97-13.69 7.97-13.52 8.09-13.41L9.83-11.66C9.91-11.58 10.10-11.57 10.21-11.68ZM16.70-11.68C16.80-11.57 16.99-11.58 17.09-11.66L18.83-13.41C18.95-13.52 18.95-13.69 18.84-13.79C18.74-13.91 18.56-13.96 18.46-13.84L16.70-12.09C16.62-12 16.56-11.81 16.70-11.68ZM10.44-6.75L16.48-6.75C16.76-7.25 16.91-7.83 16.91-8.45C16.91-10.36 15.38-11.89 13.45-11.89C11.54-11.89 10.00-10.36 10.00-8.45C10.00-7.83 10.15-7.25 10.44-6.75ZM8.87-8.61C8.87-8.77 8.75-8.91 8.58-8.91L6.12-8.91C5.95-8.91 5.82-8.78 5.82-8.61C5.82-8.44 5.95-8.32 6.12-8.32L8.58-8.32C8.78-8.32 8.87-8.41 8.87-8.61ZM18.04-8.61C18.04-8.44 18.19-8.32 18.33-8.32L20.80-8.32C20.98-8.32 21.09-8.41 21.09-8.61C21.09-8.79 20.98-8.91 20.80-8.91L18.33-8.91C18.15-8.91 18.04-8.77 18.04-8.61ZM6.12-5.53L20.80-5.53C20.98-5.53 21.09-5.64 21.09-5.81C21.09-5.99 20.98-6.09 20.80-6.09L6.12-6.09C5.95-6.09 5.82-5.98 5.82-5.81C5.82-5.64 5.95-5.53 6.12-5.53ZM7.68-3.50C7.90-3.50 8.10-3.69 8.10-3.91C8.10-4.14 7.90-4.34 7.68-4.34C7.45-4.34 7.27-4.14 7.27-3.91C7.27-3.69 7.45-3.50 7.68-3.50ZM10.58-3.50C10.80-3.50 11.00-3.69 11.00-3.91C11.00-4.14 10.80-4.34 10.58-4.34C10.36-4.34 10.17-4.14 10.17-3.91C10.17-3.69 10.36-3.50 10.58-3.50ZM13.46-3.50C13.69-3.50 13.89-3.69 13.89-3.91C13.89-4.14 13.69-4.34 13.46-4.34C13.24-4.34 13.05-4.14 13.05-3.91C13.05-3.69 13.24-3.50 13.46-3.50ZM16.36-3.50C16.58-3.50 16.77-3.69 16.77-3.91C16.77-4.14 16.58-4.34 16.36-4.34C16.14-4.34 15.94-4.14 15.94-3.91C15.94-3.69 16.14-3.50 16.36-3.50ZM19.24-3.50C19.46-3.50 19.66-3.69 19.66-3.91C19.66-4.14 19.46-4.34 19.24-4.34C19.02-4.34 18.83-4.14 18.83-3.91C18.83-3.69 19.02-3.50 19.24-3.50ZM9.15-1.78C9.38-1.78 9.56-1.97 9.56-2.19C9.56-2.41 9.38-2.61 9.15-2.61C8.93-2.61 8.73-2.41 8.73-2.19C8.73-1.97 8.93-1.78 9.15-1.78ZM12.05-1.78C12.27-1.78 12.47-1.97 12.47-2.19C12.47-2.41 12.27-2.61 12.05-2.61C11.82-2.61 11.64-2.41 11.64-2.19C11.64-1.97 11.82-1.78 12.05-1.78ZM14.94-1.78C15.16-1.78 15.35-1.97 15.35-2.19C15.35-2.41 15.16-2.61 14.94-2.61C14.72-2.61 14.52-2.41 14.52-2.19C14.52-1.97 14.72-1.78 14.94-1.78ZM17.81-1.78C18.04-1.78 18.22-1.97 18.22-2.19C18.22-2.41 18.04-2.61 17.81-2.61C17.59-2.61 17.39-2.41 17.39-2.19C17.39-1.97 17.59-1.78 17.81-1.78Z" fill="currentColor"/>
</svg>