<svg xmlns="http://www.w3.org/2000/svg" viewBox="0 0 24 24" width="24" height="24">
  
  <path transform="matrix(0.9859426150587329, 0, 0, 0.9859426150587329, -0.9578278451761988, 20.041594454072793)" d="M3.26-17.13L7.71-17.13C8.44-17.13 8.78-17.00 9.14-16.64L13.57-12.23L8.85-11.65C4.93-11.17 3-9.40 3-6.38L3-4.21C3-2.46 3.84-1.58 5.52-1.58L7.69-1.58C7.65-1.88 7.62-2.16 7.62-2.47C7.62-5.11 9.70-7.22 12.36-7.22C15.02-7.22 17.12-5.11 17.12-2.47C17.12-2.16 17.09-1.88 17.05-1.58L23.29-1.58L23.29-17.44C21.73-17.09 20.50-16.51 18.95-15.54L14.16-12.53L9.64-17.05C9.19-17.52 8.71-17.72 7.73-17.72L3.28-17.72C3.13-17.72 3-17.60 3-17.44C3-17.27 3.09-17.13 3.26-17.13ZM12.36 1.41C14.54 1.41 16.24-0.29 16.24-2.47C16.24-4.63 14.54-6.33 12.36-6.33C10.20-6.33 8.50-4.63 8.50-2.47C8.50-0.29 10.20 1.41 12.36 1.41Z" fill="currentColor"/>
</svg>