<svg xmlns="http://www.w3.org/2000/svg" viewBox="0 0 24 24" width="24" height="24">
  
  <path transform="matrix(0.8111533586818758, 0, 0, 0.8111533586818758, 3.4543726235741445, 18.844106463878326)" d="M6 3.89L15.08 3.89C17.04 3.89 18.08 2.85 18.08 0.89L18.08-17.75C18.08-19.72 17.04-20.77 15.08-20.77L6-20.77C4.03-20.77 2.99-19.72 2.99-17.75L2.99 0.89C2.99 2.85 4.03 3.89 6 3.89ZM6.01-11.41C4.99-11.41 4.45-11.95 4.45-12.97L4.45-17.73C4.45-18.75 4.99-19.30 6.01-19.30L15.06-19.30C16.08-19.30 16.63-18.75 16.63-17.73L16.63-12.97C16.63-11.95 16.08-11.41 15.06-11.41ZM6.01 2.44C4.99 2.44 4.45 1.89 4.45 0.87L4.45-3.89C4.45-4.91 4.99-5.46 6.01-5.46L15.06-5.46C16.08-5.46 16.63-4.91 16.63-3.89L16.63 0.87C16.63 1.89 16.08 2.44 15.06 2.44Z" fill="currentColor"/>
</svg>