<svg xmlns="http://www.w3.org/2000/svg" viewBox="0 0 24 24" width="24" height="24">
  
  <path transform="matrix(0.8023797078708966, 0, 0, 0.8023797078708966, 0.31688319091143957, 18.77091292119976)" d="M14.55-19.16C7.66-19.16 2.10-13.58 2.10-6.70C2.10-3.25 3.50-0.12 5.78 2.16C5.92 2.30 6.13 2.33 6.25 2.20C6.35 2.09 6.32 1.88 6.18 1.73C4.00-0.42 2.66-3.41 2.66-6.70C2.66-13.27 7.98-18.59 14.55-18.59C21.14-18.59 26.47-13.25 26.45-6.67C26.45-6.52 26.58-6.38 26.73-6.38C26.89-6.38 27.02-6.50 27.02-6.66C27.05-13.57 21.46-19.16 14.55-19.16ZM13.63-5.51C14.19-4.95 15.09-4.95 15.66-5.51C16.22-6.06 16.22-6.98 15.66-7.52C15.60-7.62 15.46-7.73 15.35-7.80L8.89-12.68C8.79-12.76 8.65-12.76 8.52-12.67C8.39-12.53 8.40-12.39 8.51-12.27L13.36-5.81C13.45-5.72 13.55-5.57 13.63-5.51ZM26.36-3.38C26.71-3.38 27-3.67 27-4.02C27-4.37 26.71-4.66 26.36-4.66C26.00-4.66 25.71-4.37 25.71-4.02C25.71-3.67 26.00-3.38 26.36-3.38ZM25.25-0.36C25.61-0.36 25.90-0.66 25.90-1.01C25.90-1.36 25.61-1.65 25.25-1.65C24.90-1.65 24.60-1.36 24.60-1.01C24.60-0.66 24.90-0.36 25.25-0.36ZM23.50 2.25C23.86 2.25 24.14 1.96 24.14 1.61C24.14 1.25 23.86 0.95 23.50 0.95C23.14 0.95 22.85 1.25 22.85 1.61C22.85 1.96 23.14 2.25 23.50 2.25Z" fill="currentColor"/>
</svg>