<svg xmlns="http://www.w3.org/2000/svg" viewBox="0 0 24 24" width="24" height="24">
  <title>teddybear</title>
  <path transform="matrix(0.7146845337800112, 0, 0, 0.7146845337800112, 1.5268006700167511, 17.946398659966498)" d="M9.67 5.67C10.65 5.67 11.57 5.16 12.23 4.31C13.83 4.62 15.41 4.62 17.07 4.31C17.74 5.16 18.66 5.67 19.65 5.67C21.71 5.67 23.41 3.42 23.41 0.57C23.41 0.09 23.37-0.36 23.29-0.80C24.47-0.95 25.48-1.70 25.99-2.78C26.81-4.54 26.04-6.64 24.28-7.44L20.18-9.32C21.45-10.66 22.22-12.47 22.22-14.46C22.22-14.79 22.20-15.13 22.15-15.46C24.05-15.46 25.59-16.99 25.59-18.89C25.59-20.78 24.06-22.31 22.16-22.31C20.86-22.31 19.75-21.60 19.15-20.53C17.89-21.47 16.34-22.02 14.66-22.02C12.97-22.02 11.43-21.47 10.16-20.53C9.57-21.60 8.45-22.31 7.15-22.31C5.25-22.31 3.71-20.78 3.71-18.89C3.71-16.99 5.26-15.46 7.16-15.46C7.11-15.13 7.10-14.79 7.10-14.46C7.10-12.47 7.86-10.66 9.13-9.32L5.03-7.44C3.27-6.64 2.50-4.54 3.32-2.78C3.83-1.70 4.84-0.95 6.02-0.80C5.94-0.36 5.89 0.09 5.89 0.57C5.89 3.42 7.59 5.67 9.67 5.67ZM18.21-10.62C18.21-12.57 16.61-14.17 14.66-14.17C12.68-14.17 11.09-12.57 11.09-10.62C11.09-9.50 11.60-8.51 12.40-7.85C9.66-8.80 7.68-11.40 7.68-14.46C7.68-15.04 7.75-15.60 7.90-16.11L7.89-16.15C7.65-16.07 7.39-16.04 7.15-16.04C5.57-16.04 4.30-17.31 4.30-18.89C4.30-20.46 5.57-21.74 7.15-21.74C8.40-21.74 9.45-20.93 9.84-19.82C9.88-19.75 9.90-19.65 9.93-19.58L9.94-19.58C11.19-20.75 12.84-21.45 14.66-21.45C16.46-21.45 18.12-20.75 19.38-19.58L19.39-19.58C19.41-19.65 19.43-19.75 19.46-19.82C19.86-20.93 20.91-21.74 22.16-21.74C23.74-21.74 25.02-20.46 25.02-18.89C25.02-17.31 23.74-16.04 22.16-16.04C21.91-16.04 21.66-16.07 21.42-16.15L21.41-16.11C21.56-15.60 21.63-15.04 21.63-14.46C21.63-11.39 19.65-8.78 16.90-7.85C17.70-8.51 18.21-9.50 18.21-10.62ZM11.96-15.06C12.41-15.06 12.79-15.43 12.79-15.88C12.79-16.32 12.41-16.70 11.96-16.70C11.52-16.70 11.14-16.32 11.14-15.88C11.14-15.43 11.52-15.06 11.96-15.06ZM17.34-15.06C17.79-15.06 18.16-15.43 18.16-15.88C18.16-16.32 17.79-16.70 17.34-16.70C16.90-16.70 16.52-16.32 16.52-15.88C16.52-15.43 16.90-15.06 17.34-15.06ZM14.66-7.63C13.01-7.63 11.67-8.96 11.67-10.62C11.67-12.25 13.01-13.58 14.66-13.58C16.29-13.58 17.63-12.25 17.63-10.62C17.63-8.96 16.29-7.63 14.66-7.63ZM14.66-10.10C15.26-10.10 16.56-11.20 16.56-11.50C16.56-11.99 15.75-12.70 14.66-12.70C13.55-12.70 12.73-11.99 12.73-11.50C12.73-11.20 14.07-10.10 14.66-10.10ZM14.66-6.90C16.62-6.90 18.40-7.65 19.75-8.88L24.02-6.91C25.50-6.23 26.13-4.54 25.46-3.04C25.05-2.12 24.16-1.46 23.13-1.36C22.57-3.21 21.21-4.50 19.65-4.50C17.58-4.50 15.88-2.25 15.88 0.57C15.88 1.79 16.18 2.91 16.71 3.77C15.36 4.01 13.96 4.01 12.61 3.77C13.13 2.91 13.44 1.79 13.44 0.57C13.44-2.25 11.73-4.50 9.67-4.50C8.10-4.50 6.74-3.21 6.18-1.36C5.14-1.46 4.25-2.12 3.86-3.04C3.18-4.54 3.81-6.23 5.30-6.91L9.56-8.88C10.91-7.65 12.69-6.90 14.66-6.90ZM9.67 5.10C7.88 5.10 6.47 3.04 6.47 0.57C6.47-1.88 7.88-3.93 9.67-3.93C11.45-3.93 12.86-1.88 12.86 0.57C12.86 3.04 11.45 5.10 9.67 5.10ZM19.65 5.10C17.86 5.10 16.45 3.04 16.45 0.57C16.45-1.88 17.86-3.93 19.65-3.93C21.43-3.93 22.84-1.88 22.84 0.57C22.84 3.04 21.43 5.10 19.65 5.10Z" fill="currentColor"/>
</svg>