<svg xmlns="http://www.w3.org/2000/svg" viewBox="0 0 24 24" width="24" height="24">
  <title>text.line.2.summary</title>
  <path transform="matrix(0.8328750739659596, 0, 0, 0.8328750739659596, -0.4888649671248402, 17.808253843405943)" d="M22.04-3.66L22.04-0.97L11.04-0.97C6.25-0.97 3.56-3.57 3.56-8.23L3.56-16.41C3.56-16.56 3.43-16.69 3.28-16.69C3.12-16.69 2.99-16.56 2.99-16.41L2.99-8.23C2.99-3.21 5.87-0.40 11.04-0.40L22.04-0.40L22.04 2.31C22.04 2.72 22.49 2.87 22.84 2.61L26.78-0.23C27.08-0.45 27.07-0.90 26.78-1.11L22.84-3.96C22.50-4.21 22.04-4.07 22.04-3.66ZM9.26-16.11L22.42-16.11C22.58-16.11 22.71-16.24 22.71-16.41C22.71-16.56 22.58-16.69 22.42-16.69L9.26-16.69C9.09-16.69 8.96-16.56 8.96-16.41C8.96-16.24 9.09-16.11 9.26-16.11ZM9.26-9.02L16.44-9.02C16.59-9.02 16.72-9.15 16.72-9.32C16.72-9.47 16.59-9.60 16.44-9.60L9.26-9.60C9.09-9.60 8.96-9.47 8.96-9.32C8.96-9.15 9.09-9.02 9.26-9.02Z" fill="currentColor"/>
</svg>