<svg xmlns="http://www.w3.org/2000/svg" viewBox="0 0 24 24" width="24" height="24">
  
  <path transform="matrix(0.5252898327690572, 0, 0, 0.5252898327690572, 0.43028624192059084, 16.42905509387504)" d="M12.69 1.82L31.35 1.82C33.32 1.82 34.36 0.75 34.36-1.20L34.36-15.67C34.36-17.61 33.32-18.68 31.35-18.68L12.69-18.68C10.73-18.68 9.69-17.64 9.69-15.67L9.69-1.20C9.69 0.77 10.73 1.82 12.69 1.82ZM15.20 1.24L15.20-18.11L28.85-18.11L28.85 1.24ZM12.16-4.41L12.16-12.46C12.16-12.62 12.29-12.75 12.46-12.75C12.61-12.75 12.74-12.62 12.74-12.46L12.74-4.41C12.74-4.24 12.61-4.11 12.46-4.11C12.29-4.11 12.16-4.24 12.16-4.41ZM31.32-4.41L31.32-12.46C31.32-12.62 31.45-12.75 31.61-12.75C31.77-12.75 31.90-12.62 31.90-12.46L31.90-4.41C31.90-4.24 31.77-4.11 31.61-4.11C31.45-4.11 31.32-4.24 31.32-4.41ZM2.99-5.80C2.99-5.41 3.34-5.31 3.61-5.47L7.83-8.03C8.13-8.23 8.12-8.63 7.83-8.80L3.60-11.39C3.33-11.55 2.99-11.45 2.99-11.06ZM41.06-5.80L41.06-11.06C41.06-11.45 40.72-11.55 40.45-11.39L36.22-8.80C35.93-8.63 35.91-8.23 36.22-8.03L40.44-5.47C40.70-5.31 41.06-5.41 41.06-5.80Z" fill="currentColor"/>
</svg>