<svg xmlns="http://www.w3.org/2000/svg" viewBox="0 0 24 24" width="24" height="24">
  
  <path transform="matrix(0.7287218901224025, 0, 0, 0.7287218901224025, -0.17762596071733583, 18.161400512382578)" d="M2.99-2.51C2.99-0.69 3.96 0.28 5.77 0.28L27.66 0.28C29.46 0.28 30.43-0.69 30.43-2.51L30.43-14.40C30.43-16.22 29.46-17.19 27.66-17.19L5.77-17.19C3.96-17.19 2.99-16.22 2.99-14.40ZM5.55-8.18L5.55-13.31C5.55-13.92 5.87-14.24 6.48-14.24L26.94-14.24C27.55-14.24 27.87-13.92 27.87-13.31L27.87-8.18C27.87-7.61 27.55-7.29 26.94-7.29L6.48-7.29C5.87-7.29 5.55-7.61 5.55-8.18Z" fill="currentColor"/>
</svg>