<svg xmlns="http://www.w3.org/2000/svg" viewBox="0 0 24 24" width="24" height="24">
  
  <path transform="matrix(0.7213299520991828, 0, 0, 0.7213299520991828, 2.7565511411665264, 18.09467455621302)" d="M4.91 5.41L5.33 5.41C5.54 5.41 5.63 5.36 5.73 5.20L6.40 4.14L19.22 4.14L19.89 5.20C19.98 5.36 20.07 5.41 20.29 5.41L20.71 5.41C21 5.41 21.11 5.17 20.94 4.92L18.80 1.46C21.63 1.41 22.64-0.42 22.64-2.47L22.64-9.84C22.64-13.82 21.98-17.52 21.47-19.29C21.04-20.81 19.88-21.82 18.33-22.01C17.00-22.17 15.05-22.31 12.82-22.31C10.59-22.31 8.63-22.17 7.30-22.01C5.77-21.82 4.59-20.81 4.16-19.29C3.66-17.52 2.99-13.82 2.99-9.84L2.99-2.47C2.99-0.42 4.00 1.39 6.82 1.46L4.68 4.92C4.51 5.17 4.62 5.41 4.91 5.41ZM7.07 0.89C4.43 0.89 3.57-0.70 3.57-2.47L3.57-9.84C3.57-13.84 4.34-17.53 4.77-19.22C5.09-20.44 6.05-21.27 7.37-21.46C8.94-21.69 10.86-21.73 12.82-21.73C14.78-21.73 16.69-21.69 18.26-21.46C19.58-21.27 20.54-20.44 20.86-19.22C21.29-17.53 22.07-13.84 22.07-9.84L22.07-2.47C22.07-0.70 21.20 0.89 18.57 0.89ZM9.64-18.76L15.98-18.76C16.27-18.76 16.43-18.95 16.43-19.22C16.43-19.46 16.27-19.66 15.98-19.66L9.64-19.66C9.36-19.66 9.20-19.46 9.20-19.22C9.20-18.95 9.36-18.76 9.64-18.76ZM12.82-5.65C15.14-5.66 17.02-5.73 18.53-5.86C19.36-5.93 19.85-6.47 19.85-7.29L19.85-10.28C19.85-12.21 19.64-14.02 19.36-15.56C19.24-16.27 18.73-16.73 18-16.80C16.75-16.92 15.01-17.02 12.82-17.02C10.59-17.02 8.85-16.92 7.44-16.79C6.81-16.73 6.36-16.27 6.25-15.56C5.95-14.02 5.74-12.21 5.74-10.28L5.74-7.29C5.74-6.47 6.25-5.93 7.07-5.86C8.59-5.73 10.46-5.66 12.82-5.65ZM7.31-1.49C8.07-1.49 8.65-2.05 8.65-2.81C8.65-3.57 8.07-4.14 7.31-4.14C6.55-4.14 5.99-3.57 5.99-2.81C5.99-2.05 6.55-1.49 7.31-1.49ZM18.35-1.49C19.10-1.49 19.68-2.05 19.68-2.81C19.68-3.57 19.11-4.14 18.35-4.14C17.59-4.14 17.02-3.57 17.02-2.81C17.02-2.05 17.59-1.49 18.35-1.49ZM7.04 3.11L8.06 1.46L17.55 1.46L18.57 3.11Z" fill="currentColor"/>
</svg>