<svg xmlns="http://www.w3.org/2000/svg" viewBox="0 0 24 24" width="24" height="24">
  <title>trash.slash</title>
  <path transform="matrix(0.7897578281659725, 0, 0, 0.7897578281659725, 1.9513328289418872, 19.316057380842203)" d="M20.41-3.12L21.14-17.07L23.36-17.07C23.53-17.07 23.65-17.20 23.65-17.37C23.65-17.54 23.52-17.66 23.36-17.66L17.47-17.66L17.47-19.78C17.47-21.14 16.61-21.93 15.15-21.93L10.29-21.93C8.85-21.93 7.99-21.14 7.99-19.80L7.99-17.65L5.88-17.65L6.42-17.07L20.53-17.07L19.82-3.67ZM8.57-17.66L8.57-19.79C8.57-20.78 9.19-21.35 10.27-21.35L15.16-21.35C16.27-21.35 16.90-20.78 16.90-19.79L16.90-17.66ZM23.14 1.71C23.26 1.83 23.45 1.83 23.55 1.71C23.70 1.58 23.67 1.41 23.55 1.29L2.30-19.97C2.20-20.07 2.02-20.10 1.88-19.97C1.77-19.85 1.77-19.66 1.88-19.55ZM7.54 3.40L17.92 3.40C19.10 3.40 20.12 2.44 20.18 1.28L20.24 0.05L19.65-0.53L19.57 1.25C19.52 2.11 18.79 2.82 17.91 2.82L7.54 2.82C6.66 2.82 5.92 2.11 5.88 1.25L5.03-15.19L4.38-15.80L5.30 1.30C5.37 2.44 6.36 3.40 7.54 3.40ZM13.01-10.50L13.01-14.04C13.01-14.20 12.89-14.31 12.74-14.31C12.57-14.31 12.46-14.19 12.46-14.03L12.46-11.05ZM16.77-6.75L17.00-14.03C17.00-14.20 16.90-14.30 16.73-14.30C16.59-14.30 16.45-14.20 16.45-14.05L16.23-7.28ZM9.18 0.06C9.35 0.06 9.45-0.08 9.45-0.22L9.09-11.10L8.52-11.66L8.89-0.21C8.89-0.06 9 0.06 9.18 0.06ZM12.74 0.06C12.89 0.06 13.01-0.06 13.01-0.22L13.01-7.17L12.46-7.72L12.46-0.22C12.46-0.06 12.57 0.06 12.74 0.06ZM16.28 0.07C16.45 0.07 16.56-0.05 16.56-0.19L16.68-3.50L16.15-4.04L16.01-0.21C16.01-0.06 16.11 0.07 16.28 0.07Z" fill="currentColor"/>
</svg>