<svg xmlns="http://www.w3.org/2000/svg" viewBox="0 0 24 24" width="24" height="24">
  <title>trash.fill</title>
  <path transform="matrix(0.7897578281659725, 0, 0, 0.7897578281659725, 1.9537251272559002, 19.316057380842203)" d="M7.54 3.40L17.92 3.40C19.09 3.40 20.11 2.44 20.17 1.30L21.14-17.07L23.36-17.07C23.53-17.07 23.65-17.20 23.65-17.37C23.65-17.54 23.52-17.66 23.36-17.66L17.47-17.66L17.47-19.80C17.47-21.14 16.61-21.93 15.15-21.93L10.29-21.93C8.85-21.93 7.98-21.14 7.98-19.80L7.98-17.66L2.10-17.66C1.93-17.66 1.79-17.52 1.79-17.37C1.79-17.19 1.93-17.07 2.10-17.07L4.32-17.07L5.30 1.30C5.36 2.44 6.36 3.40 7.54 3.40ZM8.55-19.80C8.55-20.78 9.19-21.35 10.27-21.35L15.18-21.35C16.27-21.35 16.90-20.78 16.90-19.80L16.90-17.66L8.55-17.66ZM9.18 0.05C9 0.05 8.89-0.07 8.89-0.21L8.45-14.04C8.45-14.21 8.57-14.31 8.73-14.31C8.87-14.31 9-14.20 9-14.06L9.45-0.22C9.45-0.08 9.35 0.05 9.18 0.05ZM12.74 0.05C12.57 0.05 12.46-0.07 12.46-0.22L12.46-14.04C12.46-14.19 12.57-14.31 12.74-14.31C12.89-14.31 13.01-14.19 13.01-14.04L13.01-0.22C13.01-0.07 12.89 0.05 12.74 0.05ZM16.28 0.07C16.10 0.07 16.01-0.07 16.01-0.21L16.45-14.05C16.45-14.19 16.58-14.30 16.73-14.30C16.89-14.30 17.00-14.19 17.00-14.02L16.56-0.20C16.56-0.05 16.45 0.07 16.28 0.07Z" fill="currentColor"/>
</svg>