<svg xmlns="http://www.w3.org/2000/svg" viewBox="0 0 24 24" width="24" height="24">
  
  <path transform="matrix(0.7397774888021962, 0, 0, 0.7397774888021962, -0.21066319895968766, 18.259211096662334)" d="M5.19-0.82L27.82-0.82C29.23-0.82 30.02-1.61 30.02-3.02L30.02-16.68C30.02-18.09 29.23-18.88 27.82-18.88L5.19-18.88C3.77-18.88 2.99-18.09 2.99-16.68L2.99-3.02C2.99-1.61 3.77-0.82 5.19-0.82ZM10.99 1.96L22.02 1.96C22.20 1.96 22.32 1.84 22.32 1.66C22.32 1.50 22.20 1.38 22.02 1.38L10.99 1.38C10.82 1.38 10.69 1.50 10.69 1.66C10.69 1.84 10.82 1.96 10.99 1.96Z" fill="currentColor"/>
</svg>