<svg xmlns="http://www.w3.org/2000/svg" viewBox="0 0 24 24" width="24" height="24">
  
  <path transform="matrix(0.7391367114190848, 0, 0, 0.7391367114190848, -0.2087483759203117, 18.253789519272413)" d="M3.27-12.12C3.46-12.12 3.56-12.23 3.56-12.42L3.56-15.68C3.56-17.30 4.41-18.14 6.02-18.14L9.28-18.14C9.47-18.14 9.59-18.23 9.59-18.42C9.59-18.61 9.47-18.71 9.28-18.71L6-18.71C4.03-18.71 2.99-17.67 2.99-15.70L2.99-12.42C2.99-12.23 3.09-12.12 3.27-12.12ZM29.77-12.12C29.95-12.12 30.05-12.23 30.05-12.42L30.05-15.70C30.05-17.67 29.00-18.71 27.05-18.71L23.75-18.71C23.57-18.71 23.46-18.61 23.46-18.42C23.46-18.23 23.57-18.14 23.75-18.14L27.01-18.14C28.64-18.14 29.47-17.30 29.47-15.68L29.47-12.42C29.47-12.23 29.58-12.12 29.77-12.12ZM3.27-4.80C3.09-4.80 2.99-4.69 2.99-4.50L2.99-1.22C2.99 0.75 4.03 1.79 6 1.79L9.28 1.79C9.47 1.79 9.59 1.69 9.59 1.50C9.59 1.31 9.47 1.22 9.28 1.22L6.02 1.22C4.41 1.22 3.56 0.38 3.56-1.25L3.56-4.50C3.56-4.69 3.46-4.80 3.27-4.80ZM29.77-4.80C29.58-4.80 29.47-4.69 29.47-4.50L29.47-1.25C29.47 0.38 28.64 1.22 27.01 1.22L23.75 1.22C23.57 1.22 23.46 1.31 23.46 1.50C23.46 1.69 23.57 1.79 23.75 1.79L27.05 1.79C29.00 1.79 30.05 0.75 30.05-1.22L30.05-4.50C30.05-4.69 29.95-4.80 29.77-4.80Z" fill="currentColor"/>
</svg>