<svg xmlns="http://www.w3.org/2000/svg" viewBox="0 0 24 24" width="24" height="24">
  
  <path transform="matrix(0.8806329549363605, 0, 0, 0.8806329549363605, 0.15273477812177494, 19.45098039215686)" d="M13.45 2.89C19.73 2.89 24.81-2.19 24.81-8.46C24.81-14.74 19.73-19.82 13.45-19.82C7.18-19.82 2.10-14.74 2.10-8.46C2.10-2.19 7.18 2.89 13.45 2.89ZM13.45-19.24C17.45-19.24 20.94-17.07 22.80-13.85L4.10-13.85C5.96-17.07 9.46-19.24 13.45-19.24ZM13.45 2.32C7.49 2.32 2.67-2.50 2.67-8.46C2.67-10.20 3.07-11.82 3.80-13.27L23.11-13.27C23.84-11.82 24.23-10.20 24.23-8.46C24.23-2.50 19.42 2.32 13.45 2.32Z" fill="currentColor"/>
</svg>