<svg xmlns="http://www.w3.org/2000/svg" viewBox="0 0 24 24" width="24" height="24">
  
  <path transform="matrix(0.9719058466211086, 0, 0, 0.9719058466211086, -0.06150341685649119, 20.211845102505695)" d="M7.80 1.84L15.83 1.84C18.80 1.84 20.64 0 20.64-2.96L20.64-9.64L20.87-9.64C21.46-9.64 21.83-10.08 21.83-10.71L21.83-12.90C21.83-13.52 21.46-13.95 20.87-13.95L20.64-13.95C20.64-16.90 18.80-18.74 15.83-18.74L7.80-18.74C4.83-18.74 2.99-16.90 2.99-13.93L2.99-2.96C2.99 0 4.83 1.84 7.80 1.84ZM7.80 1.27C5.16 1.27 3.56-0.30 3.56-2.96L3.56-13.93C3.56-16.58 5.16-18.16 7.80-18.16L15.83-18.16C18.47-18.16 20.06-16.58 20.06-13.93L20.06-2.96C20.06-0.30 18.47 1.27 15.83 1.27ZM11.21-8.03C11.54-7.75 11.81-7.72 12.14-8.03L17.43-12.68C17.59-12.83 17.59-13.05 17.41-13.23C17.29-13.37 17.04-13.39 16.84-13.22L11.67-8.67L8.66-11.27C8.51-11.39 8.29-11.37 8.12-11.19C7.97-11.04 8.00-10.78 8.18-10.64Z" fill="currentColor"/>
</svg>