<svg xmlns="http://www.w3.org/2000/svg" viewBox="0 0 24 24" width="24" height="24">
  <title>water.waves.and.arrow.trianglehead.down</title>
  <path transform="matrix(0.8490878938640133, 0, 0, 0.8490878938640133, -0.5373134328358211, 18.171641791044777)" d="M14.77-13.71C17.55-13.71 18.02-16.09 20.33-16.09C22.69-16.09 23.02-13.71 26.19-13.71L26.25-13.71C26.41-13.71 26.54-13.84 26.54-14.00C26.54-14.16 26.41-14.29 26.25-14.29L26.19-14.29C24.75-14.29 23.92-14.92 23.03-15.54C22.27-16.09 21.47-16.66 20.33-16.66C19.17-16.66 18.35-16.05 17.58-15.49C16.78-14.87 16.00-14.29 14.77-14.29C13.54-14.29 12.75-14.87 11.94-15.49C11.18-16.05 10.36-16.66 9.20-16.66C8.06-16.66 7.27-16.09 6.50-15.54C5.61-14.92 4.78-14.29 3.34-14.29L3.28-14.29C3.12-14.29 2.99-14.16 2.99-14.00C2.99-13.84 3.12-13.71 3.28-13.71L3.34-13.71C6.52-13.71 6.84-16.09 9.20-16.09C11.51-16.09 11.98-13.71 14.77-13.71ZM11.74-3.12C11.30-3.12 11.11-2.80 11.43-2.37L14.37 1.86C14.61 2.21 14.94 2.21 15.20 1.86L18.14-2.37C18.46-2.80 18.26-3.12 17.81-3.12L15.07-3.12L15.07-10.89C15.07-11.05 14.94-11.18 14.78-11.18C14.63-11.18 14.50-11.05 14.50-10.89L14.50-3.12ZM9.20-9.38C11.14-9.38 11.79-7.69 13.61-7.15L13.61-7.76C12.98-7.99 12.47-8.37 11.96-8.77C11.19-9.33 10.37-9.95 9.20-9.95C8.06-9.95 7.27-9.36 6.50-8.81C5.61-8.20 4.78-7.57 3.34-7.57L3.28-7.57C3.12-7.57 2.99-7.44 2.99-7.28C2.99-7.13 3.12-7.00 3.28-7.00L3.34-7.00C6.52-7.00 6.84-9.38 9.20-9.38ZM20.33-9.38C22.69-9.38 23.02-7.00 26.19-7.00L26.25-7.00C26.41-7.00 26.54-7.13 26.54-7.28C26.54-7.44 26.41-7.57 26.25-7.57L26.19-7.57C24.75-7.57 23.92-8.20 23.03-8.81C22.27-9.36 21.47-9.95 20.33-9.95C19.16-9.95 18.34-9.33 17.57-8.77C17.06-8.37 16.56-7.99 15.95-7.76L15.95-7.16C17.75-7.70 18.39-9.38 20.33-9.38Z" fill="currentColor"/>
</svg>