<svg xmlns="http://www.w3.org/2000/svg" viewBox="0 0 24 24" width="24" height="24">
  
  <path transform="matrix(0.77881060237846, 0, 0, 0.77881060237846, 0.36335364713374463, 18.64938078870095)" d="M14.93-15.97C10.38-15.97 6-14.57 2.24-11.95C1.91-11.73 2.24-11.31 2.53-11.50C6.20-14.03 10.45-15.38 14.93-15.38C19.44-15.38 23.68-14.04 27.35-11.50C27.68-11.27 27.95-11.74 27.66-11.95C23.88-14.59 19.50-15.97 14.93-15.97ZM14.93-9.94C11.53-9.94 8.27-8.86 5.55-6.86C5.23-6.62 5.54-6.18 5.85-6.40C8.50-8.33 11.63-9.35 14.93-9.35C18.25-9.35 21.39-8.33 24.04-6.40C24.35-6.18 24.66-6.62 24.33-6.86C21.61-8.86 18.35-9.94 14.93-9.94ZM14.93-3.91C12.67-3.91 10.55-3.13 8.93-1.66C8.60-1.36 8.98-0.97 9.23-1.21C10.75-2.58 12.75-3.33 14.93-3.33C17.12-3.33 19.10-2.58 20.64-1.18C20.92-0.94 21.36-1.30 20.95-1.66C19.32-3.13 17.23-3.91 14.93-3.91Z" fill="currentColor"/>
</svg>