<svg xmlns="http://www.w3.org/2000/svg" viewBox="0 0 24 24" width="24" height="24">
  <title>waveform.and.person.filled</title>
  <path transform="matrix(0.7591933570581257, 0, 0, 0.7591933570581257, -0.2686832740213525, 18.254448398576514)" d="M10.44 3.22C10.62 3.22 10.73 3.11 10.73 2.94L10.73-19.85C10.73-20.02 10.62-20.13 10.44-20.13C10.28-20.13 10.16-20.02 10.16-19.85L10.16 2.94C10.16 3.11 10.28 3.22 10.44 3.22ZM17.32-1.52C17.51-1.65 17.70-1.77 17.89-1.90L17.89-16.55C17.89-16.71 17.79-16.83 17.61-16.83C17.44-16.83 17.32-16.71 17.32-16.55ZM6.87-1.49C7.03-1.49 7.15-1.61 7.15-1.77L7.15-15.14C7.15-15.30 7.03-15.42 6.87-15.42C6.69-15.42 6.57-15.30 6.57-15.14L6.57-1.77C6.57-1.61 6.69-1.49 6.87-1.49ZM14.03-2.45C14.20-2.45 14.32-2.57 14.32-2.74L14.32-14.17C14.32-14.34 14.20-14.46 14.03-14.46C13.85-14.46 13.75-14.34 13.75-14.17L13.75-2.74C13.75-2.57 13.85-2.45 14.03-2.45ZM3.28-5.44C3.46-5.44 3.56-5.55 3.56-5.72L3.56-11.19C3.56-11.36 3.46-11.47 3.28-11.47C3.11-11.47 2.99-11.36 2.99-11.19L2.99-5.72C2.99-5.55 3.11-5.44 3.28-5.44ZM22.52-3.74C24.34-3.74 25.72-5.30 25.72-7.29C25.72-9.16 24.30-10.76 22.52-10.76C20.77-10.76 19.35-9.16 19.35-7.29C19.35-5.30 20.73-3.74 22.52-3.74ZM16.83 3.66L28.21 3.66C28.88 3.66 29.33 3.28 29.33 2.72C29.33 0.63 26.71-2.26 22.51-2.26C18.32-2.26 15.69 0.63 15.69 2.72C15.69 3.28 16.14 3.66 16.83 3.66Z" fill="currentColor"/>
</svg>