<svg xmlns="http://www.w3.org/2000/svg" viewBox="0 0 24 24" width="24" height="24">
  <title>web.camera</title>
  <path transform="matrix(0.9225225225225225, 0, 0, 0.9225225225225225, 1.2594594594594595, 19.805405405405406)" d="M7.88 2.38L15.41 2.38C15.57 2.38 15.70 2.25 15.70 2.10C15.70 1.93 15.57 1.80 15.41 1.80L11.94 1.80L11.94-2.00C16.57-2.16 20.30-5.96 20.30-10.65C20.30-15.43 16.42-19.30 11.65-19.30C6.87-19.30 2.99-15.43 2.99-10.65C2.99-5.96 6.71-2.16 11.37-2.00L11.37 1.80L7.89 1.80C7.73 1.80 7.59 1.93 7.59 2.10C7.59 2.25 7.71 2.38 7.88 2.38ZM11.65-2.57C7.11-2.57 3.56-6.11 3.56-10.65C3.56-15.20 7.11-18.73 11.65-18.73C16.17-18.73 19.72-15.20 19.72-10.65C19.72-6.11 16.17-2.57 11.65-2.57ZM11.65-5.67C14.43-5.67 16.61-7.86 16.61-10.65C16.61-13.43 14.43-15.63 11.65-15.63C8.87-15.63 6.68-13.43 6.68-10.65C6.68-7.86 8.87-5.67 11.65-5.67ZM11.65-8.33C10.35-8.33 9.34-9.36 9.34-10.65C9.34-11.95 10.35-12.97 11.65-12.97C12.94-12.97 13.95-11.95 13.95-10.65C13.95-9.36 12.94-8.33 11.65-8.33Z" fill="currentColor"/>
</svg>