<svg xmlns="http://www.w3.org/2000/svg" viewBox="0 0 24 24" width="24" height="24">
  <title>wifi.slash</title>
  <path transform="matrix(0.7635500895043634, 0, 0, 0.7635500895043634, 0.5541050705532655, 19.4290381019343)" d="M25.49 0.29C25.61 0.40 25.79 0.40 25.90 0.29C26.04 0.15 26.02-0.01 25.90-0.13L5.68-20.34C5.59-20.45 5.40-20.47 5.27-20.34C5.16-20.23 5.16-20.04 5.27-19.93ZM12.48-14.81C13.30-14.93 14.13-14.99 14.99-14.99C19.31-14.99 23.25-13.41 26.03-10.37C26.20-10.17 26.43-10.17 26.61-10.36L27.96-11.71C28.13-11.87 28.13-12.08 27.98-12.26C25.28-15.55 20.10-17.86 14.99-17.86C13.35-17.86 11.68-17.63 10.10-17.19ZM7.62-16.32C5.32-15.33 3.34-13.92 1.99-12.26C1.85-12.08 1.86-11.87 2.02-11.71L3.36-10.36C3.55-10.17 3.77-10.17 3.95-10.37C5.60-12.09 7.58-13.36 9.81-14.14ZM21.77-5.48L23.30-7.00C23.45-7.15 23.46-7.34 23.33-7.50C21.86-9.34 19.20-10.64 16.34-10.96ZM13.07-10.88C10.42-10.45 8.03-9.20 6.64-7.50C6.52-7.34 6.53-7.15 6.68-7.00L8.25-5.45C8.43-5.29 8.63-5.29 8.82-5.50C10.54-7.32 13.27-8.37 15.84-8.10ZM14.99-4.18C13.56-4.18 12.12-3.43 11.50-2.60C11.38-2.40 11.39-2.27 11.52-2.16L14.27 0.49C14.66 0.88 14.82 0.97 14.99 0.97C15.15 0.97 15.32 0.87 15.70 0.49L18.46-2.16C18.59-2.27 18.62-2.40 18.48-2.60C17.86-3.43 16.42-4.18 14.99-4.18Z" fill="currentColor"/>
</svg>