<svg xmlns="http://www.w3.org/2000/svg" viewBox="0 0 24 24" width="24" height="24">
  <title>windshield.rear.and.wiper.intermittent</title>
  <path transform="matrix(0.7219402143260011, 0, 0, 0.7219402143260011, -0.15736040609137047, 18.112521150592215)" d="M3.28-20.61L10.00-20.61C10.16-20.61 10.29-20.74 10.29-20.89C10.29-21.06 10.16-21.19 10.00-21.19L3.28-21.19C3.12-21.19 2.99-21.06 2.99-20.89C2.99-20.74 3.12-20.61 3.28-20.61ZM13.48-20.61L20.20-20.61C20.36-20.61 20.48-20.74 20.48-20.89C20.48-21.06 20.36-21.19 20.20-21.19L13.48-21.19C13.32-21.19 13.20-21.06 13.20-20.89C13.20-20.74 13.32-20.61 13.48-20.61ZM23.68-20.61L30.41-20.61C30.56-20.61 30.69-20.74 30.69-20.89C30.69-21.06 30.56-21.19 30.41-21.19L23.68-21.19C23.53-21.19 23.40-21.06 23.40-20.89C23.40-20.74 23.53-20.61 23.68-20.61ZM6-1.22L14.32-1.22L15.48 0.70C15.04 1.07 14.74 1.63 14.74 2.25C14.74 3.36 15.63 4.25 16.75 4.25C17.85 4.25 18.76 3.35 18.76 2.25C18.76 1.15 17.85 0.25 16.75 0.25C16.48 0.25 16.22 0.29 15.97 0.40L15-1.22L27.68-1.22C29.65-1.22 30.69-2.30 30.69-4.23L30.69-12.84C30.69-14.78 29.65-15.86 27.68-15.86L6.21-15.86L5.48-17.05C5.41-17.17 5.26-17.27 5.07-17.17C4.91-17.07 4.90-16.89 4.97-16.78L5.54-15.83C3.87-15.68 2.99-14.65 2.99-12.84L2.99-4.23C2.99-2.26 4.03-1.22 6-1.22ZM27.66-15.28C29.21-15.28 30.12-14.44 30.12-12.81L30.12-4.25C30.12-2.64 29.21-1.79 27.66-1.79L14.66-1.79L6.55-15.28ZM6.04-1.79C4.41-1.79 3.56-2.64 3.56-4.25L3.56-12.81C3.56-14.38 4.35-15.22 5.87-15.28L13.98-1.79ZM16.75 3.71C15.95 3.71 15.29 3.05 15.29 2.25C15.29 1.45 15.95 0.79 16.75 0.79C17.53 0.79 18.21 1.46 18.21 2.25C18.21 3.05 17.54 3.71 16.75 3.71Z" fill="currentColor"/>
</svg>