<svg xmlns="http://www.w3.org/2000/svg" viewBox="0 0 24 24" width="24" height="24">
  <title>windshield.front.and.wiper.and.drop</title>
  <path transform="matrix(0.6133522831238258, 0, 0, 0.6133522831238258, 0.7137326207115875, 17.58126618569122)" d="M25.30-9.39C27.53-9.39 29.00-10.82 29.00-12.98C29.00-13.88 28.65-14.99 28.08-16.18C27.47-17.50 26.66-18.89 25.82-20.18C25.66-20.40 25.52-20.50 25.30-20.50C25.08-20.50 24.95-20.40 24.80-20.18C23.95-18.89 23.14-17.50 22.54-16.18C21.96-14.99 21.60-13.88 21.60-12.98C21.60-10.82 23.09-9.39 25.30-9.39ZM18.40 2.30C19.50 2.30 20.41 1.39 20.41 0.29C20.41-0.81 19.50-1.72 18.40-1.72C18.13-1.72 17.87-1.66 17.63-1.56L16.37-3.66C17.04-3.74 17.72-3.77 18.40-3.77C21.12-3.77 23.68-3.15 25.86-2.14C26.33-1.92 26.86-1.99 27.19-2.41L34.45-11.86C34.88-12.40 34.75-12.98 34.22-13.37C32.91-14.33 31.15-15.20 29.18-15.90C29.27-15.66 29.38-15.40 29.46-15.15C31.07-14.54 32.53-13.82 33.79-12.97C34.09-12.75 34.16-12.40 33.91-12.08L26.79-2.85C26.53-2.53 26.36-2.58 26.09-2.68C23.65-3.70 20.99-4.35 18.40-4.35C17.63-4.35 16.84-4.29 16.05-4.18L9.09-15.76C12.02-16.69 15.29-17.20 18.40-17.20C19.56-17.20 20.75-17.13 21.93-16.99C22.02-17.18 22.11-17.36 22.21-17.54C20.94-17.71 19.66-17.78 18.40-17.78C15.16-17.78 11.77-17.21 8.78-16.28L7.15-18.98C7.08-19.10 6.93-19.21 6.74-19.10C6.57-19.02 6.56-18.83 6.63-18.71L8.20-16.10C6-15.36 4.03-14.43 2.58-13.37C2.05-12.98 1.93-12.40 2.34-11.86L9.62-2.41C9.95-1.99 10.46-1.92 10.95-2.14C12.39-2.81 14.02-3.32 15.74-3.57L17.13-1.25C16.69-0.89 16.39-0.33 16.39 0.29C16.39 1.41 17.29 2.30 18.40 2.30ZM10.01-2.85L2.88-12.08C2.65-12.40 2.71-12.75 3.02-12.97C4.56-14.00 6.46-14.89 8.52-15.59L15.43-4.08C13.82-3.81 12.22-3.32 10.71-2.68C10.44-2.58 10.27-2.53 10.01-2.85ZM18.40 1.75C17.60 1.75 16.95 1.09 16.95 0.29C16.95-0.50 17.60-1.17 18.40-1.17C19.18-1.17 19.86-0.49 19.86 0.29C19.86 1.09 19.20 1.75 18.40 1.75Z" fill="currentColor"/>
</svg>