<svg xmlns="http://www.w3.org/2000/svg" viewBox="0 0 24 24" width="24" height="24">
  <title>wineglass.fill</title>
  <path transform="matrix(0.7843137254901961, 0, 0, 0.7843137254901961, 3.6268382352941178, 18.636029411764707)" d="M10.66 4.29C14.18 4.29 16.39 3.47 16.39 2.33C16.39 1.22 14.27 0.43 10.97 0.39L10.97-5.77C15.45-5.88 18.36-8.55 18.36-12.60C18.36-14.80 17.44-17.67 16.08-19.79C15.52-20.66 13.48-21.21 10.69-21.21C7.88-21.21 5.84-20.66 5.27-19.79C3.91-17.67 2.99-14.80 2.99-12.60C2.99-8.55 5.91-5.88 10.38-5.77L10.38 0.39C7.05 0.43 4.96 1.22 4.96 2.33C4.96 3.48 7.15 4.29 10.66 4.29ZM10.69-18.60C8.30-18.60 5.82-19.25 5.82-19.63C5.82-19.98 8.33-20.64 10.69-20.64C13.02-20.64 15.53-19.98 15.53-19.63C15.53-19.25 13.04-18.60 10.69-18.60Z" fill="currentColor"/>
</svg>