<svg xmlns="http://www.w3.org/2000/svg" viewBox="0 0 24 24" width="24" height="24">
  <title>x.circle.fill</title>
  <path transform="matrix(0.8806329549363605, 0, 0, 0.8806329549363605, 0.15273477812177494, 19.45098039215686)" d="M13.45 2.89C19.70 2.89 24.81-2.21 24.81-8.46C24.81-14.71 19.70-19.82 13.45-19.82C7.21-19.82 2.10-14.71 2.10-8.46C2.10-2.21 7.21 2.89 13.45 2.89ZM10.14-3.22C9.96-3.22 9.84-3.33 9.84-3.48C9.84-3.55 9.88-3.61 9.93-3.68L13.11-8.45L9.96-13.18C9.93-13.25 9.89-13.31 9.89-13.38C9.89-13.56 10.01-13.68 10.16-13.68C10.31-13.68 10.38-13.62 10.45-13.50L13.42-8.96L13.48-8.96L16.48-13.50C16.55-13.62 16.62-13.68 16.76-13.68C16.92-13.68 17.04-13.56 17.04-13.42C17.04-13.35 17.02-13.29 16.97-13.22L13.78-8.45L16.92-3.70C16.97-3.63 16.99-3.57 16.99-3.50C16.99-3.33 16.88-3.22 16.72-3.22C16.58-3.22 16.50-3.28 16.43-3.39L13.46-7.92L13.41-7.92L10.41-3.39C10.34-3.28 10.27-3.22 10.14-3.22Z" fill="currentColor"/>
</svg>