<svg xmlns="http://www.w3.org/2000/svg" viewBox="0 0 24 24" width="24" height="24">
  <title>xmark.diamond.fill</title>
  <path transform="matrix(0.7960591176664524, 0, 0, 0.7960591176664524, 0.10624998961379095, 18.73366983284717)" d="M3.43-6.33L12.82 3.06C14.23 4.46 15.71 4.43 17.09 3.06L26.45-6.33C27.82-7.70 27.88-9.19 26.47-10.59L17.10-19.97C15.68-21.39 14.23-21.35 12.82-19.96L3.43-10.59C2.03-9.19 2.03-7.73 3.43-6.33ZM10.98-4.17C10.79-4.17 10.65-4.30 10.65-4.46C10.65-4.57 10.68-4.64 10.77-4.73L14.48-8.45L10.77-12.16C10.68-12.26 10.65-12.33 10.65-12.42C10.65-12.60 10.79-12.73 10.98-12.73C11.10-12.73 11.16-12.70 11.26-12.60L14.95-8.91L18.63-12.60C18.74-12.70 18.81-12.73 18.91-12.73C19.10-12.73 19.24-12.60 19.24-12.42C19.24-12.33 19.22-12.26 19.13-12.16L15.41-8.45L19.13-4.73C19.22-4.64 19.24-4.57 19.24-4.46C19.24-4.30 19.10-4.17 18.91-4.17C18.81-4.17 18.74-4.20 18.63-4.30L14.95-7.98L11.26-4.30C11.16-4.20 11.10-4.17 10.98-4.17Z" fill="currentColor"/>
</svg>