<svg xmlns="http://www.w3.org/2000/svg" viewBox="0 0 24 24" width="24" height="24">
  <title>06.circle</title>
  <path transform="matrix(0.8366013071895425, 0, 0, 0.8366013071895425, 0.2450980392156863, 19.07843137254902)" d="M14.05 3.49C20.65 3.49 26.00-1.86 26.00-8.46C26.00-15.06 20.65-20.41 14.05-20.41C7.45-20.41 2.10-15.06 2.10-8.46C2.10-1.86 7.45 3.49 14.05 3.49ZM14.05 1.50C8.54 1.50 4.09-2.95 4.09-8.46C4.09-13.97 8.54-18.42 14.05-18.42C19.56-18.42 24.01-13.97 24.01-8.46C24.01-2.95 19.56 1.50 14.05 1.50ZM10.18-3.48C12.52-3.48 13.22-6.11 13.22-8.46C13.22-10.82 12.52-13.44 10.18-13.44C7.84-13.44 7.15-10.82 7.15-8.46C7.15-6.11 7.84-3.48 10.18-3.48ZM17.66-3.48C19.45-3.48 20.48-4.98 20.48-6.82C20.48-8.40 19.71-9.90 18.16-9.90C17.21-9.90 16.49-9.27 16.23-8.26L16.18-8.26L16.18-8.39C16.18-9.69 16.34-12.05 17.65-12.05C18.18-12.05 18.53-11.67 18.74-11.18C18.90-10.82 19.13-10.65 19.50-10.65C19.97-10.65 20.18-10.97 20.18-11.36C20.18-11.48 20.16-11.63 20.12-11.78C19.88-12.79 18.86-13.42 17.68-13.42C15.28-13.42 14.58-10.72 14.58-8.34C14.58-6.13 15.29-3.48 17.66-3.48ZM10.18-4.88C9.22-4.88 8.86-6.43 8.86-8.46C8.86-10.50 9.22-12.06 10.18-12.06C11.14-12.06 11.51-10.50 11.51-8.46C11.51-6.43 11.14-4.88 10.18-4.88ZM17.64-4.85C16.76-4.85 16.41-5.95 16.41-6.80C16.41-7.65 16.79-8.63 17.64-8.63C18.50-8.63 18.87-7.62 18.84-6.75C18.84-5.89 18.46-4.85 17.64-4.85Z" fill="currentColor"/>
</svg>