<svg xmlns="http://www.w3.org/2000/svg" viewBox="0 0 24 24" width="24" height="24">
  <title>1.brakesignal</title>
  <path transform="matrix(0.5979911235692595, 0, 0, 0.5979911235692595, 0.7456201822004205, 17.05956552207428)" d="M18.82 2.96C25.14 2.96 30.26-2.16 30.26-8.46C30.26-14.78 25.14-19.89 18.82-19.89C12.52-19.89 7.39-14.78 7.39-8.46C7.39-2.16 12.52 2.96 18.82 2.96ZM35.54-8.46C35.54-12.18 34.35-15.60 32.30-18.38C31.93-18.87 31.31-18.93 30.84-18.55C30.41-18.19 30.38-17.61 30.70-17.17C32.50-14.72 33.54-11.72 33.54-8.46C33.54-5.21 32.50-2.20 30.70 0.22C30.38 0.69 30.42 1.25 30.84 1.62C31.31 1.99 31.93 1.95 32.30 1.44C34.35-1.34 35.54-4.75 35.54-8.46ZM2.10-8.46C2.10-4.75 3.30-1.34 5.34 1.44C5.71 1.95 6.33 1.99 6.80 1.62C7.22 1.25 7.28 0.69 6.94 0.22C5.16-2.20 4.10-5.21 4.10-8.46C4.10-11.72 5.16-14.72 6.94-17.17C7.28-17.61 7.23-18.19 6.80-18.55C6.33-18.93 5.71-18.87 5.34-18.38C3.30-15.60 2.10-12.18 2.10-8.46ZM18.82 0.97C13.62 0.97 9.39-3.26 9.39-8.46C9.39-13.68 13.62-17.91 18.82-17.91C24.04-17.91 28.27-13.68 28.27-8.46C28.27-3.26 24.04 0.97 18.82 0.97ZM19.43-2.88C20.03-2.88 20.38-3.28 20.38-3.94L20.38-12.98C20.38-13.66 20.02-14.04 19.38-14.04C18.95-14.04 18.64-13.92 18.14-13.58L16.03-12.15C15.77-11.98 15.67-11.79 15.67-11.50C15.67-11.13 15.96-10.79 16.34-10.79C16.51-10.79 16.64-10.83 16.91-11.00L18.42-12L18.50-12L18.50-3.94C18.50-3.28 18.84-2.88 19.43-2.88Z" fill="currentColor"/>
</svg>