<svg xmlns="http://www.w3.org/2000/svg" viewBox="0 0 24 24" width="24" height="24">
  <title>1.lane</title>
  <path transform="matrix(0.9270324099221438, 0, 0, 0.9270324099221438, -0.7702335687126562, 19.827267789244978)" d="M2.99-0.56C2.99-0.05 3.41 0.39 3.93 0.39C4.45 0.39 4.88-0.05 4.88-0.56L4.88-16.34C4.88-16.85 4.45-17.27 3.93-17.27C3.41-17.27 2.99-16.85 2.99-16.34ZM22.68-0.56C22.68-0.05 23.11 0.39 23.63 0.39C24.14 0.39 24.56-0.05 24.56-0.56L24.56-16.34C24.56-16.85 24.14-17.27 23.63-17.27C23.11-17.27 22.68-16.85 22.68-16.34ZM14.36-2.98C14.93-2.98 15.28-3.39 15.28-3.96L15.28-12.39C15.28-13.05 14.87-13.43 14.21-13.43C13.69-13.43 13.30-13.21 12.88-12.88L11.37-11.77C11.11-11.57 10.95-11.34 10.95-11.02C10.95-10.64 11.23-10.34 11.61-10.34C11.80-10.34 11.93-10.39 12.08-10.51L13.41-11.51L13.43-11.51L13.43-3.96C13.43-3.38 13.78-2.98 14.36-2.98Z" fill="currentColor"/>
</svg>