<svg xmlns="http://www.w3.org/2000/svg" viewBox="0 0 24 24" width="24" height="24">
  <title>15.square.fill</title>
  <path transform="matrix(0.9270324099221438, 0, 0, 0.9270324099221438, -0.7702335687126562, 19.83813145029875)" d="M6.67 2.33L20.88 2.33C23.34 2.33 24.56 1.13 24.56-1.29L24.56-15.61C24.56-18.02 23.34-19.24 20.88-19.24L6.67-19.24C4.22-19.24 2.99-18.02 2.99-15.61L2.99-1.29C2.99 1.13 4.22 2.33 6.67 2.33ZM10.50-3.45C10.02-3.45 9.62-3.84 9.62-4.34L9.62-11.66L8.51-10.77C8.39-10.68 8.27-10.62 8.07-10.62C7.71-10.62 7.45-10.89 7.45-11.26C7.45-11.58 7.63-11.81 7.83-11.98L9.15-13.01C9.45-13.22 9.87-13.50 10.37-13.50C11.00-13.50 11.39-13.14 11.39-12.52L11.39-4.34C11.39-3.84 10.99-3.45 10.50-3.45ZM16.27-3.33C15.16-3.33 14.10-3.96 13.68-4.95C13.57-5.18 13.50-5.45 13.50-5.73C13.50-6.18 13.78-6.46 14.23-6.46C14.55-6.46 14.82-6.28 14.96-5.89C15.19-5.23 15.56-4.75 16.24-4.75C17.13-4.75 17.48-5.77 17.48-6.77C17.48-7.66 17.14-8.73 16.25-8.73C15.77-8.73 15.47-8.45 15.20-8.05C14.94-7.72 14.75-7.59 14.41-7.59C13.86-7.59 13.63-8.00 13.63-8.46C13.63-8.63 13.63-8.81 13.64-9L13.84-12.30C13.89-12.94 14.17-13.35 14.80-13.35L18.13-13.35C18.53-13.35 18.80-13.03 18.80-12.63C18.80-12.20 18.54-11.92 18.13-11.92L15.29-11.92L15.09-8.99L15.15-8.99C15.46-9.68 16.11-10.01 16.83-10.01C18.39-10.01 19.18-8.48 19.18-6.82C19.18-4.91 18.14-3.33 16.27-3.33Z" fill="currentColor"/>
</svg>