<svg xmlns="http://www.w3.org/2000/svg" viewBox="0 0 24 24" width="24" height="24">
  <title>17.square.fill</title>
  <path transform="matrix(0.9270324099221438, 0, 0, 0.9270324099221438, -0.7702335687126562, 19.83813145029875)" d="M6.67 2.33L20.88 2.33C23.34 2.33 24.56 1.13 24.56-1.29L24.56-15.61C24.56-18.02 23.34-19.24 20.88-19.24L6.67-19.24C4.22-19.24 2.99-18.02 2.99-15.61L2.99-1.29C2.99 1.13 4.22 2.33 6.67 2.33ZM11.07-3.45C10.58-3.45 10.18-3.84 10.18-4.34L10.18-11.66L9.08-10.77C8.95-10.68 8.84-10.62 8.65-10.62C8.29-10.62 8.03-10.89 8.03-11.26C8.03-11.58 8.19-11.81 8.40-11.98L9.73-13.01C10.02-13.22 10.43-13.50 10.95-13.50C11.57-13.50 11.95-13.14 11.95-12.52L11.95-4.34C11.95-3.84 11.55-3.45 11.07-3.45ZM15.46-3.41C14.88-3.41 14.66-3.81 14.66-4.16C14.66-4.45 14.70-4.61 14.80-4.88L17.48-11.80L17.48-11.91L14.38-11.91C13.97-11.91 13.68-12.21 13.68-12.63C13.68-13.04 13.97-13.35 14.38-13.35L18.28-13.35C18.82-13.35 19.25-12.97 19.25-12.41C19.25-12.06 19.16-11.77 19.03-11.39L16.28-4.03C16.10-3.59 15.91-3.41 15.46-3.41Z" fill="currentColor"/>
</svg>