<svg xmlns="http://www.w3.org/2000/svg" viewBox="0 0 24 24" width="24" height="24">
  <title>30.circle</title>
  <path transform="matrix(0.8366013071895425, 0, 0, 0.8366013071895425, 0.2450980392156863, 19.07843137254902)" d="M14.05 3.49C20.65 3.49 26.00-1.86 26.00-8.46C26.00-15.06 20.65-20.41 14.05-20.41C7.45-20.41 2.10-15.06 2.10-8.46C2.10-1.86 7.45 3.49 14.05 3.49ZM14.05 1.50C8.54 1.50 4.09-2.95 4.09-8.46C4.09-13.97 8.54-18.42 14.05-18.42C19.56-18.42 24.01-13.97 24.01-8.46C24.01-2.95 19.56 1.50 14.05 1.50ZM17.64-3.49C19.98-3.49 20.67-6.12 20.67-8.47C20.67-10.83 19.98-13.45 17.64-13.45C15.30-13.45 14.61-10.83 14.61-8.47C14.61-6.12 15.30-3.49 17.64-3.49ZM10.41-3.53C12.08-3.53 13.38-4.58 13.38-6.34C13.38-7.79 12.50-8.51 11.52-8.61L11.52-8.66C12.59-8.94 13.10-9.88 13.10-10.86C13.10-12.48 11.88-13.41 10.36-13.41C9.15-13.41 8.10-12.73 7.77-11.68C7.70-11.46 7.68-11.25 7.68-11.05C7.68-10.68 7.93-10.36 8.40-10.36C8.80-10.36 9.02-10.52 9.14-10.92C9.33-11.61 9.70-12.06 10.36-12.06C11.13-12.06 11.51-11.45 11.51-10.68C11.51-9.82 11.03-9.20 10.15-9.20L9.87-9.20C9.47-9.20 9.22-8.95 9.22-8.58C9.22-8.19 9.48-7.96 9.87-7.96L10.16-7.96C11.16-7.96 11.71-7.42 11.71-6.39C11.71-5.58 11.29-4.90 10.41-4.90C9.55-4.90 9.18-5.47 9.04-6C8.92-6.38 8.67-6.57 8.29-6.57C7.83-6.57 7.52-6.30 7.52-5.84C7.52-5.63 7.56-5.41 7.62-5.23C7.96-4.14 9.14-3.53 10.41-3.53ZM17.64-4.89C16.69-4.89 16.32-6.45 16.32-8.47C16.32-10.51 16.69-12.07 17.64-12.07C18.60-12.07 18.96-10.51 18.96-8.47C18.96-6.45 18.60-4.89 17.64-4.89Z" fill="currentColor"/>
</svg>