<svg xmlns="http://www.w3.org/2000/svg" viewBox="0 0 24 24" width="24" height="24">
  <title>35.circle</title>
  <path transform="matrix(0.8366013071895425, 0, 0, 0.8366013071895425, 0.2450980392156863, 19.07843137254902)" d="M14.05 3.49C20.65 3.49 26.00-1.86 26.00-8.46C26.00-15.06 20.65-20.41 14.05-20.41C7.45-20.41 2.10-15.06 2.10-8.46C2.10-1.86 7.45 3.49 14.05 3.49ZM14.05 1.50C8.54 1.50 4.09-2.95 4.09-8.46C4.09-13.97 8.54-18.42 14.05-18.42C19.56-18.42 24.01-13.97 24.01-8.46C24.01-2.95 19.56 1.50 14.05 1.50ZM10.48-3.52C12.16-3.52 13.45-4.57 13.45-6.33C13.45-7.78 12.59-8.50 11.59-8.60L11.59-8.64C12.66-8.92 13.17-9.87 13.17-10.85C13.17-12.47 11.96-13.39 10.43-13.39C9.22-13.39 8.18-12.71 7.84-11.67C7.78-11.45 7.75-11.24 7.75-11.04C7.75-10.65 8.00-10.35 8.47-10.35C8.87-10.35 9.11-10.50 9.22-10.91C9.40-11.60 9.77-12.04 10.43-12.04C11.20-12.04 11.58-11.44 11.58-10.66C11.58-9.81 11.10-9.19 10.22-9.19L9.94-9.19C9.54-9.19 9.29-8.94 9.29-8.55C9.29-8.17 9.55-7.95 9.94-7.95L10.24-7.95C11.23-7.95 11.78-7.39 11.78-6.38C11.78-5.57 11.36-4.88 10.48-4.88C9.63-4.88 9.25-5.45 9.11-5.99C8.99-6.36 8.74-6.56 8.37-6.56C7.90-6.56 7.59-6.28 7.59-5.82C7.59-5.61 7.63-5.40 7.69-5.21C8.03-4.13 9.22-3.52 10.48-3.52ZM17.59-3.48C19.42-3.48 20.43-5.02 20.43-6.87C20.43-8.48 19.64-9.96 18.14-9.96C17.45-9.96 16.80-9.64 16.51-8.96L16.45-8.96L16.64-11.81L19.39-11.81C19.80-11.81 20.05-12.09 20.05-12.50C20.05-12.89 19.79-13.20 19.39-13.20L16.18-13.20C15.56-13.20 15.29-12.80 15.25-12.19L15.06-8.98C15.05-8.80 15.04-8.61 15.04-8.46C15.04-8.02 15.27-7.62 15.81-7.62C16.13-7.62 16.31-7.75 16.56-8.06C16.83-8.45 17.12-8.73 17.59-8.73C18.46-8.73 18.79-7.69 18.79-6.82C18.79-5.85 18.43-4.85 17.57-4.85C16.91-4.85 16.55-5.32 16.32-5.96C16.20-6.34 15.93-6.52 15.62-6.52C15.19-6.52 14.92-6.25 14.92-5.81C14.92-5.54 14.99-5.29 15.08-5.05C15.49-4.10 16.54-3.48 17.59-3.48Z" fill="currentColor"/>
</svg>