<svg xmlns="http://www.w3.org/2000/svg" viewBox="0 0 24 24" width="24" height="24">
  <title>41.square.fill</title>
  <path transform="matrix(0.9270324099221438, 0, 0, 0.9270324099221438, -0.7702335687126562, 19.83813145029875)" d="M6.67 2.33L20.88 2.33C23.34 2.33 24.56 1.13 24.56-1.29L24.56-15.61C24.56-18.02 23.34-19.24 20.88-19.24L6.67-19.24C4.22-19.24 2.99-18.02 2.99-15.61L2.99-1.29C2.99 1.13 4.22 2.33 6.67 2.33ZM17.84-3.45C17.33-3.45 16.93-3.84 16.93-4.34L16.93-11.66L15.82-10.77C15.70-10.68 15.59-10.62 15.40-10.62C15.02-10.62 14.77-10.89 14.77-11.26C14.77-11.58 14.94-11.81 15.15-11.98L16.49-13.01C16.76-13.22 17.18-13.50 17.68-13.50C18.32-13.50 18.70-13.14 18.70-12.52L18.70-4.34C18.70-3.84 18.30-3.45 17.84-3.45ZM11.95-3.42C11.57-3.42 11.11-3.64 11.11-4.28L11.11-5.48L8.41-5.48C7.82-5.48 7.42-5.88 7.42-6.47C7.42-6.84 7.48-7.16 7.69-7.63L9.84-12.32C10.18-13.07 10.58-13.50 11.43-13.50C12.23-13.50 12.77-13.03 12.77-12.19L12.77-6.89L13.21-6.89C13.70-6.89 13.89-6.59 13.89-6.20C13.89-5.79 13.68-5.48 13.21-5.48L12.77-5.48L12.77-4.28C12.77-3.70 12.40-3.42 11.95-3.42ZM11.14-6.86L11.14-11.98L11.10-11.98L8.91-6.94L8.91-6.86Z" fill="currentColor"/>
</svg>