<svg xmlns="http://www.w3.org/2000/svg" viewBox="0 0 24 24" width="24" height="24">
  <title>43.square.fill</title>
  <path transform="matrix(0.9270324099221438, 0, 0, 0.9270324099221438, -0.7702335687126562, 19.83813145029875)" d="M6.67 2.33L20.88 2.33C23.34 2.33 24.56 1.13 24.56-1.29L24.56-15.61C24.56-18.02 23.34-19.24 20.88-19.24L6.67-19.24C4.22-19.24 2.99-18.02 2.99-15.61L2.99-1.29C2.99 1.13 4.22 2.33 6.67 2.33ZM17.33-3.36C16.04-3.36 14.80-3.98 14.46-5.11C14.39-5.31 14.37-5.52 14.37-5.74C14.37-6.21 14.68-6.50 15.15-6.50C15.55-6.50 15.81-6.30 15.93-5.91C16.07-5.36 16.46-4.77 17.34-4.77C18.23-4.77 18.68-5.48 18.68-6.32C18.68-7.36 18.12-7.92 17.09-7.92L16.79-7.92C16.39-7.92 16.11-8.16 16.11-8.55C16.11-8.95 16.38-9.21 16.79-9.21L17.07-9.21C17.99-9.21 18.47-9.86 18.47-10.73C18.47-11.53 18.09-12.14 17.30-12.14C16.61-12.14 16.24-11.70 16.04-10.98C15.93-10.56 15.68-10.41 15.27-10.41C14.79-10.41 14.52-10.72 14.52-11.12C14.52-11.33 14.55-11.54 14.61-11.78C14.96-12.84 16.04-13.55 17.30-13.55C18.87-13.55 20.12-12.60 20.12-10.92C20.12-9.91 19.58-8.93 18.49-8.64L18.49-8.60C19.51-8.50 20.40-7.76 20.40-6.26C20.40-4.45 19.08-3.36 17.33-3.36ZM11.19-3.42C10.80-3.42 10.35-3.64 10.35-4.29L10.35-5.48L7.65-5.48C7.05-5.48 6.66-5.88 6.66-6.47C6.66-6.84 6.73-7.16 6.91-7.63L9.07-12.32C9.41-13.07 9.82-13.50 10.68-13.50C11.47-13.50 12.01-13.03 12.01-12.19L12.01-6.89L12.45-6.89C12.93-6.89 13.14-6.59 13.14-6.20C13.14-5.79 12.90-5.48 12.45-5.48L12.01-5.48L12.01-4.29C12.01-3.70 11.64-3.42 11.19-3.42ZM10.38-6.86L10.38-11.98L10.34-11.98L8.14-6.94L8.14-6.86Z" fill="currentColor"/>
</svg>