<svg xmlns="http://www.w3.org/2000/svg" viewBox="0 0 24 24" width="24" height="24">
  <title>45.circle</title>
  <path transform="matrix(0.8366013071895425, 0, 0, 0.8366013071895425, 0.2450980392156863, 19.07843137254902)" d="M14.05 3.49C20.65 3.49 26.00-1.86 26.00-8.46C26.00-15.06 20.65-20.41 14.05-20.41C7.45-20.41 2.10-15.06 2.10-8.46C2.10-1.86 7.45 3.49 14.05 3.49ZM14.05 1.50C8.54 1.50 4.09-2.95 4.09-8.46C4.09-13.97 8.54-18.42 14.05-18.42C19.56-18.42 24.01-13.97 24.01-8.46C24.01-2.95 19.56 1.50 14.05 1.50ZM11.59-3.57C12.04-3.57 12.40-3.84 12.40-4.41L12.40-5.58L12.81-5.58C13.27-5.58 13.48-5.87 13.48-6.27C13.48-6.64 13.28-6.94 12.81-6.94L12.40-6.94L12.40-12.08C12.40-12.89 11.86-13.35 11.10-13.35C10.28-13.35 9.89-12.93 9.56-12.20L7.46-7.65C7.27-7.20 7.20-6.89 7.20-6.53C7.20-5.96 7.59-5.58 8.16-5.58L10.78-5.58L10.78-4.41C10.78-3.79 11.23-3.57 11.59-3.57ZM17.55-3.48C19.38-3.48 20.38-5.02 20.38-6.87C20.38-8.48 19.61-9.96 18.09-9.96C17.41-9.96 16.77-9.64 16.48-8.96L16.42-8.96L16.61-11.81L19.36-11.81C19.77-11.81 20.02-12.09 20.02-12.50C20.02-12.89 19.76-13.20 19.36-13.20L16.14-13.20C15.53-13.20 15.26-12.80 15.21-12.19L15.02-8.98C15.01-8.80 15-8.61 15-8.46C15-8.02 15.23-7.62 15.77-7.62C16.09-7.62 16.28-7.75 16.52-8.06C16.78-8.45 17.09-8.73 17.55-8.73C18.42-8.73 18.75-7.69 18.75-6.82C18.75-5.85 18.40-4.85 17.53-4.85C16.88-4.85 16.50-5.32 16.29-5.96C16.16-6.34 15.89-6.52 15.59-6.52C15.15-6.52 14.88-6.25 14.88-5.81C14.88-5.54 14.95-5.29 15.05-5.05C15.46-4.10 16.50-3.48 17.55-3.48ZM10.82-6.90L8.64-6.90L8.64-6.98L10.77-11.87L10.82-11.87Z" fill="currentColor"/>
</svg>