<svg xmlns="http://www.w3.org/2000/svg" viewBox="0 0 24 24" width="24" height="24">
  <title>6.square.fill</title>
  <path transform="matrix(0.9270324099221438, 0, 0, 0.9270324099221438, -0.7702335687126562, 19.83813145029875)" d="M6.67 2.33L20.88 2.33C23.34 2.33 24.56 1.13 24.56-1.29L24.56-15.61C24.56-18.02 23.34-19.24 20.88-19.24L6.67-19.24C4.22-19.24 2.99-18.02 2.99-15.61L2.99-1.29C2.99 1.13 4.22 2.33 6.67 2.33ZM13.88-2.71C12.46-2.71 11.13-3.22 10.36-4.51C9.84-5.32 9.55-6.53 9.55-8.19C9.55-12.22 11.32-14.21 14.18-14.21C15.75-14.21 17.06-13.43 17.44-12.54C17.51-12.36 17.55-12.20 17.55-12C17.55-11.58 17.23-11.29 16.82-11.29C16.41-11.29 16.16-11.50 15.79-11.88C15.43-12.30 14.95-12.67 14.12-12.67C12.47-12.67 11.33-11.09 11.33-8.61L11.33-8.48L11.43-8.48C11.82-9.36 12.76-10.18 14.38-10.18C16.29-10.18 18.02-8.89 18.02-6.60C18.02-4.13 16.31-2.71 13.88-2.71ZM13.80-4.16C15.21-4.16 16.13-5.10 16.13-6.52C16.13-7.86 15.18-8.80 13.80-8.80C12.45-8.80 11.48-7.85 11.48-6.53C11.48-5.16 12.46-4.16 13.80-4.16Z" fill="currentColor"/>
</svg>