<svg xmlns="http://www.w3.org/2000/svg" viewBox="0 0 24 24" width="24" height="24">
  <title>a.circle</title>
  <path transform="matrix(0.8366013071895425, 0, 0, 0.8366013071895425, 0.2450980392156863, 19.07843137254902)" d="M14.05 3.49C20.65 3.49 26.00-1.86 26.00-8.46C26.00-15.06 20.65-20.41 14.05-20.41C7.45-20.41 2.10-15.06 2.10-8.46C2.10-1.86 7.45 3.49 14.05 3.49ZM14.05 1.50C8.54 1.50 4.09-2.95 4.09-8.46C4.09-13.97 8.54-18.42 14.05-18.42C19.56-18.42 24.01-13.97 24.01-8.46C24.01-2.95 19.56 1.50 14.05 1.50ZM10.18-2.94C10.61-2.94 10.91-3.14 11.09-3.69L11.94-6.19L16.14-6.19L16.99-3.69C17.17-3.15 17.46-2.94 17.89-2.94C18.41-2.94 18.76-3.28 18.76-3.75C18.76-3.94 18.71-4.10 18.63-4.36L15.34-13.21C15.12-13.82 14.67-14.13 14.03-14.13C13.39-14.13 12.96-13.82 12.73-13.21L9.45-4.36C9.35-4.10 9.32-3.94 9.32-3.76C9.32-3.27 9.66-2.94 10.18-2.94ZM12.41-7.59L13.97-12.13L14.10-12.13L15.66-7.59Z" fill="currentColor"/>
</svg>