<svg xmlns="http://www.w3.org/2000/svg" viewBox="0 0 24 24" width="24" height="24">
  <title>airplane.up.right.app</title>
  <path transform="matrix(0.925524222704266, 0, 0, 0.925524222704266, -0.7657266811279824, 19.82537960954447)" d="M9.36 2.34L18.21 2.34C20.27 2.34 21.88 1.75 22.93 0.69C24.02-0.39 24.60-1.99 24.60-4.04L24.60-12.87C24.60-14.92 24.02-16.52 22.93-17.60C21.87-18.67 20.27-19.25 18.21-19.25L9.36-19.25C7.31-19.25 5.70-18.66 4.64-17.60C3.56-16.52 2.99-14.92 2.99-12.87L2.99-4.04C2.99-1.99 3.55-0.39 4.64 0.69C5.71 1.76 7.31 2.34 9.36 2.34ZM9.36 0.46C7.91 0.46 6.77 0.05 6.04-0.69C5.27-1.44 4.88-2.57 4.88-4.04L4.88-12.87C4.88-14.34 5.27-15.47 6.04-16.22C6.76-16.95 7.91-17.37 9.36-17.37L18.21-17.37C19.68-17.37 20.80-16.96 21.55-16.22C22.31-15.47 22.71-14.34 22.71-12.87L22.71-4.04C22.71-2.57 22.31-1.44 21.55-0.69C20.81 0.04 19.68 0.46 18.21 0.46ZM19.89-14.38C19.34-14.93 18.19-14.63 17.29-13.72L15.52-11.94C15.30-11.73 15.20-11.70 14.91-11.71L8.74-11.96C8.52-11.98 8.32-11.91 8.17-11.75L7.66-11.25C7.49-11.07 7.55-10.80 7.79-10.71L12.53-8.93L10.70-6.63L8.52-7.27C8.31-7.32 8.13-7.28 7.96-7.10L7.76-6.90C7.61-6.75 7.61-6.53 7.76-6.36L11.88-2.25C12.04-2.10 12.26-2.10 12.41-2.25L12.61-2.44C12.79-2.63 12.83-2.80 12.79-3.01L12.14-5.19L14.44-7.02L16.22-2.29C16.31-2.04 16.58-1.98 16.76-2.14L17.27-2.66C17.41-2.81 17.48-3 17.47-3.23L17.21-9.40C17.20-9.69 17.24-9.79 17.45-10.00L19.23-11.78C20.13-12.68 20.44-13.83 19.89-14.38Z" fill="currentColor"/>
</svg>