<svg xmlns="http://www.w3.org/2000/svg" viewBox="0 0 24 24" width="24" height="24">
  <title>airtag.radiowaves.forward</title>
  <path transform="matrix(0.6399200099987502, 0, 0, 0.6399200099987502, 0.6576677915260591, 17.418072740907387)" d="M12.39 1.82C18.06 1.82 22.66-2.78 22.66-8.46C22.66-14.14 18.06-18.75 12.39-18.75C6.70-18.75 2.10-14.14 2.10-8.46C2.10-2.78 6.70 1.82 12.39 1.82ZM12.39-0.07C7.75-0.07 3.98-3.82 3.98-8.46C3.98-13.10 7.75-16.86 12.39-16.86C17.02-16.86 20.78-13.10 20.78-8.46C20.78-3.82 17.02-0.07 12.39-0.07ZM28.82-0.45C29.20-0.01 29.85-0.01 30.30-0.50C32.25-2.63 33.35-5.43 33.35-8.46C33.35-11.50 32.25-14.31 30.30-16.42C29.85-16.91 29.20-16.92 28.82-16.48C28.44-16.05 28.56-15.50 28.99-15.02C30.56-13.28 31.44-10.98 31.44-8.46C31.44-5.94 30.56-3.64 28.99-1.90C28.56-1.42 28.44-0.87 28.82-0.45ZM13.51-12.18C13.78-12.50 13.98-12.95 13.98-13.42C13.98-13.48 13.98-13.54 13.97-13.58C13.51-13.57 12.98-13.29 12.67-12.91C12.42-12.62 12.18-12.18 12.18-11.71C12.18-11.65 12.19-11.58 12.19-11.55C12.22-11.55 12.26-11.54 12.30-11.54C12.71-11.54 13.22-11.81 13.51-12.18ZM25.54-3.79C25.92-3.35 26.63-3.34 27.05-3.87C28.07-5.13 28.65-6.74 28.65-8.46C28.65-10.18 28.07-11.79 27.05-13.05C26.63-13.58 25.92-13.58 25.54-13.14C25.16-12.71 25.32-12.19 25.69-11.68C26.39-10.82 26.74-9.68 26.74-8.46C26.74-7.24 26.39-6.12 25.69-5.24C25.32-4.73 25.16-4.21 25.54-3.79ZM12.38-5.09C13.07-5.09 13.22-4.73 13.82-4.73C14.43-4.73 14.82-5.29 15.21-5.82C15.63-6.45 15.81-7.05 15.81-7.08C15.77-7.09 14.63-7.56 14.63-8.87C14.63-10.02 15.53-10.52 15.57-10.57C14.99-11.43 14.07-11.44 13.82-11.44C13.16-11.44 12.62-11.04 12.26-11.04C11.89-11.04 11.41-11.43 10.83-11.43C9.71-11.43 8.60-10.50 8.60-8.79C8.60-7.71 9.02-6.57 9.53-5.85C9.96-5.23 10.35-4.72 10.91-4.72C11.45-4.72 11.70-5.09 12.38-5.09Z" fill="currentColor"/>
</svg>