<svg xmlns="http://www.w3.org/2000/svg" viewBox="0 0 24 24" width="24" height="24">
  <title>ant.fill</title>
  <path transform="matrix(0.7143853774243059, 0, 0, 0.7143853774243059, 2.887614205812395, 18.20761825031394)" d="M12.75 5.31C16.07 5.31 18.96 1.75 18.96-2.09C18.96-2.68 18.86-3.19 18.64-3.60C18.98-3.50 19.32-3.42 19.65-3.33C20.46-3.11 20.70-2.79 20.59-2.09L19.73 3.53C19.63 4.20 20.04 4.59 20.59 4.59C21.16 4.59 21.42 4.24 21.52 3.66L22.48-2.43C22.70-3.80 22.14-4.55 20.64-4.90L15.35-6.13L15.34-6.25C15.84-6.49 16.18-6.97 16.34-7.50L19.93-8.02C21.40-8.21 22.05-9.04 22.05-10.48L22.05-14.53C22.05-15.11 21.73-15.43 21.16-15.43C20.60-15.43 20.27-15.09 20.27-14.53L20.27-10.84C20.27-10.01 19.83-9.74 19.07-9.63L16.38-9.27C16.25-9.63 16.02-9.96 15.70-10.17L15.70-10.29C17.71-10.64 18.82-11.86 18.82-13.64C18.82-15.14 18.26-16.51 17.34-17.57L17.45-17.65C18.59-18.47 18.80-19.68 18.06-20.98L17.37-22.11C17.14-22.51 16.89-22.69 16.52-22.69C16.03-22.69 15.68-22.34 15.68-21.88C15.68-21.67 15.71-21.55 15.84-21.32L16.45-20.39C16.83-19.78 16.83-19.25 16.35-18.83C16.28-18.77 16.22-18.73 16.15-18.68C15.18-19.34 14.00-19.72 12.75-19.72C11.52-19.72 10.36-19.34 9.40-18.69C9.33-18.73 9.26-18.79 9.20-18.84C8.73-19.25 8.72-19.78 9.11-20.39L9.71-21.32C9.84-21.55 9.88-21.67 9.88-21.88C9.88-22.34 9.52-22.69 9.04-22.69C8.67-22.69 8.41-22.51 8.19-22.11L7.50-20.98C6.76-19.68 6.97-18.47 8.11-17.65L8.19-17.59C7.27-16.54 6.68-15.15 6.68-13.64C6.68-11.86 7.80-10.64 9.81-10.29L9.81-10.17C9.48-9.96 9.26-9.63 9.13-9.27L6.45-9.63C5.67-9.74 5.24-10.01 5.24-10.84L5.24-14.53C5.24-15.09 4.91-15.43 4.35-15.43C3.79-15.43 3.46-15.11 3.46-14.53L3.46-10.48C3.46-9.04 4.11-8.21 5.58-8.02L9.18-7.50C9.33-6.97 9.66-6.49 10.17-6.25L10.17-6.13L4.88-4.90C3.36-4.55 2.81-3.80 3.04-2.43L4.00 3.66C4.08 4.24 4.35 4.59 4.92 4.59C5.47 4.59 5.88 4.20 5.78 3.53L4.92-2.09C4.80-2.79 5.05-3.11 5.86-3.33C6.19-3.42 6.53-3.50 6.86-3.60C6.66-3.19 6.55-2.68 6.55-2.09C6.55 1.75 9.45 5.31 12.75 5.31Z" fill="currentColor"/>
</svg>