<svg xmlns="http://www.w3.org/2000/svg" viewBox="0 0 24 24" width="24" height="24">
  <title>apple.haptics.and.exclamationmark.triangle</title>
  <path transform="matrix(0.6666666666666666, 0, 0, 0.6666666666666666, 0.6015625, 18.23046875)" d="M13.72-3.81C14.24-3.81 14.98-3.84 15.48-3.91L16.68-6C16.37-5.86 16.03-5.72 15.68-5.63C17.64-7.15 18.89-9.53 18.89-12.21C18.89-14.89 17.63-17.27 15.67-18.79C18.34-18.01 20.33-15.63 20.55-12.79L20.71-13.05C21.02-13.52 21.43-13.88 21.90-14.13C21.47-16.01 20.38-17.64 18.90-18.77C20.95-18.18 22.59-16.64 23.34-14.66C23.50-14.68 23.65-14.71 23.80-14.71C24.22-14.71 24.63-14.63 25.02-14.47C24.05-18.01 20.79-20.60 16.95-20.60C16.38-20.60 15.86-20.55 15.33-20.44C14.81-20.55 14.29-20.60 13.72-20.60C13.17-20.60 12.63-20.55 12.09-20.44C11.58-20.55 11.04-20.60 10.49-20.60C5.85-20.60 2.10-16.85 2.10-12.21C2.10-7.56 5.85-3.81 10.49-3.81C11.04-3.81 11.58-3.87 12.11-3.97C12.63-3.87 13.17-3.81 13.72-3.81ZM3.62-12.21C3.62-15.33 5.70-17.95 8.54-18.79C6.59-17.27 5.32-14.89 5.32-12.21C5.32-9.53 6.57-7.15 8.53-5.63C5.70-6.47 3.62-9.09 3.62-12.21ZM6.87-12.21C6.87-15.32 8.92-17.93 11.74-18.77C9.80-17.26 8.53-14.89 8.53-12.21C8.53-9.54 9.80-7.16 11.74-5.64C8.91-6.49 6.87-9.11 6.87-12.21ZM10.07-12.21C10.07-14.84 11.54-17.11 13.71-18.25C15.88-17.11 17.36-14.84 17.36-12.21C17.36-9.59 15.88-7.30 13.71-6.16C11.54-7.30 10.07-9.59 10.07-12.21ZM17.67 1.91L29.92 1.91C31.28 1.91 32.10 0.96 32.10-0.23C32.10-0.61 31.99-1.00 31.78-1.36L25.65-12.04C25.24-12.76 24.52-13.13 23.80-13.13C23.07-13.13 22.35-12.76 21.94-12.04L15.82-1.36C15.62-0.98 15.50-0.61 15.50-0.23C15.50 0.96 16.32 1.91 17.67 1.91ZM23.80-3.40C23.40-3.40 23.18-3.61 23.17-4.03L23.05-8.34C23.04-8.77 23.36-9.06 23.79-9.06C24.22-9.06 24.55-8.75 24.54-8.33L24.42-4.03C24.41-3.61 24.20-3.40 23.80-3.40ZM23.80-0.74C23.33-0.74 22.93-1.11 22.93-1.57C22.93-2.04 23.32-2.44 23.80-2.44C24.28-2.44 24.68-2.04 24.68-1.57C24.68-1.10 24.27-0.74 23.80-0.74Z" fill="currentColor"/>
</svg>