<svg xmlns="http://www.w3.org/2000/svg" viewBox="0 0 24 24" width="24" height="24">
  <title>apple.terminal.circle</title>
  <path transform="matrix(0.8366013071895425, 0, 0, 0.8366013071895425, 0.2450980392156863, 19.07843137254902)" d="M14.05 3.49C20.65 3.49 26.00-1.86 26.00-8.46C26.00-15.06 20.65-20.41 14.05-20.41C7.45-20.41 2.10-15.06 2.10-8.46C2.10-1.86 7.45 3.49 14.05 3.49ZM14.05 1.50C8.54 1.50 4.09-2.95 4.09-8.46C4.09-13.97 8.54-18.42 14.05-18.42C19.56-18.42 24.01-13.97 24.01-8.46C24.01-2.95 19.56 1.50 14.05 1.50ZM8.98-3.08L19.10-3.08C20.33-3.08 20.93-3.67 20.93-4.88L20.93-12.02C20.93-13.23 20.33-13.82 19.10-13.82L8.98-13.82C7.76-13.82 7.15-13.23 7.15-12.02L7.15-4.88C7.15-3.67 7.76-3.08 8.98-3.08ZM9.56-9.33L10.98-10.17L9.56-11.03C9.06-11.33 9.48-12.09 10.03-11.75L11.77-10.66C12.12-10.45 12.12-9.91 11.77-9.69L10.03-8.60C9.48-8.26 9.06-9.02 9.56-9.33ZM12.09-8.63C12.09-8.86 12.27-9.05 12.49-9.05L14.79-9.05C15.04-9.05 15.21-8.86 15.21-8.63C15.21-8.40 15.04-8.21 14.79-8.21L12.49-8.21C12.27-8.21 12.09-8.40 12.09-8.63Z" fill="currentColor"/>
</svg>