<svg xmlns="http://www.w3.org/2000/svg" viewBox="0 0 24 24" width="24" height="24">
  <title>aqi.low</title>
  <path transform="matrix(0.716484746711447, 0, 0, 0.716484746711447, 0.09823677581863954, 18.062132661628883)" d="M16.64-20.51C17.18-20.51 17.59-20.91 17.59-21.46C17.59-22.00 17.17-22.42 16.64-22.42C16.11-22.42 15.68-21.98 15.68-21.46C15.68-20.93 16.10-20.51 16.64-20.51ZM11.04-17.27C11.59-17.27 12-17.68 12-18.23C12-18.77 11.58-19.20 11.04-19.20C10.52-19.20 10.08-18.75 10.08-18.23C10.08-17.70 10.50-17.27 11.04-17.27ZM22.23-17.27C22.78-17.27 23.19-17.68 23.19-18.23C23.19-18.77 22.77-19.20 22.23-19.20C21.71-19.20 21.27-18.75 21.27-18.23C21.27-17.70 21.69-17.27 22.23-17.27ZM5.45-14.00C5.99-14.00 6.40-14.41 6.40-14.96C6.40-15.49 5.98-15.91 5.45-15.91C4.92-15.91 4.49-15.48 4.49-14.96C4.49-14.43 4.91-14.00 5.45-14.00ZM16.64-14.00C17.18-14.00 17.59-14.41 17.59-14.96C17.59-15.49 17.17-15.91 16.64-15.91C16.11-15.91 15.68-15.48 15.68-14.96C15.68-14.43 16.10-14.00 16.64-14.00ZM27.79-14.00C28.34-14.00 28.73-14.41 28.73-14.96C28.73-15.50 28.32-15.91 27.79-15.91C27.26-15.91 26.82-15.48 26.82-14.96C26.82-14.43 27.25-14.00 27.79-14.00ZM11.04-10.76C11.59-10.76 12-11.17 12-11.72C12-12.26 11.58-12.68 11.04-12.68C10.52-12.68 10.08-12.25 10.08-11.72C10.08-11.18 10.50-10.76 11.04-10.76ZM22.23-10.76C22.78-10.76 23.19-11.17 23.19-11.72C23.19-12.26 22.77-12.68 22.23-12.68C21.71-12.68 21.27-12.25 21.27-11.72C21.27-11.18 21.69-10.76 22.23-10.76ZM5.45-7.51C5.99-7.51 6.40-7.91 6.40-8.46C6.40-9 5.98-9.42 5.45-9.42C4.92-9.42 4.49-8.99 4.49-8.46C4.49-7.93 4.91-7.51 5.45-7.51ZM16.64-7.51C17.18-7.51 17.59-7.91 17.59-8.46C17.59-9 17.17-9.42 16.64-9.42C16.11-9.42 15.68-8.99 15.68-8.46C15.68-7.93 16.10-7.51 16.64-7.51ZM27.79-7.51C28.34-7.51 28.73-7.91 28.73-8.46C28.73-9 28.32-9.42 27.79-9.42C27.26-9.42 26.82-8.98 26.82-8.46C26.82-7.93 27.25-7.51 27.79-7.51ZM11.04-4.25C11.59-4.25 12-4.65 12-5.20C12-5.74 11.58-6.16 11.04-6.16C10.52-6.16 10.08-5.73 10.08-5.20C10.08-4.66 10.50-4.25 11.04-4.25ZM22.23-4.25C22.78-4.25 23.19-4.65 23.19-5.20C23.19-5.74 22.77-6.16 22.23-6.16C21.71-6.16 21.27-5.73 21.27-5.20C21.27-4.66 21.69-4.25 22.23-4.25ZM5.45-1.01C5.99-1.01 6.40-1.42 6.40-1.97C6.40-2.50 5.98-2.92 5.45-2.92C4.92-2.92 4.49-2.48 4.49-1.97C4.49-1.43 4.91-1.01 5.45-1.01ZM16.64-1.01C17.18-1.01 17.59-1.42 17.59-1.97C17.59-2.50 17.17-2.92 16.64-2.92C16.11-2.92 15.68-2.48 15.68-1.97C15.68-1.43 16.10-1.01 16.64-1.01ZM27.79-1.01C28.34-1.01 28.73-1.41 28.73-1.97C28.73-2.50 28.31-2.92 27.79-2.92C27.26-2.92 26.82-2.48 26.82-1.97C26.82-1.43 27.25-1.01 27.79-1.01ZM11.04 2.26C11.59 2.26 12 1.86 12 1.31C12 0.77 11.58 0.35 11.04 0.35C10.52 0.35 10.08 0.79 10.08 1.31C10.08 1.84 10.50 2.26 11.04 2.26ZM22.23 2.26C22.78 2.26 23.19 1.86 23.19 1.31C23.19 0.77 22.77 0.35 22.23 0.35C21.71 0.35 21.27 0.79 21.27 1.31C21.27 1.84 21.69 2.26 22.23 2.26ZM16.64 5.50C17.18 5.50 17.59 5.09 17.59 4.54C17.59 4.00 17.17 3.57 16.64 3.57C16.11 3.57 15.68 4.02 15.68 4.54C15.68 5.07 16.10 5.50 16.64 5.50Z" fill="currentColor"/>
</svg>