<svg xmlns="http://www.w3.org/2000/svg" viewBox="0 0 24 24" width="24" height="24">
  <title>arrow.down.left.arrow.up.right</title>
  <path transform="matrix(0.7614369254969086, 0, 0, 0.7614369254969086, -0.27817420422612305, 18.439687500703908)" d="M12.61-7.15L9.11-7.09L6.09-6.86L8.23-8.71L19.30-19.79C19.72-20.21 19.73-20.84 19.30-21.27C18.87-21.70 18.23-21.69 17.81-21.27L6.74-10.20L4.89-8.10L5.12-11.09L5.18-14.60C5.18-14.87 5.09-15.11 4.88-15.32C4.44-15.75 3.84-15.75 3.40-15.32C3.21-15.13 3.09-14.82 3.09-14.54L3-6.08C2.99-5.44 3.48-4.96 4.11-4.97L12.56-5.07C12.86-5.07 13.16-5.19 13.35-5.37C13.78-5.82 13.78-6.41 13.35-6.84C13.14-7.07 12.90-7.15 12.61-7.15ZM27.07-2.32C27.07-2.04 27.16-1.82 27.38-1.59C27.81-1.16 28.41-1.16 28.85-1.59C29.03-1.78 29.14-2.09 29.14-2.38L29.25-10.83C29.26-11.47 28.79-11.95 28.14-11.94L19.69-11.85C19.39-11.85 19.09-11.73 18.90-11.54C18.47-11.10 18.47-10.50 18.90-10.07C19.11-9.86 19.35-9.76 19.64-9.76L23.13-9.82L26.13-10.07L24.02-8.20L12.95 2.87C12.53 3.29 12.52 3.93 12.95 4.36C13.38 4.78 14.02 4.78 14.44 4.36L25.51-6.71L27.36-8.85L27.13-5.84Z" fill="currentColor"/>
</svg>