<svg xmlns="http://www.w3.org/2000/svg" viewBox="0 0 24 24" width="24" height="24">
  <title>arrow.up.and.down.circle</title>
  <path transform="matrix(0.8366013071895425, 0, 0, 0.8366013071895425, 0.2450980392156863, 19.07843137254902)" d="M14.05 3.49C20.65 3.49 26.00-1.86 26.00-8.46C26.00-15.06 20.65-20.41 14.05-20.41C7.45-20.41 2.10-15.06 2.10-8.46C2.10-1.86 7.45 3.49 14.05 3.49ZM14.05 1.50C8.54 1.50 4.09-2.95 4.09-8.46C4.09-13.97 8.54-18.42 14.05-18.42C19.56-18.42 24.01-13.97 24.01-8.46C24.01-2.95 19.56 1.50 14.05 1.50ZM14.06-1.18C14.32-1.18 14.54-1.31 14.75-1.52L18.14-4.90C18.29-5.05 18.39-5.27 18.39-5.51C18.39-5.99 18.01-6.35 17.53-6.35C17.27-6.35 17.06-6.27 16.91-6.09L16.04-5.20L14.87-3.77L14.94-6.27L14.94-10.65L14.87-13.15L16.04-11.72L16.91-10.83C17.06-10.66 17.27-10.57 17.53-10.57C18.01-10.57 18.39-10.93 18.39-11.41C18.39-11.66 18.29-11.87 18.14-12.02L14.75-15.40C14.54-15.62 14.32-15.74 14.06-15.74C13.80-15.74 13.58-15.62 13.37-15.40L9.98-12.02C9.84-11.88 9.74-11.66 9.74-11.41C9.74-10.93 10.11-10.57 10.59-10.57C10.85-10.57 11.06-10.66 11.21-10.83L12.08-11.72L13.27-13.15L13.18-10.65L13.18-6.27L13.27-3.77L12.08-5.20L11.21-6.09C11.06-6.27 10.85-6.35 10.59-6.35C10.11-6.35 9.74-5.99 9.74-5.51C9.74-5.27 9.84-5.04 9.98-4.90L13.37-1.52C13.58-1.31 13.80-1.18 14.06-1.18Z" fill="currentColor"/>
</svg>