<svg xmlns="http://www.w3.org/2000/svg" viewBox="0 0 24 24" width="24" height="24">
  <title>arrow.down.left.and.arrow.up.right.circle</title>
  <path transform="matrix(0.8366013071895425, 0, 0, 0.8366013071895425, 0.2450980392156863, 19.07843137254902)" d="M14.05 3.49C20.65 3.49 26.00-1.86 26.00-8.46C26.00-15.06 20.65-20.41 14.05-20.41C7.45-20.41 2.10-15.06 2.10-8.46C2.10-1.86 7.45 3.49 14.05 3.49ZM14.05 1.50C8.54 1.50 4.09-2.95 4.09-8.46C4.09-13.97 8.54-18.42 14.05-18.42C19.56-18.42 24.01-13.97 24.01-8.46C24.01-2.95 19.56 1.50 14.05 1.50ZM19.10-8.47C19.56-8.47 19.93-8.84 19.93-9.29L19.93-13.37C19.93-14.07 19.57-14.34 18.96-14.34L14.91-14.34C14.45-14.34 14.07-13.97 14.07-13.51C14.07-13.05 14.45-12.69 14.91-12.69L15.48-12.69L17.27-12.81L14.63-10.29C14.29-9.96 14.27-9.39 14.61-9.05C14.96-8.70 15.52-8.68 15.87-9.06L18.40-11.72L18.28-9.87L18.28-9.29C18.28-8.84 18.64-8.47 19.10-8.47ZM13.18-2.55C13.64-2.55 14.00-2.93 14.00-3.39C14.00-3.84 13.64-4.21 13.18-4.21L12.61-4.21L10.82-4.09L13.45-6.61C13.79-6.94 13.80-7.51 13.46-7.85C13.13-8.20 12.56-8.21 12.22-7.84L9.68-5.18L9.81-7.03L9.81-7.61C9.81-8.06 9.43-8.43 8.98-8.43C8.52-8.43 8.16-8.06 8.16-7.61L8.16-3.53C8.16-2.82 8.51-2.55 9.12-2.55Z" fill="currentColor"/>
</svg>