<svg xmlns="http://www.w3.org/2000/svg" viewBox="0 0 24 24" width="24" height="24">
  <title>arrow.up.right.circle.fill</title>
  <path transform="matrix(0.8366013071895425, 0, 0, 0.8366013071895425, 0.2450980392156863, 19.07843137254902)" d="M14.05 3.49C20.65 3.49 26.00-1.88 26.00-8.46C26.00-15.06 20.65-20.41 14.05-20.41C7.46-20.41 2.10-15.06 2.10-8.46C2.10-1.88 7.46 3.49 14.05 3.49ZM17.84-5.46C17.30-5.46 16.95-5.84 16.95-6.41L16.95-8.48L17.12-10.37L15.38-8.51L10.96-4.08C10.77-3.90 10.55-3.80 10.25-3.80C9.73-3.80 9.36-4.15 9.36-4.70C9.36-4.93 9.48-5.18 9.66-5.36L14.10-9.79L15.98-11.54L14.19-11.36L12.01-11.36C11.43-11.36 11.05-11.71 11.05-12.23C11.05-12.77 11.41-13.13 11.99-13.13L17.71-13.13C18.33-13.13 18.73-12.84 18.73-12.13L18.73-6.43C18.73-5.87 18.36-5.46 17.84-5.46Z" fill="currentColor"/>
</svg>