<svg xmlns="http://www.w3.org/2000/svg" viewBox="0 0 24 24" width="24" height="24">
  <title>arrow.uturn.left</title>
  <path transform="matrix(0.9029982363315696, 0, 0, 0.9029982363315696, -0.6984126984126982, 19.629629629629633)" d="M2.99-11.51C2.99-11.23 3.11-10.96 3.34-10.73L10.23-3.97C10.43-3.76 10.73-3.64 10.98-3.64C11.61-3.64 12.02-4.07 12.02-4.68C12.02-4.98 11.92-5.20 11.74-5.39L8.36-8.68L6.13-10.59L8.88-10.46L16.93-10.46C20.93-10.46 23.04-8.26 23.04-5.11C23.04-1.95 20.93 0.40 16.93 0.40L14.24 0.40C13.59 0.40 13.17 0.87 13.17 1.44C13.17 2.02 13.59 2.48 14.24 2.48L16.95 2.48C22.18 2.48 25.14-0.50 25.14-4.99C25.14-9.47 22.10-12.56 16.76-12.56L8.88-12.56L6.13-12.43L8.36-14.34L11.74-17.64C11.92-17.82 12.02-18.05 12.02-18.35C12.02-18.96 11.61-19.38 10.98-19.38C10.73-19.38 10.43-19.27 10.23-19.05L3.34-12.29C3.11-12.07 2.99-11.80 2.99-11.51Z" fill="currentColor"/>
</svg>