<svg xmlns="http://www.w3.org/2000/svg" viewBox="0 0 24 24" width="24" height="24">
  <title>arrowshape.turn.up.left.fill</title>
  <path transform="matrix(0.7915893630179345, 0, 0, 0.7915893630179345, 0.6456400742115027, 18.697588126159552)" d="M14.53 0.91L14.53-3.56L14.87-3.56C19.42-3.56 22.28-2.41 24.33 1.42C24.74 2.17 25.28 2.29 25.77 2.29C26.39 2.29 26.98 1.72 26.98 0.71C26.98-7.95 23.31-13.35 14.87-13.35L14.53-13.35L14.53-17.78C14.53-18.56 13.96-19.21 13.14-19.21C12.56-19.21 12.18-18.96 11.55-18.38L2.31-9.73C1.85-9.29 1.71-8.86 1.71-8.46C1.71-8.07 1.86-7.63 2.31-7.21L11.55 1.52C12.12 2.05 12.59 2.29 13.16 2.29C13.96 2.29 14.53 1.70 14.53 0.91Z" fill="currentColor"/>
</svg>