<svg xmlns="http://www.w3.org/2000/svg" viewBox="0 0 24 24" width="24" height="24">
  
  <path transform="matrix(0.8366013071895425, 0, 0, 0.8366013071895425, 0.2450980392156863, 19.07843137254902)" d="M14.05 3.49C20.65 3.49 26.00-1.86 26.00-8.46C26.00-15.06 20.65-20.41 14.05-20.41C7.45-20.41 2.10-15.06 2.10-8.46C2.10-1.86 7.45 3.49 14.05 3.49ZM14.05 1.50C8.54 1.50 4.09-2.95 4.09-8.46C4.09-13.97 8.54-18.42 14.05-18.42C19.56-18.42 24.01-13.97 24.01-8.46C24.01-2.95 19.56 1.50 14.05 1.50ZM8.86-8.61L12.93-8.61C13.54-8.61 13.89-8.88 13.89-9.59L13.89-13.66C13.89-14.12 13.52-14.48 13.07-14.48C12.61-14.48 12.23-14.12 12.23-13.66L12.23-13.09L12.36-11.24L9.30-14.41C8.96-14.78 8.40-14.78 8.06-14.43C7.72-14.09 7.73-13.52 8.07-13.18L11.24-10.15L9.45-10.27L8.86-10.27C8.40-10.27 8.04-9.90 8.04-9.45C8.04-8.99 8.40-8.61 8.86-8.61ZM15.01-2.45C15.47-2.45 15.83-2.81 15.83-3.27L15.83-3.84L15.71-5.70L18.77-2.52C19.11-2.16 19.68-2.16 20.02-2.51C20.36-2.85 20.34-3.42 20.00-3.75L16.84-6.79L18.63-6.67L19.21-6.67C19.66-6.67 20.04-7.03 20.04-7.49C20.04-7.96 19.66-8.32 19.21-8.32L15.15-8.32C14.54-8.32 14.18-8.05 14.18-7.36L14.18-3.27C14.18-2.81 14.55-2.45 15.01-2.45Z" fill="currentColor"/>
</svg>