<svg xmlns="http://www.w3.org/2000/svg" viewBox="0 0 24 24" width="24" height="24">
  <title>arrowshape.turn.up.forward.circle</title>
  <path transform="matrix(0.8366013071895425, 0, 0, 0.8366013071895425, 0.2450980392156863, 19.07843137254902)" d="M14.05 3.49C20.65 3.49 26.00-1.86 26.00-8.46C26.00-15.06 20.65-20.41 14.05-20.41C7.45-20.41 2.10-15.06 2.10-8.46C2.10-1.86 7.45 3.49 14.05 3.49ZM14.05 1.50C8.54 1.50 4.09-2.95 4.09-8.46C4.09-13.97 8.54-18.42 14.05-18.42C19.56-18.42 24.01-13.97 24.01-8.46C24.01-2.95 19.56 1.50 14.05 1.50ZM14.26-14.20L14.26-11.81L14.07-11.81C9.56-11.81 7.57-8.93 7.57-4.27C7.57-3.71 7.89-3.42 8.21-3.42C8.48-3.42 8.78-3.49 8.99-3.89C10.09-5.95 11.63-6.57 14.07-6.57L14.26-6.57L14.26-4.16C14.26-3.74 14.57-3.42 14.99-3.42C15.30-3.42 15.55-3.56 15.84-3.83L20.82-8.52C21.07-8.74 21.15-8.99 21.15-9.20C21.15-9.41 21.07-9.66 20.82-9.88L15.84-14.53C15.52-14.84 15.32-14.98 15-14.98C14.57-14.98 14.26-14.63 14.26-14.20Z" fill="currentColor"/>
</svg>