<svg xmlns="http://www.w3.org/2000/svg" viewBox="0 0 24 24" width="24" height="24">
  <title>arrow.up.left.arrow.down.right.square</title>
  <path transform="matrix(0.9270324099221438, 0, 0, 0.9270324099221438, -0.7702335687126562, 19.83813145029875)" d="M6.67 2.33L20.88 2.33C23.34 2.33 24.56 1.13 24.56-1.29L24.56-15.61C24.56-18.02 23.34-19.24 20.88-19.24L6.67-19.24C4.22-19.24 2.99-18.02 2.99-15.61L2.99-1.29C2.99 1.13 4.22 2.33 6.67 2.33ZM6.69 0.45C5.52 0.45 4.88-0.18 4.88-1.39L4.88-15.50C4.88-16.72 5.52-17.36 6.69-17.36L20.86-17.36C22.02-17.36 22.68-16.72 22.68-15.50L22.68-1.39C22.68-0.18 22.02 0.45 20.86 0.45ZM12.20-14.99C11.89-14.67 11.89-14.23 12.20-13.92L17.57-8.53L17.98-8.14L17.33-8.20L15.61-8.23C15.41-8.24 15.21-8.14 15.07-8.00C14.75-7.69 14.75-7.24 15.07-6.94C15.20-6.81 15.42-6.73 15.63-6.73L19.73-6.67C20.16-6.67 20.54-7.04 20.54-7.46L20.50-11.59C20.50-11.80 20.38-12.01 20.26-12.13C19.95-12.45 19.51-12.45 19.20-12.14C19.05-11.99 18.98-11.80 18.98-11.61L19.02-9.87L19.05-9.19L18.66-9.61L13.27-14.99C12.97-15.30 12.50-15.29 12.20-14.99ZM15.34-1.92C15.64-2.23 15.66-2.68 15.35-3L9.96-8.38L9.55-8.77L10.23-8.73L11.96-8.71C12.18-8.71 12.36-8.78 12.50-8.92C12.81-9.23 12.80-9.67 12.49-9.97C12.36-10.10 12.15-10.21 11.95-10.21L7.83-10.24C7.39-10.25 7.02-9.88 7.03-9.45L7.09-5.33C7.09-5.14 7.16-4.91 7.30-4.78C7.62-4.46 8.05-4.46 8.36-4.78C8.51-4.92 8.59-5.12 8.58-5.32L8.55-7.05L8.50-7.71L8.89-7.29L14.27-1.92C14.58-1.61 15.04-1.62 15.34-1.92Z" fill="currentColor"/>
</svg>