<svg xmlns="http://www.w3.org/2000/svg" viewBox="0 0 24 24" width="24" height="24">
  <title>arrow.up.backward.bottomtrailing.rectangle</title>
  <path transform="matrix(0.7237772123268307, 0, 0, 0.7237772123268307, -0.16284987277353702, 18.119592875318066)" d="M6.67 2.33L26.94 2.33C29.40 2.33 30.62 1.13 30.62-1.29L30.62-15.61C30.62-18.02 29.40-19.24 26.94-19.24L6.67-19.24C4.22-19.24 2.99-18.02 2.99-15.61L2.99-1.29C2.99 1.13 4.22 2.33 6.67 2.33ZM6.69 0.45C5.52 0.45 4.88-0.18 4.88-1.39L4.88-15.50C4.88-16.72 5.52-17.36 6.69-17.36L26.92-17.36C28.08-17.36 28.73-16.72 28.73-15.50L28.73-1.39C28.73-0.18 28.08 0.45 26.92 0.45ZM19.63-9.61C18.98-9.61 18.67-9.29 18.67-8.65L18.67-3.25C18.68-2.71 19.01-2.36 19.52-2.36C20.04-2.36 20.38-2.72 20.39-3.28L20.39-5.13L20.18-6.96L21.89-5.14L25.43-1.62C25.59-1.45 25.80-1.35 26.10-1.35C26.61-1.35 26.95-1.69 26.95-2.21C26.95-2.45 26.84-2.68 26.67-2.85L23.13-6.39L21.32-8.10L23.03-7.89L25.00-7.89C25.56-7.90 25.91-8.24 25.91-8.75C25.91-9.27 25.57-9.60 25.03-9.61Z" fill="currentColor"/>
</svg>