<svg xmlns="http://www.w3.org/2000/svg" viewBox="0 0 24 24" width="24" height="24">
  <title>at</title>
  <path transform="matrix(0.8020050125313283, 0, 0, 0.8020050125313283, 0.5714285714285718, 18.39097744360902)" d="M2.10-7.91C2.10-0.19 7.32 4.50 14.52 4.50C16.46 4.50 18.32 4.23 19.46 3.86C20.27 3.60 20.53 3.18 20.53 2.74C20.53 2.31 20.19 1.98 19.76 1.98C19.62 1.98 19.43 2.00 19.21 2.06C17.78 2.41 16.55 2.65 14.89 2.65C8.48 2.65 4.11-1.22 4.11-7.84C4.11-14.18 8.24-18.60 14.45-18.60C19.95-18.60 24.54-15.21 24.54-9.13C24.54-5.58 23.34-3.19 21.41-3.19C20.12-3.19 19.39-3.94 19.39-5.21L19.39-13.16C19.39-13.79 19.04-14.18 18.45-14.18C17.86-14.18 17.50-13.79 17.50-13.16L17.50-11.82L17.39-11.82C16.79-13.27 15.33-14.18 13.58-14.18C10.55-14.18 8.41-11.59 8.41-7.88C8.41-4.13 10.54-1.51 13.63-1.51C15.45-1.51 16.85-2.50 17.53-4.16L17.64-4.16C17.86-2.51 19.25-1.50 21.11-1.50C24.38-1.50 26.40-4.71 26.40-9.21C26.40-16.02 21.40-20.44 14.47-20.44C7.20-20.44 2.10-15.46 2.10-7.91ZM13.95-3.36C11.85-3.36 10.51-5.11 10.51-7.89C10.51-10.62 11.86-12.36 13.96-12.36C16.11-12.36 17.47-10.65 17.47-7.93C17.47-5.16 16.08-3.36 13.95-3.36Z" fill="currentColor"/>
</svg>