<svg xmlns="http://www.w3.org/2000/svg" viewBox="0 0 24 24" width="24" height="24">
  
  <path transform="matrix(0.9270324099221438, 0, 0, 0.9270324099221438, -0.7702335687126562, 19.83813145029875)" d="M6.67 2.33L20.88 2.33C23.34 2.33 24.56 1.13 24.56-1.29L24.56-15.61C24.56-18.02 23.34-19.24 20.88-19.24L6.67-19.24C4.22-19.24 2.99-18.02 2.99-15.61L2.99-1.29C2.99 1.13 4.22 2.33 6.67 2.33ZM6.69 0.45C5.52 0.45 4.88-0.18 4.88-1.39L4.88-15.50C4.88-16.72 5.52-17.36 6.69-17.36L20.86-17.36C22.02-17.36 22.68-16.72 22.68-15.50L22.68-1.39C22.68-0.18 22.02 0.45 20.86 0.45ZM10.98-3.21L14.40-3.21C16.83-3.21 18.39-4.38 18.39-6.22C18.39-7.65 17.43-8.66 15.87-8.85L15.87-8.92C17.03-9.20 17.74-10.11 17.74-11.29C17.74-12.89 16.44-13.93 14.43-13.93L10.98-13.93C10.34-13.93 9.95-13.55 9.95-12.88L9.95-4.25C9.95-3.61 10.34-3.21 10.98-3.21ZM11.75-9.38L11.75-12.55L14.05-12.55C15.23-12.55 15.95-11.95 15.95-10.99C15.95-9.96 15.09-9.38 13.52-9.38ZM11.75-4.59L11.75-8.09L14.25-8.09C15.68-8.09 16.51-7.43 16.51-6.30C16.51-5.13 15.61-4.59 13.66-4.59Z" fill="currentColor"/>
</svg>