<svg xmlns="http://www.w3.org/2000/svg" viewBox="0 0 24 24" width="24" height="24">
  <title>backward.frame</title>
  <path transform="matrix(0.9250225835591689, 0, 0, 0.9250225835591689, 0.8617886178861789, 19.826558265582655)" d="M21.86 0.49C22.42 0.49 22.85 0.06 22.85-0.49L22.85-16.43C22.85-16.98 22.42-17.41 21.86-17.41C21.29-17.41 20.85-16.98 20.85-16.43L20.85-0.49C20.85 0.06 21.29 0.49 21.86 0.49ZM17.17-1.14L17.17-15.80C17.17-16.90 16.54-17.41 15.77-17.41C15.45-17.41 15.09-17.32 14.75-17.12L2.45-9.95C1.56-9.43 1.23-9.05 1.23-8.46C1.23-7.88 1.56-7.49 2.45-6.97L14.75 0.20C15.09 0.39 15.45 0.49 15.77 0.49C16.54 0.49 17.17-0.04 17.17-1.14ZM15.28-2.06C15.28-1.93 15.20-1.83 15.08-1.83C15.02-1.83 14.99-1.85 14.94-1.88L4.00-8.29C3.91-8.33 3.88-8.40 3.88-8.46C3.88-8.53 3.91-8.59 4.00-8.64L14.94-15.05C14.99-15.08 15.02-15.09 15.08-15.09C15.20-15.09 15.28-15 15.28-14.86Z" fill="currentColor"/>
</svg>