<svg xmlns="http://www.w3.org/2000/svg" viewBox="0 0 24 24" width="24" height="24">
  <title>bahtsign.gauge.chart.leftthird.topthird.rightthird</title>
  <path transform="matrix(0.7084544070845441, 0, 0, 0.7084544070845441, 0.5139061851390618, 18.023213720373455)" d="M16.21-15.19C18.33-15.19 20.27-14.45 21.83-13.24C22.07-13.05 22.37-13.08 22.59-13.30L25.31-16.02C25.58-16.29 25.57-16.68 25.29-16.91C22.84-18.97 19.66-20.21 16.21-20.21C12.76-20.21 9.59-18.97 7.14-16.91C6.86-16.68 6.84-16.29 7.11-16.02L9.83-13.30C10.05-13.08 10.37-13.05 10.63-13.25C12.18-14.45 14.11-15.19 16.21-15.19ZM2.10-6.11C2.10-2.65 3.34 0.53 5.41 2.99C5.65 3.28 6.05 3.28 6.30 3.01L9.09 0.22C9.27 0.04 9.29-0.22 9.13-0.42C7.85-2.05 7.13-4.00 7.13-6.11C7.13-8.20 7.84-10.15 9.06-11.70C9.25-11.94 9.25-12.26 9.02-12.48L6.30-15.20C6.04-15.47 5.65-15.47 5.41-15.19C3.34-12.73 2.10-9.55 2.10-6.11ZM30.33-6.11C30.33-9.55 29.09-12.73 27.01-15.19C26.78-15.47 26.38-15.47 26.12-15.20L23.40-12.48C23.18-12.26 23.17-11.94 23.37-11.70C24.57-10.15 25.30-8.20 25.30-6.11C25.30-4.00 24.57-2.05 23.30-0.42C23.13-0.22 23.14 0.04 23.32 0.22L26.11 3.01C26.38 3.28 26.77 3.28 27.01 2.99C29.09 0.53 30.33-2.65 30.33-6.11ZM13.86-0.76L15.80-0.76L15.80 0.15C15.80 0.40 15.96 0.56 16.20 0.56C16.44 0.56 16.59 0.40 16.59 0.15L16.59-0.76L16.77-0.76C18.76-0.76 20.33-1.69 20.33-3.67C20.33-5.11 19.34-6.07 17.92-6.23L17.92-6.30C19.01-6.47 19.80-7.50 19.80-8.59C19.80-10.35 18.34-11.18 16.76-11.18L16.59-11.18L16.59-12.21C16.59-12.46 16.43-12.62 16.20-12.62C15.96-12.62 15.80-12.46 15.80-12.21L15.80-11.18L13.86-11.18C13.31-11.18 13.01-10.82 13.01-10.31L13.01-1.62C13.01-1.14 13.32-0.76 13.86-0.76ZM14.38-6.69L14.38-10.03L15.80-10.03L15.80-6.69ZM18.45-8.43C18.45-7.31 17.65-6.82 16.59-6.71L16.59-10.02C17.65-9.98 18.45-9.50 18.45-8.43ZM14.38-1.91L14.38-5.57L15.80-5.57L15.80-1.91ZM18.94-3.75C18.94-2.43 17.91-1.93 16.59-1.91L16.59-5.57C17.89-5.53 18.94-5.06 18.94-3.75Z" fill="currentColor"/>
</svg>