<svg xmlns="http://www.w3.org/2000/svg" viewBox="0 0 24 24" width="24" height="24">
  <title>base.unit</title>
  <path transform="matrix(0.9190450547478011, 0, 0, 0.9190450547478011, -0.7463651050080773, 19.775982767905223)" d="M4.03-0.87C4.64-0.87 5.07-1.29 5.07-1.90L5.07-7.42L22.66-7.42L22.66-1.90C22.66-1.29 23.10-0.87 23.71-0.87C24.32-0.87 24.75-1.29 24.75-1.90L24.75-15.02C24.75-15.63 24.32-16.05 23.71-16.05C23.10-16.05 22.66-15.63 22.66-15.02L22.66-9.50L5.07-9.50L5.07-15.02C5.07-15.63 4.64-16.05 4.03-16.05C3.42-16.05 2.99-15.63 2.99-15.02L2.99-1.90C2.99-1.29 3.42-0.87 4.03-0.87Z" fill="currentColor"/>
</svg>