<svg xmlns="http://www.w3.org/2000/svg" viewBox="0 0 24 24" width="24" height="24">
  <title>beats.powerbeats.pro.chargingcase.fill</title>
  <path transform="matrix(0.8546152562176598, 0, 0, 0.8546152562176598, -0.5538307461191785, 19.230846269404104)" d="M10.17 3.18L19.17 3.18C23.92 3.18 26.39 0.71 26.39-4.01L26.39-12.91C26.39-17.64 23.92-20.10 19.17-20.10L10.17-20.10C5.45-20.10 2.99-17.64 2.99-12.91L2.99-4.01C2.99 0.71 5.45 3.18 10.17 3.18ZM14.68-2.74C11.53-2.74 8.98-5.29 8.98-8.46C8.98-10.58 10.13-12.46 11.94-13.48L11.94-8.46C11.94-6.94 13.15-5.74 14.68-5.74C16.20-5.74 17.44-6.96 17.44-8.46C17.44-9.96 16.17-11.24 14.68-11.24C14.16-11.24 13.62-11.06 13.17-10.73L13.17-13.97C13.62-14.11 14.13-14.16 14.68-14.16C17.79-14.16 20.40-11.61 20.40-8.46C20.40-5.34 17.85-2.74 14.68-2.74ZM14.68-6.95C13.88-6.95 13.20-7.63 13.20-8.46C13.20-9.27 13.90-9.95 14.68-9.95C15.47-9.95 16.18-9.23 16.18-8.46C16.18-7.66 15.49-6.95 14.68-6.95Z" fill="currentColor"/>
</svg>