<svg xmlns="http://www.w3.org/2000/svg" viewBox="0 0 24 24" width="24" height="24">
  <title>beats.headphones</title>
  <path transform="matrix(0.8069345941686368, 0, 0, 0.8069345941686368, 0.17021276595744528, 18.88888888888889)" d="M2.99-9.15C2.99-7.11 3.50-5.00 4.46-3.04C4.15-2.70 4.08-2.05 4.41-1.39L6.68 3.22C6.88 3.63 7.35 3.86 7.80 3.86C8.30 3.86 8.77 3.59 8.84 2.98L6.27-2.26C5.46-3.90 4.76-6.57 4.76-9.14C4.76-14.99 8.75-18.94 14.66-18.94C20.55-18.94 24.56-14.99 24.56-9.14C24.56-6.57 23.86-3.90 23.05-2.26L20.47 2.98C20.55 3.59 21.02 3.86 21.52 3.86C21.96 3.86 22.43 3.63 22.64 3.22L24.90-1.39C25.23-2.05 25.17-2.70 24.86-3.04C25.82-5.00 26.33-7.11 26.33-9.15C26.33-15.71 21.81-20.93 14.66-20.93C7.51-20.93 2.99-15.71 2.99-9.15ZM9.01-4.89C8.59-5.75 7.79-5.94 7.18-5.70C6.49-5.43 6.01-4.61 6.53-3.55L9.52 2.53C9.97 3.46 10.79 3.79 11.59 3.39C12.28 3.06 12.54 2.27 12.14 1.44ZM20.30-4.89L17.18 1.44C16.78 2.27 17.04 3.06 17.72 3.39C18.52 3.79 19.35 3.46 19.80 2.53L22.79-3.55C23.31-4.61 22.82-5.43 22.14-5.70C21.52-5.94 20.73-5.75 20.30-4.89Z" fill="currentColor"/>
</svg>