<svg xmlns="http://www.w3.org/2000/svg" viewBox="0 0 24 24" width="24" height="24">
  <title>binoculars.circle</title>
  <path transform="matrix(0.8366013071895425, 0, 0, 0.8366013071895425, 0.2450980392156863, 19.07843137254902)" d="M14.05 3.49C20.65 3.49 26.00-1.86 26.00-8.46C26.00-15.06 20.65-20.41 14.05-20.41C7.45-20.41 2.10-15.06 2.10-8.46C2.10-1.86 7.45 3.49 14.05 3.49ZM14.05 1.50C8.54 1.50 4.09-2.95 4.09-8.46C4.09-13.97 8.54-18.42 14.05-18.42C19.56-18.42 24.01-13.97 24.01-8.46C24.01-2.95 19.56 1.50 14.05 1.50ZM6.50-5.85C6.50-4.21 7.96-2.96 9.77-2.96C11.58-2.96 13.05-4.21 13.05-5.85L13.05-7.38C13.34-7.49 13.69-7.56 14.04-7.56C14.43-7.56 14.75-7.51 15.02-7.42L15.02-5.85C15.02-4.21 16.50-2.96 18.29-2.96C20.11-2.96 21.57-4.21 21.57-5.85C21.57-6.28 21.53-6.68 21.29-7.25L18.83-12.97C18.50-13.73 17.79-14.19 16.90-14.19C15.76-14.19 15.02-13.46 15.02-12.39L15.02-11.80C14.73-11.89 14.40-11.94 14.04-11.94C13.70-11.94 13.36-11.88 13.05-11.78L13.05-12.39C13.05-13.46 12.32-14.19 11.18-14.19C10.29-14.19 9.57-13.73 9.26-12.97L6.79-7.25C6.55-6.68 6.50-6.28 6.50-5.85ZM13.05-9.14L13.05-10.01C13.35-10.10 13.70-10.16 14.04-10.16C14.40-10.16 14.73-10.11 15.02-10.03L15.02-9.20C14.75-9.28 14.43-9.33 14.04-9.33C13.69-9.33 13.34-9.27 13.05-9.14ZM7.71-5.85C7.71-6.87 8.54-7.56 9.77-7.56C11.03-7.56 11.87-6.87 11.87-5.85C11.87-4.85 11.03-4.15 9.77-4.15C8.54-4.15 7.71-4.85 7.71-5.85ZM16.20-5.85C16.20-6.87 17.05-7.56 18.29-7.56C19.52-7.56 20.37-6.87 20.37-5.85C20.37-4.85 19.52-4.15 18.29-4.15C17.05-4.15 16.20-4.85 16.20-5.85Z" fill="currentColor"/>
</svg>