<svg xmlns="http://www.w3.org/2000/svg" viewBox="0 0 24 24" width="24" height="24">
  <title>bitcoinsign.circle</title>
  <path transform="matrix(0.8366013071895425, 0, 0, 0.8366013071895425, 0.2450980392156863, 19.07843137254902)" d="M14.05 3.49C20.65 3.49 26.00-1.86 26.00-8.46C26.00-15.06 20.65-20.41 14.05-20.41C7.45-20.41 2.10-15.06 2.10-8.46C2.10-1.86 7.45 3.49 14.05 3.49ZM14.05 1.50C8.54 1.50 4.09-2.95 4.09-8.46C4.09-13.97 8.54-18.42 14.05-18.42C19.56-18.42 24.01-13.97 24.01-8.46C24.01-2.95 19.56 1.50 14.05 1.50ZM11.60-3.29L12.25-3.29L12.25-2.14C12.25-1.92 12.41-1.76 12.64-1.76C12.87-1.76 13.03-1.92 13.03-2.14L13.03-3.29L14.14-3.29L14.14-2.14C14.14-1.92 14.31-1.76 14.53-1.76C14.77-1.76 14.93-1.92 14.93-2.14L14.93-3.30C16.77-3.43 18.08-4.38 18.08-6.18C18.08-7.55 17.12-8.54 15.66-8.71L15.66-8.78C16.80-8.96 17.55-10.00 17.55-11.03C17.55-12.54 16.43-13.42 14.93-13.57L14.93-14.71C14.93-14.95 14.77-15.12 14.53-15.12C14.31-15.12 14.14-14.95 14.14-14.71L14.14-13.59L13.03-13.59L13.03-14.71C13.03-14.95 12.87-15.12 12.64-15.12C12.41-15.12 12.25-14.95 12.25-14.71L12.25-13.59L11.60-13.59C11.09-13.59 10.75-13.24 10.75-12.74L10.75-4.15C10.75-3.63 11.09-3.29 11.60-3.29ZM12.13-9.16L12.13-12.45L14.16-12.45C15.28-12.45 16.17-12 16.17-10.86C16.17-9.60 15.09-9.16 13.83-9.16ZM12.13-4.45L12.13-8.04L14.14-8.04C15.52-8.04 16.69-7.61 16.69-6.25C16.69-4.91 15.60-4.45 14.26-4.45Z" fill="currentColor"/>
</svg>