<svg xmlns="http://www.w3.org/2000/svg" viewBox="0 0 24 24" width="24" height="24">
  <title>blood.pressure.cuff.fill</title>
  <path transform="matrix(0.7677312940470835, 0, 0, 0.7677312940470835, 4.762033288349079, 18.545209176788124)" d="M9.62 4.50C11.24 4.50 12.34 3.30 12.34 1.49C12.34-0.29 11.27-1.51 9.59-1.51C8.34-1.50 6.59-0.97 5.61 0.45C3.56 0.33-0.15-0.59-0.14-2.82C-0.13-4.29 0.91-5.25 3.61-6.13C4.97-4.82 7.65-3.91 9.62-3.91C10.22-3.91 10.64-4.32 10.64-5.06L10.64-13.90C10.64-15.05 10.34-15.39 9.33-15.55C5.87-16.09 4.70-16.98 4.69-17.65C4.68-18.64 7.57-19.93 11.93-19.93C16.29-19.93 19.17-18.64 19.17-17.65C19.15-16.98 17.98-16.09 14.52-15.55C13.51-15.39 13.22-15.05 13.22-13.90L13.22-5.06C13.22-4.32 13.63-3.91 14.23-3.91C16.17-3.91 18.84-4.82 20.34-6.20C20.72-6.56 20.82-6.80 20.82-7.68L20.82-17.44C20.82-19.96 17.53-21.55 11.93-21.55C6.33-21.55 3.02-19.96 3.02-17.44L3.02-7.88C-0.21-6.84-1.97-5.40-1.97-2.88C-1.97 0.38 1.61 1.79 5.48 2.27C6.07 3.40 7.64 4.50 9.62 4.50Z" fill="currentColor"/>
</svg>