<svg xmlns="http://www.w3.org/2000/svg" viewBox="0 0 24 24" width="24" height="24">
  <title>bolt.slash.fill</title>
  <path transform="matrix(0.7639345098760925, 0, 0, 0.7639345098760925, 3.1919992276835103, 18.534976908806495)" d="M17.06-6.23L19.49-9.26C19.69-9.50 19.79-9.74 19.79-10.01C19.79-10.45 19.45-10.79 18.96-10.80L12.52-10.90L15.83-20.30C16.25-21.52 15.04-22.15 14.24-21.15L8.86-14.43ZM19.73 0.93C20.09 1.28 20.67 1.28 21.01 0.93C21.36 0.59 21.36 0.01 21.01-0.35L3.33-18.04C2.98-18.39 2.38-18.39 2.04-18.04C1.70-17.70 1.70-17.10 2.04-16.76ZM8.85 4.05L14.20-2.66L6-10.86L3.60-7.85C3.40-7.59 3.28-7.36 3.28-7.10C3.28-6.64 3.63-6.30 4.13-6.30L10.56-6.21L7.25 3.19C6.83 4.39 8.05 5.04 8.85 4.05Z" fill="currentColor"/>
</svg>