<svg xmlns="http://www.w3.org/2000/svg" viewBox="0 0 24 24" width="24" height="24">
  <title>bolt.batteryblock</title>
  <path transform="matrix(0.7237772123268307, 0, 0, 0.7237772123268307, -0.16284987277353702, 18.11535199321459)" d="M6.67 1.59L26.94 1.59C29.40 1.59 30.62 0.38 30.62-2.04L30.62-11.87C30.62-14.27 29.40-15.49 26.94-15.49L25.64-15.49L25.64-17.06C25.64-17.95 25.13-18.49 24.22-18.49L21.88-18.49C20.99-18.49 20.47-17.95 20.47-17.06L20.47-15.49L13.15-15.49L13.15-17.06C13.15-17.95 12.63-18.49 11.73-18.49L9.39-18.49C8.48-18.49 7.97-17.95 7.97-17.06L7.97-15.49L6.67-15.49C4.22-15.49 2.99-14.29 2.99-11.87L2.99-2.04C2.99 0.39 4.22 1.59 6.67 1.59ZM4.88-2.13L4.88-11.77C4.88-12.98 5.52-13.61 6.69-13.61L26.92-13.61C28.08-13.61 28.73-12.98 28.73-11.77L28.73-2.13C28.73-0.93 28.08-0.29 26.92-0.29L6.69-0.29C5.52-0.29 4.88-0.93 4.88-2.13ZM13.09-6.21C13.09-5.99 13.27-5.84 13.49-5.84L16.39-5.84L14.84-1.68C14.64-1.13 15.23-0.82 15.59-1.28L20.27-7.16C20.37-7.27 20.43-7.39 20.43-7.50C20.43-7.71 20.24-7.88 20.02-7.88L17.12-7.88L18.67-12.02C18.87-12.59 18.28-12.89 17.93-12.43L13.23-6.54C13.15-6.42 13.09-6.32 13.09-6.21Z" fill="currentColor"/>
</svg>