<svg xmlns="http://www.w3.org/2000/svg" viewBox="0 0 24 24" width="24" height="24">
  <title>bookmark.circle.fill</title>
  <path transform="matrix(0.8366013071895425, 0, 0, 0.8366013071895425, 0.2450980392156863, 19.07843137254902)" d="M14.05 3.49C20.65 3.49 26.00-1.88 26.00-8.46C26.00-15.06 20.65-20.41 14.05-20.41C7.46-20.41 2.10-15.06 2.10-8.46C2.10-1.88 7.46 3.49 14.05 3.49ZM10.48-2.05C10.08-2.05 9.82-2.34 9.82-2.84L9.82-13.01C9.82-14.18 10.43-14.80 11.60-14.80L16.50-14.80C17.67-14.80 18.28-14.18 18.28-13.01L18.28-2.84C18.28-2.34 18.02-2.05 17.63-2.05C17.31-2.05 17.13-2.24 16.58-2.79L14.11-5.20C14.07-5.24 14.03-5.24 13.99-5.20L11.53-2.79C10.97-2.24 10.79-2.05 10.48-2.05Z" fill="currentColor"/>
</svg>