<svg xmlns="http://www.w3.org/2000/svg" viewBox="0 0 24 24" width="24" height="24">
  <title>bubble.left.and.bubble.right</title>
  <path transform="matrix(0.5942432683379758, 0, 0, 0.5942432683379758, 0.22423398328691002, 17.01392757660167)" d="M20.61 0.69L24.41 0.69L28.32 4.04C29.04 4.65 29.43 4.97 29.99 4.97C30.80 4.97 31.25 4.39 31.25 3.50L31.25 0.69L31.50 0.69C34.88 0.69 36.64-1.13 36.64-4.44L36.64-10.78C36.64-14.11 34.88-15.93 31.50-15.93L28.82-15.93L28.82-16.48C28.82-19.91 26.94-21.84 23.45-21.84L8.36-21.84C4.86-21.84 2.99-19.91 2.99-16.48L2.99-7.49C2.99-4.05 4.86-2.13 8.36-2.13L8.92-2.13L8.92 0.93C8.92 1.83 9.38 2.40 10.20 2.40C10.77 2.40 11.17 2.10 11.88 1.48L15.87-2.06C16.56-0.27 18.16 0.69 20.61 0.69ZM10.68-3.13C10.68-3.77 10.43-4.02 9.80-4.02L8.36-4.02C5.99-4.02 4.88-5.21 4.88-7.50L4.88-16.46C4.88-18.75 5.99-19.96 8.36-19.96L23.45-19.96C25.80-19.96 26.93-18.75 26.93-16.46L26.93-15.93L20.61-15.93C17.24-15.93 15.47-14.11 15.47-10.78L15.47-4.44C15.47-4.29 15.48-4.14 15.48-4.00C15.06-3.96 14.78-3.82 14.43-3.46L10.68 0.26ZM20.65-1.20C18.35-1.20 17.37-2.27 17.37-4.46L17.37-10.76C17.37-12.95 18.35-14.04 20.65-14.04L31.48-14.04C33.76-14.04 34.76-12.95 34.76-10.76L34.76-4.48C34.76-2.27 33.76-1.20 31.48-1.20L30.40-1.20C29.89-1.20 29.50-0.89 29.50-0.23L29.50 2.84L25.54-0.70C25.15-1.07 24.82-1.20 24.34-1.20Z" fill="currentColor"/>
</svg>