<svg xmlns="http://www.w3.org/2000/svg" viewBox="0 0 24 24" width="24" height="24">
  <title>button.horizontal.top.press.fill</title>
  <path transform="matrix(0.6991670080568073, 0, 0, 0.6991670080568073, -0.08930766079475605, 18.554690700532568)" d="M20.41-14.86L18.29-14.86L18.29-21.19C18.29-21.76 17.86-22.20 17.30-22.20C16.73-22.20 16.30-21.76 16.30-21.19L16.30-14.86L14.16-14.86C13.20-14.86 12.79-13.89 13.42-13.17L16.56-9.62C16.98-9.14 17.58-9.13 18.01-9.62L21.15-13.17C21.77-13.85 21.42-14.86 20.41-14.86ZM9.26-0.64L25.32-0.64C28.97-0.64 31.59-2.87 31.59-6.34C31.59-9.82 28.97-12.05 25.32-12.05L22.30-12.05L19.21-8.55C18.13-7.36 16.42-7.36 15.36-8.57L12.28-12.05L9.26-12.05C5.61-12.05 2.99-9.82 2.99-6.34C2.99-2.87 5.61-0.64 9.26-0.64ZM9.26 3.45L25.32 3.45C28.79 3.45 31.15 1.71 31.56-1.69C30.14-0.02 27.90 0.96 25.32 0.96L9.26 0.96C6.67 0.96 4.45-0.02 3.04-1.69C3.45 1.72 5.78 3.45 9.26 3.45Z" fill="currentColor"/>
</svg>