<svg xmlns="http://www.w3.org/2000/svg" viewBox="0 0 24 24" width="24" height="24">
  <title>camera.circle.fill</title>
  <path transform="matrix(0.8366013071895425, 0, 0, 0.8366013071895425, 0.2450980392156863, 19.068627450980394)" d="M14.05 3.50C20.65 3.50 26.00-1.85 26.00-8.45C26.00-15.04 20.65-20.40 14.05-20.40C7.46-20.40 2.10-15.04 2.10-8.45C2.10-1.85 7.46 3.50 14.05 3.50ZM8.66-2.99C7.38-2.99 6.74-3.62 6.74-4.88L6.74-11.26C6.74-12.54 7.38-13.16 8.66-13.16L10.18-13.16C10.65-13.16 10.79-13.28 11.06-13.56L11.57-14.11C11.87-14.45 12.19-14.63 12.81-14.63L15.25-14.63C15.88-14.63 16.20-14.45 16.49-14.11L16.98-13.56C17.25-13.25 17.41-13.16 17.88-13.16L19.44-13.16C20.71-13.16 21.36-12.54 21.36-11.26L21.36-4.88C21.36-3.62 20.71-2.99 19.44-2.99ZM14.06-4.51C16.07-4.51 17.67-6.07 17.67-8.13C17.67-10.14 16.07-11.75 14.06-11.75C12.06-11.75 10.44-10.14 10.44-8.13C10.44-6.11 12.06-4.51 14.06-4.51ZM19.11-10.04C19.56-10.04 19.93-10.42 19.93-10.86C19.93-11.32 19.56-11.70 19.11-11.70C18.67-11.70 18.29-11.32 18.29-10.86C18.29-10.42 18.67-10.04 19.11-10.04ZM14.05-5.55C12.63-5.55 11.47-6.70 11.47-8.13C11.47-9.56 12.63-10.71 14.05-10.71C15.47-10.71 16.63-9.56 16.63-8.13C16.63-6.70 15.47-5.55 14.05-5.55Z" fill="currentColor"/>
</svg>