<svg xmlns="http://www.w3.org/2000/svg" viewBox="0 0 24 24" width="24" height="24">
  <title>car.side.rear.tow.hitch</title>
  <path transform="matrix(0.7465733449985419, 0, 0, 0.7465733449985419, -0.23972003499562566, 18.321084864391953)" d="M3-3.40L3-1.51L11.39-1.51C12.02-0.01 13.49 1.02 15.25 1.02C17.00 1.02 18.47-0.01 19.09-1.51L20.14-1.51C21.39-1.51 22.31-1.80 22.92-2.41L26.43-2.41L26.43-1.55C26.43-1.13 26.77-0.79 27.20-0.79C27.62-0.79 27.95-1.13 27.95-1.55L27.95-2.41L29.09-2.41C29.47-2.41 29.79-2.75 29.79-3.14C29.79-3.54 29.47-3.87 29.09-3.87L27.95-3.87L27.95-5.21L28.18-5.21C28.29-5.21 28.41-5.26 28.52-5.32C29.04-5.75 29.39-6.38 29.39-7.09C29.39-8.27 28.41-9.27 27.20-9.27C25.99-9.27 25.00-8.27 25.00-7.09C25.00-6.38 25.36-5.75 25.88-5.32C25.98-5.26 26.10-5.21 26.21-5.21L26.43-5.21L26.43-3.87L23.70-3.87C23.81-4.32 23.86-4.85 23.86-5.45L23.86-8.70C23.86-10.88 22.82-12.23 20.59-12.96L18.73-13.58C16.36-15.60 13.10-17.95 8.71-17.95L6.93-17.95C5.37-17.95 4.10-17.91 3-17.77L3-15.87C4.05-16.02 5.31-16.07 6.93-16.07L8.71-16.07C11.78-16.07 14.21-14.93 17.24-12.28C17.78-11.80 18.08-11.67 18.79-11.45L20.02-11.05C21.36-10.62 21.97-9.93 21.97-8.70L21.97-5.45C21.97-4.04 21.41-3.40 20.14-3.40L19.41-3.40C19.28-5.61 17.50-7.31 15.25-7.31C13.00-7.31 11.21-5.61 11.09-3.40ZM15.25-0.75C13.90-0.75 12.84-1.80 12.84-3.14C12.84-4.49 13.90-5.54 15.25-5.54C16.58-5.54 17.64-4.49 17.64-3.14C17.64-1.80 16.58-0.75 15.25-0.75Z" fill="currentColor"/>
</svg>