<svg xmlns="http://www.w3.org/2000/svg" viewBox="0 0 24 24" width="24" height="24">
  <title>car.top.radiowaves.2.front.left.front.front.right.fill</title>
  <path transform="matrix(0.6026365348399246, 0, 0, 0.6026365348399246, 1.311440677966102, 17.487288135593218)" d="M17.73-25.70C15.69-25.70 13.72-25.34 11.92-24.69C11.36-24.48 11.14-23.93 11.39-23.44C11.61-23.02 12.06-22.88 12.49-23.03C14.13-23.61 15.90-23.94 17.73-23.94C19.57-23.94 21.34-23.61 22.98-23.03C23.41-22.88 23.86-23.02 24.08-23.44C24.33-23.93 24.12-24.48 23.55-24.69C21.75-25.34 19.78-25.70 17.73-25.70ZM25.77-23.71C25.76-23.38 25.68-23.04 25.51-22.73C25.38-22.48 25.24-22.27 25.05-22.09C27.35-20.86 29.34-19.05 30.83-16.78C31.11-16.34 31.61-16.22 32.04-16.46C32.48-16.71 32.63-17.24 32.33-17.71C30.68-20.27 28.41-22.32 25.77-23.71ZM9.70-23.71C7.07-22.32 4.79-20.27 3.14-17.71C2.85-17.24 2.99-16.71 3.43-16.46C3.87-16.22 4.36-16.34 4.63-16.78C6.13-19.05 8.12-20.86 10.42-22.09C10.24-22.27 10.09-22.48 9.96-22.73C9.80-23.04 9.71-23.38 9.70-23.71ZM17.73-21.45C16.35-21.45 15.02-21.22 13.77-20.82C13.20-20.66 12.97-20.07 13.23-19.56C13.43-19.18 13.85-19.02 14.29-19.16C15.36-19.49 16.52-19.69 17.73-19.69C18.95-19.69 20.11-19.49 21.19-19.16C21.62-19.02 22.04-19.18 22.24-19.56C22.50-20.07 22.28-20.66 21.70-20.82C20.45-21.22 19.13-21.45 17.73-21.45ZM23.94-19.90C23.93-19.55 23.84-19.18 23.67-18.84C23.55-18.62 23.43-18.43 23.27-18.27C24.90-17.39 26.32-16.11 27.40-14.55C27.67-14.14 28.14-14.02 28.57-14.25C29.03-14.51 29.18-15.06 28.85-15.52C27.60-17.38 25.90-18.88 23.94-19.90ZM11.53-19.90C9.57-18.88 7.89-17.38 6.62-15.52C6.29-15.06 6.45-14.51 6.90-14.25C7.34-14.02 7.80-14.14 8.07-14.55C9.15-16.11 10.57-17.39 12.20-18.27C12.05-18.43 11.92-18.62 11.80-18.84C11.64-19.18 11.54-19.55 11.53-19.90ZM17.75 7.49C22.25 7.49 24.27 6.47 24.27 3.88L24.27-6.35L24.77-6.35C25.35-6.35 25.80-6.80 25.80-7.35L25.80-7.79C25.80-8.36 25.35-8.79 24.77-8.79L24.27-8.79L24.27-11.33C24.27-14.00 21.81-15.59 17.75-15.59C13.70-15.59 11.23-14.00 11.23-11.33L11.23-8.79L10.73-8.79C10.15-8.79 9.69-8.36 9.69-7.79L9.69-7.35C9.69-6.80 10.15-6.35 10.73-6.35L11.23-6.35L11.23 3.88C11.23 6.47 13.24 7.49 17.75 7.49ZM17.74-5.94C16.93-5.94 15.56-5.87 15.11-5.87C14.38-5.87 14.05-6.18 13.99-6.94L13.83-8.63C13.72-10.02 14.64-10.55 17.74-10.55C20.87-10.55 21.79-10.02 21.67-8.63L21.53-6.94C21.46-6.18 21.13-5.87 20.40-5.87C19.93-5.87 18.62-5.94 17.74-5.94ZM17.74 3.75C14.64 3.75 13.65 3.29 13.86 1.85L14.00 1.03C14.18-0.12 15.07-0.48 17.74-0.48C20.44-0.48 21.33-0.12 21.52 1.03L21.63 1.85C21.86 3.29 20.87 3.75 17.74 3.75Z" fill="currentColor"/>
</svg>