<svg xmlns="http://www.w3.org/2000/svg" viewBox="0 0 24 24" width="24" height="24">
  <title>car.side.hill.down.and.gauge.open.with.lines.needle.25percent.and.arrowtriangle.fill</title>
  <path transform="matrix(0.45080717432816064, 0, 0, 0.45080717432816064, 0.6528613735896762, 16.04537595700899)" d="M9.91-12.42C10.36-12.42 10.71-12.79 10.71-13.22C10.71-13.42 10.64-13.61 10.44-13.80C9.54-14.77 8.91-16.28 8.91-17.92C8.91-19.41 9.40-20.75 10.22-21.82L11.05-20.99C11.34-20.70 11.84-20.70 12.14-20.99C12.43-21.29 12.43-21.77 12.14-22.07L11.30-22.91C12.19-23.59 13.25-24.05 14.45-24.19L14.45-23.07C14.45-22.66 14.79-22.31 15.20-22.31C15.61-22.31 15.97-22.66 15.97-23.07L15.97-24.19C17.14-24.05 18.22-23.59 19.10-22.90L18.27-22.07C17.98-21.77 17.96-21.29 18.27-20.99C18.57-20.70 19.05-20.70 19.36-20.99L20.17-21.82C20.91-20.86 21.38-19.69 21.46-18.36C21.89-18.70 22.37-19.03 22.92-19.37C22.24-23.02 19.01-25.84 15.20-25.84C10.89-25.84 7.30-22.24 7.30-17.92C7.30-15.93 8.06-14.06 9.26-12.75C9.43-12.56 9.67-12.42 9.91-12.42ZM16.84 1.17L17.36 0.87C17.17 0.64 16.98 0.41 16.83 0.14C15.73-1.77 16.36-4.15 18.28-5.26C20.20-6.38 22.58-5.73 23.70-3.82C23.85-3.55 23.96-3.28 24.05-2.99L33.69-8.55C33.49-8.79 33.32-9.02 33.16-9.29C32.05-11.20 32.70-13.58 34.62-14.68C36.54-15.80 38.92-15.16 40.02-13.24C40.17-12.98 40.29-12.70 40.37-12.42L40.90-12.73C42.70-13.77 43.02-15.09 41.92-16.99L40.61-19.28C39.73-20.80 38.44-21.33 36.59-20.94L35.03-20.61C32.54-21.07 29.31-21.41 26.23-19.62L24.97-18.90C21.62-16.97 20.40-15.81 19.11-13.38L16.99-9.38L13.61-6.83C11.48-5.24 10.93-3.04 12.06-1.09L12.66-0.04C13.75 1.84 15.06 2.20 16.84 1.17ZM3.57-16.02L5.85-17.52C6.13-17.72 6.15-18.02 5.84-18.22L3.60-19.72C3.33-19.89 3-19.76 2.99-19.39L2.99-16.32C2.99-15.97 3.32-15.83 3.57-16.02ZM15.20-16.45C15.96-16.49 16.48-17.05 16.46-17.78C16.41-18.53 15.83-19.05 15.12-19.03C14.96-19.01 14.71-18.96 14.54-18.91L10.62-17.94C10.38-17.88 10.27-17.70 10.28-17.52C10.29-17.33 10.42-17.18 10.68-17.13L14.68-16.50C14.84-16.48 15.08-16.46 15.20-16.45ZM38.02-8.80C39.40-9.60 39.86-11.31 39.06-12.69C38.26-14.07 36.55-14.53 35.17-13.73C33.79-12.93 33.33-11.21 34.11-9.84C34.92-8.45 36.63-7.99 38.02-8.80ZM15.19 7.41C15.47 7.88 16.04 8.02 16.48 7.78L46.89-9.77C47.32-10.03 47.48-10.61 47.24-11.04C46.96-11.51 46.37-11.66 45.95-11.41L15.53 6.14C15.11 6.39 14.94 6.97 15.19 7.41ZM21.69 0.63C23.07-0.16 23.53-1.88 22.73-3.27C21.94-4.64 20.23-5.10 18.84-4.30C17.45-3.50 16.99-1.79 17.79-0.41C18.59 0.97 20.30 1.43 21.69 0.63Z" fill="currentColor"/>
</svg>