<svg xmlns="http://www.w3.org/2000/svg" viewBox="0 0 24 24" width="24" height="24">
  <title>carseat.right.up.and.down.fill</title>
  <path transform="matrix(0.6206615442185964, 0, 0, 0.6206615442185964, 1.9813065158600682, 17.310459577111082)" d="M29.10-4.84C30.06-8.34 27.52-9.87 21.23-9.87C18.41-9.87 15.47-9.61 13.13-9.15C13.54-13.77 12.14-17.57 9.20-19.48C9.81-22.71 7.62-24.67 5.60-24.67C3.91-24.67 2.46-23.36 3.18-20.45L7.58-2.57C8.02-0.80 9.18 0.14 10.91 0.14L24.59 0.14C27 0.14 28.07-1.02 29.10-4.84ZM23.04-11.65C23.67-11.65 23.94-12.15 23.60-12.70L21.07-16.86C20.74-17.40 20.12-17.39 19.80-16.86L17.25-12.70C16.91-12.15 17.20-11.65 17.82-11.65ZM23.04 1.93L17.82 1.93C17.20 1.93 16.91 2.45 17.25 3L19.80 7.16C20.12 7.68 20.73 7.70 21.07 7.16L23.60 3C23.93 2.45 23.67 1.93 23.04 1.93Z" fill="currentColor"/>
</svg>