<svg xmlns="http://www.w3.org/2000/svg" viewBox="0 0 24 24" width="24" height="24">
  <title>character.bubble.fill</title>
  <path transform="matrix(0.7743496672716274, 0, 0, 0.7743496672716274, -0.31397459165154284, 17.939201451905625)" d="M9.95 4.49C10.41 4.49 10.75 4.25 11.30 3.74L15.53-0.13L23.45-0.13C26.94-0.13 28.82-2.05 28.82-5.48L28.82-14.46C28.82-17.89 26.94-19.83 23.45-19.83L8.36-19.83C4.86-19.83 2.99-17.91 2.99-14.46L2.99-5.48C2.99-2.04 4.86-0.13 8.36-0.13L8.91-0.13L8.91 3.28C8.91 4.01 9.28 4.49 9.95 4.49ZM11.94-4.32C11.39-4.32 11.04-4.66 11.04-5.16C11.04-5.34 11.06-5.52 11.17-5.79L14.55-14.91C14.79-15.54 15.25-15.86 15.90-15.86C16.56-15.86 17.03-15.54 17.26-14.91L20.65-5.79C20.75-5.52 20.78-5.34 20.78-5.16C20.78-4.66 20.43-4.32 19.89-4.32C19.44-4.32 19.14-4.52 18.94-5.10L18.06-7.66L13.76-7.66L12.88-5.10C12.68-4.52 12.38-4.32 11.94-4.32ZM14.24-9.13L17.58-9.13L15.97-13.79L15.84-13.79Z" fill="currentColor"/>
</svg>