<svg xmlns="http://www.w3.org/2000/svg" viewBox="0 0 24 24" width="24" height="24">
  <title>chevron.up.forward.dotted.2</title>
  <path transform="matrix(0.9235209235209235, 0, 0, 0.9235209235209235, -0.7543290043290045, 19.813852813852815)" d="M20.53-17.13C21.13-17.13 21.61-17.61 21.61-18.21C21.61-18.81 21.13-19.29 20.53-19.29C19.93-19.29 19.45-18.81 19.45-18.21C19.45-17.61 19.93-17.13 20.53-17.13ZM17.52-17.13C18.12-17.13 18.60-17.61 18.60-18.21C18.60-18.81 18.12-19.29 17.52-19.29C16.92-19.29 16.44-18.81 16.44-18.21C16.44-17.61 16.92-17.13 17.52-17.13ZM14.50-17.13C15.09-17.13 15.57-17.61 15.57-18.21C15.57-18.81 15.09-19.29 14.50-19.29C13.90-19.29 13.42-18.81 13.42-18.21C13.42-17.61 13.90-17.13 14.50-17.13ZM11.48-17.13C12.08-17.13 12.56-17.61 12.56-18.21C12.56-18.81 12.08-19.29 11.48-19.29C10.89-19.29 10.41-18.81 10.41-18.21C10.41-17.61 10.89-17.13 11.48-17.13ZM23.55-17.13C24.15-17.13 24.63-17.61 24.63-18.21C24.63-18.81 24.15-19.29 23.55-19.29C22.96-19.29 22.48-18.81 22.48-18.21C22.48-17.61 22.96-17.13 23.55-17.13ZM23.55-14.12C24.15-14.12 24.63-14.60 24.63-15.20C24.63-15.80 24.15-16.28 23.55-16.28C22.96-16.28 22.48-15.80 22.48-15.20C22.48-14.60 22.96-14.12 23.55-14.12ZM23.55-11.10C24.15-11.10 24.63-11.58 24.63-12.18C24.63-12.77 24.15-13.25 23.55-13.25C22.96-13.25 22.48-12.77 22.48-12.18C22.48-11.58 22.96-11.10 23.55-11.10ZM13.13-9.70C13.72-9.70 14.20-10.18 14.20-10.78C14.20-11.38 13.72-11.86 13.13-11.86C12.53-11.86 12.05-11.38 12.05-10.78C12.05-10.18 12.53-9.70 13.13-9.70ZM10.10-9.70C10.70-9.70 11.18-10.18 11.18-10.78C11.18-11.38 10.70-11.86 10.10-11.86C9.50-11.86 9.02-11.38 9.02-10.78C9.02-10.18 9.50-9.70 10.10-9.70ZM7.09-9.70C7.69-9.70 8.17-10.18 8.17-10.78C8.17-11.38 7.69-11.86 7.09-11.86C6.48-11.86 6.01-11.38 6.01-10.78C6.01-10.18 6.48-9.70 7.09-9.70ZM4.07-9.70C4.66-9.70 5.14-10.18 5.14-10.78C5.14-11.38 4.66-11.86 4.07-11.86C3.47-11.86 2.99-11.38 2.99-10.78C2.99-10.18 3.47-9.70 4.07-9.70ZM16.14-9.70C16.73-9.70 17.21-10.18 17.21-10.78C17.21-11.38 16.73-11.86 16.14-11.86C15.54-11.86 15.06-11.38 15.06-10.78C15.06-10.18 15.54-9.70 16.14-9.70ZM23.55-8.09C24.15-8.09 24.63-8.57 24.63-9.16C24.63-9.76 24.15-10.24 23.55-10.24C22.96-10.24 22.48-9.76 22.48-9.16C22.48-8.57 22.96-8.09 23.55-8.09ZM16.14-6.69C16.73-6.69 17.21-7.16 17.21-7.77C17.21-8.37 16.73-8.85 16.14-8.85C15.54-8.85 15.06-8.37 15.06-7.77C15.06-7.16 15.54-6.69 16.14-6.69ZM23.55-5.06C24.15-5.06 24.63-5.54 24.63-6.14C24.63-6.74 24.15-7.22 23.55-7.22C22.96-7.22 22.48-6.74 22.48-6.14C22.48-5.54 22.96-5.06 23.55-5.06ZM16.14-3.67C16.73-3.67 17.21-4.15 17.21-4.75C17.21-5.34 16.73-5.82 16.14-5.82C15.54-5.82 15.06-5.34 15.06-4.75C15.06-4.15 15.54-3.67 16.14-3.67ZM16.14-0.64C16.73-0.64 17.21-1.13 17.21-1.73C17.21-2.33 16.73-2.81 16.14-2.81C15.54-2.81 15.06-2.33 15.06-1.73C15.06-1.13 15.54-0.64 16.14-0.64ZM16.14 2.37C16.73 2.37 17.21 1.89 17.21 1.29C17.21 0.69 16.73 0.21 16.14 0.21C15.54 0.21 15.06 0.69 15.06 1.29C15.06 1.89 15.54 2.37 16.14 2.37Z" fill="currentColor"/>
</svg>