<svg xmlns="http://www.w3.org/2000/svg" viewBox="0 0 24 24" width="24" height="24">
  <title>chineseyuanrenminbisign.circle.fill</title>
  <path transform="matrix(0.8366013071895425, 0, 0, 0.8366013071895425, 0.2450980392156863, 19.07843137254902)" d="M14.05 3.49C20.65 3.49 26.00-1.88 26.00-8.46C26.00-15.06 20.65-20.41 14.05-20.41C7.46-20.41 2.10-15.06 2.10-8.46C2.10-1.88 7.46 3.49 14.05 3.49ZM14.05-2.79C13.64-2.79 13.35-3.09 13.35-3.52L13.35-5.24L10.99-5.24C10.76-5.24 10.58-5.43 10.58-5.65C10.58-5.88 10.76-6.07 10.99-6.07L13.35-6.07L13.35-7.34L10.99-7.34C10.76-7.34 10.58-7.51 10.58-7.75C10.58-7.99 10.76-8.16 10.99-8.16L12.93-8.16L9.91-13.02C9.81-13.18 9.76-13.35 9.76-13.49C9.76-13.88 10.05-14.13 10.46-14.13C10.78-14.13 10.96-13.99 11.11-13.73L14.04-8.75L14.09-8.75L17.00-13.73C17.17-13.99 17.39-14.12 17.64-14.12C18.04-14.12 18.34-13.86 18.34-13.49C18.34-13.29 18.30-13.20 18.20-13.02L15.19-8.16L17.14-8.16C17.38-8.16 17.55-7.99 17.55-7.75C17.55-7.51 17.38-7.34 17.14-7.34L14.75-7.34L14.75-6.07L17.14-6.07C17.38-6.07 17.55-5.88 17.55-5.65C17.55-5.43 17.38-5.24 17.14-5.24L14.75-5.24L14.75-3.52C14.75-3.09 14.46-2.79 14.05-2.79Z" fill="currentColor"/>
</svg>