<svg xmlns="http://www.w3.org/2000/svg" viewBox="0 0 24 24" width="24" height="24">
  <title>circle.square</title>
  <path transform="matrix(0.9270324099221438, 0, 0, 0.9270324099221438, -0.7702335687126562, 19.83813145029875)" d="M6.67 2.33L20.88 2.33C23.34 2.33 24.56 1.13 24.56-1.29L24.56-15.61C24.56-18.02 23.34-19.24 20.88-19.24L6.67-19.24C4.22-19.24 2.99-18.02 2.99-15.61L2.99-1.29C2.99 1.13 4.22 2.33 6.67 2.33ZM6.69 0.45C5.52 0.45 4.88-0.18 4.88-1.39L4.88-15.50C4.88-16.72 5.52-17.36 6.69-17.36L20.86-17.36C22.02-17.36 22.68-16.72 22.68-15.50L22.68-1.39C22.68-0.18 22.02 0.45 20.86 0.45ZM13.78-2.19C17.26-2.19 20.06-4.99 20.06-8.46C20.06-11.93 17.26-14.74 13.78-14.74C10.31-14.74 7.51-11.93 7.51-8.46C7.51-4.99 10.31-2.19 13.78-2.19ZM13.78-4.01C11.32-4.01 9.33-6 9.33-8.46C9.33-10.92 11.32-12.91 13.78-12.91C16.24-12.91 18.23-10.92 18.23-8.46C18.23-6 16.24-4.01 13.78-4.01Z" fill="currentColor"/>
</svg>