<svg xmlns="http://www.w3.org/2000/svg" viewBox="0 0 24 24" width="24" height="24">
  <title>circle.grid.2x1.fill</title>
  <path transform="matrix(0.6509026188660056, 0, 0, 0.6509026188660056, 0.6346300533943554, 17.511060259344013)" d="M8.92-1.64C12.69-1.64 15.75-4.70 15.75-8.46C15.75-12.22 12.69-15.29 8.92-15.29C5.16-15.29 2.10-12.22 2.10-8.46C2.10-4.70 5.16-1.64 8.92-1.64ZM26.00-1.64C29.77-1.64 32.82-4.70 32.82-8.46C32.82-12.22 29.77-15.29 26.00-15.29C22.23-15.29 19.17-12.22 19.17-8.46C19.17-4.70 22.23-1.64 26.00-1.64Z" fill="currentColor"/>
</svg>