<svg xmlns="http://www.w3.org/2000/svg" viewBox="0 0 24 24" width="24" height="24">
  <title>circle.filled.ipad.fill</title>
  <path transform="matrix(0.7575085071756177, 0, 0, 0.7575085071756177, 2.319573901464714, 18.413670661340436)" d="M6.23 4.73L19.32 4.73C21.27 4.73 22.57 3.49 22.57 1.64L22.57-18.56C22.57-20.41 21.27-21.67 19.32-21.67L6.23-21.67C4.29-21.67 2.99-20.41 2.99-18.56L2.99 1.64C2.99 3.49 4.29 4.73 6.23 4.73ZM12.77-2.46C9.47-2.46 6.77-5.14 6.77-8.47C6.77-11.78 9.47-14.46 12.77-14.46C16.09-14.46 18.79-11.78 18.79-8.47C18.79-5.14 16.09-2.46 12.77-2.46Z" fill="currentColor"/>
</svg>