<svg xmlns="http://www.w3.org/2000/svg" viewBox="0 0 24 24" width="24" height="24">
  <title>circle.grid.cross.fill</title>
  <path transform="matrix(0.7198088007872909, 0, 0, 0.7198088007872909, 0.6840995360607334, 18.094474905103333)" d="M15.71-12.15C18.52-12.15 20.82-14.46 20.82-17.26C20.82-20.06 18.52-22.36 15.71-22.36C12.90-22.36 10.61-20.06 10.61-17.26C10.61-14.46 12.90-12.15 15.71-12.15ZM7.21-3.36C10.01-3.36 12.32-5.67 12.32-8.47C12.32-11.26 10.01-13.57 7.21-13.57C4.38-13.57 2.10-11.26 2.10-8.47C2.10-5.67 4.38-3.36 7.21-3.36ZM24.25-3.36C27.04-3.36 29.34-5.67 29.34-8.47C29.34-11.26 27.04-13.57 24.25-13.57C21.42-13.57 19.13-11.26 19.13-8.47C19.13-5.67 21.42-3.36 24.25-3.36ZM15.71 5.43C18.52 5.43 20.82 3.12 20.82 0.32C20.82-2.47 18.52-4.78 15.71-4.78C12.90-4.78 10.61-2.47 10.61 0.32C10.61 3.12 12.90 5.43 15.71 5.43Z" fill="currentColor"/>
</svg>