<svg xmlns="http://www.w3.org/2000/svg" viewBox="0 0 24 24" width="24" height="24">
  <title>contact.sensor.fill</title>
  <path transform="matrix(0.6418453052526012, 0, 0, 0.6418453052526012, 3.4704776231666044, 17.434373824746146)" d="M13.28-24.05C12.76-24.05 12.36-23.64 12.36-23.13L12.36-18.66L14.19-18.66L14.19-23.13C14.19-23.64 13.79-24.05 13.28-24.05ZM6.67 1.72L12.36 1.72L12.36-18.66L6.67-18.66C4.22-18.66 2.99-17.44 2.99-15.02L2.99-1.90C2.99 0.52 4.22 1.72 6.67 1.72ZM19.91 1.72C22.37 1.72 23.59 0.50 23.59-1.90L23.59-15.02C23.59-17.44 22.37-18.66 19.91-18.66L14.19-18.66L14.19 1.72ZM13.28 7.11C13.79 7.11 14.19 6.71 14.19 6.20L14.19 1.72L12.36 1.72L12.36 6.20C12.36 6.71 12.76 7.11 13.28 7.11Z" fill="currentColor"/>
</svg>