<svg xmlns="http://www.w3.org/2000/svg" viewBox="0 0 24 24" width="24" height="24">
  <title>convertible.side.arrow.trianglehead.forward.and.backward.fill</title>
  <path transform="matrix(0.4577588645866814, 0, 0, 0.4577588645866814, 0.6320877679343309, 17.089506894270453)" d="M33.55-17.51L33.50-19.18C35.86-19.35 38.84-19.15 41.37-18.02L40.77-16.49C40.48-15.71 40.95-15.29 41.72-15.49L46.02-16.58C46.68-16.75 46.86-17.29 46.49-17.81L43.99-21.48C43.57-22.10 42.96-22.11 42.66-21.35L42.09-19.90C39.21-21.14 35.92-21.34 33.43-21.18L33.40-22.71C33.36-23.55 32.79-23.73 32.17-23.30L28.59-20.67C28.04-20.29 28.07-19.73 28.62-19.36L32.32-16.86C32.99-16.42 33.57-16.68 33.55-17.51ZM37.03-13.10C35.33-13.42 34.02-13.57 32.14-13.44L20.04-12.67C21.62-13.80 23.24-14.89 25.32-16.01C26.46-16.59 25.52-18.20 24.30-17.54C21.50-16.05 18.89-14.36 16.70-12.52L8.71-11.02C4.91-10.30 2.99-8.54 2.99-5.45L2.99-3.89C2.99-2.13 3.77-1.27 5.54-1.07L7.89-0.79C7.79-1.16 7.73-1.82 7.73-2.23C7.73-4.95 9.90-7.10 12.62-7.10C15.35-7.10 17.52-4.95 17.52-2.23C17.52-1.89 17.48-1.50 17.43-1.27L31.95-1.27C31.88-1.52 31.83-1.88 31.83-2.23C31.83-4.95 34.00-7.10 36.71-7.10C39.45-7.10 41.60-4.71 41.60-1.99C41.60-1.84 41.60-1.78 41.59-1.64L42.84-1.77C45.09-2.00 46.20-3.26 46.20-5.59L46.20-7.63C46.20-10.41 45.16-11.59 42.50-12.08ZM12.62 1.29C14.60 1.29 16.15-0.26 16.15-2.23C16.15-4.20 14.60-5.74 12.62-5.74C10.65-5.74 9.11-4.20 9.11-2.23C9.11-0.26 10.65 1.29 12.62 1.29ZM36.71 1.29C38.70 1.29 40.24-0.26 40.24-2.23C40.24-4.20 38.70-5.74 36.71-5.74C34.75-5.74 33.20-4.20 33.20-2.23C33.20-0.26 34.75 1.29 36.71 1.29Z" fill="currentColor"/>
</svg>