<svg xmlns="http://www.w3.org/2000/svg" viewBox="0 0 24 24" width="24" height="24">
  <title>cooktop</title>
  <path transform="matrix(0.7072800110512502, 0, 0, 0.7072800110512502, -0.11355159552424343, 17.97596353087443)" d="M6.48 3.06L27.77 3.06C30.09 3.06 31.27 1.88 31.27-0.40L31.27-16.50C31.27-18.77 30.09-19.96 27.77-19.96L6.48-19.96C4.17-19.96 2.99-18.77 2.99-16.50L2.99-0.40C2.99 1.88 4.17 3.06 6.48 3.06ZM6.49 1.17C5.46 1.17 4.88 0.59 4.88-0.49L4.88-16.41C4.88-17.48 5.46-18.07 6.49-18.07L27.76-18.07C28.79-18.07 29.38-17.48 29.38-16.41L29.38-0.49C29.38 0.59 28.79 1.17 27.76 1.17ZM10.54-9.34C12.47-9.34 14.05-10.92 14.05-12.86C14.05-14.79 12.47-16.37 10.54-16.37C8.60-16.37 7.02-14.79 7.02-12.86C7.02-10.92 8.60-9.34 10.54-9.34ZM19.62-9.34C21.55-9.34 23.12-10.92 23.12-12.86C23.12-14.79 21.55-16.37 19.62-16.37C17.67-16.37 16.10-14.79 16.10-12.86C16.10-10.92 17.67-9.34 19.62-9.34ZM10.54-10.45C9.21-10.45 8.14-11.53 8.14-12.86C8.14-14.18 9.21-15.26 10.54-15.26C11.86-15.26 12.94-14.18 12.94-12.86C12.94-11.53 11.86-10.45 10.54-10.45ZM19.62-10.45C18.29-10.45 17.21-11.53 17.21-12.86C17.21-14.18 18.29-15.26 19.62-15.26C20.94-15.26 22.01-14.18 22.01-12.86C22.01-11.53 20.94-10.45 19.62-10.45ZM10.54-11.00C11.58-11.00 12.38-11.81 12.38-12.86C12.38-13.90 11.58-14.70 10.54-14.70C9.50-14.70 8.70-13.90 8.70-12.86C8.70-11.81 9.50-11.00 10.54-11.00ZM19.62-11.00C20.65-11.00 21.46-11.81 21.46-12.86C21.46-13.90 20.65-14.70 19.62-14.70C18.57-14.70 17.77-13.90 17.77-12.86C17.77-11.81 18.57-11.00 19.62-11.00ZM26.72-12.48C27.29-12.48 27.74-12.94 27.74-13.51C27.74-14.07 27.29-14.53 26.72-14.53C26.14-14.53 25.69-14.07 25.69-13.51C25.69-12.94 26.14-12.48 26.72-12.48ZM26.72-9.12C27.29-9.12 27.74-9.56 27.74-10.15C27.74-10.71 27.29-11.17 26.72-11.17C26.14-11.17 25.69-10.71 25.69-10.15C25.69-9.56 26.14-9.12 26.72-9.12ZM26.72-5.74C27.29-5.74 27.74-6.20 27.74-6.77C27.74-7.35 27.29-7.79 26.72-7.79C26.14-7.79 25.69-7.35 25.69-6.77C25.69-6.20 26.14-5.74 26.72-5.74ZM10.54-0.56C12.47-0.56 14.05-2.13 14.05-4.08C14.05-6.01 12.47-7.58 10.54-7.58C8.60-7.58 7.02-6.01 7.02-4.08C7.02-2.13 8.60-0.56 10.54-0.56ZM19.62-0.56C21.55-0.56 23.12-2.13 23.12-4.08C23.12-6.01 21.55-7.58 19.62-7.58C17.67-7.58 16.10-6.01 16.10-4.08C16.10-2.13 17.67-0.56 19.62-0.56ZM10.54-1.68C9.21-1.68 8.14-2.74 8.14-4.08C8.14-5.40 9.21-6.47 10.54-6.47C11.86-6.47 12.94-5.40 12.94-4.08C12.94-2.74 11.86-1.68 10.54-1.68ZM19.62-1.68C18.29-1.68 17.21-2.74 17.21-4.08C17.21-5.40 18.29-6.47 19.62-6.47C20.94-6.47 22.01-5.40 22.01-4.08C22.01-2.74 20.94-1.68 19.62-1.68ZM10.54-2.23C11.58-2.23 12.38-3.04 12.38-4.08C12.38-5.11 11.58-5.92 10.54-5.92C9.50-5.92 8.70-5.11 8.70-4.08C8.70-3.04 9.50-2.23 10.54-2.23ZM19.62-2.23C20.65-2.23 21.46-3.04 21.46-4.08C21.46-5.11 20.65-5.92 19.62-5.92C18.57-5.92 17.77-5.11 17.77-4.08C17.77-3.04 18.57-2.23 19.62-2.23ZM26.72-2.38C27.29-2.38 27.74-2.84 27.74-3.41C27.74-3.97 27.29-4.43 26.72-4.43C26.14-4.43 25.69-3.97 25.69-3.41C25.69-2.84 26.14-2.38 26.72-2.38Z" fill="currentColor"/>
</svg>