<svg xmlns="http://www.w3.org/2000/svg" viewBox="0 0 24 24" width="24" height="24">
  <title>curlybraces.square</title>
  <path transform="matrix(0.9270324099221438, 0, 0, 0.9270324099221438, -0.7702335687126562, 19.83813145029875)" d="M6.67 2.33L20.88 2.33C23.34 2.33 24.56 1.13 24.56-1.29L24.56-15.61C24.56-18.02 23.34-19.24 20.88-19.24L6.67-19.24C4.22-19.24 2.99-18.02 2.99-15.61L2.99-1.29C2.99 1.13 4.22 2.33 6.67 2.33ZM6.69 0.45C5.52 0.45 4.88-0.18 4.88-1.39L4.88-15.50C4.88-16.72 5.52-17.36 6.69-17.36L20.86-17.36C22.02-17.36 22.68-16.72 22.68-15.50L22.68-1.39C22.68-0.18 22.02 0.45 20.86 0.45ZM11.46-2.06C12.16-2.06 12.55-2.39 12.55-2.87C12.55-3.34 12.21-3.64 11.74-3.64C10.95-3.64 10.65-3.98 10.65-4.96L10.65-6.56C10.65-7.45 10.17-8.16 9.36-8.45C10.17-8.74 10.65-9.43 10.65-10.34L10.65-11.93C10.65-12.90 10.95-13.25 11.74-13.25C12.21-13.25 12.55-13.55 12.55-14.02C12.55-14.50 12.16-14.84 11.46-14.84C9.88-14.84 8.94-13.91 8.94-12.09L8.94-10.63C8.94-9.79 8.74-9.59 8.14-9.43C7.16-9.18 7.17-7.72 8.14-7.46C8.74-7.30 8.94-7.10 8.94-6.26L8.94-4.79C8.94-2.98 9.88-2.06 11.46-2.06ZM16.13-2.06C17.70-2.06 18.64-2.98 18.64-4.79L18.64-6.26C18.64-7.10 18.84-7.30 19.43-7.46C20.41-7.71 20.41-9.19 19.43-9.43C18.84-9.59 18.64-9.79 18.64-10.63L18.64-12.09C18.64-13.91 17.70-14.84 16.13-14.84C15.42-14.84 15.02-14.50 15.02-14.02C15.02-13.55 15.38-13.25 15.84-13.25C16.63-13.25 16.93-12.90 16.93-11.93L16.93-10.34C16.93-9.43 17.40-8.74 18.21-8.45C17.40-8.16 16.93-7.45 16.93-6.56L16.93-4.96C16.93-3.98 16.63-3.64 15.84-3.64C15.38-3.64 15.02-3.34 15.02-2.87C15.02-2.39 15.42-2.06 16.13-2.06Z" fill="currentColor"/>
</svg>