<svg xmlns="http://www.w3.org/2000/svg" viewBox="0 0 24 24" width="24" height="24">
  <title>die.face.4.fill</title>
  <path transform="matrix(0.9270324099221438, 0, 0, 0.9270324099221438, -0.7702335687126562, 19.83813145029875)" d="M6.67 2.33L20.88 2.33C23.34 2.33 24.56 1.13 24.56-1.29L24.56-15.61C24.56-18.02 23.34-19.24 20.88-19.24L6.67-19.24C4.22-19.24 2.99-18.02 2.99-15.61L2.99-1.29C2.99 1.13 4.22 2.33 6.67 2.33ZM8.36-11.92C7.27-11.94 6.39-12.80 6.39-13.90C6.39-14.98 7.27-15.84 8.36-15.84C9.42-15.84 10.31-14.98 10.31-13.90C10.31-12.80 9.42-11.89 8.36-11.92ZM19.22-11.92C18.13-11.94 17.24-12.80 17.24-13.90C17.24-14.98 18.13-15.84 19.22-15.84C20.29-15.84 21.16-14.98 21.16-13.90C21.16-12.80 20.29-11.89 19.22-11.92ZM8.36-1.04C7.27-1.04 6.40-1.92 6.40-3.01C6.40-4.10 7.27-4.97 8.36-4.97C9.42-4.97 10.31-4.10 10.31-3.01C10.31-1.92 9.42-1.04 8.36-1.04ZM19.22-1.04C18.13-1.04 17.26-1.92 17.26-3.01C17.26-4.10 18.13-4.97 19.22-4.97C20.29-4.97 21.16-4.10 21.16-3.01C21.16-1.92 20.29-1.04 19.22-1.04Z" fill="currentColor"/>
</svg>