<svg xmlns="http://www.w3.org/2000/svg" viewBox="0 0 24 24" width="24" height="24">
  
  <path transform="matrix(0.9270324099221438, 0, 0, 0.9270324099221438, -0.7702335687126562, 19.83813145029875)" d="M6.67 2.33L20.88 2.33C23.34 2.33 24.56 1.13 24.56-1.29L24.56-15.61C24.56-18.02 23.34-19.24 20.88-19.24L6.67-19.24C4.22-19.24 2.99-18.02 2.99-15.61L2.99-1.29C2.99 1.13 4.22 2.33 6.67 2.33ZM6.69 0.45C5.52 0.45 4.88-0.18 4.88-1.39L4.88-15.50C4.88-16.72 5.52-17.36 6.69-17.36L20.86-17.36C22.02-17.36 22.68-16.72 22.68-15.50L22.68-1.39C22.68-0.18 22.02 0.45 20.86 0.45ZM8.52-11.81C9.55-11.80 10.42-12.67 10.42-13.73C10.42-14.78 9.55-15.62 8.52-15.62C7.46-15.62 6.61-14.78 6.61-13.73C6.61-12.67 7.46-11.84 8.52-11.81ZM19.05-11.81C20.09-11.80 20.94-12.67 20.94-13.73C20.94-14.78 20.09-15.62 19.05-15.62C18-15.62 17.13-14.78 17.13-13.73C17.13-12.67 18-11.84 19.05-11.81ZM8.52-6.54C9.55-6.54 10.42-7.39 10.42-8.46C10.42-9.50 9.55-10.35 8.52-10.35C7.46-10.35 6.62-9.50 6.62-8.46C6.62-7.39 7.46-6.54 8.52-6.54ZM19.04-6.54C20.09-6.54 20.94-7.39 20.94-8.46C20.94-9.50 20.09-10.35 19.04-10.35C18-10.35 17.14-9.50 17.14-8.46C17.14-7.39 18-6.54 19.04-6.54ZM8.52-1.27C9.55-1.27 10.42-2.12 10.42-3.18C10.42-4.23 9.55-5.07 8.52-5.07C7.46-5.07 6.62-4.23 6.62-3.18C6.62-2.12 7.46-1.27 8.52-1.27ZM19.05-1.27C20.09-1.27 20.94-2.12 20.94-3.18C20.94-4.23 20.09-5.07 19.05-5.07C18-5.07 17.16-4.23 17.16-3.18C17.16-2.12 18-1.27 19.05-1.27Z" fill="currentColor"/>
</svg>