<svg xmlns="http://www.w3.org/2000/svg" viewBox="0 0 24 24" width="24" height="24">
  <title>digitalcrown.horizontal.press</title>
  <path transform="matrix(0.732789466151424, 0, 0, 0.732789466151424, 1.128381279519107, 18.857020180334906)" d="M17.96-15.67L15.84-15.67L15.84-22.01C15.84-22.57 15.40-23.00 14.85-23.00C14.27-23.00 13.84-22.57 13.84-22.01L13.84-15.67L11.70-15.67C10.73-15.67 10.32-14.71 10.96-13.98L14.11-10.44C14.53-9.95 15.12-9.95 15.55-10.44L18.69-13.98C19.31-14.67 18.96-15.67 17.96-15.67ZM14.84 4.29C22.21 4.29 26.68 2.23 26.68-2.67L26.68-7.35C26.68-9.90 23.99-11.84 19.64-12.62L18.16-10.97C22.23-10.51 24.80-9.18 24.80-7.35C24.80-5.07 20.81-3.53 14.84-3.53C8.86-3.53 4.88-5.07 4.88-7.35C4.88-9.16 7.43-10.51 11.51-10.97L10.02-12.62C5.67-11.84 2.99-9.90 2.99-7.35L2.99-2.67C2.99 2.23 7.45 4.29 14.84 4.29ZM7.98-1.29L7.98-2.54C8.61-2.34 9.30-2.18 10.04-2.05L10.04-0.49C10.04-0.07 10.38 0.28 10.80 0.28C11.23 0.28 11.58-0.07 11.58-0.49L11.58-1.82C12.32-1.73 13.10-1.69 13.92-1.66L13.92-0.19C13.92 0.23 14.27 0.57 14.70 0.57C15.12 0.57 15.46 0.23 15.46-0.19L15.46-1.65C16.28-1.66 17.06-1.71 17.81-1.79L17.81-0.49C17.81-0.07 18.16 0.28 18.59 0.28C19.01 0.28 19.35-0.07 19.35-0.49L19.35-1.99C20.09-2.12 20.77-2.27 21.41-2.46L21.41-1.29C21.41-0.87 21.75-0.52 22.17-0.52C22.59-0.52 22.95-0.87 22.95-1.29L22.95-3C23.65-3.29 24.27-3.64 24.80-4.03L24.80-2.67C24.80 1.05 21.04 2.40 14.84 2.40C8.64 2.40 4.88 1.05 4.88-2.67L4.88-4.03C5.33-3.69 5.85-3.39 6.45-3.12L6.45-1.29C6.45-0.87 6.80-0.52 7.22-0.52C7.64-0.52 7.98-0.87 7.98-1.29Z" fill="currentColor"/>
</svg>