<svg xmlns="http://www.w3.org/2000/svg" viewBox="0 0 24 24" width="24" height="24">
  <title>distribute.horizontal.center</title>
  <path transform="matrix(0.736266896750072, 0, 0, 0.736266896750072, 1.055220017256255, 18.229508196721312)" d="M5.63 2.12L6.81 2.12L6.81 4.31C6.81 4.77 7.22 5.12 7.68 5.12C8.13 5.12 8.53 4.77 8.53 4.31L8.53 2.12L9.70 2.12C11.41 2.12 12.34 1.17 12.34-0.57L12.34-16.35C12.34-18.09 11.41-19.03 9.70-19.03L8.53-19.03L8.53-21.23C8.53-21.69 8.13-22.04 7.68-22.04C7.22-22.04 6.81-21.69 6.81-21.23L6.81-19.03L5.63-19.03C3.91-19.03 2.99-18.09 2.99-16.35L2.99-0.57C2.99 1.17 3.91 2.12 5.63 2.12ZM20.03-1.36L21.21-1.36L21.21 4.31C21.21 4.77 21.61 5.12 22.07 5.12C22.52 5.12 22.93 4.77 22.93 4.31L22.93-1.36L24.11-1.36C25.82-1.36 26.74-2.30 26.74-4.04L26.74-12.88C26.74-14.63 25.82-15.56 24.11-15.56L22.93-15.56L22.93-21.23C22.93-21.69 22.52-22.04 22.07-22.04C21.61-22.04 21.21-21.69 21.21-21.23L21.21-15.56L20.03-15.56C18.32-15.56 17.39-14.63 17.39-12.88L17.39-4.04C17.39-2.30 18.32-1.36 20.03-1.36ZM5.73 0.35C5.10 0.35 4.76 0 4.76-0.60L4.76-16.32C4.76-16.92 5.10-17.26 5.73-17.26L9.61-17.26C10.23-17.26 10.57-16.92 10.57-16.32L10.57-0.60C10.57 0 10.23 0.35 9.61 0.35ZM20.12-3.13C19.50-3.13 19.16-3.47 19.16-4.07L19.16-12.84C19.16-13.45 19.50-13.79 20.12-13.79L24-13.79C24.63-13.79 24.97-13.45 24.97-12.84L24.97-4.07C24.97-3.47 24.63-3.13 24-3.13Z" fill="currentColor"/>
</svg>