<svg xmlns="http://www.w3.org/2000/svg" viewBox="0 0 24 24" width="24" height="24">
  <title>distribute.horizontal.right.fill</title>
  <path transform="matrix(0.6661462399167317, 0, 0, 0.6661462399167317, 0.00936768149882905, 17.63622170179547)" d="M15.13 5.12C15.59 5.12 15.98 4.77 15.98 4.31L15.98-21.23C15.98-21.69 15.59-22.04 15.13-22.04C14.67-22.04 14.26-21.69 14.26-21.23L14.26 4.31C14.26 4.77 14.67 5.12 15.13 5.12ZM32.14 5.12C32.60 5.12 33.01 4.77 33.01 4.31L33.01-21.23C33.01-21.69 32.60-22.04 32.14-22.04C31.69-22.04 31.29-21.69 31.29-21.23L31.29 4.31C31.29 4.77 31.69 5.12 32.14 5.12ZM5.63 2.80L9.70 2.80C11.41 2.80 12.34 1.85 12.34 0.11L12.34-17.03C12.34-18.77 11.41-19.71 9.70-19.71L5.63-19.71C3.91-19.71 2.99-18.77 2.99-17.03L2.99 0.11C2.99 1.85 3.91 2.80 5.63 2.80ZM22.65-1.36L26.72-1.36C28.43-1.36 29.37-2.30 29.37-4.04L29.37-12.88C29.37-14.63 28.43-15.56 26.72-15.56L22.65-15.56C20.94-15.56 20.00-14.63 20.00-12.88L20.00-4.04C20.00-2.30 20.94-1.36 22.65-1.36Z" fill="currentColor"/>
</svg>