<svg xmlns="http://www.w3.org/2000/svg" viewBox="0 0 24 24" width="24" height="24">
  <title>document.viewfinder.fill</title>
  <path transform="matrix(0.8716377255703098, 0, 0, 0.8716377255703098, -0.6046986721144023, 19.359550561797754)" d="M3.93-12.46C4.55-12.46 4.88-12.81 4.88-13.42L4.88-16.18C4.88-17.40 5.52-18.02 6.69-18.02L9.53-18.02C10.15-18.02 10.49-18.36 10.49-18.97C10.49-19.58 10.15-19.91 9.53-19.91L6.67-19.91C4.22-19.91 2.99-18.70 2.99-16.29L2.99-13.42C2.99-12.81 3.33-12.46 3.93-12.46ZM24.98-12.46C25.61-12.46 25.93-12.81 25.93-13.42L25.93-16.29C25.93-18.70 24.70-19.91 22.25-19.91L19.38-19.91C18.77-19.91 18.43-19.58 18.43-18.97C18.43-18.36 18.77-18.02 19.38-18.02L22.22-18.02C23.38-18.02 24.05-17.40 24.05-16.18L24.05-13.42C24.05-12.81 24.39-12.46 24.98-12.46ZM11.18-1.21L18.26-1.21C19.73-1.21 20.46-1.97 20.46-3.45L20.46-8.88L14.99-8.88C14.12-8.88 13.63-9.39 13.63-10.25L13.63-15.71L11.18-15.71C9.73-15.71 8.98-14.95 8.98-13.49L8.98-3.45C8.98-1.96 9.73-1.21 11.18-1.21ZM15.32-10.18L20.39-10.18C20.33-10.46 20.13-10.77 19.79-11.11L15.84-15.06C15.50-15.40 15.22-15.60 14.93-15.64L14.93-10.56C14.93-10.31 15.06-10.18 15.32-10.18ZM6.67 3.02L9.53 3.02C10.15 3.02 10.49 2.68 10.49 2.09C10.49 1.48 10.15 1.14 9.53 1.14L6.69 1.14C5.52 1.14 4.88 0.52 4.88-0.70L4.88-3.47C4.88-4.09 4.54-4.43 3.93-4.43C3.32-4.43 2.99-4.09 2.99-3.47L2.99-0.61C2.99 1.82 4.22 3.02 6.67 3.02ZM19.38 3.02L22.25 3.02C24.70 3.02 25.93 1.80 25.93-0.61L25.93-3.47C25.93-4.09 25.59-4.43 24.98-4.43C24.38-4.43 24.05-4.09 24.05-3.47L24.05-0.70C24.05 0.52 23.38 1.14 22.22 1.14L19.38 1.14C18.77 1.14 18.43 1.48 18.43 2.09C18.43 2.68 18.77 3.02 19.38 3.02Z" fill="currentColor"/>
</svg>