<svg xmlns="http://www.w3.org/2000/svg" viewBox="0 0 24 24" width="24" height="24">
  <title>document.on.document.fill</title>
  <path transform="matrix(0.6783253842077371, 0, 0, 0.6783253842077371, 1.8449920508744038, 17.747217806041334)" d="M22.86 0.42L23.32 0.42C25.72 0.42 26.95-0.82 26.95-3.26L26.95-14.38L20.47-14.38C19.24-14.38 18.55-15.07 18.55-16.29L18.55-23.21L12.30-23.21C9.93-23.21 8.67-21.97 8.67-19.63L8.67-18.96L10.37-18.96C12.01-18.96 13.34-18.59 14.65-17.27L21.30-10.63C22.62-9.30 22.86-7.95 22.86-6.35ZM20.70-15.84L26.81-15.84C26.75-16.22 26.50-16.55 26.09-16.96L21.13-22.01C20.73-22.43 20.39-22.69 20.03-22.73L20.04-16.52C20.04-16.04 20.21-15.84 20.70-15.84ZM6.62 6.27L17.64 6.27C20.06 6.27 21.27 5.03 21.27 2.59L21.27-6.67L13.09-6.67C11.58-6.67 10.88-7.38 10.88-8.88L10.88-17.37L6.62-17.37C4.21-17.37 2.99-16.14 2.99-13.69L2.99 2.59C2.99 5.04 4.20 6.27 6.62 6.27ZM13.08-8.27L21.06-8.27C20.94-8.73 20.67-9.15 20.14-9.69L13.89-16.07C13.37-16.59 12.93-16.95 12.47-17.07L12.47-8.87C12.47-8.47 12.68-8.27 13.08-8.27Z" fill="currentColor"/>
</svg>