<svg xmlns="http://www.w3.org/2000/svg" viewBox="0 0 24 24" width="24" height="24">
  <title>drop.keypad.rectangle.fill</title>
  <path transform="matrix(0.7764634516226873, 0, 0, 0.7764634516226873, -0.32029117379435856, 18.555959963603275)" d="M6.67 1.05L25.08 1.05C27.53 1.05 28.75-0.16 28.75-2.58L28.75-14.31C28.75-16.72 27.53-17.94 25.08-17.94L6.67-17.94C4.22-17.94 2.99-16.72 2.99-14.31L2.99-2.58C2.99-0.16 4.22 1.05 6.67 1.05ZM18.88-10.78C18.09-10.78 17.46-11.43 17.46-12.20C17.46-12.97 18.09-13.62 18.88-13.62C19.65-13.62 20.30-12.97 20.30-12.20C20.30-11.43 19.65-10.78 18.88-10.78ZM23.04-10.78C22.27-10.78 21.62-11.43 21.62-12.20C21.62-12.97 22.27-13.62 23.04-13.62C23.81-13.62 24.46-12.97 24.46-12.20C24.46-11.43 23.81-10.78 23.04-10.78ZM11.57-3.52C9.54-3.52 8.17-4.84 8.17-6.81C8.17-7.78 8.58-8.66 8.88-9.30C9.42-10.48 10.31-11.92 11.06-13.09C11.20-13.31 11.36-13.42 11.57-13.42C11.78-13.42 11.93-13.31 12.07-13.09C12.83-11.92 13.72-10.48 14.25-9.30C14.55-8.66 14.96-7.78 14.96-6.81C14.96-4.84 13.59-3.52 11.57-3.52ZM18.88-7.04C18.09-7.04 17.46-7.69 17.46-8.46C17.46-9.23 18.09-9.88 18.88-9.88C19.65-9.88 20.30-9.23 20.30-8.46C20.30-7.69 19.65-7.04 18.88-7.04ZM23.04-7.04C22.27-7.04 21.62-7.69 21.62-8.46C21.62-9.23 22.27-9.88 23.04-9.88C23.81-9.88 24.46-9.23 24.46-8.46C24.46-7.69 23.81-7.04 23.04-7.04ZM18.88-3.30C18.09-3.30 17.46-3.95 17.46-4.72C17.46-5.50 18.09-6.14 18.88-6.14C19.65-6.14 20.30-5.50 20.30-4.72C20.30-3.95 19.65-3.30 18.88-3.30ZM23.04-3.30C22.27-3.30 21.62-3.95 21.62-4.72C21.62-5.50 22.27-6.14 23.04-6.14C23.81-6.14 24.46-5.50 24.46-4.72C24.46-3.95 23.81-3.30 23.04-3.30Z" fill="currentColor"/>
</svg>