<svg xmlns="http://www.w3.org/2000/svg" viewBox="0 0 24 24" width="24" height="24">
  <title>ellipsis.message.fill</title>
  <path transform="matrix(0.7378584810491425, 0, 0, 0.7378584810491425, 0.45222654561175957, 18.926070038910506)" d="M15.64 1.89C23.51 1.89 29.20-2.86 29.20-9.39C29.20-15.93 23.50-20.66 15.64-20.66C7.79-20.66 2.10-15.93 2.10-9.39C2.10-4.69 4.68-3.42 4.68-1.32C4.68-0.41 4.38 0.19 3.68 0.84C3.15 1.31 3.43 1.89 4.21 1.89C5.82 1.89 7.48 1.36 8.68 0.48C10.71 1.41 13.07 1.89 15.64 1.89ZM10.07-7.58C9.11-7.58 8.31-8.37 8.31-9.34C8.31-10.31 9.11-11.10 10.07-11.10C11.03-11.10 11.82-10.31 11.82-9.34C11.82-8.37 11.04-7.58 10.07-7.58ZM15.71-7.58C14.74-7.58 13.96-8.37 13.96-9.34C13.96-10.31 14.74-11.10 15.71-11.10C16.68-11.10 17.46-10.31 17.46-9.34C17.46-8.37 16.68-7.58 15.71-7.58ZM21.35-7.58C20.38-7.58 19.59-8.37 19.59-9.34C19.59-10.31 20.38-11.10 21.35-11.10C22.31-11.10 23.11-10.31 23.11-9.34C23.11-8.37 22.31-7.58 21.35-7.58Z" fill="currentColor"/>
</svg>