<svg xmlns="http://www.w3.org/2000/svg" viewBox="0 0 24 24" width="24" height="24">
  <title>eurosign.circle</title>
  <path transform="matrix(0.8366013071895425, 0, 0, 0.8366013071895425, 0.2450980392156863, 19.07843137254902)" d="M14.05 3.49C20.65 3.49 26.00-1.86 26.00-8.46C26.00-15.06 20.65-20.41 14.05-20.41C7.45-20.41 2.10-15.06 2.10-8.46C2.10-1.86 7.45 3.49 14.05 3.49ZM14.05 1.50C8.54 1.50 4.09-2.95 4.09-8.46C4.09-13.97 8.54-18.42 14.05-18.42C19.56-18.42 24.01-13.97 24.01-8.46C24.01-2.95 19.56 1.50 14.05 1.50ZM8.47-7.48C8.47-7.27 8.65-7.09 8.87-7.09L10.22-7.09C10.77-4.64 12.76-3.30 15.47-3.30C15.80-3.30 16.21-3.33 16.52-3.40C16.89-3.49 17.16-3.66 17.16-4.01C17.16-4.38 16.91-4.56 16.54-4.56C16.15-4.56 16.01-4.51 15.54-4.51C13.54-4.51 12.14-5.43 11.66-7.09L15.35-7.09C15.56-7.09 15.74-7.27 15.74-7.48C15.74-7.70 15.56-7.88 15.35-7.88L11.51-7.88C11.48-8.07 11.47-8.29 11.47-8.51C11.47-8.75 11.48-8.98 11.51-9.20L15.35-9.20C15.56-9.20 15.74-9.38 15.74-9.59C15.74-9.80 15.56-9.97 15.35-9.97L11.67-9.97C12.14-11.60 13.48-12.53 15.50-12.53C15.93-12.53 16.29-12.48 16.54-12.48C16.91-12.48 17.16-12.67 17.16-13.04C17.16-13.36 16.96-13.56 16.52-13.66C16.25-13.72 15.88-13.76 15.47-13.76C12.97-13.76 10.80-12.54 10.22-9.97L8.87-9.97C8.65-9.97 8.47-9.80 8.47-9.59C8.47-9.38 8.65-9.20 8.87-9.20L10.10-9.20C10.08-8.98 10.07-8.75 10.07-8.52C10.07-8.30 10.08-8.09 10.10-7.88L8.87-7.88C8.65-7.88 8.47-7.70 8.47-7.48Z" fill="currentColor"/>
</svg>