<svg xmlns="http://www.w3.org/2000/svg" viewBox="0 0 24 24" width="24" height="24">
  
  <path transform="matrix(0.9270324099221438, 0, 0, 0.9270324099221438, -0.7702335687126562, 19.83813145029875)" d="M6.67 2.33L20.88 2.33C23.34 2.33 24.56 1.13 24.56-1.29L24.56-15.61C24.56-18.02 23.34-19.24 20.88-19.24L6.67-19.24C4.22-19.24 2.99-18.02 2.99-15.61L2.99-1.29C2.99 1.13 4.22 2.33 6.67 2.33ZM6.69 0.45C5.52 0.45 4.88-0.18 4.88-1.39L4.88-15.50C4.88-16.72 5.52-17.36 6.69-17.36L20.86-17.36C22.02-17.36 22.68-16.72 22.68-15.50L22.68-1.39C22.68-0.18 22.02 0.45 20.86 0.45ZM8.66-3.75L12.33-3.75C12.69-3.75 12.93-3.96 12.93-4.32C12.93-4.69 12.69-4.90 12.33-4.90L9.33-4.90L9.33-7.99L12.20-7.99C12.53-7.99 12.75-8.21 12.75-8.54C12.75-8.87 12.53-9.08 12.20-9.08L9.33-9.08L9.33-12.01L12.33-12.01C12.69-12.01 12.93-12.22 12.93-12.59C12.93-12.95 12.69-13.15 12.33-13.15L8.66-13.15C8.24-13.15 8.00-12.88 8.00-12.47L8.00-4.44C8.00-4.01 8.23-3.75 8.66-3.75ZM14.95-3.75L19.46-3.75C19.80-3.75 20.02-3.98 20.02-4.32C20.02-4.66 19.80-4.90 19.46-4.90L15.83-4.90L15.83-4.96L19.70-11.91C19.80-12.09 19.89-12.27 19.89-12.50C19.89-12.86 19.66-13.15 19.21-13.15L14.91-13.15C14.55-13.15 14.31-12.94 14.31-12.59C14.31-12.23 14.55-12.01 14.91-12.01L18.39-12.01L18.39-11.94L14.46-4.97C14.36-4.79 14.29-4.61 14.29-4.39C14.29-3.96 14.60-3.75 14.95-3.75Z" fill="currentColor"/>
</svg>