<svg xmlns="http://www.w3.org/2000/svg" viewBox="0 0 24 24" width="24" height="24">
  <title>ev.charger.slash.fill</title>
  <path transform="matrix(0.6698721093775554, 0, 0, 0.6698721093775554, 1.6761848690020607, 17.1516043567854)" d="M20.20-4.52L20.20-10.38C21.26-9.74 21.71-8.81 21.71-7.72C21.71-6.34 21.56-4.71 21.48-3.23L22.86-1.86C22.88-3.61 23.13-5.77 23.13-7.72C23.13-9.61 22.28-11.09 20.20-11.95L20.20-18.55C20.20-20.47 19.15-21.53 17.24-21.53L7.80-21.53C6.30-21.53 5.37-20.88 5.04-19.68L6.81-17.91L6.81-18.28C6.81-19.08 7.32-19.56 8.18-19.56L16.86-19.56C17.72-19.56 18.23-19.08 18.23-18.28L18.23-12.16C18.23-11.38 17.72-10.91 16.86-10.91L13.82-10.91ZM26.12 5.88C26.48 6.23 27.06 6.23 27.40 5.88C27.75 5.52 27.76 4.95 27.40 4.59L2.03-20.75C1.68-21.11 1.10-21.11 0.74-20.75C0.40-20.41 0.40-19.82 0.74-19.48ZM26.07 1.36C27.25 0.83 27.90-0.41 27.90-2.20L27.90-9.68C27.90-10.73 28.70-11.02 29.19-11.41C29.94-11.96 30.34-12.75 30.34-13.66L30.34-15.25C30.34-15.49 30.19-15.66 29.98-15.66L29.23-15.66L29.23-17.78C29.23-18.09 28.96-18.36 28.63-18.36C28.31-18.36 28.04-18.09 28.04-17.78L28.04-15.66L26.47-15.66L26.47-17.78C26.47-18.09 26.21-18.36 25.90-18.36C25.56-18.36 25.31-18.09 25.31-17.78L25.31-15.66L24.42-15.66C24.19-15.66 24.05-15.49 24.05-15.25L24.05-13.66C24.05-12.75 24.46-11.96 25.18-11.41C25.70-11.02 26.48-10.73 26.48-9.68L26.48-2.20C26.48-0.81 25.93 0.06 24.94 0.21ZM3.91 4.61L21.28 4.61C21.60 4.61 21.89 4.42 22.05 4.16L4.85-13.02L4.85 2.72L3.91 2.72C3.42 2.72 2.99 3.13 2.99 3.64C2.99 4.17 3.41 4.61 3.91 4.61Z" fill="currentColor"/>
</svg>