<svg xmlns="http://www.w3.org/2000/svg" viewBox="0 0 24 24" width="24" height="24">
  <title>exclamationmark.3</title>
  <path transform="matrix(0.8977731018762055, 0, 0, 0.8977731018762055, 0.053655970541819364, 19.51709626512362)" d="M4.66-3.69C5.29-3.69 5.71-4.10 5.72-4.73L5.82-18.39C5.82-19.05 5.29-19.51 4.65-19.51C4.02-19.51 3.48-19.05 3.48-18.39L3.61-4.73C3.62-4.10 4.04-3.69 4.66-3.69ZM13.31-3.69C13.93-3.69 14.36-4.10 14.37-4.73L14.47-18.39C14.47-19.05 13.93-19.51 13.30-19.51C12.68-19.51 12.13-19.05 12.13-18.39L12.26-4.73C12.27-4.10 12.70-3.69 13.31-3.69ZM21.97-3.69C22.58-3.69 23.02-4.10 23.03-4.73L23.13-18.39C23.13-19.05 22.58-19.51 21.96-19.51C21.33-19.51 20.78-19.05 20.78-18.39L20.91-4.73C20.92-4.10 21.35-3.69 21.97-3.69ZM4.65 2.77C5.58 2.77 6.32 2.02 6.32 1.10C6.32 0.18 5.58-0.56 4.65-0.56C3.74-0.56 2.99 0.18 2.99 1.10C2.99 2.02 3.74 2.77 4.65 2.77ZM13.30 2.77C14.24 2.77 14.98 2.02 14.98 1.10C14.98 0.18 14.24-0.56 13.30-0.56C12.39-0.56 11.64 0.18 11.64 1.10C11.64 2.02 12.39 2.77 13.30 2.77ZM21.96 2.77C22.89 2.77 23.63 2.02 23.63 1.10C23.63 0.18 22.89-0.56 21.96-0.56C21.04-0.56 20.29 0.18 20.29 1.10C20.29 2.02 21.04 2.77 21.96 2.77Z" fill="currentColor"/>
</svg>