<svg xmlns="http://www.w3.org/2000/svg" viewBox="0 0 24 24" width="24" height="24">
  <title>fan.slash</title>
  <path transform="matrix(0.7930607187112764, 0, 0, 0.7930607187112764, -0.36988847583643114, 18.71003717472119)" d="M11.51-21.07C10.10-21.07 8.68-20.58 7.46-19.79L8.79-18.48C9.62-18.97 10.58-19.28 11.51-19.28C12.60-19.28 12.96-18.88 12.96-17.72L12.96-14.31L14.75-12.52L14.75-17.72C14.75-19.88 13.59-21.07 11.51-21.07ZM27.36-2.57C27.36-5.86 24-7.57 18.26-9.32L24.87-9.32C27.02-9.32 28.21-10.48 28.21-12.56C28.20-16.31 24.81-20.23 21.49-20.23C18.42-20.23 16.71-17.30 15.14-12.12L17.94-9.32L17.95-9.32L20.94-6.32C24-5.34 25.57-4.28 25.57-2.57C25.57-2.31 25.52-2.06 25.43-1.83L26.85-0.41C27.18-1.10 27.36-1.84 27.36-2.57ZM25.70 2.94C26.06 3.29 26.64 3.28 26.98 2.93C27.33 2.58 27.33 2.00 26.98 1.65L5.48-19.84C5.13-20.19 4.56-20.20 4.20-19.84C3.86-19.50 3.86-18.91 4.20-18.56ZM21.49-18.43C23.84-18.43 26.41-15.33 26.41-12.56C26.41-11.47 26.03-11.11 24.87-11.11L16.73-11.11C18.18-15.86 19.31-18.43 21.49-18.43ZM9.70 3.29C12.77 3.29 14.48 0.38 16.05-4.77L13.35-7.48L10.21-10.62C7.20-11.59 5.64-12.64 5.64-14.36C5.64-14.60 5.68-14.82 5.78-15.06L4.36-16.48C4.03-15.80 3.84-15.08 3.84-14.36C3.84-11.06 7.17-9.35 12.90-7.62L6.33-7.62C4.18-7.62 2.99-6.46 2.99-4.37C3-0.61 6.39 3.29 9.70 3.29ZM9.70 1.50C7.36 1.50 4.78-1.59 4.78-4.37C4.78-5.46 5.17-5.82 6.33-5.82L14.46-5.82C13.02-1.08 11.89 1.50 9.70 1.50ZM19.70 4.15C21.11 4.14 22.51 3.68 23.72 2.89L22.41 1.57C21.56 2.06 20.63 2.36 19.70 2.36C18.61 2.36 18.25 1.97 18.25 0.81L18.25-2.58L16.45-4.37L16.45 0.81C16.45 2.96 17.61 4.15 19.70 4.15Z" fill="currentColor"/>
</svg>