<svg xmlns="http://www.w3.org/2000/svg" viewBox="0 0 24 24" width="24" height="24">
  <title>figure.badminton.circle.fill</title>
  <path transform="matrix(0.8366013071895425, 0, 0, 0.8366013071895425, 0.2450980392156863, 19.07843137254902)" d="M14.05 3.49C20.65 3.49 26.00-1.88 26.00-8.46C26.00-15.06 20.65-20.41 14.05-20.41C7.46-20.41 2.10-15.06 2.10-8.46C2.10-1.88 7.46 3.49 14.05 3.49ZM7.63-10.92L9.42-14.06C9.12-14.33 8.92-14.72 8.92-15.15C8.92-15.96 9.57-16.61 10.39-16.61C11.19-16.61 11.85-15.96 11.85-15.15C11.85-14.34 11.19-13.69 10.39-13.69C10.30-13.69 10.20-13.70 10.09-13.72L8.65-11.18C8.73-11.12 8.81-11.06 8.88-10.98L10.49-9.36L19.99-14.12C20.34-14.30 20.75-14.16 20.93-13.82C21.11-13.48 20.98-13.04 20.61-12.87L16.31-10.72C16.14-10.64 16.08-10.50 16.14-10.24L18-2.81C18.09-2.46 17.95-2.13 17.64-1.93L14.58 0.09C14.24 0.32 13.82 0.23 13.61-0.09C13.39-0.41 13.49-0.86 13.79-1.07L16.50-2.85L15.74-4.84C15.69-4.96 15.59-4.96 15.53-4.85L14.11-2.25C13.97-2.00 13.72-1.88 13.45-1.88L10.35-1.88C9.96-1.88 9.64-2.18 9.64-2.57C9.64-2.98 9.96-3.27 10.35-3.27L13.01-3.27L14.17-6.12L13.44-8.98C13.42-9.12 13.27-9.20 13.09-9.11L10.71-7.92C10.37-7.75 10.03-7.84 9.86-8.04L7.75-10.13C7.52-10.36 7.48-10.65 7.63-10.92ZM9.68-15.15C9.68-14.74 9.98-14.44 10.39-14.44C10.80-14.44 11.10-14.74 11.10-15.15C11.10-15.55 10.80-15.86 10.39-15.86C9.98-15.86 9.68-15.55 9.68-15.15ZM13.86-12.01C13.05-12.01 12.41-12.66 12.41-13.45C12.41-14.26 13.05-14.91 13.86-14.91C14.67-14.91 15.32-14.26 15.32-13.45C15.32-12.66 14.67-12.01 13.86-12.01Z" fill="currentColor"/>
</svg>