<svg xmlns="http://www.w3.org/2000/svg" viewBox="0 0 24 24" width="24" height="24">
  <title>figure.disc.sports</title>
  <path transform="matrix(0.6974526631249148, 0, 0, 0.6974526631249148, -0.08418471597874921, 17.966301905388207)" d="M17.26-16.44C18.66-16.44 19.82-17.60 19.82-19.01C19.82-20.40 18.66-21.56 17.26-21.56C15.86-21.56 14.70-20.40 14.70-19.01C14.70-17.60 15.86-16.44 17.26-16.44ZM13.50-1.21C13.97-0.74 14.71-0.74 15.18-1.21L20.00-6.04C20.67-6.69 20.24-7.92 19.24-8.02L13.82-8.60C13.36-8.65 13.30-8.93 13.50-9.22L15.42-12.13C15.62-12.41 15.98-12.48 16.25-12.29L19.68-10.03C19.85-9.91 20.07-9.82 20.32-9.82L25.70-9.82C26.34-9.82 26.88-10.36 26.88-11.00C26.88-11.67 26.34-12.21 25.70-12.21L20.66-12.21L10.22-19.17C10.03-19.30 9.81-19.38 9.56-19.38L4.17-19.38C3.53-19.38 2.99-18.83 2.99-18.18C2.99-17.53 3.53-16.99 4.17-16.99L9.21-16.99L11.13-15.71C11.41-15.53 11.50-15.16 11.30-14.88L8.52-10.71C7.23-8.78 8.36-6.20 10.84-6.06L16.38-5.77L13.50-2.88C13.02-2.41 13.02-1.68 13.50-1.21ZM25.70-14.30C25.70-13.48 27.05-12.81 28.69-12.81C30.33-12.81 31.66-13.48 31.66-14.30C31.66-15.12 30.33-15.80 28.69-15.80C27.05-15.80 25.70-15.12 25.70-14.30ZM9.04-5.40L9.04-1.38L5.72 2.45C5.30 2.95 5.34 3.74 5.86 4.17C6.45 4.64 7.17 4.48 7.56 4.03L11.13-0.15C11.33-0.39 11.39-0.64 11.43-0.89L12.09-4.88L10.79-4.93C10.14-4.97 9.54-5.13 9.04-5.40Z" fill="currentColor"/>
</svg>