<svg xmlns="http://www.w3.org/2000/svg" viewBox="0 0 24 24" width="24" height="24">
  
  <path transform="matrix(0.5797136372228514, 0, 0, 0.5797136372228514, 0.2676526075176511, 18.34408444763089)" d="M21.39-17.68C21.39-17.26 21.71-16.95 22.13-16.93C22.55-16.93 22.86-17.26 22.86-17.68L22.86-20.87L24.50-20.87C25.25-20.87 25.54-21.63 25.07-22.14L22.66-24.83C22.34-25.21 21.90-25.21 21.56-24.83L19.21-22.14C18.71-21.59 19.01-20.87 19.75-20.87L21.39-20.87ZM6.15-13.98C7.92-13.98 9.34-15.40 9.34-17.14C9.34-18.91 7.92-20.34 6.15-20.34C4.39-20.34 2.99-18.91 2.99-17.14C2.99-15.45 4.39-13.98 6.15-13.98ZM27.67-10.13C28.07-9.63 28.80-10.17 28.42-10.68C28.15-11.05 28.08-11.23 28.08-11.53C28.08-12 28.42-12.27 28.68-12.64C29.29-12.88 30-13.03 30.62-13.07C30.73-13.22 30.80-13.37 30.80-13.56C30.80-14.21 29.92-14.48 29.92-15.62C29.92-16.09 30.07-16.54 30.42-17.00C30.83-17.50 31.58-16.97 31.18-16.45C30.91-16.09 30.84-15.89 30.84-15.62C30.84-14.82 31.73-14.60 31.73-13.56C31.73-13.34 31.70-13.16 31.63-13.00C32.12-12.93 32.61-12.79 33.05-12.61C32.86-12.34 32.68-12.01 32.68-11.53C32.68-11.05 32.84-10.59 33.21-10.13C33.61-9.63 34.34-10.17 33.95-10.68C33.70-11.05 33.62-11.23 33.62-11.53C33.62-12.01 33.97-12.28 34.23-12.68L37.29-16.57C37.59-16.98 37.55-17.39 37.16-17.70C35.86-18.69 33.41-19.45 30.81-19.45C28.24-19.45 25.77-18.69 24.48-17.70C24.09-17.39 24.05-16.98 24.36-16.57L27.49-12.57C27.30-12.32 27.15-11.99 27.15-11.53C27.15-11.05 27.30-10.61 27.67-10.13ZM16.02-18.09C16.02-18.83 15.25-19.11 14.73-18.64L12.06-16.24C11.70-15.93 11.67-15.49 12.06-15.16L14.73-12.79C15.27-12.29 16.02-12.61 16.02-13.34L16.02-14.96L19.20-14.96C19.61-14.96 19.95-15.28 19.95-15.73C19.95-16.13 19.62-16.46 19.20-16.46L16.02-16.46ZM27.54-12.50L27.49-12.57C27.74-12.94 28.04-13.18 28.04-13.56C28.04-14.21 27.15-14.48 27.15-15.62C27.15-16.09 27.30-16.54 27.67-17.00C28.08-17.50 28.82-16.97 28.42-16.45C28.15-16.09 28.08-15.89 28.08-15.62C28.08-14.82 28.97-14.60 28.97-13.56C28.97-13.16 28.84-12.88 28.68-12.64C28.48-12.57 28.28-12.48 28.11-12.40C27.90-12.28 27.69-12.32 27.54-12.50ZM33.52-12.40C33.38-12.47 33.21-12.54 33.05-12.61C33.29-12.95 33.57-13.20 33.57-13.56C33.57-14.21 32.68-14.48 32.68-15.62C32.68-16.09 32.84-16.54 33.21-17.00C33.61-17.50 34.35-16.97 33.95-16.45C33.70-16.09 33.62-15.89 33.62-15.62C33.62-14.82 34.50-14.60 34.50-13.56C34.50-13.18 34.38-12.90 34.23-12.68L34.09-12.50C33.96-12.32 33.73-12.28 33.52-12.40ZM19.75-10.57C19.02-10.57 18.74-9.86 19.21-9.32L21.57-6.60C21.90-6.22 22.32-6.26 22.65-6.61L25.08-9.29C25.55-9.81 25.28-10.57 24.50-10.57L22.88-10.57L22.88-13.75C22.88-14.18 22.56-14.51 22.14-14.51C21.74-14.50 21.39-14.17 21.39-13.75L21.39-10.57ZM30.42-10.13C30.82-9.63 31.57-10.17 31.18-10.68C30.91-11.05 30.84-11.23 30.84-11.53C30.84-12.13 31.39-12.41 31.63-13.00C31.35-13.04 31.07-13.07 30.81-13.07C30.75-13.07 30.68-13.07 30.62-13.07C30.36-12.68 29.92-12.32 29.92-11.53C29.92-11.05 30.07-10.59 30.42-10.13ZM25.03 2.79C25.58 2.23 25.65 1.29 24.93 0.54L19.69-4.88C18.59-6.02 17.43-6.19 16.04-5.68L13.25-4.66L9.96-10.65C8.96-12.49 7.25-13.17 5.59-12.27C3.89-11.36 3.57-9.50 4.56-7.71L7.09-3.11C8.20-1.09 10.58-0.26 13.11-1.23L17.05-2.72C17.31-2.82 17.43-2.78 17.59-2.60L22.64 2.60C23.38 3.38 24.42 3.42 25.03 2.79Z" fill="currentColor"/>
</svg>