<svg xmlns="http://www.w3.org/2000/svg" viewBox="0 0 24 24" width="24" height="24">
  <title>figure.rugby</title>
  <path transform="matrix(0.6524263859639069, 0, 0, 0.6524263859639069, 0.049420069112773524, 17.554544172688807)" d="M18.47-16.69C19.89-16.69 21.02-17.82 21.02-19.24C21.02-20.66 19.89-21.81 18.47-21.81C17.05-21.81 15.90-20.66 15.90-19.24C15.90-17.82 17.05-16.69 18.47-16.69ZM28.58-13.07C29.24-13.07 29.78-13.59 29.78-14.27C29.78-14.93 29.24-15.46 28.58-15.46L16.00-15.46C14.85-15.46 13.85-14.85 13.32-13.80L8.02-3.18L5.02-6.18C4.55-6.64 3.79-6.63 3.33-6.18C2.87-5.71 2.88-4.96 3.33-4.49L7.56-0.25C8.06 0.25 8.85 0.18 9.26-0.42L12.73-5.48C12.91-5.78 13.32-5.82 13.59-5.63L17.86-2.36L17.86 3.60C17.86 4.25 18.39 4.78 19.05 4.78C19.72 4.78 20.25 4.25 20.25 3.60L20.25-2.95C20.25-3.27 20.12-3.57 19.90-3.80L15.75-7.95L17.98-12.41C18.20-12.84 18.59-13.07 19.03-13.07ZM27.67-10.24C27.67-9.11 29.02-8.17 30.66-8.17C32.31-8.17 33.64-9.11 33.64-10.24C33.64-11.40 32.31-12.33 30.66-12.33C29.02-12.33 27.67-11.40 27.67-10.24ZM20.84-7.71L25.61-7.71C26.26-7.71 26.79-8.26 26.79-8.89C26.79-9.56 26.26-10.10 25.61-10.10L21.33-10.10L19.48-11.94L19.18-11.94C19.07-11.94 19.00-11.89 18.94-11.79L18.04-10.02L20.00-8.06C20.24-7.84 20.53-7.71 20.84-7.71Z" fill="currentColor"/>
</svg>