<svg xmlns="http://www.w3.org/2000/svg" viewBox="0 0 24 24" width="24" height="24">
  <title>figure.hand.cycling.circle</title>
  <path transform="matrix(0.8366013071895425, 0, 0, 0.8366013071895425, 0.2450980392156863, 19.07843137254902)" d="M14.05 3.49C20.65 3.49 26.00-1.86 26.00-8.46C26.00-15.06 20.65-20.41 14.05-20.41C7.45-20.41 2.10-15.06 2.10-8.46C2.10-1.86 7.45 3.49 14.05 3.49ZM14.05 1.50C8.54 1.50 4.09-2.95 4.09-8.46C4.09-13.97 8.54-18.42 14.05-18.42C19.56-18.42 24.01-13.97 24.01-8.46C24.01-2.95 19.56 1.50 14.05 1.50ZM10.80-12.86C11.59-12.86 12.22-13.48 12.22-14.27C12.22-15.05 11.59-15.68 10.80-15.68C10.03-15.68 9.39-15.05 9.39-14.27C9.39-13.48 10.03-12.86 10.80-12.86ZM14.68-1.84L18.33-1.84C18.74-1.84 18.86-2.37 18.53-2.59L17.27-3.41C17.39-3.61 17.47-3.83 17.53-4.07L19.01-9.91C19.95-9.91 20.77-10.73 20.77-11.71C20.77-12.69 19.95-13.51 18.96-13.51C17.98-13.51 17.17-12.69 17.17-11.71C17.17-11.00 17.59-10.37 18.20-10.09L16.75-4.27C16.50-3.30 15.68-2.66 14.68-2.66C14.46-2.66 14.29-2.46 14.29-2.25C14.29-2.05 14.45-1.84 14.68-1.84ZM18.96-10.71C18.38-10.71 17.96-11.13 17.96-11.71C17.96-12.28 18.38-12.70 18.96-12.70C19.54-12.70 19.97-12.28 19.97-11.71C19.97-11.13 19.54-10.71 18.96-10.71ZM13.04-1.95C13.35-1.85 13.73-2.02 13.84-2.41L14.81-5.95C14.94-6.40 14.75-6.74 14.30-6.86L11.45-7.66L11.67-10.16C11.67-10.24 11.77-10.28 11.84-10.23L13.16-9.29C13.38-9.12 13.69-9.12 13.92-9.29L16.22-10.93C16.51-11.14 16.58-11.54 16.37-11.85C16.16-12.14 15.75-12.21 15.46-12.01L13.55-10.63L11.96-11.75C11.64-12.01 11.23-12.18 10.73-12.18C9.90-12.18 9.27-11.65 9.22-10.90L9-7.83C8.94-6.91 9.38-6.22 10.41-6.07L13.36-5.66L12.57-2.75C12.47-2.37 12.68-2.04 13.04-1.95ZM8.93-1.84L11.73-1.84C11.96-1.84 12.14-2.04 12.14-2.25C12.14-2.47 11.96-2.66 11.73-2.66C11.32-2.66 11.04-2.82 10.92-3.32L10.66-4.48L11.18-4.58C11.36-4.61 11.47-4.78 11.47-4.96C11.47-5.13 11.33-5.30 11.17-5.33L8.98-5.70C8.59-5.77 8.45-5.40 8.57-5.14L8.70-4.91C8.93-4.44 9.30-4.20 9.87-4.30L10.05-3.47L8.70-2.59C8.37-2.37 8.48-1.84 8.93-1.84Z" fill="currentColor"/>
</svg>