<svg xmlns="http://www.w3.org/2000/svg" viewBox="0 0 24 24" width="24" height="24">
  <title>figure.water.fitness.circle</title>
  <path transform="matrix(0.8366013071895425, 0, 0, 0.8366013071895425, 0.2450980392156863, 19.07843137254902)" d="M14.05 3.49C20.65 3.49 26.00-1.86 26.00-8.46C26.00-15.06 20.65-20.41 14.05-20.41C7.45-20.41 2.10-15.06 2.10-8.46C2.10-1.86 7.45 3.49 14.05 3.49ZM14.05 1.50C8.54 1.50 4.09-2.95 4.09-8.46C4.09-13.97 8.54-18.42 14.05-18.42C19.56-18.42 24.01-13.97 24.01-8.46C24.01-2.95 19.56 1.50 14.05 1.50ZM14.00-10.99C14.78-10.99 15.41-11.63 15.41-12.40C15.41-13.18 14.78-13.82 14.00-13.82C13.21-13.82 12.59-13.18 12.59-12.40C12.59-11.63 13.21-10.99 14.00-10.99ZM7.27-11.85L11.80-9.40C11.95-9.33 12.05-9.16 12-8.99L11.53-7.25C12.80-7.05 13.14-6.30 14.04-6.30C14.30-6.30 14.50-6.38 14.68-6.46L15.32-8.81C15.38-9.05 15.46-9.18 15.69-9.29L20.45-11.85C20.81-12.04 20.94-12.48 20.77-12.83C20.55-13.18 20.12-13.34 19.76-13.14L15.04-10.63C14.26-10.22 13.54-10.16 12.60-10.66L7.95-13.14C7.59-13.34 7.15-13.18 6.96-12.83C6.77-12.48 6.90-12.04 7.27-11.85ZM14.04-4.58C15.81-4.58 16.18-5.65 17.37-5.65C18.54-5.65 18.91-4.58 20.68-4.58L21.15-4.58C21.36-4.58 21.55-4.77 21.55-4.98C21.55-5.19 21.36-5.38 21.15-5.38L20.68-5.38C19.48-5.38 19.05-6.46 17.37-6.46C15.68-6.46 15.26-5.38 14.04-5.38C12.83-5.38 12.40-6.46 10.71-6.46C9.02-6.46 8.60-5.38 7.39-5.38L6.96-5.38C6.74-5.38 6.55-5.19 6.55-4.98C6.55-4.77 6.74-4.58 6.96-4.58L7.39-4.58C9.16-4.58 9.54-5.65 10.71-5.65C11.89-5.65 12.27-4.58 14.04-4.58ZM10.49-3.83C10.72-3.83 10.91-4.01 10.91-4.24C10.91-4.49 10.72-4.66 10.49-4.66C10.25-4.66 10.07-4.49 10.07-4.24C10.07-4.01 10.25-3.83 10.49-3.83ZM17.63-3.83C17.86-3.83 18.04-4.01 18.04-4.24C18.04-4.49 17.86-4.66 17.63-4.66C17.38-4.66 17.20-4.49 17.20-4.24C17.20-4.01 17.38-3.83 17.63-3.83ZM9.27-3.53C9.50-3.53 9.68-3.71 9.68-3.95C9.68-4.18 9.50-4.37 9.27-4.37C9.02-4.37 8.85-4.18 8.85-3.95C8.85-3.71 9.02-3.53 9.27-3.53ZM11.71-3.53C11.94-3.53 12.13-3.71 12.13-3.95C12.13-4.18 11.94-4.37 11.71-4.37C11.47-4.37 11.29-4.18 11.29-3.95C11.29-3.71 11.47-3.53 11.71-3.53ZM16.38-3.53C16.63-3.53 16.80-3.71 16.80-3.95C16.80-4.18 16.63-4.37 16.38-4.37C16.15-4.37 15.97-4.18 15.97-3.95C15.97-3.71 16.15-3.53 16.38-3.53ZM18.84-3.53C19.08-3.53 19.27-3.71 19.27-3.95C19.27-4.18 19.08-4.37 18.84-4.37C18.60-4.37 18.42-4.18 18.42-3.95C18.42-3.71 18.60-3.53 18.84-3.53ZM6.97-3.15C7.22-3.15 7.39-3.34 7.39-3.57C7.39-3.81 7.22-4.00 6.97-4.00C6.74-4.00 6.55-3.81 6.55-3.57C6.55-3.34 6.74-3.15 6.97-3.15ZM8.12-3.15C8.36-3.15 8.53-3.34 8.53-3.57C8.53-3.81 8.36-4.00 8.12-4.00C7.88-4.00 7.70-3.81 7.70-3.57C7.70-3.34 7.88-3.15 8.12-3.15ZM19.98-3.15C20.21-3.15 20.40-3.34 20.40-3.57C20.40-3.81 20.21-4.00 19.98-4.00C19.75-4.00 19.56-3.81 19.56-3.57C19.56-3.34 19.75-3.15 19.98-3.15ZM21.13-3.15C21.36-3.15 21.55-3.34 21.55-3.57C21.55-3.81 21.36-4.00 21.13-4.00C20.89-4.00 20.71-3.81 20.71-3.57C20.71-3.34 20.89-3.15 21.13-3.15ZM12.84-3C13.09-3 13.27-3.19 13.27-3.42C13.27-3.66 13.09-3.84 12.84-3.84C12.61-3.84 12.43-3.66 12.43-3.42C12.43-3.19 12.61-3 12.84-3ZM15.25-3C15.48-3 15.67-3.19 15.67-3.42C15.67-3.66 15.48-3.84 15.25-3.84C15.01-3.84 14.82-3.66 14.82-3.42C14.82-3.19 15.01-3 15.25-3ZM14.04-2.78C14.27-2.78 14.46-2.96 14.46-3.20C14.46-3.45 14.27-3.62 14.04-3.62C13.80-3.62 13.62-3.45 13.62-3.20C13.62-2.96 13.80-2.78 14.04-2.78Z" fill="currentColor"/>
</svg>