<svg xmlns="http://www.w3.org/2000/svg" viewBox="0 0 24 24" width="24" height="24">
  <title>figure.core.training.circle</title>
  <path transform="matrix(0.8366013071895425, 0, 0, 0.8366013071895425, 0.2450980392156863, 19.07843137254902)" d="M14.05 3.49C20.65 3.49 26.00-1.86 26.00-8.46C26.00-15.06 20.65-20.41 14.05-20.41C7.45-20.41 2.10-15.06 2.10-8.46C2.10-1.86 7.45 3.49 14.05 3.49ZM14.05 1.50C8.54 1.50 4.09-2.95 4.09-8.46C4.09-13.97 8.54-18.42 14.05-18.42C19.56-18.42 24.01-13.97 24.01-8.46C24.01-2.95 19.56 1.50 14.05 1.50ZM7.99-9.42C8.77-9.42 9.40-10.05 9.40-10.84C9.40-11.61 8.77-12.25 7.99-12.25C7.22-12.25 6.57-11.61 6.57-10.84C6.57-10.05 7.22-9.42 7.99-9.42ZM12.22-5.52L14.06-5.52C15.61-5.52 16.03-6.41 15.90-7.41L15.48-10.79L18.02-10.79C18.39-10.79 18.68-11.10 18.68-11.47C18.68-11.85 18.39-12.13 18.02-12.13L14.66-12.13C14.27-12.13 13.99-11.86 13.99-11.41L13.99-7.99L12.88-7.99C12.28-7.99 11.79-8.19 11.51-8.65C11.45-8.75 11.45-8.92 11.57-9.05L13.23-11.03C13.62-11.48 13.30-12.13 12.75-12.13L10.41-12.13C10.04-12.13 9.74-11.85 9.74-11.47C9.74-11.10 10.03-10.79 10.41-10.79L11.36-10.79L10.38-9.64C9.70-8.82 9.06-8.27 8.04-7.80L7.03-7.35L7.35-8.48C7.45-8.84 7.21-9.20 6.87-9.29C6.50-9.38 6.14-9.15 6.05-8.81L5.43-6.36C5.26-5.70 5.84-5.36 6.41-5.61L8.51-6.54C8.71-6.63 8.84-6.61 9-6.49C9.67-5.91 10.75-5.52 12.22-5.52ZM22.62-8.38L19.30-8.38C19.25-8.38 19.18-8.36 19.10-8.36L16.38-8.12L16.46-7.48C16.51-7.11 16.50-6.76 16.41-6.43L19.36-7.03L22.62-7.03C22.99-7.03 23.30-7.32 23.30-7.70C23.30-8.07 22.99-8.38 22.62-8.38Z" fill="currentColor"/>
</svg>