<svg xmlns="http://www.w3.org/2000/svg" viewBox="0 0 24 24" width="24" height="24">
  <title>figure.walk.circle</title>
  <path transform="matrix(0.8366013071895425, 0, 0, 0.8366013071895425, 0.2450980392156863, 19.07843137254902)" d="M14.05 3.49C20.65 3.49 26.00-1.86 26.00-8.46C26.00-15.06 20.65-20.41 14.05-20.41C7.45-20.41 2.10-15.06 2.10-8.46C2.10-1.86 7.45 3.49 14.05 3.49ZM14.05 1.50C8.54 1.50 4.09-2.95 4.09-8.46C4.09-13.97 8.54-18.42 14.05-18.42C19.56-18.42 24.01-13.97 24.01-8.46C24.01-2.95 19.56 1.50 14.05 1.50ZM14.63-13.31C15.41-13.31 16.04-13.96 16.04-14.74C16.04-15.53 15.41-16.16 14.63-16.16C13.83-16.16 13.20-15.53 13.20-14.74C13.20-13.96 13.83-13.31 14.63-13.31ZM16.16-1.82C16.58-0.97 17.84-1.49 17.38-2.41L16.00-5.23C15.89-5.43 15.75-5.66 15.62-5.84L14.73-7.10L14.79-7.28C15.04-7.98 15.13-8.40 15.16-9.11L15.30-11.05C15.36-12 14.82-12.70 13.86-12.70C13.15-12.70 12.67-12.34 12-11.70L10.97-10.68C10.63-10.34 10.51-10.05 10.49-9.63L10.37-8.02C10.34-7.62 10.56-7.34 10.93-7.32C11.31-7.29 11.53-7.51 11.58-7.95L11.72-9.71L12.22-10.15C12.40-10.31 12.64-10.22 12.63-10.02L12.52-8.53C12.46-7.79 12.64-7.42 13.15-6.77L14.53-5.05C14.66-4.89 14.68-4.82 14.74-4.70ZM18.54-10.04L16.96-10.04L15.96-11.14L15.86-9.52L16.25-9.12C16.48-8.89 16.66-8.84 17.06-8.84L18.54-8.84C18.94-8.84 19.20-9.06 19.20-9.43C19.20-9.81 18.94-10.04 18.54-10.04ZM11.20-1.62L13.24-4.05C13.43-4.29 13.46-4.35 13.54-4.59L13.69-5.05L12.61-6.43L12.27-4.89L10.25-2.50C9.61-1.73 10.65-0.98 11.20-1.62Z" fill="currentColor"/>
</svg>