<svg xmlns="http://www.w3.org/2000/svg" viewBox="0 0 24 24" width="24" height="24">
  <title>figure.bowling.circle.fill</title>
  <path transform="matrix(0.8366013071895425, 0, 0, 0.8366013071895425, 0.2450980392156863, 19.07843137254902)" d="M14.05 3.49C20.65 3.49 26.00-1.88 26.00-8.46C26.00-15.06 20.65-20.41 14.05-20.41C7.46-20.41 2.10-15.06 2.10-8.46C2.10-1.88 7.46 3.49 14.05 3.49ZM17.78-13.24C16.96-13.24 16.31-13.90 16.31-14.71C16.31-15.50 16.96-16.16 17.78-16.16C18.57-16.16 19.22-15.50 19.22-14.71C19.22-13.90 18.57-13.24 17.78-13.24ZM7.09-10.36C7.09-11.18 7.77-11.86 8.59-11.86C8.59-12.25 8.91-12.55 9.28-12.55L17.30-12.55C17.86-12.55 18.35-12.35 18.75-11.95L20.41-10.28C20.68-10.00 20.70-9.56 20.41-9.28L18.69-7.57C18.41-7.29 17.96-7.31 17.72-7.57C17.45-7.83 17.44-8.26 17.72-8.54L18.96-9.77L18.06-10.69C17.93-10.79 17.75-10.79 17.65-10.69L15.04-8.05L17.31-5.77C17.48-5.59 17.55-5.31 17.45-5.04L16.28-1.39C16.13-0.95 15.77-0.82 15.45-0.89C15.09-0.97 14.80-1.30 14.95-1.78L16.02-5.03L12.61-7.62C12.21-7.93 12.12-8.82 12.73-9.41L14.06-10.76C14.23-10.91 14.12-11.17 13.89-11.17L9.86-11.17C10.01-10.93 10.09-10.66 10.09-10.36C10.09-9.54 9.41-8.85 8.59-8.85C7.77-8.85 7.09-9.54 7.09-10.36ZM8.18-4.25C8.18-4.63 8.50-4.95 8.88-4.95L12.08-4.95L12.42-7.03L13.89-5.91L13.34-4.05C13.24-3.75 13.00-3.56 12.63-3.56L8.88-3.56C8.50-3.56 8.18-3.87 8.18-4.25Z" fill="currentColor"/>
</svg>