<svg xmlns="http://www.w3.org/2000/svg" viewBox="0 0 24 24" width="24" height="24">
  <title>figure.indoor.cycle.circle</title>
  <path transform="matrix(0.8366013071895425, 0, 0, 0.8366013071895425, 0.2450980392156863, 19.07843137254902)" d="M14.05 3.49C20.65 3.49 26.00-1.86 26.00-8.46C26.00-15.06 20.65-20.41 14.05-20.41C7.45-20.41 2.10-15.06 2.10-8.46C2.10-1.86 7.45 3.49 14.05 3.49ZM14.05 1.50C8.54 1.50 4.09-2.95 4.09-8.46C4.09-13.97 8.54-18.42 14.05-18.42C19.56-18.42 24.01-13.97 24.01-8.46C24.01-2.95 19.56 1.50 14.05 1.50ZM17.00-13.24C17.78-13.24 18.41-13.86 18.41-14.66C18.41-15.42 17.78-16.07 17.00-16.07C16.22-16.07 15.59-15.42 15.59-14.66C15.59-13.86 16.22-13.24 17.00-13.24ZM13.75-3.25C14.12-3.25 14.44-3.54 14.44-3.90L14.44-7.29C14.44-7.45 14.38-7.61 14.29-7.71L12.75-9.60C12.64-9.71 12.69-9.86 12.81-9.91L14.66-10.89C14.81-10.96 14.94-10.91 14.96-10.75L15.13-9.60C15.15-9.34 15.30-9.16 15.57-9.05L17.41-8.12C17.91-7.86 18.30-8.06 18.43-8.38C18.56-8.68 18.46-9.07 18.06-9.28L16.41-10.13L16.14-12.08C16.00-13.13 14.85-13.75 13.75-13.18L11.31-11.92C10.21-11.33 10.04-10.05 10.88-9.22L13.10-7.01L13.10-3.90C13.10-3.54 13.41-3.25 13.75-3.25ZM10.18-1.45C9.93-1.28 10.00-0.88 10.31-0.88L17.17-0.88C17.48-0.88 17.55-1.29 17.31-1.45L16.11-2.23L17.71-7.04C17.78-7.25 17.66-7.50 17.46-7.57C17.21-7.64 17.02-7.51 16.95-7.30L16.03-4.61C15.80-5.07 15.41-5.46 14.95-5.72L14.95-4.75C15.29-4.42 15.49-3.97 15.49-3.46C15.49-2.48 14.72-1.70 13.73-1.70C12.80-1.70 12-2.50 12-3.46C12-3.97 12.22-4.44 12.59-4.76L12.59-5.73C12.11-5.50 11.71-5.11 11.46-4.62L10.63-7.13L11.17-7.25C11.36-7.28 11.47-7.43 11.47-7.64C11.47-7.83 11.34-7.98 11.14-8.02L8.75-8.43C8.36-8.51 8.16-8.18 8.34-7.85L8.58-7.43C8.84-6.96 9.29-6.83 9.76-6.94L9.82-6.95L11.39-2.24Z" fill="currentColor"/>
</svg>