<svg xmlns="http://www.w3.org/2000/svg" viewBox="0 0 24 24" width="24" height="24">
  
  <path transform="matrix(0.8385279526019536, 0, 0, 0.8385279526019536, 0.07619446860857737, 19.294639022415293)" d="M3.20-13.03C3.20-11.31 4.77-9.57 6.22-9.57C7.56-9.57 8.24-10.77 9.04-12.89L9.34-12.95L9.34-10.66C9.34-9.68 9.84-9.18 10.80-9.18C12.52-9.18 14.25-10.73 14.25-12.20C14.25-13.55 13.05-14.21 10.92-15.01L10.88-15.32L13.16-15.32C14.14-15.32 14.64-15.82 14.64-16.77C14.64-18.49 13.08-20.24 11.61-20.24C10.28-20.24 9.61-19.02 8.80-16.89L8.51-16.85L8.51-19.14C8.51-20.11 8.00-20.63 7.05-20.63C5.32-20.63 3.59-19.05 3.59-17.60C3.59-16.25 4.80-15.59 6.94-14.79L6.96-14.48L4.69-14.48C3.71-14.48 3.20-13.97 3.20-13.03ZM22.30-13.98C24.06-13.98 25.45-15.45 25.45-17.14C25.45-18.91 24.06-20.34 22.30-20.34C20.53-20.34 19.11-18.91 19.11-17.14C19.11-15.40 20.53-13.98 22.30-13.98ZM8.92-13.72C8.27-13.72 7.75-14.25 7.75-14.91C7.75-15.55 8.27-16.08 8.92-16.08C9.56-16.08 10.09-15.55 10.09-14.91C10.09-14.25 9.56-13.72 8.92-13.72ZM3.42 2.79C4.02 3.42 5.06 3.38 5.81 2.60L10.85-2.60C11.02-2.78 11.14-2.82 11.40-2.72L15.34-1.23C17.87-0.26 20.25-1.09 21.36-3.11L23.89-7.71C24.88-9.50 24.56-11.36 22.85-12.27C21.20-13.17 19.49-12.49 18.48-10.65L15.20-4.66L12.40-5.68C11.02-6.19 9.87-6.02 8.77-4.88L3.53 0.54C2.79 1.29 2.86 2.23 3.42 2.79Z" fill="currentColor"/>
</svg>