<svg xmlns="http://www.w3.org/2000/svg" viewBox="0 0 24 24" width="24" height="24">
  <title>figure.squash</title>
  <path transform="matrix(0.6749584443726768, 0, 0, 0.6749584443726768, 1.3708828712570917, 17.71584978353652)" d="M15.75-22.54C14.65-23.65 13.34-23.59 11.63-21.89C10.68-20.92 10.17-18.96 9.87-17.57L8.13-15.82C7.59-15.28 7.71-14.54 8.19-14.06L11.65-10.62C11.87-10.42 12.15-10.29 12.48-10.29L14.82-10.29C14.91-10.29 14.94-10.16 14.87-10.13L12.43-8.91C10.36-7.89 9.88-5.13 11.99-3.57L16.32-0.41L13.80 4.63C13.51 5.21 13.75 5.94 14.32 6.22C14.86 6.49 15.59 6.33 15.91 5.70L18.82-0.12C19.05-0.60 19.10-1.18 18.57-1.71L15.08-5.19L19.63-7.45C19.85-7.57 20.10-7.52 20.25-7.36L26.50-1.13C26.96-0.66 27.74-0.68 28.16-1.13C28.62-1.59 28.63-2.33 28.16-2.80L18.95-12.01C18.54-12.42 18.11-12.66 17.53-12.66L12.97-12.66L9.89-15.74L10.80-16.65C12.20-16.95 14.17-17.45 15.11-18.41C16.83-20.11 16.89-21.43 15.75-22.54ZM14.85-21.61C15.46-21.01 15.26-20.41 14.19-19.32C13.52-18.67 12.27-18.36 11.32-18.08C11.58-19.05 11.89-20.29 12.56-20.96C13.64-22.04 14.21-22.22 14.85-21.61ZM22.35-11.50C23.77-11.50 24.91-12.64 24.91-14.06C24.91-15.48 23.77-16.63 22.35-16.63C20.93-16.63 19.79-15.48 19.79-14.06C19.79-12.64 20.93-11.50 22.35-11.50ZM4.17 1.59L10.11 1.59C10.62 1.59 11.03 1.23 11.24 0.80L12.53-1.79L11.32-2.67C10.84-3.04 10.50-3.39 10.24-3.76L9.25-0.79L4.17-0.79C3.53-0.79 2.99-0.25 2.99 0.40C2.99 1.08 3.53 1.59 4.17 1.59Z" fill="currentColor"/>
</svg>