<svg xmlns="http://www.w3.org/2000/svg" viewBox="0 0 24 24" width="24" height="24">
  <title>fireworks</title>
  <path transform="matrix(0.6518971224853578, 0, 0, 0.6518971224853578, 0.051948051948051965, 17.50802139037433)" d="M12.25-18.90C12.67-18.90 13.01-19.25 13.01-19.68L13.01-22.24C13.01-22.66 12.67-23.00 12.25-23.00C11.82-23.00 11.47-22.66 11.47-22.24L11.47-19.68C11.47-19.25 11.82-18.90 12.25-18.90ZM9.67-18.21C10.04-18.43 10.16-18.91 9.95-19.25L8.67-21.48C8.47-21.84 7.98-21.98 7.62-21.77C7.24-21.55 7.14-21.08 7.35-20.72L8.63-18.49C8.82-18.14 9.32-18 9.67-18.21ZM14.81-18.22C15.19-18 15.64-18.13 15.87-18.50L17.16-20.71C17.37-21.08 17.23-21.55 16.88-21.76C16.50-21.98 16.04-21.86 15.82-21.48L14.53-19.27C14.32-18.90 14.46-18.42 14.81-18.22ZM28.07-12.60C28.29-12.60 28.44-12.75 28.48-12.95C29.00-15.73 28.98-15.56 31.62-16.08C31.82-16.11 31.97-16.25 31.97-16.50C31.97-16.72 31.80-16.86 31.62-16.91C28.97-17.45 29.00-17.31 28.48-20.04C28.44-20.24 28.29-20.39 28.07-20.39C27.82-20.39 27.68-20.25 27.64-20.04C27.11-17.29 27.02-17.41 24.53-16.91C24.33-16.86 24.18-16.72 24.18-16.50C24.18-16.25 24.32-16.11 24.53-16.08C27.02-15.59 27.11-15.71 27.64-12.95C27.68-12.74 27.82-12.60 28.07-12.60ZM7.78-16.32C7.99-16.71 7.85-17.17 7.50-17.37L5.30-18.66C4.92-18.88 4.45-18.74 4.23-18.39C4.03-18 4.16-17.54 4.51-17.34L6.74-16.04C7.08-15.84 7.58-15.96 7.78-16.32ZM16.70-16.34C16.92-15.96 17.39-15.86 17.75-16.05L19.97-17.33C20.33-17.53 20.46-18.01 20.25-18.38C20.04-18.75 19.57-18.87 19.21-18.66L16.98-17.38C16.63-17.18 16.49-16.69 16.70-16.34ZM12.23-10.16C12.62-10.16 12.94-10.45 12.94-10.85L12.93-12.16L13.86-11.23C14.12-10.95 14.58-10.95 14.86-11.23C15.12-11.50 15.13-11.95 14.86-12.22L13.91-13.14L15.22-13.14C15.61-13.14 15.93-13.45 15.93-13.84C15.93-14.23 15.61-14.53 15.22-14.53L13.91-14.53L14.85-15.45C15.13-15.73 15.12-16.17 14.85-16.45C14.57-16.71 14.12-16.73 13.84-16.45L12.94-15.53L12.93-16.82C12.93-17.23 12.63-17.52 12.22-17.52C11.85-17.52 11.53-17.23 11.53-16.82L11.54-15.53L10.62-16.45C10.34-16.72 9.90-16.72 9.61-16.45C9.35-16.18 9.34-15.71 9.61-15.45L10.56-14.53L9.25-14.53C8.86-14.53 8.54-14.23 8.54-13.84C8.54-13.45 8.86-13.14 9.25-13.14L10.56-13.14L9.62-12.22C9.34-11.94 9.35-11.51 9.62-11.23C9.89-10.96 10.34-10.93 10.62-11.23L11.53-12.16L11.54-10.85C11.54-10.45 11.84-10.16 12.23-10.16ZM7.10-13.75C7.10-14.19 6.74-14.52 6.33-14.52L3.77-14.53C3.34-14.53 2.99-14.17 2.99-13.76C2.99-13.32 3.34-13.00 3.76-13.00L6.33-12.98C6.74-12.98 7.10-13.34 7.10-13.75ZM17.39-13.76C17.39-13.32 17.74-13.00 18.15-13.00L20.72-12.98C21.14-12.98 21.50-13.34 21.50-13.75C21.50-14.18 21.14-14.52 20.73-14.52L18.15-14.53C17.74-14.53 17.39-14.17 17.39-13.76ZM16.70-11.19C16.49-10.80 16.64-10.35 16.98-10.14L19.20-8.85C19.57-8.64 20.04-8.78 20.25-9.12C20.46-9.50 20.32-9.96 19.97-10.17L17.75-11.47C17.40-11.67 16.90-11.54 16.70-11.19ZM7.78-11.18C7.57-11.54 7.09-11.66 6.74-11.46L4.51-10.18C4.15-9.97 4.03-9.49 4.23-9.13C4.45-8.77 4.92-8.65 5.29-8.85L7.50-10.13C7.86-10.34 7.99-10.82 7.78-11.18ZM27.04-7.64C27.53-7.64 27.91-8.04 27.91-8.54C27.91-9.04 27.53-9.43 27.04-9.43C26.53-9.43 26.14-9.04 26.14-8.54C26.14-8.04 26.53-7.64 27.04-7.64ZM14.81-9.30C14.45-9.07 14.33-8.60 14.53-8.25L15.81-6.04C16.02-5.67 16.51-5.53 16.88-5.74C17.24-5.95 17.34-6.42 17.14-6.79L15.87-9.02C15.66-9.36 15.18-9.52 14.81-9.30ZM9.67-9.29C9.29-9.52 8.84-9.38 8.63-9.01L7.34-6.80C7.11-6.42 7.25-5.95 7.62-5.75C7.99-5.53 8.45-5.66 8.66-6.04L9.95-8.24C10.17-8.61 10.03-9.09 9.67-9.29ZM12.25-8.60C11.82-8.60 11.47-8.26 11.47-7.84L11.47-5.27C11.47-4.85 11.82-4.51 12.25-4.51C12.67-4.51 13.01-4.85 13.01-5.27L13.01-7.84C13.01-8.26 12.67-8.60 12.25-8.60ZM30.93-5.88C31.38-5.88 31.76-6.25 31.76-6.71C31.76-7.17 31.38-7.54 30.93-7.54C30.47-7.54 30.11-7.17 30.11-6.71C30.11-6.25 30.47-5.88 30.93-5.88ZM23.13-5.88C23.59-5.88 23.95-6.25 23.95-6.71C23.95-7.17 23.59-7.54 23.13-7.54C22.68-7.54 22.30-7.17 22.30-6.71C22.30-6.25 22.68-5.88 23.13-5.88ZM27.02 1.30C27.40 1.30 27.70 1.01 27.70 0.63L27.70-1.17L28.65-0.23C28.92 0.04 29.33 0.05 29.59-0.23C29.88-0.49 29.88-0.90 29.59-1.18L28.66-2.12L30.46-2.12C30.83-2.12 31.14-2.43 31.14-2.80C31.14-3.18 30.83-3.47 30.46-3.47L28.65-3.47L29.60-4.42C29.87-4.69 29.87-5.10 29.60-5.37C29.33-5.64 28.92-5.65 28.65-5.37L27.70-4.43L27.70-6.22C27.70-6.60 27.40-6.90 27.02-6.90C26.65-6.90 26.36-6.60 26.36-6.22L26.36-4.43L25.42-5.37C25.15-5.64 24.73-5.64 24.46-5.37C24.18-5.10 24.18-4.69 24.45-4.42L25.39-3.47L23.59-3.47C23.23-3.47 22.93-3.18 22.93-2.80C22.93-2.43 23.23-2.12 23.59-2.12L25.39-2.12L24.46-1.18C24.18-0.90 24.18-0.49 24.46-0.23C24.73 0.05 25.14 0.05 25.42-0.23L26.36-1.17L26.36 0.63C26.36 1.01 26.65 1.30 27.02 1.30ZM32.78-1.91C33.27-1.91 33.67-2.31 33.67-2.80C33.67-3.29 33.27-3.68 32.78-3.68C32.27-3.68 31.89-3.29 31.89-2.80C31.89-2.31 32.27-1.91 32.78-1.91ZM21.28-1.91C21.79-1.91 22.18-2.31 22.17-2.80C22.18-3.29 21.79-3.68 21.28-3.68C20.79-3.68 20.40-3.29 20.40-2.80C20.40-2.31 20.79-1.91 21.28-1.91ZM9.86 2.30C10.02 2.30 10.11 2.20 10.14 2.05C10.50 0.28 10.50 0.28 12.26-0.07C12.41-0.11 12.52-0.19 12.52-0.36C12.52-0.53 12.41-0.63 12.26-0.66C10.50-1.01 10.50-1.01 10.14-2.78C10.11-2.93 10.02-3.02 9.86-3.02C9.68-3.02 9.59-2.93 9.56-2.78C9.20-1.01 9.20-1.01 7.44-0.66C7.29-0.63 7.18-0.53 7.18-0.36C7.18-0.19 7.29-0.11 7.44-0.07C9.20 0.28 9.20 0.28 9.56 2.05C9.59 2.20 9.68 2.30 9.86 2.30ZM15.95 6.11C16.14 6.11 16.25 5.98 16.29 5.80C16.75 3.63 16.75 3.63 18.89 3.20C19.07 3.16 19.20 3.05 19.20 2.85C19.20 2.66 19.07 2.53 18.89 2.51C16.75 2.06 16.75 2.06 16.29-0.09C16.25-0.27 16.14-0.40 15.95-0.40C15.75-0.40 15.63-0.27 15.60-0.09C15.15 2.06 15.15 2.06 13.01 2.51C12.82 2.53 12.69 2.66 12.69 2.85C12.69 3.05 12.82 3.16 13.01 3.20C15.15 3.63 15.15 3.64 15.60 5.80C15.63 5.98 15.75 6.11 15.95 6.11ZM30.93 1.95C31.38 1.95 31.76 1.57 31.76 1.13C31.76 0.66 31.38 0.29 30.93 0.29C30.47 0.29 30.11 0.66 30.11 1.13C30.11 1.57 30.47 1.95 30.93 1.95ZM23.13 1.93C23.59 1.93 23.95 1.57 23.95 1.13C23.95 0.66 23.59 0.29 23.13 0.29C22.68 0.29 22.30 0.66 22.30 1.13C22.30 1.57 22.68 1.93 23.13 1.93ZM27.04 3.83C27.53 3.83 27.91 3.45 27.91 2.95C27.91 2.45 27.53 2.05 27.04 2.05C26.53 2.05 26.14 2.45 26.14 2.95C26.14 3.45 26.53 3.83 27.04 3.83Z" fill="currentColor"/>
</svg>