<svg xmlns="http://www.w3.org/2000/svg" viewBox="0 0 24 24" width="24" height="24">
  <title>flame</title>
  <path transform="matrix(0.78902758514409, 0, 0, 0.78902758514409, 2.642625982431808, 19.512713823393433)" d="M11.31 3.15C17.50 3.15 21.62-1.03 21.62-7.34C21.62-17.82 12.69-22.20 6.49-22.20C5.39-22.20 4.69-21.81 4.69-21.06C4.69-20.77 4.82-20.46 5.06-20.18C6.46-18.52 7.85-16.54 7.88-14.23C7.88-13.93 7.85-13.65 7.77-13.35C7.13-14.72 5.92-15.63 4.84-15.63C4.36-15.63 4.03-15.28 4.03-14.75C4.03-14.45 4.11-13.73 4.11-13.22C4.11-10.59 2.10-9.06 2.10-4.83C2.10-0.04 5.77 3.15 11.31 3.15ZM11.43 1.51C6.83 1.51 3.75-1.04 3.75-4.83C3.75-8.67 5.82-9.97 5.82-13.02C5.82-13.17 5.82-13.31 5.80-13.45C6.52-12.84 7.03-11.89 7.35-10.55C7.39-10.30 7.54-10.18 7.71-10.18C8.66-10.18 9.34-12.54 9.34-14.03C9.34-16.51 8.34-18.89 6.70-20.61C14.72-20.14 19.90-14.66 19.90-7.39C19.90-2.07 16.50 1.51 11.43 1.51ZM11.58-0.14C14.37-0.14 15.73-2.19 15.73-4.51C15.73-6.80 14.39-9.35 11.82-10.56C11.72-10.59 11.65-10.54 11.66-10.43C11.86-8.51 11.57-6.73 10.95-5.88C10.65-6.56 10.30-7.15 9.76-7.63C9.68-7.70 9.61-7.66 9.59-7.56C9.40-6.23 7.93-5.50 7.93-3.43C7.93-1.46 9.39-0.14 11.58-0.14Z" fill="currentColor"/>
</svg>