<svg xmlns="http://www.w3.org/2000/svg" viewBox="0 0 24 24" width="24" height="24">
  <title>fluid.brakesignal</title>
  <path transform="matrix(0.5979911235692595, 0, 0, 0.5979911235692595, 0.7456201822004205, 17.05956552207428)" d="M18.82 2.96C25.14 2.96 30.26-2.16 30.26-8.46C30.26-14.78 25.14-19.89 18.82-19.89C12.52-19.89 7.39-14.78 7.39-8.46C7.39-2.16 12.52 2.96 18.82 2.96ZM35.54-8.46C35.54-12.18 34.35-15.60 32.30-18.38C31.93-18.87 31.31-18.93 30.84-18.55C30.41-18.19 30.38-17.61 30.70-17.17C32.50-14.72 33.54-11.72 33.54-8.46C33.54-5.21 32.50-2.20 30.70 0.22C30.38 0.69 30.42 1.25 30.84 1.62C31.31 1.99 31.93 1.95 32.30 1.44C34.35-1.34 35.54-4.75 35.54-8.46ZM2.10-8.46C2.10-4.75 3.30-1.34 5.34 1.44C5.71 1.95 6.33 1.99 6.80 1.62C7.22 1.25 7.28 0.69 6.94 0.22C5.16-2.20 4.10-5.21 4.10-8.46C4.10-11.72 5.16-14.72 6.94-17.17C7.28-17.61 7.23-18.19 6.80-18.55C6.33-18.93 5.71-18.87 5.34-18.38C3.30-15.60 2.10-12.18 2.10-8.46ZM22.54-5.86C22.28-6.15 21.98-6.16 21.73-5.86C21.07-5.11 19.99-4.63 18.81-4.63C17.63-4.63 16.56-5.11 15.89-5.86C15.63-6.16 15.35-6.15 15.08-5.86C14.38-5.07 13.34-4.63 12.20-4.63C11.36-4.63 10.56-4.88 9.91-5.32C9.57-6.30 9.39-7.36 9.39-8.46C9.39-13.68 13.62-17.91 18.82-17.91C24.04-17.91 28.27-13.68 28.27-8.46C28.27-7.37 28.08-6.32 27.73-5.34C27.09-4.89 26.29-4.63 25.43-4.63C24.29-4.63 23.25-5.07 22.54-5.86Z" fill="currentColor"/>
</svg>