<svg xmlns="http://www.w3.org/2000/svg" viewBox="0 0 24 24" width="24" height="24">
  <title>fork.knife.circle</title>
  <path transform="matrix(0.8366013071895425, 0, 0, 0.8366013071895425, 0.2450980392156863, 19.07843137254902)" d="M14.05 3.49C20.65 3.49 26.00-1.86 26.00-8.46C26.00-15.06 20.65-20.41 14.05-20.41C7.45-20.41 2.10-15.06 2.10-8.46C2.10-1.86 7.45 3.49 14.05 3.49ZM14.05 1.50C8.54 1.50 4.09-2.95 4.09-8.46C4.09-13.97 8.54-18.42 14.05-18.42C19.56-18.42 24.01-13.97 24.01-8.46C24.01-2.95 19.56 1.50 14.05 1.50ZM11.57-0.79C12.12-0.79 12.47-1.09 12.46-1.63L12.33-9.06C12.33-9.29 12.42-9.47 12.63-9.56C13.50-9.94 13.90-10.34 13.83-11.51L13.64-15.56C13.63-15.86 13.46-16.03 13.20-16.03C12.94-16.03 12.77-15.84 12.77-15.55L12.83-11.59C12.83-11.37 12.67-11.21 12.46-11.21C12.22-11.21 12.06-11.37 12.06-11.58L12.01-15.66C12.01-15.95 11.82-16.11 11.57-16.11C11.30-16.11 11.12-15.95 11.12-15.66L11.05-11.58C11.05-11.37 10.90-11.21 10.68-11.21C10.46-11.21 10.30-11.37 10.30-11.59L10.36-15.55C10.36-15.84 10.20-16.03 9.94-16.03C9.67-16.03 9.49-15.86 9.48-15.56L9.30-11.51C9.26-10.34 9.63-9.94 10.51-9.56C10.71-9.47 10.80-9.29 10.80-9.06L10.68-1.63C10.66-1.09 11.02-0.79 11.57-0.79ZM16.16-6.41L16.01-1.66C15.98-1.09 16.35-0.79 16.89-0.79C17.46-0.79 17.80-1.07 17.80-1.59L17.80-15.62C17.80-15.96 17.55-16.11 17.33-16.11C17.07-16.11 16.91-15.97 16.70-15.67C15.63-14.18 14.93-11.38 14.93-8.74L14.93-8.30C14.93-7.83 15.11-7.51 15.43-7.28L15.82-7.01C16.05-6.84 16.16-6.67 16.16-6.41Z" fill="currentColor"/>
</svg>