<svg xmlns="http://www.w3.org/2000/svg" viewBox="0 0 24 24" width="24" height="24">
  <title>fossil.shell</title>
  <path transform="matrix(0.6814472754802078, 0, 0, 0.6814472754802078, 0.5705578635434705, 17.757697097123785)" d="M15.75 3.13C23.73 3.13 29.77-2.33 31.41-9.68C31.61-10.54 31.05-11.17 30.16-11.17L20.37-11.17C20.44-11.60 20.47-12.04 20.47-12.42C20.47-16.84 17.05-20.03 12.32-20.03C6.49-20.03 2.10-15.59 2.10-9.43C2.10-2.07 7.59 3.13 15.75 3.13ZM7.76-16.95C8.91-17.67 10.25-18.12 11.74-18.21L11.74-14.74C11.33-14.59 10.95-14.36 10.61-14.07ZM13.11-15L13.09-15L13.09-18.20C14.57-18.06 15.84-17.52 16.80-16.68L14.77-14.63C14.27-14.86 13.71-15 13.11-15ZM4.07-11.43C4.45-13.32 5.37-14.93 6.66-16.10L9.71-13.04C9.42-12.56 9.22-12.02 9.13-11.43ZM10.88-10.72C10.88-12.13 11.80-13.20 13.11-13.20C14.17-13.20 14.79-12.56 14.79-11.73C14.79-11.09 14.41-10.64 13.85-10.64C13.39-10.64 13.24-10.86 13.11-11.09C13.00-11.30 12.82-11.43 12.52-11.43C12.15-11.43 11.78-11.13 11.78-10.59C11.78-9.83 12.47-8.84 13.84-8.84C15.38-8.84 16.59-9.98 16.59-11.73C16.59-12.52 16.31-13.23 15.84-13.78L17.72-15.66C18.33-14.75 18.68-13.65 18.68-12.42C18.68-9.61 16.91-7.57 14.43-7.57C12.33-7.57 10.88-8.95 10.88-10.72ZM3.88-9.43C3.88-9.64 3.88-9.86 3.89-10.07L9.12-10.07C9.21-9.32 9.49-8.61 9.90-8.00L5.51-3.61C4.45-5.25 3.88-7.23 3.88-9.43ZM18.57-7.45C19.11-8.02 19.52-8.67 19.83-9.36L29.50-9.36C28.61-6.18 26.82-3.48 24.41-1.61ZM6.33-2.51L10.82-7.01C11.52-6.43 12.39-6.04 13.38-5.87L13.38 1.16C10.42 0.71 7.99-0.59 6.33-2.51ZM15.75 1.34C15.41 1.34 15.07 1.32 14.74 1.30L14.74-5.79C15.83-5.84 16.76-6.14 17.51-6.60L23.29-0.81C21.13 0.56 18.56 1.34 15.75 1.34Z" fill="currentColor"/>
</svg>