<svg xmlns="http://www.w3.org/2000/svg" viewBox="0 0 24 24" width="24" height="24">
  <title>francsign.ring</title>
  <path transform="matrix(0.7632677400119261, 0, 0, 0.7632677400119261, 0.39892665474060807, 18.457960644007155)" d="M15.20 4.64C22.39 4.64 28.30-1.27 28.30-8.46C28.30-15.66 22.39-21.56 15.20-21.56C8.00-21.56 2.10-15.66 2.10-8.46C2.10-1.27 8.00 4.64 15.20 4.64ZM15.20 0.28C10.37 0.28 6.46-3.63 6.46-8.46C6.46-13.30 10.37-17.20 15.20-17.20C20.04-17.20 23.94-13.30 23.94-8.46C23.94-3.63 20.04 0.28 15.20 0.28ZM13.21-3C13.61-3 13.90-3.29 13.90-3.70L13.90-4.95L16.41-4.95C16.63-4.95 16.79-5.11 16.79-5.33C16.79-5.55 16.63-5.72 16.41-5.72L13.90-5.72L13.90-7.86L17.78-7.86C18.14-7.86 18.41-8.11 18.41-8.46C18.41-8.80 18.14-9.05 17.78-9.05L13.90-9.05L13.90-12.45L18.19-12.45C18.56-12.45 18.82-12.70 18.82-13.04C18.82-13.41 18.56-13.66 18.19-13.66L13.21-13.66C12.77-13.66 12.50-13.39 12.50-12.95L12.50-5.72L11.38-5.72C11.16-5.72 10.99-5.55 10.99-5.33C10.99-5.11 11.16-4.95 11.38-4.95L12.50-4.95L12.50-3.70C12.50-3.29 12.79-3 13.21-3Z" fill="currentColor"/>
</svg>