<svg xmlns="http://www.w3.org/2000/svg" viewBox="0 0 24 24" width="24" height="24">
  <title>francsign.gauge.chart.lefthalf.righthalf</title>
  <path transform="matrix(0.7084544070845441, 0, 0, 0.7084544070845441, 0.5139061851390618, 18.004620073800528)" d="M30.33-6.11C30.33-13.49 24.66-19.55 17.44-20.16C17.06-20.19 16.78-19.92 16.78-19.55L16.78-15.71C16.78-15.40 17.00-15.15 17.32-15.13C21.81-14.58 25.30-10.75 25.30-6.11C25.30-4.00 24.57-2.05 23.30-0.42C23.13-0.22 23.14 0.04 23.32 0.22L26.12 3.01C26.38 3.27 26.78 3.27 27.01 2.99C29.09 0.53 30.33-2.65 30.33-6.11ZM2.10-6.11C2.10-2.64 3.34 0.54 5.41 3C5.65 3.28 6.04 3.27 6.30 3.01L9.11 0.22C9.28 0.04 9.29-0.22 9.13-0.42C7.84-2.05 7.13-4.00 7.13-6.11C7.13-10.75 10.62-14.58 15.11-15.13C15.42-15.15 15.64-15.40 15.64-15.71L15.64-19.55C15.64-19.92 15.36-20.19 14.99-20.16C7.77-19.55 2.10-13.49 2.10-6.11ZM14.20-0.49C14.60-0.49 14.89-0.77 14.89-1.20L14.89-2.44L17.40-2.44C17.63-2.44 17.79-2.59 17.79-2.82C17.79-3.05 17.63-3.21 17.40-3.21L14.89-3.21L14.89-5.36L18.77-5.36C19.14-5.36 19.41-5.60 19.41-5.95C19.41-6.29 19.14-6.54 18.77-6.54L14.89-6.54L14.89-9.94L19.18-9.94C19.56-9.94 19.82-10.18 19.82-10.54C19.82-10.90 19.56-11.14 19.18-11.14L14.20-11.14C13.77-11.14 13.50-10.88 13.50-10.43L13.50-3.21L12.38-3.21C12.15-3.21 11.99-3.05 11.99-2.82C11.99-2.59 12.15-2.44 12.38-2.44L13.50-2.44L13.50-1.20C13.50-0.77 13.79-0.49 14.20-0.49Z" fill="currentColor"/>
</svg>