<svg xmlns="http://www.w3.org/2000/svg" viewBox="0 0 24 24" width="24" height="24">
  <title>fuelpump.and.filter</title>
  <path transform="matrix(0.6387225548902196, 0, 0, 0.6387225548902196, 3.4221556886227544, 17.32185628742515)" d="M5.72-5.86C5.72-5.43 6.07-5.10 6.47-5.10L18.86-5.10C19.28-5.10 19.62-5.43 19.62-5.86C19.62-6.27 19.28-6.61 18.86-6.61L18.20-6.61L18.20-15.87C18.91-15.43 19.21-14.80 19.21-14.04C19.21-12.71 19.01-11.06 19.01-9.66C19.01-8.16 19.95-7.20 21.39-7.20C22.98-7.20 23.87-8.27 23.87-10.14C23.87-12.25 23.47-14.70 22.68-18.55L22.49-19.43C22.31-20.26 22.04-20.98 21.55-21.60L20.59-22.78C20.10-23.41 19.14-22.68 19.68-22.03L20.86-20.53C20.92-20.46 20.92-20.36 20.86-20.25L20.16-18.95C19.95-18.55 20.00-18.28 20.31-17.93L21.88-16.28C22.39-13.91 22.69-11.79 22.69-10.14C22.69-8.99 22.23-8.39 21.39-8.39C20.64-8.39 20.19-8.84 20.19-9.66C20.19-10.88 20.40-12.53 20.40-14.04C20.40-15.46 19.75-16.55 18.20-17.19L18.20-21.84C18.20-23.24 17.45-23.99 16.07-23.99L9.27-23.99C7.88-23.99 7.15-23.23 7.15-21.84L7.15-6.61L6.47-6.61C6.07-6.61 5.72-6.28 5.72-5.86ZM9.54-16.34C8.92-16.34 8.57-16.68 8.57-17.25L8.57-21.66C8.57-22.22 8.92-22.57 9.54-22.57L15.80-22.57C16.42-22.57 16.78-22.22 16.78-21.66L16.78-17.25C16.78-16.68 16.42-16.34 15.80-16.34ZM3.88 7.32C4.39 7.32 4.79 6.93 4.79 6.43L4.79-2.65C4.79-3.15 4.39-3.56 3.88-3.56C3.38-3.56 2.99-3.15 2.99-2.65L2.99 6.43C2.99 6.93 3.38 7.32 3.88 7.32ZM22.86 7.28C23.37 7.28 23.77 6.88 23.77 6.39L23.77-2.61C23.77-3.12 23.37-3.53 22.86-3.53C22.37-3.53 21.96-3.12 21.96-2.61L21.96 6.39C21.96 6.88 22.37 7.28 22.86 7.28ZM7.58 0.68C8.18 0.68 8.65 0.20 8.65-0.39C8.65-0.98 8.18-1.46 7.58-1.46C7.00-1.46 6.52-0.98 6.52-0.39C6.52 0.20 7.00 0.68 7.58 0.68ZM11.45 0.68C12.05 0.68 12.52 0.20 12.52-0.39C12.52-0.98 12.05-1.46 11.45-1.46C10.85-1.46 10.37-0.98 10.37-0.39C10.37 0.20 10.85 0.68 11.45 0.68ZM15.32 0.68C15.90 0.68 16.37 0.20 16.37-0.39C16.37-0.98 15.90-1.46 15.32-1.46C14.72-1.46 14.24-0.98 14.24-0.39C14.24 0.20 14.72 0.68 15.32 0.68ZM19.17 0.68C19.76 0.68 20.24 0.20 20.24-0.39C20.24-0.98 19.76-1.46 19.17-1.46C18.57-1.46 18.09-0.98 18.09-0.39C18.09 0.20 18.57 0.68 19.17 0.68ZM7.58 5.31C8.18 5.31 8.65 4.83 8.65 4.23C8.65 3.62 8.18 3.15 7.58 3.15C7.00 3.15 6.52 3.63 6.52 4.23C6.52 4.83 7.00 5.31 7.58 5.31ZM11.45 5.31C12.05 5.31 12.52 4.83 12.52 4.23C12.52 3.62 12.05 3.15 11.45 3.15C10.85 3.15 10.37 3.63 10.37 4.23C10.37 4.83 10.85 5.31 11.45 5.31ZM15.32 5.31C15.90 5.31 16.37 4.83 16.37 4.23C16.37 3.62 15.90 3.15 15.32 3.15C14.72 3.15 14.24 3.63 14.24 4.23C14.24 4.83 14.72 5.31 15.32 5.31ZM19.17 5.31C19.76 5.31 20.24 4.83 20.24 4.23C20.24 3.62 19.76 3.15 19.17 3.15C18.57 3.15 18.09 3.63 18.09 4.23C18.09 4.83 18.57 5.31 19.17 5.31Z" fill="currentColor"/>
</svg>