<svg xmlns="http://www.w3.org/2000/svg" viewBox="0 0 24 24" width="24" height="24">
  <title>fuelpump.circle.fill</title>
  <path transform="matrix(0.8366013071895425, 0, 0, 0.8366013071895425, 0.2450980392156863, 19.058823529411764)" d="M14.05 3.52C20.65 3.52 26.00-1.84 26.00-8.44C26.00-15.02 20.65-20.39 14.05-20.39C7.46-20.39 2.10-15.02 2.10-8.44C2.10-1.84 7.46 3.52 14.05 3.52ZM8.19-2.32C8.19-2.60 8.43-2.84 8.71-2.84L9.20-2.84L9.20-13.80C9.20-14.80 9.71-15.34 10.71-15.34L15.59-15.34C16.59-15.34 17.13-14.80 17.13-13.80L17.13-10.42C18.21-9.98 18.66-9.21 18.66-8.20C18.66-7.11 18.53-5.93 18.53-5.05C18.53-4.46 18.88-4.10 19.43-4.10C20.05-4.10 20.40-4.56 20.40-5.40C20.40-6.60 20.18-8.10 19.80-9.82L18.68-11.03C18.46-11.26 18.43-11.44 18.57-11.71L19.07-12.64C19.13-12.74 19.11-12.83 19.07-12.89L18.21-13.97C17.85-14.40 18.49-14.88 18.83-14.46L19.50-13.61C19.85-13.16 20.06-12.67 20.17-12.09L20.31-11.43C20.87-8.67 21.18-6.93 21.18-5.40C21.18-4.07 20.54-3.34 19.43-3.34C18.41-3.34 17.75-3.98 17.75-5.05C17.75-6.06 17.89-7.24 17.89-8.20C17.89-8.77 17.67-9.23 17.13-9.55L17.13-2.84L17.59-2.84C17.87-2.84 18.12-2.59 18.12-2.32C18.12-2.03 17.87-1.82 17.59-1.82L8.71-1.82C8.43-1.82 8.19-2.03 8.19-2.32ZM10.91-9.86L15.41-9.86C15.84-9.86 16.13-10.10 16.13-10.50L16.13-13.68C16.13-14.09 15.84-14.33 15.41-14.33L10.91-14.33C10.45-14.33 10.21-14.09 10.21-13.68L10.21-10.50C10.21-10.10 10.45-9.86 10.91-9.86Z" fill="currentColor"/>
</svg>