<svg xmlns="http://www.w3.org/2000/svg" viewBox="0 0 24 24" width="24" height="24">
  <title>fx</title>
  <path transform="matrix(0.777879064114251, 0, 0, 0.777879064114251, -0.324521422060164, 18.57702825888788)" d="M16.22 0.21C16.62 0.21 16.84 0.08 17.13-0.34L21.82-6.74L21.89-6.74L26.53-0.33C26.81 0.07 27.07 0.21 27.49 0.21C28.11 0.21 28.56-0.22 28.56-0.82C28.56-1.08 28.48-1.36 28.30-1.57L23.23-8.43L28.44-15.41C28.61-15.63 28.70-15.88 28.70-16.13C28.70-16.68 28.24-17.12 27.69-17.12C27.26-17.12 27.01-16.98 26.72-16.56L22.04-10.08L21.97-10.08L17.32-16.56C17.02-16.99 16.79-17.12 16.34-17.12C15.71-17.12 15.26-16.70 15.26-16.11C15.26-15.86 15.35-15.60 15.52-15.36L20.55-8.50L15.43-1.51C15.26-1.28 15.16-1.03 15.16-0.79C15.16-0.22 15.63 0.21 16.22 0.21ZM4.05 0.16C4.72 0.16 5.16-0.26 5.16-0.93L5.16-7.34L12.04-7.34C12.60-7.34 13.02-7.70 13.02-8.27C13.02-8.86 12.60-9.22 12.04-9.22L5.16-9.22L5.16-14.94L12.70-14.94C13.29-14.94 13.71-15.30 13.71-15.90C13.71-16.50 13.29-16.88 12.70-16.88L4.04-16.88C3.40-16.88 2.99-16.45 2.99-15.80L2.99-0.93C2.99-0.26 3.40 0.16 4.05 0.16Z" fill="currentColor"/>
</svg>