<svg xmlns="http://www.w3.org/2000/svg" viewBox="0 0 24 24" width="24" height="24">
  <title>gauge.with.needle.fill</title>
  <path transform="matrix(0.8366013071895425, 0, 0, 0.8366013071895425, 0.2450980392156863, 19.07843137254902)" d="M14.05 3.49C20.65 3.49 26.00-1.88 26.00-8.46C26.00-15.06 20.65-20.41 14.05-20.41C7.46-20.41 2.10-15.06 2.10-8.46C2.10-1.88 7.46 3.49 14.05 3.49ZM14.05-6.52C13.34-6.52 12.74-6.91 12.35-7.51L8.32-13.52C7.91-14.14 8.53-14.77 9.13-14.34L15.18-10.07C15.69-9.70 16.02-9.13 16.02-8.46C16.02-7.38 15.14-6.52 14.05-6.52Z" fill="currentColor"/>
</svg>