<svg xmlns="http://www.w3.org/2000/svg" viewBox="0 0 24 24" width="24" height="24">
  <title>hazardsign</title>
  <path transform="matrix(0.8142493638676844, 0, 0, 0.8142493638676844, 0.053435114503816994, 18.93702290076336)" d="M5.59 2.61L23.75 2.61C25.75 2.61 26.95 1.23 26.95-0.56C26.95-1.11 26.79-1.69 26.50-2.20L17.40-18.05C16.79-19.11 15.75-19.65 14.67-19.65C13.59-19.65 12.54-19.11 11.94-18.05L2.85-2.20C2.53-1.68 2.39-1.11 2.39-0.56C2.39 1.23 3.60 2.61 5.59 2.61ZM5.60 0.77C4.78 0.77 4.29 0.14 4.29-0.57C4.29-0.80 4.34-1.08 4.46-1.32L13.55-17.16C13.79-17.59 14.24-17.78 14.67-17.78C15.11-17.78 15.54-17.59 15.79-17.16L24.87-1.31C25.00-1.07 25.05-0.80 25.05-0.57C25.05 0.14 24.54 0.77 23.73 0.77ZM7.28-0.96L22.05-0.96C22.54-0.96 22.80-1.41 22.56-1.84L15.18-14.74C14.93-15.18 14.40-15.18 14.16-14.74L6.77-1.84C6.52-1.39 6.80-0.96 7.28-0.96ZM9.62-2.73C9.48-2.73 9.40-2.86 9.47-2.99L14.52-11.81C14.59-11.94 14.75-11.94 14.82-11.81L19.86-2.99C19.93-2.86 19.85-2.73 19.71-2.73Z" fill="currentColor"/>
</svg>