<svg xmlns="http://www.w3.org/2000/svg" viewBox="0 0 24 24" width="24" height="24">
  <title>head.profile.arrow.forward.and.vision.pro</title>
  <path transform="matrix(0.6395354482981324, 0, 0, 0.6395354482981324, 2.815595010424327, 18.694900788678012)" d="M10.86-22.96C10.37-22.63 10.37-22.14 10.62-21.84C10.83-21.60 11.21-21.52 11.65-21.80C12.83-22.63 14.34-22.95 16.03-22.98L16.04-21.67C16.04-21.11 16.69-20.92 17.05-21.22L19.45-23.17C19.77-23.44 19.79-23.79 19.45-24.07L16.97-25.99C16.63-26.26 16.03-26.03 16.03-25.50L16.03-24.39C14.12-24.34 12.29-23.94 10.86-22.96ZM4.57-15.47C5.64-13.84 6.45-12.96 8.24-12.96C10.83-12.96 11.84-15.29 11.84-16.89C11.84-17.79 11.51-18.59 10.85-19.10C10.08-19.72 7.96-20.96 7.52-21.13C6.68-21.46 6.02-21.22 5.52-20.41L3.14-16.66C2.91-16.30 2.98-15.93 3.12-15.76C3.55-16.28 4.10-16.18 4.57-15.47ZM25.49-11.55C24.64-15.93 21.26-18.71 16.55-18.71C15.18-18.71 13.91-18.47 12.80-18.04C12.95-17.44 12.95-16.78 12.86-16.21C13.90-16.75 15.15-17.05 16.55-17.05C20.21-17.05 22.88-15 23.72-11.71C24.36-11.60 24.93-11.55 25.49-11.55ZM11.20-12.93C16.05-9.57 22.03-7.93 25.56-8.03C25.65-8.03 25.73-8.17 25.73-8.33L25.70-10.23C25.70-10.43 25.56-10.54 25.38-10.54C22.58-10.50 16.85-12.16 12.62-15.12C12.35-14.31 11.89-13.54 11.20-12.93ZM17.25 5.17C20.94 5.17 23.21 3.86 23.21 1.62L23.21-3.32C24.27-4.23 25.02-5.54 25.39-7.02C24.87-7.01 24.29-7.04 23.68-7.11C23.29-5.84 22.54-4.78 21.53-4.16L21.54 1.32C21.54 2.67 19.96 3.49 17.25 3.49C14.55 3.49 13.00 2.67 13.00 1.32L13.00 0.19C13.00-0.01 12.87-0.13 12.67-0.11L10.10 0.19C9.42 0.26 9.12 0.01 9.12-0.75L9.12-3.74C9.12-3.91 9-4.02 8.82-4.02L8.34-4.02C7.73-4.02 7.43-4.29 7.43-4.77C7.43-5.02 7.51-5.33 7.68-5.65L9.20-8.34C9.14-8.77 9.11-9.16 9.11-9.55C9.11-10.46 9.22-11.31 9.46-12.08C8.77-11.85 7.98-11.86 7.69-11.89C7.52-11.14 7.44-10.35 7.44-9.52C7.44-9.21 7.45-8.94 7.49-8.70L6.23-6.46C5.91-5.86 5.74-5.27 5.74-4.73C5.74-3.70 6.36-2.88 7.44-2.60L7.44-0.64C7.44 1.15 8.70 2.00 10.31 1.85L11.40 1.75C11.47 3.91 13.69 5.17 17.25 5.17Z" fill="currentColor"/>
</svg>