<svg xmlns="http://www.w3.org/2000/svg" viewBox="0 0 24 24" width="24" height="24">
  <title>hearingdevice.and.signal.meter</title>
  <path transform="matrix(0.7691152170647438, 0, 0, 0.7691152170647438, -0.29833258224425396, 18.71473636773321)" d="M10.99-1.54C10.99 1.70 13.00 3.76 16.16 3.76C18.50 3.76 20.27 2.73 21.38 0.74L22.43-1.15C24.90-5.67 28.99-6.26 28.99-12.07C28.99-17.55 25.44-21.22 20.11-21.22C14.66-21.22 10.99-17.53 10.99-12.02ZM4.96-15.66C6.04-15.66 6.93-16.54 6.93-17.61C6.93-18.70 6.04-19.58 4.96-19.58C3.87-19.58 2.99-18.70 2.99-17.61C2.99-16.54 3.87-15.66 4.96-15.66ZM12.76-1.65L12.76-12.02C12.76-16.49 15.70-19.45 20.11-19.45C24.38-19.45 27.22-16.49 27.22-12.07C27.22-7.21 23.40-6.36 20.86-1.95L19.83-0.20C19.00 1.25 17.85 1.95 16.24 1.95C14.07 1.95 12.76 0.59 12.76-1.65ZM14.59-4.95C14.59-3.73 15.52-2.92 16.88-2.92C18.64-2.93 19.85-4.43 19.85-6.32C19.85-9.69 16.36-10.25 16.36-12.63C16.36-14.47 17.86-15.83 20.10-15.83C22.37-15.83 23.84-14.36 23.84-12.09C23.84-11.61 24.25-11.20 24.73-11.20C25.21-11.20 25.61-11.61 25.61-12.09C25.61-15.39 23.40-17.60 20.10-17.60C16.80-17.60 14.59-15.53 14.59-12.63C14.59-10.09 16.99-9.26 16.99-8.12C16.99-6.86 14.59-7.14 14.59-4.95ZM4.96-9.56C6.04-9.56 6.93-10.44 6.93-11.52C6.93-12.61 6.04-13.49 4.96-13.49C3.87-13.49 2.99-12.61 2.99-11.52C2.99-10.44 3.87-9.56 4.96-9.56ZM4.96-3.45C6.04-3.45 6.93-4.32 6.93-5.40C6.93-6.49 6.04-7.37 4.96-7.37C3.87-7.37 2.99-6.49 2.99-5.40C2.99-4.32 3.87-3.45 4.96-3.45ZM4.96 2.65C6.04 2.65 6.93 1.77 6.93 0.69C6.93-0.40 6.04-1.28 4.96-1.28C3.87-1.28 2.99-0.40 2.99 0.69C2.99 1.77 3.87 2.65 4.96 2.65Z" fill="currentColor"/>
</svg>