<svg xmlns="http://www.w3.org/2000/svg" viewBox="0 0 24 24" width="24" height="24">
  <title>heat.waves.circle</title>
  <path transform="matrix(0.8366013071895425, 0, 0, 0.8366013071895425, 0.2450980392156863, 19.07843137254902)" d="M14.05 3.49C20.65 3.49 26.00-1.86 26.00-8.46C26.00-15.06 20.65-20.41 14.05-20.41C7.45-20.41 2.10-15.06 2.10-8.46C2.10-1.86 7.45 3.49 14.05 3.49ZM14.05 1.50C8.54 1.50 4.09-2.95 4.09-8.46C4.09-13.97 8.54-18.42 14.05-18.42C19.56-18.42 24.01-13.97 24.01-8.46C24.01-2.95 19.56 1.50 14.05 1.50ZM16.54-12.67C16.32-12.35 16.50-11.93 16.92-11.93L17.61-11.93C17.61-9.68 18.79-9.35 18.79-8.26C18.79-7.20 17.30-6.82 17.30-4.69C17.30-3.94 17.51-3.36 18.02-2.71C18.55-2.07 19.52-2.73 19.00-3.42C18.61-3.93 18.50-4.24 18.50-4.76C18.50-6.20 19.98-6.66 19.98-8.26C19.98-9.89 18.81-10.22 18.81-11.93L19.48-11.93C19.91-11.93 20.09-12.35 19.88-12.67L18.62-14.47C18.41-14.81 18-14.82 17.78-14.47ZM12.38-12.66C12.16-12.34 12.34-11.89 12.76-11.89L13.44-11.89L13.44-11.91C13.44-9.67 14.61-9.33 14.61-8.24C14.61-7.17 13.14-6.81 13.14-4.65C13.14-3.90 13.35-3.34 13.88-2.68C14.34-2.07 15.34-2.71 14.82-3.40C14.46-3.90 14.34-4.22 14.34-4.72C14.34-6.16 15.82-6.63 15.82-8.24C15.82-9.86 14.65-10.21 14.64-11.89L15.33-11.89C15.74-11.89 15.93-12.33 15.70-12.66L14.47-14.45C14.25-14.79 13.85-14.80 13.62-14.45ZM8.21-12.63C8.00-12.32 8.17-11.88 8.60-11.88L9.28-11.88C9.28-9.64 10.45-9.30 10.45-8.23C10.45-7.14 8.99-6.77 8.99-4.64C8.99-3.90 9.19-3.33 9.70-2.66C10.20-2.04 11.19-2.70 10.68-3.38C10.29-3.89 10.17-4.18 10.17-4.71C10.17-6.15 11.66-6.60 11.66-8.23C11.66-9.84 10.48-10.18 10.48-11.88L11.17-11.88C11.59-11.88 11.78-12.32 11.55-12.63L10.29-14.44C10.09-14.77 9.69-14.78 9.46-14.44Z" fill="currentColor"/>
</svg>