<svg xmlns="http://www.w3.org/2000/svg" viewBox="0 0 24 24" width="24" height="24">
  <title>hockey.puck.circle</title>
  <path transform="matrix(0.8366013071895425, 0, 0, 0.8366013071895425, 0.2450980392156863, 19.07843137254902)" d="M14.05 3.49C20.65 3.49 26.00-1.86 26.00-8.46C26.00-15.06 20.65-20.41 14.05-20.41C7.45-20.41 2.10-15.06 2.10-8.46C2.10-1.86 7.45 3.49 14.05 3.49ZM14.05 1.50C8.54 1.50 4.09-2.95 4.09-8.46C4.09-13.97 8.54-18.42 14.05-18.42C19.56-18.42 24.01-13.97 24.01-8.46C24.01-2.95 19.56 1.50 14.05 1.50ZM14.05-7.56C17.58-7.56 20.34-8.84 20.34-10.45C20.34-12.02 17.58-13.27 14.05-13.27C10.52-13.27 7.76-12.02 7.76-10.45C7.76-8.84 10.52-7.56 14.05-7.56ZM14.05-3.67C17.60-3.67 20.34-5.26 20.34-7.21L20.34-8.63C19.14-7.43 16.70-6.73 14.05-6.73C11.41-6.73 8.98-7.43 7.76-8.63L7.76-7.21C7.76-5.26 10.49-3.67 14.05-3.67Z" fill="currentColor"/>
</svg>