<svg xmlns="http://www.w3.org/2000/svg" viewBox="0 0 24 24" width="24" height="24">
  
  <path transform="matrix(0.6609863155176865, 0, 0, 0.6609863155176865, 0.024786986831913493, 17.61192873741286)" d="M13.44-19.50C16.31-19.50 18.34-20.09 18.34-20.82C18.34-21.60 16.31-22.16 13.44-22.16C10.56-22.16 8.52-21.60 8.52-20.82C8.52-20.09 10.56-19.50 13.44-19.50ZM2.99-13.00C2.99-9.97 4.25-7.10 6.42-5.13C7.79-3.84 9.27-3.33 12.30-3.23L12.30-5.23C9.87-5.31 8.78-5.66 7.78-6.61C6-8.24 5.00-10.54 5.00-13.00C5.00-14.74 5.52-16.35 6.54-17.72C8.11-16.71 10.45-16.20 13.44-16.20C16.44-16.20 18.79-16.71 20.34-17.72C20.87-17.13 21.22-16.45 21.39-15.68L23.51-15.68C23.19-17.13 22.54-18.45 21.57-19.46C21.11-20.05 20.32-20.17 19.65-19.77C18.36-18.84 16.79-18.20 13.44-18.20C10.09-18.20 8.52-18.84 7.22-19.77C6.55-20.17 5.78-20.06 5.31-19.46C3.82-17.77 2.99-15.45 2.99-13.00ZM19.08 5.18L28.09 5.18C29.74 5.18 31.14 5.03 32.12 4.04C33.11 3.05 33.25 1.66 33.25 0.01L33.25-8.91C33.25-10.57 33.11-11.95 32.12-12.94C31.14-13.92 29.74-14.09 28.09-14.09L19.05-14.09C17.44-14.09 16.03-13.92 15.05-12.93C14.06-11.94 13.91-10.56 13.91-8.94L13.91 0.01C13.91 1.66 14.06 3.05 15.05 4.04C16.03 5.03 17.43 5.18 19.08 5.18ZM19.10-6.62C19.08-7.37 19.69-8.09 20.48-8.14C20.55-7.42 19.92-6.54 19.10-6.62ZM24.59-7.65L24.59-6.46L25.55-6.46L25.55-5.67L24.59-5.67L24.59-2.89C24.59-2.43 24.79-2.25 25.20-2.25C25.30-2.25 25.49-2.25 25.55-2.29L25.55-1.44C25.44-1.43 25.20-1.41 24.98-1.41C23.95-1.41 23.55-1.76 23.55-2.77L23.55-5.67L22.85-5.67L22.85-6.46L23.55-6.46L23.55-7.65ZM21.87-3.18C21.71-2.66 21.38-2.05 20.93-1.62C20.80-1.50 20.61-1.41 20.36-1.41C20.13-1.41 19.99-1.49 19.78-1.55C19.66-1.59 19.49-1.69 19.27-1.69C18.77-1.69 18.55-1.38 18.15-1.38C17.87-1.38 17.65-1.55 17.34-1.89C16.77-2.53 16.39-3.54 16.39-4.42C16.39-4.96 16.52-5.45 16.86-5.87C17.14-6.23 17.58-6.45 18.11-6.45C18.59-6.45 18.88-6.14 19.15-6.14C19.44-6.14 19.79-6.46 20.41-6.46C20.95-6.46 21.41-6.23 21.70-5.80C21.32-5.59 21.16-5.31 21.09-5.07C20.96-4.75 20.93-4.35 21.09-3.94C21.23-3.59 21.47-3.34 21.87-3.18ZM28.95-1.44L27.87-1.44L26.03-6.46L27.11-6.46L28.41-2.43L29.64-6.46L30.75-6.46Z" fill="currentColor"/>
</svg>