<svg xmlns="http://www.w3.org/2000/svg" viewBox="0 0 24 24" width="24" height="24">
  <title>info.circle.text.page</title>
  <path transform="matrix(0.7960199004975125, 0, 0, 0.7960199004975125, 1.7761194029850742, 18.73507462686567)" d="M2.99 0.43C2.99 2.88 4.20 4.10 6.62 4.10L19.07 4.10C21.49 4.10 22.70 2.88 22.70 0.43L22.70-17.34C22.70-19.78 21.49-21.02 19.07-21.02L6.62-21.02C4.20-21.02 2.99-19.78 2.99-17.34ZM4.88 0.40L4.88-17.31C4.88-18.48 5.50-19.14 6.71-19.14L18.97-19.14C20.19-19.14 20.81-18.48 20.81-17.31L20.81 0.40C20.81 1.57 20.19 2.21 18.97 2.21L6.71 2.21C5.50 2.21 4.88 1.57 4.88 0.40ZM12.87-8.53C15.13-8.53 17.04-10.44 17.04-12.73C17.04-15.02 15.16-16.91 12.87-16.91C10.57-16.91 8.68-15.02 8.68-12.73C8.68-10.42 10.57-8.53 12.87-8.53ZM12.84-14.20C12.48-14.20 12.19-14.50 12.19-14.86C12.19-15.23 12.48-15.54 12.84-15.54C13.23-15.54 13.52-15.23 13.52-14.86C13.52-14.50 13.23-14.20 12.84-14.20ZM11.84-10.25C11.61-10.25 11.47-10.41 11.47-10.64C11.47-10.86 11.61-11.02 11.84-11.02L12.59-11.02L12.59-12.68L11.82-12.68C11.60-12.68 11.47-12.81 11.47-13.04C11.47-13.28 11.60-13.43 11.82-13.43L12.96-13.43C13.17-13.43 13.32-13.27 13.32-13.04L13.32-11.02L13.98-11.02C14.19-11.02 14.33-10.85 14.33-10.64C14.33-10.42 14.19-10.25 13.98-10.25ZM8.38-4.71L17.33-4.71C17.75-4.71 18.06-5.04 18.06-5.45C18.06-5.85 17.75-6.15 17.33-6.15L8.38-6.15C7.96-6.15 7.64-5.85 7.64-5.45C7.64-5.04 7.96-4.71 8.38-4.71ZM8.38-1.20L12.61-1.20C13.03-1.20 13.34-1.50 13.34-1.90C13.34-2.31 13.03-2.64 12.61-2.64L8.38-2.64C7.96-2.64 7.64-2.31 7.64-1.90C7.64-1.50 7.96-1.20 8.38-1.20Z" fill="currentColor"/>
</svg>