<svg xmlns="http://www.w3.org/2000/svg" viewBox="0 0 24 24" width="24" height="24">
  <title>inset.filled.square.dashed</title>
  <path transform="matrix(0.9270324099221438, 0, 0, 0.9270324099221438, -0.7702335687126562, 19.827267789244974)" d="M2.99-13.05L4.88-13.05L4.88-15.50C4.88-16.72 5.52-17.34 6.69-17.34L9.12-17.34L9.12-19.23L6.67-19.23C4.22-19.23 2.99-18.02 2.99-15.60ZM10.72-17.34L16.83-17.34L16.83-19.23L10.72-19.23ZM22.68-13.05L24.56-13.05L24.56-15.60C24.56-18.01 23.33-19.23 20.88-19.23L18.43-19.23L18.43-17.34L20.86-17.34C22.02-17.34 22.68-16.72 22.68-15.50ZM7.59-1.16L19.98-1.16C20.71-1.16 21.08-1.55 21.08-2.30L21.08-14.63C21.08-15.38 20.71-15.76 19.98-15.76L7.59-15.76C6.86-15.76 6.48-15.38 6.48-14.63L6.48-2.30C6.48-1.55 6.86-1.16 7.59-1.16ZM22.68-5.44L24.56-5.44L24.56-11.45L22.68-11.45ZM2.99-5.44L4.88-5.44L4.88-11.45L2.99-11.45ZM18.43 2.34L20.88 2.34C23.33 2.34 24.56 1.13 24.56-1.29L24.56-3.83L22.68-3.83L22.68-1.38C22.68-0.16 22.02 0.46 20.86 0.46L18.43 0.46ZM6.67 2.34L9.12 2.34L9.12 0.46L6.69 0.46C5.52 0.46 4.88-0.16 4.88-1.38L4.88-3.83L2.99-3.83L2.99-1.29C2.99 1.14 4.22 2.34 6.67 2.34ZM10.72 2.34L16.83 2.34L16.83 0.46L10.72 0.46Z" fill="currentColor"/>
</svg>