<svg xmlns="http://www.w3.org/2000/svg" viewBox="0 0 24 24" width="24" height="24">
  <title>iphone.and.arrow.forward.outward</title>
  <path transform="matrix(0.8061722563375846, 0, 0, 0.8061722563375846, -0.564950401511572, 18.82569674067076)" d="M19.55-5.34L17.66-5.34L17.66 0.59C17.66 1.52 17.11 2.05 16.13 2.05L7.92 2.05C6.93 2.05 6.38 1.52 6.38 0.59L6.38-17.52C6.38-18.46 6.93-18.98 7.92-18.98L16.13-18.98C17.11-18.98 17.66-18.46 17.66-17.52L17.66-11.60L19.55-11.60L19.55-17.82C19.55-19.65 18.27-20.87 16.36-20.87L7.68-20.87C5.77-20.87 4.49-19.65 4.49-17.82L4.49 0.89C4.49 2.72 5.77 3.94 7.68 3.94L16.36 3.94C18.27 3.94 19.55 2.72 19.55 0.89ZM12.05-8.47C12.05-7.97 12.47-7.55 12.96-7.55L22.36-7.55L24.12-7.63L23.41-6.96L21.48-5.14C21.29-4.98 21.20-4.73 21.20-4.51C21.20-4.03 21.55-3.66 22.03-3.66C22.28-3.66 22.46-3.76 22.64-3.94L26.37-7.79C26.60-8.03 26.68-8.24 26.68-8.47C26.68-8.72 26.60-8.92 26.37-9.15L22.64-13.02C22.46-13.20 22.28-13.29 22.03-13.29C21.55-13.29 21.20-12.94 21.20-12.45C21.20-12.22 21.29-11.96 21.48-11.80L23.41-10.00L24.13-9.33L22.36-9.41L12.96-9.41C12.47-9.41 12.05-8.98 12.05-8.47Z" fill="currentColor"/>
</svg>