<svg xmlns="http://www.w3.org/2000/svg" viewBox="0 0 24 24" width="24" height="24">
  <title>j.square.on.square</title>
  <path transform="matrix(0.8065532451165721, 0, 0, 0.8065532451165721, -0.4102079395085063, 18.814744801512283)" d="M6.67-1.61L8.67-1.61L8.67 0.19C8.67 2.60 9.90 3.82 12.35 3.82L24.12 3.82C26.57 3.82 27.79 2.61 27.79 0.19L27.79-11.67C27.79-14.09 26.57-15.29 24.12-15.29L22.10-15.29L22.10-17.09C22.10-19.51 20.88-20.72 18.43-20.72L6.67-20.72C4.22-20.72 2.99-19.50 2.99-17.09L2.99-5.24C2.99-2.82 4.22-1.61 6.67-1.61ZM6.69-3.49C5.54-3.49 4.88-4.11 4.88-5.33L4.88-16.99C4.88-18.21 5.54-18.83 6.69-18.83L18.40-18.83C19.57-18.83 20.21-18.21 20.21-16.99L20.21-5.33C20.21-4.11 19.57-3.49 18.40-3.49ZM11.99-5.68C14.30-5.68 15.53-6.90 15.53-9.13L15.53-15.69C15.53-16.35 15.20-16.75 14.58-16.75C13.98-16.75 13.65-16.32 13.65-15.69L13.65-9.15C13.65-7.98 13.05-7.28 12.08-7.28C11.20-7.28 10.62-7.72 10.32-8.48C10.13-8.92 9.87-9.11 9.47-9.11C8.95-9.11 8.60-8.75 8.60-8.24C8.60-8.05 8.64-7.88 8.70-7.70C9.11-6.47 10.37-5.68 11.99-5.68ZM12.38 1.93C11.23 1.93 10.56 1.31 10.56 0.09L10.56-1.61L18.43-1.61C20.88-1.61 22.10-2.81 22.10-5.24L22.10-13.41L24.08-13.41C25.25-13.41 25.90-12.79 25.90-11.57L25.90 0.09C25.90 1.31 25.25 1.93 24.08 1.93Z" fill="currentColor"/>
</svg>