<svg xmlns="http://www.w3.org/2000/svg" viewBox="0 0 24 24" width="24" height="24">
  <title>l.joystick.tilt.right</title>
  <path transform="matrix(0.6808949962696299, 0, 0, 0.6808949962696299, 0.5717163554812841, 17.768989245737608)" d="M15.57-21.95C8.14-21.95 2.10-15.90 2.10-8.46C2.10-1.02 8.14 5.00 15.57 5.00C21.42 5.00 26.39 1.29 28.27-3.91C27.59-3.82 26.94-4.02 26.44-4.42C24.79 0 20.55 3.12 15.57 3.12C9.15 3.12 3.98-2.04 3.98-8.46C3.98-14.88 9.16-20.06 15.57-20.06C20.57-20.06 24.80-16.92 26.45-12.49C26.94-12.90 27.60-13.08 28.27-13.00C26.41-18.20 21.43-21.95 15.57-21.95ZM15.57 0.89C20.75 0.89 24.93-3.29 24.93-8.46C24.93-13.64 20.75-17.82 15.57-17.82C10.42-17.82 6.21-13.64 6.21-8.46C6.21-3.29 10.42 0.89 15.57 0.89ZM15.57-1.00C11.44-1.00 8.10-4.32 8.10-8.46C8.10-12.61 11.44-15.94 15.57-15.94C19.72-15.94 23.04-12.61 23.04-8.46C23.04-4.32 19.72-1.00 15.57-1.00ZM13.85-3.97L18.12-3.97C18.54-3.97 18.89-4.27 18.89-4.71C18.89-5.16 18.54-5.47 18.12-5.47L14.77-5.47L14.77-12.13C14.77-12.71 14.41-13.11 13.85-13.11C13.30-13.11 13.00-12.70 13.00-12.13L13.00-4.95C13.00-4.37 13.30-3.97 13.85-3.97ZM28.32-11.19C27.68-11.67 26.87-11.38 26.87-10.57L26.87-6.34C26.87-5.51 27.69-5.25 28.31-5.72L31.14-7.83C31.57-8.16 31.59-8.77 31.14-9.09Z" fill="currentColor"/>
</svg>