<svg xmlns="http://www.w3.org/2000/svg" viewBox="0 0 24 24" width="24" height="24">
  <title>l1.button.roundedbottom.horizontal.fill</title>
  <path transform="matrix(0.7397774888021962, 0, 0, 0.7397774888021962, -0.21066319895968766, 18.259211096662334)" d="M12.82 1.76L20.19 1.76C26.99 1.76 30.02-1.37 30.02-7.77L30.02-15.13C30.02-17.48 28.80-18.68 26.43-18.68L6.59-18.68C4.21-18.68 2.99-17.48 2.99-15.13L2.99-7.77C2.99-1.37 6.02 1.76 12.82 1.76ZM20.02-3.63C19.55-3.63 19.16-4.02 19.16-4.50L19.16-11.53L18.11-10.68C17.98-10.58 17.86-10.54 17.67-10.54C17.32-10.54 17.09-10.78 17.09-11.14C17.09-11.45 17.25-11.68 17.45-11.82L18.73-12.83C19.01-13.03 19.39-13.30 19.88-13.30C20.48-13.30 20.87-12.95 20.87-12.35L20.87-4.50C20.87-4.02 20.47-3.63 20.02-3.63ZM12.87-3.75C12.33-3.75 12.02-4.08 12.02-4.63L12.02-12.43C12.02-12.90 12.42-13.29 12.88-13.29C13.35-13.29 13.72-12.90 13.72-12.43L13.72-5.17L16.21-5.17C16.59-5.17 16.91-4.85 16.91-4.45C16.91-4.07 16.59-3.75 16.21-3.75Z" fill="currentColor"/>
</svg>