<svg xmlns="http://www.w3.org/2000/svg" viewBox="0 0 24 24" width="24" height="24">
  <title>lamp.ceiling.fill</title>
  <path transform="matrix(0.7379382409108926, 0, 0, 0.7379382409108926, 1.6400389147119228, 18.195005945303212)" d="M14.04-4.97C18.38-4.97 22.05-4.17 24.29-2.75C23.24-4.89 21.22-6.96 18.84-8.13C18.27-10.07 16.77-11.39 14.99-11.73L14.99-15.96C17.31-16.27 19.13-17.74 19.51-19.76C19.66-20.60 19.27-21.22 18.43-21.45C15.94-22.11 12.14-22.11 9.66-21.45C8.82-21.22 8.43-20.60 8.58-19.76C8.95-17.74 10.77-16.27 13.10-15.96L13.10-11.73C11.32-11.39 9.81-10.07 9.23-8.13C6.86-6.96 4.84-4.89 3.79-2.75C6.02-4.17 9.70-4.97 14.04-4.97ZM14.04 5.16C20.67 5.16 25.09 3.32 25.09 0.56C25.09-1.96 19.78-3.49 14.04-3.49C8.30-3.49 2.99-1.98 2.99 0.56C2.99 3.32 7.41 5.16 14.04 5.16ZM14.04 1.41C11.84 1.41 9.91 0.11 9.84-1.59C11.12-1.80 12.55-1.93 14.04-1.93C15.52-1.93 16.96-1.80 18.23-1.59C18.15 0.11 16.28 1.41 14.04 1.41Z" fill="currentColor"/>
</svg>