<svg xmlns="http://www.w3.org/2000/svg" viewBox="0 0 24 24" width="24" height="24">
  <title>lamp.desk</title>
  <path transform="matrix(0.7136385810857899, 0, 0, 0.7136385810857899, 1.8819296661539058, 18.010871837758728)" d="M4.34 5.59L16.80 5.59C17.24 5.59 17.53 5.27 17.53 4.82C17.53 3.94 16.77 3.32 15.59 3.32L10.86 3.32L10.86-0.19C11.40-0.49 11.75-1.05 11.75-1.77C11.75-2.79 10.93-3.60 9.93-3.60C9.88-3.60 9.84-3.60 9.80-3.60L6.61-6.77C6.63-6.89 6.64-7.02 6.64-7.15C6.64-7.28 6.63-7.39 6.61-7.51L11.70-12.19C11.81-10.77 12.06-9.42 12.47-8.10C12.91-6.68 14.52-6.14 15.64-7.28L17.47-9.11C18.12-8.67 18.88-8.46 19.65-8.46C21.81-8.46 23.58-10.22 23.58-12.36C23.58-13.14 23.36-13.89 22.91-14.54L24.76-16.39C25.89-17.51 25.35-19.11 23.95-19.55C21.56-20.32 19.03-20.53 16.15-20.37L15.79-20.75C14.70-21.89 13.20-22.11 11.92-21.35L11.10-22.17C10.75-22.52 10.21-22.52 9.86-22.17C9.52-21.83 9.50-21.29 9.86-20.94L10.69-20.11C9.93-18.82 10.15-17.29 11.29-16.24L11.67-15.88C11.65-15.47 11.64-15.07 11.63-14.68L5.34-8.89C5.18-8.95 5.00-8.98 4.82-8.98C3.79-8.98 2.99-8.17 2.99-7.15C2.99-6.12 3.79-5.32 4.82-5.32C4.99-5.32 5.17-5.34 5.33-5.39L8.24-2.50C8.14-2.27 8.10-2.03 8.10-1.77C8.10-1.09 8.44-0.50 8.98-0.20L8.98 3.32L5.55 3.32C4.37 3.32 3.61 3.94 3.61 4.82C3.61 5.27 3.90 5.59 4.34 5.59ZM14.48-8.45C14.30-8.26 14.13-8.29 13.97-8.82C13.32-10.88 13.15-13.17 13.35-15.97C13.37-16.36 13.21-16.73 12.91-16.99L12.40-17.46C11.74-18.07 11.71-18.93 12.40-19.65C13.13-20.34 13.97-20.32 14.59-19.64L15.06-19.13C15.33-18.83 15.73-18.67 16.14-18.70C18.88-18.88 21.19-18.70 23.24-18.05C23.74-17.88 23.77-17.73 23.60-17.57ZM21.91-12.36C21.91-11.12 20.88-10.11 19.65-10.11C19.32-10.11 19.00-10.20 18.70-10.34L21.68-13.31C21.83-13.02 21.91-12.70 21.91-12.36Z" fill="currentColor"/>
</svg>