<svg xmlns="http://www.w3.org/2000/svg" viewBox="0 0 24 24" width="24" height="24">
  <title>light.beacon.max.fill</title>
  <path transform="matrix(0.7210252077172229, 0, 0, 0.7210252077172229, -0.15462610899873264, 19.152513730460498)" d="M15.84-18.50C15.84-17.95 16.30-17.48 16.85-17.48C17.41-17.48 17.87-17.95 17.87-18.50L17.87-20.75C17.87-21.30 17.40-21.77 16.85-21.77C16.30-21.77 15.84-21.30 15.84-20.75ZM8.64-14.68C9.02-14.30 9.67-14.29 10.05-14.68C10.45-15.08 10.44-15.71 10.05-16.10L8.47-17.70C8.10-18.09 7.44-18.09 7.04-17.70C6.66-17.30 6.66-16.68 7.04-16.28ZM23.64-16.10C23.25-15.71 23.24-15.08 23.64-14.68C24.05-14.29 24.67-14.30 25.05-14.68L26.66-16.28C27.05-16.68 27.05-17.30 26.66-17.70C26.25-18.09 25.63-18.09 25.24-17.70ZM25.85 1.93C26.38 1.93 26.81 1.51 26.81 1.00C26.81 0.47 26.38 0.04 25.85 0.04L24.42 0.04L24.42-7.73C24.42-12.01 21.13-15.32 16.85-15.32C12.59-15.32 9.29-12.01 9.29-7.73L9.29 0.04L7.84 0.04C7.32 0.04 6.91 0.47 6.91 1.00C6.91 1.51 7.32 1.93 7.84 1.93ZM6.23-6.89C6.79-6.89 7.27-7.35 7.27-7.89C7.27-8.45 6.79-8.91 6.23-8.91L3.98-8.91C3.45-8.91 2.99-8.44 2.99-7.89C2.99-7.36 3.45-6.89 3.98-6.89ZM29.71-6.89C30.26-6.89 30.73-7.36 30.73-7.89C30.73-8.44 30.26-8.91 29.71-8.91L27.46-8.91C26.92-8.91 26.45-8.45 26.45-7.89C26.45-7.35 26.92-6.89 27.46-6.89ZM17.84-7.70L17.84 0.04L15.89 0.04L15.89-7.70C15.89-8.24 16.31-8.68 16.85-8.68C17.39-8.68 17.84-8.24 17.84-7.70Z" fill="currentColor"/>
</svg>