<svg xmlns="http://www.w3.org/2000/svg" viewBox="0 0 24 24" width="24" height="24">
  <title>line.3.horizontal.decrease.circle.fill</title>
  <path transform="matrix(0.8366013071895425, 0, 0, 0.8366013071895425, 0.2450980392156863, 19.07843137254902)" d="M14.05 3.49C20.65 3.49 26.00-1.88 26.00-8.46C26.00-15.06 20.65-20.41 14.05-20.41C7.46-20.41 2.10-15.06 2.10-8.46C2.10-1.88 7.46 3.49 14.05 3.49ZM7.49-10.86C6.95-10.86 6.56-11.20 6.56-11.72C6.56-12.23 6.95-12.57 7.49-12.57L20.66-12.57C21.19-12.57 21.59-12.23 21.59-11.72C21.59-11.20 21.19-10.86 20.66-10.86ZM9.28-6.86C8.73-6.86 8.36-7.20 8.36-7.72C8.36-8.24 8.73-8.58 9.28-8.58L18.87-8.58C19.41-8.58 19.78-8.24 19.78-7.72C19.78-7.20 19.41-6.86 18.87-6.86ZM11.14-2.85C10.61-2.85 10.23-3.20 10.23-3.71C10.23-4.22 10.61-4.56 11.14-4.56L16.99-4.56C17.53-4.56 17.92-4.22 17.92-3.71C17.92-3.20 17.53-2.85 16.99-2.85Z" fill="currentColor"/>
</svg>