<svg xmlns="http://www.w3.org/2000/svg" viewBox="0 0 24 24" width="24" height="24">
  <title>line.3.horizontal.button.angledtop.vertical.right.fill</title>
  <path transform="matrix(0.7945375543140907, 0, 0, 0.7945375543140907, 1.3435754189944134, 18.722532588454378)" d="M16.85 4.13C21.09 4.13 23.84 1.39 23.84-2.85L23.84-8.63C23.84-10.23 23.33-11.52 22.34-12.43L14.94-19.24C13.49-20.57 11.95-21.05 10.13-21.05L6.50-21.05C4.39-21.05 2.99-19.62 2.99-17.50L2.99 0.61C2.99 2.81 4.32 4.13 6.54 4.13ZM8.40-7.58C7.96-7.58 7.64-7.86 7.64-8.30C7.64-8.72 7.96-9 8.40-9L18.20-9C18.64-9 18.95-8.72 18.95-8.30C18.95-7.86 18.64-7.58 18.20-7.58ZM8.40-4.18C7.96-4.18 7.64-4.46 7.64-4.89C7.64-5.32 7.96-5.60 8.40-5.60L18.20-5.60C18.64-5.60 18.95-5.32 18.95-4.89C18.95-4.46 18.64-4.18 18.20-4.18ZM8.40-0.77C7.96-0.77 7.64-1.05 7.64-1.49C7.64-1.91 7.96-2.19 8.40-2.19L18.20-2.19C18.64-2.19 18.95-1.91 18.95-1.49C18.95-1.05 18.64-0.77 18.20-0.77Z" fill="currentColor"/>
</svg>