<svg xmlns="http://www.w3.org/2000/svg" viewBox="0 0 24 24" width="24" height="24">
  <title>list.bullet.rectangle</title>
  <path transform="matrix(0.7237772123268307, 0, 0, 0.7237772123268307, -0.16284987277353702, 18.119592875318066)" d="M6.67 2.33L26.94 2.33C29.40 2.33 30.62 1.13 30.62-1.29L30.62-15.61C30.62-18.02 29.40-19.24 26.94-19.24L6.67-19.24C4.22-19.24 2.99-18.02 2.99-15.61L2.99-1.29C2.99 1.13 4.22 2.33 6.67 2.33ZM6.69 0.45C5.52 0.45 4.88-0.18 4.88-1.39L4.88-15.50C4.88-16.72 5.52-17.36 6.69-17.36L26.92-17.36C28.08-17.36 28.73-16.72 28.73-15.50L28.73-1.39C28.73-0.18 28.08 0.45 26.92 0.45ZM8.54-12.83C9.15-12.83 9.63-13.32 9.63-13.92C9.63-14.53 9.15-15.01 8.54-15.01C7.96-15.01 7.45-14.52 7.45-13.92C7.45-13.34 7.96-12.83 8.54-12.83ZM12.08-13.21L25.49-13.21C25.91-13.21 26.23-13.52 26.23-13.92C26.23-14.33 25.90-14.66 25.49-14.66L12.08-14.66C11.67-14.66 11.34-14.33 11.34-13.92C11.34-13.52 11.66-13.21 12.08-13.21ZM8.54-9.25C9.15-9.25 9.63-9.74 9.63-10.34C9.63-10.95 9.15-11.43 8.54-11.43C7.96-11.43 7.45-10.93 7.45-10.34C7.45-9.75 7.96-9.25 8.54-9.25ZM12.08-9.61L19.51-9.61C19.91-9.61 20.24-9.94 20.24-10.34C20.24-10.73 19.91-11.07 19.51-11.07L12.08-11.07C11.67-11.07 11.34-10.73 11.34-10.34C11.34-9.94 11.67-9.61 12.08-9.61ZM8.54-5.67C9.15-5.67 9.63-6.15 9.63-6.76C9.63-7.36 9.15-7.84 8.54-7.84C7.95-7.84 7.45-7.35 7.45-6.76C7.45-6.15 7.95-5.67 8.54-5.67ZM12.08-6.02L25.49-6.02C25.91-6.02 26.23-6.34 26.23-6.76C26.23-7.16 25.91-7.48 25.49-7.48L12.08-7.48C11.66-7.48 11.34-7.16 11.34-6.76C11.34-6.34 11.66-6.02 12.08-6.02ZM8.54-1.91C9.15-1.91 9.63-2.40 9.63-3C9.63-3.61 9.15-4.10 8.54-4.10C7.96-4.10 7.45-3.60 7.45-3C7.45-2.41 7.96-1.91 8.54-1.91ZM12.08-2.27L19.51-2.27C19.91-2.27 20.24-2.60 20.24-3C20.24-3.41 19.92-3.73 19.51-3.73L12.08-3.73C11.66-3.73 11.34-3.41 11.34-3C11.34-2.60 11.67-2.27 12.08-2.27Z" fill="currentColor"/>
</svg>