<svg xmlns="http://www.w3.org/2000/svg" viewBox="0 0 24 24" width="24" height="24">
  <title>lm.button.horizontal</title>
  <path transform="matrix(0.7237772123268307, 0, 0, 0.7237772123268307, -0.16284987277353702, 18.12807463952502)" d="M12.22 2.05L21.39 2.05C28.18 2.05 30.62-0.47 30.62-6.74L30.62-10.18C30.62-16.45 28.18-18.98 21.39-18.98L12.22-18.98C5.43-18.98 2.99-16.45 2.99-10.18L2.99-6.74C2.99-0.47 5.43 2.05 12.22 2.05ZM12.22 0.16C6.69 0.16 4.88-1.63 4.88-6.74L4.88-10.18C4.88-15.29 6.69-17.10 12.22-17.10L21.39-17.10C26.92-17.10 28.73-15.29 28.73-10.18L28.73-6.74C28.73-1.63 26.92 0.16 21.39 0.16ZM10.46-3.71L13.83-3.71C14.21-3.71 14.54-4.03 14.54-4.43C14.54-4.82 14.21-5.13 13.83-5.13L11.32-5.13L11.32-12.49C11.32-12.95 10.93-13.34 10.48-13.34C10.01-13.34 9.62-12.95 9.62-12.49L9.62-4.59C9.62-4.04 9.93-3.71 10.46-3.71ZM16.52-3.55C16.99-3.55 17.29-3.87 17.29-4.37L17.29-10.70L17.36-10.70L18.95-4.50C19.07-4.05 19.35-3.73 19.82-3.73C20.30-3.73 20.54-4.04 20.67-4.51L22.27-10.70L22.32-10.70L22.32-4.37C22.32-3.87 22.61-3.55 23.09-3.55C23.58-3.55 23.85-3.87 23.85-4.37L23.85-12.14C23.85-12.90 23.39-13.34 22.64-13.34C21.97-13.34 21.59-13.01 21.43-12.35L19.84-5.96L19.78-5.96L18.16-12.35C18-13.01 17.61-13.34 16.97-13.34C16.23-13.34 15.76-12.88 15.76-12.14L15.76-4.37C15.76-3.87 16.07-3.55 16.52-3.55Z" fill="currentColor"/>
</svg>