<svg xmlns="http://www.w3.org/2000/svg" viewBox="0 0 24 24" width="24" height="24">
  <title>lock.square.dashed</title>
  <path transform="matrix(0.9270324099221438, 0, 0, 0.9270324099221438, -0.7702335687126562, 19.827267789244974)" d="M2.99-13.05L4.88-13.05L4.88-15.50C4.88-16.72 5.52-17.34 6.69-17.34L9.12-17.34L9.12-19.23L6.67-19.23C4.22-19.23 2.99-18.02 2.99-15.60ZM10.72-17.34L16.83-17.34L16.83-19.23L10.72-19.23ZM22.68-13.05L24.56-13.05L24.56-15.60C24.56-18.01 23.33-19.23 20.88-19.23L18.43-19.23L18.43-17.34L20.86-17.34C22.02-17.34 22.68-16.72 22.68-15.50ZM9.55-3.84C9.55-2.96 9.94-2.55 10.75-2.55L16.82-2.55C17.64-2.55 18.02-2.96 18.02-3.84L18.02-8.51C18.02-9.33 17.68-9.73 16.98-9.77L16.98-11.17C16.98-13.32 15.69-14.77 13.78-14.77C11.87-14.77 10.58-13.32 10.58-11.17L10.58-9.77C9.89-9.73 9.55-9.33 9.55-8.51ZM11.80-9.79L11.80-11.30C11.80-12.67 12.60-13.58 13.78-13.58C14.96-13.58 15.76-12.67 15.76-11.30L15.76-9.79ZM22.68-5.44L24.56-5.44L24.56-11.45L22.68-11.45ZM2.99-5.44L4.88-5.44L4.88-11.45L2.99-11.45ZM18.43 2.34L20.88 2.34C23.33 2.34 24.56 1.13 24.56-1.29L24.56-3.83L22.68-3.83L22.68-1.38C22.68-0.16 22.02 0.46 20.86 0.46L18.43 0.46ZM6.67 2.34L9.12 2.34L9.12 0.46L6.69 0.46C5.52 0.46 4.88-0.16 4.88-1.38L4.88-3.83L2.99-3.83L2.99-1.29C2.99 1.14 4.22 2.34 6.67 2.34ZM10.72 2.34L16.83 2.34L16.83 0.46L10.72 0.46Z" fill="currentColor"/>
</svg>