<svg xmlns="http://www.w3.org/2000/svg" viewBox="0 0 24 24" width="24" height="24">
  <title>lock.circle.fill</title>
  <path transform="matrix(0.8366013071895425, 0, 0, 0.8366013071895425, 0.2450980392156863, 19.068627450980394)" d="M14.05 3.50C20.65 3.50 26.00-1.85 26.00-8.45C26.00-15.04 20.65-20.40 14.05-20.40C7.46-20.40 2.10-15.04 2.10-8.45C2.10-1.85 7.46 3.50 14.05 3.50ZM9.69-3.66L9.69-8.47C9.69-9.33 10.04-9.74 10.75-9.79L10.75-11.21C10.75-13.44 12.08-14.93 14.05-14.93C16.02-14.93 17.36-13.44 17.36-11.21L17.36-9.79C18.06-9.74 18.41-9.33 18.41-8.47L18.41-3.66C18.41-2.75 18.01-2.34 17.18-2.34L10.92-2.34C10.09-2.34 9.69-2.75 9.69-3.66ZM12.01-9.80L16.09-9.80L16.09-11.36C16.09-12.76 15.27-13.71 14.05-13.71C12.83-13.71 12.01-12.76 12.01-11.36Z" fill="currentColor"/>
</svg>