<svg xmlns="http://www.w3.org/2000/svg" viewBox="0 0 24 24" width="24" height="24">
  <title>m1.button.horizontal</title>
  <path transform="matrix(0.7237772123268307, 0, 0, 0.7237772123268307, -0.16284987277353702, 18.12807463952502)" d="M12.22 2.05L21.39 2.05C28.18 2.05 30.62-0.47 30.62-6.74L30.62-10.18C30.62-16.45 28.18-18.98 21.39-18.98L12.22-18.98C5.43-18.98 2.99-16.45 2.99-10.18L2.99-6.74C2.99-0.47 5.43 2.05 12.22 2.05ZM12.22 0.16C6.69 0.16 4.88-1.63 4.88-6.74L4.88-10.18C4.88-15.29 6.69-17.10 12.22-17.10L21.39-17.10C26.92-17.10 28.73-15.29 28.73-10.18L28.73-6.74C28.73-1.63 26.92 0.16 21.39 0.16ZM22.30-3.60C22.77-3.60 23.16-3.98 23.16-4.45L23.16-12.40C23.16-13.00 22.78-13.35 22.17-13.35C21.68-13.35 21.28-13.08 21-12.87L19.71-11.87C19.51-11.71 19.35-11.48 19.35-11.18C19.35-10.82 19.59-10.56 19.95-10.56C20.13-10.56 20.25-10.62 20.37-10.70L21.45-11.57L21.45-4.45C21.45-3.98 21.83-3.60 22.30-3.60ZM10.72-3.55C11.18-3.55 11.48-3.87 11.48-4.37L11.48-10.70L11.55-10.70L13.15-4.50C13.25-4.05 13.54-3.73 14.02-3.73C14.50-3.73 14.74-4.04 14.86-4.51L16.45-10.70L16.52-10.70L16.52-4.37C16.52-3.87 16.80-3.55 17.27-3.55C17.78-3.55 18.04-3.87 18.04-4.37L18.04-12.14C18.04-12.90 17.58-13.34 16.84-13.34C16.16-13.34 15.79-13.01 15.62-12.35L14.03-5.96L13.98-5.96L12.36-12.35C12.20-13.01 11.80-13.34 11.17-13.34C10.42-13.34 9.96-12.88 9.96-12.14L9.96-4.37C9.96-3.87 10.25-3.55 10.72-3.55Z" fill="currentColor"/>
</svg>