<svg xmlns="http://www.w3.org/2000/svg" viewBox="0 0 24 24" width="24" height="24">
  <title>medical.thermometer.fill</title>
  <path transform="matrix(0.7844919183990919, 0, 0, 0.7844919183990919, -0.11215255764286747, 18.496435784240028)" d="M20.40-19.76L26.91-13.24L26.96-13.30C28.72-15.05 28.52-17.82 26.75-19.58C24.98-21.35 22.21-21.55 20.46-19.82ZM4.96-0.02L7.17 2.19L8.64 0.73C11.59-2.21 15.05-1.37 18.13-4.45L25.97-12.29L19.44-18.82L11.60-10.97C8.38-7.75 9.38-4.44 6.42-1.49ZM15.41-8.20C14.65-8.96 14.67-10.16 15.41-10.90L18.95-14.46C19.69-15.20 20.88-15.22 21.61-14.46C22.37-13.75 22.37-12.56 21.61-11.80L18.07-8.23C17.33-7.49 16.14-7.48 15.41-8.20ZM16.25-9.07C16.55-8.78 16.98-8.70 17.30-9L20.85-12.57C21.16-12.89 21.07-13.32 20.78-13.61C20.46-13.90 20.02-13.93 19.70-13.62L16.25-10.16C15.95-9.86 15.95-9.38 16.25-9.07ZM12.87-7.05C12.54-7.36 12.61-7.79 12.87-8.06C13.14-8.34 13.55-8.37 13.86-8.06L15.22-6.71C15.54-6.41 15.49-5.98 15.22-5.70C14.96-5.44 14.54-5.40 14.21-5.72ZM3.21 3.94C3.88 4.63 4.77 4.63 5.45 3.94L6.06 3.34L3.82 1.10L3.21 1.71C2.52 2.40 2.52 3.28 3.21 3.94Z" fill="currentColor"/>
</svg>