<svg xmlns="http://www.w3.org/2000/svg" viewBox="0 0 24 24" width="24" height="24">
  <title>megaphone.fill</title>
  <path transform="matrix(0.766352342463703, 0, 0, 0.766352342463703, -0.2900763358778624, 18.48405927256399)" d="M26.70 1.90C28.13 1.90 29.09 0.93 29.09-0.48L29.09-18.57C29.09-19.99 28.13-20.96 26.70-20.96C25.29-20.96 24.32-19.99 24.32-18.57L24.32-0.48C24.32 0.93 25.29 1.90 26.70 1.90ZM12.02-3.88C15.34-3.52 19.49-2.54 22.71-0.96L22.71-18.02C19.45-16.43 15.05-15.42 12.02-15.09ZM7.90-3.89L10.42-3.89L10.42-15.09L7.90-15.09C4.70-15.09 2.99-13.43 2.99-10.35L2.99-8.64C2.99-5.57 4.70-3.89 7.90-3.89ZM12.56 4.04C14.02 4.04 15.08 3.02 14.71 1.22L14.05-1.93C13.16-2.09 11.84-2.19 8.87-2.27C8.66-2.27 8.30-2.30 7.92-2.30L9.89 2.00C10.48 3.28 11.20 4.04 12.56 4.04Z" fill="currentColor"/>
</svg>