<svg xmlns="http://www.w3.org/2000/svg" viewBox="0 0 24 24" width="24" height="24">
  <title>microbe.circle.fill</title>
  <path transform="matrix(0.8366013071895425, 0, 0, 0.8366013071895425, 0.2450980392156863, 19.07843137254902)" d="M14.05 3.49C20.65 3.49 26.00-1.88 26.00-8.46C26.00-15.06 20.65-20.41 14.05-20.41C7.46-20.41 2.10-15.06 2.10-8.46C2.10-1.88 7.46 3.49 14.05 3.49ZM14.07-13.72C13.58-13.72 13.22-14.09 13.22-14.60C13.22-15.09 13.58-15.46 14.07-15.46C14.57-15.46 14.93-15.09 14.93-14.60C14.93-14.09 14.57-13.72 14.07-13.72ZM17.14-12.91C16.64-12.91 16.28-13.28 16.28-13.78C16.28-14.27 16.64-14.64 17.14-14.64C17.64-14.64 18-14.27 18-13.78C18-13.28 17.64-12.91 17.14-12.91ZM11.00-12.91C10.51-12.91 10.15-13.28 10.15-13.78C10.15-14.27 10.51-14.64 11.00-14.64C11.51-14.64 11.87-14.27 11.87-13.78C11.87-13.28 11.51-12.91 11.00-12.91ZM14.06-4.29C11.77-4.29 9.89-6.16 9.89-8.46C9.89-10.76 11.77-12.63 14.06-12.63C16.36-12.63 18.23-10.76 18.23-8.46C18.23-6.16 16.36-4.29 14.06-4.29ZM19.39-10.66C18.89-10.66 18.53-11.03 18.53-11.53C18.53-12.02 18.89-12.39 19.39-12.39C19.89-12.39 20.25-12.02 20.25-11.53C20.25-11.03 19.89-10.66 19.39-10.66ZM8.75-10.66C8.26-10.66 7.90-11.03 7.90-11.53C7.90-12.02 8.26-12.39 8.75-12.39C9.26-12.39 9.62-12.02 9.62-11.53C9.62-11.03 9.26-10.66 8.75-10.66ZM20.21-7.61C19.71-7.61 19.35-7.97 19.35-8.46C19.35-8.95 19.71-9.32 20.21-9.32C20.71-9.32 21.07-8.95 21.07-8.46C21.07-7.97 20.71-7.61 20.21-7.61ZM7.93-7.61C7.44-7.61 7.08-7.97 7.08-8.46C7.08-8.95 7.44-9.32 7.93-9.32C8.45-9.32 8.80-8.95 8.80-8.46C8.80-7.97 8.45-7.61 7.93-7.61ZM19.39-4.54C18.89-4.54 18.53-4.90 18.53-5.39C18.53-5.89 18.89-6.26 19.39-6.26C19.89-6.26 20.25-5.89 20.25-5.39C20.25-4.90 19.89-4.54 19.39-4.54ZM8.75-4.54C8.26-4.54 7.90-4.90 7.90-5.39C7.90-5.89 8.26-6.26 8.75-6.26C9.26-6.26 9.62-5.89 9.62-5.39C9.62-4.90 9.26-4.54 8.75-4.54ZM17.14-2.29C16.64-2.29 16.28-2.65 16.28-3.15C16.28-3.66 16.64-4.02 17.14-4.02C17.64-4.02 18-3.66 18-3.15C18-2.65 17.64-2.29 17.14-2.29ZM11.00-2.29C10.51-2.29 10.15-2.65 10.15-3.15C10.15-3.66 10.51-4.02 11.00-4.02C11.51-4.02 11.87-3.66 11.87-3.15C11.87-2.65 11.51-2.29 11.00-2.29ZM14.07-1.48C13.58-1.48 13.22-1.84 13.22-2.33C13.22-2.84 13.58-3.20 14.07-3.20C14.57-3.20 14.93-2.84 14.93-2.33C14.93-1.84 14.57-1.48 14.07-1.48Z" fill="currentColor"/>
</svg>