<svg xmlns="http://www.w3.org/2000/svg" viewBox="0 0 24 24" width="24" height="24">
  <title>millsign.circle</title>
  <path transform="matrix(0.8366013071895425, 0, 0, 0.8366013071895425, 0.2450980392156863, 19.07843137254902)" d="M14.05 3.49C20.65 3.49 26.00-1.86 26.00-8.46C26.00-15.06 20.65-20.41 14.05-20.41C7.45-20.41 2.10-15.06 2.10-8.46C2.10-1.86 7.45 3.49 14.05 3.49ZM14.05 1.50C8.54 1.50 4.09-2.95 4.09-8.46C4.09-13.97 8.54-18.42 14.05-18.42C19.56-18.42 24.01-13.97 24.01-8.46C24.01-2.95 19.56 1.50 14.05 1.50ZM10.69-1.69C10.89-1.69 10.98-1.78 11.07-1.99L13.46-7.45L13.46-5.27C13.46-4.91 13.71-4.64 14.05-4.64C14.43-4.64 14.67-4.91 14.67-5.27L14.67-9.61C14.67-10.46 15.09-11.29 15.98-11.29C16.85-11.29 17.17-10.62 17.17-9.75L17.17-5.27C17.17-4.91 17.41-4.64 17.78-4.64C18.15-4.64 18.40-4.91 18.40-5.27L18.40-10.05C18.40-11.34 17.77-12.40 16.35-12.40C16.07-12.40 15.80-12.35 15.56-12.26L16.61-14.65C16.64-14.72 16.65-14.80 16.65-14.87C16.65-15.09 16.50-15.23 16.28-15.23C16.08-15.23 15.97-15.11 15.89-14.93L14.30-11.29C14.04-12.01 13.48-12.40 12.64-12.40C11.73-12.40 11.16-11.82 10.96-10.99L10.91-10.99L10.91-11.77C10.91-12.14 10.69-12.39 10.32-12.39C9.96-12.39 9.74-12.14 9.74-11.77L9.74-5.27C9.74-4.92 9.95-4.64 10.35-4.64C10.76-4.64 10.97-4.92 10.97-5.27L10.97-9.53C10.97-10.42 11.38-11.29 12.29-11.29C13.13-11.29 13.46-10.65 13.46-9.86L13.46-9.36L10.36-2.27C10.32-2.19 10.31-2.12 10.31-2.04C10.31-1.83 10.46-1.69 10.69-1.69Z" fill="currentColor"/>
</svg>