<svg xmlns="http://www.w3.org/2000/svg" viewBox="0 0 24 24" width="24" height="24">
  <title>minus.plus.batteryblock</title>
  <path transform="matrix(0.7237772123268307, 0, 0, 0.7237772123268307, -0.16284987277353702, 18.11535199321459)" d="M6.67 1.59L26.94 1.59C29.40 1.59 30.62 0.38 30.62-2.04L30.62-11.87C30.62-14.27 29.40-15.49 26.94-15.49L25.64-15.49L25.64-17.06C25.64-17.95 25.13-18.49 24.22-18.49L21.88-18.49C20.99-18.49 20.47-17.95 20.47-17.06L20.47-15.49L13.15-15.49L13.15-17.06C13.15-17.95 12.63-18.49 11.73-18.49L9.39-18.49C8.48-18.49 7.97-17.95 7.97-17.06L7.97-15.49L6.67-15.49C4.22-15.49 2.99-14.29 2.99-11.87L2.99-2.04C2.99 0.39 4.22 1.59 6.67 1.59ZM4.88-2.13L4.88-11.77C4.88-12.98 5.52-13.61 6.69-13.61L26.92-13.61C28.08-13.61 28.73-12.98 28.73-11.77L28.73-2.13C28.73-0.93 28.08-0.29 26.92-0.29L6.69-0.29C5.52-0.29 4.88-0.93 4.88-2.13ZM22.17-3.43C22.65-3.43 23.03-3.81 23.03-4.29L23.03-6.11L24.84-6.11C25.32-6.11 25.71-6.48 25.71-6.96C25.71-7.45 25.32-7.83 24.84-7.83L23.03-7.83L23.03-9.64C23.03-10.13 22.65-10.51 22.17-10.51C21.69-10.51 21.30-10.13 21.30-9.64L21.30-7.83L19.49-7.83C19.01-7.83 18.63-7.45 18.63-6.96C18.63-6.48 19.01-6.11 19.49-6.11L21.30-6.11L21.30-4.29C21.30-3.81 21.69-3.43 22.17-3.43ZM8.98-6.11L13.86-6.11C14.34-6.11 14.72-6.48 14.72-6.96C14.72-7.45 14.34-7.83 13.86-7.83L8.98-7.83C8.50-7.83 8.11-7.45 8.11-6.96C8.11-6.48 8.50-6.11 8.98-6.11Z" fill="currentColor"/>
</svg>