<svg xmlns="http://www.w3.org/2000/svg" viewBox="0 0 24 24" width="24" height="24">
  <title>minus.plus.batteryblock.stack.arrowtriangle.right.and.arrowtriangle.left</title>
  <path transform="matrix(0.360912112478363, 0, 0, 0.360912112478363, 0.9225707882485881, 15.095949214853459)" d="M17.73-2.13L37.66-2.13C40.51-2.13 41.33-2.94 41.33-5.77L41.33-15.23C41.33-17.65 40.09-18.87 37.65-18.87L36.62-18.87L36.62-20.18C36.62-20.98 36.16-21.45 35.37-21.45L32.93-21.45C32.13-21.45 31.68-20.98 31.68-20.18L31.68-18.87L23.72-18.87L23.72-20.18C23.72-20.98 23.25-21.45 22.45-21.45L20.02-21.45C19.22-21.45 18.76-20.98 18.76-20.18L18.76-18.87L17.73-18.87C15.28-18.87 14.05-17.65 14.05-15.23L14.05-5.77C14.05-3.34 15.28-2.13 17.73-2.13ZM17.75-4.02C16.58-4.02 15.94-4.65 15.94-5.86L15.94-15.14C15.94-16.35 16.59-16.98 17.75-16.98L37.62-16.98C38.78-16.98 39.43-16.35 39.43-15.14L39.43-5.86C39.43-4.44 39.04-4.02 37.63-4.02ZM19.29 1.30L42.96 1.30C44.10 1.30 44.78 0.70 44.78-0.35L44.78-12.61C44.78-13.44 44.34-14.13 43.10-14.16L43.10-0.97C43.10-0.56 42.88-0.36 42.48-0.36L17.57-0.36C17.59 0.97 18.38 1.30 19.29 1.30ZM33.48-7.38C33.91-7.38 34.25-7.72 34.25-8.16L34.25-9.75L35.86-9.75C36.28-9.75 36.62-10.10 36.62-10.54C36.62-10.96 36.28-11.30 35.86-11.30L34.25-11.30L34.25-12.90C34.25-13.34 33.91-13.66 33.48-13.66C33.05-13.66 32.72-13.34 32.72-12.90L32.72-11.30L31.10-11.30C30.68-11.30 30.33-10.96 30.33-10.54C30.33-10.10 30.68-9.75 31.10-9.75L32.72-9.75L32.72-8.16C32.72-7.72 33.05-7.38 33.48-7.38ZM3.33-7.84C2.88-7.58 2.86-6.96 3.33-6.69L9.35-3.14C9.84-2.85 10.42-3.08 10.42-3.59L10.42-10.97C10.42-11.46 9.81-11.68 9.35-11.41ZM58.07-7.84L52.04-11.41C51.57-11.68 50.98-11.46 50.98-10.97L50.98-3.59C50.98-3.08 51.54-2.85 52.04-3.14L58.07-6.69C58.52-6.96 58.50-7.58 58.07-7.84ZM19.79-9.75L24.01-9.75C24.43-9.75 24.79-10.10 24.79-10.54C24.79-10.96 24.43-11.30 24.01-11.30L19.79-11.30C19.36-11.30 19.03-10.96 19.03-10.54C19.03-10.10 19.36-9.75 19.79-9.75ZM23.04 4.29L45.96 4.29C47.10 4.29 47.78 3.69 47.78 2.64L47.78-8.39C47.78-9.33 47.21-9.89 46.24-9.95L46.24 2.16C46.24 2.57 46.02 2.77 45.62 2.77L21.33 2.77C21.34 4.02 22.25 4.29 23.04 4.29Z" fill="currentColor"/>
</svg>