<svg xmlns="http://www.w3.org/2000/svg" viewBox="0 0 24 24" width="24" height="24">
  <title>moon.haze.circle</title>
  <path transform="matrix(0.8366013071895425, 0, 0, 0.8366013071895425, 0.2450980392156863, 19.07843137254902)" d="M14.05 3.49C20.65 3.49 26.00-1.86 26.00-8.46C26.00-15.06 20.65-20.41 14.05-20.41C7.45-20.41 2.10-15.06 2.10-8.46C2.10-1.86 7.45 3.49 14.05 3.49ZM14.05 1.50C8.54 1.50 4.09-2.95 4.09-8.46C4.09-13.97 8.54-18.42 14.05-18.42C19.56-18.42 24.01-13.97 24.01-8.46C24.01-2.95 19.56 1.50 14.05 1.50ZM10.07-7.43L18.41-7.43C18.64-7.71 18.81-8.02 18.96-8.36C19.07-8.61 19.04-8.84 18.90-8.99C18.79-9.09 18.60-9.12 18.36-9.04C17.92-8.85 17.37-8.77 16.73-8.77C14.13-8.77 12.48-10.37 12.48-12.91C12.48-13.58 12.59-14.30 12.79-14.67C12.91-14.92 12.89-15.13 12.79-15.28C12.66-15.43 12.41-15.47 12.13-15.35C10.31-14.60 9.08-12.71 9.08-10.52C9.08-9.34 9.45-8.29 10.07-7.43ZM8.30-5.75L20.88-5.75C21.12-5.75 21.29-5.93 21.29-6.16C21.29-6.41 21.12-6.59 20.88-6.59L8.30-6.59C8.06-6.59 7.89-6.40 7.89-6.16C7.89-5.93 8.06-5.75 8.30-5.75ZM7.21-4.15L19.78-4.15C20.02-4.15 20.19-4.32 20.19-4.56C20.19-4.80 20.02-4.98 19.78-4.98L7.21-4.98C6.97-4.98 6.79-4.79 6.79-4.56C6.79-4.32 6.97-4.15 7.21-4.15ZM8.30-2.54L20.88-2.54C21.12-2.54 21.29-2.72 21.29-2.95C21.29-3.20 21.12-3.38 20.88-3.38L8.30-3.38C8.06-3.38 7.89-3.19 7.89-2.95C7.89-2.72 8.06-2.54 8.30-2.54Z" fill="currentColor"/>
</svg>