<svg xmlns="http://www.w3.org/2000/svg" viewBox="0 0 24 24" width="24" height="24">
  <title>moon.stars.circle.fill</title>
  <path transform="matrix(0.8366013071895425, 0, 0, 0.8366013071895425, 0.2450980392156863, 19.068627450980394)" d="M14.05 3.50C20.65 3.50 26.00-1.85 26.00-8.45C26.00-15.04 20.65-20.40 14.05-20.40C7.46-20.40 2.10-15.04 2.10-8.45C2.10-1.85 7.46 3.50 14.05 3.50ZM17.48-9.15C17.34-9.15 17.24-9.27 17.21-9.41C16.95-11.55 16.84-11.59 14.60-12.01C14.45-12.02 14.36-12.13 14.36-12.29C14.36-12.43 14.45-12.54 14.60-12.55C16.84-12.87 16.91-12.98 17.21-15.15C17.24-15.30 17.34-15.41 17.48-15.41C17.63-15.41 17.73-15.30 17.75-15.15C18.07-13.02 18.15-12.98 20.37-12.55C20.51-12.54 20.61-12.43 20.61-12.29C20.61-12.12 20.51-12.02 20.34-12.01C18.14-11.68 18.02-11.58 17.75-9.41C17.73-9.27 17.63-9.15 17.48-9.15ZM13.88-1.45C10.16-1.45 7.32-4.11 7.32-7.84C7.32-10.49 8.89-13.02 11.24-13.95C11.77-14.16 12.08-13.82 11.88-13.37C11.70-12.82 11.50-11.84 11.50-11.12C11.50-7.69 13.70-5.53 17.12-5.53C17.89-5.53 18.70-5.70 19.18-5.86C19.68-6.02 19.95-5.65 19.73-5.17C18.94-3.12 16.59-1.45 13.88-1.45Z" fill="currentColor"/>
</svg>