<svg xmlns="http://www.w3.org/2000/svg" viewBox="0 0 24 24" width="24" height="24">
  <title>music.note.square.stack</title>
  <path transform="matrix(0.7353152376849059, 0, 0, 0.7353152376849059, 2.24558380008617, 18.208530805687204)" d="M7.58-20.53L18.95-20.53C18.88-21.53 18.30-22.04 17.23-22.04L9.29-22.04C8.21-22.04 7.65-21.53 7.58-20.53ZM5.54-17.29L20.98-17.29C20.80-18.35 20.30-18.94 19.13-18.94L7.39-18.94C6.22-18.94 5.72-18.35 5.54-17.29ZM6.67 5.16L20.21 5.16C22.31 5.16 23.54 3.94 23.54 1.52L23.54-11.77C23.54-14.18 22.30-15.40 19.86-15.40L6.67-15.40C4.22-15.40 2.99-14.19 2.99-11.77L2.99 1.52C2.99 3.94 4.22 5.16 6.67 5.16ZM6.69 3.27C5.52 3.27 4.88 2.64 4.88 1.42L4.88-11.67C4.88-12.88 5.52-13.51 6.69-13.51L19.83-13.51C20.99-13.51 21.66-12.88 21.66-11.67L21.66 1.42C21.66 2.64 20.99 3.27 20.18 3.27ZM17.06-7.42C17.66-7.55 17.85-7.70 17.85-8.41L17.85-10.86C17.85-11.34 17.67-11.57 17.02-11.39L13.36-10.49C12.74-10.34 12.62-10.21 12.62-9.47L12.62-3.82C12.62-3.27 12.57-3.16 11.94-2.99L10.78-2.68C9.64-2.40 8.70-1.72 8.70-0.50C8.70 0.56 9.50 1.34 10.76 1.34C12.54 1.34 13.75 0.05 13.75-1.75L13.75-6.07C13.75-6.53 13.85-6.64 14.13-6.70Z" fill="currentColor"/>
</svg>