<svg xmlns="http://www.w3.org/2000/svg" viewBox="0 0 24 24" width="24" height="24">
  <title>nairasign</title>
  <path transform="matrix(0.9250225835591689, 0, 0, 0.9250225835591689, 0.9430894308943087, 19.831978319783197)" d="M6.11 2.34C6.82 2.34 7.27 1.88 7.27 1.15L7.27-7.68L11.17-7.68L15.68 1.18C16.00 1.83 16.52 2.34 17.39 2.34C18.36 2.34 18.96 1.72 18.96 0.82L18.96-7.68L20.16-7.68C20.58-7.68 20.92-8.02 20.92-8.44C20.92-8.86 20.58-9.20 20.16-9.20L18.96-9.20L18.96-18.11C18.96-18.83 18.52-19.28 17.81-19.28C17.10-19.28 16.66-18.83 16.66-18.11L16.66-9.20L12.79-9.20L8.25-18.11C7.88-18.86 7.36-19.28 6.52-19.28C5.61-19.28 4.97-18.69 4.97-17.75L4.97-9.20L3.75-9.20C3.33-9.20 2.99-8.86 2.99-8.44C2.99-8.02 3.33-7.68 3.75-7.68L4.97-7.68L4.97 1.15C4.97 1.88 5.40 2.34 6.11 2.34ZM7.27-15.07L7.39-15.07L10.38-9.20L7.27-9.20ZM16.54-1.84L13.56-7.68L16.66-7.68L16.66-1.84Z" fill="currentColor"/>
</svg>