<svg xmlns="http://www.w3.org/2000/svg" viewBox="0 0 24 24" width="24" height="24">
  <title>oilcan.fill</title>
  <path transform="matrix(0.4831831444010501, 0, 0, 0.4831831444010501, 0.5568605330455847, 16.08818238583076)" d="M3.66-11.04L9.67-1.79C10.38-0.70 11.34-0.32 12.79-0.32L22.91-0.32C24.69-0.32 25.84-0.77 26.66-1.80L34.55-11.92L39.09-13.11L40.71-11.73C41.67-10.90 42.93-12.13 41.95-13.00L40.18-14.54C39.81-14.87 39.47-15 38.72-14.80L24.57-11.04L22.65-12.90C22.13-13.41 21.56-13.54 20.85-13.54L17.75-13.54L17.75-15.98L20.37-15.98C20.84-15.98 21.23-16.37 21.23-16.84C21.23-17.31 20.84-17.70 20.37-17.70L13.44-17.70C12.97-17.70 12.57-17.31 12.57-16.84C12.57-16.37 12.97-15.98 13.44-15.98L16.04-15.98L16.04-13.54L12.79-13.54C12.45-13.54 12.14-13.51 11.86-13.45L6.67-15.41C3.88-16.46 1.89-13.72 3.66-11.04ZM4.79-12.36C4.21-13.29 4.89-14.24 5.92-13.86L9.87-12.34C9.46-11.78 9.23-11.00 9.23-10.02L9.23-5.53ZM41.48 0.77C43.07 0.77 44.38-0.48 44.38-2.07C44.38-2.98 43.93-3.83 43.49-4.65L41.75-7.88C41.70-7.99 41.59-8.05 41.48-8.05C41.36-8.05 41.29-7.99 41.23-7.86L39.47-4.65C39.04-3.83 38.59-2.98 38.59-2.07C38.59-0.48 39.89 0.77 41.48 0.77Z" fill="currentColor"/>
</svg>