<svg xmlns="http://www.w3.org/2000/svg" viewBox="0 0 24 24" width="24" height="24">
  <title>paddleshifter.left.fill</title>
  <path transform="matrix(0.6433122746164014, 0, 0, 0.6433122746164014, 4.355640861784792, 17.466269002508064)" d="M2.99-5.94C2.99-1.63 3.87 1.76 5.92 5.14C7.07 7.00 9.01 7.55 11.02 6.57L13.34 5.45C15.43 4.44 16.43 3.11 16.43 1.28C16.43 0.46 16.14-0.18 16.14-0.71C16.14-1.35 16.57-1.73 17.32-1.73L19.50-1.73C20.24-1.73 20.78-2.34 20.78-3.14L20.78-5.95C20.78-6.84 20.16-7.49 19.31-7.49L16.43-7.49C15.30-7.49 14.77-8.13 14.77-9.20C14.77-11.81 15.23-14.85 17.07-19.03C17.95-21.04 17.33-22.49 15.22-23.32L14.07-23.77C12.29-24.47 10.76-23.73 9.71-22.65C4.91-17.60 2.99-10.83 2.99-5.94Z" fill="currentColor"/>
</svg>