<svg xmlns="http://www.w3.org/2000/svg" viewBox="0 0 24 24" width="24" height="24">
  <title>paintbrush.pointed</title>
  <path transform="matrix(0.77522420048733, 0, 0, 0.77522420048733, -0.09091817621368747, 18.464017696612625)" d="M3.06 0.83C5.24 3.77 9.81 4.57 12.64 2.46C14.24 1.28 15.01-0.35 14.84-2.00C15.96-2.20 16.96-2.82 18.05-3.93C21.81-7.68 27.55-16.08 28.05-16.78C29.53-18.83 27-21.34 24.94-19.90C24.25-19.41 15.83-13.68 12.08-9.89C10.99-8.79 10.36-7.79 10.15-6.67C9.30-6.70 8.45-6.43 7.69-5.86C5.86-4.49 6.50-2.52 5.48-1.76C4.59-1.09 3.76-1.46 3.12-0.97C2.65-0.60 2.50 0.08 3.06 0.83ZM25.84-18.23C26.24-18.53 26.68-18.11 26.38-17.67C26.11-17.27 21.43-10.45 17.84-6.45C17.30-7.88 16.03-9.15 14.61-9.69C18.66-13.28 25.38-17.91 25.84-18.23ZM13.79-4.52C13.25-5.25 12.63-5.80 11.98-6.15C12.07-6.89 12.48-7.62 13.28-8.43C14.67-8.26 16.41-6.53 16.58-5.12C15.70-4.28 15.01-3.91 14.25-3.82C14.12-4.05 13.97-4.29 13.79-4.52ZM5.45 0.64C5.30 0.48 5.31 0.32 5.41 0.21C5.58 0.06 6.23 0.01 6.74-0.49C7.88-1.62 7.49-3.27 8.80-4.29C9.89-5.16 11.40-4.84 12.42-3.53C13.57-2.04 13.17-0.22 11.59 1.00C9.82 2.39 7.09 2.38 5.45 0.64Z" fill="currentColor"/>
</svg>