<svg xmlns="http://www.w3.org/2000/svg" viewBox="0 0 24 24" width="24" height="24">
  <title>peacesign</title>
  <path transform="matrix(0.8366013071895425, 0, 0, 0.8366013071895425, 0.2450980392156863, 19.07843137254902)" d="M14.05 3.49C20.65 3.49 26.00-1.86 26.00-8.46C26.00-15.06 20.65-20.41 14.05-20.41C7.45-20.41 2.10-15.06 2.10-8.46C2.10-1.86 7.45 3.49 14.05 3.49ZM4.09-8.46C4.09-13.65 8.05-17.91 13.11-18.38L13.11-9.08L6.04-2.54C4.80-4.21 4.09-6.25 4.09-8.46ZM15-9.05L15-18.38C20.06-17.91 24.01-13.65 24.01-8.46C24.01-6.25 23.29-4.20 22.07-2.53ZM13.11-6.43L13.11 1.45C10.88 1.24 8.86 0.30 7.30-1.14ZM15-6.40L20.79-1.13C19.24 0.30 17.23 1.24 15 1.45Z" fill="currentColor"/>
</svg>