<svg xmlns="http://www.w3.org/2000/svg" viewBox="0 0 24 24" width="24" height="24">
  <title>person.line.dotted.person</title>
  <path transform="matrix(0.4808866347327886, 0, 0, 0.4808866347327886, 0.5629754860524092, 16.068751761059453)" d="M11.67-8.46C14.13-8.46 16.17-10.65 16.17-13.34C16.17-15.98 14.16-18.08 11.67-18.08C9.20-18.08 7.18-15.95 7.18-13.32C7.18-10.64 9.21-8.46 11.67-8.46ZM35.92-8.40C38.38-8.40 40.41-10.59 40.41-13.28C40.41-15.93 38.40-18.02 35.92-18.02C33.45-18.02 31.42-15.89 31.42-13.27C31.42-10.58 33.45-8.40 35.92-8.40ZM11.67-10.23C10.24-10.23 9.06-11.57 9.06-13.32C9.06-15.02 10.22-16.31 11.67-16.31C13.13-16.31 14.30-15.05 14.30-13.34C14.30-11.59 13.11-10.23 11.67-10.23ZM35.92-10.17C34.48-10.17 33.29-11.51 33.29-13.27C33.29-14.96 34.46-16.25 35.92-16.25C37.36-16.25 38.53-14.99 38.53-13.28C38.53-11.53 37.36-10.17 35.92-10.17ZM19.90-8.36C20.45-8.36 20.91-8.81 20.91-9.36C20.91-9.91 20.45-10.37 19.90-10.37C19.35-10.37 18.89-9.91 18.89-9.36C18.89-8.81 19.35-8.36 19.90-8.36ZM23.79-8.36C24.34-8.36 24.80-8.81 24.80-9.36C24.80-9.91 24.34-10.37 23.79-10.37C23.24-10.37 22.78-9.91 22.78-9.36C22.78-8.81 23.24-8.36 23.79-8.36ZM27.66-8.36C28.21-8.36 28.66-8.81 28.66-9.36C28.66-9.91 28.21-10.37 27.66-10.37C27.11-10.37 26.65-9.91 26.65-9.36C26.65-8.81 27.11-8.36 27.66-8.36ZM5.57 1.10L17.77 1.10C19.46 1.10 20.34 0.55 20.34-0.64C20.34-3.34 17.21-7.25 11.66-7.25C6.12-7.25 2.99-3.34 2.99-0.64C2.99 0.55 3.86 1.10 5.57 1.10ZM29.81 1.16L42 1.16C43.71 1.16 44.58 0.61 44.58-0.59C44.58-3.28 41.46-7.20 35.91-7.20C30.35-7.20 27.23-3.28 27.23-0.59C27.23 0.61 28.10 1.16 29.81 1.16ZM5.11-0.67C4.93-0.67 4.86-0.74 4.86-0.88C4.86-2.43 7.08-5.48 11.66-5.48C16.24-5.48 18.46-2.43 18.46-0.88C18.46-0.74 18.39-0.67 18.22-0.67ZM29.36-0.61C29.18-0.61 29.11-0.68 29.11-0.82C29.11-2.37 31.32-5.43 35.91-5.43C40.49-5.43 42.70-2.37 42.70-0.82C42.70-0.68 42.63-0.61 42.46-0.61Z" fill="currentColor"/>
</svg>