<svg xmlns="http://www.w3.org/2000/svg" viewBox="0 0 24 24" width="24" height="24">
  <title>pesetasign.circle.fill</title>
  <path transform="matrix(0.8366013071895425, 0, 0, 0.8366013071895425, 0.2450980392156863, 19.07843137254902)" d="M14.05 3.49C20.65 3.49 26.00-1.88 26.00-8.46C26.00-15.06 20.65-20.41 14.05-20.41C7.46-20.41 2.10-15.06 2.10-8.46C2.10-1.88 7.46 3.49 14.05 3.49ZM11.63-2.91C11.18-2.91 10.91-3.18 10.91-3.63L10.91-10.07L10.14-10.07C9.90-10.07 9.71-10.24 9.71-10.48C9.71-10.70 9.90-10.89 10.14-10.89L10.91-10.89L10.91-13.18C10.91-13.64 11.18-13.92 11.64-13.92L14.58-13.92C16.49-13.92 17.89-12.76 18.09-10.89L18.68-10.89C18.93-10.89 19.11-10.70 19.11-10.48C19.11-10.25 18.93-10.07 18.68-10.07L18.12-10.07C17.96-8.14 16.55-6.88 14.55-6.88L12.34-6.88L12.34-3.63C12.34-3.18 12.06-2.91 11.63-2.91ZM12.34-10.89L16.63-10.89C16.45-12.13 15.53-12.74 14.21-12.74L12.34-12.74ZM12.34-8.05L14.19-8.05C15.62-8.05 16.52-8.75 16.64-10.07L12.34-10.07Z" fill="currentColor"/>
</svg>