<svg xmlns="http://www.w3.org/2000/svg" viewBox="0 0 24 24" width="24" height="24">
  <title>pesetasign.arrow.trianglehead.counterclockwise.rotate.90</title>
  <path transform="matrix(0.7639049222296993, 0, 0, 0.7639049222296993, 2.1354880184253604, 18.463351802927846)" d="M0.66-10.72C-0.19-10.72-0.40-10.15 0.06-9.49L2.68-5.77C3.07-5.23 3.63-5.24 4.01-5.77L6.62-9.50C7.08-10.15 6.86-10.72 6.04-10.72L4.35-10.72C5.37-15.14 9.32-18.42 14.05-18.42C19.56-18.42 24.01-13.97 24.01-8.46C24.01-2.95 19.56 1.50 14.05 1.50C10.71 1.50 7.77-0.14 5.99-2.63C5.63-3.11 5.07-3.26 4.58-2.96C4.11-2.67 3.97-2.00 4.37-1.49C6.55 1.54 10.03 3.49 14.05 3.49C20.65 3.49 26.00-1.86 26.00-8.46C26.00-15.06 20.65-20.41 14.05-20.41C8.23-20.41 3.38-16.25 2.31-10.72ZM11.71-3.08C12.13-3.08 12.40-3.34 12.40-3.77L12.40-6.93L14.54-6.93C16.48-6.93 17.85-8.16 17.99-10.02L18.55-10.02C18.79-10.02 18.96-10.20 18.96-10.42C18.96-10.63 18.79-10.80 18.55-10.80L17.98-10.80C17.79-12.62 16.41-13.75 14.57-13.75L11.72-13.75C11.29-13.75 11.02-13.48 11.02-13.04L11.02-10.80L10.27-10.80C10.04-10.80 9.87-10.63 9.87-10.42C9.87-10.18 10.04-10.02 10.27-10.02L11.02-10.02L11.02-3.77C11.02-3.34 11.29-3.08 11.71-3.08ZM12.40-12.61L14.21-12.61C15.48-12.61 16.39-12.02 16.57-10.80L12.40-10.80ZM12.40-8.06L12.40-10.02L16.58-10.02C16.46-8.73 15.59-8.06 14.20-8.06Z" fill="currentColor"/>
</svg>