<svg xmlns="http://www.w3.org/2000/svg" viewBox="0 0 24 24" width="24" height="24">
  <title>phone.arrow.right.fill</title>
  <path transform="matrix(0.7465733449985419, 0, 0, 0.7465733449985419, 2.4505686789151353, 18.316710411198603)" d="M2.10-8.46C2.10-4.35 2.92 0.84 5.52 3.38C6.50 4.35 7.75 4.93 9.29 4.93C10.37 4.93 11.94 4.59 12.06 3.35C12.15 3.01 12.12 2.68 12.05 2.26L11.47-1.20C11.27-2.39 10.83-2.95 9.68-3.27L7.62-3.84C7.21-3.96 7.05-4.08 6.87-4.58C6.53-5.52 6.34-7.07 6.34-8.46C6.34-9.86 6.53-11.40 6.87-12.34C7.05-12.84 7.21-12.96 7.62-13.08L9.68-13.65C10.83-13.98 11.27-14.53 11.47-15.73L12.05-19.18C12.12-19.61 12.15-19.93 12.06-20.27C11.94-21.53 10.37-21.86 9.29-21.86C7.75-21.86 6.50-21.27 5.52-20.31C2.92-17.77 2.10-12.57 2.10-8.46ZM11.37-8.46C11.37-8.03 11.70-7.63 12.22-7.63L18.67-7.63L20.99-7.75L18.42-5.45L17.19-4.22C17.03-4.05 16.95-3.83 16.95-3.59C16.95-3.11 17.29-2.78 17.74-2.78C17.99-2.78 18.20-2.87 18.36-3.04L23.18-7.84C23.38-8.04 23.48-8.26 23.48-8.46C23.48-8.66 23.38-8.89 23.18-9.09L18.36-13.89C18.20-14.05 17.99-14.14 17.74-14.14C17.29-14.14 16.95-13.82 16.95-13.35C16.95-13.09 17.03-12.88 17.19-12.71L18.42-11.47L20.99-9.19L18.67-9.30L12.22-9.30C11.70-9.30 11.37-8.89 11.37-8.46Z" fill="currentColor"/>
</svg>