<svg xmlns="http://www.w3.org/2000/svg" viewBox="0 0 24 24" width="24" height="24">
  <title>polishzlotysign</title>
  <path transform="matrix(0.8672086720867209, 0, 0, 0.8672086720867209, 0.968495934959348, 19.337398373983742)" d="M17.12-7.44L17.85-7.83L17.85 1.88C17.85 2.57 18.32 3.07 18.97 3.07C19.63 3.07 20.10 2.57 20.10 1.88L20.10-9.05L21.81-9.97C22.28-10.21 22.45-10.56 22.45-10.88C22.45-11.48 21.81-12.01 21.07-11.63L20.10-11.11L20.10-18.81C20.10-19.50 19.63-19.99 18.97-19.99C18.32-19.99 17.85-19.50 17.85-18.81L17.85-9.90L16.25-9.05C15.84-8.82 15.64-8.47 15.64-8.14C15.64-7.52 16.28-7.00 17.12-7.44ZM4.11 2.79L13.17 2.79C13.77 2.79 14.13 2.41 14.13 1.85C14.13 1.29 13.77 0.94 13.17 0.94L5.74 0.94L5.74 0.69L13.63-10.95C13.92-11.38 14.07-11.66 14.07-12.15C14.07-12.98 13.50-13.32 12.84-13.32L3.94-13.32C3.38-13.32 2.99-12.93 2.99-12.39C2.99-11.85 3.38-11.46 3.94-11.46L11.40-11.46L11.40-11.20L3.33 0.66C3.11 0.98 2.99 1.27 2.99 1.68C2.99 2.32 3.45 2.79 4.11 2.79Z" fill="currentColor"/>
</svg>