<svg xmlns="http://www.w3.org/2000/svg" viewBox="0 0 24 24" width="24" height="24">
  <title>poweroutlet.type.h.fill</title>
  <path transform="matrix(0.8366013071895425, 0, 0, 0.8366013071895425, 0.2450980392156863, 19.07843137254902)" d="M14.05 3.49C20.65 3.49 26.00-1.88 26.00-8.46C26.00-15.06 20.65-20.41 14.05-20.41C7.46-20.41 2.10-15.06 2.10-8.46C2.10-1.88 7.46 3.49 14.05 3.49ZM8.82-6.82C7.56-6.82 6.55-7.85 6.55-9.11C6.55-10.37 7.56-11.39 8.82-11.39C10.09-11.39 11.11-10.37 11.11-9.11C11.11-7.85 10.09-6.82 8.82-6.82ZM19.28-6.82C18.01-6.82 16.99-7.85 16.99-9.11C16.99-10.37 18.01-11.39 19.28-11.39C20.54-11.39 21.55-10.37 21.55-9.11C21.55-7.85 20.54-6.82 19.28-6.82ZM14.05-1.20C12.80-1.20 11.77-2.20 11.77-3.47C11.77-4.73 12.80-5.75 14.05-5.75C15.30-5.75 16.34-4.73 16.34-3.47C16.34-2.20 15.30-1.20 14.05-1.20Z" fill="currentColor"/>
</svg>