<svg xmlns="http://www.w3.org/2000/svg" viewBox="0 0 24 24" width="24" height="24">
  <title>questionmark.square.dashed</title>
  <path transform="matrix(0.9270324099221438, 0, 0, 0.9270324099221438, -0.7702335687126562, 19.827267789244974)" d="M2.99-13.05L4.88-13.05L4.88-15.50C4.88-16.72 5.52-17.34 6.69-17.34L9.12-17.34L9.12-19.23L6.67-19.23C4.22-19.23 2.99-18.02 2.99-15.60ZM10.72-17.34L16.83-17.34L16.83-19.23L10.72-19.23ZM22.68-13.05L24.56-13.05L24.56-15.60C24.56-18.01 23.33-19.23 20.88-19.23L18.43-19.23L18.43-17.34L20.86-17.34C22.02-17.34 22.68-16.72 22.68-15.50ZM13.55-6.04C14.14-6.04 14.50-6.41 14.50-6.87L14.50-7.01C14.50-7.66 14.88-8.09 15.69-8.63C16.83-9.38 17.64-10.05 17.64-11.46C17.64-13.41 15.90-14.46 13.91-14.46C11.91-14.46 10.58-13.50 10.25-12.42C10.20-12.23 10.16-12.05 10.16-11.85C10.16-11.32 10.57-11.04 10.96-11.04C11.37-11.04 11.61-11.23 11.82-11.51L12.04-11.79C12.45-12.47 13.07-12.87 13.84-12.87C14.91-12.87 15.60-12.26 15.60-11.37C15.60-10.57 15.11-10.18 14.09-9.47C13.24-8.88 12.61-8.26 12.61-7.11L12.61-6.96C12.61-6.35 12.95-6.04 13.55-6.04ZM22.68-5.44L24.56-5.44L24.56-11.45L22.68-11.45ZM2.99-5.44L4.88-5.44L4.88-11.45L2.99-11.45ZM13.52-2.54C14.20-2.54 14.79-3.08 14.79-3.76C14.79-4.44 14.21-4.98 13.52-4.98C12.83-4.98 12.26-4.43 12.26-3.76C12.26-3.09 12.84-2.54 13.52-2.54ZM18.43 2.34L20.88 2.34C23.33 2.34 24.56 1.13 24.56-1.29L24.56-3.83L22.68-3.83L22.68-1.38C22.68-0.16 22.02 0.46 20.86 0.46L18.43 0.46ZM6.67 2.34L9.12 2.34L9.12 0.46L6.69 0.46C5.52 0.46 4.88-0.16 4.88-1.38L4.88-3.83L2.99-3.83L2.99-1.29C2.99 1.14 4.22 2.34 6.67 2.34ZM10.72 2.34L16.83 2.34L16.83 0.46L10.72 0.46Z" fill="currentColor"/>
</svg>