<svg xmlns="http://www.w3.org/2000/svg" viewBox="0 0 24 24" width="24" height="24">
  <title>questionmark.circle</title>
  <path transform="matrix(0.8366013071895425, 0, 0, 0.8366013071895425, 0.2450980392156863, 19.07843137254902)" d="M14.05 3.49C20.65 3.49 26.00-1.86 26.00-8.46C26.00-15.06 20.65-20.41 14.05-20.41C7.45-20.41 2.10-15.06 2.10-8.46C2.10-1.86 7.45 3.49 14.05 3.49ZM14.05 1.50C8.54 1.50 4.09-2.95 4.09-8.46C4.09-13.97 8.54-18.42 14.05-18.42C19.56-18.42 24.01-13.97 24.01-8.46C24.01-2.95 19.56 1.50 14.05 1.50ZM13.80-6.04C14.39-6.04 14.75-6.41 14.75-6.87L14.75-7.01C14.75-7.66 15.13-8.09 15.95-8.63C17.09-9.38 17.89-10.05 17.89-11.46C17.89-13.41 16.16-14.46 14.17-14.46C12.15-14.46 10.83-13.50 10.51-12.42C10.45-12.23 10.42-12.05 10.42-11.85C10.42-11.32 10.83-11.04 11.21-11.04C11.61-11.04 11.87-11.23 12.08-11.51L12.29-11.79C12.70-12.47 13.31-12.87 14.10-12.87C15.16-12.87 15.86-12.26 15.86-11.37C15.86-10.57 15.36-10.18 14.34-9.47C13.50-8.88 12.87-8.26 12.87-7.11L12.87-6.96C12.87-6.35 13.21-6.04 13.80-6.04ZM13.78-2.54C14.46-2.54 15.05-3.08 15.05-3.76C15.05-4.44 14.47-4.98 13.78-4.98C13.09-4.98 12.52-4.43 12.52-3.76C12.52-3.09 13.10-2.54 13.78-2.54Z" fill="currentColor"/>
</svg>