<svg xmlns="http://www.w3.org/2000/svg" viewBox="0 0 24 24" width="24" height="24">
  <title>quote.bubble.fill</title>
  <path transform="matrix(0.7743496672716274, 0, 0, 0.7743496672716274, -0.31397459165154284, 17.939201451905625)" d="M9.95 4.49C10.41 4.49 10.75 4.25 11.30 3.74L15.53-0.13L23.45-0.13C26.94-0.13 28.82-2.05 28.82-5.48L28.82-14.46C28.82-17.89 26.94-19.83 23.45-19.83L8.36-19.83C4.86-19.83 2.99-17.91 2.99-14.46L2.99-5.48C2.99-2.04 4.86-0.13 8.36-0.13L8.91-0.13L8.91 3.28C8.91 4.01 9.28 4.49 9.95 4.49ZM10.07-11.25C10.07-12.69 11.16-13.70 12.61-13.70C14.18-13.70 15.23-12.45 15.23-10.80C15.23-7.73 12.79-6.28 11.57-6.28C11.23-6.28 10.97-6.54 10.97-6.84C10.97-7.14 11.10-7.32 11.55-7.44C12.34-7.65 13.27-8.30 13.71-9.29L13.62-9.29C13.30-8.89 12.80-8.81 12.29-8.81C10.92-8.81 10.07-9.88 10.07-11.25ZM16.59-11.25C16.59-12.69 17.67-13.70 19.13-13.70C20.70-13.70 21.76-12.45 21.76-10.80C21.76-7.73 19.31-6.28 18.09-6.28C17.75-6.28 17.50-6.54 17.50-6.84C17.50-7.14 17.64-7.32 18.07-7.44C18.87-7.65 19.79-8.30 20.24-9.29L20.14-9.29C19.83-8.89 19.32-8.81 18.81-8.81C17.45-8.81 16.59-9.88 16.59-11.25Z" fill="currentColor"/>
</svg>