<svg xmlns="http://www.w3.org/2000/svg" viewBox="0 0 24 24" width="24" height="24">
  <title>r.joystick.press.down</title>
  <path transform="matrix(0.7515044767356525, 0, 0, 0.7515044767356525, 1.3439013650374279, 19.736679876706297)" d="M11.23-22.17L13.56-19.03C13.88-18.60 14.47-18.60 14.79-19.03L17.14-22.17C17.61-22.79 17.37-23.60 16.52-23.60L11.82-23.60C11.03-23.60 10.73-22.82 11.23-22.17ZM14.18-1.96C21.49-1.96 26.26-5.19 26.26-9.87C26.26-14.53 21.48-17.77 14.17-17.77C6.87-17.77 2.10-14.53 2.10-9.87C2.10-5.19 6.87-1.96 14.18-1.96ZM14.18-3.97C8.21-3.97 4.22-6.36 4.22-9.87C4.22-13.37 8.21-15.75 14.17-15.75C20.13-15.75 24.14-13.37 24.14-9.87C24.14-6.36 20.14-3.97 14.18-3.97ZM12.22-6.36C12.67-6.36 12.95-6.67 12.95-7.15L12.95-8.89L14.14-8.89L15.43-6.80C15.63-6.47 15.82-6.35 16.11-6.35C16.48-6.35 16.78-6.61 16.78-6.98C16.78-7.17 16.72-7.32 16.62-7.48L15.56-9.13C16.42-9.47 16.93-10.25 16.93-11.18C16.93-12.59 15.91-13.49 14.37-13.49L12.22-13.49C11.80-13.49 11.53-13.18 11.53-12.69L11.53-7.15C11.53-6.67 11.80-6.36 12.22-6.36ZM12.95-10.01L12.95-12.34L14.21-12.34C15.04-12.34 15.53-11.88 15.53-11.16C15.53-10.43 15.05-10.01 14.19-10.01ZM14.18 3.01C17.03 3.01 18.71 1.68 18.71-0.57L18.71-1.04C17.32-0.75 15.81-0.60 14.18-0.60C12.55-0.60 11.04-0.75 9.66-1.04L9.66-0.57C9.66 1.68 11.34 3.01 14.18 3.01Z" fill="currentColor"/>
</svg>