<svg xmlns="http://www.w3.org/2000/svg" viewBox="0 0 24 24" width="24" height="24">
  <title>recordingtape</title>
  <path transform="matrix(0.5740553873752663, 0, 0, 0.5740553873752663, 0.7958291288261015, 16.857046754120418)" d="M2.10-8.46C2.10-4.24 5.52-0.82 9.74-0.82L29.30-0.82C33.53-0.82 36.94-4.24 36.94-8.46C36.94-12.69 33.53-16.10 29.30-16.10C25.08-16.10 21.66-12.68 21.66-8.46C21.66-6.20 22.66-4.17 24.29-2.82L14.74-2.82C16.37-4.17 17.38-6.20 17.38-8.46C17.38-12.69 13.96-16.10 9.74-16.10C5.51-16.10 2.10-12.68 2.10-8.46ZM4.10-8.47C4.10-11.58 6.63-14.11 9.75-14.11C12.86-14.11 15.38-11.58 15.38-8.47C15.38-5.36 12.86-2.82 9.75-2.82C6.63-2.82 4.10-5.36 4.10-8.47ZM23.66-8.47C23.66-11.58 26.18-14.11 29.29-14.11C32.40-14.11 34.93-11.58 34.93-8.47C34.93-5.36 32.40-2.82 29.29-2.82C26.18-2.82 23.66-5.36 23.66-8.47Z" fill="currentColor"/>
</svg>