<svg xmlns="http://www.w3.org/2000/svg" viewBox="0 0 24 24" width="24" height="24">
  <title>rectangle.dashed.and.paperclip</title>
  <path transform="matrix(0.7164375895949511, 0, 0, 0.7164375895949511, -0.1409170157817874, 18.593922194615132)" d="M17.91-5.95C19.72-4.14 22.48-4.09 24.38-5.99L30.13-11.74C30.42-12.04 30.40-12.49 30.12-12.75C29.82-13.02 29.43-13.02 29.13-12.73L23.44-7.02C22.08-5.67 20.18-5.67 18.94-6.96C17.65-8.27 17.63-10.14 18.97-11.48L26.17-18.66C27.06-19.55 28.27-19.56 29.02-18.83C29.75-18.11 29.73-16.91 28.84-16.00L21.84-8.95C21.55-8.66 21.18-8.67 20.92-8.95C20.63-9.23 20.64-9.60 20.93-9.89L25.89-14.85C26.18-15.14 26.17-15.54 25.92-15.81C25.65-16.07 25.27-16.08 24.97-15.77L19.97-10.78C19.16-9.97 19.15-8.71 19.91-7.96C20.71-7.16 21.90-7.16 22.75-8.00L29.79-15.05C31.27-16.52 31.24-18.45 29.92-19.78C28.62-21.08 26.63-21.11 25.18-19.66L17.95-12.43C16.05-10.54 16.11-7.75 17.91-5.95ZM17.60-19.23L17.60-17.34L19.95-17.34L21.83-19.23ZM10.72-17.34L16.01-17.34L16.01-19.23L10.72-19.23ZM2.99-13.05L4.88-13.05L4.88-15.50C4.88-16.72 5.52-17.34 6.69-17.34L9.12-17.34L9.12-19.23L6.67-19.23C4.22-19.23 2.99-18.02 2.99-15.60ZM2.99-5.44L4.88-5.44L4.88-11.45L2.99-11.45ZM30.62-5.44L30.62-9.39L28.73-7.50L28.73-5.44ZM6.67 2.34L9.12 2.34L9.12 0.46L6.69 0.46C5.52 0.46 4.88-0.16 4.88-1.38L4.88-3.83L2.99-3.83L2.99-1.29C2.99 1.14 4.22 2.34 6.67 2.34ZM26.94 2.34C29.39 2.34 30.62 1.14 30.62-1.29L30.62-3.83L28.73-3.83L28.73-1.38C28.73-0.16 28.09 0.46 26.92 0.46L24.49 0.46L24.49 2.34ZM10.72 2.34L16.01 2.34L16.01 0.46L10.72 0.46ZM17.60 2.34L22.89 2.34L22.89 0.46L17.60 0.46Z" fill="currentColor"/>
</svg>