<svg xmlns="http://www.w3.org/2000/svg" viewBox="0 0 24 24" width="24" height="24">
  <title>ruler</title>
  <path transform="matrix(0.6977378032161352, 0, 0, 0.6977378032161352, -0.08503679476696657, 17.89533932951758)" d="M31.65-11.65C31.65-13.72 30.56-14.80 28.46-14.80L6.15-14.80C4.05-14.80 2.99-13.72 2.99-11.65L2.99-5.25C2.99-3.18 4.07-2.10 6.16-2.10L28.48-2.10C30.57-2.10 31.65-3.18 31.65-5.25ZM29.75-11.31L29.75-5.59C29.75-4.54 29.19-3.98 28.17-3.98L6.45-3.98C5.45-3.98 4.88-4.54 4.88-5.59L4.88-11.31C4.88-12.36 5.45-12.91 6.46-12.91L6.52-12.91L6.52-7.39C6.52-7.13 6.73-6.93 7.00-6.93C7.28-6.93 7.46-7.14 7.46-7.41L7.46-12.91L8.59-12.91L8.59-9.46C8.59-9.18 8.80-8.99 9.06-8.99C9.35-8.99 9.54-9.19 9.54-9.47L9.54-12.91L10.64-12.91L10.64-9.46C10.64-9.18 10.86-8.99 11.12-8.99C11.40-8.99 11.60-9.19 11.60-9.47L11.60-12.91L12.70-12.91L12.70-9.46C12.70-9.18 12.91-8.99 13.18-8.99C13.46-8.99 13.65-9.19 13.65-9.47L13.65-12.91L14.78-12.91L14.78-9.46C14.78-9.18 14.99-8.99 15.25-8.99C15.54-8.99 15.73-9.19 15.73-9.47L15.73-12.91L16.85-12.91L16.85-7.39C16.85-7.13 17.06-6.93 17.32-6.93C17.61-6.93 17.80-7.14 17.80-7.41L17.80-12.91L18.91-12.91L18.91-9.46C18.91-9.18 19.13-8.99 19.38-8.99C19.66-8.99 19.86-9.19 19.86-9.47L19.86-12.91L20.98-12.91L20.98-9.46C20.98-9.18 21.19-8.99 21.46-8.99C21.74-8.99 21.93-9.19 21.93-9.47L21.93-12.91L23.04-12.91L23.04-9.46C23.04-9.18 23.25-8.99 23.51-8.99C23.80-8.99 23.99-9.19 23.99-9.47L23.99-12.91L25.11-12.91L25.11-9.46C25.11-9.18 25.32-8.99 25.58-8.99C25.86-8.99 26.06-9.19 26.06-9.47L26.06-12.91L27.18-12.91L27.18-7.39C27.18-7.13 27.39-6.93 27.66-6.93C27.94-6.93 28.13-7.14 28.13-7.41L28.13-12.91L28.18-12.91C29.19-12.91 29.75-12.36 29.75-11.31Z" fill="currentColor"/>
</svg>