<svg xmlns="http://www.w3.org/2000/svg" viewBox="0 0 24 24" width="24" height="24">
  <title>service.dog.fill</title>
  <path transform="matrix(0.6297662976629766, 0, 0, 0.6297662976629766, 0.11808118081180807, 17.40959409594096)" d="M26.57-17.17C28.24-17.17 29.11-20.00 29.11-20.80C29.11-21.52 28.73-21.89 28.00-21.89L25.15-21.89C24.41-21.89 24.02-21.52 24.02-20.80C24.02-20.00 24.89-17.17 26.57-17.17ZM5.07 4.71L7.46 4.71C8.81 4.71 9.59 3.86 9.59 2.85C9.59 1.79 9.04 1.35 7.91 1.23C7.38 1.17 7.39 0.54 7.84 0.48C10.70 0.02 12.43-1.46 12.77-4.02C14.52-2.78 17.46-2.59 20.41-2.96C20.40-1.25 20.14 1.10 20.14 2.32C20.14 3.75 21.06 4.71 22.45 4.71L24.42 4.71C25.76 4.71 26.53 3.86 26.53 2.88C26.53 1.86 26.05 1.42 24.77 1.23C24.50 1.18 24.36 1.01 24.42 0.74C24.64-0.47 25.32-2.98 25.71-4.13C26.52-6.53 27.66-8.07 27.66-10.56C27.66-11.72 27.97-12.41 28.24-12.71C29.17-12.15 29.85-11.87 30.75-11.87C32.75-11.87 34.75-13.91 34.75-16.04C34.75-17.17 33.81-17.21 32.63-17.96C31.59-18.64 31.01-19.52 30.09-20.02C29.78-18.49 28.62-16.10 26.57-16.10C25.31-16.10 24.40-17.00 23.81-18.04C23.18-17.14 22.85-16.34 21.77-15.69L21.54-15.64L21.54-10.04C21.54-8.41 20.52-7.68 18.88-7.68L14.13-7.68C12.49-7.68 11.47-8.41 11.47-10.04L11.47-14.18L10.00-14.06C9.74-14.05 9.52-13.97 9.36-13.91L8.48-14.96C7.05-16.66 4.83-14.66 6.25-13.03L7.22-11.91C6.74-10.77 6.48-9.40 6.48-7.69C6.48-5.10 6.28-4.38 5.51-3.75C3.67-2.30 2.99-1.34 2.99 0.29L2.99 2.52C2.99 3.81 3.86 4.71 5.07 4.71ZM30.69-15.91C30.26-15.91 29.94-16.24 29.94-16.65C29.94-17.07 30.26-17.38 30.69-17.38C31.10-17.38 31.42-17.07 31.42-16.65C31.42-16.24 31.10-15.91 30.69-15.91ZM14.13-9.18L18.88-9.18C19.59-9.18 20.02-9.50 20.02-10.22L20.02-14.92C19.88-14.85 19.73-14.81 19.58-14.80L12.98-14.30L12.98-10.22C12.98-9.50 13.42-9.18 14.13-9.18Z" fill="currentColor"/>
</svg>