<svg xmlns="http://www.w3.org/2000/svg" viewBox="0 0 24 24" width="24" height="24">
  <title>shoe.2</title>
  <path transform="matrix(0.48471078292151853, 0, 0, 0.48471078292151853, 0.551547855722806, 15.98640347495207)" d="M7.62-2.36L8.71-2.36C8.93 1.11 11.17 2.09 13.32 2.09L31.96 2.09C35.73 2.09 37.90 1.51 40.84-0.12C43.17-1.42 44.25-3.02 44.25-4.88C44.25-7.55 42.38-9.38 39.63-9.38C39.34-9.38 38.96-9.35 38.54-9.32C38.54-11.99 36.68-13.82 33.94-13.82C32.66-13.82 29.79-13.36 28.71-13.36C27.63-13.36 27.40-13.41 26.29-14.04L20.00-17.72C17.77-19.02 15.69-18.84 13.98-16.62C12.63-14.89 11.25-14.16 9.82-14.16C8.55-14.16 7.69-14.36 6.75-14.79C4.95-15.57 2.99-14.77 2.99-12.62L2.99-7.37C2.99-3.43 5.36-2.36 7.62-2.36ZM6.86-6.70C5.80-6.70 5.21-6.82 4.88-7.14C4.88-7.21 4.88-7.29 4.88-7.37L4.88-12.63C4.88-13.18 5.34-13.36 5.78-13.15C6.93-12.64 8.17-12.27 9.82-12.27C11.80-12.27 13.83-13.35 15.47-15.47C16.63-16.96 17.40-17.03 19.04-16.08L22.54-14.05C21.50-13.91 20.55-13.30 19.68-12.18C18.33-10.45 16.95-9.71 15.52-9.71C14.25-9.71 13.39-9.91 12.45-10.35C10.65-11.13 8.70-10.32 8.70-8.18L8.70-6.70ZM10.59-2.67C10.58-2.75 10.58-2.84 10.58-2.93L10.58-8.19C10.58-8.74 11.05-8.92 11.48-8.71C12.63-8.20 13.86-7.83 15.52-7.83C17.51-7.83 19.54-8.91 21.18-11.03C22.34-12.52 23.11-12.59 24.75-11.64L25.28-11.32L23.72-9.18C23.50-8.89 23.53-8.47 23.80-8.26C24.08-8.04 24.52-8.06 24.73-8.34L26.41-10.66L27.84-9.84L26.39-7.86C26.16-7.55 26.20-7.17 26.47-6.96C26.80-6.70 27.18-6.71 27.41-7.04L28.97-9.19L30.39-8.37L29.06-6.55C28.83-6.25 28.86-5.86 29.13-5.65C29.44-5.39 29.82-5.43 30.06-5.73L31.51-7.72C32.64-7.13 33.27-7.03 34.41-7.03C35.61-7.03 38.50-7.49 39.62-7.49C40.57-7.49 41.57-7.20 41.57-6.34C41.57-5.86 41.07-5.21 39.80-4.54L37.70-3.46C36.07-2.59 34.80-2.26 31.96-2.26L12.55-2.26C11.52-2.26 10.93-2.38 10.59-2.67ZM31.99-9.60L28.79-11.47C30.05-11.48 32.82-11.93 33.93-11.93C35.74-11.93 36.64-11.05 36.64-9.32C36.64-9.25 36.64-9.18 36.63-9.11C35.74-9 34.90-8.92 34.41-8.92C33.34-8.92 33.09-8.96 31.99-9.60ZM6.86-5.39L8.70-5.39L8.70-4.24L7.61-4.24C6.35-4.24 5.47-4.54 5.10-5.70C5.59-5.47 6.12-5.39 6.86-5.39ZM10.79-1.25C11.30-1.03 11.81-0.95 12.55-0.95L31.96-0.95C34.92-0.95 36.47-1.35 38.33-2.32L40.42-3.38C41.66-4.03 42.11-4.51 42.27-5.32C42.30-5.12 42.33-4.90 42.32-4.68C42.26-3.53 41.53-2.65 39.94-1.76C37.25-0.27 35.47 0.20 31.96 0.20L13.31 0.20C12.06 0.20 11.18-0.09 10.79-1.25Z" fill="currentColor"/>
</svg>