<svg xmlns="http://www.w3.org/2000/svg" viewBox="0 0 24 24" width="24" height="24">
  <title>shoe.fill</title>
  <path transform="matrix(0.5625137332454405, 0, 0, 0.5625137332454405, 0.3190507580751485, 16.62156830511767)" d="M6.02-3.76L26.43-3.76C29.36-3.76 30.69-4.11 32.37-5.00L35.79-6.81C37.71-7.84 38.23-9.18 37.35-10.11C36.68-10.90 35.52-11.59 33.94-11.59C32.66-11.59 29.79-11.13 28.71-11.13C27.96-11.13 27.62-11.16 27.06-11.41L25.08-8.72C24.84-8.41 24.42-8.36 24.12-8.63C23.84-8.85 23.80-9.23 24.04-9.56L25.85-12.07L24.39-12.93L22.35-10.07C22.10-9.73 21.69-9.70 21.38-9.98C21.08-10.20 21.04-10.58 21.28-10.92L23.23-13.61L21.76-14.46L19.57-11.41C19.35-11.12 18.90-11.10 18.62-11.32C18.33-11.54 18.30-11.99 18.52-12.27L20.59-15.15L20.00-15.49C17.75-16.78 15.69-16.62 13.98-14.39C12.63-12.67 11.25-11.93 9.82-11.93C8.55-11.93 7.69-12.13 6.75-12.56C4.95-13.35 2.99-12.54 2.99-10.39L2.99-5.14C2.99-5.05 2.99-4.96 3-4.88C3.74-4.03 4.54-3.76 6.02-3.76ZM36.41-5.60L33.01-3.82C31.08-2.79 29.48-2.40 26.43-2.40L6.02-2.40C4.95-2.40 4.11-2.57 3.21-3.23C3.87-0.84 5.78-0.13 7.62-0.13L26.26-0.13C30.02-0.13 32.20-0.70 35.14-2.33C37.46-3.63 38.54-5.24 38.54-7.09C38.54-7.34 38.52-7.57 38.50-7.79C38.27-6.90 37.75-6.32 36.41-5.60Z" fill="currentColor"/>
</svg>