<svg xmlns="http://www.w3.org/2000/svg" viewBox="0 0 24 24" width="24" height="24">
  <title>singaporedollarsign.square.fill</title>
  <path transform="matrix(0.9270324099221438, 0, 0, 0.9270324099221438, -0.7702335687126562, 19.83813145029875)" d="M6.67 2.33L20.88 2.33C23.34 2.33 24.56 1.13 24.56-1.29L24.56-15.61C24.56-18.02 23.34-19.24 20.88-19.24L6.67-19.24C4.22-19.24 2.99-18.02 2.99-15.61L2.99-1.29C2.99 1.13 4.22 2.33 6.67 2.33ZM17.21-2.65C17.03-2.65 16.88-2.80 16.88-2.99L16.88-3.91C15.69-4.02 14.68-4.63 14.39-5.98C14.36-6.09 14.34-6.23 14.34-6.32C14.34-6.69 14.61-6.94 14.98-6.94C15.34-6.94 15.55-6.69 15.61-6.43C15.74-5.63 16.10-5.13 16.88-5.03L16.88-8.10L16.49-8.29C15.26-8.88 14.45-9.52 14.45-10.88C14.45-12.34 15.53-13.16 16.88-13.28L16.88-14.19C16.88-14.38 17.03-14.53 17.21-14.53C17.40-14.53 17.57-14.38 17.57-14.19L17.57-13.27C18.69-13.17 19.61-12.60 19.91-11.27C19.93-11.17 19.95-11.06 19.95-10.91C19.95-10.54 19.70-10.32 19.34-10.32C18.95-10.32 18.76-10.52 18.69-10.82C18.56-11.50 18.26-12.04 17.57-12.16L17.57-9.19L18.02-8.96C19.22-8.41 20.12-7.83 20.12-6.40C20.12-4.92 19.07-4.03 17.57-3.91L17.57-2.99C17.57-2.80 17.40-2.65 17.21-2.65ZM10.45-3.55C9.02-3.55 8.00-4.24 7.61-5.51C7.56-5.63 7.52-5.81 7.52-5.96C7.52-6.34 7.78-6.61 8.13-6.61C8.47-6.61 8.68-6.46 8.78-6.12C8.99-5.21 9.57-4.71 10.48-4.71C11.51-4.71 12.06-5.39 12.06-6.23C12.06-7.17 11.43-7.63 10.55-7.95L9.86-8.20C8.48-8.70 7.63-9.49 7.63-10.96C7.63-12.43 8.60-13.65 10.41-13.65C11.80-13.65 12.86-12.87 13.15-11.60C13.18-11.48 13.20-11.36 13.20-11.26C13.20-10.91 12.97-10.65 12.62-10.65C12.29-10.65 12.06-10.79 11.98-11.13C11.75-12.02 11.20-12.49 10.39-12.49C9.48-12.49 8.99-11.86 8.99-11.04C8.99-10.11 9.57-9.73 10.44-9.40L11.13-9.14C12.42-8.64 13.42-8.03 13.42-6.36C13.42-4.78 12.48-3.55 10.45-3.55ZM15.75-10.95C15.75-10.28 16.23-9.87 16.88-9.52L16.88-12.18C16.22-12.07 15.75-11.66 15.75-10.95ZM17.57-5.03C18.35-5.11 18.80-5.55 18.80-6.27C18.80-7.05 18.25-7.43 17.57-7.77Z" fill="currentColor"/>
</svg>