<svg xmlns="http://www.w3.org/2000/svg" viewBox="0 0 24 24" width="24" height="24">
  <title>skis</title>
  <path transform="matrix(0.61735093748116, 0, 0, 0.61735093748116, 0.33785494664496274, 17.223367697594504)" d="M3.87-5.79C2.30-4.22 2.31-1.76 3.86-0.18C5.43 1.36 7.90 1.37 9.47-0.20L27.16-17.88C28.73-19.46 28.71-21.93 27.18-23.50C25.61-25.04 23.13-25.05 21.56-23.48ZM5.13-4.52L22.83-22.22C23.71-23.10 25.07-23.10 25.91-22.23C26.78-21.39 26.77-20.03 25.90-19.15L8.20-1.46C7.32-0.59 5.96-0.59 5.12-1.44C4.25-2.30 4.25-3.64 5.13-4.52ZM10.63 0.96C9.06 2.53 9.07 5.00 10.61 6.57C12.19 8.12 14.65 8.13 16.22 6.56L33.91-11.13C35.48-12.70 35.47-15.18 33.93-16.75C32.36-18.28 29.89-18.30 28.31-16.73ZM11.89 2.23L29.58-15.47C30.46-16.34 31.82-16.35 32.66-15.48C33.53-14.64 33.53-13.28 32.65-12.40L14.95 5.30C14.07 6.18 12.73 6.18 11.87 5.31C11.02 4.46 11.02 3.11 11.89 2.23ZM15.13-12.49L16.18-11.46C16.54-11.12 17.06-11.11 17.40-11.46C17.74-11.78 17.74-12.30 17.40-12.66L16.34-13.71C16.01-14.04 15.47-14.05 15.13-13.71C14.79-13.39 14.78-12.84 15.13-12.49ZM11.48-8.87L12.54-7.79C12.87-7.45 13.42-7.48 13.76-7.79C14.09-8.13 14.10-8.67 13.76-9.01L12.70-10.08C12.36-10.41 11.81-10.41 11.48-10.08C11.14-9.73 11.16-9.20 11.48-8.87ZM21.89-5.74L22.93-4.71C23.29-4.36 23.82-4.36 24.15-4.71C24.50-5.03 24.49-5.57 24.15-5.89L23.10-6.96C22.76-7.29 22.22-7.31 21.89-6.96C21.55-6.64 21.54-6.08 21.89-5.74ZM18.23-2.11L19.30-1.04C19.63-0.70 20.17-0.73 20.52-1.04C20.85-1.37 20.86-1.91 20.52-2.26L19.45-3.32C19.13-3.66 18.57-3.66 18.23-3.32C17.91-2.98 17.92-2.45 18.23-2.11Z" fill="currentColor"/>
</svg>