<svg xmlns="http://www.w3.org/2000/svg" viewBox="0 0 24 24" width="24" height="24">
  <title>smallcircle.circle.fill</title>
  <path transform="matrix(0.8366013071895425, 0, 0, 0.8366013071895425, 0.2450980392156863, 19.07843137254902)" d="M14.05 3.49C20.65 3.49 26.00-1.88 26.00-8.46C26.00-15.06 20.65-20.41 14.05-20.41C7.46-20.41 2.10-15.06 2.10-8.46C2.10-1.88 7.46 3.49 14.05 3.49ZM14.05-3.83C11.50-3.83 9.42-5.91 9.42-8.46C9.42-11.02 11.50-13.09 14.05-13.09C16.61-13.09 18.68-11.02 18.68-8.46C18.68-5.91 16.61-3.83 14.05-3.83ZM14.05-5.77C15.55-5.77 16.75-6.97 16.75-8.46C16.75-9.96 15.55-11.16 14.05-11.16C12.56-11.16 11.36-9.96 11.36-8.46C11.36-6.97 12.56-5.77 14.05-5.77Z" fill="currentColor"/>
</svg>