<svg xmlns="http://www.w3.org/2000/svg" viewBox="0 0 24 24" width="24" height="24">
  <title>soccerball.circle.fill</title>
  <path transform="matrix(0.8366013071895425, 0, 0, 0.8366013071895425, 0.2450980392156863, 19.07843137254902)" d="M14.05 3.49C20.65 3.49 26.00-1.88 26.00-8.46C26.00-15.06 20.65-20.41 14.05-20.41C7.46-20.41 2.10-15.06 2.10-8.46C2.10-1.88 7.46 3.49 14.05 3.49ZM14.06-2.20C10.64-2.20 7.80-5.04 7.80-8.46C7.80-11.88 10.63-14.73 14.05-14.73C17.48-14.73 20.33-11.88 20.33-8.46C20.33-5.04 17.48-2.20 14.06-2.20ZM14.06-13.78C13.42-13.78 12.76-13.66 12.18-13.43L13.70-12.23L13.70-10.59L12.05-9.34L10.50-9.96L9.94-11.81C9.19-10.90 8.72-9.74 8.72-8.45L10.22-9.28L11.85-8.63L12.47-6.71L11.59-5.61L9.59-5.59C10.28-4.51 11.33-3.71 12.57-3.35L12.15-5.14L12.96-6.18L15.15-6.18L15.96-5.14L15.55-3.35C16.78-3.71 17.84-4.51 18.53-5.59L16.54-5.61L15.64-6.73L16.27-8.63L17.89-9.28L19.39-8.45C19.39-9.74 18.93-10.90 18.19-11.81L17.61-9.96L16.07-9.34L14.43-10.59L14.43-12.23L15.94-13.43C15.35-13.66 14.72-13.78 14.06-13.78Z" fill="currentColor"/>
</svg>