<svg xmlns="http://www.w3.org/2000/svg" viewBox="0 0 24 24" width="24" height="24">
  <title>spigot</title>
  <path transform="matrix(0.7069870201601768, 0, 0, 0.7069870201601768, -0.11267605633802846, 17.985915492957744)" d="M3.93 0.57C4.45 0.57 4.88 0.14 4.88-0.38L4.88-2.03L10.57-2.03C11.23-2.03 11.47-1.96 11.91-1.46C13.10-0.15 14.78 0.83 16.83 0.83C18.88 0.83 20.18-0.04 21.53-1.28C22.00-1.72 22.58-1.97 23.11-1.97C24.08-1.97 24.84-1.25 24.84 0.08L24.84 1.72C24.84 2.36 25.28 2.79 25.91 2.79L30.20 2.79C30.83 2.79 31.28 2.36 31.28 1.72L31.28 0.62C31.28-6.26 27.06-8.64 23.19-8.64L22.69-8.64C22.54-8.64 22.42-8.72 22.37-8.85L21.66-10.77C21.41-11.46 21.04-11.75 20.40-11.75L20.33-11.75L20.33-12.73C20.33-13.75 19.62-14.46 18.61-14.46L17.88-14.46L17.88-15.64C18.26-15.84 18.57-16.16 18.77-16.55L23.95-15.98C25.01-15.86 25.76-16.54 25.76-17.55C25.76-18.56 25.01-19.24 23.95-19.13L18.77-18.55C18.41-19.24 17.68-19.72 16.84-19.72C16.01-19.72 15.28-19.24 14.92-18.55L9.74-19.13C8.67-19.24 7.92-18.56 7.92-17.55C7.92-16.54 8.67-15.86 9.74-15.98L14.92-16.55C15.12-16.16 15.43-15.84 15.81-15.64L15.81-14.46L15.05-14.46C14.03-14.46 13.31-13.75 13.31-12.73L13.31-11.75L13.24-11.75C12.61-11.75 12.25-11.46 11.99-10.77L11.29-8.85C11.23-8.72 11.11-8.64 10.97-8.64L4.88-8.64L4.88-9.95C4.88-10.46 4.45-10.90 3.93-10.90C3.41-10.90 2.99-10.46 2.99-9.95L2.99-0.38C2.99 0.14 3.41 0.57 3.93 0.57ZM14.91-12.55C14.91-12.88 15.14-13.10 15.46-13.10L18.20-13.10C18.52-13.10 18.74-12.88 18.74-12.55L18.74-11.75L14.91-11.75ZM26.55 1.08L26.55 0.08C26.55-2.98 24.71-3.70 23.21-3.70C22.04-3.70 21.16-3.23 20.33-2.44C19.57-1.75 18.60-0.88 16.83-0.88C15.04-0.88 13.99-1.69 13.16-2.61C12.43-3.48 11.86-3.74 10.66-3.74L4.88-3.74L4.88-6.93L11.09-6.93C12.20-6.93 12.57-7.38 12.87-8.18L13.55-10.04L20.11-10.04L20.79-8.18C21.08-7.38 21.45-6.93 22.57-6.93L23.18-6.93C26.61-6.93 29.58-4.98 29.58 0.62L29.58 1.08Z" fill="currentColor"/>
</svg>