<svg xmlns="http://www.w3.org/2000/svg" viewBox="0 0 24 24" width="24" height="24">
  
  <path transform="matrix(0.6556537328723268, 0, 0, 0.6556537328723268, 1.30464848252017, 17.32846715328467)" d="M9.41-11.71C8.92-11.71 8.57-11.36 8.57-10.89C8.57-10.63 8.67-10.44 8.85-10.27L12.71-6.54C12.95-6.30 13.15-6.23 13.39-6.23C13.63-6.23 13.83-6.30 14.06-6.54L17.93-10.27C18.11-10.44 18.21-10.63 18.21-10.89C18.21-11.36 17.84-11.71 17.36-11.71C17.12-11.71 16.89-11.61 16.72-11.43L14.91-9.49L14.24-8.79L14.32-10.56L14.32-22.48C14.32-22.97 13.90-23.38 13.39-23.38C12.89-23.38 12.46-22.97 12.46-22.48L12.46-10.56L12.54-8.79L11.87-9.49L10.05-11.43C9.89-11.61 9.64-11.71 9.41-11.71ZM7.89 1.68L8.84 1.68L8.84 2.23C8.84 5.37 10.59 7.13 13.75 7.13L24.74 7.13C27.89 7.13 29.64 5.37 29.64 2.23L29.64-6.80C29.64-9.95 27.89-11.70 24.74-11.70L23.79-11.70L23.79-12.25C23.79-15.40 22.03-17.14 18.88-17.14L16.51-17.14L16.51-15.26L18.88-15.26C20.81-15.26 21.90-14.17 21.90-12.25L21.90-3.22C21.90-1.30 20.81-0.21 18.88-0.21L7.89-0.21C5.96-0.21 4.88-1.30 4.88-3.22L4.88-12.25C4.88-14.17 5.96-15.26 7.89-15.26L10.25-15.26L10.25-17.14L7.89-17.14C4.73-17.14 2.99-15.40 2.99-12.25L2.99-3.22C2.99-0.08 4.73 1.68 7.89 1.68ZM13.75 5.24C11.81 5.24 10.73 4.15 10.73 2.23L10.73 1.68L18.88 1.68C22.03 1.68 23.79-0.08 23.79-3.22L23.79-9.81L24.74-9.81C26.67-9.81 27.75-8.72 27.75-6.80L27.75 2.23C27.75 4.15 26.67 5.24 24.74 5.24Z" fill="currentColor"/>
</svg>