<svg xmlns="http://www.w3.org/2000/svg" viewBox="0 0 24 24" width="24" height="24">
  <title>square</title>
  <path transform="matrix(0.9270324099221438, 0, 0, 0.9270324099221438, -0.7702335687126562, 19.83813145029875)" d="M6.67 2.33L20.88 2.33C23.34 2.33 24.56 1.13 24.56-1.29L24.56-15.61C24.56-18.02 23.34-19.24 20.88-19.24L6.67-19.24C4.22-19.24 2.99-18.02 2.99-15.61L2.99-1.29C2.99 1.13 4.22 2.33 6.67 2.33ZM6.69 0.45C5.52 0.45 4.88-0.18 4.88-1.39L4.88-15.50C4.88-16.72 5.52-17.36 6.69-17.36L20.86-17.36C22.02-17.36 22.68-16.72 22.68-15.50L22.68-1.39C22.68-0.18 22.02 0.45 20.86 0.45Z" fill="currentColor"/>
</svg>