<svg xmlns="http://www.w3.org/2000/svg" viewBox="0 0 24 24" width="24" height="24">
  <title>square.grid.3x3.fill</title>
  <path transform="matrix(0.8703042665306816, 0, 0, 0.8703042665306816, -0.6007139214686386, 19.37888832228455)" d="M5.02-13.09L7.61-13.09C8.88-13.09 9.63-13.84 9.63-15.16L9.63-17.66C9.63-18.98 8.88-19.73 7.61-19.73L5.02-19.73C3.74-19.73 2.99-18.98 2.99-17.66L2.99-15.16C2.99-13.84 3.74-13.09 5.02-13.09ZM13.17-13.09L15.77-13.09C17.05-13.09 17.79-13.84 17.79-15.16L17.79-17.66C17.79-18.98 17.05-19.73 15.77-19.73L13.17-19.73C11.89-19.73 11.16-18.98 11.16-17.66L11.16-15.16C11.16-13.84 11.89-13.09 13.17-13.09ZM21.35-13.09L23.94-13.09C25.22-13.09 25.97-13.84 25.97-15.16L25.97-17.66C25.97-18.98 25.22-19.73 23.94-19.73L21.35-19.73C20.07-19.73 19.32-18.98 19.32-17.66L19.32-15.16C19.32-13.84 20.07-13.09 21.35-13.09ZM5.02-5.16L7.61-5.16C8.88-5.16 9.63-5.89 9.63-7.22L9.63-9.73C9.63-11.05 8.88-11.80 7.61-11.80L5.02-11.80C3.74-11.80 2.99-11.05 2.99-9.73L2.99-7.22C2.99-5.89 3.74-5.16 5.02-5.16ZM13.17-5.16L15.77-5.16C17.05-5.16 17.79-5.89 17.79-7.22L17.79-9.73C17.79-11.05 17.05-11.80 15.77-11.80L13.17-11.80C11.89-11.80 11.16-11.05 11.16-9.73L11.16-7.22C11.16-5.89 11.89-5.16 13.17-5.16ZM21.35-5.16L23.94-5.16C25.22-5.16 25.97-5.89 25.97-7.22L25.97-9.73C25.97-11.05 25.22-11.80 23.94-11.80L21.35-11.80C20.07-11.80 19.32-11.05 19.32-9.73L19.32-7.22C19.32-5.89 20.07-5.16 21.35-5.16ZM5.02 2.78L7.61 2.78C8.88 2.78 9.63 2.03 9.63 0.70L9.63-1.79C9.63-3.12 8.88-3.87 7.61-3.87L5.02-3.87C3.74-3.87 2.99-3.12 2.99-1.79L2.99 0.70C2.99 2.03 3.74 2.78 5.02 2.78ZM13.17 2.78L15.77 2.78C17.05 2.78 17.79 2.03 17.79 0.70L17.79-1.79C17.79-3.12 17.05-3.87 15.77-3.87L13.17-3.87C11.89-3.87 11.16-3.12 11.16-1.79L11.16 0.70C11.16 2.03 11.89 2.78 13.17 2.78ZM21.35 2.78L23.94 2.78C25.22 2.78 25.97 2.03 25.97 0.70L25.97-1.79C25.97-3.12 25.22-3.87 23.94-3.87L21.35-3.87C20.07-3.87 19.32-3.12 19.32-1.79L19.32 0.70C19.32 2.03 20.07 2.78 21.35 2.78Z" fill="currentColor"/>
</svg>