<svg xmlns="http://www.w3.org/2000/svg" viewBox="0 0 24 24" width="24" height="24">
  <title>star.square.fill</title>
  <path transform="matrix(0.9270324099221438, 0, 0, 0.9270324099221438, -0.7702335687126562, 19.83813145029875)" d="M6.67 2.33L20.88 2.33C23.34 2.33 24.56 1.13 24.56-1.29L24.56-15.61C24.56-18.02 23.34-19.24 20.88-19.24L6.67-19.24C4.22-19.24 2.99-18.02 2.99-15.61L2.99-1.29C2.99 1.13 4.22 2.33 6.67 2.33ZM10.31-2.21C9.61-1.68 8.86-2.23 9.14-3.06L10.50-7.15L7.00-9.64C6.34-10.13 6.56-11.06 7.45-11.05L11.75-11.02L13.07-15.13C13.32-15.94 14.24-15.94 14.50-15.13L15.81-11.02L20.11-11.05C21.01-11.06 21.21-10.11 20.57-9.66L17.06-7.15L18.43-3.06C18.70-2.23 17.96-1.68 17.25-2.21L13.78-4.75Z" fill="currentColor"/>
</svg>