<svg xmlns="http://www.w3.org/2000/svg" viewBox="0 0 24 24" width="24" height="24">
  <title>sterlingsign.square</title>
  <path transform="matrix(0.9270324099221438, 0, 0, 0.9270324099221438, -0.7702335687126562, 19.83813145029875)" d="M6.67 2.33L20.88 2.33C23.34 2.33 24.56 1.13 24.56-1.29L24.56-15.61C24.56-18.02 23.34-19.24 20.88-19.24L6.67-19.24C4.22-19.24 2.99-18.02 2.99-15.61L2.99-1.29C2.99 1.13 4.22 2.33 6.67 2.33ZM6.69 0.45C5.52 0.45 4.88-0.18 4.88-1.39L4.88-15.50C4.88-16.72 5.52-17.36 6.69-17.36L20.86-17.36C22.02-17.36 22.68-16.72 22.68-15.50L22.68-1.39C22.68-0.18 22.02 0.45 20.86 0.45ZM10.03-3.28L16.99-3.28C17.34-3.28 17.63-3.52 17.63-3.86C17.63-4.18 17.34-4.44 16.99-4.44L11.58-4.44L11.58-4.49C12.50-4.84 12.94-5.91 12.94-6.93C12.94-7.34 12.91-7.69 12.83-7.99L15.82-7.99C16.11-7.99 16.34-8.20 16.34-8.47C16.34-8.73 16.11-8.94 15.82-8.94L12.57-8.94C12.41-9.62 12.36-9.98 12.36-10.41C12.36-11.75 13.38-12.52 14.86-12.52C15.39-12.52 15.75-12.46 16.05-12.38C16.27-12.33 16.46-12.28 16.61-12.28C16.93-12.28 17.13-12.46 17.13-12.79C17.13-13.10 16.90-13.29 16.62-13.39C15.98-13.64 15.53-13.69 14.72-13.69C12.47-13.69 10.96-12.46 10.96-10.37C10.96-9.93 11.02-9.49 11.18-8.94L9.94-8.94C9.64-8.94 9.42-8.73 9.42-8.47C9.42-8.20 9.64-7.99 9.94-7.99L11.44-7.99C11.53-7.59 11.60-7.23 11.60-6.88C11.60-5.77 11.03-4.93 9.97-4.55C9.64-4.43 9.43-4.23 9.43-3.88C9.43-3.53 9.68-3.28 10.03-3.28Z" fill="currentColor"/>
</svg>