<svg xmlns="http://www.w3.org/2000/svg" viewBox="0 0 24 24" width="24" height="24">
  <title>suit.spade.fill</title>
  <path transform="matrix(0.8810875924969884, 0, 0, 0.8810875924969884, 0.46153846153846145, 19.811048012390295)" d="M2.10-6.26C2.10-3.47 4.27-1.30 7.05-1.30C8.61-1.30 10.22-1.82 10.90-3.19L11.02-3.19C11.03-1.63 9.32-0.34 8.61 0.39C7.77 1.27 8.29 2.48 9.38 2.48L16.82 2.48C17.91 2.48 18.41 1.27 17.58 0.39C16.88-0.34 15.16-1.63 15.18-3.19L15.29-3.19C15.97-1.82 17.58-1.30 19.13-1.30C21.93-1.30 24.09-3.47 24.09-6.26C24.09-11.51 17.11-13.72 14.31-19.37C14.07-19.85 13.71-20.21 13.09-20.21C12.47-20.21 12.12-19.85 11.88-19.37C9.08-13.72 2.10-11.51 2.10-6.26Z" fill="currentColor"/>
</svg>