<svg xmlns="http://www.w3.org/2000/svg" viewBox="0 0 24 24" width="24" height="24">
  <title>swedishkronasign.ring</title>
  <path transform="matrix(0.7632677400119261, 0, 0, 0.7632677400119261, 0.39892665474060807, 18.457960644007155)" d="M15.20 4.64C22.39 4.64 28.30-1.27 28.30-8.46C28.30-15.66 22.39-21.56 15.20-21.56C8.00-21.56 2.10-15.66 2.10-8.46C2.10-1.27 8.00 4.64 15.20 4.64ZM15.20 0.28C10.37 0.28 6.46-3.63 6.46-8.46C6.46-13.30 10.37-17.20 15.20-17.20C20.04-17.20 23.94-13.30 23.94-8.46C23.94-3.63 20.04 0.28 15.20 0.28ZM11.32-3.66C11.70-3.66 11.95-3.94 11.95-4.34L11.95-6.32L12.64-6.98L14.79-3.98C14.93-3.79 15.12-3.66 15.36-3.66C15.70-3.66 15.98-3.90 15.98-4.23C15.98-4.39 15.90-4.55 15.80-4.69L13.56-7.78L15.64-9.98C15.80-10.15 15.88-10.24 15.88-10.45C15.88-10.75 15.63-11.00 15.30-11.00C15.13-11.00 14.92-10.90 14.80-10.76L11.99-7.69L11.95-7.69L11.95-13.09C11.95-13.49 11.70-13.78 11.32-13.78C10.93-13.78 10.66-13.50 10.66-13.10L10.66-4.34C10.66-3.94 10.93-3.66 11.32-3.66ZM17.92-3.66C18.21-3.66 18.54-3.83 18.54-4.34L18.54-8.02C18.54-8.85 18.86-9.77 19.86-9.77C20.10-9.77 20.33-9.80 20.51-9.90C20.66-9.98 20.75-10.14 20.75-10.35C20.75-10.77 20.43-11.00 19.99-11.00C19.24-11.00 18.73-10.36 18.55-9.60L18.48-9.60L18.48-10.36C18.48-10.72 18.22-11.00 17.89-11.00C17.55-11.00 17.30-10.72 17.30-10.36L17.30-4.34C17.30-3.93 17.52-3.66 17.92-3.66Z" fill="currentColor"/>
</svg>