<svg xmlns="http://www.w3.org/2000/svg" viewBox="0 0 24 24" width="24" height="24">
  <title>tengesign.gauge.chart.lefthalf.righthalf</title>
  <path transform="matrix(0.7084544070845441, 0, 0, 0.7084544070845441, 0.5139061851390618, 18.004620073800528)" d="M30.33-6.11C30.33-13.49 24.66-19.55 17.44-20.16C17.06-20.19 16.78-19.92 16.78-19.55L16.78-15.71C16.78-15.40 17.00-15.15 17.32-15.13C21.81-14.58 25.30-10.75 25.30-6.11C25.30-4.00 24.57-2.05 23.30-0.42C23.13-0.22 23.14 0.04 23.32 0.22L26.12 3.01C26.38 3.27 26.78 3.27 27.01 2.99C29.09 0.53 30.33-2.65 30.33-6.11ZM2.10-6.11C2.10-2.64 3.34 0.54 5.41 3C5.65 3.28 6.04 3.27 6.30 3.01L9.11 0.22C9.28 0.04 9.29-0.22 9.13-0.42C7.84-2.05 7.13-4.00 7.13-6.11C7.13-10.75 10.62-14.58 15.11-15.13C15.42-15.15 15.64-15.40 15.64-15.71L15.64-19.55C15.64-19.92 15.36-20.19 14.99-20.16C7.77-19.55 2.10-13.49 2.10-6.11ZM12.15-10.80C12.15-10.58 12.33-10.42 12.55-10.42L19.80-10.42C20.04-10.42 20.21-10.59 20.21-10.80C20.21-11.02 20.04-11.19 19.80-11.19L12.55-11.19C12.33-11.19 12.15-11.02 12.15-10.80ZM16.22-0.47C16.61-0.47 16.89-0.76 16.89-1.16L16.89-8.04L19.68-8.04C19.98-8.04 20.21-8.29 20.21-8.58C20.21-8.88 19.98-9.11 19.68-9.11L12.73-9.11C12.42-9.11 12.19-8.88 12.19-8.58C12.19-8.29 12.42-8.04 12.73-8.04L15.53-8.04L15.53-1.16C15.53-0.76 15.82-0.47 16.22-0.47Z" fill="currentColor"/>
</svg>