<svg xmlns="http://www.w3.org/2000/svg" viewBox="0 0 24 24" width="24" height="24">
  <title>text.append</title>
  <path transform="matrix(0.8469809760132341, 0, 0, 0.8469809760132341, -0.531017369727047, 19.1712158808933)" d="M3.93-18.61C3.40-18.61 2.99-18.19 2.99-17.66C2.99-17.13 3.40-16.72 3.93-16.72L25.64-16.72C26.17-16.72 26.60-17.13 26.60-17.66C26.60-18.19 26.17-18.61 25.64-18.61ZM3.93-12.47C3.40-12.47 2.99-12.06 2.99-11.53C2.99-11.00 3.40-10.58 3.93-10.58L25.64-10.58C26.17-10.58 26.60-11.00 26.60-11.53C26.60-12.06 26.17-12.47 25.64-12.47ZM9.27 0.28C9.27 1.07 9.97 1.44 10.63 0.94L14.13-1.75C14.59-2.10 14.59-2.77 14.13-3.12L10.63-5.80C9.97-6.29 9.27-5.93 9.27-5.14L9.27-3.52L6-3.52C5.66-3.52 5.48-3.70 5.48-4.03L5.48-6.07C5.48-6.70 4.97-7.22 4.34-7.22C3.69-7.22 3.18-6.70 3.18-6.07L3.18-3.71C3.18-2.11 4.14-1.22 5.84-1.22L9.27-1.22ZM17.74-6.34C17.21-6.34 16.80-5.93 16.80-5.39C16.80-4.86 17.21-4.45 17.74-4.45L25.64-4.45C26.17-4.45 26.60-4.86 26.60-5.39C26.60-5.93 26.17-6.34 25.64-6.34ZM17.74-0.21C17.21-0.21 16.80 0.21 16.80 0.74C16.80 1.27 17.21 1.68 17.74 1.68L25.64 1.68C26.17 1.68 26.60 1.27 26.60 0.74C26.60 0.21 26.17-0.21 25.64-0.21Z" fill="currentColor"/>
</svg>