<svg xmlns="http://www.w3.org/2000/svg" viewBox="0 0 24 24" width="24" height="24">
  <title>textformat.size</title>
  <path transform="matrix(0.749195200468247, 0, 0, 0.749195200468247, -0.23880597014925353, 18.34328358208955)" d="M16.44 0.19C17.05 0.19 17.37-0.05 17.59-0.70L19.07-4.84L26.04-4.84L27.53-0.70C27.75-0.05 28.05 0.19 28.66 0.19C29.29 0.19 29.68-0.19 29.68-0.77C29.68-0.97 29.65-1.16 29.55-1.41L24.06-16.04C23.79-16.76 23.31-17.12 22.56-17.12C21.83-17.12 21.34-16.77 21.08-16.05L15.59-1.39C15.49-1.15 15.46-0.96 15.46-0.76C15.46-0.18 15.83 0.19 16.44 0.19ZM22.52-14.51L22.58-14.51L25.41-6.60L19.70-6.60ZM3.96 0.19C4.44 0.19 4.76-0.06 4.95-0.63L5.92-3.50L10.50-3.50L11.47-0.63C11.66-0.04 11.98 0.19 12.47 0.19C13.05 0.19 13.45-0.18 13.45-0.70C13.45-0.94 13.39-1.16 13.30-1.41L9.66-11.09C9.39-11.80 8.89-12.18 8.20-12.18C7.52-12.18 7.03-11.82 6.76-11.09L3.12-1.41C3.02-1.18 2.99-0.95 2.99-0.70C2.99-0.16 3.36 0.19 3.96 0.19ZM6.43-5.03L8.07-9.91L8.34-9.91L9.98-5.03Z" fill="currentColor"/>
</svg>