<svg xmlns="http://www.w3.org/2000/svg" viewBox="0 0 24 24" width="24" height="24">
  <title>thermometer.sun.circle.fill</title>
  <path transform="matrix(0.8366013071895425, 0, 0, 0.8366013071895425, 0.2450980392156863, 19.068627450980394)" d="M14.05 3.50C20.65 3.50 26.00-1.85 26.00-8.45C26.00-15.04 20.65-20.40 14.05-20.40C7.46-20.40 2.10-15.04 2.10-8.45C2.10-1.85 7.46 3.50 14.05 3.50ZM14.80-14.33C14.45-14.33 14.17-14.63 14.17-14.96L14.17-16.35C14.17-16.68 14.45-16.97 14.80-16.97C15.16-16.97 15.43-16.68 15.43-16.35L15.43-14.96C15.43-14.63 15.16-14.33 14.80-14.33ZM17.68-13.14C17.44-13.38 17.43-13.78 17.68-14.03L18.67-15.01C18.90-15.26 19.29-15.26 19.54-15.01C19.79-14.77 19.78-14.36 19.55-14.12L18.59-13.14C18.34-12.90 17.92-12.90 17.68-13.14ZM11.77-0.41C9.89-0.41 8.39-1.91 8.39-3.77C8.39-4.75 8.79-5.61 9.55-6.30C9.69-6.41 9.71-6.49 9.71-6.66L9.71-12.45C9.71-13.76 10.54-14.67 11.77-14.67C12.97-14.67 13.80-13.76 13.80-12.45L13.79-6.66C13.79-6.49 13.82-6.41 13.95-6.30C14.72-5.61 15.13-4.75 15.13-3.77C15.13-1.91 13.63-0.41 11.77-0.41ZM11.77-1.41C13.05-1.41 14.12-2.45 14.12-3.77C14.12-4.57 13.75-5.26 13.08-5.72C12.86-5.86 12.79-5.99 12.79-6.27L12.79-12.40C12.79-13.15 12.38-13.65 11.77-13.65C11.12-13.65 10.71-13.15 10.71-12.40L10.71-6.27C10.71-5.99 10.64-5.86 10.42-5.72C9.76-5.26 9.40-4.57 9.40-3.77C9.40-2.45 10.43-1.41 11.77-1.41ZM14.70-7.08L14.71-12.45C14.71-12.79 14.66-13.11 14.54-13.43C14.64-13.44 14.72-13.45 14.80-13.45C16.57-13.45 17.99-12.02 17.99-10.25C17.99-8.43 16.51-7.03 14.70-7.08ZM11.75-2.20C10.89-2.20 10.18-2.89 10.18-3.79C10.18-4.38 10.54-4.89 11.02-5.16C11.24-5.26 11.30-5.33 11.30-5.64L11.30-11.86C11.30-12.19 11.48-12.39 11.75-12.39C12.01-12.39 12.22-12.19 12.22-11.86L12.22-5.64C12.22-5.33 12.28-5.26 12.47-5.16C12.98-4.88 13.34-4.38 13.34-3.79C13.34-2.91 12.63-2.20 11.75-2.20ZM19.49-9.62C19.15-9.62 18.87-9.93 18.87-10.25C18.87-10.59 19.15-10.90 19.49-10.90L20.86-10.90C21.21-10.90 21.49-10.59 21.49-10.25C21.49-9.93 21.21-9.62 20.86-9.62ZM18.67-5.50L17.68-6.48C17.43-6.71 17.44-7.13 17.68-7.36C17.93-7.61 18.33-7.61 18.57-7.36L19.55-6.39C19.79-6.16 19.79-5.74 19.54-5.50C19.29-5.26 18.90-5.27 18.67-5.50Z" fill="currentColor"/>
</svg>