<svg xmlns="http://www.w3.org/2000/svg" viewBox="0 0 24 24" width="24" height="24">
  <title>thermometer.variable.and.figure.circle.fill</title>
  <path transform="matrix(0.8366013071895425, 0, 0, 0.8366013071895425, 0.2450980392156863, 19.068627450980394)" d="M14.05 3.50C20.65 3.50 26.00-1.85 26.00-8.45C26.00-15.04 20.65-20.40 14.05-20.40C7.46-20.40 2.10-15.04 2.10-8.45C2.10-1.85 7.46 3.50 14.05 3.50ZM17.39-13.08C16.62-13.08 15.98-13.71 15.98-14.48C15.98-15.27 16.62-15.89 17.39-15.89C18.18-15.89 18.80-15.27 18.80-14.48C18.80-13.71 18.18-13.08 17.39-13.08ZM10.91-1.18C9.04-1.18 7.54-2.68 7.54-4.55C7.54-5.53 7.93-6.40 8.71-7.09C8.85-7.20 8.87-7.27 8.87-7.44L8.87-13.35C8.87-14.67 9.69-15.57 10.91-15.57C12.12-15.57 12.96-14.67 12.96-13.35L12.95-7.44C12.95-7.27 12.97-7.20 13.09-7.09C13.86-6.40 14.27-5.53 14.27-4.55C14.27-2.68 12.77-1.18 10.91-1.18ZM10.91-2.18C12.21-2.18 13.27-3.23 13.27-4.55C13.27-5.34 12.90-6.05 12.22-6.49C12.01-6.63 11.94-6.77 11.94-7.04L11.94-13.31C11.94-14.06 11.53-14.55 10.91-14.55C10.27-14.55 9.86-14.06 9.86-13.31L9.86-7.04C9.86-6.77 9.79-6.63 9.57-6.49C8.91-6.05 8.54-5.34 8.54-4.55C8.54-3.23 9.59-2.18 10.91-2.18ZM10.91-12.82C10.64-12.82 10.44-13.03 10.44-13.30C10.44-13.55 10.64-13.76 10.91-13.76C11.17-13.76 11.37-13.55 11.37-13.30C11.37-13.03 11.17-12.82 10.91-12.82ZM18.23-1.51C17.88-1.51 17.61-1.78 17.61-2.14L17.61-6.71C17.61-6.84 17.51-6.93 17.39-6.93C17.27-6.93 17.17-6.84 17.17-6.71L17.17-2.14C17.17-1.78 16.91-1.51 16.55-1.51C16.20-1.51 15.91-1.78 15.91-2.14L15.91-9.67C15.91-9.79 15.83-9.88 15.70-9.88C15.60-9.88 15.49-9.79 15.49-9.67L15.49-7.20C15.49-6.88 15.23-6.61 14.92-6.61C14.63-6.61 14.36-6.88 14.36-7.20L14.36-9.97C14.36-11.39 15.41-12.34 16.93-12.34L17.86-12.34C19.38-12.34 20.44-11.39 20.44-9.97L20.44-7.20C20.44-6.88 20.17-6.61 19.85-6.61C19.56-6.61 19.29-6.88 19.29-7.20L19.29-9.67C19.29-9.79 19.18-9.88 19.08-9.88C18.96-9.88 18.87-9.79 18.87-9.67L18.87-2.14C18.87-1.78 18.59-1.51 18.23-1.51ZM10.91-11.20C10.64-11.20 10.44-11.41 10.44-11.67C10.44-11.93 10.64-12.13 10.91-12.13C11.17-12.13 11.37-11.93 11.37-11.67C11.37-11.41 11.17-11.20 10.91-11.20ZM10.91-9.59C10.64-9.59 10.44-9.81 10.44-10.08C10.44-10.31 10.64-10.54 10.91-10.54C11.17-10.54 11.37-10.31 11.37-10.08C11.37-9.81 11.17-9.59 10.91-9.59ZM10.90-2.98C10.03-2.98 9.33-3.68 9.33-4.56C9.33-5.17 9.67-5.68 10.16-5.93C10.37-6.06 10.44-6.12 10.44-6.42L10.44-8.45C10.44-8.70 10.64-8.91 10.91-8.91C11.17-8.91 11.37-8.70 11.37-8.45L11.37-6.42C11.37-6.12 11.43-6.05 11.63-5.93C12.13-5.66 12.48-5.17 12.48-4.56C12.48-3.69 11.78-2.98 10.90-2.98Z" fill="currentColor"/>
</svg>