<svg xmlns="http://www.w3.org/2000/svg" viewBox="0 0 24 24" width="24" height="24">
  <title>thermometer.medium</title>
  <path transform="matrix(0.768076807680768, 0, 0, 0.768076807680768, 3.84968496849685, 18.507650765076505)" d="M9.13 4.55C12.50 4.55 15.23 1.80 15.23-1.57C15.23-3.35 14.51-4.91 13.10-6.18C12.86-6.40 12.80-6.54 12.80-6.89L12.80-17.48C12.80-19.86 11.31-21.49 9.13-21.49C6.93-21.49 5.43-19.86 5.43-17.48L5.43-6.89C5.43-6.54 5.38-6.40 5.12-6.18C3.73-4.91 2.99-3.35 2.99-1.57C2.99 1.80 5.73 4.55 9.13 4.55ZM9.13 2.85C6.68 2.85 4.71 0.86 4.71-1.57C4.71-3.04 5.40-4.36 6.64-5.19C7.01-5.44 7.15-5.66 7.15-6.14L7.15-17.41C7.15-18.82 7.96-19.77 9.13-19.77C10.28-19.77 11.09-18.82 11.09-17.41L11.09-6.14C11.09-5.66 11.23-5.44 11.59-5.19C12.83-4.36 13.52-3.04 13.52-1.57C13.52 0.86 11.54 2.85 9.13 2.85ZM15-17.19L17.54-17.19C17.95-17.19 18.23-17.51 18.23-17.87C18.23-18.23 17.95-18.55 17.54-18.55L15-18.55C14.59-18.55 14.31-18.23 14.31-17.87C14.31-17.51 14.59-17.19 15-17.19ZM15-13.90L17.54-13.90C17.95-13.90 18.23-14.21 18.23-14.58C18.23-14.94 17.95-15.26 17.54-15.26L15-15.26C14.59-15.26 14.31-14.94 14.31-14.58C14.31-14.21 14.59-13.90 15-13.90ZM9.12 1.27C10.69 1.27 11.95 0 11.95-1.58C11.95-2.68 11.33-3.59 10.43-4.08C10.05-4.28 9.93-4.42 9.93-4.99L9.93-11.26C9.93-11.82 9.56-12.19 9.12-12.19C8.66-12.19 8.31-11.82 8.31-11.26L8.31-4.99C8.31-4.42 8.18-4.28 7.80-4.08C6.90-3.59 6.28-2.68 6.28-1.58C6.28 0 7.55 1.27 9.12 1.27ZM15-10.61L17.54-10.61C17.95-10.61 18.23-10.92 18.23-11.29C18.23-11.65 17.95-11.98 17.54-11.98L15-11.98C14.59-11.98 14.31-11.65 14.31-11.29C14.31-10.92 14.59-10.61 15-10.61ZM15-7.31L17.54-7.31C17.95-7.31 18.23-7.63 18.23-7.99C18.23-8.37 17.95-8.68 17.54-8.68L15-8.68C14.59-8.68 14.31-8.37 14.31-7.99C14.31-7.63 14.59-7.31 15-7.31Z" fill="currentColor"/>
</svg>