<svg xmlns="http://www.w3.org/2000/svg" viewBox="0 0 24 24" width="24" height="24">
  <title>tortoise.circle.fill</title>
  <path transform="matrix(0.8366013071895425, 0, 0, 0.8366013071895425, 0.2450980392156863, 19.07843137254902)" d="M14.05 3.49C20.65 3.49 26.00-1.88 26.00-8.46C26.00-15.06 20.65-20.41 14.05-20.41C7.46-20.41 2.10-15.06 2.10-8.46C2.10-1.88 7.46 3.49 14.05 3.49ZM11.92-9.47C10.52-9.46 9.26-9.96 8.26-11.04C9.28-12.40 10.35-12.91 11.95-12.91C13.56-12.90 14.61-12.30 15.61-11.06C14.64-9.98 13.39-9.48 11.92-9.47ZM20.89-7.62C19.89-7.62 19.54-7.20 18.81-6.86C18.39-7.46 17.94-8.24 17.65-8.67C17.89-8.89 18.20-9.22 18.41-10.03C18.70-11.27 19.51-12.02 20.79-12.02C22.25-12.02 23.23-10.77 23.23-8.93C23.23-8.13 22.31-7.62 20.89-7.62ZM15.42-6.19C14.57-7.02 14.03-8.16 13.93-9.11C14.55-9.34 15.46-9.91 16.00-10.48C16.57-9.61 17.61-7.36 18.21-6.60C17.98-6.45 17.46-6.38 16.95-6.38C16.34-6.38 15.89-6.30 15.42-6.19ZM8.39-6.15C7.98-6.28 7.57-6.35 6.97-6.35L6.29-6.35C5.71-6.35 5.40-6.53 5.40-6.83C5.40-7.04 5.50-7.21 5.63-7.35C6.02-7.66 6.56-8.17 7.08-9.14C7.31-9.62 7.58-10.04 7.83-10.43C8.34-9.88 9.22-9.35 9.94-9.09C9.82-8.14 9.19-6.93 8.39-6.15ZM20.92-9.47C21.14-9.47 21.38-9.68 21.38-9.94C21.38-10.18 21.14-10.41 20.92-10.41C20.66-10.41 20.45-10.18 20.45-9.94C20.45-9.68 20.66-9.47 20.92-9.47ZM11.91-4.90C10.68-4.90 9.84-5.60 9.15-5.89C9.96-6.69 10.50-7.90 10.59-8.87C11.03-8.77 11.47-8.71 11.94-8.71C12.39-8.71 12.84-8.77 13.29-8.88C13.36-7.84 13.90-6.68 14.73-5.91C13.99-5.55 13.13-4.90 11.91-4.90ZM6.91-3.98C6.19-3.98 5.61-4.30 5.61-4.86C5.61-5.31 6.05-5.48 6.50-5.60C6.76-5.64 7.03-5.65 7.28-5.71C7.98-5.70 8.61-5.38 9.23-5.00C8.78-4.38 7.84-3.98 6.91-3.98ZM16.72-3.96C15.79-3.96 14.85-4.36 14.40-4.98C14.88-5.29 15.69-5.68 16.30-5.71C16.62-5.70 16.84-5.70 17.13-5.68C17.59-5.65 18.01-5.29 18.01-4.85C18.01-4.29 17.45-3.96 16.72-3.96Z" fill="currentColor"/>
</svg>