<svg xmlns="http://www.w3.org/2000/svg" viewBox="0 0 24 24" width="24" height="24">
  <title>tow.hitch.exclamationmark.fill</title>
  <path transform="matrix(0.5137467389123018, 0, 0, 0.5137467389123018, 0.46478025285972313, 16.340758579169176)" d="M23.19-5.26L27.88-5.26L27.88-8.26L28.52-8.26C28.91-8.26 29.29-8.38 29.59-8.60C31.18-9.86 32.26-11.77 32.26-13.92C32.26-17.58 29.21-20.64 25.56-20.64C21.91-20.64 18.88-17.58 18.88-13.92C18.88-11.77 19.92-9.86 21.50-8.61C21.82-8.37 22.21-8.26 22.58-8.26L23.19-8.26ZM40.37-5.80C40.95-5.80 41.36-6.20 41.38-6.80L41.63-15.09C41.65-15.84 41.14-16.35 40.37-16.35C39.61-16.35 39.11-15.84 39.13-15.09L39.38-6.80C39.40-6.20 39.80-5.80 40.37-5.80ZM2.99-12.26C2.99-11.00 4.00-10.01 5.24-10.01L7.88-10.01C8.47-10.01 8.82-9.79 9.19-9.20L13.64-2.13C14.78-0.34 15.94 0.30 18.47 0.30L32.80 0.30C34.05 0.30 35.05-0.69 35.05-1.95C35.05-3.19 34.05-4.20 32.80-4.20L18.40-4.20C17.75-4.20 17.37-4.35 17.12-4.77L12.56-12.22C11.63-13.75 10.29-14.51 8.68-14.51L5.24-14.51C4.00-14.51 2.99-13.50 2.99-12.26ZM40.37-0.60C41.21-0.60 41.92-1.28 41.92-2.07C41.92-2.88 41.23-3.55 40.37-3.55C39.53-3.55 38.84-2.88 38.84-2.07C38.84-1.28 39.54-0.60 40.37-0.60ZM25.56 3.74C26.92 3.74 27.88 2.77 27.88 1.39L27.88 1.37L23.19 1.37L23.19 1.39C23.19 2.77 24.19 3.74 25.56 3.74Z" fill="currentColor"/>
</svg>