<svg xmlns="http://www.w3.org/2000/svg" viewBox="0 0 24 24" width="24" height="24">
  <title>tv.slash.fill</title>
  <path transform="matrix(0.6826666666666666, 0, 0, 0.6826666666666666, -0.040000000000000036, 18.459506146715174)" d="M28.30 1.91C28.65 2.26 29.23 2.26 29.58 1.91C29.92 1.56 29.93 0.98 29.58 0.63L6.97-21.97C6.63-22.32 6.05-22.34 5.68-21.97C5.34-21.63 5.34-21.04 5.68-20.70ZM29.27-20.11L11.16-20.11L30.38-0.89L30.46-0.89C31.63-1.27 32.29-2.23 32.29-3.67L32.29-17.11C32.29-18.98 31.15-20.11 29.27-20.11ZM6-0.66L23.41-0.66L4.45-19.63L4.38-19.63C3.48-19.21 2.99-18.34 2.99-17.11L2.99-3.67C2.99-1.78 4.13-0.66 6-0.66ZM11.74 3.32L23.53 3.32C24.05 3.32 24.48 2.89 24.48 2.37C24.48 1.84 24.05 1.42 23.53 1.42L11.74 1.42C11.23 1.42 10.79 1.84 10.79 2.37C10.79 2.89 11.23 3.32 11.74 3.32Z" fill="currentColor"/>
</svg>