<svg xmlns="http://www.w3.org/2000/svg" viewBox="0 0 24 24" width="24" height="24">
  <title>video.bubble.fill</title>
  <path transform="matrix(0.7743496672716274, 0, 0, 0.7743496672716274, -0.31397459165154284, 17.939201451905625)" d="M9.95 4.49C10.41 4.49 10.75 4.25 11.30 3.74L15.53-0.13L23.45-0.13C26.94-0.13 28.82-2.05 28.82-5.48L28.82-14.46C28.82-17.89 26.94-19.83 23.45-19.83L8.36-19.83C4.86-19.83 2.99-17.91 2.99-14.46L2.99-5.48C2.99-2.04 4.86-0.13 8.36-0.13L8.91-0.13L8.91 3.28C8.91 4.01 9.28 4.49 9.95 4.49ZM10.86-5.11C9.67-5.11 8.94-5.81 8.94-7.01L8.94-12.95C8.94-14.16 9.71-14.85 10.86-14.85L17.31-14.85C18.53-14.85 19.17-14.16 19.17-12.95L19.17-7.01C19.17-5.81 18.46-5.11 17.25-5.11ZM19.85-8.33L19.85-11.63L22.21-13.65C22.41-13.82 22.66-13.92 22.88-13.92C23.34-13.92 23.65-13.59 23.65-13.10L23.65-6.87C23.65-6.36 23.34-6.02 22.88-6.02C22.66-6.02 22.43-6.13 22.21-6.32Z" fill="currentColor"/>
</svg>