<svg xmlns="http://www.w3.org/2000/svg" viewBox="0 0 24 24" width="24" height="24">
  
  <path transform="matrix(0.8366013071895425, 0, 0, 0.8366013071895425, 0.2450980392156863, 19.07843137254902)" d="M14.05 3.49C20.65 3.49 26.00-1.88 26.00-8.46C26.00-15.06 20.65-20.41 14.05-20.41C7.46-20.41 2.10-15.06 2.10-8.46C2.10-1.88 7.46 3.49 14.05 3.49ZM10.25-14.47L11.85-14.47C12.38-14.47 12.73-14.12 12.73-13.58C12.73-13.08 12.38-12.71 11.85-12.71L10.50-12.71C9.95-12.71 9.70-12.46 9.70-11.91L9.70-10.59C9.70-10.05 9.36-9.70 8.82-9.70C8.30-9.70 7.95-10.07 7.95-10.59L7.95-12.20C7.95-13.69 8.73-14.47 10.25-14.47ZM17.67-14.47C19.20-14.47 19.98-13.69 19.98-12.20L19.98-10.59C19.98-10.07 19.63-9.70 19.10-9.70C18.56-9.70 18.22-10.05 18.22-10.59L18.22-11.91C18.22-12.46 17.98-12.71 17.43-12.71L16.08-12.71C15.55-12.71 15.20-13.08 15.20-13.58C15.20-14.12 15.55-14.47 16.08-14.47ZM10.25-2.44C8.73-2.44 7.95-3.21 7.95-4.70L7.95-6.30C7.95-6.84 8.30-7.20 8.82-7.20C9.36-7.20 9.70-6.86 9.70-6.30L9.70-5.00C9.70-4.44 9.95-4.20 10.50-4.20L11.85-4.20C12.38-4.20 12.73-3.82 12.73-3.32C12.73-2.79 12.38-2.44 11.85-2.44ZM17.67-2.44L16.08-2.44C15.55-2.44 15.20-2.79 15.20-3.32C15.20-3.82 15.55-4.20 16.08-4.20L17.43-4.20C17.98-4.20 18.22-4.44 18.22-5.00L18.22-6.30C18.22-6.86 18.56-7.20 19.10-7.20C19.63-7.20 19.98-6.84 19.98-6.30L19.98-4.70C19.98-3.21 19.20-2.44 17.67-2.44Z" fill="currentColor"/>
</svg>