<svg xmlns="http://www.w3.org/2000/svg" viewBox="0 0 24 24" width="24" height="24">
  <title>voiceover</title>
  <path transform="matrix(0.7055256993247898, 0, 0, 0.7055256993247898, 3.653575857792476, 17.923935510541547)" d="M14.05 3.49C20.58 3.49 26.00-1.93 26.00-8.46C26.00-15 20.57-20.41 14.04-20.41C7.93-20.41 2.82-15.70 2.18-9.76C2.75-9.87 3.59-9.93 4.21-9.84C4.85-14.71 8.98-18.42 14.04-18.42C19.56-18.42 24-13.99 24.01-8.46C24.02-2.93 19.57 1.50 14.05 1.50C12.76 1.50 11.55 1.25 10.44 0.82C10.16 1.43 9.81 2.00 9.38 2.52C10.80 3.15 12.39 3.49 14.05 3.49ZM14.03-13.18C14.87-13.18 15.55-13.88 15.55-14.71C15.55-15.55 14.87-16.23 14.03-16.23C13.18-16.23 12.50-15.55 12.50-14.71C12.50-13.88 13.18-13.18 14.03-13.18ZM14.03-12.42C12.38-12.42 10.01-12.69 8.87-12.87C8.77-12.88 8.66-12.91 8.55-12.91C8.25-12.91 7.96-12.67 7.96-12.25C7.96-11.93 8.14-11.66 8.45-11.59C8.82-11.47 11.50-11.17 11.82-11.10C12.16-11.03 12.36-10.76 12.38-10.35C12.38-9.74 12.38-7.79 12.22-6.91C12.08-6.04 11.06-1.79 11.02-1.62C10.89-1.16 11.17-0.75 11.63-0.75C11.95-0.75 12.18-0.94 12.29-1.37C12.50-2.23 13.23-5.16 13.48-5.87C13.62-6.38 13.75-6.56 14.03-6.56C14.32-6.56 14.44-6.38 14.61-5.87C14.81-5.16 15.56-2.23 15.77-1.37C15.89-0.94 16.11-0.75 16.44-0.75C16.90-0.75 17.17-1.16 17.05-1.62C17.02-1.79 15.97-6.04 15.84-6.91C15.70-7.79 15.70-9.74 15.70-10.35C15.70-10.76 15.90-11.03 16.23-11.10C16.57-11.17 19.24-11.46 19.62-11.59C19.92-11.67 20.11-11.93 20.11-12.25C20.11-12.67 19.79-12.91 19.51-12.91C19.41-12.91 19.30-12.88 19.20-12.87C18.06-12.69 15.70-12.42 14.03-12.42ZM3.61 3.62C6.83 3.62 9.56 0.93 9.56-2.33C9.56-5.60 6.88-8.29 3.61-8.29C0.35-8.29-2.34-5.59-2.34-2.33C-2.34 0.95 0.35 3.62 3.61 3.62ZM0.18-1.76L0.18-2.91C0.18-3.36 0.40-3.57 0.82-3.57L1.70-3.57C1.72-3.57 1.76-3.60 1.78-3.61L3.09-4.88C3.25-5.00 3.36-5.06 3.50-5.06C3.71-5.06 3.87-4.92 3.87-4.71L3.87 0.04C3.87 0.23 3.71 0.39 3.50 0.39C3.36 0.39 3.25 0.33 3.09 0.20L1.78-1.05C1.76-1.08 1.72-1.09 1.70-1.09L0.82-1.09C0.40-1.09 0.18-1.31 0.18-1.76ZM6.07-0.12C5.91-0.25 5.89-0.48 6.01-0.64C6.32-1.11 6.50-1.71 6.50-2.34C6.50-2.96 6.33-3.55 6-4.02C5.87-4.21 5.91-4.44 6.08-4.56C6.25-4.65 6.45-4.63 6.59-4.46C7.01-3.90 7.23-3.14 7.23-2.34C7.23-1.55 7.01-0.79 6.60-0.21C6.46-0.05 6.23-0.01 6.07-0.12ZM4.88-0.94C4.70-1.07 4.68-1.29 4.82-1.46C4.97-1.70 5.05-1.99 5.05-2.34C5.05-2.67 4.96-3 4.82-3.21C4.68-3.38 4.70-3.64 4.89-3.75C5.06-3.86 5.27-3.82 5.40-3.64C5.65-3.30 5.80-2.82 5.80-2.34C5.80-1.85 5.65-1.37 5.39-1.03C5.26-0.84 5.04-0.81 4.88-0.94Z" fill="currentColor"/>
</svg>