<svg xmlns="http://www.w3.org/2000/svg" viewBox="0 0 24 24" width="24" height="24">
  <title>w.circle.fill</title>
  <path transform="matrix(0.8366013071895425, 0, 0, 0.8366013071895425, 0.2450980392156863, 19.07843137254902)" d="M14.05 3.49C20.65 3.49 26.00-1.88 26.00-8.46C26.00-15.06 20.65-20.41 14.05-20.41C7.46-20.41 2.10-15.06 2.10-8.46C2.10-1.88 7.46 3.49 14.05 3.49ZM10.79-2.80C10.17-2.80 9.75-3.14 9.60-3.76L7.21-12.93C7.17-13.05 7.16-13.18 7.16-13.29C7.16-13.84 7.52-14.21 8.09-14.21C8.66-14.21 8.92-13.95 9.07-13.25L10.88-5.58L10.96-5.58L12.97-13.39C13.10-13.93 13.46-14.19 14.04-14.19C14.61-14.19 14.95-13.93 15.09-13.39L17.12-5.58L17.20-5.58L19.01-13.25C19.16-13.95 19.43-14.21 20.00-14.21C20.55-14.21 20.93-13.84 20.93-13.29C20.93-13.18 20.92-13.05 20.87-12.93L18.48-3.76C18.33-3.14 17.91-2.80 17.26-2.80C16.63-2.80 16.18-3.13 16.04-3.74L14.07-11.34L13.99-11.34L12.04-3.74C11.89-3.13 11.45-2.80 10.79-2.80Z" fill="currentColor"/>
</svg>