<svg xmlns="http://www.w3.org/2000/svg" viewBox="0 0 24 24" width="24" height="24">
  <title>wake.circle.fill</title>
  <path transform="matrix(0.8366013071895425, 0, 0, 0.8366013071895425, 0.2450980392156863, 19.068627450980394)" d="M14.05 3.50C20.65 3.50 26.00-1.85 26.00-8.45C26.00-15.04 20.65-20.40 14.05-20.40C7.46-20.40 2.10-15.04 2.10-8.45C2.10-1.85 7.46 3.50 14.05 3.50ZM14.06-15.91C18.19-15.91 21.53-12.57 21.53-8.45C21.53-4.32 18.19-0.98 14.06-0.98C9.94-0.98 6.60-4.32 6.60-8.45C6.60-12.57 9.94-15.91 14.06-15.91ZM9.60-11.99L18.56-11.99C17.52-13.31 15.89-14.17 14.07-14.17C12.26-14.17 10.63-13.31 9.60-11.99ZM8.36-8.45C8.36-5.29 10.91-2.73 14.07-2.73C17.24-2.73 19.79-5.29 19.79-8.45C19.79-9.13 19.68-9.77 19.46-10.38L8.68-10.38C8.47-9.77 8.36-9.13 8.36-8.45Z" fill="currentColor"/>
</svg>