<svg xmlns="http://www.w3.org/2000/svg" viewBox="0 0 24 24" width="24" height="24">
  <title>wallet.sensor.tag.radiowaves.left.and.right</title>
  <path transform="matrix(0.4769890068939817, 0, 0, 0.4769890068939817, 0.9994410285075461, 16.038569032979318)" d="M23.06 1.82C28.75 1.82 33.35-2.78 33.35-8.46C33.35-14.14 28.75-18.75 23.06-18.75C17.38-18.75 12.77-14.14 12.77-8.46C12.77-2.78 17.38 1.82 23.06 1.82ZM23.06-0.07C18.42-0.07 14.66-3.82 14.66-8.46C14.66-13.10 18.42-16.86 23.06-16.86C27.70-16.86 31.46-13.10 31.46-8.46C31.46-3.82 27.70-0.07 23.06-0.07ZM39.50-0.45C39.88-0.01 40.54-0.01 40.98-0.50C42.93-2.63 44.03-5.43 44.03-8.46C44.03-11.50 42.93-14.31 40.98-16.42C40.54-16.91 39.88-16.92 39.50-16.48C39.13-16.05 39.25-15.50 39.67-15.02C41.24-13.28 42.12-10.98 42.12-8.46C42.12-5.94 41.24-3.64 39.67-1.90C39.25-1.42 39.13-0.87 39.50-0.45ZM6.62-0.45C7.00-0.87 6.88-1.42 6.46-1.90C4.89-3.64 4.01-5.94 4.01-8.46C4.01-10.98 4.89-13.28 6.46-15.02C6.88-15.50 7.00-16.05 6.62-16.48C6.25-16.92 5.59-16.91 5.14-16.42C3.20-14.31 2.10-11.50 2.10-8.46C2.10-5.43 3.20-2.63 5.14-0.50C5.59-0.01 6.25-0.01 6.62-0.45ZM9.90-3.79C10.28-4.21 10.13-4.73 9.75-5.24C9.05-6.12 8.71-7.24 8.71-8.46C8.71-9.68 9.05-10.82 9.75-11.68C10.13-12.19 10.28-12.71 9.90-13.14C9.52-13.58 8.81-13.58 8.40-13.05C7.38-11.79 6.80-10.18 6.80-8.46C6.80-6.74 7.38-5.13 8.40-3.87C8.81-3.34 9.52-3.35 9.90-3.79ZM36.22-3.79C36.61-3.35 37.31-3.34 37.72-3.87C38.74-5.13 39.33-6.74 39.33-8.46C39.33-10.18 38.74-11.79 37.72-13.05C37.31-13.58 36.61-13.58 36.22-13.14C35.85-12.71 36-12.19 36.38-11.68C37.08-10.82 37.42-9.68 37.42-8.46C37.42-7.24 37.08-6.12 36.38-5.24C36-4.73 35.85-4.21 36.22-3.79ZM19.09-3.77L27.04-3.77C28.44-3.77 29.04-4.38 29.04-5.77L29.04-11.14C29.04-12.52 28.44-13.11 27.04-13.11L19.09-13.11C17.68-13.11 17.09-12.52 17.09-11.14L17.09-5.77C17.09-4.38 17.68-3.77 19.09-3.77ZM17.99-11.26L17.99-11.47C17.99-11.93 18.30-12.20 18.77-12.20L27.34-12.20C27.82-12.20 28.14-11.93 28.14-11.47L28.14-11.26ZM17.99-9.81L17.99-10.22C17.99-10.56 18.21-10.76 18.59-10.76L27.54-10.76C27.91-10.76 28.14-10.56 28.14-10.22L28.14-9.81ZM17.99-8.34L17.99-8.77C17.99-9.11 18.21-9.30 18.59-9.30L27.54-9.30C27.91-9.30 28.14-9.11 28.14-8.77L28.14-8.34L25.05-8.34C24.74-8.34 24.50-8.29 24.30-7.98C23.88-7.37 23.59-7.10 23.06-7.10C22.54-7.10 22.24-7.37 21.82-7.98C21.61-8.29 21.39-8.34 21.07-8.34Z" fill="currentColor"/>
</svg>