<svg xmlns="http://www.w3.org/2000/svg" viewBox="0 0 24 24" width="24" height="24">
  <title>water.waves.and.arrow.trianglehead.up</title>
  <path transform="matrix(0.8119251506501745, 0, 0, 0.8119251506501745, -0.42626070409134176, 18.298763082778308)" d="M2.99-14.61C2.99-14.16 3.35-13.78 3.82-13.78L3.88-13.78C7.52-13.78 7.84-16.16 9.74-16.16C11.60-16.16 12.11-13.78 15.30-13.78C18.49-13.78 19.01-16.16 20.87-16.16C22.77-16.16 23.07-13.78 26.73-13.78L26.79-13.78C27.25-13.78 27.62-14.16 27.62-14.61C27.62-15.07 27.25-15.43 26.79-15.43L26.73-15.43C25.46-15.43 24.76-15.96 23.88-16.58C23.12-17.13 22.17-17.81 20.87-17.81C19.52-17.81 18.56-17.10 17.80-16.52C16.99-15.91 16.35-15.43 15.30-15.43C14.25-15.43 13.62-15.91 12.81-16.52C12.05-17.10 11.09-17.81 9.74-17.81C8.44-17.81 7.49-17.13 6.73-16.58C5.85-15.96 5.13-15.43 3.88-15.43L3.82-15.43C3.35-15.43 2.99-15.07 2.99-14.61ZM12.21-5.86L14.37-5.86L14.37 1.38C14.37 1.88 14.79 2.30 15.29 2.30C15.80 2.30 16.23 1.88 16.23 1.38L16.23-5.86L18.38-5.86C19.11-5.86 19.42-6.59 19.00-7.14L15.98-11.09C15.56-11.63 15.04-11.64 14.60-11.09L11.59-7.15C11.16-6.59 11.46-5.86 12.21-5.86ZM9.74-10.50C8.44-10.50 7.49-9.82 6.73-9.27C5.85-8.64 5.13-8.12 3.88-8.12L3.82-8.12C3.35-8.12 2.99-7.75 2.99-7.29C2.99-6.83 3.35-6.47 3.82-6.47L3.88-6.47C7.52-6.47 7.84-8.85 9.74-8.85C10.11-8.85 10.39-8.72 10.66-8.58L11.71-9.93C11.14-10.24 10.51-10.50 9.74-10.50ZM26.79-8.12L26.73-8.12C25.46-8.12 24.76-8.64 23.88-9.27C23.12-9.82 22.17-10.50 20.87-10.50C20.09-10.50 19.45-10.24 18.88-9.91L19.92-8.57C20.20-8.73 20.48-8.85 20.87-8.85C22.77-8.85 23.07-6.47 26.73-6.47L26.79-6.47C27.25-6.47 27.62-6.83 27.62-7.29C27.62-7.75 27.25-8.12 26.79-8.12Z" fill="currentColor"/>
</svg>