<svg xmlns="http://www.w3.org/2000/svg" viewBox="0 0 24 24" width="24" height="24">
  <title>waterbottle</title>
  <path transform="matrix(0.7182940516273849, 0, 0, 0.7182940516273849, 5.0218855218855225, 18.077441077441076)" d="M16.44 1.45L16.44-13.17C16.44-14.77 16.21-15.89 15.36-17.07L13.64-19.49C13.96-19.65 14.17-19.99 14.17-20.41L14.17-21.34C14.17-21.95 13.72-22.38 13.13-22.38L6.30-22.38C5.68-22.38 5.26-21.95 5.26-21.34L5.26-20.41C5.26-19.99 5.46-19.66 5.78-19.49L4.04-17.07C3.20-15.89 2.99-14.77 2.99-13.17L2.99 1.45C2.99 4.03 4.28 5.46 6.62 5.46L12.80 5.46C15.13 5.46 16.44 4.03 16.44 1.45ZM5.66-16.09L7.97-19.37L11.44-19.37L13.76-16.09C14.39-15.18 14.53-14.59 14.55-13.43L4.88-13.43C4.89-14.59 5.02-15.18 5.66-16.09ZM4.88-0.46L4.88-11.95L14.55-11.95L14.55-0.46ZM9.70-2.40C11.36-2.40 12.42-3.46 12.42-5.03C12.42-5.86 12.08-6.52 11.87-6.93C11.46-7.88 10.73-9.07 10.13-9.98C10.01-10.17 9.87-10.27 9.70-10.27C9.55-10.27 9.41-10.17 9.28-9.98C8.67-9.07 7.97-7.88 7.54-6.93C7.35-6.52 6.98-5.86 6.98-5.03C6.98-3.46 8.06-2.40 9.70-2.40ZM6.62 3.57C5.47 3.57 4.88 2.85 4.88 1.45L4.88 1.02L14.55 1.02L14.55 1.45C14.55 2.85 13.95 3.57 12.80 3.57Z" fill="currentColor"/>
</svg>