<svg xmlns="http://www.w3.org/2000/svg" viewBox="0 0 24 24" width="24" height="24">
  <title>waveform.circle</title>
  <path transform="matrix(0.8366013071895425, 0, 0, 0.8366013071895425, 0.2450980392156863, 19.07843137254902)" d="M14.05 3.49C20.65 3.49 26.00-1.86 26.00-8.46C26.00-15.06 20.65-20.41 14.05-20.41C7.45-20.41 2.10-15.06 2.10-8.46C2.10-1.86 7.45 3.49 14.05 3.49ZM14.05 1.50C8.54 1.50 4.09-2.95 4.09-8.46C4.09-13.97 8.54-18.42 14.05-18.42C19.56-18.42 24.01-13.97 24.01-8.46C24.01-2.95 19.56 1.50 14.05 1.50ZM12.86-1.98C13.24-1.98 13.55-2.29 13.55-2.70L13.55-14.25C13.55-14.65 13.24-14.95 12.86-14.95C12.46-14.95 12.14-14.65 12.14-14.25L12.14-2.70C12.14-2.27 12.45-1.98 12.86-1.98ZM17.60-3.62C18-3.62 18.30-3.93 18.30-4.32L18.30-12.62C18.30-13.02 18-13.32 17.60-13.32C17.20-13.32 16.90-13.02 16.90-12.62L16.90-4.32C16.90-3.93 17.20-3.62 17.60-3.62ZM10.48-4.73C10.88-4.73 11.18-5.05 11.18-5.45L11.18-11.51C11.18-11.91 10.88-12.21 10.48-12.21C10.08-12.21 9.77-11.91 9.77-11.51L9.77-5.45C9.77-5.05 10.08-4.73 10.48-4.73ZM15.22-5.81C15.62-5.81 15.93-6.12 15.93-6.50L15.93-10.44C15.93-10.83 15.62-11.14 15.22-11.14C14.84-11.14 14.52-10.83 14.52-10.44L14.52-6.50C14.52-6.12 14.84-5.81 15.22-5.81ZM19.99-6.27C20.39-6.27 20.68-6.56 20.68-6.97L20.68-9.97C20.68-10.38 20.39-10.68 19.99-10.68C19.58-10.68 19.28-10.37 19.28-9.97L19.28-6.97C19.28-6.57 19.58-6.27 19.99-6.27ZM8.09-6.74C8.50-6.74 8.80-7.05 8.80-7.44L8.80-9.50C8.80-9.89 8.50-10.21 8.09-10.21C7.70-10.21 7.39-9.89 7.39-9.50L7.39-7.44C7.39-7.05 7.71-6.74 8.09-6.74Z" fill="currentColor"/>
</svg>