<svg xmlns="http://www.w3.org/2000/svg" viewBox="0 0 24 24" width="24" height="24">
  <title>wifi.exclamationmark.circle</title>
  <path transform="matrix(0.8366013071895425, 0, 0, 0.8366013071895425, 0.2450980392156863, 19.07843137254902)" d="M14.05 3.49C20.65 3.49 26.00-1.86 26.00-8.46C26.00-15.06 20.65-20.41 14.05-20.41C7.45-20.41 2.10-15.06 2.10-8.46C2.10-1.86 7.45 3.49 14.05 3.49ZM14.05 1.50C8.54 1.50 4.09-2.95 4.09-8.46C4.09-13.97 8.54-18.42 14.05-18.42C19.56-18.42 24.01-13.97 24.01-8.46C24.01-2.95 19.56 1.50 14.05 1.50ZM14.04-6.15C14.39-6.15 14.63-6.40 14.64-6.75C14.66-9.15 14.67-11.58 14.71-13.98C14.71-14.37 14.38-14.63 14.03-14.63C13.68-14.63 13.36-14.37 13.36-13.98C13.39-11.58 13.42-9.15 13.44-6.75C13.45-6.40 13.69-6.15 14.04-6.15ZM6.62-10.64C6.49-10.48 6.52-10.28 6.64-10.14L7.52-9.22C7.68-9.05 7.95-9.06 8.12-9.25C9.29-10.49 10.76-11.30 12.42-11.61C12.41-12.28 12.41-12.96 12.40-13.63L12.40-13.76C10.08-13.37 7.91-12.22 6.62-10.64ZM21.46-10.64C20.16-12.22 17.98-13.38 15.64-13.76L15.64-13.62C15.64-12.95 15.63-12.28 15.62-11.61C17.31-11.30 18.81-10.49 19.98-9.23C20.14-9.07 20.38-9.07 20.54-9.23L21.42-10.14C21.56-10.28 21.57-10.48 21.46-10.64ZM9.19-8.04C9.05-7.88 9.06-7.69 9.22-7.54L10.20-6.55C10.37-6.36 10.62-6.36 10.80-6.57C11.26-7.04 11.82-7.44 12.46-7.68L12.46-8.04C12.45-8.67 12.45-9.30 12.43-9.96C11.12-9.64 9.95-8.96 9.19-8.04ZM18.89-8.04C18.12-8.96 16.93-9.66 15.61-9.96C15.61-9.33 15.60-8.70 15.60-8.06L15.60-7.69C16.24-7.45 16.84-7.05 17.30-6.56C17.47-6.36 17.70-6.38 17.87-6.55L18.87-7.54C19.01-7.68 19.02-7.89 18.89-8.04ZM14.03-3.04C14.59-3.04 15.05-3.49 15.05-4.05C15.05-4.61 14.59-5.06 14.03-5.06C13.49-5.06 13.02-4.62 13.02-4.05C13.02-3.49 13.49-3.04 14.03-3.04Z" fill="currentColor"/>
</svg>