<svg xmlns="http://www.w3.org/2000/svg" viewBox="0 0 24 24" width="24" height="24">
  <title>wind.snow</title>
  <path transform="matrix(0.8313505074160813, 0, 0, 0.8313505074160813, -0.49517564402810343, 19.852365339578455)" d="M23.41-16.59C23.66-16.59 23.86-16.82 23.84-17.09L23.77-18.06L24.59-17.51C24.77-17.38 25.08-17.43 25.22-17.64C25.37-17.86 25.27-18.18 25.01-18.28L24.14-18.71L25.03-19.16C25.25-19.28 25.36-19.56 25.23-19.79C25.11-20.00 24.79-20.07 24.57-19.92L23.77-19.37L23.85-20.33C23.87-20.60 23.67-20.84 23.41-20.84C23.13-20.84 22.93-20.63 22.96-20.34L23.03-19.36L22.20-19.92C21.98-20.06 21.69-20.02 21.57-19.79C21.43-19.56 21.53-19.28 21.76-19.16L22.64-18.71L21.77-18.28C21.53-18.18 21.42-17.88 21.56-17.64C21.68-17.43 21.98-17.37 22.20-17.51L23.03-18.06L22.97-17.09C22.96-16.80 23.14-16.59 23.41-16.59ZM4.07-11.80C5.75-12.34 7.50-12.62 9.16-12.62C11.32-12.62 12.90-12.27 14.94-12.27C17.05-12.27 18.36-13.70 18.36-15.56C18.36-17.47 16.90-18.84 15.09-18.84C13.76-18.84 12.59-18 12.09-16.89C11.91-16.50 11.98-16.05 12.39-15.84C12.76-15.66 13.22-15.77 13.46-16.24C13.72-16.84 14.36-17.31 15.09-17.31C16.07-17.31 16.83-16.63 16.83-15.56C16.83-14.50 16.09-13.79 14.94-13.79C13.00-13.79 11.39-14.14 9.16-14.14C7.25-14.14 5.32-13.80 3.60-13.25C3.11-13.11 2.92-12.69 3.04-12.29C3.15-11.88 3.54-11.65 4.07-11.80ZM22.39-6.32C25.13-6.32 27.06-8.05 27.06-10.48C27.06-12.87 25.22-14.60 22.93-14.60C20.81-14.60 19.24-13.13 18.96-11.19C18.89-10.70 19.16-10.31 19.58-10.25C20.02-10.20 20.39-10.46 20.48-11.02C20.68-12.25 21.70-13.08 22.93-13.08C24.36-13.08 25.52-12.01 25.52-10.48C25.52-8.92 24.29-7.84 22.39-7.84C18.82-7.84 14.96-9.88 10.28-9.88C7.86-9.88 5.66-9.49 3.60-8.77C3.12-8.59 2.92-8.18 3.04-7.78C3.15-7.37 3.55-7.13 4.07-7.30C5.98-8.03 7.97-8.34 10.28-8.34C14.95-8.34 18.45-6.32 22.39-6.32ZM14.95 1.95C16.76 1.95 18.15 0.61 18.15-1.30C18.15-4.07 15.33-5.61 10.13-5.61C7.95-5.61 5.59-5.19 3.60-4.51C3.12-4.34 2.92-3.93 3.04-3.53C3.15-3.12 3.55-2.87 4.07-3.05C5.93-3.71 8.02-4.08 10.13-4.08C14.38-4.08 16.63-3.01 16.63-1.30C16.63-0.23 15.88 0.42 14.95 0.42C14.03 0.42 13.46-0.20 13.30-1.18C13.23-1.62 12.91-1.98 12.41-1.95C11.88-1.91 11.67-1.46 11.74-0.98C11.95 0.64 13.16 1.95 14.95 1.95ZM23.41 0.21C23.66 0.21 23.86-0.01 23.84-0.27L23.77-1.24L24.59-0.69C24.77-0.56 25.08-0.61 25.22-0.83C25.37-1.05 25.27-1.37 25.01-1.46L24.14-1.91L25.03-2.36C25.25-2.46 25.36-2.74 25.23-2.99C25.11-3.20 24.79-3.27 24.57-3.12L23.77-2.57L23.85-3.53C23.87-3.79 23.67-4.02 23.41-4.02C23.13-4.02 22.93-3.81 22.96-3.54L23.03-2.55L22.20-3.12C21.98-3.26 21.69-3.21 21.57-2.99C21.43-2.74 21.53-2.47 21.76-2.36L22.64-1.91L21.77-1.48C21.53-1.37 21.42-1.08 21.56-0.83C21.68-0.62 21.98-0.56 22.20-0.70L23.03-1.25L22.97-0.27C22.96 0 23.14 0.21 23.41 0.21Z" fill="currentColor"/>
</svg>