<svg xmlns="http://www.w3.org/2000/svg" viewBox="0 0 24 24" width="24" height="24">
  <title>xmark.octagon.fill</title>
  <path transform="matrix(0.8304947283049473, 0, 0, 0.8304947283049473, -0.4817518248175183, 19.02676399026764)" d="M11.47 3.13L18.59 3.13C20.07 3.13 20.78 2.65 21.55 1.82L26.10-3.20C26.86-4.04 27.07-4.62 27.07-5.78L27.07-11.13C27.07-12.30 26.86-12.87 26.10-13.71L21.55-18.73C20.78-19.56 20.07-20.05 18.59-20.05L11.47-20.05C9.98-20.05 9.27-19.56 8.51-18.73L3.96-13.71C3.19-12.87 2.99-12.30 2.99-11.13L2.99-5.78C2.99-4.62 3.19-4.04 3.96-3.20L8.51 1.82C9.27 2.65 9.98 3.13 11.47 3.13ZM11.10-3.54C10.56-3.54 10.13-3.97 10.13-4.51C10.13-4.77 10.23-5.02 10.42-5.19L13.66-8.45L10.42-11.70C10.23-11.88 10.13-12.12 10.13-12.38C10.13-12.93 10.56-13.34 11.10-13.34C11.37-13.34 11.58-13.24 11.77-13.07L15.04-9.81L18.33-13.08C18.53-13.28 18.74-13.36 19.00-13.36C19.54-13.36 19.96-12.94 19.96-12.40C19.96-12.13 19.89-11.92 19.68-11.71L16.42-8.45L19.66-5.20C19.86-5.03 19.95-4.78 19.95-4.51C19.95-3.97 19.52-3.54 18.97-3.54C18.70-3.54 18.46-3.63 18.28-3.82L15.04-7.08L11.80-3.82C11.61-3.63 11.37-3.54 11.10-3.54Z" fill="currentColor"/>
</svg>