<svg xmlns="http://www.w3.org/2000/svg" viewBox="0 0 24 24" width="24" height="24">
  
  <path transform="matrix(0.8507809903622466, 0, 0, 0.8507809903622466, 0.21535393818544368, 19.19840478564307)" d="M13.85 3.29C20.34 3.29 25.61-1.97 25.61-8.46C25.61-14.95 20.34-20.21 13.85-20.21C7.36-20.21 2.10-14.95 2.10-8.46C2.10-1.97 7.36 3.29 13.85 3.29ZM13.85 1.77C8.19 1.77 3.62-2.80 3.62-8.46C3.62-14.12 8.19-18.70 13.85-18.70C19.51-18.70 24.09-14.12 24.09-8.46C24.09-2.80 19.51 1.77 13.85 1.77ZM10.37-3.50C12.64-3.50 13.25-6.22 13.25-8.46C13.25-10.70 12.64-13.42 10.37-13.42C8.11-13.42 7.50-10.70 7.50-8.46C7.50-6.22 8.11-3.50 10.37-3.50ZM15.21-3.73L19.25-3.73C19.59-3.73 19.80-3.95 19.80-4.28C19.80-4.63 19.58-4.84 19.25-4.84L16.25-4.84L16.25-4.92L18.18-7.46C19.25-8.86 19.61-9.71 19.61-10.72C19.61-12.27 18.64-13.42 17.07-13.42C15.63-13.42 14.59-12.18 14.59-10.95C14.59-10.62 14.79-10.35 15.15-10.35C15.47-10.35 15.67-10.50 15.75-10.80C15.95-11.71 16.30-12.32 17.07-12.32C17.92-12.32 18.34-11.53 18.34-10.66C18.34-9.75 17.81-8.87 17.13-7.98L14.89-5.02C14.73-4.78 14.57-4.56 14.57-4.28C14.57-3.95 14.79-3.73 15.21-3.73ZM10.37-4.63C9.20-4.63 8.86-6.56 8.86-8.46C8.86-10.36 9.20-12.29 10.37-12.29C11.55-12.29 11.89-10.36 11.89-8.46C11.89-6.56 11.55-4.63 10.37-4.63Z" fill="currentColor"/>
</svg>