<svg xmlns="http://www.w3.org/2000/svg" viewBox="0 0 24 24" width="24" height="24">
  
  <path transform="matrix(0.8507809903622466, 0, 0, 0.8507809903622466, 0.21535393818544368, 19.19840478564307)" d="M13.85 3.29C20.34 3.29 25.61-1.97 25.61-8.46C25.61-14.95 20.34-20.21 13.85-20.21C7.36-20.21 2.10-14.95 2.10-8.46C2.10-1.97 7.36 3.29 13.85 3.29ZM13.85 1.77C8.19 1.77 3.62-2.80 3.62-8.46C3.62-14.12 8.19-18.70 13.85-18.70C19.51-18.70 24.09-14.12 24.09-8.46C24.09-2.80 19.51 1.77 13.85 1.77ZM10.17-3.50C12.45-3.50 13.05-6.22 13.05-8.46C13.05-10.70 12.45-13.42 10.17-13.42C7.91-13.42 7.29-10.70 7.29-8.46C7.29-6.22 7.91-3.50 10.17-3.50ZM17.18-3.53C18.77-3.53 19.98-4.59 19.98-6.33C19.98-7.70 19.20-8.51 18.14-8.61L18.14-8.66C19.20-8.93 19.71-9.89 19.71-10.89C19.71-12.43 18.61-13.38 17.13-13.38C15.94-13.38 15.01-12.69 14.67-11.66C14.61-11.43 14.59-11.21 14.59-11.04C14.59-10.72 14.79-10.48 15.16-10.48C15.50-10.48 15.68-10.63 15.76-10.97C15.94-11.72 16.36-12.28 17.13-12.28C17.99-12.28 18.43-11.59 18.43-10.73C18.43-9.80 17.88-9.11 16.93-9.11L16.57-9.11C16.23-9.11 16.04-8.89 16.04-8.59C16.04-8.27 16.25-8.07 16.57-8.07L16.96-8.07C18.04-8.07 18.64-7.49 18.64-6.35C18.64-5.44 18.18-4.65 17.18-4.65C16.24-4.65 15.77-5.32 15.64-5.95C15.55-6.28 15.36-6.45 15.04-6.45C14.67-6.45 14.43-6.22 14.43-5.85C14.43-5.66 14.47-5.44 14.53-5.25C14.86-4.18 15.94-3.53 17.18-3.53ZM10.17-4.63C9-4.63 8.66-6.56 8.66-8.46C8.66-10.36 9-12.29 10.17-12.29C11.36-12.29 11.70-10.36 11.70-8.46C11.70-6.56 11.36-4.63 10.17-4.63Z" fill="currentColor"/>
</svg>