<svg xmlns="http://www.w3.org/2000/svg" viewBox="0 0 24 24" width="24" height="24">
  <title>06.circle.fill</title>
  <path transform="matrix(0.8507809903622466, 0, 0, 0.8507809903622466, 0.21535393818544368, 19.19840478564307)" d="M13.85 3.29C20.33 3.29 25.61-1.98 25.61-8.46C25.61-14.94 20.33-20.21 13.85-20.21C7.37-20.21 2.10-14.94 2.10-8.46C2.10-1.98 7.37 3.29 13.85 3.29ZM10.04-3.40C7.73-3.40 7.10-6.18 7.10-8.46C7.10-10.76 7.73-13.52 10.04-13.52C12.35-13.52 12.98-10.76 12.98-8.46C12.98-6.18 12.35-3.40 10.04-3.40ZM17.43-3.40C15.11-3.40 14.41-6.06 14.41-8.31C14.41-10.63 15.07-13.50 17.45-13.50C18.60-13.50 19.56-12.86 19.82-11.81C19.88-11.65 19.90-11.50 19.90-11.38C19.90-11.05 19.71-10.79 19.32-10.79C19.00-10.79 18.82-10.97 18.68-11.27C18.47-11.88 18.06-12.35 17.41-12.35C15.93-12.35 15.74-9.75 15.74-8.31L15.74-8.16L15.79-8.16C16.04-9.21 16.77-9.95 17.80-9.95C19.38-9.95 20.17-8.39 20.17-6.79C20.17-4.95 19.18-3.40 17.43-3.40ZM10.04-4.56C11.24-4.56 11.58-6.52 11.58-8.46C11.58-10.41 11.24-12.36 10.04-12.36C8.85-12.36 8.51-10.41 8.51-8.46C8.51-6.52 8.85-4.56 10.04-4.56ZM17.41-4.55C18.36-4.55 18.82-5.72 18.82-6.71C18.83-7.72 18.40-8.86 17.40-8.86C16.44-8.86 15.95-7.77 15.95-6.77C15.95-5.79 16.39-4.55 17.41-4.55Z" fill="currentColor"/>
</svg>