<svg xmlns="http://www.w3.org/2000/svg" viewBox="0 0 24 24" width="24" height="24">
  <title>09.circle.fill</title>
  <path transform="matrix(0.8507809903622466, 0, 0, 0.8507809903622466, 0.21535393818544368, 19.19840478564307)" d="M13.85 3.29C20.33 3.29 25.61-1.98 25.61-8.46C25.61-14.94 20.33-20.21 13.85-20.21C7.37-20.21 2.10-14.94 2.10-8.46C2.10-1.98 7.37 3.29 13.85 3.29ZM10.21-3.40C7.90-3.40 7.27-6.18 7.27-8.46C7.27-10.76 7.90-13.52 10.21-13.52C12.53-13.52 13.16-10.76 13.16-8.46C13.16-6.18 12.53-3.40 10.21-3.40ZM16.88-6.96C15.30-6.96 14.52-8.51 14.52-10.11C14.52-11.96 15.52-13.51 17.27-13.51C19.58-13.51 20.27-10.84 20.27-8.59C20.27-6.23 19.62-3.42 17.25-3.42C16.10-3.42 15.13-4.05 14.85-5.11C14.81-5.26 14.78-5.43 14.78-5.54C14.78-5.87 14.95-6.15 15.36-6.15C15.66-6.15 15.86-6.01 16.00-5.66C16.23-5.03 16.63-4.57 17.26-4.57C18.76-4.57 18.95-7.15 18.95-8.59L18.95-8.74L18.90-8.74C18.66-7.70 17.92-6.96 16.88-6.96ZM10.21-4.56C11.41-4.56 11.74-6.52 11.74-8.46C11.74-10.41 11.41-12.36 10.21-12.36C9.01-12.36 8.67-10.41 8.67-8.46C8.67-6.52 9.01-4.56 10.21-4.56ZM17.29-8.06C18.25-8.06 18.75-9.14 18.75-10.17C18.75-11.18 18.29-12.36 17.29-12.36C16.32-12.36 15.86-11.19 15.86-10.17C15.86-9.18 16.30-8.06 17.29-8.06Z" fill="currentColor"/>
</svg>