<svg xmlns="http://www.w3.org/2000/svg" viewBox="0 0 24 24" width="24" height="24">
  
  <path transform="matrix(0.7763257716771778, 0, 0, 0.7763257716771778, 1.2466750532528432, 19.443583494047417)" d="M13.85 3.29C20.34 3.29 25.61-1.97 25.61-8.46C25.61-12.54 23.53-16.10 20.38-18.20C19.98-18.49 19.48-18.39 19.25-18.02C19.03-17.66 19.15-17.23 19.51-16.96C22.27-15.15 24.09-12.02 24.09-8.46C24.09-2.80 19.51 1.77 13.85 1.77C8.19 1.77 3.62-2.80 3.62-8.46C3.62-13.38 7.08-17.48 11.70-18.47L11.70-16.54C11.70-15.86 12.16-15.67 12.71-16.05L16.36-18.61C16.82-18.93 16.83-19.38 16.36-19.71L12.73-22.27C12.16-22.66 11.70-22.46 11.70-21.79L11.70-20.02C6.22-19.00 2.10-14.21 2.10-8.46C2.10-1.97 7.36 3.29 13.85 3.29ZM16.55-3.63C18.83-3.63 19.59-6.06 19.59-8.31C19.59-10.57 18.81-12.96 16.55-12.96C14.25-12.96 13.49-10.54 13.49-8.31C13.49-6.02 14.29-3.63 16.55-3.63ZM10.79-3.70C11.20-3.70 11.45-3.98 11.45-4.39L11.45-12.16C11.45-12.62 11.17-12.89 10.71-12.89C10.34-12.89 10.08-12.73 9.79-12.50L8.25-11.38C8.06-11.24 7.93-11.09 7.93-10.84C7.93-10.57 8.14-10.35 8.41-10.35C8.55-10.35 8.66-10.39 8.77-10.48L10.14-11.48L10.15-11.48L10.15-4.39C10.15-3.98 10.39-3.70 10.79-3.70ZM16.55-4.71C15.30-4.71 14.81-6.43 14.81-8.31C14.81-10.17 15.32-11.87 16.55-11.87C17.78-11.87 18.28-10.16 18.28-8.31C18.28-6.43 17.79-4.71 16.55-4.71Z" fill="currentColor"/>
</svg>