<svg xmlns="http://www.w3.org/2000/svg" viewBox="0 0 24 24" width="24" height="24">
  <title>10.circle</title>
  <path transform="matrix(0.8507809903622466, 0, 0, 0.8507809903622466, 0.21535393818544368, 19.19840478564307)" d="M13.85 3.29C20.34 3.29 25.61-1.97 25.61-8.46C25.61-14.95 20.34-20.21 13.85-20.21C7.36-20.21 2.10-14.95 2.10-8.46C2.10-1.97 7.36 3.29 13.85 3.29ZM13.85 1.77C8.19 1.77 3.62-2.80 3.62-8.46C3.62-14.12 8.19-18.70 13.85-18.70C19.51-18.70 24.09-14.12 24.09-8.46C24.09-2.80 19.51 1.77 13.85 1.77ZM16.17-3.50C18.45-3.50 19.05-6.22 19.05-8.46C19.05-10.70 18.45-13.42 16.17-13.42C13.91-13.42 13.29-10.70 13.29-8.46C13.29-6.22 13.91-3.50 16.17-3.50ZM10.76-3.60C11.12-3.60 11.44-3.91 11.44-4.29L11.44-12.57C11.44-13.04 11.13-13.34 10.65-13.34C10.27-13.34 9.94-13.13 9.71-12.94L8.30-11.80C8.13-11.67 8.00-11.50 8.00-11.25C8.00-10.96 8.20-10.75 8.50-10.75C8.65-10.75 8.74-10.79 8.84-10.86L10.07-11.86L10.07-4.29C10.07-3.91 10.37-3.60 10.76-3.60ZM16.17-4.63C15-4.63 14.66-6.56 14.66-8.46C14.66-10.36 15-12.29 16.17-12.29C17.36-12.29 17.70-10.36 17.70-8.46C17.70-6.56 17.36-4.63 16.17-4.63Z" fill="currentColor"/>
</svg>