<svg xmlns="http://www.w3.org/2000/svg" viewBox="0 0 24 24" width="24" height="24">
  
  <path transform="matrix(0.8507809903622466, 0, 0, 0.8507809903622466, 0.21535393818544368, 19.19840478564307)" d="M13.85 3.29C20.33 3.29 25.61-1.98 25.61-8.46C25.61-14.94 20.33-20.21 13.85-20.21C7.37-20.21 2.10-14.94 2.10-8.46C2.10-1.98 7.37 3.29 13.85 3.29ZM13.99-3.62C13.56-3.62 13.34-3.86 13.34-4.20C13.34-4.48 13.50-4.71 13.68-4.96L15.96-7.97C16.63-8.87 17.18-9.77 17.18-10.71C17.18-11.59 16.76-12.39 15.90-12.39C15.11-12.39 14.74-11.77 14.55-10.85C14.46-10.54 14.26-10.38 13.93-10.38C13.56-10.38 13.35-10.65 13.35-10.99C13.35-12.25 14.41-13.52 15.90-13.52C17.51-13.52 18.49-12.34 18.49-10.77C18.49-9.74 18.12-8.86 17.03-7.44L15.07-4.86L15.07-4.77L18.13-4.77C18.47-4.77 18.69-4.56 18.69-4.20C18.69-3.86 18.47-3.62 18.13-3.62ZM10.80-3.50C10.42-3.50 10.09-3.82 10.09-4.21L10.09-11.92L8.86-10.91C8.75-10.83 8.66-10.78 8.50-10.78C8.19-10.78 7.99-11.00 7.99-11.31C7.99-11.55 8.12-11.74 8.30-11.87L9.74-13.02C9.97-13.21 10.30-13.43 10.70-13.43C11.19-13.43 11.51-13.14 11.51-12.64L11.51-4.21C11.51-3.82 11.18-3.50 10.80-3.50Z" fill="currentColor"/>
</svg>