<svg xmlns="http://www.w3.org/2000/svg" viewBox="0 0 24 24" width="24" height="24">
  
  <path transform="matrix(0.8507809903622466, 0, 0, 0.8507809903622466, 0.21535393818544368, 19.19840478564307)" d="M13.85 3.29C20.33 3.29 25.61-1.98 25.61-8.46C25.61-14.94 20.33-20.21 13.85-20.21C7.37-20.21 2.10-14.94 2.10-8.46C2.10-1.98 7.37 3.29 13.85 3.29ZM10.73-3.50C10.35-3.50 10.02-3.82 10.02-4.22L10.02-11.92L8.78-10.91C8.68-10.83 8.59-10.78 8.43-10.78C8.12-10.78 7.92-11.00 7.92-11.31C7.92-11.55 8.05-11.74 8.21-11.87L9.66-13.03C9.89-13.21 10.23-13.43 10.63-13.43C11.12-13.43 11.43-13.14 11.43-12.64L11.43-4.22C11.43-3.82 11.11-3.50 10.73-3.50ZM16.10-3.40C14.99-3.40 13.99-4.10 13.62-5.13C13.55-5.32 13.49-5.57 13.49-5.78C13.49-6.14 13.71-6.38 14.07-6.38C14.33-6.38 14.55-6.23 14.66-5.88C14.87-5.14 15.33-4.55 16.09-4.55C17.09-4.55 17.51-5.66 17.51-6.76C17.51-7.75 17.10-8.92 16.11-8.92C15.57-8.92 15.20-8.59 14.92-8.12C14.71-7.84 14.55-7.70 14.26-7.70C13.82-7.70 13.62-8.02 13.62-8.40C13.62-8.54 13.62-8.74 13.63-8.94L13.85-12.42C13.90-12.95 14.13-13.30 14.67-13.30L17.93-13.30C18.25-13.30 18.48-13.04 18.48-12.71C18.48-12.38 18.27-12.14 17.93-12.14L15.02-12.14L14.80-8.91L14.85-8.91C15.16-9.64 15.86-9.97 16.54-9.97C18.08-9.97 18.87-8.43 18.87-6.80C18.87-4.98 17.89-3.40 16.10-3.40Z" fill="currentColor"/>
</svg>