<svg xmlns="http://www.w3.org/2000/svg" viewBox="0 0 24 24" width="24" height="24">
  <title>15.square</title>
  <path transform="matrix(0.9423891036259894, 0, 0, 0.9423891036259894, -0.8161236885698511, 19.967973495306463)" d="M6.45 2.16L20.75 2.16C23.04 2.16 24.21 0.98 24.21-1.27L24.21-15.64C24.21-17.89 23.04-19.07 20.75-19.07L6.45-19.07C4.16-19.07 2.99-17.91 2.99-15.64L2.99-1.27C2.99 1.00 4.16 2.16 6.45 2.16ZM6.47 0.70C5.16 0.70 4.44 0.01 4.44-1.35L4.44-15.56C4.44-16.92 5.16-17.61 6.47-17.61L20.72-17.61C22.02-17.61 22.76-16.92 22.76-15.56L22.76-1.35C22.76 0.01 22.02 0.70 20.72 0.70ZM10.55-3.60C10.91-3.60 11.23-3.91 11.23-4.29L11.23-12.57C11.23-13.04 10.92-13.34 10.44-13.34C10.05-13.34 9.73-13.13 9.50-12.94L8.09-11.80C7.92-11.67 7.79-11.50 7.79-11.25C7.79-10.96 7.99-10.75 8.29-10.75C8.44-10.75 8.53-10.79 8.63-10.86L9.86-11.86L9.86-4.29C9.86-3.91 10.16-3.60 10.55-3.60ZM15.80-3.50C17.54-3.50 18.49-5.05 18.49-6.83C18.49-8.43 17.72-9.94 16.22-9.94C15.55-9.94 14.87-9.62 14.55-8.89L14.51-8.89L14.73-12.07L17.58-12.07C17.91-12.07 18.12-12.30 18.12-12.63C18.12-12.95 17.89-13.20 17.58-13.20L14.39-13.20C13.86-13.20 13.64-12.86 13.61-12.35L13.38-8.92C13.36-8.73 13.36-8.53 13.36-8.40C13.36-8.03 13.55-7.71 13.98-7.71C14.27-7.71 14.43-7.85 14.63-8.13C14.91-8.59 15.27-8.92 15.81-8.92C16.77-8.92 17.18-7.76 17.18-6.80C17.18-5.72 16.76-4.62 15.77-4.62C15.04-4.62 14.57-5.20 14.38-5.93C14.27-6.27 14.05-6.41 13.79-6.41C13.45-6.41 13.23-6.19 13.23-5.84C13.23-5.63 13.29-5.39 13.37-5.20C13.72-4.20 14.70-3.50 15.80-3.50Z" fill="currentColor"/>
</svg>