<svg xmlns="http://www.w3.org/2000/svg" viewBox="0 0 24 24" width="24" height="24">
  
  <path transform="matrix(0.8615177519771159, 0, 0, 0.8615177519771159, -0.5744573447753658, 19.274103987884907)" d="M6.45 2.17L22.75 2.17C25.03 2.17 26.20 1.00 26.20-1.25L26.20-15.62C26.20-17.88 25.03-19.05 22.75-19.05L6.45-19.05C4.16-19.05 2.99-17.89 2.99-15.62L2.99-1.25C2.99 1.01 4.16 2.17 6.45 2.17ZM6.34 0.71C5.11 0.71 4.44 0.07 4.44-1.20L4.44-11.92C4.44-13.18 5.11-13.84 6.34-13.84L22.84-13.84C24.05-13.84 24.75-13.18 24.75-11.92L24.75-1.20C24.75 0.07 24.05 0.71 22.84 0.71ZM9.15-1.82L13.20-1.82C13.54-1.82 13.75-2.04 13.75-2.38C13.75-2.73 13.52-2.94 13.20-2.94L10.20-2.94L10.20-3.01L12.12-5.57C13.20-6.95 13.55-7.82 13.55-8.82C13.55-10.36 12.59-11.52 11.02-11.52C9.57-11.52 8.53-10.27 8.53-9.04C8.53-8.71 8.73-8.44 9.09-8.44C9.41-8.44 9.61-8.59 9.69-8.89C9.89-9.81 10.24-10.41 11.02-10.41C11.86-10.41 12.28-9.62 12.28-8.77C12.28-7.85 11.75-6.97 11.07-6.08L8.84-3.11C8.67-2.88 8.51-2.65 8.51-2.37C8.51-2.04 8.73-1.82 9.15-1.82ZM17.74-1.59C19.50-1.59 20.45-3.14 20.45-4.92C20.45-6.53 19.68-8.03 18.16-8.03C17.50-8.03 16.83-7.72 16.51-6.98L16.46-6.98L16.69-10.16L19.52-10.16C19.86-10.16 20.06-10.39 20.06-10.73C20.06-11.05 19.85-11.30 19.52-11.30L16.34-11.30C15.82-11.30 15.59-10.96 15.55-10.44L15.33-7.02C15.32-6.83 15.30-6.63 15.30-6.49C15.30-6.12 15.50-5.81 15.94-5.81C16.22-5.81 16.37-5.94 16.57-6.22C16.85-6.68 17.21-7.01 17.75-7.01C18.73-7.01 19.14-5.86 19.14-4.89C19.14-3.81 18.71-2.72 17.73-2.72C16.99-2.72 16.52-3.29 16.32-4.02C16.22-4.36 16.01-4.51 15.75-4.51C15.40-4.51 15.18-4.28 15.18-3.93C15.18-3.71 15.25-3.48 15.32-3.29C15.68-2.29 16.65-1.59 17.74-1.59Z" fill="currentColor"/>
</svg>