<svg xmlns="http://www.w3.org/2000/svg" viewBox="0 0 24 24" width="24" height="24">
  
  <path transform="matrix(0.8507809903622466, 0, 0, 0.8507809903622466, 0.21535393818544368, 19.19840478564307)" d="M13.85 3.29C20.34 3.29 25.61-1.97 25.61-8.46C25.61-14.95 20.34-20.21 13.85-20.21C7.36-20.21 2.10-14.95 2.10-8.46C2.10-1.97 7.36 3.29 13.85 3.29ZM13.85 1.77C8.19 1.77 3.62-2.80 3.62-8.46C3.62-14.12 8.19-18.70 13.85-18.70C19.51-18.70 24.09-14.12 24.09-8.46C24.09-2.80 19.51 1.77 13.85 1.77ZM11.17-3.53C12.77-3.53 13.98-4.59 13.98-6.33C13.98-7.70 13.20-8.51 12.13-8.61L12.13-8.66C13.20-8.93 13.70-9.89 13.70-10.89C13.70-12.43 12.60-13.38 11.12-13.38C9.94-13.38 9-12.69 8.67-11.66C8.60-11.43 8.58-11.21 8.58-11.04C8.58-10.72 8.79-10.48 9.16-10.48C9.50-10.48 9.67-10.63 9.76-10.97C9.93-11.72 10.36-12.28 11.12-12.28C11.99-12.28 12.42-11.59 12.42-10.73C12.42-9.80 11.87-9.11 10.93-9.11L10.56-9.11C10.23-9.11 10.04-8.89 10.04-8.59C10.04-8.27 10.25-8.07 10.56-8.07L10.95-8.07C12.02-8.07 12.64-7.49 12.64-6.35C12.64-5.44 12.16-4.65 11.18-4.65C10.23-4.65 9.76-5.32 9.63-5.95C9.55-6.28 9.35-6.45 9.04-6.45C8.67-6.45 8.43-6.22 8.43-5.85C8.43-5.66 8.46-5.44 8.52-5.25C8.85-4.18 9.93-3.53 11.17-3.53ZM17.79-3.60C18.15-3.60 18.47-3.91 18.47-4.29L18.47-12.57C18.47-13.04 18.16-13.34 17.70-13.34C17.30-13.34 16.98-13.13 16.75-12.94L15.33-11.80C15.16-11.67 15.05-11.50 15.05-11.25C15.05-10.96 15.23-10.75 15.54-10.75C15.69-10.75 15.77-10.79 15.88-10.86L17.10-11.86L17.10-4.29C17.10-3.91 17.41-3.60 17.79-3.60Z" fill="currentColor"/>
</svg>