<svg xmlns="http://www.w3.org/2000/svg" viewBox="0 0 24 24" width="24" height="24">
  <title>39.square.fill</title>
  <path transform="matrix(0.9423891036259894, 0, 0, 0.9423891036259894, -0.8161236885698511, 19.967973495306463)" d="M6.45 2.16L20.75 2.16C23.04 2.16 24.21 0.98 24.21-1.27L24.21-15.64C24.21-17.89 23.04-19.07 20.75-19.07L6.45-19.07C4.16-19.07 2.99-17.91 2.99-15.64L2.99-1.27C2.99 1.00 4.16 2.16 6.45 2.16ZM16.49-6.96C14.92-6.96 14.13-8.51 14.13-10.11C14.13-11.96 15.13-13.51 16.88-13.51C19.20-13.51 19.89-10.84 19.89-8.59C19.89-6.23 19.23-3.42 16.85-3.42C15.70-3.42 14.73-4.05 14.46-5.11C14.41-5.26 14.38-5.43 14.38-5.54C14.38-5.87 14.57-6.15 14.98-6.15C15.27-6.15 15.46-6.01 15.61-5.66C15.83-5.03 16.24-4.57 16.88-4.57C18.38-4.57 18.56-7.15 18.56-8.59L18.56-8.74L18.52-8.74C18.26-7.70 17.53-6.96 16.49-6.96ZM9.98-3.43C8.72-3.43 7.62-4.09 7.28-5.18C7.22-5.37 7.18-5.60 7.18-5.80C7.18-6.18 7.43-6.41 7.82-6.41C8.14-6.41 8.33-6.23 8.43-5.89C8.57-5.26 9.04-4.58 10.00-4.58C11.00-4.58 11.48-5.39 11.48-6.30C11.48-7.46 10.86-8.06 9.75-8.06L9.38-8.06C9.06-8.06 8.84-8.27 8.84-8.59C8.84-8.89 9.04-9.12 9.38-9.12L9.74-9.12C10.71-9.12 11.26-9.83 11.26-10.78C11.26-11.66 10.82-12.35 9.95-12.35C9.15-12.35 8.73-11.79 8.55-11.02C8.46-10.66 8.29-10.51 7.93-10.51C7.55-10.51 7.35-10.77 7.35-11.10C7.35-11.27 7.37-11.48 7.43-11.73C7.77-12.79 8.73-13.48 9.95-13.48C11.45-13.48 12.59-12.52 12.59-10.93C12.59-9.93 12.06-8.94 10.97-8.66L10.97-8.61C12.06-8.51 12.86-7.69 12.86-6.28C12.86-4.51 11.63-3.43 9.98-3.43ZM16.89-8.06C17.86-8.06 18.35-9.14 18.35-10.17C18.35-11.18 17.91-12.36 16.89-12.36C15.94-12.36 15.47-11.19 15.47-10.17C15.47-9.19 15.90-8.06 16.89-8.06Z" fill="currentColor"/>
</svg>