<svg xmlns="http://www.w3.org/2000/svg" viewBox="0 0 24 24" width="24" height="24">
  <title>44.circle.fill</title>
  <path transform="matrix(0.8507809903622466, 0, 0, 0.8507809903622466, 0.21535393818544368, 19.19840478564307)" d="M13.85 3.29C20.33 3.29 25.61-1.98 25.61-8.46C25.61-14.94 20.33-20.21 13.85-20.21C7.37-20.21 2.10-14.94 2.10-8.46C2.10-1.98 7.37 3.29 13.85 3.29ZM11.20-3.48C10.89-3.48 10.54-3.69 10.54-4.18L10.54-5.66L7.69-5.66C7.20-5.66 6.87-6 6.87-6.47C6.87-6.77 6.93-7.03 7.09-7.41L9.52-12.48C9.80-13.09 10.11-13.44 10.80-13.44C11.40-13.44 11.87-13.10 11.87-12.40L11.87-6.80L12.42-6.80C12.80-6.80 12.98-6.56 12.98-6.23C12.98-5.91 12.80-5.66 12.42-5.66L11.87-5.66L11.87-4.18C11.87-3.74 11.57-3.48 11.20-3.48ZM18.54-3.48C18.20-3.48 17.86-3.69 17.86-4.18L17.86-5.66L15.01-5.66C14.52-5.66 14.18-6 14.18-6.47C14.18-6.77 14.25-7.03 14.41-7.41L16.84-12.48C17.12-13.09 17.44-13.44 18.12-13.44C18.73-13.44 19.18-13.10 19.18-12.40L19.18-6.80L19.75-6.80C20.11-6.80 20.30-6.56 20.30-6.23C20.30-5.91 20.11-5.66 19.75-5.66L19.18-5.66L19.18-4.18C19.18-3.74 18.89-3.48 18.54-3.48ZM10.56-6.77L10.56-12.15L10.51-12.15L8.07-6.84L8.07-6.77ZM17.88-6.77L17.88-12.15L17.84-12.15L15.40-6.84L15.40-6.77Z" fill="currentColor"/>
</svg>