<svg xmlns="http://www.w3.org/2000/svg" viewBox="0 0 24 24" width="24" height="24">
  
  <path transform="matrix(0.7763257716771778, 0, 0, 0.7763257716771778, 1.2466750532528432, 19.443583494047417)" d="M13.85 3.29C20.34 3.29 25.61-1.97 25.61-8.46C25.61-12.54 23.53-16.10 20.38-18.20C19.98-18.49 19.48-18.39 19.25-18.02C19.03-17.66 19.15-17.23 19.51-16.96C22.27-15.15 24.09-12.02 24.09-8.46C24.09-2.80 19.51 1.77 13.85 1.77C8.19 1.77 3.62-2.80 3.62-8.46C3.62-13.38 7.08-17.48 11.70-18.47L11.70-16.54C11.70-15.86 12.16-15.67 12.71-16.05L16.36-18.61C16.82-18.93 16.83-19.38 16.36-19.71L12.73-22.27C12.16-22.66 11.70-22.46 11.70-21.79L11.70-20.02C6.22-19.00 2.10-14.21 2.10-8.46C2.10-1.97 7.36 3.29 13.85 3.29ZM11.16-3.69C11.48-3.69 11.77-3.90 11.77-4.32L11.77-5.71L12.41-5.71C12.77-5.71 12.94-5.93 12.94-6.22C12.94-6.54 12.76-6.75 12.41-6.75L11.77-6.75L11.77-11.92C11.77-12.53 11.37-12.87 10.76-12.87C10.15-12.87 9.84-12.52 9.55-11.98C8.77-10.69 7.54-8.58 6.87-7.31C6.74-7.02 6.63-6.73 6.63-6.40C6.63-5.99 6.93-5.71 7.36-5.71L10.55-5.71L10.55-4.32C10.55-3.90 10.83-3.69 11.16-3.69ZM17.14-3.61C18.94-3.61 20.07-4.96 20.07-6.74C20.07-8.34 19.13-9.68 17.55-9.68C16.75-9.68 16.05-9.32 15.69-8.68L15.67-8.68L15.93-11.67L19.11-11.67C19.43-11.67 19.65-11.88 19.65-12.21C19.65-12.53 19.43-12.74 19.11-12.74L15.62-12.74C15.11-12.74 14.87-12.48 14.82-11.95L14.53-8.31C14.50-7.88 14.72-7.56 15.13-7.56C15.47-7.56 15.61-7.72 15.81-7.96C16.14-8.41 16.62-8.68 17.18-8.68C18.22-8.68 18.81-7.77 18.81-6.71C18.81-5.61 18.21-4.69 17.16-4.69C16.32-4.69 15.76-5.21 15.53-5.93C15.41-6.22 15.21-6.36 14.96-6.36C14.61-6.36 14.40-6.14 14.40-5.81C14.40-5.68 14.43-5.54 14.46-5.43C14.77-4.29 15.98-3.61 17.14-3.61ZM10.57-6.73L7.76-6.73L7.76-6.79C8.46-8.21 9.59-10.17 10.52-11.71L10.57-11.71Z" fill="currentColor"/>
</svg>