<svg xmlns="http://www.w3.org/2000/svg" viewBox="0 0 24 24" width="24" height="24">
  <title>47.circle.fill</title>
  <path transform="matrix(0.8507809903622466, 0, 0, 0.8507809903622466, 0.21535393818544368, 19.19840478564307)" d="M13.85 3.29C20.33 3.29 25.61-1.98 25.61-8.46C25.61-14.94 20.33-20.21 13.85-20.21C7.37-20.21 2.10-14.94 2.10-8.46C2.10-1.98 7.37 3.29 13.85 3.29ZM11.77-3.48C11.44-3.48 11.09-3.69 11.09-4.18L11.09-5.66L8.25-5.66C7.75-5.66 7.42-6 7.42-6.47C7.42-6.77 7.48-7.03 7.65-7.41L10.07-12.48C10.35-13.09 10.68-13.44 11.36-13.44C11.96-13.44 12.42-13.10 12.42-12.40L12.42-6.80L12.97-6.80C13.35-6.80 13.54-6.56 13.54-6.23C13.54-5.91 13.35-5.66 12.97-5.66L12.42-5.66L12.42-4.18C12.42-3.74 12.12-3.48 11.77-3.48ZM16.07-3.48C15.63-3.48 15.43-3.79 15.43-4.09C15.43-4.31 15.47-4.45 15.55-4.66L18.38-12.05L18.38-12.14L15.08-12.14C14.74-12.14 14.51-12.38 14.51-12.71C14.51-13.05 14.74-13.30 15.08-13.30L18.98-13.30C19.44-13.30 19.78-13.00 19.78-12.53C19.78-12.25 19.71-11.99 19.61-11.71L16.73-3.98C16.59-3.63 16.43-3.48 16.07-3.48ZM11.11-6.77L11.11-12.15L11.06-12.15L8.63-6.84L8.63-6.77Z" fill="currentColor"/>
</svg>