<svg xmlns="http://www.w3.org/2000/svg" viewBox="0 0 24 24" width="24" height="24">
  
  <path transform="matrix(0.9423891036259894, 0, 0, 0.9423891036259894, -0.8161236885698511, 19.967973495306463)" d="M6.45 2.16L20.75 2.16C23.04 2.16 24.21 0.98 24.21-1.27L24.21-15.64C24.21-17.89 23.04-19.07 20.75-19.07L6.45-19.07C4.16-19.07 2.99-17.91 2.99-15.64L2.99-1.27C2.99 1.00 4.16 2.16 6.45 2.16ZM6.47 0.70C5.16 0.70 4.44 0.01 4.44-1.35L4.44-15.56C4.44-16.92 5.16-17.61 6.47-17.61L20.72-17.61C22.02-17.61 22.76-16.92 22.76-15.56L22.76-1.35C22.76 0.01 22.02 0.70 20.72 0.70ZM16.45-7.00C17.47-7.00 18.19-7.71 18.43-8.74L18.48-8.74L18.48-8.59C18.48-7.17 18.29-4.64 16.82-4.64C16.20-4.64 15.80-5.09 15.57-5.71C15.42-6.06 15.23-6.20 14.95-6.20C14.57-6.20 14.39-5.93 14.39-5.61C14.39-5.48 14.41-5.33 14.46-5.18C14.73-4.15 15.68-3.52 16.80-3.52C19.13-3.52 19.77-6.28 19.77-8.59C19.77-10.79 19.09-13.41 16.83-13.41C15.12-13.41 14.13-11.89 14.13-10.09C14.13-8.51 14.91-7.00 16.45-7.00ZM11.20-3.59C11.55-3.59 11.84-3.83 11.84-4.27L11.84-5.72L12.39-5.72C12.75-5.72 12.93-5.95 12.93-6.28C12.93-6.60 12.75-6.83 12.39-6.83L11.84-6.83L11.84-12.33C11.84-13.01 11.39-13.35 10.80-13.35C10.15-13.35 9.83-13.00 9.56-12.41L7.17-7.42C7.01-7.05 6.95-6.81 6.95-6.52C6.95-6.05 7.27-5.72 7.76-5.72L10.55-5.72L10.55-4.27C10.55-3.79 10.89-3.59 11.20-3.59ZM16.84-8.06C15.87-8.06 15.43-9.16 15.43-10.14C15.43-11.14 15.90-12.29 16.84-12.29C17.84-12.29 18.28-11.12 18.28-10.14C18.28-9.12 17.79-8.06 16.84-8.06ZM10.57-6.81L8.12-6.81L8.12-6.87L10.52-12.08L10.57-12.08Z" fill="currentColor"/>
</svg>