<svg xmlns="http://www.w3.org/2000/svg" viewBox="0 0 24 24" width="24" height="24">
  
  <path transform="matrix(0.9423891036259894, 0, 0, 0.9423891036259894, -0.8161236885698511, 19.967973495306463)" d="M6.45 2.16L20.75 2.16C23.04 2.16 24.21 0.98 24.21-1.27L24.21-15.64C24.21-17.89 23.04-19.07 20.75-19.07L6.45-19.07C4.16-19.07 2.99-17.91 2.99-15.64L2.99-1.27C2.99 1.00 4.16 2.16 6.45 2.16ZM13.55-2.86C11.70-2.86 10.36-3.68 9.94-4.91C9.88-5.06 9.84-5.20 9.84-5.37C9.84-5.73 10.10-5.99 10.48-5.99C10.77-5.99 11.00-5.84 11.16-5.52C11.50-4.64 12.45-4.07 13.56-4.07C14.98-4.07 16.04-5.12 16.04-6.55C16.04-7.98 15.11-8.95 13.71-8.95C12.97-8.95 12.43-8.72 11.78-8.09C11.43-7.80 11.21-7.71 10.86-7.71C10.34-7.71 10.03-8.07 10.07-8.61L10.42-12.93C10.46-13.49 10.85-13.84 11.47-13.84L16.49-13.84C16.84-13.84 17.07-13.59 17.07-13.24C17.07-12.89 16.83-12.64 16.49-12.64L11.64-12.64L11.33-9L11.40-9C11.88-9.66 12.89-10.10 13.88-10.10C16.00-10.10 17.47-8.65 17.47-6.59C17.47-4.35 15.88-2.86 13.55-2.86Z" fill="currentColor"/>
</svg>