<svg xmlns="http://www.w3.org/2000/svg" viewBox="0 0 24 24" width="24" height="24">
  
  <path transform="matrix(0.8507809903622466, 0, 0, 0.8507809903622466, 0.21535393818544368, 19.19840478564307)" d="M13.85 3.29C20.34 3.29 25.61-1.97 25.61-8.46C25.61-14.95 20.34-20.21 13.85-20.21C7.36-20.21 2.10-14.95 2.10-8.46C2.10-1.97 7.36 3.29 13.85 3.29ZM13.85 1.77C8.19 1.77 3.62-2.80 3.62-8.46C3.62-14.12 8.19-18.70 13.85-18.70C19.51-18.70 24.09-14.12 24.09-8.46C24.09-2.80 19.51 1.77 13.85 1.77ZM21.48-8.46C21.48-9.21 20.48-9.77 19.25-9.77L16.72-9.77C16.42-9.77 16.31-9.82 16.11-10.03L12.02-14.51C11.87-14.66 11.70-14.74 11.50-14.74L10.79-14.74C10.58-14.74 10.45-14.55 10.55-14.33L12.61-9.76L9.56-9.43L8.48-11.40C8.38-11.58 8.24-11.66 8.00-11.66L7.72-11.66C7.54-11.66 7.39-11.53 7.39-11.33L7.39-5.59C7.39-5.39 7.54-5.26 7.72-5.26L8.00-5.26C8.24-5.26 8.38-5.34 8.48-5.52L9.56-7.49L12.61-7.16L10.55-2.59C10.45-2.38 10.58-2.18 10.79-2.18L11.50-2.18C11.70-2.18 11.87-2.26 12.02-2.41L16.11-6.89C16.31-7.10 16.42-7.15 16.72-7.15L19.25-7.15C20.48-7.15 21.48-7.71 21.48-8.46Z" fill="currentColor"/>
</svg>