<svg xmlns="http://www.w3.org/2000/svg" viewBox="0 0 24 24" width="24" height="24">
  
  <path transform="matrix(0.9939383457698202, 0, 0, 0.9939383457698202, 1.750010809248729, 20.40426304643986)" d="M7.48-18.52C4.93-18.49 2.99-16.82 2.99-14.03C2.99-11.52 4.51-9.70 6.52-8.61C7.32-8.18 8.20-7.88 9.59-7.66C9.36-8.21 9.23-8.82 9.23-9.48C9.23-11.91 11.20-14.04 13.65-14.45C13.48-14.85 13.31-15.14 13.13-15.41C11.73-17.53 9.49-18.55 7.48-18.52ZM6.97-13.84L5.32-15.22C5.11-15.40 5.10-15.71 5.29-15.93C5.45-16.15 5.77-16.17 5.98-16.00L7.61-14.63C7.83-14.44 7.86-14.12 7.69-13.91C7.50-13.69 7.18-13.68 6.97-13.84ZM13.55-6.25C15.63-6.25 17.64-7.91 17.64-10.28C17.64-11.95 16.45-13.48 14.51-13.48C12.12-13.48 10.29-11.46 10.29-9.48C10.29-7.37 11.74-6.25 13.55-6.25ZM14.09-7.86C13.77-8.13 13.96-8.70 14.60-9.52C15.27-10.31 15.81-10.59 16.14-10.31C16.45-10.04 16.27-9.48 15.62-8.68C14.96-7.88 14.40-7.59 14.09-7.86ZM9.14 1.61C9.81 1.61 10.21 1.28 10.21 0.64L10.21-6.39C9.11-6.52 8.09-6.76 7.17-7.10L7.17 0.64C7.17 1.28 7.56 1.61 8.23 1.61Z" fill="currentColor"/>
</svg>