<svg xmlns="http://www.w3.org/2000/svg" viewBox="0 0 24 24" width="24" height="24">
  
  <path transform="matrix(1.0098486419798547, 0, 0, 1.0098486419798547, 2.6746789467172793, 20.49706120080342)" d="M7.83-18.32C5.20-18.30 2.99-16.14 2.99-13.25C2.99-10.27 7.29-6.57 10.46-6.56C12.75-6.55 15.48-8.75 15.48-11.50C15.48-14.82 11.34-18.35 7.83-18.32ZM8.36-13.20C8.03-12.70 7.37-12.61 6.88-12.96L5.26-14.10C4.78-14.45 4.68-15.08 5.05-15.57C5.37-16.05 6.04-16.17 6.50-15.82L8.11-14.66C8.58-14.32 8.70-13.66 8.36-13.20ZM11.53-8.11C10.91-8.11 10.88-8.89 11.48-9.89C12.08-10.89 13.07-11.67 13.69-11.67C14.32-11.67 14.36-10.89 13.75-9.89C13.15-8.89 12.16-8.11 11.53-8.11ZM7.22 1.49C7.89 1.49 8.29 1.15 8.29 0.53L8.29-5.93C7.03-6.36 5.79-7.14 4.75-8.09L4.75 0.53C4.75 1.15 5.14 1.49 5.80 1.49Z" fill="currentColor"/>
</svg>