<svg xmlns="http://www.w3.org/2000/svg" viewBox="0 0 24 24" width="24" height="24">
  <title>align.horizontal.right</title>
  <path transform="matrix(0.7595312268209464, 0, 0, 0.7595312268209464, 0.13529149977748078, 18.430796617712506)" d="M27.57 4.70C27.94 4.70 28.25 4.42 28.25 4.07L28.25-20.99C28.25-21.35 27.94-21.63 27.57-21.63C27.22-21.63 26.91-21.35 26.91-20.99L26.91 4.07C26.91 4.42 27.22 4.70 27.57 4.70ZM22.38-9.73C23.84-9.73 24.67-10.55 24.67-11.99L24.67-16.38C24.67-17.82 23.84-18.64 22.38-18.64L13.30-18.64C11.84-18.64 11.00-17.82 11.00-16.38L11.00-11.99C11.00-10.55 11.84-9.73 13.30-9.73ZM22.35-11.10L13.32-11.10C12.74-11.10 12.38-11.46 12.38-12.06L12.38-16.31C12.38-16.92 12.74-17.27 13.32-17.27L22.35-17.27C22.95-17.27 23.30-16.92 23.30-16.31L23.30-12.06C23.30-11.46 22.95-11.10 22.35-11.10ZM22.38 1.71C23.84 1.71 24.67 0.88 24.67-0.55L24.67-4.96C24.67-6.39 23.84-7.22 22.38-7.22L5.29-7.22C3.82-7.22 2.99-6.39 2.99-4.96L2.99-0.55C2.99 0.88 3.82 1.71 5.29 1.71ZM22.35 0.34L5.31 0.34C4.72 0.34 4.36-0.02 4.36-0.63L4.36-4.88C4.36-5.48 4.72-5.85 5.31-5.85L22.35-5.85C22.95-5.85 23.30-5.48 23.30-4.88L23.30-0.63C23.30-0.02 22.95 0.34 22.35 0.34Z" fill="currentColor"/>
</svg>