<svg xmlns="http://www.w3.org/2000/svg" viewBox="0 0 24 24" width="24" height="24">
  
  <path transform="matrix(0.9372486102943315, 0, 0, 0.9372486102943315, -0.8011321536986458, 19.92451022258625)" d="M3-13.29L3.56-2.89C3.57-2.61 3.79-2.39 4.05-2.39C4.34-2.39 4.55-2.61 4.56-2.89L4.83-13.29C4.89-15.87 6.22-17.20 8.80-17.27L19.20-17.54C19.48-17.54 19.70-17.77 19.70-18.04C19.70-18.32 19.48-18.52 19.20-18.54L8.81-19.09C5.55-19.27 2.79-17.25 3-13.29ZM24.32-3.62L23.77-14.02C23.74-14.30 23.54-14.52 23.26-14.52C22.99-14.52 22.77-14.30 22.77-14.02L22.50-3.62C22.43-1.04 21.09 0.29 18.52 0.36L8.12 0.63C7.84 0.63 7.62 0.86 7.62 1.13C7.62 1.41 7.84 1.61 8.12 1.63L18.52 2.18C21.76 2.36 24.53 0.34 24.32-3.62Z" fill="currentColor"/>
</svg>