<svg xmlns="http://www.w3.org/2000/svg" viewBox="0 0 24 24" width="24" height="24">
  <title>apple.image.playground.fill</title>
  <path transform="matrix(0.8268733850129198, 0, 0, 0.8268733850129198, 0.2655038759689923, 19.000968992248062)" d="M13.35 3.28C20.36 3.28 26.29-2.34 26.29-9.80C26.29-15.66 21.76-20.21 15.75-20.21C8.93-20.21 2.10-14.46 2.10-7.23C2.10-1.08 6.74 3.28 13.35 3.28ZM19.91-9.40C21.13-8.37 21.64-7.54 21.41-6.48C21.14-5.32 20.19-4.86 18.80-4.50C18.76-2.93 18.45-1.98 17.45-1.50C17.16-1.37 16.85-1.30 16.55-1.30C15.84-1.30 15.14-1.65 14.24-2.32C13.37-1.68 12.66-1.30 11.96-1.30C11.67-1.30 11.34-1.37 11.07-1.50C10.02-1.98 9.74-3.02 9.70-4.50C8.25-4.88 7.35-5.36 7.09-6.48C6.86-7.55 7.38-8.39 8.59-9.39C7.98-10.72 7.79-11.78 8.48-12.68C9.15-13.54 10.21-13.66 11.73-13.32C12.41-14.65 13.10-15.42 14.25-15.42C15.34-15.42 16.09-14.68 16.78-13.32C18.19-13.63 19.29-13.59 20.00-12.68C20.67-11.81 20.58-10.82 19.91-9.40ZM14.25-14.40C13.58-14.40 13.24-13.93 12.79-13.10C13.25-13.03 13.73-12.96 14.25-12.96C14.75-12.96 15.25-13.03 15.71-13.10C15.27-13.91 14.95-14.40 14.25-14.40ZM9.30-12.04C8.87-11.51 9.06-10.92 9.41-10.05C9.77-10.37 10.14-10.72 10.46-11.12C10.78-11.53 11.04-11.95 11.26-12.36C10.48-12.53 9.76-12.60 9.30-12.04ZM19.20-12.04C18.75-12.59 18.08-12.53 17.23-12.36C17.45-11.95 17.72-11.53 18.04-11.13C18.36-10.73 18.71-10.38 19.08-10.07C19.44-10.95 19.62-11.51 19.20-12.04ZM17.99-7.27C18.13-7.92 18.39-8.54 18.63-9.09C18.14-9.52 17.65-9.96 17.23-10.49C16.80-11.03 16.49-11.60 16.20-12.14C15.59-12.04 14.93-11.93 14.25-11.93C13.57-11.93 12.91-12.04 12.32-12.14C12.01-11.60 11.70-11.03 11.26-10.50C10.85-9.97 10.36-9.52 9.88-9.11C10.13-8.54 10.36-7.93 10.51-7.29C10.65-6.61 10.69-5.94 10.72-5.33C11.33-5.17 11.98-4.97 12.59-4.66C13.18-4.38 13.75-4.01 14.25-3.63C14.75-4.01 15.29-4.38 15.90-4.66C16.52-4.97 17.17-5.17 17.79-5.33C17.80-5.94 17.84-6.60 17.99-7.27ZM20.39-6.69C20.54-7.38 20.13-7.83 19.44-8.43C19.27-7.99 19.09-7.54 18.98-7.04C18.87-6.55 18.82-6.05 18.80-5.58C19.68-5.81 20.24-6.02 20.39-6.69ZM8.11-6.69C8.25-6.04 8.85-5.80 9.68-5.58C9.67-6.05 9.62-6.55 9.50-7.04C9.40-7.54 9.22-7.99 9.04-8.43C8.36-7.83 7.97-7.37 8.11-6.69ZM17.02-2.41C17.59-2.70 17.73-3.34 17.77-4.25C17.30-4.13 16.80-3.97 16.35-3.74C15.89-3.52 15.48-3.25 15.09-2.98C15.84-2.43 16.42-2.13 17.02-2.41ZM11.48-2.41C12.13-2.11 12.74-2.50 13.39-2.99C13.02-3.26 12.60-3.52 12.15-3.74C11.67-3.97 11.20-4.11 10.73-4.25C10.79-3.27 10.92-2.66 11.48-2.41Z" fill="currentColor"/>
</svg>