<svg xmlns="http://www.w3.org/2000/svg" viewBox="0 0 24 24" width="24" height="24">
  
  <path transform="matrix(0.9583846034065819, 0, 0, 0.9583846034065819, 1.5622611478617874, 20.07349045703249)" d="M4.16-2.07L5.65-0.59L6.27-0.94L20.96-15.56C21.45-16.04 21.45-16.84 20.96-17.31C20.47-17.80 19.69-17.80 19.21-17.32L4.51-2.68ZM4.57-13.03C5.48-13.96 6.02-15.12 6.12-16.38C6.16-16.82 5.84-17.17 5.41-17.14C5.03-17.12 4.85-16.86 4.77-16.36C4.71-15.52 4.35-14.68 3.63-13.98C2.96-13.31 2.16-12.94 1.21-12.83C0.76-12.76 0.49-12.56 0.46-12.20C0.45-11.77 0.80-11.44 1.23-11.48C2.47-11.57 3.67-12.14 4.57-13.03ZM7.14-10.46C8.73-12.07 9.62-14.14 9.69-16.37C9.73-16.82 9.42-17.12 8.99-17.10C8.61-17.06 8.39-16.79 8.34-16.34C8.30-14.50 7.56-12.77 6.20-11.41C4.84-10.05 3.11-9.32 1.29-9.27C0.82-9.23 0.54-8.99 0.50-8.63C0.48-8.21 0.82-7.91 1.25-7.91C3.47-7.98 5.54-8.88 7.14-10.46ZM2.74 0.40C2.59 0.67 2.89 0.93 3.13 0.80L4.79-0.13L3.69-1.24Z" fill="currentColor"/>
</svg>