<svg xmlns="http://www.w3.org/2000/svg" viewBox="0 0 24 24" width="24" height="24">
  
  <path transform="matrix(0.7663434770543565, 0, 0, 0.7663434770543565, 1.8698971626877254, 18.37184260082078)" d="M2.99 1.03C2.99 2.82 4.11 3.80 6.02 3.71C9.97 3.57 13.89 3.23 18.19 2.21C19.76 1.83 20.48 0.98 20.48-0.84L20.48-18.66C20.48-20.67 19.31-21.69 17.34-21.27C13.89-20.58 9.97-20.04 5.89-19.88C4.11-19.80 2.99-18.81 2.99-16.92ZM11.59 4.73L20.03 4.73C22.29 4.73 23.45 3.56 23.45 1.28L23.45-16.56C23.45-18.13 22.86-19.14 21.80-19.46C21.83-19.22 21.84-18.94 21.84-18.66L21.84-0.84C21.84 1.62 20.68 2.99 18.53 3.53C16.16 4.05 13.82 4.43 11.59 4.73ZM7.57-6.91C7.57-9.11 9.04-10.58 10.39-11.86C10.29-12.36 10.23-12.81 10.23-13.20C10.23-15.18 11.11-16.66 12.38-16.90C12.98-17.02 13.29-16.50 13.29-15.66C13.29-13.62 12.29-12.19 11.31-10.86L11.70-9.53C12.06-9.80 12.47-9.97 12.94-10.07C14.39-10.34 15.50-9.46 15.50-7.82C15.50-6.39 14.60-5.11 13.22-4.42C13.38-3.74 13.49-3.15 13.49-2.77C13.49-1.62 12.80-0.70 11.75-0.50C10.65-0.30 9.90-0.71 9.90-1.59C9.90-2.20 10.30-2.71 10.89-2.81C11.43-2.92 11.77-2.64 11.77-2.10C11.77-1.78 11.55-1.56 11.55-1.34C11.55-1.17 11.70-1.09 11.87-1.14C12.48-1.24 12.89-1.86 12.89-2.64C12.89-3.06 12.80-3.60 12.67-4.18C12.42-4.10 12.18-4.04 11.89-3.98C9.23-3.49 7.57-4.64 7.57-6.91ZM10.83-12.93C10.83-12.79 10.86-12.59 10.90-12.34C11.87-13.27 12.67-14.12 12.67-15.13C12.67-15.33 12.57-15.43 12.38-15.39C11.53-15.23 10.79-14.26 10.83-12.93ZM9.30-6.71C9.30-5.19 10.30-4.32 11.96-4.63C12.15-4.66 12.34-4.71 12.52-4.77C12.29-5.60 11.99-6.54 11.68-7.48C11.34-7.28 11.04-7.03 10.78-6.82C10.57-6.62 10.35-6.63 10.35-6.90C10.35-7.73 10.66-8.50 11.17-9.06L10.82-10.23C10.02-9.14 9.30-8.06 9.30-6.71ZM12.27-7.73C12.56-6.81 12.84-5.88 13.05-5.05C13.68-5.44 14.06-6.01 14.06-6.66C14.06-7.76 13.03-7.99 12.27-7.73Z" fill="currentColor"/>
</svg>