<svg xmlns="http://www.w3.org/2000/svg" viewBox="0 0 24 24" width="24" height="24">
  
  <path transform="matrix(0.8507809903622466, 0, 0, 0.8507809903622466, 0.21535393818544368, 19.188434695912264)" d="M13.85 3.30C20.33 3.30 25.61-1.97 25.61-8.45C25.61-14.93 20.33-20.20 13.85-20.20C7.37-20.20 2.10-14.93 2.10-8.45C2.10-1.97 7.37 3.30 13.85 3.30ZM8.50-11.37C7.83-11.37 7.48-11.78 7.48-12.42L7.48-13.10C7.48-13.77 7.86-14.18 8.50-14.18L19.21-14.18C19.88-14.18 20.23-13.77 20.23-13.10L20.23-12.42C20.23-11.78 19.88-11.37 19.21-11.37ZM10.27-2.47C9.06-2.47 8.41-3.09 8.41-4.31L8.41-10.52L19.29-10.52L19.29-4.31C19.29-3.11 18.64-2.47 17.44-2.47ZM11.68-8.30L16.03-8.30C16.28-8.30 16.44-8.46 16.44-8.72L16.44-8.91C16.44-9.16 16.28-9.33 16.03-9.33L11.68-9.33C11.44-9.33 11.26-9.16 11.26-8.91L11.26-8.72C11.26-8.46 11.44-8.30 11.68-8.30Z" fill="currentColor"/>
</svg>