<svg xmlns="http://www.w3.org/2000/svg" viewBox="0 0 24 24" width="24" height="24">
  <title>arrow.forward.to.line.compact</title>
  <path transform="matrix(0.9774723176785033, 0, 0, 0.9774723176785033, -0.9209621993127151, 20.27605956471936)" d="M12.36-16.44C12.36-16.22 12.45-16.00 12.57-15.87L16.09-12.33L19.49-9.18L16.98-9.25L3.76-9.25C3.32-9.25 2.99-8.92 2.99-8.46C2.99-8.00 3.32-7.68 3.76-7.68L16.98-7.68L19.49-7.75L16.09-4.59L12.57-1.05C12.45-0.93 12.36-0.70 12.36-0.49C12.36-0.06 12.70 0.27 13.14 0.27C13.36 0.27 13.54 0.20 13.71 0.04L21.61-7.88C21.74-8.00 21.83-8.16 21.86-8.32L21.86-0.49C21.86-0.05 22.20 0.27 22.65 0.27C23.11 0.27 23.45-0.05 23.45-0.49L23.45-16.42C23.45-16.88 23.11-17.20 22.65-17.20C22.20-17.20 21.86-16.88 21.86-16.42L21.86-8.61C21.83-8.78 21.74-8.92 21.61-9.05L13.71-16.96C13.54-17.12 13.36-17.20 13.14-17.20C12.70-17.20 12.36-16.88 12.36-16.44Z" fill="currentColor"/>
</svg>