<svg xmlns="http://www.w3.org/2000/svg" viewBox="0 0 24 24" width="24" height="24">
  <title>arrow.up.arrow.down.square.fill</title>
  <path transform="matrix(0.9423891036259894, 0, 0, 0.9423891036259894, -0.8161236885698511, 19.967973495306463)" d="M6.45 2.16L20.75 2.16C23.04 2.16 24.21 0.98 24.21-1.27L24.21-15.64C24.21-17.89 23.04-19.07 20.75-19.07L6.45-19.07C4.16-19.07 2.99-17.91 2.99-15.64L2.99-1.27C2.99 1.00 4.16 2.16 6.45 2.16ZM17.26-14.37C17.61-14.37 17.87-14.10 17.87-13.75L17.87-5.37L17.86-4.63L18.55-5.36L19.97-6.79C20.09-6.91 20.25-6.98 20.41-6.98C20.78-6.98 21.02-6.73 21.02-6.38C21.02-6.20 20.96-6.04 20.84-5.91L17.72-2.75C17.48-2.52 17.05-2.51 16.80-2.75L13.70-5.91C13.57-6.04 13.50-6.20 13.50-6.38C13.50-6.73 13.76-6.98 14.11-6.98C14.27-6.98 14.45-6.91 14.55-6.79L15.97-5.36L16.65-4.65L16.63-5.38L16.63-13.75C16.63-14.11 16.90-14.37 17.26-14.37ZM9.93-2.54C9.57-2.54 9.30-2.80 9.30-3.15L9.30-11.53L9.33-12.26L8.64-11.54L7.23-10.13C7.13-10.00 6.94-9.93 6.79-9.93C6.42-9.93 6.16-10.18 6.16-10.54C6.16-10.70 6.26-10.88 6.38-10.99L9.47-14.14C9.71-14.39 10.15-14.39 10.39-14.14L13.51-10.99C13.64-10.86 13.69-10.70 13.69-10.54C13.69-10.18 13.44-9.93 13.09-9.93C12.93-9.93 12.76-10.00 12.63-10.13L11.23-11.54L10.54-12.26L10.55-11.53L10.55-3.15C10.55-2.80 10.29-2.54 9.93-2.54Z" fill="currentColor"/>
</svg>