<svg xmlns="http://www.w3.org/2000/svg" viewBox="0 0 24 24" width="24" height="24">
  <title>arrow.forward.folder.fill</title>
  <path transform="matrix(0.7615647776290346, 0, 0, 0.7615647776290346, -0.2757697456492636, 18.48371262829094)" d="M6.45 2.02L26.03 2.02C28.08 2.02 29.25 0.84 29.25-1.41L29.25-13.46C29.25-15.71 28.08-16.89 25.79-16.89L14.46-16.89C13.57-16.89 13.10-17.05 12.49-17.59L11.81-18.18C11.05-18.86 10.51-19.04 9.34-19.04L6-19.04C4.05-19.04 2.99-17.98 2.99-15.83L2.99-1.41C2.99 0.87 4.16 2.02 6.45 2.02ZM22.14-7.49C22.14-7.30 22.08-7.14 21.89-6.95L18-2.96C17.86-2.82 17.71-2.74 17.51-2.74C17.13-2.74 16.85-3.02 16.85-3.41C16.85-3.59 16.93-3.80 17.09-3.93L19.21-5.98L20.06-6.80L18.32-6.75L10.93-6.75C10.54-6.75 10.21-7.08 10.21-7.49C10.21-7.89 10.54-8.23 10.93-8.23L18.32-8.23L20.06-8.17L19.21-8.99L17.09-11.04C16.93-11.17 16.85-11.37 16.85-11.55C16.85-11.92 17.13-12.22 17.51-12.22C17.71-12.22 17.86-12.14 18-12L21.89-8.02C22.08-7.84 22.14-7.68 22.14-7.49Z" fill="currentColor"/>
</svg>