<svg xmlns="http://www.w3.org/2000/svg" viewBox="0 0 24 24" width="24" height="24">
  <title>arrowshape.turn.up.backward</title>
  <path transform="matrix(0.8073163040050457, 0, 0, 0.8073163040050457, 0.5525070955534532, 18.83065279091769)" d="M12.98 2.06C13.66 2.06 14.13 1.56 14.13 0.88L14.13-3.80L14.54-3.80C19.43-3.80 22.44-2.52 24.32 1.27C24.66 1.92 25.08 2.06 25.54 2.06C26.07 2.06 26.57 1.58 26.57 0.75C26.57-8.19 22.50-13.08 14.54-13.08L14.13-13.08L14.13-17.75C14.13-18.43 13.66-18.98 12.96-18.98C12.47-18.98 12.13-18.76 11.64-18.30L2.41-9.70C1.91-9.22 1.79-8.84 1.79-8.46C1.79-8.10 1.92-7.70 2.41-7.23L11.64 1.42C12.09 1.84 12.49 2.06 12.98 2.06ZM12.50 0.16C12.43 0.16 12.35 0.13 12.26 0.04L3.62-8.07C3.45-8.24 3.40-8.34 3.40-8.46C3.40-8.58 3.45-8.68 3.62-8.85L12.26-17.03C12.33-17.10 12.40-17.16 12.49-17.16C12.61-17.16 12.68-17.07 12.68-16.97L12.68-12.07C12.68-11.81 12.79-11.71 13.04-11.71L14.34-11.71C22.03-11.71 25.11-6.70 25.28-0.04C25.28 0.07 25.24 0.13 25.16 0.13C25.08 0.13 25.04 0.05 25.00-0.05C23.55-3.33 20.00-5.17 14.34-5.17L13.04-5.17C12.79-5.17 12.68-5.06 12.68-4.80L12.68-0.04C12.68 0.08 12.61 0.16 12.50 0.16Z" fill="currentColor"/>
</svg>