<svg xmlns="http://www.w3.org/2000/svg" viewBox="0 0 24 24" width="24" height="24">
  <title>arrow.down.to.line.circle</title>
  <path transform="matrix(0.8507809903622466, 0, 0, 0.8507809903622466, 0.21535393818544368, 19.19840478564307)" d="M13.85 3.29C20.34 3.29 25.61-1.97 25.61-8.46C25.61-14.95 20.34-20.21 13.85-20.21C7.36-20.21 2.10-14.95 2.10-8.46C2.10-1.97 7.36 3.29 13.85 3.29ZM13.85 1.77C8.19 1.77 3.62-2.80 3.62-8.46C3.62-14.12 8.19-18.70 13.85-18.70C19.51-18.70 24.09-14.12 24.09-8.46C24.09-2.80 19.51 1.77 13.85 1.77ZM13.84-4.56C14.00-4.56 14.17-4.64 14.30-4.77L18.35-8.85C18.50-9 18.59-9.15 18.59-9.35C18.59-9.69 18.34-9.95 17.98-9.95C17.80-9.95 17.64-9.89 17.51-9.76L16.48-8.72L14.36-6.41L14.45-8.58L14.45-14.41C14.45-14.77 14.19-15.02 13.84-15.02C13.46-15.02 13.21-14.77 13.21-14.41L13.21-8.58L13.31-6.41L11.16-8.74L10.18-9.76C10.07-9.89 9.91-9.95 9.71-9.95C9.35-9.95 9.11-9.70 9.11-9.35C9.11-9.19 9.20-8.99 9.30-8.87L13.37-4.77C13.51-4.63 13.66-4.56 13.84-4.56ZM9.46-2.32L18.22-2.32C18.59-2.32 18.83-2.58 18.83-2.94C18.83-3.29 18.59-3.55 18.22-3.55L9.46-3.55C9.11-3.55 8.85-3.29 8.85-2.94C8.85-2.58 9.11-2.32 9.46-2.32Z" fill="currentColor"/>
</svg>