<svg xmlns="http://www.w3.org/2000/svg" viewBox="0 0 24 24" width="24" height="24">
  <title>arrowtriangle.up.square.fill</title>
  <path transform="matrix(0.9423891036259894, 0, 0, 0.9423891036259894, -0.8161236885698511, 19.967973495306463)" d="M6.45 2.16L20.75 2.16C23.04 2.16 24.21 0.98 24.21-1.27L24.21-15.64C24.21-17.89 23.04-19.07 20.75-19.07L6.45-19.07C4.16-19.07 2.99-17.91 2.99-15.64L2.99-1.27C2.99 1.00 4.16 2.16 6.45 2.16ZM9.39-4.84C8.87-4.84 8.65-5.45 8.93-5.92L13.01-12.75C13.29-13.21 13.92-13.23 14.21-12.75L18.27-5.92C18.56-5.41 18.33-4.84 17.82-4.84Z" fill="currentColor"/>
</svg>