<svg xmlns="http://www.w3.org/2000/svg" viewBox="0 0 24 24" width="24" height="24">
  
  <path transform="matrix(0.8076983751380344, 0, 0, 0.8076983751380344, 1.0866067203028869, 18.82915286322764)" d="M13.51 3.93C13.88 3.93 14.27 3.81 14.74 3.30L23.36-5.92C23.81-6.41 24.04-6.75 24.04-7.24C24.04-7.95 23.48-8.41 22.80-8.41L18.13-8.41L18.13-18.19C18.13-19.89 17.19-20.84 15.54-20.84L11.44-20.84C9.77-20.84 8.85-19.89 8.85-18.19L8.85-8.41L4.17-8.41C3.49-8.41 2.99-7.95 2.99-7.25C2.99-6.77 3.21-6.36 3.62-5.92L12.28 3.30C12.75 3.81 13.15 3.93 13.51 3.93ZM13.51 2.33C13.39 2.33 13.29 2.27 13.13 2.10L5.00-6.54C4.92-6.63 4.89-6.70 4.89-6.79C4.89-6.89 4.97-6.96 5.09-6.96L9.86-6.96C10.11-6.96 10.22-7.07 10.22-7.32L10.22-18.16C10.22-19.01 10.68-19.46 11.51-19.46L15.47-19.46C16.30-19.46 16.76-19.01 16.76-18.16L16.76-7.32C16.76-7.07 16.86-6.96 17.12-6.96L22.02-6.96C22.13-6.96 22.20-6.89 22.20-6.77C22.20-6.68 22.14-6.61 22.08-6.53L13.90 2.10C13.73 2.27 13.63 2.33 13.51 2.33Z" fill="currentColor"/>
</svg>