<svg xmlns="http://www.w3.org/2000/svg" viewBox="0 0 24 24" width="24" height="24">
  <title>arrow.right.to.line.circle.fill</title>
  <path transform="matrix(0.8507809903622466, 0, 0, 0.8507809903622466, 0.21535393818544368, 19.19840478564307)" d="M13.85 3.29C20.33 3.29 25.61-1.98 25.61-8.46C25.61-14.94 20.33-20.21 13.85-20.21C7.37-20.21 2.10-14.94 2.10-8.46C2.10-1.98 7.37 3.29 13.85 3.29ZM19.02-3.36C18.66-3.36 18.39-3.63 18.39-4.00L18.39-12.95C18.39-13.31 18.66-13.57 19.02-13.57C19.39-13.57 19.66-13.31 19.66-12.95L19.66-4.00C19.66-3.63 19.39-3.36 19.02-3.36ZM6.68-8.46C6.68-8.82 6.94-9.09 7.31-9.09L13.25-9.09L15.46-9L13.08-11.19L12.05-12.20C11.91-12.33 11.85-12.50 11.85-12.69C11.85-13.05 12.12-13.31 12.48-13.31C12.66-13.31 12.83-13.24 12.96-13.10L17.14-8.94C17.29-8.80 17.37-8.64 17.37-8.46C17.37-8.29 17.30-8.12 17.14-7.98L12.98-3.87C12.86-3.74 12.66-3.63 12.47-3.63C12.11-3.63 11.85-3.88 11.85-4.25C11.85-4.46 11.91-4.62 12.05-4.73L13.10-5.74L15.47-7.92L13.25-7.82L7.31-7.82C6.94-7.82 6.68-8.07 6.68-8.46Z" fill="currentColor"/>
</svg>