<svg xmlns="http://www.w3.org/2000/svg" viewBox="0 0 24 24" width="24" height="24">
  
  <path transform="matrix(0.8856599204289916, 0, 0, 0.8856599204289916, 3.0742086144265697, 19.488323819408407)" d="M10.08 2.84C10.30 2.84 10.50 2.74 10.66 2.57L16.93-3.75C17.09-3.90 17.17-4.13 17.17-4.32C17.17-4.79 16.84-5.11 16.39-5.11C16.16-5.11 15.98-5.04 15.84-4.90L12.87-1.86L10.80 0.45L10.86-2.21L10.86-14.70L10.80-17.36L12.87-15.05L15.84-12.01C15.98-11.87 16.16-11.80 16.39-11.80C16.84-11.80 17.17-12.12 17.17-12.59C17.17-12.79 17.09-13.01 16.93-13.16L10.66-19.48C10.50-19.65 10.30-19.75 10.08-19.75C9.86-19.75 9.66-19.65 9.49-19.48L3.23-13.16C3.08-13.01 2.99-12.79 2.99-12.59C2.99-12.12 3.32-11.80 3.76-11.80C4.00-11.80 4.18-11.87 4.31-12.01L7.30-15.05L9.36-17.36L9.29-14.70L9.29-2.21L9.36 0.45L7.30-1.86L4.31-4.90C4.18-5.04 4.00-5.11 3.76-5.11C3.32-5.11 2.99-4.79 2.99-4.32C2.99-4.13 3.08-3.90 3.23-3.75L9.49 2.57C9.66 2.74 9.86 2.84 10.08 2.84Z" fill="currentColor"/>
</svg>