<svg xmlns="http://www.w3.org/2000/svg" viewBox="0 0 24 24" width="24" height="24">
  
  <path transform="matrix(0.9423891036259894, 0, 0, 0.9423891036259894, -0.8161236885698511, 19.967973495306463)" d="M6.45 2.16L20.75 2.16C23.04 2.16 24.21 0.98 24.21-1.27L24.21-15.64C24.21-17.89 23.04-19.07 20.75-19.07L6.45-19.07C4.16-19.07 2.99-17.91 2.99-15.64L2.99-1.27C2.99 1.00 4.16 2.16 6.45 2.16ZM6.47 0.70C5.16 0.70 4.44 0.01 4.44-1.35L4.44-15.56C4.44-16.92 5.16-17.61 6.47-17.61L20.72-17.61C22.02-17.61 22.76-16.92 22.76-15.56L22.76-1.35C22.76 0.01 22.02 0.70 20.72 0.70ZM9.22-13.27L17.99-13.27C18.34-13.27 18.60-13.52 18.60-13.88C18.60-14.24 18.34-14.50 17.99-14.50L9.22-14.50C8.86-14.50 8.61-14.24 8.61-13.88C8.61-13.52 8.86-13.27 9.22-13.27ZM13.59-1.79C13.96-1.79 14.21-2.05 14.21-2.40L14.21-8.24L14.12-10.41L16.17-8.16L17.26-7.05C17.40-6.93 17.55-6.87 17.74-6.87C18.09-6.87 18.34-7.13 18.34-7.46C18.34-7.66 18.26-7.82 18.11-7.97L14.06-12.05C13.93-12.18 13.76-12.26 13.59-12.26C13.43-12.26 13.27-12.19 13.14-12.05L9.07-7.95C8.95-7.82 8.87-7.63 8.87-7.46C8.87-7.11 9.11-6.87 9.47-6.87C9.67-6.87 9.82-6.93 9.95-7.05L10.91-8.07L13.07-10.41L12.97-8.24L12.97-2.40C12.97-2.05 13.22-1.79 13.59-1.79Z" fill="currentColor"/>
</svg>