<svg xmlns="http://www.w3.org/2000/svg" viewBox="0 0 24 24" width="24" height="24">
  <title>arrowshape.backward.fill</title>
  <path transform="matrix(0.8073163040050457, 0, 0, 0.8073163040050457, 0.5525070955534532, 18.83065279091769)" d="M14.13 0.88L14.13-4.02L24.06-4.02C25.66-4.02 26.57-4.90 26.57-6.46L26.57-10.42C26.57-11.98 25.66-12.86 24.06-12.86L14.13-12.86L14.13-17.75C14.13-18.43 13.66-18.98 12.96-18.98C12.47-18.98 12.13-18.76 11.64-18.30L2.41-9.70C1.91-9.22 1.79-8.84 1.79-8.46C1.79-8.10 1.92-7.70 2.41-7.23L11.64 1.42C12.09 1.84 12.49 2.06 12.98 2.06C13.66 2.06 14.13 1.56 14.13 0.88Z" fill="currentColor"/>
</svg>