<svg xmlns="http://www.w3.org/2000/svg" viewBox="0 0 24 24" width="24" height="24">
  <title>arrow.right.and.line.vertical.and.arrow.left</title>
  <path transform="matrix(0.5901337021668972, 0, 0, 0.5901337021668972, 0.2365145228215768, 16.986168741355463)" d="M19.95 2.67C20.40 2.67 20.74 2.34 20.74 1.88L20.74-18.80C20.74-19.25 20.40-19.57 19.95-19.57C19.49-19.57 19.15-19.25 19.15-18.80L19.15 1.88C19.15 2.34 19.49 2.67 19.95 2.67ZM16.98-8.46C16.98-8.68 16.89-8.89 16.71-9.06L11.45-14.33C11.26-14.51 11.06-14.59 10.84-14.59C10.39-14.59 10.07-14.26 10.07-13.82C10.07-13.59 10.14-13.38 10.30-13.22L14.50-9.20L12.01-9.26L3.77-9.26C3.30-9.26 2.99-8.93 2.99-8.46C2.99-7.99 3.30-7.66 3.77-7.66L12.01-7.66L14.50-7.72L10.30-3.70C10.14-3.56 10.07-3.33 10.07-3.11C10.07-2.66 10.39-2.33 10.84-2.33C11.06-2.33 11.25-2.40 11.45-2.60L16.71-7.86C16.89-8.04 16.98-8.24 16.98-8.46ZM22.89-8.46C22.89-8.24 22.98-8.04 23.16-7.86L28.42-2.60C28.61-2.40 28.80-2.33 29.03-2.33C29.46-2.33 29.80-2.66 29.80-3.11C29.80-3.33 29.73-3.56 29.57-3.70L25.37-7.72L27.86-7.66L36.09-7.66C36.55-7.66 36.88-7.99 36.88-8.46C36.88-8.93 36.55-9.26 36.09-9.26L27.86-9.26L25.37-9.20L29.57-13.22C29.73-13.38 29.80-13.59 29.80-13.82C29.80-14.26 29.46-14.59 29.03-14.59C28.80-14.59 28.61-14.51 28.42-14.33L23.16-9.06C22.98-8.89 22.89-8.68 22.89-8.46Z" fill="currentColor"/>
</svg>