<svg xmlns="http://www.w3.org/2000/svg" viewBox="0 0 24 24" width="24" height="24">
  
  <path transform="matrix(0.8507809903622466, 0, 0, 0.8507809903622466, 0.21535393818544368, 19.19840478564307)" d="M13.85 3.29C20.33 3.29 25.61-1.98 25.61-8.46C25.61-14.94 20.33-20.21 13.85-20.21C7.37-20.21 2.10-14.94 2.10-8.46C2.10-1.98 7.37 3.29 13.85 3.29ZM15.49-15.16C15.73-14.93 15.75-14.54 15.49-14.30L9.57-8.38L9.04-7.86L9.97-7.89L12.05-7.90C12.23-7.90 12.40-7.83 12.50-7.71C12.76-7.46 12.75-7.11 12.50-6.87C12.40-6.75 12.22-6.66 12.05-6.66L7.62-6.64C7.27-6.63 6.96-6.94 6.96-7.29L7.01-11.72C7.01-11.88 7.08-12.08 7.18-12.19C7.43-12.43 7.79-12.43 8.05-12.19C8.17-12.06 8.24-11.89 8.23-11.72L8.21-9.71L8.18-8.73L8.70-9.26L14.63-15.18C14.87-15.43 15.25-15.42 15.49-15.16ZM12.19-1.76C11.95-1.99 11.94-2.37 12.19-2.63L18.11-8.54L18.63-9.05L17.73-9.02L15.66-9.01C15.48-9 15.30-9.08 15.20-9.19C14.94-9.45 14.94-9.81 15.20-10.05C15.32-10.17 15.48-10.25 15.66-10.25L20.09-10.28C20.44-10.28 20.74-9.97 20.74-9.62L20.71-5.19C20.71-5.02 20.61-4.83 20.51-4.73C20.26-4.48 19.91-4.48 19.65-4.72C19.54-4.85 19.46-5.02 19.46-5.19L19.49-7.20L19.51-8.20L19.01-7.66L13.07-1.75C12.82-1.50 12.43-1.51 12.19-1.76Z" fill="currentColor"/>
</svg>