<svg xmlns="http://www.w3.org/2000/svg" viewBox="0 0 24 24" width="24" height="24">
  
  <path transform="matrix(0.9111941626623954, 0, 0, 0.9111941626623954, 1.156433529097706, 19.70421783235451)" d="M18.56 2.52C19.24 2.52 19.83 2.52 20.12 2.45C20.50 2.38 20.81 2.16 20.81 1.70C20.81 1.23 20.47 0.94 20.02 0.94C19.73 0.94 19.25 0.96 18.66 0.96C14.34 0.96 12.50-0.69 12.50-5.00L12.52-13.99L12.45-17.00L14.82-14.45L19.14-10.14C19.28-10.00 19.49-9.93 19.70-9.93C20.13-9.93 20.46-10.25 20.46-10.70C20.46-10.91 20.39-11.10 20.21-11.27L12.32-19.16C12.15-19.34 11.95-19.43 11.73-19.43C11.51-19.43 11.31-19.34 11.13-19.16L3.23-11.27C3.07-11.10 2.99-10.91 2.99-10.70C2.99-10.25 3.32-9.93 3.75-9.93C3.96-9.93 4.18-10.00 4.31-10.14L8.64-14.45L11.00-17.00L10.95-13.99L10.95-4.93C10.95 0.32 13.31 2.52 18.56 2.52Z" fill="currentColor"/>
</svg>