<svg xmlns="http://www.w3.org/2000/svg" viewBox="0 0 24 24" width="24" height="24">
  <title>arrow.up.left.arrow.down.right.circle.fill</title>
  <path transform="matrix(0.8507809903622466, 0, 0, 0.8507809903622466, 0.21535393818544368, 19.19840478564307)" d="M13.85 3.29C20.33 3.29 25.61-1.98 25.61-8.46C25.61-14.94 20.33-20.21 13.85-20.21C7.37-20.21 2.10-14.94 2.10-8.46C2.10-1.98 7.37 3.29 13.85 3.29ZM12.19-15.16C12.43-15.42 12.82-15.43 13.07-15.18L19.01-9.26L19.51-8.72L19.49-9.73L19.46-11.74C19.46-11.91 19.54-12.07 19.65-12.20C19.91-12.45 20.26-12.45 20.51-12.19C20.61-12.09 20.71-11.91 20.71-11.73L20.74-7.30C20.74-6.95 20.44-6.66 20.09-6.66L15.66-6.68C15.48-6.68 15.32-6.75 15.20-6.87C14.94-7.11 14.94-7.48 15.20-7.73C15.30-7.84 15.48-7.92 15.66-7.91L17.73-7.90L18.63-7.88L18.11-8.38L12.19-14.31C11.94-14.55 11.95-14.93 12.19-15.16ZM15.49-1.76C15.25-1.51 14.87-1.50 14.63-1.76L8.70-7.66L8.18-8.19L8.21-7.22L8.23-5.20C8.24-5.03 8.17-4.86 8.05-4.75C7.79-4.49 7.43-4.50 7.18-4.75C7.08-4.85 7.01-5.04 7.01-5.21L6.96-9.63C6.96-10.00 7.27-10.29 7.62-10.28L12.05-10.27C12.22-10.27 12.40-10.17 12.50-10.07C12.75-9.82 12.76-9.46 12.50-9.21C12.40-9.09 12.23-9.02 12.05-9.02L9.97-9.05L9.04-9.06L9.57-8.54L15.49-2.63C15.75-2.38 15.73-1.99 15.49-1.76Z" fill="currentColor"/>
</svg>