<svg xmlns="http://www.w3.org/2000/svg" viewBox="0 0 24 24" width="24" height="24">
  <title>arrow.down.left.circle</title>
  <path transform="matrix(0.8507809903622466, 0, 0, 0.8507809903622466, 0.21535393818544368, 19.19840478564307)" d="M13.85 3.29C20.34 3.29 25.61-1.97 25.61-8.46C25.61-14.95 20.34-20.21 13.85-20.21C7.36-20.21 2.10-14.95 2.10-8.46C2.10-1.97 7.36 3.29 13.85 3.29ZM13.85 1.77C8.19 1.77 3.62-2.80 3.62-8.46C3.62-14.12 8.19-18.70 13.85-18.70C19.51-18.70 24.09-14.12 24.09-8.46C24.09-2.80 19.51 1.77 13.85 1.77ZM10.70-8.00L10.70-10.58C10.70-11.02 10.43-11.29 10.02-11.29C9.63-11.29 9.36-10.99 9.36-10.56L9.36-4.72C9.36-4.20 9.66-3.98 10.10-3.98L15.97-3.98C16.41-3.98 16.68-4.24 16.68-4.64C16.68-5.04 16.39-5.31 15.96-5.31L13.14-5.31L11.41-5.16L13.03-6.68L18.09-11.74C18.22-11.87 18.32-12.05 18.32-12.23C18.32-12.64 18.05-12.91 17.65-12.91C17.41-12.91 17.25-12.83 17.12-12.70L12.06-7.64L10.55-6.05Z" fill="currentColor"/>
</svg>