<svg xmlns="http://www.w3.org/2000/svg" viewBox="0 0 24 24" width="24" height="24">
  
  <path transform="matrix(0.7210252077172229, 0, 0, 0.7210252077172229, 0.48753696662441914, 18.135855732715157)" d="M15.96-15.18C18.07-15.18 20.02-14.45 21.55-13.23C21.80-13.04 22.10-13.07 22.32-13.29L24.91-15.87C25.18-16.14 25.17-16.52 24.89-16.77C22.48-18.80 19.36-20.03 15.96-20.03C12.57-20.03 9.45-18.80 7.04-16.77C6.75-16.52 6.75-16.14 7.02-15.87L9.61-13.29C9.83-13.07 10.15-13.04 10.41-13.25C11.94-14.45 13.88-15.18 15.96-15.18ZM2.10-6.15C2.10-2.75 3.33 0.38 5.37 2.79C5.61 3.07 6 3.08 6.27 2.81L8.89 0.18C9.08-0.04 9.11-0.30 8.93-0.53C7.68-2.12 6.95-4.05 6.95-6.15C6.95-8.26 7.66-10.18 8.88-11.72C9.07-11.98 9.07-12.29 8.84-12.52L6.26-15.11C6-15.36 5.60-15.38 5.37-15.08C3.32-12.67 2.10-9.55 2.10-6.15ZM29.84-6.15C29.84-9.55 28.61-12.67 26.57-15.08C26.33-15.38 25.93-15.36 25.66-15.11L23.09-12.52C22.86-12.29 22.85-11.98 23.05-11.72C24.26-10.18 24.98-8.26 24.98-6.15C24.98-4.05 24.26-2.12 23.00-0.53C22.83-0.30 22.84-0.04 23.04 0.18L25.66 2.81C25.92 3.08 26.32 3.07 26.55 2.79C28.61 0.38 29.84-2.75 29.84-6.15ZM19.30-0.46C19.45-0.46 19.58-0.59 19.58-0.73L19.58-1.66C20.94-1.76 21.88-2.59 21.88-3.93C21.88-5.25 21.07-5.80 19.96-6.33L19.58-6.52L19.58-9.60C20.32-9.48 20.65-8.93 20.79-8.12C20.85-7.88 21-7.73 21.25-7.73C21.54-7.73 21.73-7.91 21.73-8.20C21.73-8.31 21.71-8.43 21.68-8.58C21.46-9.69 20.67-10.35 19.58-10.44L19.58-11.34C19.58-11.50 19.45-11.63 19.30-11.63C19.15-11.63 19.02-11.50 19.02-11.34L19.02-10.44C17.78-10.35 16.83-9.57 16.83-8.26C16.83-7.07 17.53-6.42 18.70-5.87L19.02-5.72L19.02-2.52C18.16-2.64 17.79-3.25 17.67-4.02C17.60-4.34 17.43-4.45 17.19-4.45C16.93-4.45 16.71-4.29 16.71-3.98C16.71-3.88 16.72-3.79 16.75-3.66C16.92-2.58 17.78-1.78 19.02-1.68L19.02-0.73C19.02-0.59 19.15-0.46 19.30-0.46ZM10.21-1.39C10.46-1.39 10.64-1.54 10.71-1.83L11.27-4.01L14.18-4.01L14.77-1.83C14.84-1.54 14.99-1.39 15.29-1.39C15.55-1.39 15.77-1.55 15.77-1.88C15.77-1.98 15.76-2.07 15.73-2.19L13.51-10.07C13.38-10.49 13.17-10.71 12.74-10.71C12.30-10.71 12.07-10.46 11.96-10.05L9.75-2.19C9.73-2.10 9.70-1.98 9.70-1.88C9.70-1.55 9.93-1.39 10.21-1.39ZM17.81-8.32C17.81-9.08 18.34-9.52 19.02-9.60L19.02-6.79C18.36-7.14 17.81-7.58 17.81-8.32ZM11.48-4.85L12.68-9.42L12.76-9.42L13.97-4.85ZM20.89-3.84C20.89-3.02 20.38-2.59 19.58-2.51L19.58-5.45C20.32-5.09 20.89-4.66 20.89-3.84Z" fill="currentColor"/>
</svg>