<svg xmlns="http://www.w3.org/2000/svg" viewBox="0 0 24 24" width="24" height="24">
  
  <path transform="matrix(0.7072800110512502, 0, 0, 0.7072800110512502, 3.3220047901640464, 18.41110650642354)" d="M8.77 5.07L15.77 5.07C19.69 5.07 21.59 3.12 21.55-0.83C21.50-5.45 21.48-8.80 21.36-11.31C21.11-17.21 19.73-19.72 15.66-20.46C15.43-22.07 14.07-23.20 12.28-23.20C10.48-23.20 9.12-22.07 8.89-20.46C4.80-19.72 3.43-17.21 3.18-11.31C3.06-8.80 3.04-5.45 2.99-0.83C2.95 3.12 4.86 5.07 8.77 5.07ZM12.27-20.72C11.55-20.72 10.89-20.70 10.27-20.64C10.55-21.41 11.31-21.90 12.28-21.90C13.24-21.90 14.00-21.41 14.29-20.64C13.66-20.70 13.00-20.72 12.27-20.72ZM8.77 3.70C5.64 3.70 4.32 2.38 4.36-0.82C4.41-5.43 4.43-8.77 4.55-11.24C4.84-17.82 6.29-19.34 12.27-19.34C18.25-19.34 19.70-17.82 19.99-11.24C20.11-8.77 20.13-5.43 20.18-0.82C20.21 2.38 18.90 3.70 15.77 3.70ZM8.59 0.57L15.95 0.57C16.96 0.57 17.63-0.09 17.63-1.09L17.63-6.73C17.63-7.73 16.96-8.39 15.95-8.39L8.59-8.39C7.59-8.39 6.93-7.72 6.93-6.73L6.93-1.09C6.93-0.09 7.59 0.57 8.59 0.57ZM8.21-6.56C8.21-6.88 8.44-7.10 8.77-7.10L15.77-7.10C16.10-7.10 16.32-6.88 16.32-6.56L16.32-5.31L8.21-5.31ZM8.77-0.71C8.44-0.71 8.21-0.94 8.21-1.25L8.21-4.14L16.32-4.14L16.32-1.25C16.32-0.94 16.10-0.71 15.77-0.71Z" fill="currentColor"/>
</svg>