<svg xmlns="http://www.w3.org/2000/svg" viewBox="0 0 24 24" width="24" height="24">
  
  <path transform="matrix(0.8507809903622466, 0, 0, 0.8507809903622466, 0.21535393818544368, 19.19840478564307)" d="M13.85 3.29C20.33 3.29 25.61-1.98 25.61-8.46C25.61-14.94 20.33-20.21 13.85-20.21C7.37-20.21 2.10-14.94 2.10-8.46C2.10-1.98 7.37 3.29 13.85 3.29ZM5.26-8.44C5.26-8.73 5.43-8.96 5.75-9.16L11.67-12.66C11.87-12.77 12.06-12.83 12.27-12.83C12.67-12.83 13.01-12.55 13.01-11.96L13.01-8.74C13.08-8.91 13.22-9.05 13.41-9.16L19.35-12.66C19.55-12.77 19.73-12.83 19.95-12.83C20.32-12.83 20.67-12.55 20.67-11.96L20.67-4.91C20.67-4.32 20.32-4.04 19.95-4.04C19.73-4.04 19.55-4.10 19.35-4.22L13.41-7.71C13.22-7.83 13.08-7.97 13.01-8.13L13.01-4.91C13.01-4.32 12.67-4.04 12.27-4.04C12.06-4.04 11.87-4.10 11.67-4.22L5.75-7.71C5.43-7.91 5.26-8.14 5.26-8.44Z" fill="currentColor"/>
</svg>