<svg xmlns="http://www.w3.org/2000/svg" viewBox="0 0 24 24" width="24" height="24">
  
  <path transform="matrix(0.7736476276820792, 0, 0, 0.7736476276820792, 0.3816863100634629, 18.54578422484134)" d="M15.02 4.46C22.13 4.46 27.94-1.35 27.94-8.46C27.94-15.57 22.13-21.39 15.02-21.39C7.91-21.39 2.10-15.57 2.10-8.46C2.10-1.35 7.91 4.46 15.02 4.46ZM15.02 0.26C10.20 0.26 6.30-3.64 6.30-8.46C6.30-13.28 10.20-17.18 15.02-17.18C19.84-17.18 23.73-13.28 23.73-8.46C23.73-3.64 19.84 0.26 15.02 0.26ZM12.70-3.40L14.68-3.40L14.68-2.39C14.68-2.18 14.81-2.04 15.02-2.04C15.22-2.04 15.35-2.18 15.35-2.39L15.35-3.40L15.59-3.40C17.52-3.40 19.07-4.29 19.07-6.20C19.07-7.63 18.02-8.55 16.65-8.71L16.65-8.79C17.73-8.94 18.54-9.95 18.54-11.05C18.54-12.71 17.13-13.56 15.56-13.56L15.35-13.56L15.35-14.64C15.35-14.85 15.21-14.98 15.02-14.98C14.81-14.98 14.68-14.85 14.68-14.64L14.68-13.56L12.70-13.56C12.25-13.56 12-13.27 12-12.83L12-4.10C12-3.69 12.26-3.40 12.70-3.40ZM13.11-9.09L13.11-12.60L14.68-12.60L14.68-9.09ZM17.43-10.92C17.43-9.73 16.54-9.19 15.35-9.11L15.35-12.60C16.49-12.60 17.43-12.11 17.43-10.92ZM13.11-4.35L13.11-8.17L14.68-8.17L14.68-4.35ZM17.93-6.26C17.93-4.86 16.80-4.35 15.39-4.35L15.35-4.35L15.35-8.17C16.75-8.14 17.93-7.65 17.93-6.26Z" fill="currentColor"/>
</svg>