<svg xmlns="http://www.w3.org/2000/svg" viewBox="0 0 24 24" width="24" height="24">
  
  <path transform="matrix(0.6658863311223826, 0, 0, 0.6658863311223826, 0.010144362075692692, 17.630120952009364)" d="M2.99 0.09C2.99 0.59 3.29 0.89 3.79 0.89L32.23 0.89C32.71 0.89 33.02 0.59 33.02 0.09L33.02-17.00C33.02-17.50 32.71-17.80 32.23-17.80L3.79-17.80C3.29-17.80 2.99-17.50 2.99-17.00ZM4.44-0.86L4.44-16.05C4.44-16.27 4.52-16.36 4.73-16.36L31.27-16.36C31.49-16.36 31.57-16.27 31.57-16.05L31.57-0.86C31.57-0.64 31.49-0.55 31.27-0.55L4.73-0.55C4.52-0.55 4.44-0.64 4.44-0.86ZM5.78-2.48C5.78-2.11 5.99-1.90 6.35-1.90L29.66-1.90C30.02-1.90 30.23-2.11 30.23-2.48L30.23-14.43C30.23-14.80 30.02-15.01 29.66-15.01L6.35-15.01C5.99-15.01 5.78-14.80 5.78-14.43ZM6.76-3.11L6.76-13.80C6.76-13.96 6.84-14.03 7.00-14.03L15.53-14.03C14.34-12.95 13.52-11.04 13.52-8.47C13.52-5.88 14.34-3.96 15.53-2.88L7.00-2.88C6.84-2.88 6.76-2.95 6.76-3.11ZM22.49-8.47C22.49-11.04 21.67-12.95 20.46-14.03L29.02-14.03C29.17-14.03 29.25-13.96 29.25-13.80L29.25-3.11C29.25-2.95 29.17-2.88 29.02-2.88L20.46-2.88C21.67-3.96 22.49-5.88 22.49-8.47ZM17.98-3.01C16.23-3.01 14.61-5.00 14.61-8.47C14.61-11.92 16.23-13.90 17.98-13.90C19.75-13.90 21.40-11.92 21.40-8.47C21.40-5.00 19.75-3.01 17.98-3.01Z" fill="currentColor"/>
</svg>