<svg xmlns="http://www.w3.org/2000/svg" viewBox="0 0 24 24" width="24" height="24">
  <title>basketball.fill</title>
  <path transform="matrix(0.8507809903622466, 0, 0, 0.8507809903622466, 0.21535393818544368, 19.19840478564307)" d="M9.22-14.23C9.88-14.54 10.56-14.82 11.26-15.06C11.23-15.32 11.20-15.56 11.20-15.83C11.20-17.74 12.30-19.31 13.99-20.19C13.84-20.20 13.70-20.21 13.54-20.21C12.14-20.18 10.80-19.90 9.57-19.41C9.15-18.20 8.98-16.52 9.22-14.23ZM12.34-15.38C13.83-15.79 15.39-16.00 17.00-16.00C19.35-16.00 21.67-15.52 23.81-14.65C22.14-17.33 19.41-19.30 16.23-19.97C13.79-19.28 12.26-17.93 12.30-15.83C12.30-15.68 12.32-15.53 12.34-15.38ZM6.95-12.94C7.36-13.22 7.78-13.48 8.21-13.72C7.95-15.89 8.03-17.65 8.45-18.88C7.07-18.15 5.85-17.17 4.85-15.98C6.12-15.68 6.76-14.11 6.95-12.94ZM2.11-8.27C3.11-9.73 4.49-11.12 5.93-12.22C5.92-12.29 5.92-12.36 5.92-12.45C5.86-13.31 5.29-15.06 4.20-15.12C2.92-13.29 2.16-11.09 2.10-8.73C2.10-8.58 2.11-8.41 2.11-8.27ZM24.36-3.23C25.16-4.82 25.61-6.59 25.61-8.46C25.61-10.11 25.25-11.70 24.62-13.13C22.21-14.30 19.70-14.91 17.00-14.91C15.48-14.91 14.03-14.71 12.62-14.33C14.34-10.38 22.66-8.68 24.36-3.23ZM11.57-14.02C10.80-13.77 10.07-13.45 9.36-13.10C10.07-8.75 12.27-2.75 17.00 2.85C19.68 2.11 21.97 0.41 23.52-1.83C23.05-7.45 13.50-9.15 11.57-14.02ZM7.04-11.70C7.08-6.67 4.89-0.87 9.22 2.24C10.62 2.91 12.20 3.29 13.85 3.29C14.52 3.29 15.18 3.23 15.82 3.13C11.37-2.31 9.15-8.12 8.38-12.56C7.92-12.30 7.48-12.01 7.04-11.70ZM5.92-10.82C4.52-9.62 3.21-8.13 2.25-6.60C2.70-3.83 4.14-1.37 6.19 0.40C4.69-2.94 5.80-7.18 5.92-10.82Z" fill="currentColor"/>
</svg>