<svg xmlns="http://www.w3.org/2000/svg" viewBox="0 0 24 24" width="24" height="24">
  
  <path transform="matrix(0.6711233451304234, 0, 0, 0.6711233451304234, -0.005505308690522792, 17.71821286509329)" d="M8.12 0.23C8.50 0.38 8.92 0.18 9.06-0.20L9.83-2.33C10.28-2.27 10.75-2.24 11.24-2.24L24.54-2.24C25.03-2.24 25.50-2.27 25.95-2.33L26.72-0.20C26.86 0.18 27.28 0.38 27.66 0.23C28.02 0.11 28.22-0.32 28.08-0.69L27.38-2.64C29.73-3.41 30.94-5.32 30.94-8.31L30.94-13.23C32.00-13.32 32.79-14.16 32.79-15.26C32.79-16.44 31.90-17.32 30.74-17.32L5.04-17.32C3.88-17.32 2.99-16.44 2.99-15.26C2.99-14.16 3.77-13.32 4.84-13.23L4.84-8.31C4.84-5.32 6.05-3.41 8.40-2.64L7.70-0.69C7.56-0.32 7.76 0.11 8.12 0.23ZM4.42-15.26C4.42-15.64 4.70-15.90 5.10-15.90L30.68-15.90C31.08-15.90 31.36-15.64 31.36-15.26C31.36-14.89 31.08-14.63 30.68-14.63L5.10-14.63C4.70-14.63 4.42-14.89 4.42-15.26ZM11.24-3.69C7.97-3.69 6.29-5.25 6.29-8.31L6.29-13.22L29.48-13.22L29.48-8.31C29.48-5.25 27.81-3.69 24.54-3.69Z" fill="currentColor"/>
</svg>