<svg xmlns="http://www.w3.org/2000/svg" viewBox="0 0 24 24" width="24" height="24">
  
  <path transform="matrix(0.8507809903622466, 0, 0, 0.8507809903622466, 0.21535393818544368, 19.19840478564307)" d="M13.85 3.29C20.33 3.29 25.61-1.98 25.61-8.46C25.61-14.94 20.33-20.21 13.85-20.21C7.37-20.21 2.10-14.94 2.10-8.46C2.10-1.98 7.37 3.29 13.85 3.29ZM9.45-4.86C8.47-4.86 7.75-4.97 7.21-5.48C6.70-6.01 6.59-6.75 6.59-7.70L6.59-9.22C6.59-10.17 6.70-10.90 7.21-11.44C7.75-11.96 8.50-12.08 9.45-12.08L17.50-12.08C18.43-12.08 19.17-11.96 19.70-11.44C20.21-10.90 20.34-10.16 20.34-9.22L20.34-7.70C20.34-6.76 20.21-6.01 19.70-5.48C19.18-4.97 18.45-4.86 17.50-4.86ZM9.29-5.95L17.64-5.95C18.23-5.95 18.67-6.06 18.90-6.29C19.13-6.52 19.25-6.96 19.25-7.55L19.25-9.38C19.25-9.96 19.13-10.42 18.90-10.63C18.67-10.86 18.22-10.98 17.64-10.98L9.29-10.98C8.70-10.98 8.26-10.88 8.03-10.63C7.79-10.42 7.70-9.98 7.70-9.38L7.70-7.55C7.70-6.94 7.79-6.50 8.03-6.29C8.26-6.06 8.70-5.95 9.29-5.95ZM9.33-6.57C8.93-6.57 8.67-6.63 8.52-6.77C8.39-6.91 8.32-7.16 8.32-7.57L8.32-9.36C8.32-9.77 8.39-10.02 8.52-10.16C8.67-10.30 8.93-10.37 9.33-10.37L17.61-10.37C18.01-10.37 18.26-10.30 18.41-10.16C18.56-10.01 18.63-9.75 18.63-9.36L18.63-7.57C18.63-7.18 18.56-6.93 18.41-6.77C18.26-6.63 18.01-6.57 17.61-6.57ZM20.89-7.01L20.89-9.91C21.34-9.88 21.94-9.32 21.94-8.46C21.94-7.61 21.34-7.03 20.89-7.01Z" fill="currentColor"/>
</svg>