<svg xmlns="http://www.w3.org/2000/svg" viewBox="0 0 24 24" width="24" height="24">
  
  <path transform="matrix(0.9423891036259894, 0, 0, 0.9423891036259894, -0.8161236885698511, 19.967973495306463)" d="M6.45 2.16L20.75 2.16C23.04 2.16 24.21 0.98 24.21-1.27L24.21-15.64C24.21-17.89 23.04-19.07 20.75-19.07L6.45-19.07C4.16-19.07 2.99-17.91 2.99-15.64L2.99-1.27C2.99 1.00 4.16 2.16 6.45 2.16ZM6.47 0.70C5.16 0.70 4.44 0.01 4.44-1.35L4.44-15.56C4.44-16.92 5.16-17.61 6.47-17.61L20.72-17.61C22.02-17.61 22.76-16.92 22.76-15.56L22.76-1.35C22.76 0.01 22.02 0.70 20.72 0.70ZM11.18-3.41L11.95-3.41L11.95-2.21C11.95-2.03 12.11-1.88 12.29-1.88C12.49-1.88 12.63-2.03 12.63-2.21L12.63-3.41L13.77-3.41L13.77-2.21C13.77-2.03 13.91-1.88 14.10-1.88C14.30-1.88 14.44-2.03 14.44-2.21L14.44-3.42C16.24-3.53 17.55-4.45 17.55-6.19C17.55-7.58 16.55-8.52 15.13-8.67L15.13-8.75C16.27-8.93 17.03-9.93 17.03-10.99C17.03-12.46 15.91-13.32 14.44-13.45L14.44-14.61C14.44-14.81 14.30-14.95 14.10-14.95C13.91-14.95 13.77-14.81 13.77-14.61L13.77-13.48L12.63-13.48L12.63-14.61C12.63-14.81 12.49-14.95 12.29-14.95C12.11-14.95 11.95-14.81 11.95-14.61L11.95-13.48L11.18-13.48C10.76-13.48 10.48-13.18 10.48-12.76L10.48-4.13C10.48-3.70 10.76-3.41 11.18-3.41ZM11.60-9.07L11.60-12.53L13.77-12.53C14.94-12.53 15.90-12.05 15.90-10.86C15.90-9.56 14.81-9.07 13.49-9.07ZM11.60-4.37L11.60-8.13L13.75-8.13C15.18-8.13 16.41-7.65 16.41-6.25C16.41-4.86 15.26-4.37 13.88-4.37Z" fill="currentColor"/>
</svg>