<svg xmlns="http://www.w3.org/2000/svg" viewBox="0 0 24 24" width="24" height="24">
  
  <path transform="matrix(0.78902758514409, 0, 0, 0.78902758514409, -0.35783633841886253, 18.675913083680076)" d="M3.71 3.79L27.61 3.79C28.01 3.79 28.34 3.46 28.34 3.06C28.34 2.66 28.01 2.33 27.61 2.33L26.99 2.33L26.99 1.54C26.99 1.18 26.78 0.97 26.41 0.97L25.66 0.97L25.66-13.11L26.74-13.11C27.23-13.11 27.52-13.46 27.52-13.84C27.52-14.10 27.38-14.34 27.05-14.53L16.99-20.33C16.56-20.58 16.10-20.71 15.66-20.71C15.22-20.71 14.75-20.58 14.33-20.33L4.28-14.53C3.95-14.34 3.81-14.10 3.81-13.84C3.81-13.46 4.08-13.11 4.58-13.11L5.66-13.11L5.66 0.97L4.91 0.97C4.56 0.97 4.34 1.18 4.34 1.54L4.34 2.33L3.71 2.33C3.32 2.33 2.99 2.66 2.99 3.06C2.99 3.46 3.32 3.79 3.71 3.79ZM13.20-2.25C12.76-2.25 12.46-2.55 12.46-2.99L12.46-11.80C12.46-12.23 12.76-12.53 13.20-12.53L13.98-12.53L13.98-13.70C13.98-13.90 14.12-14.05 14.32-14.05C14.52-14.05 14.66-13.90 14.66-13.70L14.66-12.53L15.82-12.53L15.82-13.70C15.82-13.90 15.97-14.05 16.16-14.05C16.37-14.05 16.52-13.90 16.52-13.70L16.52-12.50C18.02-12.38 19.16-11.48 19.16-10.00C19.16-8.91 18.39-7.89 17.23-7.71L17.23-7.63C18.67-7.48 19.70-6.52 19.70-5.09C19.70-3.32 18.36-2.38 16.52-2.26L16.52-1.03C16.52-0.83 16.37-0.69 16.16-0.69C15.97-0.69 15.82-0.83 15.82-1.03L15.82-2.25L14.66-2.25L14.66-1.03C14.66-0.83 14.52-0.69 14.32-0.69C14.12-0.69 13.98-0.83 13.98-1.03L13.98-2.25ZM13.62-8.03L15.54-8.03C16.89-8.03 17.99-8.53 17.99-9.86C17.99-11.06 17.03-11.57 15.83-11.57L13.62-11.57ZM13.62-3.23L15.94-3.23C17.34-3.23 18.52-3.75 18.52-5.16C18.52-6.59 17.26-7.08 15.81-7.08L13.62-7.08Z" fill="currentColor"/>
</svg>