<svg xmlns="http://www.w3.org/2000/svg" viewBox="0 0 24 24" width="24" height="24">
  
  <path transform="matrix(0.7840734887240481, 0, 0, 0.7840734887240481, 3.0798145275752407, 18.708579524322314)" d="M16.46-6.18L19.07-9.42C19.23-9.63 19.34-9.82 19.34-10.04C19.34-10.37 19.09-10.63 18.69-10.64L12.13-10.70L15.56-20.24C15.90-21.22 14.94-21.70 14.31-20.92L8.73-13.92ZM19.79 0.86C20.06 1.13 20.52 1.13 20.79 0.86C21.05 0.60 21.06 0.14 20.79-0.14L2.96-17.95C2.71-18.22 2.23-18.23 1.97-17.95C1.70-17.70 1.70-17.24 1.97-16.97ZM8.51 3.81L14.07-3.18L6.33-10.92L3.75-7.68C3.57-7.46 3.48-7.28 3.48-7.05C3.48-6.73 3.73-6.47 4.13-6.47L10.68-6.40L7.25 3.13C6.91 4.10 7.88 4.59 8.51 3.81Z" fill="currentColor"/>
</svg>