<svg xmlns="http://www.w3.org/2000/svg" viewBox="0 0 24 24" width="24" height="24">
  
  <path transform="matrix(0.8507809903622466, 0, 0, 0.8507809903622466, 0.21535393818544368, 19.188434695912264)" d="M13.85 3.30C20.33 3.30 25.61-1.97 25.61-8.45C25.61-14.93 20.33-20.20 13.85-20.20C7.37-20.20 2.10-14.93 2.10-8.45C2.10-1.97 7.37 3.30 13.85 3.30ZM7.22-4.34L7.22-7.52C7.22-8.51 7.44-9.04 7.93-9.66L8.43-10.29C8.64-11.33 9-12.41 9.20-12.83C9.50-13.46 10.09-13.82 10.79-13.91C11.18-13.95 12.46-13.98 13.85-13.98C15.25-13.98 16.52-13.95 16.91-13.91C17.61-13.80 18.20-13.46 18.50-12.83C18.70-12.41 19.07-11.33 19.29-10.29L19.77-9.66C20.26-9.04 20.48-8.51 20.48-7.52L20.48-4.34C20.48-3.93 20.17-3.61 19.75-3.61L19.09-3.61C18.68-3.61 18.35-3.93 18.35-4.34L18.35-5.27C17.09-5.19 15.29-5.14 13.85-5.14C12.42-5.14 10.62-5.19 9.35-5.27L9.35-4.34C9.35-3.93 9.04-3.61 8.61-3.61L7.96-3.61C7.55-3.61 7.22-3.93 7.22-4.34ZM11.93-9.16C11.93-9.05 12.02-8.98 12.14-8.98L13.65-8.98L12.88-6.90C12.76-6.60 13.09-6.42 13.28-6.68L15.69-9.80C15.74-9.86 15.76-9.93 15.76-10.00C15.76-10.10 15.68-10.20 15.56-10.20L14.06-10.18L14.84-12.26C14.94-12.56 14.63-12.73 14.44-12.47L12.01-9.34C11.95-9.28 11.93-9.22 11.93-9.16Z" fill="currentColor"/>
</svg>