<svg xmlns="http://www.w3.org/2000/svg" viewBox="0 0 24 24" width="24" height="24">
  
  <path transform="matrix(0.9423891036259894, 0, 0, 0.9423891036259894, -0.8161236885698511, 19.967973495306463)" d="M6.45 2.16L20.75 2.16C23.04 2.16 24.21 0.98 24.21-1.27L24.21-15.64C24.21-17.89 23.04-19.07 20.75-19.07L6.45-19.07C4.16-19.07 2.99-17.91 2.99-15.64L2.99-1.27C2.99 1.00 4.16 2.16 6.45 2.16ZM10.02-2.12C9.67-2.12 9.45-2.38 9.45-2.79L9.45-12.95C9.45-14.06 10.03-14.66 11.13-14.66L16.07-14.66C17.18-14.66 17.77-14.06 17.77-12.95L17.77-2.79C17.77-2.38 17.54-2.12 17.19-2.12C16.93-2.12 16.78-2.27 16.36-2.68L13.65-5.40C13.63-5.43 13.58-5.43 13.55-5.40L10.84-2.68C10.43-2.27 10.28-2.12 10.02-2.12Z" fill="currentColor"/>
</svg>