<svg xmlns="http://www.w3.org/2000/svg" viewBox="0 0 24 24" width="24" height="24">
  <title>book.circle</title>
  <path transform="matrix(0.8507809903622466, 0, 0, 0.8507809903622466, 0.21535393818544368, 19.19840478564307)" d="M13.85 3.29C20.34 3.29 25.61-1.97 25.61-8.46C25.61-14.95 20.34-20.21 13.85-20.21C7.36-20.21 2.10-14.95 2.10-8.46C2.10-1.97 7.36 3.29 13.85 3.29ZM13.85 1.77C8.19 1.77 3.62-2.80 3.62-8.46C3.62-14.12 8.19-18.70 13.85-18.70C19.51-18.70 24.09-14.12 24.09-8.46C24.09-2.80 19.51 1.77 13.85 1.77ZM10.69-13.51C9.46-13.51 8.13-12.96 7.56-12C7.50-11.88 7.49-11.84 7.49-11.66L7.49-3.74C7.49-3.55 7.62-3.41 7.83-3.41C7.96-3.41 8.05-3.46 8.14-3.54C8.81-4.15 9.75-4.48 10.80-4.48C11.65-4.48 12.46-4.20 13.11-3.63C13.17-3.57 13.23-3.55 13.30-3.55C13.41-3.55 13.49-3.64 13.49-3.76L13.49-12C13.49-12.13 13.49-12.16 13.39-12.29C12.79-13.08 11.80-13.51 10.69-13.51ZM17.00-13.51C15.90-13.51 14.92-13.08 14.31-12.29C14.21-12.16 14.20-12.13 14.20-12L14.20-3.76C14.20-3.64 14.29-3.55 14.40-3.55C14.47-3.55 14.53-3.57 14.60-3.63C15.26-4.20 16.05-4.48 16.90-4.48C17.95-4.48 18.90-4.15 19.56-3.54C19.65-3.46 19.75-3.41 19.86-3.41C20.07-3.41 20.21-3.55 20.21-3.74L20.21-11.66C20.21-11.84 20.20-11.89 20.14-12C19.57-12.96 18.25-13.51 17.00-13.51Z" fill="currentColor"/>
</svg>