<svg xmlns="http://www.w3.org/2000/svg" viewBox="0 0 24 24" width="24" height="24">
  
  <path transform="matrix(0.8130855963157059, 0, 0, 0.8130855963157059, 2.2572653644592666, 18.88423058599333)" d="M5.39 3.83C5.86 3.83 6.16 3.57 6.94 2.81L11.88-2.17C11.93-2.23 12.02-2.23 12.08-2.17L17.02 2.81C17.80 3.57 18.09 3.83 18.56 3.83C19.23 3.83 19.63 3.38 19.63 2.61L19.63-17.63C19.63-19.70 18.56-20.77 16.51-20.77L7.44-20.77C5.39-20.77 4.34-19.70 4.34-17.63L4.34 2.61C4.34 3.38 4.73 3.83 5.39 3.83Z" fill="currentColor"/>
</svg>