<svg xmlns="http://www.w3.org/2000/svg" viewBox="0 0 24 24" width="24" height="24">
  <title>book.closed.circle.fill</title>
  <path transform="matrix(0.8507809903622466, 0, 0, 0.8507809903622466, 0.21535393818544368, 19.188434695912264)" d="M13.85 3.30C20.33 3.30 25.61-1.97 25.61-8.45C25.61-14.93 20.33-20.20 13.85-20.20C7.37-20.20 2.10-14.93 2.10-8.45C2.10-1.97 7.37 3.30 13.85 3.30ZM10.63-2.03C9.48-2.03 8.86-2.64 8.86-3.79L8.86-13.03C8.86-14.25 9.48-14.86 10.66-14.86L17.04-14.86C18.22-14.86 18.84-14.24 18.84-13.03L18.84-6.14C18.84-5.59 18.62-5.23 18.35-4.96C17.65-4.22 17.78-3.27 18.57-2.87C18.71-2.81 18.84-2.64 18.84-2.46C18.84-2.23 18.64-2.03 18.41-2.03ZM10.46-5.68C10.66-5.68 10.82-5.84 10.82-6.04L10.82-13.46C10.82-13.65 10.66-13.80 10.46-13.80C10.27-13.80 10.13-13.66 10.13-13.46L10.13-6.04C10.13-5.82 10.27-5.68 10.46-5.68ZM10.68-2.91L17.32-2.91C16.98-3.42 16.92-4.05 17.18-4.69C17.11-4.68 17.03-4.68 16.96-4.68L10.70-4.68C10.10-4.68 9.73-4.32 9.73-3.80C9.73-3.22 10.07-2.91 10.68-2.91Z" fill="currentColor"/>
</svg>