<svg xmlns="http://www.w3.org/2000/svg" viewBox="0 0 24 24" width="24" height="24">
  <title>brain</title>
  <path transform="matrix(0.6837606837606838, 0, 0, 0.6837606837606838, 0.5657051282051282, 17.78525641025641)" d="M2.10-9.36C2.10-5.41 4.80-2.79 8.88-2.79C9.57-2.79 10.23-2.87 10.84-3C12.07-1.82 13.93-1.10 16.07-1.10C16.78-1.10 17.63-1.20 18.45-1.38C19.20-0.41 20.48 0.13 22.03 0.13C22.29 0.13 22.58 0.12 22.89 0.11C23.11 2.17 24.29 3.94 26.16 3.94C28.79 3.94 30.12 0.66 30.12-3.02C30.12-4.05 30.07-4.85 30-5.59C30.87-6.54 31.35-7.82 31.35-9.35C31.35-12.18 29.45-14.31 26.55-14.82C26.03-17.44 23.92-19.11 21.39-19.11C21.08-19.11 20.68-19.05 20.29-18.95C19.45-20.17 18.01-20.86 16.45-20.86C14.73-20.86 13.27-20.20 12.28-19.08C11.46-19.46 10.61-19.64 9.76-19.64C6.96-19.64 4.98-17.70 4.98-15.21C4.98-15.14 4.98-15.06 4.98-14.98C3.20-13.73 2.10-11.58 2.10-9.36ZM10.93-15.55C10.92-15.08 11.24-14.77 11.65-14.77C12.05-14.77 12.35-15.04 12.38-15.48C12.46-17.77 14.12-19.42 16.44-19.42C17.78-19.42 18.98-18.74 19.45-17.57C19.52-17.39 19.64-17.38 19.84-17.44C20.29-17.59 20.77-17.67 21.22-17.66C23.39-17.64 25.23-16.03 25.23-13.54C25.23-8.32 17.70-8.78 17.70-3.68C17.70-3.34 17.73-3.02 17.80-2.72C17.29-2.61 16.72-2.55 16.21-2.55C14.87-2.55 13.48-2.92 12.50-3.59C14.41-4.56 15.56-6.35 15.56-8.65C15.56-8.87 15.55-9.09 15.53-9.30C17.98-9.93 19.13-11.58 19.11-14.06C19.11-14.45 18.79-14.78 18.39-14.78C17.99-14.78 17.66-14.45 17.66-14.06C17.66-12.25 16.95-11.13 15.16-10.69C14.92-11.26 14.58-11.74 14.17-12.11C13.85-12.36 13.66-12.46 13.35-12.46C12.94-12.46 12.66-12.19 12.66-11.81C12.66-11.39 12.88-11.27 13.27-10.91C13.83-10.37 14.13-9.57 14.13-8.67C14.13-6.02 12.04-4.23 8.91-4.23C5.68-4.23 3.55-6.29 3.55-9.39C3.55-10.90 4.22-12.41 5.34-13.42C5.96-12.01 7.36-11.06 9.35-11.06C9.74-11.06 10.08-11.40 10.08-11.79C10.08-12.18 9.74-12.52 9.35-12.52C7.49-12.52 6.43-13.72 6.43-15.21C6.43-16.85 7.75-18.19 9.75-18.19C10.31-18.19 10.91-18.08 11.48-17.84C11.17-17.16 10.98-16.39 10.93-15.55ZM24.45-4.58C24.45-4.17 24.76-3.88 25.16-3.86C26.48-3.80 27.66-4.03 28.61-4.52C28.65-4.04 28.68-3.56 28.68-3.04C28.68 0.12 27.66 2.48 26.16 2.48C24.76 2.48 24.08 0.74 24.08-0.98C24.08-1.11 24.02-1.20 23.86-1.18C23.57-1.17 23.02-1.16 22.76-1.16C20.58-1.16 19.15-1.97 19.15-3.70C19.15-7.85 26.53-7.34 26.67-13.36C28.64-13.00 29.89-11.48 29.89-9.35C29.89-6.77 28.01-5.14 25.16-5.30C24.76-5.32 24.45-4.97 24.45-4.58Z" fill="currentColor"/>
</svg>