<svg xmlns="http://www.w3.org/2000/svg" viewBox="0 0 24 24" width="24" height="24">
  <title>button.vertical.right.press</title>
  <path transform="matrix(0.7309064953604568, 0, 0, 0.7309064953604568, 1.02355460385439, 18.18843683083512)" d="M2.99-16.41L2.99-0.54C2.99 2.93 5.39 5.21 9.05 5.21L11.93 5.21C15.16 5.21 17.29 2.81 17.29-0.54L17.29-4.34L15.84-5.60L15.84-0.54C15.84 1.93 14.29 3.76 11.93 3.76C9.59 3.76 8.04 1.93 8.04-0.54L8.04-16.41C8.04-18.88 9.59-20.71 11.93-20.71C14.29-20.71 15.84-18.88 15.84-16.41L15.84-11.34L17.29-12.60L17.29-16.41C17.29-19.76 15.16-22.15 11.93-22.15L9.05-22.15C5.39-22.15 2.99-19.88 2.99-16.41ZM6.59-16.41L6.59-0.54C6.59 1.20 7.16 2.67 8.14 3.70C5.88 3.36 4.44 1.76 4.44-0.54L4.44-16.41C4.44-18.70 5.88-20.31 8.14-20.64C7.16-19.62 6.59-18.14 6.59-16.41ZM20.16-5.50L20.16-7.70L26.27-7.70C26.72-7.70 27.05-8.04 27.05-8.46C27.05-8.91 26.72-9.23 26.27-9.23L20.16-9.23L20.16-11.46C20.16-12.23 19.36-12.56 18.77-12.05L15.34-9.11C14.93-8.75 14.92-8.21 15.34-7.84L18.77-4.90C19.34-4.39 20.16-4.69 20.16-5.50Z" fill="currentColor"/>
</svg>