<svg xmlns="http://www.w3.org/2000/svg" viewBox="0 0 24 24" width="24" height="24">
  
  <path transform="matrix(0.9423891036259894, 0, 0, 0.9423891036259894, -0.8161236885698511, 19.967973495306463)" d="M6.45 2.16L20.75 2.16C23.04 2.16 24.21 0.98 24.21-1.27L24.21-15.64C24.21-17.89 23.04-19.07 20.75-19.07L6.45-19.07C4.16-19.07 2.99-17.91 2.99-15.64L2.99-1.27C2.99 1.00 4.16 2.16 6.45 2.16ZM13.59-1.79C9.93-1.79 6.95-4.77 6.95-8.44C6.95-12.12 9.93-15.09 13.59-15.09C17.27-15.09 20.25-12.12 20.25-8.44C20.25-4.77 17.27-1.79 13.59-1.79ZM13.59-3.12C16.54-3.12 18.93-5.50 18.93-8.44C18.93-11.38 16.54-13.77 13.59-13.77C10.65-13.77 8.27-11.38 8.27-8.44C8.27-5.50 10.65-3.12 13.59-3.12ZM13.59-4.25C11.29-4.25 9.41-6.13 9.41-8.44C9.41-10.75 11.29-12.63 13.59-12.63C15.90-12.63 17.79-10.75 17.79-8.44C17.79-6.13 15.90-4.25 13.59-4.25Z" fill="currentColor"/>
</svg>