<svg xmlns="http://www.w3.org/2000/svg" viewBox="0 0 24 24" width="24" height="24">
  <title>cable.connector.video</title>
  <path transform="matrix(0.8150270614453996, 0, 0, 0.8150270614453996, -0.19197707736389713, 19.335243553008596)" d="M16.11-14.07L20.88-14.07C21.79-14.07 22.30-14.59 22.30-15.49L22.30-19.85C22.30-20.75 21.82-21.27 20.92-21.27L16.11-21.27C15.23-21.27 14.68-20.75 14.68-19.85L14.68-15.49C14.68-14.59 15.21-14.07 16.11-14.07ZM23.36-16.43L25.07-15C25.21-14.87 25.37-14.78 25.52-14.78C25.86-14.78 26.07-15.01 26.07-15.36L26.07-19.98C26.07-20.33 25.86-20.57 25.52-20.57C25.37-20.57 25.21-20.47 25.07-20.34L23.36-18.91ZM16.14 1.46L21.60 1.46C24.53 1.46 26.93-0.93 26.93-3.86C26.93-6.80 24.53-9.19 21.60-9.19L8.32-9.19C6.18-9.19 4.44-10.92 4.44-13.07C4.44-15.20 6.18-16.93 8.32-16.93L13.63-16.93L13.63-18.39L8.32-18.39C5.38-18.39 2.99-16.00 2.99-13.07C2.99-10.13 5.38-7.73 8.32-7.73L21.60-7.73C23.74-7.73 25.48-6 25.48-3.86C25.48-1.72 23.73 0.01 21.60 0.01L16.14 0.01ZM7.82 3.27L13.96 3.27C14.73 3.27 15.08 2.91 15.08 2.13L15.08-0.67C15.08-1.44 14.73-1.79 13.96-1.79L7.82-1.79C7.04-1.79 6.69-1.44 6.69-0.67L6.69 2.13C6.69 2.91 7.04 3.27 7.82 3.27ZM3.79 2.21L5.64 2.21L5.64-0.74L3.79-0.74C3.23-0.74 2.99-0.49 2.99 0.07L2.99 1.41C2.99 1.97 3.23 2.21 3.79 2.21Z" fill="currentColor"/>
</svg>