<svg xmlns="http://www.w3.org/2000/svg" viewBox="0 0 24 24" width="24" height="24">
  <title>calendar.day.timeline.left.circle.fill</title>
  <path transform="matrix(0.8507809903622466, 0, 0, 0.8507809903622466, 0.21535393818544368, 19.19840478564307)" d="M13.85 3.29C20.33 3.29 25.61-1.98 25.61-8.46C25.61-14.94 20.33-20.21 13.85-20.21C7.37-20.21 2.10-14.94 2.10-8.46C2.10-1.98 7.37 3.29 13.85 3.29ZM8.74-9.62L8.74-12.14C8.74-13.38 9.40-14.04 10.65-14.04L19.03-14.04C20.30-14.04 20.95-13.39 20.95-12.14L20.95-9.62L19.95-9.62L19.95-12.16C19.95-12.75 19.66-13.02 19.09-13.02L10.61-13.02C10.07-13.02 9.76-12.75 9.76-12.16L9.76-9.62ZM7.28-12.36C6.86-12.36 6.49-12.71 6.49-13.14C6.49-13.57 6.86-13.92 7.28-13.92C7.72-13.92 8.06-13.56 8.06-13.14C8.06-12.71 7.72-12.36 7.28-12.36ZM7.28-10.02C6.86-10.02 6.49-10.37 6.49-10.79C6.49-11.24 6.86-11.58 7.28-11.58C7.72-11.58 8.06-11.23 8.06-10.79C8.06-10.37 7.72-10.02 7.28-10.02ZM21.28-8.46C21.28-8.19 21.08-7.98 20.81-7.98L7.99-7.98C7.84-7.75 7.57-7.59 7.28-7.59C6.80-7.59 6.42-7.98 6.42-8.46C6.42-8.94 6.80-9.33 7.28-9.33C7.57-9.33 7.84-9.18 7.99-8.93L20.81-8.93C21.08-8.93 21.28-8.71 21.28-8.46ZM9.76-7.28L9.76-4.73C9.76-4.15 10.07-3.88 10.61-3.88L19.09-3.88C19.66-3.88 19.95-4.15 19.95-4.73L19.95-7.28L20.95-7.28L20.95-4.76C20.95-3.52 20.30-2.86 19.03-2.86L10.65-2.86C9.40-2.86 8.74-3.52 8.74-4.76L8.74-7.28ZM7.28-5.36C6.86-5.36 6.49-5.70 6.49-6.14C6.49-6.56 6.86-6.91 7.28-6.91C7.72-6.91 8.06-6.56 8.06-6.14C8.06-5.71 7.72-5.36 7.28-5.36ZM7.28-3.02C6.86-3.02 6.49-3.36 6.49-3.81C6.49-4.23 6.86-4.58 7.28-4.58C7.72-4.58 8.06-4.22 8.06-3.81C8.06-3.38 7.72-3.02 7.28-3.02Z" fill="currentColor"/>
</svg>