<svg xmlns="http://www.w3.org/2000/svg" viewBox="0 0 24 24" width="24" height="24">
  <title>capsule.on.rectangle.fill</title>
  <path transform="matrix(0.6826666666666666, 0, 0, 0.6826666666666666, -0.040000000000000036, 17.744)" d="M2.99-5.44C2.99-3.16 4.15-2.00 6.45-2.00L7.15-2.00C6.73-3.19 6.52-4.49 6.52-5.91C6.52-12.19 10.84-16.35 17.18-16.35L22.98-16.35C24.11-16.35 25.17-16.22 26.17-15.97L26.17-16.58C26.17-18.84 25.01-20.00 22.71-20.00L6.45-20.00C4.15-20.00 2.99-18.84 2.99-16.58ZM17.18 3.18L22.98 3.18C28.58 3.18 32.29-0.38 32.29-5.91C32.29-11.43 28.58-14.99 22.98-14.99L17.18-14.99C11.57-14.99 7.88-11.43 7.88-5.91C7.88-0.38 11.57 3.18 17.18 3.18Z" fill="currentColor"/>
</svg>