<svg xmlns="http://www.w3.org/2000/svg" viewBox="0 0 24 24" width="24" height="24">
  <title>capslock</title>
  <path transform="matrix(0.8197246237592059, 0, 0, 0.8197246237592059, 0.04034582132564846, 18.84918347742555)" d="M10.75-3.50L18.42-3.50C19.84-3.50 20.65-4.36 20.65-5.71L20.65-7.79L25.35-7.79C26.17-7.79 26.79-8.27 26.79-9.02C26.79-9.49 26.55-9.86 26.12-10.24L15.95-19.50C15.42-19.98 15.05-20.20 14.59-20.20C14.13-20.20 13.76-19.98 13.23-19.50L3.06-10.24C2.60-9.83 2.39-9.49 2.39-9.02C2.39-8.27 3.01-7.79 3.83-7.79L8.53-7.79L8.53-5.71C8.53-4.36 9.34-3.50 10.75-3.50ZM10.88-4.90C10.38-4.90 10.03-5.24 10.03-5.74L10.03-8.80C10.03-9.07 9.93-9.16 9.67-9.16L4.49-9.16C4.35-9.16 4.29-9.21 4.29-9.30C4.29-9.36 4.31-9.42 4.38-9.50L14.19-18.35C14.37-18.52 14.46-18.57 14.59-18.57C14.72-18.57 14.81-18.52 14.99-18.35L24.79-9.50C24.87-9.42 24.89-9.36 24.89-9.30C24.89-9.21 24.82-9.16 24.69-9.16L19.51-9.16C19.24-9.16 19.15-9.07 19.15-8.80L19.15-5.74C19.15-5.25 18.80-4.90 18.30-4.90ZM10.32 3.49L18.77 3.49C19.96 3.49 20.65 2.84 20.65 1.64L20.65 0.12C20.65-1.08 19.96-1.79 18.77-1.79L10.32-1.79C9.14-1.79 8.45-1.07 8.45 0.12L8.45 1.64C8.45 2.82 9.14 3.49 10.32 3.49ZM10.50 2.19C10.08 2.19 9.82 1.97 9.82 1.54L9.82 0.22C9.82-0.21 10.08-0.49 10.50-0.49L18.60-0.49C19.03-0.49 19.28-0.21 19.28 0.22L19.28 1.54C19.28 1.97 19.03 2.19 18.60 2.19Z" fill="currentColor"/>
</svg>