<svg xmlns="http://www.w3.org/2000/svg" viewBox="0 0 24 24" width="24" height="24">
  
  <path transform="matrix(0.5238387558829548, 0, 0, 0.5238387558829548, 0.43462246777163904, 16.229588704726826)" d="M20.06-16.97L32.07-16.97C32.95-16.97 33.41-17.54 33.41-18.43L33.41-19.64C33.41-21.15 32.63-21.94 30.77-21.94L28.65-21.94C26.70-21.94 25.15-21.47 22.65-20.34L19.91-19.07C19.22-18.75 19.03-18.35 19.03-17.92C19.03-17.31 19.35-16.97 20.06-16.97ZM35.17 5.58C35.44 5.86 35.88 5.86 36.15 5.58C36.43 5.30 36.43 4.86 36.15 4.59L10.61-20.95C10.32-21.22 9.89-21.23 9.61-20.95C9.34-20.68 9.33-20.24 9.61-19.96ZM38.26-10.51L36.52-11.09C34.10-13.08 31.31-15.11 27.25-15.11L25.71-15.11C22.69-15.11 20.84-14.88 19.09-14.17L29.52-3.75C30.16-4.90 31.45-5.68 32.93-5.68C35.38-5.68 37.31-3.75 37.31-1.31C37.31-0.97 37.27-0.64 37.21-0.32L37.92-0.32C40.15-0.32 41.17-1.41 41.17-3.74L41.17-6.76C41.17-8.70 40.27-9.84 38.26-10.51ZM15.62-12.25L12.47-10.27L7.55-9.67C4.72-9.32 2.99-7.57 2.99-5.14L2.99-3.70C2.99-1.39 4.04-0.32 6.23-0.32L6.96-0.32C6.89-0.64 6.84-0.97 6.84-1.31C6.84-3.75 8.78-5.68 11.23-5.68C13.68-5.68 15.60-3.75 15.60-1.31C15.60-0.97 15.56-0.64 15.49-0.32L27.55-0.32ZM11.23 1.95C13.05 1.95 14.48 0.52 14.48-1.31C14.48-3.13 13.05-4.56 11.23-4.56C9.40-4.56 7.98-3.13 7.98-1.31C7.98 0.52 9.40 1.95 11.23 1.95ZM36.19-1.31C36.19-3.13 34.76-4.56 32.93-4.56C31.75-4.56 30.76-3.87 30.38-2.89L34.52 1.25C35.50 0.87 36.19-0.13 36.19-1.31Z" fill="currentColor"/>
</svg>