<svg xmlns="http://www.w3.org/2000/svg" viewBox="0 0 24 24" width="24" height="24">
  
  <path transform="matrix(0.7318467695826186, 0, 0, 0.7318467695826186, 1.631217838765009, 19.272727272727273)" d="M14.06-22.14C16.66-22.14 18.98-21.19 20.75-19.55C21.12-19.22 21.54-19.14 21.86-19.42C22.20-19.70 22.20-20.20 21.82-20.55C19.78-22.48 17.05-23.60 14.06-23.60C11.09-23.60 8.36-22.48 6.32-20.55C5.94-20.20 5.94-19.70 6.28-19.42C6.60-19.14 7.02-19.22 7.38-19.55C9.15-21.19 11.47-22.14 14.06-22.14ZM14.11-17.52C15.41-17.52 16.63-17.12 17.51-16.31C17.88-16.03 18.29-15.91 18.62-16.20C18.95-16.49 18.96-17.03 18.56-17.34C17.37-18.39 15.80-18.98 14.11-18.98C12.42-18.98 10.86-18.39 9.66-17.34C9.26-17.03 9.27-16.49 9.61-16.20C9.93-15.91 10.34-16.03 10.71-16.31C11.65-17.06 12.81-17.52 14.11-17.52ZM4.82 3.73L5.95 3.73C6.63 3.73 7.17 3.20 7.17 2.52L7.17 1.02C9.22 1.15 11.95 1.22 14.17 1.22C16.38 1.22 19.10 1.15 21.15 1.02L21.15 2.52C21.15 3.20 21.69 3.73 22.37 3.73L23.51 3.73C24.20 3.73 24.71 3.19 24.71 2.52L24.71 0.32C25.13-0.02 25.35-0.54 25.35-1.21L25.35-2.94C25.35-4.59 24.97-5.50 24.14-6.56L23.36-7.58C23.00-9.28 22.38-11.04 22.05-11.73C21.54-12.84 20.51-13.44 19.31-13.59C18.67-13.69 16.55-13.75 14.17-13.75C11.78-13.75 9.67-13.68 9.02-13.59C7.82-13.45 6.80-12.84 6.28-11.73C5.95-11.04 5.33-9.28 4.98-7.58L4.18-6.56C3.36-5.50 2.99-4.59 2.99-2.94L2.99-1.21C2.99-0.54 3.21-0.04 3.61 0.32L3.61 2.52C3.61 3.19 4.13 3.73 4.82 3.73ZM14.17-0.04C10.98-0.04 6.84-0.16 5.25-0.36C4.50-0.47 4.24-0.77 4.24-1.45L4.24-2.94C4.24-4.22 4.42-4.84 5.17-5.80L6.14-7.05C6.41-8.53 7.04-10.38 7.41-11.18C7.72-11.85 8.29-12.25 9.16-12.34C9.76-12.42 11.71-12.50 14.17-12.50C16.63-12.50 18.60-12.42 19.15-12.34C20.04-12.23 20.60-11.84 20.93-11.18C21.30-10.38 21.93-8.53 22.20-7.05L23.17-5.80C23.91-4.84 24.09-4.22 24.09-2.94L24.09-1.45C24.09-0.77 23.84-0.45 23.07-0.36C21.49-0.18 17.36-0.04 14.17-0.04ZM7.18-7.91C7.11-7.62 7.23-7.45 7.58-7.48C9.15-7.59 10.93-7.66 14.17-7.66C17.40-7.66 19.18-7.59 20.75-7.48C21.11-7.45 21.22-7.62 21.15-7.91C20.89-9.05 20.47-10.25 20.17-10.79C19.91-11.24 19.57-11.50 18.98-11.57C18.27-11.66 16.66-11.72 14.17-11.72C11.66-11.72 10.05-11.66 9.34-11.57C8.75-11.50 8.41-11.24 8.16-10.79C7.86-10.25 7.44-9.05 7.18-7.91ZM7.29-1.55C8.10-1.55 8.68-2.14 8.68-2.95C8.68-3.75 8.10-4.35 7.29-4.35C6.49-4.35 5.89-3.75 5.89-2.95C5.89-2.14 6.49-1.55 7.29-1.55ZM21.05-1.55C21.84-1.55 22.44-2.14 22.44-2.95C22.44-3.75 21.84-4.35 21.05-4.35C20.24-4.35 19.64-3.75 19.64-2.95C19.64-2.14 20.24-1.55 21.05-1.55ZM11.67-1.83L16.66-1.83C17.25-1.83 17.66-2.24 17.66-2.82C17.66-3.42 17.25-3.82 16.66-3.82L11.67-3.82C11.07-3.82 10.68-3.42 10.68-2.82C10.68-2.24 11.07-1.83 11.67-1.83Z" fill="currentColor"/>
</svg>