<svg xmlns="http://www.w3.org/2000/svg" viewBox="0 0 24 24" width="24" height="24">
  <title>car.front.waves.down.fill</title>
  <path transform="matrix(0.7257171587039447, 0, 0, 0.7257171587039447, 1.7010529782365973, 19.29556965076733)" d="M14.14-22.35C12.83-22.35 11.68-22.79 10.75-23.54C10.36-23.82 9.96-23.95 9.63-23.67C9.30-23.37 9.29-22.84 9.69-22.51C10.89-21.48 12.46-20.88 14.14-20.88C15.82-20.88 17.39-21.48 18.60-22.51C18.98-22.84 18.98-23.37 18.64-23.67C18.33-23.95 17.92-23.84 17.54-23.54C16.65-22.73 15.45-22.35 14.14-22.35ZM14.10-17.73C11.51-17.73 9.18-18.67 7.41-20.32C7.05-20.64 6.62-20.73 6.30-20.45C5.96-20.16 5.96-19.65 6.34-19.31C8.38-17.38 11.12-16.27 14.10-16.27C17.07-16.27 19.82-17.38 21.86-19.31C22.23-19.65 22.23-20.16 21.89-20.45C21.57-20.73 21.14-20.64 20.78-20.32C19.02-18.67 16.69-17.73 14.10-17.73ZM14.19 1.14C16.55 1.14 19.56 1.05 21.68 0.91L21.68 2.51C21.68 3.19 22.22 3.73 22.92 3.73L24.15 3.73C24.84 3.73 25.39 3.19 25.39 2.51L25.39-2.88C25.39-4.54 25.03-5.41 24.20-6.48L23.38-7.54C23.03-9.27 22.39-11.09 22.07-11.79C21.55-12.87 20.57-13.45 19.38-13.61C18.74-13.69 16.55-13.75 14.19-13.75C11.84-13.75 9.64-13.69 9-13.61C7.82-13.45 6.83-12.87 6.32-11.79C5.99-11.09 5.36-9.27 5.00-7.54L4.18-6.48C3.34-5.41 2.99-4.54 2.99-2.88L2.99 2.51C2.99 3.19 3.54 3.73 4.23 3.73L5.46 3.73C6.16 3.73 6.70 3.19 6.70 2.51L6.70 0.91C8.82 1.05 11.84 1.14 14.19 1.14ZM6.81-8.30C7.07-9.47 7.52-10.76 7.83-11.31C8.10-11.79 8.44-12.04 9.05-12.12C9.80-12.22 11.46-12.27 14.19-12.27C16.92-12.27 18.59-12.23 19.34-12.12C19.95-12.04 20.27-11.79 20.55-11.31C20.87-10.77 21.29-9.47 21.57-8.30C21.64-7.98 21.53-7.82 21.16-7.84C19.52-7.96 17.68-8.05 14.19-8.05C10.70-8.05 8.86-7.96 7.22-7.84C6.86-7.82 6.74-7.98 6.81-8.30ZM7.28-1.46C6.47-1.46 5.86-2.09 5.86-2.89C5.86-3.70 6.47-4.31 7.28-4.31C8.10-4.31 8.70-3.70 8.70-2.89C8.70-2.09 8.10-1.46 7.28-1.46ZM21.11-1.46C20.29-1.46 19.69-2.09 19.69-2.89C19.69-3.70 20.29-4.31 21.11-4.31C21.91-4.31 22.52-3.70 22.52-2.89C22.52-2.09 21.91-1.46 21.11-1.46ZM11.73-1.76C11.12-1.76 10.71-2.17 10.71-2.77C10.71-3.38 11.12-3.79 11.73-3.79L16.65-3.79C17.26-3.79 17.67-3.38 17.67-2.77C17.67-2.17 17.26-1.76 16.65-1.76Z" fill="currentColor"/>
</svg>