<svg xmlns="http://www.w3.org/2000/svg" viewBox="0 0 24 24" width="24" height="24">
  <title>car.top.lane.dashed.departure.right</title>
  <path transform="matrix(0.8040414340370752, 0, 0, 0.8040414340370752, -0.4027019415561037, 18.850056123573676)" d="M13.37 0.96C16.85 2.96 19.04 3.11 20.20 1.10L25.17-7.51L25.57-7.28C25.99-7.03 26.47-7.15 26.70-7.54L26.92-7.92C27.13-8.32 27-8.79 26.58-9.04L26.18-9.26L27.41-11.40C28.28-12.90 27.88-14.53 26.38-16.03L26.38-19.75C26.38-20.04 26.17-20.25 25.88-20.25L25.36-20.25C25.07-20.25 24.86-20.04 24.86-19.75L24.86-17.25C24.63-17.40 24.39-17.54 24.14-17.68C20.92-19.55 18.28-19.45 17.07-17.36L15.84-15.22L15.46-15.46C15.02-15.70 14.55-15.57 14.33-15.20L14.10-14.81C13.88-14.43 14.02-13.95 14.44-13.71L14.84-13.48L9.87-4.86C8.71-2.86 9.91-1.04 13.37 0.96ZM3.49-13.95L4.01-13.95C4.30-13.95 4.52-14.17 4.52-14.45L4.52-19.73C4.52-20.03 4.30-20.24 4.01-20.24L3.49-20.24C3.21-20.24 2.99-20.03 2.99-19.73L2.99-14.45C2.99-14.17 3.21-13.95 3.49-13.95ZM14.03-0.16C11.26-1.77 10.31-3 11.03-4.24L18.22-16.70C19.02-18.08 20.88-18.06 23.48-16.56C26.11-15.04 27.08-13.43 26.27-12.05L19.08 0.42C18.36 1.64 16.80 1.44 14.03-0.16ZM19.62-9.84C20.27-9.47 21.43-8.71 21.80-8.50C22.38-8.17 22.79-8.23 23.20-8.82L24.05-10.04C24.77-11.09 24.42-11.92 21.73-13.48C19.03-15.04 18.13-14.93 17.59-13.77L16.97-12.43C16.66-11.79 16.78-11.39 17.38-11.05C17.74-10.83 18.88-10.27 19.62-9.84ZM3.49-5.37L4.01-5.37C4.30-5.37 4.52-5.59 4.52-5.87L4.52-11.16C4.52-11.44 4.30-11.66 4.01-11.66L3.49-11.66C3.21-11.66 2.99-11.44 2.99-11.16L2.99-5.87C2.99-5.59 3.21-5.37 3.49-5.37ZM15.04-1.90C17.58-0.45 18.60-0.36 19.09-1.57L19.38-2.27C19.79-3.26 19.23-3.96 16.98-5.26C14.73-6.56 13.84-6.68 13.20-5.85L12.73-5.24C11.92-4.20 12.52-3.38 15.04-1.90ZM25.36 3.21L25.88 3.21C26.17 3.21 26.38 2.99 26.38 2.71L26.38-2.58C26.38-2.87 26.17-3.08 25.88-3.08L25.36-3.08C25.07-3.08 24.86-2.87 24.86-2.58L24.86 2.71C24.86 2.99 25.07 3.21 25.36 3.21ZM3.49 3.21L4.01 3.21C4.30 3.21 4.52 3 4.52 2.71L4.52-2.58C4.52-2.86 4.30-3.08 4.01-3.08L3.49-3.08C3.21-3.08 2.99-2.86 2.99-2.58L2.99 2.71C2.99 3 3.21 3.21 3.49 3.21Z" fill="currentColor"/>
</svg>