<svg xmlns="http://www.w3.org/2000/svg" viewBox="0 0 24 24" width="24" height="24">
  
  <path transform="matrix(0.9791547140944731, 0, 0, 0.9791547140944731, -0.9259896729776247, 20.284566838783707)" d="M2.99-3.22L2.99-1.77L11.41-1.77C11.96-0.29 13.38 0.74 15.08 0.74C16.78 0.74 18.19-0.29 18.74-1.77L19.92-1.77C22.31-1.77 23.41-2.94 23.41-5.45L23.41-8.70C23.41-10.77 22.44-11.99 20.29-12.71L18.41-13.34C15.82-15.47 12.82-17.66 8.46-17.66L6.82-17.66C5.30-17.66 4.07-17.61 2.99-17.47L2.99-16.02C4.03-16.16 5.26-16.21 6.82-16.21L8.46-16.21C11.68-16.21 14.14-15.07 17.20-12.39C17.71-11.95 17.95-11.86 18.53-11.67L19.88-11.24C21.34-10.77 21.96-10.04 21.96-8.70L21.96-5.45C21.96-3.94 21.30-3.22 19.92-3.22L19.00-3.22C19.00-5.39 17.27-7.10 15.08-7.10C12.89-7.10 11.18-5.41 11.16-3.22ZM9.06-10.38C9.30-10.11 9.64-10.13 9.87-10.38L11.82-12.67C12.15-13.04 11.94-13.56 11.45-13.56L7.49-13.56C6.98-13.56 6.80-13.02 7.11-12.67ZM7.48-8.30L15.08-8.30C15.38-8.30 15.61-8.53 15.61-8.82C15.61-9.12 15.38-9.35 15.08-9.35L7.48-9.35C7.18-9.35 6.95-9.12 6.95-8.82C6.95-8.53 7.18-8.30 7.48-8.30ZM15.08-0.64C13.65-0.64 12.53-1.77 12.53-3.19C12.53-4.61 13.65-5.73 15.08-5.73C16.50-5.73 17.63-4.61 17.63-3.19C17.63-1.77 16.50-0.64 15.08-0.64Z" fill="currentColor"/>
</svg>