<svg xmlns="http://www.w3.org/2000/svg" viewBox="0 0 24 24" width="24" height="24">
  <title>car.side.roof.cargo.carrier.slash</title>
  <path transform="matrix(0.5238387558829548, 0, 0, 0.5238387558829548, 0.43462246777163904, 16.229588704726826)" d="M19.03-17.92C19.03-17.31 19.35-16.97 20.06-16.97L32.07-16.97C32.95-16.97 33.41-17.54 33.41-18.43L33.41-19.64C33.41-21.15 32.63-21.94 30.77-21.94L28.65-21.94C26.70-21.94 25.15-21.47 22.65-20.34L19.91-19.07C19.22-18.75 19.03-18.35 19.03-17.92ZM35.17 5.58C35.44 5.86 35.88 5.86 36.15 5.58C36.43 5.30 36.43 4.86 36.15 4.59L10.61-20.95C10.32-21.22 9.89-21.23 9.61-20.95C9.34-20.68 9.33-20.24 9.61-19.96ZM38.26-10.51L36.52-11.09C34.10-13.08 31.31-15.11 27.25-15.11L25.71-15.11C22.69-15.11 20.84-14.88 19.09-14.17L20.18-13.09C21.64-13.61 23.23-13.76 25.71-13.76L27.25-13.76C30.25-13.76 32.54-12.70 35.39-10.21C35.86-9.80 36.08-9.71 36.62-9.54L37.89-9.14C39.23-8.70 39.82-8.03 39.82-6.76L39.82-3.74C39.82-2.33 39.22-1.68 37.92-1.68L37.04-1.68C37.04-3.55 35.55-5.29 33.41-5.29C31.89-5.29 30.64-4.36 30.21-3.06L31.22-2.05C31.32-3.14 32.25-4.01 33.41-4.01C34.73-4.01 35.78-2.96 35.78-1.64C35.78-0.45 34.91 0.47 33.82 0.56L34.83 1.56C35.75 1.31 36.50 0.60 36.82-0.32L37.92-0.32C40.15-0.32 41.17-1.41 41.17-3.74L41.17-6.76C41.17-8.70 40.27-9.84 38.26-10.51ZM10.75 2.02C12.33 2.02 13.65 1.05 14.17-0.32L27.55-0.32L26.20-1.68L14.40-1.68C14.40-3.68 12.80-5.29 10.75-5.29C8.72-5.29 7.13-3.70 7.10-1.68L6.23-1.68C4.96-1.68 4.34-2.33 4.34-3.74L4.34-5.14C4.34-6.83 5.60-8.09 7.72-8.33L12.13-8.87C12.81-8.95 13.16-9.08 13.59-9.35L16.62-11.25L15.62-12.25L12.47-10.27L7.55-9.67C4.72-9.32 2.99-7.57 2.99-5.14L2.99-3.70C2.99-1.39 4.04-0.32 6.23-0.32L7.34-0.32C7.85 1.05 9.16 2.02 10.75 2.02ZM10.75 0.74C9.42 0.74 8.38-0.30 8.38-1.64C8.38-2.96 9.42-4.01 10.75-4.01C12.08-4.01 13.13-2.96 13.13-1.64C13.13-0.30 12.08 0.74 10.75 0.74Z" fill="currentColor"/>
</svg>