<svg xmlns="http://www.w3.org/2000/svg" viewBox="0 0 24 24" width="24" height="24">
  <title>car.rear.road.lane.distance.3</title>
  <path transform="matrix(0.573871785599119, 0, 0, 0.573871785599119, 0.2849455017929865, 16.85885584096129)" d="M13.96-10.82C13.96-10.42 14.27-10.10 14.67-10.10L15.30-10.10C15.71-10.10 16.03-10.42 16.03-10.82L16.03-11.54L24.77-11.54L24.77-10.82C24.77-10.42 25.08-10.10 25.49-10.10L26.12-10.10C26.53-10.10 26.84-10.42 26.84-10.82L26.84-14.34C26.84-15.29 26.67-15.82 26.16-16.42L25.62-17.04L25.02-18.74C24.70-19.64 24.13-20.03 23.37-20.11C22.99-20.16 21.76-20.19 20.40-20.19C19.04-20.19 17.80-20.16 17.43-20.11C16.68-20.03 16.10-19.64 15.79-18.74L15.18-17.04L14.65-16.42C14.13-15.82 13.96-15.29 13.96-14.34ZM16.57-17.13C16.32-17.13 16.23-17.32 16.31-17.55L16.65-18.56C16.80-19.02 17.05-19.18 17.45-19.24C17.86-19.29 18.83-19.34 20.40-19.34C21.96-19.34 22.93-19.29 23.34-19.24C23.75-19.18 23.99-19.02 24.14-18.56L24.48-17.55C24.56-17.32 24.47-17.13 24.22-17.13ZM15.86-13.65C15.54-13.65 15.32-13.88 15.32-14.18L15.32-15.07C15.32-15.38 15.54-15.61 15.86-15.61C16.17-15.61 16.39-15.39 16.39-15.07L16.39-14.18C16.39-13.88 16.17-13.65 15.86-13.65ZM24.97-13.65C24.68-13.65 24.45-13.88 24.45-14.18L24.45-15.07C24.45-15.38 24.68-15.61 24.97-15.61C25.29-15.61 25.52-15.39 25.52-15.07L25.52-14.18C25.52-13.88 25.29-13.65 24.97-13.65ZM19.11-13.89C18.87-13.89 18.71-14.05 18.71-14.32L18.71-14.94C18.71-15.21 18.87-15.36 19.11-15.36L21.64-15.36C21.89-15.36 22.05-15.21 22.05-14.94L22.05-14.32C22.05-14.05 21.89-13.89 21.64-13.89ZM3.73 3.25L5.20 3.25C5.77 3.25 6.04 3 6.21 2.57L11.94-11.43C12.07-11.73 11.92-11.96 11.61-11.96L10.59-11.96C10.29-11.96 10.10-11.84 9.96-11.55L3.09 2.21C2.85 2.71 3.02 3.25 3.73 3.25ZM35.64 3.26L37.10 3.26C37.80 3.26 37.98 2.72 37.73 2.24L30.86-11.54C30.71-11.81 30.53-11.95 30.22-11.95L29.20-11.95C28.90-11.95 28.76-11.71 28.88-11.40L34.63 2.58C34.80 3.01 35.07 3.26 35.64 3.26ZM11.63-7.51L29.17-7.51L28.55-9.12L12.27-9.12ZM10.56-4.83L30.25-4.83L29.61-6.43L11.19-6.43ZM9.49-2.17L31.31-2.17L30.68-3.77L10.14-3.77Z" fill="currentColor"/>
</svg>