<svg xmlns="http://www.w3.org/2000/svg" viewBox="0 0 24 24" width="24" height="24">
  
  <path transform="matrix(0.4877584071639516, 0, 0, 0.4877584071639516, 0.5424406973420979, 18.024578450985995)" d="M22.69-13.72L28.01-13.72C28.93-13.72 29.41-14.20 29.41-15.21L29.41-19.45C29.41-20.40 28.99-20.87 28.16-20.93L28.16-22.25C28.16-23.51 28.93-24.33 30.11-24.33C31.30-24.33 32.06-23.51 32.06-22.25L32.06-20.95C32.06-20.66 32.30-20.43 32.58-20.43C32.87-20.43 33.11-20.66 33.11-20.95L33.11-22.13C33.11-24.09 31.92-25.36 30.11-25.36C28.30-25.36 27.12-24.09 27.12-22.13L27.12-20.93L22.69-20.93C21.76-20.93 21.29-20.46 21.29-19.45L21.29-15.21C21.29-14.20 21.76-13.72 22.69-13.72ZM40.88-12.71L38.99-13.34C36.74-15.19 34.22-17.06 30.73-17.53L30.73-15.21C30.73-13.45 29.65-12.36 27.97-12.36L22.65-12.36C20.96-12.36 19.89-13.45 19.89-15.21L19.89-16.50C19.23-16.22 18.59-15.87 17.91-15.43L13.17-12.46L7.89-11.81C4.84-11.43 2.99-9.56 2.99-6.96L2.99-5.40C2.99-2.92 4.10-1.77 6.47-1.77L7.24-1.77C7.17-2.12 7.13-2.47 7.13-2.84C7.13-5.46 9.20-7.54 11.84-7.54C14.46-7.54 16.54-5.46 16.54-2.84C16.54-2.47 16.49-2.12 16.42-1.77L30.56-1.77C30.49-2.12 30.45-2.47 30.45-2.84C30.45-5.46 32.52-7.54 35.14-7.54C37.78-7.54 39.84-5.46 39.84-2.84C39.84-2.47 39.81-2.12 39.73-1.77L40.50-1.77C42.89-1.77 43.99-2.94 43.99-5.45L43.99-8.70C43.99-10.77 43.02-11.99 40.88-12.71ZM11.84 0.66C13.79 0.66 15.33-0.88 15.33-2.84C15.33-4.79 13.79-6.33 11.84-6.33C9.87-6.33 8.33-4.79 8.33-2.84C8.33-0.88 9.87 0.66 11.84 0.66ZM35.14 0.66C37.11 0.66 38.64-0.88 38.64-2.84C38.64-4.79 37.11-6.33 35.14-6.33C33.19-6.33 31.65-4.79 31.65-2.84C31.65-0.88 33.19 0.66 35.14 0.66Z" fill="currentColor"/>
</svg>