<svg xmlns="http://www.w3.org/2000/svg" viewBox="0 0 24 24" width="24" height="24">
  
  <path transform="matrix(0.46402294883359907, 0, 0, 0.46402294883359907, 0.613515711306156, 16.429657553530593)" d="M9.66-13.05C10.01-13.05 10.29-13.34 10.29-13.68C10.29-13.84 10.23-13.99 10.07-14.14C9.13-15.16 8.51-16.66 8.51-18.30C8.51-19.84 9.04-21.25 9.93-22.34L10.93-21.32C11.18-21.08 11.57-21.08 11.80-21.32C12.04-21.55 12.04-21.94 11.80-22.17L10.78-23.19C11.72-23.96 12.90-24.48 14.20-24.60L14.20-23.20C14.20-22.88 14.48-22.59 14.81-22.59C15.13-22.59 15.42-22.88 15.42-23.20L15.42-24.60C16.70-24.47 17.88-23.98 18.83-23.19L17.81-22.17C17.58-21.94 17.58-21.55 17.81-21.32C18.06-21.08 18.45-21.08 18.68-21.32L19.69-22.34C20.53-21.29 21.05-19.97 21.08-18.47C21.43-18.74 21.82-19.00 22.25-19.28C21.81-22.97 18.61-25.89 14.81-25.89C10.66-25.89 7.24-22.45 7.24-18.30C7.24-16.39 7.97-14.60 9.14-13.31C9.27-13.16 9.47-13.05 9.66-13.05ZM16.28 0.43L17.11-0.05C18.09 0.77 19.50 0.91 20.70 0.23C21.89-0.46 22.46-1.75 22.25-3.01L34.17-9.90C35.17-9.08 36.57-8.93 37.76-9.62C38.95-10.31 39.53-11.60 39.32-12.87L40.15-13.35C41.82-14.31 42.12-15.57 41.11-17.33L39.80-19.62C38.95-21.07 37.77-21.54 35.98-21.16L34.41-20.85C31.69-21.34 28.73-21.61 25.66-19.84L24.52-19.18C21.27-17.31 20.02-16.14 18.76-13.78L16.64-9.76L13.21-7.17C11.21-5.67 10.68-3.61 11.73-1.79L12.36-0.69C13.37 1.04 14.61 1.39 16.28 0.43ZM3.52-16.51L5.78-17.96C6.02-18.14 6.04-18.42 5.77-18.59L3.53-20.04C3.29-20.18 3-20.10 2.99-19.76L2.99-16.78C2.98-16.45 3.29-16.35 3.52-16.51ZM13.36-1.31L12.75-2.38C12.01-3.64 12.42-5.13 13.91-6.25L16.99-8.57C17.47-8.93 17.68-9.18 17.89-9.56L19.82-13.22C20.98-15.40 22.05-16.41 25.10-18.16L26.26-18.83C28.52-20.13 30.71-20.33 33.94-19.69C34.46-19.58 34.69-19.62 35.16-19.72L36.28-19.97C37.49-20.23 38.23-19.98 38.78-19.03L40.09-16.75C40.70-15.69 40.54-14.92 39.56-14.37L38.91-13.99C38.04-15.50 36.13-16.02 34.58-15.13C33.05-14.24 32.54-12.35 33.41-10.82L21.84-4.14C20.96-5.65 19.07-6.16 17.52-5.27C15.98-4.38 15.47-2.50 16.34-0.96L15.69-0.59C14.72-0.02 13.97-0.26 13.36-1.31ZM14.78-17.07C15.42-17.09 15.88-17.58 15.88-18.21C15.83-18.86 15.34-19.32 14.71-19.30C14.58-19.29 14.36-19.25 14.23-19.21L10.18-18.38C10.00-18.33 9.90-18.19 9.91-18.04C9.93-17.88 10.03-17.78 10.23-17.73L14.36-17.10C14.47-17.09 14.67-17.07 14.78-17.07ZM37.21-10.58C36.21-10.01 34.97-10.35 34.38-11.34C33.81-12.34 34.15-13.58 35.14-14.16C36.14-14.74 37.38-14.40 37.96-13.41C38.54-12.41 38.20-11.17 37.21-10.58ZM14.99 6.42C15.20 6.79 15.64 6.89 15.98 6.70L45.74-10.45C46.07-10.64 46.18-11.07 46.01-11.43C45.79-11.79 45.33-11.89 45-11.71L15.25 5.46C14.92 5.64 14.80 6.09 14.99 6.42ZM20.13-0.73C19.14-0.15 17.89-0.49 17.32-1.49C16.75-2.48 17.07-3.73 18.07-4.30C19.08-4.89 20.32-4.55 20.89-3.55C21.47-2.55 21.14-1.31 20.13-0.73Z" fill="currentColor"/>
</svg>