<svg xmlns="http://www.w3.org/2000/svg" viewBox="0 0 24 24" width="24" height="24">
  <title>car.side.rear.crop.trunk.partition.fill</title>
  <path transform="matrix(0.9802795328355352, 0, 0, 0.9802795328355352, -0.929350947731189, 20.33429063756462)" d="M2.99-17.47L2.99-1.77L9.96-1.77C9.90-2.12 9.86-2.47 9.86-2.84C9.86-5.46 11.92-7.54 14.55-7.54C17.18-7.54 19.25-5.46 19.25-2.84C19.25-2.47 19.21-2.12 19.14-1.77L19.91-1.77C22.29-1.77 23.39-2.94 23.39-5.45L23.39-8.70C23.39-10.77 22.43-11.99 20.27-12.71L18.40-13.34C15.81-15.47 12.81-17.66 8.44-17.66L6.80-17.66C5.30-17.66 4.05-17.61 2.99-17.47ZM9.01-11.04L7.02-13.36C6.69-13.73 6.89-14.27 7.41-14.27L11.45-14.27C11.96-14.27 12.18-13.76 11.84-13.36L9.84-11.04C9.60-10.77 9.26-10.76 9.01-11.04ZM7.41-8.89C7.10-8.89 6.86-9.13 6.86-9.43C6.86-9.74 7.10-9.98 7.41-9.98L15.15-9.98C15.46-9.98 15.70-9.74 15.70-9.43C15.70-9.13 15.46-8.89 15.15-8.89ZM14.55 0.66C16.51 0.66 18.05-0.88 18.05-2.84C18.05-4.79 16.51-6.33 14.55-6.33C12.60-6.33 11.06-4.79 11.06-2.84C11.06-0.88 12.60 0.66 14.55 0.66Z" fill="currentColor"/>
</svg>