<svg xmlns="http://www.w3.org/2000/svg" viewBox="0 0 24 24" width="24" height="24">
  <title>car.window.left.exclamationmark</title>
  <path transform="matrix(0.6648487209453318, 0, 0, 0.6648487209453318, 0.013245033112582849, 17.609661082976235)" d="M23.32 2.03C25.68 2.03 26.78 0.94 26.78-1.38L26.78-7.50C26.78-9.02 26.34-9.82 25.18-10.70L16.32-17.43C14.89-18.50 13.76-18.90 12.04-18.90L6.22-18.90C4.11-18.90 2.99-17.79 2.99-15.70L2.99-1.38C2.99 0.94 4.09 2.03 6.45 2.03ZM23.68-8.60L6.26-8.60C5.13-8.60 4.44-9.29 4.44-10.44L4.44-15.62C4.44-16.80 5.11-17.46 6.26-17.46L12.04-17.46C13.45-17.46 14.30-17.20 15.36-16.37L24.01-9.75C24.53-9.35 24.36-8.60 23.68-8.60ZM31.78-5.91C32.21-5.91 32.52-6.22 32.54-6.67L32.72-15.07C32.73-15.64 32.36-16.02 31.78-16.02C31.20-16.02 30.82-15.64 30.83-15.07L31.01-6.67C31.03-6.22 31.34-5.91 31.78-5.91ZM31.78-0.93C32.48-0.93 33.07-1.51 33.07-2.18C33.07-2.87 32.48-3.43 31.78-3.43C31.05-3.43 30.48-2.87 30.48-2.18C30.48-1.51 31.07-0.93 31.78-0.93Z" fill="currentColor"/>
</svg>