<svg xmlns="http://www.w3.org/2000/svg" viewBox="0 0 24 24" width="24" height="24">
  
  <path transform="matrix(0.8507809903622466, 0, 0, 0.8507809903622466, 0.21535393818544368, 19.188434695912264)" d="M13.85 3.30C20.33 3.30 25.61-1.97 25.61-8.45C25.61-14.93 20.33-20.20 13.85-20.20C7.37-20.20 2.10-14.93 2.10-8.45C2.10-1.97 7.37 3.30 13.85 3.30ZM11.60-4.41C10.61-4.41 10.08-4.88 9.95-5.72L8.94-12.75L6.87-12.75C6.57-12.75 6.36-12.96 6.36-13.27C6.36-13.58 6.57-13.79 6.87-13.79L9.07-13.79C9.53-13.79 9.88-13.51 9.93-13.09L10.05-12.13L20.10-12.13C20.40-12.13 20.58-11.95 20.58-11.68C20.58-11.65 20.57-11.54 20.55-11.47L20.04-8.05C19.92-7.23 19.52-6.75 18.67-6.75L10.85-6.75L10.95-6.05C10.99-5.64 11.23-5.44 11.66-5.44L18.52-5.44C18.82-5.44 19.02-5.24 19.02-4.93C19.02-4.61 18.82-4.41 18.52-4.41ZM12-1.45C11.43-1.45 10.97-1.91 10.97-2.48C10.97-3.07 11.43-3.53 12-3.53C12.57-3.53 13.03-3.07 13.03-2.48C13.03-1.91 12.57-1.45 12-1.45ZM17.51-1.45C16.93-1.45 16.46-1.91 16.46-2.48C16.46-3.07 16.93-3.53 17.51-3.53C18.08-3.53 18.54-3.07 18.54-2.48C18.54-1.91 18.08-1.45 17.51-1.45Z" fill="currentColor"/>
</svg>