<svg xmlns="http://www.w3.org/2000/svg" viewBox="0 0 24 24" width="24" height="24">
  <title>cat.circle.fill</title>
  <path transform="matrix(0.8507809903622466, 0, 0, 0.8507809903622466, 0.21535393818544368, 19.188434695912264)" d="M13.85 3.30C20.33 3.30 25.61-1.97 25.61-8.45C25.61-14.93 20.33-20.20 13.85-20.20C7.37-20.20 2.10-14.93 2.10-8.45C2.10-1.97 7.37 3.30 13.85 3.30ZM9.46-1.62C9.01-1.62 8.67-1.88 8.53-2.41L7.82-5.04C7.58-5.87 8.41-6.26 8.41-8.09C8.41-8.31 8.41-8.63 8.46-8.99C8.48-9.29 8.37-9.49 8.10-9.59C7.03-9.95 6.35-10.91 6.35-12.14C6.35-13.79 7.61-14.95 9.45-14.95C10.07-14.95 10.71-14.84 11.41-14.55C11.88-14.36 11.65-13.64 11.12-13.85C10.50-14.10 9.96-14.21 9.45-14.21C8.07-14.21 7.09-13.36 7.09-12.14C7.09-11.23 7.61-10.51 8.38-10.25C8.72-10.15 8.85-10.21 9.05-10.45C9.42-10.92 10.07-11.31 11.12-11.31C13.23-11.31 14.16-10.99 16.36-10.99C16.59-10.99 16.73-11.17 16.92-11.50L17.24-12C17.57-12.55 17.96-13.15 18.43-13.58C18.71-14.30 19.09-14.73 19.36-14.73C19.65-14.73 19.98-14.19 20.17-13.56C21.02-12.94 21.77-12.19 21.77-11.47C21.77-10.96 21.01-10.27 19.96-10.22C19.91-6.18 17.59-7.05 17.59-3.91L17.59-3.34C18.09-3.26 18.34-2.94 18.34-2.50C18.34-1.96 17.98-1.62 17.36-1.62L16.76-1.62C16.14-1.62 15.81-1.93 15.81-2.57C15.81-3.16 15.89-3.75 15.89-4.49C15.89-4.95 15.74-5.52 15.61-6.02C14.98-5.86 13.99-5.72 13.09-5.72C12.26-5.72 11.48-5.85 10.59-6.21C10.25-5.66 10.11-5.32 10.11-4.72L10.11-3.34C10.68-3.26 10.98-2.91 10.98-2.50C10.98-1.93 10.61-1.62 10.00-1.62ZM19.83-12.04C19.91-11.94 20.06-11.94 20.16-12.05C20.24-12.14 20.24-12.29 20.14-12.39C20.04-12.47 19.89-12.46 19.80-12.36C19.72-12.26 19.71-12.12 19.83-12.04Z" fill="currentColor"/>
</svg>