<svg xmlns="http://www.w3.org/2000/svg" viewBox="0 0 24 24" width="24" height="24">
  
  <path transform="matrix(0.7736476276820792, 0, 0, 0.7736476276820792, 0.3816863100634629, 18.54578422484134)" d="M15.02 4.46C22.13 4.46 27.94-1.35 27.94-8.46C27.94-15.57 22.13-21.39 15.02-21.39C7.91-21.39 2.10-15.57 2.10-8.46C2.10-1.35 7.91 4.46 15.02 4.46ZM15.02 0.26C10.20 0.26 6.30-3.64 6.30-8.46C6.30-13.28 10.20-17.18 15.02-17.18C19.84-17.18 23.73-13.28 23.73-8.46C23.73-3.64 19.84 0.26 15.02 0.26ZM15.02-2.04C15.21-2.04 15.35-2.18 15.35-2.38L15.35-3.42C16.96-3.49 18.41-4.25 18.91-5.73C18.98-5.91 19.02-6.07 19.02-6.26C19.02-6.57 18.82-6.77 18.50-6.77C18.21-6.77 18.05-6.61 17.95-6.32C17.65-5.20 16.61-4.50 15.35-4.42L15.35-12.64C16.59-12.55 17.61-11.74 17.89-10.71C17.98-10.42 18.12-10.25 18.43-10.25C18.74-10.25 18.95-10.45 18.95-10.78C18.95-10.99 18.89-11.19 18.81-11.39C18.26-12.76 16.90-13.57 15.35-13.65L15.35-14.64C15.35-14.84 15.21-14.98 15.02-14.98C14.82-14.98 14.68-14.84 14.68-14.64L14.68-13.64C12.11-13.43 10.65-11.34 10.65-8.55C10.65-5.81 12.04-3.64 14.68-3.43L14.68-2.38C14.68-2.18 14.82-2.04 15.02-2.04ZM11.82-8.55C11.82-10.62 12.76-12.40 14.68-12.63L14.68-4.44C12.73-4.68 11.82-6.49 11.82-8.55Z" fill="currentColor"/>
</svg>