<svg xmlns="http://www.w3.org/2000/svg" viewBox="0 0 24 24" width="24" height="24">
  
  <path transform="matrix(0.9423891036259894, 0, 0, 0.9423891036259894, -0.8161236885698511, 19.967973495306463)" d="M6.45 2.16L20.75 2.16C23.04 2.16 24.21 0.98 24.21-1.27L24.21-15.64C24.21-17.89 23.04-19.07 20.75-19.07L6.45-19.07C4.16-19.07 2.99-17.91 2.99-15.64L2.99-1.27C2.99 1.00 4.16 2.16 6.45 2.16ZM13.57-3.05C13.37-3.05 13.21-3.20 13.21-3.39L13.21-4.44C11.13-4.62 9.86-6.16 9.86-8.51C9.86-10.73 11.07-12.41 13.21-12.57L13.21-13.63C13.21-13.82 13.37-13.97 13.57-13.97C13.76-13.97 13.91-13.82 13.91-13.63L13.91-12.59C14.84-12.52 15.64-12.19 16.22-11.63C16.57-11.26 16.90-10.73 16.90-10.31C16.90-10.00 16.69-9.80 16.38-9.80C16.15-9.80 15.97-9.95 15.87-10.18C15.52-11.06 14.81-11.54 13.91-11.63L13.91-5.39C14.85-5.47 15.48-5.98 15.88-6.82C15.98-7.03 16.11-7.21 16.39-7.21C16.65-7.21 16.91-7.03 16.91-6.71C16.91-6.32 16.58-5.74 16.24-5.39C15.66-4.82 14.80-4.49 13.91-4.43L13.91-3.39C13.91-3.20 13.76-3.05 13.57-3.05ZM10.99-8.51C10.99-6.87 11.73-5.60 13.21-5.41L13.21-11.61C11.75-11.41 10.99-10.16 10.99-8.51Z" fill="currentColor"/>
</svg>