<svg xmlns="http://www.w3.org/2000/svg" viewBox="0 0 24 24" width="24" height="24">
  <title>centsign.gauge.chart.leftthird.topthird.rightthird</title>
  <path transform="matrix(0.7210252077172229, 0, 0, 0.7210252077172229, 0.48753696662441914, 18.135855732715157)" d="M15.96-15.18C18.07-15.18 20.02-14.45 21.55-13.23C21.80-13.04 22.10-13.07 22.32-13.29L24.91-15.87C25.18-16.14 25.17-16.52 24.89-16.77C22.48-18.80 19.36-20.03 15.96-20.03C12.57-20.03 9.45-18.80 7.04-16.77C6.75-16.52 6.75-16.14 7.02-15.87L9.61-13.29C9.83-13.07 10.15-13.04 10.41-13.25C11.94-14.45 13.88-15.18 15.96-15.18ZM2.10-6.15C2.10-2.75 3.33 0.38 5.37 2.79C5.61 3.07 6 3.08 6.27 2.81L8.89 0.18C9.08-0.04 9.11-0.30 8.93-0.53C7.68-2.12 6.95-4.05 6.95-6.15C6.95-8.26 7.66-10.18 8.88-11.72C9.07-11.98 9.07-12.29 8.84-12.52L6.26-15.11C6-15.36 5.60-15.38 5.37-15.08C3.32-12.67 2.10-9.55 2.10-6.15ZM29.84-6.15C29.84-9.55 28.61-12.67 26.57-15.08C26.33-15.38 25.93-15.36 25.66-15.11L23.09-12.52C22.86-12.29 22.85-11.98 23.05-11.72C24.26-10.18 24.98-8.26 24.98-6.15C24.98-4.05 24.26-2.12 23.00-0.53C22.83-0.30 22.84-0.04 23.04 0.18L25.66 2.81C25.92 3.08 26.32 3.07 26.55 2.79C28.61 0.38 29.84-2.75 29.84-6.15ZM15.91-0.70C16.10-0.70 16.25-0.86 16.25-1.04L16.25-2.06C17.12-2.12 17.95-2.45 18.53-3C18.87-3.34 19.18-3.91 19.18-4.29C19.18-4.61 18.94-4.78 18.69-4.78C18.41-4.78 18.29-4.61 18.19-4.39C17.79-3.56 17.18-3.08 16.25-3L16.25-9.11C17.14-9.02 17.82-8.55 18.18-7.70C18.28-7.45 18.46-7.32 18.68-7.32C18.97-7.32 19.17-7.51 19.17-7.82C19.17-8.24 18.86-8.74 18.50-9.09C17.94-9.66 17.14-9.98 16.25-10.04L16.25-11.06C16.25-11.25 16.10-11.40 15.91-11.40C15.73-11.40 15.57-11.25 15.57-11.06L15.57-10.04C13.46-9.87 12.28-8.24 12.28-6.05C12.28-3.76 13.55-2.24 15.57-2.06L15.57-1.04C15.57-0.86 15.73-0.70 15.91-0.70ZM13.39-6.05C13.39-7.68 14.13-8.91 15.57-9.09L15.57-3.01C14.12-3.20 13.39-4.44 13.39-6.05Z" fill="currentColor"/>
</svg>