<svg xmlns="http://www.w3.org/2000/svg" viewBox="0 0 24 24" width="24" height="24">
  
  <path transform="matrix(0.8507809903622466, 0, 0, 0.8507809903622466, 0.21535393818544368, 19.19840478564307)" d="M13.85 3.29C20.34 3.29 25.61-1.97 25.61-8.46C25.61-14.95 20.34-20.21 13.85-20.21C7.36-20.21 2.10-14.95 2.10-8.46C2.10-1.97 7.36 3.29 13.85 3.29ZM13.85 1.77C8.19 1.77 3.62-2.80 3.62-8.46C3.62-14.12 8.19-18.70 13.85-18.70C19.51-18.70 24.09-14.12 24.09-8.46C24.09-2.80 19.51 1.77 13.85 1.77ZM7.66-3.89C7.66-3.41 7.98-3.08 8.46-3.08L19.78-3.08C20.06-3.08 20.31-3.33 20.31-3.61C20.31-3.90 20.07-4.15 19.78-4.15L8.79-4.15C8.73-4.15 8.73-4.14 8.73-4.21L8.73-10.29L10.32-8.68C10.58-8.43 10.84-8.31 11.16-8.31C11.46-8.31 11.73-8.43 11.98-8.68L14.21-10.93C14.31-11.03 14.39-11.03 14.47-10.93L16.82-8.54L15.90-7.62C15.66-7.39 15.80-7.01 16.15-6.93L19.44-6.16C19.78-6.08 20.06-6.35 19.97-6.68L19.21-10.00C19.11-10.35 18.76-10.46 18.50-10.23L17.58-9.29L15.16-11.74C14.92-11.99 14.65-12.12 14.33-12.12C14.04-12.12 13.77-11.99 13.51-11.74L11.29-9.52C11.20-9.42 11.12-9.42 11.03-9.52L8.73-11.79L8.73-13.55C8.73-13.84 8.48-14.09 8.20-14.09C7.91-14.09 7.66-13.84 7.66-13.55Z" fill="currentColor"/>
</svg>