<svg xmlns="http://www.w3.org/2000/svg" viewBox="0 0 24 24" width="24" height="24">
  <title>chart.bar.xaxis</title>
  <path transform="matrix(0.7739984882842026, 0, 0, 0.7739984882842026, -0.3129251700680271, 18.544217687074827)" d="M10.25-1.91C10.25-1.30 10.65-0.94 11.27-0.94L14.17-0.94C14.80-0.94 15.20-1.30 15.20-1.91L15.20-18.18C15.20-18.77 14.80-19.15 14.17-19.15L11.27-19.15C10.65-19.15 10.25-18.77 10.25-18.18ZM16.61-1.91C16.61-1.30 17.00-0.94 17.63-0.94L20.52-0.94C21.15-0.94 21.55-1.30 21.55-1.91L21.55-15.46C21.55-16.07 21.15-16.43 20.52-16.43L17.63-16.43C17.00-16.43 16.61-16.07 16.61-15.46ZM3.91-1.91C3.91-1.30 4.30-0.94 4.93-0.94L7.83-0.94C8.45-0.94 8.86-1.30 8.86-1.91L8.86-12.73C8.86-13.32 8.45-13.70 7.83-13.70L4.93-13.70C4.30-13.70 3.91-13.32 3.91-12.73ZM22.96-1.91C22.96-1.30 23.34-0.94 23.98-0.94L26.88-0.94C27.49-0.94 27.90-1.30 27.90-1.91L27.90-10.08C27.90-10.69 27.49-11.06 26.88-11.06L23.98-11.06C23.34-11.06 22.96-10.69 22.96-10.08ZM2.99 1.51C2.99 1.92 3.33 2.24 3.71 2.24L28.10 2.24C28.49 2.24 28.83 1.92 28.83 1.51C28.83 1.10 28.49 0.80 28.10 0.80L3.71 0.80C3.33 0.80 2.99 1.10 2.99 1.51Z" fill="currentColor"/>
</svg>