<svg xmlns="http://www.w3.org/2000/svg" viewBox="0 0 24 24" width="24" height="24">
  
  <path transform="matrix(0.8507809903622466, 0, 0, 0.8507809903622466, 0.21535393818544368, 19.19840478564307)" d="M13.85 3.29C20.34 3.29 25.61-1.97 25.61-8.46C25.61-14.95 20.34-20.21 13.85-20.21C7.36-20.21 2.10-14.95 2.10-8.46C2.10-1.97 7.36 3.29 13.85 3.29ZM13.85 1.77C8.19 1.77 3.62-2.80 3.62-8.46C3.62-14.12 8.19-18.70 13.85-18.70C19.51-18.70 24.09-14.12 24.09-8.46C24.09-2.80 19.51 1.77 13.85 1.77ZM7.54-3.89C7.54-3.41 7.85-3.08 8.33-3.08L19.65-3.08C19.93-3.08 20.18-3.33 20.18-3.61C20.18-3.90 19.93-4.15 19.65-4.15L8.66-4.15C8.60-4.15 8.60-4.16 8.60-4.21L8.60-6.87L10.90-9.14C10.99-9.23 11.07-9.23 11.16-9.14L13.38-6.91C13.64-6.67 13.90-6.54 14.20-6.54C14.51-6.54 14.79-6.67 15.04-6.91L17.44-9.36L18.38-8.43C18.63-8.19 18.98-8.31 19.08-8.67L19.84-11.98C19.93-12.30 19.65-12.57 19.31-12.49L16.02-11.74C15.67-11.65 15.53-11.27 15.77-11.04L16.69-10.13L14.33-7.72C14.25-7.63 14.18-7.63 14.09-7.72L11.85-9.97C11.60-10.23 11.33-10.35 11.03-10.35C10.71-10.35 10.44-10.23 10.20-9.97L8.60-8.37L8.60-13.55C8.60-13.84 8.36-14.09 8.06-14.09C7.78-14.09 7.54-13.84 7.54-13.55Z" fill="currentColor"/>
</svg>