<svg xmlns="http://www.w3.org/2000/svg" viewBox="0 0 24 24" width="24" height="24">
  <title>chart.bar.xaxis.ascending</title>
  <path transform="matrix(0.7739984882842026, 0, 0, 0.7739984882842026, -0.3129251700680271, 18.544217687074827)" d="M22.96-1.91C22.96-1.30 23.36-0.94 23.98-0.94L26.87-0.94C27.50-0.94 27.90-1.30 27.90-1.91L27.90-18.18C27.90-18.77 27.50-19.15 26.87-19.15L23.98-19.15C23.36-19.15 22.96-18.77 22.96-18.18ZM16.61-1.91C16.61-1.30 17.00-0.94 17.63-0.94L20.52-0.94C21.15-0.94 21.55-1.30 21.55-1.91L21.55-14.74C21.55-15.35 21.15-15.71 20.52-15.71L17.63-15.71C17.00-15.71 16.61-15.35 16.61-14.74ZM10.25-1.91C10.25-1.30 10.64-0.94 11.27-0.94L14.17-0.94C14.80-0.94 15.20-1.30 15.20-1.91L15.20-11.31C15.20-11.89 14.80-12.27 14.17-12.27L11.27-12.27C10.64-12.27 10.25-11.89 10.25-11.31ZM3.91-1.91C3.91-1.30 4.30-0.94 4.95-0.94L7.84-0.94C8.45-0.94 8.86-1.30 8.86-1.91L8.86-7.86C8.86-8.47 8.45-8.85 7.84-8.85L4.95-8.85C4.30-8.85 3.91-8.47 3.91-7.86ZM3.71 2.24L28.10 2.24C28.49 2.24 28.83 1.92 28.83 1.51C28.83 1.10 28.49 0.80 28.10 0.80L3.71 0.80C3.33 0.80 2.99 1.10 2.99 1.51C2.99 1.92 3.33 2.24 3.71 2.24Z" fill="currentColor"/>
</svg>