<svg xmlns="http://www.w3.org/2000/svg" viewBox="0 0 24 24" width="24" height="24">
  
  <path transform="matrix(0.800875958079149, 0, 0, 0.800875958079149, 1.84983575786016, 18.76208352885969)" d="M2.99 0.59C2.99 2.87 4.15 4.04 6.41 4.04L18.94 4.04C21.21 4.04 22.36 2.87 22.36 0.59L22.36-17.48C22.36-19.77 21.21-20.93 18.94-20.93L6.41-20.93C4.15-20.93 2.99-19.77 2.99-17.48ZM4.44 0.55L4.44-17.45C4.44-18.77 5.13-19.49 6.49-19.49L18.87-19.49C20.21-19.49 20.92-18.77 20.92-17.45L20.92 0.55C20.92 1.88 20.21 2.59 18.87 2.59L6.49 2.59C5.13 2.59 4.44 1.88 4.44 0.55ZM11.41-2.89C11.72-2.89 11.96-3.05 12.14-3.32L17.84-12.21C17.94-12.38 18.05-12.59 18.05-12.77C18.05-13.17 17.68-13.44 17.31-13.44C17.07-13.44 16.85-13.30 16.68-13.04L11.38-4.66L8.67-7.99C8.47-8.27 8.26-8.36 8.02-8.36C7.63-8.36 7.31-8.04 7.31-7.64C7.31-7.44 7.39-7.24 7.52-7.07L10.65-3.32C10.89-3.02 11.11-2.89 11.41-2.89Z" fill="currentColor"/>
</svg>