<svg xmlns="http://www.w3.org/2000/svg" viewBox="0 0 24 24" width="24" height="24">
  
  <path transform="matrix(0.9300635785649409, 0, 0, 0.9300635785649409, 0.13623978201635012, 19.87465940054496)" d="M3.23-17.82L12.12-8.47C12.30-8.30 12.50-8.19 12.75-8.19C13.00-8.19 13.22-8.30 13.39-8.48L22.28-17.84C22.43-17.99 22.52-18.18 22.52-18.41C22.52-18.87 22.17-19.22 21.71-19.22C21.50-19.22 21.28-19.14 21.13-18.98L12.76-10.17L4.37-18.98C4.23-19.14 4.02-19.22 3.80-19.22C3.34-19.22 2.99-18.87 2.99-18.41C2.99-18.18 3.08-17.99 3.23-17.82ZM3.23-7.35L12.12 2.00C12.30 2.18 12.50 2.29 12.75 2.29C13.00 2.29 13.22 2.17 13.39 1.99L22.28-7.36C22.43-7.51 22.52-7.70 22.52-7.93C22.52-8.39 22.17-8.74 21.71-8.74C21.50-8.74 21.28-8.65 21.13-8.51L12.76 0.30L4.37-8.51C4.23-8.65 4.02-8.74 3.80-8.74C3.34-8.74 2.99-8.39 2.99-7.93C2.99-7.70 3.08-7.51 3.23-7.35Z" fill="currentColor"/>
</svg>