<svg xmlns="http://www.w3.org/2000/svg" viewBox="0 0 24 24" width="24" height="24">
  
  <path transform="matrix(0.8507809903622466, 0, 0, 0.8507809903622466, 0.21535393818544368, 19.19840478564307)" d="M13.85 3.29C20.34 3.29 25.61-1.97 25.61-8.46C25.61-14.95 20.34-20.21 13.85-20.21C7.36-20.21 2.10-14.95 2.10-8.46C2.10-1.97 7.36 3.29 13.85 3.29ZM13.85 1.77C8.19 1.77 3.62-2.80 3.62-8.46C3.62-14.12 8.19-18.70 13.85-18.70C19.51-18.70 24.09-14.12 24.09-8.46C24.09-2.80 19.51 1.77 13.85 1.77ZM14.74-4.64L19.59-9.70C19.86-10.00 19.89-10.42 19.62-10.69C19.34-10.96 18.89-10.98 18.62-10.69L13.85-5.70L9.07-10.69C8.80-10.98 8.34-10.97 8.07-10.69C7.82-10.41 7.83-10.00 8.10-9.70L12.96-4.64C13.52-4.03 14.18-4.04 14.74-4.64Z" fill="currentColor"/>
</svg>