<svg xmlns="http://www.w3.org/2000/svg" viewBox="0 0 24 24" width="24" height="24">
  <title>chevron.left.chevron.right</title>
  <path transform="matrix(0.732789466151424, 0, 0, 0.732789466151424, -0.1897810218978102, 18.204379562043794)" d="M12.63 1.05C12.79 1.21 12.98 1.30 13.21 1.30C13.66 1.30 14.02 0.95 14.02 0.49C14.02 0.27 13.93 0.06 13.79-0.08L4.98-8.47L13.79-16.84C13.93-16.99 14.02-17.21 14.02-17.43C14.02-17.88 13.66-18.23 13.21-18.23C12.98-18.23 12.80-18.14 12.63-17.99L3.28-9.11C3.11-8.93 2.99-8.71 2.99-8.46C2.99-8.21 3.09-8.02 3.28-7.83ZM20.64 1.05L29.99-7.83C30.18-8.02 30.28-8.21 30.28-8.46C30.28-8.71 30.16-8.93 29.98-9.11L20.63-17.99C20.47-18.14 20.29-18.23 20.06-18.23C19.59-18.23 19.24-17.88 19.24-17.43C19.24-17.21 19.34-16.99 19.48-16.84L28.29-8.47L19.48-0.08C19.34 0.06 19.24 0.27 19.24 0.49C19.24 0.95 19.59 1.30 20.06 1.30C20.29 1.30 20.47 1.21 20.64 1.05Z" fill="currentColor"/>
</svg>