<svg xmlns="http://www.w3.org/2000/svg" viewBox="0 0 24 24" width="24" height="24">
  <title>circle.dotted.circle</title>
  <path transform="matrix(0.8507809903622466, 0, 0, 0.8507809903622466, 0.21535393818544368, 19.19840478564307)" d="M13.85 3.29C20.34 3.29 25.61-1.97 25.61-8.46C25.61-14.95 20.34-20.21 13.85-20.21C7.36-20.21 2.10-14.95 2.10-8.46C2.10-1.97 7.36 3.29 13.85 3.29ZM13.85 1.77C8.19 1.77 3.62-2.80 3.62-8.46C3.62-14.12 8.19-18.70 13.85-18.70C19.51-18.70 24.09-14.12 24.09-8.46C24.09-2.80 19.51 1.77 13.85 1.77ZM13.84-12.95C14.27-12.95 14.60-13.27 14.60-13.70C14.60-14.13 14.27-14.45 13.84-14.45C13.42-14.45 13.09-14.13 13.09-13.70C13.09-13.27 13.42-12.95 13.84-12.95ZM16.46-12.25C16.90-12.25 17.23-12.56 17.23-13.00C17.23-13.43 16.90-13.75 16.46-13.75C16.04-13.75 15.71-13.43 15.71-13.00C15.71-12.56 16.04-12.25 16.46-12.25ZM11.21-12.25C11.65-12.25 11.98-12.56 11.98-13.00C11.98-13.43 11.65-13.75 11.21-13.75C10.79-13.75 10.46-13.43 10.46-13.00C10.46-12.56 10.79-12.25 11.21-12.25ZM18.39-10.32C18.82-10.32 19.15-10.64 19.15-11.07C19.15-11.51 18.82-11.82 18.39-11.82C17.96-11.82 17.64-11.51 17.64-11.07C17.64-10.64 17.96-10.32 18.39-10.32ZM9.29-10.32C9.73-10.32 10.05-10.64 10.05-11.07C10.05-11.51 9.73-11.82 9.29-11.82C8.87-11.82 8.54-11.51 8.54-11.07C8.54-10.64 8.87-10.32 9.29-10.32ZM19.09-7.70C19.52-7.70 19.85-8.02 19.85-8.45C19.85-8.88 19.52-9.20 19.09-9.20C18.67-9.20 18.34-8.88 18.34-8.45C18.34-8.02 18.67-7.70 19.09-7.70ZM8.59-7.70C9.02-7.70 9.35-8.02 9.35-8.45C9.35-8.88 9.02-9.20 8.59-9.20C8.17-9.20 7.84-8.88 7.84-8.45C7.84-8.02 8.17-7.70 8.59-7.70ZM18.39-5.07C18.82-5.07 19.15-5.39 19.15-5.82C19.15-6.25 18.82-6.57 18.39-6.57C17.96-6.57 17.64-6.25 17.64-5.82C17.64-5.39 17.96-5.07 18.39-5.07ZM9.29-5.07C9.73-5.07 10.05-5.39 10.05-5.82C10.05-6.25 9.73-6.57 9.29-6.57C8.87-6.57 8.54-6.25 8.54-5.82C8.54-5.39 8.87-5.07 9.29-5.07ZM16.46-3.15C16.90-3.15 17.23-3.47 17.23-3.90C17.23-4.32 16.90-4.65 16.46-4.65C16.04-4.65 15.71-4.32 15.71-3.90C15.71-3.47 16.04-3.15 16.46-3.15ZM11.21-3.15C11.65-3.15 11.98-3.47 11.98-3.90C11.98-4.32 11.65-4.65 11.21-4.65C10.79-4.65 10.46-4.32 10.46-3.90C10.46-3.47 10.79-3.15 11.21-3.15ZM13.84-2.45C14.27-2.45 14.60-2.77 14.60-3.20C14.60-3.63 14.27-3.95 13.84-3.95C13.42-3.95 13.09-3.63 13.09-3.20C13.09-2.77 13.42-2.45 13.84-2.45Z" fill="currentColor"/>
</svg>