<svg xmlns="http://www.w3.org/2000/svg" viewBox="0 0 24 24" width="24" height="24">
  
  <path transform="matrix(0.6740389678778305, 0, 0, 0.6740389678778305, 0.5860979462875198, 17.70300157977883)" d="M8.71-1.85C12.36-1.85 15.32-4.82 15.32-8.46C15.32-12.12 12.36-15.07 8.71-15.07C5.06-15.07 2.10-12.12 2.10-8.46C2.10-4.82 5.06-1.85 8.71-1.85ZM25.16-1.85C28.80-1.85 31.77-4.82 31.77-8.46C31.77-12.12 28.80-15.07 25.16-15.07C21.50-15.07 18.55-12.12 18.55-8.46C18.55-4.82 21.50-1.85 25.16-1.85ZM25.16-3.30C22.30-3.30 19.99-5.60 19.99-8.46C19.99-11.32 22.30-13.63 25.16-13.63C28.01-13.63 30.32-11.32 30.32-8.46C30.32-5.60 28.01-3.30 25.16-3.30Z" fill="currentColor"/>
</svg>