<svg xmlns="http://www.w3.org/2000/svg" viewBox="0 0 24 24" width="24" height="24">
  <title>circle.bottomrighthalf.pattern.checkered</title>
  <path transform="matrix(0.8507809903622466, 0, 0, 0.8507809903622466, 0.21535393818544368, 19.19840478564307)" d="M13.85 3.29C20.34 3.29 25.61-1.97 25.61-8.46C25.61-14.95 20.34-20.21 13.85-20.21C7.36-20.21 2.10-14.95 2.10-8.46C2.10-1.97 7.36 3.29 13.85 3.29ZM7.35-1.95L7.35-0.55C5.06-2.43 3.62-5.27 3.62-8.46C3.62-14.12 8.19-18.70 13.85-18.70C17.05-18.70 19.90-17.24 21.77-14.95L20.36-14.95L20.36-13.34L22.00-13.34L22.00-14.67C22.31-14.25 22.61-13.80 22.86-13.34L22.00-13.34L22.00-11.71L23.57-11.71C23.58-11.66 23.60-11.61 23.61-11.57L23.61-10.08L23.96-10.08C24.05-9.55 24.09-9.01 24.09-8.46L24.09-8.45L23.61-8.45L23.61-6.82L23.95-6.82C23.88-6.32 23.77-5.84 23.61-5.37L23.61-6.82L22.00-6.82L22.00-5.20L23.55-5.20C23.37-4.63 23.13-4.09 22.85-3.57L22.00-3.57L22.00-2.25C21.91-2.14 21.83-2.04 21.75-1.95L20.36-1.95L20.36-0.55C20.26-0.47 20.16-0.40 20.05-0.32L18.74-0.32L18.74 0.54C18.22 0.82 17.67 1.05 17.11 1.24L17.11-0.32L15.48-0.32L15.48 1.30L16.93 1.30C16.45 1.45 15.97 1.57 15.48 1.64L15.48 1.30L13.86 1.30L13.86 1.77L13.85 1.77C13.30 1.77 12.76 1.73 12.23 1.64L12.23 1.30L10.78 1.30C10.72 1.29 10.66 1.27 10.61 1.25L10.61-0.32L8.98-0.32L8.98 0.54C8.51 0.29 8.06 0 7.65-0.32L8.98-0.32L8.98-1.95ZM18.74-13.34L18.74-11.71L20.36-11.71L20.36-13.34ZM17.11-11.71L17.11-10.08L18.74-10.08L18.74-11.71ZM20.36-11.71L20.36-10.08L22.00-10.08L22.00-11.71ZM18.74-10.08L18.74-8.45L20.36-8.45L20.36-10.08ZM15.48-10.08L15.48-8.45L17.11-8.45L17.11-10.08ZM22.00-10.08L22.00-8.45L23.61-8.45L23.61-10.08ZM20.36-8.45L20.36-6.82L22.00-6.82L22.00-8.45ZM17.11-8.45L17.11-6.82L18.74-6.82L18.74-8.45ZM13.86-8.45L13.86-6.82L15.48-6.82L15.48-8.45ZM18.74-6.82L18.74-5.20L20.36-5.20L20.36-6.82ZM15.48-6.82L15.48-5.20L17.11-5.20L17.11-6.82ZM12.23-6.82L12.23-5.20L13.86-5.20L13.86-6.82ZM17.11-5.20L17.11-3.57L18.74-3.57L18.74-5.20ZM10.61-5.20L10.61-3.57L12.23-3.57L12.23-5.20ZM13.86-5.20L13.86-3.57L15.48-3.57L15.48-5.20ZM20.36-5.20L20.36-3.57L22.00-3.57L22.00-5.20ZM8.98-3.57L8.98-1.95L10.61-1.95L10.61-3.57ZM15.48-3.57L15.48-1.95L17.11-1.95L17.11-3.57ZM18.74-3.57L18.74-1.95L20.36-1.95L20.36-3.57ZM12.23-3.57L12.23-1.95L13.86-1.95L13.86-3.57ZM13.86-1.95L13.86-0.32L15.48-0.32L15.48-1.95ZM17.11-1.95L17.11-0.32L18.74-0.32L18.74-1.95ZM10.61-1.95L10.61-0.32L12.23-0.32L12.23-1.95ZM12.23-0.32L12.23 1.30L13.86 1.30L13.86-0.32Z" fill="currentColor"/>
</svg>