<svg xmlns="http://www.w3.org/2000/svg" viewBox="0 0 24 24" width="24" height="24">
  
  <path transform="matrix(0.8507809903622466, 0, 0, 0.8507809903622466, 0.21535393818544368, 19.188434695912264)" d="M13.85 3.30C20.33 3.30 25.61-1.97 25.61-8.45C25.61-14.93 20.33-20.20 13.85-20.20C7.37-20.20 2.10-14.93 2.10-8.45C2.10-1.97 7.37 3.30 13.85 3.30ZM16.41-14.36C16.16-14.36 15.95-14.57 15.95-14.81L15.95-16.21C15.95-16.45 16.16-16.65 16.41-16.65C16.68-16.65 16.88-16.45 16.88-16.21L16.88-14.81C16.88-14.57 16.68-14.36 16.41-14.36ZM18.95-13.30C18.79-13.48 18.76-13.78 18.95-13.95L19.95-14.93C20.13-15.12 20.41-15.09 20.59-14.93C20.75-14.77 20.75-14.47 20.59-14.29L19.61-13.29C19.43-13.11 19.13-13.13 18.95-13.30ZM13.23-13.29L12.25-14.29C12.08-14.47 12.08-14.77 12.25-14.94C12.42-15.09 12.70-15.11 12.90-14.93L13.89-13.95C14.06-13.77 14.05-13.46 13.89-13.29C13.71-13.13 13.42-13.11 13.23-13.29ZM19.25-10.76C19.25-9.75 18.75-8.88 17.92-8.33C17.74-9.97 16.42-11.19 14.70-11.40C14.48-11.73 14.26-12.01 14.00-12.26C14.48-13.07 15.39-13.61 16.41-13.61C17.99-13.61 19.25-12.35 19.25-10.76ZM8.13-5.07C6.69-5.07 5.74-6.02 5.74-7.27C5.74-8.32 6.45-9.12 7.37-9.42C7.58-11.29 9.14-12.74 10.98-12.74C12.43-12.74 13.59-11.94 14.25-10.70C15.95-10.65 17.20-9.47 17.20-7.91C17.20-6.33 15.95-5.07 14.31-5.07ZM20.46-10.31C20.21-10.31 20.00-10.51 20.00-10.76C20.00-11.03 20.21-11.23 20.46-11.23L21.83-11.23C22.10-11.23 22.30-11.03 22.30-10.76C22.30-10.51 22.10-10.31 21.83-10.31ZM19.95-6.59L18.95-7.57C18.76-7.75 18.79-8.05 18.95-8.23C19.13-8.39 19.43-8.39 19.61-8.23L20.59-7.24C20.77-7.07 20.75-6.77 20.59-6.59C20.41-6.42 20.12-6.40 19.95-6.59ZM10.01-2.34L10.82-4.20C10.89-4.34 10.96-4.39 11.16-4.39L12.16-4.39C12.32-4.39 12.39-4.28 12.30-4.13L11.67-2.94L12.77-2.94C12.97-2.94 13.04-2.77 12.91-2.59L10.62 0.02C10.49 0.18 10.25 0.07 10.32-0.12L11.12-2.06L10.21-2.06C10.02-2.06 9.94-2.18 10.01-2.34Z" fill="currentColor"/>
</svg>