<svg xmlns="http://www.w3.org/2000/svg" viewBox="0 0 24 24" width="24" height="24">
  
  <path transform="matrix(0.6567288595314932, 0, 0, 0.6567288595314932, 1.215003785091262, 17.531204028702895)" d="M5.98-3.16L18.74-3.16C22.04-3.16 24.61-5.66 24.61-8.85C24.61-8.91 24.61-8.96 24.61-9.01C28.71-9.12 30.98-11.72 31.57-13.70C31.83-14.43 31.43-15.05 30.74-15.05C30.12-15.05 29.44-14.68 28.10-14.68C25.10-14.68 23.41-16.43 23.41-19.16C23.41-20.65 23.88-21.28 23.88-21.90C23.88-22.68 23.24-23.04 22.41-22.78C20.23-22.17 17.78-19.78 17.78-16.32C17.78-16.09 17.79-15.87 17.81-15.66C16.41-17.54 14.34-18.68 11.87-18.68C8.06-18.68 4.91-15.69 4.54-11.85C2.59-11.27 1.20-9.66 1.20-7.52C1.20-5.04 3.07-3.16 5.98-3.16ZM19.11-16.36C19.11-19.04 20.93-20.78 22.46-21.41L22.55-21.34C22.32-20.78 22.10-19.93 22.10-18.93C22.10-15.66 24.46-13.39 27.84-13.39C28.69-13.39 29.55-13.55 30.18-13.76L30.23-13.70C29.72-12.35 27.82-10.35 24.41-10.34C23.80-12.50 21.89-14.09 19.42-14.41C19.21-15.02 19.11-15.68 19.11-16.36ZM5.95-4.59C3.80-4.59 2.61-5.87 2.61-7.49C2.61-8.91 3.52-10.07 5.27-10.56C5.75-10.69 5.92-10.90 5.95-11.37C6.21-14.72 8.81-17.26 11.87-17.26C14.38-17.26 16.23-15.82 17.33-13.63C17.54-13.21 17.79-13.07 18.28-13.07C21.28-13.07 23.18-11.14 23.18-8.80C23.18-6.47 21.26-4.59 18.76-4.59ZM14.98 2.41L16.63-0.45C16.82-0.75 16.72-1.08 16.44-1.24C16.16-1.41 15.84-1.31 15.66-1.01L14.00 1.86C13.83 2.16 13.91 2.48 14.20 2.65C14.48 2.80 14.81 2.71 14.98 2.41ZM5.65 2.41L7.30-0.43C7.49-0.74 7.39-1.07 7.11-1.23C6.83-1.39 6.52-1.30 6.33-1.00L4.68 1.88C4.51 2.16 4.58 2.48 4.88 2.65C5.16 2.81 5.48 2.72 5.65 2.41ZM18.67 5.71L20.32 2.85C20.50 2.54 20.40 2.21 20.13 2.05C19.84 1.89 19.52 1.98 19.35 2.29L17.68 5.16C17.52 5.44 17.59 5.77 17.88 5.94C18.16 6.09 18.50 6 18.67 5.71ZM9.34 5.71L10.99 2.85C11.17 2.55 11.09 2.23 10.80 2.05C10.52 1.90 10.20 1.99 10.02 2.29L8.36 5.17C8.19 5.45 8.27 5.78 8.55 5.94C8.84 6.11 9.18 6 9.34 5.71Z" fill="currentColor"/>
</svg>