<svg xmlns="http://www.w3.org/2000/svg" viewBox="0 0 24 24" width="24" height="24">
  <title>cloud.bolt.rain.circle.fill</title>
  <path transform="matrix(0.8507809903622466, 0, 0, 0.8507809903622466, 0.21535393818544368, 19.188434695912264)" d="M13.85 3.30C20.33 3.30 25.61-1.97 25.61-8.45C25.61-14.93 20.33-20.20 13.85-20.20C7.37-20.20 2.10-14.93 2.10-8.45C2.10-1.97 7.37 3.30 13.85 3.30ZM9.91-7.28C8.23-7.28 7.25-8.37 7.25-9.68C7.25-10.91 8.09-11.80 9.14-12.09C9.34-14.26 11.11-15.98 13.27-15.98C14.99-15.98 16.29-15.02 17.03-13.58C18.96-13.58 20.46-12.26 20.46-10.44C20.46-8.68 19.03-7.28 17.18-7.28ZM12.09-3.86L13.08-6.12C13.15-6.28 13.25-6.35 13.46-6.35L14.70-6.35C14.87-6.35 14.94-6.20 14.85-6.04L14.10-4.57L15.39-4.57C15.63-4.57 15.71-4.36 15.56-4.16L12.77-1.01C12.69-0.89 12.60-0.88 12.53-0.89C12.43-0.95 12.40-1.04 12.46-1.17L13.41-3.52L12.33-3.52C12.11-3.52 12.01-3.68 12.09-3.86ZM17.65-3.74C17.52-3.52 17.24-3.43 17.02-3.56C16.78-3.69 16.71-3.98 16.84-4.21L17.78-5.81C17.92-6.05 18.19-6.12 18.41-6C18.64-5.86 18.73-5.58 18.59-5.36ZM9.93-3.74C9.80-3.52 9.52-3.43 9.29-3.56C9.07-3.69 8.99-3.98 9.12-4.21L10.05-5.81C10.18-6.05 10.46-6.12 10.69-6C10.92-5.86 10.99-5.58 10.86-5.36Z" fill="currentColor"/>
</svg>