<svg xmlns="http://www.w3.org/2000/svg" viewBox="0 0 24 24" width="24" height="24">
  <title>cloud.sun.circle.fill</title>
  <path transform="matrix(0.8507809903622466, 0, 0, 0.8507809903622466, 0.21535393818544368, 19.188434695912264)" d="M13.85 3.30C20.33 3.30 25.61-1.97 25.61-8.45C25.61-14.93 20.33-20.20 13.85-20.20C7.37-20.20 2.10-14.93 2.10-8.45C2.10-1.97 7.37 3.30 13.85 3.30ZM16.64-13.09C16.38-13.09 16.16-13.30 16.16-13.56L16.16-15.04C16.16-15.32 16.38-15.52 16.64-15.52C16.92-15.52 17.13-15.32 17.13-15.04L17.13-13.56C17.13-13.30 16.92-13.09 16.64-13.09ZM19.32-11.98C19.15-12.15 19.14-12.47 19.32-12.64L20.37-13.69C20.55-13.89 20.86-13.86 21.05-13.69C21.22-13.51 21.23-13.21 21.05-13.01L20.02-11.96C19.83-11.78 19.51-11.79 19.32-11.98ZM13.29-11.96L12.25-13.01C12.07-13.21 12.07-13.52 12.25-13.70C12.43-13.86 12.74-13.88 12.94-13.69L13.98-12.64C14.16-12.47 14.14-12.15 13.98-11.96C13.79-11.79 13.48-11.78 13.29-11.96ZM19.65-9.29C19.65-8.24 19.11-7.31 18.25-6.74C18.05-8.46 16.65-9.76 14.84-9.97C14.63-10.31 14.38-10.62 14.10-10.88C14.61-11.73 15.56-12.29 16.64-12.29C18.30-12.29 19.65-10.97 19.65-9.29ZM7.91-3.30C6.39-3.30 5.39-4.30 5.39-5.60C5.39-6.71 6.12-7.56 7.10-7.88C7.32-9.83 8.96-11.38 10.92-11.38C12.46-11.38 13.66-10.54 14.37-9.23C16.15-9.19 17.48-7.93 17.48-6.28C17.48-4.61 16.15-3.30 14.43-3.30ZM20.92-8.82C20.65-8.82 20.43-9.04 20.43-9.29C20.43-9.57 20.65-9.77 20.92-9.77L22.37-9.77C22.65-9.77 22.86-9.57 22.86-9.29C22.86-9.04 22.65-8.82 22.37-8.82ZM20.37-4.89L19.32-5.93C19.14-6.12 19.15-6.42 19.32-6.61C19.51-6.80 19.83-6.80 20.02-6.61L21.05-5.58C21.25-5.40 21.22-5.09 21.05-4.90C20.86-4.71 20.55-4.69 20.37-4.89Z" fill="currentColor"/>
</svg>