<svg xmlns="http://www.w3.org/2000/svg" viewBox="0 0 24 24" width="24" height="24">
  <title>comb.fill</title>
  <path transform="matrix(0.768637853314468, 0, 0, 0.768637853314468, -0.06886533612503953, 17.957895663966397)" d="M3.87-0.13L9.04 5.04C9.33 5.33 9.79 5.33 10.07 5.04C10.35 4.76 10.35 4.31 10.07 4.02L6.76 0.69L8.16-0.71L11.54 2.68C11.79 2.93 12.18 2.93 12.42 2.68C12.67 2.45 12.68 2.05 12.43 1.80L9.04-1.59L10.44-3L13.83 0.40C14.09 0.64 14.47 0.64 14.71 0.40C14.95 0.15 14.95-0.23 14.72-0.48L11.32-3.88L12.74-5.29L16.13-1.89C16.36-1.64 16.76-1.64 16.99-1.89C17.25-2.13 17.25-2.52 17.00-2.78L13.62-6.16L15.02-7.57L18.41-4.17C18.66-3.93 19.04-3.93 19.28-4.17C19.52-4.43 19.54-4.82 19.29-5.06L15.90-8.45L17.30-9.86L20.68-6.46C20.93-6.21 21.32-6.21 21.56-6.46C21.81-6.69 21.82-7.09 21.57-7.34L18.19-10.73L19.58-12.14L22.97-8.75C23.23-8.50 23.61-8.50 23.85-8.74C24.09-8.99 24.09-9.38 23.86-9.62L20.46-13.02L21.87-14.43L25.27-11.03C25.50-10.78 25.90-10.78 26.13-11.03C26.39-11.27 26.39-11.66 26.14-11.92L22.76-15.30L24.16-16.72L27.48-13.39C27.77-13.11 28.22-13.10 28.50-13.39C28.78-13.69 28.78-14.12 28.50-14.41L23.32-19.58C21.73-21.16 19.79-21.15 18.20-19.56L3.89-5.25C2.31-3.67 2.29-1.72 3.87-0.13Z" fill="currentColor"/>
</svg>