<svg xmlns="http://www.w3.org/2000/svg" viewBox="0 0 24 24" width="24" height="24">
  <title>convertible.side.and.exclamationmark</title>
  <path transform="matrix(0.46770804786699555, 0, 0, 0.46770804786699555, 0.6023568100849548, 16.697177308851742)" d="M24.02-10.90C24.47-10.90 24.77-11.20 24.80-11.66L24.97-20.06C24.98-20.63 24.61-21 24.02-21C23.45-21 23.07-20.63 23.09-20.06L23.26-11.66C23.29-11.20 23.59-10.90 24.02-10.90ZM5.27-1.45L7.85-1.15C8.51 0.08 9.80 0.91 11.32 0.91C13.04 0.91 14.47-0.14 15.01-1.65L33.73-1.65C34.28-0.14 35.70 0.91 37.42 0.91C39.26 0.91 40.77-0.29 41.20-1.99L42.54-2.14C44.72-2.39 45.75-3.56 45.75-5.79L45.75-7.83C45.75-10.39 44.70-11.54 42.08-12.02L36.52-13.04C34.88-13.35 33.60-13.48 31.84-13.37L26.18-13.02L26.14-11.58L31.77-11.91C33.40-12.01 34.61-11.88 36.46-11.53L41.82-10.54C43.63-10.21 44.30-9.43 44.30-7.83L44.30-5.79C44.30-4.43 43.69-3.71 42.38-3.56L41.31-3.45C41.11-5.43 39.47-6.93 37.42-6.93C35.25-6.93 33.54-5.25 33.49-3.09L15.25-3.09C15.20-5.26 13.49-6.93 11.32-6.93C9.12-6.93 7.41-5.21 7.41-3.01C7.41-2.89 7.41-2.78 7.42-2.67L5.60-2.88C4.80-2.96 4.44-3.35 4.44-4.05L4.44-5.50C4.44-7.76 5.86-8.96 8.70-9.52L16.45-10.99L21.93-11.32L21.90-12.50L19.52-12.59L21.88-14.38L21.83-15.91L16.68-12.47L8.48-10.91C4.83-10.22 2.99-8.58 2.99-5.50L2.99-3.96C2.99-2.41 3.70-1.63 5.27-1.45ZM24.02-5.92C24.74-5.92 25.32-6.49 25.32-7.17C25.32-7.86 24.74-8.43 24.02-8.43C23.31-8.43 22.73-7.86 22.73-7.17C22.73-6.49 23.32-5.92 24.02-5.92ZM11.32-0.46C9.90-0.46 8.78-1.58 8.78-3.01C8.78-4.43 9.90-5.55 11.32-5.55C12.75-5.55 13.88-4.43 13.88-3.01C13.88-1.58 12.75-0.46 11.32-0.46ZM37.42-0.46C35.99-0.46 34.86-1.58 34.86-3.01C34.86-4.43 35.99-5.55 37.42-5.55C38.84-5.55 39.96-4.43 39.96-3.01C39.96-1.58 38.84-0.46 37.42-0.46Z" fill="currentColor"/>
</svg>