<svg xmlns="http://www.w3.org/2000/svg" viewBox="0 0 24 24" width="24" height="24">
  <title>convertible.side.hill.up</title>
  <path transform="matrix(0.5180516908275583, 0, 0, 0.5180516908275583, 0.45193609838170934, 16.384258370204154)" d="M6.56-18.05L8.81-21.94C9.15-22.51 8.71-23.02 8.11-22.91L4.55-22.41C4.08-22.34 3.87-21.96 4.04-21.52L5.38-18.18C5.59-17.61 6.25-17.48 6.56-18.05ZM13.29-11.13C14.50-10.43 15.93-10.59 16.91-11.44L30.05-3.86C29.81-2.58 30.39-1.25 31.59-0.56C32.89 0.19 34.44-0.06 35.43-1.05L36.42-0.63C38.06 0.08 39.26-0.33 40.16-1.89L40.98-3.32C42.02-5.12 41.74-6.35 40.10-7.75L36.62-10.71C35.59-11.59 34.75-12.20 33.47-12.83L24.35-17.39C26.10-17.61 27.89-17.71 29.74-17.65C30.53-17.61 30.55-18.77 29.67-18.80C27.22-18.88 24.76-18.73 22.46-18.35L16.09-20.58C13.24-21.56 11.29-21.16 10.04-19.00L9.42-17.93C8.79-16.84 8.98-16.00 10.01-15.23L11.70-13.98C11.65-12.86 12.22-11.74 13.29-11.13ZM36.88-1.69L36.09-2.04C36.75-3.52 36.21-5.23 34.77-6.06C33.25-6.94 31.37-6.46 30.47-4.96L17.66-12.35C18.50-13.89 17.99-15.75 16.46-16.63C14.92-17.52 13.02-17.02 12.13-15.47C12.08-15.39 12.04-15.30 12-15.22L10.82-16.10C10.29-16.49 10.18-16.91 10.48-17.40L11.05-18.41C11.98-20.00 13.46-20.27 15.67-19.50L21.73-17.39L32.82-11.85C34.01-11.25 34.80-10.68 35.96-9.68L39.33-6.81C40.45-5.84 40.62-5.03 39.96-3.90L39.14-2.47C38.59-1.52 37.88-1.27 36.88-1.69ZM13.85-12.09C12.84-12.67 12.52-13.91 13.09-14.91C13.66-15.91 14.92-16.24 15.91-15.67C16.91-15.09 17.24-13.85 16.66-12.84C16.09-11.85 14.85-11.52 13.85-12.09ZM3.09-13.18C2.88-12.82 3-12.39 3.34-12.19L34.63 5.91C34.96 6.09 35.40 5.99 35.60 5.65C35.80 5.29 35.67 4.84 35.34 4.65L4.05-13.44C3.73-13.63 3.28-13.52 3.09-13.18ZM32.16-1.52C31.15-2.10 30.82-3.35 31.39-4.35C31.97-5.34 33.21-5.67 34.22-5.10C35.21-4.52 35.54-3.28 34.97-2.29C34.39-1.28 33.15-0.95 32.16-1.52Z" fill="currentColor"/>
</svg>