<svg xmlns="http://www.w3.org/2000/svg" viewBox="0 0 24 24" width="24" height="24">
  
  <path transform="matrix(0.7346821638685608, 0, 0, 0.7346821638685608, -0.19543693499784753, 18.2031855359449)" d="M26.77-18.23L6.45-18.23C4.16-18.23 2.99-17.07 2.99-14.80L2.99-13.79L30.21-13.79L30.21-14.80C30.21-17.06 29.05-18.23 26.77-18.23ZM7.66-2.18C6.97-2.18 6.52-2.64 6.52-3.29L6.52-5.47C6.52-6.13 6.97-6.60 7.66-6.60L10.54-6.60C11.23-6.60 11.68-6.13 11.68-5.47L11.68-3.29C11.68-2.64 11.23-2.18 10.54-2.18ZM6.45 1.35L26.77 1.35C29.05 1.35 30.21 0.18 30.21-2.07L30.21-11.17L2.99-11.17L2.99-2.07C2.99 0.19 4.16 1.35 6.45 1.35Z" fill="currentColor"/>
</svg>