<svg xmlns="http://www.w3.org/2000/svg" viewBox="0 0 24 24" width="24" height="24">
  <title>cross.circle.fill</title>
  <path transform="matrix(0.8507809903622466, 0, 0, 0.8507809903622466, 0.21535393818544368, 19.188434695912264)" d="M13.85 3.30C20.33 3.30 25.61-1.97 25.61-8.45C25.61-14.93 20.33-20.20 13.85-20.20C7.37-20.20 2.10-14.93 2.10-8.45C2.10-1.97 7.37 3.30 13.85 3.30ZM7.38-7.27L7.38-9.68C7.38-10.39 7.88-10.89 8.60-10.89L11.43-10.89L11.43-13.71C11.43-14.44 11.92-14.93 12.64-14.93L15.06-14.93C15.79-14.93 16.27-14.44 16.27-13.71L16.27-10.89L19.10-10.89C19.83-10.89 20.32-10.39 20.32-9.68L20.32-7.27C20.32-6.54 19.83-6.05 19.10-6.05L16.27-6.05L16.27-3.22C16.27-2.48 15.79-2.00 15.06-2.00L12.64-2.00C11.92-2.00 11.43-2.48 11.43-3.22L11.43-6.05L8.60-6.05C7.88-6.05 7.38-6.54 7.38-7.27Z" fill="currentColor"/>
</svg>