<svg xmlns="http://www.w3.org/2000/svg" viewBox="0 0 24 24" width="24" height="24">
  <title>d.square</title>
  <path transform="matrix(0.9423891036259894, 0, 0, 0.9423891036259894, -0.8161236885698511, 19.967973495306463)" d="M6.45 2.16L20.75 2.16C23.04 2.16 24.21 0.98 24.21-1.27L24.21-15.64C24.21-17.89 23.04-19.07 20.75-19.07L6.45-19.07C4.16-19.07 2.99-17.91 2.99-15.64L2.99-1.27C2.99 1.00 4.16 2.16 6.45 2.16ZM6.47 0.70C5.16 0.70 4.44 0.01 4.44-1.35L4.44-15.56C4.44-16.92 5.16-17.61 6.47-17.61L20.72-17.61C22.02-17.61 22.76-16.92 22.76-15.56L22.76-1.35C22.76 0.01 22.02 0.70 20.72 0.70ZM10.44-3.25L13.46-3.25C16.65-3.25 18.50-5.14 18.50-8.57C18.50-11.89 16.66-13.80 13.46-13.80L10.44-13.80C9.97-13.80 9.74-13.48 9.74-13.00L9.74-4.07C9.74-3.57 9.97-3.25 10.44-3.25ZM11.14-4.41L11.14-12.64L13.30-12.64C15.64-12.64 17.03-11.17 17.03-8.54C17.03-5.80 15.66-4.41 13.30-4.41Z" fill="currentColor"/>
</svg>