<svg xmlns="http://www.w3.org/2000/svg" viewBox="0 0 24 24" width="24" height="24">
  
  <path transform="matrix(0.78902758514409, 0, 0, 0.78902758514409, -0.35783633841886253, 18.675913083680076)" d="M3.71 3.79L27.61 3.79C28.01 3.79 28.34 3.46 28.34 3.06C28.34 2.66 28.01 2.33 27.61 2.33L26.99 2.33L26.99 1.54C26.99 1.18 26.78 0.97 26.41 0.97L25.66 0.97L25.66-13.11L26.74-13.11C27.23-13.11 27.52-13.46 27.52-13.84C27.52-14.10 27.38-14.34 27.05-14.53L16.99-20.33C16.56-20.58 16.10-20.71 15.66-20.71C15.22-20.71 14.75-20.58 14.33-20.33L4.28-14.53C3.95-14.34 3.81-14.10 3.81-13.84C3.81-13.46 4.08-13.11 4.58-13.11L5.66-13.11L5.66 0.97L4.91 0.97C4.56 0.97 4.34 1.18 4.34 1.54L4.34 2.33L3.71 2.33C3.32 2.33 2.99 2.66 2.99 3.06C2.99 3.46 3.32 3.79 3.71 3.79ZM11.52-2.67C11.21-2.67 11.00-2.89 11.00-3.22L11.00-12.05C11.00-12.38 11.21-12.60 11.52-12.60C11.82-12.60 12.04-12.38 12.04-12.05L12.04-6.47L12.07-6.47L14.98-9.67C15.07-9.79 15.23-9.86 15.36-9.86C15.62-9.86 15.83-9.66 15.83-9.41C15.83-9.26 15.77-9.18 15.64-9.05L13.48-6.73L15.79-3.49C15.87-3.38 15.91-3.26 15.91-3.13C15.91-2.86 15.71-2.67 15.43-2.67C15.25-2.67 15.09-2.77 14.98-2.93L12.74-6.08L12.04-5.37L12.04-3.22C12.04-2.89 11.82-2.67 11.52-2.67ZM17.79-2.67C17.46-2.67 17.29-2.88 17.29-3.22L17.29-9.34C17.29-9.63 17.48-9.86 17.77-9.86C18.04-9.86 18.22-9.63 18.22-9.34L18.22-8.46L18.30-8.46C18.48-9.22 18.97-9.86 19.72-9.86C20.11-9.86 20.44-9.67 20.44-9.30C20.44-9.13 20.34-9 20.20-8.95C20.04-8.87 19.84-8.87 19.63-8.87C18.61-8.87 18.27-7.85 18.27-7.00L18.27-3.22C18.27-2.82 18.02-2.67 17.79-2.67ZM20.92-2.77C20.51-2.77 20.20-3.06 20.20-3.47C20.20-3.88 20.51-4.18 20.92-4.18C21.33-4.18 21.63-3.88 21.63-3.47C21.63-3.06 21.33-2.77 20.92-2.77Z" fill="currentColor"/>
</svg>