<svg xmlns="http://www.w3.org/2000/svg" viewBox="0 0 24 24" width="24" height="24">
  <title>delete.forward.fill</title>
  <path transform="matrix(0.8050314465408805, 0, 0, 0.8050314465408805, -0.4056603773584908, 18.797169811320757)" d="M6.45 2.17L16.46 2.16C17.79 2.16 18.86 1.71 19.77 0.76L26.80-6.36C27.53-7.10 27.83-7.76 27.83-8.47C27.83-9.18 27.52-9.83 26.80-10.57L19.77-17.80C18.87-18.75 17.80-19.05 16.48-19.05L6.45-19.05C4.16-19.05 2.99-17.89 2.99-15.62L2.99-1.25C2.99 1.01 4.16 2.17 6.45 2.17ZM9.36-3.73C8.94-3.73 8.61-4.07 8.61-4.49C8.61-4.69 8.68-4.88 8.84-5.03L12.25-8.44L8.84-11.84C8.68-11.99 8.61-12.18 8.61-12.39C8.61-12.80 8.94-13.13 9.36-13.13C9.59-13.13 9.74-13.04 9.90-12.89L13.31-9.49L16.73-12.90C16.90-13.07 17.07-13.14 17.27-13.14C17.70-13.14 18.02-12.81 18.02-12.40C18.02-12.19 17.96-12.01 17.80-11.85L14.38-8.44L17.79-5.03C17.95-4.89 18.02-4.70 18.02-4.49C18.02-4.07 17.68-3.73 17.26-3.73C17.05-3.73 16.85-3.81 16.70-3.96L13.31-7.37L9.93-3.96C9.76-3.81 9.59-3.73 9.36-3.73Z" fill="currentColor"/>
</svg>