<svg xmlns="http://www.w3.org/2000/svg" viewBox="0 0 24 24" width="24" height="24">
  
  <path transform="matrix(0.9423891036259894, 0, 0, 0.9423891036259894, -0.8161236885698511, 19.967973495306463)" d="M6.45 2.16L20.75 2.16C23.04 2.16 24.21 0.98 24.21-1.27L24.21-15.64C24.21-17.89 23.04-19.07 20.75-19.07L6.45-19.07C4.16-19.07 2.99-17.91 2.99-15.64L2.99-1.27C2.99 1.00 4.16 2.16 6.45 2.16ZM13.61-6.56C12.56-6.56 11.72-7.41 11.72-8.46C11.72-9.49 12.56-10.34 13.61-10.34C14.64-10.34 15.49-9.49 15.49-8.46C15.49-7.41 14.64-6.55 13.61-6.56Z" fill="currentColor"/>
</svg>