<svg xmlns="http://www.w3.org/2000/svg" viewBox="0 0 24 24" width="24" height="24">
  
  <path transform="matrix(0.794778088290915, 0, 0, 0.794778088290915, -0.37176134462630106, 18.724567731398913)" d="M11.58-8.46C11.58-1.37 13.57 3.06 18.27 3.06L22.79 3.06C26.02 3.06 28.15-1.56 28.15-8.46C28.15-15.38 26.02-19.98 22.79-19.98L18.27-19.98C13.57-19.98 11.58-15.55 11.58-8.46ZM16.01-4.05L17.78-4.05C17.92-3.20 18.09-2.40 18.32-1.69L16.84-1.69C16.50-1.69 16.23-1.41 16.23-1.08C16.23-0.74 16.50-0.47 16.84-0.47L18.76-0.47C19.10 0.36 19.52 1.05 19.98 1.61L18.27 1.61C14.47 1.61 13.02-2.27 13.02-8.46C13.02-14.65 14.47-18.53 18.27-18.53L19.98-18.53C19.56-18.02 19.17-17.39 18.84-16.64L16.84-16.64C16.50-16.64 16.23-16.37 16.23-16.03C16.23-15.70 16.50-15.42 16.84-15.42L18.38-15.42C18.15-14.71 17.95-13.91 17.81-13.05L16.01-13.05C15.67-13.05 15.40-12.77 15.40-12.45C15.40-12.11 15.67-11.84 16.01-11.84L17.64-11.84C17.53-10.99 17.47-10.10 17.45-9.16L15.70-9.16C15.38-9.16 15.09-8.89 15.09-8.55C15.09-8.21 15.38-7.95 15.70-7.95L17.45-7.95C17.46-7.01 17.52-6.12 17.61-5.27L16.01-5.27C15.67-5.27 15.40-5.00 15.40-4.66C15.40-4.34 15.67-4.05 16.01-4.05ZM18.89-8.46C18.89-14.50 20.48-18.53 22.79-18.53C25.10-18.53 26.71-14.50 26.71-8.46C26.71-2.43 25.10 1.61 22.79 1.61C20.48 1.61 18.89-2.43 18.89-8.46ZM3.46-3.30C2.85-3.08 2.85-2.32 3.34-2.00L6.82 0.22C7.27 0.49 7.77 0.29 7.92-0.18L9.15-4.10C9.33-4.65 8.87-5.27 8.23-5.04L6.43-4.38C6.01-6.15 5.79-8.06 5.79-9.95C5.79-12.32 6.14-14.74 6.80-16.86C7.00-17.41 6.60-17.78 6.16-17.78C5.89-17.78 5.60-17.65 5.50-17.29C4.80-15.04 4.41-12.46 4.41-9.95C4.41-7.91 4.66-5.82 5.13-3.91Z" fill="currentColor"/>
</svg>