<svg xmlns="http://www.w3.org/2000/svg" viewBox="0 0 24 24" width="24" height="24">
  
  <path transform="matrix(0.6929219109487076, 0, 0, 0.6929219109487076, -0.07064555420219243, 17.858708891595615)" d="M3.66 4.71C4.02 4.71 4.32 4.43 4.32 4.08L4.32-20.99C4.32-21.34 4.02-21.62 3.66-21.62C3.30-21.62 2.99-21.34 2.99-20.99L2.99 4.08C2.99 4.43 3.30 4.71 3.66 4.71ZM20.18 4.71C20.54 4.71 20.85 4.43 20.85 4.08L20.85-20.99C20.85-21.34 20.54-21.62 20.18-21.62C19.83-21.62 19.51-21.34 19.51-20.99L19.51 4.08C19.51 4.43 19.83 4.71 20.18 4.71ZM8.67 2.39L13.08 2.39C14.51 2.39 15.33 1.56 15.33 0.09L15.33-17.00C15.33-18.47 14.51-19.30 13.08-19.30L8.67-19.30C7.23-19.30 6.41-18.47 6.41-17.00L6.41 0.09C6.41 1.56 7.23 2.39 8.67 2.39ZM25.20-1.63L29.60-1.63C31.03-1.63 31.85-2.45 31.85-3.91L31.85-13.00C31.85-14.46 31.03-15.28 29.60-15.28L25.20-15.28C23.75-15.28 22.93-14.46 22.93-13.00L22.93-3.91C22.93-2.45 23.75-1.63 25.20-1.63Z" fill="currentColor"/>
</svg>