<svg xmlns="http://www.w3.org/2000/svg" viewBox="0 0 24 24" width="24" height="24">
  <title>dollarsign.arrow.trianglehead.counterclockwise.rotate.90</title>
  <path transform="matrix(0.7763257716771778, 0, 0, 0.7763257716771778, 2.1218147135003904, 18.568443833799872)" d="M0.53-10.62C-0.15-10.62-0.35-10.15 0.05-9.60L2.60-5.95C2.93-5.50 3.39-5.50 3.70-5.95L6.26-9.60C6.64-10.15 6.45-10.62 5.78-10.62L3.84-10.62C4.83-15.25 8.93-18.70 13.85-18.70C19.51-18.70 24.08-14.12 24.08-8.46C24.08-2.80 19.51 1.77 13.85 1.77C10.29 1.77 7.16-0.05 5.36-2.80C5.09-3.16 4.65-3.28 4.28-3.06C3.93-2.85 3.82-2.33 4.11-1.93C6.21 1.22 9.77 3.29 13.85 3.29C20.34 3.29 25.61-1.97 25.61-8.46C25.61-14.95 20.34-20.21 13.85-20.21C8.10-20.21 3.32-16.09 2.30-10.62ZM13.85-2.05C14.04-2.05 14.19-2.20 14.19-2.38L14.19-3.46C15.96-3.55 17.52-4.44 17.52-6.27C17.52-7.95 16.16-8.61 14.58-8.99L14.19-9.08L14.19-12.66C15.22-12.56 16.02-12.05 16.28-11.09C16.37-10.79 16.56-10.64 16.82-10.64C17.07-10.64 17.33-10.80 17.33-11.13C17.33-12.45 15.79-13.49 14.19-13.61L14.19-14.64C14.19-14.81 14.04-14.96 13.85-14.96C13.68-14.96 13.52-14.81 13.52-14.64L13.52-13.61C11.86-13.49 10.39-12.52 10.39-10.88C10.39-9.23 11.81-8.58 13.24-8.24L13.52-8.17L13.52-4.41C12.39-4.50 11.55-5.00 11.24-6.07C11.13-6.36 10.97-6.49 10.71-6.49C10.42-6.49 10.18-6.30 10.18-5.99C10.18-5.88 10.21-5.78 10.24-5.66C10.63-4.23 12.08-3.55 13.52-3.46L13.52-2.38C13.52-2.20 13.68-2.05 13.85-2.05ZM13.46-9.25C12.46-9.48 11.47-9.91 11.47-10.96C11.47-12.02 12.49-12.55 13.52-12.66L13.52-9.23ZM14.34-7.98C15.45-7.71 16.44-7.31 16.44-6.19C16.44-4.96 15.35-4.46 14.19-4.41L14.19-8.02Z" fill="currentColor"/>
</svg>