<svg xmlns="http://www.w3.org/2000/svg" viewBox="0 0 24 24" width="24" height="24">
  <title>door.sliding.right.hand.closed</title>
  <path transform="matrix(0.7222457328255043, 0, 0, 0.7222457328255043, -0.15827338129496393, 18.115107913669064)" d="M29.95 3.74C30.35 3.74 30.68 3.42 30.68 3.02L30.68-18.71C30.68-19.88 29.87-20.67 28.66-20.67L5.00-20.67C3.80-20.67 2.99-19.88 2.99-18.71L2.99 3.02C2.99 3.42 3.30 3.74 3.71 3.74C4.13 3.74 4.44 3.42 4.44 3.02L4.44-18.60C4.44-18.97 4.69-19.22 5.04-19.22L28.63-19.22C28.98-19.22 29.23-18.97 29.23-18.60L29.23 3.02C29.23 3.42 29.54 3.74 29.95 3.74ZM27.70 3.36C27.88 3.36 28.02 3.23 28.02 3.06L28.02-17.70C28.02-17.87 27.88-18.01 27.70-18.01L17.75-18.01C17.58-18.01 17.44-17.87 17.44-17.70L17.44 3.06C17.44 3.23 17.58 3.36 17.75 3.36ZM15.91 3.36C16.09 3.36 16.23 3.23 16.23 3.06L16.23-17.70C16.23-17.87 16.09-18.01 15.91-18.01L5.96-18.01C5.79-18.01 5.65-17.87 5.65-17.70L5.65 3.06C5.65 3.23 5.79 3.36 5.96 3.36ZM25.41-5.61C25.10-5.61 24.88-5.84 24.88-6.14L24.88-8.19C24.88-8.50 25.10-8.72 25.41-8.72C25.71-8.72 25.93-8.50 25.93-8.19L25.93-6.14C25.93-5.84 25.71-5.61 25.41-5.61Z" fill="currentColor"/>
</svg>