<svg xmlns="http://www.w3.org/2000/svg" viewBox="0 0 24 24" width="24" height="24">
  <title>door.garage.open</title>
  <path transform="matrix(0.7222457328255043, 0, 0, 0.7222457328255043, -0.15827338129496393, 18.115107913669064)" d="M3.71 3.74C4.13 3.74 4.44 3.42 4.44 3.02L4.44-18.60C4.44-18.97 4.69-19.22 5.04-19.22L28.63-19.22C28.98-19.22 29.23-18.97 29.23-18.60L29.23 3.02C29.23 3.42 29.54 3.74 29.95 3.74C30.35 3.74 30.68 3.42 30.68 3.02L30.68-18.71C30.68-19.88 29.87-20.67 28.66-20.67L5.00-20.67C3.80-20.67 2.99-19.88 2.99-18.71L2.99 3.02C2.99 3.42 3.30 3.74 3.71 3.74ZM5.96-13.16L27.70-13.16C27.88-13.16 28.02-13.29 28.02-13.46L28.02-17.70C28.02-17.87 27.88-18.01 27.70-18.01L5.96-18.01C5.79-18.01 5.65-17.87 5.65-17.70L5.65-13.46C5.65-13.29 5.79-13.16 5.96-13.16ZM14.47-15.06C14.16-15.06 13.95-15.28 13.95-15.59C13.95-15.89 14.16-16.11 14.47-16.11L19.20-16.11C19.51-16.11 19.72-15.89 19.72-15.59C19.72-15.28 19.51-15.06 19.20-15.06Z" fill="currentColor"/>
</svg>