<svg xmlns="http://www.w3.org/2000/svg" viewBox="0 0 24 24" width="24" height="24">
  
  <path transform="matrix(1.1438784629133154, 0, 0, 1.1438784629133154, -1.4115281501340484, 21.73190348525469)" d="M3.39-16.52C3.39-16.13 3.71-15.80 4.11-15.80C12.33-15.80 19.02-9.12 19.02-0.89C19.02-0.50 19.35-0.18 19.75-0.18C20.13-0.18 20.46-0.50 20.46-0.89C20.46-9.91 13.13-17.25 4.11-17.25C3.71-17.25 3.39-16.92 3.39-16.52ZM3.39-11.58C3.39-11.18 3.71-10.85 4.11-10.85C9.61-10.85 14.06-6.40 14.06-0.89C14.06-0.50 14.39-0.18 14.79-0.18C15.19-0.18 15.52-0.50 15.52-0.89C15.52-7.20 10.41-12.30 4.11-12.30C3.71-12.30 3.39-11.98 3.39-11.58ZM3.39-6.93C3.39-6.53 3.71-6.20 4.11-6.20C7.03-6.20 9.41-3.81 9.41-0.89C9.41-0.50 9.74-0.18 10.14-0.18C10.54-0.18 10.86-0.50 10.86-0.89C10.86-4.62 7.82-7.65 4.11-7.65C3.71-7.65 3.39-7.32 3.39-6.93ZM4.59 0.23C5.46 0.23 6.19-0.49 6.19-1.36C6.19-2.24 5.47-2.94 4.59-2.94C3.73-2.94 2.99-2.21 2.99-1.32C2.99-0.49 3.74 0.23 4.59 0.23Z" fill="currentColor"/>
</svg>