<svg xmlns="http://www.w3.org/2000/svg" viewBox="0 0 24 24" width="24" height="24">
  <title>dot.circle.and.pointer.arrow</title>
  <path transform="matrix(0.7965052560197806, 0, 0, 0.7965052560197806, 0.6770209549284201, 18.101229296493614)" d="M13.85 3.29C15.35 3.29 16.78 3.01 18.12 2.50C17.89 2.21 17.75 1.86 17.77 1.45L17.77 1.01C16.57 1.50 15.23 1.77 13.85 1.77C8.16 1.77 3.61-2.77 3.61-8.46C3.61-14.16 8.16-18.70 13.85-18.70C19.55-18.70 24.08-14.16 24.08-8.46C24.08-7.62 23.94-6.80 23.66-6.05L24.94-4.73C25.37-5.89 25.61-7.16 25.61-8.46C25.61-14.95 20.34-20.21 13.85-20.21C7.36-20.21 2.10-14.95 2.10-8.46C2.10-1.97 7.36 3.29 13.85 3.29ZM13.85-4.91C15.80-4.91 17.40-6.50 17.40-8.46C17.40-10.41 15.80-12.01 13.85-12.01C11.89-12.01 10.29-10.41 10.29-8.46C10.29-6.50 11.91-4.91 13.85-4.91ZM24.67 4.83C25.11 4.64 25.34 4.13 25.14 3.67L23.26-0.71L25.91-0.74C26.29-0.75 26.47-1.14 26.21-1.42L19.80-8.20C19.55-8.47 19.14-8.31 19.13-7.93L19.13 1.45C19.11 1.84 19.58 1.98 19.84 1.72L21.67-0.13L23.48 4.35C23.67 4.79 24.20 5.02 24.67 4.83Z" fill="currentColor"/>
</svg>