<svg xmlns="http://www.w3.org/2000/svg" viewBox="0 0 24 24" width="24" height="24">
  
  <path transform="matrix(0.6635132113993067, 0, 0, 0.6635132113993067, 0.608177365150673, 17.800733056980263)" d="M13.85 1.98C15.60 1.98 17.29 1.59 18.77 0.87L17.81-0.35C16.59 0.16 15.26 0.46 13.85 0.46C8.18 0.46 3.62-4.11 3.62-9.77C3.62-15.45 8.17-20.00 13.84-20.02C19.66-20.02 24.22-15.28 24.05-9.45C24.48-9.52 25.09-9.49 25.58-9.38C25.79-16.00 20.46-21.53 13.85-21.53C7.41-21.53 2.10-16.22 2.10-9.77C2.10-3.34 7.42 1.98 13.85 1.98ZM13.86-6.22C15.80-6.22 17.41-7.83 17.41-9.77C17.41-11.72 15.80-13.32 13.86-13.32C11.91-13.32 10.30-11.72 10.30-9.77C10.30-7.83 11.92-6.22 13.86-6.22ZM28.20 3.63C31.89 2.29 33.11-0.63 31.63-4.72L31.07-6.28C30.53-7.79 29.45-8.44 28.62-8.14C28.43-8.07 28.37-7.93 28.43-7.75L28.72-6.96C28.83-6.67 28.72-6.47 28.55-6.40C28.36-6.33 28.15-6.42 28.04-6.71L27.84-7.27C27.53-8.16 26.73-8.53 25.96-8.25C25.59-8.11 25.49-7.92 25.61-7.62L25.99-6.56C26.10-6.27 25.99-6.06 25.82-6C25.63-5.93 25.42-6.02 25.31-6.32L24.96-7.30C24.59-8.31 23.82-8.57 23.07-8.30C22.75-8.18 22.62-7.96 22.72-7.68L23.45-5.64C23.55-5.34 23.46-5.14 23.29-5.07C23.10-5.00 22.89-5.10 22.78-5.40L20.44-11.84C20.20-12.49 19.65-12.75 19.11-12.54C18.53-12.34 18.28-11.78 18.52-11.14L21.87-1.92C21.95-1.71 21.84-1.54 21.69-1.49C21.56-1.44 21.41-1.48 21.23-1.66L18.90-4.15C18.53-4.52 18.18-4.61 17.80-4.46C17.20-4.24 17.02-3.71 17.18-3.21C17.24-3.04 17.34-2.88 17.46-2.74L20.44 1.01C22.72 3.89 25.51 4.61 28.20 3.63Z" fill="currentColor"/>
</svg>