<svg xmlns="http://www.w3.org/2000/svg" viewBox="0 0 24 24" width="24" height="24">
  
  <path transform="matrix(0.7296565483824996, 0, 0, 0.7296565483824996, -0.1804189824711413, 18.169303120991877)" d="M2.99-10.95L30.40-10.95L30.40-11.32C30.40-15.49 27.89-17.58 23.26-17.58L10.15-17.58C5.51-17.58 2.99-15.49 2.99-11.32ZM30.40-4.16L30.40-9.96L2.99-9.96L2.99-4.16C2.99-1.04 4.84 0.67 8.21 0.67L25.17 0.67C28.55 0.67 30.40-1.04 30.40-4.16ZM14.48-6.09C13.99-6.09 13.59-6.46 13.59-6.98C13.59-7.50 13.99-7.86 14.48-7.86L18.82-7.86C19.34-7.86 19.71-7.50 19.71-6.98C19.71-6.46 19.34-6.09 18.82-6.09Z" fill="currentColor"/>
</svg>