<svg xmlns="http://www.w3.org/2000/svg" viewBox="0 0 24 24" width="24" height="24">
  
  <path transform="matrix(0.7498535442296427, 0, 0, 0.7498535442296427, -0.24077328646748697, 18.353251318101933)" d="M25.68 0.09C28.05 0.09 29.13-1.88 29.55-4.14C29.61-4.36 29.66-4.63 29.66-4.82C29.66-5.19 29.47-5.53 28.97-5.53C28.64-5.53 28.36-5.30 28.29-4.97C28.08-3.29 27.55-1.34 25.68-1.34C23.14-1.34 22.68-6 22.68-8.52C22.68-11.77 23.29-15.61 25.65-15.61C27.39-15.61 28.03-13.61 28.28-11.95C28.36-11.54 28.59-11.30 29.00-11.30C29.38-11.30 29.66-11.55 29.66-12C29.66-12.20 29.63-12.45 29.58-12.67C29.20-14.88 28.07-17.04 25.65-17.04C22.05-17.04 21.13-12.19 21.13-8.52C21.13-4.89 22.03 0.09 25.68 0.09ZM3.74-0.16L8.89-0.16C9.35-0.16 9.68-0.41 9.68-0.87C9.68-1.34 9.35-1.57 8.89-1.57L4.46-1.57L4.46-8.05L8.70-8.05C9.14-8.05 9.47-8.29 9.47-8.72C9.47-9.19 9.14-9.42 8.70-9.42L4.46-9.42L4.46-15.40L8.89-15.40C9.35-15.40 9.68-15.64 9.68-16.10C9.68-16.56 9.35-16.80 8.89-16.80L3.74-16.80C3.27-16.80 2.99-16.46 2.99-15.98L2.99-0.97C2.99-0.50 3.27-0.16 3.74-0.16ZM15.89-0.04C16.44-0.04 16.69-0.43 16.69-0.95L16.69-15.34L19.59-15.34C20.07-15.34 20.40-15.60 20.40-16.08C20.40-16.56 20.07-16.80 19.59-16.80L12.15-16.80C11.67-16.80 11.34-16.56 11.34-16.08C11.34-15.60 11.67-15.34 12.15-15.34L15.07-15.34L15.07-0.95C15.07-0.40 15.35-0.04 15.89-0.04Z" fill="currentColor"/>
</svg>