<svg xmlns="http://www.w3.org/2000/svg" viewBox="0 0 24 24" width="24" height="24">
  <title>equal.circle.fill</title>
  <path transform="matrix(0.8507809903622466, 0, 0, 0.8507809903622466, 0.21535393818544368, 19.19840478564307)" d="M13.85 3.29C20.33 3.29 25.61-1.98 25.61-8.46C25.61-14.94 20.33-20.21 13.85-20.21C7.37-20.21 2.10-14.94 2.10-8.46C2.10-1.98 7.37 3.29 13.85 3.29ZM9.16-9.90C8.68-9.90 8.34-10.15 8.34-10.62C8.34-11.09 8.67-11.33 9.16-11.33L18.53-11.33C19.02-11.33 19.35-11.09 19.35-10.62C19.35-10.15 19.01-9.90 18.53-9.90ZM9.16-5.55C8.68-5.55 8.34-5.80 8.34-6.27C8.34-6.74 8.67-7.00 9.16-7.00L18.53-7.00C19.02-7.00 19.35-6.74 19.35-6.27C19.35-5.80 19.01-5.55 18.53-5.55Z" fill="currentColor"/>
</svg>