<svg xmlns="http://www.w3.org/2000/svg" viewBox="0 0 24 24" width="24" height="24">
  
  <path transform="matrix(0.7508198921684478, 0, 0, 0.7508198921684478, -0.014273869595192057, 18.412265826075725)" d="M3.88-3.01L8.55 1.65C10.13 3.22 11.99 3.27 13.48 1.78L24.79-9.54C25.73-10.48 25.72-11.84 24.76-12.81L18.34-19.21C17.38-20.18 16.02-20.19 15.08-19.24L3.77-7.93C2.27-6.45 2.33-4.58 3.88-3.01ZM16.05-18.18C16.43-18.55 16.96-18.55 17.33-18.18L23.73-11.78C24.09-11.41 24.08-10.89 23.72-10.51L14.60-1.39L6.94-9.06ZM4.91-4.04C4.00-4.95 3.96-6.07 4.84-6.96L6.02-8.14L13.68-0.48L12.49 0.70C11.63 1.58 10.50 1.55 9.59 0.63ZM14.46 2.30L20.60 2.30C21 2.30 21.33 1.97 21.33 1.57C21.33 1.17 21 0.84 20.60 0.84L15.93 0.84ZM23.63 2.30L28.59 2.30C28.99 2.30 29.32 1.97 29.32 1.57C29.32 1.17 28.99 0.84 28.59 0.84L23.63 0.84C23.23 0.84 22.90 1.17 22.90 1.57C22.90 1.97 23.23 2.30 23.63 2.30Z" fill="currentColor"/>
</svg>