<svg xmlns="http://www.w3.org/2000/svg" viewBox="0 0 24 24" width="24" height="24">
  
  <path transform="matrix(0.8507809903622466, 0, 0, 0.8507809903622466, 0.21535393818544368, 19.19840478564307)" d="M13.85 3.29C20.34 3.29 25.61-1.97 25.61-8.46C25.61-14.95 20.34-20.21 13.85-20.21C13.43-20.21 13.09-19.88 13.09-19.45C13.09-19.03 13.43-18.69 13.85-18.69C19.50-18.69 24.08-14.11 24.08-8.46C24.08-2.81 19.50 1.77 13.85 1.77C8.20 1.77 3.62-2.81 3.62-8.46C3.62-8.88 3.28-9.22 2.86-9.22C2.44-9.22 2.10-8.88 2.10-8.46C2.10-1.97 7.36 3.29 13.85 3.29ZM3.40-12.42C3.81-12.42 4.16-12.75 4.14-13.16L4.03-17.20L5.29-15.77L12.55-8.48C12.93-8.12 13.36-8.18 13.64-8.43C13.95-8.68 14.04-9.19 13.64-9.59L6.34-16.88L4.95-18.13L9-18.01C9.41-17.99 9.73-18.33 9.74-18.74C9.74-19.14 9.41-19.46 9.01-19.48L3.56-19.48C2.99-19.46 2.67-19.17 2.67-18.59L2.67-13.14C2.68-12.75 3.01-12.42 3.40-12.42Z" fill="currentColor"/>
</svg>