<svg xmlns="http://www.w3.org/2000/svg" viewBox="0 0 24 24" width="24" height="24">
  
  <path transform="matrix(0.9423891036259894, 0, 0, 0.9423891036259894, -0.8161236885698511, 19.967973495306463)" d="M6.45 2.16L20.75 2.16C23.04 2.16 24.21 0.98 24.21-1.27L24.21-15.64C24.21-17.89 23.04-19.07 20.75-19.07L6.45-19.07C4.16-19.07 2.99-17.91 2.99-15.64L2.99-1.27C2.99 1.00 4.16 2.16 6.45 2.16ZM15.08-3.30C12.38-3.30 10.41-4.66 9.88-7.13L8.43-7.13C8.24-7.13 8.09-7.29 8.09-7.46C8.09-7.65 8.24-7.80 8.43-7.80L9.77-7.80C9.75-8.03 9.74-8.27 9.74-8.51C9.74-8.75 9.75-8.99 9.77-9.21L8.43-9.21C8.24-9.21 8.09-9.36 8.09-9.55C8.09-9.74 8.24-9.89 8.43-9.89L9.88-9.89C10.43-12.43 12.52-13.72 15.08-13.72C15.46-13.72 15.84-13.70 16.13-13.64C16.48-13.56 16.66-13.39 16.66-13.11C16.66-12.80 16.44-12.63 16.13-12.63C15.90-12.63 15.55-12.68 15.11-12.68C12.95-12.68 11.55-11.66 11.10-9.89L14.92-9.89C15.11-9.89 15.26-9.74 15.26-9.55C15.26-9.36 15.11-9.21 14.92-9.21L10.97-9.21C10.93-8.99 10.93-8.74 10.93-8.50C10.93-8.26 10.93-8.03 10.97-7.80L14.92-7.80C15.11-7.80 15.26-7.65 15.26-7.46C15.26-7.29 15.11-7.13 14.92-7.13L11.10-7.13C11.57-5.34 13.00-4.31 15.13-4.31C15.63-4.31 15.81-4.37 16.13-4.37C16.44-4.37 16.66-4.22 16.66-3.90C16.66-3.60 16.43-3.46 16.13-3.39C15.81-3.32 15.40-3.30 15.08-3.30Z" fill="currentColor"/>
</svg>