<svg xmlns="http://www.w3.org/2000/svg" viewBox="0 0 24 24" width="24" height="24">
  
  <path transform="matrix(0.8507809903622466, 0, 0, 0.8507809903622466, 0.21535393818544368, 19.19840478564307)" d="M13.85 3.29C20.33 3.29 25.61-1.98 25.61-8.46C25.61-14.94 20.33-20.21 13.85-20.21C7.37-20.21 2.10-14.94 2.10-8.46C2.10-1.98 7.37 3.29 13.85 3.29ZM15.34-3.30C12.62-3.30 10.65-4.66 10.14-7.13L8.67-7.13C8.48-7.13 8.33-7.29 8.33-7.46C8.33-7.65 8.48-7.80 8.67-7.80L10.03-7.80C10.01-8.03 9.98-8.27 9.98-8.51C9.98-8.75 10.01-8.99 10.03-9.21L8.67-9.21C8.48-9.21 8.33-9.36 8.33-9.55C8.33-9.74 8.48-9.89 8.67-9.89L10.14-9.89C10.68-12.43 12.76-13.72 15.34-13.72C15.70-13.72 16.09-13.70 16.37-13.64C16.72-13.56 16.91-13.39 16.91-13.11C16.91-12.80 16.69-12.63 16.38-12.63C16.15-12.63 15.80-12.68 15.36-12.68C13.21-12.68 11.80-11.66 11.34-9.89L15.16-9.89C15.35-9.89 15.50-9.74 15.50-9.55C15.50-9.36 15.35-9.21 15.16-9.21L11.21-9.21C11.19-8.99 11.18-8.74 11.18-8.50C11.18-8.26 11.19-8.03 11.21-7.80L15.16-7.80C15.35-7.80 15.50-7.65 15.50-7.46C15.50-7.29 15.35-7.13 15.16-7.13L11.34-7.13C11.81-5.34 13.24-4.31 15.39-4.31C15.88-4.31 16.05-4.37 16.38-4.37C16.69-4.37 16.91-4.22 16.91-3.90C16.91-3.60 16.68-3.46 16.37-3.39C16.05-3.32 15.66-3.30 15.34-3.30Z" fill="currentColor"/>
</svg>