<svg xmlns="http://www.w3.org/2000/svg" viewBox="0 0 24 24" width="24" height="24">
  <title>ev.charger.slash.fill</title>
  <path transform="matrix(0.6894926438406895, 0, 0, 0.6894926438406895, 1.694980305019695, 17.343904656095344)" d="M19.65-4.24L19.65-10.46C20.75-9.82 21.28-8.85 21.28-7.70C21.28-6.18 21.08-4.38 21.04-2.86L22.15-1.75C22.14-3.50 22.41-5.73 22.41-7.70C22.41-9.50 21.55-10.92 19.65-11.73L19.65-18.36C19.65-20.26 18.61-21.30 16.71-21.30L7.59-21.30C5.95-21.30 5.00-20.54 4.79-19.10L6.42-17.47L6.42-18.28C6.42-19.07 6.93-19.56 7.75-19.56L16.56-19.56C17.38-19.56 17.89-19.07 17.89-18.28L17.89-12.05C17.89-11.26 17.38-10.79 16.56-10.79L13.10-10.79ZM25.82 5.60C26.10 5.87 26.54 5.87 26.80 5.60C27.08 5.32 27.08 4.88 26.80 4.61L1.64-20.54C1.37-20.81 0.93-20.82 0.64-20.54C0.38-20.29 0.38-19.83 0.64-19.56ZM25.11 1.22C26.33 0.80 27.04-0.40 27.04-2.14L27.04-9.29C27.04-10.36 27.79-10.66 28.35-11.13C29.03-11.65 29.45-12.30 29.45-13.23L29.45-14.84C29.45-15.09 29.30-15.26 29.09-15.26L28.31-15.26L28.31-17.34C28.31-17.61 28.09-17.85 27.80-17.85C27.53-17.85 27.29-17.61 27.29-17.34L27.30-15.26L25.71-15.26L25.72-17.34C25.72-17.61 25.50-17.85 25.23-17.85C24.94-17.85 24.71-17.61 24.71-17.34L24.71-15.26L23.86-15.26C23.64-15.26 23.48-15.09 23.48-14.84L23.48-13.23C23.48-12.30 23.92-11.65 24.59-11.13C25.16-10.66 25.90-10.36 25.90-9.29L25.90-2.14C25.90-0.71 25.27 0.16 24.16 0.28ZM3.70 4.38L20.95 4.38C21.22 4.38 21.46 4.21 21.57 4.00L4.66-12.89L4.66 2.94L3.70 2.94C3.32 2.94 2.99 3.26 2.99 3.64C2.99 4.05 3.32 4.38 3.70 4.38Z" fill="currentColor"/>
</svg>