<svg xmlns="http://www.w3.org/2000/svg" viewBox="0 0 24 24" width="24" height="24">
  
  <path transform="matrix(0.800875958079149, 0, 0, 0.800875958079149, 1.84983575786016, 18.76208352885969)" d="M2.99 0.59C2.99 2.87 4.15 4.04 6.41 4.04L18.94 4.04C21.21 4.04 22.36 2.87 22.36 0.59L22.36-17.48C22.36-19.77 21.21-20.93 18.94-20.93L6.41-20.93C4.15-20.93 2.99-19.77 2.99-17.48ZM4.44 0.55L4.44-17.45C4.44-18.77 5.13-19.49 6.49-19.49L18.87-19.49C20.21-19.49 20.92-18.77 20.92-17.45L20.92 0.55C20.92 1.88 20.21 2.59 18.87 2.59L6.49 2.59C5.13 2.59 4.44 1.88 4.44 0.55ZM9.49-9.02L15.90-9.02C16.50-9.02 16.89-9.47 16.89-10.00C16.89-10.16 16.83-10.32 16.75-10.48L13.55-16.20C13.35-16.51 13.03-16.70 12.70-16.70C12.38-16.70 12.04-16.51 11.86-16.20L8.64-10.48C8.55-10.32 8.52-10.16 8.52-10.00C8.52-9.47 8.91-9.02 9.49-9.02ZM12.69-11.86C12.47-11.86 12.30-12.02 12.30-12.26L12.26-14.46C12.25-14.74 12.42-14.93 12.69-14.93C12.96-14.93 13.15-14.74 13.15-14.46L13.10-12.26C13.10-12.02 12.91-11.86 12.69-11.86ZM12.69-10.17C12.38-10.17 12.12-10.43 12.12-10.76C12.12-11.07 12.39-11.32 12.69-11.32C13.02-11.32 13.29-11.06 13.29-10.76C13.28-10.43 13.01-10.17 12.69-10.17ZM8.02-4.92L17.38-4.92C17.71-4.92 17.96-5.18 17.96-5.51C17.96-5.82 17.71-6.07 17.38-6.07L8.02-6.07C7.68-6.07 7.42-5.82 7.42-5.51C7.42-5.18 7.68-4.92 8.02-4.92ZM8.02-1.34L12.52-1.34C12.84-1.34 13.10-1.58 13.10-1.90C13.10-2.23 12.84-2.48 12.52-2.48L8.02-2.48C7.68-2.48 7.42-2.23 7.42-1.90C7.42-1.58 7.68-1.34 8.02-1.34Z" fill="currentColor"/>
</svg>