<svg xmlns="http://www.w3.org/2000/svg" viewBox="0 0 24 24" width="24" height="24">
  
  <path transform="matrix(0.6951799049558723, 0, 0, 0.6951799049558723, 0.5417515274949085, 18.45213849287169)" d="M24.79 0.59C28.20 0.59 30.87-1.85 30.87-4.93C30.87-7.32 29.52-9.42 27.21-10.29C27.29-15.41 23.65-19.15 19.00-19.15C15.80-19.15 13.59-17.41 12.29-15.30C9.48-16.28 6.36-14.09 6.35-10.86C3.76-10.55 2.10-8.30 2.10-5.50C2.10-2.14 4.99 0.57 8.85 0.57ZM24.77-0.86L8.85-0.87C5.81-0.87 3.55-2.96 3.55-5.50C3.55-7.86 4.97-9.73 7.45-9.73C7.61-9.73 7.66-9.81 7.66-9.95C7.66-13.39 10.28-14.71 12.74-13.82C12.87-13.77 12.95-13.80 13.01-13.92C14.17-15.96 15.93-17.70 19.00-17.70C22.83-17.70 25.57-14.67 25.80-11.03C25.84-10.54 25.79-9.97 25.77-9.47C25.76-9.33 25.82-9.25 25.95-9.21C28.07-8.71 29.41-7.07 29.41-4.93C29.41-2.65 27.39-0.86 24.77-0.86ZM16.49-7.08C16.93-7.08 17.19-7.35 17.20-7.84L17.34-12.55C17.36-13.08 16.98-13.43 16.48-13.43C15.97-13.43 15.61-13.08 15.63-12.56L15.76-7.84C15.77-7.36 16.03-7.08 16.49-7.08ZM16.48-3.59C17.07-3.59 17.57-4.07 17.57-4.64C17.57-5.24 17.07-5.71 16.48-5.71C15.88-5.71 15.39-5.23 15.39-4.64C15.39-4.07 15.89-3.59 16.48-3.59Z" fill="currentColor"/>
</svg>