<svg xmlns="http://www.w3.org/2000/svg" viewBox="0 0 24 24" width="24" height="24">
  <title>eyedropper.full</title>
  <path transform="matrix(0.8291484674498781, 0, 0, 0.8291484674498781, -0.23481422867349977, 18.777869595297737)" d="M20.87-8.16L21.16-8.46C21.69-9.05 21.73-9.71 21.14-10.29L20.79-10.65C22.54-12.22 24.53-12.48 25.73-13.70C27.45-15.42 26.89-17.84 25.69-19.04C24.49-20.25 22.10-20.77 20.36-19.09C19.11-17.89 18.87-15.89 17.30-14.13L16.95-14.50C16.36-15.07 15.69-15.04 15.12-14.51L14.81-14.23C14.11-13.58 14.25-12.97 14.84-12.39L15.39-11.85L6.54-3C3 0.54 4.63 0.08 2.70 2.80L3.63 3.81C6.27 1.89 5.99 3.69 9.59 0.11L18.49-8.74L19.04-8.19C19.63-7.61 20.24-7.45 20.87-8.16ZM15.30-8.61C14.78-9.18 14.88-9.69 15.42-10.24L16.20-11.03L17.70-9.53L16.88-8.72C16.39-8.25 15.80-8.07 15.30-8.61Z" fill="currentColor"/>
</svg>