<svg xmlns="http://www.w3.org/2000/svg" viewBox="0 0 24 24" width="24" height="24">
  
  <path transform="matrix(0.9423891036259894, 0, 0, 0.9423891036259894, -0.8161236885698511, 19.967973495306463)" d="M6.45 2.16L20.75 2.16C23.04 2.16 24.21 0.98 24.21-1.27L24.21-15.64C24.21-17.89 23.04-19.07 20.75-19.07L6.45-19.07C4.16-19.07 2.99-17.91 2.99-15.64L2.99-1.27C2.99 1.00 4.16 2.16 6.45 2.16ZM10.96-3.02C10.49-3.02 10.22-3.36 10.22-3.86L10.22-13.08C10.22-13.58 10.48-13.92 10.95-13.92L16.69-13.92C17.07-13.92 17.32-13.69 17.32-13.29C17.32-12.93 17.07-12.67 16.69-12.67L11.72-12.67L11.72-9.09L16.24-9.09C16.62-9.09 16.88-8.87 16.88-8.48C16.88-8.11 16.62-7.90 16.24-7.90L11.72-7.90L11.72-3.86C11.72-3.35 11.45-3.02 10.96-3.02Z" fill="currentColor"/>
</svg>