<svg xmlns="http://www.w3.org/2000/svg" viewBox="0 0 24 24" width="24" height="24">
  
  <path transform="matrix(0.7125956854558108, 0, 0, 0.7125956854558108, 1.148225469728601, 17.96659707724426)" d="M15.22-13.86C16.28-13.86 16.99-13.59 17.93-13.16L24.02-10.35L22.99-17.74C22.82-19.05 22.01-19.90 20.72-19.90L19.96-19.90L19.96-20.71C19.96-21.77 19.34-22.41 18.27-22.41L12.20-22.41C11.13-22.41 10.51-21.77 10.51-20.71L10.51-19.90L9.76-19.90C8.47-19.90 7.69-19.05 7.48-17.59L6.47-10.37L12.52-13.16C13.45-13.59 14.18-13.86 15.22-13.86ZM10.13-15.06C9.88-15.06 9.70-15.23 9.70-15.49L9.70-17.45C9.70-17.71 9.88-17.88 10.13-17.88L13.84-17.88C14.13-17.88 14.33-17.71 14.33-17.45L14.33-15.49C14.33-15.23 14.13-15.06 13.84-15.06ZM16.56-15.06C16.30-15.06 16.14-15.23 16.14-15.49L16.14-17.45C16.14-17.71 16.30-17.88 16.56-17.88L20.26-17.88C20.57-17.88 20.77-17.71 20.77-17.45L20.77-15.49C20.77-15.23 20.57-15.06 20.26-15.06ZM15.22 3.15C15.90 3.15 16.27 2.92 17.11 2.27C17.87 1.70 19.11 0.77 20.79 0.77C21.77 0.77 22.59 1.05 23.46 1.57L26.74-4.48C27.68-6.19 27.26-7.37 25.62-8.12L17.37-11.92C16.83-12.16 16.15-12.50 15.22-12.50C14.31-12.50 13.63-12.16 13.09-11.92L4.84-8.12C3.20-7.37 2.78-6.19 3.71-4.48L7.00 1.57C7.86 1.05 8.68 0.77 9.67 0.77C11.34 0.77 12.59 1.70 13.35 2.27C14.19 2.92 14.55 3.15 15.22 3.15ZM15.22 5.66C18.29 5.66 18.79 3.28 20.79 3.28C22.85 3.28 23.16 5.66 26.66 5.66L26.72 5.66C27.07 5.66 27.36 5.37 27.36 5.02C27.36 4.65 27.07 4.36 26.72 4.36L26.66 4.36C25.34 4.36 24.59 3.81 23.70 3.19C22.93 2.63 22.04 1.98 20.79 1.98C19.51 1.98 18.60 2.67 17.84 3.23C17.03 3.86 16.34 4.36 15.22 4.36C14.12 4.36 13.43 3.86 12.62 3.23C11.86 2.67 10.95 1.98 9.67 1.98C8.41 1.98 7.52 2.63 6.75 3.19C5.87 3.81 5.12 4.36 3.80 4.36L3.74 4.36C3.39 4.36 3.09 4.65 3.09 5.02C3.09 5.37 3.39 5.66 3.74 5.66L3.80 5.66C7.30 5.66 7.61 3.28 9.67 3.28C11.67 3.28 12.16 5.66 15.22 5.66Z" fill="currentColor"/>
</svg>