<svg xmlns="http://www.w3.org/2000/svg" viewBox="0 0 24 24" width="24" height="24">
  
  <path transform="matrix(0.8507809903622466, 0, 0, 0.8507809903622466, 0.21535393818544368, 19.19840478564307)" d="M13.85 3.29C20.34 3.29 25.61-1.97 25.61-8.46C25.61-14.95 20.34-20.21 13.85-20.21C7.36-20.21 2.10-14.95 2.10-8.46C2.10-1.97 7.36 3.29 13.85 3.29ZM13.85 1.77C8.19 1.77 3.62-2.80 3.62-8.46C3.62-14.12 8.19-18.70 13.85-18.70C19.51-18.70 24.09-14.12 24.09-8.46C24.09-2.80 19.51 1.77 13.85 1.77ZM14.40-13.13C15.19-13.13 15.81-13.75 15.81-14.52C15.81-15.29 15.19-15.91 14.40-15.91C13.64-15.91 13.01-15.29 13.01-14.52C13.01-13.75 13.64-13.13 14.40-13.13ZM9.39-2.55C9.04-2.20 9.11-1.78 9.36-1.55C9.60-1.34 10.00-1.29 10.32-1.62L12.80-4.09C12.83-4.14 12.86-4.15 12.89-4.24L14.13-6.56C14.30-6.86 14.74-6.90 15.04-6.68L17.82-4.55L17.82-1.72C17.82-1.27 18.09-1.01 18.49-1.01C18.90-1.01 19.16-1.27 19.16-1.72L19.16-4.89C19.16-5.07 19.10-5.24 18.91-5.40L15.81-8.06L15.81-10.96C15.81-11.12 15.91-11.25 16.11-11.29L20.67-11.98C21.02-12.04 21.27-12.38 21.22-12.74C21.16-13.11 20.82-13.36 20.46-13.30L10.80-11.85L10.80-13.41C11.18-13.57 11.53-13.82 11.79-14.12C11.93-14.29 11.93-14.50 11.79-14.67C11.27-15.26 10.41-15.62 9.64-15.62C8.88-15.62 8.02-15.26 7.50-14.67C7.36-14.50 7.36-14.29 7.50-14.12C7.98-13.56 8.77-13.21 9.48-13.16L9.48-11.05C9.48-10.63 9.82-10.35 10.24-10.41L12.46-10.73C12.66-10.77 12.81-10.65 12.81-10.44L12.81-7.82L11.74-4.92Z" fill="currentColor"/>
</svg>