<svg xmlns="http://www.w3.org/2000/svg" viewBox="0 0 24 24" width="24" height="24">
  
  <path transform="matrix(0.8507809903622466, 0, 0, 0.8507809903622466, 0.21535393818544368, 19.19840478564307)" d="M13.85 3.29C20.33 3.29 25.61-1.98 25.61-8.46C25.61-14.94 20.33-20.21 13.85-20.21C7.37-20.21 2.10-14.94 2.10-8.46C2.10-1.98 7.37 3.29 13.85 3.29ZM10.79-12.74C10.00-12.74 9.35-13.38 9.35-14.18C9.35-14.96 10.00-15.62 10.79-15.62C11.59-15.62 12.23-14.96 12.23-14.18C12.23-13.38 11.59-12.74 10.79-12.74ZM20.25-3.66C20.57-3.49 20.70-3.07 20.53-2.74C20.39-2.45 20.02-2.27 19.62-2.47L15.61-4.62L13.29-5.94L9.45-6.22L9.45-3.07C9.45-2.71 9.14-2.39 8.77-2.39C8.40-2.39 8.10-2.71 8.10-3.07L8.10-6.76L6.84-8.96C6.70-9.23 6.71-9.56 6.95-9.77L8.73-11.57C9.05-11.87 9.38-11.99 9.86-11.99L11.43-11.99C12.14-11.99 12.79-11.51 12.97-10.80L13.46-8.80C13.54-8.52 13.43-8.21 13.17-8.06C13.32-7.89 13.49-7.72 13.69-7.58L16.21-5.85ZM8.26-9.18L9.16-7.62L9.62-7.62L10.34-8.02L9.42-10.35Z" fill="currentColor"/>
</svg>