<svg xmlns="http://www.w3.org/2000/svg" viewBox="0 0 24 24" width="24" height="24">
  
  <path transform="matrix(0.8507809903622466, 0, 0, 0.8507809903622466, 0.21535393818544368, 19.19840478564307)" d="M13.85 3.29C20.33 3.29 25.61-1.98 25.61-8.46C25.61-14.94 20.33-20.21 13.85-20.21C7.37-20.21 2.10-14.94 2.10-8.46C2.10-1.98 7.37 3.29 13.85 3.29ZM17.88-11.86C17.07-11.86 16.43-12.50 16.43-13.30C16.43-14.10 17.07-14.74 17.88-14.74C18.67-14.74 19.32-14.10 19.32-13.30C19.32-12.50 18.67-11.86 17.88-11.86ZM13.31-2.99C12.91-2.99 12.61-3.30 12.61-3.69L12.61-6.52L9.76-8.84C8.64-9.75 8.87-11.51 10.29-11.86L13.89-12.76C14.66-12.96 15.47-12.71 15.98-12.12L17.66-10.17L20.51-10.17C20.89-10.17 21.20-9.88 21.20-9.48C21.20-9.09 20.89-8.78 20.51-8.78L17.34-8.78C17.14-8.78 16.96-8.87 16.82-9.02L15.76-10.23L15.76-8.89L17.66-7.00C17.94-6.73 17.94-6.27 17.66-6C17.39-5.73 16.93-5.73 16.66-6L14.57-8.11C14.43-8.24 14.37-8.43 14.37-8.59L14.37-9.93C14.37-10.04 14.25-10.13 14.13-10.10L11.66-9.48L13.70-7.43C13.86-7.25 14.02-7.05 14.02-6.77L14.02-3.69C14.02-3.30 13.70-2.99 13.31-2.99ZM7.20-3.19C6.91-3.47 6.91-3.91 7.20-4.20L9.46-6.43L9.46-8.40L11.03-7.11L10.84-6.11C10.80-5.89 10.77-5.78 10.64-5.65L8.19-3.19C7.92-2.92 7.46-2.92 7.20-3.19Z" fill="currentColor"/>
</svg>