<svg xmlns="http://www.w3.org/2000/svg" viewBox="0 0 24 24" width="24" height="24">
  <title>figure.2</title>
  <path transform="matrix(0.6123669417533788, 0, 0, 0.6123669417533788, 0.1700753498385359, 17.177610333692144)" d="M12.89-16.10C14.26-16.10 15.36-17.20 15.36-18.57C15.36-19.95 14.26-21.05 12.89-21.05C11.52-21.05 10.42-19.95 10.42-18.57C10.42-17.20 11.52-16.10 12.89-16.10ZM25.75-16.10C27.12-16.10 28.22-17.20 28.22-18.57C28.22-19.95 27.12-21.05 25.75-21.05C24.38-21.05 23.27-19.95 23.27-18.57C23.27-17.20 24.38-16.10 25.75-16.10ZM12.88-5.36C13.37-5.36 13.59-5.03 13.84-4.20C14.18-3.06 15.40 1.73 15.75 3.15C15.93 3.84 16.29 4.14 16.82 4.14C17.53 4.14 17.95 3.49 17.77 2.78C17.70 2.48 16.01-4.45 15.80-5.88C15.60-7.34 15.55-10.54 15.57-11.46C15.60-12.26 15.93-12.66 16.65-12.76C17.34-12.86 18.38-12.91 19.32-12.90C20.30-12.90 21.29-12.86 22.00-12.76C22.72-12.66 23.06-12.26 23.07-11.46C23.10-10.54 23.04-7.34 22.83-5.88C22.62-4.45 20.94 2.48 20.85 2.78C20.66 3.49 21.11 4.14 21.81 4.14C22.34 4.14 22.70 3.84 22.89 3.15C23.27 1.75 24.46-3.04 24.81-4.20C25.07-5.02 25.27-5.36 25.75-5.36C26.24-5.36 26.46-5.03 26.71-4.20C27.05-3.06 28.27 1.73 28.62 3.15C28.79 3.84 29.17 4.14 29.68 4.14C30.40 4.14 30.83 3.49 30.64 2.78C30.56 2.48 28.88-4.45 28.66-5.88C28.46-7.34 28.44-10.54 28.44-11.51C28.45-12.23 28.76-12.66 29.34-12.77C29.88-12.90 34.23-13.39 34.82-13.56C35.32-13.69 35.65-14.10 35.65-14.61C35.65-15.26 35.18-15.64 34.70-15.64C34.49-15.64 34.29-15.61 34.04-15.55C32.34-15.23 28.48-14.92 25.75-14.84C23.30-14.78 20.87-14.73 19.36-14.73C17.82-14.73 15.36-14.78 12.88-14.84C10.17-14.91 6.28-15.22 4.58-15.55C4.35-15.61 4.14-15.64 3.94-15.64C3.43-15.64 2.99-15.26 2.99-14.61C2.99-14.10 3.30-13.66 3.81-13.56C4.42-13.44 8.75-12.88 9.29-12.77C9.87-12.67 10.18-12.23 10.21-11.51C10.23-10.54 10.17-7.34 9.95-5.88C9.74-4.45 8.06 2.48 7.98 2.78C7.79 3.49 8.23 4.14 8.94 4.14C9.47 4.14 9.83 3.84 10.02 3.15C10.39 1.75 11.59-3.04 11.94-4.20C12.20-5.02 12.40-5.36 12.88-5.36Z" fill="currentColor"/>
</svg>