<svg xmlns="http://www.w3.org/2000/svg" viewBox="0 0 24 24" width="24" height="24">
  
  <path transform="matrix(0.7137878154189321, 0, 0, 0.7137878154189321, 2.771252537464428, 18.04349644500209)" d="M12.88-17.50C14.25-17.50 15.38-18.62 15.38-19.98C15.38-21.35 14.25-22.48 12.88-22.48C11.51-22.48 10.39-21.35 10.39-19.98C10.39-18.62 11.51-17.50 12.88-17.50ZM3.91-8.73C4.50-8.63 5.13-8.92 5.30-9.61L6.26-13.93L7.98-13.93C8.20-13.93 8.36-13.76 8.30-13.54L7.15-9.11C6.67-7.30 7.85-5.52 10.13-6.09L14.31-7.13L13.50-3.11C13.37-2.47 13.78-1.85 14.40-1.72C14.94-1.61 15.63-1.96 15.77-2.64L16.93-8.46C17.11-9.29 16.39-9.94 15.69-9.87L11.96-9.50L13.07-13.65C13.11-13.82 13.30-13.93 13.46-13.86L17.73-12.26C18.50-11.95 19.29-12.40 19.29-13.21L19.29-18.60C19.29-19.23 18.79-19.76 18.12-19.76C17.48-19.76 16.96-19.23 16.96-18.60L16.96-15.04L14.78-15.88C14.06-16.15 13.30-16.27 12.52-16.27L5.31-16.27C4.77-16.27 4.30-15.89 4.18-15.36L3.01-10.13C2.87-9.48 3.27-8.84 3.91-8.73ZM9.16 5.27C9.70 5.38 10.41 5.03 10.54 4.36L11.70-1.46C11.72-1.56 11.72-1.69 11.72-1.79L11.72-5.40L10.37-5.06C9.87-4.95 9.39-4.90 8.94-4.95L9.39-1.75L8.25 3.88C8.13 4.51 8.53 5.14 9.16 5.27ZM13.61 2.98L21.19 2.98C21.48 2.98 21.71 2.74 21.71 2.45C21.71 2.14 21.48 1.91 21.19 1.91L13.61 1.91C13.31 1.91 13.08 2.14 13.08 2.45C13.08 2.74 13.31 2.98 13.61 2.98ZM12.45 5.54L22.34 5.54C22.64 5.54 22.88 5.31 22.88 5.00C22.88 4.71 22.64 4.48 22.34 4.48L12.45 4.48C12.15 4.48 11.91 4.71 11.91 5.00C11.91 5.31 12.15 5.54 12.45 5.54Z" fill="currentColor"/>
</svg>