<svg xmlns="http://www.w3.org/2000/svg" viewBox="0 0 24 24" width="24" height="24">
  
  <path transform="matrix(0.8507809903622466, 0, 0, 0.8507809903622466, 0.21535393818544368, 19.19840478564307)" d="M13.85 3.29C20.33 3.29 25.61-1.98 25.61-8.46C25.61-14.94 20.33-20.21 13.85-20.21C7.37-20.21 2.10-14.94 2.10-8.46C2.10-1.98 7.37 3.29 13.85 3.29ZM17.04-10.31C17.18-10.72 17.48-11.02 17.86-11.12L17.86-16.20C17.86-16.38 18.02-16.55 18.20-16.55C18.39-16.55 18.55-16.38 18.55-16.20L18.55-11.12C18.93-11.02 19.22-10.72 19.36-10.31C19.42-10.14 19.36-9.96 19.14-9.96L17.27-9.96C17.04-9.96 16.98-10.14 17.04-10.31ZM13.75-13.45C12.94-13.45 12.29-14.11 12.29-14.91C12.29-15.69 12.94-16.35 13.75-16.35C14.54-16.35 15.18-15.69 15.18-14.91C15.18-14.11 14.54-13.45 13.75-13.45ZM8.46-11.27L8.46-14.85C8.46-15.20 8.75-15.50 9.13-15.50C9.49-15.50 9.80-15.20 9.80-14.85L9.80-12.38L10.80-12.81C11.55-13.13 12.18-13.10 13.10-12.83L13.48-12.74C14.32-12.49 14.70-12.16 14.95-11.59L15.90-9.35L18.28-9.35C18.66-9.35 18.95-9.06 18.95-8.67C18.95-8.31 18.66-8.00 18.28-8.00L15.46-8.00C15.19-8.00 14.95-8.18 14.85-8.43L14.24-9.88C14.20-9.94 14.10-9.94 14.09-9.87L13.84-7.78L16.58-5.17C16.73-5.03 16.79-4.83 16.79-4.63L16.79-1.36C16.79-0.98 16.50-0.68 16.13-0.68C15.75-0.68 15.46-0.98 15.46-1.36L15.46-4.35L12.81-6.27C12.76-6.30 12.71-6.28 12.69-6.25L11.71-4.03L10.04-1.02C9.86-0.68 9.42-0.61 9.14-0.76C8.81-0.93 8.70-1.36 8.88-1.68L10.49-4.56L11.43-11.45C11.45-11.54 11.36-11.59 11.29-11.57L9.40-10.73C8.96-10.55 8.46-10.80 8.46-11.27Z" fill="currentColor"/>
</svg>