<svg xmlns="http://www.w3.org/2000/svg" viewBox="0 0 24 24" width="24" height="24">
  <title>figure.cooldown</title>
  <path transform="matrix(0.7249841904459335, 0, 0, 0.7249841904459335, 2.6035252191421585, 18.18470565780668)" d="M13.99-1.78L17.52-6.63L19.76-2.55C20.51 0.95 20.59 3.63 20.59 4.04C20.59 4.73 21.13 5.26 21.76 5.26C22.42 5.26 22.93 4.73 22.93 4.07C22.93 3.95 22.80 0.91 22.03-3.20L22.00-3.41C21.12-8.12 18.04-16.83 10.29-21.97C9.90-22.21 9.56-22.32 9.16-22.32L4.16-22.32C3.52-22.32 2.99-21.80 2.99-21.15C2.99-20.48 3.52-19.97 4.16-19.97L9.08-19.97C10.29-19.13 11.36-18.21 12.33-17.23C12.46-17.10 12.47-16.90 12.39-16.75L8.44-10.01C7.96-9.16 8.54-8.25 9.46-8.25L14.84-8.25L12-3.05L11.89-2.84L8.41 3.53C8.10 4.09 8.30 4.82 8.87 5.12C9.41 5.40 10.13 5.27 10.48 4.65ZM7.70-13.76C9.06-13.76 10.16-14.86 10.16-16.24C10.16-17.60 9.06-18.70 7.70-18.70C6.32-18.70 5.21-17.60 5.21-16.24C5.21-14.86 6.32-13.76 7.70-13.76ZM11.48-10.58L12.35-12.07C12.49-12.33 12.76-12.28 12.89-12.11L13.91-10.58Z" fill="currentColor"/>
</svg>