<svg xmlns="http://www.w3.org/2000/svg" viewBox="0 0 24 24" width="24" height="24">
  
  <path transform="matrix(0.7003014341105349, 0, 0, 0.7003014341105349, 1.5406151042123826, 19.954667441319643)" d="M15.06-24.81C15.06-25.61 14.23-25.89 13.66-25.39L10.24-22.45C9.81-22.08 9.82-21.55 10.24-21.19L13.66-18.25C14.25-17.73 15.06-18.06 15.06-18.84L15.06-21.08L16.08-21.08C17.13-21.08 17.63-20.81 18.32-19.90L21.61-15.61C22.54-14.40 23.58-13.95 25.22-13.95L26.12-13.95C26.54-13.95 26.88-14.29 26.88-14.71C26.88-15.13 26.54-15.47 26.12-15.47L25.22-15.47C23.96-15.47 23.41-15.71 22.79-16.55L19.54-20.85C18.59-22.09 17.59-22.61 16.08-22.61L15.06-22.61ZM6.08-13.84C7.80-13.84 9.18-15.18 9.18-16.92C9.18-18.64 7.80-20.04 6.08-20.04C4.37-20.04 2.99-18.64 2.99-16.92C2.99-15.27 4.37-13.84 6.08-13.84ZM24.50 2.50C25.04 1.95 25.11 1.03 24.40 0.29L19.29-4.99C18.21-6.11 17.09-6.27 15.74-5.78L13.01-4.78L9.80-10.63C8.82-12.42 7.15-13.09 5.54-12.20C3.87-11.32 3.55-9.50 4.52-7.75L6.90-3.41C8.04-1.36 10.31-0.46 12.77-1.39L16.71-2.88C16.96-2.99 17.09-2.94 17.25-2.77L22.17 2.31C22.90 3.06 23.92 3.12 24.50 2.50Z" fill="currentColor"/>
</svg>