<svg xmlns="http://www.w3.org/2000/svg" viewBox="0 0 24 24" width="24" height="24">
  <title>figure.fishing.circle.fill</title>
  <path transform="matrix(0.8507809903622466, 0, 0, 0.8507809903622466, 0.21535393818544368, 19.19840478564307)" d="M13.85 3.29C20.33 3.29 25.61-1.98 25.61-8.46C25.61-14.94 20.33-20.21 13.85-20.21C7.37-20.21 2.10-14.94 2.10-8.46C2.10-1.98 7.37 3.29 13.85 3.29ZM9.26-12.50C8.46-12.50 7.80-13.14 7.80-13.95C7.80-14.74 8.46-15.38 9.26-15.38C10.04-15.38 10.69-14.74 10.69-13.95C10.69-13.14 10.04-12.50 9.26-12.50ZM5.74-8.74C5.51-8.99 5.50-9.42 5.74-9.67L7.25-11.16C7.79-11.68 8.40-11.77 8.95-11.77L9.26-11.77C10.17-11.77 10.68-11.16 10.68-10.42L10.68-9.05L19.07-14.19C19.23-14.30 19.43-14.26 19.54-14.09C19.63-13.93 19.59-13.71 19.43-13.62L10.68-8.25L10.68-6.43L11.41-4.50C11.12-4.54 10.79-4.57 10.41-4.57C10.23-4.57 10.07-4.56 9.90-4.55L9.41-5.51C9.39-5.57 9.29-5.55 9.29-5.48L9.18-4.44C8.52-4.30 8.13-4.07 7.79-3.84L7.79-6.48L6.55-5.72C6.39-5.61 6.20-5.67 6.09-5.84C6-6 6.04-6.20 6.20-6.29L7.45-7.08ZM7.11-9.21L7.79-8.51L7.79-9.61C7.79-9.73 7.69-9.76 7.59-9.69ZM6.54-2.19C6.54-2.37 6.68-2.53 6.89-2.53L6.93-2.53C8.24-2.53 8.70-3.66 10.41-3.66C12.13-3.66 12.57-2.53 13.89-2.53C15.20-2.53 15.67-3.66 17.38-3.66C19.09-3.66 19.55-2.53 20.87-2.53L20.89-2.53C21.09-2.53 21.25-2.37 21.25-2.19C21.25-2.00 21.08-1.84 20.89-1.84L20.87-1.84C19.08-1.84 18.64-2.95 17.38-2.95C16.13-2.95 15.69-1.84 13.89-1.84C12.11-1.84 11.67-2.95 10.41-2.95C9.15-2.95 8.71-1.84 6.93-1.84L6.89-1.84C6.69-1.84 6.54-2.00 6.54-2.19Z" fill="currentColor"/>
</svg>