<svg xmlns="http://www.w3.org/2000/svg" viewBox="0 0 24 24" width="24" height="24">
  <title>figure.walk.arrival</title>
  <path transform="matrix(0.7654172097127877, 0, 0, 0.7654172097127877, 0.930105701883507, 18.656794044179453)" d="M2.99 3.54C2.99 3.97 3.34 4.34 3.79 4.34C4.23 4.34 4.58 3.97 4.58 3.54L4.58-20.96C4.58-21.40 4.23-21.76 3.79-21.76C3.34-21.76 2.99-21.40 2.99-20.96ZM17.89-16.70C19.30-16.70 20.43-17.82 20.43-19.23C20.43-20.63 19.30-21.76 17.89-21.76C16.49-21.76 15.36-20.63 15.36-19.23C15.36-17.82 16.49-16.70 17.89-16.70ZM15.14 3.61L17.65-1.48C17.75-1.68 17.78-1.79 18.02-2.11L20.45-5.16C21.36-6.29 21.68-6.93 21.57-8.25L21.38-10.88C21.35-11.24 21.81-11.41 22.13-11.12L23.02-10.32L23.29-7.21C23.36-6.46 23.74-6.07 24.40-6.12C25.05-6.14 25.44-6.63 25.38-7.34L25.17-10.18C25.11-10.96 24.90-11.43 24.32-12.01L22.49-13.82C21.32-14.95 20.47-15.60 19.22-15.60C17.55-15.60 16.57-14.38 16.69-12.71L16.93-9.25C17.02-8.03 17.18-7.28 17.60-6.04L17.71-5.70L16.15-3.48C15.91-3.15 15.64-2.75 15.47-2.39L13.02 2.57C12.22 4.17 14.40 5.09 15.14 3.61ZM10.98-10.90C10.28-10.90 9.80-10.49 9.80-9.86C9.80-9.19 10.28-8.79 10.98-8.79L13.57-8.79C14.27-8.79 14.60-8.91 14.99-9.29L15.82-10.11L15.63-12.97L13.76-10.90ZM23.95 3.96C24.88 5.05 26.71 3.75 25.58 2.43L22.01-1.79L21.39-4.65L19.49-2.27L19.80-1.29C19.95-0.86 19.99-0.75 20.34-0.34Z" fill="currentColor"/>
</svg>