<svg xmlns="http://www.w3.org/2000/svg" viewBox="0 0 24 24" width="24" height="24">
  <title>figure.walk.suitcase.rolling.circle</title>
  <path transform="matrix(0.8507809903622466, 0, 0, 0.8507809903622466, 0.21535393818544368, 19.19840478564307)" d="M13.85 3.29C20.34 3.29 25.61-1.97 25.61-8.46C25.61-14.95 20.34-20.21 13.85-20.21C7.36-20.21 2.10-14.95 2.10-8.46C2.10-1.97 7.36 3.29 13.85 3.29ZM13.85 1.77C8.19 1.77 3.62-2.80 3.62-8.46C3.62-14.12 8.19-18.70 13.85-18.70C19.51-18.70 24.09-14.12 24.09-8.46C24.09-2.80 19.51 1.77 13.85 1.77ZM16.24-13.43C17.04-13.43 17.68-14.06 17.68-14.86C17.68-15.66 17.04-16.29 16.24-16.29C15.45-16.29 14.80-15.66 14.80-14.86C14.80-14.06 15.45-13.43 16.24-13.43ZM9.18-5.98L7.36-3.36C7.13-3.05 7.20-2.70 7.50-2.47L8.93-1.49C9.25-1.25 9.59-1.31 9.82-1.63L11.64-4.23C11.87-4.57 11.80-4.90 11.48-5.13L11.12-5.39L12.55-7.43L12.56-7.43C12.94-7.39 13.15-7.62 13.18-8.04L13.34-9.81L13.85-10.27C14.03-10.43 14.29-10.32 14.27-10.11L14.16-8.63C14.10-7.89 14.27-7.52 14.79-6.87L16.17-5.16C16.31-4.97 16.32-4.91 16.38-4.79L17.81-1.91C18.22-1.07 19.46-1.58 19.01-2.50L17.63-5.31C17.52-5.51 17.38-5.74 17.24-5.92L16.35-7.18L16.41-7.37C16.65-8.07 16.75-8.51 16.79-9.20L16.92-11.16C16.99-12.11 16.43-12.80 15.49-12.80C14.79-12.80 14.31-12.43 13.64-11.79L12.60-10.76C12.27-10.43 12.15-10.16 12.12-9.73L12-8.11C12-8.04 12-7.96 12.01-7.90L10.54-5.79L10.05-6.12C9.74-6.35 9.39-6.29 9.18-5.98ZM20.17-10.13L18.60-10.13L17.55-11.27L17.45-9.67L17.89-9.22C18.12-9 18.30-8.94 18.70-8.94L20.17-8.94C20.57-8.94 20.84-9.16 20.84-9.54C20.84-9.89 20.57-10.13 20.17-10.13ZM12.81-1.71L14.86-4.15C15.05-4.38 15.08-4.43 15.16-4.69L15.33-5.20L14.25-6.56L13.91-4.97L11.89-2.58C11.25-1.83 12.28-1.09 12.81-1.71Z" fill="currentColor"/>
</svg>