<svg xmlns="http://www.w3.org/2000/svg" viewBox="0 0 24 24" width="24" height="24">
  <title>figure.child.and.lock.fill</title>
  <path transform="matrix(0.8518328631292865, 0, 0, 0.8518328631292865, 4.3287595030704376, 19.14979131472009)" d="M9.70 2.60L16.71 2.60C18.28 2.60 19.20 1.65 19.20-0.02L19.20-8.40C19.20-9.94 18.41-10.86 17.11-10.99L17.11-13.76C17.11-17.88 14.43-20.13 11.24-20.13C8.37-20.13 5.89-18.28 5.46-14.86C6-14.75 6.48-14.50 6.86-14.12C7.00-17.13 8.88-18.76 11.24-18.76C13.71-18.76 15.67-16.97 15.67-13.90L15.67-11.02L8.04-11.02C7.97-10.66 7.84-10.34 7.68-10.04L10.65-8.80C11.88-8.31 12.39-7.11 12.04-6.05C11.67-4.92 10.44-4.27 9.12-4.78L8.25-5.13C8.25-4.48 8.23-3.90 8.31-3.56L9.62 1.91C9.68 2.16 9.71 2.39 9.70 2.60ZM4.80-9.69C5.88-9.69 6.74-10.55 6.74-11.61C6.74-12.70 5.88-13.57 4.80-13.57C3.74-13.57 2.86-12.70 2.86-11.61C2.86-10.55 3.74-9.69 4.80-9.69ZM4.79-2.88C5.06-2.88 5.27-2.73 5.36-2.41L6.69 2.67C6.97 3.79 8.50 3.40 8.33 2.39C8.26 1.93 7.13-2.38 6.96-3.34C6.84-4.02 6.89-5.77 6.89-6.73C6.89-6.94 7.08-7.08 7.30-6.98L9.61-6.05C10.20-5.80 10.61-6.08 10.73-6.47C10.86-6.84 10.70-7.32 10.14-7.55L7.72-8.54C7.13-8.79 6.57-8.92 5.96-8.99C5.60-8.84 5.21-8.74 4.79-8.74C4.37-8.74 3.98-8.84 3.63-8.99C3.02-8.92 2.45-8.79 1.88-8.54L-0.54-7.55C-1.11-7.32-1.28-6.84-1.14-6.47C-1.02-6.08-0.60-5.80-0.02-6.05L2.30-6.98C2.51-7.08 2.71-6.94 2.71-6.73C2.71-5.77 2.74-4.02 2.64-3.34C2.47-2.38 1.34 1.93 1.25 2.39C1.10 3.40 2.61 3.79 2.91 2.67L4.24-2.41C4.32-2.73 4.54-2.88 4.79-2.88Z" fill="currentColor"/>
</svg>