<svg xmlns="http://www.w3.org/2000/svg" viewBox="0 0 24 24" width="24" height="24">
  
  <path transform="matrix(0.8507809903622466, 0, 0, 0.8507809903622466, 0.21535393818544368, 19.19840478564307)" d="M13.85 3.29C20.34 3.29 25.61-1.97 25.61-8.46C25.61-14.95 20.34-20.21 13.85-20.21C7.36-20.21 2.10-14.95 2.10-8.46C2.10-1.97 7.36 3.29 13.85 3.29ZM13.85 1.77C8.19 1.77 3.62-2.80 3.62-8.46C3.62-14.12 8.19-18.70 13.85-18.70C19.51-18.70 24.09-14.12 24.09-8.46C24.09-2.80 19.51 1.77 13.85 1.77ZM14.06-13.04C14.84-13.04 15.47-13.68 15.47-14.46C15.47-15.23 14.84-15.87 14.06-15.87C13.28-15.87 12.64-15.23 12.64-14.46C12.64-13.68 13.28-13.04 14.06-13.04ZM19.49-11.00C19.85-11.00 20.14-11.30 20.14-11.66C20.14-12.04 19.85-12.33 19.49-12.33L12.70-12.33C12.06-12.33 11.52-11.99 11.23-11.41L8.30-5.55L6.64-7.20C6.38-7.46 5.96-7.45 5.71-7.20C5.46-6.95 5.45-6.54 5.71-6.27L8.04-3.94C8.32-3.66 8.75-3.70 8.98-4.03L10.90-6.82C11.00-6.98 11.23-7.01 11.38-6.90L13.73-5.10L13.73-1.82C13.73-1.45 14.02-1.16 14.38-1.16C14.74-1.16 15.05-1.45 15.05-1.82L15.05-5.44C15.05-5.60 14.98-5.77 14.85-5.88L12.55-8.19L13.79-10.65C13.91-10.89 14.12-11.00 14.37-11.00ZM18.98-9.46C18.98-8.81 19.72-8.30 20.63-8.30C21.54-8.30 22.28-8.81 22.28-9.46C22.28-10.09 21.54-10.59 20.63-10.59C19.72-10.59 18.98-10.09 18.98-9.46ZM15.36-8.05L17.85-8.05C18.21-8.05 18.49-8.36 18.49-8.71C18.49-9.07 18.21-9.36 17.85-9.36L15.64-9.36L14.53-10.48L14.37-10.48C14.30-10.48 14.30-10.48 14.26-10.41L13.76-9.41L14.91-8.25C15.04-8.12 15.20-8.05 15.36-8.05Z" fill="currentColor"/>
</svg>