<svg xmlns="http://www.w3.org/2000/svg" viewBox="0 0 24 24" width="24" height="24">
  
  <path transform="matrix(0.8507809903622466, 0, 0, 0.8507809903622466, 0.21535393818544368, 19.19840478564307)" d="M13.85 3.29C20.33 3.29 25.61-1.98 25.61-8.46C25.61-14.94 20.33-20.21 13.85-20.21C7.37-20.21 2.10-14.94 2.10-8.46C2.10-1.98 7.37 3.29 13.85 3.29ZM15.16-11.89C14.36-11.89 13.71-12.55 13.71-13.35C13.71-14.13 14.36-14.79 15.16-14.79C15.95-14.79 16.59-14.13 16.59-13.35C16.59-12.55 15.95-11.89 15.16-11.89ZM16.14-7.34L13.02-7.34C12.64-7.34 12.34-7.64 12.34-8.03L12.34-9.61C12.34-9.86 12.23-9.94 11.96-9.89L9.21-9.38C9.08-9.36 9.04-9.20 9.14-9.09L11.09-7.14C11.25-6.96 11.30-6.83 11.30-6.57L11.30-2.82C11.30-2.45 10.98-2.13 10.61-2.13C10.22-2.13 9.91-2.45 9.91-2.82L9.91-6.32L7.36-8.55C6.30-9.49 6.71-11.24 8.18-11.54L12.26-12.39C13.02-12.55 13.72-12.02 13.72-11.19L13.72-8.72L16.14-8.72C16.52-8.72 16.83-8.40 16.83-8.03C16.83-7.64 16.52-7.34 16.14-7.34ZM19.88-4.73C19.35-4.73 18.89-5.02 18.67-5.47L18.06-6.67C17.94-6.93 18.08-7.13 18.28-7.18C18.42-7.23 18.62-7.20 18.73-7.00L19.32-5.80C19.43-5.59 19.61-5.47 19.88-5.47L20.64-5.47L20.64-10.97L19.84-10.97C17.94-10.97 16.71-10.51 15.48-9.25L14.48-9.25C16.03-11.07 17.45-11.70 19.84-11.70L20.87-11.70C21.16-11.70 21.36-11.48 21.36-11.20L21.36-5.26C21.36-4.95 21.16-4.73 20.82-4.73ZM11.84-5.03L11.84-5.98C12.15-6.26 12.41-6.52 12.69-6.86C12.80-6.82 12.93-6.80 13.04-6.80L13.59-6.80C13.09-6.14 12.55-5.52 11.84-5.03ZM7.14-4.03C6.94-4.03 6.77-4.21 6.77-4.39C6.77-4.59 6.94-4.77 7.14-4.77L8.29-4.77C8.67-4.77 9.04-4.80 9.38-4.86L9.38-4.11C9.04-4.05 8.67-4.03 8.29-4.03Z" fill="currentColor"/>
</svg>