<svg xmlns="http://www.w3.org/2000/svg" viewBox="0 0 24 24" width="24" height="24">
  <title>figure.water.fitness</title>
  <path transform="matrix(0.7315330761537362, 0, 0, 0.7315330761537362, -0.18602657522503208, 18.206600942991855)" d="M16.66-13.17C18.04-13.17 19.15-14.30 19.15-15.67C19.15-17.04 18.04-18.15 16.66-18.15C15.28-18.15 14.17-17.04 14.17-15.67C14.17-14.30 15.28-13.17 16.66-13.17ZM4.42-14.81L12.80-10.31C13.07-10.17 13.23-9.88 13.15-9.57L12.33-6.60C14.36-6.12 15.15-4.88 16.65-4.88C17.11-4.88 17.50-5.00 17.88-5.18L19.00-9.26C19.11-9.67 19.22-9.90 19.65-10.13L28.43-14.81C29.06-15.15 29.30-15.94 28.98-16.56C28.62-17.19 27.84-17.44 27.21-17.10L18.49-12.48C17.13-11.75 15.83-11.67 14.19-12.54L5.64-17.10C5.00-17.44 4.22-17.19 3.89-16.56C3.55-15.94 3.79-15.15 4.42-14.81ZM3.52-2.02L4.63-2.02C7.66-2.02 8.41-3.95 10.64-3.95C12.87-3.95 13.63-2.02 16.65-2.02C19.69-2.02 20.45-3.95 22.68-3.95C24.89-3.95 25.65-2.02 28.69-2.02L29.80-2.02C30.09-2.02 30.33-2.25 30.33-2.54C30.33-2.85 30.09-3.08 29.80-3.08L28.69-3.08C26.37-3.08 25.58-5.00 22.68-5.00C19.76-5.00 18.97-3.08 16.65-3.08C14.34-3.08 13.55-5.00 10.64-5.00C7.73-5.00 6.95-3.08 4.63-3.08L3.52-3.08C3.22-3.08 2.99-2.85 2.99-2.54C2.99-2.25 3.22-2.02 3.52-2.02ZM10.25-0.64C10.59-0.64 10.85-0.91 10.85-1.25C10.85-1.59 10.59-1.85 10.25-1.85C9.91-1.85 9.64-1.59 9.64-1.25C9.64-0.91 9.91-0.64 10.25-0.64ZM23.09-0.64C23.43-0.64 23.70-0.91 23.70-1.25C23.70-1.59 23.43-1.85 23.09-1.85C22.76-1.85 22.49-1.59 22.49-1.25C22.49-0.91 22.76-0.64 23.09-0.64ZM8.07-0.14C8.41-0.14 8.68-0.40 8.68-0.74C8.68-1.08 8.41-1.35 8.07-1.35C7.73-1.35 7.48-1.08 7.48-0.74C7.48-0.40 7.73-0.14 8.07-0.14ZM12.42-0.14C12.76-0.14 13.03-0.40 13.03-0.74C13.03-1.08 12.76-1.35 12.42-1.35C12.08-1.35 11.82-1.08 11.82-0.74C11.82-0.40 12.08-0.14 12.42-0.14ZM20.92-0.14C21.26-0.14 21.53-0.40 21.53-0.74C21.53-1.08 21.26-1.35 20.92-1.35C20.58-1.35 20.32-1.08 20.32-0.74C20.32-0.40 20.58-0.14 20.92-0.14ZM25.27-0.14C25.61-0.14 25.88-0.40 25.88-0.74C25.88-1.08 25.61-1.35 25.27-1.35C24.93-1.35 24.67-1.08 24.67-0.74C24.67-0.40 24.93-0.14 25.27-0.14ZM6.04 0.81C6.38 0.81 6.64 0.54 6.64 0.20C6.64-0.14 6.38-0.40 6.04-0.40C5.70-0.40 5.44-0.14 5.44 0.20C5.44 0.54 5.70 0.81 6.04 0.81ZM14.48 0.81C14.82 0.81 15.08 0.54 15.08 0.20C15.08-0.14 14.82-0.40 14.48-0.40C14.14-0.40 13.88-0.14 13.88 0.20C13.88 0.54 14.14 0.81 14.48 0.81ZM18.87 0.81C19.21 0.81 19.46 0.54 19.46 0.20C19.46-0.14 19.21-0.40 18.87-0.40C18.53-0.40 18.26-0.14 18.26 0.20C18.26 0.54 18.53 0.81 18.87 0.81ZM27.30 0.81C27.64 0.81 27.91 0.54 27.91 0.20C27.91-0.14 27.64-0.40 27.30-0.40C26.96-0.40 26.71-0.14 26.71 0.20C26.71 0.54 26.96 0.81 27.30 0.81ZM3.86 1.18C4.20 1.18 4.45 0.93 4.45 0.59C4.45 0.25 4.20-0.02 3.86-0.02C3.52-0.02 3.25 0.25 3.25 0.59C3.25 0.93 3.52 1.18 3.86 1.18ZM16.68 1.18C17.02 1.18 17.27 0.93 17.27 0.59C17.27 0.25 17.02-0.02 16.68-0.02C16.34-0.02 16.07 0.25 16.07 0.59C16.07 0.93 16.34 1.18 16.68 1.18ZM29.47 1.18C29.81 1.18 30.08 0.93 30.08 0.59C30.08 0.25 29.81-0.02 29.47-0.02C29.13-0.02 28.88 0.25 28.88 0.59C28.88 0.93 29.13 1.18 29.47 1.18Z" fill="currentColor"/>
</svg>