<svg xmlns="http://www.w3.org/2000/svg" viewBox="0 0 24 24" width="24" height="24">
  <title>figure.volleyball</title>
  <path transform="matrix(0.6936286459494722, 0, 0, 0.6936286459494722, 3.309156991281223, 17.93991142234666)" d="M18.70-18.56C19.93-18.56 20.91-19.55 20.91-20.77C20.91-21.98 19.93-22.98 18.70-22.98C17.48-22.98 16.50-21.98 16.50-20.77C16.50-19.55 17.48-18.56 18.70-18.56ZM9.59-13.68C10.96-13.68 12.08-14.79 12.08-16.18C12.08-17.55 10.96-18.66 9.59-18.66C8.20-18.66 7.09-17.55 7.09-16.18C7.09-14.79 8.20-13.68 9.59-13.68ZM2.99-8.12C2.99-7.23 3.91-6.81 4.63-7.17L8.63-9.18C8.81-9.28 9.02-9.16 9.08-8.96L10.23-4.31L8.41 0.25L4.11 0.25C3.49 0.25 2.99 0.75 2.99 1.37C2.99 1.98 3.49 2.47 4.11 2.47L9.11 2.47C9.62 2.47 9.94 2.29 10.18 1.83L12.62-2.67L13.98 0.91L9.67 3.80C9.15 4.15 9.01 4.86 9.35 5.36C9.69 5.86 10.35 6.02 10.90 5.65L16.01 2.26C16.38 2.02 16.57 1.64 16.39 0.96L13.38-11.07C13.32-11.33 13.38-11.55 13.66-11.70L21.45-15.59C22.01-15.86 22.23-16.54 21.95-17.10C21.67-17.65 21-17.87 20.44-17.59L5.24-10.00L5.24-13.79C5.24-14.40 4.75-14.89 4.11-14.89C3.49-14.89 2.99-14.40 2.99-13.79Z" fill="currentColor"/>
</svg>