<svg xmlns="http://www.w3.org/2000/svg" viewBox="0 0 24 24" width="24" height="24">
  
  <path transform="matrix(0.8507809903622466, 0, 0, 0.8507809903622466, -0.1834496510468595, 19.19840478564307)" d="M14.32 3.29C20.79 3.29 26.07-1.98 26.07-8.46C26.07-14.94 20.79-20.21 14.32-20.21C7.84-20.21 2.57-14.94 2.57-8.46C2.57-1.98 7.84 3.29 14.32 3.29ZM16.73-12.43C15.94-12.43 15.29-13.07 15.29-13.86C15.29-14.66 15.94-15.30 16.73-15.30C17.53-15.30 18.18-14.66 18.18-13.86C18.18-13.07 17.53-12.43 16.73-12.43ZM10.32-12.26C9.93-12.67 10.10-13.37 10.77-13.37L13.30-13.37C13.77-13.37 14.21-13.18 14.55-12.86L17.53-9.89C17.68-9.75 17.73-9.60 17.73-9.41L17.73-6.45C17.73-6.39 17.72-6.34 17.70-6.28L19.85-4.13L21.94-4.13C22.11-4.13 22.25-3.97 22.25-3.80L22.25-3.47C22.25-3.28 22.10-3.15 21.94-3.15L20.13-3.15C19.98-3.15 19.90-3.16 19.76-3.32L17.24-5.82C17.18-5.80 17.13-5.79 17.07-5.79C16.71-5.79 16.39-6.08 16.39-6.45L16.39-6.67L13.30-9.76L12.23-9.25L14.24-7.24C14.45-7.03 14.50-6.74 14.37-6.48L12.71-3.19C12.53-2.81 12.07-2.74 11.82-2.88C11.50-3.06 11.36-3.45 11.52-3.76L12.93-6.57L10.37-8.45C9.23-9.28 9.59-10.85 10.79-11.34L11.11-11.46ZM13.90-10.08L16.39-7.58L16.39-9.14L15.11-10.45C15.02-10.54 14.87-10.57 14.75-10.50ZM5.67-6.11C5.67-6.48 5.96-6.77 6.33-6.77L9-6.77L9.57-8.48C9.66-8.36 9.83-8.17 10.05-8.02L10.86-7.43L10.05-5.82C9.95-5.61 9.74-5.45 9.48-5.45L6.33-5.45C5.96-5.45 5.67-5.74 5.67-6.11Z" fill="currentColor"/>
</svg>