<svg xmlns="http://www.w3.org/2000/svg" viewBox="0 0 24 24" width="24" height="24">
  
  <path transform="matrix(0.8507809903622466, 0, 0, 0.8507809903622466, 0.21535393818544368, 19.19840478564307)" d="M13.85 3.29C20.33 3.29 25.61-1.98 25.61-8.46C25.61-14.94 20.33-20.21 13.85-20.21C7.37-20.21 2.10-14.94 2.10-8.46C2.10-1.98 7.37 3.29 13.85 3.29ZM12.57-13.63C12.57-13.80 12.73-13.95 12.90-13.95C13.64-13.95 14.12-13.78 14.66-13.27C15.21-13.78 15.69-13.95 16.43-13.95C16.62-13.95 16.76-13.80 16.76-13.63C16.76-13.44 16.62-13.29 16.44-13.29C15.83-13.29 15.46-13.18 15.08-12.76C14.93-12.61 14.81-12.54 14.66-12.54C14.53-12.54 14.39-12.61 14.26-12.76C13.86-13.18 13.50-13.29 12.90-13.29C12.71-13.29 12.57-13.44 12.57-13.63ZM11.78-7.62L13.03-8.45C13.23-8.59 13.20-8.79 13.07-8.93L11.87-10.15L9.77-8.66C9.40-8.41 9.02-8.50 8.81-8.74C8.54-9.01 8.51-9.49 8.94-9.80L11.53-11.64C11.88-11.89 12.33-11.86 12.63-11.55L16.27-7.77C15.28-7.46 14.92-6.80 13.85-6.80C12.93-6.80 12.50-7.30 11.78-7.62ZM17.33-8.51C16.52-8.51 15.88-9.16 15.88-9.96C15.88-10.76 16.52-11.39 17.33-11.39C18.12-11.39 18.76-10.76 18.76-9.96C18.76-9.16 18.12-8.51 17.33-8.51ZM6.77-5.09C6.60-5.09 6.42-5.23 6.42-5.44C6.42-5.61 6.60-5.79 6.77-5.79L6.89-5.79C8.19-5.79 8.65-6.90 10.36-6.90C12.08-6.90 12.54-5.79 13.85-5.79C15.16-5.79 15.63-6.90 17.34-6.90C19.05-6.90 19.51-5.79 20.81-5.79L20.93-5.79C21.11-5.79 21.28-5.61 21.28-5.44C21.28-5.23 21.11-5.09 20.93-5.09L20.81-5.09C19.03-5.09 18.60-6.20 17.34-6.20C16.08-6.20 15.64-5.09 13.85-5.09C12.06-5.09 11.64-6.20 10.36-6.20C9.11-6.20 8.67-5.09 6.89-5.09ZM6.77-3.26C6.60-3.26 6.42-3.42 6.42-3.62C6.42-3.81 6.60-3.96 6.77-3.96L6.89-3.96C8.19-3.96 8.65-5.07 10.36-5.07C12.08-5.07 12.54-3.96 13.85-3.96C15.16-3.96 15.63-5.07 17.34-5.07C19.05-5.07 19.51-3.96 20.81-3.96L20.93-3.96C21.11-3.96 21.28-3.81 21.28-3.62C21.28-3.42 21.11-3.26 20.93-3.26L20.81-3.26C19.03-3.26 18.60-4.37 17.34-4.37C16.08-4.37 15.64-3.26 13.85-3.26C12.06-3.26 11.64-4.37 10.36-4.37C9.11-4.37 8.67-3.26 6.89-3.26Z" fill="currentColor"/>
</svg>