<svg xmlns="http://www.w3.org/2000/svg" viewBox="0 0 24 24" width="24" height="24">
  
  <path transform="matrix(0.7619047619047619, 0, 0, 0.7619047619047619, 2.0937500000000004, 18.4375)" d="M7.27-20.37L18.74-20.37C18.69-21.13 18.25-21.57 17.41-21.57L8.59-21.57C7.77-21.57 7.31-21.13 7.27-20.37ZM5.34-17.37L20.67-17.37C20.55-18.18 20.14-18.66 19.25-18.66L6.75-18.66C5.87-18.66 5.46-18.18 5.34-17.37ZM6.45 4.68L19.79 4.68C21.86 4.68 23.02 3.50 23.02 1.25L23.02-11.93C23.02-14.18 21.84-15.35 19.57-15.35L6.45-15.35C4.16-15.35 2.99-14.20 2.99-11.93L2.99 1.25C2.99 3.53 4.16 4.68 6.45 4.68ZM6.47 3.23C5.16 3.23 4.44 2.53 4.44 1.18L4.44-11.85C4.44-13.21 5.16-13.91 6.47-13.91L19.54-13.91C20.82-13.91 21.57-13.21 21.57-11.85L21.57 1.18C21.57 2.53 20.82 3.23 19.77 3.23ZM14.70-9.54C15.43-9.54 16.03-10.15 16.03-10.88C16.03-11.61 15.43-12.21 14.70-12.21C13.96-12.21 13.36-11.61 13.36-10.88C13.36-10.15 13.96-9.54 14.70-9.54ZM12.60-4.20L14.98-2.86L13.43-1.55C13.14-1.29 13.13-0.93 13.32-0.69C13.54-0.46 13.89-0.43 14.20-0.71L16.34-2.52C16.62-2.75 16.57-3.28 16.23-3.49L13.91-5.02L14.37-6.62C14.44-6.87 14.71-6.89 14.85-6.69L15.53-5.70C15.68-5.47 15.97-5.39 16.23-5.50L18.18-6.38C18.52-6.53 18.64-6.81 18.50-7.13C18.35-7.43 18.07-7.52 17.72-7.37L16.16-6.68L15.09-8.16C14.54-8.93 13.85-9.22 12.73-9.14L10.57-9C10.23-8.96 10.00-8.74 9.96-8.40L9.67-6.20C9.62-5.84 9.80-5.57 10.13-5.53C10.45-5.50 10.68-5.70 10.72-6.07L10.99-7.88L11.88-7.93C12.08-7.95 12.27-7.80 12.20-7.57L11.70-5.80C11.40-4.77 12.07-4.49 12.60-4.20ZM8.48 1.13C8.72 1.32 9.06 1.34 9.35 1.04L11.36-0.93C11.52-1.10 11.55-1.13 11.66-1.39L12.56-3.64L12.35-3.76C11.98-3.97 11.57-4.20 11.34-4.55L10.57-1.85L8.48 0.21C8.19 0.52 8.24 0.90 8.48 1.13Z" fill="currentColor"/>
</svg>