<svg xmlns="http://www.w3.org/2000/svg" viewBox="0 0 24 24" width="24" height="24">
  
  <path transform="matrix(0.8507809903622466, 0, 0, 0.8507809903622466, 0.21535393818544368, 19.19840478564307)" d="M13.85 3.29C20.33 3.29 25.61-1.98 25.61-8.46C25.61-14.94 20.33-20.21 13.85-20.21C7.37-20.21 2.10-14.94 2.10-8.46C2.10-1.98 7.37 3.29 13.85 3.29ZM13.84-13.28C13.05-13.28 12.41-13.92 12.41-14.71C12.41-15.49 13.05-16.13 13.84-16.13C14.61-16.13 15.26-15.49 15.26-14.71C15.26-13.92 14.61-13.28 13.84-13.28ZM13.84-7.20L12.25-4.69L11.07-1.42C10.92-1.05 10.57-0.94 10.29-1.04C9.97-1.16 9.81-1.52 9.93-1.83L11.12-5.13L12.32-8.41L12.32-11.39C12.32-11.52 12.23-11.66 12.11-11.72L8.07-13.88C7.78-14.04 7.66-14.39 7.83-14.70C7.98-15 8.36-15.11 8.64-14.95L12.55-12.88C12.98-12.66 13.41-12.55 13.84-12.55C14.26-12.55 14.70-12.66 15.13-12.88L19.04-14.95C19.32-15.11 19.69-15 19.85-14.70C20.02-14.39 19.90-14.04 19.61-13.88L15.56-11.72C15.45-11.66 15.36-11.52 15.36-11.39L15.36-8.41L16.56-5.13L17.75-1.83C17.87-1.52 17.71-1.16 17.39-1.04C17.10-0.94 16.75-1.05 16.61-1.42L15.42-4.69Z" fill="currentColor"/>
</svg>