<svg xmlns="http://www.w3.org/2000/svg" viewBox="0 0 24 24" width="24" height="24">
  
  <path transform="matrix(0.8507809903622466, 0, 0, 0.8507809903622466, 0.21535393818544368, 19.19840478564307)" d="M13.85 3.29C20.34 3.29 25.61-1.97 25.61-8.46C25.61-14.95 20.34-20.21 13.85-20.21C7.36-20.21 2.10-14.95 2.10-8.46C2.10-1.97 7.36 3.29 13.85 3.29ZM13.85 1.77C8.19 1.77 3.62-2.80 3.62-8.46C3.62-14.12 8.19-18.70 13.85-18.70C19.51-18.70 24.09-14.12 24.09-8.46C24.09-2.80 19.51 1.77 13.85 1.77ZM13.84-13.32C14.61-13.32 15.25-13.96 15.25-14.74C15.25-15.52 14.61-16.15 13.84-16.15C13.05-16.15 12.42-15.52 12.42-14.74C12.42-13.96 13.05-13.32 13.84-13.32ZM12.01-3.06C12.27-3.14 12.42-3.21 12.53-3.40L13.96-5.98C13.97-6.02 13.99-6.04 14.04-6.04L17.53-6.04L17.53-2.75C17.53-2.38 17.82-2.10 18.19-2.10C18.55-2.10 18.84-2.38 18.84-2.75L18.84-6.62C18.84-7.05 18.61-7.30 18.15-7.35L15.23-7.62L15.23-11.29C15.23-12.01 14.73-12.60 13.84-12.60L13.54-12.60C13.00-12.60 12.60-12.52 12.09-12.12L9.91-10.49C9.55-10.22 9.57-9.68 9.95-9.42L12.60-7.65L12.60-7.49L11.45-4.28L8.39-3.45C8.05-3.35 7.84-2.99 7.93-2.64C8.04-2.26 8.37-2.07 8.74-2.18ZM11.45-10.01L12.43-10.73C12.50-10.79 12.60-10.76 12.60-10.65L12.60-9.23Z" fill="currentColor"/>
</svg>