<svg xmlns="http://www.w3.org/2000/svg" viewBox="0 0 24 24" width="24" height="24">
  <title>figure.stairs</title>
  <path transform="matrix(0.6780558866375315, 0, 0, 0.6780558866375315, 2.671434247119586, 17.740961462058007)" d="M11.60-18.23C12.97-18.23 14.10-19.36 14.10-20.72C14.10-22.09 12.97-23.21 11.60-23.21C10.23-23.21 9.11-22.09 9.11-20.72C9.11-19.36 10.23-18.23 11.60-18.23ZM13.08 0.47C13.52 0.59 14.27 0.42 14.48-0.30L16.15-5.79C16.31-6.38 16.05-6.98 15.43-7.20L10.95-8.75L11.50-12.57C11.53-12.80 11.82-12.86 11.93-12.64L12.89-10.77C13.09-10.36 13.48-10.15 13.91-10.15L18.49-10.15C19.13-10.15 19.64-10.64 19.64-11.29C19.64-11.92 19.13-12.43 18.49-12.43L14.61-12.43L13.13-15.39C12.64-16.34 11.79-17.02 10.72-17.23L10.08-17.36C8.91-17.58 7.96-17.32 7.23-16.86L3.53-14.57C3.21-14.34 2.99-13.98 2.99-13.57L2.99-9C2.99-8.37 3.52-7.84 4.14-7.84C4.77-7.84 5.30-8.37 5.30-9L5.30-12.95L6.89-13.95C7.03-14.03 7.20-13.93 7.17-13.76L6.64-9.54C6.45-7.91 6.97-6.81 8.84-6.38L13.59-5.26L12.30-0.94C12.13-0.35 12.35 0.27 13.08 0.47ZM4.66 4.61C5.07 4.88 5.82 4.88 6.23 4.25L9.61-0.76C9.77-1.01 9.86-1.20 9.89-1.48L10.37-4.84L8.59-5.26C8.32-5.33 8.06-5.41 7.84-5.50L7.61-1.88L4.35 3C4.00 3.53 4.11 4.24 4.66 4.61ZM8.92 6.28L12.76 6.28C13.05 6.28 13.30 6.05 13.30 5.74L13.30 3.43L16.59 3.43C16.88 3.43 17.12 3.20 17.12 2.91L17.12 0.59L20.44 0.59C20.73 0.59 20.96 0.35 20.96 0.06L20.96-2.25L23.99-2.25C24.28-2.25 24.53-2.50 24.53-2.79C24.53-3.07 24.28-3.32 23.99-3.32L20.44-3.32C20.14-3.32 19.91-3.07 19.91-2.79L19.91-0.47L16.59-0.47C16.29-0.47 16.07-0.22 16.07 0.06L16.07 2.38L12.76 2.38C12.47 2.38 12.23 2.61 12.23 2.91L12.23 5.23L8.92 5.23C8.61 5.23 8.39 5.46 8.39 5.74C8.39 6.05 8.61 6.28 8.92 6.28Z" fill="currentColor"/>
</svg>