<svg xmlns="http://www.w3.org/2000/svg" viewBox="0 0 24 24" width="24" height="24">
  <title>figure.curling</title>
  <path transform="matrix(0.7032001098750171, 0, 0, 0.7032001098750171, -0.10135970333745359, 18.14677011275119)" d="M19.92-14.02C21.28-14.02 22.39-15.13 22.39-16.49C22.39-17.86 21.28-18.96 19.92-18.96C18.55-18.96 17.45-17.86 17.45-16.49C17.45-15.13 18.55-14.02 19.92-14.02ZM15.80 0.13C15.52 1.66 17.82 2.04 18.11 0.47L19.28-5.93C19.39-6.53 19.01-7.17 18.32-7.28L14.46-7.82L16.85-10.21C17.09-10.43 17.41-10.43 17.65-10.21L24.29-3.56C24.74-3.12 25.48-3.08 25.93-3.56C26.38-4.03 26.39-4.75 25.93-5.20L17.12-14.00C16.58-14.54 15.86-14.86 15.07-14.86L9.98-14.86C9.67-14.86 9.38-14.73 9.15-14.52L5.66-11.02C5.20-10.56 5.21-9.83 5.66-9.38C6.12-8.92 6.84-8.92 7.30-9.38L10.46-12.54L12.52-12.54C12.73-12.54 12.81-12.34 12.67-12.20L9.53-9.06C8.00-7.55 8.81-4.97 11.21-4.97L16.73-4.97ZM9.21-4.46L8.89-0.88L4.16-0.88C3.52-0.88 2.99-0.36 2.99 0.27C2.99 0.91 3.52 1.44 4.16 1.44L9.98 1.44C10.56 1.44 11.03 1.00 11.13 0.41L11.92-3.91L11.21-3.91C10.42-3.91 9.75-4.11 9.21-4.46ZM26.57 1.44L30.05 1.44C30.82 1.44 31.43 0.82 31.43 0.06C31.43-0.70 30.82-1.32 30.05-1.32L29.93-1.32L29.93-1.90C29.93-2.80 29.27-3.46 28.38-3.46L27.14-3.46C26.88-3.46 26.68-3.25 26.68-2.99C26.68-2.73 26.88-2.53 27.14-2.53L28.38-2.53C28.76-2.53 29.02-2.27 29.02-1.90L29.02-1.32L26.57-1.32C25.78-1.32 25.17-0.70 25.17 0.06C25.17 0.82 25.78 1.44 26.57 1.44Z" fill="currentColor"/>
</svg>