<svg xmlns="http://www.w3.org/2000/svg" viewBox="0 0 24 24" width="24" height="24">
  
  <path transform="matrix(0.8507809903622466, 0, 0, 0.8507809903622466, 0.21535393818544368, 19.19840478564307)" d="M13.85 3.29C20.33 3.29 25.61-1.98 25.61-8.46C25.61-14.94 20.33-20.21 13.85-20.21C7.37-20.21 2.10-14.94 2.10-8.46C2.10-1.98 7.37 3.29 13.85 3.29ZM13.66-4.18L11.75-0.71C11.55-0.34 11.14-0.27 10.83-0.45C10.50-0.61 10.39-1.03 10.56-1.36L12.45-4.80L12.50-4.92L14.14-7.93L11.03-7.93C10.50-7.93 10.16-8.46 10.44-8.95L12.73-12.86C12.77-12.95 12.76-13.05 12.68-13.14C12.14-13.70 11.52-14.23 10.82-14.72L8.57-14.72C8.20-14.72 7.90-15.02 7.90-15.41C7.90-15.79 8.20-16.08 8.57-16.08L10.85-16.08C11.10-16.08 11.30-16.02 11.52-15.88C16.00-12.90 17.57-7.83 18.29-5.13L18.32-5.02C18.75-3.39 18.83-1.80 18.83-1.04C18.83-0.66 18.54-0.36 18.16-0.36C17.79-0.36 17.47-0.66 17.47-1.07C17.47-1.30 17.43-2.61 17.00-4.64L15.70-7.01ZM10.01-11.12C9.20-11.12 8.58-11.77 8.58-12.56C8.58-13.35 9.20-13.99 10.01-13.99C10.80-13.99 11.44-13.35 11.44-12.56C11.44-11.77 10.80-11.12 10.01-11.12ZM12.21-9.29L13.61-9.29L13.02-10.17C12.95-10.28 12.80-10.30 12.70-10.16Z" fill="currentColor"/>
</svg>