<svg xmlns="http://www.w3.org/2000/svg" viewBox="0 0 24 24" width="24" height="24">
  
  <path transform="matrix(0.8507809903622466, 0, 0, 0.8507809903622466, 0.21535393818544368, 19.19840478564307)" d="M13.85 3.29C20.34 3.29 25.61-1.97 25.61-8.46C25.61-14.95 20.34-20.21 13.85-20.21C7.36-20.21 2.10-14.95 2.10-8.46C2.10-1.97 7.36 3.29 13.85 3.29ZM13.85 1.77C8.19 1.77 3.62-2.80 3.62-8.46C3.62-14.12 8.19-18.70 13.85-18.70C19.51-18.70 24.09-14.12 24.09-8.46C24.09-2.80 19.51 1.77 13.85 1.77ZM11.77-13.16C12.55-13.16 13.17-13.79 13.17-14.58C13.17-15.35 12.55-15.98 11.77-15.98C10.98-15.98 10.35-15.35 10.35-14.58C10.35-13.79 10.98-13.16 11.77-13.16ZM11.73-4.42L17.79-11.29C17.94-11.45 18-11.59 18-11.78C18-12.15 17.72-12.43 17.33-12.43L11.64-12.43C10.34-12.43 9.27-11.70 8.98-10.58L8.34-8.20C8.06-7.14 8.74-6.46 9.57-6.46C9.84-6.46 10.10-6.53 10.37-6.67L13.51-8.31L13.59-8.29L14.75-9.60L14.32-9.82C14.06-9.96 13.76-9.97 13.48-9.86L10.85-8.71L11.38-10.56C11.47-10.89 11.77-11.11 12.12-11.11L16.79-11.11L10.88-4.42C11.14-4.45 11.50-4.45 11.73-4.42ZM15.40-7.78L17.78-6.59C18.26-6.35 18.63-6.54 18.77-6.86C18.93-7.14 18.83-7.56 18.38-7.78L16.30-8.81ZM10.80-5.14L8.12-5.14C7.95-5.14 7.78-4.99 7.78-4.80C7.78-4.63 7.95-4.46 8.12-4.46L10.21-4.46ZM19.57-5.14L13.07-5.14L12.47-4.46L19.57-4.46C19.75-4.46 19.91-4.63 19.91-4.80C19.91-4.99 19.75-5.14 19.57-5.14ZM13.84-2.17C15.20-2.17 15.57-3.01 16.51-3.01C17.44-3.01 17.81-2.17 19.16-2.17L19.50-2.17C19.68-2.17 19.82-2.31 19.82-2.46C19.82-2.64 19.69-2.79 19.50-2.79L19.16-2.79C18.23-2.79 17.86-3.64 16.51-3.64C15.20-3.64 14.81-2.79 13.84-2.79C12.88-2.79 12.48-3.64 11.18-3.64C9.83-3.64 9.46-2.79 8.53-2.79L8.19-2.79C8.00-2.79 7.88-2.64 7.88-2.46C7.88-2.31 8.02-2.17 8.19-2.17L8.53-2.17C9.88-2.17 10.25-3.01 11.18-3.01C12.12-3.01 12.49-2.17 13.84-2.17Z" fill="currentColor"/>
</svg>