<svg xmlns="http://www.w3.org/2000/svg" viewBox="0 0 24 24" width="24" height="24">
  
  <path transform="matrix(0.6770471230302303, 0, 0, 0.6770471230302303, 2.399683372657281, 17.725477318506833)" d="M12.66-3.38L16.89-0.29L14.43 4.63C14.13 5.18 14.37 5.91 14.94 6.20C15.47 6.45 16.18 6.30 16.49 5.67L19.37-0.09C19.63-0.61 19.54-1.13 19.14-1.50L16.96-3.55L20.66-3.55C21.33-3.55 21.82-4.07 21.82-4.71L21.82-9.34C21.82-11.25 20.29-12.82 18.35-12.82L14.25-12.82L14.25-13.39L14.82-15.41C14.96-15.95 14.73-16.51 14.25-16.76L14.25-18.46C14.88-19.29 15.54-20.53 15.54-21.38C15.54-22.48 14.81-23.23 13.72-23.23C12.63-23.23 11.87-22.48 11.87-21.38C11.87-20.44 12.53-19.23 13.17-18.47L13.17-16.75C12.91-16.61 12.70-16.36 12.62-16.04L11.46-12C11.25-11.23 11.71-10.51 12.52-10.51L13.17-10.51L13.17-8.63L13.09-8.58C11.05-7.55 10.79-4.75 12.66-3.38ZM22.90-12.35C24.26-12.35 25.37-13.46 25.37-14.86C25.37-16.22 24.26-17.33 22.90-17.33C21.50-17.33 20.39-16.22 20.39-14.86C20.39-13.46 21.50-12.35 22.90-12.35ZM16.69-10.51C16.73-10.51 16.76-10.44 16.71-10.42L14.25-9.16L14.25-10.51ZM17.04-5.81L19.35-6.91C19.45-6.95 19.58-6.89 19.58-6.77L19.58-5.81ZM10.99-3.63L9.98-0.66L4.17-0.66C3.52-0.66 2.99-0.14 2.99 0.50C2.99 1.16 3.52 1.69 4.17 1.69L10.80 1.69C11.25 1.69 11.67 1.43 11.87 1.02L13.22-1.68L12.05-2.53C11.61-2.85 11.26-3.22 10.99-3.63Z" fill="currentColor"/>
</svg>