<svg xmlns="http://www.w3.org/2000/svg" viewBox="0 0 24 24" width="24" height="24">
  <title>figure.child.and.lock.open.fill</title>
  <path transform="matrix(0.7164698931307205, 0, 0, 0.7164698931307205, 2.395032807106652, 18.005555105213716)" d="M10.34 2.60L16.42 2.60C17.99 2.60 18.90 1.66 18.90-0.02L18.90-8.39C18.90-9.82 18.25-10.70 17.09-10.95L17.09-13.89C17.09-16.95 19.03-18.75 21.50-18.75C23.98-18.75 25.92-16.95 25.92-13.89L25.92-11.31C25.92-10.79 26.25-10.52 26.65-10.52C27.02-10.52 27.36-10.77 27.36-11.31L27.36-13.73C27.36-17.86 24.68-20.12 21.50-20.12C18.33-20.12 15.64-17.86 15.64-13.73L15.64-11.02L8.68-11.02C8.60-10.66 8.48-10.34 8.31-10.03L11.29-8.80C12.52-8.30 13.02-7.11 12.67-6.04C12.29-4.91 11.06-4.25 9.74-4.77L8.88-5.12C8.88-4.46 8.86-3.89 8.93-3.56L10.25 1.92C10.31 2.16 10.34 2.39 10.34 2.60ZM5.44-9.68C6.53-9.68 7.37-10.54 7.37-11.60C7.37-12.69 6.53-13.56 5.44-13.56C4.38-13.56 3.49-12.69 3.49-11.60C3.49-10.54 4.38-9.68 5.44-9.68ZM5.44-2.87C5.70-2.87 5.91-2.72 5.99-2.40L7.32 2.68C7.62 3.80 9.13 3.41 8.96 2.39C8.89 1.93 7.76-2.38 7.59-3.33C7.48-4.02 7.52-5.75 7.52-6.71C7.52-6.94 7.71-7.07 7.93-6.97L10.24-6.04C10.83-5.80 11.25-6.07 11.37-6.46C11.51-6.84 11.34-7.31 10.77-7.55L8.36-8.54C7.77-8.78 7.21-8.91 6.60-8.99C6.23-8.82 5.86-8.73 5.44-8.73C5.02-8.73 4.63-8.82 4.27-8.99C3.66-8.91 3.09-8.78 2.51-8.54L0.09-7.55C-0.48-7.31-0.64-6.84-0.50-6.46C-0.38-6.07 0.04-5.80 0.62-6.04L2.93-6.97C3.15-7.07 3.34-6.94 3.34-6.71C3.34-5.75 3.39-4.02 3.27-3.33C3.11-2.38 1.97 1.93 1.90 2.39C1.73 3.41 3.25 3.80 3.54 2.68L4.88-2.40C4.96-2.72 5.17-2.87 5.44-2.87Z" fill="currentColor"/>
</svg>