<svg xmlns="http://www.w3.org/2000/svg" viewBox="0 0 24 24" width="24" height="24">
  <title>figure.indoor.soccer</title>
  <path transform="matrix(0.765664722596082, 0, 0, 0.765664722596082, 1.0329728708580008, 18.527590847913864)" d="M17.80-16.61C19.18-16.61 20.30-17.72 20.30-19.10C20.30-20.47 19.18-21.59 17.80-21.59C16.43-21.59 15.30-20.47 15.30-19.10C15.30-17.72 16.43-16.61 17.80-16.61ZM6.39-8.31C7.08-7.98 7.70-8.29 7.98-8.84L10.08-13.01L12.56-13.01C12.83-13.01 13.00-12.75 12.88-12.50L10.69-8.17C9.88-6.55 10.86-4.54 12.98-4.66L18.88-5.03L16.70-0.19C16.43 0.42 16.69 1.17 17.30 1.39C17.99 1.66 18.59 1.45 18.88 0.79L21.91-5.86C22.24-6.59 21.77-7.57 20.85-7.57L15.52-7.57L17.87-12.30C17.96-12.50 18.21-12.56 18.39-12.40L21.18-9.73C21.73-9.19 22.72-9.28 23.11-10.04L25.51-14.88C25.82-15.48 25.63-16.21 24.98-16.51C24.39-16.79 23.66-16.55 23.37-15.95L21.69-12.62L20.32-14.00C19.39-14.93 18.41-15.41 16.91-15.41L9.33-15.41C8.87-15.41 8.46-15.14 8.26-14.74L5.84-9.90C5.53-9.30 5.75-8.60 6.39-8.31ZM3.12 3.41C3.49 4.20 4.31 4.21 4.71 4.03L10.72 1.42C10.98 1.30 11.19 1.10 11.32 0.84L13.55-3.64L13.05-3.61C12.11-3.54 11.29-3.83 10.68-4.29L9.28-0.60L3.74 1.78C3.12 2.06 2.80 2.77 3.12 3.41ZM23.02 4.54C24.41 4.54 25.51 3.43 25.51 2.04C25.51 0.67 24.41-0.46 23.02-0.46C21.63-0.46 20.53 0.67 20.53 2.04C20.53 3.43 21.63 4.54 23.02 4.54Z" fill="currentColor"/>
</svg>