<svg xmlns="http://www.w3.org/2000/svg" viewBox="0 0 24 24" width="24" height="24">
  
  <path transform="matrix(0.8507809903622466, 0, 0, 0.8507809903622466, 0.21535393818544368, 19.19840478564307)" d="M13.85 3.29C20.33 3.29 25.61-1.98 25.61-8.46C25.61-14.94 20.33-20.21 13.85-20.21C7.37-20.21 2.10-14.94 2.10-8.46C2.10-1.98 7.37 3.29 13.85 3.29ZM13.82-14.21C13.03-14.21 12.38-14.86 12.38-15.66C12.38-16.45 13.03-17.10 13.82-17.10C14.61-17.10 15.26-16.45 15.26-15.66C15.26-14.86 14.61-14.21 13.82-14.21ZM14.67-3.40C14.26-3.50 14.13-3.87 14.23-4.21L14.98-6.70L12.22-7.36C11.14-7.61 10.83-8.24 10.95-9.19L11.26-11.63C11.27-11.73 11.17-11.79 11.10-11.74L10.16-11.16L10.16-8.87C10.16-8.50 9.87-8.19 9.50-8.19C9.14-8.19 8.84-8.50 8.84-8.87L8.84-11.52C8.84-11.75 8.95-11.96 9.14-12.08L11.29-13.43C11.71-13.69 12.27-13.82 12.93-13.70L13.30-13.63C13.92-13.52 14.43-13.11 14.71-12.57L15.56-10.85L17.80-10.85C18.18-10.85 18.47-10.55 18.47-10.20C18.47-9.82 18.18-9.54 17.80-9.54L15.15-9.54C14.91-9.54 14.70-9.66 14.57-9.90L14.00-10.98C13.95-11.10 13.78-11.06 13.76-10.93L13.44-8.73L16.04-7.83C16.39-7.71 16.56-7.36 16.45-7.01L15.49-3.83C15.36-3.41 14.94-3.32 14.67-3.40ZM9.81-1.00C9.48-1.21 9.41-1.62 9.62-1.92L11.51-4.75L11.65-6.83C11.77-6.80 11.92-6.74 12.07-6.70L13.10-6.47L12.83-4.52C12.81-4.35 12.76-4.24 12.67-4.10L10.71-1.20C10.46-0.84 10.04-0.84 9.81-1.00ZM12.26 0.02C12.06 0.02 11.91-0.15 11.91-0.34C11.91-0.50 12.07-0.68 12.26-0.68L14.13-0.68L14.13-1.97C14.13-2.17 14.31-2.32 14.48-2.32L16.36-2.32L16.36-3.62C16.36-3.81 16.51-3.97 16.71-3.97L18.60-3.97L18.60-5.27C18.60-5.45 18.74-5.63 18.94-5.63L20.99-5.63C21.20-5.63 21.35-5.45 21.35-5.27C21.35-5.09 21.19-4.92 20.99-4.92L19.29-4.92L19.29-3.62C19.29-3.45 19.15-3.27 18.94-3.27L17.05-3.27L17.05-1.97C17.05-1.79 16.89-1.63 16.71-1.63L14.84-1.63L14.84-0.34C14.84-0.15 14.68 0.02 14.48 0.02Z" fill="currentColor"/>
</svg>