<svg xmlns="http://www.w3.org/2000/svg" viewBox="0 0 24 24" width="24" height="24">
  
  <path transform="matrix(0.8507809903622466, 0, 0, 0.8507809903622466, 0.21535393818544368, 19.19840478564307)" d="M13.85 3.29C20.34 3.29 25.61-1.97 25.61-8.46C25.61-14.95 20.34-20.21 13.85-20.21C7.36-20.21 2.10-14.95 2.10-8.46C2.10-1.97 7.36 3.29 13.85 3.29ZM13.85 1.77C8.19 1.77 3.62-2.80 3.62-8.46C3.62-14.12 8.19-18.70 13.85-18.70C19.51-18.70 24.09-14.12 24.09-8.46C24.09-2.80 19.51 1.77 13.85 1.77ZM15.68-12.49C16.46-12.49 17.10-13.14 17.10-13.91C17.10-14.67 16.46-15.32 15.68-15.32C14.91-15.32 14.27-14.67 14.27-13.91C14.27-13.14 14.91-12.49 15.68-12.49ZM8.80-15.08C8.12-15.08 7.58-14.54 7.58-13.86C7.58-13.35 7.96-12.74 8.48-12.46L8.48-11.96L8.24-11.96C7.89-11.96 7.58-11.67 7.58-11.31C7.58-10.96 7.89-10.66 8.24-10.66L12.70-10.66C12.89-10.66 13.07-10.51 12.97-10.25L12.21-7.99C11.93-7.18 12.33-6.34 13.10-5.99L15.73-4.83L16.64-1.73C16.77-1.28 17.18-1.17 17.51-1.29C17.79-1.41 17.99-1.69 17.88-2.09L16.91-5.50C16.86-5.66 16.77-5.78 16.61-5.86L14.58-7.07L15.54-9.94C15.61-10.16 15.84-10.18 16.01-10.02L17.45-8.59C17.58-8.46 17.73-8.40 17.91-8.40C18.07-8.40 18.25-8.45 18.36-8.59L20.31-10.54C20.57-10.79 20.58-11.20 20.31-11.45C20.06-11.71 19.66-11.72 19.39-11.45L17.91-9.96L16.65-11.25C16.08-11.85 15.47-11.96 14.27-11.96L9.12-11.96L9.12-12.47C9.64-12.74 10.02-13.35 10.02-13.86C10.02-14.54 9.48-15.08 8.80-15.08ZM18.22-7.02L22.10-7.02L22.10-7.70L18.22-7.70C18.04-7.70 17.88-7.54 17.88-7.36C17.88-7.18 18.05-7.02 18.22-7.02ZM9.27-1.50C9.43-1.27 9.76-1.15 10.11-1.34L13.01-2.95C13.16-3.02 13.25-3.15 13.32-3.32L13.90-5.06L12.89-5.51C12.66-5.61 12.54-5.67 12.53-5.71L12.14-3.95L9.48-2.47C9.06-2.24 9.05-1.78 9.27-1.50Z" fill="currentColor"/>
</svg>