<svg xmlns="http://www.w3.org/2000/svg" viewBox="0 0 24 24" width="24" height="24">
  
  <path transform="matrix(0.8507809903622466, 0, 0, 0.8507809903622466, 0.21535393818544368, 19.19840478564307)" d="M13.85 3.29C20.33 3.29 25.61-1.98 25.61-8.46C25.61-14.94 20.33-20.21 13.85-20.21C7.37-20.21 2.10-14.94 2.10-8.46C2.10-1.98 7.37 3.29 13.85 3.29ZM18.41-11.96C17.60-11.96 16.96-12.61 16.96-13.41C16.96-14.20 17.60-14.85 18.41-14.85C19.20-14.85 19.84-14.20 19.84-13.41C19.84-12.61 19.20-11.96 18.41-11.96ZM13.63-4.78C13.25-4.78 12.96-5.07 12.96-5.44L12.96-8.46L10.54-10.91C10.07-11.38 9.91-12.09 10.18-12.73C10.44-13.34 11.04-13.73 11.71-13.73L14.95-13.73C15.68-13.73 16.28-13.15 16.28-12.41L16.28-10.08L18.28-10.08C18.63-10.08 18.93-9.77 18.93-9.42C18.93-9.06 18.63-8.75 18.28-8.75L15.61-8.75C15.26-8.75 14.95-9.06 14.95-9.42L14.95-11.05C14.95-11.24 14.87-11.43 14.61-11.43L12.50-11.43C12.34-11.43 12.26-11.24 12.36-11.12L14.10-9.19C14.23-9.06 14.29-8.91 14.29-8.75L14.29-5.44C14.29-5.07 13.98-4.78 13.63-4.78ZM9.27-2.61C7.52-2.61 6.13-4.00 6.13-5.75C6.13-7.52 7.52-8.93 9.27-8.93C11.04-8.93 12.45-7.52 12.45-5.75C12.45-4.00 11.04-2.61 9.27-2.61ZM9.27-3.30C10.64-3.30 11.75-4.39 11.75-5.75C11.75-7.13 10.64-8.23 9.27-8.23C7.92-8.23 6.82-7.13 6.82-5.75C6.82-4.39 7.92-3.30 9.27-3.30ZM19.59-7.55C19.37-7.76 19.39-7.95 19.51-8.09C19.63-8.20 19.85-8.26 20.03-8.10C20.70-7.52 21.12-6.68 21.12-5.73C21.12-3.97 19.71-2.58 17.95-2.58C16.20-2.58 14.80-3.97 14.80-5.73C14.80-6.19 14.88-6.61 15.07-7.02C15.15-7.23 15.36-7.29 15.52-7.21C15.69-7.15 15.81-6.96 15.69-6.70C15.56-6.40 15.49-6.06 15.49-5.73C15.49-4.37 16.59-3.27 17.95-3.27C19.32-3.27 20.41-4.37 20.41-5.73C20.41-6.46 20.09-7.10 19.59-7.55Z" fill="currentColor"/>
</svg>