<svg xmlns="http://www.w3.org/2000/svg" viewBox="0 0 24 24" width="24" height="24">
  <title>filemenu.and.pointer.arrow</title>
  <path transform="matrix(0.679453636421747, 0, 0, 0.679453636421747, -0.03039856196342372, 16.606838443311794)" d="M6.45 2.17L23.86 2.17C23.84 1.95 23.84 1.85 23.84 1.68L23.85 0.71L6.47 0.71C5.18 0.71 4.44 0.02 4.44-1.34L4.44-15.55C4.44-16.90 5.16-17.60 6.47-17.60L26.95-17.60C28.24-17.60 28.98-16.90 28.98-15.55L28.98-6.27L30.43-4.78L30.43-15.62C30.43-17.89 29.27-19.05 26.98-19.05L6.45-19.05C4.16-19.05 2.99-17.89 2.99-15.62L2.99-1.25C2.99 1.01 4.15 2.17 6.45 2.17ZM8.29-12.67L22.09-12.67C22.43-12.67 22.68-12.91 22.68-13.25C22.68-13.58 22.43-13.82 22.09-13.82L8.29-13.82C7.95-13.82 7.70-13.58 7.70-13.25C7.70-12.91 7.95-12.67 8.29-12.67ZM8.29-7.86L16.80-7.86C17.16-7.86 17.39-8.11 17.39-8.45C17.39-8.78 17.16-9.02 16.80-9.02L8.29-9.02C7.95-9.02 7.70-8.78 7.70-8.45C7.70-8.11 7.95-7.86 8.29-7.86ZM30.75 5.43C31.20 5.24 31.42 4.72 31.22 4.27L29.34-0.11L31.99-0.14C32.38-0.14 32.57-0.53 32.30-0.82L25.89-7.61C25.63-7.86 25.22-7.71 25.21-7.34L25.21 2.05C25.21 2.45 25.66 2.58 25.92 2.32L27.75 0.47L29.57 4.96C29.75 5.40 30.28 5.61 30.75 5.43ZM8.29-3.06L19.63-3.06C19.97-3.06 20.21-3.30 20.21-3.63C20.21-3.96 19.97-4.22 19.63-4.22L8.29-4.22C7.95-4.22 7.70-3.96 7.70-3.63C7.70-3.30 7.95-3.06 8.29-3.06Z" fill="currentColor"/>
</svg>