<svg xmlns="http://www.w3.org/2000/svg" viewBox="0 0 24 24" width="24" height="24">
  
  <path transform="matrix(0.9658554989624599, 0, 0, 0.9658554989624599, 0.8624787775891338, 20.17770232031692)" d="M5.95 1.89C9.40 1.89 10.96-0.06 11.54-3.38L12.46-8.41L17.95-8.41C18.36-8.41 18.67-8.70 18.67-9.09C18.67-9.50 18.36-9.80 17.95-9.80L12.69-9.80L13.35-13.44C13.77-15.83 14.84-17.17 17.26-17.17C18.32-17.17 18.83-16.90 19.38-16.90C19.80-16.90 20.07-17.14 20.07-17.58C20.07-18.04 19.63-18.35 19.17-18.50C18.54-18.74 17.73-18.82 17.11-18.82C13.77-18.82 12.04-16.92 11.46-13.62L10.77-9.80L5.53-9.80C5.12-9.80 4.82-9.50 4.82-9.09C4.82-8.70 5.12-8.41 5.53-8.41L10.54-8.41L9.66-3.60C9.22-1.20 8.25 0.22 5.78 0.22C4.98 0.22 4.15-0.04 3.73-0.04C3.29-0.04 2.99 0.21 2.99 0.64C2.99 1.08 3.26 1.36 3.73 1.54C4.42 1.80 5.21 1.89 5.95 1.89Z" fill="currentColor"/>
</svg>