<svg xmlns="http://www.w3.org/2000/svg" viewBox="0 0 24 24" width="24" height="24">
  <title>fluid.batteryblock</title>
  <path transform="matrix(0.7287218901224025, 0, 0, 0.7287218901224025, -0.17762596071733583, 18.152860802732707)" d="M6.45 1.42L26.98 1.42C29.27 1.42 30.43 0.25 30.43-2.02L30.43-11.89C30.43-14.14 29.27-15.32 26.98-15.32L25.36-15.32L25.36-17.00C25.36-17.82 24.89-18.30 24.04-18.30L21.57-18.30C20.73-18.30 20.26-17.82 20.26-17.00L20.26-15.32L13.16-15.32L13.16-17.00C13.16-17.82 12.69-18.30 11.85-18.30L9.39-18.30C8.53-18.30 8.06-17.82 8.06-17.00L8.06-15.32L6.45-15.32C4.16-15.32 2.99-14.16 2.99-11.89L2.99-2.02C2.99 0.26 4.16 1.42 6.45 1.42ZM20.46-7.20C20.20-7.49 19.93-7.50 19.69-7.20C19.01-6.42 17.92-5.93 16.71-5.93C15.50-5.93 14.41-6.42 13.73-7.20C13.49-7.50 13.22-7.49 12.96-7.20C12.27-6.40 11.19-5.93 10.01-5.93C8.82-5.93 7.75-6.40 7.05-7.20C6.80-7.49 6.53-7.50 6.28-7.20C5.82-6.67 5.21-6.28 4.44-6.08L4.44-11.81C4.44-13.17 5.16-13.86 6.47-13.86L26.95-13.86C28.24-13.86 28.98-13.17 28.98-11.81L28.98-6.08C28.21-6.28 27.60-6.67 27.14-7.20C26.89-7.50 26.63-7.49 26.37-7.20C25.68-6.40 24.60-5.93 23.41-5.93C22.23-5.93 21.15-6.40 20.46-7.20Z" fill="currentColor"/>
</svg>