<svg xmlns="http://www.w3.org/2000/svg" viewBox="0 0 24 24" width="24" height="24">
  <title>fork.knife.circle</title>
  <path transform="matrix(0.8507809903622466, 0, 0, 0.8507809903622466, 0.21535393818544368, 19.19840478564307)" d="M13.85 3.29C20.34 3.29 25.61-1.97 25.61-8.46C25.61-14.95 20.34-20.21 13.85-20.21C7.36-20.21 2.10-14.95 2.10-8.46C2.10-1.97 7.36 3.29 13.85 3.29ZM13.85 1.77C8.19 1.77 3.62-2.80 3.62-8.46C3.62-14.12 8.19-18.70 13.85-18.70C19.51-18.70 24.09-14.12 24.09-8.46C24.09-2.80 19.51 1.77 13.85 1.77ZM11.37-0.77C11.91-0.77 12.26-1.08 12.25-1.61L12.12-9.09C12.12-9.34 12.21-9.50 12.42-9.60C13.29-9.98 13.64-10.41 13.58-11.57L13.38-15.62C13.37-15.90 13.22-16.07 12.96-16.07C12.70-16.07 12.55-15.89 12.55-15.61L12.59-11.65C12.59-11.41 12.43-11.27 12.23-11.27C12.01-11.27 11.85-11.41 11.85-11.64L11.80-15.73C11.80-16.00 11.63-16.15 11.37-16.15C11.11-16.15 10.93-16.00 10.93-15.73L10.88-11.64C10.88-11.41 10.72-11.27 10.50-11.27C10.29-11.27 10.14-11.41 10.14-11.65L10.18-15.61C10.18-15.89 10.03-16.07 9.77-16.07C9.52-16.07 9.35-15.90 9.34-15.62L9.16-11.57C9.12-10.41 9.45-9.98 10.32-9.60C10.54-9.50 10.62-9.34 10.62-9.09L10.49-1.61C10.48-1.08 10.84-0.77 11.37-0.77ZM15.89-6.30L15.73-1.69C15.70-1.08 16.08-0.77 16.61-0.77C17.16-0.77 17.50-1.07 17.50-1.59L17.50-15.68C17.50-16.01 17.29-16.15 17.06-16.15C16.83-16.15 16.66-16.02 16.48-15.74C15.40-14.24 14.72-11.48 14.72-8.74L14.72-8.27C14.72-7.78 14.89-7.46 15.22-7.22L15.55-6.98C15.79-6.81 15.90-6.61 15.89-6.30Z" fill="currentColor"/>
</svg>