<svg xmlns="http://www.w3.org/2000/svg" viewBox="0 0 24 24" width="24" height="24">
  <title>forward.circle.fill</title>
  <path transform="matrix(0.8507809903622466, 0, 0, 0.8507809903622466, 0.21535393818544368, 19.19840478564307)" d="M13.85 3.29C20.33 3.29 25.61-1.98 25.61-8.46C25.61-14.94 20.33-20.21 13.85-20.21C7.37-20.21 2.10-14.94 2.10-8.46C2.10-1.98 7.37 3.29 13.85 3.29ZM22.46-8.44C22.46-8.14 22.30-7.91 21.97-7.71L16.04-4.22C15.84-4.10 15.66-4.04 15.45-4.04C15.06-4.04 14.72-4.32 14.72-4.91L14.72-8.13C14.65-7.97 14.51-7.83 14.31-7.71L8.38-4.22C8.18-4.10 7.98-4.04 7.78-4.04C7.39-4.04 7.04-4.32 7.04-4.91L7.04-11.96C7.04-12.55 7.39-12.83 7.78-12.83C7.98-12.83 8.18-12.77 8.38-12.66L14.31-9.16C14.51-9.05 14.65-8.91 14.72-8.74L14.72-11.96C14.72-12.55 15.06-12.83 15.45-12.83C15.66-12.83 15.84-12.77 16.04-12.66L21.97-9.16C22.30-8.96 22.46-8.73 22.46-8.44Z" fill="currentColor"/>
</svg>