<svg xmlns="http://www.w3.org/2000/svg" viewBox="0 0 24 24" width="24" height="24">
  <title>forward.end.circle</title>
  <path transform="matrix(0.8507809903622466, 0, 0, 0.8507809903622466, 0.21535393818544368, 19.19840478564307)" d="M13.85 3.29C20.34 3.29 25.61-1.97 25.61-8.46C25.61-14.95 20.34-20.21 13.85-20.21C7.36-20.21 2.10-14.95 2.10-8.46C2.10-1.97 7.36 3.29 13.85 3.29ZM13.85 1.77C8.19 1.77 3.62-2.80 3.62-8.46C3.62-14.12 8.19-18.70 13.85-18.70C19.51-18.70 24.09-14.12 24.09-8.46C24.09-2.80 19.51 1.77 13.85 1.77ZM9.53-4.11C9.71-4.11 9.91-4.20 10.10-4.31L15.93-7.73C16.10-7.83 16.23-7.96 16.30-8.09L16.30-4.62C16.30-4.17 16.52-3.96 16.97-3.96L18.22-3.96C18.66-3.96 18.88-4.17 18.88-4.62L18.88-12.30C18.88-12.75 18.66-12.96 18.22-12.96L16.97-12.96C16.52-12.96 16.30-12.76 16.30-12.30L16.30-8.79C16.23-8.92 16.10-9.05 15.93-9.14L10.10-12.56C9.91-12.68 9.71-12.75 9.53-12.75C9.14-12.75 8.81-12.47 8.81-11.91L8.81-4.97C8.81-4.41 9.14-4.11 9.53-4.11Z" fill="currentColor"/>
</svg>