<svg xmlns="http://www.w3.org/2000/svg" viewBox="0 0 24 24" width="24" height="24">
  
  <path transform="matrix(0.8507809903622466, 0, 0, 0.8507809903622466, 0.21535393818544368, 19.19840478564307)" d="M13.85 3.29C20.34 3.29 25.61-1.97 25.61-8.46C25.61-14.95 20.34-20.21 13.85-20.21C7.36-20.21 2.10-14.95 2.10-8.46C2.10-1.97 7.36 3.29 13.85 3.29ZM13.85 1.77C8.19 1.77 3.62-2.80 3.62-8.46C3.62-14.12 8.19-18.70 13.85-18.70C19.51-18.70 24.09-14.12 24.09-8.46C24.09-2.80 19.51 1.77 13.85 1.77ZM11.94-3.12C12.27-3.12 12.52-3.36 12.52-3.70L12.52-5.09L15.13-5.09C15.33-5.09 15.47-5.23 15.47-5.43C15.47-5.61 15.33-5.75 15.13-5.75L12.52-5.75L12.52-7.97L16.52-7.97C16.82-7.97 17.03-8.18 17.03-8.46C17.03-8.73 16.82-8.95 16.52-8.95L12.52-8.95L12.52-12.52L16.93-12.52C17.23-12.52 17.45-12.73 17.45-13.01C17.45-13.29 17.23-13.50 16.93-13.50L11.95-13.50C11.60-13.50 11.38-13.29 11.38-12.93L11.38-5.75L10.27-5.75C10.08-5.75 9.93-5.61 9.93-5.43C9.93-5.23 10.08-5.09 10.27-5.09L11.38-5.09L11.38-3.70C11.38-3.36 11.61-3.12 11.94-3.12Z" fill="currentColor"/>
</svg>