<svg xmlns="http://www.w3.org/2000/svg" viewBox="0 0 24 24" width="24" height="24">
  
  <path transform="matrix(0.8507809903622466, 0, 0, 0.8507809903622466, 0.21535393818544368, 19.188434695912264)" d="M13.85 3.30C20.33 3.30 25.61-1.97 25.61-8.45C25.61-14.93 20.33-20.20 13.85-20.20C7.37-20.20 2.10-14.93 2.10-8.45C2.10-1.97 7.37 3.30 13.85 3.30ZM7.92-4.09C6.71-4.09 5.91-4.90 5.91-6.14C5.91-6.67 6.05-7.29 6.26-8.03C6.61-9.15 7.20-10.71 7.78-11.93C8.24-12.90 8.46-13.31 9.59-13.56C10.66-13.80 12.13-13.96 13.84-13.96C15.56-13.96 17.03-13.80 18.11-13.56C19.22-13.31 19.45-12.90 19.91-11.93C20.50-10.71 21.08-9.15 21.43-8.03C21.64-7.29 21.79-6.67 21.79-6.14C21.79-4.90 20.98-4.09 19.76-4.09C19.08-4.09 18.55-4.36 18.11-4.91L17.06-6.16C16.91-6.35 16.76-6.43 16.56-6.43L11.13-6.43C10.93-6.43 10.78-6.35 10.63-6.16L9.59-4.91C9.14-4.36 8.61-4.09 7.92-4.09ZM9.23-10.16C9.23-9.90 9.40-9.73 9.66-9.73L10.78-9.73L10.78-8.58C10.78-8.33 10.95-8.17 11.19-8.17C11.44-8.17 11.60-8.33 11.60-8.58L11.60-9.73L12.69-9.73C12.96-9.73 13.14-9.90 13.14-10.16C13.14-10.41 12.96-10.57 12.69-10.57L11.60-10.57L11.60-11.71C11.60-11.96 11.44-12.14 11.19-12.14C10.95-12.14 10.78-11.96 10.78-11.71L10.78-10.57L9.66-10.57C9.40-10.57 9.23-10.41 9.23-10.16ZM17.36-10.27C17.79-10.27 18.13-10.61 18.13-11.04C18.13-11.46 17.79-11.80 17.36-11.80C16.93-11.80 16.58-11.46 16.58-11.04C16.58-10.61 16.93-10.27 17.36-10.27ZM15.63-8.57C16.05-8.57 16.41-8.91 16.41-9.33C16.41-9.76 16.05-10.09 15.63-10.09C15.21-10.09 14.86-9.76 14.86-9.33C14.86-8.91 15.21-8.57 15.63-8.57Z" fill="currentColor"/>
</svg>