<svg xmlns="http://www.w3.org/2000/svg" viewBox="0 0 24 24" width="24" height="24">
  
  <path transform="matrix(0.777170613236187, 0, 0, 0.777170613236187, 0.36976320582877964, 18.649764011942114)" d="M2.10-6.69C2.10-3.33 3.41-0.25 5.58 2.07C6 2.53 6.69 2.64 7.27 2.07L9.41-0.07C9.70-0.35 9.70-0.82 9.41-1.13C9.12-1.42 8.64-1.41 8.37-1.13L6.48 0.76C4.89-1.05 3.86-3.38 3.69-5.95L6.36-5.95C6.76-5.95 7.10-6.28 7.10-6.69C7.10-7.09 6.76-7.44 6.36-7.44L3.69-7.44C4.07-13.11 8.55-17.61 14.23-17.98L14.23-15.32C14.23-14.92 14.57-14.57 14.96-14.57C15.38-14.57 15.71-14.92 15.71-15.32L15.71-17.98C18.29-17.81 20.63-16.79 22.43-15.20L20.54-13.31C20.26-13.05 20.26-12.55 20.54-12.27C20.84-11.98 21.33-11.98 21.60-12.27L23.47-14.14C25.07-12.33 26.07-10.01 26.24-7.44L23.60-7.44C23.20-7.44 22.85-7.09 22.85-6.69C22.85-6.28 23.20-5.95 23.60-5.95L26.24-5.95C26.07-3.38 25.05-1.05 23.45 0.76L21.57-1.13C21.29-1.42 20.81-1.42 20.52-1.13C20.24-0.82 20.23-0.35 20.52-0.07L22.68 2.07C23.24 2.64 23.93 2.53 24.35 2.07C26.52-0.25 27.83-3.33 27.83-6.69C27.83-13.75 22.02-19.57 14.96-19.57C7.91-19.57 2.10-13.75 2.10-6.69ZM13.68-5.20C14.43-4.45 15.54-4.45 16.29-5.20C17.04-5.94 17.04-7.07 16.29-7.82C16.17-7.95 15.89-8.16 15.73-8.27L9.41-12.79C9.16-12.96 8.91-12.91 8.74-12.76C8.58-12.60 8.53-12.34 8.72-12.09L13.22-5.78C13.35-5.60 13.55-5.33 13.68-5.20Z" fill="currentColor"/>
</svg>