<svg xmlns="http://www.w3.org/2000/svg" viewBox="0 0 24 24" width="24" height="24">
  <title>gearshape</title>
  <path transform="matrix(0.8103830326052548, 0, 0, 0.8103830326052548, 0.3000949667616335, 18.85185185185185)" d="M13.25 3.88L15.62 3.88C16.44 3.88 17.06 3.39 17.25 2.58L17.77 0.32L18.33 0.12L20.29 1.34C20.99 1.78 21.77 1.69 22.36 1.10L24-0.54C24.60-1.14 24.69-1.91 24.25-2.61L23.02-4.57L23.21-5.12L25.48-5.64C26.29-5.82 26.78-6.45 26.78-7.27L26.78-9.60C26.78-10.42 26.29-11.03 25.48-11.23L23.24-11.77L23.02-12.32L24.26-14.27C24.69-14.98 24.61-15.75 24.01-16.35L22.37-18C21.79-18.57 21.01-18.68 20.30-18.23L18.34-17.02L17.77-17.23L17.25-19.49C17.06-20.31 16.44-20.79 15.62-20.79L13.25-20.79C12.42-20.79 11.81-20.31 11.63-19.49L11.11-17.23L10.52-17.02L8.57-18.23C7.85-18.68 7.08-18.57 6.50-18L4.85-16.35C4.25-15.75 4.17-14.98 4.62-14.27L5.85-12.32L5.63-11.77L3.40-11.23C2.58-11.03 2.10-10.42 2.10-9.60L2.10-7.27C2.10-6.45 2.59-5.82 3.40-5.64L5.65-5.12L5.85-4.57L4.62-2.61C4.17-1.91 4.27-1.14 4.86-0.54L6.50 1.10C7.09 1.69 7.88 1.78 8.58 1.34L10.54 0.12L11.11 0.32L11.63 2.58C11.81 3.39 12.42 3.88 13.25 3.88ZM13.41 2.46C13.13 2.46 12.97 2.33 12.93 2.07L12.25-0.77C11.60-0.95 10.99-1.20 10.51-1.46L8.03 0.08C7.80 0.22 7.58 0.20 7.38 0L5.96-1.43C5.77-1.63 5.74-1.83 5.89-2.06L7.43-4.55C7.21-5.00 6.93-5.63 6.76-6.27L3.90-6.94C3.64-6.98 3.50-7.14 3.50-7.42L3.50-9.46C3.50-9.74 3.63-9.89 3.90-9.95L6.75-10.62C6.93-11.29 7.22-11.92 7.42-12.35L5.88-14.82C5.73-15.07 5.74-15.27 5.94-15.47L7.37-16.89C7.58-17.09 7.78-17.11 8.03-16.97L10.49-15.45C10.97-15.69 11.63-15.95 12.26-16.14L12.93-18.98C12.97-19.24 13.13-19.37 13.41-19.37L15.47-19.37C15.75-19.37 15.90-19.25 15.95-18.98L16.63-16.11C17.29-15.95 17.87-15.68 18.36-15.43L20.84-16.97C21.08-17.11 21.28-17.09 21.49-16.89L22.92-15.47C23.12-15.27 23.13-15.07 22.98-14.82L21.45-12.35C21.66-11.92 21.95-11.30 22.13-10.62L24.97-9.95C25.24-9.89 25.36-9.74 25.36-9.46L25.36-7.42C25.36-7.14 25.23-6.98 24.97-6.94L22.11-6.27C21.94-5.61 21.68-5.00 21.43-4.55L22.97-2.06C23.12-1.83 23.10-1.63 22.91-1.43L21.48 0C21.28 0.20 21.06 0.22 20.84 0.08L18.35-1.46C17.88-1.20 17.29-0.95 16.63-0.77L15.95 2.07C15.90 2.34 15.75 2.46 15.47 2.46ZM14.44-4.00C16.91-4.00 18.90-5.99 18.90-8.46C18.90-10.93 16.91-12.94 14.44-12.94C11.96-12.94 9.96-10.93 9.96-8.46C9.96-5.99 11.96-4.00 14.44-4.00ZM14.44-5.39C12.74-5.39 11.37-6.76 11.37-8.46C11.37-10.16 12.74-11.53 14.44-11.53C16.14-11.53 17.51-10.16 17.51-8.46C17.51-6.76 16.14-5.39 14.44-5.39Z" fill="currentColor"/>
</svg>