<svg xmlns="http://www.w3.org/2000/svg" viewBox="0 0 24 24" width="24" height="24">
  <title>gearshape.arrow.trianglehead.2.clockwise.rotate.90</title>
  <path transform="matrix(0.7061738897400335, 0, 0, 0.7061738897400335, 2.2183882303978195, 17.974893145222314)" d="M13.85-18.70C19.02-18.70 23.27-14.88 23.99-9.93L22.08-9.93C21.41-9.93 21.21-9.46 21.60-8.91L24.15-5.26C24.47-4.80 24.94-4.79 25.25-5.26L27.81-8.89C28.21-9.46 28.01-9.93 27.33-9.93L25.51-9.93C24.79-15.74 19.85-20.21 13.85-20.21C10.39-20.21 7.22-18.70 5.06-16.27C4.70-15.86 4.82-15.34 5.14-15.09C5.45-14.88 5.85-14.88 6.20-15.27C8.10-17.40 10.84-18.70 13.85-18.70ZM13.28-2.29L14.43-2.29C14.74-2.29 14.96-2.46 15.05-2.79L15.34-4.08C15.55-4.15 15.75-4.22 15.93-4.30L17.05-3.61C17.33-3.43 17.61-3.46 17.84-3.68L18.63-4.48C18.86-4.70 18.90-5.00 18.71-5.29L18.02-6.40C18.11-6.59 18.18-6.77 18.25-6.97L19.54-7.28C19.86-7.35 20.04-7.57 20.04-7.90L20.04-9.02C20.04-9.34 19.86-9.56 19.54-9.63L18.26-9.94C18.18-10.16 18.09-10.35 18.04-10.52L18.73-11.65C18.90-11.92 18.88-12.22 18.64-12.45L17.84-13.24C17.61-13.45 17.33-13.50 17.06-13.32L15.93-12.62C15.75-12.70 15.55-12.79 15.34-12.86L15.05-14.14C14.96-14.47 14.74-14.65 14.43-14.65L13.28-14.65C12.96-14.65 12.74-14.47 12.67-14.14L12.36-12.87C12.15-12.79 11.95-12.71 11.77-12.62L10.65-13.32C10.37-13.50 10.09-13.46 9.87-13.24L9.06-12.45C8.82-12.22 8.81-11.92 8.98-11.65L9.68-10.52C9.60-10.35 9.52-10.16 9.45-9.94L8.17-9.63C7.84-9.56 7.66-9.34 7.66-9.02L7.66-7.90C7.66-7.57 7.84-7.35 8.17-7.28L9.46-6.97C9.52-6.77 9.60-6.59 9.68-6.40L9-5.29C8.81-5.00 8.84-4.70 9.07-4.48L9.87-3.68C10.09-3.46 10.38-3.43 10.65-3.61L11.78-4.30C11.95-4.22 12.15-4.15 12.36-4.08L12.67-2.79C12.74-2.46 12.96-2.29 13.28-2.29ZM0.38-7.01L2.19-7.01C2.92-1.20 7.85 3.29 13.85 3.29C17.31 3.29 20.48 1.78 22.64-0.67C23.00-1.07 22.89-1.58 22.56-1.83C22.25-2.05 21.86-2.05 21.50-1.65C19.61 0.47 16.86 1.77 13.85 1.77C8.68 1.77 4.43-2.04 3.71-7.01L5.61-7.01C6.29-7.01 6.49-7.48 6.11-8.02L3.55-11.66C3.23-12.12 2.77-12.13 2.45-11.66L-0.11-8.03C-0.50-7.48-0.30-7.01 0.38-7.01ZM13.85-6.35C12.68-6.35 11.72-7.30 11.72-8.48C11.72-9.66 12.68-10.61 13.85-10.61C15.04-10.61 15.98-9.66 15.98-8.48C15.98-7.30 15.04-6.35 13.85-6.35Z" fill="currentColor"/>
</svg>