<svg xmlns="http://www.w3.org/2000/svg" viewBox="0 0 24 24" width="24" height="24">
  
  <path transform="matrix(0.6909149197970013, 0, 0, 0.6909149197970013, -0.06339636461127096, 17.837691295003566)" d="M3.14 1.96C2.75 2.82 3.09 3.80 4.17 3.80C4.55 3.80 4.88 3.67 5.38 3.25L8.71 0.48C8.88 0.33 8.99 0.27 9.08 0.27C9.16 0.27 9.27 0.33 9.45 0.48L12.77 3.25C13.28 3.67 13.61 3.80 13.98 3.80C15.06 3.80 15.40 2.82 15.01 1.96L9.96-9.55L9.96-15.18C9.96-17.84 10.41-19.84 10.41-20.21C10.41-20.52 10.22-20.72 9.91-20.72C9.71-20.72 9.55-20.60 9.26-20.29L6.68-17.33C6.48-17.09 6.53-16.82 6.77-16.69C7.82-16.23 8.21-16.04 8.21-15.18L8.21-9.59ZM13.55-2.92L14.23-1.41C14.45-3.04 15.56-3.70 15.56-4.83C15.56-6.01 14.77-6.71 14.77-7.66C14.77-7.79 14.85-7.88 14.95-7.88C15.50-7.88 15.74-6.45 16.86-6.45C17.41-6.45 17.89-6.88 18-7.79L18.19-7.79C18.29-6.87 18.79-6.45 19.34-6.45C20.44-6.45 20.68-7.88 21.22-7.88C21.34-7.88 21.42-7.78 21.42-7.66C21.42-6.71 20.63-6.01 20.63-4.83C20.63-3.55 22.05-2.85 22.05-0.67C22.05 1.44 20.54 2.73 18.08 2.73C17.20 2.73 16.42 2.55 15.71 2.23C15.81 2.65 15.80 3 15.64 3.38C16.42 3.67 17.23 3.82 18.08 3.82C21.14 3.82 23.14 2.05 23.14-0.67C23.14-3.08 21.70-4.00 21.70-4.82C21.70-5.80 22.49-6.53 22.49-7.65C22.49-8.41 22.00-8.95 21.30-8.95C20.63-8.95 20.20-8.47 19.91-8.03C19.71-7.71 19.54-7.49 19.36-7.49C19.03-7.49 18.95-8.12 18.95-8.66L18.96-15.71C18.96-16.07 18.97-16.13 19.18-16.20C19.43-16.28 19.50-16.41 19.55-16.73L19.77-19.13C19.79-19.34 19.71-19.52 19.55-19.66L18.54-20.54C18.42-20.65 18.26-20.72 18.08-20.72C17.92-20.72 17.77-20.65 17.65-20.54L16.63-19.66C16.49-19.54 16.39-19.32 16.41-19.13L16.64-16.73C16.66-16.41 16.76-16.28 16.99-16.20C17.19-16.14 17.23-16.07 17.23-15.71L17.24-8.66C17.25-8.14 17.14-7.49 16.83-7.49C16.65-7.49 16.48-7.73 16.27-8.03C15.96-8.45 15.56-8.95 14.88-8.95C14.18-8.95 13.69-8.43 13.69-7.65C13.69-6.53 14.48-5.80 14.48-4.82C14.48-4.34 13.96-3.81 13.55-2.92ZM26.89 3.76C29.99 3.76 31.93 2.32 31.93 0.02C31.93-2.31 30.36-2.94 30.36-4.01C30.36-4.83 30.71-5.54 30.71-6.48C30.71-7.96 29.61-8.93 27.76-9.15L27.76-16.15C27.76-16.64 27.82-16.78 28.10-16.98C28.34-17.13 28.42-17.24 28.39-17.45L28.22-20.34C28.21-20.55 28.04-20.72 27.84-20.72L25.92-20.72C25.73-20.72 25.57-20.55 25.56-20.34L25.38-17.45C25.37-17.24 25.44-17.13 25.68-16.98C25.96-16.78 26.02-16.63 26.02-16.15L26.02-9.15C24.16-8.93 23.06-7.96 23.06-6.48C23.06-5.54 23.41-4.83 23.41-4.01C23.41-3.80 23.36-3.59 23.19-3.27C23.38-2.88 23.51-2.50 23.60-2.09C24.04-2.66 24.50-3.28 24.50-4.03C24.50-4.85 24.15-5.71 24.15-6.48C24.15-7.66 25.20-8.14 26.89-8.14C28.51-8.14 29.64-7.71 29.64-6.48C29.64-5.71 29.27-4.85 29.27-4.03C29.27-2.63 30.86-1.89 30.86 0.02C30.86 1.68 29.38 2.68 26.89 2.68C25.23 2.68 23.99 2.24 23.34 1.39C23.19 1.79 23.02 2.10 22.79 2.39C23.70 3.29 25.13 3.76 26.89 3.76ZM4.11 2.36L8.93-8.71L9.22-8.71L14.04 2.36C14.17 2.67 13.91 2.81 13.70 2.64L10.03-0.42C9.66-0.71 9.36-0.88 9.08-0.88C8.79-0.88 8.50-0.71 8.12-0.42L4.45 2.64C4.24 2.81 3.98 2.67 4.11 2.36ZM26.89-3.12C27.56-3.12 28.11-3.68 28.11-4.35C28.11-5.03 27.56-5.58 26.89-5.58C26.21-5.58 25.65-5.03 25.65-4.35C25.65-3.68 26.21-3.12 26.89-3.12ZM20.40-0.86C20.61-0.93 20.72-1.17 20.65-1.38L19.64-4.15C19.56-4.37 19.32-4.48 19.10-4.39C18.89-4.32 18.79-4.08 18.86-3.87L19.86-1.10C19.95-0.89 20.18-0.77 20.40-0.86ZM15.79-0.86C16.00-0.77 16.23-0.89 16.32-1.10L17.32-3.87C17.40-4.08 17.29-4.32 17.07-4.39C16.86-4.48 16.63-4.37 16.54-4.15L15.54-1.38C15.46-1.17 15.57-0.93 15.79-0.86ZM10.42-2.93C10.70-2.93 10.93-3.15 10.93-3.42C10.93-3.71 10.71-3.95 10.42-3.95C10.15-3.95 9.91-3.70 9.91-3.42C9.91-3.15 10.15-2.93 10.42-2.93ZM11.03-1.49C11.31-1.49 11.55-1.72 11.55-1.99C11.55-2.29 11.31-2.52 11.03-2.52C10.75-2.52 10.51-2.27 10.51-1.99C10.51-1.71 10.75-1.49 11.03-1.49ZM11.61-0.06C11.89-0.06 12.15-0.30 12.15-0.56C12.15-0.84 11.91-1.09 11.61-1.09C11.36-1.09 11.12-0.84 11.12-0.56C11.12-0.29 11.34-0.06 11.61-0.06ZM25.39 0.16L28.37 0.16C28.61 0.16 28.80-0.02 28.80-0.27C28.80-0.52 28.61-0.70 28.37-0.70L25.39-0.70C25.16-0.70 24.96-0.50 24.96-0.27C24.96-0.02 25.15 0.16 25.39 0.16Z" fill="currentColor"/>
</svg>