<svg xmlns="http://www.w3.org/2000/svg" viewBox="0 0 24 24" width="24" height="24">
  
  <path transform="matrix(0.8209074875741542, 0, 0, 0.8209074875741542, -0.45310245310245323, 18.940836940836938)" d="M18.21-20.34L6.45-20.34C4.16-20.34 2.99-19.18 2.99-16.92L2.99-5.09C2.99-2.84 4.16-1.66 6.45-1.66L18.21-1.66C20.51-1.66 21.67-2.82 21.67-5.09L21.67-16.92C21.67-19.20 20.51-20.34 18.21-20.34ZM8.61-5.57C8.16-5.57 7.88-5.87 7.88-6.39L7.88-15.76C7.88-16.28 8.16-16.58 8.61-16.58C9.09-16.58 9.36-16.29 9.36-15.76L9.36-11.86L15.28-11.86L15.28-15.76C15.28-16.28 15.56-16.58 16.02-16.58C16.50-16.58 16.78-16.29 16.78-15.76L16.78-6.39C16.78-5.87 16.50-5.57 16.02-5.57C15.56-5.57 15.28-5.87 15.28-6.39L15.28-10.66L9.36-10.66L9.36-6.39C9.36-5.87 9.09-5.57 8.61-5.57ZM27.35-11.81C27.35-14.09 26.19-15.25 23.89-15.25L23.03-15.25L23.03-5.09C23.03-2.06 21.26-0.30 18.21-0.30L8.67-0.30L8.67 0.01C8.67 2.27 9.84 3.43 12.13 3.43L23.89 3.43C26.19 3.43 27.35 2.29 27.35 0.01Z" fill="currentColor"/>
</svg>