<svg xmlns="http://www.w3.org/2000/svg" viewBox="0 0 24 24" width="24" height="24">
  <title>hand.thumbsdown.hand.thumbsup</title>
  <path transform="matrix(0.6185816116950585, 0, 0, 0.6185816116950585, 0.15150416817687584, 17.230155853570132)" d="M22.78-16.17C22.78-19.36 20.68-21.98 18.20-21.98L15.08-21.98C13.86-22.62 12.39-22.98 10.73-22.98L9.42-22.98C8.23-22.98 7.22-22.93 6.55-22.76C5.31-22.44 4.51-21.57 4.51-20.48C4.51-20.21 4.56-19.97 4.64-19.75C3.97-19.29 3.60-18.56 3.60-17.80C3.60-17.39 3.68-16.98 3.84-16.68C3.39-16.28 3.12-15.60 3.12-14.91C3.12-14.45 3.23-13.96 3.45-13.63C3.15-13.25 2.99-12.71 2.99-12.15C2.99-10.80 4.04-9.73 5.39-9.73L8.93-9.73C9.28-9.73 9.48-9.57 9.48-9.30C9.48-8.24 7.88-5.84 7.88-3.93C7.88-2.68 8.74-1.79 9.94-1.79C10.82-1.79 11.40-2.26 11.99-3.39C13.17-5.68 14.36-7.30 16.75-10.31L18.56-10.31C20.87-10.31 22.78-12.90 22.78-16.17ZM17.46-16.14C17.46-14.07 17.00-12.76 15.69-11.02C14.25-9.09 12.28-6.82 10.85-3.96C10.49-3.23 10.27-3.06 9.89-3.06C9.45-3.06 9.14-3.38 9.14-3.93C9.14-5.48 10.76-7.83 10.76-9.30C10.76-10.35 9.90-11.00 8.79-11.00L5.39-11.00C4.75-11.00 4.25-11.50 4.25-12.15C4.25-12.60 4.38-12.88 4.70-13.20C4.95-13.39 4.97-13.68 4.77-13.90C4.51-14.24 4.38-14.52 4.38-14.91C4.38-15.36 4.59-15.74 4.98-16.03C5.25-16.22 5.38-16.51 5.19-16.84C4.98-17.21 4.86-17.45 4.86-17.80C4.86-18.30 5.17-18.69 5.82-19.02C6.07-19.15 6.15-19.38 6.02-19.65C5.81-20.11 5.79-20.24 5.79-20.48C5.79-20.95 6.12-21.34 6.84-21.52C7.42-21.67 8.31-21.73 9.41-21.73L10.66-21.73C14.74-21.70 17.46-19.39 17.46-16.14ZM21.50-16.17C21.50-13.59 20.10-11.58 18.56-11.58L17.59-11.58C18.40-12.98 18.73-14.38 18.73-16.14C18.73-17.95 18.04-19.55 16.78-20.71L18.20-20.71C19.95-20.71 21.50-18.68 21.50-16.17ZM15.54-0.74C15.54 2.45 17.63 5.07 20.12 5.07L23.23 5.07C24.45 5.71 25.93 6.07 27.57 6.07L28.89 6.07C30.08 6.07 31.10 6.01 31.77 5.85C33.01 5.53 33.80 4.66 33.80 3.56C33.80 3.30 33.75 3.06 33.67 2.84C34.34 2.38 34.72 1.66 34.72 0.89C34.72 0.48 34.63 0.07 34.48-0.23C34.92-0.63 35.19-1.31 35.19-2.00C35.19-2.46 35.07-2.95 34.88-3.28C35.16-3.66 35.32-4.20 35.32-4.76C35.32-6.11 34.27-7.18 32.92-7.18L29.38-7.18C29.04-7.18 28.83-7.34 28.83-7.61C28.83-8.67 30.45-11.07 30.45-12.98C30.45-14.23 29.58-15.12 28.37-15.12C27.50-15.12 26.92-14.65 26.32-13.52C25.14-11.23 23.95-9.61 21.56-6.60L19.75-6.60C17.44-6.60 15.54-4.01 15.54-0.74ZM20.86-0.77C20.86-2.84 21.32-4.15 22.62-5.88C24.06-7.82 26.04-10.10 27.46-12.95C27.82-13.66 28.05-13.85 28.42-13.85C28.88-13.85 29.17-13.54 29.17-12.98C29.17-11.43 27.55-9.08 27.55-7.61C27.55-6.56 28.41-5.91 29.52-5.91L32.92-5.91C33.57-5.91 34.05-5.41 34.05-4.76C34.05-4.32 33.93-4.04 33.60-3.71C33.38-3.53 33.35-3.23 33.55-3.01C33.81-2.67 33.93-2.39 33.93-2.00C33.93-1.55 33.73-1.17 33.33-0.88C33.06-0.69 32.94-0.40 33.12-0.07C33.34 0.30 33.45 0.54 33.45 0.89C33.45 1.41 33.14 1.78 32.50 2.11C32.25 2.24 32.16 2.47 32.30 2.74C32.50 3.20 32.53 3.33 32.53 3.56C32.53 4.05 32.19 4.43 31.46 4.61C30.90 4.76 30.01 4.82 28.90 4.82L27.66 4.82C23.57 4.79 20.86 2.48 20.86-0.77ZM16.82-0.74C16.82-3.32 18.21-5.33 19.75-5.33L20.72-5.33C19.92-3.93 19.58-2.53 19.58-0.77C19.58 1.05 20.29 2.64 21.54 3.80L20.12 3.80C18.36 3.80 16.82 1.77 16.82-0.74Z" fill="currentColor"/>
</svg>