<svg xmlns="http://www.w3.org/2000/svg" viewBox="0 0 24 24" width="24" height="24">
  <title>hand.tap</title>
  <path transform="matrix(0.7864206074274577, 0, 0, 0.7864206074274577, 1.9164736701298553, 19.860349263997026)" d="M7.56-22.71C4.54-22.71 2.10-20.27 2.10-17.26C2.10-15.98 2.54-14.78 3.30-13.83C3.47-13.63 3.66-13.56 3.84-13.56C4.30-13.56 4.69-14.09 4.30-14.55C3.68-15.29 3.32-16.24 3.32-17.26C3.32-19.61 5.21-21.49 7.56-21.49C9.90-21.49 11.79-19.61 11.79-17.26L11.79-17.05C11.79-16.63 12.08-16.44 12.38-16.44C12.69-16.44 12.97-16.66 13.00-16.99C13.00-17.06 13.00-17.14 13.00-17.26C13.00-20.27 10.56-22.71 7.56-22.71ZM18.28 2.14C22.68 0.56 24.71-3.43 22.86-8.53L22.04-10.78C21.13-13.31 19.49-14.33 17.51-13.64C16.99-14.33 16.17-14.59 15.27-14.26C14.93-14.13 14.63-13.96 14.33-13.72C13.78-14.47 12.90-14.74 11.96-14.40C11.70-14.31 11.43-14.14 11.16-13.96L9.79-17.75C9.32-19.04 8.14-19.56 6.98-19.14C5.80-18.70 5.25-17.57 5.71-16.28L9.21-6.67C9.23-6.61 9.22-6.56 9.16-6.54C9.12-6.52 9.08-6.54 9.04-6.59L7.24-8.58C6.57-9.29 5.80-9.49 5.06-9.23C4.07-8.87 3.42-7.90 3.83-6.77C3.95-6.47 4.16-6.11 4.38-5.82L8.43-0.93C11.20 2.45 14.57 3.50 18.28 2.14ZM17.89 0.96C14.80 2.09 11.88 1.38 9.35-1.69L5.32-6.57C5.19-6.73 5.10-6.87 5.03-7.08C4.86-7.51 5.06-7.99 5.57-8.17C5.95-8.32 6.32-8.17 6.66-7.79L9.35-4.95C9.73-4.54 10.09-4.49 10.44-4.62C10.86-4.77 11.06-5.19 10.89-5.66L6.84-16.76C6.64-17.32 6.86-17.84 7.39-18.04C7.92-18.22 8.40-17.96 8.60-17.40L11.46-9.53C11.58-9.21 11.92-9.05 12.23-9.16C12.56-9.28 12.70-9.62 12.57-9.94L11.53-12.81C11.73-12.98 11.99-13.16 12.23-13.24C12.86-13.46 13.37-13.20 13.62-12.52L14.47-10.16C14.61-9.80 14.95-9.68 15.26-9.79C15.55-9.89 15.73-10.20 15.59-10.56L14.82-12.67C15.02-12.84 15.28-13.01 15.53-13.10C16.15-13.32 16.68-13.07 16.92-12.38L17.50-10.78C17.63-10.41 17.98-10.29 18.28-10.41C18.56-10.50 18.74-10.82 18.61-11.18L18.13-12.53C19.25-12.94 20.25-12.12 20.94-10.21L21.67-8.23C23.30-3.74 21.69-0.42 17.89 0.96Z" fill="currentColor"/>
</svg>