<svg xmlns="http://www.w3.org/2000/svg" viewBox="0 0 24 24" width="24" height="24">
  <title>heart.slash.circle</title>
  <path transform="matrix(0.8507809903622466, 0, 0, 0.8507809903622466, 0.21535393818544368, 19.19840478564307)" d="M13.85 3.29C20.34 3.29 25.61-1.97 25.61-8.46C25.61-14.95 20.34-20.21 13.85-20.21C7.36-20.21 2.10-14.95 2.10-8.46C2.10-1.97 7.36 3.29 13.85 3.29ZM13.85 1.77C8.19 1.77 3.62-2.80 3.62-8.46C3.62-14.12 8.19-18.70 13.85-18.70C19.51-18.70 24.09-14.12 24.09-8.46C24.09-2.80 19.51 1.77 13.85 1.77ZM19.55-2.13C19.72-1.96 20.02-1.95 20.19-2.13C20.37-2.32 20.37-2.59 20.19-2.78L8.13-14.82C7.96-15.01 7.66-15.01 7.49-14.82C7.31-14.65 7.31-14.36 7.49-14.19ZM10.48-13.58L18.13-5.92C19.22-7.16 20.05-8.60 20.05-10.15C20.05-12.18 18.62-13.66 16.65-13.66C15.42-13.66 14.40-12.91 13.84-11.89C13.28-12.91 12.28-13.66 11.03-13.66C10.83-13.66 10.64-13.64 10.48-13.58ZM16.39-4.24L8.31-12.30C7.89-11.73 7.63-10.98 7.63-10.15C7.63-6.95 11.06-4.04 13.34-2.65C13.51-2.54 13.72-2.41 13.85-2.41C13.98-2.41 14.19-2.53 14.34-2.65C14.94-3.07 15.67-3.62 16.39-4.24Z" fill="currentColor"/>
</svg>