<svg xmlns="http://www.w3.org/2000/svg" viewBox="0 0 24 24" width="24" height="24">
  <title>heat.waves.circle.fill</title>
  <path transform="matrix(0.8507809903622466, 0, 0, 0.8507809903622466, 0.21535393818544368, 19.178464606181457)" d="M13.85 3.32C20.33 3.32 25.61-1.96 25.61-8.44C25.61-14.91 20.33-20.19 13.85-20.19C7.37-20.19 2.10-14.91 2.10-8.44C2.10-1.96 7.37 3.32 13.85 3.32ZM16.50-12.80L17.82-14.67C18.02-15 18.38-14.99 18.59-14.67L19.89-12.80C20.11-12.48 19.93-12.11 19.55-12.11L18.73-12.11L18.73-12.05C18.73-10.21 19.95-9.84 19.95-8.21C19.95-6.59 18.41-6.11 18.41-4.52C18.41-3.91 18.53-3.56 18.96-2.99C19.41-2.40 18.59-1.84 18.14-2.38C17.58-3.09 17.38-3.66 17.38-4.48C17.38-6.60 18.93-7.13 18.93-8.21C18.93-9.30 17.71-9.80 17.71-12.05L17.71-12.11L16.86-12.11C16.46-12.11 16.30-12.48 16.50-12.80ZM12.15-12.77L13.45-14.65C13.66-14.96 14.03-14.96 14.23-14.65L15.52-12.77C15.74-12.46 15.57-12.08 15.19-12.08L14.36-12.08L14.36-12.02C14.36-10.18 15.59-9.82 15.59-8.19C15.59-6.57 14.04-6.08 14.04-4.50C14.04-3.90 14.18-3.55 14.59-2.98C15.04-2.38 14.20-1.83 13.78-2.36C13.22-3.07 13.01-3.62 13.01-4.45C13.01-6.57 14.55-7.10 14.55-8.19C14.55-9.28 13.34-9.79 13.34-12.02L13.34-12.08L12.49-12.08C12.11-12.08 11.94-12.46 12.15-12.77ZM7.79-12.75L9.11-14.64C9.32-14.94 9.67-14.94 9.86-14.64L11.18-12.75C11.39-12.43 11.23-12.07 10.83-12.07L10.00-12.07L10.00-12C10.00-10.16 11.23-9.81 11.23-8.17C11.23-6.55 9.67-6.07 9.67-4.48C9.67-3.87 9.81-3.53 10.24-2.95C10.69-2.37 9.83-1.80 9.41-2.33C8.86-3.06 8.67-3.62 8.67-4.43C8.67-6.55 10.20-7.07 10.20-8.17C10.20-9.26 8.96-9.76 8.96-12L8.96-12.07L8.13-12.07C7.75-12.07 7.58-12.45 7.79-12.75Z" fill="currentColor"/>
</svg>