<svg xmlns="http://www.w3.org/2000/svg" viewBox="0 0 24 24" width="24" height="24">
  <title>helm</title>
  <path transform="matrix(0.7149839407903924, 0, 0, 0.7149839407903924, 0.5002094679514035, 18.036866359447004)" d="M7.13 1.44L8.79-0.22C10.58 1.36 12.89 2.37 15.43 2.52L15.43 4.88C15.43 5.24 15.71 5.54 16.08 5.54C16.45 5.54 16.73 5.24 16.73 4.88L16.73 2.52C19.28 2.37 21.59 1.36 23.38-0.22L25.04 1.44C25.31 1.70 25.72 1.71 25.97 1.45C26.24 1.18 26.24 0.77 25.97 0.50L24.30-1.16C25.89-2.94 26.91-5.25 27.05-7.79L29.41-7.79C29.78-7.79 30.07-8.07 30.07-8.44C30.07-8.82 29.78-9.11 29.41-9.11L27.05-9.11C26.91-11.65 25.89-13.95 24.30-15.74L25.97-17.40C26.24-17.67 26.24-18.08 25.98-18.33C25.72-18.61 25.31-18.60 25.04-18.33L23.38-16.66C21.59-18.26 19.28-19.27 16.73-19.42L16.73-21.77C16.73-22.14 16.45-22.43 16.08-22.43C15.71-22.43 15.43-22.14 15.43-21.77L15.43-19.42C12.89-19.27 10.58-18.26 8.79-16.66L7.13-18.33C6.87-18.60 6.46-18.61 6.19-18.33C5.93-18.08 5.93-17.67 6.20-17.40L7.86-15.74C6.28-13.96 5.27-11.65 5.12-9.11L2.77-9.11C2.39-9.11 2.10-8.82 2.10-8.44C2.10-8.07 2.39-7.79 2.77-7.79L5.12-7.79C5.27-5.25 6.28-2.94 7.86-1.16L6.20 0.50C5.93 0.77 5.93 1.18 6.20 1.45C6.46 1.71 6.87 1.70 7.13 1.44ZM16.73-17.95C18.88-17.81 20.82-16.96 22.34-15.63L16.73-10.03ZM9.83-15.63C11.34-16.96 13.29-17.81 15.43-17.95L15.43-10.03ZM17.67-9.11L23.27-14.71C24.60-13.18 25.44-11.24 25.59-9.11ZM6.57-9.11C6.73-11.24 7.57-13.18 8.89-14.71L14.50-9.11ZM6.57-7.79L14.50-7.79L8.89-2.19C7.57-3.71 6.73-5.66 6.57-7.79ZM17.67-7.79L25.59-7.79C25.44-5.66 24.60-3.71 23.27-2.19ZM9.83-1.27L15.43-6.87L15.43 1.05C13.29 0.91 11.34 0.06 9.83-1.27ZM16.73-6.87L22.34-1.27C20.82 0.06 18.88 0.91 16.73 1.05Z" fill="currentColor"/>
</svg>