<svg xmlns="http://www.w3.org/2000/svg" viewBox="0 0 24 24" width="24" height="24">
  <title>hexagon.righthalf.filled</title>
  <path transform="matrix(0.777170613236187, 0, 0, 0.777170613236187, 0.7750455373406209, 18.57103825136612)" d="M24.70-1.16C25.45-1.59 25.90-2.36 25.90-3.23L25.90-13.69C25.90-14.57 25.45-15.33 24.70-15.76L15.64-20.99C14.88-21.43 14.00-21.43 13.24-20.99L4.18-15.76C3.43-15.33 2.99-14.57 2.99-13.69L2.99-3.23C2.99-2.36 3.43-1.59 4.18-1.16L13.24 4.08C14.00 4.52 14.88 4.52 15.64 4.08ZM14.44 2.91C14.21 2.91 14.00 2.85 13.80 2.73L5.07-2.33C4.68-2.57 4.44-2.98 4.44-3.42L4.44-13.50C4.44-13.96 4.68-14.36 5.07-14.59L13.82-19.65C14.00-19.77 14.23-19.83 14.44-19.83Z" fill="currentColor"/>
</svg>