<svg xmlns="http://www.w3.org/2000/svg" viewBox="0 0 24 24" width="24" height="24">
  <title>hifispeaker.2</title>
  <path transform="matrix(0.7554965323889626, 0, 0, 0.7554965323889626, -0.014165559982291853, 18.396635679504204)" d="M5.78-2.36L10.77-2.36L10.77-3.74L5.87-3.74C4.90-3.74 4.37-4.28 4.37-5.20L4.37-18.84C4.37-19.77 4.90-20.32 5.87-20.32L14.31-20.32C14.91-20.32 15.35-20.02 15.49-19.49L15.50-19.25C15.74-19.29 16.02-19.30 16.23-19.30L17.12-19.30L17.10-19.63C16.85-20.89 15.96-21.70 14.40-21.70L5.78-21.70C3.98-21.70 2.99-20.71 2.99-18.89L2.99-5.16C2.99-3.34 3.98-2.36 5.78-2.36ZM8.07-16.64C8.07-15.40 9.08-14.39 10.32-14.39C10.55-14.39 10.66-14.41 10.77-14.44L10.77-14.74C10.77-15.01 10.79-15.27 10.82-15.47C10.73-15.42 10.55-15.39 10.32-15.39C9.62-15.39 9.06-15.93 9.06-16.64C9.06-17.33 9.62-17.89 10.32-17.89C10.76-17.89 11.19-17.65 11.37-17.39C11.50-17.65 11.75-17.99 11.95-18.18C11.60-18.59 10.99-18.88 10.32-18.88C9.08-18.88 8.07-17.87 8.07-16.64ZM12.14-14.95L12.14 1.79C12.14 3.74 13.13 4.77 15.08 4.77L25.86 4.77C27.82 4.77 28.82 3.74 28.82 1.79L28.82-14.95C28.82-16.92 27.82-17.94 25.86-17.94L15.08-17.94C13.11-17.94 12.14-16.92 12.14-14.95ZM13.58-14.94C13.58-15.97 14.10-16.49 15.13-16.49L25.80-16.49C26.84-16.49 27.36-15.97 27.36-14.94L27.36 1.77C27.36 2.80 26.84 3.33 25.80 3.33L15.13 3.33C14.11 3.33 13.58 2.80 13.58 1.77ZM20.47-9.61C21.87-9.61 22.99-10.73 22.99-12.13C22.99-13.51 21.87-14.61 20.47-14.61C19.09-14.61 17.96-13.52 17.96-12.13C17.96-10.72 19.08-9.61 20.47-9.61ZM20.47-10.69C19.68-10.69 19.04-11.33 19.04-12.13C19.04-12.94 19.66-13.56 20.47-13.56C21.26-13.56 21.90-12.91 21.90-12.13C21.90-11.33 21.27-10.69 20.47-10.69ZM6.19-9.22C6.19-6.96 8.02-5.13 10.29-5.13C10.49-5.13 10.65-5.14 10.77-5.16L10.77-7.46C10.66-7.45 10.48-7.43 10.29-7.43C9.28-7.43 8.50-8.21 8.50-9.21C8.50-10.21 9.29-10.99 10.31-10.99C10.48-10.99 10.66-10.97 10.77-10.95L10.77-13.28C10.66-13.28 10.52-13.31 10.29-13.31C8.03-13.31 6.19-11.47 6.19-9.22ZM20.47 1.46C23.03 1.46 25.10-0.60 25.10-3.16C25.10-5.73 23.03-7.78 20.47-7.78C17.92-7.78 15.86-5.72 15.86-3.16C15.86-0.60 17.92 1.46 20.47 1.46ZM20.47-1.11C19.35-1.11 18.42-2.02 18.42-3.16C18.42-4.34 19.32-5.23 20.47-5.23C21.63-5.23 22.54-4.34 22.54-3.16C22.54-2.02 21.63-1.11 20.47-1.11Z" fill="currentColor"/>
</svg>