<svg xmlns="http://www.w3.org/2000/svg" viewBox="0 0 24 24" width="24" height="24">
  
  <path transform="matrix(0.6658863311223826, 0, 0, 0.6658863311223826, 0.010144362075692692, 17.868123293015998)" d="M5.88-1.82L11.14-1.82C11.00-2.27 10.90-2.73 10.83-3.20L5.98-3.20C4.95-3.20 4.37-3.79 4.37-4.78L4.37-19.09C4.37-20.10 4.95-20.68 5.98-20.68L15.84-20.68C16.88-20.68 17.45-20.10 17.45-19.09L17.45-15.32C17.88-15.47 18.34-15.60 18.83-15.69L18.83-19.15C18.83-21.02 17.80-22.05 15.94-22.05L5.88-22.05C4.02-22.05 2.99-21.02 2.99-19.15L2.99-4.73C2.99-2.85 4.02-1.82 5.88-1.82ZM10.91-14.46C12.18-14.46 13.23-15.49 13.23-16.78C13.23-18.06 12.19-19.10 10.91-19.10C9.63-19.10 8.59-18.06 8.59-16.78C8.59-15.49 9.64-14.46 10.91-14.46ZM10.91-15.43C10.17-15.43 9.56-16.04 9.56-16.78C9.56-17.52 10.17-18.12 10.91-18.12C11.65-18.12 12.26-17.52 12.26-16.78C12.26-16.04 11.65-15.43 10.91-15.43ZM22.49-11.80C25.51-11.80 27.55-12.39 27.55-13.22C27.55-14.07 25.51-14.66 22.49-14.66C19.46-14.66 17.43-14.07 17.43-13.22C17.43-12.39 19.46-11.80 22.49-11.80ZM6.55-8.98C6.55-6.66 8.34-4.76 10.63-4.62C10.58-5.24 10.62-6.40 10.71-7.03C9.70-7.11 8.94-7.95 8.94-8.99C8.94-10.08 9.82-10.96 10.92-10.96C11.26-10.96 11.60-10.88 11.87-10.71C12.23-11.43 12.69-12.09 13.22-12.69C12.53-13.10 11.77-13.35 10.92-13.35C8.50-13.35 6.55-11.39 6.55-8.98ZM22.49 4.43C26.57 4.43 28.10 3.88 29.57 2.52C31.72 0.54 33.02-2.33 33.02-5.41C33.02-8.11 32.04-10.55 30.23-12.26C29.84-12.70 29.20-12.76 28.75-12.41C27.77-11.34 26.09-10.62 22.49-10.62C18.90-10.62 17.21-11.34 16.23-12.41C15.77-12.76 15.15-12.71 14.75-12.26C12.94-10.55 11.96-8.12 11.96-5.41C11.96-2.33 13.25 0.54 15.41 2.52C16.88 3.88 18.42 4.43 22.49 4.43ZM22.49 2.92C19.04 2.92 17.71 2.57 16.45 1.39C14.57-0.34 13.50-2.80 13.50-5.41C13.50-7.38 14.09-9.28 15.48-10.86C16.78-9.74 19.08-9.09 22.49-9.09C25.91-9.09 28.20-9.74 29.50-10.86C30.90-9.29 31.50-7.38 31.50-5.41C31.50-2.80 30.42-0.34 28.52 1.39C27.27 2.57 25.95 2.92 22.49 2.92Z" fill="currentColor"/>
</svg>