<svg xmlns="http://www.w3.org/2000/svg" viewBox="0 0 24 24" width="24" height="24">
  <title>homepod.and.homepod.mini</title>
  <path transform="matrix(0.6658863311223826, 0, 0, 0.6658863311223826, 0.010144362075692692, 17.622317596566525)" d="M12.21-18.79C15.22-18.79 17.75-19.44 17.75-20.38C17.75-21.33 15.22-21.96 12.21-21.96C9.21-21.96 6.67-21.33 6.67-20.38C6.67-19.44 9.21-18.79 12.21-18.79ZM2.99-5.66C2.99-0.07 6.40 1.68 12.45 1.68C12.16 1.21 11.93 0.71 11.74 0.21C6.56 0.11 4.44-1.77 4.44-5.82L4.44-14.50C4.44-15.67 4.68-16.73 5.31-17.66C6.59-16.48 9.14-15.98 12.21-15.98C15.28-15.98 17.84-16.48 19.13-17.66C19.64-17.02 19.97-16.05 19.97-15.22L19.97-15.21C20.44-15.28 20.91-15.33 21.42-15.35C21.29-17.19 20.65-18.41 19.98-19.20C19.71-19.50 19.30-19.50 19.01-19.22C17.96-18.14 15.23-17.43 12.21-17.43C9.19-17.43 6.47-18.14 5.43-19.22C5.12-19.50 4.72-19.50 4.45-19.20C3.69-18.30 2.99-16.85 2.99-14.57ZM22.49-11.16C25.51-11.16 27.55-11.73 27.55-12.57C27.55-13.43 25.51-14.00 22.49-14.00C19.46-14.00 17.43-13.43 17.43-12.57C17.43-11.73 19.46-11.16 22.49-11.16ZM22.49 5.07C26.57 5.07 28.10 4.52 29.57 3.16C31.72 1.20 33.02-1.69 33.02-4.77C33.02-7.46 32.04-9.89 30.23-11.61C29.84-12.06 29.20-12.12 28.75-11.75C27.77-10.70 26.09-9.97 22.49-9.97C18.90-9.97 17.21-10.70 16.23-11.75C15.77-12.12 15.15-12.07 14.75-11.61C12.94-9.89 11.96-7.48 11.96-4.77C11.96-1.69 13.25 1.20 15.41 3.16C16.88 4.52 18.42 5.07 22.49 5.07ZM22.49 3.56C19.04 3.56 17.71 3.22 16.45 2.04C14.57 0.30 13.50-2.16 13.50-4.77C13.50-6.74 14.09-8.64 15.48-10.22C16.78-9.09 19.08-8.44 22.49-8.44C25.91-8.44 28.20-9.09 29.50-10.22C30.90-8.65 31.50-6.74 31.50-4.77C31.50-2.16 30.42 0.30 28.52 2.04C27.27 3.22 25.95 3.56 22.49 3.56Z" fill="currentColor"/>
</svg>