<svg xmlns="http://www.w3.org/2000/svg" viewBox="0 0 24 24" width="24" height="24">
  
  <path transform="matrix(0.7210252077172229, 0, 0, 0.7210252077172229, 0.48753696662441914, 18.135855732715157)" d="M15.96-15.18C18.07-15.18 20.02-14.45 21.55-13.23C21.80-13.04 22.10-13.07 22.32-13.29L24.91-15.87C25.18-16.14 25.17-16.52 24.89-16.77C22.48-18.80 19.36-20.03 15.96-20.03C12.57-20.03 9.45-18.80 7.04-16.77C6.75-16.52 6.75-16.14 7.02-15.87L9.61-13.29C9.83-13.07 10.15-13.04 10.41-13.25C11.94-14.45 13.88-15.18 15.96-15.18ZM2.10-6.15C2.10-2.75 3.33 0.38 5.37 2.79C5.61 3.07 6 3.08 6.27 2.81L8.89 0.18C9.08-0.04 9.11-0.30 8.93-0.53C7.68-2.12 6.95-4.05 6.95-6.15C6.95-8.26 7.66-10.18 8.88-11.72C9.07-11.98 9.07-12.29 8.84-12.52L6.26-15.11C6-15.36 5.60-15.38 5.37-15.08C3.32-12.67 2.10-9.55 2.10-6.15ZM29.84-6.15C29.84-9.55 28.61-12.67 26.57-15.08C26.33-15.38 25.93-15.36 25.66-15.11L23.09-12.52C22.86-12.29 22.85-11.98 23.05-11.72C24.26-10.18 24.98-8.26 24.98-6.15C24.98-4.05 24.26-2.12 23.00-0.53C22.83-0.30 22.84-0.04 23.04 0.18L25.66 2.81C25.92 3.08 26.32 3.07 26.55 2.79C28.61 0.38 29.84-2.75 29.84-6.15ZM11.86-7.15C11.86-6.96 12-6.81 12.19-6.81L19.71-6.81C19.90-6.81 20.04-6.96 20.04-7.15C20.04-7.34 19.90-7.49 19.71-7.49L18.63-7.49C19.00-7.83 19.21-8.29 19.21-8.75C19.21-10.43 17.58-11.25 15.90-11.25C14.87-11.25 13.69-10.91 13.01-9.82C12.87-9.59 12.80-9.36 12.80-9.14C12.80-8.86 12.98-8.67 13.28-8.67C13.54-8.67 13.66-8.78 13.78-9C14.16-9.90 15-10.29 15.93-10.29C17.06-10.29 18.11-9.77 18.11-8.68C18.11-8.27 17.92-7.76 17.45-7.49L12.19-7.49C12-7.49 11.86-7.34 11.86-7.15ZM11.86-5.29C11.86-5.10 12-4.96 12.19-4.96L13.28-4.96C12.81-4.58 12.52-4.03 12.52-3.43C12.52-1.75 14.26-0.90 15.96-0.90C17.32-0.90 18.56-1.41 19.14-2.50C19.25-2.72 19.36-2.99 19.36-3.19C19.36-3.48 19.15-3.67 18.84-3.67C18.60-3.67 18.45-3.54 18.34-3.29C17.96-2.30 17.04-1.85 15.94-1.85C14.74-1.85 13.62-2.46 13.62-3.48C13.62-4.16 13.98-4.65 14.54-4.96L19.71-4.96C19.90-4.96 20.04-5.10 20.04-5.29C20.04-5.48 19.90-5.63 19.71-5.63L12.19-5.63C12-5.63 11.86-5.48 11.86-5.29Z" fill="currentColor"/>
</svg>