<svg xmlns="http://www.w3.org/2000/svg" viewBox="0 0 24 24" width="24" height="24">
  
  <path transform="matrix(0.8016985287501921, 0, 0, 0.8016985287501921, -0.3974526469584907, 18.04562113184471)" d="M7.57-11.80C12.62-11.80 15.55-16.23 20.44-16.23C21.69-16.23 22.76-15.95 23.94-15.26C24.34-15.05 24.70-15.19 24.89-15.46C25.11-15.79 25.09-16.27 24.60-16.56C23.26-17.32 21.95-17.67 20.44-17.67C15.16-17.67 12.30-13.25 7.57-13.25C6.32-13.25 5.25-13.54 4.07-14.21C3.67-14.44 3.30-14.29 3.12-14.00C2.91-13.69 2.93-13.20 3.41-12.93C4.73-12.15 6.06-11.80 7.57-11.80ZM22.92 2.59C25.71 2.59 27.94 0.41 27.94-2.31C27.94-3.83 27.19-5.33 26.52-6.57L23.85-11.55C23.60-12 23.37-12.20 22.92-12.20C22.48-12.20 22.23-12 21.98-11.55L19.32-6.57C18.66-5.33 17.91-3.83 17.91-2.31C17.91 0.41 20.13 2.59 22.92 2.59ZM7.58-5.52C12.28-5.52 15.14-9.36 19.50-9.83C19.77-10.35 20.05-10.86 20.33-11.38C14.84-11.21 12.32-6.96 7.58-6.96C6.33-6.96 5.26-7.25 4.08-7.93C3.68-8.14 3.32-8.00 3.13-7.72C2.92-7.41 2.94-6.91 3.42-6.64C4.76-5.87 6.07-5.52 7.58-5.52ZM22.92 1.37C20.81 1.37 19.13-0.26 19.13-2.31C19.13-3.55 19.76-4.76 20.41-5.99L22.79-10.43C22.86-10.55 22.99-10.55 23.06-10.43L25.42-5.99C26.09-4.76 26.72-3.55 26.72-2.31C26.72-0.26 25.03 1.37 22.92 1.37ZM7.57 0.76C11.16 0.76 13.70-1.50 16.63-2.75C16.61-3.18 16.72-3.87 16.89-4.41C13.62-3.20 11.12-0.68 7.57-0.68C6.32-0.68 5.25-0.96 4.07-1.65C3.67-1.86 3.30-1.72 3.12-1.44C2.91-1.13 2.93-0.63 3.41-0.35C4.73 0.41 6.06 0.76 7.57 0.76Z" fill="currentColor"/>
</svg>