<svg xmlns="http://www.w3.org/2000/svg" viewBox="0 0 24 24" width="24" height="24">
  
  <path transform="matrix(0.8507809903622466, 0, 0, 0.8507809903622466, 0.21535393818544368, 19.19840478564307)" d="M13.85 3.29C20.34 3.29 25.61-1.97 25.61-8.46C25.61-14.95 20.34-20.21 13.85-20.21C7.36-20.21 2.10-14.95 2.10-8.46C2.10-1.97 7.36 3.29 13.85 3.29ZM13.85 1.77C8.19 1.77 3.62-2.80 3.62-8.46C3.62-14.12 8.19-18.70 13.85-18.70C19.51-18.70 24.09-14.12 24.09-8.46C24.09-2.80 19.51 1.77 13.85 1.77ZM10.15-8.46C10.15-6.43 11.84-4.75 13.85-4.75C14.58-4.75 15.25-5.00 15.77-5.41C14.70-3.29 12.47-1.96 9.79-1.96C9.46-1.96 9.21-1.71 9.21-1.41C9.21-1.11 9.46-0.87 9.79-0.87C14.12-0.87 17.55-4.00 17.55-8.46C17.55-10.49 15.88-12.18 13.85-12.18C13.13-12.18 12.46-11.93 11.92-11.51C13.00-13.62 15.23-14.98 17.92-14.98C18.25-14.98 18.49-15.21 18.49-15.52C18.49-15.82 18.25-16.05 17.92-16.05C13.58-16.05 10.15-12.93 10.15-8.46ZM12.75-8.46C12.75-9.07 13.25-9.56 13.85-9.56C14.46-9.56 14.95-9.07 14.95-8.46C14.95-7.88 14.46-7.36 13.85-7.36C13.25-7.36 12.75-7.86 12.75-8.46Z" fill="currentColor"/>
</svg>