<svg xmlns="http://www.w3.org/2000/svg" viewBox="0 0 24 24" width="24" height="24">
  
  <path transform="matrix(0.8498263513058957, 0, 0, 0.8498263513058957, -0.539520151363321, 19.205265998083778)" d="M3.71 2.39C4.13 2.39 4.44 2.06 4.44 1.65L4.44-18.62C4.44-19.03 4.13-19.35 3.71-19.35C3.30-19.35 2.99-19.03 2.99-18.62L2.99 1.65C2.99 2.06 3.30 2.39 3.71 2.39ZM9.67 2.39C10.08 2.39 10.39 2.06 10.39 1.65L10.39-18.62C10.39-19.03 10.08-19.35 9.67-19.35C9.26-19.35 8.94-19.03 8.94-18.62L8.94 1.65C8.94 2.06 9.26 2.39 9.67 2.39ZM15.62 2.39C16.03 2.39 16.35 2.06 16.35 1.65L16.35-18.62C16.35-19.03 16.03-19.35 15.62-19.35C15.21-19.35 14.89-19.03 14.89-18.62L14.89 1.65C14.89 2.06 15.21 2.39 15.62 2.39ZM22.44-5.14L26.04-7.56C26.70-7.99 26.67-8.91 26.04-9.34L22.44-11.80C21.60-12.36 20.72-12.06 20.73-11.05L20.73-5.88C20.72-4.91 21.64-4.62 22.44-5.14Z" fill="currentColor"/>
</svg>