<svg xmlns="http://www.w3.org/2000/svg" viewBox="0 0 24 24" width="24" height="24">
  <title>indianrupeesign.square</title>
  <path transform="matrix(0.9423891036259894, 0, 0, 0.9423891036259894, -0.8161236885698511, 19.967973495306463)" d="M6.45 2.16L20.75 2.16C23.04 2.16 24.21 0.98 24.21-1.27L24.21-15.64C24.21-17.89 23.04-19.07 20.75-19.07L6.45-19.07C4.16-19.07 2.99-17.91 2.99-15.64L2.99-1.27C2.99 1.00 4.16 2.16 6.45 2.16ZM6.47 0.70C5.16 0.70 4.44 0.01 4.44-1.35L4.44-15.56C4.44-16.92 5.16-17.61 6.47-17.61L20.72-17.61C22.02-17.61 22.76-16.92 22.76-15.56L22.76-1.35C22.76 0.01 22.02 0.70 20.72 0.70ZM12.32-7.59C14.13-7.59 15.60-8.45 15.81-10.27L16.76-10.27C16.95-10.27 17.10-10.42 17.10-10.59C17.10-10.78 16.95-10.92 16.76-10.92L15.83-10.92C15.77-11.71 15.45-12.46 14.77-12.94L16.76-12.94C16.95-12.94 17.10-13.09 17.10-13.27C17.10-13.46 16.95-13.61 16.76-13.61L10.36-13.61C10.11-13.61 9.96-13.44 9.96-13.17L9.96-13.10C9.96-12.83 10.11-12.67 10.36-12.67L12.33-12.67C13.56-12.67 14.52-12.15 14.67-10.92L10.31-10.92C10.11-10.92 9.97-10.78 9.97-10.59C9.97-10.42 10.11-10.27 10.31-10.27L14.66-10.27C14.51-9 13.51-8.54 12.25-8.54L10.59-8.54C10.22-8.54 9.98-8.31 9.98-7.99L9.98-7.96C9.98-7.69 10.11-7.51 10.34-7.31L14.48-3.45C14.65-3.29 14.78-3.18 15.02-3.18C15.32-3.18 15.53-3.41 15.53-3.67C15.53-3.86 15.42-3.98 15.29-4.11L11.55-7.59Z" fill="currentColor"/>
</svg>