<svg xmlns="http://www.w3.org/2000/svg" viewBox="0 0 24 24" width="24" height="24">
  <title>inhaler.fill</title>
  <path transform="matrix(0.758888180920283, 0, 0, 0.758888180920283, 3.02266571456052, 18.3791266201974)" d="M6.50-19.31C8.36-19.82 9.60-20.54 9.42-21.15C9.26-21.74 7.59-21.69 5.89-21.22C3.89-20.70 2.86-19.91 3-19.41C3.18-18.83 4.77-18.86 6.50-19.31ZM14.17 4.45L13.96 0.77C13.91-0.13 14.11-0.57 14.78-1.17L18.06-4.08L15.60-4.62C15.35-4.66 15.22-4.78 15.12-5.16L12.23-15.94C11.99-16.89 11.40-17.29 10.61-17.14L9.83-19.82C9.16-19.20 8.05-18.68 6.77-18.33C5.51-18 4.29-17.87 3.39-18L4.16-15.41C3.53-15.01 3.25-14.27 3.57-13.09L7.59 1.55C7.93 2.73 8.66 3.38 10.09 3.66ZM15.53 4.71C16.44 4.86 16.98 4.73 17.50 4.24L20.17 1.58C20.54 1.21 20.67 0.91 20.67 0.27L20.67-2.44C20.67-3.28 20.37-3.61 19.78-3.71L19.32-3.81L15.73-0.43C15.26 0 15.15 0.29 15.19 1.03L15.39 4.69Z" fill="currentColor"/>
</svg>