<svg xmlns="http://www.w3.org/2000/svg" viewBox="0 0 24 24" width="24" height="24">
  <title>inset.filled.topright.rectangle</title>
  <path transform="matrix(0.7287218901224025, 0, 0, 0.7287218901224025, -0.17762596071733583, 18.161400512382578)" d="M6.45 2.16L26.98 2.16C29.27 2.16 30.43 0.98 30.43-1.27L30.43-15.64C30.43-17.89 29.27-19.07 26.98-19.07L6.45-19.07C4.16-19.07 2.99-17.91 2.99-15.64L2.99-1.27C2.99 1.00 4.16 2.16 6.45 2.16ZM6.47 0.70C5.16 0.70 4.44 0.01 4.44-1.35L4.44-15.56C4.44-16.92 5.16-17.61 6.47-17.61L26.95-17.61C28.24-17.61 28.98-16.92 28.98-15.56L28.98-1.35C28.98 0.01 28.24 0.70 26.95 0.70ZM17.92-8.46L26.41-8.46C27.25-8.46 27.62-8.85 27.62-9.69L27.62-15.04C27.62-15.87 27.25-16.25 26.41-16.25L17.92-16.25C17.09-16.25 16.71-15.87 16.71-15.04L16.71-9.69C16.71-8.85 17.09-8.46 17.92-8.46Z" fill="currentColor"/>
</svg>