<svg xmlns="http://www.w3.org/2000/svg" viewBox="0 0 24 24" width="24" height="24">
  <title>inset.filled.pano</title>
  <path transform="matrix(0.689005517426995, 0, 0, 0.689005517426995, -0.05894226887363763, 17.81348405329027)" d="M4.65 1.17C6.76 1.17 10.28-1.31 17.51-1.31C24.69-1.31 28.27 1.16 30.35 1.16C31.42 1.16 32.02 0.53 32.02-0.62L32.02-16.25C32.02-17.40 31.42-18.05 30.35-18.05C28.27-18.05 24.69-15.56 17.51-15.56C10.32-15.56 6.75-18.05 4.65-18.05C3.59-18.05 2.99-17.41 2.99-16.27L2.99-0.62C2.99 0.53 3.59 1.17 4.65 1.17ZM4.83-0.34C4.58-0.34 4.44-0.46 4.44-0.75L4.44-16.14C4.44-16.42 4.58-16.55 4.83-16.55C6.19-16.55 10.22-14.19 17.51-14.19C24.79-14.19 28.98-16.55 30.18-16.55C30.43-16.55 30.57-16.42 30.57-16.14L30.57-0.75C30.57-0.46 30.43-0.34 30.18-0.34C28.82-0.34 24.79-2.68 17.51-2.68C10.18-2.68 6.04-0.34 4.83-0.34ZM17.51-4.11C23.12-4.11 27.02-2.82 28.83-2.19C29.03-2.13 29.20-2.27 29.20-2.48L29.20-14.48C29.20-14.70 29.03-14.84 28.83-14.78C27.02-14.14 23.12-12.86 17.51-12.86C11.82-12.86 7.97-14.14 6.18-14.77C5.98-14.84 5.80-14.70 5.80-14.48L5.80-2.48C5.80-2.27 5.98-2.13 6.18-2.20C7.97-2.82 11.82-4.11 17.51-4.11Z" fill="currentColor"/>
</svg>