<svg xmlns="http://www.w3.org/2000/svg" viewBox="0 0 24 24" width="24" height="24">
  <title>iphone.gen1.landscape</title>
  <path transform="matrix(0.8288813339808969, 0, 0, 0.8288813339808969, -0.4769305488101021, 19.013113161728995)" d="M24.16-1.32C25.99-1.32 27.12-2.48 27.12-4.37L27.12-12.55C27.12-14.44 25.99-15.60 24.16-15.60L5.95-15.60C4.11-15.60 2.99-14.44 2.99-12.55L2.99-4.37C2.99-2.48 4.11-1.32 5.95-1.32ZM23.40-2.78L6.70-2.78L6.70-14.16L23.40-14.16ZM4.91-6.46C4.68-6.46 4.51-6.62 4.51-6.86L4.51-10.08C4.51-10.31 4.68-10.48 4.91-10.48C5.13-10.48 5.30-10.31 5.30-10.08L5.30-6.86C5.30-6.62 5.13-6.46 4.91-6.46ZM26.04-8.47C26.04-7.96 25.61-7.52 25.08-7.52C24.56-7.52 24.14-7.96 24.14-8.47C24.14-9 24.56-9.42 25.08-9.42C25.61-9.42 26.04-9 26.04-8.47Z" fill="currentColor"/>
</svg>