<svg xmlns="http://www.w3.org/2000/svg" viewBox="0 0 24 24" width="24" height="24">
  <title>iphone.circle.fill</title>
  <path transform="matrix(0.8507809903622466, 0, 0, 0.8507809903622466, 0.21535393818544368, 19.188434695912264)" d="M13.85 3.30C20.33 3.30 25.61-1.97 25.61-8.45C25.61-14.93 20.33-20.20 13.85-20.20C7.37-20.20 2.10-14.93 2.10-8.45C2.10-1.97 7.37 3.30 13.85 3.30ZM11.31-0.80C10.09-0.80 9.34-1.52 9.34-2.72L9.34-14.17C9.34-15.38 10.09-16.10 11.31-16.10L16.41-16.10C17.63-16.10 18.38-15.38 18.38-14.17L18.38-2.72C18.38-1.52 17.63-0.80 16.41-0.80ZM11.41-1.78L16.30-1.78C17.04-1.78 17.40-2.12 17.40-2.84L17.40-14.05C17.40-14.77 17.04-15.12 16.30-15.12L11.41-15.12C10.68-15.12 10.32-14.77 10.32-14.05L10.32-2.84C10.32-2.12 10.68-1.78 11.41-1.78ZM12.97-13.57C12.70-13.57 12.50-13.76 12.50-14.04C12.50-14.30 12.70-14.50 12.97-14.50L14.73-14.50C15-14.50 15.21-14.30 15.21-14.04C15.21-13.76 15-13.57 14.73-13.57ZM12.35-2.27C12.16-2.27 12.02-2.40 12.02-2.59C12.02-2.80 12.16-2.94 12.35-2.94L15.36-2.94C15.55-2.94 15.69-2.80 15.69-2.59C15.69-2.40 15.55-2.27 15.36-2.27Z" fill="currentColor"/>
</svg>