<svg xmlns="http://www.w3.org/2000/svg" viewBox="0 0 24 24" width="24" height="24">
  <title>iphone.and.arrow.right.inward</title>
  <path transform="matrix(0.8288813339808969, 0, 0, 0.8288813339808969, 4.340942204953861, 19.01796988829529)" d="M5.94-5.79L4.49-5.79L4.49 0.64C4.49 2.47 5.65 3.60 7.54 3.60L15.71 3.60C17.60 3.60 18.76 2.47 18.76 0.64L18.76-17.57C18.76-19.39 17.60-20.53 15.71-20.53L7.54-20.53C5.65-20.53 4.49-19.39 4.49-17.57L4.49-11.14L5.94-11.14L5.94-17.37C5.94-18.50 6.53-19.08 7.70-19.08L15.55-19.08C16.72-19.08 17.31-18.50 17.31-17.37L17.31 0.43C17.31 1.58 16.72 2.16 15.55 2.16L7.70 2.16C6.53 2.16 5.94 1.58 5.94 0.43ZM-0.28-8.47C-0.28-8.09 0.05-7.76 0.42-7.76L10.08-7.76L11.81-7.82L11.02-7.05L8.86-4.99C8.71-4.86 8.64-4.66 8.64-4.49C8.64-4.13 8.91-3.83 9.28-3.83C9.47-3.83 9.61-3.91 9.75-4.05L13.57-7.96C13.75-8.13 13.80-8.29 13.80-8.47C13.80-8.65 13.75-8.81 13.57-8.99L9.75-12.90C9.61-13.03 9.47-13.11 9.28-13.11C8.91-13.11 8.64-12.83 8.64-12.47C8.64-12.29 8.71-12.09 8.86-11.96L11.02-9.89L11.81-9.13L10.08-9.19L0.42-9.19C0.05-9.19-0.28-8.86-0.28-8.47Z" fill="currentColor"/>
</svg>