<svg xmlns="http://www.w3.org/2000/svg" viewBox="0 0 24 24" width="24" height="24">
  <title>ipod</title>
  <path transform="matrix(0.8783667867558758, 0, 0, 0.8783667867558758, 2.710241893978384, 19.426659804426144)" d="M2.99-0.02C2.99 1.80 4.15 2.93 6.04 2.93L15.12 2.93C17.00 2.93 18.16 1.80 18.16-0.02L18.16-16.89C18.16-18.71 17.00-19.84 15.12-19.84L6.04-19.84C4.15-19.84 2.99-18.71 2.99-16.89ZM4.44-11.37L4.44-16.68C4.44-17.82 5.03-18.40 6.20-18.40L14.94-18.40C16.11-18.40 16.71-17.82 16.71-16.68L16.71-11.37C16.71-10.23 16.11-9.66 14.94-9.66L6.20-9.66C5.03-9.66 4.44-10.23 4.44-11.37ZM10.58 0.73C8.18 0.73 6.21-1.22 6.21-3.63C6.21-6.05 8.18-7.99 10.58-7.99C12.98-7.99 14.94-6.05 14.94-3.63C14.94-1.22 12.98 0.73 10.58 0.73ZM10.58-0.68C12.21-0.68 13.54-2.00 13.54-3.63C13.54-5.26 12.21-6.59 10.58-6.59C8.94-6.59 7.62-5.26 7.62-3.63C7.62-2.00 8.94-0.68 10.58-0.68Z" fill="currentColor"/>
</svg>