<svg xmlns="http://www.w3.org/2000/svg" viewBox="0 0 24 24" width="24" height="24">
  <title>ivfluid.bag.fill</title>
  <path transform="matrix(0.6823937091829935, 0, 0, 0.6823937091829935, 4.351059576169533, 17.80167932826869)" d="M5.93 1.13L10.43 1.13L10.43 2.79C10.43 4.91 11.77 6.15 13.91 6.15L18.76 6.15C19.13 6.15 19.43 5.85 19.43 5.48C19.43 5.11 19.13 4.82 18.76 4.82L13.91 4.82C12.49 4.82 11.77 4.18 11.77 2.79L11.77 1.13L16.49 1.13C18.38 1.13 19.43 0.04 19.43-1.88L19.43-18.09C19.43-20.02 18.38-21.09 16.49-21.09L13.13-21.09L13.13-21.25C13.13-22.37 12.33-23.16 11.20-23.16C10.08-23.16 9.29-22.37 9.29-21.25L9.29-21.09L5.93-21.09C4.04-21.09 2.99-20.02 2.99-18.09L2.99-1.88C2.99 0.04 4.04 1.13 5.93 1.13ZM11.20-20.51C10.80-20.51 10.48-20.84 10.48-21.23C10.48-21.64 10.80-21.96 11.20-21.96C11.61-21.96 11.93-21.64 11.93-21.23C11.93-20.84 11.61-20.51 11.20-20.51ZM7.31-1.98C6.61-1.98 6.14-2.44 6.14-3.13L6.14-15.68C6.14-16.36 6.61-16.82 7.31-16.82L15.12-16.82C15.82-16.82 16.29-16.36 16.29-15.68L16.29-3.13C16.29-2.44 15.82-1.98 15.12-1.98ZM11.20-9.29C12.23-9.29 13.08-10.09 13.08-11.12C13.08-11.71 12.79-12.26 12.50-12.77L11.50-14.63C11.32-14.94 11.09-14.94 10.92-14.64L9.91-12.77C9.63-12.26 9.34-11.71 9.34-11.12C9.34-10.09 10.20-9.29 11.20-9.29ZM8.82-6.66L13.69-6.66C13.98-6.66 14.19-6.89 14.19-7.16C14.19-7.44 13.98-7.65 13.69-7.65L8.82-7.65C8.52-7.65 8.31-7.44 8.31-7.16C8.31-6.89 8.52-6.66 8.82-6.66ZM9.68-4.29L12.75-4.29C13.04-4.29 13.27-4.50 13.27-4.77C13.27-5.05 13.04-5.27 12.75-5.27L9.68-5.27C9.39-5.27 9.18-5.05 9.18-4.77C9.18-4.50 9.39-4.29 9.68-4.29Z" fill="currentColor"/>
</svg>