<svg xmlns="http://www.w3.org/2000/svg" viewBox="0 0 24 24" width="24" height="24">
  <title>j.circle.fill</title>
  <path transform="matrix(0.8507809903622466, 0, 0, 0.8507809903622466, 0.21535393818544368, 19.19840478564307)" d="M13.85 3.29C20.33 3.29 25.61-1.98 25.61-8.46C25.61-14.94 20.33-20.21 13.85-20.21C7.37-20.21 2.10-14.94 2.10-8.46C2.10-1.98 7.37 3.29 13.85 3.29ZM13.34-2.94C11.73-2.94 10.48-3.80 10.13-5.03C10.07-5.19 10.04-5.34 10.04-5.51C10.04-5.93 10.32-6.21 10.75-6.21C11.06-6.21 11.29-6.06 11.44-5.68C11.67-4.79 12.40-4.24 13.41-4.24C14.51-4.24 15.20-5.03 15.20-6.32L15.20-13.22C15.20-13.71 15.46-14.04 15.94-14.04C16.43-14.04 16.69-13.72 16.69-13.22L16.69-6.29C16.69-4.17 15.49-2.94 13.34-2.94Z" fill="currentColor"/>
</svg>