<svg xmlns="http://www.w3.org/2000/svg" viewBox="0 0 24 24" width="24" height="24">
  <title>jacket.fill</title>
  <path transform="matrix(0.6424610989907668, 0, 0, 0.6424610989907668, 0.07808027048579347, 17.559119536860088)" d="M14.92-15.47C15.34-14.95 15.80-15.02 16.20-15.45L17.65-16.95C18.02-17.32 18.02-17.81 17.63-18.23L15.26-20.68C14.94-21.01 14.59-21.06 14.24-20.75L12.61-19.32C12.30-19.05 12.29-18.73 12.54-18.41ZM22.25-15.47L24.63-18.41C24.88-18.73 24.87-19.05 24.57-19.32L22.93-20.75C22.59-21.06 22.24-21.01 21.91-20.68L19.55-18.23C19.15-17.81 19.15-17.32 19.52-16.95L20.98-15.45C21.38-15.02 21.83-14.95 22.25-15.47ZM12.25 3.28L17.82 3.28L17.82-15.38L16.51-14.03C15.84-13.34 14.87-13.39 14.24-14.18L10.88-18.36L9.61-17.88C8.40-17.44 7.93-16.83 7.62-15.68L3.11 0.53C2.78 1.71 3.16 2.48 4.18 2.77L6.97 3.54C7.96 3.81 8.67 3.63 8.89 2.63L9.56-0.26L9.55 0.20C9.48 2.10 10.21 3.28 12.25 3.28ZM19.29 3.28L24.87 3.28C26.91 3.28 27.63 2.10 27.56 0.20L27.54-0.27L28.21 2.63C28.44 3.63 29.16 3.81 30.14 3.54L32.93 2.77C33.95 2.48 34.34 1.71 34.01 0.53L29.48-15.68C29.17-16.83 28.70-17.44 27.50-17.88L26.25-18.35L22.89-14.18C22.25-13.41 21.28-13.35 20.61-14.03L19.29-15.39ZM12.79-2.02C12.48-1.79 12.07-1.86 11.85-2.18C11.64-2.47 11.70-2.89 12-3.12L14.79-5.13C15.08-5.36 15.52-5.29 15.73-4.98C15.95-4.68 15.89-4.27 15.57-4.03ZM24.38-2.02L21.59-4.03C21.27-4.27 21.20-4.68 21.43-4.98C21.64-5.29 22.08-5.36 22.37-5.13L25.15-3.12C25.45-2.89 25.51-2.47 25.31-2.18C25.09-1.86 24.67-1.79 24.38-2.02Z" fill="currentColor"/>
</svg>