<svg xmlns="http://www.w3.org/2000/svg" viewBox="0 0 24 24" width="24" height="24">
  <title>key.convertible.side</title>
  <path transform="matrix(0.46770804786699555, 0, 0, 0.46770804786699555, 0.6023568100849548, 15.884436735159507)" d="M5.27-1.45L7.85-1.15C8.51 0.08 9.80 0.91 11.32 0.91C13.04 0.91 14.47-0.14 15.01-1.65L33.73-1.65C34.28-0.14 35.70 0.91 37.42 0.91C39.26 0.91 40.77-0.29 41.20-1.99L42.54-2.14C44.72-2.39 45.75-3.56 45.75-5.79L45.75-7.83C45.75-10.39 44.70-11.54 42.08-12.02L36.52-13.04C34.88-13.35 33.60-13.48 31.84-13.37L19.28-12.61C21.01-13.92 22.89-15.13 24.88-16.21C25.75-16.66 25.05-17.92 24.11-17.40C21.43-15.96 18.90-14.29 16.68-12.47L8.48-10.91C4.83-10.22 2.99-8.58 2.99-5.50L2.99-3.96C2.99-2.41 3.70-1.63 5.27-1.45ZM5.60-2.88C4.80-2.96 4.44-3.35 4.44-4.05L4.44-5.50C4.44-7.76 5.86-8.96 8.70-9.52L16.48-10.99L31.77-11.91C33.40-12.01 34.61-11.88 36.46-11.53L41.82-10.54C43.63-10.21 44.30-9.43 44.30-7.83L44.30-5.79C44.30-4.43 43.69-3.73 42.38-3.56L41.31-3.45C41.11-5.43 39.47-6.93 37.42-6.93C35.25-6.93 33.54-5.25 33.49-3.09L15.25-3.09C15.20-5.26 13.49-6.93 11.32-6.93C9.12-6.93 7.41-5.21 7.41-3.01C7.41-2.89 7.41-2.78 7.42-2.67ZM30.52-7.32C30.52-9.13 29.07-10.57 27.28-10.57C25.91-10.57 24.71-9.75 24.23-8.47L19.15-8.47C19.04-8.47 18.95-8.44 18.84-8.33L18-7.49C17.91-7.39 17.91-7.27 18-7.16L19.61-5.54C19.70-5.45 19.84-5.45 19.92-5.54L20.95-6.59L22.36-5.17C22.44-5.07 22.57-5.10 22.66-5.19L24.09-6.59C24.71-4.98 25.88-4.09 27.28-4.09C29.06-4.09 30.52-5.53 30.52-7.32ZM28.95-7.34C28.95-6.79 28.50-6.34 27.95-6.34C27.40-6.34 26.95-6.79 26.95-7.34C26.95-7.88 27.40-8.32 27.95-8.32C28.50-8.32 28.95-7.89 28.95-7.34ZM11.32-0.46C9.90-0.46 8.78-1.58 8.78-3.01C8.78-4.43 9.90-5.55 11.32-5.55C12.75-5.55 13.88-4.43 13.88-3.01C13.88-1.58 12.75-0.46 11.32-0.46ZM37.42-0.46C35.99-0.46 34.86-1.58 34.86-3.01C34.86-4.43 35.99-5.55 37.42-5.55C38.84-5.55 39.96-4.43 39.96-3.01C39.96-1.58 38.84-0.46 37.42-0.46Z" fill="currentColor"/>
</svg>