<svg xmlns="http://www.w3.org/2000/svg" viewBox="0 0 24 24" width="24" height="24">
  
  <path transform="matrix(0.4926866820631255, 0, 0, 0.4926866820631255, 0.5277136258660509, 16.237875288683604)" d="M42.19-14.27L41.66-15.05C40.41-16.86 38.75-17.65 36.19-17.65L27.15-17.65C22.41-17.65 20.57-17.21 17.77-15.45L13.07-12.50L8.71-11.96C4.88-11.50 2.99-9.75 2.99-6.71L2.99-4.72C2.99-2.94 3.98-1.91 5.73-1.91L7.65-1.91C7.59-2.18 7.57-2.46 7.57-2.75C7.57-5.20 9.53-7.16 11.98-7.16C14.43-7.16 16.38-5.20 16.38-2.75C16.38-2.46 16.36-2.18 16.30-1.91L30.96-1.91C30.91-2.18 30.88-2.46 30.88-2.75C30.88-5.19 32.85-7.16 35.30-7.16C37.75-7.16 39.70-5.20 39.70-2.75C39.70-2.46 39.67-2.18 39.62-1.91L40.85-1.91C42.71-1.91 43.58-2.88 43.58-4.90L43.58-9.98C43.58-11.41 43.08-12.97 42.19-14.27ZM32.31-10.52C32.31-8.60 30.75-7.05 28.83-7.05C27.32-7.05 26.06-8.00 25.39-9.74L23.86-8.23C23.75-8.12 23.61-8.11 23.53-8.20L22.02-9.73L20.92-8.61C20.80-8.51 20.67-8.51 20.57-8.61L18.83-10.36C18.73-10.46 18.74-10.61 18.83-10.71L19.75-11.61C19.85-11.72 19.96-11.77 20.07-11.77L25.55-11.77C26.06-13.14 27.36-14.03 28.83-14.03C30.76-14.03 32.31-12.47 32.31-10.52ZM30.62-10.54C30.62-11.14 30.14-11.61 29.55-11.61C28.96-11.61 28.48-11.13 28.48-10.54C28.48-9.95 28.96-9.47 29.55-9.47C30.14-9.47 30.62-9.95 30.62-10.54ZM11.98 0.45C13.77 0.45 15.18-0.96 15.18-2.75C15.18-4.54 13.76-5.95 11.98-5.95C10.20-5.95 8.78-4.54 8.78-2.75C8.78-0.97 10.20 0.45 11.98 0.45ZM35.30 0.45C37.08 0.45 38.50-0.97 38.50-2.75C38.50-4.54 37.08-5.95 35.30-5.95C33.52-5.95 32.09-4.54 32.09-2.75C32.09-0.97 33.50 0.45 35.30 0.45Z" fill="currentColor"/>
</svg>