<svg xmlns="http://www.w3.org/2000/svg" viewBox="0 0 24 24" width="24" height="24">
  <title>key.suv.side</title>
  <path transform="matrix(0.4926866820631255, 0, 0, 0.4926866820631255, 0.5277136258660509, 16.168591224018474)" d="M5.73-1.91L8.33-1.91C8.82-0.36 10.25 0.73 11.98 0.73C13.70 0.73 15.13-0.36 15.62-1.91L31.69-1.91C32.18-0.36 33.60 0.73 35.33 0.73C37.05 0.73 38.48-0.36 38.98-1.91L40.85-1.91C42.71-1.91 43.58-2.88 43.58-4.90L43.58-9.98C43.58-11.41 43.08-12.97 42.19-14.27L41.66-15.05C40.41-16.86 38.75-17.65 36.19-17.65L27.15-17.65C22.41-17.65 20.57-17.21 17.77-15.45L13.07-12.50L8.71-11.96C4.88-11.50 2.99-9.75 2.99-6.71L2.99-4.72C2.99-2.94 3.98-1.91 5.73-1.91ZM35.33-6.93C33.27-6.93 31.64-5.38 31.51-3.36L15.80-3.36C15.67-5.38 14.04-6.93 11.98-6.93C9.91-6.93 8.29-5.38 8.16-3.36L5.80-3.36C4.92-3.36 4.44-3.90 4.44-4.89L4.44-6.71C4.44-8.93 5.84-10.14 8.88-10.52L13.56-11.11L18.54-14.21C21.12-15.83 22.65-16.21 27.15-16.21L36.19-16.21C38.25-16.21 39.49-15.61 40.46-14.21L40.99-13.45C41.73-12.36 42.14-11.16 42.14-9.98L42.14-4.82C42.14-3.84 41.72-3.36 40.78-3.36L39.15-3.36C39.02-5.38 37.39-6.93 35.33-6.93ZM31.37-9.86C31.37-11.75 29.85-13.28 27.96-13.28C26.52-13.28 25.25-12.41 24.75-11.06L19.38-11.06C19.28-11.06 19.17-11.02 19.07-10.91L18.18-10.02C18.08-9.93 18.07-9.79 18.18-9.68L19.86-7.97C19.97-7.88 20.11-7.88 20.20-7.97L21.29-9.07L22.77-7.57C22.85-7.49 22.99-7.50 23.10-7.59L24.60-9.07C25.25-7.38 26.48-6.45 27.96-6.45C29.85-6.45 31.37-7.97 31.37-9.86ZM29.72-9.86C29.72-9.28 29.25-8.81 28.68-8.81C28.09-8.81 27.62-9.28 27.62-9.86C27.62-10.43 28.09-10.91 28.68-10.91C29.25-10.91 29.72-10.45 29.72-9.86ZM11.98-0.73C10.64-0.73 9.60-1.77 9.60-3.11C9.60-4.44 10.64-5.48 11.98-5.48C13.31-5.48 14.36-4.44 14.36-3.11C14.36-1.77 13.31-0.73 11.98-0.73ZM35.33-0.73C34.00-0.73 32.95-1.77 32.95-3.11C32.95-4.44 34.00-5.48 35.33-5.48C36.67-5.48 37.71-4.44 37.71-3.11C37.71-1.77 36.67-0.73 35.33-0.73Z" fill="currentColor"/>
</svg>