<svg xmlns="http://www.w3.org/2000/svg" viewBox="0 0 24 24" width="24" height="24">
  <title>key.horizontal.fill</title>
  <path transform="matrix(0.7027103634746646, 0, 0, 0.7027103634746646, -0.08596712702012654, 17.94558846596142)" d="M31.43-8.46C31.43-12.54 28.18-15.79 24.12-15.79C21.04-15.79 18.32-13.93 17.25-11.04L5.74-11.04C5.48-11.04 5.26-10.96 5.05-10.75L3.13-8.84C2.94-8.65 2.89-8.31 3.12-8.09L6.79-4.43C7.00-4.22 7.29-4.22 7.50-4.43L9.81-6.76L12.98-3.57C13.18-3.39 13.48-3.39 13.70-3.60L16.90-6.79C18.30-3.15 20.94-1.14 24.12-1.14C28.16-1.14 31.43-4.41 31.43-8.46ZM24.76-8.46C24.76-9.50 25.61-10.34 26.65-10.34C27.69-10.34 28.52-9.52 28.52-8.46C28.52-7.42 27.69-6.57 26.65-6.57C25.61-6.57 24.76-7.42 24.76-8.46Z" fill="currentColor"/>
</svg>