<svg xmlns="http://www.w3.org/2000/svg" viewBox="0 0 24 24" width="24" height="24">
  
  <path transform="matrix(0.8584842387659289, 0, 0, 0.8584842387659289, 1.2756539235412467, 18.99195171026157)" d="M12.49 3.50C12.71 3.50 13.01 3.41 13.28 3.26C19.84-0.54 22.00-1.97 22.00-6L22.00-14.91C22.00-16.16 21.54-16.57 20.46-17.00C18.80-17.67 15.09-19.04 13.43-19.62C13.11-19.72 12.81-19.79 12.49-19.79C12.18-19.79 11.87-19.71 11.57-19.62C9.90-19.08 6.19-17.66 4.52-17.00C3.45-16.58 2.99-16.16 2.99-14.91L2.99-6C2.99-1.97 5.18-0.57 11.72 3.26C11.98 3.41 12.28 3.50 12.49 3.50ZM12.49 1.90C12.30 1.90 12.08 1.80 11.81 1.63C6.38-1.75 4.42-2.72 4.42-6.28L4.42-14.64C4.42-15.22 4.54-15.43 4.97-15.61C6.54-16.23 10.37-17.60 11.93-18.21C12.15-18.30 12.35-18.35 12.49-18.35C12.63-18.35 12.83-18.29 13.05-18.21C14.61-17.60 18.43-16.18 20.02-15.61C20.46-15.45 20.57-15.22 20.57-14.64L20.57-6.28C20.57-2.72 18.60-1.77 13.17 1.63C12.90 1.80 12.69 1.90 12.49 1.90ZM12.50-15.81C10.41-15.81 8.72-14.12 8.72-12.02C8.72-10.43 9.68-9.02 11.18-8.46L11.18-2.51C11.18-2.38 11.23-2.27 11.32-2.16L12.32-1.17C12.41-1.07 12.60-1.04 12.70-1.16L14.60-3.06C14.71-3.16 14.70-3.32 14.60-3.42L13.38-4.62L15.05-6.26C15.14-6.36 15.14-6.52 15.04-6.62L13.38-8.30C15.25-9.01 16.30-10.37 16.30-12.02C16.30-14.12 14.63-15.81 12.50-15.81ZM12.50-12.16C11.92-12.16 11.45-12.64 11.45-13.23C11.45-13.83 11.92-14.30 12.50-14.30C13.10-14.30 13.57-13.83 13.57-13.23C13.57-12.64 13.10-12.16 12.50-12.16Z" fill="currentColor"/>
</svg>