<svg xmlns="http://www.w3.org/2000/svg" viewBox="0 0 24 24" width="24" height="24">
  
  <path transform="matrix(0.8507809903622466, 0, 0, 0.8507809903622466, 0.21535393818544368, 19.19840478564307)" d="M13.85 3.29C20.33 3.29 25.61-1.98 25.61-8.46C25.61-14.94 20.33-20.21 13.85-20.21C7.37-20.21 2.10-14.94 2.10-8.46C2.10-1.98 7.37 3.29 13.85 3.29ZM7.13-4.54C6.83-4.54 6.56-4.71 6.56-5.12L6.56-11.79C6.56-12.15 6.77-12.39 7.13-12.39C7.50-12.39 7.71-12.16 7.71-11.79L7.71-8.57L7.76-8.57L9.74-12.02C9.86-12.23 9.97-12.36 10.25-12.36C10.58-12.36 10.76-12.11 10.76-11.86C10.76-11.70 10.73-11.60 10.64-11.46L9.08-8.82L10.88-5.47C10.93-5.36 10.98-5.21 10.98-5.07C10.98-4.76 10.72-4.55 10.46-4.55C10.21-4.55 10.01-4.70 9.90-4.91L8.29-8.00L7.71-7.01L7.71-5.12C7.71-4.76 7.50-4.54 7.13-4.54ZM17.27-4.54C16.91-4.54 16.71-4.77 16.71-5.14L16.71-11.78C16.71-12.15 16.91-12.39 17.27-12.39C17.64-12.39 17.84-12.15 17.84-11.78L17.84-9.01L19.96-9.01L19.96-11.78C19.96-12.15 20.16-12.39 20.52-12.39C20.89-12.39 21.08-12.15 21.08-11.78L21.08-5.14C21.08-4.77 20.89-4.54 20.52-4.54C20.14-4.54 19.96-4.77 19.96-5.14L19.96-8.05L17.84-8.05L17.84-5.14C17.84-4.77 17.64-4.54 17.27-4.54ZM12.32-4.56C11.98-4.56 11.75-4.79 11.75-5.14L11.75-11.68C11.75-12.05 11.96-12.28 12.30-12.28L13.84-12.28C15.11-12.28 15.82-11.17 15.82-9.79C15.82-8.52 15.16-7.30 13.77-7.30L12.88-7.30L12.88-5.14C12.88-4.79 12.66-4.56 12.32-4.56ZM12.88-8.23L13.54-8.23C14.37-8.23 14.71-8.94 14.71-9.79C14.71-10.65 14.38-11.36 13.55-11.36L12.88-11.36Z" fill="currentColor"/>
</svg>