<svg xmlns="http://www.w3.org/2000/svg" viewBox="0 0 24 24" width="24" height="24">
  <title>l1.circle.fill</title>
  <path transform="matrix(0.8507809903622466, 0, 0, 0.8507809903622466, 0.21535393818544368, 19.19840478564307)" d="M13.85 3.29C20.33 3.29 25.61-1.98 25.61-8.46C25.61-14.94 20.33-20.21 13.85-20.21C7.37-20.21 2.10-14.94 2.10-8.46C2.10-1.98 7.37 3.29 13.85 3.29ZM17.14-3.75C16.76-3.75 16.46-4.05 16.46-4.43L16.46-11.74L15.28-10.79C15.18-10.71 15.09-10.66 14.94-10.66C14.66-10.66 14.47-10.88 14.47-11.17C14.47-11.40 14.58-11.58 14.75-11.70L16.13-12.80C16.35-12.97 16.65-13.18 17.04-13.18C17.50-13.18 17.80-12.90 17.80-12.43L17.80-4.43C17.80-4.05 17.50-3.75 17.14-3.75ZM10.36-3.86C9.95-3.86 9.70-4.13 9.70-4.56L9.70-12.52C9.70-12.88 10.02-13.18 10.38-13.18C10.73-13.18 11.04-12.88 11.04-12.52L11.04-4.99L13.71-4.99C14.02-4.99 14.27-4.73 14.27-4.42C14.27-4.11 14.02-3.86 13.71-3.86Z" fill="currentColor"/>
</svg>