<svg xmlns="http://www.w3.org/2000/svg" viewBox="0 0 24 24" width="24" height="24">
  
  <path transform="matrix(0.8507809903622466, 0, 0, 0.8507809903622466, 0.21535393818544368, 19.19840478564307)" d="M13.85 3.29C20.34 3.29 25.61-1.97 25.61-8.46C25.61-14.95 20.34-20.21 13.85-20.21C7.36-20.21 2.10-14.95 2.10-8.46C2.10-1.97 7.36 3.29 13.85 3.29ZM13.85 1.77C8.19 1.77 3.62-2.80 3.62-8.46C3.62-14.12 8.19-18.70 13.85-18.70C19.51-18.70 24.09-14.12 24.09-8.46C24.09-2.80 19.51 1.77 13.85 1.77ZM14.95-3.73L19.00-3.73C19.34-3.73 19.55-3.95 19.55-4.28C19.55-4.63 19.32-4.84 19.00-4.84L16.00-4.84L16.00-4.92L17.92-7.46C19.00-8.86 19.35-9.71 19.35-10.72C19.35-12.27 18.39-13.42 16.83-13.42C15.38-13.42 14.33-12.18 14.33-10.95C14.33-10.62 14.53-10.35 14.89-10.35C15.21-10.35 15.41-10.50 15.49-10.80C15.69-11.71 16.04-12.32 16.82-12.32C17.66-12.32 18.08-11.53 18.08-10.66C18.08-9.75 17.55-8.87 16.89-7.98L14.65-5.02C14.47-4.78 14.32-4.56 14.32-4.28C14.32-3.95 14.53-3.73 14.95-3.73ZM9.32-3.71L12.77-3.71C13.08-3.71 13.35-3.98 13.35-4.30C13.35-4.61 13.08-4.88 12.77-4.88L10.01-4.88L10.01-12.66C10.01-13.02 9.70-13.34 9.33-13.34C8.96-13.34 8.65-13.02 8.65-12.66L8.65-4.43C8.65-3.98 8.89-3.71 9.32-3.71Z" fill="currentColor"/>
</svg>