<svg xmlns="http://www.w3.org/2000/svg" viewBox="0 0 24 24" width="24" height="24">
  
  <path transform="matrix(0.7407407407407407, 0, 0, 0.7407407407407407, -0.21354166666666652, 18.26736111111111)" d="M11.74 1.80L21.22 1.80C27.79 1.80 29.99-0.66 29.99-6.67L29.99-10.25C29.99-16.28 27.79-18.73 21.22-18.73L11.74-18.73C5.19-18.73 2.99-16.28 2.99-10.25L2.99-6.67C2.99-0.66 5.19 1.80 11.74 1.80ZM20.70-3.59C20.38-3.59 20.04-3.79 20.04-4.27L20.04-5.72L17.25-5.72C16.77-5.72 16.45-6.05 16.45-6.52C16.45-6.81 16.51-7.05 16.66-7.42L19.05-12.41C19.32-13.00 19.64-13.35 20.30-13.35C20.89-13.35 21.34-13.01 21.34-12.33L21.34-6.83L21.88-6.83C22.24-6.83 22.43-6.60 22.43-6.28C22.43-5.95 22.24-5.72 21.88-5.72L21.34-5.72L21.34-4.27C21.34-3.83 21.05-3.59 20.70-3.59ZM11.65-3.71C11.23-3.71 10.98-3.98 10.98-4.43L10.98-12.66C10.98-13.02 11.29-13.34 11.66-13.34C12.02-13.34 12.34-13.02 12.34-12.66L12.34-4.88L15.09-4.88C15.41-4.88 15.68-4.61 15.68-4.30C15.68-3.98 15.41-3.71 15.09-3.71ZM20.06-6.81L20.06-12.08L20.03-12.08L17.63-6.87L17.63-6.81Z" fill="currentColor"/>
</svg>