<svg xmlns="http://www.w3.org/2000/svg" viewBox="0 0 24 24" width="24" height="24">
  <title>ladybug.slash</title>
  <path transform="matrix(0.7284854407912836, 0, 0, 0.7284854407912836, 0.3854948180092812, 17.876658579271208)" d="M15.94-11.82C18.06-11.82 20.19-12.26 21.54-12.86C23.12-11.27 24.56-8.46 24.56-5.31C24.56-4.03 24.35-2.86 23.99-1.83L25.11-0.70C25.68-2.04 25.97-3.56 25.98-5.29L28.14-5.27C28.59-5.27 28.90-5.55 28.90-5.99C28.90-6.42 28.59-6.70 28.14-6.70L25.90-6.70C25.70-8.37 25.16-10.01 24.38-11.44L26.32-13.07C26.66-13.35 26.77-13.78 26.48-14.12C26.20-14.46 25.76-14.44 25.42-14.16L23.60-12.64C23.14-13.28 22.63-13.84 22.07-14.32C22.05-16.18 21.19-17.65 19.72-18.53L19.61-19.13C19.52-19.56 19.71-19.83 20.20-20.03L21.23-20.48C22.10-20.77 21.64-22.08 20.75-21.74L19.64-21.22C18.64-20.81 18.19-20.12 18.30-19.15C17.59-19.36 16.79-19.48 15.94-19.48C15.08-19.48 14.29-19.36 13.58-19.15C13.71-20.10 13.25-20.81 12.25-21.22L11.12-21.74C10.23-22.08 9.79-20.77 10.64-20.48L11.68-20.03C12.18-19.83 12.36-19.56 12.27-19.13L12.15-18.52C11.10-17.87 10.36-16.92 10.04-15.76L13.79-12.01C14.47-11.89 15.21-11.82 15.94-11.82ZM3.32-18.76L27.56 5.45C27.84 5.73 28.29 5.73 28.56 5.45C28.83 5.17 28.83 4.73 28.56 4.46L4.31-19.76C4.04-20.02 3.60-20.04 3.32-19.76C3.05-19.49 3.05-19.03 3.32-18.76ZM15.94 5.12C18.79 5.12 21.18 4.18 22.91 2.53L21.86 1.50C20.51 2.79 18.69 3.57 16.52 3.69L16.52-3.86L15.30-5.05L15.30 3.69C10.49 3.40 7.32-0.13 7.32-5.31C7.32-7.52 8.03-9.64 9.02-11.17L5.72-14.23C5.61-14.26 5.48-14.23 5.39-14.12C5.12-13.78 5.21-13.35 5.55-13.07L7.52-11.44C6.71-10.02 6.18-8.38 5.99-6.70L3.74-6.70C3.28-6.70 2.99-6.42 2.99-5.99C2.99-5.55 3.28-5.27 3.75-5.27L5.91-5.29C5.91-3.11 6.40-1.16 7.30 0.43L5.47 1.95C5.13 2.24 5.03 2.66 5.32 3.01C5.59 3.35 6.04 3.33 6.39 3.04L8.10 1.62C9.86 3.83 12.59 5.12 15.94 5.12ZM19.73-7.63C20.53-7.63 21.19-8.31 21.19-9.11C21.19-9.91 20.53-10.58 19.73-10.58C18.90-10.58 18.26-9.91 18.26-9.11C18.26-8.30 18.91-7.63 19.73-7.63ZM10.76-2.93C11.70-2.93 12.47-3.69 12.47-4.65C12.47-5.60 11.70-6.36 10.76-6.36C9.81-6.36 9.04-5.60 9.04-4.65C9.04-3.69 9.81-2.93 10.76-2.93ZM22.85-4.65C22.85-5.60 22.08-6.36 21.13-6.36C20.66-6.36 20.26-6.13 20.02-5.80L22.29-3.52C22.62-3.77 22.85-4.18 22.85-4.65ZM12.15 1.04C12.89 1.04 13.48 0.46 13.48-0.27C13.48-1.01 12.89-1.59 12.15-1.59C11.43-1.59 10.83-1.01 10.83-0.27C10.83 0.46 11.43 1.04 12.15 1.04Z" fill="currentColor"/>
</svg>