<svg xmlns="http://www.w3.org/2000/svg" viewBox="0 0 24 24" width="24" height="24">
  
  <path transform="matrix(0.8507809903622466, 0, 0, 0.8507809903622466, 0.21535393818544368, 19.19840478564307)" d="M13.85 3.29C20.34 3.29 25.61-1.97 25.61-8.46C25.61-14.95 20.34-20.21 13.85-20.21C7.36-20.21 2.10-14.95 2.10-8.46C2.10-1.97 7.36 3.29 13.85 3.29ZM13.85 1.77C8.19 1.77 3.62-2.80 3.62-8.46C3.62-14.12 8.19-18.70 13.85-18.70C19.51-18.70 24.09-14.12 24.09-8.46C24.09-2.80 19.51 1.77 13.85 1.77ZM8.19-13.03C8.11-12.46 8.03-11.75 8.03-11.30C8.03-7.28 10.38-4.61 13.96-4.61C15.67-4.61 16.79-5.40 17.32-6.09C17.79-5.48 18.02-4.83 18.34-3.81C18.42-3.56 18.60-3.48 18.77-3.48C19.16-3.48 19.46-3.81 19.46-4.28C19.46-5.04 18.46-6.34 17.89-6.86C15.60-9 12.16-7.75 11.12-10.07C11.04-10.25 11.24-10.41 11.41-10.24C13.28-8.53 15.52-9.90 17.89-7.78C18.06-7.64 18.25-7.71 18.28-7.89C18.30-8.05 18.33-8.31 18.33-8.57C18.33-11.14 16.54-12.36 13.97-12.36C13.14-12.36 12.20-12.20 11.41-12.20C10.44-12.20 9.46-12.34 8.72-13.16C8.52-13.37 8.24-13.34 8.19-13.03Z" fill="currentColor"/>
</svg>