<svg xmlns="http://www.w3.org/2000/svg" viewBox="0 0 24 24" width="24" height="24">
  <title>licenseplate</title>
  <path transform="matrix(0.6769800343778923, 0, 0, 0.6769800343778923, -0.02300674335581121, 17.723919079730265)" d="M6.45 1.03L29.07 1.03C31.36 1.03 32.53-0.14 32.53-2.39L32.53-14.52C32.53-16.77 31.36-17.94 29.07-17.94L6.45-17.94C4.16-17.94 2.99-16.78 2.99-14.52L2.99-2.39C2.99-0.12 4.16 1.03 6.45 1.03ZM6.47-0.42C5.16-0.42 4.44-1.11 4.44-2.47L4.44-14.44C4.44-15.80 5.16-16.49 6.47-16.49L29.04-16.49C30.34-16.49 31.08-15.80 31.08-14.44L31.08-2.47C31.08-1.11 30.34-0.42 29.04-0.42ZM20.85-4.38L23.84-4.38C24.09-4.38 24.30-4.61 24.30-4.89C24.30-5.17 24.09-5.38 23.84-5.38L21.68-5.38L23.07-7.55C23.67-8.44 24.18-9.45 24.18-10.41C24.18-11.77 23.45-12.68 22.23-12.68C20.93-12.68 20.31-11.29 20.31-10.46C20.31-10.16 20.50-9.94 20.80-9.94C21.09-9.94 21.26-10.11 21.33-10.44C21.43-11.06 21.60-11.68 22.22-11.68C22.79-11.68 23.10-11.16 23.10-10.38C23.10-9.67 22.72-8.84 22.16-8.00L20.52-5.43C20.34-5.18 20.32-5.04 20.32-4.89C20.32-4.57 20.54-4.38 20.85-4.38ZM27.15-4.24C28.50-4.24 29.27-5.37 29.27-6.68C29.27-7.55 28.92-8.37 28.20-8.65C28.77-9.04 29.05-9.76 29.05-10.49C29.05-11.66 28.39-12.67 27.08-12.67C25.90-12.67 25.14-11.64 25.14-10.59C25.14-10.30 25.32-10.09 25.62-10.09C25.89-10.09 26.07-10.23 26.14-10.54C26.26-11.17 26.54-11.68 27.08-11.68C27.68-11.68 27.97-11.16 27.97-10.42C27.97-9.74 27.69-9.05 26.95-9.05L26.63-9.05C26.36-9.05 26.16-8.85 26.16-8.59C26.16-8.32 26.36-8.11 26.63-8.11L26.95-8.11C27.81-8.11 28.15-7.58 28.15-6.70C28.15-5.89 27.88-5.24 27.15-5.24C26.60-5.24 26.20-5.63 26.04-6.42C25.98-6.63 25.85-6.86 25.54-6.86C25.18-6.86 25.01-6.60 25.01-6.33C25.01-5.55 25.64-4.24 27.15-4.24ZM6.55-4.28C6.87-4.28 7.05-4.48 7.11-4.77L7.50-6.50L9.39-6.50L9.77-4.77C9.83-4.46 10.01-4.28 10.34-4.28C10.65-4.28 10.88-4.52 10.88-4.82C10.88-4.90 10.86-5.03 10.84-5.12L9.23-11.96C9.14-12.36 8.88-12.62 8.41-12.62C8.03-12.62 7.75-12.39 7.65-11.95L6.05-5.13C6.02-5.05 6-4.91 6-4.82C6-4.50 6.20-4.28 6.55-4.28ZM18.81-4.29C19.15-4.29 19.38-4.55 19.38-4.89L19.38-12C19.38-12.35 19.13-12.61 18.76-12.61C18.52-12.61 18.32-12.52 18.06-12.30L16.98-11.33C16.83-11.19 16.73-11.04 16.73-10.88C16.73-10.62 16.93-10.43 17.18-10.43C17.30-10.43 17.41-10.48 17.50-10.55L18.26-11.21L18.26-4.89C18.26-4.55 18.49-4.29 18.81-4.29ZM12.30-4.28C12.64-4.28 12.84-4.49 12.84-4.85L12.84-7.23L13.80-7.23C15.20-7.23 16.00-8.40 16.00-9.87C16.00-11.24 15.28-12.52 13.88-12.52L12.29-12.52C11.94-12.52 11.75-12.28 11.75-11.94L11.75-4.85C11.75-4.49 11.96-4.28 12.30-4.28ZM12.84-8.14L12.84-11.60L13.62-11.60C14.53-11.60 14.88-10.80 14.88-9.87C14.88-8.94 14.51-8.14 13.62-8.14ZM7.64-7.42L8.44-11.02L9.23-7.42Z" fill="currentColor"/>
</svg>