<svg xmlns="http://www.w3.org/2000/svg" viewBox="0 0 24 24" width="24" height="24">
  
  <path transform="matrix(0.7843137254901961, 0, 0, 0.7843137254901961, 3.1902573529411766, 18.626838235294116)" d="M6.41 4.30L16.04 4.30C18.32 4.30 19.48 3.13 19.48 0.84L19.48-17.74C19.48-20.04 18.32-21.20 16.04-21.20L6.41-21.20C4.15-21.20 2.99-20.04 2.99-17.74L2.99 0.84C2.99 3.13 4.15 4.30 6.41 4.30ZM6.49 2.85C5.13 2.85 4.44 2.14 4.44 0.82L4.44-17.72C4.44-19.03 5.13-19.75 6.49-19.75L15.97-19.75C17.32-19.75 18.02-19.03 18.02-17.72L18.02 0.82C18.02 2.14 17.32 2.85 15.97 2.85ZM7.01-10.84L15.42-10.84C16.27-10.84 16.64-11.21 16.64-12.05L16.64-17.18C16.64-18.01 16.27-18.39 15.42-18.39L7.01-18.39C6.16-18.39 5.79-18.01 5.79-17.18L5.79-12.05C5.79-11.21 6.16-10.84 7.01-10.84Z" fill="currentColor"/>
</svg>