<svg xmlns="http://www.w3.org/2000/svg" viewBox="0 0 24 24" width="24" height="24">
  
  <path transform="matrix(0.7986273592263298, 0, 0, 0.7986273592263298, 0.4323818437061302, 18.752456715021058)" d="M18.81-20.98C14.80-20.98 11.64-18 11.64-14.36C11.64-10.34 14.11-9.21 14.78-1.79C14.82-1.42 15.01-1.20 15.43-1.20L22.17-1.20C22.59-1.20 22.79-1.42 22.83-1.79C23.50-9.21 25.98-10.34 25.98-14.36C25.98-18 22.82-20.98 18.81-20.98ZM9.20-19.28C5.74-19.28 2.99-16.68 2.99-13.52C2.99-10.03 5.12-9.05 5.68-2.74C5.72-2.40 5.94-2.16 6.29-2.16L12.12-2.16C12.47-2.16 12.69-2.40 12.71-2.74C12.81-3.60 12.90-4.35 13.03-5.06C12.07-9 10.43-10.50 10.43-14.36C10.43-15.97 10.96-17.48 11.86-18.74C11.05-19.09 10.15-19.28 9.20-19.28ZM6.33-0.14L12.09-0.14C12.41-0.14 12.68-0.39 12.68-0.71C12.68-1.05 12.41-1.31 12.09-1.31L6.33-1.31C6.01-1.31 5.75-1.04 5.75-0.71C5.75-0.40 6.01-0.14 6.33-0.14ZM15.46 1.00L22.16 1.00C22.50 1.00 22.77 0.74 22.77 0.40C22.77 0.06 22.50-0.20 22.16-0.20L15.46-0.20C15.12-0.20 14.86 0.06 14.86 0.40C14.86 0.74 15.12 1.00 15.46 1.00ZM9.22 2.64C10.72 2.64 11.95 1.85 11.98 0.71L6.46 0.71C6.48 1.85 7.69 2.64 9.22 2.64ZM18.81 4.07C20.51 4.07 21.87 3.23 21.94 1.99L15.68 1.99C15.75 3.23 17.11 4.07 18.81 4.07Z" fill="currentColor"/>
</svg>