<svg xmlns="http://www.w3.org/2000/svg" viewBox="0 0 24 24" width="24" height="24">
  <title>lightswitch.off.square.fill</title>
  <path transform="matrix(0.9423891036259894, 0, 0, 0.9423891036259894, -0.8161236885698511, 19.967973495306463)" d="M6.45 2.16L20.75 2.16C23.04 2.16 24.21 0.98 24.21-1.27L24.21-15.64C24.21-17.89 23.04-19.07 20.75-19.07L6.45-19.07C4.16-19.07 2.99-17.91 2.99-15.64L2.99-1.27C2.99 1.00 4.16 2.16 6.45 2.16ZM10.42-14.59L16.77-14.59C17.25-14.59 17.58-14.25 17.58-13.78L17.58-3.12C17.58-2.65 17.25-2.31 16.77-2.31L10.42-2.31C9.95-2.31 9.61-2.65 9.61-3.12L9.61-13.78C9.61-14.25 9.95-14.59 10.42-14.59ZM11.18-7.37C10.97-7.37 10.82-7.22 10.82-7.00L10.82-3.89C10.82-3.67 10.97-3.52 11.18-3.52L16.02-3.52C16.23-3.52 16.38-3.67 16.38-3.89L16.38-7.00C16.38-7.22 16.23-7.37 16.02-7.37Z" fill="currentColor"/>
</svg>