<svg xmlns="http://www.w3.org/2000/svg" viewBox="0 0 24 24" width="24" height="24">
  <title>lightswitch.off.fill</title>
  <path transform="matrix(0.7843137254901961, 0, 0, 0.7843137254901961, 3.1902573529411766, 18.626838235294116)" d="M6.41-21.20C4.15-21.20 2.99-20.03 2.99-17.74L2.99 0.84C2.99 3.14 4.15 4.30 6.41 4.30L16.04 4.30C18.32 4.30 19.48 3.14 19.48 0.84L19.48-17.74C19.48-20.03 18.32-21.20 16.04-21.20ZM6.76-6.21L15.66-6.21C16.54-6.21 16.92-5.82 16.92-4.97L16.92 0.48C16.92 1.34 16.54 1.72 15.66 1.72L6.76 1.72C5.89 1.72 5.51 1.34 5.51 0.48L5.51-4.97C5.51-5.82 5.89-6.21 6.76-6.21Z" fill="currentColor"/>
</svg>