<svg xmlns="http://www.w3.org/2000/svg" viewBox="0 0 24 24" width="24" height="24">
  
  <path transform="matrix(0.745269286754003, 0, 0, 0.745269286754003, 4.421952326721465, 18.62882096069869)" d="M10.68-22.31C8.14-22.31 5.95-21.21 4.55-19.51L16.20-7.86C17.19-10.90 18.36-12.40 18.36-15.23C18.36-19.13 14.96-22.31 10.68-22.31ZM19.30-1.07C19.58-0.79 20.02-0.80 20.30-1.07C20.57-1.34 20.57-1.78 20.30-2.06L1.03-21.33C0.76-21.60 0.30-21.60 0.04-21.33C-0.23-21.06-0.22-20.60 0.04-20.34ZM7.05-1.10L14.29-1.10C14.73-1.10 14.94-1.34 14.98-1.72C15.04-2.38 15.12-2.94 15.19-3.46L3.08-15.57C3.05-15.16 3.04-14.75 3.06-14.36C3.35-10.73 5.71-9.21 6.36-1.72C6.41-1.34 6.62-1.10 7.05-1.10ZM7.07 1.23L14.29 1.23C14.61 1.23 14.88 0.97 14.88 0.63C14.88 0.29 14.61 0.02 14.29 0.02L7.07 0.02C6.73 0.02 6.47 0.29 6.47 0.63C6.47 0.97 6.73 1.23 7.07 1.23ZM10.68 4.52C12.48 4.52 13.91 3.67 14.00 2.36L7.35 2.36C7.43 3.67 8.86 4.52 10.68 4.52Z" fill="currentColor"/>
</svg>