<svg xmlns="http://www.w3.org/2000/svg" viewBox="0 0 24 24" width="24" height="24">
  <title>line.3.horizontal.decrease</title>
  <path transform="matrix(0.8533333333333334, 0, 0, 0.8533333333333334, -0.5500000000000003, 19.22)" d="M3.71-13.65L25.70-13.65C26.11-13.65 26.43-13.97 26.43-14.38C26.43-14.78 26.11-15.11 25.70-15.11L3.71-15.11C3.30-15.11 2.99-14.78 2.99-14.38C2.99-13.97 3.30-13.65 3.71-13.65ZM6.35-7.73L23.10-7.73C23.51-7.73 23.82-8.06 23.82-8.46C23.82-8.87 23.51-9.19 23.10-9.19L6.35-9.19C5.95-9.19 5.64-8.87 5.64-8.46C5.64-8.06 5.95-7.73 6.35-7.73ZM8.96-1.82L20.50-1.82C20.89-1.82 21.22-2.14 21.22-2.54C21.22-2.95 20.89-3.27 20.50-3.27L8.96-3.27C8.55-3.27 8.24-2.95 8.24-2.54C8.24-2.14 8.55-1.82 8.96-1.82Z" fill="currentColor"/>
</svg>