<svg xmlns="http://www.w3.org/2000/svg" viewBox="0 0 24 24" width="24" height="24">
  <title>lines.measurement.horizontal.aligned.bottom</title>
  <path transform="matrix(0.8810875924969884, 0, 0, 0.8810875924969884, -0.632937532266391, 16.491481672689726)" d="M3.74 0.76C4.17 0.76 4.50 0.45 4.50 0.02L4.50-10.21C4.50-10.63 4.17-10.96 3.74-10.96C3.30-10.96 2.99-10.63 2.99-10.21L2.99 0.02C2.99 0.45 3.30 0.76 3.74 0.76ZM14.33 0.76C14.77 0.76 15.09 0.45 15.09 0.02L15.09-10.21C15.09-10.63 14.77-10.96 14.33-10.96C13.90-10.96 13.58-10.63 13.58-10.21L13.58 0.02C13.58 0.45 13.90 0.76 14.33 0.76ZM24.94 0.76C25.36 0.76 25.69 0.45 25.69 0.02L25.69-10.21C25.69-10.63 25.36-10.96 24.94-10.96C24.49-10.96 24.18-10.63 24.18-10.21L24.18 0.02C24.18 0.45 24.49 0.76 24.94 0.76ZM9.05 0.76C9.47 0.76 9.80 0.43 9.80 0.01L9.80-5.39C9.80-5.82 9.47-6.15 9.05-6.15C8.61-6.15 8.29-5.82 8.29-5.39L8.29 0.01C8.29 0.43 8.61 0.76 9.05 0.76ZM19.64 0.76C20.06 0.76 20.39 0.43 20.39 0.01L20.39-5.39C20.39-5.82 20.06-6.15 19.64-6.15C19.21-6.15 18.88-5.82 18.88-5.39L18.88 0.01C18.88 0.43 19.21 0.76 19.64 0.76Z" fill="currentColor"/>
</svg>