<svg xmlns="http://www.w3.org/2000/svg" viewBox="0 0 24 24" width="24" height="24">
  
  <path transform="matrix(0.9423891036259894, 0, 0, 0.9423891036259894, -0.8161236885698511, 19.967973495306463)" d="M6.45 2.16L20.75 2.16C23.04 2.16 24.21 0.98 24.21-1.27L24.21-15.64C24.21-17.89 23.04-19.07 20.75-19.07L6.45-19.07C4.16-19.07 2.99-17.91 2.99-15.64L2.99-1.27C2.99 1.00 4.16 2.16 6.45 2.16ZM6.47 0.70C5.16 0.70 4.44 0.01 4.44-1.35L4.44-15.56C4.44-16.92 5.16-17.61 6.47-17.61L20.72-17.61C22.02-17.61 22.76-16.92 22.76-15.56L22.76-1.35C22.76 0.01 22.02 0.70 20.72 0.70ZM10.09-3.49L17.02-3.49C17.30-3.49 17.51-3.70 17.51-3.97C17.51-4.24 17.30-4.44 17.02-4.44L11.40-4.44L11.40-4.51C12.26-4.77 12.77-5.71 12.83-6.69C12.84-6.83 12.84-6.95 12.83-7.09L15.81-7.09C16.02-7.09 16.20-7.25 16.20-7.46C16.20-7.68 16.02-7.84 15.81-7.84L12.76-7.84C12.67-8.34 12.50-8.79 12.39-9.26L15.81-9.26C16.02-9.26 16.20-9.42 16.20-9.63C16.20-9.84 16.02-10.01 15.81-10.01L12.26-10.01C12.23-10.16 12.22-10.34 12.22-10.51C12.22-11.96 13.35-12.70 14.81-12.70C15.30-12.70 15.82-12.62 16.11-12.54C16.28-12.49 16.46-12.45 16.58-12.45C16.89-12.45 17.00-12.63 17.00-12.84C17.00-13.11 16.84-13.25 16.58-13.36C16.01-13.62 15.30-13.66 14.71-13.66C12.55-13.66 11.09-12.52 11.09-10.48C11.09-10.31 11.10-10.16 11.11-10.01L10.02-10.01C9.81-10.01 9.63-9.84 9.63-9.63C9.63-9.42 9.81-9.26 10.02-9.26L11.24-9.26C11.36-8.75 11.52-8.31 11.64-7.84L10.02-7.84C9.81-7.84 9.63-7.68 9.63-7.46C9.63-7.25 9.81-7.09 10.02-7.09L11.73-7.09C11.73-6.95 11.73-6.77 11.71-6.61C11.61-5.54 10.91-4.80 10.04-4.55C9.76-4.46 9.59-4.30 9.59-4.00C9.59-3.67 9.81-3.49 10.09-3.49Z" fill="currentColor"/>
</svg>