<svg xmlns="http://www.w3.org/2000/svg" viewBox="0 0 24 24" width="24" height="24">
  
  <path transform="matrix(0.8507809903622466, 0, 0, 0.8507809903622466, 0.21535393818544368, 19.19840478564307)" d="M13.85 3.29C20.33 3.29 25.61-1.98 25.61-8.46C25.61-14.94 20.33-20.21 13.85-20.21C7.37-20.21 2.10-14.94 2.10-8.46C2.10-1.98 7.37 3.29 13.85 3.29ZM10.27-3.39C9.98-3.39 9.75-3.56 9.75-3.90C9.75-4.22 9.94-4.37 10.22-4.48C11.10-4.72 11.81-5.48 11.92-6.56C11.94-6.73 11.94-6.91 11.94-7.05L10.20-7.05C9.97-7.05 9.80-7.22 9.80-7.44C9.80-7.66 9.97-7.83 10.20-7.83L11.84-7.83C11.72-8.30 11.55-8.75 11.43-9.27L10.20-9.27C9.97-9.27 9.80-9.43 9.80-9.66C9.80-9.88 9.97-10.03 10.20-10.03L11.30-10.03C11.29-10.20 11.29-10.35 11.29-10.51C11.29-12.60 12.77-13.78 14.98-13.78C15.60-13.78 16.30-13.72 16.91-13.46C17.16-13.36 17.33-13.22 17.33-12.94C17.33-12.71 17.20-12.53 16.90-12.53C16.78-12.53 16.59-12.56 16.42-12.62C16.11-12.69 15.60-12.79 15.09-12.79C13.61-12.79 12.45-12.02 12.45-10.55C12.45-10.37 12.47-10.20 12.48-10.03L16.10-10.03C16.32-10.03 16.50-9.88 16.50-9.66C16.50-9.43 16.32-9.27 16.10-9.27L12.62-9.27C12.74-8.79 12.90-8.33 13.00-7.83L16.10-7.83C16.32-7.83 16.50-7.66 16.50-7.44C16.50-7.22 16.32-7.05 16.10-7.05L13.08-7.05C13.08-6.91 13.08-6.79 13.08-6.66C13.01-5.65 12.48-4.69 11.61-4.43L11.61-4.36L17.34-4.36C17.64-4.36 17.84-4.16 17.84-3.88C17.84-3.60 17.64-3.39 17.34-3.39Z" fill="currentColor"/>
</svg>