<svg xmlns="http://www.w3.org/2000/svg" viewBox="0 0 24 24" width="24" height="24">
  
  <path transform="matrix(0.9097370291400142, 0, 0, 0.9097370291400142, -0.7185501066098081, 19.547974413646052)" d="M6.13-18.98C3.93-18.98 2.99-17.93 2.99-15.80L2.99-10.27C2.99-8.14 3.93-7.09 6.13-7.09L21.83-7.09C24.04-7.09 24.97-8.14 24.97-10.27L24.97-15.80C24.97-17.93 24.04-18.98 21.83-18.98ZM4.44-10.23L4.44-15.84C4.44-17.04 4.93-17.63 6.14-17.63L21.83-17.63C23.03-17.63 23.53-17.04 23.53-15.84L23.53-10.23C23.53-9.04 23.03-8.45 21.83-8.45L6.14-8.45C4.93-8.45 4.44-9.04 4.44-10.23ZM5.65-3.29C5.65-3.95 5.11-4.50 4.44-4.50C3.79-4.50 3.25-3.95 3.25-3.29C3.25-2.64 3.79-2.11 4.44-2.11C5.11-2.11 5.65-2.64 5.65-3.29ZM24.66-3.29C24.66-3.69 24.33-4.00 23.89-4.00L7.97-4.00C7.52-4.00 7.20-3.69 7.20-3.29C7.20-2.91 7.52-2.60 7.97-2.60L23.89-2.60C24.33-2.60 24.66-2.91 24.66-3.29ZM5.65 1.20C5.65 0.54 5.11-0.01 4.44-0.01C3.79-0.01 3.25 0.54 3.25 1.20C3.25 1.85 3.79 2.39 4.44 2.39C5.11 2.39 5.65 1.85 5.65 1.20ZM24.66 1.20C24.66 0.80 24.33 0.49 23.89 0.49L7.97 0.49C7.52 0.49 7.20 0.80 7.20 1.20C7.20 1.59 7.52 1.90 7.97 1.90L23.89 1.90C24.33 1.90 24.66 1.59 24.66 1.20Z" fill="currentColor"/>
</svg>