<svg xmlns="http://www.w3.org/2000/svg" viewBox="0 0 24 24" width="24" height="24">
  
  <path transform="matrix(0.725315200453322, 0, 0, 0.725315200453322, -0.16744581385465374, 18.13684657883553)" d="M3.71-16.93L25.46-16.93C25.88-16.93 26.20-17.25 26.20-17.66C26.20-18.07 25.88-18.39 25.46-18.39L3.71-18.39C3.30-18.39 2.99-18.07 2.99-17.66C2.99-17.25 3.30-16.93 3.71-16.93ZM3.71-10.80L11.52-10.80C11.93-10.80 12.25-11.12 12.25-11.53C12.25-11.94 11.93-12.26 11.52-12.26L3.71-12.26C3.30-12.26 2.99-11.94 2.99-11.53C2.99-11.12 3.30-10.80 3.71-10.80ZM15.61 1.15L29.17 1.15C30.02 1.15 30.56 0.63 30.56-0.22L30.56-10.57C30.56-11.41 30.02-11.94 29.17-11.94L15.61-11.94C14.74-11.94 14.21-11.41 14.21-10.57L14.21-0.22C14.21 0.63 14.74 1.15 15.61 1.15ZM15.69-8.82C15.43-8.82 15.28-8.98 15.28-9.22L15.28-10.48C15.28-10.72 15.43-10.90 15.69-10.90L16.77-10.90C17.02-10.90 17.18-10.72 17.18-10.48L17.18-9.22C17.18-8.98 17.02-8.82 16.77-8.82ZM28.01-8.82C27.75-8.82 27.60-8.98 27.60-9.22L27.60-10.48C27.60-10.72 27.75-10.90 28.01-10.90L29.09-10.90C29.34-10.90 29.50-10.72 29.50-10.48L29.50-9.22C29.50-8.98 29.34-8.82 29.09-8.82ZM18.60-6.07C18.36-6.07 18.21-6.22 18.21-6.46L18.21-10.21C18.21-10.44 18.36-10.58 18.60-10.58L26.18-10.58C26.41-10.58 26.55-10.44 26.55-10.21L26.55-6.46C26.55-6.22 26.41-6.07 26.18-6.07ZM15.69-5.85C15.43-5.85 15.28-6.01 15.28-6.23L15.28-7.50C15.28-7.75 15.43-7.91 15.69-7.91L16.77-7.91C17.02-7.91 17.18-7.75 17.18-7.50L17.18-6.23C17.18-6.01 17.02-5.85 16.77-5.85ZM28.01-5.85C27.75-5.85 27.60-6.01 27.60-6.23L27.60-7.50C27.60-7.75 27.75-7.91 28.01-7.91L29.09-7.91C29.34-7.91 29.50-7.75 29.50-7.50L29.50-6.23C29.50-6.01 29.34-5.85 29.09-5.85ZM3.71-4.68L11.52-4.68C11.93-4.68 12.25-4.98 12.25-5.39C12.25-5.81 11.93-6.12 11.52-6.12L3.71-6.12C3.30-6.12 2.99-5.81 2.99-5.39C2.99-4.98 3.30-4.68 3.71-4.68ZM15.69-2.88C15.43-2.88 15.28-3.04 15.28-3.27L15.28-4.52C15.28-4.78 15.43-4.95 15.69-4.95L16.77-4.95C17.02-4.95 17.18-4.78 17.18-4.52L17.18-3.27C17.18-3.04 17.02-2.88 16.77-2.88ZM28.01-2.88C27.75-2.88 27.60-3.04 27.60-3.27L27.60-4.52C27.60-4.78 27.75-4.95 28.01-4.95L29.09-4.95C29.34-4.95 29.50-4.78 29.50-4.52L29.50-3.27C29.50-3.04 29.34-2.88 29.09-2.88ZM18.60-0.21C18.36-0.21 18.21-0.36 18.21-0.59L18.21-4.31C18.21-4.56 18.36-4.70 18.60-4.70L26.18-4.70C26.41-4.70 26.55-4.56 26.55-4.31L26.55-0.59C26.55-0.36 26.41-0.21 26.18-0.21ZM15.69 0.09C15.43 0.09 15.28-0.06 15.28-0.29L15.28-1.56C15.28-1.80 15.43-1.97 15.69-1.97L16.77-1.97C17.02-1.97 17.18-1.80 17.18-1.56L17.18-0.29C17.18-0.06 17.02 0.09 16.77 0.09ZM28.01 0.09C27.75 0.09 27.60-0.06 27.60-0.29L27.60-1.56C27.60-1.80 27.75-1.97 28.01-1.97L29.09-1.97C29.34-1.97 29.50-1.80 29.50-1.56L29.50-0.29C29.50-0.06 29.34 0.09 29.09 0.09ZM3.71 1.46L11.52 1.46C11.93 1.46 12.25 1.15 12.25 0.74C12.25 0.33 11.93 0.01 11.52 0.01L3.71 0.01C3.30 0.01 2.99 0.33 2.99 0.74C2.99 1.15 3.30 1.46 3.71 1.46Z" fill="currentColor"/>
</svg>