<svg xmlns="http://www.w3.org/2000/svg" viewBox="0 0 24 24" width="24" height="24">
  
  <path transform="matrix(0.7930607187112764, 0, 0, 0.7930607187112764, -0.08178438661709997, 18.719330855018587)" d="M7.83-19.88L22.64-19.88C22.59-20.64 22.15-21.08 21.33-21.08L9.15-21.08C8.32-21.08 7.88-20.64 7.83-19.88ZM5.50-16.88L24.97-16.88C24.86-17.68 24.45-18.16 23.57-18.16L6.91-18.16C6.02-18.16 5.61-17.68 5.50-16.88ZM6.45 4.14L24.02 4.14C26.31 4.14 27.48 2.96 27.48 0.71L27.48-11.44C27.48-13.69 26.31-14.86 24.02-14.86L6.45-14.86C4.15-14.86 2.99-13.70 2.99-11.44L2.99 0.71C2.99 2.99 4.15 4.14 6.45 4.14ZM10.90-0.57L10.90-5.43C10.90-6.32 11.29-6.74 12.05-6.77L12.05-8.31C12.05-10.42 13.34-11.84 15.25-11.84C17.14-11.84 18.43-10.42 18.43-8.31L18.43-6.77C19.20-6.74 19.58-6.32 19.58-5.43L19.58-0.57C19.58 0.35 19.17 0.77 18.32 0.77L12.16 0.77C11.31 0.77 10.90 0.35 10.90-0.57ZM13.09-6.77L17.39-6.77L17.39-8.39C17.39-9.86 16.54-10.82 15.25-10.82C13.95-10.82 13.09-9.86 13.09-8.39Z" fill="currentColor"/>
</svg>