<svg xmlns="http://www.w3.org/2000/svg" viewBox="0 0 24 24" width="24" height="24">
  
  <path transform="matrix(0.7287218901224025, 0, 0, 0.7287218901224025, -0.17762596071733583, 18.161400512382578)" d="M6.45 2.16L26.98 2.16C29.27 2.16 30.43 0.98 30.43-1.27L30.43-15.64C30.43-17.89 29.27-19.07 26.98-19.07L6.45-19.07C4.16-19.07 2.99-17.91 2.99-15.64L2.99-1.27C2.99 1.00 4.16 2.16 6.45 2.16ZM12.38-3.67L12.38-8.52C12.38-9.41 12.76-9.83 13.52-9.87L13.52-11.40C13.52-13.51 14.81-14.93 16.72-14.93C18.62-14.93 19.91-13.51 19.91-11.40L19.91-9.87C20.68-9.83 21.06-9.41 21.06-8.52L21.06-3.67C21.06-2.74 20.65-2.32 19.79-2.32L13.64-2.32C12.79-2.32 12.38-2.74 12.38-3.67ZM14.57-9.87L18.87-9.87L18.87-11.50C18.87-12.95 18.01-13.92 16.72-13.92C15.43-13.92 14.57-12.95 14.57-11.50Z" fill="currentColor"/>
</svg>