<svg xmlns="http://www.w3.org/2000/svg" viewBox="0 0 24 24" width="24" height="24">
  
  <path transform="matrix(0.8366013071895425, 0, 0, 0.8366013071895425, 1.9362745098039214, 19.068627450980394)" d="M3.98-4.07C3.98-2.27 4.65-1.01 5.96-0.28C6.56 0.04 6.88 0.39 7.10 1.10L7.54 2.52C7.73 3.18 8.20 3.50 8.88 3.50L14.09 3.50C14.79 3.50 15.23 3.19 15.43 2.52L15.87 1.10C16.10 0.39 16.41 0.04 17.00-0.28C18.32-1.01 18.98-2.27 18.98-4.07L18.98-9.22L19.15-9.22C19.70-9.22 20.07-9.61 20.07-10.22L20.07-11.85C20.07-12.46 19.70-12.84 19.15-12.84L18.98-12.84C18.98-14.64 18.32-15.89 17.00-16.62C16.41-16.95 16.10-17.29 15.87-18.01L15.43-19.43C15.26-20.07 14.79-20.40 14.09-20.40L8.88-20.40C8.20-20.40 7.73-20.09 7.54-19.43L7.10-18.01C6.88-17.30 6.57-16.93 5.96-16.62C4.66-15.91 3.98-14.65 3.98-12.83ZM5.32-4.25L5.32-12.66C5.32-14.58 6.45-15.73 8.34-15.73L14.64-15.73C16.54-15.73 17.65-14.58 17.65-12.66L17.65-4.25C17.65-2.33 16.54-1.17 14.64-1.17L8.34-1.17C6.45-1.17 5.32-2.33 5.32-4.25ZM9.52-4.51L13.52-4.51C14.18-4.51 14.51-4.85 14.51-5.54L14.51-8.73C14.51-9.32 14.27-9.66 13.80-9.75L13.80-10.45C13.80-11.94 12.89-12.96 11.52-12.96C10.16-12.96 9.25-11.94 9.25-10.45L9.25-9.75C8.78-9.66 8.54-9.32 8.54-8.73L8.54-5.54C8.54-4.85 8.87-4.51 9.52-4.51ZM10.24-9.79L10.24-10.52C10.24-11.41 10.75-12 11.52-12C12.30-12 12.81-11.41 12.81-10.52L12.81-9.79Z" fill="currentColor"/>
</svg>