<svg xmlns="http://www.w3.org/2000/svg" viewBox="0 0 24 24" width="24" height="24">
  <title>long.text.page.and.pencil</title>
  <path transform="matrix(0.6852503690430586, 0, 0, 0.6852503690430586, 1.542855716893507, 16.342076083330888)" d="M12.77 2.59L6.49 2.59C5.14 2.59 4.44 1.88 4.44 0.55L4.44-17.45C4.44-18.77 5.14-19.49 6.49-19.49L18.87-19.49C20.23-19.49 20.92-18.77 20.92-17.45L20.92-7.10L22.37-8.82L22.37-17.48C22.37-19.77 21.21-20.93 18.95-20.93L6.41-20.93C4.15-20.93 2.99-19.77 2.99-17.48L2.99 0.59C2.99 2.87 4.15 4.04 6.41 4.04L11.55 4.04ZM8.09-14.67L17.29-14.67C17.61-14.67 17.87-14.93 17.87-15.26C17.87-15.57 17.61-15.83 17.29-15.83L8.09-15.83C7.75-15.83 7.49-15.57 7.49-15.26C7.49-14.93 7.75-14.67 8.09-14.67ZM8.09-10.56L17.29-10.56C17.61-10.56 17.87-10.82 17.87-11.14C17.87-11.46 17.61-11.72 17.29-11.72L8.09-11.72C7.75-11.72 7.49-11.46 7.49-11.14C7.49-10.82 7.75-10.56 8.09-10.56ZM26.26-7.58L27.19-8.67C27.67-9.23 27.64-9.77 27.13-10.21L26.84-10.45C26.34-10.88 25.79-10.77 25.34-10.23L24.40-9.14ZM14.00 6.98L25.44-6.63L23.61-8.18L12.16 5.44L11.29 7.86C11.20 8.10 11.47 8.34 11.70 8.23ZM8.09-6.46L17.29-6.46C17.61-6.46 17.87-6.71 17.87-7.04C17.87-7.36 17.61-7.61 17.29-7.61L8.09-7.61C7.75-7.61 7.49-7.36 7.49-7.04C7.49-6.71 7.75-6.46 8.09-6.46ZM17.29-3.50L8.09-3.50C7.75-3.50 7.49-3.25 7.49-2.92C7.49-2.59 7.75-2.34 8.09-2.34L16.92-2.34L17.72-3.30C17.61-3.42 17.46-3.50 17.29-3.50Z" fill="currentColor"/>
</svg>