<svg xmlns="http://www.w3.org/2000/svg" viewBox="0 0 24 24" width="24" height="24">
  
  <path transform="matrix(0.6663433030464325, 0, 0, 0.6663433030464325, 0.005820545164215263, 17.7778972510357)" d="M6.98 2.09L11.57 1.21C13.95 0.75 14.98-0.52 14.98-3.05L14.98-4.50L18-5.13L21.02-4.50L21.02-3.05C21.02-0.52 22.05 0.75 24.43 1.21L29.02 2.09C31.78 2.61 33.61 0.91 32.82-2.02L29.14-16.00C28.58-18.11 26.89-19.52 24.91-19.52C22.57-19.52 21.02-18.04 21.02-15.80L21.02-5.96L18.71-6.47L18.71-18.26C18.71-18.66 18.40-18.98 18-18.98C17.60-18.98 17.29-18.66 17.29-18.26L17.29-6.47L14.98-5.96L14.98-15.80C14.98-18.04 13.43-19.52 11.09-19.52C9.11-19.52 7.42-18.11 6.86-16.00L3.18-2.02C2.39 0.91 4.22 2.61 6.98 2.09ZM27.39-3.15L21.02-4.50L21.02-5.96L22.49-5.65L26.03-8.84C26.30-9.08 26.79-9.08 27.06-8.79C27.32-8.50 27.28-8.02 26.99-7.76L24.22-5.29L27.69-4.55C28.05-4.48 28.31-4.08 28.23-3.70C28.17-3.33 27.75-3.07 27.39-3.15ZM8.63-3.15C8.25-3.07 7.84-3.33 7.77-3.70C7.69-4.08 7.95-4.48 8.32-4.55L11.78-5.29L9.01-7.76C8.72-8.02 8.70-8.50 8.94-8.79C9.21-9.08 9.70-9.08 9.97-8.84L13.51-5.65L14.98-5.96L14.98-4.50Z" fill="currentColor"/>
</svg>