<svg xmlns="http://www.w3.org/2000/svg" viewBox="0 0 24 24" width="24" height="24">
  
  <path transform="matrix(0.8507809903622466, 0, 0, 0.8507809903622466, 0.21535393818544368, 19.19840478564307)" d="M13.85 3.29C20.34 3.29 25.61-1.97 25.61-8.46C25.61-14.95 20.34-20.21 13.85-20.21C7.36-20.21 2.10-14.95 2.10-8.46C2.10-1.97 7.36 3.29 13.85 3.29ZM13.85 1.77C8.19 1.77 3.62-2.80 3.62-8.46C3.62-14.12 8.19-18.70 13.85-18.70C19.51-18.70 24.09-14.12 24.09-8.46C24.09-2.80 19.51 1.77 13.85 1.77ZM9.33-3.09C9.75-3.09 10.00-3.36 10.00-3.82L10.00-11.41L10.08-11.41L13.09-3.87C13.23-3.52 13.46-3.35 13.83-3.35C14.19-3.35 14.44-3.52 14.58-3.87L17.59-11.41L17.67-11.41L17.67-3.82C17.67-3.38 17.93-3.09 18.33-3.09C18.75-3.09 19.00-3.36 19.00-3.82L19.00-13.04C19.00-13.57 18.63-13.92 18.11-13.92C17.65-13.92 17.34-13.72 17.16-13.28L13.88-5.00L13.82-5.00L10.51-13.28C10.34-13.72 10.03-13.92 9.57-13.92C9.05-13.92 8.67-13.57 8.67-13.04L8.67-3.82C8.67-3.38 8.93-3.09 9.33-3.09Z" fill="currentColor"/>
</svg>