<svg xmlns="http://www.w3.org/2000/svg" viewBox="0 0 24 24" width="24" height="24">
  
  <path transform="matrix(0.54421768707483, 0, 0, 0.54421768707483, 0.37372448979591644, 16.422831632653065)" d="M4.11 0.79L12.89 0.79C12.88 0.70 12.87 0.61 12.87 0.50C12.87-0.41 13.44-1.18 14.26-1.49L8.12-1.49L8.12-14.92C8.12-15.80 8.55-16.23 9.43-16.23L29.38-16.23C30.25-16.23 30.69-15.80 30.69-14.92L30.69-14.20L32.13-14.20L32.13-15.28C32.13-16.86 31.30-17.67 29.73-17.67L9.08-17.67C7.56-17.67 6.67-16.86 6.67-15.28L6.67-1.49L4.11-1.49C3.48-1.49 2.99-0.98 2.99-0.35C2.99 0.28 3.48 0.79 4.11 0.79ZM14.07 0.50C14.07 1.02 14.47 1.42 14.98 1.42L38.84 1.42C39.34 1.42 39.74 1.02 39.74 0.50C39.74 0 39.34-0.40 38.84-0.40L36.84-0.40L36.84-11.10C36.84-12.20 36.06-13.00 34.95-13.00L18.87-13.00C17.75-13.00 16.96-12.20 16.96-11.10L16.96-0.40L14.98-0.40C14.47-0.40 14.07 0 14.07 0.50ZM18.26-0.36L18.26-10.80C18.26-11.34 18.61-11.70 19.15-11.70L34.65-11.70C35.20-11.70 35.55-11.34 35.55-10.80L35.55-0.36Z" fill="currentColor"/>
</svg>