<svg xmlns="http://www.w3.org/2000/svg" viewBox="0 0 24 24" width="24" height="24">
  
  <path transform="matrix(0.7055256993247898, 0, 0, 0.7055256993247898, -0.10830921868540688, 17.998346424142206)" d="M6.45-1.04L27.89-1.04C30.18-1.04 31.34-2.21 31.34-4.46L31.34-12.53C31.34-14.79 30.18-15.96 27.89-15.96L6.45-15.96C4.15-15.96 2.99-14.80 2.99-12.53L2.99-4.46C2.99-2.20 4.15-1.04 6.45-1.04ZM6.98-4.44C6.63-4.45 6.35-4.72 6.35-5.09L6.35-7.22C6.35-7.57 6.63-7.85 6.98-7.84C7.34-7.85 7.62-7.57 7.62-7.22L7.62-5.07C7.62-4.73 7.34-4.45 6.98-4.44ZM9.68-4.44C9.33-4.45 9.05-4.72 9.05-5.09L9.05-7.22C9.05-7.57 9.33-7.85 9.68-7.84C10.02-7.85 10.30-7.57 10.30-7.22L10.30-5.07C10.30-4.73 10.03-4.45 9.68-4.44ZM26.71-4.79C25.98-4.77 25.35-5.41 25.35-6.13C25.35-6.88 25.98-7.50 26.71-7.50C27.43-7.50 28.04-6.88 28.04-6.13C28.04-5.41 27.43-4.80 26.71-4.79ZM12.68-5.52C12.34-5.52 12.06-5.80 12.06-6.15C12.06-6.49 12.34-6.77 12.68-6.77L17.54-6.77C17.88-6.77 18.16-6.49 18.16-6.15C18.16-5.80 17.88-5.52 17.54-5.52Z" fill="currentColor"/>
</svg>