<svg xmlns="http://www.w3.org/2000/svg" viewBox="0 0 24 24" width="24" height="24">
  <title>macwindow.stack</title>
  <path transform="matrix(0.7930607187112764, 0, 0, 0.7930607187112764, -0.08178438661709997, 18.719330855018587)" d="M8.75-20.04L21.71-20.04C21.93-20.04 22.10-20.04 22.30-20.00C21.93-20.71 21.19-21.08 20.17-21.08L10.30-21.08C9.27-21.08 8.53-20.71 8.16-20.00C8.36-20.04 8.54-20.04 8.75-20.04ZM7.11-16.88L23.34-16.88C23.75-16.88 24.13-16.83 24.49-16.73C24.01-17.67 23.07-18.18 21.71-18.18L8.75-18.18C7.39-18.18 6.45-17.67 5.98-16.73C6.33-16.83 6.71-16.88 7.11-16.88ZM7.11 4.14L23.34 4.14C26.00 4.14 27.48 2.67 27.48 0.04L27.48-10.76C27.48-13.39 26.00-14.86 23.34-14.86L7.11-14.86C4.46-14.86 2.99-13.39 2.99-10.76L2.99 0.04C2.99 2.67 4.46 4.14 7.11 4.14ZM7.15 2.70C5.40 2.70 4.44 1.71 4.44-0.04L4.44-10.69C4.44-12.43 5.40-13.41 7.15-13.41L23.32-13.41C25.05-13.41 26.03-12.43 26.03-10.69L26.03-0.04C26.03 1.71 25.05 2.70 23.32 2.70ZM7.38-9.76C7.84-9.76 8.21-10.16 8.21-10.59C8.21-11.05 7.84-11.44 7.38-11.44C6.91-11.44 6.54-11.05 6.54-10.59C6.54-10.16 6.91-9.76 7.38-9.76ZM10.15-9.76C10.59-9.76 10.97-10.16 10.97-10.59C10.97-11.05 10.59-11.44 10.15-11.44C9.68-11.44 9.30-11.05 9.30-10.59C9.30-10.16 9.68-9.76 10.15-9.76ZM12.90-9.77C13.36-9.77 13.73-10.16 13.73-10.59C13.73-11.05 13.36-11.44 12.90-11.44C12.43-11.44 12.06-11.05 12.06-10.59C12.06-10.16 12.43-9.77 12.90-9.77Z" fill="currentColor"/>
</svg>