<svg xmlns="http://www.w3.org/2000/svg" viewBox="0 0 24 24" width="24" height="24">
  
  <path transform="matrix(0.7930607187112764, 0, 0, 0.7930607187112764, -0.08178438661709997, 18.719330855018587)" d="M7.83-19.88L22.64-19.88C22.59-20.64 22.15-21.08 21.33-21.08L9.15-21.08C8.32-21.08 7.88-20.64 7.83-19.88ZM5.50-16.88L24.97-16.88C24.86-17.68 24.45-18.16 23.57-18.16L6.91-18.16C6.02-18.16 5.61-17.68 5.50-16.88ZM6.45 4.14L24.02 4.14C26.31 4.14 27.48 2.96 27.48 0.71L27.48-11.44C27.48-13.69 26.31-14.86 24.02-14.86L6.45-14.86C4.15-14.86 2.99-13.70 2.99-11.44L2.99 0.71C2.99 2.99 4.15 4.14 6.45 4.14ZM6.47 2.70C5.16 2.70 4.44 1.99 4.44 0.64L4.44-11.36C4.44-12.71 5.16-13.41 6.47-13.41L23.99-13.41C25.29-13.41 26.03-12.71 26.03-11.36L26.03 0.64C26.03 1.99 25.29 2.70 23.99 2.70ZM20.67-5.37C22.20-5.37 23.44-6.61 23.44-8.14C23.44-9.68 22.20-10.92 20.67-10.92C19.13-10.92 17.88-9.68 17.88-8.14C17.88-6.61 19.13-5.37 20.67-5.37ZM7.66-8.85L15.46-8.85C15.81-8.85 16.09-9.14 16.09-9.49C16.09-9.84 15.81-10.13 15.46-10.13L7.66-10.13C7.30-10.13 7.03-9.84 7.03-9.49C7.03-9.14 7.30-8.85 7.66-8.85ZM7.66-5.91L13.09-5.91C13.44-5.91 13.72-6.19 13.72-6.54C13.72-6.89 13.44-7.17 13.09-7.17L7.66-7.17C7.30-7.17 7.03-6.89 7.03-6.54C7.03-6.19 7.30-5.91 7.66-5.91Z" fill="currentColor"/>
</svg>