<svg xmlns="http://www.w3.org/2000/svg" viewBox="0 0 24 24" width="24" height="24">
  <title>malaysianringgitsign.square.fill</title>
  <path transform="matrix(0.9423891036259894, 0, 0, 0.9423891036259894, -0.8161236885698511, 19.967973495306463)" d="M6.45 2.16L20.75 2.16C23.04 2.16 24.21 0.98 24.21-1.27L24.21-15.64C24.21-17.89 23.04-19.07 20.75-19.07L6.45-19.07C4.16-19.07 2.99-17.91 2.99-15.64L2.99-1.27C2.99 1.00 4.16 2.16 6.45 2.16ZM13.77-3.46C13.46-3.46 13.25-3.68 13.25-4.00L13.25-12.64C13.25-13.14 13.58-13.45 14.07-13.45C14.51-13.45 14.80-13.18 14.91-12.76L17.09-5.11L17.20-5.11L19.35-12.75C19.46-13.20 19.76-13.45 20.19-13.45C20.70-13.45 21.01-13.15 21.01-12.64L21.01-4.00C21.01-3.68 20.79-3.46 20.50-3.46C20.19-3.46 19.98-3.68 19.98-4.00L19.98-11.58L19.90-11.58L17.80-4.21C17.70-3.84 17.51-3.61 17.13-3.61C16.75-3.61 16.56-3.87 16.46-4.18L14.37-11.58L14.29-11.58L14.29-4.00C14.29-3.68 14.07-3.46 13.77-3.46ZM6.77-3.47C6.42-3.47 6.20-3.70 6.20-4.04L6.20-12.75C6.20-13.10 6.43-13.32 6.76-13.32L8.84-13.32C10.63-13.32 11.68-12.25 11.68-10.49C11.68-9.12 11.03-8.21 10.08-7.84L11.58-4.41C11.66-4.22 11.70-4.11 11.70-3.97C11.70-3.69 11.48-3.47 11.14-3.47C10.88-3.47 10.70-3.61 10.58-3.87L8.99-7.58L7.34-7.58L7.34-4.04C7.34-3.70 7.11-3.47 6.77-3.47ZM7.34-8.51L8.74-8.51C9.95-8.51 10.56-9.30 10.56-10.46C10.56-11.63 9.91-12.39 8.73-12.39L7.34-12.39Z" fill="currentColor"/>
</svg>