<svg xmlns="http://www.w3.org/2000/svg" viewBox="0 0 24 24" width="24" height="24">
  
  <path transform="matrix(0.7763257716771778, 0, 0, 0.7763257716771778, 2.1218147135003904, 18.568443833799872)" d="M0.53-10.62C-0.15-10.62-0.35-10.15 0.05-9.60L2.60-5.95C2.93-5.50 3.39-5.50 3.70-5.95L6.26-9.60C6.64-10.15 6.45-10.62 5.78-10.62L3.84-10.62C4.83-15.25 8.93-18.70 13.85-18.70C19.51-18.70 24.08-14.12 24.08-8.46C24.08-2.80 19.51 1.77 13.85 1.77C10.29 1.77 7.16-0.05 5.36-2.80C5.09-3.16 4.65-3.28 4.28-3.06C3.93-2.85 3.82-2.33 4.11-1.93C6.21 1.22 9.77 3.29 13.85 3.29C20.34 3.29 25.61-1.97 25.61-8.46C25.61-14.95 20.34-20.21 13.85-20.21C8.10-20.21 3.32-16.09 2.30-10.62ZM10.52-3.46C10.88-3.46 11.09-3.68 11.09-4.03L11.09-7.66C11.09-9.64 11.77-11.21 13.44-11.45L13.44-3.88C13.44-3.62 13.59-3.46 13.85-3.46C14.10-3.46 14.25-3.62 14.25-3.88L14.25-11.45C16.00-11.25 16.65-9.63 16.65-7.66L16.65-4.03C16.65-3.68 16.86-3.46 17.21-3.46C17.57-3.46 17.78-3.68 17.78-4.03L17.78-7.75C17.78-10.32 16.63-12.28 14.25-12.48L14.25-13.85C14.25-14.10 14.10-14.25 13.85-14.25C13.59-14.25 13.44-14.10 13.44-13.85L13.44-12.47C11.07-12.26 9.96-10.29 9.96-7.75L9.96-4.03C9.96-3.68 10.18-3.46 10.52-3.46Z" fill="currentColor"/>
</svg>