<svg xmlns="http://www.w3.org/2000/svg" viewBox="0 0 24 24" width="24" height="24">
  
  <path transform="matrix(0.8507809903622466, 0, 0, 0.8507809903622466, 0.21535393818544368, 19.188434695912264)" d="M13.85 3.30C20.33 3.30 25.61-1.97 25.61-8.45C25.61-14.93 20.33-20.20 13.85-20.20C7.37-20.20 2.10-14.93 2.10-8.45C2.10-1.97 7.37 3.30 13.85 3.30ZM9.89-7.11C9.13-8.02 8.68-9.21 8.68-10.56C8.68-12.84 9.94-14.75 11.78-15.59C12.02-15.70 12.26-15.68 12.39-15.55C12.48-15.40 12.50-15.21 12.40-14.99C12.18-14.54 12.05-13.83 12.05-13.11C12.05-10.30 13.82-8.57 16.65-8.57C17.37-8.57 17.93-8.67 18.41-8.86C18.63-8.94 18.81-8.92 18.91-8.81C19.03-8.68 19.05-8.48 18.95-8.26C18.76-7.83 18.50-7.44 18.20-7.11ZM7.96-5.55C7.73-5.55 7.57-5.71 7.57-5.93C7.57-6.15 7.73-6.30 7.96-6.30L20.99-6.30C21.21-6.30 21.38-6.15 21.38-5.93C21.38-5.71 21.21-5.55 20.99-5.55ZM6.70-3.95C6.48-3.95 6.32-4.11 6.32-4.34C6.32-4.55 6.48-4.71 6.70-4.71L19.73-4.71C19.96-4.71 20.12-4.56 20.12-4.34C20.12-4.11 19.96-3.95 19.73-3.95ZM7.96-2.37C7.73-2.37 7.57-2.52 7.57-2.74C7.57-2.96 7.73-3.12 7.96-3.12L20.99-3.12C21.21-3.12 21.38-2.96 21.38-2.74C21.38-2.52 21.21-2.37 20.99-2.37Z" fill="currentColor"/>
</svg>