<svg xmlns="http://www.w3.org/2000/svg" viewBox="0 0 24 24" width="24" height="24">
  
  <path transform="matrix(0.8507809903622466, 0, 0, 0.8507809903622466, 0.21535393818544368, 19.19840478564307)" d="M13.85 3.29C20.34 3.29 25.61-1.97 25.61-8.46C25.61-14.95 20.34-20.21 13.85-20.21C7.36-20.21 2.10-14.95 2.10-8.46C2.10-1.97 7.36 3.29 13.85 3.29ZM13.85 1.77C8.19 1.77 3.62-2.80 3.62-8.46C3.62-14.12 8.19-18.70 13.85-18.70C19.51-18.70 24.09-14.12 24.09-8.46C24.09-2.80 19.51 1.77 13.85 1.77ZM17.10-9.42C17.20-9.42 17.29-9.49 17.30-9.61C17.55-11.68 17.67-11.80 19.82-12.13C19.95-12.14 20.03-12.21 20.03-12.34C20.03-12.46 19.95-12.53 19.83-12.55C17.68-12.96 17.67-13.04 17.30-15.07C17.29-15.18 17.20-15.26 17.10-15.26C16.99-15.26 16.92-15.18 16.90-15.07C16.54-13.02 16.55-12.89 14.38-12.55C14.25-12.53 14.18-12.46 14.18-12.34C14.18-12.22 14.25-12.14 14.38-12.13C16.55-11.71 16.62-11.67 16.90-9.61C16.92-9.49 16.99-9.42 17.10-9.42ZM13.75-1.61C16.42-1.61 18.87-3.23 19.64-5.31C19.80-5.73 19.56-6.04 19.16-5.89C18.69-5.70 17.84-5.54 16.99-5.54C13.59-5.54 11.32-7.80 11.32-11.21C11.32-12.05 11.50-12.91 11.71-13.51C11.86-13.90 11.59-14.18 11.16-14.02C8.82-13.15 7.29-10.57 7.29-7.95C7.29-4.30 10.11-1.61 13.75-1.61Z" fill="currentColor"/>
</svg>