<svg xmlns="http://www.w3.org/2000/svg" viewBox="0 0 24 24" width="24" height="24">
  
  <path transform="matrix(0.7318467695826186, 0, 0, 0.7318467695826186, 1.648370497427102, 18.192109777015435)" d="M3.07-13.07C3.07-12.46 3.49-11.89 4.35-11.89L23.98-11.89C24.83-11.89 25.25-12.46 25.25-13.07C25.25-13.46 25.08-13.89 24.68-14.20L15.46-21.63C15.05-21.95 14.64-22.13 14.17-22.13C13.69-22.13 13.28-21.95 12.87-21.63L3.64-14.20C3.25-13.89 3.07-13.46 3.07-13.07ZM3.01-8.46C3.01-8.00 3.34-7.69 3.81-7.69L24.50-7.69C24.97-7.69 25.30-8.00 25.30-8.46C25.30-8.92 24.97-9.25 24.50-9.25L3.81-9.25C3.34-9.25 3.01-8.92 3.01-8.46ZM2.99-3.86C2.99-3.46 3.16-3.04 3.57-2.72L12.79 4.71C13.20 5.03 13.61 5.20 14.09 5.20C14.55 5.20 14.96 5.03 15.38 4.71L24.60-2.72C25.00-3.04 25.18-3.46 25.18-3.86C25.18-4.46 24.75-5.04 23.89-5.04L4.27-5.04C3.42-5.04 2.99-4.46 2.99-3.86Z" fill="currentColor"/>
</svg>