<svg xmlns="http://www.w3.org/2000/svg" viewBox="0 0 24 24" width="24" height="24">
  <title>movieclapper.fill</title>
  <path transform="matrix(0.7367968914575962, 0, 0, 0.7367968914575962, -0.2075188065891096, 19.364075466913988)" d="M3.16-13.68L4.01-10.56L4.01-0.34C4.01 1.83 5.14 2.94 7.32 2.94L26.84 2.94C29.03 2.94 30.14 1.82 30.14-0.34L30.14-11.53C30.14-12.68 29.43-13.39 28.25-13.41L14.26-13.41L27.39-16.91C28.52-17.21 29.02-18.11 28.73-19.21L28.42-20.44C27.89-22.55 26.47-23.31 24.35-22.76L5.52-17.70C3.42-17.13 2.61-15.75 3.16-13.68ZM20.87-16.56L21.88-20.63L24.64-21.38C24.97-21.47 25.28-21.52 25.58-21.55L24.61-17.55ZM13.43-14.57L14.44-18.62L18.42-19.70L17.43-15.62ZM6.25-12.64L7.27-16.70L10.96-17.71L9.97-13.64ZM6.71-8.32L8.55-11.67L11.45-11.99L12.59-11.99L10.57-8.32ZM14.14-8.32L16.16-11.99L20.31-11.99L18.28-8.32ZM21.87-8.32L23.88-11.99L27.74-11.99L25.72-8.32Z" fill="currentColor"/>
</svg>