<svg xmlns="http://www.w3.org/2000/svg" viewBox="0 0 24 24" width="24" height="24">
  
  <path transform="matrix(0.8507809903622466, 0, 0, 0.8507809903622466, 0.21535393818544368, 19.19840478564307)" d="M13.85 3.29C20.33 3.29 25.61-1.98 25.61-8.46C25.61-14.94 20.33-20.21 13.85-20.21C7.37-20.21 2.10-14.94 2.10-8.46C2.10-1.98 7.37 3.29 13.85 3.29ZM6.33-4.55C6-4.55 5.81-4.76 5.81-5.09L5.81-11.57C5.81-11.98 6.07-12.39 6.64-12.39C7.09-12.39 7.36-12.21 7.48-11.71L8.67-6.18L8.71-6.18L9.88-11.71C9.98-12.18 10.27-12.39 10.71-12.39C11.21-12.39 11.55-12.07 11.55-11.57L11.55-5.09C11.55-4.76 11.37-4.55 11.05-4.55C10.72-4.55 10.55-4.76 10.55-5.09L10.55-10.66L10.50-10.66L9.32-5.27C9.23-4.91 9.05-4.66 8.68-4.66C8.33-4.66 8.13-4.91 8.06-5.27L6.88-10.66L6.84-10.66L6.84-5.09C6.84-4.76 6.66-4.55 6.33-4.55ZM18.22-4.55C17.86-4.55 17.66-4.79 17.66-5.16L17.66-11.79C17.66-12.15 17.86-12.39 18.22-12.39C18.59-12.39 18.80-12.15 18.80-11.79L18.80-9.02L20.91-9.02L20.91-11.79C20.91-12.14 21.09-12.39 21.47-12.39C21.82-12.39 22.03-12.16 22.03-11.79L22.03-5.16C22.03-4.78 21.83-4.55 21.47-4.55C21.08-4.55 20.91-4.83 20.91-5.16L20.91-8.06L18.80-8.06L18.80-5.16C18.80-4.79 18.59-4.55 18.22-4.55ZM13.27-4.57C12.97-4.57 12.70-4.73 12.70-5.14L12.70-11.70C12.70-12.08 12.94-12.28 13.25-12.28L14.79-12.28C16.09-12.28 16.76-11.13 16.76-9.80C16.76-8.50 16.07-7.31 14.72-7.31L13.83-7.31L13.83-5.14C13.83-4.77 13.59-4.57 13.27-4.57ZM13.83-8.24L14.50-8.24C15.33-8.24 15.66-8.95 15.66-9.80C15.66-10.63 15.33-11.36 14.51-11.36L13.83-11.36Z" fill="currentColor"/>
</svg>