<svg xmlns="http://www.w3.org/2000/svg" viewBox="0 0 24 24" width="24" height="24">
  
  <path transform="matrix(0.8507809903622466, 0, 0, 0.8507809903622466, 0.21535393818544368, 19.19840478564307)" d="M13.85 3.29C20.34 3.29 25.61-1.97 25.61-8.46C25.61-14.95 20.34-20.21 13.85-20.21C7.36-20.21 2.10-14.95 2.10-8.46C2.10-1.97 7.36 3.29 13.85 3.29ZM13.85 1.77C8.19 1.77 3.62-2.80 3.62-8.46C3.62-14.12 8.19-18.70 13.85-18.70C19.51-18.70 24.09-14.12 24.09-8.46C24.09-2.80 19.51 1.77 13.85 1.77ZM10.30-3.86L13.85-7.41L17.40-3.86C17.55-3.70 17.72-3.62 17.94-3.62C18.35-3.62 18.68-3.95 18.68-4.36C18.68-4.57 18.60-4.73 18.45-4.89L14.88-8.45L18.45-12.01C18.60-12.16 18.68-12.34 18.68-12.54C18.68-12.95 18.35-13.25 17.94-13.25C17.73-13.25 17.57-13.18 17.41-13.03L13.85-9.47L10.29-13.03C10.14-13.18 9.96-13.25 9.76-13.25C9.35-13.25 9.02-12.95 9.02-12.54C9.02-12.34 9.09-12.16 9.25-12.01L12.82-8.45L9.25-4.89C9.09-4.73 9.02-4.57 9.02-4.36C9.02-3.95 9.35-3.62 9.76-3.62C9.98-3.62 10.15-3.70 10.30-3.86Z" fill="currentColor"/>
</svg>