<svg xmlns="http://www.w3.org/2000/svg" viewBox="0 0 24 24" width="24" height="24">
  
  <path transform="matrix(0.8507809903622466, 0, 0, 0.8507809903622466, 0.21535393818544368, 19.19840478564307)" d="M13.85 3.29C20.34 3.29 25.61-1.97 25.61-8.46C25.61-14.95 20.34-20.21 13.85-20.21C7.36-20.21 2.10-14.95 2.10-8.46C2.10-1.97 7.36 3.29 13.85 3.29ZM10.38-10.69C10.35-11.18 10.11-11.61 9.75-11.91C10.78-14.58 12.43-16.98 14.57-18.94C14.88-18.91 15.20-18.88 15.52-18.83C13.93-16.21 12.96-13.23 12.74-10.11C11.93-10.24 11.14-10.44 10.38-10.69ZM8.68-12.29C8.27-12.29 7.90-12.15 7.61-11.91C6.62-12.46 5.70-13.13 4.85-13.88C6.54-16.68 9.49-18.62 12.91-18.93C11.06-17.00 9.63-14.75 8.68-12.29ZM16.09-13.75C16.13-12.69 16.27-11.66 16.51-10.68C16.30-10.48 16.14-10.22 16.05-9.94C15.83-9.93 15.61-9.93 15.38-9.91C14.87-9.91 14.37-9.94 13.86-9.97C14.09-13.08 15.07-16.02 16.70-18.57C16.73-18.56 16.77-18.55 16.80-18.54C16.29-17.03 16.04-15.41 16.09-13.75ZM17.65-11.12C17.63-11.12 17.60-11.12 17.58-11.12C17.38-11.98 17.26-12.86 17.24-13.76C17.19-15.28 17.41-16.77 17.88-18.16C20.46-17.09 22.52-15.01 23.58-12.42C22.18-11.50 20.64-10.80 19.01-10.38C18.71-10.83 18.21-11.12 17.65-11.12ZM3.35-8.46C3.35-10.01 3.69-11.48 4.29-12.81C5.13-12.09 6.04-11.46 7.00-10.92C6.98-10.82 6.97-10.70 6.97-10.59C6.97-9.98 7.29-9.45 7.77-9.14C7.50-7.84 7.37-6.52 7.37-5.16C5.96-5.84 4.62-6.70 3.38-7.75C3.36-7.98 3.35-8.23 3.35-8.46ZM24.35-8.46C24.35-7.38 24.19-6.35 23.89-5.37C23.16-4.99 22.39-4.66 21.62-4.39C20.40-5.46 19.39-6.75 18.66-8.20C18.97-8.46 19.21-8.84 19.27-9.27C20.93-9.69 22.52-10.37 23.96-11.30C24.21-10.39 24.35-9.45 24.35-8.46ZM12.68-8.64C12.68-7.09 12.86-5.58 13.20-4.11C13.01-3.96 12.84-3.76 12.74-3.53C11.30-3.74 9.88-4.11 8.51-4.66C8.46-6.09 8.59-7.51 8.86-8.89C9.35-8.94 9.79-9.21 10.05-9.59C10.91-9.32 11.79-9.11 12.68-8.98C12.68-8.86 12.68-8.75 12.68-8.64ZM13.82-8.64C13.82-8.71 13.82-8.78 13.82-8.84C14.33-8.80 14.86-8.78 15.39-8.78C15.63-8.78 15.89-8.79 16.15-8.80C16.39-8.26 16.93-7.88 17.55-7.84C18.27-6.41 19.23-5.11 20.38-4.00C18.90-3.60 17.39-3.38 15.87-3.34C15.64-4.01 15.02-4.48 14.29-4.49C13.98-5.82 13.82-7.22 13.82-8.64ZM7.50-3.07C7.54-1.95 7.72-0.83 8.02 0.27C5.84-1.20 4.23-3.46 3.62-6.09C4.82-5.20 6.09-4.46 7.42-3.88C7.44-3.61 7.46-3.34 7.50-3.07ZM22.68-3.56C22.88-3.64 23.07-3.71 23.26-3.81C23.18-3.64 23.10-3.49 23.02-3.34C22.90-3.41 22.79-3.48 22.68-3.56ZM13.85 2.04C12.29 2.04 10.82 1.70 9.48 1.09C8.99-0.27 8.70-1.68 8.63-3.13C8.61-3.22 8.60-3.32 8.60-3.41C9.90-2.93 11.25-2.59 12.62-2.40C12.79-1.68 13.41-1.15 14.17-1.10C14.59-0.07 15.11 0.93 15.70 1.88C15.11 1.98 14.48 2.04 13.85 2.04ZM15.27-1.42C15.54-1.62 15.74-1.89 15.86-2.20C17.73-2.24 19.59-2.54 21.40-3.11C21.73-2.85 22.07-2.61 22.42-2.38C21.07-0.50 19.14 0.91 16.88 1.59C16.25 0.64 15.71-0.38 15.27-1.42Z" fill="currentColor"/>
</svg>