<svg xmlns="http://www.w3.org/2000/svg" viewBox="0 0 24 24" width="24" height="24">
  <title>octagon.righthalf.filled</title>
  <path transform="matrix(0.8615177519771159, 0, 0, 0.8615177519771159, -0.5744573447753658, 19.28924785461888)" d="M17.93 2.78C19.62 2.78 20.26 2.21 21.09 1.32L25.28-3.23C26.02-4.03 26.20-4.55 26.20-5.70L26.20-11.23C26.20-12.38 26.02-12.89 25.28-13.69L21.09-18.25C20.26-19.14 19.62-19.70 17.93-19.70L11.26-19.70C9.56-19.70 8.92-19.14 8.10-18.25L3.90-13.69C3.18-12.89 2.99-12.38 2.99-11.23L2.99-5.70C2.99-4.55 3.18-4.03 3.90-3.23L8.10 1.32C8.92 2.21 9.56 2.78 11.26 2.78ZM14.59-18.26L14.59 1.35L11.67 1.35C10.30 1.35 9.96 1.02 9.19 0.19L5.20-4.13C4.72-4.65 4.63-4.97 4.63-5.84L4.63-11.07C4.63-11.95 4.72-12.27 5.20-12.80L9.19-17.11C9.96-17.94 10.30-18.26 11.67-18.26Z" fill="currentColor"/>
</svg>