<svg xmlns="http://www.w3.org/2000/svg" viewBox="0 0 24 24" width="24" height="24">
  
  <path transform="matrix(0.7407407407407407, 0, 0, 0.7407407407407407, -0.21354166666666652, 18.26736111111111)" d="M11.74 1.80L21.22 1.80C27.79 1.80 29.99-0.66 29.99-6.67L29.99-10.25C29.99-16.28 27.79-18.73 21.22-18.73L11.74-18.73C5.19-18.73 2.99-16.28 2.99-10.25L2.99-6.67C2.99-0.66 5.19 1.80 11.74 1.80ZM17.99-3.62C17.57-3.62 17.34-3.86 17.34-4.20C17.34-4.48 17.50-4.71 17.67-4.96L19.96-7.97C20.64-8.87 21.19-9.77 21.19-10.71C21.19-11.59 20.77-12.39 19.90-12.39C19.11-12.39 18.75-11.77 18.55-10.85C18.47-10.54 18.26-10.38 17.94-10.38C17.55-10.38 17.36-10.65 17.36-10.99C17.36-12.25 18.42-13.52 19.90-13.52C21.50-13.52 22.49-12.34 22.49-10.77C22.49-9.74 22.13-8.86 21.02-7.44L19.07-4.86L19.07-4.77L22.13-4.77C22.46-4.77 22.69-4.56 22.69-4.20C22.69-3.86 22.48-3.62 22.13-3.62ZM11.21-3.50C10.76-3.50 10.51-3.79 10.51-4.24L10.51-12.56C10.51-13.05 10.82-13.31 11.20-13.31L13.38-13.31C15.07-13.31 16.09-11.94 16.09-10.16C16.09-8.37 15.07-7.01 13.31-7.01L11.92-7.01L11.92-4.24C11.92-3.81 11.68-3.50 11.21-3.50ZM11.92-8.16L13.03-8.16C14.18-8.16 14.70-9.01 14.70-10.16C14.70-11.36 14.14-12.14 13.03-12.14L11.92-12.14Z" fill="currentColor"/>
</svg>