<svg xmlns="http://www.w3.org/2000/svg" viewBox="0 0 24 24" width="24" height="24">
  <title>paddleshifter.right</title>
  <path transform="matrix(0.6609230113080504, 0, 0, 0.6609230113080504, 4.456183441241706, 17.622816886109575)" d="M19.84-5.99C19.84-10.75 18-17.36 13.23-22.36C12.18-23.44 10.80-24.01 9.15-23.37L8.02-22.92C6.12-22.17 5.54-20.81 6.34-18.98C8.17-14.82 8.63-11.80 8.63-9.20C8.63-8.14 8.13-7.56 7.10-7.56L4.22-7.56C3.49-7.56 2.99-7.03 2.99-6.27L2.99-3.25C2.99-2.53 3.43-2.04 4.10-2.04L6.26-2.04C6.89-2.04 7.29-1.70 7.29-1.14C7.29-0.62 6.95 0.14 6.95 1.03C6.95 2.82 7.88 4.07 9.93 5.06L12.19 6.16C14.10 7.09 15.89 6.60 16.98 4.84C19.00 1.52 19.84-1.76 19.84-5.99ZM18.39-5.99C18.39-1.92 17.65 0.95 15.74 4.09C15.05 5.20 13.92 5.50 12.69 4.88L10.62 3.83C8.88 2.96 8.33 2.21 8.33 0.81C8.33-0.77 10.10-4.68 10.10-9.86C10.10-11.75 9.69-15.04 7.68-19.56C7.25-20.48 7.51-21.19 8.44-21.55L9.59-21.98C10.77-22.43 11.40-22.17 12.15-21.42C16.75-16.59 18.39-10.44 18.39-5.99Z" fill="currentColor"/>
</svg>