<svg xmlns="http://www.w3.org/2000/svg" viewBox="0 0 24 24" width="24" height="24">
  <title>paintpalette</title>
  <path transform="matrix(0.7207207207207207, 0, 0, 0.7207207207207207, 0.48817567567567566, 18.182432432432435)" d="M17.03 2.92C21.80 2.92 25.02 1.27 25.02-1.16C25.02-3.42 23.03-3.83 23.03-5.32C23.03-7.48 29.85-7.57 29.85-12.41C29.85-17.02 25.05-20.07 17.89-20.07C8.45-20.07 2.10-15.39 2.10-8.37C2.10-1.62 8.12 2.92 17.03 2.92ZM17.03 1.39C8.95 1.39 3.62-2.52 3.62-8.37C3.62-14.48 9.28-18.54 17.89-18.54C24.18-18.54 28.32-16.08 28.32-12.41C28.32-8.17 21.47-8.78 21.47-5.30C21.47-3.33 23.48-2.78 23.48-1.31C23.48 0.34 20.98 1.39 17.03 1.39ZM18-12.52C19.04-12.52 19.88-13.35 19.88-14.39C19.88-15.43 19.04-16.27 18-16.27C16.97-16.27 16.10-15.42 16.10-14.39C16.10-13.35 16.97-12.52 18-12.52ZM12.06-10.56C13.39-10.56 14.47-11.63 14.47-12.98C14.47-14.31 13.38-15.36 12.06-15.36C10.70-15.36 9.62-14.31 9.62-12.98C9.62-11.63 10.70-10.56 12.06-10.56ZM23.36-11.78C24.18-11.78 24.82-12.43 24.82-13.27C24.82-14.09 24.16-14.75 23.36-14.75C22.52-14.75 21.86-14.09 21.86-13.27C21.86-12.43 22.52-11.78 23.36-11.78ZM7.78-6.90C8.78-6.90 9.59-7.73 9.59-8.73C9.59-9.74 8.79-10.54 7.78-10.54C6.79-10.54 5.96-9.73 5.96-8.73C5.96-7.73 6.79-6.90 7.78-6.90ZM16.07-1.49C17.92-1.49 19.43-3 19.43-4.86C19.43-6.70 17.92-8.23 16.07-8.23C14.21-8.23 12.69-6.70 12.69-4.86C12.69-3 14.21-1.49 16.07-1.49ZM16.07-2.58C14.80-2.58 13.79-3.60 13.79-4.86C13.79-6.19 14.84-7.11 16.04-7.13C17.27-7.13 18.34-6.21 18.34-4.86C18.34-3.60 17.33-2.58 16.07-2.58Z" fill="currentColor"/>
</svg>