<svg xmlns="http://www.w3.org/2000/svg" viewBox="0 0 24 24" width="24" height="24">
  
  <path transform="matrix(0.6873513489363078, 0, 0, 0.6873513489363078, -0.054312422511061165, 17.993215984548208)" d="M13.35-20.65C13.96-20.65 14.45-21.14 14.45-21.75C14.45-22.36 13.96-22.85 13.35-22.85C12.73-22.85 12.25-22.36 12.25-21.75C12.25-21.14 12.73-20.65 13.35-20.65ZM20.50-18.64C21.62-18.64 22.51-19.55 22.51-20.66C22.51-21.79 21.62-22.66 20.50-22.66C19.37-22.66 18.49-21.79 18.49-20.66C18.49-19.55 19.37-18.64 20.50-18.64ZM29.78-20.06C30.25-20.06 30.62-20.45 30.62-20.93C30.62-21.40 30.25-21.79 29.78-21.79C29.30-21.79 28.92-21.40 28.92-20.93C28.92-20.45 29.30-20.06 29.78-20.06ZM26.71-18.96L24.55-16.79C24.30-16.55 24.30-16.14 24.55-15.89C24.80-15.64 25.21-15.64 25.46-15.89L27.62-18.05C27.86-18.29 27.86-18.71 27.62-18.96C27.36-19.20 26.95-19.20 26.71-18.96ZM21.36-1.36C22.86-1.99 22.90-3.50 22.25-5.18C23.85-5.23 25.43-5.11 26.96-4.80C27.33-4.73 27.62-5.05 27.63-5.40C27.64-5.74 27.38-5.99 27.04-6.06C25.24-6.40 23.47-6.52 21.68-6.41C21.04-7.62 20.16-8.80 19.30-9.73L23.31-13.76C23.54-14.00 23.55-14.40 23.31-14.65C23.07-14.89 22.65-14.88 22.42-14.65L18.39-10.63C17.43-11.51 16.25-12.40 15.07-13.04C15.16-14.80 15.05-16.54 14.72-18.30C14.65-18.66 14.40-18.93 14.05-18.91C13.72-18.90 13.38-18.62 13.46-18.25C13.76-16.73 13.89-15.18 13.84-13.61C12.25-14.19 10.82-14.10 10.15-12.62L3.18 2.84C2.46 4.42 3.91 5.92 5.52 5.25ZM18.29-15.01C18.77-15.01 19.15-15.39 19.15-15.87C19.15-16.34 18.77-16.72 18.29-16.72C17.82-16.72 17.44-16.34 17.44-15.87C17.44-15.39 17.82-15.01 18.29-15.01ZM11.50-12.42C11.89-12.83 12.71-12.79 13.77-12.33C13.71-11.54 13.59-10.76 13.45-9.98C13.37-9.61 13.70-9.35 14.04-9.33C14.38-9.32 14.61-9.59 14.70-9.94C14.80-10.52 14.89-11.11 14.96-11.70C15.75-11.20 16.62-10.55 17.48-9.74L16.52-8.78C16.28-8.52 16.28-8.11 16.52-7.86C16.77-7.62 17.18-7.62 17.43-7.86L18.40-8.82C19.22-7.96 19.90-7.10 20.39-6.30C19.82-6.23 19.24-6.15 18.66-6.04C18.30-5.96 18.04-5.72 18.06-5.38C18.07-5.05 18.34-4.72 18.70-4.78C19.48-4.93 20.26-5.04 21.04-5.11C21.54-4.01 21.60-3.13 21.19-2.72C20.32-1.85 17.50-3.06 14.66-5.91C11.82-8.73 10.63-11.55 11.50-12.42ZM26.02-9.14C26.95-9.14 27.69-9.88 27.69-10.80C27.69-11.73 26.95-12.48 26.02-12.48C25.09-12.48 24.35-11.73 24.35-10.80C24.35-9.88 25.09-9.14 26.02-9.14ZM30.97-9.62C31.59-9.62 32.09-10.10 32.09-10.73C32.09-11.34 31.59-11.84 30.97-11.84C30.35-11.84 29.87-11.34 29.87-10.73C29.87-10.10 30.35-9.62 30.97-9.62ZM4.34 3.33L10.36-10.05C10.86-8.51 12.11-6.67 13.76-5.00C15.40-3.36 17.21-2.14 18.74-1.64L5.04 4.07C4.46 4.30 4.07 3.91 4.34 3.33ZM30.54-3.67C31.16-3.67 31.64-4.15 31.64-4.77C31.64-5.38 31.16-5.87 30.54-5.87C29.93-5.87 29.44-5.38 29.44-4.77C29.44-4.15 29.93-3.67 30.54-3.67Z" fill="currentColor"/>
</svg>