<svg xmlns="http://www.w3.org/2000/svg" viewBox="0 0 24 24" width="24" height="24">
  <title>pencil.and.ruler</title>
  <path transform="matrix(0.7754051188853551, 0, 0, 0.7754051188853551, 2.0636074511585645, 18.610631531122216)" d="M2.99-18.75L5.50-18.75L5.50-20.24C5.50-21.01 5.11-21.42 4.43-21.42L4.03-21.42C3.36-21.42 2.99-20.98 2.99-20.24ZM14.31 4.37L19.88 4.37C21.54 4.37 22.64 3.28 22.64 1.62L22.64-18.54C22.64-20.21 21.54-21.32 19.88-21.32L14.31-21.32C12.66-21.32 11.57-20.21 11.57-18.55L11.57 1.61C11.57 3.28 12.66 4.37 14.31 4.37ZM14.53 3.05C13.52 3.05 12.90 2.41 12.90 1.43L12.90-18.36C12.90-19.35 13.52-19.97 14.53-19.97L19.66-19.97C20.67-19.97 21.29-19.35 21.29-18.36L21.29-18.34L16.32-18.34C16.10-18.34 15.94-18.18 15.94-17.94C15.94-17.73 16.10-17.55 16.32-17.55L21.29-17.55L21.29-16.44L18.19-16.44C17.96-16.44 17.81-16.28 17.81-16.04C17.81-15.82 17.95-15.67 18.19-15.67L21.29-15.67L21.29-14.54L18.19-14.54C17.96-14.54 17.81-14.38 17.81-14.14C17.81-13.92 17.95-13.77 18.19-13.77L21.29-13.77L21.29-12.66L18.19-12.66C17.96-12.66 17.81-12.49 17.81-12.26C17.81-12.04 17.95-11.87 18.19-11.87L21.29-11.87L21.29-10.76L18.19-10.76C17.96-10.76 17.81-10.59 17.81-10.35C17.81-10.14 17.95-9.97 18.19-9.97L21.29-9.97L21.29-8.86L16.32-8.86C16.10-8.86 15.94-8.70 15.94-8.46C15.94-8.24 16.10-8.09 16.32-8.09L21.29-8.09L21.29-6.96L18.19-6.96C17.96-6.96 17.81-6.80 17.81-6.57C17.81-6.35 17.95-6.18 18.19-6.18L21.29-6.18L21.29-5.06L18.19-5.06C17.96-5.06 17.81-4.91 17.81-4.66C17.81-4.44 17.95-4.28 18.19-4.28L21.29-4.28L21.29-3.16L18.19-3.16C17.96-3.16 17.81-3.01 17.81-2.78C17.81-2.57 17.95-2.39 18.19-2.39L21.29-2.39L21.29-1.28L18.19-1.28C17.96-1.28 17.81-1.13 17.81-0.89C17.81-0.66 17.95-0.50 18.19-0.50L21.29-0.50L21.29 0.61L16.32 0.61C16.10 0.61 15.94 0.77 15.94 1.01C15.94 1.23 16.10 1.39 16.32 1.39L21.29 1.39L21.29 1.42C21.29 2.41 20.67 3.05 19.66 3.05ZM2.99 1.62L3.93 4.16C4.02 4.39 4.38 4.41 4.48 4.17L5.50 1.63L5.50-17.54L2.99-17.54Z" fill="currentColor"/>
</svg>