<svg xmlns="http://www.w3.org/2000/svg" viewBox="0 0 24 24" width="24" height="24">
  
  <path transform="matrix(0.8507809903622466, 0, 0, 0.8507809903622466, 0.21535393818544368, 19.19840478564307)" d="M13.85 3.29C20.34 3.29 25.61-1.97 25.61-8.46C25.61-14.95 20.34-20.21 13.85-20.21C7.36-20.21 2.10-14.95 2.10-8.46C2.10-1.97 7.36 3.29 13.85 3.29ZM13.23-13.80L11.26-7.80L11.13-7.80C10.64-7.80 10.24-7.43 10.14-6.95L8.55 0.29C5.59-1.50 3.62-4.75 3.62-8.46C3.62-14.12 8.19-18.70 13.85-18.70C19.51-18.70 24.09-14.12 24.09-8.46C24.09-4.75 22.13-1.50 19.17 0.29L17.59-6.94C17.48-7.43 17.07-7.80 16.59-7.80L16.45-7.80L14.48-13.80C14.27-14.41 13.43-14.43 13.23-13.80ZM13.85 1.77C12.36 1.77 10.95 1.45 9.66 0.88L11.30-6.60L16.43-6.60L18.06 0.88C16.77 1.45 15.35 1.77 13.85 1.77Z" fill="currentColor"/>
</svg>