<svg xmlns="http://www.w3.org/2000/svg" viewBox="0 0 24 24" width="24" height="24">
  
  <path transform="matrix(0.6825293850991047, 0, 0, 0.6825293850991047, 0.3693391781839164, 17.770839273621142)" d="M17.06-8.51C19.79-8.51 21.98-10.90 21.98-13.90C21.98-16.82 19.78-19.15 17.06-19.15C14.34-19.15 12.14-16.79 12.14-13.89C12.14-10.90 14.33-8.51 17.06-8.51ZM17.06-9.88C15.15-9.88 13.58-11.63 13.58-13.89C13.58-16.05 15.15-17.78 17.06-17.78C18.97-17.78 20.53-16.08 20.53-13.90C20.53-11.64 18.97-9.88 17.06-9.88ZM6.86-11.63L6.86-13.18L9.91-13.18C10.31-13.18 10.63-13.50 10.63-13.90C10.63-14.29 10.31-14.60 9.91-14.60L6.86-14.60L6.86-16.15C6.86-16.84 6.16-17.06 5.64-16.66L2.68-14.45C2.30-14.16 2.29-13.62 2.68-13.32L5.64-11.12C6.18-10.70 6.86-10.95 6.86-11.63ZM24.16-13.18L27.23-13.18L27.23-11.63C27.23-10.95 27.90-10.70 28.45-11.12L31.41-13.32C31.79-13.62 31.78-14.16 31.41-14.45L28.45-16.66C27.93-17.06 27.23-16.84 27.23-16.15L27.23-14.60L24.16-14.60C23.78-14.60 23.46-14.29 23.46-13.90C23.46-13.50 23.78-13.18 24.16-13.18ZM9.48 2.24L24.61 2.24C26.33 2.24 27.14 1.69 27.14 0.50C27.14-2.54 23.30-6.90 17.05-6.90C10.79-6.90 6.95-2.54 6.95 0.50C6.95 1.69 7.76 2.24 9.48 2.24ZM9.12 0.87C8.58 0.87 8.40 0.73 8.40 0.36C8.40-1.86 11.53-5.53 17.05-5.53C22.56-5.53 25.70-1.86 25.70 0.36C25.70 0.73 25.51 0.87 24.98 0.87Z" fill="currentColor"/>
</svg>