<svg xmlns="http://www.w3.org/2000/svg" viewBox="0 0 24 24" width="24" height="24">
  <title>person.3.fill</title>
  <path transform="matrix(0.4535388431216228, 0, 0, 0.4535388431216228, 0.6446983789529632, 15.837363805474354)" d="M25.05-8.75C27.60-8.75 29.70-10.99 29.70-13.90C29.70-16.71 27.57-18.90 25.05-18.90C22.55-18.90 20.41-16.69 20.43-13.89C20.43-10.99 22.52-8.75 25.05-8.75ZM11.54-8.50C13.75-8.50 15.57-10.44 15.57-12.97C15.57-15.42 13.72-17.32 11.54-17.32C9.35-17.32 7.49-15.40 7.50-12.95C7.50-10.44 9.34-8.50 11.54-8.50ZM38.53-8.50C40.73-8.50 42.56-10.44 42.56-12.95C42.56-15.40 40.71-17.32 38.53-17.32C36.35-17.32 34.50-15.42 34.50-12.97C34.50-10.44 36.33-8.50 38.53-8.50ZM4.88 1.98L14.27 1.98C13.03 0.57 14.30-2.98 16.85-5.03C15.55-5.99 13.82-6.70 11.52-6.70C6.27-6.70 2.99-2.86 2.99 0.41C2.99 1.46 3.56 1.98 4.88 1.98ZM45.20 1.98C46.51 1.98 47.09 1.46 47.09 0.41C47.09-2.86 43.80-6.70 38.54-6.70C36.25-6.70 34.51-5.99 33.21-5.03C35.78-2.98 37.04 0.57 35.79 1.98ZM17.48 1.98L32.61 1.98C34.21 1.98 34.85 1.52 34.85 0.50C34.85-2.51 31.09-6.66 25.04-6.66C19.00-6.66 15.23-2.51 15.23 0.50C15.23 1.52 15.89 1.98 17.48 1.98Z" fill="currentColor"/>
</svg>