<svg xmlns="http://www.w3.org/2000/svg" viewBox="0 0 24 24" width="24" height="24">
  
  <path transform="matrix(0.7287218901224025, 0, 0, 0.7287218901224025, -0.17762596071733583, 18.161400512382578)" d="M6.45 2.16L26.98 2.16C29.27 2.16 30.43 0.98 30.43-1.27L30.43-15.64C30.43-17.89 29.27-19.07 26.98-19.07L6.45-19.07C4.16-19.07 2.99-17.91 2.99-15.64L2.99-1.27C2.99 1.00 4.16 2.16 6.45 2.16ZM11.68-8.48C10.24-8.48 9.08-9.69 9.08-11.32C9.08-12.84 10.24-14.11 11.68-14.11C13.14-14.11 14.30-12.84 14.30-11.32C14.30-9.69 13.14-8.47 11.68-8.48ZM19.45-12.67C19.11-12.67 18.87-12.93 18.87-13.25C18.87-13.57 19.11-13.82 19.45-13.82L26.05-13.82C26.38-13.82 26.64-13.57 26.64-13.25C26.64-12.93 26.38-12.67 26.05-12.67ZM19.45-7.86C19.11-7.86 18.87-8.12 18.87-8.45C18.87-8.77 19.11-9.02 19.45-9.02L26.05-9.02C26.38-9.02 26.64-8.77 26.64-8.45C26.64-8.12 26.38-7.86 26.05-7.86ZM6.94-3.01C6.60-3.01 6.45-3.22 6.45-3.54C6.45-4.68 8.12-7.64 11.68-7.64C15.25-7.64 16.93-4.68 16.93-3.54C16.93-3.22 16.78-3.01 16.44-3.01ZM19.45-3.06C19.11-3.06 18.87-3.32 18.87-3.63C18.87-3.96 19.11-4.22 19.45-4.22L26.05-4.22C26.38-4.22 26.64-3.96 26.64-3.63C26.64-3.32 26.38-3.06 26.05-3.06Z" fill="currentColor"/>
</svg>