<svg xmlns="http://www.w3.org/2000/svg" viewBox="0 0 24 24" width="24" height="24">
  
  <path transform="matrix(0.6951799049558723, 0, 0, 0.6951799049558723, 0.5417515274949085, 18.45213849287169)" d="M24.79 0.59C28.20 0.59 30.87-1.85 30.87-4.93C30.87-7.32 29.52-9.42 27.21-10.29C27.29-15.41 23.65-19.15 19.00-19.15C15.80-19.15 13.59-17.41 12.29-15.30C9.48-16.28 6.36-14.09 6.35-10.86C3.76-10.55 2.10-8.30 2.10-5.50C2.10-2.14 4.99 0.57 8.85 0.57ZM17.21-6.60C15.50-6.62 14.13-8.13 14.13-9.98C14.12-11.80 15.50-13.29 17.21-13.29C18.93-13.29 20.31-11.80 20.31-9.98C20.31-8.13 18.93-6.59 17.21-6.60ZM10.68-1.09C11.61-3.20 13.80-5.17 17.21-5.17C20.64-5.17 22.82-3.20 23.77-1.09Z" fill="currentColor"/>
</svg>