<svg xmlns="http://www.w3.org/2000/svg" viewBox="0 0 24 24" width="24" height="24">
  
  <path transform="matrix(0.44853263250109504, 0, 0, 0.44853263250109504, 0.6596583442838371, 15.792378449408673)" d="M25.28-8.51C28.02-8.51 30.21-10.90 30.21-13.90C30.21-16.82 28.01-19.15 25.28-19.15C22.57-19.15 20.34-16.79 20.36-13.89C20.38-10.90 22.55-8.51 25.28-8.51ZM25.28-9.88C23.38-9.88 21.81-11.63 21.81-13.89C21.80-16.05 23.37-17.78 25.28-17.78C27.20-17.78 28.76-16.08 28.76-13.90C28.76-11.64 27.20-9.88 25.28-9.88ZM11.78-8.36C14.17-8.36 16.07-10.44 16.07-13.08C16.07-15.62 14.16-17.68 11.78-17.68C9.43-17.68 7.49-15.59 7.50-13.07C7.52-10.43 9.41-8.36 11.78-8.36ZM38.78-8.36C41.16-8.36 43.04-10.43 43.05-13.07C43.08-15.59 41.13-17.68 38.78-17.68C36.41-17.68 34.50-15.62 34.50-13.08C34.50-10.44 36.40-8.36 38.78-8.36ZM11.78-9.70C10.17-9.70 8.86-11.18 8.86-13.07C8.86-14.86 10.17-16.32 11.78-16.32C13.41-16.32 14.72-14.87 14.72-13.08C14.72-11.18 13.41-9.70 11.78-9.70ZM38.78-9.70C37.16-9.70 35.85-11.18 35.85-13.08C35.85-14.87 37.16-16.32 38.78-16.32C40.38-16.32 41.71-14.86 41.71-13.07C41.71-11.18 40.39-9.70 38.78-9.70ZM5.12 2.24L14.78 2.24C14.33 1.99 13.97 1.45 13.98 0.89L4.93 0.89C4.51 0.89 4.35 0.74 4.35 0.35C4.35-2.78 7.76-5.59 11.77-5.59C13.48-5.59 15.02-5.13 16.27-4.27C16.56-4.62 16.90-4.93 17.30-5.21C15.74-6.35 13.83-6.94 11.77-6.94C6.74-6.94 2.99-3.29 2.99 0.42C2.99 1.64 3.69 2.24 5.12 2.24ZM45.45 2.24C46.86 2.24 47.58 1.64 47.58 0.42C47.58-3.29 43.83-6.94 38.80-6.94C36.74-6.94 34.83-6.35 33.27-5.21C33.67-4.93 34.01-4.62 34.30-4.27C35.54-5.13 37.09-5.59 38.80-5.59C42.80-5.59 46.22-2.78 46.22 0.35C46.22 0.74 46.05 0.89 45.63 0.89L36.59 0.89C36.60 1.45 36.23 1.99 35.79 2.24ZM17.71 2.24L32.84 2.24C34.55 2.24 35.37 1.69 35.37 0.50C35.37-2.54 31.52-6.90 25.27-6.90C19.02-6.90 15.18-2.54 15.18 0.50C15.18 1.69 15.98 2.24 17.71 2.24ZM17.33 0.87C16.80 0.87 16.62 0.73 16.62 0.36C16.62-1.86 19.76-5.53 25.27-5.53C30.77-5.53 33.91-1.86 33.91 0.36C33.91 0.73 33.74 0.87 33.20 0.87Z" fill="currentColor"/>
</svg>