<svg xmlns="http://www.w3.org/2000/svg" viewBox="0 0 24 24" width="24" height="24">
  
  <path transform="matrix(0.8507809903622466, 0, 0, 0.8507809903622466, 0.21535393818544368, 19.19840478564307)" d="M13.85 3.29C20.34 3.29 25.61-1.97 25.61-8.46C25.61-14.95 20.34-20.21 13.85-20.21C7.36-20.21 2.10-14.95 2.10-8.46C2.10-1.97 7.36 3.29 13.85 3.29ZM13.85 1.77C8.19 1.77 3.62-2.80 3.62-8.46C3.62-14.12 8.19-18.70 13.85-18.70C19.51-18.70 24.09-14.12 24.09-8.46C24.09-2.80 19.51 1.77 13.85 1.77ZM11.48-3.20C11.82-3.20 12.05-3.42 12.05-3.76L12.05-7.07L14.24-7.07C16.13-7.07 17.47-8.25 17.59-10.07L18.20-10.07C18.40-10.07 18.55-10.22 18.55-10.41C18.55-10.59 18.40-10.75 18.20-10.75L17.59-10.75C17.41-12.50 16.07-13.61 14.25-13.61L11.50-13.61C11.14-13.61 10.92-13.38 10.92-13.03L10.92-10.75L10.15-10.75C9.96-10.75 9.81-10.59 9.81-10.41C9.81-10.21 9.96-10.07 10.15-10.07L10.92-10.07L10.92-3.76C10.92-3.42 11.14-3.20 11.48-3.20ZM12.05-12.67L13.98-12.67C15.32-12.67 16.27-12.02 16.43-10.75L12.05-10.75ZM12.05-8.02L12.05-10.07L16.44-10.07C16.32-8.72 15.40-8.02 13.97-8.02Z" fill="currentColor"/>
</svg>