<svg xmlns="http://www.w3.org/2000/svg" viewBox="0 0 24 24" width="24" height="24">
  
  <path transform="matrix(0.7763257716771778, 0, 0, 0.7763257716771778, 2.1218147135003904, 18.568443833799872)" d="M0.53-10.62C-0.15-10.62-0.35-10.15 0.05-9.60L2.60-5.95C2.93-5.50 3.39-5.50 3.70-5.95L6.26-9.60C6.64-10.15 6.45-10.62 5.78-10.62L3.84-10.62C4.83-15.25 8.93-18.70 13.85-18.70C19.51-18.70 24.08-14.12 24.08-8.46C24.08-2.80 19.51 1.77 13.85 1.77C10.29 1.77 7.16-0.05 5.36-2.80C5.09-3.16 4.65-3.28 4.28-3.06C3.93-2.85 3.82-2.33 4.11-1.93C6.21 1.22 9.77 3.29 13.85 3.29C20.34 3.29 25.61-1.97 25.61-8.46C25.61-14.95 20.34-20.21 13.85-20.21C8.10-20.21 3.32-16.09 2.30-10.62ZM11.57-3.20C11.91-3.20 12.14-3.42 12.14-3.76L12.14-6.83L14.31-6.83C15.90-6.83 17.04-7.69 17.48-8.98L18.29-8.98C18.48-8.98 18.63-9.13 18.63-9.30C18.63-9.49 18.48-9.63 18.29-9.63L17.65-9.63C17.67-9.83 17.70-10.03 17.70-10.23C17.70-10.43 17.68-10.62 17.65-10.80L18.29-10.80C18.48-10.80 18.63-10.95 18.63-11.13C18.63-11.31 18.48-11.46 18.29-11.46L17.50-11.46C17.06-12.74 15.95-13.61 14.33-13.61L11.57-13.61C11.21-13.61 11.00-13.39 11.00-13.03L11.00-11.46L10.22-11.46C10.03-11.46 9.88-11.31 9.88-11.13C9.88-10.93 10.03-10.80 10.22-10.80L11.00-10.80L11.00-9.63L10.22-9.63C10.03-9.63 9.88-9.49 9.88-9.30C9.88-9.11 10.03-8.98 10.22-8.98L11.00-8.98L11.00-3.76C11.00-3.42 11.24-3.20 11.57-3.20ZM12.14-12.67L14.07-12.67C15.12-12.67 15.91-12.25 16.29-11.46L12.14-11.46ZM16.56-10.23C16.56-10.02 16.54-9.82 16.50-9.63L12.14-9.63L12.14-10.80L16.51-10.80C16.54-10.63 16.56-10.43 16.56-10.23ZM12.14-7.78L12.14-8.98L16.28-8.98C15.89-8.21 15.12-7.78 14.07-7.78Z" fill="currentColor"/>
</svg>