<svg xmlns="http://www.w3.org/2000/svg" viewBox="0 0 24 24" width="24" height="24">
  
  <path transform="matrix(0.8529068798933866, 0, 0, 0.8529068798933866, 0.24587706146926536, 19.76111944027986)" d="M16.43-11.57L17.63-11.57C18.19-11.57 18.45-11.87 18.45-12.30L18.45-20.09C18.45-20.52 18.19-20.82 17.63-20.82L16.43-20.82C15.88-20.82 15.62-20.52 15.62-20.09L15.62-12.30C15.62-11.87 15.88-11.57 16.43-11.57ZM21.84-11.57L23.05-11.57C23.59-11.57 23.85-11.87 23.85-12.30L23.85-20.09C23.85-20.52 23.59-20.82 23.05-20.82L21.84-20.82C21.30-20.82 21.04-20.52 21.04-20.09L21.04-12.30C21.04-11.87 21.30-11.57 21.84-11.57ZM19.24 2.63C21.09 2.63 22.45 2.11 23.63 0.83C23.70 0.76 23.77 0.69 23.82 0.61C24.53-0.14 24.87-0.88 24.87-1.58C24.87-2.33 24.46-3.06 23.54-3.68L20.67-5.64C19.84-6.21 19.09-6.26 18.06-5.77L16.22-4.88C15.83-4.70 15.50-4.69 15.11-4.93C14.58-5.25 13.41-6.18 12.36-7.22C11.32-8.29 10.48-9.35 10.14-9.97C9.96-10.29 9.97-10.52 10.18-10.85L11.26-12.55C11.72-13.27 11.80-14.14 11.27-14.89L8.99-18.22C8.36-19.13 7.64-19.54 6.90-19.55C6.21-19.56 5.46-19.21 4.71-18.52C4.63-18.45 4.56-18.38 4.48-18.30C3.22-17.14 2.70-15.79 2.70-13.95C2.70-10.64 4.83-6.67 8.41-3.09C11.98 0.47 15.94 2.63 19.24 2.63ZM19.24 1.25C16.27 1.29 12.53-0.97 9.45-4.03C6.35-7.13 4.03-10.96 4.07-13.96C4.09-15.26 4.54-16.41 5.48-17.27C5.54-17.33 5.60-17.38 5.66-17.43C6.08-17.82 6.53-18.02 6.91-18.02C7.29-18.02 7.59-17.87 7.85-17.48L10.01-14.27C10.22-13.96 10.22-13.64 9.96-13.21L8.78-11.32C8.34-10.63 8.40-10.05 8.84-9.42C9.40-8.60 10.37-7.35 11.43-6.28C12.48-5.21 13.80-4.14 14.58-3.62C15.21-3.20 15.83-3.11 16.71-3.53L18.71-4.48C19.23-4.71 19.63-4.65 20.06-4.37L22.80-2.53C23.18-2.29 23.34-1.96 23.34-1.59C23.34-1.21 23.14-0.76 22.75-0.33C22.69-0.27 22.65-0.22 22.61-0.16C21.73 0.80 20.57 1.23 19.24 1.25Z" fill="currentColor"/>
</svg>