<svg xmlns="http://www.w3.org/2000/svg" viewBox="0 0 24 24" width="24" height="24">
  
  <path transform="matrix(0.8507809903622466, 0, 0, 0.8507809903622466, 0.21535393818544368, 19.19840478564307)" d="M13.85 3.29C20.33 3.29 25.61-1.98 25.61-8.46C25.61-14.94 20.33-20.21 13.85-20.21C7.37-20.21 2.10-14.94 2.10-8.46C2.10-1.98 7.37 3.29 13.85 3.29ZM7.13-14.11L20.59-14.11C20.89-14.11 21.09-13.90 21.09-13.59L21.09-3.32C21.09-3.01 20.89-2.80 20.59-2.80L7.13-2.80C6.81-2.80 6.62-3.01 6.62-3.32L6.62-13.59C6.62-13.90 6.81-14.11 7.13-14.11ZM7.46-3.80C7.46-3.69 7.49-3.67 7.59-3.67L20.11-3.67C20.21-3.67 20.24-3.69 20.24-3.80L20.24-13.11C20.24-13.22 20.21-13.24 20.11-13.24L7.59-13.24C7.49-13.24 7.46-13.22 7.46-13.11ZM8.12-4.72L8.12-12.19C8.12-12.43 8.27-12.59 8.53-12.59L19.17-12.59C19.43-12.59 19.59-12.43 19.59-12.19L19.59-4.72C19.59-4.48 19.43-4.32 19.17-4.32L8.53-4.32C8.27-4.32 8.12-4.48 8.12-4.72ZM8.84-6.15L10.23-7.44C10.44-7.62 10.65-7.75 10.92-7.75C11.18-7.75 11.44-7.62 11.65-7.43L12.50-6.66L14.65-8.59C14.89-8.80 15.15-8.89 15.46-8.89C15.76-8.89 16.04-8.79 16.28-8.57L18.87-6.16L18.87-11.86C18.87-11.91 18.88-11.88 18.87-11.88L8.84-11.88C8.84-11.88 8.84-11.91 8.84-11.86ZM10.46-9.69C10.46-10.37 11.03-10.95 11.72-10.95C12.41-10.95 12.97-10.37 12.97-9.69C12.97-9 12.41-8.44 11.72-8.44C11.03-8.44 10.46-9 10.46-9.69Z" fill="currentColor"/>
</svg>