<svg xmlns="http://www.w3.org/2000/svg" viewBox="0 0 24 24" width="24" height="24">
  <title>pin.fill</title>
  <path transform="matrix(0.745269286754003, 0, 0, 0.745269286754003, 2.1659388646288202, 17.973799126637555)" d="M4.45-4.92C4.45-4.08 5.05-3.50 5.98-3.50L12.36-3.50L12.36 2.68C12.36 4.15 12.95 5.40 13.20 5.40C13.44 5.40 14.03 4.15 14.03 2.68L14.03-3.50L20.41-3.50C21.34-3.50 21.94-4.08 21.94-4.92C21.94-7.43 19.97-9.95 16.77-11.07L16.39-16.54C17.88-17.40 19.29-18.49 19.90-19.31C20.17-19.68 20.31-20.03 20.31-20.34C20.31-20.96 19.82-21.43 19.08-21.43L7.31-21.43C6.57-21.43 6.09-20.96 6.09-20.34C6.09-20.03 6.22-19.68 6.49-19.31C7.11-18.49 8.52-17.40 10.00-16.54L9.62-11.07C6.42-9.95 4.45-7.43 4.45-4.92Z" fill="currentColor"/>
</svg>