<svg xmlns="http://www.w3.org/2000/svg" viewBox="0 0 24 24" width="24" height="24">
  <title>pin.circle.fill</title>
  <path transform="matrix(0.8507809903622466, 0, 0, 0.8507809903622466, 0.21535393818544368, 19.188434695912264)" d="M13.85 3.30C20.33 3.30 25.61-1.97 25.61-8.45C25.61-14.93 20.33-20.20 13.85-20.20C7.37-20.20 2.10-14.93 2.10-8.45C2.10-1.97 7.37 3.30 13.85 3.30ZM9.16-6.06C9.16-7.39 10.23-8.75 11.94-9.35L12.14-12.29C11.39-12.74 10.66-13.29 10.32-13.72C10.16-13.95 10.05-14.17 10.05-14.36C10.05-14.70 10.31-14.93 10.71-14.93L17.00-14.93C17.40-14.93 17.66-14.70 17.66-14.36C17.66-14.17 17.58-13.96 17.41-13.75C17.07-13.31 16.34-12.75 15.57-12.29L15.77-9.35C17.48-8.75 18.55-7.39 18.55-6.06C18.55-5.59 18.23-5.30 17.74-5.30L14.47-5.30L14.47-2.85C14.47-1.76 14.04-0.83 13.85-0.83C13.66-0.83 13.24-1.76 13.24-2.85L13.24-5.30L9.96-5.30C9.48-5.30 9.16-5.59 9.16-6.06Z" fill="currentColor"/>
</svg>