<svg xmlns="http://www.w3.org/2000/svg" viewBox="0 0 24 24" width="24" height="24">
  <title>pip.exit</title>
  <path transform="matrix(0.6698063840920984, 0, 0, 0.6698063840920984, -0.0015698587127159769, 17.65149136577708)" d="M6.45-1.65L14.24-1.65L14.24 0.02C14.24 2.30 15.41 3.46 17.70 3.46L29.39 3.46C31.68 3.46 32.85 2.29 32.85 0.02L32.85-7.66C32.85-9.93 31.68-11.09 29.39-11.09L27.01-11.09L27.01-16.91C27.01-19.16 25.84-20.33 23.55-20.33L6.45-20.33C4.15-20.33 2.99-19.18 2.99-16.91L2.99-5.07C2.99-2.81 4.15-1.65 6.45-1.65ZM6.47-3.11C5.16-3.11 4.44-3.80 4.44-5.16L4.44-16.83C4.44-18.19 5.16-18.88 6.47-18.88L23.52-18.88C24.82-18.88 25.56-18.19 25.56-16.83L25.56-11.09L17.70-11.09C15.41-11.09 14.24-9.94 14.24-7.66L14.24-3.11ZM7.20-12.11C7.23-11.79 7.64-11.43 8.04-11.84L9.38-13.16L11.47-11.05C11.70-10.83 12.07-10.83 12.29-11.05C12.52-11.29 12.52-11.65 12.29-11.88L10.20-13.98L11.51-15.32C11.92-15.71 11.57-16.11 11.24-16.16L7.14-16.84C6.96-16.88 6.79-16.80 6.66-16.70C6.54-16.57 6.48-16.39 6.52-16.22Z" fill="currentColor"/>
</svg>