<svg xmlns="http://www.w3.org/2000/svg" viewBox="0 0 24 24" width="24" height="24">
  <title>playpause</title>
  <path transform="matrix(0.6926406926406926, 0, 0, 0.6926406926406926, -0.06980519480519476, 17.86038961038961)" d="M2.99-1.14C2.99-0.16 3.56 0.27 4.22 0.27C4.50 0.27 4.80 0.19 5.09 0.02L17.38-7.22C18.09-7.63 18.39-7.96 18.39-8.46C18.39-8.96 18.09-9.29 17.38-9.70L5.09-16.96C4.80-17.11 4.50-17.19 4.22-17.19C3.56-17.19 2.99-16.76 2.99-15.80ZM23.40 0.27C23.82 0.27 24.16-0.06 24.16-0.48L24.16-16.45C24.16-16.86 23.82-17.19 23.40-17.19C22.97-17.19 22.64-16.86 22.64-16.45L22.64-0.48C22.64-0.06 22.97 0.27 23.40 0.27ZM31.10 0.27C31.54 0.27 31.86-0.06 31.86-0.48L31.86-16.45C31.86-16.86 31.54-17.19 31.10-17.19C30.68-17.19 30.34-16.86 30.34-16.45L30.34-0.48C30.34-0.06 30.68 0.27 31.10 0.27ZM4.44-1.73L4.44-15.19C4.44-15.35 4.55-15.46 4.68-15.46C4.73-15.46 4.79-15.45 4.85-15.41L16.30-8.66C16.39-8.60 16.43-8.53 16.43-8.46C16.43-8.39 16.39-8.33 16.30-8.27L4.85-1.51C4.79-1.48 4.73-1.46 4.68-1.46C4.55-1.46 4.44-1.57 4.44-1.73Z" fill="currentColor"/>
</svg>