<svg xmlns="http://www.w3.org/2000/svg" viewBox="0 0 24 24" width="24" height="24">
  
  <path transform="matrix(1.0020059689808698, 0, 0, 1.0020059689808698, 2.0264200792602396, 20.575529101597482)" d="M17.33 0.06C17.60 0.34 18.06 0.34 18.33 0.06C18.60-0.22 18.60-0.66 18.33-0.93L1.17-18.07C0.91-18.34 0.46-18.35 0.18-18.07C-0.09-17.80-0.09-17.34 0.18-17.07ZM15.68-5.27L18.86-7.16C19.64-7.61 19.93-7.93 19.93-8.46C19.93-8.99 19.64-9.32 18.86-9.76L5.20-17.82C4.91-17.99 4.59-18.08 4.29-18.08C4.01-18.08 3.74-17.99 3.56-17.78L6.01-15.32C6.04-15.50 6.21-15.55 6.39-15.45L17.87-8.68C17.98-8.63 18.01-8.54 18.01-8.46C18.01-8.38 17.98-8.30 17.87-8.24L14.64-6.33ZM11.23-4.34L4.91-0.62C4.68-0.48 4.44-0.59 4.44-0.87L4.44-11.12L2.99-12.56L2.99-0.33C2.99 0.69 3.60 1.16 4.29 1.16C4.59 1.16 4.91 1.07 5.20 0.90L12.28-3.28Z" fill="currentColor"/>
</svg>