<svg xmlns="http://www.w3.org/2000/svg" viewBox="0 0 24 24" width="24" height="24">
  
  <path transform="matrix(0.7287218901224025, 0, 0, 0.7287218901224025, -0.17762596071733583, 18.161400512382578)" d="M6.45 2.16L26.98 2.16C29.27 2.16 30.43 0.98 30.43-1.27L30.43-15.64C30.43-17.89 29.27-19.07 26.98-19.07L6.45-19.07C4.16-19.07 2.99-17.91 2.99-15.64L2.99-1.27C2.99 1.00 4.16 2.16 6.45 2.16ZM14.46-3.77C13.97-3.47 13.38-3.71 13.38-4.23L13.38-12.66C13.38-13.17 13.99-13.39 14.46-13.11L21.29-9.02C21.75-8.75 21.76-8.12 21.29-7.84Z" fill="currentColor"/>
</svg>