<svg xmlns="http://www.w3.org/2000/svg" viewBox="0 0 24 24" width="24" height="24">
  <title>play.diamond.fill</title>
  <path transform="matrix(0.7663947756273823, 0, 0, 0.7663947756273823, 0.17178662783921306, 18.483852391041214)" d="M3.61-6.02L13.00 3.36C14.63 4.99 16.27 4.99 17.86 3.39L27.27-6.04C28.88-7.64 28.89-9.28 27.27-10.90L17.88-20.29C16.25-21.91 14.63-21.91 13.02-20.30L3.59-10.89C1.98-9.27 1.99-7.64 3.61-6.02ZM13.63-3.77C13.14-3.48 12.55-3.73 12.55-4.24L12.55-12.67C12.55-13.18 13.16-13.41 13.63-13.13L20.46-9.04C20.92-8.75 20.93-8.12 20.46-7.85Z" fill="currentColor"/>
</svg>