<svg xmlns="http://www.w3.org/2000/svg" viewBox="0 0 24 24" width="24" height="24">
  
  <path transform="matrix(0.6756400105568752, 0, 0, 0.6756400105568752, 0.5827395091053049, 17.71654790182106)" d="M2.10-8.46C2.10-1.78 6.57 2.52 13.37 2.52L20.43 2.52C27.23 2.52 31.70-1.78 31.70-8.46C31.70-15.14 27.23-19.44 20.43-19.44L13.37-19.44C6.57-19.44 2.10-15.14 2.10-8.46ZM16.89-3.04C16.44-3.04 16.13-3.38 16.13-3.82L16.13-7.70L12.26-7.70C11.79-7.70 11.46-8.02 11.46-8.46C11.46-8.93 11.79-9.26 12.26-9.26L16.13-9.26L16.13-13.13C16.13-13.58 16.44-13.92 16.89-13.92C17.36-13.92 17.68-13.59 17.68-13.13L17.68-9.26L21.55-9.26C22.01-9.26 22.34-8.93 22.34-8.46C22.34-8.02 22.01-7.70 21.55-7.70L17.68-7.70L17.68-3.82C17.68-3.36 17.36-3.04 16.89-3.04Z" fill="currentColor"/>
</svg>