<svg xmlns="http://www.w3.org/2000/svg" viewBox="0 0 24 24" width="24" height="24">
  
  <path transform="matrix(0.8507809903622466, 0, 0, 0.8507809903622466, 0.21535393818544368, 19.19840478564307)" d="M13.85 3.29C20.34 3.29 25.61-1.97 25.61-8.46C25.61-14.95 20.34-20.21 13.85-20.21C7.36-20.21 2.10-14.95 2.10-8.46C2.10-1.97 7.36 3.29 13.85 3.29ZM13.85 1.77C8.19 1.77 3.62-2.80 3.62-8.46C3.62-14.12 8.19-18.70 13.85-18.70C19.51-18.70 24.09-14.12 24.09-8.46C24.09-2.80 19.51 1.77 13.85 1.77ZM9.29-7.72L13.09-7.72L13.09-3.91C13.09-3.47 13.41-3.15 13.83-3.15C14.29-3.15 14.60-3.47 14.60-3.91L14.60-7.72L18.41-7.72C18.86-7.72 19.17-8.04 19.17-8.46C19.17-8.92 18.86-9.23 18.41-9.23L14.60-9.23L14.60-13.03C14.60-13.49 14.29-13.80 13.83-13.80C13.41-13.80 13.09-13.48 13.09-13.03L13.09-9.23L9.29-9.23C8.84-9.23 8.52-8.92 8.52-8.46C8.52-8.04 8.84-7.72 9.29-7.72Z" fill="currentColor"/>
</svg>