<svg xmlns="http://www.w3.org/2000/svg" viewBox="0 0 24 24" width="24" height="24">
  <title>pointer.arrow.motionlines</title>
  <path transform="matrix(0.8726743328700997, 0, 0, 0.8726743328700997, -0.0060898451894182415, 19.42678161919498)" d="M12.41 2.84C13.18 2.53 13.55 1.66 13.23 0.90L9.79-7.25L14.51-7.02C15.15-6.97 15.48-7.68 15.01-8.17L4.00-19.75C3.56-20.19 2.86-19.93 2.86-19.30L2.84-3.48C2.84-2.81 3.60-2.52 4.03-3.02L7.08-6.30L10.46 2.03C10.78 2.78 11.65 3.15 12.41 2.84ZM14.77-18.07C15.18-18.07 15.50-18.40 15.50-18.81C15.50-19.21 15.18-19.52 14.77-19.52L6.11-19.52L7.51-18.07ZM17.85-14.85C18.26-14.85 18.57-15.18 18.57-15.59C18.57-15.98 18.26-16.30 17.85-16.30L9.18-16.30L10.59-14.85ZM20.88-11.63C21.29-11.63 21.62-11.95 21.62-12.36C21.62-12.76 21.29-13.08 20.88-13.08L12.23-13.08L13.66-11.63ZM23.95-9.86L15.32-9.86C15.84-9.32 16.10-8.96 16.20-8.40L23.95-8.40C24.36-8.40 24.68-8.73 24.68-9.14C24.68-9.54 24.36-9.86 23.95-9.86Z" fill="currentColor"/>
</svg>