<svg xmlns="http://www.w3.org/2000/svg" viewBox="0 0 24 24" width="24" height="24">
  
  <path transform="matrix(0.9423891036259894, 0, 0, 0.9423891036259894, -0.8161236885698511, 19.967973495306463)" d="M6.45 2.16L20.75 2.16C23.04 2.16 24.21 0.98 24.21-1.27L24.21-15.64C24.21-17.89 23.04-19.07 20.75-19.07L6.45-19.07C4.16-19.07 2.99-17.91 2.99-15.64L2.99-1.27C2.99 1.00 4.16 2.16 6.45 2.16ZM6.47 0.70C5.16 0.70 4.44 0.01 4.44-1.35L4.44-15.56C4.44-16.92 5.16-17.61 6.47-17.61L20.72-17.61C22.02-17.61 22.76-16.92 22.76-15.56L22.76-1.35C22.76 0.01 22.02 0.70 20.72 0.70ZM19.21-6.70L11.11-14.81C10.51-15.40 9.57-15.12 9.57-14.25L9.57-13.25L17.51-5.34L18.66-5.34C19.46-5.34 19.73-6.18 19.21-6.70ZM6.49-13.89L18.91-1.50C19.10-1.31 19.41-1.31 19.57-1.50C19.76-1.69 19.76-1.98 19.57-2.17L7.16-14.57C6.97-14.74 6.69-14.74 6.49-14.57C6.30-14.38 6.30-14.06 6.49-13.89ZM9.57-9.74L9.57-2.65C9.57-1.88 10.38-1.58 11.02-2.21L14.05-5.25Z" fill="currentColor"/>
</svg>