<svg xmlns="http://www.w3.org/2000/svg" viewBox="0 0 24 24" width="24" height="24">
  <title>powerplug.fill</title>
  <path transform="matrix(0.7072800110512502, 0, 0, 0.7072800110512502, -0.11355159552424343, 18.009117281392456)" d="M2.99-10.22L2.99-6.77C2.99-5.57 3.67-4.91 4.89-4.91L9.56-4.91C11.03-4.91 11.84-4.25 12.77-3.01C14.24-1.03 16.55 0.05 18.98 0.05L22.98 0.05C24.19 0.05 24.84-0.61 24.84-1.80L24.84-3.25L29.85-3.25C30.63-3.25 31.27-3.86 31.27-4.64C31.27-5.45 30.63-6.07 29.85-6.07L24.84-6.07L24.84-10.95L29.85-10.95C30.63-10.95 31.27-11.58 31.27-12.35C31.27-13.14 30.63-13.78 29.85-13.78L24.84-13.78L24.84-15.23C24.84-16.43 24.19-17.04 22.98-17.04L18.98-17.04C16.55-17.04 14.24-16.00 12.77-13.98C11.84-12.73 11.03-12.08 9.56-12.08L4.89-12.08C3.67-12.08 2.99-11.45 2.99-10.22Z" fill="currentColor"/>
</svg>