<svg xmlns="http://www.w3.org/2000/svg" viewBox="0 0 24 24" width="24" height="24">
  
  <path transform="matrix(0.800875958079149, 0, 0, 0.800875958079149, 4.679493195682778, 18.76208352885969)" d="M6.29 4.04L11.99 4.04C14.11 4.04 15.29 2.86 15.29 0.76L15.29-17.66C15.29-19.76 14.11-20.93 11.99-20.93L6.29-20.93C4.18-20.93 2.99-19.76 2.99-17.66L2.99 0.76C2.99 2.86 4.18 4.04 6.29 4.04ZM6.33 2.59C5.17 2.59 4.44 1.88 4.44 0.68L4.44-17.58C4.44-18.77 5.17-19.49 6.33-19.49L11.95-19.49C13.13-19.49 13.85-18.77 13.85-17.58L13.85 0.68C13.85 1.88 13.13 2.59 11.95 2.59ZM9.15-13.25C10.07-13.25 10.82-14.00 10.82-14.92C10.82-15.84 10.07-16.59 9.15-16.59C8.23-16.59 7.48-15.84 7.48-14.92C7.48-14.00 8.23-13.25 9.15-13.25ZM9.15-6.79C10.07-6.79 10.82-7.54 10.82-8.46C10.82-9.38 10.07-10.13 9.15-10.13C8.23-10.13 7.48-9.38 7.48-8.46C7.48-7.54 8.23-6.79 9.15-6.79ZM9.15-0.33C10.07-0.33 10.82-1.08 10.82-2.00C10.82-2.92 10.07-3.67 9.15-3.67C8.23-3.67 7.48-2.92 7.48-2.00C7.48-1.08 8.23-0.33 9.15-0.33Z" fill="currentColor"/>
</svg>