<svg xmlns="http://www.w3.org/2000/svg" viewBox="0 0 24 24" width="24" height="24">
  <title>printer.filled.and.paper</title>
  <path transform="matrix(0.7747011650779241, 0, 0, 0.7747011650779241, -0.3150249659555153, 18.40490240581026)" d="M7.58-17.75L24.22-17.75L24.22-18.12C24.22-19.84 23.07-20.61 21.23-20.61L10.56-20.61C8.79-20.61 7.58-19.84 7.58-18.12ZM9.67 4.08L22.13 4.08C23.70 4.08 24.46 3.38 24.46 1.76L24.46-0.11L25.56-0.11C27.69-0.11 28.80-1.17 28.80-3.32L28.80-13.27C28.80-15.40 27.69-16.46 25.56-16.46L6.23-16.46C4.18-16.46 2.99-15.40 2.99-13.27L2.99-3.32C2.99-1.17 4.10-0.11 6.23-0.11L7.35-0.11L7.35 1.76C7.35 3.38 8.11 4.08 9.67 4.08ZM21.47-12.83C21.47-13.59 22.14-14.27 22.92-14.27C23.70-14.27 24.36-13.59 24.36-12.83C24.36-12.04 23.70-11.38 22.92-11.39C22.14-11.39 21.47-12.01 21.47-12.83ZM10.05 2.71C9.18 2.71 8.81 2.34 8.81 1.45L8.81-7.37C8.81-8.25 9.19-8.63 10.07-8.63L21.74-8.63C22.62-8.63 22.99-8.25 22.99-7.37L22.99 1.45C22.99 2.34 22.63 2.71 21.75 2.71ZM11.55-4.36L20.26-4.36C20.60-4.36 20.85-4.62 20.85-4.95C20.85-5.26 20.60-5.52 20.26-5.52L11.55-5.52C11.20-5.52 10.96-5.26 10.96-4.95C10.96-4.62 11.20-4.36 11.55-4.36ZM11.55-0.25L20.26-0.25C20.60-0.25 20.85-0.50 20.85-0.82C20.85-1.15 20.60-1.41 20.26-1.41L11.55-1.41C11.20-1.41 10.96-1.15 10.96-0.82C10.96-0.50 11.20-0.25 11.55-0.25Z" fill="currentColor"/>
</svg>