<svg xmlns="http://www.w3.org/2000/svg" viewBox="0 0 24 24" width="24" height="24">
  <title>puzzlepiece.extension.fill</title>
  <path transform="matrix(0.7185964912280701, 0, 0, 0.7185964912280701, -0.1473684210526316, 18.09263157894737)" d="M2.99-0.52C2.99 1.50 4.11 2.63 6.13 2.63L21 2.63C23.04 2.63 24.18 1.51 24.18-0.48L24.18-5.53C24.18-5.79 24.39-5.93 24.66-5.73C25.30-5.25 26.06-4.73 27.26-4.73C29.31-4.73 30.82-6.28 30.82-8.38C30.82-10.48 29.31-12.01 27.26-12.01C26.06-12.01 25.30-11.51 24.66-11.02C24.39-10.82 24.18-10.96 24.18-11.23L24.18-16.46C24.18-18.47 23.04-19.58 21-19.58L6.13-19.58C4.11-19.58 2.99-18.46 2.99-16.44L2.99-11.26C2.99-10.55 3.50-10.07 4.16-10.07C4.50-10.07 4.85-10.21 5.20-10.52C5.81-11.06 6.48-11.65 7.75-11.65C9.53-11.65 10.85-10.29 10.85-8.46C10.85-6.63 9.53-5.27 7.75-5.27C6.48-5.27 5.81-5.86 5.20-6.40C4.85-6.71 4.50-6.86 4.16-6.86C3.50-6.86 2.99-6.38 2.99-5.67Z" fill="currentColor"/>
</svg>