<svg xmlns="http://www.w3.org/2000/svg" viewBox="0 0 24 24" width="24" height="24">
  <title>questionmark.key.filled</title>
  <path transform="matrix(0.6661462399167317, 0, 0, 0.6661462399167317, 0.00936768149882905, 17.624512099921937)" d="M8.58-3.56C9.18-3.56 9.46-3.97 9.46-4.54L9.46-5.25C9.48-6.89 10.04-7.63 11.99-8.99C14.12-10.48 15.26-11.96 15.26-14.12C15.26-17.45 12.54-19.55 9.09-19.55C6.43-19.55 4.17-18.14 3.28-15.84C3.07-15.32 2.99-14.84 2.99-14.45C2.99-13.95 3.28-13.61 3.81-13.61C4.27-13.61 4.56-13.86 4.69-14.32C5.19-16.71 6.87-17.91 9.05-17.91C11.51-17.91 13.45-16.39 13.45-14.12C13.45-12.46 12.47-11.40 10.75-10.15C8.77-8.74 7.66-7.49 7.66-5.45L7.66-4.52C7.66-3.95 7.98-3.56 8.58-3.56ZM33.01-8.47C33.01-10.96 31.04-12.94 28.57-12.94C26.71-12.94 25.07-11.82 24.40-10.10L17.59-10.10C17.41-10.10 17.27-10.03 17.13-9.90L15.97-8.75C15.83-8.61 15.81-8.37 15.97-8.19L18.15-6C18.32-5.85 18.55-5.85 18.70-6L20.03-7.34L21.87-5.50C22.02-5.34 22.23-5.34 22.41-5.52L24.23-7.31C25.09-5.20 26.67-4.02 28.57-4.02C31.02-4.02 33.01-6.01 33.01-8.47ZM28.80-8.32C28.80-9.02 29.38-9.60 30.07-9.60C30.79-9.60 31.35-9.04 31.35-8.32C31.35-7.63 30.77-7.05 30.07-7.05C29.38-7.05 28.80-7.63 28.80-8.32ZM8.59 2.66C9.34 2.66 9.94 2.05 9.94 1.31C9.94 0.57 9.34-0.04 8.59-0.04C7.86-0.04 7.25 0.57 7.25 1.31C7.25 2.05 7.86 2.66 8.59 2.66Z" fill="currentColor"/>
</svg>