<svg xmlns="http://www.w3.org/2000/svg" viewBox="0 0 24 24" width="24" height="24">
  <title>questionmark.message</title>
  <path transform="matrix(0.749195200468247, 0, 0, 0.749195200468247, 0.42844600526777876, 18.962247585601403)" d="M15.45 1.84C23.17 1.84 28.79-2.84 28.79-9.29C28.79-15.76 23.16-20.43 15.45-20.43C7.73-20.43 2.10-15.76 2.10-9.29C2.10-7.16 2.72-5.18 3.82-3.56C4.39-2.71 4.61-2.09 4.61-1.57C4.61-0.87 4.37-0.36 3.81 0.13C3.05 0.77 3.42 1.84 4.43 1.84C5.87 1.84 7.50 1.29 8.67 0.47C10.64 1.37 12.95 1.84 15.45 1.84ZM15.45 0.40C13.14 0.40 11.07-0.05 9.32-0.86C8.74-1.11 8.30-1.04 7.73-0.69C7.07-0.25 6.20 0.12 5.39 0.21C5.78-0.27 6.06-0.80 6.06-1.57C6.06-2.39 5.75-3.29 5.04-4.38C4.08-5.77 3.55-7.45 3.55-9.29C3.55-14.89 8.47-18.97 15.45-18.97C22.42-18.97 27.35-14.89 27.35-9.29C27.35-3.70 22.42 0.40 15.45 0.40ZM15.22-6.90C15.67-6.90 15.95-7.20 15.95-7.57L15.95-7.80C15.95-8.51 16.31-8.93 17.17-9.50C18.34-10.29 19.02-10.98 19.02-12.26C19.02-14.02 17.46-15.06 15.54-15.06C13.61-15.06 12.34-14.06 12.08-12.93C12.04-12.75 12.01-12.60 12.01-12.41C12.01-11.99 12.33-11.77 12.64-11.77C12.97-11.77 13.18-11.92 13.32-12.18L13.46-12.40C13.73-13.20 14.48-13.82 15.48-13.82C16.69-13.82 17.46-13.15 17.46-12.19C17.46-11.38 17.00-10.95 15.93-10.20C15.04-9.57 14.50-8.96 14.50-7.89L14.50-7.63C14.50-7.16 14.77-6.90 15.22-6.90ZM15.20-3.56C15.79-3.56 16.29-4.03 16.29-4.62C16.29-5.20 15.80-5.67 15.20-5.67C14.60-5.67 14.11-5.20 14.11-4.62C14.11-4.04 14.61-3.56 15.20-3.56Z" fill="currentColor"/>
</svg>