<svg xmlns="http://www.w3.org/2000/svg" viewBox="0 0 24 24" width="24" height="24">
  
  <path transform="matrix(0.7861200675571933, 0, 0, 0.7861200675571933, -0.34914785812989413, 18.07093505297098)" d="M9.71 4.13C10.16 4.13 10.48 3.88 11.00 3.42L15.13-0.20L23.45-0.20C26.63-0.20 28.43-2.04 28.43-5.17L28.43-14.59C28.43-17.73 26.63-19.57 23.45-19.57L7.97-19.57C4.79-19.57 2.99-17.74 2.99-14.59L2.99-5.17C2.99-2.03 4.79-0.20 7.97-0.20L8.72-0.20L8.72 2.96C8.72 3.67 9.08 4.13 9.71 4.13ZM10.08 2.48L10.08-0.96C10.08-1.45 9.88-1.64 9.39-1.64L7.98-1.64C5.66-1.64 4.44-2.93 4.44-5.18L4.44-14.58C4.44-16.84 5.66-18.12 7.98-18.12L23.44-18.12C25.73-18.12 26.98-16.84 26.98-14.58L26.98-5.18C26.98-2.93 25.73-1.64 23.44-1.64L15.12-1.64C14.59-1.64 14.32-1.56 13.93-1.17ZM10.04-11.09C10.04-9.77 10.89-8.77 12.20-8.77C12.71-8.77 13.22-8.89 13.54-9.29L13.63-9.29C13.21-8.23 12.19-7.57 11.48-7.38C11.09-7.28 10.97-7.11 10.97-6.86C10.97-6.57 11.19-6.35 11.50-6.35C12.59-6.35 15.01-7.70 15.01-10.65C15.01-12.28 13.92-13.44 12.47-13.44C11.09-13.44 10.04-12.45 10.04-11.09ZM16.42-11.09C16.42-9.77 17.27-8.77 18.59-8.77C19.10-8.77 19.59-8.89 19.92-9.29L20.02-9.29C19.59-8.23 18.57-7.57 17.87-7.38C17.48-7.28 17.36-7.11 17.36-6.86C17.36-6.57 17.58-6.35 17.88-6.35C18.96-6.35 21.39-7.70 21.39-10.65C21.39-12.28 20.31-13.44 18.86-13.44C17.47-13.44 16.42-12.45 16.42-11.09Z" fill="currentColor"/>
</svg>