<svg xmlns="http://www.w3.org/2000/svg" viewBox="0 0 24 24" width="24" height="24">
  
  <path transform="matrix(0.7051973265953436, 0, 0, 0.7051973265953436, 0.5207384203839862, 17.970762521075812)" d="M15.01-21.39C7.89-21.39 2.10-15.60 2.10-8.46C2.10-1.34 7.89 4.45 15.01 4.45C20.72 4.45 25.56 0.75 27.27-4.38C26.74-4.34 26.26-4.49 25.86-4.79C24.34-0.25 20.06 3 15.01 3C8.66 3 3.54-2.12 3.54-8.46C3.54-14.81 8.67-19.93 15.01-19.93C20.07-19.93 24.34-16.68 25.88-12.12C26.26-12.43 26.77-12.57 27.27-12.54C25.57-17.66 20.72-21.39 15.01-21.39ZM15.01 0.73C20.10 0.73 24.20-3.39 24.20-8.46C24.20-13.55 20.10-17.66 15.01-17.66C9.94-17.66 5.82-13.55 5.82-8.46C5.82-3.39 9.94 0.73 15.01 0.73ZM12.61-3.89C12.16-3.89 11.89-4.21 11.89-4.65L11.89-12.36C11.89-12.82 12.14-13.16 12.59-13.16L15.40-13.16C17.32-13.16 18.59-11.99 18.59-10.24C18.59-8.99 17.82-7.97 16.66-7.58L18.25-5.03C18.36-4.85 18.43-4.69 18.43-4.51C18.43-4.15 18.14-3.89 17.75-3.89C17.44-3.89 17.23-4.02 17.03-4.34L15.26-7.37L13.35-7.37L13.35-4.65C13.35-4.20 13.07-3.89 12.61-3.89ZM13.35-8.52L15.26-8.52C16.44-8.52 17.17-9.14 17.17-10.22C17.17-11.32 16.42-11.98 15.28-11.98L13.35-11.98ZM27.52-11.00C26.98-11.41 26.29-11.17 26.29-10.50L26.29-6.42C26.29-5.73 26.99-5.52 27.50-5.89L30.16-7.90C30.55-8.19 30.56-8.73 30.16-9.02Z" fill="currentColor"/>
</svg>