<svg xmlns="http://www.w3.org/2000/svg" viewBox="0 0 24 24" width="24" height="24">
  <title>r2.button.roundedtop.horizontal</title>
  <path transform="matrix(0.7575085071756177, 0, 0, 0.7575085071756177, -0.2636484687083889, 18.4092321349312)" d="M12.34-18.42C5.79-18.42 2.99-15.38 2.99-9.27L2.99-1.83C2.99 0.36 4.14 1.50 6.35 1.50L26.03 1.50C28.23 1.50 29.39 0.35 29.39-1.83L29.39-9.27C29.39-15.38 26.59-18.42 20.03-18.42ZM12.36-16.98L20.02-16.98C25.62-16.98 27.94-14.47 27.94-9.34L27.94-1.90C27.94-0.61 27.23 0.05 25.99 0.05L6.39 0.05C5.11 0.05 4.44-0.61 4.44-1.90L4.44-9.34C4.44-14.47 6.75-16.98 12.36-16.98ZM17.87-3.71L21.91-3.71C22.25-3.71 22.46-3.94 22.46-4.28C22.46-4.63 22.24-4.84 21.91-4.84L18.91-4.84L18.91-4.91L20.84-7.46C21.91-8.85 22.27-9.71 22.27-10.72C22.27-12.26 21.30-13.42 19.73-13.42C18.29-13.42 17.25-12.16 17.25-10.93C17.25-10.61 17.45-10.34 17.81-10.34C18.13-10.34 18.33-10.49 18.41-10.79C18.61-11.70 18.96-12.30 19.73-12.30C20.58-12.30 21-11.52 21-10.66C21-9.75 20.47-8.87 19.80-7.98L17.57-5.00C17.39-4.78 17.23-4.55 17.23-4.27C17.23-3.94 17.45-3.71 17.87-3.71ZM11.09-3.59C11.50-3.59 11.75-3.87 11.75-4.30L11.75-7.50L13.11-7.50L14.50-4.14C14.64-3.79 14.84-3.59 15.21-3.59C15.53-3.59 15.86-3.80 15.86-4.25C15.86-4.36 15.80-4.55 15.71-4.75L14.41-7.79C15.36-8.23 15.87-9.19 15.87-10.36C15.87-12.16 14.80-13.21 13.03-13.21L11.06-13.21C10.63-13.21 10.38-12.94 10.38-12.49L10.38-4.30C10.38-3.88 10.64-3.59 11.09-3.59ZM11.75-8.54L11.75-12.09L12.90-12.09C13.90-12.09 14.48-11.41 14.48-10.34C14.48-9.30 13.99-8.54 12.90-8.54Z" fill="currentColor"/>
</svg>