<svg xmlns="http://www.w3.org/2000/svg" viewBox="0 0 24 24" width="24" height="24">
  <title>r2.circle.fill</title>
  <path transform="matrix(0.8507809903622466, 0, 0, 0.8507809903622466, 0.21535393818544368, 19.19840478564307)" d="M13.85 3.29C20.33 3.29 25.61-1.98 25.61-8.46C25.61-14.94 20.33-20.21 13.85-20.21C7.37-20.21 2.10-14.94 2.10-8.46C2.10-1.98 7.37 3.29 13.85 3.29ZM15.48-3.86C15.07-3.86 14.86-4.09 14.86-4.41C14.86-4.69 15.01-4.90 15.18-5.12L17.34-7.99C17.99-8.85 18.52-9.70 18.52-10.59C18.52-11.44 18.11-12.19 17.29-12.19C16.55-12.19 16.20-11.60 16.01-10.73C15.93-10.43 15.73-10.28 15.42-10.28C15.07-10.28 14.87-10.54 14.87-10.86C14.87-12.06 15.89-13.27 17.29-13.27C18.82-13.27 19.76-12.14 19.76-10.65C19.76-9.68 19.41-8.85 18.36-7.50L16.50-5.04L16.50-4.96L19.41-4.96C19.72-4.96 19.93-4.76 19.93-4.41C19.93-4.09 19.73-3.86 19.41-3.86ZM8.88-3.75C8.46-3.75 8.21-4.03 8.21-4.44L8.21-12.38C8.21-12.80 8.45-13.05 8.87-13.05L10.78-13.05C12.50-13.05 13.54-12.06 13.54-10.30C13.54-9.18 13.04-8.24 12.13-7.82L13.38-4.86C13.46-4.68 13.52-4.50 13.52-4.38C13.52-3.94 13.21-3.75 12.89-3.75C12.54-3.75 12.33-3.94 12.20-4.28L10.85-7.54L9.55-7.54L9.55-4.44C9.55-4.02 9.30-3.75 8.88-3.75ZM9.55-8.54L10.65-8.54C11.71-8.54 12.18-9.28 12.18-10.28C12.18-11.32 11.61-11.98 10.65-11.98L9.55-11.98Z" fill="currentColor"/>
</svg>