<svg xmlns="http://www.w3.org/2000/svg" viewBox="0 0 24 24" width="24" height="24">
  <title>r2.circle</title>
  <path transform="matrix(0.8507809903622466, 0, 0, 0.8507809903622466, 0.21535393818544368, 19.19840478564307)" d="M13.85 3.29C20.34 3.29 25.61-1.97 25.61-8.46C25.61-14.95 20.34-20.21 13.85-20.21C7.36-20.21 2.10-14.95 2.10-8.46C2.10-1.97 7.36 3.29 13.85 3.29ZM13.85 1.77C8.19 1.77 3.62-2.80 3.62-8.46C3.62-14.12 8.19-18.70 13.85-18.70C19.51-18.70 24.09-14.12 24.09-8.46C24.09-2.80 19.51 1.77 13.85 1.77ZM15.53-3.73L19.57-3.73C19.90-3.73 20.11-3.95 20.11-4.28C20.11-4.63 19.90-4.84 19.57-4.84L16.57-4.84L16.57-4.92L18.48-7.46C19.56-8.86 19.92-9.71 19.92-10.72C19.92-12.27 18.96-13.42 17.39-13.42C15.95-13.42 14.89-12.18 14.89-10.95C14.89-10.62 15.09-10.35 15.47-10.35C15.79-10.35 15.97-10.50 16.07-10.80C16.25-11.71 16.62-12.32 17.39-12.32C18.23-12.32 18.66-11.53 18.66-10.66C18.66-9.75 18.12-8.87 17.45-7.98L15.21-5.02C15.04-4.78 14.88-4.56 14.88-4.28C14.88-3.95 15.11-3.73 15.53-3.73ZM8.73-3.60C9.15-3.60 9.41-3.88 9.41-4.31L9.41-7.51L10.76-7.51L12.15-4.14C12.28-3.79 12.49-3.60 12.86-3.60C13.18-3.60 13.50-3.80 13.50-4.27C13.50-4.37 13.45-4.55 13.37-4.75L12.06-7.80C13.01-8.24 13.51-9.20 13.51-10.37C13.51-12.18 12.46-13.21 10.68-13.21L8.72-13.21C8.27-13.21 8.03-12.95 8.03-12.50L8.03-4.31C8.03-3.89 8.29-3.60 8.73-3.60ZM9.41-8.55L9.41-12.11L10.55-12.11C11.54-12.11 12.13-11.43 12.13-10.34C12.13-9.32 11.64-8.55 10.56-8.55Z" fill="currentColor"/>
</svg>