<svg xmlns="http://www.w3.org/2000/svg" viewBox="0 0 24 24" width="24" height="24">
  
  <path transform="matrix(0.673241288625904, 0, 0, 0.673241288625904, -0.01183431952662728, 17.35406603438548)" d="M2.99-7.11C2.99-4.70 3.34-3.66 5.13-2.73L11.74 0.64C14.10 1.86 15.71 2.16 18.35 1.39L28.46-1.57C31.48-2.46 32.70-4.18 32.70-7.11L32.70-14.38C32.70-16.41 31.42-17.71 29.39-17.71L6.30-17.72C4.28-17.72 2.99-16.42 2.99-14.40ZM21.25-4.01C19.98-4.01 18.88-4.66 18.54-5.75C18.48-5.95 18.45-6.18 18.45-6.38C18.45-6.76 18.69-7.00 19.07-7.00C19.39-7.00 19.59-6.82 19.68-6.48C19.83-5.84 20.30-5.16 21.26-5.16C22.25-5.16 22.75-5.96 22.75-6.89C22.75-8.04 22.11-8.65 21.01-8.65L20.63-8.65C20.31-8.65 20.09-8.85 20.09-9.16C20.09-9.48 20.29-9.70 20.63-9.70L21-9.70C21.96-9.70 22.52-10.42 22.52-11.36C22.52-12.23 22.08-12.93 21.20-12.93C20.41-12.93 19.99-12.36 19.82-11.59C19.71-11.24 19.54-11.10 19.20-11.10C18.81-11.10 18.60-11.36 18.60-11.67C18.60-11.86 18.62-12.07 18.69-12.30C19.02-13.36 19.98-14.06 21.20-14.06C22.71-14.06 23.84-13.09 23.84-11.51C23.84-10.50 23.32-9.52 22.23-9.23L22.23-9.20C23.31-9.09 24.12-8.27 24.12-6.86C24.12-5.10 22.88-4.01 21.25-4.01ZM12.13-4.08C11.67-4.08 11.40-4.37 11.40-4.82L11.40-13.16C11.40-13.62 11.66-13.89 12.12-13.89L14.11-13.89C15.93-13.89 17.00-12.83 17.00-10.99C17.00-9.80 16.50-8.81 15.54-8.37L16.85-5.26C16.95-5.06 17.00-4.88 17.00-4.76C17.00-4.29 16.68-4.08 16.34-4.08C15.96-4.08 15.74-4.28 15.61-4.64L14.19-8.06L12.82-8.06L12.82-4.82C12.82-4.37 12.55-4.08 12.13-4.08ZM12.82-9.14L13.99-9.14C15.09-9.14 15.59-9.91 15.59-10.95C15.59-12.06 15-12.75 13.98-12.75L12.82-12.75Z" fill="currentColor"/>
</svg>