<svg xmlns="http://www.w3.org/2000/svg" viewBox="0 0 24 24" width="24" height="24">
  <title>rectangle.tophalf.filled</title>
  <path transform="matrix(0.7287218901224025, 0, 0, 0.7287218901224025, -0.17762596071733583, 18.161400512382578)" d="M2.99-1.27C2.99 1.00 4.16 2.16 6.45 2.16L26.98 2.16C29.27 2.16 30.43 0.98 30.43-1.27L30.43-15.64C30.43-17.89 29.27-19.07 26.98-19.07L6.45-19.07C4.16-19.07 2.99-17.91 2.99-15.64ZM4.44-1.35L4.44-8.46L28.98-8.46L28.98-1.35C28.98 0.01 28.24 0.70 26.95 0.70L6.47 0.70C5.16 0.70 4.44 0.01 4.44-1.35Z" fill="currentColor"/>
</svg>