<svg xmlns="http://www.w3.org/2000/svg" viewBox="0 0 24 24" width="24" height="24">
  <title>road.lane.arrowtriangle.2.inward</title>
  <path transform="matrix(0.545609548167093, 0, 0, 0.545609548167093, 0.3695652173913042, 16.60677749360614)" d="M7.85 0.14L9.23 0.14C9.80 0.14 10.08-0.13 10.24-0.55L16.70-16.49C16.82-16.78 16.68-17.03 16.37-17.03L15.74-17.03C15.43-17.03 15.23-16.89 15.11-16.63L7.22-0.89C6.96-0.41 7.15 0.14 7.85 0.14ZM33.40 0.14L34.78 0.14C35.48 0.14 35.67-0.41 35.41-0.89L27.54-16.63C27.40-16.89 27.20-17.03 26.89-17.03L26.26-17.03C25.96-17.03 25.82-16.78 25.93-16.49L32.39-0.55C32.55-0.13 32.84 0.14 33.40 0.14ZM3.90-7.45L8.09-10.00C8.54-10.27 8.53-10.82 8.09-11.10L3.89-13.65C3.45-13.93 2.99-13.71 2.99-13.17L2.99-7.93C2.99-7.38 3.45-7.17 3.90-7.45ZM38.73-7.45C39.19-7.17 39.64-7.38 39.64-7.93L39.64-13.17C39.64-13.71 39.20-13.93 38.74-13.65L34.55-11.10C34.10-10.82 34.10-10.28 34.55-10.00Z" fill="currentColor"/>
</svg>