<svg xmlns="http://www.w3.org/2000/svg" viewBox="0 0 24 24" width="24" height="24">
  <title>rotate.3d.circle</title>
  <path transform="matrix(0.8507809903622466, 0, 0, 0.8507809903622466, 0.21535393818544368, 19.19840478564307)" d="M13.85 3.29C20.34 3.29 25.61-1.97 25.61-8.46C25.61-14.95 20.34-20.21 13.85-20.21C7.36-20.21 2.10-14.95 2.10-8.46C2.10-1.97 7.36 3.29 13.85 3.29ZM13.85 1.77C8.19 1.77 3.62-2.80 3.62-8.46C3.62-14.12 8.19-18.70 13.85-18.70C19.51-18.70 24.09-14.12 24.09-8.46C24.09-2.80 19.51 1.77 13.85 1.77ZM12.27-6.88C12.76-6.86 13.30-6.83 13.85-6.83C17.91-6.83 20.64-7.56 20.65-8.47C20.65-12.19 17.57-15.26 13.85-15.26C12.95-15.25 12.22-12.52 12.22-8.46C12.22-7.91 12.23-7.38 12.27-6.88ZM11.40-6.91C11.37-7.42 11.34-7.93 11.34-8.46C11.34-11.48 11.85-13.91 12.61-15.15C9.48-14.55 7.07-11.77 7.05-8.47C7.05-7.76 8.72-7.16 11.40-6.91ZM11.46-6.07C9.55-6.26 8.05-6.68 7.17-7.23C7.68-4.48 9.87-2.29 12.61-1.78C12.06-2.66 11.65-4.17 11.46-6.07ZM12.30-6.01C12.54-3.33 13.14-1.66 13.86-1.66C17.16-1.68 19.95-4.09 20.53-7.23C19.30-6.47 16.88-5.96 13.85-5.96C13.31-5.96 12.80-5.99 12.30-6.01Z" fill="currentColor"/>
</svg>