<svg xmlns="http://www.w3.org/2000/svg" viewBox="0 0 24 24" width="24" height="24">
  
  <path transform="matrix(0.673241288625904, 0, 0, 0.673241288625904, -0.01183431952662728, 17.35406603438548)" d="M2.99-7.11C2.99-4.70 3.34-3.66 5.13-2.73L11.74 0.64C14.10 1.86 15.71 2.16 18.35 1.39L28.46-1.57C31.48-2.46 32.70-4.18 32.70-7.11L32.70-14.38C32.70-16.41 31.42-17.71 29.39-17.71L6.30-17.72C4.28-17.72 2.99-16.42 2.99-14.40ZM18.13-4.35C16.78-4.35 15.75-5.05 15.43-6.28C15.38-6.47 15.38-6.54 15.38-6.71C15.38-7.08 15.60-7.36 15.97-7.36C16.28-7.36 16.52-7.22 16.59-6.87C16.72-6.09 17.26-5.48 18.15-5.48C19.03-5.48 19.57-6.11 19.57-6.96C19.57-7.91 18.98-8.32 18.13-8.65L17.50-8.89C16.27-9.38 15.43-10.11 15.43-11.57C15.43-13.15 16.54-14.17 18.06-14.17C19.32-14.17 20.30-13.48 20.64-12.29C20.68-12.09 20.70-11.96 20.70-11.85C20.70-11.51 20.47-11.26 20.10-11.26C19.79-11.26 19.57-11.39 19.48-11.72C19.35-12.45 18.90-13.03 18.06-13.03C17.26-13.03 16.77-12.47 16.77-11.65C16.77-10.77 17.34-10.32 18.16-10.01L18.81-9.77C20.12-9.26 20.91-8.58 20.91-7.08C20.91-5.39 19.88-4.35 18.13-4.35ZM9.21-4.42C8.77-4.42 8.51-4.71 8.51-5.14L8.51-13.27C8.51-13.71 8.75-13.98 9.20-13.98L11.14-13.98C12.91-13.98 13.97-12.95 13.97-11.16C13.97-9.98 13.48-9.02 12.53-8.60L13.82-5.58C13.91-5.38 13.96-5.19 13.96-5.09C13.96-4.62 13.64-4.42 13.31-4.42C12.94-4.42 12.74-4.62 12.60-4.97L11.23-8.31L9.89-8.31L9.89-5.14C9.89-4.70 9.63-4.42 9.21-4.42ZM23.11-4.52C22.69-4.52 22.44-4.82 22.44-5.25L22.44-13.24C22.44-13.65 22.68-13.96 23.11-13.96L25.45-13.96C26.81-13.96 27.75-13.05 27.75-11.63C27.75-10.68 27.16-9.68 26.30-9.53L26.30-9.47C27.41-9.34 28.07-8.31 28.07-7.16C28.07-5.60 27.13-4.52 25.51-4.52ZM23.79-9.87L24.94-9.87C25.89-9.87 26.43-10.46 26.43-11.41C26.43-12.27 26.00-12.88 25.07-12.88L23.79-12.88ZM9.89-9.35L11.03-9.35C12.09-9.35 12.59-10.10 12.59-11.12C12.59-12.20 12.01-12.87 11.02-12.87L9.89-12.87ZM23.79-5.60L25.13-5.60C26.16-5.60 26.70-6.23 26.70-7.25C26.70-8.37 26.05-8.91 25.07-8.91L23.79-8.91Z" fill="currentColor"/>
</svg>