<svg xmlns="http://www.w3.org/2000/svg" viewBox="0 0 24 24" width="24" height="24">
  
  <path transform="matrix(0.9423891036259894, 0, 0, 0.9423891036259894, -0.8161236885698511, 19.967973495306463)" d="M6.45 2.16L20.75 2.16C23.04 2.16 24.21 0.98 24.21-1.27L24.21-15.64C24.21-17.89 23.04-19.07 20.75-19.07L6.45-19.07C4.16-19.07 2.99-17.91 2.99-15.64L2.99-1.27C2.99 1.00 4.16 2.16 6.45 2.16ZM6.47 0.70C5.16 0.70 4.44 0.01 4.44-1.35L4.44-15.56C4.44-16.92 5.16-17.61 6.47-17.61L20.72-17.61C22.02-17.61 22.76-16.92 22.76-15.56L22.76-1.35C22.76 0.01 22.02 0.70 20.72 0.70ZM9-3.57C9.34-3.57 9.55-3.79 9.55-4.14L9.55-7.62L11.17-7.62L12.74-3.96C12.84-3.70 13.02-3.57 13.28-3.57C13.58-3.57 13.83-3.76 13.83-4.08C13.83-4.22 13.77-4.32 13.71-4.48L12.23-7.85C13.32-8.29 13.83-9.30 13.83-10.45C13.83-12.07 12.87-13.24 11.03-13.24L8.99-13.24C8.66-13.24 8.45-13.02 8.45-12.68L8.45-4.14C8.45-3.79 8.66-3.57 9-3.57ZM9.55-8.51L9.55-12.32L10.92-12.32C12.07-12.32 12.73-11.58 12.73-10.43C12.73-9.28 12.12-8.51 10.93-8.51ZM17.37-3.56C18.71-3.56 19.79-4.36 19.79-5.68C19.79-6.77 19.14-7.30 18.02-7.62L17.11-7.86C16.51-8.03 16.03-8.34 16.03-8.98C16.03-9.69 16.61-10.16 17.32-10.16C18.09-10.16 18.54-9.70 18.77-9.11C18.84-8.94 18.98-8.82 19.16-8.82C19.46-8.82 19.58-9.01 19.58-9.22C19.58-9.29 19.56-9.39 19.54-9.49C19.32-10.31 18.48-10.97 17.37-10.97C15.89-10.97 15.01-10.10 15.01-8.92C15.01-7.83 15.71-7.28 16.75-7.01L17.67-6.75C18.32-6.57 18.75-6.21 18.75-5.58C18.75-4.84 18.20-4.37 17.40-4.37C16.58-4.37 16.10-4.71 15.76-5.46C15.64-5.70 15.48-5.79 15.32-5.79C15.06-5.79 14.87-5.63 14.87-5.37C14.87-5.27 14.91-5.16 14.94-5.05C15.25-4.04 16.29-3.56 17.37-3.56Z" fill="currentColor"/>
</svg>