<svg xmlns="http://www.w3.org/2000/svg" viewBox="0 0 24 24" width="24" height="24">
  <title>rupeesign.gauge.chart.leftthird.topthird.rightthird</title>
  <path transform="matrix(0.7210252077172229, 0, 0, 0.7210252077172229, 0.48753696662441914, 18.135855732715157)" d="M15.96-15.18C18.07-15.18 20.02-14.45 21.55-13.23C21.80-13.04 22.10-13.07 22.32-13.29L24.91-15.87C25.18-16.14 25.17-16.52 24.89-16.77C22.48-18.80 19.36-20.03 15.96-20.03C12.57-20.03 9.45-18.80 7.04-16.77C6.75-16.52 6.75-16.14 7.02-15.87L9.61-13.29C9.83-13.07 10.15-13.04 10.41-13.25C11.94-14.45 13.88-15.18 15.96-15.18ZM2.10-6.15C2.10-2.75 3.33 0.38 5.37 2.79C5.61 3.07 6 3.08 6.27 2.81L8.89 0.18C9.08-0.04 9.11-0.30 8.93-0.53C7.68-2.12 6.95-4.05 6.95-6.15C6.95-8.26 7.66-10.18 8.88-11.72C9.07-11.98 9.07-12.29 8.84-12.52L6.26-15.11C6-15.36 5.60-15.38 5.37-15.08C3.32-12.67 2.10-9.55 2.10-6.15ZM29.84-6.15C29.84-9.55 28.61-12.67 26.57-15.08C26.33-15.38 25.93-15.36 25.66-15.11L23.09-12.52C22.86-12.29 22.85-11.98 23.05-11.72C24.26-10.18 24.98-8.26 24.98-6.15C24.98-4.05 24.26-2.12 23.00-0.53C22.83-0.30 22.84-0.04 23.04 0.18L25.66 2.81C25.92 3.08 26.32 3.07 26.55 2.79C28.61 0.38 29.84-2.75 29.84-6.15ZM11.36-1.11C11.70-1.11 11.89-1.34 11.89-1.69L11.89-5.16L13.52-5.16L15.09-1.50C15.20-1.24 15.36-1.11 15.63-1.11C15.94-1.11 16.18-1.30 16.18-1.62C16.18-1.76 16.13-1.88 16.05-2.03L14.59-5.40C15.68-5.84 16.17-6.86 16.17-7.99C16.17-9.61 15.21-10.78 13.38-10.78L11.34-10.78C11.02-10.78 10.80-10.56 10.80-10.22L10.80-1.69C10.80-1.34 11.02-1.11 11.36-1.11ZM11.89-6.05L11.89-9.86L13.28-9.86C14.43-9.86 15.07-9.12 15.07-7.97C15.07-6.82 14.46-6.05 13.29-6.05ZM19.71-1.10C21.07-1.10 22.15-1.90 22.15-3.23C22.15-4.32 21.49-4.84 20.38-5.16L19.46-5.41C18.87-5.57 18.39-5.88 18.39-6.52C18.39-7.23 18.96-7.70 19.68-7.70C20.44-7.70 20.89-7.25 21.13-6.64C21.20-6.48 21.33-6.38 21.52-6.38C21.82-6.38 21.94-6.56 21.94-6.76C21.94-6.84 21.91-6.94 21.89-7.03C21.68-7.86 20.84-8.51 19.71-8.51C18.25-8.51 17.36-7.65 17.36-6.46C17.36-5.38 18.06-4.82 19.10-4.55L20.03-4.30C20.67-4.13 21.11-3.75 21.11-3.13C21.11-2.39 20.55-1.92 19.76-1.92C18.94-1.92 18.46-2.26 18.12-3C18-3.23 17.84-3.33 17.66-3.33C17.41-3.33 17.23-3.16 17.23-2.91C17.23-2.81 17.26-2.71 17.30-2.59C17.60-1.59 18.64-1.10 19.71-1.10Z" fill="currentColor"/>
</svg>