<svg xmlns="http://www.w3.org/2000/svg" viewBox="0 0 24 24" width="24" height="24">
  
  <path transform="matrix(0.6058454620754941, 0, 0, 0.6058454620754941, 0.551650692225772, 17.104721334753282)" d="M30.16-12.56L19.01-18.82L21.88-20.44C22.49-20.79 23.07-20.96 23.66-20.96C24.25-20.96 24.83-20.79 25.45-20.44L34.15-15.53C34.39-15.39 34.57-15.27 34.71-15.12ZM23.66-8.92L12.62-15.12C12.76-15.27 12.94-15.39 13.18-15.52L17.61-18.02L28.76-11.78ZM24.34 4.11L24.34-7.71L35.32-13.88C35.38-13.68 35.40-13.44 35.40-13.13L35.40-3.79C35.40-2.38 34.93-1.79 33.94-1.24L24.61 4.00C24.53 4.04 24.43 4.09 24.34 4.11ZM2.39-7.22C2.39-7.39 2.45-7.56 2.63-7.73L6.45-11.64C6.59-11.78 6.73-11.86 6.91-11.86C7.29-11.86 7.56-11.58 7.56-11.20C7.56-11.03 7.49-10.84 7.34-10.70L5.18-8.64L4.41-7.89L5.80-7.92L11.92-7.93L11.92-13.13C11.92-13.44 11.94-13.68 12-13.88L22.98-7.71L22.98 4.11C22.90 4.09 22.80 4.04 22.72 4.00L13.38-1.24C12.40-1.79 11.92-2.38 11.92-3.79L11.92-6.50L5.80-6.50L4.42-6.54L5.18-5.80L7.34-3.73C7.49-3.60 7.56-3.41 7.56-3.23C7.56-2.87 7.29-2.58 6.91-2.58C6.73-2.58 6.59-2.66 6.45-2.79L2.63-6.69C2.45-6.87 2.39-7.03 2.39-7.22ZM16.64-7.22C16.64-7.61 16.31-7.93 15.94-7.93L11.92-7.93L11.92-6.50L15.94-6.50C16.31-6.50 16.64-6.82 16.64-7.22Z" fill="currentColor"/>
</svg>