<svg xmlns="http://www.w3.org/2000/svg" viewBox="0 0 24 24" width="24" height="24">
  <title>shippingbox</title>
  <path transform="matrix(0.7958343048107562, 0, 0, 0.7958343048107562, 0.3049661925856837, 18.700862671951505)" d="M4.43-1.35L13.79 3.89C14.40 4.23 14.98 4.23 15.59 3.89L24.96-1.35C25.93-1.90 26.40-2.47 26.40-3.87L26.40-13.54C26.40-14.50 26.00-15.12 25.22-15.56L16.46-20.48C15.29-21.15 14.10-21.15 12.93-20.48L4.17-15.56C3.38-15.12 2.99-14.50 2.99-13.54L2.99-3.87C2.99-2.47 3.46-1.90 4.43-1.35ZM20.30-12.23L10.66-17.59L13.59-19.23C14.34-19.65 15.05-19.66 15.80-19.23L24.28-14.45ZM14.70-9.12L5.10-14.45L9.23-16.78L18.84-11.43ZM5.31-2.50C4.58-2.89 4.39-3.27 4.39-3.93L4.39-13.22L13.98-7.85L13.98 2.33ZM24.08-2.50L15.41 2.33L15.41-7.85L25.00-13.22L25.00-3.93C25.00-3.27 24.81-2.89 24.08-2.50Z" fill="currentColor"/>
</svg>