<svg xmlns="http://www.w3.org/2000/svg" viewBox="0 0 24 24" width="24" height="24">
  <title>shoe.2.fill</title>
  <path transform="matrix(0.4984423676012461, 0, 0, 0.4984423676012461, 0.5105140186915889, 16.10454785181697)" d="M3-6.68C3.68-6.04 4.41-5.81 5.68-5.81L7.09-5.81L7.09-8.41C7.09-11.21 9.82-12.80 12.42-11.59C13.27-11.18 13.85-10.99 14.98-10.99C16.11-10.99 16.99-11.46 18.18-12.98C19.55-14.75 21.16-15.46 22.86-15.29L19.45-17.29C17.33-18.53 15.42-18.35 13.78-16.25C12.42-14.51 10.99-13.75 9.52-13.75C8.23-13.75 7.34-14.00 6.39-14.46C4.80-15.21 2.99-14.45 2.99-12.53L2.99-7.02C2.99-6.90 3-6.79 3-6.68ZM11.16-1.70L31.59-1.70C34.29-1.70 35.55-1.99 37.04-2.75L40.65-4.59C42.35-5.48 42.84-6.73 42.27-7.48C41.82-8.30 40.66-9.29 38.78-9.29C37.54-9.29 34.70-8.84 33.62-8.84C32.77-8.84 32.41-8.88 31.71-9.25L29.77-6.56C29.57-6.30 29.24-6.26 28.98-6.47C28.76-6.66 28.72-6.96 28.91-7.23L30.74-9.77L29.12-10.72L27.09-7.88C26.89-7.61 26.57-7.57 26.31-7.79C26.07-7.96 26.03-8.27 26.23-8.54L28.17-11.27L26.55-12.22L24.38-9.16C24.20-8.93 23.84-8.89 23.60-9.08C23.37-9.26 23.34-9.61 23.51-9.84L25.61-12.79L24.93-13.17C22.79-14.40 20.88-14.25 19.25-12.14C17.88-10.39 16.46-9.63 14.98-9.63C13.69-9.63 12.80-9.89 11.85-10.36C10.28-11.10 8.46-10.34 8.46-8.41L8.46-2.94C8.46-2.81 8.46-2.68 8.47-2.57C9.15-1.92 9.87-1.70 11.16-1.70ZM37.44-10.58C36.97-12.28 35.44-13.41 33.32-13.41C31.64-13.41 29.84-12.98 28.00-12.96L32.04-10.59C32.53-10.30 32.92-10.21 33.62-10.21C34.32-10.21 36.01-10.45 37.44-10.58ZM41.16-3.62L37.57-1.82C35.82-0.91 34.36-0.60 31.59-0.60L11.16-0.60C10.14-0.60 9.45-0.73 8.65-1.25C9.20 0.86 10.84 1.59 12.69 1.59L31.49 1.59C34.92 1.59 36.98 1.04 39.87-0.55C42.12-1.82 43.11-3.30 43.11-5.07C43.11-5.25 43.09-5.41 43.08-5.58C42.83-4.79 42.30-4.21 41.16-3.62ZM7.09-2.55L7.09-4.71L5.68-4.71C4.68-4.71 3.97-4.84 3.18-5.37C3.64-3.57 4.89-2.74 6.55-2.59C6.73-2.58 6.91-2.55 7.09-2.55Z" fill="currentColor"/>
</svg>