<svg xmlns="http://www.w3.org/2000/svg" viewBox="0 0 24 24" width="24" height="24">
  <title>shoe.arrow.trianglehead.up.right</title>
  <path transform="matrix(0.5721526724462471, 0, 0, 0.5721526724462471, 0.29134824412453475, 16.850178012232554)" d="M25.72-16.55L18.54-16.51C17.23-16.51 16.97-16.61 16.02-17.14C15.08-17.70 12.86-19.50 11.78-20.12C9.52-21.43 7.20-20.84 5.92-18.63C5.03-17.10 5.14-15.30 6.47-13.09C8.17-10.27 9.68-8.77 12.66-7.04L28.93 2.36C30.90 3.49 33.15 3.50 34.86 0.54L37.59-4.20C38.57-5.86 37.37-7.43 35.63-7.57C34.57-7.65 33.68-7.88 32.55-8.52C31.28-9.26 30.42-10.63 30.12-12.82C29.75-15.46 28.18-16.56 25.72-16.55ZM33.38 0.18C32.93 0.21 32.40 0.01 31.61-0.45L14.53-10.30C12.25-11.63 11.33-12.47 10.44-13.85L8.77-16.38C8.03-17.52 8.00-18.26 8.23-18.64C8.75-19.57 9.97-19.49 11.06-18.87C12.05-18.29 14.27-16.49 15.29-15.89C16.29-15.32 16.84-15.11 18.12-15.08L18.38-12.56C18.41-12.25 18.67-12.06 18.98-12.12C19.27-12.15 19.45-12.41 19.42-12.71L19.18-15.07L21.01-15.08L21.28-12.38C21.32-12.06 21.57-11.87 21.90-11.92C22.18-11.96 22.37-12.20 22.34-12.52L22.08-15.08L23.93-15.09L24.22-12.14C24.26-11.85 24.54-11.65 24.83-11.70C25.11-11.73 25.31-12 25.28-12.29L25.00-15.09L25.72-15.09C27.66-15.09 28.41-14.58 28.69-12.63C29.04-10.04 30.18-8.21 31.84-7.27C33.21-6.47 34.43-6.21 35.64-6.12C36.29-6.08 36.71-5.55 36.35-4.92L33.61-0.18C33.53-0.05 33.46 0.07 33.38 0.18ZM32.65 1.07C31.76 1.86 30.79 1.76 29.66 1.10L13.38-8.30C10.57-9.93 9.27-11.23 7.70-13.84C6.79-15.38 6.57-16.48 7.00-17.47C7.08-17.64 7.17-17.78 7.27-17.92C7.11-17.29 7.27-16.75 7.85-15.82L9.54-13.32C10.58-11.73 11.66-10.72 14.00-9.38L31.07 0.48C31.68 0.83 32.14 1.01 32.65 1.07ZM4.29 3.55L7.62-1.21L9.36 0.01C9.95 0.43 10.63-0.01 10.55-0.73L10.14-4.99C10.08-5.51 9.68-5.80 9.16-5.67L5.02-4.61C4.34-4.44 4.11-3.66 4.71-3.23L6.45-2.03L3.12 2.73C2.88 3.07 2.98 3.49 3.29 3.71C3.62 3.95 4.05 3.89 4.29 3.55Z" fill="currentColor"/>
</svg>