<svg xmlns="http://www.w3.org/2000/svg" viewBox="0 0 24 24" width="24" height="24">
  <title>shoe</title>
  <path transform="matrix(0.5771615375944088, 0, 0, 0.5771615375944088, 0.27527899898545627, 16.750401518335018)" d="M19.45-15.22C17.33-16.46 15.41-16.30 13.78-14.19C12.42-12.45 10.99-11.68 9.52-11.68C8.23-11.68 7.34-11.94 6.39-12.41C4.80-13.15 2.99-12.39 2.99-10.46L2.99-4.99C2.99-1.58 4.95-0.46 7.22-0.46L26.02-0.46C29.46-0.46 31.52-1.01 34.39-2.60C36.66-3.87 37.64-5.36 37.64-7.13C37.64-9.67 35.93-11.36 33.32-11.36C32.06-11.36 29.24-10.90 28.15-10.90C27.06-10.90 26.79-10.96 25.66-11.60ZM4.46-4.57C4.44-4.70 4.44-4.84 4.44-4.99L4.44-10.46C4.44-11.20 5.07-11.45 5.65-11.14C6.75-10.63 7.92-10.24 9.52-10.24C11.43-10.24 13.34-11.25 14.93-13.31C16.14-14.86 17.05-14.94 18.73-13.97L19.35-13.61L17.71-11.32C17.53-11.09 17.57-10.75 17.79-10.57C18.02-10.39 18.38-10.42 18.55-10.65L20.27-13.07L21.88-12.14L20.37-10.04C20.18-9.79 20.23-9.48 20.45-9.30C20.71-9.11 21.02-9.13 21.21-9.39L22.79-11.60L24.38-10.68L22.99-8.75C22.82-8.51 22.84-8.19 23.07-8.02C23.31-7.82 23.64-7.85 23.82-8.10L25.30-10.15C26.43-9.54 27-9.45 28.15-9.45C29.33-9.45 32.17-9.90 33.30-9.90C34.56-9.90 35.66-9.35 35.66-8.30C35.66-7.85 35.26-7.22 34.05-6.60L31.34-5.25C29.88-4.50 28.65-4.22 26.02-4.22L6.30-4.22C5.39-4.22 4.83-4.31 4.46-4.57ZM4.65-3.43C5.11-3.22 5.60-3.15 6.30-3.15L26.02-3.15C28.72-3.15 30.15-3.48 31.85-4.34L34.57-5.66C35.53-6.16 35.93-6.56 36.12-7.17C36.14-7.01 36.14-6.84 36.13-6.66C36-5.59 35.26-4.73 33.70-3.87C31.04-2.39 29.26-1.91 26.02-1.91L7.22-1.91C5.91-1.91 5.03-2.30 4.65-3.43Z" fill="currentColor"/>
</svg>