<svg xmlns="http://www.w3.org/2000/svg" viewBox="0 0 24 24" width="24" height="24">
  <title>signpost.right.and.left</title>
  <path transform="matrix(0.7956487956487956, 0, 0, 0.7956487956487956, 1.039627039379329, 18.783216783216783)" d="M7.10-1.78L13.05-1.78L13.05 2.60L9.73 2.60C9.33 2.60 9 2.93 9 3.33C9 3.71 9.33 4.04 9.73 4.04L17.82 4.04C18.21 4.04 18.54 3.71 18.54 3.33C18.54 2.93 18.21 2.60 17.82 2.60L14.51 2.60L14.51-1.78L17.43-1.78C18.38-1.78 18.94-2.33 18.94-3.28L18.94-7.62C18.94-8.58 18.38-9.12 17.43-9.12L14.51-9.12L14.51-10.99L20.45-10.99C21.06-10.99 21.47-11.17 21.86-11.54L23.99-13.55C24.75-14.26 24.76-15.02 23.96-15.80L21.86-17.79C21.48-18.16 21.06-18.33 20.45-18.33L14.51-18.33L14.51-20.37C14.51-20.77 14.18-21.09 13.78-21.09C13.38-21.09 13.05-20.77 13.05-20.37L13.05-18.33L10.13-18.33C9.18-18.33 8.61-17.79 8.61-16.83L8.61-12.49C8.61-11.54 9.18-10.99 10.13-10.99L13.05-10.99L13.05-9.12L7.10-9.12C6.49-9.12 6.07-8.94 5.68-8.59L3.57-6.57C2.80-5.82 2.79-5.06 3.57-4.32L5.68-2.33C6.08-1.96 6.49-1.78 7.10-1.78ZM10.38-12.30C10.13-12.30 9.91-12.52 9.91-12.76L9.91-16.56C9.91-16.80 10.13-17.02 10.38-17.02L20.43-17.02C20.64-17.02 20.87-16.93 21-16.82L22.89-15.02C23.10-14.82 23.11-14.51 22.89-14.31L20.99-12.52C20.85-12.40 20.61-12.30 20.43-12.30ZM7.13-3.09C6.93-3.09 6.70-3.18 6.56-3.30L4.66-5.07C4.44-5.29 4.45-5.60 4.65-5.79L6.55-7.61C6.68-7.72 6.91-7.80 7.13-7.80L17.17-7.80C17.43-7.80 17.63-7.61 17.63-7.35L17.63-3.55C17.63-3.30 17.43-3.09 17.17-3.09Z" fill="currentColor"/>
</svg>