<svg xmlns="http://www.w3.org/2000/svg" viewBox="0 0 24 24" width="24" height="24">
  <title>signpost.left</title>
  <path transform="matrix(0.8337404331542094, 0, 0, 0.8337404331542094, 0.3378206828451005, 19.059110893991207)" d="M20.09 2.81C20.09 2.41 19.76 2.09 19.36 2.09L15.74 2.09L15.74-6.40L23.31-6.40C24.76-6.40 25.58-7.21 25.58-8.63L25.58-14.84C25.58-16.25 24.76-17.05 23.31-17.05L15.74-17.05L15.74-19.73C15.74-20.13 15.41-20.46 15.01-20.46C14.61-20.46 14.29-20.13 14.29-19.73L14.29-17.05L8.27-17.05C7.32-17.05 6.86-16.77 6.30-16.25L3.27-13.41C2.09-12.28 2.12-11.13 3.26-10.07L6.30-7.21C6.86-6.69 7.32-6.41 8.29-6.41L14.29-6.40L14.29 2.09L10.64 2.09C10.25 2.09 9.93 2.41 9.93 2.81C9.93 3.20 10.25 3.53 10.64 3.53L19.36 3.53C19.76 3.53 20.09 3.20 20.09 2.81ZM23.29-7.85L8.33-7.85C7.83-7.85 7.63-7.95 7.36-8.20L4.20-11.16C3.82-11.51 3.82-11.99 4.18-12.32L7.35-15.26C7.63-15.50 7.83-15.61 8.32-15.61L23.29-15.61C23.79-15.61 24.09-15.29 24.09-14.80L24.09-8.66C24.09-8.16 23.79-7.85 23.29-7.85Z" fill="currentColor"/>
</svg>