<svg xmlns="http://www.w3.org/2000/svg" viewBox="0 0 24 24" width="24" height="24">
  <title>simcard.2.fill</title>
  <path transform="matrix(0.8092302829144934, 0, 0, 0.8092302829144934, 0.2266477003319114, 18.889521100047414)" d="M2.99-2.06C2.99-0.02 4.04 1.04 6.06 1.04L7.71 1.04L7.71-2.18L7.04-2.18C6.07-2.18 5.48-2.75 5.48-3.75L5.48-7.21L7.71-7.21L7.71-8.19L5.48-8.19L5.48-9.54C5.48-10.54 6.07-11.11 7.04-11.11L7.71-11.11L7.71-14.96C7.71-17.77 9.36-19.44 12.14-19.44L15.38-19.44L14.71-20.11C14.19-20.63 13.59-20.87 12.79-20.87L6.06-20.87C4.04-20.87 2.99-19.80 2.99-17.77ZM9.07 0.74C9.07 2.78 10.13 3.84 12.14 3.84L23.04 3.84C25.07 3.84 26.11 2.78 26.11 0.74L26.11-10.78C26.11-11.68 25.92-12.20 25.41-12.71L20.79-17.31C20.27-17.82 19.68-18.07 18.87-18.07L12.14-18.07C10.13-18.07 9.07-17.00 9.07-14.96ZM12.62-5.40L12.62-6.74C12.62-7.73 13.21-8.31 14.18-8.31L18.66-8.31L18.66 0.62L16.56 0.62L16.56-4.76C16.56-5.17 16.34-5.40 15.91-5.40ZM19.64 0.62L19.64-8.31L20.93-8.31C21.91-8.31 22.49-7.73 22.49-6.74L22.49-0.95C22.49 0.04 21.91 0.62 20.93 0.62ZM12.62-0.95L12.62-4.41L15.41-4.41C15.52-4.41 15.57-4.35 15.57-4.24L15.57 0.62L14.18 0.62C13.21 0.62 12.62 0.04 12.62-0.95Z" fill="currentColor"/>
</svg>