<svg xmlns="http://www.w3.org/2000/svg" viewBox="0 0 24 24" width="24" height="24">
  <title>sos.circle</title>
  <path transform="matrix(0.8507809903622466, 0, 0, 0.8507809903622466, 0.21535393818544368, 19.19840478564307)" d="M13.85 3.29C20.34 3.29 25.61-1.97 25.61-8.46C25.61-14.95 20.34-20.21 13.85-20.21C7.36-20.21 2.10-14.95 2.10-8.46C2.10-1.97 7.36 3.29 13.85 3.29ZM13.85 1.77C8.19 1.77 3.62-2.80 3.62-8.46C3.62-14.12 8.19-18.70 13.85-18.70C19.51-18.70 24.09-14.12 24.09-8.46C24.09-2.80 19.51 1.77 13.85 1.77ZM8.31-4.54C9.79-4.54 10.68-5.43 10.68-6.77C10.68-7.88 10.23-8.39 9.01-9.04L8.55-9.28C7.85-9.66 7.63-9.93 7.63-10.38C7.63-10.79 7.90-11.07 8.31-11.07C8.74-11.07 8.96-10.79 9.06-10.24C9.08-10.09 9.15-10.03 9.29-10.03L10.32-10.03C10.46-10.03 10.56-10.11 10.56-10.27C10.52-11.53 9.81-12.42 8.31-12.42C6.87-12.42 6.01-11.52 6.01-10.22C6.01-9.13 6.47-8.51 7.63-7.91L8.07-7.66C8.81-7.29 9.07-7.08 9.07-6.61C9.07-6.12 8.84-5.89 8.33-5.89C7.83-5.89 7.56-6.18 7.49-6.75C7.46-6.88 7.38-6.96 7.25-6.96L6.15-6.96C6.01-6.96 5.92-6.86 5.92-6.70C5.95-5.34 6.76-4.54 8.31-4.54ZM19.43-4.54C20.91-4.54 21.79-5.43 21.79-6.77C21.79-7.88 21.35-8.39 20.13-9.04L19.66-9.28C18.96-9.66 18.74-9.93 18.74-10.38C18.74-10.79 19.02-11.07 19.43-11.07C19.85-11.07 20.09-10.79 20.18-10.24C20.20-10.09 20.26-10.03 20.39-10.03L21.45-10.03C21.59-10.03 21.68-10.11 21.68-10.27C21.63-11.53 20.92-12.42 19.43-12.42C17.98-12.42 17.13-11.52 17.13-10.22C17.13-9.13 17.59-8.53 18.74-7.91L19.20-7.66C19.93-7.28 20.18-7.08 20.18-6.61C20.18-6.12 19.96-5.89 19.44-5.89C18.94-5.89 18.67-6.18 18.60-6.75C18.57-6.88 18.50-6.96 18.38-6.96L17.26-6.96C17.12-6.96 17.03-6.86 17.03-6.70C17.07-5.34 17.87-4.54 19.43-4.54ZM13.86-4.54C15.62-4.54 16.57-5.87 16.57-8.46C16.57-11.04 15.63-12.41 13.86-12.41C12.07-12.41 11.14-11.04 11.14-8.46C11.14-5.87 12.07-4.54 13.86-4.54ZM13.86-5.95C13.15-5.95 12.80-6.69 12.80-8.46C12.80-10.23 13.15-10.99 13.86-10.99C14.54-10.99 14.89-10.23 14.89-8.46C14.89-6.69 14.54-5.95 13.86-5.95Z" fill="currentColor"/>
</svg>