<svg xmlns="http://www.w3.org/2000/svg" viewBox="0 0 24 24" width="24" height="24">
  
  <path transform="matrix(0.8761122518822724, 0, 0, 0.8761122518822724, -0.09445585215605723, 19.412731006160165)" d="M13.80 2.94C14.21 2.94 14.52 2.66 14.58 2.24C15.52-5.94 16.46-6.90 24.49-7.70C24.91-7.73 25.22-8.05 25.22-8.46C25.22-8.87 24.91-9.19 24.49-9.22C16.46-10.03 15.52-10.98 14.58-19.16C14.52-19.58 14.21-19.86 13.80-19.86C13.41-19.86 13.10-19.58 13.03-19.16C12.09-10.98 11.13-10.03 3.12-9.22C2.70-9.19 2.39-8.87 2.39-8.46C2.39-8.05 2.70-7.76 3.12-7.70C11.11-6.68 12.01-5.96 13.03 2.24C13.10 2.66 13.41 2.94 13.80 2.94Z" fill="currentColor"/>
</svg>