<svg xmlns="http://www.w3.org/2000/svg" viewBox="0 0 24 24" width="24" height="24">
  
  <path transform="matrix(0.8507809903622466, 0, 0, 0.8507809903622466, 0.21535393818544368, 19.19840478564307)" d="M13.85 3.29C20.34 3.29 25.61-1.97 25.61-8.46C25.61-14.95 20.34-20.21 13.85-20.21C7.36-20.21 2.10-14.95 2.10-8.46C2.10-1.97 7.36 3.29 13.85 3.29ZM13.85 1.77C8.19 1.77 3.62-2.80 3.62-8.46C3.62-14.12 8.19-18.70 13.85-18.70C19.51-18.70 24.09-14.12 24.09-8.46C24.09-2.80 19.51 1.77 13.85 1.77ZM8.57-3.53L13.46-3.53L13.46-5.81C12.16-6 11.17-7.11 11.17-8.46C11.17-9.80 12.16-10.91 13.46-11.10L13.46-13.37L8.57-13.37C7.34-13.37 6.66-12.68 6.66-11.44L6.66-11.13L7.97-11.13C8.91-11.13 9.42-10.61 9.42-9.68L9.42-7.21C9.42-6.29 8.91-5.75 7.97-5.75L6.66-5.75L6.66-5.45C6.66-4.22 7.34-3.53 8.57-3.53ZM14.23-3.53L19.13-3.53C20.36-3.53 21.04-4.22 21.04-5.45L21.04-5.75L19.72-5.75C18.79-5.75 18.27-6.29 18.27-7.21L18.27-9.68C18.27-10.61 18.79-11.13 19.72-11.13L21.04-11.13L21.04-11.44C21.04-12.68 20.36-13.37 19.13-13.37L14.23-13.37L14.23-11.10C15.53-10.91 16.52-9.80 16.52-8.46C16.52-7.11 15.53-6 14.23-5.81ZM6.66-6.50L7.98-6.50C8.45-6.50 8.67-6.74 8.67-7.20L8.67-9.69C8.67-10.16 8.45-10.38 7.98-10.38L6.66-10.38ZM21.04-6.50L21.04-10.38L19.71-10.38C19.24-10.38 19.02-10.16 19.02-9.69L19.02-7.20C19.02-6.74 19.24-6.50 19.71-6.50ZM13.46-6.55L13.46-10.36C12.55-10.20 11.89-9.42 11.89-8.46C11.89-7.50 12.55-6.71 13.46-6.55ZM14.23-6.55C15.14-6.71 15.80-7.50 15.80-8.46C15.80-9.42 15.14-10.20 14.23-10.36Z" fill="currentColor"/>
</svg>