<svg xmlns="http://www.w3.org/2000/svg" viewBox="0 0 24 24" width="24" height="24">
  
  <path transform="matrix(0.7619047619047619, 0, 0, 0.7619047619047619, 2.0937500000000004, 18.4375)" d="M7.27-20.37L18.74-20.37C18.69-21.13 18.25-21.57 17.41-21.57L8.59-21.57C7.77-21.57 7.31-21.13 7.27-20.37ZM5.34-17.37L20.67-17.37C20.55-18.18 20.14-18.66 19.25-18.66L6.75-18.66C5.87-18.66 5.46-18.18 5.34-17.37ZM6.45 4.68L19.79 4.68C21.86 4.68 23.02 3.50 23.02 1.25L23.02-11.93C23.02-14.18 21.84-15.35 19.57-15.35L6.45-15.35C4.16-15.35 2.99-14.20 2.99-11.93L2.99 1.25C2.99 3.53 4.16 4.68 6.45 4.68Z" fill="currentColor"/>
</svg>