<svg xmlns="http://www.w3.org/2000/svg" viewBox="0 0 24 24" width="24" height="24">
  
  <path transform="matrix(0.609088746133714, 0, 0, 0.609088746133714, 0.17987152034261245, 17.14275517487509)" d="M4.98-9.45L10.59-9.45C11.92-9.45 12.59-10.09 12.59-11.47L12.59-17.02C12.59-18.41 11.92-19.05 10.59-19.05L4.98-19.05C3.67-19.05 2.99-18.41 2.99-17.02L2.99-11.47C2.99-10.09 3.67-9.45 4.98-9.45ZM16.61-9.45L22.21-9.45C23.53-9.45 24.21-10.09 24.21-11.47L24.21-17.02C24.21-18.41 23.53-19.05 22.21-19.05L16.61-19.05C15.28-19.05 14.60-18.41 14.60-17.02L14.60-11.47C14.60-10.09 15.28-9.45 16.61-9.45ZM28.22-9.45L33.82-9.45C35.14-9.45 35.82-10.09 35.82-11.47L35.82-17.02C35.82-18.41 35.14-19.05 33.82-19.05L28.22-19.05C26.89-19.05 26.23-18.41 26.23-17.02L26.23-11.47C26.23-10.09 26.89-9.45 28.22-9.45ZM5.00-10.75C4.50-10.75 4.28-10.97 4.28-11.50L4.28-17.02C4.28-17.52 4.50-17.75 5.00-17.75L10.56-17.75C11.06-17.75 11.30-17.52 11.30-17.02L11.30-11.50C11.30-10.97 11.06-10.75 10.56-10.75ZM16.63-10.75C16.13-10.75 15.90-10.97 15.90-11.50L15.90-17.02C15.90-17.52 16.13-17.75 16.63-17.75L22.18-17.75C22.69-17.75 22.91-17.52 22.91-17.02L22.91-11.50C22.91-10.97 22.69-10.75 22.18-10.75ZM28.24-10.75C27.74-10.75 27.52-10.97 27.52-11.50L27.52-17.02C27.52-17.52 27.74-17.75 28.24-17.75L33.80-17.75C34.30-17.75 34.52-17.52 34.52-17.02L34.52-11.50C34.52-10.97 34.30-10.75 33.80-10.75ZM4.98 2.17L10.59 2.17C11.92 2.17 12.59 1.52 12.59 0.14L12.59-5.40C12.59-6.79 11.92-7.43 10.59-7.43L4.98-7.43C3.67-7.43 2.99-6.79 2.99-5.40L2.99 0.14C2.99 1.52 3.67 2.17 4.98 2.17ZM16.61 2.17L22.21 2.17C23.53 2.17 24.21 1.52 24.21 0.14L24.21-5.40C24.21-6.79 23.53-7.43 22.21-7.43L16.61-7.43C15.28-7.43 14.60-6.79 14.60-5.40L14.60 0.14C14.60 1.52 15.28 2.17 16.61 2.17ZM28.22 2.17L33.82 2.17C35.14 2.17 35.82 1.52 35.82 0.14L35.82-5.40C35.82-6.79 35.14-7.43 33.82-7.43L28.22-7.43C26.89-7.43 26.23-6.79 26.23-5.40L26.23 0.14C26.23 1.52 26.89 2.17 28.22 2.17ZM5.00 0.88C4.50 0.88 4.28 0.64 4.28 0.13L4.28-5.39C4.28-5.91 4.50-6.14 5.00-6.14L10.56-6.14C11.06-6.14 11.30-5.91 11.30-5.39L11.30 0.13C11.30 0.64 11.06 0.88 10.56 0.88ZM16.63 0.88C16.13 0.88 15.90 0.64 15.90 0.13L15.90-5.39C15.90-5.91 16.13-6.14 16.63-6.14L22.18-6.14C22.69-6.14 22.91-5.91 22.91-5.39L22.91 0.13C22.91 0.64 22.69 0.88 22.18 0.88ZM28.24 0.88C27.74 0.88 27.52 0.64 27.52 0.13L27.52-5.39C27.52-5.91 27.74-6.14 28.24-6.14L33.80-6.14C34.30-6.14 34.52-5.91 34.52-5.39L34.52 0.13C34.52 0.64 34.30 0.88 33.80 0.88Z" fill="currentColor"/>
</svg>