<svg xmlns="http://www.w3.org/2000/svg" viewBox="0 0 24 24" width="24" height="24">
  
  <path transform="matrix(0.9423891036259894, 0, 0, 0.9423891036259894, -0.8161236885698511, 19.956929872998344)" d="M2.99-1.29C2.99 1.00 4.15 2.17 6.41 2.17L20.78 2.17C23.05 2.17 24.21 1.00 24.21-1.29L24.21-15.60C24.21-17.88 23.04-19.05 20.78-19.05L6.41-19.05C4.16-19.05 2.99-17.88 2.99-15.60ZM4.44-8.44L4.44-15.56C4.44-16.86 5.13-17.60 6.49-17.60L20.71-17.60C22.05-17.60 22.76-16.86 22.76-15.56L22.76-8.44Z" fill="currentColor"/>
</svg>