<svg xmlns="http://www.w3.org/2000/svg" viewBox="0 0 24 24" width="24" height="24">
  <title>squares.leading.rectangle.fill</title>
  <path transform="matrix(0.7111111111111111, 0, 0, 0.7111111111111111, -0.125, 18.03333333333333)" d="M3.52-13.82L6.87-13.82C7.21-13.82 7.41-14.03 7.41-14.36L7.41-17.68C7.41-18.04 7.21-18.25 6.87-18.25L3.52-18.25C3.20-18.25 2.99-18.02 2.99-17.68L2.99-14.36C2.99-14.04 3.20-13.82 3.52-13.82ZM13.93 0.81L27.93 0.81C30.04 0.81 31.11-0.27 31.11-2.34L31.11-14.59C31.11-16.66 30.04-17.73 27.93-17.73L13.93-17.73C11.84-17.73 10.76-16.68 10.76-14.59L10.76-2.34C10.76-0.25 11.84 0.81 13.93 0.81ZM3.52-6.27L6.87-6.27C7.21-6.27 7.41-6.48 7.41-6.81L7.41-10.14C7.41-10.49 7.21-10.70 6.87-10.70L3.52-10.70C3.20-10.70 2.99-10.48 2.99-10.14L2.99-6.81C2.99-6.49 3.20-6.27 3.52-6.27ZM3.53 1.28L6.88 1.28C7.21 1.28 7.42 1.07 7.42 0.74L7.42-2.59C7.42-2.94 7.21-3.15 6.88-3.15L3.53-3.15C3.21-3.15 3-2.93 3-2.59L3 0.74C3 1.05 3.21 1.28 3.53 1.28Z" fill="currentColor"/>
</svg>