<svg xmlns="http://www.w3.org/2000/svg" viewBox="0 0 24 24" width="24" height="24">
  
  <path transform="matrix(0.9092523530456402, 0, 0, 0.9092523530456402, -0.615876398508258, 19.68779968034097)" d="M2.99-13.51L24.76-13.51L24.76-17.09C24.76-18.50 23.86-19.45 22.51-19.45L5.23-19.45C3.89-19.45 2.99-18.50 2.99-17.09ZM7.54-15.05C6.90-15.05 6.39-15.55 6.39-16.17C6.39-16.80 6.90-17.31 7.54-17.31C8.16-17.31 8.66-16.80 8.66-16.17C8.66-15.55 8.16-15.05 7.54-15.05ZM11.74-15.05C11.11-15.05 10.59-15.55 10.59-16.17C10.59-16.80 11.11-17.31 11.74-17.31C12.36-17.31 12.87-16.80 12.87-16.17C12.87-15.55 12.36-15.05 11.74-15.05ZM15.94-15.05C15.32-15.05 14.80-15.55 14.80-16.17C14.80-16.80 15.32-17.31 15.94-17.31C16.56-17.31 17.07-16.80 17.07-16.17C17.07-15.55 16.56-15.05 15.94-15.05ZM20.14-15.05C19.52-15.05 19.01-15.55 19.01-16.17C19.01-16.80 19.52-17.31 20.14-17.31C20.78-17.31 21.28-16.80 21.28-16.17C21.28-15.55 20.78-15.05 20.14-15.05ZM5.23 0.55L5.26 0.55L5.26 1.83C5.26 2.25 5.55 2.54 5.99 2.54C6.41 2.54 6.71 2.25 6.71 1.83L6.71 0.55L21.04 0.55L21.04 1.83C21.04 2.25 21.33 2.54 21.76 2.54C22.18 2.54 22.48 2.25 22.48 1.83L22.48 0.55L22.51 0.55C23.86 0.55 24.76-0.39 24.76-1.82L24.76-12.45L2.99-12.45L2.99-1.82C2.99-0.39 3.89 0.55 5.23 0.55ZM6.90-2.18C6.20-2.18 5.75-2.64 5.75-3.35L5.75-9.32C5.75-10.02 6.20-10.48 6.90-10.48L20.84-10.48C21.54-10.48 22.00-10.02 22.00-9.32L22.00-3.35C22.00-2.64 21.54-2.18 20.84-2.18ZM7.22-3.25L20.52-3.25C20.77-3.25 20.93-3.42 20.93-3.67L20.93-8.99C20.93-9.25 20.77-9.42 20.52-9.42L7.22-9.42C6.98-9.42 6.81-9.25 6.81-8.99L6.81-3.67C6.81-3.42 6.98-3.25 7.22-3.25Z" fill="currentColor"/>
</svg>