<svg xmlns="http://www.w3.org/2000/svg" viewBox="0 0 24 24" width="24" height="24">
  
  <path transform="matrix(0.8146380270485283, 0, 0, 0.8146380270485283, 0.03341288782816276, 18.744630071599047)" d="M9.46 4.00C10.99 4.00 12.23 2.94 12.50 1.49L20.53 1.49C20.81 2.85 22.01 3.84 23.44 3.84C25.08 3.84 26.39 2.53 26.39 0.88C26.39-0.76 25.08-2.07 23.44-2.07C22.93-2.07 22.45-1.95 22.03-1.72L19.25-4.51L20.31-4.51C24.88-4.51 26.26-8.05 26.26-11.64C26.26-16.58 23.05-20.55 17.53-20.55C16.70-20.55 16.16-20.00 16.16-19.16L16.16-12.19L11.57-12.19L6.86-16.89C6.61-17.13 6.40-17.23 6.06-17.23L3.68-17.23C3.30-17.23 2.99-16.91 2.99-16.54C2.99-16.16 3.30-15.86 3.68-15.86L5.96-15.86L9.63-12.19L6.47-12.19C6.11-12.19 5.82-11.89 5.82-11.54C5.82-11.18 6.11-10.89 6.47-10.89L6.86-10.89L7.36-8.21C7.79-5.89 9.71-4.51 12.80-4.51L13.64-4.51L10.98-1.84C10.52-2.09 10.01-2.23 9.46-2.23C7.71-2.23 6.34-0.87 6.34 0.88C6.34 2.64 7.71 4.00 9.46 4.00ZM17.45-18.70C17.45-19.02 17.66-19.22 17.99-19.22C21.18-19.22 24.70-17.05 24.95-12.19L17.45-12.19ZM12.80-5.81C10.41-5.81 8.98-6.80 8.65-8.46L8.16-10.89L24.94-10.89C24.76-8.25 23.61-5.81 20.31-5.81ZM12.50 0.27C12.42-0.16 12.26-0.56 12.01-0.90L15.62-4.51L17.27-4.51L20.99-0.80C20.78-0.48 20.61-0.12 20.53 0.27ZM9.46 2.78C8.40 2.78 7.56 1.95 7.56 0.88C7.56-0.18 8.40-1.01 9.46-1.01C10.51-1.01 11.34-0.18 11.34 0.88C11.34 1.95 10.51 2.78 9.46 2.78ZM23.44 2.78C22.38 2.78 21.54 1.95 21.54 0.88C21.54-0.18 22.38-1.01 23.44-1.01C24.49-1.01 25.34-0.18 25.34 0.88C25.34 1.95 24.49 2.78 23.44 2.78Z" fill="currentColor"/>
</svg>