<svg xmlns="http://www.w3.org/2000/svg" viewBox="0 0 24 24" width="24" height="24">
  
  <path transform="matrix(0.7046518029176989, 0, 0, 0.7046518029176989, 2.421139554087531, 17.96614368290669)" d="M24.18-4.37L25.27-4.37C26.92-4.37 27.77-5.19 27.77-6.76L27.77-16.27C27.77-17.84 26.92-18.67 25.27-18.67L24.18-18.67ZM13.61-19.69C13.61-20.43 14.03-20.82 14.82-20.82L19.46-20.82C20.25-20.82 20.67-20.43 20.67-19.69L20.67-18.67L13.61-18.67ZM27.05-0.90C27.45-0.90 27.79-1.21 27.79-1.63C27.79-2.04 27.45-2.34 27.05-2.34L6-2.34C4.93-2.34 4.41-2.88 4.41-3.97L4.41-15.74C4.41-17.75 3.47-18.68 1.44-18.68L0.13-18.68C-0.26-18.68-0.60-18.34-0.60-17.95C-0.60-17.55-0.26-17.23 0.13-17.23L1.35-17.23C2.41-17.23 2.95-16.70 2.95-15.60L2.95-3.83C2.95-1.82 3.88-0.90 5.92-0.90ZM22.89 5.13C23.95 5.13 24.86 4.23 24.86 3.16C24.86 2.07 23.95 1.17 22.89 1.17C21.82 1.17 20.92 2.07 20.92 3.16C20.92 4.23 21.82 5.13 22.89 5.13ZM10.32 5.13C11.39 5.13 12.29 4.23 12.29 3.16C12.29 2.07 11.39 1.17 10.32 1.17C9.26 1.17 8.36 2.07 8.36 3.16C8.36 4.23 9.26 5.13 10.32 5.13ZM11.27-4.37L23.00-4.37L23.00-18.67L21.96-18.67L21.96-19.62C21.96-21.20 21.08-22.07 19.43-22.07L14.86-22.07C13.17-22.07 12.32-21.23 12.32-19.62L12.32-18.67L11.27-18.67ZM9.01-18.67C7.36-18.67 6.50-17.84 6.50-16.27L6.50-6.76C6.50-5.19 7.36-4.37 9.01-4.37L10.10-4.37L10.10-18.67Z" fill="currentColor"/>
</svg>