<svg xmlns="http://www.w3.org/2000/svg" viewBox="0 0 24 24" width="24" height="24">
  
  <path transform="matrix(0.7528304661079253, 0, 0, 0.7528304661079253, -0.24966916629907354, 18.369651521835024)" d="M6.33 2.71C4.10 2.71 2.99 1.63 2.99-0.60L2.99-12.16C2.99-14.38 4.10-15.46 6.33-15.46L10.51-15.46L10.51-16.77C10.51-18.68 11.65-19.63 13.46-19.63L19.08-19.63C20.98-19.63 22.03-18.68 22.03-16.77L22.03-15.46L26.21-15.46C28.45-15.46 29.55-14.38 29.55-12.16L29.55-0.60C29.55 1.63 28.45 2.71 26.21 2.71L25.04 2.71L25.04-15.46L23.59-15.46L23.59 2.71L8.95 2.71L8.95-15.46L7.50-15.46L7.50 2.71ZM11.92-16.85L11.92-15.46L20.64-15.46L20.64-16.85C20.64-17.77 20.07-18.29 19.10-18.29L13.43-18.29C12.47-18.29 11.92-17.77 11.92-16.85Z" fill="currentColor"/>
</svg>