<svg xmlns="http://www.w3.org/2000/svg" viewBox="0 0 24 24" width="24" height="24">
  <title>sun.rain.circle</title>
  <path transform="matrix(0.8507809903622466, 0, 0, 0.8507809903622466, 0.21535393818544368, 19.19840478564307)" d="M13.85 3.29C20.34 3.29 25.61-1.97 25.61-8.46C25.61-14.95 20.34-20.21 13.85-20.21C7.36-20.21 2.10-14.95 2.10-8.46C2.10-1.97 7.36 3.29 13.85 3.29ZM13.85 1.77C8.19 1.77 3.62-2.80 3.62-8.46C3.62-14.12 8.19-18.70 13.85-18.70C19.51-18.70 24.09-14.12 24.09-8.46C24.09-2.80 19.51 1.77 13.85 1.77ZM14.38-14.50L14.38-16.32C14.38-16.66 14.14-16.89 13.84-16.89C13.55-16.89 13.31-16.66 13.31-16.32L13.31-14.50C13.31-14.18 13.55-13.92 13.84-13.92C14.14-13.92 14.38-14.19 14.38-14.50ZM16.98-12.21C17.18-12 17.52-12.01 17.73-12.23L19.03-13.54C19.25-13.77 19.27-14.09 19.07-14.30C18.87-14.51 18.52-14.53 18.30-14.30L16.99-12.98C16.77-12.76 16.75-12.43 16.98-12.21ZM9.96-12.23C10.17-12.02 10.52-12 10.72-12.21C10.95-12.43 10.91-12.77 10.70-12.98L9.39-14.30C9.16-14.53 8.82-14.50 8.63-14.30C8.43-14.09 8.43-13.77 8.66-13.54ZM17.32-9.09C17.32-11.00 15.76-12.59 13.84-12.59C11.94-12.59 10.37-11.00 10.37-9.09C10.37-8.65 10.46-8.20 10.64-7.80L17.04-7.80C17.21-8.20 17.32-8.65 17.32-9.09ZM7.03-8.72L8.86-8.72C9.20-8.72 9.43-8.94 9.43-9.25C9.43-9.55 9.19-9.79 8.86-9.79L7.03-9.79C6.70-9.79 6.47-9.54 6.47-9.25C6.47-8.95 6.70-8.72 7.03-8.72ZM18.83-8.72L20.66-8.72C20.99-8.72 21.22-8.95 21.22-9.25C21.22-9.55 20.99-9.79 20.66-9.79L18.83-9.79C18.50-9.79 18.26-9.55 18.26-9.25C18.26-8.95 18.52-8.72 18.83-8.72ZM7.02-5.99L20.67-5.99C20.96-5.99 21.22-6.21 21.22-6.50C21.22-6.81 20.98-7.02 20.67-7.02L7.02-7.02C6.73-7.02 6.47-6.81 6.47-6.50C6.47-6.21 6.73-5.99 7.02-5.99ZM11.46-0.74L13.43-4.13C13.56-4.36 13.48-4.63 13.25-4.76C13.04-4.88 12.77-4.80 12.64-4.58L10.68-1.20C10.55-0.97 10.62-0.69 10.85-0.56C11.06-0.45 11.33-0.53 11.46-0.74ZM16.73-0.74L18.70-4.13C18.83-4.36 18.76-4.63 18.54-4.76C18.33-4.88 18.05-4.80 17.92-4.58L15.95-1.20C15.82-0.97 15.90-0.69 16.13-0.56C16.34-0.45 16.61-0.53 16.73-0.74ZM9.87-2.54L10.78-4.13C10.91-4.35 10.84-4.63 10.61-4.76C10.39-4.88 10.13-4.80 10.00-4.58L9.08-3C8.95-2.78 9.02-2.50 9.25-2.37C9.46-2.25 9.74-2.32 9.87-2.54ZM15.14-2.54L16.07-4.13C16.20-4.35 16.11-4.63 15.89-4.76C15.68-4.88 15.41-4.80 15.28-4.58L14.36-3C14.23-2.78 14.31-2.50 14.53-2.37C14.74-2.25 15.01-2.32 15.14-2.54Z" fill="currentColor"/>
</svg>