<svg xmlns="http://www.w3.org/2000/svg" viewBox="0 0 24 24" width="24" height="24">
  
  <path transform="matrix(0.8507809903622466, 0, 0, 0.8507809903622466, 0.21535393818544368, 19.19840478564307)" d="M13.85 3.29C20.34 3.29 25.61-1.97 25.61-8.46C25.61-14.95 20.34-20.21 13.85-20.21C7.36-20.21 2.10-14.95 2.10-8.46C2.10-1.97 7.36 3.29 13.85 3.29ZM13.85 1.77C8.19 1.77 3.62-2.80 3.62-8.46C3.62-14.12 8.19-18.70 13.85-18.70C19.51-18.70 24.09-14.12 24.09-8.46C24.09-2.80 19.51 1.77 13.85 1.77ZM13.84-15.95C13.56-15.95 13.34-15.70 13.34-15.41L13.34-13.09L13.37-12.56L13.17-12.77L12.29-13.64C12.19-13.73 12.06-13.80 11.93-13.80C11.67-13.80 11.47-13.61 11.47-13.35C11.47-13.22 11.52-13.10 11.65-12.97L13.50-11.20C13.61-11.10 13.72-11.05 13.84-11.05C13.97-11.05 14.07-11.10 14.19-11.20L16.03-12.97C16.18-13.10 16.22-13.22 16.22-13.35C16.22-13.61 16.02-13.80 15.75-13.80C15.64-13.80 15.49-13.75 15.41-13.66L14.58-12.80L14.32-12.54L14.36-13.09L14.36-15.41C14.36-15.70 14.13-15.95 13.84-15.95ZM16.79-9.43C16.98-9.23 17.31-9.23 17.52-9.45L18.74-10.69C18.95-10.91 18.96-11.20 18.77-11.41C18.59-11.61 18.26-11.63 18.05-11.40L16.80-10.16C16.61-9.96 16.57-9.64 16.79-9.43ZM10.18-9.45C10.38-9.25 10.71-9.23 10.90-9.43C11.12-9.64 11.07-9.97 10.89-10.16L9.64-11.40C9.42-11.63 9.11-11.60 8.92-11.41C8.73-11.20 8.73-10.91 8.95-10.69ZM17.12-6.50C17.12-8.31 15.64-9.80 13.84-9.80C12.05-9.80 10.56-8.31 10.56-6.50C10.56-6.07 10.66-5.65 10.83-5.27L16.86-5.27C17.03-5.65 17.12-6.07 17.12-6.50ZM7.41-6.14L9.15-6.14C9.46-6.14 9.69-6.35 9.69-6.64C9.69-6.93 9.46-7.15 9.15-7.15L7.41-7.15C7.10-7.15 6.88-6.91 6.88-6.64C6.88-6.38 7.10-6.14 7.41-6.14ZM18.54-6.14L20.29-6.14C20.59-6.14 20.81-6.36 20.81-6.64C20.81-6.93 20.59-7.15 20.29-7.15L18.54-7.15C18.23-7.15 18-6.93 18-6.64C18-6.35 18.26-6.14 18.54-6.14ZM7.41-3.60L20.29-3.60C20.57-3.60 20.81-3.81 20.81-4.09C20.81-4.38 20.58-4.59 20.29-4.59L7.41-4.59C7.13-4.59 6.88-4.37 6.88-4.09C6.88-3.81 7.13-3.60 7.41-3.60Z" fill="currentColor"/>
</svg>