<svg xmlns="http://www.w3.org/2000/svg" viewBox="0 0 24 24" width="24" height="24">
  <title>suv.side.air.fresh</title>
  <path transform="matrix(0.4926866820631255, 0, 0, 0.4926866820631255, 0.5277136258660509, 16.168591224018474)" d="M11.98 0.73C13.70 0.73 15.13-0.36 15.62-1.91L31.61-1.91C32.10-0.36 33.53 0.73 35.25 0.73C36.98 0.73 38.41-0.36 38.89-1.91L40.85-1.91C42.71-1.91 43.58-2.88 43.58-4.90L43.58-9.98C43.58-11.41 43.08-12.97 42.19-14.27L41.66-15.05C40.41-16.86 38.75-17.65 36.19-17.65L27.15-17.65C22.41-17.65 20.57-17.21 17.77-15.45L15.55-14.06L16.44-12.90L18.54-14.21C21.12-15.83 22.65-16.21 27.15-16.21L36.19-16.21C38.25-16.21 39.50-15.62 40.46-14.21L40.99-13.45C41.73-12.36 42.14-11.16 42.14-9.98L42.14-4.82C42.14-3.84 41.72-3.36 40.78-3.36L39.07-3.36C38.94-5.38 37.31-6.93 35.25-6.93C33.20-6.93 31.57-5.38 31.44-3.36L15.80-3.36C15.67-5.38 14.04-6.93 11.98-6.93C9.91-6.93 8.29-5.38 8.16-3.36L5.80-3.36C4.92-3.36 4.44-3.90 4.44-4.89L4.44-6.71C4.44-8.93 5.84-10.15 8.88-10.52L13.00-11.03L11.99-12.38L8.71-11.96C4.88-11.50 2.99-9.75 2.99-6.71L2.99-4.72C2.99-2.94 3.98-1.91 5.73-1.91L8.33-1.91C8.82-0.36 10.25 0.73 11.98 0.73ZM21.01-11.57L21.01-10.37L18.23-10.37C17.17-10.37 16.66-10.64 15.96-11.55L12.67-15.84C11.75-17.04 10.72-17.50 9.09-17.50L6.09-17.50C5.70-17.50 5.37-17.17 5.37-16.78C5.37-16.38 5.70-16.05 6.09-16.05L9.09-16.05C10.35-16.05 10.91-15.80 11.54-14.96L14.80-10.65C15.74-9.43 16.72-8.92 18.23-8.92L21.01-8.92L21.01-7.72C21.01-7.08 21.60-6.89 22.08-7.20L25.00-9.07C25.45-9.36 25.45-9.91 24.98-10.22L22.08-12.08C21.60-12.40 21.01-12.21 21.01-11.57ZM11.98-0.73C10.64-0.73 9.60-1.77 9.60-3.11C9.60-4.44 10.64-5.48 11.98-5.48C13.31-5.48 14.36-4.44 14.36-3.11C14.36-1.77 13.31-0.73 11.98-0.73ZM35.25-0.73C33.91-0.73 32.88-1.77 32.88-3.11C32.88-4.44 33.91-5.48 35.25-5.48C36.59-5.48 37.63-4.44 37.63-3.11C37.63-1.77 36.59-0.73 35.25-0.73Z" fill="currentColor"/>
</svg>