<svg xmlns="http://www.w3.org/2000/svg" viewBox="0 0 24 24" width="24" height="24">
  
  <path transform="matrix(0.8507809903622466, 0, 0, 0.8507809903622466, 0.21535393818544368, 19.188434695912264)" d="M13.85 3.30C20.33 3.30 25.61-1.97 25.61-8.45C25.61-14.93 20.33-20.20 13.85-20.20C7.37-20.20 2.10-14.93 2.10-8.45C2.10-1.97 7.37 3.30 13.85 3.30ZM8.60-4.69C6.90-6.36 5.65-8.34 5.65-9.97C5.65-10.69 5.91-11.33 6.39-11.79C6.71-12.11 7.17-12.41 7.56-12.41C7.88-12.41 8.07-12.18 8.34-11.79L9.30-10.44C9.53-10.15 9.60-9.90 9.60-9.68C9.60-9.48 9.55-9.35 9.41-9.09L8.87-8.18C8.82-8.10 8.79-8.04 8.79-7.96C8.79-7.88 8.82-7.78 8.85-7.72C9.08-7.29 9.50-6.74 10.03-6.20C10.58-5.65 11.18-5.17 11.63-4.97C11.74-4.92 11.81-4.89 11.92-4.89C11.99-4.89 12.05-4.91 12.15-4.97L13.07-5.47C13.36-5.63 13.51-5.66 13.69-5.66C13.90-5.66 14.05-5.63 14.39-5.38L15.80-4.37C16.17-4.10 16.32-3.89 16.32-3.64C16.32-3.33 16.18-2.99 15.76-2.52C15.33-2.03 14.67-1.71 13.91-1.71C12.28-1.71 10.27-3.01 8.60-4.69ZM11.57-9.87C11.18-9.87 10.96-10.10 10.96-10.48L10.96-11.45C10.96-11.85 11.18-12.06 11.57-12.06L12.55-12.06C12.94-12.06 13.16-11.85 13.16-11.45L13.16-10.48C13.16-10.10 12.94-9.87 12.55-9.87ZM14.51-9.87C14.12-9.87 13.88-10.10 13.88-10.48L13.88-11.45C13.88-11.85 14.12-12.06 14.51-12.06L15.49-12.06C15.88-12.06 16.08-11.85 16.08-11.45L16.08-10.48C16.08-10.10 15.88-9.87 15.49-9.87ZM17.43-9.87C17.04-9.87 16.84-10.10 16.84-10.48L16.84-11.45C16.84-11.85 17.04-12.06 17.43-12.06L18.41-12.06C18.80-12.06 19.02-11.85 19.02-11.45L19.02-10.48C19.02-10.10 18.80-9.87 18.41-9.87ZM20.36-9.87C19.98-9.87 19.76-10.10 19.76-10.48L19.76-11.45C19.76-11.85 19.98-12.06 20.36-12.06L21.34-12.06C21.75-12.06 21.97-11.85 21.97-11.45L21.97-10.48C21.97-10.10 21.75-9.87 21.34-9.87ZM11.55-6.94C11.16-6.94 10.96-7.15 10.96-7.54L10.96-8.52C10.96-8.92 11.16-9.12 11.55-9.12L12.54-9.12C12.94-9.12 13.16-8.92 13.16-8.52L13.16-7.54C13.16-7.15 12.94-6.94 12.54-6.94ZM14.50-6.94C14.11-6.94 13.88-7.15 13.88-7.54L13.88-8.52C13.88-8.92 14.11-9.12 14.50-9.12L18.43-9.12C18.82-9.12 19.03-8.92 19.03-8.52L19.03-7.54C19.03-7.15 18.82-6.94 18.43-6.94ZM20.38-6.94C20.00-6.94 19.77-7.15 19.77-7.54L19.77-8.52C19.77-8.92 20.00-9.12 20.38-9.12L21.36-9.12C21.77-9.12 21.97-8.92 21.97-8.52L21.97-7.54C21.97-7.15 21.77-6.94 21.36-6.94Z" fill="currentColor"/>
</svg>