<svg xmlns="http://www.w3.org/2000/svg" viewBox="0 0 24 24" width="24" height="24">
  
  <path transform="matrix(0.8507809903622466, 0, 0, 0.8507809903622466, 0.21535393818544368, 19.188434695912264)" d="M13.85 3.30C20.33 3.30 25.61-1.97 25.61-8.45C25.61-14.93 20.33-20.20 13.85-20.20C7.37-20.20 2.10-14.93 2.10-8.45C2.10-1.97 7.37 3.30 13.85 3.30ZM13.85-14.50C16.18-14.50 18.82-14.06 20.10-12.74C20.60-12.26 20.88-11.64 20.88-10.85C20.88-10.34 20.73-9.62 20.21-9.48C20.04-9.36 19.80-9.39 19.50-9.43L17.75-9.73C17.17-9.82 16.86-10.04 16.71-10.63L16.42-11.71C16.36-11.89 16.29-11.99 16.05-12.06C15.57-12.23 14.81-12.33 13.85-12.33C12.90-12.33 12.14-12.23 11.65-12.06C11.43-11.99 11.36-11.89 11.29-11.71L11.00-10.63C10.84-10.04 10.55-9.82 9.95-9.73L8.20-9.43C7.90-9.39 7.68-9.36 7.49-9.48C6.97-9.62 6.82-10.34 6.82-10.85C6.82-11.64 7.10-12.26 7.61-12.74C8.88-14.06 11.53-14.50 13.85-14.50ZM8.26-5.78C7.83-5.78 7.58-6.02 7.58-6.47L7.58-7.61C7.58-8.03 7.83-8.29 8.26-8.29L9.39-8.29C9.83-8.29 10.07-8.03 10.07-7.61L10.07-6.47C10.07-6.02 9.83-5.78 9.39-5.78ZM11.61-5.78C11.17-5.78 10.91-6.02 10.91-6.47L10.91-7.61C10.91-8.03 11.17-8.29 11.61-8.29L12.74-8.29C13.17-8.29 13.42-8.03 13.42-7.61L13.42-6.47C13.42-6.02 13.17-5.78 12.74-5.78ZM14.94-5.78C14.51-5.78 14.25-6.02 14.25-6.47L14.25-7.61C14.25-8.03 14.51-8.29 14.94-8.29L16.07-8.29C16.50-8.29 16.77-8.03 16.77-7.61L16.77-6.47C16.77-6.02 16.50-5.78 16.07-5.78ZM18.27-5.78C17.85-5.78 17.58-6.02 17.58-6.47L17.58-7.61C17.58-8.03 17.85-8.29 18.27-8.29L19.39-8.29C19.84-8.29 20.11-8.03 20.11-7.61L20.11-6.47C20.11-6.02 19.84-5.78 19.39-5.78ZM8.25-2.43C7.82-2.43 7.58-2.68 7.58-3.12L7.58-4.25C7.58-4.69 7.82-4.93 8.25-4.93L9.38-4.93C9.83-4.93 10.07-4.69 10.07-4.25L10.07-3.12C10.07-2.68 9.83-2.43 9.38-2.43ZM11.59-2.43C11.16-2.43 10.91-2.68 10.91-3.12L10.91-4.25C10.91-4.69 11.16-4.93 11.59-4.93L16.08-4.93C16.52-4.93 16.78-4.69 16.78-4.25L16.78-3.12C16.78-2.68 16.52-2.43 16.08-2.43ZM18.30-2.43C17.86-2.43 17.60-2.68 17.60-3.12L17.60-4.25C17.60-4.69 17.86-4.93 18.30-4.93L19.42-4.93C19.86-4.93 20.11-4.69 20.11-4.25L20.11-3.12C20.11-2.68 19.86-2.43 19.42-2.43Z" fill="currentColor"/>
</svg>