<svg xmlns="http://www.w3.org/2000/svg" viewBox="0 0 24 24" width="24" height="24">
  <title>tent.2</title>
  <path transform="matrix(0.6033512622575686, 0, 0, 0.6033512622575686, 0.5597835281596584, 17.02360631055472)" d="M3.54-0.46L13.14-0.46L12.26 1.32C11.74 2.34 12.13 3.41 13.36 3.41L34.21 3.41C35.44 3.41 35.82 2.34 35.32 1.32L25.11-19.18C24.83-19.73 24.33-20.06 23.79-20.06C23.24-20.06 22.73-19.73 22.46-19.18L16.86-7.95L12.27-17.19C12.04-17.65 11.60-17.94 11.13-17.94C10.66-17.94 10.24-17.65 10.01-17.19L2.57-2.25C2.13-1.39 2.50-0.46 3.54-0.46ZM13.92 2.02C13.64 2.02 13.57 1.80 13.68 1.57L23.57-18.29C23.67-18.49 23.91-18.49 24-18.29L33.89 1.57C34.01 1.83 33.95 2.02 33.71 2.02L29.41 2.02L24.41-8.78C24.27-9.06 24.04-9.19 23.79-9.19C23.53-9.19 23.30-9.06 23.16-8.78L18.15 2.02ZM4.14-1.84C3.98-1.84 3.97-1.93 4.02-2.05L11.02-16.13C11.07-16.24 11.20-16.24 11.25-16.13L16.10-6.40L14.54-3.28L11.60-9.67C11.50-9.87 11.32-9.97 11.13-9.97C10.95-9.97 10.78-9.87 10.69-9.67L7.05-1.84ZM11.13-7.89L12.48-1.84L9.80-1.84ZM23.79-6.34L25.64 2.02L21.93 2.02Z" fill="currentColor"/>
</svg>