<svg xmlns="http://www.w3.org/2000/svg" viewBox="0 0 24 24" width="24" height="24">
  
  <path transform="matrix(0.6767116045466561, 0, 0, 0.6767116045466561, 1.8413957176843763, 17.717684377478193)" d="M6.05-4.59L23.96-4.59C25.99-4.59 27.04-5.63 27.04-7.63L27.04-20.17C27.04-22.18 25.99-23.23 23.96-23.23L6.05-23.23C4.03-23.23 2.99-22.17 2.99-20.17L2.99-7.63C2.99-5.63 4.03-4.59 6.05-4.59ZM10.39-13.72C9.02-13.72 7.90-14.85 7.90-16.23C7.90-17.59 9.02-18.71 10.39-18.71C11.75-18.71 12.88-17.59 12.88-16.23C12.88-14.85 11.75-13.72 10.39-13.72ZM6.12-5.96C5.02-5.96 4.37-6.62 4.37-7.71L4.37-8.18L7.68-11.14C8.14-11.55 8.64-11.77 9.09-11.77C9.60-11.77 10.11-11.54 10.58-11.12L12.50-9.36L17.44-13.70C17.98-14.16 18.56-14.38 19.14-14.38C19.70-14.38 20.33-14.16 20.82-13.69L25.70-9.15L25.70-7.70C25.70-6.62 25.03-5.96 23.95-5.96ZM3.68 0.87L26.34 0.87C26.73 0.87 27.04 0.57 27.04 0.19C27.04-0.20 26.73-0.50 26.34-0.50L3.68-0.50C3.28-0.50 2.99-0.20 2.99 0.19C2.99 0.57 3.28 0.87 3.68 0.87ZM3.68 6.33L18.60 6.33C18.98 6.33 19.29 6.04 19.29 5.65C19.29 5.26 18.98 4.96 18.60 4.96L3.68 4.96C3.28 4.96 2.99 5.26 2.99 5.65C2.99 6.04 3.28 6.33 3.68 6.33Z" fill="currentColor"/>
</svg>