<svg xmlns="http://www.w3.org/2000/svg" viewBox="0 0 24 24" width="24" height="24">
  
  <path transform="matrix(0.6907535695175443, 0, 0, 0.6907535695175443, 0.4077117079218793, 18.04319935231682)" d="M5.10-9.28C6.35-4.58 9.53-2.20 13.78-2.66C12.76-1.20 13.45 0.27 12.70 1.16C12.07 1.86 11.14 1.69 10.64 2.29C10.27 2.75 10.25 3.46 10.96 4.10C13.57 6.47 18.13 6.19 20.30 3.68C21.47 2.34 21.88 0.73 21.43-0.75C22.51-1.10 23.32-1.83 24.21-3.08C27.15-7.30 30.11-15.29 30.40-16.10C31.21-18.33 29.02-20.00 27.15-18.39C26.72-18 24.16-15.45 21.60-12.55C21.54-12.90 21.46-13.28 21.36-13.64L19.36-21.04C18.88-22.85 17.58-23.57 15.74-23.07L5.23-20.27C3.40-19.79 2.65-18.50 3.14-16.68ZM6.54-9.67L4.56-17.02C4.31-17.95 4.70-18.63 5.63-18.88L16.10-21.69C17.04-21.94 17.71-21.54 17.96-20.59L19.92-13.25C20.13-12.47 20.25-11.72 20.29-11.02C19.31-9.87 18.40-8.71 17.67-7.66C16.79-6.40 16.39-5.40 16.42-4.25C16.27-4.24 16.13-4.22 15.98-4.18L15.95-4.68C15.62-4.54 15.39-4.46 15.13-4.39C10.90-3.29 7.72-5.24 6.54-9.67ZM28.04-17.27C28.58-17.84 29.36-17.29 29.05-16.57C28.80-16.00 26.38-9.34 23.75-5.05C22.96-6.50 21.29-7.68 19.66-7.93C22.76-11.96 27.57-16.78 28.04-17.27ZM15.62-15.11C16.35-15.29 16.73-14.94 17.03-15.02C17.24-15.08 17.36-15.36 17.25-15.74C17.00-16.69 16.07-17.19 15.14-16.95C14.20-16.69 13.63-15.77 13.90-14.85C14.00-14.45 14.26-14.27 14.46-14.32C14.77-14.40 14.89-14.91 15.62-15.11ZM9.35-13.41C10.07-13.58 10.46-13.24 10.76-13.32C10.97-13.37 11.09-13.65 10.98-14.04C10.73-14.99 9.77-15.52 8.87-15.25C7.92-15 7.36-14.07 7.62-13.15C7.73-12.75 7.99-12.56 8.19-12.62C8.50-12.71 8.63-13.21 9.35-13.41ZM14.48-6.88C16.65-7.46 18.02-9.11 18.06-11.17C18.07-11.64 17.70-11.81 17.30-11.52C16.17-10.71 14.80-10.21 13.79-9.91C12.69-9.60 11.19-9.30 9.73-9.48C9.27-9.55 9.01-9.20 9.27-8.81C10.32-7.05 12.34-6.30 14.48-6.88ZM19.90-3C19.27-3.55 18.57-3.93 17.88-4.13C17.81-4.92 18.13-5.78 18.81-6.76C20.34-6.82 22.49-5.33 22.97-3.84C22.23-2.77 21.56-2.29 20.77-2.07C20.53-2.40 20.24-2.71 19.90-3ZM12.64 3.55C12.35 3.33 12.33 3.06 12.45 2.89C12.64 2.64 13.38 2.60 13.84 1.95C14.73 0.68 14.09-0.77 15.09-1.99C16.03-3.13 17.70-3.12 19.00-2.03C20.59-0.73 20.54 1.22 19.27 2.74C17.78 4.58 14.65 5.11 12.64 3.55Z" fill="currentColor"/>
</svg>