<svg xmlns="http://www.w3.org/2000/svg" viewBox="0 0 24 24" width="24" height="24">
  
  <path transform="matrix(0.5146780750346767, 0, 0, 0.5146780750346767, 0.4608009006579423, 16.532908390863792)" d="M16.86 0.68C22.51-0.86 24.93-5.23 23.34-11.12L21.12-19.37C20.57-21.41 19.24-22.14 17.18-21.60L5.44-18.47C3.38-17.92 2.61-16.63 3.16-14.55L5.37-6.30C6.93-0.42 11.21 2.18 16.86 0.68ZM39.39-15.41L27.66-18.54C25.71-19.07 24.39-18.46 23.84-16.66L23.54-15.60L24.66-11.47C25.89-6.90 24.90-3.02 22.07-0.52C23.16 1.50 25.20 2.99 27.97 3.74C33.62 5.24 37.89 2.64 39.47-3.25L41.68-11.50C42.22-13.55 41.45-14.86 39.39-15.41ZM17.06-12.94C16.23-12.70 16.09-12.13 15.73-12.07C15.56-12.02 15.32-12.21 15.22-12.56C14.94-13.54 15.55-14.60 16.56-14.86C17.57-15.13 18.60-14.52 18.86-13.55C18.96-13.17 18.84-12.90 18.67-12.84C18.28-12.71 17.85-13.15 17.06-12.94ZM9.91-11.00C9.07-10.77 8.93-10.20 8.58-10.13C8.41-10.09 8.17-10.28 8.06-10.64C7.79-11.61 8.40-12.67 9.41-12.91C10.41-13.17 11.45-12.57 11.71-11.61C11.81-11.25 11.70-10.98 11.52-10.91C11.12-10.78 10.70-11.21 9.91-11.00ZM27.59-8.59C26.80-8.80 26.33-9.59 26.54-10.39C26.75-11.17 27.56-11.65 28.35-11.44C29.14-11.21 29.60-10.41 29.39-9.62C29.18-8.84 28.37-8.38 27.59-8.59ZM34.46-6.76C33.68-6.96 33.22-7.77 33.45-8.57C33.63-9.35 34.44-9.81 35.23-9.60C36.02-9.40 36.48-8.59 36.27-7.79C36.06-7.02 35.26-6.55 34.46-6.76ZM15.82-3.29C13.34-2.65 10.93-3.48 9.66-5.57C9.42-5.94 9.62-6.27 10.07-6.22C11.93-6.06 13.75-6.40 14.91-6.71C16.05-7.01 17.78-7.62 19.32-8.71C19.69-8.96 20.03-8.78 20.02-8.33C19.97-5.88 18.32-3.97 15.82-3.29ZM29.51-2.11C28.22-2.47 26.87-2.48 25.45-2.19C25.03-2.10 24.80-2.44 25.02-2.80C26.06-4.51 28.16-5.17 30.16-4.64C32.26-4.11 33.68-2.47 33.73-0.48C33.74-0.05 33.36 0.13 33.04-0.15C31.91-1.18 30.80-1.78 29.51-2.11Z" fill="currentColor"/>
</svg>