<svg xmlns="http://www.w3.org/2000/svg" viewBox="0 0 24 24" width="24" height="24">
  
  <path transform="matrix(0.8507809903622466, 0, 0, 0.8507809903622466, 0.21535393818544368, 19.19840478564307)" d="M13.85 3.29C20.34 3.29 25.61-1.97 25.61-8.46C25.61-14.95 20.34-20.21 13.85-20.21C7.36-20.21 2.10-14.95 2.10-8.46C2.10-1.97 7.36 3.29 13.85 3.29ZM13.85 1.77C8.19 1.77 3.62-2.80 3.62-8.46C3.62-14.12 8.19-18.70 13.85-18.70C19.51-18.70 24.09-14.12 24.09-8.46C24.09-2.80 19.51 1.77 13.85 1.77ZM13.73-9.61C17.57-9.61 20.07-10.56 20.07-12.01C20.07-13.30 18.21-14.07 15.60-14.07C13.70-14.07 12.14-13.70 10.95-13.15C10.62-13.00 10.55-12.67 10.68-12.45C10.79-12.19 11.11-12.12 11.40-12.25C12.43-12.69 13.76-13.11 15.56-13.11C17.77-13.11 19.04-12.61 19.04-12.02C19.04-11.33 16.97-10.59 13.70-10.59C10.38-10.59 8.66-11.25 8.66-12.46C8.66-13.21 9.39-13.98 11.20-14.54C11.50-14.64 11.65-14.91 11.58-15.18C11.47-15.46 11.23-15.55 10.89-15.47C8.77-14.82 7.63-13.68 7.63-12.45C7.63-10.58 9.80-9.61 13.73-9.61ZM13.93-7.51C15.98-7.51 17.89-7.83 19.22-8.41C19.49-8.52 19.61-8.79 19.49-9.04C19.37-9.27 19.11-9.33 18.82-9.21C17.57-8.72 15.81-8.43 13.93-8.43C12.49-8.43 10.85-8.61 9.66-8.95C9.36-9.05 9.11-8.94 9.01-8.68C8.95-8.41 9.08-8.17 9.39-8.09C10.70-7.70 12.46-7.51 13.93-7.51ZM14.40-5.43C16.17-5.44 17.79-5.71 19.22-6.19C19.55-6.30 19.63-6.60 19.54-6.82C19.45-7.07 19.20-7.16 18.88-7.04C17.50-6.59 16.00-6.33 14.40-6.33C13.72-6.33 13.03-6.38 12.47-6.46C12.16-6.49 11.95-6.35 11.89-6.11C11.86-5.87 12-5.63 12.33-5.57C12.86-5.47 13.61-5.43 14.40-5.43ZM13.78-3.46C14.96-3.32 16.44-3.34 17.67-3.70C17.96-3.80 18.08-4.05 18-4.30C17.92-4.55 17.67-4.66 17.36-4.57C16.30-4.28 15.04-4.20 13.92-4.35C13.62-4.38 13.38-4.23 13.35-3.97C13.31-3.73 13.45-3.50 13.78-3.46ZM13.32-1.42C13.72-1.37 14.27-1.38 14.71-1.43C15-1.48 15.15-1.70 15.13-1.93C15.09-2.17 14.91-2.36 14.57-2.31C14.20-2.25 13.80-2.24 13.43-2.30C13.13-2.34 12.93-2.17 12.89-1.95C12.86-1.71 12.98-1.48 13.32-1.42Z" fill="currentColor"/>
</svg>