<svg xmlns="http://www.w3.org/2000/svg" viewBox="0 0 24 24" width="24" height="24">
  
  <path transform="matrix(0.5184285135682463, 0, 0, 0.5184285135682463, 0.4507897934386391, 15.420413122721751)" d="M17.16-8.47C20.52-8.48 23.17-9.63 25.36-11.80C23.30-14.53 20.95-16.07 17.31-16.08C13.72-16.08 11.41-14.94 9.08-11.75C11.26-9.60 13.96-8.47 17.16-8.47ZM31.75-3.01C33.70-4.01 34.59-4.80 36.80-4.80C39.60-4.80 41.57-5.93 41.57-7.68C41.57-11.44 39.50-14.17 36.41-14.17C33.68-14.17 32.06-12.39 31.38-9.94C30.71-7.79 30.19-7.15 29.45-6.56C30-5.75 30.86-4.28 31.75-3.01ZM24.76-1.57C25.95-1.93 27.02-2.20 28.46-2.20C29.40-2.20 30.33-2.31 30.79-2.59C29.44-4.27 27.20-8.96 25.99-10.90C24.75-9.74 23.00-8.65 21.61-8.11C21.84-5.75 22.84-3.60 24.76-1.57ZM9.61-1.58C11.37-3.39 12.60-5.86 12.89-8.04C11.26-8.61 9.53-9.67 8.39-10.78C7.78-9.86 7.17-8.78 6.60-7.71C5.57-5.75 4.23-4.54 3.43-3.87C3.15-3.63 2.99-3.34 2.99-2.95C2.99-2.43 3.59-2.12 4.59-2.12L6.16-2.12C7.61-2.12 8.64-1.90 9.61-1.58ZM36.80-8.78C36.27-8.78 35.85-9.20 35.85-9.71C35.85-10.23 36.27-10.66 36.80-10.66C37.30-10.66 37.73-10.23 37.73-9.71C37.73-9.20 37.30-8.78 36.80-8.78ZM16.97 0.93C19.91 0.93 21.93-0.32 23.64-1.10C21.77-3.01 20.75-5.26 20.52-7.73C19.45-7.43 18.34-7.28 17.18-7.28C16.02-7.27 14.94-7.42 13.93-7.69C13.68-5.46 12.66-3.14 10.82-1.11C12.43-0.43 14.24 0.93 16.97 0.93ZM6.34 2.81C8.23 2.81 10.22 1.89 11.16 0.43C10.13-0.23 8.88-0.83 7.64-0.96C7.08-0.77 6.45-0.74 5.72-0.57C4.54-0.34 3.70 0.09 3.70 1.04C3.70 2.17 4.79 2.81 6.34 2.81ZM27.71 2.88C29.26 2.88 30.36 2.24 30.36 1.13C30.36 0.16 29.52-0.50 28.34-0.66C27.61-0.74 27.05-0.77 26.41-0.89C25.24-0.74 24-0.14 22.90 0.50C23.84 1.96 25.83 2.88 27.71 2.88Z" fill="currentColor"/>
</svg>