<svg xmlns="http://www.w3.org/2000/svg" viewBox="0 0 24 24" width="24" height="24">
  
  <path transform="matrix(0.8507809903622466, 0, 0, 0.8507809903622466, 0.21535393818544368, 19.19840478564307)" d="M13.85 3.29C20.34 3.29 25.61-1.97 25.61-8.46C25.61-14.95 20.34-20.21 13.85-20.21C7.36-20.21 2.10-14.95 2.10-8.46C2.10-1.97 7.36 3.29 13.85 3.29ZM13.85 1.77C8.19 1.77 3.62-2.80 3.62-8.46C3.62-14.12 8.19-18.70 13.85-18.70C19.51-18.70 24.09-14.12 24.09-8.46C24.09-2.80 19.51 1.77 13.85 1.77ZM11.70-9.38C13.22-9.38 14.43-9.90 15.42-10.89C14.47-12.09 13.41-12.80 11.77-12.80C10.13-12.80 9.05-12.30 8.02-10.88C9.01-9.89 10.23-9.36 11.70-9.38ZM20.72-7.63C21.98-7.63 22.89-8.14 22.89-8.95C22.89-10.66 21.95-11.92 20.54-11.92C19.28-11.92 18.54-11.11 18.23-9.97C17.95-9.09 17.71-8.77 17.45-8.51C17.75-8.02 18.16-7.34 18.53-6.87C19.34-7.29 19.73-7.63 20.72-7.63ZM15.26-6.16C15.77-6.33 16.27-6.43 16.90-6.43C17.32-6.43 17.74-6.48 17.94-6.62C17.34-7.36 16.32-9.45 15.77-10.35C15.22-9.83 14.44-9.34 13.82-9.09C13.91-8.04 14.37-7.08 15.26-6.16ZM20.72-9.45C20.47-9.45 20.29-9.63 20.29-9.88C20.29-10.11 20.47-10.32 20.72-10.32C20.93-10.32 21.14-10.11 21.14-9.88C21.14-9.63 20.93-9.45 20.72-9.45ZM8.16-6.16C8.95-6.98 9.49-8.09 9.64-9.06C8.93-9.33 8.14-9.81 7.64-10.30C7.37-9.88 7.09-9.41 6.83-8.94C6.36-8.06 5.77-7.48 5.38-7.18C5.26-7.08 5.19-6.93 5.19-6.77C5.19-6.54 5.40-6.40 5.86-6.40L6.63-6.40C7.27-6.40 7.72-6.29 8.16-6.16ZM11.60-5.00C12.93-5.00 13.83-5.54 14.61-5.89C13.77-6.76 13.29-7.77 13.20-8.88C12.70-8.74 12.21-8.68 11.71-8.68C11.19-8.68 10.71-8.73 10.25-8.85C10.13-7.86 9.67-6.82 8.85-5.91C9.56-5.59 10.38-5.00 11.60-5.00ZM6.73-4.14C7.55-4.14 8.43-4.52 8.87-5.14C8.17-5.51 7.69-5.75 6.98-5.78C6.82-5.73 6.62-5.73 6.46-5.70C5.92-5.55 5.52-5.38 5.52-4.95C5.52-4.43 6.02-4.14 6.73-4.14ZM16.56-4.09C17.26-4.09 17.75-4.41 17.75-4.91C17.75-5.33 17.37-5.65 16.82-5.73C16.59-5.74 16.41-5.75 16.17-5.77C15.68-5.72 14.77-5.31 14.41-5.10C14.85-4.48 15.71-4.09 16.56-4.09Z" fill="currentColor"/>
</svg>