<svg xmlns="http://www.w3.org/2000/svg" viewBox="0 0 24 24" width="24" height="24">
  
  <path transform="matrix(0.6994535519125683, 0, 0, 0.6994535519125683, 3.0204918032786883, 17.852459016393443)" d="M6.52 1.18L6.82 1.18L4.39 5.09C4.14 5.50 4.36 5.93 4.82 5.93L5.40 5.93C5.68 5.93 5.84 5.84 5.99 5.59L6.66 4.52L19.04 4.52L19.71 5.59C19.86 5.84 20.02 5.93 20.30 5.93L20.88 5.93C21.34 5.93 21.54 5.48 21.29 5.09L18.88 1.18L19.16 1.18C21.54 1.18 22.69-0.40 22.69-2.43L22.69-10.48C22.69-13.88 22.20-17.14 21.71-19.03C21.25-20.87 19.96-22.20 18.06-22.41C17.12-22.52 15.16-22.66 12.84-22.66C10.51-22.66 8.55-22.52 7.62-22.41C5.72-22.20 4.43-20.87 3.96-19.03C3.48-17.14 2.99-13.88 2.99-10.48L2.99-2.43C2.99-0.40 4.14 1.18 6.52 1.18ZM9.79-19.04C9.40-19.04 9.15-19.30 9.15-19.68C9.15-20.05 9.40-20.30 9.79-20.30L15.89-20.30C16.28-20.30 16.52-20.05 16.52-19.68C16.52-19.30 16.28-19.04 15.89-19.04ZM12.84-6.35C10.24-6.36 7.96-6.47 6.61-6.62C5.86-6.70 5.52-7.18 5.52-7.90L5.52-10.69C5.52-12.91 5.75-14.79 5.98-15.87C6.09-16.44 6.46-16.84 7.01-16.90C8.36-17.05 10.02-17.14 12.84-17.14C15.64-17.16 17.31-17.05 18.59-16.91C19.18-16.84 19.56-16.44 19.69-15.87C19.91-14.79 20.14-12.91 20.14-10.69L20.14-7.90C20.14-7.17 19.80-6.69 19.05-6.62C17.30-6.45 15.01-6.35 12.84-6.35ZM18.30-1.34C17.44-1.34 16.77-1.99 16.77-2.86C16.77-3.73 17.44-4.38 18.30-4.38C19.17-4.38 19.82-3.73 19.82-2.86C19.82-1.99 19.15-1.34 18.30-1.34ZM7.37-1.35C6.50-1.35 5.86-1.98 5.86-2.86C5.86-3.74 6.50-4.37 7.37-4.37C8.25-4.37 8.89-3.74 8.89-2.86C8.89-1.98 8.24-1.35 7.37-1.35ZM7.59 3L8.73 1.18L16.97 1.18L18.11 3Z" fill="currentColor"/>
</svg>