<svg xmlns="http://www.w3.org/2000/svg" viewBox="0 0 24 24" width="24" height="24">
  <title>trash.fill</title>
  <path transform="matrix(0.7739984882842026, 0, 0, 0.7739984882842026, 1.9410430839002266, 19.287981859410433)" d="M7.69 3.50L18.32 3.50C19.83 3.50 20.92 2.46 20.99 0.96L21.86-16.54L23.52-16.54C23.91-16.54 24.20-16.84 24.20-17.21C24.20-17.60 23.89-17.91 23.52-17.91L18-17.91L18-19.80C18-21.39 16.97-22.34 15.28-22.34L10.70-22.34C9.01-22.34 7.99-21.39 7.99-19.80L7.99-17.91L2.47-17.91C2.11-17.91 1.79-17.59 1.79-17.21C1.79-16.84 2.11-16.54 2.47-16.54L4.16-16.54L5.03 0.96C5.10 2.46 6.16 3.50 7.69 3.50ZM9.42-19.73C9.42-20.51 9.95-20.99 10.77-20.99L15.21-20.99C16.04-20.99 16.56-20.51 16.56-19.73L16.56-17.91L9.42-17.91ZM9.43 0.01C9.07 0.01 8.85-0.21 8.82-0.55L8.44-13.77C8.44-14.11 8.67-14.33 9.04-14.33C9.38-14.33 9.62-14.12 9.63-13.78L10.02-0.56C10.03-0.22 9.80 0.01 9.43 0.01ZM13.01 0.01C12.64 0.01 12.40-0.22 12.40-0.56L12.40-13.77C12.40-14.11 12.64-14.33 13.01-14.33C13.36-14.33 13.62-14.11 13.62-13.77L13.62-0.56C13.62-0.22 13.36 0.01 13.01 0.01ZM16.57 0.01C16.21 0.01 15.97-0.22 15.98-0.55L16.37-13.77C16.38-14.11 16.63-14.33 16.97-14.33C17.33-14.33 17.57-14.11 17.57-13.76L17.18-0.55C17.16-0.20 16.93 0.01 16.57 0.01Z" fill="currentColor"/>
</svg>