<svg xmlns="http://www.w3.org/2000/svg" viewBox="0 0 24 24" width="24" height="24">
  
  <path transform="matrix(0.8507809903622466, 0, 0, 0.8507809903622466, 0.21535393818544368, 19.19840478564307)" d="M13.85 3.29C20.33 3.29 25.61-1.98 25.61-8.46C25.61-14.94 20.33-20.21 13.85-20.21C7.37-20.21 2.10-14.94 2.10-8.46C2.10-1.98 7.37 3.29 13.85 3.29ZM6.87-6.67C6.87-7.35 7.15-8.04 7.77-8.67C7.28-9.19 7.07-9.77 7.07-10.42C7.07-11.71 8.07-12.88 9.32-13.00C9.34-14.26 10.69-15.18 12.04-15.18C12.73-15.18 13.37-14.93 13.84-14.43C14.32-14.93 14.96-15.18 15.66-15.18C16.99-15.18 18.35-14.26 18.38-13.00C19.61-12.88 20.61-11.71 20.61-10.42C20.61-9.77 20.41-9.19 19.92-8.67C20.54-8.04 20.82-7.35 20.82-6.67C20.82-5.39 19.97-4.51 18.71-4.51C18.32-4.51 17.88-4.62 17.41-4.86C17.00-4.46 16.07-4.07 15.16-4.08C15.35-4.93 15.89-6.04 16.27-6.71C16.05-6.75 15.88-6.80 15.71-6.88C15.12-5.74 14.52-4.41 14.52-3.49C14.52-2.54 14.63-1.79 14.63-1.48C14.63-1.27 14.30-1.11 13.84-1.11C13.39-1.11 13.07-1.27 13.07-1.48C13.07-1.79 13.17-2.54 13.17-3.49C13.17-4.44 12.54-5.85 11.95-6.88C11.80-6.80 11.63-6.75 11.43-6.71C11.80-6.04 12.35-4.93 12.53-4.08C11.63-4.07 10.69-4.46 10.28-4.86C9.81-4.62 9.36-4.51 8.98-4.51C7.72-4.51 6.87-5.39 6.87-6.67ZM13.44-5.59L13.44-7.52C13.17-7.59 12.96-7.70 12.74-7.88C12.69-7.71 12.62-7.56 12.55-7.42C12.91-6.76 13.23-6.13 13.44-5.59ZM14.25-5.60C14.45-6.12 14.77-6.73 15.14-7.43C15.06-7.56 15-7.71 14.95-7.88C14.73-7.69 14.51-7.58 14.23-7.52Z" fill="currentColor"/>
</svg>