<svg xmlns="http://www.w3.org/2000/svg" viewBox="0 0 24 24" width="24" height="24">
  
  <path transform="matrix(0.48873615883925164, 0, 0, 0.48873615883925164, 0.5395189003436425, 16.3721363115693)" d="M19.96-18.07L30-18.07C30.88-18.07 31.34-18.63 31.34-19.52L31.34-21.09C31.34-22.73 30.54-23.52 28.70-23.52L27.41-23.52C25.80-23.52 24.70-23.21 22.86-22.14L19.80-20.12C19.15-19.72 18.93-19.43 18.93-19.01C18.93-18.40 19.24-18.07 19.96-18.07ZM35.98 5.43C36.25 5.70 36.70 5.70 36.96 5.43C37.24 5.13 37.24 4.71 36.96 4.44L11.41-21.11C11.14-21.39 10.71-21.39 10.42-21.11C10.15-20.84 10.14-20.39 10.42-20.12ZM41.37-11.06L32.19-11.06L31.91-13.41C31.68-15.36 30.55-16.38 28.59-16.38L24.19-16.38C21.82-16.38 20.19-16.17 18.66-15.59L30.11-4.11C30.67-5.65 32.14-6.71 33.89-6.71C36.28-6.71 38.07-4.86 38.07-2.53C38.07-2.19 38.05-1.92 37.96-1.61L41.37-1.61C42.98-1.61 43.91-2.55 43.91-4.22L43.91-8.44C43.91-10.11 42.98-11.06 41.37-11.06ZM15.16-13.68L11.85-11.60L7.80-11.02C4.52-10.55 2.99-9.12 2.99-6.57L2.99-4.22C2.99-2.55 3.91-1.61 5.53-1.61L6.96-1.61C6.89-1.95 6.86-2.21 6.86-2.55C6.86-4.93 8.73-6.71 11.04-6.71C13.43-6.71 15.22-4.86 15.22-2.53C15.22-2.21 15.19-1.95 15.11-1.61L27.23-1.61ZM11.04 0.45C12.70 0.45 14.02-0.87 14.02-2.53C14.02-4.20 12.70-5.51 11.04-5.51C9.38-5.51 8.06-4.20 8.06-2.53C8.06-0.87 9.38 0.45 11.04 0.45ZM34.51 0.27C35.91 0.06 36.87-1.13 36.87-2.53C36.87-4.20 35.55-5.51 33.89-5.51C32.48-5.51 31.30-4.52 31.09-3.15Z" fill="currentColor"/>
</svg>