<svg xmlns="http://www.w3.org/2000/svg" viewBox="0 0 24 24" width="24" height="24">
  
  <path transform="matrix(0.5254511828505618, 0, 0, 0.5254511828505618, 0.42981843524783603, 16.467675633857745)" d="M7.57-0.06L9.16-0.97C10.14-0.09 11.58 0.09 12.79-0.60C14.00-1.30 14.55-2.65 14.27-3.93L26.39-10.92C27.36-10.04 28.80-9.86 30.01-10.55C31.23-11.25 31.79-12.60 31.51-13.88L34.59-15.66C35.81-16.36 36.11-17.48 35.38-18.74L33.47-22.03C32.75-23.29 31.64-23.60 30.41-22.90L23.46-18.89L22.39-20.33C21.36-21.71 20.06-21.98 18.59-21.14L15.27-19.22C12.61-17.68 11.34-16.46 10.22-14.34L8.05-10.23L5.24-8.03C2.96-6.25 2.44-4.50 3.55-2.58L4.51-0.91C5.23 0.34 6.34 0.66 7.57-0.06ZM5.46-1.62L4.56-3.16C3.79-4.52 4.20-5.72 5.95-7.09L8.96-9.46L11.26-13.78C12.28-15.70 13.39-16.79 15.86-18.20L19.13-20.10C20.03-20.61 20.84-20.44 21.46-19.59L23.12-17.33L30.95-21.86C31.57-22.21 32.12-22.03 32.52-21.34L34.30-18.26C34.70-17.58 34.57-17.00 33.96-16.65L31.04-14.96C30.13-16.32 28.36-16.76 26.92-15.91C25.48-15.08 24.96-13.34 25.69-11.87L13.80-5.02C12.90-6.38 11.13-6.81 9.69-5.98C8.24-5.13 7.72-3.39 8.45-1.92L7.03-1.10C6.41-0.75 5.86-0.93 5.46-1.62ZM29.43-11.57C28.49-11.03 27.34-11.33 26.80-12.27C26.26-13.21 26.57-14.37 27.50-14.91C28.44-15.45 29.59-15.14 30.14-14.20C30.68-13.27 30.36-12.11 29.43-11.57ZM6.62 5.88C6.83 6.25 7.28 6.36 7.62 6.16L39.97-12.49C40.30-12.68 40.43-13.10 40.24-13.45C40.02-13.82 39.57-13.93 39.23-13.73L6.89 4.92C6.55 5.11 6.43 5.55 6.62 5.88ZM12.20-1.62C11.26-1.08 10.11-1.38 9.57-2.32C9.02-3.26 9.34-4.42 10.28-4.96C11.21-5.50 12.36-5.19 12.90-4.25C13.44-3.32 13.14-2.16 12.20-1.62ZM39.07 5.58C39.83 5.58 40.35 5.18 40.68 4.61C40.88 4.27 41.05 3.71 41.05 3.36C41.05 3.05 40.84 2.86 40.54 2.86C40.29 2.86 40.11 3.04 40.05 3.29C39.91 4.03 39.71 4.59 39.05 4.59C38.19 4.59 37.88 3.28 37.88 1.76C37.88-0.01 38.32-1.08 39.05-1.08C39.66-1.08 39.93-0.46 40.03 0.23C40.08 0.53 40.28 0.70 40.57 0.70C40.86 0.70 41.03 0.48 41.03 0.19C41.03-0.22 40.83-0.87 40.50-1.28C40.15-1.76 39.63-2.04 39.04-2.04C38.02-2.04 37.43-1.34 37.11-0.50C36.84 0.18 36.77 0.95 36.77 1.76C36.77 2.71 36.87 3.67 37.30 4.46C37.69 5.16 38.25 5.58 39.07 5.58ZM26.99 5.51C27.32 5.51 27.54 5.29 27.54 4.95L27.54 2.16L29.61 2.16L29.61 4.95C29.61 5.29 29.84 5.51 30.18 5.51C30.50 5.51 30.73 5.29 30.73 4.95L30.73-1.42C30.73-1.76 30.50-1.97 30.18-1.97C29.84-1.97 29.61-1.76 29.61-1.42L29.61 1.22L27.54 1.22L27.54-1.42C27.54-1.76 27.32-1.97 26.99-1.97C26.66-1.97 26.45-1.76 26.45-1.42L26.45 4.95C26.45 5.29 26.66 5.51 26.99 5.51ZM32.30 5.51L33.57 5.51C35.45 5.51 36.06 3.62 36.06 1.75C36.06-0.26 35.37-1.97 33.57-1.97L32.30-1.97C31.98-1.97 31.76-1.78 31.76-1.41L31.76 4.93C31.76 5.31 31.98 5.51 32.30 5.51ZM32.84 4.57L32.84-1.04L33.45-1.04C34.69-1.04 34.93 0.52 34.93 1.76C34.93 3 34.70 4.57 33.45 4.57Z" fill="currentColor"/>
</svg>