<svg xmlns="http://www.w3.org/2000/svg" viewBox="0 0 24 24" width="24" height="24">
  <title>tshirt</title>
  <path transform="matrix(0.6607436682178706, 0, 0, 0.6607436682178706, 0.024896786544232663, 17.563014121518943)" d="M12.26 4.05L24 4.05C25.93 4.05 27.06 2.95 27.08 1.03L27.23-10.51L30.22-9.83C31.22-9.60 31.84-10.01 32.11-11.03L33.18-15C33.45-16.02 33.05-16.73 32.07-17.16L23.96-20.73C23.44-20.96 23.07-20.93 22.65-20.73C21.23-20.04 19.83-19.64 18.13-19.64C16.43-19.64 15.01-20.04 13.61-20.73C13.18-20.93 12.82-20.96 12.29-20.73L4.18-17.16C3.21-16.73 2.80-16.02 3.07-15L4.14-11.03C4.41-10.01 5.04-9.60 6.02-9.83L9.02-10.51L9.16 1.03C9.20 2.95 10.31 4.05 12.26 4.05ZM12.27 2.65C11.18 2.65 10.58 2.06 10.56 0.96L10.42-11.73C10.42-12.02 10.20-12.19 9.89-12.13L5.96-11.26C5.68-11.19 5.51-11.31 5.44-11.55L4.45-15.22C4.36-15.57 4.45-15.73 4.77-15.87L12.67-19.34C13.14-16.73 15.48-14.86 18.13-14.86C20.78-14.86 23.11-16.73 23.59-19.34L31.49-15.87C31.80-15.73 31.90-15.57 31.80-15.22L30.81-11.55C30.74-11.31 30.56-11.19 30.28-11.26L26.37-12.13C26.05-12.19 25.84-12.02 25.84-11.73L25.69 0.96C25.68 2.06 25.08 2.65 23.98 2.65ZM18.13-18.32C19.51-18.32 20.82-18.59 22.09-19.11C21.52-17.43 19.91-16.25 18.13-16.25C16.35-16.25 14.73-17.43 14.16-19.11C15.43-18.59 16.73-18.32 18.13-18.32Z" fill="currentColor"/>
</svg>