<svg xmlns="http://www.w3.org/2000/svg" viewBox="0 0 24 24" width="24" height="24">
  <title>tshirt.circle.fill</title>
  <path transform="matrix(0.8507809903622466, 0, 0, 0.8507809903622466, 0.21535393818544368, 19.19840478564307)" d="M13.85 3.29C20.33 3.29 25.61-1.98 25.61-8.46C25.61-14.94 20.33-20.21 13.85-20.21C7.37-20.21 2.10-14.94 2.10-8.46C2.10-1.98 7.37 3.29 13.85 3.29ZM10.88-2.09C9.84-2.09 9.34-2.57 9.33-3.59L9.25-9.45L7.71-9.09C7.23-8.99 6.91-9.19 6.80-9.68L6.25-11.68C6.12-12.18 6.32-12.54 6.79-12.74L10.93-14.57C11.14-14.66 11.33-14.65 11.52-14.55C12.23-14.20 12.97-14.00 13.83-14.00C14.68-14.00 15.43-14.20 16.15-14.55C16.34-14.65 16.51-14.66 16.73-14.57L20.87-12.74C21.34-12.54 21.55-12.18 21.42-11.68L20.87-9.68C20.74-9.19 20.43-8.99 19.95-9.09L18.41-9.45L18.33-3.59C18.32-2.57 17.81-2.09 16.79-2.09ZM13.83-12.36C14.72-12.36 15.46-12.80 15.71-13.54C15.12-13.32 14.46-13.23 13.83-13.23C13.20-13.23 12.54-13.32 11.94-13.54C12.20-12.79 12.95-12.36 13.83-12.36Z" fill="currentColor"/>
</svg>