<svg xmlns="http://www.w3.org/2000/svg" viewBox="0 0 24 24" width="24" height="24">
  <title>turkishlirasign.bank.building</title>
  <path transform="matrix(0.78902758514409, 0, 0, 0.78902758514409, -0.35783633841886253, 18.675913083680076)" d="M4.34 1.43L26.99 1.43L26.99 0.79C26.99 0.43 26.78 0.22 26.41 0.22L25.66 0.22L25.66-13.11L26.74-13.11C27.23-13.11 27.52-13.46 27.52-13.84C27.52-14.10 27.38-14.34 27.05-14.53L16.99-20.33C16.56-20.58 16.10-20.71 15.66-20.71C15.22-20.71 14.75-20.58 14.33-20.33L4.28-14.53C3.95-14.34 3.81-14.10 3.81-13.84C3.81-13.46 4.08-13.11 4.58-13.11L5.66-13.11L5.66 0.22L4.91 0.22C4.56 0.22 4.34 0.43 4.34 0.79ZM7.03 0.22L7.03-14.43L15.11-18.98C15.27-19.08 15.47-19.14 15.66-19.14C15.86-19.14 16.04-19.08 16.22-18.98L24.29-14.43L24.29 0.22ZM14.26-3.45L14.40-3.45C15.81-3.45 17.17-3.97 18.07-4.84C18.83-5.60 19.39-6.62 19.39-7.65C19.39-7.97 19.22-8.19 18.88-8.19C18.55-8.19 18.38-7.99 18.34-7.68C18.27-6.87 17.91-6.15 17.37-5.61C16.68-4.89 15.68-4.52 14.66-4.52L14.66-8.36L17.17-9.40C17.33-9.47 17.41-9.57 17.41-9.71C17.41-9.93 17.27-10.05 17.09-10.05C17.03-10.05 16.97-10.03 16.90-10.01L14.66-9.07L14.66-10.59L17.17-11.64C17.34-11.71 17.43-11.82 17.43-11.98C17.43-12.12 17.33-12.30 17.11-12.30C17.04-12.30 16.98-12.28 16.90-12.25L14.66-11.32L14.66-13.13C14.66-13.46 14.44-13.70 14.11-13.70C13.77-13.70 13.54-13.46 13.54-13.13L13.54-10.86L12.04-10.23C11.87-10.17 11.80-10.07 11.80-9.91C11.80-9.73 11.94-9.59 12.13-9.59C12.18-9.59 12.25-9.60 12.32-9.63L13.54-10.14L13.54-8.61L12.04-7.99C11.87-7.92 11.80-7.83 11.80-7.66C11.80-7.49 11.94-7.35 12.13-7.35C12.18-7.35 12.26-7.36 12.33-7.38L13.54-7.90L13.54-4.15C13.54-3.73 13.84-3.45 14.26-3.45ZM3.71 3.79L27.61 3.79C28.01 3.79 28.34 3.46 28.34 3.06C28.34 2.66 28.01 2.33 27.61 2.33L3.71 2.33C3.32 2.33 2.99 2.66 2.99 3.06C2.99 3.46 3.32 3.79 3.71 3.79Z" fill="currentColor"/>
</svg>