<svg xmlns="http://www.w3.org/2000/svg" viewBox="0 0 24 24" width="24" height="24">
  <title>waveform.path.ecg</title>
  <path transform="matrix(0.8494041467318432, 0, 0, 0.8494041467318432, 0.1946095544066475, 18.684080678091007)" d="M3.05-6.38L8.20-6.38C8.65-6.38 8.92-6.56 9-6.97L10.95-15.74L14.19 3.40C14.30 4.08 15.32 4.07 15.46 3.40L18.61-10.97L19.48-7.03C19.57-6.59 19.83-6.38 20.29-6.38L24.75-6.38C25.11-6.38 25.41-6.66 25.41-7.01C25.41-7.38 25.13-7.66 24.75-7.66L20.58-7.66L19.17-13.71C19.02-14.36 18.09-14.36 17.94-13.69L14.82 0.11L11.58-19.14C11.47-19.80 10.51-19.82 10.37-19.14L7.85-7.66L3.05-7.66C2.68-7.66 2.39-7.37 2.39-7.01C2.39-6.66 2.68-6.38 3.05-6.38Z" fill="currentColor"/>
</svg>