<svg xmlns="http://www.w3.org/2000/svg" viewBox="0 0 24 24" width="24" height="24">
  
  <path transform="matrix(0.9423891036259894, 0, 0, 0.9423891036259894, -0.8161236885698511, 19.967973495306463)" d="M6.45 2.16L20.75 2.16C23.04 2.16 24.21 0.98 24.21-1.27L24.21-15.64C24.21-17.89 23.04-19.07 20.75-19.07L6.45-19.07C4.16-19.07 2.99-17.91 2.99-15.64L2.99-1.27C2.99 1.00 4.16 2.16 6.45 2.16ZM6.47 0.70C5.16 0.70 4.44 0.01 4.44-1.35L4.44-15.56C4.44-16.92 5.16-17.61 6.47-17.61L20.72-17.61C22.02-17.61 22.76-16.92 22.76-15.56L22.76-1.35C22.76 0.01 22.02 0.70 20.72 0.70ZM6.94-9.36C7.07-9.20 7.30-9.21 7.45-9.38C9.04-11.06 11.18-11.98 13.61-11.98C16.02-11.98 18.20-11.09 19.77-9.36C19.91-9.21 20.13-9.21 20.27-9.36L21.13-10.23C21.26-10.36 21.26-10.54 21.15-10.68C19.55-12.64 16.56-13.98 13.61-13.98C10.65-13.98 7.65-12.64 6.06-10.68C5.94-10.54 5.96-10.36 6.08-10.23ZM9.69-6.59C9.84-6.43 10.04-6.45 10.22-6.61C11.04-7.52 12.34-8.11 13.61-8.10C14.86-8.11 16.17-7.52 17.00-6.61C17.16-6.43 17.37-6.43 17.51-6.59L18.48-7.56C18.61-7.69 18.62-7.86 18.50-7.99C17.46-9.28 15.55-10.11 13.61-10.11C11.65-10.11 9.75-9.27 8.70-7.99C8.59-7.86 8.59-7.69 8.73-7.56ZM13.61-2.94C13.76-2.94 13.86-3.01 14.13-3.26L15.73-4.80C15.84-4.91 15.87-5.07 15.76-5.21C15.33-5.80 14.46-6.23 13.61-6.23C12.74-6.23 11.88-5.80 11.43-5.18C11.34-5.05 11.37-4.91 11.48-4.80L13.08-3.26C13.34-3.02 13.45-2.94 13.61-2.94Z" fill="currentColor"/>
</svg>