<svg xmlns="http://www.w3.org/2000/svg" viewBox="0 0 24 24" width="24" height="24">
  
  <path transform="matrix(0.7225515100197573, 0, 0, 0.7225515100197573, -0.1591871295512277, 18.074699975025105)" d="M29.25-18.62C29.61-18.84 29.73-19.32 29.39-19.72C28.58-20.74 27.52-21.52 26.37-21.88C25.83-22.07 25.38-21.86 25.30-21.41C25.21-21.01 25.45-20.67 25.84-20.52C26.77-20.23 27.59-19.63 28.24-18.82C28.52-18.49 28.91-18.41 29.25-18.62ZM4.41-18.62C4.75-18.41 5.13-18.49 5.41-18.82C6.07-19.63 6.89-20.23 7.80-20.52C8.20-20.67 8.45-21.01 8.36-21.41C8.27-21.86 7.83-22.07 7.29-21.88C6.14-21.52 5.07-20.74 4.25-19.72C3.93-19.32 4.04-18.84 4.41-18.62ZM15.43-18.64C15.80-18.87 15.88-19.32 15.56-19.73C14.75-20.75 13.68-21.52 12.54-21.87C11.96-22.07 11.55-21.82 11.46-21.39C11.40-21.01 11.61-20.67 12.01-20.52C12.93-20.23 13.76-19.63 14.40-18.83C14.70-18.48 15.08-18.43 15.43-18.64ZM18.22-18.64C18.56-18.43 18.96-18.48 19.25-18.83C19.90-19.63 20.72-20.23 21.64-20.52C22.04-20.67 22.25-21.01 22.20-21.39C22.10-21.82 21.69-22.07 21.12-21.87C19.98-21.52 18.90-20.75 18.09-19.73C17.78-19.32 17.86-18.87 18.22-18.64ZM6.38-0.81L13.85-0.81L15 1.16C14.63 1.58 14.40 2.14 14.40 2.74C14.40 4.07 15.47 5.13 16.78 5.13C18.08 5.13 19.17 4.05 19.17 2.74C19.17 1.44 18.09 0.35 16.78 0.35C16.61 0.35 16.43 0.38 16.27 0.42L15.54-0.81L27.28-0.81C29.52-0.81 30.67-1.96 30.67-4.16L30.67-12.42C30.67-14.63 29.52-15.77 27.28-15.77L19.10-15.77L19.10-14.33L27.26-14.33C28.51-14.33 29.21-13.66 29.21-12.34L29.21-4.24C29.21-2.93 28.51-2.26 27.26-2.26L14.68-2.26L7.58-14.33L14.55-14.33L14.55-15.77L6.73-15.77L6.05-16.92C5.86-17.25 5.46-17.40 5.04-17.20C4.68-16.99 4.59-16.54 4.79-16.20L5.13-15.63C3.71-15.26 2.99-14.18 2.99-12.42L2.99-4.16C2.99-1.95 4.15-0.81 6.38-0.81ZM16.83-12.89C17.21-12.89 17.55-13.22 17.55-13.62L17.55-16.52C17.55-16.92 17.21-17.26 16.83-17.26C16.43-17.26 16.10-16.92 16.10-16.52L16.10-13.62C16.10-13.22 16.43-12.89 16.83-12.89ZM6.40-2.26C5.12-2.26 4.44-2.93 4.44-4.24L4.44-12.34C4.44-13.48 4.95-14.13 5.92-14.29L13.00-2.26ZM16.83-6.76C17.21-6.76 17.55-7.09 17.55-7.49L17.55-10.41C17.55-10.80 17.21-11.13 16.83-11.13C16.43-11.13 16.10-10.80 16.10-10.41L16.10-7.49C16.10-7.09 16.43-6.76 16.83-6.76ZM16.78 3.90C16.14 3.90 15.63 3.39 15.63 2.74C15.63 2.11 16.14 1.58 16.78 1.58C17.41 1.58 17.94 2.12 17.94 2.74C17.94 3.39 17.41 3.90 16.78 3.90Z" fill="currentColor"/>
</svg>