<svg xmlns="http://www.w3.org/2000/svg" viewBox="0 0 24 24" width="24" height="24">
  <title>wind.snow</title>
  <path transform="matrix(0.8360275627837106, 0, 0, 0.8360275627837106, -0.5041638091505831, 19.930831782110317)" d="M23.45-16.44C23.67-16.44 23.84-16.65 23.82-16.89L23.77-17.95L24.67-17.37C24.86-17.25 25.13-17.29 25.24-17.48C25.37-17.68 25.28-17.94 25.04-18.05L24.09-18.54L25.05-19.04C25.27-19.15 25.37-19.38 25.24-19.61C25.14-19.80 24.87-19.84 24.66-19.71L23.77-19.13L23.82-20.18C23.85-20.43 23.68-20.64 23.45-20.64C23.19-20.64 23.04-20.44 23.05-20.19L23.11-19.11L22.20-19.71C22.00-19.84 21.74-19.82 21.62-19.61C21.50-19.38 21.60-19.15 21.81-19.04L22.76-18.54L21.82-18.06C21.60-17.95 21.49-17.71 21.62-17.48C21.73-17.29 22.00-17.25 22.20-17.38L23.11-17.96L23.06-16.89C23.05-16.64 23.20-16.44 23.45-16.44ZM3.84-11.81C5.48-12.41 7.25-12.71 8.95-12.71C11.25-12.71 12.81-12.33 14.96-12.33C16.95-12.33 18.22-13.68 18.22-15.46C18.22-17.25 16.86-18.57 15.13-18.57C13.75-18.57 12.60-17.67 12.20-16.50C12.06-16.18 12.15-15.83 12.49-15.69C12.79-15.57 13.11-15.68 13.29-16.05C13.52-16.78 14.25-17.38 15.13-17.38C16.21-17.38 17.03-16.58 17.03-15.46C17.03-14.31 16.21-13.54 14.96-13.54C12.87-13.54 11.33-13.92 8.95-13.92C7.05-13.92 5.14-13.55 3.45-12.94C3.07-12.82 2.93-12.49 3.02-12.18C3.13-11.86 3.43-11.68 3.84-11.81ZM22.38-6.50C25.09-6.50 26.92-8.17 26.92-10.50C26.92-12.76 25.17-14.47 22.97-14.47C20.88-14.47 19.34-12.96 19.10-11.04C19.04-10.66 19.28-10.36 19.61-10.32C19.95-10.28 20.24-10.50 20.30-10.91C20.47-12.26 21.57-13.27 22.97-13.27C24.50-13.27 25.71-12.09 25.71-10.50C25.71-8.85 24.42-7.71 22.38-7.71C18.74-7.71 14.87-9.74 10.14-9.74C7.69-9.74 5.52-9.32 3.45-8.55C3.08-8.43 2.93-8.10 3.02-7.78C3.13-7.46 3.45-7.28 3.83-7.42C5.75-8.23 7.78-8.54 10.14-8.54C14.81-8.54 18.43-6.50 22.38-6.50ZM14.99 1.66C16.70 1.66 18.02 0.39 18.02-1.42C18.02-4.08 15.25-5.57 10.18-5.57C7.92-5.57 5.47-5.10 3.46-4.38C3.08-4.25 2.93-3.93 3.02-3.61C3.13-3.29 3.45-3.11 3.83-3.25C5.75-3.96 8.00-4.36 10.18-4.36C14.48-4.36 16.82-3.25 16.82-1.42C16.82-0.28 16.01 0.47 14.99 0.47C13.99 0.47 13.32-0.19 13.16-1.25C13.11-1.59 12.86-1.88 12.47-1.85C12.06-1.83 11.88-1.48 11.93-1.10C12.14 0.50 13.31 1.66 14.99 1.66ZM23.45-0.04C23.67-0.04 23.84-0.25 23.82-0.48L23.77-1.55L24.67-0.96C24.86-0.84 25.13-0.88 25.24-1.08C25.37-1.28 25.28-1.54 25.04-1.64L24.09-2.13L25.05-2.64C25.27-2.74 25.37-2.98 25.24-3.20C25.14-3.40 24.87-3.45 24.66-3.30L23.77-2.72L23.82-3.79C23.85-4.02 23.68-4.23 23.45-4.23C23.19-4.23 23.04-4.03 23.05-3.79L23.11-2.71L22.20-3.30C22.00-3.43 21.74-3.41 21.62-3.20C21.50-2.98 21.60-2.74 21.81-2.64L22.76-2.13L21.82-1.65C21.60-1.55 21.49-1.30 21.62-1.08C21.73-0.88 22.00-0.84 22.20-0.97L23.11-1.56L23.06-0.48C23.05-0.23 23.20-0.04 23.45-0.04Z" fill="currentColor"/>
</svg>