<svg xmlns="http://www.w3.org/2000/svg" viewBox="0 0 24 24" width="24" height="24">
  
  <path transform="matrix(0.7764634516226873, 0, 0, 0.7764634516226873, -0.32029117379435856, 18.57415832575068)" d="M2.99-8.63C2.99-8.27 3.26-8.02 3.61-8.02L6.55-8.02L8.55 1.20C8.67 1.78 9.11 2.13 9.73 2.13C10.30 2.13 10.73 1.80 10.90 1.23L13.54-8.02L18.16-8.02L20.81 1.23C20.96 1.80 21.40 2.13 21.97 2.13C22.59 2.13 23.03 1.78 23.14 1.21L25.15-8.02L28.13-8.02C28.48-8.02 28.75-8.29 28.75-8.63C28.75-8.98 28.48-9.23 28.13-9.23L25.42-9.23L27.27-17.78C27.30-17.94 27.33-18.08 27.33-18.26C27.33-18.76 26.93-19.07 26.45-19.07C25.98-19.07 25.64-18.80 25.56-18.33L23.73-9.23L19.32-9.23L16.78-18.23C16.65-18.71 16.34-18.97 15.87-18.97C15.36-18.97 15.05-18.70 14.92-18.20L12.38-9.23L7.97-9.23L6.12-18.36C6.04-18.83 5.70-19.07 5.26-19.07C4.76-19.07 4.37-18.76 4.37-18.28C4.37-18.14 4.39-17.92 4.43-17.74L6.28-9.23L3.61-9.23C3.26-9.23 2.99-8.98 2.99-8.63ZM15.79-15.90L15.91-15.90L17.81-9.23L13.89-9.23ZM9.75-0.41L8.21-8.02L12.02-8.02L9.87-0.41ZM21.82-0.41L19.68-8.02L23.48-8.02L21.94-0.41Z" fill="currentColor"/>
</svg>