<svg xmlns="http://www.w3.org/2000/svg" viewBox="0 0 24 24" width="24" height="24">
  <title>wonsign.circle</title>
  <path transform="matrix(0.8507809903622466, 0, 0, 0.8507809903622466, 0.21535393818544368, 19.19840478564307)" d="M13.85 3.29C20.34 3.29 25.61-1.97 25.61-8.46C25.61-14.95 20.34-20.21 13.85-20.21C7.36-20.21 2.10-14.95 2.10-8.46C2.10-1.97 7.36 3.29 13.85 3.29ZM13.85 1.77C8.19 1.77 3.62-2.80 3.62-8.46C3.62-14.12 8.19-18.70 13.85-18.70C19.51-18.70 24.09-14.12 24.09-8.46C24.09-2.80 19.51 1.77 13.85 1.77ZM7.39-8.51C7.39-8.32 7.55-8.17 7.75-8.17L9.20-8.17L10.11-3.80C10.18-3.42 10.45-3.19 10.86-3.19C11.21-3.19 11.48-3.41 11.59-3.77L12.80-8.17L14.89-8.17L16.09-3.77C16.20-3.39 16.45-3.19 16.84-3.19C17.24-3.19 17.51-3.40 17.58-3.80L18.50-8.17L19.95-8.17C20.14-8.17 20.30-8.32 20.30-8.51C20.30-8.71 20.14-8.85 19.95-8.85L18.64-8.85L19.49-12.90C19.51-12.98 19.51-13.09 19.51-13.17C19.51-13.52 19.25-13.69 18.96-13.69C18.73-13.69 18.48-13.55 18.41-13.23L17.59-8.85L15.61-8.85L14.44-13.17C14.36-13.49 14.18-13.66 13.85-13.66C13.55-13.66 13.35-13.48 13.27-13.16L12.08-8.85L10.10-8.85L9.28-13.23C9.22-13.51 9-13.69 8.72-13.69C8.41-13.69 8.17-13.51 8.17-13.18C8.17-13.13 8.18-13.01 8.20-12.88L9.05-8.85L7.75-8.85C7.55-8.85 7.39-8.71 7.39-8.51ZM13.80-11.84L13.89-11.84L14.71-8.85L12.98-8.85ZM10.89-4.70L10.23-8.17L11.89-8.17L10.95-4.70ZM16.73-4.70L15.80-8.17L17.46-8.17L16.80-4.70Z" fill="currentColor"/>
</svg>