<svg xmlns="http://www.w3.org/2000/svg" viewBox="0 0 24 24" width="24" height="24">
  
  <path transform="matrix(0.7763257716771778, 0, 0, 0.7763257716771778, 2.1218147135003904, 18.568443833799872)" d="M0.53-10.62C-0.15-10.62-0.35-10.15 0.05-9.60L2.60-5.95C2.93-5.50 3.39-5.50 3.70-5.95L6.26-9.60C6.64-10.15 6.45-10.62 5.78-10.62L3.84-10.62C4.83-15.25 8.93-18.70 13.85-18.70C19.51-18.70 24.08-14.12 24.08-8.46C24.08-2.80 19.51 1.77 13.85 1.77C10.29 1.77 7.16-0.05 5.36-2.80C5.09-3.16 4.65-3.28 4.28-3.06C3.93-2.85 3.82-2.33 4.11-1.93C6.21 1.22 9.77 3.29 13.85 3.29C20.34 3.29 25.61-1.97 25.61-8.46C25.61-14.95 20.34-20.21 13.85-20.21C8.10-20.21 3.32-16.09 2.30-10.62ZM7.41-8.51C7.41-8.32 7.55-8.17 7.75-8.17L9.20-8.17L10.11-3.80C10.20-3.42 10.46-3.19 10.86-3.19C11.23-3.19 11.50-3.41 11.60-3.77L12.81-8.17L14.89-8.17L16.10-3.77C16.21-3.39 16.46-3.19 16.85-3.19C17.24-3.19 17.52-3.40 17.59-3.80L18.50-8.17L19.96-8.17C20.16-8.17 20.31-8.32 20.31-8.51C20.31-8.71 20.16-8.85 19.96-8.85L18.64-8.85L19.50-12.90C19.51-12.98 19.52-13.09 19.52-13.17C19.52-13.52 19.25-13.69 18.97-13.69C18.74-13.69 18.48-13.55 18.42-13.23L17.60-8.85L15.62-8.85L14.45-13.17C14.37-13.49 14.19-13.66 13.86-13.66C13.55-13.66 13.36-13.48 13.27-13.16L12.09-8.85L10.11-8.85L9.28-13.23C9.23-13.51 9.01-13.69 8.73-13.69C8.41-13.69 8.18-13.51 8.18-13.18C8.18-13.13 8.18-13.01 8.21-12.88L9.06-8.85L7.75-8.85C7.55-8.85 7.41-8.71 7.41-8.51ZM13.82-11.84L13.89-11.84L14.71-8.85L13.00-8.85ZM10.89-4.70L10.24-8.17L11.91-8.17L10.96-4.70ZM16.75-4.70L15.80-8.17L17.47-8.17L16.82-4.70Z" fill="currentColor"/>
</svg>