<svg xmlns="http://www.w3.org/2000/svg" viewBox="0 0 24 24" width="24" height="24">
  <title>wrench.adjustable.fill</title>
  <path transform="matrix(0.7230438413372928, 0, 0, 0.7230438413372928, 0.29493062259890857, 17.997800898972635)" d="M4.08 4.15C5.94 6.01 8.70 6.07 10.56 3.88C12.19 1.98 15.42-3.42 18.57-6.57C20.66-8.66 22.79-7.50 25.13-8.41L23.10-15.66C22.84-16.56 23.14-17.36 24.27-17.66L28.51-18.80C28.36-19.16 28.03-19.63 27.61-20.05C24.98-22.73 20.60-22.80 17.99-20.32C14.16-16.66 17.16-12.80 14.41-10.05C11.29-6.93 6.70-4.45 4.32-2.34C2.17-0.43 2.18 2.25 4.08 4.15ZM18.47-13.37C18.25-13.31 18.05-13.43 17.98-13.66C17.92-13.85 18.05-14.09 18.26-14.14L20.89-14.86C21.11-14.91 21.33-14.79 21.39-14.57C21.45-14.34 21.32-14.13 21.09-14.07ZM26.17-8.88C26.67-9.15 27.20-9.55 27.76-10.08C29.12-11.34 29.85-13.18 29.67-14.58L25.98-13.58C25.57-13.46 25.22-13.46 24.87-13.54ZM18.81-12C18.57-11.94 18.38-12.06 18.30-12.29C18.25-12.48 18.38-12.71 18.59-12.77L21.23-13.49C21.43-13.54 21.66-13.42 21.71-13.20C21.79-12.97 21.64-12.76 21.42-12.70ZM19.14-10.63C18.91-10.57 18.69-10.69 18.64-10.92C18.59-11.13 18.71-11.34 18.93-11.40L21.56-12.11C21.79-12.18 22.00-12.05 22.05-11.84C22.10-11.63 21.97-11.40 21.77-11.34ZM7.28 2.33C6.50 2.33 5.88 1.71 5.88 0.94C5.88 0.18 6.50-0.45 7.28-0.45C8.04-0.45 8.65 0.18 8.65 0.94C8.65 1.71 8.04 2.33 7.28 2.33Z" fill="currentColor"/>
</svg>