<svg xmlns="http://www.w3.org/2000/svg" viewBox="0 0 24 24" width="24" height="24">
  
  <path transform="matrix(0.6951799049558723, 0, 0, 0.6951799049558723, 0.5417515274949085, 18.45213849287169)" d="M24.79 0.59C28.20 0.59 30.87-1.85 30.87-4.93C30.87-7.32 29.52-9.42 27.21-10.29C27.29-15.41 23.65-19.15 19.00-19.15C15.80-19.15 13.59-17.41 12.29-15.30C9.48-16.28 6.36-14.09 6.35-10.86C3.76-10.55 2.10-8.30 2.10-5.50C2.10-2.14 4.99 0.57 8.85 0.57ZM12.93-3.21C12.54-3.21 12.25-3.52 12.25-3.89C12.25-4.08 12.30-4.24 12.45-4.38L15.52-7.44L12.45-10.51C12.30-10.65 12.25-10.82 12.25-10.99C12.25-11.38 12.54-11.66 12.93-11.66C13.11-11.66 13.27-11.59 13.41-11.46L16.48-8.40L19.56-11.46C19.71-11.61 19.85-11.67 20.04-11.67C20.41-11.67 20.72-11.38 20.72-11.02C20.72-10.82 20.66-10.66 20.52-10.52L17.44-7.44L20.51-4.38C20.65-4.25 20.72-4.08 20.72-3.89C20.72-3.52 20.41-3.21 20.03-3.21C19.84-3.21 19.66-3.28 19.52-3.42L16.48-6.48L13.43-3.42C13.29-3.28 13.11-3.21 12.93-3.21Z" fill="currentColor"/>
</svg>