<svg xmlns="http://www.w3.org/2000/svg" viewBox="0 0 24 24" width="24" height="24">
  
  <path transform="matrix(0.7663947756273823, 0, 0, 0.7663947756273823, 0.17178662783921306, 18.483852391041214)" d="M3.61-6.02L13.00 3.36C14.63 4.99 16.27 4.99 17.86 3.39L27.27-6.04C28.88-7.64 28.89-9.28 27.27-10.90L17.88-20.29C16.25-21.91 14.63-21.91 13.02-20.30L3.59-10.89C1.98-9.27 1.99-7.64 3.61-6.02ZM4.65-7.02C3.70-7.95 3.70-8.95 4.65-9.90L13.98-19.23C14.94-20.19 15.93-20.18 16.88-19.24L26.20-9.90C27.14-8.98 27.16-7.96 26.20-7.01L16.88 2.31C15.93 3.27 14.91 3.25 13.99 2.33ZM11.88-3.86L15.43-7.41L18.98-3.86C19.14-3.70 19.30-3.62 19.52-3.62C19.93-3.62 20.26-3.95 20.26-4.36C20.26-4.57 20.19-4.73 20.04-4.89L16.46-8.45L20.04-12.01C20.19-12.16 20.26-12.34 20.26-12.54C20.26-12.95 19.93-13.25 19.52-13.25C19.32-13.25 19.15-13.18 19.01-13.03L15.43-9.47L11.87-13.03C11.72-13.18 11.55-13.25 11.34-13.25C10.93-13.25 10.61-12.95 10.61-12.54C10.61-12.34 10.69-12.16 10.84-12.01L14.40-8.45L10.84-4.89C10.69-4.73 10.61-4.57 10.61-4.36C10.61-3.95 10.93-3.62 11.34-3.62C11.57-3.62 11.74-3.70 11.88-3.86Z" fill="currentColor"/>
</svg>