<svg xmlns="http://www.w3.org/2000/svg" viewBox="0 0 24 24" width="24" height="24">
  
  <path transform="matrix(0.9423891036259894, 0, 0, 0.9423891036259894, -0.8161236885698511, 19.967973495306463)" d="M6.45 2.16L20.75 2.16C23.04 2.16 24.21 0.98 24.21-1.27L24.21-15.64C24.21-17.89 23.04-19.07 20.75-19.07L6.45-19.07C4.16-19.07 2.99-17.91 2.99-15.64L2.99-1.27C2.99 1.00 4.16 2.16 6.45 2.16ZM6.47 0.70C5.16 0.70 4.44 0.01 4.44-1.35L4.44-15.56C4.44-16.92 5.16-17.61 6.47-17.61L20.72-17.61C22.02-17.61 22.76-16.92 22.76-15.56L22.76-1.35C22.76 0.01 22.02 0.70 20.72 0.70ZM10.05-3.86L13.61-7.41L17.16-3.86C17.31-3.70 17.47-3.62 17.70-3.62C18.11-3.62 18.43-3.95 18.43-4.36C18.43-4.57 18.36-4.73 18.21-4.89L14.64-8.45L18.21-12.01C18.36-12.16 18.43-12.34 18.43-12.54C18.43-12.95 18.11-13.25 17.70-13.25C17.50-13.25 17.32-13.18 17.17-13.03L13.61-9.47L10.04-13.03C9.89-13.18 9.73-13.25 9.52-13.25C9.11-13.25 8.78-12.95 8.78-12.54C8.78-12.34 8.86-12.16 9.01-12.01L12.57-8.45L9.01-4.89C8.86-4.73 8.78-4.57 8.78-4.36C8.78-3.95 9.11-3.62 9.52-3.62C9.74-3.62 9.90-3.70 10.05-3.86Z" fill="currentColor"/>
</svg>