<svg xmlns="http://www.w3.org/2000/svg" viewBox="0 0 24 24" width="24" height="24">
  
  <path transform="matrix(0.7176899355200449, 0, 0, 0.7176899355200449, -0.1446593776282592, 18.059714045416317)" d="M4.84-13.80L29.00-13.80C30.21-13.80 30.86-14.54 30.86-15.74L30.86-17.11C30.86-18.30 30.21-19.05 29.00-19.05L4.84-19.05C3.68-19.05 2.99-18.30 2.99-17.11L2.99-15.74C2.99-14.54 3.63-13.80 4.84-13.80ZM10.86 2.17L22.98 2.17C25.17 2.17 26.10 0.98 26.41-1.16L28.13-12.45L5.72-12.45L7.43-1.16C7.76 1.02 8.67 2.17 10.86 2.17ZM13.35-1.15C12.96-1.15 12.63-1.49 12.63-1.88C12.63-2.09 12.74-2.25 12.86-2.38L15.93-5.45L12.86-8.52C12.74-8.64 12.63-8.82 12.63-9.01C12.63-9.41 12.97-9.73 13.36-9.73C13.56-9.73 13.71-9.64 13.85-9.52L16.93-6.43L20.00-9.52C20.14-9.64 20.30-9.73 20.50-9.73C20.88-9.73 21.22-9.41 21.22-9.01C21.22-8.82 21.13-8.65 21-8.52L17.92-5.45L21-2.38C21.13-2.24 21.22-2.09 21.22-1.88C21.22-1.49 20.89-1.15 20.50-1.15C20.30-1.15 20.12-1.25 19.99-1.37L16.93-4.45L13.85-1.37C13.72-1.25 13.56-1.15 13.35-1.15Z" fill="currentColor"/>
</svg>