<svg xmlns="http://www.w3.org/2000/svg" viewBox="0 0 24 24" width="24" height="24">
  
  <path transform="matrix(0.8507809903622466, 0, 0, 0.8507809903622466, 0.21535393818544368, 19.19840478564307)" d="M13.85 3.29C20.33 3.29 25.61-1.98 25.61-8.46C25.61-14.94 20.33-20.21 13.85-20.21C7.37-20.21 2.10-14.94 2.10-8.46C2.10-1.98 7.37 3.29 13.85 3.29ZM13.85-3.02C13.37-3.02 13.11-3.35 13.11-3.86L13.11-7.38L9.59-12.94C9.49-13.09 9.45-13.24 9.45-13.38C9.45-13.75 9.75-14.04 10.15-14.04C10.48-14.04 10.65-13.92 10.85-13.58L13.83-8.84L13.90-8.84L16.88-13.58C17.06-13.92 17.25-14.04 17.57-14.04C17.96-14.04 18.25-13.76 18.25-13.37C18.25-13.23 18.20-13.07 18.12-12.94L14.60-7.39L14.60-3.86C14.60-3.33 14.33-3.02 13.85-3.02Z" fill="currentColor"/>
</svg>