<svg xmlns="http://www.w3.org/2000/svg" viewBox="0 0 24 24" width="24" height="24">
  <title>y.square</title>
  <path transform="matrix(0.9423891036259894, 0, 0, 0.9423891036259894, -0.8161236885698511, 19.967973495306463)" d="M6.45 2.16L20.75 2.16C23.04 2.16 24.21 0.98 24.21-1.27L24.21-15.64C24.21-17.89 23.04-19.07 20.75-19.07L6.45-19.07C4.16-19.07 2.99-17.91 2.99-15.64L2.99-1.27C2.99 1.00 4.16 2.16 6.45 2.16ZM6.47 0.70C5.16 0.70 4.44 0.01 4.44-1.35L4.44-15.56C4.44-16.92 5.16-17.61 6.47-17.61L20.72-17.61C22.02-17.61 22.76-16.92 22.76-15.56L22.76-1.35C22.76 0.01 22.02 0.70 20.72 0.70ZM13.61-3.14C14.06-3.14 14.33-3.45 14.33-3.94L14.33-7.43L17.78-12.86C17.86-12.98 17.91-13.14 17.91-13.28C17.91-13.65 17.64-13.92 17.25-13.92C16.95-13.92 16.77-13.80 16.57-13.48L13.65-8.84L13.58-8.84L10.65-13.48C10.46-13.82 10.29-13.92 9.96-13.92C9.59-13.92 9.29-13.64 9.29-13.29C9.29-13.15 9.34-13.00 9.42-12.86L12.89-7.42L12.89-3.94C12.89-3.46 13.15-3.14 13.61-3.14Z" fill="currentColor"/>
</svg>