<svg xmlns="http://www.w3.org/2000/svg" viewBox="0 0 24 24" width="24" height="24">
  <title>zzz</title>
  <path transform="matrix(0.8366013071895425, 0, 0, 0.8366013071895425, 1.03921568627451, 19.068627450980394)" d="M4.41-9.05L11.88-9.05C12.32-9.05 12.59-9.29 12.59-9.70C12.59-10.10 12.32-10.34 11.88-10.34L5.29-10.34L5.29-10.38L12.15-18.68C12.43-19.02 12.52-19.24 12.52-19.52C12.52-20.05 12.16-20.40 11.52-20.40L4.15-20.40C3.71-20.40 3.46-20.16 3.46-19.76C3.46-19.35 3.71-19.11 4.15-19.11L10.75-19.11L10.75-19.07L3.77-10.64C3.56-10.38 3.49-10.18 3.49-9.90C3.49-9.41 3.84-9.05 4.41-9.05ZM16.10-2.88L22.07-2.88C22.49-2.88 22.75-3.12 22.75-3.53C22.75-3.91 22.49-4.14 22.07-4.14L16.92-4.14L16.92-4.18L22.24-10.61C22.55-10.97 22.65-11.19 22.65-11.46C22.65-11.98 22.31-12.33 21.69-12.33L15.84-12.33C15.42-12.33 15.18-12.09 15.18-11.70C15.18-11.30 15.42-11.07 15.84-11.07L20.96-11.07L20.96-11.03L15.55-4.48C15.32-4.20 15.22-4.00 15.22-3.73C15.22-3.25 15.55-2.88 16.10-2.88ZM7.68 3.50L12.46 3.50C12.84 3.50 13.08 3.27 13.08 2.89C13.08 2.53 12.84 2.32 12.46 2.32L8.45 2.32L8.45 2.27L12.62-2.79C12.90-3.14 13.00-3.38 13.00-3.64C13.00-4.11 12.68-4.42 12.14-4.42L7.41-4.42C7.01-4.42 6.77-4.18 6.77-3.82C6.77-3.45 7.01-3.23 7.41-3.23L11.43-3.23L11.43-3.19L7.14 1.99C6.91 2.27 6.83 2.45 6.83 2.72C6.83 3.16 7.16 3.50 7.68 3.50Z" fill="currentColor"/>
</svg>