<svg xmlns="http://www.w3.org/2000/svg" viewBox="0 0 24 24" width="24" height="24">
  
  <path transform="matrix(0.9141224781289056, 0, 0, 0.9141224781289056, -0.7316550615961437, 19.728976968398502)" d="M6.83 2.48L21.02 2.48C23.55 2.48 24.87 1.18 24.87-1.32L24.87-15.59C24.87-18.08 23.55-19.39 21.02-19.39L6.83-19.39C4.30-19.39 2.99-18.09 2.99-15.59L2.99-1.32C2.99 1.18 4.30 2.48 6.83 2.48ZM6.97 0.19C5.88 0.19 5.29-0.38 5.29-1.51L5.29-15.39C5.29-16.52 5.88-17.10 6.97-17.10L20.88-17.10C21.96-17.10 22.57-16.52 22.57-15.39L22.57-1.51C22.57-0.38 21.96 0.19 20.88 0.19ZM13.92-2.93C16.46-2.93 18.18-5.13 18.18-8.46C18.18-11.80 16.46-14.00 13.92-14.00C11.38-14.00 9.69-11.80 9.69-8.46C9.69-5.13 11.38-2.93 13.92-2.93ZM13.93-4.68C12.68-4.68 11.82-6.13 11.82-8.46C11.82-10.80 12.68-12.25 13.93-12.25C15.19-12.25 16.04-10.80 16.04-8.46C16.04-6.13 15.19-4.68 13.93-4.68Z" fill="currentColor"/>
</svg>