<svg xmlns="http://www.w3.org/2000/svg" viewBox="0 0 24 24" width="24" height="24">
  
  <path transform="matrix(0.8260729267505647, 0, 0, 0.8260729267505647, 0.2671829622458859, 18.989351403678604)" d="M14.20 3.64C20.88 3.64 26.31-1.78 26.31-8.46C26.31-15.14 20.88-20.57 14.20-20.57C7.52-20.57 2.10-15.14 2.10-8.46C2.10-1.78 7.52 3.64 14.20 3.64ZM18.02-3.36C15.61-3.36 14.88-6.04 14.88-8.46C14.88-10.89 15.61-13.57 18.02-13.57C20.45-13.57 21.18-10.89 21.18-8.46C21.18-6.04 20.45-3.36 18.02-3.36ZM10.38-3.36C7.96-3.36 7.23-6.04 7.23-8.46C7.23-10.89 7.96-13.56 10.38-13.56C12.80-13.56 13.52-10.89 13.52-8.46C13.52-6.04 12.80-3.36 10.38-3.36ZM18.02-4.89C18.93-4.89 19.27-6.39 19.27-8.46C19.27-10.54 18.93-12.05 18.02-12.05C17.12-12.05 16.78-10.54 16.78-8.46C16.78-6.39 17.12-4.89 18.02-4.89ZM10.38-4.89C11.29-4.89 11.63-6.39 11.63-8.46C11.63-10.54 11.29-12.04 10.38-12.04C9.48-12.04 9.14-10.54 9.14-8.46C9.14-6.39 9.48-4.89 10.38-4.89Z" fill="currentColor"/>
</svg>