<svg xmlns="http://www.w3.org/2000/svg" viewBox="0 0 24 24" width="24" height="24">
  
  <path transform="matrix(0.9141224781289056, 0, 0, 0.9141224781289056, -0.7316550615961437, 19.728976968398502)" d="M6.83 2.48L21.02 2.48C23.55 2.48 24.87 1.18 24.87-1.32L24.87-15.59C24.87-18.08 23.55-19.39 21.02-19.39L6.83-19.39C4.30-19.39 2.99-18.09 2.99-15.59L2.99-1.32C2.99 1.18 4.30 2.48 6.83 2.48ZM10.34-3.36C7.91-3.36 7.18-6.04 7.18-8.46C7.18-10.89 7.91-13.56 10.34-13.56C12.74-13.56 13.46-10.89 13.46-8.46C13.46-6.04 12.74-3.36 10.34-3.36ZM15.59-3.60C15-3.60 14.71-3.91 14.71-4.36C14.71-4.75 14.92-5.05 15.20-5.39L17.18-7.93C17.84-8.77 18.49-9.71 18.49-10.66C18.49-11.46 18.13-12.08 17.45-12.08C16.80-12.08 16.54-11.59 16.32-10.85C16.18-10.42 15.91-10.23 15.50-10.23C15-10.23 14.72-10.57 14.72-11.05C14.72-12.32 15.91-13.56 17.46-13.56C19.13-13.56 20.26-12.41 20.26-10.75C20.26-9.63 19.80-8.74 18.66-7.31L16.98-5.21L16.98-5.12L19.72-5.12C20.18-5.12 20.45-4.82 20.45-4.36C20.45-3.93 20.18-3.60 19.72-3.60ZM10.34-4.89C11.23-4.89 11.58-6.39 11.58-8.46C11.58-10.54 11.23-12.04 10.34-12.04C9.43-12.04 9.08-10.54 9.08-8.46C9.08-6.39 9.43-4.89 10.34-4.89Z" fill="currentColor"/>
</svg>