<svg xmlns="http://www.w3.org/2000/svg" viewBox="0 0 24 24" width="24" height="24">
  <title>04.square.fill</title>
  <path transform="matrix(0.9141224781289056, 0, 0, 0.9141224781289056, -0.7316550615961437, 19.728976968398502)" d="M6.83 2.48L21.02 2.48C23.55 2.48 24.87 1.18 24.87-1.32L24.87-15.59C24.87-18.08 23.55-19.39 21.02-19.39L6.83-19.39C4.30-19.39 2.99-18.09 2.99-15.59L2.99-1.32C2.99 1.18 4.30 2.48 6.83 2.48ZM10.14-3.36C7.71-3.36 6.98-6.04 6.98-8.46C6.98-10.89 7.71-13.56 10.14-13.56C12.55-13.56 13.28-10.89 13.28-8.46C13.28-6.04 12.55-3.36 10.14-3.36ZM19.04-3.45C18.62-3.45 18.15-3.70 18.15-4.36L18.15-5.46L15.60-5.46C14.96-5.46 14.53-5.87 14.53-6.50C14.53-6.89 14.63-7.24 14.81-7.72L16.76-12.06C17.11-12.89 17.52-13.45 18.50-13.45C19.35-13.45 19.93-12.97 19.93-12.07L19.93-6.95L20.31-6.95C20.81-6.95 21.04-6.63 21.04-6.21C21.04-5.79 20.81-5.46 20.31-5.46L19.93-5.46L19.93-4.36C19.93-3.74 19.55-3.45 19.04-3.45ZM10.14-4.89C11.04-4.89 11.38-6.39 11.38-8.46C11.38-10.54 11.04-12.04 10.14-12.04C9.23-12.04 8.89-10.54 8.89-8.46C8.89-6.39 9.23-4.89 10.14-4.89ZM18.20-6.90L18.20-11.88L18.15-11.88L16.13-6.98L16.13-6.90Z" fill="currentColor"/>
</svg>