<svg xmlns="http://www.w3.org/2000/svg" viewBox="0 0 24 24" width="24" height="24">
  
  <path transform="matrix(0.8260729267505647, 0, 0, 0.8260729267505647, 0.2671829622458859, 18.989351403678604)" d="M14.20 3.64C20.88 3.64 26.31-1.78 26.31-8.46C26.31-15.14 20.88-20.57 14.20-20.57C7.52-20.57 2.10-15.14 2.10-8.46C2.10-1.78 7.52 3.64 14.20 3.64ZM10.28-3.36C7.86-3.36 7.14-6.04 7.14-8.46C7.14-10.89 7.86-13.56 10.28-13.56C12.69-13.56 13.42-10.89 13.42-8.46C13.42-6.04 12.69-3.36 10.28-3.36ZM17.98-3.36C15.50-3.36 14.79-6.11 14.79-8.36C14.79-10.82 15.52-13.54 18-13.54C19.20-13.54 20.24-12.94 20.50-11.87C20.54-11.73 20.57-11.57 20.57-11.43C20.57-11.02 20.34-10.65 19.80-10.65C19.39-10.65 19.16-10.83 18.97-11.21C18.77-11.67 18.46-12.05 17.95-12.05C16.75-12.05 16.56-9.90 16.56-8.51L16.56-8.27L16.61-8.27C16.86-9.27 17.57-9.93 18.54-9.93C20.12-9.93 20.87-8.39 20.87-6.79C20.87-4.91 19.83-3.36 17.98-3.36ZM10.28-4.89C11.18-4.89 11.52-6.39 11.52-8.46C11.52-10.54 11.18-12.04 10.28-12.04C9.38-12.04 9.02-10.54 9.02-8.46C9.02-6.39 9.38-4.89 10.28-4.89ZM17.95-4.86C18.70-4.86 19.07-5.82 19.07-6.70C19.09-7.58 18.75-8.53 17.95-8.53C17.17-8.53 16.79-7.63 16.79-6.74C16.79-5.88 17.12-4.86 17.95-4.86Z" fill="currentColor"/>
</svg>