<svg xmlns="http://www.w3.org/2000/svg" viewBox="0 0 24 24" width="24" height="24">
  
  <path transform="matrix(0.9141224781289056, 0, 0, 0.9141224781289056, -0.7316550615961437, 19.728976968398502)" d="M6.83 2.48L21.02 2.48C23.55 2.48 24.87 1.18 24.87-1.32L24.87-15.59C24.87-18.08 23.55-19.39 21.02-19.39L6.83-19.39C4.30-19.39 2.99-18.09 2.99-15.59L2.99-1.32C2.99 1.18 4.30 2.48 6.83 2.48ZM6.97 0.19C5.88 0.19 5.29-0.38 5.29-1.51L5.29-15.39C5.29-16.52 5.88-17.10 6.97-17.10L20.88-17.10C21.96-17.10 22.57-16.52 22.57-15.39L22.57-1.51C22.57-0.38 21.96 0.19 20.88 0.19ZM10.73-3.55C13.05-3.55 13.76-6.14 13.76-8.46C13.76-10.79 13.05-13.37 10.73-13.37C8.41-13.37 7.71-10.79 7.71-8.46C7.71-6.14 8.41-3.55 10.73-3.55ZM16.42-3.63C16.88-3.63 17.09-3.82 17.24-4.24L19.80-11.17C19.93-11.54 20.02-11.84 20.02-12.20C20.02-12.76 19.59-13.13 19.05-13.13L15.38-13.13C14.94-13.13 14.66-12.82 14.66-12.40C14.66-11.99 14.94-11.68 15.38-11.68L18.21-11.68L18.21-11.57L15.75-5.10C15.64-4.84 15.60-4.68 15.60-4.39C15.60-4.04 15.82-3.63 16.42-3.63ZM10.73-5.02C9.86-5.02 9.53-6.47 9.53-8.46C9.53-10.45 9.86-11.92 10.73-11.92C11.60-11.92 11.94-10.45 11.94-8.46C11.94-6.47 11.60-5.02 10.73-5.02Z" fill="currentColor"/>
</svg>