<svg xmlns="http://www.w3.org/2000/svg" viewBox="0 0 24 24" width="24" height="24">
  
  <path transform="matrix(0.8260729267505647, 0, 0, 0.8260729267505647, 0.2671829622458859, 18.989351403678604)" d="M14.20 3.64C20.88 3.64 26.31-1.78 26.31-8.46C26.31-15.14 20.88-20.57 14.20-20.57C7.52-20.57 2.10-15.14 2.10-8.46C2.10-1.78 7.52 3.64 14.20 3.64ZM14.20 1.25C8.82 1.25 4.48-3.08 4.48-8.46C4.48-13.84 8.82-18.19 14.20-18.19C19.58-18.19 23.93-13.84 23.93-8.46C23.93-3.08 19.58 1.25 14.20 1.25ZM10.61-3.55C12.93-3.55 13.63-6.14 13.63-8.46C13.63-10.79 12.93-13.37 10.61-13.37C8.29-13.37 7.58-10.79 7.58-8.46C7.58-6.14 8.29-3.55 10.61-3.55ZM17.14-7.03C18.08-7.03 18.76-7.66 19.01-8.63L19.05-8.63L19.05-8.40C19.05-7.05 18.87-4.99 17.71-4.99C17.23-4.99 16.91-5.32 16.71-5.80C16.54-6.19 16.29-6.35 15.93-6.35C15.40-6.35 15.19-5.99 15.19-5.59C15.19-5.46 15.21-5.31 15.25-5.17C15.52-4.15 16.51-3.56 17.66-3.56C20.05-3.56 20.74-6.16 20.74-8.54C20.74-10.71 20.05-13.35 17.68-13.35C15.91-13.35 14.89-11.86 14.89-10.05C14.89-8.51 15.62-7.03 17.14-7.03ZM10.61-5.02C9.73-5.02 9.40-6.47 9.40-8.46C9.40-10.45 9.73-11.92 10.61-11.92C11.48-11.92 11.81-10.45 11.81-8.46C11.81-6.47 11.48-5.02 10.61-5.02ZM17.71-8.37C16.93-8.37 16.61-9.27 16.61-10.13C16.61-10.99 16.97-11.92 17.71-11.92C18.50-11.92 18.83-10.98 18.83-10.11C18.83-9.23 18.47-8.37 17.71-8.37Z" fill="currentColor"/>
</svg>