<svg xmlns="http://www.w3.org/2000/svg" viewBox="0 0 24 24" width="24" height="24">
  <title>10.calendar</title>
  <path transform="matrix(0.8398950131233596, 0, 0, 0.8398950131233596, -0.5098425196850394, 19.091535433070867)" d="M6.83 2.50L22.96 2.50C25.49 2.50 26.80 1.18 26.80-1.31L26.80-15.57C26.80-18.08 25.49-19.38 22.96-19.38L6.83-19.38C4.30-19.38 2.99-18.08 2.99-15.57L2.99-1.31C2.99 1.20 4.30 2.50 6.83 2.50ZM6.80 0.20C5.82 0.20 5.29-0.32 5.29-1.34L5.29-12.16C5.29-13.20 5.82-13.70 6.80-13.70L22.97-13.70C23.95-13.70 24.50-13.20 24.50-12.16L24.50-1.34C24.50-0.32 23.95 0.20 22.97 0.20ZM17.57-1.82C19.89-1.82 20.58-4.41 20.58-6.73C20.58-9.06 19.89-11.64 17.57-11.64C15.23-11.64 14.54-9.06 14.54-6.73C14.54-4.41 15.23-1.82 17.57-1.82ZM11.85-1.92C12.34-1.92 12.75-2.33 12.75-2.84L12.75-10.54C12.75-11.18 12.35-11.55 11.71-11.55C11.19-11.55 10.79-11.29 10.49-11.05L9.28-10.11C9.05-9.94 8.88-9.70 8.88-9.39C8.88-8.99 9.16-8.74 9.52-8.74C9.70-8.74 9.82-8.79 9.95-8.89L10.95-9.68L10.95-2.84C10.95-2.33 11.34-1.92 11.85-1.92ZM17.57-3.28C16.69-3.28 16.35-4.73 16.35-6.73C16.35-8.72 16.69-10.18 17.57-10.18C18.43-10.18 18.77-8.72 18.77-6.73C18.77-4.73 18.43-3.28 17.57-3.28Z" fill="currentColor"/>
</svg>