<svg xmlns="http://www.w3.org/2000/svg" viewBox="0 0 24 24" width="24" height="24">
  
  <path transform="matrix(0.9141224781289056, 0, 0, 0.9141224781289056, -0.7316550615961437, 19.728976968398502)" d="M6.83 2.48L21.02 2.48C23.55 2.48 24.87 1.18 24.87-1.32L24.87-15.59C24.87-18.08 23.55-19.39 21.02-19.39L6.83-19.39C4.30-19.39 2.99-18.09 2.99-15.59L2.99-1.32C2.99 1.18 4.30 2.48 6.83 2.48ZM11.58-3.47C11.05-3.47 10.63-3.89 10.63-4.43L10.63-11.52L9.61-10.71C9.47-10.59 9.34-10.54 9.15-10.54C8.78-10.54 8.50-10.80 8.50-11.21C8.50-11.54 8.65-11.80 8.89-11.98L10.16-12.96C10.48-13.20 10.89-13.46 11.43-13.46C12.11-13.46 12.53-13.09 12.53-12.41L12.53-4.43C12.53-3.89 12.09-3.47 11.58-3.47ZM17.16-3.47C16.64-3.47 16.22-3.89 16.22-4.43L16.22-11.52L15.19-10.71C15.06-10.59 14.92-10.54 14.73-10.54C14.37-10.54 14.07-10.80 14.07-11.21C14.07-11.54 14.25-11.80 14.48-11.98L15.74-12.96C16.05-13.20 16.48-13.46 17.02-13.46C17.70-13.46 18.11-13.09 18.11-12.41L18.11-4.43C18.11-3.89 17.68-3.47 17.16-3.47Z" fill="currentColor"/>
</svg>