<svg xmlns="http://www.w3.org/2000/svg" viewBox="0 0 24 24" width="24" height="24">
  
  <path transform="matrix(0.9141224781289056, 0, 0, 0.9141224781289056, -0.7316550615961437, 19.69683985002678)" d="M2.99-0.45C2.99 0.19 3.50 0.70 4.14 0.70C4.77 0.70 5.29 0.19 5.29-0.45L5.29-16.39C5.29-17.03 4.77-17.54 4.14-17.54C3.50-17.54 2.99-17.03 2.99-16.39ZM22.57-0.45C22.57 0.19 23.09 0.70 23.72 0.70C24.34 0.70 24.87 0.19 24.87-0.45L24.87-16.39C24.87-17.03 24.34-17.54 23.72-17.54C23.09-17.54 22.57-17.03 22.57-16.39ZM11.00-3.48C11.59-3.48 11.94-3.89 11.94-4.46L11.94-12C11.94-12.67 11.52-13.04 10.85-13.04C10.32-13.04 9.95-12.81 9.52-12.49L8.23-11.54C7.98-11.36 7.82-11.13 7.82-10.82C7.82-10.43 8.09-10.14 8.47-10.14C8.66-10.14 8.78-10.20 8.93-10.31L10.04-11.14L10.08-11.14L10.08-4.46C10.08-3.88 10.43-3.48 11.00-3.48ZM14.73-3.53L19.18-3.53C19.65-3.53 19.93-3.82 19.93-4.28C19.93-4.73 19.65-5.02 19.18-5.02L16.18-5.02L16.18-5.10L17.93-7.01C18.34-7.46 18.68-7.88 18.94-8.23C19.43-8.87 19.72-9.50 19.72-10.34C19.72-12.05 18.42-13.04 16.76-13.04C15.35-13.04 14.14-12.12 13.91-10.99C13.89-10.88 13.88-10.75 13.88-10.63C13.88-10.15 14.17-9.84 14.65-9.84C15.06-9.84 15.32-10.05 15.47-10.44C15.67-11.14 16.08-11.59 16.75-11.59C17.51-11.59 17.93-11.00 17.93-10.27C17.93-9.69 17.73-9.26 17.40-8.79C17.19-8.51 16.91-8.14 16.55-7.72L14.36-5.29C14.09-5.00 13.85-4.72 13.85-4.30C13.85-3.91 14.06-3.53 14.73-3.53Z" fill="currentColor"/>
</svg>