<svg xmlns="http://www.w3.org/2000/svg" viewBox="0 0 24 24" width="24" height="24">
  <title>12.square.fill</title>
  <path transform="matrix(0.9141224781289056, 0, 0, 0.9141224781289056, -0.7316550615961437, 19.728976968398502)" d="M6.83 2.48L21.02 2.48C23.55 2.48 24.87 1.18 24.87-1.32L24.87-15.59C24.87-18.08 23.55-19.39 21.02-19.39L6.83-19.39C4.30-19.39 2.99-18.09 2.99-15.59L2.99-1.32C2.99 1.18 4.30 2.48 6.83 2.48ZM14.44-3.60C13.85-3.60 13.56-3.91 13.56-4.36C13.56-4.73 13.78-5.04 14.05-5.39L16.04-7.92C16.69-8.77 17.34-9.71 17.34-10.66C17.34-11.46 16.98-12.08 16.30-12.08C15.66-12.08 15.38-11.59 15.18-10.85C15.04-10.42 14.77-10.22 14.34-10.22C13.85-10.22 13.57-10.56 13.57-11.04C13.57-12.32 14.77-13.56 16.31-13.56C17.98-13.56 19.11-12.41 19.11-10.75C19.11-9.63 18.67-8.74 17.51-7.31L15.83-5.21L15.83-5.11L18.57-5.11C19.03-5.11 19.30-4.82 19.30-4.36C19.30-3.93 19.03-3.60 18.57-3.60ZM10.86-3.47C10.32-3.47 9.90-3.89 9.90-4.42L9.90-11.52L8.89-10.70C8.74-10.59 8.63-10.54 8.43-10.54C8.05-10.54 7.77-10.80 7.77-11.21C7.77-11.54 7.93-11.80 8.18-11.98L9.43-12.95C9.75-13.20 10.17-13.46 10.70-13.46C11.38-13.46 11.79-13.09 11.79-12.41L11.79-4.42C11.79-3.89 11.37-3.47 10.86-3.47Z" fill="currentColor"/>
</svg>