<svg xmlns="http://www.w3.org/2000/svg" viewBox="0 0 24 24" width="24" height="24">
  
  <path transform="matrix(0.8398950131233596, 0, 0, 0.8398950131233596, -0.5098425196850394, 19.091535433070867)" d="M6.83 2.50L22.96 2.50C25.49 2.50 26.80 1.18 26.80-1.31L26.80-15.57C26.80-18.08 25.49-19.38 22.96-19.38L6.83-19.38C4.30-19.38 2.99-18.08 2.99-15.57L2.99-1.31C2.99 1.20 4.30 2.50 6.83 2.50ZM6.80 0.20C5.82 0.20 5.29-0.32 5.29-1.34L5.29-12.16C5.29-13.20 5.82-13.70 6.80-13.70L22.97-13.70C23.95-13.70 24.50-13.20 24.50-12.16L24.50-1.34C24.50-0.32 23.95 0.20 22.97 0.20ZM17.32-1.85C19.01-1.85 20.29-2.89 20.29-4.62C20.29-6.01 19.45-6.75 18.47-6.86L18.47-6.90C19.46-7.16 20.00-8.07 20.00-9.07C20.00-10.68 18.82-11.59 17.27-11.59C16.08-11.59 15.02-10.93 14.70-9.89C14.63-9.68 14.60-9.47 14.60-9.27C14.60-8.88 14.86-8.54 15.35-8.54C15.76-8.54 16.03-8.70 16.15-9.12C16.32-9.74 16.66-10.17 17.27-10.17C17.99-10.17 18.32-9.59 18.32-8.87C18.32-8.07 17.89-7.46 17.06-7.46L16.82-7.46C16.38-7.46 16.14-7.22 16.14-6.82C16.14-6.41 16.39-6.18 16.82-6.18L17.07-6.18C18.02-6.18 18.53-5.66 18.53-4.69C18.53-3.94 18.14-3.28 17.32-3.28C16.55-3.28 16.20-3.80 16.05-4.30C15.93-4.70 15.67-4.91 15.27-4.91C14.78-4.91 14.46-4.62 14.46-4.13C14.46-3.91 14.48-3.70 14.54-3.52C14.88-2.44 16.07-1.85 17.32-1.85ZM11.78-1.92C12.27-1.92 12.68-2.33 12.68-2.84L12.68-10.54C12.68-11.18 12.28-11.55 11.64-11.55C11.12-11.55 10.72-11.29 10.42-11.05L9.21-10.11C8.98-9.94 8.81-9.70 8.81-9.39C8.81-8.99 9.09-8.74 9.45-8.74C9.63-8.74 9.75-8.79 9.88-8.89L10.88-9.68L10.88-2.84C10.88-2.33 11.27-1.92 11.78-1.92Z" fill="currentColor"/>
</svg>