<svg xmlns="http://www.w3.org/2000/svg" viewBox="0 0 24 24" width="24" height="24">
  
  <path transform="matrix(0.8260729267505647, 0, 0, 0.8260729267505647, 0.2671829622458859, 18.989351403678604)" d="M14.20 3.64C20.88 3.64 26.31-1.78 26.31-8.46C26.31-15.14 20.88-20.57 14.20-20.57C7.52-20.57 2.10-15.14 2.10-8.46C2.10-1.78 7.52 3.64 14.20 3.64ZM14.20 1.25C8.82 1.25 4.48-3.08 4.48-8.46C4.48-13.84 8.82-18.19 14.20-18.19C19.58-18.19 23.93-13.84 23.93-8.46C23.93-3.08 19.58 1.25 14.20 1.25ZM16.62-3.57C18.30-3.57 19.58-4.62 19.58-6.35C19.58-7.75 18.75-8.47 17.77-8.59L17.77-8.63C18.76-8.89 19.30-9.80 19.30-10.80C19.30-12.41 18.12-13.32 16.57-13.32C15.38-13.32 14.32-12.67 13.98-11.63C13.92-11.41 13.90-11.20 13.90-10.99C13.90-10.61 14.16-10.27 14.65-10.27C15.06-10.27 15.33-10.43 15.45-10.84C15.62-11.47 15.95-11.91 16.57-11.91C17.29-11.91 17.61-11.32 17.61-10.61C17.61-9.81 17.19-9.20 16.36-9.20L16.11-9.20C15.68-9.20 15.43-8.94 15.43-8.54C15.43-8.14 15.69-7.91 16.11-7.91L16.37-7.91C17.31-7.91 17.81-7.38 17.81-6.42C17.81-5.67 17.43-5.00 16.62-5.00C15.84-5.00 15.49-5.53 15.35-6.04C15.22-6.43 14.95-6.64 14.55-6.64C14.07-6.64 13.75-6.35 13.75-5.86C13.75-5.65 13.78-5.44 13.84-5.25C14.18-4.17 15.35-3.57 16.62-3.57ZM11.07-3.66C11.57-3.66 11.98-4.07 11.98-4.57L11.98-12.27C11.98-12.91 11.58-13.28 10.93-13.28C10.42-13.28 10.02-13.02 9.71-12.79L8.51-11.84C8.27-11.67 8.11-11.44 8.11-11.12C8.11-10.71 8.38-10.46 8.74-10.46C8.93-10.46 9.05-10.52 9.18-10.63L10.16-11.41L10.16-4.57C10.16-4.07 10.57-3.66 11.07-3.66Z" fill="currentColor"/>
</svg>