<svg xmlns="http://www.w3.org/2000/svg" viewBox="0 0 24 24" width="24" height="24">
  
  <path transform="matrix(0.8260729267505647, 0, 0, 0.8260729267505647, 0.2671829622458859, 18.989351403678604)" d="M14.20 3.64C20.88 3.64 26.31-1.78 26.31-8.46C26.31-15.14 20.88-20.57 14.20-20.57C7.52-20.57 2.10-15.14 2.10-8.46C2.10-1.78 7.52 3.64 14.20 3.64ZM10.75-3.47C10.21-3.47 9.79-3.89 9.79-4.43L9.79-11.52L8.78-10.71C8.64-10.59 8.51-10.54 8.31-10.54C7.93-10.54 7.65-10.80 7.65-11.21C7.65-11.54 7.83-11.80 8.06-11.98L9.33-12.96C9.64-13.20 10.05-13.46 10.59-13.46C11.26-13.46 11.68-13.09 11.68-12.41L11.68-4.43C11.68-3.89 11.25-3.47 10.75-3.47ZM17.95-3.45C17.52-3.45 17.06-3.70 17.06-4.37L17.06-5.46L14.51-5.46C13.85-5.46 13.44-5.87 13.44-6.50C13.44-6.89 13.51-7.24 13.71-7.72L15.66-12.06C16.02-12.89 16.42-13.45 17.40-13.45C18.26-13.45 18.83-12.97 18.83-12.07L18.83-6.95L19.21-6.95C19.71-6.95 19.93-6.63 19.93-6.21C19.93-5.79 19.71-5.46 19.21-5.46L18.83-5.46L18.83-4.37C18.83-3.74 18.45-3.45 17.95-3.45ZM17.10-6.91L17.10-11.88L17.05-11.88L15.02-6.98L15.02-6.91Z" fill="currentColor"/>
</svg>