<svg xmlns="http://www.w3.org/2000/svg" viewBox="0 0 24 24" width="24" height="24">
  
  <path transform="matrix(0.8260729267505647, 0, 0, 0.8260729267505647, 0.2671829622458859, 18.989351403678604)" d="M14.20 3.64C20.88 3.64 26.31-1.78 26.31-8.46C26.31-15.14 20.88-20.57 14.20-20.57C7.52-20.57 2.10-15.14 2.10-8.46C2.10-1.78 7.52 3.64 14.20 3.64ZM14.20 1.25C8.82 1.25 4.48-3.08 4.48-8.46C4.48-13.84 8.82-18.19 14.20-18.19C19.58-18.19 23.93-13.84 23.93-8.46C23.93-3.08 19.58 1.25 14.20 1.25ZM16.70-3.55C18.48-3.55 19.49-5.04 19.49-6.84C19.49-8.39 18.76-9.88 17.24-9.88C16.30-9.88 15.62-9.23 15.38-8.29L15.33-8.29L15.33-8.50C15.33-9.84 15.52-11.92 16.68-11.92C17.16-11.92 17.47-11.57 17.67-11.11C17.85-10.75 18.07-10.57 18.47-10.57C18.97-10.57 19.18-10.91 19.18-11.31C19.18-11.45 19.16-11.60 19.13-11.74C18.87-12.76 17.87-13.35 16.72-13.35C14.33-13.35 13.64-10.72 13.64-8.36C13.64-6.19 14.33-3.55 16.70-3.55ZM10.92-3.66C11.41-3.66 11.81-4.07 11.81-4.57L11.81-12.27C11.81-12.91 11.41-13.28 10.77-13.28C10.25-13.28 9.86-13.02 9.56-12.79L8.34-11.84C8.11-11.67 7.96-11.44 7.96-11.12C7.96-10.71 8.23-10.46 8.58-10.46C8.77-10.46 8.88-10.52 9.02-10.63L10.01-11.41L10.01-4.57C10.01-4.07 10.42-3.66 10.92-3.66ZM16.68-4.98C15.88-4.98 15.55-5.98 15.55-6.81C15.55-7.65 15.90-8.54 16.66-8.54C17.45-8.54 17.78-7.62 17.77-6.77C17.77-5.92 17.41-4.98 16.68-4.98Z" fill="currentColor"/>
</svg>