<svg xmlns="http://www.w3.org/2000/svg" viewBox="0 0 24 24" width="24" height="24">
  <title>17.square.fill</title>
  <path transform="matrix(0.9141224781289056, 0, 0, 0.9141224781289056, -0.7316550615961437, 19.728976968398502)" d="M6.83 2.48L21.02 2.48C23.55 2.48 24.87 1.18 24.87-1.32L24.87-15.59C24.87-18.08 23.55-19.39 21.02-19.39L6.83-19.39C4.30-19.39 2.99-18.09 2.99-15.59L2.99-1.32C2.99 1.18 4.30 2.48 6.83 2.48ZM11.26-3.47C10.73-3.47 10.31-3.89 10.31-4.43L10.31-11.52L9.28-10.71C9.15-10.59 9.02-10.54 8.82-10.54C8.46-10.54 8.17-10.80 8.17-11.21C8.17-11.54 8.33-11.80 8.58-11.98L9.83-12.96C10.15-13.20 10.57-13.46 11.11-13.46C11.79-13.46 12.20-13.09 12.20-12.41L12.20-4.43C12.20-3.89 11.78-3.47 11.26-3.47ZM15.68-3.45C15.07-3.45 14.84-3.87 14.84-4.24C14.84-4.54 14.88-4.71 14.98-4.98L17.53-11.68L17.53-11.79L14.59-11.79C14.16-11.79 13.85-12.11 13.85-12.56C13.85-12.98 14.14-13.31 14.59-13.31L18.41-13.31C18.98-13.31 19.43-12.93 19.43-12.34C19.43-11.95 19.34-11.65 19.21-11.27L16.55-4.09C16.38-3.63 16.17-3.45 15.68-3.45Z" fill="currentColor"/>
</svg>