<svg xmlns="http://www.w3.org/2000/svg" viewBox="0 0 24 24" width="24" height="24">
  <title>18.calendar</title>
  <path transform="matrix(0.8398950131233596, 0, 0, 0.8398950131233596, -0.5098425196850394, 19.091535433070867)" d="M6.83 2.50L22.96 2.50C25.49 2.50 26.80 1.18 26.80-1.31L26.80-15.57C26.80-18.08 25.49-19.38 22.96-19.38L6.83-19.38C4.30-19.38 2.99-18.08 2.99-15.57L2.99-1.31C2.99 1.20 4.30 2.50 6.83 2.50ZM6.80 0.20C5.82 0.20 5.29-0.32 5.29-1.34L5.29-12.16C5.29-13.20 5.82-13.70 6.80-13.70L22.97-13.70C23.95-13.70 24.50-13.20 24.50-12.16L24.50-1.34C24.50-0.32 23.95 0.20 22.97 0.20ZM17.44-1.84C19.25-1.84 20.47-2.96 20.47-4.58C20.47-5.82 19.70-6.75 18.75-6.96L18.75-7.00C19.55-7.24 20.21-8.00 20.21-9.08C20.21-10.58 19.08-11.60 17.44-11.60C16.00-11.60 14.70-10.72 14.70-9.09C14.70-7.92 15.42-7.23 16.17-7.00L16.17-6.96C15.19-6.74 14.43-5.82 14.43-4.58C14.43-2.87 15.73-1.84 17.44-1.84ZM11.77-1.92C12.26-1.92 12.67-2.33 12.67-2.84L12.67-10.54C12.67-11.18 12.27-11.55 11.63-11.55C11.11-11.55 10.71-11.29 10.41-11.05L9.20-10.11C8.96-9.94 8.80-9.70 8.80-9.39C8.80-8.99 9.07-8.74 9.43-8.74C9.62-8.74 9.74-8.79 9.87-8.89L10.85-9.68L10.85-2.84C10.85-2.33 11.26-1.92 11.77-1.92ZM17.45-7.56C16.77-7.56 16.42-8.21 16.42-8.91C16.42-9.63 16.79-10.29 17.45-10.29C18.13-10.29 18.47-9.63 18.47-8.91C18.47-8.16 18.12-7.56 17.45-7.56ZM17.45-3.16C16.68-3.16 16.29-3.88 16.29-4.71C16.29-5.54 16.69-6.23 17.45-6.23C18.20-6.23 18.61-5.57 18.61-4.71C18.61-3.88 18.22-3.16 17.45-3.16Z" fill="currentColor"/>
</svg>