<svg xmlns="http://www.w3.org/2000/svg" viewBox="0 0 24 24" width="24" height="24">
  
  <path transform="matrix(0.9141224781289056, 0, 0, 0.9141224781289056, -0.7316550615961437, 19.728976968398502)" d="M6.83 2.48L21.02 2.48C23.55 2.48 24.87 1.18 24.87-1.32L24.87-15.59C24.87-18.08 23.55-19.39 21.02-19.39L6.83-19.39C4.30-19.39 2.99-18.09 2.99-15.59L2.99-1.32C2.99 1.18 4.30 2.48 6.83 2.48ZM17.54-3.36C15.13-3.36 14.40-6.04 14.40-8.46C14.40-10.89 15.13-13.56 17.54-13.56C19.96-13.56 20.68-10.89 20.68-8.46C20.68-6.04 19.96-3.36 17.54-3.36ZM8.34-3.60C7.76-3.60 7.46-3.91 7.46-4.36C7.46-4.75 7.68-5.05 7.96-5.39L9.94-7.93C10.59-8.77 11.25-9.71 11.25-10.66C11.25-11.46 10.89-12.08 10.21-12.08C9.55-12.08 9.28-11.59 9.07-10.85C8.93-10.42 8.67-10.23 8.25-10.23C7.76-10.23 7.48-10.57 7.48-11.05C7.48-12.32 8.67-13.56 10.21-13.56C11.88-13.56 13.02-12.41 13.02-10.75C13.02-9.63 12.56-8.74 11.41-7.31L9.74-5.21L9.74-5.12L12.47-5.12C12.93-5.12 13.20-4.82 13.20-4.36C13.20-3.93 12.94-3.60 12.47-3.60ZM17.54-4.89C18.45-4.89 18.79-6.39 18.79-8.46C18.79-10.54 18.45-12.04 17.54-12.04C16.64-12.04 16.29-10.54 16.29-8.46C16.29-6.39 16.64-4.89 17.54-4.89Z" fill="currentColor"/>
</svg>