<svg xmlns="http://www.w3.org/2000/svg" viewBox="0 0 24 24" width="24" height="24">
  <title>26.circle</title>
  <path transform="matrix(0.8260729267505647, 0, 0, 0.8260729267505647, 0.2671829622458859, 18.989351403678604)" d="M14.20 3.64C20.88 3.64 26.31-1.78 26.31-8.46C26.31-15.14 20.88-20.57 14.20-20.57C7.52-20.57 2.10-15.14 2.10-8.46C2.10-1.78 7.52 3.64 14.20 3.64ZM14.20 1.25C8.82 1.25 4.48-3.08 4.48-8.46C4.48-13.84 8.82-18.19 14.20-18.19C19.58-18.19 23.93-13.84 23.93-8.46C23.93-3.08 19.58 1.25 14.20 1.25ZM8.74-3.79L12.71-3.79C13.16-3.79 13.41-4.09 13.41-4.51C13.41-4.95 13.15-5.23 12.71-5.23L10.08-5.23L10.08-5.32L11.70-7.35C12.81-8.73 13.24-9.59 13.24-10.66C13.24-12.26 12.15-13.37 10.54-13.37C9.06-13.37 7.91-12.16 7.91-10.95C7.91-10.49 8.18-10.16 8.65-10.16C9.05-10.16 9.32-10.35 9.45-10.76C9.64-11.47 9.90-11.95 10.54-11.95C11.20-11.95 11.54-11.36 11.54-10.58C11.54-9.68 10.92-8.75 10.29-7.96L8.37-5.50C8.11-5.17 7.90-4.88 7.90-4.51C7.90-4.09 8.18-3.79 8.74-3.79ZM17.65-3.55C19.43-3.55 20.43-5.04 20.43-6.84C20.43-8.39 19.71-9.88 18.19-9.88C17.25-9.88 16.57-9.23 16.32-8.29L16.28-8.29L16.28-8.50C16.28-9.84 16.46-11.92 17.63-11.92C18.11-11.92 18.42-11.57 18.61-11.11C18.80-10.75 19.02-10.57 19.42-10.57C19.92-10.57 20.13-10.91 20.13-11.31C20.13-11.45 20.11-11.60 20.07-11.74C19.82-12.76 18.82-13.35 17.67-13.35C15.28-13.35 14.59-10.72 14.59-8.36C14.59-6.19 15.28-3.55 17.65-3.55ZM17.63-4.98C16.83-4.98 16.50-5.98 16.50-6.81C16.50-7.65 16.85-8.54 17.61-8.54C18.40-8.54 18.73-7.62 18.71-6.77C18.71-5.92 18.36-4.98 17.63-4.98Z" fill="currentColor"/>
</svg>