<svg xmlns="http://www.w3.org/2000/svg" viewBox="0 0 24 24" width="24" height="24">
  
  <path transform="matrix(0.8260729267505647, 0, 0, 0.8260729267505647, 0.2671829622458859, 19.00871248789932)" d="M14.20 3.62C20.88 3.62 26.31-1.80 26.31-8.48C26.31-15.15 20.88-20.59 14.20-20.59C7.52-20.59 2.10-15.15 2.10-8.48C2.10-1.80 7.52 3.62 14.20 3.62ZM9.13-3.62C8.54-3.62 8.26-3.93 8.26-4.37C8.26-4.76 8.46-5.06 8.74-5.40L10.72-7.95C11.38-8.78 12.04-9.74 12.04-10.69C12.04-11.48 11.67-12.09 10.99-12.09C10.34-12.09 10.08-11.60 9.86-10.86C9.73-10.43 9.46-10.24 9.05-10.24C8.54-10.24 8.27-10.58 8.27-11.06C8.27-12.33 9.46-13.58 10.99-13.58C12.67-13.58 13.80-12.43 13.80-10.76C13.80-9.64 13.36-8.75 12.20-7.32L10.52-5.23L10.52-5.12L13.25-5.12C13.71-5.12 13.98-4.84 13.98-4.37C13.98-3.94 13.72-3.62 13.25-3.62ZM16.79-3.47C16.17-3.47 15.93-3.88 15.93-4.27C15.93-4.55 15.97-4.72 16.09-4.99L18.63-11.70L18.63-11.81L15.70-11.81C15.25-11.81 14.96-12.13 14.96-12.56C14.96-13.01 15.25-13.32 15.70-13.32L19.52-13.32C20.09-13.32 20.52-12.94 20.52-12.36C20.52-11.98 20.44-11.67 20.30-11.29L17.65-4.10C17.47-3.66 17.27-3.47 16.79-3.47Z" fill="currentColor"/>
</svg>