<svg xmlns="http://www.w3.org/2000/svg" viewBox="0 0 24 24" width="24" height="24">
  
  <path transform="matrix(0.8260729267505647, 0, 0, 0.8260729267505647, 0.2671829622458859, 18.989351403678604)" d="M14.20 3.64C20.88 3.64 26.31-1.78 26.31-8.46C26.31-15.14 20.88-20.57 14.20-20.57C7.52-20.57 2.10-15.14 2.10-8.46C2.10-1.78 7.52 3.64 14.20 3.64ZM14.20 1.25C8.82 1.25 4.48-3.08 4.48-8.46C4.48-13.84 8.82-18.19 14.20-18.19C19.58-18.19 23.93-13.84 23.93-8.46C23.93-3.08 19.58 1.25 14.20 1.25ZM11.46-3.57C13.15-3.57 14.43-4.62 14.43-6.35C14.43-7.75 13.59-8.47 12.61-8.59L12.61-8.63C13.61-8.89 14.14-9.80 14.14-10.80C14.14-12.41 12.96-13.32 11.40-13.32C10.22-13.32 9.16-12.67 8.82-11.63C8.77-11.41 8.74-11.20 8.74-10.99C8.74-10.61 8.99-10.27 9.49-10.27C9.90-10.27 10.17-10.43 10.29-10.84C10.45-11.47 10.79-11.91 11.41-11.91C12.13-11.91 12.46-11.32 12.46-10.61C12.46-9.81 12.04-9.20 11.19-9.20L10.96-9.20C10.52-9.20 10.27-8.94 10.27-8.54C10.27-8.14 10.54-7.91 10.96-7.91L11.21-7.91C12.15-7.91 12.66-7.38 12.66-6.42C12.66-5.67 12.27-5.00 11.46-5.00C10.69-5.00 10.34-5.53 10.20-6.04C10.07-6.43 9.80-6.64 9.40-6.64C8.92-6.64 8.59-6.35 8.59-5.86C8.59-5.65 8.63-5.44 8.68-5.25C9.02-4.17 10.20-3.57 11.46-3.57ZM18.29-3.66C18.79-3.66 19.20-4.07 19.20-4.57L19.20-12.27C19.20-12.91 18.80-13.28 18.14-13.28C17.64-13.28 17.23-13.02 16.93-12.79L15.71-11.84C15.48-11.67 15.33-11.44 15.33-11.12C15.33-10.71 15.60-10.46 15.95-10.46C16.14-10.46 16.27-10.52 16.39-10.63L17.38-11.41L17.38-4.57C17.38-4.07 17.79-3.66 18.29-3.66Z" fill="currentColor"/>
</svg>