<svg xmlns="http://www.w3.org/2000/svg" viewBox="0 0 24 24" width="24" height="24">
  <title>31.square</title>
  <path transform="matrix(0.9141224781289056, 0, 0, 0.9141224781289056, -0.7316550615961437, 19.728976968398502)" d="M6.83 2.48L21.02 2.48C23.55 2.48 24.87 1.18 24.87-1.32L24.87-15.59C24.87-18.08 23.55-19.39 21.02-19.39L6.83-19.39C4.30-19.39 2.99-18.09 2.99-15.59L2.99-1.32C2.99 1.18 4.30 2.48 6.83 2.48ZM6.97 0.19C5.88 0.19 5.29-0.38 5.29-1.51L5.29-15.39C5.29-16.52 5.88-17.10 6.97-17.10L20.88-17.10C21.96-17.10 22.57-16.52 22.57-15.39L22.57-1.51C22.57-0.38 21.96 0.19 20.88 0.19ZM11.19-3.57C12.89-3.57 14.16-4.62 14.16-6.35C14.16-7.75 13.34-8.47 12.35-8.59L12.35-8.63C13.35-8.89 13.89-9.80 13.89-10.80C13.89-12.41 12.69-13.32 11.14-13.32C9.95-13.32 8.89-12.67 8.57-11.63C8.51-11.41 8.47-11.20 8.47-10.99C8.47-10.61 8.73-10.27 9.23-10.27C9.64-10.27 9.91-10.43 10.03-10.84C10.20-11.47 10.54-11.91 11.16-11.91C11.87-11.91 12.20-11.32 12.20-10.61C12.20-9.81 11.78-9.20 10.93-9.20L10.69-9.20C10.27-9.20 10.01-8.94 10.01-8.54C10.01-8.14 10.27-7.91 10.69-7.91L10.95-7.91C11.89-7.91 12.40-7.38 12.40-6.42C12.40-5.67 12.01-5.00 11.19-5.00C10.43-5.00 10.07-5.53 9.93-6.04C9.81-6.43 9.54-6.64 9.14-6.64C8.65-6.64 8.33-6.35 8.33-5.86C8.33-5.65 8.37-5.44 8.43-5.25C8.75-4.17 9.94-3.57 11.19-3.57ZM18.02-3.66C18.52-3.66 18.93-4.07 18.93-4.57L18.93-12.27C18.93-12.91 18.53-13.28 17.88-13.28C17.37-13.28 16.97-13.02 16.66-12.79L15.46-11.84C15.22-11.67 15.06-11.44 15.06-11.12C15.06-10.71 15.34-10.46 15.69-10.46C15.88-10.46 16.00-10.52 16.13-10.63L17.12-11.41L17.12-4.57C17.12-4.07 17.52-3.66 18.02-3.66Z" fill="currentColor"/>
</svg>