<svg xmlns="http://www.w3.org/2000/svg" viewBox="0 0 24 24" width="24" height="24">
  <title>32.circle</title>
  <path transform="matrix(0.8260729267505647, 0, 0, 0.8260729267505647, 0.2671829622458859, 18.989351403678604)" d="M14.20 3.64C20.88 3.64 26.31-1.78 26.31-8.46C26.31-15.14 20.88-20.57 14.20-20.57C7.52-20.57 2.10-15.14 2.10-8.46C2.10-1.78 7.52 3.64 14.20 3.64ZM14.20 1.25C8.82 1.25 4.48-3.08 4.48-8.46C4.48-13.84 8.82-18.19 14.20-18.19C19.58-18.19 23.93-13.84 23.93-8.46C23.93-3.08 19.58 1.25 14.20 1.25ZM15.68-3.79L19.65-3.79C20.10-3.79 20.34-4.09 20.34-4.51C20.34-4.95 20.09-5.23 19.65-5.23L17.02-5.23L17.02-5.32L18.63-7.35C19.75-8.73 20.18-9.59 20.18-10.66C20.18-12.26 19.09-13.37 17.47-13.37C16.00-13.37 14.85-12.16 14.85-10.95C14.85-10.49 15.12-10.16 15.60-10.16C15.98-10.16 16.25-10.35 16.38-10.76C16.58-11.47 16.85-11.95 17.47-11.95C18.14-11.95 18.48-11.36 18.48-10.58C18.48-9.68 17.86-8.75 17.23-7.96L15.30-5.50C15.05-5.17 14.85-4.88 14.85-4.51C14.85-4.09 15.12-3.79 15.68-3.79ZM10.75-3.57C12.43-3.57 13.71-4.62 13.71-6.35C13.71-7.75 12.88-8.47 11.89-8.59L11.89-8.63C12.89-8.89 13.43-9.80 13.43-10.80C13.43-12.41 12.23-13.32 10.69-13.32C9.50-13.32 8.45-12.67 8.11-11.63C8.05-11.41 8.03-11.20 8.03-10.99C8.03-10.61 8.27-10.27 8.78-10.27C9.19-10.27 9.46-10.43 9.57-10.84C9.74-11.47 10.08-11.91 10.70-11.91C11.41-11.91 11.74-11.32 11.74-10.61C11.74-9.81 11.32-9.20 10.48-9.20L10.24-9.20C9.81-9.20 9.55-8.94 9.55-8.54C9.55-8.14 9.81-7.91 10.24-7.91L10.50-7.91C11.44-7.91 11.94-7.38 11.94-6.42C11.94-5.67 11.55-5.00 10.75-5.00C9.97-5.00 9.62-5.53 9.48-6.04C9.35-6.43 9.08-6.64 8.68-6.64C8.20-6.64 7.88-6.35 7.88-5.86C7.88-5.65 7.91-5.44 7.97-5.25C8.31-4.17 9.48-3.57 10.75-3.57Z" fill="currentColor"/>
</svg>