<svg xmlns="http://www.w3.org/2000/svg" viewBox="0 0 24 24" width="24" height="24">
  <title>37.circle</title>
  <path transform="matrix(0.8260729267505647, 0, 0, 0.8260729267505647, 0.2671829622458859, 18.989351403678604)" d="M14.20 3.64C20.88 3.64 26.31-1.78 26.31-8.46C26.31-15.14 20.88-20.57 14.20-20.57C7.52-20.57 2.10-15.14 2.10-8.46C2.10-1.78 7.52 3.64 14.20 3.64ZM14.20 1.25C8.82 1.25 4.48-3.08 4.48-8.46C4.48-13.84 8.82-18.19 14.20-18.19C19.58-18.19 23.93-13.84 23.93-8.46C23.93-3.08 19.58 1.25 14.20 1.25ZM11.07-3.57C12.76-3.57 14.04-4.62 14.04-6.35C14.04-7.75 13.22-8.47 12.23-8.59L12.23-8.63C13.22-8.89 13.77-9.80 13.77-10.80C13.77-12.41 12.57-13.32 11.03-13.32C9.83-13.32 8.78-12.67 8.45-11.63C8.39-11.41 8.36-11.20 8.36-10.99C8.36-10.61 8.61-10.27 9.12-10.27C9.52-10.27 9.80-10.43 9.91-10.84C10.08-11.47 10.42-11.91 11.03-11.91C11.75-11.91 12.08-11.32 12.08-10.61C12.08-9.81 11.65-9.20 10.82-9.20L10.57-9.20C10.15-9.20 9.89-8.94 9.89-8.54C9.89-8.14 10.15-7.91 10.57-7.91L10.83-7.91C11.78-7.91 12.28-7.38 12.28-6.42C12.28-5.67 11.89-5.00 11.07-5.00C10.30-5.00 9.95-5.53 9.81-6.04C9.69-6.43 9.42-6.64 9.02-6.64C8.53-6.64 8.21-6.35 8.21-5.86C8.21-5.65 8.25-5.44 8.31-5.25C8.64-4.17 9.82-3.57 11.07-3.57ZM16.77-3.63C17.23-3.63 17.44-3.82 17.59-4.24L20.16-11.17C20.29-11.54 20.37-11.84 20.37-12.20C20.37-12.76 19.95-13.13 19.41-13.13L15.73-13.13C15.29-13.13 15.01-12.82 15.01-12.40C15.01-11.99 15.29-11.68 15.73-11.68L18.56-11.68L18.56-11.57L16.10-5.10C16.00-4.84 15.95-4.68 15.95-4.39C15.95-4.04 16.17-3.63 16.77-3.63Z" fill="currentColor"/>
</svg>