<svg xmlns="http://www.w3.org/2000/svg" viewBox="0 0 24 24" width="24" height="24">
  
  <path transform="matrix(0.9141224781289056, 0, 0, 0.9141224781289056, -0.7316550615961437, 19.728976968398502)" d="M6.83 2.48L21.02 2.48C23.55 2.48 24.87 1.18 24.87-1.32L24.87-15.59C24.87-18.08 23.55-19.39 21.02-19.39L6.83-19.39C4.30-19.39 2.99-18.09 2.99-15.59L2.99-1.32C2.99 1.18 4.30 2.48 6.83 2.48ZM6.97 0.19C5.88 0.19 5.29-0.38 5.29-1.51L5.29-15.39C5.29-16.52 5.88-17.10 6.97-17.10L20.88-17.10C21.96-17.10 22.57-16.52 22.57-15.39L22.57-1.51C22.57-0.38 21.96 0.19 20.88 0.19ZM15.47-2.93C16.09-2.93 16.46-3.32 16.46-4.02L16.46-5.21L17.23-5.21C17.78-5.21 18.15-5.57 18.15-6.11C18.15-6.63 17.79-6.98 17.23-6.98L16.46-6.98L16.46-12.57C16.46-13.42 15.79-14.00 14.84-14.00C13.86-14.00 13.30-13.66 12.76-12.82C11.65-11.11 10.34-9.13 9.46-7.68C9.21-7.23 9.12-6.89 9.12-6.52C9.12-5.73 9.67-5.21 10.51-5.21L14.50-5.21L14.50-4.02C14.50-3.32 14.86-2.93 15.47-2.93ZM14.50-6.98L11.11-6.98L11.11-7.05C11.92-8.48 13.29-10.57 14.40-12.30L14.50-12.30Z" fill="currentColor"/>
</svg>