<svg xmlns="http://www.w3.org/2000/svg" viewBox="0 0 24 24" width="24" height="24">
  <title>4.square.fill</title>
  <path transform="matrix(0.9141224781289056, 0, 0, 0.9141224781289056, -0.7316550615961437, 19.728976968398502)" d="M6.83 2.48L21.02 2.48C23.55 2.48 24.87 1.18 24.87-1.32L24.87-15.59C24.87-18.08 23.55-19.39 21.02-19.39L6.83-19.39C4.30-19.39 2.99-18.09 2.99-15.59L2.99-1.32C2.99 1.18 4.30 2.48 6.83 2.48ZM15.55-2.92C14.92-2.92 14.52-3.33 14.52-4.05L14.52-5.09L10.41-5.09C9.52-5.09 8.95-5.61 8.95-6.43C8.95-6.83 9.04-7.18 9.30-7.65C10.20-9.16 11.55-11.20 12.71-12.98C13.28-13.88 13.88-14.21 14.88-14.21C15.89-14.21 16.59-13.59 16.59-12.71L16.59-6.94L17.38-6.94C17.98-6.94 18.35-6.56 18.35-6C18.35-5.45 17.96-5.09 17.38-5.09L16.59-5.09L16.59-4.05C16.59-3.32 16.21-2.92 15.55-2.92ZM14.52-6.94L14.52-12.45L14.44-12.45C13.28-10.64 11.88-8.50 11.04-7.01L11.04-6.94Z" fill="currentColor"/>
</svg>