<svg xmlns="http://www.w3.org/2000/svg" viewBox="0 0 24 24" width="24" height="24">
  
  <path transform="matrix(0.9141224781289056, 0, 0, 0.9141224781289056, -0.7316550615961437, 19.728976968398502)" d="M6.83 2.48L21.02 2.48C23.55 2.48 24.87 1.18 24.87-1.32L24.87-15.59C24.87-18.08 23.55-19.39 21.02-19.39L6.83-19.39C4.30-19.39 2.99-18.09 2.99-15.59L2.99-1.32C2.99 1.18 4.30 2.48 6.83 2.48ZM17.51-3.39C16.21-3.39 14.96-4.00 14.63-5.12C14.57-5.32 14.53-5.53 14.53-5.75C14.53-6.27 14.86-6.57 15.38-6.57C15.80-6.57 16.07-6.36 16.21-5.93C16.35-5.41 16.71-4.89 17.51-4.89C18.35-4.89 18.75-5.57 18.75-6.35C18.75-7.35 18.23-7.88 17.25-7.88L16.99-7.88C16.55-7.88 16.28-8.13 16.28-8.54C16.28-8.96 16.55-9.23 16.99-9.23L17.24-9.23C18.11-9.23 18.55-9.87 18.55-10.69C18.55-11.44 18.20-12.04 17.46-12.04C16.83-12.04 16.48-11.59 16.30-10.93C16.18-10.50 15.89-10.34 15.47-10.34C14.94-10.34 14.67-10.70 14.67-11.10C14.67-11.31 14.71-11.52 14.78-11.75C15.12-12.83 16.22-13.51 17.46-13.51C19.07-13.51 20.31-12.56 20.31-10.90C20.31-9.86 19.73-8.91 18.71-8.64L18.71-8.59C19.73-8.47 20.59-7.71 20.59-6.27C20.59-4.48 19.27-3.39 17.51-3.39ZM11.38-3.45C10.96-3.45 10.48-3.70 10.48-4.37L10.48-5.46L7.93-5.46C7.29-5.46 6.87-5.87 6.87-6.50C6.87-6.89 6.95-7.24 7.14-7.72L9.08-12.06C9.43-12.89 9.86-13.45 10.83-13.45C11.68-13.45 12.27-12.97 12.27-12.07L12.27-6.95L12.63-6.95C13.14-6.95 13.36-6.63 13.36-6.21C13.36-5.79 13.14-5.46 12.63-5.46L12.27-5.46L12.27-4.37C12.27-3.74 11.87-3.45 11.38-3.45ZM10.52-6.91L10.52-11.88L10.48-11.88L8.45-6.98L8.45-6.91Z" fill="currentColor"/>
</svg>