<svg xmlns="http://www.w3.org/2000/svg" viewBox="0 0 24 24" width="24" height="24">
  
  <path transform="matrix(0.8260729267505647, 0, 0, 0.8260729267505647, 0.2671829622458859, 18.989351403678604)" d="M14.20 3.64C20.88 3.64 26.31-1.78 26.31-8.46C26.31-15.14 20.88-20.57 14.20-20.57C7.52-20.57 2.10-15.14 2.10-8.46C2.10-1.78 7.52 3.64 14.20 3.64ZM14.20 1.25C8.82 1.25 4.48-3.08 4.48-8.46C4.48-13.84 8.82-18.19 14.20-18.19C19.58-18.19 23.93-13.84 23.93-8.46C23.93-3.08 19.58 1.25 14.20 1.25ZM17.68-3.55C19.46-3.55 20.47-5.04 20.47-6.84C20.47-8.39 19.75-9.88 18.22-9.88C17.29-9.88 16.62-9.23 16.36-8.29L16.32-8.29L16.32-8.50C16.32-9.84 16.50-11.92 17.66-11.92C18.15-11.92 18.46-11.57 18.66-11.11C18.83-10.75 19.07-10.57 19.45-10.57C19.96-10.57 20.17-10.91 20.17-11.31C20.17-11.45 20.14-11.60 20.11-11.74C19.85-12.76 18.86-13.35 17.71-13.35C15.32-13.35 14.63-10.72 14.63-8.36C14.63-6.19 15.32-3.55 17.68-3.55ZM11.57-3.63C12.04-3.63 12.41-3.91 12.41-4.52L12.41-5.58L12.77-5.58C13.25-5.58 13.46-5.89 13.46-6.29C13.46-6.70 13.25-7.01 12.77-7.01L12.41-7.01L12.41-11.95C12.41-12.80 11.86-13.27 11.04-13.27C10.10-13.27 9.71-12.73 9.38-11.93L7.49-7.75C7.30-7.29 7.23-6.95 7.23-6.57C7.23-5.96 7.63-5.58 8.25-5.58L10.71-5.58L10.71-4.52C10.71-3.88 11.16-3.63 11.57-3.63ZM10.75-6.96L8.73-6.96L8.73-7.04L10.71-11.75L10.75-11.75ZM17.66-4.98C16.86-4.98 16.54-5.98 16.54-6.81C16.54-7.65 16.90-8.54 17.66-8.54C18.43-8.54 18.77-7.62 18.75-6.77C18.75-5.92 18.40-4.98 17.66-4.98Z" fill="currentColor"/>
</svg>