<svg xmlns="http://www.w3.org/2000/svg" viewBox="0 0 24 24" width="24" height="24">
  
  <path transform="matrix(0.9141224781289056, 0, 0, 0.9141224781289056, -0.7316550615961437, 19.728976968398502)" d="M6.83 2.48L21.02 2.48C23.55 2.48 24.87 1.18 24.87-1.32L24.87-15.59C24.87-18.08 23.55-19.39 21.02-19.39L6.83-19.39C4.30-19.39 2.99-18.09 2.99-15.59L2.99-1.32C2.99 1.18 4.30 2.48 6.83 2.48ZM16.88-6.97C15.30-6.97 14.55-8.51 14.55-10.11C14.55-11.99 15.61-13.54 17.45-13.54C19.91-13.54 20.64-10.80 20.64-8.54C20.64-6.07 19.91-3.38 17.44-3.38C16.24-3.38 15.20-3.97 14.92-5.04C14.88-5.18 14.86-5.34 14.86-5.48C14.86-5.89 15.08-6.27 15.62-6.27C16.01-6.27 16.27-6.11 16.44-5.70C16.66-5.20 16.98-4.88 17.47-4.88C18.68-4.88 18.86-7.00 18.86-8.39L18.86-8.63L18.82-8.63C18.56-7.64 17.86-6.97 16.88-6.97ZM11.43-3.45C10.99-3.45 10.52-3.70 10.52-4.37L10.52-5.46L7.98-5.46C7.32-5.46 6.91-5.87 6.91-6.50C6.91-6.89 6.98-7.24 7.18-7.72L9.13-12.06C9.48-12.89 9.89-13.45 10.86-13.45C11.73-13.45 12.30-12.97 12.30-12.07L12.30-6.95L12.67-6.95C13.17-6.95 13.41-6.63 13.41-6.21C13.41-5.79 13.18-5.46 12.67-5.46L12.30-5.46L12.30-4.37C12.30-3.74 11.91-3.45 11.43-3.45ZM17.48-8.38C18.27-8.38 18.63-9.27 18.63-10.18C18.63-11.09 18.29-12.04 17.48-12.04C16.71-12.04 16.35-11.10 16.35-10.18C16.35-9.32 16.68-8.38 17.48-8.38ZM10.57-6.91L10.57-11.88L10.52-11.88L8.48-6.98L8.48-6.91Z" fill="currentColor"/>
</svg>