<svg xmlns="http://www.w3.org/2000/svg" viewBox="0 0 24 24" width="24" height="24">
  
  <path transform="matrix(0.8260729267505647, 0, 0, 0.8260729267505647, 0.2671829622458859, 18.989351403678604)" d="M14.20 3.64C20.88 3.64 26.31-1.78 26.31-8.46C26.31-15.14 20.88-20.57 14.20-20.57C7.52-20.57 2.10-15.14 2.10-8.46C2.10-1.78 7.52 3.64 14.20 3.64ZM14.20 1.25C8.82 1.25 4.48-3.08 4.48-8.46C4.48-13.84 8.82-18.19 14.20-18.19C19.58-18.19 23.93-13.84 23.93-8.46C23.93-3.08 19.58 1.25 14.20 1.25ZM15.26-3.64C15.75-3.64 16.16-4.04 16.16-4.56L16.16-7.79L18.80-7.79L18.80-4.56C18.80-4.04 19.21-3.64 19.71-3.64C20.21-3.64 20.61-4.04 20.61-4.56L20.61-12.39C20.61-12.88 20.21-13.29 19.71-13.29C19.21-13.29 18.80-12.88 18.80-12.39L18.80-9.29L16.16-9.29L16.16-12.39C16.16-12.88 15.75-13.29 15.26-13.29C14.75-13.29 14.34-12.88 14.34-12.39L14.34-4.56C14.34-4.04 14.75-3.64 15.26-3.64ZM11.09-3.63C11.55-3.63 11.93-3.91 11.93-4.52L11.93-5.58L12.29-5.58C12.79-5.58 12.98-5.89 12.98-6.29C12.98-6.70 12.77-7.01 12.29-7.01L11.93-7.01L11.93-11.95C11.93-12.80 11.38-13.27 10.56-13.27C9.62-13.27 9.23-12.73 8.89-11.93L7.01-7.75C6.82-7.29 6.75-6.95 6.75-6.57C6.75-5.96 7.15-5.58 7.77-5.58L10.23-5.58L10.23-4.52C10.23-3.88 10.68-3.63 11.09-3.63ZM10.27-6.96L8.26-6.96L8.26-7.04L10.23-11.75L10.27-11.75Z" fill="currentColor"/>
</svg>