<svg xmlns="http://www.w3.org/2000/svg" viewBox="0 0 24 24" width="24" height="24">
  <title>9.square.fill</title>
  <path transform="matrix(0.9141224781289056, 0, 0, 0.9141224781289056, -0.7316550615961437, 19.728976968398502)" d="M6.83 2.48L21.02 2.48C23.55 2.48 24.87 1.18 24.87-1.32L24.87-15.59C24.87-18.08 23.55-19.39 21.02-19.39L6.83-19.39C4.30-19.39 2.99-18.09 2.99-15.59L2.99-1.32C2.99 1.18 4.30 2.48 6.83 2.48ZM13.70-2.71C11.65-2.71 10.48-3.64 10.16-4.50C10.09-4.65 10.07-4.82 10.07-4.97C10.07-5.50 10.45-5.87 10.99-5.87C11.44-5.87 11.71-5.67 11.94-5.40C12.40-4.82 12.93-4.50 13.69-4.50C15.22-4.50 16.25-5.99 16.20-8.41L16.10-8.41C15.71-7.52 14.78-6.77 13.24-6.77C11.30-6.77 9.63-8.07 9.63-10.31C9.63-12.67 11.32-14.21 13.89-14.21C16.71-14.21 18.35-12.29 18.35-8.79C18.35-4.80 16.70-2.71 13.70-2.71ZM13.98-8.33C15.20-8.33 16.08-9.21 16.08-10.38C16.08-11.61 15.18-12.52 13.98-12.52C12.73-12.52 11.88-11.67 11.88-10.41C11.88-9.20 12.75-8.33 13.98-8.33Z" fill="currentColor"/>
</svg>