<svg xmlns="http://www.w3.org/2000/svg" viewBox="0 0 24 24" width="24" height="24">
  
  <path transform="matrix(0.7567779868000947, 0, 0, 0.7567779868000947, 1.2513876562299053, 19.241898977794968)" d="M14.20 3.64C20.88 3.64 26.31-1.78 26.31-8.46C26.31-12.32 24.48-15.77 21.59-18C20.98-18.52 20.18-18.39 19.80-17.86C19.39-17.29 19.57-16.61 20.12-16.14C22.43-14.37 23.93-11.61 23.93-8.46C23.93-3.08 19.58 1.25 14.20 1.25C8.82 1.25 4.48-3.08 4.48-8.46C4.48-13.02 7.62-16.84 11.85-17.89L11.85-16.38C11.85-15.52 12.50-15.29 13.15-15.76L16.95-18.48C17.46-18.86 17.47-19.44 16.95-19.82L13.16-22.54C12.50-23.02 11.85-22.79 11.85-21.91L11.85-20.33C6.28-19.23 2.10-14.33 2.10-8.46C2.10-1.78 7.52 3.64 14.20 3.64ZM18.12-3.64C20.43-3.64 21.26-5.96 21.26-8.29C21.26-10.61 20.43-12.91 18.12-12.91C15.80-12.91 14.96-10.59 14.96-8.29C14.96-5.95 15.81-3.64 18.12-3.64ZM10.38-3.64C12.86-3.64 13.65-5.98 13.65-8.36C13.65-10.72 12.71-12.90 10.43-12.90C8.72-12.90 7.49-11.64 7.49-9.77C7.49-8.21 8.40-6.90 9.93-6.90C10.98-6.90 11.70-7.55 11.95-8.41L11.96-8.41C11.96-8.39 11.96-8.36 11.96-8.31C11.98-6.97 11.75-5.05 10.45-5.05C9.90-5.05 9.56-5.33 9.28-5.81C9.08-6.14 8.87-6.30 8.51-6.30C8.03-6.30 7.78-5.95 7.78-5.58C7.78-5.21 8.00-4.80 8.29-4.51C8.78-3.95 9.55-3.64 10.38-3.64ZM10.45-8.23C9.63-8.23 9.19-9.01 9.19-9.84C9.19-10.68 9.63-11.50 10.48-11.50C11.27-11.50 11.74-10.68 11.74-9.81C11.74-8.99 11.26-8.23 10.45-8.23ZM18.12-5.06C17.21-5.06 16.76-6.41 16.76-8.29C16.76-10.15 17.21-11.47 18.12-11.47C19.01-11.47 19.46-10.15 19.46-8.29C19.46-6.41 19.01-5.06 18.12-5.06Z" fill="currentColor"/>
</svg>