<svg xmlns="http://www.w3.org/2000/svg" viewBox="0 0 24 24" width="24" height="24">
  
  <path transform="matrix(0.579316587463227, 0, 0, 0.579316587463227, 0.7847929395790902, 16.883311310564064)" d="M31.62 5.09C31.98 5.45 32.58 5.46 32.93 5.09C33.29 4.72 33.30 4.14 32.93 3.77L7.22-21.95C6.86-22.31 6.26-22.31 5.89-21.95C5.54-21.60 5.54-20.99 5.89-20.63ZM19.35-17.58C24.40-17.58 28.48-13.52 28.48-8.46C28.48-6.89 28.08-5.41 27.38-4.15L29.10-2.41C30.21-4.16 30.87-6.25 30.87-8.46C30.87-14.75 25.65-19.97 19.35-19.97C17.14-19.97 15.06-19.31 13.31-18.21L15.05-16.46C16.31-17.18 17.78-17.58 19.35-17.58ZM31.58-18.71C31.07-18.27 31.03-17.59 31.43-17.04C33.20-14.63 34.23-11.66 34.23-8.46C34.23-5.37 33.27-2.52 31.56-0.06L33.27 1.65C35.48-1.36 36.62-4.78 36.62-8.46C36.62-12.21 35.40-15.70 33.30-18.53C32.88-19.11 32.13-19.17 31.58-18.71ZM7.14 1.79C7.65 1.35 7.70 0.67 7.29 0.11C5.52-2.30 4.49-5.27 4.49-8.46C4.49-11.58 5.46-14.43 7.18-16.90L5.47-18.60C3.26-15.63 2.10-12.14 2.10-8.46C2.10-4.71 3.32-1.23 5.41 1.61C5.85 2.19 6.59 2.24 7.14 1.79ZM19.36 3.05C21.59 3.05 23.67 2.38 25.44 1.27L23.71-0.47C22.43 0.25 20.95 0.66 19.36 0.66C14.31 0.66 10.25-3.40 10.25-8.46C10.25-10.04 10.65-11.52 11.38-12.80L9.63-14.54C8.52-12.77 7.85-10.69 7.85-8.46C7.85-2.17 13.07 3.05 19.36 3.05ZM25.21-6.47L26.11-5.57C26.61-5.91 26.91-6.45 26.91-7.15C26.91-8.34 26.13-8.81 24.91-9.30C24.26-9.56 23.91-9.75 23.91-10.28C23.91-10.73 24.20-11.02 24.68-11.02C25.13-11.02 25.39-10.77 25.49-10.34C25.57-10.05 25.83-9.91 26.10-9.91C26.43-9.91 26.75-10.13 26.75-10.51C26.75-10.61 26.74-10.70 26.72-10.79C26.52-11.57 25.82-12.15 24.67-12.15C23.37-12.15 22.51-11.37 22.51-10.21C22.51-9.02 23.27-8.55 24.20-8.20C25.07-7.88 25.54-7.57 25.54-7.04C25.54-6.79 25.42-6.57 25.21-6.47ZM12.53-5.10C12.82-5.10 13.10-5.26 13.17-5.57L13.43-6.70L15.13-6.70L15.38-5.57C15.45-5.26 15.75-5.10 16.04-5.10C16.51-5.10 16.82-5.45 16.70-5.96L16.21-7.79L14.52-9.48L14.92-7.73L13.65-7.73L14.13-9.87L13.16-10.84L11.87-6.02C11.73-5.51 11.99-5.10 12.53-5.10Z" fill="currentColor"/>
</svg>