<svg xmlns="http://www.w3.org/2000/svg" viewBox="0 0 24 24" width="24" height="24">
  
  <path transform="matrix(0.4070275856586374, 0, 0, 0.4070275856586374, 1.1461960410207488, 15.443834963033627)" d="M13.20-11.96L20.57-11.96C20.77-12.49 21.28-12.82 21.90-12.82L31.39-12.82C32.02-12.82 32.53-12.49 32.73-11.96L40.11-11.96L40.11-12.30C40.11-16.73 37.58-18.87 32.89-18.87L20.41-18.87C15.71-18.87 13.20-16.73 13.20-12.30ZM6.74-0.46C7.14-0.91 7.02-1.50 6.57-2.00C5.04-3.70 4.18-5.98 4.18-8.46C4.18-10.96 5.04-13.22 6.57-14.92C7.02-15.42 7.14-16.01 6.74-16.46C6.33-16.96 5.61-16.98 5.10-16.41C3.19-14.36 2.10-11.51 2.10-8.46C2.10-5.41 3.15-2.59 5.10-0.52C5.61 0.05 6.33 0.04 6.74-0.46ZM46.58-0.46C46.99 0.04 47.71 0.05 48.23-0.52C50.17-2.59 51.23-5.41 51.23-8.46C51.23-11.51 50.14-14.36 48.23-16.41C47.72-16.98 47.00-16.96 46.58-16.46C46.18-16.01 46.31-15.42 46.76-14.92C48.29-13.22 49.14-10.96 49.14-8.46C49.14-5.98 48.29-3.70 46.76-2.00C46.31-1.50 46.20-0.91 46.58-0.46ZM10.16-3.81C10.55-4.27 10.39-4.83 10.01-5.36C9.36-6.18 9.01-7.30 9.01-8.46C9.01-9.62 9.36-10.75 10.01-11.57C10.39-12.09 10.55-12.66 10.16-13.11C9.75-13.61 8.98-13.62 8.50-13.04C7.49-11.82 6.93-10.20 6.93-8.46C6.93-6.73 7.49-5.10 8.50-3.89C8.98-3.30 9.75-3.33 10.16-3.81ZM43.17-3.81C43.58-3.33 44.36-3.30 44.84-3.89C45.83-5.10 46.41-6.73 46.41-8.46C46.41-10.20 45.83-11.82 44.84-13.04C44.36-13.62 43.58-13.61 43.17-13.11C42.79-12.66 42.94-12.09 43.31-11.57C43.97-10.75 44.31-9.62 44.31-8.46C44.31-7.30 43.97-6.18 43.31-5.36C42.94-4.83 42.79-4.27 43.17-3.81ZM20.41 1.95L32.92 1.95C37.80 1.95 40.14-0.39 40.14-5.25L40.14-10.83L32.75-10.83C32.54-10.30 32.04-9.97 31.41-9.97L21.93-9.97C21.30-9.97 20.79-10.30 20.59-10.83L13.20-10.83L13.20-5.25C13.20-0.39 15.53 1.95 20.41 1.95ZM26.66-5.46C26.05-5.44 25.55-5.96 25.55-6.56C25.55-7.17 26.05-7.68 26.66-7.68C27.28-7.68 27.79-7.17 27.79-6.56C27.79-5.98 27.28-5.47 26.66-5.46Z" fill="currentColor"/>
</svg>