<svg xmlns="http://www.w3.org/2000/svg" viewBox="0 0 24 24" width="24" height="24">
  <title>airpods.gen4.right</title>
  <path transform="matrix(0.9529127117066816, 0, 0, 0.9529127117066816, 3.1725293132328303, 20.012283640424343)" d="M7.83-6.98C11.39-6.98 15.54-10.29 15.54-13.49C15.54-16.63 12.97-18.90 10.52-18.90C7.36-18.90 2.99-15.57 2.99-12.62C2.99-9.83 4.65-6.98 7.83-6.98ZM8.63-12.35C8.26-12.87 8.34-13.58 8.89-13.96L9.62-14.48C10.17-14.87 10.86-14.72 11.21-14.20C11.60-13.69 11.53-13.00 10.97-12.60L10.25-12.08C9.70-11.70 8.99-11.82 8.63-12.35ZM5.92-9.12C5.13-9.46 4.43-11.38 4.44-12.55C4.44-12.98 4.59-13.27 4.86-13.27C5.71-13.27 6.54-10.88 6.54-9.73C6.54-9.28 6.39-8.89 5.92-9.12ZM8.74-5.81L8.74 0.26C8.74 1.73 9.43 2.09 10.98 2.09C12.48 2.09 13.16 1.73 13.16 0.26L13.16-7.58C11.82-6.64 10.27-6 8.74-5.81Z" fill="currentColor"/>
</svg>