<svg xmlns="http://www.w3.org/2000/svg" viewBox="0 0 24 24" width="24" height="24">
  <title>airplay.video.circle</title>
  <path transform="matrix(0.8260729267505647, 0, 0, 0.8260729267505647, 0.2671829622458859, 18.989351403678604)" d="M14.20 3.64C20.88 3.64 26.31-1.78 26.31-8.46C26.31-15.14 20.88-20.57 14.20-20.57C7.52-20.57 2.10-15.14 2.10-8.46C2.10-1.78 7.52 3.64 14.20 3.64ZM14.20 1.25C8.82 1.25 4.48-3.08 4.48-8.46C4.48-13.84 8.82-18.19 14.20-18.19C19.58-18.19 23.93-13.84 23.93-8.46C23.93-3.08 19.58 1.25 14.20 1.25ZM19.10-13.35L9.27-13.35C8.30-13.35 7.63-12.67 7.63-11.72L7.63-6.20C7.63-5.24 8.30-4.58 9.27-4.58L10.30-4.58L11.48-5.92L9.52-5.92C9.22-5.92 9.02-6.12 9.02-6.41L9.02-11.50C9.02-11.80 9.22-12.01 9.52-12.01L18.87-12.01C19.16-12.01 19.36-11.80 19.36-11.50L19.36-6.41C19.36-6.12 19.16-5.92 18.87-5.92L16.90-5.92L18.06-4.58L19.10-4.58C20.07-4.58 20.75-5.24 20.75-6.20L20.75-11.72C20.75-12.67 20.07-13.35 19.10-13.35ZM17.53-2.64C17.93-2.64 18.11-3.08 17.85-3.38L14.54-7.11C14.37-7.31 14.03-7.31 13.84-7.11L10.52-3.38C10.27-3.08 10.45-2.64 10.84-2.64Z" fill="currentColor"/>
</svg>