<svg xmlns="http://www.w3.org/2000/svg" viewBox="0 0 24 24" width="24" height="24">
  <title>american.football.professional.fill</title>
  <path transform="matrix(0.8286852989304286, 0, 0, 0.8286852989304286, -0.22423205689002046, 19.011454521419175)" d="M21.59-1.63C26.17-6.22 27.77-12.74 26.27-17.75C25.86-19.11 25.41-19.57 24.04-19.98C19.03-21.48 12.52-19.88 7.92-15.29C3.34-10.70 1.73-4.18 3.22 0.83C3.64 2.19 4.10 2.65 5.46 3.06C10.48 4.56 16.98 2.95 21.59-1.63ZM12.98-3.08C12.73-2.85 12.32-2.85 12.06-3.09L9.33-5.82C9.08-6.07 9.08-6.49 9.33-6.75C9.59-7.01 10.01-7.01 10.27-6.75L11.16-5.85L12.01-6.70L11.11-7.61C10.85-7.85 10.85-8.26 11.11-8.53C11.37-8.79 11.79-8.79 12.05-8.54L12.94-7.63L13.79-8.48L12.89-9.39C12.64-9.63 12.63-10.04 12.89-10.31C13.15-10.57 13.58-10.57 13.80-10.32L14.72-9.42L15.59-10.28L14.67-11.18C14.44-11.43 14.41-11.85 14.67-12.09C14.94-12.36 15.35-12.36 15.60-12.11L16.51-11.19L17.37-12.06L16.45-12.95C16.21-13.21 16.20-13.62 16.45-13.88C16.71-14.12 17.13-14.12 17.38-13.89L20.11-11.14C20.37-10.90 20.37-10.48 20.11-10.23C19.85-9.96 19.44-9.97 19.18-10.23L18.28-11.13L17.43-10.28L18.33-9.38C18.60-9.11 18.60-8.71 18.33-8.44C18.07-8.18 17.66-8.18 17.41-8.45L16.51-9.34L15.64-8.48L16.55-7.58C16.80-7.34 16.80-6.91 16.55-6.64C16.29-6.40 15.88-6.40 15.62-6.66L14.72-7.55L13.86-6.70L14.77-5.80C15.04-5.55 15.04-5.12 14.77-4.88C14.51-4.62 14.10-4.62 13.84-4.89L12.94-5.78L12.09-4.93L12.98-4.02C13.24-3.77 13.24-3.35 12.98-3.08Z" fill="currentColor"/>
</svg>