<svg xmlns="http://www.w3.org/2000/svg" viewBox="0 0 24 24" width="24" height="24">
  
  <path transform="matrix(0.9151027703306523, 0, 0, 0.9151027703306523, -0.7345844504021448, 19.742627345844504)" d="M9.40 2.46L18.42 2.46C20.48 2.46 22.10 1.86 23.17 0.80C24.26-0.28 24.84-1.90 24.84-3.95L24.84-12.97C24.84-15.02 24.26-16.63 23.17-17.72C22.09-18.80 20.48-19.38 18.42-19.38L9.40-19.38C7.35-19.38 5.73-18.79 4.66-17.72C3.57-16.63 2.99-15.02 2.99-12.97L2.99-3.95C2.99-1.90 3.56-0.29 4.66 0.80C5.73 1.86 7.35 2.46 9.40 2.46ZM6.34-16.04C7.02-16.72 8.09-17.09 9.47-17.09L13.15-17.09L13.15-12.70C12.41-14.11 11.16-14.96 9.75-14.96C8.09-14.96 6.84-13.72 6.84-12.05C6.84-10.65 7.78-9.48 9.13-8.82L5.29-8.82L5.29-12.90C5.29-14.30 5.64-15.35 6.34-16.04ZM18.69-8.82C20.05-9.48 20.98-10.65 20.98-12.05C20.98-13.72 19.75-14.96 18.07-14.96C16.66-14.96 15.42-14.11 14.68-12.70L14.68-17.09L18.35-17.09C19.75-17.09 20.80-16.72 21.49-16.04C22.20-15.35 22.55-14.30 22.55-12.90L22.55-8.82ZM12.62-8.99C10.45-8.99 8.60-10.50 8.60-11.89C8.60-12.71 9.11-13.22 9.90-13.22C11.52-13.22 12.94-11.39 12.94-9.30L12.94-8.99ZM15.21-8.99L14.88-8.99L14.88-9.30C14.88-11.39 16.30-13.22 17.93-13.22C18.73-13.22 19.22-12.71 19.22-11.89C19.22-10.50 17.38-8.99 15.21-8.99ZM18.35 0.16L14.68 0.16L14.68-6.48L14.77-6.48C15.53-4.16 18.18-2.21 19.92-1.93C20.66-1.82 21.09-2.36 21.09-2.91C21.09-3.50 20.73-3.89 20.09-3.98C18.56-4.18 16.49-6.08 15.83-7.42L22.55-7.42L22.55-4.02C22.55-2.61 22.20-1.57 21.49-0.88C20.81-0.20 19.75 0.16 18.35 0.16ZM9.47 0.16C8.09 0.16 7.02-0.19 6.34-0.88C5.64-1.57 5.29-2.61 5.29-4.02L5.29-7.42L12-7.42C11.33-6.08 9.27-4.18 7.73-3.98C7.09-3.89 6.74-3.50 6.74-2.91C6.74-2.36 7.17-1.82 7.90-1.93C9.66-2.21 12.29-4.16 13.07-6.48L13.15-6.48L13.15 0.16Z" fill="currentColor"/>
</svg>