<svg xmlns="http://www.w3.org/2000/svg" viewBox="0 0 24 24" width="24" height="24">
  
  <path transform="matrix(0.8482333237741696, 0, 0, 0.8482333237741696, -0.529818329978764, 19.157093000788134)" d="M13.99-0.48C14.53-0.48 14.99-0.93 14.99-1.48L14.99-6.86C22.08-7.27 26.60-12.04 26.55-19.18C26.55-19.83 26.18-20.21 25.52-20.23C19.90-20.26 15.70-17.13 13.92-11.92C12.21-15.56 8.63-17.43 4.76-17.41C4.23-17.41 3.97-17.14 4.02-16.57C4.31-13.30 5.95-7.37 12.98-6.86L12.98-1.48C12.98-0.93 13.44-0.48 13.99-0.48ZM15.23-8.89C16.17-14.23 19.65-17.79 24.48-18.13C24.23-13.03 20.54-9.39 15.23-8.89ZM12.89-8.89C9.02-9.27 6.70-11.94 6.13-15.27C9.26-14.85 12.13-12.73 12.89-8.89ZM10.50 0.05C11.11 0.05 11.60-0.46 11.60-1.05C11.60-1.66 11.11-2.16 10.50-2.16C9.90-2.16 9.40-1.66 9.40-1.05C9.40-0.46 9.90 0.05 10.50 0.05ZM17.47 0.05C18.08 0.05 18.59-0.46 18.59-1.05C18.59-1.66 18.08-2.16 17.47-2.16C16.88-2.16 16.37-1.66 16.37-1.05C16.37-0.46 16.88 0.05 17.47 0.05ZM7.10 1.25C7.70 1.25 8.20 0.76 8.20 0.15C8.20-0.46 7.70-0.95 7.10-0.95C6.49-0.95 6-0.46 6 0.15C6 0.76 6.49 1.25 7.10 1.25ZM20.88 1.25C21.49 1.25 21.98 0.76 21.98 0.15C21.98-0.46 21.49-0.95 20.88-0.95C20.27-0.95 19.78-0.46 19.78 0.15C19.78 0.76 20.27 1.25 20.88 1.25ZM4.09 3.35C4.70 3.35 5.19 2.85 5.19 2.25C5.19 1.64 4.70 1.15 4.09 1.15C3.48 1.15 2.99 1.64 2.99 2.25C2.99 2.85 3.48 3.35 4.09 3.35ZM23.89 3.35C24.49 3.35 25.00 2.85 25.00 2.25C25.00 1.64 24.49 1.15 23.89 1.15C23.29 1.15 22.78 1.64 22.78 2.25C22.78 2.85 23.29 3.35 23.89 3.35Z" fill="currentColor"/>
</svg>