<svg xmlns="http://www.w3.org/2000/svg" viewBox="0 0 24 24" width="24" height="24">
  
  <path transform="matrix(0.6796760918624718, 0, 0, 0.6796760918624718, 3.484028158413022, 17.75467941059339)" d="M5.95-14.50C8.34-14.50 10.07-12.82 10.07-10.62C10.07-10.52 10.07-10.39 10.04-10.28C10.02-9.87 10.45-9.80 10.64-10.00L17.34-16.70C18.08-17.44 18.49-18.36 18.49-19.35C18.50-21.62 16.75-23.18 14.79-23.18C13.37-23.18 12.30-22.55 11.18-21.42L3.57-13.83C4.31-14.27 5.12-14.50 5.95-14.50ZM20.68-3.01C22.65-4.97 22.52-7.31 20.31-9.52L16.43-13.39L10.28-7.23C9.42-6.38 8.10-7.08 8.47-8.26C8.64-8.75 8.68-9.26 8.68-9.77C8.68-11.71 7.45-12.81 5.93-12.81C4.00-12.81 2.99-11.55 2.99-10.11C2.99-9.13 3.48-8.19 4.18-7.49L11.89 0.22C12.83 1.16 13.49 2.05 13.49 3.42C13.49 3.71 13.45 4.02 13.31 4.34C13.69 4.02 13.99 3.71 14.30 3.42ZM9.06 6.25C10.55 6.25 11.77 5.14 11.77 3.63C11.75 2.75 11.36 2.05 10.46 1.15L8.75-0.57C7.28 0.55 6.20 1.75 6.20 3.49C6.20 5.16 7.45 6.25 9.06 6.25Z" fill="currentColor"/>
</svg>