<svg xmlns="http://www.w3.org/2000/svg" viewBox="0 0 24 24" width="24" height="24">
  
  <path transform="matrix(0.8023820717755837, 0, 0, 0.8023820717755837, 0.31687823225199807, 18.793606017865535)" d="M13.68 3.63C20.91 3.63 27.02-2.16 27.02-9.84C27.02-15.88 22.36-20.57 16.17-20.57C9.13-20.57 2.10-14.65 2.10-7.20C2.10-0.84 6.88 3.63 13.68 3.63ZM13.68 1.35C8.19 1.35 4.39-2.17 4.39-7.20C4.39-13.28 10.32-18.27 16.17-18.27C21.08-18.27 24.73-14.59 24.73-9.84C24.73-3.43 19.63 1.35 13.68 1.35ZM17.71-1.84C18.75-2.32 19.01-3.32 19.02-4.61C19.02-4.63 19.02-4.65 19.02-4.70C19.04-4.70 19.05-4.70 19.08-4.71C20.32-4.98 21.23-5.47 21.50-6.61C21.76-7.72 21.14-8.57 20.16-9.34C20.13-9.36 20.11-9.38 20.09-9.40C20.11-9.43 20.12-9.47 20.14-9.50C20.68-10.63 20.86-11.65 20.14-12.55C19.43-13.44 18.40-13.49 17.16-13.22C17.13-13.21 17.10-13.21 17.07-13.20C17.06-13.22 17.05-13.25 17.04-13.28C16.45-14.40 15.77-15.19 14.64-15.19C13.48-15.19 12.81-14.41 12.26-13.28C12.25-13.24 12.22-13.22 12.21-13.20C12.18-13.20 12.14-13.21 12.11-13.22C10.89-13.51 9.84-13.44 9.12-12.56C8.41-11.65 8.60-10.63 9.14-9.52C9.16-9.47 9.18-9.43 9.20-9.40C9.18-9.38 9.15-9.36 9.13-9.34C8.14-8.57 7.52-7.72 7.77-6.61C8.04-5.47 8.95-4.98 10.20-4.71C10.22-4.70 10.24-4.70 10.27-4.69C10.27-4.66 10.27-4.63 10.27-4.61C10.28-3.32 10.54-2.32 11.58-1.84C11.86-1.69 12.21-1.63 12.49-1.63C13.17-1.63 13.85-1.99 14.54-2.52C14.58-2.54 14.60-2.57 14.64-2.59C14.67-2.57 14.70-2.54 14.73-2.52C15.41-1.99 16.09-1.63 16.78-1.63C17.10-1.63 17.40-1.69 17.71-1.84ZM14.64-13.89C15.20-13.89 15.47-13.43 15.74-12.88C15.38-12.81 15-12.76 14.64-12.76C14.26-12.76 13.90-12.81 13.52-12.88C13.80-13.43 14.07-13.89 14.64-13.89ZM18.22-11.04C17.99-11.32 17.80-11.65 17.64-11.98C18.23-12.11 18.76-12.18 19.11-11.73C19.48-11.29 19.28-10.79 19.03-10.24C18.74-10.49 18.46-10.75 18.22-11.04ZM10.15-11.73C10.51-12.18 11.05-12.11 11.64-11.98C11.47-11.65 11.29-11.32 11.05-11.03C10.82-10.73 10.54-10.46 10.24-10.22C10.00-10.78 9.77-11.27 10.15-11.73ZM13.21-5.20C12.69-5.46 12.13-5.61 11.57-5.74C11.57-6.30 11.54-6.89 11.41-7.45C11.29-7.99 11.07-8.52 10.83-9.02C11.29-9.39 11.72-9.77 12.07-10.22C12.43-10.66 12.70-11.17 12.95-11.67C13.50-11.55 14.07-11.46 14.64-11.46C15.20-11.46 15.77-11.55 16.32-11.67C16.57-11.17 16.84-10.65 17.19-10.22C17.55-9.77 18-9.39 18.45-9.02C18.20-8.52 17.98-7.98 17.86-7.44C17.73-6.88 17.71-6.30 17.71-5.74C17.14-5.63 16.57-5.46 16.05-5.19C15.55-4.97 15.08-4.63 14.64-4.28C14.19-4.63 13.71-4.97 13.21-5.20ZM9.06-6.88C8.94-7.44 9.32-7.80 9.77-8.19C9.93-7.85 10.05-7.50 10.14-7.15C10.22-6.79 10.25-6.41 10.27-6.04C9.68-6.18 9.18-6.34 9.06-6.88ZM19.13-7.16C19.21-7.51 19.34-7.85 19.49-8.19C19.96-7.80 20.33-7.44 20.20-6.88C20.09-6.34 19.59-6.19 19.01-6.04C19.02-6.41 19.04-6.80 19.13-7.16ZM17.14-3C16.63-2.77 16.18-3.07 15.69-3.43C16.00-3.66 16.30-3.87 16.63-4.02C16.97-4.18 17.34-4.30 17.71-4.39C17.70-3.79 17.65-3.25 17.14-3ZM12.12-3C11.63-3.25 11.59-3.79 11.57-4.39C11.94-4.30 12.30-4.18 12.64-4.02C12.97-3.87 13.28-3.66 13.57-3.45C13.09-3.07 12.64-2.77 12.12-3Z" fill="currentColor"/>
</svg>