<svg xmlns="http://www.w3.org/2000/svg" viewBox="0 0 24 24" width="24" height="24">
  
  <path transform="matrix(0.7460801147969843, 0, 0, 0.7460801147969843, 1.6219090281560113, 18.170510660768606)" d="M2.99 0.91C2.99 3.04 4.30 4.18 6.59 4.04C10.52 3.84 14.23 3.39 18.49 2.19C20.24 1.69 20.88 0.70 20.88-1.36L20.88-18.50C20.88-20.93 19.52-22.09 17.18-21.54C13.93-20.79 10.32-20.19 6.21-19.95C4.23-19.82 2.99-18.71 2.99-16.56ZM12.66 5.13L21.05 5.13C23.55 5.13 24.83 3.84 24.83 1.30L24.83-16.07C24.83-18.04 24.02-19.24 22.48-19.63C22.54-19.20 22.57-18.82 22.57-18.43L22.57-1.36C22.57 1.62 21.34 3.09 18.95 3.79C16.76 4.38 14.66 4.82 12.66 5.13ZM5.19 0.54L5.19-16.50C5.19-17.38 5.74-17.74 6.54-17.79C10.37-18 13.92-18.60 17.13-19.34C18.11-19.56 18.69-19.04 18.69-18.08L18.69-1.44C18.69-0.46 18.39 0 17.53 0.22C14.06 1.22 10.51 1.65 6.68 1.85C5.75 1.90 5.19 1.42 5.19 0.54ZM6.28-8.02C6.28-5.58 7.85-3.62 10.16-3.21L10.02-4.32C8.33-4.79 7.29-6.29 7.29-8.13C7.29-10.71 9.33-13.08 11.93-13.46C14.52-13.84 16.56-12.08 16.56-9.50C16.56-7.66 15.49-5.86 13.82-4.89L13.68-3.73C15.97-4.80 17.54-7.22 17.54-9.64C17.54-12.77 15.02-14.91 11.91-14.45C8.79-13.99 6.28-11.13 6.28-8.02ZM8.11-8.27C8.11-7.04 8.71-5.96 9.89-5.29L9.86-5.66C9.82-5.94 9.84-6.23 9.95-6.53C9.41-6.95 9.11-7.63 9.11-8.40C9.11-9.97 10.35-11.40 11.93-11.63C13.50-11.86 14.72-10.80 14.72-9.23C14.72-8.47 14.43-7.71 13.90-7.13C13.99-6.87 14.00-6.57 13.98-6.29L13.95-5.88C15.12-6.89 15.74-8.14 15.74-9.39C15.74-11.48 14.00-12.94 11.91-12.63C9.81-12.33 8.11-10.37 8.11-8.27ZM11.93-7.88C12.67-7.98 13.29-8.68 13.29-9.46C13.29-10.23 12.67-10.75 11.91-10.64C11.14-10.54 10.55-9.84 10.55-9.07C10.55-8.31 11.17-7.76 11.93-7.88ZM11.93-2.32C12.60-2.43 13.05-2.91 13.14-3.60L13.49-6.27C13.57-7.13 12.89-7.62 11.91-7.48C10.92-7.34 10.25-6.64 10.35-5.81L10.69-3.26C10.78-2.57 11.24-2.23 11.93-2.32Z" fill="currentColor"/>
</svg>