<svg xmlns="http://www.w3.org/2000/svg" viewBox="0 0 24 24" width="24" height="24">
  <title>apple.classical.pages.fill</title>
  <path transform="matrix(0.7460815648232505, 0, 0, 0.7460815648232505, 1.6218888580640813, 18.17924636139343)" d="M2.99 0.90C2.99 3.02 4.30 4.17 6.59 4.04C10.52 3.83 14.23 3.39 18.49 2.18C20.24 1.68 20.88 0.70 20.88-1.37L20.88-18.50C20.88-20.94 19.52-22.10 17.18-21.55C13.93-20.80 10.32-20.20 6.21-19.96C4.23-19.83 2.99-18.73 2.99-16.57ZM12.66 5.12L21.05 5.12C23.55 5.12 24.83 3.83 24.83 1.29L24.83-16.07C24.83-18.05 24.02-19.25 22.48-19.63C22.54-19.21 22.57-18.83 22.57-18.45L22.57-1.37C22.57 1.61 21.34 3.08 18.95 3.77C16.76 4.38 14.66 4.80 12.66 5.12ZM7.78-6.77C7.78-8.91 9.20-10.36 10.52-11.60C10.39-12.13 10.32-12.61 10.32-13.01C10.32-14.93 11.30-16.42 12.61-16.68C13.27-16.82 13.58-16.29 13.58-15.41C13.58-13.37 12.57-11.94 11.59-10.62L11.96-9.46C12.33-9.73 12.75-9.91 13.20-10.01C14.64-10.30 15.76-9.46 15.76-7.85C15.76-6.43 14.89-5.16 13.55-4.44C13.69-3.86 13.78-3.33 13.78-2.95C13.78-1.75 13.05-0.77 11.96-0.54C10.85-0.32 10.07-0.75 10.07-1.63C10.07-2.27 10.49-2.80 11.11-2.93C11.68-3.06 12.06-2.75 12.06-2.20C12.06-1.86 11.85-1.63 11.85-1.43C11.85-1.31 11.94-1.25 12.08-1.29C12.67-1.39 13.05-2.04 13.05-2.80C13.05-3.19 12.98-3.64 12.87-4.15C12.63-4.05 12.40-4.01 12.13-3.95C9.50-3.42 7.78-4.49 7.78-6.77ZM11.06-12.62C11.06-12.53 11.09-12.38 11.13-12.18C12.07-13.07 12.82-13.88 12.82-14.81C12.82-14.99 12.75-15.07 12.59-15.02C11.77-14.87 11.00-13.92 11.06-12.62ZM9.64-6.62C9.64-5.19 10.62-4.38 12.20-4.70C12.38-4.72 12.54-4.77 12.69-4.83C12.48-5.58 12.20-6.41 11.91-7.25C11.61-7.07 11.34-6.86 11.12-6.66C10.86-6.41 10.56-6.43 10.56-6.77C10.56-7.57 10.86-8.32 11.33-8.88L11.02-9.87C10.28-8.86 9.64-7.85 9.64-6.62ZM12.61-7.57C12.89-6.74 13.15-5.93 13.35-5.18C13.88-5.55 14.18-6.07 14.18-6.61C14.18-7.58 13.28-7.76 12.61-7.57Z" fill="currentColor"/>
</svg>