<svg xmlns="http://www.w3.org/2000/svg" viewBox="0 0 24 24" width="24" height="24">
  
  <path transform="matrix(0.7941678299984489, 0, 0, 0.7941678299984489, 0.36319218241042295, 18.7240577012564)" d="M19.18-0.74C20.02-0.74 20.66-1.14 20.66-1.69L20.66-11.11C22.75-11.74 24.26-13.69 24.26-15.98C24.26-18.79 21.97-21.06 19.18-21.06C16.38-21.06 14.10-18.76 14.10-15.98C14.10-13.66 15.64-11.72 17.74-11.10L17.74-1.69C17.74-1.14 18.38-0.74 19.18-0.74ZM8.36-7.83L8.36-9.48L11.73-9.48C12.33-9.48 12.80-9.95 12.80-10.55C12.80-11.14 12.33-11.61 11.73-11.61L8.36-11.61L8.36-13.23C8.36-14.16 7.48-14.45 6.80-13.91L3.33-11.20C2.87-10.85 2.87-10.22 3.33-9.87L6.80-7.17C7.49-6.62 8.36-6.95 8.36-7.83ZM19.24 4.13C23.21 4.13 26.32 1.51 26.32-1.89C26.32-4.41 24.59-6.52 22.04-7.41L22.04-5.13C23.39-4.45 24.23-3.27 24.23-1.89C24.23 0.35 22.08 2.05 19.24 2.05C16.39 2.05 14.23 0.35 14.23-1.89C14.23-3.25 15.05-4.42 16.36-5.09L16.36-7.38C13.85-6.47 12.14-4.39 12.14-1.89C12.14 1.51 15.23 4.13 19.24 4.13Z" fill="currentColor"/>
</svg>