<svg xmlns="http://www.w3.org/2000/svg" viewBox="0 0 24 24" width="24" height="24">
  <title>arrow.left.to.line</title>
  <path transform="matrix(0.8073163040050457, 0, 0, 0.8073163040050457, -0.4124881740775779, 18.83065279091769)" d="M4.25 0.61C4.97 0.61 5.51 0.09 5.51-0.62L5.51-8.34C5.54-8.03 5.68-7.73 5.92-7.50L13.65 0.21C13.93 0.48 14.24 0.61 14.58 0.61C15.29 0.61 15.82 0.09 15.82-0.61C15.82-0.97 15.68-1.30 15.45-1.52L12.82-4.18L9.36-7.28L11.91-7.17L26.47-7.17C27.23-7.17 27.76-7.70 27.76-8.46C27.76-9.21 27.23-9.74 26.47-9.74L11.91-9.74L9.36-9.64L12.82-12.74L15.45-15.40C15.68-15.62 15.82-15.95 15.82-16.30C15.82-17.00 15.29-17.53 14.58-17.53C14.24-17.53 13.93-17.40 13.65-17.13L5.92-9.41C5.68-9.18 5.54-8.88 5.51-8.57L5.51-16.28C5.51-17.00 4.97-17.53 4.25-17.53C3.53-17.53 2.99-17.00 2.99-16.28L2.99-0.62C2.99 0.09 3.53 0.61 4.25 0.61Z" fill="currentColor"/>
</svg>