<svg xmlns="http://www.w3.org/2000/svg" viewBox="0 0 24 24" width="24" height="24">
  
  <path transform="matrix(0.6687565308254964, 0, 0, 0.6687565308254964, 0.5971786833855799, 18.37539184952978)" d="M25.50 0.87C29.13 0.87 32.00-1.82 32.00-5.16C32.00-7.64 30.59-9.84 28.27-10.82C28.28-16.11 24.47-19.93 19.56-19.93C16.43-19.93 14.11-18.32 12.63-16.20C9.67-16.99 6.54-14.78 6.43-11.47C3.75-11.00 2.10-8.60 2.10-5.67C2.10-2.11 5.21 0.86 9.30 0.86ZM17.63-3.19C14.94-3.19 12.77-5.36 12.77-8.05C12.77-8.50 13.15-8.86 13.59-8.86C14.06-8.86 14.43-8.50 14.43-8.05C14.43-6.27 15.84-4.83 17.63-4.83C19.41-4.83 20.81-6.27 20.81-8.07C20.81-9.55 19.86-10.78 18.54-11.17L18.54-9.77C18.54-9.22 17.94-9 17.50-9.36L15.26-11.30C14.86-11.64 14.87-12.16 15.26-12.48L17.50-14.38C17.94-14.73 18.54-14.53 18.54-13.96L18.54-12.88C20.79-12.45 22.46-10.48 22.46-8.07C22.46-5.36 20.31-3.19 17.63-3.19Z" fill="currentColor"/>
</svg>