<svg xmlns="http://www.w3.org/2000/svg" viewBox="0 0 24 24" width="24" height="24">
  <title>arrow.up.forward.app.fill</title>
  <path transform="matrix(0.9151027703306523, 0, 0, 0.9151027703306523, -0.7345844504021448, 19.742627345844504)" d="M9.40 2.46L18.42 2.46C20.48 2.46 22.10 1.86 23.17 0.80C24.26-0.28 24.84-1.90 24.84-3.95L24.84-12.97C24.84-15.02 24.26-16.63 23.17-17.72C22.09-18.80 20.48-19.38 18.42-19.38L9.40-19.38C7.35-19.38 5.73-18.79 4.66-17.72C3.57-16.63 2.99-15.02 2.99-12.97L2.99-3.95C2.99-1.90 3.56-0.29 4.66 0.80C5.73 1.86 7.35 2.46 9.40 2.46ZM17.71-5.29C17.09-5.29 16.69-5.71 16.69-6.38L16.69-8.31L16.86-10.05L15.22-8.27L10.99-4.03C10.76-3.81 10.49-3.69 10.16-3.69C9.54-3.69 9.09-4.11 9.09-4.77C9.09-5.05 9.22-5.34 9.43-5.55L13.69-9.80L15.49-11.45L13.83-11.26L11.79-11.26C11.12-11.26 10.69-11.66 10.69-12.27C10.69-12.88 11.11-13.27 11.78-13.27L17.46-13.27C18.23-13.27 18.70-12.89 18.70-12.05L18.70-6.39C18.70-5.73 18.30-5.29 17.71-5.29Z" fill="currentColor"/>
</svg>