<svg xmlns="http://www.w3.org/2000/svg" viewBox="0 0 24 24" width="24" height="24">
  
  <path transform="matrix(0.6906785377040334, 0, 0, 0.6906785377040334, -0.06394172399838105, 18.090651558073652)" d="M6.83 2.50L28.10 2.50C30.63 2.50 31.95 1.18 31.95-1.31L31.95-13.61C31.95-16.10 30.63-17.41 28.10-17.41L24.89-17.41C23.98-17.41 23.68-17.57 23.12-18.16L22.18-19.17C21.57-19.80 20.96-20.13 19.77-20.13L15.11-20.13C13.91-20.13 13.30-19.80 12.69-19.17L11.75-18.16C11.20-17.58 10.90-17.41 9.98-17.41L6.83-17.41C4.30-17.41 2.99-16.10 2.99-13.61L2.99-1.31C2.99 1.18 4.30 2.50 6.83 2.50ZM6.97 0.20C5.89 0.20 5.29-0.38 5.29-1.51L5.29-13.41C5.29-14.54 5.89-15.12 6.97-15.12L10.65-15.12C11.70-15.12 12.25-15.29 12.83-15.95L13.73-16.93C14.39-17.65 14.74-17.84 15.77-17.84L19.10-17.84C20.13-17.84 20.48-17.65 21.14-16.95L22.04-15.95C22.63-15.30 23.18-15.12 24.22-15.12L27.97-15.12C29.05-15.12 29.65-14.54 29.65-13.41L29.65-1.51C29.65-0.38 29.05 0.20 27.97 0.20ZM17.47-14.43C16.08-14.43 14.79-13.97 13.77-13.18C12.68-12.41 13.78-10.89 14.86-11.64C15.59-12.20 16.49-12.52 17.47-12.52C19.52-12.52 21.23-11.12 21.71-9.23L20.73-9.23C20.18-9.23 20.03-8.68 20.36-8.25L22.18-5.74C22.50-5.30 23.06-5.27 23.39-5.74L25.21-8.25C25.52-8.70 25.38-9.23 24.82-9.23L23.66-9.23C23.14-12.18 20.58-14.43 17.47-14.43ZM10.13-7.07L11.30-7.07C11.80-4.13 14.38-1.88 17.47-1.88C18.87-1.88 20.16-2.33 21.19-3.12C22.27-3.89 21.16-5.41 20.09-4.65C19.37-4.10 18.46-3.77 17.47-3.77C15.42-3.77 13.71-5.17 13.23-7.07L14.21-7.07C14.77-7.07 14.93-7.61 14.60-8.04L12.76-10.56C12.45-11.00 11.88-11.03 11.55-10.56L9.75-8.04C9.42-7.61 9.57-7.07 10.13-7.07Z" fill="currentColor"/>
</svg>