<svg xmlns="http://www.w3.org/2000/svg" viewBox="0 0 24 24" width="24" height="24">
  <title>arrow.down.forward.circle.fill</title>
  <path transform="matrix(0.8260729267505647, 0, 0, 0.8260729267505647, 0.2671829622458859, 18.989351403678604)" d="M14.20 3.64C20.88 3.64 26.31-1.78 26.31-8.46C26.31-15.14 20.88-20.57 14.20-20.57C7.52-20.57 2.10-15.14 2.10-8.46C2.10-1.78 7.52 3.64 14.20 3.64ZM18.01-11.68C18.61-11.68 19.01-11.23 19.01-10.57L19.01-4.91C19.01-4.08 18.54-3.69 17.77-3.69L12.08-3.69C11.41-3.69 10.99-4.09 10.99-4.70C10.99-5.31 11.43-5.71 12.09-5.71L14.13-5.71L15.80-5.51L13.99-7.17L9.74-11.41C9.53-11.63 9.40-11.91 9.40-12.19C9.40-12.84 9.84-13.27 10.46-13.27C10.79-13.27 11.06-13.15 11.30-12.93L15.53-8.70L17.17-6.90L16.99-8.66L16.99-10.58C16.99-11.26 17.39-11.68 18.01-11.68Z" fill="currentColor"/>
</svg>