<svg xmlns="http://www.w3.org/2000/svg" viewBox="0 0 24 24" width="24" height="24">
  <title>arrow.up.left.and.down.right.and.arrow.up.right.and.down.left</title>
  <path transform="matrix(0.8658887197699983, 0, 0, 0.8658887197699983, -0.5875190258751903, 19.341451040081175)" d="M10.25 0.91L8.58-0.75L14.53-6.70L20.48-0.75L18.82 0.91C18 1.73 18.39 3.07 19.62 3.07L24.75 3.07C25.52 3.07 26.09 2.53 26.09 1.73L26.09-3.40C26.09-4.63 24.76-5.02 23.94-4.20L22.25-2.51L16.30-8.47L22.27-14.44L23.94-12.76C24.76-11.94 26.09-12.33 26.09-13.56L26.09-18.70C26.09-19.50 25.52-20.03 24.75-20.03L19.62-20.03C18.39-20.03 18-18.70 18.82-17.88L20.50-16.21L14.53-10.24L8.58-16.21L10.25-17.88C11.07-18.70 10.69-20.03 9.46-20.03L4.32-20.03C3.55-20.03 2.99-19.50 2.99-18.70L2.99-13.56C2.99-12.33 4.31-11.94 5.13-12.76L6.80-14.44L12.76-8.47L6.81-2.52L5.13-4.20C4.31-5.02 2.99-4.63 2.99-3.40L2.99 1.73C2.99 2.53 3.55 3.07 4.32 3.07L9.46 3.07C10.69 3.07 11.07 1.73 10.25 0.91Z" fill="currentColor"/>
</svg>