<svg xmlns="http://www.w3.org/2000/svg" viewBox="0 0 24 24" width="24" height="24">
  
  <path transform="matrix(0.8073163040050457, 0, 0, 0.8073163040050457, 2.264900662251656, 18.81173131504257)" d="M4.22-8.88C3.52-8.88 2.99-8.36 2.99-7.64C2.99-7.30 3.12-6.98 3.39-6.71L11.11 1.02C11.34 1.27 11.64 1.41 11.95 1.43L4.24 1.43C3.52 1.43 2.99 1.97 2.99 2.70C2.99 3.41 3.52 3.95 4.24 3.95L19.90 3.95C20.61 3.95 21.13 3.41 21.13 2.70C21.13 1.97 20.61 1.43 19.90 1.43L12.18 1.43C12.48 1.41 12.79 1.27 13.02 1.02L20.73-6.71C21-6.98 21.13-7.30 21.13-7.64C21.13-8.36 20.61-8.88 19.91-8.88C19.55-8.88 19.22-8.73 19.00-8.51L16.34-5.88L13.24-2.43L13.35-4.96L13.35-19.52C13.35-20.30 12.82-20.82 12.06-20.82C11.31-20.82 10.78-20.30 10.78-19.52L10.78-4.96L10.88-2.43L7.78-5.88L5.12-8.51C4.90-8.73 4.57-8.88 4.22-8.88Z" fill="currentColor"/>
</svg>