<svg xmlns="http://www.w3.org/2000/svg" viewBox="0 0 24 24" width="24" height="24">
  <title>arrow.trianglehead.up.and.down.righttriangle.up.righttriangle.down</title>
  <path transform="matrix(0.7081604426002767, 0, 0, 0.7081604426002767, 0.5517141458267578, 17.991701244813278)" d="M29.34-20.65C29.34-21.96 28.56-22.58 27.60-22.58C27.12-22.58 26.67-22.44 26.25-22.16L12.39-12.90C11.68-12.46 11.36-11.77 11.36-11.09C11.36-10.09 12.05-9.19 13.28-9.19L27.15-9.19C28.65-9.19 29.34-9.88 29.34-11.37ZM3.89-1.16C3.04-1.16 2.72-0.34 3.25 0.34L5.66 3.56C6 4.01 6.62 4.01 6.95 3.56L9.38 0.34C9.87-0.33 9.61-1.16 8.73-1.16L7.10-1.16L7.10-15.76L8.73-15.76C9.59-15.76 9.89-16.58 9.38-17.26L6.95-20.48C6.62-20.93 5.99-20.92 5.66-20.48L3.25-17.26C2.72-16.58 3.04-15.76 3.89-15.76L5.52-15.76L5.52-1.16ZM27.08-19.50L27.08-11.81C27.08-11.54 26.99-11.46 26.73-11.46L14.54-11.46C14.41-11.46 14.39-11.58 14.50-11.65L26.77-19.64C26.89-19.72 27.08-19.70 27.08-19.50ZM29.34 3.71L29.34-5.55C29.34-7.04 28.65-7.75 27.15-7.75L13.28-7.75C12.05-7.75 11.36-6.83 11.36-5.84C11.36-5.16 11.68-4.48 12.39-4.02L26.25 5.24C26.67 5.52 27.12 5.66 27.60 5.66C28.56 5.66 29.34 5.04 29.34 3.71ZM27.08 2.58C27.08 2.78 26.89 2.80 26.77 2.72L14.50-5.29C14.39-5.34 14.41-5.47 14.54-5.47L26.73-5.47C26.99-5.47 27.08-5.38 27.08-5.12Z" fill="currentColor"/>
</svg>