<svg xmlns="http://www.w3.org/2000/svg" viewBox="0 0 24 24" width="24" height="24">
  
  <path transform="matrix(0.9141224781289056, 0, 0, 0.9141224781289056, -0.7316550615961437, 19.728976968398502)" d="M6.83 2.48L21.02 2.48C23.55 2.48 24.87 1.18 24.87-1.32L24.87-15.59C24.87-18.08 23.55-19.39 21.02-19.39L6.83-19.39C4.30-19.39 2.99-18.09 2.99-15.59L2.99-1.32C2.99 1.18 4.30 2.48 6.83 2.48ZM6.97 0.19C5.88 0.19 5.29-0.38 5.29-1.51L5.29-15.39C5.29-16.52 5.88-17.10 6.97-17.10L20.88-17.10C21.96-17.10 22.57-16.52 22.57-15.39L22.57-1.51C22.57-0.38 21.96 0.19 20.88 0.19ZM11.43-2.36C11.71-2.36 11.95-2.47 12.15-2.67L15.34-5.80C15.52-5.98 15.60-6.19 15.60-6.45C15.60-6.93 15.20-7.32 14.70-7.32C14.46-7.32 14.23-7.24 14.06-7.05L12.76-5.65L12.28-4.99L12.33-6.25L12.33-9.70C12.33-11.37 13.30-12.61 15.02-12.61C16.78-12.61 17.88-11.39 17.88-9.70L17.88-8.05C17.88-7.50 18.21-7.08 18.79-7.08C19.37-7.08 19.70-7.50 19.70-8.07L19.70-9.70C19.70-12.46 17.93-14.48 15.11-14.48C12.29-14.48 10.56-12.47 10.56-9.70L10.56-6.25L10.59-4.99L9.93-5.86L8.80-7.04C8.64-7.22 8.41-7.32 8.17-7.32C7.66-7.32 7.25-6.93 7.25-6.42C7.25-6.18 7.35-5.96 7.52-5.80L10.70-2.67C10.90-2.47 11.14-2.36 11.43-2.36Z" fill="currentColor"/>
</svg>