<svg xmlns="http://www.w3.org/2000/svg" viewBox="0 0 24 24" width="24" height="24">
  
  <path transform="matrix(0.7122982749026154, 0, 0, 0.7122982749026154, 1.7203672787979967, 18.01836393989983)" d="M11.21-10.15L8.54-12.71L6.84-14.18L9.39-14.04L24.64-14.04C25.35-14.04 25.88-14.57 25.88-15.28C25.88-16.00 25.35-16.51 24.64-16.51L9.39-16.51L6.86-16.38L8.53-17.82L11.21-20.40C11.45-20.64 11.57-20.92 11.57-21.27C11.57-21.98 11.06-22.49 10.34-22.49C10.03-22.49 9.68-22.34 9.43-22.10L3.40-16.20C2.85-15.68 2.86-14.87 3.40-14.36L9.43-8.45C9.68-8.21 10.03-8.07 10.34-8.07C11.06-8.07 11.57-8.58 11.57-9.29C11.57-9.63 11.45-9.91 11.21-10.15ZM17.65 3.50C17.41 3.74 17.30 4.02 17.30 4.36C17.30 5.07 17.80 5.59 18.53 5.59C18.83 5.59 19.20 5.44 19.43 5.20L25.46-0.70C26.00-1.22 26.02-2.02 25.46-2.54L19.43-8.45C19.20-8.68 18.83-8.84 18.53-8.84C17.80-8.84 17.30-8.32 17.30-7.61C17.30-7.27 17.41-6.98 17.65-6.75L20.33-4.17L22.01-2.73L19.48-2.86L4.22-2.86C3.52-2.86 2.99-2.34 2.99-1.62C2.99-0.90 3.52-0.39 4.22-0.39L19.48-0.39L22.02-0.53L20.32 0.94Z" fill="currentColor"/>
</svg>