<svg xmlns="http://www.w3.org/2000/svg" viewBox="0 0 24 24" width="24" height="24">
  
  <path transform="matrix(0.5501825238789659, 0, 0, 0.5501825238789659, 1.2238908428591195, 16.64538877095463)" d="M19.58 3.96C20.13 3.96 20.60 3.55 20.60 3L20.60-19.89C20.60-20.44 20.12-20.85 19.58-20.85C19.05-20.85 18.56-20.44 18.56-19.89L18.56 3C18.56 3.55 19.04 3.96 19.58 3.96ZM27.82-1.42L36.81-6.91C38.07-7.69 38.09-9.20 36.81-9.97L27.82-15.47C26.57-16.23 25.18-15.63 25.18-14.09L25.18-2.80C25.18-1.24 26.59-0.67 27.82-1.42ZM2.36-6.91L11.36-1.42C12.57-0.67 13.98-1.24 13.98-2.80L13.98-14.09C13.98-15.63 12.61-16.23 11.36-15.47L2.36-9.97C1.09-9.20 1.10-7.69 2.36-6.91ZM3.90-8.24C3.74-8.34 3.66-8.51 3.90-8.66L11.60-13.41C11.72-13.48 11.98-13.51 11.98-13.23L11.98-3.66C11.98-3.40 11.73-3.39 11.60-3.48ZM27.56-3.48C27.43-3.40 27.20-3.40 27.20-3.66L27.20-13.23C27.20-13.51 27.46-13.48 27.56-13.41L35.26-8.66C35.51-8.51 35.43-8.33 35.26-8.24Z" fill="currentColor"/>
</svg>