<svg xmlns="http://www.w3.org/2000/svg" viewBox="0 0 24 24" width="24" height="24">
  <title>arrowshape.backward.fill</title>
  <path transform="matrix(0.7846743295019157, 0, 0, 0.7846743295019157, 0.6666666666666665, 18.639080459770113)" d="M14.93 0.88L14.93-3.57L24.32-3.57C26.13-3.57 27.19-4.61 27.19-6.40L27.19-10.49C27.19-12.28 26.13-13.31 24.32-13.31L14.93-13.31L14.93-17.73C14.93-18.63 14.26-19.36 13.34-19.36C12.71-19.36 12.28-19.10 11.61-18.48L2.32-9.82C1.86-9.39 1.70-8.91 1.70-8.46C1.70-8.04 1.88-7.54 2.33-7.10L11.61 1.62C12.22 2.18 12.73 2.44 13.36 2.44C14.26 2.44 14.93 1.77 14.93 0.88Z" fill="currentColor"/>
</svg>