<svg xmlns="http://www.w3.org/2000/svg" viewBox="0 0 24 24" width="24" height="24">
  <title>arrow.left.to.line.compact</title>
  <path transform="matrix(0.9523809523809523, 0, 0, 0.9523809523809523, -0.8459821428571428, 20.06361607142857)" d="M4.25 0.48C4.97 0.48 5.51-0.04 5.51-0.75L5.51-8.31C5.55-8.00 5.70-7.73 5.92-7.51L13.36 0C13.63 0.27 13.95 0.40 14.26 0.40C15 0.40 15.53-0.13 15.53-0.83C15.53-1.18 15.38-1.51 15.15-1.73L12.75-4.18L9.30-7.29L11.78-7.18L22.70-7.18C23.46-7.18 23.99-7.71 23.99-8.46C23.99-9.22 23.46-9.74 22.70-9.74L11.78-9.74L9.30-9.64L12.75-12.74L15.15-15.19C15.38-15.41 15.53-15.74 15.53-16.09C15.53-16.79 15-17.32 14.26-17.32C13.95-17.32 13.63-17.19 13.36-16.92L5.92-9.41C5.70-9.20 5.55-8.92 5.51-8.63L5.51-16.16C5.51-16.89 4.97-17.41 4.25-17.41C3.53-17.41 2.99-16.89 2.99-16.16L2.99-0.75C2.99-0.04 3.53 0.48 4.25 0.48Z" fill="currentColor"/>
</svg>