<svg xmlns="http://www.w3.org/2000/svg" viewBox="0 0 24 24" width="24" height="24">
  
  <path transform="matrix(0.9141224781289056, 0, 0, 0.9141224781289056, -0.7316550615961437, 19.728976968398502)" d="M6.83 2.48L21.02 2.48C23.55 2.48 24.87 1.18 24.87-1.32L24.87-15.59C24.87-18.08 23.55-19.39 21.02-19.39L6.83-19.39C4.30-19.39 2.99-18.09 2.99-15.59L2.99-1.32C2.99 1.18 4.30 2.48 6.83 2.48ZM12.29-15.18C12.62-15.50 13.15-15.52 13.46-15.19L18.90-9.76L19.27-9.38L19.24-9.96L19.21-11.70C19.21-11.92 19.29-12.12 19.45-12.28C19.80-12.62 20.27-12.62 20.61-12.28C20.75-12.14 20.87-11.91 20.87-11.67L20.92-7.45C20.93-6.97 20.51-6.56 20.05-6.56L15.82-6.62C15.59-6.62 15.36-6.73 15.21-6.87C14.87-7.21 14.87-7.69 15.21-8.04C15.36-8.19 15.57-8.29 15.80-8.27L17.55-8.25L18.08-8.23L17.71-8.59L12.29-14.00C11.95-14.34 11.95-14.84 12.29-15.18ZM15.60-1.75C15.26-1.41 14.75-1.41 14.43-1.75L9-7.16L8.64-7.54L8.67-6.98L8.70-5.25C8.71-5.03 8.63-4.82 8.45-4.65C8.11-4.31 7.63-4.31 7.29-4.65C7.14-4.79 7.05-5.05 7.05-5.26L7.00-9.48C6.98-9.97 7.39-10.37 7.86-10.36L12.11-10.31C12.33-10.31 12.55-10.20 12.69-10.05C13.04-9.73 13.04-9.25 12.70-8.91C12.55-8.74 12.35-8.66 12.12-8.66L10.36-8.68L9.80-8.71L10.18-8.34L15.61-2.92C15.94-2.59 15.93-2.09 15.60-1.75Z" fill="currentColor"/>
</svg>