<svg xmlns="http://www.w3.org/2000/svg" viewBox="0 0 24 24" width="24" height="24">
  
  <path transform="matrix(0.6297662976629766, 0, 0, 0.6297662976629766, 0.11808118081180807, 17.284132841328415)" d="M21.14-3.36L21.52-3.36L21.52 0.88C21.52 1.77 22.18 2.44 23.09 2.44C23.72 2.44 24.22 2.18 24.83 1.62L34.11-7.10C34.57-7.54 34.75-8.04 34.75-8.46C34.75-8.91 34.57-9.39 34.11-9.82L24.83-18.48C24.16-19.10 23.73-19.36 23.11-19.36C22.18-19.36 21.52-18.63 21.52-17.74L21.52-13.54L21.22-13.54C17.66-13.54 14.55-11.52 13.75-7.24L13.64-7.24C12.76-11.91 9.47-13.54 6.26-13.54L5.46-13.54C3.74-13.54 2.99-12.80 2.99-10.96L2.99-5.51C2.99-4.02 3.74-3.33 5.37-3.33L6.69-3.33C9.74-3.33 11.73-1.25 12.60 1.75C12.76 2.30 13.14 2.58 13.70 2.58C14.26 2.58 14.65 2.30 14.82 1.75C16.07-1.95 17.99-3.36 21.14-3.36Z" fill="currentColor"/>
</svg>