<svg xmlns="http://www.w3.org/2000/svg" viewBox="0 0 24 24" width="24" height="24">
  
  <path transform="matrix(0.8260729267505647, 0, 0, 0.8260729267505647, 0.2671829622458859, 18.989351403678604)" d="M14.20 3.64C20.88 3.64 26.31-1.78 26.31-8.46C26.31-15.14 20.88-20.57 14.20-20.57C7.52-20.57 2.10-15.14 2.10-8.46C2.10-1.78 7.52 3.64 14.20 3.64ZM15.84-15.18C16.17-14.84 16.18-14.33 15.86-13.99L10.43-8.58L10.04-8.21L10.61-8.24L12.36-8.26C12.60-8.26 12.80-8.18 12.95-8.02C13.29-7.66 13.29-7.20 12.94-6.86C12.80-6.73 12.57-6.61 12.35-6.61L8.11-6.56C7.64-6.55 7.23-6.95 7.24-7.44L7.30-11.66C7.30-11.87 7.38-12.13 7.54-12.27C7.88-12.60 8.36-12.61 8.70-12.27C8.87-12.11 8.95-11.89 8.94-11.67L8.92-9.94L8.88-9.39L9.25-9.76L14.67-15.18C15-15.52 15.50-15.50 15.84-15.18ZM12.54-1.75C12.20-2.09 12.20-2.58 12.54-2.92L17.95-8.33L18.33-8.70L17.80-8.67L16.04-8.65C15.82-8.64 15.61-8.73 15.46-8.88C15.12-9.23 15.12-9.71 15.46-10.05C15.61-10.20 15.83-10.30 16.07-10.30L20.30-10.35C20.75-10.35 21.18-9.95 21.16-9.47L21.12-5.25C21.12-5.02 21-4.77 20.86-4.64C20.52-4.30 20.05-4.30 19.70-4.63C19.54-4.80 19.45-5.00 19.45-5.23L19.49-6.96L19.51-7.55L19.15-7.16L13.71-1.73C13.39-1.41 12.87-1.41 12.54-1.75Z" fill="currentColor"/>
</svg>