<svg xmlns="http://www.w3.org/2000/svg" viewBox="0 0 24 24" width="24" height="24">
  
  <path transform="matrix(0.46655731729542554, 0, 0, 0.46655731729542554, 0.6057955166757791, 15.952979770366321)" d="M20.30-9.39L28.54-9.39C29.93-9.39 30.96-10.43 30.96-11.85L30.96-19.98C30.96-21.41 29.93-22.46 28.54-22.46L20.30-22.46C18.90-22.46 17.88-21.41 17.88-19.98L17.88-11.85C17.88-10.43 18.90-9.39 20.30-9.39ZM21.80-13.02C21.23-13.02 20.91-13.65 21.21-14.17L23.77-18.53C24.05-19.01 24.77-19.02 25.05-18.54L27.63-14.17C27.93-13.66 27.61-13.02 27.06-13.02ZM5.40 5.52L13.64 5.52C15.02 5.52 16.07 4.48 16.07 3.05L16.07-5.09C16.07-6.50 15.02-7.56 13.64-7.56L5.40-7.56C4.01-7.56 2.99-6.50 2.99-5.09L2.99 3.05C2.99 4.48 4.01 5.52 5.40 5.52ZM20.30 5.52L28.54 5.52C29.93 5.52 30.96 4.48 30.96 3.05L30.96-5.09C30.96-6.50 29.93-7.56 28.54-7.56L20.30-7.56C18.90-7.56 17.88-6.50 17.88-5.09L17.88 3.05C17.88 4.48 18.90 5.52 20.30 5.52ZM35.21 5.52L43.44 5.52C44.84 5.52 45.86 4.48 45.86 3.05L45.86-5.09C45.86-6.50 44.84-7.56 43.44-7.56L35.21-7.56C33.82-7.56 32.79-6.50 32.79-5.09L32.79 3.05C32.79 4.48 33.82 5.52 35.21 5.52ZM11.96 1.59C11.96 2.16 11.33 2.48 10.82 2.18L6.47-0.36C5.99-0.66 5.98-1.38 6.46-1.66L10.82-4.23C11.34-4.54 11.96-4.21 11.96-3.66ZM36.88 1.59L36.88-3.66C36.88-4.21 37.51-4.54 38.03-4.23L42.39-1.66C42.87-1.38 42.87-0.66 42.38-0.36L38.03 2.18C37.51 2.48 36.88 2.16 36.88 1.59ZM23.77 1.58L21.21-2.78C20.92-3.29 21.23-3.93 21.80-3.93L27.06-3.93C27.61-3.93 27.93-3.28 27.63-2.78L25.05 1.59C24.77 2.07 24.05 2.06 23.77 1.58Z" fill="currentColor"/>
</svg>