<svg xmlns="http://www.w3.org/2000/svg" viewBox="0 0 24 24" width="24" height="24">
  
  <path transform="matrix(0.7449439837043503, 0, 0, 0.7449439837043503, -0.22610213880401586, 18.38585770405936)" d="M6.83 2.34L26.30 2.34C28.54 2.34 29.84 1.04 29.84-1.46L29.84-13.51C29.84-16.02 28.52-17.32 25.99-17.32L15.09-17.32C14.25-17.32 13.76-17.52 13.11-18.05L12.43-18.59C11.61-19.27 11.00-19.49 9.79-19.49L6.47-19.49C4.28-19.49 2.99-18.21 2.99-15.75L2.99-1.46C2.99 1.04 4.30 2.34 6.83 2.34ZM16.43-13.69C16.72-13.69 16.98-13.59 17.27-13.31L21.25-9.48C21.46-9.28 21.56-9.06 21.56-8.77C21.56-8.20 21.12-7.80 20.57-7.80C20.29-7.80 20.00-7.92 19.82-8.13L18.12-9.95L17.46-10.73L17.55-8.94L17.55-2.51C17.55-1.91 17.05-1.41 16.43-1.41C15.81-1.41 15.30-1.91 15.30-2.51L15.30-8.94L15.40-10.73L14.74-9.95L13.03-8.13C12.84-7.92 12.55-7.80 12.28-7.80C11.73-7.80 11.29-8.20 11.29-8.77C11.29-9.06 11.40-9.28 11.61-9.48L15.59-13.31C15.87-13.59 16.14-13.69 16.43-13.69Z" fill="currentColor"/>
</svg>