<svg xmlns="http://www.w3.org/2000/svg" viewBox="0 0 24 24" width="24" height="24">
  <title>arrowshape.turn.up.right.fill</title>
  <path transform="matrix(0.7879347491535857, 0, 0, 0.7879347491535857, -0.19759926131117256, 18.666666666666664)" d="M14.95 0.88C14.95 1.77 15.61 2.44 16.51 2.44C17.14 2.44 17.65 2.18 18.27 1.62L27.55-7.10C28.01-7.54 28.17-8.04 28.17-8.46C28.17-8.91 28.01-9.39 27.55-9.82L18.27-18.48C17.59-19.10 17.16-19.36 16.54-19.36C15.61-19.36 14.95-18.63 14.95-17.73L14.95-13.54L14.66-13.54C6.53-13.54 2.79-8.31 2.79 0.20C2.79 1.64 3.41 2.39 4.22 2.39C4.83 2.39 5.39 2.20 5.85 1.36C7.71-2.11 10.35-3.35 14.66-3.35L14.95-3.35Z" fill="currentColor"/>
</svg>