<svg xmlns="http://www.w3.org/2000/svg" viewBox="0 0 24 24" width="24" height="24">
  <title>arrow.down.app</title>
  <path transform="matrix(0.9151027703306523, 0, 0, 0.9151027703306523, -0.7345844504021448, 19.742627345844504)" d="M9.40 2.46L18.42 2.46C20.48 2.46 22.10 1.86 23.17 0.80C24.26-0.28 24.84-1.90 24.84-3.95L24.84-12.97C24.84-15.02 24.26-16.63 23.17-17.72C22.09-18.80 20.48-19.38 18.42-19.38L9.40-19.38C7.35-19.38 5.73-18.79 4.66-17.72C3.57-16.63 2.99-15.02 2.99-12.97L2.99-3.95C2.99-1.90 3.56-0.29 4.66 0.80C5.73 1.86 7.35 2.46 9.40 2.46ZM9.47 0.16C8.09 0.16 7.02-0.19 6.34-0.88C5.64-1.57 5.29-2.61 5.29-4.02L5.29-12.90C5.29-14.30 5.64-15.35 6.34-16.04C7.02-16.72 8.09-17.09 9.47-17.09L18.35-17.09C19.75-17.09 20.80-16.72 21.49-16.04C22.20-15.35 22.55-14.30 22.55-12.90L22.55-4.02C22.55-2.61 22.20-1.57 21.49-0.88C20.81-0.20 19.75 0.16 18.35 0.16ZM13.93-2.48C14.21-2.48 14.47-2.58 14.75-2.85L18.63-6.57C18.83-6.77 18.94-6.98 18.94-7.28C18.94-7.83 18.49-8.21 17.96-8.21C17.70-8.21 17.43-8.11 17.24-7.90L15.57-6.13L14.95-5.41L15.02-7.10L15.02-13.38C15.02-13.96 14.53-14.45 13.93-14.45C13.34-14.45 12.83-13.96 12.83-13.38L12.83-7.10L12.91-5.41L12.28-6.13L10.63-7.90C10.44-8.11 10.16-8.21 9.89-8.21C9.35-8.21 8.92-7.83 8.92-7.28C8.92-6.98 9.04-6.77 9.23-6.57L13.10-2.85C13.38-2.58 13.64-2.48 13.93-2.48Z" fill="currentColor"/>
</svg>