<svg xmlns="http://www.w3.org/2000/svg" viewBox="0 0 24 24" width="24" height="24">
  
  <path transform="matrix(0.8829108466977065, 0, 0, 0.8829108466977065, 1.0688049663735129, 19.475426797723745)" d="M22.42 0.81C23.16 0.81 23.71 0.27 23.71-0.43L23.71-16.49C23.71-17.20 23.16-17.74 22.42-17.74C21.69-17.74 21.14-17.20 21.14-16.49L21.14-0.43C21.14 0.27 21.69 0.81 22.42 0.81ZM17.60-1.01L17.60-15.91C17.60-17.14 16.88-17.74 16.01-17.74C15.63-17.74 15.23-17.64 14.86-17.41L2.39-10.15C1.46-9.61 1.05-9.16 1.05-8.46C1.05-7.77 1.46-7.31 2.39-6.77L14.86 0.49C15.23 0.70 15.63 0.81 16.01 0.81C16.88 0.81 17.60 0.22 17.60-1.01ZM15.30-2.29C15.30-2.14 15.21-2.05 15.08-2.05C15.04-2.05 14.99-2.06 14.94-2.09L4.36-8.27C4.28-8.32 4.24-8.39 4.24-8.46C4.24-8.53 4.28-8.60 4.36-8.65L14.94-14.84C14.99-14.86 15.04-14.88 15.08-14.88C15.21-14.88 15.30-14.78 15.30-14.64Z" fill="currentColor"/>
</svg>