<svg xmlns="http://www.w3.org/2000/svg" viewBox="0 0 24 24" width="24" height="24">
  
  <path transform="matrix(1.0502564102564103, 0, 0, 1.0502564102564103, -1.1384615384615384, 20.892307692307693)" d="M4.28 0.81C5.00 0.81 5.55 0.27 5.55-0.43L5.55-8.00C5.71-7.55 6.12-7.18 6.82-6.77L19.29 0.49C19.68 0.70 20.06 0.81 20.44 0.81C21.30 0.81 22.03 0.22 22.03-1.01L22.03-15.91C22.03-17.14 21.30-17.74 20.44-17.74C20.06-17.74 19.68-17.64 19.29-17.41L6.82-10.15C6.12-9.74 5.71-9.38 5.55-8.92L5.55-16.49C5.55-17.20 5.00-17.74 4.28-17.74C3.54-17.74 2.99-17.20 2.99-16.49L2.99-0.43C2.99 0.27 3.54 0.81 4.28 0.81ZM19.75-2.29C19.75-2.14 19.65-2.05 19.52-2.05C19.48-2.05 19.43-2.06 19.38-2.09L8.80-8.27C8.71-8.32 8.67-8.39 8.67-8.46C8.67-8.53 8.71-8.60 8.80-8.65L19.38-14.84C19.43-14.86 19.48-14.88 19.52-14.88C19.65-14.88 19.75-14.78 19.75-14.64Z" fill="currentColor"/>
</svg>