<svg xmlns="http://www.w3.org/2000/svg" viewBox="0 0 24 24" width="24" height="24">
  
  <path transform="matrix(0.8260729267505647, 0, 0, 0.8260729267505647, 0.2671829622458859, 18.989351403678604)" d="M14.20 3.64C20.88 3.64 26.31-1.78 26.31-8.46C26.31-15.14 20.88-20.57 14.20-20.57C7.52-20.57 2.10-15.14 2.10-8.46C2.10-1.78 7.52 3.64 14.20 3.64ZM14.20 1.25C8.82 1.25 4.48-3.08 4.48-8.46C4.48-13.84 8.82-18.19 14.20-18.19C19.58-18.19 23.93-13.84 23.93-8.46C23.93-3.08 19.58 1.25 14.20 1.25ZM10.78-2.74L17.78-2.74C18.91-2.74 19.58-3.39 19.58-4.65L19.58-10.83C19.58-12.08 18.90-12.74 17.63-12.74L16.77-12.74C16.75-14.06 15.61-15.15 14.20-15.15C12.80-15.15 11.67-14.06 11.65-12.74L10.78-12.74C9.50-12.74 8.84-12.08 8.84-10.83L8.84-4.65C8.84-3.39 9.50-2.74 10.78-2.74ZM12.89-12.74C12.91-13.50 13.42-14.00 14.20-14.00C15-14.00 15.49-13.50 15.52-12.74Z" fill="currentColor"/>
</svg>