<svg xmlns="http://www.w3.org/2000/svg" viewBox="0 0 24 24" width="24" height="24">
  <title>bag.fill</title>
  <path transform="matrix(0.8317089018843404, 0, 0, 0.8317089018843404, 0.7085769980506824, 19.037037037037035)" d="M6.83 3.56L20.61 3.56C22.85 3.56 24.16 2.26 24.16-0.23L24.16-12.36C24.16-14.86 22.84-16.16 20.32-16.16L18.40-16.16C18.16-18.64 16.18-20.48 13.57-20.48C10.97-20.48 8.99-18.63 8.74-16.16L6.83-16.16C4.30-16.16 2.99-14.87 2.99-12.36L2.99-0.23C2.99 2.26 4.30 3.56 6.83 3.56ZM13.57-18.43C14.96-18.43 15.97-17.52 16.17-16.16L10.98-16.16C11.18-17.52 12.19-18.43 13.57-18.43Z" fill="currentColor"/>
</svg>