<svg xmlns="http://www.w3.org/2000/svg" viewBox="0 0 24 24" width="24" height="24">
  <title>batteryblock.stack.fill</title>
  <path transform="matrix(0.5856783344772364, 0, 0, 0.5856783344772364, 0.24982841455044413, 17)" d="M6.83-2.09L26.54-2.09C29.53-2.09 30.39-2.94 30.39-5.88L30.39-15.36C30.39-17.78 29.07-19.07 26.63-19.07L25.61-19.07L25.61-20.31C25.61-21.21 25.09-21.73 24.19-21.73L21.90-21.73C21-21.73 20.48-21.21 20.48-20.31L20.48-19.07L12.90-19.07L12.90-20.31C12.90-21.21 12.39-21.73 11.50-21.73L9.19-21.73C8.31-21.73 7.79-21.21 7.79-20.31L7.79-19.07L6.83-19.07C4.30-19.07 2.99-17.75 2.99-15.26L2.99-5.88C2.99-3.38 4.30-2.09 6.83-2.09ZM8.43 1.49L32.07 1.49C33.26 1.49 33.96 0.84 33.96-0.28L33.96-12.56C33.96-13.45 33.49-14.23 32.14-14.24L32.14-0.93C32.14-0.53 31.92-0.32 31.54-0.32L6.59-0.32C6.61 1.11 7.45 1.49 8.43 1.49ZM12.26 4.65L35.27 4.65C36.43 4.65 37.14 4.01 37.14 2.91L37.14-8.41C37.14-9.39 36.56-10.02 35.46-10.08L35.46 2.39C35.46 2.79 35.25 3 34.85 3L10.45 3C10.46 4.34 11.41 4.65 12.26 4.65Z" fill="currentColor"/>
</svg>