<svg xmlns="http://www.w3.org/2000/svg" viewBox="0 0 24 24" width="24" height="24">
  <title>beats.powerbeats3.right</title>
  <path transform="matrix(0.8333333333333334, 0, 0, 0.8333333333333334, 2.73021668059012, 19.05078125)" d="M8.65-2.03L15.57-2.03L15.36-0.09C15.33 0.28 15.46 0.56 15.68 0.73L15.39 3.54L16.59 3.54L16.88 0.80C17.14 0.67 17.34 0.41 17.38 0.06L17.59-2.03L17.91-2.03C18.41-2.03 18.81-2.36 18.87-2.89L19.25-6.94C19.31-7.58 18.88-8.05 18.23-8.05L18.20-8.05L18.74-13.44C19.20-17.93 17.30-20.46 13.58-20.46C8.03-20.46 2.99-15.46 2.99-8.54C2.99-3.87 4.48 2.41 6.96 2.43C7.61 2.43 8.06 1.78 8.06 0.39C8.06 0.01 8.03-0.34 7.95-0.89C5.96-1.22 4.45-2.95 4.45-5.03C4.45-5.88 4.71-6.67 5.16-7.32C5.09-7.77 5.05-8.26 5.05-8.64C5.05-13.98 9.46-18.40 13.45-18.40C15.86-18.40 17.09-16.52 16.75-13.36L16.20-8.05L8.65-8.05C6.98-8.05 5.65-6.70 5.65-5.03C5.65-3.36 6.98-2.03 8.65-2.03ZM8.65-3.06C7.55-3.06 6.67-3.94 6.67-5.04C6.67-6.13 7.55-7.03 8.65-7.03C9.75-7.03 10.64-6.13 10.64-5.04C10.64-3.94 9.75-3.06 8.65-3.06ZM8.65-3.95C9.26-3.95 9.74-4.43 9.74-5.04C9.74-5.64 9.26-6.13 8.65-6.13C8.04-6.13 7.56-5.64 7.56-5.04C7.56-4.43 8.04-3.95 8.65-3.95Z" fill="currentColor"/>
</svg>