<svg xmlns="http://www.w3.org/2000/svg" viewBox="0 0 24 24" width="24" height="24">
  <title>beats.powerbeats.pro.chargingcase</title>
  <path transform="matrix(0.8457218368021143, 0, 0, 0.8457218368021143, -0.5272547076313181, 19.15559960356789)" d="M10.29 3.30L19.30 3.30C24.12 3.30 26.64 0.80 26.64-4.00L26.64-12.93C26.64-17.72 24.12-20.23 19.30-20.23L10.29-20.23C5.50-20.23 2.99-17.72 2.99-12.93L2.99-4.00C2.99 0.80 5.50 3.30 10.29 3.30ZM10.02 1.01C6.91 1.01 5.29-0.62 5.29-3.73L5.29-13.20C5.29-16.30 6.91-17.93 10.02-17.93L19.63-17.93C22.72-17.93 24.34-16.32 24.34-13.24L24.34-3.68C24.34-0.60 22.72 1.01 19.63 1.01ZM14.81-3C17.82-3 20.26-5.48 20.26-8.46C20.26-11.47 17.77-13.90 14.81-13.90C14.27-13.90 13.79-13.85 13.37-13.72L13.37-10.63C13.79-10.93 14.30-11.11 14.81-11.11C16.22-11.11 17.43-9.89 17.43-8.46C17.43-7.03 16.25-5.87 14.81-5.87C13.34-5.87 12.19-7.01 12.19-8.46L12.19-13.25C10.45-12.28 9.36-10.48 9.36-8.46C9.36-5.43 11.79-3 14.81-3ZM14.81-7.02C15.57-7.02 16.24-7.70 16.24-8.46C16.24-9.20 15.56-9.88 14.81-9.88C14.06-9.88 13.38-9.22 13.38-8.46C13.38-7.66 14.03-7.02 14.81-7.02Z" fill="currentColor"/>
</svg>