<svg xmlns="http://www.w3.org/2000/svg" viewBox="0 0 24 24" width="24" height="24">
  <title>beats.studiobuds.plus</title>
  <path transform="matrix(0.4954039671020803, 0, 0, 0.4954039671020803, 0.5195936139332367, 16.082411180537946)" d="M11.27-6.07C12.87-5.39 14.70-6.16 15.39-7.72L17.67-12.90C18.35-14.47 17.60-16.35 16.01-17.03C14.41-17.71 12.59-16.96 11.88-15.35L9.61-10.18C8.92-8.59 9.68-6.76 11.27-6.07ZM35.06-6.07C36.67-6.76 37.43-8.59 36.73-10.18L34.46-15.35C33.76-16.96 31.93-17.71 30.34-17.03C28.75-16.35 27.98-14.47 28.68-12.90L30.95-7.72C31.64-6.16 33.48-5.39 35.06-6.07ZM22.16-9.40C21.60-11.31 20.20-12.22 18.98-13.24C18.93-12.96 18.84-12.70 18.73-12.45L16.45-7.27C15.49-5.10 12.98-4.09 10.82-4.99C8.77-5.89 7.75-8.17 8.43-10.22C7.48-8.99 7.29-7.20 8.04-5.13C9.43-1.23 13.00-0.40 16.61-1.82L18.73-2.65C21.63-3.80 23.02-6.49 22.16-9.40ZM24.18-9.40C23.33-6.49 24.70-3.80 27.61-2.65L29.74-1.82C33.35-0.40 36.91-1.23 38.30-5.13C39.05-7.20 38.87-8.99 37.92-10.22C38.60-8.17 37.58-5.89 35.53-4.99C33.36-4.09 30.84-5.10 29.89-7.27L27.62-12.45C27.50-12.70 27.41-12.96 27.36-13.24C26.14-12.22 24.75-11.31 24.18-9.40ZM12.45-6.98C11.36-6.98 10.50-7.85 10.50-8.94C10.50-10.03 11.37-10.90 12.45-10.90C13.54-10.90 14.40-10.03 14.40-8.94C14.40-7.85 13.54-6.98 12.45-6.98ZM33.90-6.98C32.81-6.98 31.95-7.85 31.95-8.94C31.95-10.03 32.81-10.90 33.90-10.90C34.98-10.90 35.85-10.03 35.85-8.94C35.85-7.85 34.99-6.98 33.90-6.98ZM12.45-7.84C13.08-7.84 13.55-8.33 13.55-8.94C13.55-9.55 13.08-10.05 12.45-10.05C11.82-10.05 11.34-9.55 11.34-8.94C11.34-8.33 11.82-7.84 12.45-7.84ZM33.90-7.84C34.52-7.84 34.99-8.33 34.99-8.94C34.99-9.55 34.52-10.05 33.90-10.05C33.27-10.05 32.80-9.55 32.80-8.94C32.80-8.33 33.27-7.84 33.90-7.84ZM6.95-4.73C6.42-6.18 6.29-7.57 6.59-8.99C4.49-8.39 2.99-6.49 2.99-4.21C2.99-1.44 5.23 0.80 7.98 0.80C9.22 0.80 10.31 0.38 11.16-0.38C9.25-1.02 7.75-2.51 6.95-4.73ZM39.39-4.73C38.59-2.51 37.10-1.02 35.19-0.38C36.04 0.38 37.11 0.80 38.37 0.80C41.12 0.80 43.36-1.44 43.36-4.21C43.36-6.49 41.85-8.39 39.76-8.99C40.05-7.57 39.91-6.18 39.39-4.73Z" fill="currentColor"/>
</svg>