<svg xmlns="http://www.w3.org/2000/svg" viewBox="0 0 24 24" width="24" height="24">
  
  <path transform="matrix(0.6269899583639481, 0, 0, 0.6269899583639481, 0.6847905951506246, 17.304922850844967)" d="M16.46-0.57L19.63-0.57C23.52-0.57 26.33-0.63 28.86-1.48C32.16-2.59 34.00-5.10 34.00-8.46C34.00-11.82 32.16-14.33 28.86-15.45C26.33-16.29 23.52-16.35 19.63-16.35L16.46-16.35C12.57-16.35 9.76-16.29 7.23-15.45C3.94-14.33 2.10-11.82 2.10-8.46C2.10-5.10 3.94-2.59 7.23-1.48C9.76-0.63 12.57-0.57 16.46-0.57ZM16.46-2.85C12.60-2.85 10.14-2.91 7.96-3.63C5.70-4.39 4.36-6.16 4.36-8.46C4.36-10.76 5.70-12.54 7.96-13.29C10.14-14.02 12.60-14.07 16.46-14.07L19.63-14.07C23.48-14.07 25.96-14.02 28.14-13.29C30.40-12.53 31.73-10.75 31.73-8.46C31.73-6.18 30.40-4.41 28.14-3.63C25.96-2.91 23.48-2.85 19.63-2.85ZM18.05-5.61C19.37-5.61 20.45-6.68 20.45-7.96C20.45-9.30 19.35-10.39 18.05-10.39C17.58-10.39 17.14-10.27 16.75-9.97L16.75-11.88L15.66-11.41L15.66-7.96C15.66-6.64 16.70-5.61 18.05-5.61ZM18.05-6.68C17.33-6.68 16.75-7.28 16.75-7.96C16.75-8.68 17.34-9.27 18.05-9.27C18.76-9.27 19.35-8.66 19.35-7.96C19.35-7.28 18.76-6.68 18.05-6.68Z" fill="currentColor"/>
</svg>