<svg xmlns="http://www.w3.org/2000/svg" viewBox="0 0 24 24" width="24" height="24">
  <title>blinds.horizontal.open</title>
  <path transform="matrix(0.7897578281659725, 0, 0, 0.7897578281659725, -0.38778343359555745, 18.677464136973622)" d="M3.02-19.50C3.02-18.87 3.54-18.35 4.16-18.35L27.20-18.35C27.83-18.35 28.35-18.87 28.35-19.50C28.35-20.12 27.83-20.65 27.20-20.65L4.16-20.65C3.54-20.65 3.02-20.12 3.02-19.50ZM4.16-15.48C4.64-15.48 5.02-15.88 5.02-16.34C5.02-16.80 4.64-17.19 4.16-17.19C3.69-17.19 3.32-16.80 3.32-16.34C3.32-15.88 3.69-15.48 4.16-15.48ZM7.11-14.47L24.77-14.47C25.38-14.47 25.79-14.61 26.14-14.93L27.15-15.90C27.56-16.29 27.42-17.06 26.73-17.06L9.08-17.06C8.46-17.06 8.05-16.92 7.71-16.61L6.69-15.63C6.28-15.25 6.42-14.47 7.11-14.47ZM4.16-12.77C4.64-12.77 5.02-13.16 5.02-13.63C5.02-14.10 4.64-14.48 4.16-14.48C3.69-14.48 3.32-14.10 3.32-13.63C3.32-13.16 3.69-12.77 4.16-12.77ZM4.16-10.07C4.64-10.07 5.02-10.45 5.02-10.92C5.02-11.39 4.64-11.78 4.16-11.78C3.69-11.78 3.32-11.39 3.32-10.92C3.32-10.45 3.69-10.07 4.16-10.07ZM7.11-8.48L24.77-8.48C25.38-8.48 25.79-8.61 26.14-8.93L27.15-9.93C27.56-10.30 27.42-11.07 26.73-11.07L9.08-11.07C8.46-11.07 8.05-10.93 7.71-10.61L6.69-9.63C6.28-9.25 6.42-8.48 7.11-8.48ZM4.16-7.36C4.64-7.36 5.02-7.76 5.02-8.21C5.02-8.68 4.64-9.07 4.16-9.07C3.69-9.07 3.32-8.68 3.32-8.21C3.32-7.76 3.69-7.36 4.16-7.36ZM4.16-4.65C4.64-4.65 5.02-5.04 5.02-5.51C5.02-5.98 4.64-6.36 4.16-6.36C3.69-6.36 3.32-5.98 3.32-5.51C3.32-5.04 3.69-4.65 4.16-4.65ZM7.11-2.48L24.77-2.48C25.38-2.48 25.79-2.63 26.14-2.95L27.15-3.93C27.56-4.30 27.42-5.07 26.73-5.07L9.08-5.07C8.46-5.07 8.05-4.93 7.71-4.62L6.69-3.63C6.28-3.25 6.42-2.48 7.11-2.48ZM4.16-1.95C4.64-1.95 5.02-2.33 5.02-2.80C5.02-3.27 4.64-3.66 4.16-3.66C3.69-3.66 3.32-3.27 3.32-2.80C3.32-2.33 3.69-1.95 4.16-1.95ZM4.16 3.74C4.71 3.74 5.16 3.28 5.16 2.74L5.16 0.05C5.16-0.49 4.71-0.95 4.16-0.95C3.62-0.95 3.18-0.49 3.18 0.05L3.18 2.74C3.18 3.28 3.62 3.74 4.16 3.74ZM7.11 3.50L24.77 3.50C25.38 3.50 25.79 3.35 26.14 3.04L27.15 2.06C27.56 1.68 27.42 0.90 26.73 0.90L9.08 0.90C8.46 0.90 8.05 1.04 7.71 1.37L6.69 2.34C6.28 2.73 6.42 3.50 7.11 3.50Z" fill="currentColor"/>
</svg>