<svg xmlns="http://www.w3.org/2000/svg" viewBox="0 0 24 24" width="24" height="24">
  <title>blood.pressure.cuff.fill</title>
  <path transform="matrix(0.7619047619047619, 0, 0, 0.7619047619047619, 4.727678571428571, 18.473214285714285)" d="M9.75 4.63C11.46 4.63 12.63 3.38 12.63 1.49C12.63-0.35 11.51-1.64 9.70-1.65C8.44-1.63 6.61-1.10 5.63 0.32C3.62 0.18 0.12-0.71 0.13-2.82C0.14-4.21 1.11-5.13 3.69-5.99C5.09-4.69 7.73-3.80 9.71-3.80C10.38-3.80 10.85-4.23 10.85-5.02L10.85-13.98C10.85-15.12 10.54-15.48 9.48-15.67C6-16.23 4.93-17.02 4.92-17.65C4.92-18.59 7.77-19.82 12.05-19.82C16.31-19.82 19.16-18.59 19.16-17.65C19.15-17.02 18.09-16.23 14.60-15.67C13.56-15.48 13.23-15.12 13.23-13.98L13.23-5.02C13.23-4.23 13.71-3.80 14.37-3.80C16.31-3.80 18.97-4.68 20.47-6.05C20.95-6.49 21.06-6.74 21.06-7.68L21.06-17.39C21.06-19.98 17.70-21.62 12.05-21.62C6.40-21.62 3.02-19.98 3.02-17.39L3.02-7.97C-0.16-6.95-1.97-5.47-1.97-2.88C-1.97 0.46 1.62 1.91 5.47 2.39C6.08 3.54 7.73 4.63 9.75 4.63Z" fill="currentColor"/>
</svg>