<svg xmlns="http://www.w3.org/2000/svg" viewBox="0 0 24 24" width="24" height="24">
  
  <path transform="matrix(1.179451739230592, 0, 0, 1.179451739230592, 0.07878369039391808, 21.972356599861783)" d="M5.09 0.02L11.29 0.02C14.92 0.02 17.23-1.90 17.23-4.84C17.23-7.14 15.52-8.81 13.11-8.93L13.11-9.04C15.09-9.29 16.45-10.78 16.45-12.67C16.45-15.32 14.43-16.93 11.09-16.93L5.09-16.93C3.76-16.93 2.99-16.16 2.99-14.81L2.99-2.10C2.99-0.75 3.76 0.02 5.09 0.02ZM7.21-9.94L7.21-14.04L9.76-14.04C11.36-14.04 12.30-13.30 12.30-12.04C12.30-10.72 11.26-9.94 9.50-9.94ZM7.21-2.84L7.21-7.41L9.84-7.41C11.84-7.41 12.94-6.61 12.94-5.14C12.94-3.64 11.92-2.84 9.95-2.84Z" fill="currentColor"/>
</svg>