<svg xmlns="http://www.w3.org/2000/svg" viewBox="0 0 24 24" width="24" height="24">
  
  <path transform="matrix(0.461510726518839, 0, 0, 0.461510726518839, 0.6208761492698756, 15.034072471606274)" d="M39.70 0.33C43.73 0.33 46.32-2.10 46.32-5.70L46.32-15.88C46.32-16.70 45.79-17.20 44.96-17.20C44.14-17.20 43.63-16.70 43.63-15.88L43.63-5.94C43.63-3.62 41.93-2.06 39.70-2.06C37.29-2.06 35.79-3.62 35.79-5.94L35.79-15.88C35.79-16.70 35.25-17.20 34.43-17.20C33.62-17.20 33.09-16.70 33.09-15.88L33.09-5.70C33.09-2.10 35.68 0.33 39.70 0.33ZM18.94 0.02L26.32 0.02C27 0.02 27.47-0.39 27.47-1.05C27.47-1.71 27.01-2.11 26.33-2.11L24.02-2.11L26.66-14.80L29.06-14.80C29.73-14.80 30.20-15.21 30.20-15.88C30.20-16.54 29.75-16.93 29.06-16.93L21.66-16.93C20.98-16.93 20.52-16.54 20.52-15.88C20.52-15.21 20.99-14.80 21.67-14.80L24.07-14.80L21.33-2.11L18.93-2.11C18.25-2.11 17.79-1.71 17.79-1.05C17.79-0.39 18.26 0.02 18.94 0.02ZM5.09 0.02L10.15 0.02C13.78 0.02 16.09-1.90 16.09-4.84C16.09-7.14 14.38-8.81 11.98-8.93L11.98-9.04C13.96-9.29 15.32-10.78 15.32-12.67C15.32-15.32 13.29-16.93 9.95-16.93L5.09-16.93C3.76-16.93 2.99-16.16 2.99-14.81L2.99-2.10C2.99-0.75 3.76 0.02 5.09 0.02ZM7.21-9.94L7.21-14.04L8.63-14.04C10.22-14.04 11.17-13.30 11.17-12.04C11.17-10.72 10.13-9.94 8.37-9.94ZM7.21-2.84L7.21-7.41L8.71-7.41C10.69-7.41 11.80-6.61 11.80-5.14C11.80-3.64 10.77-2.84 8.81-2.84ZM33.93 4.05L45.49 4.05C45.96 4.05 46.32 3.70 46.32 3.23C46.32 2.77 45.96 2.41 45.49 2.41L33.93 2.41C33.47 2.41 33.09 2.77 33.09 3.23C33.09 3.70 33.47 4.05 33.93 4.05Z" fill="currentColor"/>
</svg>