<svg xmlns="http://www.w3.org/2000/svg" viewBox="0 0 24 24" width="24" height="24">
  <title>bolt.heart.fill</title>
  <path transform="matrix(0.8448844884488449, 0, 0, 0.8448844884488449, -0.5247524752475248, 18.846534653465348)" d="M14.82 2.86C15.13 2.86 15.56 2.64 15.91 2.41C22.46-1.80 26.66-6.75 26.66-11.77C26.66-16.07 23.70-19.07 19.96-19.07C17.63-19.07 15.88-17.78 14.82-15.84C13.78-17.77 12.02-19.07 9.70-19.07C5.96-19.07 2.99-16.07 2.99-11.77C2.99-6.75 7.18-1.80 13.73 2.41C14.09 2.64 14.53 2.86 14.82 2.86ZM11.06-6.97C11.06-7.09 11.11-7.23 11.20-7.34L16.00-13.29C16.38-13.77 17.04-13.44 16.80-12.84L15.25-8.70L18.16-8.70C18.41-8.70 18.60-8.52 18.60-8.27C18.60-8.16 18.55-8.03 18.46-7.91L13.66-1.96C13.27-1.48 12.62-1.80 12.86-2.40L14.41-6.55L11.50-6.55C11.25-6.55 11.06-6.74 11.06-6.97Z" fill="currentColor"/>
</svg>