<svg xmlns="http://www.w3.org/2000/svg" viewBox="0 0 24 24" width="24" height="24">
  <title>book.and.wrench.fill</title>
  <path transform="matrix(0.6785259318918081, 0, 0, 0.6785259318918081, -0.02762631991106712, 17.662803680599872)" d="M4.11 2.41C4.49 2.41 4.77 2.31 5.12 2.05C6.55 0.89 8.41 0.28 10.28 0.28C11.99 0.28 13.64 0.80 15.06 1.98C14.02 0.20 14.33-1.97 15.95-3.47L15.95-15.91C15.95-16.23 15.91-16.32 15.68-16.66C14.54-18.33 12.25-19.36 9.70-19.36C7.08-19.36 4.36-18.13 3.19-16.11C3.01-15.81 2.99-15.63 2.99-15.12L2.99 1.34C2.99 2.03 3.41 2.41 4.11 2.41ZM17.60-4.78C19.00-5.79 20.65-6.79 21.66-7.79C22.72-8.85 21.38-11.61 24.01-14.14C25.77-15.80 28.41-16.15 30.55-15.16C30.54-15.68 30.50-15.87 30.36-16.11C29.18-18.13 26.47-19.36 23.84-19.36C21.30-19.36 19.01-18.33 17.86-16.66C17.64-16.32 17.60-16.23 17.60-15.91ZM16.99 1.78C18.18 2.96 19.95 3.01 21.12 1.63C22.02 0.55 23.98-2.70 25.79-4.51C26.74-5.47 28.00-5.61 28.83-5.61C31.64-5.61 32.78-7.92 32.39-9.60L28.84-8.64L28.49-9.94C28.36-10.45 28.57-10.89 29.14-11.04L31.82-11.77C31.71-12.05 31.48-12.45 31.16-12.77C29.52-14.45 26.80-14.48 25.16-12.94C22.80-10.69 24.56-8.34 23.10-6.89C21.20-5.00 18.56-3.61 17.14-2.34C15.77-1.13 15.80 0.60 16.99 1.78ZM24.09 0.33C25.68 0.49 27.21 1.07 28.43 2.05C28.78 2.31 29.06 2.41 29.44 2.41C30.14 2.41 30.55 2.03 30.55 1.34L30.55-4.18C28.77-3.39 27.59-3.96 26.86-3.23C25.99-2.37 24.98-0.95 24.09 0.33ZM19.02 0.57C18.56 0.57 18.19 0.20 18.19-0.26C18.19-0.71 18.56-1.09 19.02-1.09C19.49-1.09 19.85-0.71 19.85-0.26C19.85 0.20 19.49 0.57 19.02 0.57Z" fill="currentColor"/>
</svg>