<svg xmlns="http://www.w3.org/2000/svg" viewBox="0 0 24 24" width="24" height="24">
  <title>building.2</title>
  <path transform="matrix(0.7188991856220163, 0, 0, 0.7188991856220163, 1.3302443133951147, 18.08256107834878)" d="M5.12 5.45L24.56 5.45C25.89 5.45 26.70 4.57 26.70 3.15L26.70-14.29C26.70-15.71 25.89-16.59 24.56-16.59L20.44-16.59L20.44-20.07C20.44-21.49 19.64-22.37 18.30-22.37L5.12-22.37C3.79-22.37 2.99-21.49 2.99-20.07L2.99 3.15C2.99 4.57 3.79 5.45 5.12 5.45ZM5.73 3.29C5.34 3.29 5.14 3.11 5.14 2.72L5.14-19.64C5.14-20.03 5.34-20.23 5.73-20.23L17.71-20.23C18.08-20.23 18.28-20.03 18.28-19.64L18.28 2.72C18.28 3.11 18.08 3.29 17.71 3.29L15.27 3.29L15.27 0.06C15.27-0.88 14.82-1.36 13.92-1.36L9.52-1.36C8.60-1.36 8.17-0.88 8.17 0.06L8.17 3.29ZM8.10-13.78L10.34-13.78C10.61-13.78 10.79-13.97 10.79-14.25L10.79-16.43C10.79-16.71 10.61-16.90 10.34-16.90L8.10-16.90C7.82-16.90 7.64-16.71 7.64-16.43L7.64-14.25C7.64-13.97 7.82-13.78 8.10-13.78ZM13.09-13.78L15.32-13.78C15.60-13.78 15.79-13.97 15.79-14.25L15.79-16.43C15.79-16.71 15.60-16.90 15.32-16.90L13.09-16.90C12.81-16.90 12.63-16.71 12.63-16.43L12.63-14.25C12.63-13.97 12.81-13.78 13.09-13.78ZM20.44 3.15L20.44-0.75L22.21-0.75C22.44-0.75 22.58-0.89 22.58-1.11L22.58-2.82C22.58-3.05 22.44-3.20 22.21-3.20L20.44-3.20L20.44-4.86L22.21-4.86C22.44-4.86 22.58-5.00 22.58-5.23L22.58-6.94C22.58-7.16 22.44-7.31 22.21-7.31L20.44-7.31L20.44-8.98L22.21-8.98C22.44-8.98 22.58-9.12 22.58-9.34L22.58-11.06C22.58-11.27 22.44-11.43 22.21-11.43L20.44-11.43L20.44-14.44L23.95-14.44C24.35-14.44 24.54-14.25 24.54-13.85L24.54 2.72C24.54 3.11 24.35 3.29 23.95 3.29L20.44 3.29C20.44 3.25 20.44 3.20 20.44 3.15ZM8.10-9.27L10.34-9.27C10.61-9.27 10.79-9.46 10.79-9.74L10.79-11.91C10.79-12.20 10.61-12.39 10.34-12.39L8.10-12.39C7.82-12.39 7.64-12.20 7.64-11.91L7.64-9.74C7.64-9.46 7.82-9.27 8.10-9.27ZM13.09-9.27L15.32-9.27C15.60-9.27 15.79-9.46 15.79-9.74L15.79-11.91C15.79-12.20 15.60-12.39 15.32-12.39L13.09-12.39C12.81-12.39 12.63-12.20 12.63-11.91L12.63-9.74C12.63-9.46 12.81-9.27 13.09-9.27ZM8.10-4.75L10.34-4.75C10.61-4.75 10.79-4.93 10.79-5.21L10.79-7.39C10.79-7.68 10.61-7.86 10.34-7.86L8.10-7.86C7.82-7.86 7.64-7.68 7.64-7.39L7.64-5.21C7.64-4.93 7.82-4.75 8.10-4.75ZM13.09-4.75L15.32-4.75C15.60-4.75 15.79-4.93 15.79-5.21L15.79-7.39C15.79-7.68 15.60-7.86 15.32-7.86L13.09-7.86C12.81-7.86 12.63-7.68 12.63-7.39L12.63-5.21C12.63-4.93 12.81-4.75 13.09-4.75ZM9.86 0.63C9.86 0.40 9.97 0.28 10.21 0.28L13.23 0.28C13.46 0.28 13.57 0.40 13.57 0.63L13.57 3.29L9.86 3.29Z" fill="currentColor"/>
</svg>