<svg xmlns="http://www.w3.org/2000/svg" viewBox="0 0 24 24" width="24" height="24">
  <title>bus.doubledecker.fill</title>
  <path transform="matrix(0.6837606837606838, 0, 0, 0.6837606837606838, 1.2387820512820502, 18.001602564102566)" d="M4.79 4.16C4.79 5.16 5.48 5.85 6.49 5.85L7.90 5.85C8.91 5.85 9.60 5.16 9.60 4.16L9.60 2.31C11.81 2.46 13.78 2.54 15.74 2.54C17.71 2.54 19.66 2.47 21.88 2.31L21.88 4.16C21.88 5.16 22.57 5.85 23.58 5.85L24.98 5.85C25.99 5.85 26.68 5.16 26.68 4.16L26.68-9.01L27.21-9.01C27.96-9.01 28.49-9.49 28.49-10.20L28.49-14.29C28.49-15 27.96-15.47 27.21-15.47L26.68-15.47L26.68-20.11C26.68-21.74 25.75-22.72 24.04-22.95C21.63-23.24 18.70-23.40 15.74-23.40C12.80-23.40 9.87-23.24 7.43-22.95C5.73-22.72 4.79-21.74 4.79-20.11L4.79-15.47L4.27-15.47C3.52-15.47 2.99-15 2.99-14.29L2.99-10.20C2.99-9.49 3.52-9.01 4.27-9.01L4.79-9.01ZM7.16-13.64L7.16-19.18C7.16-20.00 7.58-20.52 8.32-20.61C10.59-20.91 13.13-21.05 15.74-21.05C18.35-21.05 20.88-20.89 23.16-20.61C23.91-20.52 24.32-20.00 24.32-19.18L24.32-13.64ZM7.16-11.79L24.32-11.79L24.32-6.66C24.32-5.84 23.91-5.33 23.16-5.23C20.95-4.96 18.41-4.80 15.74-4.80C13.07-4.80 10.54-4.95 8.32-5.23C7.58-5.33 7.16-5.84 7.16-6.66ZM9.25-0.08C8.44-0.08 7.80-0.71 7.80-1.52C7.80-2.33 8.44-2.96 9.25-2.96C10.07-2.96 10.70-2.33 10.70-1.52C10.70-0.71 10.07-0.08 9.25-0.08ZM22.23-0.08C21.42-0.08 20.79-0.71 20.79-1.52C20.79-2.33 21.42-2.96 22.23-2.96C23.04-2.96 23.68-2.33 23.68-1.52C23.68-0.71 23.04-0.08 22.23-0.08ZM13.63-0.49C13.02-0.49 12.57-0.94 12.57-1.54C12.57-2.14 13.02-2.58 13.63-2.58L17.85-2.58C18.46-2.58 18.89-2.14 18.89-1.54C18.89-0.94 18.45-0.49 17.85-0.49Z" fill="currentColor"/>
</svg>