<svg xmlns="http://www.w3.org/2000/svg" viewBox="0 0 24 24" width="24" height="24">
  <title>bus.fill</title>
  <path transform="matrix(0.7167856642867143, 0, 0, 0.7167856642867143, 0.32843343133137326, 18.144477110457792)" d="M8.40-6.11C7.62-6.23 7.24-6.69 7.24-7.54L7.24-18.20C7.24-19.15 7.66-19.65 8.54-19.76C13.13-20.31 19.42-20.29 24.05-19.76C24.93-19.65 25.35-19.16 25.35-18.20L25.35-7.54C25.35-6.68 24.96-6.23 24.18-6.11C19.54-5.40 12.95-5.39 8.40-6.11ZM6.49 5.38L7.90 5.38C8.91 5.38 9.60 4.69 9.60 3.69L9.60 1.83C11.85 1.99 14.12 2.07 16.28 2.07C18.45 2.07 20.72 2.00 22.98 1.84L22.98 3.69C22.98 4.69 23.67 5.38 24.67 5.38L26.09 5.38C27.09 5.38 27.79 4.69 27.79 3.69L27.79-10.79L28.31-10.79C29.05-10.79 29.58-11.27 29.58-11.98L29.58-16.82C29.58-17.52 29.05-17.99 28.31-17.99L27.79-17.99L27.79-19.23C27.79-20.86 26.85-21.83 25.14-22.05C22.69-22.36 19.46-22.52 16.28-22.52C13.11-22.52 9.90-22.37 7.43-22.05C5.73-21.83 4.79-20.85 4.79-19.23L4.79-17.99L4.27-17.99C3.52-17.99 2.99-17.52 2.99-16.82L2.99-11.98C2.99-11.27 3.52-10.79 4.27-10.79L4.79-10.79L4.79 3.69C4.79 4.69 5.48 5.38 6.49 5.38ZM9.15-0.79C8.29-0.79 7.62-1.45 7.62-2.32C7.62-3.19 8.29-3.86 9.15-3.86C10.02-3.86 10.69-3.19 10.69-2.32C10.69-1.45 10.02-0.79 9.15-0.79ZM23.41-0.79C22.55-0.79 21.89-1.45 21.89-2.32C21.89-3.19 22.55-3.86 23.41-3.86C24.29-3.86 24.95-3.19 24.95-2.32C24.95-1.45 24.29-0.79 23.41-0.79ZM13.73-1.27C13.10-1.27 12.66-1.71 12.66-2.34C12.66-2.98 13.10-3.41 13.73-3.41L18.82-3.41C19.45-3.41 19.90-2.98 19.90-2.34C19.90-1.71 19.45-1.27 18.82-1.27Z" fill="currentColor"/>
</svg>