<svg xmlns="http://www.w3.org/2000/svg" viewBox="0 0 24 24" width="24" height="24">
  <title>calendar.day.timeline.trailing.circle.fill</title>
  <path transform="matrix(0.8260729267505647, 0, 0, 0.8260729267505647, 0.2671829622458859, 18.989351403678604)" d="M14.20 3.64C20.88 3.64 26.31-1.78 26.31-8.46C26.31-15.14 20.88-20.57 14.20-20.57C7.52-20.57 2.10-15.14 2.10-8.46C2.10-1.78 7.52 3.64 14.20 3.64ZM20.63-12.26C20.13-12.26 19.77-12.63 19.77-13.09C19.77-13.55 20.13-13.95 20.63-13.95C21.08-13.95 21.47-13.56 21.47-13.09C21.47-12.63 21.08-12.26 20.63-12.26ZM19.08-9.80L17.73-9.80L17.73-11.94C17.73-12.40 17.51-12.60 17.11-12.60L9.15-12.60C8.73-12.60 8.52-12.40 8.52-11.94L8.52-9.80L7.18-9.80L7.18-11.96C7.18-13.27 7.88-13.93 9.19-13.93L17.09-13.93C18.39-13.93 19.08-13.25 19.08-11.96ZM20.63-9.94C20.13-9.94 19.77-10.31 19.77-10.78C19.77-11.24 20.13-11.63 20.63-11.63C21.08-11.63 21.47-11.25 21.47-10.78C21.47-10.31 21.08-9.94 20.63-9.94ZM6.77-8.46C6.77-8.75 6.98-9.01 7.31-9.01L19.88-9.01C20.04-9.25 20.32-9.40 20.63-9.40C21.14-9.40 21.55-8.99 21.55-8.47C21.55-7.96 21.14-7.54 20.63-7.54C20.32-7.54 20.04-7.69 19.88-7.92L7.31-7.92C6.98-7.92 6.77-8.16 6.77-8.46ZM17.73-7.13L19.08-7.13L19.08-4.96C19.08-3.67 18.39-2.99 17.09-2.99L9.19-2.99C7.88-2.99 7.18-3.66 7.18-4.96L7.18-7.13L8.52-7.13L8.52-4.97C8.52-4.52 8.73-4.31 9.15-4.31L17.11-4.31C17.51-4.31 17.73-4.52 17.73-4.97ZM20.63-5.32C20.13-5.32 19.77-5.71 19.77-6.16C19.77-6.63 20.13-7.01 20.63-7.01C21.08-7.01 21.47-6.63 21.47-6.16C21.47-5.70 21.08-5.32 20.63-5.32ZM20.63-3.01C20.13-3.01 19.77-3.40 19.77-3.86C19.77-4.31 20.13-4.70 20.63-4.70C21.08-4.70 21.47-4.32 21.47-3.86C21.47-3.39 21.08-3.01 20.63-3.01Z" fill="currentColor"/>
</svg>