<svg xmlns="http://www.w3.org/2000/svg" viewBox="0 0 24 24" width="24" height="24">
  <title>camera.macro.slash</title>
  <path transform="matrix(0.7217516798239062, 0, 0, 0.7217516798239062, 0.48439556155959274, 17.62564553956495)" d="M18.27-8.75C21.73-9.67 23.92-12.71 23.92-16.39C23.92-17.71 23.66-19.08 23.06-20.40C22.76-21.05 22.00-21.16 21.47-20.64L18.93-18.05L16.76-20.85C16.35-21.39 15.63-21.39 15.21-20.85L13.05-18.05L10.50-20.64C10.00-21.16 9.21-21.06 8.92-20.40C8.65-19.80 8.46-19.21 8.36-18.66ZM27.75 5.39C28.11 5.75 28.71 5.75 29.06 5.39C29.43 5.03 29.43 4.44 29.06 4.08L4.31-20.65C3.96-21.01 3.35-21.01 2.99-20.65C2.64-20.30 2.64-19.69 2.99-19.32ZM26.91-0.12C28.13-1.39 29.11-2.94 29.71-4.65C30-5.46 29.66-6 28.80-6C26.45-6 24.32-5.46 22.50-4.52ZM13.29 4.25C13.22 4.02 13.18 3.75 13.18 3.49L13.18-1.44C10.91-4.18 7.42-6 3.11-6C2.25-6 1.91-5.46 2.20-4.65C3.79-0.08 8.14 3.38 13.29 4.25ZM15.97 4.50C18.49 4.50 20.93 3.87 23.04 2.74L18.75-1.54C18.21-0.97 17.52 0 17.06 1.03L17.06-3.22L14.89-5.39L14.89 3.49C14.89 4.09 15.36 4.50 15.97 4.50Z" fill="currentColor"/>
</svg>