<svg xmlns="http://www.w3.org/2000/svg" viewBox="0 0 24 24" width="24" height="24">
  <title>capsule.on.capsule</title>
  <path transform="matrix(0.6469547637098813, 0, 0, 0.6469547637098813, 0.06671721000758146, 17.477634571645186)" d="M2.99-11.25C2.99-6.77 5.43-3.52 9.33-2.34C10.57 1.42 13.97 3.73 18.59 3.73L24.13 3.73C29.99 3.73 33.90-0.01 33.90-5.68C33.90-10.16 31.45-13.44 27.53-14.61C26.31-18.34 22.90-20.66 18.30-20.66L12.76-20.66C6.89-20.66 2.99-16.92 2.99-11.25ZM8.81-5.68C8.81-5.46 8.81-5.24 8.82-5.02C6.60-6.16 5.27-8.38 5.27-11.25C5.27-15.55 8.24-18.38 12.77-18.38L18.30-18.38C21.28-18.38 23.59-17.14 24.81-15.07C24.59-15.08 24.36-15.09 24.13-15.09L18.59-15.09C12.71-15.09 8.81-11.36 8.81-5.68ZM11.10-5.68C11.10-9.98 14.06-12.81 18.60-12.81L24.13-12.81C28.65-12.81 31.62-9.98 31.62-5.68C31.62-1.37 28.65 1.43 24.13 1.43L18.60 1.43C14.06 1.43 11.10-1.37 11.10-5.68Z" fill="currentColor"/>
</svg>