<svg xmlns="http://www.w3.org/2000/svg" viewBox="0 0 24 24" width="24" height="24">
  
  <path transform="matrix(0.7619047619047619, 0, 0, 0.7619047619047619, -0.27678571428571397, 17.875)" d="M10.27 4.65C10.76 4.65 11.12 4.42 11.71 3.89L16.00 0.01L23.74 0.01C27.26 0.01 29.24-2.00 29.24-5.48L29.24-14.58C29.24-18.06 27.26-20.07 23.74-20.07L8.50-20.07C4.97-20.07 2.99-18.06 2.99-14.58L2.99-5.48C2.99-2.00 5.02 0.01 8.41 0.01L9.15 0.01L9.15 3.39C9.15 4.16 9.56 4.65 10.27 4.65ZM8.53-8.68C8.11-8.68 7.76-9.05 7.76-9.48C7.76-9.90 8.11-10.28 8.53-10.28L13.22-10.28C13.65-10.28 14.00-9.91 14.00-9.48C14.00-9.05 13.65-8.68 13.22-8.68ZM15.77-8.68C15.34-8.68 14.99-9.05 14.99-9.48C14.99-9.90 15.34-10.28 15.77-10.28L23.70-10.28C24.13-10.28 24.48-9.91 24.48-9.48C24.48-9.05 24.13-8.68 23.70-8.68ZM8.53-5.47C8.11-5.47 7.76-5.84 7.76-6.27C7.76-6.71 8.11-7.07 8.53-7.07L10.52-7.07C10.96-7.07 11.30-6.71 11.30-6.27C11.30-5.84 10.96-5.47 10.52-5.47ZM13.07-5.47C12.64-5.47 12.29-5.84 12.29-6.27C12.29-6.71 12.64-7.07 13.07-7.07L18.91-7.07C19.35-7.07 19.70-6.71 19.70-6.27C19.70-5.84 19.35-5.47 18.91-5.47ZM21.47-5.47C21.04-5.47 20.68-5.84 20.68-6.27C20.68-6.71 21.04-7.07 21.47-7.07L23.70-7.07C24.13-7.07 24.48-6.71 24.48-6.27C24.48-5.84 24.13-5.47 23.70-5.47Z" fill="currentColor"/>
</svg>