<svg xmlns="http://www.w3.org/2000/svg" viewBox="0 0 24 24" width="24" height="24">
  <title>car.top.lane.dashed.departure.right.fill</title>
  <path transform="matrix(0.761998001570854, 0, 0, 0.761998001570854, -0.2770643406316533, 18.487400954779986)" d="M14.70 1.10C18.34 3.20 20.50 3.29 21.73 1.16L26.40-6.93L26.80-6.69C27.29-6.41 27.89-6.57 28.16-7.07L28.32-7.37C28.59-7.88 28.46-8.45 27.97-8.73L27.57-8.96L28.73-10.98C29.66-12.59 29.29-14.29 27.75-15.83L27.75-19.68C27.75-20.14 27.39-20.51 26.92-20.51L26.18-20.51C25.71-20.51 25.35-20.14 25.35-19.68L25.35-17.59C22.09-19.44 19.43-19.29 18.15-17.09L16.99-15.08L16.61-15.32C16.10-15.60 15.53-15.45 15.25-14.95L15.07-14.65C14.79-14.16 14.94-13.57 15.42-13.29L15.83-13.05L11.14-4.95C9.91-2.82 11.06-1.00 14.70 1.10ZM3.82-13.99L4.56-13.99C5.03-13.99 5.39-14.36 5.39-14.82L5.39-19.68C5.39-20.14 5.03-20.51 4.56-20.51L3.82-20.51C3.35-20.51 2.99-20.14 2.99-19.68L2.99-14.82C2.99-14.36 3.35-13.99 3.82-13.99ZM20.93-9.69C20.23-10.10 19.15-10.63 18.81-10.83C18.20-11.18 18.09-11.58 18.40-12.21L19.05-13.65C19.62-14.85 20.63-14.84 23.09-13.42C25.55-11.99 26.06-11.12 25.32-10.05L24.40-8.74C23.99-8.16 23.57-8.07 22.99-8.40C22.66-8.60 21.61-9.29 20.93-9.69ZM3.82-5.27L4.56-5.27C5.03-5.27 5.39-5.63 5.39-6.09L5.39-10.95C5.39-11.41 5.03-11.77 4.56-11.77L3.82-11.77C3.35-11.77 2.99-11.41 2.99-10.95L2.99-6.09C2.99-5.63 3.35-5.27 3.82-5.27ZM16.43-1.89C13.97-3.32 13.37-4.15 14.23-5.23L14.71-5.82C15.38-6.68 16.30-6.54 18.41-5.31C20.53-4.09 21.11-3.39 20.71-2.36L20.43-1.64C19.93-0.39 18.90-0.46 16.43-1.89ZM26.18 3.48L26.92 3.48C27.39 3.48 27.75 3.12 27.75 2.65L27.75-2.23C27.75-2.70 27.39-3.05 26.92-3.05L26.18-3.05C25.71-3.05 25.35-2.70 25.35-2.23L25.35 2.65C25.35 3.12 25.71 3.48 26.18 3.48ZM3.82 3.48L4.56 3.48C5.03 3.48 5.39 3.13 5.39 2.65L5.39-2.21C5.39-2.70 5.03-3.05 4.56-3.05L3.82-3.05C3.35-3.05 2.99-2.70 2.99-2.21L2.99 2.65C2.99 3.13 3.35 3.48 3.82 3.48Z" fill="currentColor"/>
</svg>