<svg xmlns="http://www.w3.org/2000/svg" viewBox="0 0 24 24" width="24" height="24">
  
  <path transform="matrix(0.5285228535838389, 0, 0, 0.5285228535838389, 0.4214028685223279, 16.503910589921933)" d="M8.51-0.89L8.96-1.16C8.75-1.38 8.57-1.64 8.40-1.92C7.28-3.87 7.93-6.32 9.89-7.44C11.86-8.58 14.30-7.92 15.42-5.96C15.59-5.70 15.70-5.40 15.80-5.10L25.29-10.58C25.08-10.82 24.89-11.06 24.74-11.34C23.60-13.30 24.26-15.74 26.23-16.88C28.18-18 30.62-17.34 31.76-15.40C31.91-15.12 32.04-14.82 32.12-14.53L32.59-14.80C34.43-15.86 34.77-17.27 33.64-19.23L32.33-21.50C31.43-23.07 30.08-23.60 28.18-23.21L26.65-22.90C24.19-23.37 20.91-23.70 17.80-21.90L16.54-21.18C13.16-19.22 11.92-18.06 10.63-15.61L8.52-11.63L5.16-9.08C2.99-7.45 2.41-5.18 3.57-3.18L4.17-2.14C5.29-0.22 6.68 0.16 8.51-0.89ZM29.70-10.86C31.10-11.67 31.57-13.42 30.75-14.82C29.95-16.22 28.21-16.69 26.80-15.88C25.39-15.06 24.93-13.31 25.73-11.92C26.54-10.51 28.29-10.05 29.70-10.86ZM6.70 5.70C7.03 6.25 7.71 6.41 8.23 6.13L38.80-11.52C39.32-11.82 39.50-12.50 39.21-13.03C38.88-13.59 38.19-13.77 37.68-13.46L7.10 4.18C6.59 4.46 6.40 5.17 6.70 5.70ZM13.37-1.43C14.77-2.24 15.23-3.98 14.43-5.39C13.62-6.79 11.87-7.25 10.48-6.45C9.07-5.64 8.60-3.89 9.41-2.50C10.22-1.09 11.96-0.62 13.37-1.43ZM38.70 6.29C39.45 6.29 40.01 5.94 40.37 5.40C40.63 5.04 40.83 4.50 40.83 4.07C40.83 3.66 40.55 3.39 40.11 3.39C39.77 3.39 39.52 3.62 39.46 4.00C39.33 4.62 39.15 5.02 38.65 5.02C38.06 5.02 37.72 4.15 37.72 2.47C37.72 0.80 38.12-0.05 38.65-0.05C39.09-0.05 39.34 0.38 39.42 0.95C39.49 1.39 39.79 1.61 40.15 1.61C40.55 1.61 40.79 1.32 40.79 0.91C40.79 0.45 40.57-0.21 40.16-0.66C39.79-1.07 39.25-1.31 38.64-1.31C37.56-1.31 36.93-0.64 36.59 0.18C36.27 0.88 36.20 1.70 36.20 2.47C36.20 3.42 36.29 4.30 36.68 5.05C37.10 5.88 37.78 6.29 38.70 6.29ZM26.03 6.22C26.50 6.22 26.79 5.93 26.79 5.46L26.79 3.06L28.46 3.06L28.46 5.46C28.46 5.94 28.75 6.22 29.21 6.22C29.68 6.22 29.96 5.93 29.96 5.46L29.96-0.49C29.96-0.95 29.68-1.24 29.21-1.24C28.75-1.24 28.46-0.95 28.46-0.49L28.46 1.82L26.79 1.82L26.79-0.49C26.79-0.96 26.48-1.24 26.03-1.24C25.57-1.24 25.29-0.95 25.29-0.49L25.29 5.46C25.29 5.94 25.57 6.22 26.03 6.22ZM31.63 6.22L32.98 6.22C34.91 6.22 35.57 4.39 35.57 2.46C35.57 0.38 34.84-1.24 32.98-1.24L31.63-1.24C31.18-1.24 30.88-0.98 30.88-0.47L30.88 5.44C30.88 5.95 31.18 6.22 31.63 6.22ZM32.36 4.98L32.36-0.01L32.79-0.01C33.83-0.01 34.05 1.28 34.05 2.46C34.05 3.67 33.86 4.98 32.79 4.98Z" fill="currentColor"/>
</svg>