<svg xmlns="http://www.w3.org/2000/svg" viewBox="0 0 24 24" width="24" height="24">
  
  <path transform="matrix(0.6185816116950585, 0, 0, 0.6185816116950585, 0.15150416817687584, 17.649691681556355)" d="M19.75-17.94C18.33-15.80 17.59-13.30 17.63-10.88C17.65-10.34 18.05-9.95 18.55-9.95C19.07-9.97 19.43-10.38 19.43-10.95C19.41-12.98 20.04-15.14 21.25-16.97C22.46-18.82 24.18-20.26 26.07-21.02C26.58-21.25 26.80-21.77 26.59-22.25C26.39-22.71 25.88-22.90 25.37-22.70C23.14-21.75 21.15-20.07 19.75-17.94ZM22.73-15.97C21.70-14.41 21.16-12.60 21.22-10.85C21.25-10.32 21.63-9.96 22.14-9.96C22.65-9.97 23.04-10.37 23.04-10.96C22.99-12.29 23.43-13.73 24.27-15.01C25.10-16.27 26.25-17.25 27.50-17.73C28.02-17.96 28.23-18.49 28.03-18.95C27.82-19.42 27.33-19.62 26.84-19.42C25.24-18.80 23.78-17.57 22.73-15.97ZM25.75-14.02C25.09-13.02 24.75-11.84 24.82-10.83C24.82-10.34 25.23-9.96 25.72-9.96C26.29-9.96 26.64-10.41 26.64-10.99C26.60-11.65 26.85-12.40 27.27-13.04C27.71-13.69 28.31-14.20 28.90-14.43C29.45-14.66 29.70-15.18 29.47-15.69C29.27-16.13 28.77-16.34 28.30-16.16C27.32-15.77 26.38-14.99 25.75-14.02ZM2.99 0.21L2.99 2.19L5.80 2.19C6.41 3.56 7.78 4.51 9.41 4.51C11.03 4.51 12.39 3.56 13.00 2.19L13.96 2.19C16.37 2.19 17.48 1.01 17.48-1.54L17.48-4.48C17.48-6.53 16.48-7.80 14.41-8.48L12.74-9.04C10.57-10.92 7.61-13.04 3.73-13.04L2.99-13.04L2.99-11.05L3.73-11.05C6.40-11.05 8.53-10.01 11.23-7.65C11.74-7.20 12.04-7.07 12.69-6.87L13.82-6.50C14.96-6.14 15.52-5.50 15.52-4.44L15.52-1.54C15.52-0.34 15.02 0.21 13.96 0.21L13.31 0.21C13.14-1.82 11.48-3.35 9.41-3.35C7.32-3.35 5.66-1.82 5.48 0.21ZM28.13 4.51C29.75 4.51 31.11 3.56 31.72 2.19L35.32 2.19L35.32 0.21L32.04 0.21C31.86-1.82 30.21-3.35 28.13-3.35C26.04-3.35 24.40-1.82 24.21 0.21L23.57 0.21C22.51 0.21 22.02-0.34 22.02-1.54L22.02-2.81C22.02-4.35 23.13-5.47 25.15-5.72L29.41-6.23C30.06-6.32 30.53-6.47 30.98-6.76L34.78-9.14C34.96-9.26 35.13-9.38 35.32-9.47L35.32-11.77C34.85-11.53 34.38-11.27 33.89-10.96L29.60-8.25L24.90-7.68C21.88-7.31 20.04-5.41 20.04-2.81L20.04-1.46C20.04 1.02 21.18 2.19 23.57 2.19L24.54 2.19C25.14 3.56 26.50 4.51 28.13 4.51ZM28.13 2.63C26.98 2.63 26.06 1.72 26.06 0.57C26.06-0.57 26.98-1.48 28.13-1.48C29.27-1.48 30.19-0.57 30.19 0.57C30.19 1.72 29.27 2.63 28.13 2.63ZM9.41 2.63C8.25 2.63 7.34 1.72 7.34 0.57C7.34-0.57 8.25-1.48 9.41-1.48C10.55-1.48 11.46-0.57 11.46 0.57C11.46 1.72 10.55 2.63 9.41 2.63Z" fill="currentColor"/>
</svg>