<svg xmlns="http://www.w3.org/2000/svg" viewBox="0 0 24 24" width="24" height="24">
  
  <path transform="matrix(0.6420867820416353, 0, 0, 0.6420867820416353, 1.34161023325809, 17.425131677953345)" d="M9.27-6.16C12.77-6.16 14.34-7.00 14.34-9.05L14.34-16.78L14.73-16.78C15.20-16.78 15.57-17.14 15.57-17.61L15.57-17.91C15.57-18.39 15.20-18.75 14.73-18.75L14.34-18.75L14.34-20.66C14.34-22.80 12.46-24.02 9.27-24.02C6.09-24.02 4.20-22.80 4.20-20.66L4.20-18.76L3.82-18.76C3.34-18.76 2.99-18.40 2.99-17.92L2.99-17.63C2.99-17.17 3.34-16.79 3.82-16.79L4.20-16.79L4.20-9.05C4.20-7.00 5.78-6.16 9.27-6.16ZM9.27-16.50C8.59-16.50 7.61-16.44 7.28-16.44C6.70-16.44 6.45-16.68 6.39-17.27L6.27-18.59C6.18-19.68 6.91-20.10 9.27-20.10C11.64-20.10 12.38-19.68 12.27-18.59L12.16-17.27C12.12-16.68 11.85-16.44 11.29-16.44C10.96-16.44 9.91-16.50 9.27-16.50ZM9.27-9.05C6.89-9.05 6.12-9.41 6.30-10.54L6.40-11.17C6.54-12.07 7.24-12.35 9.27-12.35C11.30-12.35 12.02-12.07 12.16-11.17L12.25-10.54C12.41-9.40 11.65-9.05 9.27-9.05ZM16.34-4.99C17.14-5.79 17.61-6.79 17.74-7.90C17.81-8.45 17.44-8.82 16.97-8.82C16.48-8.82 16.24-8.55 16.15-8.00C16.04-7.27 15.75-6.64 15.22-6.09C14.68-5.57 14.06-5.26 13.39-5.18C12.79-5.09 12.49-4.78 12.49-4.36C12.49-3.89 12.84-3.55 13.34-3.57C14.18-3.60 15.41-4.07 16.34-4.99ZM18.64-2.67C20.05-4.07 20.80-5.85 20.93-7.77C20.96-8.34 20.58-8.65 20.16-8.65C19.65-8.65 19.37-8.37 19.32-7.75C19.23-6.28 18.63-4.90 17.53-3.79C16.43-2.70 15.04-2.10 13.58-2.00C13.01-1.96 12.67-1.65 12.67-1.22C12.67-0.73 13.02-0.38 13.56-0.39C15.47-0.41 17.25-1.27 18.64-2.67ZM18.84 7.13L28.99 7.13L28.99 5.16L29.38 5.16C29.85 5.16 30.21 4.78 30.21 4.31L30.21 4.02C30.21 3.55 29.85 3.18 29.38 3.18L28.99 3.18L28.99 1.27C28.99-0.87 27.09-2.10 23.92-2.10C20.73-2.10 18.84-0.87 18.84 1.27L18.84 3.16L18.47 3.16C17.99 3.16 17.64 3.54 17.64 4.01L17.64 4.30C17.64 4.77 17.99 5.14 18.47 5.14L18.84 5.14ZM23.93 5.44C23.24 5.44 22.24 5.50 21.91 5.50C21.34 5.50 21.08 5.25 21.04 4.65L20.92 3.34C20.82 2.26 21.55 1.84 23.93 1.84C26.27 1.84 27.01 2.26 26.92 3.34L26.80 4.65C26.75 5.25 26.48 5.50 25.92 5.50C25.59 5.50 24.56 5.44 23.93 5.44Z" fill="currentColor"/>
</svg>