<svg xmlns="http://www.w3.org/2000/svg" viewBox="0 0 24 24" width="24" height="24">
  <title>car.top.door.front.left.open.fill</title>
  <path transform="matrix(0.6509026188660056, 0, 0, 0.6509026188660056, 3.6924103737604876, 17.507246376811594)" d="M15.41 6.90C21.43 6.90 24.04 5.51 24.04 2.18L24.04-18.20C24.04-21.77 20.89-23.82 15.41-23.82C9.93-23.82 6.80-21.77 6.80-18.20L6.80-14.71L1.82-9.76C1.38-9.33 1.38-8.61 1.82-8.17C2.25-7.73 2.96-7.72 3.41-8.17L6.80-11.55L6.80 2.18C6.80 5.51 9.39 6.90 15.41 6.90ZM15.41-11.06C14.24-11.06 12.49-10.97 11.92-10.97C11.00-10.97 10.61-11.32 10.52-12.27L10.32-14.59C10.16-16.35 11.43-17.06 15.41-17.06C19.39-17.06 20.67-16.35 20.51-14.59L20.31-12.27C20.23-11.32 19.83-10.97 18.90-10.97C18.34-10.97 16.54-11.06 15.41-11.06ZM15.41 1.96C11.36 1.96 10.10 1.35 10.37-0.46L10.52-1.58C10.72-3.04 11.95-3.53 15.41-3.53C18.88-3.53 20.10-3.04 20.31-1.58L20.46-0.46C20.72 1.35 19.46 1.96 15.41 1.96Z" fill="currentColor"/>
</svg>