<svg xmlns="http://www.w3.org/2000/svg" viewBox="0 0 24 24" width="24" height="24">
  <title>car.window.left.xmark</title>
  <path transform="matrix(0.4698972099853157, 0, 0, 0.4698972099853157, 0.5958149779735684, 15.967511013215859)" d="M24.45 2.44C27 2.44 28.29 1.17 28.29-1.36L28.29-7.02C28.29-8.77 27.80-9.74 26.38-10.82L17.26-17.71C15.67-18.90 14.41-19.32 12.46-19.32L6.75-19.32C4.28-19.32 2.99-18.05 2.99-15.61L2.99-1.36C2.99 1.17 4.28 2.44 6.83 2.44ZM23.94-8.52L6.89-8.52C5.87-8.52 5.29-9.12 5.29-10.14L5.29-15.41C5.29-16.48 5.86-17.04 6.89-17.04L12.55-17.04C13.93-17.04 14.73-16.79 15.68-16.05L24.22-9.55C24.70-9.19 24.56-8.52 23.94-8.52ZM33.80-1.97C34.24-1.97 34.48-2.12 34.89-2.52L39.13-6.80L43.37-2.52C43.78-2.12 44.02-1.97 44.45-1.97C45.06-1.97 45.55-2.45 45.55-3.04C45.55-3.45 45.40-3.70 45.05-4.07L40.73-8.41L45.05-12.76C45.40-13.11 45.55-13.37 45.55-13.78C45.55-14.36 45.06-14.85 44.45-14.85C44.02-14.85 43.78-14.70 43.37-14.30L39.13-10.03L34.89-14.30C34.48-14.70 34.23-14.85 33.80-14.85C33.20-14.85 32.70-14.36 32.70-13.78C32.70-13.37 32.86-13.11 33.20-12.76L37.52-8.41L33.20-4.07C32.85-3.70 32.70-3.45 32.70-3.04C32.70-2.45 33.20-1.97 33.80-1.97Z" fill="currentColor"/>
</svg>