<svg xmlns="http://www.w3.org/2000/svg" viewBox="0 0 24 24" width="24" height="24">
  <title>car.side.front.open.crop</title>
  <path transform="matrix(0.9029982363315696, 0, 0, 0.9029982363315696, -0.6984126984126982, 19.682539682539684)" d="M11.95 1.27C13.75 1.27 15.26 0.22 15.93-1.30L25.14-1.30L25.14-3.49L16.28-3.49C16.09-5.74 14.25-7.44 11.95-7.44C9.64-7.44 7.82-5.74 7.62-3.49L6.89-3.49C5.73-3.49 5.19-4.11 5.19-5.43L5.19-6.84C5.19-8.54 6.42-9.80 8.65-10.07L13.37-10.64C14.10-10.73 14.60-10.91 15.12-11.23L19.51-13.98C21.41-15.18 22.78-15.69 25.14-15.89L25.14-18.08C22.29-17.88 20.58-17.26 18.34-15.87L14.25-13.29L10.28-17.26C9.56-17.98 8.71-18.28 7.52-18.28L4.01-18.28C3.39-18.28 2.99-17.88 2.99-17.30C2.99-16.71 3.39-16.30 4.01-16.30L7.66-16.30C8.14-16.30 8.47-16.17 8.77-15.88L11.96-12.68L8.38-12.23C5.02-11.82 2.99-9.73 2.99-6.84L2.99-5.36C2.99-2.59 4.25-1.30 6.89-1.30L7.97-1.30C8.64 0.22 10.15 1.27 11.95 1.27ZM11.95-0.81C10.68-0.81 9.67-1.82 9.67-3.09C9.67-4.37 10.68-5.37 11.95-5.37C13.22-5.37 14.23-4.37 14.23-3.09C14.23-1.82 13.22-0.81 11.95-0.81Z" fill="currentColor"/>
</svg>