<svg xmlns="http://www.w3.org/2000/svg" viewBox="0 0 24 24" width="24" height="24">
  <title>carseat.right.1.fill</title>
  <path transform="matrix(0.7447905922494, 0, 0, 0.7447905922494, -0.22624870468399694, 18.301626651610157)" d="M29.64-0.96C30.63-4.57 28.02-6.19 21.56-6.19C18.70-6.19 15.77-5.93 13.41-5.48C13.86-10.01 12.53-13.73 9.59-15.70C10.10-18.94 7.96-21.08 5.74-21.08C3.90-21.08 2.46-19.63 3.18-16.72L7.64 1.36C8.09 3.19 9.29 4.16 11.09 4.16L24.98 4.16C27.48 4.16 28.57 2.96 29.64-0.96ZM24.77-9.95C25.39-9.95 25.77-10.35 25.77-11.02L25.77-19.08C25.77-19.78 25.37-20.17 24.69-20.17C24.22-20.17 23.93-20.04 23.43-19.69L21.50-18.40C21.22-18.21 21.12-18 21.12-17.72C21.12-17.32 21.42-17.00 21.81-17.00C21.98-17.00 22.13-17.03 22.37-17.21L23.70-18.08L23.80-18.08L23.80-11.02C23.80-10.35 24.18-9.95 24.77-9.95Z" fill="currentColor"/>
</svg>