<svg xmlns="http://www.w3.org/2000/svg" viewBox="0 0 24 24" width="24" height="24">
  <title>cart.circle</title>
  <path transform="matrix(0.8260729267505647, 0, 0, 0.8260729267505647, 0.2671829622458859, 18.989351403678604)" d="M14.20 3.64C20.88 3.64 26.31-1.78 26.31-8.46C26.31-15.14 20.88-20.57 14.20-20.57C7.52-20.57 2.10-15.14 2.10-8.46C2.10-1.78 7.52 3.64 14.20 3.64ZM14.20 1.25C8.82 1.25 4.48-3.08 4.48-8.46C4.48-13.84 8.82-18.19 14.20-18.19C19.58-18.19 23.93-13.84 23.93-8.46C23.93-3.08 19.58 1.25 14.20 1.25ZM12.23-4.57L18.49-4.57C18.87-4.57 19.13-4.83 19.13-5.21C19.13-5.60 18.87-5.86 18.49-5.86L12.30-5.86C11.99-5.86 11.79-6.04 11.75-6.35L11.70-6.79L18.75-6.79C19.63-6.79 20.07-7.31 20.20-8.19L20.65-11.14C20.66-11.21 20.67-11.32 20.67-11.37C20.67-11.70 20.45-11.92 20.06-11.92L10.93-11.92L10.84-12.63C10.76-13.15 10.36-13.49 9.80-13.49L7.85-13.49C7.46-13.49 7.18-13.21 7.18-12.82C7.18-12.43 7.46-12.15 7.85-12.15L9.59-12.15L10.46-6C10.61-5.07 11.19-4.57 12.23-4.57ZM12.47-1.71C13.07-1.71 13.54-2.18 13.54-2.77C13.54-3.38 13.07-3.84 12.47-3.84C11.88-3.84 11.40-3.38 11.40-2.77C11.40-2.18 11.88-1.71 12.47-1.71ZM17.55-1.71C18.14-1.71 18.62-2.18 18.62-2.77C18.62-3.38 18.14-3.84 17.55-3.84C16.96-3.84 16.48-3.38 16.48-2.77C16.48-2.18 16.96-1.71 17.55-1.71Z" fill="currentColor"/>
</svg>