<svg xmlns="http://www.w3.org/2000/svg" viewBox="0 0 24 24" width="24" height="24">
  
  <path transform="matrix(0.8260729267505647, 0, 0, 0.8260729267505647, 0.2671829622458859, 18.989351403678604)" d="M14.20 3.64C20.88 3.64 26.31-1.78 26.31-8.46C26.31-15.14 20.88-20.57 14.20-20.57C7.52-20.57 2.10-15.14 2.10-8.46C2.10-1.78 7.52 3.64 14.20 3.64ZM14.20 1.25C8.82 1.25 4.48-3.08 4.48-8.46C4.48-13.84 8.82-18.19 14.20-18.19C19.58-18.19 23.93-13.84 23.93-8.46C23.93-3.08 19.58 1.25 14.20 1.25ZM10.04-1.88L10.66-1.88C11.29-1.88 11.65-2.18 11.65-2.73C11.65-3.12 11.32-3.46 10.77-3.54L10.77-4.83C10.77-5.38 10.88-5.71 11.18-6.21C12.11-5.86 12.79-5.74 13.58-5.74C14.47-5.74 15.42-5.88 15.96-6.04C16.09-5.61 16.21-5.12 16.21-4.62C16.21-3.97 16.13-3.34 16.13-2.79C16.13-2.19 16.46-1.88 17.10-1.88L17.74-1.88C18.34-1.88 18.73-2.20 18.73-2.73C18.73-3.16 18.46-3.46 17.98-3.53L17.98-4.14C17.98-7.16 20.13-6.23 20.20-10.01C21.21-10.09 21.93-10.73 21.93-11.24C21.93-11.95 21.18-12.69 20.33-13.30C20.14-13.95 19.79-14.44 19.55-14.44C19.29-14.44 18.89-13.96 18.67-13.28C18.22-12.88 17.84-12.29 17.57-11.80L17.36-11.45C17.16-11.07 16.98-10.86 16.73-10.86C14.57-10.86 13.76-11.17 11.72-11.17C10.76-11.17 10.14-10.84 9.76-10.41C9.54-10.17 9.40-10.11 9.05-10.25C8.41-10.50 7.98-11.13 7.98-11.95C7.98-13.05 8.85-13.82 10.10-13.82C10.58-13.82 11.06-13.72 11.65-13.49C12.26-13.24 12.56-14.09 11.99-14.32C11.31-14.60 10.68-14.72 10.10-14.72C8.32-14.72 7.09-13.57 7.09-11.95C7.09-10.76 7.70-9.82 8.68-9.45C8.98-9.32 9.09-9.09 9.08-8.80C9.07-8.51 9.07-8.26 9.07-8.07C9.07-6.29 8.27-6.02 8.51-5.19L9.19-2.61C9.32-2.12 9.61-1.88 10.04-1.88ZM20.13-11.67C19.98-11.71 19.90-11.84 19.93-11.99C19.96-12.14 20.10-12.23 20.26-12.20C20.40-12.16 20.48-12.02 20.45-11.87C20.43-11.72 20.29-11.64 20.13-11.67Z" fill="currentColor"/>
</svg>