<svg xmlns="http://www.w3.org/2000/svg" viewBox="0 0 24 24" width="24" height="24">
  <title>cedisign.square.fill</title>
  <path transform="matrix(0.9141224781289056, 0, 0, 0.9141224781289056, -0.7316550615961437, 19.728976968398502)" d="M6.83 2.48L21.02 2.48C23.55 2.48 24.87 1.18 24.87-1.32L24.87-15.59C24.87-18.08 23.55-19.39 21.02-19.39L6.83-19.39C4.30-19.39 2.99-18.09 2.99-15.59L2.99-1.32C2.99 1.18 4.30 2.48 6.83 2.48ZM13.96-1.96C13.73-1.96 13.58-2.12 13.58-2.34L13.58-3.32C10.80-3.54 9.35-5.71 9.35-8.55C9.35-11.45 10.90-13.57 13.58-13.77L13.58-14.73C13.58-14.95 13.73-15.12 13.96-15.12C14.18-15.12 14.33-14.95 14.33-14.73L14.33-13.78C15.87-13.71 17.26-12.96 17.89-11.60C18.01-11.37 18.09-11.11 18.09-10.83C18.09-10.37 17.79-10.09 17.34-10.09C16.92-10.09 16.72-10.30 16.57-10.70C16.27-11.59 15.39-12.26 14.33-12.36L14.33-4.72C15.42-4.83 16.30-5.44 16.64-6.39C16.77-6.77 16.99-7.00 17.41-7.00C17.87-7.00 18.18-6.70 18.18-6.26C18.18-6.04 18.14-5.85 18.06-5.66C17.51-4.16 16.00-3.39 14.33-3.30L14.33-2.34C14.33-2.11 14.18-1.96 13.96-1.96ZM11.07-8.55C11.07-6.71 11.82-5.02 13.58-4.75L13.58-12.34C11.88-12.09 11.07-10.42 11.07-8.55Z" fill="currentColor"/>
</svg>