<svg xmlns="http://www.w3.org/2000/svg" viewBox="0 0 24 24" width="24" height="24">
  
  <path transform="matrix(0.7442942288123273, 0, 0, 0.7442942288123273, -0.22416048844308767, 18.297426951591802)" d="M4.05 4.43L28.79 4.43C29.37 4.43 29.86 3.95 29.86 3.36C29.86 2.79 29.37 2.31 28.79 2.31L28.18 2.31L28.18 1.39C28.18 0.88 27.88 0.57 27.36 0.57L26.68 0.57L26.68-12.98L27.69-12.98C28.41-12.98 28.83-13.50 28.83-14.04C28.83-14.43 28.61-14.78 28.14-15.06L17.96-20.93C17.48-21.20 16.96-21.35 16.45-21.35C15.95-21.35 15.41-21.20 14.94-20.93L4.77-15.06C4.29-14.78 4.08-14.43 4.08-14.04C4.08-13.50 4.50-12.98 5.21-12.98L6.23-12.98L6.23 0.57L5.55 0.57C5.04 0.57 4.73 0.88 4.73 1.39L4.73 2.31L4.05 2.31C3.47 2.31 2.99 2.79 2.99 3.36C2.99 3.95 3.47 4.43 4.05 4.43ZM16.46-0.96C16.24-0.96 16.08-1.13 16.08-1.35L16.08-2.32C13.30-2.54 11.86-4.71 11.86-7.56C11.86-10.45 13.39-12.56 16.08-12.77L16.08-13.73C16.08-13.96 16.24-14.12 16.46-14.12C16.69-14.12 16.84-13.96 16.84-13.73L16.84-12.79C18.38-12.71 19.76-11.96 20.40-10.61C20.51-10.37 20.60-10.11 20.60-9.83C20.60-9.38 20.30-9.09 19.85-9.09C19.43-9.09 19.22-9.30 19.07-9.70C18.76-10.59 17.89-11.26 16.84-11.37L16.84-3.73C17.93-3.83 18.81-4.43 19.14-5.39C19.28-5.78 19.50-6 19.91-6C20.37-6 20.67-5.71 20.67-5.25C20.67-5.04 20.64-4.85 20.57-4.65C20.02-3.16 18.49-2.39 16.84-2.31L16.84-1.35C16.84-1.11 16.69-0.96 16.46-0.96ZM13.57-7.56C13.57-5.72 14.33-4.02 16.08-3.75L16.08-11.34C14.38-11.09 13.57-9.42 13.57-7.56Z" fill="currentColor"/>
</svg>