<svg xmlns="http://www.w3.org/2000/svg" viewBox="0 0 24 24" width="24" height="24">
  
  <path transform="matrix(0.8563304900485031, 0, 0, 0.8563304900485031, -0.5589563472152537, 19.24535875564476)" d="M4.13 3.21C4.77 3.21 5.25 2.71 5.25 2.07L5.25-19.00C5.25-19.63 4.77-20.13 4.13-20.13C3.47-20.13 2.99-19.63 2.99-19.00L2.99 2.07C2.99 2.71 3.47 3.21 4.13 3.21ZM8.37-15.21L19.88-15.21C20.58-15.21 21.02-15.67 21.02-16.39L21.02-18.66C21.02-19.38 20.58-19.84 19.88-19.84L8.37-19.84C7.65-19.84 7.22-19.38 7.22-18.66L7.22-16.39C7.22-15.67 7.65-15.21 8.37-15.21ZM8.37-9.16L25.20-9.16C25.91-9.16 26.34-9.62 26.34-10.36L26.34-12.62C26.34-13.34 25.91-13.80 25.20-13.80L8.37-13.80C7.65-13.80 7.22-13.34 7.22-12.62L7.22-10.36C7.22-9.62 7.65-9.16 8.37-9.16ZM8.37-3.12L22.44-3.12C23.17-3.12 23.60-3.59 23.60-4.31L23.60-6.57C23.60-7.30 23.17-7.76 22.44-7.76L8.37-7.76C7.65-7.76 7.22-7.30 7.22-6.57L7.22-4.31C7.22-3.59 7.65-3.12 8.37-3.12ZM8.37 2.92L17.37 2.92C18.08 2.92 18.53 2.46 18.53 1.75L18.53-0.52C18.53-1.25 18.08-1.71 17.37-1.71L8.37-1.71C7.65-1.71 7.22-1.25 7.22-0.52L7.22 1.75C7.22 2.46 7.65 2.92 8.37 2.92Z" fill="currentColor"/>
</svg>