<svg xmlns="http://www.w3.org/2000/svg" viewBox="0 0 24 24" width="24" height="24">
  
  <path transform="matrix(0.5272371537431778, 0, 0, 0.5272371537431778, 0.42446709916589453, 16.47018844609206)" d="M17.31 0.34C18.04 0.34 18.53-0.13 18.53-0.89L18.53-2.34L18.56-2.34C19.31-0.69 20.82 0.34 22.79 0.34C26.09 0.34 28.18-2.24 28.18-6.27C28.18-10.32 26.07-12.89 22.82-12.89C20.91-12.89 19.35-11.86 18.63-10.21L18.57-10.21L18.57-16.03C18.57-16.80 18.08-17.31 17.36-17.31C16.62-17.31 16.13-16.80 16.13-16.03L16.13-0.89C16.13-0.12 16.58 0.34 17.31 0.34ZM35.60 0.34C37.99 0.34 40.07-0.94 40.77-2.74C40.88-2.99 40.92-3.22 40.92-3.41C40.92-4.02 40.46-4.44 39.87-4.44C39.32-4.44 39.04-4.22 38.72-3.64C38.12-2.39 37.11-1.68 35.63-1.68C33.46-1.68 32.04-3.42 32.04-6.29C32.04-9.13 33.46-10.91 35.63-10.91C37.04-10.91 38.07-10.23 38.71-8.88C38.99-8.36 39.28-8.14 39.81-8.14C40.42-8.14 40.88-8.53 40.88-9.14C40.88-9.33 40.83-9.54 40.76-9.74C40.13-11.58 38.05-12.93 35.55-12.93C31.90-12.93 29.53-10.31 29.53-6.27C29.53-2.21 31.91 0.34 35.60 0.34ZM7.29 0.34C9.07 0.34 10.75-0.61 11.47-2.11L11.50-2.11L11.50-0.80C11.52-0.08 11.99 0.35 12.68 0.35C13.38 0.35 13.88-0.11 13.88-0.89L13.88-8.64C13.88-11.23 11.91-12.91 8.79-12.91C6.41-12.91 4.50-11.93 3.83-10.38C3.70-10.10 3.63-9.82 3.63-9.56C3.63-8.96 4.08-8.57 4.70-8.57C5.13-8.57 5.47-8.73 5.72-9.09C6.39-10.37 7.31-10.95 8.72-10.95C10.41-10.95 11.43-10.00 11.43-8.46L11.43-7.50L7.78-7.29C4.70-7.13 2.99-5.73 2.99-3.49C2.99-1.20 4.77 0.34 7.29 0.34ZM22.15-1.69C20.05-1.69 18.57-3.50 18.57-6.27C18.57-9.04 20.06-10.85 22.15-10.85C24.29-10.85 25.66-9.07 25.66-6.27C25.66-3.46 24.29-1.69 22.15-1.69ZM7.95-1.56C6.48-1.56 5.47-2.37 5.47-3.57C5.47-4.73 6.41-5.51 8.11-5.61L11.43-5.84L11.43-4.66C11.43-2.91 9.89-1.56 7.95-1.56Z" fill="currentColor"/>
</svg>