<svg xmlns="http://www.w3.org/2000/svg" viewBox="0 0 24 24" width="24" height="24">
  <title>checkmark.rectangle</title>
  <path transform="matrix(0.7204164907837344, 0, 0, 0.7204164907837344, -0.1528070915998314, 18.08695652173913)" d="M6.83 2.48L26.91 2.48C29.44 2.48 30.75 1.18 30.75-1.31L30.75-15.59C30.75-18.08 29.44-19.38 26.91-19.38L6.83-19.38C4.30-19.38 2.99-18.09 2.99-15.59L2.99-1.31C2.99 1.18 4.30 2.48 6.83 2.48ZM6.97 0.19C5.88 0.19 5.29-0.38 5.29-1.51L5.29-15.39C5.29-16.52 5.88-17.10 6.97-17.10L26.77-17.10C27.84-17.10 28.45-16.52 28.45-15.39L28.45-1.51C28.45-0.38 27.84 0.19 26.77 0.19ZM15.62-2.89C16.04-2.89 16.41-3.11 16.65-3.48L21.89-11.67C22.04-11.92 22.18-12.20 22.18-12.47C22.18-13.04 21.67-13.43 21.12-13.43C20.77-13.43 20.45-13.24 20.20-12.84L15.57-5.41L13.39-8.19C13.11-8.55 12.83-8.68 12.48-8.68C11.91-8.68 11.46-8.23 11.46-7.64C11.46-7.36 11.57-7.10 11.77-6.86L14.53-3.48C14.85-3.07 15.19-2.89 15.62-2.89Z" fill="currentColor"/>
</svg>