<svg xmlns="http://www.w3.org/2000/svg" viewBox="0 0 24 24" width="24" height="24">
  
  <path transform="matrix(0.8926080892608089, 0, 0, 0.8926080892608089, 0.07008368200836834, 19.552301255230127)" d="M3.39-17.34L12.32-8.20C12.62-7.89 12.97-7.73 13.37-7.73C13.77-7.73 14.13-7.90 14.43-8.20L23.36-17.34C23.61-17.60 23.74-17.92 23.74-18.29C23.74-19.05 23.14-19.66 22.39-19.66C22.02-19.66 21.67-19.51 21.41-19.24L13.37-11.00L5.33-19.24C5.06-19.50 4.72-19.66 4.35-19.66C3.59-19.66 2.99-19.05 2.99-18.29C2.99-17.92 3.13-17.60 3.39-17.34ZM3.39-6.87L12.32 2.26C12.62 2.58 12.97 2.74 13.37 2.74C13.77 2.73 14.12 2.57 14.43 2.26L23.36-6.87C23.61-7.13 23.74-7.44 23.74-7.82C23.74-8.59 23.14-9.19 22.39-9.19C22.02-9.19 21.67-9.04 21.41-8.78L13.37-0.53L5.33-8.78C5.06-9.04 4.72-9.19 4.35-9.19C3.59-9.19 2.99-8.59 2.99-7.82C2.99-7.44 3.13-7.13 3.39-6.87Z" fill="currentColor"/>
</svg>