<svg xmlns="http://www.w3.org/2000/svg" viewBox="0 0 24 24" width="24" height="24">
  
  <path transform="matrix(0.9141224781289056, 0, 0, 0.9141224781289056, -0.7316550615961437, 19.728976968398502)" d="M6.83 2.48L21.02 2.48C23.55 2.48 24.87 1.18 24.87-1.32L24.87-15.59C24.87-18.08 23.55-19.39 21.02-19.39L6.83-19.39C4.30-19.39 2.99-18.09 2.99-15.59L2.99-1.32C2.99 1.18 4.30 2.48 6.83 2.48ZM6.97 0.19C5.88 0.19 5.29-0.38 5.29-1.51L5.29-15.39C5.29-16.52 5.88-17.10 6.97-17.10L20.88-17.10C21.96-17.10 22.57-16.52 22.57-15.39L22.57-1.51C22.57-0.38 21.96 0.19 20.88 0.19ZM15.18-4.72L19.68-9.50C20.06-9.91 20.07-10.52 19.71-10.89C19.30-11.29 18.68-11.30 18.30-10.90L13.95-6.27L9.57-10.90C9.20-11.30 8.57-11.30 8.17-10.89C7.82-10.51 7.82-9.91 8.20-9.50L12.70-4.72C13.45-3.91 14.43-3.91 15.18-4.72Z" fill="currentColor"/>
</svg>