<svg xmlns="http://www.w3.org/2000/svg" viewBox="0 0 24 24" width="24" height="24">
  <title>chevron.up.circle.fill</title>
  <path transform="matrix(0.8260729267505647, 0, 0, 0.8260729267505647, 0.2671829622458859, 18.989351403678604)" d="M14.20 3.64C20.88 3.64 26.31-1.78 26.31-8.46C26.31-15.14 20.88-20.57 14.20-20.57C7.52-20.57 2.10-15.14 2.10-8.46C2.10-1.78 7.52 3.64 14.20 3.64ZM8.21-5.59C7.84-5.95 7.84-6.60 8.25-7.03L12.91-12C13.70-12.83 14.72-12.84 15.50-12L20.17-7.03C20.58-6.61 20.59-5.95 20.21-5.59C19.78-5.16 19.13-5.16 18.74-5.58L14.21-10.38L9.68-5.58C9.29-5.16 8.64-5.16 8.21-5.59Z" fill="currentColor"/>
</svg>