<svg xmlns="http://www.w3.org/2000/svg" viewBox="0 0 24 24" width="24" height="24">
  <title>chevron.compact.backward</title>
  <path transform="matrix(0.9429097605893186, 0, 0, 0.9429097605893186, 6.171270718232043, 20)" d="M6.71 1.25C6.93 1.77 7.38 2.12 7.91 2.12C8.77 2.11 9.38 1.49 9.38 0.69C9.38 0.27 9.14-0.27 8.98-0.67L5.81-8.48L8.98-16.30C9.14-16.70 9.38-17.25 9.38-17.67C9.38-18.46 8.77-19.09 7.91-19.09C7.38-19.09 6.93-18.75 6.71-18.23L3.50-10.31C3.25-9.70 2.99-9.07 2.99-8.48C2.99-7.90 3.25-7.28 3.50-6.66Z" fill="currentColor"/>
</svg>