<svg xmlns="http://www.w3.org/2000/svg" viewBox="0 0 24 24" width="24" height="24">
  
  <path transform="matrix(0.7170868347338936, 0, 0, 0.7170868347338936, 0.6932773109243691, 18.07563025210084)" d="M15.77-12.14C18.59-12.14 20.91-14.46 20.91-17.29C20.91-20.09 18.59-22.42 15.77-22.42C12.93-22.42 10.62-20.09 10.62-17.29C10.62-14.46 12.93-12.14 15.77-12.14ZM7.24-3.33C10.07-3.33 12.38-5.65 12.38-8.47C12.38-11.27 10.07-13.61 7.24-13.61C4.41-13.61 2.10-11.27 2.10-8.47C2.10-5.65 4.41-3.33 7.24-3.33ZM24.30-3.33C27.12-3.33 29.44-5.65 29.44-8.47C29.44-11.27 27.12-13.61 24.30-13.61C21.47-13.61 19.16-11.27 19.16-8.47C19.16-5.65 21.47-3.33 24.30-3.33ZM15.77 5.47C18.59 5.47 20.91 3.15 20.91 0.34C20.91-2.47 18.59-4.79 15.77-4.79C12.93-4.79 10.62-2.47 10.62 0.34C10.62 3.15 12.93 5.47 15.77 5.47Z" fill="currentColor"/>
</svg>