<svg xmlns="http://www.w3.org/2000/svg" viewBox="0 0 24 24" width="24" height="24">
  <title>circle.square</title>
  <path transform="matrix(0.9141224781289056, 0, 0, 0.9141224781289056, -0.7316550615961437, 19.728976968398502)" d="M6.83 2.48L21.02 2.48C23.55 2.48 24.87 1.18 24.87-1.32L24.87-15.59C24.87-18.08 23.55-19.39 21.02-19.39L6.83-19.39C4.30-19.39 2.99-18.09 2.99-15.59L2.99-1.32C2.99 1.18 4.30 2.48 6.83 2.48ZM6.97 0.19C5.88 0.19 5.29-0.38 5.29-1.51L5.29-15.39C5.29-16.52 5.88-17.10 6.97-17.10L20.88-17.10C21.96-17.10 22.57-16.52 22.57-15.39L22.57-1.51C22.57-0.38 21.96 0.19 20.88 0.19ZM13.93-2.29C17.36-2.29 20.11-5.04 20.11-8.46C20.11-11.88 17.36-14.64 13.93-14.64C10.51-14.64 7.76-11.88 7.76-8.46C7.76-5.04 10.51-2.29 13.93-2.29ZM13.93-4.34C11.65-4.34 9.81-6.19 9.81-8.46C9.81-10.75 11.65-12.59 13.93-12.59C16.21-12.59 18.06-10.75 18.06-8.46C18.06-6.19 16.21-4.34 13.93-4.34Z" fill="currentColor"/>
</svg>