<svg xmlns="http://www.w3.org/2000/svg" viewBox="0 0 24 24" width="24" height="24">
  <title>circle.slash</title>
  <path transform="matrix(0.8260729267505647, 0, 0, 0.8260729267505647, 0.2671829622458859, 18.989351403678604)" d="M24.23-1.76C25.55-3.68 26.31-5.99 26.31-8.46C26.31-15.08 20.82-20.57 14.19-20.57C11.73-20.57 9.42-19.80 7.51-18.49L9.21-16.79C10.65-17.67 12.35-18.18 14.18-18.18C19.57-18.18 23.92-13.85 23.92-8.46C23.92-6.63 23.41-4.92 22.54-3.48ZM24.40 3.08C24.77 3.45 25.37 3.43 25.72 3.07C26.09 2.70 26.09 2.11 25.72 1.75L4.00-19.98C3.63-20.34 3.04-20.34 2.66-19.98C2.31-19.63 2.31-19.01 2.66-18.66ZM19.17-0.13C17.73 0.75 16.02 1.27 14.19 1.27C8.80 1.27 4.48-3.07 4.48-8.46C4.48-10.29 4.99-12 5.87-13.44L4.16-15.15C2.86-13.24 2.10-10.93 2.10-8.46C2.10-1.83 7.58 3.64 14.20 3.64C16.66 3.64 18.97 2.88 20.88 1.59Z" fill="currentColor"/>
</svg>