<svg xmlns="http://www.w3.org/2000/svg" viewBox="0 0 24 24" width="24" height="24">
  <title>circle.on.square.merge</title>
  <path transform="matrix(0.7515044767356525, 0, 0, 0.7515044767356525, -0.2457067371202113, 18.147071774548657)" d="M19.29 4.64C24.97 4.64 29.60 0.02 29.60-5.67C29.60-10.22 26.63-14.10 22.54-15.46L22.54-17.20C22.54-19.70 21.22-21 18.69-21L6.83-21C4.30-21 2.99-19.71 2.99-17.20L2.99-5.26C2.99-2.75 4.30-1.45 6.83-1.45L9.88-1.45C11.48 2.13 15.09 4.64 19.29 4.64ZM19.29 2.30C15.62 2.30 12.59-0.11 11.66-3.38C11.60-3.63 11.46-3.75 11.20-3.75L6.97-3.75C5.88-3.75 5.29-4.31 5.29-5.45L5.29-17.00C5.29-18.14 5.88-18.71 6.97-18.71L18.56-18.71C19.64-18.71 20.25-18.14 20.25-17.00L20.25-13.96C20.25-13.70 20.38-13.54 20.65-13.50C24.53-12.89 27.26-9.52 27.26-5.67C27.26-1.22 23.73 2.30 19.29 2.30Z" fill="currentColor"/>
</svg>