<svg xmlns="http://www.w3.org/2000/svg" viewBox="0 0 24 24" width="24" height="24">
  <title>circle.lefthalf.striped.horizontal</title>
  <path transform="matrix(0.8260729267505647, 0, 0, 0.8260729267505647, 0.2671829622458859, 18.989351403678604)" d="M14.20 3.64C20.88 3.64 26.31-1.78 26.31-8.46C26.31-15.14 20.88-20.57 14.20-20.57C7.52-20.57 2.10-15.14 2.10-8.46C2.10-1.78 7.52 3.64 14.20 3.64ZM14.21-0.07L9.28-0.07C8.52-0.53 7.83-1.07 7.22-1.70L14.21-1.70L14.21-2.80L6.30-2.80C5.98-3.25 5.70-3.73 5.45-4.22L14.21-4.22L14.21-5.32L5.00-5.32C4.84-5.78 4.72-6.26 4.63-6.75L14.21-6.75L14.21-7.85L4.50-7.85C4.49-8.05 4.48-8.26 4.48-8.46C4.48-8.73 4.49-9 4.51-9.27L14.21-9.27L14.21-10.37L4.66-10.37C4.77-10.86 4.90-11.33 5.06-11.80L14.21-11.80L14.21-12.89L5.54-12.89C5.80-13.39 6.11-13.88 6.45-14.32L14.21-14.32L14.21-15.42L7.41-15.42C7.97-15.97 8.60-16.45 9.28-16.85L14.21-16.85L14.21-17.94L12.06-17.94C12.75-18.11 13.46-18.19 14.20-18.19C19.58-18.19 23.93-13.84 23.93-8.46C23.93-3.08 19.58 1.25 14.20 1.25C13.46 1.25 12.75 1.17 12.06 1.02L14.21 1.02Z" fill="currentColor"/>
</svg>