<svg xmlns="http://www.w3.org/2000/svg" viewBox="0 0 24 24" width="24" height="24">
  <title>cloud.heavyrain</title>
  <path transform="matrix(0.7282788896428103, 0, 0, 0.7282788896428103, 0.5893491157917499, 18.053428805681165)" d="M7.77-3.95L22.37-3.95C26.30-3.95 29.24-6.93 29.24-10.64C29.24-14.46 26.16-17.30 22.14-17.30C20.70-20.13 18.01-22.04 14.46-22.04C9.97-22.04 6.33-18.59 5.89-14.23C3.73-13.57 2.10-11.70 2.10-9.16C2.10-6.27 4.22-3.95 7.77-3.95ZM7.78-6.15C5.45-6.15 4.29-7.43 4.29-9.11C4.29-10.50 5.11-11.71 7.08-12.22C7.75-12.40 7.98-12.71 8.04-13.41C8.38-17.25 11.16-19.85 14.46-19.85C17.02-19.85 19.05-18.43 20.32-15.88C20.61-15.29 20.96-15.08 21.68-15.08C25.16-15.08 27.04-13.05 27.04-10.59C27.04-8.12 25.09-6.15 22.45-6.15ZM10.48 5.02L13.91-0.91C14.13-1.31 14.02-1.75 13.64-1.97C13.25-2.19 12.82-2.07 12.60-1.68L9.16 4.29C8.95 4.64 9.05 5.10 9.43 5.32C9.81 5.53 10.27 5.39 10.48 5.02ZM5.81 5.03L9.23-0.91C9.46-1.30 9.34-1.75 8.96-1.97C8.58-2.19 8.16-2.06 7.92-1.68L4.49 4.29C4.28 4.65 4.37 5.10 4.76 5.32C5.14 5.53 5.59 5.39 5.81 5.03ZM15.14 5.03L18.57-0.91C18.80-1.30 18.68-1.75 18.30-1.97C17.92-2.19 17.48-2.06 17.26-1.68L13.82 4.29C13.62 4.65 13.71 5.10 14.10 5.32C14.47 5.53 14.93 5.39 15.14 5.03ZM19.78 5.03L23.24-0.94C23.45-1.31 23.34-1.77 22.97-1.97C22.59-2.17 22.15-2.07 21.93-1.69L18.50 4.27C18.28 4.64 18.39 5.10 18.76 5.32C19.11 5.53 19.58 5.39 19.78 5.03Z" fill="currentColor"/>
</svg>