<svg xmlns="http://www.w3.org/2000/svg" viewBox="0 0 24 24" width="24" height="24">
  
  <path transform="matrix(0.8260729267505647, 0, 0, 0.8260729267505647, 0.2671829622458859, 18.989351403678604)" d="M14.20 3.64C20.88 3.64 26.31-1.78 26.31-8.46C26.31-15.14 20.88-20.57 14.20-20.57C7.52-20.57 2.10-15.14 2.10-8.46C2.10-1.78 7.52 3.64 14.20 3.64ZM14.20 1.25C8.82 1.25 4.48-3.08 4.48-8.46C4.48-13.84 8.82-18.19 14.20-18.19C19.58-18.19 23.93-13.84 23.93-8.46C23.93-3.08 19.58 1.25 14.20 1.25ZM10.54-7.37L17.33-7.37C19.14-7.37 20.50-8.75 20.50-10.46C20.50-12.25 19.07-13.55 17.20-13.55C16.50-14.91 15.25-15.76 13.65-15.76C11.58-15.76 9.88-14.17 9.67-12.12C8.66-11.80 7.91-10.93 7.91-9.77C7.91-8.44 8.88-7.37 10.54-7.37ZM12.14-4.02C12.06-3.84 12.13-3.71 12.33-3.71L13.57-3.71L12.62-1.41C12.57-1.31 12.60-1.23 12.67-1.18C12.74-1.16 12.82-1.18 12.90-1.27L16.22-4.54C16.37-4.70 16.31-4.91 16.09-4.91L14.61-4.91L15.28-6.19C15.35-6.34 15.30-6.48 15.14-6.48L13.46-6.48C13.27-6.48 13.17-6.41 13.10-6.26ZM10.30-3.90L11.10-5.27C11.25-5.53 11.17-5.87 10.90-6.02C10.64-6.18 10.31-6.08 10.16-5.82L9.36-4.44C9.21-4.18 9.29-3.84 9.57-3.70C9.83-3.55 10.16-3.64 10.30-3.90ZM18.25-3.90L19.04-5.27C19.20-5.53 19.11-5.87 18.84-6.02C18.59-6.18 18.26-6.08 18.11-5.82L17.31-4.44C17.16-4.18 17.24-3.84 17.52-3.70C17.78-3.55 18.11-3.64 18.25-3.90Z" fill="currentColor"/>
</svg>