<svg xmlns="http://www.w3.org/2000/svg" viewBox="0 0 24 24" width="24" height="24">
  
  <path transform="matrix(0.6399200099987502, 0, 0, 0.6399200099987502, 1.2125984251968505, 17.2529236330073)" d="M26.68-9C30.32-9.71 32.48-12.69 32.48-14.65C32.48-15.13 32.27-15.47 31.90-15.47C31.30-15.47 30.42-14.73 28.78-14.73C25.95-14.72 24.16-16.44 24.16-19.03C24.16-20.63 24.96-21.77 24.96-22.42C24.96-22.79 24.71-23.04 24.23-23.03C22.10-22.95 19.27-20.55 18.62-17.38C19.01-17.00 19.38-16.51 19.69-15.87C23.55-15.60 26.54-12.66 26.68-9ZM6.15-2.77L19.16-2.77C22.50-2.77 25.08-5.31 25.08-8.61C25.08-11.94 22.43-14.44 18.86-14.45C17.53-16.99 15.12-18.62 12.09-18.62C8.19-18.62 4.91-15.62 4.56-11.71C2.53-11.12 1.23-9.40 1.23-7.29C1.23-4.61 3.23-2.77 6.15-2.77ZM15.42 2.91L16.93 0.29C17.16-0.09 17.04-0.54 16.66-0.76C16.28-0.98 15.86-0.86 15.62-0.47L14.10 2.17C13.89 2.53 13.99 2.98 14.38 3.20C14.75 3.41 15.21 3.28 15.42 2.91ZM6.09 2.92L7.61 0.30C7.84-0.08 7.72-0.53 7.34-0.75C6.96-0.97 6.53-0.84 6.29-0.46L4.78 2.18C4.56 2.54 4.66 2.99 5.05 3.21C5.43 3.42 5.88 3.29 6.09 2.92ZM19.10 6.20L20.61 3.59C20.84 3.21 20.72 2.75 20.34 2.53C19.96 2.31 19.52 2.44 19.30 2.84L17.78 5.46C17.57 5.82 17.66 6.28 18.05 6.50C18.43 6.71 18.89 6.57 19.10 6.20ZM9.77 6.21L11.29 3.60C11.51 3.21 11.39 2.77 11.02 2.54C10.63 2.32 10.21 2.45 9.97 2.84L8.45 5.47C8.24 5.84 8.34 6.28 8.73 6.50C9.11 6.73 9.56 6.59 9.77 6.21Z" fill="currentColor"/>
</svg>