<svg xmlns="http://www.w3.org/2000/svg" viewBox="0 0 24 24" width="24" height="24">
  
  <path transform="matrix(0.8260729267505647, 0, 0, 0.8260729267505647, 0.2671829622458859, 18.97967086156825)" d="M14.20 3.66C20.88 3.66 26.31-1.77 26.31-8.45C26.31-15.13 20.88-20.55 14.20-20.55C7.52-20.55 2.10-15.13 2.10-8.45C2.10-1.77 7.52 3.66 14.20 3.66ZM21.75-11.45C21.75-10.44 20.59-8.94 18.70-8.72C18.54-10.41 17.23-11.71 15.47-11.93C15.34-12.09 15.21-12.27 15.07-12.41C15.28-14.09 16.71-15.38 17.81-15.42C18.04-15.42 18.18-15.32 18.18-15.14C18.18-14.82 17.78-14.29 17.78-13.54C17.78-12.28 18.62-11.47 20.00-11.47C20.77-11.47 21.20-11.82 21.48-11.82C21.66-11.82 21.75-11.66 21.75-11.45ZM9.05-5.50C7.63-5.50 6.68-6.42 6.68-7.69C6.68-8.72 7.30-9.52 8.21-9.82C8.41-11.63 9.95-13.03 11.79-13.03C13.22-13.03 14.33-12.26 14.96-11.10C16.63-11.07 17.87-9.88 17.87-8.32C17.87-6.73 16.64-5.50 15.05-5.50ZM9.63-2.96C9.50-2.77 9.23-2.68 9.01-2.81C8.79-2.93 8.73-3.22 8.84-3.42L9.50-4.57C9.63-4.78 9.90-4.86 10.11-4.73C10.35-4.59 10.42-4.34 10.29-4.11ZM13.55-2.98C13.43-2.77 13.16-2.68 12.95-2.81C12.70-2.93 12.66-3.22 12.77-3.43L13.43-4.57C13.55-4.79 13.83-4.86 14.04-4.73C14.26-4.59 14.36-4.34 14.21-4.10ZM11.19-1.70C11.07-1.49 10.78-1.41 10.58-1.54C10.35-1.65 10.27-1.93 10.39-2.16L11.03-3.25C11.16-3.46 11.43-3.52 11.64-3.41C11.88-3.28 11.94-3 11.81-2.78ZM15.09-1.70C14.96-1.48 14.70-1.39 14.48-1.52C14.25-1.65 14.17-1.92 14.30-2.16L14.93-3.23C15.06-3.46 15.33-3.52 15.55-3.41C15.77-3.29 15.84-2.99 15.73-2.78Z" fill="currentColor"/>
</svg>