<svg xmlns="http://www.w3.org/2000/svg" viewBox="0 0 24 24" width="24" height="24">
  
  <path transform="matrix(0.8260729267505647, 0, 0, 0.8260729267505647, 0.2671829622458859, 18.97967086156825)" d="M14.20 3.66C20.88 3.66 26.31-1.77 26.31-8.45C26.31-15.13 20.88-20.55 14.20-20.55C7.52-20.55 2.10-15.13 2.10-8.45C2.10-1.77 7.52 3.66 14.20 3.66ZM22.20-9.73C22.20-8.68 20.99-7.10 19.01-6.86C18.83-8.64 17.45-10.00 15.60-10.24C15.47-10.42 15.34-10.59 15.19-10.75C15.40-12.50 16.91-13.86 18.07-13.91C18.29-13.92 18.45-13.79 18.45-13.62C18.45-13.30 18.02-12.71 18.02-11.93C18.02-10.61 18.93-9.76 20.37-9.76C21.18-9.76 21.62-10.13 21.91-10.13C22.10-10.13 22.20-9.95 22.20-9.73ZM8.84-3.49C7.34-3.49 6.34-4.46 6.34-5.81C6.34-6.87 7.00-7.72 7.97-8.04C8.17-9.95 9.79-11.44 11.72-11.44C13.24-11.44 14.41-10.62 15.08-9.40C16.84-9.36 18.15-8.10 18.15-6.45C18.15-4.78 16.86-3.49 15.16-3.49Z" fill="currentColor"/>
</svg>