<svg xmlns="http://www.w3.org/2000/svg" viewBox="0 0 24 24" width="24" height="24">
  <title>cloud.moon</title>
  <path transform="matrix(0.6375105583639747, 0, 0, 0.6375105583639747, 1.2977422755521841, 17.509864685664397)" d="M6.25 1.77L18.97 1.77C22.45 1.77 25.15-0.86 25.15-4.25C25.15-4.30 25.15-4.34 25.15-4.37C28.93-4.46 31.41-6.61 32.33-9.07C32.74-10.09 32.23-11.00 31.23-11.00C30.47-11.00 29.86-10.68 28.61-10.68C25.70-10.68 24.19-12.28 24.19-14.99C24.19-16.35 24.61-17.12 24.61-17.78C24.61-18.80 23.71-19.30 22.63-18.94C20.03-18.07 17.88-15.34 17.88-12.07C17.88-11.95 17.88-11.84 17.88-11.73C16.45-13.41 14.43-14.38 12.08-14.38C8.14-14.38 4.88-11.40 4.43-7.50C2.44-6.87 1.10-5.13 1.10-2.95C1.10-0.21 3.19 1.77 6.25 1.77ZM19.79-12.11C19.79-14.29 21.06-16.04 22.58-16.91L22.71-16.82C22.52-16.25 22.34-15.46 22.34-14.55C22.34-11.19 24.76-8.85 28.17-8.85C29.02-8.85 29.77-9 30.28-9.18L30.38-9.08C29.63-7.69 27.74-6.27 24.80-6.30C24.08-8.27 22.34-9.71 20.11-10.13C19.90-10.75 19.79-11.41 19.79-12.11ZM6.22-0.39C4.29-0.39 3.27-1.49 3.27-2.92C3.27-4.14 4.00-5.18 5.70-5.63C6.28-5.79 6.48-6.05 6.54-6.66C6.87-9.97 9.22-12.21 12.08-12.21C14.30-12.21 16.03-10.98 17.13-8.82C17.39-8.31 17.70-8.12 18.30-8.12C21.34-8.12 22.98-6.35 22.98-4.21C22.98-2.07 21.28-0.39 18.98-0.39Z" fill="currentColor"/>
</svg>