<svg xmlns="http://www.w3.org/2000/svg" viewBox="0 0 24 24" width="24" height="24">
  
  <path transform="matrix(0.9141224781289056, 0, 0, 0.9141224781289056, -0.7316550615961437, 19.728976968398502)" d="M6.83 2.48L21.02 2.48C23.55 2.48 24.87 1.18 24.87-1.32L24.87-15.59C24.87-18.08 23.55-19.39 21.02-19.39L6.83-19.39C4.30-19.39 2.99-18.09 2.99-15.59L2.99-1.32C2.99 1.18 4.30 2.48 6.83 2.48ZM6.97 0.19C5.88 0.19 5.29-0.38 5.29-1.51L5.29-15.39C5.29-16.52 5.88-17.10 6.97-17.10L20.88-17.10C21.96-17.10 22.57-16.52 22.57-15.39L22.57-1.51C22.57-0.38 21.96 0.19 20.88 0.19ZM11.38-1.82C11.57-1.82 11.70-1.91 11.74-2.12L12.14-3.71C12.53-3.55 12.95-3.45 13.42-3.40L13.16-2.38C13.15-2.32 13.14-2.25 13.14-2.19C13.14-1.98 13.30-1.82 13.51-1.82C13.71-1.82 13.84-1.91 13.89-2.12L14.19-3.36C15.90-3.41 17.46-4.24 18-5.73C18.07-5.93 18.11-6.12 18.11-6.32C18.11-6.82 17.77-7.05 17.37-7.05C16.95-7.05 16.75-6.82 16.61-6.46C16.27-5.52 15.50-4.93 14.55-4.79L16.17-11.32C16.32-11.11 16.45-10.88 16.54-10.63C16.66-10.25 16.86-10.04 17.30-10.04C17.73-10.04 18.02-10.30 18.02-10.76C18.02-10.96 17.98-11.20 17.88-11.40C17.59-12.07 17.14-12.60 16.58-12.98L16.97-14.54C17.00-14.65 17.00-14.71 17.00-14.74C17.00-14.94 16.86-15.11 16.64-15.11C16.42-15.11 16.30-15 16.24-14.80L15.89-13.36C15.49-13.54 15.06-13.64 14.61-13.69L14.82-14.54C14.86-14.65 14.87-14.71 14.87-14.74C14.87-14.94 14.72-15.11 14.50-15.11C14.29-15.11 14.16-15 14.10-14.80L13.84-13.72C11.02-13.63 9.41-11.50 9.41-8.55C9.41-6.59 10.10-4.97 11.44-4.08L11.02-2.38C11.00-2.32 10.99-2.25 10.99-2.19C10.99-1.98 11.16-1.82 11.38-1.82ZM12.50-5.19L14.29-12.33C14.74-12.29 15.16-12.14 15.53-11.91L13.75-4.76C13.27-4.80 12.86-4.96 12.50-5.19ZM11.09-8.55C11.09-10.37 11.86-11.99 13.48-12.29L11.87-5.80C11.33-6.52 11.09-7.51 11.09-8.55Z" fill="currentColor"/>
</svg>