<svg xmlns="http://www.w3.org/2000/svg" viewBox="0 0 24 24" width="24" height="24">
  
  <path transform="matrix(0.7595312268209464, 0, 0, 0.7595312268209464, 0.4067645749888742, 18.430796617712506)" d="M15.26 4.70C22.50 4.70 28.43-1.22 28.43-8.46C28.43-15.70 22.50-21.63 15.26-21.63C8.03-21.63 2.10-15.70 2.10-8.46C2.10-1.22 8.03 4.70 15.26 4.70ZM15.26 0.25C10.45 0.25 6.55-3.64 6.55-8.46C6.55-13.28 10.45-17.17 15.26-17.17C20.07-17.17 23.96-13.28 23.96-8.46C23.96-3.64 20.07 0.25 15.26 0.25ZM12.70-1.82C12.90-1.82 13.02-1.91 13.08-2.12L13.48-3.71C13.85-3.55 14.29-3.45 14.74-3.40L14.50-2.38C14.47-2.32 14.46-2.25 14.46-2.19C14.46-1.98 14.63-1.82 14.85-1.82C15.04-1.82 15.16-1.91 15.22-2.12L15.53-3.36C17.24-3.41 18.79-4.24 19.32-5.73C19.41-5.93 19.43-6.12 19.43-6.32C19.43-6.82 19.09-7.05 18.69-7.05C18.28-7.05 18.08-6.82 17.93-6.46C17.60-5.52 16.83-4.93 15.88-4.79L17.50-11.32C17.66-11.11 17.78-10.88 17.86-10.63C18-10.25 18.19-10.04 18.62-10.04C19.07-10.04 19.36-10.30 19.36-10.76C19.36-10.96 19.30-11.20 19.22-11.40C18.93-12.07 18.47-12.60 17.92-12.98L18.30-14.54C18.33-14.65 18.34-14.71 18.34-14.74C18.34-14.94 18.19-15.11 17.96-15.11C17.75-15.11 17.63-15 17.58-14.80L17.21-13.36C16.82-13.54 16.39-13.64 15.95-13.69L16.16-14.54C16.18-14.65 16.20-14.71 16.20-14.74C16.20-14.94 16.04-15.11 15.82-15.11C15.61-15.11 15.48-15 15.43-14.80L15.16-13.72C12.34-13.63 10.73-11.50 10.73-8.55C10.73-6.59 11.44-4.97 12.77-4.08L12.35-2.38C12.33-2.32 12.32-2.25 12.32-2.19C12.32-1.98 12.48-1.82 12.70-1.82ZM13.84-5.19L15.61-12.33C16.07-12.29 16.50-12.14 16.85-11.91L15.08-4.76C14.60-4.80 14.18-4.96 13.84-5.19ZM12.42-8.55C12.42-10.37 13.20-11.99 14.81-12.29L13.20-5.80C12.67-6.52 12.42-7.51 12.42-8.55Z" fill="currentColor"/>
</svg>