<svg xmlns="http://www.w3.org/2000/svg" viewBox="0 0 24 24" width="24" height="24">
  
  <path transform="matrix(0.7213299520991828, 0, 0, 0.7213299520991828, -0.15553677092138596, 18.094674556213015)" d="M26.87-18.59C29.40-18.59 30.71-17.29 30.71-14.78L30.71-13.72L2.99-13.72L2.99-14.78C2.99-17.29 4.30-18.59 6.83-18.59ZM8.38-1.72L10.01-2.92L11.64-1.72C11.99-1.46 12.36-1.72 12.23-2.14L11.58-4.07L13.23-5.24C13.54-5.47 13.45-5.95 13.01-5.94L10.99-5.93L10.36-7.86C10.24-8.26 9.79-8.26 9.66-7.86L9.04-5.93L7.01-5.94C6.56-5.95 6.48-5.48 6.80-5.24L8.44-4.07L7.79-2.14C7.66-1.72 8.03-1.46 8.38-1.72ZM6.83 1.69C4.30 1.69 2.99 0.40 2.99-2.11L2.99-10.98L30.71-10.98L30.71-2.11C30.71 0.39 29.40 1.69 26.87 1.69Z" fill="currentColor"/>
</svg>