<svg xmlns="http://www.w3.org/2000/svg" viewBox="0 0 24 24" width="24" height="24">
  
  <path transform="matrix(0.7213299520991828, 0, 0, 0.7213299520991828, -0.15553677092138596, 18.094674556213015)" d="M6.83 1.69L26.87 1.69C29.40 1.69 30.71 0.39 30.71-2.11L30.71-14.78C30.71-17.29 29.40-18.59 26.87-18.59L6.83-18.59C4.30-18.59 2.99-17.29 2.99-14.78L2.99-2.11C2.99 0.40 4.30 1.69 6.83 1.69ZM5.29-14.59C5.29-15.73 5.88-16.29 6.97-16.29L26.73-16.29C27.81-16.29 28.42-15.73 28.42-14.59L28.42-13.72L5.29-13.72ZM6.97-0.61C5.88-0.61 5.29-1.17 5.29-2.31L5.29-10.99L28.42-10.99L28.42-2.31C28.42-1.17 27.81-0.61 26.73-0.61ZM8.64-2.51L10.21-3.66L11.78-2.51C12.12-2.26 12.47-2.51 12.34-2.91L11.72-4.77L13.30-5.89C13.61-6.12 13.52-6.57 13.09-6.56L11.14-6.55L10.55-8.41C10.42-8.80 10.00-8.80 9.87-8.41L9.27-6.55L7.32-6.56C6.89-6.57 6.81-6.12 7.10-5.89L8.70-4.76L8.07-2.91C7.95-2.51 8.31-2.26 8.64-2.51Z" fill="currentColor"/>
</svg>