<svg xmlns="http://www.w3.org/2000/svg" viewBox="0 0 24 24" width="24" height="24">
  
  <path transform="matrix(0.8260729267505647, 0, 0, 0.8260729267505647, 0.2671829622458859, 18.97967086156825)" d="M14.20 3.66C20.88 3.66 26.31-1.77 26.31-8.45C26.31-15.13 20.88-20.55 14.20-20.55C7.52-20.55 2.10-15.13 2.10-8.45C2.10-1.77 7.52 3.66 14.20 3.66ZM9.35-3.13C8.07-3.13 7.43-3.76 7.43-5.04L7.43-10.89C7.43-12.14 8.07-12.79 9.35-12.79L10.55-12.79L10.55-13.42C10.55-14.38 11.18-14.95 12.20-14.95L16.21-14.95C17.23-14.95 17.86-14.38 17.86-13.42L17.86-12.79L19.05-12.79C20.33-12.79 20.98-12.14 20.98-10.89L20.98-5.04C20.98-3.76 20.33-3.13 19.05-3.13ZM11.81-12.79L16.61-12.79L16.61-13.36C16.61-13.64 16.43-13.80 16.14-13.80L12.28-13.80C11.99-13.80 11.81-13.64 11.81-13.36ZM11.37-7.45C11.37-7.10 11.59-6.87 11.94-6.87L13.13-6.87L13.13-5.68C13.13-5.33 13.36-5.11 13.71-5.11L14.71-5.11C15.05-5.11 15.28-5.33 15.28-5.68L15.28-6.87L16.46-6.87C16.82-6.87 17.05-7.10 17.05-7.45L17.05-8.46C17.05-8.81 16.82-9.04 16.46-9.04L15.28-9.04L15.28-10.22C15.28-10.56 15.05-10.79 14.71-10.79L13.71-10.79C13.36-10.79 13.13-10.56 13.13-10.22L13.13-9.04L11.94-9.04C11.59-9.04 11.37-8.81 11.37-8.46Z" fill="currentColor"/>
</svg>