<svg xmlns="http://www.w3.org/2000/svg" viewBox="0 0 24 24" width="24" height="24">
  
  <path transform="matrix(0.7006020799124247, 0, 0, 0.7006020799124247, 4.138752052545156, 17.935960591133004)" d="M2.99 1.78C2.99 4.21 4.57 5.80 6.95 5.80L15.49 5.80C17.87 5.80 19.45 4.21 19.45 1.78L19.45-11.44C19.45-13.83 17.92-15.41 15.60-15.46L15.60-16.99C16.71-17.14 17.36-17.94 17.36-19.18L17.36-20.53C17.36-21.91 16.56-22.75 15.20-22.75L7.24-22.75C5.88-22.75 5.07-21.91 5.07-20.53L5.07-19.18C5.07-17.94 5.73-17.14 6.84-16.99L6.84-15.46C4.51-15.41 2.99-13.83 2.99-11.44ZM7.08-19.35L7.08-20.38C7.08-20.64 7.23-20.81 7.51-20.81L14.98-20.81C15.25-20.81 15.41-20.64 15.41-20.38L15.41-19.35C15.41-19.08 15.25-18.91 14.98-18.91L7.51-18.91C7.23-18.91 7.08-19.08 7.08-19.35ZM8.72-15.46L8.72-16.97L13.72-16.97L13.72-15.46ZM5.11 1.76L5.11-11.41C5.11-12.57 5.86-13.32 7.04-13.32L15.39-13.32C16.57-13.32 17.33-12.57 17.33-11.41L17.33 1.76C17.33 2.93 16.57 3.69 15.39 3.69L7.04 3.69C5.86 3.69 5.11 2.93 5.11 1.76ZM6.89-4.07C6.89-3.54 7.24-3.19 7.76-3.19L9.59-3.19L9.59-1.38C9.59-0.86 9.93-0.50 10.45-0.50L11.98-0.50C12.50-0.50 12.86-0.86 12.86-1.38L12.86-3.19L14.67-3.19C15.19-3.19 15.55-3.54 15.55-4.07L15.55-5.59C15.55-6.12 15.19-6.46 14.67-6.46L12.86-6.46L12.86-8.27C12.86-8.80 12.50-9.15 11.98-9.15L10.45-9.15C9.93-9.15 9.59-8.80 9.59-8.27L9.59-6.46L7.76-6.46C7.24-6.46 6.89-6.12 6.89-5.59Z" fill="currentColor"/>
</svg>