<svg xmlns="http://www.w3.org/2000/svg" viewBox="0 0 24 24" width="24" height="24">
  <title>cube.transparent.fill</title>
  <path transform="matrix(0.754828247088309, 0, 0, 0.754828247088309, 0.7129588677576293, 18.364440513047324)" d="M14.02-9.61L14.02-12.40L15.89-12.40L15.89-9.68L26.23-15.59C26.03-15.82 25.78-16.03 25.49-16.21L16.39-21.46C16.23-21.55 16.07-21.63 15.89-21.68L15.89-18.40L14.02-18.40L14.02-21.68C13.85-21.63 13.68-21.55 13.51-21.46L4.43-16.21C4.13-16.03 3.87-15.80 3.64-15.54ZM14.02-13.95L14.02-16.85L15.89-16.85L15.89-13.95ZM15.77 4.82C15.98 4.75 16.20 4.65 16.41 4.54L25.43-0.68C25.62-0.80 25.79-0.93 25.92-1.08L23.59-2.41L24.56-4.07L26.88-2.75C26.91-2.91 26.92-3.06 26.92-3.21L26.92-13.72C26.92-13.79 26.92-13.88 26.91-13.93L17.07-8.32L19.35-7.03L18.39-5.38L15.77-6.87ZM14.04 4.78L14.04-6.83L11.52-5.38L10.57-7.03L12.77-8.30L3-13.88C2.99-13.79 2.99-13.71 2.99-13.64L2.99-3.21C2.99-3.06 3-2.91 3.02-2.75L5.34-4.07L6.33-2.41L3.98-1.08C4.13-0.93 4.27-0.82 4.45-0.70L13.51 4.54C13.70 4.64 13.86 4.72 14.04 4.78ZM22.25-3.19L19.73-4.62L20.70-6.27L23.20-4.84ZM10.17-4.62L7.65-3.19L6.70-4.84L9.22-6.27Z" fill="currentColor"/>
</svg>