<svg xmlns="http://www.w3.org/2000/svg" viewBox="0 0 24 24" width="24" height="24">
  
  <path transform="matrix(0.7821570424686831, 0, 0, 0.7821570424686831, 0.13015582034830442, 18.60403299725023)" d="M24.12 2.50C26.65 2.50 27.96 1.29 27.96-1.22L27.96-15.57C27.96-18.08 26.65-19.38 24.12-19.38L13.98-19.38C12.41-19.38 11.26-19.00 10.21-17.85L3.57-10.80C2.72-9.88 2.39-9.20 2.39-8.46C2.39-7.72 2.72-7.03 3.57-6.12L10.22 0.89C11.27 2.04 12.42 2.48 13.98 2.48ZM13.49-3.48C12.88-3.48 12.39-3.98 12.39-4.61C12.39-4.89 12.50-5.17 12.71-5.37L15.79-8.44L12.71-11.50C12.50-11.71 12.39-11.98 12.39-12.27C12.39-12.89 12.88-13.36 13.49-13.36C13.80-13.36 14.06-13.25 14.27-13.04L17.34-9.98L20.44-13.05C20.66-13.28 20.91-13.38 21.21-13.38C21.83-13.38 22.31-12.90 22.31-12.29C22.31-11.99 22.22-11.74 21.98-11.51L18.91-8.44L21.97-5.38C22.20-5.17 22.30-4.90 22.30-4.61C22.30-3.98 21.82-3.48 21.20-3.48C20.88-3.48 20.60-3.60 20.39-3.81L17.34-6.87L14.30-3.81C14.09-3.60 13.80-3.48 13.49-3.48Z" fill="currentColor"/>
</svg>