<svg xmlns="http://www.w3.org/2000/svg" viewBox="0 0 24 24" width="24" height="24">
  
  <path transform="matrix(0.8260729267505647, 0, 0, 0.8260729267505647, 0.2671829622458859, 18.989351403678604)" d="M14.20 3.64C20.88 3.64 26.31-1.78 26.31-8.46C26.31-15.14 20.88-20.57 14.20-20.57C7.52-20.57 2.10-15.14 2.10-8.46C2.10-1.78 7.52 3.64 14.20 3.64ZM11.33-1.99C9.97-1.99 9.27-2.70 9.27-4.07L9.27-13.16C9.27-14.52 9.97-15.23 11.33-15.23L13.65-15.23L13.65-10.36C13.65-9.55 14.04-9.16 14.84-9.16L19.65-9.16L19.65-4.07C19.65-2.71 18.96-1.99 17.60-1.99ZM15.01-10.18C14.78-10.18 14.65-10.30 14.65-10.54L14.65-15.18C14.93-15.14 15.22-14.93 15.54-14.60L19.01-11.07C19.35-10.75 19.55-10.46 19.58-10.18Z" fill="currentColor"/>
</svg>