<svg xmlns="http://www.w3.org/2000/svg" viewBox="0 0 24 24" width="24" height="24">
  <title>dongsign.gauge.chart.lefthalf.righthalf</title>
  <path transform="matrix(0.6991670080568073, 0, 0, 0.6991670080568073, 0.5333879557558379, 17.929891072812715)" d="M30.70-6.08C30.70-13.56 24.98-19.69 17.68-20.33C17.29-20.37 16.97-20.07 16.97-19.66L16.97-15.76C16.97-15.42 17.21-15.16 17.55-15.13C22.03-14.55 25.51-10.73 25.51-6.08C25.51-3.97 24.80-2.02 23.51-0.40C23.33-0.16 23.33 0.13 23.54 0.34L26.37 3.16C26.66 3.45 27.08 3.45 27.34 3.14C29.45 0.64 30.70-2.58 30.70-6.08ZM2.10-6.08C2.10-2.58 3.36 0.64 5.46 3.14C5.72 3.45 6.14 3.45 6.43 3.15L9.26 0.33C9.47 0.13 9.48-0.16 9.29-0.41C8.02-2.02 7.29-3.97 7.29-6.08C7.29-10.73 10.77-14.55 15.25-15.13C15.59-15.16 15.83-15.42 15.83-15.76L15.83-19.66C15.83-20.07 15.53-20.37 15.12-20.33C7.83-19.69 2.10-13.56 2.10-6.08ZM15.47-2.06C16.44-2.06 17.38-2.45 17.84-3.34L17.87-3.34L17.88-2.65C17.89-2.23 18.21-1.95 18.63-1.95C19.08-1.95 19.37-2.26 19.37-2.71L19.37-10.04L20.23-10.04C20.44-10.04 20.60-10.21 20.60-10.42C20.60-10.62 20.44-10.77 20.23-10.77L19.37-10.77L19.37-11.18C19.35-11.64 19.07-11.91 18.61-11.91C18.15-11.91 17.87-11.64 17.85-11.18L17.85-10.77L15.69-10.77C15.49-10.77 15.32-10.62 15.32-10.42C15.32-10.20 15.49-10.04 15.69-10.04L17.84-10.04L17.84-7.73L17.79-7.73C17.39-8.61 16.45-9.01 15.47-9.01C13.69-9.01 12.32-7.64 12.32-5.54C12.32-3.59 13.57-2.06 15.47-2.06ZM15.89-3.34C14.64-3.34 13.89-4.30 13.89-5.54C13.89-6.86 14.72-7.76 15.89-7.76C17.11-7.76 17.85-6.74 17.85-5.54C17.85-4.28 17.04-3.34 15.89-3.34ZM12.91-0.84C12.91-0.62 13.09-0.46 13.31-0.46L19.32-0.46C19.54-0.46 19.71-0.62 19.71-0.84C19.71-1.05 19.54-1.22 19.32-1.22L13.31-1.22C13.09-1.22 12.91-1.05 12.91-0.84Z" fill="currentColor"/>
</svg>