<svg xmlns="http://www.w3.org/2000/svg" viewBox="0 0 24 24" width="24" height="24">
  
  <path transform="matrix(0.6832132372564719, 0, 0, 0.6832132372564719, -0.04163330664531628, 17.780624499599682)" d="M4.14 4.11C4.77 4.11 5.29 3.60 5.29 2.96L5.29-18.11C5.29-18.49 5.53-18.74 5.91-18.74L29.36-18.74C29.72-18.74 29.96-18.49 29.96-18.11L29.96 2.96C29.96 3.60 30.48 4.11 31.11 4.11C31.75 4.11 32.26 3.60 32.26 2.96L32.26-18.32C32.26-19.97 31.18-21.04 29.48-21.04L5.77-21.04C4.08-21.04 2.99-19.97 2.99-18.32L2.99 2.96C2.99 3.60 3.50 4.11 4.14 4.11ZM28.58 3.18L28.58-17.29C28.58-17.54 28.38-17.73 28.13-17.68L20.95-16.09C20.72-16.04 20.54-15.88 20.54-15.63L20.54 1.52C20.54 1.77 20.72 1.93 20.96 1.98L28.11 3.57C28.38 3.62 28.58 3.43 28.58 3.18ZM6.68 3.18C6.68 3.43 6.88 3.62 7.14 3.57L14.29 1.98C14.53 1.93 14.71 1.77 14.71 1.52L14.71-15.63C14.71-15.88 14.54-16.04 14.30-16.09L7.14-17.68C6.88-17.73 6.68-17.54 6.68-17.29ZM22.55-10.72C22.35-10.70 22.23-10.84 22.23-11.06L22.23-14.45C22.23-14.66 22.35-14.78 22.54-14.80L26.55-15.57C26.73-15.60 26.87-15.50 26.87-15.29L26.87-11.33C26.87-11.12 26.74-11.03 26.57-11.02ZM12.70-10.72L8.70-11.02C8.51-11.03 8.38-11.12 8.38-11.33L8.38-15.29C8.38-15.50 8.52-15.60 8.70-15.57L12.71-14.80C12.91-14.78 13.03-14.66 13.03-14.45L13.03-11.06C13.03-10.84 12.90-10.70 12.70-10.72ZM8.38-4.95L8.38-9.15C8.38-9.36 8.51-9.48 8.70-9.47L12.71-9.26C12.90-9.25 13.03-9.11 13.03-8.91L13.03-5.20C13.03-4.99 12.90-4.86 12.71-4.85L8.70-4.63C8.51-4.62 8.38-4.73 8.38-4.95ZM26.87-4.95C26.87-4.73 26.74-4.62 26.55-4.63L22.55-4.85C22.36-4.86 22.23-4.99 22.23-5.20L22.23-8.91C22.23-9.11 22.35-9.25 22.55-9.26L26.55-9.47C26.74-9.48 26.87-9.36 26.87-9.15ZM22.56-3.39L26.55-3.09C26.74-3.08 26.87-2.95 26.87-2.75L26.87 1.17C26.87 1.39 26.74 1.49 26.55 1.45L22.54 0.66C22.35 0.63 22.23 0.50 22.23 0.32L22.23-3.07C22.23-3.29 22.36-3.41 22.56-3.39ZM12.69-3.39C12.89-3.41 13.03-3.29 13.03-3.07L13.03 0.32C13.03 0.50 12.90 0.63 12.71 0.66L8.70 1.45C8.51 1.49 8.38 1.39 8.38 1.17L8.38-2.75C8.38-2.95 8.51-3.08 8.71-3.09Z" fill="currentColor"/>
</svg>