<svg xmlns="http://www.w3.org/2000/svg" viewBox="0 0 24 24" width="24" height="24">
  <title>ellipsis.vertical.bubble.fill</title>
  <path transform="matrix(0.7619047619047619, 0, 0, 0.7619047619047619, -0.27678571428571397, 17.875)" d="M10.27 4.65C10.76 4.65 11.12 4.42 11.71 3.89L16.00 0.01L23.74 0.01C27.26 0.01 29.24-2.00 29.24-5.48L29.24-14.58C29.24-18.06 27.26-20.07 23.74-20.07L8.50-20.07C4.97-20.07 2.99-18.06 2.99-14.58L2.99-5.48C2.99-2.00 5.02 0.01 8.41 0.01L9.15 0.01L9.15 3.39C9.15 4.16 9.56 4.65 10.27 4.65ZM16.13-13.28C15.18-13.28 14.43-14.03 14.43-14.96C14.43-15.90 15.18-16.66 16.13-16.66C17.06-16.66 17.81-15.90 17.81-14.96C17.81-14.03 17.06-13.28 16.13-13.28ZM16.13-8.33C15.18-8.33 14.43-9.09 14.43-10.03C14.43-10.97 15.18-11.73 16.13-11.73C17.06-11.73 17.81-10.97 17.81-10.03C17.81-9.09 17.06-8.33 16.13-8.33ZM16.13-3.41C15.18-3.41 14.43-4.16 14.43-5.10C14.43-6.04 15.18-6.79 16.13-6.79C17.06-6.79 17.81-6.04 17.81-5.10C17.81-4.16 17.06-3.41 16.13-3.41Z" fill="currentColor"/>
</svg>