<svg xmlns="http://www.w3.org/2000/svg" viewBox="0 0 24 24" width="24" height="24">
  
  <path transform="matrix(0.6022112444130793, 0, 0, 0.6022112444130793, 0.20042342978122796, 16.76711362032463)" d="M20.45-13.02L20.45-11.29L22.66-11.29C28.15-11.29 29.92-13.00 29.92-15.39C29.92-17.37 28.45-18.70 26.58-18.70C25.23-18.70 24.02-17.87 23.51-16.73C23.29-16.29 23.38-15.80 23.82-15.55C24.25-15.33 24.74-15.46 25.04-15.98C25.31-16.55 25.90-16.98 26.58-16.98C27.50-16.98 28.18-16.42 28.18-15.39C28.18-14.00 27.12-13.02 22.59-13.02ZM11.40-16.30L19.62-16.30C20.13-16.30 20.55-16.72 20.55-17.24C20.55-17.75 20.13-18.18 19.62-18.18L11.40-18.18C10.89-18.18 10.46-17.75 10.46-17.24C10.46-16.72 10.89-16.30 11.40-16.30ZM13.43-12.75C14.02-12.75 14.47-13.21 14.47-13.78C14.47-14.36 14.02-14.82 13.43-14.82C12.86-14.82 12.40-14.36 12.40-13.78C12.40-13.21 12.86-12.75 13.43-12.75ZM17.65-12.75C18.22-12.75 18.68-13.21 18.68-13.78C18.68-14.36 18.22-14.82 17.65-14.82C17.06-14.82 16.61-14.36 16.61-13.78C16.61-13.21 17.06-12.75 17.65-12.75ZM10.63-11.29L10.63-13.02L5.26-13.02C4.79-13.02 4.39-12.63 4.39-12.15C4.39-11.67 4.79-11.29 5.26-11.29ZM20.45-9.48L20.45-7.75L22.30-7.75C28.03-7.75 29.38-5.45 32.39-5.45C34.62-5.45 36.20-7.00 36.20-9.07C36.20-11.34 34.58-12.75 32.59-12.75C31.75-12.75 30.94-12.40 30.35-11.85C29.92-11.48 29.89-10.91 30.25-10.61C30.59-10.30 31.02-10.35 31.42-10.64C31.71-10.89 32.11-11.05 32.58-11.05C33.57-11.05 34.46-10.35 34.46-9.13C34.46-8.09 33.69-7.17 32.34-7.17C29.98-7.18 28.36-9.48 22.34-9.48ZM13.43-9.20C14.02-9.20 14.47-9.67 14.47-10.24C14.47-10.82 14.02-11.27 13.43-11.27C12.86-11.27 12.40-10.82 12.40-10.24C12.40-9.67 12.86-9.20 13.43-9.20ZM17.65-9.20C18.22-9.20 18.68-9.67 18.68-10.24C18.68-10.82 18.22-11.27 17.65-11.27C17.06-11.27 16.61-10.82 16.61-10.24C16.61-9.67 17.06-9.20 17.65-9.20ZM10.63-7.75L10.63-9.48L3.86-9.48C3.39-9.48 2.99-9.09 2.99-8.61C2.99-8.13 3.39-7.75 3.86-7.75ZM13.43-5.65C14.02-5.65 14.47-6.12 14.47-6.69C14.47-7.27 14.02-7.72 13.43-7.72C12.86-7.72 12.40-7.27 12.40-6.69C12.40-6.12 12.86-5.65 13.43-5.65ZM17.65-5.65C18.22-5.65 18.68-6.12 18.68-6.69C18.68-7.27 18.22-7.72 17.65-7.72C17.06-7.72 16.61-7.27 16.61-6.69C16.61-6.12 17.06-5.65 17.65-5.65ZM10.63-4.21L10.63-5.94L5.26-5.94C4.79-5.94 4.39-5.54 4.39-5.07C4.39-4.59 4.79-4.21 5.26-4.21ZM20.45-5.94L20.45-4.21L21.30-4.21C26.24-4.21 29.12-2.40 29.12-0.46C29.12 0.55 28.54 1.15 27.66 1.15C26.81 1.15 26.20 0.59 26.02-0.33C25.90-0.81 25.51-1.15 24.97-1.07C24.42-0.98 24.20-0.47 24.32 0.05C24.60 1.64 25.91 2.87 27.66 2.87C29.52 2.87 30.86 1.50 30.86-0.46C30.86-3.52 27.25-5.94 21.30-5.94ZM13.43-2.10C14.02-2.10 14.47-2.57 14.47-3.14C14.47-3.71 14.02-4.17 13.43-4.17C12.86-4.17 12.40-3.71 12.40-3.14C12.40-2.57 12.86-2.10 13.43-2.10ZM17.65-2.10C18.22-2.10 18.68-2.57 18.68-3.14C18.68-3.71 18.22-4.17 17.65-4.17C17.06-4.17 16.61-3.71 16.61-3.14C16.61-2.57 17.06-2.10 17.65-2.10ZM11.40 1.25L19.68 1.25C20.19 1.25 20.61 0.83 20.61 0.32C20.61-0.21 20.19-0.63 19.68-0.63L11.40-0.63C10.89-0.63 10.46-0.21 10.46 0.32C10.46 0.83 10.89 1.25 11.40 1.25Z" fill="currentColor"/>
</svg>