<svg xmlns="http://www.w3.org/2000/svg" viewBox="0 0 24 24" width="24" height="24">
  <title>envelope.front</title>
  <path transform="matrix(0.6971677559912854, 0, 0, 0.6971677559912854, -0.08333333333333348, 17.890522875816995)" d="M6.83 1.83L28.13 1.83C30.36 1.83 31.68 0.53 31.68-1.98L31.68-14.93C31.68-17.43 30.35-18.73 27.83-18.73L6.54-18.73C4.30-18.73 2.99-17.43 2.99-14.93L2.99-1.98C2.99 0.53 4.31 1.83 6.83 1.83ZM6.83-0.33C5.75-0.33 5.14-0.91 5.14-2.04L5.14-14.87C5.14-15.98 5.75-16.57 6.83-16.57L27.83-16.57C28.91-16.57 29.52-15.98 29.52-14.86L29.52-2.03C29.52-0.91 28.91-0.33 27.83-0.33ZM23.74-10.69L26.77-10.69C27.30-10.69 27.70-11.09 27.70-11.61L27.70-13.83C27.70-14.36 27.30-14.75 26.77-14.75L23.74-14.75C23.21-14.75 22.82-14.36 22.82-13.83L22.82-11.61C22.82-11.09 23.21-10.69 23.74-10.69ZM12.96-6.43L21.70-6.43C22.14-6.43 22.46-6.77 22.46-7.20C22.46-7.62 22.14-7.95 21.70-7.95L12.96-7.95C12.54-7.95 12.20-7.62 12.20-7.20C12.20-6.77 12.54-6.43 12.96-6.43ZM12.96-3.39L19.52-3.39C19.96-3.39 20.29-3.73 20.29-4.15C20.29-4.57 19.96-4.90 19.52-4.90L12.96-4.90C12.54-4.90 12.20-4.57 12.20-4.15C12.20-3.73 12.54-3.39 12.96-3.39Z" fill="currentColor"/>
</svg>