<svg xmlns="http://www.w3.org/2000/svg" viewBox="0 0 24 24" width="24" height="24">
  <title>eurozonesign.gauge.chart.lefthalf.righthalf</title>
  <path transform="matrix(0.6991670080568073, 0, 0, 0.6991670080568073, 0.5333879557558379, 17.929891072812715)" d="M30.70-6.08C30.70-13.56 24.98-19.69 17.68-20.33C17.29-20.37 16.97-20.07 16.97-19.66L16.97-15.76C16.97-15.42 17.21-15.16 17.55-15.13C22.03-14.55 25.51-10.73 25.51-6.08C25.51-3.97 24.80-2.02 23.51-0.40C23.33-0.16 23.33 0.13 23.54 0.34L26.37 3.16C26.66 3.45 27.08 3.45 27.34 3.14C29.45 0.64 30.70-2.58 30.70-6.08ZM2.10-6.08C2.10-2.58 3.36 0.64 5.46 3.14C5.72 3.45 6.14 3.45 6.43 3.15L9.26 0.33C9.47 0.13 9.48-0.16 9.29-0.41C8.02-2.02 7.29-3.97 7.29-6.08C7.29-10.73 10.77-14.55 15.25-15.13C15.59-15.16 15.83-15.42 15.83-15.76L15.83-19.66C15.83-20.07 15.53-20.37 15.12-20.33C7.83-19.69 2.10-13.56 2.10-6.08ZM11.67-1.65L14.99-1.65C15.38-1.65 15.62-1.86 15.62-2.25C15.62-2.63 15.38-2.85 14.99-2.85L12.38-2.85L12.38-5.48L14.88-5.48C15.22-5.48 15.46-5.71 15.46-6.05C15.46-6.40 15.22-6.61 14.88-6.61L12.38-6.61L12.38-9.12L14.99-9.12C15.38-9.12 15.62-9.33 15.62-9.70C15.62-10.09 15.38-10.30 14.99-10.30L11.67-10.30C11.23-10.30 10.97-10.02 10.97-9.57L10.97-2.39C10.97-1.93 11.21-1.65 11.67-1.65ZM17.54-1.65L21.64-1.65C22.00-1.65 22.22-1.89 22.22-2.25C22.22-2.60 22.00-2.85 21.64-2.85L18.46-2.85L18.46-2.91L21.90-9.02C22.01-9.20 22.09-9.38 22.09-9.62C22.09-10.01 21.84-10.30 21.38-10.30L17.48-10.30C17.11-10.30 16.85-10.08 16.85-9.70C16.85-9.34 17.11-9.12 17.48-9.12L20.51-9.12L20.51-9.06L17.02-2.91C16.91-2.73 16.84-2.53 16.84-2.32C16.84-1.88 17.17-1.65 17.54-1.65Z" fill="currentColor"/>
</svg>