<svg xmlns="http://www.w3.org/2000/svg" viewBox="0 0 24 24" width="24" height="24">
  <title>ev.charger.arrowtriangle.left</title>
  <path transform="matrix(0.5432209449525334, 0, 0, 0.5432209449525334, 0.37513808589348563, 16.596158463934323)" d="M11.55 3.67C11.55 4.27 12.05 4.76 12.63 4.76L30.47 4.76C31.05 4.76 31.55 4.27 31.55 3.67C31.55 3.08 31.05 2.59 30.47 2.59L29.66 2.59L29.66-10.43C30.69-9.80 31.13-8.89 31.13-7.83C31.13-5.95 30.84-3.70 30.84-1.75C30.84 0.29 32.10 1.58 34.08 1.58C36.20 1.58 37.41 0.15 37.41-2.33L37.41-9.67C37.41-10.65 38.12-10.96 38.65-11.39C39.41-11.98 39.81-12.76 39.81-13.69L39.81-15.19C39.81-15.45 39.64-15.62 39.42-15.62L38.68-15.62L38.68-17.70C38.68-18.02 38.40-18.30 38.06-18.30C37.75-18.30 37.45-18.02 37.45-17.70L37.46-15.62L35.94-15.62L35.94-17.70C35.94-18.02 35.67-18.30 35.34-18.30C35.00-18.30 34.73-18.02 34.73-17.70L34.73-15.62L33.89-15.62C33.64-15.62 33.48-15.45 33.48-15.19L33.48-13.69C33.48-12.76 33.89-11.98 34.64-11.39C35.18-10.96 35.89-10.65 35.89-9.67L35.89-2.33C35.89-0.80 35.24 0.07 34.08 0.07C33.01 0.07 32.36-0.62 32.36-1.75C32.36-3.47 32.64-5.72 32.64-7.83C32.64-9.74 31.77-11.23 29.66-12.11L29.66-18.59C29.66-20.58 28.56-21.68 26.57-21.68L16.54-21.68C14.53-21.68 13.46-20.58 13.46-18.59L13.46 2.59L12.63 2.59C12.05 2.59 11.55 3.07 11.55 3.67ZM15.64-18.46C15.64-19.13 15.97-19.49 16.64-19.49L26.46-19.49C27.11-19.49 27.46-19.14 27.46-18.46L27.46 2.59L15.64 2.59ZM17.57-10.91L25.54-10.91C25.97-10.91 26.30-11.23 26.30-11.66L26.30-17.58C26.30-18.01 25.97-18.33 25.54-18.33L17.57-18.33C17.13-18.33 16.80-18.01 16.80-17.58L16.80-11.66C16.80-11.23 17.12-10.91 17.57-10.91ZM3.39-9.13C2.87-8.82 2.85-8.11 3.39-7.78L9.26-4.32C9.83-3.98 10.50-4.27 10.50-4.89L10.50-12.06C10.50-12.67 9.81-12.94 9.26-12.62Z" fill="currentColor"/>
</svg>