<svg xmlns="http://www.w3.org/2000/svg" viewBox="0 0 24 24" width="24" height="24">
  <title>ev.charger.arrowtriangle.right</title>
  <path transform="matrix(0.5335410532637908, 0, 0, 0.5335410532637908, 0.4056292744265628, 16.514257505349104)" d="M2.99 3.67C2.99 4.27 3.47 4.76 4.07 4.76L21.89 4.76C22.49 4.76 22.98 4.27 22.98 3.67C22.98 3.08 22.49 2.59 21.89 2.59L21.08 2.59L21.08-10.43C22.13-9.80 22.56-8.89 22.56-7.83C22.56-5.95 22.28-3.70 22.28-1.75C22.28 0.29 23.52 1.58 25.50 1.58C27.62 1.58 28.83 0.15 28.83-2.33L28.83-9.67C28.83-10.65 29.54-10.96 30.08-11.39C30.83-11.98 31.23-12.76 31.23-13.69L31.23-15.19C31.23-15.45 31.08-15.62 30.84-15.62L30.11-15.62L30.11-17.70C30.11-18.02 29.84-18.30 29.50-18.30C29.17-18.30 28.89-18.02 28.89-17.70L28.89-15.62L27.36-15.62L27.38-17.70C27.38-18.02 27.11-18.30 26.78-18.30C26.43-18.30 26.17-18.02 26.17-17.70L26.17-15.62L25.31-15.62C25.07-15.62 24.91-15.45 24.91-15.19L24.91-13.69C24.91-12.76 25.32-11.98 26.06-11.39C26.61-10.96 27.33-10.65 27.33-9.67L27.33-2.33C27.33-0.80 26.66 0.07 25.50 0.07C24.45 0.07 23.78-0.62 23.78-1.75C23.78-3.47 24.06-5.72 24.06-7.83C24.06-9.74 23.20-11.23 21.08-12.11L21.08-18.59C21.08-20.58 19.98-21.68 17.99-21.68L7.97-21.68C5.96-21.68 4.89-20.58 4.89-18.59L4.89 2.59L4.07 2.59C3.48 2.59 2.99 3.07 2.99 3.67ZM7.08-18.46C7.08-19.13 7.41-19.49 8.07-19.49L17.88-19.49C18.54-19.49 18.89-19.14 18.89-18.46L18.89 2.59L7.07 2.59ZM9-10.91L16.96-10.91C17.40-10.91 17.73-11.23 17.73-11.66L17.73-17.58C17.73-18.01 17.40-18.33 16.96-18.33L9-18.33C8.55-18.33 8.24-18.01 8.24-17.58L8.24-11.66C8.24-11.23 8.55-10.91 9-10.91ZM40.08-9.13L34.21-12.62C33.66-12.94 32.96-12.67 32.96-12.06L32.96-4.89C32.96-4.27 33.63-3.98 34.21-4.32L40.08-7.78C40.62-8.11 40.59-8.82 40.08-9.13Z" fill="currentColor"/>
</svg>