<svg xmlns="http://www.w3.org/2000/svg" viewBox="0 0 24 24" width="24" height="24">
  <title>exclamationmark.arrow.trianglehead.counterclockwise.rotate.90</title>
  <path transform="matrix(0.7567779868000949, 0, 0, 0.7567779868000949, 2.09023538633344, 18.40305124769143)" d="M0.75-10.82C-0.13-10.82-0.35-10.16 0.13-9.50L2.85-5.72C3.22-5.19 3.81-5.20 4.18-5.72L6.90-9.52C7.37-10.16 7.15-10.82 6.28-10.82L4.77-10.82C5.82-15.06 9.64-18.19 14.20-18.19C19.57-18.19 23.92-13.84 23.92-8.46C23.92-3.08 19.57 1.25 14.20 1.25C11.05 1.25 8.30-0.23 6.53-2.55C6.06-3.09 5.38-3.27 4.80-2.86C4.27-2.48 4.15-1.70 4.66-1.08C6.89 1.82 10.34 3.64 14.20 3.64C20.88 3.64 26.31-1.78 26.31-8.46C26.31-15.14 20.88-20.57 14.20-20.57C8.32-20.57 3.43-16.38 2.33-10.82ZM14.20-6.50C14.84-6.50 15.20-6.87 15.22-7.54L15.40-13.23C15.42-13.92 14.91-14.41 14.19-14.41C13.46-14.41 12.97-13.92 13.00-13.24L13.16-7.54C13.17-6.88 13.55-6.50 14.20-6.50ZM14.20-2.63C14.95-2.63 15.57-3.16 15.57-3.91C15.57-4.65 14.96-5.19 14.20-5.19C13.44-5.19 12.83-4.64 12.83-3.91C12.83-3.18 13.45-2.63 14.20-2.63Z" fill="currentColor"/>
</svg>