<svg xmlns="http://www.w3.org/2000/svg" viewBox="0 0 24 24" width="24" height="24">
  
  <path transform="matrix(0.754828247088309, 0, 0, 0.754828247088309, 0.11587793011941683, 18.382131800088455)" d="M5.51 3L12.94 3C13.36 4.04 14.39 4.79 15.57 4.79C16.77 4.79 17.79 4.04 18.21 3L25.64 3C26.23 3 26.71 2.52 26.71 1.93C26.71 1.35 26.23 0.87 25.64 0.87L18.21 0.87C17.92 0.16 17.34-0.40 16.64-0.69L16.64-3.14L23.23-3.14C26.30-3.14 28.50-5.25 28.50-8.18C28.50-9.02 28.28-9.81 27.97-10.54L24.38-18.98C23.63-20.74 22.14-21.70 20.11-21.70L11.39-21.70C9.38-21.70 7.86-20.75 7.11-18.98L3.55-10.57C3.23-9.84 2.99-9.06 2.99-8.18C2.99-5.25 5.20-3.14 8.26-3.14L14.51-3.14L14.51-0.69C13.80-0.40 13.23 0.16 12.95 0.87L5.51 0.87C4.92 0.87 4.44 1.35 4.44 1.93C4.44 2.52 4.92 3 5.51 3ZM7.13-13.14L9.27-18.41C9.61-19.28 10.36-19.72 11.43-19.72L20.09-19.72C21.15-19.72 21.90-19.28 22.24-18.41L24.38-13.14C24.01-13.22 23.59-13.23 23.12-13.23L8.38-13.23C7.90-13.23 7.49-13.22 7.13-13.14ZM5.24-8.18C5.24-9.83 6.47-10.99 8.26-10.99L23.23-10.99C25.02-10.99 26.26-9.83 26.26-8.18C26.26-6.43 25.13-5.38 23.23-5.38L8.26-5.38C6.47-5.38 5.24-6.54 5.24-8.18ZM21.74-8.18C21.74-7.38 22.37-6.75 23.18-6.76C23.95-6.76 24.61-7.39 24.61-8.18C24.61-8.95 23.94-9.61 23.18-9.61C22.39-9.61 21.74-8.95 21.74-8.18Z" fill="currentColor"/>
</svg>