<svg xmlns="http://www.w3.org/2000/svg" viewBox="0 0 24 24" width="24" height="24">
  <title>f.circle</title>
  <path transform="matrix(0.8260729267505647, 0, 0, 0.8260729267505647, 0.2671829622458859, 18.989351403678604)" d="M14.20 3.64C20.88 3.64 26.31-1.78 26.31-8.46C26.31-15.14 20.88-20.57 14.20-20.57C7.52-20.57 2.10-15.14 2.10-8.46C2.10-1.78 7.52 3.64 14.20 3.64ZM14.20 1.25C8.82 1.25 4.48-3.08 4.48-8.46C4.48-13.84 8.82-18.19 14.20-18.19C19.58-18.19 23.93-13.84 23.93-8.46C23.93-3.08 19.58 1.25 14.20 1.25ZM11.67-3.09C12.40-3.09 12.80-3.57 12.80-4.34L12.80-7.63L16.76-7.63C17.29-7.63 17.64-7.92 17.64-8.45C17.64-8.98 17.29-9.28 16.76-9.28L12.79-9.28L12.79-12.08L17.13-12.08C17.68-12.08 18.06-12.42 18.06-12.96C18.06-13.52 17.68-13.85 17.13-13.85L11.71-13.85C10.96-13.85 10.57-13.36 10.57-12.59L10.57-4.34C10.57-3.59 10.96-3.09 11.67-3.09Z" fill="currentColor"/>
</svg>