<svg xmlns="http://www.w3.org/2000/svg" viewBox="0 0 24 24" width="24" height="24">
  
  <path transform="matrix(0.6892837910608508, 0, 0, 0.6892837910608508, 1.5597738287560587, 17.815831987075928)" d="M5.64-10.32C5.64-7.44 8.23-4.42 10.75-4.42C12.90-4.42 14.16-6.23 15.30-9.32C15.43-9.32 15.52-9.33 15.61-9.35L15.61-6.63C15.61-4.85 16.54-3.90 18.26-3.90C21.14-3.90 24.16-6.49 24.16-9.02C24.16-11.06 22.49-12.42 19.25-13.57C19.25-13.69 19.25-13.78 19.23-13.88L21.94-13.88C23.71-13.88 24.68-14.81 24.68-16.52C24.68-19.41 22.07-22.43 19.55-22.43C17.44-22.43 16.18-20.52 15-17.54C14.88-17.54 14.79-17.53 14.70-17.51L14.70-20.21C14.70-22.00 13.77-22.95 12.05-22.95C9.18-22.93 6.15-20.36 6.15-17.82C6.15-15.69 7.96-14.44 11.02-13.29C11.02-13.16 11.03-13.08 11.05-12.98L8.36-12.98C6.59-12.98 5.64-12.04 5.64-10.32ZM15.15-11.63C14.16-11.63 13.34-12.43 13.34-13.43C13.34-14.44 14.16-15.25 15.15-15.25C16.15-15.25 16.96-14.44 16.96-13.43C16.96-12.43 16.15-11.63 15.15-11.63ZM7.63-1.88L7.84-1.35C4.86-0.68 2.99 0.47 2.99 2.02C2.99 4.59 8.26 6.07 15.15 6.07C22.03 6.07 27.30 4.59 27.30 2.02C27.30 0.47 25.43-0.68 22.45-1.35L22.66-1.88C22.85-2.36 22.52-2.89 21.90-2.77L19.29-2.21C18.70-2.09 18.59-1.56 18.90-1.10L20.41 1.05C20.78 1.57 21.33 1.46 21.50 1.01L21.75 0.40C23.99 0.81 25.38 1.43 25.38 2.02C25.38 3.02 21.27 4.14 15.15 4.14C9.02 4.14 4.91 3.02 4.91 2.02C4.91 1.43 6.30 0.81 8.54 0.40L8.79 1.01C8.96 1.46 9.52 1.57 9.88 1.05L11.39-1.10C11.71-1.56 11.59-2.09 11.00-2.21L8.39-2.77C7.77-2.89 7.44-2.36 7.63-1.88Z" fill="currentColor"/>
</svg>