<svg xmlns="http://www.w3.org/2000/svg" viewBox="0 0 24 24" width="24" height="24">
  
  <path transform="matrix(0.6823937091829935, 0, 0, 0.6823937091829935, 1.324270291883249, 17.689724110355858)" d="M15.64-14.32C16.71-14.32 17.39-14.09 18.52-13.57L24.81-10.69L23.79-18.08C23.60-19.51 22.77-20.41 21.38-20.41L20.64-20.41L20.64-21.14C20.64-22.34 19.97-22.99 18.77-22.99L12.53-22.99C11.33-22.99 10.65-22.34 10.65-21.14L10.65-20.41L9.94-20.41C8.53-20.41 7.73-19.51 7.51-17.88L6.50-10.70L12.77-13.57C13.90-14.09 14.58-14.32 15.64-14.32ZM10.52-15.57C10.22-15.57 10.02-15.79 10.02-16.09L10.02-17.89C10.02-18.20 10.22-18.41 10.52-18.41L14.04-18.41C14.41-18.41 14.66-18.20 14.66-17.89L14.66-16.09C14.66-15.79 14.41-15.57 14.04-15.57ZM17.13-15.57C16.83-15.57 16.64-15.79 16.64-16.09L16.64-17.89C16.64-18.20 16.83-18.41 17.13-18.41L20.66-18.41C21.04-18.41 21.27-18.20 21.27-17.89L21.27-16.09C21.27-15.79 21.04-15.57 20.66-15.57ZM15.64 2.96C16.13 2.96 16.37 2.81 17.24 2.17C18.15 1.49 19.48 0.56 21.25 0.56C22.37 0.56 23.30 0.88 24.36 1.54L27.66-4.15C28.70-5.92 28.25-7.30 26.48-8.12L17.84-12.08C17.34-12.30 16.63-12.68 15.64-12.68C14.65-12.68 13.95-12.30 13.45-12.08L4.80-8.12C3.04-7.30 2.59-5.92 3.63-4.15L6.93 1.54C7.99 0.88 8.92 0.56 10.04 0.56C11.81 0.56 13.14 1.49 14.05 2.17C14.92 2.81 15.16 2.96 15.64 2.96ZM15.64 6.32C18.94 6.32 19.43 3.93 21.25 3.93C23.10 3.93 23.39 6.32 27.14 6.32L27.21 6.32C27.74 6.32 28.17 5.89 28.17 5.36C28.17 4.83 27.74 4.41 27.21 4.41L27.14 4.41C25.96 4.41 25.27 3.93 24.35 3.27C23.58 2.71 22.59 2.00 21.25 2.00C19.86 2.00 18.87 2.74 18.09 3.32C17.29 3.94 16.66 4.41 15.64 4.41C14.63 4.41 14.00 3.94 13.20 3.32C12.42 2.74 11.43 2.00 10.04 2.00C8.70 2.00 7.71 2.71 6.94 3.27C6.02 3.93 5.33 4.41 4.15 4.41L4.08 4.41C3.55 4.41 3.12 4.83 3.12 5.36C3.12 5.89 3.55 6.32 4.08 6.32L4.15 6.32C7.90 6.32 8.19 3.93 10.04 3.93C11.86 3.93 12.34 6.32 15.64 6.32Z" fill="currentColor"/>
</svg>