<svg xmlns="http://www.w3.org/2000/svg" viewBox="0 0 24 24" width="24" height="24">
  <title>figure.lacrosse.circle</title>
  <path transform="matrix(0.8260729267505647, 0, 0, 0.8260729267505647, 0.2671829622458859, 18.989351403678604)" d="M14.20 3.64C20.88 3.64 26.31-1.78 26.31-8.46C26.31-15.14 20.88-20.57 14.20-20.57C7.52-20.57 2.10-15.14 2.10-8.46C2.10-1.78 7.52 3.64 14.20 3.64ZM14.20 1.25C8.82 1.25 4.48-3.08 4.48-8.46C4.48-13.84 8.82-18.19 14.20-18.19C19.58-18.19 23.93-13.84 23.93-8.46C23.93-3.08 19.58 1.25 14.20 1.25ZM13.58-5.60L15.91-3.90L14.55-1.20C14.39-0.88 14.52-0.47 14.86-0.29C15.15-0.15 15.56-0.25 15.74-0.60L17.33-3.79C17.46-4.07 17.44-4.38 17.19-4.59L16.03-5.68L18.02-5.68C18.40-5.68 18.69-5.99 18.69-6.35L18.69-8.92C18.69-9.98 17.84-10.86 16.75-10.86L14.61-10.86L14.61-11.55L14.81-12.26C14.88-12.53 14.80-12.80 14.61-12.96L14.61-14.03C14.94-14.50 15.28-15.14 15.28-15.60C15.28-16.25 14.84-16.71 14.19-16.71C13.54-16.71 13.09-16.25 13.09-15.60C13.09-15.08 13.42-14.43 13.77-13.99L13.77-12.96C13.68-12.88 13.59-12.76 13.56-12.63L12.91-10.39C12.80-9.95 13.05-9.54 13.52-9.54L13.77-9.54L13.77-8.48C12.68-7.93 12.54-6.36 13.58-5.60ZM19.02-10.83C19.64-10.69 20.27-11.09 20.41-11.73C20.55-12.36 20.14-12.98 19.52-13.13C18.88-13.27 18.26-12.86 18.12-12.23C17.99-11.59 18.39-10.97 19.02-10.83ZM15.73-9.54C15.75-9.54 15.77-9.50 15.74-9.48L14.61-8.91L14.61-9.54ZM16.08-6.97L17.29-7.56C17.34-7.58 17.41-7.55 17.41-7.48L17.41-6.97ZM12.64-5.77L12.11-4.14L8.91-4.14C8.53-4.14 8.23-3.83 8.23-3.47C8.23-3.09 8.53-2.79 8.91-2.79L12.57-2.79C12.83-2.79 13.07-2.94 13.18-3.18L13.92-4.64L13.24-5.14C12.96-5.34 12.76-5.55 12.64-5.77Z" fill="currentColor"/>
</svg>