<svg xmlns="http://www.w3.org/2000/svg" viewBox="0 0 24 24" width="24" height="24">
  <title>figure.pilates</title>
  <path transform="matrix(0.6159427379236432, 0, 0, 0.6159427379236432, 0.15938986518911324, 17.211453009150826)" d="M8.41-3C7.95-1.79 8.40-0.56 9.40 0.15C11.02 1.27 12.52 1.69 14.91 1.69L18.68 1.69C21.63 1.69 22.44-0.63 21.43-2.59L18.39-8.45L18.39-17.33C18.39-18.05 17.81-18.61 17.09-18.61C16.37-18.61 15.82-18.05 15.82-17.33L15.82-8.14C15.82-7.98 15.83-7.83 15.88-7.71L17.58-2.87L15.41-2.87C13.99-2.87 13.17-3.26 12.05-3.94C11.77-4.11 11.68-4.34 11.82-4.66L14.58-11.73C14.84-12.39 14.51-13.15 13.84-13.39C13.15-13.65 12.45-13.32 12.18-12.66ZM5.63-3.77C7.08-3.77 8.25-4.96 8.25-6.41C8.25-7.86 7.08-9.04 5.63-9.04C4.16-9.04 2.99-7.86 2.99-6.41C2.99-4.96 4.16-3.77 5.63-3.77ZM23.07-0.26L27.40-1.66L34.39-2.93C35.10-3.06 35.57-3.70 35.44-4.42C35.31-5.13 34.64-5.58 33.94-5.46L26.64-4.13L22.45-3.36L22.57-3.18C23.13-2.23 23.24-1.16 23.07-0.26Z" fill="currentColor"/>
</svg>