<svg xmlns="http://www.w3.org/2000/svg" viewBox="0 0 24 24" width="24" height="24">
  
  <path transform="matrix(0.754828247088309, 0, 0, 0.754828247088309, 0.472671178170486, 18.382131800088455)" d="M19.70-16.44C21.15-16.44 22.32-17.61 22.32-19.08C22.32-20.53 21.15-21.70 19.70-21.70C18.23-21.70 17.06-20.53 17.06-19.08C17.06-17.61 18.23-16.44 19.70-16.44ZM11.61 4.79C12.30 4.79 12.89 4.22 12.89 3.52L12.89-7.57C15.60-8.02 17.93-9.81 19.05-12.25C19.15-12.48 19.39-12.59 19.85-12.43L25.84-10.42C26.71-10.13 27.30-10.61 27.49-11.20C27.68-11.81 27.46-12.57 26.66-12.83L8.71-18.82C7.84-19.11 7.24-18.63 7.05-18.04C6.86-17.43 7.09-16.68 7.89-16.41L14.36-14.25C14.63-14.16 14.75-13.84 14.58-13.56C13.90-12.48 12.90-11.85 11.61-11.85L5.54-11.85L5.54-17.95C5.54-18.70 5.03-19.21 4.27-19.21C3.49-19.21 2.99-18.70 2.99-17.95L2.99-10.68C2.99-9.84 3.41-9.45 4.05-9.34L9.45-8.44L10.34-3.13L10.34 3.52C10.34 4.22 10.91 4.79 11.61 4.79Z" fill="currentColor"/>
</svg>