<svg xmlns="http://www.w3.org/2000/svg" viewBox="0 0 24 24" width="24" height="24">
  
  <path transform="matrix(0.8260729267505647, 0, 0, 0.8260729267505647, 0.2671829622458859, 18.989351403678604)" d="M14.20 3.64C20.88 3.64 26.31-1.78 26.31-8.46C26.31-15.14 20.88-20.57 14.20-20.57C7.52-20.57 2.10-15.14 2.10-8.46C2.10-1.78 7.52 3.64 14.20 3.64ZM14.20 1.25C8.82 1.25 4.48-3.08 4.48-8.46C4.48-13.84 8.82-18.19 14.20-18.19C19.58-18.19 23.93-13.84 23.93-8.46C23.93-3.08 19.58 1.25 14.20 1.25ZM8.16-14.10L8.58-14.10C8.57-14.36 8.64-14.66 8.80-14.88L8.16-14.88C7.95-14.88 7.77-14.71 7.77-14.50C7.77-14.27 7.95-14.10 8.16-14.10ZM11.38-14.10L17.27-14.10L17.68-14.72C17.73-14.78 17.77-14.84 17.81-14.88L10.84-14.88C10.90-14.82 10.93-14.77 10.97-14.72ZM20.09-14.10L20.38-14.10C20.60-14.10 20.78-14.27 20.78-14.50C20.78-14.71 20.60-14.88 20.38-14.88L19.86-14.88C20.03-14.68 20.11-14.38 20.09-14.10ZM11.13-5.25C11.91-4.31 13.16-4.45 13.79-5.39L19.42-13.82C19.63-14.13 19.54-14.54 19.22-14.75C18.91-14.96 18.48-14.88 18.27-14.57L15.71-10.71C15.41-10.27 14.91-10.03 14.38-10.03C13.82-10.03 13.23-10.30 12.87-10.84L10.38-14.57C10.17-14.88 9.76-14.96 9.45-14.75C9.13-14.54 9.05-14.13 9.26-13.82L12.30-9.25C12.45-9.05 12.55-8.93 12.30-8.55L11.58-7.45L9.70-9.08C9.42-9.32 9-9.34 8.70-9.04L6.38-6.70C6.12-6.42 6.12-6.01 6.38-5.75C6.68-5.47 7.08-5.51 7.32-5.75L9.19-7.59ZM14.38-10.70C15.14-10.70 15.77-11.32 15.77-12.09C15.77-12.87 15.14-13.50 14.38-13.50C13.61-13.50 12.97-12.87 12.97-12.09C12.97-11.32 13.61-10.70 14.38-10.70ZM12.47-0.60C12.68-0.91 12.61-1.31 12.27-1.52L10.27-2.86L11.53-4.23C11.24-4.36 10.95-4.58 10.69-4.88L10.24-5.43L8.68-3.12C8.47-2.82 8.53-2.38 8.86-2.17L11.54-0.41C11.87-0.20 12.27-0.29 12.47-0.60Z" fill="currentColor"/>
</svg>