<svg xmlns="http://www.w3.org/2000/svg" viewBox="0 0 24 24" width="24" height="24">
  <title>figure.table.tennis.circle.fill</title>
  <path transform="matrix(0.8260729267505647, 0, 0, 0.8260729267505647, 0.2671829622458859, 18.989351403678604)" d="M14.20 3.64C20.88 3.64 26.31-1.78 26.31-8.46C26.31-15.14 20.88-20.57 14.20-20.57C7.52-20.57 2.10-15.14 2.10-8.46C2.10-1.78 7.52 3.64 14.20 3.64ZM16.00-12.49C15.20-12.49 14.55-13.16 14.55-13.95C14.55-14.74 15.20-15.40 16.00-15.40C16.79-15.40 17.45-14.74 17.45-13.95C17.45-13.16 16.79-12.49 16.00-12.49ZM7.79-11.27C7.79-11.65 8.11-11.96 8.48-11.96L8.65-11.96L8.65-12.50C8.14-12.79 7.79-13.38 7.79-13.91C7.79-14.61 8.34-15.16 9.04-15.16C9.75-15.16 10.30-14.61 10.30-13.91C10.30-13.39 9.95-12.80 9.45-12.50L9.45-11.96L14.58-11.96C15.79-11.96 16.41-11.84 16.99-11.23L18.25-9.93L19.75-11.43C20.03-11.71 20.44-11.70 20.71-11.43C20.98-11.16 20.96-10.75 20.71-10.48L18.74-8.50C18.60-8.36 18.42-8.30 18.25-8.30C18.07-8.30 17.89-8.36 17.77-8.50L16.31-9.96C16.16-10.11 15.94-10.09 15.87-9.87L14.89-6.97L16.95-5.78C17.11-5.67 17.21-5.55 17.26-5.38L18.25-1.92C18.36-1.51 18.13-1.21 17.82-1.09C17.50-0.97 17.09-1.09 16.95-1.56L16.02-4.69L13.36-5.86C12.57-6.21 12.18-7.08 12.46-7.92L13.23-10.21C13.31-10.46 13.16-10.59 12.97-10.59L8.48-10.59C8.11-10.59 7.79-10.90 7.79-11.27ZM18.13-7.15C18.13-7.39 18.34-7.59 18.56-7.59L22.42-7.59L22.42-6.71L18.56-6.71C18.34-6.71 18.13-6.93 18.13-7.15ZM9.47-1.32C9.25-1.63 9.27-2.09 9.70-2.32L12.39-3.82L12.76-5.52C12.77-5.48 12.89-5.43 13.14-5.31L14.19-4.85L13.62-3.18C13.56-2.99 13.45-2.86 13.30-2.78L10.36-1.14C9.97-0.94 9.64-1.07 9.47-1.32Z" fill="currentColor"/>
</svg>