<svg xmlns="http://www.w3.org/2000/svg" viewBox="0 0 24 24" width="24" height="24">
  
  <path transform="matrix(0.7303040109852013, 0, 0, 0.7303040109852013, 2.084951950438711, 18.133150920524734)" d="M11.14 2.91L16.68 2.91C18.46 2.91 19.38 1.96 19.38 0.04L19.38-8.26C19.38-9.93 18.69-10.84 17.36-11.07L17.36-14.11C17.36-16.85 19.11-18.35 21.21-18.35C23.31-18.35 25.08-16.85 25.08-14.11L25.08-11.51C25.08-10.76 25.57-10.32 26.18-10.32C26.78-10.32 27.27-10.72 27.27-11.51L27.27-13.90C27.27-18.22 24.41-20.45 21.21-20.45C18.01-20.45 15.16-18.22 15.16-13.90L15.16-11.12L9.49-11.12C9.46-10.75 9.39-10.42 9.25-10.08L11.66-9.02L16.35-9.02C16.84-9.02 17.11-8.74 17.11-8.18L17.11-0.05C17.11 0.52 16.84 0.81 16.35 0.81L10.76 0.81L11.06 2.04C11.13 2.34 11.17 2.64 11.14 2.91ZM5.93-9.54C7.02-9.54 7.88-10.41 7.88-11.47C7.88-12.56 7.02-13.44 5.93-13.44C4.85-13.44 3.97-12.56 3.97-11.47C3.97-10.41 4.85-9.54 5.93-9.54ZM5.92-2.59C6.18-2.59 6.39-2.44 6.47-2.13L7.78 2.96C8.09 4.11 9.66 3.70 9.49 2.63C9.42 2.21 8.27-2.11 8.11-3.08C7.99-3.80 8.05-5.61 8.05-6.40C8.05-6.64 8.25-6.79 8.50-6.68L10.75-5.77C11.36-5.52 11.78-5.81 11.91-6.22C12.04-6.61 11.87-7.10 11.30-7.34L8.86-8.33C8.31-8.57 7.82-8.68 7.25-8.75C6.86-8.57 6.41-8.44 5.92-8.44C5.43-8.44 4.98-8.57 4.57-8.75C4.02-8.68 3.52-8.57 2.96-8.33L0.54-7.34C-0.04-7.10-0.21-6.61-0.07-6.22C0.05-5.81 0.48-5.52 1.09-5.77L3.33-6.68C3.57-6.79 3.79-6.64 3.79-6.40C3.79-5.61 3.83-3.80 3.71-3.08C3.55-2.11 2.41 2.21 2.34 2.63C2.18 3.70 3.75 4.11 4.04 2.96L5.37-2.13C5.45-2.44 5.65-2.59 5.92-2.59Z" fill="currentColor"/>
</svg>