<svg xmlns="http://www.w3.org/2000/svg" viewBox="0 0 24 24" width="24" height="24">
  
  <path transform="matrix(0.8260729267505647, 0, 0, 0.8260729267505647, 0.2671829622458859, 18.989351403678604)" d="M14.20 3.64C20.88 3.64 26.31-1.78 26.31-8.46C26.31-15.14 20.88-20.57 14.20-20.57C7.52-20.57 2.10-15.14 2.10-8.46C2.10-1.78 7.52 3.64 14.20 3.64ZM14.47-13.07C13.66-13.07 13.02-13.72 13.02-14.53C13.02-15.33 13.66-15.97 14.47-15.97C15.27-15.97 15.91-15.33 15.91-14.53C15.91-13.72 15.27-13.07 14.47-13.07ZM19.84-11.02L14.79-11.02C14.54-11.02 14.34-10.90 14.23-10.66L12.98-8.18L15.29-5.86C15.41-5.74 15.49-5.57 15.49-5.39L15.49-1.72C15.49-1.34 15.18-1.03 14.79-1.03C14.41-1.03 14.12-1.34 14.12-1.72L14.12-5.04L11.73-6.86C11.59-6.96 11.38-6.94 11.29-6.79L9.35-3.95C9.11-3.61 8.65-3.56 8.37-3.86L6-6.22C5.72-6.50 5.73-6.93 6-7.20C6.26-7.46 6.69-7.46 6.97-7.20L8.63-5.55L11.58-11.46C11.88-12.05 12.43-12.39 13.09-12.39L19.84-12.39C20.23-12.39 20.54-12.09 20.54-11.71C20.54-11.32 20.23-11.02 19.84-11.02ZM19.42-9.43C19.42-10.08 20.17-10.61 21.11-10.61C22.04-10.61 22.79-10.08 22.79-9.43C22.79-8.77 22.04-8.24 21.11-8.24C20.17-8.24 19.42-8.77 19.42-9.43ZM15.80-8.02C15.62-8.02 15.45-8.10 15.32-8.21L14.21-9.33L14.74-10.36C14.77-10.42 14.78-10.42 14.82-10.42L15.07-10.42L16.09-9.40L18.18-9.40C18.56-9.40 18.86-9.09 18.86-8.71C18.86-8.33 18.56-8.02 18.18-8.02Z" fill="currentColor"/>
</svg>