<svg xmlns="http://www.w3.org/2000/svg" viewBox="0 0 24 24" width="24" height="24">
  <title>figure.pickleball.circle</title>
  <path transform="matrix(0.8260729267505647, 0, 0, 0.8260729267505647, 0.2671829622458859, 18.989351403678604)" d="M14.20 3.64C20.88 3.64 26.31-1.78 26.31-8.46C26.31-15.14 20.88-20.57 14.20-20.57C7.52-20.57 2.10-15.14 2.10-8.46C2.10-1.78 7.52 3.64 14.20 3.64ZM14.20 1.25C8.82 1.25 4.48-3.08 4.48-8.46C4.48-13.84 8.82-18.19 14.20-18.19C19.58-18.19 23.93-13.84 23.93-8.46C23.93-3.08 19.58 1.25 14.20 1.25ZM19.46-11.40C19.45-11.41 19.43-11.43 19.41-11.45L19.41-12.11L19.97-12.39C20.19-12.50 20.32-12.71 20.32-12.96L20.32-14.92C20.32-15.28 20.05-15.59 19.69-15.59L18.28-15.59C17.93-15.59 17.64-15.28 17.64-14.92L17.64-12.96C17.64-12.71 17.79-12.50 18-12.39L18.56-12.11L18.56-11.44C18.55-11.43 18.54-11.41 18.52-11.40L17.00-9.89L15.47-11.41C15.16-11.73 14.68-11.92 14.19-11.92L10.05-11.92C9.75-11.92 9.52-11.75 9.42-11.45L8.43-8.48C8.27-8.02 8.54-7.68 8.87-7.61C9.19-7.51 9.54-7.65 9.68-8.07L10.54-10.58L11.86-10.58C11.99-10.58 12.07-10.48 12.04-10.35L11.20-7.85C10.92-7.02 11.17-6.22 12.09-5.81L14.79-4.64L15.66-1.61C15.77-1.20 16.15-1.07 16.46-1.16C16.79-1.23 17.06-1.54 16.95-1.98L15.97-5.32C15.91-5.51 15.82-5.65 15.61-5.73L13.54-6.66L14.63-9.98C14.67-10.11 14.84-10.17 14.94-10.05L16.52-8.46C16.78-8.20 17.21-8.19 17.47-8.46L19.46-10.45C19.73-10.72 19.72-11.13 19.46-11.40ZM14.19-12.57C14.96-12.57 15.60-13.21 15.60-13.97C15.60-14.74 14.96-15.38 14.19-15.38C13.42-15.38 12.80-14.74 12.80-13.97C12.80-13.21 13.42-12.57 14.19-12.57ZM11.40-5.51L11.10-3.74L8.80-2.46C8.38-2.23 8.39-1.82 8.57-1.52C8.74-1.25 9.06-1.07 9.47-1.29L12.05-2.72C12.23-2.82 12.30-2.95 12.36-3.15L12.90-4.79L11.86-5.26C11.67-5.34 11.53-5.43 11.40-5.51Z" fill="currentColor"/>
</svg>