<svg xmlns="http://www.w3.org/2000/svg" viewBox="0 0 24 24" width="24" height="24">
  
  <path transform="matrix(0.7494419438650419, 0, 0, 0.7494419438650419, 2.3008014052036447, 19.20298337022414)" d="M1.28-17.31C0.63-16.65 1.05-15.80 1.88-15.75L5.98-15.53C6.56-15.49 6.91-15.87 6.89-16.44L6.64-20.52C6.60-21.40 5.71-21.75 5.09-21.14L3.82-19.88L1.16-22.54C0.80-22.90 0.21-22.90-0.15-22.54C-0.48-22.20-0.49-21.61-0.14-21.25L2.53-18.57ZM23.02-14.14C24.83-14.14 26.29-15.66 26.29-17.40C26.29-19.23 24.83-20.71 23.02-20.71C21.20-20.71 19.75-19.23 19.75-17.40C19.75-15.62 21.20-14.14 23.02-14.14ZM3.62 3.12C4.27 3.80 5.36 3.74 6.14 2.93L11.30-2.40C11.47-2.59 11.60-2.63 11.88-2.52L15.84-1.02C18.43-0.05 20.98-0.95 22.14-3.07L24.67-7.66C25.69-9.53 25.36-11.41 23.61-12.36C21.90-13.30 20.14-12.60 19.11-10.71L15.75-4.61L12.91-5.64C11.46-6.18 10.24-6 9.08-4.79L3.73 0.75C2.95 1.55 3.02 2.53 3.62 3.12ZM1.16-4.89L3.82-7.55L5.09-6.28C5.71-5.67 6.60-6.02 6.64-6.89L6.89-10.98C6.91-11.55 6.56-11.93 5.98-11.89L1.88-11.66C1.05-11.61 0.63-10.76 1.28-10.10L2.53-8.85L-0.14-6.18C-0.49-5.81-0.48-5.23-0.15-4.89C0.21-4.52 0.80-4.52 1.16-4.89Z" fill="currentColor"/>
</svg>