<svg xmlns="http://www.w3.org/2000/svg" viewBox="0 0 24 24" width="24" height="24">
  
  <path transform="matrix(0.8260729267505647, 0, 0, 0.8260729267505647, 0.2671829622458859, 18.989351403678604)" d="M14.20 3.64C20.88 3.64 26.31-1.78 26.31-8.46C26.31-15.14 20.88-20.57 14.20-20.57C7.52-20.57 2.10-15.14 2.10-8.46C2.10-1.78 7.52 3.64 14.20 3.64ZM14.20 1.25C8.82 1.25 4.48-3.08 4.48-8.46C4.48-13.84 8.82-18.19 14.20-18.19C19.58-18.19 23.93-13.84 23.93-8.46C23.93-3.08 19.58 1.25 14.20 1.25ZM17.10-13.10C17.86-13.10 18.48-13.72 18.48-14.51C18.48-15.26 17.86-15.89 17.10-15.89C16.31-15.89 15.69-15.26 15.69-14.51C15.69-13.72 16.31-13.10 17.10-13.10ZM13.91-3.33C14.29-3.33 14.59-3.63 14.59-4.00L14.59-7.30C14.59-7.46 14.54-7.62 14.44-7.72L12.95-9.56C12.86-9.67 12.89-9.79 13.00-9.83L14.80-10.78C14.93-10.85 15.05-10.80 15.06-10.66L15.22-9.55C15.26-9.29 15.41-9.12 15.67-8.99L17.47-8.09C17.96-7.84 18.36-8.03 18.49-8.36C18.62-8.65 18.52-9.05 18.11-9.26L16.52-10.08L16.25-11.96C16.11-13.01 14.98-13.63 13.90-13.07L11.52-11.82C10.43-11.25 10.27-10.00 11.10-9.16L13.25-7.02L13.25-4.00C13.25-3.63 13.56-3.33 13.91-3.33ZM10.42-1.63C10.14-1.45 10.22-1.03 10.56-1.03L17.24-1.03C17.57-1.03 17.65-1.45 17.39-1.63L16.24-2.38L17.77-7.00C17.85-7.22 17.72-7.48 17.51-7.55C17.26-7.63 17.04-7.50 16.97-7.28L16.13-4.78C15.89-5.21 15.53-5.58 15.09-5.81L15.09-4.75C15.40-4.45 15.56-4.04 15.56-3.57C15.56-2.65 14.84-1.91 13.89-1.91C13.00-1.91 12.23-2.66 12.23-3.57C12.23-4.04 12.43-4.46 12.75-4.77L12.75-5.82C12.30-5.60 11.92-5.24 11.67-4.79L10.91-7.08L11.40-7.18C11.60-7.22 11.73-7.37 11.73-7.58C11.73-7.79 11.59-7.95 11.39-7.97L9.06-8.38C8.65-8.46 8.45-8.12 8.63-7.78L8.86-7.37C9.12-6.91 9.57-6.79 10.04-6.88L10.07-6.89L11.57-2.39Z" fill="currentColor"/>
</svg>