<svg xmlns="http://www.w3.org/2000/svg" viewBox="0 0 24 24" width="24" height="24">
  
  <path transform="matrix(0.8260729267505647, 0, 0, 0.8260729267505647, 0.2671829622458859, 18.989351403678604)" d="M14.20 3.64C20.88 3.64 26.31-1.78 26.31-8.46C26.31-15.14 20.88-20.57 14.20-20.57C7.52-20.57 2.10-15.14 2.10-8.46C2.10-1.78 7.52 3.64 14.20 3.64ZM14.20 1.25C8.82 1.25 4.48-3.08 4.48-8.46C4.48-13.84 8.82-18.19 14.20-18.19C19.58-18.19 23.93-13.84 23.93-8.46C23.93-3.08 19.58 1.25 14.20 1.25ZM11.06-12.79C11.84-12.79 12.47-13.41 12.47-14.18C12.47-14.95 11.84-15.57 11.06-15.57C10.30-15.57 9.67-14.95 9.67-14.18C9.67-13.41 10.30-12.79 11.06-12.79ZM14.92-1.95L18.47-1.95C18.90-1.95 19.03-2.50 18.68-2.74L17.48-3.53C17.59-3.71 17.66-3.91 17.73-4.14L19.16-9.83C20.11-9.88 20.88-10.68 20.88-11.63C20.88-12.60 20.06-13.41 19.09-13.41C18.11-13.41 17.30-12.60 17.30-11.63C17.30-10.92 17.72-10.30 18.32-10.01L16.90-4.35C16.66-3.42 15.88-2.80 14.92-2.80C14.68-2.80 14.50-2.60 14.50-2.38C14.50-2.16 14.67-1.95 14.92-1.95ZM19.09-10.68C18.54-10.68 18.14-11.07 18.14-11.63C18.14-12.16 18.54-12.56 19.09-12.56C19.63-12.56 20.04-12.16 20.04-11.63C20.04-11.07 19.63-10.68 19.09-10.68ZM13.24-2.11C13.56-2.03 13.95-2.19 14.05-2.58L15-6.04C15.13-6.48 14.94-6.82 14.47-6.94L11.73-7.72L11.94-10.10C11.94-10.18 12.02-10.22 12.09-10.17L13.35-9.27C13.58-9.11 13.89-9.11 14.12-9.27L16.36-10.88C16.66-11.09 16.73-11.50 16.51-11.80C16.31-12.11 15.89-12.16 15.60-11.96L13.75-10.63L12.21-11.72C11.89-11.96 11.48-12.13 11.00-12.13C10.17-12.13 9.55-11.60 9.50-10.86L9.29-7.86C9.23-6.96 9.67-6.29 10.68-6.14L13.54-5.73L12.77-2.93C12.67-2.53 12.88-2.20 13.24-2.11ZM9.18-1.95L11.92-1.95C12.15-1.95 12.34-2.16 12.34-2.38C12.34-2.60 12.15-2.80 11.92-2.80C11.53-2.80 11.26-2.96 11.16-3.42L10.90-4.55L11.38-4.65C11.57-4.69 11.68-4.86 11.68-5.05C11.68-5.24 11.54-5.40 11.36-5.44L9.23-5.79C8.82-5.87 8.67-5.48 8.80-5.21L8.93-4.98C9.15-4.54 9.53-4.29 10.07-4.37L10.24-3.57L8.94-2.73C8.59-2.50 8.72-1.95 9.18-1.95Z" fill="currentColor"/>
</svg>