<svg xmlns="http://www.w3.org/2000/svg" viewBox="0 0 24 24" width="24" height="24">
  <title>figure.hiking</title>
  <path transform="matrix(0.7339425571918381, 0, 0, 0.7339425571918381, 3.5720911980355488, 18.401895975369165)" d="M11.50-17.05C12.96-17.05 14.14-18.23 14.14-19.70C14.14-21.16 12.96-22.35 11.50-22.35C10.03-22.35 8.85-21.16 8.85-19.70C8.85-18.23 10.03-17.05 11.50-17.05ZM5.18 4.45L8.58 0.42C8.94-0.02 9.07-0.26 9.33-0.79L11.43-5.32C12.09-6.75 12.25-7.69 12.36-9.20L12.49-11.05L14.29-9.30C14.71-8.89 15.06-8.77 15.81-8.77L18.69-8.77C19.46-8.77 19.98-9.21 19.98-9.93C19.98-10.63 19.45-11.09 18.69-11.09L15.63-11.09L12.04-15C11.48-15.61 10.76-15.96 9.89-15.96C9.70-15.96 9.52-15.95 9.35-15.93C9.35-16.82 8.59-17.55 7.61-17.55L6.39-17.55C4.97-17.55 4.13-16.71 4.13-15.28L4.13-9.36C4.13-8.37 4.83-7.68 5.81-7.68L7.31-7.68C7.31-6.88 7.50-6.32 7.95-5.63L6.88-1.38L3.38 2.77C2.13 4.24 4.17 5.65 5.18 4.45ZM18.67-14.50C18.27-14.50 17.96-14.20 17.96-13.82L17.96-12.28L18.69-12.28C18.87-12.28 19.09-12.25 19.35-12.20L19.35-13.82C19.35-14.20 19.05-14.50 18.67-14.50ZM18.66 4.90C19.04 4.90 19.35 4.59 19.35 4.20L19.35-7.64C19.11-7.59 18.88-7.57 18.69-7.57L17.96-7.57L17.96 4.20C17.96 4.59 18.26 4.90 18.66 4.90ZM16.32 2.93L13.90-2.00C13.70-2.40 13.43-2.82 13.18-3.19L12.32-4.38L11.06-1.68C11.29-1.37 11.39-1.21 11.48-1.01L13.99 4.07C14.79 5.68 17.18 4.68 16.32 2.93Z" fill="currentColor"/>
</svg>