<svg xmlns="http://www.w3.org/2000/svg" viewBox="0 0 24 24" width="24" height="24">
  <title>figure.gymnastics.circle.fill</title>
  <path transform="matrix(0.8260729267505647, 0, 0, 0.8260729267505647, 0.2671829622458859, 18.989351403678604)" d="M14.20 3.64C20.88 3.64 26.31-1.78 26.31-8.46C26.31-15.14 20.88-20.57 14.20-20.57C7.52-20.57 2.10-15.14 2.10-8.46C2.10-1.78 7.52 3.64 14.20 3.64ZM14.20-11.53C13.38-11.53 12.75-12.20 12.75-13.01C12.75-13.79 13.38-14.45 14.20-14.45C15-14.45 15.64-13.79 15.64-13.01C15.64-12.20 15-11.53 14.20-11.53ZM8.10-5.45C7.64-5.48 7.46-5.74 7.46-6.14L7.46-9.48C7.46-9.86 7.77-10.16 8.17-10.16C8.52-10.16 8.85-9.86 8.85-9.48L8.85-6.83L11.43-6.83C11.73-7.35 12.30-8.46 12.45-9.63C12.47-9.75 12.40-9.84 12.28-9.87L7.64-11.14C7.27-11.25 7.05-11.64 7.15-12C7.25-12.38 7.64-12.59 8.00-12.48L13.00-11.10C13.95-10.84 14.03-10.84 14.91-10.84L20.18-10.84C20.57-10.84 20.87-10.52 20.87-10.14C20.87-9.76 20.57-9.46 20.18-9.46L15.39-9.46C15.25-9.46 15.18-9.39 15.16-9.26C15.04-8.02 14.53-6.89 14.17-6.18L16.93-5.17C16.98-5.16 17.10-5.10 17.16-5.07L20.32-3.94C20.67-3.81 20.82-3.41 20.73-3.05C20.59-2.64 20.14-2.52 19.83-2.64L16.68-3.80L12.66-4.92C12.13-5.07 11.94-5.12 11.39-5.17Z" fill="currentColor"/>
</svg>