<svg xmlns="http://www.w3.org/2000/svg" viewBox="0 0 24 24" width="24" height="24">
  
  <path transform="matrix(0.6559057135536767, 0, 0, 0.6559057135536767, 0.03996925441967725, 17.60202689391849)" d="M23.13-14.52C24.59-14.52 25.76-15.69 25.76-17.14C25.76-18.60 24.59-19.78 23.13-19.78C21.67-19.78 20.50-18.60 20.50-17.14C20.50-15.69 21.67-14.52 23.13-14.52ZM14.34 2.57C14.81 2.84 15.64 2.72 16.00 2.00L18.97-3.90C19.20-4.38 19.13-4.95 18.74-5.33L15.20-8.87L16.90-9.71L22.55-4.07L22.55-3.77C22.55-3.09 23.11-2.53 23.79-2.53C23.87-2.53 23.96-2.54 24.05-2.57L28.56 1.95C28.78 2.18 28.96 2.21 29.18 2.21L32.75 2.21C33.14 2.21 33.48 1.88 33.48 1.48L33.48 0.88C33.48 0.48 33.14 0.13 32.75 0.13L28.85 0.13L25.02-3.69C25.02-3.71 25.02-3.74 25.02-3.77L25.02-9.19C25.02-9.53 24.94-9.82 24.67-10.09L19.31-15.41C18.69-16.02 17.88-16.36 17.03-16.36L12.47-16.36C11.24-16.36 10.89-15 11.64-14.26L13.01-12.90L12.49-12.70C10.31-11.79 9.67-8.92 11.73-7.41L16.29-4.08L13.79 0.91C13.48 1.52 13.73 2.25 14.34 2.57ZM19.65-11.10C19.86-11.20 20.07-11.16 20.23-11.00L22.55-8.68L22.55-6.16L18.28-10.41ZM4.22-2.03L10.15-2.03C10.64-2.03 11.05-2.34 11.25-2.72L12.55-5.33L11.03-6.45C10.70-6.69 10.41-6.96 10.18-7.25L9.26-4.51L4.22-4.51C3.54-4.51 2.99-3.96 2.99-3.26C2.99-2.59 3.54-2.03 4.22-2.03Z" fill="currentColor"/>
</svg>