<svg xmlns="http://www.w3.org/2000/svg" viewBox="0 0 24 24" width="24" height="24">
  <title>figure.skiing.downhill</title>
  <path transform="matrix(0.6785950960901259, 0, 0, 0.6785950960901259, 1.1928429423459241, 17.697813121272368)" d="M22.52-17.86C23.96-17.86 25.16-19.05 25.16-20.50C25.16-21.94 23.96-23.13 22.52-23.13C21.08-23.13 19.89-21.94 19.89-20.50C19.89-19.05 21.08-17.86 22.52-17.86ZM3.73-14.65L11.26-14.65L11.17-14.55C10.14-13.55 10.14-11.84 11.17-10.83L13.25-8.75L13.25-7.18L11.24-9.19C10.95-9.49 10.48-9.49 10.20-9.19C9.90-8.91 9.90-8.44 10.20-8.16L13.25-5.09L13.25-3.48L8.18-8.55C7.88-8.86 7.41-8.86 7.13-8.55C6.84-8.27 6.84-7.80 7.13-7.52L19.93 5.30C20.70 6.05 21.54 6.34 22.48 6.34C22.90 6.34 23.23 6.01 23.23 5.60C23.23 5.19 22.90 4.86 22.48 4.86C21.69 4.86 21.46 4.71 20.80 4.07L15.45-1.29C15.64-1.52 15.77-1.82 15.77-2.14L15.77-2.57L23.00 4.66C23.75 5.41 24.60 5.71 25.55 5.71C25.96 5.71 26.29 5.38 26.29 4.97C26.29 4.55 25.96 4.22 25.55 4.22C24.75 4.22 24.52 4.08 23.86 3.42L18.86-1.58C19.05-1.80 19.17-2.10 19.17-2.43L19.17-8.13C19.17-8.47 19.05-8.81 18.82-9.02L15.73-12.12L18.48-14.89C18.64-15.05 18.90-15.06 19.07-14.89L21.01-12.93C21.23-12.69 21.57-12.57 21.89-12.57L27.35-12.57L27.35-2.37C27.35-1.97 27.69-1.63 28.10-1.63C28.50-1.63 28.84-1.97 28.84-2.37L28.84-13.57C28.85-13.65 28.86-13.73 28.86-13.83C28.86-14.52 28.31-15.09 27.61-15.09L22.42-15.09L18.19-19.34C17.65-19.89 16.85-20.21 16.08-20.21L11.61-20.21C10.36-20.21 9.98-18.82 10.77-18.04L12.68-16.14L3.73-16.14C3.33-16.14 2.99-15.80 2.99-15.39C2.99-14.99 3.33-14.65 3.73-14.65ZM15.77-8.48L16.65-7.62L16.65-3.77L15.77-4.65Z" fill="currentColor"/>
</svg>