<svg xmlns="http://www.w3.org/2000/svg" viewBox="0 0 24 24" width="24" height="24">
  <title>figure.seated.side.left.air.distribution.upper.and.middle.and.lower</title>
  <path transform="matrix(0.7554708276848014, 0, 0, 0.7554708276848014, 2.0100156200233523, 19.29136606925572)" d="M4.90-15.23L4.90-17.98L6.69-17.98C7.56-17.98 7.95-18.86 7.36-19.50L4.64-22.56C4.25-22.99 3.74-23.00 3.35-22.56L0.61-19.50C0.06-18.89 0.38-17.99 1.29-17.99L3.08-17.98L3.08-15.23C3.08-14.72 3.48-14.31 3.98-14.31C4.49-14.31 4.90-14.72 4.90-15.23ZM22.84-14.14C24.66-14.14 26.11-15.66 26.11-17.40C26.11-19.23 24.66-20.71 22.84-20.71C21.02-20.71 19.56-19.23 19.56-17.40C19.56-15.62 21.02-14.14 22.84-14.14ZM6.95-12.30L10.08-12.30L10.08-10.51C10.08-9.66 10.97-9.26 11.61-9.84L14.66-12.56C15.09-12.96 15.11-13.48 14.66-13.86L11.61-16.58C10.99-17.14 10.08-16.83 10.08-15.91L10.08-14.13L6.95-14.13C6.42-14.13 6.02-13.73 6.02-13.23C6.02-12.70 6.42-12.30 6.95-12.30ZM3.45 3.12C4.09 3.80 5.18 3.74 5.96 2.93L11.12-2.40C11.30-2.59 11.43-2.63 11.70-2.52L15.67-1.02C18.26-0.05 20.80-0.95 21.96-3.07L24.49-7.66C25.51-9.53 25.18-11.41 23.44-12.36C21.73-13.30 19.96-12.60 18.93-10.71L15.57-4.61L12.74-5.64C11.29-6.18 10.07-6 8.89-4.79L3.55 0.75C2.78 1.55 2.85 2.53 3.45 3.12ZM1.29-8.45C0.38-8.45 0.06-7.55 0.61-6.94L3.35-3.88C3.74-3.43 4.25-3.45 4.64-3.88L7.36-6.94C7.95-7.58 7.56-8.46 6.69-8.46L4.90-8.46L4.90-11.20C4.90-11.72 4.49-12.13 3.98-12.13C3.48-12.13 3.08-11.72 3.08-11.20L3.08-8.46Z" fill="currentColor"/>
</svg>