<svg xmlns="http://www.w3.org/2000/svg" viewBox="0 0 24 24" width="24" height="24">
  <title>figure.cooldown.circle.fill</title>
  <path transform="matrix(0.8260729267505647, 0, 0, 0.8260729267505647, 0.2671829622458859, 18.989351403678604)" d="M14.20 3.64C20.88 3.64 26.31-1.78 26.31-8.46C26.31-15.14 20.88-20.57 14.20-20.57C7.52-20.57 2.10-15.14 2.10-8.46C2.10-1.78 7.52 3.64 14.20 3.64ZM14.02-4.09L12.19-0.77C11.98-0.38 11.57-0.30 11.24-0.48C10.90-0.66 10.79-1.09 10.97-1.43L12.76-4.72L12.82-4.84L14.44-7.79L11.38-7.79C10.84-7.79 10.49-8.34 10.78-8.85L13.04-12.71C13.09-12.81 13.08-12.89 13.01-12.96C12.47-13.52 11.85-14.04 11.16-14.53L8.94-14.53C8.57-14.53 8.26-14.85 8.26-15.25C8.26-15.63 8.57-15.94 8.94-15.94L11.20-15.94C11.45-15.94 11.66-15.87 11.87-15.73C16.32-12.76 17.86-7.71 18.61-5.05L18.63-4.93C19.10-3.25 19.15-1.63 19.15-1.10C19.15-0.70 18.86-0.40 18.46-0.40C18.07-0.40 17.75-0.70 17.75-1.13C17.75-1.35 17.72-2.53 17.29-4.54L16.02-6.86ZM10.34-10.91C9.53-10.91 8.88-11.55 8.88-12.36C8.88-13.16 9.53-13.82 10.34-13.82C11.14-13.82 11.78-13.16 11.78-12.36C11.78-11.55 11.14-10.91 10.34-10.91ZM12.57-9.19L13.91-9.19L13.35-10.04C13.29-10.14 13.14-10.16 13.05-10.02Z" fill="currentColor"/>
</svg>