<svg xmlns="http://www.w3.org/2000/svg" viewBox="0 0 24 24" width="24" height="24">
  
  <path transform="matrix(0.8260729267505647, 0, 0, 0.8260729267505647, 0.2671829622458859, 18.989351403678604)" d="M14.20 3.64C20.88 3.64 26.31-1.78 26.31-8.46C26.31-15.14 20.88-20.57 14.20-20.57C7.52-20.57 2.10-15.14 2.10-8.46C2.10-1.78 7.52 3.64 14.20 3.64ZM14.78-13.39C13.96-13.39 13.30-14.05 13.30-14.86C13.30-15.67 13.96-16.32 14.78-16.32C15.57-16.32 16.23-15.67 16.23-14.86C16.23-14.05 15.57-13.39 14.78-13.39ZM16.29-1.71L14.85-4.64C14.79-4.75 14.77-4.83 14.64-4.99L13.24-6.74C12.71-7.41 12.53-7.78 12.60-8.54L12.70-10.02C12.71-10.21 12.48-10.30 12.32-10.15L11.82-9.73L11.67-7.93C11.64-7.49 11.40-7.25 11.00-7.29C10.62-7.30 10.38-7.59 10.41-8.02L10.54-9.64C10.56-10.09 10.68-10.37 11.02-10.72L12.07-11.75C12.75-12.41 13.24-12.80 13.97-12.80C14.95-12.80 15.53-12.07 15.46-11.10L15.32-9.12C15.27-8.40 15.18-7.97 14.93-7.25L14.88-7.09L15.77-5.81C15.90-5.63 16.04-5.40 16.16-5.19L17.55-2.33C18.04-1.38 16.72-0.83 16.29-1.71ZM18.70-10.08C19.14-10.08 19.41-9.84 19.41-9.46C19.41-9.06 19.14-8.81 18.70-8.81L17.23-8.81C16.80-8.81 16.62-8.88 16.38-9.12L16.03-9.47L16.15-11.16L17.12-10.08ZM11.29-1.52C10.72-0.86 9.63-1.64 10.30-2.43L12.34-4.86L12.68-6.36L13.79-4.93L13.66-4.54C13.58-4.28 13.56-4.22 13.36-3.97Z" fill="currentColor"/>
</svg>