<svg xmlns="http://www.w3.org/2000/svg" viewBox="0 0 24 24" width="24" height="24">
  <title>figure.indoor.rowing.circle</title>
  <path transform="matrix(0.8260729267505647, 0, 0, 0.8260729267505647, 0.2671829622458859, 18.989351403678604)" d="M14.20 3.64C20.88 3.64 26.31-1.78 26.31-8.46C26.31-15.14 20.88-20.57 14.20-20.57C7.52-20.57 2.10-15.14 2.10-8.46C2.10-1.78 7.52 3.64 14.20 3.64ZM14.20 1.25C8.82 1.25 4.48-3.08 4.48-8.46C4.48-13.84 8.82-18.19 14.20-18.19C19.58-18.19 23.93-13.84 23.93-8.46C23.93-3.08 19.58 1.25 14.20 1.25ZM12.20-11.93C12.96-11.93 13.58-12.55 13.58-13.34C13.58-14.11 12.96-14.73 12.20-14.73C11.41-14.73 10.79-14.11 10.79-13.34C10.79-12.55 11.41-11.93 12.20-11.93ZM8.84-7.13C8.55-6.07 9.22-5.40 10.05-5.40C10.31-5.40 10.58-5.47 10.85-5.61L14.27-7.43L18.05-5.54C18.53-5.30 18.91-5.48 19.05-5.80C19.21-6.08 19.11-6.50 18.66-6.73L14.70-8.73C14.43-8.86 14.13-8.87 13.86-8.74L11.34-7.65L11.84-9.41C11.93-9.73 12.21-9.94 12.53-9.94L17.72-9.94C18.09-9.94 18.40-10.24 18.40-10.62C18.40-10.98 18.09-11.27 17.72-11.27L12.06-11.27C10.79-11.27 9.75-10.55 9.46-9.46ZM8.65-3.32L19.75-3.32C19.98-3.32 20.17-3.50 20.17-3.74C20.17-3.97 19.98-4.16 19.75-4.16L8.65-4.16C8.41-4.16 8.23-3.97 8.23-3.74C8.23-3.50 8.41-3.32 8.65-3.32Z" fill="currentColor"/>
</svg>