<svg xmlns="http://www.w3.org/2000/svg" viewBox="0 0 24 24" width="24" height="24">
  <title>figure.kickboxing</title>
  <path transform="matrix(0.7090515688550278, 0, 0, 0.7090515688550278, 1.7305996508323944, 18.036752279963324)" d="M5.64-17.34C7.08-17.34 8.25-18.53 8.25-19.99C8.25-21.43 7.08-22.62 5.64-22.62C4.16-22.62 2.99-21.43 2.99-19.99C2.99-18.53 4.16-17.34 5.64-17.34ZM4.31-7.63L9.20-7.63L9.48-7.35C10.08-6.74 10.89-6.45 11.68-6.45C12.35-6.45 13.00-6.63 13.55-7.05L19.48-11.50L25.36-15.02C25.96-15.39 26.16-16.14 25.80-16.73C25.44-17.32 24.69-17.51 24.08-17.14L12.91-10.45L9.82-13.55C9.73-13.63 9.74-13.64 9.86-13.64L12.70-13.64C13.41-13.64 13.97-14.20 13.97-14.88L13.97-18.41C14.67-18.67 15.18-19.34 15.18-20.13C15.18-21.15 14.33-21.98 13.31-21.98C12.29-21.98 11.46-21.15 11.46-20.13L11.46-16.13L5.50-16.13C4.16-16.13 3.06-15.04 3.06-13.70L3.06-8.87C3.06-8.19 3.61-7.63 4.31-7.63ZM5.44-10.03L5.44-11.12C5.44-11.27 5.61-11.36 5.73-11.24L6.93-10.03ZM11.86 5.57C12.50 5.70 13.21 5.27 13.35 4.58L14.54-1.42C14.58-1.57 14.58-1.70 14.57-1.86L14.34-6.15C13.49-5.53 12.59-5.25 11.68-5.25C11.57-5.25 11.44-5.25 11.32-5.26L12.04-1.66L10.89 4.09C10.75 4.77 11.19 5.44 11.86 5.57Z" fill="currentColor"/>
</svg>