<svg xmlns="http://www.w3.org/2000/svg" viewBox="0 0 24 24" width="24" height="24">
  <title>figure.seated.side.right.air.distribution.middle</title>
  <path transform="matrix(0.823303100794634, 0, 0, 0.823303100794634, 0.021889085188210977, 19.048163036376387)" d="M6.26-14.14C8.07-14.14 9.53-15.62 9.53-17.40C9.53-19.23 8.07-20.71 6.26-20.71C4.44-20.71 2.99-19.23 2.99-17.40C2.99-15.66 4.44-14.14 6.26-14.14ZM19.66-10.07L19.66-12.14L25.02-12.14C25.63-12.14 26.11-12.62 26.11-13.23C26.11-13.83 25.63-14.31 25.02-14.31L19.66-14.31L19.66-16.37C19.66-17.40 18.63-17.75 17.93-17.13L14.37-13.96C13.86-13.50 13.88-12.91 14.37-12.48L17.93-9.30C18.67-8.65 19.66-9.08 19.66-10.07ZM25.65 3.12C26.24 2.53 26.32 1.55 25.55 0.75L20.19-4.79C19.03-6 17.81-6.18 16.36-5.64L13.52-4.61L10.16-10.71C9.13-12.60 7.37-13.30 5.66-12.36C3.91-11.41 3.59-9.53 4.59-7.66L7.14-3.07C8.30-0.95 10.84-0.05 13.43-1.02L17.39-2.52C17.67-2.63 17.80-2.59 17.98-2.40L23.13 2.93C23.92 3.74 25.01 3.80 25.65 3.12Z" fill="currentColor"/>
</svg>