<svg xmlns="http://www.w3.org/2000/svg" viewBox="0 0 24 24" width="24" height="24">
  <title>figure.rolling</title>
  <path transform="matrix(0.7292321799215237, 0, 0, 0.7292321799215237, -0.17606453394164934, 18.17426074210899)" d="M25.56-12.50C27.02-12.50 28.20-13.69 28.20-15.14C28.20-16.59 27.02-17.78 25.56-17.78C24.11-17.78 22.92-16.59 22.92-15.14C22.92-13.69 24.11-12.50 25.56-12.50ZM4.63-0.21L11.66-1.97L11.66-0.41C11.66 0.28 12.23 0.84 12.91 0.84C13.61 0.84 14.18 0.28 14.18-0.41L14.18-2.44L19.20-3.19C20.13-3.32 21.06-3.74 21.83-4.31L26.17-7.57C26.33-7.69 26.55-7.66 26.65-7.48L27.90-4.92L27.90-0.41C27.90 0.33 28.43 0.84 29.17 0.84C29.91 0.84 30.41 0.33 30.41-0.41L30.41-5.21C30.41-5.41 30.36-5.61 30.27-5.79L28.21-9.93C27.79-10.77 26.95-11.29 26.02-11.29L24.95-11.29C23.91-11.29 22.88-10.93 22.03-10.31L18.62-7.77L13.59-8.77C12.52-8.99 11.66-8.51 11.66-7.36L11.66-4.56L4.03-2.63C3.22-2.43 2.91-1.80 3-1.22C3.12-0.57 3.71 0.01 4.63-0.21ZM14.18-5.13L14.18-5.99L15.75-5.52ZM19.58 0.84L24.64 0.84C25.65 0.84 26.50 0.02 26.50-1.02C26.50-2.03 25.65-2.87 24.64-2.87L19.58-2.87C18.55-2.87 17.73-2.03 17.73-1.02C17.73 0.02 18.55 0.84 19.58 0.84ZM24.63-0.11C24.14-0.11 23.73-0.52 23.73-1.03C23.73-1.52 24.14-1.92 24.63-1.92C25.15-1.92 25.55-1.52 25.55-1.03C25.55-0.52 25.15-0.11 24.63-0.11Z" fill="currentColor"/>
</svg>