<svg xmlns="http://www.w3.org/2000/svg" viewBox="0 0 24 24" width="24" height="24">
  <title>figure.strengthtraining.functional.circle</title>
  <path transform="matrix(0.8260729267505647, 0, 0, 0.8260729267505647, 0.2671829622458859, 18.989351403678604)" d="M14.20 3.64C20.88 3.64 26.31-1.78 26.31-8.46C26.31-15.14 20.88-20.57 14.20-20.57C7.52-20.57 2.10-15.14 2.10-8.46C2.10-1.78 7.52 3.64 14.20 3.64ZM14.20 1.25C8.82 1.25 4.48-3.08 4.48-8.46C4.48-13.84 8.82-18.19 14.20-18.19C19.58-18.19 23.93-13.84 23.93-8.46C23.93-3.08 19.58 1.25 14.20 1.25ZM14.19-13.18C14.95-13.18 15.59-13.80 15.59-14.58C15.59-15.35 14.95-15.97 14.19-15.97C13.41-15.97 12.79-15.35 12.79-14.58C12.79-13.80 13.41-13.18 14.19-13.18ZM12.41-3.18C12.67-3.25 12.82-3.33 12.93-3.52L14.31-6.01C14.33-6.06 14.36-6.07 14.40-6.07L17.77-6.07L17.77-2.89C17.77-2.52 18.07-2.24 18.43-2.24C18.80-2.24 19.09-2.52 19.09-2.89L19.09-6.67C19.09-7.10 18.86-7.35 18.40-7.39L15.56-7.66L15.56-11.21C15.56-11.93 15.07-12.53 14.19-12.53L13.90-12.53C13.37-12.53 12.97-12.45 12.47-12.06L10.35-10.46C9.97-10.20 10.01-9.64 10.38-9.39L12.96-7.66L12.96-7.51L11.84-4.39L9.01-3.62C8.67-3.53 8.46-3.16 8.54-2.81C8.66-2.45 9-2.26 9.36-2.36ZM11.89-9.97L12.80-10.65C12.87-10.70 12.96-10.66 12.96-10.56L12.96-9.26Z" fill="currentColor"/>
</svg>