<svg xmlns="http://www.w3.org/2000/svg" viewBox="0 0 24 24" width="24" height="24">
  <title>figure.climbing.circle.fill</title>
  <path transform="matrix(0.8260729267505647, 0, 0, 0.8260729267505647, 0.2671829622458859, 18.989351403678604)" d="M14.20 3.64C20.88 3.64 26.31-1.78 26.31-8.46C26.31-15.14 20.88-20.57 14.20-20.57C7.52-20.57 2.10-15.14 2.10-8.46C2.10-1.78 7.52 3.64 14.20 3.64ZM16.05 0.30C15.83 0.30 15.62 0.11 15.62-0.14L15.62-3.06C15.36-2.91 15.06-2.80 14.72-2.80C13.73-2.80 12.95-3.49 12.95-4.59L12.95-5.80L10.61-6.19L8.43-4.01C8.14-3.74 7.71-3.74 7.45-4.01C7.17-4.30 7.17-4.72 7.45-5.00L9.87-7.43C10.01-7.57 10.22-7.63 10.42-7.63L12.64-7.63C12.75-7.63 12.81-7.75 12.73-7.82L10.76-9.60L7.51-9.60C7.13-9.60 6.81-9.93 6.81-10.30C6.81-10.68 7.13-10.98 7.51-10.98L11.02-10.98C11.20-10.98 11.31-10.96 11.43-10.88L12.95-9.81L12.95-16.89C12.95-17.13 13.15-17.33 13.38-17.33C13.62-17.33 13.82-17.14 13.82-16.89L13.82-9.19L14.31-8.86L16.07-10.63C16.20-10.73 16.21-10.86 16.07-10.98L14.41-12.62L14.41-14.59L18.38-10.65C18.64-10.39 18.77-10.03 18.77-9.60L18.77-6.60C18.77-6.42 18.70-6.23 18.57-6.12L16.58-4.11C16.56-4.09 16.54-4.08 16.51-4.05L16.51-0.14C16.51 0.11 16.30 0.30 16.05 0.30ZM19.17-11.44C18.38-11.44 17.73-12.09 17.73-12.90C17.73-13.69 18.38-14.34 19.17-14.34C19.97-14.34 20.63-13.69 20.63-12.90C20.63-12.09 19.97-11.44 19.17-11.44ZM16.51-6L17.39-6.89L17.39-7.89C17.39-8.05 17.23-8.11 17.11-8.00L16.51-7.39ZM14.72-3.68C15.09-3.68 15.39-3.88 15.53-4.17C15.32-4.42 15.32-4.79 15.55-5.05C15.57-5.07 15.60-5.11 15.62-5.12L15.62-6.53L15.56-6.47C15.08-6.01 14.46-5.74 13.82-5.72L13.82-4.59C13.82-3.98 14.19-3.68 14.72-3.68Z" fill="currentColor"/>
</svg>