<svg xmlns="http://www.w3.org/2000/svg" viewBox="0 0 24 24" width="24" height="24">
  <title>figure.stand</title>
  <path transform="matrix(0.7531626949102678, 0, 0, 0.7531626949102678, 5.464254192409532, 18.443071491615182)" d="M8.68-16.58C10.14-16.58 11.31-17.75 11.31-19.21C11.31-20.66 10.14-21.83 8.68-21.83C7.23-21.83 6.06-20.66 6.06-19.21C6.06-17.75 7.23-16.58 8.68-16.58ZM2.99-5.75C2.99-5.16 3.47-4.66 4.08-4.66C4.69-4.66 5.17-5.16 5.17-5.75L5.17-10.32C5.17-10.54 5.33-10.70 5.54-10.70C5.74-10.70 5.91-10.54 5.91-10.32L5.91 3.53C5.91 4.20 6.43 4.72 7.10 4.72C7.77 4.72 8.30 4.18 8.30 3.53L8.30-4.91C8.30-5.12 8.47-5.29 8.68-5.29C8.88-5.29 9.06-5.12 9.06-4.91L9.06 3.53C9.06 4.18 9.59 4.72 10.25 4.72C10.92 4.72 11.45 4.20 11.45 3.53L11.45-10.32C11.45-10.54 11.61-10.70 11.81-10.70C12.02-10.70 12.19-10.54 12.19-10.32L12.19-5.75C12.19-5.16 12.67-4.66 13.28-4.66C13.89-4.66 14.37-5.16 14.37-5.75L14.37-10.86C14.37-13.51 12.40-15.26 9.56-15.26L7.80-15.26C4.96-15.26 2.99-13.51 2.99-10.86Z" fill="currentColor"/>
</svg>