<svg xmlns="http://www.w3.org/2000/svg" viewBox="0 0 24 24" width="24" height="24">
  <title>figure.fishing</title>
  <path transform="matrix(0.6937669376693767, 0, 0, 0.6937669376693767, -0.07317073170731714, 17.86991869918699)" d="M9.64-15.38C11.10-15.38 12.27-16.56 12.27-18.02C12.27-19.46 11.10-20.65 9.64-20.65C8.19-20.65 7.01-19.46 7.01-18.02C7.01-16.56 8.19-15.38 9.64-15.38ZM4.86-3.30L7.00-4.61L7.00 0.09C7.86-0.23 8.63-0.70 9.54-1.03L9.73-2.70C9.74-2.81 9.91-2.84 9.97-2.73L10.66-1.34C11.04-1.41 11.44-1.45 11.91-1.45C12.56-1.45 13.08-1.35 13.52-1.17L12.25-4.58L12.25-7.84L29.94-18.69C30.30-18.91 30.40-19.37 30.16-19.72C29.95-20.09 29.51-20.19 29.14-19.97L12.25-9.60L12.25-11.70C12.25-13.03 11.31-14.16 9.66-14.16L9.09-14.16C8.13-14.16 7.02-14.02 6.02-13.04L3.34-10.37C2.87-9.90 2.87-9.12 3.34-8.67L6.18-5.87L4.08-4.58C3.73-4.36 3.62-3.90 3.84-3.55C4.07-3.19 4.51-3.09 4.86-3.30ZM7.02-8.33L5.85-9.52L6.68-10.37C6.82-10.51 7.02-10.43 7.02-10.24ZM4.42 3.73L5.65 3.73C8.86 3.73 9.56 1.78 11.71 1.78C13.78 1.78 14.55 3.73 17.75 3.73C20.96 3.73 21.74 1.78 23.81 1.78C25.96 1.78 26.66 3.73 29.86 3.73L31.10 3.73C31.50 3.73 31.82 3.41 31.82 3C31.82 2.60 31.50 2.29 31.10 2.29L29.86 2.29C27.63 2.29 26.88 0.34 23.81 0.34C20.81 0.34 19.98 2.29 17.75 2.29C15.53 2.29 14.71 0.34 11.71 0.34C8.63 0.34 7.88 2.29 5.65 2.29L4.42 2.29C4.02 2.29 3.70 2.60 3.70 3C3.70 3.41 4.02 3.73 4.42 3.73Z" fill="currentColor"/>
</svg>