<svg xmlns="http://www.w3.org/2000/svg" viewBox="0 0 24 24" width="24" height="24">
  <title>fish</title>
  <path transform="matrix(0.5879122431649653, 0, 0, 0.5879122431649653, 0.24265393849655803, 16.79770624890647)" d="M20.26 5.04C23.29 4.57 26.71 2.34 28.51-0.22C32.89-1.64 37.01-4.45 37.01-7.92C37.01-11.26 33.15-14.00 28.95-15.47C27.34-20.60 20.46-22.95 15.64-20.29C14.99-19.92 14.84-19.21 15.38-18.50C16.34-17.23 16.69-16.49 16.90-15.49C15.06-14.78 13.30-13.68 11.72-12.18C9.61-14.51 7.15-15.82 4.29-15.87C3.62-15.88 3.08-15.43 3.02-14.75C2.78-12.28 3.88-9.59 5.57-7.92C3.88-6.25 2.78-3.55 3.02-1.08C3.08-0.40 3.62 0.05 4.29 0.04C7.15-0.01 9.61-1.32 11.72-3.66C13.83-1.65 16.27-0.38 18.77 0.26L18.40 3.36C18.26 4.46 18.98 5.24 20.26 5.04ZM17.68-18.69C17.59-18.84 17.60-19.00 17.74-19.03C20.87-20.03 24.70-18.88 26.39-16.18C25.14-16.45 23.91-16.59 22.79-16.59C21.47-16.59 20.13-16.44 18.82-16.11C18.61-16.96 18.29-17.75 17.68-18.69ZM22.79-1.45C19.00-1.45 15.39-2.79 12.41-6.11C11.95-6.62 11.31-6.61 10.85-6.05C9.14-3.93 7.54-2.72 5.57-2.33C5.38-2.30 5.24-2.45 5.27-2.64C5.48-4.36 6.54-6 7.86-7.07C8.58-7.68 8.55-8.19 7.86-8.77C6.56-9.81 5.52-11.41 5.27-13.20C5.24-13.38 5.38-13.55 5.57-13.50C7.56-13.10 9.18-11.86 10.85-9.79C11.31-9.22 11.95-9.21 12.41-9.73C15.39-13.04 19.00-14.39 22.79-14.39C27.84-14.39 34.83-11.11 34.84-7.92C34.83-4.72 27.84-1.45 22.79-1.45ZM30.23-7.18C30.93-7.18 31.51-7.76 31.51-8.46C31.51-9.15 30.93-9.74 30.23-9.74C29.54-9.74 28.96-9.15 28.96-8.46C28.96-7.76 29.54-7.18 30.23-7.18ZM22.79 0.76C23.46 0.76 24.16 0.70 24.90 0.61C23.74 1.51 22.50 2.27 21.08 2.68C20.86 2.74 20.71 2.70 20.73 2.40L20.91 0.66C21.54 0.73 22.17 0.76 22.79 0.76Z" fill="currentColor"/>
</svg>