<svg xmlns="http://www.w3.org/2000/svg" viewBox="0 0 24 24" width="24" height="24">
  
  <path transform="matrix(0.8610830810628994, 0, 0, 0.8610830810628994, -0.1846619576185673, 19.27547931382442)" d="M4.69 3.16C5.27 3.16 5.77 2.68 5.77 2.09L5.77-4.32C6.08-4.44 7.08-4.80 8.59-4.80C12.87-4.80 15.71-2.67 19.84-2.67C21.64-2.67 22.45-2.89 23.37-3.32C24.20-3.69 24.69-4.37 24.69-5.45L24.69-17.16C24.69-17.91 24.11-18.39 23.32-18.39C22.65-18.39 21.60-17.93 19.71-17.93C15.63-17.93 12.74-20.06 8.47-20.06C6.69-20.06 5.89-19.85 4.95-19.42C4.13-19.04 3.61-18.43 3.61-17.37L3.61 2.09C3.61 2.67 4.10 3.16 4.69 3.16Z" fill="currentColor"/>
</svg>