<svg xmlns="http://www.w3.org/2000/svg" viewBox="0 0 24 24" width="24" height="24">
  
  <path transform="matrix(0.8260729267505647, 0, 0, 0.8260729267505647, 0.2671829622458859, 18.97967086156825)" d="M14.20 3.66C20.88 3.66 26.31-1.77 26.31-8.45C26.31-15.13 20.88-20.55 14.20-20.55C7.52-20.55 2.10-15.13 2.10-8.45C2.10-1.77 7.52 3.66 14.20 3.66ZM10.96-14.67L10.96-14.89C10.96-15.77 11.39-16.22 12.26-16.22L16.15-16.22C17.02-16.22 17.45-15.77 17.45-14.89L17.45-14.67ZM13.58-0.68C12.74-0.68 12.29-1.14 12.29-2.00L12.29-9.60C12.29-10.32 12.13-10.79 11.87-11.19L11.50-11.79C11.17-12.28 10.96-12.73 10.96-13.32L10.96-13.89L17.45-13.89L17.45-13.32C17.45-12.73 17.24-12.28 16.91-11.79L16.54-11.19C16.28-10.80 16.13-10.32 16.13-9.60L16.13-2.00C16.13-1.14 15.67-0.68 14.82-0.68ZM13.03-6.96C13.03-6.30 13.55-5.79 14.20-5.79C14.86-5.79 15.38-6.30 15.38-6.96L15.38-8.99C15.38-9.63 14.86-10.16 14.20-10.16C13.55-10.16 13.03-9.63 13.03-8.99ZM14.20-9.75C14.65-9.75 14.96-9.41 14.96-8.99C14.96-8.57 14.63-8.23 14.20-8.23C13.78-8.23 13.45-8.57 13.45-8.99C13.45-9.41 13.77-9.75 14.20-9.75Z" fill="currentColor"/>
</svg>