<svg xmlns="http://www.w3.org/2000/svg" viewBox="0 0 24 24" width="24" height="24">
  
  <path transform="matrix(0.8260729267505647, 0, 0, 0.8260729267505647, 0.2671829622458859, 18.989351403678604)" d="M14.20 3.64C20.88 3.64 26.31-1.78 26.31-8.46C26.31-15.14 20.88-20.57 14.20-20.57C7.52-20.57 2.10-15.14 2.10-8.46C2.10-1.78 7.52 3.64 14.20 3.64ZM14.20 1.25C8.82 1.25 4.48-3.08 4.48-8.46C4.48-13.84 8.82-18.19 14.20-18.19C19.58-18.19 23.93-13.84 23.93-8.46C23.93-3.08 19.58 1.25 14.20 1.25ZM11.10-14.41L17.30-14.41L17.30-14.63C17.30-15.47 16.89-15.89 16.05-15.89L12.34-15.89C11.51-15.89 11.10-15.47 11.10-14.63ZM19.25-2.58C19.48-2.37 19.85-2.36 20.07-2.58C20.31-2.82 20.31-3.18 20.07-3.41L9.14-14.34C8.92-14.58 8.54-14.58 8.31-14.34C8.09-14.12 8.09-13.73 8.31-13.51ZM16.03-8.64L16.03-9.56C16.03-10.25 16.18-10.71 16.43-11.10L16.78-11.65C17.10-12.13 17.30-12.56 17.30-13.13L17.30-13.66L11.25-13.66L11.25-13.42ZM12.38-8.27L12.38-2.31C12.38-1.48 12.81-1.03 13.61-1.03L14.79-1.03C15.60-1.03 16.03-1.48 16.03-2.31L16.03-4.63Z" fill="currentColor"/>
</svg>