<svg xmlns="http://www.w3.org/2000/svg" viewBox="0 0 24 24" width="24" height="24">
  <title>fluid.batteryblock</title>
  <path transform="matrix(0.7204164907837344, 0, 0, 0.7204164907837344, -0.1528070915998314, 18.082735331363445)" d="M6.83 1.75L26.91 1.75C29.44 1.75 30.75 0.43 30.75-2.06L30.75-11.77C30.75-14.27 29.44-15.57 26.91-15.57L25.66-15.57L25.66-17.04C25.66-18.05 25.09-18.63 24.09-18.63L21.94-18.63C20.94-18.63 20.37-18.05 20.37-17.04L20.37-15.57L13.37-15.57L13.37-17.04C13.37-18.05 12.80-18.63 11.79-18.63L9.64-18.63C8.64-18.63 8.06-18.05 8.06-17.04L8.06-15.57L6.83-15.57C4.30-15.57 2.99-14.27 2.99-11.77L2.99-2.06C2.99 0.45 4.30 1.75 6.83 1.75ZM20.54-6.93C20.24-7.23 19.96-7.24 19.65-6.93C19.01-6.21 17.99-5.77 16.86-5.77C15.74-5.77 14.73-6.21 14.07-6.93C13.78-7.24 13.49-7.23 13.18-6.93C12.50-6.19 11.51-5.77 10.42-5.77C9.33-5.77 8.33-6.19 7.64-6.93C7.34-7.23 7.05-7.24 6.76-6.93C6.38-6.50 5.87-6.18 5.29-5.99L5.29-11.57C5.29-12.70 5.88-13.28 6.97-13.28L26.77-13.28C27.84-13.28 28.45-12.70 28.45-11.57L28.45-5.99C27.87-6.18 27.36-6.50 26.98-6.93C26.67-7.24 26.39-7.23 26.09-6.93C25.41-6.19 24.40-5.77 23.32-5.77C22.23-5.77 21.23-6.19 20.54-6.93Z" fill="currentColor"/>
</svg>