<svg xmlns="http://www.w3.org/2000/svg" viewBox="0 0 24 24" width="24" height="24">
  <title>forward.circle</title>
  <path transform="matrix(0.8260729267505647, 0, 0, 0.8260729267505647, 0.2671829622458859, 18.989351403678604)" d="M14.20 3.64C20.88 3.64 26.31-1.78 26.31-8.46C26.31-15.14 20.88-20.57 14.20-20.57C7.52-20.57 2.10-15.14 2.10-8.46C2.10-1.78 7.52 3.64 14.20 3.64ZM14.20 1.25C8.82 1.25 4.48-3.08 4.48-8.46C4.48-13.84 8.82-18.19 14.20-18.19C19.58-18.19 23.93-13.84 23.93-8.46C23.93-3.08 19.58 1.25 14.20 1.25ZM8.41-4.28C8.64-4.28 8.84-4.34 9.06-4.48L14.46-7.64C14.75-7.82 14.94-8.03 15-8.26L15-5.23C15-4.61 15.39-4.28 15.82-4.28C16.05-4.28 16.24-4.34 16.48-4.48L21.87-7.64C22.25-7.86 22.44-8.14 22.44-8.48C22.44-8.82 22.25-9.11 21.87-9.33L16.48-12.49C16.24-12.63 16.05-12.69 15.82-12.69C15.38-12.69 15-12.36 15-11.73L15-8.71C14.94-8.94 14.75-9.15 14.46-9.33L9.06-12.49C8.84-12.63 8.64-12.69 8.41-12.69C7.96-12.69 7.59-12.36 7.59-11.73L7.59-5.23C7.59-4.61 7.97-4.28 8.41-4.28Z" fill="currentColor"/>
</svg>