<svg xmlns="http://www.w3.org/2000/svg" viewBox="0 0 24 24" width="24" height="24">
  <title>francsign.gauge.chart.lefthalf.righthalf</title>
  <path transform="matrix(0.6991670080568073, 0, 0, 0.6991670080568073, 0.5333879557558379, 17.929891072812715)" d="M30.70-6.08C30.70-13.56 24.98-19.69 17.68-20.33C17.29-20.37 16.97-20.07 16.97-19.66L16.97-15.76C16.97-15.42 17.21-15.16 17.55-15.13C22.03-14.55 25.51-10.73 25.51-6.08C25.51-3.97 24.80-2.02 23.51-0.40C23.33-0.16 23.33 0.13 23.54 0.34L26.37 3.16C26.66 3.45 27.08 3.45 27.34 3.14C29.45 0.64 30.70-2.58 30.70-6.08ZM2.10-6.08C2.10-2.58 3.36 0.64 5.46 3.14C5.72 3.45 6.14 3.45 6.43 3.15L9.26 0.33C9.47 0.13 9.48-0.16 9.29-0.41C8.02-2.02 7.29-3.97 7.29-6.08C7.29-10.73 10.77-14.55 15.25-15.13C15.59-15.16 15.83-15.42 15.83-15.76L15.83-19.66C15.83-20.07 15.53-20.37 15.12-20.33C7.83-19.69 2.10-13.56 2.10-6.08ZM14.47-0.59C14.96-0.59 15.30-0.93 15.30-1.43L15.30-2.47L17.79-2.47C18-2.47 18.16-2.64 18.16-2.85C18.16-3.06 18-3.22 17.79-3.22L15.30-3.22L15.30-5.25L18.97-5.25C19.39-5.25 19.69-5.53 19.69-5.94C19.69-6.33 19.39-6.61 18.97-6.61L15.30-6.61L15.30-9.71L19.35-9.71C19.78-9.71 20.09-10.00 20.09-10.41C20.09-10.83 19.78-11.12 19.35-11.12L14.47-11.12C13.96-11.12 13.64-10.79 13.64-10.27L13.64-3.22L12.53-3.22C12.30-3.22 12.15-3.06 12.15-2.85C12.15-2.64 12.30-2.47 12.53-2.47L13.64-2.47L13.64-1.43C13.64-0.93 13.98-0.59 14.47-0.59Z" fill="currentColor"/>
</svg>