<svg xmlns="http://www.w3.org/2000/svg" viewBox="0 0 24 24" width="24" height="24">
  
  <path transform="matrix(0.7567779868000949, 0, 0, 0.7567779868000949, 2.09023538633344, 18.40305124769143)" d="M0.75-10.82C-0.13-10.82-0.35-10.16 0.13-9.50L2.85-5.72C3.22-5.19 3.81-5.20 4.18-5.72L6.90-9.52C7.37-10.16 7.15-10.82 6.28-10.82L4.77-10.82C5.82-15.06 9.64-18.19 14.20-18.19C19.57-18.19 23.92-13.84 23.92-8.46C23.92-3.08 19.57 1.25 14.20 1.25C11.05 1.25 8.30-0.23 6.53-2.55C6.06-3.09 5.38-3.27 4.80-2.86C4.27-2.48 4.15-1.70 4.66-1.08C6.89 1.82 10.34 3.64 14.20 3.64C20.88 3.64 26.31-1.78 26.31-8.46C26.31-15.14 20.88-20.57 14.20-20.57C8.32-20.57 3.43-16.38 2.33-10.82ZM12.28-3.06C12.77-3.06 13.11-3.40 13.11-3.90L13.11-4.96L15.60-4.96C15.81-4.96 15.97-5.11 15.97-5.32C15.97-5.54 15.81-5.70 15.60-5.70L13.11-5.70L13.11-7.72L16.78-7.72C17.20-7.72 17.51-8.02 17.51-8.41C17.51-8.81 17.20-9.09 16.78-9.09L13.11-9.09L13.11-12.19L17.16-12.19C17.60-12.19 17.91-12.48 17.91-12.89C17.91-13.31 17.60-13.59 17.16-13.59L12.29-13.59C11.77-13.59 11.45-13.27 11.45-12.74L11.45-5.70L10.34-5.70C10.13-5.70 9.96-5.54 9.96-5.32C9.96-5.11 10.13-4.96 10.34-4.96L11.45-4.96L11.45-3.90C11.45-3.40 11.79-3.06 12.28-3.06Z" fill="currentColor"/>
</svg>