<svg xmlns="http://www.w3.org/2000/svg" viewBox="0 0 24 24" width="24" height="24">
  
  <path transform="matrix(0.5323352048242878, 0, 0, 0.5323352048242878, 0.40923268870867147, 16.504054897067995)" d="M2.99 2.26C2.99 2.79 3.41 3.22 3.93 3.22L19.25 3.22C19.77 3.22 20.20 2.79 20.20 2.26C20.20 1.76 19.77 1.32 19.25 1.32L18.54 1.32L18.54-10.20C19.45-9.64 19.84-8.84 19.84-7.89C19.84-6.23 19.59-4.24 19.59-2.51C19.59-0.69 20.71 0.43 22.45 0.43C24.38 0.43 25.45-0.84 25.45-3.11C25.45-5.72 24.96-8.73 23.98-13.43L23.75-14.47C23.53-15.53 23.21-16.38 22.58-17.16L21.42-18.61C20.87-19.31 19.78-18.50 20.39-17.75L21.86-15.91C21.94-15.80 21.95-15.64 21.87-15.49L21-13.89C20.77-13.44 20.81-13.14 21.19-12.71L23.16-10.62C23.79-7.72 24.13-5.13 24.13-3.11C24.13-1.68 23.53-0.89 22.45-0.89C21.52-0.89 20.92-1.50 20.92-2.51C20.92-4.03 21.16-6.02 21.16-7.89C21.16-9.59 20.40-10.90 18.54-11.67L18.54-17.41C18.54-19.17 17.57-20.14 15.81-20.14L7.38-20.14C5.61-20.14 4.66-19.17 4.66-17.41L4.66 1.32L3.93 1.32C3.42 1.32 2.99 1.75 2.99 2.26ZM7.76-10.66C7.03-10.66 6.59-11.07 6.59-11.75L6.59-17.13C6.59-17.81 7.02-18.22 7.76-18.22L15.42-18.22C16.16-18.22 16.62-17.81 16.62-17.13L16.62-11.75C16.62-11.07 16.16-10.66 15.42-10.66ZM32.77 1.10C34.98 1.10 36.77-0.68 36.77-2.91C36.77-4.45 35.87-5.67 34.73-6.33C34.35-6.55 34.15-6.89 34.15-7.46L34.15-16.63C34.15-17.38 33.53-18 32.78-18C32.02-18 31.41-17.38 31.41-16.63L31.41-7.46C31.41-6.91 31.20-6.59 30.79-6.35C29.66-5.68 28.78-4.45 28.78-2.91C28.78-0.68 30.56 1.10 32.77 1.10ZM37.27-15.29L39.83-15.29C40.28-15.29 40.56-15.62 40.56-16.01C40.56-16.39 40.28-16.72 39.83-16.72L37.27-16.72C36.83-16.72 36.54-16.39 36.54-16.01C36.54-15.62 36.83-15.29 37.27-15.29ZM37.27-12.19L39.83-12.19C40.28-12.19 40.56-12.52 40.56-12.90C40.56-13.28 40.28-13.62 39.83-13.62L37.27-13.62C36.83-13.62 36.54-13.28 36.54-12.90C36.54-12.52 36.83-12.19 37.27-12.19ZM37.27-9.07L39.83-9.07C40.28-9.07 40.56-9.41 40.56-9.79C40.56-10.17 40.28-10.50 39.83-10.50L37.27-10.50C36.83-10.50 36.54-10.17 36.54-9.79C36.54-9.41 36.83-9.07 37.27-9.07Z" fill="currentColor"/>
</svg>