<svg xmlns="http://www.w3.org/2000/svg" viewBox="0 0 24 24" width="24" height="24">
  <title>fuelpump.thermometer</title>
  <path transform="matrix(0.533166718733729, 0, 0, 0.533166718733729, 0.40674789128397393, 16.50796626054358)" d="M2.99 2.27C2.99 2.80 3.41 3.23 3.93 3.23L19.70 3.23C20.23 3.23 20.65 2.80 20.65 2.27C20.65 1.76 20.23 1.34 19.70 1.34L18.98 1.34L18.98-10.20C19.90-9.64 20.29-8.84 20.29-7.89C20.29-6.23 20.04-4.24 20.04-2.51C20.04-0.69 21.15 0.43 22.90 0.43C24.82 0.43 25.90-0.84 25.90-3.11C25.90-5.72 25.41-8.73 24.42-13.43L24.20-14.47C23.98-15.53 23.66-16.38 23.03-17.16L21.87-18.61C21.32-19.31 20.23-18.50 20.84-17.75L22.30-15.91C22.38-15.80 22.39-15.64 22.31-15.49L21.45-13.89C21.21-13.44 21.26-13.14 21.63-12.71L23.60-10.62C24.23-7.72 24.57-5.13 24.57-3.11C24.57-1.68 23.98-0.89 22.90-0.89C21.96-0.89 21.36-1.50 21.36-2.51C21.36-4.03 21.61-6.02 21.61-7.89C21.61-9.59 20.85-10.90 18.98-11.67L18.98-17.41C18.98-19.17 18.01-20.14 16.25-20.14L7.38-20.14C5.61-20.14 4.66-19.17 4.66-17.41L4.66 1.34L3.93 1.34C3.42 1.34 2.99 1.76 2.99 2.27ZM6.57-17.32C6.57-17.91 6.87-18.22 7.46-18.22L16.16-18.22C16.75-18.22 17.05-17.92 17.05-17.32L17.06 1.34L6.57 1.34ZM32.71 1.10C34.92 1.10 36.71-0.68 36.71-2.91C36.71-4.45 35.81-5.67 34.68-6.33C34.29-6.55 34.09-6.89 34.09-7.46L34.09-16.63C34.09-17.38 33.47-18 32.72-18C31.96-18 31.35-17.38 31.35-16.63L31.35-7.46C31.35-6.91 31.14-6.59 30.73-6.35C29.60-5.68 28.72-4.45 28.72-2.91C28.72-0.68 30.50 1.10 32.71 1.10ZM8.27-10.63L15.35-10.63C15.75-10.63 16.03-10.91 16.03-11.29L16.03-16.55C16.03-16.92 15.75-17.20 15.35-17.20L8.27-17.20C7.89-17.20 7.61-16.92 7.61-16.55L7.61-11.29C7.61-10.91 7.89-10.63 8.27-10.63ZM37.21-15.29L39.77-15.29C40.22-15.29 40.50-15.62 40.50-16.01C40.50-16.39 40.22-16.72 39.77-16.72L37.21-16.72C36.77-16.72 36.48-16.39 36.48-16.01C36.48-15.62 36.77-15.29 37.21-15.29ZM37.21-12.19L39.77-12.19C40.22-12.19 40.50-12.52 40.50-12.90C40.50-13.28 40.22-13.62 39.77-13.62L37.21-13.62C36.77-13.62 36.48-13.28 36.48-12.90C36.48-12.52 36.77-12.19 37.21-12.19ZM37.21-9.07L39.77-9.07C40.22-9.07 40.50-9.41 40.50-9.79C40.50-10.17 40.22-10.50 39.77-10.50L37.21-10.50C36.77-10.50 36.48-10.17 36.48-9.79C36.48-9.41 36.77-9.07 37.21-9.07Z" fill="currentColor"/>
</svg>