<svg xmlns="http://www.w3.org/2000/svg" viewBox="0 0 24 24" width="24" height="24">
  <title>g.square.fill</title>
  <path transform="matrix(0.9141224781289056, 0, 0, 0.9141224781289056, -0.7316550615961437, 19.728976968398502)" d="M6.83 2.48L21.02 2.48C23.55 2.48 24.87 1.18 24.87-1.32L24.87-15.59C24.87-18.08 23.55-19.39 21.02-19.39L6.83-19.39C4.30-19.39 2.99-18.09 2.99-15.59L2.99-1.32C2.99 1.18 4.30 2.48 6.83 2.48ZM13.99-2.72C10.76-2.72 8.68-4.98 8.68-8.54C8.68-12.09 10.76-14.38 13.96-14.38C16.23-14.38 17.88-13.29 18.47-11.79C18.55-11.58 18.59-11.39 18.59-11.17C18.59-10.58 18.21-10.22 17.60-10.22C17.11-10.22 16.84-10.44 16.62-10.86C16.15-11.92 15.26-12.52 14.02-12.52C12.22-12.52 11.04-10.91 11.04-8.54C11.04-6.15 12.23-4.56 14.04-4.56C15.70-4.56 16.58-5.44 16.58-6.74L16.58-7.41L14.67-7.41C14.16-7.41 13.85-7.77 13.85-8.19C13.85-8.67 14.14-8.99 14.67-8.99L17.68-8.99C18.42-8.99 18.84-8.57 18.84-7.80L18.84-7.04C18.84-4.51 17.03-2.72 13.99-2.72Z" fill="currentColor"/>
</svg>