<svg xmlns="http://www.w3.org/2000/svg" viewBox="0 0 24 24" width="24" height="24">
  
  <path transform="matrix(0.6179097272507844, 0, 0, 0.6179097272507844, 0.1535119478638669, 15.602579860638713)" d="M7.59-3.54C7.59-1.72 8.71-0.09 10.65 1.11L10.65 2.29C10.02 2.50 9.63 3.06 9.63 3.82L9.63 6.97C9.63 7.96 10.28 8.60 11.27 8.60L11.74 8.60C12.74 8.60 13.38 7.96 13.38 6.97L13.38 3.82C13.38 3.06 13.00 2.51 12.38 2.29L12.38 1.97C14.23 2.71 16.54 3.15 19.17 3.15C26.06 3.15 30.75 0.18 30.75-3.54L30.75-8.82L34.08-10.35C34.91-10.72 35.36-11.46 35.36-12.25C35.36-13.02 34.91-13.77 34.08-14.14L22.50-19.43C21.22-20.02 20.19-20.27 19.17-20.26C18.15-20.27 17.12-20.02 15.84-19.43L4.25-14.14C3.43-13.77 2.99-13.02 2.99-12.25C2.99-11.46 3.43-10.72 4.25-10.35L7.59-8.82ZM19.17-6.48C18.42-6.48 17.70-6.68 16.72-7.13L13.59-8.55L18.09-10.91C18.45-10.82 18.82-10.77 19.21-10.77C20.54-10.77 21.82-11.38 21.82-12.25C21.82-13.09 20.54-13.70 19.21-13.70C17.87-13.70 16.58-13.09 16.58-12.25C16.58-12.13 16.61-12.02 16.64-11.92L11.74-9.39L6.25-11.88C6.06-11.98 5.96-12.09 5.96-12.25C5.96-12.39 6.06-12.52 6.25-12.60L16.72-17.36C17.70-17.81 18.42-18 19.17-18C19.92-18 20.65-17.81 21.62-17.36L32.10-12.60C32.29-12.52 32.38-12.39 32.38-12.25C32.38-12.09 32.29-11.98 32.10-11.88L21.62-7.13C20.65-6.68 19.92-6.48 19.17-6.48ZM9.82-3.54L9.82-7.80L10.65-7.42L10.65-1.62C10.11-2.21 9.82-2.87 9.82-3.54ZM19.17-4.22C20.19-4.21 21.22-4.48 22.50-5.05L28.52-7.80L28.52-3.54C28.52-1.15 24.81 1.04 19.17 1.04C16.35 1.04 14.00 0.49 12.38-0.35L12.38-6.63L15.84-5.05C17.12-4.48 18.15-4.21 19.17-4.22Z" fill="currentColor"/>
</svg>