<svg xmlns="http://www.w3.org/2000/svg" viewBox="0 0 24 24" width="24" height="24">
  
  <path transform="matrix(0.8260729267505647, 0, 0, 0.8260729267505647, 0.2671829622458859, 18.989351403678604)" d="M14.20 3.64C20.88 3.64 26.31-1.78 26.31-8.46C26.31-15.14 20.88-20.57 14.20-20.57C7.52-20.57 2.10-15.14 2.10-8.46C2.10-1.78 7.52 3.64 14.20 3.64ZM11.26-6.23C10.66-6.23 10.27-6.75 10.27-7.23C10.27-7.62 10.49-7.98 10.88-8.14L15.64-10.25L15.64-10.29L10.88-12.39C10.49-12.57 10.27-12.93 10.27-13.31C10.27-13.80 10.66-14.30 11.26-14.30C11.41-14.30 11.57-14.26 11.84-14.14L17.81-11.46C18.41-11.19 18.64-10.77 18.64-10.27C18.64-9.71 18.42-9.34 17.81-9.08L11.84-6.40C11.57-6.27 11.41-6.23 11.26-6.23ZM18.76-3.52C18.76-3 18.32-2.54 17.74-2.54L10.86-2.54C10.28-2.54 9.84-3 9.84-3.52C9.84-4.07 10.28-4.50 10.86-4.50L17.74-4.50C18.32-4.50 18.76-4.07 18.76-3.52Z" fill="currentColor"/>
</svg>