<svg xmlns="http://www.w3.org/2000/svg" viewBox="0 0 24 24" width="24" height="24">
  
  <path transform="matrix(0.8260729267505647, 0, 0, 0.8260729267505647, 0.2671829622458859, 18.989351403678604)" d="M14.20 3.64C20.88 3.64 26.31-1.78 26.31-8.46C26.31-15.14 20.88-20.57 14.20-20.57C7.52-20.57 2.10-15.14 2.10-8.46C2.10-1.78 7.52 3.64 14.20 3.64ZM14.25-1.80C14.00-1.80 13.84-1.97 13.84-2.19L13.84-3.14C11.06-3.35 9.50-5.51 9.50-8.52C9.50-11.44 11.02-13.68 13.84-13.88L13.84-14.81C13.84-15.05 14.00-15.21 14.25-15.21C14.46-15.21 14.64-15.05 14.64-14.81L14.64-13.89C16.15-13.77 17.68-13.01 18.26-11.57C18.36-11.34 18.39-11.13 18.39-10.96C18.39-10.52 18.09-10.23 17.65-10.23C17.20-10.23 17.02-10.42 16.83-10.79C16.52-11.71 15.66-12.32 14.64-12.43L14.64-8.82L17.79-8.82C18.30-8.82 18.63-8.47 18.63-7.92L18.63-7.48C18.63-4.86 17.14-3.26 14.64-3.13L14.64-2.19C14.64-1.97 14.46-1.80 14.25-1.80ZM11.26-8.54C11.26-6.57 12.09-4.88 13.84-4.61L13.84-12.42C12.02-12.18 11.26-10.39 11.26-8.54ZM14.64-4.59C16.10-4.70 16.96-5.70 16.97-7.13L16.97-7.52L14.64-7.52Z" fill="currentColor"/>
</svg>