<svg xmlns="http://www.w3.org/2000/svg" viewBox="0 0 24 24" width="24" height="24">
  
  <path transform="matrix(0.7708521529659741, 0, 0, 0.7708521529659741, 1.706413730803975, 18.504065040650406)" d="M6.97 4.54C9.16 4.54 10.95 2.75 10.95 0.56C10.95-1.24 9.75-2.78 8.10-3.26L8.10-13.62C9.75-14.10 10.95-15.63 10.95-17.44C10.95-19.63 9.16-21.41 6.96-21.41C4.77-21.41 2.99-19.63 2.99-17.44C2.99-15.62 4.20-14.10 5.85-13.61L5.85-3.26C4.20-2.78 2.99-1.24 2.99 0.56C2.99 2.75 4.77 4.54 6.97 4.54ZM13.97-2.47C14.27-2.47 14.53-2.57 14.81-2.77L22.90-7.43C23.48-7.77 23.72-8.05 23.72-8.46C23.72-8.87 23.48-9.15 22.90-9.49L14.81-14.16C14.53-14.36 14.27-14.45 13.97-14.45C13.42-14.45 13.03-14.03 13.03-13.32L13.03-3.60C13.03-2.91 13.42-2.47 13.97-2.47Z" fill="currentColor"/>
</svg>