<svg xmlns="http://www.w3.org/2000/svg" viewBox="0 0 24 24" width="24" height="24">
  <title>hand.point.right.fill</title>
  <path transform="matrix(0.7864823348694316, 0, 0, 0.7864823348694316, 0.3502304147465438, 18.57142857142857)" d="M2.10-6.96C2.10-1.50 5.52 1.59 11.34 1.59L13.77 1.59C15.96 1.59 17.36 0.53 17.36-0.71C17.36-1.02 17.19-1.20 16.90-1.20L15.84-1.20C15.39-1.20 15.15-1.43 15.15-1.71C15.15-2.00 15.38-2.24 15.84-2.24L16.54-2.24C17.85-2.24 18.73-3.08 18.73-4.24C18.73-4.77 18.49-5.03 18.02-5.03L16.59-5.03C16.13-5.03 15.89-5.25 15.89-5.53C15.89-5.84 16.13-6.07 16.59-6.07L17.92-6.07C19.38-6.07 20.11-6.91 20.11-8.05C20.11-8.57 19.86-8.84 19.41-8.84L16.59-8.84C16.13-8.84 15.89-9.07 15.89-9.35C15.89-9.64 16.13-9.88 16.59-9.88L25.93-9.88C26.88-9.88 27.53-10.51 27.53-11.33C27.53-12.20 26.88-12.81 25.93-12.81L12.36-12.81C12.05-12.81 11.87-13.00 11.87-13.21C11.87-13.38 11.99-13.55 12.29-13.68L16.51-15.46C17.17-15.74 17.51-16.17 17.51-16.80C17.51-17.71 16.90-18.30 16.11-18.30C15.82-18.30 15.57-18.26 15.36-18.18L9.28-16.11C4.21-14.38 2.10-11.04 2.10-6.96Z" fill="currentColor"/>
</svg>