<svg xmlns="http://www.w3.org/2000/svg" viewBox="0 0 24 24" width="24" height="24">
  <title>hand.thumbsdown.hand.thumbsup.filled</title>
  <path transform="matrix(0.5925925925925926, 0, 0, 0.5925925925925926, 0.22916666666666674, 17.21875)" d="M23.96-16.32C23.96-19.72 21.77-22.56 18.96-22.56L15.81-22.56C14.51-23.20 12.96-23.60 11.25-23.60L9.91-23.60C8.66-23.60 7.58-23.52 6.89-23.34C5.47-23.00 4.54-21.95 4.54-20.68C4.54-20.47 4.57-20.25 4.63-20.06C3.96-19.52 3.60-18.77 3.60-17.95C3.60-17.58 3.67-17.18 3.80-16.89C3.36-16.39 3.12-15.73 3.12-15C3.12-14.55 3.22-14.09 3.40-13.72C3.13-13.29 2.99-12.74 2.99-12.15C2.99-10.59 4.18-9.38 5.75-9.38L9.34-9.38C9.50-9.38 9.60-9.32 9.59-9.18C9.55-8.20 7.99-5.80 7.99-3.82C7.99-2.36 9.01-1.30 10.44-1.30C11.46-1.30 12.18-1.84 12.84-3.11C14.03-5.41 15.47-7.41 17.63-10.05L19.34-10.05C21.95-10.05 23.96-12.86 23.96-16.32ZM17.87-16.25C17.87-14.21 17.41-12.94 16.11-11.18C14.66-9.23 12.63-6.89 11.19-3.97C10.88-3.38 10.69-3.23 10.41-3.23C10.08-3.23 9.86-3.47 9.86-3.91C9.86-5.34 11.48-7.72 11.48-9.30C11.48-10.50 10.51-11.25 9.25-11.25L5.79-11.25C5.26-11.25 4.86-11.66 4.86-12.18C4.86-12.57 4.99-12.82 5.31-13.14C5.58-13.39 5.61-13.77 5.38-14.05C5.10-14.46 5.00-14.68 5.00-15.01C5.00-15.40 5.16-15.69 5.54-16.00C5.91-16.23 6.01-16.63 5.82-17.04C5.61-17.46 5.51-17.65 5.51-17.94C5.51-18.38 5.79-18.71 6.38-19.03C6.71-19.22 6.80-19.57 6.68-19.88C6.48-20.39 6.45-20.47 6.45-20.67C6.45-21.05 6.71-21.35 7.35-21.52C7.91-21.67 8.81-21.74 10.00-21.73L11.16-21.73C15.20-21.71 17.87-19.44 17.87-16.25ZM22.11-16.32C22.11-13.90 20.86-11.96 19.45-11.92L18.81-11.92C19.46-13.25 19.75-14.60 19.75-16.25C19.75-17.98 19.17-19.51 18.09-20.72C18.41-20.72 18.74-20.72 19.05-20.72C20.71-20.66 22.11-18.71 22.11-16.32ZM21.49-0.69C21.48 3.09 24.47 5.98 29.21 5.98L30.61 5.99C31.91 5.99 32.91 5.89 33.47 5.74C34.32 5.54 35.09 5.00 35.09 4.02C35.09 3.64 35.00 3.36 34.88 3.14C34.82 3.02 34.82 2.93 34.93 2.88C35.58 2.58 36.09 1.99 36.09 1.18C36.09 0.73 35.95 0.33 35.73 0.04C35.64-0.11 35.65-0.22 35.81-0.32C36.26-0.61 36.59-1.20 36.59-1.86C36.59-2.34 36.45-2.85 36.18-3.09C36.04-3.23 36.06-3.33 36.20-3.46C36.53-3.74 36.74-4.21 36.74-4.78C36.74-5.81 35.93-6.66 34.88-6.66L31.29-6.66C30.41-6.66 29.84-7.09 29.84-7.79C29.84-9.13 31.55-11.64 31.55-13.46C31.55-14.45 30.91-15.05 30.07-15.05C29.32-15.05 28.95-14.54 28.52-13.73C27.01-10.80 25.00-8.40 23.46-6.36C22.11-4.59 21.50-3.07 21.49-0.69ZM16.42-0.60C16.42 2.47 18.33 5.02 20.89 5.02L22.52 5.02C20.72 3.64 19.92 1.61 19.93-0.71C19.95-3.22 20.86-5.04 21.80-6.26L20.52-6.26C18.20-6.26 16.42-3.79 16.42-0.60Z" fill="currentColor"/>
</svg>