<svg xmlns="http://www.w3.org/2000/svg" viewBox="0 0 24 24" width="24" height="24">
  <title>hanger</title>
  <path transform="matrix(0.6727105505189857, 0, 0, 0.6727105505189857, 0.39180134016555, 18.41702798581001)" d="M2.39-0.11C2.39 1.28 3.34 2.47 5.02 2.47L29.50 2.47C31.17 2.47 32.12 1.28 32.12-0.11C32.12-1.11 31.59-2.14 30.50-2.74L18.32-9.60L18.32-10.31C18.32-11.32 18.81-11.74 19.73-12.50C20.81-13.38 22.25-14.55 22.25-16.83C22.25-19.66 20.27-21.55 17.31-21.55C14.37-21.55 12.40-19.54 12.40-16.50C12.40-15.82 12.84-15.38 13.44-15.38C14.03-15.38 14.46-15.82 14.47-16.35C14.50-18.22 15.63-19.48 17.31-19.48C19.04-19.48 20.19-18.42 20.19-16.84C20.19-15.50 19.46-14.82 18.67-14.19C17.64-13.35 16.20-12.54 16.20-10.37L16.20-9.60L4.01-2.74C2.92-2.14 2.39-1.11 2.39-0.11ZM4.75-0.27C4.75-0.54 4.89-0.76 5.23-0.96L17.26-7.70L29.29-0.96C29.64-0.76 29.77-0.54 29.77-0.27C29.77 0.04 29.55 0.30 29.13 0.30L5.39 0.30C4.96 0.30 4.75 0.04 4.75-0.27Z" fill="currentColor"/>
</svg>