<svg xmlns="http://www.w3.org/2000/svg" viewBox="0 0 24 24" width="24" height="24">
  <title>headset</title>
  <path transform="matrix(0.7144692660325217, 0, 0, 0.7144692660325217, 0.6926865963642128, 18.083931172443055)" d="M7.02 0.42C7.93 0.42 8.60-0.25 8.60-1.15L8.60-8.23C8.60-9.13 7.93-9.80 7.02-9.80C6.62-9.80 6.27-9.66 6-9.43L6-10.52C6-16.35 9.96-20.24 15.82-20.24C21.69-20.24 25.65-16.35 25.65-10.52L25.65-9.43C25.38-9.66 25.02-9.80 24.62-9.80C23.71-9.80 23.04-9.13 23.04-8.23L23.04-1.15C23.04-0.25 23.71 0.42 24.62 0.42C25.08 0.42 25.46 0.26 25.75-0.02L25.75 0.35C25.75 1.34 25.55 1.50 24.70 1.65L18.36 2.77C18.06 2.45 17.60 2.29 17.13 2.37L14.86 2.78C14.11 2.91 13.62 3.61 13.76 4.36C13.89 5.09 14.58 5.59 15.33 5.46L17.61 5.05C18.11 4.96 18.48 4.63 18.64 4.20L24.96 3.08C26.31 2.85 27.18 2.18 27.18 0.33L27.18-0.55C28.08-0.70 28.66-1.34 28.66-2.27L28.66-7.05C28.66-7.82 28.34-8.45 27.86-8.73L27.86-10.54C27.86-17.68 22.99-22.51 15.82-22.51C8.65-22.51 3.80-17.68 3.80-10.54L3.80-8.73C3.30-8.45 2.99-7.82 2.99-7.05L2.99-2.27C2.99-1.20 3.76-0.53 4.90-0.53C5.11-0.53 5.32-0.55 5.53-0.62C5.74 0 6.30 0.42 7.02 0.42Z" fill="currentColor"/>
</svg>