<svg xmlns="http://www.w3.org/2000/svg" viewBox="0 0 24 24" width="24" height="24">
  <title>heart.text.clipboard.fill</title>
  <path transform="matrix(0.6983087834151664, 0, 0, 0.6983087834151664, 2.912438625204582, 18.391162029459903)" d="M9.41-17.37L16.63-17.37C17.33-17.37 17.77-17.81 17.77-18.57L17.77-19.80C17.77-20.57 17.33-21.01 16.63-21.01L15.63-21.01C15.55-22.37 14.41-23.47 13.02-23.47C11.63-23.47 10.49-22.37 10.39-21.01L9.41-21.01C8.70-21.01 8.27-20.57 8.27-19.80L8.27-18.57C8.27-17.81 8.70-17.37 9.41-17.37ZM13.02-19.88C12.45-19.88 11.98-20.36 11.98-20.92C11.98-21.48 12.45-21.95 13.02-21.95C13.59-21.95 14.05-21.48 14.05-20.92C14.05-20.36 13.59-19.88 13.02-19.88ZM6.80 5.17L19.23 5.17C21.73 5.17 23.04 3.83 23.04 1.31L23.04-16.43C23.04-18.96 21.73-20.29 19.34-20.29L19.09-20.29C19.13-20.19 19.14-20.06 19.14-19.93L19.14-18.57C19.14-17.06 18.12-15.98 16.63-15.98L9.41-15.98C7.91-15.98 6.89-17.06 6.89-18.57L6.89-19.93C6.89-20.06 6.91-20.19 6.95-20.29L6.70-20.29C4.31-20.29 2.99-18.96 2.99-16.43L2.99 1.31C2.99 3.83 4.31 5.17 6.80 5.17ZM10.21-7.32C10.13-7.32 10.00-7.38 9.89-7.45C8.84-8.18 7.08-9.53 7.08-11.14C7.08-12.20 7.80-12.96 8.78-12.96C9.42-12.96 9.91-12.59 10.20-12.06C10.48-12.59 10.98-12.96 11.60-12.96C12.59-12.96 13.32-12.20 13.32-11.14C13.32-9.53 11.58-8.11 10.51-7.45C10.41-7.38 10.30-7.32 10.21-7.32ZM7.77-3.63C7.32-3.63 6.98-3.98 6.98-4.42C6.98-4.84 7.32-5.19 7.77-5.19L18.27-5.19C18.71-5.19 19.05-4.84 19.05-4.42C19.05-3.98 18.71-3.63 18.27-3.63ZM7.77 0.91C7.34 0.91 6.98 0.56 6.98 0.13C6.98-0.30 7.32-0.64 7.77-0.64L13.84-0.64C14.27-0.64 14.63-0.30 14.63 0.13C14.63 0.56 14.26 0.91 13.84 0.91Z" fill="currentColor"/>
</svg>