<svg xmlns="http://www.w3.org/2000/svg" viewBox="0 0 24 24" width="24" height="24">
  
  <path transform="matrix(0.8142493638676844, 0, 0, 0.8142493638676844, 1.699427480916031, 18.87977099236641)" d="M12.64-17.70C15.77-17.70 18.12-18.33 18.12-19.21C18.12-20.11 15.79-20.73 12.64-20.73C9.53-20.73 7.18-20.11 7.18-19.21C7.18-18.33 9.53-17.70 12.64-17.70ZM12.66 3.83C19.29 3.83 22.31 1.48 22.31-3.87L22.31-12.94C22.31-15.01 21.84-16.57 21.02-17.66C20.71-18.08 20.18-18.15 19.70-17.82C18.46-16.86 15.57-16.08 12.66-16.08C9.73-16.08 6.86-16.86 5.60-17.82C5.13-18.15 4.59-18.08 4.29-17.66C3.47-16.57 2.99-15.01 2.99-12.94L2.99-3.87C2.99 1.48 6.01 3.83 12.66 3.83Z" fill="currentColor"/>
</svg>