<svg xmlns="http://www.w3.org/2000/svg" viewBox="0 0 24 24" width="24" height="24">
  
  <path transform="matrix(0.8457218368021143, 0, 0, 0.8457218368021143, -0.5272547076313181, 19.091179385530232)" d="M14.81-16.20C18.07-16.20 20.39-16.82 20.39-17.70C20.39-18.59 18.08-19.21 14.81-19.21C11.57-19.21 9.26-18.59 9.26-17.70C9.26-16.82 11.57-16.20 14.81-16.20ZM14.81 2.44C19.13 2.44 21 1.89 22.76 0.25C25.21-1.99 26.64-5.23 26.64-8.65C26.64-11.38 25.72-14.03 23.86-16.21C23.36-16.85 22.80-16.89 22.23-16.49C20.48-15.20 18.39-14.54 14.81-14.54C11.23-14.54 9.14-15.20 7.38-16.49C6.81-16.89 6.27-16.85 5.77-16.21C3.90-14.03 2.99-11.38 2.99-8.65C2.99-5.23 4.42-1.99 6.87 0.25C8.63 1.89 10.49 2.44 14.81 2.44Z" fill="currentColor"/>
</svg>