<svg xmlns="http://www.w3.org/2000/svg" viewBox="0 0 24 24" width="24" height="24">
  <title>homepod.2</title>
  <path transform="matrix(0.6934850331843424, 0, 0, 0.6934850331843424, -0.07232832182039806, 17.944737911418123)" d="M11.75-19.71C14.52-19.71 16.72-20.29 16.72-21.09C16.72-21.90 14.52-22.46 11.75-22.46C9-22.46 6.80-21.90 6.80-21.09C6.80-20.29 9-19.71 11.75-19.71ZM2.99-7.18C2.99-2.54 5.51-0.39 10.97-0.21C10.86-0.83 10.82-1.41 10.80-2.30C6.70-2.50 5.06-4.09 5.06-7.35L5.06-15.32C5.06-16.11 5.20-16.84 5.53-17.47C6.83-16.57 9.21-16.16 11.84-16.17C12.23-17.05 12.74-17.89 13.13-18.33C12.95-18.30 12.36-18.26 11.77-18.26C9.09-18.26 6.52-18.96 5.37-19.84C4.95-20.13 4.45-20.07 4.17-19.69C3.43-18.70 2.99-17.29 2.99-15.41ZM22.16-16.21C25.21-16.21 27.63-16.84 27.63-17.73C27.63-18.62 25.22-19.24 22.16-19.24C19.11-19.24 16.70-18.62 16.70-17.73C16.70-16.84 19.13-16.21 22.16-16.21ZM22.16 5.32C28.80 5.32 31.83 2.95 31.83-2.39L31.83-11.46C31.83-13.54 31.35-15.09 30.54-16.18C30.22-16.61 29.68-16.66 29.21-16.35C27.95-15.38 25.11-14.60 22.16-14.60C19.21-14.60 16.37-15.38 15.12-16.35C14.65-16.66 14.11-16.61 13.79-16.18C12.98-15.09 12.50-13.54 12.50-11.46L12.50-2.39C12.50 2.95 15.53 5.32 22.16 5.32ZM22.16 3.04C16.86 3.04 14.78 1.30 14.78-2.57L14.78-11.37C14.78-12.23 14.93-13.04 15.29-13.75C16.78-12.75 19.35-12.29 22.16-12.29C24.98-12.29 27.55-12.75 29.04-13.75C29.40-13.04 29.54-12.23 29.54-11.37L29.54-2.57C29.54 1.30 27.47 3.04 22.16 3.04Z" fill="currentColor"/>
</svg>