<svg xmlns="http://www.w3.org/2000/svg" viewBox="0 0 24 24" width="24" height="24">
  <title>house.and.flag.circle</title>
  <path transform="matrix(0.8260729267505647, 0, 0, 0.8260729267505647, 0.2671829622458859, 18.989351403678604)" d="M14.20 3.64C20.88 3.64 26.31-1.78 26.31-8.46C26.31-15.14 20.88-20.57 14.20-20.57C7.52-20.57 2.10-15.14 2.10-8.46C2.10-1.78 7.52 3.64 14.20 3.64ZM14.20 1.25C8.82 1.25 4.48-3.08 4.48-8.46C4.48-13.84 8.82-18.19 14.20-18.19C19.58-18.19 23.93-13.84 23.93-8.46C23.93-3.08 19.58 1.25 14.20 1.25ZM7.46-3.39L19.78-3.39C20.00-3.39 20.19-3.57 20.19-3.80C20.19-4.02 20.00-4.20 19.78-4.20L18.23-4.20L18.23-11.14C18.28-11.16 18.33-11.16 18.39-11.16C19.13-11.16 19.59-10.78 20.34-10.78C20.66-10.78 20.81-10.82 20.98-10.90C21.18-10.98 21.26-11.12 21.26-11.33L21.26-13.43C21.26-13.59 21.18-13.69 20.98-13.69C20.84-13.69 20.66-13.59 20.31-13.59C19.61-13.59 19.13-13.98 18.34-13.98C18.01-13.98 17.87-13.93 17.72-13.86C17.52-13.79 17.43-13.63 17.43-13.43L17.43-9.35L13.03-11.67C12.62-11.88 12.29-11.88 11.87-11.67L7.29-9.25C6.76-8.96 7.11-8.18 7.76-8.51L12.30-10.84C12.40-10.89 12.52-10.89 12.61-10.84L17.16-8.51C17.25-8.45 17.34-8.43 17.43-8.43L17.43-4.20L16.57-4.20C16.59-4.28 16.61-4.36 16.61-4.45L16.61-8.09C16.51-8.12 16.42-8.17 16.34-8.20L12.46-10.20L8.57-8.20C8.47-8.16 8.39-8.12 8.31-8.09L8.31-4.45C8.31-4.36 8.32-4.28 8.34-4.20L7.46-4.20C7.25-4.20 7.07-4.02 7.07-3.80C7.07-3.56 7.25-3.39 7.46-3.39ZM11.05-4.25L11.05-7.20C11.05-7.42 11.19-7.55 11.40-7.55L13.50-7.55C13.71-7.55 13.86-7.42 13.86-7.20L13.86-4.25Z" fill="currentColor"/>
</svg>