<svg xmlns="http://www.w3.org/2000/svg" viewBox="0 0 24 24" width="24" height="24">
  <title>hryvniasign.circle</title>
  <path transform="matrix(0.8260729267505647, 0, 0, 0.8260729267505647, 0.2671829622458859, 18.989351403678604)" d="M14.20 3.64C20.88 3.64 26.31-1.78 26.31-8.46C26.31-15.14 20.88-20.57 14.20-20.57C7.52-20.57 2.10-15.14 2.10-8.46C2.10-1.78 7.52 3.64 14.20 3.64ZM14.20 1.25C8.82 1.25 4.48-3.08 4.48-8.46C4.48-13.84 8.82-18.19 14.20-18.19C19.58-18.19 23.93-13.84 23.93-8.46C23.93-3.08 19.58 1.25 14.20 1.25ZM9.89-9.57C9.89-9.36 10.05-9.21 10.25-9.21L18.15-9.21C18.36-9.21 18.53-9.36 18.53-9.57C18.53-9.80 18.36-9.96 18.15-9.96L17.12-9.96C17.44-10.28 17.64-10.70 17.64-11.19C17.64-12.95 15.90-13.78 14.16-13.78C13.14-13.78 11.89-13.51 11.16-12.41C10.99-12.16 10.91-11.94 10.91-11.64C10.91-11.26 11.18-11.00 11.59-11.00C11.93-11.00 12.11-11.14 12.28-11.41C12.69-12.15 13.38-12.45 14.16-12.45C15.12-12.45 16.05-12.01 16.05-11.06C16.05-10.68 15.86-10.21 15.39-9.96L10.25-9.96C10.05-9.96 9.89-9.80 9.89-9.57ZM9.89-7.73C9.89-7.52 10.05-7.36 10.25-7.36L11.29-7.36C10.88-7.00 10.62-6.47 10.62-5.93C10.62-4.16 12.48-3.30 14.21-3.30C15.59-3.30 16.89-3.77 17.48-4.88C17.61-5.10 17.72-5.36 17.72-5.58C17.72-5.96 17.41-6.22 17.02-6.22C16.68-6.22 16.49-6.08 16.31-5.79C15.91-4.98 15.16-4.63 14.23-4.63C13.20-4.63 12.21-5.13 12.21-6.06C12.21-6.64 12.50-7.09 13.03-7.36L18.15-7.36C18.36-7.36 18.53-7.52 18.53-7.73C18.53-7.96 18.36-8.12 18.15-8.12L10.25-8.12C10.05-8.12 9.89-7.96 9.89-7.73Z" fill="currentColor"/>
</svg>