<svg xmlns="http://www.w3.org/2000/svg" viewBox="0 0 24 24" width="24" height="24">
  <title>hryvniasign.gauge.chart.leftthird.topthird.rightthird</title>
  <path transform="matrix(0.6991670080568073, 0, 0, 0.6991670080568073, 0.5333879557558379, 17.94171717184309)" d="M16.41-15.19C18.52-15.19 20.46-14.47 22.01-13.27C22.27-13.07 22.59-13.09 22.83-13.32L25.59-16.09C25.89-16.38 25.88-16.80 25.57-17.06C23.09-19.14 19.89-20.38 16.41-20.38C12.93-20.38 9.71-19.14 7.24-17.06C6.93-16.80 6.91-16.38 7.21-16.09L9.97-13.32C10.22-13.09 10.56-13.07 10.83-13.28C12.38-14.47 14.31-15.19 16.41-15.19ZM30.70-6.08C30.70-9.56 29.46-12.77 27.38-15.26C27.12-15.56 26.70-15.56 26.40-15.27L23.65-12.52C23.40-12.27 23.40-11.93 23.60-11.65C24.81-10.10 25.51-8.17 25.51-6.08C25.51-3.96 24.79-2.02 23.52-0.39C23.33-0.15 23.34 0.14 23.54 0.34L26.37 3.16C26.65 3.46 27.08 3.46 27.34 3.15C29.44 0.66 30.70-2.57 30.70-6.08ZM2.10-6.08C2.10-2.57 3.36 0.66 5.47 3.15C5.73 3.46 6.15 3.46 6.43 3.16L9.26 0.34C9.46 0.14 9.48-0.15 9.29-0.39C8.02-2.02 7.29-3.96 7.29-6.08C7.29-8.17 8.00-10.10 9.20-11.65C9.41-11.93 9.41-12.27 9.16-12.52L6.40-15.27C6.11-15.56 5.68-15.56 5.43-15.25C3.34-12.76 2.10-9.56 2.10-6.08ZM12.09-7.10C12.09-6.89 12.25-6.73 12.46-6.73L20.36-6.73C20.57-6.73 20.72-6.89 20.72-7.10C20.72-7.32 20.57-7.49 20.36-7.49L19.31-7.49C19.63-7.80 19.84-8.23 19.84-8.71C19.84-10.48 18.09-11.31 16.35-11.31C15.34-11.31 14.09-11.03 13.36-9.94C13.20-9.69 13.11-9.47 13.11-9.16C13.11-8.78 13.38-8.53 13.79-8.53C14.12-8.53 14.31-8.67 14.48-8.94C14.89-9.67 15.59-9.97 16.36-9.97C17.32-9.97 18.26-9.53 18.26-8.59C18.26-8.19 18.06-7.73 17.59-7.49L12.46-7.49C12.25-7.49 12.09-7.32 12.09-7.10ZM12.09-5.26C12.09-5.05 12.25-4.89 12.46-4.89L13.48-4.89C13.07-4.52 12.82-4.00 12.82-3.46C12.82-1.69 14.68-0.82 16.42-0.82C17.79-0.82 19.09-1.29 19.69-2.39C19.82-2.61 19.91-2.88 19.91-3.11C19.91-3.49 19.62-3.75 19.21-3.75C18.88-3.75 18.68-3.61 18.50-3.32C18.12-2.51 17.37-2.16 16.43-2.16C15.39-2.16 14.41-2.66 14.41-3.57C14.41-4.16 14.71-4.62 15.23-4.89L20.36-4.89C20.57-4.89 20.72-5.05 20.72-5.26C20.72-5.48 20.57-5.64 20.36-5.64L12.46-5.64C12.25-5.64 12.09-5.48 12.09-5.26Z" fill="currentColor"/>
</svg>