<svg xmlns="http://www.w3.org/2000/svg" viewBox="0 0 24 24" width="24" height="24">
  <title>humidity</title>
  <path transform="matrix(0.7857207547726068, 0, 0, 0.7857207547726068, -0.3470031855443354, 18.02181297212443)" d="M7.86-11.45C13.16-11.45 15.97-15.88 20.82-15.88C21.96-15.88 22.96-15.62 24.13-14.95C24.68-14.64 25.22-14.84 25.51-15.25C25.86-15.74 25.78-16.46 25.08-16.89C23.74-17.65 22.35-18.02 20.82-18.02C15.46-18.02 12.67-13.59 7.86-13.59C6.73-13.59 5.73-13.85 4.57-14.53C4.01-14.84 3.46-14.64 3.18-14.21C2.85-13.71 2.92-13.00 3.62-12.60C4.96-11.82 6.35-11.45 7.86-11.45ZM23.26 2.70C26.14 2.70 28.44 0.45 28.44-2.37C28.44-3.91 27.67-5.44 27.02-6.64L24.41-11.50C24.12-12.05 23.81-12.29 23.26-12.29C22.71-12.29 22.41-12.04 22.11-11.50L19.51-6.64C18.87-5.44 18.09-3.91 18.09-2.37C18.09 0.45 20.39 2.70 23.26 2.70ZM7.89-5.17C12.42-5.17 15.19-8.53 19.05-9.33C19.48-10.13 19.91-10.92 20.34-11.72C15.18-11.43 12.56-7.31 7.89-7.31C6.74-7.31 5.75-7.57 4.58-8.24C4.03-8.55 3.48-8.36 3.20-7.93C2.86-7.43 2.93-6.71 3.63-6.32C4.97-5.54 6.36-5.17 7.89-5.17ZM23.26 0.91C21.39 0.91 19.88-0.54 19.88-2.37C19.88-3.49 20.46-4.59 21.09-5.80L23.16-9.62C23.21-9.74 23.33-9.74 23.39-9.62L25.42-5.80C26.06-4.59 26.66-3.49 26.66-2.37C26.66-0.54 25.15 0.91 23.26 0.91ZM7.86 1.11C11.37 1.11 13.80-0.88 16.50-2.16C16.42-2.80 16.55-3.79 16.80-4.58C13.71-3.32 11.32-1.03 7.86-1.03C6.73-1.03 5.73-1.29 4.57-1.96C4.01-2.27 3.46-2.07 3.18-1.64C2.85-1.15 2.92-0.43 3.62-0.02C4.96 0.74 6.35 1.11 7.86 1.11Z" fill="currentColor"/>
</svg>