<svg xmlns="http://www.w3.org/2000/svg" viewBox="0 0 24 24" width="24" height="24">
  <title>hydrogen.square</title>
  <path transform="matrix(0.9141224781289056, 0, 0, 0.9141224781289056, -0.7316550615961437, 19.728976968398502)" d="M6.83 2.48L21.02 2.48C23.55 2.48 24.87 1.18 24.87-1.32L24.87-15.59C24.87-18.08 23.55-19.39 21.02-19.39L6.83-19.39C4.30-19.39 2.99-18.09 2.99-15.59L2.99-1.32C2.99 1.18 4.30 2.48 6.83 2.48ZM6.97 0.19C5.88 0.19 5.29-0.38 5.29-1.51L5.29-15.39C5.29-16.52 5.88-17.10 6.97-17.10L20.88-17.10C21.96-17.10 22.57-16.52 22.57-15.39L22.57-1.51C22.57-0.38 21.96 0.19 20.88 0.19ZM8.37-3.30C8.91-3.30 9.34-3.74 9.34-4.29L9.34-7.75L12.97-7.75L12.97-4.29C12.97-3.74 13.42-3.30 13.96-3.30C14.50-3.30 14.93-3.74 14.93-4.29L14.93-12.75C14.93-13.32 14.46-13.71 13.96-13.71C13.46-13.71 12.97-13.32 12.97-12.75L12.97-9.39L9.34-9.39L9.34-12.75C9.34-13.25 8.94-13.71 8.37-13.71C7.86-13.71 7.41-13.34 7.41-12.75L7.41-4.29C7.41-3.77 7.78-3.30 8.37-3.30ZM16.83-3.41L20.02-3.41C20.39-3.41 20.66-3.69 20.66-4.05C20.66-4.42 20.39-4.70 20.02-4.70L18.22-4.70L19.37-5.87C19.91-6.42 20.36-7.01 20.36-7.75C20.36-8.84 19.49-9.55 18.21-9.55C17.29-9.55 16.42-8.98 16.18-8.19C16.14-8.09 16.13-7.97 16.13-7.85C16.13-7.48 16.38-7.22 16.77-7.22C17.06-7.22 17.26-7.37 17.43-7.65C17.54-8.00 17.81-8.27 18.25-8.27C18.69-8.27 18.96-8.03 18.96-7.68C18.96-7.34 18.66-7.02 18.30-6.63L16.43-4.64C16.24-4.44 16.15-4.28 16.15-4.05C16.15-3.67 16.43-3.41 16.83-3.41Z" fill="currentColor"/>
</svg>