<svg xmlns="http://www.w3.org/2000/svg" viewBox="0 0 24 24" width="24" height="24">
  <title>increase.indent</title>
  <path transform="matrix(0.7158810447382639, 0, 0, 0.7158810447382639, -0.13918059059701227, 18.057024776965154)" d="M14.84-16.55L29.81-16.55C30.43-16.55 30.93-17.05 30.93-17.66C30.93-18.28 30.43-18.77 29.81-18.77L14.84-18.77C14.21-18.77 13.73-18.28 13.73-17.66C13.73-17.05 14.21-16.55 14.84-16.55ZM14.84-10.42L29.81-10.42C30.43-10.42 30.93-10.92 30.93-11.53C30.93-12.15 30.43-12.64 29.81-12.64L14.84-12.64C14.21-12.64 13.73-12.14 13.73-11.53C13.73-10.92 14.21-10.42 14.84-10.42ZM4.91-4.73L8.96-7.44C9.70-7.93 9.67-8.96 8.96-9.46L4.91-12.22C3.97-12.86 2.98-12.50 2.99-11.38L2.99-5.55C2.98-4.46 4.01-4.14 4.91-4.73ZM14.84-4.29L29.81-4.29C30.43-4.29 30.93-4.78 30.93-5.39C30.93-6.01 30.43-6.50 29.81-6.50L14.84-6.50C14.21-6.50 13.73-6.01 13.73-5.39C13.73-4.79 14.21-4.29 14.84-4.29ZM14.84 1.85L23.59 1.85C24.20 1.85 24.69 1.35 24.69 0.74C24.69 0.12 24.20-0.38 23.59-0.38L14.84-0.38C14.21-0.38 13.73 0.12 13.73 0.74C13.73 1.35 14.21 1.85 14.84 1.85Z" fill="currentColor"/>
</svg>