<svg xmlns="http://www.w3.org/2000/svg" viewBox="0 0 24 24" width="24" height="24">
  <title>inhaler.fill</title>
  <path transform="matrix(0.7314632854208292, 0, 0, 0.7314632854208292, 3.0948132136105357, 18.147331427512462)" d="M6.69-19.73C8.68-20.26 10.00-21.01 9.82-21.64C9.64-22.25 7.85-22.17 6.06-21.68C3.91-21.12 2.85-20.31 3-19.80C3.19-19.22 4.88-19.25 6.69-19.73ZM14.25 4.88L14.02 1.23C13.95 0.11 14.16-0.43 14.89-1.07L18.25-3.95L16.28-4.38C16.03-4.44 15.89-4.56 15.80-4.91L12.88-15.88C12.60-16.90 11.95-17.38 11.10-17.30L10.31-20.00C9.57-19.36 8.39-18.83 7.08-18.47C5.71-18.11 4.38-18 3.48-18.08L4.27-15.42C3.62-14.99 3.30-14.20 3.64-12.97L7.73 1.88C8.07 3.12 8.88 3.82 10.38 4.11ZM16.02 5.19C17.04 5.37 17.66 5.25 18.21 4.70L20.80 2.07C21.21 1.68 21.36 1.32 21.36 0.63L21.36-2.06C21.36-3 21-3.38 20.36-3.50L19.93-3.59L16.24-0.23C15.67 0.29 15.54 0.63 15.60 1.56L15.83 5.17Z" fill="currentColor"/>
</svg>