<svg xmlns="http://www.w3.org/2000/svg" viewBox="0 0 24 24" width="24" height="24">
  <title>inset.filled.bottomleft.rectangle.portrait</title>
  <path transform="matrix(0.7882986913010007, 0, 0, 0.7882986913010007, 1.7228637413394927, 18.665127020785217)" d="M2.99 0.39C2.99 2.92 4.29 4.23 6.80 4.23L19.28 4.23C21.79 4.23 23.09 2.92 23.09 0.39L23.09-17.30C23.09-19.82 21.79-21.14 19.28-21.14L6.80-21.14C4.29-21.14 2.99-19.82 2.99-17.30ZM5.29 0.25L5.29-17.16C5.29-18.25 5.85-18.84 6.98-18.84L19.08-18.84C20.21-18.84 20.79-18.25 20.79-17.16L20.79 0.25C20.79 1.34 20.21 1.93 19.08 1.93L6.98 1.93C5.85 1.93 5.29 1.34 5.29 0.25ZM7.93 0.22L12.09 0.22C12.76 0.22 13.03-0.05 13.03-0.70L13.03-7.54C13.03-8.19 12.76-8.46 12.09-8.46L7.93-8.46C7.27-8.46 7.00-8.19 7.00-7.54L7.00-0.70C7.00-0.05 7.27 0.22 7.93 0.22Z" fill="currentColor"/>
</svg>