<svg xmlns="http://www.w3.org/2000/svg" viewBox="0 0 24 24" width="24" height="24">
  
  <path transform="matrix(0.7204164907837344, 0, 0, 0.7204164907837344, -0.1528070915998314, 18.08695652173913)" d="M6.83 2.48L26.91 2.48C29.44 2.48 30.75 1.18 30.75-1.31L30.75-15.59C30.75-18.08 29.44-19.38 26.91-19.38L6.83-19.38C4.30-19.38 2.99-18.09 2.99-15.59L2.99-1.31C2.99 1.18 4.30 2.48 6.83 2.48ZM6.97 0.19C5.88 0.19 5.29-0.38 5.29-1.51L5.29-15.39C5.29-16.52 5.88-17.10 6.97-17.10L26.77-17.10C27.84-17.10 28.45-16.52 28.45-15.39L28.45-1.51C28.45-0.38 27.84 0.19 26.77 0.19ZM17.79-8.46L25.82-8.46C26.47-8.46 26.74-8.73 26.74-9.41L26.74-14.44C26.74-15.11 26.47-15.39 25.82-15.39L17.79-15.39C17.13-15.39 16.86-15.11 16.86-14.44L16.86-9.41C16.86-8.73 17.13-8.46 17.79-8.46Z" fill="currentColor"/>
</svg>