<svg xmlns="http://www.w3.org/2000/svg" viewBox="0 0 24 24" width="24" height="24">
  <title>ipad.and.arrow.forward</title>
  <path transform="matrix(0.7423517471364361, 0, 0, 0.7423517471364361, 3.99217050891692, 18.285341452805568)" d="M5.29-5.18L2.99-5.18L2.99 1.64C2.99 3.68 4.37 5.00 6.47 5.00L19.65 5.00C21.75 5.00 23.13 3.68 23.13 1.64L23.13-18.57C23.13-20.60 21.75-21.94 19.65-21.94L6.47-21.94C4.37-21.94 2.99-20.60 2.99-18.57L2.99-11.77L5.29-11.77L5.29-18.20C5.29-19.11 5.82-19.64 6.79-19.64L19.34-19.64C20.30-19.64 20.84-19.11 20.84-18.20L20.84 1.27C20.84 2.18 20.30 2.71 19.34 2.71L6.79 2.71C5.82 2.71 5.29 2.18 5.29 1.27ZM-1.56-8.47C-1.56-7.88-1.07-7.38-0.49-7.38L8.87-7.38L10.63-7.49L9.87-6.86L8.07-5.18C7.86-4.99 7.76-4.72 7.76-4.46C7.76-3.93 8.14-3.49 8.70-3.49C8.98-3.49 9.19-3.60 9.39-3.80L13.09-7.65C13.37-7.93 13.46-8.19 13.46-8.47C13.46-8.75 13.37-9.01 13.09-9.29L9.39-13.15C9.19-13.35 8.98-13.45 8.70-13.45C8.14-13.45 7.76-13.03 7.76-12.49C7.76-12.23 7.86-11.95 8.07-11.77L9.87-10.09L10.63-9.46L8.87-9.55L-0.49-9.55C-1.07-9.55-1.56-9.07-1.56-8.47Z" fill="currentColor"/>
</svg>