<svg xmlns="http://www.w3.org/2000/svg" viewBox="0 0 24 24" width="24" height="24">
  <title>iphone.gen2.circle</title>
  <path transform="matrix(0.8260729267505647, 0, 0, 0.8260729267505647, 0.2671829622458859, 18.989351403678604)" d="M14.20 3.64C20.88 3.64 26.31-1.78 26.31-8.46C26.31-15.14 20.88-20.57 14.20-20.57C7.52-20.57 2.10-15.14 2.10-8.46C2.10-1.78 7.52 3.64 14.20 3.64ZM14.20 1.25C8.82 1.25 4.48-3.08 4.48-8.46C4.48-13.84 8.82-18.19 14.20-18.19C19.58-18.19 23.93-13.84 23.93-8.46C23.93-3.08 19.58 1.25 14.20 1.25ZM11.65-1.13L16.73-1.13C17.88-1.13 18.67-1.88 18.67-3L18.67-13.93C18.67-15.05 17.88-15.80 16.73-15.80L11.65-15.80C10.50-15.80 9.71-15.05 9.71-13.93L9.71-3C9.71-1.88 10.50-1.13 11.65-1.13ZM11.81-2.43C11.26-2.43 10.97-2.72 10.97-3.23L10.97-13.70C10.97-14.21 11.26-14.51 11.81-14.51L12.66-14.51C12.76-14.51 12.81-14.45 12.81-14.36L12.81-14.19C12.81-13.89 13.00-13.69 13.29-13.69L15.11-13.69C15.40-13.69 15.59-13.89 15.59-14.19L15.59-14.36C15.59-14.45 15.63-14.51 15.73-14.51L16.57-14.51C17.12-14.51 17.43-14.20 17.43-13.69L17.43-3.23C17.43-2.72 17.12-2.43 16.57-2.43ZM12.75-2.94L15.64-2.94C15.84-2.94 15.98-3.07 15.98-3.28C15.98-3.49 15.84-3.63 15.64-3.63L12.75-3.63C12.55-3.63 12.41-3.49 12.41-3.28C12.41-3.07 12.55-2.94 12.75-2.94Z" fill="currentColor"/>
</svg>