<svg xmlns="http://www.w3.org/2000/svg" viewBox="0 0 24 24" width="24" height="24">
  <title>iphone.pattern.diagonalline.on.rectangle.portrait.dashed</title>
  <path transform="matrix(0.691798405620862, 0, 0, 0.691798405620862, 2.413457640859344, 17.857316578840695)" d="M13.68-0.01L21.68-0.01C23.51-0.01 24.73-1.21 24.73-2.98L24.73-19.95C24.73-21.73 23.51-22.92 21.68-22.92L13.68-22.92C11.81-22.92 10.57-21.73 10.57-19.95L10.57-2.98C10.57-1.21 11.81-0.01 13.68-0.01ZM12.76-18.23L12.76-19.39C12.76-20.23 13.28-20.72 14.14-20.72L15.73-20.72ZM12.76-14.11L12.76-16.80L17.44-20.72L20.64-20.72ZM12.76-9.96L12.76-12.66L22.03-20.45C22.36-20.24 22.54-19.89 22.54-19.39L22.54-18.18ZM2.99-12.23L5.18-12.23L5.18-13.34C5.18-14.18 5.68-14.67 6.56-14.67L8.96-14.67L8.96-16.91L6.09-16.91C4.23-16.91 2.99-15.74 2.99-13.95ZM12.76-5.84L12.76-8.54L22.54-16.75L22.54-14.04ZM13.51-2.33C13.03-2.51 12.76-2.93 12.76-3.54L12.76-4.41L22.54-12.61L22.54-9.90ZM2.99-6.19L5.18-6.19L5.18-10.77L2.99-10.77ZM15.07-2.21L22.54-8.47L22.54-5.77L18.29-2.21ZM2.99-0.15L5.18-0.15L5.18-4.73L2.99-4.73ZM20.00-2.21L22.54-4.35L22.54-3.55C22.54-2.71 22.02-2.21 21.16-2.21ZM6.09 5.99L9.34 5.99L9.34 3.75L6.56 3.75C5.68 3.75 5.18 3.26 5.18 2.41L5.18 1.31L2.99 1.31L2.99 3.02C2.99 4.82 4.23 5.99 6.09 5.99ZM10.79 5.99L14.04 5.99C15.90 5.99 17.14 4.82 17.14 3.02L17.14 1.61L14.95 1.61L14.95 2.41C14.95 3.26 14.45 3.75 13.57 3.75L10.79 3.75Z" fill="currentColor"/>
</svg>