<svg xmlns="http://www.w3.org/2000/svg" viewBox="0 0 24 24" width="24" height="24">
  
  <path transform="matrix(0.5134376253509828, 0, 0, 0.5134376253509828, 0.9229843561973508, 16.34717208182912)" d="M13.63 1.13C13.63 3.06 14.98 4.36 17.00 4.36L26.21 4.36C28.20 4.36 29.53 3.06 29.53 1.13L29.53-18.06C29.53-19.99 28.20-21.29 26.21-21.29L17.00-21.29C14.98-21.29 13.63-19.99 13.63-18.06ZM19.21-19.01C19.21-19.31 19.41-19.51 19.70-19.51L23.46-19.51C23.75-19.51 23.96-19.31 23.96-19.01C23.96-18.71 23.75-18.52 23.46-18.52L19.70-18.52C19.41-18.52 19.21-18.71 19.21-19.01ZM15.93-0.05L15.93-16.88L27.23-16.88L27.23-0.05ZM6.74-0.46C7.14-0.91 7.02-1.50 6.57-2.00C5.04-3.70 4.18-5.98 4.18-8.46C4.18-10.96 5.04-13.22 6.57-14.92C7.02-15.42 7.14-16.01 6.74-16.46C6.33-16.96 5.61-16.98 5.10-16.41C3.19-14.36 2.10-11.51 2.10-8.46C2.10-5.41 3.15-2.59 5.10-0.52C5.61 0.05 6.33 0.04 6.74-0.46ZM36.41-0.46C36.82 0.04 37.54 0.05 38.06-0.52C40.00-2.59 41.05-5.41 41.05-8.46C41.05-11.51 39.96-14.36 38.06-16.41C37.54-16.98 36.82-16.96 36.41-16.46C36.01-16.01 36.13-15.42 36.59-14.92C38.11-13.22 38.96-10.96 38.96-8.46C38.96-5.98 38.11-3.70 36.59-2.00C36.13-1.50 36.01-0.91 36.41-0.46ZM10.16-3.81C10.55-4.27 10.39-4.83 10.01-5.36C9.36-6.18 9.01-7.30 9.01-8.46C9.01-9.62 9.36-10.75 10.01-11.57C10.39-12.09 10.55-12.66 10.16-13.11C9.75-13.61 8.98-13.62 8.50-13.04C7.49-11.82 6.93-10.20 6.93-8.46C6.93-6.73 7.49-5.10 8.50-3.89C8.98-3.30 9.75-3.33 10.16-3.81ZM32.99-3.81C33.40-3.33 34.17-3.30 34.65-3.89C35.66-5.10 36.22-6.73 36.22-8.46C36.22-10.20 35.66-11.82 34.65-13.04C34.17-13.62 33.40-13.61 32.99-13.11C32.60-12.66 32.75-12.09 33.14-11.57C33.79-10.75 34.14-9.62 34.14-8.46C34.14-7.30 33.79-6.18 33.14-5.36C32.75-4.83 32.60-4.27 32.99-3.81ZM21.60 3.06C20.99 3.06 20.50 2.57 20.50 1.97C20.50 1.37 20.99 0.89 21.60 0.89C22.18 0.89 22.68 1.37 22.68 1.97C22.68 2.57 22.18 3.06 21.60 3.06Z" fill="currentColor"/>
</svg>