<svg xmlns="http://www.w3.org/2000/svg" viewBox="0 0 24 24" width="24" height="24">
  
  <path transform="matrix(0.7140864714086471, 0, 0, 0.7140864714086471, -1.1129707112970708, 17.836820083682007)" d="M7.73 4.36L9.93 4.36C8.93 3.25 8.21 1.77 7.97-0.05L6.66-0.05L6.66-16.88L17.98-16.88L17.98-9.60C18.73-9.66 19.50-9.69 20.26-9.70L20.26-18.06C20.26-19.99 18.94-21.29 16.95-21.29L7.73-21.29C5.72-21.29 4.36-19.99 4.36-18.06L4.36 1.13C4.36 3.06 5.72 4.36 7.73 4.36ZM12.33-18.35C11.92-18.35 11.59-18.69 11.59-19.10C11.59-19.51 11.92-19.83 12.33-19.83C12.74-19.83 13.07-19.51 13.07-19.10C13.07-18.69 12.74-18.35 12.33-18.35ZM20.93 2.40C22.30 2.40 23.81 4.95 26.99 4.95C30.07 4.95 32.37 2.19 32.37-1.43C32.37-7.39 27.09-8.04 20.93-8.04C14.77-8.04 9.50-7.38 9.50-1.43C9.50 2.19 11.79 4.95 14.88 4.95C18.06 4.95 19.55 2.40 20.93 2.40ZM20.93 0.35C18.32 0.35 17.33 2.87 14.87 2.87C12.82 2.87 11.58 1.30 11.58-1.43C11.58-5.47 14.86-5.96 20.93-5.96C27.01-5.96 30.29-5.48 30.29-1.43C30.29 1.30 29.05 2.87 27 2.87C24.54 2.87 23.54 0.35 20.93 0.35Z" fill="currentColor"/>
</svg>