<svg xmlns="http://www.w3.org/2000/svg" viewBox="0 0 24 24" width="24" height="24">
  <title>j.square.fill</title>
  <path transform="matrix(0.9141224781289056, 0, 0, 0.9141224781289056, -0.7316550615961437, 19.728976968398502)" d="M6.83 2.48L21.02 2.48C23.55 2.48 24.87 1.18 24.87-1.32L24.87-15.59C24.87-18.08 23.55-19.39 21.02-19.39L6.83-19.39C4.30-19.39 2.99-18.09 2.99-15.59L2.99-1.32C2.99 1.18 4.30 2.48 6.83 2.48ZM13.41-2.85C11.64-2.85 10.27-3.70 9.84-5.00C9.76-5.20 9.74-5.40 9.74-5.61C9.74-6.25 10.16-6.68 10.79-6.68C11.31-6.68 11.64-6.45 11.86-5.92C12.12-5.21 12.66-4.80 13.45-4.80C14.37-4.80 14.91-5.46 14.91-6.59L14.91-12.86C14.91-13.64 15.32-14.14 16.05-14.14C16.80-14.14 17.21-13.66 17.21-12.86L17.21-6.54C17.21-4.17 15.86-2.85 13.41-2.85Z" fill="currentColor"/>
</svg>