<svg xmlns="http://www.w3.org/2000/svg" viewBox="0 0 24 24" width="24" height="24">
  <title>key.radiowaves.forward</title>
  <path transform="matrix(0.6719443877051938, 0, 0, 0.6719443877051938, 1.034970001412316, 17.840924945583424)" d="M25.72-7.28C26.18-6.91 26.79-6.97 27.21-7.50C28.77-9.53 29.65-12.39 29.65-15.32C29.65-18.23 28.75-21.13 27.21-23.12C26.80-23.65 26.18-23.71 25.72-23.34C25.28-22.99 25.24-22.41 25.62-21.90C26.91-20.16 27.63-17.78 27.63-15.32C27.63-12.84 26.88-10.48 25.62-8.72C25.25-8.21 25.28-7.63 25.72-7.28ZM10.04 5.81C10.58 6.28 11.32 6.34 11.84 5.84L15.45 2.21C15.96 1.70 15.94 0.93 15.43 0.42L13.71-1.30L16.28-3.86C16.77-4.35 16.76-5.13 16.25-5.65L13.92-7.99C17.10-9.57 18.89-12.21 18.89-15.32C18.89-19.71 15.34-23.25 10.93-23.25C6.53-23.25 2.99-19.72 2.99-15.32C2.99-12.16 4.78-9.34 7.64-8.06L7.64 2.94C7.64 3.36 7.77 3.84 8.13 4.15ZM10.93 3.75L9.67 2.48L9.67-9.59C6.98-10.17 5.07-12.52 5.07-15.32C5.07-18.54 7.69-21.15 10.93-21.15C14.18-21.15 16.78-18.55 16.78-15.32C16.78-12.55 14.86-10.17 11.93-9.52L11.93-6.98L14.18-4.73L11.78-2.37L11.78-0.26L13.36 1.30ZM21.42-10.39C21.83-10.05 22.48-10.11 22.88-10.63C23.78-11.78 24.30-13.51 24.30-15.32C24.30-17.11 23.78-18.84 22.88-20.00C22.48-20.51 21.83-20.58 21.42-20.23C20.94-19.84 20.91-19.24 21.28-18.74C21.91-17.86 22.29-16.59 22.29-15.32C22.29-14.04 21.90-12.77 21.28-11.89C20.91-11.38 20.94-10.78 21.42-10.39ZM10.93-15.62C11.99-15.62 12.84-16.48 12.84-17.53C12.84-18.57 11.99-19.42 10.93-19.42C9.88-19.42 9.05-18.57 9.05-17.53C9.05-16.48 9.89-15.62 10.93-15.62Z" fill="currentColor"/>
</svg>