<svg xmlns="http://www.w3.org/2000/svg" viewBox="0 0 24 24" width="24" height="24">
  <title>key.icloud</title>
  <path transform="matrix(0.6687565308254964, 0, 0, 0.6687565308254964, 0.5971786833855799, 18.37539184952978)" d="M25.50 0.87C29.13 0.87 32.00-1.80 32.00-5.14C32.00-7.64 30.59-9.84 28.27-10.82C28.28-16.11 24.47-19.93 19.56-19.93C16.43-19.93 14.11-18.30 12.63-16.20C9.67-16.99 6.54-14.78 6.43-11.47C3.75-10.99 2.10-8.59 2.10-5.67C2.10-2.11 5.21 0.87 9.30 0.87ZM25.50-1.43L9.30-1.43C6.50-1.43 4.42-3.39 4.42-5.67C4.42-8.00 5.86-9.75 8.26-9.75C8.43-9.75 8.51-9.84 8.50-10.01C8.43-13.51 10.93-14.68 13.44-13.89C13.59-13.84 13.69-13.88 13.76-14.00C14.92-16.04 16.63-17.64 19.55-17.64C23.25-17.64 25.88-14.70 26.05-11.29C26.09-10.66 26.05-9.98 25.99-9.42C25.98-9.26 26.04-9.16 26.19-9.14C28.32-8.73 29.68-7.22 29.68-5.14C29.68-3.08 27.86-1.43 25.50-1.43ZM23.38-8.16C23.38-10.08 21.84-11.63 19.93-11.63C18.50-11.63 17.25-10.78 16.71-9.46L11.55-9.46C11.40-9.46 11.27-9.41 11.16-9.28L10.27-8.38C10.15-8.25 10.14-8.05 10.28-7.91L11.93-6.23C12.08-6.09 12.29-6.09 12.43-6.25L13.41-7.22L14.78-5.85C14.89-5.71 15.11-5.72 15.26-5.87L16.61-7.20C17.27-5.60 18.49-4.71 19.93-4.71C21.84-4.71 23.38-6.25 23.38-8.16ZM21.70-8.17C21.70-7.59 21.22-7.13 20.65-7.13C20.06-7.13 19.59-7.59 19.59-8.17C19.59-8.74 20.06-9.21 20.65-9.21C21.22-9.21 21.70-8.75 21.70-8.17Z" fill="currentColor"/>
</svg>