<svg xmlns="http://www.w3.org/2000/svg" viewBox="0 0 24 24" width="24" height="24">
  <title>keyboard.onehanded.right</title>
  <path transform="matrix(0.6703325477873789, 0, 0, 0.6703325477873789, -0.003142183817753441, 17.675569520816968)" d="M6.83 1.01L28.99 1.01C31.51 1.01 32.82-0.29 32.82-2.80L32.82-14.13C32.82-16.64 31.51-17.94 28.99-17.94L6.83-17.94C4.30-17.94 2.99-16.64 2.99-14.13L2.99-2.80C2.99-0.29 4.30 1.01 6.83 1.01ZM6.97-1.29C5.88-1.29 5.29-1.85 5.29-3L5.29-13.95C5.29-15.08 5.88-15.64 6.97-15.64L28.85-15.64C29.93-15.64 30.54-15.08 30.54-13.95L30.54-3C30.54-1.85 29.93-1.29 28.85-1.29ZM14.40-11.14L15.25-11.14C15.46-11.14 15.60-11.29 15.60-11.53L15.60-12.88C15.60-13.13 15.46-13.27 15.25-13.27L14.40-13.27C14.18-13.27 14.04-13.13 14.04-12.88L14.04-11.53C14.04-11.29 14.18-11.14 14.40-11.14ZM16.93-11.14L17.77-11.14C17.99-11.14 18.13-11.29 18.13-11.53L18.13-12.88C18.13-13.13 17.99-13.27 17.77-13.27L16.93-13.27C16.71-13.27 16.57-13.13 16.57-12.88L16.57-11.53C16.57-11.29 16.71-11.14 16.93-11.14ZM19.46-11.14L20.31-11.14C20.52-11.14 20.66-11.29 20.66-11.53L20.66-12.88C20.66-13.13 20.52-13.27 20.31-13.27L19.46-13.27C19.24-13.27 19.10-13.13 19.10-12.88L19.10-11.53C19.10-11.29 19.24-11.14 19.46-11.14ZM21.98-11.14L22.83-11.14C23.05-11.14 23.19-11.29 23.19-11.53L23.19-12.88C23.19-13.13 23.05-13.27 22.83-13.27L21.98-13.27C21.76-13.27 21.62-13.13 21.62-12.88L21.62-11.53C21.62-11.29 21.76-11.14 21.98-11.14ZM24.53-11.14L25.36-11.14C25.58-11.14 25.72-11.29 25.72-11.53L25.72-12.88C25.72-13.13 25.58-13.27 25.36-13.27L24.53-13.27C24.30-13.27 24.15-13.13 24.15-12.88L24.15-11.53C24.15-11.29 24.30-11.14 24.53-11.14ZM27.05-11.14L27.89-11.14C28.11-11.14 28.25-11.29 28.25-11.53L28.25-12.88C28.25-13.13 28.11-13.27 27.89-13.27L27.05-13.27C26.82-13.27 26.68-13.13 26.68-12.88L26.68-11.53C26.68-11.29 26.82-11.14 27.05-11.14ZM12.01-9.15L8.71-12.26C8.26-12.66 7.57-12.48 7.57-11.84L7.57-5.10C7.57-4.45 8.26-4.28 8.71-4.69L12.01-7.78C12.47-8.20 12.47-8.73 12.01-9.15ZM14.40-7.42L15.25-7.42C15.46-7.42 15.60-7.56 15.60-7.79L15.60-9.15C15.60-9.39 15.46-9.54 15.25-9.54L14.40-9.54C14.18-9.54 14.04-9.39 14.04-9.15L14.04-7.79C14.04-7.56 14.18-7.42 14.40-7.42ZM16.93-7.42L17.77-7.42C17.99-7.42 18.13-7.56 18.13-7.79L18.13-9.15C18.13-9.39 17.99-9.54 17.77-9.54L16.93-9.54C16.71-9.54 16.57-9.39 16.57-9.15L16.57-7.79C16.57-7.56 16.71-7.42 16.93-7.42ZM19.46-7.42L20.31-7.42C20.52-7.42 20.66-7.56 20.66-7.79L20.66-9.15C20.66-9.39 20.52-9.54 20.31-9.54L19.46-9.54C19.24-9.54 19.10-9.39 19.10-9.15L19.10-7.79C19.10-7.56 19.24-7.42 19.46-7.42ZM21.98-7.42L22.83-7.42C23.05-7.42 23.19-7.56 23.19-7.79L23.19-9.15C23.19-9.39 23.05-9.54 22.83-9.54L21.98-9.54C21.76-9.54 21.62-9.39 21.62-9.15L21.62-7.79C21.62-7.56 21.76-7.42 21.98-7.42ZM24.53-7.42L25.36-7.42C25.58-7.42 25.72-7.56 25.72-7.79L25.72-9.15C25.72-9.39 25.58-9.54 25.36-9.54L24.53-9.54C24.30-9.54 24.15-9.39 24.15-9.15L24.15-7.79C24.15-7.56 24.30-7.42 24.53-7.42ZM27.05-7.42L27.89-7.42C28.11-7.42 28.25-7.56 28.25-7.79L28.25-9.15C28.25-9.39 28.11-9.54 27.89-9.54L27.05-9.54C26.82-9.54 26.68-9.39 26.68-9.15L26.68-7.79C26.68-7.56 26.82-7.42 27.05-7.42ZM14.40-3.68L15.25-3.68C15.46-3.68 15.60-3.83 15.60-4.07L15.60-5.41C15.60-5.66 15.46-5.80 15.25-5.80L14.40-5.80C14.18-5.80 14.04-5.66 14.04-5.41L14.04-4.07C14.04-3.83 14.18-3.68 14.40-3.68ZM16.93-3.68L25.36-3.68C25.58-3.68 25.72-3.83 25.72-4.07L25.72-5.41C25.72-5.66 25.58-5.80 25.36-5.80L16.93-5.80C16.71-5.80 16.57-5.66 16.57-5.41L16.57-4.07C16.57-3.83 16.71-3.68 16.93-3.68ZM27.05-3.68L27.89-3.68C28.11-3.68 28.25-3.83 28.25-4.07L28.25-5.41C28.25-5.66 28.11-5.80 27.89-5.80L27.05-5.80C26.82-5.80 26.68-5.66 26.68-5.41L26.68-4.07C26.68-3.83 26.82-3.68 27.05-3.68Z" fill="currentColor"/>
</svg>