<svg xmlns="http://www.w3.org/2000/svg" viewBox="0 0 24 24" width="24" height="24">
  <title>kipsign.square.fill</title>
  <path transform="matrix(0.9141224781289056, 0, 0, 0.9141224781289056, -0.7316550615961437, 19.728976968398502)" d="M6.83 2.48L21.02 2.48C23.55 2.48 24.87 1.18 24.87-1.32L24.87-15.59C24.87-18.08 23.55-19.39 21.02-19.39L6.83-19.39C4.30-19.39 2.99-18.09 2.99-15.59L2.99-1.32C2.99 1.18 4.30 2.48 6.83 2.48ZM11.27-2.93C10.75-2.93 10.42-3.27 10.42-3.80L10.42-8.20L9.56-8.20C9.33-8.20 9.16-8.37 9.16-8.59C9.16-8.84 9.33-8.99 9.56-8.99L10.42-8.99L10.42-13.17C10.42-13.70 10.73-14.03 11.27-14.03C11.79-14.03 12.12-13.70 12.12-13.17L12.12-8.99L12.81-8.99L16.36-13.61C16.54-13.84 16.77-14.03 17.06-14.03C17.47-14.03 17.85-13.73 17.85-13.30C17.85-13.13 17.77-12.94 17.64-12.76L14.61-8.99L17.78-8.99C18-8.99 18.18-8.84 18.18-8.60C18.18-8.38 18-8.20 17.78-8.20L14.59-8.20L17.64-4.30C17.79-4.09 17.87-3.91 17.87-3.68C17.87-3.36 17.64-2.93 17.06-2.93C16.71-2.93 16.50-3.09 16.30-3.39L12.79-8.20L12.12-8.20L12.12-3.80C12.12-3.27 11.79-2.93 11.27-2.93Z" fill="currentColor"/>
</svg>