<svg xmlns="http://www.w3.org/2000/svg" viewBox="0 0 24 24" width="24" height="24">
  <title>l.button.roundedbottom.horizontal.fill</title>
  <path transform="matrix(0.7324749642346209, 0, 0, 0.7324749642346209, -0.18884120171673802, 18.193133047210303)" d="M12.86 1.95L20.43 1.95C27.28 1.95 30.29-1.16 30.29-7.72L30.29-15.12C30.29-17.58 28.99-18.86 26.52-18.86L6.77-18.86C4.29-18.86 2.99-17.58 2.99-15.12L2.99-7.72C2.99-1.16 6 1.95 12.86 1.95ZM14.77-3.49C14.10-3.49 13.72-3.95 13.72-4.64L13.72-12.42C13.72-13.09 14.12-13.58 14.77-13.58C15.41-13.58 15.84-13.10 15.84-12.42L15.84-5.25L19.34-5.25C19.83-5.25 20.24-4.88 20.24-4.37C20.24-3.86 19.83-3.49 19.34-3.49Z" fill="currentColor"/>
</svg>