<svg xmlns="http://www.w3.org/2000/svg" viewBox="0 0 24 24" width="24" height="24">
  <title>l.joystick.tilt.right.fill</title>
  <path transform="matrix(0.6711560141891864, 0, 0, 0.6711560141891864, 0.5921453921109645, 17.68254164357446)" d="M15.80-22.16C8.24-22.16 2.10-16.02 2.10-8.46C2.10-0.90 8.24 5.23 15.80 5.23C21.69 5.23 26.72 1.50 28.65-3.73C27.90-3.60 27.18-3.81 26.63-4.25C24.93 0.09 20.73 3.16 15.80 3.16C9.36 3.16 4.16-2.03 4.16-8.46C4.16-14.89 9.36-20.10 15.80-20.10C20.74-20.10 24.94-17.02 26.64-12.67C27.18-13.11 27.91-13.30 28.65-13.18C26.74-18.41 21.70-22.16 15.80-22.16ZM15.80 0.96C21.01 0.96 25.22-3.26 25.22-8.46C25.22-13.68 21.01-17.89 15.80-17.89C10.59-17.89 6.36-13.68 6.36-8.46C6.36-3.26 10.59 0.96 15.80 0.96ZM14.06-3.87C13.44-3.87 13.10-4.29 13.10-4.92L13.10-12.13C13.10-12.74 13.46-13.20 14.06-13.20C14.66-13.20 15.06-12.75 15.06-12.13L15.06-5.50L18.28-5.50C18.74-5.50 19.13-5.14 19.13-4.68C19.13-4.21 18.74-3.87 18.28-3.87ZM28.66-11.27C28.01-11.78 27.18-11.47 27.18-10.64L27.18-6.28C27.18-5.41 28.01-5.14 28.66-5.63L31.56-7.82C32.00-8.16 32.02-8.78 31.56-9.11Z" fill="currentColor"/>
</svg>