<svg xmlns="http://www.w3.org/2000/svg" viewBox="0 0 24 24" width="24" height="24">
  
  <path transform="matrix(0.7324749642346209, 0, 0, 0.7324749642346209, -0.18884120171673802, 18.193133047210303)" d="M12.86 1.95L20.43 1.95C27.28 1.95 30.29-1.16 30.29-7.72L30.29-15.12C30.29-17.58 28.99-18.86 26.52-18.86L6.77-18.86C4.29-18.86 2.99-17.58 2.99-15.12L2.99-7.72C2.99-1.16 6 1.95 12.86 1.95ZM12.90-0.35C7.58-0.35 5.29-2.65 5.29-7.64L5.29-14.92C5.29-16.01 5.86-16.57 6.91-16.57L26.37-16.57C27.42-16.57 28.00-16.01 28.00-14.92L28.00-7.64C28.00-2.65 25.70-0.35 20.38-0.35ZM20.10-3.66C20.59-3.66 21-4.07 21-4.57L21-12.26C21-12.91 20.60-13.28 19.96-13.28C19.44-13.28 19.04-13.02 18.74-12.79L17.52-11.84C17.30-11.66 17.13-11.43 17.13-11.11C17.13-10.71 17.40-10.46 17.77-10.46C17.95-10.46 18.07-10.52 18.20-10.62L19.18-11.41L19.18-4.57C19.18-4.07 19.59-3.66 20.10-3.66ZM13.02-3.77L16.24-3.77C16.65-3.77 16.99-4.11 16.99-4.52C16.99-4.93 16.65-5.27 16.24-5.27L13.93-5.27L13.93-12.36C13.93-12.86 13.52-13.27 13.03-13.27C12.54-13.27 12.13-12.86 12.13-12.36L12.13-4.72C12.13-4.14 12.45-3.77 13.02-3.77Z" fill="currentColor"/>
</svg>