<svg xmlns="http://www.w3.org/2000/svg" viewBox="0 0 24 24" width="24" height="24">
  <title>ladybug.fill</title>
  <path transform="matrix(0.7125322601005042, 0, 0, 0.7125322601005042, 0.2390427146301537, 18.06921750753859)" d="M10.14-15.49C10.14-14.85 10.37-14.37 11.19-13.97C12.49-13.35 14.47-12.98 16.50-12.98C18.54-12.98 20.52-13.35 21.81-13.97C22.64-14.37 22.88-14.85 22.88-15.49C22.88-17.07 21.98-18.47 20.44-19.34L20.37-19.61C20.29-19.98 20.46-20.23 20.94-20.38L21.70-20.65C22.98-21.02 22.36-22.92 21.06-22.49L20.14-22.14C19.09-21.76 18.53-21.04 18.48-20.05C17.87-20.19 17.21-20.26 16.50-20.26C15.80-20.26 15.13-20.19 14.52-20.05C14.48-21.04 13.91-21.76 12.86-22.14L11.94-22.49C10.65-22.92 10.02-21.02 11.30-20.65L12.06-20.38C12.55-20.23 12.71-19.98 12.63-19.61L12.56-19.34C11.02-18.47 10.14-17.07 10.14-15.49ZM18.57 5.50C21.05 5.16 23.09 4.01 24.55 2.26L26.05 3.54C26.54 3.95 27.18 3.98 27.56 3.50C27.96 3.04 27.82 2.40 27.34 1.99L25.68 0.59C26.48-0.94 26.94-2.75 26.99-4.77L28.93-4.77C29.59-4.77 30.02-5.17 30.02-5.78C30.02-6.38 29.59-6.77 28.95-6.77L26.87-6.79C26.66-8.32 26.18-9.93 25.48-11.14L27.42-12.74C27.90-13.14 28.04-13.78 27.64-14.25C27.26-14.73 26.63-14.68 26.13-14.27L24.20-12.68C23.63-13.10 23.21-13.08 22.86-12.93C21.09-12.08 18.87-11.59 16.50-11.59C14.13-11.59 11.91-12.08 10.15-12.93C9.79-13.08 9.39-13.10 8.81-12.68L6.88-14.27C6.38-14.68 5.75-14.73 5.37-14.25C4.97-13.78 5.11-13.14 5.59-12.74L7.54-11.14C6.83-9.93 6.35-8.32 6.14-6.79L4.07-6.77C3.42-6.77 2.99-6.38 2.99-5.78C2.99-5.17 3.42-4.77 4.07-4.77L6.01-4.77C6.06-2.75 6.53-0.94 7.34 0.59L5.66 1.99C5.18 2.40 5.05 3.04 5.44 3.50C5.84 3.98 6.47 3.95 6.95 3.54L8.46 2.26C9.91 4.01 11.96 5.16 14.43 5.50C15.22 5.60 15.67 5.30 15.67 4.68L15.67-8.58C15.67-9.05 16.04-9.42 16.50-9.42C16.97-9.42 17.34-9.05 17.34-8.58L17.34 4.68C17.34 5.30 17.79 5.60 18.57 5.50ZM11.81-7.24C10.96-7.24 10.28-7.96 10.28-8.79C10.28-9.64 10.96-10.34 11.81-10.34C12.66-10.34 13.36-9.64 13.36-8.79C13.36-7.96 12.66-7.24 11.81-7.24ZM21.20-7.24C20.34-7.24 19.65-7.96 19.65-8.79C19.65-9.64 20.34-10.34 21.20-10.34C22.04-10.34 22.73-9.64 22.73-8.79C22.73-7.96 22.04-7.24 21.20-7.24ZM10.58-2.16C9.59-2.16 8.79-2.95 8.79-3.96C8.79-4.93 9.59-5.73 10.58-5.73C11.57-5.73 12.38-4.93 12.38-3.96C12.38-2.95 11.57-2.16 10.58-2.16ZM22.43-2.16C21.45-2.16 20.64-2.95 20.64-3.96C20.64-4.93 21.45-5.73 22.43-5.73C23.43-5.73 24.22-4.93 24.22-3.96C24.22-2.95 23.43-2.16 22.43-2.16ZM12.08 2.16C11.34 2.16 10.75 1.56 10.75 0.83C10.75 0.08 11.34-0.52 12.08-0.52C12.82-0.52 13.42 0.08 13.42 0.83C13.42 1.56 12.82 2.16 12.08 2.16ZM20.93 2.16C20.19 2.16 19.59 1.56 19.59 0.83C19.59 0.08 20.19-0.52 20.93-0.52C21.66-0.52 22.25 0.08 22.25 0.83C22.25 1.56 21.66 2.16 20.93 2.16Z" fill="currentColor"/>
</svg>