<svg xmlns="http://www.w3.org/2000/svg" viewBox="0 0 24 24" width="24" height="24">
  <title>lamp.desk</title>
  <path transform="matrix(0.7021152593506805, 0, 0, 0.7021152593506805, 1.8755160800295259, 17.91072714182865)" d="M4.96-5.13C5.13-5.13 5.31-5.16 5.46-5.20L8.30-2.38C8.20-2.16 8.16-1.91 8.16-1.65C8.16-0.94 8.52-0.33 9.07 0.02L9.07 3.29L5.59 3.29C4.37 3.29 3.54 3.95 3.54 4.91C3.54 5.44 3.86 5.82 4.37 5.82L17.21 5.82C17.72 5.82 18.05 5.44 18.05 4.91C18.05 3.95 17.21 3.29 16.00 3.29L11.19 3.29L11.19 0.04C11.74-0.30 12.09-0.91 12.09-1.65C12.09-2.74 11.23-3.62 10.13-3.62C10.10-3.62 10.08-3.62 10.04-3.61L6.89-6.76C6.91-6.87 6.93-6.98 6.93-7.10C6.93-7.22 6.91-7.32 6.89-7.43L11.84-11.98C11.96-10.62 12.20-9.33 12.59-8.09C13.09-6.50 14.82-5.99 16.01-7.17L17.79-8.95C18.47-8.50 19.24-8.27 20.04-8.27C22.25-8.27 24.12-10.11 24.12-12.33C24.12-13.13 23.87-13.91 23.41-14.58L25.21-16.36C26.40-17.55 25.84-19.28 24.30-19.76C21.94-20.52 19.38-20.74 16.48-20.58L16.14-20.94C15.01-22.09 13.48-22.34 12.16-21.60L11.39-22.37C10.99-22.76 10.38-22.76 10.00-22.37C9.61-21.98 9.60-21.38 10.00-20.98L10.77-20.19C10.03-18.86 10.27-17.29 11.44-16.22L11.79-15.88C11.78-15.50 11.75-15.13 11.75-14.75L5.48-9C5.32-9.05 5.14-9.07 4.96-9.07C3.84-9.07 2.99-8.19 2.99-7.10C2.99-5.99 3.84-5.13 4.96-5.13ZM14.77-8.57C14.59-8.40 14.44-8.41 14.30-8.89C13.65-10.92 13.49-13.22 13.69-16.00C13.71-16.43 13.52-16.83 13.21-17.12L12.69-17.59C12.07-18.16 12.04-18.98 12.70-19.68C13.39-20.34 14.19-20.32 14.78-19.68L15.25-19.16C15.55-18.83 16.00-18.64 16.43-18.69C19.16-18.89 21.47-18.70 23.48-18.06C23.94-17.91 23.96-17.77 23.80-17.60ZM22.23-12.33C22.23-11.12 21.22-10.15 20.04-10.15C19.75-10.15 19.44-10.21 19.17-10.34L22.03-13.20C22.16-12.93 22.23-12.62 22.23-12.33Z" fill="currentColor"/>
</svg>