<svg xmlns="http://www.w3.org/2000/svg" viewBox="0 0 24 24" width="24" height="24">
  
  <path transform="matrix(0.9141224781289056, 0, 0, 0.9141224781289056, -0.7316550615961437, 19.69683985002678)" d="M2.99-0.45C2.99 0.19 3.50 0.70 4.14 0.70C4.77 0.70 5.29 0.19 5.29-0.45L5.29-16.39C5.29-17.03 4.77-17.54 4.14-17.54C3.50-17.54 2.99-17.03 2.99-16.39ZM22.57-0.45C22.57 0.19 23.09 0.70 23.72 0.70C24.34 0.70 24.87 0.19 24.87-0.45L24.87-16.39C24.87-17.03 24.34-17.54 23.72-17.54C23.09-17.54 22.57-17.03 22.57-16.39Z" fill="currentColor"/>
</svg>