<svg xmlns="http://www.w3.org/2000/svg" viewBox="0 0 24 24" width="24" height="24">
  
  <path transform="matrix(0.7595312268209464, 0, 0, 0.7595312268209464, 0.4067645749888742, 18.430796617712506)" d="M15.26 4.70C22.50 4.70 28.43-1.22 28.43-8.46C28.43-15.70 22.50-21.63 15.26-21.63C8.03-21.63 2.10-15.70 2.10-8.46C2.10-1.22 8.03 4.70 15.26 4.70ZM15.26 0.25C10.45 0.25 6.55-3.64 6.55-8.46C6.55-13.28 10.45-17.17 15.26-17.17C20.07-17.17 23.96-13.28 23.96-8.46C23.96-3.64 20.07 0.25 15.26 0.25ZM10.98-3.30L18.89-3.30C19.30-3.30 19.58-3.56 19.58-3.96C19.58-4.35 19.30-4.62 18.89-4.62L16.27-4.62C13.66-4.62 11.87-6.50 11.87-8.75C11.87-10.36 12.67-11.48 13.86-11.98L13.86-9.11C13.86-8.88 14.03-8.72 14.24-8.72C14.46-8.72 14.63-8.88 14.63-9.11L14.63-12.20C14.86-12.23 15.11-12.26 15.36-12.26C15.62-12.26 15.88-12.23 16.13-12.19L16.13-9.11C16.13-8.88 16.29-8.72 16.50-8.72C16.72-8.72 16.89-8.88 16.89-9.11L16.89-11.95C17.96-11.48 18.70-10.51 18.77-9.34C18.82-8.92 19.07-8.60 19.51-8.60C19.95-8.60 20.25-8.91 20.25-9.34C20.24-11.24 18.79-12.83 16.89-13.39L16.89-14.59C16.89-14.80 16.72-14.96 16.50-14.96C16.29-14.96 16.13-14.80 16.13-14.59L16.13-13.56C15.88-13.61 15.61-13.62 15.35-13.62C15.11-13.62 14.86-13.61 14.63-13.58L14.63-14.59C14.63-14.80 14.46-14.96 14.24-14.96C14.03-14.96 13.86-14.80 13.86-14.59L13.86-13.43C11.82-12.89 10.35-11.23 10.35-9.01C10.35-7.23 11.18-5.46 12.86-4.63L12.86-4.58L10.98-4.58C10.57-4.58 10.30-4.34 10.30-3.95C10.30-3.56 10.57-3.30 10.98-3.30Z" fill="currentColor"/>
</svg>