<svg xmlns="http://www.w3.org/2000/svg" viewBox="0 0 24 24" width="24" height="24">
  
  <path transform="matrix(0.8260729267505647, 0, 0, 0.8260729267505647, 0.2671829622458859, 18.989351403678604)" d="M14.20 3.64C20.88 3.64 26.31-1.78 26.31-8.46C26.31-15.14 20.88-20.57 14.20-20.57C7.52-20.57 2.10-15.14 2.10-8.46C2.10-1.78 7.52 3.64 14.20 3.64ZM14.20 1.25C8.82 1.25 4.48-3.08 4.48-8.46C4.48-13.84 8.82-18.19 14.20-18.19C19.58-18.19 23.93-13.84 23.93-8.46C23.93-3.08 19.58 1.25 14.20 1.25ZM8.53-12.86C8.44-12.33 8.36-11.63 8.36-11.16C8.36-7.24 10.70-4.65 14.26-4.65C16.02-4.65 17.06-5.44 17.58-6.01C18-5.43 18.23-4.78 18.52-3.91C18.59-3.67 18.77-3.56 18.96-3.56C19.36-3.56 19.69-3.91 19.69-4.38C19.69-5.11 18.64-6.36 18.09-6.87C15.79-8.99 12.30-7.72 11.44-10.05C11.37-10.22 11.54-10.35 11.71-10.21C13.62-8.58 15.83-9.88 18.06-7.85C18.26-7.66 18.49-7.76 18.54-7.96C18.56-8.12 18.57-8.36 18.57-8.58C18.57-11.12 16.82-12.39 14.29-12.39C13.44-12.39 12.46-12.18 11.70-12.18C10.88-12.18 9.95-12.26 9.19-13.03C8.94-13.27 8.60-13.23 8.53-12.86Z" fill="currentColor"/>
</svg>