<svg xmlns="http://www.w3.org/2000/svg" viewBox="0 0 24 24" width="24" height="24">
  
  <path transform="matrix(0.6645898234683282, 0, 0, 0.6645898234683282, 0.014018691588784993, 17.615264797507788)" d="M6.83 1.37L29.24 1.37C31.78 1.37 33.08 0.06 33.08-2.44L33.08-14.46C33.08-16.96 31.78-18.27 29.24-18.27L6.83-18.27C4.30-18.27 2.99-16.97 2.99-14.46L2.99-2.44C2.99 0.07 4.30 1.37 6.83 1.37ZM21.36-4.59C20.96-4.59 20.66-4.84 20.66-5.26C20.66-5.45 20.70-5.65 20.94-5.99L22.32-8.03C22.89-8.84 23.25-9.53 23.25-10.20C23.25-10.75 23.07-11.17 22.64-11.17C22.29-11.17 22.13-10.83 22.02-10.35C21.91-9.90 21.69-9.68 21.30-9.68C20.91-9.68 20.65-10.00 20.65-10.38C20.65-11.25 21.45-12.48 22.65-12.48C23.95-12.48 24.73-11.54 24.73-10.22C24.73-9.19 24.16-8.30 23.58-7.46L22.49-5.92L24.19-5.92C24.53-5.92 24.82-5.63 24.82-5.25C24.82-4.89 24.53-4.59 24.19-4.59ZM27.53-4.44C25.99-4.44 25.34-5.67 25.34-6.43C25.34-6.74 25.55-7.11 26.04-7.11C26.45-7.11 26.64-6.82 26.72-6.59C26.88-6.02 27.15-5.77 27.53-5.77C28.03-5.77 28.25-6.18 28.25-6.83C28.25-7.56 28.01-7.92 27.33-7.92L27.12-7.92C26.75-7.92 26.51-8.19 26.51-8.54C26.51-8.89 26.75-9.16 27.12-9.16L27.33-9.16C27.89-9.16 28.13-9.67 28.13-10.21C28.13-10.78 27.89-11.14 27.49-11.14C27.14-11.14 26.95-10.86 26.81-10.35C26.70-9.97 26.45-9.80 26.10-9.80C25.71-9.80 25.44-10.09 25.44-10.46C25.44-11.60 26.33-12.46 27.49-12.46C28.91-12.46 29.57-11.39 29.57-10.32C29.57-9.64 29.25-8.96 28.78-8.63C29.43-8.36 29.75-7.62 29.75-6.80C29.75-5.45 28.88-4.44 27.53-4.44ZM6.90-4.49C6.41-4.49 6.16-4.80 6.16-5.21C6.16-5.34 6.19-5.53 6.22-5.64L7.58-11.52C7.71-12.11 8.10-12.41 8.63-12.41C9.26-12.41 9.62-12.07 9.74-11.53L11.11-5.63C11.13-5.53 11.14-5.33 11.14-5.21C11.14-4.80 10.86-4.49 10.43-4.49C10.00-4.49 9.74-4.72 9.66-5.14L9.42-6.34L7.91-6.34L7.66-5.16C7.59-4.77 7.32-4.49 6.90-4.49ZM19.03-4.50C18.59-4.50 18.27-4.85 18.27-5.32L18.27-10.58L17.79-10.17C17.70-10.10 17.53-10.04 17.39-10.04C17.05-10.04 16.79-10.29 16.79-10.64C16.79-10.86 16.92-11.06 17.14-11.25L17.99-11.96C18.34-12.26 18.62-12.41 18.96-12.41C19.45-12.41 19.80-12.05 19.80-11.57L19.80-5.32C19.80-4.85 19.49-4.50 19.03-4.50ZM12.57-4.49C12.12-4.49 11.81-4.78 11.81-5.25L11.81-11.51C11.81-11.98 12.09-12.29 12.57-12.29L14.12-12.29C15.53-12.29 16.23-11.02 16.23-9.67C16.23-8.19 15.41-7.04 14.02-7.04L13.32-7.04L13.32-5.25C13.32-4.78 13.03-4.49 12.57-4.49ZM13.32-8.24L13.78-8.24C14.50-8.24 14.75-8.91 14.75-9.67C14.75-10.42 14.52-11.10 13.78-11.10L13.32-11.10ZM8.06-7.54L9.26-7.54L8.66-10.42Z" fill="currentColor"/>
</svg>