<svg xmlns="http://www.w3.org/2000/svg" viewBox="0 0 24 24" width="24" height="24">
  
  <path transform="matrix(0.5203252032520326, 0, 0, 0.5203252032520326, 0.44512195121951015, 15.112804878048781)" d="M12.08-6.18C17.21-6.18 21.15-8.61 21.15-11.85C21.15-15.08 17.21-17.53 12.08-17.53C6.94-17.53 2.99-15.09 2.99-11.85C2.99-8.60 6.94-6.18 12.08-6.18ZM32.36-6.16C37.49-6.16 41.43-8.60 41.43-11.84C41.43-15.07 37.49-17.52 32.36-17.52C27.20-17.52 23.26-15.08 23.26-11.84C23.26-8.59 27.20-6.16 32.36-6.16ZM12.07-8.41C8.74-8.41 6.27-9.82 6.27-11.71C6.27-13.59 8.74-15.01 12.07-15.01C15.42-15.01 17.89-13.59 17.89-11.71C17.89-9.83 15.42-8.41 12.07-8.41ZM32.34-8.40C29.00-8.40 26.53-9.81 26.53-11.70C26.53-13.58 29.00-15 32.34-15C35.68-15 38.16-13.58 38.16-11.70C38.16-9.82 35.68-8.40 32.34-8.40ZM7.42-11.71C7.42-10.52 9.49-9.56 12.06-9.56C14.65-9.56 16.75-10.52 16.75-11.71C16.75-12.15 16.48-12.54 16.01-12.86C15.23-11.88 13.73-11.23 12.06-11.23C10.38-11.23 8.89-11.86 8.09-12.84C7.68-12.53 7.42-12.14 7.42-11.71ZM27.69-11.70C27.69-10.52 29.77-9.55 32.34-9.55C34.93-9.55 37.02-10.52 37.02-11.70C37.02-12.14 36.74-12.53 36.27-12.86C35.50-11.87 34.01-11.21 32.34-11.21C30.67-11.21 29.17-11.85 28.36-12.83C27.94-12.52 27.69-12.13 27.69-11.70ZM22.23 5.57C27.36 5.57 31.30 3.12 31.30-0.11C31.30-3.34 27.36-5.79 22.23-5.79C17.06-5.79 13.14-3.35 13.14-0.11C13.14 3.13 17.06 5.57 22.23 5.57ZM22.22 3.33C18.88 3.33 16.41 1.92 16.41 0.04C16.41-1.86 18.88-3.27 22.22-3.27C25.56-3.27 28.04-1.86 28.04 0.04C28.04 1.91 25.56 3.33 22.22 3.33ZM17.57 0.04C17.57 1.22 19.63 2.19 22.21 2.19C24.80 2.19 26.88 1.22 26.88 0.04C26.88-0.41 26.60-0.80 26.14-1.13C25.37-0.13 23.88 0.52 22.21 0.52C20.53 0.52 19.03-0.12 18.22-1.10C17.82-0.79 17.57-0.40 17.57 0.04Z" fill="currentColor"/>
</svg>