<svg xmlns="http://www.w3.org/2000/svg" viewBox="0 0 24 24" width="24" height="24">
  
  <path transform="matrix(0.7886629698089956, 0, 0, 0.7886629698089956, -0.35674676524953775, 19.241219963031426)" d="M15.67-17.95C16.39-17.95 16.98-18.54 16.98-19.27C16.98-19.99 16.39-20.58 15.67-20.58C14.94-20.58 14.36-19.99 14.36-19.27C14.36-18.54 14.94-17.95 15.67-17.95ZM7.20-15.01C7.92-15.01 8.51-15.60 8.51-16.32C8.51-17.05 7.92-17.64 7.20-17.64C6.47-17.64 5.88-17.05 5.88-16.32C5.88-15.60 6.47-15.01 7.20-15.01ZM24.14-15.01C24.87-15.01 25.45-15.60 25.45-16.32C25.45-17.05 24.87-17.64 24.14-17.64C23.41-17.64 22.83-17.05 22.83-16.32C22.83-15.60 23.41-15.01 24.14-15.01ZM24.87 2.21C25.46 2.21 25.98 1.72 25.98 1.11C25.98 0.52 25.46 0.01 24.87 0.01L23.43 0.01L23.43-7.78C23.43-12.15 20.04-15.54 15.67-15.54C11.30-15.54 7.92-12.15 7.92-7.78L7.92 0.01L6.47 0.01C5.87 0.01 5.38 0.52 5.38 1.11C5.38 1.72 5.87 2.21 6.47 2.21ZM16.78-7.38C16.78-7.99 16.27-8.50 15.67-8.50C15.07-8.50 14.58-7.99 14.58-7.38L14.58 0.01L10.13 0.01L10.13-7.78C10.13-10.93 12.53-13.35 15.67-13.35C18.82-13.35 21.23-10.93 21.23-7.78L21.23 0.01L16.78 0.01ZM4.30-6.56C5.03-6.56 5.61-7.14 5.61-7.88C5.61-8.60 5.03-9.19 4.30-9.19C3.57-9.19 2.99-8.60 2.99-7.88C2.99-7.14 3.57-6.56 4.30-6.56ZM27.04-6.56C27.76-6.56 28.35-7.14 28.35-7.88C28.35-8.60 27.76-9.19 27.04-9.19C26.31-9.19 25.72-8.60 25.72-7.88C25.72-7.14 26.31-6.56 27.04-6.56Z" fill="currentColor"/>
</svg>