<svg xmlns="http://www.w3.org/2000/svg" viewBox="0 0 24 24" width="24" height="24">
  
  <path transform="matrix(0.6356300434512725, 0, 0, 0.6356300434512725, 3.6163873370577284, 17.366852886405958)" d="M3.29-21.74C3.29-21.19 3.68-20.84 4.21-20.84C4.49-20.84 4.77-20.99 5.00-21.27C5.58-21.97 6.19-22.27 7.29-22.30L9.49-19.61C9-19.57 8.64-19.55 8.44-19.52C6.16-19.29 4.65-17.67 4.13-15.40C3.66-13.41 3.34-10.59 3.34-7.83L3.34-0.27C3.34 1.90 4.68 3.35 6.71 3.39L4.99 6.14C4.66 6.67 4.95 7.29 5.58 7.29L6.30 7.29C6.68 7.29 6.89 7.16 7.09 6.84L9.25 3.39L17.14 3.39L19.30 6.84C19.50 7.16 19.71 7.29 20.07 7.29L20.75 7.29C21.39 7.29 21.69 6.66 21.35 6.11L19.66 3.39C21.70 3.35 23.04 1.90 23.04-0.27L23.04-7.78C23.04-10.57 22.72-13.42 22.24-15.40C21.73-17.67 20.21-19.29 17.94-19.52C17.74-19.55 17.38-19.57 16.88-19.61L19.09-22.30C20.18-22.27 20.80-21.97 21.38-21.27C21.61-20.99 21.89-20.84 22.17-20.84C22.69-20.84 23.09-21.19 23.09-21.74C23.09-22.13 22.83-22.52 22.48-22.85C21.46-23.85 20.27-24.18 18.82-24.18L7.55-24.18C6.09-24.18 4.91-23.85 3.90-22.85C3.55-22.52 3.29-22.13 3.29-21.74ZM13.18-19.73C12.73-19.73 12.28-19.73 11.86-19.72L9.75-22.30L16.63-22.30L14.52-19.72C14.10-19.73 13.65-19.73 13.18-19.73ZM10.34-15.88C9.88-15.88 9.55-16.20 9.55-16.66C9.55-17.13 9.88-17.45 10.34-17.45L16.04-17.45C16.50-17.45 16.83-17.13 16.83-16.66C16.83-16.20 16.50-15.88 16.04-15.88ZM13.18-4.51C10.55-4.52 8.21-4.63 7.02-4.78C6.30-4.88 6-5.33 6-6L6-8.10C6-10.31 6.23-12.04 6.40-12.76C6.50-13.29 6.84-13.68 7.39-13.75C8.63-13.89 10.27-13.98 13.18-13.99C16.11-14.00 17.75-13.89 18.98-13.75C19.54-13.68 19.88-13.29 19.98-12.76C20.14-12.04 20.38-10.31 20.38-8.10L20.38-6C20.38-5.32 20.07-4.86 19.36-4.78C17.66-4.61 15.34-4.50 13.18-4.51ZM18.36 0.55C17.46 0.55 16.77-0.14 16.77-1.04C16.77-1.95 17.46-2.63 18.36-2.63C19.27-2.63 19.95-1.95 19.95-1.04C19.95-0.14 19.25 0.55 18.36 0.55ZM7.98 0.54C7.08 0.54 6.42-0.13 6.42-1.04C6.42-1.96 7.08-2.63 7.98-2.63C8.91-2.63 9.57-1.96 9.57-1.04C9.57-0.13 8.88 0.54 7.98 0.54Z" fill="currentColor"/>
</svg>