<svg xmlns="http://www.w3.org/2000/svg" viewBox="0 0 24 24" width="24" height="24">
  
  <path transform="matrix(0.6418453052526012, 0, 0, 0.6418453052526012, 1.9435878149680337, 19.78112072207597)" d="M15.67-25.08C16.39-25.08 16.98-25.66 16.98-26.39C16.98-27.12 16.39-27.70 15.67-27.70C14.94-27.70 14.36-27.12 14.36-26.39C14.36-25.66 14.94-25.08 15.67-25.08ZM7.20-22.14C7.92-22.14 8.51-22.72 8.51-23.45C8.51-24.18 7.92-24.76 7.20-24.76C6.47-24.76 5.88-24.18 5.88-23.45C5.88-22.72 6.47-22.14 7.20-22.14ZM24.14-22.14C24.87-22.14 25.45-22.72 25.45-23.45C25.45-24.18 24.87-24.76 24.14-24.76C23.41-24.76 22.83-24.18 22.83-23.45C22.83-22.72 23.41-22.14 24.14-22.14ZM15.67-22.66C11.50-22.66 8.18-19.63 8.18-15.73C8.18-11.53 10.65-10.36 11.31-3.25C11.36-2.71 11.67-2.37 12.23-2.37L19.10-2.37C19.65-2.37 19.97-2.71 20.03-3.25C20.68-10.36 23.17-11.53 23.17-15.73C23.17-19.63 19.84-22.66 15.67-22.66ZM15.67-20.65C18.64-20.65 21.16-18.60 21.16-15.73C21.16-12.74 19.16-12.01 18.19-4.38L13.15-4.38C12.18-12.01 10.18-12.74 10.18-15.73C10.18-18.60 12.69-20.65 15.67-20.65ZM4.30-13.68C5.03-13.68 5.61-14.26 5.61-14.99C5.61-15.73 5.03-16.30 4.30-16.30C3.57-16.30 2.99-15.73 2.99-14.99C2.99-14.26 3.57-13.68 4.30-13.68ZM27.04-13.68C27.76-13.68 28.35-14.26 28.35-14.99C28.35-15.73 27.76-16.30 27.04-16.30C26.31-16.30 25.72-15.73 25.72-14.99C25.72-14.26 26.31-13.68 27.04-13.68ZM12.15 0.18L19.18 0.18C19.61 0.18 19.93-0.15 19.93-0.56C19.93-0.97 19.61-1.30 19.18-1.30L12.15-1.30C11.73-1.30 11.41-0.97 11.41-0.56C11.41-0.15 11.73 0.18 12.15 0.18ZM15.67 3.46C17.44 3.46 18.88 2.57 18.96 1.25L12.38 1.25C12.45 2.57 13.90 3.46 15.67 3.46Z" fill="currentColor"/>
</svg>