<svg xmlns="http://www.w3.org/2000/svg" viewBox="0 0 24 24" width="24" height="24">
  
  <path transform="matrix(0.8260729267505647, 0, 0, 0.8260729267505647, 0.2671829622458859, 18.994191674733784)" d="M12.22 3.48C12.70 3.55 13.17 3.61 13.66 3.62L13.66-20.55C13.17-20.53 12.70-20.48 12.22-20.40ZM14.74 3.62C15.23 3.61 15.71 3.55 16.18 3.48L16.18-20.39C15.71-20.48 15.23-20.53 14.74-20.55ZM9.69 2.75C10.15 2.94 10.64 3.11 11.12 3.25L11.12-20.17C10.64-20.04 10.15-19.88 9.69-19.69ZM17.29 3.25C17.77 3.11 18.26 2.94 18.71 2.75L18.71-19.68C18.26-19.88 17.77-20.03 17.29-20.16ZM7.16 1.35C7.62 1.68 8.10 1.98 8.60 2.24L8.60-19.17C8.10-18.91 7.62-18.61 7.16-18.28ZM19.80 2.24C20.31 1.98 20.79 1.68 21.25 1.35L21.25-18.27C20.79-18.60 20.31-18.90 19.80-19.16ZM4.63-1.10C5.06-0.54 5.54-0.02 6.06 0.45L6.06-17.38C5.54-16.91 5.06-16.38 4.63-15.82ZM22.35 0.45C22.86-0.02 23.34-0.54 23.78-1.10L23.78-15.82C23.34-16.37 22.86-16.90 22.35-17.37ZM2.10-8.46C2.10-6.45 2.61-4.52 3.54-2.86L3.54-14.06C2.61-12.40 2.10-10.49 2.10-8.46ZM26.31-8.46C26.31-10.49 25.79-12.39 24.87-14.05L24.87-2.86C25.79-4.52 26.31-6.45 26.31-8.46Z" fill="currentColor"/>
</svg>