<svg xmlns="http://www.w3.org/2000/svg" viewBox="0 0 24 24" width="24" height="24">
  
  <path transform="matrix(0.6687565308254964, 0, 0, 0.6687565308254964, 0.5971786833855799, 18.37539184952978)" d="M25.50 0.87C29.13 0.87 32.00-1.82 32.00-5.16C32.00-7.64 30.59-9.84 28.27-10.82C28.28-16.11 24.47-19.93 19.56-19.93C16.43-19.93 14.11-18.32 12.63-16.20C9.67-16.99 6.54-14.78 6.43-11.47C3.75-11.00 2.10-8.60 2.10-5.67C2.10-2.11 5.21 0.86 9.30 0.86ZM22.36-14.20C23.65-12.91 23.66-11.05 22.36-9.75L20.45-7.83C20.71-8.51 20.68-9.16 20.50-9.71L21.40-10.61C22.18-11.38 22.18-12.47 21.40-13.25C20.61-14.02 19.55-14.04 18.76-13.24L16.48-10.97C15.69-10.17 15.68-9.08 16.48-8.33C16.84-7.98 17.25-7.79 17.67-7.79C17.55-7.63 17.51-7.56 17.32-7.34L16.64-6.67C16.32-6.77 15.90-7.01 15.53-7.37C14.19-8.65 14.20-10.54 15.52-11.84L17.89-14.21C19.20-15.52 21.06-15.52 22.36-14.20ZM12.27-4.13C10.96-5.43 10.97-7.29 12.27-8.59L14.18-10.50C13.92-9.81 13.95-9.16 14.12-8.63L13.23-7.72C12.45-6.94 12.43-5.86 13.23-5.07C14.00-4.31 15.08-4.30 15.87-5.09L18.14-7.36C18.94-8.16 18.95-9.26 18.15-10.00C17.75-10.37 17.34-10.55 16.89-10.49C17.05-10.70 17.19-10.86 17.30-10.99L17.99-11.66C18.32-11.57 18.73-11.33 19.11-10.96C20.45-9.68 20.41-7.79 19.11-6.49L16.73-4.13C15.42-2.82 13.57-2.82 12.27-4.13Z" fill="currentColor"/>
</svg>