<svg xmlns="http://www.w3.org/2000/svg" viewBox="0 0 24 24" width="24" height="24">
  
  <path transform="matrix(0.8276753960556095, 0, 0, 0.8276753960556095, -0.47332686711930183, 19.153249272550923)" d="M5.61-13.17C6.08-13.17 6.41-13.44 6.41-14.00L6.41-17.81C6.41-18.34 6.04-18.67 5.51-18.67C5.07-18.67 4.80-18.53 4.49-18.32L3.66-17.74C3.40-17.58 3.28-17.41 3.28-17.16C3.28-16.83 3.53-16.61 3.81-16.62C3.96-16.62 4.04-16.64 4.24-16.77L4.77-17.13L4.79-17.13L4.79-14.00C4.79-13.44 5.12-13.17 5.61-13.17ZM10.93-14.53L26.04-14.53C26.66-14.53 27.15-15.04 27.15-15.64C27.15-16.27 26.66-16.76 26.04-16.76L10.93-16.76C10.31-16.76 9.83-16.27 9.83-15.64C9.83-15.04 10.31-14.53 10.93-14.53ZM3.69-6L6.76-6C7.10-6 7.37-6.23 7.37-6.60C7.37-6.96 7.11-7.20 6.76-7.20L5.11-7.20L5.11-7.23L6.06-7.99C6.87-8.64 7.21-9.02 7.21-9.74C7.21-10.70 6.39-11.34 5.07-11.34C3.93-11.34 3.09-10.76 3.09-10.00C3.09-9.60 3.35-9.39 3.77-9.39C4.04-9.39 4.23-9.48 4.41-9.74C4.58-10.02 4.79-10.16 5.11-10.16C5.44-10.16 5.67-9.94 5.67-9.62C5.67-9.35 5.52-9.12 4.91-8.63L3.36-7.36C3.12-7.16 3.02-6.94 3.02-6.67C3.02-6.27 3.28-6 3.69-6ZM10.93-7.34L26.04-7.34C26.66-7.34 27.15-7.84 27.15-8.45C27.15-9.07 26.66-9.56 26.04-9.56L10.93-9.56C10.31-9.56 9.83-9.07 9.83-8.45C9.83-7.84 10.31-7.34 10.93-7.34ZM5.11 1.38C6.55 1.38 7.39 0.75 7.39-0.26C7.39-0.91 6.94-1.37 6.11-1.44L6.11-1.48C6.70-1.58 7.18-1.99 7.18-2.68C7.18-3.61 6.28-4.10 5.10-4.10C4.16-4.10 3.12-3.67 3.12-2.87C3.12-2.52 3.36-2.29 3.75-2.29C4.02-2.29 4.14-2.38 4.31-2.55C4.59-2.85 4.82-2.93 5.09-2.93C5.44-2.93 5.71-2.77 5.71-2.43C5.71-2.11 5.44-1.95 4.98-1.95L4.83-1.95C4.50-1.95 4.28-1.77 4.28-1.42C4.28-1.08 4.49-0.89 4.83-0.89L4.99-0.89C5.50-0.89 5.77-0.71 5.77-0.36C5.77-0.05 5.48 0.16 5.11 0.16C4.69 0.16 4.39-0.08 4.17-0.28C4.03-0.41 3.90-0.50 3.68-0.50C3.27-0.50 2.99-0.27 2.99 0.12C2.99 0.94 4.11 1.38 5.11 1.38ZM10.93-0.14L26.04-0.14C26.66-0.14 27.15-0.64 27.15-1.25C27.15-1.88 26.66-2.37 26.04-2.37L10.93-2.37C10.31-2.37 9.83-1.88 9.83-1.25C9.83-0.64 10.31-0.14 10.93-0.14Z" fill="currentColor"/>
</svg>