<svg xmlns="http://www.w3.org/2000/svg" viewBox="0 0 24 24" width="24" height="24">
  <title>list.bullet.circle</title>
  <path transform="matrix(0.8260729267505647, 0, 0, 0.8260729267505647, 0.2671829622458859, 18.989351403678604)" d="M14.20 3.64C20.88 3.64 26.31-1.78 26.31-8.46C26.31-15.14 20.88-20.57 14.20-20.57C7.52-20.57 2.10-15.14 2.10-8.46C2.10-1.78 7.52 3.64 14.20 3.64ZM14.20 1.25C8.82 1.25 4.48-3.08 4.48-8.46C4.48-13.84 8.82-18.19 14.20-18.19C19.58-18.19 23.93-13.84 23.93-8.46C23.93-3.08 19.58 1.25 14.20 1.25ZM8.73-11.19C9.29-11.19 9.76-11.66 9.76-12.22C9.76-12.80 9.30-13.25 8.73-13.25C8.16-13.25 7.70-12.80 7.70-12.22C7.70-11.65 8.16-11.19 8.73-11.19ZM11.55-11.47L19.92-11.47C20.34-11.47 20.67-11.80 20.67-12.22C20.67-12.64 20.34-12.97 19.92-12.97L11.55-12.97C11.13-12.97 10.80-12.64 10.80-12.22C10.80-11.81 11.14-11.47 11.55-11.47ZM8.73-7.42C9.29-7.42 9.76-7.90 9.76-8.46C9.76-9.02 9.29-9.49 8.73-9.49C8.16-9.49 7.70-9.02 7.70-8.46C7.70-7.89 8.16-7.42 8.73-7.42ZM11.55-7.71L19.92-7.71C20.34-7.71 20.67-8.03 20.67-8.46C20.67-8.88 20.34-9.20 19.92-9.20L11.55-9.20C11.14-9.20 10.80-8.87 10.80-8.46C10.80-8.04 11.14-7.71 11.55-7.71ZM8.73-3.66C9.30-3.66 9.76-4.11 9.76-4.69C9.76-5.25 9.29-5.72 8.73-5.72C8.16-5.72 7.70-5.26 7.70-4.69C7.70-4.11 8.16-3.66 8.73-3.66ZM11.55-3.94L19.92-3.94C20.34-3.94 20.67-4.27 20.67-4.69C20.67-5.11 20.34-5.44 19.92-5.44L11.55-5.44C11.14-5.44 10.80-5.10 10.80-4.69C10.80-4.27 11.13-3.94 11.55-3.94Z" fill="currentColor"/>
</svg>