<svg xmlns="http://www.w3.org/2000/svg" viewBox="0 0 24 24" width="24" height="24">
  
  <path transform="matrix(0.6093319812785151, 0, 0, 0.6093319812785151, 0.178298420463179, 16.994138074054035)" d="M7.39-3L5.88-0.64L3.77-0.69C2.65-0.73 2.80 0.89 3.81 0.79C4.42 0.74 4.78 1.30 4.41 1.71C3.71 2.46 5.11 3.59 5.66 2.58C5.95 2.06 6.61 2.13 6.74 2.68C7.03 3.97 8.57 3.41 8.21 2.43L7.41 0.21L8.68-1.01L10.52 0.26C12.64 4.56 17.27 7.28 23.14 7.28C31.99 7.28 35.81-0.66 35.81-5.10C35.81-6.67 33.89-6.71 33.71-5.26C33.13-0.49 29.00 2.64 24.84 2.64C22.27 2.64 20.07 1.59 18.71-0.11L19.86-1.99L21.52-1.39L21.69 0.95C21.77 1.96 23.41 1.83 23.14 0.59C23.03 0.02 23.61-0.30 24.08 0.06C24.96 0.71 25.77-0.87 24.86-1.25C24.34-1.48 24.40-2.30 25.00-2.33C26.02-2.37 25.45-4.20 24.43-3.70L22.56-2.82L20.20-4.34C19.52-4.77 18.67-4.66 18.18-4.00L17.38-2.91C17.27-3.40 17.21-3.90 17.21-4.43C17.21-6.19 17.80-8.00 18.73-9.49L18.73-8.74C18.73-7.92 19.37-7.34 20.18-7.29L22.97-7.14L23.98-5.33C24.52-4.34 25.95-5.34 25.23-6.12C24.82-6.55 25.21-7.18 25.75-7.07C26.73-6.86 26.98-8.59 25.88-8.58C25.29-8.58 25.01-9.18 25.43-9.56C26.38-10.43 25.13-11.47 24.47-10.70L22.96-8.89L21.26-9.40L21.48-12.25C22.14-12.61 22.84-12.81 23.54-12.81C24.35-12.81 24.80-11.37 26.68-11.37C28.90-11.37 34.18-15.15 33.74-17.82C33.40-19.83 30.84-21.13 26.34-21.13C23.82-21.13 22.63-19.85 22.55-18.39C22.51-17.73 22.18-17.52 21.56-17.52C20.53-17.52 19.54-17.40 18.57-17.17L16.52-18.14L16.95-19.88L19.28-20.29C20.25-20.46 19.98-22.08 18.76-21.69C18.22-21.53 17.84-22.07 18.13-22.55C18.69-23.50 17.09-24.15 16.77-23.21C16.59-22.68 16.00-22.59 15.73-23.17C15.25-24.18 13.78-23.51 14.37-22.54L15.43-20.77L14.17-18.27C13.80-17.54 13.99-16.70 14.70-16.29L15.36-15.90C11.70-13.82 9.25-9.93 9.25-5.40C9.25-4.76 9.29-4.14 9.38-3.53C8.66-3.94 7.84-3.69 7.39-3ZM23.03 5.30C15.82 5.30 11.23 1.05 11.23-5.40C11.23-11.25 15.63-15.57 21.61-15.57C23.18-15.57 24.40-16.54 24.48-18.08C24.53-18.64 24.88-19.17 26.34-19.17C29.73-19.17 31.59-18.59 31.78-17.73C32.12-16.16 28.20-13.35 26.68-13.35C25.44-13.35 25.24-14.67 23.55-14.67C18.71-14.67 15.25-9.32 15.25-4.43C15.25 0.49 19.27 4.37 24.38 4.56C26.12 4.56 27.77 3.89 28.98 2.78C27.68 4.10 25.73 5.30 23.03 5.30Z" fill="currentColor"/>
</svg>