<svg xmlns="http://www.w3.org/2000/svg" viewBox="0 0 24 24" width="24" height="24">
  
  <path transform="matrix(0.6756400105568752, 0, 0, 0.6756400105568752, -0.019002375296912177, 17.71654790182106)" d="M2.99-15.26L5.29-15.26L5.29-16.62C5.29-17.75 5.88-18.32 6.97-18.32L8.32-18.32L8.32-20.61L6.83-20.61C4.30-20.61 2.99-19.31 2.99-16.80ZM12.75 3.69L28.75 3.69C31.28 3.69 32.59 2.39 32.59-0.11L32.59-11.24C32.59-13.75 31.28-15.05 28.75-15.05L26.66-15.05L26.66-16.80C26.66-19.31 25.35-20.61 22.82-20.61L21.33-20.61L21.33-18.32L22.68-18.32C23.77-18.32 24.36-17.75 24.36-16.62L24.36-15.05L12.75-15.05C10.22-15.05 8.91-13.75 8.91-11.24L8.91-4.17L6.97-4.17C5.88-4.17 5.29-4.73 5.29-5.87L5.29-7.24L2.99-7.24L2.99-5.67C2.99-3.18 4.30-1.88 6.83-1.88L8.91-1.88L8.91-0.11C8.91 2.40 10.22 3.69 12.75 3.69ZM15.59-18.32L19.79-18.32L19.79-20.61L15.59-20.61ZM9.84-18.32L14.05-18.32L14.05-20.61L9.84-20.61ZM2.99-8.77L5.29-8.77L5.29-13.73L2.99-13.73ZM12.89 1.41C11.80 1.41 11.20 0.83 11.20-0.30L11.20-11.04C11.20-12.18 11.80-12.75 12.89-12.75L28.61-12.75C29.68-12.75 30.29-12.18 30.29-11.04L30.29-0.30C30.29 0.83 29.68 1.41 28.61 1.41ZM18.29-0.19L23.24-0.19C24.14-0.19 24.61-0.67 24.61-1.64L24.61-5.46C24.61-6.27 24.28-6.74 23.66-6.87L23.66-8.03C23.66-9.94 22.52-11.14 20.77-11.14C19.02-11.14 17.87-9.94 17.87-8.03L17.87-6.87C17.24-6.73 16.92-6.27 16.92-5.46L16.92-1.64C16.92-0.67 17.39-0.19 18.29-0.19ZM19.14-8.18C19.14-9.22 19.77-9.90 20.77-9.90C21.75-9.90 22.41-9.22 22.41-8.18L22.41-6.90L19.14-6.90Z" fill="currentColor"/>
</svg>