<svg xmlns="http://www.w3.org/2000/svg" viewBox="0 0 24 24" width="24" height="24">
  
  <path transform="matrix(0.7032001098750171, 0, 0, 0.7032001098750171, -0.10135970333745359, 17.698393077873916)" d="M5.91-0.25L13.38-0.25L13.38 1.88L13.34 1.88C12.75 1.88 12.27 2.36 12.27 2.94C12.27 3.52 12.75 4.00 13.34 4.00L21.08 4.00C21.67 4.00 22.15 3.52 22.15 2.94C22.15 2.36 21.67 1.88 21.08 1.88L21.04 1.88L21.04-0.25L28.50-0.25C30.33-0.25 31.43-1.34 31.43-3.16L31.43-17.29C31.43-19.11 30.33-20.20 28.50-20.20L5.91-20.20C4.09-20.20 2.99-19.11 2.99-17.29L2.99-3.16C2.99-1.34 4.09-0.25 5.91-0.25ZM5.73-5.66C5.39-5.66 5.24-5.79 5.24-6.15L5.24-17.16C5.24-17.65 5.54-17.96 6.05-17.96L28.37-17.96C28.88-17.96 29.18-17.65 29.18-17.16L29.18-6.15C29.18-5.79 29.03-5.66 28.69-5.66ZM13.04-8.73C13.04-8.05 13.37-7.71 14.02-7.71L18.04-7.71C18.68-7.71 19.00-8.05 19.00-8.73L19.00-11.80C19.00-12.40 18.75-12.73 18.25-12.80L18.25-13.75C18.25-14.59 18.69-15.13 19.46-15.13C20.24-15.13 20.68-14.59 20.68-13.75L20.68-13.00C20.68-12.66 20.95-12.38 21.30-12.38C21.63-12.38 21.91-12.66 21.91-13.00L21.91-13.75C21.91-15.25 20.95-16.32 19.46-16.32C17.98-16.32 17.02-15.25 17.02-13.66L17.02-12.82L14.02-12.82C13.37-12.82 13.04-12.48 13.04-11.80Z" fill="currentColor"/>
</svg>