<svg xmlns="http://www.w3.org/2000/svg" viewBox="0 0 24 24" width="24" height="24">
  <title>lock.document.fill</title>
  <path transform="matrix(0.7882986913010007, 0, 0, 0.7882986913010007, 1.7228637413394927, 18.665127020785217)" d="M6.80 4.23L19.28 4.23C21.79 4.23 23.09 2.91 23.09 0.39L23.09-10.10L14.32-10.10C12.86-10.10 12.15-10.82 12.15-12.28L12.15-21.14L6.80-21.14C4.29-21.14 2.99-19.82 2.99-17.30L2.99 0.39C2.99 2.92 4.29 4.23 6.80 4.23ZM14.53-11.81L22.96-11.81C22.89-12.34 22.50-12.84 21.90-13.46L15.49-19.97C14.92-20.55 14.39-20.95 13.85-21.02L13.85-12.48C13.85-12.04 14.09-11.81 14.53-11.81ZM10.56 1.63C9.87 1.63 9.53 1.29 9.53 0.53L9.53-3.28C9.53-3.96 9.81-4.31 10.36-4.36L10.36-5.47C10.36-7.28 11.45-8.48 13.04-8.48C14.65-8.48 15.74-7.28 15.74-5.47L15.74-4.36C16.29-4.31 16.57-3.96 16.57-3.28L16.57 0.53C16.57 1.29 16.23 1.63 15.54 1.63ZM11.51-4.38L14.58-4.38L14.58-5.57C14.58-6.66 13.97-7.37 13.04-7.37C12.12-7.37 11.51-6.66 11.51-5.57Z" fill="currentColor"/>
</svg>