<svg xmlns="http://www.w3.org/2000/svg" viewBox="0 0 24 24" width="24" height="24">
  <title>lock.rotation</title>
  <path transform="matrix(0.7568562218429568, 0, 0, 0.7568562218429568, 0.41237581589973527, 18.403713189499392)" d="M2.10-8.46C2.10-1.78 7.52 3.64 14.20 3.64C18.06 3.64 21.50 1.82 23.73-1.08C24.25-1.70 24.13-2.48 23.59-2.86C23.02-3.27 22.35-3.09 21.87-2.55C20.11-0.23 17.36 1.25 14.20 1.25C8.82 1.25 4.48-3.08 4.48-8.46C4.48-13.84 8.82-18.19 14.20-18.19C18.76-18.19 22.58-15.06 23.64-10.82L22.11-10.82C21.26-10.82 21.04-10.16 21.50-9.52L24.22-5.72C24.59-5.20 25.17-5.19 25.56-5.72L28.28-9.50C28.76-10.16 28.52-10.82 27.66-10.82L26.07-10.82C24.97-16.38 20.07-20.57 14.20-20.57C7.52-20.57 2.10-15.14 2.10-8.46ZM10.01-3.90C10.01-3.01 10.39-2.60 11.23-2.60L17.19-2.60C18.01-2.60 18.41-3.01 18.41-3.90L18.41-8.48C18.41-9.28 18.08-9.69 17.41-9.75L17.41-11.09C17.41-13.24 16.13-14.68 14.20-14.68C12.29-14.68 10.99-13.24 10.99-11.09L10.99-9.76C10.34-9.69 10.01-9.28 10.01-8.48ZM12.36-9.79L12.36-11.20C12.36-12.49 13.10-13.35 14.20-13.35C15.32-13.35 16.04-12.50 16.04-11.20L16.04-9.79Z" fill="currentColor"/>
</svg>