<svg xmlns="http://www.w3.org/2000/svg" viewBox="0 0 24 24" width="24" height="24">
  <title>lock.fill</title>
  <path transform="matrix(0.856760374832664, 0, 0, 0.856760374832664, 2.1556224899598395, 19.51004016064257)" d="M6 2.91L16.98 2.91C18.76 2.91 19.69 1.96 19.69 0.04L19.69-8.27C19.69-9.96 18.96-10.90 17.55-11.09L17.55-13.88C17.55-18.20 14.70-20.44 11.50-20.44C8.30-20.44 5.44-18.20 5.44-13.88L5.44-11.10C4.03-10.91 3.29-9.96 3.29-8.27L3.29 0.04C3.29 1.96 4.22 2.91 6 2.91ZM7.63-14.09C7.63-16.84 9.40-18.34 11.50-18.34C13.58-18.34 15.36-16.84 15.36-14.09L15.36-11.13L7.63-11.13Z" fill="currentColor"/>
</svg>