<svg xmlns="http://www.w3.org/2000/svg" viewBox="0 0 24 24" width="24" height="24">
  <title>lock.circle.fill</title>
  <path transform="matrix(0.8260729267505647, 0, 0, 0.8260729267505647, 0.2671829622458859, 18.97967086156825)" d="M14.20 3.66C20.88 3.66 26.31-1.77 26.31-8.45C26.31-15.13 20.88-20.55 14.20-20.55C7.52-20.55 2.10-15.13 2.10-8.45C2.10-1.77 7.52 3.66 14.20 3.66ZM9.84-3.70L9.84-8.44C9.84-9.28 10.18-9.70 10.86-9.77L10.86-11.14C10.86-13.38 12.21-14.88 14.20-14.88C16.20-14.88 17.54-13.38 17.54-11.14L17.54-9.77C18.22-9.70 18.56-9.28 18.56-8.44L18.56-3.70C18.56-2.77 18.15-2.34 17.30-2.34L11.11-2.34C10.25-2.34 9.84-2.77 9.84-3.70ZM12.29-9.80L16.11-9.80L16.11-11.27C16.11-12.61 15.35-13.50 14.20-13.50C13.05-13.50 12.29-12.61 12.29-11.27Z" fill="currentColor"/>
</svg>