<svg xmlns="http://www.w3.org/2000/svg" viewBox="0 0 24 24" width="24" height="24">
  
  <path transform="matrix(0.7324749642346209, 0, 0, 0.7324749642346209, -0.18884120171673802, 18.193133047210303)" d="M12.86-18.86C6-18.86 2.99-15.76 2.99-9.20L2.99-1.80C2.99 0.66 4.29 1.95 6.77 1.95L26.52 1.95C28.99 1.95 30.29 0.66 30.29-1.80L30.29-9.20C30.29-15.76 27.28-18.86 20.43-18.86ZM12.53-3.75C11.95-3.75 11.63-4.11 11.63-4.70L11.63-12.38C11.63-12.88 12.04-13.29 12.55-13.29C13.04-13.29 13.44-12.88 13.44-12.38L13.44-5.27L15.77-5.27C16.18-5.27 16.52-4.92 16.52-4.51C16.52-4.09 16.18-3.75 15.77-3.75ZM19.30-3.61C18.79-3.61 18.38-4.02 18.38-4.54L18.38-11.64L17.04-11.64C16.62-11.64 16.29-11.96 16.29-12.40C16.29-12.81 16.62-13.15 17.04-13.15L21.50-13.15C21.91-13.15 22.24-12.81 22.24-12.40C22.24-11.96 21.91-11.64 21.50-11.64L20.20-11.64L20.20-4.54C20.20-4.02 19.79-3.61 19.30-3.61Z" fill="currentColor"/>
</svg>