<svg xmlns="http://www.w3.org/2000/svg" viewBox="0 0 24 24" width="24" height="24">
  
  <path transform="matrix(0.7179918664983873, 0, 0, 0.7179918664983873, -0.14556163230963381, 18.074884307951198)" d="M12.26 2.25L21.57 2.25C28.43 2.25 30.84-0.25 30.84-6.70L30.84-10.21C30.84-16.68 28.43-19.17 21.57-19.17L12.26-19.17C5.40-19.17 2.99-16.68 2.99-10.21L2.99-6.70C2.99-0.25 5.40 2.25 12.26 2.25ZM12.26-0.05C6.98-0.05 5.29-1.73 5.29-6.70L5.29-10.21C5.29-15.19 6.98-16.88 12.26-16.88L21.57-16.88C26.85-16.88 28.55-15.19 28.55-10.21L28.55-6.70C28.55-1.73 26.85-0.05 21.57-0.05ZM23.05-3.63C23.51-3.63 23.89-3.91 23.89-4.52L23.89-5.58L24.25-5.58C24.74-5.58 24.95-5.89 24.95-6.29C24.95-6.70 24.74-7.01 24.26-7.01L23.89-7.01L23.89-11.95C23.89-12.80 23.33-13.27 22.52-13.27C21.59-13.27 21.20-12.73 20.86-11.93L18.97-7.75C18.79-7.29 18.70-6.95 18.70-6.57C18.70-5.96 19.10-5.58 19.72-5.58L22.18-5.58L22.18-4.52C22.18-3.88 22.64-3.63 23.05-3.63ZM10.03-3.62C10.52-3.62 10.83-3.95 10.83-4.48L10.83-10.50L10.90-10.50L12.38-4.61C12.48-4.14 12.77-3.80 13.27-3.80C13.76-3.80 14.03-4.11 14.14-4.62L15.61-10.50L15.68-10.50L15.68-4.48C15.68-3.95 15.96-3.62 16.48-3.62C16.99-3.62 17.27-3.95 17.27-4.48L17.27-12.01C17.27-12.82 16.79-13.27 16.01-13.27C15.29-13.27 14.89-12.93 14.73-12.23L13.28-6.20L13.23-6.20L11.75-12.23C11.59-12.95 11.17-13.27 10.50-13.27C9.71-13.27 9.22-12.80 9.22-12.01L9.22-4.48C9.22-3.95 9.53-3.62 10.03-3.62ZM22.23-6.96L20.21-6.96L20.21-7.04L22.18-11.75L22.23-11.75Z" fill="currentColor"/>
</svg>