<svg xmlns="http://www.w3.org/2000/svg" viewBox="0 0 24 24" width="24" height="24">
  <title>macmini</title>
  <path transform="matrix(0.6392009987515606, 0, 0, 0.6392009987515606, 0.0898876404494382, 17.408239700374533)" d="M6.81-1.84L30.46-1.84C32.98-1.84 34.28-3.14 34.28-5.63L34.28-11.31C34.28-13.79 32.98-15.08 30.46-15.08L6.81-15.08C4.28-15.08 2.99-13.79 2.99-11.31L2.99-5.63C2.99-3.14 4.28-1.84 6.81-1.84ZM6.94-4.14C5.86-4.14 5.29-4.70 5.29-5.81L5.29-11.11C5.29-12.22 5.86-12.80 6.94-12.80L30.32-12.80C31.41-12.80 31.98-12.22 31.98-11.11L31.98-5.81C31.98-4.70 31.41-4.14 30.32-4.14ZM9.38-8.72C9.38-9.12 9.06-9.45 8.65-9.45C8.25-9.45 7.93-9.12 7.93-8.72L7.93-7.07C7.93-6.67 8.25-6.35 8.65-6.35C9.06-6.35 9.38-6.67 9.38-7.07ZM12.60-8.72C12.60-9.12 12.28-9.45 11.88-9.45C11.47-9.45 11.16-9.12 11.16-8.72L11.16-7.07C11.16-6.67 11.47-6.35 11.88-6.35C12.28-6.35 12.60-6.67 12.60-7.07ZM28.10-6.67C28.78-6.67 29.33-7.22 29.33-7.90C29.33-8.58 28.78-9.13 28.10-9.13C27.42-9.13 26.87-8.58 26.87-7.90C26.87-7.22 27.42-6.67 28.10-6.67ZM24.55-6.98C25.05-6.98 25.46-7.39 25.46-7.90C25.46-8.40 25.05-8.82 24.55-8.82C24.04-8.82 23.63-8.40 23.63-7.90C23.63-7.39 24.04-6.98 24.55-6.98Z" fill="currentColor"/>
</svg>