<svg xmlns="http://www.w3.org/2000/svg" viewBox="0 0 24 24" width="24" height="24">
  
  <path transform="matrix(0.9141224781289056, 0, 0, 0.9141224781289056, -0.7316550615961437, 19.728976968398502)" d="M6.83 2.48L21.02 2.48C23.55 2.48 24.87 1.18 24.87-1.32L24.87-15.59C24.87-18.08 23.55-19.39 21.02-19.39L6.83-19.39C4.30-19.39 2.99-18.09 2.99-15.59L2.99-1.32C2.99 1.18 4.30 2.48 6.83 2.48ZM14.12-3.61C13.70-3.61 13.43-3.89 13.43-4.34L13.43-12.25C13.43-12.91 13.85-13.32 14.53-13.32C15.08-13.32 15.48-13.01 15.63-12.43L17.46-5.82L17.54-5.82L19.35-12.42C19.50-13.00 19.90-13.32 20.46-13.32C21.14-13.32 21.55-12.93 21.55-12.25L21.55-4.34C21.55-3.89 21.28-3.61 20.86-3.61C20.43-3.61 20.16-3.89 20.16-4.34L20.16-10.88L20.09-10.88L18.30-4.50C18.18-4.05 17.94-3.77 17.50-3.77C17.04-3.77 16.78-4.09 16.69-4.48L14.89-10.88L14.82-10.88L14.82-4.34C14.82-3.89 14.55-3.61 14.12-3.61ZM7.16-3.61C6.66-3.61 6.38-3.93 6.38-4.42L6.38-12.39C6.38-12.88 6.67-13.18 7.15-13.18L9.23-13.18C11.09-13.18 12.19-12.14 12.19-10.31C12.19-9.06 11.64-8.18 10.75-7.73L11.98-4.93C12.09-4.68 12.14-4.54 12.14-4.34C12.15-3.93 11.86-3.61 11.38-3.61C10.99-3.61 10.76-3.83 10.59-4.22L9.25-7.42L7.93-7.42L7.93-4.42C7.93-3.93 7.64-3.61 7.16-3.61ZM7.93-8.60L9.09-8.60C10.11-8.60 10.62-9.29 10.62-10.28C10.62-11.29 10.08-11.93 9.08-11.93L7.93-11.93Z" fill="currentColor"/>
</svg>