<svg xmlns="http://www.w3.org/2000/svg" viewBox="0 0 24 24" width="24" height="24">
  
  <path transform="matrix(0.7606837437525876, 0, 0, 0.7606837437525876, 0.39431467110406504, 18.43164048184561)" d="M11.84-16.45C12.59-16.78 13.38-17.00 14.23-17.11C14.50-17.13 14.68-17.33 14.68-17.60L14.68-21.07C14.68-21.40 14.44-21.63 14.12-21.60C12.54-21.47 11.05-21.04 9.68-20.39C9.39-20.26 9.29-19.92 9.46-19.65L11.18-16.68C11.31-16.44 11.58-16.36 11.84-16.45ZM16.29-17.11C17.14-17.02 17.93-16.78 18.68-16.45C18.94-16.36 19.21-16.44 19.34-16.68L21.06-19.65C21.22-19.92 21.12-20.26 20.82-20.39C19.46-21.04 17.98-21.47 16.39-21.60C16.08-21.62 15.83-21.40 15.83-21.07L15.83-17.60C15.83-17.33 16.02-17.13 16.29-17.11ZM8.30-13.68C8.79-14.34 9.36-14.93 10.04-15.42C10.25-15.60 10.31-15.87 10.18-16.10L8.46-19.08C8.30-19.35 7.97-19.43 7.70-19.25C6.45-18.36 5.36-17.27 4.46-16.01C4.29-15.74 4.36-15.41 4.64-15.25L7.63-13.54C7.86-13.39 8.12-13.45 8.30-13.68ZM20.48-15.42C21.14-14.93 21.73-14.36 22.23-13.68C22.39-13.46 22.66-13.39 22.90-13.54L25.88-15.25C26.16-15.41 26.23-15.74 26.06-16.01C25.17-17.27 24.07-18.36 22.83-19.24C22.56-19.43 22.22-19.35 22.05-19.08L20.34-16.10C20.20-15.87 20.26-15.59 20.48-15.42ZM23.26-11.88C23.58-11.13 23.81-10.34 23.91-9.49C23.94-9.22 24.14-9.04 24.41-9.04L27.87-9.04C28.20-9.04 28.42-9.28 28.39-9.60C28.27-11.16 27.84-12.67 27.20-14.03C27.07-14.32 26.73-14.43 26.46-14.25L23.47-12.53C23.24-12.39 23.17-12.13 23.26-11.88ZM6.61-9.49C6.71-10.34 6.93-11.13 7.25-11.87C7.36-12.13 7.28-12.40 7.04-12.53L4.05-14.25C3.77-14.41 3.45-14.32 3.30-14.03C2.67-12.66 2.25-11.17 2.12-9.60C2.10-9.28 2.32-9.04 2.65-9.04L6.12-9.04C6.39-9.04 6.59-9.22 6.61-9.49ZM15.40-4.44C15.75-4.44 15.96-4.68 15.96-5.04L15.96-10.46L16.03-10.46L17.51-5.16C17.60-4.84 17.80-4.58 18.18-4.58C18.55-4.58 18.74-4.82 18.84-5.18L20.33-10.46L20.39-10.46L20.39-5.04C20.39-4.68 20.60-4.44 20.95-4.44C21.30-4.44 21.53-4.68 21.53-5.04L21.53-11.59C21.53-12.15 21.19-12.47 20.64-12.47C20.17-12.47 19.84-12.21 19.72-11.74L18.22-6.26L18.15-6.26L16.63-11.74C16.51-12.21 16.17-12.47 15.73-12.47C15.16-12.47 14.82-12.14 14.82-11.59L14.82-5.04C14.82-4.68 15.05-4.44 15.40-4.44ZM9.64-4.45C10.04-4.45 10.28-4.71 10.28-5.11L10.28-7.61L11.37-7.61L12.48-4.95C12.61-4.63 12.82-4.45 13.14-4.45C13.51-4.45 13.76-4.70 13.76-5.04C13.76-5.20 13.71-5.32 13.62-5.53L12.59-7.86C13.32-8.23 13.79-8.95 13.79-9.98C13.79-11.50 12.88-12.36 11.36-12.36L9.63-12.36C9.25-12.36 8.99-12.11 8.99-11.71L8.99-5.11C8.99-4.71 9.23-4.45 9.64-4.45ZM10.28-8.58L10.28-11.33L11.23-11.33C12.05-11.33 12.52-10.80 12.52-9.96C12.52-9.14 12.09-8.58 11.24-8.58ZM23.91-7.43C23.81-6.57 23.59-5.78 23.26-5.04C23.17-4.78 23.25-4.52 23.48-4.38L26.46-2.67C26.74-2.51 27.07-2.59 27.20-2.89C27.84-4.25 28.27-5.74 28.39-7.32C28.42-7.64 28.18-7.89 27.87-7.89L24.41-7.89C24.14-7.89 23.94-7.70 23.91-7.43ZM7.24-5.04C6.94-5.78 6.71-6.57 6.62-7.43C6.59-7.70 6.39-7.89 6.12-7.89L2.65-7.89C2.32-7.89 2.09-7.64 2.12-7.32C2.25-5.74 2.67-4.24 3.32-2.87C3.46-2.58 3.77-2.48 4.05-2.65L7.04-4.38C7.28-4.51 7.36-4.78 7.24-5.04ZM22.23-3.23C21.74-2.58 21.15-1.99 20.48-1.49C20.26-1.32 20.20-1.04 20.33-0.82L22.05 2.16C22.22 2.44 22.55 2.52 22.82 2.33C24.08 1.44 25.16 0.35 26.05-0.90C26.23-1.17 26.14-1.50 25.88-1.66L22.90-3.39C22.66-3.52 22.39-3.46 22.23-3.23ZM10.04-1.49C9.39-1.98 8.79-2.55 8.30-3.23C8.13-3.45 7.86-3.50 7.62-3.38L4.64-1.66C4.36-1.50 4.29-1.17 4.46-0.90C5.36 0.36 6.45 1.44 7.71 2.33C7.97 2.52 8.31 2.44 8.47 2.17L10.18-0.82C10.31-1.05 10.25-1.32 10.04-1.49ZM18.68-0.45C17.94-0.13 17.14 0.08 16.29 0.19C16.02 0.22 15.83 0.42 15.83 0.69L15.83 4.16C15.83 4.49 16.08 4.72 16.39 4.69C17.96 4.56 19.48 4.13 20.84 3.48C21.13 3.35 21.22 3.01 21.06 2.74L19.34-0.23C19.21-0.47 18.94-0.55 18.68-0.45ZM14.23 0.19C13.38 0.09 12.59-0.13 11.85-0.45C11.59-0.55 11.32-0.47 11.19-0.23L9.47 2.74C9.30 3.01 9.40 3.35 9.69 3.48C11.05 4.13 12.54 4.56 14.11 4.69C14.44 4.71 14.68 4.49 14.68 4.16L14.68 0.69C14.68 0.42 14.50 0.22 14.23 0.19Z" fill="currentColor"/>
</svg>