<svg xmlns="http://www.w3.org/2000/svg" viewBox="0 0 24 24" width="24" height="24">
  
  <path transform="matrix(0.8260729267505647, 0, 0, 0.8260729267505647, 0.2671829622458859, 18.989351403678604)" d="M14.20 3.64C20.88 3.64 26.31-1.78 26.31-8.46C26.31-15.14 20.88-20.57 14.20-20.57C7.52-20.57 2.10-15.14 2.10-8.46C2.10-1.78 7.52 3.64 14.20 3.64ZM14.20 1.25C8.82 1.25 4.48-3.08 4.48-8.46C4.48-13.84 8.82-18.19 14.20-18.19C19.58-18.19 23.93-13.84 23.93-8.46C23.93-3.08 19.58 1.25 14.20 1.25ZM14.36-3.82C14.77-3.82 15.01-4.09 15.01-4.51L15.01-10.78L15.08-10.78L16.79-4.65C16.90-4.28 17.13-3.98 17.57-3.98C18-3.98 18.22-4.24 18.34-4.68L20.05-10.78L20.12-10.78L20.12-4.51C20.12-4.09 20.38-3.82 20.78-3.82C21.19-3.82 21.43-4.09 21.43-4.51L21.43-12.08C21.43-12.73 21.05-13.10 20.40-13.10C19.86-13.10 19.50-12.80 19.35-12.26L17.63-5.92L17.53-5.92L15.79-12.26C15.63-12.80 15.26-13.10 14.74-13.10C14.09-13.10 13.70-12.71 13.70-12.08L13.70-4.51C13.70-4.09 13.95-3.82 14.36-3.82ZM7.70-3.83C8.17-3.83 8.44-4.14 8.44-4.59L8.44-7.46L9.69-7.46L10.99-4.41C11.13-4.04 11.38-3.83 11.74-3.83C12.19-3.83 12.47-4.13 12.46-4.51C12.46-4.70 12.41-4.83 12.30-5.07L11.11-7.77C11.96-8.19 12.50-9.04 12.50-10.23C12.50-11.96 11.44-12.97 9.68-12.97L7.69-12.97C7.24-12.97 6.96-12.68 6.96-12.22L6.96-4.59C6.96-4.14 7.23-3.83 7.70-3.83ZM8.44-8.60L8.44-11.79L9.54-11.79C10.49-11.79 11.02-11.17 11.02-10.21C11.02-9.26 10.54-8.60 9.55-8.60Z" fill="currentColor"/>
</svg>