<svg xmlns="http://www.w3.org/2000/svg" viewBox="0 0 24 24" width="24" height="24">
  <title>manatsign</title>
  <path transform="matrix(0.9025207121452494, 0, 0, 0.9025207121452494, 1.7884717080909573, 19.641459545214172)" d="M4.48 2.61C5.34 2.61 5.94 2.09 5.94 1.10L5.94-5.92C5.94-9.54 7.10-12.74 10.30-13.29L10.30 1.61C10.30 2.19 10.71 2.59 11.29 2.59C11.80 2.59 12.22 2.20 12.22 1.61L12.22-13.31C15.48-12.82 16.70-9.67 16.70-5.92L16.70 1.10C16.70 2.05 17.29 2.61 18.18 2.61C19.03 2.61 19.64 2.10 19.64 1.10L19.64-6.01C19.64-11.44 17.25-15.52 12.22-15.96L12.22-18.59C12.22-19.20 11.81-19.55 11.29-19.55C10.75-19.55 10.30-19.24 10.30-18.59L10.30-15.95C5.41-15.46 2.99-11.41 2.99-6.01L2.99 1.10C2.99 2.05 3.59 2.61 4.48 2.61Z" fill="currentColor"/>
</svg>