<svg xmlns="http://www.w3.org/2000/svg" viewBox="0 0 24 24" width="24" height="24">
  <title>manatsign.circle</title>
  <path transform="matrix(0.8260729267505647, 0, 0, 0.8260729267505647, 0.2671829622458859, 18.989351403678604)" d="M14.20 3.64C20.88 3.64 26.31-1.78 26.31-8.46C26.31-15.14 20.88-20.57 14.20-20.57C7.52-20.57 2.10-15.14 2.10-8.46C2.10-1.78 7.52 3.64 14.20 3.64ZM14.20 1.25C8.82 1.25 4.48-3.08 4.48-8.46C4.48-13.84 8.82-18.19 14.20-18.19C19.58-18.19 23.93-13.84 23.93-8.46C23.93-3.08 19.58 1.25 14.20 1.25ZM10.82-3.38C11.31-3.38 11.63-3.67 11.63-4.20L11.63-7.57C11.63-9.35 12.18-10.85 13.69-11.12L13.69-3.89C13.69-3.57 13.89-3.38 14.19-3.38C14.50-3.38 14.68-3.57 14.68-3.89L14.68-11.13C16.25-10.89 16.79-9.36 16.79-7.57L16.79-4.20C16.79-3.68 17.11-3.38 17.61-3.38C18.09-3.38 18.41-3.68 18.41-4.20L18.41-7.61C18.41-10.34 17.18-12.35 14.68-12.59L14.68-13.84C14.68-14.16 14.50-14.36 14.19-14.36C13.89-14.36 13.69-14.16 13.69-13.84L13.69-12.57C11.21-12.33 10.01-10.30 10.01-7.61L10.01-4.20C10.01-3.68 10.31-3.38 10.82-3.38Z" fill="currentColor"/>
</svg>