<svg xmlns="http://www.w3.org/2000/svg" viewBox="0 0 24 24" width="24" height="24">
  <title>manatsign.square</title>
  <path transform="matrix(0.9141224781289056, 0, 0, 0.9141224781289056, -0.7316550615961437, 19.728976968398502)" d="M6.83 2.48L21.02 2.48C23.55 2.48 24.87 1.18 24.87-1.32L24.87-15.59C24.87-18.08 23.55-19.39 21.02-19.39L6.83-19.39C4.30-19.39 2.99-18.09 2.99-15.59L2.99-1.32C2.99 1.18 4.30 2.48 6.83 2.48ZM6.97 0.19C5.88 0.19 5.29-0.38 5.29-1.51L5.29-15.39C5.29-16.52 5.88-17.10 6.97-17.10L20.88-17.10C21.96-17.10 22.57-16.52 22.57-15.39L22.57-1.51C22.57-0.38 21.96 0.19 20.88 0.19ZM10.55-3.38C11.04-3.38 11.37-3.67 11.37-4.20L11.37-7.57C11.37-9.35 11.92-10.85 13.43-11.12L13.43-3.89C13.43-3.57 13.62-3.38 13.93-3.38C14.24-3.38 14.43-3.57 14.43-3.89L14.43-11.13C16.00-10.89 16.54-9.36 16.54-7.57L16.54-4.20C16.54-3.68 16.84-3.38 17.34-3.38C17.84-3.38 18.15-3.68 18.15-4.20L18.15-7.61C18.15-10.34 16.92-12.35 14.43-12.59L14.43-13.84C14.43-14.16 14.24-14.36 13.93-14.36C13.62-14.36 13.43-14.16 13.43-13.84L13.43-12.57C10.96-12.33 9.75-10.30 9.75-7.61L9.75-4.20C9.75-3.68 10.05-3.38 10.55-3.38Z" fill="currentColor"/>
</svg>