<svg xmlns="http://www.w3.org/2000/svg" viewBox="0 0 24 24" width="24" height="24">
  
  <path transform="matrix(0.7904894241161031, 0, 0, 0.7904894241161031, 2.94025011579435, 19.100509495136638)" d="M6.83-16.98C6.83-14.85 8.26-13.04 10.23-12.50L10.23-1.49C10.23 1.70 10.98 3.67 11.46 3.67C11.95 3.67 12.68 1.71 12.68-1.49L12.68-12.50C14.65-13.03 16.09-14.85 16.09-16.98C16.09-19.54 14.04-21.63 11.46-21.63C8.89-21.63 6.83-19.54 6.83-16.98ZM10.14-16.72C9.30-16.72 8.55-17.46 8.55-18.32C8.55-19.17 9.30-19.90 10.14-19.90C11.02-19.90 11.73-19.17 11.73-18.32C11.73-17.46 11.02-16.72 10.14-16.72Z" fill="currentColor"/>
</svg>