<svg xmlns="http://www.w3.org/2000/svg" viewBox="0 0 24 24" width="24" height="24">
  
  <path transform="matrix(0.7131912522635464, 0, 0, 0.7131912522635464, -0.13121604680317578, 18.025908900961138)" d="M5.59 0.74L21.67 0.74L21.67-17.64L5.59-17.64C4.04-17.64 2.99-16.56 2.99-14.95L2.99-1.95C2.99-0.34 4.04 0.74 5.59 0.74ZM23.17-5.11L31.03-5.11L31.03-14.95C31.03-16.56 29.98-17.64 28.43-17.64L23.17-17.64ZM25.31-12.12C25.16-12.12 25.03-12.25 25.03-12.40L25.03-14.20C25.03-14.36 25.16-14.48 25.31-14.48L28.75-14.48C28.91-14.48 29.04-14.36 29.04-14.20L29.04-12.40C29.04-12.25 28.91-12.12 28.75-12.12ZM6.66-2.51C5.98-2.51 5.54-2.95 5.54-3.62L5.54-13.28C5.54-13.95 5.98-14.39 6.66-14.39L18.30-14.39C18.98-14.39 19.42-13.95 19.42-13.28L19.42-3.62C19.42-2.95 18.98-2.51 18.30-2.51ZM7.32-4.00L17.63-4.00C17.80-4.00 17.93-4.13 17.93-4.29L17.93-12.61C17.93-12.77 17.80-12.90 17.63-12.90L7.32-12.90C7.17-12.90 7.04-12.77 7.04-12.61L7.04-4.29C7.04-4.13 7.17-4.00 7.32-4.00ZM25.71-9.91C25.30-9.91 25.03-10.20 25.03-10.59C25.03-10.99 25.30-11.27 25.71-11.27L28.36-11.27C28.76-11.27 29.04-10.99 29.04-10.59C29.04-10.20 28.76-9.91 28.36-9.91ZM25.71-7.69C25.30-7.69 25.03-7.96 25.03-8.37C25.03-8.77 25.30-9.04 25.71-9.04L28.36-9.04C28.76-9.04 29.04-8.77 29.04-8.37C29.04-7.96 28.76-7.69 28.36-7.69ZM23.17 0.74L28.43 0.74C29.98 0.74 31.03-0.34 31.03-1.95L31.03-3.60L23.17-3.60Z" fill="currentColor"/>
</svg>