<svg xmlns="http://www.w3.org/2000/svg" viewBox="0 0 24 24" width="24" height="24">
  
  <path transform="matrix(0.8260729267505647, 0, 0, 0.8260729267505647, 0.2671829622458859, 18.989351403678604)" d="M14.20 3.64C20.88 3.64 26.31-1.78 26.31-8.46C26.31-15.14 20.88-20.57 14.20-20.57C7.52-20.57 2.10-15.14 2.10-8.46C2.10-1.78 7.52 3.64 14.20 3.64ZM14.20 1.25C8.82 1.25 4.48-3.08 4.48-8.46C4.48-13.84 8.82-18.19 14.20-18.19C19.58-18.19 23.93-13.84 23.93-8.46C23.93-3.08 19.58 1.25 14.20 1.25ZM10.95-1.80C11.13-1.80 11.23-1.90 11.31-2.09L13.55-7.16L13.55-5.31C13.55-4.90 13.83-4.59 14.21-4.59C14.61-4.59 14.89-4.90 14.89-5.31L14.89-9.50C14.89-10.29 15.26-11.07 16.11-11.07C16.93-11.07 17.21-10.44 17.21-9.61L17.21-5.31C17.21-4.90 17.51-4.59 17.92-4.59C18.33-4.59 18.61-4.90 18.61-5.31L18.61-9.98C18.61-11.29 17.96-12.38 16.57-12.38C16.29-12.38 16.02-12.33 15.79-12.23L16.83-14.58C16.86-14.65 16.88-14.73 16.88-14.79C16.88-15 16.72-15.14 16.51-15.14C16.32-15.14 16.22-15.01 16.15-14.85L14.54-11.23C14.29-11.98 13.73-12.38 12.89-12.38C11.99-12.38 11.40-11.77 11.20-10.96L11.16-10.96L11.16-11.66C11.16-12.09 10.90-12.36 10.49-12.36C10.08-12.36 9.82-12.08 9.82-11.66L9.82-5.31C9.82-4.91 10.08-4.59 10.52-4.59C10.97-4.59 11.21-4.90 11.21-5.31L11.21-9.43C11.21-10.27 11.60-11.07 12.45-11.07C13.23-11.07 13.55-10.48 13.55-9.70L13.55-8.96L10.63-2.36C10.59-2.29 10.58-2.23 10.58-2.14C10.58-1.93 10.73-1.80 10.95-1.80Z" fill="currentColor"/>
</svg>