<svg xmlns="http://www.w3.org/2000/svg" viewBox="0 0 24 24" width="24" height="24">
  <title>minus.plus.batteryblock.stack.arrowtriangle.right</title>
  <path transform="matrix(0.4464494949759971, 0, 0, 0.4464494949759971, 0.6658833450912587, 15.811388169023601)" d="M6.83-2.09L26.54-2.09C29.53-2.09 30.39-2.94 30.39-5.88L30.39-15.36C30.39-17.78 29.07-19.07 26.63-19.07L25.61-19.07L25.61-20.31C25.61-21.21 25.09-21.73 24.19-21.73L21.90-21.73C21-21.73 20.48-21.21 20.48-20.31L20.48-19.07L12.90-19.07L12.90-20.31C12.90-21.21 12.39-21.73 11.50-21.73L9.19-21.73C8.31-21.73 7.79-21.21 7.79-20.31L7.79-19.07L6.83-19.07C4.30-19.07 2.99-17.75 2.99-15.26L2.99-5.88C2.99-3.38 4.30-2.09 6.83-2.09ZM6.97-4.37C5.88-4.37 5.29-4.95 5.29-6.08L5.29-15.06C5.29-16.20 5.89-16.77 6.97-16.77L26.40-16.77C27.47-16.77 28.08-16.17 28.08-15.06L28.08-6.02C28.08-4.75 27.73-4.37 26.46-4.37ZM8.43 1.49L32.07 1.49C33.26 1.49 33.96 0.84 33.96-0.28L33.96-12.56C33.96-13.45 33.49-14.23 32.14-14.24L32.14-0.93C32.14-0.53 31.92-0.32 31.54-0.32L6.59-0.32C6.61 1.11 7.45 1.49 8.43 1.49ZM22.37-7.48C22.83-7.48 23.19-7.84 23.19-8.31L23.19-9.76L24.66-9.76C25.10-9.76 25.48-10.14 25.48-10.59C25.48-11.05 25.10-11.43 24.66-11.43L23.19-11.43L23.19-12.88C23.19-13.35 22.83-13.71 22.36-13.71C21.90-13.71 21.54-13.35 21.54-12.88L21.54-11.43L20.06-11.43C19.62-11.43 19.24-11.05 19.24-10.59C19.24-10.14 19.62-9.76 20.06-9.76L21.54-9.76L21.54-8.31C21.54-7.84 21.90-7.48 22.37-7.48ZM47.39-7.93L41.51-11.43C40.96-11.74 40.28-11.47 40.28-10.86L40.28-3.68C40.28-3.07 40.93-2.79 41.51-3.13L47.39-6.59C47.93-6.91 47.91-7.63 47.39-7.93ZM9.01-9.77L13.05-9.77C13.51-9.77 13.88-10.14 13.88-10.61C13.88-11.05 13.51-11.43 13.05-11.43L9.01-11.43C8.54-11.43 8.18-11.05 8.18-10.61C8.18-10.14 8.54-9.77 9.01-9.77ZM12.26 4.65L35.27 4.65C36.43 4.65 37.14 4.01 37.14 2.91L37.14-8.41C37.14-9.39 36.56-10.02 35.46-10.08L35.46 2.39C35.46 2.79 35.25 3 34.85 3L10.45 3C10.46 4.34 11.41 4.65 12.26 4.65Z" fill="currentColor"/>
</svg>