<svg xmlns="http://www.w3.org/2000/svg" viewBox="0 0 24 24" width="24" height="24">
  
  <path transform="matrix(0.8260729267505647, 0, 0, 0.8260729267505647, 0.2671829622458859, 18.97967086156825)" d="M14.20 3.66C20.88 3.66 26.31-1.77 26.31-8.45C26.31-15.13 20.88-20.55 14.20-20.55C7.52-20.55 2.10-15.13 2.10-8.45C2.10-1.77 7.52 3.66 14.20 3.66ZM10.04-7.61C9.46-8.45 9.13-9.47 9.13-10.61C9.13-12.83 10.39-14.77 12.27-15.53C12.59-15.66 12.86-15.63 13.00-15.47C13.11-15.29 13.14-15.06 13.01-14.78C12.81-14.38 12.69-13.66 12.69-13.01C12.69-10.49 14.33-8.91 16.91-8.91C17.54-8.91 18.08-8.99 18.53-9.19C18.79-9.28 19.01-9.26 19.15-9.13C19.30-8.96 19.34-8.71 19.21-8.43C19.08-8.12 18.93-7.85 18.74-7.61ZM8.31-5.79C8.04-5.79 7.84-5.99 7.84-6.25C7.84-6.52 8.04-6.71 8.31-6.71L20.86-6.71C21.13-6.71 21.32-6.52 21.32-6.25C21.32-5.99 21.13-5.79 20.86-5.79ZM7.54-4.05C7.27-4.05 7.07-4.25 7.07-4.52C7.07-4.78 7.27-4.98 7.54-4.98L20.09-4.98C20.34-4.98 20.54-4.78 20.54-4.52C20.54-4.25 20.34-4.05 20.09-4.05ZM8.31-2.32C8.04-2.32 7.84-2.52 7.84-2.79C7.84-3.05 8.04-3.25 8.31-3.25L20.86-3.25C21.13-3.25 21.32-3.05 21.32-2.79C21.32-2.52 21.13-2.32 20.86-2.32Z" fill="currentColor"/>
</svg>