<svg xmlns="http://www.w3.org/2000/svg" viewBox="0 0 24 24" width="24" height="24">
  <title>moonrise.circle.fill</title>
  <path transform="matrix(0.8260729267505647, 0, 0, 0.8260729267505647, 0.2671829622458859, 18.989351403678604)" d="M14.20 3.64C20.88 3.64 26.31-1.78 26.31-8.46C26.31-15.14 20.88-20.57 14.20-20.57C7.52-20.57 2.10-15.14 2.10-8.46C2.10-1.78 7.52 3.64 14.20 3.64ZM17.09-10.01C16.71-10.01 16.43-10.34 16.43-10.71L16.43-13.25L16.45-13.63L16.42-13.61L15.68-12.86C15.55-12.74 15.38-12.64 15.20-12.64C14.86-12.64 14.60-12.89 14.60-13.22C14.60-13.41 14.67-13.56 14.84-13.71L16.62-15.40C16.78-15.53 16.92-15.60 17.09-15.60C17.25-15.60 17.39-15.53 17.54-15.40L19.34-13.71C19.50-13.56 19.57-13.41 19.57-13.22C19.57-12.89 19.31-12.64 18.97-12.64C18.80-12.64 18.60-12.73 18.49-12.86L17.82-13.56L17.72-13.66L17.74-13.25L17.74-10.71C17.74-10.34 17.46-10.01 17.09-10.01ZM9.98-5.20C9.41-6.05 9.07-7.07 9.07-8.20C9.07-10.43 10.35-12.36 12.22-13.13C12.53-13.25 12.81-13.22 12.95-13.05C13.07-12.89 13.09-12.66 12.96-12.38C12.75-11.96 12.63-11.26 12.63-10.59C12.63-8.09 14.27-6.50 16.86-6.50C17.48-6.50 18.04-6.59 18.47-6.79C18.74-6.88 18.96-6.84 19.10-6.74C19.25-6.56 19.28-6.30 19.16-6.01C19.03-5.72 18.88-5.45 18.68-5.20ZM8.04-2.92C7.65-2.92 7.31-3.22 7.31-3.61C7.31-4.00 7.64-4.31 8.04-4.31L20.37-4.31C20.77-4.31 21.09-4.00 21.09-3.61C21.09-3.22 20.75-2.92 20.37-2.92Z" fill="currentColor"/>
</svg>