<svg xmlns="http://www.w3.org/2000/svg" viewBox="0 0 24 24" width="24" height="24">
  
  <path transform="matrix(0.8260729267505647, 0, 0, 0.8260729267505647, 0.2671829622458859, 18.989351403678604)" d="M14.20 3.64C20.88 3.64 26.31-1.78 26.31-8.46C26.31-15.14 20.88-20.57 14.20-20.57C7.52-20.57 2.10-15.14 2.10-8.46C2.10-1.78 7.52 3.64 14.20 3.64ZM14.20 1.25C8.82 1.25 4.48-3.08 4.48-8.46C4.48-13.84 8.82-18.19 14.20-18.19C19.58-18.19 23.93-13.84 23.93-8.46C23.93-3.08 19.58 1.25 14.20 1.25ZM6.82-4.77C7.24-4.77 7.44-5.04 7.44-5.44L7.44-10.05L7.49-10.05L8.41-5.59C8.50-5.18 8.73-4.91 9.13-4.91C9.53-4.91 9.75-5.19 9.83-5.59L10.76-10.05L10.80-10.05L10.80-5.44C10.80-5.05 11.02-4.77 11.41-4.77C11.84-4.77 12.05-5.04 12.05-5.44L12.05-11.18C12.05-11.80 11.66-12.16 11.04-12.16C10.49-12.16 10.15-11.94 10.03-11.36L9.13-6.81L9.12-6.81L8.19-11.36C8.06-11.96 7.72-12.16 7.20-12.16C6.50-12.16 6.19-11.72 6.19-11.18L6.19-5.44C6.19-5.04 6.40-4.77 6.82-4.77ZM18.48-4.77C18.94-4.77 19.18-5.07 19.18-5.53L19.18-7.93L20.82-7.93L20.82-5.53C20.82-5.11 21.04-4.77 21.53-4.77C22.00-4.77 22.23-5.05 22.23-5.53L22.23-11.41C22.23-11.88 21.98-12.16 21.53-12.16C21.05-12.16 20.82-11.86 20.82-11.41L20.82-9.11L19.18-9.11L19.18-11.41C19.18-11.87 18.94-12.16 18.48-12.16C18.01-12.16 17.77-11.87 17.77-11.41L17.77-5.53C17.77-5.07 18.01-4.77 18.48-4.77ZM13.64-4.78C14.06-4.78 14.34-5.03 14.34-5.52L14.34-7.20L15.07-7.20C16.41-7.20 17.10-8.33 17.10-9.62C17.10-10.93 16.43-12.05 15.15-12.05L13.64-12.05C13.23-12.05 12.94-11.81 12.94-11.31L12.94-5.52C12.94-5.00 13.27-4.78 13.64-4.78ZM14.34-8.30L14.34-10.93L14.79-10.93C15.48-10.93 15.70-10.31 15.70-9.62C15.70-8.92 15.48-8.30 14.78-8.30Z" fill="currentColor"/>
</svg>