<svg xmlns="http://www.w3.org/2000/svg" viewBox="0 0 24 24" width="24" height="24">
  <title>mustache</title>
  <path transform="matrix(0.59465737514518, 0, 0, 0.59465737514518, 0.7526132404181185, 16.66898954703833)" d="M11.31-1.59C14.44-1.59 17.13-2.59 18.91-4.41C20.70-2.59 23.39-1.59 26.52-1.59C31.71-1.59 35.73-4.75 35.73-8.82C35.73-10.59 34.98-11.65 33.67-11.65C33.12-11.65 32.65-11.41 32.21-10.95C31.75-10.42 31.05-10.08 30.23-10.08C27.40-10.08 26.53-14.11 21.82-14.11C20.68-14.11 19.68-13.77 18.91-13.14C18.16-13.77 17.16-14.11 16.01-14.11C11.30-14.11 10.43-10.08 7.59-10.08C6.77-10.08 6.08-10.42 5.61-10.95C5.18-11.41 4.71-11.65 4.16-11.65C2.85-11.65 2.10-10.59 2.10-8.82C2.10-4.75 6.12-1.59 11.31-1.59ZM11.31-3.79C7.46-3.79 4.44-5.93 4.29-8.65C4.28-8.94 4.54-8.98 4.72-8.86C5.41-8.25 6.49-7.92 7.59-7.92C9.69-7.92 11.11-9.07 12.26-10.05C13.45-11.07 14.43-11.91 16.01-11.91C17.09-11.91 17.88-11.44 18.33-10.70C18.68-10.24 19.15-10.23 19.50-10.70C19.95-11.44 20.75-11.91 21.82-11.91C23.40-11.91 24.38-11.07 25.57-10.05C26.72-9.07 28.14-7.92 30.23-7.92C31.34-7.92 32.41-8.26 33.14-8.89C33.33-9.02 33.55-9 33.54-8.65C33.39-5.93 30.36-3.79 26.52-3.79C23.09-3.79 20.57-5.16 19.57-7.27C19.25-7.86 18.57-7.88 18.26-7.27C17.27-5.16 14.75-3.79 11.31-3.79Z" fill="currentColor"/>
</svg>