<svg xmlns="http://www.w3.org/2000/svg" viewBox="0 0 24 24" width="24" height="24">
  <title>network.slash</title>
  <path transform="matrix(0.8260729267505647, 0, 0, 0.8260729267505647, 0.2671829622458859, 18.989351403678604)" d="M14.19-20.57C11.73-20.57 9.43-19.80 7.51-18.50L8.87-17.14C10.05-17.91 11.41-18.40 12.86-18.57C11.95-17.61 11.17-16.59 10.51-15.50L11.66-14.36C12.59-15.94 13.76-17.39 15.13-18.63C15.28-18.63 15.43-18.61 15.57-18.59C14.52-16.75 13.77-14.75 13.36-12.67L14.73-11.29C15.02-13.35 15.66-15.30 16.65-17.07L16.76-17.05C16.17-14.65 16.22-12.19 16.89-9.73L16.32-9.69L19.97-6.05C19.64-6.80 19.29-7.64 18.95-8.53C20.79-9.06 22.54-9.95 24.05-11.18C24.30-10.31 24.43-9.40 24.43-8.46C24.43-7.32 24.21-6.20 23.74-5.18L21.76-4.25L24.25-1.77C25.55-3.69 26.31-5.99 26.31-8.46C26.31-15.08 20.82-20.57 14.19-20.57ZM24.41 3.08C24.77 3.45 25.37 3.43 25.72 3.07C26.09 2.70 26.09 2.11 25.72 1.75L4.00-19.98C3.63-20.34 3.04-20.34 2.67-19.98C2.31-19.63 2.31-19.01 2.67-18.66ZM23.45-12.74C22.00-11.46 20.29-10.55 18.45-10.03C17.75-12.53 17.71-15.28 18.45-17.73C20.65-16.72 22.45-14.93 23.45-12.74ZM14.20 3.64C16.66 3.64 18.97 2.88 20.89 1.59L19.51 0.21C18.88 0.64 18.22 0.97 17.51 1.20C16.88 0.22 16.34-0.81 15.91-1.88C16.39-1.88 16.88-1.88 17.36-1.93L15.62-3.67C15.42-3.67 15.22-3.68 15.02-3.70C14.94-3.94 14.89-4.18 14.86-4.43L13.10-6.19C13.18-5.38 13.32-4.61 13.55-3.81C12.07-3.98 10.61-4.34 9.20-4.89C9.19-6.71 9.38-8.14 9.74-9.55L8.45-10.85C7.92-9.16 7.64-7.39 7.62-5.58C6.33-6.22 5.12-7.02 4.01-7.97C4.00-8.19 3.98-8.43 3.98-8.65C4.01-10.52 4.57-12.28 5.51-13.78L4.15-15.14C2.87-13.22 2.10-10.92 2.10-8.46C2.10-1.83 7.58 3.64 14.20 3.64ZM8.27-0.16C6.42-1.49 5.03-3.42 4.39-5.65C5.43-4.92 6.53-4.30 7.68-3.79C7.75-2.54 7.96-1.41 8.27-0.16ZM15.90 1.63C15.35 1.72 14.79 1.77 14.20 1.77C12.83 1.77 11.52 1.48 10.31 0.97C9.84-0.32 9.49-1.72 9.33-3.15C10.86-2.63 12.46-2.29 14.06-2.16C14.53-0.83 15.15 0.43 15.90 1.63Z" fill="currentColor"/>
</svg>