<svg xmlns="http://www.w3.org/2000/svg" viewBox="0 0 24 24" width="24" height="24">
  <title>newspaper.fill</title>
  <path transform="matrix(0.753495217071376, 0, 0, 0.753495217071376, -0.2516556291390728, 18.370860927152318)" d="M7.14 4.23L25.69 4.23C28.22 4.23 29.53 2.93 29.53 0.42L29.53-17.33C29.53-19.84 28.22-21.14 25.69-21.14L12.15-21.14C9.61-21.14 8.31-19.84 8.31-17.33L8.31 1.89C8.31 3.08 8.02 3.75 7.14 4.23ZM13.27-13.84C12.81-13.84 12.47-14.19 12.47-14.64C12.47-15.07 12.81-15.41 13.27-15.41L24.59-15.41C25.03-15.41 25.37-15.07 25.37-14.64C25.37-14.19 25.03-13.84 24.59-13.84ZM2.99-9.53L2.99 0.83C2.99 1.79 3.70 2.32 4.51 2.32C5.31 2.32 6.01 1.79 6.01 0.83L6.01-12.09L5.54-12.09C4.07-12.09 2.99-11.17 2.99-9.53ZM13.27-9.80C12.81-9.80 12.47-10.14 12.47-10.57C12.47-11.00 12.81-11.36 13.27-11.36L24.59-11.36C25.03-11.36 25.37-11.00 25.37-10.57C25.37-10.14 25.03-9.80 24.59-9.80ZM20.40-5.73C19.95-5.73 19.61-6.07 19.61-6.50C19.61-6.95 19.95-7.29 20.40-7.29L24.57-7.29C25.02-7.29 25.36-6.95 25.36-6.50C25.36-6.07 25.02-5.73 24.57-5.73ZM13.86-1.59C12.98-1.59 12.46-2.12 12.46-3L12.46-5.89C12.46-6.76 12.98-7.29 13.86-7.29L16.68-7.29C17.55-7.29 18.09-6.76 18.09-5.89L18.09-3C18.09-2.12 17.55-1.59 16.68-1.59ZM20.40-1.64C19.95-1.64 19.61-1.98 19.61-2.41C19.61-2.85 19.95-3.20 20.40-3.20L24.57-3.20C25.02-3.20 25.36-2.85 25.36-2.41C25.36-1.98 25.02-1.64 24.57-1.64Z" fill="currentColor"/>
</svg>