<svg xmlns="http://www.w3.org/2000/svg" viewBox="0 0 24 24" width="24" height="24">
  <title>norwegiankronesign.arrow.trianglehead.counterclockwise.rotate.90</title>
  <path transform="matrix(0.7567779868000949, 0, 0, 0.7567779868000949, 2.09023538633344, 18.40305124769143)" d="M0.75-10.82C-0.13-10.82-0.35-10.16 0.13-9.50L2.85-5.72C3.22-5.19 3.81-5.20 4.18-5.72L6.90-9.52C7.37-10.16 7.15-10.82 6.28-10.82L4.77-10.82C5.82-15.06 9.64-18.19 14.20-18.19C19.57-18.19 23.92-13.84 23.92-8.46C23.92-3.08 19.57 1.25 14.20 1.25C11.05 1.25 8.30-0.23 6.53-2.55C6.06-3.09 5.38-3.27 4.80-2.86C4.27-2.48 4.15-1.70 4.66-1.08C6.89 1.82 10.34 3.64 14.20 3.64C20.88 3.64 26.31-1.78 26.31-8.46C26.31-15.14 20.88-20.57 14.20-20.57C8.32-20.57 3.43-16.38 2.33-10.82ZM10.41-3.89C10.83-3.89 11.12-4.20 11.12-4.64L11.12-6.38L11.74-6.98L13.63-4.29C13.78-4.05 13.99-3.89 14.29-3.89C14.66-3.89 14.98-4.16 14.98-4.52C14.98-4.72 14.89-4.88 14.78-5.04L12.79-7.84L14.64-9.80C14.81-9.98 14.91-10.10 14.91-10.31C14.91-10.65 14.63-10.93 14.27-10.93C14.06-10.93 13.84-10.82 13.71-10.66L11.16-7.85L11.12-7.85L11.12-12.81C11.12-13.25 10.83-13.56 10.41-13.56C10.00-13.56 9.69-13.27 9.69-12.82L9.69-4.64C9.69-4.20 10.00-3.89 10.41-3.89ZM16.91-3.89C17.24-3.89 17.58-4.11 17.58-4.64L17.58-7.99C17.58-8.77 17.86-9.57 18.79-9.57C19.03-9.57 19.29-9.61 19.46-9.74C19.62-9.83 19.71-10.00 19.71-10.23C19.71-10.68 19.39-10.93 18.95-10.93C18.22-10.93 17.75-10.30 17.59-9.57L17.52-9.57L17.52-10.22C17.52-10.63 17.25-10.93 16.88-10.93C16.50-10.93 16.22-10.63 16.22-10.22L16.22-4.64C16.22-4.20 16.48-3.89 16.91-3.89Z" fill="currentColor"/>
</svg>