<svg xmlns="http://www.w3.org/2000/svg" viewBox="0 0 24 24" width="24" height="24">
  <title>notequal.square</title>
  <path transform="matrix(0.9141224781289056, 0, 0, 0.9141224781289056, -0.7316550615961437, 19.728976968398502)" d="M6.83 2.48L21.02 2.48C23.55 2.48 24.87 1.18 24.87-1.32L24.87-15.59C24.87-18.08 23.55-19.39 21.02-19.39L6.83-19.39C4.30-19.39 2.99-18.09 2.99-15.59L2.99-1.32C2.99 1.18 4.30 2.48 6.83 2.48ZM6.97 0.19C5.88 0.19 5.29-0.38 5.29-1.51L5.29-15.39C5.29-16.52 5.88-17.10 6.97-17.10L20.88-17.10C21.96-17.10 22.57-16.52 22.57-15.39L22.57-1.51C22.57-0.38 21.96 0.19 20.88 0.19ZM10.14-2.95C10.64-2.59 11.19-2.78 11.54-3.29L12.87-5.23L18.21-5.23C18.90-5.23 19.37-5.58 19.37-6.23C19.37-6.90 18.93-7.27 18.21-7.27L14.27-7.27L15.90-9.62L18.21-9.62C18.90-9.62 19.37-9.97 19.37-10.64C19.37-11.31 18.93-11.67 18.21-11.67L17.31-11.67L17.92-12.56C18.28-13.09 18.25-13.63 17.73-13.98C17.21-14.33 16.68-14.18 16.31-13.64L14.95-11.67L9.64-11.67C8.93-11.67 8.47-11.31 8.47-10.64C8.47-9.97 8.95-9.62 9.64-9.62L13.55-9.62L11.92-7.27L9.64-7.27C8.93-7.27 8.47-6.90 8.47-6.23C8.47-5.58 8.95-5.23 9.64-5.23L10.50-5.23L9.93-4.38C9.56-3.84 9.62-3.29 10.14-2.95Z" fill="currentColor"/>
</svg>