<svg xmlns="http://www.w3.org/2000/svg" viewBox="0 0 24 24" width="24" height="24">
  
  <path transform="matrix(0.8260729267505647, 0, 0, 0.8260729267505647, 0.2671829622458859, 18.989351403678604)" d="M14.20 3.64C20.88 3.64 26.31-1.78 26.31-8.46C26.31-15.14 20.88-20.57 14.20-20.57C7.52-20.57 2.10-15.14 2.10-8.46C2.10-1.78 7.52 3.64 14.20 3.64ZM14.20 1.25C8.82 1.25 4.48-3.08 4.48-8.46C4.48-13.84 8.82-18.19 14.20-18.19C19.58-18.19 23.93-13.84 23.93-8.46C23.93-3.08 19.58 1.25 14.20 1.25ZM14.19-2.99C17.19-2.99 19.30-5.23 19.30-8.54C19.30-11.87 17.19-14.11 14.19-14.11C11.20-14.11 9.09-11.87 9.09-8.54C9.09-5.23 11.20-2.99 14.19-2.99ZM14.19-4.75C12.47-4.75 11.31-6.21 11.31-8.54C11.31-10.88 12.47-12.35 14.19-12.35C15.93-12.35 17.09-10.88 17.09-8.54C17.09-6.21 15.93-4.75 14.19-4.75Z" fill="currentColor"/>
</svg>