<svg xmlns="http://www.w3.org/2000/svg" viewBox="0 0 24 24" width="24" height="24">
  
  <path transform="matrix(0.48170573279896733, 0, 0, 0.48170573279896733, 0.5603315644084617, 16.072859604075646)" d="M19.75-2.73C21.96-2.73 23.74-4.51 23.74-6.74C23.74-8.29 22.84-9.50 21.71-10.16C21.32-10.38 21.13-10.72 21.13-11.30L21.13-20.46C21.13-21.21 20.51-21.84 19.75-21.84C19.00-21.84 18.38-21.21 18.38-20.46L18.38-11.30C18.38-10.75 18.18-10.42 17.77-10.18C16.64-9.52 15.76-8.29 15.76-6.74C15.76-4.51 17.53-2.73 19.75-2.73ZM24.23-19.13L26.81-19.13C27.25-19.13 27.54-19.45 27.54-19.84C27.54-20.23 27.25-20.55 26.81-20.55L24.23-20.55C23.80-20.55 23.51-20.23 23.51-19.84C23.51-19.45 23.80-19.13 24.23-19.13ZM24.23-16.02L26.81-16.02C27.25-16.02 27.54-16.35 27.54-16.73C27.54-17.12 27.25-17.45 26.81-17.45L24.23-17.45C23.80-17.45 23.51-17.12 23.51-16.73C23.51-16.35 23.80-16.02 24.23-16.02ZM24.23-12.91L26.81-12.91C27.25-12.91 27.54-13.24 27.54-13.63C27.54-14.02 27.25-14.34 26.81-14.34L24.23-14.34C23.80-14.34 23.51-14.02 23.51-13.63C23.51-13.24 23.80-12.91 24.23-12.91ZM13.03 4.02L23.14 4.02C24.97 4.02 26.18 3.55 27.02 2.48L34.89-7.59L39.26-8.75L40.82-7.42C41.96-6.43 43.45-7.93 42.29-8.95L40.50-10.52C40.08-10.90 39.67-11.03 38.87-10.82L25.55-7.27L25.34-7.46C25.37-7.23 25.38-6.98 25.38-6.74C25.38-3.61 22.86-1.10 19.75-1.10C16.63-1.10 14.12-3.61 14.12-6.74C14.12-7.79 14.41-8.73 14.88-9.54L13.03-9.54C12.68-9.54 12.35-9.52 12.06-9.46L6.89-11.41C3.94-12.55 1.83-9.61 3.69-6.79L9.74 2.44C10.48 3.56 11.48 4.02 13.03 4.02ZM5.13-8.21C4.62-9.04 5.21-9.88 6.13-9.54L9.87-8.10C9.48-7.54 9.29-6.79 9.29-5.84L9.29-1.86ZM41.66 4.93C43.22 4.93 44.51 3.70 44.51 2.14C44.51 1.25 44.07 0.41 43.64-0.39L41.93-3.56C41.87-3.67 41.78-3.73 41.66-3.73C41.53-3.73 41.47-3.67 41.40-3.55L39.69-0.39C39.26 0.41 38.81 1.25 38.81 2.14C38.81 3.70 40.10 4.93 41.66 4.93Z" fill="currentColor"/>
</svg>