<svg xmlns="http://www.w3.org/2000/svg" viewBox="0 0 24 24" width="24" height="24">
  
  <path transform="matrix(0.7832338993422059, 0, 0, 0.7832338993422059, 1.651216154199175, 18.622303809086738)" d="M10.03 4.31L19.68 4.31C22.02 4.31 23.43 2.92 23.43 0.60L23.44-17.50C23.44-19.75 21.96-21.22 19.71-21.22L8.24-21.22C4.98-21.22 2.99-19.23 2.99-15.97L2.99-13.96C2.99-10.76 3.75-8.71 5.50-6.43L6.29-5.39L6.29 0.60C6.29 2.92 7.70 4.31 10.03 4.31ZM8.21-13.76C7.75-13.76 7.36-14.13 7.36-14.61C7.36-15.09 7.75-15.49 8.21-15.49L18.61-15.49C19.09-15.49 19.48-15.09 19.48-14.61C19.48-14.13 19.09-13.76 18.61-13.76ZM9.33-9.30C8.85-9.30 8.46-9.69 8.46-10.18C8.46-10.66 8.85-11.04 9.33-11.04L18.61-11.04C19.09-11.04 19.48-10.66 19.48-10.18C19.48-9.69 19.09-9.30 18.61-9.30ZM11.21-4.89C10.73-4.89 10.35-5.27 10.35-5.74C10.35-6.23 10.73-6.62 11.21-6.62L18.61-6.62C19.09-6.62 19.48-6.23 19.48-5.74C19.48-5.27 19.09-4.89 18.61-4.89ZM11.21-0.45C10.73-0.45 10.35-0.82 10.35-1.31C10.35-1.78 10.73-2.18 11.21-2.18L18.61-2.18C19.09-2.18 19.48-1.78 19.48-1.31C19.48-0.82 19.09-0.45 18.61-0.45Z" fill="currentColor"/>
</svg>