<svg xmlns="http://www.w3.org/2000/svg" viewBox="0 0 24 24" width="24" height="24">
  
  <path transform="matrix(0.8260729267505647, 0, 0, 0.8260729267505647, 0.2671829622458859, 18.989351403678604)" d="M14.20 3.64C20.88 3.64 26.31-1.78 26.31-8.46C26.31-15.14 20.88-20.57 14.20-20.57C7.52-20.57 2.10-15.14 2.10-8.46C2.10-1.78 7.52 3.64 14.20 3.64ZM14.20 1.25C8.82 1.25 4.48-3.08 4.48-8.46C4.48-13.84 8.82-18.19 14.20-18.19C19.58-18.19 23.93-13.84 23.93-8.46C23.93-3.08 19.58 1.25 14.20 1.25ZM18.79-11.61L19.63-12.46C20.03-12.87 20.05-13.35 19.68-13.72L19.39-14.00C19.02-14.38 18.54-14.34 18.14-13.95L17.30-13.10ZM10.58-3.43L18.08-10.91L16.58-12.41L9.09-4.92L8.45-3.36C8.31-3.01 8.65-2.71 8.96-2.81Z" fill="currentColor"/>
</svg>