<svg xmlns="http://www.w3.org/2000/svg" viewBox="0 0 24 24" width="24" height="24">
  <title>person.2.shield</title>
  <path transform="matrix(0.8390691576532284, 0, 0, 0.8390691576532284, 1.188790560471976, 18.853490658800393)" d="M12.89 3.75C13.09 3.75 13.41 3.67 13.71 3.50C20.45-0.16 22.78-1.85 22.78-6.12L22.78-14.99C22.78-16.37 22.24-16.86 21.08-17.36C19.78-17.91 15.39-19.45 14.11-19.88C13.72-20.00 13.28-20.09 12.89-20.09C12.49-20.09 12.05-19.98 11.67-19.88C10.39-19.52 5.99-17.89 4.69-17.36C3.54-16.88 2.99-16.37 2.99-14.99L2.99-6.12C2.99-1.85 5.34-0.18 12.07 3.50C12.36 3.67 12.68 3.75 12.89 3.75ZM12.89 1.29C12.71 1.29 12.55 1.23 12.21 1.02C6.86-2.24 5.19-3.13 5.19-6.56L5.19-14.61C5.19-15.02 5.27-15.19 5.60-15.32C7.34-16.02 10.70-17.13 12.28-17.75C12.54-17.85 12.71-17.88 12.89-17.88C13.05-17.88 13.23-17.85 13.50-17.75C15.07-17.13 18.41-15.95 20.18-15.32C20.50-15.20 20.59-15.02 20.59-14.61L20.59-6.56C20.59-3.11 18.86-2.17 13.56 1.02C13.23 1.23 13.05 1.29 12.89 1.29ZM15.53-9.30C16.62-9.30 17.53-10.29 17.53-11.54C17.53-12.77 16.62-13.71 15.53-13.71C14.44-13.71 13.51-12.75 13.51-11.54C13.51-10.29 14.43-9.30 15.53-9.30ZM9.74-9.21C10.69-9.21 11.50-10.05 11.50-11.14C11.50-12.21 10.69-13.03 9.74-13.03C8.80-13.03 7.98-12.20 7.98-11.14C7.98-10.05 8.79-9.21 9.74-9.21ZM6.97-4.66L10.73-4.66C10.21-5.43 10.79-6.94 11.92-7.82C11.36-8.17 10.64-8.44 9.74-8.44C7.50-8.44 6.06-6.79 6.06-5.44C6.06-4.95 6.30-4.66 6.97-4.66ZM12.40-4.66L18.64-4.66C19.46-4.66 19.75-4.91 19.75-5.37C19.75-6.66 18.12-8.43 15.53-8.43C12.93-8.43 11.29-6.66 11.29-5.37C11.29-4.91 11.58-4.66 12.40-4.66Z" fill="currentColor"/>
</svg>