<svg xmlns="http://www.w3.org/2000/svg" viewBox="0 0 24 24" width="24" height="24">
  <title>person.crop.square.fill</title>
  <path transform="matrix(0.9141224781289056, 0, 0, 0.9141224781289056, -0.7316550615961437, 19.728976968398502)" d="M6.83 2.48L21.02 2.48C23.55 2.48 24.87 1.18 24.87-1.32L24.87-15.59C24.87-18.08 23.55-19.39 21.02-19.39L6.83-19.39C4.30-19.39 2.99-18.09 2.99-15.59L2.99-1.32C2.99 1.18 4.30 2.48 6.83 2.48ZM13.93-6.40C11.70-6.42 9.96-8.27 9.95-10.76C9.94-13.09 11.71-15.02 13.93-15.02C16.16-15.02 17.92-13.09 17.92-10.76C17.92-8.27 16.17-6.38 13.93-6.40ZM6.30 0.30C7.25-2.50 10.29-4.49 13.93-4.49C17.59-4.49 20.63-2.50 21.56 0.30Z" fill="currentColor"/>
</svg>