<svg xmlns="http://www.w3.org/2000/svg" viewBox="0 0 24 24" width="24" height="24">
  <title>person.bust.fill</title>
  <path transform="matrix(0.7832338993422059, 0, 0, 0.7832338993422059, 1.4538779256539707, 18.64066085360257)" d="M13.46-12.71C15.67-12.69 17.40-14.58 17.40-17.03C17.40-19.32 15.66-21.25 13.46-21.25C11.29-21.25 9.52-19.32 9.53-17.03C9.53-14.58 11.27-12.73 13.46-12.71ZM6.70-4.18L20.23-4.18C21.04-4.18 21.49-4.68 21.49-5.39C21.49-7.31 18.73-11.29 13.45-11.29C8.19-11.29 5.44-7.31 5.44-5.39C5.44-4.68 5.89-4.18 6.70-4.18ZM4.09 4.29L22.84 4.29C23.45 4.29 23.94 3.79 23.94 3.19C23.94 2.58 23.45 2.09 22.84 2.09L22.11 2.09L22.11-0.43C22.11-1.76 21.43-2.52 20.03-2.52L6.90-2.52C5.51-2.52 4.82-1.76 4.82-0.43L4.82 2.09L4.09 2.09C3.48 2.09 2.99 2.58 2.99 3.19C2.99 3.79 3.48 4.29 4.09 4.29ZM11.18 1.70C10.73 1.70 10.39 1.35 10.39 0.89C10.39 0.43 10.73 0.09 11.18 0.09L15.76 0.09C16.22 0.09 16.55 0.43 16.55 0.89C16.55 1.35 16.22 1.70 15.76 1.70Z" fill="currentColor"/>
</svg>