<svg xmlns="http://www.w3.org/2000/svg" viewBox="0 0 24 24" width="24" height="24">
  
  <path transform="matrix(0.6385728893958161, 0, 0, 0.6385728893958161, 0.4743564490578287, 17.406666944396218)" d="M18.06-8.77C20.61-8.77 22.78-11.05 22.78-13.98C22.78-16.86 20.60-19.05 18.06-19.05C15.52-19.05 13.34-16.82 13.34-13.96C13.34-11.05 15.50-8.77 18.06-8.77ZM25.66-12.98L28.65-12.98L28.65-11.54C28.65-10.69 29.47-10.38 30.15-10.90L33.38-13.31C33.82-13.65 33.82-14.27 33.38-14.60L30.15-17.04C29.48-17.53 28.65-17.26 28.65-16.38L28.65-14.96L25.66-14.96C25.11-14.96 24.67-14.52 24.67-13.98C24.67-13.43 25.11-12.98 25.66-12.98ZM7.45-11.54L7.45-12.98L10.44-12.98C10.99-12.98 11.43-13.43 11.43-13.98C11.43-14.52 10.99-14.96 10.44-14.96L7.45-14.96L7.45-16.38C7.45-17.26 6.61-17.53 5.95-17.04L2.72-14.60C2.29-14.27 2.27-13.65 2.72-13.31L5.95-10.90C6.63-10.38 7.45-10.69 7.45-11.54ZM10.25 2.12L25.85 2.12C27.16 2.12 27.95 1.50 27.95 0.47C27.95-2.54 24.13-6.69 18.06-6.69C11.98-6.69 8.16-2.54 8.16 0.47C8.16 1.50 8.94 2.12 10.25 2.12Z" fill="currentColor"/>
</svg>