<svg xmlns="http://www.w3.org/2000/svg" viewBox="0 0 24 24" width="24" height="24">
  <title>pesetasign</title>
  <path transform="matrix(0.9377289377289377, 0, 0, 0.9377289377289377, 0.582417582417583, 19.945054945054945)" d="M6.74 2.19C7.61 2.19 8.20 1.58 8.20 0.69L8.20-5.30L12.41-5.30C16.43-5.30 19.15-7.92 19.43-11.63L20.61-11.63C21.04-11.63 21.36-11.94 21.36-12.36C21.36-12.79 21.04-13.10 20.61-13.10L19.41-13.10C19.04-16.69 16.32-19.14 12.50-19.14L6.77-19.14C5.85-19.14 5.24-18.52 5.24-17.59L5.24-13.10L3.74-13.10C3.32-13.10 2.99-12.79 2.99-12.36C2.99-11.93 3.32-11.63 3.74-11.63L5.24-11.63L5.24 0.69C5.24 1.58 5.86 2.19 6.74 2.19ZM8.20-16.73L11.74-16.73C14.34-16.73 16.04-15.42 16.37-13.10L8.20-13.10ZM8.20-7.68L8.20-11.63L16.39-11.63C16.16-9.09 14.43-7.68 11.74-7.68Z" fill="currentColor"/>
</svg>