<svg xmlns="http://www.w3.org/2000/svg" viewBox="0 0 24 24" width="24" height="24">
  <title>pesetasign.ring</title>
  <path transform="matrix(0.7595312268209464, 0, 0, 0.7595312268209464, 0.4067645749888742, 18.430796617712506)" d="M15.26 4.70C22.50 4.70 28.43-1.22 28.43-8.46C28.43-15.70 22.50-21.63 15.26-21.63C8.03-21.63 2.10-15.70 2.10-8.46C2.10-1.22 8.03 4.70 15.26 4.70ZM15.26 0.25C10.45 0.25 6.55-3.64 6.55-8.46C6.55-13.28 10.45-17.17 15.26-17.17C20.07-17.17 23.96-13.28 23.96-8.46C23.96-3.64 20.07 0.25 15.26 0.25ZM12.95-3.14C13.44-3.14 13.76-3.45 13.76-3.96L13.76-6.73L15.77-6.73C17.75-6.73 19.13-8.02 19.27-9.91L19.85-9.91C20.06-9.91 20.24-10.08 20.24-10.29C20.24-10.49 20.06-10.65 19.85-10.65L19.27-10.65C19.08-12.49 17.72-13.69 15.83-13.69L12.97-13.69C12.45-13.69 12.13-13.36 12.13-12.84L12.13-10.65L11.41-10.65C11.19-10.65 11.03-10.49 11.03-10.29C11.03-10.07 11.19-9.91 11.41-9.91L12.13-9.91L12.13-3.96C12.13-3.45 12.45-3.14 12.95-3.14ZM13.76-12.40L15.41-12.40C16.61-12.40 17.44-11.81 17.60-10.65L13.76-10.65ZM13.76-8.02L13.76-9.91L17.61-9.91C17.50-8.67 16.69-8.02 15.40-8.02Z" fill="currentColor"/>
</svg>