<svg xmlns="http://www.w3.org/2000/svg" viewBox="0 0 24 24" width="24" height="24">
  <title>pesetasign.bank.building.fill</title>
  <path transform="matrix(0.7442942288123273, 0, 0, 0.7442942288123273, -0.22416048844308767, 18.297426951591802)" d="M4.05 4.43L28.79 4.43C29.37 4.43 29.86 3.95 29.86 3.36C29.86 2.79 29.37 2.31 28.79 2.31L28.18 2.31L28.18 1.39C28.18 0.88 27.88 0.57 27.36 0.57L26.68 0.57L26.68-12.98L27.69-12.98C28.41-12.98 28.83-13.50 28.83-14.04C28.83-14.43 28.61-14.78 28.14-15.06L17.96-20.93C17.48-21.20 16.96-21.35 16.45-21.35C15.95-21.35 15.41-21.20 14.94-20.93L4.77-15.06C4.29-14.78 4.08-14.43 4.08-14.04C4.08-13.50 4.50-12.98 5.21-12.98L6.23-12.98L6.23 0.57L5.55 0.57C5.04 0.57 4.73 0.88 4.73 1.39L4.73 2.31L4.05 2.31C3.47 2.31 2.99 2.79 2.99 3.36C2.99 3.95 3.47 4.43 4.05 4.43ZM14.04-1.92C13.50-1.92 13.18-2.26 13.18-2.79L13.18-8.96L12.43-8.96C12.21-8.96 12.02-9.13 12.02-9.35C12.02-9.56 12.21-9.74 12.43-9.74L13.18-9.74L13.18-12.01C13.18-12.56 13.51-12.90 14.06-12.90L17.04-12.90C19.02-12.90 20.43-11.66 20.60-9.74L21.21-9.74C21.45-9.74 21.62-9.56 21.62-9.35C21.62-9.14 21.45-8.96 21.21-8.96L20.63-8.96C20.47-6.98 19.05-5.66 16.98-5.66L14.89-5.66L14.89-2.79C14.89-2.26 14.55-1.92 14.04-1.92ZM14.89-9.74L18.87-9.74C18.70-10.93 17.85-11.54 16.61-11.54L14.89-11.54ZM14.89-7.00L16.58-7.00C17.92-7.00 18.76-7.69 18.88-8.96L14.89-8.96Z" fill="currentColor"/>
</svg>