<svg xmlns="http://www.w3.org/2000/svg" viewBox="0 0 24 24" width="24" height="24">
  <title>pesetasign.square.fill</title>
  <path transform="matrix(0.9141224781289056, 0, 0, 0.9141224781289056, -0.7316550615961437, 19.728976968398502)" d="M6.83 2.48L21.02 2.48C23.55 2.48 24.87 1.18 24.87-1.32L24.87-15.59C24.87-18.08 23.55-19.39 21.02-19.39L6.83-19.39C4.30-19.39 2.99-18.09 2.99-15.59L2.99-1.32C2.99 1.18 4.30 2.48 6.83 2.48ZM11.53-2.93C11.00-2.93 10.69-3.26 10.69-3.79L10.69-9.96L9.94-9.96C9.70-9.96 9.53-10.13 9.53-10.35C9.53-10.57 9.70-10.75 9.94-10.75L10.69-10.75L10.69-13.01C10.69-13.56 11.00-13.90 11.57-13.90L14.54-13.90C16.51-13.90 17.92-12.66 18.11-10.75L18.71-10.75C18.95-10.75 19.13-10.57 19.13-10.35C19.13-10.14 18.95-9.96 18.71-9.96L18.12-9.96C17.96-7.99 16.55-6.66 14.48-6.66L12.39-6.66L12.39-3.79C12.39-3.26 12.06-2.93 11.53-2.93ZM12.39-10.75L16.36-10.75C16.20-11.93 15.34-12.54 14.10-12.54L12.39-12.54ZM12.39-7.99L14.07-7.99C15.42-7.99 16.25-8.68 16.37-9.96L12.39-9.96Z" fill="currentColor"/>
</svg>