<svg xmlns="http://www.w3.org/2000/svg" viewBox="0 0 24 24" width="24" height="24">
  <title>pesosign</title>
  <path transform="matrix(0.9377289377289377, 0, 0, 0.9377289377289377, 0.6043956043956049, 19.945054945054945)" d="M6.74 2.19C7.63 2.19 8.21 1.59 8.21 0.69L8.21-4.80L12.41-4.80C15.70-4.80 18.13-6.66 19.05-9.42L20.57-9.42C21-9.42 21.32-9.74 21.32-10.16C21.32-10.58 21-10.90 20.57-10.90L19.38-10.90C19.43-11.26 19.45-11.64 19.45-12.01C19.45-12.36 19.43-12.70 19.39-13.04L20.57-13.04C21-13.04 21.32-13.36 21.32-13.78C21.32-14.20 21-14.52 20.57-14.52L19.08-14.52C18.18-17.30 15.76-19.14 12.50-19.14L6.77-19.14C5.85-19.14 5.25-18.54 5.25-17.59L5.25-14.52L3.74-14.52C3.30-14.52 2.99-14.20 2.99-13.78C2.99-13.35 3.30-13.04 3.74-13.04L5.25-13.04L5.25-10.90L3.74-10.90C3.30-10.90 2.99-10.58 2.99-10.16C2.99-9.73 3.30-9.42 3.74-9.42L5.25-9.42L5.25 0.69C5.25 1.59 5.85 2.19 6.74 2.19ZM8.21-16.73L11.77-16.73C13.76-16.73 15.18-15.93 15.91-14.52L8.21-14.52ZM16.46-12.01C16.46-11.61 16.43-11.25 16.37-10.90L8.21-10.90L8.21-13.04L16.38-13.04C16.44-12.71 16.46-12.36 16.46-12.01ZM8.21-7.20L8.21-9.42L15.89-9.42C15.16-8.02 13.73-7.20 11.75-7.20Z" fill="currentColor"/>
</svg>