<svg xmlns="http://www.w3.org/2000/svg" viewBox="0 0 24 24" width="24" height="24">
  <title>phone.arrow.down.left.fill</title>
  <path transform="matrix(0.8884261669269478, 0, 0, 0.8884261669269478, -0.39458615304528877, 19.51691827173347)" d="M8.79-3.53C12.30-0.01 16.49 2.66 19.86 2.66C21.46 2.66 22.84 2.03 23.74 1.01C24.61 0.04 24.94-0.70 24.94-1.35C24.94-1.85 24.62-2.31 23.84-2.86L20.93-4.95C20.20-5.46 19.88-5.55 19.45-5.55C19.08-5.55 18.77-5.48 18.15-5.14L16.25-4.10C16.03-3.98 15.93-3.95 15.76-3.95C15.54-3.95 15.39-4.01 15.16-4.10C14.25-4.52 12.97-5.52 11.85-6.66C10.72-7.78 9.84-8.93 9.39-9.84C9.33-9.96 9.26-10.14 9.26-10.34C9.26-10.49 9.34-10.63 9.43-10.79L10.55-12.70C10.84-13.23 10.93-13.51 10.93-13.92C10.93-14.39 10.78-14.88 10.32-15.52L8.33-18.30C7.77-19.10 7.30-19.58 6.66-19.58C5.86-19.58 4.90-18.96 4.21-18.30C3.22-17.34 2.70-16.01 2.70-14.51C2.70-11.12 5.31-7.01 8.79-3.53ZM24.12-10.41C24.09-10.95 23.70-11.34 23.17-11.33L21.45-11.34L18.34-11.12L20.13-12.77L24.88-17.53C25.10-17.75 25.21-18 25.21-18.29C25.20-18.82 24.77-19.24 24.20-19.23C23.92-19.24 23.68-19.14 23.48-18.94L18.73-14.19L17.05-12.38L17.30-15.48L17.31-17.17C17.30-17.70 16.89-18.11 16.35-18.13C15.82-18.15 15.35-17.72 15.35-17.18L15.35-10.56C15.36-9.81 15.76-9.40 16.52-9.40L23.18-9.40C23.72-9.40 24.15-9.86 24.12-10.41Z" fill="currentColor"/>
</svg>