<svg xmlns="http://www.w3.org/2000/svg" viewBox="0 0 24 24" width="24" height="24">
  
  <path transform="matrix(0.8185451638689049, 0, 0, 0.8185451638689049, 0.2589928057553963, 19.41007194244604)" d="M17.24-11.43L18.52-11.43C19.16-11.43 19.46-11.78 19.46-12.34L19.46-20.39C19.46-20.93 19.16-21.27 18.52-21.27L17.24-21.27C16.59-21.27 16.29-20.93 16.29-20.39L16.29-12.34C16.29-11.78 16.59-11.43 17.24-11.43ZM22.97-11.43L24.26-11.43C24.88-11.43 25.18-11.78 25.18-12.34L25.18-20.39C25.18-20.93 24.88-21.27 24.26-21.27L22.97-21.27C22.34-21.27 22.02-20.93 22.02-20.39L22.02-12.34C22.02-11.78 22.32-11.43 22.97-11.43ZM20.02 3.16C22.07 3.16 23.45 2.58 24.70 1.21C24.79 1.11 24.87 1.02 24.96 0.93C25.64 0.15 25.99-0.64 25.99-1.38C25.99-2.26 25.52-3.08 24.47-3.80L21.47-5.86C20.51-6.53 19.68-6.56 18.55-6L16.79-5.13C16.41-4.95 16.08-4.91 15.67-5.19C15.13-5.55 13.91-6.55 13.07-7.39C12.25-8.23 11.41-9.23 11.00-9.90C10.83-10.21 10.84-10.49 11.06-10.85L12.09-12.50C12.57-13.30 12.68-14.27 12.09-15.12L9.67-18.59C8.95-19.59 8.13-20.07 7.25-20.09C6.52-20.09 5.73-19.76 4.96-19.08C4.86-19.00 4.77-18.90 4.68-18.83C3.29-17.57 2.70-16.20 2.70-14.03C2.70-10.62 4.69-6.53 8.57-2.68C12.42 1.16 16.49 3.16 20.02 3.16ZM20.02 1.23C17.03 1.28 13.27-0.86 10.03-4.07C6.79-7.29 4.59-11.16 4.64-14.10C4.66-15.40 5.12-16.50 6.01-17.27C6.09-17.36 6.18-17.41 6.26-17.48C6.59-17.77 6.95-17.92 7.27-17.92C7.61-17.92 7.91-17.78 8.14-17.43L10.22-14.33C10.43-14.02 10.42-13.72 10.17-13.30L9.04-11.43C8.53-10.61 8.59-9.93 9.12-9.20C9.80-8.27 10.78-7.02 11.75-6.07C12.80-5.03 14.24-3.82 15.01-3.30C15.74-2.80 16.43-2.68 17.48-3.20L19.34-4.10C19.82-4.34 20.20-4.32 20.61-4.05L23.31-2.26C23.66-2.03 23.80-1.72 23.80-1.38C23.80-1.07 23.65-0.70 23.36-0.38C23.30-0.28 23.24-0.21 23.16-0.13C22.38 0.76 21.28 1.21 20.02 1.23Z" fill="currentColor"/>
</svg>