<svg xmlns="http://www.w3.org/2000/svg" viewBox="0 0 24 24" width="24" height="24">
  
  <path transform="matrix(0.8260729267505647, 0, 0, 0.8260729267505647, 0.2671829622458859, 18.989351403678604)" d="M14.20 3.64C20.88 3.64 26.31-1.78 26.31-8.46C26.31-15.14 20.88-20.57 14.20-20.57C7.52-20.57 2.10-15.14 2.10-8.46C2.10-1.78 7.52 3.64 14.20 3.64ZM14.20 1.25C8.82 1.25 4.48-3.08 4.48-8.46C4.48-13.84 8.82-18.19 14.20-18.19C19.58-18.19 23.93-13.84 23.93-8.46C23.93-3.08 19.58 1.25 14.20 1.25ZM14.89-9.16L15.57-9.16C15.97-9.16 16.16-9.39 16.16-9.74L16.16-14.02C16.16-14.34 15.97-14.58 15.57-14.58L14.89-14.58C14.50-14.58 14.30-14.36 14.30-14.02L14.30-9.74C14.30-9.39 14.50-9.16 14.89-9.16ZM17.94-9.16L18.62-9.16C19.01-9.16 19.21-9.39 19.21-9.74L19.21-14.02C19.21-14.34 19.01-14.58 18.62-14.58L17.94-14.58C17.54-14.58 17.33-14.36 17.33-14.02L17.33-9.74C17.33-9.39 17.53-9.16 17.94-9.16ZM10.71-5.02C12.61-3.13 14.87-1.69 16.70-1.69C17.57-1.69 18.29-2.03 18.80-2.58C19.27-3.11 19.43-3.49 19.43-3.86C19.43-4.13 19.27-4.37 18.84-4.66L17.27-5.79C16.89-6.08 16.70-6.13 16.46-6.13C16.27-6.13 16.11-6.09 15.77-5.91L14.74-5.33C14.63-5.27 14.57-5.26 14.47-5.26C14.36-5.26 14.27-5.29 14.16-5.33C13.65-5.57 12.97-6.11 12.35-6.71C11.75-7.31 11.29-7.95 11.03-8.43C11.00-8.51 10.96-8.61 10.96-8.71C10.96-8.79 11.00-8.87 11.05-8.95L11.65-9.98C11.81-10.27 11.87-10.42 11.87-10.64C11.87-10.90 11.79-11.17 11.54-11.51L10.45-13.02C10.16-13.45 9.90-13.70 9.55-13.70C9.13-13.70 8.61-13.37 8.24-13.01C7.70-12.50 7.42-11.78 7.42-10.97C7.42-9.14 8.82-6.91 10.71-5.02Z" fill="currentColor"/>
</svg>