<svg xmlns="http://www.w3.org/2000/svg" viewBox="0 0 24 24" width="24" height="24">
  <title>pills</title>
  <path transform="matrix(0.7011416827623346, 0, 0, 0.7011416827623346, 0.11123309126336811, 17.69455185428754)" d="M4.42-2.46C6.74-0.15 9.80-0.15 12.09-2.45L20.82-11.18C23.11-13.48 23.11-16.57 20.81-18.86C18.49-21.15 15.43-21.15 13.15-18.87L4.41-10.13C2.12-7.84 2.12-4.75 4.42-2.46ZM14.66-17.09C16.04-18.47 17.85-18.52 19.16-17.19C20.47-15.88 20.43-14.07 19.05-12.70L15.64-9.29L11.26-13.69ZM6.08-4.11C4.76-5.44 4.80-7.23 6.18-8.61L9.60-12.02L13.99-7.64L10.57-4.22C9.19-2.85 7.39-2.80 6.08-4.11ZM24.60 4.34C28.27 4.34 31.22 1.37 31.22-2.30C31.22-5.92 28.25-8.88 24.60-8.88C20.96-8.88 18-5.92 18-2.30C18 1.36 20.95 4.34 24.60 4.34ZM24.60-6.59C26.59-6.59 28.28-5.24 28.77-3.42L20.44-3.42C20.94-5.24 22.62-6.59 24.60-6.59ZM24.60 2.03C22.62 2.03 20.94 0.68 20.44-1.15L28.78-1.15C28.28 0.69 26.60 2.03 24.60 2.03Z" fill="currentColor"/>
</svg>