<svg xmlns="http://www.w3.org/2000/svg" viewBox="0 0 24 24" width="24" height="24">
  <title>play.house</title>
  <path transform="matrix(0.6988806988806989, 0, 0, 0.6988806988806989, -0.08845208845208852, 17.913185913185913)" d="M4.20-8.07C4.56-8.07 4.88-8.26 5.16-8.51L6.55-9.67L6.55 1.34C6.55 3.07 7.59 4.09 9.38 4.09L25.23 4.09C27 4.09 28.04 3.07 28.04 1.34L28.04-9.67L29.44-8.51C29.72-8.26 30.05-8.07 30.41-8.07C31.15-8.07 31.61-8.59 31.61-9.20C31.61-9.53 31.45-9.87 31.15-10.13L28.04-12.73L28.04-17.59C28.04-18.11 27.70-18.45 27.19-18.45L25.61-18.45C25.08-18.45 24.73-18.11 24.73-17.59L24.73-15.50L18.94-20.38C18.42-20.80 17.86-21.01 17.30-21.01C16.73-21.01 16.17-20.80 15.66-20.38L3.45-10.13C3.14-9.87 2.99-9.53 2.99-9.20C2.99-8.59 3.45-8.07 4.20-8.07ZM9.97 1.79C9.25 1.79 8.85 1.38 8.85 0.64L8.85-11.60L16.80-18.27C16.96-18.41 17.13-18.47 17.30-18.47C17.46-18.47 17.64-18.41 17.80-18.27L25.75-11.60L25.75 0.64C25.75 1.38 25.35 1.79 24.62 1.79ZM13.93-1.75C13.93-1.17 14.55-0.94 15.04-1.22L22.39-5.53C22.86-5.81 22.85-6.45 22.38-6.71L15.04-11.04C14.55-11.32 13.93-11.09 13.93-10.50Z" fill="currentColor"/>
</svg>