<svg xmlns="http://www.w3.org/2000/svg" viewBox="0 0 24 24" width="24" height="24">
  <title>play.square.fill</title>
  <path transform="matrix(0.9141224781289056, 0, 0, 0.9141224781289056, -0.7316550615961437, 19.728976968398502)" d="M6.83 2.48L21.02 2.48C23.55 2.48 24.87 1.18 24.87-1.32L24.87-15.59C24.87-18.08 23.55-19.39 21.02-19.39L6.83-19.39C4.30-19.39 2.99-18.09 2.99-15.59L2.99-1.32C2.99 1.18 4.30 2.48 6.83 2.48ZM11.84-3.69C11.18-3.29 10.42-3.62 10.42-4.34L10.42-12.59C10.42-13.29 11.21-13.59 11.84-13.23L18.60-9.23C19.20-8.87 19.21-8.03 18.60-7.68Z" fill="currentColor"/>
</svg>