<svg xmlns="http://www.w3.org/2000/svg" viewBox="0 0 24 24" width="24" height="24">
  
  <path transform="matrix(0.8260729267505647, 0, 0, 0.8260729267505647, 0.2671829622458859, 18.989351403678604)" d="M14.20 3.64C20.88 3.64 26.31-1.78 26.31-8.46C26.31-15.14 20.88-20.57 14.20-20.57C7.52-20.57 2.10-15.14 2.10-8.46C2.10-1.78 7.52 3.64 14.20 3.64ZM14.20 1.25C8.82 1.25 4.48-3.08 4.48-8.46C4.48-13.84 8.82-18.19 14.20-18.19C19.58-18.19 23.93-13.84 23.93-8.46C23.93-3.08 19.58 1.25 14.20 1.25ZM10.97-9.79L13.31-9.79L13.31-7.48C13.31-6.97 13.71-6.57 14.21-6.57C14.72-6.57 15.12-6.97 15.12-7.48L15.12-9.79L17.45-9.79C17.95-9.79 18.35-10.18 18.35-10.69C18.35-11.20 17.95-11.60 17.45-11.60L15.12-11.60L15.12-13.91C15.12-14.43 14.72-14.82 14.21-14.82C13.71-14.81 13.31-14.43 13.31-13.91L13.31-11.60L10.97-11.60C10.46-11.60 10.07-11.20 10.07-10.69C10.07-10.18 10.46-9.79 10.97-9.79ZM11.00-2.86L17.41-2.86C17.94-2.86 18.35-3.29 18.35-3.76C18.35-4.27 17.94-4.68 17.41-4.68L11.00-4.68C10.48-4.68 10.07-4.27 10.07-3.76C10.07-3.29 10.48-2.86 11.00-2.86Z" fill="currentColor"/>
</svg>