<svg xmlns="http://www.w3.org/2000/svg" viewBox="0 0 24 24" width="24" height="24">
  <title>plusminus.circle.fill</title>
  <path transform="matrix(0.8260729267505647, 0, 0, 0.8260729267505647, 0.2671829622458859, 18.97967086156825)" d="M14.20 3.66C20.88 3.66 26.31-1.77 26.31-8.45C26.31-15.13 20.88-20.55 14.20-20.55C7.52-20.55 2.10-15.13 2.10-8.45C2.10-1.77 7.52 3.66 14.20 3.66ZM10.85-9.80C10.32-9.80 9.90-10.22 9.90-10.75C9.90-11.29 10.32-11.70 10.85-11.70L13.27-11.70L13.27-14.10C13.27-14.63 13.70-15.05 14.23-15.05C14.75-15.05 15.18-14.64 15.18-14.10L15.18-11.70L17.59-11.70C18.12-11.70 18.53-11.29 18.53-10.75C18.53-10.22 18.12-9.80 17.59-9.80L15.18-9.80L15.18-7.39C15.18-6.88 14.75-6.46 14.23-6.46C13.70-6.46 13.27-6.88 13.27-7.41L13.27-9.80ZM10.89-2.60C10.34-2.60 9.90-3.06 9.90-3.55C9.90-4.08 10.34-4.51 10.89-4.51L17.55-4.51C18.09-4.51 18.53-4.08 18.53-3.55C18.53-3.06 18.09-2.60 17.55-2.60Z" fill="currentColor"/>
</svg>