<svg xmlns="http://www.w3.org/2000/svg" viewBox="0 0 24 24" width="24" height="24">
  
  <path transform="matrix(0.8328920868834774, 0, 0, 0.8328920868834774, 4.814468166136717, 19.091935073316392)" d="M13.20-6.80L15.86-6.64C16.77-6.59 17.20-7.58 16.56-8.24L4.79-20.21C4.20-20.82 3.27-20.47 3.26-19.62L3.23-16.72ZM-1.66-16.93L17.59 2.27C17.95 2.64 18.56 2.64 18.91 2.27C19.27 1.90 19.28 1.31 18.91 0.95L-0.33-18.25C-0.69-18.61-1.29-18.62-1.66-18.25C-2.02-17.89-2.02-17.29-1.66-16.93ZM4.70-2.30L7.66-5.59L10.84 2.29C11.24 3.27 12.40 3.76 13.39 3.34C14.11 3.06 14.55 2.40 14.59 1.70L14.27 1.00L7.65-5.61L3.14-10.10L3.05-2.93C3.04-1.99 4.08-1.59 4.70-2.30Z" fill="currentColor"/>
</svg>