<svg xmlns="http://www.w3.org/2000/svg" viewBox="0 0 24 24" width="24" height="24">
  <title>polishzlotysign</title>
  <path transform="matrix(0.8628244017526121, 0, 0, 0.8628244017526121, 0.614762386248735, 19.30030333670374)" d="M17.75-7.28L18.26-7.55L18.26 1.59C18.26 2.53 18.84 3.13 19.71 3.13C20.53 3.13 21.16 2.57 21.16 1.59L21.16-9.13L22.69-9.96C23.19-10.22 23.40-10.61 23.40-10.98C23.40-11.65 22.68-12.25 21.84-11.81L21.16-11.44L21.16-18.53C21.16-19.45 20.58-20.05 19.71-20.05C18.84-20.05 18.26-19.45 18.26-18.53L18.26-9.87L16.82-9.09C16.36-8.85 16.15-8.45 16.15-8.09C16.15-7.39 16.85-6.80 17.75-7.28ZM4.31 2.82L13.44 2.82C14.17 2.82 14.64 2.39 14.64 1.69C14.64 0.97 14.17 0.55 13.44 0.55L6.66 0.55L6.66 0.32L14.03-10.64C14.37-11.13 14.52-11.43 14.52-12C14.52-12.96 13.88-13.39 13.08-13.39L4.18-13.39C3.47-13.39 2.99-12.94 2.99-12.25C2.99-11.55 3.47-11.10 4.18-11.10L11.09-11.10L11.09-10.86L3.41 0.38C3.15 0.75 2.99 1.07 2.99 1.54C2.99 2.30 3.52 2.82 4.31 2.82Z" fill="currentColor"/>
</svg>