<svg xmlns="http://www.w3.org/2000/svg" viewBox="0 0 24 24" width="24" height="24">
  
  <path transform="matrix(0.883367839889579, 0, 0, 0.883367839889579, -0.639751552795031, 19.458592132505174)" d="M6.83 2.50L21.79 2.50C24.32 2.50 25.63 1.18 25.63-1.31L25.63-15.57C25.63-18.08 24.32-19.38 21.79-19.38L6.83-19.38C4.30-19.38 2.99-18.08 2.99-15.57L2.99-1.31C2.99 1.20 4.30 2.50 6.83 2.50ZM6.97 0.20C5.88 0.20 5.29-0.38 5.29-1.51L5.29-15.39C5.29-16.52 5.88-17.09 6.97-17.09L21.64-17.09C22.72-17.09 23.33-16.52 23.33-15.39L23.33-1.51C23.33-0.38 22.72 0.20 21.64 0.20ZM14.31-9.75C15.53-9.75 16.52-10.73 16.52-11.96C16.52-13.18 15.53-14.17 14.31-14.17C13.08-14.17 12.09-13.18 12.09-11.96C12.09-10.73 13.08-9.75 14.31-9.75ZM10.39-2.73C11.38-2.73 12.19-3.54 12.19-4.52C12.19-5.51 11.38-6.32 10.39-6.32C9.40-6.32 8.60-5.51 8.60-4.52C8.60-3.54 9.40-2.73 10.39-2.73ZM18.22-2.73C19.21-2.73 20.02-3.54 20.02-4.52C20.02-5.51 19.21-6.32 18.22-6.32C17.24-6.32 16.43-5.51 16.43-4.52C16.43-3.54 17.24-2.73 18.22-2.73Z" fill="currentColor"/>
</svg>