<svg xmlns="http://www.w3.org/2000/svg" viewBox="0 0 24 24" width="24" height="24">
  <title>poweroutlet.type.m.square</title>
  <path transform="matrix(0.9141224781289056, 0, 0, 0.9141224781289056, -0.7316550615961437, 19.728976968398502)" d="M6.83 2.48L21.02 2.48C23.55 2.48 24.87 1.18 24.87-1.32L24.87-15.59C24.87-18.08 23.55-19.39 21.02-19.39L6.83-19.39C4.30-19.39 2.99-18.09 2.99-15.59L2.99-1.32C2.99 1.18 4.30 2.48 6.83 2.48ZM6.97 0.19C5.88 0.19 5.29-0.38 5.29-1.51L5.29-15.39C5.29-16.52 5.88-17.10 6.97-17.10L20.88-17.10C21.96-17.10 22.57-16.52 22.57-15.39L22.57-1.51C22.57-0.38 21.96 0.19 20.88 0.19ZM9.54-3.06L18.32-3.06C19.01-3.06 19.51-3.55 19.51-4.25L19.51-12.68C19.51-13.37 19.01-13.88 18.32-13.88L9.54-13.88C8.85-13.88 8.34-13.37 8.34-12.68L8.34-4.25C8.34-3.55 8.85-3.06 9.54-3.06ZM13.93-9.53C13.28-9.53 12.74-10.05 12.74-10.72C12.74-11.39 13.28-11.91 13.93-11.91C14.59-11.91 15.13-11.39 15.13-10.72C15.13-10.05 14.59-9.53 13.93-9.53ZM11.46-5.02C10.82-5.02 10.29-5.53 10.29-6.19C10.29-6.84 10.82-7.36 11.46-7.36C12.12-7.36 12.64-6.84 12.64-6.19C12.64-5.53 12.12-5.02 11.46-5.02ZM16.41-5.02C15.76-5.02 15.22-5.53 15.22-6.19C15.22-6.84 15.76-7.36 16.41-7.36C17.06-7.36 17.59-6.84 17.59-6.19C17.59-5.53 17.06-5.02 16.41-5.02Z" fill="currentColor"/>
</svg>