<svg xmlns="http://www.w3.org/2000/svg" viewBox="0 0 24 24" width="24" height="24">
  
  <path transform="matrix(0.7691152170647438, 0, 0, 0.7691152170647438, 4.38846327174403, 18.50292924740874)" d="M6.77 4.55L13.01 4.55C15.48 4.55 16.80 3.25 16.80 0.80L16.80-17.71C16.80-20.14 15.48-21.46 13.01-21.46L6.77-21.46C4.31-21.46 2.99-20.14 2.99-17.71L2.99 0.80C2.99 3.25 4.31 4.55 6.77 4.55ZM9.90-13.11C8.87-13.11 8.03-13.95 8.03-14.99C8.03-16.01 8.87-16.85 9.90-16.85C10.93-16.85 11.78-16.01 11.78-14.99C11.78-13.95 10.93-13.11 9.90-13.11ZM9.90-6.59C8.87-6.59 8.03-7.42 8.03-8.46C8.03-9.49 8.87-10.32 9.90-10.32C10.93-10.32 11.78-9.49 11.78-8.46C11.78-7.42 10.93-6.59 9.90-6.59ZM9.90-0.06C8.87-0.06 8.03-0.90 8.03-1.93C8.03-2.96 8.87-3.80 9.90-3.80C10.93-3.80 11.78-2.96 11.78-1.93C11.78-0.90 10.93-0.06 9.90-0.06Z" fill="currentColor"/>
</svg>