<svg xmlns="http://www.w3.org/2000/svg" viewBox="0 0 24 24" width="24" height="24">
  
  <path transform="matrix(0.6320694018247206, 0, 0, 0.6320694018247206, 0.48803640332681897, 17.35530676780398)" d="M11.20-16.84C9.52-16.84 8.53-16.11 7.31-14.87L3.35-10.70C2.06-9.38 2.09-7.65 3.34-6.32L7.30-2.07C8.41-0.91 9.63-0.11 11.20-0.11L25.23-0.11C26.80-0.11 28.01-0.91 29.12-2.07L33.08-6.32C34.35-7.65 34.36-9.38 33.07-10.70L29.11-14.87C27.89-16.11 26.91-16.84 25.23-16.84ZM10.32-10.61C11.50-10.61 12.47-9.66 12.47-8.48C12.47-7.31 11.50-6.34 10.32-6.34C9.15-6.34 8.20-7.31 8.20-8.48C8.20-9.66 9.15-10.61 10.32-10.61ZM26.12-10.61C27.28-10.61 28.24-9.66 28.24-8.48C28.24-7.31 27.28-6.34 26.12-6.34C24.95-6.34 23.98-7.31 23.98-8.48C23.98-9.66 24.95-10.61 26.12-10.61ZM18.22-8.58C19.39-8.58 20.36-7.62 20.36-6.45C20.36-5.27 19.39-4.31 18.22-4.31C17.05-4.31 16.09-5.27 16.09-6.45C16.09-7.62 17.05-8.58 18.22-8.58Z" fill="currentColor"/>
</svg>