<svg xmlns="http://www.w3.org/2000/svg" viewBox="0 0 24 24" width="24" height="24">
  <title>questionmark.diamond.fill</title>
  <path transform="matrix(0.7424306944982861, 0, 0, 0.7424306944982861, 0.22517200351409628, 18.281659704231593)" d="M3.75-5.74L13.15 3.66C14.94 5.45 16.78 5.46 18.56 3.68L28.01-5.77C29.78-7.55 29.77-9.39 27.98-11.18L18.59-20.58C16.78-22.37 14.95-22.38 13.17-20.60L3.71-11.16C1.93-9.38 1.96-7.54 3.75-5.74ZM15.59-6.02C14.84-6.02 14.43-6.39 14.43-7.08L14.43-7.21C14.43-8.32 15.06-8.94 15.93-9.55C16.96-10.27 17.46-10.64 17.46-11.41C17.46-12.23 16.80-12.81 15.82-12.81C15.11-12.81 14.53-12.47 14.11-11.80L13.92-11.54C13.68-11.23 13.37-11.04 12.93-11.04C12.43-11.04 11.96-11.40 11.96-11.99C11.96-12.22 12.01-12.42 12.08-12.63C12.47-13.77 13.88-14.72 15.97-14.72C18.14-14.72 19.98-13.57 19.98-11.53C19.98-10.11 19.20-9.41 17.99-8.64C17.20-8.12 16.77-7.70 16.73-7.07C16.72-7.02 16.72-6.97 16.72-6.93C16.69-6.42 16.27-6.02 15.59-6.02ZM15.57-2.30C14.79-2.30 14.13-2.87 14.13-3.63C14.13-4.39 14.78-4.98 15.57-4.98C16.36-4.98 17.00-4.41 17.00-3.63C17.00-2.86 16.35-2.30 15.57-2.30Z" fill="currentColor"/>
</svg>