<svg xmlns="http://www.w3.org/2000/svg" viewBox="0 0 24 24" width="24" height="24">
  
  <path transform="matrix(0.8260729267505647, 0, 0, 0.8260729267505647, 0.2671829622458859, 18.989351403678604)" d="M14.20 3.64C20.88 3.64 26.31-1.78 26.31-8.46C26.31-15.14 20.88-20.57 14.20-20.57C7.52-20.57 2.10-15.14 2.10-8.46C2.10-1.78 7.52 3.64 14.20 3.64ZM13.93-6.02C13.18-6.02 12.77-6.39 12.77-7.08L12.77-7.21C12.77-8.32 13.41-8.94 14.26-9.55C15.30-10.27 15.81-10.64 15.81-11.41C15.81-12.23 15.15-12.81 14.17-12.81C13.44-12.81 12.88-12.47 12.46-11.80L12.27-11.54C12.02-11.23 11.72-11.04 11.27-11.04C10.78-11.04 10.31-11.40 10.31-11.99C10.31-12.22 10.36-12.42 10.43-12.63C10.82-13.77 12.22-14.72 14.32-14.72C16.49-14.72 18.32-13.57 18.32-11.53C18.32-10.11 17.53-9.41 16.34-8.64C15.54-8.12 15.12-7.70 15.07-7.07C15.07-7.02 15.07-6.97 15.07-6.93C15.04-6.42 14.60-6.02 13.93-6.02ZM13.91-2.30C13.14-2.30 12.48-2.87 12.48-3.63C12.48-4.39 13.13-4.98 13.91-4.98C14.71-4.98 15.35-4.41 15.35-3.63C15.35-2.86 14.70-2.30 13.91-2.30Z" fill="currentColor"/>
</svg>