<svg xmlns="http://www.w3.org/2000/svg" viewBox="0 0 24 24" width="24" height="24">
  
  <path transform="matrix(0.6764742401230646, 0, 0, 0.6764742401230646, -0.020449994715787678, 17.739461131044127)" d="M14.82 2.60C15.45 2.60 15.94 2.11 15.94 1.50L15.94-18.47C15.94-19.09 15.43-19.57 14.82-19.57C14.21-19.57 13.71-19.09 13.71-18.47L13.71 1.50C13.71 2.11 14.21 2.60 14.82 2.60ZM20.72 2.60C21.34 2.60 21.83 2.11 21.83 1.50L21.83-18.47C21.83-19.09 21.33-19.57 20.72-19.57C20.11-19.57 19.61-19.09 19.61-18.47L19.61 1.50C19.61 2.11 20.11 2.60 20.72 2.60ZM7.58-4.73C8.48-4.14 9.52-4.46 9.50-5.55L9.50-11.38C9.52-12.50 8.52-12.86 7.58-12.22L3.53-9.46C2.82-8.96 2.79-7.93 3.53-7.44ZM27.96-4.73L32.02-7.44C32.74-7.93 32.72-8.98 32.02-9.46L27.96-12.22C27.01-12.86 26.04-12.50 26.04-11.38L26.04-5.55C26.04-4.46 27.06-4.13 27.96-4.73Z" fill="currentColor"/>
</svg>