<svg xmlns="http://www.w3.org/2000/svg" viewBox="0 0 24 24" width="24" height="24">
  
  <path transform="matrix(0.6711560141891862, 0, 0, 0.6711560141891862, 1.4017648931258384, 16.872922142559585)" d="M29.48-8.46C29.48-16.02 23.36-22.16 15.79-22.16C8.23-22.16 2.10-16.02 2.10-8.46C2.10-2.58 5.82 2.46 11.06 4.39C10.92 3.64 11.13 2.92 11.58 2.37C7.23 0.67 4.17-3.53 4.17-8.46C4.17-14.89 9.35-20.10 15.79-20.10C22.23-20.10 27.42-14.89 27.42-8.46C27.42-3.52 24.35 0.68 19.99 2.38C20.44 2.92 20.63 3.66 20.51 4.38C25.73 2.47 29.48-2.57 29.48-8.46ZM6.36-8.46C6.36-3.25 10.58 0.96 15.79 0.96C21 0.96 25.22-3.25 25.22-8.46C25.22-13.66 21-17.89 15.79-17.89C10.58-17.89 6.36-13.66 6.36-8.46ZM13.38-3.87C12.75-3.87 12.41-4.29 12.41-4.92L12.41-12.11C12.41-12.76 12.77-13.20 13.38-13.20L16.11-13.20C18.18-13.20 19.54-12.04 19.54-10.15C19.54-8.96 18.86-7.92 17.79-7.48L19.08-5.44C19.22-5.23 19.31-4.99 19.31-4.75C19.31-4.23 18.93-3.87 18.38-3.87C17.93-3.87 17.65-4.04 17.38-4.50L15.84-7.16L14.40-7.16L14.40-4.92C14.40-4.29 14.04-3.87 13.38-3.87ZM14.40-8.65L15.88-8.65C16.95-8.65 17.55-9.14 17.55-10.10C17.55-11.06 16.91-11.64 15.91-11.64L14.40-11.64ZM18.60 4.41C19.10 3.75 18.81 2.92 17.96 2.92L13.61 2.92C12.74 2.92 12.47 3.75 12.96 4.39L15.14 7.30C15.48 7.75 16.10 7.76 16.43 7.30Z" fill="currentColor"/>
</svg>