<svg xmlns="http://www.w3.org/2000/svg" viewBox="0 0 24 24" width="24" height="24">
  <title>r1.circle.fill</title>
  <path transform="matrix(0.8260729267505647, 0, 0, 0.8260729267505647, 0.2671829622458859, 18.989351403678604)" d="M14.20 3.64C20.88 3.64 26.31-1.78 26.31-8.46C26.31-15.14 20.88-20.57 14.20-20.57C7.52-20.57 2.10-15.14 2.10-8.46C2.10-1.78 7.52 3.64 14.20 3.64ZM18.48-3.71C17.99-3.71 17.59-4.13 17.59-4.63L17.59-11.37L16.62-10.59C16.49-10.49 16.36-10.43 16.18-10.43C15.83-10.43 15.55-10.68 15.55-11.07C15.55-11.39 15.70-11.63 15.94-11.80L17.13-12.73C17.44-12.96 17.84-13.22 18.34-13.22C18.98-13.22 19.38-12.86 19.38-12.21L19.38-4.63C19.38-4.13 18.98-3.71 18.48-3.71ZM9.79-3.69C9.19-3.69 8.86-4.07 8.86-4.64L8.86-12.12C8.86-12.70 9.18-13.05 9.77-13.05L11.67-13.05C13.48-13.05 14.58-12.06 14.58-10.17C14.58-9.16 14.20-8.17 13.32-7.69L14.34-5.19C14.46-4.95 14.52-4.72 14.52-4.57C14.52-3.96 14.11-3.69 13.68-3.69C13.18-3.69 12.90-3.96 12.74-4.44L11.64-7.31L10.66-7.31L10.66-4.64C10.66-4.05 10.34-3.69 9.79-3.69ZM10.66-8.60L11.51-8.60C12.38-8.60 12.76-9.28 12.76-10.13C12.76-10.99 12.33-11.64 11.51-11.64L10.66-11.64Z" fill="currentColor"/>
</svg>