<svg xmlns="http://www.w3.org/2000/svg" viewBox="0 0 24 24" width="24" height="24">
  <title>rectangle.filled.and.hand.point.up.left</title>
  <path transform="matrix(0.6899641248480984, 0, 0, 0.6899641248480984, -0.0618068574562316, 18.128349496015172)" d="M6.70-2.88L12.98-2.88L15.82 0.53C18.82 4.16 22.41 5.27 26.37 3.83C31.20 2.07 33.15-2.23 31.27-7.49L30.33-10.07C29.48-12.42 27.88-13.51 25.99-13.13L25.99-18.54C25.99-20.98 24.74-22.21 22.29-22.21L6.70-22.21C4.24-22.21 2.99-20.98 2.99-18.54L2.99-6.55C2.99-4.13 4.24-2.88 6.70-2.88ZM25.77 1.99C22.71 3.12 19.90 2.50 17.24-0.66L13.29-5.31C13.20-5.43 13.13-5.54 13.05-5.72C12.93-6.06 13.08-6.43 13.48-6.57C13.80-6.69 14.07-6.57 14.32-6.29L17.06-3.54C17.53-3.07 17.95-3.02 18.38-3.16C18.87-3.35 19.11-3.88 18.90-4.45L14.79-15.77C14.63-16.18 14.81-16.58 15.21-16.73C15.62-16.88 16.00-16.69 16.15-16.27L19.05-8.30C19.21-7.86 19.70-7.66 20.13-7.83C20.54-7.98 20.78-8.44 20.63-8.87L19.58-11.70C19.73-11.84 19.93-11.96 20.13-12.04C20.61-12.21 21.02-12 21.21-11.50L22.15-8.93C22.31-8.50 22.79-8.31 23.20-8.46C23.61-8.61 23.85-9.05 23.70-9.49L22.98-11.48C23.12-11.63 23.33-11.75 23.52-11.82C24.01-12 24.41-11.79 24.60-11.29L25.23-9.57C25.39-9.13 25.86-8.94 26.29-9.11C26.71-9.25 26.95-9.70 26.79-10.15L26.39-11.26C27.27-11.58 28.08-10.89 28.64-9.33L29.47-7.04C31.04-2.72 29.63 0.59 25.77 1.99Z" fill="currentColor"/>
</svg>