<svg xmlns="http://www.w3.org/2000/svg" viewBox="0 0 24 24" width="24" height="24">
  <title>rectangle.on.rectangle.slash</title>
  <path transform="matrix(0.6756400105568752, 0, 0, 0.6756400105568752, -0.019002375296912177, 17.704671417260492)" d="M30.68 5.32C31.04 5.68 31.64 5.70 31.99 5.32C32.36 4.96 32.37 4.37 31.99 4.01L5.79-22.21C5.43-22.57 4.83-22.58 4.45-22.21C4.10-21.86 4.10-21.25 4.45-20.89ZM22.72-20.61L9.41-20.61L11.71-18.32L22.58-18.32C23.66-18.32 24.27-17.75 24.27-16.62L24.27-15.05L14.98-15.05L17.26-12.75L28.61-12.75C29.68-12.75 30.29-12.18 30.29-11.04L30.29-0.82C30.29-0.47 30.21-0.18 30.05 0.02L32.03 2.00C32.40 1.46 32.59 0.77 32.59-0.11L32.59-11.24C32.59-13.75 31.28-15.05 28.75-15.05L26.57-15.05L26.57-16.80C26.57-19.31 25.24-20.61 22.72-20.61ZM12.75 3.69L27.02 3.69L24.73 1.41L12.89 1.41C11.80 1.41 11.20 0.83 11.20-0.30L11.20-10.51C11.20-11.04 11.31-11.48 11.51-11.81L9.62-13.70C9.15-13.11 8.91-12.29 8.91-11.24L8.91-4.17L6.97-4.17C5.88-4.17 5.29-4.73 5.29-5.87L5.29-16.09C5.29-16.73 5.44-17.25 5.73-17.60L3.88-19.44C3.28-18.87 2.99-17.98 2.99-16.80L2.99-5.67C2.99-3.18 4.30-1.88 6.83-1.88L8.91-1.88L8.91-0.11C8.91 2.40 10.22 3.69 12.75 3.69Z" fill="currentColor"/>
</svg>