<svg xmlns="http://www.w3.org/2000/svg" viewBox="0 0 24 24" width="24" height="24">
  <title>road.lanes</title>
  <path transform="matrix(0.5764088043577957, 0, 0, 0.5764088043577957, 0.2770607816841273, 16.866826682106936)" d="M20.05-13.98L20.60-13.98C21.15-13.98 21.57-14.40 21.57-14.96L21.57-16.44C21.57-17.00 21.15-17.41 20.60-17.41L20.05-17.41C19.50-17.41 19.08-17.00 19.08-16.44L19.08-14.96C19.08-14.40 19.50-13.98 20.05-13.98ZM4.08 0.53L5.63 0.53C6.40 0.53 6.79 0.14 7.00-0.40C9.18-5.77 11.36-11.16 13.52-16.52C13.71-16.99 13.48-17.41 12.98-17.41L12.20-17.41C11.75-17.41 11.45-17.20 11.24-16.79C8.53-11.52 5.85-6.23 3.14-0.96C2.78-0.27 3.06 0.53 4.08 0.53ZM35.05 0.53L36.60 0.53C37.62 0.53 37.90-0.27 37.54-0.96C34.84-6.23 32.13-11.52 29.44-16.79C29.23-17.20 28.92-17.41 28.48-17.41L27.69-17.41C27.20-17.41 26.96-16.99 27.15-16.52C29.32-11.16 31.50-5.77 33.67-0.40C33.89 0.14 34.28 0.53 35.05 0.53ZM20.05-7.22L20.60-7.22C21.15-7.22 21.57-7.63 21.57-8.19L21.57-10.65C21.57-11.21 21.15-11.64 20.60-11.64L20.05-11.64C19.50-11.64 19.08-11.21 19.08-10.65L19.08-8.19C19.08-7.63 19.50-7.22 20.05-7.22ZM20.05 0.53L20.60 0.53C21.15 0.53 21.57 0.12 21.57-0.45L21.57-3.81C21.57-4.37 21.15-4.79 20.60-4.79L20.05-4.79C19.50-4.79 19.08-4.37 19.08-3.81L19.08-0.45C19.08 0.12 19.50 0.53 20.05 0.53Z" fill="currentColor"/>
</svg>