<svg xmlns="http://www.w3.org/2000/svg" viewBox="0 0 24 24" width="24" height="24">
  <title>robotic.vacuum.and.arrowtriangle.up.fill</title>
  <path transform="matrix(0.7135738890268394, 0, 0, 0.7135738890268394, 0.8908252550137947, 19.8449546794141)" d="M11.81-16.99L19.48-16.99C20.13-16.99 20.43-17.70 20.06-18.30L16.37-24.59C16.03-25.16 15.26-25.14 14.93-24.59L11.21-18.30C10.88-17.73 11.14-16.99 11.81-16.99ZM15.57-3.09C21.81-3.09 28.86-5.39 28.86-8.12C28.86-10.83 22.92-13.02 15.57-13.02C8.21-13.02 2.27-10.83 2.27-8.12C2.27-5.39 9.34-3.09 15.57-3.09ZM15.57-7.98C13.14-7.98 11.77-8.63 11.77-9.57C11.77-10.50 13.10-11.18 15.57-11.18C18.04-11.18 19.38-10.49 19.38-9.57C19.38-8.63 18.01-7.98 15.57-7.98ZM15.57-8.99C17.06-8.99 17.85-9.26 17.85-9.57C17.85-9.89 17.10-10.17 15.57-10.17C14.03-10.17 13.29-9.89 13.29-9.57C13.29-9.26 14.07-8.99 15.57-8.99ZM11.25-5.37C10.52-5.37 9.93-5.65 9.93-6.01C9.93-6.36 10.52-6.66 11.25-6.66C11.96-6.66 12.56-6.36 12.56-6.01C12.56-5.65 11.96-5.37 11.25-5.37ZM19.90-5.37C19.18-5.37 18.59-5.65 18.59-6.01C18.59-6.36 19.18-6.66 19.90-6.66C20.63-6.66 21.22-6.36 21.22-6.01C21.22-5.65 20.63-5.37 19.90-5.37ZM15.57-4.89C14.86-4.89 14.26-5.18 14.26-5.53C14.26-5.88 14.86-6.19 15.57-6.19C16.29-6.19 16.89-5.88 16.89-5.53C16.89-5.18 16.29-4.89 15.57-4.89ZM7.07 2.99C7.39 3.09 7.61 2.93 7.61 2.60L7.61 1.50C7.61 0.93 8.05 0.64 8.57 0.80C10.79 1.42 13.54 1.65 15.64 1.65C17.77 1.65 20.50 1.42 22.71 0.80C23.24 0.64 23.67 0.93 23.67 1.50L23.67 2.55C23.67 2.89 23.89 3.05 24.22 2.94C27.16 1.95 29.04 0.38 29.04-1.59L29.04-5.58C27.07-3.42 21.73-1.64 15.57-1.64C9.50-1.64 4.07-3.42 2.10-5.58L2.10-1.59C2.10 0.41 4.04 1.99 7.07 2.99Z" fill="currentColor"/>
</svg>