<svg xmlns="http://www.w3.org/2000/svg" viewBox="0 0 24 24" width="24" height="24">
  
  <path transform="matrix(0.7567779868000949, 0, 0, 0.7567779868000949, 2.09023538633344, 18.40305124769143)" d="M0.75-10.82C-0.13-10.82-0.35-10.16 0.13-9.50L2.85-5.72C3.22-5.19 3.81-5.20 4.18-5.72L6.90-9.52C7.37-10.16 7.15-10.82 6.28-10.82L4.77-10.82C5.82-15.06 9.64-18.19 14.20-18.19C19.57-18.19 23.92-13.84 23.92-8.46C23.92-3.08 19.57 1.25 14.20 1.25C11.05 1.25 8.30-0.23 6.53-2.55C6.06-3.09 5.38-3.27 4.80-2.86C4.27-2.48 4.15-1.70 4.66-1.08C6.89 1.82 10.34 3.64 14.20 3.64C20.88 3.64 26.31-1.78 26.31-8.46C26.31-15.14 20.88-20.57 14.20-20.57C8.32-20.57 3.43-16.38 2.33-10.82ZM9.77-3.89C10.24-3.89 10.50-4.18 10.50-4.64L10.50-7.50L11.75-7.50L13.03-4.45C13.18-4.08 13.41-3.89 13.77-3.89C14.17-3.89 14.50-4.15 14.50-4.58C14.50-4.77 14.43-4.92 14.33-5.12L13.16-7.79C14.10-8.23 14.54-9.21 14.54-10.23C14.54-11.81 13.63-12.95 11.74-12.95L9.76-12.95C9.32-12.95 9.04-12.67 9.04-12.20L9.04-4.64C9.04-4.18 9.30-3.89 9.77-3.89ZM10.50-8.61L10.50-11.78L11.60-11.78C12.54-11.78 13.07-11.16 13.07-10.21C13.07-9.27 12.57-8.61 11.61-8.61ZM17.91-3.88C19.24-3.88 20.39-4.62 20.39-5.99C20.39-7.08 19.72-7.55 18.64-7.83L17.71-8.07C17.23-8.19 16.84-8.45 16.84-8.94C16.84-9.52 17.29-9.87 17.86-9.87C18.47-9.87 18.87-9.52 19.10-9.04C19.21-8.86 19.41-8.75 19.59-8.75C19.98-8.75 20.14-8.98 20.14-9.26C20.14-9.34 20.12-9.46 20.09-9.56C19.84-10.38 18.91-10.90 17.88-10.90C16.44-10.90 15.47-10.13 15.47-8.87C15.47-7.82 16.16-7.25 17.17-7.00L18.12-6.75C18.63-6.61 18.98-6.36 18.98-5.84C18.98-5.27 18.55-4.91 17.94-4.91C17.25-4.91 16.88-5.14 16.52-5.74C16.36-6 16.14-6.11 15.93-6.11C15.60-6.11 15.36-5.88 15.36-5.57C15.36-5.46 15.40-5.34 15.43-5.23C15.76-4.29 16.86-3.88 17.91-3.88Z" fill="currentColor"/>
</svg>