<svg xmlns="http://www.w3.org/2000/svg" viewBox="0 0 24 24" width="24" height="24">
  <title>s.square</title>
  <path transform="matrix(0.9141224781289056, 0, 0, 0.9141224781289056, -0.7316550615961437, 19.728976968398502)" d="M6.83 2.48L21.02 2.48C23.55 2.48 24.87 1.18 24.87-1.32L24.87-15.59C24.87-18.08 23.55-19.39 21.02-19.39L6.83-19.39C4.30-19.39 2.99-18.09 2.99-15.59L2.99-1.32C2.99 1.18 4.30 2.48 6.83 2.48ZM6.97 0.19C5.88 0.19 5.29-0.38 5.29-1.51L5.29-15.39C5.29-16.52 5.88-17.10 6.97-17.10L20.88-17.10C21.96-17.10 22.57-16.52 22.57-15.39L22.57-1.51C22.57-0.38 21.96 0.19 20.88 0.19ZM13.79-2.99C16.49-2.99 18.23-4.29 18.23-6.34C18.23-7.92 17.13-8.80 15.07-9.30L13.57-9.68C12.45-9.96 12.01-10.34 12.01-10.99C12.01-11.86 12.73-12.41 13.85-12.41C14.91-12.41 15.59-12.01 16.01-11.14C16.25-10.75 16.51-10.56 16.98-10.56C17.52-10.56 17.91-10.85 17.91-11.43C17.91-11.61 17.86-11.82 17.77-12.05C17.30-13.24 15.87-14.10 13.91-14.10C11.45-14.10 9.75-12.76 9.75-10.84C9.75-9.33 10.75-8.44 12.61-7.98L14.19-7.56C15.55-7.21 16.00-6.89 16.00-6.15C16.00-5.23 15.11-4.71 13.92-4.71C12.81-4.71 12.02-5.13 11.57-5.99C11.31-6.39 11.04-6.57 10.61-6.57C10.03-6.57 9.66-6.22 9.66-5.66C9.66-5.45 9.70-5.25 9.81-5.03C10.25-3.95 11.68-2.99 13.79-2.99Z" fill="currentColor"/>
</svg>