<svg xmlns="http://www.w3.org/2000/svg" viewBox="0 0 24 24" width="24" height="24">
  
  <path transform="matrix(0.7882986913010007, 0, 0, 0.7882986913010007, 0.3493003623518751, 18.74826789838337)" d="M3.16 0.02C2.53 2.61 3.63 4.13 6.15 4.13L23.41 4.13C25.92 4.13 27.04 2.61 26.39 0.02L23.81-10.42C23.36-12.27 22.03-13.31 20.13-13.31L15.93-13.31L15.93-14.40C17.31-14.88 18.32-16.20 18.32-17.71C18.32-19.64 16.70-21.25 14.78-21.25C12.86-21.25 11.25-19.64 11.25-17.71C11.25-16.20 12.26-14.88 13.63-14.40L13.63-13.31L9.42-13.31C7.54-13.31 6.20-12.27 5.74-10.42ZM14.78-16.13C13.91-16.13 13.18-16.85 13.18-17.71C13.18-18.57 13.91-19.32 14.78-19.32C15.64-19.32 16.38-18.59 16.38-17.71C16.38-16.85 15.66-16.13 14.78-16.13ZM5.40 0.18L7.91-9.70C8.13-10.58 8.66-11.02 9.53-11.02L20.03-11.02C20.91-11.02 21.42-10.58 21.66-9.70L24.15 0.18C24.43 1.27 24.01 1.83 23.09 1.83L6.48 1.83C5.54 1.83 5.12 1.27 5.40 0.18Z" fill="currentColor"/>
</svg>