<svg xmlns="http://www.w3.org/2000/svg" viewBox="0 0 24 24" width="24" height="24">
  
  <path transform="matrix(0.4849762732725727, 0, 0, 0.4849762732725727, 0.5508926960637344, 16.14231291714747)" d="M37.61 0.13C38.98 0.93 39.95 1.07 41.05 0.70C41.11 0.62 41.16 0.54 41.21 0.45L43.80-4.04C44.98-6.07 43.56-7.98 41.41-8.17C40.37-8.26 39.57-8.48 38.50-9.11C37.30-9.80 36.52-11.05 36.21-13.20C35.82-16.13 34.02-17.36 31.31-17.39L30.74-17.39L31.13-13.68C31.17-13.29 30.91-12.89 30.52-12.82C30.12-12.76 29.70-13.03 29.65-13.44L29.25-17.38L27.68-17.38L28.04-13.86C28.10-13.41 27.84-13.05 27.45-13.01C26.99-12.93 26.61-13.18 26.57-13.63L26.19-17.37L24.61-17.36L24.97-14.03C25.02-13.59 24.77-13.24 24.39-13.17C23.94-13.09 23.58-13.36 23.52-13.79L23.12-17.39C22.49-17.44 22.22-17.57 21.56-17.95C20.64-18.48 18.36-20.34 17.23-20.99C15.77-21.83 14.33-21.84 13.25-21.45C12.04-21.05 11.81-19.62 12.90-17.86L15.09-14.36C16.14-12.69 17.13-11.70 19.75-10.18ZM11.71-16.95C10.93-18.19 10.75-18.97 10.97-19.84C10.85-19.68 10.72-19.50 10.62-19.30C9.63-17.60 9.76-15.56 11.19-13.18C12.95-10.24 14.60-8.61 17.96-6.68L34.22 2.71C35.87 3.67 38.05 4.05 39.95 2.18C38.66 2.30 37.88 2.03 36.86 1.43L19.00-8.88C16.25-10.46 15.05-11.64 13.85-13.55ZM3.76-8.33L5.30-8.09C4.77-5.43 5.07-2.64 5.60-0.40L4.15-0.01C3.28 0.20 3.25 0.84 3.83 1.35L7.28 4.34C7.79 4.82 8.33 4.66 8.60 4.01L10.24-0.26C10.56-1.03 10.16-1.57 9.33-1.36L7.65-0.93C7.17-3 6.93-5.46 7.37-7.77L9.05-7.51C9.90-7.39 10.21-7.96 9.86-8.70L7.80-12.79C7.50-13.41 6.91-13.46 6.45-12.97L3.33-9.66C2.77-9.09 2.89-8.45 3.76-8.33Z" fill="currentColor"/>
</svg>