<svg xmlns="http://www.w3.org/2000/svg" viewBox="0 0 24 24" width="24" height="24">
  
  <path transform="matrix(0.560113773110163, 0, 0, 0.560113773110163, 0.32622251394814583, 15.465703971119133)" d="M4.01 2.52L11.44 2.52C11.39 2.82 11.37 3.12 11.37 3.40C11.37 5.46 12.53 6.87 14.84 6.87C17.45 6.87 19.56 5.23 20.98 2.52L37.68 2.52C38.24 2.52 38.70 2.04 38.70 1.49C38.70 0.93 38.24 0.46 37.68 0.46L21.86 0.46C22.51-1.45 22.91-3.70 22.99-6.15C23.73-6.32 24.49-6.40 25.29-6.40C25.65-6.40 25.85-6.25 25.85-5.98C25.85-5.00 25.29-4.22 25.29-3.16C25.29-2.23 25.98-1.63 26.92-1.63C29.36-1.63 32.27-5.65 33.16-5.65C33.96-5.65 33.04-2.06 36-2.06C36.52-2.06 37.17-2.20 37.66-2.53C37.98-2.74 38.20-3.06 38.20-3.47C38.20-3.98 37.86-4.42 37.32-4.42C36.93-4.42 36.59-4.11 36.22-4.11C35.07-4.11 36.18-7.97 33.75-7.97C31.66-7.97 28.58-4.16 27.82-4.16C27.73-4.16 27.66-4.22 27.66-4.35C27.66-4.73 28.09-5.55 28.09-6.38C28.09-7.65 27.08-8.45 25.49-8.45C24.62-8.45 23.79-8.37 22.98-8.20C22.66-14.45 19.65-19.24 15.16-19.24C12.02-19.24 9.68-16.68 9.68-13.29C9.68-9.41 12.18-6.12 15.15-3.96C13.76-2.58 12.69-1.03 12.05 0.46L4.01 0.46C3.45 0.46 2.99 0.93 2.99 1.49C2.99 2.04 3.45 2.52 4.01 2.52ZM11.72-13.29C11.72-15.52 13.20-17.20 15.16-17.20C18.55-17.20 20.81-12.98 20.95-7.65C19.36-7.09 17.91-6.26 16.64-5.27C14.27-6.96 11.72-9.71 11.72-13.29ZM3.57-2.03C3.91-1.69 4.42-1.70 4.76-2.02L6.18-3.43L7.59-2.03C7.92-1.69 8.43-1.69 8.77-2.03C9.11-2.36 9.11-2.87 8.77-3.20L7.35-4.61L8.77-6.01C9.11-6.35 9.09-6.86 8.77-7.20C8.43-7.54 7.92-7.52 7.59-7.20L6.18-5.79L4.76-7.20C4.42-7.52 3.91-7.52 3.57-7.20C3.25-6.86 3.25-6.34 3.57-6.01L4.99-4.61L3.57-3.20C3.25-2.86 3.25-2.36 3.57-2.03ZM17.78-2.39C17.95-2.30 18.13-2.26 18.29-2.26C18.83-2.26 19.23-2.67 19.23-3.15C19.23-3.48 19.09-3.80 18.70-4.01C18.62-4.05 18.53-4.09 18.45-4.14C19.20-4.66 20.03-5.13 20.91-5.50C20.77-3.26 20.32-1.21 19.66 0.46L14.27 0.46C14.86-0.64 15.74-1.82 16.86-2.86C17.17-2.70 17.47-2.53 17.78-2.39ZM13.49 3.09C13.49 2.91 13.50 2.72 13.54 2.52L18.60 2.52C17.64 3.97 16.42 4.83 15.07 4.83C14.00 4.83 13.49 4.13 13.49 3.09Z" fill="currentColor"/>
</svg>