<svg xmlns="http://www.w3.org/2000/svg" viewBox="0 0 24 24" width="24" height="24">
  
  <path transform="matrix(0.7879347491535857, 0, 0, 0.7879347491535857, -0.35457063711911374, 18.652816251154203)" d="M6.83-1.45L8.82-1.45L8.82 0.32C8.82 2.81 10.13 4.11 12.67 4.11L24.53 4.11C27.06 4.11 28.37 2.81 28.37 0.32L28.37-11.64C28.37-14.13 27.06-15.43 24.53-15.43L22.54-15.43L22.54-17.20C22.54-19.70 21.22-21 18.69-21L6.83-21C4.30-21 2.99-19.71 2.99-17.20L2.99-5.26C2.99-2.75 4.30-1.45 6.83-1.45ZM6.97-3.75C5.88-3.75 5.29-4.31 5.29-5.45L5.29-17.00C5.29-18.14 5.88-18.71 6.97-18.71L18.56-18.71C19.64-18.71 20.25-18.14 20.25-17.00L20.25-15.43L12.67-15.43C10.13-15.43 8.82-14.13 8.82-11.64L8.82-3.75ZM12.80 1.82C11.71 1.82 11.12 1.25 11.12 0.12L11.12-11.44C11.12-12.57 11.71-13.14 12.80-13.14L24.39-13.14C25.46-13.14 26.07-12.57 26.07-11.44L26.07 0.12C26.07 1.25 25.46 1.82 24.39 1.82ZM13.62-7.80L18.14-7.80C18.48-6.90 19.36-6.26 20.38-6.26C21.39-6.26 22.27-6.90 22.61-7.80L23.63-7.80C24.06-7.80 24.43-8.18 24.43-8.65C24.43-9.11 24.06-9.47 23.63-9.47L22.62-9.47C22.28-10.38 21.40-11.04 20.38-11.04C19.35-11.04 18.47-10.38 18.14-9.47L13.62-9.47C13.14-9.47 12.76-9.11 12.76-8.65C12.76-8.18 13.14-7.80 13.62-7.80ZM20.38-7.57C19.77-7.57 19.30-8.04 19.30-8.65C19.30-9.26 19.77-9.73 20.38-9.73C20.98-9.73 21.45-9.26 21.45-8.65C21.45-8.04 20.98-7.57 20.38-7.57ZM13.57-1.77L14.59-1.77C14.93-0.87 15.81-0.22 16.82-0.22C17.85-0.22 18.73-0.87 19.07-1.77L23.58-1.77C24.06-1.77 24.43-2.14 24.43-2.61C24.43-3.07 24.06-3.43 23.58-3.43L19.07-3.43C18.74-4.35 17.86-5.00 16.82-5.00C15.80-5.00 14.92-4.35 14.58-3.43L13.57-3.43C13.14-3.43 12.76-3.07 12.76-2.61C12.76-2.14 13.14-1.77 13.57-1.77ZM16.82-1.54C16.22-1.54 15.75-2.00 15.75-2.63C15.75-3.23 16.22-3.69 16.82-3.69C17.44-3.69 17.91-3.23 17.91-2.63C17.91-2.00 17.44-1.54 16.82-1.54Z" fill="currentColor"/>
</svg>