<svg xmlns="http://www.w3.org/2000/svg" viewBox="0 0 24 24" width="24" height="24">
  <title>smoke</title>
  <path transform="matrix(0.7029104887424492, 0, 0, 0.7029104887424492, 0.9456342668863262, 17.955518945634267)" d="M1.50-8.86C1.50-6.45 3.15-4.44 5.74-3.94C5.61-3.53 5.55-3.08 5.55-2.63C5.55 0.07 7.58 2.04 10.36 2.04L24.52 2.04C27.76 2.04 29.95-0.19 29.95-3.06C29.94-5.40 28.38-7.39 26.14-8.03C25.85-10.49 24.05-12.47 21.71-13.03C21.33-15.21 19.49-16.83 17.26-16.83C16.70-16.83 16.17-16.76 15.74-16.63C14.38-18.26 12.89-18.98 11.09-18.98C8.12-18.97 5.64-16.73 5.27-13.80C3.04-13.18 1.50-11.18 1.50-8.86ZM3.62-8.86C3.62-10.43 4.80-11.73 6.32-11.92C7.02-12.01 7.30-12.32 7.31-13.05C7.32-15.16 9-16.88 11.09-16.88C12.49-16.86 13.59-16.15 14.40-14.89C14.71-14.44 15.14-14.31 15.75-14.50C16.09-14.60 16.57-14.71 17.05-14.71C18.13-14.71 19.05-14.06 19.44-13.11C17.98-12.87 16.66-12.07 15.76-10.86C15.35-10.96 14.89-11.03 14.46-11.03C12.16-11.02 10.21-9.42 9.73-7.23C8.64-7.09 7.69-6.62 6.96-5.93C4.93-6.04 3.62-7.24 3.62-8.86ZM10.36-0.07C8.75-0.07 7.66-1.10 7.66-2.63C7.66-4.08 8.82-5.18 10.39-5.25C11.19-5.30 11.51-5.53 11.59-6.23C11.78-7.83 12.95-8.93 14.52-8.93C14.99-8.93 15.27-8.85 15.75-8.68C16.41-8.44 16.76-8.54 17.04-9.06C17.68-10.28 18.94-11.06 20.41-11.07C22.43-11.07 24.05-9.46 24.12-7.31C24.14-6.52 24.38-6.25 25.15-6.13C26.77-5.88 27.83-4.59 27.83-3.06C27.83-1.27 26.50-0.07 24.52-0.07Z" fill="currentColor"/>
</svg>