<svg xmlns="http://www.w3.org/2000/svg" viewBox="0 0 24 24" width="24" height="24">
  
  <path transform="matrix(0.8260729267505647, 0, 0, 0.8260729267505647, 0.2671829622458859, 18.989351403678604)" d="M14.20 3.64C20.88 3.64 26.31-1.78 26.31-8.46C26.31-15.14 20.88-20.57 14.20-20.57C7.52-20.57 2.10-15.14 2.10-8.46C2.10-1.78 7.52 3.64 14.20 3.64ZM14.92-12.61L14.92-15.74L17.78-18.05C19.50-17.40 21-16.31 22.14-14.92L21.06-11.38L18.08-10.17ZM7.35-11.38L6.27-14.92C7.41-16.31 8.89-17.40 10.61-18.04L13.49-15.71L13.49-12.61L10.32-10.17ZM3.97-8.45L6.82-10.04L9.93-8.79L11.10-5.16L9.43-3.01L5.59-2.95C4.57-4.54 3.98-6.42 3.97-8.45ZM18.96-2.96L17.30-5.11L18.48-8.79L21.59-10.04L24.43-8.45C24.43-6.41 23.82-4.51 22.79-2.91ZM14.20 1.77C13.22 1.77 12.26 1.63 11.36 1.36L10.55-2.11L12.05-4.03L16.30-4.03L17.85-2.06L17.05 1.36C16.15 1.63 15.19 1.77 14.20 1.77Z" fill="currentColor"/>
</svg>