<svg xmlns="http://www.w3.org/2000/svg" viewBox="0 0 24 24" width="24" height="24">
  <title>sparkles.tv.fill</title>
  <path transform="matrix(0.673241288625904, 0, 0, 0.673241288625904, -0.01183431952662728, 17.700197238658777)" d="M6.22-0.53L29.46-0.53C31.58-0.53 32.70-1.61 32.70-3.76L32.70-17.27C32.70-19.43 31.58-20.50 29.46-20.50L6.22-20.50C4.10-20.50 2.99-19.43 2.99-17.27L2.99-3.76C2.99-1.61 4.10-0.53 6.22-0.53ZM18.46-5.59C18.19-5.59 18.01-5.77 17.96-6.01C17.43-9.62 16.95-10.34 13.24-10.76C12.98-10.79 12.81-10.98 12.81-11.24C12.81-11.47 12.98-11.66 13.24-11.71C16.96-12.20 17.33-12.83 17.96-16.44C18.02-16.70 18.21-16.86 18.46-16.86C18.69-16.86 18.87-16.69 18.91-16.44C19.46-12.88 19.96-12.20 23.65-11.71C23.91-11.66 24.08-11.47 24.08-11.24C24.08-10.98 23.91-10.79 23.65-10.76C19.92-10.27 19.56-9.61 18.91-6C18.87-5.77 18.69-5.59 18.46-5.59ZM13.54-3.59C13.35-3.59 13.24-3.71 13.18-3.91C12.86-5.67 12.97-5.74 11.06-6.04C10.85-6.07 10.73-6.20 10.73-6.39C10.73-6.56 10.85-6.70 11.04-6.74C12.98-7.07 12.86-7.13 13.18-8.87C13.24-9.07 13.36-9.20 13.54-9.20C13.73-9.20 13.85-9.06 13.90-8.87C14.21-7.11 14.12-7.04 16.05-6.74C16.23-6.70 16.36-6.56 16.36-6.39C16.36-6.22 16.23-6.07 16.05-6.04C14.12-5.73 14.21-5.67 13.90-3.88C13.85-3.70 13.71-3.59 13.54-3.59ZM11.85 3.56L23.84 3.56C24.42 3.56 24.90 3.08 24.90 2.51C24.90 1.92 24.42 1.44 23.84 1.44L11.85 1.44C11.26 1.44 10.78 1.92 10.78 2.51C10.78 3.08 11.26 3.56 11.85 3.56Z" fill="currentColor"/>
</svg>