<svg xmlns="http://www.w3.org/2000/svg" viewBox="0 0 24 24" width="24" height="24">
  
  <path transform="matrix(0.7423517471364361, 0, 0, 0.7423517471364361, 2.0521966072205307, 19.016093953892998)" d="M12.64-17.17C12.81-17.17 12.90-17.27 12.94-17.43C13.27-19.30 13.24-19.38 15.27-19.76C15.42-19.78 15.53-19.89 15.53-20.04C15.53-20.20 15.42-20.31 15.27-20.33C13.24-20.68 13.27-20.77 12.94-22.66C12.90-22.82 12.81-22.92 12.64-22.92C12.48-22.92 12.39-22.82 12.36-22.66C12.02-20.78 12.06-20.71 10.02-20.33C9.87-20.30 9.76-20.20 9.76-20.04C9.76-19.89 9.87-19.78 10.03-19.76C12.05-19.39 12.02-19.31 12.36-17.43C12.39-17.27 12.48-17.17 12.64-17.17ZM6.97-8.98C7.21-8.98 7.38-9.14 7.41-9.38C7.82-12.48 7.91-12.49 11.14-13.10C11.38-13.14 11.54-13.30 11.54-13.54C11.54-13.78 11.37-13.96 11.14-13.98C7.92-14.43 7.82-14.53 7.41-17.70C7.38-17.94 7.21-18.11 6.97-18.11C6.73-18.11 6.55-17.94 6.53-17.68C6.14-14.58 6-14.58 2.79-13.98C2.55-13.95 2.39-13.78 2.39-13.54C2.39-13.29 2.55-13.14 2.84-13.10C6.01-12.60 6.14-12.50 6.53-9.40C6.55-9.14 6.73-8.98 6.97-8.98ZM15.07 4.02C15.43 4.02 15.70 3.76 15.76 3.39C16.61-2.96 17.50-3.93 23.75-4.62C24.14-4.66 24.41-4.95 24.41-5.32C24.41-5.68 24.14-5.96 23.75-6.01C17.51-6.74 16.64-7.66 15.76-14.02C15.70-14.39 15.43-14.65 15.07-14.65C14.71-14.65 14.44-14.39 14.38-14.02C13.54-7.66 12.64-6.70 6.40-6.01C6-5.96 5.73-5.68 5.73-5.32C5.73-4.96 6-4.66 6.39-4.62C12.62-3.79 13.48-2.96 14.38 3.39C14.44 3.76 14.72 4.02 15.07 4.02Z" fill="currentColor"/>
</svg>