<svg xmlns="http://www.w3.org/2000/svg" viewBox="0 0 24 24" width="24" height="24">
  <title>speaker.circle</title>
  <path transform="matrix(0.8260729267505647, 0, 0, 0.8260729267505647, 0.2671829622458859, 18.989351403678604)" d="M14.20 3.64C20.88 3.64 26.31-1.78 26.31-8.46C26.31-15.14 20.88-20.57 14.20-20.57C7.52-20.57 2.10-15.14 2.10-8.46C2.10-1.78 7.52 3.64 14.20 3.64ZM14.20 1.25C8.82 1.25 4.48-3.08 4.48-8.46C4.48-13.84 8.82-18.19 14.20-18.19C19.58-18.19 23.93-13.84 23.93-8.46C23.93-3.08 19.58 1.25 14.20 1.25ZM16.28-2.96C16.72-2.96 17.05-3.28 17.05-3.74L17.05-13.15C17.05-13.59 16.72-13.95 16.27-13.95C15.96-13.95 15.74-13.83 15.40-13.51L12.82-11.09C12.79-11.05 12.71-11.03 12.67-11.03L10.92-11.03C10.02-11.03 9.55-10.54 9.55-9.60L9.55-7.30C9.55-6.36 10.02-5.87 10.92-5.87L12.67-5.87C12.71-5.87 12.79-5.85 12.82-5.82L15.40-3.38C15.70-3.08 15.96-2.96 16.28-2.96Z" fill="currentColor"/>
</svg>