<svg xmlns="http://www.w3.org/2000/svg" viewBox="0 0 24 24" width="24" height="24">
  <title>speaker.wave.2</title>
  <path transform="matrix(0.7372210223182145, 0, 0, 0.7372210223182145, -0.6954643628509718, 18.23326133909287)" d="M6.25-3.47L9.56-3.47C9.66-3.47 9.75-3.45 9.82-3.38L14.98 1.23C15.59 1.78 16.05 2.03 16.66 2.03C17.53 2.03 18.18 1.39 18.18 0.53L18.18-17.37C18.18-18.23 17.53-18.94 16.65-18.94C16.04-18.94 15.63-18.67 14.98-18.08L9.82-13.50C9.75-13.43 9.66-13.41 9.56-13.41L6.25-13.41C4.52-13.41 3.66-12.50 3.66-10.69L3.66-6.19C3.66-4.37 4.52-3.47 6.25-3.47ZM26.84-0.13C27.36 0.20 28.01 0.08 28.37-0.46C29.91-2.61 30.79-5.50 30.79-8.46C30.79-11.43 29.91-14.33 28.37-16.46C28.01-17.00 27.36-17.13 26.84-16.79C26.29-16.44 26.20-15.76 26.61-15.15C27.87-13.32 28.58-10.95 28.58-8.46C28.58-5.99 27.84-3.61 26.61-1.77C26.21-1.16 26.29-0.48 26.84-0.13ZM6.45-5.53C6.05-5.53 5.86-5.72 5.86-6.12L5.86-10.76C5.86-11.16 6.05-11.34 6.45-11.34L10.10-11.34C10.42-11.34 10.65-11.40 10.93-11.65L15.62-15.93C15.68-15.97 15.74-16.02 15.81-16.02C15.90-16.02 15.97-15.95 15.97-15.84L15.97-1.05C15.97-0.95 15.90-0.88 15.82-0.88C15.75-0.88 15.69-0.91 15.62-0.97L10.93-5.23C10.66-5.46 10.42-5.53 10.10-5.53ZM22.16-3.26C22.65-2.94 23.31-3.05 23.66-3.56C24.60-4.82 25.16-6.61 25.16-8.46C25.16-10.31 24.60-12.09 23.66-13.37C23.31-13.88 22.65-13.99 22.16-13.65C21.60-13.28 21.49-12.60 21.94-11.94C22.59-11.02 22.96-9.77 22.96-8.46C22.96-7.16 22.58-5.92 21.94-4.98C21.49-4.31 21.60-3.64 22.16-3.26Z" fill="currentColor"/>
</svg>