<svg xmlns="http://www.w3.org/2000/svg" viewBox="0 0 24 24" width="24" height="24">
  <title>sprinkler</title>
  <path transform="matrix(0.7923243577839678, 0, 0, 0.7923243577839678, -0.3676880222841228, 18.69452181987001)" d="M4.09 1.30L27.14 1.30C27.74 1.30 28.23 0.80 28.23 0.20C28.23-0.40 27.74-0.90 27.14-0.90L18.07-0.90L18.07-6.07L18.30-6.07C19.25-6.07 19.92-6.73 19.92-7.66L19.92-9.82C19.92-10.76 19.25-11.41 18.30-11.41L18.07-11.41L18.07-13.02L18.35-13.02C19.28-13.02 19.92-13.66 19.92-14.58L19.92-15.62C19.92-17.17 18.83-18.20 17.20-18.20L14.02-18.20C12.40-18.20 11.30-17.17 11.30-15.62L11.30-14.58C11.30-13.66 11.94-13.02 12.87-13.02L13.15-13.02L13.15-11.41L12.91-11.41C11.96-11.41 11.31-10.76 11.31-9.82L11.31-7.66C11.31-6.73 11.96-6.07 12.91-6.07L13.15-6.07L13.15-0.90L4.09-0.90C3.48-0.90 2.99-0.40 2.99 0.20C2.99 0.80 3.49 1.30 4.09 1.30ZM13.35-14.86C13.22-14.86 13.14-14.94 13.14-15.06L13.14-15.62C13.14-16.11 13.45-16.37 14.00-16.37L17.21-16.37C17.77-16.37 18.08-16.11 18.08-15.62L18.08-15.06C18.08-14.94 18-14.86 17.88-14.86ZM14.99-11.41L14.99-13.02L16.24-13.02L16.24-11.41ZM13.35-7.91C13.22-7.91 13.14-7.99 13.14-8.11L13.14-9.36C13.14-9.49 13.22-9.57 13.35-9.57L17.88-9.57C18-9.57 18.08-9.49 18.08-9.36L18.08-8.11C18.08-7.99 18-7.91 17.88-7.91ZM14.99-0.90L14.99-6.07L16.24-6.07L16.24-0.90Z" fill="currentColor"/>
</svg>