<svg xmlns="http://www.w3.org/2000/svg" viewBox="0 0 24 24" width="24" height="24">
  <title>square.tophalf.filled</title>
  <path transform="matrix(0.9141224781289056, 0, 0, 0.9141224781289056, -0.7316550615961437, 19.718264595607927)" d="M2.99-1.35C2.99 1.18 4.29 2.50 6.80 2.50L21.06 2.50C23.55 2.50 24.87 1.18 24.87-1.35L24.87-15.54C24.87-18.07 23.57-19.38 21.06-19.38L6.80-19.38C4.29-19.38 2.99-18.07 2.99-15.54ZM5.29-1.49L5.29-8.45L22.57-8.45L22.57-1.49C22.57-0.41 22.00 0.20 20.86 0.20L6.98 0.20C5.85 0.20 5.29-0.41 5.29-1.49Z" fill="currentColor"/>
</svg>