<svg xmlns="http://www.w3.org/2000/svg" viewBox="0 0 24 24" width="24" height="24">
  <title>square.stack.3d.forward.dottedline.fill</title>
  <path transform="matrix(0.755831118984352, 0, 0, 0.755831118984352, 0.1930912311780335, 18.395039858281663)" d="M15.20 3.67C15.76 3.67 16.22 3.30 16.45 2.89L10.25-7.79C10.10-8.06 10.01-8.26 10.01-8.46C10.01-8.66 10.10-8.87 10.25-9.13L16.44-19.82C16.21-20.23 15.76-20.59 15.20-20.59C14.70-20.59 14.21-20.30 13.90-19.73L8.10-9.88C7.77-9.32 7.55-8.92 7.55-8.46C7.55-8.00 7.77-7.61 8.10-7.04L13.90 2.81C14.24 3.38 14.70 3.67 15.20 3.67ZM21.22 3.67C21.97 3.67 22.45 3.23 23.04 2.24L28.31-6.87C28.68-7.49 28.85-7.96 28.85-8.46C28.85-8.96 28.68-9.45 28.31-10.05L23.04-19.16C22.45-20.16 21.97-20.59 21.22-20.59C20.48-20.59 19.99-20.16 19.42-19.16L14.13-10.05C13.78-9.45 13.61-8.96 13.61-8.46C13.61-7.96 13.78-7.49 14.13-6.87L19.42 2.24C19.99 3.23 20.48 3.67 21.22 3.67ZM9.38-18.57C9.84-18.57 10.24-18.97 10.24-19.44C10.24-19.92 9.84-20.32 9.38-20.32C8.89-20.32 8.50-19.92 8.50-19.44C8.50-18.97 8.89-18.57 9.38-18.57ZM8.16-16.38C8.64-16.38 9.02-16.77 9.02-17.25C9.02-17.73 8.64-18.12 8.16-18.12C7.68-18.12 7.29-17.73 7.29-17.25C7.29-16.77 7.68-16.38 8.16-16.38ZM6.93-14.18C7.41-14.18 7.80-14.57 7.80-15.05C7.80-15.53 7.41-15.91 6.93-15.91C6.46-15.91 6.06-15.53 6.06-15.05C6.06-14.57 6.46-14.18 6.93-14.18ZM5.70-11.99C6.18-11.99 6.56-12.39 6.56-12.87C6.56-13.34 6.18-13.73 5.70-13.73C5.21-13.73 4.83-13.34 4.83-12.87C4.83-12.39 5.21-11.99 5.70-11.99ZM4.49-9.79C4.97-9.79 5.36-10.18 5.36-10.66C5.36-11.13 4.97-11.53 4.49-11.53C4.01-11.53 3.62-11.13 3.62-10.66C3.62-10.18 4.01-9.79 4.49-9.79ZM3.26-7.59C3.74-7.59 4.13-7.98 4.13-8.46C4.13-8.94 3.74-9.33 3.26-9.33C2.78-9.33 2.39-8.94 2.39-8.46C2.39-7.98 2.78-7.59 3.26-7.59ZM4.49-5.40C4.97-5.40 5.36-5.79 5.36-6.27C5.36-6.75 4.97-7.14 4.49-7.14C4.01-7.14 3.62-6.75 3.62-6.27C3.62-5.79 4.01-5.40 4.49-5.40ZM5.70-3.20C6.18-3.20 6.56-3.59 6.56-4.07C6.56-4.55 6.18-4.93 5.70-4.93C5.21-4.93 4.83-4.55 4.83-4.07C4.83-3.59 5.21-3.20 5.70-3.20ZM6.93-1.01C7.41-1.01 7.80-1.39 7.80-1.88C7.80-2.36 7.41-2.74 6.93-2.74C6.46-2.74 6.06-2.36 6.06-1.88C6.06-1.39 6.46-1.01 6.93-1.01ZM8.16 1.20C8.64 1.20 9.02 0.81 9.02 0.33C9.02-0.15 8.64-0.54 8.16-0.54C7.68-0.54 7.29-0.15 7.29 0.33C7.29 0.81 7.68 1.20 8.16 1.20ZM9.38 3.39C9.84 3.39 10.24 3 10.24 2.52C10.24 2.04 9.84 1.65 9.38 1.65C8.89 1.65 8.50 2.04 8.50 2.52C8.50 3 8.89 3.39 9.38 3.39Z" fill="currentColor"/>
</svg>