<svg xmlns="http://www.w3.org/2000/svg" viewBox="0 0 24 24" width="24" height="24">
  <title>square.2.layers.3d.bottom.filled</title>
  <path transform="matrix(0.7993754879000781, 0, 0, 0.7993754879000781, -0.07962529274004737, 18.59016393442623)" d="M16.70 3.74L25.82-1.55C26.80-2.12 27.23-2.61 27.23-3.35C27.23-4.10 26.80-4.58 25.82-5.17L20.51-8.24L25.82-11.32C26.80-11.89 27.23-12.39 27.23-13.13C27.23-13.88 26.80-14.36 25.82-14.94L16.70-20.23C16.09-20.58 15.61-20.75 15.12-20.75C14.61-20.75 14.13-20.58 13.52-20.23L4.41-14.94C3.42-14.36 2.99-13.88 2.99-13.13C2.99-12.39 3.42-11.89 4.41-11.32L9.71-8.24L4.41-5.17C3.42-4.58 2.99-4.10 2.99-3.35C2.99-2.61 3.42-2.12 4.41-1.55L13.52 3.74C14.13 4.09 14.61 4.27 15.12 4.27C15.61 4.27 16.09 4.09 16.70 3.74ZM15.12-7.95C14.95-7.95 14.81-8.00 14.64-8.10L6.01-13.02C5.95-13.04 5.93-13.08 5.93-13.13C5.93-13.18 5.95-13.21 6.01-13.24L14.64-18.15C14.81-18.26 14.95-18.30 15.12-18.30C15.27-18.30 15.41-18.26 15.59-18.15L24.22-13.24C24.27-13.21 24.30-13.18 24.30-13.13C24.30-13.08 24.27-13.04 24.22-13.02L15.59-8.10C15.41-8.00 15.27-7.95 15.12-7.95Z" fill="currentColor"/>
</svg>