<svg xmlns="http://www.w3.org/2000/svg" viewBox="0 0 24 24" width="24" height="24">
  <title>star.slash</title>
  <path transform="matrix(0.758336368559057, 0, 0, 0.758336368559057, 0.1855006413153677, 19.083316203410128)" d="M21.90-6.34L27.80-10.57C28.58-11.13 28.92-11.75 28.70-12.41C28.48-13.05 27.86-13.37 26.88-13.36L19.34-13.31L17.04-20.51C16.75-21.45 16.27-21.95 15.57-21.95C14.89-21.95 14.41-21.45 14.11-20.51L12.55-15.64L14.21-14.00L15.52-18.38C15.53-18.45 15.55-18.46 15.57-18.46C15.61-18.46 15.62-18.45 15.64-18.38L17.52-11.98C17.70-11.39 18.01-11.19 18.61-11.21L25.28-11.37C25.35-11.37 25.37-11.36 25.38-11.33C25.39-11.30 25.38-11.29 25.32-11.25L20.38-7.85ZM25.73 2.19C26.10 2.55 26.71 2.55 27.06 2.19C27.41 1.83 27.42 1.24 27.06 0.88L7.76-18.36C7.41-18.73 6.80-18.74 6.43-18.36C6.08-18.01 6.08-17.40 6.43-17.05ZM7.45 3.02C8.00 3.45 8.68 3.30 9.48 2.73L15.57-1.75L21.67 2.73C22.43 3.28 23.09 3.43 23.65 3.06C23.77 2.98 23.86 2.86 24.02 2.63L16.10-3.87C15.69-4.21 15.26-4.18 14.84-3.86L9.61 0.19C9.56 0.21 9.53 0.23 9.50 0.20C9.49 0.18 9.49 0.16 9.50 0.11L11.73-6.19C11.94-6.75 11.86-7.13 11.33-7.48L5.82-11.25C5.78-11.27 5.75-11.30 5.77-11.33C5.79-11.36 5.81-11.37 5.87-11.37L10.14-11.29L8.07-13.34L4.27-13.36C3.29-13.37 2.68-13.05 2.46-12.41C2.24-11.75 2.57-11.13 3.36-10.57L9.52-6.15L7.10 1.01C6.79 1.93 6.90 2.61 7.45 3.02Z" fill="currentColor"/>
</svg>