<svg xmlns="http://www.w3.org/2000/svg" viewBox="0 0 24 24" width="24" height="24">
  <title>stethoscope.circle</title>
  <path transform="matrix(0.8260729267505647, 0, 0, 0.8260729267505647, 0.2671829622458859, 18.989351403678604)" d="M14.20 3.64C20.88 3.64 26.31-1.78 26.31-8.46C26.31-15.14 20.88-20.57 14.20-20.57C7.52-20.57 2.10-15.14 2.10-8.46C2.10-1.78 7.52 3.64 14.20 3.64ZM14.20 1.25C8.82 1.25 4.48-3.08 4.48-8.46C4.48-13.84 8.82-18.19 14.20-18.19C19.58-18.19 23.93-13.84 23.93-8.46C23.93-3.08 19.58 1.25 14.20 1.25ZM13.31-2.16C15.06-2.16 16.03-3.42 16.49-6.21C16.77-7.91 17.16-8.55 17.84-8.55C18.49-8.55 18.86-7.95 18.97-6.56C18.27-6.28 17.78-5.59 17.78-4.78C17.78-3.70 18.63-2.85 19.71-2.85C20.79-2.85 21.66-3.71 21.66-4.78C21.66-5.64 21.08-6.36 20.31-6.61C20.09-8.84 19.30-9.89 17.85-9.89C16.37-9.89 15.57-8.88 15.15-6.53C14.79-4.37 14.33-3.50 13.29-3.50C12.35-3.50 11.79-4.46 11.71-6.22C13.43-6.74 15.27-9.52 15.27-11.82C15.27-13.14 14.58-13.85 13.30-13.85L13.24-13.85C13.05-14.07 12.77-14.21 12.47-14.21C11.91-14.21 11.44-13.76 11.44-13.18C11.44-12.61 11.89-12.14 12.47-12.14C12.77-12.14 13.04-12.28 13.24-12.49L13.34-12.49C13.73-12.49 13.92-12.28 13.92-11.82C13.92-10.01 12.25-7.49 11.03-7.49C9.82-7.49 8.14-10.01 8.14-11.82C8.14-12.29 8.33-12.49 8.73-12.49L8.81-12.49C9-12.28 9.28-12.14 9.59-12.14C10.16-12.14 10.62-12.61 10.62-13.18C10.62-13.76 10.16-14.21 9.59-14.21C9.28-14.21 9-14.07 8.80-13.85L8.77-13.85C7.49-13.85 6.80-13.14 6.80-11.82C6.80-9.53 8.63-6.74 10.36-6.22C10.48-3.62 11.52-2.16 13.31-2.16ZM19.71-4.05C19.31-4.05 19.00-4.38 19.00-4.78C19.00-5.18 19.31-5.50 19.71-5.50C20.11-5.50 20.44-5.18 20.44-4.78C20.44-4.38 20.11-4.05 19.71-4.05Z" fill="currentColor"/>
</svg>