<svg xmlns="http://www.w3.org/2000/svg" viewBox="0 0 24 24" width="24" height="24">
  <title>stroke.line.diagonal.slash</title>
  <path transform="matrix(0.9933982908052045, 0, 0, 0.9933982908052045, -0.659972327146936, 20.40068341588752)" d="M21.22 1.34C21.59 1.70 22.18 1.69 22.54 1.32C22.90 0.96 22.90 0.38 22.54 0L4.29-18.25C3.91-18.62 3.33-18.61 2.95-18.25C2.60-17.89 2.58-17.30 2.95-16.92ZM15.73-8.82L22.27-15.36C22.98-16.08 22.98-17.26 22.27-17.98C21.54-18.70 20.36-18.67 19.66-17.98L13.13-11.44ZM3.22 1.08C3.95 1.80 5.13 1.77 5.82 1.08L12.38-5.47L9.77-8.07L3.22-1.52C2.51-0.82 2.51 0.35 3.22 1.08Z" fill="currentColor"/>
</svg>