<svg xmlns="http://www.w3.org/2000/svg" viewBox="0 0 24 24" width="24" height="24">
  <title>suitcase.rolling.and.suitcase.circle</title>
  <path transform="matrix(0.8260729267505647, 0, 0, 0.8260729267505647, 0.2671829622458859, 18.989351403678604)" d="M14.20 3.64C20.88 3.64 26.31-1.78 26.31-8.46C26.31-15.14 20.88-20.57 14.20-20.57C7.52-20.57 2.10-15.14 2.10-8.46C2.10-1.78 7.52 3.64 14.20 3.64ZM14.20 1.25C8.82 1.25 4.48-3.08 4.48-8.46C4.48-13.84 8.82-18.19 14.20-18.19C19.58-18.19 23.93-13.84 23.93-8.46C23.93-3.08 19.58 1.25 14.20 1.25ZM8.66-5.55L10.41-5.55L10.41-7.41C10.41-8.68 11.21-9.47 12.48-9.47L12.89-9.47C13.10-10.36 13.82-10.84 14.74-10.84L16.39-10.84C16.50-10.84 16.59-10.84 16.69-10.83L16.69-11.03C16.66-11.87 16.08-12.46 15.22-12.46L14.94-12.46L14.94-13.99C14.94-14.74 14.48-15.20 13.71-15.20L11.67-15.20C10.89-15.20 10.41-14.74 10.41-13.99L10.41-12.46L10.11-12.46C9.25-12.46 8.66-11.86 8.66-10.98ZM11.36-12.46L11.36-13.97C11.36-14.17 11.50-14.31 11.73-14.31L13.65-14.31C13.86-14.31 14.02-14.17 14.02-13.97L14.02-12.46ZM13.46-2.54L17.86-2.54L17.86-8.63L17.67-8.63L17.67-8.93C17.67-9.66 17.26-10.00 16.56-10.00L14.74-10.00C14.07-10.00 13.64-9.66 13.64-8.93L13.64-8.63L13.46-8.63ZM14.41-8.61L14.41-8.93C14.41-9.15 14.53-9.28 14.79-9.28L16.54-9.28C16.78-9.28 16.90-9.15 16.90-8.93L16.90-8.61ZM12.48-2.54L12.68-2.54L12.68-8.63L12.48-8.63C11.67-8.63 11.25-8.21 11.25-7.41L11.25-3.76C11.25-2.95 11.67-2.54 12.48-2.54ZM18.64-2.54L18.83-2.54C19.64-2.54 20.06-2.95 20.06-3.76L20.06-7.41C20.06-8.21 19.64-8.63 18.83-8.63L18.64-8.63ZM10.11-2.54L10.75-2.53C10.54-2.87 10.41-3.28 10.41-3.76L10.41-4.59L8.66-4.59L8.66-4.02C8.66-3.14 9.25-2.54 10.11-2.54Z" fill="currentColor"/>
</svg>