<svg xmlns="http://www.w3.org/2000/svg" viewBox="0 0 24 24" width="24" height="24">
  <title>sun.haze.circle.fill</title>
  <path transform="matrix(0.8260729267505647, 0, 0, 0.8260729267505647, 0.2671829622458859, 18.97967086156825)" d="M14.20 3.66C20.88 3.66 26.31-1.77 26.31-8.45C26.31-15.13 20.88-20.55 14.20-20.55C7.52-20.55 2.10-15.13 2.10-8.45C2.10-1.77 7.52 3.66 14.20 3.66ZM14.19-13.32C13.80-13.32 13.49-13.66 13.49-14.10L13.49-15.54C13.49-15.97 13.80-16.30 14.19-16.30C14.58-16.30 14.91-15.97 14.91-15.54L14.91-14.10C14.91-13.68 14.59-13.32 14.19-13.32ZM11.10-11.71C10.82-11.43 10.36-11.45 10.07-11.74L9.04-12.77C8.72-13.09 8.71-13.54 8.99-13.82C9.26-14.07 9.70-14.10 10.02-13.78L11.06-12.74C11.37-12.45 11.38-12 11.10-11.71ZM17.30-11.71C17.02-12 17.02-12.43 17.32-12.74L18.38-13.78C18.67-14.09 19.13-14.09 19.41-13.82C19.66-13.52 19.66-13.09 19.35-12.77L18.34-11.74C18.02-11.44 17.59-11.43 17.30-11.71ZM10.83-7.59C10.72-7.91 10.65-8.27 10.65-8.61C10.65-10.56 12.26-12.16 14.19-12.16C16.14-12.16 17.73-10.56 17.73-8.61C17.73-8.27 17.67-7.91 17.57-7.59ZM9.82-8.84C9.82-8.44 9.48-8.12 9.04-8.12L7.59-8.12C7.17-8.12 6.84-8.45 6.84-8.84C6.84-9.22 7.17-9.54 7.59-9.54L9.04-9.54C9.48-9.54 9.82-9.23 9.82-8.84ZM18.57-8.84C18.57-9.23 18.91-9.54 19.35-9.54L20.79-9.54C21.22-9.54 21.54-9.22 21.54-8.84C21.54-8.45 21.22-8.12 20.79-8.12L19.35-8.12C18.93-8.12 18.57-8.44 18.57-8.84ZM8.31-5.78C8.04-5.78 7.84-5.96 7.84-6.23C7.84-6.50 8.04-6.70 8.31-6.70L20.86-6.70C21.13-6.70 21.32-6.50 21.32-6.23C21.32-5.96 21.13-5.78 20.86-5.78ZM7.54-4.04C7.27-4.04 7.07-4.24 7.07-4.51C7.07-4.77 7.27-4.97 7.54-4.97L20.09-4.97C20.36-4.97 20.54-4.77 20.54-4.51C20.54-4.24 20.36-4.04 20.09-4.04ZM8.31-2.31C8.04-2.31 7.84-2.51 7.84-2.77C7.84-3.04 8.04-3.23 8.31-3.23L20.86-3.23C21.13-3.23 21.32-3.04 21.32-2.77C21.32-2.51 21.13-2.31 20.86-2.31Z" fill="currentColor"/>
</svg>