<svg xmlns="http://www.w3.org/2000/svg" viewBox="0 0 24 24" width="24" height="24">
  <title>sun.haze.circle</title>
  <path transform="matrix(0.8260729267505647, 0, 0, 0.8260729267505647, 0.2671829622458859, 18.989351403678604)" d="M14.20 3.64C20.88 3.64 26.31-1.78 26.31-8.46C26.31-15.14 20.88-20.57 14.20-20.57C7.52-20.57 2.10-15.14 2.10-8.46C2.10-1.78 7.52 3.64 14.20 3.64ZM14.20 1.25C8.82 1.25 4.48-3.08 4.48-8.46C4.48-13.84 8.82-18.19 14.20-18.19C19.58-18.19 23.93-13.84 23.93-8.46C23.93-3.08 19.58 1.25 14.20 1.25ZM14.19-13.18C14.58-13.18 14.87-13.52 14.87-13.92L14.87-15.33C14.87-15.74 14.57-16.04 14.19-16.04C13.83-16.04 13.51-15.74 13.51-15.33L13.51-13.92C13.51-13.52 13.82-13.18 14.19-13.18ZM11.21-11.63C11.48-11.89 11.46-12.33 11.18-12.62L10.17-13.63C9.87-13.93 9.43-13.91 9.18-13.65C8.92-13.38 8.92-12.96 9.22-12.66L10.22-11.66C10.51-11.38 10.95-11.36 11.21-11.63ZM17.19-11.63C17.46-11.37 17.88-11.37 18.18-11.66L19.16-12.66C19.45-12.96 19.46-13.37 19.21-13.65C18.94-13.92 18.52-13.92 18.22-13.63L17.21-12.62C16.91-12.32 16.91-11.89 17.19-11.63ZM10.96-7.65L17.44-7.65C17.54-7.97 17.61-8.31 17.61-8.65C17.61-10.52 16.07-12.07 14.19-12.07C12.33-12.07 10.78-10.52 10.78-8.65C10.78-8.31 10.85-7.97 10.96-7.65ZM9.97-8.86C9.97-9.23 9.66-9.54 9.23-9.54L7.84-9.54C7.43-9.54 7.11-9.22 7.11-8.86C7.11-8.48 7.43-8.18 7.84-8.18L9.23-8.18C9.66-8.18 9.97-8.47 9.97-8.86ZM18.41-8.86C18.41-8.48 18.75-8.18 19.15-8.18L20.55-8.18C20.96-8.18 21.27-8.48 21.27-8.86C21.27-9.23 20.96-9.54 20.55-9.54L19.15-9.54C18.74-9.54 18.41-9.23 18.41-8.86ZM8.53-5.92L20.63-5.92C20.87-5.92 21.07-6.11 21.07-6.35C21.07-6.61 20.87-6.80 20.63-6.80L8.53-6.80C8.27-6.80 8.07-6.61 8.07-6.35C8.07-6.11 8.27-5.92 8.53-5.92ZM7.77-4.25L19.86-4.25C20.12-4.25 20.31-4.44 20.31-4.70C20.31-4.95 20.12-5.13 19.86-5.13L7.77-5.13C7.52-5.13 7.32-4.95 7.32-4.70C7.32-4.44 7.52-4.25 7.77-4.25ZM8.53-2.59L20.63-2.59C20.87-2.59 21.07-2.78 21.07-3.04C21.07-3.28 20.87-3.48 20.63-3.48L8.53-3.48C8.27-3.48 8.07-3.28 8.07-3.04C8.07-2.78 8.27-2.59 8.53-2.59Z" fill="currentColor"/>
</svg>