<svg xmlns="http://www.w3.org/2000/svg" viewBox="0 0 24 24" width="24" height="24">
  
  <path transform="matrix(0.7115054424198609, 0, 0, 0.7115054424198609, 0.25182224566893696, 18.11726586169052)" d="M16.51-17.68C17.09-17.68 17.55-18.18 17.55-18.82L17.55-21.54C17.55-22.18 17.09-22.65 16.51-22.65C15.94-22.65 15.47-22.18 15.47-21.54L15.47-18.82C15.47-18.18 15.94-17.68 16.51-17.68ZM22.56-15.19C22.97-14.79 23.64-14.79 24.09-15.25L26.02-17.17C26.48-17.63 26.47-18.28 26.06-18.69C25.68-19.10 25.01-19.10 24.54-18.64L22.62-16.72C22.16-16.27 22.15-15.59 22.56-15.19ZM10.46-15.19C10.85-15.60 10.85-16.27 10.41-16.72L8.47-18.64C8.02-19.10 7.36-19.09 6.95-18.69C6.54-18.29 6.54-17.63 7.00-17.17L8.93-15.25C9.38-14.79 10.07-14.78 10.46-15.19ZM4.65-3.91L28.32-3.91C28.78-3.91 29.13-4.25 29.13-4.70C29.13-5.16 28.78-5.50 28.32-5.50L21.74-5.50C22.50-6.53 22.93-7.78 22.93-9.14C22.93-12.67 20.03-15.57 16.51-15.57C13.00-15.57 10.09-12.67 10.09-9.14C10.09-7.78 10.52-6.53 11.29-5.50L4.65-5.50C4.21-5.50 3.86-5.16 3.86-4.70C3.86-4.25 4.21-3.91 4.65-3.91ZM12.18-9.14C12.18-11.52 14.13-13.48 16.51-13.48C18.89-13.48 20.85-11.52 20.85-9.14C20.85-7.61 20.03-6.25 18.81-5.50L14.21-5.50C13.00-6.25 12.18-7.61 12.18-9.14ZM4.11-8.45L6.83-8.44C7.48-8.44 7.97-8.91 7.96-9.48C7.95-10.05 7.48-10.52 6.83-10.52L4.11-10.52C3.47-10.52 2.99-10.05 2.99-9.48C2.99-8.91 3.47-8.45 4.11-8.45ZM26.19-8.45L28.91-8.44C29.55-8.44 30.04-8.91 30.04-9.48C30.04-10.05 29.55-10.52 28.91-10.52L26.19-10.52C25.56-10.52 25.05-10.05 25.07-9.48C25.08-8.91 25.56-8.45 26.19-8.45ZM18.75 1.72L20.26-0.89C20.48-1.28 20.37-1.72 19.99-1.95C19.61-2.17 19.17-2.04 18.95-1.65L17.43 0.98C17.21 1.35 17.31 1.79 17.71 2.02C18.08 2.23 18.54 2.10 18.75 1.72ZM21.48 5.06L24.93-0.90C25.14-1.28 25.03-1.72 24.67-1.95C24.30-2.17 23.85-2.04 23.63-1.65L20.19 4.29C19.98 4.68 20.09 5.12 20.46 5.34C20.84 5.55 21.27 5.43 21.48 5.06ZM9.42 1.73L10.93-0.88C11.16-1.27 11.04-1.71 10.66-1.93C10.28-2.16 9.86-2.03 9.62-1.64L8.10 1.00C7.89 1.36 7.99 1.80 8.38 2.03C8.75 2.24 9.21 2.11 9.42 1.73ZM12.15 5.07L15.60-0.90C15.82-1.27 15.71-1.71 15.34-1.93C14.98-2.16 14.52-2.03 14.30-1.64L10.88 4.30C10.65 4.69 10.76 5.13 11.13 5.36C11.51 5.57 11.94 5.44 12.15 5.07Z" fill="currentColor"/>
</svg>