<svg xmlns="http://www.w3.org/2000/svg" viewBox="0 0 24 24" width="24" height="24">
  <title>sunset</title>
  <path transform="matrix(0.6658863311223826, 0, 0, 0.6658863311223826, 0.010144362075692692, 17.634022629730786)" d="M18.74-11.46L22.35-14.85C22.58-15.06 22.70-15.28 22.70-15.57C22.70-16.08 22.32-16.45 21.80-16.45C21.52-16.45 21.27-16.32 21.07-16.11L19.72-14.72L18.90-13.68L19.04-15.54L19.04-19.70C19.04-20.31 18.57-20.81 18.01-20.81C17.44-20.81 16.97-20.31 16.97-19.70L16.97-15.54L17.11-13.71L16.41-14.63L14.96-16.11C14.77-16.32 14.52-16.45 14.24-16.45C13.71-16.45 13.34-16.08 13.34-15.57C13.34-15.28 13.45-15.06 13.69-14.85L17.30-11.46C17.57-11.21 17.77-11.12 18.01-11.12C18.27-11.12 18.47-11.21 18.74-11.46ZM24.06-7.96C24.47-7.56 25.14-7.57 25.59-8.02L27.52-9.94C27.97-10.39 27.96-11.06 27.56-11.47C27.16-11.87 26.50-11.87 26.04-11.41L24.12-9.49C23.66-9.04 23.65-8.36 24.06-7.96ZM11.95-7.96C12.35-8.37 12.35-9.04 11.89-9.49L9.97-11.41C9.52-11.87 8.85-11.86 8.45-11.47C8.04-11.07 8.04-10.39 8.50-9.94L10.42-8.02C10.88-7.57 11.55-7.55 11.95-7.96ZM4.15 3.89L31.86 3.89C32.50 3.89 33.02 3.38 33.02 2.78C33.02 2.17 32.50 1.66 31.86 1.66L23.29 1.66C24.01 0.66 24.42-0.59 24.42-1.91C24.42-5.45 21.52-8.34 18.01-8.34C14.50-8.34 11.59-5.45 11.59-1.91C11.59-0.59 12 0.66 12.73 1.66L4.15 1.66C3.52 1.66 2.99 2.18 2.99 2.78C2.99 3.38 3.52 3.89 4.15 3.89ZM13.71-1.91C13.71-4.28 15.66-6.21 18.01-6.21C20.36-6.21 22.30-4.28 22.30-1.91C22.30-0.42 21.54 0.90 20.41 1.66L15.60 1.66C14.47 0.90 13.71-0.42 13.71-1.91ZM5.60-1.31L8.32-1.31C8.96-1.31 9.46-1.78 9.46-2.36C9.45-2.93 8.96-3.40 8.32-3.40L5.60-3.40C4.97-3.40 4.49-2.93 4.49-2.36C4.49-1.78 4.97-1.31 5.60-1.31ZM27.69-1.31L30.41-1.31C31.05-1.31 31.52-1.78 31.52-2.36C31.52-2.93 31.05-3.40 30.41-3.40L27.69-3.40C27.05-3.40 26.55-2.93 26.55-2.36C26.57-1.78 27.06-1.31 27.69-1.31Z" fill="currentColor"/>
</svg>