<svg xmlns="http://www.w3.org/2000/svg" viewBox="0 0 24 24" width="24" height="24">
  
  <path transform="matrix(0.5070396810997322, 0, 0, 0.5070396810997322, 0.4859246094753371, 16.29825734109935)" d="M7.10-17.72L9.61-22.04C10.05-22.80 9.42-23.50 8.64-23.34L4.84-22.62C4.28-22.51 4.03-22.09 4.22-21.54L5.50-17.91C5.75-17.13 6.66-16.95 7.10-17.72ZM14.41-9.50C15.67-8.78 17.17-8.93 18.21-9.79L29.25-3.42C29.03-2.09 29.64-0.70 30.90 0.02C32.16 0.74 33.64 0.59 34.70-0.27L35.99 0.47C37.45 1.32 38.63 0.94 39.56-0.69L41.61-4.24C42.21-5.29 42.52-6.71 42.41-8.04L42.35-8.79C42.20-10.75 41.34-11.99 39.40-13.11L32.93-16.85C29.54-18.81 27.98-19.27 25.23-19.16L20.78-19.00L17.54-20.37C14.50-21.67 12.29-21.18 10.97-18.86L10.16-17.46C9.33-16.03 9.69-14.71 11.06-13.92L12.76-12.94C12.55-11.60 13.16-10.22 14.41-9.50ZM36.71-1.21L35.75-1.76C36.30-3.27 35.72-4.98 34.27-5.81C32.81-6.66 31.04-6.32 30.01-5.07L19.27-11.27C19.83-12.80 19.23-14.50 17.79-15.33C16.34-16.17 14.57-15.83 13.52-14.59L12.12-15.40C11.63-15.69 11.52-16.20 11.86-16.77L12.54-17.95C13.35-19.35 14.71-19.59 16.84-18.69L20.44-17.18L25.29-17.34C27.71-17.43 28.91-17.07 32.03-15.28L38.48-11.54C39.87-10.75 40.42-9.94 40.54-8.64L40.61-7.90C40.69-6.91 40.48-5.89 40.04-5.16L38.02-1.65C37.66-1.03 37.25-0.89 36.71-1.21ZM15.29-11.02C14.51-11.47 14.25-12.42 14.71-13.21C15.15-13.99 16.11-14.25 16.90-13.79C17.68-13.35 17.94-12.39 17.48-11.60C17.04-10.82 16.08-10.57 15.29-11.02ZM3.14-12.88C2.82-12.33 3.01-11.64 3.54-11.33L34.02 6.27C34.52 6.56 35.23 6.39 35.53 5.86C35.85 5.31 35.65 4.62 35.13 4.32L4.65-13.28C4.14-13.58 3.45-13.41 3.14-12.88ZM31.77-1.50C31.00-1.96 30.74-2.91 31.18-3.69C31.64-4.48 32.60-4.73 33.38-4.28C34.16-3.83 34.42-2.87 33.97-2.09C33.52-1.30 32.55-1.05 31.77-1.50Z" fill="currentColor"/>
</svg>