<svg xmlns="http://www.w3.org/2000/svg" viewBox="0 0 24 24" width="24" height="24">
  <title>suv.side.roof.cargo.carrier</title>
  <path transform="matrix(0.5099093715765362, 0, 0, 0.5099093715765362, 0.47624738571855585, 17.858978189423365)" d="M22.54-18.68L36.89-18.68C37.93-18.68 38.46-19.31 38.46-20.40L38.46-21.57C38.46-23.37 37.57-24.28 35.55-24.28L31.17-24.28C29.03-24.28 27.42-23.77 24.70-22.59L22.13-21.47C21.32-21.11 21.05-20.58 21.05-19.99C21.05-19.16 21.53-18.68 22.54-18.68ZM5.95-1.18L8.24-1.18C8.79 0.29 10.20 1.30 11.88 1.30C13.56 1.30 14.96 0.29 15.53-1.18L30.27-1.18C30.83 0.29 32.24 1.30 33.91 1.30C35.59 1.30 37.00 0.29 37.56-1.18L39.29-1.18C41.25-1.18 42.21-2.24 42.21-4.43L42.21-9.18C42.21-10.57 41.68-12.19 40.82-13.45L40.31-14.17C39.02-16.04 37.44-16.79 34.84-16.79L26.19-16.79C21.66-16.79 19.83-16.36 17.12-14.66L12.76-11.92L8.72-11.43C4.90-10.97 2.99-9.19 2.99-6.09L2.99-4.22C2.99-2.30 4.11-1.18 5.95-1.18ZM33.91-6.50C32.03-6.50 30.49-5.23 30.11-3.47L15.69-3.47C15.30-5.23 13.76-6.50 11.88-6.50C10.00-6.50 8.45-5.23 8.06-3.47L6.15-3.47C5.58-3.47 5.27-3.82 5.27-4.52L5.27-6.09C5.27-7.88 6.40-8.84 9-9.15L13.54-9.71L18.34-12.71C20.70-14.18 22.03-14.52 26.19-14.52L34.84-14.52C36.64-14.52 37.59-14.06 38.43-12.87L38.93-12.15C39.56-11.25 39.93-10.15 39.93-9.18L39.93-4.50C39.93-3.74 39.69-3.47 39.02-3.47L37.72-3.47C37.34-5.23 35.80-6.50 33.91-6.50ZM11.88-0.86C10.89-0.86 10.14-1.61 10.14-2.59C10.14-3.59 10.89-4.34 11.88-4.34C12.87-4.34 13.62-3.59 13.62-2.59C13.62-1.61 12.87-0.86 11.88-0.86ZM33.91-0.86C32.92-0.86 32.18-1.61 32.18-2.59C32.18-3.59 32.92-4.34 33.91-4.34C34.90-4.34 35.65-3.59 35.65-2.59C35.65-1.61 34.90-0.86 33.91-0.86Z" fill="currentColor"/>
</svg>