<svg xmlns="http://www.w3.org/2000/svg" viewBox="0 0 24 24" width="24" height="24">
  <title>suv.side.air.circulate.fill</title>
  <path transform="matrix(0.47433759496016303, 0, 0, 0.47433759496016303, 0.5825458588104504, 16.088382434685936)" d="M43.65-14.57L43.13-15.34C41.74-17.36 40.03-18.16 37.23-18.16L27.94-18.16C23.06-18.16 21.09-17.68 18.19-15.87L13.49-12.91L9.15-12.39C5.05-11.88 2.99-9.97 2.99-6.64L2.99-4.64C2.99-2.58 4.20-1.37 6.18-1.37L7.92-1.37C7.85-1.69 7.82-2.02 7.82-2.36C7.82-4.97 9.94-7.09 12.55-7.09C15.16-7.09 17.27-4.97 17.27-2.36C17.27-2.02 17.24-1.69 17.17-1.37L31.57-1.37C31.50-1.69 31.46-2.02 31.46-2.36C31.46-4.97 33.59-7.09 36.20-7.09C38.80-7.09 40.92-4.97 40.92-2.36C40.92-2.02 40.89-1.69 40.82-1.37L42.02-1.37C44.13-1.37 45.15-2.51 45.15-4.86L45.15-9.97C45.15-11.46 44.60-13.20 43.65-14.57ZM18.54-10.13C18.54-12.20 20.07-13.63 22.34-13.63L29.21-13.63C29.77-13.63 30.15-13.24 30.15-12.73C30.15-12.20 29.77-11.84 29.23-11.84L22.34-11.84C21.16-11.84 20.38-11.11 20.38-10.03C20.38-9.07 21.15-8.43 22.31-8.43L26.93-8.43L26.93-9.39C26.93-10.14 27.48-10.39 28.13-9.97L30.89-8.16C31.41-7.80 31.38-7.18 30.89-6.88L28.10-5.05C27.47-4.64 26.93-4.91 26.93-5.65L26.93-6.64L22.31-6.64C20.07-6.64 18.54-8.05 18.54-10.13ZM12.55 0.93C14.38 0.93 15.83-0.53 15.83-2.36C15.83-4.18 14.37-5.65 12.55-5.65C10.72-5.65 9.26-4.18 9.26-2.36C9.26-0.54 10.72 0.93 12.55 0.93ZM36.20 0.93C38.02 0.93 39.48-0.54 39.48-2.36C39.48-4.18 38.02-5.65 36.20-5.65C34.38-5.65 32.91-4.17 32.91-2.36C32.91-0.54 34.37 0.93 36.20 0.93Z" fill="currentColor"/>
</svg>