<svg xmlns="http://www.w3.org/2000/svg" viewBox="0 0 24 24" width="24" height="24">
  <title>suv.side.rear.open.crop</title>
  <path transform="matrix(0.7828746177370031, 0, 0, 0.7828746177370031, 0.1376146788990824, 20.128440366972477)" d="M3-0.62L10.09-0.62C10.71 1.16 12.39 2.39 14.41 2.39C16.43 2.39 18.11 1.16 18.74-0.62L20.91-0.62C23.23-0.62 24.30-1.82 24.30-4.41L24.30-10.15C24.30-11.81 23.67-13.71 22.64-15.23L22.04-16.11C21.54-16.86 20.99-17.46 20.37-17.92L23.17-20.75C23.45-21.05 23.77-21.16 24.19-21.16L26.30-21.16C26.93-21.16 27.32-21.57 27.32-22.17C27.32-22.76 26.92-23.16 26.30-23.16L24.33-23.16C23.19-23.16 22.36-22.85 21.66-22.14L18.43-18.88C17.59-19.13 16.64-19.23 15.53-19.23L5.06-19.23C4.31-19.23 3.62-19.22 2.99-19.20L2.99-16.91C3.61-16.92 4.30-16.95 5.06-16.95L15.53-16.95C17.80-16.95 19.07-16.31 20.14-14.80L20.75-13.95C21.55-12.81 22.01-11.38 22.01-10.15L22.01-4.49C22.01-3.43 21.56-2.91 20.60-2.91L18.95-2.91C18.61-5.13 16.75-6.77 14.41-6.77C12.07-6.77 10.21-5.13 9.87-2.91L3-2.91ZM14.41 0.20C13.08 0.20 12.04-0.84 12.04-2.18C12.04-3.52 13.08-4.56 14.41-4.56C15.74-4.56 16.79-3.52 16.79-2.18C16.79-0.84 15.74 0.20 14.41 0.20Z" fill="currentColor"/>
</svg>