<svg xmlns="http://www.w3.org/2000/svg" viewBox="0 0 24 24" width="24" height="24">
  
  <path transform="matrix(0.7299686341602509, 0, 0, 0.7299686341602509, 0.3519138023387014, 18.176218990590247)" d="M2.99-14.16L13.38-14.16L13.38-19.10C13.38-21.01 12.22-22.16 10.27-22.16L6.21-22.16C4.20-22.16 2.99-21.01 2.99-19.10ZM15.05-12.70L20.63-9.48L23.07-13.73C24.04-15.40 23.58-17.07 21.87-18.06L18.50-20.00C17.21-20.74 15.96-20.70 15.05-19.92C15.08-19.57 15.08-19.20 15.05-18.82ZM23.00-1.88L27.32-4.36C28.97-5.32 29.38-6.90 28.41-8.61L26.39-12.12C25.98-12.83 25.44-13.32 24.80-13.58C24.71-13.29 24.60-13.04 24.46-12.80L20.58-6.07ZM2.99-4.48L13.38-4.48L13.38-12.45L2.99-12.45ZM15.05 0.16L19.77-7.99L15.05-10.72ZM15.73 2.33L21.52-1.02L19.58-4.36ZM6.21 5.24L10.27 5.24C12.22 5.24 13.38 4.09 13.38 2.17L13.38-2.77L2.99-2.77L2.99 2.17C2.99 4.09 4.20 5.24 6.21 5.24Z" fill="currentColor"/>
</svg>