<svg xmlns="http://www.w3.org/2000/svg" viewBox="0 0 24 24" width="24" height="24">
  <title>swedishkronasign.square</title>
  <path transform="matrix(0.9141224781289056, 0, 0, 0.9141224781289056, -0.7316550615961437, 19.728976968398502)" d="M6.83 2.48L21.02 2.48C23.55 2.48 24.87 1.18 24.87-1.32L24.87-15.59C24.87-18.08 23.55-19.39 21.02-19.39L6.83-19.39C4.30-19.39 2.99-18.09 2.99-15.59L2.99-1.32C2.99 1.18 4.30 2.48 6.83 2.48ZM6.97 0.19C5.88 0.19 5.29-0.38 5.29-1.51L5.29-15.39C5.29-16.52 5.88-17.10 6.97-17.10L20.88-17.10C21.96-17.10 22.57-16.52 22.57-15.39L22.57-1.51C22.57-0.38 21.96 0.19 20.88 0.19ZM10.07-3.82C10.50-3.82 10.79-4.13 10.79-4.57L10.79-6.34L11.43-6.96L13.35-4.23C13.50-3.97 13.71-3.82 14.02-3.82C14.39-3.82 14.71-4.09 14.71-4.45C14.71-4.66 14.63-4.82 14.51-4.98L12.48-7.84L14.37-9.82C14.55-10.01 14.64-10.13 14.64-10.35C14.64-10.69 14.36-10.98 13.99-10.98C13.78-10.98 13.56-10.85 13.42-10.70L10.83-7.84L10.79-7.84L10.79-12.88C10.79-13.34 10.50-13.65 10.07-13.65C9.64-13.65 9.34-13.35 9.34-12.89L9.34-4.57C9.34-4.13 9.64-3.82 10.07-3.82ZM16.68-3.82C17.02-3.82 17.36-4.04 17.36-4.57L17.36-7.98C17.36-8.78 17.65-9.59 18.57-9.60C18.83-9.60 19.09-9.63 19.28-9.76C19.44-9.86 19.54-10.02 19.54-10.25C19.54-10.71 19.21-10.98 18.76-10.98C18.01-10.98 17.53-10.34 17.38-9.59L17.30-9.59L17.30-10.25C17.30-10.66 17.03-10.98 16.65-10.98C16.27-10.98 15.98-10.66 15.98-10.25L15.98-4.57C15.98-4.13 16.24-3.82 16.68-3.82Z" fill="currentColor"/>
</svg>