<svg xmlns="http://www.w3.org/2000/svg" viewBox="0 0 24 24" width="24" height="24">
  
  <path transform="matrix(0.8260729267505647, 0, 0, 0.8260729267505647, 0.2671829622458859, 18.989351403678604)" d="M14.20 3.64C20.88 3.64 26.31-1.78 26.31-8.46C26.31-15.14 20.88-20.57 14.20-20.57C7.52-20.57 2.10-15.14 2.10-8.46C2.10-1.78 7.52 3.64 14.20 3.64ZM14.20 1.25C8.82 1.25 4.48-3.08 4.48-8.46C4.48-13.48 8.27-17.60 13.15-18.13C11.04-17.65 9.33-15.76 9.33-13.36C9.33-11.18 11.20-9.30 14.20-8.46C17.21-7.61 19.10-5.72 19.10-3.56C19.10-1.25 17.50 0.69 15.32 1.20C14.95 1.24 14.58 1.25 14.20 1.25Z" fill="currentColor"/>
</svg>