<svg xmlns="http://www.w3.org/2000/svg" viewBox="0 0 24 24" width="24" height="24">
  
  <path transform="matrix(0.7228558074609016, 0, 0, 0.7228558074609016, 0.04960807324537608, 18.153571004176392)" d="M17.36-18.54L26.43-9.47C26.88-9.01 27.62-9.01 28.08-9.47C28.52-9.91 28.52-10.66 28.08-11.12L26.80-12.39L27.32-12.90C27.77-13.36 27.79-14.10 27.32-14.54L25.77-16.09L27.12-17.43L28.37-16.17C28.83-15.71 29.58-15.71 30.02-16.17C30.48-16.63 30.48-17.37 30.02-17.81L26.03-21.82C25.57-22.27 24.83-22.27 24.38-21.82C23.93-21.36 23.92-20.63 24.38-20.17L25.64-18.90L24.30-17.57L22.42-19.44C21.97-19.90 21.23-19.90 20.78-19.44L20.26-18.93L19.00-20.19C18.53-20.66 17.80-20.65 17.36-20.19C16.90-19.73 16.88-19.02 17.36-18.54ZM2.99 4.86C3.36 5.23 3.96 5.21 4.34 4.84L8.79 0.39L9.45 1.05C10.65 2.26 12.21 2.21 13.49 0.93L24.20-9.77L17.65-16.32L16.13-14.80L19.04-11.88C19.25-11.65 19.27-11.26 19.04-11.06C18.80-10.83 18.46-10.83 18.22-11.06L15.29-13.98L13.70-12.38L16.62-9.47C16.85-9.23 16.85-8.87 16.63-8.64C16.38-8.41 16.03-8.41 15.80-8.64L12.89-11.57L11.27-9.96L14.20-7.04C14.43-6.82 14.43-6.45 14.21-6.22C13.97-5.99 13.62-6 13.38-6.22L10.45-9.14L8.86-7.55L11.78-4.63C12-4.41 12.01-4.04 11.79-3.82C11.55-3.57 11.21-3.57 10.96-3.81L8.05-6.74L6.93-5.60C5.65-4.32 5.61-2.80 6.82-1.58L7.44-0.96L2.99 3.49C2.61 3.87 2.59 4.48 2.99 4.86Z" fill="currentColor"/>
</svg>