<svg xmlns="http://www.w3.org/2000/svg" viewBox="0 0 24 24" width="24" height="24">
  
  <path transform="matrix(0.6876175127585281, 0, 0, 0.6876175127585281, -0.054794520547945424, 17.8058017727639)" d="M2.99-16.71L2.99-0.19C2.99 0.52 3.45 0.97 4.15 0.97L8.24 0.97C8.93 0.97 9.39 0.52 9.39-0.19L9.39-11.46L25.68-11.46L25.68-0.19C25.68 0.52 26.13 0.97 26.84 0.97L30.93 0.97C31.62 0.97 32.07 0.52 32.07-0.19L32.07-16.71C32.07-17.40 31.62-17.86 30.93-17.86L4.14-17.86C3.45-17.86 2.99-17.40 2.99-16.71Z" fill="currentColor"/>
</svg>