<svg xmlns="http://www.w3.org/2000/svg" viewBox="0 0 24 24" width="24" height="24">
  
  <path transform="matrix(0.750265596952046, 0, 0, 0.750265596952046, -0.012303549962749738, 17.799538410814375)" d="M16.85 4.28L28.34-7.22C29.25-8.13 29.33-8.67 29.33-10.00L29.33-14.45C29.33-15.74 29.03-16.17 28.08-17.12L25.39-19.80C24.46-20.74 24.01-21.06 22.72-21.06L18.27-21.06C16.96-21.06 16.42-20.95 15.50-20.04L4.01-8.55C2.26-6.82 2.24-4.96 4.01-3.19L11.48 4.27C13.27 6.05 15.11 6.04 16.85 4.28ZM15.36 2.52C14.58 3.29 13.77 3.30 12.96 2.51L5.78-4.68C4.97-5.48 4.99-6.30 5.77-7.08L17.13-18.42C17.37-18.67 17.60-18.80 17.98-18.80L22.71-18.80C23.06-18.80 23.31-18.67 23.54-18.43L26.72-15.26C26.94-15.02 27.07-14.79 27.07-14.44L27.07-9.69C27.07-9.30 26.95-9.08 26.72-8.85ZM21.27-11.31C22.23-11.31 22.96-12.06 22.96-13.00C22.96-13.93 22.23-14.67 21.27-14.67C20.31-14.67 19.59-13.93 19.59-13.00C19.59-12.06 20.31-11.31 21.27-11.31Z" fill="currentColor"/>
</svg>