<svg xmlns="http://www.w3.org/2000/svg" viewBox="0 0 24 24" width="24" height="24">
  <title>tag.circle</title>
  <path transform="matrix(0.8260729267505647, 0, 0, 0.8260729267505647, 0.2671829622458859, 18.989351403678604)" d="M14.20 3.64C20.88 3.64 26.31-1.78 26.31-8.46C26.31-15.14 20.88-20.57 14.20-20.57C7.52-20.57 2.10-15.14 2.10-8.46C2.10-1.78 7.52 3.64 14.20 3.64ZM14.20 1.25C8.82 1.25 4.48-3.08 4.48-8.46C4.48-13.84 8.82-18.19 14.20-18.19C19.58-18.19 23.93-13.84 23.93-8.46C23.93-3.08 19.58 1.25 14.20 1.25ZM11.75-2.44C12.48-1.70 13.25-1.65 14.00-2.41L19.62-7.99C20.06-8.41 20.37-8.73 20.37-9.43L20.37-11.60C20.37-12.14 20.24-12.45 19.86-12.82L18.82-13.85C18.46-14.21 18.14-14.43 17.60-14.43L15.36-14.43C14.67-14.43 14.36-14.11 13.92-13.68L8.37-8.06C7.61-7.30 7.65-6.55 8.38-5.81ZM16.17-10.22C15.82-10.56 15.82-11.13 16.17-11.47C16.51-11.82 17.07-11.82 17.41-11.47C17.75-11.14 17.75-10.58 17.41-10.23C17.06-9.88 16.51-9.88 16.17-10.22Z" fill="currentColor"/>
</svg>