<svg xmlns="http://www.w3.org/2000/svg" viewBox="0 0 24 24" width="24" height="24">
  
  <path transform="matrix(0.5919759509769915, 0, 0, 0.5919759509769915, 0.40443981963232756, 17.00867152271939)" d="M8.79-3.53C12.29-0.01 16.49 2.66 19.86 2.66C21.46 2.66 22.83 2.03 23.74 1.01C24.61 0.04 24.93-0.70 24.93-1.35C24.93-1.85 24.61-2.31 23.84-2.86L20.92-4.95C20.20-5.46 19.88-5.55 19.45-5.55C19.08-5.55 18.77-5.48 18.14-5.14L16.25-4.10C16.03-3.98 15.93-3.95 15.76-3.95C15.53-3.95 15.39-4.01 15.15-4.10C14.24-4.52 12.97-5.52 11.85-6.66C10.72-7.78 9.84-8.93 9.39-9.84C9.33-9.96 9.25-10.14 9.25-10.34C9.25-10.49 9.33-10.63 9.42-10.79L10.54-12.70C10.84-13.23 10.93-13.51 10.93-13.92C10.93-14.39 10.78-14.88 10.32-15.52L8.33-18.30C7.76-19.10 7.30-19.58 6.66-19.58C5.86-19.58 4.90-18.96 4.21-18.30C3.22-17.34 2.70-16.01 2.70-14.51C2.70-11.12 5.31-7.01 8.79-3.53ZM15.47-14.29L17.52-14.29C18.32-14.29 18.75-14.73 18.75-15.53L18.75-17.59C18.75-18.40 18.32-18.83 17.52-18.83L15.47-18.83C14.67-18.83 14.20-18.40 14.20-17.59L14.20-15.53C14.20-14.73 14.67-14.29 15.47-14.29ZM21.36-14.29L23.43-14.29C24.21-14.29 24.67-14.73 24.67-15.53L24.67-17.59C24.67-18.40 24.21-18.83 23.43-18.83L21.36-18.83C20.57-18.83 20.10-18.40 20.10-17.59L20.10-15.53C20.10-14.73 20.57-14.29 21.36-14.29ZM27.26-14.29L29.31-14.29C30.11-14.29 30.56-14.73 30.56-15.53L30.56-17.59C30.56-18.40 30.11-18.83 29.31-18.83L27.26-18.83C26.46-18.83 26.02-18.40 26.02-17.59L26.02-15.53C26.02-14.73 26.46-14.29 27.26-14.29ZM33.15-14.29L35.20-14.29C36.01-14.29 36.48-14.73 36.48-15.53L36.48-17.59C36.48-18.40 36.01-18.83 35.20-18.83L33.15-18.83C32.37-18.83 31.92-18.40 31.92-17.59L31.92-15.53C31.92-14.73 32.37-14.29 33.15-14.29ZM15.43-8.37L17.50-8.37C18.29-8.37 18.75-8.81 18.75-9.62L18.75-11.70C18.75-12.48 18.29-12.94 17.50-12.94L15.43-12.94C14.65-12.94 14.20-12.48 14.20-11.70L14.20-9.62C14.20-8.81 14.65-8.37 15.43-8.37ZM21.34-8.37L29.36-8.37C30.15-8.37 30.59-8.81 30.59-9.62L30.59-11.70C30.59-12.48 30.15-12.94 29.36-12.94L21.34-12.94C20.54-12.94 20.10-12.48 20.10-11.70L20.10-9.62C20.10-8.81 20.54-8.37 21.34-8.37ZM33.19-8.37L35.25-8.37C36.05-8.37 36.48-8.81 36.48-9.62L36.48-11.70C36.48-12.48 36.05-12.94 35.25-12.94L33.19-12.94C32.39-12.94 31.93-12.48 31.93-11.70L31.93-9.62C31.93-8.81 32.39-8.37 33.19-8.37Z" fill="currentColor"/>
</svg>