<svg xmlns="http://www.w3.org/2000/svg" viewBox="0 0 24 24" width="24" height="24">
  <title>tent.fill</title>
  <path transform="matrix(0.5588299497926217, 0, 0, 0.5588299497926217, 0.6640471512770139, 16.640227507409655)" d="M9.76 3.88L30.80 3.88C32.36 3.88 32.86 2.46 32.24 1.23L27.01-9.26L35.95 3.25C36.27 3.68 36.67 3.86 37.07 3.86C37.66 3.86 38.18 3.48 38.18 2.73L38.18-0.83C38.18-1.34 37.77-1.76 37.25-1.76C36.75-1.76 36.34-1.34 36.34-0.83L36.34 0.67L21.82-19.63C21-20.78 19.57-20.77 18.75-19.63L4.23 0.67L4.23-0.83C4.23-1.34 3.82-1.76 3.32-1.76C2.80-1.76 2.39-1.34 2.39-0.83L2.39 2.73C2.39 3.48 2.91 3.86 3.50 3.86C3.90 3.86 4.30 3.68 4.62 3.25L13.56-9.26L8.32 1.23C7.71 2.46 8.21 3.88 9.76 3.88ZM14.33 1.80L19.44-9.05C19.62-9.42 19.95-9.61 20.27-9.61C20.61-9.61 20.94-9.42 21.12-9.05L26.23 1.80L22.18 1.80L20.27-6.45L18.38 1.80Z" fill="currentColor"/>
</svg>