<svg xmlns="http://www.w3.org/2000/svg" viewBox="0 0 24 24" width="24" height="24">
  <title>theatermask.and.paintbrush</title>
  <path transform="matrix(0.6838010510367711, 0, 0, 0.6838010510367711, 0.262515328822281, 17.961190788183874)" d="M5.12-8.92C6.39-4.17 9.57-1.68 13.83-1.98C13.52-0.81 13.83 0.26 13.25 0.86C12.48 1.66 11.61 1.44 11.05 2.05C10.61 2.54 10.57 3.28 11.27 3.97C13.84 6.50 18.69 6.60 21.20 3.97C22.59 2.51 23.10 0.76 22.68-0.87C23.73-1.29 24.60-2.09 25.48-3.34C28.30-7.37 30.60-14.07 31.15-15.71C32.06-18.33 29.58-20.29 27.34-18.39C26.93-18.04 24.60-15.81 22.18-13.10C22.15-13.22 22.13-13.35 22.09-13.46L20.11-20.84C19.55-22.92 18.09-23.73 15.96-23.17L5.55-20.39C3.42-19.84 2.59-18.41 3.16-16.29ZM7.24-9.48L5.29-16.78C5.09-17.55 5.38-18.09 6.15-18.30L16.51-21.08C17.29-21.29 17.81-20.96 18.02-20.17L19.98-12.90C20.17-12.19 20.27-11.53 20.31-10.91C19.61-10.04 18.93-9.18 18.34-8.33C17.47-7.08 17.02-5.98 16.97-4.84C16.70-4.79 16.43-4.71 16.17-4.61L16.17-4.72C15.71-4.54 15.59-4.50 15.41-4.44C11.37-3.39 8.38-5.23 7.24-9.48ZM15.98-14.78C16.75-14.99 17.11-14.63 17.41-14.70C17.67-14.77 17.75-15.06 17.65-15.43C17.41-16.38 16.44-16.91 15.49-16.66C14.54-16.41 13.96-15.46 14.23-14.53C14.34-14.13 14.57-13.93 14.79-13.99C15.12-14.07 15.23-14.58 15.98-14.78ZM28.45-16.48C28.76-16.79 29.19-16.51 29.00-16.09C28.72-15.38 27.02-10.11 24.69-6.12C23.92-7.32 22.59-8.26 21.21-8.57C24.07-12.20 27.88-15.90 28.45-16.48ZM9.76-13.09C10.52-13.28 10.89-12.94 11.20-13.02C11.45-13.08 11.53-13.36 11.43-13.76C11.19-14.71 10.20-15.26 9.27-14.98C8.31-14.74 7.73-13.78 8.00-12.84C8.12-12.45 8.34-12.23 8.57-12.30C8.89-12.40 9.01-12.89 9.76-13.09ZM14.82-6.80C16.86-7.36 18.18-8.89 18.25-10.80C18.26-11.31 17.85-11.48 17.40-11.16C16.24-10.34 14.87-9.93 14.10-9.71C13.28-9.48 11.87-9.14 10.41-9.28C9.89-9.35 9.59-8.98 9.87-8.57C10.89-6.95 12.80-6.26 14.82-6.80ZM21.18-3.30C20.53-3.93 19.83-4.37 19.13-4.62C19.10-5.30 19.36-6 19.95-6.87C21.33-6.88 23.09-5.65 23.55-4.34C22.90-3.46 22.34-3.01 21.67-2.79C21.52-2.96 21.35-3.14 21.18-3.30ZM13.90 3.29C13.73 3.18 13.70 3.01 13.79 2.89C13.92 2.71 14.50 2.58 14.87 2.05C15.88 0.67 15.18-0.84 16.25-2.04C17.16-3.05 18.61-2.99 19.80-1.90C21.15-0.69 21.06 1.09 19.72 2.53C18.26 4.16 15.70 4.56 13.90 3.29Z" fill="currentColor"/>
</svg>