<svg xmlns="http://www.w3.org/2000/svg" viewBox="0 0 24 24" width="24" height="24">
  <title>theatermasks.fill</title>
  <path transform="matrix(0.49547514490446193, 0, 0, 0.49547514490446193, 0.5185627183109522, 16.363814201424404)" d="M17.44 1.14C23.33-0.47 25.86-5.06 24.21-11.21L22.00-19.48C21.39-21.79 19.83-22.64 17.47-22.02L5.81-18.93C3.45-18.29 2.55-16.78 3.19-14.43L5.38-6.19C7.02-0.04 11.52 2.71 17.44 1.14ZM40.52-15.88L28.86-19.00C26.78-19.56 25.27-18.97 24.61-17.19L24.49-16.77L25.86-11.66C27.18-6.73 26.09-2.54 22.99 0.16C24.16 2.05 26.23 3.45 28.92 4.17C34.80 5.73 39.28 2.99 40.95-3.15L43.16-11.39C43.79-13.71 42.88-15.25 40.52-15.88ZM17.50-12.89C16.61-12.64 16.50-12.07 16.13-12.01C15.94-11.98 15.73-12.16 15.63-12.52C15.35-13.50 15.97-14.57 16.98-14.82C18.01-15.08 19.04-14.48 19.31-13.50C19.42-13.14 19.32-12.88 19.13-12.81C18.71-12.67 18.30-13.11 17.50-12.89ZM10.38-10.97C9.50-10.72 9.39-10.15 9.01-10.08C8.84-10.04 8.61-10.24 8.52-10.59C8.24-11.58 8.87-12.64 9.88-12.90C10.90-13.15 11.94-12.55 12.20-11.59C12.32-11.21 12.21-10.95 12.02-10.89C11.61-10.75 11.20-11.19 10.38-10.97ZM28.62-8.53C27.80-8.74 27.32-9.56 27.53-10.41C27.75-11.21 28.58-11.71 29.41-11.48C30.23-11.26 30.71-10.41 30.49-9.60C30.27-8.78 29.44-8.30 28.62-8.53ZM35.50-6.69C34.68-6.91 34.20-7.76 34.43-8.58C34.64-9.40 35.47-9.87 36.29-9.64C37.11-9.43 37.59-8.60 37.37-7.77C37.15-6.96 36.32-6.47 35.50-6.69ZM16.25-3.33C13.80-2.68 11.45-3.52 10.21-5.48C9.95-5.87 10.18-6.25 10.68-6.20C12.15-6.08 13.99-6.33 15.35-6.70C16.70-7.05 18.39-7.73 19.63-8.59C20.04-8.88 20.43-8.67 20.40-8.19C20.32-5.87 18.73-4.01 16.25-3.33ZM30.57-2.19C29.37-2.52 28.17-2.52 26.74-2.21C26.25-2.11 25.98-2.51 26.23-2.88C27.25-4.44 29.24-5.12 31.22-4.58C33.25-4.07 34.63-2.50 34.70-0.63C34.72-0.16 34.29 0.04 33.93-0.29C32.81-1.29 31.80-1.86 30.57-2.19Z" fill="currentColor"/>
</svg>