<svg xmlns="http://www.w3.org/2000/svg" viewBox="0 0 24 24" width="24" height="24">
  <title>thermometer.gauge.open</title>
  <path transform="matrix(0.755831118984352, 0, 0, 0.755831118984352, 0.4145261293179805, 18.43766119146758)" d="M15.33-19.93C8.02-19.93 2.10-14.02 2.10-6.70C2.10-3.14 3.50 0.12 5.85 2.52C6.34 3.02 7.13 3.02 7.64 2.53C8.10 2.07 8.00 1.29 7.46 0.69C5.67-1.22 4.58-3.86 4.58-6.70C4.58-12.70 9.34-17.48 15.33-17.48C21.33-17.48 26.07-12.70 26.07-6.70C26.07-3.86 24.98-1.22 23.19 0.69C22.65 1.29 22.56 2.07 23.02 2.53C23.53 3.02 24.33 3.02 24.81 2.52C27.15 0.12 28.56-3.14 28.56-6.70C28.56-14.02 22.64-19.93 15.33-19.93ZM14.86-0.61C16.32-0.61 17.50-1.78 17.50-3.27C17.50-4.29 16.92-5.13 16.10-5.58C15.82-5.74 15.71-5.93 15.71-6.35L15.71-11.67C15.71-12.16 15.33-12.54 14.86-12.54C14.38-12.54 14.00-12.16 14.00-11.67L14.00-6.35C14.00-5.93 13.90-5.74 13.61-5.58C12.79-5.13 12.21-4.29 12.21-3.27C12.21-1.78 13.38-0.61 14.86-0.61ZM17.63-10.28L19.65-10.28C19.97-10.28 20.23-10.54 20.23-10.85C20.23-11.18 19.97-11.44 19.65-11.44L17.63-11.44C17.31-11.44 17.05-11.18 17.05-10.85C17.05-10.54 17.31-10.28 17.63-10.28ZM17.63-8.26L19.65-8.26C19.97-8.26 20.23-8.52 20.23-8.84C20.23-9.16 19.97-9.42 19.65-9.42L17.63-9.42C17.31-9.42 17.05-9.16 17.05-8.84C17.05-8.52 17.31-8.26 17.63-8.26ZM17.63-6.22L19.65-6.22C19.97-6.22 20.23-6.48 20.23-6.81C20.23-7.13 19.97-7.38 19.65-7.38L17.63-7.38C17.31-7.38 17.05-7.13 17.05-6.81C17.05-6.48 17.31-6.22 17.63-6.22Z" fill="currentColor"/>
</svg>