<svg xmlns="http://www.w3.org/2000/svg" viewBox="0 0 24 24" width="24" height="24">
  <title>thermometer.medium.slash</title>
  <path transform="matrix(0.7575085071756177, 0, 0, 0.7575085071756177, 3.8774966711051917, 18.413670661340436)" d="M9.40-21.67C7.43-21.67 5.95-20.46 5.58-18.57L5.57-17.92L7.44-16.04L7.44-17.30C7.44-18.70 8.24-19.64 9.40-19.64C10.54-19.64 11.33-18.70 11.33-17.30L11.33-12.15L13.36-10.13L13.36-17.32C13.36-19.92 11.75-21.67 9.40-21.67ZM19.44 0.63C19.80 1.00 20.41 1.00 20.77 0.63C21.12 0.26 21.13-0.33 20.77-0.69L2.00-19.44C1.64-19.80 1.04-19.80 0.68-19.44C0.33-19.09 0.32-18.48 0.68-18.12ZM15.59-17.11L18.16-17.11C18.60-17.11 18.89-17.44 18.89-17.82C18.89-18.21 18.60-18.54 18.16-18.54L15.59-18.54C15.15-18.54 14.86-18.21 14.86-17.82C14.86-17.44 15.15-17.11 15.59-17.11ZM15.59-13.85L18.16-13.85C18.60-13.85 18.89-14.18 18.89-14.57C18.89-14.95 18.60-15.28 18.16-15.28L15.59-15.28C15.15-15.28 14.86-14.95 14.86-14.57C14.86-14.18 15.15-13.85 15.59-13.85ZM15.59-10.58L18.16-10.58C18.60-10.58 18.89-10.92 18.89-11.30C18.89-11.68 18.60-12.01 18.16-12.01L15.59-12.01C15.15-12.01 14.86-11.68 14.86-11.30C14.86-10.92 15.15-10.58 15.59-10.58ZM9.40 4.73C12.49 4.73 15.06 2.54 15.61-0.38C15.64-0.60 15.66-0.83 15.64-1.05L13.36-3.34C13.63-2.82 13.77-2.25 13.77-1.65C13.77 0.76 11.80 2.73 9.40 2.73C6.97 2.73 5.02 0.75 5.02-1.66C5.02-3.15 5.71-4.45 6.95-5.27C7.30-5.51 7.44-5.73 7.44-6.21L7.44-9.33L5.41-11.36L5.41-7.03C5.41-6.69 5.38-6.56 5.12-6.34C3.71-5.06 2.99-3.46 2.99-1.64C2.99 1.89 5.85 4.73 9.40 4.73ZM9.39 1.15C10.95 1.15 12.20-0.11 12.20-1.68C12.20-2.77 11.59-3.66 10.69-4.14C10.31-4.35 10.20-4.49 10.20-5.05L10.20-6.59L8.59-8.18L8.59-5.05C8.59-4.49 8.46-4.35 8.09-4.14C7.20-3.66 6.59-2.77 6.59-1.68C6.59-0.11 7.84 1.15 9.39 1.15Z" fill="currentColor"/>
</svg>