<svg xmlns="http://www.w3.org/2000/svg" viewBox="0 0 24 24" width="24" height="24">
  <title>timer</title>
  <path transform="matrix(0.8260729267505647, 0, 0, 0.8260729267505647, 0.2671829622458859, 18.989351403678604)" d="M14.20 3.64C20.88 3.64 26.31-1.78 26.31-8.46C26.31-15.14 20.88-20.57 14.21-20.57C13.50-20.57 13.10-20.14 13.10-19.44L13.10-15.84C13.10-15.25 13.51-14.79 14.10-14.79C14.70-14.79 15.11-15.25 15.11-15.84L15.11-18.13C19.72-17.74 23.93-13.84 23.93-8.46C23.93-3.08 19.58 1.25 14.20 1.25C8.82 1.25 4.48-3.08 4.48-8.45C4.48-10.83 5.33-12.96 6.70-14.63C7.14-15.21 7.18-15.88 6.69-16.38C6.20-16.88 5.39-16.82 4.88-16.15C3.15-14.06 2.10-11.39 2.10-8.46C2.10-1.78 7.52 3.64 14.20 3.64ZM14.20-6.48C15.30-6.48 16.18-7.37 16.18-8.46C16.18-9.13 15.86-9.73 15.32-10.10L9.70-13.99C9.01-14.45 8.36-13.78 8.80-13.09L12.48-7.49C12.87-6.88 13.49-6.48 14.20-6.48Z" fill="currentColor"/>
</svg>