<svg xmlns="http://www.w3.org/2000/svg" viewBox="0 0 24 24" width="24" height="24">
  
  <path transform="matrix(0.6946140279473613, 0, 0, 0.6946140279473613, 4.022792022792023, 17.864875864875863)" d="M4.21-20.67L18.75-20.67C19.35-20.67 19.84-21.16 19.84-21.76C19.84-22.35 19.35-22.84 18.75-22.84L4.21-22.84C3.62-22.84 3.13-22.35 3.13-21.76C3.13-21.16 3.62-20.67 4.21-20.67ZM18.43-12.95L18.81-19.34L4.16-19.34L4.54-12.95C6.23-13.71 8.67-14.13 11.48-14.13C14.30-14.13 16.72-13.71 18.43-12.95ZM11.48-6.61C16.28-6.61 19.77-7.91 19.77-9.71C19.77-11.51 16.25-12.80 11.48-12.80C6.71-12.80 3.19-11.51 3.19-9.71C3.19-7.91 6.71-6.61 11.48-6.61ZM11.48-8.47C8.12-8.47 5.89-8.99 5.89-9.71C5.89-10.42 8.12-10.93 11.48-10.93C14.85-10.93 17.07-10.42 17.07-9.71C17.07-8.99 14.85-8.47 11.48-8.47ZM11.12-1.07L11.85-1.07C15.83-1.07 18.83-3.34 19.57-7.17C17.94-6 15.06-5.34 11.48-5.34C7.92-5.34 5.03-6 3.40-7.17C4.13-3.34 7.14-1.07 11.12-1.07ZM11.48 5.95C13.50 5.95 16.09 5.44 17.25 4.27C17.57 3.94 17.60 3.49 17.47 3.02L16.34-0.71C14.99-0.07 13.44 0.27 11.85 0.27L11.07 0.27C9.50 0.27 7.97-0.07 6.62-0.69L5.50 3.02C5.36 3.49 5.39 3.94 5.71 4.27C6.88 5.44 9.47 5.95 11.48 5.95Z" fill="currentColor"/>
</svg>