<svg xmlns="http://www.w3.org/2000/svg" viewBox="0 0 24 24" width="24" height="24">
  <title>tram.card</title>
  <path transform="matrix(0.7213299520991828, 0, 0, 0.7213299520991828, -0.15553677092138596, 18.094674556213015)" d="M6.83 1.69L26.87 1.69C29.40 1.69 30.71 0.39 30.71-2.11L30.71-14.78C30.71-17.29 29.40-18.59 26.87-18.59L6.83-18.59C4.30-18.59 2.99-17.29 2.99-14.78L2.99-2.11C2.99 0.40 4.30 1.69 6.83 1.69ZM6.97-0.61C5.88-0.61 5.29-1.17 5.29-2.31L5.29-14.59C5.29-15.73 5.88-16.29 6.97-16.29L26.73-16.29C27.81-16.29 28.42-15.73 28.42-14.59L28.42-2.31C28.42-1.17 27.81-0.61 26.73-0.61ZM13.76-2.68L19.96-2.68C21.04-2.68 21.66-3.40 21.66-4.43L21.66-8.45C21.66-9.94 21.48-11.25 21.27-12.14C21.02-13.23 20.36-13.96 19.24-14.09C18.86-14.13 17.95-14.21 16.86-14.21C15.76-14.21 14.87-14.13 14.47-14.09C13.37-13.96 12.70-13.23 12.45-12.14C12.23-11.25 12.06-9.94 12.06-8.45L12.06-4.43C12.06-3.40 12.68-2.68 13.76-2.68ZM15.45-12.35C15.22-12.35 15.06-12.52 15.06-12.73C15.06-12.95 15.22-13.10 15.45-13.10L18.28-13.10C18.50-13.10 18.66-12.95 18.66-12.73C18.66-12.52 18.50-12.35 18.28-12.35ZM16.86-6.39C15.55-6.40 14.40-6.46 13.82-6.53C13.46-6.56 13.32-6.80 13.32-7.13L13.32-8.44C13.32-9.54 13.44-10.45 13.52-10.84C13.58-11.10 13.75-11.29 14.00-11.31C14.61-11.39 15.41-11.43 16.86-11.43C18.30-11.44 19.10-11.39 19.70-11.32C19.97-11.29 20.13-11.10 20.19-10.84C20.27-10.45 20.39-9.54 20.39-8.44L20.39-7.13C20.39-6.80 20.25-6.56 19.90-6.53C19.05-6.43 17.91-6.40 16.86-6.39ZM19.45-3.89C19.02-3.89 18.68-4.23 18.68-4.66C18.68-5.10 19.02-5.44 19.45-5.44C19.89-5.44 20.23-5.10 20.23-4.66C20.23-4.23 19.88-3.89 19.45-3.89ZM14.26-3.90C13.83-3.90 13.50-4.22 13.50-4.66C13.50-5.10 13.83-5.43 14.26-5.43C14.71-5.43 15.02-5.10 15.02-4.66C15.02-4.22 14.70-3.90 14.26-3.90Z" fill="currentColor"/>
</svg>