<svg xmlns="http://www.w3.org/2000/svg" viewBox="0 0 24 24" width="24" height="24">
  
  <path transform="matrix(0.8260729267505647, 0, 0, 0.8260729267505647, 0.2671829622458859, 18.989351403678604)" d="M14.20 3.64C20.88 3.64 26.31-1.78 26.31-8.46C26.31-15.14 20.88-20.57 14.20-20.57C7.52-20.57 2.10-15.14 2.10-8.46C2.10-1.78 7.52 3.64 14.20 3.64ZM14.20 1.25C8.82 1.25 4.48-3.08 4.48-8.46C4.48-13.84 8.82-18.19 14.20-18.19C19.58-18.19 23.93-13.84 23.93-8.46C23.93-3.08 19.58 1.25 14.20 1.25ZM9.30-3.75L19.11-3.75C20.34-3.75 20.98-4.39 20.98-5.60L20.98-8.79C20.98-9.41 20.88-9.68 20.60-10.05L18.63-12.64C17.93-13.56 17.55-13.80 16.52-13.80L11.88-13.80C10.86-13.80 10.48-13.56 9.77-12.64L7.82-10.05C7.52-9.68 7.43-9.41 7.43-8.79L7.43-5.60C7.43-4.38 8.07-3.75 9.30-3.75ZM9.16-9.21C8.96-9.21 8.93-9.39 9.04-9.50L11.04-12.16C11.25-12.47 11.48-12.59 11.86-12.59L16.56-12.59C16.93-12.59 17.17-12.46 17.38-12.16L19.38-9.50C19.48-9.39 19.44-9.21 19.24-9.21L16.04-9.21C15.74-9.21 15.59-8.98 15.59-8.73L15.59-8.59C15.59-7.79 15.05-7.30 14.20-7.30C13.36-7.30 12.83-7.79 12.83-8.59L12.83-8.73C12.83-8.98 12.68-9.21 12.36-9.21Z" fill="currentColor"/>
</svg>