<svg xmlns="http://www.w3.org/2000/svg" viewBox="0 0 24 24" width="24" height="24">
  <title>triangle.lefthalf.filled</title>
  <path transform="matrix(0.8088467614533965, 0, 0, 0.8088467614533965, 0.06635071090047395, 18.829383886255926)" d="M2.39-0.59C2.39 1.28 3.70 2.78 5.74 2.78L23.75 2.78C25.80 2.78 27.12 1.28 27.12-0.59C27.12-1.14 26.96-1.70 26.67-2.23L17.65-17.96C17.00-19.08 15.89-19.66 14.75-19.66C13.61-19.66 12.50-19.08 11.86-17.96L2.84-2.24C2.54-1.71 2.39-1.14 2.39-0.59ZM14.75 0.57L14.75-17.33C15.16-17.33 15.59-17.14 15.81-16.75L24.63-1.32C24.74-1.10 24.77-0.88 24.77-0.69C24.77-0.04 24.28 0.57 23.55 0.57Z" fill="currentColor"/>
</svg>