<svg xmlns="http://www.w3.org/2000/svg" viewBox="0 0 24 24" width="24" height="24">
  
  <path transform="matrix(0.7736476276820792, 0, 0, 0.7736476276820792, 0.15049864007252944, 18.736174070716228)" d="M4.16 2.63L26.47 2.63C27.68 2.63 28.24 1.95 28.24 1.15C28.24 0.82 28.14 0.47 27.95 0.13L16.78-19.23C16.48-19.77 15.91-20.04 15.32-20.04C14.72-20.04 14.14-19.77 13.85-19.23L2.67 0.13C2.48 0.47 2.39 0.82 2.39 1.15C2.39 1.95 2.94 2.63 4.16 2.63ZM5.60 0.39C5.41 0.39 5.31 0.29 5.31 0.16C5.31 0.09 5.33 0.04 5.37-0.04L15.08-16.90C15.15-16.99 15.22-17.05 15.32-17.05C15.40-17.05 15.48-16.99 15.54-16.90L25.25-0.04C25.30 0.04 25.32 0.09 25.32 0.16C25.32 0.29 25.21 0.39 25.02 0.39Z" fill="currentColor"/>
</svg>