<svg xmlns="http://www.w3.org/2000/svg" viewBox="0 0 24 24" width="24" height="24">
  
  <path transform="matrix(0.7975077881619937, 0, 0, 0.7975077881619937, 4.228971962616822, 18.747663551401867)" d="M2.10 3.08C2.10 3.63 2.53 4.08 3.12 4.08C10.24 4.08 15.90-0.90 15.90-8.46C15.90-11.84 13.11-14.63 9.75-14.63C8.63-14.63 7.58-14.27 6.73-13.69C8.51-17.02 12.12-19.00 16.37-19.00C16.96-19.00 17.39-19.45 17.39-20.00C17.39-20.57 16.96-21 16.37-21C9.26-21 3.60-16.02 3.60-8.46C3.60-5.09 6.39-2.30 9.75-2.30C10.88-2.30 11.92-2.65 12.76-3.23C10.98 0.09 7.36 2.07 3.12 2.07C2.53 2.07 2.10 2.52 2.10 3.08ZM5.61-8.46C5.61-10.72 7.49-12.60 9.75-12.60C12-12.60 13.89-10.72 13.89-8.46C13.89-6.20 12-4.32 9.75-4.32C7.49-4.32 5.61-6.20 5.61-8.46ZM8.02-8.46C8.02-7.52 8.79-6.75 9.74-6.75C10.68-6.75 11.45-7.54 11.45-8.46C11.45-9.41 10.68-10.17 9.74-10.17C8.79-10.17 8.02-9.41 8.02-8.46Z" fill="currentColor"/>
</svg>