<svg xmlns="http://www.w3.org/2000/svg" viewBox="0 0 24 24" width="24" height="24">
  
  <path transform="matrix(0.5688888888888889, 0, 0, 0.5688888888888889, 0.30000000000000004, 16.626666666666665)" d="M6.45 1.42L7.85 1.42C8.29 3.30 9.97 4.72 11.99 4.72C14.00 4.72 15.68 3.30 16.10 1.42L25.09 1.42C25.51 3.30 27.20 4.72 29.21 4.72C31.23 4.72 32.92 3.30 33.34 1.42L34.69 1.42C36.94 1.42 38.14 0.21 38.14-2.04L38.14-6.26C38.14-7.48 37.96-8.05 37.27-8.82L33.22-13.39C32.48-14.21 31.66-14.52 30.45-14.52L27.30-14.52L27.30-17.53C27.30-19.77 26.10-20.99 23.85-20.99L6.45-20.99C4.20-20.99 2.99-19.78 2.99-17.53L2.99-2.04C2.99 0.21 4.20 1.42 6.45 1.42ZM11.99-3.74C10.13-3.74 8.54-2.54 7.97-0.87L6.56-0.87C5.71-0.87 5.29-1.29 5.29-2.14L5.29-17.41C5.29-18.28 5.71-18.70 6.56-18.70L23.74-18.70C24.57-18.70 25.02-18.28 25.02-17.41L25.02-0.87L15.98-0.87C15.42-2.54 13.84-3.74 11.99-3.74ZM29.21-3.74C28.54-3.74 27.88-3.57 27.30-3.28L27.30-12.22L30.25-12.22C30.84-12.22 31.28-12.11 31.73-11.59L35.37-7.51C35.70-7.14 35.86-6.67 35.86-6.19L35.86-2.14C35.86-1.29 35.43-0.87 34.58-0.87L33.22-0.87C32.65-2.54 31.08-3.74 29.21-3.74ZM29.53-6.14L34.49-6.14C34.49-6.42 34.38-6.57 34.21-6.76L30.83-10.56C30.56-10.86 30.26-11.03 29.89-11.03L28.48-11.03L28.48-7.20C28.48-6.55 28.89-6.14 29.53-6.14ZM11.99 2.81C10.71 2.81 9.66 1.77 9.66 0.49C9.66-0.80 10.71-1.84 11.99-1.84C13.27-1.84 14.30-0.80 14.30 0.49C14.30 1.77 13.27 2.81 11.99 2.81ZM29.21 2.81C27.94 2.81 26.89 1.77 26.89 0.49C26.89-0.80 27.94-1.84 29.21-1.84C30.48-1.84 31.52-0.80 31.52 0.49C31.52 1.77 30.49 2.81 29.21 2.81Z" fill="currentColor"/>
</svg>