<svg xmlns="http://www.w3.org/2000/svg" viewBox="0 0 24 24" width="24" height="24">
  
  <path transform="matrix(0.4411131213922633, 0, 0, 0.4411131213922633, 0.6818299302145259, 17.39674334453347)" d="M23.71-13.83L29.14-13.83C30.14-13.83 30.66-14.36 30.66-15.43L30.66-19.63C30.66-20.60 30.22-21.12 29.39-21.20L29.39-22.62C29.39-23.77 30.09-24.50 31.18-24.50C32.27-24.50 32.98-23.77 32.98-22.62L32.98-21.35C32.98-20.96 33.29-20.66 33.68-20.66C34.05-20.66 34.37-20.96 34.37-21.35L34.37-22.45C34.37-24.54 33.12-25.88 31.18-25.88C29.26-25.88 28.01-24.54 28.01-22.45L28.01-21.21L23.71-21.21C22.72-21.21 22.21-20.70 22.21-19.63L22.21-15.43C22.21-14.36 22.72-13.83 23.71-13.83ZM6.18-1.28L8.20-1.28C8.80 0.30 10.31 1.41 12.13 1.41C13.93 1.41 15.45 0.30 16.04-1.28L33.08-1.28C33.68 0.30 35.19 1.41 37.00 1.41C38.81 1.41 40.32 0.30 40.92-1.28L45.14-1.28C47.12-1.28 48.33-2.51 48.33-4.54L48.33-9.49C48.33-11.55 47.06-12.80 45.01-12.80L35.55-12.80L35.36-14.51C35.11-16.58 34.08-17.80 32.51-18.06L32.27-18.07L32.27-16.11C32.27-15.80 32.19-15.50 32.07-15.29L32.27-15.21C32.74-14.99 33.04-14.50 33.12-13.79L33.47-10.52L44.92-10.52C45.63-10.52 46.07-10.04 46.07-9.21L46.07-4.86C46.07-4.04 45.63-3.55 44.92-3.55L41.13-3.55C40.78-5.53 39.09-7.00 37.00-7.00C34.91-7.00 33.21-5.53 32.87-3.55L16.25-3.55C15.91-5.53 14.21-7.00 12.13-7.00C10.03-7.00 8.34-5.53 7.99-3.55L6.40-3.55C5.70-3.55 5.26-4.04 5.26-4.86L5.26-7.18C5.26-8.84 6.28-9.70 8.74-10.07L13.57-10.77L18.76-14.00C19.25-14.31 19.99-14.71 20.54-14.94C20.52-15.12 20.50-15.27 20.50-15.46L20.50-17.39C19.57-17.07 18.42-16.50 17.55-15.95L12.80-12.96L8.46-12.33C4.73-11.78 2.99-10.14 2.99-7.18L2.99-4.54C2.99-2.48 4.20-1.28 6.18-1.28ZM12.13-0.79C11.00-0.79 10.14-1.66 10.14-2.79C10.14-3.90 11.00-4.78 12.13-4.78C13.24-4.78 14.12-3.90 14.12-2.79C14.12-1.66 13.24-0.79 12.13-0.79ZM37.00-0.79C35.88-0.79 35.00-1.66 35.00-2.79C35.00-3.90 35.88-4.78 37.00-4.78C38.12-4.78 39-3.90 39-2.79C39-1.66 38.12-0.79 37.00-0.79Z" fill="currentColor"/>
</svg>