<svg xmlns="http://www.w3.org/2000/svg" viewBox="0 0 24 24" width="24" height="24">
  <title>tugriksign.ring</title>
  <path transform="matrix(0.7595312268209464, 0, 0, 0.7595312268209464, 0.4067645749888742, 18.430796617712506)" d="M15.26 4.70C22.50 4.70 28.43-1.22 28.43-8.46C28.43-15.70 22.50-21.63 15.26-21.63C8.03-21.63 2.10-15.70 2.10-8.46C2.10-1.22 8.03 4.70 15.26 4.70ZM15.26 0.25C10.45 0.25 6.55-3.64 6.55-8.46C6.55-13.28 10.45-17.17 15.26-17.17C20.07-17.17 23.96-13.28 23.96-8.46C23.96-3.64 20.07 0.25 15.26 0.25ZM12.67-4.96C12.74-4.96 12.81-4.97 12.88-4.99L14.45-5.61L14.45-3.74C14.45-3.20 14.79-2.93 15.26-2.93C15.74-2.93 16.07-3.20 16.07-3.74L16.07-6.25L17.94-6.98C18.13-7.05 18.22-7.17 18.22-7.36C18.22-7.61 18.05-7.72 17.86-7.72C17.79-7.72 17.73-7.71 17.65-7.69L16.07-7.07L16.07-8.47L17.94-9.21C18.13-9.28 18.22-9.40 18.22-9.59C18.22-9.83 18.05-9.96 17.86-9.96C17.79-9.96 17.73-9.94 17.65-9.91L16.07-9.29L16.07-12.04L18.79-12.04C19.22-12.04 19.51-12.33 19.51-12.73C19.51-13.15 19.22-13.42 18.79-13.42L11.73-13.42C11.31-13.42 11.00-13.15 11.00-12.73C11.00-12.32 11.31-12.04 11.73-12.04L14.45-12.04L14.45-8.66L12.57-7.92C12.40-7.85 12.30-7.72 12.30-7.56C12.30-7.35 12.45-7.18 12.67-7.18C12.74-7.18 12.81-7.20 12.88-7.22L14.45-7.84L14.45-6.43L12.57-5.70C12.40-5.63 12.30-5.50 12.30-5.32C12.30-5.12 12.45-4.96 12.67-4.96Z" fill="currentColor"/>
</svg>