<svg xmlns="http://www.w3.org/2000/svg" viewBox="0 0 24 24" width="24" height="24">
  <title>tugriksign.bank.building</title>
  <path transform="matrix(0.7442942288123273, 0, 0, 0.7442942288123273, -0.22416048844308767, 18.297426951591802)" d="M4.73 1.41L28.18 1.41L28.18 0.53C28.18 0.01 27.88-0.29 27.36-0.29L26.68-0.29L26.68-12.98L27.69-12.98C28.41-12.98 28.83-13.50 28.83-14.04C28.83-14.43 28.61-14.78 28.14-15.06L17.96-20.93C17.48-21.20 16.96-21.35 16.45-21.35C15.95-21.35 15.41-21.20 14.94-20.93L4.77-15.06C4.29-14.78 4.08-14.43 4.08-14.04C4.08-13.50 4.50-12.98 5.21-12.98L6.23-12.98L6.23-0.29L5.55-0.29C5.04-0.29 4.73 0.01 4.73 0.53ZM8.18-0.29L8.18-14.55L16.04-18.95C16.17-19.02 16.32-19.07 16.45-19.07C16.59-19.07 16.73-19.02 16.86-18.95L24.74-14.55L24.74-0.29ZM13.88-5.16C13.93-5.16 14.00-5.17 14.07-5.19L15.64-5.81L15.64-3.94C15.64-3.39 15.98-3.13 16.46-3.13C16.93-3.13 17.27-3.39 17.27-3.94L17.27-6.45L19.14-7.17C19.32-7.25 19.42-7.37 19.42-7.55C19.42-7.80 19.25-7.92 19.05-7.92C19.00-7.92 18.93-7.91 18.86-7.89L17.27-7.27L17.27-8.67L19.14-9.41C19.32-9.48 19.42-9.60 19.42-9.79C19.42-10.03 19.25-10.15 19.05-10.15C19.00-10.15 18.93-10.14 18.86-10.11L17.27-9.49L17.27-12.23L19.98-12.23C20.41-12.23 20.71-12.52 20.71-12.93C20.71-13.35 20.41-13.62 19.98-13.62L12.94-13.62C12.50-13.62 12.20-13.35 12.20-12.93C12.20-12.50 12.52-12.23 12.94-12.23L15.64-12.23L15.64-8.86L13.78-8.12C13.59-8.05 13.50-7.92 13.50-7.75C13.50-7.55 13.65-7.38 13.88-7.38C13.93-7.38 14.00-7.39 14.07-7.42L15.64-8.04L15.64-6.63L13.78-5.89C13.59-5.82 13.50-5.70 13.50-5.52C13.50-5.32 13.65-5.16 13.88-5.16ZM4.05 4.43L28.79 4.43C29.37 4.43 29.86 3.95 29.86 3.36C29.86 2.79 29.37 2.31 28.79 2.31L4.05 2.31C3.47 2.31 2.99 2.79 2.99 3.36C2.99 3.95 3.47 4.43 4.05 4.43Z" fill="currentColor"/>
</svg>