<svg xmlns="http://www.w3.org/2000/svg" viewBox="0 0 24 24" width="24" height="24">
  <title>vent.heat.waves.upward</title>
  <path transform="matrix(0.7032001098750171, 0, 0, 0.7032001098750171, -0.10135970333745359, 18.151146890312482)" d="M21.28-18.49C20.93-17.95 21.22-17.24 21.95-17.24L23.17-17.24L23.17-17.12C23.17-13.22 25.21-12.74 25.21-10.82C25.21-8.89 22.63-8.34 22.63-4.57C22.63-3.30 22.98-2.31 23.88-1.16C24.75-0.08 26.50-1.20 25.57-2.43C24.93-3.28 24.73-3.83 24.73-4.71C24.73-7.18 27.30-8.02 27.30-10.82C27.30-13.63 25.25-14.20 25.25-17.12L25.25-17.24L26.46-17.24C27.18-17.24 27.49-17.94 27.12-18.49L24.93-21.64C24.54-22.22 23.88-22.25 23.48-21.64ZM14.24-18.45C13.89-17.91 14.18-17.19 14.91-17.19L16.13-17.19L16.13-17.07C16.13-13.17 18.16-12.70 18.16-10.77C18.16-8.85 15.59-8.30 15.59-4.52C15.59-3.26 15.94-2.26 16.84-1.13C17.71-0.04 19.45-1.15 18.52-2.38C17.88-3.23 17.68-3.79 17.68-4.66C17.68-7.14 20.25-7.97 20.25-10.77C20.25-13.58 18.20-14.17 18.20-17.07L18.20-17.19L19.42-17.19C20.12-17.19 20.45-17.89 20.07-18.45L17.88-21.60C17.50-22.17 16.84-22.21 16.43-21.60ZM7.17-18.42C6.81-17.88 7.11-17.17 7.83-17.17L9.08-17.17L9.08-17.05C9.08-13.15 11.11-12.67 11.11-10.75C11.11-8.82 8.54-8.27 8.54-4.50C8.54-3.23 8.89-2.24 9.80-1.09C10.65-0.01 12.40-1.13 11.47-2.36C10.83-3.21 10.64-3.76 10.64-4.64C10.64-7.11 13.21-7.95 13.21-10.75C13.21-13.56 11.16-14.13 11.16-17.05L11.16-17.17L12.36-17.17C13.08-17.17 13.41-17.87 13.03-18.42L10.84-21.57C10.45-22.15 9.80-22.18 9.39-21.57ZM5.89 4.59L28.58 4.59C30.50 4.59 31.43 3.64 31.43 1.71L31.43-2.84C31.43-4.76 30.46-5.71 28.54-5.71L26.86-5.71C26.38-4.84 26.25-4.38 26.75-3.50L28.24-3.50C28.89-3.50 29.24-3.18 29.24-2.50L29.24 1.38C29.24 2.05 28.89 2.39 28.24 2.39L6.18 2.39C5.53 2.39 5.19 2.05 5.19 1.38L5.19-2.50C5.19-3.18 5.53-3.50 6.18-3.50L6.95-3.50C6.86-4.18 6.89-5.02 7.02-5.71L5.89-5.71C3.96-5.71 2.99-4.76 2.99-2.84L2.99 1.71C2.99 3.64 3.96 4.59 5.89 4.59Z" fill="currentColor"/>
</svg>