<svg xmlns="http://www.w3.org/2000/svg" viewBox="0 0 24 24" width="24" height="24">
  <title>volleyball.circle</title>
  <path transform="matrix(0.8260729267505647, 0, 0, 0.8260729267505647, 0.2671829622458859, 18.989351403678604)" d="M14.20 3.64C20.88 3.64 26.31-1.78 26.31-8.46C26.31-15.14 20.88-20.57 14.20-20.57C7.52-20.57 2.10-15.14 2.10-8.46C2.10-1.78 7.52 3.64 14.20 3.64ZM14.20 1.25C8.82 1.25 4.48-3.08 4.48-8.46C4.48-13.84 8.82-18.19 14.20-18.19C19.58-18.19 23.93-13.84 23.93-8.46C23.93-3.08 19.58 1.25 14.20 1.25ZM16.22-11.55C16.76-12.54 16.91-13.44 16.58-14.17C15.84-14.47 15.05-14.66 14.20-14.66C12.47-14.66 10.89-13.92 9.76-12.76C11.95-13.55 14.75-12.70 16.22-11.55ZM15.13-5.14C18.71-7.93 19.54-11.02 19.35-11.88C18.88-12.57 18.28-13.16 17.59-13.62C17.78-11.82 16.30-9.68 14.37-7.92C14.40-7.00 14.70-5.99 15.13-5.14ZM13.77-8.61C14.57-9.34 15.25-10.07 15.74-10.78C14.06-12.12 10.55-12.96 8.61-11.13C8.29-10.46 8.09-9.73 8.03-8.98C9.48-9.91 11.87-9.39 13.77-8.61ZM17.32-3.13C19.14-4.21 20.38-6.21 20.38-8.46C20.38-9.15 20.26-9.82 20.05-10.43C19.61-8.80 18.33-6.47 15.59-4.37C16.10-3.64 16.71-3.16 17.32-3.13ZM9.98-8.61C9.15-8.63 8.45-8.43 8.04-7.88C8.26-5.41 9.98-3.35 12.28-2.59C11.17-3.93 10.03-6.20 9.98-8.61ZM13.48-7.76C12.62-8.12 11.72-8.40 10.89-8.52C11.02-5.32 13.09-2.61 14.12-2.27C14.92-2.27 15.55-2.39 16.16-2.60C14.68-3.50 13.57-5.88 13.48-7.76Z" fill="currentColor"/>
</svg>