<svg xmlns="http://www.w3.org/2000/svg" viewBox="0 0 24 24" width="24" height="24">
  
  <path transform="matrix(0.7882986913010007, 0, 0, 0.7882986913010007, 1.7228637413394927, 18.665127020785217)" d="M6.80 4.23L19.28 4.23C21.79 4.23 23.09 2.91 23.09 0.39L23.09-17.30C23.09-19.83 21.79-21.14 19.28-21.14L16.42-21.14C15.95-21.14 15.68-20.81 15.68-20.36L15.68-20.17C15.68-18.63 14.63-17.71 13.03-17.71C11.44-17.71 10.39-18.63 10.39-20.17L10.39-20.36C10.39-20.81 10.11-21.14 9.66-21.14L6.80-21.14C4.29-21.14 2.99-19.83 2.99-17.30L2.99 0.39C2.99 2.91 4.29 4.23 6.80 4.23ZM8.72-12.16C8.29-12.16 7.96-12.49 7.96-12.93C7.96-13.35 8.29-13.66 8.72-13.66L17.37-13.66C17.79-13.66 18.11-13.35 18.11-12.93C18.11-12.49 17.79-12.16 17.37-12.16ZM8.72-8.02C8.29-8.02 7.96-8.34 7.96-8.75C7.96-9.19 8.29-9.52 8.72-9.52L12.90-9.52C13.34-9.52 13.65-9.19 13.65-8.75C13.65-8.34 13.34-8.02 12.90-8.02Z" fill="currentColor"/>
</svg>