<svg xmlns="http://www.w3.org/2000/svg" viewBox="0 0 24 24" width="24" height="24">
  
  <path transform="matrix(0.7887964385844318, 0, 0, 0.7887964385844318, 0.607129563804935, 19.494955060276784)" d="M12.23 1.13C7.27 1.13 4.15-2.38 4.15-7.09C4.15-12.50 8.18-18.75 16.37-20.17C17.00-20.30 17.33-20.70 17.33-21.21C17.33-21.84 16.82-22.28 16.05-22.16C8.99-21.40 2.10-15.11 2.10-7.14C2.10-1.30 6.09 3.18 12.35 3.18C14.79 3.18 17.26 2.43 19.46 1.11L17.91-0.43C16.15 0.55 14.19 1.13 12.23 1.13ZM13.66-14.32L14.10-13.89C15.75-15.20 17.74-16.02 19.59-16.02C22.44-16.02 24.79-14.00 24.79-10.77C24.79-8.77 24.08-6.80 22.92-5.05L24.43-3.53C25.90-5.64 26.79-8.12 26.79-10.78C26.79-15.04 23.86-17.94 19.66-17.94C17.09-17.94 14.32-16.85 12.18-15.05C12.70-14.99 13.24-14.74 13.66-14.32ZM23.20 2.18C23.80 2.78 24.77 2.78 25.34 2.18C25.91 1.58 25.93 0.66 25.32 0.05L12.32-12.97C11.72-13.57 10.75-13.57 10.18-12.97C9.61-12.38 9.60-11.45 10.20-10.85ZM14.59-7.91L11.03-11.48C10.84-11.67 10.84-11.96 11.03-12.14C11.20-12.33 11.51-12.33 11.70-12.14L15.26-8.58Z" fill="currentColor"/>
</svg>