<svg xmlns="http://www.w3.org/2000/svg" viewBox="0 0 24 24" width="24" height="24">
  
  <path transform="matrix(0.6990551951560773, 0, 0, 0.6990551951560773, 0.532097783287282, 17.80386291171192)" d="M16.41-12.56C18.84-12.56 21.14-13.39 22.96-14.89C24.33-16.02 22.85-17.81 21.66-16.91C19.85-15.50 18.39-14.98 16.41-14.98C14.41-14.98 12.95-15.50 11.16-16.91C9.96-17.80 8.50-16.01 9.86-14.89C11.66-13.39 13.96-12.56 16.41-12.56ZM16.41-6.01C20.17-6.01 23.70-7.20 26.55-9.35C28.07-10.49 26.59-12.46 25.23-11.39C22.75-9.46 19.69-8.43 16.41-8.43C13.11-8.43 10.07-9.46 7.58-11.39C6.21-12.46 4.73-10.49 6.25-9.35C9.11-7.20 12.64-6.01 16.41-6.01ZM16.41 0.55C21.47 0.55 26.19-1.03 30.11-3.89C31.51-4.93 30.21-7.00 28.78-5.89C25.24-3.26 20.99-1.86 16.41-1.86C11.82-1.86 7.57-3.27 4.04-5.88C2.63-6.96 1.27-4.96 2.73-3.87C6.62-1.03 11.34 0.55 16.41 0.55Z" fill="currentColor"/>
</svg>