<svg xmlns="http://www.w3.org/2000/svg" viewBox="0 0 24 24" width="24" height="24">
  <title>wave.3.up.circle</title>
  <path transform="matrix(0.8260729267505647, 0, 0, 0.8260729267505647, 0.2671829622458859, 18.989351403678604)" d="M14.20 3.64C20.88 3.64 26.31-1.78 26.31-8.46C26.31-15.14 20.88-20.57 14.20-20.57C7.52-20.57 2.10-15.14 2.10-8.46C2.10-1.78 7.52 3.64 14.20 3.64ZM14.20 1.25C8.82 1.25 4.48-3.08 4.48-8.46C4.48-13.84 8.82-18.19 14.20-18.19C19.58-18.19 23.93-13.84 23.93-8.46C23.93-3.08 19.58 1.25 14.20 1.25ZM14.19-13.41C11.59-13.41 9.07-12.66 7.04-11.27C6.61-10.97 6.49-10.43 6.77-10.02C7.07-9.60 7.61-9.50 8.06-9.81C9.77-10.98 11.95-11.64 14.19-11.64C16.45-11.64 18.62-10.99 20.33-9.81C20.79-9.50 21.33-9.60 21.62-10.02C21.90-10.44 21.79-10.98 21.35-11.27C19.30-12.66 16.78-13.41 14.19-13.41ZM14.19-9.79C12.29-9.79 10.45-9.23 9.01-8.21C8.59-7.92 8.48-7.39 8.77-6.98C9.04-6.56 9.60-6.47 10.07-6.77C11.18-7.56 12.66-7.99 14.19-7.99C15.73-7.99 17.21-7.56 18.32-6.77C18.80-6.47 19.35-6.56 19.62-6.98C19.90-7.39 19.79-7.92 19.37-8.21C17.96-9.23 16.13-9.79 14.19-9.79ZM14.19-6.15C13.00-6.15 11.80-5.79 10.98-5.18C10.58-4.90 10.48-4.36 10.75-3.95C11.05-3.50 11.60-3.42 12.09-3.75C12.63-4.14 13.41-4.37 14.19-4.37C15-4.37 15.77-4.14 16.30-3.75C16.79-3.42 17.36-3.49 17.66-3.95C17.92-4.36 17.81-4.89 17.41-5.18C16.56-5.79 15.36-6.15 14.19-6.15Z" fill="currentColor"/>
</svg>