<svg xmlns="http://www.w3.org/2000/svg" viewBox="0 0 24 24" width="24" height="24">
  
  <path transform="matrix(0.7354999771335531, 0, 0, 0.7354999771335531, -0.19633468025030254, 18.214400197421387)" d="M3.42-7.58C2.41-5.84 3.23-4.04 5.06-3.70L5.37-3.69L4.24 0.34C3.75 2.13 4.68 3.35 6.52 3.35L22.44 3.35C23.60 3.35 24.45 2.68 24.76 1.57L30.02-16.71C30.59-18.68 29.59-20.25 27.50-20.25L12.42-20.25C10.88-20.25 10.35-19.64 9.63-18.40ZM18.71-13.14L21.48-17.99L27-17.99C27.73-17.99 27.98-17.53 27.61-16.89L25.45-13.14ZM9.18-13.14L11.67-17.48C11.89-17.86 12.09-17.99 12.50-17.99L18.93-17.99L16.16-13.14ZM5.61-6.96L7.90-10.93L14.87-10.93L11.98-5.87L6.22-5.87C5.50-5.87 5.25-6.32 5.61-6.96ZM14.55-5.87L17.44-10.93L24.18-10.93L21.55-6.38C21.35-6 21.14-5.87 20.72-5.87ZM23.38-5.21L25.46-8.89L22.83 0.16L21.26-3.63C22.35-3.74 22.78-4.27 23.38-5.21ZM6.54 0.45L7.65-3.61L18.89-3.61L20.85 1.08L7.04 1.08C6.61 1.08 6.42 0.87 6.54 0.45Z" fill="currentColor"/>
</svg>