<svg xmlns="http://www.w3.org/2000/svg" viewBox="0 0 24 24" width="24" height="24">
  
  <path transform="matrix(0.582808834596009, 0, 0, 0.582808834596009, 0.776942142761686, 16.918503781242226)" d="M6.32-16.37C6.81-16.08 7.36-16.22 7.75-16.66C8.37-17.41 9.16-17.99 10.07-18.30C10.63-18.52 10.98-19.00 10.85-19.57C10.71-20.23 10.08-20.53 9.33-20.27C8.11-19.85 6.95-19.03 6.07-17.95C5.61-17.39 5.77-16.69 6.32-16.37ZM32.20-16.37C32.74-16.69 32.89-17.39 32.44-17.95C31.56-19.03 30.41-19.85 29.19-20.27C28.44-20.53 27.80-20.23 27.66-19.57C27.54-19.00 27.88-18.52 28.44-18.30C29.36-17.99 30.14-17.41 30.77-16.66C31.16-16.22 31.71-16.08 32.20-16.37ZM20.59-16.39C21.08-16.09 21.63-16.20 22.05-16.68C22.66-17.41 23.46-17.99 24.35-18.30C24.91-18.52 25.24-18.98 25.14-19.55C25.03-20.18 24.40-20.54 23.60-20.26C22.41-19.85 21.25-19.03 20.37-17.96C19.92-17.40 20.04-16.72 20.59-16.39ZM17.93-16.39C18.47-16.72 18.60-17.40 18.15-17.96C17.27-19.03 16.10-19.85 14.91-20.26C14.11-20.54 13.49-20.18 13.37-19.55C13.28-18.98 13.59-18.52 14.16-18.30C15.06-17.99 15.84-17.41 16.46-16.68C16.88-16.20 17.43-16.09 17.93-16.39ZM19.25-9.86C19.83-9.86 20.31-10.34 20.31-10.91L20.31-13.76C20.31-14.33 19.83-14.80 19.25-14.80C18.68-14.80 18.21-14.33 18.21-13.76L18.21-10.91C18.21-10.34 18.68-9.86 19.25-9.86ZM19.25 1.58C21.53 1.58 24.20 2.30 26.19 3.32C26.78 3.62 27.45 3.52 27.84 3L35.86-7.21C36.71-8.30 36.57-9.48 35.50-10.31C32.65-12.52 27.62-14.25 22.13-14.70L22.13-12.46C26.32-12.06 30.32-10.73 33.53-8.71C33.81-8.52 33.84-8.26 33.63-7.99L31.20-4.88C30.53-5.06 29.95-5.41 29.53-5.87C29.21-6.21 28.92-6.20 28.62-5.87C27.91-5.13 26.91-4.71 25.80-4.71C24.70-4.71 23.68-5.13 22.99-5.87C22.68-6.20 22.39-6.21 22.08-5.87C21.63-5.39 21.01-5.03 20.31-4.84L20.31-7.30C20.31-7.88 19.83-8.36 19.25-8.36C18.68-8.36 18.21-7.88 18.21-7.30L18.21-4.84C17.50-5.03 16.88-5.39 16.42-5.87C16.11-6.21 15.82-6.20 15.50-5.87C14.81-5.13 13.79-4.71 12.69-4.71C11.59-4.71 10.58-5.13 9.89-5.87C9.57-6.20 9.28-6.21 8.98-5.87C8.55-5.41 7.97-5.06 7.32-4.88L4.88-7.99C4.66-8.26 4.70-8.52 4.99-8.71C8.20-10.73 12.21-12.06 16.39-12.46L16.39-14.71C10.90-14.25 5.86-12.52 3.01-10.31C1.95-9.48 1.79-8.30 2.66-7.21L10.66 3C11.06 3.52 11.73 3.62 12.33 3.32C14.31 2.30 16.99 1.58 19.25 1.58Z" fill="currentColor"/>
</svg>