<svg xmlns="http://www.w3.org/2000/svg" viewBox="0 0 24 24" width="24" height="24">
  <title>windshield.front.and.heat.waves</title>
  <path transform="matrix(0.5828916952083003, 0, 0, 0.5828916952083003, 0.7807555250767224, 17.08455967881602)" d="M14.05 2.60C13.48 1.84 13.28 1.37 13.28 0.53C13.28-1.18 14.63-2.23 15.06-4.11C16.45-4.54 17.95-4.79 19.24-4.79C19.56-4.79 19.88-4.78 20.20-4.75C19.92-2.82 18.32-1.86 18.32 0.66C18.32 1.76 18.66 2.61 19.41 3.56C20.09 4.43 21.43 3.55 20.72 2.60C20.16 1.84 19.96 1.37 19.96 0.53C19.96-1.30 21.49-2.37 21.82-4.51C23.33-4.22 24.86-3.69 26.06-3.06C26.12-3.02 26.17-3 26.23-2.98C25.68-1.97 25.00-0.98 25.00 0.66C25.00 1.76 25.34 2.61 26.09 3.56C26.77 4.43 28.11 3.55 27.40 2.60C26.82 1.84 26.63 1.37 26.63 0.53C26.63-1.24 28.08-2.30 28.46-4.32L35.85-13.73C36.70-14.82 36.56-16.01 35.48-16.84C32.16-19.43 25.83-21.36 19.24-21.36C12.66-21.36 6.34-19.43 3-16.84C1.93-16.01 1.79-14.82 2.65-13.73L10.77-3.38C11.18-2.86 11.84-2.75 12.43-3.06C12.64-3.16 12.86-3.27 13.08-3.38C12.50-2.20 11.65-1.20 11.65 0.66C11.65 1.76 11.99 2.61 12.73 3.56C13.42 4.43 14.75 3.55 14.05 2.60ZM10.03-12.06C9.76-11.66 10.01-11.10 10.55-11.10L11.75-11.10C11.81-7.99 13.20-7.31 13.51-5.92C13.13-5.79 12.75-5.64 12.36-5.48C12.14-5.39 12.02-5.41 11.86-5.61L4.86-14.52C4.66-14.79 4.70-15.05 4.98-15.23C8.92-17.73 14.00-19.14 19.24-19.14C24.48-19.14 29.58-17.73 33.52-15.23C33.80-15.05 33.83-14.79 33.63-14.52L28.05-7.42C27.53-8.47 26.79-9.35 26.74-11.10L27.95-11.10C28.49-11.10 28.73-11.66 28.45-12.06L26.48-14.96C26.34-15.19 26.16-15.29 25.92-15.29C25.69-15.29 25.50-15.19 25.36-14.96L23.39-12.06C23.11-11.66 23.36-11.10 23.89-11.10L25.10-11.10C25.16-7.98 26.55-7.31 26.87-5.91L26.70-5.68C26.48-5.41 26.34-5.38 26.07-5.50C24.63-6.11 23.10-6.55 21.63-6.80C21.15-8.17 20.12-9.02 20.06-11.10L21.27-11.10C21.81-11.10 22.05-11.66 21.79-12.06L19.82-14.96C19.66-15.19 19.48-15.29 19.24-15.29C19.01-15.29 18.83-15.19 18.68-14.96L16.71-12.06C16.44-11.66 16.68-11.10 17.21-11.10L18.42-11.10C18.47-8.87 19.20-7.90 19.71-7.01C19.56-7.01 19.39-7.02 19.24-7.02C17.98-7.02 16.54-6.80 15.08-6.41C14.67-8.03 13.45-8.84 13.38-11.10L14.59-11.10C15.13-11.10 15.38-11.66 15.11-12.06L13.14-14.96C12.98-15.19 12.80-15.29 12.56-15.29C12.34-15.29 12.15-15.19 12-14.96Z" fill="currentColor"/>
</svg>