<svg xmlns="http://www.w3.org/2000/svg" viewBox="0 0 24 24" width="24" height="24">
  
  <path transform="matrix(0.8260729267505647, 0, 0, 0.8260729267505647, 0.2671829622458859, 18.989351403678604)" d="M14.20 3.64C20.88 3.64 26.31-1.78 26.31-8.46C26.31-15.14 20.88-20.57 14.20-20.57C7.52-20.57 2.10-15.14 2.10-8.46C2.10-1.78 7.52 3.64 14.20 3.64ZM10.66-2.88C10.05-2.88 9.61-3.30 9.61-3.88C9.61-4.17 9.68-4.37 9.88-4.65L12.76-8.60L10.03-12.34C9.80-12.66 9.71-12.87 9.71-13.17C9.71-13.77 10.20-14.21 10.82-14.21C11.30-14.21 11.57-14.05 11.91-13.55L14.27-10.09L14.34-10.09L16.64-13.55C16.96-14.04 17.24-14.21 17.71-14.21C18.33-14.21 18.79-13.79 18.79-13.21C18.79-12.95 18.70-12.70 18.48-12.43L15.62-8.55L18.47-4.69C18.67-4.42 18.75-4.21 18.75-3.91C18.75-3.30 18.29-2.88 17.65-2.88C17.18-2.88 16.92-3.06 16.57-3.57L14.20-7.01L14.14-7.01L11.74-3.57C11.38-3.05 11.13-2.88 10.66-2.88Z" fill="currentColor"/>
</svg>