<svg xmlns="http://www.w3.org/2000/svg" viewBox="0 0 24 24" width="24" height="24">
  <title>xmark.diamond.fill</title>
  <path transform="matrix(0.7424306944982861, 0, 0, 0.7424306944982861, 0.22517200351409628, 18.281659704231593)" d="M3.75-5.74L13.15 3.66C14.94 5.45 16.78 5.46 18.56 3.68L28.01-5.77C29.78-7.55 29.77-9.39 27.98-11.18L18.59-20.58C16.78-22.37 14.95-22.38 13.17-20.60L3.71-11.16C1.93-9.38 1.96-7.54 3.75-5.74ZM12.01-3.49C11.40-3.49 10.91-3.98 10.91-4.62C10.91-4.90 11.03-5.17 11.24-5.38L14.30-8.45L11.24-11.51C11.03-11.72 10.91-11.99 10.91-12.28C10.91-12.90 11.40-13.37 12.01-13.37C12.33-13.37 12.57-13.27 12.79-13.05L15.86-10.00L18.95-13.07C19.17-13.29 19.43-13.39 19.73-13.39C20.34-13.39 20.84-12.91 20.84-12.29C20.84-12 20.73-11.74 20.51-11.52L17.44-8.45L20.50-5.39C20.72-5.18 20.82-4.91 20.82-4.62C20.82-3.98 20.33-3.49 19.71-3.49C19.39-3.49 19.11-3.61 18.91-3.82L15.86-6.88L12.82-3.82C12.61-3.61 12.33-3.49 12.01-3.49Z" fill="currentColor"/>
</svg>