<svg xmlns="http://www.w3.org/2000/svg" viewBox="0 0 24 24" width="24" height="24">
  
  <path transform="matrix(0.9151027703306523, 0, 0, 0.9151027703306523, -0.7345844504021448, 19.742627345844504)" d="M9.40 2.46L18.42 2.46C20.48 2.46 22.10 1.86 23.17 0.80C24.26-0.28 24.84-1.90 24.84-3.95L24.84-12.97C24.84-15.02 24.26-16.63 23.17-17.72C22.09-18.80 20.48-19.38 18.42-19.38L9.40-19.38C7.35-19.38 5.73-18.79 4.66-17.72C3.57-16.63 2.99-15.02 2.99-12.97L2.99-3.95C2.99-1.90 3.56-0.29 4.66 0.80C5.73 1.86 7.35 2.46 9.40 2.46ZM9.47 0.16C8.09 0.16 7.02-0.19 6.34-0.88C5.64-1.57 5.29-2.61 5.29-4.02L5.29-12.90C5.29-14.30 5.64-15.35 6.34-16.04C7.02-16.72 8.09-17.09 9.47-17.09L18.35-17.09C19.75-17.09 20.80-16.72 21.49-16.04C22.20-15.35 22.55-14.30 22.55-12.90L22.55-4.02C22.55-2.61 22.20-1.57 21.49-0.88C20.81-0.20 19.75 0.16 18.35 0.16ZM10.83-3.86L13.92-6.96L17.03-3.86C17.23-3.66 17.47-3.54 17.79-3.54C18.38-3.54 18.84-4.01 18.84-4.61C18.84-4.90 18.73-5.14 18.53-5.34L15.41-8.45L18.53-11.55C18.73-11.75 18.84-12.01 18.84-12.29C18.84-12.88 18.38-13.34 17.79-13.34C17.48-13.34 17.24-13.24 17.04-13.03L13.92-9.93L10.82-13.03C10.62-13.24 10.37-13.34 10.07-13.34C9.48-13.34 9.01-12.88 9.01-12.29C9.01-12.01 9.13-11.75 9.33-11.55L12.45-8.45L9.33-5.34C9.13-5.14 9.01-4.90 9.01-4.61C9.01-4.01 9.48-3.54 10.07-3.54C10.38-3.54 10.63-3.66 10.83-3.86Z" fill="currentColor"/>
</svg>