<svg xmlns="http://www.w3.org/2000/svg" viewBox="0 0 24 24" width="24" height="24">
  
  <path transform="matrix(0.7324749642346209, 0, 0, 0.7324749642346209, -0.18884120171673802, 18.193133047210303)" d="M12.86-18.86C6-18.86 2.99-15.76 2.99-9.20L2.99-1.80C2.99 0.66 4.29 1.95 6.77 1.95L26.52 1.95C28.99 1.95 30.29 0.66 30.29-1.80L30.29-9.20C30.29-15.76 27.28-18.86 20.43-18.86ZM12.90-16.57L20.38-16.57C25.70-16.57 28.00-14.27 28.00-9.28L28.00-1.99C28.00-0.91 27.42-0.35 26.37-0.35L6.91-0.35C5.86-0.35 5.29-0.91 5.29-1.99L5.29-9.28C5.29-14.27 7.58-16.57 12.90-16.57ZM18.82-3.77L22.04-3.77C22.45-3.77 22.79-4.11 22.79-4.52C22.79-4.93 22.45-5.27 22.04-5.27L19.73-5.27L19.73-12.36C19.73-12.86 19.32-13.27 18.83-13.27C18.34-13.27 17.93-12.86 17.93-12.36L17.93-4.72C17.93-4.14 18.26-3.77 18.82-3.77ZM11.73-3.75L15.76-3.75C16.18-3.75 16.51-4.08 16.51-4.50C16.51-4.93 16.16-5.25 15.76-5.25L12.84-5.25L12.84-5.32L16.15-11.51C16.27-11.73 16.36-11.94 16.36-12.23C16.36-12.75 16.00-13.10 15.45-13.10L11.59-13.10C11.18-13.10 10.83-12.79 10.83-12.35C10.83-11.94 11.16-11.60 11.59-11.60L14.37-11.60L14.37-11.53L11.03-5.32C10.89-5.07 10.84-4.86 10.84-4.59C10.84-4.05 11.20-3.75 11.73-3.75Z" fill="currentColor"/>
</svg>