<svg xmlns="http://www.w3.org/2000/svg" viewBox="0 0 24 24" width="24" height="24">
  <title>1.square.fill</title>
  <path transform="matrix(0.8606488485459741, 0, 0, 0.8606488485459741, -0.571860816944024, 19.286938981341404)" d="M7.58 3.15L21.63 3.15C24.53 3.15 26.23 1.46 26.23-1.44L26.23-15.49C26.23-18.39 24.53-20.09 21.63-20.09L7.58-20.09C4.69-20.09 2.99-18.39 2.99-15.49L2.99-1.44C2.99 1.46 4.69 3.15 7.58 3.15ZM15.74-2.70C14.47-2.70 13.63-3.34 13.63-4.86L13.63-10.34L13.50-10.34L12.54-9.70C12.08-9.40 11.88-9.35 11.53-9.35C10.75-9.35 10.18-9.96 10.18-10.77C10.18-11.43 10.48-11.85 11.09-12.25L12.89-13.42C13.80-14.00 14.52-14.23 15.41-14.23C16.84-14.23 17.86-13.32 17.86-12.07L17.86-4.86C17.86-3.34 16.98-2.70 15.74-2.70Z" fill="currentColor"/>
</svg>