<svg xmlns="http://www.w3.org/2000/svg" viewBox="0 0 24 24" width="24" height="24">
  <title>12.circle</title>
  <path transform="matrix(0.7810831426392068, 0, 0, 0.7810831426392068, 0.3615560640732265, 18.608695652173914)" d="M14.89 4.34C21.97 4.34 27.70-1.39 27.70-8.46C27.70-15.53 21.97-21.26 14.89-21.26C7.83-21.26 2.10-15.53 2.10-8.46C2.10-1.39 7.83 4.34 14.89 4.34ZM14.89 0.16C10.13 0.16 6.27-3.69 6.27-8.46C6.27-13.23 10.13-17.09 14.89-17.09C19.66-17.09 23.53-13.23 23.53-8.46C23.53-3.69 19.66 0.16 14.89 0.16ZM15.66-4.10L19.21-4.10C19.83-4.10 20.05-4.52 20.05-4.97C20.05-5.41 19.82-5.84 19.21-5.84L17.24-5.84L17.24-5.93L18.42-7.34C19.28-8.36 19.91-9.19 19.91-10.44C19.91-12.12 18.76-13.04 17.18-13.04C15.79-13.04 14.61-12.04 14.61-10.80C14.61-10.24 14.94-9.82 15.53-9.82C15.97-9.82 16.34-10.04 16.50-10.59C16.62-10.99 16.78-11.34 17.18-11.34C17.66-11.34 17.80-10.89 17.80-10.38C17.80-9.59 17.27-8.82 16.59-7.97L15.20-6.21C14.75-5.65 14.63-5.34 14.63-4.98C14.63-4.42 14.99-4.10 15.66-4.10ZM12.18-3.96C12.81-3.96 13.31-4.46 13.31-5.10L13.31-11.68C13.31-12.52 12.81-12.96 11.98-12.96C11.37-12.96 10.96-12.73 10.54-12.41L9.66-11.73C9.32-11.47 9.16-11.20 9.16-10.85C9.16-10.28 9.56-10.05 9.91-10.05C10.13-10.05 10.27-10.11 10.45-10.25L11.03-10.70L11.03-5.10C11.03-4.46 11.53-3.96 12.18-3.96Z" fill="currentColor"/>
</svg>