<svg xmlns="http://www.w3.org/2000/svg" viewBox="0 0 24 24" width="24" height="24">
  <title>16.square.fill</title>
  <path transform="matrix(0.8606488485459741, 0, 0, 0.8606488485459741, -0.571860816944024, 19.286938981341404)" d="M7.58 3.15L21.63 3.15C24.53 3.15 26.23 1.46 26.23-1.44L26.23-15.49C26.23-18.39 24.53-20.09 21.63-20.09L7.58-20.09C4.69-20.09 2.99-18.39 2.99-15.49L2.99-1.44C2.99 1.46 4.69 3.15 7.58 3.15ZM17.59-3.50C15.08-3.50 14.40-6.30 14.40-8.43C14.40-10.90 15.14-13.41 17.61-13.41C18.75-13.41 19.75-12.94 20.07-11.85C20.12-11.71 20.13-11.48 20.13-11.37C20.13-10.84 19.88-10.35 19.16-10.35C18.68-10.35 18.39-10.54 18.14-11.00C17.96-11.29 17.84-11.53 17.53-11.53C17.00-11.53 16.70-10.69 16.70-9.02L16.70-8.33L16.72-8.33C16.92-9.14 17.47-9.83 18.40-9.83C19.88-9.83 20.46-8.34 20.46-6.86C20.46-5.06 19.48-3.50 17.59-3.50ZM11.53-3.61C10.84-3.61 10.30-4.15 10.30-4.84L10.30-10.88L9.69-10.41C9.48-10.24 9.33-10.18 9.11-10.18C8.73-10.18 8.29-10.43 8.29-11.04C8.29-11.43 8.46-11.71 8.82-11.99L9.77-12.70C10.23-13.05 10.66-13.30 11.33-13.30C12.21-13.30 12.76-12.83 12.76-11.93L12.76-4.84C12.76-4.15 12.21-3.61 11.53-3.61ZM17.54-5.38C17.95-5.38 18.18-5.88 18.18-6.74C18.18-7.59 17.95-8.12 17.54-8.12C17.13-8.12 16.92-7.62 16.92-6.80C16.92-5.91 17.13-5.38 17.54-5.38Z" fill="currentColor"/>
</svg>