<svg xmlns="http://www.w3.org/2000/svg" viewBox="0 0 24 24" width="24" height="24">
  <title>16.square</title>
  <path transform="matrix(0.8606488485459741, 0, 0, 0.8606488485459741, -0.571860816944024, 19.286938981341404)" d="M7.58 3.15L21.63 3.15C24.53 3.15 26.23 1.46 26.23-1.44L26.23-15.49C26.23-18.39 24.53-20.09 21.63-20.09L7.58-20.09C4.69-20.09 2.99-18.39 2.99-15.49L2.99-1.44C2.99 1.46 4.69 3.15 7.58 3.15ZM8.21-1.01C7.50-1.01 7.15-1.30 7.15-2.07L7.15-14.85C7.15-15.62 7.50-15.91 8.21-15.91L21-15.91C21.71-15.91 22.07-15.62 22.07-14.85L22.07-2.07C22.07-1.30 21.71-1.01 21-1.01ZM17.23-3.87C18.96-3.87 19.88-5.31 19.88-6.97C19.88-8.37 19.34-9.74 17.98-9.74C17.10-9.74 16.61-9.09 16.42-8.34L16.39-8.34L16.39-8.99C16.39-10.52 16.66-11.31 17.17-11.31C17.45-11.31 17.57-11.07 17.73-10.82C17.96-10.39 18.23-10.22 18.68-10.22C19.34-10.22 19.58-10.68 19.58-11.14C19.58-11.27 19.56-11.47 19.52-11.60C19.23-12.61 18.29-13.04 17.25-13.04C14.95-13.04 14.27-10.73 14.27-8.43C14.27-6.46 14.89-3.87 17.23-3.87ZM11.60-3.96C12.23-3.96 12.74-4.46 12.74-5.10L12.74-11.68C12.74-12.52 12.23-12.96 11.41-12.96C10.80-12.96 10.39-12.73 9.97-12.41L9.08-11.73C8.75-11.47 8.60-11.20 8.60-10.85C8.60-10.28 8.99-10.05 9.34-10.05C9.55-10.05 9.70-10.11 9.89-10.25L10.46-10.70L10.46-5.10C10.46-4.46 10.97-3.96 11.60-3.96ZM17.18-5.60C16.79-5.60 16.59-6.09 16.59-6.91C16.59-7.68 16.80-8.14 17.18-8.14C17.55-8.14 17.77-7.65 17.77-6.87C17.77-6.07 17.55-5.60 17.18-5.60Z" fill="currentColor"/>
</svg>