<svg xmlns="http://www.w3.org/2000/svg" viewBox="0 0 24 24" width="24" height="24">
  <title>19.square.fill</title>
  <path transform="matrix(0.8606488485459741, 0, 0, 0.8606488485459741, -0.571860816944024, 19.286938981341404)" d="M7.58 3.15L21.63 3.15C24.53 3.15 26.23 1.46 26.23-1.44L26.23-15.49C26.23-18.39 24.53-20.09 21.63-20.09L7.58-20.09C4.69-20.09 2.99-18.39 2.99-15.49L2.99-1.44C2.99 1.46 4.69 3.15 7.58 3.15ZM16.56-7.08C15.09-7.08 14.51-8.57 14.51-10.05C14.51-11.85 15.49-13.41 17.37-13.41C19.89-13.41 20.55-10.61 20.55-8.48C20.55-6 19.83-3.49 17.33-3.49C16.22-3.49 15.22-3.97 14.89-5.06C14.85-5.20 14.84-5.43 14.84-5.54C14.84-6.06 15.09-6.55 15.81-6.55C16.29-6.55 16.59-6.35 16.83-5.88C17.03-5.51 17.18-5.37 17.44-5.37C17.96-5.37 18.26-6.22 18.26-7.89L18.26-8.58L18.25-8.58C18.05-7.77 17.50-7.08 16.56-7.08ZM11.71-3.61C11.00-3.61 10.48-4.15 10.48-4.84L10.48-10.88L9.86-10.41C9.66-10.24 9.49-10.18 9.27-10.18C8.89-10.18 8.47-10.43 8.47-11.04C8.47-11.43 8.63-11.71 8.99-11.99L9.94-12.70C10.39-13.05 10.84-13.30 11.50-13.30C12.38-13.30 12.93-12.83 12.93-11.93L12.93-4.84C12.93-4.15 12.38-3.61 11.71-3.61ZM17.43-8.77C17.84-8.77 18.05-9.27 18.05-10.09C18.05-10.98 17.84-11.50 17.43-11.50C17.02-11.50 16.79-10.99 16.79-10.14C16.79-9.28 17.02-8.77 17.43-8.77Z" fill="currentColor"/>
</svg>