<svg xmlns="http://www.w3.org/2000/svg" viewBox="0 0 24 24" width="24" height="24">
  
  <path transform="matrix(0.7739984882842026, 0, 0, 0.7739984882842026, -0.3129251700680271, 18.53514739229025)" d="M7.58 3.18L24.23 3.18C27.13 3.18 28.83 1.48 28.83-1.42L28.83-15.47C28.83-18.38 27.13-20.06 24.23-20.06L7.58-20.06C4.69-20.06 2.99-18.38 2.99-15.47L2.99-1.42C2.99 1.48 4.69 3.18 7.58 3.18ZM8.20-0.98C7.49-0.98 7.15-1.28 7.15-2.04L7.15-11.85C7.15-12.61 7.49-12.89 8.20-12.89L23.61-12.89C24.33-12.89 24.67-12.61 24.67-11.85L24.67-2.04C24.67-1.28 24.33-0.98 23.61-0.98ZM11.74-2.47L15.29-2.47C15.90-2.47 16.14-2.89 16.14-3.34C16.14-3.79 15.90-4.21 15.29-4.21L13.31-4.21L13.31-4.30L14.50-5.71C15.36-6.73 16.00-7.56 16.00-8.81C16.00-10.49 14.85-11.41 13.27-11.41C11.86-11.41 10.69-10.41 10.69-9.16C10.69-8.60 11.02-8.19 11.60-8.19C12.06-8.19 12.42-8.41 12.59-8.96C12.70-9.36 12.86-9.71 13.27-9.71C13.73-9.71 13.88-9.26 13.88-8.75C13.88-7.96 13.35-7.20 12.67-6.34L11.29-4.58C10.84-4.02 10.70-3.71 10.70-3.35C10.70-2.79 11.07-2.47 11.74-2.47ZM19.62-2.32C20.25-2.32 20.75-2.82 20.75-3.47L20.75-10.05C20.75-10.89 20.26-11.33 19.43-11.33C18.82-11.33 18.41-11.10 17.99-10.77L17.11-10.09C16.77-9.84 16.62-9.57 16.62-9.22C16.62-8.65 17.02-8.43 17.36-8.43C17.57-8.43 17.72-8.48 17.91-8.63L18.48-9.07L18.48-3.47C18.48-2.82 18.98-2.32 19.62-2.32Z" fill="currentColor"/>
</svg>