<svg xmlns="http://www.w3.org/2000/svg" viewBox="0 0 24 24" width="24" height="24">
  <title>21.square.fill</title>
  <path transform="matrix(0.8606488485459741, 0, 0, 0.8606488485459741, -0.571860816944024, 19.286938981341404)" d="M7.58 3.15L21.63 3.15C24.53 3.15 26.23 1.46 26.23-1.44L26.23-15.49C26.23-18.39 24.53-20.09 21.63-20.09L7.58-20.09C4.69-20.09 2.99-18.39 2.99-15.49L2.99-1.44C2.99 1.46 4.69 3.15 7.58 3.15ZM10.25-3.76C9.54-3.76 9.15-4.10 9.15-4.71C9.15-5.10 9.28-5.43 9.77-6.04L11.26-7.92C12-8.85 12.57-9.68 12.57-10.52C12.57-11.07 12.42-11.55 11.91-11.55C11.47-11.55 11.31-11.18 11.18-10.75C10.99-10.16 10.61-9.93 10.13-9.93C9.49-9.93 9.14-10.37 9.14-10.97C9.14-12.32 10.39-13.41 11.92-13.41C13.61-13.41 14.86-12.40 14.86-10.59C14.86-9.25 14.17-8.34 13.23-7.25L11.96-5.73L11.96-5.64L14.10-5.64C14.75-5.64 15-5.18 15-4.69C15-4.23 14.75-3.76 14.10-3.76ZM18.76-3.60C18.08-3.60 17.53-4.15 17.53-4.84L17.53-10.88L16.92-10.38C16.71-10.24 16.55-10.17 16.32-10.17C15.95-10.17 15.53-10.43 15.53-11.04C15.53-11.43 15.69-11.71 16.04-11.99L16.99-12.70C17.45-13.05 17.91-13.30 18.55-13.30C19.45-13.30 19.98-12.83 19.98-11.93L19.98-4.84C19.98-4.15 19.45-3.60 18.76-3.60Z" fill="currentColor"/>
</svg>