<svg xmlns="http://www.w3.org/2000/svg" viewBox="0 0 24 24" width="24" height="24">
  <title>23.calendar</title>
  <path transform="matrix(0.7739984882842026, 0, 0, 0.7739984882842026, -0.3129251700680271, 18.53514739229025)" d="M7.58 3.18L24.23 3.18C27.13 3.18 28.83 1.48 28.83-1.42L28.83-15.47C28.83-18.38 27.13-20.06 24.23-20.06L7.58-20.06C4.69-20.06 2.99-18.38 2.99-15.47L2.99-1.42C2.99 1.48 4.69 3.18 7.58 3.18ZM8.20-0.98C7.49-0.98 7.15-1.28 7.15-2.04L7.15-11.85C7.15-12.61 7.49-12.89 8.20-12.89L23.61-12.89C24.33-12.89 24.67-12.61 24.67-11.85L24.67-2.04C24.67-1.28 24.33-0.98 23.61-0.98ZM11.04-2.47L14.59-2.47C15.21-2.47 15.43-2.89 15.43-3.34C15.43-3.79 15.21-4.21 14.59-4.21L12.62-4.21L12.62-4.30L13.80-5.71C14.66-6.73 15.30-7.56 15.30-8.81C15.30-10.49 14.14-11.41 12.57-11.41C11.17-11.41 10.00-10.41 10.00-9.16C10.00-8.60 10.32-8.19 10.91-8.19C11.37-8.19 11.73-8.41 11.89-8.96C12.01-9.36 12.16-9.71 12.57-9.71C13.04-9.71 13.18-9.26 13.18-8.75C13.18-7.96 12.66-7.20 11.98-6.34L10.58-4.58C10.14-4.02 10.01-3.71 10.01-3.35C10.01-2.79 10.37-2.47 11.04-2.47ZM19.05-2.25C20.78-2.25 21.97-3.25 21.97-4.86C21.97-5.99 21.34-6.77 20.38-6.91L20.38-6.96C21.06-7.13 21.71-7.90 21.71-8.96C21.71-10.50 20.61-11.40 18.97-11.40C17.86-11.40 16.77-10.82 16.46-9.77C16.41-9.60 16.37-9.39 16.37-9.18C16.37-8.77 16.62-8.30 17.30-8.30C17.73-8.30 18.18-8.44 18.32-8.94C18.40-9.28 18.59-9.68 19.01-9.68C19.46-9.68 19.62-9.18 19.62-8.72C19.62-8.19 19.42-7.63 18.77-7.63L18.69-7.63C18.13-7.63 17.85-7.32 17.85-6.87C17.85-6.39 18.11-6.09 18.69-6.09L18.79-6.09C19.49-6.09 19.79-5.71 19.79-5.00C19.79-4.51 19.59-3.97 19.03-3.97C18.63-3.97 18.41-4.25 18.27-4.62C18.09-5.11 17.75-5.37 17.26-5.37C16.65-5.37 16.27-4.99 16.27-4.39C16.27-4.16 16.29-3.96 16.36-3.77C16.68-2.77 17.79-2.25 19.05-2.25Z" fill="currentColor"/>
</svg>