<svg xmlns="http://www.w3.org/2000/svg" viewBox="0 0 24 24" width="24" height="24">
  
  <path transform="matrix(0.7810831426392068, 0, 0, 0.7810831426392068, 0.3615560640732265, 18.68649885583524)" d="M14.89 4.24C21.97 4.24 27.70-1.49 27.70-8.55C27.70-15.63 21.97-21.36 14.89-21.36C7.83-21.36 2.10-15.63 2.10-8.55C2.10-1.49 7.83 4.24 14.89 4.24ZM10.04-3.86C9.34-3.86 8.94-4.20 8.94-4.80C8.94-5.19 9.07-5.53 9.56-6.13L11.05-8.02C11.79-8.94 12.36-9.77 12.36-10.62C12.36-11.17 12.21-11.65 11.71-11.65C11.25-11.65 11.10-11.27 10.97-10.84C10.79-10.25 10.39-10.02 9.91-10.02C9.27-10.02 8.93-10.46 8.93-11.07C8.93-12.41 10.18-13.50 11.71-13.50C13.39-13.50 14.64-12.50 14.64-10.69C14.64-9.35 13.96-8.44 13.02-7.35L11.75-5.82L11.75-5.73L13.88-5.73C14.54-5.73 14.79-5.27 14.79-4.79C14.79-4.32 14.54-3.86 13.88-3.86ZM17.53-3.69C16.72-3.69 16.42-4.24 16.42-4.71C16.42-5.03 16.50-5.27 16.59-5.55L18.59-11.24L18.59-11.37L16.39-11.37C15.82-11.37 15.46-11.77 15.46-12.32C15.46-12.81 15.79-13.23 16.39-13.23L19.82-13.23C20.51-13.23 21.04-12.80 21.04-12.11C21.04-11.61 20.95-11.25 20.79-10.79L18.61-4.45C18.45-3.95 18.16-3.69 17.53-3.69Z" fill="currentColor"/>
</svg>