<svg xmlns="http://www.w3.org/2000/svg" viewBox="0 0 24 24" width="24" height="24">
  
  <path transform="matrix(0.7810831426392068, 0, 0, 0.7810831426392068, 0.3615560640732265, 18.608695652173914)" d="M14.89 4.34C21.97 4.34 27.70-1.39 27.70-8.46C27.70-15.53 21.97-21.26 14.89-21.26C7.83-21.26 2.10-15.53 2.10-8.46C2.10-1.39 7.83 4.34 14.89 4.34ZM14.89 0.16C10.13 0.16 6.27-3.69 6.27-8.46C6.27-13.23 10.13-17.09 14.89-17.09C19.66-17.09 23.53-13.23 23.53-8.46C23.53-3.69 19.66 0.16 14.89 0.16ZM9.97-4.10L13.52-4.10C14.14-4.10 14.37-4.52 14.37-4.97C14.37-5.41 14.14-5.84 13.52-5.84L11.55-5.84L11.55-5.93L12.74-7.34C13.59-8.36 14.24-9.19 14.24-10.44C14.24-12.12 13.08-13.04 11.51-13.04C10.10-13.04 8.93-12.04 8.93-10.80C8.93-10.24 9.26-9.82 9.84-9.82C10.30-9.82 10.66-10.04 10.83-10.59C10.93-10.99 11.10-11.34 11.50-11.34C11.98-11.34 12.12-10.89 12.12-10.38C12.12-9.59 11.59-8.82 10.91-7.97L9.52-6.21C9.07-5.65 8.94-5.34 8.94-4.98C8.94-4.42 9.30-4.10 9.97-4.10ZM17.18-7.17C18.06-7.17 18.55-7.82 18.74-8.57L18.76-8.57L18.76-7.92C18.76-6.39 18.49-5.59 17.99-5.59C17.75-5.59 17.61-5.72 17.44-6.07C17.21-6.50 16.92-6.68 16.48-6.68C15.82-6.68 15.57-6.23 15.57-5.77C15.57-5.64 15.60-5.44 15.63-5.30C15.94-4.30 16.86-3.86 17.91-3.86C20.21-3.86 20.89-6.18 20.89-8.48C20.89-10.45 20.26-13.04 17.93-13.04C16.20-13.04 15.28-11.60 15.28-9.94C15.28-8.54 15.82-7.17 17.18-7.17ZM17.98-8.74C17.60-8.74 17.39-9.22 17.39-10.02C17.39-10.80 17.60-11.29 17.98-11.29C18.36-11.29 18.56-10.79 18.56-9.97C18.56-9.21 18.36-8.74 17.98-8.74Z" fill="currentColor"/>
</svg>