<svg xmlns="http://www.w3.org/2000/svg" viewBox="0 0 24 24" width="24" height="24">
  <title>30.calendar</title>
  <path transform="matrix(0.7739984882842026, 0, 0, 0.7739984882842026, -0.3129251700680271, 18.53514739229025)" d="M7.58 3.18L24.23 3.18C27.13 3.18 28.83 1.48 28.83-1.42L28.83-15.47C28.83-18.38 27.13-20.06 24.23-20.06L7.58-20.06C4.69-20.06 2.99-18.38 2.99-15.47L2.99-1.42C2.99 1.48 4.69 3.18 7.58 3.18ZM8.20-0.98C7.49-0.98 7.15-1.28 7.15-2.04L7.15-11.85C7.15-12.61 7.49-12.89 8.20-12.89L23.61-12.89C24.33-12.89 24.67-12.61 24.67-11.85L24.67-2.04C24.67-1.28 24.33-0.98 23.61-0.98ZM19.24-2.24C21.52-2.24 22.21-4.64 22.21-6.83C22.21-9.02 21.52-11.44 19.24-11.44C16.97-11.44 16.28-9.02 16.28-6.83C16.28-4.64 16.97-2.24 19.24-2.24ZM12.47-2.25C14.19-2.25 15.39-3.25 15.39-4.86C15.39-5.99 14.75-6.79 13.79-6.91L13.79-6.96C14.46-7.14 15.13-7.90 15.13-8.96C15.13-10.50 14.03-11.40 12.39-11.40C11.27-11.40 10.18-10.83 9.88-9.77C9.82-9.60 9.79-9.39 9.79-9.18C9.79-8.77 10.03-8.30 10.71-8.30C11.14-8.30 11.59-8.44 11.72-8.94C11.81-9.28 12-9.68 12.42-9.68C12.88-9.68 13.02-9.19 13.02-8.73C13.02-8.19 12.82-7.63 12.18-7.63L12.11-7.63C11.53-7.63 11.26-7.32 11.26-6.87C11.26-6.39 11.52-6.09 12.11-6.09L12.20-6.09C12.90-6.09 13.21-5.71 13.21-5.00C13.21-4.51 13.01-3.97 12.45-3.97C12.05-3.97 11.82-4.27 11.68-4.62C11.51-5.11 11.17-5.37 10.68-5.37C10.07-5.37 9.68-4.99 9.68-4.39C9.68-4.16 9.70-3.96 9.76-3.77C10.08-2.77 11.20-2.25 12.47-2.25ZM19.24-4.01C18.75-4.01 18.55-5.03 18.55-6.83C18.55-8.65 18.75-9.66 19.24-9.66C19.73-9.66 19.93-8.65 19.93-6.83C19.93-5.03 19.73-4.01 19.24-4.01Z" fill="currentColor"/>
</svg>