<svg xmlns="http://www.w3.org/2000/svg" viewBox="0 0 24 24" width="24" height="24">
  <title>38.circle.fill</title>
  <path transform="matrix(0.7810831426392068, 0, 0, 0.7810831426392068, 0.3615560640732265, 18.608695652173914)" d="M14.89 4.34C21.97 4.34 27.70-1.39 27.70-8.46C27.70-15.53 21.97-21.26 14.89-21.26C7.83-21.26 2.10-15.53 2.10-8.46C2.10-1.39 7.83 4.34 14.89 4.34ZM18.45-3.50C16.59-3.50 15.26-4.58 15.26-6.29C15.26-7.48 16.02-8.47 17.03-8.67L17.03-8.72C16.23-8.96 15.50-9.68 15.50-10.83C15.50-12.52 16.88-13.39 18.45-13.39C20.14-13.39 21.40-12.40 21.40-10.82C21.40-9.83 20.80-9.01 19.88-8.72L19.88-8.67C20.98-8.45 21.62-7.45 21.62-6.28C21.62-4.45 20.18-3.50 18.45-3.50ZM11.18-3.52C9.83-3.52 8.61-4.08 8.27-5.18C8.20-5.36 8.17-5.59 8.17-5.84C8.17-6.48 8.59-6.88 9.25-6.88C9.80-6.88 10.15-6.61 10.34-6.07C10.49-5.68 10.72-5.38 11.16-5.38C11.77-5.38 11.98-5.98 11.98-6.49C11.98-7.25 11.66-7.66 10.89-7.66L10.79-7.66C10.16-7.66 9.89-7.99 9.89-8.50C9.89-9 10.17-9.32 10.79-9.32L10.88-9.32C11.57-9.32 11.78-9.94 11.78-10.50C11.78-11.00 11.61-11.53 11.13-11.53C10.69-11.53 10.48-11.10 10.39-10.72C10.24-10.20 9.75-10.04 9.28-10.04C8.55-10.04 8.30-10.56 8.30-10.99C8.30-11.21 8.32-11.44 8.38-11.64C8.72-12.76 9.90-13.38 11.10-13.38C12.87-13.38 14.05-12.42 14.05-10.77C14.05-9.61 13.34-8.79 12.61-8.60L12.61-8.54C13.65-8.41 14.32-7.55 14.32-6.33C14.32-4.59 13.04-3.52 11.18-3.52ZM18.45-9.42C18.83-9.42 19.05-9.87 19.05-10.57C19.05-11.26 18.83-11.72 18.45-11.72C18.08-11.72 17.86-11.26 17.86-10.57C17.86-9.88 18.08-9.42 18.45-9.42ZM18.45-5.19C18.86-5.19 19.10-5.70 19.10-6.48C19.10-7.24 18.86-7.75 18.45-7.75C18.04-7.75 17.80-7.24 17.80-6.48C17.80-5.70 18.04-5.19 18.45-5.19Z" fill="currentColor"/>
</svg>