<svg xmlns="http://www.w3.org/2000/svg" viewBox="0 0 24 24" width="24" height="24">
  <title>39.square</title>
  <path transform="matrix(0.8606488485459741, 0, 0, 0.8606488485459741, -0.571860816944024, 19.286938981341404)" d="M7.58 3.15L21.63 3.15C24.53 3.15 26.23 1.46 26.23-1.44L26.23-15.49C26.23-18.39 24.53-20.09 21.63-20.09L7.58-20.09C4.69-20.09 2.99-18.39 2.99-15.49L2.99-1.44C2.99 1.46 4.69 3.15 7.58 3.15ZM8.21-1.01C7.50-1.01 7.15-1.30 7.15-2.07L7.15-14.85C7.15-15.62 7.50-15.91 8.21-15.91L21-15.91C21.71-15.91 22.07-15.62 22.07-14.85L22.07-2.07C22.07-1.30 21.71-1.01 21-1.01ZM17.00-7.17C17.87-7.17 18.38-7.82 18.56-8.57L18.57-8.57L18.57-7.92C18.57-6.39 18.30-5.59 17.81-5.59C17.57-5.59 17.43-5.72 17.25-6.07C17.03-6.50 16.75-6.68 16.30-6.68C15.63-6.68 15.40-6.23 15.40-5.77C15.40-5.64 15.41-5.44 15.46-5.30C15.75-4.30 16.68-3.86 17.72-3.86C20.03-3.86 20.71-6.18 20.71-8.48C20.71-10.45 20.09-13.04 17.75-13.04C16.01-13.04 15.09-11.60 15.09-9.94C15.09-8.54 15.63-7.17 17.00-7.17ZM11.21-3.88C12.94-3.88 14.13-4.88 14.13-6.49C14.13-7.62 13.51-8.41 12.54-8.54L12.54-8.59C13.22-8.77 13.88-9.53 13.88-10.59C13.88-12.13 12.79-13.03 11.14-13.03C10.02-13.03 8.93-12.46 8.63-11.40C8.57-11.23 8.53-11.02 8.53-10.80C8.53-10.39 8.78-9.93 9.46-9.93C9.89-9.93 10.34-10.07 10.48-10.57C10.56-10.91 10.75-11.31 11.17-11.31C11.63-11.31 11.78-10.82 11.78-10.36C11.78-9.82 11.58-9.26 10.93-9.26L10.86-9.26C10.29-9.26 10.02-8.95 10.02-8.50C10.02-8.02 10.28-7.72 10.86-7.72L10.95-7.72C11.65-7.72 11.95-7.34 11.95-6.63C11.95-6.14 11.75-5.60 11.20-5.60C10.79-5.60 10.57-5.89 10.44-6.25C10.27-6.74 9.93-7.00 9.42-7.00C8.81-7.00 8.43-6.62 8.43-6.02C8.43-5.79 8.46-5.59 8.52-5.40C8.84-4.39 9.96-3.88 11.21-3.88ZM17.79-8.74C17.41-8.74 17.21-9.22 17.21-10.02C17.21-10.80 17.41-11.29 17.79-11.29C18.18-11.29 18.38-10.79 18.38-9.97C18.38-9.21 18.18-8.74 17.79-8.74Z" fill="currentColor"/>
</svg>