<svg xmlns="http://www.w3.org/2000/svg" viewBox="0 0 24 24" width="24" height="24">
  
  <path transform="matrix(0.7810831426392068, 0, 0, 0.7810831426392068, 0.3615560640732265, 18.608695652173914)" d="M14.89 4.34C21.97 4.34 27.70-1.39 27.70-8.46C27.70-15.53 21.97-21.26 14.89-21.26C7.83-21.26 2.10-15.53 2.10-8.46C2.10-1.39 7.83 4.34 14.89 4.34ZM9.60-6.50C9.60-7.14 9.82-7.68 10.20-8.50C10.92-10.08 11.68-11.60 12.50-13.20C12.86-13.88 13.29-14.23 14.10-14.23C15.06-14.23 15.80-13.58 15.80-12.76C15.80-12.34 15.73-12.08 15.47-11.48C15.06-10.51 14.21-8.72 13.69-7.59L15.09-7.59L15.09-8.29C15.09-9.20 15.75-9.86 16.75-9.86C17.75-9.86 18.42-9.22 18.42-8.29L18.42-7.59L18.59-7.59C19.69-7.59 20.32-7.01 20.32-6.08C20.32-5.13 19.66-4.56 18.57-4.56L18.42-4.56L18.42-4.45C18.42-3.29 17.77-2.72 16.76-2.72C15.76-2.72 15.09-3.29 15.09-4.45L15.09-4.56L11.57-4.56C10.39-4.56 9.60-5.20 9.60-6.50Z" fill="currentColor"/>
</svg>