<svg xmlns="http://www.w3.org/2000/svg" viewBox="0 0 24 24" width="24" height="24">
  <title>41.square.fill</title>
  <path transform="matrix(0.8606488485459741, 0, 0, 0.8606488485459741, -0.571860816944024, 19.286938981341404)" d="M7.58 3.15L21.63 3.15C24.53 3.15 26.23 1.46 26.23-1.44L26.23-15.49C26.23-18.39 24.53-20.09 21.63-20.09L7.58-20.09C4.69-20.09 2.99-18.39 2.99-15.49L2.99-1.44C2.99 1.46 4.69 3.15 7.58 3.15ZM18.76-3.61C18.08-3.61 17.54-4.15 17.54-4.84L17.54-10.88L16.92-10.41C16.72-10.24 16.56-10.18 16.34-10.18C15.95-10.18 15.53-10.43 15.53-11.04C15.53-11.43 15.70-11.71 16.07-11.99L17.02-12.70C17.47-13.05 17.91-13.30 18.56-13.30C19.45-13.30 20.00-12.83 20.00-11.93L20.00-4.84C20.00-4.15 19.45-3.61 18.76-3.61ZM12.95-3.60C12.32-3.60 11.79-3.95 11.79-4.76L11.79-5.33L9.94-5.33C9.02-5.33 8.55-5.79 8.55-6.66C8.55-7.11 8.66-7.64 8.85-8.14L9.83-10.92C10.25-12.12 10.70-13.29 12.25-13.29C13.36-13.29 14.10-12.67 14.10-11.54L14.10-7.23L14.20-7.23C14.81-7.23 15.09-6.88 15.09-6.28C15.09-5.80 14.89-5.33 14.18-5.33L14.10-5.33L14.10-4.76C14.10-3.93 13.59-3.60 12.95-3.60ZM11.88-7.16L11.88-11.45L11.84-11.45L10.50-7.24L10.50-7.16Z" fill="currentColor"/>
</svg>