<svg xmlns="http://www.w3.org/2000/svg" viewBox="0 0 24 24" width="24" height="24">
  <title>48.circle.fill</title>
  <path transform="matrix(0.7810831426392068, 0, 0, 0.7810831426392068, 0.3615560640732265, 18.608695652173914)" d="M14.89 4.34C21.97 4.34 27.70-1.39 27.70-8.46C27.70-15.53 21.97-21.26 14.89-21.26C7.83-21.26 2.10-15.53 2.10-8.46C2.10-1.39 7.83 4.34 14.89 4.34ZM18.57-3.50C16.72-3.50 15.39-4.58 15.39-6.29C15.39-7.48 16.13-8.47 17.13-8.67L17.13-8.72C16.35-8.96 15.63-9.68 15.63-10.83C15.63-12.52 17.00-13.39 18.57-13.39C20.27-13.39 21.50-12.40 21.50-10.82C21.50-9.83 20.91-9.01 20.00-8.72L20.00-8.67C21.08-8.45 21.75-7.45 21.75-6.28C21.75-4.45 20.30-3.50 18.57-3.50ZM12.36-3.60C11.74-3.60 11.23-3.95 11.23-4.76L11.23-5.33L9.36-5.33C8.45-5.33 7.97-5.79 7.97-6.66C7.97-7.11 8.09-7.64 8.26-8.14L9.25-10.92C9.68-12.12 10.11-13.29 11.67-13.29C12.79-13.29 13.51-12.67 13.51-11.54L13.51-7.23L13.62-7.23C14.23-7.23 14.51-6.88 14.51-6.28C14.51-5.80 14.31-5.33 13.61-5.33L13.51-5.33L13.51-4.76C13.51-3.93 13.01-3.60 12.36-3.60ZM18.57-9.42C18.95-9.42 19.16-9.87 19.16-10.57C19.16-11.26 18.95-11.72 18.57-11.72C18.21-11.72 17.99-11.26 17.99-10.57C17.99-9.88 18.21-9.42 18.57-9.42ZM11.30-7.16L11.30-11.45L11.25-11.45L9.93-7.24L9.93-7.16ZM18.57-5.19C18.96-5.19 19.23-5.70 19.23-6.48C19.23-7.24 18.96-7.75 18.57-7.75C18.16-7.75 17.93-7.24 17.93-6.48C17.93-5.70 18.16-5.19 18.57-5.19Z" fill="currentColor"/>
</svg>