<svg xmlns="http://www.w3.org/2000/svg" viewBox="0 0 24 24" width="24" height="24">
  
  <path transform="matrix(0.8606488485459741, 0, 0, 0.8606488485459741, -0.571860816944024, 19.286938981341404)" d="M7.58 3.15L21.63 3.15C24.53 3.15 26.23 1.46 26.23-1.44L26.23-15.49C26.23-18.39 24.53-20.09 21.63-20.09L7.58-20.09C4.69-20.09 2.99-18.39 2.99-15.49L2.99-1.44C2.99 1.46 4.69 3.15 7.58 3.15ZM18.42-3.50C16.57-3.50 15.25-4.58 15.25-6.29C15.25-7.48 15.98-8.47 16.99-8.67L16.99-8.72C16.21-8.96 15.48-9.68 15.48-10.83C15.48-12.52 16.85-13.39 18.42-13.39C20.12-13.39 21.36-12.40 21.36-10.82C21.36-9.83 20.77-9.01 19.86-8.72L19.86-8.67C20.94-8.45 21.61-7.45 21.61-6.28C21.61-4.45 20.16-3.50 18.42-3.50ZM12.21-3.60C11.59-3.60 11.07-3.95 11.07-4.76L11.07-5.33L9.21-5.33C8.30-5.33 7.82-5.79 7.82-6.66C7.82-7.11 7.93-7.64 8.12-8.14L9.11-10.92C9.54-12.12 9.97-13.29 11.52-13.29C12.64-13.29 13.36-12.67 13.36-11.54L13.36-7.23L13.48-7.23C14.09-7.23 14.37-6.88 14.37-6.28C14.37-5.80 14.17-5.33 13.46-5.33L13.36-5.33L13.36-4.76C13.36-3.93 12.87-3.60 12.21-3.60ZM18.42-9.42C18.80-9.42 19.02-9.87 19.02-10.57C19.02-11.26 18.80-11.72 18.42-11.72C18.06-11.72 17.85-11.26 17.85-10.57C17.85-9.88 18.06-9.42 18.42-9.42ZM11.16-7.16L11.16-11.45L11.11-11.45L9.77-7.24L9.77-7.16ZM18.42-5.19C18.82-5.19 19.08-5.70 19.08-6.48C19.08-7.24 18.82-7.75 18.42-7.75C18.01-7.75 17.78-7.24 17.78-6.48C17.78-5.70 18.01-5.19 18.42-5.19Z" fill="currentColor"/>
</svg>