<svg xmlns="http://www.w3.org/2000/svg" viewBox="0 0 24 24" width="24" height="24">
  <title>90.arrow.trianglehead.counterclockwise</title>
  <path transform="matrix(0.7255832555826578, 0, 0, 0.7255832555826578, 1.1885260608591872, 18.85391635274707)" d="M14.89 4.34C21.97 4.34 27.70-1.41 27.70-8.46C27.70-14.57 23.43-19.68 17.68-20.95L17.68-22.21C17.68-23.24 16.68-23.50 15.98-22.95L11.94-19.77C11.48-19.42 11.48-18.74 11.94-18.38L15.98-15.21C16.68-14.67 17.68-14.92 17.68-15.93L17.68-16.63C21.09-15.47 23.53-12.25 23.53-8.46C23.53-3.69 19.66 0.16 14.89 0.16C10.13 0.16 6.27-3.69 6.27-8.46C6.27-10.76 7.09-12.68 8.61-14.36C9.47-15.34 9.76-16.58 8.84-17.53C8.03-18.35 6.73-18.40 5.67-17.32C3.29-14.89 2.10-11.60 2.10-8.46C2.10-1.41 7.83 4.34 14.89 4.34ZM11.09-3.95C13.55-3.95 14.43-6.08 14.43-8.44C14.43-10.91 13.41-12.89 11.13-12.89C9.54-12.89 8.16-11.86 8.16-9.83C8.16-8.36 8.93-7.15 10.36-7.15C11.25-7.15 11.86-7.65 12.11-8.48L12.12-8.48L12.12-8.40C12.12-7.54 12.15-5.78 11.19-5.78C10.92-5.78 10.72-5.93 10.42-6.32C10.14-6.64 9.87-6.79 9.46-6.79C8.80-6.79 8.50-6.27 8.50-5.82C8.50-5.39 8.72-4.96 9.05-4.64C9.57-4.15 10.35-3.95 11.09-3.95ZM18.63-3.95C20.96-3.95 21.88-6.06 21.88-8.44C21.88-10.80 20.96-12.89 18.63-12.89C16.27-12.89 15.36-10.78 15.36-8.44C15.36-6.08 16.29-3.95 18.63-3.95ZM11.17-8.80C10.69-8.80 10.44-9.32 10.44-9.93C10.44-10.46 10.65-11.06 11.18-11.06C11.67-11.06 11.89-10.50 11.89-9.90C11.89-9.43 11.74-8.80 11.17-8.80ZM18.63-5.82C18.08-5.82 17.81-6.70 17.81-8.44C17.81-10.15 18.08-11.02 18.63-11.02C19.16-11.02 19.44-10.15 19.44-8.44C19.44-6.70 19.16-5.82 18.63-5.82Z" fill="currentColor"/>
</svg>