<svg xmlns="http://www.w3.org/2000/svg" viewBox="0 0 24 24" width="24" height="24">
  <title>a.circle</title>
  <path transform="matrix(0.7810831426392068, 0, 0, 0.7810831426392068, 0.3615560640732265, 18.608695652173914)" d="M14.89 4.34C21.97 4.34 27.70-1.39 27.70-8.46C27.70-15.53 21.97-21.26 14.89-21.26C7.83-21.26 2.10-15.53 2.10-8.46C2.10-1.39 7.83 4.34 14.89 4.34ZM14.89 0.16C10.13 0.16 6.27-3.69 6.27-8.46C6.27-13.23 10.13-17.09 14.89-17.09C19.66-17.09 23.53-13.23 23.53-8.46C23.53-3.69 19.66 0.16 14.89 0.16ZM11.70-3.09C12.67-3.09 13.27-3.64 13.49-4.77L13.61-5.25L16.20-5.25L16.31-4.77C16.54-3.64 17.12-3.09 18.09-3.09C19.23-3.09 19.89-3.73 19.89-4.82C19.89-5.10 19.82-5.50 19.64-6.04L17.92-11.38C17.40-13.03 16.42-13.80 14.86-13.80C13.34-13.80 12.41-13.04 11.87-11.38L10.16-6.04C9.98-5.50 9.91-5.10 9.91-4.82C9.91-3.73 10.56-3.09 11.70-3.09ZM14.18-7.84L14.84-10.73L14.96-10.73L15.61-7.84Z" fill="currentColor"/>
</svg>