<svg xmlns="http://www.w3.org/2000/svg" viewBox="0 0 24 24" width="24" height="24">
  
  <path transform="matrix(0.5070310952663893, 0, 0, 0.5070310952663893, 0.9364230540701131, 16.292929292929294)" d="M21.82 3.39C28.38 3.39 33.68-1.91 33.68-8.46C33.68-15.01 28.38-20.32 21.82-20.32C15.27-20.32 9.97-15.01 9.97-8.46C9.97-1.91 15.27 3.39 21.82 3.39ZM41.54-8.45C41.54-12.40 40.23-16.18 37.90-19.24C37.16-20.20 35.88-20.26 34.96-19.48C34.01-18.69 34.01-17.51 34.75-16.49C36.43-14.19 37.37-11.39 37.37-8.45C37.37-5.52 36.43-2.72 34.76-0.42C34.03 0.59 34.03 1.78 34.96 2.55C35.89 3.33 37.17 3.28 37.91 2.32C40.23-0.73 41.54-4.50 41.54-8.45ZM2.10-8.45C2.10-4.50 3.40-0.73 5.73 2.32C6.46 3.28 7.75 3.33 8.68 2.55C9.60 1.78 9.61 0.59 8.87-0.42C7.21-2.72 6.27-5.52 6.27-8.45C6.27-11.39 7.21-14.19 8.88-16.49C9.63-17.51 9.63-18.69 8.68-19.48C7.76-20.26 6.48-20.20 5.74-19.24C3.40-16.18 2.10-12.40 2.10-8.45ZM21.82-0.79C17.59-0.79 14.14-4.23 14.14-8.46C14.14-12.70 17.59-16.15 21.82-16.15C26.06-16.15 29.51-12.70 29.51-8.46C29.51-4.23 26.06-0.79 21.82-0.79ZM26.41-5.41C27.64-5.41 28.32-6.11 28.32-7.23C28.32-8.24 27.77-8.63 27.20-8.91L26.81-9.09C26.41-9.28 26.17-9.42 26.17-9.86C26.17-10.07 26.24-10.23 26.43-10.23C26.59-10.23 26.68-10.11 26.75-9.87C26.89-9.47 27.19-9.35 27.53-9.35C28.01-9.35 28.20-9.68 28.20-10.02C28.20-10.18 28.16-10.34 28.10-10.48C27.87-11.10 27.19-11.50 26.43-11.50C25.31-11.50 24.56-10.83 24.56-9.69C24.56-8.89 24.94-8.33 25.66-7.99L26.05-7.80C26.41-7.63 26.72-7.48 26.72-7.08C26.72-6.86 26.63-6.68 26.41-6.68C26.25-6.68 26.14-6.82 26.07-6.98C25.95-7.36 25.69-7.54 25.29-7.54C24.93-7.54 24.60-7.27 24.60-6.84C24.60-6.69 24.63-6.50 24.74-6.32C25.04-5.67 25.69-5.41 26.41-5.41ZM16.01-5.48C16.50-5.48 16.75-5.79 16.82-6.27L16.85-6.53L17.85-6.53L17.91-6.23C18-5.73 18.23-5.48 18.74-5.48C19.20-5.48 19.49-5.81 19.49-6.28C19.49-6.43 19.44-6.67 19.42-6.82L18.63-10.44C18.49-11.12 18.02-11.44 17.32-11.44C16.73-11.44 16.23-11.16 16.08-10.44L15.32-6.82C15.28-6.66 15.25-6.45 15.25-6.28C15.25-5.77 15.50-5.48 16.01-5.48ZM20.99-5.58L22.58-5.58C23.52-5.58 24.05-6.30 24.05-7.25C24.05-7.91 23.57-8.61 22.95-8.63L22.95-8.65C23.52-8.74 23.95-9.23 23.95-9.89C23.95-10.80 23.41-11.33 22.51-11.33L20.99-11.33C20.46-11.33 20.18-11.02 20.18-10.48L20.18-6.45C20.18-5.91 20.46-5.58 20.99-5.58ZM21.81-9.02L21.81-10.20L21.98-10.20C22.34-10.20 22.43-9.96 22.43-9.61C22.43-9.29 22.30-9.02 21.95-9.02ZM17.03-7.69L17.31-9.62L17.33-9.62L17.66-7.69ZM21.81-6.71L21.81-8.06L21.96-8.06C22.31-8.06 22.42-7.76 22.42-7.41C22.42-7.05 22.31-6.71 21.96-6.71Z" fill="currentColor"/>
</svg>