<svg xmlns="http://www.w3.org/2000/svg" viewBox="0 0 24 24" width="24" height="24">
  <title>ac.slash</title>
  <path transform="matrix(0.6039160179287568, 0, 0, 0.6039160179287568, 0.19532908704883223, 17.144120959221947)" d="M30.70 4.34C31.11 4.75 31.80 4.72 32.21 4.31C32.63 3.90 32.63 3.22 32.21 2.81L8.05-21.35C7.63-21.77 6.95-21.77 6.53-21.35C6.13-20.94 6.12-20.25 6.53-19.84ZM22.80-10.63L24.26-16.22C24.49-17.11 23.95-18.02 23.05-18.27C22.15-18.49 21.25-17.95 21.01-17.05L20.05-13.38ZM30.61-14.21C31.28-14.21 31.44-13.55 31.59-12.70C31.82-11.36 32.55-10.65 33.89-10.65C35.18-10.65 35.94-11.51 35.94-12.87C35.94-13.37 35.87-13.85 35.75-14.30C35.14-16.62 33.09-18.05 30.56-18.05C26.09-18.05 24.53-14.00 24.41-9.12C24.41-9.09 24.41-9.05 24.41-9.02L29.59-3.86C29.40-4.78 29.34-6.25 29.34-8.46C29.34-13.13 29.72-14.21 30.61-14.21ZM5.25 1.30C6.70 1.30 7.37 0.46 7.62-1.01L7.92-2.75L10.92-2.75L11.25-0.93C11.51 0.55 12.21 1.30 13.71 1.30C15.05 1.30 15.91 0.28 15.91-1.03C15.91-1.58 15.84-2.06 15.73-2.60L14.63-7.70L9.35-12.96L10.35-6.21L8.43-6.21L9.30-13.02L6.09-16.23L3.20-2.61C3.06-1.93 2.99-1.36 2.99-1.03C2.99 0.34 3.74 1.30 5.25 1.30ZM33.87 0.43C35.04-0.39 35.71-1.62 35.99-2.75C36.06-3.13 36.11-3.49 36.11-3.84C36.11-4.98 35.45-6.04 33.81-6.04C32.45-6.04 31.79-5.39 31.65-4.02C31.59-3.42 31.42-2.73 30.90-2.54ZM17.98 1.35C18.88 1.58 19.79 1.02 20.03 0.13L20.52-1.79L17.78-4.55L16.78-0.70C16.55 0.19 17.09 1.11 17.98 1.35Z" fill="currentColor"/>
</svg>