<svg xmlns="http://www.w3.org/2000/svg" viewBox="0 0 24 24" width="24" height="24">
  
  <path transform="matrix(0.5816271965750488, 0, 0, 0.5816271965750488, -0.6105064408778555, 16.921111358521703)" d="M8.58 7.30L17.04 7.30C19.65 7.30 21.13 5.82 21.13 3.22L21.13-20.14C21.13-22.75 19.65-24.22 17.04-24.22L8.58-24.22C5.96-24.22 4.49-22.75 4.49-20.14L4.49 3.22C4.49 5.82 5.96 7.30 8.58 7.30ZM9.40 3.27C8.84 3.27 8.51 2.96 8.51 2.39L8.51-19.31C8.51-19.89 8.84-20.20 9.40-20.20L16.22-20.20C16.78-20.20 17.11-19.89 17.11-19.31L17.11 2.39C17.11 2.96 16.78 3.27 16.22 3.27ZM27.07-14.66C27.52-14.66 27.81-15.04 27.73-15.50L27.55-16.42L28.29-15.82C28.65-15.52 29.10-15.56 29.30-15.96C29.52-16.34 29.34-16.83 28.91-16.97L28.09-17.26L28.93-17.59C29.38-17.77 29.53-18.19 29.32-18.56C29.10-18.95 28.63-19.01 28.27-18.71L27.57-18.16L27.73-19.03C27.81-19.50 27.52-19.88 27.07-19.88C26.61-19.88 26.31-19.50 26.39-19.03L26.53-18.18L25.84-18.73C25.48-19.02 25.01-18.94 24.80-18.56C24.59-18.19 24.76-17.72 25.20-17.58L26.05-17.29L25.18-16.96C24.75-16.80 24.59-16.32 24.81-15.96C25.03-15.56 25.46-15.52 25.84-15.82L26.53-16.38L26.39-15.50C26.32-15.04 26.61-14.66 27.07-14.66ZM12.45-12.79C12.88-12.79 13.23-13.16 13.23-13.59L13.23-17.87C13.23-18.29 12.88-18.68 12.45-18.68C12-18.68 11.63-18.29 11.63-17.87L11.63-13.59C11.63-13.16 12-12.79 12.45-12.79ZM15.20-12.79C15.64-12.79 16.01-13.16 16.01-13.59L16.01-17.87C16.01-18.29 15.64-18.68 15.20-18.68C14.75-18.68 14.38-18.29 14.38-17.87L14.38-13.59C14.38-13.16 14.75-12.79 15.20-12.79ZM26.57-9.97C30.41-9.97 32.18-12.87 35.03-12.87C35.68-12.87 36.16-12.71 36.83-12.35C37.46-11.99 38.20-12.15 38.61-12.73C39.11-13.45 38.88-14.36 38.11-14.79C37.16-15.34 36.12-15.63 35.03-15.63C31.20-15.63 29.43-12.74 26.57-12.74C25.92-12.74 25.44-12.89 24.77-13.25C24.13-13.64 23.36-13.44 22.97-12.84C22.51-12.14 22.72-11.24 23.48-10.82C24.43-10.27 25.48-9.97 26.57-9.97ZM15.20-5.53C15.64-5.53 16.01-5.89 16.01-6.35L16.01-10.61C16.01-11.05 15.64-11.41 15.20-11.41C14.75-11.41 14.38-11.05 14.38-10.61L14.38-6.35C14.38-5.89 14.75-5.53 15.20-5.53ZM12.45-5.53C12.88-5.53 13.23-5.89 13.23-6.35L13.23-10.61C13.23-11.05 12.88-11.41 12.45-11.41C12-11.41 11.63-11.05 11.63-10.61L11.63-6.35C11.63-5.89 12-5.53 12.45-5.53ZM26.58-5.64C30.41-5.64 32.18-8.51 35.03-8.51C35.68-8.51 36.16-8.38 36.84-7.99C37.46-7.65 38.20-7.80 38.61-8.38C39.11-9.08 38.88-10.01 38.11-10.45C37.16-10.99 36.12-11.27 35.03-11.27C31.20-11.27 29.43-8.40 26.58-8.40C25.92-8.40 25.44-8.53 24.77-8.91C24.13-9.29 23.36-9.09 22.97-8.48C22.51-7.78 22.72-6.90 23.50-6.46C24.43-5.92 25.49-5.64 26.58-5.64ZM26.57-1.28C30.41-1.28 32.18-4.16 35.03-4.16C35.68-4.16 36.16-4.02 36.83-3.63C37.46-3.29 38.20-3.45 38.61-4.02C39.11-4.72 38.88-5.66 38.11-6.09C37.16-6.64 36.12-6.93 35.03-6.93C31.20-6.93 29.43-4.04 26.57-4.04C25.92-4.04 25.44-4.18 24.77-4.56C24.13-4.93 23.36-4.73 22.97-4.14C22.51-3.43 22.72-2.54 23.48-2.11C24.43-1.56 25.48-1.28 26.57-1.28ZM15.20 1.75C15.64 1.75 16.01 1.37 16.01 0.94L16.01-3.33C16.01-3.77 15.64-4.14 15.20-4.14C14.75-4.14 14.38-3.77 14.38-3.33L14.38 0.94C14.38 1.37 14.75 1.75 15.20 1.75ZM12.45 1.75C12.88 1.75 13.23 1.37 13.23 0.94L13.23-3.33C13.23-3.77 12.88-4.14 12.45-4.14C12-4.14 11.63-3.77 11.63-3.33L11.63 0.94C11.63 1.37 12 1.75 12.45 1.75ZM35.60 2.98C36.05 2.98 36.34 2.60 36.26 2.13L36.12 1.27L36.81 1.82C37.17 2.10 37.64 2.05 37.85 1.66C38.07 1.29 37.91 0.87 37.46 0.69L36.63 0.36L37.45 0.07C37.89-0.07 38.06-0.56 37.84-0.94C37.64-1.34 37.20-1.38 36.82-1.08L36.08-0.49L36.26-1.39C36.34-1.86 36.05-2.24 35.60-2.24C35.16-2.24 34.86-1.86 34.93-1.39L35.07-0.52L34.38-1.08C34.01-1.38 33.57-1.34 33.35-0.94C33.12-0.59 33.29-0.09 33.73 0.06L34.59 0.39L33.74 0.68C33.30 0.82 33.12 1.29 33.34 1.66C33.54 2.04 34.02 2.12 34.38 1.83L35.07 1.28L34.93 2.13C34.84 2.59 35.16 2.98 35.60 2.98Z" fill="currentColor"/>
</svg>