<svg xmlns="http://www.w3.org/2000/svg" viewBox="0 0 24 24" width="24" height="24">
  <title>airplane.up.right</title>
  <path transform="matrix(0.7880416748544014, 0, 0, 0.7880416748544014, -0.3546037064092813, 18.51275576018183)" d="M27.80-20.39C26.79-21.40 24.36-21.08 22.50-19.22L18.82-15.53C18.35-15.07 18.08-15 17.48-15.01L5.55-15.21C5.17-15.21 4.85-15.09 4.59-14.85L3.12-13.37C2.89-13.15 2.96-12.81 3.32-12.69L12.67-9.45L8.73-4.56L4.61-5.52C4.27-5.61 3.96-5.51 3.73-5.25L3.29-4.83C3.02-4.57 3.02-4.20 3.28-3.94L11.36 4.14C11.60 4.38 11.99 4.38 12.23 4.11L12.67 3.69C12.93 3.45 13.03 3.15 12.94 2.81L11.98-1.31L16.85-5.26L20.10 4.10C20.23 4.44 20.57 4.52 20.79 4.30L22.25 2.81C22.51 2.57 22.63 2.25 22.63 1.86L22.42-10.07C22.42-10.68 22.48-10.95 22.95-11.40L26.63-15.08C28.49-16.95 28.82-19.37 27.80-20.39Z" fill="currentColor"/>
</svg>