<svg xmlns="http://www.w3.org/2000/svg" viewBox="0 0 24 24" width="24" height="24">
  <title>airplane.arrival</title>
  <path transform="matrix(0.6653671215074723, 0, 0, 0.6653671215074723, -0.019493177387913896, 18.807326901481986)" d="M6.97-10.82L27.22-5.38C29.88-4.68 32.37-5.58 32.73-7.52C33.01-9.30 31.18-11.11 28.72-11.58L21.15-13.07C20.70-13.16 20.50-13.30 20.17-13.78L14.05-22.58C13.77-22.98 13.36-23.26 12.93-23.37L12.02-23.59C11.41-23.74 10.92-23.16 11.09-22.50L12.88-14.72L9.76-15.33L6.01-19.71C5.67-20.12 5.24-20.25 4.65-20.13L4.15-20.03C3.60-19.91 3.28-19.45 3.40-18.90L4.62-12.87C4.83-11.87 5.65-11.17 6.97-10.82ZM5.12 3.15L31.01 3.15C32.16 3.15 33.09 2.21 33.09 1.07C33.09-0.08 32.16-1.01 31.01-1.01L5.12-1.01C3.97-1.01 3.04-0.08 3.04 1.07C3.04 2.21 3.97 3.15 5.12 3.15Z" fill="currentColor"/>
</svg>