<svg xmlns="http://www.w3.org/2000/svg" viewBox="0 0 24 24" width="24" height="24">
  
  <path transform="matrix(0.6288381233112258, 0, 0, 0.6288381233112258, 0.2903463522476044, 17.327929255711126)" d="M9.53 1.66L14.23 1.66C16.35 1.66 17.74 0.26 17.74-1.90L17.74-20.81C17.74-22.97 16.35-24.38 14.23-24.38L9.53-24.38C7.39-24.38 6-22.97 6-20.81L6-1.90C6 0.26 7.39 1.66 9.53 1.66ZM10.51-2.27C10.16-2.27 9.94-2.50 9.94-2.84L9.94-19.86C9.94-20.21 10.16-20.44 10.51-20.44L13.23-20.44C13.58-20.44 13.80-20.21 13.80-19.86L13.80-2.84C13.80-2.50 13.58-2.27 13.23-2.27ZM23.10 1.66L27.79 1.66C29.91 1.66 31.31 0.26 31.31-1.90L31.31-13.25C31.31-15.41 29.91-16.83 27.79-16.83L23.10-16.83C20.96-16.83 19.56-15.41 19.56-13.25L19.56-1.90C19.56 0.26 20.96 1.66 23.10 1.66ZM24.08-2.27C23.73-2.27 23.51-2.50 23.51-2.84L23.51-12.30C23.51-12.67 23.73-12.88 24.08-12.88L26.79-12.88C27.15-12.88 27.36-12.67 27.36-12.30L27.36-2.84C27.36-2.50 27.15-2.27 26.79-2.27ZM4.96 7.43L32.30 7.43C33.36 7.43 34.25 6.54 34.25 5.45C34.25 4.38 33.36 3.49 32.30 3.49L4.96 3.49C3.87 3.49 2.99 4.38 2.99 5.45C2.99 6.54 3.87 7.43 4.96 7.43Z" fill="currentColor"/>
</svg>