<svg xmlns="http://www.w3.org/2000/svg" viewBox="0 0 24 24" width="24" height="24">
  <title>amplifier</title>
  <path transform="matrix(0.6926406926406926, 0, 0, 0.6926406926406926, -0.06980519480519476, 18.375811688311686)" d="M2.99-0.90C2.99 1.98 4.64 3.63 7.54 3.63L27.32 3.63C30.21 3.63 31.86 1.98 31.86-0.90L31.86-12.68C31.86-15.56 30.21-17.21 27.32-17.21L25.22-17.21L25.22-18.66C25.22-20.87 23.87-22.04 21.32-22.04L13.54-22.04C10.98-22.04 9.63-20.87 9.63-18.66L9.63-17.21L7.54-17.21C4.64-17.21 2.99-15.56 2.99-12.68ZM13.16-18.59C13.16-18.93 13.39-19.10 13.80-19.10L21.05-19.10C21.47-19.10 21.69-18.93 21.69-18.59L21.69-17.21L13.16-17.21ZM8.85-9.25C7.72-9.25 6.82-10.14 6.82-11.25C6.82-12.38 7.72-13.27 8.85-13.27C9.95-13.27 10.84-12.38 10.84-11.25C10.84-10.14 9.95-9.25 8.85-9.25ZM14.55-9.25C13.45-9.25 12.55-10.14 12.55-11.25C12.55-12.38 13.45-13.27 14.55-13.27C15.67-13.27 16.57-12.38 16.57-11.25C16.57-10.14 15.67-9.25 14.55-9.25ZM20.58-9.25C19.45-9.25 18.56-10.14 18.56-11.25C18.56-12.38 19.45-13.27 20.58-13.27C21.68-13.27 22.58-12.38 22.58-11.25C22.58-10.14 21.68-9.25 20.58-9.25ZM26.55-9.25C25.45-9.25 24.56-10.14 24.56-11.25C24.56-12.38 25.45-13.27 26.55-13.27C27.68-13.27 28.58-12.38 28.58-11.25C28.58-10.14 27.68-9.25 26.55-9.25ZM7.15-0.88L7.15-6.22L27.70-6.22L27.70-0.88C27.70-0.39 27.43-0.12 26.95-0.12L7.91-0.12C7.42-0.12 7.15-0.39 7.15-0.88Z" fill="currentColor"/>
</svg>