<svg xmlns="http://www.w3.org/2000/svg" viewBox="0 0 24 24" width="24" height="24">
  <title>antenna.radiowaves.left.and.right.slash.circle.fill</title>
  <path transform="matrix(0.7810831426392068, 0, 0, 0.7810831426392068, 0.3615560640732265, 18.599542334096114)" d="M14.89 4.35C21.97 4.35 27.70-1.38 27.70-8.45C27.70-15.52 21.97-21.25 14.89-21.25C7.83-21.25 2.10-15.52 2.10-8.45C2.10-1.38 7.83 4.35 14.89 4.35ZM18.84-3.32L9.69-12.45C9.35-12.80 9.35-13.36 9.69-13.71C10.04-14.06 10.63-14.06 10.98-13.71L20.11-4.57C20.46-4.23 20.46-3.67 20.11-3.32C19.76-2.96 19.20-2.98 18.84-3.32ZM22.30-8.75C22.30-7.17 21.87-5.80 21.16-4.88L19.79-6.25C20.18-6.93 20.39-7.79 20.39-8.75C20.39-10.00 20.03-11.12 19.34-11.86C18.95-12.26 18.90-12.79 19.22-13.14C19.62-13.63 20.25-13.62 20.77-13.14C21.71-12.13 22.30-10.46 22.30-8.75ZM7.50-8.75C7.50-10.15 7.90-11.47 8.44-12.34L9.87-10.93C9.55-10.30 9.40-9.55 9.40-8.75C9.40-7.50 9.77-6.39 10.46-5.66C10.85-5.20 10.89-4.72 10.58-4.35C10.18-3.87 9.55-3.88 9.04-4.37C8.06-5.40 7.50-6.96 7.50-8.75ZM19.58-8.75C19.58-8.03 19.44-7.37 19.20-6.84L17.65-8.38C17.67-8.52 17.68-8.64 17.68-8.75C17.68-9.19 17.51-9.76 17.31-10.03C17.02-10.48 17.00-10.93 17.26-11.30C17.60-11.78 18.29-11.77 18.76-11.30C19.28-10.73 19.58-9.80 19.58-8.75ZM10.22-8.75C10.22-9.32 10.31-9.84 10.48-10.32L12.14-8.65C12.13-8.64 12.13-8.61 12.13-8.60C12.14-8.23 12.27-7.82 12.43-7.57C12.74-7.07 12.83-6.59 12.54-6.22C12.20-5.74 11.50-5.75 11.04-6.22C10.54-6.76 10.22-7.70 10.22-8.75ZM13.97-6.82L15.83-4.97L15.83-2.55C15.83-1.92 15.46-1.52 14.89-1.52C14.34-1.52 13.97-1.93 13.97-2.55Z" fill="currentColor"/>
</svg>