<svg xmlns="http://www.w3.org/2000/svg" viewBox="0 0 24 24" width="24" height="24">
  <title>apple.meditate.square.stack</title>
  <path transform="matrix(0.6612424125016143, 0, 0, 0.6612424125016143, 2.639287098024023, 17.58310732274312)" d="M7.63-21.50L20.25-21.50C20.13-22.80 19.25-23.57 17.88-23.57L10.00-23.57C8.63-23.57 7.75-22.80 7.63-21.50ZM5.72-17.38L22.16-17.38C22.03-18.73 21.21-19.59 19.58-19.59L8.30-19.59C6.67-19.59 5.85-18.73 5.72-17.38ZM7.58 6.68L20.77 6.68C23.64 6.68 25.32 4.98 25.32 2.09L25.32-11.07C25.32-13.97 23.64-15.67 20.73-15.67L7.58-15.67C4.69-15.67 2.99-13.97 2.99-11.07L2.99 2.09C2.99 4.98 4.69 6.68 7.58 6.68ZM8.21 2.51C7.50 2.51 7.15 2.21 7.15 1.44L7.15-10.43C7.15-11.21 7.50-11.51 8.21-11.51L20.10-11.51C20.81-11.51 21.16-11.21 21.16-10.43L21.16 1.44C21.16 2.21 20.81 2.51 20.13 2.51ZM13.99-0.67C14.40-0.67 14.72-1.03 14.72-1.43L14.72-3.47C17.93-3.77 19.98-6.01 19.98-9.35C19.98-9.82 19.68-10.11 19.21-10.11C16.73-10.11 14.84-8.86 13.89-6.77C13.01-8.07 11.53-8.84 9.76-8.84C9.34-8.84 9.13-8.55 9.15-8.09C9.29-6.59 10.04-3.84 13.23-3.47L13.23-1.43C13.23-1.03 13.57-0.67 13.99-0.67ZM14.93-5.02C15.38-6.83 16.56-8.09 18.39-8.46C18.12-6.66 16.80-5.36 14.93-5.02ZM13.05-5.05C12-5.29 11.23-5.96 10.85-7.15C11.93-6.87 12.73-6.12 13.05-5.05ZM12.21-0.50C12.61-0.50 12.95-0.84 12.95-1.24C12.95-1.68 12.61-2.00 12.21-2.00C11.78-2.00 11.43-1.68 11.43-1.24C11.43-0.84 11.78-0.50 12.21-0.50ZM15.74-0.50C16.16-0.50 16.50-0.84 16.50-1.24C16.50-1.68 16.16-2.00 15.74-2.00C15.32-2.00 14.96-1.68 14.96-1.24C14.96-0.84 15.32-0.50 15.74-0.50ZM10.49 0.07C10.90 0.07 11.24-0.30 11.24-0.69C11.24-1.10 10.90-1.45 10.49-1.45C10.05-1.45 9.71-1.10 9.71-0.69C9.71-0.30 10.05 0.07 10.49 0.07ZM17.44 0.07C17.85 0.07 18.21-0.30 18.21-0.69C18.21-1.10 17.85-1.45 17.44-1.45C17.00-1.45 16.68-1.10 16.68-0.69C16.68-0.30 17.00 0.07 17.44 0.07ZM8.91 1.01C9.32 1.01 9.67 0.67 9.67 0.26C9.67-0.16 9.32-0.52 8.91-0.52C8.48-0.52 8.14-0.16 8.14 0.26C8.14 0.67 8.48 1.01 8.91 1.01ZM19.02 1.01C19.43 1.01 19.78 0.67 19.78 0.26C19.78-0.16 19.43-0.52 19.02-0.52C18.60-0.52 18.25-0.16 18.25 0.26C18.25 0.67 18.60 1.01 19.02 1.01Z" fill="currentColor"/>
</svg>