<svg xmlns="http://www.w3.org/2000/svg" viewBox="0 0 24 24" width="24" height="24">
  <title>appletvremote.gen1.fill</title>
  <path transform="matrix(0.7029104887424492, 0, 0, 0.7029104887424492, 4.619439868204283, 17.947281713344317)" d="M2.99 1.93C2.99 4.34 4.49 5.77 7.01 5.77L13.99 5.77C16.50 5.77 18.01 4.34 18.01 1.93L18.01-18.84C18.01-21.25 16.50-22.69 13.99-22.69L7.01-22.69C4.49-22.69 2.99-21.25 2.99-18.84ZM10.50-10.09C8.09-10.09 6.08-12.07 6.08-14.51C6.08-16.92 8.09-18.91 10.50-18.91C12.93-18.91 14.93-16.92 14.93-14.51C14.93-12.07 12.93-10.09 10.50-10.09ZM10.50-12.71C11.50-12.71 12.30-13.51 12.30-14.51C12.30-15.50 11.50-16.29 10.50-16.29C9.52-16.29 8.71-15.50 8.71-14.51C8.71-13.51 9.52-12.71 10.50-12.71ZM10.50-4.55C9.53-4.55 8.75-5.32 8.75-6.30C8.75-7.28 9.53-8.05 10.50-8.05C11.48-8.05 12.26-7.28 12.26-6.30C12.26-5.32 11.48-4.55 10.50-4.55Z" fill="currentColor"/>
</svg>