<svg xmlns="http://www.w3.org/2000/svg" viewBox="0 0 24 24" width="24" height="24">
  <title>applepencil.adapter.usb.c.fill</title>
  <path transform="matrix(0.6810321894120777, 0, 0, 0.6810321894120777, 4.254588986432562, 17.786113328012767)" d="M5.96-1.58L16.77-1.58C17.92-1.58 18.95-1.21 19.76-0.57L19.76-19.25C19.76-21.56 18.07-23.18 15.66-23.18L7.09-23.18C4.68-23.18 2.99-21.56 2.99-19.25L2.99-0.57C3.79-1.21 4.82-1.58 5.96-1.58ZM11.37-15.88C10.38-15.88 9.59-16.68 9.59-17.66C9.59-18.63 10.38-19.44 11.37-19.44C12.36-19.44 13.16-18.63 13.16-17.66C13.16-16.68 12.36-15.88 11.37-15.88ZM5.96 6.19L16.77 6.19C18.50 6.19 19.76 4.92 19.76 3.21C19.76 1.48 18.50 0.21 16.77 0.21L5.96 0.21C4.24 0.21 2.99 1.48 2.99 3.21C2.99 4.92 4.24 6.19 5.96 6.19Z" fill="currentColor"/>
</svg>