<svg xmlns="http://www.w3.org/2000/svg" viewBox="0 0 24 24" width="24" height="24">
  
  <path transform="matrix(0.7810831426392068, 0, 0, 0.7810831426392068, 0.3615560640732265, 18.599542334096114)" d="M14.89 4.35C21.97 4.35 27.70-1.38 27.70-8.45C27.70-15.52 21.97-21.25 14.89-21.25C7.83-21.25 2.10-15.52 2.10-8.45C2.10-1.38 7.83 4.35 14.89 4.35ZM10.73-3.38C9.48-3.38 8.74-4.10 8.74-5.38L8.74-11.50C8.74-12.76 9.48-13.49 10.73-13.49L19.09-13.49C20.34-13.49 21.08-12.76 21.08-11.50L21.08-5.38C21.08-4.10 20.34-3.38 19.09-3.38ZM10.96-9.35C10.28-8.95 10.85-7.91 11.60-8.38L13.02-9.27C13.46-9.56 13.45-10.22 13.02-10.49L11.60-11.38C10.86-11.86 10.28-10.80 10.95-10.41L11.81-9.88ZM13.52-8.52C13.52-8.23 13.78-7.96 14.10-7.96L16.02-7.96C16.32-7.96 16.61-8.23 16.61-8.52C16.61-8.85 16.32-9.09 16.02-9.09L14.10-9.09C13.78-9.09 13.52-8.85 13.52-8.52Z" fill="currentColor"/>
</svg>