<svg xmlns="http://www.w3.org/2000/svg" viewBox="0 0 24 24" width="24" height="24">
  <title>apps.ipad.landscape</title>
  <path transform="matrix(0.6788650225404402, 0, 0, 0.6788650225404402, -0.02863961813842497, 17.731901352426412)" d="M7.61 3.18L27.86 3.18C30.75 3.18 32.45 1.46 32.45-1.44L32.45-15.47C32.45-18.38 30.75-20.06 27.86-20.06L7.58-20.06C4.69-20.06 2.99-18.38 2.99-15.47L2.99-1.44C2.99 1.46 4.70 3.18 7.61 3.18ZM8.24-0.98C7.51-0.98 7.16-1.29 7.16-2.06L7.16-14.84C7.16-15.61 7.50-15.90 8.21-15.90L27.22-15.90C27.94-15.90 28.29-15.61 28.29-14.84L28.29-2.06C28.29-1.29 27.94-0.98 27.22-0.98ZM9.14-12.05L10.22-12.05C10.58-12.05 10.84-12.29 10.84-12.61L10.84-13.73C10.84-14.06 10.58-14.32 10.22-14.32L9.14-14.32C8.81-14.32 8.58-14.06 8.58-13.73L8.58-12.61C8.58-12.29 8.81-12.05 9.14-12.05ZM13.16-12.05L14.25-12.05C14.60-12.05 14.86-12.29 14.86-12.61L14.86-13.73C14.86-14.06 14.60-14.32 14.25-14.32L13.16-14.32C12.83-14.32 12.59-14.06 12.59-13.73L12.59-12.61C12.59-12.29 12.82-12.05 13.16-12.05ZM17.18-12.05L18.25-12.05C18.60-12.05 18.86-12.29 18.86-12.61L18.86-13.73C18.86-14.06 18.60-14.32 18.25-14.32L17.18-14.32C16.85-14.32 16.59-14.06 16.59-13.73L16.59-12.61C16.59-12.29 16.83-12.05 17.18-12.05ZM21.16-12.05L22.25-12.05C22.62-12.05 22.86-12.29 22.86-12.61L22.86-13.73C22.86-14.06 22.62-14.32 22.25-14.32L21.16-14.32C20.85-14.32 20.60-14.06 20.60-13.73L20.60-12.61C20.60-12.29 20.85-12.05 21.16-12.05ZM25.18-12.05L26.26-12.05C26.63-12.05 26.88-12.29 26.88-12.61L26.88-13.73C26.88-14.06 26.63-14.32 26.26-14.32L25.18-14.32C24.86-14.32 24.61-14.06 24.61-13.73L24.61-12.61C24.61-12.29 24.86-12.05 25.18-12.05ZM9.14-8.30L10.22-8.30C10.58-8.30 10.84-8.53 10.84-8.85L10.84-9.97C10.84-10.30 10.58-10.56 10.22-10.56L9.14-10.56C8.81-10.56 8.58-10.30 8.58-9.97L8.58-8.85C8.58-8.53 8.81-8.30 9.14-8.30ZM13.16-8.30L14.25-8.30C14.60-8.30 14.86-8.53 14.86-8.85L14.86-9.97C14.86-10.30 14.60-10.56 14.25-10.56L13.16-10.56C12.83-10.56 12.59-10.30 12.59-9.97L12.59-8.85C12.59-8.53 12.82-8.30 13.16-8.30ZM17.18-8.30L18.25-8.30C18.60-8.30 18.86-8.53 18.86-8.85L18.86-9.97C18.86-10.30 18.60-10.56 18.25-10.56L17.18-10.56C16.85-10.56 16.59-10.30 16.59-9.97L16.59-8.85C16.59-8.53 16.83-8.30 17.18-8.30ZM21.16-8.30L22.25-8.30C22.62-8.30 22.86-8.53 22.86-8.85L22.86-9.97C22.86-10.30 22.62-10.56 22.25-10.56L21.16-10.56C20.85-10.56 20.60-10.30 20.60-9.97L20.60-8.85C20.60-8.53 20.85-8.30 21.16-8.30ZM9.14-2.64L10.22-2.64C10.58-2.64 10.84-2.87 10.84-3.19L10.84-4.31C10.84-4.64 10.58-4.90 10.22-4.90L9.14-4.90C8.81-4.90 8.58-4.64 8.58-4.31L8.58-3.19C8.58-2.87 8.81-2.64 9.14-2.64ZM13.16-2.64L14.25-2.64C14.60-2.64 14.86-2.87 14.86-3.19L14.86-4.31C14.86-4.64 14.60-4.90 14.25-4.90L13.16-4.90C12.83-4.90 12.59-4.64 12.59-4.31L12.59-3.19C12.59-2.87 12.82-2.64 13.16-2.64ZM17.18-2.64L18.25-2.64C18.60-2.64 18.86-2.87 18.86-3.19L18.86-4.31C18.86-4.64 18.60-4.90 18.25-4.90L17.18-4.90C16.85-4.90 16.59-4.64 16.59-4.31L16.59-3.19C16.59-2.87 16.83-2.64 17.18-2.64ZM21.16-2.64L22.25-2.64C22.62-2.64 22.86-2.87 22.86-3.19L22.86-4.31C22.86-4.64 22.62-4.90 22.25-4.90L21.16-4.90C20.85-4.90 20.60-4.64 20.60-4.31L20.60-3.19C20.60-2.87 20.85-2.64 21.16-2.64ZM25.18-2.64L26.26-2.64C26.63-2.64 26.88-2.87 26.88-3.19L26.88-4.31C26.88-4.64 26.63-4.90 26.26-4.90L25.18-4.90C24.86-4.90 24.61-4.64 24.61-4.31L24.61-3.19C24.61-2.87 24.86-2.64 25.18-2.64Z" fill="currentColor"/>
</svg>