<svg xmlns="http://www.w3.org/2000/svg" viewBox="0 0 24 24" width="24" height="24">
  <title>apps.iphone.landscape</title>
  <path transform="matrix(0.6810321894120777, 0, 0, 0.6810321894120777, -0.03511572226656012, 17.77015163607342)" d="M7.05 1.39L28.29 1.39C30.73 1.39 32.36-0.18 32.36-2.53L32.36-14.13C32.36-16.65 30.73-18.34 28.30-18.34L7.04-18.34C4.62-18.34 2.99-16.65 2.99-14.13L2.99-2.53C2.99-0.18 4.62 1.39 7.05 1.39ZM8.61-2.77C7.93-2.77 7.50-3.21 7.50-3.87L7.50-13.07C7.50-13.75 7.90-14.18 8.60-14.18L26.74-14.18C27.45-14.18 27.84-13.75 27.84-13.07L27.84-3.87C27.84-3.21 27.41-2.77 26.73-2.77ZM9.18-10.82L10.41-10.82C10.68-10.82 10.85-11.00 10.85-11.27L10.85-12.46C10.85-12.76 10.68-12.95 10.41-12.95L9.18-12.95C8.91-12.95 8.73-12.76 8.73-12.46L8.73-11.27C8.73-11.00 8.91-10.82 9.18-10.82ZM12.61-10.82L13.84-10.82C14.11-10.82 14.30-11.00 14.30-11.27L14.30-12.46C14.30-12.76 14.11-12.95 13.84-12.95L12.61-12.95C12.34-12.95 12.16-12.76 12.16-12.46L12.16-11.27C12.16-11.00 12.34-10.82 12.61-10.82ZM16.04-10.82L17.29-10.82C17.55-10.82 17.73-11.00 17.73-11.27L17.73-12.46C17.73-12.76 17.55-12.95 17.29-12.95L16.04-12.95C15.79-12.95 15.60-12.76 15.60-12.46L15.60-11.27C15.60-11.00 15.79-10.82 16.04-10.82ZM19.49-10.82L20.72-10.82C20.99-10.82 21.16-11.00 21.16-11.27L21.16-12.46C21.16-12.76 20.99-12.95 20.72-12.95L19.49-12.95C19.22-12.95 19.03-12.76 19.03-12.46L19.03-11.27C19.03-11.00 19.22-10.82 19.49-10.82ZM24.94-10.82L26.17-10.82C26.44-10.82 26.61-11.00 26.61-11.27L26.61-12.46C26.61-12.76 26.44-12.95 26.17-12.95L24.94-12.95C24.67-12.95 24.49-12.76 24.49-12.46L24.49-11.27C24.49-11.00 24.67-10.82 24.94-10.82ZM9.18-7.41L10.41-7.41C10.68-7.41 10.85-7.58 10.85-7.85L10.85-9.05C10.85-9.34 10.68-9.54 10.41-9.54L9.18-9.54C8.91-9.54 8.73-9.34 8.73-9.05L8.73-7.85C8.73-7.58 8.91-7.41 9.18-7.41ZM12.61-7.41L13.84-7.41C14.11-7.41 14.30-7.58 14.30-7.85L14.30-9.05C14.30-9.34 14.11-9.54 13.84-9.54L12.61-9.54C12.34-9.54 12.16-9.34 12.16-9.05L12.16-7.85C12.16-7.58 12.34-7.41 12.61-7.41ZM16.04-7.41L17.29-7.41C17.55-7.41 17.73-7.58 17.73-7.85L17.73-9.05C17.73-9.34 17.55-9.54 17.29-9.54L16.04-9.54C15.79-9.54 15.60-9.34 15.60-9.05L15.60-7.85C15.60-7.58 15.79-7.41 16.04-7.41ZM24.94-7.41L26.17-7.41C26.44-7.41 26.61-7.58 26.61-7.85L26.61-9.05C26.61-9.34 26.44-9.54 26.17-9.54L24.94-9.54C24.67-9.54 24.49-9.34 24.49-9.05L24.49-7.85C24.49-7.58 24.67-7.41 24.94-7.41ZM24.94-4.01L26.17-4.01C26.44-4.01 26.61-4.18 26.61-4.45L26.61-5.64C26.61-5.94 26.44-6.13 26.17-6.13L24.94-6.13C24.67-6.13 24.49-5.94 24.49-5.64L24.49-4.45C24.49-4.18 24.67-4.01 24.94-4.01Z" fill="currentColor"/>
</svg>