<svg xmlns="http://www.w3.org/2000/svg" viewBox="0 0 24 24" width="24" height="24">
  
  <path transform="matrix(0.8606488485459741, 0, 0, 0.8606488485459741, -0.571860816944024, 19.286938981341404)" d="M7.58 3.15L21.63 3.15C24.53 3.15 26.23 1.46 26.23-1.44L26.23-15.49C26.23-18.39 24.53-20.09 21.63-20.09L7.58-20.09C4.69-20.09 2.99-18.39 2.99-15.49L2.99-1.44C2.99 1.46 4.69 3.15 7.58 3.15ZM9.63-8.02C8.92-8.02 8.34-8.58 8.34-9.28L8.34-13.02C8.34-14.13 8.96-14.80 10.14-14.80L13.88-14.80C14.57-14.80 15.14-14.23 15.14-13.51C15.14-12.81 14.57-12.25 13.88-12.25L13.52-12.25L12.60-12.48L14.37-10.93C15-10.37 14.94-9.40 14.37-8.80C13.77-8.21 12.77-8.17 12.23-8.80L10.66-10.57L10.90-9.67L10.90-9.28C10.90-8.58 10.32-8.02 9.63-8.02ZM15.55-2.10C14.86-2.10 14.29-2.67 14.29-3.38C14.29-4.09 14.86-4.64 15.55-4.64L15.90-4.64L16.83-4.42L15.06-5.96C14.43-6.52 14.47-7.50 15.06-8.10C15.66-8.68 16.65-8.72 17.19-8.10L18.76-6.33L18.53-7.23L18.53-7.61C18.53-8.32 19.10-8.87 19.79-8.87C20.50-8.87 21.07-8.32 21.07-7.61L21.07-3.88C21.07-2.75 20.46-2.10 19.28-2.10Z" fill="currentColor"/>
</svg>