<svg xmlns="http://www.w3.org/2000/svg" viewBox="0 0 24 24" width="24" height="24">
  
  <path transform="matrix(0.7064017660044151, 0, 0, 0.7064017660044151, -0.11092715231788075, 18.693884193508516)" d="M11.51-21.12L11.51-20.06L7.58-20.06C4.69-20.06 2.99-18.38 2.99-15.47L2.99-1.42C2.99 1.48 4.69 3.18 7.58 3.18L26.71 3.18C29.60 3.18 31.30 1.48 31.30-1.42L31.30-15.47C31.30-18.38 29.60-20.06 26.71-20.06L21.40-20.06C20.25-20.06 19.31-19.14 19.31-17.99C19.31-16.84 20.25-15.90 21.40-15.90L26.07-15.90C26.79-15.90 27.14-15.61 27.14-14.84L27.14-2.06C27.14-1.29 26.79-0.98 26.07-0.98L8.21-0.98C7.50-0.98 7.15-1.29 7.15-2.06L7.15-14.84C7.15-15.61 7.50-15.90 8.21-15.90L11.51-15.90L11.51-14.84C11.51-13.83 12.50-13.61 13.21-14.12L17.24-17.29C17.71-17.65 17.71-18.33 17.24-18.68L13.21-21.86C12.50-22.38 11.51-22.15 11.51-21.12Z" fill="currentColor"/>
</svg>