<svg xmlns="http://www.w3.org/2000/svg" viewBox="0 0 24 24" width="24" height="24">
  
  <path transform="matrix(0.8689748811948405, 0, 0, 0.8689748811948405, -0.5763747454175152, 19.372708757637476)" d="M9.56 3.02L19.39 3.02C21.45 3.02 23.09 2.40 24.20 1.27C25.34 0.15 25.96-1.50 25.96-3.54L25.96-13.42C25.96-15.47 25.34-17.11 24.20-18.23C23.09-19.36 21.45-19.99 19.39-19.99L9.56-19.99C7.51-19.99 5.86-19.36 4.75-18.23C3.61-17.11 2.99-15.47 2.99-13.42L2.99-3.54C2.99-1.50 3.61 0.15 4.75 1.27C5.86 2.40 7.51 3.02 9.56 3.02ZM14.48-1.65C13.93-1.65 13.38-1.84 12.84-2.34L8.64-6.38C8.32-6.70 8.13-7.04 8.13-7.54C8.13-8.47 8.98-9.13 9.80-9.13C10.30-9.13 10.73-8.89 11.05-8.58L12.20-7.34L12.64-6.36L12.50-8.13L12.50-13.35C12.50-14.39 13.37-15.30 14.48-15.30C15.60-15.30 16.45-14.39 16.45-13.35L16.45-8.13L16.32-6.36L16.76-7.34L17.92-8.58C18.25-8.91 18.67-9.13 19.17-9.13C19.99-9.13 20.84-8.47 20.84-7.54C20.84-7.04 20.65-6.70 20.32-6.38L16.11-2.34C15.59-1.84 15.02-1.65 14.48-1.65Z" fill="currentColor"/>
</svg>