<svg xmlns="http://www.w3.org/2000/svg" viewBox="0 0 24 24" width="24" height="24">
  <title>arrow.down.app</title>
  <path transform="matrix(0.8689748811948405, 0, 0, 0.8689748811948405, -0.5763747454175152, 19.372708757637476)" d="M9.56 3.02L19.39 3.02C21.45 3.02 23.09 2.40 24.20 1.27C25.34 0.15 25.96-1.50 25.96-3.54L25.96-13.42C25.96-15.47 25.34-17.11 24.20-18.23C23.09-19.36 21.45-19.99 19.39-19.99L9.56-19.99C7.51-19.99 5.86-19.36 4.75-18.23C3.61-17.11 2.99-15.47 2.99-13.42L2.99-3.54C2.99-1.50 3.61 0.15 4.75 1.27C5.86 2.40 7.51 3.02 9.56 3.02ZM9.94-1.14C8.87-1.14 8.17-1.29 7.73-1.72C7.30-2.14 7.15-2.84 7.15-3.93L7.15-13.04C7.15-14.12 7.30-14.81 7.73-15.25C8.16-15.67 8.87-15.83 9.94-15.83L19.01-15.83C20.09-15.83 20.79-15.67 21.21-15.25C21.64-14.81 21.80-14.12 21.80-13.04L21.80-3.93C21.80-2.84 21.64-2.14 21.21-1.72C20.79-1.29 20.09-1.14 19.01-1.14ZM14.48-2.16C14.99-2.16 15.50-2.32 16.00-2.79L19.90-6.53C20.19-6.83 20.37-7.15 20.37-7.61C20.37-8.47 19.59-9.07 18.83-9.07C18.38-9.07 17.98-8.87 17.67-8.57L16.59-7.42L16.20-6.59L16.31-8.14L16.31-13.00C16.31-13.97 15.52-14.80 14.48-14.80C13.46-14.80 12.66-13.97 12.66-13.00L12.66-8.14L12.77-6.59L12.38-7.42L11.30-8.57C10.99-8.87 10.59-9.07 10.14-9.07C9.38-9.07 8.60-8.47 8.60-7.61C8.60-7.15 8.78-6.83 9.07-6.53L12.98-2.79C13.46-2.32 13.98-2.16 14.48-2.16Z" fill="currentColor"/>
</svg>