<svg xmlns="http://www.w3.org/2000/svg" viewBox="0 0 24 24" width="24" height="24">
  <title>arrow.trianglehead.branch</title>
  <path transform="matrix(0.7391337042651215, 0, 0, 0.7391337042651215, 0.3503197099857367, 18.136871498801824)" d="M7.04-13.55L8.47-15.53C12.12-12.90 13.96-9.64 13.96-4.72L13.96 3.43C13.96 4.42 14.78 5.23 15.76 5.23C16.75 5.23 17.55 4.42 17.55 3.43L17.55-4.72C17.55-9.64 19.39-12.90 23.04-15.53L24.48-13.55C25.17-12.57 26.26-12.95 26.65-14.20L28.45-19.93C28.76-20.92 28.16-21.77 27.12-21.79L21.11-21.83C19.77-21.84 19.14-20.92 19.82-19.97L20.99-18.35C18.74-16.73 16.96-14.85 15.76-12.57C14.55-14.85 12.79-16.73 10.52-18.35L11.71-19.97C12.39-20.92 11.74-21.84 10.41-21.83L4.41-21.79C3.35-21.77 2.77-20.92 3.07-19.93L4.86-14.20C5.26-12.95 6.34-12.57 7.04-13.55Z" fill="currentColor"/>
</svg>