<svg xmlns="http://www.w3.org/2000/svg" viewBox="0 0 24 24" width="24" height="24">
  <title>arrow.up.bin</title>
  <path transform="matrix(0.641121963436013, 0, 0, 0.641121963436013, 0.08414725770097675, 17.41322314049587)" d="M12.05 3.18L25.13 3.18C28.01 3.18 29.25 1.46 29.72-1.39L31.30-11.14C33.06-11.50 34.18-12.91 34.18-14.86L34.18-16.27C34.18-18.52 32.67-20.06 30.40-20.06L6.79-20.06C4.54-20.06 2.99-18.52 2.99-16.27L2.99-14.86C2.99-12.93 4.13-11.51 5.87-11.14L7.45-1.39C7.92 1.46 9.16 3.18 12.05 3.18ZM7.10-14.60C6.79-14.60 6.55-14.84 6.55-15.16L6.55-15.96C6.55-16.29 6.79-16.52 7.10-16.52L30.07-16.52C30.39-16.52 30.62-16.29 30.62-15.96L30.62-15.16C30.62-14.84 30.39-14.60 30.07-14.60ZM12.54-0.97C11.84-0.97 11.61-1.27 11.47-2.03L9.93-11.05L27.25-11.05L25.70-2.03C25.56-1.27 25.34-0.97 24.63-0.97ZM15.53-5.18C15.91-5.18 16.29-5.40 16.51-5.68L16.70-5.91L17.17-6.46L17.00-5.02L17.00-3.12C17.00-2.21 17.72-1.66 18.60-1.66C19.48-1.66 20.19-2.21 20.19-3.12L20.19-5.02L20.03-6.46L20.51-5.91L20.68-5.68C20.87-5.40 21.29-5.18 21.66-5.18C22.43-5.18 23.02-5.73 23.02-6.47C23.02-6.89 22.90-7.18 22.54-7.50L19.92-9.82C19.56-10.16 19.14-10.41 18.60-10.41C18.06-10.41 17.64-10.16 17.27-9.82L14.66-7.50C14.30-7.18 14.18-6.89 14.18-6.47C14.18-5.73 14.75-5.18 15.53-5.18Z" fill="currentColor"/>
</svg>