<svg xmlns="http://www.w3.org/2000/svg" viewBox="0 0 24 24" width="24" height="24">
  
  <path transform="matrix(0.7712004820003012, 0, 0, 0.7712004820003012, -0.1961138725711704, 18.51604157252598)" d="M16.18 3.14C17.07 3.14 17.75 2.80 18.59 2.03L28.00-6.62C28.50-7.09 28.78-7.84 28.78-8.45C28.78-9.11 28.51-9.80 28.01-10.27L18.59-18.91C17.67-19.75 17.03-20.04 16.18-20.04C14.80-20.04 13.72-18.96 13.72-17.58L13.72-14.40L13.65-14.40C6.89-14.40 2.85-10.00 2.85-2.13C2.85 1.23 3.68 2.87 5.30 2.87C6.39 2.87 7.15 2.38 7.80 1.09C8.81-0.69 10.39-2.39 13.65-2.39L13.72-2.39L13.72 0.69C13.72 2.07 14.80 3.14 16.18 3.14ZM17.21-1.93C17.10-1.93 16.99-2.04 16.99-2.18L16.99-5.70C16.99-5.95 16.89-6.06 16.63-6.06L15.42-6.06C10.80-6.06 7.92-5.26 6.40-2.44C6.38-2.37 6.34-2.34 6.30-2.34C6.26-2.34 6.22-2.38 6.22-2.44C6.26-8.18 9.76-10.84 15.42-10.84L16.63-10.84C16.89-10.84 16.99-10.95 16.99-11.20L16.99-14.72C16.99-14.86 17.10-14.94 17.21-14.94C17.27-14.94 17.33-14.93 17.39-14.88L24.02-8.65C24.11-8.57 24.13-8.52 24.13-8.45C24.13-8.39 24.11-8.33 24.02-8.25L17.39-2.03C17.33-1.97 17.27-1.93 17.21-1.93Z" fill="currentColor"/>
</svg>