<svg xmlns="http://www.w3.org/2000/svg" viewBox="0 0 24 24" width="24" height="24">
  <title>arrow.up.left.arrow.down.right.square.fill</title>
  <path transform="matrix(0.8606488485459741, 0, 0, 0.8606488485459741, -0.571860816944024, 19.286938981341404)" d="M7.58 3.15L21.63 3.15C24.53 3.15 26.23 1.46 26.23-1.44L26.23-15.49C26.23-18.39 24.53-20.09 21.63-20.09L7.58-20.09C4.69-20.09 2.99-18.39 2.99-15.49L2.99-1.44C2.99 1.46 4.69 3.15 7.58 3.15ZM12.93-15.09C13.36-15.52 14.03-15.50 14.43-15.11L19.34-10.20L19.58-9.94L19.58-10.10L19.56-11.61C19.56-11.89 19.65-12.13 19.86-12.34C20.30-12.76 20.89-12.76 21.32-12.35C21.52-12.14 21.62-11.85 21.64-11.59L21.70-7.44C21.70-6.81 21.22-6.33 20.60-6.33L16.44-6.41C16.17-6.41 15.90-6.52 15.69-6.70C15.27-7.11 15.28-7.76 15.71-8.18C15.89-8.37 16.14-8.48 16.42-8.48L17.94-8.45L18.11-8.45L17.84-8.71L12.93-13.61C12.53-14.00 12.50-14.66 12.93-15.09ZM16.56-1.79C16.13-1.38 15.47-1.39 15.06-1.79L10.16-6.70L9.90-6.96L9.90-6.80L9.94-5.29C9.94-5.00 9.83-4.77 9.62-4.56C9.20-4.14 8.59-4.14 8.18-4.55C7.97-4.76 7.86-5.05 7.85-5.31L7.79-9.46C7.79-10.09 8.26-10.57 8.88-10.57L13.05-10.49C13.32-10.49 13.59-10.38 13.79-10.20C14.23-9.79 14.21-9.15 13.78-8.72C13.59-8.54 13.35-8.43 13.07-8.43L11.55-8.45L11.38-8.45L11.65-8.19L16.56-3.29C16.96-2.89 16.98-2.24 16.56-1.79Z" fill="currentColor"/>
</svg>