<svg xmlns="http://www.w3.org/2000/svg" viewBox="0 0 24 24" width="24" height="24">
  <title>arrowshape.turn.up.backward.2.circle</title>
  <path transform="matrix(0.7810831426392068, 0, 0, 0.7810831426392068, 0.3615560640732265, 18.608695652173914)" d="M14.89 4.34C21.97 4.34 27.70-1.39 27.70-8.46C27.70-15.53 21.97-21.26 14.89-21.26C7.83-21.26 2.10-15.53 2.10-8.46C2.10-1.39 7.83 4.34 14.89 4.34ZM14.89 0.16C10.13 0.16 6.27-3.69 6.27-8.46C6.27-13.23 10.13-17.09 14.89-17.09C19.66-17.09 23.53-13.23 23.53-8.46C23.53-3.69 19.66 0.16 14.89 0.16ZM12.68-4.03C13.08-4.03 13.41-4.24 13.58-4.51L13.58-4.52L10.35-7.46C9.95-7.83 9.69-8.38 9.69-8.93C9.69-9.48 9.95-10.01 10.35-10.38L13.58-13.34L13.58-13.35C13.41-13.62 13.08-13.82 12.68-13.82C12.35-13.82 12.07-13.70 11.68-13.34L7.70-9.69C7.49-9.52 7.38-9.21 7.38-8.93C7.38-8.67 7.49-8.37 7.71-8.16L11.68-4.51C12.04-4.18 12.30-4.03 12.68-4.03ZM15.95-4.03C16.52-4.03 16.98-4.49 16.98-5.06L16.98-6.36L17.03-6.36C18.40-6.36 19.09-5.66 19.51-4.90C19.78-4.36 20.11-4.15 20.57-4.15C21.25-4.15 21.59-4.84 21.59-6.25C21.59-9.55 19.90-11.41 17.03-11.41L16.98-11.41L16.98-12.79C16.98-13.36 16.52-13.82 15.95-13.82C15.61-13.82 15.33-13.69 14.94-13.34L10.97-9.69C10.75-9.50 10.63-9.21 10.63-8.93C10.63-8.67 10.77-8.34 10.97-8.16L14.94-4.51C15.30-4.17 15.60-4.03 15.95-4.03Z" fill="currentColor"/>
</svg>