<svg xmlns="http://www.w3.org/2000/svg" viewBox="0 0 24 24" width="24" height="24">
  
  <path transform="matrix(1.0362532684085013, 0, 0, 1.0362532684085013, -1.097113865386361, 20.64180501259826)" d="M3.75-17.30C2.87-16.45 2.59-15.11 3.80-13.88L12.91-4.75L14.80-3.04L12.81-3.14L8.20-3.14C6.84-3.14 5.80-2.20 5.80-0.97C5.80 0.29 6.84 1.30 8.19 1.30L19.86 1.30C21.32 1.30 22.29 0.33 22.29-1.11L22.28-12.77C22.28-14.10 21.27-15.16 20.00-15.16C18.76-15.16 17.84-14.13 17.84-12.77L17.84-8.17L17.94-6.18L16.23-8.05L7.10-17.17C5.98-18.26 4.66-18.20 3.75-17.30Z" fill="currentColor"/>
</svg>