<svg xmlns="http://www.w3.org/2000/svg" viewBox="0 0 24 24" width="24" height="24">
  
  <path transform="matrix(0.8606488485459741, 0, 0, 0.8606488485459741, -0.571860816944024, 19.286938981341404)" d="M7.58 3.15L21.63 3.15C24.53 3.15 26.23 1.46 26.23-1.44L26.23-15.49C26.23-18.39 24.53-20.09 21.63-20.09L7.58-20.09C4.69-20.09 2.99-18.39 2.99-15.49L2.99-1.44C2.99 1.46 4.69 3.15 7.58 3.15ZM22.07-8.46C22.07-7.91 21.87-7.48 21.50-7.15L18.56-4.39C18.22-4.07 17.89-3.96 17.55-3.96C16.83-3.96 16.35-4.50 16.35-5.27C16.35-5.70 16.57-6.14 16.92-6.30L17.02-6.40L17.89-6.98L15.94-6.89L13.57-6.89L11.61-6.98L12.50-6.40L12.59-6.30C12.94-6.14 13.16-5.70 13.16-5.27C13.16-4.50 12.69-3.96 11.95-3.96C11.61-3.96 11.29-4.07 10.95-4.39L8.00-7.15C7.64-7.48 7.44-7.91 7.44-8.46C7.44-9.01 7.64-9.45 8.00-9.79L10.95-12.53C11.29-12.86 11.61-12.96 11.95-12.96C12.69-12.96 13.16-12.43 13.16-11.65C13.16-11.23 12.94-10.78 12.59-10.62L12.50-10.52L11.61-9.94L13.57-10.03L15.94-10.03L17.89-9.94L17.02-10.52L16.92-10.62C16.57-10.78 16.35-11.23 16.35-11.65C16.35-12.43 16.83-12.96 17.55-12.96C17.89-12.96 18.22-12.86 18.56-12.53L21.50-9.79C21.87-9.45 22.07-9.01 22.07-8.46Z" fill="currentColor"/>
</svg>