<svg xmlns="http://www.w3.org/2000/svg" viewBox="0 0 24 24" width="24" height="24">
  
  <path transform="matrix(0.7810831426392068, 0, 0, 0.7810831426392068, 0.3615560640732265, 18.608695652173914)" d="M14.89 4.34C21.97 4.34 27.70-1.39 27.70-8.46C27.70-15.53 21.97-21.26 14.89-21.26C7.83-21.26 2.10-15.53 2.10-8.46C2.10-1.39 7.83 4.34 14.89 4.34ZM13.30-1.95C10.23-1.95 8.20-4.01 8.20-7.08L8.20-8.94C8.20-9.84 8.75-10.45 9.57-10.45C10.37-10.45 10.89-9.83 10.89-8.94L10.89-7.08C10.89-5.64 11.85-4.70 13.31-4.70C14.79-4.70 15.77-5.66 15.77-7.10L15.77-10.68L15.82-11.36L15.39-10.75L14.50-9.56C14.29-9.30 13.98-9.16 13.70-9.16C13.03-9.16 12.46-9.77 12.46-10.41C12.46-10.70 12.59-11.04 12.80-11.25L16.23-14.66C16.48-14.89 16.79-15.02 17.10-15.02C17.40-15.02 17.71-14.88 17.94-14.66L21.39-11.25C21.63-11.03 21.74-10.72 21.74-10.43C21.74-9.81 21.15-9.20 20.52-9.20C20.21-9.20 19.92-9.32 19.70-9.56L18.69-10.71L18.25-11.37L18.28-10.68L18.28-7.10C18.28-4.02 16.30-1.95 13.30-1.95Z" fill="currentColor"/>
</svg>