<svg xmlns="http://www.w3.org/2000/svg" viewBox="0 0 24 24" width="24" height="24">
  
  <path transform="matrix(0.6773624630956753, 0, 0, 0.6773624630956753, 1.9140433254109235, 17.731121465098564)" d="M14.89-17.09C18.68-17.09 21.89-14.66 23.05-11.25L22.36-11.25C21.34-11.25 21.11-10.23 21.64-9.54L24.80-5.51C25.16-5.05 25.85-5.05 26.20-5.51L29.37-9.54C29.92-10.23 29.67-11.25 28.64-11.25L27.39-11.25C26.10-16.99 21-21.26 14.89-21.26C12.29-21.26 9.90-20.47 7.91-19.16C6.73-18.40 6.70-17.05 7.32-16.17C7.90-15.38 9.01-14.95 10.32-15.74C11.63-16.59 13.20-17.09 14.89-17.09ZM1.14-5.67L2.40-5.67C3.68 0.06 8.79 4.34 14.89 4.34C17.50 4.34 19.89 3.55 21.87 2.24C23.05 1.46 23.07 0.13 22.45-0.75C21.88-1.55 20.77-1.98 19.45-1.18C18.15-0.34 16.58 0.16 14.89 0.16C11.10 0.16 7.89-2.27 6.73-5.67L7.43-5.67C8.44-5.67 8.67-6.69 8.14-7.38L4.98-11.41C4.62-11.87 3.94-11.87 3.59-11.41L0.41-7.38C-0.14-6.69 0.12-5.67 1.14-5.67Z" fill="currentColor"/>
</svg>