<svg xmlns="http://www.w3.org/2000/svg" viewBox="0 0 24 24" width="24" height="24">
  <title>arrowshape.turn.up.right.fill</title>
  <path transform="matrix(0.7712004820003012, 0, 0, 0.7712004820003012, -0.1961138725711704, 18.51604157252598)" d="M13.72 0.69C13.72 2.07 14.80 3.14 16.18 3.14C17.07 3.14 17.75 2.80 18.59 2.03L28.00-6.62C28.50-7.09 28.78-7.84 28.78-8.45C28.78-9.11 28.51-9.80 28.01-10.27L18.59-18.91C17.67-19.75 17.03-20.04 16.18-20.04C14.80-20.04 13.72-18.96 13.72-17.58L13.72-14.40L13.65-14.40C6.89-14.40 2.85-10.00 2.85-2.13C2.85 1.23 3.68 2.87 5.30 2.87C6.39 2.87 7.09 2.36 7.80 1.09C8.81-0.69 10.39-2.39 13.65-2.39L13.72-2.39Z" fill="currentColor"/>
</svg>