<svg xmlns="http://www.w3.org/2000/svg" viewBox="0 0 24 24" width="24" height="24">
  <title>arrow.left.to.line</title>
  <path transform="matrix(0.7353152376849059, 0, 0, 0.7353152376849059, -0.19732873761309788, 18.217147781128823)" d="M5.21 1.48C6.45 1.48 7.44 0.49 7.44-0.75L7.44-16.16C7.44-17.40 6.45-18.39 5.21-18.39C4.00-18.39 2.99-17.40 2.99-16.16L2.99-0.75C2.99 0.49 4.00 1.48 5.21 1.48ZM19.54-16.17C19.54-17.43 18.62-18.39 17.27-18.39C16.66-18.39 16.08-18.13 15.60-17.65L8.11-10.17C7.71-9.76 7.44-9.08 7.44-8.45C7.44-7.82 7.71-7.14 8.11-6.73L15.60 0.74C16.08 1.22 16.66 1.48 17.27 1.48C18.62 1.48 19.54 0.52 19.54-0.74C19.54-1.48 19.20-2.00 18.75-2.43L16.13-5.02L14.65-6.21L17.13-6.09L27.70-6.09C29.20-6.09 30.19-7.03 30.19-8.45C30.19-9.87 29.20-10.80 27.70-10.80L17.13-10.80L14.65-10.69L16.13-11.88L18.75-14.48C19.20-14.92 19.54-15.43 19.54-16.17Z" fill="currentColor"/>
</svg>