<svg xmlns="http://www.w3.org/2000/svg" viewBox="0 0 24 24" width="24" height="24">
  <title>arrow.trianglehead.2.clockwise.rotate.90.page.on.clipboard</title>
  <path transform="matrix(0.6392009987515606, 0, 0, 0.6392009987515606, 1.700374531835205, 17.40074906367041)" d="M2.99 2.60C2.99 5.51 4.69 7.20 7.58 7.20L18.34 7.20C21.23 7.20 22.93 5.50 22.93 2.60L22.93 0.45L24.64 0.45C27.55 0.45 29.24-1.25 29.24-4.15L29.24-19.50C29.24-22.41 27.55-24.09 24.64-24.09L13.90-24.09C10.99-24.09 9.30-22.41 9.30-19.50L9.30-17.34L7.58-17.34C4.69-17.34 2.99-15.66 2.99-12.75ZM15.90-20.09L15.90-20.40C15.90-20.75 16.22-21.39 16.89-21.39L21.67-21.39C22.34-21.39 22.65-20.75 22.65-20.40L22.65-20.09C22.65-19.57 22.21-19.10 21.67-19.10L16.89-19.10C16.34-19.10 15.90-19.57 15.90-20.09ZM7.15 1.97L7.15-12.12C7.15-12.83 7.44-13.18 8.23-13.18L17.70-13.18C18.47-13.18 18.76-12.83 18.76-12.12L18.76 1.97C18.76 2.68 18.47 3.04 17.70 3.04L8.23 3.04C7.44 3.04 7.15 2.68 7.15 1.97ZM12.96-9.35C12.15-9.35 11.39-9.13 10.76-8.74C10.16-8.39 10.11-7.82 10.36-7.41C10.61-7.02 11.12-6.81 11.68-7.15C12.05-7.38 12.48-7.51 12.96-7.51C13.96-7.51 14.82-6.90 15.20-6.04L14.79-6.04C14.27-6.04 14.07-5.51 14.40-5.09L15.71-3.41C16.00-3.04 16.49-3.04 16.78-3.41L18.07-5.09C18.40-5.51 18.20-6.04 17.68-6.04L17.12-6.04C16.69-7.93 14.99-9.35 12.96-9.35ZM8.23-4.13L8.79-4.13C9.22-2.23 10.92-0.81 12.96-0.81C13.76-0.81 14.52-1.03 15.15-1.41C15.76-1.76 15.80-2.34 15.55-2.75C15.30-3.14 14.79-3.35 14.23-3C13.86-2.78 13.43-2.64 12.96-2.64C11.95-2.64 11.09-3.26 10.71-4.13L11.12-4.13C11.64-4.13 11.84-4.65 11.51-5.07L10.20-6.75C9.91-7.11 9.42-7.13 9.13-6.75L7.84-5.07C7.51-4.65 7.71-4.13 8.23-4.13Z" fill="currentColor"/>
</svg>