<svg xmlns="http://www.w3.org/2000/svg" viewBox="0 0 24 24" width="24" height="24">
  
  <path transform="matrix(0.8606488485459741, 0, 0, 0.8606488485459741, -0.571860816944024, 19.286938981341404)" d="M7.58 3.15L21.63 3.15C24.53 3.15 26.23 1.46 26.23-1.44L26.23-15.49C26.23-18.39 24.53-20.09 21.63-20.09L7.58-20.09C4.69-20.09 2.99-18.39 2.99-15.49L2.99-1.44C2.99 1.46 4.69 3.15 7.58 3.15ZM13.15-1.95C10.09-1.95 8.05-4.01 8.05-7.08L8.05-8.94C8.05-9.84 8.60-10.45 9.42-10.45C10.22-10.45 10.75-9.83 10.75-8.94L10.75-7.08C10.75-5.64 11.71-4.70 13.16-4.70C14.65-4.70 15.63-5.66 15.63-7.10L15.63-10.68L15.67-11.36L15.25-10.75L14.36-9.56C14.14-9.30 13.83-9.16 13.55-9.16C12.88-9.16 12.30-9.77 12.30-10.41C12.30-10.70 12.45-11.04 12.64-11.25L16.08-14.66C16.34-14.89 16.64-15.02 16.95-15.02C17.26-15.02 17.55-14.88 17.80-14.66L21.23-11.25C21.49-11.03 21.60-10.72 21.60-10.43C21.60-9.81 21.01-9.20 20.37-9.20C20.07-9.20 19.77-9.32 19.56-9.56L18.55-10.71L18.09-11.37L18.14-10.68L18.14-7.10C18.14-4.02 16.15-1.95 13.15-1.95Z" fill="currentColor"/>
</svg>