<svg xmlns="http://www.w3.org/2000/svg" viewBox="0 0 24 24" width="24" height="24">
  
  <path transform="matrix(0.8797250859106529, 0, 0, 0.8797250859106529, -0.6288659793814433, 19.438144329896907)" d="M7.79-0.80C7.79-1.38 7.71-2.20 7.71-3.25C7.71-5.32 8.53-6.13 10.59-6.13L16.00-6.13L18.40-6.20L17.03-5.05L14.40-2.46C13.97-2.04 13.63-1.51 13.63-0.77C13.63 0.48 14.53 1.44 15.95 1.44C16.50 1.44 17.09 1.18 17.55 0.70L25.04-6.76C25.45-7.17 25.72-7.85 25.72-8.48C25.72-9.12 25.45-9.81 25.04-10.21L17.55-17.70C17.09-18.16 16.50-18.42 15.95-18.42C14.53-18.42 13.63-17.46 13.63-16.21C13.63-15.47 13.97-14.95 14.40-14.52L17.03-11.92L18.40-10.77L16.00-10.84L10.17-10.84C5.34-10.84 2.99-8.05 2.99-3.21C2.99-2.54 3.02-1.82 3.16-0.87C3.30 0.14 3.97 1.51 5.58 1.51C6.94 1.51 7.79 0.59 7.79-0.80Z" fill="currentColor"/>
</svg>