<svg xmlns="http://www.w3.org/2000/svg" viewBox="0 0 24 24" width="24" height="24">
  
  <path transform="matrix(0.7810831426392068, 0, 0, 0.7810831426392068, 0.3615560640732265, 18.608695652173914)" d="M14.89 4.34C21.97 4.34 27.70-1.39 27.70-8.46C27.70-15.53 21.97-21.26 14.89-21.26C7.83-21.26 2.10-15.53 2.10-8.46C2.10-1.39 7.83 4.34 14.89 4.34ZM14.89 0.16C10.13 0.16 6.27-3.69 6.27-8.46C6.27-13.23 10.13-17.09 14.89-17.09C19.66-17.09 23.53-13.23 23.53-8.46C23.53-3.69 19.66 0.16 14.89 0.16ZM14.89-2.87C17.68-2.87 19.96-5.16 19.96-7.96C19.96-10.24 18.41-12.59 15.61-12.87L15.68-12.97C15.89-13.23 16.03-13.41 16.03-13.77C16.03-14.26 15.64-14.79 14.91-14.79C14.54-14.79 14.24-14.60 14.04-14.37L12.26-12.45C12.06-12.21 11.94-11.94 11.94-11.65C11.94-11.36 12.06-11.07 12.26-10.84L14.04-8.92C14.24-8.68 14.54-8.50 14.91-8.50C15.64-8.50 16.03-9.02 16.03-9.52C16.03-9.88 15.89-10.07 15.68-10.32L15.66-10.35C16.80-10.11 17.52-9.22 17.52-7.95C17.52-6.50 16.36-5.33 14.89-5.33C13.45-5.33 12.28-6.48 12.28-7.95C12.28-8.63 11.74-9.16 11.05-9.16C10.38-9.16 9.83-8.63 9.83-7.95C9.83-5.16 12.12-2.87 14.89-2.87Z" fill="currentColor"/>
</svg>