<svg xmlns="http://www.w3.org/2000/svg" viewBox="0 0 24 24" width="24" height="24">
  <title>arrow.forward.circle.fill</title>
  <path transform="matrix(0.7810831426392068, 0, 0, 0.7810831426392068, 0.3615560640732265, 18.608695652173914)" d="M14.89 4.34C21.97 4.34 27.70-1.39 27.70-8.46C27.70-15.53 21.97-21.26 14.89-21.26C7.83-21.26 2.10-15.53 2.10-8.46C2.10-1.39 7.83 4.34 14.89 4.34ZM21.11-8.46C21.11-7.96 20.93-7.44 20.47-6.95L16.71-3.04C16.41-2.74 16.10-2.57 15.63-2.57C14.77-2.57 14.17-3.34 14.17-4.10C14.17-4.57 14.37-4.96 14.67-5.26L15.82-6.35L16.84-6.80L15.09-6.63L10.22-6.63C9.26-6.63 8.41-7.44 8.41-8.46C8.41-9.50 9.26-10.30 10.22-10.30L15.09-10.30L16.84-10.13L15.82-10.57L14.67-11.66C14.37-11.96 14.17-12.36 14.17-12.82C14.17-13.58 14.77-14.37 15.63-14.37C16.10-14.37 16.41-14.19 16.71-13.90L20.47-9.97C20.93-9.48 21.11-8.96 21.11-8.46Z" fill="currentColor"/>
</svg>