<svg xmlns="http://www.w3.org/2000/svg" viewBox="0 0 24 24" width="24" height="24">
  <title>australsign</title>
  <path transform="matrix(0.9310783778868885, 0, 0, 0.9310783778868885, -0.5204582651391161, 19.883251500272777)" d="M2.99-3.26C2.99-2.92 3.27-2.64 3.61-2.64L4.84-2.64L4.49-1.44C4.36-1.00 4.30-0.68 4.30-0.21C4.30 1.49 5.48 2.27 7.05 2.27C8.53 2.27 9.33 1.57 9.69 0.18L10.42-2.64L16.49-2.64L17.23 0.18C17.58 1.57 18.46 2.27 19.92 2.27C21.53 2.27 22.62 1.44 22.62-0.21C22.62-0.67 22.55-1.02 22.43-1.44L22.08-2.64L23.29-2.64C23.63-2.64 23.91-2.92 23.91-3.26C23.91-3.60 23.63-3.88 23.29-3.88L21.70-3.88L20.98-6.33L23.29-6.33C23.63-6.33 23.91-6.61 23.91-6.95C23.91-7.30 23.63-7.58 23.29-7.58L20.60-7.58L18.21-15.64C17.48-18.09 16.03-19.21 13.46-19.21C10.95-19.21 9.42-18.11 8.71-15.64L6.30-7.58L3.61-7.58C3.27-7.58 2.99-7.30 2.99-6.95C2.99-6.61 3.27-6.33 3.61-6.33L5.94-6.33L5.20-3.88L3.61-3.88C3.27-3.88 2.99-3.60 2.99-3.26ZM13.37-13.97L13.55-13.97L15.20-7.58L11.71-7.58ZM10.75-3.88L11.38-6.33L15.53-6.33L16.17-3.88Z" fill="currentColor"/>
</svg>