<svg xmlns="http://www.w3.org/2000/svg" viewBox="0 0 24 24" width="24" height="24">
  
  <path transform="matrix(0.7810831426392068, 0, 0, 0.7810831426392068, 0.3615560640732265, 18.608695652173914)" d="M14.89 4.34C21.97 4.34 27.70-1.39 27.70-8.46C27.70-15.53 21.97-21.26 14.89-21.26C7.83-21.26 2.10-15.53 2.10-8.46C2.10-1.39 7.83 4.34 14.89 4.34ZM14.89 0.16C10.13 0.16 6.27-3.69 6.27-8.46C6.27-13.23 10.13-17.09 14.89-17.09C19.66-17.09 23.53-13.23 23.53-8.46C23.53-3.69 19.66 0.16 14.89 0.16ZM9.96-6.02C9.96-5.87 10.09-5.73 10.25-5.73L10.83-5.73L10.66-5.18C10.61-4.98 10.57-4.82 10.57-4.61C10.57-3.81 11.10-3.42 11.88-3.42C12.55-3.42 12.95-3.75 13.13-4.42L13.48-5.73L16.34-5.73L16.68-4.42C16.85-3.75 17.26-3.42 17.96-3.42C18.73-3.42 19.23-3.83 19.23-4.61C19.23-4.82 19.21-4.98 19.15-5.18L18.98-5.73L19.56-5.73C19.71-5.73 19.85-5.87 19.85-6.02C19.85-6.18 19.71-6.32 19.56-6.32L18.81-6.32L18.46-7.49L19.56-7.49C19.71-7.49 19.85-7.63 19.85-7.78C19.85-7.93 19.71-8.07 19.56-8.07L18.28-8.07L17.16-11.88C16.80-13.05 16.11-13.57 14.91-13.57C13.71-13.57 13.00-13.03 12.66-11.88L11.52-8.07L10.25-8.07C10.09-8.07 9.96-7.93 9.96-7.78C9.96-7.63 10.09-7.49 10.25-7.49L11.34-7.49L11.00-6.32L10.25-6.32C10.09-6.32 9.96-6.18 9.96-6.02ZM14.87-11.10L14.94-11.10L15.73-8.07L14.09-8.07ZM13.63-6.32L13.93-7.49L15.88-7.49L16.18-6.32Z" fill="currentColor"/>
</svg>