<svg xmlns="http://www.w3.org/2000/svg" viewBox="0 0 24 24" width="24" height="24">
  
  <path transform="matrix(0.8606488485459741, 0, 0, 0.8606488485459741, -0.571860816944024, 19.286938981341404)" d="M7.58 3.15L21.63 3.15C24.53 3.15 26.23 1.46 26.23-1.44L26.23-15.49C26.23-18.39 24.53-20.09 21.63-20.09L7.58-20.09C4.69-20.09 2.99-18.39 2.99-15.49L2.99-1.44C2.99 1.46 4.69 3.15 7.58 3.15ZM8.21-1.01C7.50-1.01 7.15-1.30 7.15-2.07L7.15-14.85C7.15-15.62 7.50-15.91 8.21-15.91L21-15.91C21.71-15.91 22.07-15.62 22.07-14.85L22.07-2.07C22.07-1.30 21.71-1.01 21-1.01ZM17.98-3.70C18.09-3.70 18.18-3.80 18.18-3.90L18.18-4.68C19.58-4.76 20.80-5.47 20.80-6.93C20.80-8.10 20.10-8.64 18.90-9.08L18.18-9.35L18.18-10.66C18.46-10.61 18.63-10.43 18.76-10.17C18.96-9.77 19.23-9.59 19.65-9.59C20.18-9.59 20.57-9.90 20.57-10.37C20.57-10.61 20.53-10.71 20.47-10.86C20.12-11.74 19.23-12.13 18.18-12.18L18.18-12.95C18.18-13.07 18.09-13.15 17.98-13.15C17.87-13.15 17.79-13.07 17.79-12.95L17.79-12.18C16.37-12.12 15.20-11.34 15.20-9.94C15.20-8.79 15.90-8.18 17.04-7.76L17.79-7.49L17.79-6.20C17.43-6.23 17.20-6.38 17.07-6.70C16.92-7.11 16.61-7.30 16.13-7.30C15.64-7.30 15.28-7.00 15.28-6.53C15.28-6.33 15.32-6.15 15.38-6C15.68-5.11 16.73-4.70 17.79-4.68L17.79-3.90C17.79-3.80 17.87-3.70 17.98-3.70ZM9.46-4.43C10.13-4.43 10.41-4.82 10.55-5.47L10.65-5.96L12.53-5.96L12.66-5.43C12.79-4.79 13.09-4.43 13.78-4.43C14.39-4.43 14.79-4.83 14.79-5.47C14.79-5.79 14.77-5.94 14.68-6.20L13.31-11.13C13.07-12 12.49-12.42 11.57-12.42C10.68-12.42 10.11-12 9.88-11.13L8.53-6.20C8.47-5.99 8.41-5.74 8.41-5.47C8.41-4.83 8.81-4.43 9.46-4.43ZM17.18-10.13C17.18-10.43 17.46-10.62 17.79-10.68L17.79-9.50C17.39-9.67 17.18-9.84 17.18-10.13ZM10.96-7.50L11.50-10.21L11.60-10.21L12.20-7.50ZM18.18-7.34C18.60-7.18 18.83-7.04 18.83-6.70C18.83-6.35 18.52-6.22 18.18-6.19L18.18-7.34Z" fill="currentColor"/>
</svg>