<svg xmlns="http://www.w3.org/2000/svg" viewBox="0 0 24 24" width="24" height="24">
  <title>australsign.gauge.chart.leftthird.topthird.rightthird</title>
  <path transform="matrix(0.6589446589446589, 0, 0, 0.6589446589446589, 0.6177606177606179, 17.59116612703278)" d="M17.27-15.21C19.35-15.21 21.26-14.53 22.80-13.37C23.16-13.11 23.60-13.14 23.92-13.46L26.88-16.44C27.28-16.83 27.27-17.41 26.84-17.75C24.22-19.88 20.89-21.15 17.27-21.15C13.65-21.15 10.32-19.88 7.72-17.75C7.29-17.41 7.27-16.83 7.66-16.44L10.63-13.46C10.95-13.14 11.41-13.11 11.78-13.38C13.31-14.53 15.22-15.21 17.27-15.21ZM32.45-5.98C32.45-9.61 31.17-12.96 29.02-15.59C28.70-15.97 28.14-15.97 27.74-15.59L24.76-12.62C24.42-12.28 24.42-11.84 24.69-11.47C25.83-9.93 26.51-8.03 26.51-5.98C26.51-3.82 25.78-1.83 24.52-0.25C24.23 0.13 24.23 0.59 24.56 0.91L27.54 3.89C27.91 4.27 28.48 4.27 28.84 3.86C31.09 1.21 32.45-2.21 32.45-5.98ZM2.10-5.98C2.10-2.20 3.48 1.25 5.75 3.90C6.08 4.29 6.63 4.27 7.02 3.89L9.98 0.91C10.31 0.59 10.32 0.13 10.03-0.25C8.78-1.83 8.04-3.82 8.04-5.98C8.04-8.03 8.72-9.93 9.86-11.47C10.13-11.84 10.13-12.28 9.79-12.62L6.81-15.59C6.42-15.97 5.84-15.96 5.48-15.53C3.36-12.93 2.10-9.60 2.10-5.98ZM12.33-3.71C12.33-3.55 12.47-3.41 12.63-3.41L13.21-3.41L13.04-2.87C12.98-2.66 12.95-2.51 12.95-2.29C12.95-1.50 13.48-1.11 14.26-1.11C14.93-1.11 15.33-1.44 15.50-2.10L15.84-3.41L18.71-3.41L19.05-2.10C19.23-1.44 19.64-1.11 20.34-1.11C21.11-1.11 21.61-1.52 21.61-2.29C21.61-2.51 21.57-2.67 21.52-2.87L21.36-3.41L21.94-3.41C22.09-3.41 22.23-3.55 22.23-3.71C22.23-3.87 22.09-4.01 21.94-4.01L21.19-4.01L20.84-5.17L21.94-5.17C22.09-5.17 22.23-5.31 22.23-5.47C22.23-5.63 22.09-5.77 21.94-5.77L20.66-5.77L19.52-9.57C19.18-10.73 18.49-11.25 17.29-11.25C16.09-11.25 15.38-10.72 15.04-9.57L13.90-5.77L12.63-5.77C12.47-5.77 12.33-5.63 12.33-5.47C12.33-5.31 12.47-5.17 12.63-5.17L13.72-5.17L13.38-4.01L12.63-4.01C12.47-4.01 12.33-3.87 12.33-3.71ZM17.25-8.78L17.32-8.78L18.11-5.77L16.46-5.77ZM16.01-4.01L16.30-5.17L18.26-5.17L18.56-4.01Z" fill="currentColor"/>
</svg>