<svg xmlns="http://www.w3.org/2000/svg" viewBox="0 0 24 24" width="24" height="24">
  
  <path transform="matrix(0.6789545615459254, 0, 0, 0.6789545615459254, 0.7903786686198053, 17.79896865043459)" d="M4.55-13.49L6.25-12.86C7.55-12.38 8.81-13.03 9.28-14.34L9.96-16.17L14.54-16.17L14.54-3.46C15.07-3.42 15.60-3.21 15.97-2.81L16.48-2.30L16.98-2.81C17.38-3.22 17.92-3.43 18.43-3.47L18.43-16.17L21.77-16.17C21.54-15 22.13-13.91 23.29-13.49L24.97-12.86C26.27-12.38 27.55-13.03 28.02-14.34L29.87-19.42C30.34-20.72 29.78-22.02 28.49-22.49L26.79-23.11C25.49-23.59 24.21-22.96 23.74-21.64L23.14-20.00L11.29-20.00C11.41-21.09 10.84-22.09 9.75-22.49L8.05-23.11C6.75-23.59 5.48-22.96 5.02-21.64L3.15-16.57C2.67-15.26 3.26-13.96 4.55-13.49ZM6.25 6.19L8.33 6.19C9.70 6.19 10.69 5.14 10.69 3.75L10.69 2.99L11.98 2.99C12.01 2.46 12.22 1.95 12.62 1.56L13.15 1.03L12.63 0.53C12.23 0.15 12.02-0.38 11.98-0.90L10.69-0.90L10.69-1.64C10.69-3.04 9.70-4.07 8.33-4.07L6.25-4.07C4.86-4.07 3.89-3.04 3.89-1.64L3.89 3.75C3.89 5.14 4.86 6.19 6.25 6.19ZM24.70 6.19L26.79 6.19C28.16 6.19 29.14 5.14 29.14 3.75L29.14-1.64C29.14-3.04 28.16-4.07 26.79-4.07L24.70-4.07C23.33-4.07 22.35-3.04 22.35-1.64L22.35-0.90L21-0.90C20.96-0.39 20.74 0.15 20.34 0.54L19.82 1.04L20.36 1.57C20.75 1.96 20.96 2.46 21 2.99L22.35 2.99L22.35 3.75C22.35 5.14 23.33 6.19 24.70 6.19ZM13.48 4.05C13.91 4.50 14.68 4.50 15.12 4.05L16.49 2.68L17.86 4.05C18.30 4.50 19.04 4.48 19.48 4.03C19.91 3.59 19.93 2.86 19.50 2.41L18.13 1.04L19.49-0.32C19.95-0.76 19.93-1.49 19.49-1.95C19.03-2.39 18.29-2.41 17.84-1.96L16.48-0.61L15.12-1.98C14.70-2.41 13.92-2.38 13.48-1.96C13.03-1.55 13.03-0.75 13.46-0.32L14.84 1.03L13.46 2.40C13.03 2.85 13.03 3.60 13.48 4.05Z" fill="currentColor"/>
</svg>