<svg xmlns="http://www.w3.org/2000/svg" viewBox="0 0 24 24" width="24" height="24">
  
  <path transform="matrix(0.6789545615459254, 0, 0, 0.6789545615459254, 0.7903786686198053, 17.79896865043459)" d="M4.55-13.49L6.25-12.86C7.55-12.38 8.81-13.03 9.28-14.34L9.96-16.17L14.54-16.17L14.54-13.02C15.07-12.98 15.60-12.76 15.97-12.38L16.48-11.86L16.98-12.38C17.39-12.76 17.91-13.00 18.43-13.03L18.43-16.17L21.77-16.17C21.54-15 22.13-13.91 23.29-13.49L24.97-12.86C26.27-12.38 27.55-13.03 28.02-14.34L29.87-19.42C30.34-20.72 29.78-22.02 28.49-22.49L26.79-23.11C25.49-23.59 24.21-22.96 23.74-21.64L23.14-20.00L11.29-20.00C11.41-21.09 10.84-22.09 9.75-22.49L8.05-23.11C6.75-23.59 5.48-22.96 5.02-21.64L3.15-16.57C2.67-15.26 3.26-13.96 4.55-13.49ZM13.48-5.51C13.91-5.05 14.68-5.06 15.12-5.50L16.49-6.87L17.86-5.50C18.30-5.06 19.04-5.07 19.48-5.53C19.91-5.98 19.93-6.70 19.50-7.14L18.13-8.51L19.49-9.87C19.95-10.32 19.93-11.05 19.49-11.51C19.03-11.95 18.29-11.98 17.84-11.52L16.48-10.16L15.12-11.53C14.70-11.98 13.92-11.94 13.48-11.52C13.03-11.10 13.03-10.30 13.46-9.88L14.84-8.52L13.46-7.15C13.03-6.71 13.03-5.95 13.48-5.51ZM6.25 6.19L8.33 6.19C9.70 6.19 10.69 5.14 10.69 3.75L10.69 2.99L22.35 2.99L22.35 3.75C22.35 5.14 23.33 6.19 24.70 6.19L26.79 6.19C28.16 6.19 29.14 5.14 29.14 3.75L29.14-1.64C29.14-3.04 28.16-4.07 26.79-4.07L24.70-4.07C23.33-4.07 22.35-3.04 22.35-1.64L22.35-0.90L18.43-0.90L18.43-4.01C17.91-4.05 17.40-4.25 17.02-4.65L16.49-5.18L15.97-4.65C15.57-4.25 15.06-4.04 14.54-4.00L14.54-0.90L10.69-0.90L10.69-1.64C10.69-3.04 9.70-4.07 8.33-4.07L6.25-4.07C4.86-4.07 3.89-3.04 3.89-1.64L3.89 3.75C3.89 5.14 4.86 6.19 6.25 6.19Z" fill="currentColor"/>
</svg>