<svg xmlns="http://www.w3.org/2000/svg" viewBox="0 0 24 24" width="24" height="24">
  <title>backward.fill</title>
  <path transform="matrix(0.5193751268005681, 0, 0, 0.5193751268005681, 1.841752891052952, 16.394400486914183)" d="M19.62-0.43L19.62-7.71C19.86-6.94 20.51-6.38 21.35-5.88L34.58 1.82C35.14 2.14 35.74 2.31 36.30 2.31C37.66 2.31 38.81 1.35 38.81-0.43L38.81-16.49C38.81-18.28 37.66-19.23 36.30-19.23C35.74-19.23 35.14-19.07 34.58-18.74L21.35-11.04C20.51-10.55 19.86-9.98 19.62-9.21L19.62-16.49C19.62-18.28 18.47-19.23 17.11-19.23C16.55-19.23 15.95-19.07 15.39-18.74L2.16-11.04C1.05-10.41 0.30-9.64 0.30-8.46C0.30-7.29 1.05-6.52 2.16-5.88L15.39 1.82C15.95 2.14 16.55 2.31 17.11 2.31C18.47 2.31 19.62 1.35 19.62-0.43Z" fill="currentColor"/>
</svg>