<svg xmlns="http://www.w3.org/2000/svg" viewBox="0 0 24 24" width="24" height="24">
  
  <path transform="matrix(0.7810831426392068, 0, 0, 0.7810831426392068, 0.3615560640732265, 18.608695652173914)" d="M14.89 4.34C21.97 4.34 27.70-1.39 27.70-8.46C27.70-15.53 21.97-21.26 14.89-21.26C7.83-21.26 2.10-15.53 2.10-8.46C2.10-1.39 7.83 4.34 14.89 4.34ZM14.89 0.16C10.13 0.16 6.27-3.69 6.27-8.46C6.27-13.23 10.13-17.09 14.89-17.09C19.66-17.09 23.53-13.23 23.53-8.46C23.53-3.69 19.66 0.16 14.89 0.16ZM13.39-2.24L16.41-2.24C18.33-2.24 19.34-3.27 19.32-5.20C19.30-7.20 19.30-8.65 19.24-9.74C19.13-12.35 18.47-13.59 16.73-14.03C16.62-15 15.93-15.61 14.89-15.61C13.86-15.61 13.18-15 13.07-14.03C11.32-13.59 10.66-12.35 10.56-9.74C10.51-8.65 10.49-7.20 10.48-5.20C10.46-3.27 11.46-2.24 13.39-2.24ZM14.89-14.20C14.68-14.20 14.47-14.20 14.27-14.19C14.39-14.43 14.61-14.55 14.89-14.55C15.19-14.55 15.41-14.43 15.54-14.19C15.33-14.20 15.12-14.20 14.89-14.20ZM12.40-7.76C12.40-8.29 12.79-8.66 13.32-8.66L16.48-8.66C17.03-8.66 17.39-8.30 17.39-7.76L17.39-7.15L12.40-7.15ZM12.40-6.18L17.39-6.18L17.39-5.31C17.39-4.77 17.03-4.39 16.48-4.39L13.32-4.39C12.79-4.39 12.40-4.77 12.40-5.31Z" fill="currentColor"/>
</svg>