<svg xmlns="http://www.w3.org/2000/svg" viewBox="0 0 24 24" width="24" height="24">
  <title>baseball.diamond.bases</title>
  <path transform="matrix(0.5102522606734988, 0, 0, 0.5102522606734988, 0.4744777447480186, 16.317871427631918)" d="M15.60-11.10L21.01-7.32C21.96-6.67 23.24-6.68 24.23-7.37L29.58-11.10C30.89-12.02 30.93-13.71 29.58-14.65L24.16-18.42C23.21-19.08 21.96-19.08 21.01-18.42L15.60-14.65C14.25-13.71 14.26-12.02 15.60-11.10ZM4.00-2.26L9.41 1.51C10.36 2.17 11.64 2.14 12.63 1.46L17.96-2.26C19.29-3.19 19.31-4.88 17.96-5.81L12.55-9.59C11.60-10.24 10.36-10.24 9.41-9.59L4.00-5.81C2.65-4.88 2.66-3.19 4.00-2.26ZM27.20-2.26L32.54 1.46C33.54 2.14 34.82 2.17 35.77 1.51L41.18-2.26C42.52-3.19 42.53-4.88 41.18-5.81L35.77-9.59C34.82-10.24 33.56-10.24 32.61-9.59L27.20-5.81C25.85-4.88 25.89-3.19 27.20-2.26Z" fill="currentColor"/>
</svg>