<svg xmlns="http://www.w3.org/2000/svg" viewBox="0 0 24 24" width="24" height="24">
  <title>basket</title>
  <path transform="matrix(0.6810321894120777, 0, 0, 0.6810321894120777, -0.03511572226656012, 17.73517672322066)" d="M2.99-8.85C2.99-7.51 3.79-6.56 5.04-6.36L6.67 1.39C7.07 3.30 8.04 5.44 11.50 5.44L23.85 5.44C27.29 5.44 28.28 3.30 28.68 1.39L30.30-6.36C31.55-6.56 32.36-7.51 32.36-8.85L32.36-11.54C32.36-13.05 31.32-14.10 29.80-14.10L27.90-14.10L23.52-21.45C23.03-22.30 22.05-22.46 21.26-22.08C20.40-21.62 20.06-20.66 20.58-19.77L23.84-14.10L11.51-14.10L14.77-19.77C15.28-20.66 14.94-21.62 14.10-22.05C13.32-22.48 12.33-22.32 11.82-21.45L7.44-14.10L5.53-14.10C3.98-14.10 2.99-13.05 2.99-11.54ZM6.46-10.78L28.89-10.78C28.99-10.78 29.06-10.72 29.06-10.62L29.06-9.80C29.06-9.69 28.99-9.62 28.89-9.62L6.46-9.62C6.35-9.62 6.28-9.69 6.28-9.80L6.28-10.62C6.28-10.72 6.35-10.78 6.46-10.78ZM11.92 2.12C10.35 2.12 10.10 1.80 9.79 0.29L8.40-6.33L26.94-6.33L25.56 0.29C25.24 1.80 25.00 2.12 23.43 2.12ZM19.35 1.32C19.95 1.36 20.41 0.97 20.45 0.40L20.77-4.75C20.79-5.33 20.38-5.77 19.78-5.79C19.16-5.85 18.70-5.44 18.68-4.86L18.36 0.30C18.33 0.87 18.75 1.30 19.35 1.32ZM16.01 1.32C16.62 1.30 17.03 0.87 16.99 0.30L16.68-4.86C16.65-5.44 16.20-5.85 15.57-5.79C14.98-5.77 14.57-5.33 14.59-4.75L14.91 0.40C14.94 0.97 15.41 1.36 16.01 1.32ZM22.70 1.43C23.29 1.52 23.79 1.20 23.89 0.63L24.82-4.63C24.91-5.19 24.54-5.65 23.92-5.77C23.33-5.85 22.83-5.53 22.73-4.97L21.82 0.30C21.71 0.86 22.08 1.31 22.70 1.43ZM12.64 1.43C13.27 1.31 13.63 0.86 13.52 0.30L12.61-4.97C12.50-5.53 12.01-5.85 11.43-5.77C10.80-5.65 10.42-5.19 10.52-4.63L11.45 0.63C11.55 1.20 12.02 1.52 12.64 1.43Z" fill="currentColor"/>
</svg>