<svg xmlns="http://www.w3.org/2000/svg" viewBox="0 0 24 24" width="24" height="24">
  
  <path transform="matrix(0.5761872608597794, 0, 0, 0.5761872608597794, 0.2781904118838623, 16.971864744594864)" d="M9.53 1.84C10.54 2.21 11.67 1.69 12.04 0.69L12.74-1.25C12.93-1.24 13.13-1.24 13.34-1.24L27.34-1.24C27.54-1.24 27.74-1.24 27.94-1.25L28.64 0.69C29.00 1.69 30.14 2.21 31.15 1.84C32.13 1.50 32.67 0.35 32.31-0.66L31.77-2.13C34.13-3.30 35.38-5.60 35.38-8.91L35.38-12.32C36.74-12.80 37.70-14.07 37.70-15.66C37.70-17.67 36.13-19.22 34.15-19.22L6.53-19.22C4.54-19.22 2.99-17.67 2.99-15.66C2.99-14.07 3.94-12.79 5.31-12.30L5.31-8.91C5.31-5.60 6.55-3.30 8.91-2.13L8.38-0.67C8.00 0.35 8.52 1.48 9.53 1.84ZM6.49-15.66C6.49-15.91 6.69-16.11 6.95-16.11L33.71-16.11C33.97-16.11 34.17-15.91 34.17-15.66C34.17-15.40 33.97-15.20 33.71-15.20L6.95-15.20C6.69-15.20 6.49-15.40 6.49-15.66ZM13.34-5.12C10.41-5.12 9.20-6.23 9.20-8.91L9.20-12.11L31.49-12.11L31.49-8.91C31.49-6.23 30.27-5.12 27.34-5.12Z" fill="currentColor"/>
</svg>