<svg xmlns="http://www.w3.org/2000/svg" viewBox="0 0 24 24" width="24" height="24">
  
  <path transform="matrix(0.5308449974079834, 0, 0, 0.5308449974079834, 0.4136858475894245, 16.49144634525661)" d="M10.24 0.94L28.44 0.94C31.16 0.94 32.78 0.50 34.02-0.74C35.27-1.99 35.70-3.56 35.70-6.32L35.70-10.61C35.70-13.36 35.27-14.95 34.02-16.18C32.77-17.43 31.16-17.86 28.44-17.86L10.24-17.86C7.52-17.86 5.91-17.43 4.65-16.18C3.41-14.94 2.99-13.36 2.99-10.61L2.99-6.32C2.99-3.56 3.41-1.97 4.65-0.74C5.92 0.50 7.52 0.94 10.24 0.94ZM9.91-3.22C8.66-3.22 8.11-3.41 7.71-3.80C7.31-4.18 7.15-4.72 7.15-5.99L7.15-10.95C7.15-12.21 7.32-12.73 7.71-13.13C8.10-13.52 8.66-13.70 9.91-13.70L28.77-13.70C30.02-13.70 30.56-13.51 30.97-13.13C31.37-12.74 31.54-12.21 31.54-10.95L31.54-5.99C31.54-4.72 31.36-4.20 30.97-3.80C30.59-3.40 30.02-3.22 28.77-3.22ZM37.90-4.61C39.07-4.68 40.66-6.20 40.66-8.46C40.66-10.73 39.07-12.25 37.90-12.32ZM10.18-5.19L13.17-5.19C13.55-5.19 13.79-5.26 13.98-5.45C14.17-5.64 14.23-5.88 14.23-6.26L14.23-10.66C14.23-11.05 14.17-11.30 13.98-11.48C13.79-11.67 13.55-11.73 13.17-11.73L10.18-11.73C9.81-11.73 9.56-11.67 9.38-11.48C9.19-11.30 9.13-11.05 9.13-10.66L9.13-6.26C9.13-5.88 9.19-5.64 9.38-5.45C9.56-5.26 9.81-5.19 10.18-5.19Z" fill="currentColor"/>
</svg>