<svg xmlns="http://www.w3.org/2000/svg" viewBox="0 0 24 24" width="24" height="24">
  <title>battery.100percent.circle.fill</title>
  <path transform="matrix(0.7810831426392068, 0, 0, 0.7810831426392068, 0.3615560640732265, 18.608695652173914)" d="M14.89 4.34C21.97 4.34 27.70-1.39 27.70-8.46C27.70-15.53 21.97-21.26 14.89-21.26C7.83-21.26 2.10-15.53 2.10-8.46C2.10-1.39 7.83 4.34 14.89 4.34ZM10.66-4.79C9.84-4.79 8.98-4.84 8.33-5.45C7.73-6.06 7.69-6.91 7.69-7.72L7.69-9.20C7.69-10.01 7.73-10.86 8.33-11.48C8.98-12.08 9.84-12.15 10.66-12.15L18.42-12.15C19.23-12.15 20.09-12.08 20.70-11.48C21.30-10.86 21.39-10.01 21.39-9.20L21.39-7.72C21.39-6.91 21.30-6.06 20.70-5.45C20.09-4.84 19.23-4.79 18.42-4.79ZM10.50-6.26L18.57-6.26C19.08-6.26 19.45-6.34 19.65-6.50C19.80-6.67 19.90-7.05 19.90-7.59L19.90-9.35C19.90-9.88 19.80-10.25 19.65-10.42C19.45-10.58 19.08-10.69 18.57-10.69L10.50-10.69C9.96-10.69 9.61-10.58 9.43-10.42C9.25-10.25 9.16-9.89 9.16-9.35L9.16-7.59C9.16-7.03 9.25-6.67 9.43-6.50C9.61-6.34 9.96-6.26 10.50-6.26ZM10.58-7.01C10.31-7.01 10.18-7.02 10.05-7.13C9.96-7.24 9.91-7.39 9.91-7.62L9.91-9.32C9.91-9.55 9.96-9.69 10.05-9.82C10.18-9.93 10.31-9.94 10.58-9.94L18.49-9.94C18.76-9.94 18.89-9.93 19.01-9.82C19.11-9.69 19.17-9.55 19.17-9.32L19.17-7.62C19.17-7.39 19.11-7.24 19.01-7.13C18.89-7.02 18.76-7.01 18.49-7.01ZM21.87-7.14L21.87-9.79C22.25-9.74 22.80-9.25 22.80-8.46C22.80-7.68 22.25-7.18 21.87-7.14Z" fill="currentColor"/>
</svg>