<svg xmlns="http://www.w3.org/2000/svg" viewBox="0 0 24 24" width="24" height="24">
  <title>beach.umbrella</title>
  <path transform="matrix(0.6977173528112869, 0, 0, 0.6977173528112869, 1.361970274650458, 17.900155615858843)" d="M2.81-12.59C2.45-11.60 2.94-10.58 3.84-10.24C4.65-9.96 5.33-10.11 6.55-10.57C7.08-10.80 7.59-10.84 8.13-10.66C8.66-10.45 9.02-10.00 9.45-9.05C9.74-8.39 10.09-7.98 10.69-7.76C11.23-7.56 11.80-7.65 12.42-7.93C12.56-8.03 12.73-8.09 12.89-8.11L8.75 3.22C8.38 4.25 8.91 5.38 9.93 5.75C10.95 6.13 12.08 5.61 12.46 4.58L16.59-6.77C16.69-6.64 16.77-6.49 16.83-6.34C17.12-5.72 17.48-5.27 18.05-5.09C18.62-4.86 19.17-4.97 19.80-5.26C20.74-5.74 21.33-5.86 21.86-5.66C22.38-5.47 22.77-5.09 23.02-4.59C23.66-3.45 24.06-2.88 24.88-2.59C25.79-2.25 26.82-2.74 27.18-3.73C28.71-7.92 27.70-15.35 20.98-18.86L21.43-20.14C21.83-21.20 21.30-22.29 20.27-22.66C19.24-23.04 18.14-22.55 17.75-21.48L17.30-20.20C9.90-21.84 4.35-16.80 2.81-12.59ZM7.97-14.26C9.59-15.90 11.89-16.88 14.32-16.92C13.13-15.88 11.99-14.46 11.13-12.69C10.69-13.23 10.07-13.69 9.30-13.98C8.86-14.14 8.43-14.25 7.97-14.26ZM13.52-11.64C14.77-14.06 16.56-15.59 17.96-16.32C18.59-14.85 18.97-12.53 18.35-9.87C17.80-10.57 17.02-11.17 16.20-11.47C15.38-11.78 14.40-11.81 13.52-11.64ZM20.87-9.14C21.34-11.05 21.39-12.86 21.15-14.44C22.98-12.84 24.12-10.62 24.28-8.32C23.94-8.59 23.53-8.80 23.10-8.96C22.34-9.23 21.55-9.28 20.87-9.14Z" fill="currentColor"/>
</svg>