<svg xmlns="http://www.w3.org/2000/svg" viewBox="0 0 24 24" width="24" height="24">
  <title>bell.circle.fill</title>
  <path transform="matrix(0.7810831426392068, 0, 0, 0.7810831426392068, 0.3615560640732265, 18.599542334096114)" d="M14.89 4.35C21.97 4.35 27.70-1.38 27.70-8.45C27.70-15.52 21.97-21.25 14.89-21.25C7.83-21.25 2.10-15.52 2.10-8.45C2.10-1.38 7.83 4.35 14.89 4.35ZM9.94-4.56C9.08-4.56 8.53-5.11 8.53-5.89C8.53-6.69 9-7.25 9.62-7.72C10.15-8.11 10.24-9.01 10.43-10.25C10.68-12.06 11.51-13.51 12.91-14.02C13.27-14.86 13.99-15.38 14.89-15.38C15.81-15.38 16.54-14.86 16.89-14.02C18.29-13.51 19.09-12.06 19.37-10.25C19.57-9.01 19.65-8.11 20.18-7.72C20.80-7.25 21.27-6.69 21.27-5.89C21.27-5.11 20.72-4.56 19.86-4.56ZM14.89-1.55C13.64-1.55 12.70-2.39 12.64-3.42L17.16-3.42C17.10-2.39 16.16-1.55 14.89-1.55Z" fill="currentColor"/>
</svg>