<svg xmlns="http://www.w3.org/2000/svg" viewBox="0 0 24 24" width="24" height="24">
  
  <path transform="matrix(0.7810831426392068, 0, 0, 0.7810831426392068, 0.3615560640732265, 18.608695652173914)" d="M14.89 4.34C21.97 4.34 27.70-1.39 27.70-8.46C27.70-15.53 21.97-21.26 14.89-21.26C7.83-21.26 2.10-15.53 2.10-8.46C2.10-1.39 7.83 4.34 14.89 4.34ZM14.89 0.16C10.13 0.16 6.27-3.69 6.27-8.46C6.27-13.23 10.13-17.09 14.89-17.09C19.66-17.09 23.53-13.23 23.53-8.46C23.53-3.69 19.66 0.16 14.89 0.16ZM12.59-13.42L20.61-5.39C20.73-5.58 20.80-5.82 20.80-6.08C20.80-6.82 20.38-7.36 19.79-7.79C19.30-8.14 19.23-8.99 19.04-10.13C18.79-11.82 18.04-13.17 16.72-13.64C16.42-14.41 15.74-14.91 14.89-14.91C14.04-14.91 13.36-14.41 13.05-13.64C12.88-13.57 12.73-13.51 12.59-13.42ZM19.15-3.02C19.48-2.72 19.99-2.70 20.32-3.02C20.64-3.34 20.64-3.87 20.32-4.18L10.64-13.86C10.32-14.18 9.79-14.18 9.46-13.86C9.14-13.55 9.14-13.02 9.46-12.69ZM15.83-4.85L10.70-9.97C10.66-9.76 10.64-9.55 10.62-9.34C10.50-8.61 10.37-8.06 9.98-7.79C9.40-7.35 8.98-6.82 8.98-6.08C8.98-5.36 9.49-4.85 10.28-4.85ZM14.89-2.05C16.07-2.05 16.93-2.84 16.99-3.80L12.79-3.80C12.84-2.84 13.71-2.05 14.89-2.05Z" fill="currentColor"/>
</svg>