<svg xmlns="http://www.w3.org/2000/svg" viewBox="0 0 24 24" width="24" height="24">
  
  <path transform="matrix(0.6172393007836046, 0, 0, 0.6172393007836046, 0.15551537070524413, 17.193490054249548)" d="M2.99-3.02C2.99 0.57 6.13 3.34 10.17 3.34C14.20 3.34 17.33 0.57 17.33-3.02L17.33-4.96C17.91-5.09 18.52-5.17 19.20-5.17C19.89-5.17 20.48-5.09 21.05-4.95L21.05-2.99C21.05 0.61 24.18 3.36 28.21 3.36C32.25 3.36 35.39 0.61 35.39-2.99C35.39-3.81 35.18-4.84 34.85-5.66L30.42-16.69C29.50-18.98 27.83-20.17 25.57-20.17C22.82-20.17 21.05-18.34 21.05-15.49L21.05-15.19C20.46-15.33 19.84-15.39 19.20-15.39C18.56-15.39 17.93-15.32 17.33-15.18L17.33-15.53C17.33-18.38 15.56-20.19 12.81-20.19C10.56-20.19 8.88-19.01 7.96-16.71L3.54-5.70C3.20-4.86 2.99-3.83 2.99-3.02ZM9.19-9.29L11.79-15.83C11.96-16.27 12.28-16.46 12.66-16.46C13.09-16.46 13.44-16.16 13.44-15.70L13.44-8.68C12.47-9.14 11.36-9.38 10.17-9.38C9.84-9.38 9.52-9.35 9.19-9.29ZM29.19-9.27C28.86-9.33 28.54-9.35 28.21-9.35C27.02-9.35 25.91-9.11 24.94-8.66L24.94-15.67C24.94-16.14 25.29-16.44 25.72-16.44C26.10-16.44 26.43-16.24 26.59-15.81ZM19.20-12.54C19.89-12.54 20.48-12.46 21.05-12.32L21.05-11.48C20.46-11.63 19.84-11.68 19.20-11.68C18.56-11.68 17.93-11.61 17.33-11.47L17.33-12.32C17.91-12.46 18.52-12.54 19.20-12.54ZM19.20-8.84C19.89-8.84 20.48-8.77 21.05-8.63L21.05-7.83C20.46-7.97 19.84-8.03 19.20-8.03C18.56-8.03 17.93-7.96 17.33-7.82L17.33-8.63C17.91-8.77 18.52-8.84 19.20-8.84ZM6.91-3.02C6.91-4.55 8.23-5.54 10.17-5.54C12.12-5.54 13.44-4.55 13.44-3.02C13.44-1.51 12.12-0.50 10.17-0.50C8.23-0.50 6.91-1.51 6.91-3.02ZM31.46-2.99C31.46-1.49 30.15-0.48 28.21-0.48C26.26-0.48 24.94-1.49 24.94-2.99C24.94-4.51 26.26-5.52 28.21-5.52C30.15-5.52 31.46-4.51 31.46-2.99Z" fill="currentColor"/>
</svg>