<svg xmlns="http://www.w3.org/2000/svg" viewBox="0 0 24 24" width="24" height="24">
  <title>bitcoinsign.circle.fill</title>
  <path transform="matrix(0.7810831426392068, 0, 0, 0.7810831426392068, 0.3615560640732265, 18.608695652173914)" d="M14.89 4.34C21.97 4.34 27.70-1.39 27.70-8.46C27.70-15.53 21.97-21.26 14.89-21.26C7.83-21.26 2.10-15.53 2.10-8.46C2.10-1.39 7.83 4.34 14.89 4.34ZM12.25-3.22C11.26-3.22 10.73-3.82 10.73-4.80L10.73-12.20C10.73-13.17 11.26-13.77 12.25-13.77L13.28-13.77L13.28-15C13.28-15.16 13.43-15.32 13.61-15.32C13.78-15.32 13.92-15.16 13.92-15L13.92-13.77L15.14-13.77L15.14-15C15.14-15.16 15.27-15.32 15.45-15.32C15.62-15.32 15.77-15.16 15.77-15L15.77-13.77C17.61-13.76 19.25-13.02 19.25-11.14C19.25-9.96 18.34-9 17.11-8.86L17.11-8.80C18.54-8.74 19.72-7.72 19.72-6.29C19.72-4.34 18.12-3.23 15.77-3.22L15.77-2.03C15.77-1.86 15.62-1.71 15.45-1.71C15.27-1.71 15.14-1.86 15.14-2.03L15.14-3.22L13.92-3.22L13.92-2.03C13.92-1.86 13.78-1.71 13.61-1.71C13.43-1.71 13.28-1.86 13.28-2.03L13.28-3.22ZM13.72-9.53L14.95-9.53C15.71-9.53 16.34-9.87 16.34-10.64C16.34-11.33 15.84-11.72 15.02-11.72L13.72-11.72ZM13.72-5.29L15.20-5.29C16.13-5.29 16.70-5.66 16.70-6.55C16.70-7.43 16.08-7.79 15.20-7.79L13.72-7.79Z" fill="currentColor"/>
</svg>