<svg xmlns="http://www.w3.org/2000/svg" viewBox="0 0 24 24" width="24" height="24">
  
  <path transform="matrix(0.7353152376849059, 0, 0, 0.7353152376849059, 4.559241706161138, 18.148211977595864)" d="M10.30 5.24C12.49 5.24 14.02 3.70 14.02 1.49C14.02-0.66 12.53-2.24 10.25-2.25C8.92-2.24 6.71-1.68 5.66-0.29C3.91-0.47 1.35-1.29 1.35-2.82C1.36-3.87 2.05-4.61 4.09-5.34C5.63-4.09 8.14-3.23 10.13-3.23C11.09-3.23 11.84-3.80 11.84-4.76L11.84-14.36C11.84-15.43 11.40-15.94 10.14-16.18C6.54-16.89 6.02-17.14 6.02-17.66C6.02-18.35 8.73-19.24 12.57-19.24C16.43-19.24 19.14-18.35 19.14-17.66C19.14-17.14 18.61-16.89 15.02-16.18C13.76-15.94 13.32-15.43 13.32-14.36L13.32-4.76C13.32-3.80 14.07-3.23 15.04-3.23C17.00-3.23 19.56-4.05 21.08-5.37C22.02-6.18 22.16-6.52 22.16-7.66L22.16-17.17C22.16-20.10 18.43-21.96 12.57-21.96C6.71-21.96 3-20.10 3-17.17L3-8.44C0.04-7.41-1.92-5.79-1.92-2.88C-1.92 0.81 1.63 2.41 5.43 2.94C6.18 4.17 8.16 5.24 10.30 5.24ZM8.86-6.40C7.75-6.62 6.96-7.02 6.13-7.50C5.93-7.63 5.86-7.68 5.86-7.91L5.86-14.21C6.73-13.83 7.76-13.55 8.86-13.37ZM16.30-6.40L16.30-13.37C17.39-13.55 18.42-13.83 19.30-14.21L19.30-7.92C19.30-7.69 19.23-7.63 19.02-7.50C18.20-7.02 17.41-6.62 16.30-6.40Z" fill="currentColor"/>
</svg>