<svg xmlns="http://www.w3.org/2000/svg" viewBox="0 0 24 24" width="24" height="24">
  <title>bold.italic.underline</title>
  <path transform="matrix(0.4139380709839114, 0, 0, 0.4139380709839114, 0.7630366238176085, 14.597623089983022)" d="M43.61 0.81C48.34 0.81 51.30-1.65 51.30-5.54L51.30-15.19C51.30-16.75 50.32-17.65 48.76-17.65C47.21-17.65 46.22-16.75 46.22-15.19L46.22-6.11C46.22-4.42 45.19-3.35 43.61-3.35C42.02-3.35 41.02-4.42 41.02-6.11L41.02-15.19C41.02-16.75 40.02-17.65 38.47-17.65C36.93-17.65 35.93-16.75 35.93-15.19L35.93-5.54C35.93-1.65 38.89 0.81 43.61 0.81ZM5.60 0.47L11.80 0.47C15.73 0.47 18.26-1.59 18.26-4.71C18.26-7.07 16.23-8.88 13.73-8.95L13.73-9.05C15.86-9.32 17.43-10.86 17.43-12.90C17.43-15.68 15.23-17.36 11.53-17.36L5.60-17.36C4.02-17.36 2.99-16.43 2.99-14.81L2.99-2.07C2.99-0.45 4.02 0.47 5.60 0.47ZM21.87 0.47L29.19 0.47C30.43 0.47 31.27-0.22 31.27-1.44C31.27-2.64 30.46-3.33 29.19-3.33L28.35-3.33L30-13.55L31.38-13.55C32.64-13.55 33.47-14.24 33.47-15.45C33.47-16.65 32.66-17.36 31.39-17.36L24.07-17.36C22.79-17.36 21.97-16.65 21.97-15.45C21.97-14.24 22.83-13.55 24.07-13.55L25.46-13.55L23.26-3.33L21.87-3.33C20.60-3.33 19.78-2.64 19.78-1.44C19.78-0.22 20.63 0.47 21.87 0.47ZM8.84-10.20L8.84-13.83L9.49-13.83C10.89-13.83 11.73-13.15 11.73-12.01C11.73-10.90 10.84-10.20 9.39-10.20ZM8.84-3.05L8.84-7.22L9.66-7.22C11.33-7.22 12.32-6.47 12.32-5.18C12.32-3.80 11.63-3.05 9.90-3.05ZM37.36 5.10L49.86 5.10C50.71 5.10 51.30 4.52 51.30 3.71C51.30 2.92 50.71 2.33 49.86 2.33L37.36 2.33C36.52 2.33 35.91 2.92 35.91 3.71C35.91 4.52 36.52 5.10 37.36 5.10Z" fill="currentColor"/>
</svg>