<svg xmlns="http://www.w3.org/2000/svg" viewBox="0 0 24 24" width="24" height="24">
  <title>bolt.square.fill</title>
  <path transform="matrix(0.8606488485459741, 0, 0, 0.8606488485459741, -0.571860816944024, 19.286938981341404)" d="M7.58 3.15L21.63 3.15C24.53 3.15 26.23 1.46 26.23-1.44L26.23-15.49C26.23-18.39 24.53-20.09 21.63-20.09L7.58-20.09C4.69-20.09 2.99-18.39 2.99-15.49L2.99-1.44C2.99 1.46 4.69 3.15 7.58 3.15ZM9.60-7.72C9.60-7.95 9.68-8.17 9.83-8.34L16.13-15.84C16.84-16.66 17.95-16.05 17.58-15.04L15.67-10.14L19.24-10.14C19.68-10.14 20.03-9.81 20.03-9.38C20.03-9.16 19.95-8.94 19.79-8.77L13.51-1.27C12.79-0.43 11.67-1.05 12.06-2.07L13.96-6.96L10.38-6.96C9.95-6.96 9.60-7.30 9.60-7.72Z" fill="currentColor"/>
</svg>