<svg xmlns="http://www.w3.org/2000/svg" viewBox="0 0 24 24" width="24" height="24">
  <title>book</title>
  <path transform="matrix(0.7066942719116632, 0, 0, 0.7066942719116632, -0.11180124223602483, 17.987577639751553)" d="M2.99 0.38C2.99 1.92 4.02 2.94 5.53 2.94C6.16 2.94 6.60 2.71 7.44 2.23C8.70 1.48 9.93 1.11 11.12 1.13C12.55 1.14 13.83 1.64 14.93 2.61C15.64 3.30 16.36 3.62 17.14 3.62C17.92 3.62 18.63 3.30 19.36 2.61C20.45 1.64 21.73 1.14 23.16 1.13C24.35 1.11 25.58 1.48 26.84 2.23C27.69 2.71 28.11 2.94 28.75 2.94C30.26 2.94 31.29 1.92 31.29 0.38L31.29-15.54C31.29-15.93 31.20-16.30 31.03-16.58C29.70-18.96 26.53-20.57 23.10-20.57C20.84-20.57 18.62-19.83 17.14-18.60C15.66-19.83 13.44-20.57 11.19-20.57C7.75-20.57 4.58-18.96 3.25-16.58C3.08-16.30 2.99-15.93 2.99-15.54ZM7.15-2.27L7.15-14.86C7.98-15.80 9.55-16.41 11.19-16.41C12.86-16.41 14.38-15.80 15.06-14.86L15.06-2.20C13.89-2.74 12.52-3.04 11.19-3.04C9.77-3.04 8.36-2.78 7.15-2.27ZM19.22-2.20L19.22-14.86C19.90-15.80 21.42-16.41 23.10-16.41C24.74-16.41 26.30-15.80 27.13-14.86L27.13-2.27C25.92-2.78 24.52-3.04 23.10-3.04C21.76-3.04 20.39-2.74 19.22-2.20Z" fill="currentColor"/>
</svg>