<svg xmlns="http://www.w3.org/2000/svg" viewBox="0 0 24 24" width="24" height="24">
  
  <path transform="matrix(0.6653671215074723, 0, 0, 0.6653671215074723, 0.011695906432748648, 17.629629629629626)" d="M5.55 2.10L30.84 2.10L30.84 0.79C30.84 0.08 30.40-0.34 29.71-0.34L29.34-0.34L29.34-13.21L30.26-13.21C31.31-13.21 31.95-14.02 31.95-14.80C31.95-15.38 31.62-15.91 30.95-16.31L20.05-22.59C19.49-22.92 18.82-23.12 18.20-23.12C17.58-23.12 16.91-22.92 16.35-22.59L5.45-16.31C4.78-15.91 4.45-15.38 4.45-14.80C4.45-14.02 5.09-13.21 6.15-13.21L7.05-13.21L7.05-0.34L6.69-0.34C6-0.34 5.55 0.08 5.55 0.79ZM9.82-0.34L9.82-15.09L18.01-19.66C18.08-19.70 18.15-19.71 18.20-19.71C18.27-19.71 18.32-19.70 18.39-19.66L26.58-15.09L26.58-0.34ZM21.45-4.07C21.56-4.07 21.63-4.15 21.63-4.25L21.63-5.03C23.10-5.11 24.23-5.88 24.23-7.27C24.23-8.53 23.37-9.02 22.36-9.40L21.63-9.66L21.63-10.95C21.90-10.88 22.09-10.70 22.22-10.48C22.43-10.15 22.68-9.89 23.10-9.89C23.75-9.89 24.01-10.32 24.01-10.68C24.01-10.90 23.94-11.11 23.84-11.26C23.43-12.02 22.59-12.41 21.63-12.46L21.63-13.23C21.63-13.34 21.56-13.42 21.45-13.42C21.33-13.42 21.26-13.34 21.26-13.23L21.26-12.46C19.91-12.40 18.69-11.68 18.69-10.24C18.69-9.05 19.38-8.51 20.51-8.07L21.26-7.80L21.26-6.53C20.91-6.56 20.68-6.71 20.55-7.04C20.38-7.43 20.10-7.63 19.68-7.63C19.14-7.63 18.75-7.34 18.75-6.80C18.75-6.66 18.80-6.49 18.86-6.35C19.21-5.45 20.16-5.05 21.26-5.02L21.26-4.25C21.26-4.15 21.33-4.07 21.45-4.07ZM13.49-4.78C14.19-4.78 14.55-5.20 14.55-5.91L14.55-7.52L15.04-7.52L15.75-5.77C15.97-5.19 16.18-4.78 16.85-4.78C17.46-4.78 17.92-5.18 17.92-5.84C17.92-6.09 17.79-6.41 17.68-6.67L17.10-7.91C17.63-8.30 18.06-8.94 18.06-10.01C18.06-11.74 16.99-12.57 15.23-12.57L13.49-12.57C12.84-12.57 12.41-12.23 12.41-11.45L12.41-5.91C12.41-5.19 12.76-4.78 13.49-4.78ZM14.55-8.95L14.55-10.97L15.05-10.97C15.57-10.97 15.86-10.49 15.86-9.96C15.86-9.42 15.59-8.95 15.04-8.95ZM20.66-10.43C20.66-10.76 20.93-10.92 21.26-10.96L21.26-9.81C20.89-9.97 20.66-10.16 20.66-10.43ZM22.27-7.03C22.27-6.74 22.05-6.57 21.63-6.53L21.63-7.65C21.97-7.54 22.27-7.39 22.27-7.03ZM4.59 6.20L31.43 6.20C32.29 6.20 33.05 5.50 33.05 4.59C33.05 3.73 32.29 2.99 31.43 2.99L4.59 2.99C3.73 2.99 2.99 3.73 2.99 4.59C2.99 5.48 3.73 6.20 4.59 6.20Z" fill="currentColor"/>
</svg>