<svg xmlns="http://www.w3.org/2000/svg" viewBox="0 0 24 24" width="24" height="24">
  
  <path transform="matrix(0.6064913527600094, 0, 0, 0.6064913527600094, 1.0582800284292835, 17.636105188343993)" d="M5.54 4.86C5.54 6.45 6.30 7.20 7.90 7.20L9.45 7.20C11.04 7.20 11.79 6.45 11.79 4.86L11.79 3.42C13.55 3.55 15.79 3.63 18.04 3.63C20.30 3.63 22.54 3.55 24.29 3.42L24.29 4.86C24.29 6.45 25.04 7.20 26.64 7.20L28.18 7.20C29.78 7.20 30.54 6.45 30.54 4.86L30.54-9.02L31.10-9.02C32.23-9.02 33.09-9.81 33.09-10.91L33.09-15.47C33.09-16.56 32.23-17.36 31.10-17.36L30.54-17.36L30.54-21.18C30.54-23.34 29.38-24.81 27.13-25.22C25.05-25.59 21.66-25.78 18.04-25.78C14.44-25.78 11.03-25.59 8.95-25.22C6.70-24.81 5.54-23.34 5.54-21.18L5.54-17.36L4.98-17.36C3.86-17.36 2.99-16.56 2.99-15.47L2.99-10.91C2.99-9.81 3.86-9.02 4.98-9.02L5.54-9.02ZM8.91-14.55L8.91-20.26C8.91-21.22 9.29-21.75 10.08-21.93C11.63-22.25 14.59-22.42 18.04-22.42C21.49-22.42 24.46-22.25 26.00-21.93C26.79-21.75 27.18-21.22 27.18-20.26L27.18-14.55ZM8.91-12.06L27.18-12.06L27.18-7.49C27.18-6.53 26.79-6 26.00-5.84C24.45-5.51 21.62-5.36 18.04-5.36C14.46-5.36 11.64-5.51 10.08-5.84C9.29-6 8.91-6.53 8.91-7.49ZM10.59 0.16C9.69 0.16 8.98-0.55 8.98-1.45C8.98-2.36 9.69-3.07 10.59-3.07C11.51-3.07 12.21-2.36 12.21-1.45C12.21-0.55 11.51 0.16 10.59 0.16ZM25.51 0.16C24.61 0.16 23.89-0.55 23.89-1.45C23.89-2.36 24.61-3.07 25.51-3.07C26.41-3.07 27.13-2.36 27.13-1.45C27.13-0.55 26.41 0.16 25.51 0.16ZM15.60-0.16C14.84-0.16 14.27-0.71 14.27-1.46C14.27-2.23 14.84-2.78 15.60-2.78L20.48-2.78C21.25-2.78 21.81-2.23 21.81-1.46C21.81-0.71 21.25-0.16 20.48-0.16Z" fill="currentColor"/>
</svg>