<svg xmlns="http://www.w3.org/2000/svg" viewBox="0 0 24 24" width="24" height="24">
  
  <path transform="matrix(0.6240097501523462, 0, 0, 0.6240097501523462, 0.13528336380255923, 17.276051188299817)" d="M29.26-15.40C29.26-20.40 26.30-23.58 21.73-23.58C17.16-23.58 14.20-20.40 14.20-15.40L14.20-14.32L18.18-10.85C19.65-9.57 19.65-7.38 18.18-6.09L14.20-2.60L14.20-1.51C14.20 3.50 17.16 6.67 21.73 6.67C26.30 6.67 29.26 3.50 29.26-1.51ZM35.04-15.40C35.04-20.19 32.43-23.27 27.68-23.55C29.87-21.80 31.20-18.95 31.20-15.40L31.20-1.51C31.20 2.04 29.87 4.90 27.68 6.64C32.43 6.38 35.04 3.29 35.04-1.51ZM4.75-10.23C3.67-10.23 2.99-9.45 2.99-8.46C2.99-7.48 3.67-6.69 4.75-6.69L10.31-6.69L10.31-4.70C10.31-3.38 11.57-2.87 12.53-3.70L16.90-7.55C17.50-8.06 17.50-8.87 16.90-9.40L12.53-13.22C11.59-14.04 10.31-13.50 10.31-12.27L10.31-10.23Z" fill="currentColor"/>
</svg>