<svg xmlns="http://www.w3.org/2000/svg" viewBox="0 0 24 24" width="24" height="24">
  
  <path transform="matrix(0.6832132372564719, 0, 0, 0.6832132372564719, 6.915932746196958, 17.780624499599682)" d="M4.86-18.66L10.01-18.66L10.01-21.47C10.01-22.50 9.41-23.10 8.36-23.10L6.52-23.10C5.46-23.10 4.86-22.50 4.86-21.47ZM4.63-4.17L5.98-4.17L5.98 6.18L8.91 6.18L8.91-4.17L10.25-4.17C11.30-4.17 11.89-4.77 11.89-5.80L11.89-15.22C11.89-16.28 11.30-16.89 10.25-16.89L4.63-16.89C3.59-16.89 2.99-16.28 2.99-15.22L2.99-5.80C2.99-4.77 3.59-4.17 4.63-4.17Z" fill="currentColor"/>
</svg>