<svg xmlns="http://www.w3.org/2000/svg" viewBox="0 0 24 24" width="24" height="24">
  <title>camera.metering.unknown</title>
  <path transform="matrix(0.7064017660044151, 0, 0, 0.7064017660044151, -0.11092715231788075, 17.96440397350993)" d="M27.14-9.55L31.30-9.55L31.30-15.47C31.30-18.38 29.60-20.06 26.71-20.06L18.25-20.06L18.25-15.90L26.07-15.90C26.79-15.90 27.14-15.61 27.14-14.84ZM2.99-9.55L7.15-9.55L7.15-14.84C7.15-15.61 7.50-15.90 8.21-15.90L16.04-15.90L16.04-20.06L7.58-20.06C4.69-20.06 2.99-18.38 2.99-15.47ZM16.80-6.52C17.68-6.52 18.35-6.91 18.52-7.46C18.53-7.50 18.54-7.56 18.55-7.59C18.73-7.98 19.29-8.33 19.80-8.65C21.06-9.42 21.52-10.05 21.52-11.24C21.52-13.20 19.66-14.60 17.19-14.60C15.21-14.60 13.68-13.85 13.13-12.67C13.01-12.42 12.95-12.18 12.95-11.91C12.95-11.17 13.51-10.51 14.39-10.51C14.93-10.51 15.40-10.68 15.70-11.09L15.77-11.17C16.10-11.60 16.41-11.71 16.76-11.71C17.18-11.71 17.55-11.36 17.55-11.00C17.55-10.49 17.06-10.24 16.22-9.67C15.41-9.11 14.89-8.59 14.89-7.91L14.89-7.89C14.89-6.98 15.57-6.52 16.80-6.52ZM7.58 3.18L16.04 3.18L16.04-0.98L8.21-0.98C7.50-0.98 7.15-1.29 7.15-2.06L7.15-7.35L2.99-7.35L2.99-1.42C2.99 1.48 4.69 3.18 7.58 3.18ZM18.25 3.18L26.71 3.18C29.60 3.18 31.30 1.48 31.30-1.42L31.30-7.35L27.14-7.35L27.14-2.06C27.14-1.29 26.79-0.98 26.07-0.98L18.25-0.98ZM16.82-2.50C17.88-2.50 18.66-3.08 18.66-4.09C18.66-5.09 17.89-5.68 16.82-5.68C15.74-5.68 14.94-5.10 14.94-4.09C14.94-3.08 15.74-2.50 16.82-2.50Z" fill="currentColor"/>
</svg>