<svg xmlns="http://www.w3.org/2000/svg" viewBox="0 0 24 24" width="24" height="24">
  
  <path transform="matrix(0.7554965323889626, 0, 0, 0.7554965323889626, 0.19389110225763617, 17.568835768038955)" d="M10.51-3.28L20.74-3.28C22.52-3.28 23.55-4.22 23.55-5.99L23.55-7.44L26.64-7.44C27.90-7.44 28.86-8.24 28.86-9.36C28.86-9.97 28.56-10.69 27.93-11.21L18.06-19.44C17.02-20.30 16.41-20.54 15.63-20.54C14.85-20.54 14.24-20.30 13.20-19.44L3.33-11.21C2.70-10.69 2.39-9.97 2.39-9.36C2.39-8.24 3.35-7.44 4.62-7.44L7.70-7.44L7.70-5.99C7.70-4.22 8.73-3.28 10.51-3.28ZM11.89-6.87C11.75-6.87 11.64-6.98 11.64-7.13L11.64-10.32C11.64-10.62 11.57-10.69 11.26-10.69L8.24-10.69C8.19-10.69 8.17-10.71 8.17-10.76C8.17-10.82 8.20-10.85 8.30-10.92L15.49-16.56C15.54-16.59 15.59-16.61 15.63-16.61C15.67-16.61 15.71-16.59 15.76-16.56L22.95-10.92C23.03-10.85 23.07-10.82 23.07-10.76C23.07-10.71 23.04-10.69 23.00-10.69L19.99-10.69C19.69-10.69 19.63-10.62 19.63-10.32L19.63-7.13C19.63-6.98 19.50-6.87 19.36-6.87ZM10.52 5.80L20.72 5.80C22.41 5.80 23.58 4.73 23.58 3L23.58 1.01C23.58-0.60 22.41-1.79 20.72-1.79L10.52-1.79C8.84-1.79 7.66-0.60 7.66 1.01L7.66 3C7.66 4.73 8.84 5.80 10.52 5.80ZM11.93 2.48C11.79 2.48 11.68 2.37 11.68 2.23L11.68 1.78C11.68 1.64 11.79 1.52 11.93 1.52L19.31 1.52C19.45 1.52 19.56 1.64 19.56 1.78L19.56 2.23C19.56 2.37 19.45 2.48 19.31 2.48Z" fill="currentColor"/>
</svg>