<svg xmlns="http://www.w3.org/2000/svg" viewBox="0 0 24 24" width="24" height="24">
  
  <path transform="matrix(0.7554965323889626, 0, 0, 0.7554965323889626, 0.19389110225763617, 17.568835768038955)" d="M4.62-7.44L7.70-7.44L7.70-5.43C7.70-3.66 8.73-2.72 10.51-2.72L20.74-2.72C22.52-2.72 23.55-3.66 23.55-5.43L23.55-7.44L26.64-7.44C27.90-7.44 28.86-8.24 28.86-9.36C28.86-9.97 28.56-10.69 27.93-11.21L18.06-19.44C17.02-20.30 16.41-20.54 15.63-20.54C14.85-20.54 14.24-20.30 13.20-19.44L3.33-11.21C2.70-10.69 2.39-9.97 2.39-9.36C2.39-8.24 3.35-7.44 4.62-7.44ZM10.10 5.80L21.15 5.80C22.68 5.80 23.58 4.92 23.58 3.43L23.58 0.75C23.58-0.74 22.68-1.61 21.15-1.61L10.10-1.61C8.58-1.61 7.69-0.74 7.69 0.75L7.69 3.43C7.69 4.92 8.58 5.80 10.10 5.80Z" fill="currentColor"/>
</svg>