<svg xmlns="http://www.w3.org/2000/svg" viewBox="0 0 24 24" width="24" height="24">
  
  <path transform="matrix(0.7099278979478647, 0, 0, 0.7099278979478647, -0.12146422628951736, 17.59900166389351)" d="M11.72 5.45C12.33 5.45 12.86 5.21 13.59 4.57L18.14 0.63L25.04 0.63C28.72 0.63 31.16-1.82 31.16-5.50L31.16-15.09C31.16-18.77 28.72-21.22 25.04-21.22L9.11-21.22C5.43-21.22 2.99-18.77 2.99-15.09L2.99-5.50C2.99-1.82 5.70 0.63 8.70 0.63L10.28 0.63L10.28 3.88C10.28 4.85 10.84 5.45 11.72 5.45ZM9.75-8.82C9.14-8.82 8.61-9.41 8.61-10.04C8.61-10.68 9.12-11.24 9.75-11.24L13.11-11.24C13.78-11.24 14.29-10.69 14.29-10.04C14.29-9.41 13.78-8.82 13.11-8.82ZM15.94-8.82C15.33-8.82 14.80-9.41 14.80-10.04C14.80-10.68 15.32-11.24 15.94-11.24L24.38-11.24C25.03-11.24 25.56-10.69 25.56-10.04C25.56-9.41 25.03-8.82 24.38-8.82ZM9.75-5.43C9.14-5.43 8.61-6 8.61-6.61C8.61-7.27 9.12-7.84 9.75-7.84L11.43-7.84C12.08-7.84 12.60-7.29 12.60-6.61C12.60-6 12.08-5.43 11.43-5.43ZM14.26-5.43C13.64-5.43 13.13-6 13.13-6.61C13.13-7.27 13.63-7.84 14.26-7.84L19.11-7.84C19.76-7.84 20.30-7.29 20.30-6.61C20.30-6 19.76-5.43 19.11-5.43ZM21.94-5.43C21.32-5.43 20.80-6 20.80-6.61C20.80-7.27 21.30-7.84 21.94-7.84L24.38-7.84C25.02-7.84 25.56-7.29 25.56-6.61C25.56-6 25.02-5.43 24.38-5.43Z" fill="currentColor"/>
</svg>