<svg xmlns="http://www.w3.org/2000/svg" viewBox="0 0 24 24" width="24" height="24">
  
  <path transform="matrix(0.6088714472588893, 0, 0, 0.6088714472588893, 5.075276489475562, 17.183731716018553)" d="M11.38-1.98C15.94-1.98 18.05-3.27 18.05-6.12L18.05-15.11L18.54-15.11C19.28-15.11 19.76-15.68 19.76-16.51L19.76-16.57C19.76-17.41 19.28-17.98 18.54-17.98L18.05-17.98L18.05-20.27C18.05-23.34 15.73-24.94 11.38-24.94C7.04-24.94 4.70-23.33 4.70-20.27L4.70-18.07L4.21-18.07C3.47-18.07 2.99-17.51 2.99-16.66L2.99-16.61C2.99-15.77 3.47-15.21 4.21-15.21L4.70-15.21L4.70-6.12C4.70-3.27 6.83-1.98 11.38-1.98ZM11.38-14.95C10.46-14.95 9.30-14.85 9.06-14.85C8.32-14.85 7.97-15.18 7.91-15.94L7.75-17.66C7.62-19.08 8.71-19.61 11.38-19.61C14.05-19.61 15.13-19.08 15-17.66L14.84-15.94C14.78-15.18 14.44-14.85 13.69-14.85C13.44-14.85 12.28-14.95 11.38-14.95ZM11.38-5.60C8.55-5.60 7.58-6.09 7.78-7.55L7.90-8.36C8.05-9.54 9.05-9.90 11.38-9.90C13.70-9.90 14.70-9.54 14.85-8.36L14.98-7.55C15.18-6.09 14.19-5.60 11.38-5.60ZM11.34 0.26C10.52 0.26 9.86 0.02 9.26-0.35C8.39-0.94 7.69-1.00 7.16-0.47C6.47 0.21 6.54 1.21 7.29 1.79C8.41 2.67 9.81 3.18 11.34 3.18C12.87 3.18 14.27 2.67 15.41 1.79C16.16 1.21 16.21 0.21 15.53-0.47C14.99-1.00 14.30-0.95 13.43-0.35C12.84 0.02 12.16 0.26 11.34 0.26ZM11.34 4.99C9.54 4.99 7.96 4.36 6.67 3.29C5.87 2.63 5.04 2.59 4.51 3.14C3.86 3.79 3.83 4.72 4.57 5.38C6.43 7.01 8.78 7.91 11.34 7.91C13.92 7.91 16.27 7.02 18.13 5.40C18.86 4.72 18.84 3.79 18.18 3.14C17.65 2.59 16.82 2.61 16.02 3.29C14.77 4.41 13.15 4.99 11.34 4.99Z" fill="currentColor"/>
</svg>