<svg xmlns="http://www.w3.org/2000/svg" viewBox="0 0 24 24" width="24" height="24">
  
  <path transform="matrix(0.4131364479948358, 0, 0, 0.4131364479948358, 1.1333817477608328, 16.151537158073104)" d="M26.32-22.34C28.84-22.34 31.17-21.56 32.74-20.13C33.40-19.55 34.22-19.35 34.90-19.90C35.66-20.51 35.78-21.57 34.84-22.50C32.78-24.50 29.65-25.48 26.32-25.48C23.02-25.48 19.72-24.38 17.81-22.50C16.88-21.57 17.00-20.51 17.75-19.90C18.45-19.35 19.27-19.55 19.91-20.13C21.48-21.56 23.81-22.34 26.32-22.34ZM26.33-16.95C27.28-16.95 28.49-16.56 29.09-16.14C29.75-15.67 30.55-15.53 31.21-16.02C31.96-16.58 32.02-17.73 31.17-18.55C30.11-19.57 28.27-20.10 26.33-20.10C24.41-20.10 22.57-19.57 21.50-18.55C20.65-17.73 20.71-16.58 21.47-16.02C22.13-15.53 22.91-15.67 23.58-16.14C24.18-16.56 25.39-16.95 26.33-16.95ZM26.33 2.29C28.89 2.29 31.82 2.20 33.89 2.06L33.89 4.03C33.89 4.79 34.49 5.38 35.25 5.38L37.02 5.38C37.78 5.38 38.38 4.79 38.38 4.03L38.38-2.21C38.38-4.11 38.20-5.20 37.23-6.32L36.28-7.42C35.93-9.07 35.32-10.78 34.99-11.47C34.41-12.74 33.26-13.52 31.77-13.73C30.93-13.83 29.13-13.91 26.33-13.91C23.54-13.91 21.74-13.83 20.89-13.73C19.42-13.52 18.26-12.74 17.68-11.47C17.36-10.78 16.73-9.07 16.39-7.42L15.43-6.32C14.46-5.20 14.29-4.11 14.29-2.21L14.29 4.03C14.29 4.79 14.88 5.38 15.64 5.38L17.43 5.38C18.19 5.38 18.77 4.79 18.77 4.03L18.77 2.06C20.85 2.20 23.79 2.29 26.33 2.29ZM7.28 3.82C7.78 3.19 7.63 2.43 7.08 1.82C5.75 0.35 5.02-1.82 5.02-4.16C5.02-6.49 5.74-8.66 7.08-10.11C7.64-10.72 7.80-11.48 7.28-12.12C6.71-12.81 5.72-12.96 4.88-12.07C3.15-10.25 2.10-7.22 2.10-4.16C2.10-1.07 2.99 1.86 4.88 3.77C5.74 4.65 6.73 4.52 7.28 3.82ZM45.33 3.82C45.88 4.52 46.86 4.65 47.73 3.77C49.63 1.86 50.51-1.07 50.51-4.16C50.51-7.22 49.46-10.25 47.73-12.07C46.90-12.96 45.90-12.81 45.33-12.12C44.81-11.48 44.98-10.72 45.54-10.11C46.89-8.65 47.59-6.49 47.59-4.16C47.59-1.82 46.85 0.35 45.54 1.82C44.99 2.43 44.82 3.19 45.33 3.82ZM19.31-8.50C19.45-9.05 19.70-9.91 19.85-10.23C20.20-10.93 20.66-11.19 21.52-11.31C21.98-11.38 23.59-11.48 26.33-11.48C29.09-11.48 30.68-11.39 31.15-11.31C32.02-11.19 32.47-10.93 32.81-10.23C32.96-9.91 33.21-9.05 33.35-8.50C33.52-7.89 33.22-7.50 32.57-7.50C31.61-7.52 29.95-7.62 26.33-7.62C22.71-7.62 21.06-7.52 20.11-7.50C19.44-7.50 19.16-7.89 19.31-8.50ZM11.32 0.39C11.77-0.23 11.64-0.97 11.19-1.59C10.79-2.14 10.44-3.28 10.44-4.16C10.44-5.04 10.79-6.16 11.19-6.73C11.63-7.36 11.77-8.07 11.32-8.70C10.79-9.40 9.71-9.46 8.94-8.66C8.00-7.66 7.52-5.96 7.52-4.16C7.52-2.36 8.00-0.66 8.94 0.34C9.71 1.13 10.79 1.09 11.32 0.39ZM41.30 0.39C41.81 1.09 42.89 1.13 43.66 0.34C44.61-0.66 45.08-2.36 45.08-4.16C45.08-5.96 44.61-7.66 43.66-8.66C42.89-9.46 41.81-9.40 41.30-8.70C40.84-8.07 40.98-7.36 41.41-6.73C41.81-6.16 42.16-5.04 42.16-4.16C42.16-3.28 41.81-2.14 41.41-1.59C40.97-0.97 40.84-0.23 41.30 0.39ZM19.14-0.60C18.12-0.60 17.34-1.37 17.34-2.39C17.34-3.40 18.12-4.17 19.14-4.17C20.14-4.17 20.92-3.40 20.92-2.39C20.92-1.37 20.14-0.60 19.14-0.60ZM33.53-0.60C32.52-0.60 31.76-1.37 31.76-2.39C31.76-3.40 32.52-4.17 33.53-4.17C34.56-4.17 35.33-3.40 35.33-2.39C35.33-1.37 34.56-0.60 33.53-0.60ZM23.58-1.08C22.82-1.08 22.27-1.62 22.27-2.39C22.27-3.15 22.82-3.70 23.58-3.70L29.09-3.70C29.86-3.70 30.41-3.15 30.41-2.39C30.41-1.62 29.86-1.08 29.09-1.08Z" fill="currentColor"/>
</svg>