<svg xmlns="http://www.w3.org/2000/svg" viewBox="0 0 24 24" width="24" height="24">
  <title>car.side.hill.descent.control.fill</title>
  <path transform="matrix(0.49846857575552944, 0, 0, 0.49846857575552944, 0.5093840991649261, 16.28063401842381)" d="M9.28-1.37L9.45-1.46C9.18-1.73 8.94-2.04 8.75-2.38C7.51-4.51 8.26-7.25 10.39-8.48C12.53-9.71 15.27-8.99 16.51-6.86C16.70-6.52 16.84-6.16 16.95-5.80L25.77-10.89C25.50-11.16 25.27-11.46 25.08-11.80C23.85-13.93 24.59-16.68 26.72-17.92C28.85-19.14 31.59-18.41 32.84-16.28C33.02-15.95 33.16-15.59 33.27-15.22L33.43-15.32C35.47-16.50 35.91-18.32 34.68-20.47L33.36-22.75C32.34-24.50 30.76-25.04 28.65-24.67L27.21-24.41C24.87-24.88 21.34-25.21 18.14-23.37L16.82-22.61C13.32-20.58 12.05-19.38 10.69-16.82L8.64-12.91L5.38-10.46C2.98-8.67 2.36-6.08 3.66-3.82L4.23-2.81C5.45-0.70 7.24-0.20 9.28-1.37ZM30.52-11.34C31.99-12.20 32.51-14.11 31.65-15.60C30.80-17.07 28.89-17.58 27.41-16.73C25.92-15.87 25.41-13.97 26.26-12.48C27.12-10.99 29.03-10.49 30.52-11.34ZM6.90 6.62C7.46 7.56 8.66 7.88 9.55 7.36L40.86-10.72C41.75-11.25 42.09-12.43 41.57-13.36C41.00-14.29 39.81-14.63 38.92-14.09L7.62 4.00C6.70 4.51 6.38 5.71 6.90 6.62ZM14.19-1.92C15.67-2.78 16.18-4.69 15.33-6.16C14.46-7.65 12.56-8.16 11.09-7.30C9.60-6.45 9.07-4.55 9.94-3.06C10.79-1.57 12.70-1.07 14.19-1.92ZM40.69 7.28C41.47 7.28 42.09 6.96 42.52 6.46C42.90 6.05 43.11 5.51 43.11 4.96C43.11 4.30 42.71 3.95 42.06 3.95C41.51 3.95 41.12 4.29 41.06 4.88C41.03 5.19 40.93 5.54 40.62 5.54C40.27 5.54 40.09 4.91 40.09 3.32C40.09 1.71 40.30 1.21 40.62 1.21C40.83 1.21 40.97 1.36 41.05 1.84C41.14 2.63 41.70 2.79 42.07 2.79C42.67 2.79 43.04 2.39 43.04 1.78C43.04 1.27 42.84 0.56 42.30 0.07C41.94-0.27 41.38-0.53 40.61-0.53C39.26-0.53 38.52 0.18 38.14 1.29C37.91 1.91 37.83 2.74 37.83 3.32C37.83 4.23 37.95 5.03 38.19 5.64C38.64 6.81 39.47 7.28 40.69 7.28ZM26.96 7.18C27.67 7.18 28.07 6.77 28.07 6.05L28.07 4.24L29.13 4.24L29.13 6.05C29.13 6.80 29.50 7.18 30.22 7.18C30.95 7.18 31.34 6.77 31.34 6.05L31.34 0.69C31.34 0 30.95-0.43 30.22-0.43C29.51-0.43 29.13 0 29.13 0.69L29.13 2.51L28.07 2.51L28.07 0.69C28.07-0.09 27.59-0.43 26.96-0.43C26.20-0.43 25.86 0.01 25.86 0.69L25.86 6.05C25.86 6.80 26.23 7.18 26.96 7.18ZM33.05 7.17L34.57 7.17C36.67 7.17 37.37 5.40 37.37 3.29C37.37 1.20 36.67-0.43 34.57-0.43L33.05-0.43C32.33-0.43 31.92-0.06 31.92 0.69L31.92 6.01C31.92 6.75 32.34 7.17 33.05 7.17ZM34.10 5.44L34.10 1.29L34.30 1.29C34.91 1.29 35.16 1.90 35.16 3.29C35.16 4.77 34.91 5.44 34.30 5.44Z" fill="currentColor"/>
</svg>