<svg xmlns="http://www.w3.org/2000/svg" viewBox="0 0 24 24" width="24" height="24">
  <title>car.top.lane.dashed.departure.left.fill</title>
  <path transform="matrix(0.6606516874382004, 0, 0, 0.6606516874382004, 1.0114055705668619, 17.705862816116642)" d="M30.32-13.93C31.14-13.93 31.77-14.57 31.77-15.39L31.77-19.73C31.77-20.55 31.14-21.19 30.32-21.19L29.05-21.19C28.23-21.19 27.60-20.55 27.60-19.73L27.60-15.39C27.60-14.57 28.23-13.93 29.05-13.93ZM5.71 3.91C6.53 3.91 7.16 3.28 7.16 2.46L7.16-1.73L9.15 1.70C10.57 4.16 13.01 4.22 16.95 1.96C20.84-0.29 22.02-2.46 20.60-4.91L16.11-12.70L16.54-12.95C17.17-13.31 17.26-14.02 16.89-14.77L16.85-14.82C16.46-15.57 15.75-15.79 15.11-15.42L14.68-15.18L13.59-17.06C12.30-19.29 10.09-19.78 7.16-18.56L7.16-19.73C7.16-20.55 6.53-21.19 5.71-21.19L4.44-21.19C3.62-21.19 2.99-20.55 2.99-19.73L2.99-15.83C1.36-14.16 1.04-12.33 2.14-10.44L3.28-8.47L2.85-8.23C2.21-7.85 2.12-7.16 2.50-6.41L2.53-6.35C2.91-5.60 3.63-5.39 4.28-5.75L4.70-6.01L6.25-3.33C6.08-3.40 5.91-3.43 5.71-3.43L4.44-3.43C3.62-3.43 2.99-2.80 2.99-1.98L2.99 2.46C2.99 3.28 3.62 3.91 4.44 3.91ZM10.50-9.18C9.74-8.73 8.77-8.07 8.57-7.95C7.92-7.58 7.48-7.69 7.03-8.30L6.04-9.71C5.24-10.86 5.91-11.85 8.19-13.17C10.50-14.50 11.70-14.58 12.27-13.31L13.00-11.73C13.30-11.06 13.20-10.62 12.53-10.24C12.33-10.13 11.29-9.63 10.50-9.18ZM30.32-5.04C31.14-5.04 31.77-5.67 31.77-6.49L31.77-10.84C31.77-11.66 31.14-12.29 30.32-12.29L29.05-12.29C28.23-12.29 27.60-11.66 27.60-10.84L27.60-6.49C27.60-5.67 28.23-5.04 29.05-5.04ZM15.14-1.16C12.70 0.23 11.65 0.30 11.09-1.04L10.78-1.79C10.34-2.88 11.02-3.69 13.01-4.84C15-5.99 16.02-6.16 16.76-5.24L17.25-4.61C18.16-3.47 17.57-2.57 15.14-1.16ZM30.32 3.91C31.14 3.91 31.77 3.28 31.77 2.46L31.77-1.98C31.77-2.80 31.14-3.43 30.32-3.43L29.05-3.43C28.23-3.43 27.60-2.80 27.60-1.98L27.60 2.46C27.60 3.28 28.23 3.91 29.05 3.91Z" fill="currentColor"/>
</svg>