<svg xmlns="http://www.w3.org/2000/svg" viewBox="0 0 24 24" width="24" height="24">
  <title>car</title>
  <path transform="matrix(0.6526449968132568, 0, 0, 0.6526449968132568, 0.0497131931166348, 17.88527724665392)" d="M5.31 3.21L6.86 3.21C7.82 3.21 8.58 2.46 8.58 1.49L8.58-0.38C11.23-0.21 15.06-0.09 18.30-0.09C21.56-0.09 25.39-0.21 28.04-0.38L28.04 1.49C28.04 2.46 28.80 3.21 29.77 3.21L31.31 3.21C32.27 3.21 33.04 2.46 33.04 1.49L33.04-2.11C33.42-2.67 33.63-3.39 33.63-4.22L33.63-6.28C33.63-8.71 33.41-10.09 32.17-11.52L30.94-12.94C30.49-15.05 29.72-17.25 29.30-18.13C28.54-19.75 27.07-20.77 25.18-21.01C24.09-21.16 21.80-21.25 18.30-21.25C14.82-21.25 12.53-21.16 11.44-21.01C9.54-20.77 8.07-19.76 7.32-18.13C6.91-17.25 6.13-15.05 5.67-12.94L4.44-11.52C3.21-10.09 2.99-8.71 2.99-6.28L2.99-4.22C2.99-3.39 3.20-2.67 3.59-2.11L3.59 1.49C3.59 2.46 4.35 3.21 5.31 3.21ZM18.30-3.45C14.14-3.45 9.66-3.67 7.66-3.88C6.66-3.98 6.21-4.45 6.21-5.37L6.21-6.83C6.21-8.32 6.66-9.08 7.15-9.74L8.68-11.77C8.88-12.79 9.59-15.48 10.05-16.43C10.50-17.33 11.27-17.71 12.14-17.84C13.14-17.98 15.09-18.06 18.30-18.06C21.52-18.06 23.48-17.95 24.48-17.84C25.34-17.73 26.09-17.33 26.57-16.38C27-15.55 27.70-12.88 27.94-11.77L29.46-9.74C29.96-9.08 30.41-8.32 30.41-6.83L30.41-5.37C30.41-4.45 29.95-3.98 28.96-3.88C26.95-3.67 22.48-3.45 18.30-3.45ZM10.23-13.77C10.07-13.05 10.38-12.59 11.17-12.60C12.27-12.62 14.20-12.71 18.30-12.71C22.42-12.71 24.35-12.62 25.44-12.60C26.24-12.59 26.55-13.05 26.38-13.77C26.24-14.40 25.93-15.33 25.75-15.69C25.36-16.51 24.81-16.80 23.82-16.95C23.26-17.03 21.39-17.06 18.30-17.06C15.22-17.06 13.36-17.03 12.80-16.95C11.81-16.80 11.27-16.51 10.86-15.69C10.69-15.33 10.39-14.40 10.23-13.77ZM9.71-4.48C11.03-4.48 12.01-5.47 12.01-6.77C12.01-8.07 11.03-9.06 9.71-9.06C8.41-9.06 7.43-8.07 7.43-6.77C7.43-5.47 8.41-4.48 9.71-4.48ZM26.89-4.48C28.20-4.48 29.19-5.47 29.19-6.77C29.19-8.07 28.20-9.06 26.89-9.06C25.59-9.06 24.61-8.07 24.61-6.77C24.61-5.47 25.59-4.48 26.89-4.48ZM14.86-5.09L21.75-5.09C22.73-5.09 23.44-5.80 23.44-6.77C23.44-7.75 22.73-8.46 21.75-8.46L14.86-8.46C13.89-8.46 13.18-7.75 13.18-6.77C13.18-5.80 13.89-5.09 14.86-5.09Z" fill="currentColor"/>
</svg>