<svg xmlns="http://www.w3.org/2000/svg" viewBox="0 0 24 24" width="24" height="24">
  
  <path transform="matrix(0.6313972129732396, 0, 0, 0.6313972129732396, 0.1132075471698113, 17.345911949685533)" d="M18.83-17.37C20.36-17.37 21.74-16.92 22.93-16.20C23.81-15.63 24.60-15.97 24.98-16.58C25.36-17.18 25.32-18.05 24.60-18.55C22.95-19.64 20.92-20.13 18.83-20.13C16.73-20.13 14.71-19.64 13.05-18.55C12.33-18.05 12.29-17.18 12.67-16.58C13.05-15.97 13.84-15.63 14.73-16.20C15.91-16.92 17.30-17.37 18.83-17.37ZM7.25-11.41C8.13-12.66 9.28-13.55 10.57-14.09C11.57-14.51 11.72-15.40 11.40-16.05C11.11-16.69 10.39-17.11 9.60-16.80C7.76-16.07 6.16-14.70 4.98-13.00C3.81-11.27 3.05-9.34 2.99-7.34C2.99-6.46 3.67-5.94 4.37-5.91C5.09-5.87 5.81-6.32 5.87-7.37C5.94-8.77 6.36-10.15 7.25-11.41ZM30.40-11.41C31.29-10.15 31.71-8.77 31.78-7.37C31.84-6.32 32.57-5.87 33.28-5.91C33.98-5.94 34.66-6.46 34.66-7.34C34.61-9.34 33.84-11.27 32.67-13.00C31.49-14.70 29.89-16.07 28.05-16.80C27.26-17.11 26.54-16.69 26.25-16.05C25.93-15.40 26.09-14.51 27.08-14.09C28.37-13.55 29.52-12.66 30.40-11.41ZM18.83-13.17C19.46-13.17 20.00-13.05 20.63-12.75C21.61-12.26 22.35-12.64 22.66-13.28C22.97-13.91 22.83-14.79 22.02-15.18C21.18-15.61 20.02-15.94 18.83-15.94C17.64-15.94 16.48-15.61 15.64-15.18C14.82-14.79 14.68-13.91 15-13.28C15.30-12.64 16.04-12.26 17.03-12.75C17.65-13.05 18.20-13.17 18.83-13.17ZM27.01-8.95C27.34-8.47 27.56-7.91 27.66-7.29C27.83-6.09 28.73-5.74 29.45-5.96C30.07-6.15 30.57-6.73 30.45-7.52C30.30-8.45 29.91-9.61 29.24-10.58C28.55-11.57 27.61-12.30 26.79-12.74C26.00-13.18 25.23-12.82 24.88-12.22C24.53-11.61 24.62-10.77 25.61-10.22C26.13-9.94 26.63-9.50 27.01-8.95ZM10.64-8.95C11.03-9.50 11.52-9.94 12.05-10.22C13.03-10.77 13.13-11.61 12.77-12.22C12.42-12.82 11.65-13.18 10.88-12.74C10.05-12.30 9.12-11.57 8.41-10.58C7.75-9.61 7.36-8.45 7.21-7.52C7.08-6.73 7.58-6.15 8.20-5.96C8.92-5.74 9.82-6.09 10.00-7.29C10.09-7.91 10.31-8.47 10.64-8.95ZM12.15 3.20L14.88 3.20L14.88-5.16C14.88-6.48 16.18-7.16 18.83-7.16C21.48-7.16 22.77-6.48 22.77-5.16L22.77 3.20L25.50 3.20L25.50-0.07L25.99-0.07C26.73-0.07 27.21-0.63 27.21-1.46L27.21-1.54C27.21-2.38 26.73-2.94 25.99-2.94L25.50-2.94L25.50-5.24C25.50-8.31 23.18-9.89 18.83-9.89C14.50-9.89 12.15-8.29 12.15-5.24L12.15-3.04L11.66-3.04C10.92-3.04 10.44-2.47 10.44-1.63L10.44-1.57C10.44-0.74 10.92-0.18 11.66-0.18L12.15-0.18ZM18.83 0.26C19.66 0.26 20.75 0.35 20.96 0.35C21.67 0.35 21.98 0.05 22.04-0.66L22.20-2.26C22.31-3.57 21.32-4.07 18.83-4.07C16.35-4.07 15.34-3.57 15.46-2.26L15.61-0.66C15.67 0.05 15.98 0.35 16.69 0.35C16.90 0.35 17.99 0.26 18.83 0.26Z" fill="currentColor"/>
</svg>