<svg xmlns="http://www.w3.org/2000/svg" viewBox="0 0 24 24" width="24" height="24">
  <title>car.top.door.rear.left.open.fill</title>
  <path transform="matrix(0.6095238095238096, 0, 0, 0.6095238095238096, 3.481261746312967, 17.15)" d="M16.98 7.96C23.50 7.96 26.45 6.16 26.45 2.19L26.45-18.33C26.45-22.63 23.19-24.86 16.98-24.86C10.80-24.86 7.55-22.59 7.55-18.33L7.55-6.48L2.00-0.96C1.32-0.28 1.35 0.86 2.00 1.52C2.67 2.21 3.82 2.23 4.51 1.54L7.55-1.51L7.55 2.19C7.55 6.16 10.49 7.96 16.98 7.96ZM16.99-10.82C15.68-10.82 13.98-10.70 13.64-10.70C12.68-10.70 12.27-11.07 12.20-12.05L11.98-14.57C11.81-16.43 13.24-17.13 16.99-17.13C20.77-17.13 22.20-16.43 22.03-14.57L21.81-12.05C21.73-11.07 21.33-10.70 20.36-10.70C20.02-10.70 18.30-10.82 16.99-10.82ZM16.99 2.71C13.03 2.71 11.71 2.06 12 0.15L12.19-1.02C12.41-2.55 13.69-3.08 16.99-3.08C20.32-3.08 21.60-2.55 21.82-1.02L22.00 0.15C22.30 2.06 20.98 2.71 16.99 2.71Z" fill="currentColor"/>
</svg>