<svg xmlns="http://www.w3.org/2000/svg" viewBox="0 0 24 24" width="24" height="24">
  
  <path transform="matrix(0.438957475994513, 0, 0, 0.438957475994513, 0.6882716049382716, 17.36008230452675)" d="M26.37-13.88L32.39-13.88C33.39-13.88 33.90-14.38 33.90-15.47L33.90-20.24C33.90-21.19 33.50-21.69 32.74-21.81L32.74-23.26C32.74-25.28 31.37-26.66 29.38-26.66C27.39-26.66 26.00-25.28 26.00-23.26L26.00-21.81C25.24-21.69 24.86-21.18 24.86-20.24L24.86-15.47C24.86-14.38 25.37-13.88 26.37-13.88ZM27.93-23.29C27.93-24.16 28.51-24.79 29.38-24.79C30.22-24.79 30.83-24.16 30.83-23.29L30.83-21.83L27.93-21.83ZM44.52-13.91L42.74-14.55C41.10-16.01 38.74-17.75 35.82-18.64L35.82-15.47C35.82-13.31 34.45-11.94 32.39-11.94L26.37-11.94C24.29-11.94 22.91-13.31 22.91-15.47L22.91-18.48C21.68-18.11 20.57-17.53 19.29-16.73L14.47-13.69L9.22-13.05C5.37-12.60 2.99-10.09 2.99-6.70L2.99-5.21C2.99-2.06 4.66-0.33 7.71-0.33L7.96-0.33C7.83-0.80 7.77-1.29 7.77-1.79C7.77-4.99 10.37-7.58 13.57-7.58C16.76-7.58 19.37-4.99 19.37-1.79C19.37-1.29 19.30-0.80 19.18-0.33L32.37-0.33C32.24-0.80 32.18-1.29 32.18-1.79C32.18-4.99 34.78-7.58 37.98-7.58C41.17-7.58 43.78-4.99 43.78-1.79C43.78-1.29 43.70-0.80 43.58-0.33L43.83-0.33C46.88-0.33 48.55-2.09 48.55-5.31L48.55-8.71C48.55-11.34 47.13-12.96 44.52-13.91ZM13.57 2.24C15.79 2.24 17.60 0.43 17.60-1.79C17.60-4.01 15.79-5.81 13.57-5.81C11.36-5.81 9.54-4.01 9.54-1.79C9.54 0.43 11.36 2.24 13.57 2.24ZM37.98 2.24C40.20 2.24 42.01 0.43 42.01-1.79C42.01-4.01 40.20-5.81 37.98-5.81C35.77-5.81 33.95-4.01 33.95-1.79C33.95 0.43 35.77 2.24 37.98 2.24Z" fill="currentColor"/>
</svg>