<svg xmlns="http://www.w3.org/2000/svg" viewBox="0 0 24 24" width="24" height="24">
  
  <path transform="matrix(0.4713246801067845, 0, 0, 0.4713246801067845, 0.5915492957746478, 15.905340075799515)" d="M22.46-17.61L34.08-17.61C35.60-17.61 36.19-18.38 36.19-20.06L36.19-21.30C36.19-23.53 35.20-24.63 33-24.63L30.28-24.63C27.95-24.63 26.68-24.26 23.93-22.84L21.62-21.64C20.47-21.05 20.12-20.46 20.12-19.46C20.12-18.39 20.95-17.61 22.46-17.61ZM37.89 7.76C38.31 8.16 38.99 8.17 39.40 7.76C39.80 7.34 39.82 6.66 39.40 6.25L11.30-21.84C10.88-22.27 10.18-22.27 9.76-21.84C9.36-21.45 9.36-20.74 9.76-20.33ZM41.66-10.43L40.01-11.02C37.84-12.91 34.35-15.39 29.91-15.39L28.05-15.39C24.90-15.39 22.93-15.19 21.13-14.52L32.26-3.40C33.19-4.09 34.32-4.52 35.58-4.52C38.53-4.52 40.97-2.11 40.97 0.87C40.97 1.32 40.90 1.79 40.79 2.24L41.02 2.24C43.86 2.24 45.42 0.59 45.42-2.41L45.42-5.57C45.42-8.03 44.10-9.53 41.66-10.43ZM15.96-11.65L13.68-10.21L8.80-9.62C5.20-9.20 2.99-6.87 2.99-3.70L2.99-2.32C2.99 0.61 4.55 2.24 7.39 2.24L7.62 2.24C7.50 1.79 7.44 1.32 7.44 0.87C7.44-2.11 9.87-4.52 12.84-4.52C15.81-4.52 18.25-2.11 18.25 0.87C18.25 1.32 18.16 1.79 18.07 2.24L29.86 2.24ZM12.84 4.62C14.91 4.62 16.59 2.93 16.59 0.87C16.59-1.21 14.91-2.88 12.84-2.88C10.77-2.88 9.09-1.21 9.09 0.87C9.09 2.93 10.77 4.62 12.84 4.62ZM39.32 0.87C39.32-1.21 37.63-2.88 35.58-2.88C34.78-2.88 34.04-2.64 33.45-2.21L38.66 3C39.08 2.39 39.32 1.66 39.32 0.87Z" fill="currentColor"/>
</svg>