<svg xmlns="http://www.w3.org/2000/svg" viewBox="0 0 24 24" width="24" height="24">
  
  <path transform="matrix(0.6447550686311547, 0, 0, 0.6447550686311547, 0.07329051756705707, 17.44767661503589)" d="M24-17.52C24.95-17.52 25.73-18.30 25.73-19.25C25.73-20.20 24.95-20.99 24-20.99C23.05-20.99 22.27-20.20 22.27-19.25C22.27-18.30 23.05-17.52 24-17.52ZM29.55-12.96C31.00-12.96 32.13-14.11 32.13-15.55C32.13-16.99 31.00-18.14 29.55-18.14C28.10-18.14 26.95-16.99 26.95-15.55C26.95-14.11 28.10-12.96 29.55-12.96ZM10.18 4.09L26.06 4.09C30.54 4.09 34.01 0.69 34.01-3.73C34.01-8.19 30.63-11.67 26.02-11.67C24.33-14.92 21.39-16.61 17.47-16.61C12.55-16.61 8.50-13.22 7.71-8.21C5.00-7.25 3.41-5.02 3.41-2.33C3.41 1.38 6.23 4.09 10.18 4.09ZM4.84-9.06C5.85-9.06 6.67-9.88 6.67-10.91C6.67-11.92 5.85-12.74 4.84-12.74C3.81-12.74 2.99-11.92 2.99-10.91C2.99-9.88 3.81-9.06 4.84-9.06ZM14.30-0.71C11.96-0.71 11.05-2.63 11.05-4.85C11.05-7.13 12.06-8.98 14.25-8.98C16.02-8.98 17.17-7.75 17.17-6.39C17.17-5.81 16.82-5.39 16.25-5.39C15.76-5.39 15.46-5.70 15.32-6.25C15.21-6.70 14.99-7.25 14.27-7.25C13.30-7.25 12.97-6.09 12.97-4.85C12.97-3.50 13.28-2.45 14.30-2.45C15-2.45 15.27-2.99 15.39-3.43C15.49-3.98 15.77-4.29 16.30-4.29C16.85-4.29 17.20-3.87 17.20-3.29C17.20-1.95 16.05-0.71 14.30-0.71ZM20.93-0.71C18.95-0.71 17.71-2.32 17.71-4.84C17.71-7.36 18.95-8.98 20.93-8.98C22.89-8.98 24.12-7.36 24.12-4.84C24.12-2.32 22.89-0.71 20.93-0.71ZM20.93-2.45C21.73-2.45 22.22-3.27 22.22-4.84C22.22-6.41 21.73-7.25 20.93-7.25C20.11-7.25 19.62-6.41 19.62-4.84C19.62-3.27 20.11-2.45 20.93-2.45ZM25.25-0.50C24.91-0.50 24.63-0.80 24.63-1.15C24.63-1.34 24.75-1.61 24.91-1.77L25.90-2.71C26.12-2.93 26.37-3.25 26.37-3.43C26.37-3.50 26.33-3.56 26.26-3.56C26.17-3.56 26.10-3.52 26.03-3.36C25.93-3.15 25.76-2.81 25.34-2.81C24.97-2.81 24.63-3.11 24.63-3.55C24.63-4.15 25.28-4.89 26.26-4.89C27.15-4.89 27.84-4.30 27.84-3.47C27.84-2.89 27.39-2.46 26.92-1.92L26.82-1.80L27.33-1.80C27.67-1.80 27.97-1.50 27.97-1.16C27.97-0.80 27.68-0.50 27.33-0.50Z" fill="currentColor"/>
</svg>