<svg xmlns="http://www.w3.org/2000/svg" viewBox="0 0 24 24" width="24" height="24">
  
  <path transform="matrix(0.6754563330603226, 0, 0, 0.6754563330603226, -0.020363899781392192, 17.722909321905625)" d="M3.25-0.53C4.48 3.90 5.75 5.29 8.65 5.29L23.54 5.29C25.72 5.29 27.19 4.10 27.74 1.89L32.44-17.09C33.14-19.92 31.52-22.23 28.52-22.23C25.27-22.23 23.05-19.14 23.29-15.76C21.05-13.64 19.90-10.32 20.04-6.33C17.70-6.67 15.06-6.84 12.40-6.84C5.05-6.84 2.05-4.78 3.25-0.53ZM7.18-10.98L12.82-10.98C13.55-10.98 14.06-11.48 14.06-12.19C14.06-12.90 13.55-13.38 12.82-13.38L10.02-13.38L10.02-13.42L11.91-15.04C13.00-15.96 13.64-16.93 13.64-17.92C13.64-19.77 12.09-20.98 9.71-20.98C7.97-20.98 6.41-20.20 6-18.88C5.96-18.68 5.93-18.47 5.93-18.26C5.93-17.54 6.45-17.03 7.21-17.03C7.86-17.03 8.29-17.30 8.50-17.84C8.70-18.34 9.06-18.62 9.63-18.62C10.25-18.62 10.66-18.28 10.66-17.79C10.66-17.33 10.36-16.89 9.75-16.37L6.57-13.68C6.09-13.28 5.84-12.81 5.84-12.29C5.84-11.50 6.35-10.98 7.18-10.98ZM6.71-1.51C6.35-2.75 7.52-3.22 12.40-3.22C17.00-3.22 20.12-2.55 21.30-2.55C22.48-2.55 23.31-3.40 23.31-4.57C23.31-9.56 24.19-11.93 26.20-13.69C26.73-14.13 26.94-14.74 26.82-15.57C26.52-17.45 27.28-18.61 28.46-18.61C28.85-18.61 29.02-18.38 28.92-18L24.21 1.03C24.09 1.49 23.93 1.68 23.54 1.68L8.65 1.68C7.75 1.68 7.54 1.48 6.71-1.51Z" fill="currentColor"/>
</svg>