<svg xmlns="http://www.w3.org/2000/svg" viewBox="0 0 24 24" width="24" height="24">
  <title>carseat.right.forward.and.backward</title>
  <path transform="matrix(0.540443912253506, 0, 0, 0.540443912253506, 2.383565240896594, 16.64265224761843)" d="M32.34-5.40C33.54-9.66 30.53-11.71 23.18-11.71C20.53-11.71 17.89-11.53 15.55-11.20C15.69-15.19 14.54-18.50 12.30-20.63C12.53-24 10.32-27.09 7.05-27.09C4.07-27.09 2.45-24.79 3.15-21.95L7.85-2.98C8.40-0.77 9.87 0.42 12.05 0.42L26.94 0.42C29.84 0.42 31.11-0.97 32.34-5.40ZM28.88-6.39C28.04-3.39 27.83-3.20 26.94-3.20L12.05-3.20C11.66-3.20 11.48-3.38 11.38-3.83L6.66-22.86C6.57-23.24 6.74-23.48 7.13-23.48C8.31-23.48 9.07-22.32 8.77-20.45C8.65-19.61 8.86-19.00 9.39-18.55C11.40-16.79 12.28-14.44 12.28-9.45C12.28-8.26 13.10-7.43 14.29-7.43C15.47-7.43 18.59-8.10 23.18-8.10C28.07-8.10 29.23-7.63 28.88-6.39ZM23.11 8.68C23.11 9.75 24.12 10.20 24.96 9.70L29.12 7.24C29.95 6.74 29.94 5.61 29.12 5.12L24.96 2.66C24.09 2.14 23.11 2.65 23.11 3.66ZM17.33 8.70L17.33 3.67C17.33 2.65 16.35 2.16 15.49 2.67L11.33 5.13C10.50 5.61 10.49 6.76 11.33 7.25L15.49 9.71C16.34 10.21 17.33 9.75 17.33 8.70Z" fill="currentColor"/>
</svg>