<svg xmlns="http://www.w3.org/2000/svg" viewBox="0 0 24 24" width="24" height="24">
  <title>case.fill</title>
  <path transform="matrix(0.659708800412318, 0, 0, 0.659708800412318, 0.028604561267877804, 17.581754928488596)" d="M7.54 4.55L28.77 4.55C31.65 4.55 33.30 2.89 33.30 0.01L33.30-11.78C33.30-14.66 31.65-16.31 28.77-16.31L25.17-16.31L25.17-18.02C25.17-20.30 23.80-21.47 21.21-21.47L15.06-21.47C12.48-21.47 11.13-20.30 11.13-18.02L11.13-16.31L7.54-16.31C4.64-16.31 2.99-14.66 2.99-11.78L2.99 0.01C2.99 2.89 4.64 4.55 7.54 4.55ZM14.65-17.44C14.65-18.06 14.96-18.38 15.59-18.38L20.71-18.38C21.33-18.38 21.64-18.05 21.64-17.44L21.64-16.31L14.65-16.31Z" fill="currentColor"/>
</svg>