<svg xmlns="http://www.w3.org/2000/svg" viewBox="0 0 24 24" width="24" height="24">
  <title>cat.circle</title>
  <path transform="matrix(0.7810831426392068, 0, 0, 0.7810831426392068, 0.3615560640732265, 18.608695652173914)" d="M14.89 4.34C21.97 4.34 27.70-1.39 27.70-8.46C27.70-15.53 21.97-21.26 14.89-21.26C7.83-21.26 2.10-15.53 2.10-8.46C2.10-1.39 7.83 4.34 14.89 4.34ZM14.89 0.16C10.13 0.16 6.27-3.69 6.27-8.46C6.27-13.23 10.13-17.09 14.89-17.09C19.66-17.09 23.53-13.23 23.53-8.46C23.53-3.69 19.66 0.16 14.89 0.16ZM11.14-2.27L11.84-2.27C12.48-2.27 12.94-2.63 12.94-3.22C12.94-3.63 12.55-3.96 12.14-4.02L12.14-4.93C12.14-5.44 12.18-5.75 12.26-5.99C12.86-5.75 13.63-5.61 14.44-5.61C15.20-5.61 15.93-5.68 16.46-5.82C16.54-5.65 16.57-5.34 16.57-5.09C16.57-4.46 16.51-4.03 16.51-3.41C16.51-2.66 16.88-2.27 17.66-2.27L18.22-2.27C18.87-2.27 19.35-2.61 19.35-3.22C19.35-3.63 18.96-3.96 18.56-4.02L18.56-4.66C18.56-7.32 20.39-6.16 20.53-9.66C21.42-9.82 22.03-10.39 22.03-10.91C22.03-11.58 21.30-12.29 20.65-12.81C20.44-13.46 20.10-13.93 19.85-13.93C19.59-13.93 19.24-13.43 18.97-12.84C18.59-12.61 18.15-11.94 17.89-11.50L17.74-11.24C17.58-10.93 17.38-10.76 17.10-10.76C15.34-10.76 14.66-11.03 12.80-11.03C11.95-11.03 11.38-10.77 11.00-10.39C10.82-10.22 10.65-10.13 10.34-10.30C9.91-10.52 9.64-10.99 9.64-11.58C9.64-12.47 10.30-13.05 11.34-13.05C11.74-13.05 12.14-12.98 12.64-12.79C13.39-12.46 13.80-13.55 13.07-13.84C12.46-14.10 11.87-14.19 11.34-14.19C9.68-14.19 8.51-13.10 8.51-11.58C8.51-10.48 9.07-9.61 9.93-9.21C10.20-9.09 10.25-8.84 10.25-8.67L10.25-8.13C10.25-6.61 9.55-6.41 9.76-5.53L10.41-2.98C10.54-2.46 10.73-2.27 11.14-2.27ZM20.32-11.21C20.14-11.21 20.02-11.34 20.02-11.52C20.02-11.70 20.14-11.84 20.32-11.84C20.50-11.84 20.63-11.70 20.63-11.52C20.63-11.34 20.50-11.21 20.32-11.21Z" fill="currentColor"/>
</svg>