<svg xmlns="http://www.w3.org/2000/svg" viewBox="0 0 24 24" width="24" height="24">
  
  <path transform="matrix(0.6777866031241726, 0, 0, 0.6777866031241726, -0.025416997617156323, 17.722795869737887)" d="M10.49-4.61L10.49-18.40C10.49-19.41 9.83-20.06 8.86-20.06L6.68-20.06C5.71-20.06 5.06-19.41 5.06-18.40L5.06-4.61C5.06-3.61 5.71-2.94 6.68-2.94L8.86-2.94C9.83-2.94 10.49-3.61 10.49-4.61ZM17.13-4.61L17.13-15.25C17.13-16.25 16.51-16.91 15.53-16.91L13.32-16.91C12.36-16.91 11.71-16.25 11.71-15.25L11.71-4.61C11.71-3.61 12.36-2.94 13.32-2.94L15.53-2.94C16.51-2.94 17.13-3.61 17.13-4.61ZM23.72-4.61L23.72-12.09C23.72-13.09 23.06-13.76 22.10-13.76L19.91-13.76C18.95-13.76 18.29-13.09 18.29-12.09L18.29-4.61C18.29-3.61 18.95-2.94 19.91-2.94L22.10-2.94C23.06-2.94 23.72-3.61 23.72-4.61ZM30.42-4.61L30.42-8.94C30.42-9.94 29.77-10.61 28.80-10.61L26.61-10.61C25.65-10.61 25.00-9.94 25.00-8.94L25.00-4.61C25.00-3.61 25.65-2.94 26.61-2.94L28.80-2.94C29.77-2.94 30.42-3.61 30.42-4.61ZM30.43 3.18C31.62 3.18 32.50 2.38 32.50 1.16C32.50-0.06 31.62-0.86 30.43-0.86L5.05-0.86C3.87-0.86 2.99-0.06 2.99 1.16C2.99 2.38 3.87 3.18 5.05 3.18Z" fill="currentColor"/>
</svg>