<svg xmlns="http://www.w3.org/2000/svg" viewBox="0 0 24 24" width="24" height="24">
  
  <path transform="matrix(0.755831118984352, 0, 0, 0.755831118984352, 1.486271036315323, 18.386182462356068)" d="M2.99 0.18C2.99 3.08 4.69 4.78 7.58 4.78L20.24 4.78C23.14 4.78 24.83 3.08 24.83 0.18L24.83-17.07C24.83-19.98 23.14-21.68 20.24-21.68L7.58-21.68C4.69-21.68 2.99-19.98 2.99-17.07ZM9.06-16.84L15.43-16.84C16.08-16.84 16.52-16.42 16.52-15.79L16.52-14.34C16.52-13.71 16.08-13.29 15.43-13.29L9.06-13.29C8.41-13.29 7.98-13.71 7.98-14.34L7.98-15.79C7.98-16.42 8.41-16.84 9.06-16.84ZM9.06-12.48L18.76-12.48C19.41-12.48 19.84-12.05 19.84-11.41L19.84-9.98C19.84-9.34 19.41-8.92 18.76-8.92L9.06-8.92C8.41-8.92 7.98-9.34 7.98-9.98L7.98-11.41C7.98-12.05 8.41-12.48 9.06-12.48ZM9.06-8.13L16.75-8.13C17.39-8.13 17.81-7.72 17.81-7.08L17.81-5.64C17.81-5.00 17.39-4.57 16.75-4.57L9.06-4.57C8.41-4.57 7.98-5.00 7.98-5.64L7.98-7.08C7.98-7.72 8.41-8.13 9.06-8.13ZM9.06-3.76L14.11-3.76C14.75-3.76 15.21-3.34 15.21-2.71L15.21-1.27C15.21-0.63 14.75-0.21 14.11-0.21L9.06-0.21C8.41-0.21 7.98-0.63 7.98-1.27L7.98-2.71C7.98-3.34 8.41-3.76 9.06-3.76Z" fill="currentColor"/>
</svg>