<svg xmlns="http://www.w3.org/2000/svg" viewBox="0 0 24 24" width="24" height="24">
  <title>character.sutton</title>
  <path transform="matrix(0.7149839407903924, 0, 0, 0.7149839407903924, 2.741516547968161, 18.05362379555928)" d="M12.25 5.52C17.43 5.52 21.50 1.44 21.50-3.74L21.50-16.43C22.36-17.02 22.91-18.01 22.91-19.15C22.91-21 21.47-22.45 19.62-22.45C17.77-22.45 16.31-21 16.31-19.15C16.31-18 16.88-17.02 17.74-16.42L17.74-11.25C16.21-12.36 14.31-13.02 12.23-13.02C7.04-13.02 2.99-8.93 2.99-3.74C2.99 1.44 7.07 5.52 12.25 5.52ZM12.25 1.76C9.16 1.76 6.74-0.64 6.74-3.74C6.74-6.83 9.15-9.26 12.23-9.26C15.32-9.26 17.74-6.83 17.74-3.74C17.74-0.64 15.33 1.76 12.25 1.76Z" fill="currentColor"/>
</svg>