<svg xmlns="http://www.w3.org/2000/svg" viewBox="0 0 24 24" width="24" height="24">
  <title>characters.uppercase</title>
  <path transform="matrix(0.3836068030268974, 0, 0, 0.3836068030268974, 0.8536749831422792, 15.247920881096878)" d="M5.58 0.45C7.04 0.45 7.86-0.22 8.23-1.75L8.58-3.08L13.97-3.08L14.32-1.75C14.70-0.22 15.53 0.45 16.99 0.45C18.64 0.45 19.70-0.54 19.70-2.02C19.70-2.64 19.63-3.12 19.42-3.71L15.83-14.32C15.13-16.39 13.70-17.38 11.32-17.38C9.11-17.38 7.71-16.37 7.00-14.32L3.26-3.46C3.08-2.93 2.99-2.40 2.99-1.95C2.99-0.47 3.97 0.45 5.58 0.45ZM47.29 0.45C50.65 0.45 53.29-1.04 54.46-2.99C54.82-3.59 55.01-4.29 55.01-4.99C55.01-6.28 54.02-7.23 52.69-7.23C51.52-7.23 50.86-6.83 50.16-5.68C49.38-4.37 48.49-3.76 47.30-3.76C45.30-3.76 44.07-5.48 44.07-8.46C44.07-11.40 45.32-13.13 47.29-13.13C48.62-13.13 49.43-12.45 50.39-10.93C51.06-9.89 51.66-9.56 52.80-9.56C54.19-9.56 55.13-10.44 55.13-11.73C55.13-12.32 54.98-12.90 54.71-13.45C53.68-15.67 50.81-17.33 47.29-17.33C41.68-17.33 38.40-14.04 38.40-8.44C38.40-2.85 41.70 0.45 47.29 0.45ZM24.43 0.15L30.91 0.15C34.72 0.15 37.20-1.84 37.20-4.85C37.20-7.14 35.14-8.89 32.75-8.93L32.75-9.02C34.84-9.26 36.40-10.75 36.40-12.76C36.40-15.42 34.28-17.02 30.59-17.02L24.43-17.02C22.75-17.02 21.67-16.05 21.67-14.36L21.67-2.51C21.67-0.80 22.75 0.15 24.43 0.15ZM27.23-10.22L27.23-13.36L29.06-13.36C30.28-13.36 31.01-12.75 31.01-11.78C31.01-10.85 30.25-10.22 29.06-10.22ZM9.55-6.87L11.23-12.91L11.31-12.91L12.98-6.87ZM27.23-3.48L27.23-7.17L29.25-7.17C30.68-7.17 31.54-6.49 31.54-5.37C31.54-4.15 30.68-3.48 29.18-3.48Z" fill="currentColor"/>
</svg>