<svg xmlns="http://www.w3.org/2000/svg" viewBox="0 0 24 24" width="24" height="24">
  
  <path transform="matrix(0.8606488485459741, 0, 0, 0.8606488485459741, -0.571860816944024, 19.286938981341404)" d="M7.58 3.15L21.63 3.15C24.53 3.15 26.23 1.46 26.23-1.44L26.23-15.49C26.23-18.39 24.53-20.09 21.63-20.09L7.58-20.09C4.69-20.09 2.99-18.39 2.99-15.49L2.99-1.44C2.99 1.46 4.69 3.15 7.58 3.15ZM8.21-1.01C7.50-1.01 7.15-1.30 7.15-2.07L7.15-14.85C7.15-15.62 7.50-15.91 8.21-15.91L21-15.91C21.71-15.91 22.07-15.62 22.07-14.85L22.07-2.07C22.07-1.30 21.71-1.01 21-1.01ZM11.41-3.09C12.39-3.09 12.97-3.64 13.20-4.77L13.32-5.25L15.91-5.25L16.03-4.77C16.25-3.64 16.84-3.09 17.81-3.09C18.95-3.09 19.61-3.73 19.61-4.82C19.61-5.10 19.52-5.50 19.36-6.04L17.64-11.38C17.12-13.03 16.13-13.80 14.58-13.80C13.05-13.80 12.13-13.04 11.59-11.38L9.88-6.04C9.70-5.50 9.63-5.10 9.63-4.82C9.63-3.73 10.28-3.09 11.41-3.09ZM13.90-7.84L14.55-10.73L14.67-10.73L15.33-7.84Z" fill="currentColor"/>
</svg>