<svg xmlns="http://www.w3.org/2000/svg" viewBox="0 0 24 24" width="24" height="24">
  <title>checkmark.rectangle.portrait</title>
  <path transform="matrix(0.755831118984352, 0, 0, 0.755831118984352, 1.486271036315323, 18.386182462356068)" d="M2.99 0.18C2.99 3.08 4.69 4.78 7.58 4.78L20.24 4.78C23.14 4.78 24.83 3.08 24.83 0.18L24.83-17.07C24.83-19.98 23.14-21.68 20.24-21.68L7.58-21.68C4.69-21.68 2.99-19.98 2.99-17.07ZM7.15-0.46L7.15-16.44C7.15-17.17 7.44-17.52 8.23-17.52L19.61-17.52C20.38-17.52 20.67-17.17 20.67-16.44L20.67-0.46C20.67 0.27 20.38 0.62 19.61 0.62L8.23 0.62C7.44 0.62 7.15 0.27 7.15-0.46ZM12.74-2.86C13.31-2.86 13.85-3.16 14.18-3.66L18.89-10.76C19.13-11.10 19.23-11.44 19.23-11.73C19.23-12.59 18.48-13.21 17.65-13.21C17.09-13.21 16.64-12.93 16.28-12.33L12.74-6.59L11.14-8.40C10.83-8.75 10.48-8.96 10.01-8.96C9.16-8.96 8.45-8.29 8.45-7.44C8.45-7.04 8.57-6.75 8.89-6.35L11.27-3.61C11.67-3.15 12.14-2.86 12.74-2.86Z" fill="currentColor"/>
</svg>