<svg xmlns="http://www.w3.org/2000/svg" viewBox="0 0 24 24" width="24" height="24">
  
  <path transform="matrix(0.8165869218500797, 0, 0, 0.8165869218500797, -0.4401913875598087, 18.90430622009569)" d="M5.68 2.84C6.40 2.84 6.98 2.59 7.51 2.09L15.96-6.18C16.70-6.91 17.02-7.59 17.02-8.46C16.99-9.34 16.69-10.01 15.96-10.75L7.51-19.00C7.01-19.51 6.41-19.75 5.68-19.75C4.21-19.75 2.99-18.54 2.99-17.09C2.99-16.36 3.29-15.68 3.88-15.11L10.80-8.48L3.88-1.82C3.30-1.25 2.99-0.56 2.99 0.18C2.99 1.62 4.21 2.84 5.68 2.84ZM16.16 2.84C16.88 2.84 17.46 2.59 17.99 2.09L26.44-6.18C27.16-6.91 27.48-7.59 27.48-8.46C27.47-9.34 27.15-10.01 26.44-10.75L17.99-19.00C17.47-19.51 16.89-19.75 16.16-19.75C14.68-19.75 13.45-18.54 13.45-17.09C13.45-16.36 13.76-15.68 14.36-15.11L21.28-8.48L14.36-1.82C13.77-1.25 13.45-0.56 13.45 0.18C13.45 1.62 14.68 2.84 16.16 2.84Z" fill="currentColor"/>
</svg>