<svg xmlns="http://www.w3.org/2000/svg" viewBox="0 0 24 24" width="24" height="24">
  <title>chevron.compact.left.chevron.compact.right</title>
  <path transform="matrix(0.883825306404281, 0, 0, 0.883825306404281, -0.5634386328327285, 19.47281201450026)" d="M19.09 2.86C20.06 2.86 20.78 2.25 21.16 1.45L24.73-6.07C25.21-7.05 25.44-7.55 25.44-8.45C25.44-9.35 25.21-9.84 24.73-10.83L21.16-18.36C20.78-19.16 20.06-19.77 19.09-19.77C17.46-19.75 16.44-18.57 16.44-17.29C16.44-16.56 16.89-15.61 17.30-14.77L20.30-8.45L17.30-2.14C16.89-1.29 16.44-0.35 16.44 0.39C16.44 1.68 17.46 2.85 19.09 2.86ZM9.34 2.86C10.97 2.85 11.98 1.68 11.98 0.39C11.98-0.35 11.53-1.29 11.12-2.14L8.13-8.45L11.12-14.77C11.53-15.61 11.98-16.56 11.98-17.29C11.98-18.57 10.97-19.75 9.34-19.77C8.36-19.77 7.65-19.16 7.27-18.36L3.69-10.83C3.22-9.84 2.99-9.35 2.99-8.45C2.99-7.55 3.22-7.05 3.69-6.07L7.27 1.45C7.65 2.25 8.36 2.86 9.34 2.86Z" fill="currentColor"/>
</svg>