<svg xmlns="http://www.w3.org/2000/svg" viewBox="0 0 24 24" width="24" height="24">
  
  <path transform="matrix(0.8856599204289916, 0, 0, 0.8856599204289916, -0.6466009340944474, 19.654385054488845)" d="M3.73-6.15C3.23-5.64 2.99-5.04 2.99-4.32C2.99-2.86 4.20-1.63 5.65-1.63C6.39-1.63 7.07-1.95 7.64-2.52L14.31-9.45L20.93-2.52C21.49-1.93 22.18-1.63 22.91-1.63C24.35-1.63 25.57-2.86 25.57-4.32C25.57-5.05 25.34-5.65 24.82-6.15L16.57-14.60C15.83-15.33 15.16-15.63 14.29-15.66C13.42-15.66 12.74-15.34 12-14.60Z" fill="currentColor"/>
</svg>