<svg xmlns="http://www.w3.org/2000/svg" viewBox="0 0 24 24" width="24" height="24">
  
  <path transform="matrix(0.8606488485459741, 0, 0, 0.8606488485459741, -0.571860816944024, 19.286938981341404)" d="M7.58 3.15L21.63 3.15C24.53 3.15 26.23 1.46 26.23-1.44L26.23-15.49C26.23-18.39 24.53-20.09 21.63-20.09L7.58-20.09C4.69-20.09 2.99-18.39 2.99-15.49L2.99-1.44C2.99 1.46 4.69 3.15 7.58 3.15ZM8.21-1.01C7.50-1.01 7.15-1.30 7.15-2.07L7.15-14.85C7.15-15.62 7.50-15.91 8.21-15.91L21-15.91C21.71-15.91 22.07-15.62 22.07-14.85L22.07-2.07C22.07-1.30 21.71-1.01 21-1.01ZM10.71-5.40C10.71-5.24 10.85-5.10 11.02-5.10L13.23-5.10L13.23-4.61C13.23-3.74 13.77-3.20 14.61-3.20C15.46-3.20 16.00-3.74 16.00-4.61L16.00-5.10L18.21-5.10C18.38-5.10 18.52-5.24 18.52-5.40C18.52-5.55 18.38-5.70 18.21-5.70L16.00-5.70L16.00-6.62L16.09-6.79L18.21-6.79C18.38-6.79 18.52-6.93 18.52-7.09C18.52-7.24 18.38-7.38 18.21-7.38L16.45-7.38L18.89-11.39C19.08-11.71 19.20-12.02 19.20-12.39C19.20-13.20 18.57-13.73 17.79-13.73C17.19-13.73 16.75-13.42 16.45-12.80L14.67-9.15L14.61-9.15L12.84-12.79C12.54-13.42 12.11-13.73 11.50-13.73C10.65-13.73 10.03-13.20 10.03-12.35C10.03-12 10.15-11.67 10.32-11.38L12.77-7.38L11.02-7.38C10.85-7.38 10.71-7.24 10.71-7.09C10.71-6.93 10.85-6.79 11.02-6.79L13.14-6.79L13.23-6.62L13.23-5.70L11.02-5.70C10.85-5.70 10.71-5.55 10.71-5.40Z" fill="currentColor"/>
</svg>