<svg xmlns="http://www.w3.org/2000/svg" viewBox="0 0 24 24" width="24" height="24">
  <title>circle.grid.2x2</title>
  <path transform="matrix(0.8797250859106529, 0, 0, 0.8797250859106529, -0.6185567010309279, 19.443298969072163)" d="M20.41-9.23C23.33-9.23 25.70-11.61 25.70-14.53C25.70-17.46 23.33-19.83 20.41-19.83C17.48-19.83 15.12-17.46 15.12-14.53C15.12-11.61 17.48-9.23 20.41-9.23ZM8.29-9.22C11.20-9.22 13.57-11.60 13.57-14.52C13.57-17.44 11.20-19.82 8.29-19.82C5.36-19.82 2.99-17.44 2.99-14.52C2.99-11.60 5.36-9.22 8.29-9.22ZM20.41-12.73C19.41-12.73 18.60-13.54 18.60-14.53C18.60-15.54 19.41-16.35 20.41-16.35C21.41-16.35 22.22-15.54 22.22-14.53C22.22-13.54 21.41-12.73 20.41-12.73ZM8.29-12.71C7.28-12.71 6.47-13.52 6.47-14.52C6.47-15.52 7.28-16.32 8.29-16.32C9.28-16.32 10.09-15.52 10.09-14.52C10.09-13.52 9.28-12.71 8.29-12.71ZM20.41 2.88C23.33 2.88 25.70 0.52 25.70-2.40C25.70-5.33 23.33-7.70 20.41-7.70C17.48-7.70 15.12-5.33 15.12-2.40C15.12 0.52 17.48 2.88 20.41 2.88ZM8.29 2.91C11.20 2.91 13.57 0.53 13.57-2.39C13.57-5.32 11.20-7.69 8.29-7.69C5.36-7.69 2.99-5.32 2.99-2.39C2.99 0.53 5.36 2.91 8.29 2.91ZM20.41-0.60C19.41-0.60 18.60-1.41 18.60-2.40C18.60-3.41 19.41-4.22 20.41-4.22C21.41-4.22 22.22-3.41 22.22-2.40C22.22-1.41 21.41-0.60 20.41-0.60ZM8.29-0.59C7.28-0.59 6.47-1.39 6.47-2.39C6.47-3.40 7.28-4.21 8.29-4.21C9.28-4.21 10.09-3.40 10.09-2.39C10.09-1.39 9.28-0.59 8.29-0.59Z" fill="currentColor"/>
</svg>