<svg xmlns="http://www.w3.org/2000/svg" viewBox="0 0 24 24" width="24" height="24">
  
  <path transform="matrix(0.8606488485459741, 0, 0, 0.8606488485459741, -0.571860816944024, 19.286938981341404)" d="M7.58 3.15L21.63 3.15C24.53 3.15 26.23 1.46 26.23-1.44L26.23-15.49C26.23-18.39 24.53-20.09 21.63-20.09L7.58-20.09C4.69-20.09 2.99-18.39 2.99-15.49L2.99-1.44C2.99 1.46 4.69 3.15 7.58 3.15ZM8.21-1.01C7.50-1.01 7.15-1.30 7.15-2.07L7.15-14.85C7.15-15.62 7.50-15.91 8.21-15.91L21-15.91C21.71-15.91 22.07-15.62 22.07-14.85L22.07-2.07C22.07-1.30 21.71-1.01 21-1.01ZM12.60-4.15L14.63-6.18L16.65-4.15C16.97-3.83 17.34-3.68 17.84-3.68C18.74-3.68 19.42-4.37 19.42-5.29C19.42-5.68 19.25-6.07 18.94-6.38L16.89-8.44L18.94-10.50C19.25-10.79 19.42-11.19 19.42-11.59C19.42-12.50 18.74-13.18 17.84-13.18C17.34-13.18 16.97-13.04 16.65-12.71L14.63-10.69L12.60-12.71C12.28-13.04 11.89-13.18 11.40-13.18C10.51-13.18 9.82-12.50 9.82-11.59C9.82-11.19 10.00-10.79 10.30-10.50L12.36-8.44L10.30-6.38C10.00-6.07 9.82-5.68 9.82-5.29C9.82-4.37 10.51-3.68 11.40-3.68C11.89-3.68 12.28-3.83 12.60-4.15Z" fill="currentColor"/>
</svg>