<svg xmlns="http://www.w3.org/2000/svg" viewBox="0 0 24 24" width="24" height="24">
  
  <path transform="matrix(0.7810831426392068, 0, 0, 0.7810831426392068, 0.3615560640732265, 18.608695652173914)" d="M14.89 4.34C21.97 4.34 27.70-1.39 27.70-8.46C27.70-15.53 21.97-21.26 14.89-21.26C7.83-21.26 2.10-15.53 2.10-8.46C2.10-1.39 7.83 4.34 14.89 4.34ZM9.90-6.14C9.09-6.14 8.45-6.79 8.45-7.59C8.45-8.40 9.09-9.05 9.90-9.05L13.44-9.05L13.44-14.26C13.44-15.08 14.09-15.71 14.89-15.71C15.71-15.71 16.35-15.08 16.35-14.26L16.35-7.59C16.35-6.79 15.71-6.14 14.89-6.14Z" fill="currentColor"/>
</svg>