<svg xmlns="http://www.w3.org/2000/svg" viewBox="0 0 24 24" width="24" height="24">
  
  <path transform="matrix(0.5407689057879171, 0, 0, 0.5407689057879171, 1.4296577946768079, 16.89226869455006)" d="M25.23-17.25C26.03-17.25 26.67-17.93 26.67-18.73L26.67-20.67C26.67-21.47 26.03-22.14 25.23-22.14C24.43-22.14 23.79-21.47 23.79-20.67L23.79-18.73C23.79-17.93 24.43-17.25 25.23-17.25ZM17.55-14.95C18.13-14.38 19.05-14.37 19.61-14.93C20.17-15.48 20.14-16.39 19.58-16.98L18.22-18.38C17.68-18.95 16.71-18.94 16.16-18.38C15.60-17.82 15.62-16.90 16.18-16.34ZM30.87-14.92C31.42-14.36 32.37-14.38 32.92-14.94L34.30-16.31C34.88-16.86 34.88-17.81 34.31-18.36C33.76-18.93 32.84-18.91 32.26-18.34L30.88-16.98C30.30-16.42 30.30-15.47 30.87-14.92ZM28.89-4.38C30.39-5.43 31.39-7.27 31.39-9.32C31.39-12.70 28.64-15.45 25.25-15.45C23.03-15.45 21.07-14.26 20.11-12.66C20.66-12.12 21.13-11.48 21.52-10.72C25.09-10.55 28.15-7.95 28.89-4.38ZM6.29 4.04L20.74 4.04C24.20 4.04 26.79 1.35 26.79-2.24C26.79-6.01 24-8.75 20.16-8.73C18.98-10.90 16.73-13.03 12.81-13.03C8.51-13.03 5.00-9.88 4.68-5.68C2.47-5.13 1.05-3.26 1.05-0.91C1.05 2.04 3.18 4.04 6.29 4.04ZM34.63-7.88L36.57-7.88C37.38-7.88 38.04-8.51 38.04-9.30C38.04-10.10 37.38-10.76 36.57-10.76L34.63-10.76C33.84-10.76 33.16-10.10 33.16-9.30C33.16-8.51 33.84-7.88 34.63-7.88ZM32.25-0.26C32.82 0.32 33.75 0.33 34.30-0.23C34.86-0.80 34.83-1.70 34.28-2.29L32.92-3.68C32.38-4.25 31.41-4.24 30.86-3.68C30.29-3.13 30.32-2.20 30.88-1.64Z" fill="currentColor"/>
</svg>