<svg xmlns="http://www.w3.org/2000/svg" viewBox="0 0 24 24" width="24" height="24">
  <title>cloud.moon.circle.fill</title>
  <path transform="matrix(0.7810831426392068, 0, 0, 0.7810831426392068, 0.3615560640732265, 18.599542334096114)" d="M14.89 4.35C21.97 4.35 27.70-1.38 27.70-8.45C27.70-15.52 21.97-21.25 14.89-21.25C7.83-21.25 2.10-15.52 2.10-8.45C2.10-1.38 7.83 4.35 14.89 4.35ZM22.65-9.88C22.65-8.88 21.62-7.50 19.97-7.08C19.69-8.78 18.40-10.04 16.65-10.29C16.49-10.49 16.31-10.71 16.10-10.93C16.34-12.63 17.89-13.77 18.83-13.78C19.07-13.78 19.20-13.66 19.20-13.46C19.20-13.14 18.89-12.60 18.89-11.81C18.89-10.70 19.63-9.97 20.85-9.98C21.62-9.98 22.04-10.29 22.35-10.29C22.55-10.29 22.65-10.11 22.65-9.88ZM9.93-3.54C8.51-3.54 7.55-4.45 7.55-5.81C7.55-6.84 8.16-7.68 9.11-7.99C9.32-9.82 10.88-11.20 12.77-11.20C14.51-11.20 15.52-10.28 16.05-9.30C17.78-9.30 19.01-8.06 19.01-6.36C19.01-4.75 17.84-3.54 16.24-3.54Z" fill="currentColor"/>
</svg>