<svg xmlns="http://www.w3.org/2000/svg" viewBox="0 0 24 24" width="24" height="24">
  <title>cloud.fog.circle</title>
  <path transform="matrix(0.7810831426392068, 0, 0, 0.7810831426392068, 0.3615560640732265, 18.608695652173914)" d="M14.89 4.34C21.97 4.34 27.70-1.39 27.70-8.46C27.70-15.53 21.97-21.26 14.89-21.26C7.83-21.26 2.10-15.53 2.10-8.46C2.10-1.39 7.83 4.34 14.89 4.34ZM14.89 0.16C10.13 0.16 6.27-3.69 6.27-8.46C6.27-13.23 10.13-17.09 14.89-17.09C19.66-17.09 23.53-13.23 23.53-8.46C23.53-3.69 19.66 0.16 14.89 0.16ZM11.72-7.24L17.68-7.24C19.36-7.24 20.65-8.51 20.65-10.16C20.65-11.86 19.37-13.15 17.66-13.15C17.02-14.37 15.94-15 14.46-15C12.59-15 11.05-13.73 10.77-11.86C9.76-11.48 9.16-10.66 9.16-9.63C9.16-8.25 10.21-7.24 11.72-7.24ZM11.39-4.84L18.41-4.84C18.74-4.84 19.01-5.11 19.01-5.44C19.01-5.77 18.74-6.04 18.41-6.04L11.39-6.04C11.06-6.04 10.79-5.77 10.79-5.44C10.79-5.11 11.06-4.84 11.39-4.84ZM11.39-2.72L18.41-2.72C18.74-2.72 19.01-2.99 19.01-3.33C19.01-3.66 18.74-3.93 18.41-3.93L11.39-3.93C11.06-3.93 10.79-3.66 10.79-3.33C10.79-2.99 11.06-2.72 11.39-2.72Z" fill="currentColor"/>
</svg>