<svg xmlns="http://www.w3.org/2000/svg" viewBox="0 0 24 24" width="24" height="24">
  
  <path transform="matrix(0.7810831426392068, 0, 0, 0.7810831426392068, 0.3615560640732265, 18.608695652173914)" d="M14.89 4.34C21.97 4.34 27.70-1.39 27.70-8.46C27.70-15.53 21.97-21.26 14.89-21.26C7.83-21.26 2.10-15.53 2.10-8.46C2.10-1.39 7.83 4.34 14.89 4.34ZM14.89 0.16C10.13 0.16 6.27-3.69 6.27-8.46C6.27-13.23 10.13-17.09 14.89-17.09C19.66-17.09 23.53-13.23 23.53-8.46C23.53-3.69 19.66 0.16 14.89 0.16ZM11.71-7.69L17.67-7.69C19.35-7.69 20.64-8.96 20.64-10.62C20.64-12.32 19.37-13.61 17.65-13.61C17.02-14.82 15.93-15.45 14.45-15.45C12.57-15.45 11.05-14.19 10.76-12.32C9.75-11.93 9.15-11.12 9.15-10.09C9.15-8.71 10.20-7.69 11.71-7.69ZM12.41-4.20C12.34-4.03 12.40-3.91 12.57-3.91L13.92-3.91L13.02-1.71C12.97-1.63 13.01-1.55 13.07-1.52C13.14-1.49 13.22-1.50 13.29-1.58L17.32-5.09C17.48-5.23 17.43-5.45 17.23-5.45L15.55-5.45L16.11-6.53C16.18-6.68 16.14-6.80 15.97-6.80L13.78-6.80C13.59-6.80 13.51-6.73 13.45-6.57Z" fill="currentColor"/>
</svg>