<svg xmlns="http://www.w3.org/2000/svg" viewBox="0 0 24 24" width="24" height="24">
  
  <path transform="matrix(0.6538952745849298, 0, 0, 0.6538952745849298, 0.6283524904214559, 17.800766283524904)" d="M8.86 1.48L24.74 1.48C29.21 1.48 32.68-1.92 32.68-6.34C32.68-10.80 29.31-14.29 24.69-14.29C23.00-17.53 20.07-19.22 16.16-19.22C11.24-19.22 7.18-15.83 6.39-10.83C3.69-9.87 2.10-7.63 2.10-4.95C2.10-1.23 4.92 1.48 8.86 1.48ZM9.01-2.13C6.95-2.13 5.71-3.16 5.71-4.88C5.71-6.39 6.69-7.41 8.67-7.92C9.39-8.10 9.62-8.37 9.76-9.26C10.42-13.28 12.76-15.61 16.16-15.61C18.57-15.61 20.61-14.21 22.02-11.64C22.37-10.96 22.73-10.75 23.54-10.75C27.05-10.75 29.07-9.06 29.07-6.25C29.07-3.84 27.22-2.13 24.61-2.13Z" fill="currentColor"/>
</svg>