<svg xmlns="http://www.w3.org/2000/svg" viewBox="0 0 24 24" width="24" height="24">
  <title>coloncurrencysign.circle</title>
  <path transform="matrix(0.7810831426392068, 0, 0, 0.7810831426392068, 0.3615560640732265, 18.608695652173914)" d="M14.89 4.34C21.97 4.34 27.70-1.39 27.70-8.46C27.70-15.53 21.97-21.26 14.89-21.26C7.83-21.26 2.10-15.53 2.10-8.46C2.10-1.39 7.83 4.34 14.89 4.34ZM14.89 0.16C10.13 0.16 6.27-3.69 6.27-8.46C6.27-13.23 10.13-17.09 14.89-17.09C19.66-17.09 23.53-13.23 23.53-8.46C23.53-3.69 19.66 0.16 14.89 0.16ZM12.76-2.39C12.91-2.39 13.01-2.47 13.04-2.61L13.31-3.80C13.63-3.71 13.97-3.66 14.32-3.62L14.13-2.80C14.12-2.74 14.12-2.72 14.12-2.68C14.12-2.52 14.23-2.39 14.40-2.39C14.55-2.39 14.65-2.47 14.68-2.61L14.92-3.60L14.95-3.60C16.63-3.60 18.38-4.32 18.98-5.87C19.10-6.14 19.14-6.34 19.14-6.62C19.14-7.36 18.62-7.83 17.87-7.83C17.27-7.83 16.92-7.54 16.68-7.00C16.42-6.41 16.01-6 15.43-5.84L16.49-10.35C16.55-10.27 16.59-10.18 16.64-10.09C16.92-9.53 17.27-9.26 17.88-9.26C18.54-9.26 19.07-9.63 19.07-10.42C19.07-10.76 18.97-11.10 18.80-11.40C18.40-12.16 17.80-12.67 17.11-13.00L17.40-14.24C17.41-14.30 17.41-14.32 17.41-14.34C17.41-14.52 17.31-14.65 17.13-14.65C16.98-14.65 16.89-14.57 16.85-14.43L16.56-13.21C16.24-13.30 15.90-13.37 15.56-13.41L15.76-14.24C15.77-14.30 15.77-14.32 15.77-14.34C15.77-14.52 15.67-14.65 15.49-14.65C15.33-14.65 15.23-14.57 15.21-14.43L14.98-13.44C14.93-13.44 14.89-13.44 14.85-13.44C11.80-13.44 10.14-11.47 10.14-8.51C10.14-6.26 11.06-4.68 12.76-3.98L12.49-2.80C12.47-2.74 12.47-2.72 12.47-2.68C12.47-2.52 12.59-2.39 12.76-2.39ZM13.85-6.09L15.06-11.26C15.46-11.23 15.76-11.10 16.02-10.89L14.82-5.77C14.47-5.77 14.12-5.88 13.85-6.09ZM12.95-8.53C12.95-9.77 13.38-10.98 14.46-11.23L13.38-6.62C13.07-7.15 12.95-7.85 12.95-8.53Z" fill="currentColor"/>
</svg>