<svg xmlns="http://www.w3.org/2000/svg" viewBox="0 0 24 24" width="24" height="24">
  
  <path transform="matrix(0.7810831426392068, 0, 0, 0.7810831426392068, 0.3615560640732265, 18.599542334096114)" d="M14.89 4.35C21.97 4.35 27.70-1.38 27.70-8.45C27.70-15.52 21.97-21.25 14.89-21.25C7.83-21.25 2.10-15.52 2.10-8.45C2.10-1.38 7.83 4.35 14.89 4.35ZM11.48-2.40C10.00-2.40 8.84-3.60 8.84-5.04C8.84-6.52 10.02-7.69 11.47-7.69L12.22-7.69L12.22-9.21L11.47-9.21C10.02-9.21 8.84-10.38 8.84-11.86C8.84-13.30 10.00-14.50 11.48-14.50C12.93-14.50 14.12-13.29 14.12-11.86L14.12-11.11L15.68-11.11L15.68-11.86C15.68-13.29 16.88-14.50 18.32-14.50C19.79-14.50 20.96-13.30 20.96-11.86C20.96-10.38 19.78-9.21 18.33-9.21L17.58-9.21L17.58-7.69L18.33-7.69C19.78-7.69 20.96-6.52 20.96-5.04C20.96-3.60 19.79-2.40 18.32-2.40C16.88-2.40 15.68-3.61 15.68-5.04L15.68-5.79L14.12-5.79L14.12-5.04C14.12-3.61 12.93-2.40 11.48-2.40ZM10.78-11.85C10.78-11.46 11.11-11.11 11.58-11.11L12.22-11.11L12.22-11.77C12.22-12.22 11.87-12.55 11.48-12.55C11.07-12.55 10.78-12.23 10.78-11.85ZM17.58-11.11L18.23-11.11C18.69-11.11 19.02-11.46 19.02-11.85C19.02-12.23 18.71-12.55 18.32-12.55C17.92-12.55 17.58-12.22 17.58-11.77ZM14.12-7.69L15.68-7.69L15.68-9.21L14.12-9.21ZM11.48-4.34C11.87-4.34 12.22-4.69 12.22-5.13L12.22-5.79L11.58-5.79C11.11-5.79 10.78-5.44 10.78-5.05C10.78-4.65 11.07-4.34 11.48-4.34ZM17.58-5.13C17.58-4.66 17.92-4.34 18.32-4.34C18.71-4.34 19.02-4.65 19.02-5.05C19.02-5.44 18.69-5.79 18.23-5.79L17.58-5.79Z" fill="currentColor"/>
</svg>