<svg xmlns="http://www.w3.org/2000/svg" viewBox="0 0 24 24" width="24" height="24">
  
  <path transform="matrix(0.8628244017526121, 0, 0, 0.8628244017526121, -0.578361981799798, 19.285136501516686)" d="M8.05 3.12C10.91 3.12 13.08 0.81 13.08-1.92L13.08-3.35L16.08-3.35L16.08-1.92C16.08 0.82 18.35 3.12 21.11 3.12C23.93 3.12 26.17 0.83 26.17-1.92C26.17-4.71 23.92-6.95 21.13-6.95L19.70-6.95L19.70-9.93L21.13-9.93C23.92-9.93 26.17-12.16 26.17-14.95C26.17-17.71 23.93-20.00 21.11-20.00C18.35-20.00 16.08-17.70 16.08-14.95L16.08-13.52L13.08-13.52L13.08-14.95C13.08-17.70 10.82-20.00 8.05-20.00C5.24-20.00 2.99-17.71 2.99-14.95C2.99-12.16 5.25-9.93 8.04-9.93L9.46-9.93L9.46-6.95L8.04-6.95C5.25-6.95 2.99-4.71 2.99-1.92C2.99 0.83 5.24 3.12 8.05 3.12ZM8.20-13.52C7.29-13.52 6.64-14.16 6.64-14.94C6.64-15.71 7.27-16.34 8.05-16.34C8.80-16.34 9.46-15.69 9.46-14.79L9.46-13.52ZM21.11-16.34C21.89-16.34 22.51-15.71 22.51-14.94C22.51-14.16 21.87-13.52 20.95-13.52L19.70-13.52L19.70-14.79C19.70-15.69 20.36-16.34 21.11-16.34ZM13.08-6.95L13.08-9.93L16.08-9.93L16.08-6.95ZM6.64-1.95C6.64-2.72 7.29-3.35 8.20-3.35L9.46-3.35L9.46-2.09C9.46-1.20 8.80-0.54 8.05-0.54C7.27-0.54 6.64-1.16 6.64-1.95ZM19.70-2.09L19.70-3.35L20.95-3.35C21.87-3.35 22.51-2.72 22.51-1.95C22.51-1.16 21.89-0.54 21.11-0.54C20.36-0.54 19.70-1.18 19.70-2.09Z" fill="currentColor"/>
</svg>