<svg xmlns="http://www.w3.org/2000/svg" viewBox="0 0 24 24" width="24" height="24">
  
  <path transform="matrix(0.765664722596082, 0, 0, 0.765664722596082, -0.29699416778824617, 18.301150646223434)" d="M6.46 0.50L9 0.77C9.89 2.33 11.57 3.38 13.52 3.38C15.68 3.38 17.50 2.11 18.28 0.28L29.12 0.28L29.12-3.34L18.50-3.34C17.87-5.50 15.90-7.02 13.52-7.02C10.99-7.02 8.94-5.30 8.44-2.94L7.31-3.07C6.89-3.12 6.63-3.40 6.63-3.81L6.63-5.57C6.63-7.17 7.64-8.10 10.22-8.58L17.85-10.01L29.12-10.63L29.12-14.24L24.22-13.98C25.48-14.82 26.78-15.63 28.13-16.41C30.34-17.70 28.46-20.77 26.31-19.56C23.14-17.79 20.20-15.74 17.73-13.63L16.38-13.38L12.06-17.70C11.17-18.57 10.50-18.96 8.71-18.96L5.30-18.96C4.29-18.96 3.59-18.26 3.59-17.29C3.59-16.31 4.28-15.60 5.30-15.60L8.60-15.60C9.23-15.60 9.50-15.42 9.88-15.06L12.30-12.62L9.68-12.14C5.32-11.33 3-9.15 3-5.57L3-3.38C3-1.01 4.11 0.25 6.46 0.50ZM13.52-0.08C12.54-0.08 11.78-0.84 11.78-1.82C11.78-2.80 12.54-3.57 13.52-3.57C14.50-3.57 15.27-2.80 15.27-1.82C15.27-0.84 14.50-0.08 13.52-0.08Z" fill="currentColor"/>
</svg>