<svg xmlns="http://www.w3.org/2000/svg" viewBox="0 0 24 24" width="24" height="24">
  
  <path transform="matrix(0.4076829000032793, 0, 0, 0.4076829000032793, 0.7817288339745756, 16.66852014369923)" d="M36.83-18.70L36.80-20.48C39.41-20.66 42.83-20.37 45.76-19.17L45.16-17.54C44.80-16.57 45.40-16.07 46.35-16.34L51.25-17.65C52.05-17.86 52.27-18.54 51.81-19.20L48.89-23.38C48.35-24.16 47.60-24.15 47.24-23.19L46.68-21.64C43.32-23.10 39.47-23.32 36.74-23.10L36.70-24.69C36.68-25.73 35.98-25.98 35.20-25.43L31.08-22.42C30.41-21.94 30.42-21.26 31.09-20.80L35.31-17.91C36.14-17.34 36.86-17.65 36.83-18.70ZM39.82-14.19C37.91-14.52 35.74-14.60 33.40-14.47L24.71-14.00C25.90-14.95 27.01-15.68 28.16-16.43C30.21-17.78 28.49-20.78 26.30-19.56C23.12-17.77 20.25-15.79 17.72-13.63L9.67-12.14C5.31-11.33 2.99-9.15 2.99-5.57L2.99-3.38C2.99-1.01 4.08 0.23 6.45 0.50L8.13 0.69C7.91 0.18 7.78-0.52 7.78-1.22C7.78-4.41 10.39-7.01 13.59-7.01C16.77-7.01 19.38-4.41 19.38-1.22C19.38-0.69 19.31-0.19 19.18 0.28L33.63 0.28C33.50-0.20 33.43-0.69 33.43-1.22C33.43-4.41 36.05-7.01 39.23-7.01C42.42-7.01 45.04-4.38 45.04-1.20C45.04-0.84 45-0.52 44.95-0.19L45.60-0.26C48.42-0.55 49.82-2.12 49.82-5.03L49.82-7.84C49.82-11.20 48.49-12.67 45.40-13.21ZM13.59 2.81C15.80 2.81 17.61 1.01 17.61-1.22C17.61-3.43 15.80-5.24 13.59-5.24C11.37-5.24 9.55-3.43 9.55-1.22C9.55 1.01 11.37 2.81 13.59 2.81ZM39.23 2.81C41.45 2.81 43.27 1.01 43.27-1.22C43.27-3.43 41.45-5.24 39.23-5.24C37.02-5.24 35.20-3.43 35.20-1.22C35.20 1.01 37.02 2.81 39.23 2.81Z" fill="currentColor"/>
</svg>