<svg xmlns="http://www.w3.org/2000/svg" viewBox="0 0 24 24" width="24" height="24">
  
  <path transform="matrix(0.42709376042709374, 0, 0, 0.42709376042709374, 0.7237237237237237, 15.736236236236238)" d="M26.38-10.77C27.64-10.77 28.43-11.47 28.49-12.79L28.75-18.53C28.79-19.93 27.86-20.87 26.36-20.87C24.84-20.87 23.88-19.93 23.95-18.53L24.25-12.74C24.29-11.47 25.09-10.77 26.38-10.77ZM6.45 0.50L8.99 0.77C9.88 2.33 11.55 3.38 13.51 3.38C15.67 3.38 17.48 2.11 18.27 0.28L34.54 0.28C35.32 2.11 37.14 3.38 39.30 3.38C41.61 3.38 43.54 1.93 44.23-0.12L45.60-0.26C48.42-0.54 49.82-2.12 49.82-5.03L49.82-7.84C49.82-11.20 48.47-12.67 45.40-13.21L39.84-14.17C37.85-14.51 36.08-14.61 34.09-14.51L30.40-14.31L30.29-10.69L33.88-10.88C35.84-10.99 37.14-10.90 39.04-10.55L44.79-9.54C45.76-9.36 46.20-8.96 46.20-7.84L46.20-5.03C46.20-4.28 45.84-3.88 45.18-3.81L44.16-3.71C43.41-5.67 41.54-7.02 39.30-7.02C36.91-7.02 34.96-5.50 34.32-3.34L18.49-3.34C17.86-5.50 15.89-7.02 13.51-7.02C10.98-7.02 8.93-5.30 8.43-2.94L7.30-3.07C6.88-3.12 6.62-3.40 6.62-3.81L6.62-5.57C6.62-7.17 7.63-8.10 10.21-8.58L17.84-10.00L22.50-10.25L22.41-13.10L22.41-13.43L22.23-16.75L17.72-13.63L9.67-12.14C5.31-11.33 2.99-9.15 2.99-5.57L2.99-3.38C2.99-1.01 4.10 0.25 6.45 0.50ZM26.38-4.83C27.84-4.83 28.83-5.74 28.83-7.09C28.83-8.44 27.84-9.34 26.38-9.34C24.89-9.34 23.88-8.44 23.88-7.09C23.88-5.74 24.89-4.83 26.38-4.83ZM13.51-0.08C12.53-0.08 11.77-0.84 11.77-1.82C11.77-2.80 12.53-3.57 13.51-3.57C14.48-3.57 15.26-2.80 15.26-1.82C15.26-0.84 14.48-0.08 13.51-0.08ZM39.30-0.08C38.32-0.08 37.56-0.84 37.56-1.82C37.56-2.80 38.32-3.57 39.30-3.57C40.28-3.57 41.05-2.80 41.05-1.82C41.05-0.84 40.28-0.08 39.30-0.08Z" fill="currentColor"/>
</svg>