<svg xmlns="http://www.w3.org/2000/svg" viewBox="0 0 24 24" width="24" height="24">
  <title>convertible.side.hill.down.fill</title>
  <path transform="matrix(0.4499714984509719, 0, 0, 0.4499714984509719, 0.656759857765514, 15.863501268349065)" d="M31.86-23.85C30.46-23.33 28.98-22.55 27.46-21.56L21.82-17.88C22.24-18.97 22.71-19.90 23.19-20.84C24.05-22.52 21.73-23.87 20.74-22.21C19.31-19.79 18.15-17.36 17.30-14.94L12.48-10.83C9.88-8.61 9.18-6.26 10.56-3.86L11.40-2.39C12.32-0.81 13.52-0.40 15.21-1.14L16.41-1.66C16.07-1.92 15.71-2.33 15.45-2.80C14.20-4.93 14.95-7.68 17.09-8.92C19.22-10.15 21.96-9.41 23.20-7.28C23.40-6.93 23.54-6.56 23.64-6.20L33.30-11.78C33.04-12.05 32.80-12.35 32.59-12.70C31.36-14.84 32.11-17.59 34.24-18.82C36.36-20.05 39.13-19.30 40.36-17.17C40.49-16.93 40.61-16.70 40.69-16.46L41.10-16.76C42.88-18.05 43.21-19.64 42.08-21.59L40.99-23.46C39.70-25.71 38.24-26.18 35.98-25.35ZM38.03-12.26C39.50-13.10 40.02-15.01 39.16-16.50C38.31-17.99 36.40-18.49 34.92-17.64C33.43-16.78 32.92-14.87 33.77-13.38C34.63-11.89 36.54-11.39 38.03-12.26ZM12.19 7.57C12.75 8.51 13.95 8.84 14.84 8.31L46.48-9.95C47.38-10.48 47.71-11.67 47.18-12.59C46.63-13.52 45.43-13.84 44.53-13.32L12.90 4.95C12 5.47 11.66 6.66 12.19 7.57ZM20.88-2.36C22.36-3.20 22.88-5.11 22.02-6.60C21.15-8.09 19.25-8.59 17.77-7.73C16.29-6.88 15.76-4.97 16.63-3.48C17.48-1.99 19.39-1.49 20.88-2.36ZM9.15 1.23L6.50-3.34C5.89-4.38 4.64-4.13 4.30-3.09L3.06 0.73C2.82 1.44 3.16 2.03 3.89 2.17L7.82 3.01C8.88 3.22 9.75 2.27 9.15 1.23Z" fill="currentColor"/>
</svg>