<svg xmlns="http://www.w3.org/2000/svg" viewBox="0 0 24 24" width="24" height="24">
  <title>cpu.fill</title>
  <path transform="matrix(0.7975077881619937, 0, 0, 0.7975077881619937, -0.3831775700934581, 18.738317757009344)" d="M2.99-4.44C2.99-3.69 3.60-3.07 4.36-3.07L5.37-3.07L5.37 0.39C5.37 1.18 5.89 1.71 6.69 1.71L10.15 1.71L10.15 2.73C10.15 3.48 10.76 4.09 11.51 4.09C12.27 4.09 12.88 3.48 12.88 2.73L12.88 1.71L14.16 1.71L14.16 2.73C14.16 3.48 14.78 4.09 15.53 4.09C16.29 4.09 16.90 3.48 16.90 2.73L16.90 1.71L18.18 1.71L18.18 2.73C18.18 3.48 18.80 4.09 19.55 4.09C20.31 4.09 20.92 3.48 20.92 2.73L20.92 1.71L24.38 1.71C25.16 1.71 25.69 1.18 25.69 0.39L25.69-3.07L26.71-3.07C27.46-3.07 28.07-3.69 28.07-4.44C28.07-5.20 27.46-5.81 26.71-5.81L25.69-5.81L25.69-7.09L26.71-7.09C27.46-7.09 28.07-7.71 28.07-8.46C28.07-9.22 27.46-9.83 26.71-9.83L25.69-9.83L25.69-11.11L26.71-11.11C27.46-11.11 28.07-11.73 28.07-12.48C28.07-13.23 27.46-13.85 26.71-13.85L25.69-13.85L25.69-17.29C25.69-18.08 25.16-18.61 24.38-18.61L20.92-18.61L20.92-19.62C20.92-20.38 20.31-20.99 19.55-20.99C18.80-20.99 18.18-20.38 18.18-19.62L18.18-18.61L16.90-18.61L16.90-19.62C16.90-20.38 16.29-20.99 15.53-20.99C14.78-20.99 14.16-20.38 14.16-19.62L14.16-18.61L12.88-18.61L12.88-19.62C12.88-20.38 12.27-20.99 11.51-20.99C10.76-20.99 10.15-20.38 10.15-19.62L10.15-18.61L6.69-18.61C5.89-18.61 5.37-18.08 5.37-17.29L5.37-13.85L4.36-13.85C3.60-13.85 2.99-13.23 2.99-12.48C2.99-11.72 3.60-11.11 4.36-11.11L5.37-11.11L5.37-9.83L4.36-9.83C3.60-9.83 2.99-9.21 2.99-8.46C2.99-7.71 3.60-7.09 4.36-7.09L5.37-7.09L5.37-5.81L4.36-5.81C3.60-5.81 2.99-5.20 2.99-4.44ZM11.61-3.67C11.07-3.67 10.73-4.02 10.73-4.56L10.73-12.36C10.73-12.90 11.07-13.25 11.61-13.25L19.46-13.25C19.99-13.25 20.34-12.90 20.34-12.36L20.34-4.56C20.34-4.02 19.99-3.67 19.46-3.67ZM13.46-6.62C13.46-6.49 13.56-6.41 13.69-6.41L17.39-6.41C17.52-6.41 17.61-6.49 17.61-6.62L17.61-10.30C17.61-10.43 17.52-10.52 17.39-10.52L13.69-10.52C13.56-10.52 13.46-10.43 13.46-10.30Z" fill="currentColor"/>
</svg>