<svg xmlns="http://www.w3.org/2000/svg" viewBox="0 0 24 24" width="24" height="24">
  <title>cross.vial</title>
  <path transform="matrix(0.6504065040650406, 0, 0, 0.6504065040650406, 4.111280487804878, 17.49542682926829)" d="M2.99 2.09C2.99 4.95 4.93 6.93 7.77 6.93L16.49 6.93C19.34 6.93 21.27 4.95 21.27 2.09L21.27-10.78C21.27-13.44 19.62-15.33 17.12-15.60L17.12-16.38C18.38-16.64 19.08-17.61 19.08-19.09L19.08-21.06C19.08-22.79 18.08-23.82 16.36-23.82L7.90-23.82C6.18-23.82 5.18-22.79 5.18-21.06L5.18-19.09C5.18-17.61 5.89-16.64 7.14-16.38L7.14-15.60C4.65-15.33 2.99-13.44 2.99-10.78ZM8.73-19.89L8.73-20.26C8.73-20.44 8.84-20.55 9.02-20.55L15.50-20.55C15.69-20.55 15.80-20.44 15.80-20.26L15.80-19.89C15.80-19.70 15.69-19.61 15.50-19.61L9.02-19.61C8.84-19.61 8.73-19.70 8.73-19.89ZM10.05-15.63L10.05-16.30L14.20-16.30L14.20-15.63ZM6.61 2.06L6.61-10.76C6.61-11.53 7.08-12 7.88-12L16.38-12C17.18-12 17.66-11.53 17.66-10.76L17.66 2.06C17.66 2.82 17.18 3.32 16.38 3.32L7.88 3.32C7.08 3.32 6.61 2.82 6.61 2.06ZM8.00-3.90C8.00-3.21 8.46-2.74 9.15-2.74L10.52-2.74L10.52-1.36C10.52-0.68 11.00-0.21 11.68-0.21L12.57-0.21C13.25-0.21 13.73-0.68 13.73-1.36L13.73-2.74L15.11-2.74C15.80-2.74 16.25-3.21 16.25-3.90L16.25-4.77C16.25-5.47 15.80-5.93 15.11-5.93L13.73-5.93L13.73-7.32C13.73-8.00 13.25-8.47 12.57-8.47L11.68-8.47C11.00-8.47 10.52-8.00 10.52-7.32L10.52-5.93L9.15-5.93C8.46-5.93 8.00-5.47 8.00-4.77Z" fill="currentColor"/>
</svg>