<svg xmlns="http://www.w3.org/2000/svg" viewBox="0 0 24 24" width="24" height="24">
  <title>cruzeirosign</title>
  <path transform="matrix(0.9598800149981253, 0, 0, 0.9598800149981253, 0.2620922384701916, 20.11023622047244)" d="M12.95 1.97C16.28 1.97 19.89 0.61 21.16-2.26C21.33-2.67 21.47-3.13 21.47-3.60C21.47-5.03 20.32-5.81 18.88-5.81C17.67-5.81 16.88-5.19 16.35-4.16C15.67-2.80 14.88-2.12 13.59-1.97L13.59-4.14C13.59-5.24 13.92-6.09 14.60-6.71C15.27-7.35 16.05-7.66 16.96-7.66C17.58-7.66 17.66-7.56 18.08-7.56C18.53-7.56 18.94-7.78 18.94-8.38C18.94-8.66 18.79-8.89 18.52-9.07C18.14-9.32 17.52-9.39 17.04-9.39C15.04-9.39 13.98-7.91 13.65-6.82L13.54-6.82L13.54-8.50C13.54-8.98 13.25-9.28 12.83-9.28C12.36-9.28 12.06-8.98 12.06-8.50L12.06-2.06C9.63-2.66 8.95-5.55 8.95-8.47C8.95-11.54 10.09-14.29 13.16-14.29C14.98-14.29 15.74-13.71 16.41-12.45C16.98-11.36 17.73-10.88 18.94-10.88C20.33-10.88 21.34-11.70 21.34-13.08C21.34-13.71 21.13-14.41 20.77-14.98C19.14-17.81 16.04-18.87 12.75-18.87C6.48-18.87 2.99-14.73 2.99-8.46C2.99-2.00 6.63 1.97 12.95 1.97Z" fill="currentColor"/>
</svg>