<svg xmlns="http://www.w3.org/2000/svg" viewBox="0 0 24 24" width="24" height="24">
  <title>curtains.closed</title>
  <path transform="matrix(0.6009389671361502, 0, 0, 0.6009389671361502, 0.204225352112676, 17.352112676056336)" d="M9.61 4.70L17.26 4.70C18.14 4.70 18.73 4.10 18.73 3.22L18.73-17.46L20.53-17.46L20.53 3.22C20.53 4.10 21.12 4.70 22.00 4.70L29.65 4.70C30.54 4.70 31.13 4.10 31.13 3.22L31.13-17.46L31.86-17.46C32.33-17.07 32.93-16.84 33.59-16.84C35.06-16.84 36.27-18.06 36.27-19.55C36.27-21.02 35.06-22.23 33.59-22.23C32.93-22.23 32.34-22.00 31.88-21.62L31.03-21.62C30.82-22.17 30.33-22.51 29.67-22.51L22.00-22.51C21.34-22.51 20.84-22.17 20.63-21.62L18.63-21.62C18.42-22.17 17.93-22.51 17.27-22.51L9.61-22.51C8.94-22.51 8.44-22.17 8.24-21.62L7.38-21.62C6.93-22.00 6.33-22.23 5.70-22.23C4.21-22.23 2.99-21.02 2.99-19.55C2.99-18.06 4.21-16.84 5.70-16.84C6.34-16.84 6.94-17.07 7.39-17.46L8.13-17.46L8.13 3.22C8.13 4.10 8.73 4.70 9.61 4.70Z" fill="currentColor"/>
</svg>