<svg xmlns="http://www.w3.org/2000/svg" viewBox="0 0 24 24" width="24" height="24">
  <title>danishkronesign.circle</title>
  <path transform="matrix(0.7810831426392068, 0, 0, 0.7810831426392068, 0.3615560640732265, 18.608695652173914)" d="M14.89 4.34C21.97 4.34 27.70-1.39 27.70-8.46C27.70-15.53 21.97-21.26 14.89-21.26C7.83-21.26 2.10-15.53 2.10-8.46C2.10-1.39 7.83 4.34 14.89 4.34ZM14.89 0.16C10.13 0.16 6.27-3.69 6.27-8.46C6.27-13.23 10.13-17.09 14.89-17.09C19.66-17.09 23.53-13.23 23.53-8.46C23.53-3.69 19.66 0.16 14.89 0.16ZM10.25-4.55C10.90-4.55 11.34-4.99 11.34-5.65L11.34-6.46L11.77-6.86L12.63-5.30C12.87-4.86 13.20-4.55 13.72-4.55C14.27-4.55 14.78-4.96 14.78-5.47C14.78-5.87 14.67-6.06 14.51-6.33L13.41-8.05L14.44-9.06C14.72-9.35 14.86-9.61 14.86-9.90C14.86-10.44 14.45-10.84 13.90-10.84C13.54-10.84 13.23-10.66 13.00-10.39L11.38-8.58L11.34-8.58L11.34-11.95C11.34-12.61 10.90-13.05 10.25-13.05C9.63-13.05 9.18-12.61 9.18-11.95L9.18-5.65C9.18-4.99 9.63-4.55 10.25-4.55ZM16.86-4.55C17.45-4.55 17.88-4.98 17.88-5.65L17.88-7.85C17.88-8.44 18-8.78 18.62-8.80C18.93-8.80 19.30-8.88 19.52-9.09C19.73-9.26 19.85-9.52 19.85-9.84C19.85-10.44 19.55-10.84 18.98-10.84C18.30-10.84 17.98-10.21 17.88-9.55L17.79-9.55L17.79-9.76C17.79-10.42 17.43-10.84 16.83-10.84C16.23-10.84 15.84-10.42 15.84-9.76L15.84-5.65C15.84-4.99 16.27-4.55 16.86-4.55ZM20.41-4.56C21.06-4.56 21.52-5.02 21.52-5.66C21.52-6.29 21.06-6.75 20.41-6.75C19.77-6.75 19.31-6.29 19.31-5.66C19.31-5.02 19.77-4.56 20.41-4.56Z" fill="currentColor"/>
</svg>