<svg xmlns="http://www.w3.org/2000/svg" viewBox="0 0 24 24" width="24" height="24">
  <title>deskclock.fill</title>
  <path transform="matrix(0.7642931780862815, 0, 0, 0.7642931780862815, 0.513210927004031, 18.24720107478728)" d="M14.89 4.34C21.97 4.34 27.70-1.39 27.70-8.46C27.70-15.53 21.97-21.26 14.89-21.26C7.83-21.26 2.10-15.53 2.10-8.46C2.10-1.39 7.83 4.34 14.89 4.34ZM10.88-9.81C10.25-10.44 10.27-11.38 10.88-12.01C11.48-12.64 12.45-12.66 13.08-12.01L14.96-10.14L18.64-13.78C19.27-14.39 20.21-14.39 20.84-13.78C21.47-13.16 21.47-12.19 20.84-11.57L16.08-6.81C15.46-6.18 14.51-6.18 13.88-6.81ZM2.11-0.95L2.11 1.82C2.11 3.86 3.18 4.91 5.21 4.91L8.37 4.91C5.74 3.60 3.59 1.57 2.11-0.95ZM27.96-0.95C26.48 1.57 24.33 3.60 21.70 4.91L24.86 4.91C26.89 4.91 27.96 3.86 27.96 1.82Z" fill="currentColor"/>
</svg>