<svg xmlns="http://www.w3.org/2000/svg" viewBox="0 0 24 24" width="24" height="24">
  <title>directcurrent</title>
  <path transform="matrix(0.7302809870203966, 0, 0, 0.7302809870203966, -0.18228498074454436, 18.178861788617887)" d="M2.99-12.14C2.99-10.99 3.93-10.05 5.07-10.05L28.28-10.05C29.44-10.05 30.38-10.99 30.38-12.14C30.38-13.29 29.44-14.23 28.28-14.23L5.07-14.23C3.93-14.23 2.99-13.29 2.99-12.14ZM2.99-4.78C2.99-3.63 3.93-2.70 5.07-2.70L9.01-2.70C10.16-2.70 11.10-3.63 11.10-4.78C11.10-5.93 10.16-6.87 9.01-6.87L5.07-6.87C3.93-6.87 2.99-5.93 2.99-4.78ZM12.68-4.78C12.68-3.63 13.62-2.70 14.77-2.70L18.67-2.70C19.83-2.70 20.75-3.63 20.75-4.78C20.75-5.93 19.83-6.87 18.67-6.87L14.77-6.87C13.62-6.87 12.68-5.93 12.68-4.78ZM22.34-4.78C22.34-3.63 23.27-2.70 24.42-2.70L28.28-2.70C29.43-2.70 30.36-3.63 30.36-4.78C30.36-5.93 29.43-6.87 28.28-6.87L24.42-6.87C23.27-6.87 22.34-5.93 22.34-4.78Z" fill="currentColor"/>
</svg>