<svg xmlns="http://www.w3.org/2000/svg" viewBox="0 0 24 24" width="24" height="24">
  <title>distribute.horizontal.left</title>
  <path transform="matrix(0.5259373394966615, 0, 0, 0.5259373394966615, 0.4283513097072418, 16.44684129429892)" d="M4.97 7.96C6.04 7.96 6.93 7.07 6.93 5.99L6.93-22.91C6.93-23.99 6.04-24.87 4.97-24.87C3.88-24.87 2.99-23.99 2.99-22.91L2.99 5.99C2.99 7.07 3.88 7.96 4.97 7.96ZM25.51 7.96C26.59 7.96 27.48 7.07 27.48 5.99L27.48-22.91C27.48-23.99 26.59-24.87 25.51-24.87C24.42-24.87 23.53-23.99 23.53-22.91L23.53 5.99C23.53 7.07 24.42 7.96 25.51 7.96ZM12.26 4.57L16.95 4.57C19.07 4.57 20.47 3.15 20.47 1.00L20.47-17.91C20.47-20.06 19.07-21.48 16.95-21.48L12.26-21.48C10.13-21.48 8.72-20.06 8.72-17.91L8.72 1.00C8.72 3.15 10.13 4.57 12.26 4.57ZM32.80 0.80L37.50 0.80C39.62 0.80 41.02-0.63 41.02-2.79L41.02-14.14C41.02-16.29 39.62-17.71 37.50-17.71L32.80-17.71C30.67-17.71 29.27-16.29 29.27-14.14L29.27-2.79C29.27-0.63 30.67 0.80 32.80 0.80ZM13.24 0.62C12.88 0.62 12.67 0.41 12.67 0.05L12.67-16.98C12.67-17.32 12.88-17.53 13.24-17.53L15.95-17.53C16.31-17.53 16.52-17.32 16.52-16.98L16.52 0.05C16.52 0.41 16.31 0.62 15.95 0.62ZM33.79-3.16C33.43-3.16 33.21-3.38 33.21-3.73L33.21-13.21C33.21-13.55 33.43-13.77 33.79-13.77L36.50-13.77C36.86-13.77 37.08-13.55 37.08-13.21L37.08-3.73C37.08-3.38 36.86-3.16 36.50-3.16Z" fill="currentColor"/>
</svg>