<svg xmlns="http://www.w3.org/2000/svg" viewBox="0 0 24 24" width="24" height="24">
  <title>dollarsign.bank.building.fill</title>
  <path transform="matrix(0.6653671215074723, 0, 0, 0.6653671215074723, 0.011695906432748648, 17.629629629629626)" d="M4.59 6.20L31.43 6.20C32.29 6.20 33.05 5.50 33.05 4.59C33.05 3.73 32.29 2.99 31.43 2.99L30.84 2.99L30.84 1.83C30.84 1.11 30.40 0.69 29.71 0.69L29.34 0.69L29.34-13.21L30.26-13.21C31.31-13.21 31.95-14.02 31.95-14.80C31.95-15.38 31.62-15.91 30.95-16.31L20.05-22.59C19.49-22.92 18.82-23.12 18.20-23.12C17.58-23.12 16.91-22.92 16.35-22.59L5.45-16.31C4.78-15.91 4.45-15.38 4.45-14.80C4.45-14.02 5.09-13.21 6.15-13.21L7.05-13.21L7.05 0.69L6.69 0.69C6 0.69 5.55 1.11 5.55 1.83L5.55 2.99L4.59 2.99C3.73 2.99 2.99 3.73 2.99 4.59C2.99 5.48 3.73 6.20 4.59 6.20ZM18.18-0.30C18.01-0.30 17.85-0.45 17.85-0.61L17.85-1.61C15.90-1.65 14.54-2.34 14.03-3.29C13.89-3.56 13.82-3.82 13.82-4.10C13.82-4.89 14.37-5.29 15.14-5.29C15.75-5.29 16.10-4.98 16.42-4.45C16.69-4.01 17.13-3.80 17.85-3.76L17.85-5.72L16.96-5.88C15.12-6.26 13.71-7.13 13.71-9.01C13.71-11.14 15.70-12.21 17.85-12.28L17.85-13.31C17.85-13.49 18.01-13.63 18.18-13.63C18.35-13.63 18.50-13.49 18.50-13.31L18.50-12.27C20.65-12.14 22.34-11.14 22.34-9.67C22.34-8.99 21.75-8.64 21.09-8.64C20.48-8.64 20.06-8.94 19.72-9.41C19.45-9.84 19.00-10.04 18.50-10.11L18.50-8.18L19.38-7.98C21.35-7.56 22.68-6.88 22.68-4.97C22.68-2.71 20.63-1.73 18.50-1.62L18.50-0.61C18.50-0.45 18.35-0.30 18.18-0.30ZM16.54-9.29C16.54-8.85 16.88-8.59 17.70-8.37L17.85-8.32L17.85-10.13C17.02-10.08 16.54-9.79 16.54-9.29ZM18.50-3.76C19.36-3.82 19.86-4.11 19.86-4.63C19.86-5.17 19.35-5.39 18.63-5.54L18.50-5.58Z" fill="currentColor"/>
</svg>