<svg xmlns="http://www.w3.org/2000/svg" viewBox="0 0 24 24" width="24" height="24">
  
  <path transform="matrix(0.7759246465783548, 0, 0, 0.7759246465783548, 1.8614533484195432, 18.55595707245696)" d="M17.18 3.94C17.74 4.58 18.79 4.63 19.43 3.94C22.45 0.66 24.04-3.71 24.04-8.46C24.04-13.18 22.45-17.55 19.43-20.84C18.79-21.53 17.74-21.48 17.18-20.84C16.63-20.23 16.69-19.41 17.26-18.77C19.77-16.09 21.11-12.45 21.11-8.46C21.11-4.46 19.71-0.86 17.26 1.88C16.69 2.52 16.63 3.32 17.18 3.94ZM13.23 0.06C13.80 0.77 14.80 0.88 15.67-0.02C17.65-2.05 18.62-5.14 18.62-8.46C18.62-11.74 17.53-15 15.67-16.89C14.80-17.78 13.80-17.67 13.23-16.96C12.71-16.32 12.90-15.56 13.46-14.93C14.91-13.35 15.69-10.98 15.69-8.46C15.69-5.92 14.91-3.55 13.46-1.97C12.90-1.35 12.71-0.57 13.23 0.06ZM9.35-3.66C9.87-2.95 10.95-2.89 11.72-3.70C12.71-4.75 13.23-6.54 13.23-8.46C13.23-10.37 12.71-12.16 11.72-13.21C10.95-14.02 9.87-13.97 9.35-13.27C8.89-12.64 9.02-11.92 9.48-11.29C9.90-10.68 10.30-9.42 10.30-8.46C10.30-7.50 9.90-6.25 9.48-5.64C9.02-4.99 8.89-4.28 9.35-3.66ZM2.10-8.44C2.10-7.03 3.32-5.86 4.75-5.86C6.18-5.86 7.36-7.03 7.36-8.46C7.36-9.93 6.20-11.10 4.75-11.10C3.29-11.10 2.10-9.88 2.10-8.44Z" fill="currentColor"/>
</svg>