<svg xmlns="http://www.w3.org/2000/svg" viewBox="0 0 24 24" width="24" height="24">
  <title>drop.circle</title>
  <path transform="matrix(0.7810831426392068, 0, 0, 0.7810831426392068, 0.3615560640732265, 18.608695652173914)" d="M14.89 4.34C21.97 4.34 27.70-1.39 27.70-8.46C27.70-15.53 21.97-21.26 14.89-21.26C7.83-21.26 2.10-15.53 2.10-8.46C2.10-1.39 7.83 4.34 14.89 4.34ZM14.89 0.16C10.13 0.16 6.27-3.69 6.27-8.46C6.27-13.23 10.13-17.09 14.89-17.09C19.66-17.09 23.53-13.23 23.53-8.46C23.53-3.69 19.66 0.16 14.89 0.16ZM14.89-2.89C17.39-2.89 19.02-4.50 19.02-6.93C19.02-7.84 18.67-8.86 18.19-9.88C17.58-11.14 16.72-12.50 15.90-13.77C15.61-14.20 15.26-14.47 14.89-14.47C14.53-14.47 14.19-14.20 13.89-13.77C13.05-12.50 12.20-11.13 11.61-9.87C11.12-8.84 10.78-7.84 10.78-6.93C10.78-4.50 12.41-2.89 14.89-2.89Z" fill="currentColor"/>
</svg>