<svg xmlns="http://www.w3.org/2000/svg" viewBox="0 0 24 24" width="24" height="24">
  <title>dryer.circle.fill</title>
  <path transform="matrix(0.7810831426392068, 0, 0, 0.7810831426392068, 0.3615560640732265, 18.599542334096114)" d="M14.89 4.35C21.97 4.35 27.70-1.38 27.70-8.45C27.70-15.52 21.97-21.25 14.89-21.25C7.83-21.25 2.10-15.52 2.10-8.45C2.10-1.38 7.83 4.35 14.89 4.35ZM18.55-14.77C19.54-14.77 20.23-14.05 20.23-13.05L20.23-11.65L9.55-11.65L9.55-13.05C9.55-14.05 10.25-14.77 11.24-14.77ZM11.88-12.40C12.26-12.40 12.55-12.70 12.55-13.07C12.55-13.44 12.26-13.75 11.88-13.75C11.52-13.75 11.21-13.44 11.21-13.07C11.21-12.70 11.52-12.40 11.88-12.40ZM13.65-12.40C14.03-12.40 14.32-12.70 14.32-13.07C14.32-13.44 14.03-13.75 13.65-13.75C13.29-13.75 12.98-13.44 12.98-13.07C12.98-12.70 13.29-12.40 13.65-12.40ZM16.95-12.61L18.09-12.61C18.35-12.61 18.54-12.80 18.54-13.07C18.54-13.34 18.35-13.52 18.09-13.52L16.95-13.52C16.68-13.52 16.49-13.34 16.49-13.07C16.49-12.80 16.68-12.61 16.95-12.61ZM11.24-2.14C10.25-2.14 9.55-2.85 9.55-3.84L9.55-10.58L20.23-10.58L20.23-3.84C20.23-2.85 19.54-2.14 18.55-2.14ZM12.62-3.68L17.17-3.68C17.58-3.68 17.89-3.97 17.89-4.42L17.89-8.34C17.89-8.77 17.58-9.08 17.17-9.08L12.62-9.08C12.21-9.08 11.89-8.77 11.89-8.34L11.89-4.42C11.89-3.97 12.21-3.68 12.62-3.68ZM13.11-4.72C13.02-4.72 12.98-4.79 12.98-4.86L12.98-7.89C12.98-7.97 13.02-8.04 13.11-8.04L16.68-8.04C16.77-8.04 16.80-7.97 16.80-7.89L16.80-4.86C16.80-4.79 16.77-4.72 16.68-4.72Z" fill="currentColor"/>
</svg>