<svg xmlns="http://www.w3.org/2000/svg" viewBox="0 0 24 24" width="24" height="24">
  <title>e.square.fill</title>
  <path transform="matrix(0.8606488485459741, 0, 0, 0.8606488485459741, -0.571860816944024, 19.286938981341404)" d="M7.58 3.15L21.63 3.15C24.53 3.15 26.23 1.46 26.23-1.44L26.23-15.49C26.23-18.39 24.53-20.09 21.63-20.09L7.58-20.09C4.69-20.09 2.99-18.39 2.99-15.49L2.99-1.44C2.99 1.46 4.69 3.15 7.58 3.15ZM12.30-2.92C10.75-2.92 9.95-3.71 9.95-5.31L9.95-11.59C9.95-13.16 10.76-13.97 12.30-13.97L17.06-13.97C18.16-13.97 18.80-13.41 18.80-12.45C18.80-11.46 18.16-10.91 17.06-10.91L13.86-10.91L13.86-9.77L17.07-9.77C17.96-9.77 18.49-9.29 18.49-8.50C18.49-7.69 17.96-7.23 17.07-7.23L13.86-7.23L13.86-5.98L17.06-5.98C18.16-5.98 18.80-5.41 18.80-4.45C18.80-3.47 18.16-2.92 17.06-2.92Z" fill="currentColor"/>
</svg>