<svg xmlns="http://www.w3.org/2000/svg" viewBox="0 0 24 24" width="24" height="24">
  
  <path transform="matrix(0.5683205683205683, 0, 0, 0.5683205683205683, 0.3016983016983017, 16.718614718614717)" d="M7.82-9.38C10.51-9.38 12.61-11.80 12.61-14.92C12.61-18.04 10.51-20.46 7.82-20.46C5.10-20.46 2.99-18.04 2.99-14.92C2.99-11.80 5.10-9.38 7.82-9.38ZM33.35-9.38C36.07-9.38 38.18-11.80 38.18-14.92C38.18-18.04 36.07-20.46 33.35-20.46C30.66-20.46 28.57-18.04 28.57-14.92C28.57-11.80 30.66-9.38 33.35-9.38ZM13.08-20.17C12.87-20.17 12.64-20.16 12.42-20.14C13.62-18.83 14.34-16.99 14.34-14.92C14.34-11.51 12.38-8.72 9.57-7.90C9.73-7.73 9.86-7.56 9.96-7.38C10.39-6.69 10.54-6 10.54-4.97L10.54 2.04C10.54 3.14 11.29 3.86 12.46 3.86L13.70 3.86C14.87 3.86 15.62 3.14 15.62 2.04L15.62-4.97C15.62-6 15.76-6.69 16.20-7.38C16.45-7.80 16.85-8.20 17.34-8.64C18.75-9.87 19.62-11.61 19.62-13.63C19.62-17.24 16.70-20.17 13.08-20.17ZM28.09-20.17C24.47-20.17 21.55-17.24 21.55-13.63C21.55-11.61 22.43-9.87 23.84-8.64C24.32-8.20 24.71-7.80 24.97-7.38C25.41-6.69 25.55-6 25.55-4.97L25.55 2.04C25.55 3.14 26.30 3.86 27.47 3.86L28.72 3.86C29.88 3.86 30.63 3.14 30.63 2.04L30.63-4.97C30.63-6 30.77-6.69 31.21-7.38C31.31-7.56 31.45-7.73 31.61-7.90C28.80-8.72 26.82-11.51 26.82-14.92C26.82-16.99 27.55-18.83 28.75-20.14C28.54-20.16 28.30-20.17 28.09-20.17ZM6.19-12.49C5.39-12.49 4.76-13.56 4.76-14.92C4.76-16.28 5.39-17.34 6.19-17.34C7.00-17.34 7.63-16.28 7.63-14.92C7.63-13.56 7.00-12.49 6.19-12.49ZM34.99-12.49C34.18-12.49 33.55-13.56 33.55-14.92C33.55-16.28 34.18-17.34 34.99-17.34C35.78-17.34 36.41-16.28 36.41-14.92C36.41-13.56 35.78-12.49 34.99-12.49Z" fill="currentColor"/>
</svg>