<svg xmlns="http://www.w3.org/2000/svg" viewBox="0 0 24 24" width="24" height="24">
  
  <path transform="matrix(0.7810831426392068, 0, 0, 0.7810831426392068, 0.3615560640732265, 18.608695652173914)" d="M14.89 4.34C21.97 4.34 27.70-1.39 27.70-8.46C27.70-15.53 21.97-21.26 14.89-21.26C7.83-21.26 2.10-15.53 2.10-8.46C2.10-1.39 7.83 4.34 14.89 4.34ZM10.25-8.73C9.52-8.73 8.99-9.25 8.99-9.94C8.99-10.24 9.18-10.64 9.48-10.91L13.49-14.40C14.12-14.94 14.46-15.16 14.91-15.16C15.34-15.16 15.68-14.94 16.31-14.40L20.32-10.91C20.63-10.64 20.81-10.24 20.81-9.94C20.81-9.25 20.29-8.73 19.55-8.73ZM10.39-3.34C9.63-3.34 9.12-3.80 9.12-4.61L9.12-6.19C9.12-6.90 9.63-7.43 10.39-7.43L19.41-7.43C20.17-7.43 20.68-6.90 20.68-6.19L20.68-4.61C20.68-3.80 20.17-3.34 19.41-3.34Z" fill="currentColor"/>
</svg>