<svg xmlns="http://www.w3.org/2000/svg" viewBox="0 0 24 24" width="24" height="24">
  <title>ellipsis.vertical.bubble.fill</title>
  <path transform="matrix(0.7099278979478647, 0, 0, 0.7099278979478647, -0.12146422628951736, 17.59900166389351)" d="M11.72 5.45C12.33 5.45 12.86 5.21 13.59 4.57L18.14 0.63L25.04 0.63C28.72 0.63 31.16-1.82 31.16-5.50L31.16-15.09C31.16-18.77 28.72-21.22 25.04-21.22L9.11-21.22C5.43-21.22 2.99-18.77 2.99-15.09L2.99-5.50C2.99-1.82 5.70 0.63 8.70 0.63L10.28 0.63L10.28 3.88C10.28 4.85 10.84 5.45 11.72 5.45ZM17.07-13.14C16.05-13.14 15.23-13.95 15.23-14.98C15.23-16.01 16.05-16.80 17.07-16.80C18.08-16.80 18.90-16.01 18.90-14.98C18.90-13.95 18.08-13.14 17.07-13.14ZM17.07-8.46C16.05-8.46 15.23-9.28 15.23-10.29C15.23-11.31 16.05-12.13 17.07-12.13C18.08-12.13 18.90-11.31 18.90-10.29C18.90-9.28 18.08-8.46 17.07-8.46ZM17.07-3.77C16.05-3.77 15.23-4.58 15.23-5.61C15.23-6.64 16.05-7.44 17.07-7.44C18.08-7.44 18.90-6.64 18.90-5.61C18.90-4.58 18.08-3.77 17.07-3.77Z" fill="currentColor"/>
</svg>