<svg xmlns="http://www.w3.org/2000/svg" viewBox="0 0 24 24" width="24" height="24">
  <title>envelope.fill</title>
  <path transform="matrix(0.6541459051999489, 0, 0, 0.6541459051999489, 0.04522805672671537, 17.52702184745113)" d="M18.27-8.00C18.56-8.00 18.80-8.12 19.17-8.45L31.07-19.16C30.46-19.42 29.77-19.55 28.96-19.55L7.58-19.55C6.79-19.55 6.09-19.42 5.47-19.16L17.38-8.45C17.74-8.12 17.99-8.00 18.27-8.00ZM3.25-0.16L12.07-8.98L3.29-16.89C3.09-16.34 2.99-15.69 2.99-14.95L2.99-1.95C2.99-1.28 3.08-0.69 3.25-0.16ZM33.30-0.16C33.47-0.69 33.56-1.28 33.56-1.95L33.56-14.95C33.56-15.69 33.46-16.34 33.26-16.89L24.47-8.98ZM7.55 2.65L29.00 2.65C29.85 2.65 30.60 2.50 31.21 2.23L22.11-6.87L21-5.87C20.07-5.04 19.31-4.71 18.27-4.71C17.24-4.71 16.48-5.04 15.55-5.87L14.44-6.87L5.34 2.23C5.95 2.50 6.70 2.65 7.55 2.65Z" fill="currentColor"/>
</svg>