<svg xmlns="http://www.w3.org/2000/svg" viewBox="0 0 24 24" width="24" height="24">
  <title>eurozonesign.gauge.chart.leftthird.topthird.rightthird</title>
  <path transform="matrix(0.6589446589446589, 0, 0, 0.6589446589446589, 0.6177606177606179, 17.59116612703278)" d="M17.27-15.21C19.35-15.21 21.26-14.53 22.80-13.37C23.16-13.11 23.60-13.14 23.92-13.46L26.88-16.44C27.28-16.83 27.27-17.41 26.84-17.75C24.22-19.88 20.89-21.15 17.27-21.15C13.65-21.15 10.32-19.88 7.72-17.75C7.29-17.41 7.27-16.83 7.66-16.44L10.63-13.46C10.95-13.14 11.41-13.11 11.78-13.38C13.31-14.53 15.22-15.21 17.27-15.21ZM32.45-5.98C32.45-9.61 31.17-12.96 29.02-15.59C28.70-15.97 28.14-15.97 27.74-15.59L24.76-12.62C24.42-12.28 24.42-11.84 24.69-11.47C25.83-9.93 26.51-8.03 26.51-5.98C26.51-3.82 25.78-1.83 24.52-0.25C24.23 0.13 24.23 0.59 24.56 0.91L27.54 3.89C27.91 4.27 28.48 4.27 28.84 3.86C31.09 1.21 32.45-2.21 32.45-5.98ZM2.10-5.98C2.10-2.20 3.48 1.25 5.75 3.90C6.08 4.29 6.63 4.27 7.02 3.89L9.98 0.91C10.31 0.59 10.32 0.13 10.03-0.25C8.78-1.83 8.04-3.82 8.04-5.98C8.04-8.03 8.72-9.93 9.86-11.47C10.13-11.84 10.13-12.28 9.79-12.62L6.81-15.59C6.42-15.97 5.84-15.96 5.48-15.53C3.36-12.93 2.10-9.60 2.10-5.98ZM13.20-2.48L15.77-2.48C16.32-2.48 16.68-2.75 16.68-3.30C16.68-3.82 16.31-4.13 15.77-4.13L14.24-4.13L14.24-5.41L15.74-5.41C16.23-5.41 16.54-5.67 16.54-6.15C16.54-6.67 16.20-6.91 15.74-6.91L14.24-6.91L14.24-8.19L15.77-8.19C16.32-8.19 16.68-8.48 16.68-9.01C16.68-9.56 16.32-9.83 15.77-9.83L13.20-9.83C12.53-9.83 12.16-9.41 12.16-8.75L12.16-3.56C12.16-2.91 12.53-2.48 13.20-2.48ZM18.61-2.48L21.84-2.48C22.36-2.48 22.63-2.79 22.63-3.30C22.63-3.82 22.36-4.13 21.84-4.13L19.88-4.13L19.88-4.18L22.27-8.11C22.38-8.29 22.49-8.51 22.49-8.87C22.49-9.48 22.11-9.83 21.48-9.83L18.45-9.83C17.91-9.83 17.53-9.55 17.53-9.01C17.53-8.47 17.91-8.19 18.45-8.19L20.23-8.19L20.23-8.13L17.80-4.17C17.67-3.96 17.59-3.66 17.59-3.39C17.59-2.79 18.02-2.48 18.61-2.48Z" fill="currentColor"/>
</svg>