<svg xmlns="http://www.w3.org/2000/svg" viewBox="0 0 24 24" width="24" height="24">
  
  <path transform="matrix(0.7810831426392068, 0, 0, 0.7810831426392068, 0.3615560640732265, 18.608695652173914)" d="M14.89 4.34C21.97 4.34 27.70-1.39 27.70-8.46C27.70-15.53 21.97-21.26 14.89-21.26C7.83-21.26 2.10-15.53 2.10-8.46C2.10-1.39 7.83 4.34 14.89 4.34ZM10.88-9.16C9.36-9.16 8.16-10.39 8.16-11.88C8.16-13.39 9.36-14.61 10.88-14.61C12.38-14.61 13.61-13.39 13.61-11.88C13.61-10.39 12.38-9.16 10.88-9.16ZM18.91-9.16C17.41-9.16 16.20-10.39 16.20-11.88C16.20-13.39 17.41-14.61 18.91-14.61C20.43-14.61 21.63-13.39 21.63-11.88C21.63-10.39 20.43-9.16 18.91-9.16ZM9.32-3.93C8.23-3.93 7.34-4.83 7.34-5.92C7.34-7.02 8.23-7.90 9.32-7.90C10.42-7.90 11.30-7.02 11.30-5.92C11.30-4.83 10.42-3.93 9.32-3.93ZM20.47-3.93C19.37-3.93 18.49-4.83 18.49-5.92C18.49-7.02 19.37-7.90 20.47-7.90C21.56-7.90 22.46-7.02 22.46-5.92C22.46-4.83 21.56-3.93 20.47-3.93ZM14.89-0.32C13.38-0.32 12.18-1.54 12.18-3.04C12.18-4.54 13.38-5.77 14.89-5.77C16.41-5.77 17.63-4.54 17.63-3.04C17.63-1.54 16.41-0.32 14.89-0.32Z" fill="currentColor"/>
</svg>