<svg xmlns="http://www.w3.org/2000/svg" viewBox="0 0 24 24" width="24" height="24">
  <title>ev.plug.ac.gb.t</title>
  <path transform="matrix(0.6276817457398554, 0, 0, 0.6276817457398554, 0.6833394630378815, 17.318131666053695)" d="M18.02 5.65C26.96 5.65 33.96-1.32 33.96-9.77C33.96-14.26 32.00-18.25 29.27-20.84C27.96-22.04 26.55-22.59 24.66-22.59L11.38-22.59C9.48-22.59 8.09-22.04 6.77-20.84C4.04-18.25 2.10-14.26 2.10-9.77C2.10-1.32 9.08 5.65 18.02 5.65ZM18.02 1.48C10.91 1.48 6.27-3.16 6.27-9.77C6.27-13.24 7.50-15.76 9.63-17.80C10.14-18.26 10.55-18.41 11.38-18.41L24.66-18.41C25.50-18.41 25.90-18.26 26.40-17.80C28.56-15.76 29.79-13.24 29.79-9.77C29.79-3.16 25.13 1.48 18.02 1.48ZM14.33-12.83C15.57-12.83 16.62-13.88 16.62-15.13C16.62-16.38 15.57-17.41 14.33-17.41C13.07-17.41 12.04-16.38 12.04-15.13C12.04-13.88 13.07-12.83 14.33-12.83ZM21.70-12.83C22.97-12.83 23.99-13.88 23.99-15.13C23.99-16.38 22.97-17.41 21.70-17.41C20.45-17.41 19.41-16.38 19.41-15.13C19.41-13.88 20.45-12.83 21.70-12.83ZM10.65-6.67C12.38-6.67 13.76-8.06 13.76-9.77C13.76-11.51 12.38-12.89 10.65-12.89C8.94-12.89 7.54-11.51 7.54-9.77C7.54-8.06 8.94-6.67 10.65-6.67ZM18.02-6.67C19.75-6.67 21.13-8.06 21.13-9.77C21.13-11.51 19.75-12.89 18.02-12.89C16.31-12.89 14.91-11.51 14.91-9.77C14.91-8.06 16.31-6.67 18.02-6.67ZM25.39-6.67C27.11-6.67 28.50-8.06 28.50-9.77C28.50-11.51 27.11-12.89 25.39-12.89C23.67-12.89 22.28-11.51 22.28-9.77C22.28-8.06 23.67-6.67 25.39-6.67ZM14.34-0.42C16.05-0.42 17.45-1.83 17.45-3.54C17.45-5.26 16.05-6.64 14.34-6.64C12.62-6.64 11.23-5.26 11.23-3.54C11.23-1.83 12.62-0.42 14.34-0.42ZM21.70-0.42C23.43-0.42 24.81-1.83 24.81-3.54C24.81-5.26 23.43-6.64 21.70-6.64C19.99-6.64 18.59-5.26 18.59-3.54C18.59-1.83 19.99-0.42 21.70-0.42Z" fill="currentColor"/>
</svg>