<svg xmlns="http://www.w3.org/2000/svg" viewBox="0 0 24 24" width="24" height="24">
  <title>exclamationmark.circle.fill</title>
  <path transform="matrix(0.7810831426392068, 0, 0, 0.7810831426392068, 0.3615560640732265, 18.608695652173914)" d="M14.89 4.34C21.97 4.34 27.70-1.39 27.70-8.46C27.70-15.53 21.97-21.26 14.89-21.26C7.83-21.26 2.10-15.53 2.10-8.46C2.10-1.39 7.83 4.34 14.89 4.34ZM14.92-7.14C13.86-7.14 13.24-7.71 13.17-8.74L12.95-12.49C12.88-13.64 13.69-14.39 14.89-14.39C16.11-14.39 16.91-13.64 16.84-12.49L16.62-8.77C16.55-7.70 15.94-7.14 14.92-7.14ZM14.92-2.59C13.75-2.59 12.90-3.21 12.90-4.31C12.90-5.39 13.75-6.01 14.92-6.01C16.08-6.01 16.90-5.38 16.90-4.31C16.90-3.21 16.08-2.59 14.92-2.59Z" fill="currentColor"/>
</svg>