<svg xmlns="http://www.w3.org/2000/svg" viewBox="0 0 24 24" width="24" height="24">
  <title>exclamationmark.icloud.fill</title>
  <path transform="matrix(0.6258403618139592, 0, 0, 0.6258403618139592, 0.6872020535386871, 18.32196552988632)" d="M26.59 1.25C30.71 1.25 34.05-1.80 34.05-5.66C34.05-8.31 32.61-10.83 30.14-11.84C30.12-17.44 26.03-21.46 20.64-21.46C17.74-21.46 15.09-20.23 13.34-17.79C10.01-18.38 6.95-16.07 6.61-12.68C3.80-11.98 2.10-9.36 2.10-6.15C2.10-2.06 5.66 1.25 10.15 1.25ZM18.09-7.73C17.17-7.73 16.65-8.21 16.57-9.13L16.39-11.89C16.34-12.88 17.03-13.55 18.07-13.55C19.13-13.55 19.82-12.88 19.76-11.89L19.58-9.14C19.49-8.20 19.00-7.73 18.09-7.73ZM18.09-3.67C16.95-3.67 16.31-4.24 16.31-5.18C16.31-6.13 16.95-6.69 18.09-6.69C19.18-6.69 19.84-6.13 19.84-5.18C19.84-4.24 19.21-3.67 18.09-3.67Z" fill="currentColor"/>
</svg>