<svg xmlns="http://www.w3.org/2000/svg" viewBox="0 0 24 24" width="24" height="24">
  
  <path transform="matrix(0.6887274683884853, 0, 0, 0.6887274683884853, 0.5068603712671509, 17.415657788539143)" d="M8.21-13.88L25.16-13.88C26.54-13.88 27.81-13.57 28.88-12.97L25.86-19.34C24.96-21.25 23.37-22.38 21.09-22.38L12.29-22.38C10.02-22.38 8.44-21.25 7.54-19.34L4.54-12.98C5.59-13.57 6.84-13.88 8.21-13.88ZM5.12 4.90L13.70 4.90C14.27 5.94 15.40 6.66 16.68 6.66C17.95 6.66 19.07 5.94 19.64 4.90L28.24 4.90C29.13 4.90 29.87 4.17 29.87 3.27C29.87 2.37 29.13 1.63 28.24 1.63L19.65 1.63C19.35 1.07 18.88 0.60 18.32 0.28L18.32-1.43L25.16-1.43C28.29-1.43 30.39-3.52 30.39-6.62C30.39-9.74 28.29-11.80 25.16-11.80L8.21-11.80C5.07-11.80 2.99-9.74 2.99-6.62C2.99-3.52 5.07-1.43 8.21-1.43L15.05-1.43L15.05 0.28C14.47 0.59 14.00 1.05 13.69 1.63L5.12 1.63C4.22 1.63 3.49 2.37 3.49 3.27C3.49 4.17 4.22 4.90 5.12 4.90ZM23.79-6.62C23.79-7.52 24.56-8.27 25.45-8.27C26.37-8.27 27.14-7.52 27.14-6.62C27.14-5.70 26.37-4.99 25.45-4.96C24.56-4.95 23.79-5.70 23.79-6.62Z" fill="currentColor"/>
</svg>