<svg xmlns="http://www.w3.org/2000/svg" viewBox="0 0 24 24" width="24" height="24">
  
  <path transform="matrix(0.6818484485284325, 0, 0, 0.6818484485284325, -0.03755493407910482, 17.757091490211746)" d="M8.59-10.55L26.72-10.55C28.21-10.55 29.55-10.22 30.70-9.59L27.48-16.41C26.51-18.45 24.81-19.65 22.37-19.65L12.96-19.65C10.52-19.65 8.82-18.45 7.85-16.41L4.65-9.62C5.78-10.22 7.11-10.55 8.59-10.55ZM8.59 2.77L26.72 2.77C30.08 2.77 32.32 0.54 32.32-2.80C32.32-6.13 30.08-8.34 26.72-8.34L8.59-8.34C5.23-8.34 2.99-6.13 2.99-2.80C2.99 0.54 5.23 2.77 8.59 2.77ZM25.27-2.78C25.27-3.64 26.00-4.39 26.89-4.39C27.75-4.39 28.50-3.64 28.50-2.78C28.50-1.89 27.77-1.18 26.89-1.17C25.99-1.16 25.27-1.89 25.27-2.78Z" fill="currentColor"/>
</svg>