<svg xmlns="http://www.w3.org/2000/svg" viewBox="0 0 24 24" width="24" height="24">
  
  <path transform="matrix(0.8606488485459741, 0, 0, 0.8606488485459741, -0.571860816944024, 19.286938981341404)" d="M7.58 3.15L21.63 3.15C24.53 3.15 26.23 1.46 26.23-1.44L26.23-15.49C26.23-18.39 24.53-20.09 21.63-20.09L7.58-20.09C4.69-20.09 2.99-18.39 2.99-15.49L2.99-1.44C2.99 1.46 4.69 3.15 7.58 3.15ZM8.21-1.01C7.50-1.01 7.15-1.30 7.15-2.07L7.15-14.85C7.15-15.62 7.50-15.91 8.21-15.91L21-15.91C21.71-15.91 22.07-15.62 22.07-14.85L22.07-2.07C22.07-1.30 21.71-1.01 21-1.01ZM14.61-4.05C18.87-4.05 21.48-7.45 21.48-8.46C21.48-9.48 18.87-12.87 14.61-12.87C10.42-12.87 7.75-9.48 7.75-8.46C7.75-7.45 10.42-4.05 14.61-4.05ZM14.61-5.73C13.13-5.73 11.87-7.00 11.87-8.45C11.87-9.97 13.13-11.18 14.61-11.18C16.14-11.18 17.37-9.97 17.37-8.45C17.37-7.00 16.14-5.73 14.61-5.73ZM14.61-7.29C15.27-7.29 15.80-7.80 15.80-8.45C15.80-9.11 15.27-9.63 14.61-9.63C13.95-9.63 13.45-9.11 13.45-8.45C13.45-7.80 13.95-7.29 14.61-7.29Z" fill="currentColor"/>
</svg>