<svg xmlns="http://www.w3.org/2000/svg" viewBox="0 0 24 24" width="24" height="24">
  
  <path transform="matrix(0.7810831426392068, 0, 0, 0.7810831426392068, 0.3615560640732265, 18.608695652173914)" d="M14.89 4.34C21.97 4.34 27.70-1.39 27.70-8.46C27.70-15.53 21.97-21.26 14.89-21.26C7.83-21.26 2.10-15.53 2.10-8.46C2.10-1.39 7.83 4.34 14.89 4.34ZM14.89 0.16C10.13 0.16 6.27-3.69 6.27-8.46C6.27-13.23 10.13-17.09 14.89-17.09C19.66-17.09 23.53-13.23 23.53-8.46C23.53-3.69 19.66 0.16 14.89 0.16ZM19.16-3.02C19.48-2.72 20.00-2.70 20.32-3.02C20.65-3.34 20.65-3.87 20.32-4.18L10.65-13.86C10.32-14.18 9.79-14.18 9.47-13.86C9.15-13.55 9.15-13.02 9.47-12.69ZM17.88-8.13L20.40-5.61C21.71-6.68 22.44-7.90 22.44-8.46C22.44-9.56 19.57-13.29 14.89-13.29C14.20-13.29 13.56-13.21 12.95-13.07L14.60-11.41C14.70-11.44 14.79-11.44 14.89-11.44C16.56-11.44 17.91-10.11 17.91-8.45C17.91-8.33 17.91-8.23 17.88-8.13ZM16.85-3.84L15.21-5.50C15.11-5.47 15.01-5.47 14.89-5.47C13.27-5.47 11.88-6.84 11.88-8.45C11.88-8.55 11.89-8.67 11.92-8.78L9.40-11.29C8.10-10.22 7.36-9.01 7.36-8.46C7.36-7.35 10.29-3.62 14.89-3.62C15.59-3.62 16.23-3.70 16.85-3.84ZM15.70-10.29L16.73-9.26C16.64-9.79 16.23-10.20 15.70-10.29ZM14.10-6.60L13.07-7.64C13.16-7.11 13.58-6.70 14.10-6.60Z" fill="currentColor"/>
</svg>