<svg xmlns="http://www.w3.org/2000/svg" viewBox="0 0 24 24" width="24" height="24">
  
  <path transform="matrix(0.6607304168279778, 0, 0, 0.6607304168279778, 1.7018970189701883, 17.58652729384437)" d="M5.65-10.52C5.65-7.45 8.43-4.22 11.16-4.22C13.24-4.22 14.58-5.81 15.63-8.29L15.70-8.29L15.70-6.80C15.70-4.84 16.82-3.70 18.71-3.70C21.79-3.70 25.02-6.47 25.02-9.21C25.02-11.25 23.39-12.57 20.95-13.69L20.95-13.75L22.42-13.75C24.39-13.75 25.54-14.86 25.54-16.76C25.54-19.83 22.76-23.06 20.02-23.06C17.95-23.06 16.64-21.48 15.55-19.02L15.49-19.02L15.49-20.48C15.49-22.45 14.38-23.59 12.46-23.59C9.41-23.58 6.18-20.81 6.18-18.08C6.18-16.00 7.69-14.70 10.21-13.62L10.21-13.55L8.75-13.55C6.80-13.55 5.65-12.42 5.65-10.52ZM15.59-11.96C14.66-11.96 13.91-12.71 13.91-13.65C13.91-14.58 14.66-15.34 15.59-15.34C16.52-15.34 17.27-14.58 17.27-13.65C17.27-12.71 16.52-11.96 15.59-11.96ZM8.12-1.85L8.24-1.49C5.04-0.77 2.99 0.49 2.99 2.25C2.99 5.16 8.58 6.68 15.59 6.68C22.59 6.68 28.18 5.16 28.18 2.25C28.18 0.49 26.13-0.77 22.95-1.49L23.05-1.85C23.26-2.55 22.70-3.41 21.84-3.09L19.09-2.12C18.29-1.84 18.14-1.08 18.61-0.47L20.34 1.88C20.88 2.59 21.76 2.37 21.96 1.68L22.18 0.97C24.32 1.36 25.55 1.84 25.55 2.25C25.55 2.96 21.64 4.04 15.59 4.04C9.53 4.04 5.63 2.96 5.63 2.25C5.63 1.84 6.86 1.36 8.99 0.97L9.21 1.68C9.41 2.37 10.29 2.59 10.83 1.88L12.56-0.47C13.03-1.08 12.88-1.84 12.08-2.12L9.33-3.09C8.47-3.41 7.91-2.55 8.12-1.85Z" fill="currentColor"/>
</svg>