<svg xmlns="http://www.w3.org/2000/svg" viewBox="0 0 24 24" width="24" height="24">
  
  <path transform="matrix(0.7810831426392068, 0, 0, 0.7810831426392068, 0.3615560640732265, 18.608695652173914)" d="M14.89 4.34C21.97 4.34 27.70-1.39 27.70-8.46C27.70-15.53 21.97-21.26 14.89-21.26C7.83-21.26 2.10-15.53 2.10-8.46C2.10-1.39 7.83 4.34 14.89 4.34ZM14.84-12.57C13.91-12.57 13.18-13.30 13.18-14.23C13.18-15.15 13.91-15.90 14.84-15.90C15.76-15.90 16.50-15.15 16.50-14.23C16.50-13.30 15.76-12.57 14.84-12.57ZM14.84-6.67C14.60-6.67 14.44-6.54 14.38-6.29L13.25-1.98C13.01-1.00 11.65-1.34 11.80-2.30C11.85-2.63 12.82-6.27 12.97-7.10C13.05-7.72 13.01-9.29 13.01-9.86C13.01-10.08 12.83-10.20 12.61-10.10L10.73-9.36C10.25-9.16 9.89-9.39 9.76-9.70C9.63-10.03 9.75-10.49 10.28-10.70L12.33-11.57C12.75-11.72 13.13-11.84 13.55-11.88C13.93-11.67 14.38-11.57 14.84-11.57C15.30-11.57 15.75-11.67 16.13-11.88C16.55-11.84 16.92-11.72 17.36-11.57L19.41-10.70C19.92-10.49 20.04-10.03 19.91-9.70C19.78-9.39 19.42-9.16 18.94-9.36L17.06-10.10C16.84-10.20 16.66-10.08 16.66-9.86C16.66-9.29 16.62-7.72 16.71-7.10C16.85-6.27 17.82-2.63 17.87-2.30C18.02-1.34 16.66-1.00 16.42-1.98L15.30-6.29C15.23-6.54 15.07-6.67 14.84-6.67Z" fill="currentColor"/>
</svg>