<svg xmlns="http://www.w3.org/2000/svg" viewBox="0 0 24 24" width="24" height="24">
  
  <path transform="matrix(0.7810831426392068, 0, 0, 0.7810831426392068, 0.3615560640732265, 18.608695652173914)" d="M14.89 4.34C21.97 4.34 27.70-1.39 27.70-8.46C27.70-15.53 21.97-21.26 14.89-21.26C7.83-21.26 2.10-15.53 2.10-8.46C2.10-1.39 7.83 4.34 14.89 4.34ZM14.89 0.16C10.13 0.16 6.27-3.69 6.27-8.46C6.27-13.23 10.13-17.09 14.89-17.09C19.66-17.09 23.53-13.23 23.53-8.46C23.53-3.69 19.66 0.16 14.89 0.16ZM14.84-12.75C15.57-12.75 16.17-13.35 16.17-14.07C16.17-14.80 15.57-15.40 14.84-15.40C14.11-15.40 13.51-14.80 13.51-14.07C13.51-13.35 14.11-12.75 14.84-12.75ZM10.82-3.38C10.17-2.61 11.25-1.84 11.78-2.48L13.50-4.56C13.65-4.72 13.72-4.88 13.83-5.07L14.80-7.18C15.06-7.71 15.19-8.33 15.23-9.01L15.29-9.75L16.01-8.98C16.21-8.75 16.42-8.70 16.79-8.70L18.19-8.70C18.61-8.70 18.88-8.94 18.88-9.33C18.88-9.70 18.59-9.96 18.19-9.96L16.73-9.96L15.11-11.74C14.84-12.04 14.48-12.27 14.00-12.27C13.92-12.27 13.83-12.27 13.75-12.26C13.68-12.68 13.31-12.98 12.86-12.98L12.32-12.98C11.58-12.98 11.14-12.56 11.14-11.81L11.14-9.11C11.14-8.58 11.52-8.20 12.05-8.20L12.71-8.20C12.73-7.92 12.81-7.69 12.97-7.42L12.53-5.41ZM17.65-10.62L18.19-10.62C18.32-10.62 18.47-10.61 18.59-10.56L18.59-10.92C18.59-11.20 18.40-11.39 18.12-11.39C17.84-11.39 17.65-11.20 17.65-10.92ZM17.65-2.72C17.65-2.44 17.84-2.23 18.12-2.23C18.40-2.23 18.59-2.44 18.59-2.72L18.59-8.10C18.47-8.06 18.32-8.04 18.19-8.04L17.65-8.04ZM14.64-5.24C14.65-5.21 14.67-5.19 14.68-5.17L15.91-2.68C16.32-1.83 17.60-2.37 17.13-3.28L15.96-5.71C15.87-5.88 15.75-6.07 15.61-6.27L15.32-6.69Z" fill="currentColor"/>
</svg>