<svg xmlns="http://www.w3.org/2000/svg" viewBox="0 0 24 24" width="24" height="24">
  
  <path transform="matrix(0.7810831426392068, 0, 0, 0.7810831426392068, 0.3615560640732265, 18.608695652173914)" d="M14.89 4.34C21.97 4.34 27.70-1.39 27.70-8.46C27.70-15.53 21.97-21.26 14.89-21.26C7.83-21.26 2.10-15.53 2.10-8.46C2.10-1.39 7.83 4.34 14.89 4.34ZM14.89-12.79C14.11-12.79 13.46-13.42 13.46-14.21C13.46-14.99 14.11-15.63 14.89-15.63C15.67-15.63 16.31-14.99 16.31-14.21C16.31-13.42 15.67-12.79 14.89-12.79ZM14.89-6.97L13.55-4.89L12.49-1.93C12.34-1.52 11.94-1.38 11.61-1.51C11.26-1.62 11.07-2.04 11.21-2.39L12.30-5.38L13.37-8.36L13.37-11.03C13.37-11.12 13.35-11.18 13.27-11.23L9.60-13.17C9.26-13.36 9.13-13.77 9.30-14.10C9.48-14.44 9.90-14.55 10.22-14.38L13.77-12.50C14.16-12.30 14.51-12.21 14.89-12.21C15.27-12.21 15.62-12.30 16.02-12.50L19.56-14.38C19.89-14.55 20.30-14.44 20.47-14.10C20.65-13.77 20.52-13.36 20.18-13.17L16.52-11.23C16.44-11.18 16.41-11.12 16.41-11.03L16.41-8.36L17.48-5.38L18.57-2.39C18.70-2.04 18.53-1.62 18.16-1.51C17.85-1.38 17.44-1.52 17.30-1.93L16.23-4.89Z" fill="currentColor"/>
</svg>