<svg xmlns="http://www.w3.org/2000/svg" viewBox="0 0 24 24" width="24" height="24">
  
  <path transform="matrix(0.5717935456719465, 0, 0, 0.5717935456719465, 0.2913200685975035, 16.89486545054715)" d="M30.82-8.32C32.26-8.32 33.61-8.75 34.73-9.49L35.16-9.07C35.72-8.51 36.64-8.51 37.21-9.07C37.77-9.62 37.77-10.55 37.21-11.11L36.77-11.53C37.52-12.66 37.96-13.98 37.96-15.39C37.96-16.84 37.54-18.19 36.80-19.31L37.21-19.72C37.77-20.30 37.77-21.21 37.21-21.79C36.64-22.35 35.72-22.35 35.16-21.79L34.75-21.38C33.62-22.11 32.27-22.55 30.82-22.55C29.38-22.55 28.04-22.13 26.93-21.39L26.53-21.79C25.97-22.35 25.05-22.35 24.50-21.79C23.93-21.21 23.93-20.30 24.50-19.72L24.90-19.32C24.18-18.20 23.75-16.85 23.75-15.39C23.75-13.98 24.18-12.64 24.91-11.52L24.50-11.11C23.93-10.55 23.93-9.62 24.50-9.07C25.05-8.51 25.97-8.51 26.53-9.07L26.95-9.48C28.05-8.75 29.38-8.32 30.82-8.32ZM15.62-14.72C17.68-14.72 19.31-16.42 19.31-18.42C19.31-20.50 17.68-22.17 15.62-22.17C13.54-22.17 11.87-20.50 11.87-18.42C11.87-16.42 13.54-14.72 15.62-14.72ZM30.82-19.65C31.46-19.65 32.09-19.51 32.64-19.25L30.86-17.46L29.05-19.27C29.58-19.51 30.19-19.65 30.82-19.65ZM26.64-15.39C26.64-16.04 26.78-16.65 27.02-17.20L28.80-15.42L27.04-13.64C26.78-14.18 26.64-14.77 26.64-15.39ZM35.07-15.39C35.07-14.77 34.92-14.18 34.66-13.65L32.89-15.42L34.68-17.19C34.92-16.65 35.07-16.03 35.07-15.39ZM30.82-11.20C30.20-11.20 29.60-11.34 29.07-11.60L30.86-13.38L32.61-11.61C32.06-11.36 31.45-11.20 30.82-11.20ZM17.85-0.82L22.38-6.41L19.97-10.76C18.79-12.89 16.79-13.68 14.87-12.59C12.87-11.55 12.49-9.43 13.68-7.30L16.17-2.77C16.64-1.91 17.29-1.27 17.85-0.82ZM37.39 4.85C38.13 4.13 38.23 2.94 37.25 1.93L31.41-4.18C29.95-5.70 28.43-5.92 26.65-5.24L24.48-4.43L20.57 0.39C21.45 0.57 22.62 0.53 23.72 0.11L27.87-1.43C28.20-1.55 28.37-1.52 28.61-1.29L34.28 4.59C35.26 5.61 36.57 5.67 37.39 4.85ZM4.34 5.43L9.97 5.43C10.70 5.43 11.21 4.91 11.21 4.22C11.21 3.50 10.70 3.02 9.97 3.02L7.17 3.02L7.17 2.99L9.06 1.37C10.15 0.43 10.80-0.53 10.80-1.51C10.80-3.38 9.25-4.57 6.88-4.57C5.13-4.57 3.56-3.80 3.15-2.47C3.13-2.29 3.08-2.06 3.08-1.85C3.08-1.15 3.60-0.62 4.36-0.62C5.02-0.62 5.44-0.89 5.66-1.43C5.85-1.95 6.21-2.21 6.79-2.21C7.42-2.21 7.83-1.88 7.83-1.39C7.83-0.93 7.51-0.49 6.90 0.02L3.73 2.73C3.25 3.13 2.99 3.59 2.99 4.11C2.99 4.90 3.52 5.43 4.34 5.43ZM15.09 4.90C15.73 5.38 16.54 5.38 17.21 4.54L20.57 0.39C19.51 0.11 18.61-0.29 17.85-0.82L14.96 2.72C14.31 3.52 14.39 4.32 15.09 4.90Z" fill="currentColor"/>
</svg>