<svg xmlns="http://www.w3.org/2000/svg" viewBox="0 0 24 24" width="24" height="24">
  
  <path transform="matrix(0.6224029110090203, 0, 0, 0.6224029110090203, 2.9297282771513555, 18.751998662421492)" d="M2.29-20.73C1.50-19.90 2.03-18.84 3.04-18.80L7.28-18.60C7.97-18.57 8.40-19.00 8.37-19.70L8.16-23.92C8.11-24.98 6.97-25.43 6.22-24.68L5.07-23.53L2.02-26.59C1.56-27.02 0.81-27.02 0.35-26.59C-0.07-26.14-0.07-25.39 0.36-24.94L3.42-21.87ZM25.36-14.92C27.43-14.92 29.11-16.63 29.11-18.62C29.11-20.71 27.43-22.37 25.36-22.37C23.29-22.37 21.66-20.71 21.66-18.62C21.66-16.63 23.29-14.92 25.36-14.92ZM2.02-7.14L5.07-10.20L6.22-9.05C6.97-8.30 8.11-8.75 8.16-9.82L8.37-14.04C8.40-14.73 7.97-15.16 7.28-15.13L3.04-14.94C2.03-14.89 1.50-13.83 2.29-13.00L3.42-11.86L0.36-8.80C-0.07-8.34-0.07-7.58 0.35-7.14C0.81-6.71 1.56-6.71 2.02-7.14ZM3.59 4.65C4.41 5.47 5.71 5.41 6.69 4.39L12.38-1.49C12.61-1.72 12.79-1.75 13.10-1.63L17.21-0.11C20.06 0.95 23.34-0.32 24.76-2.89L27.30-7.50C28.46-9.63 28.07-11.68 26.10-12.79C24.18-13.86 22.18-13.09 21-10.97L17.33-4.31L14.33-5.44C12.54-6.12 11.02-5.89 9.56-4.38L3.71 1.73C2.75 2.74 2.84 3.93 3.59 4.65Z" fill="currentColor"/>
</svg>