<svg xmlns="http://www.w3.org/2000/svg" viewBox="0 0 24 24" width="24" height="24">
  <title>figure.ice.skating.circle.fill</title>
  <path transform="matrix(0.7810831426392068, 0, 0, 0.7810831426392068, 0.3615560640732265, 18.608695652173914)" d="M14.89 4.34C21.97 4.34 27.70-1.39 27.70-8.46C27.70-15.53 21.97-21.26 14.89-21.26C7.83-21.26 2.10-15.53 2.10-8.46C2.10-1.39 7.83 4.34 14.89 4.34ZM11.30-12.52C10.51-12.52 9.86-13.16 9.86-13.95C9.86-14.74 10.51-15.36 11.30-15.36C12.09-15.36 12.73-14.74 12.73-13.95C12.73-13.16 12.09-12.52 11.30-12.52ZM12.36-2.07C11.79-2.07 11.74-2.87 12.25-3.05L12.95-3.28L12.46-5.37C12.38-5.71 12.43-5.98 12.59-6.21L13.43-7.63C12.21-8.14 11.03-9.02 10.71-10.24C10.66-10.35 10.61-10.39 10.44-10.36L7.63-9.83C7.15-9.74 6.83-10.08 6.75-10.44C6.70-10.79 6.89-11.21 7.35-11.30L16.95-13.05C17.40-13.13 17.74-12.82 17.82-12.47C17.89-12.12 17.72-11.68 17.20-11.58L13.77-10.98C13.65-10.95 13.62-10.89 13.65-10.77C13.90-10.21 14.92-9.76 15.55-9.66L17.82-9.53L21.45-10.17C21.80-10.23 22.03-10.08 22.10-9.73L22.38-8.07C22.49-7.51 21.68-7.34 21.45-7.79L21.04-8.57L15.77-7.61L14.00-5.43L14.59-2.85C14.71-2.36 14.45-2.07 14.05-2.07ZM23.58-7.78C23.61-7.62 23.50-7.44 23.33-7.41C23.14-7.38 22.97-7.51 22.93-7.68L22.51-10.10C22.49-10.28 22.61-10.43 22.77-10.48C22.95-10.50 23.13-10.38 23.16-10.21ZM11.89-0.94C11.72-0.94 11.57-1.09 11.57-1.27C11.57-1.43 11.72-1.58 11.89-1.58L14.36-1.58C14.53-1.58 14.66-1.43 14.66-1.27C14.66-1.09 14.53-0.94 14.36-0.94Z" fill="currentColor"/>
</svg>