<svg xmlns="http://www.w3.org/2000/svg" viewBox="0 0 24 24" width="24" height="24">
  
  <path transform="matrix(0.7810831426392068, 0, 0, 0.7810831426392068, 0.3615560640732265, 18.608695652173914)" d="M14.89 4.34C21.97 4.34 27.70-1.39 27.70-8.46C27.70-15.53 21.97-21.26 14.89-21.26C7.83-21.26 2.10-15.53 2.10-8.46C2.10-1.39 7.83 4.34 14.89 4.34ZM14.89 0.16C10.13 0.16 6.27-3.69 6.27-8.46C6.27-13.23 10.13-17.09 14.89-17.09C19.66-17.09 23.53-13.23 23.53-8.46C23.53-3.69 19.66 0.16 14.89 0.16ZM18.49-12.09C19.20-12.09 19.76-12.67 19.76-13.36C19.76-14.05 19.20-14.60 18.49-14.60C17.81-14.60 17.24-14.05 17.24-13.36C17.24-12.67 17.81-12.09 18.49-12.09ZM11.77-11.88C12.46-11.88 13.01-12.45 13.01-13.13C13.01-13.83 12.46-14.39 11.77-14.39C11.06-14.39 10.50-13.83 10.50-13.13C10.50-12.45 11.06-11.88 11.77-11.88ZM8.45-10.25L9.56-10.16C9.61-10.16 9.63-10.13 9.63-10.07L9.63-7.99C9.63-7.54 9.79-7.08 10.05-6.74L11.39-5.02L10.71-2.74C10.59-2.38 10.82-1.98 11.17-1.89C11.51-1.78 11.92-1.95 12.04-2.34L12.77-4.79C12.79-4.83 12.79-4.84 12.79-4.88L14.77-2.37C14.99-2.09 15.45-2.02 15.73-2.26C16.03-2.51 16.09-2.93 15.84-3.23L12.08-8.00L12.25-9.63C12.25-9.69 12.30-9.69 12.34-9.67L13.63-9.04C13.72-8.99 13.91-8.93 14.06-8.93L16.41-8.93C16.55-8.93 16.73-8.99 16.84-9.09L17.77-9.91C17.80-9.95 17.86-9.93 17.87-9.88L18.36-8.53L16.21-7.93C15.93-7.85 15.71-7.62 15.69-7.32L15.46-5.07C15.41-4.62 15.81-4.31 16.16-4.31C16.50-4.31 16.80-4.58 16.84-4.95L17.03-6.67L18.30-6.86L17.65-5.54C17.54-5.34 17.50-5.12 17.58-4.91L18.63-2.29C18.79-1.90 19.20-1.76 19.52-1.90C19.89-2.03 20.06-2.45 19.91-2.80L19.02-5.07L20.25-6.86C20.58-7.35 20.73-7.97 20.63-8.54L20.43-9.63C20.41-9.68 20.46-9.71 20.53-9.70L21.16-9.49C21.70-9.32 22.13-9.66 22.07-10.20L21.84-12.40C21.80-12.77 21.47-13.05 21.08-13.01C20.71-12.98 20.44-12.62 20.47-12.25L20.58-11.14L19.17-11.60C18.50-11.84 17.74-11.73 17.19-11.23L16.14-10.31L14.16-10.31L12.48-11.16C12.21-11.29 11.94-11.37 11.64-11.39L9.42-11.55L9.77-12.62C9.89-12.97 9.70-13.39 9.34-13.51C8.99-13.62 8.58-13.42 8.46-13.07L7.83-11.16C7.68-10.72 7.99-10.29 8.45-10.25Z" fill="currentColor"/>
</svg>