<svg xmlns="http://www.w3.org/2000/svg" viewBox="0 0 24 24" width="24" height="24">
  
  <path transform="matrix(0.6759075907590759, 0, 0, 0.6759075907590759, 0.4384396290201842, 17.714851485148515)" d="M16.70-17.33C18.33-17.33 19.65-18.67 19.65-20.29C19.65-21.91 18.33-23.25 16.70-23.25C15.07-23.25 13.73-21.91 13.73-20.29C13.73-18.67 15.07-17.33 16.70-17.33ZM6.84 2.89C6.05 3.69 6.23 4.69 6.82 5.23C7.36 5.71 8.31 5.80 9.05 5.07L13.70 0.43C13.88 0.26 13.93 0.18 14.04-0.01L16.35-4.34C16.64-4.89 17.34-4.89 17.82-4.52L22.98-0.62L22.98 4.70C22.98 5.70 23.61 6.34 24.54 6.34C25.46 6.34 26.11 5.70 26.11 4.70L26.11-1.37C26.11-1.83 25.92-2.23 25.52-2.58L19.66-7.61L19.66-12.93C19.66-13.17 19.85-13.37 20.11-13.42L29.91-14.91C30.75-15.04 31.32-15.84 31.21-16.70C31.07-17.54 30.28-18.14 29.43-18L10.05-15.06L10.05-17.72C10.70-18.04 11.30-18.45 11.75-18.96C12.23-19.46 12.23-20.11 11.75-20.63C10.73-21.74 9.12-22.43 7.55-22.43C5.98-22.43 4.35-21.74 3.34-20.64C2.87-20.11 2.87-19.46 3.34-18.94C4.22-17.98 5.58-17.32 6.95-17.18L6.95-13.16C6.95-12.19 7.75-11.57 8.73-11.72L12.88-12.34C13.16-12.39 13.35-12.22 13.35-11.93L13.35-7.09L11.34-1.62Z" fill="currentColor"/>
</svg>