<svg xmlns="http://www.w3.org/2000/svg" viewBox="0 0 24 24" width="24" height="24">
  <title>figure.water.fitness.circle.fill</title>
  <path transform="matrix(0.7810831426392068, 0, 0, 0.7810831426392068, 0.3615560640732265, 18.608695652173914)" d="M14.89 4.34C21.97 4.34 27.70-1.39 27.70-8.46C27.70-15.53 21.97-21.26 14.89-21.26C7.83-21.26 2.10-15.53 2.10-8.46C2.10-1.39 7.83 4.34 14.89 4.34ZM14.46-11.06C13.66-11.06 13.03-11.70 13.03-12.49C13.03-13.28 13.66-13.92 14.46-13.92C15.25-13.92 15.89-13.28 15.89-12.49C15.89-11.70 15.25-11.06 14.46-11.06ZM8.51-11.53C8.10-11.75 7.97-12.23 8.18-12.62C8.39-13.03 8.88-13.20 9.27-12.98L13.23-10.88C14.07-10.43 14.65-10.45 15.36-10.85L19.36-12.98C19.77-13.21 20.24-13.03 20.46-12.64C20.67-12.23 20.52-11.73 20.13-11.53L16.09-9.36C15.90-9.27 15.86-9.20 15.81-9L15.23-6.89C15.18-6.88 15.11-6.86 15.05-6.86C13.98-6.86 13.44-7.79 12.08-7.82L12.48-9.23C12.52-9.35 12.47-9.42 12.35-9.48ZM15.04-4.93C13.32-4.93 12.82-5.89 12.02-5.89C11.02-5.89 10.71-4.93 9.01-4.93L8.55-4.93C8.29-4.93 8.07-5.14 8.07-5.41C8.07-5.67 8.29-5.89 8.55-5.89L9.01-5.89C10.04-5.89 10.38-6.87 12.02-6.87C13.45-6.87 14.00-5.89 15.04-5.89C16.07-5.89 16.61-6.87 18.05-6.87C19.66-6.87 20.02-5.89 21.05-5.89L21.49-5.89C21.76-5.89 21.98-5.67 21.98-5.41C21.98-5.14 21.76-4.93 21.49-4.93L21.05-4.93C19.35-4.93 19.03-5.89 18.05-5.89C17.23-5.89 16.73-4.93 15.04-4.93ZM11.70-4.04C11.48-4.04 11.30-4.22 11.30-4.44C11.30-4.65 11.48-4.83 11.70-4.83C11.93-4.83 12.09-4.65 12.09-4.44C12.09-4.22 11.93-4.04 11.70-4.04ZM18.35-4.04C18.14-4.04 17.95-4.22 17.95-4.44C17.95-4.65 18.14-4.83 18.35-4.83C18.56-4.83 18.75-4.65 18.75-4.44C18.75-4.22 18.56-4.04 18.35-4.04ZM10.58-3.70C10.36-3.70 10.18-3.88 10.18-4.10C10.18-4.31 10.36-4.49 10.58-4.49C10.79-4.49 10.97-4.31 10.97-4.10C10.97-3.88 10.79-3.70 10.58-3.70ZM12.82-3.70C12.60-3.70 12.42-3.88 12.42-4.10C12.42-4.31 12.60-4.49 12.82-4.49C13.03-4.49 13.22-4.31 13.22-4.10C13.22-3.88 13.03-3.70 12.82-3.70ZM17.23-3.70C17.02-3.70 16.84-3.88 16.84-4.10C16.84-4.31 17.02-4.49 17.23-4.49C17.45-4.49 17.63-4.31 17.63-4.10C17.63-3.88 17.45-3.70 17.23-3.70ZM19.48-3.70C19.25-3.70 19.08-3.88 19.08-4.10C19.08-4.31 19.25-4.49 19.48-4.49C19.69-4.49 19.86-4.31 19.86-4.10C19.86-3.88 19.69-3.70 19.48-3.70ZM8.47-3.35C8.26-3.35 8.07-3.54 8.07-3.75C8.07-3.96 8.26-4.15 8.47-4.15C8.68-4.15 8.87-3.96 8.87-3.75C8.87-3.54 8.68-3.35 8.47-3.35ZM9.53-3.35C9.32-3.35 9.14-3.54 9.14-3.75C9.14-3.96 9.32-4.15 9.53-4.15C9.75-4.15 9.93-3.96 9.93-3.75C9.93-3.54 9.75-3.35 9.53-3.35ZM20.53-3.35C20.30-3.35 20.13-3.54 20.13-3.75C20.13-3.96 20.30-4.15 20.53-4.15C20.74-4.15 20.91-3.96 20.91-3.75C20.91-3.54 20.74-3.35 20.53-3.35ZM21.59-3.35C21.38-3.35 21.19-3.54 21.19-3.75C21.19-3.96 21.38-4.15 21.59-4.15C21.80-4.15 21.98-3.96 21.98-3.75C21.98-3.54 21.80-3.35 21.59-3.35ZM13.86-3.20C13.65-3.20 13.46-3.38 13.46-3.60C13.46-3.81 13.65-3.98 13.86-3.98C14.07-3.98 14.26-3.81 14.26-3.60C14.26-3.38 14.07-3.20 13.86-3.20ZM16.18-3.20C15.97-3.20 15.80-3.38 15.80-3.60C15.80-3.81 15.97-3.98 16.18-3.98C16.41-3.98 16.58-3.81 16.58-3.60C16.58-3.38 16.41-3.20 16.18-3.20ZM15.04-3C14.81-3 14.64-3.18 14.64-3.40C14.64-3.61 14.81-3.79 15.04-3.79C15.25-3.79 15.42-3.61 15.42-3.40C15.42-3.18 15.25-3 15.04-3Z" fill="currentColor"/>
</svg>