<svg xmlns="http://www.w3.org/2000/svg" viewBox="0 0 24 24" width="24" height="24">
  
  <path transform="matrix(0.6399014107113848, 0, 0, 0.6399014107113848, 0.6309144371540394, 18.66068297376773)" d="M27.43-16.92C27.43-16.27 27.94-15.75 28.61-15.75C29.24-15.75 29.74-16.27 29.74-16.92L29.74-20.64L31.37-20.64C32.51-20.64 32.88-21.76 32.21-22.51L29.37-25.64C28.90-26.19 28.27-26.14 27.79-25.64L24.95-22.51C24.22-21.73 24.74-20.64 25.79-20.64L27.43-20.64ZM6.74-14.92C8.81-14.92 10.44-16.63 10.44-18.62C10.44-20.71 8.81-22.37 6.74-22.37C4.66-22.37 2.99-20.71 2.99-18.62C2.99-16.63 4.66-14.92 6.74-14.92ZM21.63-16.90C21.63-18.04 20.51-18.41 19.75-17.74L16.62-14.89C16.08-14.43 16.13-13.79 16.62-13.31L19.75-10.48C20.53-9.75 21.63-10.27 21.63-11.32L21.63-12.96L25.39-12.96C26.06-12.96 26.57-13.46 26.57-14.13C26.57-14.77 26.06-15.27 25.39-15.27L21.63-15.27ZM28.51 4.65C29.26 3.93 29.34 2.74 28.38 1.73L22.54-4.38C21.08-5.89 19.56-6.12 17.77-5.44L14.77-4.31L11.10-10.97C9.91-13.09 7.92-13.86 6-12.79C4.03-11.68 3.63-9.63 4.79-7.50L7.34-2.89C8.75-0.32 12.04 0.95 14.88-0.11L19.00-1.63C19.31-1.75 19.49-1.72 19.72-1.49L25.41 4.39C26.39 5.41 27.69 5.47 28.51 4.65ZM29.74-11.32C29.74-11.98 29.24-12.48 28.61-12.48C27.94-12.48 27.43-11.98 27.43-11.32L27.43-7.61L25.79-7.61C24.74-7.61 24.22-6.50 24.95-5.72L27.79-2.60C28.27-2.10 28.90-2.05 29.37-2.60L32.21-5.72C32.88-6.48 32.51-7.61 31.37-7.61L29.74-7.61Z" fill="currentColor"/>
</svg>