<svg xmlns="http://www.w3.org/2000/svg" viewBox="0 0 24 24" width="24" height="24">
  <title>figure.wrestling.circle</title>
  <path transform="matrix(0.7810831426392068, 0, 0, 0.7810831426392068, 0.3615560640732265, 18.608695652173914)" d="M14.89 4.34C21.97 4.34 27.70-1.39 27.70-8.46C27.70-15.53 21.97-21.26 14.89-21.26C7.83-21.26 2.10-15.53 2.10-8.46C2.10-1.39 7.83 4.34 14.89 4.34ZM14.89 0.16C10.13 0.16 6.27-3.69 6.27-8.46C6.27-13.23 10.13-17.09 14.89-17.09C19.66-17.09 23.53-13.23 23.53-8.46C23.53-3.69 19.66 0.16 14.89 0.16ZM18.34-11.37C19.08-11.37 19.66-11.96 19.66-12.69C19.66-13.43 19.08-14.02 18.34-14.02C17.61-14.02 17.02-13.43 17.02-12.69C17.02-11.96 17.61-11.37 18.34-11.37ZM14.30-3.82C14.71-3.82 15.01-4.15 15.01-4.55L15.01-7.14C15.01-7.42 14.88-7.62 14.72-7.78L13.15-9.35L14.93-9.81C15.02-9.83 15.07-9.77 15.07-9.70L15.07-8.68C15.07-8.51 15.15-8.32 15.28-8.18L17.06-6.40C17.34-6.12 17.79-6.12 18.06-6.40C18.34-6.67 18.34-7.14 18.06-7.42L16.49-8.98L16.49-9.74L17.18-8.95C17.32-8.79 17.51-8.72 17.72-8.72L20.38-8.72C20.78-8.72 21.09-9.02 21.09-9.43C21.09-9.82 20.78-10.14 20.38-10.14L18.04-10.14L16.66-11.73C16.18-12.27 15.46-12.48 14.78-12.30L11.74-11.54C10.44-11.23 10.22-9.62 11.23-8.79L13.61-6.87L13.61-4.55C13.61-4.15 13.91-3.82 14.30-3.82ZM9.07-4.03C9.34-3.75 9.80-3.75 10.07-4.03L12.14-6.11C12.28-6.23 12.32-6.36 12.36-6.55L12.45-7.05L10.93-8.26L10.93-6.90L9.07-5.04C8.79-4.77 8.79-4.30 9.07-4.03Z" fill="currentColor"/>
</svg>