<svg xmlns="http://www.w3.org/2000/svg" viewBox="0 0 24 24" width="24" height="24">
  <title>figure.step.training</title>
  <path transform="matrix(0.6316308906982482, 0, 0, 0.6316308906982482, 3.0480251653285704, 17.35159141376758)" d="M13.91-18.39C15.54-18.39 16.88-19.71 16.88-21.34C16.88-22.97 15.54-24.30 13.91-24.30C12.28-24.30 10.96-22.97 10.96-21.34C10.96-19.71 12.28-18.39 13.91-18.39ZM4.23-8.43C4.98-8.31 5.85-8.66 6.05-9.60L7.05-14.09L8.61-14.09C8.73-14.09 8.80-14.00 8.77-13.88L7.55-9.19C6.98-7.02 8.43-4.89 11.11-5.55L15.25-6.59L14.44-2.63C14.26-1.78 14.81-0.95 15.64-0.79C16.34-0.64 17.30-1.10 17.47-2.00L18.74-8.34C18.96-9.43 18.04-10.30 17.07-10.21L13.42-9.86L14.46-13.82C14.50-13.96 14.63-14.02 14.74-13.97L19.22-12.28C20.23-11.89 21.30-12.49 21.30-13.57L21.30-19.44C21.30-20.29 20.61-20.99 19.75-20.99C18.91-20.99 18.20-20.29 18.20-19.44L18.20-15.96L16.21-16.73C15.40-17.05 14.52-17.18 13.65-17.18L5.79-17.18C5.09-17.18 4.45-16.68 4.29-15.97L3.02-10.27C2.84-9.43 3.38-8.57 4.23-8.43ZM9.94 6.83C10.66 6.96 11.58 6.50 11.75 5.61L12.98-0.60C13.03-0.82 13.04-0.96 13.04-1.14L13.04-4.54L11.46-4.14C10.77-3.96 10.14-3.93 9.56-4.00L9.96-1.10L8.74 4.98C8.58 5.80 9.09 6.64 9.94 6.83ZM15.39 3.89L23.09 3.89C23.72 3.89 24.25 3.36 24.25 2.73C24.25 2.09 23.72 1.57 23.09 1.57L15.39 1.57C14.75 1.57 14.23 2.09 14.23 2.73C14.23 3.36 14.75 3.89 15.39 3.89ZM13.97 7.36L24.20 7.36C24.84 7.36 25.36 6.84 25.36 6.20C25.36 5.57 24.84 5.04 24.20 5.04L13.97 5.04C13.34 5.04 12.81 5.57 12.81 6.20C12.81 6.84 13.34 7.36 13.97 7.36Z" fill="currentColor"/>
</svg>