<svg xmlns="http://www.w3.org/2000/svg" viewBox="0 0 24 24" width="24" height="24">
  <title>figure.highintensity.intervaltraining.circle</title>
  <path transform="matrix(0.7810831426392068, 0, 0, 0.7810831426392068, 0.3615560640732265, 18.608695652173914)" d="M14.89 4.34C21.97 4.34 27.70-1.39 27.70-8.46C27.70-15.53 21.97-21.26 14.89-21.26C7.83-21.26 2.10-15.53 2.10-8.46C2.10-1.39 7.83 4.34 14.89 4.34ZM14.89 0.16C10.13 0.16 6.27-3.69 6.27-8.46C6.27-13.23 10.13-17.09 14.89-17.09C19.66-17.09 23.53-13.23 23.53-8.46C23.53-3.69 19.66 0.16 14.89 0.16ZM15.28-13.07C16.02-13.07 16.61-13.66 16.61-14.39C16.61-15.13 16.02-15.71 15.28-15.71C14.55-15.71 13.96-15.13 13.96-14.39C13.96-13.66 14.55-13.07 15.28-13.07ZM16.51-9.61C16.79-9.33 17.31-9.35 17.55-9.74L18.91-11.91C19.42-12.71 18.25-13.38 17.77-12.62L16.86-11.18L16.20-11.85C15.43-12.61 14.58-12.75 13.43-12.63L11.46-12.41C11.14-12.39 10.91-12.12 10.86-11.82L10.57-9.63C10.45-8.79 11.80-8.57 11.92-9.47L12.13-11.12L13.07-11.23C13.16-11.24 13.17-11.21 13.16-11.12L12.90-8.98C12.76-7.90 13.41-7.25 14.48-7.32L16.36-7.45L15.80-5.38C15.56-4.49 16.88-4.16 17.11-5.04L17.89-8.02C18.02-8.47 17.72-8.86 17.21-8.86L15.23-8.86L15.48-10.55C15.50-10.62 15.50-10.62 15.56-10.56ZM13.43-6.89L13.31-5.06L12.27-2.46C12.05-1.91 12.47-1.51 12.88-1.51C13.15-1.51 13.41-1.64 13.54-1.98L14.60-4.66C14.61-4.71 14.65-4.77 14.65-4.80L14.94-6.76L14.52-6.73C14.14-6.69 13.77-6.75 13.43-6.89Z" fill="currentColor"/>
</svg>