<svg xmlns="http://www.w3.org/2000/svg" viewBox="0 0 24 24" width="24" height="24">
  
  <path transform="matrix(0.6634902167398571, 0, 0, 0.6634902167398571, 2.115162625902338, 17.713832750366223)" d="M8.64-20.04C9.64-20.04 10.46-20.85 10.46-21.87C10.46-22.88 9.64-23.68 8.64-23.68C7.61-23.68 6.82-22.88 6.82-21.87C6.82-20.85 7.61-20.04 8.64-20.04ZM5.40 4.52L12.86 6.40C14.12 6.71 15 5.77 14.82 4.62L14.17 0.16L19.65 0.16L24.19 4.76C24.79 5.36 25.76 5.36 26.36 4.76C26.98 4.18 26.94 3.19 26.36 2.59L21.47-2.32C21.11-2.68 20.89-2.84 20.29-2.89L15.09-3.43L13.79-7.32C13.75-7.49 13.78-7.52 13.92-7.48L23.71-5.52C24.46-5.38 25.34-5.80 25.51-6.74C25.63-7.56 25.15-8.37 24.30-8.53L10.78-11.23C9.61-11.46 9.05-11.60 8.57-12.07L6.05-14.58L6.05-20.24C6.05-21.08 5.37-21.77 4.54-21.77C3.64-21.77 2.99-21.08 2.99-20.24L2.99-14.14C2.99-13.59 3.06-13.22 3.50-12.77L6.41-9.87C6.96-9.32 7.03-9.15 7.22-8.55L10.98 2.78L6.13 1.55C5.31 1.35 4.49 1.85 4.30 2.68C4.11 3.49 4.58 4.32 5.40 4.52ZM12.35-12.15C13.98-12.15 15.30-13.48 15.30-15.11C15.30-16.73 13.98-18.07 12.35-18.07C10.72-18.07 9.39-16.73 9.39-15.11C9.39-13.48 10.72-12.15 12.35-12.15Z" fill="currentColor"/>
</svg>