<svg xmlns="http://www.w3.org/2000/svg" viewBox="0 0 24 24" width="24" height="24">
  <title>figure.outdoor.soccer.circle</title>
  <path transform="matrix(0.7810831426392068, 0, 0, 0.7810831426392068, 0.3615560640732265, 18.608695652173914)" d="M14.89 4.34C21.97 4.34 27.70-1.39 27.70-8.46C27.70-15.53 21.97-21.26 14.89-21.26C7.83-21.26 2.10-15.53 2.10-8.46C2.10-1.39 7.83 4.34 14.89 4.34ZM14.89 0.16C10.13 0.16 6.27-3.69 6.27-8.46C6.27-13.23 10.13-17.09 14.89-17.09C19.66-17.09 23.53-13.23 23.53-8.46C23.53-3.69 19.66 0.16 14.89 0.16ZM16.48-12.96C17.17-12.96 17.73-13.51 17.73-14.20C17.73-14.89 17.17-15.46 16.48-15.46C15.79-15.46 15.22-14.89 15.22-14.20C15.22-13.51 15.79-12.96 16.48-12.96ZM10.28-14.73C10.28-14.48 10.48-14.27 10.75-14.27C11.21-14.27 11.46-14.20 11.74-13.90C11.88-13.72 12.06-13.64 12.22-13.64C12.40-13.64 12.57-13.72 12.70-13.90C13.00-14.20 13.24-14.27 13.71-14.27C13.97-14.27 14.18-14.48 14.18-14.73C14.18-15 13.97-15.20 13.71-15.20C13.10-15.20 12.67-15.07 12.22-14.70C11.78-15.07 11.34-15.20 10.75-15.20C10.48-15.20 10.28-15 10.28-14.73ZM11.16-8.94C11.54-8.78 11.89-8.94 12.04-9.25L12.97-11.11L14.00-11.11C14.09-11.11 14.10-11.05 14.07-10.99L13.09-9.05C12.67-8.23 13.17-7.18 14.25-7.25L16.78-7.42L15.87-5.37C15.70-5.00 15.87-4.61 16.21-4.46C16.57-4.32 16.92-4.44 17.09-4.82L18.48-7.89C18.66-8.29 18.40-8.82 17.88-8.82L15.60-8.82L16.58-10.79C16.61-10.84 16.68-10.85 16.72-10.80L17.95-9.62C18.26-9.33 18.82-9.39 19.03-9.81L20.13-12.04C20.30-12.36 20.19-12.79 19.84-12.95C19.51-13.09 19.10-12.97 18.94-12.63L18.25-11.24L17.72-11.77C17.27-12.22 16.79-12.45 16.05-12.45L12.56-12.45C12.33-12.45 12.07-12.29 11.96-12.09L10.84-9.83C10.68-9.52 10.80-9.11 11.16-8.94ZM9.59-3.61C9.81-3.16 10.27-3.16 10.48-3.25L13.25-4.45C13.39-4.52 13.52-4.64 13.59-4.78L14.51-6.64L14.30-6.63C13.75-6.59 13.31-6.76 12.98-7.03L12.45-5.59L9.94-4.50C9.60-4.35 9.42-3.95 9.59-3.61ZM19.11-3.01C19.82-3.01 20.38-3.56 20.38-4.28C20.38-4.98 19.82-5.54 19.11-5.54C18.41-5.54 17.86-4.98 17.86-4.28C17.86-3.56 18.41-3.01 19.11-3.01ZM10.43-1.62C10.64-1.62 10.83-1.79 10.83-2.00C10.83-2.23 10.64-2.40 10.43-2.40C10.21-2.40 10.04-2.23 10.04-2.00C10.04-1.79 10.21-1.62 10.43-1.62ZM11.43-1.62C11.64-1.62 11.81-1.79 11.81-2.00C11.81-2.23 11.64-2.40 11.43-2.40C11.20-2.40 11.04-2.23 11.04-2.00C11.04-1.79 11.20-1.62 11.43-1.62ZM12.42-1.62C12.63-1.62 12.81-1.79 12.81-2.00C12.81-2.23 12.63-2.40 12.42-2.40C12.20-2.40 12.04-2.23 12.04-2.00C12.04-1.79 12.20-1.62 12.42-1.62ZM13.41-1.62C13.62-1.62 13.80-1.79 13.80-2.00C13.80-2.23 13.62-2.40 13.41-2.40C13.18-2.40 13.02-2.23 13.02-2.00C13.02-1.79 13.18-1.62 13.41-1.62ZM14.40-1.62C14.63-1.62 14.79-1.79 14.79-2.00C14.79-2.23 14.63-2.40 14.40-2.40C14.18-2.40 14.02-2.23 14.02-2.00C14.02-1.79 14.18-1.62 14.40-1.62ZM15.40-1.62C15.62-1.62 15.79-1.79 15.79-2.00C15.79-2.23 15.62-2.40 15.40-2.40C15.18-2.40 15.01-2.23 15.01-2.00C15.01-1.79 15.18-1.62 15.40-1.62ZM16.38-1.62C16.62-1.62 16.78-1.79 16.78-2.00C16.78-2.23 16.62-2.40 16.38-2.40C16.18-2.40 16.00-2.23 16.00-2.00C16.00-1.79 16.18-1.62 16.38-1.62ZM17.38-1.62C17.60-1.62 17.77-1.79 17.77-2.00C17.77-2.23 17.60-2.40 17.38-2.40C17.17-2.40 16.99-2.23 16.99-2.00C16.99-1.79 17.17-1.62 17.38-1.62ZM18.38-1.62C18.60-1.62 18.76-1.79 18.76-2.00C18.76-2.23 18.60-2.40 18.38-2.40C18.16-2.40 17.99-2.23 17.99-2.00C17.99-1.79 18.16-1.62 18.38-1.62ZM19.36-1.62C19.59-1.62 19.76-1.79 19.76-2.00C19.76-2.23 19.59-2.40 19.36-2.40C19.16-2.40 18.97-2.23 18.97-2.00C18.97-1.79 19.16-1.62 19.36-1.62Z" fill="currentColor"/>
</svg>