<svg xmlns="http://www.w3.org/2000/svg" viewBox="0 0 24 24" width="24" height="24">
  <title>figure.golf.circle</title>
  <path transform="matrix(0.7810831426392068, 0, 0, 0.7810831426392068, 0.3615560640732265, 18.608695652173914)" d="M14.89 4.34C21.97 4.34 27.70-1.39 27.70-8.46C27.70-15.53 21.97-21.26 14.89-21.26C7.83-21.26 2.10-15.53 2.10-8.46C2.10-1.39 7.83 4.34 14.89 4.34ZM14.89 0.16C10.13 0.16 6.27-3.69 6.27-8.46C6.27-13.23 10.13-17.09 14.89-17.09C19.66-17.09 23.53-13.23 23.53-8.46C23.53-3.69 19.66 0.16 14.89 0.16ZM13.29-0.91C13.66-0.91 13.97-1.23 13.97-1.61L13.97-4.21L14.99-5.71C15.08-5.82 15.23-5.78 15.26-5.65L15.41-4.37C15.42-4.28 15.45-4.21 15.49-4.10L16.52-1.36C16.69-0.94 17.09-0.86 17.40-0.96C17.72-1.08 17.96-1.42 17.80-1.84L16.78-4.55L16.78-9.82C16.78-10.44 16.51-11.12 15.89-11.38L15.53-11.53C14.85-11.82 14.20-11.72 13.63-11.31L12.36-10.39L11.20-10.89L14.03-14.82L14.91-14.82C15.26-14.82 15.55-15.13 15.55-15.47C15.55-15.84 15.26-16.14 14.91-16.14L13.98-16.14C13.83-16.14 13.65-16.05 13.56-15.93L9.95-10.96C9.63-10.52 9.76-10.02 10.18-9.83L12.16-8.98C12.27-8.93 12.38-8.93 12.50-8.93L13.84-8.93C13.98-8.93 14.02-8.88 14.02-8.75L14.02-7.24L12.68-4.72C12.62-4.62 12.60-4.51 12.60-4.39L12.60-1.61C12.60-1.23 12.90-0.91 13.29-0.91ZM16.31-11.98C17.04-11.98 17.64-12.57 17.64-13.30C17.64-14.04 17.04-14.63 16.31-14.63C15.57-14.63 14.99-14.04 14.99-13.30C14.99-12.57 15.57-11.98 16.31-11.98Z" fill="currentColor"/>
</svg>