<svg xmlns="http://www.w3.org/2000/svg" viewBox="0 0 24 24" width="24" height="24">
  
  <path transform="matrix(0.72491134860801, 0, 0, 0.72491134860801, 0.37502361929709904, 18.217059740148724)" d="M6.74-14.92C8.81-14.92 10.44-16.63 10.44-18.62C10.44-20.71 8.81-22.37 6.74-22.37C4.65-22.37 2.99-20.71 2.99-18.62C2.99-16.63 4.65-14.92 6.74-14.92ZM15.89-13.41C15.89-11.59 17.38-9.89 19.13-9.89C20.57-9.89 21.39-11.05 21.81-13.11L22.29-13.14L22.29-11.19C22.29-10.09 22.91-9.46 24.01-9.46C25.83-9.46 27.53-10.93 27.53-12.66C27.53-14.11 26.36-14.92 24.28-15.34L24.26-15.83L26.21-15.83C27.30-15.83 27.96-16.44 27.96-17.53C27.96-19.34 26.48-21.04 24.74-21.04C23.27-21.04 22.49-19.89 22.07-17.82L21.56-17.80L21.56-19.76C21.56-20.85 20.94-21.49 19.85-21.49C18.05-21.49 16.35-20.00 16.35-18.27C16.35-16.82 17.51-16.03 19.58-15.60L19.59-15.12L17.65-15.12C16.56-15.12 15.89-14.50 15.89-13.41ZM21.91-14.29C21.26-14.29 20.72-14.82 20.72-15.48C20.72-16.14 21.26-16.68 21.91-16.68C22.57-16.68 23.11-16.14 23.11-15.48C23.11-14.82 22.57-14.29 21.91-14.29ZM28.51 4.65C29.25 3.93 29.34 2.74 28.38 1.73L22.54-4.38C21.08-5.89 19.56-6.12 17.77-5.44L14.75-4.31L11.10-10.97C9.91-13.09 7.91-13.86 5.99-12.79C4.02-11.68 3.63-9.63 4.79-7.50L7.34-2.89C8.75-0.32 12.02 0.95 14.87-0.11L18.98-1.63C19.31-1.75 19.49-1.72 19.72-1.49L25.39 4.39C26.38 5.41 27.69 5.47 28.51 4.65Z" fill="currentColor"/>
</svg>