<svg xmlns="http://www.w3.org/2000/svg" viewBox="0 0 24 24" width="24" height="24">
  
  <path transform="matrix(0.7810831426392068, 0, 0, 0.7810831426392068, 0.3615560640732265, 18.608695652173914)" d="M14.89 4.34C21.97 4.34 27.70-1.39 27.70-8.46C27.70-15.53 21.97-21.26 14.89-21.26C7.83-21.26 2.10-15.53 2.10-8.46C2.10-1.39 7.83 4.34 14.89 4.34ZM15.33-13.42C14.54-13.42 13.89-14.05 13.89-14.84C13.89-15.63 14.54-16.27 15.33-16.27C16.13-16.27 16.76-15.63 16.76-14.84C16.76-14.05 16.13-13.42 15.33-13.42ZM16.64-9.69L15.62-10.70C15.56-10.78 15.56-10.78 15.54-10.69L15.27-8.88L17.40-8.88C17.95-8.88 18.27-8.46 18.14-7.97L17.29-4.76C17.03-3.81 15.62-4.17 15.87-5.13L16.48-7.36L14.45-7.23C13.29-7.15 12.61-7.84 12.75-9.01L13.03-11.31C13.04-11.43 13.03-11.45 12.94-11.43L11.93-11.31L11.70-9.54C11.57-8.57 10.13-8.80 10.24-9.70L10.56-12.07C10.61-12.39 10.86-12.68 11.20-12.70L13.34-12.95C14.57-13.07 15.48-12.93 16.31-12.09L17.03-11.38L18-12.94C18.50-13.76 19.78-13.03 19.23-12.16L17.77-9.82C17.52-9.41 16.95-9.39 16.64-9.69ZM13.34-6.76C13.69-6.61 14.09-6.55 14.50-6.59L14.95-6.61L14.64-4.51C14.64-4.46 14.60-4.41 14.59-4.36L13.44-1.46C13.30-1.10 13.02-0.96 12.74-0.96C12.28-0.96 11.84-1.39 12.07-1.99L13.20-4.79Z" fill="currentColor"/>
</svg>