<svg xmlns="http://www.w3.org/2000/svg" viewBox="0 0 24 24" width="24" height="24">
  
  <path transform="matrix(0.7810831426392068, 0, 0, 0.7810831426392068, 0.3615560640732265, 18.608695652173914)" d="M14.89 4.34C21.97 4.34 27.70-1.39 27.70-8.46C27.70-15.53 21.97-21.26 14.89-21.26C7.83-21.26 2.10-15.53 2.10-8.46C2.10-1.39 7.83 4.34 14.89 4.34ZM12-0.98C11.60-0.98 11.30-1.28 11.30-1.70L11.30-4.79C11.30-4.93 11.32-5.09 11.43-5.23L13.03-7.48C12.77-8.38 12.64-9.57 12.60-10.24C12.56-10.48 12.52-10.58 12.41-10.72L11.12-12.55C11.04-12.69 10.99-12.82 10.99-12.98L10.99-15.23C10.99-15.63 11.33-15.95 11.73-15.95C12.14-15.95 12.48-15.63 12.48-15.23L12.48-13.21L13.17-12.19C13.45-11.78 13.88-11.63 14.39-11.50C14.82-11.39 15.34-11.30 15.81-11.05L17.41-10.25C17.57-10.18 17.68-10.05 17.74-9.93L18.84-7.70C19.32-6.76 17.99-6.16 17.55-7.04L16.56-9.06L15.49-9.61C15.36-9.66 15.34-9.64 15.35-9.49C15.41-8.82 15.53-8.17 15.77-7.66L18.59-2.04C19.02-1.17 17.73-0.49 17.25-1.42L15.91-4.11L14.44-6.07C14.39-6.14 14.30-6.15 14.23-6.08L12.75-4.50L12.75-1.70C12.75-1.28 12.42-0.98 12-0.98ZM14.89-12.04C14.10-12.04 13.45-12.68 13.45-13.46C13.45-14.25 14.10-14.88 14.89-14.88C15.68-14.88 16.32-14.25 16.32-13.46C16.32-12.68 15.68-12.04 14.89-12.04Z" fill="currentColor"/>
</svg>