<svg xmlns="http://www.w3.org/2000/svg" viewBox="0 0 24 24" width="24" height="24">
  <title>figure.basketball</title>
  <path transform="matrix(0.6772621446126647, 0, 0, 0.6772621446126647, 0.804352732134165, 17.80983818830189)" d="M15.70-17.41C17.32-17.41 18.66-18.75 18.66-20.38C18.66-22.01 17.32-23.34 15.70-23.34C14.06-23.34 12.74-22.01 12.74-20.38C12.74-18.75 14.06-17.41 15.70-17.41ZM4.05 5.74C4.64 6.28 5.58 6.39 6.25 5.74L11.68 0.32C12.09-0.08 12.16-0.45 12.13-0.97L11.88-3.66C11.85-3.95 12.14-4.05 12.36-3.87L15.54-1.13L17.54 5.09C17.84 5.99 18.74 6.33 19.49 6.11C20.36 5.85 20.79 4.97 20.52 4.14L18.40-2.50C18.33-2.70 18.21-2.96 17.99-3.14L13.97-7.15L16.54-12.29C16.58-12.40 16.65-12.41 16.73-12.33L19.72-9.33C19.89-9.16 20.14-9.01 20.36-8.95L26.41-7.15C27.02-6.97 28.02-7.20 28.35-8.20C28.58-9.02 28.11-9.90 27.30-10.14L21.64-11.81L18.41-15.07C17.61-15.87 16.69-16.22 15.61-16.22L6.96-16.22C6.36-16.22 5.84-15.87 5.57-15.35L3.15-10.52C2.79-9.80 3.05-8.84 3.86-8.46C4.63-8.07 5.55-8.37 5.94-9.15L7.90-13.10L10.24-13.10C10.37-13.10 10.41-13.01 10.36-12.90L8.51-9.19C7.80-7.79 7.64-6.15 8.02-4.65L8.85-1.29L4.04 3.50C3.43 4.11 3.43 5.12 4.05 5.74ZM26.86 0.57C28.64 0.57 30.07-0.87 30.07-2.64C30.07-4.43 28.64-5.87 26.86-5.87C25.08-5.87 23.64-4.43 23.64-2.64C23.64-0.87 25.08 0.57 26.86 0.57Z" fill="currentColor"/>
</svg>