<svg xmlns="http://www.w3.org/2000/svg" viewBox="0 0 24 24" width="24" height="24">
  <title>figure.lacrosse.circle.fill</title>
  <path transform="matrix(0.7810831426392068, 0, 0, 0.7810831426392068, 0.3615560640732265, 18.608695652173914)" d="M14.89 4.34C21.97 4.34 27.70-1.39 27.70-8.46C27.70-15.53 21.97-21.26 14.89-21.26C7.83-21.26 2.10-15.53 2.10-8.46C2.10-1.39 7.83 4.34 14.89 4.34ZM13.55-10.28L14.17-12.40C14.20-12.50 14.25-12.60 14.31-12.67L14.31-13.80C13.98-14.24 13.66-14.86 13.66-15.36C13.66-16.07 14.17-16.56 14.87-16.56C15.56-16.56 16.05-16.07 16.05-15.36C16.05-14.91 15.75-14.29 15.42-13.84L15.42-12.69C15.59-12.50 15.64-12.25 15.56-11.99L15.42-11.46L15.42-10.79L17.31-10.79C18.39-10.79 19.25-9.91 19.25-8.85L19.25-6.40C19.25-5.98 18.95-5.66 18.52-5.66L16.91-5.66L17.81-4.79C18.11-4.54 18.07-4.15 17.95-3.91L16.43-0.88C16.25-0.50 15.81-0.38 15.45-0.55C15.08-0.73 14.94-1.17 15.12-1.55L16.37-4.03L14.23-5.59C13.22-6.33 13.31-7.80 14.31-8.45L14.31-9.33L14.23-9.33C13.72-9.33 13.41-9.79 13.55-10.28ZM19.83-10.51C19.04-10.51 18.40-11.14 18.40-11.93C18.40-12.71 19.04-13.36 19.83-13.36C20.63-13.36 21.26-12.71 21.26-11.93C21.26-11.14 20.63-10.51 19.83-10.51ZM15.42-9.02L15.86-9.26C15.90-9.28 15.87-9.33 15.84-9.33L15.42-9.33ZM16.91-7.05L17.87-7.05L17.87-7.38C17.87-7.46 17.82-7.48 17.78-7.46ZM9.11-3.67C9.11-4.07 9.42-4.41 9.83-4.41L12.81-4.41L13.25-5.70C13.35-5.52 13.56-5.31 13.84-5.09L14.61-4.51L14.02-3.33C13.89-3.07 13.61-2.89 13.34-2.89L9.83-2.89C9.42-2.89 9.11-3.26 9.11-3.67Z" fill="currentColor"/>
</svg>