<svg xmlns="http://www.w3.org/2000/svg" viewBox="0 0 24 24" width="24" height="24">
  <title>figure.indoor.rowing.circle</title>
  <path transform="matrix(0.7810831426392068, 0, 0, 0.7810831426392068, 0.3615560640732265, 18.608695652173914)" d="M14.89 4.34C21.97 4.34 27.70-1.39 27.70-8.46C27.70-15.53 21.97-21.26 14.89-21.26C7.83-21.26 2.10-15.53 2.10-8.46C2.10-1.39 7.83 4.34 14.89 4.34ZM14.89 0.16C10.13 0.16 6.27-3.69 6.27-8.46C6.27-13.23 10.13-17.09 14.89-17.09C19.66-17.09 23.53-13.23 23.53-8.46C23.53-3.69 19.66 0.16 14.89 0.16ZM13.15-11.54C13.89-11.54 14.47-12.15 14.47-12.87C14.47-13.59 13.89-14.19 13.15-14.19C12.42-14.19 11.82-13.59 11.82-12.87C11.82-12.15 12.42-11.54 13.15-11.54ZM10.09-7.27C9.82-6.26 10.46-5.61 11.26-5.61C11.51-5.61 11.77-5.67 12.02-5.81L14.99-7.38L18.27-5.75C18.75-5.51 19.16-5.71 19.30-6.02C19.45-6.32 19.36-6.75 18.91-6.98L15.41-8.75C15.14-8.87 14.85-8.87 14.58-8.77L12.55-7.89L12.94-9.22C13.01-9.47 13.21-9.61 13.45-9.61L18.45-9.61C18.82-9.61 19.13-9.93 19.13-10.31C19.13-10.70 18.82-11.02 18.45-11.02L13.03-11.02C11.87-11.02 10.91-10.34 10.64-9.32ZM10.02-3.66L19.77-3.66C20.05-3.66 20.29-3.89 20.29-4.17C20.29-4.46 20.05-4.69 19.77-4.69L10.02-4.69C9.74-4.69 9.50-4.46 9.50-4.17C9.50-3.89 9.74-3.66 10.02-3.66Z" fill="currentColor"/>
</svg>