<svg xmlns="http://www.w3.org/2000/svg" viewBox="0 0 24 24" width="24" height="24">
  <title>figure.indoor.soccer.circle.fill</title>
  <path transform="matrix(0.7810831426392068, 0, 0, 0.7810831426392068, 0.3615560640732265, 18.608695652173914)" d="M14.89 4.34C21.97 4.34 27.70-1.39 27.70-8.46C27.70-15.53 21.97-21.26 14.89-21.26C7.83-21.26 2.10-15.53 2.10-8.46C2.10-1.39 7.83 4.34 14.89 4.34ZM16.36-13.24C15.57-13.24 14.93-13.88 14.93-14.67C14.93-15.45 15.57-16.11 16.36-16.11C17.16-16.11 17.78-15.45 17.78-14.67C17.78-13.88 17.16-13.24 16.36-13.24ZM10.31-8.67C9.90-8.86 9.75-9.32 9.94-9.69L11.24-12.23C11.36-12.49 11.63-12.66 11.91-12.66L15.89-12.66C16.71-12.66 17.26-12.39 17.77-11.87L18.38-11.29L19.17-12.87C19.36-13.25 19.83-13.41 20.19-13.23C20.59-13.03 20.72-12.57 20.53-12.20L19.28-9.64C19.04-9.16 18.40-9.09 18.05-9.46L16.64-10.80C16.58-10.85 16.51-10.84 16.49-10.77L15.35-8.54L17.96-8.54C18.55-8.54 18.86-7.92 18.64-7.45L17.05-3.96C16.86-3.54 16.48-3.41 16.05-3.57C15.67-3.71 15.49-4.20 15.67-4.58L16.72-6.94L13.84-6.75C12.60-6.66 12.05-7.85 12.50-8.79L13.63-11.02C13.66-11.09 13.64-11.16 13.55-11.16L12.38-11.16L11.31-9.01C11.14-8.67 10.73-8.47 10.31-8.67ZM9.06-2.81C8.87-3.21 9.04-3.66 9.45-3.83L11.78-4.84L12.39-6.48C12.75-6.19 13.27-6.01 13.88-6.04L14.13-6.06L13.08-3.93C12.98-3.76 12.86-3.63 12.69-3.57L10.07-2.43C9.80-2.32 9.30-2.32 9.06-2.81ZM19.36-1.90C18.56-1.90 17.93-2.55 17.93-3.35C17.93-4.16 18.56-4.78 19.36-4.78C20.17-4.78 20.82-4.16 20.82-3.35C20.82-2.55 20.17-1.90 19.36-1.90Z" fill="currentColor"/>
</svg>