<svg xmlns="http://www.w3.org/2000/svg" viewBox="0 0 24 24" width="24" height="24">
  <title>figure.socialdance.circle.fill</title>
  <path transform="matrix(0.7810831426392068, 0, 0, 0.7810831426392068, 0.3615560640732265, 18.608695652173914)" d="M14.89 4.34C21.97 4.34 27.70-1.39 27.70-8.46C27.70-15.53 21.97-21.26 14.89-21.26C7.83-21.26 2.10-15.53 2.10-8.46C2.10-1.39 7.83 4.34 14.89 4.34ZM18.77-12.40C18.04-12.40 17.41-13.01 17.41-13.76C17.41-14.50 18.04-15.09 18.77-15.09C19.54-15.09 20.13-14.50 20.13-13.76C20.13-13.01 19.54-12.40 18.77-12.40ZM11.52-12.16C10.77-12.16 10.16-12.79 10.16-13.50C10.16-14.26 10.77-14.86 11.52-14.86C12.27-14.86 12.87-14.26 12.87-13.50C12.87-12.79 12.27-12.16 11.52-12.16ZM7.95-10.41C7.45-10.45 7.11-10.91 7.28-11.39L7.97-13.44C8.10-13.83 8.53-14.04 8.92-13.91C9.30-13.79 9.50-13.34 9.38-12.95L8.99-11.82L11.38-11.64C11.71-11.61 12-11.52 12.30-11.38L14.10-10.48L16.24-10.48L17.37-11.46C17.96-12 18.77-12.11 19.51-11.87L21.01-11.38L20.91-12.56C20.87-12.97 21.16-13.36 21.56-13.38C21.97-13.43 22.34-13.11 22.38-12.71L22.63-10.35C22.70-9.77 22.22-9.40 21.66-9.60L20.96-9.82C20.91-9.83 20.85-9.80 20.86-9.73L21.08-8.58C21.19-7.96 21.04-7.27 20.67-6.76L19.34-4.83L20.31-2.39C20.47-2.00 20.27-1.56 19.89-1.41C19.54-1.25 19.09-1.41 18.93-1.83L17.79-4.65C17.70-4.88 17.74-5.11 17.86-5.33L18.57-6.74L17.19-6.54L16.99-4.70C16.95-4.31 16.63-4.02 16.27-4.02C15.89-4.02 15.46-4.34 15.50-4.83L15.75-7.25C15.79-7.57 16.01-7.83 16.31-7.90L18.63-8.55L18.11-10.01C18.09-10.07 18.04-10.08 17.99-10.04L16.98-9.16C16.88-9.05 16.69-8.99 16.52-8.99L14.00-8.99C13.83-8.99 13.63-9.05 13.54-9.09L12.14-9.79C12.11-9.81 12.05-9.80 12.05-9.74L11.87-7.98L15.93-2.84C16.18-2.51 16.11-2.06 15.79-1.79C15.49-1.55 14.99-1.61 14.75-1.90L12.62-4.62C12.62-4.58 12.62-4.57 12.60-4.52L11.81-1.89C11.68-1.45 11.26-1.28 10.89-1.39C10.50-1.50 10.27-1.91 10.38-2.33L11.12-4.77L9.68-6.62C9.39-7.00 9.22-7.48 9.22-7.98L9.22-10.21C9.22-10.27 9.20-10.30 9.15-10.30Z" fill="currentColor"/>
</svg>