<svg xmlns="http://www.w3.org/2000/svg" viewBox="0 0 24 24" width="24" height="24">
  <title>figure.field.hockey</title>
  <path transform="matrix(0.5932087612106429, 0, 0, 0.5932087612106429, 0.22732538153850856, 17.019102253055674)" d="M26.05-15.89C27.68-15.89 29.00-17.23 29.00-18.86C28.99-20.48 27.66-21.81 26.03-21.81C24.40-21.80 23.07-20.46 23.07-18.83C23.09-17.20 24.42-15.88 26.05-15.89ZM14.23-13.86L21.52-7.04C21.89-6.70 22.38-6.59 22.84-6.67L24.96-4.70L24.96-4.58C24.96-3.76 25.65-3.08 26.47-3.08C26.54-3.08 26.60-3.08 26.67-3.09L31.97 1.85C32.60 2.44 33.39 2.71 34.17 2.71C35.70 2.71 36.71 1.58 36.70 0.13C36.70-0.82 35.98-1.37 35.33-1.37C34.82-1.37 34.36-1.02 34.37-0.33L34.37 0.06C34.37 0.42 34.00 0.53 33.71 0.27L28.00-4.77L28.00-10.24C28.00-10.68 27.74-11.07 27.34-11.47L21.96-16.78C20.91-17.84 19.39-18.06 17.77-17.47L14.74-16.39C13.77-16.05 13.24-14.79 14.23-13.86ZM13.10-13.49L12.80-13.34C10.39-12.13 9.87-8.79 12.23-7.05L16.86-3.66L14.30 1.37C13.92 2.12 14.23 3.04 14.98 3.43C15.56 3.74 16.57 3.62 17.02 2.74L20.13-3.41C20.43-4.00 20.36-4.69 19.90-5.18L16.34-9.02L17.21-9.47L13.69-12.75C13.45-12.97 13.24-13.22 13.10-13.49ZM23.59-9.26L21.29-11.43L22.28-11.91C22.41-11.98 22.51-11.95 22.61-11.86L24.96-9.52L24.96-7.45L24.07-8.24C24.05-8.63 23.88-8.99 23.59-9.26ZM4.50-1.37L10.72-1.37C11.32-1.37 11.84-1.76 12.07-2.23L13.21-4.51L11.37-5.87C10.99-6.13 10.68-6.45 10.41-6.76L9.63-4.42L4.50-4.42C3.67-4.42 2.99-3.74 2.99-2.88C2.99-2.05 3.67-1.37 4.50-1.37ZM27.76 4.89C28.89 4.89 29.81 3.98 29.81 2.87C29.81 1.75 28.89 0.81 27.76 0.81C26.65 0.81 25.75 1.75 25.75 2.87C25.75 3.98 26.65 4.89 27.76 4.89Z" fill="currentColor"/>
</svg>