<svg xmlns="http://www.w3.org/2000/svg" viewBox="0 0 24 24" width="24" height="24">
  
  <path transform="matrix(0.7069870201601768, 0, 0, 0.7069870201601768, 0.7115052442845737, 17.981772990886498)" d="M8.48-16.69C10.11-16.69 11.45-18.01 11.45-19.64C11.45-21.27 10.11-22.61 8.48-22.61C6.86-22.61 5.53-21.27 5.53-19.64C5.53-18.01 6.86-16.69 8.48-16.69ZM16.88 5.68L23.86 5.68C25.03 5.68 25.43 4.17 24.45 3.53L22.36 2.13C22.51 1.82 22.62 1.46 22.71 1.11L25.51-10.08C27.45-10.30 28.95-11.93 28.95-13.92C28.95-16.07 27.21-17.80 25.07-17.80C22.92-17.80 21.20-16.07 21.20-13.92C21.20-12.46 22.01-11.19 23.20-10.54L20.44 0.55C20.02 2.25 18.62 3.34 16.88 3.34C16.21 3.34 15.69 3.90 15.69 4.51C15.69 5.12 16.21 5.68 16.88 5.68ZM12.82 4.68C13.56 4.89 14.44 4.50 14.68 3.60L16.56-3.20C16.84-4.21 16.41-4.98 15.38-5.27L10.13-6.77L10.52-11.19L12.95-9.47C13.49-9.07 14.19-9.07 14.74-9.47L19.16-12.61C19.84-13.09 20.02-14.06 19.51-14.74C19.03-15.46 18.05-15.59 17.36-15.11L13.85-12.59L10.99-14.65C10.31-15.13 9.48-15.49 8.47-15.49C6.71-15.49 5.38-14.37 5.27-12.80L4.86-6.88C4.72-4.99 5.67-3.56 7.79-3.26L13.17-2.47L11.73 2.80C11.48 3.69 12 4.46 12.82 4.68ZM25.07-12.38C24.20-12.38 23.52-13.05 23.52-13.92C23.52-14.79 24.20-15.48 25.07-15.48C25.95-15.48 26.63-14.79 26.63-13.92C26.63-13.05 25.95-12.38 25.07-12.38ZM4.18 5.68L9.56 5.68C10.23 5.68 10.73 5.12 10.73 4.51C10.73 3.90 10.23 3.34 9.56 3.34C8.98 3.34 8.53 3 8.41 2.41L7.90 0.13L8.57-0.01C9.09-0.12 9.41-0.60 9.41-1.09C9.41-1.63 9-2.06 8.51-2.14L4.32-2.86C3.27-3.04 2.80-2.00 3.18-1.29L3.42-0.82C3.87 0.05 4.59 0.61 5.59 0.57L5.91 1.98L3.54 3.53C2.55 4.17 2.96 5.68 4.18 5.68Z" fill="currentColor"/>
</svg>