<svg xmlns="http://www.w3.org/2000/svg" viewBox="0 0 24 24" width="24" height="24">
  <title>flag.2.crossed.circle</title>
  <path transform="matrix(0.7810831426392068, 0, 0, 0.7810831426392068, 0.3615560640732265, 18.608695652173914)" d="M14.89 4.34C21.97 4.34 27.70-1.39 27.70-8.46C27.70-15.53 21.97-21.26 14.89-21.26C7.83-21.26 2.10-15.53 2.10-8.46C2.10-1.39 7.83 4.34 14.89 4.34ZM14.89 0.16C10.13 0.16 6.27-3.69 6.27-8.46C6.27-13.23 10.13-17.09 14.89-17.09C19.66-17.09 23.53-13.23 23.53-8.46C23.53-3.69 19.66 0.16 14.89 0.16ZM17.17-4.07C17.45-4.21 17.54-4.58 17.38-4.85L12.95-12.47C12.70-12.93 12.33-13.03 11.96-13.03C11.66-13.03 11.30-12.84 10.98-12.68C9.87-12.02 9.49-11.13 8.55-10.58C8.12-10.35 7.76-10.24 7.56-10.11C7.23-9.94 7.07-9.54 7.30-9.13L8.91-6.36C9.12-6.01 9.39-5.82 9.81-5.82C10.23-5.82 10.58-6.01 10.90-6.19C12.01-6.83 12.40-7.76 13.34-8.29C13.55-8.43 13.73-8.50 13.91-8.57L16.39-4.27C16.56-3.98 16.90-3.88 17.17-4.07ZM19.98-5.82C20.40-5.82 20.67-6.01 20.88-6.36L22.48-9.13C22.72-9.54 22.55-9.94 22.22-10.11C22.03-10.24 21.67-10.35 21.22-10.58C20.29-11.13 19.91-12.02 18.80-12.68C18.48-12.84 18.12-13.03 17.82-13.03C17.46-13.03 17.09-12.93 16.83-12.47L15.41-10.03L16.42-8.31C17.37-7.78 17.77-6.83 18.88-6.19C19.20-6.01 19.56-5.82 19.98-5.82ZM12.62-4.07C12.88-3.88 13.23-3.98 13.39-4.27L14.38-5.96L13.72-7.11L12.41-4.85C12.25-4.58 12.33-4.21 12.62-4.07Z" fill="currentColor"/>
</svg>