<svg xmlns="http://www.w3.org/2000/svg" viewBox="0 0 24 24" width="24" height="24">
  
  <path transform="matrix(0.8606488485459741, 0, 0, 0.8606488485459741, -0.571860816944024, 19.286938981341404)" d="M7.58 3.15L21.63 3.15C24.53 3.15 26.23 1.46 26.23-1.44L26.23-15.49C26.23-18.39 24.53-20.09 21.63-20.09L7.58-20.09C4.69-20.09 2.99-18.39 2.99-15.49L2.99-1.44C2.99 1.46 4.69 3.15 7.58 3.15ZM8.21-1.01C7.50-1.01 7.15-1.30 7.15-2.07L7.15-14.85C7.15-15.62 7.50-15.91 8.21-15.91L21-15.91C21.71-15.91 22.07-15.62 22.07-14.85L22.07-2.07C22.07-1.30 21.71-1.01 21-1.01ZM10.68-2.54C11.19-2.54 11.57-2.94 11.57-3.45L11.57-6.28C11.80-6.35 12.12-6.39 12.43-6.39C14.24-6.39 15.45-5.46 17.37-5.46C18.16-5.46 18.59-5.53 19.08-5.75C19.70-6.02 19.97-6.50 19.97-7.18L19.97-12.45C19.97-13.03 19.59-13.38 18.96-13.38C18.56-13.38 18.11-13.16 17.32-13.16C15.64-13.16 14.41-14.11 12.39-14.11C11.58-14.11 11.17-14.03 10.68-13.80C10.09-13.54 9.79-13.05 9.79-12.39L9.79-3.45C9.79-2.95 10.21-2.54 10.68-2.54Z" fill="currentColor"/>
</svg>