<svg xmlns="http://www.w3.org/2000/svg" viewBox="0 0 24 24" width="24" height="24">
  <title>flag.slash.circle</title>
  <path transform="matrix(0.7810831426392068, 0, 0, 0.7810831426392068, 0.3615560640732265, 18.608695652173914)" d="M14.89 4.34C21.97 4.34 27.70-1.39 27.70-8.46C27.70-15.53 21.97-21.26 14.89-21.26C7.83-21.26 2.10-15.53 2.10-8.46C2.10-1.39 7.83 4.34 14.89 4.34ZM14.89 0.16C10.13 0.16 6.27-3.69 6.27-8.46C6.27-13.23 10.13-17.09 14.89-17.09C19.66-17.09 23.53-13.23 23.53-8.46C23.53-3.69 19.66 0.16 14.89 0.16ZM11.91-14.09L19.75-6.26C19.91-6.52 19.99-6.82 19.99-7.18L19.99-12.45C19.99-13.03 19.62-13.38 18.98-13.38C18.59-13.38 18.13-13.16 17.33-13.16C15.67-13.16 14.43-14.11 12.40-14.11C12.22-14.11 12.06-14.11 11.91-14.09ZM19.16-3.02C19.48-2.72 20.00-2.70 20.32-3.02C20.65-3.34 20.65-3.87 20.32-4.18L10.64-13.86C10.32-14.18 9.79-14.18 9.47-13.86C9.14-13.55 9.14-13.02 9.47-12.69ZM14.71-5.96L9.80-10.89L9.80-3.45C9.80-2.95 10.22-2.54 10.70-2.54C11.20-2.54 11.59-2.94 11.59-3.45L11.59-6.28C11.82-6.35 12.13-6.39 12.45-6.39C13.29-6.39 14.00-6.19 14.71-5.96Z" fill="currentColor"/>
</svg>