<svg xmlns="http://www.w3.org/2000/svg" viewBox="0 0 24 24" width="24" height="24">
  <title>flask.fill</title>
  <path transform="matrix(0.7259322274209556, 0, 0, 0.7259322274209556, 1.1365376435559327, 18.163334751169714)" d="M6.11 5.29L23.82 5.29C26.03 5.29 27.54 3.55 27.54 1.56C27.54 0.94 27.40 0.30 26.87-0.55L20.57-10.76L20.57-18.74C21.43-18.87 22.08-19.59 22.08-20.50C22.08-21.50 21.32-22.27 20.30-22.27L9.63-22.27C8.61-22.27 7.85-21.50 7.85-20.50C7.85-19.59 8.48-18.87 9.36-18.74L9.36-10.76L3.05-0.53C2.53 0.30 2.39 0.94 2.39 1.56C2.39 3.55 3.89 5.29 6.11 5.29ZM12.83-15.21L12.83-17.00L14.89-17.00C15.41-17.00 15.80-16.62 15.80-16.13C15.80-15.61 15.41-15.21 14.89-15.21ZM12.83-12.18L12.83-13.97L14.89-13.97C15.41-13.97 15.80-13.58 15.80-13.09C15.80-12.57 15.41-12.18 14.89-12.18ZM12.83-9.14L12.83-10.93L14.89-10.93C15.41-10.93 15.80-10.55 15.80-10.05C15.80-9.54 15.41-9.14 14.89-9.14Z" fill="currentColor"/>
</svg>