<svg xmlns="http://www.w3.org/2000/svg" viewBox="0 0 24 24" width="24" height="24">
  <title>flashlight.off.circle</title>
  <path transform="matrix(0.7810831426392068, 0, 0, 0.7810831426392068, 0.3615560640732265, 18.608695652173914)" d="M14.89 4.34C21.97 4.34 27.70-1.39 27.70-8.46C27.70-15.53 21.97-21.26 14.89-21.26C7.83-21.26 2.10-15.53 2.10-8.46C2.10-1.39 7.83 4.34 14.89 4.34ZM14.89 0.16C10.13 0.16 6.27-3.69 6.27-8.46C6.27-13.23 10.13-17.09 14.89-17.09C19.66-17.09 23.53-13.23 23.53-8.46C23.53-3.69 19.66 0.16 14.89 0.16ZM11.89-13.97L17.92-13.97L17.92-14.06C17.92-14.95 17.45-15.42 16.61-15.42L13.21-15.42C12.35-15.42 11.89-14.95 11.89-14.06ZM14.37-1.52L15.45-1.52C16.30-1.52 16.77-1.98 16.77-2.86L16.77-9.52C16.77-10.11 16.89-10.49 17.10-10.82L17.41-11.33C17.71-11.77 17.92-12.19 17.92-12.74L17.92-13.04L11.89-13.04L11.89-12.74C11.89-12.19 12.11-11.77 12.40-11.33L12.71-10.82C12.93-10.49 13.04-10.11 13.04-9.52L13.04-2.86C13.04-1.98 13.51-1.52 14.37-1.52ZM13.79-9.06C13.79-9.67 14.29-10.16 14.92-10.16C15.53-10.16 16.02-9.67 16.02-9.06L16.02-7.07C16.02-6.45 15.53-5.96 14.92-5.96C14.29-5.96 13.79-6.45 13.79-7.07ZM14.92-6.34C15.32-6.34 15.63-6.67 15.63-7.07C15.63-7.48 15.32-7.79 14.92-7.79C14.50-7.79 14.18-7.48 14.18-7.07C14.18-6.67 14.50-6.34 14.92-6.34Z" fill="currentColor"/>
</svg>