<svg xmlns="http://www.w3.org/2000/svg" viewBox="0 0 24 24" width="24" height="24">
  <title>forward.end.circle.fill</title>
  <path transform="matrix(0.7810831426392068, 0, 0, 0.7810831426392068, 0.3615560640732265, 18.608695652173914)" d="M14.89 4.34C21.97 4.34 27.70-1.39 27.70-8.46C27.70-15.53 21.97-21.26 14.89-21.26C7.83-21.26 2.10-15.53 2.10-8.46C2.10-1.39 7.83 4.34 14.89 4.34ZM20.05-5.11C20.05-4.54 19.76-4.25 19.17-4.25L17.94-4.25C17.36-4.25 17.07-4.54 17.07-5.11L17.07-7.90C16.93-7.70 16.72-7.54 16.48-7.39L11.61-4.55C11.36-4.41 11.11-4.34 10.84-4.34C10.27-4.34 9.75-4.79 9.75-5.54L9.75-11.37C9.75-12.12 10.24-12.56 10.84-12.56C11.11-12.56 11.36-12.50 11.61-12.36L16.48-9.52C16.73-9.38 16.95-9.22 17.07-9.02L17.07-11.80C17.07-12.34 17.36-12.66 17.94-12.66L19.17-12.66C19.75-12.66 20.05-12.38 20.05-11.80Z" fill="currentColor"/>
</svg>