<svg xmlns="http://www.w3.org/2000/svg" viewBox="0 0 24 24" width="24" height="24">
  <title>francsign.gauge.chart.leftthird.topthird.rightthird</title>
  <path transform="matrix(0.6589446589446589, 0, 0, 0.6589446589446589, 0.6177606177606179, 17.59116612703278)" d="M17.27-15.21C19.35-15.21 21.26-14.53 22.80-13.37C23.16-13.11 23.60-13.14 23.92-13.46L26.88-16.44C27.28-16.83 27.27-17.41 26.84-17.75C24.22-19.88 20.89-21.15 17.27-21.15C13.65-21.15 10.32-19.88 7.72-17.75C7.29-17.41 7.27-16.83 7.66-16.44L10.63-13.46C10.95-13.14 11.41-13.11 11.78-13.38C13.31-14.53 15.22-15.21 17.27-15.21ZM32.45-5.98C32.45-9.61 31.17-12.96 29.02-15.59C28.70-15.97 28.14-15.97 27.74-15.59L24.76-12.62C24.42-12.28 24.42-11.84 24.69-11.47C25.83-9.93 26.51-8.03 26.51-5.98C26.51-3.82 25.78-1.83 24.52-0.25C24.23 0.13 24.23 0.59 24.56 0.91L27.54 3.89C27.91 4.27 28.48 4.27 28.84 3.86C31.09 1.21 32.45-2.21 32.45-5.98ZM2.10-5.98C2.10-2.20 3.48 1.25 5.75 3.90C6.08 4.29 6.63 4.27 7.02 3.89L9.98 0.91C10.31 0.59 10.32 0.13 10.03-0.25C8.78-1.83 8.04-3.82 8.04-5.98C8.04-8.03 8.72-9.93 9.86-11.47C10.13-11.84 10.13-12.28 9.79-12.62L6.81-15.59C6.42-15.97 5.84-15.96 5.48-15.53C3.36-12.93 2.10-9.60 2.10-5.98ZM15.71-1.01C16.59-1.01 17.16-1.58 17.16-2.51L17.16-2.68L19.54-2.68C19.69-2.68 19.83-2.82 19.83-2.98C19.83-3.14 19.69-3.27 19.54-3.27L17.16-3.27L17.16-4.80L19.83-4.80C20.54-4.80 21.01-5.23 21.01-5.88C21.01-6.54 20.54-6.96 19.83-6.96L17.16-6.96L17.16-8.71L20.05-8.71C20.82-8.71 21.32-9.14 21.32-9.84C21.32-10.54 20.82-10.97 20.05-10.97L15.71-10.97C14.79-10.97 14.27-10.41 14.27-9.48L14.27-3.27L13.20-3.27C13.04-3.27 12.90-3.14 12.90-2.98C12.90-2.82 13.04-2.68 13.20-2.68L14.27-2.68L14.27-2.51C14.27-1.58 14.84-1.01 15.71-1.01Z" fill="currentColor"/>
</svg>