<svg xmlns="http://www.w3.org/2000/svg" viewBox="0 0 24 24" width="24" height="24">
  
  <path transform="matrix(0.5489439262356599, 0, 0, 0.5489439262356599, 0.3596011579285945, 16.641363782566742)" d="M8.07 3.20C10.38 3.20 11.95 2.27 13.27 1.03L15.18-0.79C15.46-1.04 15.57-1.16 15.98-1.16L26.43-1.16C26.84-1.16 26.95-1.04 27.23-0.79L29.16 1.03C30.47 2.26 32.03 3.20 34.34 3.20C37.20 3.20 39.42 1.37 39.42-1.95C39.42-3.42 39.18-5.02 38.67-6.69C37.92-9.18 36.66-12.49 35.47-14.98C34.42-17.17 33.69-18.56 30.74-19.23C28.27-19.79 25.02-20.11 21.21-20.11C17.39-20.11 14.14-19.79 11.67-19.23C8.72-18.56 7.99-17.17 6.95-14.98C5.77-12.49 4.49-9.18 3.75-6.69C3.25-5.02 2.99-3.42 2.99-1.95C2.99 1.37 5.21 3.20 8.07 3.20ZM10.55-10.45C10.55-11.38 11.18-11.98 12.13-11.98L13.64-11.98L13.64-13.37C13.64-14.36 14.29-15.01 15.25-15.01C16.22-15.01 16.85-14.36 16.85-13.37L16.85-11.98L18.26-11.98C19.29-11.98 19.95-11.38 19.95-10.45C19.95-9.53 19.29-8.93 18.26-8.93L16.85-8.93L16.85-7.52C16.85-6.55 16.22-5.89 15.25-5.89C14.29-5.89 13.64-6.55 13.64-7.52L13.64-8.93L12.13-8.93C11.18-8.93 10.55-9.53 10.55-10.45ZM29.27-10.38C28.10-10.38 27.16-11.29 27.16-12.46C27.16-13.64 28.10-14.57 29.27-14.57C30.46-14.57 31.37-13.64 31.37-12.46C31.37-11.29 30.46-10.38 29.27-10.38ZM25.36-6.36C24.20-6.36 23.27-7.28 23.27-8.45C23.27-9.63 24.20-10.54 25.36-10.54C26.54-10.54 27.47-9.63 27.47-8.45C27.47-7.28 26.54-6.36 25.36-6.36Z" fill="currentColor"/>
</svg>