<svg xmlns="http://www.w3.org/2000/svg" viewBox="0 0 24 24" width="24" height="24">
  <title>gauge.open.with.lines.needle.67percent.and.arrowtriangle</title>
  <path transform="matrix(0.634105167442602, 0, 0, 0.634105167442602, 0.6698653323567294, 18.21268240170675)" d="M30.30-22.76C29.74-23.30 28.98-23.02 28.79-22.29L27.84-18.39C27.68-17.66 28.30-17.09 28.97-17.25L32.88-18.20C33.63-18.39 33.89-19.15 33.35-19.70ZM8.21-8.29L6.81-8.29C7.05-9.71 7.62-11.04 8.41-12.18L9.41-11.17C10.04-10.55 11.05-10.55 11.67-11.17C12.30-11.80 12.30-12.81 11.67-13.43L10.69-14.44C11.81-15.23 13.14-15.79 14.57-16.03L14.57-14.47C14.57-13.58 15.28-12.87 16.17-12.87C17.04-12.87 17.77-13.58 17.77-14.47L17.77-16.03C21.73-15.36 24.86-12.25 25.52-8.29L24.12-8.29C23.23-8.29 22.51-7.57 22.51-6.68C22.51-5.81 23.23-5.07 24.12-5.07L25.52-5.07C25.29-3.64 24.73-2.33 23.93-1.20L22.91-2.20C22.29-2.84 21.27-2.84 20.66-2.20C20.03-1.58 20.03-0.56 20.66 0.06L23.38 2.79C24.12 3.53 25.66 3.81 26.63 2.73C28.88 0.25 30.25-3.06 30.25-6.67C30.25-14.43 23.92-20.74 16.17-20.74C8.43-20.74 2.10-14.43 2.10-6.67C2.10-3.06 3.46 0.25 5.71 2.73C6.67 3.81 8.21 3.53 8.96 2.79L11.68 0.06C12.30-0.56 12.30-1.58 11.68-2.20C11.05-2.84 10.04-2.84 9.42-2.20L8.40-1.20C7.62-2.33 7.05-3.64 6.81-5.07L8.21-5.07C9.11-5.07 9.82-5.81 9.82-6.68C9.82-7.57 9.11-8.29 8.21-8.29ZM17.78-4.50C17.93-4.63 18.19-4.98 18.55-5.57L21.40-10.11C21.74-10.65 21.69-11.17 21.30-11.58C20.89-11.99 20.37-12.02 19.83-11.68L15.29-8.81C14.71-8.44 14.37-8.20 14.21-8.06C13.22-7.07 13.22-5.47 14.21-4.50C15.21-3.50 16.80-3.50 17.78-4.50Z" fill="currentColor"/>
</svg>