<svg xmlns="http://www.w3.org/2000/svg" viewBox="0 0 24 24" width="24" height="24">
  <title>gearshape.circle</title>
  <path transform="matrix(0.7810831426392068, 0, 0, 0.7810831426392068, 0.3615560640732265, 18.608695652173914)" d="M14.89 4.34C21.97 4.34 27.70-1.39 27.70-8.46C27.70-15.53 21.97-21.26 14.89-21.26C7.83-21.26 2.10-15.53 2.10-8.46C2.10-1.39 7.83 4.34 14.89 4.34ZM14.89 0.16C10.13 0.16 6.27-3.69 6.27-8.46C6.27-13.23 10.13-17.09 14.89-17.09C19.66-17.09 23.53-13.23 23.53-8.46C23.53-3.69 19.66 0.16 14.89 0.16ZM14.44-2.70L15.36-2.70C15.81-2.70 16.17-2.99 16.28-3.42L16.50-4.34C16.57-4.37 16.64-4.39 16.71-4.42L17.51-3.93C17.88-3.70 18.38-3.74 18.68-4.05L19.31-4.70C19.63-5.03 19.66-5.51 19.43-5.88L18.95-6.68C18.97-6.74 19.00-6.80 19.03-6.87L19.96-7.08C20.39-7.18 20.68-7.55 20.68-8.02L20.68-8.91C20.68-9.35 20.39-9.74 19.96-9.83L19.04-10.04C19.01-10.11 18.98-10.18 18.95-10.24L19.44-11.05C19.69-11.45 19.64-11.91 19.31-12.23L18.67-12.88C18.35-13.16 17.93-13.23 17.53-13.02L16.71-12.50C16.64-12.54 16.57-12.56 16.51-12.60L16.28-13.52C16.16-13.97 15.81-14.26 15.36-14.26L14.44-14.26C13.98-14.26 13.62-13.97 13.52-13.51L13.30-12.60C13.22-12.57 13.15-12.54 13.08-12.52L12.26-13.02C11.87-13.23 11.44-13.18 11.12-12.88L10.48-12.23C10.16-11.91 10.10-11.45 10.35-11.05L10.84-10.24C10.80-10.18 10.78-10.11 10.75-10.04L9.84-9.83C9.41-9.74 9.12-9.35 9.12-8.91L9.12-8.02C9.12-7.55 9.41-7.18 9.84-7.08L10.76-6.87C10.79-6.80 10.82-6.74 10.84-6.68L10.37-5.88C10.14-5.51 10.16-5.03 10.49-4.70L11.11-4.05C11.41-3.74 11.91-3.70 12.29-3.93L13.08-4.42C13.16-4.39 13.22-4.37 13.30-4.34L13.52-3.42C13.62-2.99 13.98-2.70 14.44-2.70ZM14.89-6.76C13.96-6.76 13.18-7.54 13.18-8.47C13.18-9.42 13.96-10.18 14.89-10.18C15.84-10.18 16.61-9.42 16.61-8.47C16.61-7.54 15.84-6.76 14.89-6.76Z" fill="currentColor"/>
</svg>