<svg xmlns="http://www.w3.org/2000/svg" viewBox="0 0 24 24" width="24" height="24">
  
  <path transform="matrix(0.5834757834757834, 0, 0, 0.5834757834757834, 0.7760683760683762, 16.936752136752137)" d="M11.11-2.55L12.69-2.55C13.32-2.55 13.82-2.94 13.97-3.57L14.41-5.36C14.65-5.45 14.88-5.54 15.11-5.64L16.66-4.69C17.20-4.35 17.86-4.42 18.29-4.86L19.42-5.98C19.86-6.43 19.90-7.11 19.57-7.64L18.62-9.19C18.73-9.40 18.82-9.62 18.89-9.83L20.68-10.27C21.32-10.42 21.70-10.91 21.70-11.54L21.70-13.10C21.70-13.75 21.32-14.23 20.68-14.38L18.91-14.82C18.84-15.05 18.74-15.27 18.64-15.48L19.58-17.09C19.92-17.67 19.89-18.28 19.43-18.71L18.29-19.83C17.84-20.27 17.20-20.33 16.70-20.02L15.11-19.03C14.88-19.14 14.66-19.23 14.41-19.31L13.97-21.14C13.83-21.76 13.32-22.16 12.69-22.16L11.11-22.16C10.48-22.16 9.98-21.76 9.83-21.14L9.39-19.35C9.15-19.25 8.92-19.16 8.68-19.04L7.11-20.03C6.60-20.34 5.96-20.27 5.51-19.83L4.37-18.71C3.93-18.28 3.88-17.67 4.22-17.09L5.16-15.48C5.06-15.27 4.97-15.05 4.89-14.82L3.12-14.38C2.48-14.23 2.10-13.75 2.10-13.10L2.10-11.54C2.10-10.91 2.48-10.42 3.12-10.27L4.91-9.83C4.98-9.62 5.07-9.40 5.18-9.19L4.23-7.64C3.91-7.11 3.94-6.43 4.39-5.98L5.51-4.86C5.95-4.42 6.60-4.35 7.14-4.69L8.70-5.64C8.92-5.54 9.15-5.45 9.39-5.36L9.83-3.57C9.98-2.94 10.48-2.55 11.11-2.55ZM11.91-9.93C10.56-9.93 9.47-11.02 9.47-12.36C9.47-13.70 10.56-14.79 11.91-14.79C13.24-14.79 14.33-13.70 14.33-12.36C14.33-11.02 13.24-9.93 11.91-9.93ZM27.18 5.24L28.54 5.24C29.11 5.24 29.58 4.88 29.71 4.31L30.07 2.79C30.26 2.72 30.43 2.65 30.63 2.55L31.95 3.39C32.43 3.69 33.02 3.62 33.41 3.23L34.37 2.26C34.77 1.85 34.83 1.25 34.52 0.76L33.73-0.55C33.81-0.71 33.87-0.89 33.94-1.07L35.46-1.43C36.04-1.56 36.38-2.02 36.38-2.59L36.38-3.94C36.38-4.52 36.04-4.96 35.46-5.10L33.95-5.47C33.88-5.67 33.82-5.85 33.74-6L34.55-7.35C34.85-7.88 34.80-8.44 34.39-8.84L33.40-9.79C32.99-10.16 32.43-10.24 31.96-9.95L30.61-9.12C30.46-9.20 30.26-9.28 30.07-9.34L29.71-10.90C29.58-11.46 29.11-11.82 28.54-11.82L27.18-11.82C26.60-11.82 26.16-11.46 26.02-10.90L25.63-9.36C25.44-9.29 25.27-9.22 25.08-9.14L23.74-9.96C23.27-10.24 22.69-10.18 22.29-9.79L21.32-8.84C20.91-8.44 20.87-7.88 21.18-7.35L21.96-5.99C21.90-5.85 21.83-5.67 21.75-5.47L20.25-5.10C19.69-4.96 19.32-4.50 19.32-3.94L19.32-2.59C19.32-2.03 19.69-1.56 20.25-1.43L21.79-1.07C21.84-0.89 21.91-0.71 22.00-0.55L21.19 0.76C20.87 1.22 20.92 1.85 21.32 2.26L22.29 3.23C22.69 3.62 23.27 3.69 23.77 3.39L25.09 2.57C25.27 2.65 25.45 2.72 25.63 2.79L26.02 4.31C26.16 4.88 26.60 5.24 27.18 5.24ZM27.86-1.37C26.79-1.37 25.93-2.23 25.93-3.29C25.93-4.36 26.79-5.21 27.86-5.21C28.92-5.21 29.78-4.36 29.78-3.29C29.78-2.23 28.92-1.37 27.86-1.37Z" fill="currentColor"/>
</svg>