<svg xmlns="http://www.w3.org/2000/svg" viewBox="0 0 24 24" width="24" height="24">
  
  <path transform="matrix(0.7810831426392068, 0, 0, 0.7810831426392068, 0.3615560640732265, 18.608695652173914)" d="M14.89 4.34C21.97 4.34 27.70-1.39 27.70-8.46C27.70-15.53 21.97-21.26 14.89-21.26C7.83-21.26 2.10-15.53 2.10-8.46C2.10-1.39 7.83 4.34 14.89 4.34ZM14.89 1.17C9.59 1.17 5.27-3.15 5.27-8.46C5.27-12 7.18-15.09 10.02-16.77C9.79-15.48 8.92-15.05 8.92-14.10C8.92-13.57 9.29-13.25 9.88-13.25C10.88-13.25 11.55-14.47 12.12-14.47C12.47-14.47 12.73-13.85 13.57-13.85C13.80-13.85 14.05-13.95 14.13-14.30C14.18-14.47 14.30-14.57 14.45-14.57C15.18-14.57 15.75-13.72 15.75-13.41C15.75-13.03 15.55-12.76 15.28-12.76C15-12.76 13.78-13.15 12.66-13.15C10.05-13.15 7.99-11.47 7.99-9.35C7.99-7.45 9.14-6.33 11.07-6.33C12.11-6.33 12.86-5.64 12.86-4.70C12.86-3.09 12.67-0.12 15.16-0.12C17.27-0.12 19.03-3.34 19.49-4.05C20.07-5.03 19.80-5.98 19.80-6.50C19.80-6.81 20.96-7.68 20.96-8.66C20.96-9.46 18.64-10.28 18.64-10.91C18.64-11.14 18.90-11.50 19.09-11.50C19.57-11.50 20.93-9.62 21.56-9.62C22.00-9.62 21.88-10.23 22.14-10.23C22.52-10.23 22.79-7.97 24.29-6.33C23.32-2.04 19.48 1.17 14.89 1.17ZM18.41-14.67C18.13-14.67 18.04-14.51 17.58-14.51C17.14-14.51 16.80-14.84 16.80-15.27C16.80-15.88 17.38-16.23 18.34-16.23C19.16-16.23 19.78-15.77 19.78-15.18C19.78-14.78 19.51-14.47 19.17-14.47C18.71-14.47 18.55-14.67 18.41-14.67Z" fill="currentColor"/>
</svg>