<svg xmlns="http://www.w3.org/2000/svg" viewBox="0 0 24 24" width="24" height="24">
  
  <path transform="matrix(0.7810831426392068, 0, 0, 0.7810831426392068, 0.3615560640732265, 18.608695652173914)" d="M14.89 4.34C21.97 4.34 27.70-1.39 27.70-8.46C27.70-15.53 21.97-21.26 14.89-21.26C7.83-21.26 2.10-15.53 2.10-8.46C2.10-1.39 7.83 4.34 14.89 4.34ZM14.89 0.16C10.13 0.16 6.27-3.69 6.27-8.46C6.27-13.23 10.13-17.09 14.89-17.09C19.66-17.09 23.53-13.23 23.53-8.46C23.53-3.69 19.66 0.16 14.89 0.16ZM8.41-6.34C8.41-5.63 8.89-5.17 9.62-5.17L11.59-5.17L11.59-3.20C11.59-2.46 12.05-1.99 12.76-1.99C13.45-1.99 13.91-2.46 13.91-3.20L13.91-5.17L15.89-5.17L15.89-3.20C15.89-2.46 16.34-1.99 17.04-1.99C17.74-1.99 18.20-2.47 18.20-3.20L18.20-5.17L20.18-5.17C20.91-5.17 21.39-5.63 21.39-6.34C21.39-7.03 20.91-7.49 20.18-7.49L18.20-7.49L18.20-9.45L20.18-9.45C20.91-9.45 21.39-9.89 21.39-10.59C21.39-11.30 20.91-11.75 20.18-11.75L18.20-11.75L18.20-13.72C18.20-14.45 17.74-14.94 17.04-14.94C16.34-14.94 15.89-14.46 15.89-13.72L15.89-11.75L13.91-11.75L13.91-13.72C13.91-14.46 13.45-14.94 12.76-14.94C12.05-14.94 11.59-14.46 11.59-13.72L11.59-11.75L9.62-11.75C8.89-11.75 8.41-11.30 8.41-10.59C8.41-9.89 8.89-9.45 9.62-9.45L11.59-9.45L11.59-7.49L9.62-7.49C8.89-7.49 8.41-7.03 8.41-6.34ZM13.91-7.49L13.91-9.45L15.89-9.45L15.89-7.49Z" fill="currentColor"/>
</svg>