<svg xmlns="http://www.w3.org/2000/svg" viewBox="0 0 24 24" width="24" height="24">
  <title>guaranisign.bank.building.fill</title>
  <path transform="matrix(0.6653671215074723, 0, 0, 0.6653671215074723, 0.011695906432748648, 17.629629629629626)" d="M4.59 6.20L31.43 6.20C32.29 6.20 33.05 5.50 33.05 4.59C33.05 3.73 32.29 2.99 31.43 2.99L30.84 2.99L30.84 1.83C30.84 1.11 30.40 0.69 29.71 0.69L29.34 0.69L29.34-13.21L30.26-13.21C31.31-13.21 31.95-14.02 31.95-14.80C31.95-15.38 31.62-15.91 30.95-16.31L20.05-22.59C19.49-22.92 18.82-23.12 18.20-23.12C17.58-23.12 16.91-22.92 16.35-22.59L5.45-16.31C4.78-15.91 4.45-15.38 4.45-14.80C4.45-14.02 5.09-13.21 6.15-13.21L7.05-13.21L7.05 0.69L6.69 0.69C6 0.69 5.55 1.11 5.55 1.83L5.55 2.99L4.59 2.99C3.73 2.99 2.99 3.73 2.99 4.59C2.99 5.48 3.73 6.20 4.59 6.20ZM18.30-0.67C18.14-0.67 17.99-0.80 17.99-0.98L17.99-1.65C14.92-1.83 13.32-3.80 13.32-6.95C13.32-10.08 14.96-12.09 17.99-12.25L17.99-12.94C17.99-13.13 18.14-13.25 18.30-13.25C18.48-13.25 18.62-13.13 18.62-12.94L18.62-12.25C20.14-12.18 21.79-11.60 22.51-10.28C22.63-10.03 22.70-9.75 22.70-9.49C22.70-8.74 22.21-8.24 21.46-8.24C20.82-8.24 20.45-8.54 20.12-8.96C19.75-9.48 19.30-9.82 18.62-9.90L18.62-7.58L21.67-7.58C22.59-7.58 23.11-6.94 23.11-6L23.11-5.94C23.11-3.40 21.35-1.72 18.62-1.64L18.62-0.98C18.62-0.80 18.48-0.67 18.30-0.67ZM16.37-7.00C16.37-5.65 16.76-4.32 17.99-4.03L17.99-9.87C16.70-9.67 16.37-8.32 16.37-7.00ZM18.62-4.00C19.51-4.03 20.13-4.56 20.17-5.37L20.20-5.66L18.62-5.66Z" fill="currentColor"/>
</svg>