<svg xmlns="http://www.w3.org/2000/svg" viewBox="0 0 24 24" width="24" height="24">
  
  <path transform="matrix(0.7134894091415831, 0, 0, 0.7134894091415831, -0.13210702341137148, 18.024247491638796)" d="M19.37-22.32L7.58-22.32C4.69-22.32 2.99-20.64 2.99-17.73L2.99-5.94C2.99-3.05 4.69-1.35 7.58-1.35L19.37-1.35C22.28-1.35 23.96-3.05 23.96-5.94L23.96-17.73C23.96-20.64 22.28-22.32 19.37-22.32ZM10.10-6.06C8.73-6.06 7.92-6.95 7.92-8.47L7.92-15.18C7.92-16.69 8.73-17.58 10.10-17.58C11.47-17.58 12.29-16.68 12.29-15.18L12.29-13.42L14.67-13.42L14.67-15.18C14.67-16.69 15.49-17.58 16.86-17.58C18.23-17.58 19.04-16.68 19.04-15.18L19.04-8.47C19.04-6.96 18.23-6.06 16.86-6.06C15.49-6.06 14.67-6.95 14.67-8.47L14.67-10.16L12.29-10.16L12.29-8.47C12.29-6.96 11.47-6.06 10.10-6.06ZM31.02-11.51C31.02-14.31 29.41-16.10 26.43-16.10L26.18-16.10L26.18-5.94C26.18-1.82 23.50 0.86 19.37 0.86L9.49 0.86L9.49 0.87C9.49 3.74 11.19 5.44 14.10 5.44L26.43 5.44C29.33 5.44 31.02 3.74 31.02 0.84Z" fill="currentColor"/>
</svg>