<svg xmlns="http://www.w3.org/2000/svg" viewBox="0 0 24 24" width="24" height="24">
  
  <path transform="matrix(0.7724859982246846, 0, 0, 0.7724859982246846, 0.4938136942352065, 18.535658108969262)" d="M11.67 1.71C15.66 5.70 21.07 5.18 24.76 1.49C26.87-0.62 27.81-2.98 27.69-5.71C27.57-8.71 25.54-12.48 25.00-13.55C24.22-15.05 23.23-16.98 22.76-17.73C22.23-18.59 21.30-18.89 20.52-18.42C19.61-17.91 19.39-16.97 19.71-16.11L21.29-12.16C21.39-11.92 21.38-11.81 21.28-11.72C21.20-11.65 21.08-11.61 20.89-11.80L11.84-20.86C11.11-21.59 10.09-21.59 9.36-20.87C8.66-20.16 8.66-19.11 9.38-18.40L16.43-11.36C16.20-11.24 15.98-11.13 15.76-11.00L7.78-18.98C7.04-19.72 6.04-19.72 5.32-18.98C4.59-18.27 4.59-17.24 5.32-16.52L13.22-8.61C13.08-8.43 12.90-8.24 12.76-8.05L5.45-15.38C4.73-16.09 3.69-16.10 2.98-15.39C2.27-14.67 2.27-13.63 2.99-12.91L10.89-5.02C10.78-4.76 10.70-4.52 10.61-4.28L5.09-9.80C4.37-10.54 3.34-10.54 2.63-9.83C1.91-9.09 1.91-8.05 2.63-7.34Z" fill="currentColor"/>
</svg>