<svg xmlns="http://www.w3.org/2000/svg" viewBox="0 0 24 24" width="24" height="24">
  
  <path transform="matrix(0.676175382989963, 0, 0, 0.676175382989963, 1.033280507131537, 17.515055467511885)" d="M30.35-13.04C30.35-17.96 27.33-21.77 22.73-21.77L18.95-21.77C17.24-22.55 15.34-22.95 13.38-22.95L11.68-22.95C9.90-22.95 8.46-22.83 7.57-22.59C5.45-22.08 4.03-20.41 4.03-18.48C4.03-18.30 4.05-18.14 4.10-17.98C3.29-17.21 2.85-16.17 2.85-15.05C2.85-14.61 2.92-14.21 3.05-13.85C2.52-13.17 2.24-12.30 2.24-11.38C2.24-10.79 2.36-10.25 2.57-9.77C2.25-9.16 2.09-8.40 2.09-7.58C2.09-5.24 3.79-3.50 6.12-3.50L10.15-3.50C10.24-3.50 10.32-3.45 10.28-3.30C9.95-2.36 8.45 0.27 8.45 2.65C8.45 4.93 10.11 6.63 12.34 6.63C13.93 6.63 15.09 5.79 16.07 3.93C17.65 0.83 19.75-1.79 21.66-4.24L23.20-4.24C27.55-4.24 30.35-8.05 30.35-13.04ZM21.06-12.81C21.06-10.52 20.55-9.06 18.98-6.94C17.18-4.51 14.65-1.54 12.83 2.11C12.74 2.29 12.64 2.36 12.49 2.36C12.30 2.36 12.21 2.20 12.21 2.02C12.21 0.95 14.14-2.06 14.14-4.22C14.14-5.99 12.84-7.27 10.72-7.27L6.39-7.27C6.07-7.27 5.85-7.48 5.85-7.76C5.85-7.95 5.92-8.10 6.08-8.29C6.79-9.02 6.89-10.30 6.23-10.93C6.09-11.11 6.02-11.25 6.02-11.40C6.02-11.57 6.13-11.73 6.33-11.86C7.16-12.42 7.38-13.56 6.95-14.48C6.86-14.67 6.81-14.82 6.81-14.96C6.81-15.25 6.98-15.48 7.28-15.66C8.11-16.14 8.37-17.29 8.04-18.12C7.97-18.26 7.95-18.33 7.97-18.42C7.97-18.64 8.13-18.84 8.63-18.96C9.28-19.11 10.41-19.20 12.33-19.18L13.34-19.17C17.95-19.13 21.06-16.62 21.06-12.81ZM26.75-13.04C26.75-10.32 25.66-8.30 24.13-7.91C24.05-7.90 23.95-7.89 23.87-7.88C24.53-9.41 24.83-11.02 24.83-12.95C24.83-14.93 24.26-16.79 23.12-18.42C23.17-18.42 23.29-18.41 23.38-18.40C25.34-18 26.75-15.90 26.75-13.04Z" fill="currentColor"/>
</svg>