<svg xmlns="http://www.w3.org/2000/svg" viewBox="0 0 24 24" width="24" height="24">
  
  <path transform="matrix(0.5070310952663893, 0, 0, 0.5070310952663893, 0.9364230540701131, 16.292929292929294)" d="M21.82 3.39C28.38 3.39 33.68-1.91 33.68-8.46C33.68-15.01 28.38-20.32 21.82-20.32C15.27-20.32 9.97-15.01 9.97-8.46C9.97-1.91 15.27 3.39 21.82 3.39ZM41.54-8.45C41.54-12.40 40.23-16.18 37.90-19.24C37.16-20.20 35.88-20.26 34.96-19.48C34.01-18.69 34.01-17.51 34.75-16.49C36.43-14.19 37.37-11.39 37.37-8.45C37.37-5.52 36.43-2.72 34.76-0.42C34.03 0.59 34.03 1.78 34.96 2.55C35.89 3.33 37.17 3.28 37.91 2.32C40.23-0.73 41.54-4.50 41.54-8.45ZM2.10-8.45C2.10-4.50 3.40-0.73 5.73 2.32C6.46 3.28 7.75 3.33 8.68 2.55C9.60 1.78 9.61 0.59 8.87-0.42C7.21-2.72 6.27-5.52 6.27-8.45C6.27-11.39 7.21-14.19 8.88-16.49C9.63-17.51 9.63-18.69 8.68-19.48C7.76-20.26 6.48-20.20 5.74-19.24C3.40-16.18 2.10-12.40 2.10-8.45ZM21.82-0.79C17.59-0.79 14.14-4.23 14.14-8.46C14.14-12.70 17.59-16.15 21.82-16.15C26.06-16.15 29.51-12.70 29.51-8.46C29.51-4.23 26.06-0.79 21.82-0.79ZM17.78-6.32C17.78-3.88 19.58-2.37 21.83-2.37C23.13-2.37 24.13-2.81 24.93-3.69C25.80-4.64 26.31-6.39 26.50-6.90C26.71-7.58 27-8.47 27.09-8.85C27.18-9.26 26.99-9.64 26.59-9.75C26.17-9.84 25.83-9.63 25.68-9.27L24.94-7.58C24.89-7.48 24.86-7.44 24.80-7.44C24.76-7.44 24.71-7.48 24.71-7.59L24.71-13.13C24.71-13.56 24.40-13.88 23.95-13.88C23.52-13.88 23.20-13.55 23.20-13.13L23.20-8.85C23.11-8.87 23.02-8.91 22.89-8.92L22.89-13.79C22.89-14.23 22.58-14.54 22.16-14.54C21.71-14.54 21.40-14.23 21.40-13.79L21.40-8.96C21.30-8.95 21.19-8.95 21.09-8.93L21.09-13.41C21.09-13.82 20.78-14.14 20.33-14.14C19.92-14.14 19.61-13.82 19.61-13.41L19.61-8.59C19.48-8.54 19.38-8.50 19.29-8.45L19.29-11.79C19.29-12.26 18.97-12.57 18.54-12.57C18.12-12.57 17.78-12.26 17.78-11.79Z" fill="currentColor"/>
</svg>