<svg xmlns="http://www.w3.org/2000/svg" viewBox="0 0 24 24" width="24" height="24">
  
  <path transform="matrix(0.7400982943047123, 0, 0, 0.7400982943047123, 2.2515177797051176, 18.209887250650475)" d="M11.59-21.90C5.63-21.90 2.10-18.15 2.10-11.87L2.10-9.19C2.10-6.83 3.26-5.10 4.84-5.10C5.31-5.10 5.61-5.39 5.61-5.87L5.61-6.91C5.61-7.27 5.74-7.45 5.93-7.45C6.14-7.45 6.27-7.28 6.27-6.91L6.27-6.23C6.27-4.72 7.27-3.64 8.66-3.64C9.38-3.64 9.77-4.02 9.77-4.66L9.77-6.13C9.77-6.49 9.89-6.67 10.08-6.67C10.30-6.67 10.43-6.50 10.43-6.13L10.43-4.77C10.43-3.18 11.34-2.19 12.81-2.19C13.50-2.19 13.92-2.57 13.92-3.20L13.92-6.13C13.92-6.48 14.05-6.67 14.23-6.67C14.44-6.67 14.57-6.49 14.57-6.13L14.57 3.15C14.57 4.29 15.34 5.12 16.39 5.12C17.48 5.12 18.26 4.30 18.26 3.15L18.26-9.90C18.26-10.11 18.34-10.22 18.47-10.22C18.57-10.22 18.67-10.16 18.71-10.02L20.36-6.08C20.68-5.31 21.25-4.66 22.24-4.66C23.40-4.66 24.25-5.44 24.25-6.59C24.25-6.93 24.20-7.27 24.09-7.52L21.70-14.21C19.80-19.52 16.37-21.90 11.59-21.90Z" fill="currentColor"/>
</svg>