<svg xmlns="http://www.w3.org/2000/svg" viewBox="0 0 24 24" width="24" height="24">
  
  <path transform="matrix(0.7628484539849802, 0, 0, 0.7628484539849802, -0.21153501730644209, 18.583014243853185)" d="M27.76-0.64C28.57-3.01 29.03-5.57 29.03-7.96C29.03-16.23 23.82-21.74 16.01-21.74C13.18-21.74 10.71-21 8.70-19.71L11.59-16.79C12.87-17.47 14.36-17.84 16.01-17.84C21.49-17.84 25.13-13.89 25.13-7.96C25.13-7.05 25.05-6.15 24.91-5.26C24.62-5.55 24.23-5.79 23.80-5.95C23.27-6.12 22.78-6.15 22.35-6.06ZM26.73 3.84C27.15 4.24 27.83 4.25 28.24 3.84C28.64 3.42 28.66 2.74 28.24 2.33L5.24-20.66C4.82-21.08 4.13-21.08 3.71-20.66C3.30-20.26 3.30-19.56 3.71-19.15ZM8.52 3.68C8.60 3.63 8.68 3.59 8.75 3.54C9.48 4.42 10.63 4.71 11.86 4.29C13.46 3.70 14.16 2.25 13.58 0.64L11.86-4.22C11.29-5.81 9.84-6.50 8.23-5.95C7.77-5.79 7.39-5.57 7.10-5.27C6.96-6.18 6.89-7.07 6.89-7.96C6.89-9.68 7.18-11.24 7.77-12.59L4.80-15.54C3.63-13.43 2.99-10.86 2.99-7.96C2.99-4.28 4.07-0.19 5.86 2.96C6.41 3.91 7.54 4.22 8.52 3.68ZM20.16 4.29C21.38 4.71 22.77 4.46 23.53 3.14L19.10-1.27L18.43 0.64C17.87 2.25 18.55 3.70 20.16 4.29Z" fill="currentColor"/>
</svg>