<svg xmlns="http://www.w3.org/2000/svg" viewBox="0 0 24 24" width="24" height="24">
  
  <path transform="matrix(0.7810831426392068, 0, 0, 0.7810831426392068, 0.3615560640732265, 18.608695652173914)" d="M14.89 4.34C21.97 4.34 27.70-1.39 27.70-8.46C27.70-15.53 21.97-21.26 14.89-21.26C7.83-21.26 2.10-15.53 2.10-8.46C2.10-1.39 7.83 4.34 14.89 4.34ZM14.89 0.16C10.13 0.16 6.27-3.69 6.27-8.46C6.27-13.23 10.13-17.09 14.89-17.09C19.66-17.09 23.53-13.23 23.53-8.46C23.53-3.69 19.66 0.16 14.89 0.16ZM14.88-13.03C17.21-13.03 18.70-11.60 18.69-9.34L18.70-9.28C18.66-9.28 18.61-9.28 18.55-9.28C17.96-9.28 17.53-8.84 17.52-8.25L17.52-5.32C17.53-4.92 17.72-4.57 18.04-4.42C18.12-4.38 18.14-4.38 18.20-4.36C18.13-4.34 18.11-4.34 17.99-4.31L15.90-3.94C15.70-4.08 15.46-4.16 15.21-4.11L14.26-3.94C13.77-3.86 13.43-3.38 13.51-2.86C13.61-2.39 14.07-2.02 14.59-2.12L15.52-2.30C15.77-2.33 16.01-2.51 16.14-2.71L18.73-3.15C19.43-3.27 19.98-3.68 19.97-4.69L19.97-4.82C20.43-4.98 20.71-5.37 20.70-5.87L20.70-7.79C20.71-8.17 20.57-8.48 20.33-8.70L20.33-9.28C20.34-12.50 18.14-14.68 14.88-14.68C11.65-14.68 9.47-12.50 9.45-9.28L9.45-8.70C9.21-8.48 9.11-8.16 9.08-7.79L9.08-5.99C9.11-5.13 9.79-4.78 10.32-4.76C10.52-4.46 10.84-4.29 11.21-4.29C11.81-4.29 12.28-4.73 12.27-5.32L12.27-8.25C12.28-8.85 11.82-9.28 11.21-9.28C11.18-9.28 11.13-9.28 11.09-9.28L11.10-9.32C11.10-11.60 12.57-13.03 14.88-13.03Z" fill="currentColor"/>
</svg>