<svg xmlns="http://www.w3.org/2000/svg" viewBox="0 0 24 24" width="24" height="24">
  <title>heart.slash</title>
  <path transform="matrix(0.761055369751022, 0, 0, 0.761055369751022, 0.3188405797101448, 18.644370122630992)" d="M25.02 3.06C25.44 3.46 26.12 3.47 26.53 3.06C26.93 2.64 26.95 1.96 26.53 1.55L4.04-20.93C3.62-21.35 2.93-21.35 2.51-20.93C2.11-20.53 2.11-19.83 2.51-19.42ZM24.56-2.93C27.02-5.73 28.49-8.71 28.49-11.66C28.49-16.71 24.93-19.98 20.93-19.98C18.43-19.98 16.73-18.98 15.74-17.61C14.74-18.98 13.03-19.98 10.55-19.98C9.66-19.98 8.80-19.82 7.97-19.50L11.81-15.66C11.85-15.66 11.86-15.66 11.88-15.66C13.16-15.66 14.03-14.70 14.61-13.92C14.96-13.43 15.30-13.17 15.74-13.17C16.17-13.17 16.48-13.44 16.84-13.92C17.57-14.81 18.40-15.68 20.12-15.68C22.30-15.68 23.96-14.04 23.96-11.72C23.96-9.98 23.07-8.02 21.47-6.02ZM20.37 0.96L17.29-2.12C16.84-1.78 16.36-1.44 15.87-1.11C15.82-1.08 15.79-1.05 15.74-1.05C15.69-1.05 15.66-1.08 15.61-1.11C10.54-4.49 7.50-8.53 7.50-11.72C7.50-11.78 7.51-11.85 7.52-11.91L3.83-15.60C3.29-14.46 2.99-13.14 2.99-11.66C2.99-6.59 7.27-1.49 13.56 2.73C14.38 3.27 15.19 3.79 15.74 3.79C16.28 3.79 17.10 3.27 17.92 2.73C18.76 2.16 19.61 1.56 20.37 0.96Z" fill="currentColor"/>
</svg>