<svg xmlns="http://www.w3.org/2000/svg" viewBox="0 0 24 24" width="24" height="24">
  <title>heat.waves.circle.fill</title>
  <path transform="matrix(0.7810831426392068, 0, 0, 0.7810831426392068, 0.3615560640732265, 18.585812356979407)" d="M14.89 4.37C21.97 4.37 27.70-1.36 27.70-8.44C27.70-15.50 21.97-21.23 14.89-21.23C7.83-21.23 2.10-15.50 2.10-8.44C2.10-1.36 7.83 4.37 14.89 4.37ZM17.44-12.33L18.57-13.90C18.94-14.39 19.51-14.36 19.84-13.90L20.98-12.33C21.32-11.85 21-11.18 20.39-11.18L20.07-11.18C20.07-11.20 20.07-11.23 20.07-11.25L20.07-11.18C20.11-10.01 21.09-9.77 21.09-8.33C21.09-6.83 19.83-6.29 19.83-5.29C19.83-4.96 19.89-4.76 20.17-4.39C20.89-3.41 19.49-2.44 18.74-3.35C18.28-3.96 18.06-4.56 18.06-5.21C18.06-7.17 19.34-7.56 19.34-8.33C19.34-9.12 18.34-9.33 18.34-11.25L18.34-11.18L18.04-11.18C17.38-11.18 17.13-11.88 17.44-12.33ZM13.20-12.33L14.34-13.90C14.71-14.39 15.28-14.36 15.60-13.90L16.73-12.33C17.09-11.85 16.75-11.18 16.14-11.18L15.84-11.18C15.83-11.20 15.83-11.23 15.83-11.25L15.83-11.18L15.84-11.18C15.88-10.01 16.85-9.77 16.85-8.33C16.85-6.83 15.60-6.29 15.60-5.27C15.60-4.96 15.64-4.76 15.91-4.39C16.64-3.41 15.22-2.45 14.51-3.35C14.05-3.95 13.82-4.55 13.82-5.21C13.82-7.17 15.11-7.56 15.11-8.33C15.11-9.12 14.10-9.33 14.10-11.25L14.10-11.18L13.79-11.18C13.15-11.18 12.90-11.87 13.20-12.33ZM8.84-12.33L10.02-13.90C10.41-14.39 10.98-14.34 11.31-13.90L12.45-12.33C12.79-11.85 12.49-11.18 11.84-11.18L11.53-11.18C11.53-11.20 11.53-11.23 11.53-11.25L11.53-11.18C11.58-10.00 12.55-9.77 12.55-8.33C12.55-6.83 11.27-6.28 11.27-5.27C11.27-4.95 11.36-4.76 11.60-4.39C12.34-3.43 10.96-2.44 10.21-3.35C9.75-3.95 9.53-4.55 9.53-5.21C9.53-7.17 10.80-7.55 10.80-8.33C10.80-9.11 9.80-9.32 9.80-11.25L9.80-11.18L9.43-11.18C8.79-11.18 8.52-11.88 8.84-12.33Z" fill="currentColor"/>
</svg>