<svg xmlns="http://www.w3.org/2000/svg" viewBox="0 0 24 24" width="24" height="24">
  <title>heat.waves.circle</title>
  <path transform="matrix(0.7810831426392068, 0, 0, 0.7810831426392068, 0.3615560640732265, 18.608695652173914)" d="M14.89 4.34C21.97 4.34 27.70-1.39 27.70-8.46C27.70-15.53 21.97-21.26 14.89-21.26C7.83-21.26 2.10-15.53 2.10-8.46C2.10-1.39 7.83 4.34 14.89 4.34ZM14.89 0.16C10.13 0.16 6.27-3.69 6.27-8.46C6.27-13.23 10.13-17.09 14.89-17.09C19.66-17.09 23.53-13.23 23.53-8.46C23.53-3.69 19.66 0.16 14.89 0.16ZM17.25-12.07C16.97-11.66 17.20-11.00 17.80-11.00L18.08-11.00L18.08-11.07C18.08-9.29 19.02-9.11 19.02-8.37C19.02-7.64 17.82-7.29 17.82-5.48C17.82-4.86 18.04-4.30 18.46-3.74C19.16-2.91 20.45-3.80 19.77-4.71C19.52-5.05 19.46-5.23 19.46-5.54C19.46-6.48 20.64-6.98 20.64-8.37C20.64-9.70 19.73-9.91 19.70-11.00L19.99-11.00C20.54-11.00 20.85-11.64 20.53-12.07L19.49-13.54C19.17-13.95 18.64-13.99 18.30-13.54ZM13.31-12.07C13.04-11.66 13.28-11.00 13.88-11.00L14.16-11.00L14.16-11.07C14.16-9.29 15.08-9.09 15.08-8.37C15.08-7.64 13.90-7.29 13.90-5.47C13.90-4.85 14.11-4.30 14.53-3.74C15.20-2.92 16.51-3.80 15.84-4.71C15.59-5.05 15.53-5.23 15.53-5.54C15.53-6.48 16.71-6.98 16.71-8.37C16.71-9.70 15.81-9.91 15.76-11.00L16.04-11.00C16.62-11.00 16.92-11.64 16.59-12.07L15.54-13.54C15.25-13.95 14.72-13.99 14.38-13.54ZM9.28-12.07C8.96-11.67 9.23-11.00 9.83-11.00L10.17-11.00L10.17-11.07C10.17-9.29 11.10-9.09 11.10-8.37C11.10-7.64 9.91-7.29 9.91-5.47C9.91-4.85 10.13-4.30 10.55-3.74C11.24-2.89 12.53-3.82 11.85-4.71C11.61-5.05 11.53-5.23 11.53-5.54C11.53-6.47 12.73-6.97 12.73-8.37C12.73-9.70 11.81-9.91 11.78-11.00L12.06-11.00C12.66-11.00 12.94-11.63 12.61-12.07L11.57-13.54C11.26-13.95 10.73-13.99 10.38-13.54Z" fill="currentColor"/>
</svg>