<svg xmlns="http://www.w3.org/2000/svg" viewBox="0 0 24 24" width="24" height="24">
  
  <path transform="matrix(0.7810831426392068, 0, 0, 0.7810831426392068, 0.3615560640732265, 18.608695652173914)" d="M14.89 4.34C21.97 4.34 27.70-1.39 27.70-8.46C27.70-15.53 21.97-21.26 14.89-21.26C7.83-21.26 2.10-15.53 2.10-8.46C2.10-1.39 7.83 4.34 14.89 4.34ZM14.89-7.39C11.36-7.39 8.51-8.72 8.51-10.49C8.51-12.23 11.36-13.54 14.89-13.54C18.42-13.54 21.29-12.23 21.29-10.49C21.29-8.72 18.42-7.39 14.89-7.39ZM14.89-3.40C11.33-3.40 8.51-5.05 8.51-7.20L8.51-8.39C9.76-7.10 12.23-6.43 14.89-6.43C17.55-6.43 20.02-7.10 21.29-8.39L21.29-7.20C21.29-5.05 18.46-3.40 14.89-3.40Z" fill="currentColor"/>
</svg>