<svg xmlns="http://www.w3.org/2000/svg" viewBox="0 0 24 24" width="24" height="24">
  <title>homepod.arrow.forward.fill</title>
  <path transform="matrix(0.745594874035241, 0, 0, 0.745594874035241, 3.367409349060725, 18.286588029707296)" d="M13.69-18.70C10.52-18.70 8.06-19.22 8.06-20.27C8.06-21.34 10.50-21.84 13.69-21.84C16.98-21.84 19.43-21.34 19.43-20.27C19.43-19.22 16.97-18.70 13.69-18.70ZM0.13-4.88C-0.68-4.88-1.34-5.53-1.34-6.40C-1.34-7.25-0.68-7.91 0.13-7.91L2.99-7.91L2.99-4.88L9.88-4.88L10.93-4.98L10.45-4.65L10.03-4.22C9.79-3.97 9.60-3.57 9.60-3.20C9.60-2.38 10.20-1.78 11.03-1.78C11.44-1.78 11.75-1.93 12.02-2.18L14.77-4.92C15.23-5.39 15.45-5.87 15.45-6.40C15.45-6.91 15.23-7.39 14.77-7.86L12.02-10.61C11.75-10.86 11.44-11.00 11.03-11.00C10.20-11.00 9.60-10.41 9.60-9.59C9.60-9.21 9.77-8.84 10.03-8.57L10.45-8.13L10.93-7.80L9.88-7.91L2.99-7.91L2.99-13.32C2.99-14.82 3.25-16.69 4.01-17.92C4.45-18.66 5.38-18.90 6.41-18.43C8.27-17.54 10.84-17.04 13.75-17.04C16.64-17.04 19.22-17.54 21.07-18.43C22.10-18.90 23.04-18.66 23.48-17.92C24.25-16.69 24.49-14.82 24.49-13.32L24.49-3.53C24.49 2.32 21.20 4.98 13.75 4.98C6.29 4.98 2.99 2.32 2.99-3.53L2.99-4.88Z" fill="currentColor"/>
</svg>