<svg xmlns="http://www.w3.org/2000/svg" viewBox="0 0 24 24" width="24" height="24">
  <title>homepod.and.homepod.mini</title>
  <path transform="matrix(0.5828779599271403, 0, 0, 0.5828779599271403, 0.25819672131147353, 16.921448087431692)" d="M12.77-21.26C15.77-21.26 18.01-21.71 18.01-22.69C18.01-23.66 15.79-24.13 12.77-24.13C9.86-24.13 7.62-23.66 7.62-22.69C7.62-21.71 9.87-21.26 12.77-21.26ZM2.99-7.38C2.99-2.33 5.70 0.07 11.63 0.38C11.24-0.86 11.00-2.12 10.95-3.42C7.95-3.77 6.71-5.02 6.71-7.52L6.71-16.32C6.71-16.44 6.73-16.55 6.75-16.65C8.72-16.09 11.05-15.86 12.77-15.86C14.51-15.86 16.84-16.09 18.82-16.65C18.83-16.61 18.86-16.49 18.86-16.42L18.86-16.23C19.98-16.61 21.22-16.89 22.56-17.04C22.48-18.25 22.22-19.59 21.64-20.54C21.23-21.21 20.39-21.43 19.44-21C17.71-20.18 15.53-19.76 12.77-19.76C10.03-19.76 7.85-20.18 6.13-21C5.18-21.43 4.32-21.21 3.91-20.54C3.22-19.41 2.99-17.71 2.99-16.32ZM25.20-12.11C28.18-12.11 30.41-12.59 30.41-13.55C30.41-14.52 28.20-14.98 25.20-14.98C22.29-14.98 20.07-14.52 20.07-13.55C20.07-12.59 22.30-12.11 25.20-12.11ZM25.20 7.24C29.43 7.24 31.46 6.67 33.33 4.92C35.85 2.65 37.30-0.69 37.30-4.17C37.30-6.90 36.40-9.55 34.73-11.75C33.97-12.76 32.99-12.93 31.85-12.22C30.21-11.18 28.00-10.62 25.20-10.62C22.39-10.62 20.18-11.18 18.54-12.22C17.39-12.93 16.42-12.76 15.64-11.75C13.99-9.55 13.09-6.90 13.09-4.17C13.09-0.69 14.54 2.65 17.06 4.92C18.93 6.67 20.95 7.24 25.20 7.24ZM25.20 3.16C21.96 3.16 20.85 2.91 19.82 1.92C18.11 0.35 17.16-1.83 17.16-4.17C17.16-5.29 17.36-6.35 18.06-7.75C20.00-6.95 22.41-6.54 25.20-6.54C27.98-6.54 30.39-6.95 32.32-7.75C33.04-6.35 33.23-5.30 33.23-4.17C33.23-1.83 32.29 0.35 30.57 1.92C29.53 2.91 28.43 3.16 25.20 3.16Z" fill="currentColor"/>
</svg>