<svg xmlns="http://www.w3.org/2000/svg" viewBox="0 0 24 24" width="24" height="24">
  
  <path transform="matrix(0.5854774156660949, 0, 0, 0.5854774156660949, 0.25042881646655224, 16.946826758147512)" d="M14.91-20.30C17.89-20.30 20.13-20.77 20.13-21.74C20.13-22.70 17.92-23.16 14.91-23.16C12.01-23.16 9.79-22.70 9.79-21.74C9.79-20.77 12.02-20.30 14.91-20.30ZM2.99-12.35C2.99-8.93 4.41-5.65 6.90-3.40C7.62-2.72 8.37-2.23 9.28-1.86C8.91-3.23 8.71-4.66 8.71-6.09C8.71-9.67 9.93-13.14 12.11-15.87C13.08-17.02 14.00-17.93 15.01-18.62C14.95-18.62 14.91-18.62 14.85-18.62C12.01-18.62 9.79-19.21 8.13-20.27C7.18-20.86 6.29-20.87 5.53-19.85C3.82-17.59 2.99-14.95 2.99-12.35ZM24.02-14.84C27.32-14.84 29.78-15.36 29.78-16.42C29.78-17.48 27.34-17.99 24.02-17.99C20.84-17.99 18.39-17.48 18.39-16.42C18.39-15.36 20.85-14.84 24.02-14.84ZM24.02 6.26C28.64 6.26 30.82 5.64 32.85 3.76C35.58 1.28 37.15-2.34 37.15-6.09C37.15-8.96 36.22-11.86 34.35-14.36C33.52-15.48 32.53-15.47 31.49-14.81C29.63-13.61 27.13-12.98 24.02-12.98C20.93-12.98 18.42-13.61 16.56-14.81C15.53-15.47 14.54-15.48 13.71-14.36C11.84-11.86 10.91-8.96 10.91-6.09C10.91-2.34 12.48 1.28 15.21 3.76C17.24 5.64 19.42 6.26 24.02 6.26Z" fill="currentColor"/>
</svg>