<svg xmlns="http://www.w3.org/2000/svg" viewBox="0 0 24 24" width="24" height="24">
  
  <path transform="matrix(0.6653671215074723, 0, 0, 0.6653671215074723, 0.011695906432748648, 17.629629629629626)" d="M4.59 6.20L31.43 6.20C32.29 6.20 33.05 5.50 33.05 4.59C33.05 3.73 32.29 2.99 31.43 2.99L30.84 2.99L30.84 1.83C30.84 1.11 30.40 0.69 29.71 0.69L29.34 0.69L29.34-13.21L30.26-13.21C31.31-13.21 31.95-14.02 31.95-14.80C31.95-15.38 31.62-15.91 30.95-16.31L20.05-22.59C19.49-22.92 18.82-23.12 18.20-23.12C17.58-23.12 16.91-22.92 16.35-22.59L5.45-16.31C4.78-15.91 4.45-15.38 4.45-14.80C4.45-14.02 5.09-13.21 6.15-13.21L7.05-13.21L7.05 0.69L6.69 0.69C6 0.69 5.55 1.11 5.55 1.83L5.55 2.99L4.59 2.99C3.73 2.99 2.99 3.73 2.99 4.59C2.99 5.48 3.73 6.20 4.59 6.20ZM18.25-12.33C20.36-12.33 22.39-11.39 22.39-9.42C22.39-8.92 22.25-8.46 22.03-8.16L23.05-8.16C23.23-8.16 23.38-8.00 23.38-7.84C23.38-7.68 23.23-7.52 23.05-7.52L13.52-7.52C13.35-7.52 13.20-7.68 13.20-7.84C13.20-8.00 13.35-8.16 13.52-8.16L18.39-8.16C19.09-8.32 19.44-8.67 19.44-9.16C19.44-9.75 18.84-10.07 18.14-10.07C17.65-10.07 17.21-9.89 16.75-9.47C16.39-9.15 16.07-8.96 15.55-8.96C14.92-8.96 14.39-9.38 14.39-10.01C14.39-10.41 14.53-10.68 14.68-10.91C15.40-12.01 16.91-12.33 18.25-12.33ZM18.33-1.58C16.29-1.58 14.17-2.54 14.17-4.50C14.17-4.89 14.30-5.47 14.52-5.79L13.52-5.79C13.35-5.79 13.20-5.94 13.20-6.12C13.20-6.29 13.35-6.43 13.52-6.43L23.05-6.43C23.23-6.43 23.38-6.29 23.38-6.12C23.38-5.94 23.23-5.79 23.05-5.79L17.91-5.79C17.30-5.66 17.13-5.19 17.13-4.92C17.13-4.15 17.71-3.87 18.46-3.87C19.07-3.87 19.49-4.10 19.86-4.46C20.24-4.82 20.53-4.98 21.06-4.98C21.68-4.98 22.23-4.56 22.23-3.94C22.23-3.75 22.20-3.57 22.09-3.38C21.50-1.98 19.86-1.58 18.33-1.58Z" fill="currentColor"/>
</svg>