<svg xmlns="http://www.w3.org/2000/svg" viewBox="0 0 24 24" width="24" height="24">
  <title>icloud.slash.fill</title>
  <path transform="matrix(0.6258403618139592, 0, 0, 0.6258403618139592, 0.6872020535386871, 17.5005500550055)" d="M29.30 0.79C32.05-0.15 34.05-2.65 34.05-5.64C34.05-8.29 32.61-10.79 30.14-11.81C30.12-17.41 26.03-21.43 20.64-21.43C17.74-21.43 15.09-20.19 13.34-17.77C12.48-17.92 11.64-17.87 10.85-17.67ZM26.53 3.54C26.95 3.96 27.64 3.96 28.04 3.54C28.45 3.15 28.45 2.45 28.04 2.03L7.52-18.47C7.09-18.90 6.41-18.87 6-18.47C5.60-18.06 5.61-17.34 6-16.96ZM10.15 1.29L21.79 1.29L6.80-13.66C6.71-13.35 6.64-13.01 6.61-12.64C3.80-11.95 2.10-9.33 2.10-6.13C2.10-2.04 5.66 1.29 10.15 1.29Z" fill="currentColor"/>
</svg>