<svg xmlns="http://www.w3.org/2000/svg" viewBox="0 0 24 24" width="24" height="24">
  
  <path transform="matrix(0.7810831426392068, 0, 0, 0.7810831426392068, 0.3615560640732265, 18.608695652173914)" d="M14.89 4.34C21.97 4.34 27.70-1.39 27.70-8.46C27.70-15.53 21.97-21.26 14.89-21.26C7.83-21.26 2.10-15.53 2.10-8.46C2.10-1.39 7.83 4.34 14.89 4.34ZM14.89 0.16C10.13 0.16 6.27-3.69 6.27-8.46C6.27-13.23 10.13-17.09 14.89-17.09C19.66-17.09 23.53-13.23 23.53-8.46C23.53-3.69 19.66 0.16 14.89 0.16ZM7.30-8.47C7.30-6.20 8.75-4.65 10.91-4.65C12-4.65 12.95-5.10 13.95-6.06L14.92-7.00L15.88-6.06C16.88-5.10 17.84-4.65 18.91-4.65C21.07-4.65 22.52-6.20 22.52-8.47C22.52-10.76 21.07-12.30 18.91-12.30C17.82-12.30 16.88-11.86 15.88-10.90L14.92-9.96L13.95-10.90C12.95-11.86 12-12.30 10.91-12.30C8.75-12.30 7.30-10.76 7.30-8.47ZM9.46-8.47C9.46-9.52 10.00-10.14 10.91-10.14C11.39-10.14 11.86-9.90 12.46-9.34L13.37-8.47L12.46-7.61C11.86-7.04 11.39-6.82 10.91-6.82C10.00-6.82 9.46-7.43 9.46-8.47ZM16.45-8.47L17.37-9.34C17.96-9.90 18.43-10.14 18.91-10.14C19.83-10.14 20.38-9.52 20.38-8.47C20.38-7.43 19.83-6.82 18.91-6.82C18.43-6.82 17.96-7.04 17.37-7.61Z" fill="currentColor"/>
</svg>