<svg xmlns="http://www.w3.org/2000/svg" viewBox="0 0 24 24" width="24" height="24">
  <title>inset.filled.tophalf.bottomleft.bottomright.rectangle</title>
  <path transform="matrix(0.7064017660044151, 0, 0, 0.7064017660044151, -0.11092715231788075, 17.96440397350993)" d="M7.58 3.18L26.71 3.18C29.60 3.18 31.30 1.48 31.30-1.42L31.30-15.47C31.30-18.38 29.60-20.06 26.71-20.06L7.58-20.06C4.69-20.06 2.99-18.38 2.99-15.47L2.99-1.42C2.99 1.48 4.69 3.18 7.58 3.18ZM8.21-0.98C7.50-0.98 7.15-1.29 7.15-2.06L7.15-14.84C7.15-15.61 7.50-15.90 8.21-15.90L26.07-15.90C26.79-15.90 27.14-15.61 27.14-14.84L27.14-2.06C27.14-1.29 26.79-0.98 26.07-0.98ZM9.82-9.43L24.47-9.43C24.79-9.43 24.94-9.56 24.94-9.87L24.94-13.24C24.94-13.56 24.81-13.70 24.49-13.70L9.80-13.70C9.48-13.70 9.35-13.56 9.35-13.24L9.35-9.87C9.35-9.56 9.50-9.43 9.82-9.43ZM9.80-3.20L15.74-3.20C16.05-3.20 16.18-3.34 16.18-3.66L16.18-7.04C16.18-7.36 16.03-7.49 15.71-7.49L9.81-7.49C9.49-7.49 9.35-7.36 9.35-7.04L9.35-3.66C9.35-3.34 9.48-3.20 9.80-3.20ZM18.55-3.20L24.49-3.20C24.81-3.20 24.94-3.34 24.94-3.66L24.94-7.04C24.94-7.36 24.80-7.49 24.48-7.49L18.56-7.49C18.26-7.49 18.11-7.36 18.11-7.04L18.11-3.66C18.11-3.34 18.23-3.20 18.55-3.20Z" fill="currentColor"/>
</svg>