<svg xmlns="http://www.w3.org/2000/svg" viewBox="0 0 24 24" width="24" height="24">
  <title>inset.filled.leadingthird.rectangle.portrait</title>
  <path transform="matrix(0.755831118984352, 0, 0, 0.755831118984352, 1.486271036315323, 18.386182462356068)" d="M2.99 0.18C2.99 3.08 4.69 4.78 7.58 4.78L20.24 4.78C23.14 4.78 24.83 3.08 24.83 0.18L24.83-17.07C24.83-19.98 23.14-21.68 20.24-21.68L7.58-21.68C4.69-21.68 2.99-19.98 2.99-17.07ZM7.15-0.46L7.15-16.44C7.15-17.17 7.44-17.52 8.23-17.52L19.61-17.52C20.38-17.52 20.67-17.17 20.67-16.44L20.67-0.46C20.67 0.27 20.38 0.62 19.61 0.62L8.23 0.62C7.44 0.62 7.15 0.27 7.15-0.46ZM9.80-1.59L11.94-1.59C12.26-1.59 12.39-1.73 12.39-2.05L12.39-14.85C12.39-15.16 12.26-15.30 11.94-15.30L9.80-15.30C9.48-15.30 9.35-15.16 9.35-14.85L9.35-2.05C9.35-1.73 9.48-1.59 9.80-1.59Z" fill="currentColor"/>
</svg>