<svg xmlns="http://www.w3.org/2000/svg" viewBox="0 0 24 24" width="24" height="24">
  
  <path transform="matrix(0.7064017660044151, 0, 0, 0.7064017660044151, -0.11092715231788075, 17.96440397350993)" d="M7.58 3.18L26.71 3.18C29.60 3.18 31.30 1.48 31.30-1.42L31.30-15.47C31.30-18.38 29.60-20.06 26.71-20.06L7.58-20.06C4.69-20.06 2.99-18.38 2.99-15.47L2.99-1.42C2.99 1.48 4.69 3.18 7.58 3.18ZM8.21-0.98C7.50-0.98 7.15-1.29 7.15-2.06L7.15-14.84C7.15-15.61 7.50-15.90 8.21-15.90L26.07-15.90C26.79-15.90 27.14-15.61 27.14-14.84L27.14-2.06C27.14-1.29 26.79-0.98 26.07-0.98ZM9.80-3.20L16.70-3.20C17.02-3.20 17.14-3.34 17.14-3.66L17.14-13.24C17.14-13.56 17.02-13.70 16.70-13.70L9.80-13.70C9.48-13.70 9.35-13.56 9.35-13.24L9.35-3.66C9.35-3.34 9.48-3.20 9.80-3.20ZM18.34-8.46C18.34-8.17 18.45-7.88 18.71-7.62L21.19-5.03C21.38-4.85 21.63-4.73 21.89-4.73C22.49-4.73 22.97-5.18 22.97-5.79C22.97-6.07 22.84-6.35 22.63-6.53L21.61-7.35L22.22-7.29L24.25-7.29C24.90-7.29 25.38-7.76 25.38-8.45C25.38-9.15 24.90-9.62 24.25-9.62L22.22-9.62L21.60-9.56L22.63-10.39C22.84-10.56 22.97-10.86 22.97-11.13C22.97-11.74 22.49-12.21 21.89-12.21C21.63-12.21 21.39-12.09 21.19-11.89L18.71-9.32C18.45-9.05 18.34-8.75 18.34-8.46Z" fill="currentColor"/>
</svg>