<svg xmlns="http://www.w3.org/2000/svg" viewBox="0 0 24 24" width="24" height="24">
  
  <path transform="matrix(0.6810321894120777, 0, 0, 0.6810321894120777, 2.2474062250598563, 17.77015163607342)" d="M2.99 1.68C2.99 4.51 4.69 6.21 7.54 6.21L21.11 6.21C23.95 6.21 25.65 4.51 25.65 1.68L25.65-18.62C25.65-21.46 23.95-23.16 21.11-23.16L7.54-23.16C4.69-23.16 2.99-21.46 2.99-18.62ZM7.15 1.02L7.15-17.95C7.15-18.66 7.44-19.00 8.19-19.00L20.45-19.00C21.20-19.00 21.49-18.66 21.49-17.95L21.49 1.02C21.49 1.71 21.20 2.05 20.45 2.05L8.19 2.05C7.44 2.05 7.15 1.71 7.15 1.02ZM10.55-13.76C11.55-13.76 12.40-14.61 12.40-15.66C12.40-16.65 11.55-17.51 10.55-17.51C9.50-17.51 8.65-16.65 8.65-15.66C8.65-14.61 9.50-13.76 10.55-13.76Z" fill="currentColor"/>
</svg>