<svg xmlns="http://www.w3.org/2000/svg" viewBox="0 0 24 24" width="24" height="24">
  
  <path transform="matrix(0.6170161484695107, 0, 0, 0.6170161484695107, 0.15618221258134501, 17.211419358985008)" d="M31.34 5.21C31.76 5.64 32.45 5.60 32.85 5.20C33.27 4.78 33.27 4.11 32.86 3.69L7.07-22.10C6.64-22.51 5.95-22.51 5.54-22.10C5.13-21.69 5.13-20.99 5.54-20.59ZM15.74-15.90L27.22-15.90C27.93-15.90 28.29-15.62 28.29-14.86L28.29-14.80L32.45-14.80L32.45-15.47C32.45-18.38 30.75-20.06 27.86-20.06L11.58-20.06ZM7.61 3.18L26.81 3.18L22.65-0.98L8.24-0.98C7.51-0.98 7.16-1.29 7.16-2.06L7.16-14.84C7.16-15.45 7.36-15.74 7.80-15.86L4.51-19.15C3.53-18.35 2.99-17.10 2.99-15.47L2.99-1.44C2.99 1.46 4.70 3.18 7.61 3.18ZM24.43-7.21L26.98-4.66L26.98-9.98C26.98-10.28 27.14-10.43 27.43-10.43L32.43-10.43C32.70-10.43 32.87-10.25 32.87-9.97L32.87-0.04C32.87 0.25 32.71 0.42 32.43 0.43L32.09 0.43L34.45 2.80C35.05 2.39 35.40 1.70 35.40 0.81L35.40-10.80C35.40-12.22 34.50-13.17 33.12-13.17L26.87-13.17C25.42-13.17 24.43-12.22 24.43-10.82ZM29.05-8.70L30.81-8.70C31.18-8.70 31.45-8.96 31.45-9.32C31.45-9.70 31.16-9.97 30.81-9.97L29.05-9.97C28.68-9.97 28.39-9.70 28.39-9.32C28.39-8.96 28.66-8.70 29.05-8.70ZM13.14-2.06L21.59-2.06L20.12-3.53L13.14-3.53C12.73-3.53 12.42-3.23 12.42-2.79C12.42-2.34 12.73-2.06 13.14-2.06Z" fill="currentColor"/>
</svg>