<svg xmlns="http://www.w3.org/2000/svg" viewBox="0 0 24 24" width="24" height="24">
  
  <path transform="matrix(0.586483390607102, 0, 0, 0.586483390607102, 0.24742268041237114, 16.711340206185568)" d="M7.61 3.18L25.69 3.18L25.57 2.89C24.09 1.79 23.44 0.56 23.36-0.98L8.24-0.98C7.52-0.98 7.17-1.29 7.17-2.06L7.17-14.84C7.17-15.61 7.50-15.90 8.23-15.90L27.22-15.90C27.94-15.90 28.25-15.61 28.29-14.95L28.29-14.91L32.45-14.91L32.45-15.47C32.45-18.38 30.76-20.06 27.86-20.06L7.59-20.06C4.69-20.06 2.99-18.38 2.99-15.47L2.99-1.44C2.99 1.46 4.70 3.18 7.61 3.18ZM29.05 4.00L32.47 4.00C33.04 4.00 33.49 3.71 33.70 3.21L34.17 2.12C34.34 1.72 34.63 1.41 35.04 1.13C35.87 0.55 36.28-0.22 36.28-1.35L36.28-4.86C36.76-4.91 37.09-5.27 37.09-5.80L37.09-6.81C37.09-7.31 36.76-7.70 36.28-7.75C36.26-8.81 35.84-9.57 35.04-10.11C34.63-10.41 34.34-10.71 34.17-11.11L33.70-12.20C33.49-12.70 33.04-12.98 32.47-12.98L29.05-12.98C28.48-12.98 28.03-12.70 27.82-12.20L27.34-11.11C27.16-10.70 26.86-10.37 26.47-10.11C25.64-9.55 25.23-8.77 25.23-7.64L25.23-1.35C25.23-0.22 25.64 0.55 26.47 1.13C26.91 1.41 27.16 1.72 27.34 2.12L27.82 3.21C28.03 3.71 28.48 4.00 29.05 4.00ZM28.70-0.77C27.95-0.77 27.64-1.10 27.64-1.89L27.64-7.10C27.64-7.91 27.95-8.24 28.70-8.24L32.82-8.24C33.59-8.24 33.90-7.89 33.90-7.10L33.90-1.89C33.90-1.11 33.57-0.77 32.82-0.77ZM13.14-2.06L22.31-2.06C22.73-2.06 23.04-2.34 23.04-2.79C23.04-3.23 22.73-3.53 22.31-3.53L13.14-3.53C12.73-3.53 12.42-3.23 12.42-2.79C12.42-2.34 12.73-2.06 13.14-2.06Z" fill="currentColor"/>
</svg>