<svg xmlns="http://www.w3.org/2000/svg" viewBox="0 0 24 24" width="24" height="24">
  
  <path transform="matrix(0.7810831426392068, 0, 0, 0.7810831426392068, 0.3615560640732265, 18.608695652173914)" d="M14.89 4.34C21.97 4.34 27.70-1.39 27.70-8.46C27.70-15.53 21.97-21.26 14.89-21.26C7.83-21.26 2.10-15.53 2.10-8.46C2.10-1.39 7.83 4.34 14.89 4.34ZM14.89 0.16C10.13 0.16 6.27-3.69 6.27-8.46C6.27-13.23 10.13-17.09 14.89-17.09C19.66-17.09 23.53-13.23 23.53-8.46C23.53-3.69 19.66 0.16 14.89 0.16ZM10.42-3.34C10.42-2.21 11.29-1.39 12.46-1.39L17.34-1.39C18.52-1.39 19.37-2.21 19.37-3.34L19.37-13.58C19.37-14.71 18.52-15.53 17.34-15.53L12.46-15.53C11.29-15.53 10.42-14.71 10.42-13.58ZM13.48-14.09C13.48-14.25 13.58-14.33 13.73-14.33L16.07-14.33C16.23-14.33 16.31-14.25 16.31-14.09C16.31-13.93 16.23-13.83 16.07-13.83L13.73-13.83C13.58-13.83 13.48-13.93 13.48-14.09ZM12.18-4.18L12.18-12.74L17.63-12.74L17.63-4.18ZM14.92-2.32C14.60-2.32 14.33-2.58 14.33-2.89C14.33-3.21 14.60-3.47 14.92-3.47C15.21-3.47 15.47-3.21 15.47-2.89C15.47-2.58 15.21-2.32 14.92-2.32Z" fill="currentColor"/>
</svg>