<svg xmlns="http://www.w3.org/2000/svg" viewBox="0 0 24 24" width="24" height="24">
  
  <path transform="matrix(0.6810321894120777, 0, 0, 0.6810321894120777, -0.03511572226656012, 17.727748123337605)" d="M28.44 3.73C28.86 4.14 29.55 4.15 29.95 3.73C30.35 3.30 30.38 2.64 29.95 2.21L7.18-20.54C6.76-20.96 6.07-20.96 5.65-20.54C5.25-20.14 5.25-19.44 5.65-19.03ZM32.36-2.84L32.36-14.44C32.36-16.79 30.73-18.35 28.29-18.35L11.87-18.35L16.04-14.19L26.73-14.19C27.42-14.19 27.84-13.76 27.84-13.09L27.84-3.90C27.84-3.43 27.64-3.08 27.33-2.92L27.32-2.92L30.82 0.59C31.79-0.15 32.36-1.34 32.36-2.84ZM7.04 1.37L23.60 1.37L19.42-2.79L8.60-2.79C7.91-2.79 7.51-3.22 7.51-3.90L7.51-5.58C7.51-5.78 7.62-5.88 7.80-5.88L8.26-5.88C8.86-5.88 9.28-6.28 9.28-6.88L9.28-10.10C9.28-10.71 8.86-11.11 8.26-11.11L7.80-11.11C7.62-11.11 7.51-11.21 7.51-11.40L7.51-13.09C7.51-13.56 7.73-13.92 8.11-14.09L4.55-17.63C3.57-16.95 2.99-15.83 2.99-14.44L2.99-2.84C2.99-0.32 4.62 1.37 7.04 1.37ZM14.65-3.96L18.25-3.96L16.65-5.55L14.65-5.55C14.19-5.55 13.85-5.23 13.85-4.75C13.85-4.27 14.19-3.96 14.65-3.96Z" fill="currentColor"/>
</svg>