<svg xmlns="http://www.w3.org/2000/svg" viewBox="0 0 24 24" width="24" height="24">
  <title>iphone.gen3.radiowaves.left.and.right.circle</title>
  <path transform="matrix(0.7810831426392068, 0, 0, 0.7810831426392068, 0.3615560640732265, 18.659038901601832)" d="M14.89 4.28C21.97 4.28 27.70-1.45 27.70-8.52C27.70-15.60 21.97-21.33 14.89-21.33C7.83-21.33 2.10-15.60 2.10-8.52C2.10-1.45 7.83 4.28 14.89 4.28ZM14.89 0.11C10.13 0.11 6.27-3.75 6.27-8.52C6.27-13.29 10.13-17.16 14.89-17.16C19.66-17.16 23.53-13.29 23.53-8.52C23.53-3.75 19.66 0.11 14.89 0.11ZM12.88-2.45L17.06-2.45C18.07-2.45 18.82-3.14 18.82-4.11L18.82-12.93C18.82-13.90 18.07-14.60 17.06-14.60L12.88-14.60C11.86-14.60 11.12-13.90 11.12-12.93L11.12-4.11C11.12-3.14 11.86-2.45 12.88-2.45ZM13.07-4.20C12.80-4.20 12.62-4.36 12.62-4.63L12.62-12.42C12.62-12.69 12.80-12.84 13.07-12.84L16.88-12.84C17.13-12.84 17.31-12.67 17.31-12.41L17.31-4.64C17.31-4.37 17.13-4.20 16.88-4.20ZM14.30-11.45L15.62-11.45C15.89-11.45 16.10-11.65 16.10-11.92C16.10-12.20 15.89-12.40 15.62-12.40L14.30-12.40C14.03-12.40 13.82-12.20 13.82-11.92C13.82-11.65 14.03-11.45 14.30-11.45ZM20.91-5.84C21.07-5.61 21.42-5.61 21.67-5.84C22.30-6.56 22.66-7.51 22.66-8.52C22.66-9.54 22.30-10.49 21.67-11.21C21.42-11.44 21.07-11.44 20.91-11.21C20.72-11.02 20.75-10.73 20.96-10.48C21.43-9.95 21.69-9.26 21.69-8.52C21.69-7.79 21.43-7.09 20.96-6.56C20.75-6.32 20.72-6.04 20.91-5.84ZM9-5.84C9.18-6.04 9.15-6.32 8.94-6.56C8.47-7.09 8.21-7.79 8.21-8.52C8.21-9.26 8.47-9.95 8.94-10.48C9.15-10.73 9.18-11.02 9-11.21C8.84-11.44 8.47-11.44 8.24-11.21C7.61-10.49 7.24-9.54 7.24-8.52C7.24-7.51 7.61-6.56 8.24-5.84C8.47-5.61 8.84-5.61 9-5.84ZM10.39-6.91C10.56-7.11 10.54-7.35 10.36-7.63C10.18-7.85 10.08-8.16 10.08-8.52C10.08-8.89 10.18-9.19 10.36-9.41C10.54-9.69 10.56-9.94 10.39-10.14C10.20-10.39 9.81-10.37 9.61-10.09C9.28-9.64 9.09-9.09 9.09-8.52C9.09-7.96 9.28-7.41 9.61-6.96C9.81-6.68 10.20-6.64 10.39-6.91ZM19.51-6.91C19.71-6.64 20.10-6.68 20.29-6.96C20.63-7.41 20.81-7.96 20.81-8.52C20.81-9.09 20.63-9.64 20.29-10.09C20.10-10.37 19.71-10.39 19.51-10.14C19.35-9.94 19.37-9.69 19.55-9.41C19.72-9.19 19.83-8.89 19.83-8.52C19.83-8.16 19.72-7.85 19.55-7.63C19.37-7.35 19.35-7.11 19.51-6.91ZM13.79-4.66L16.15-4.66C16.31-4.66 16.45-4.78 16.45-4.97C16.45-5.14 16.31-5.29 16.15-5.29L13.79-5.29C13.62-5.29 13.49-5.14 13.49-4.97C13.49-4.78 13.62-4.66 13.79-4.66Z" fill="currentColor"/>
</svg>