<svg xmlns="http://www.w3.org/2000/svg" viewBox="0 0 24 24" width="24" height="24">
  
  <path transform="matrix(0.7810831426392068, 0, 0, 0.7810831426392068, 0.3615560640732265, 18.599542334096114)" d="M14.89 4.35C21.97 4.35 27.70-1.38 27.70-8.45C27.70-15.52 21.97-21.25 14.89-21.25C7.83-21.25 2.10-15.52 2.10-8.45C2.10-1.38 7.83 4.35 14.89 4.35ZM17.53-16.05C18.80-16.05 19.72-15.19 19.72-13.97L19.72-6.48L17.84-8.38L17.84-13.05L13.16-13.05L10.72-15.49C11.11-15.84 11.65-16.05 12.27-16.05ZM13.37-14.50C13.37-14.34 13.49-14.23 13.65-14.23L16.15-14.23C16.32-14.23 16.43-14.34 16.43-14.50C16.43-14.68 16.32-14.78 16.15-14.78L13.65-14.78C13.49-14.78 13.37-14.68 13.37-14.50ZM19.46-2.61L9.08-12.98C8.73-13.32 8.73-13.89 9.08-14.24C9.43-14.59 10.01-14.59 10.35-14.24L20.72-3.87C21.07-3.52 21.07-2.96 20.72-2.61C20.37-2.26 19.80-2.29 19.46-2.61ZM12.27-0.83C11.00-0.83 10.08-1.71 10.08-2.93L10.08-10.38L11.96-8.48L11.96-3.84L16.61-3.84L19.07-1.38C18.68-1.04 18.14-0.83 17.53-0.83ZM14.92-1.83C15.25-1.83 15.52-2.10 15.52-2.45C15.52-2.79 15.25-3.06 14.92-3.06C14.57-3.06 14.29-2.79 14.29-2.45C14.29-2.10 14.57-1.83 14.92-1.83Z" fill="currentColor"/>
</svg>