<svg xmlns="http://www.w3.org/2000/svg" viewBox="0 0 24 24" width="24" height="24">
  <title>iphone.gen1.crop.homebutton.circle</title>
  <path transform="matrix(0.7810831426392068, 0, 0, 0.7810831426392068, 0.3615560640732265, 18.608695652173914)" d="M14.89 4.34C21.97 4.34 27.70-1.39 27.70-8.46C27.70-15.53 21.97-21.26 14.89-21.26C7.83-21.26 2.10-15.53 2.10-8.46C2.10-1.39 7.83 4.34 14.89 4.34ZM11.04-8.80L11.04-16.18C12.20-16.76 13.51-17.09 14.89-17.09C16.29-17.09 17.60-16.76 18.76-16.18L18.76-8.80ZM14.89 0.16C10.13 0.16 6.27-3.69 6.27-8.46C6.27-10.56 7.02-12.48 8.26-13.98L8.26-7.27C8.26-5.63 9.33-4.52 10.91-4.52L18.69-4.52C20.39-4.52 21.54-5.63 21.54-7.25L21.54-13.98C22.78-12.48 23.53-10.56 23.53-8.46C23.53-3.69 19.66 0.16 14.89 0.16ZM14.89-8.03C15.63-8.03 16.20-7.45 16.20-6.73C16.20-6.02 15.63-5.45 14.89-5.45C14.19-5.45 13.62-6.02 13.62-6.73C13.62-7.45 14.19-8.03 14.89-8.03Z" fill="currentColor"/>
</svg>