<svg xmlns="http://www.w3.org/2000/svg" viewBox="0 0 24 24" width="24" height="24">
  
  <path transform="matrix(0.5105194934689401, 0, 0, 0.5105194934689401, 0.4744241699072689, 16.38838442757087)" d="M5.04-0.19C6.25-0.19 7.09-1.04 7.09-2.24L7.09-9.48C7.09-10.34 7.35-10.57 8.14-10.63L8.81-10.69C10.05-9.48 11.80-8.93 13.36-8.93C15.30-8.93 16.68-9.63 17.38-10.79C18.12-9.73 19.45-8.93 21.80-8.93L27.93-8.93C29.95-8.93 31.09-9.43 31.98-10.55C33.27-9.46 35.06-8.93 36.71-8.93C40.28-8.93 42.16-11.33 42.16-14.87C42.16-18.02 40.05-20.81 37.23-20.81C35.05-20.81 33.59-19.43 32.36-17.47L31.73-16.46C30.69-14.79 30.25-14.24 28.35-14.24L22.22-14.24C20.07-14.24 19.52-14.94 18.73-16.84C17.75-19.10 16.32-20.81 13.93-20.81C10.86-20.81 8.81-18.16 8.11-15.25L7.93-15.22C4.56-14.80 2.99-13.63 2.99-9.48L2.99-2.24C2.99-1.04 3.83-0.19 5.04-0.19ZM36.73-16.39C37.73-16.39 38.36-15.55 38.36-14.78C38.36-14.13 38.03-13.78 37.09-13.78C36.25-13.78 35.25-13.98 34.30-14.41C34.98-15.68 35.63-16.39 36.73-16.39ZM13.63-16.39C14.70-16.39 15.35-15.55 15.36-14.81C15.38-14.13 15-13.77 13.98-13.77C13.10-13.77 12.11-14.02 11.18-14.43C11.71-15.50 12.55-16.39 13.63-16.39ZM16.38 2.53L16.38 1.03L33.71 1.03L33.71 2.53C33.71 3.56 34.73 3.94 35.55 3.32L39.19 0.52C39.70 0.12 39.69-0.62 39.19-1.02L35.55-3.82C34.72-4.46 33.71-4.09 33.71-3.01L33.71-1.56L16.38-1.56L16.38-3.01C16.38-4.09 15.39-4.46 14.55-3.82L10.92-1.02C10.42-0.62 10.39 0.12 10.92 0.52L14.55 3.32C15.36 3.94 16.38 3.57 16.38 2.53Z" fill="currentColor"/>
</svg>