<svg xmlns="http://www.w3.org/2000/svg" viewBox="0 0 24 24" width="24" height="24">
  
  <path transform="matrix(0.41423948220064727, 0, 0, 0.41423948220064727, 1.1310679611650485, 15.495145631067961)" d="M26.25 3.90C33.07 3.90 38.59-1.62 38.59-8.44C38.59-15.26 33.07-20.78 26.25-20.78C19.43-20.78 13.91-15.26 13.91-8.44C13.91-1.62 19.43 3.90 26.25 3.90ZM7.28-0.48C7.78-1.11 7.63-1.89 7.08-2.50C5.75-3.95 5.02-6.12 5.02-8.46C5.02-10.79 5.73-12.96 7.08-14.41C7.64-15.02 7.80-15.80 7.28-16.43C6.71-17.11 5.72-17.26 4.88-16.38C3.15-14.57 2.10-11.53 2.10-8.46C2.10-5.37 2.99-2.44 4.88-0.53C5.74 0.34 6.73 0.21 7.28-0.48ZM45.20-0.46C45.75 0.25 46.73 0.36 47.60-0.50C49.50-2.41 50.38-5.34 50.38-8.44C50.38-11.51 49.32-14.54 47.60-16.35C46.76-17.24 45.76-17.09 45.20-16.39C44.67-15.76 44.84-15 45.40-14.39C46.75-12.93 47.46-10.77 47.46-8.44C47.46-6.09 46.72-3.93 45.40-2.46C44.85-1.85 44.70-1.09 45.20-0.46ZM26.25-0.13C21.66-0.13 17.94-3.84 17.94-8.44C17.94-13.03 21.66-16.73 26.25-16.73C30.83-16.73 34.55-13.03 34.55-8.44C34.55-3.84 30.83-0.13 26.25-0.13ZM26.25-14.55C24.22-14.55 22.59-12.93 22.59-10.91C22.59-9.50 23.37-8.24 24.62-7.63L24.62-3.07C24.62-2.84 24.71-2.57 24.89-2.40L25.90-1.54C26.13-1.32 26.52-1.31 26.78-1.57L28.35-3.14C28.64-3.43 28.63-3.89 28.35-4.20L27.74-4.80L28.71-5.79C28.99-6.08 29.00-6.53 28.71-6.84L27.88-7.68C29.18-8.40 29.91-9.57 29.91-10.91C29.91-12.93 28.28-14.55 26.25-14.55ZM11.32-3.93C11.77-4.54 11.64-5.27 11.19-5.91C10.79-6.46 10.44-7.58 10.44-8.46C10.44-9.34 10.79-10.48 11.19-11.04C11.63-11.66 11.77-12.39 11.32-13.01C10.79-13.71 9.71-13.76 8.94-12.97C8.00-11.96 7.52-10.27 7.52-8.46C7.52-6.66 8.00-4.96 8.94-3.97C9.71-3.18 10.79-3.22 11.32-3.93ZM41.16-3.89C41.68-3.19 42.76-3.15 43.54-3.94C44.47-4.93 44.95-6.63 44.95-8.44C44.95-10.24 44.47-11.94 43.54-12.94C42.76-13.73 41.68-13.68 41.16-12.97C40.71-12.36 40.85-11.64 41.29-11.00C41.68-10.44 42.04-9.32 42.04-8.44C42.04-7.56 41.68-6.42 41.29-5.87C40.84-5.25 40.71-4.51 41.16-3.89ZM26.25-11.27C25.73-11.27 25.31-11.68 25.31-12.20C25.31-12.73 25.73-13.14 26.25-13.14C26.77-13.14 27.19-12.73 27.19-12.20C27.19-11.68 26.77-11.27 26.25-11.27Z" fill="currentColor"/>
</svg>