<svg xmlns="http://www.w3.org/2000/svg" viewBox="0 0 24 24" width="24" height="24">
  <title>kipsign.bank.building.fill</title>
  <path transform="matrix(0.6653671215074723, 0, 0, 0.6653671215074723, 0.011695906432748648, 17.629629629629626)" d="M4.59 6.20L31.43 6.20C32.29 6.20 33.05 5.50 33.05 4.59C33.05 3.73 32.29 2.99 31.43 2.99L30.84 2.99L30.84 1.83C30.84 1.11 30.40 0.69 29.71 0.69L29.34 0.69L29.34-13.21L30.26-13.21C31.31-13.21 31.95-14.02 31.95-14.80C31.95-15.38 31.62-15.91 30.95-16.31L20.05-22.59C19.49-22.92 18.82-23.12 18.20-23.12C17.58-23.12 16.91-22.92 16.35-22.59L5.45-16.31C4.78-15.91 4.45-15.38 4.45-14.80C4.45-14.02 5.09-13.21 6.15-13.21L7.05-13.21L7.05 0.69L6.69 0.69C6 0.69 5.55 1.11 5.55 1.83L5.55 2.99L4.59 2.99C3.73 2.99 2.99 3.73 2.99 4.59C2.99 5.48 3.73 6.20 4.59 6.20ZM15.69-1.49C14.78-1.49 14.20-2.07 14.20-3L14.19-6.96L13.23-6.96C13.04-6.96 12.91-7.10 12.91-7.29C12.91-7.48 13.04-7.59 13.23-7.59L14.19-7.59L14.19-10.88C14.19-11.80 14.77-12.40 15.68-12.40C16.61-12.40 17.18-11.80 17.18-10.88L17.18-7.59L17.47-7.59L20.12-11.61C20.45-12.13 20.77-12.40 21.35-12.40C21.97-12.40 22.72-11.95 22.72-11.19C22.72-10.90 22.61-10.57 22.42-10.30L20.40-7.59L22.90-7.59C23.09-7.59 23.21-7.48 23.21-7.29C23.21-7.10 23.09-6.96 22.90-6.96L20.36-6.96L22.42-4.00C22.72-3.59 22.80-3.26 22.80-2.80C22.80-2.29 22.46-1.49 21.33-1.49C20.66-1.49 20.29-1.78 19.96-2.38L17.40-6.96L17.18-6.96L17.19-3C17.19-2.07 16.62-1.49 15.69-1.49Z" fill="currentColor"/>
</svg>