<svg xmlns="http://www.w3.org/2000/svg" viewBox="0 0 24 24" width="24" height="24">
  
  <path transform="matrix(0.7810831426392068, 0, 0, 0.7810831426392068, 0.3615560640732265, 18.599542334096114)" d="M14.89 4.35C21.97 4.35 27.70-1.38 27.70-8.45C27.70-15.52 21.97-21.25 14.89-21.25C7.83-21.25 2.10-15.52 2.10-8.45C2.10-1.38 7.83 4.35 14.89 4.35ZM14.89-14.57C15.16-14.57 15.40-14.54 15.64-14.52L15.66-14.59C15.75-15.09 16.05-15.49 16.61-15.64L17.02-15.76C17.92-16.01 18.35-14.68 17.45-14.46L17.14-14.39C16.97-14.34 16.93-14.29 16.96-14.19L16.99-14.09C17.80-13.61 18.22-12.87 18.22-12.05C18.22-11.73 18.12-11.53 17.55-11.19C17.03-10.90 16.24-10.72 15.33-10.69C15.30-10.69 15.27-10.69 15.25-10.69L12.27-13.66C12.41-13.83 12.60-13.96 12.79-14.07L12.83-14.19C12.84-14.29 12.80-14.36 12.63-14.39L12.34-14.46C11.44-14.68 11.86-16.04 12.77-15.76L13.17-15.64C13.71-15.47 14.03-15.09 14.13-14.59L14.14-14.52C14.38-14.54 14.64-14.57 14.89-14.57ZM19.17-2.89L9.36-12.69C9.02-13.02 9.04-13.61 9.36-13.96C9.71-14.29 10.30-14.30 10.64-13.96L20.44-4.16C20.78-3.82 20.77-3.25 20.44-2.89C20.09-2.57 19.50-2.57 19.17-2.89ZM21.04-8.04C21.48-8.03 21.79-7.75 21.79-7.31C21.79-6.90 21.48-6.61 21.04-6.61L20.26-6.61C20.25-6.35 20.21-6.05 20.17-5.78L18.59-7.36C18.80-7.57 18.95-7.84 18.95-8.16C18.95-8.71 18.49-9.23 17.89-9.23C17.57-9.23 17.27-9.07 17.10-8.86L15.91-10.04C16.01-10.05 16.10-10.05 16.21-10.07C16.86-10.16 17.44-10.31 18.04-10.61C18.09-10.63 18.18-10.65 18.25-10.65L19.77-11.81C20.13-12.09 20.54-12.12 20.81-11.79C21.07-11.48 21.04-11.00 20.66-10.73L19.56-9.88C19.88-9.33 20.10-8.68 20.19-8.05ZM8.75-6.60C8.32-6.60 8.03-6.89 8.03-7.30C8.03-7.73 8.32-8.00 8.75-8.03L9.62-8.04C9.71-8.67 9.93-9.32 10.25-9.87L9.14-10.71C8.79-10.98 8.73-11.43 8.94-11.72C8.95-11.73 8.96-11.73 8.98-11.74L10.50-10.21L14.36-6.36L14.36-2.06C14.36-1.72 14.05-1.55 13.68-1.62C12.56-1.84 11.64-2.34 10.92-3.11L10.32-2.61C9.95-2.32 9.54-2.31 9.27-2.63C9.02-2.94 9.08-3.39 9.42-3.69L10.11-4.28C9.77-4.96 9.57-5.74 9.54-6.60ZM11.20-5.03C11.20-4.42 11.70-3.93 12.29-3.93C12.88-3.93 13.36-4.42 13.36-5.03C13.36-5.57 12.89-6.09 12.29-6.09C11.70-6.09 11.20-5.58 11.20-5.03ZM15.45-5.26L18.21-2.52C17.61-2.07 16.91-1.78 16.13-1.62C15.74-1.55 15.45-1.72 15.45-2.06Z" fill="currentColor"/>
</svg>