<svg xmlns="http://www.w3.org/2000/svg" viewBox="0 0 24 24" width="24" height="24">
  <title>ladybug.fill</title>
  <path transform="matrix(0.6653796602857008, 0, 0, 0.6653796602857008, 0.3116705769343888, 17.64711653712235)" d="M10.52-15.55C10.52-14.87 10.73-14.45 11.93-13.76C13.25-13.00 15.34-12.62 17.57-12.62C19.79-12.62 21.88-13.00 23.20-13.76C24.40-14.45 24.61-14.87 24.61-15.55C24.61-17.31 23.70-18.88 22.00-19.86L21.93-20.10C21.88-20.29 21.95-20.40 22.32-20.50L22.96-20.66C24.88-21.18 23.94-24.06 22.02-23.43L21.20-23.17C19.99-22.76 19.27-21.93 19.13-20.80C18.63-20.87 18.12-20.91 17.57-20.91C17.00-20.91 16.48-20.87 15.98-20.80C15.84-21.93 15.12-22.76 13.91-23.17L13.09-23.43C11.17-24.06 10.23-21.18 12.15-20.66L12.79-20.50C13.15-20.40 13.23-20.29 13.17-20.10L13.10-19.84C11.43-18.87 10.52-17.30 10.52-15.55ZM16.39 5.54L16.39-7.34C16.39-7.99 16.91-8.51 17.57-8.51C18.22-8.51 18.74-7.99 18.74-7.34L18.74 5.54C18.74 6.29 19.37 6.67 20.16 6.50C22.51 6.06 24.50 4.97 25.99 3.38L27.25 4.44C27.97 5.06 28.92 5.04 29.47 4.37C30.02 3.70 29.89 2.75 29.17 2.13L27.70 0.89C28.42-0.55 28.84-2.23 28.93-4.07L30.54-4.05C31.49-4.05 32.14-4.66 32.14-5.55C32.14-6.45 31.49-7.07 30.54-7.07L28.77-7.08C28.54-8.44 28.09-9.82 27.39-10.96L29.75-12.77C30.50-13.36 30.62-14.33 30.06-14.98C29.51-15.64 28.62-15.64 27.84-15.05L24.98-12.84C24.88-12.83 24.80-12.80 24.73-12.76C22.83-11.64 20.44-11.13 17.57-11.13C14.70-11.13 12.30-11.64 10.41-12.76C10.34-12.80 10.25-12.83 10.15-12.84L7.29-15.05C6.52-15.64 5.63-15.64 5.07-14.98C4.51-14.33 4.63-13.36 5.38-12.77L7.75-10.96C7.04-9.82 6.60-8.44 6.36-7.08L4.59-7.07C3.64-7.07 2.99-6.45 2.99-5.55C2.99-4.66 3.64-4.05 4.59-4.05L6.20-4.07C6.29-2.23 6.73-0.55 7.43 0.89L5.96 2.13C5.24 2.75 5.11 3.70 5.66 4.37C6.22 5.04 7.16 5.06 7.89 4.44L9.14 3.38C10.63 4.97 12.62 6.06 14.98 6.50C15.77 6.67 16.39 6.29 16.39 5.54ZM12.28-6.66C11.34-6.66 10.57-7.44 10.57-8.37C10.57-9.30 11.34-10.09 12.28-10.09C13.22-10.09 13.99-9.30 13.99-8.37C13.99-7.44 13.22-6.66 12.28-6.66ZM22.86-6.66C21.91-6.66 21.14-7.44 21.14-8.37C21.14-9.30 21.91-10.09 22.86-10.09C23.79-10.09 24.56-9.30 24.56-8.37C24.56-7.44 23.79-6.66 22.86-6.66ZM11.18-1.35C10.09-1.35 9.21-2.23 9.21-3.30C9.21-4.36 10.09-5.23 11.18-5.23C12.25-5.23 13.11-4.35 13.11-3.30C13.11-2.23 12.25-1.35 11.18-1.35ZM23.96-1.35C22.89-1.35 22.02-2.23 22.02-3.30C22.02-4.35 22.89-5.23 23.96-5.23C25.04-5.23 25.92-4.36 25.92-3.30C25.92-2.23 25.04-1.35 23.96-1.35ZM12.71 3.02C11.88 3.02 11.19 2.36 11.19 1.52C11.19 0.70 11.88 0.01 12.71 0.01C13.55 0.01 14.21 0.70 14.21 1.52C14.21 2.36 13.55 3.02 12.71 3.02ZM22.42 3.02C21.60 3.02 20.92 2.36 20.92 1.52C20.92 0.70 21.60 0.01 22.42 0.01C23.25 0.01 23.94 0.70 23.94 1.52C23.94 2.36 23.25 3.02 22.42 3.02Z" fill="currentColor"/>
</svg>