<svg xmlns="http://www.w3.org/2000/svg" viewBox="0 0 24 24" width="24" height="24">
  <title>lamp.table.fill</title>
  <path transform="matrix(0.65919917600103, 0, 0, 0.65919917600103, 3.613861196688686, 17.581305523368094)" d="M11.02 6.70L14.43 6.70C18.06 6.70 19.92 5.09 19.92 1.95C19.92 0.23 19.37-2.33 18.42-4.89C17.81-6.60 16.50-7.54 14.73-7.54L14.47-7.54L14.47-8.64C16.58-8.70 18.56-8.85 20.24-9.11C22.25-9.40 22.96-10.85 22.09-12.86L18.62-20.68C17.73-22.70 16.27-23.64 14.04-23.64L11.40-23.64C9.18-23.64 7.72-22.70 6.82-20.68L3.35-12.86C2.48-10.85 3.20-9.40 5.20-9.11C6.89-8.85 8.87-8.70 10.98-8.64L10.98-7.54L10.72-7.54C8.94-7.54 7.63-6.60 7.02-4.89C6.09-2.36 5.54 0.22 5.54 1.95C5.54 5.09 7.41 6.70 11.02 6.70Z" fill="currentColor"/>
</svg>