<svg xmlns="http://www.w3.org/2000/svg" viewBox="0 0 24 24" width="24" height="24">
  <title>lamp.table</title>
  <path transform="matrix(0.6474456246838645, 0, 0, 0.6474456246838645, 3.5857359635811834, 17.477996965098633)" d="M11.29 6.98L14.70 6.98C18.48 6.98 20.46 5.24 20.46 1.95C20.46 0.19 19.90-2.40 18.96-4.99C18.30-6.79 16.90-7.80 15-7.80L14.75-7.80L14.75-8.37C16.84-8.41 18.83-8.58 20.55-8.84C22.75-9.15 23.57-10.80 22.61-12.96L19.14-20.80C18.20-22.90 16.64-23.91 14.31-23.91L11.68-23.91C9.35-23.91 7.78-22.90 6.86-20.80L3.39-12.96C2.43-10.80 3.25-9.15 5.44-8.84C7.16-8.58 9.16-8.41 11.25-8.37L11.25-7.80L10.99-7.80C9.09-7.80 7.69-6.79 7.03-4.99C6.09-2.40 5.54 0.19 5.54 1.95C5.54 5.24 7.52 6.98 11.29 6.98ZM13.00-11.53C10.79-11.53 8.66-11.66 6.76-11.87C6.52-11.91 6.46-12.07 6.55-12.28L9.76-19.50C10.15-20.36 10.70-20.72 11.68-20.72L14.31-20.72C15.29-20.72 15.84-20.36 16.23-19.50L19.44-12.28C19.54-12.07 19.46-11.91 19.23-11.87C17.33-11.66 15.19-11.53 13.00-11.53ZM11.29 3.80C9.62 3.80 8.72 3.16 8.72 1.95C8.72 0.54 9.20-1.64 10.01-3.91C10.18-4.41 10.46-4.63 10.99-4.63L15-4.63C15.52-4.63 15.81-4.41 15.97-3.91C16.79-1.64 17.29 0.54 17.29 1.95C17.29 3.16 16.38 3.80 14.70 3.80Z" fill="currentColor"/>
</svg>