<svg xmlns="http://www.w3.org/2000/svg" viewBox="0 0 24 24" width="24" height="24">
  <title>lamp.desk</title>
  <path transform="matrix(0.653363084838277, 0, 0, 0.653363084838277, 1.8717458641986786, 17.482606796235352)" d="M5.59-4.28C5.75-4.28 5.92-4.30 6.07-4.32L8.58-1.84C8.51-1.59 8.47-1.35 8.47-1.09C8.47-0.23 8.86 0.52 9.48 0.98L9.48 3.18L5.72 3.18C4.35 3.18 3.21 4.01 3.21 5.29C3.21 6.18 3.66 6.91 4.54 6.91L19.04 6.91C19.92 6.91 20.38 6.18 20.38 5.29C20.38 4.01 19.23 3.18 17.87 3.18L12.66 3.18L12.66 0.98C13.28 0.52 13.68-0.23 13.68-1.09C13.68-2.48 12.57-3.62 11.19-3.68L8.18-6.68C8.19-6.75 8.19-6.82 8.19-6.88C8.19-6.94 8.19-7.00 8.18-7.05L12.49-11.02C12.63-9.95 12.86-8.95 13.14-8.03C13.86-5.71 16.23-5.27 17.65-6.68L19.21-8.24C20.00-7.70 20.91-7.45 21.80-7.45C24.33-7.45 26.54-9.61 26.54-12.16C26.54-13.08 26.26-13.99 25.73-14.78L27.18-16.22C28.72-17.77 28.04-20.02 25.86-20.71C23.63-21.42 20.94-21.68 17.95-21.54L17.72-21.77C16.46-23.03 14.78-23.34 13.31-22.66L12.71-23.26C12.13-23.85 11.20-23.84 10.61-23.26C10.02-22.68 10.02-21.75 10.61-21.15L11.20-20.54C10.51-19.03 10.83-17.29 12.11-16.10L12.33-15.89C12.32-15.63 12.30-15.38 12.30-15.12L6.12-9.43C5.94-9.47 5.77-9.48 5.59-9.48C4.14-9.48 2.99-8.33 2.99-6.88C2.99-5.43 4.14-4.28 5.59-4.28ZM16.03-9.13C15.95-9.05 15.83-9.04 15.76-9.22C15.18-11.12 15.01-13.41 15.22-16.15C15.25-16.72 15.01-17.31 14.57-17.72L14.03-18.21C13.55-18.63 13.54-19.25 14.09-19.79C14.64-20.33 15.21-20.33 15.66-19.84L16.15-19.30C16.57-18.83 17.21-18.59 17.80-18.66C20.45-18.97 22.72-18.66 24.61-18.08C24.81-18.01 24.82-17.89 24.73-17.80ZM23.68-12.14C23.68-11.14 22.80-10.30 21.82-10.30C21.66-10.30 21.49-10.32 21.33-10.36L23.61-12.64C23.66-12.48 23.68-12.30 23.68-12.14Z" fill="currentColor"/>
</svg>