<svg xmlns="http://www.w3.org/2000/svg" viewBox="0 0 24 24" width="24" height="24">
  
  <path transform="matrix(0.8606488485459741, 0, 0, 0.8606488485459741, -0.571860816944024, 19.155824508320727)" d="M2.99 0.08C2.99 1.23 3.93 2.16 5.07 2.16C6.21 2.16 7.15 1.23 7.15 0.08L7.15-16.70C7.15-17.85 6.21-18.79 5.07-18.79C3.93-18.79 2.99-17.85 2.99-16.70ZM22.07 0.08C22.07 1.23 23.00 2.16 24.14 2.16C25.29 2.16 26.23 1.23 26.23 0.08L26.23-16.70C26.23-17.85 25.29-18.79 24.14-18.79C23.00-18.79 22.07-17.85 22.07-16.70Z" fill="currentColor"/>
</svg>