<svg xmlns="http://www.w3.org/2000/svg" viewBox="0 0 24 24" width="24" height="24">
  <title>larisign.bank.building.fill</title>
  <path transform="matrix(0.6653671215074723, 0, 0, 0.6653671215074723, 0.011695906432748648, 17.629629629629626)" d="M4.59 6.20L31.43 6.20C32.29 6.20 33.05 5.50 33.05 4.59C33.05 3.73 32.29 2.99 31.43 2.99L30.84 2.99L30.84 1.83C30.84 1.11 30.40 0.69 29.71 0.69L29.34 0.69L29.34-13.21L30.26-13.21C31.31-13.21 31.95-14.02 31.95-14.80C31.95-15.38 31.62-15.91 30.95-16.31L20.05-22.59C19.49-22.92 18.82-23.12 18.20-23.12C17.58-23.12 16.91-22.92 16.35-22.59L5.45-16.31C4.78-15.91 4.45-15.38 4.45-14.80C4.45-14.02 5.09-13.21 6.15-13.21L7.05-13.21L7.05 0.69L6.69 0.69C6 0.69 5.55 1.11 5.55 1.83L5.55 2.99L4.59 2.99C3.73 2.99 2.99 3.73 2.99 4.59C2.99 5.48 3.73 6.20 4.59 6.20ZM14.14-1.55C13.37-1.55 12.93-1.95 12.93-2.66C12.93-3.35 13.37-3.75 14.14-3.75L14.98-3.75L14.98-3.84C13.64-4.63 13.10-6.15 13.10-7.58C13.10-10.00 14.94-11.63 17.17-12.06L17.17-13.16C17.17-13.34 17.32-13.49 17.48-13.49C17.66-13.49 17.81-13.34 17.81-13.16L17.81-12.16C18.01-12.18 18.19-12.18 18.39-12.18C18.62-12.18 18.84-12.18 19.08-12.15L19.08-13.16C19.08-13.34 19.23-13.49 19.39-13.49C19.57-13.49 19.71-13.34 19.71-13.16L19.71-12.02C21.91-11.50 23.53-9.75 23.53-8.19C23.53-7.42 22.98-7.00 22.22-7.00C21.49-7.00 21.13-7.55 20.96-8.12C20.79-8.82 20.32-9.34 19.71-9.63L19.71-7.36C19.71-7.18 19.57-7.05 19.39-7.05C19.23-7.05 19.08-7.18 19.08-7.36L19.08-9.84C18.88-9.89 18.66-9.93 18.43-9.93C18.22-9.93 18.01-9.89 17.81-9.87L17.81-7.36C17.81-7.18 17.66-7.05 17.48-7.05C17.32-7.05 17.17-7.18 17.17-7.36L17.17-9.64C16.23-9.22 15.71-8.26 15.71-7.10C15.71-5.25 17.25-3.89 19.24-3.89L22.02-3.89C22.82-3.89 23.29-3.47 23.29-2.72C23.29-1.97 22.82-1.55 22.02-1.55Z" fill="currentColor"/>
</svg>