<svg xmlns="http://www.w3.org/2000/svg" viewBox="0 0 24 24" width="24" height="24">
  
  <path transform="matrix(0.7176899355200449, 0, 0, 0.7176899355200449, 0.35576114381833346, 18.07232968881413)" d="M16.23-11.39C22.17-11.39 26.84-9.88 29.46-7.28L29.46-14.60C29.46-19.34 24.20-22.39 16.23-22.39C8.26-22.39 2.99-19.34 2.99-14.60L2.99-7.28C5.61-9.88 10.28-11.39 16.23-11.39ZM16.23 5.47C24.19 5.47 29.46 2.64 29.46-1.78C29.46-6.21 24.19-9.05 16.23-9.05C8.27-9.05 2.99-6.21 2.99-1.78C2.99 2.64 8.27 5.47 16.23 5.47ZM16.23-2.25C13.04-2.25 10.56-3.71 9.93-5.93C11.63-6.43 13.77-6.73 16.23-6.73C18.68-6.73 20.82-6.43 22.52-5.93C21.89-3.71 19.41-2.25 16.23-2.25Z" fill="currentColor"/>
</svg>