<svg xmlns="http://www.w3.org/2000/svg" viewBox="0 0 24 24" width="24" height="24">
  <title>light.recessed.3.inverse</title>
  <path transform="matrix(0.5079365079365079, 0, 0, 0.5079365079365079, 0.4821428571428572, 15.077380952380953)" d="M12.40-6.06C17.64-6.06 21.77-8.68 21.77-12.05C21.77-15.41 17.64-18.05 12.40-18.05C7.16-18.05 2.99-15.42 2.99-12.05C2.99-8.68 7.16-6.06 12.40-6.06ZM32.99-6.06C38.20-6.06 42.36-8.68 42.36-12.05C42.36-15.41 38.20-18.05 32.99-18.05C27.73-18.05 23.58-15.42 23.58-12.05C23.58-8.68 27.73-6.06 32.99-6.06ZM12.40-8.67C9.26-8.67 6.81-10.14 6.81-11.98C6.81-13.82 9.26-15.26 12.40-15.26C15.56-15.26 17.98-13.82 17.98-11.98C17.98-10.14 15.56-8.67 12.40-8.67ZM32.99-8.67C29.85-8.67 27.38-10.14 27.38-11.98C27.38-13.82 29.85-15.26 32.99-15.26C36.14-15.26 38.57-13.82 38.57-11.98C38.57-10.14 36.14-8.67 32.99-8.67ZM12.40-11.19C13.84-11.19 15.27-11.78 16.13-12.70C15.48-13.34 14.03-13.72 12.40-13.72C10.76-13.72 9.29-13.32 8.65-12.67C9.52-11.77 10.98-11.19 12.40-11.19ZM32.99-11.19C34.43-11.19 35.86-11.78 36.70-12.70C36.05-13.34 34.61-13.72 32.99-13.72C31.32-13.72 29.87-13.32 29.24-12.67C30.09-11.77 31.56-11.19 32.99-11.19ZM22.68 5.93C27.90 5.93 32.04 3.30 32.04-0.06C32.04-3.43 27.90-6.06 22.68-6.06C17.41-6.06 13.25-3.43 13.25-0.06C13.25 3.30 17.41 5.93 22.68 5.93ZM22.68 3.30C19.54 3.30 17.07 1.85 17.07 0.01C17.07-1.83 19.54-3.28 22.68-3.28C25.83-3.28 28.25-1.83 28.25 0.01C28.25 1.85 25.83 3.30 22.68 3.30ZM22.68 0.79C24.12 0.79 25.55 0.21 26.39-0.71C25.75-1.36 24.29-1.73 22.68-1.73C21.02-1.73 19.57-1.35 18.93-0.68C19.78 0.22 21.25 0.79 22.68 0.79Z" fill="currentColor"/>
</svg>