<svg xmlns="http://www.w3.org/2000/svg" viewBox="0 0 24 24" width="24" height="24">
  <title>lightbulb</title>
  <path transform="matrix(0.6612424125016143, 0, 0, 0.6612424125016143, 4.347927160015499, 17.614103060829137)" d="M2.99-15.64C2.99-11.39 5.39-9.46 5.92-2.59C6-1.46 6.76-0.79 7.89-0.79L15.25-0.79C16.37-0.79 17.13-1.46 17.21-2.59C17.73-9.46 20.16-11.38 20.16-15.63C20.16-20.25 16.24-23.61 11.57-23.61C6.89-23.61 2.99-20.26 2.99-15.64ZM6.30-15.64C6.30-18.43 8.73-20.30 11.57-20.30C14.39-20.29 16.84-18.43 16.84-15.64C16.84-13.18 14.98-12.15 14.17-4.09L8.96-4.09C8.16-12.15 6.30-13.18 6.30-15.64ZM7.57 2.78L15.55 2.78C16.15 2.78 16.62 2.27 16.62 1.73C16.62 1.17 16.15 0.68 15.55 0.68L7.57 0.68C6.97 0.68 6.50 1.17 6.50 1.73C6.50 2.27 6.97 2.78 7.57 2.78ZM11.57 6.63C13.59 6.63 15.01 5.68 15.16 4.25L7.90 4.25C8.04 5.68 9.53 6.63 11.57 6.63Z" fill="currentColor"/>
</svg>