<svg xmlns="http://www.w3.org/2000/svg" viewBox="0 0 24 24" width="24" height="24">
  <title>list.dash</title>
  <path transform="matrix(0.7498535442296427, 0, 0, 0.7498535442296427, -0.24077328646748697, 18.33567662565905)" d="M5.02-14.12L7.02-14.12C8.12-14.12 9.05-15.04 9.05-16.15C9.05-17.26 8.12-18.18 7.02-18.18L5.02-18.18C3.91-18.18 2.99-17.26 2.99-16.15C2.99-15.04 3.91-14.12 5.02-14.12ZM13.15-14.29L27.86-14.29C28.86-14.29 29.66-15.18 29.66-16.16C29.66-17.18 28.88-18.04 27.86-18.04L13.15-18.04C12.13-18.04 11.34-17.16 11.34-16.16C11.34-15.20 12.15-14.29 13.15-14.29ZM5.02-6.42L7.02-6.42C8.12-6.42 9.05-7.34 9.05-8.45C9.05-9.56 8.12-10.48 7.02-10.48L5.02-10.48C3.91-10.48 2.99-9.56 2.99-8.45C2.99-7.34 3.91-6.42 5.02-6.42ZM13.15-6.59L27.86-6.59C28.86-6.59 29.66-7.48 29.66-8.46C29.66-9.49 28.88-10.34 27.86-10.34L13.15-10.34C12.13-10.34 11.34-9.46 11.34-8.46C11.34-7.50 12.15-6.59 13.15-6.59ZM5.02 1.28L7.02 1.28C8.12 1.28 9.05 0.36 9.05-0.75C9.05-1.86 8.12-2.78 7.02-2.78L5.02-2.78C3.91-2.78 2.99-1.86 2.99-0.75C2.99 0.36 3.91 1.28 5.02 1.28ZM13.15 1.11L27.86 1.11C28.86 1.11 29.66 0.22 29.66-0.76C29.66-1.79 28.88-2.64 27.86-2.64L13.15-2.64C12.13-2.64 11.34-1.76 11.34-0.76C11.34 0.19 12.15 1.11 13.15 1.11Z" fill="currentColor"/>
</svg>