<svg xmlns="http://www.w3.org/2000/svg" viewBox="0 0 24 24" width="24" height="24">
  
  <path transform="matrix(0.7064017660044151, 0, 0, 0.7064017660044151, -0.11092715231788075, 17.96440397350993)" d="M7.58 3.18L26.71 3.18C29.60 3.18 31.30 1.48 31.30-1.42L31.30-15.47C31.30-18.38 29.60-20.06 26.71-20.06L7.58-20.06C4.69-20.06 2.99-18.38 2.99-15.47L2.99-1.42C2.99 1.48 4.69 3.18 7.58 3.18ZM8.21-0.98C7.50-0.98 7.15-1.29 7.15-2.06L7.15-14.84C7.15-15.61 7.50-15.90 8.21-15.90L26.07-15.90C26.79-15.90 27.14-15.61 27.14-14.84L27.14-2.06C27.14-1.29 26.79-0.98 26.07-0.98ZM13.10-4.23C13.10-3.28 13.54-2.84 14.43-2.84L19.89-2.84C20.77-2.84 21.21-3.28 21.21-4.23L21.21-8.37C21.21-9.07 20.93-9.50 20.43-9.64L20.43-10.70C20.43-12.84 19.10-14.31 17.16-14.31C15.21-14.31 13.89-12.84 13.89-10.70L13.89-9.67C13.37-9.50 13.10-9.07 13.10-8.37ZM15.94-9.74L15.94-10.77C15.94-11.71 16.39-12.30 17.16-12.30C17.92-12.30 18.38-11.72 18.38-10.77L18.38-9.74Z" fill="currentColor"/>
</svg>