<svg xmlns="http://www.w3.org/2000/svg" viewBox="0 0 24 24" width="24" height="24">
  <title>lt.circle.fill</title>
  <path transform="matrix(0.7810831426392068, 0, 0, 0.7810831426392068, 0.3615560640732265, 18.608695652173914)" d="M14.89 4.34C21.97 4.34 27.70-1.39 27.70-8.46C27.70-15.53 21.97-21.26 14.89-21.26C7.83-21.26 2.10-15.53 2.10-8.46C2.10-1.39 7.83 4.34 14.89 4.34ZM11.06-3.98C10.31-3.98 9.91-4.45 9.91-5.19L9.91-11.91C9.91-12.55 10.43-13.05 11.07-13.05C11.72-13.05 12.22-12.55 12.22-11.91L12.22-5.86L13.69-5.86C14.19-5.86 14.63-5.44 14.63-4.92C14.63-4.42 14.19-3.98 13.69-3.98ZM17.36-3.86C16.71-3.86 16.20-4.36 16.20-5.02L16.20-11.05L15.43-11.05C14.92-11.05 14.51-11.47 14.51-11.99C14.51-12.48 14.92-12.91 15.43-12.91L19.27-12.91C19.77-12.91 20.19-12.48 20.19-11.99C20.19-11.47 19.77-11.05 19.27-11.05L18.50-11.05L18.50-5.02C18.50-4.36 18-3.86 17.36-3.86Z" fill="currentColor"/>
</svg>