<svg xmlns="http://www.w3.org/2000/svg" viewBox="0 0 24 24" width="24" height="24">
  
  <path transform="matrix(0.5256133867159429, 0, 0, 0.5256133867159429, 0.4293193717277486, 16.25931629196181)" d="M5.20 2.53L29.68 2.53L29.53 2.16C28.00 1.03 27.32-0.26 27.26-1.89L11.46-1.89L11.46-14.36C11.46-15.04 11.78-15.30 12.41-15.30L31.25-15.30C31.36-15.30 31.43-15.28 31.49-15.25C31.96-15.50 32.52-15.64 33.09-15.64L36.36-15.64C36.23-18.07 34.70-19.46 32.20-19.46L11.48-19.46C8.85-19.46 7.30-17.93 7.30-15.29L7.30-1.89L5.20-1.89C4.01-1.89 2.99-0.89 2.99 0.32C2.99 1.52 4.01 2.53 5.20 2.53ZM33.01 3.26L36.43 3.26C36.98 3.26 37.44 2.98 37.65 2.48L38.12 1.38C38.29 0.98 38.58 0.68 39 0.40C39.82-0.18 40.24-0.96 40.24-2.07L40.24-5.60C40.71-5.65 41.04-6.01 41.04-6.53L41.04-7.55C41.04-8.05 40.71-8.44 40.24-8.48C40.21-9.55 39.80-10.30 39-10.85C38.58-11.14 38.29-11.45 38.12-11.84L37.65-12.94C37.44-13.44 36.98-13.71 36.43-13.71L33.01-13.71C32.44-13.71 31.99-13.44 31.77-12.94L31.29-11.84C31.11-11.43 30.82-11.10 30.42-10.85C29.59-10.29 29.18-9.49 29.18-8.38L29.18-2.07C29.18-0.96 29.59-0.19 30.42 0.40C30.86 0.68 31.11 0.98 31.29 1.38L31.77 2.48C31.99 2.99 32.44 3.26 33.01 3.26ZM32.65-1.50C31.90-1.50 31.59-1.83 31.59-2.63L31.59-7.84C31.59-8.64 31.90-8.96 32.65-8.96L36.77-8.96C37.54-8.96 37.86-8.63 37.86-7.84L37.86-2.63C37.86-1.84 37.54-1.50 36.77-1.50Z" fill="currentColor"/>
</svg>