<svg xmlns="http://www.w3.org/2000/svg" viewBox="0 0 24 24" width="24" height="24">
  
  <path transform="matrix(0.6472001011250158, 0, 0, 0.6472001011250158, 3.9264315510049297, 17.46454304133485)" d="M12.47-20.54C15.45-20.54 17.86-21.30 17.86-22.22C17.86-23.14 15.45-23.89 12.47-23.89C9.50-23.89 7.09-23.14 7.09-22.22C7.09-21.30 9.50-20.54 12.47-20.54ZM2.99 0.89C2.99 4.73 6.52 7.01 12.47 7.01C18.42 7.01 21.96 4.73 21.96 0.89L21.96-15.23C21.96-16.62 21.76-17.96 21.29-18.95C20.72-20.17 19.71-20.77 18.09-19.98C16.88-19.34 14.78-18.91 12.47-18.91C10.17-18.91 8.07-19.34 6.86-19.98C5.24-20.77 4.23-20.17 3.66-18.95C3.19-17.96 2.99-16.62 2.99-15.23Z" fill="currentColor"/>
</svg>