<svg xmlns="http://www.w3.org/2000/svg" viewBox="0 0 24 24" width="24" height="24">
  <title>macpro.gen3</title>
  <path transform="matrix(0.6197046719922537, 0, 0, 0.6197046719922537, 2.0217864923747277, 17.37400145243282)" d="M6.12 7.46L11.63 7.46C12.48 7.46 13.17 6.77 13.17 5.92C13.17 5.04 12.48 4.35 11.63 4.35L10.42 4.35L10.42 3.07L21.64 3.07L21.64 4.35L20.45 4.35C19.59 4.35 18.90 5.04 18.90 5.92C18.90 6.77 19.59 7.46 20.45 7.46L25.96 7.46C26.81 7.46 27.50 6.77 27.50 5.92C27.50 5.04 26.81 4.35 25.96 4.35L24.76 4.35L24.76 3.07C27.57 3.01 29.21 1.32 29.21-1.52L29.21-16.79C29.21-19.64 27.57-21.33 24.76-21.38L24.76-23.25C24.76-24.11 24.07-24.81 23.21-24.81C22.34-24.81 21.64-24.11 21.64-23.25L21.64-21.39L10.42-21.39L10.42-23.25C10.42-24.11 9.73-24.81 8.87-24.81C8.00-24.81 7.31-24.11 7.31-23.25L7.31-21.38C4.58-21.27 2.99-19.59 2.99-16.79L2.99-1.52C2.99 1.28 4.58 2.96 7.31 3.07L7.31 4.35L6.12 4.35C5.26 4.35 4.56 5.04 4.56 5.92C4.56 6.77 5.26 7.46 6.12 7.46ZM8.21-1.09C7.50-1.09 7.15-1.38 7.15-2.17L7.15-16.15C7.15-16.92 7.50-17.21 8.21-17.21L23.99-17.21C24.70-17.21 25.05-16.92 25.05-16.15L25.05-2.17C25.05-1.38 24.70-1.09 23.99-1.09ZM16.16-12.08C16.56-12.08 17.09-12.36 17.38-12.74C17.67-13.09 17.86-13.55 17.86-14.02C17.86-14.09 17.86-14.14 17.85-14.19C17.38-14.18 16.84-13.89 16.50-13.52C16.23-13.22 16.02-12.74 16.02-12.28C16.02-12.20 16.02-12.13 16.03-12.12C16.05-12.09 16.09-12.08 16.16-12.08ZM14.71-5.11C15.26-5.11 15.53-5.47 16.20-5.47C16.92-5.47 17.09-5.11 17.70-5.11C18.33-5.11 18.73-5.70 19.11-6.23C19.57-6.87 19.71-7.49 19.73-7.54C19.70-7.55 18.52-8.02 18.52-9.36C18.52-10.52 19.44-11.06 19.51-11.10C18.88-11.98 17.96-12.01 17.70-12.01C17.00-12.01 16.45-11.59 16.09-11.59C15.73-11.59 15.22-11.98 14.63-11.98C13.49-11.98 12.35-11.05 12.35-9.27C12.35-8.17 12.77-7.01 13.30-6.27C13.75-5.64 14.13-5.11 14.71-5.11Z" fill="currentColor"/>
</svg>