<svg xmlns="http://www.w3.org/2000/svg" viewBox="0 0 24 24" width="24" height="24">
  
  <path transform="matrix(0.6316308906982482, 0, 0, 0.6316308906982482, 0.11250925240562548, 17.347890451517394)" d="M7.90-1.23L9.52-1.23L9.52 0.06C9.52 3.11 11.39 4.99 14.43 4.99L29.75 4.99C32.79 4.99 34.65 3.11 34.65 0.06L34.65-10.78C34.65-13.82 32.79-15.69 29.75-15.69L28.11-15.69L28.11-17.02C28.11-20.05 26.25-21.93 23.23-21.93L7.90-21.93C4.86-21.93 2.99-20.05 2.99-17.02L2.99-6.16C2.99-3.12 4.86-1.23 7.90-1.23ZM8.46-5.39C7.61-5.39 7.15-5.87 7.15-6.71L7.15-16.45C7.15-17.30 7.61-17.77 8.46-17.77L22.65-17.77C23.48-17.77 23.96-17.30 23.96-16.45L23.96-15.69L14.43-15.69C11.39-15.69 9.52-13.82 9.52-10.78L9.52-5.39ZM14.99 0.83C14.14 0.83 13.68 0.36 13.68-0.48L13.68-10.22C13.68-11.06 14.14-11.53 14.99-11.53L29.18-11.53C30.01-11.53 30.50-11.06 30.50-10.22L30.50-0.48C30.50 0.36 30.01 0.83 29.18 0.83ZM16.61-7.36C17.31-7.36 17.89-7.95 17.89-8.66C17.89-9.38 17.31-9.95 16.61-9.95C15.88-9.95 15.30-9.38 15.30-8.66C15.30-7.95 15.88-7.36 16.61-7.36ZM20.46-7.36C21.18-7.36 21.75-7.95 21.75-8.66C21.75-9.38 21.18-9.95 20.46-9.95C19.75-9.95 19.16-9.38 19.16-8.66C19.16-7.95 19.75-7.36 20.46-7.36ZM24.33-7.36C25.04-7.36 25.62-7.95 25.62-8.66C25.62-9.38 25.04-9.95 24.33-9.95C23.60-9.95 23.03-9.38 23.03-8.66C23.03-7.95 23.60-7.36 24.33-7.36Z" fill="currentColor"/>
</svg>