<svg xmlns="http://www.w3.org/2000/svg" viewBox="0 0 24 24" width="24" height="24">
  
  <path transform="matrix(0.6653671215074723, 0, 0, 0.6653671215074723, 0.011695906432748648, 17.629629629629626)" d="M5.55 2.10L30.84 2.10L30.84 0.79C30.84 0.08 30.40-0.34 29.71-0.34L29.34-0.34L29.34-13.21L30.26-13.21C31.31-13.21 31.95-14.02 31.95-14.80C31.95-15.38 31.62-15.91 30.95-16.31L20.05-22.59C19.49-22.92 18.82-23.12 18.20-23.12C17.58-23.12 16.91-22.92 16.35-22.59L5.45-16.31C4.78-15.91 4.45-15.38 4.45-14.80C4.45-14.02 5.09-13.21 6.15-13.21L7.05-13.21L7.05-0.34L6.69-0.34C6-0.34 5.55 0.08 5.55 0.79ZM9.82-0.34L9.82-15.09L18.01-19.66C18.08-19.70 18.15-19.71 18.20-19.71C18.27-19.71 18.32-19.70 18.39-19.66L26.58-15.09L26.58-0.34ZM18.50-4.98C19.10-4.98 19.39-5.34 19.39-5.94L19.39-9.57L19.48-9.57L20.43-5.87C20.54-5.43 20.80-5.14 21.27-5.14C21.74-5.14 21.98-5.40 22.11-5.88L23.05-9.57L23.12-9.57L23.12-5.94C23.12-5.34 23.44-4.98 24.02-4.98C24.62-4.98 24.91-5.34 24.91-5.94L24.91-11.21C24.91-12.14 24.40-12.57 23.53-12.57C22.78-12.57 22.32-12.27 22.15-11.52L21.27-7.85L21.26-7.85L20.37-11.52C20.18-12.32 19.69-12.57 19.00-12.57C18.11-12.57 17.61-12.11 17.61-11.21L17.61-5.94C17.61-5.34 17.92-4.98 18.50-4.98ZM12.55-4.98C13.23-4.98 13.58-5.39 13.58-6.06L13.58-7.62L14.03-7.62L14.71-5.93C14.93-5.37 15.25-4.98 15.86-4.98C16.36-4.98 16.83-5.33 16.79-5.99C16.79-6.27 16.69-6.50 16.56-6.80L16.00-7.99C16.73-8.55 16.92-9.22 16.92-9.98C16.92-11.72 15.86-12.46 14.23-12.46L12.55-12.46C11.88-12.46 11.51-12.05 11.51-11.38L11.51-6.06C11.51-5.39 11.88-4.98 12.55-4.98ZM13.58-8.99L13.58-10.92L14.05-10.92C14.52-10.92 14.80-10.54 14.80-9.95C14.80-9.48 14.60-8.99 14.04-8.99ZM4.59 6.20L31.43 6.20C32.29 6.20 33.05 5.50 33.05 4.59C33.05 3.73 32.29 2.99 31.43 2.99L4.59 2.99C3.73 2.99 2.99 3.73 2.99 4.59C2.99 5.48 3.73 6.20 4.59 6.20Z" fill="currentColor"/>
</svg>