<svg xmlns="http://www.w3.org/2000/svg" viewBox="0 0 24 24" width="24" height="24">
  <title>malaysianringgitsign.circle</title>
  <path transform="matrix(0.7810831426392068, 0, 0, 0.7810831426392068, 0.3615560640732265, 18.608695652173914)" d="M14.89 4.34C21.97 4.34 27.70-1.39 27.70-8.46C27.70-15.53 21.97-21.26 14.89-21.26C7.83-21.26 2.10-15.53 2.10-8.46C2.10-1.39 7.83 4.34 14.89 4.34ZM14.89 0.16C10.13 0.16 6.27-3.69 6.27-8.46C6.27-13.23 10.13-17.09 14.89-17.09C19.66-17.09 23.53-13.23 23.53-8.46C23.53-3.69 19.66 0.16 14.89 0.16ZM15.20-4.65C15.80-4.65 16.09-5.02 16.09-5.61L16.09-9.27L16.17-9.27L17.12-5.54C17.24-5.10 17.51-4.82 17.98-4.82C18.45-4.82 18.69-5.07 18.82-5.55L19.77-9.27L19.84-9.27L19.84-5.61C19.84-5.02 20.14-4.65 20.74-4.65C21.34-4.65 21.63-5.02 21.63-5.61L21.63-10.92C21.63-11.85 21.12-12.28 20.24-12.28C19.49-12.28 19.04-11.96 18.86-11.21L17.96-7.54L17.07-11.21C16.88-12.02 16.38-12.28 15.69-12.28C14.80-12.28 14.30-11.80 14.30-10.92L14.30-5.61C14.30-5.02 14.60-4.65 15.20-4.65ZM9.22-4.65C9.90-4.65 10.24-5.06 10.24-5.74L10.24-7.29L10.70-7.29L11.39-5.60C11.60-5.04 11.93-4.65 12.53-4.65C13.04-4.65 13.51-5.00 13.48-5.66C13.48-5.94 13.37-6.19 13.24-6.47L12.68-7.68C13.41-8.24 13.61-8.91 13.61-9.68C13.61-11.41 12.54-12.15 10.90-12.15L9.21-12.15C8.54-12.15 8.16-11.75 8.16-11.07L8.16-5.74C8.16-5.06 8.54-4.65 9.22-4.65ZM10.24-8.67L10.24-10.62L10.72-10.62C11.19-10.62 11.48-10.23 11.48-9.63C11.48-9.16 11.27-8.67 10.71-8.67Z" fill="currentColor"/>
</svg>