<svg xmlns="http://www.w3.org/2000/svg" viewBox="0 0 24 24" width="24" height="24">
  
  <path transform="matrix(0.7258070703915416, 0, 0, 0.7258070703915416, 1.9013815546654762, 18.141008259640934)" d="M1.15-11.25C0.12-11.25-0.13-10.23 0.42-9.54L3.59-5.51C3.94-5.05 4.63-5.05 4.99-5.51L8.14-9.54C8.68-10.23 8.44-11.25 7.43-11.25L6.73-11.25C7.89-14.66 11.11-17.09 14.89-17.09C19.66-17.09 23.52-13.23 23.52-8.46C23.52-3.69 19.66 0.16 14.89 0.16C12.60 0.16 10.69-0.66 9-2.18C8.02-3.04 6.77-3.33 5.84-2.40C5.00-1.59 4.96-0.29 6.05 0.76C8.46 3.14 11.75 4.34 14.89 4.34C21.95 4.34 27.69-1.39 27.69-8.46C27.69-15.53 21.95-21.26 14.89-21.26C8.79-21.26 3.68-16.99 2.40-11.25ZM15.14-5.26C15.64-5.26 15.89-5.57 15.89-6.07L15.89-9.13L15.96-9.13L16.76-6.01C16.85-5.64 17.09-5.40 17.47-5.40C17.87-5.40 18.07-5.61 18.18-6.01L18.97-9.13L19.03-9.13L19.03-6.07C19.03-5.57 19.29-5.26 19.79-5.26C20.29-5.26 20.54-5.57 20.54-6.07L20.54-10.51C20.54-11.30 20.11-11.66 19.37-11.66C18.74-11.66 18.36-11.39 18.21-10.77L17.47-7.68L17.46-7.68L16.71-10.77C16.55-11.44 16.14-11.66 15.55-11.66C14.81-11.66 14.39-11.26 14.39-10.51L14.39-6.07C14.39-5.57 14.65-5.26 15.14-5.26ZM10.14-5.26C10.70-5.26 10.99-5.60 10.99-6.18L10.99-7.48L11.38-7.48L11.95-6.06C12.13-5.59 12.40-5.26 12.91-5.26C13.34-5.26 13.72-5.57 13.71-6.11C13.71-6.34 13.62-6.55 13.51-6.79L13.03-7.79C13.65-8.27 13.80-8.84 13.80-9.48C13.80-10.93 12.91-11.55 11.54-11.55L10.13-11.55C9.56-11.55 9.25-11.21 9.25-10.64L9.25-6.18C9.25-5.60 9.56-5.26 10.14-5.26ZM10.99-8.64L10.99-10.27L11.39-10.27C11.79-10.27 12.02-9.94 12.02-9.45C12.02-9.05 11.85-8.64 11.38-8.64Z" fill="currentColor"/>
</svg>