<svg xmlns="http://www.w3.org/2000/svg" viewBox="0 0 24 24" width="24" height="24">
  
  <path transform="matrix(0.663040663040663, 0, 0, 0.663040663040663, 0.6091686091686093, 17.780885780885782)" d="M11.53-17.30C11.53-14.79 13.13-12.67 15.36-11.89L15.36-4.68C15.36-2.70 16.54-0.36 17.21-0.36C17.89-0.36 19.05-2.68 19.05-4.68L19.05-11.89C21.30-12.66 22.91-14.79 22.91-17.30C22.91-20.45 20.38-23.02 17.21-23.02C14.06-23.02 11.53-20.45 11.53-17.30ZM15.63-16.95C14.60-16.95 13.69-17.85 13.69-18.90C13.69-19.96 14.60-20.85 15.63-20.85C16.70-20.85 17.58-19.96 17.58-18.90C17.58-17.85 16.70-16.95 15.63-16.95ZM17.18 5.58C26.21 5.58 32.26 2.80 32.26-1.32C32.26-4.72 27.73-7.32 21.38-7.99L21.38-4.37C25.38-3.91 28.34-2.79 28.34-1.36C28.34 0.66 23.72 1.95 17.18 1.95C10.64 1.95 6.02 0.66 6.02-1.36C6.02-2.79 8.98-3.91 12.98-4.37L12.98-7.99C6.63-7.32 2.10-4.72 2.10-1.32C2.10 2.80 8.14 5.58 17.18 5.58Z" fill="currentColor"/>
</svg>