<svg xmlns="http://www.w3.org/2000/svg" viewBox="0 0 24 24" width="24" height="24">
  
  <path transform="matrix(0.6851331459922387, 0, 0, 0.6851331459922387, 1.1951015140410535, 17.704536330790848)" d="M15.77 6.27C20.64 6.27 24.59 2.32 24.59-2.54C24.59-3.88 24.28-5.14 23.75-6.27L28.28-14.44C28.68-15.16 28.64-16.04 28.18-16.71L24.66-21.96C24.21-22.59 23.59-22.92 22.77-22.92L8.77-22.92C7.96-22.92 7.32-22.59 6.89-21.96L3.35-16.71C2.91-16.04 2.86-15.16 3.27-14.44L7.79-6.27C7.25-5.14 6.96-3.88 6.96-2.54C6.96 2.32 10.91 6.27 15.77 6.27ZM10.90-19.18L20.64-19.18L19.70-17.50L11.84-17.50ZM7.07-15.55L8.06-16.99L11.55-10.28C11.11-10.03 10.68-9.75 10.29-9.43ZM23.48-16.99L24.48-15.55L21.26-9.43C20.86-9.75 20.44-10.03 19.98-10.28ZM15.77-11.34C15.61-11.34 15.43-11.34 15.27-11.33L13.77-14.04L17.78-14.04L16.27-11.33C16.10-11.34 15.94-11.34 15.77-11.34ZM15.77 2.53C12.97 2.53 10.70 0.26 10.70-2.54C10.70-5.33 12.97-7.61 15.77-7.61C18.56-7.61 20.85-5.33 20.85-2.54C20.85 0.26 18.56 2.53 15.77 2.53ZM13.98 1.09L15.77-0.22L17.54 1.09C18.09 1.50 18.69 1.09 18.47 0.41L17.78-1.69L19.57-2.98C20.09-3.34 19.89-4.08 19.23-4.07L17.02-4.04L16.34-6.15C16.13-6.81 15.41-6.81 15.20-6.15L14.51-4.04L12.32-4.07C11.65-4.08 11.44-3.34 11.95-2.98L13.75-1.68L13.05 0.41C12.82 1.07 13.43 1.49 13.98 1.09Z" fill="currentColor"/>
</svg>