<svg xmlns="http://www.w3.org/2000/svg" viewBox="0 0 24 24" width="24" height="24">
  <title>millsign.ring</title>
  <path transform="matrix(0.7436456063907044, 0, 0, 0.7436456063907044, 0.4400871459694988, 18.291938997821347)" d="M15.54 4.98C22.96 4.98 28.99-1.04 28.99-8.46C28.99-15.88 22.96-21.90 15.54-21.90C8.12-21.90 2.10-15.88 2.10-8.46C2.10-1.04 8.12 4.98 15.54 4.98ZM15.54 0.08C10.82 0.08 7.00-3.74 7.00-8.46C7.00-13.18 10.82-17.00 15.54-17.00C20.26-17.00 24.09-13.18 24.09-8.46C24.09-3.74 20.26 0.08 15.54 0.08ZM11.93-4.38C12.57-4.38 12.98-4.84 12.98-5.48L12.98-9C12.98-9.56 13.23-10.14 13.79-10.14C14.32-10.14 14.60-9.69 14.60-9.02L14.60-7.29L12.49-2.75C12.47-2.72 12.46-2.66 12.46-2.61C12.46-2.41 12.61-2.33 12.74-2.33C12.86-2.33 12.96-2.39 13.01-2.51L14.60-5.93L14.60-5.48C14.60-4.89 14.98-4.38 15.57-4.38C16.16-4.38 16.54-4.89 16.54-5.48L16.54-9C16.54-9.52 16.69-10.14 17.32-10.14C17.94-10.14 18.11-9.63 18.11-9.01L18.11-5.48C18.11-4.88 18.55-4.38 19.16-4.38C19.78-4.38 20.21-4.88 20.21-5.48L20.21-9.69C20.21-11.03 19.57-12.27 18.22-12.27C17.95-12.27 17.70-12.21 17.47-12.12L18.47-14.27C18.50-14.33 18.50-14.37 18.50-14.41C18.50-14.61 18.35-14.70 18.22-14.70C18.07-14.70 18-14.61 17.95-14.52L16.30-10.97C16.08-11.79 15.55-12.27 14.67-12.27C13.78-12.27 13.18-11.52 13.01-10.77L12.93-10.77L12.93-11.18C12.93-11.85 12.48-12.27 11.89-12.27C11.27-12.27 10.88-11.81 10.88-11.18L10.88-5.48C10.88-4.88 11.32-4.38 11.93-4.38Z" fill="currentColor"/>
</svg>