<svg xmlns="http://www.w3.org/2000/svg" viewBox="0 0 24 24" width="24" height="24">
  <title>minus.plus.batteryblock.exclamationmark</title>
  <path transform="matrix(0.7064017660044151, 0, 0, 0.7064017660044151, -0.11092715231788075, 18.862582781456954)" d="M17.17-9.16C18.14-9.16 18.79-9.71 18.80-10.72L18.98-20.04C19.01-21.13 18.30-21.86 17.14-21.86C15.98-21.86 15.28-21.13 15.32-20.04L15.53-10.70C15.56-9.71 16.18-9.16 17.17-9.16ZM7.58 2.43L26.71 2.43C29.60 2.43 31.30 0.73 31.30-2.17L31.30-11.93C31.30-14.34 29.67-15.91 27.18-15.91L26.99-15.91L26.99-16.89C26.99-18.22 26.21-19.02 24.88-19.02L23.93-19.02C22.58-19.02 21.81-18.22 21.81-16.89L21.81-15.91L20.82-15.91L20.75-11.75L26.06-11.75C26.72-11.75 27.14-11.34 27.14-10.64L27.14-2.81C27.14-2.03 26.79-1.73 26.06-1.73L8.21-1.73C7.50-1.73 7.15-2.03 7.15-2.81L7.15-10.69C7.15-11.46 7.50-11.75 8.21-11.75L13.59-11.75L13.49-15.91L12.48-15.91L12.48-16.89C12.48-18.22 11.71-19.02 10.36-19.02L9.41-19.02C8.07-19.02 7.30-18.22 7.30-16.89L7.30-15.91L7.17-15.91C4.65-15.91 2.99-14.11 2.99-11.32L2.99-2.17C2.99 0.73 4.69 2.43 7.58 2.43ZM23.19-4.31C23.64-4.31 23.96-4.66 23.96-5.10L23.96-5.84L24.71-5.84C25.15-5.84 25.52-6.20 25.52-6.62C25.52-7.08 25.15-7.43 24.71-7.43L23.96-7.43L23.96-8.17C23.96-8.61 23.64-8.96 23.18-8.96C22.73-8.96 22.38-8.61 22.38-8.17L22.38-7.43L21.64-7.43C21.21-7.43 20.84-7.08 20.84-6.62C20.84-6.20 21.21-5.84 21.64-5.84L22.38-5.84L22.38-5.10C22.38-4.66 22.73-4.31 23.19-4.31ZM17.14-4.11C18.19-4.11 19.02-4.89 19.02-5.87C19.02-6.89 18.20-7.63 17.14-7.63C16.09-7.63 15.26-6.89 15.26-5.87C15.26-4.89 16.10-4.11 17.14-4.11ZM9.88-5.84L12.28-5.84C12.71-5.84 13.07-6.20 13.07-6.63C13.07-7.08 12.71-7.43 12.28-7.43L9.88-7.43C9.45-7.43 9.08-7.08 9.08-6.63C9.08-6.20 9.45-5.84 9.88-5.84Z" fill="currentColor"/>
</svg>