<svg xmlns="http://www.w3.org/2000/svg" viewBox="0 0 24 24" width="24" height="24">
  
  <path transform="matrix(0.49511652644811915, 0, 0, 0.49511652644811915, 0.5204525674499565, 16.28942266507359)" d="M29.74 1.00C34.54 1.00 37.79-1.43 38.66-5.44L34.44-5.44C33.64-3.84 31.98-2.93 29.74-2.93L15.82-2.93C14.09-2.93 13.63-3.32 13.46-4.83L12.49-13.46C12.35-14.66 12.77-15 14.44-15C18.06-15 25.04-14.79 29.16-14.32C31.10-14.12 32.66-13.27 33.64-11.93L38.20-11.93C36.90-15.49 33.84-17.84 29.61-18.30C25.32-18.79 18.11-18.95 14.44-18.96C10.39-18.96 8.10-16.64 8.51-13.01L8.81-10.31C8.91-9.49 8.53-9.16 7.98-9.16L5.78-9.16C4.17-9.16 2.99-7.98 2.99-6.39L2.99-1.01C2.99 1.38 4.49 2.02 6.67 1.43C8.03 1.08 9.33 1.00 11.19 1.00ZM30.90-10.88C30.90-11.95 30.04-12.40 29.13-11.78L26.00-9.60C25.27-9.08 25.28-8.20 26.00-7.70L29.16-5.51C30.02-4.91 30.90-5.36 30.90-6.42L30.90-7.37L38.02-7.37C41.24-7.37 43.38-9.42 43.38-12.54L43.38-13.83C43.38-14.57 42.80-15.16 42.06-15.16C41.32-15.16 40.72-14.57 40.72-13.83L40.72-12.54C40.72-11.00 39.64-10.00 38.02-10.00L30.90-10.00Z" fill="currentColor"/>
</svg>