<svg xmlns="http://www.w3.org/2000/svg" viewBox="0 0 24 24" width="24" height="24">
  <title>moped.fill</title>
  <path transform="matrix(0.4965462837799894, 0, 0, 0.4965462837799894, 0.5166146908313969, 16.218703778208894)" d="M4.66-0.32L6.22-0.32C6.94 2.81 9.74 5.16 13.11 5.16C16.45 5.16 19.25 2.81 19.97-0.32L29.34-0.32C30.06 2.81 32.86 5.16 36.23 5.16C40.11 5.16 43.27 1.99 43.27-1.90C43.27-5.80 40.11-8.96 36.23-8.96C36.16-8.96 36.09-8.96 36.02-8.96L32.93-20.93C32.72-21.76 31.98-22.15 31.00-22.15L26.94-22.15C26.09-22.15 25.39-21.45 25.39-20.59C25.39-19.72 26.09-19.03 26.94-19.03L30.23-19.03C30.38-19.03 30.45-18.98 30.47-18.88L31.39-15.14L29.00-15.14C27.83-15.14 27.27-14.54 27.27-13.29L27.27-3.45L21.86-3.45L21.86-10.44C21.86-11.70 21.28-12.32 20.11-12.32L11.93-12.32C5.58-12.32 2.31-6.88 3.11-1.50C3.22-0.81 3.69-0.32 4.66-0.32ZM38.40-11.67C39.01-11.61 39.29-12.09 39.18-12.68L38.24-17.19C38.12-17.78 37.66-18.06 37.13-17.77C36.67-17.52 36.28-17.16 35.99-16.71C34.98-15.23 35.41-13.15 36.90-12.20C37.32-11.91 37.85-11.72 38.40-11.67ZM12.70-13.62L20.31-13.62C21.16-13.62 21.87-14.32 21.87-15.18C21.87-16.03 21.16-16.73 20.31-16.73L12.70-16.73C11.84-16.73 11.14-16.03 11.14-15.18C11.14-14.32 11.84-13.62 12.70-13.62ZM36.22 0.29C37.45 0.29 38.44-0.68 38.44-1.91C38.44-2.74 38.02-3.45 37.36-3.82L36.82-5.91C38.77-5.61 40.27-3.96 40.27-1.91C40.27 0.34 38.45 2.16 36.21 2.16C33.96 2.16 32.17 0.35 32.17-1.91C32.17-3.27 32.84-4.48 33.87-5.20L34.37-3.15C34.15-2.80 34.01-2.39 34.01-1.92C34.00-0.68 34.97 0.29 36.22 0.29ZM13.09 2.16C11.40 2.16 9.97 1.14 9.36-0.32L16.83-0.32C16.21 1.14 14.77 2.16 13.09 2.16Z" fill="currentColor"/>
</svg>