<svg xmlns="http://www.w3.org/2000/svg" viewBox="0 0 24 24" width="24" height="24">
  
  <path transform="matrix(0.7174489883845023, 0, 0, 0.7174489883845023, 0.2845868876830291, 18.392276527005336)" d="M2.59 0.45C2.05 1.70 2.64 2.75 4.00 2.91L8.91 3.49C10.80 3.73 11.86 2.30 10.91 0.66L10.44-0.18L16.32-3.14L22.22-0.18L21.74 0.66C20.80 2.30 21.86 3.73 23.75 3.49L28.66 2.91C30.01 2.75 30.61 1.70 30.07 0.45L28.11-4.10C27.38-5.82 25.58-6.02 24.66-4.42L24.09-3.43L18.22-6.40L18.22-13.38L19.23-13.38C21.12-13.38 21.86-14.99 20.70-16.55L17.74-20.51C16.91-21.62 15.71-21.61 14.89-20.50L11.94-16.56C10.82-15.04 11.53-13.38 13.39-13.38L14.44-13.38L14.44-6.40L8.57-3.43L7.99-4.42C7.08-6.02 5.29-5.82 4.55-4.10Z" fill="currentColor"/>
</svg>