<svg xmlns="http://www.w3.org/2000/svg" viewBox="0 0 24 24" width="24" height="24">
  
  <path transform="matrix(0.6589446589446589, 0, 0, 0.6589446589446589, 0.6177606177606179, 17.598277121495073)" d="M2.10-6.01C2.10-2.26 3.45 1.16 5.70 3.81C6.05 4.21 6.62 4.22 7.01 3.83L9.97 0.84C10.30 0.52 10.30 0.06 10.02-0.32C8.78-1.88 8.04-3.87 8.04-6.01C8.04-10.65 11.46-14.48 15.90-15.15C16.36-15.22 16.68-15.55 16.68-16.01L16.68-20.21C16.68-20.77 16.25-21.18 15.70-21.12C8.07-20.32 2.10-13.86 2.10-6.01ZM32.45-6.01C32.45-13.86 26.48-20.32 18.84-21.12C18.29-21.18 17.87-20.77 17.87-20.21L17.87-16.01C17.87-15.55 18.20-15.22 18.64-15.15C23.10-14.48 26.51-10.65 26.51-6.01C26.51-3.87 25.78-1.88 24.52-0.30C24.23 0.07 24.23 0.53 24.56 0.86L27.54 3.84C27.91 4.24 28.49 4.22 28.84 3.82C31.10 1.16 32.45-2.26 32.45-6.01ZM12.30-6.22C12.30-6.06 12.45-5.92 12.60-5.92L13.34-5.92L13.34-2.36C13.34-1.57 13.75-1.11 14.53-1.11C15.32-1.11 15.73-1.57 15.73-2.36L15.73-5.92L16.29-5.92L17.64-2.37C17.93-1.58 18.48-1.11 19.37-1.11C20.32-1.11 21.05-1.68 21.05-2.70L21.05-5.92L21.91-5.92C22.07-5.92 22.21-6.06 22.21-6.22C22.21-6.38 22.07-6.52 21.91-6.52L21.05-6.52L21.05-10.02C21.05-10.79 20.65-11.25 19.86-11.25C19.08-11.25 18.67-10.82 18.67-10.02L18.67-6.52L18.07-6.52L16.75-10.01C16.48-10.75 15.94-11.25 15.01-11.25C14.10-11.25 13.34-10.71 13.34-9.68L13.34-6.52L12.60-6.52C12.45-6.52 12.30-6.38 12.30-6.22ZM15.73-7.29L15.77-7.29L16.07-6.52L15.73-6.52ZM18.62-5.06L18.29-5.92L18.67-5.92L18.67-5.06Z" fill="currentColor"/>
</svg>