<svg xmlns="http://www.w3.org/2000/svg" viewBox="0 0 24 24" width="24" height="24">
  <title>nosign.app</title>
  <path transform="matrix(0.8689748811948405, 0, 0, 0.8689748811948405, -0.5763747454175152, 19.372708757637476)" d="M9.56 3.02L19.39 3.02C21.45 3.02 23.09 2.40 24.20 1.27C25.34 0.15 25.96-1.50 25.96-3.54L25.96-13.42C25.96-15.47 25.34-17.11 24.20-18.23C23.09-19.36 21.45-19.99 19.39-19.99L9.56-19.99C7.51-19.99 5.86-19.36 4.75-18.23C3.61-17.11 2.99-15.47 2.99-13.42L2.99-3.54C2.99-1.50 3.61 0.15 4.75 1.27C5.86 2.40 7.51 3.02 9.56 3.02ZM9.94-1.14C8.87-1.14 8.17-1.29 7.73-1.72C7.30-2.14 7.15-2.84 7.15-3.93L7.15-13.04C7.15-14.12 7.30-14.81 7.73-15.25C8.16-15.67 8.87-15.83 9.94-15.83L19.01-15.83C20.09-15.83 20.79-15.67 21.21-15.25C21.64-14.81 21.80-14.12 21.80-13.04L21.80-3.93C21.80-2.84 21.64-2.14 21.21-1.72C20.79-1.29 20.09-1.14 19.01-1.14ZM14.48-2.73C17.65-2.73 20.23-5.31 20.23-8.47C20.23-11.65 17.65-14.23 14.48-14.23C11.31-14.23 8.73-11.65 8.73-8.47C8.73-5.31 11.31-2.73 14.48-2.73ZM14.48-11.39C16.09-11.39 17.39-10.09 17.39-8.47C17.39-8.17 17.34-7.88 17.26-7.61L13.61-11.25C13.88-11.34 14.18-11.39 14.48-11.39ZM14.48-5.57C12.87-5.57 11.58-6.87 11.58-8.47C11.58-8.80 11.63-9.11 11.72-9.40L15.41-5.72C15.12-5.61 14.81-5.57 14.48-5.57Z" fill="currentColor"/>
</svg>