<svg xmlns="http://www.w3.org/2000/svg" viewBox="0 0 24 24" width="24" height="24">
  
  <path transform="matrix(0.7810831426392068, 0, 0, 0.7810831426392068, 0.3615560640732265, 18.608695652173914)" d="M14.89 4.34C21.97 4.34 27.70-1.39 27.70-8.46C27.70-15.53 21.97-21.26 14.89-21.26C7.83-21.26 2.10-15.53 2.10-8.46C2.10-1.39 7.83 4.34 14.89 4.34ZM11.85-2.59C10.92-2.59 10.38-3.25 10.57-4.15L10.79-5.24L10.58-5.24C9.88-5.24 9.39-5.74 9.39-6.49C9.39-7.38 10.01-7.99 10.92-7.99L11.33-7.99L11.54-9.06L11.29-9.06C10.58-9.06 10.10-9.56 10.10-10.31C10.10-11.21 10.72-11.82 11.63-11.82L12.04-11.82L12.25-12.97C12.41-13.88 12.95-14.30 13.83-14.30C14.72-14.30 15.32-13.59 15.15-12.74L14.96-11.82L16.02-11.82L16.23-12.97C16.38-13.88 16.93-14.30 17.82-14.30C18.69-14.30 19.30-13.59 19.13-12.74L18.96-11.82L19.20-11.82C19.91-11.82 20.40-11.33 20.40-10.56C20.40-9.68 19.78-9.06 18.86-9.06L18.46-9.06L18.26-7.99L18.47-7.99C19.20-7.99 19.68-7.51 19.68-6.75C19.68-5.87 19.04-5.24 18.14-5.24L17.70-5.24L17.44-3.96C17.26-3.04 16.71-2.59 15.81-2.59C14.88-2.59 14.36-3.23 14.52-4.14L14.72-5.24L13.71-5.24L13.45-3.91C13.27-3.01 12.75-2.59 11.85-2.59ZM13.91-7.56L15.53-7.56L15.86-9.33L14.25-9.33Z" fill="currentColor"/>
</svg>