<svg xmlns="http://www.w3.org/2000/svg" viewBox="0 0 24 24" width="24" height="24">
  <title>o.circle.fill</title>
  <path transform="matrix(0.7810831426392068, 0, 0, 0.7810831426392068, 0.3615560640732265, 18.608695652173914)" d="M14.89 4.34C21.97 4.34 27.70-1.39 27.70-8.46C27.70-15.53 21.97-21.26 14.89-21.26C7.83-21.26 2.10-15.53 2.10-8.46C2.10-1.39 7.83 4.34 14.89 4.34ZM14.89-2.67C11.67-2.67 9.22-4.77 9.22-8.45C9.22-12.13 11.67-14.21 14.89-14.21C18.12-14.21 20.57-12.13 20.57-8.45C20.57-4.77 18.12-2.67 14.89-2.67ZM14.89-5.99C15.76-5.99 16.45-6.76 16.45-8.45C16.45-10.14 15.76-10.91 14.89-10.91C14.03-10.91 13.34-10.14 13.34-8.45C13.34-6.76 14.03-5.99 14.89-5.99Z" fill="currentColor"/>
</svg>