<svg xmlns="http://www.w3.org/2000/svg" viewBox="0 0 24 24" width="24" height="24">
  <title>octagon</title>
  <path transform="matrix(0.7531626949102678, 0, 0, 0.7531626949102678, -0.2506619593998236, 18.372462488967344)" d="M12.55 4.23L19.98 4.23C21.62 4.23 22.92 3.60 23.92 2.44L28.30-2.68C29.30-3.86 29.54-4.58 29.54-6.13L29.54-10.79C29.54-12.34 29.09-12.90 28.02-14.24L23.92-19.36C22.96-20.55 21.62-21.15 19.98-21.15L12.55-21.15C10.91-21.15 9.61-20.52 8.63-19.36L4.24-14.24C3.23-13.07 2.99-12.34 2.99-10.79L2.99-6.13C2.99-4.58 3.23-3.86 4.24-2.68L8.63 2.44C9.61 3.60 10.91 4.23 12.55 4.23ZM12.83 0.20C11.96 0.20 11.50-0.07 11.04-0.61L7.73-4.42C7.29-4.95 7.16-5.38 7.16-6.26L7.16-10.68C7.16-11.55 7.29-11.99 7.73-12.50L11.04-16.31C11.50-16.85 11.96-17.12 12.83-17.12L19.71-17.12C20.57-17.12 21.04-16.85 21.49-16.31L24.80-12.50C25.25-11.99 25.37-11.55 25.37-10.68L25.37-6.26C25.37-5.38 25.25-4.95 24.80-4.42L21.49-0.61C21.04-0.07 20.57 0.20 19.71 0.20Z" fill="currentColor"/>
</svg>