<svg xmlns="http://www.w3.org/2000/svg" viewBox="0 0 24 24" width="24" height="24">
  
  <path transform="matrix(0.6923597025016903, 0, 0, 0.6923597025016903, -0.06896551724137945, 17.849898580121703)" d="M12.46 3.15L22.41 3.15C29.58 3.15 31.88 0.77 31.88-6.54L31.88-10.36C31.88-17.67 29.58-20.05 22.41-20.05L12.46-20.05C5.30-20.05 2.99-17.67 2.99-10.36L2.99-6.54C2.99 0.77 5.30 3.15 12.46 3.15ZM12.46-1.01C8.32-1.01 7.15-2.20 7.15-6.54L7.15-10.36C7.15-14.68 8.32-15.89 12.46-15.89L22.41-15.89C26.54-15.89 27.71-14.68 27.71-10.36L27.71-6.54C27.71-2.20 26.54-1.01 22.41-1.01ZM21.14-3.93C21.77-3.93 22.28-4.43 22.28-5.06L22.28-11.66C22.28-12.48 21.77-12.93 20.94-12.93C20.33-12.93 19.92-12.70 19.50-12.38L18.62-11.70C18.28-11.45 18.13-11.18 18.13-10.83C18.13-10.25 18.53-10.02 18.88-10.02C19.09-10.02 19.23-10.08 19.42-10.23L19.99-10.68L19.99-5.06C19.99-4.43 20.50-3.93 21.14-3.93ZM13.03-3.95C13.77-3.95 14.17-4.38 14.17-5.12L14.17-6.60L14.87-6.60C16.64-6.60 17.55-8.00 17.55-9.68C17.55-11.41 16.64-12.80 15.02-12.80L13.04-12.80C12.30-12.80 11.91-12.35 11.91-11.61L11.91-5.12C11.91-4.30 12.39-3.95 13.03-3.95ZM14.17-8.31L14.17-11.06L14.43-11.06C15.12-11.06 15.30-10.41 15.30-9.68C15.30-8.95 15.12-8.31 14.41-8.31Z" fill="currentColor"/>
</svg>