<svg xmlns="http://www.w3.org/2000/svg" viewBox="0 0 24 24" width="24" height="24">
  
  <path transform="matrix(0.6923597025016903, 0, 0, 0.6923597025016903, -0.06896551724137945, 17.849898580121703)" d="M12.46 3.15L22.41 3.15C29.58 3.15 31.88 0.77 31.88-6.54L31.88-10.36C31.88-17.67 29.58-20.05 22.41-20.05L12.46-20.05C5.30-20.05 2.99-17.67 2.99-10.36L2.99-6.54C2.99 0.77 5.30 3.15 12.46 3.15ZM12.46-1.01C8.32-1.01 7.15-2.20 7.15-6.54L7.15-10.36C7.15-14.68 8.32-15.89 12.46-15.89L22.41-15.89C26.54-15.89 27.71-14.68 27.71-10.36L27.71-6.54C27.71-2.20 26.54-1.01 22.41-1.01ZM18.86-4.10L22.41-4.10C23.03-4.10 23.25-4.52 23.25-4.97C23.25-5.41 23.03-5.84 22.41-5.84L20.44-5.84L20.44-5.93L21.62-7.34C22.48-8.36 23.12-9.19 23.12-10.44C23.12-12.12 21.96-13.04 20.39-13.04C18.98-13.04 17.81-12.04 17.81-10.80C17.81-10.24 18.14-9.82 18.73-9.82C19.17-9.82 19.55-10.04 19.71-10.59C19.82-10.99 19.98-11.34 20.38-11.34C20.86-11.34 21-10.89 21-10.38C21-9.59 20.47-8.82 19.79-7.97L18.40-6.21C17.95-5.65 17.82-5.34 17.82-4.98C17.82-4.42 18.19-4.10 18.86-4.10ZM12.49-3.95C13.24-3.95 13.64-4.38 13.64-5.12L13.64-6.60L14.33-6.60C16.10-6.60 17.02-8.00 17.02-9.68C17.02-11.41 16.11-12.80 14.50-12.80L12.52-12.80C11.78-12.80 11.37-12.35 11.37-11.61L11.37-5.12C11.37-4.30 11.86-3.95 12.49-3.95ZM13.64-8.31L13.64-11.06L13.89-11.06C14.58-11.06 14.77-10.41 14.77-9.68C14.77-8.95 14.59-8.31 13.88-8.31Z" fill="currentColor"/>
</svg>