<svg xmlns="http://www.w3.org/2000/svg" viewBox="0 0 24 24" width="24" height="24">
  
  <path transform="matrix(0.6923597025016903, 0, 0, 0.6923597025016903, -0.06896551724137945, 17.849898580121703)" d="M12.46 3.15L22.41 3.15C29.58 3.15 31.88 0.77 31.88-6.54L31.88-10.36C31.88-17.67 29.58-20.05 22.41-20.05L12.46-20.05C5.30-20.05 2.99-17.67 2.99-10.36L2.99-6.54C2.99 0.77 5.30 3.15 12.46 3.15ZM12.46-1.01C8.32-1.01 7.15-2.20 7.15-6.54L7.15-10.36C7.15-14.68 8.32-15.89 12.46-15.89L22.41-15.89C26.54-15.89 27.71-14.68 27.71-10.36L27.71-6.54C27.71-2.20 26.54-1.01 22.41-1.01ZM20.71-3.88C22.43-3.88 23.63-4.88 23.63-6.49C23.63-7.62 23.00-8.41 22.03-8.54L22.03-8.59C22.71-8.77 23.37-9.53 23.37-10.59C23.37-12.13 22.28-13.03 20.64-13.03C19.52-13.03 18.42-12.46 18.12-11.40C18.06-11.23 18.04-11.02 18.04-10.80C18.04-10.39 18.27-9.93 18.95-9.93C19.38-9.93 19.84-10.07 19.97-10.57C20.05-10.91 20.25-11.31 20.66-11.31C21.12-11.31 21.27-10.82 21.27-10.36C21.27-9.82 21.07-9.26 20.43-9.26L20.36-9.26C19.78-9.26 19.51-8.95 19.51-8.50C19.51-8.02 19.77-7.72 20.36-7.72L20.44-7.72C21.15-7.72 21.45-7.34 21.45-6.63C21.45-6.14 21.26-5.60 20.70-5.60C20.29-5.60 20.07-5.89 19.93-6.25C19.76-6.74 19.42-7.00 18.91-7.00C18.30-7.00 17.92-6.62 17.92-6.02C17.92-5.79 17.95-5.59 18.01-5.40C18.33-4.39 19.45-3.88 20.71-3.88ZM12.49-3.95C13.23-3.95 13.63-4.38 13.63-5.12L13.63-6.60L14.33-6.60C16.10-6.60 17.02-8.00 17.02-9.68C17.02-11.41 16.11-12.80 14.50-12.80L12.50-12.80C11.78-12.80 11.37-12.35 11.37-11.61L11.37-5.12C11.37-4.30 11.85-3.95 12.49-3.95ZM13.63-8.31L13.63-11.06L13.89-11.06C14.58-11.06 14.77-10.41 14.77-9.68C14.77-8.95 14.59-8.31 13.88-8.31Z" fill="currentColor"/>
</svg>