<svg xmlns="http://www.w3.org/2000/svg" viewBox="0 0 24 24" width="24" height="24">
  
  <path transform="matrix(0.5986932142308299, 0, 0, 0.5986932142308299, 4.166707339585294, 17.08004008493723)" d="M2.99-5.91C2.99-1.38 3.93 2.25 6.11 5.81C7.52 8.13 10.04 8.84 12.49 7.65L14.87 6.50C17.26 5.34 18.53 3.67 18.53 1.49C18.53 0.52 18.32 0.18 18.32-0.19C18.32-0.52 18.47-0.66 18.80-0.66L20.95-0.66C22.16-0.66 23.18-1.68 23.18-3.06L23.18-5.70C23.18-7.17 22.05-8.26 20.71-8.26L17.82-8.26C17.19-8.26 16.89-8.59 16.89-9.20C16.89-11.48 17.32-14.64 19.14-18.74C20.26-21.33 19.39-23.36 16.68-24.41L15.53-24.86C13.22-25.76 11.21-24.67 10.05-23.46C5.03-18.20 2.99-11.05 2.99-5.91ZM6.88-5.91C6.88-10.28 8.45-16.18 12.94-20.87C13.34-21.28 13.73-21.38 14.27-21.18L15.09-20.86C15.50-20.70 15.62-20.40 15.41-19.97C13.42-15.49 12.96-11.89 12.96-9.87C12.96-4.32 14.78-0.28 14.78 1.07C14.78 2.11 14.61 2.31 13.10 3.08L10.98 4.16C10.36 4.48 9.75 4.32 9.41 3.79C7.57 0.74 6.88-1.91 6.88-5.91Z" fill="currentColor"/>
</svg>