<svg xmlns="http://www.w3.org/2000/svg" viewBox="0 0 24 24" width="24" height="24">
  
  <path transform="matrix(0.7810831426392068, 0, 0, 0.7810831426392068, 0.3615560640732265, 18.608695652173914)" d="M14.89 4.34C21.97 4.34 27.70-1.39 27.70-8.46C27.70-15.53 21.97-21.26 14.89-21.26C7.83-21.26 2.10-15.53 2.10-8.46C2.10-1.39 7.83 4.34 14.89 4.34ZM14.89 0.16C10.13 0.16 6.27-3.69 6.27-8.46C6.27-13.23 10.13-17.09 14.89-17.09C19.66-17.09 23.53-13.23 23.53-8.46C23.53-3.69 19.66 0.16 14.89 0.16ZM10.25-3.16C11.68-1.75 13.89-1.68 15.40-3.19L19.46-7.25C19.78-7.57 19.77-8.07 19.45-8.38C19.16-8.66 18.68-8.66 18.38-8.37L14.34-4.32C13.42-3.40 12.18-3.45 11.36-4.27C10.55-5.07 10.49-6.32 11.44-7.24L17.04-12.83C17.52-13.30 18.27-13.50 18.77-12.98C19.30-12.45 19.10-11.72 18.62-11.24L13.02-5.64C12.88-5.50 12.80-5.52 12.71-5.61C12.64-5.67 12.61-5.79 12.74-5.93L16.61-9.81C16.93-10.14 16.95-10.57 16.63-10.89C16.32-11.18 15.88-11.18 15.56-10.86L11.67-6.95C10.96-6.25 11.00-5.16 11.64-4.51C12.33-3.82 13.35-3.83 14.06-4.55L19.69-10.21C20.88-11.39 20.87-12.97 19.80-14.04C18.73-15.12 17.12-15.14 15.94-13.95L10.30-8.29C8.79-6.76 8.86-4.57 10.25-3.16Z" fill="currentColor"/>
</svg>