<svg xmlns="http://www.w3.org/2000/svg" viewBox="0 0 24 24" width="24" height="24">
  <title>parkinglight.fill</title>
  <path transform="matrix(0.3973612727978269, 0, 0, 0.3973612727978269, 1.1664726426076835, 15.365916051848494)" d="M7.07-13.72C7.91-13.23 9-13.48 9.53-14.38C10.04-15.25 9.73-16.34 8.87-16.83L5.39-18.83C4.50-19.36 3.47-19.04 2.96-18.14C2.45-17.30 2.73-16.23 3.61-15.73ZM47.46-13.72L50.92-15.73C51.80-16.23 52.08-17.30 51.56-18.14C51.06-19.04 50.03-19.36 49.14-18.83L45.66-16.83C44.80-16.34 44.48-15.25 45-14.38C45.53-13.48 46.62-13.23 47.46-13.72ZM26.50-8.46C26.50-13.09 21.71-16.89 16.96-16.89L16.86-16.89C14.26-16.89 12.83-15.91 12.14-13.61C11.77-12.18 11.54-10.55 11.54-8.46C11.54-6.39 11.77-4.75 12.14-3.32C12.83-1.02 14.26-0.04 16.86-0.04L16.96-0.04C21.71-0.04 26.50-3.83 26.50-8.46ZM28.03-8.46C28.03-3.83 32.81-0.04 37.57-0.04L37.66-0.04C40.27-0.04 41.70-1.02 42.39-3.32C42.76-4.75 42.98-6.39 42.98-8.46C42.98-10.55 42.76-12.18 42.39-13.61C41.70-15.91 40.27-16.89 37.66-16.89L37.57-16.89C32.81-16.89 28.03-13.09 28.03-8.46ZM7.85-10.28L3.87-10.28C2.84-10.28 2.10-9.50 2.10-8.47C2.10-7.45 2.84-6.68 3.87-6.68L7.85-6.68C8.87-6.68 9.67-7.45 9.67-8.47C9.67-9.50 8.87-10.28 7.85-10.28ZM46.68-10.28C45.66-10.28 44.86-9.50 44.86-8.47C44.86-7.45 45.66-6.68 46.68-6.68L50.66-6.68C51.69-6.68 52.43-7.45 52.43-8.47C52.43-9.50 51.69-10.28 50.66-10.28ZM7.07-3.22L3.61-1.23C2.72-0.71 2.45 0.34 2.96 1.21C3.47 2.10 4.50 2.41 5.39 1.90L8.87-0.11C9.73-0.60 10.04-1.69 9.53-2.55C9-3.47 7.91-3.71 7.07-3.22ZM47.46-3.22C46.62-3.71 45.53-3.47 45-2.55C44.48-1.69 44.80-0.60 45.66-0.11L49.14 1.90C50.03 2.41 51.06 2.10 51.56 1.21C52.08 0.34 51.81-0.71 50.92-1.23Z" fill="currentColor"/>
</svg>