<svg xmlns="http://www.w3.org/2000/svg" viewBox="0 0 24 24" width="24" height="24">
  
  <path transform="matrix(0.7810831426392068, 0, 0, 0.7810831426392068, 0.3615560640732265, 18.608695652173914)" d="M14.89 4.34C21.97 4.34 27.70-1.39 27.70-8.46C27.70-15.53 21.97-21.26 14.89-21.26C7.83-21.26 2.10-15.53 2.10-8.46C2.10-1.39 7.83 4.34 14.89 4.34ZM14.89 0.16C10.13 0.16 6.27-3.69 6.27-8.46C6.27-13.23 10.13-17.09 14.89-17.09C19.66-17.09 23.53-13.23 23.53-8.46C23.53-3.69 19.66 0.16 14.89 0.16ZM11.86-12.20C11.86-11.14 12.47-10.28 13.24-10.28C14.02-10.28 14.64-11.14 14.64-12.20C14.64-13.25 14.02-14.11 13.24-14.11C12.46-14.11 11.86-13.25 11.86-12.20ZM15.16-12.20C15.16-11.14 15.77-10.28 16.56-10.28C17.32-10.28 17.94-11.14 17.94-12.20C17.94-13.25 17.33-14.11 16.56-14.11C15.77-14.11 15.16-13.25 15.16-12.20ZM9.36-9.22C9.36-8.14 9.98-7.29 10.75-7.29C11.52-7.29 12.14-8.14 12.14-9.22C12.14-10.27 11.52-11.12 10.75-11.12C9.98-11.12 9.36-10.27 9.36-9.22ZM17.65-9.22C17.65-8.14 18.27-7.29 19.05-7.29C19.82-7.29 20.43-8.14 20.43-9.22C20.43-10.27 19.82-11.12 19.05-11.12C18.27-11.12 17.65-10.27 17.65-9.22ZM11.04-5.34C11.04-4.21 11.79-3.41 12.88-3.41C13.39-3.41 13.79-3.55 14.11-3.66C14.37-3.75 14.60-3.82 14.89-3.82C15.19-3.82 15.42-3.75 15.68-3.66C16.01-3.55 16.39-3.41 16.91-3.41C18-3.41 18.75-4.21 18.75-5.34C18.75-6.25 18.21-6.73 17.72-7.11C17.46-7.32 17.21-7.52 17.05-7.77C16.92-7.96 16.82-8.18 16.68-8.45C16.32-9.20 16.03-9.97 14.89-9.97C13.77-9.97 13.46-9.20 13.11-8.45C12.98-8.18 12.88-7.96 12.75-7.77C12.57-7.52 12.33-7.32 12.07-7.11C11.58-6.73 11.04-6.25 11.04-5.34Z" fill="currentColor"/>
</svg>