<svg xmlns="http://www.w3.org/2000/svg" viewBox="0 0 24 24" width="24" height="24">
  
  <path transform="matrix(0.43075887598855794, 0, 0, 0.43075887598855794, 0.7127713276123171, 15.642099949520444)" d="M26.19-8.23C29.23-8.23 31.62-10.80 31.62-14.06C31.62-17.21 29.18-19.83 26.19-19.83C23.21-19.83 20.77-17.21 20.78-14.06C20.79-10.80 23.17-8.23 26.19-8.23ZM12.27-7.99C14.93-7.99 17.04-10.28 17.04-13.14C17.04-15.91 14.87-18.21 12.27-18.21C9.64-18.21 7.48-15.89 7.49-13.14C7.50-10.25 9.61-7.99 12.27-7.99ZM40.14-7.99C42.80-7.99 44.91-10.25 44.92-13.14C44.93-15.89 42.76-18.21 40.14-18.21C37.54-18.21 35.37-15.91 35.37-13.14C35.37-10.28 37.49-7.99 40.14-7.99ZM26.19-11.41C24.98-11.41 23.98-12.53 23.98-14.07C23.96-15.49 25.02-16.64 26.19-16.64C27.39-16.64 28.42-15.49 28.42-14.06C28.42-12.55 27.42-11.41 26.19-11.41ZM12.27-11.12C11.38-11.12 10.63-11.96 10.63-13.14C10.61-14.20 11.40-15.08 12.27-15.08C13.13-15.08 13.91-14.20 13.91-13.14C13.91-11.96 13.17-11.12 12.27-11.12ZM40.14-11.12C39.23-11.12 38.50-11.96 38.50-13.14C38.50-14.20 39.29-15.08 40.14-15.08C41.00-15.08 41.80-14.20 41.79-13.14C41.79-11.96 41.03-11.12 40.14-11.12ZM19.14 2.89L33.26 2.89C35.60 2.89 36.80 2.04 36.80 0.27C36.80-3.55 32.18-7.25 26.19-7.25C20.21-7.25 15.60-3.55 15.60 0.27C15.60 2.04 16.79 2.89 19.14 2.89ZM6.11 2.92L14.80 2.92C13.83 2.30 13.38 0.84 13.50-0.23L6.73-0.23C6.57-0.23 6.55-0.33 6.55-0.41C6.55-2.17 9.02-4.13 12.27-4.13C12.89-4.13 14.16-3.90 14.67-3.75C15.14-4.75 15.88-5.57 17.00-6.22C15.64-6.82 13.64-7.24 12.27-7.24C7.14-7.24 2.99-3.77 2.99 0.11C2.99 1.90 4.02 2.92 6.11 2.92ZM46.30 2.92C48.39 2.92 49.42 1.90 49.42 0.11C49.42-3.77 45.27-7.24 40.14-7.24C38.77-7.24 36.76-6.82 35.40-6.22C36.53-5.57 37.27-4.75 37.75-3.75C38.25-3.90 39.52-4.13 40.14-4.13C43.38-4.13 45.87-2.17 45.87-0.41C45.87-0.33 45.83-0.23 45.68-0.23L38.92-0.23C39.02 0.84 38.58 2.30 37.61 2.92ZM19.54-0.29C19.38-0.29 19.35-0.39 19.35-0.48C19.35-1.70 21.91-4.05 26.19-4.05C30.48-4.05 33.05-1.70 33.05-0.48C33.05-0.39 33.01-0.29 32.86-0.29Z" fill="currentColor"/>
</svg>