<svg xmlns="http://www.w3.org/2000/svg" viewBox="0 0 24 24" width="24" height="24">
  <title>person.crop.rectangle.stack.fill</title>
  <path transform="matrix(0.6829398426037081, 0, 0, 0.6829398426037081, 1.167667066826732, 17.782312925170068)" d="M8.31-21.13L23.41-21.13C23.30-22.38 22.44-23.11 21.13-23.11L10.58-23.11C9.27-23.11 8.43-22.38 8.31-21.13ZM6.05-17.14L25.68-17.14C25.55-18.46 24.76-19.29 23.19-19.29L8.53-19.29C6.96-19.29 6.18-18.46 6.05-17.14ZM7.58 6.18L24.13 6.18C27.04 6.18 28.73 4.48 28.73 1.58L28.73-10.55C28.73-13.45 27.04-15.14 24.13-15.14L7.58-15.14C4.69-15.14 2.99-13.45 2.99-10.55L2.99 1.58C2.99 4.48 4.69 6.18 7.58 6.18ZM15.94-2.60C13.92-2.60 12.41-4.31 12.41-6.45C12.41-8.47 13.97-10.23 15.94-10.23C17.93-10.23 19.46-8.47 19.46-6.45C19.46-4.31 17.96-2.60 15.94-2.60ZM9.88 2.10C10.80 0.02 13.17-1.34 15.94-1.34C18.70-1.34 21.07 0.02 22.01 2.10Z" fill="currentColor"/>
</svg>