<svg xmlns="http://www.w3.org/2000/svg" viewBox="0 0 24 24" width="24" height="24">
  
  <path transform="matrix(0.6589446589446589, 0, 0, 0.6589446589446589, 0.6177606177606179, 17.598277121495073)" d="M2.10-6.01C2.10-2.26 3.45 1.16 5.70 3.81C6.05 4.21 6.62 4.22 7.01 3.83L9.97 0.84C10.30 0.52 10.30 0.06 10.02-0.32C8.78-1.88 8.04-3.87 8.04-6.01C8.04-10.65 11.46-14.48 15.90-15.15C16.36-15.22 16.68-15.55 16.68-16.01L16.68-20.21C16.68-20.77 16.25-21.18 15.70-21.12C8.07-20.32 2.10-13.86 2.10-6.01ZM32.45-6.01C32.45-13.86 26.48-20.32 18.84-21.12C18.29-21.18 17.87-20.77 17.87-20.21L17.87-16.01C17.87-15.55 18.20-15.22 18.64-15.15C23.10-14.48 26.51-10.65 26.51-6.01C26.51-3.87 25.78-1.88 24.52-0.30C24.23 0.07 24.23 0.53 24.56 0.86L27.54 3.84C27.91 4.24 28.49 4.22 28.84 3.82C31.10 1.16 32.45-2.26 32.45-6.01ZM12.80-7.37C12.80-7.20 12.93-7.08 13.10-7.08L13.70-7.08L13.70-2.48C13.70-1.62 14.23-1.09 15.08-1.09C15.91-1.09 16.44-1.62 16.44-2.48L16.44-3.53L17.89-3.53C20.10-3.53 21.45-5.03 21.57-7.08L22.24-7.08C22.41-7.08 22.54-7.20 22.54-7.37C22.54-7.52 22.41-7.65 22.24-7.65L21.57-7.65C21.46-9.61 20.18-11.09 18.09-11.09L15.18-11.09C14.23-11.09 13.70-10.55 13.70-9.61L13.70-7.65L13.10-7.65C12.93-7.65 12.80-7.52 12.80-7.37ZM16.44-9.12L17.34-9.12C18.21-9.12 18.71-8.55 18.80-7.65L16.44-7.65ZM16.44-5.45L16.44-7.08L18.80-7.08C18.71-6.11 18.21-5.45 17.32-5.45Z" fill="currentColor"/>
</svg>