<svg xmlns="http://www.w3.org/2000/svg" viewBox="0 0 24 24" width="24" height="24">
  
  <path transform="matrix(0.7258070703915416, 0, 0, 0.7258070703915416, 1.9013815546654762, 18.141008259640934)" d="M1.15-11.25C0.12-11.25-0.13-10.23 0.42-9.54L3.59-5.51C3.94-5.05 4.63-5.05 4.99-5.51L8.14-9.54C8.68-10.23 8.44-11.25 7.43-11.25L6.73-11.25C7.89-14.66 11.11-17.09 14.89-17.09C19.66-17.09 23.52-13.23 23.52-8.46C23.52-3.69 19.66 0.16 14.89 0.16C12.60 0.16 10.69-0.66 9-2.18C8.02-3.04 6.77-3.33 5.84-2.40C5.00-1.59 4.96-0.29 6.05 0.76C8.46 3.14 11.75 4.34 14.89 4.34C21.95 4.34 27.69-1.39 27.69-8.46C27.69-15.53 21.95-21.26 14.89-21.26C8.79-21.26 3.68-16.99 2.40-11.25ZM12.75-3.40C13.59-3.40 14.12-3.94 14.12-4.79L14.12-5.81L15.57-5.81C17.50-5.81 18.76-6.96 19.14-8.60L19.85-8.60C20.02-8.60 20.14-8.73 20.14-8.89C20.14-9.07 20.02-9.20 19.85-9.20L19.23-9.20C19.25-9.35 19.25-9.52 19.25-9.68C19.25-9.81 19.25-9.94 19.24-10.07L19.85-10.07C20.02-10.07 20.14-10.18 20.14-10.36C20.14-10.51 20.02-10.64 19.85-10.64L19.16-10.64C18.82-12.23 17.61-13.39 15.77-13.39L12.86-13.39C11.95-13.39 11.38-12.82 11.38-11.92L11.38-10.64L10.70-10.64C10.52-10.64 10.39-10.51 10.39-10.36C10.39-10.18 10.52-10.07 10.70-10.07L11.38-10.07L11.38-9.20L10.70-9.20C10.52-9.20 10.39-9.07 10.39-8.89C10.39-8.73 10.52-8.60 10.70-8.60L11.38-8.60L11.38-4.79C11.38-3.94 11.91-3.40 12.75-3.40ZM14.12-11.43L15.02-11.43C15.64-11.43 16.08-11.13 16.30-10.64L14.12-10.64ZM16.49-9.67C16.49-9.50 16.48-9.34 16.46-9.20L14.12-9.20L14.12-10.07L16.46-10.07C16.49-9.94 16.49-9.81 16.49-9.67ZM14.12-7.73L14.12-8.60L16.30-8.60C16.07-8.06 15.63-7.73 15-7.73Z" fill="currentColor"/>
</svg>