<svg xmlns="http://www.w3.org/2000/svg" viewBox="0 0 24 24" width="24" height="24">
  
  <path transform="matrix(0.659708800412318, 0, 0, 0.659708800412318, 0.028604561267877804, 17.581754928488596)" d="M7.54 4.55L28.77 4.55C31.65 4.55 33.30 2.89 33.30 0.01L33.30-8.20C33.30-13.21 30.40-16.31 25.71-16.31L25.17-16.31L25.17-17.47C25.17-19.96 23.24-21.47 20.16-21.47L16.14-21.47C13.07-21.47 11.13-19.96 11.13-17.47L11.13-16.31L10.59-16.31C5.91-16.31 2.99-13.21 2.99-8.20L2.99 0.01C2.99 2.89 4.64 4.55 7.54 4.55ZM14.65-16.31L14.65-16.89C14.65-17.80 15.23-18.38 16.14-18.38L20.16-18.38C21.07-18.38 21.64-17.80 21.64-16.89L21.64-16.31ZM7.91 0.80C7.42 0.80 7.15 0.53 7.15 0.04L7.15-8.21C7.15-10.90 8.60-12.56 10.97-12.56L25.32-12.56C27.69-12.56 29.14-10.90 29.14-8.21L29.14 0.04C29.14 0.53 28.88 0.80 28.39 0.80ZM15.27-9.13C15.27-8.13 15.86-7.32 16.58-7.32C17.32-7.32 17.89-8.13 17.89-9.13C17.89-10.14 17.32-10.95 16.58-10.95C15.84-10.95 15.27-10.14 15.27-9.13ZM18.40-9.13C18.40-8.13 18.97-7.32 19.71-7.32C20.44-7.32 21.02-8.13 21.02-9.13C21.02-10.14 20.45-10.95 19.71-10.95C18.97-10.95 18.40-10.14 18.40-9.13ZM12.91-6.32C12.91-5.31 13.50-4.50 14.23-4.50C14.95-4.50 15.54-5.31 15.54-6.32C15.54-7.30 14.95-8.12 14.23-8.12C13.50-8.12 12.91-7.30 12.91-6.32ZM20.75-6.32C20.75-5.31 21.33-4.50 22.07-4.50C22.79-4.50 23.38-5.31 23.38-6.32C23.38-7.30 22.79-8.12 22.07-8.12C21.33-8.12 20.75-7.30 20.75-6.32ZM14.50-2.66C14.50-1.59 15.21-0.83 16.24-0.83C16.72-0.83 17.10-0.96 17.40-1.07C17.65-1.15 17.87-1.22 18.14-1.22C18.42-1.22 18.64-1.15 18.89-1.07C19.20-0.96 19.56-0.83 20.05-0.83C21.08-0.83 21.79-1.59 21.79-2.66C21.79-3.52 21.28-3.97 20.81-4.34C20.57-4.54 20.34-4.72 20.18-4.96C20.06-5.13 19.96-5.34 19.83-5.59C19.50-6.30 19.22-7.04 18.14-7.04C17.07-7.04 16.79-6.30 16.46-5.59C16.34-5.34 16.23-5.13 16.11-4.96C15.95-4.72 15.71-4.54 15.47-4.34C15.01-3.97 14.50-3.52 14.50-2.66Z" fill="currentColor"/>
</svg>