<svg xmlns="http://www.w3.org/2000/svg" viewBox="0 0 24 24" width="24" height="24">
  
  <path transform="matrix(0.7810831426392068, 0, 0, 0.7810831426392068, 0.3615560640732265, 18.608695652173914)" d="M14.89 4.34C21.97 4.34 27.70-1.39 27.70-8.46C27.70-15.53 21.97-21.26 14.89-21.26C7.83-21.26 2.10-15.53 2.10-8.46C2.10-1.39 7.83 4.34 14.89 4.34ZM10.44-3.02C9.09-3.02 8.30-3.82 8.30-5.16L8.30-11.71C8.30-13.05 9.09-13.85 10.44-13.85L19.35-13.85C20.71-13.85 21.48-13.05 21.48-11.71L21.48-5.16C21.48-3.82 20.71-3.02 19.35-3.02ZM13.27-8.46C14.05-8.46 14.68-9.09 14.68-9.87C14.68-10.64 14.05-11.29 13.27-11.29C12.49-11.29 11.86-10.64 11.86-9.87C11.86-9.09 12.49-8.46 13.27-8.46ZM10.82-4.97L18.97-4.97C19.28-4.97 19.55-5.19 19.55-5.55L19.55-6.88L17.73-8.55C17.51-8.77 17.21-8.87 16.93-8.87C16.64-8.87 16.37-8.78 16.11-8.55L13.66-6.36L12.64-7.25C12.42-7.45 12.16-7.56 11.91-7.56C11.63-7.56 11.44-7.46 11.20-7.25L10.25-6.42L10.25-5.55C10.25-5.19 10.46-4.97 10.82-4.97Z" fill="currentColor"/>
</svg>