<svg xmlns="http://www.w3.org/2000/svg" viewBox="0 0 24 24" width="24" height="24">
  
  <path transform="matrix(0.7810831426392068, 0, 0, 0.7810831426392068, 0.3615560640732265, 18.599542334096114)" d="M14.89 4.35C21.97 4.35 27.70-1.38 27.70-8.45C27.70-15.52 21.97-21.25 14.89-21.25C7.83-21.25 2.10-15.52 2.10-8.45C2.10-1.38 7.83 4.35 14.89 4.35ZM19.49-13.03C20.82-11.73 20.82-9.83 19.44-8.45L17.55-6.56L13.03-11.09L14.87-12.96C16.29-14.40 18.15-14.38 19.49-13.03ZM10.29-3.81C8.94-5.14 8.96-7.01 10.35-8.41L12.22-10.29L16.75-5.77L14.91-3.90C13.48-2.48 11.60-2.48 10.29-3.81Z" fill="currentColor"/>
</svg>