<svg xmlns="http://www.w3.org/2000/svg" viewBox="0 0 24 24" width="24" height="24">
  <title>pip.enter</title>
  <path transform="matrix(0.6019988242210464, 0, 0, 0.6019988242210464, 0.20105820105820116, 17.08289241622575)" d="M7.58-0.80L13.97-0.80L13.97 0.84C13.97 3.74 15.67 5.44 18.57 5.44L31.61 5.44C34.51 5.44 36.21 3.74 36.21 0.84L36.21-7.85C36.21-10.75 34.51-12.45 31.61-12.45L29.68-12.45L29.68-17.73C29.68-20.64 27.98-22.32 25.08-22.32L7.58-22.32C4.69-22.32 2.99-20.64 2.99-17.73L2.99-5.39C2.99-2.50 4.69-0.80 7.58-0.80ZM8.21-4.96C7.50-4.96 7.15-5.25 7.15-6.04L7.15-17.10C7.15-17.87 7.50-18.16 8.21-18.16L24.45-18.16C25.16-18.16 25.51-17.87 25.51-17.10L25.51-12.45L18.57-12.45C15.67-12.45 13.97-10.75 13.97-7.85L13.97-4.96ZM13.79-15.47C13.76-16.18 12.96-16.62 12.40-16.05L11.37-15.02L10.13-16.28C9.71-16.68 9.08-16.68 8.67-16.28C8.26-15.87 8.26-15.21 8.67-14.81L9.91-13.57L8.89-12.54C8.31-11.98 8.74-11.19 9.48-11.13L13.00-10.88C13.34-10.84 13.62-10.95 13.80-11.12C14.00-11.31 14.09-11.59 14.07-11.93Z" fill="currentColor"/>
</svg>