<svg xmlns="http://www.w3.org/2000/svg" viewBox="0 0 24 24" width="24" height="24">
  <title>platter.2.filled.ipad.landscape</title>
  <path transform="matrix(0.6788650225404402, 0, 0, 0.6788650225404402, -0.02863961813842497, 17.731901352426412)" d="M7.61 3.18L27.86 3.18C30.75 3.18 32.45 1.46 32.45-1.44L32.45-15.47C32.45-18.38 30.75-20.06 27.86-20.06L7.58-20.06C4.69-20.06 2.99-18.38 2.99-15.47L2.99-1.44C2.99 1.46 4.70 3.18 7.61 3.18ZM8.24-0.98C7.51-0.98 7.16-1.29 7.16-2.06L7.16-14.84C7.16-15.61 7.50-15.90 8.21-15.90L27.22-15.90C27.94-15.90 28.29-15.61 28.29-14.84L28.29-2.06C28.29-1.29 27.94-0.98 27.22-0.98ZM10.63-5.71L15.80-5.71C16.41-5.71 16.83-6.13 16.83-6.77L16.83-10.13C16.83-10.77 16.41-11.19 15.80-11.19L10.63-11.19C10.02-11.19 9.60-10.77 9.60-10.13L9.60-6.77C9.60-6.13 10.02-5.71 10.63-5.71ZM19.73-5.71L24.89-5.71C25.50-5.71 25.92-6.13 25.92-6.77L25.92-10.13C25.92-10.77 25.50-11.19 24.89-11.19L19.73-11.19C19.11-11.19 18.69-10.77 18.69-10.13L18.69-6.77C18.69-6.13 19.11-5.71 19.73-5.71Z" fill="currentColor"/>
</svg>