<svg xmlns="http://www.w3.org/2000/svg" viewBox="0 0 24 24" width="24" height="24">
  <title>platter.filled.bottom.applewatch.case</title>
  <path transform="matrix(0.7775246772968869, 0, 0, 0.7775246772968869, 0.1867881548974939, 18.56492027334852)" d="M9.56 4.42L19.10 4.42C22.98 4.42 25.69 1.68 25.69-2.29L25.69-9.36L25.77-9.36C26.75-9.36 27.40-10.04 27.40-11.11L27.40-13.08C27.40-14.12 26.75-14.82 25.77-14.82L25.68-14.82C25.58-18.66 22.91-21.30 19.10-21.30L9.56-21.30C5.70-21.30 2.99-18.55 2.99-14.60L2.99-2.29C2.99 1.68 5.70 4.42 9.56 4.42ZM9.56 0.68C7.78 0.68 6.75-0.42 6.75-2.29L6.75-14.61C6.75-16.46 7.78-17.55 9.56-17.55L19.11-17.55C20.88-17.55 21.93-16.46 21.93-14.61L21.93-2.29C21.93-0.42 20.88 0.68 19.11 0.68ZM8.02-2.24C8.02-1.21 8.58-0.60 9.53-0.60L19.13-0.60C20.07-0.60 20.65-1.21 20.65-2.24L20.65-4.52C20.65-5.55 20.07-6.18 19.13-6.18L9.53-6.18C8.59-6.18 8.02-5.55 8.02-4.52Z" fill="currentColor"/>
</svg>