<svg xmlns="http://www.w3.org/2000/svg" viewBox="0 0 24 24" width="24" height="24">
  <title>play</title>
  <path transform="matrix(0.8533333333333334, 0, 0, 0.8533333333333334, 0.49499999999999966, 19.220000000000002)" d="M2.99 0.46C2.99 2.29 4.16 3.26 5.57 3.26C6.14 3.26 6.77 3.09 7.36 2.75L22.07-5.81C23.24-6.49 23.98-7.27 23.98-8.46C23.98-9.66 23.24-10.43 22.07-11.12L7.36-19.68C6.77-20.03 6.14-20.18 5.57-20.18C4.16-20.18 2.99-19.22 2.99-17.38ZM7.17-2.40L7.17-14.52C7.17-14.82 7.43-15 7.70-14.84L18.22-8.78C18.36-8.71 18.43-8.58 18.43-8.46C18.43-8.34 18.36-8.24 18.22-8.14L7.70-2.09C7.43-1.93 7.17-2.10 7.17-2.40Z" fill="currentColor"/>
</svg>