<svg xmlns="http://www.w3.org/2000/svg" viewBox="0 0 24 24" width="24" height="24">
  
  <path transform="matrix(0.7810831426392068, 0, 0, 0.7810831426392068, 0.3615560640732265, 18.608695652173914)" d="M14.89 4.34C21.97 4.34 27.70-1.39 27.70-8.46C27.70-15.53 21.97-21.26 14.89-21.26C7.83-21.26 2.10-15.53 2.10-8.46C2.10-1.39 7.83 4.34 14.89 4.34ZM14.89 0.16C10.13 0.16 6.27-3.69 6.27-8.46C6.27-13.23 10.13-17.09 14.89-17.09C19.66-17.09 23.53-13.23 23.53-8.46C23.53-3.69 19.66 0.16 14.89 0.16ZM11.79-9.27L13.57-9.27L13.57-7.63C13.57-6.84 14.10-6.30 14.89-6.30C15.70-6.30 16.23-6.84 16.23-7.62L16.23-9.27L17.99-9.27C18.79-9.27 19.32-9.80 19.32-10.59C19.32-11.39 18.79-11.92 17.99-11.92L16.23-11.92L16.23-13.56C16.23-14.36 15.70-14.89 14.89-14.89C14.10-14.89 13.57-14.36 13.57-13.56L13.57-11.92L11.79-11.92C10.99-11.92 10.46-11.39 10.46-10.59C10.46-9.80 10.99-9.27 11.79-9.27ZM11.92-2.70L17.87-2.70C18.70-2.70 19.32-3.26 19.32-4.02C19.32-4.80 18.70-5.38 17.87-5.38L11.92-5.38C11.07-5.38 10.46-4.80 10.46-4.02C10.46-3.26 11.07-2.70 11.92-2.70Z" fill="currentColor"/>
</svg>