<svg xmlns="http://www.w3.org/2000/svg" viewBox="0 0 24 24" width="24" height="24">
  <title>plus.minus.capsule</title>
  <path transform="matrix(0.6267597013098298, 0, 0, 0.6267597013098298, 0.6852735952993023, 17.306647080426)" d="M2.10-8.46C2.10-1.35 6.96 3.39 14.24 3.39L21.87 3.39C29.14 3.39 34.01-1.35 34.01-8.46C34.01-15.57 29.14-20.32 21.87-20.32L14.24-20.32C6.96-20.32 2.10-15.57 2.10-8.46ZM6.26-8.46C6.26-13.16 9.35-16.15 14.24-16.15L21.87-16.15C26.75-16.15 29.85-13.16 29.85-8.46C29.85-3.76 26.75-0.77 21.87-0.77L14.24-0.77C9.35-0.77 6.26-3.76 6.26-8.46ZM11.09-7.17L12.06-7.17L12.06-6.21C12.06-5.50 12.62-4.92 13.32-4.92C14.04-4.92 14.61-5.50 14.61-6.21L14.61-7.17L15.61-7.17C16.30-7.17 16.88-7.76 16.88-8.46C16.88-9.18 16.30-9.74 15.61-9.74L14.61-9.74L14.61-10.73C14.61-11.44 14.04-12.01 13.34-12.01C12.63-12.01 12.06-11.44 12.06-10.73L12.06-9.74L11.09-9.74C10.37-9.74 9.80-9.18 9.80-8.46C9.80-7.76 10.37-7.17 11.09-7.17ZM24.39-7.17C25.09-7.17 25.66-7.76 25.66-8.46C25.66-9.18 25.09-9.74 24.39-9.74L20.80-9.74C20.11-9.74 19.54-9.18 19.54-8.46C19.54-7.76 20.11-7.17 20.80-7.17Z" fill="currentColor"/>
</svg>