<svg xmlns="http://www.w3.org/2000/svg" viewBox="0 0 24 24" width="24" height="24">
  
  <path transform="matrix(0.6316308906982482, 0, 0, 0.6316308906982482, 0.11250925240562548, 17.347890451517394)" d="M14.12-17.89L28.09-17.89L28.09-17.91C27.87-20.45 26.23-21.93 23.52-21.93L7.58-21.93C4.69-21.93 2.99-20.23 2.99-17.33L2.99-5.82C2.99-3.02 4.56-1.36 7.29-1.25L7.31-1.25L7.31-11.10C7.31-15.21 10.00-17.89 14.12-17.89ZM14.12 4.99L30.05 4.99C32.95 4.99 34.65 3.30 34.65 0.40L34.65-11.10C34.65-13.99 32.95-15.69 30.05-15.69L14.12-15.69C11.21-15.69 9.52-13.99 9.52-11.10L9.52 0.40C9.52 3.30 11.21 4.99 14.12 4.99ZM22.09 0.41C21.09 0.41 20.34-0.32 20.34-1.28L20.34-3.60L18.02-3.60C17.06-3.60 16.34-4.36 16.34-5.34C16.34-6.34 17.06-7.09 18.02-7.09L20.34-7.09L20.34-9.41C20.34-10.38 21.09-11.11 22.09-11.11C23.09-11.11 23.84-10.38 23.84-9.41L23.84-7.09L26.16-7.09C27.12-7.09 27.84-6.34 27.84-5.34C27.84-4.36 27.12-3.60 26.16-3.60L23.84-3.60L23.84-1.28C23.84-0.32 23.09 0.41 22.09 0.41Z" fill="currentColor"/>
</svg>