<svg xmlns="http://www.w3.org/2000/svg" viewBox="0 0 24 24" width="24" height="24">
  <title>pointer.arrow.slash.square.fill</title>
  <path transform="matrix(0.8606488485459741, 0, 0, 0.8606488485459741, -0.571860816944024, 19.286938981341404)" d="M7.58 3.15L21.63 3.15C24.53 3.15 26.23 1.46 26.23-1.44L26.23-15.49C26.23-18.39 24.53-20.09 21.63-20.09L7.58-20.09C4.69-20.09 2.99-18.39 2.99-15.49L2.99-1.44C2.99 1.46 4.69 3.15 7.58 3.15ZM18.33-7.31L11.51-14.11L11.51-14.27C11.51-14.96 12.25-15.26 12.74-14.77L18.90-8.60C19.41-8.10 19.09-7.32 18.42-7.31ZM19.03-3.01L9.29-12.73C8.98-13.05 8.98-13.58 9.29-13.90C9.62-14.21 10.16-14.21 10.49-13.90L20.20-4.18C20.52-3.86 20.52-3.34 20.20-3.01C19.88-2.70 19.35-2.71 19.03-3.01ZM17.09-2.26C16.35-1.96 15.48-2.32 15.19-3.04L13.86-6.39L12.68-5.06C12.18-4.50 11.32-4.80 11.34-5.58L11.41-9.35L17.79-2.98L17.79-2.96C17.67-2.67 17.41-2.40 17.09-2.26Z" fill="currentColor"/>
</svg>