<svg xmlns="http://www.w3.org/2000/svg" viewBox="0 0 24 24" width="24" height="24">
  
  <path transform="matrix(0.8606488485459741, 0, 0, 0.8606488485459741, -0.571860816944024, 19.286938981341404)" d="M7.58 3.15L21.63 3.15C24.53 3.15 26.23 1.46 26.23-1.44L26.23-15.49C26.23-18.39 24.53-20.09 21.63-20.09L7.58-20.09C4.69-20.09 2.99-18.39 2.99-15.49L2.99-1.44C2.99 1.46 4.69 3.15 7.58 3.15ZM17.21-1.79C16.42-1.46 15.48-1.85 15.18-2.63L13.76-6.22L12.48-4.80C11.94-4.21 11.03-4.51 11.04-5.36L11.23-14.70C11.24-15.43 12.02-15.75 12.55-15.21L19.17-8.60C19.73-8.03 19.35-7.17 18.55-7.22L16.55-7.30L18.07-3.83C18.41-3.02 18.01-2.13 17.21-1.79Z" fill="currentColor"/>
</svg>