<svg xmlns="http://www.w3.org/2000/svg" viewBox="0 0 24 24" width="24" height="24">
  
  <path transform="matrix(0.6653671215074723, 0, 0, 0.6653671215074723, 0.011695906432748648, 17.629629629629626)" d="M5.55 2.10L30.84 2.10L30.84 0.79C30.84 0.08 30.40-0.34 29.71-0.34L29.34-0.34L29.34-13.21L30.26-13.21C31.31-13.21 31.95-14.02 31.95-14.80C31.95-15.38 31.62-15.91 30.95-16.31L20.05-22.59C19.49-22.92 18.82-23.12 18.20-23.12C17.58-23.12 16.91-22.92 16.35-22.59L5.45-16.31C4.78-15.91 4.45-15.38 4.45-14.80C4.45-14.02 5.09-13.21 6.15-13.21L7.05-13.21L7.05-0.34L6.69-0.34C6-0.34 5.55 0.08 5.55 0.79ZM9.82-0.34L9.82-15.09L18.01-19.66C18.08-19.70 18.15-19.71 18.20-19.71C18.27-19.71 18.32-19.70 18.39-19.66L26.58-15.09L26.58-0.34ZM21.20-4.32C21.91-4.32 22.35-4.79 22.35-5.54L22.35-9.49L22.73-9.68C23.02-9.83 23.11-10.03 23.11-10.23C23.11-10.58 22.77-10.91 22.35-10.75L22.35-12.39C22.35-13.15 21.91-13.61 21.20-13.61C20.50-13.61 20.05-13.15 20.05-12.39L20.05-9.55L19.58-9.30C19.34-9.19 19.21-8.96 19.21-8.77C19.21-8.40 19.56-8.09 20.05-8.30L20.05-5.54C20.05-4.79 20.50-4.32 21.20-4.32ZM14.33-4.49L17.93-4.49C18.47-4.49 18.80-4.80 18.80-5.32C18.80-5.82 18.47-6.15 17.93-6.15L16.57-6.15L16.57-6.30L18.40-9.27C18.61-9.59 18.69-9.74 18.69-10.09C18.69-10.66 18.32-11.04 17.72-11.04L14.36-11.04C13.82-11.04 13.46-10.70 13.46-10.20C13.46-9.67 13.82-9.35 14.36-9.35L15.95-9.35L15.95-9.19L13.73-6.04C13.54-5.74 13.46-5.60 13.46-5.31C13.46-4.85 13.78-4.49 14.33-4.49ZM4.59 6.20L31.43 6.20C32.29 6.20 33.05 5.50 33.05 4.59C33.05 3.73 32.29 2.99 31.43 2.99L4.59 2.99C3.73 2.99 2.99 3.73 2.99 4.59C2.99 5.48 3.73 6.20 4.59 6.20Z" fill="currentColor"/>
</svg>