<svg xmlns="http://www.w3.org/2000/svg" viewBox="0 0 24 24" width="24" height="24">
  
  <path transform="matrix(0.7436456063907044, 0, 0, 0.7436456063907044, 0.4400871459694988, 18.291938997821347)" d="M15.54 4.98C22.96 4.98 28.99-1.04 28.99-8.46C28.99-15.88 22.96-21.90 15.54-21.90C8.12-21.90 2.10-15.88 2.10-8.46C2.10-1.04 8.12 4.98 15.54 4.98ZM15.54 0.08C10.82 0.08 7.00-3.74 7.00-8.46C7.00-13.18 10.82-17.00 15.54-17.00C20.26-17.00 24.09-13.18 24.09-8.46C24.09-3.74 20.26 0.08 15.54 0.08ZM18.54-4.01C19.25-4.01 19.69-4.48 19.69-5.23L19.69-9.18L20.06-9.38C20.36-9.52 20.44-9.71 20.44-9.91C20.44-10.27 20.10-10.59 19.69-10.44L19.69-12.07C19.69-12.83 19.25-13.29 18.54-13.29C17.82-13.29 17.38-12.83 17.38-12.08L17.38-9.25L16.91-9C16.68-8.87 16.54-8.65 16.54-8.45C16.54-8.09 16.90-7.77 17.38-7.98L17.38-5.23C17.38-4.48 17.82-4.01 18.54-4.01ZM11.67-4.17L15.26-4.17C15.80-4.17 16.14-4.50 16.14-5.00C16.14-5.51 15.80-5.84 15.26-5.84L13.91-5.84L13.91-6L15.74-8.95C15.95-9.27 16.02-9.42 16.02-9.77C16.02-10.36 15.64-10.72 15.06-10.72L11.68-10.72C11.16-10.72 10.80-10.38 10.80-9.88C10.80-9.36 11.16-9.04 11.68-9.04L13.29-9.04L13.29-8.87L11.06-5.72C10.86-5.43 10.80-5.29 10.80-4.99C10.80-4.54 11.11-4.17 11.67-4.17Z" fill="currentColor"/>
</svg>