<svg xmlns="http://www.w3.org/2000/svg" viewBox="0 0 24 24" width="24" height="24">
  <title>poweroutlet.type.h</title>
  <path transform="matrix(0.7810831426392068, 0, 0, 0.7810831426392068, 0.3615560640732265, 18.608695652173914)" d="M14.89 4.34C21.97 4.34 27.70-1.39 27.70-8.46C27.70-15.53 21.97-21.26 14.89-21.26C7.83-21.26 2.10-15.53 2.10-8.46C2.10-1.39 7.83 4.34 14.89 4.34ZM14.89 0.16C10.13 0.16 6.27-3.69 6.27-8.46C6.27-13.23 10.13-17.09 14.89-17.09C19.66-17.09 23.53-13.23 23.53-8.46C23.53-3.69 19.66 0.16 14.89 0.16ZM10.22-6.63C11.53-6.63 12.60-7.71 12.60-9.01C12.60-10.32 11.53-11.40 10.22-11.40C8.91-11.40 7.84-10.32 7.84-9.01C7.84-7.71 8.91-6.63 10.22-6.63ZM19.58-6.63C20.89-6.63 21.96-7.71 21.96-9.01C21.96-10.32 20.89-11.40 19.58-11.40C18.27-11.40 17.20-10.32 17.20-9.01C17.20-7.71 18.27-6.63 19.58-6.63ZM14.89-1.62C16.21-1.62 17.27-2.70 17.27-4.01C17.27-5.31 16.21-6.39 14.89-6.39C13.59-6.39 12.52-5.31 12.52-4.01C12.52-2.70 13.59-1.62 14.89-1.62Z" fill="currentColor"/>
</svg>