<svg xmlns="http://www.w3.org/2000/svg" viewBox="0 0 24 24" width="24" height="24">
  
  <path transform="matrix(0.829284094590217, 0, 0, 0.829284094590217, -0.4781341107871717, 19.001943634596696)" d="M7.58 3.18L22.51 3.18C25.41 3.18 27.11 1.48 27.11-1.42L27.11-15.47C27.11-18.38 25.41-20.06 22.51-20.06L7.58-20.06C4.69-20.06 2.99-18.38 2.99-15.47L2.99-1.42C2.99 1.48 4.69 3.18 7.58 3.18ZM8.21-0.98C7.50-0.98 7.15-1.29 7.15-2.06L7.15-14.84C7.15-15.61 7.50-15.90 8.21-15.90L21.88-15.90C22.59-15.90 22.95-15.61 22.95-14.84L22.95-2.06C22.95-1.29 22.59-0.98 21.88-0.98ZM20.07-8.82L20.66-9.40C21.13-9.88 21.12-10.51 20.66-10.99L18.53-13.14C18.07-13.61 17.40-13.58 16.93-13.13L16.35-12.54C15.89-12.08 15.88-11.40 16.34-10.96L18.49-8.82C18.96-8.36 19.59-8.34 20.07-8.82ZM9.43-9.40L10.02-8.82C10.50-8.34 11.13-8.36 11.60-8.82L13.76-10.96C14.21-11.40 14.20-12.08 13.75-12.54L13.16-13.13C12.69-13.58 12.02-13.61 11.57-13.14L9.43-10.99C8.98-10.51 8.96-9.88 9.43-9.40ZM14.65-2.75L15.47-2.75C16.14-2.75 16.61-3.21 16.61-3.88L16.61-6.86C16.61-7.50 16.13-7.98 15.47-7.98L14.65-7.98C13.99-7.98 13.52-7.50 13.52-6.86L13.52-3.88C13.52-3.21 13.98-2.75 14.65-2.75Z" fill="currentColor"/>
</svg>