<svg xmlns="http://www.w3.org/2000/svg" viewBox="0 0 24 24" width="24" height="24">
  
  <path transform="matrix(0.8606488485459741, 0, 0, 0.8606488485459741, -0.571860816944024, 19.286938981341404)" d="M7.58 3.15L21.63 3.15C24.53 3.15 26.23 1.46 26.23-1.44L26.23-15.49C26.23-18.39 24.53-20.09 21.63-20.09L7.58-20.09C4.69-20.09 2.99-18.39 2.99-15.49L2.99-1.44C2.99 1.46 4.69 3.15 7.58 3.15ZM8.21-1.01C7.50-1.01 7.15-1.30 7.15-2.07L7.15-14.85C7.15-15.62 7.50-15.91 8.21-15.91L21-15.91C21.71-15.91 22.07-15.62 22.07-14.85L22.07-2.07C22.07-1.30 21.71-1.01 21-1.01ZM12.62-2.46L16.59-2.46C17.55-2.46 18.20-3.13 18.20-4.07L18.20-12.83C18.20-13.77 17.55-14.44 16.59-14.44L12.62-14.44C11.66-14.44 11.02-13.77 11.02-12.83L11.02-4.07C11.02-3.13 11.66-2.46 12.62-2.46ZM14.64-10.58C13.96-10.58 13.43-11.12 13.43-11.77C13.43-12.42 13.96-12.94 14.64-12.94C15.27-12.94 15.80-12.41 15.80-11.77C15.80-11.12 15.27-10.58 14.64-10.58ZM14.64-7.28C13.96-7.28 13.43-7.80 13.43-8.46C13.43-9.11 13.96-9.63 14.64-9.63C15.27-9.63 15.80-9.09 15.80-8.46C15.80-7.80 15.27-7.28 14.64-7.28ZM14.64-3.96C13.96-3.96 13.43-4.50 13.43-5.14C13.43-5.81 13.96-6.34 14.64-6.34C15.27-6.34 15.80-5.80 15.80-5.14C15.80-4.50 15.27-3.96 14.64-3.96Z" fill="currentColor"/>
</svg>