<svg xmlns="http://www.w3.org/2000/svg" viewBox="0 0 24 24" width="24" height="24">
  <title>poweroutlet.type.e.square.fill</title>
  <path transform="matrix(0.8606488485459741, 0, 0, 0.8606488485459741, -0.571860816944024, 19.286938981341404)" d="M7.58 3.15L21.63 3.15C24.53 3.15 26.23 1.46 26.23-1.44L26.23-15.49C26.23-18.39 24.53-20.09 21.63-20.09L7.58-20.09C4.69-20.09 2.99-18.39 2.99-15.49L2.99-1.44C2.99 1.46 4.69 3.15 7.58 3.15ZM14.60-1.51C10.76-1.51 7.65-4.62 7.65-8.46C7.65-12.32 10.76-15.42 14.60-15.42C18.46-15.42 21.56-12.32 21.56-8.46C21.56-4.62 18.46-1.51 14.60-1.51ZM14.60-10.97C15.22-10.97 15.76-11.48 15.76-12.11C15.76-12.74 15.22-13.28 14.60-13.28C13.97-13.28 13.44-12.74 13.44-12.11C13.44-11.48 13.97-10.97 14.60-10.97ZM17.89-6.96C18.79-6.96 19.52-7.71 19.52-8.60C19.52-9.52 18.77-10.23 17.89-10.23C16.99-10.23 16.25-9.49 16.25-8.60C16.25-7.71 16.99-6.96 17.89-6.96ZM11.30-6.96C12.19-6.96 12.95-7.71 12.95-8.60C12.95-9.49 12.19-10.23 11.30-10.23C10.41-10.23 9.68-9.52 9.68-8.60C9.68-7.69 10.41-6.96 11.30-6.96Z" fill="currentColor"/>
</svg>