<svg xmlns="http://www.w3.org/2000/svg" viewBox="0 0 24 24" width="24" height="24">
  
  <path transform="matrix(0.7096327096327096, 0, 0, 0.7096327096327096, -0.12058212058212048, 18.278586278586282)" d="M7.51 1.01L8.61 1.01L8.61 1.54C8.61 4.00 9.75 5.13 12.20 5.13L21.96 5.13C24.41 5.13 25.55 4.00 25.55 1.54L25.55 1.01L26.65 1.01C29.52 1.01 31.17-0.64 31.17-3.52L31.17-13.45C31.17-16.32 29.52-17.98 26.65-17.98L25.93-17.98L25.93-18.64C25.93-21.46 24.54-22.83 21.74-22.83L12.42-22.83C9.63-22.83 8.23-21.46 8.23-18.64L8.23-17.98L7.51-17.98C4.65-17.98 2.99-16.32 2.99-13.45L2.99-3.52C2.99-0.64 4.64 1.01 7.51 1.01ZM11.84-18.96C11.84-19.41 12.09-19.65 12.52-19.65L21.64-19.65C22.07-19.65 22.32-19.41 22.32-18.96L22.32-17.98L11.84-17.98ZM21.96-9.81L12.20-9.81C9.76-9.81 8.61-8.67 8.61-6.22L8.61-2.46L7.61-2.46C6.96-2.46 6.60-2.81 6.60-3.47L6.60-13.49C6.60-14.14 6.96-14.52 7.61-14.52L26.55-14.52C27.20-14.52 27.56-14.14 27.56-13.49L27.56-3.47C27.56-2.81 27.20-2.46 26.55-2.46L25.55-2.46L25.55-6.22C25.55-8.67 24.41-9.81 21.96-9.81ZM22.23-12.06C22.23-11.25 22.89-10.61 23.71-10.61C24.49-10.61 25.16-11.25 25.16-12.06C25.16-12.84 24.49-13.51 23.71-13.51C22.89-13.51 22.23-12.84 22.23-12.06ZM13.56-3.43C12.87-3.43 12.34-3.97 12.34-4.65C12.34-5.31 12.86-5.84 13.56-5.84L20.64-5.84C21.33-5.84 21.83-5.31 21.83-4.65C21.83-3.97 21.33-3.43 20.64-3.43ZM13.56 1.23C12.86 1.23 12.34 0.71 12.34 0.06C12.34-0.63 12.87-1.17 13.56-1.17L20.64-1.17C21.33-1.17 21.83-0.63 21.83 0.06C21.83 0.71 21.33 1.23 20.64 1.23Z" fill="currentColor"/>
</svg>