<svg xmlns="http://www.w3.org/2000/svg" viewBox="0 0 24 24" width="24" height="24">
  
  <path transform="matrix(0.7152835987706063, 0, 0, 0.7152835987706063, -0.13746856663872586, 18.261525565800504)" d="M7.58 3.02L26.39 3.02C29.25 3.02 30.95 1.32 30.95-1.57L30.95-13.70C30.95-16.59 29.25-18.29 26.36-18.29L17.03-18.29C16.01-18.29 15.38-18.52 14.48-19.17L14.00-19.52C12.97-20.29 12.33-20.53 10.79-20.53L7.58-20.53C4.79-20.53 2.99-18.79 2.99-15.86L2.99-1.57C2.99 1.32 4.69 3.02 7.58 3.02ZM8.21-1.14C7.50-1.14 7.15-1.43 7.15-2.21L7.15-15.23C7.15-15.93 7.63-16.37 8.36-16.37L9.64-16.37C10.66-16.37 11.26-16.16 12.18-15.49L12.64-15.14C13.70-14.37 14.34-14.12 15.88-14.12L25.72-14.12C26.44-14.12 26.79-13.83 26.79-13.05L26.79-2.21C26.79-1.43 26.44-1.14 25.72-1.14ZM16.65-5.88C17.45-5.88 18.06-6.23 18.21-6.74C18.22-6.79 18.23-6.83 18.25-6.86C18.41-7.22 18.91-7.54 19.38-7.83C20.52-8.52 20.94-9.11 20.94-10.17C20.94-11.95 19.25-13.23 17.00-13.23C15.20-13.23 13.82-12.55 13.31-11.47C13.21-11.25 13.16-11.03 13.16-10.78C13.16-10.11 13.66-9.52 14.46-9.52C14.95-9.52 15.38-9.67 15.66-10.04L15.71-10.11C16.02-10.50 16.29-10.59 16.62-10.59C17.00-10.59 17.33-10.28 17.33-9.97C17.33-9.49 16.90-9.27 16.13-8.74C15.39-8.24 14.93-7.77 14.93-7.15L14.93-7.13C14.93-6.30 15.54-5.88 16.65-5.88ZM16.66-2.23C17.64-2.23 18.34-2.77 18.34-3.68C18.34-4.58 17.65-5.12 16.66-5.12C15.68-5.12 14.96-4.59 14.96-3.68C14.96-2.77 15.68-2.23 16.66-2.23Z" fill="currentColor"/>
</svg>