<svg xmlns="http://www.w3.org/2000/svg" viewBox="0 0 24 24" width="24" height="24">
  <title>quotelevel</title>
  <path transform="matrix(0.6083245426833787, 0, 0, 0.6083245426833787, 0.18400863869882333, 17.14699593536015)" d="M16.36 3.11C17.39 3.11 18.23 2.33 18.23 1.30L18.23-18.22C18.23-19.23 17.36-20.03 16.36-20.03C15.41-20.03 14.48-19.22 14.48-18.22L14.48 1.30C14.48 2.31 15.38 3.11 16.36 3.11ZM22.49 3.11C23.52 3.11 24.36 2.33 24.36 1.30L24.36-18.22C24.36-19.23 23.48-20.03 22.49-20.03C21.53-20.03 20.61-19.22 20.61-18.22L20.61 1.30C20.61 2.31 21.50 3.11 22.49 3.11ZM8.52-3.94C9.60-3.22 10.84-3.62 10.84-4.93L10.84-11.95C10.84-13.30 9.64-13.72 8.52-12.96L3.64-9.63C2.79-9.06 2.74-7.80 3.64-7.20ZM30.33-3.94L35.20-7.20C36.11-7.80 36.06-9.06 35.20-9.63L30.33-12.96C29.20-13.72 28.01-13.30 28.01-11.95L28.01-4.93C28.01-3.62 29.25-3.22 30.33-3.94Z" fill="currentColor"/>
</svg>