<svg xmlns="http://www.w3.org/2000/svg" viewBox="0 0 24 24" width="24" height="24">
  <title>r.joystick.tilt.right</title>
  <path transform="matrix(0.6299113034032606, 0, 0, 0.6299113034032606, 0.6786626174705042, 17.329640168638527)" d="M16.80-23.16C8.68-23.16 2.10-16.57 2.10-8.46C2.10-0.36 8.68 6.23 16.80 6.23C22.92 6.23 28.20 2.46 30.41-2.88C29.36-2.59 28.28-2.84 27.49-3.48C25.59 0.54 21.52 3.33 16.80 3.33C10.30 3.33 4.99-1.96 4.99-8.46C4.99-14.96 10.30-20.25 16.80-20.25C21.52-20.25 25.59-17.46 27.49-13.43C28.28-14.07 29.36-14.32 30.40-14.04C28.20-19.38 22.93-23.16 16.80-23.16ZM16.80 1.29C22.17 1.29 26.55-3.09 26.55-8.46C26.55-13.84 22.17-18.22 16.80-18.22C11.43-18.22 7.03-13.84 7.03-8.46C7.03-3.09 11.43 1.29 16.80 1.29ZM16.80-2.10C13.29-2.10 10.42-4.96 10.42-8.46C10.42-11.96 13.29-14.82 16.80-14.82C20.31-14.82 23.17-11.96 23.17-8.46C23.17-4.96 20.31-2.10 16.80-2.10ZM14.95-4.36C15.76-4.36 16.11-4.89 16.11-5.58L16.11-7.21L16.72-7.21L17.71-5.20C18.01-4.59 18.34-4.36 18.94-4.36C19.58-4.36 19.99-4.79 19.99-5.46C19.99-5.79 19.85-6.09 19.72-6.32L19.01-7.61C19.78-8.04 20.17-8.95 20.17-9.84C20.17-11.75 18.84-12.60 17.02-12.60L14.95-12.60C14.29-12.60 13.77-12.21 13.77-11.36L13.77-5.58C13.77-4.80 14.19-4.36 14.95-4.36ZM30.23-11.67C29.48-12.25 28.56-11.91 28.56-10.96L28.56-5.99C28.56-5.00 29.47-4.66 30.23-5.25L33.49-7.77C33.96-8.13 33.97-8.80 33.49-9.16ZM16.11-8.77L16.11-10.85L16.79-10.85C17.41-10.85 17.79-10.42 17.79-9.80C17.79-9.16 17.45-8.77 16.79-8.77Z" fill="currentColor"/>
</svg>