<svg xmlns="http://www.w3.org/2000/svg" viewBox="0 0 24 24" width="24" height="24">
  
  <path transform="matrix(0.6408812116660408, 0, 0, 0.6408812116660408, 1.804731505820503, 18.823131806233572)" d="M12.34-24.41L15.14-20.78C15.54-20.26 16.25-20.27 16.65-20.78L19.46-24.41C20.10-25.24 19.73-26.25 18.66-26.25L13.13-26.25C12.09-26.25 11.72-25.23 12.34-24.41ZM15.90-1.44C24.52-1.44 29.72-5.32 29.72-10.17C29.72-15.04 24.52-18.90 15.89-18.90C7.30-18.90 2.10-15.04 2.10-10.17C2.10-5.32 7.30-1.44 15.90-1.44ZM15.90-5.20C10.13-5.20 6.28-7.20 6.28-10.17C6.28-13.15 10.13-15.13 15.89-15.13C21.67-15.13 25.54-13.15 25.54-10.17C25.54-7.20 21.69-5.20 15.90-5.20ZM14.13-6.42C14.92-6.42 15.39-6.94 15.39-7.83L15.39-8.93L15.94-8.93L16.92-7.35C17.38-6.63 17.68-6.41 18.23-6.41C18.95-6.41 19.45-6.87 19.45-7.54C19.45-7.83 19.36-8.06 19.17-8.32L18.33-9.43C19.24-9.71 19.79-10.54 19.79-11.55C19.79-13.20 18.67-14.07 16.61-14.07L14.46-14.07C13.41-14.07 12.86-13.52 12.86-12.46L12.86-7.83C12.86-6.93 13.32-6.42 14.13-6.42ZM15.39-10.80L15.39-12.19L16.29-12.19C16.77-12.19 17.04-11.91 17.04-11.50C17.04-11.09 16.75-10.80 16.29-10.80ZM15.90 4.96C19.70 4.96 22.14 3.18 22.14 0.13L22.14 0C20.26 0.48 18.15 0.74 15.90 0.74C13.66 0.74 11.55 0.48 9.68 0L9.68 0.13C9.68 3.18 12.12 4.96 15.90 4.96Z" fill="currentColor"/>
</svg>