<svg xmlns="http://www.w3.org/2000/svg" viewBox="0 0 24 24" width="24" height="24">
  <title>r.square</title>
  <path transform="matrix(0.8606488485459741, 0, 0, 0.8606488485459741, -0.571860816944024, 19.286938981341404)" d="M7.58 3.15L21.63 3.15C24.53 3.15 26.23 1.46 26.23-1.44L26.23-15.49C26.23-18.39 24.53-20.09 21.63-20.09L7.58-20.09C4.69-20.09 2.99-18.39 2.99-15.49L2.99-1.44C2.99 1.46 4.69 3.15 7.58 3.15ZM8.21-1.01C7.50-1.01 7.15-1.30 7.15-2.07L7.15-14.85C7.15-15.62 7.50-15.91 8.21-15.91L21-15.91C21.71-15.91 22.07-15.62 22.07-14.85L22.07-2.07C22.07-1.30 21.71-1.01 21-1.01ZM11.46-3.11C12.54-3.11 13.20-3.80 13.20-5.00L13.20-6.55L13.97-6.55L15.33-4.38C15.93-3.41 16.37-3.11 17.12-3.11C18.07-3.11 18.75-3.73 18.75-4.61C18.75-5.02 18.63-5.33 18.38-5.68L17.21-7.25C18.46-7.62 19.22-8.73 19.22-10.14C19.22-12.38 17.68-13.57 14.87-13.57L11.93-13.57C10.49-13.57 9.76-12.82 9.76-11.37L9.76-5.00C9.76-3.79 10.38-3.11 11.46-3.11ZM13.20-9.08L13.20-11.04L14.44-11.04C15.12-11.04 15.49-10.65 15.49-10.07C15.49-9.48 15.07-9.08 14.44-9.08Z" fill="currentColor"/>
</svg>