<svg xmlns="http://www.w3.org/2000/svg" viewBox="0 0 24 24" width="24" height="24">
  
  <path transform="matrix(0.7810831426392068, 0, 0, 0.7810831426392068, 0.3615560640732265, 18.608695652173914)" d="M14.89 4.34C21.97 4.34 27.70-1.39 27.70-8.46C27.70-15.53 21.97-21.26 14.89-21.26C7.83-21.26 2.10-15.53 2.10-8.46C2.10-1.39 7.83 4.34 14.89 4.34ZM14.89 0.16C10.13 0.16 6.27-3.69 6.27-8.46C6.27-13.23 10.13-17.09 14.89-17.09C19.66-17.09 23.53-13.23 23.53-8.46C23.53-3.69 19.66 0.16 14.89 0.16ZM16.54-4.10L20.09-4.10C20.71-4.10 20.93-4.52 20.93-4.97C20.93-5.41 20.71-5.84 20.09-5.84L18.12-5.84L18.12-5.93L19.30-7.34C20.16-8.36 20.80-9.19 20.80-10.44C20.80-12.12 19.64-13.04 18.06-13.04C16.66-13.04 15.49-12.04 15.49-10.80C15.49-10.24 15.82-9.82 16.41-9.82C16.85-9.82 17.23-10.04 17.38-10.59C17.50-10.99 17.66-11.34 18.06-11.34C18.54-11.34 18.68-10.89 18.68-10.38C18.68-9.59 18.15-8.82 17.47-7.97L16.08-6.21C15.63-5.65 15.50-5.34 15.50-4.98C15.50-4.42 15.87-4.10 16.54-4.10ZM10.14-3.94C10.88-3.94 11.26-4.39 11.26-5.13L11.26-7.14L11.67-7.14L12.35-4.92C12.56-4.25 12.94-3.94 13.52-3.94C14.14-3.94 14.61-4.41 14.59-5.07C14.58-5.31 14.54-5.45 14.46-5.66L13.76-7.61C14.44-8.11 14.71-9.07 14.71-9.93C14.71-11.86 13.63-12.81 11.80-12.81L10.14-12.81C9.39-12.81 9-12.36 9-11.60L9-5.13C9-4.38 9.39-3.94 10.14-3.94ZM11.26-8.67L11.26-11.10L11.61-11.10C12.15-11.10 12.39-10.43 12.39-9.88C12.39-9.29 12.18-8.67 11.59-8.67Z" fill="currentColor"/>
</svg>