<svg xmlns="http://www.w3.org/2000/svg" viewBox="0 0 24 24" width="24" height="24">
  <title>receipt</title>
  <path transform="matrix(0.7289196978847776, 0, 0, 0.7289196978847776, 1.8606131087199484, 17.80275126273639)" d="M2.99 2.74C2.99 5.29 5.73 6.54 7.96 5.24L8.66 4.83L9.75 5.47C10.17 5.72 10.59 5.75 11.07 5.47L12.16 4.82L13.25 5.47C13.68 5.72 14.10 5.75 14.58 5.47L15.66 4.82L16.76 5.47C17.19 5.73 17.60 5.75 18.08 5.47L19.17 4.82L19.86 5.24C22.09 6.54 24.83 5.29 24.83 2.74L24.83-17.09C24.83-19.98 23.13-21.68 20.24-21.68L7.58-21.68C4.69-21.68 2.99-19.98 2.99-17.09ZM6.74 1.08L6.74-16.85C6.74-17.58 7.03-17.93 7.80-17.93L20.02-17.93C20.79-17.93 21.08-17.58 21.08-16.85L21.08 1.08L19.82 0.33C19.34 0.06 18.93 0.08 18.50 0.33L17.40 0.98L16.31 0.33C15.84 0.06 15.42 0.08 15 0.33L13.90 0.98L12.81 0.33C12.34 0.06 11.92 0.08 11.50 0.33L10.39 0.98L9.27 0.32C8.78 0.04 8.26 0.07 7.86 0.33ZM9.74-13.24L13.93-13.24C14.41-13.24 14.78-13.62 14.78-14.10C14.78-14.55 14.41-14.92 13.93-14.92L9.74-14.92C9.25-14.92 8.88-14.55 8.88-14.10C8.88-13.62 9.25-13.24 9.74-13.24ZM17.04-13.24L17.70-13.24C18.18-13.24 18.53-13.62 18.53-14.10C18.53-14.55 18.18-14.92 17.70-14.92L17.04-14.92C16.55-14.92 16.20-14.55 16.20-14.10C16.20-13.62 16.55-13.24 17.04-13.24ZM9.74-9.60L13.93-9.60C14.41-9.60 14.78-9.97 14.78-10.45C14.78-10.92 14.41-11.27 13.93-11.27L9.74-11.27C9.25-11.27 8.88-10.92 8.88-10.45C8.88-9.97 9.25-9.60 9.74-9.60ZM17.04-9.60L17.70-9.60C18.18-9.60 18.53-9.97 18.53-10.45C18.53-10.92 18.18-11.27 17.70-11.27L17.04-11.27C16.55-11.27 16.20-10.92 16.20-10.45C16.20-9.97 16.55-9.60 17.04-9.60ZM9.74-5.98L13.93-5.98C14.41-5.98 14.78-6.33 14.78-6.80C14.78-7.28 14.41-7.64 13.93-7.64L9.74-7.64C9.25-7.64 8.88-7.28 8.88-6.80C8.88-6.33 9.25-5.98 9.74-5.98ZM17.04-5.98L17.70-5.98C18.18-5.98 18.53-6.33 18.53-6.80C18.53-7.28 18.18-7.64 17.70-7.64L17.04-7.64C16.55-7.64 16.20-7.28 16.20-6.80C16.20-6.33 16.55-5.98 17.04-5.98ZM9.74-2.33L13.93-2.33C14.41-2.33 14.78-2.68 14.78-3.15C14.78-3.63 14.41-4.01 13.93-4.01L9.74-4.01C9.25-4.01 8.88-3.63 8.88-3.15C8.88-2.68 9.25-2.33 9.74-2.33ZM17.04-2.33L17.70-2.33C18.18-2.33 18.53-2.68 18.53-3.15C18.53-3.63 18.18-4.01 17.70-4.01L17.04-4.01C16.55-4.01 16.20-3.63 16.20-3.15C16.20-2.68 16.55-2.33 17.04-2.33Z" fill="currentColor"/>
</svg>