<svg xmlns="http://www.w3.org/2000/svg" viewBox="0 0 24 24" width="24" height="24">
  
  <path transform="matrix(0.5108251022647909, 0, 0, 0.5108251022647909, 0.9284645315773721, 16.31906614785992)" d="M2.10-8.46C2.10-3.60 6.04 0.33 10.89 0.33L32.47 0.33C37.31 0.33 41.25-3.61 41.25-8.46C41.25-13.31 37.31-17.24 32.47-17.24C27.61-17.24 23.67-13.31 23.67-8.46C23.67-6.87 24.11-5.32 24.90-3.98L18.43-3.98C19.23-5.32 19.68-6.87 19.68-8.46C19.68-13.31 15.74-17.24 10.89-17.24C6.04-17.24 2.10-13.31 2.10-8.46ZM6.42-8.46C6.42-10.93 8.41-12.93 10.89-12.93C13.36-12.93 15.35-10.93 15.35-8.46C15.35-5.98 13.36-3.98 10.89-3.98C8.41-3.98 6.42-5.98 6.42-8.46ZM28.00-8.46C28.00-10.93 29.99-12.93 32.47-12.93C34.92-12.93 36.93-10.93 36.93-8.46C36.93-5.98 34.92-3.98 32.47-3.98C29.99-3.98 28.00-5.98 28.00-8.46Z" fill="currentColor"/>
</svg>