<svg xmlns="http://www.w3.org/2000/svg" viewBox="0 0 24 24" width="24" height="24">
  <title>rectangle.on.rectangle.square</title>
  <path transform="matrix(0.8606488485459741, 0, 0, 0.8606488485459741, -0.571860816944024, 19.286938981341404)" d="M7.58 3.15L21.63 3.15C24.53 3.15 26.23 1.46 26.23-1.44L26.23-15.49C26.23-18.39 24.53-20.09 21.63-20.09L7.58-20.09C4.69-20.09 2.99-18.39 2.99-15.49L2.99-1.44C2.99 1.46 4.69 3.15 7.58 3.15ZM8.21-1.01C7.50-1.01 7.15-1.30 7.15-2.07L7.15-14.85C7.15-15.62 7.50-15.91 8.21-15.91L21-15.91C21.71-15.91 22.07-15.62 22.07-14.85L22.07-2.07C22.07-1.30 21.71-1.01 21-1.01ZM10.18-9.74C10.18-11.25 11.05-12.13 12.56-12.13L18.25-12.13C18.25-13.04 17.64-13.65 16.57-13.65L10.22-13.65C9.15-13.65 8.54-13.04 8.54-11.98L8.54-7.32C8.54-6.26 9.15-5.65 10.15-5.65L10.18-5.65ZM12.66-3.32L19.01-3.32C20.07-3.32 20.68-3.93 20.68-4.99L20.68-9.64C20.68-10.71 20.07-11.32 19.01-11.32L12.66-11.32C11.59-11.32 10.98-10.71 10.98-9.64L10.98-4.99C10.98-3.93 11.59-3.32 12.66-3.32Z" fill="currentColor"/>
</svg>