<svg xmlns="http://www.w3.org/2000/svg" viewBox="0 0 24 24" width="24" height="24">
  <title>rectangle.landscape.rotate</title>
  <path transform="matrix(0.5563940397027537, 0, 0, 0.5563940397027537, 1.4046056892542027, 16.707736380171077)" d="M28.29-20.48L28.29-21.87L29.21-21.87C31.21-21.87 32.66-20.32 32.66-18.19L32.66-16.89C32.66-16.21 33.21-15.66 33.89-15.66C34.56-15.66 35.10-16.21 35.10-16.89L35.10-18.19C35.10-21.69 32.50-24.18 29.14-24.18L28.29-24.18L28.29-25.43C28.29-26.40 27.40-26.72 26.66-26.16L23.40-23.65C22.95-23.29 22.95-22.64 23.40-22.28L26.66-19.78C27.39-19.22 28.29-19.56 28.29-20.48ZM11.80 0.56L26.27 0.56C28.72 0.56 30.18-0.90 30.18-3.35L30.18-13.57C30.18-16.03 28.72-17.48 26.27-17.48L11.80-17.48C9.35-17.48 7.90-16.03 7.90-13.57L7.90-3.35C7.90-0.90 9.35 0.56 11.80 0.56ZM12.36-3.04C11.80-3.04 11.52-3.29 11.52-3.91L11.52-13.01C11.52-13.63 11.80-13.89 12.36-13.89L25.72-13.89C26.29-13.89 26.57-13.63 26.57-13.01L26.57-3.91C26.57-3.29 26.29-3.04 25.72-3.04ZM9.79 3.56L9.79 4.93L8.87 4.93C6.88 4.93 5.41 3.39 5.41 1.27L5.41-0.04C5.41-0.71 4.86-1.27 4.18-1.27C3.53-1.27 2.99-0.71 2.99-0.04L2.99 1.27C2.99 4.77 5.58 7.25 8.94 7.25L9.79 7.25L9.79 8.50C9.79 9.48 10.68 9.80 11.43 9.23L14.67 6.73C15.14 6.36 15.14 5.72 14.67 5.36L11.43 2.86C10.70 2.30 9.79 2.63 9.79 3.56Z" fill="currentColor"/>
</svg>