<svg xmlns="http://www.w3.org/2000/svg" viewBox="0 0 24 24" width="24" height="24">
  
  <path transform="matrix(0.689005517426995, 0, 0, 0.689005517426995, 0.8534517561566415, 17.413807024626564)" d="M4.62 4.90L13.20 4.90C13.77 5.94 14.89 6.66 16.17 6.66C17.45 6.66 18.56 5.94 19.14 4.90L27.74 4.90C28.64 4.90 29.37 4.17 29.37 3.27C29.37 2.37 28.64 1.63 27.74 1.63L19.15 1.63C18.84 1.07 18.38 0.60 17.81 0.28L17.81-1.91L24.33-1.91C27.23-1.91 28.92-3.61 28.92-6.50L28.92-17.78C28.92-20.67 27.23-22.37 24.33-22.37L8.04-22.37C5.13-22.37 3.45-20.67 3.45-17.78L3.45-6.50C3.45-3.61 5.13-1.91 8.04-1.91L14.54-1.91L14.54 0.28C13.97 0.59 13.50 1.05 13.18 1.63L4.62 1.63C3.71 1.63 2.99 2.37 2.99 3.27C2.99 4.17 3.71 4.90 4.62 4.90ZM8.67-6.07C7.96-6.07 7.61-6.36 7.61-7.15L7.61-17.13C7.61-17.92 7.96-18.21 8.67-18.21L23.70-18.21C24.41-18.21 24.76-17.92 24.76-17.13L24.76-7.15C24.76-6.36 24.41-6.07 23.70-6.07Z" fill="currentColor"/>
</svg>