<svg xmlns="http://www.w3.org/2000/svg" viewBox="0 0 24 24" width="24" height="24">
  
  <path transform="matrix(0.6199863066402058, 0, 0, 0.6199863066402058, 1.1880860538455231, 17.517208384410075)" d="M15.79-20.11L23.66-20.11L23.46-21.20C22.97-24.06 20.99-25.43 18.14-24.93L6.81-22.93C3.96-22.43 2.59-20.48 3.09-17.63L5.86-1.93C6.22 0.13 7.32 1.42 8.99 1.79L8.99-13.30C8.99-17.43 11.67-20.11 15.79-20.11ZM31.89-13.30C31.89-16.21 30.19-17.89 27.29-17.89L15.79-17.89C12.89-17.89 11.19-16.21 11.19-13.30L11.19 2.64C11.19 5.53 12.89 7.23 15.79 7.23L27.29 7.23C30.19 7.23 31.89 5.53 31.89 2.64Z" fill="currentColor"/>
</svg>