<svg xmlns="http://www.w3.org/2000/svg" viewBox="0 0 24 24" width="24" height="24">
  <title>rectangle.and.arrow.up.right.and.arrow.down.left.slash</title>
  <path transform="matrix(0.7058174800110284, 0, 0, 0.7058174800110284, 1.7833899078097757, 17.98014888337469)" d="M21.18-17.50L24.68-17.50L24.68-18.30C24.68-21.06 23.07-22.64 20.48-22.64L8.48-22.64C7.17-22.64 6.13-22.23 5.39-21.49L5.33-21.43L8.18-18.57L8.23-18.60C8.40-18.75 8.64-18.81 8.91-18.81L20.06-18.81C20.73-18.81 21.18-18.38 21.18-17.70ZM25.34 4.09C25.76 4.50 26.45 4.50 26.85 4.09C27.26 3.67 27.27 3 26.85 2.58L3.62-20.64C3.20-21.06 2.52-21.06 2.10-20.64C1.69-20.24 1.69-19.54 2.10-19.13ZM18.75-10.07C18.75-9.30 19.43-8.67 20.14-8.67C20.54-8.67 20.95-8.86 21.27-9.21L22.66-10.59L23.60-11.95L23.32-11.07L23.32-9.55C23.32-8.65 23.98-8.19 24.64-8.19C25.31-8.19 25.97-8.66 25.97-9.53L25.97-14.40C25.97-15.30 25.44-15.91 24.46-15.91L19.57-15.91C18.70-15.91 18.26-15.26 18.25-14.59C18.26-13.92 18.70-13.25 19.62-13.27L21.13-13.25L22.10-13.57L20.67-12.59L19.28-11.20C18.94-10.89 18.75-10.46 18.75-10.07ZM4.28-10.35L7.78-10.35L7.78-10.93L4.28-14.44ZM4.51-1.04L9.39-1.04C10.25-1.04 10.70-1.70 10.71-2.37C10.70-3.02 10.25-3.69 9.34-3.68L7.83-3.69L6.86-3.38L8.29-4.37L9.69-5.74C10.02-6.07 10.21-6.48 10.21-6.89C10.21-7.64 9.53-8.27 8.81-8.27C8.41-8.27 8.00-8.09 7.69-7.75L6.30-6.35L5.36-4.99L5.64-5.87L5.64-7.39C5.64-8.31 4.99-8.75 4.32-8.75C3.66-8.75 2.99-8.30 2.99-7.43L2.99-2.54C2.99-1.65 3.52-1.04 4.51-1.04ZM24.68-2.09L24.68-6.61L21.18-6.61L21.18-5.59ZM8.47 5.70L20.47 5.70C21.63 5.70 22.64 5.39 23.30 4.77L23.40 4.68L20.43 1.70L20.37 1.72C20.34 1.79 20.17 1.85 20.05 1.85L8.89 1.85C8.23 1.85 7.78 1.42 7.78 0.74L7.78 0.54L4.28 0.54L4.28 1.36C4.28 4.10 5.88 5.70 8.47 5.70Z" fill="currentColor"/>
</svg>