<svg xmlns="http://www.w3.org/2000/svg" viewBox="0 0 24 24" width="24" height="24">
  
  <path transform="matrix(0.5734767025089605, 0, 0, 0.5734767025089605, 0.28629032258064524, 16.84543010752688)" d="M16.20 4.31L24.67 4.31C27.56 4.31 29.26 2.63 29.26-0.28L29.26-16.62C29.26-19.52 27.56-21.21 24.67-21.21L16.20-21.21C13.29-21.21 11.60-19.52 11.60-16.62L11.60-0.28C11.60 2.63 13.29 4.31 16.20 4.31ZM16.83 0.15C16.05 0.15 15.76-0.20 15.76-0.91L15.76-15.98C15.76-16.70 16.05-17.05 16.83-17.05L24.02-17.05C24.80-17.05 25.10-16.70 25.10-15.98L25.10-0.91C25.10-0.20 24.80 0.15 24.02 0.15ZM37.86-5.70L37.86-11.21C37.86-12.23 36.91-12.70 36.06-12.19L31.49-9.48C30.68-9.01 30.67-7.90 31.49-7.42L36.06-4.71C36.90-4.21 37.86-4.66 37.86-5.70ZM2.99-5.70C2.99-4.66 3.95-4.22 4.80-4.71L9.36-7.42C10.18-7.90 10.17-9.01 9.36-9.48L4.80-12.19C3.94-12.70 2.99-12.23 2.99-11.21Z" fill="currentColor"/>
</svg>