<svg xmlns="http://www.w3.org/2000/svg" viewBox="0 0 24 24" width="24" height="24">
  <title>rectangle.on.rectangle.button.angledtop.vertical.left.fill</title>
  <path transform="matrix(0.7343660355708549, 0, 0, 0.7343660355708549, 1.3115318416523225, 18.21342512908778)" d="M11.10 5.16L21.53 5.16C24.41 5.16 26.11 3.45 26.11 0.56L26.12-17.48C26.12-20.36 24.40-22.08 21.53-22.08L17.85-22.08C15.77-22.08 13.93-21.53 12.25-19.97L4.84-13.17C3.60-12.02 2.99-10.42 2.99-8.52L2.99-2.98C2.99 1.90 6.22 5.16 11.10 5.16ZM8.73-4.49L8.73-8.98C8.73-10.01 9.32-10.59 10.35-10.59L16.45-10.59C17.43-10.59 18-10.09 18.06-9.30L12.70-9.30C11.14-9.30 10.13-8.27 10.13-6.73L10.13-2.87C9.25-2.93 8.73-3.53 8.73-4.49ZM12.70-0.61C11.66-0.61 11.07-1.20 11.07-2.23L11.07-6.73C11.07-7.76 11.66-8.34 12.70-8.34L18.82-8.34C19.84-8.34 20.44-7.76 20.44-6.73L20.44-2.23C20.44-1.20 19.84-0.61 18.82-0.61Z" fill="currentColor"/>
</svg>