<svg xmlns="http://www.w3.org/2000/svg" viewBox="0 0 24 24" width="24" height="24">
  
  <path transform="matrix(0.5512041738086708, 0, 0, 0.5512041738086708, 3.5575329472507877, 16.61848809695156)" d="M12.56-19.54L18.08-19.54C19.10-19.54 19.57-20.48 19.05-21.35L16.35-25.91C15.88-26.72 14.77-26.73 14.29-25.91L11.58-21.35C11.09-20.50 11.53-19.54 12.56-19.54ZM7.58 0.32L23.05 0.32C25.95 0.32 27.64-1.37 27.64-4.28L27.64-12.62C27.64-15.53 25.95-17.21 23.05-17.21L7.58-17.21C4.69-17.21 2.99-15.53 2.99-12.62L2.99-4.28C2.99-1.37 4.69 0.32 7.58 0.32ZM8.21-3.84C7.50-3.84 7.15-4.14 7.15-4.91L7.15-11.99C7.15-12.76 7.50-13.05 8.21-13.05L22.42-13.05C23.13-13.05 23.48-12.76 23.48-11.99L23.48-4.91C23.48-4.14 23.13-3.84 22.42-3.84ZM12.56 2.78C11.53 2.78 11.09 3.74 11.58 4.58L14.29 9.15C14.77 9.97 15.88 9.96 16.35 9.15L19.05 4.58C19.57 3.73 19.10 2.78 18.08 2.78Z" fill="currentColor"/>
</svg>