<svg xmlns="http://www.w3.org/2000/svg" viewBox="0 0 24 24" width="24" height="24">
  <title>restart</title>
  <path transform="matrix(0.8546152562176598, 0, 0, 0.8546152562176598, 2.7711567351026543, 19.215823735603404)" d="M18.73 3.26C20.05 3.26 21.29 2.24 21.29 0.46L21.29-17.34C21.29-19.13 20.05-20.14 18.73-20.14C18.11-20.14 17.52-19.98 16.70-19.50L2.23-11.10C1.05-10.42 0.30-9.64 0.30-8.45C0.30-7.25 1.05-6.48 2.23-5.79L16.70 2.61C17.52 3.08 18.11 3.26 18.73 3.26ZM16.73-2.39C16.70-2.39 16.68-2.41 16.62-2.44L6.33-8.34C6.29-8.38 6.27-8.40 6.27-8.45C6.27-8.50 6.29-8.52 6.33-8.54L16.62-14.47C16.68-14.50 16.70-14.52 16.73-14.52C16.79-14.52 16.82-14.47 16.82-14.40L16.82-2.51C16.82-2.44 16.79-2.39 16.73-2.39Z" fill="currentColor"/>
</svg>