<svg xmlns="http://www.w3.org/2000/svg" viewBox="0 0 24 24" width="24" height="24">
  
  <path transform="matrix(0.6443156499816948, 0, 0, 0.6443156499816948, 1.1611509896634045, 18.923672039786176)" d="M13.32-17.54L20.30-17.54C21.54-17.54 22.08-18.74 21.48-19.76L18.08-25.52C17.50-26.52 16.13-26.51 15.56-25.52L12.16-19.76C11.54-18.71 12.09-17.54 13.32-17.54ZM16.83-2.47C23.41-2.47 31.37-5.13 31.37-8.41C31.37-11.66 24.87-14.31 16.83-14.31C8.78-14.31 2.27-11.66 2.27-8.41C2.27-5.13 10.23-2.47 16.83-2.47ZM16.83-8.39C14.09-8.39 12.50-9.20 12.50-10.22C12.50-11.24 14.09-12.05 16.83-12.05C19.55-12.05 21.15-11.23 21.15-10.22C21.15-9.20 19.55-8.39 16.83-8.39ZM16.83-9.79C18.28-9.79 19.09-9.98 19.09-10.23C19.09-10.46 18.28-10.69 16.83-10.69C15.35-10.69 14.54-10.46 14.54-10.23C14.54-9.98 15.35-9.79 16.83-9.79ZM11.59-5.30C10.69-5.30 9.94-5.65 9.94-6.13C9.94-6.56 10.69-6.94 11.59-6.94C12.52-6.94 13.28-6.56 13.28-6.13C13.28-5.65 12.52-5.30 11.59-5.30ZM22.07-5.30C21.14-5.30 20.39-5.65 20.39-6.13C20.39-6.56 21.14-6.94 22.07-6.94C22.96-6.94 23.72-6.56 23.72-6.13C23.72-5.65 22.96-5.30 22.07-5.30ZM16.83-4.82C15.91-4.82 15.16-5.19 15.16-5.63C15.16-6.09 15.91-6.46 16.83-6.46C17.73-6.46 18.48-6.09 18.48-5.63C18.48-5.19 17.73-4.82 16.83-4.82ZM7.98 4.73C8.48 4.88 8.80 4.64 8.80 4.13L8.80 3.05C8.80 2.12 9.41 1.73 10.24 1.97C11.63 2.34 14.16 2.68 16.83 2.68C19.51 2.68 22.04 2.34 23.43 1.97C24.26 1.73 24.87 2.12 24.87 3.05L24.87 4.11C24.87 4.64 25.18 4.88 25.69 4.72C29.25 3.61 31.55 1.80 31.55-0.47L31.55-5.11C28.83-2.64 23.85-0.62 16.83-0.62C9.81-0.62 4.82-2.64 2.10-5.11L2.10-0.47C2.10 1.80 4.41 3.62 7.98 4.73Z" fill="currentColor"/>
</svg>