<svg xmlns="http://www.w3.org/2000/svg" viewBox="0 0 24 24" width="24" height="24">
  <title>roller.shade.open</title>
  <path transform="matrix(0.7575085071756177, 0, 0, 0.7575085071756177, -0.08166888592987176, 18.37816245006658)" d="M9.49-15.88L26.05-15.88C27.62-15.88 28.91-17.17 28.91-18.76C28.91-20.34 27.62-21.62 26.05-21.62L9.49-21.62C10.11-20.85 10.49-19.84 10.49-18.76C10.49-17.67 10.11-16.68 9.49-15.88ZM5.85-15.88C7.43-15.88 8.72-17.17 8.72-18.76C8.72-20.34 7.43-21.62 5.85-21.62C4.28-21.62 2.99-20.34 2.99-18.76C2.99-17.17 4.28-15.88 5.85-15.88ZM5.85-12.86C6.47-12.86 6.96-13.36 6.96-13.97C6.96-14.58 6.48-15.08 5.85-15.08C5.23-15.08 4.75-14.58 4.75-13.97C4.75-13.36 5.24-12.86 5.85-12.86ZM5.85-9.87C6.47-9.87 6.96-10.37 6.96-10.97C6.96-11.59 6.48-12.07 5.85-12.07C5.23-12.07 4.75-11.59 4.75-10.97C4.75-10.37 5.24-9.87 5.85-9.87ZM5.85-6.87C6.47-6.87 6.96-7.38 6.96-7.98C6.96-8.58 6.48-9.08 5.85-9.08C5.23-9.08 4.75-8.58 4.75-7.98C4.75-7.38 5.24-6.87 5.85-6.87ZM5.85-3.87C6.47-3.87 6.96-4.37 6.96-4.97C6.96-5.59 6.48-6.07 5.85-6.07C5.23-6.07 4.75-5.59 4.75-4.97C4.75-4.37 5.24-3.87 5.85-3.87ZM5.85-0.86C6.47-0.86 6.96-1.36 6.96-1.97C6.96-2.59 6.48-3.06 5.85-3.06C5.23-3.06 4.75-2.59 4.75-1.97C4.75-1.36 5.24-0.86 5.85-0.86ZM5.85 4.78C6.55 4.78 7.09 4.23 7.09 3.54L7.09 1.17C7.09 0.49 6.55-0.07 5.85-0.07C5.16-0.07 4.62 0.49 4.62 1.17L4.62 3.54C4.62 4.23 5.16 4.78 5.85 4.78Z" fill="currentColor"/>
</svg>