<svg xmlns="http://www.w3.org/2000/svg" viewBox="0 0 24 24" width="24" height="24">
  <title>rublesign.square.fill</title>
  <path transform="matrix(0.8606488485459741, 0, 0, 0.8606488485459741, -0.571860816944024, 19.286938981341404)" d="M7.58 3.15L21.63 3.15C24.53 3.15 26.23 1.46 26.23-1.44L26.23-15.49C26.23-18.39 24.53-20.09 21.63-20.09L7.58-20.09C4.69-20.09 2.99-18.39 2.99-15.49L2.99-1.44C2.99 1.46 4.69 3.15 7.58 3.15ZM12.57-2.96C11.67-2.96 11.10-3.56 11.10-4.51L11.10-4.76L9.96-4.76C9.75-4.76 9.61-4.88 9.61-5.09C9.61-5.29 9.75-5.40 9.96-5.40L11.10-5.40L11.10-6.94L9.96-6.94C9.74-6.94 9.60-7.07 9.60-7.29C9.60-7.49 9.74-7.63 9.96-7.63L11.10-7.63L11.10-12.30C11.10-13.30 11.66-13.93 12.64-13.93L15.97-13.93C18.13-13.93 19.73-12.60 19.73-10.42C19.73-8.34 18.02-6.94 15.77-6.94L14.07-6.94L14.07-5.40L16.44-5.40C16.64-5.40 16.77-5.29 16.77-5.09C16.77-4.88 16.64-4.76 16.44-4.76L14.07-4.76L14.07-4.51C14.07-3.56 13.50-2.96 12.57-2.96ZM14.07-9.07L15.02-9.07C16.08-9.07 16.72-9.57 16.72-10.39C16.72-11.16 16.10-11.67 15.04-11.67L14.07-11.67Z" fill="currentColor"/>
</svg>