<svg xmlns="http://www.w3.org/2000/svg" viewBox="0 0 24 24" width="24" height="24">
  <title>rupeesign.gauge.chart.lefthalf.righthalf</title>
  <path transform="matrix(0.6589446589446589, 0, 0, 0.6589446589446589, 0.6177606177606179, 17.598277121495073)" d="M2.10-6.01C2.10-2.26 3.45 1.16 5.70 3.81C6.05 4.21 6.62 4.22 7.01 3.83L9.97 0.84C10.30 0.52 10.30 0.06 10.02-0.32C8.78-1.88 8.04-3.87 8.04-6.01C8.04-10.65 11.46-14.48 15.90-15.15C16.36-15.22 16.68-15.55 16.68-16.01L16.68-20.21C16.68-20.77 16.25-21.18 15.70-21.12C8.07-20.32 2.10-13.86 2.10-6.01ZM32.45-6.01C32.45-13.86 26.48-20.32 18.84-21.12C18.29-21.18 17.87-20.77 17.87-20.21L17.87-16.01C17.87-15.55 18.20-15.22 18.64-15.15C23.10-14.48 26.51-10.65 26.51-6.01C26.51-3.87 25.78-1.88 24.52-0.30C24.23 0.07 24.23 0.53 24.56 0.86L27.54 3.84C27.91 4.24 28.49 4.22 28.84 3.82C31.10 1.16 32.45-2.26 32.45-6.01ZM12.96-2.11C13.68-2.11 14.04-2.53 14.04-3.25L14.04-4.88L14.52-4.88L15.23-3.11C15.50-2.43 15.86-2.11 16.36-2.11C16.93-2.11 17.44-2.47 17.44-3.18C17.44-3.46 17.32-3.73 17.18-4.01L16.59-5.27C17.26-5.67 17.58-6.61 17.58-7.38C17.58-9.13 16.51-9.97 14.73-9.97L12.96-9.97C12.26-9.97 11.86-9.55 11.86-8.84L11.86-3.25C11.86-2.53 12.25-2.11 12.96-2.11ZM20.86-2.10C22.25-2.10 23.47-2.78 23.47-4.18C23.47-5.20 22.79-5.63 21.81-5.82L20.82-6.02C20.52-6.09 20.27-6.26 20.27-6.53C20.27-6.81 20.46-7.00 20.77-7.00C21.14-7.00 21.47-6.71 21.69-6.49C21.91-6.28 22.21-6.23 22.38-6.23C22.89-6.23 23.18-6.45 23.18-6.89C23.18-6.98 23.14-7.08 23.11-7.20C22.80-8.07 21.71-8.39 20.78-8.39C19.37-8.39 18.25-7.77 18.25-6.41C18.25-5.41 18.87-4.84 19.85-4.63L20.82-4.42C21.12-4.35 21.38-4.24 21.38-3.94C21.38-3.61 21.07-3.48 20.85-3.48C20.45-3.48 20.17-3.63 19.86-3.95C19.56-4.23 19.27-4.35 18.97-4.35C18.54-4.35 18.20-4.03 18.20-3.59C18.20-3.46 18.26-3.26 18.34-3.09C18.74-2.34 19.88-2.10 20.86-2.10ZM14.04-6.32L14.04-8.36L14.53-8.36C15.06-8.36 15.34-7.91 15.34-7.34C15.34-6.84 15.12-6.32 14.52-6.32Z" fill="currentColor"/>
</svg>