<svg xmlns="http://www.w3.org/2000/svg" viewBox="0 0 24 24" width="24" height="24">
  <title>scale.3d</title>
  <path transform="matrix(0.7646356033452808, 0, 0, 0.7646356033452808, 0.17204301075268802, 18.508217143682977)" d="M2.40-0.12C2.40 0.69 2.79 1.36 3.49 1.77L5.77 3.07C6.40 3.43 6.94 3.46 7.61 3.07L9.86 1.77C10.52 1.37 10.78 0.93 10.79 0.19L10.80-0.77L15.52-3.14L20.13-0.82L20.14 0.20C20.16 0.95 20.41 1.39 21.08 1.78L23.32 3.08C24 3.48 24.54 3.45 25.17 3.08L27.45 1.78C28.14 1.37 28.54 0.71 28.54-0.11L28.55-2.73C28.55-3.48 28.28-3.95 27.62-4.34L25.35-5.65C24.73-6.01 24.14-5.99 23.52-5.65L21.34-4.42L17.40-6.40L17.40-12.13L18.84-12.96C19.48-13.32 19.75-13.80 19.75-14.57L19.75-17.17C19.75-17.94 19.49-18.40 18.84-18.77L16.56-20.10C15.86-20.51 15.09-20.47 14.39-20.09L12.11-18.79C11.47-18.42 11.19-17.93 11.19-17.17L11.19-14.57C11.19-13.82 11.47-13.34 12.11-12.96L13.63-12.08L13.63-6.40L9.64-4.39L7.42-5.66C6.80-6.01 6.21-6.02 5.59-5.66L3.32-4.35C2.66-3.97 2.39-3.49 2.39-2.75Z" fill="currentColor"/>
</svg>