<svg xmlns="http://www.w3.org/2000/svg" viewBox="0 0 24 24" width="24" height="24">
  
  <path transform="matrix(0.7102233319461784, 0, 0, 0.7102233319461784, 0.8449360133139967, 18.396171452351226)" d="M3.20-0.19C2.40 3.07 3.89 5.07 7.08 5.07L24.34 5.07C27.52 5.07 29.00 3.07 28.22-0.19L25.70-10.54C25.11-12.96 23.43-14.23 20.84-14.23L17.79-14.23L17.79-14.88C19.15-15.62 20.07-17.06 20.07-18.70C20.07-21.09 18.08-23.09 15.70-23.09C13.32-23.09 11.34-21.09 11.34-18.70C11.34-17.07 12.28-15.63 13.63-14.88L13.63-14.23L10.58-14.23C7.99-14.23 6.30-12.96 5.72-10.54ZM15.70-17.60C15.13-17.60 14.60-18.13 14.60-18.70C14.60-19.29 15.13-19.82 15.70-19.82C16.30-19.82 16.82-19.29 16.82-18.70C16.82-18.11 16.30-17.60 15.70-17.60Z" fill="currentColor"/>
</svg>