<svg xmlns="http://www.w3.org/2000/svg" viewBox="0 0 24 24" width="24" height="24">
  
  <path transform="matrix(0.7064017660044151, 0, 0, 0.7064017660044151, -0.11092715231788075, 17.96440397350993)" d="M7.58 3.18L26.71 3.18C29.60 3.18 31.30 1.48 31.30-1.42L31.30-15.47C31.30-18.38 29.60-20.06 26.71-20.06L7.58-20.06C4.69-20.06 2.99-18.38 2.99-15.47L2.99-1.42C2.99 1.48 4.69 3.18 7.58 3.18ZM7.15-14.84C7.15-15.61 7.50-15.90 8.21-15.90L26.07-15.90C26.79-15.90 27.14-15.61 27.14-14.84L27.14-12.79L7.15-12.79ZM24.14-13.15C24.79-13.17 25.32-13.69 25.32-14.34C25.32-15 24.79-15.54 24.14-15.54C23.50-15.54 22.95-14.98 22.95-14.34C22.95-13.69 23.50-13.14 24.14-13.15ZM7.15-6.88L7.15-10.01L27.14-10.01L27.14-6.88ZM24.14-7.25C24.79-7.27 25.32-7.79 25.32-8.44C25.32-9.09 24.79-9.63 24.14-9.63C23.50-9.63 22.95-9.07 22.95-8.44C22.95-7.79 23.50-7.23 24.14-7.25ZM8.21-0.98C7.50-0.98 7.15-1.29 7.15-2.06L7.15-4.10L27.14-4.10L27.14-2.06C27.14-1.29 26.79-0.98 26.07-0.98ZM24.14-1.36C24.79-1.37 25.32-1.90 25.32-2.54C25.32-3.21 24.79-3.75 24.14-3.75C23.50-3.75 22.95-3.18 22.95-2.54C22.95-1.90 23.50-1.35 24.14-1.36Z" fill="currentColor"/>
</svg>