<svg xmlns="http://www.w3.org/2000/svg" viewBox="0 0 24 24" width="24" height="24">
  <title>shield.lefthalf.filled.slash</title>
  <path transform="matrix(0.8123115976519117, 0, 0, 0.8123115976519117, 1.2949722975173916, 18.715849595430747)" d="M23.30-2.37C23.94-3.45 24.22-4.63 24.22-6.06L24.22-14.44C24.22-16.55 23.64-17.51 21.71-18.34C20.78-18.74 16.72-20.00 15.93-20.24C15.21-20.45 14.30-20.58 13.61-20.58C12.91-20.58 12-20.44 11.29-20.24C10.71-20.09 8.40-19.36 6.82-18.82L13.61-12.04L13.61-16.92C13.95-16.92 14.25-16.84 14.87-16.66C15.53-16.44 18.49-15.48 20.02-14.86C20.36-14.72 20.48-14.50 20.48-14.02L20.48-6.52C20.48-6.07 20.45-5.67 20.34-5.31ZM23.30 3.14C23.72 3.55 24.41 3.56 24.81 3.14C25.22 2.72 25.23 2.05 24.81 1.63L3.07-20.10C2.65-20.52 1.96-20.52 1.54-20.10C1.14-19.70 1.14-19.00 1.54-18.59ZM2.99-14.66L2.99-6.06C2.99-1.79 5.55 0.35 12.62 3.76C12.94 3.91 13.31 4.04 13.61 4.04C13.90 4.04 14.27 3.91 14.59 3.76C16.34 2.91 17.82 2.14 19.04 1.39L16.22-1.43C15.57-1.05 14.87-0.63 14.05-0.18C13.76 0 13.69 0.04 13.61 0.04L13.61-4.04Z" fill="currentColor"/>
</svg>