<svg xmlns="http://www.w3.org/2000/svg" viewBox="0 0 24 24" width="24" height="24">
  <title>shoeprints.fill</title>
  <path transform="matrix(0.6751891500603157, 0, 0, 0.6751891500603157, 1.9446390776703386, 17.872219941652265)" d="M8.44-23.51C5.50-23.51 2.99-19.52 2.99-16.03C2.99-14.58 3.46-11.81 4.52-9.48L12.36-9.48C13.43-11.81 13.90-14.58 13.90-16.03C13.90-19.52 11.38-23.51 8.44-23.51ZM23.74-15.13C20.98-16.14 17.25-13.27 16.05-9.97C15.56-8.61 15.04-5.86 15.25-3.30L22.63-0.62C24.42-2.44 25.80-4.90 26.30-6.26C27.49-9.53 26.51-14.13 23.74-15.13ZM8.46-1.09C10.63-1.09 11.85-3.18 11.85-6.08C11.85-6.32 11.85-6.64 11.81-7.28L5.09-7.28C5.05-6.64 5.05-6.32 5.05-6.08C5.05-3.18 6.27-1.09 8.46-1.09ZM16.08 5.93C18.12 6.67 19.98 5.12 20.96 2.39C21.06 2.17 21.16 1.85 21.35 1.25L15.02-1.04C14.78-0.46 14.67-0.15 14.59 0.07C13.59 2.81 14.03 5.17 16.08 5.93Z" fill="currentColor"/>
</svg>