<svg xmlns="http://www.w3.org/2000/svg" viewBox="0 0 24 24" width="24" height="24">
  
  <path transform="matrix(0.4269869068468018, 0, 0, 0.4269869068468018, 0.7240430322742055, 15.485154895780397)" d="M9.26-0.91L9.82-0.91C10.46 3.14 13.59 4.21 15.97 4.21L35.33 4.21C39.71 4.21 42.30 3.55 45.57 1.71C48.39 0.15 49.83-1.97 49.83-4.41C49.83-7.90 47.25-10.42 43.70-10.42C43.50-10.42 43.29-10.42 43.05-10.39C42.67-13.43 40.23-15.54 36.97-15.54C35.51-15.54 32.47-15.05 31.45-15.05C30.53-15.05 30.49-15.05 29.51-15.62L22.89-19.49C20.03-21.15 17.12-20.94 14.88-18.01C13.62-16.42 12.67-15.90 11.47-15.90C10.37-15.90 9.76-16.14 8.84-16.63C6.16-18.04 2.99-16.52 2.99-13.24L2.99-7.64C2.99-2.26 6.59-0.91 9.26-0.91ZM8.58-7.65C7.39-7.65 6.77-7.82 6.42-8.17L6.42-13.25C6.42-13.69 6.79-13.83 7.11-13.65C8.34-13.02 9.69-12.48 11.47-12.48C13.62-12.48 15.84-13.64 17.60-15.94C18.76-17.43 19.45-17.50 21.14-16.54L23.94-14.91C23.11-14.50 22.32-13.83 21.60-12.89C20.33-11.30 19.38-10.78 18.19-10.78C17.09-10.78 16.48-11.02 15.55-11.51C12.88-12.91 9.70-11.40 9.70-8.12L9.70-7.65ZM36.22-10.49L33.94-11.84C35.11-11.96 36.32-12.11 36.95-12.11C38.57-12.11 39.56-11.43 39.76-10.07C39.09-9.98 38.51-9.93 38.17-9.93C37.24-9.93 37.21-9.93 36.22-10.49ZM13.14-3.05L13.14-8.13C13.14-8.57 13.50-8.70 13.83-8.52C15.06-7.90 16.41-7.36 18.19-7.36C20.33-7.36 22.56-8.52 24.32-10.82C25.41-12.22 26.10-12.36 27.59-11.55L26.12-9.57C25.79-9.12 25.83-8.45 26.27-8.09C26.71-7.72 27.41-7.73 27.77-8.23L29.44-10.49L30.30-9.98L28.95-8.16C28.58-7.68 28.64-7.03 29.09-6.68C29.58-6.28 30.22-6.32 30.60-6.83L32.13-8.93L33-8.43L31.77-6.77C31.42-6.29 31.46-5.66 31.90-5.30C32.37-4.89 33.02-4.92 33.40-5.45L34.83-7.37C36.16-6.62 36.88-6.50 38.17-6.50C39.45-6.50 42.50-6.98 43.66-6.98C44.20-6.98 44.64-6.62 44.64-6.14C44.64-5.78 44.38-5.38 43.79-5.06L41.70-3.94C39.83-2.94 38.48-2.53 35.33-2.53L15.29-2.53C14.11-2.53 13.48-2.68 13.14-3.05ZM8.58-5.67L9.70-5.67L9.70-4.35L9.23-4.35C7.89-4.35 6.94-4.62 6.59-6.06C7.16-5.78 7.75-5.67 8.58-5.67ZM13.29-0.93C13.88-0.67 14.45-0.55 15.29-0.55L35.33-0.55C38.65-0.55 40.37-1.02 42.46-2.14L44.10-3.02C45.39-3.70 46.10-4.49 46.28-5.30C46.35-5.03 46.37-4.73 46.37-4.41C46.37-3.15 45.63-2.20 43.92-1.27C41.10 0.30 39.23 0.77 35.33 0.77L15.95 0.77C14.60 0.77 13.65 0.52 13.29-0.93Z" fill="currentColor"/>
</svg>