<svg xmlns="http://www.w3.org/2000/svg" viewBox="0 0 24 24" width="24" height="24">
  <title>sidebar.squares.right</title>
  <path transform="matrix(0.7064017660044151, 0, 0, 0.7064017660044151, -0.11092715231788075, 17.96440397350993)" d="M8.52 3.18L25.79 3.18C29.19 3.18 31.30 1.05 31.30-2.37L31.30-14.53C31.30-17.95 29.19-20.06 25.79-20.06L8.52-20.06C5.11-20.06 2.99-17.95 2.99-14.53L2.99-2.37C2.99 1.05 5.11 3.18 8.52 3.18ZM9.15-0.98C7.91-0.98 7.15-1.75 7.15-3L7.15-13.90C7.15-15.14 7.91-15.90 9.15-15.90L16.44-15.90L16.44-0.98ZM25.14-15.90C26.38-15.90 27.14-15.14 27.14-13.90L27.14-3C27.14-1.75 26.38-0.98 25.14-0.98L20.18-0.98L20.18-15.90ZM24.42-11.07C24.98-11.07 25.27-11.33 25.27-11.87L25.27-13.39C25.27-13.95 24.98-14.20 24.42-14.20L22.84-14.20C22.29-14.20 22.01-13.95 22.01-13.39L22.01-11.87C22.01-11.33 22.29-11.07 22.84-11.07ZM24.42-6.89C24.98-6.89 25.27-7.14 25.27-7.69L25.27-9.21C25.27-9.76 24.98-10.01 24.42-10.01L22.84-10.01C22.29-10.01 22.01-9.76 22.01-9.21L22.01-7.69C22.01-7.14 22.29-6.89 22.84-6.89ZM24.42-2.68C24.98-2.68 25.27-2.95 25.27-3.50L25.27-5.03C25.27-5.55 24.98-5.82 24.42-5.82L22.84-5.82C22.29-5.82 22.01-5.55 22.01-5.03L22.01-3.50C22.01-2.95 22.29-2.68 22.84-2.68Z" fill="currentColor"/>
</svg>