<svg xmlns="http://www.w3.org/2000/svg" viewBox="0 0 24 24" width="24" height="24">
  <title>signpost.and.arrowtriangle.up.fill</title>
  <path transform="matrix(0.7521668870280593, 0, 0, 0.7521668870280593, 1.2419568091670334, 18.38607315998237)" d="M2.99-7.54C2.99-5.47 4.24-4.23 6.32-4.23L12.49-4.23L12.49 1.20L9.67 1.20C8.68 1.20 7.86 2.00 7.86 3C7.86 3.98 8.67 4.80 9.67 4.80L18.95 4.80C19.93 4.80 20.75 4.00 20.75 3C20.75 2.02 19.95 1.20 18.95 1.20L16.11 1.20L16.11-4.23L22.28-4.23C24.35-4.23 25.62-5.47 25.62-7.54L25.62-15.20C25.62-17.26 24.35-18.50 22.28-18.50L16.11-18.50L16.11-19.98C16.11-20.96 15.29-21.79 14.30-21.79C13.31-21.79 12.49-20.98 12.49-19.98L12.49-18.50L6.32-18.50C4.24-18.50 2.99-17.26 2.99-15.20ZM11.40-8.78C10.54-8.78 10.29-9.56 10.86-10.34L13.49-13.88C13.92-14.46 14.68-14.48 15.14-13.88L17.74-10.34C18.32-9.55 18.05-8.78 17.20-8.78Z" fill="currentColor"/>
</svg>