<svg xmlns="http://www.w3.org/2000/svg" viewBox="0 0 24 24" width="24" height="24">
  
  <path transform="matrix(0.7810831426392068, 0, 0, 0.7810831426392068, 0.3615560640732265, 18.608695652173914)" d="M14.89 4.34C21.97 4.34 27.70-1.39 27.70-8.46C27.70-15.53 21.97-21.26 14.89-21.26C7.83-21.26 2.10-15.53 2.10-8.46C2.10-1.39 7.83 4.34 14.89 4.34ZM14.89 0.16C10.13 0.16 6.27-3.69 6.27-8.46C6.27-13.23 10.13-17.09 14.89-17.09C19.66-17.09 23.53-13.23 23.53-8.46C23.53-3.69 19.66 0.16 14.89 0.16ZM11.47-6.97L14.03-6.97L14.03-4.34L12.88-4.34C12.40-4.34 12-3.95 12-3.47C12-2.99 12.40-2.61 12.88-2.61L16.92-2.61C17.39-2.61 17.78-2.99 17.78-3.47C17.78-3.95 17.39-4.34 16.92-4.34L15.75-4.34L15.75-6.97L17.91-6.97C18.40-6.97 18.70-7.11 19.08-7.48L20.36-8.70C21.06-9.40 21.07-10.13 20.34-10.82L19.08-12.05C18.70-12.40 18.40-12.54 17.91-12.54L15.75-12.54L15.75-13.46C15.75-13.93 15.38-14.32 14.89-14.32C14.41-14.32 14.03-13.93 14.03-13.46L14.03-12.54L11.47-12.54C10.58-12.54 10.04-12.01 10.04-11.10L10.04-8.40C10.04-7.51 10.58-6.97 11.47-6.97Z" fill="currentColor"/>
</svg>