<svg xmlns="http://www.w3.org/2000/svg" viewBox="0 0 24 24" width="24" height="24">
  <title>singaporedollarsign.circle</title>
  <path transform="matrix(0.7810831426392068, 0, 0, 0.7810831426392068, 0.3615560640732265, 18.608695652173914)" d="M14.89 4.34C21.97 4.34 27.70-1.39 27.70-8.46C27.70-15.53 21.97-21.26 14.89-21.26C7.83-21.26 2.10-15.53 2.10-8.46C2.10-1.39 7.83 4.34 14.89 4.34ZM14.89 0.16C10.13 0.16 6.27-3.69 6.27-8.46C6.27-13.23 10.13-17.09 14.89-17.09C19.66-17.09 23.53-13.23 23.53-8.46C23.53-3.69 19.66 0.16 14.89 0.16ZM18-3.71C18.11-3.71 18.19-3.80 18.19-3.90L18.19-4.69C19.65-4.77 20.81-5.53 20.81-6.94C20.81-8.13 20.03-8.67 18.91-9.09L18.19-9.35L18.19-10.65C18.46-10.61 18.66-10.45 18.77-10.17C18.95-9.79 19.23-9.59 19.66-9.59C20.32-9.59 20.58-10.03 20.58-10.38C20.58-10.55 20.54-10.69 20.48-10.85C20.18-11.70 19.22-12.13 18.19-12.18L18.19-12.95C18.19-13.07 18.11-13.15 18-13.15C17.88-13.15 17.80-13.07 17.80-12.95L17.80-12.18C16.45-12.13 15.21-11.40 15.21-9.94C15.21-8.75 15.93-8.18 17.05-7.76L17.80-7.49L17.80-6.20C17.45-6.23 17.23-6.41 17.10-6.71C16.91-7.10 16.64-7.30 16.21-7.30C15.67-7.30 15.28-7.01 15.28-6.47C15.28-6.33 15.32-6.16 15.38-6.01C15.74-5.11 16.69-4.71 17.80-4.68L17.80-3.90C17.80-3.80 17.88-3.71 18-3.71ZM11.73-4.35C13.43-4.35 14.60-5.18 14.60-6.83C14.60-8.09 14.00-8.66 12.88-9.05L12.09-9.32C11.59-9.49 11.12-9.71 11.12-10.24C11.12-10.58 11.38-10.83 11.73-10.83C12.18-10.83 12.35-10.57 12.48-10.29C12.69-9.86 12.97-9.68 13.45-9.68C14.10-9.68 14.39-10.08 14.39-10.52C14.39-10.77 14.32-10.97 14.26-11.09C13.82-12.14 12.79-12.50 11.72-12.50C10.18-12.50 8.98-11.68 8.98-10.08C8.98-8.88 9.59-8.19 10.80-7.77L11.41-7.56C12.09-7.31 12.47-7.14 12.47-6.63C12.47-6.23 12.14-6.02 11.74-6.02C11.38-6.02 11.11-6.19 10.96-6.52C10.72-6.96 10.42-7.16 9.94-7.16C9.35-7.16 9-6.76 9-6.26C9-6.04 9.08-5.75 9.21-5.52C9.64-4.72 10.66-4.35 11.73-4.35ZM17.20-10.13C17.20-10.46 17.47-10.63 17.80-10.66L17.80-9.50C17.45-9.64 17.20-9.81 17.20-10.13ZM18.83-6.70C18.83-6.39 18.53-6.25 18.19-6.20L18.19-7.35C18.57-7.21 18.83-7.08 18.83-6.70Z" fill="currentColor"/>
</svg>