<svg xmlns="http://www.w3.org/2000/svg" viewBox="0 0 24 24" width="24" height="24">
  <title>sleep</title>
  <path transform="matrix(0.7810831426392068, 0, 0, 0.7810831426392068, 0.3615560640732265, 18.608695652173914)" d="M14.89 4.34C21.97 4.34 27.70-1.39 27.70-8.46C27.70-15.53 21.97-21.26 14.89-21.26C7.83-21.26 2.10-15.53 2.10-8.46C2.10-1.39 7.83 4.34 14.89 4.34ZM6.27-8.46C6.27-13.23 10.13-17.09 14.89-17.09C19.66-17.09 23.53-13.23 23.53-8.46C23.53-7.91 23.47-7.37 23.38-6.86L6.42-6.86C6.32-7.37 6.27-7.91 6.27-8.46ZM14.89 0.16C11.91 0.16 9.27-1.35 7.72-3.66L22.07-3.66C20.52-1.35 17.89 0.16 14.89 0.16Z" fill="currentColor"/>
</svg>