<svg xmlns="http://www.w3.org/2000/svg" viewBox="0 0 24 24" width="24" height="24">
  
  <path transform="matrix(0.7810831426392068, 0, 0, 0.7810831426392068, 0.3615560640732265, 18.608695652173914)" d="M14.89 4.34C21.97 4.34 27.70-1.39 27.70-8.46C27.70-15.53 21.97-21.26 14.89-21.26C7.83-21.26 2.10-15.53 2.10-8.46C2.10-1.39 7.83 4.34 14.89 4.34ZM14.89 0.16C10.13 0.16 6.27-3.69 6.27-8.46C6.27-13.23 10.13-17.09 14.89-17.09C19.66-17.09 23.53-13.23 23.53-8.46C23.53-3.69 19.66 0.16 14.89 0.16ZM8.30-9.28C8.30-8.54 8.48-7.84 9.21-7.16C9.46-8.23 10.23-9.09 11.29-9.47C11.85-10.56 13.02-11.30 14.29-11.30C14.32-11.30 14.38-11.30 14.41-11.29C15.28-12.16 16.48-12.40 17.44-12.27C17.12-12.83 16.41-13.16 15.69-13.16C15.46-13.16 15.25-13.14 15.04-13.07C14.46-13.79 13.72-14.10 12.86-14.10C11.45-14.10 10.27-13.09 10.01-11.73C8.98-11.37 8.30-10.38 8.30-9.28ZM12.48-4.00L18.79-4.00C20.37-4.00 21.50-5.10 21.50-6.59C21.50-7.69 20.81-8.66 19.78-9.02C19.52-10.39 18.34-11.41 16.93-11.41C16.08-11.41 15.29-11.04 14.79-10.36C14.63-10.38 14.46-10.39 14.29-10.39C13.23-10.39 12.26-9.70 11.94-8.72C10.83-8.50 10.02-7.54 10.02-6.40C10.02-5.03 11.06-4.00 12.48-4.00Z" fill="currentColor"/>
</svg>