<svg xmlns="http://www.w3.org/2000/svg" viewBox="0 0 24 24" width="24" height="24">
  <title>sparkles.rectangle.stack</title>
  <path transform="matrix(0.6829398426037081, 0, 0, 0.6829398426037081, 1.167667066826732, 17.782312925170068)" d="M8.31-21.13L23.41-21.13C23.30-22.38 22.44-23.11 21.13-23.11L10.58-23.11C9.27-23.11 8.43-22.38 8.31-21.13ZM6.05-17.14L25.68-17.14C25.55-18.46 24.76-19.29 23.19-19.29L8.53-19.29C6.96-19.29 6.18-18.46 6.05-17.14ZM7.58 6.18L24.13 6.18C27.04 6.18 28.73 4.48 28.73 1.58L28.73-10.55C28.73-13.45 27.04-15.14 24.13-15.14L7.58-15.14C4.69-15.14 2.99-13.45 2.99-10.55L2.99 1.58C2.99 4.48 4.69 6.18 7.58 6.18ZM8.21 2.02C7.50 2.02 7.15 1.72 7.15 0.94L7.15-9.91C7.15-10.69 7.50-10.98 8.21-10.98L23.50-10.98C24.21-10.98 24.56-10.69 24.56-9.91L24.56 0.94C24.56 1.72 24.21 2.02 23.50 2.02ZM17.24-0.33C17.51-0.33 17.72-0.52 17.77-0.77C18.21-3.96 18.62-4.48 21.86-4.88C22.14-4.92 22.32-5.14 22.32-5.41C22.32-5.66 22.14-5.87 21.86-5.91C18.75-6.30 18.30-6.79 17.77-10.01C17.71-10.29 17.51-10.46 17.24-10.46C16.99-10.46 16.78-10.29 16.75-10.01C16.32-6.83 15.83-6.33 12.64-5.91C12.38-5.87 12.19-5.66 12.19-5.41C12.19-5.14 12.38-4.93 12.64-4.88C15.73-4.35 16.17-4.02 16.75-0.77C16.79-0.52 17.00-0.33 17.24-0.33ZM12.57 1.46C12.74 1.46 12.90 1.32 12.94 1.15C13.16-0.43 13.14-0.43 14.84-0.75C15.02-0.80 15.14-0.94 15.14-1.11C15.14-1.29 15.01-1.44 14.84-1.46C13.16-1.70 13.14-1.71 12.94-3.35C12.90-3.54 12.75-3.68 12.57-3.68C12.38-3.68 12.25-3.54 12.21-3.35C12-1.78 12-1.78 10.30-1.46C10.11-1.43 9.98-1.29 9.98-1.11C9.98-0.93 10.11-0.80 10.35-0.75C11.99-0.49 12-0.47 12.21 1.13C12.25 1.32 12.38 1.46 12.57 1.46Z" fill="currentColor"/>
</svg>