<svg xmlns="http://www.w3.org/2000/svg" viewBox="0 0 24 24" width="24" height="24">
  <title>spatial.capture.on.hexagon.fill</title>
  <path transform="matrix(0.6440251572327044, 0, 0, 0.6440251572327044, 0.07547169811320775, 17.33207547169811)" d="M4.69-2.20L9.50 0.59C9.13-0.14 8.89-0.98 8.89-1.93L8.89-11.40C8.89-13.08 9.71-14.95 11.55-16.02L19.37-20.54L16.31-22.32C15.22-22.96 13.97-22.96 12.88-22.32L4.69-17.59C3.63-16.97 2.99-15.88 2.99-14.63L2.99-5.16C2.99-3.91 3.63-2.80 4.69-2.20ZM12.53 1.03L20.72 5.77C21.81 6.40 23.06 6.40 24.15 5.77L32.34 1.03C33.40 0.42 34.04-0.68 34.04-1.93L34.04-11.40C34.04-12.64 33.40-13.75 32.34-14.36L24.15-19.10C23.06-19.72 21.81-19.72 20.72-19.10L12.53-14.36C11.47-13.75 10.83-12.64 10.83-11.40L10.83-1.93C10.83-0.68 11.47 0.42 12.53 1.03ZM20.02-6.29C18.53-6.29 17.29-7.52 17.29-9.04C17.29-10.52 18.53-11.77 20.02-11.77C21.50-11.77 22.73-10.52 22.73-9.04C22.73-7.52 21.50-6.29 20.02-6.29ZM14.94-1.77C14.64-1.96 14.45-2.27 14.45-2.63L14.45-3.23L16.03-4.61C16.46-4.98 16.83-5.18 17.38-5.18C17.86-5.18 18.35-4.98 18.81-4.59L20.74-2.86L25.50-7.11C25.97-7.54 26.48-7.72 27.06-7.72C27.60-7.72 28.17-7.54 28.62-7.10L30.42-5.40L30.42-2.63C30.42-2.27 30.25-1.96 29.94-1.77L22.93 2.29C22.62 2.46 22.27 2.46 21.96 2.29Z" fill="currentColor"/>
</svg>