<svg xmlns="http://www.w3.org/2000/svg" viewBox="0 0 24 24" width="24" height="24">
  <title>speaker.plus.fill</title>
  <path transform="matrix(0.6653671215074723, 0, 0, 0.6653671215074723, 0.011695906432748648, 17.621832358674464)" d="M16.66 2.70C18 2.70 19.02 1.68 19.02 0.34L19.02-17.23C19.02-18.56 18-19.59 16.66-19.59C15.86-19.59 15.20-19.30 14.36-18.52L9.86-14.37C9.80-14.32 9.75-14.29 9.69-14.29L6.53-14.29C4.24-14.29 2.99-12.97 2.99-10.61L2.99-6.29C2.99-3.93 4.24-2.60 6.53-2.60L9.68-2.60C9.74-2.60 9.79-2.60 9.84-2.55L14.36 1.63C15.16 2.38 15.81 2.70 16.66 2.70ZM23.93-6.84L26.09-6.84L26.09-4.69C26.09-3.80 26.78-3.12 27.70-3.12C28.63-3.12 29.32-3.80 29.32-4.69L29.32-6.84L31.48-6.84C32.38-6.84 33.05-7.55 33.05-8.46C33.05-9.39 32.38-10.08 31.48-10.08L29.32-10.08L29.32-12.23C29.32-13.14 28.63-13.80 27.70-13.80C26.78-13.80 26.09-13.14 26.09-12.23L26.09-10.08L23.93-10.08C23.04-10.08 22.36-9.39 22.36-8.46C22.36-7.55 23.04-6.84 23.93-6.84Z" fill="currentColor"/>
</svg>