<svg xmlns="http://www.w3.org/2000/svg" viewBox="0 0 24 24" width="24" height="24">
  <title>sportscourt.circle.fill</title>
  <path transform="matrix(0.7810831426392068, 0, 0, 0.7810831426392068, 0.3615560640732265, 18.608695652173914)" d="M14.89 4.34C21.97 4.34 27.70-1.39 27.70-8.46C27.70-15.53 21.97-21.26 14.89-21.26C7.83-21.26 2.10-15.53 2.10-8.46C2.10-1.39 7.83 4.34 14.89 4.34ZM10.34-3.43C8.86-3.43 8.04-4.23 8.04-5.67L8.04-5.71L9.41-5.71C10.25-5.71 10.71-6.16 10.71-7.02L10.71-9.89C10.71-10.76 10.25-11.21 9.41-11.21L8.04-11.21L8.04-11.24C8.04-12.69 8.86-13.49 10.34-13.49L14.32-13.49L14.32-10.89C13.23-10.63 12.41-9.64 12.41-8.46C12.41-7.28 13.23-6.29 14.32-6.04L14.32-3.43ZM15.47-3.43L15.47-6.04C16.56-6.30 17.38-7.29 17.38-8.46C17.38-9.63 16.56-10.62 15.47-10.89L15.47-13.49L19.46-13.49C20.94-13.49 21.76-12.69 21.76-11.24L21.76-11.21L20.39-11.21C19.54-11.21 19.09-10.76 19.09-9.89L19.09-7.02C19.09-6.16 19.54-5.71 20.39-5.71L21.76-5.71L21.76-5.67C21.76-4.23 20.94-3.43 19.46-3.43ZM8.04-6.79L8.04-10.13L9.40-10.13C9.55-10.13 9.64-10.03 9.64-9.88L9.64-7.04C9.64-6.88 9.55-6.79 9.40-6.79ZM21.76-6.79L20.40-6.79C20.25-6.79 20.14-6.88 20.14-7.04L20.14-9.88C20.14-10.03 20.25-10.13 20.40-10.13L21.76-10.13ZM14.32-7.21C13.84-7.42 13.51-7.90 13.51-8.46C13.51-9.04 13.84-9.50 14.32-9.71ZM15.47-7.23L15.47-9.70C15.94-9.49 16.28-9.01 16.28-8.46C16.28-7.91 15.94-7.44 15.47-7.23Z" fill="currentColor"/>
</svg>