<svg xmlns="http://www.w3.org/2000/svg" viewBox="0 0 24 24" width="24" height="24">
  
  <path transform="matrix(0.7256235827664399, 0, 0, 0.7256235827664399, 0.537414965986394, 18.147959183673468)" d="M17.85 4.56L26.68-0.54C27.89-1.24 28.61-2.00 28.61-3.20C28.61-4.41 27.89-5.17 26.68-5.87L22.17-8.47L26.68-11.07C27.89-11.77 28.61-12.54 28.61-13.73C28.61-14.93 27.89-15.69 26.68-16.39L17.85-21.49C17.02-21.97 16.42-22.25 15.80-22.25C15.18-22.25 14.59-21.97 13.75-21.49L4.91-16.39C3.70-15.69 2.99-14.93 2.99-13.73C2.99-12.54 3.70-11.77 4.91-11.07L9.41-8.47L4.91-5.87C3.70-5.17 2.99-4.41 2.99-3.20C2.99-2.00 3.70-1.24 4.91-0.54L13.75 4.56C14.59 5.04 15.18 5.31 15.80 5.31C16.42 5.31 17.02 5.04 17.85 4.56ZM15.80-5.21C16.42-5.21 17.02-5.48 17.85-5.96L18.22-6.19L23.38-3.30C23.43-3.28 23.44-3.25 23.44-3.20C23.44-3.16 23.43-3.13 23.38-3.11L16.09 0.96C15.96 1.02 15.89 1.05 15.80 1.05C15.70 1.05 15.63 1.02 15.50 0.96L8.21-3.11C8.17-3.13 8.16-3.16 8.16-3.20C8.16-3.25 8.17-3.28 8.21-3.30L13.37-6.19L13.75-5.96C14.59-5.48 15.18-5.21 15.80-5.21Z" fill="currentColor"/>
</svg>