<svg xmlns="http://www.w3.org/2000/svg" viewBox="0 0 24 24" width="24" height="24">
  <title>square.slash.fill</title>
  <path transform="matrix(0.8008284726136412, 0, 0, 0.8008284726136412, 0.30371390908301965, 18.773993826854095)" d="M25.28 3.70C25.69 4.11 26.38 4.13 26.79 3.70C27.19 3.29 27.20 2.61 26.79 2.20L3.95-20.63C3.53-21.04 2.85-21.04 2.43-20.63C2.02-20.21 2.02-19.51 2.43-19.11ZM21.63-20.06L7.59-20.06C7.41-20.06 7.21-20.05 7.04-20.04L26.20-0.89C26.21-1.05 26.23-1.24 26.23-1.42L26.23-15.47C26.23-18.38 24.54-20.06 21.63-20.06ZM7.59 3.18L21.63 3.18C21.83 3.18 22.03 3.15 22.22 3.14L3.02-16.02C3.01-15.83 2.99-15.66 2.99-15.47L2.99-1.42C2.99 1.48 4.69 3.18 7.59 3.18Z" fill="currentColor"/>
</svg>