<svg xmlns="http://www.w3.org/2000/svg" viewBox="0 0 24 24" width="24" height="24">
  
  <path transform="matrix(0.5954873226331705, 0, 0, 0.5954873226331705, 0.22051639916259602, 17.03838101884159)" d="M4.48-13.79L7.24-13.79C8.25-13.79 8.73-14.30 8.73-15.25L8.73-18.05C8.73-19.03 8.25-19.54 7.24-19.54L4.48-19.54C3.47-19.54 2.99-19.03 2.99-18.05L2.99-15.25C2.99-14.30 3.47-13.79 4.48-13.79ZM17.04 2.13L31.98 2.13C34.89 2.13 36.57 0.43 36.57-2.46L36.57-14.46C36.57-17.36 34.89-19.05 31.98-19.05L17.04-19.05C14.13-19.05 12.45-17.36 12.45-14.46L12.45-2.46C12.45 0.43 14.13 2.13 17.04 2.13ZM17.67-2.04C16.96-2.04 16.61-2.33 16.61-3.11L16.61-13.82C16.61-14.60 16.96-14.89 17.67-14.89L31.35-14.89C32.06-14.89 32.41-14.60 32.41-13.82L32.41-3.11C32.41-2.33 32.06-2.04 31.35-2.04ZM4.48-5.59L7.24-5.59C8.25-5.59 8.73-6.09 8.73-7.04L8.73-9.84C8.73-10.83 8.25-11.33 7.24-11.33L4.48-11.33C3.47-11.33 2.99-10.83 2.99-9.84L2.99-7.04C2.99-6.09 3.47-5.59 4.48-5.59ZM4.48 2.61L7.24 2.61C8.25 2.61 8.73 2.11 8.73 1.16L8.73-1.64C8.73-2.63 8.25-3.13 7.24-3.13L4.48-3.13C3.47-3.13 2.99-2.63 2.99-1.64L2.99 1.16C2.99 2.11 3.47 2.61 4.48 2.61Z" fill="currentColor"/>
</svg>