<svg xmlns="http://www.w3.org/2000/svg" viewBox="0 0 24 24" width="24" height="24">
  <title>square.and.at.rectangle.fill</title>
  <path transform="matrix(0.7064017660044151, 0, 0, 0.7064017660044151, -0.11092715231788075, 17.96440397350993)" d="M7.58 3.18L26.71 3.18C29.60 3.18 31.30 1.48 31.30-1.42L31.30-15.47C31.30-18.38 29.60-20.06 26.71-20.06L7.58-20.06C4.69-20.06 2.99-18.38 2.99-15.47L2.99-1.42C2.99 1.48 4.69 3.18 7.58 3.18ZM8.75-3.59C7.54-3.59 6.84-4.27 6.84-5.45L6.84-11.47C6.84-12.66 7.54-13.34 8.75-13.34L14.71-13.34C15.90-13.34 16.62-12.66 16.62-11.47L16.62-5.45C16.62-4.27 15.90-3.59 14.71-3.59ZM23.44-3.64C20.50-3.64 18.60-5.53 18.60-8.44C18.60-11.34 20.50-13.29 23.39-13.29C26.13-13.29 28.03-11.52 28.03-8.95C28.03-7.05 27.11-5.79 25.70-5.79C25.16-5.79 24.68-6 24.40-6.36C24.05-6 23.57-5.79 23.06-5.79C21.73-5.79 20.81-6.88 20.81-8.45C20.81-9.97 21.74-11.09 23.02-11.09C23.40-11.09 23.78-10.91 24.14-10.68C24.26-10.91 24.53-11.09 24.81-11.09C25.24-11.09 25.58-10.73 25.58-10.29L25.58-7.61C25.58-7.32 25.69-7.25 25.85-7.25C26.26-7.25 26.54-7.91 26.54-8.87C26.54-10.64 25.28-11.81 23.39-11.81C21.47-11.81 20.18-10.46 20.18-8.40C20.18-6.35 21.45-5.16 23.60-5.16C24.35-5.16 24.67-5.32 25.04-5.37C25.16-5.39 25.27-5.41 25.37-5.41C25.76-5.41 26.04-5.11 26.04-4.72C26.04-4.36 25.83-4.09 25.41-3.91C24.94-3.73 24.25-3.64 23.44-3.64ZM9.42-5.72L14.04-5.72C14.32-5.72 14.48-5.93 14.48-6.29L14.48-10.63C14.48-10.99 14.32-11.20 14.04-11.20L9.42-11.20C9.14-11.20 8.98-10.99 8.98-10.63L8.98-6.29C8.98-5.93 9.14-5.72 9.42-5.72ZM23.30-7.32C23.81-7.32 24.12-7.77 24.12-8.48C24.12-9.18 23.81-9.60 23.31-9.60C22.79-9.60 22.52-9.21 22.52-8.47C22.52-7.72 22.79-7.32 23.30-7.32Z" fill="currentColor"/>
</svg>