<svg xmlns="http://www.w3.org/2000/svg" viewBox="0 0 24 24" width="24" height="24">
  <title>steeringwheel.arrowtriangle.left</title>
  <path transform="matrix(0.5487228663230977, 0, 0, 0.5487228663230977, 0.5226440603225009, 16.63627953069086)" d="M26.33 4.35C33.41 4.35 39.14-1.38 39.14-8.45C39.14-15.52 33.41-21.25 26.33-21.25C19.27-21.25 13.54-15.52 13.54-8.45C13.54-1.38 19.27 4.35 26.33 4.35ZM19.09-13.98C20.80-16.23 23.44-17.53 26.31-17.53C29.18-17.53 31.82-16.23 33.55-13.99C33.96-13.41 33.80-12.87 33.18-12.87L19.44-12.87C18.84-12.87 18.68-13.41 19.09-13.98ZM3.35-9.59C2.48-9.07 2.46-7.85 3.35-7.31L8.54-4.25C9.47-3.70 10.55-4.21 10.55-5.32L10.55-11.59C10.55-12.69 9.49-13.21 8.54-12.64ZM26.32-5.99C25.20-5.99 24.27-6.89 24.27-8.04C24.27-9.15 25.20-10.07 26.32-10.07C27.45-10.07 28.36-9.15 28.36-8.04C28.36-6.89 27.45-5.99 26.32-5.99ZM17.74-5.77C17.61-6.30 17.81-6.53 18.30-6.46C21.20-5.99 23.34-3.47 23.34-0.52C23.34-0.05 23.03 0.18 22.62-0.05C20.19-1.21 18.46-3.26 17.74-5.77ZM34.90-5.77C34.18-3.26 32.45-1.21 30.02-0.05C29.61 0.18 29.30-0.05 29.30-0.52C29.30-3.47 31.44-5.99 34.35-6.46C34.83-6.53 35.05-6.30 34.90-5.77Z" fill="currentColor"/>
</svg>