<svg xmlns="http://www.w3.org/2000/svg" viewBox="0 0 24 24" width="24" height="24">
  
  <path transform="matrix(0.6994535519125683, 0, 0, 0.6994535519125683, 1.5778688524590163, 18.959016393442624)" d="M14.89 4.35C21.95 4.35 27.70-1.39 27.70-8.45C27.70-10.93 26.99-13.27 25.75-15.22L26.80-16.25C27.22-16.66 27.41-17.07 27.41-17.57C27.41-18.54 26.66-19.30 25.70-19.30C25.13-19.30 24.73-19.14 24.32-18.75L23.46-17.95C21.61-19.62 19.28-20.75 16.69-21.13L16.69-22.49C16.69-23.51 15.90-24.25 14.91-24.25C13.96-24.25 13.11-23.51 13.11-22.49L13.11-21.13C6.90-20.25 2.10-14.89 2.10-8.45C2.10-1.39 7.85 4.35 14.89 4.35ZM14.89-5.86C13.48-5.86 12.33-7.00 12.33-8.45C12.33-9.28 12.71-9.97 13.51-10.54L13.51-15.43C13.51-16.20 14.11-16.80 14.89-16.80C15.67-16.80 16.28-16.20 16.28-15.43L16.28-10.51C17.07-10.00 17.47-9.32 17.47-8.45C17.47-7.00 16.32-5.86 14.89-5.86Z" fill="currentColor"/>
</svg>