<svg xmlns="http://www.w3.org/2000/svg" viewBox="0 0 24 24" width="24" height="24">
  
  <path transform="matrix(0.7810831426392068, 0, 0, 0.7810831426392068, 0.3615560640732265, 18.608695652173914)" d="M14.89 4.34C21.97 4.34 27.70-1.39 27.70-8.46C27.70-15.53 21.97-21.26 14.89-21.26C7.83-21.26 2.10-15.53 2.10-8.46C2.10-1.39 7.83 4.34 14.89 4.34ZM8.67-10.68L10.46-13.75C10.83-14.37 11.45-14.72 12.18-14.72L17.63-14.72C18.34-14.72 18.96-14.37 19.34-13.75L21.12-10.68ZM10.50-7.89C9.42-7.89 8.54-8.77 8.54-9.79L8.54-9.83L21.25-9.83L21.25-9.80C21.25-8.78 20.38-7.89 19.29-7.89C18.70-7.89 18.18-8.14 17.84-8.53C17.47-8.14 16.95-7.89 16.36-7.89C15.77-7.89 15.27-8.14 14.89-8.55C14.53-8.14 14.03-7.89 13.45-7.89C12.87-7.89 12.32-8.14 11.96-8.55C11.61-8.14 11.09-7.89 10.50-7.89ZM10.99-2.20C10.01-2.20 9.41-2.80 9.41-3.71L9.41-7.28C9.74-7.13 10.11-7.03 10.50-7.03C11.06-7.03 11.54-7.20 11.96-7.46C12.41-7.20 12.89-7.03 13.45-7.03C13.97-7.03 14.47-7.20 14.89-7.46C15.32-7.20 15.83-7.03 16.36-7.03C16.90-7.03 17.41-7.20 17.84-7.46C18.26-7.20 18.74-7.03 19.29-7.03C19.68-7.03 20.05-7.13 20.39-7.28L20.39-3.71C20.39-2.80 19.79-2.20 18.80-2.20ZM12.93-3.57L16.84-3.57L16.84-5.54C16.84-5.79 16.68-5.95 16.43-5.95L13.37-5.95C13.09-5.95 12.93-5.79 12.93-5.54Z" fill="currentColor"/>
</svg>