<svg xmlns="http://www.w3.org/2000/svg" viewBox="0 0 24 24" width="24" height="24">
  
  <path transform="matrix(0.7739984882842026, 0, 0, 0.7739984882842026, 0.7981859410430838, 18.725623582766442)" d="M2.10-6.29C2.10-2.77 4.73-0.59 7.37-0.59C8.44-0.59 9.35-0.75 10.17-1.13C9.77-0.53 9.32-0.05 8.82 0.53C7.61 1.95 8.14 4.23 10.38 4.23L18.56 4.23C20.80 4.23 21.34 1.95 20.12 0.53C19.71 0.04 19.34-0.49 19.03-1.03C19.82-0.71 20.67-0.56 21.55-0.56C24.21-0.60 26.85-2.74 26.85-6.29C26.85-12 19.50-14.77 16.73-20.04C16.22-21.06 15.54-21.61 14.47-21.61C13.42-21.61 12.74-21.06 12.21-20.04C9.43-14.79 2.10-12 2.10-6.29ZM6.74-6.69C6.74-9.22 11.19-10.31 14.47-16.46C17.77-10.31 22.22-9.22 22.22-6.69C22.22-5.60 21.52-4.77 20.16-4.77C19.15-4.77 18.56-5.00 17.70-5.39C16.66-5.86 15.06-5.33 15.06-3.42C15.06-2.37 15.55-1.22 16.02-0.45C16.14-0.27 16.02-0.15 15.90-0.15L13.04-0.15C12.93-0.15 12.82-0.26 12.93-0.45C13.45-1.37 13.90-2.44 13.90-3.42C13.90-5.33 12.28-5.86 11.25-5.39C10.38-5.00 9.81-4.77 8.79-4.77C7.43-4.77 6.74-5.60 6.74-6.69Z" fill="currentColor"/>
</svg>