<svg xmlns="http://www.w3.org/2000/svg" viewBox="0 0 24 24" width="24" height="24">
  <title>suitcase.rolling.fill</title>
  <path transform="matrix(0.5925925925925926, 0, 0, 0.5925925925925926, 3.895833333333334, 17.02777777777778)" d="M20.82-18.60L19.76-18.60L19.76-21.97C19.76-24.19 18.41-25.36 15.87-25.36L11.48-25.36C8.93-25.36 7.61-24.19 7.61-21.97L7.61-18.60L6.53-18.60C4.43-18.60 2.99-17.12 2.99-14.99L2.99-2.25L24.36-2.25L24.36-14.99C24.36-17.12 22.93-18.60 20.82-18.60ZM11.13-21.38C11.13-21.96 11.44-22.25 12.02-22.25L15.35-22.25C15.94-22.25 16.24-21.95 16.24-21.38L16.24-18.60L11.13-18.60ZM2.99 0.95L2.99 2.77C2.99 4.90 4.43 6.38 6.53 6.38L7.01 6.38L7.01 7.22C7.01 7.93 7.50 8.39 8.19 8.39L9.04 8.39C9.73 8.39 10.22 7.93 10.22 7.22L10.22 6.38L17.13 6.38L17.13 7.22C17.13 7.93 17.63 8.39 18.33 8.39L19.16 8.39C19.85 8.39 20.34 7.93 20.34 7.22L20.34 6.38L20.82 6.38C22.93 6.38 24.36 4.90 24.36 2.77L24.36 0.95Z" fill="currentColor"/>
</svg>