<svg xmlns="http://www.w3.org/2000/svg" viewBox="0 0 24 24" width="24" height="24">
  <title>suitcase.rolling.and.film.circle.fill</title>
  <path transform="matrix(0.7810831426392068, 0, 0, 0.7810831426392068, 0.3615560640732265, 18.608695652173914)" d="M14.89 4.34C21.97 4.34 27.70-1.39 27.70-8.46C27.70-15.53 21.97-21.26 14.89-21.26C7.83-21.26 2.10-15.53 2.10-8.46C2.10-1.39 7.83 4.34 14.89 4.34ZM13.25-11.21C12.04-11.21 11.13-10.31 11.13-9.09L11.13-6.27L8.53-6.27L8.53-11.25C8.53-12.11 9.11-12.71 9.95-12.71L10.37-12.71L10.37-14.06C10.37-14.93 10.91-15.43 11.93-15.43L13.69-15.43C14.70-15.43 15.25-14.93 15.25-14.06L15.25-12.71L15.66-12.71C16.51-12.71 17.07-12.11 17.07-11.25L17.07-11.21ZM11.80-12.71L13.83-12.71L13.83-13.83C13.83-14.05 13.71-14.17 13.49-14.17L12.15-14.17C11.91-14.17 11.80-14.05 11.80-13.83ZM20.13-10.24C20.84-10.24 21.29-9.79 21.29-9.09L21.29-3.84C21.29-3.18 20.84-2.71 20.13-2.71L13.25-2.71C12.57-2.71 12.11-3.18 12.11-3.84L12.11-9.09C12.11-9.79 12.57-10.24 13.25-10.24ZM13.25-8.61L13.54-8.61C13.64-8.61 13.70-8.66 13.70-8.74L13.70-9.01C13.70-9.08 13.64-9.14 13.54-9.14L13.25-9.14C13.17-9.14 13.10-9.08 13.10-9.01L13.10-8.74C13.10-8.67 13.17-8.61 13.25-8.61ZM19.79-8.61L20.09-8.61C20.17-8.61 20.25-8.66 20.25-8.74L20.25-9.01C20.25-9.08 20.17-9.14 20.09-9.14L19.79-9.14C19.71-9.14 19.65-9.08 19.65-9.01L19.65-8.74C19.65-8.67 19.71-8.61 19.79-8.61ZM14.54-7.28C14.54-7.13 14.67-7.02 14.80-7.02L18.60-7.02C18.73-7.02 18.86-7.13 18.86-7.28L18.86-8.88C18.86-9.05 18.73-9.14 18.60-9.14L14.80-9.14C14.67-9.14 14.54-9.05 14.54-8.88ZM13.25-7.42L13.54-7.42C13.64-7.42 13.70-7.48 13.70-7.58L13.70-7.80C13.70-7.90 13.64-7.98 13.54-7.98L13.25-7.98C13.17-7.98 13.10-7.90 13.10-7.80L13.10-7.58C13.10-7.48 13.17-7.42 13.25-7.42ZM19.79-7.42L20.09-7.42C20.17-7.42 20.25-7.48 20.25-7.58L20.25-7.80C20.25-7.90 20.17-7.98 20.09-7.98L19.79-7.98C19.71-7.98 19.65-7.90 19.65-7.80L19.65-7.58C19.65-7.48 19.71-7.42 19.79-7.42ZM13.25-6.21L13.54-6.21C13.64-6.21 13.70-6.27 13.70-6.36L13.70-6.60C13.70-6.68 13.64-6.74 13.54-6.74L13.25-6.74C13.17-6.74 13.10-6.68 13.10-6.60L13.10-6.36C13.10-6.27 13.17-6.21 13.25-6.21ZM19.79-6.21L20.09-6.21C20.17-6.21 20.25-6.27 20.25-6.36L20.25-6.60C20.25-6.68 20.17-6.74 20.09-6.74L19.79-6.74C19.71-6.74 19.65-6.68 19.65-6.60L19.65-6.36C19.65-6.27 19.71-6.21 19.79-6.21ZM14.54-4.07C14.54-3.90 14.67-3.82 14.80-3.82L18.60-3.82C18.73-3.82 18.86-3.90 18.86-4.07L18.86-5.67C18.86-5.82 18.73-5.93 18.60-5.93L14.80-5.93C14.67-5.93 14.54-5.82 14.54-5.67ZM13.25-4.99L13.54-4.99C13.64-4.99 13.70-5.05 13.70-5.14L13.70-5.38C13.70-5.47 13.64-5.53 13.54-5.53L13.25-5.53C13.17-5.53 13.10-5.47 13.10-5.38L13.10-5.14C13.10-5.05 13.17-4.99 13.25-4.99ZM19.79-4.99L20.09-4.99C20.17-4.99 20.25-5.05 20.25-5.14L20.25-5.38C20.25-5.47 20.17-5.53 20.09-5.53L19.79-5.53C19.71-5.53 19.65-5.47 19.65-5.38L19.65-5.14C19.65-5.05 19.71-4.99 19.79-4.99ZM11.13-3.84C11.13-3.41 11.25-3.02 11.44-2.71L9.95-2.71C9.11-2.71 8.53-3.29 8.53-4.15L8.53-4.99L11.13-4.99ZM13.25-3.82L13.54-3.82C13.64-3.82 13.70-3.87 13.70-3.96L13.70-4.21C13.70-4.29 13.64-4.34 13.54-4.34L13.25-4.34C13.17-4.34 13.10-4.29 13.10-4.21L13.10-3.96C13.10-3.87 13.17-3.82 13.25-3.82ZM19.79-3.82L20.09-3.82C20.17-3.82 20.25-3.87 20.25-3.96L20.25-4.21C20.25-4.29 20.17-4.34 20.09-4.34L19.79-4.34C19.71-4.34 19.65-4.29 19.65-4.21L19.65-3.96C19.65-3.87 19.71-3.82 19.79-3.82Z" fill="currentColor"/>
</svg>