<svg xmlns="http://www.w3.org/2000/svg" viewBox="0 0 24 24" width="24" height="24">
  
  <path transform="matrix(0.777170613236187, 0, 0, 0.777170613236187, 2.277777777777778, 18.57559198542805)" d="M12.50 4.41C13.70 4.41 14.36 3.59 15.16 2.48L21.87-6.43C22.44-7.20 22.63-7.84 22.63-8.46C22.63-9.08 22.44-9.73 21.87-10.49L15.16-19.41C14.36-20.51 13.70-21.33 12.50-21.33C11.31-21.33 10.66-20.51 9.84-19.41L3.15-10.49C2.58-9.73 2.39-9.08 2.39-8.46C2.39-7.84 2.58-7.20 3.15-6.43L9.84 2.48C10.66 3.59 11.31 4.41 12.50 4.41Z" fill="currentColor"/>
</svg>