<svg xmlns="http://www.w3.org/2000/svg" viewBox="0 0 24 24" width="24" height="24">
  
  <path transform="matrix(0.7736476276820792, 0, 0, 0.7736476276820792, 0.8032638259292832, 18.72710788757933)" d="M2.10-6.29C2.10-2.89 4.32-0.59 7.61-0.59C9.82-0.59 11.64-1.63 12.11-3.25L12.40-3.25C12.28-1.03 9.86-0.08 9.05 0.50C7.66 1.50 7.95 4.23 10.15 4.23L18.80 4.23C21 4.23 21.28 1.50 19.90 0.50C19.09-0.08 16.66-1.03 16.55-3.25L16.84-3.25C17.31-1.63 19.13-0.59 21.34-0.59C24.62-0.59 26.85-2.89 26.85-6.29C26.85-12.02 20.05-14.19 16.75-20.06C16.18-21.07 15.54-21.62 14.47-21.62C13.42-21.62 12.76-21.07 12.20-20.06C8.89-14.19 2.10-12.02 2.10-6.29Z" fill="currentColor"/>
</svg>