<svg xmlns="http://www.w3.org/2000/svg" viewBox="0 0 24 24" width="24" height="24">
  
  <path transform="matrix(0.7810831426392068, 0, 0, 0.7810831426392068, 0.3615560640732265, 18.608695652173914)" d="M14.89 4.34C21.97 4.34 27.70-1.39 27.70-8.46C27.70-15.53 21.97-21.26 14.89-21.26C7.83-21.26 2.10-15.53 2.10-8.46C2.10-1.39 7.83 4.34 14.89 4.34ZM14.89 0.16C10.13 0.16 6.27-3.69 6.27-8.46C6.27-13.23 10.13-17.09 14.89-17.09C19.66-17.09 23.53-13.23 23.53-8.46C23.53-3.69 19.66 0.16 14.89 0.16ZM15.70-14.18L15.70-15.06C15.70-15.53 15.33-15.89 14.89-15.89C14.45-15.89 14.09-15.53 14.09-15.06L14.09-14.18C14.09-13.73 14.45-13.35 14.89-13.35C15.33-13.35 15.70-13.73 15.70-14.18ZM17.55-12.16C17.87-11.85 18.36-11.86 18.70-12.18L19.34-12.81C19.66-13.13 19.65-13.65 19.34-13.97C19.03-14.27 18.52-14.27 18.19-13.95L17.57-13.31C17.24-12.98 17.24-12.49 17.55-12.16ZM11.10-12.18C11.43-11.87 11.92-11.85 12.25-12.16C12.56-12.49 12.56-12.98 12.23-13.31L11.60-13.95C11.27-14.27 10.77-14.27 10.45-13.97C10.15-13.65 10.14-13.13 10.46-12.81ZM17.96-9.54C17.96-11.24 16.58-12.60 14.89-12.60C13.22-12.60 11.84-11.24 11.84-9.54C11.84-9.35 11.84-9.13 11.88-8.95L17.91-8.95C17.95-9.13 17.96-9.35 17.96-9.54ZM9.43-9.21L10.32-9.21C10.78-9.21 11.14-9.59 11.14-10.02C11.14-10.46 10.78-10.83 10.32-10.83L9.43-10.83C9-10.83 8.61-10.46 8.61-10.02C8.61-9.59 9-9.21 9.43-9.21ZM19.48-9.21L20.37-9.21C20.81-9.21 21.19-9.59 21.19-10.02C21.19-10.46 20.81-10.83 20.37-10.83L19.48-10.83C19.04-10.83 18.66-10.46 18.66-10.02C18.66-9.59 19.04-9.21 19.48-9.21ZM9.60-6.05L20.20-6.05C20.77-6.05 21.19-6.53 21.19-7.05C21.19-7.58 20.77-8.06 20.20-8.06L9.60-8.06C9.02-8.06 8.61-7.57 8.61-7.05C8.61-6.54 9.04-6.05 9.60-6.05ZM11.70-3.11L12.32-4.20C12.48-4.48 12.40-4.84 12.11-5.00C11.81-5.17 11.45-5.07 11.29-4.79L10.66-3.70C10.50-3.41 10.58-3.06 10.89-2.89C11.17-2.72 11.53-2.81 11.70-3.11ZM16.27-3.11L16.89-4.20C17.06-4.48 16.97-4.84 16.69-5.00C16.38-5.17 16.02-5.07 15.86-4.79L15.23-3.70C15.07-3.41 15.16-3.06 15.46-2.89C15.74-2.72 16.10-2.81 16.27-3.11ZM13.20-1.69L14.60-4.17C14.75-4.44 14.68-4.82 14.40-4.98C14.10-5.14 13.72-5.04 13.57-4.77L12.16-2.29C12.01-2.02 12.08-1.64 12.39-1.48C12.67-1.31 13.04-1.42 13.20-1.69ZM17.77-1.69L19.18-4.17C19.32-4.44 19.25-4.82 18.97-4.98C18.67-5.14 18.29-5.04 18.15-4.77L16.73-2.29C16.58-2.02 16.66-1.64 16.96-1.48C17.24-1.31 17.61-1.42 17.77-1.69Z" fill="currentColor"/>
</svg>