<svg xmlns="http://www.w3.org/2000/svg" viewBox="0 0 24 24" width="24" height="24">
  <title>sun.dust.circle.fill</title>
  <path transform="matrix(0.7810831426392068, 0, 0, 0.7810831426392068, 0.3615560640732265, 18.599542334096114)" d="M14.89 4.35C21.97 4.35 27.70-1.38 27.70-8.45C27.70-15.52 21.97-21.25 14.89-21.25C7.83-21.25 2.10-15.52 2.10-8.45C2.10-1.38 7.83 4.35 14.89 4.35ZM14.89-13.44C14.43-13.44 14.03-13.86 14.03-14.33L14.03-15.29C14.03-15.79 14.43-16.18 14.89-16.18C15.36-16.18 15.76-15.79 15.76-15.29L15.76-14.33C15.76-13.86 15.36-13.44 14.89-13.44ZM12.05-12.15C11.70-11.82 11.16-11.85 10.80-12.18L10.11-12.86C9.76-13.18 9.77-13.76 10.11-14.11C10.45-14.45 11.00-14.45 11.34-14.09L12.02-13.41C12.38-13.04 12.38-12.52 12.05-12.15ZM17.75-12.15C17.43-12.52 17.43-13.04 17.77-13.41L18.46-14.09C18.80-14.45 19.35-14.45 19.69-14.11C20.03-13.76 20.04-13.18 19.68-12.86L19.00-12.18C18.64-11.85 18.11-11.84 17.75-12.15ZM11.66-8.71C11.61-8.89 11.60-9.13 11.60-9.33C11.60-11.16 13.09-12.64 14.89-12.64C16.71-12.64 18.19-11.16 18.19-9.33C18.19-9.13 18.19-8.89 18.14-8.71ZM10.85-9.86C10.85-9.39 10.46-8.99 9.96-8.99L9.01-8.99C8.53-8.99 8.12-9.39 8.12-9.86C8.12-10.32 8.53-10.72 9.01-10.72L9.96-10.72C10.46-10.72 10.85-10.32 10.85-9.86ZM18.94-9.86C18.94-10.32 19.36-10.72 19.84-10.72L20.78-10.72C21.28-10.72 21.68-10.32 21.68-9.86C21.68-9.39 21.28-8.99 20.78-8.99L19.84-8.99C19.36-8.99 18.94-9.39 18.94-9.86ZM9.19-5.57C8.59-5.57 8.12-6.11 8.12-6.66C8.12-7.22 8.57-7.73 9.19-7.73L20.60-7.73C21.23-7.73 21.68-7.23 21.68-6.66C21.68-6.08 21.23-5.57 20.60-5.57ZM9.32-3.19C8.89-3.19 8.53-3.54 8.53-3.97C8.53-4.39 8.89-4.75 9.32-4.75C9.74-4.75 10.09-4.39 10.09-3.97C10.09-3.54 9.74-3.19 9.32-3.19ZM12.13-3.19C11.71-3.19 11.36-3.54 11.36-3.97C11.36-4.39 11.71-4.75 12.13-4.75C12.55-4.75 12.90-4.39 12.90-3.97C12.90-3.54 12.55-3.19 12.13-3.19ZM14.92-3.19C14.48-3.19 14.13-3.54 14.13-3.97C14.13-4.39 14.48-4.75 14.92-4.75C15.34-4.75 15.69-4.39 15.69-3.97C15.69-3.54 15.34-3.19 14.92-3.19ZM17.73-3.19C17.30-3.19 16.95-3.54 16.95-3.97C16.95-4.39 17.30-4.75 17.73-4.75C18.15-4.75 18.50-4.39 18.50-3.97C18.50-3.54 18.15-3.19 17.73-3.19ZM20.51-3.19C20.09-3.19 19.73-3.54 19.73-3.97C19.73-4.39 20.09-4.75 20.51-4.75C20.94-4.75 21.29-4.39 21.29-3.97C21.29-3.54 20.94-3.19 20.51-3.19ZM10.72-1.37C10.30-1.37 9.95-1.71 9.95-2.14C9.95-2.58 10.30-2.93 10.72-2.93C11.16-2.93 11.51-2.58 11.51-2.14C11.51-1.71 11.16-1.37 10.72-1.37ZM13.54-1.37C13.11-1.37 12.76-1.71 12.76-2.14C12.76-2.58 13.11-2.93 13.54-2.93C13.97-2.93 14.32-2.58 14.32-2.14C14.32-1.71 13.97-1.37 13.54-1.37ZM16.32-1.37C15.90-1.37 15.55-1.71 15.55-2.14C15.55-2.58 15.90-2.93 16.32-2.93C16.76-2.93 17.11-2.58 17.11-2.14C17.11-1.71 16.76-1.37 16.32-1.37ZM19.11-1.37C18.69-1.37 18.33-1.71 18.33-2.14C18.33-2.58 18.69-2.93 19.11-2.93C19.54-2.93 19.89-2.58 19.89-2.14C19.89-1.71 19.54-1.37 19.11-1.37Z" fill="currentColor"/>
</svg>