<svg xmlns="http://www.w3.org/2000/svg" viewBox="0 0 24 24" width="24" height="24">
  <title>sun.rain.circle.fill</title>
  <path transform="matrix(0.7810831426392068, 0, 0, 0.7810831426392068, 0.3615560640732265, 18.599542334096114)" d="M14.89 4.35C21.97 4.35 27.70-1.38 27.70-8.45C27.70-15.52 21.97-21.25 14.89-21.25C7.83-21.25 2.10-15.52 2.10-8.45C2.10-1.38 7.83 4.35 14.89 4.35ZM15.76-14.59C15.76-14.12 15.36-13.70 14.89-13.70C14.43-13.70 14.03-14.12 14.03-14.59L14.03-15.55C14.03-16.04 14.43-16.44 14.89-16.44C15.36-16.44 15.76-16.04 15.76-15.55ZM17.75-12.42C17.43-12.77 17.43-13.31 17.77-13.65L18.45-14.36C18.80-14.71 19.35-14.71 19.69-14.37C20.03-14.03 20.04-13.45 19.68-13.10L19.00-12.43C18.64-12.11 18.11-12.08 17.75-12.42ZM10.79-12.43L10.11-13.10C9.76-13.45 9.77-14.03 10.11-14.37C10.45-14.71 11.00-14.71 11.34-14.36L12.02-13.65C12.38-13.31 12.38-12.77 12.05-12.42C11.70-12.08 11.16-12.11 10.79-12.43ZM18.19-9.60C18.19-9.39 18.19-9.15 18.14-8.96L11.66-8.96C11.61-9.15 11.60-9.39 11.60-9.60C11.60-11.43 13.09-12.90 14.89-12.90C16.71-12.90 18.19-11.43 18.19-9.60ZM9.01-9.25C8.53-9.25 8.12-9.64 8.12-10.11C8.12-10.59 8.53-10.99 9.01-10.99L9.96-10.99C10.46-10.99 10.85-10.59 10.85-10.11C10.85-9.64 10.46-9.25 9.96-9.25ZM19.84-9.25C19.36-9.25 18.94-9.64 18.94-10.11C18.94-10.59 19.36-10.99 19.84-10.99L20.78-10.99C21.27-10.99 21.68-10.59 21.68-10.11C21.68-9.64 21.27-9.25 20.78-9.25ZM9.19-5.82C8.59-5.82 8.12-6.36 8.12-6.90C8.12-7.46 8.57-8.00 9.19-8.00L20.60-8.00C21.23-8.00 21.68-7.48 21.68-6.90C21.68-6.35 21.23-5.82 20.60-5.82ZM16.37-2.65C16.18-2.34 15.80-2.25 15.50-2.43C15.18-2.61 15.08-3 15.27-3.29L15.94-4.48C16.11-4.79 16.50-4.89 16.83-4.70C17.12-4.52 17.23-4.14 17.05-3.84ZM11.45-2.65C11.27-2.34 10.89-2.25 10.57-2.43C10.25-2.61 10.15-3 10.34-3.29L11.02-4.48C11.18-4.79 11.57-4.89 11.89-4.70C12.21-4.52 12.29-4.14 12.12-3.84ZM17.99-1.13C17.84-0.84 17.43-0.73 17.12-0.90C16.79-1.08 16.71-1.48 16.88-1.78L18.40-4.45C18.56-4.73 18.96-4.85 19.29-4.68C19.58-4.50 19.68-4.10 19.51-3.81ZM13.07-1.13C12.90-0.84 12.49-0.73 12.20-0.90C11.87-1.08 11.78-1.48 11.94-1.78L13.48-4.45C13.64-4.73 14.04-4.85 14.36-4.68C14.67-4.50 14.74-4.10 14.58-3.81Z" fill="currentColor"/>
</svg>