<svg xmlns="http://www.w3.org/2000/svg" viewBox="0 0 24 24" width="24" height="24">
  <title>suv.side.hill.descent.control.fill</title>
  <path transform="matrix(0.502168294536342, 0, 0, 0.502168294536342, 0.49699670036179344, 16.314241302011414)" d="M29.38-24.94L28.71-25.25C26.77-26.19 25.10-26.05 23.00-24.84L16.34-20.99C12.95-19.03 11.70-17.85 10.38-15.36L8.43-11.68L5.84-9.73C3.01-7.61 2.25-5.16 3.74-2.58L4.50-1.24C5.57 0.60 7.21 0.95 8.88-0.02L9.53-0.40C9.26-0.66 9.01-0.98 8.81-1.32C7.59-3.45 8.33-6.18 10.44-7.39C12.56-8.61 15.29-7.90 16.51-5.78C16.71-5.43 16.86-5.05 16.97-4.69L25.44-9.59C25.17-9.84 24.93-10.17 24.73-10.51C23.51-12.63 24.25-15.36 26.37-16.58C28.48-17.80 31.21-17.09 32.43-14.96C32.63-14.61 32.78-14.24 32.88-13.88L33.59-14.29C35.17-15.20 35.57-16.80 34.63-18.41L32.47-22.15C31.83-23.27 30.63-24.33 29.38-24.94ZM30.12-10.08C31.58-10.92 32.10-12.81 31.24-14.27C30.40-15.75 28.50-16.24 27.05-15.41C25.58-14.55 25.07-12.67 25.91-11.20C26.75-9.73 28.65-9.23 30.12-10.08ZM6.90 7.70C7.46 8.64 8.66 8.95 9.55 8.44L40.39-9.40C41.30-9.91 41.63-11.11 41.10-12.02C40.55-12.96 39.35-13.28 38.45-12.76L7.61 5.07C6.71 5.59 6.38 6.79 6.90 7.70ZM14.20-0.89C15.67-1.73 16.18-3.62 15.33-5.09C14.48-6.56 12.59-7.05 11.13-6.21C9.66-5.37 9.15-3.48 10.00-2.02C10.84-0.54 12.74-0.05 14.20-0.89ZM40.39 8.60C41.18 8.60 41.80 8.29 42.22 7.79C42.61 7.37 42.82 6.83 42.82 6.28C42.82 5.63 42.42 5.27 41.75 5.27C41.20 5.27 40.83 5.61 40.77 6.20C40.73 6.52 40.64 6.87 40.32 6.87C39.96 6.87 39.80 6.23 39.80 4.64C39.80 3.04 40.01 2.53 40.32 2.53C40.54 2.53 40.68 2.68 40.76 3.16C40.85 3.96 41.40 4.11 41.78 4.11C42.38 4.11 42.75 3.73 42.75 3.11C42.75 2.59 42.55 1.89 42 1.39C41.65 1.05 41.07 0.80 40.30 0.80C38.96 0.80 38.23 1.50 37.85 2.61C37.62 3.23 37.54 4.07 37.54 4.64C37.54 5.55 37.65 6.35 37.90 6.96C38.34 8.13 39.16 8.60 40.39 8.60ZM26.66 8.51C27.38 8.51 27.77 8.11 27.77 7.38L27.77 5.57L28.84 5.57L28.84 7.38C28.84 8.12 29.20 8.51 29.93 8.51C30.66 8.51 31.03 8.11 31.03 7.38L31.03 2.03C31.03 1.32 30.66 0.89 29.93 0.89C29.21 0.89 28.84 1.32 28.84 2.03L28.84 3.83L27.77 3.83L27.77 2.03C27.77 1.23 27.29 0.89 26.66 0.89C25.91 0.89 25.57 1.34 25.57 2.03L25.57 7.38C25.57 8.12 25.92 8.51 26.66 8.51ZM32.75 8.50L34.28 8.50C36.38 8.50 37.08 6.73 37.08 4.63C37.08 2.53 36.38 0.89 34.28 0.89L32.75 0.89C32.04 0.89 31.62 1.27 31.62 2.02L31.62 7.34C31.62 8.07 32.05 8.50 32.75 8.50ZM33.81 6.76L33.81 2.61L34.01 2.61C34.62 2.61 34.86 3.22 34.86 4.63C34.86 6.09 34.62 6.76 34.01 6.76Z" fill="currentColor"/>
</svg>