<svg xmlns="http://www.w3.org/2000/svg" viewBox="0 0 24 24" width="24" height="24">
  
  <path transform="matrix(0.8606488485459741, 0, 0, 0.8606488485459741, -0.571860816944024, 19.286938981341404)" d="M7.58 3.15L21.63 3.15C24.53 3.15 26.23 1.46 26.23-1.44L26.23-15.49C26.23-18.39 24.53-20.09 21.63-20.09L7.58-20.09C4.69-20.09 2.99-18.39 2.99-15.49L2.99-1.44C2.99 1.46 4.69 3.15 7.58 3.15ZM10.65-4.21C9.97-4.21 9.49-4.70 9.49-5.40L9.49-12.20C9.49-12.90 9.97-13.39 10.65-13.39C11.33-13.39 11.82-12.89 11.82-12.20L11.82-8.55L11.86-8.55L13.59-10.51C13.85-10.82 14.17-11.00 14.58-11.00C15.18-11.00 15.61-10.58 15.61-9.98C15.61-9.67 15.46-9.40 15.15-9.07L14.04-7.99L15.22-6.14C15.42-5.85 15.52-5.66 15.52-5.21C15.52-4.65 14.99-4.21 14.38-4.21C13.80-4.21 13.46-4.56 13.21-5.03L12.28-6.69L11.82-6.27L11.82-5.40C11.82-4.70 11.33-4.21 10.65-4.21ZM17.78-4.21C17.13-4.21 16.66-4.70 16.66-5.40L16.66-9.84C16.66-10.55 17.07-11.00 17.74-11.00C18.38-11.00 18.77-10.55 18.77-9.84L18.77-9.61L18.88-9.61C18.97-10.32 19.34-11.00 20.05-11.00C20.67-11.00 20.99-10.57 20.99-9.93C20.99-9.57 20.87-9.28 20.64-9.12C20.40-8.88 19.99-8.81 19.65-8.81C19.00-8.77 18.88-8.40 18.88-7.78L18.88-5.40C18.88-4.70 18.40-4.21 17.78-4.21Z" fill="currentColor"/>
</svg>