<svg xmlns="http://www.w3.org/2000/svg" viewBox="0 0 24 24" width="24" height="24">
  
  <path transform="matrix(0.8606488485459741, 0, 0, 0.8606488485459741, -0.571860816944024, 19.286938981341404)" d="M7.58 3.15L21.63 3.15C24.53 3.15 26.23 1.46 26.23-1.44L26.23-15.49C26.23-18.39 24.53-20.09 21.63-20.09L7.58-20.09C4.69-20.09 2.99-18.39 2.99-15.49L2.99-1.44C2.99 1.46 4.69 3.15 7.58 3.15ZM11.95-2.36L8.96-5.34C8.03-6.29 7.83-7.43 8.79-8.39L14.52-14.13C14.95-14.55 15.23-14.75 15.93-14.75L18.13-14.75C18.77-14.75 19.11-14.63 19.56-14.19L20.81-12.95C21.26-12.49 21.38-12.15 21.38-11.52L21.38-9.32C21.38-8.63 21.18-8.34 20.75-7.92L14.98-2.16C14.00-1.18 12.89-1.43 11.95-2.36ZM16.31-9.73C16.78-9.26 17.53-9.26 18-9.73C18.47-10.18 18.45-10.96 18-11.40C17.55-11.86 16.80-11.86 16.32-11.40C15.86-10.95 15.87-10.17 16.31-9.73Z" fill="currentColor"/>
</svg>