<svg xmlns="http://www.w3.org/2000/svg" viewBox="0 0 24 24" width="24" height="24">
  
  <path transform="matrix(0.6192549588776004, 0, 0, 0.6192549588776004, 0.14949201741654572, 17.210449927431057)" d="M5.71 0.95C7.25 0.95 8.12 0.25 8.52-1.38L8.91-2.78L14.58-2.78L14.94-1.38C15.33 0.25 16.20 0.95 17.75 0.95C19.49 0.95 20.61-0.08 20.61-1.66C20.61-2.32 20.52-2.82 20.31-3.46L16.52-14.61C15.79-16.82 14.29-17.85 11.78-17.85C9.43-17.85 7.96-16.80 7.21-14.61L3.27-3.18C3.09-2.63 2.99-2.06 2.99-1.58C2.99-0.01 4.03 0.95 5.71 0.95ZM26.85 1.02C28.46 1.02 30.04 0.25 30.80-1.13L30.80-0.91C30.90 0.38 31.75 1.02 33.04 1.02C34.38 1.02 35.29 0.28 35.29-1.22L35.29-8.57C35.29-11.32 32.88-13.20 29.14-13.20C25.99-13.20 23.71-12.16 23.11-10.45C23.02-10.17 22.96-9.93 22.96-9.63C22.96-8.66 23.68-7.97 24.86-7.97C25.63-7.97 26.23-8.26 26.73-8.77C27.59-9.68 28.09-9.97 28.93-9.97C30.01-9.97 30.76-9.40 30.76-8.30L30.76-7.57L27.73-7.39C24.11-7.20 22.13-5.73 22.13-3.18C22.13-0.68 24.18 1.02 26.85 1.02ZM11.75-13.14L11.86-13.14L13.52-6.76L10.00-6.76ZM28.32-2.09C27.39-2.09 26.70-2.60 26.70-3.46C26.70-4.27 27.34-4.78 28.39-4.85L30.76-5.02L30.76-4.14C30.76-2.93 29.71-2.09 28.32-2.09Z" fill="currentColor"/>
</svg>