<svg xmlns="http://www.w3.org/2000/svg" viewBox="0 0 24 24" width="24" height="24">
  
  <path transform="matrix(0.7810831426392068, 0, 0, 0.7810831426392068, 0.3615560640732265, 18.599542334096114)" d="M14.89 4.35C21.97 4.35 27.70-1.38 27.70-8.45C27.70-15.52 21.97-21.25 14.89-21.25C7.83-21.25 2.10-15.52 2.10-8.45C2.10-1.38 7.83 4.35 14.89 4.35ZM13.35-3.68C10.77-3 8.81-4.17 8.11-6.87L7.17-10.44C6.86-11.51 7.24-12.18 8.31-12.45L13.35-13.79C14.41-14.06 15.08-13.69 15.35-12.66L16.34-9.08C17.06-6.38 15.95-4.38 13.35-3.68ZM21.79-11.12C22.83-10.85 23.24-10.17 22.93-9.13L22.00-5.57C21.26-2.87 19.30-1.70 16.75-2.37C16.02-2.57 15.41-2.86 14.93-3.22C15.88-3.73 16.57-4.43 16.98-5.30C17.14-5.29 17.30-5.23 17.43-5.18C17.96-5.03 18.38-4.82 18.89-4.36C19.04-4.17 19.25-4.28 19.25-4.51C19.21-5.30 18.60-5.95 17.72-6.16C17.61-6.20 17.47-6.20 17.36-6.25C17.61-7.17 17.59-8.24 17.29-9.35L16.42-12.55C16.50-12.53 16.63-12.52 16.75-12.48ZM13.39-9.82C13.73-9.93 13.95-9.73 14.12-9.79C14.20-9.82 14.26-9.93 14.20-10.07C14.09-10.55 13.62-10.76 13.17-10.69C12.74-10.58 12.45-10.07 12.57-9.66C12.63-9.52 12.71-9.41 12.77-9.46C12.95-9.46 13.01-9.73 13.39-9.82ZM10.24-8.98C10.61-9.08 10.79-8.87 11.00-8.95C11.09-8.98 11.12-9.08 11.06-9.25C10.92-9.67 10.49-9.93 10.04-9.82C9.57-9.73 9.29-9.25 9.43-8.79C9.49-8.66 9.56-8.58 9.63-8.59C9.82-8.61 9.84-8.86 10.24-8.98ZM19.62-7.09C19.97-7.01 20.32-7.23 20.45-7.59C20.54-7.93 20.32-8.31 19.97-8.41C19.61-8.52 19.23-8.30 19.14-7.93C19.04-7.57 19.25-7.18 19.62-7.09ZM12.84-5.61C13.93-5.88 14.61-6.70 14.66-7.72C14.70-7.92 14.50-8.03 14.33-7.89C13.84-7.57 13.10-7.24 12.45-7.07C11.81-6.91 11.00-6.81 10.42-6.86C10.21-6.86 10.09-6.69 10.21-6.54C10.76-5.72 11.79-5.33 12.84-5.61Z" fill="currentColor"/>
</svg>