<svg xmlns="http://www.w3.org/2000/svg" viewBox="0 0 24 24" width="24" height="24">
  <title>timer.square</title>
  <path transform="matrix(0.8606488485459741, 0, 0, 0.8606488485459741, -0.571860816944024, 19.286938981341404)" d="M7.58 3.15L21.63 3.15C24.53 3.15 26.23 1.46 26.23-1.44L26.23-15.49C26.23-18.39 24.53-20.09 21.63-20.09L7.58-20.09C4.69-20.09 2.99-18.39 2.99-15.49L2.99-1.44C2.99 1.46 4.69 3.15 7.58 3.15ZM8.21-1.01C7.50-1.01 7.15-1.30 7.15-2.07L7.15-14.85C7.15-15.62 7.50-15.91 8.21-15.91L21-15.91C21.71-15.91 22.07-15.62 22.07-14.85L22.07-2.07C22.07-1.30 21.71-1.01 21-1.01ZM8.51-8.46C8.51-5.04 11.19-2.36 14.61-2.36C18.04-2.36 20.72-5.04 20.72-8.46C20.72-11.88 18.04-14.57 14.61-14.57C13.91-14.57 13.41-14.11 13.41-13.45L13.41-11.79C13.41-11.19 13.88-10.72 14.48-10.72C15.07-10.72 15.53-11.20 15.53-11.79L15.53-12.06C17.10-11.66 18.21-10.14 18.21-8.46C18.21-6.47 16.61-4.88 14.61-4.88C12.62-4.88 11.03-6.47 11.03-8.46C11.03-9.16 11.25-9.87 11.65-10.46C12.13-11.25 12.13-11.81 11.61-12.29C11.02-12.84 10.14-12.68 9.63-11.95C8.91-10.93 8.51-9.70 8.51-8.46ZM15.69-7.23C16.34-7.90 16.24-8.99 15.46-9.38L13.24-10.51C12.62-10.84 12.01-10.36 12.40-9.64L13.56-7.48C13.99-6.69 15.05-6.59 15.69-7.23Z" fill="currentColor"/>
</svg>