<svg xmlns="http://www.w3.org/2000/svg" viewBox="0 0 24 24" width="24" height="24">
  
  <path transform="matrix(0.7810831426392068, 0, 0, 0.7810831426392068, 0.3615560640732265, 18.599542334096114)" d="M14.89 4.35C21.97 4.35 27.70-1.38 27.70-8.45C27.70-15.52 21.97-21.25 14.89-21.25C7.83-21.25 2.10-15.52 2.10-8.45C2.10-1.38 7.83 4.35 14.89 4.35ZM11.20-13.76C10.75-13.76 10.38-14.13 10.38-14.58C10.38-15.04 10.75-15.41 11.20-15.41L18.60-15.41C19.04-15.41 19.42-15.04 19.42-14.58C19.42-14.13 19.04-13.76 18.60-13.76ZM14.89-11.05C13.39-11.05 12.11-10.75 11.23-10.25L11.05-13.08L18.75-13.08L18.57-10.25C17.70-10.75 16.41-11.05 14.89-11.05ZM14.89-6.64C12.53-6.64 10.69-7.45 10.69-8.51C10.69-9.54 12.53-10.35 14.89-10.35C17.27-10.35 19.11-9.54 19.11-8.51C19.11-7.45 17.27-6.64 14.89-6.64ZM14.89-7.80C16.38-7.80 17.44-8.11 17.44-8.51C17.44-8.91 16.38-9.19 14.89-9.19C13.41-9.19 12.35-8.91 12.35-8.51C12.35-8.11 13.41-7.80 14.89-7.80ZM14.81-4.11C12.82-4.11 11.43-5.13 10.95-6.96C11.79-6.34 13.22-5.99 14.89-5.99C16.58-5.99 18.01-6.34 18.84-6.96C18.38-5.13 16.98-4.11 14.99-4.11ZM14.89-0.82C13.72-0.82 12.35-1.09 11.72-1.75C11.52-1.96 11.47-2.26 11.55-2.55L12.05-4.15C12.81-3.68 13.76-3.40 14.79-3.40L15-3.40C16.04-3.40 16.98-3.68 17.75-4.15L18.25-2.55C18.33-2.26 18.27-1.96 18.08-1.75C17.44-1.09 16.08-0.82 14.89-0.82Z" fill="currentColor"/>
</svg>