<svg xmlns="http://www.w3.org/2000/svg" viewBox="0 0 24 24" width="24" height="24">
  
  <path transform="matrix(0.6997403307366407, 0, 0, 0.6997403307366407, -0.09102091020910219, 17.920459204592046)" d="M7.58 2.27L26.98 2.27C29.88 2.27 31.57 0.57 31.57-2.32L31.57-14.60C31.57-17.50 29.88-19.20 26.98-19.20L7.58-19.20C4.69-19.20 2.99-17.50 2.99-14.60L2.99-2.32C2.99 0.57 4.69 2.27 7.58 2.27ZM14.34-2.46C12.94-2.46 12.09-3.29 12.09-4.72L12.09-8.75C12.09-10.18 12.16-10.72 12.30-11.44C12.64-13.24 13.43-14.05 15.13-14.34C15.69-14.43 16.43-14.46 17.29-14.46C18.14-14.46 18.89-14.43 19.44-14.34C21.15-14.05 21.94-13.24 22.28-11.44C22.42-10.72 22.49-10.18 22.49-8.75L22.49-4.72C22.49-3.29 21.64-2.46 20.23-2.46ZM15.95-12.08L18.63-12.08C18.93-12.08 19.16-12.30 19.16-12.61C19.16-12.90 18.93-13.13 18.63-13.13L15.95-13.13C15.66-13.13 15.43-12.90 15.43-12.61C15.43-12.30 15.66-12.08 15.95-12.08ZM17.29-6.18C18.56-6.20 19.50-6.23 20.06-6.30C20.45-6.35 20.67-6.62 20.67-7.01L20.67-8.43C20.67-9.36 20.55-10.29 20.52-10.57C20.47-10.89 20.25-11.12 19.92-11.16C19.37-11.23 18.54-11.26 17.29-11.27C16.02-11.26 15.19-11.23 14.66-11.16C14.33-11.12 14.10-10.89 14.05-10.57C14.03-10.29 13.90-9.36 13.90-8.43L13.90-7.01C13.90-6.62 14.13-6.35 14.51-6.30C15.05-6.25 15.96-6.20 17.29-6.18ZM19.84-3.87C20.25-3.87 20.58-4.17 20.58-4.61C20.58-5.03 20.27-5.33 19.84-5.33C19.42-5.33 19.09-5.03 19.09-4.61C19.09-4.17 19.42-3.87 19.84-3.87ZM14.73-3.87C15.15-3.87 15.48-4.17 15.48-4.61C15.48-5.03 15.15-5.33 14.73-5.33C14.32-5.33 14.00-5.03 14.00-4.61C14.00-4.17 14.31-3.87 14.73-3.87Z" fill="currentColor"/>
</svg>