<svg xmlns="http://www.w3.org/2000/svg" viewBox="0 0 24 24" width="24" height="24">
  <title>tram.fill.tunnel</title>
  <path transform="matrix(0.6290699103083917, 0, 0, 0.6290699103083917, 1.034279395503133, 17.606339845189826)" d="M2.99 5.30C2.99 6.21 3.76 6.98 4.68 6.98C5.59 6.98 6.35 6.21 6.35 5.30L6.35-11.79C6.35-18.19 10.09-21.45 17.43-21.45C24.77-21.45 28.51-18.19 28.51-11.79L28.51 5.30C28.51 6.21 29.27 6.98 30.19 6.98C31.10 6.98 31.88 6.21 31.88 5.30L31.88-11.79C31.88-20.29 26.86-24.81 17.43-24.81C8.00-24.81 2.99-20.29 2.99-11.79ZM10.45 6.23L11.20 6.23C11.60 6.23 11.84 6.11 12.06 5.77L12.48 5.09L22.11 5.09L22.54 5.77C22.75 6.11 22.99 6.23 23.39 6.23L23.93 6.23C24.67 6.23 25.05 5.51 24.67 4.88L23.05 2.29C25.03 2.04 26.20 0.66 26.20-1.51L26.20-8.27C26.20-10.71 26.07-11.60 25.85-12.79C25.28-15.87 23.93-17.23 21.07-17.68C20.12-17.85 18.89-17.92 17.45-17.92C15.98-17.92 14.77-17.85 13.80-17.68C10.96-17.23 9.61-15.87 9.02-12.79C8.80-11.60 8.67-10.71 8.67-8.27L8.67-1.51C8.67 0.55 9.74 1.91 11.55 2.25L9.83 4.99C9.53 5.50 9.74 6.23 10.45 6.23ZM15.18-13.88C14.67-13.88 14.29-14.26 14.29-14.77C14.29-15.28 14.67-15.68 15.18-15.68L19.70-15.68C20.20-15.68 20.59-15.28 20.59-14.77C20.59-14.26 20.20-13.88 19.70-13.88ZM17.45-3.98C15.22-4.00 13.65-4.08 12.77-4.18C12.14-4.27 11.75-4.71 11.75-5.36L11.75-7.73C11.75-9.32 11.94-10.88 12-11.34C12.09-11.88 12.48-12.27 13.01-12.33C13.91-12.43 15.30-12.50 17.45-12.52C19.54-12.50 20.96-12.43 21.87-12.33C22.39-12.27 22.78-11.88 22.88-11.34C22.93-10.88 23.12-9.32 23.12-7.73L23.12-5.36C23.12-4.70 22.73-4.27 22.10-4.18C21.16-4.07 19.58-4.00 17.45-3.98ZM13.14-0.05C12.43-0.05 11.88-0.60 11.88-1.30C11.88-2.02 12.43-2.57 13.14-2.57C13.85-2.57 14.40-2.02 14.40-1.30C14.40-0.60 13.85-0.05 13.14-0.05ZM21.74-0.05C21.02-0.05 20.47-0.60 20.47-1.30C20.47-2.02 21.02-2.57 21.74-2.57C22.44-2.57 22.99-2.02 22.99-1.30C22.99-0.60 22.44-0.05 21.74-0.05ZM13.69 3.13L14.19 2.33L20.40 2.33L20.89 3.13Z" fill="currentColor"/>
</svg>