<svg xmlns="http://www.w3.org/2000/svg" viewBox="0 0 24 24" width="24" height="24">
  
  <path transform="matrix(0.7810831426392068, 0, 0, 0.7810831426392068, 0.3615560640732265, 18.608695652173914)" d="M14.89 4.34C21.97 4.34 27.70-1.39 27.70-8.46C27.70-15.53 21.97-21.26 14.89-21.26C7.83-21.26 2.10-15.53 2.10-8.46C2.10-1.39 7.83 4.34 14.89 4.34ZM14.89 0.16C10.13 0.16 6.27-3.69 6.27-8.46C6.27-13.23 10.13-17.09 14.89-17.09C19.66-17.09 23.53-13.23 23.53-8.46C23.53-3.69 19.66 0.16 14.89 0.16ZM10.61-3.88L19.20-3.88C20.48-3.88 21.25-4.63 21.25-5.94L21.25-9.05C21.25-10.05 21.15-10.49 20.66-11.03L19.17-12.68C18.34-13.58 18.05-13.95 17.00-13.95L12.79-13.95C11.75-13.95 11.45-13.58 10.63-12.68L9.14-11.03C8.65-10.49 8.55-10.05 8.55-9.05L8.55-5.94C8.55-4.63 9.30-3.88 10.61-3.88ZM10.71-9.66C10.45-9.66 10.42-9.89 10.55-10.05L12.45-12.22C12.60-12.40 12.75-12.49 12.98-12.49L16.80-12.49C17.05-12.49 17.20-12.40 17.34-12.22L19.25-10.05C19.38-9.89 19.35-9.66 19.09-9.66L16.69-9.66C16.35-9.66 16.21-9.40 16.21-9.14L16.21-9.01C16.21-8.29 15.70-7.86 14.89-7.86C14.09-7.86 13.59-8.29 13.59-9.01L13.59-9.14C13.59-9.40 13.44-9.66 13.11-9.66Z" fill="currentColor"/>
</svg>