<svg xmlns="http://www.w3.org/2000/svg" viewBox="0 0 24 24" width="24" height="24">
  <title>tray.and.arrow.down</title>
  <path transform="matrix(0.6813040585495675, 0, 0, 0.6813040585495675, 0.1317365269461077, 18.311377245508982)" d="M13.84-13.37C13.16-13.37 12.48-12.84 12.48-12.06C12.48-11.66 12.62-11.39 12.89-11.12L16.09-8.07C16.52-7.65 16.97-7.50 17.41-7.50C17.87-7.50 18.32-7.65 18.75-8.07L21.95-11.12C22.21-11.39 22.36-11.66 22.36-12.06C22.36-12.84 21.68-13.37 21-13.37C20.59-13.37 20.24-13.21 19.98-12.93L19.28-12.18L19.01-11.72L19.20-13.04L19.20-22.17C19.20-23.11 18.42-23.94 17.41-23.94C16.41-23.94 15.64-23.11 15.64-22.17L15.64-13.04L15.82-11.72L15.56-12.18L14.86-12.93C14.60-13.21 14.24-13.37 13.84-13.37ZM21.46-17.05L21.46-13.88L22.37-13.88C22.91-13.88 23.25-13.62 23.55-13.24L27.43-8.68C27.63-8.44 27.56-8.12 27.19-8.12L20.21-8.12C19.55-8.12 19.32-7.82 19.32-7.44L19.32-7.41C19.32-6.53 18.67-5.50 17.41-5.50C16.17-5.50 15.52-6.53 15.52-7.41L15.52-7.44C15.52-7.82 15.28-8.12 14.63-8.12L7.64-8.12C7.28-8.12 7.20-8.44 7.39-8.68L11.27-13.24C11.59-13.62 11.93-13.88 12.47-13.88L13.38-13.88L13.38-17.05L12.35-17.05C10.80-17.05 9.50-16.42 8.06-14.79L4.27-10.48C3.20-9.26 2.99-8.31 2.99-6.05L2.99 0.82C2.99 3.71 4.69 5.41 7.58 5.41L27.25 5.41C30.15 5.41 31.85 3.71 31.85 0.82L31.85-6.05C31.85-8.31 31.64-9.26 30.56-10.48L26.74-14.81C25.31-16.44 24.02-17.05 22.49-17.05ZM8.05 1.25C7.34 1.25 6.98 0.96 6.98 0.18L6.98-4.66L12.60-4.66C13.35-2.98 15.11-1.71 17.41-1.71C19.73-1.71 21.49-2.98 22.23-4.66L27.86-4.66L27.86 0.18C27.86 0.96 27.50 1.25 26.78 1.25Z" fill="currentColor"/>
</svg>