<svg xmlns="http://www.w3.org/2000/svg" viewBox="0 0 24 24" width="24" height="24">
  
  <path transform="matrix(0.40442338072669826, 0, 0, 0.40442338072669826, 0.7914691943127963, 15.33175355450237)" d="M7.13 0.30L8.03 0.30C7.90-0.18 7.82-0.70 7.82-1.23C7.82-4.41 10.42-6.98 13.59-6.98C16.75-6.98 19.35-4.41 19.35-1.23C19.35-0.70 19.28-0.18 19.14 0.30L33.55 0.30C33.41-0.18 33.34-0.70 33.34-1.23C33.34-4.39 35.94-6.98 39.11-6.98C42.27-6.98 44.86-4.41 44.86-1.23C44.86-0.70 44.79-0.18 44.66 0.30L48.32 0.30C50.82 0.30 52.44-1.29 52.44-3.89L52.44-9.38C52.44-12.08 50.53-13.77 47.59-13.77L38.81-13.77L38.73-14.55C38.38-17.58 36.56-19.23 33.52-19.23L28.88-19.23C23.91-19.23 21.70-18.70 18.64-16.78L15.45-14.78L17.87-11.60C18.60-10.65 19.01-10.44 20.14-10.44L22.82-10.44L22.82-11.26C22.82-12.25 23.66-12.54 24.39-12.06L27.35-10.16C28.02-9.73 28.01-8.88 27.35-8.46L24.38-6.55C23.66-6.08 22.82-6.38 22.82-7.35L22.82-8.19L20.14-8.19C18.38-8.19 17.14-8.81 16.07-10.23L13.35-13.82L14.06-13.91L15.45-14.78L14.79-15.63C13.72-17.03 12.47-17.58 10.57-17.58L7.78-17.58C7.17-17.58 6.67-17.06 6.67-16.45C6.67-15.84 7.17-15.33 7.78-15.33L10.57-15.33C11.89-15.33 12.35-15.14 13.02-14.25L13.35-13.82L9.89-13.38C5.39-12.83 2.99-10.61 2.99-6.80L2.99-3.89C2.99-1.15 4.62 0.30 7.13 0.30ZM13.59 2.75C15.77 2.75 17.58 0.97 17.58-1.23C17.58-3.42 15.77-5.21 13.59-5.21C11.39-5.21 9.59-3.42 9.59-1.23C9.59 0.97 11.39 2.75 13.59 2.75ZM39.11 2.75C41.30 2.75 43.09 0.97 43.09-1.23C43.09-3.42 41.30-5.21 39.11-5.21C36.91-5.21 35.11-3.42 35.11-1.23C35.11 0.97 36.91 2.75 39.11 2.75Z" fill="currentColor"/>
</svg>