<svg xmlns="http://www.w3.org/2000/svg" viewBox="0 0 24 24" width="24" height="24">
  <title>truck.box.fill</title>
  <path transform="matrix(0.5012236906510035, 0, 0, 0.5012236906510035, 0.5022026431718043, 16.226138032305435)" d="M28.79-4.01L28.79-18.14C28.79-21.12 27.06-22.86 24.08-22.86L7.71-22.86C4.73-22.86 2.99-21.12 2.99-18.14L2.99-2.14C2.99 0.50 4.36 2.50 6.79 2.50L7.10 2.50C7.03 2.13 7.00 1.77 7.00 1.39C7.00-2.12 9.87-4.98 13.38-4.98C16.89-4.98 19.75-2.12 19.75 1.39C19.75 1.78 19.70 2.17 19.63 2.55L25.89 2.57C25.82 2.19 25.78 1.79 25.78 1.39C25.78-0.89 26.99-2.89 28.79-4.01ZM30.66-16.37L30.66-4.80C31.14-4.91 31.64-4.98 32.16-4.98C35.66-4.98 38.52-2.12 38.52 1.39C38.52 1.79 38.48 2.19 38.41 2.58L38.77 2.58C41.39 2.58 42.89 0.62 42.89-2.14L42.89-6.71C42.89-8.30 42.63-9.05 41.75-10.03L37.45-14.89C36.52-15.95 35.45-16.37 33.87-16.37ZM35.16-7.50C34.31-7.50 33.74-8.06 33.74-8.91L33.74-12.19L34.38-12.19C34.96-12.19 35.25-12.05 35.64-11.61L38.73-8.10C38.89-7.90 39-7.77 39.01-7.50ZM32.16 6C34.70 6 36.75 3.98 36.75 1.39C36.75-1.15 34.70-3.21 32.16-3.21C29.61-3.21 27.55-1.15 27.55 1.39C27.55 3.93 29.61 6 32.16 6ZM13.38 6C15.90 6 17.98 3.90 17.98 1.39C17.98-1.15 15.91-3.21 13.38-3.21C10.84-3.21 8.77-1.15 8.77 1.39C8.77 3.93 10.84 6 13.38 6Z" fill="currentColor"/>
</svg>