<svg xmlns="http://www.w3.org/2000/svg" viewBox="0 0 24 24" width="24" height="24">
  <title>truck.side.roof.cargo.carrier.fill</title>
  <path transform="matrix(0.4348195329087049, 0, 0, 0.4348195329087049, 0.7006369426751593, 17.256050955414015)" d="M22.28-19.90L33.28-19.90C34.80-19.90 35.38-20.66 35.38-22.35L35.38-23.60C35.38-25.82 34.39-26.93 32.19-26.93L29.99-26.93C27.67-26.93 26.45-26.58 23.72-25.14L21.43-23.93C20.30-23.32 19.93-22.75 19.93-21.75C19.93-20.68 20.77-19.90 22.28-19.90ZM6.83 0.48L7.55 0.48C7.43 0.02 7.36-0.46 7.36-0.95C7.36-4.04 9.69-6.42 12.86-6.42C16.10-6.42 18.32-4.03 18.32-0.95C18.32-0.46 18.26 0.02 18.13 0.48L31.25 0.48C31.16 0.14 31.09-0.34 31.09-0.84C31.09-3.93 33.42-6.32 36.59-6.32C39.83-6.32 42.05-3.93 42.05-0.84C42.05-0.34 41.99 0.14 41.88 0.48L45.14 0.48C47.47 0.48 48.98-1.01 48.98-3.42L48.98-8.52C48.98-11.04 47.20-12.61 44.46-12.61L36.32-12.61L36.22-13.34C35.87-16.16 34.22-17.70 31.38-17.70L27.06-17.70C22.44-17.70 20.40-17.19 17.54-15.41L13.30-12.75L9.41-12.26C5.23-11.73 2.99-9.67 2.99-6.14L2.99-3.42C2.99-0.87 4.50 0.48 6.83 0.48ZM12.86 2.75C14.88 2.75 16.56 1.10 16.56-0.95C16.56-2.99 14.88-4.65 12.86-4.65C10.80-4.65 9.13-2.99 9.13-0.95C9.13 1.10 10.80 2.75 12.86 2.75ZM36.59 2.75C38.63 2.75 40.29 1.10 40.29-0.95C40.29-2.99 38.63-4.65 36.59-4.65C34.55-4.65 32.86-2.99 32.86-0.95C32.86 1.10 34.55 2.75 36.59 2.75Z" fill="currentColor"/>
</svg>