<svg xmlns="http://www.w3.org/2000/svg" viewBox="0 0 24 24" width="24" height="24">
  
  <path transform="matrix(0.4349544413821494, 0, 0, 0.4349544413821494, 0.6939706732742372, 15.735039763258044)" d="M15.63-0.40L16.97-1.16C18.15-0.42 19.70-0.34 21-1.09C22.29-1.84 23.00-3.22 22.95-4.62L34.03-11.02C35.23-10.28 36.77-10.20 38.07-10.95C39.36-11.70 40.07-13.08 40.02-14.47L43.18-16.30C44.86-17.27 45.33-18.96 44.32-20.71L42.20-24.39C41.16-26.20 39.22-26.59 37.25-25.45L31.38-22.05L31.04-22.52C29.64-24.41 27.79-24.81 25.76-23.64L22.65-21.84C19.34-19.93 18.06-18.71 16.76-16.25L14.80-12.56L12.21-10.61C9.42-8.50 8.67-6.08 10.14-3.54L11.25-1.62C12.30 0.22 13.96 0.57 15.63-0.40ZM13.69-3.66L12.84-5.10C12.26-6.13 12.54-6.93 14.10-8.11L17.24-10.50L19.52-14.78C20.57-16.75 21.34-17.48 24.21-19.14L27.41-20.99C27.77-21.20 28.08-21.16 28.34-20.82L30.46-17.94L38.80-22.76C39.15-22.96 39.49-22.86 39.70-22.51L41.36-19.63C41.57-19.28 41.48-18.93 41.13-18.73L38.66-17.30C37.43-18.36 35.63-18.59 34.15-17.73C32.67-16.88 31.96-15.20 32.26-13.61L21.60-7.44C20.37-8.51 18.55-8.73 17.09-7.88C15.61-7.03 14.89-5.34 15.20-3.75L14.58-3.40C14.24-3.20 13.89-3.29 13.69-3.66ZM36.68-13.35C36.15-13.04 35.50-13.22 35.19-13.75C34.89-14.29 35.06-14.93 35.59-15.23C36.12-15.54 36.77-15.38 37.08-14.84C37.38-14.31 37.21-13.65 36.68-13.35ZM12.21 7.93C12.76 8.87 13.96 9.20 14.86 8.66L48.02-10.48C48.93-11.02 49.27-12.20 48.73-13.11C48.16-14.05 46.97-14.38 46.08-13.85L12.91 5.30C12.01 5.82 11.68 7.01 12.21 7.93ZM19.62-3.50C19.09-3.19 18.43-3.36 18.13-3.90C17.82-4.43 18-5.07 18.53-5.39C19.04-5.68 19.71-5.52 20.02-4.98C20.32-4.45 20.13-3.80 19.62-3.50ZM9.15 1.59L6.52-3C5.92-4.04 4.64-3.76 4.31-2.75L3.07 1.08C2.85 1.79 3.19 2.38 3.90 2.52L7.83 3.36C8.91 3.59 9.75 2.64 9.15 1.59Z" fill="currentColor"/>
</svg>