<svg xmlns="http://www.w3.org/2000/svg" viewBox="0 0 24 24" width="24" height="24">
  <title>tugriksign</title>
  <path transform="matrix(0.9486751899203261, 0, 0, 0.9486751899203261, -0.14007782101167177, 20.02112284602557)" d="M6.59-1.99C6.68-1.99 6.79-2.00 6.88-2.04L9.87-3.08L9.87-0.90C9.87 0.98 10.96 2.09 12.80 2.09C14.58 2.09 15.73 1.07 15.73-0.90L15.73-5.11L19.20-6.32C19.51-6.42 19.69-6.66 19.69-6.97C19.69-7.34 19.41-7.61 19.04-7.61C18.95-7.61 18.86-7.59 18.76-7.56L15.73-6.50L15.73-9.13L19.20-10.32C19.51-10.44 19.69-10.66 19.69-10.99C19.69-11.34 19.41-11.63 19.04-11.63C18.95-11.63 18.86-11.61 18.76-11.58L15.73-10.52L15.73-14.37L20.24-14.37C21.63-14.37 22.61-15.33 22.61-16.69C22.61-18.05 21.63-19.00 20.24-19.00L5.36-19.00C3.96-19.00 2.99-18.05 2.99-16.69C2.99-15.33 3.96-14.37 5.36-14.37L9.87-14.37L9.87-8.50L6.45-7.30C6.11-7.20 5.94-6.96 5.94-6.63C5.94-6.33 6.20-6 6.59-6C6.68-6 6.79-6.02 6.88-6.06L9.87-7.09L9.87-4.48L6.45-3.29C6.11-3.18 5.94-2.95 5.94-2.63C5.94-2.31 6.20-1.99 6.59-1.99Z" fill="currentColor"/>
</svg>