<svg xmlns="http://www.w3.org/2000/svg" viewBox="0 0 24 24" width="24" height="24">
  <title>vial.viewfinder</title>
  <path transform="matrix(0.8177607410956717, 0, 0, 0.8177607410956717, -0.44369908960229987, 18.904647819837088)" d="M5.07-11.24C6.42-11.24 7.15-11.98 7.15-13.34L7.15-15.45C7.15-16.22 7.50-16.51 8.21-16.51L10.34-16.51C11.71-16.51 12.43-17.25 12.43-18.60C12.43-19.95 11.71-20.67 10.34-20.67L7.58-20.67C4.69-20.67 2.99-18.98 2.99-16.08L2.99-13.34C2.99-11.96 3.73-11.24 5.07-11.24ZM25.37-11.24C26.72-11.24 27.45-11.96 27.45-13.34L27.45-16.08C27.45-18.98 25.76-20.67 22.85-20.67L20.10-20.67C18.74-20.67 18-19.95 18-18.60C18-17.25 18.75-16.51 20.10-16.51L22.22-16.51C22.93-16.51 23.29-16.22 23.29-15.45L23.29-13.34C23.29-11.96 24.02-11.24 25.37-11.24ZM13.37-1.97L17.07-1.97C18.27-1.97 19.09-2.79 19.09-4.00L19.09-9.18C19.09-10.30 18.36-11.11 17.30-11.20L17.30-11.80C17.99-11.84 18.38-12.26 18.38-12.97L18.38-13.80C18.38-14.52 17.95-14.96 17.23-14.96L13.23-14.96C12.49-14.96 12.07-14.52 12.07-13.80L12.07-12.97C12.07-12.26 12.47-11.84 13.15-11.80L13.15-11.20C12.08-11.11 11.36-10.30 11.36-9.18L11.36-4.00C11.36-2.79 12.19-1.97 13.37-1.97ZM7.58 3.79L10.34 3.79C11.71 3.79 12.43 3.05 12.43 1.70C12.43 0.35 11.68-0.38 10.34-0.38L8.21-0.38C7.50-0.38 7.15-0.67 7.15-1.45L7.15-3.56C7.15-4.92 6.42-5.66 5.07-5.66C3.71-5.66 2.99-4.92 2.99-3.56L2.99-0.81C2.99 2.09 4.69 3.79 7.58 3.79ZM20.10 3.79L22.85 3.79C25.76 3.79 27.45 2.09 27.45-0.81L27.45-3.56C27.45-4.92 26.72-5.66 25.37-5.66C24.02-5.66 23.29-4.91 23.29-3.56L23.29-1.45C23.29-0.67 22.93-0.38 22.22-0.38L20.10-0.38C18.74-0.38 18 0.35 18 1.70C18 3.05 18.74 3.79 20.10 3.79Z" fill="currentColor"/>
</svg>