<svg xmlns="http://www.w3.org/2000/svg" viewBox="0 0 24 24" width="24" height="24">
  <title>video.slash.circle</title>
  <path transform="matrix(0.7810831426392068, 0, 0, 0.7810831426392068, 0.3615560640732265, 18.608695652173914)" d="M14.89 4.34C21.97 4.34 27.70-1.39 27.70-8.46C27.70-15.53 21.97-21.26 14.89-21.26C7.83-21.26 2.10-15.53 2.10-8.46C2.10-1.39 7.83 4.34 14.89 4.34ZM14.89 0.16C10.13 0.16 6.27-3.69 6.27-8.46C6.27-13.23 10.13-17.09 14.89-17.09C19.66-17.09 23.53-13.23 23.53-8.46C23.53-3.69 19.66 0.16 14.89 0.16ZM18.87-3.33C19.18-3.02 19.71-3.01 20.03-3.33C20.34-3.66 20.34-4.18 20.03-4.50L10.95-13.58C10.63-13.90 10.09-13.90 9.77-13.58C9.45-13.25 9.45-12.73 9.77-12.41ZM17.72-8.06L17.72-10.72C17.72-11.93 17.04-12.62 15.74-12.62L13.17-12.62ZM18.38-10.31L18.38-7.41L19.69-6.13C20.00-5.81 20.29-5.66 20.60-5.66C21.07-5.66 21.41-5.96 21.41-6.49L21.41-11.04C21.41-11.55 21.07-11.86 20.60-11.86C20.29-11.86 20.02-11.67 19.69-11.40ZM8.96-10.72L8.96-6.02C8.96-4.80 9.66-4.27 10.96-4.27L15.73-4.27C16.04-4.27 16.30-4.30 16.54-4.38L9.20-11.74C9.05-11.45 8.96-11.11 8.96-10.72Z" fill="currentColor"/>
</svg>