<svg xmlns="http://www.w3.org/2000/svg" viewBox="0 0 24 24" width="24" height="24">
  <title>video.square.fill</title>
  <path transform="matrix(0.8606488485459741, 0, 0, 0.8606488485459741, -0.571860816944024, 19.286938981341404)" d="M7.58 3.15L21.63 3.15C24.53 3.15 26.23 1.46 26.23-1.44L26.23-15.49C26.23-18.39 24.53-20.09 21.63-20.09L7.58-20.09C4.69-20.09 2.99-18.39 2.99-15.49L2.99-1.44C2.99 1.46 4.69 3.15 7.58 3.15ZM10.52-3.95C9.12-3.95 8.37-4.52 8.37-5.84L8.37-10.90C8.37-12.19 9.13-12.94 10.52-12.94L15.66-12.94C17.06-12.94 17.79-12.19 17.79-10.90L17.79-5.99C17.79-4.69 17.05-3.95 15.66-3.95ZM18.50-6.30L18.50-10.45L19.90-11.61C20.26-11.92 20.55-12.12 20.89-12.12C21.40-12.12 21.77-11.79 21.77-11.24L21.77-5.53C21.77-4.97 21.40-4.64 20.89-4.64C20.55-4.64 20.25-4.84 19.90-5.13Z" fill="currentColor"/>
</svg>