<svg xmlns="http://www.w3.org/2000/svg" viewBox="0 0 24 24" width="24" height="24">
  <title>videoprojector</title>
  <path transform="matrix(0.5168584696143751, 0, 0, 0.5168584696143751, 0.45548152634766814, 16.539672925499698)" d="M22.32-1.07C23.50-1.07 24.60-1.29 25.61-1.68L31.02-1.68L31.02-0.98C31.02 0.07 31.77 0.83 32.84 0.83L37.17 0.83C38.24 0.83 38.99 0.07 38.99-0.98L38.99-1.96C40.72-2.53 41.68-4.02 41.68-6.22L41.68-13.23C41.68-16.11 40.03-17.78 37.14-17.78L25.64-17.78C24.62-18.18 23.51-18.40 22.32-18.40C21.15-18.40 20.04-18.18 19.02-17.78L7.54-17.78C4.64-17.78 2.99-16.11 2.99-13.23L2.99-6.22C2.99-4.02 3.95-2.53 5.68-1.96L5.68-0.98C5.68 0.07 6.43 0.83 7.50 0.83L11.84 0.83C12.91 0.83 13.65 0.07 13.65-0.98L13.65-1.68L19.05-1.68C20.05-1.29 21.16-1.07 22.32-1.07ZM22.32-4.25C19.25-4.25 16.85-6.67 16.85-9.73C16.85-12.80 19.25-15.21 22.32-15.21C25.39-15.21 27.82-12.80 27.82-9.73C27.82-6.67 25.39-4.25 22.32-4.25ZM22.32-5.44C24.74-5.44 26.64-7.32 26.64-9.73C26.64-12.13 24.74-14.03 22.32-14.03C19.92-14.03 18.04-12.13 18.04-9.73C18.04-7.32 19.92-5.44 22.32-5.44ZM31.01-9.73C31.01-11.30 30.61-12.76 29.92-14.03L36.77-14.03C37.25-14.03 37.52-13.73 37.52-13.27L37.52-6.18C37.52-5.70 37.25-5.43 36.77-5.43L29.91-5.43C30.61-6.69 31.01-8.14 31.01-9.73ZM7.90-5.43C7.42-5.43 7.15-5.70 7.15-6.18L7.15-13.27C7.15-13.73 7.42-14.03 7.90-14.03L14.75-14.03C14.06-12.76 13.66-11.30 13.66-9.73C13.66-8.14 14.06-6.69 14.77-5.43ZM32.02-11.77C32.02-11.05 32.54-10.52 33.27-10.52L35.43-10.52C36.14-10.52 36.67-11.05 36.67-11.77C36.67-12.49 36.14-13.02 35.43-13.02L33.27-13.02C32.54-13.02 32.02-12.49 32.02-11.77ZM22.32-8.25C21.49-8.25 20.85-8.89 20.85-9.73C20.85-10.57 21.49-11.21 22.32-11.21C23.17-11.21 23.82-10.57 23.82-9.73C23.82-8.89 23.17-8.25 22.32-8.25ZM32.02-8.48C32.02-7.77 32.54-7.24 33.27-7.24L35.43-7.24C36.14-7.24 36.67-7.77 36.67-8.48C36.67-9.21 36.14-9.74 35.43-9.74L33.27-9.74C32.54-9.74 32.02-9.21 32.02-8.48Z" fill="currentColor"/>
</svg>