<svg xmlns="http://www.w3.org/2000/svg" viewBox="0 0 24 24" width="24" height="24">
  <title>voiceover</title>
  <path transform="matrix(0.6785950960901259, 0, 0, 0.6785950960901259, 3.1928429423459246, 17.733598409542743)" d="M14.91 4.35C21.96 4.35 27.71-1.39 27.71-8.45C27.71-15.50 21.96-21.25 14.91-21.25C8.46-21.25 3.12-16.44 2.23-10.24C3.60-10.68 5.09-10.72 6.50-10.38C7.38-14.23 10.80-17.07 14.91-17.07C19.68-17.07 23.53-13.22 23.53-8.45C23.54-3.68 19.68 0.18 14.91 0.18C14.11 0.18 13.35 0.08 12.62-0.13C12.23 1.28 11.47 2.55 10.45 3.55C11.85 4.07 13.35 4.35 14.91 4.35ZM14.91-12.76C15.68-12.76 16.29-13.39 16.29-14.14C16.29-14.91 15.68-15.53 14.91-15.53C14.13-15.53 13.52-14.91 13.52-14.14C13.52-13.39 14.13-12.76 14.91-12.76ZM14.91-12.06C13.39-12.06 11.24-12.30 10.22-12.47C10.13-12.49 10.02-12.50 9.93-12.50C9.66-12.50 9.39-12.29 9.39-11.91C9.39-11.61 9.55-11.38 9.84-11.30C10.17-11.20 12.60-10.92 12.90-10.86C13.21-10.80 13.38-10.55 13.39-10.18C13.43-9.62 13.39-7.86 13.27-7.05C13.13-6.26 12.21-2.40 12.16-2.24C12.06-1.83 12.29-1.46 12.71-1.46C13.02-1.46 13.22-1.63 13.32-2.02C13.54-2.80 14.18-5.46 14.39-6.11C14.54-6.57 14.65-6.74 14.91-6.74C15.16-6.74 15.28-6.57 15.43-6.11C15.64-5.47 16.31-2.80 16.49-2.02C16.58-1.63 16.79-1.46 17.10-1.46C17.52-1.46 17.75-1.83 17.65-2.24C17.61-2.40 16.68-6.26 16.55-7.05C16.43-7.86 16.43-9.62 16.43-10.18C16.43-10.55 16.61-10.80 16.91-10.86C17.21-10.92 19.64-11.19 19.98-11.30C20.26-11.39 20.43-11.61 20.43-11.91C20.43-12.29 20.14-12.50 19.89-12.50C19.79-12.50 19.69-12.49 19.59-12.47C18.57-12.30 16.43-12.06 14.91-12.06ZM4.63 4.09C8.12 4.09 11.02 1.17 11.02-2.31C11.02-5.80 8.13-8.68 4.63-8.68C1.13-8.68-1.76-5.80-1.76-2.31C-1.76 1.17 1.13 4.09 4.63 4.09ZM0.57-1.78L0.57-2.81C0.57-3.40 0.88-3.73 1.45-3.73L2.11-3.73C2.19-3.73 2.24-3.75 2.30-3.81L3.42-4.82C3.62-5.00 3.79-5.09 4.00-5.09C4.32-5.09 4.59-4.84 4.59-4.50L4.59-0.12C4.59 0.23 4.32 0.48 4.00 0.48C3.79 0.48 3.60 0.40 3.39 0.22L2.30-0.79C2.24-0.84 2.19-0.88 2.11-0.88L1.45-0.88C0.88-0.88 0.57-1.20 0.57-1.78ZM7.16 0.12C6.88-0.02 6.86-0.36 7.04-0.67C7.30-1.15 7.46-1.70 7.46-2.29C7.46-2.88 7.30-3.45 7.04-3.91C6.86-4.21 6.88-4.55 7.16-4.71C7.41-4.84 7.70-4.78 7.85-4.55C8.26-3.88 8.47-3.12 8.47-2.29C8.47-1.46 8.26-0.69 7.85-0.04C7.70 0.19 7.41 0.26 7.16 0.12ZM5.61-0.75C5.37-0.90 5.31-1.20 5.52-1.57C5.65-1.78 5.71-2.04 5.71-2.30C5.71-2.58 5.65-2.84 5.52-3.05C5.31-3.40 5.37-3.71 5.61-3.86C5.85-4.00 6.13-3.94 6.27-3.74C6.55-3.33 6.73-2.84 6.73-2.30C6.73-1.78 6.55-1.28 6.27-0.88C6.13-0.68 5.85-0.61 5.61-0.75Z" fill="currentColor"/>
</svg>