<svg xmlns="http://www.w3.org/2000/svg" viewBox="0 0 24 24" width="24" height="24">
  
  <path transform="matrix(0.755831118984352, 0, 0, 0.755831118984352, 1.486271036315323, 18.386182462356068)" d="M7.58 4.78L20.24 4.78C23.14 4.78 24.83 3.08 24.83 0.18L24.83-17.09C24.83-19.99 23.14-21.68 20.24-21.68L16.63-21.68C16.04-21.68 15.76-21.45 15.76-20.99C15.76-20.11 15.12-19.14 13.91-19.14C12.70-19.14 12.06-20.11 12.06-20.99C12.06-21.45 11.78-21.68 11.19-21.68L7.58-21.68C4.69-21.68 2.99-19.99 2.99-17.09L2.99 0.18C2.99 3.08 4.69 4.78 7.58 4.78ZM8.23 0.62C7.44 0.62 7.15 0.27 7.15-0.46L7.15-16.45C7.15-17.18 7.44-17.53 8.23-17.53L10.01-17.53C10.71-16.14 12.13-15.34 13.91-15.34C15.69-15.34 17.11-16.14 17.81-17.53L19.61-17.53C20.38-17.53 20.67-17.18 20.67-16.45L20.67-0.46C20.67 0.27 20.38 0.62 19.61 0.62ZM10.31-11.52L17.50-11.52C17.98-11.52 18.33-11.89 18.33-12.38C18.33-12.83 17.98-13.20 17.50-13.20L10.31-13.20C9.82-13.20 9.47-12.83 9.47-12.38C9.47-11.89 9.82-11.52 10.31-11.52ZM10.31-7.89L14.19-7.89C14.67-7.89 15.02-8.25 15.02-8.71C15.02-9.19 14.67-9.56 14.19-9.56L10.31-9.56C9.82-9.56 9.47-9.19 9.47-8.71C9.47-8.25 9.82-7.89 10.31-7.89Z" fill="currentColor"/>
</svg>