<svg xmlns="http://www.w3.org/2000/svg" viewBox="0 0 24 24" width="24" height="24">
  <title>wand.and.rays.inverse</title>
  <path transform="matrix(0.6832132372564719, 0, 0, 0.6832132372564719, 0.5668534827862288, 17.812650120096077)" d="M18.60-21.22C18.60-22.24 17.74-23.11 16.72-23.11C15.71-23.11 14.86-22.24 14.86-21.22L14.86-17.71C14.86-16.69 15.71-15.83 16.72-15.83C17.74-15.83 18.60-16.69 18.60-17.71ZM22.04-16.42C21.34-15.71 21.35-14.50 22.08-13.77C22.78-13.07 24.01-13.08 24.71-13.80L27.06-16.16C27.75-16.85 27.74-18.08 27.01-18.81C26.32-19.51 25.09-19.48 24.38-18.77ZM8.73-13.80C9.45-13.08 10.68-13.07 11.37-13.77C12.09-14.50 12.11-15.71 11.41-16.42L9.07-18.77C8.37-19.48 7.14-19.51 6.43-18.81C5.72-18.08 5.70-16.85 6.40-16.16ZM28.91 3.69C29.82 2.77 29.84 1.25 28.91 0.33L17.70-10.99C16.78-11.91 15.26-11.91 14.33-10.99C13.42-10.07 13.41-8.55 14.33-7.63L25.55 3.69C26.46 4.61 28.00 4.61 28.91 3.69ZM3.96-10.37C2.95-10.37 2.10-9.53 2.10-8.51C2.10-7.49 2.95-6.63 3.96-6.63L7.49-6.63C8.51-6.63 9.38-7.49 9.38-8.51C9.38-9.53 8.51-10.37 7.49-10.37ZM29.48-6.63C30.50-6.63 31.37-7.49 31.37-8.51C31.37-9.53 30.50-10.37 29.48-10.37L25.96-10.37C24.95-10.37 24.09-9.53 24.09-8.51C24.09-7.49 24.95-6.63 25.96-6.63ZM27.67 2.43C27.38 2.73 26.89 2.73 26.59 2.43L19.44-4.76L20.47-5.84L27.66 1.37C27.95 1.66 27.97 2.13 27.67 2.43ZM6.41-0.90C5.68-0.19 5.67 1.04 6.36 1.73C7.09 2.46 8.32 2.47 9.02 1.78L11.37-0.55C12.09-1.27 12.11-2.50 11.41-3.19C10.69-3.91 9.46-3.93 8.75-3.23ZM18.60 0.69C18.60-0.33 17.74-1.18 16.72-1.18C15.71-1.18 14.86-0.33 14.86 0.69L14.86 4.21C14.86 5.23 15.71 6.09 16.72 6.09C17.74 6.09 18.60 5.23 18.60 4.21Z" fill="currentColor"/>
</svg>