<svg xmlns="http://www.w3.org/2000/svg" viewBox="0 0 24 24" width="24" height="24">
  
  <path transform="matrix(0.7064017660044151, 0, 0, 0.7064017660044151, -0.11092715231788075, 17.96440397350993)" d="M9.52-13.68L7.78-9.46L2.99-9.46L2.99-15.47C2.99-18.38 4.69-20.06 7.58-20.06L26.71-20.06C29.60-20.06 31.30-18.38 31.30-15.47L31.30-9.46L25.49-9.46C24.84-9.46 24.43-9.11 24.19-8.51L23.99-8.03L22.13-13.69C21.77-14.74 20.23-14.75 19.78-13.68L18.06-9.46L15.22-9.46C14.57-9.46 14.17-9.11 13.92-8.51L13.72-8.03L11.86-13.69C11.51-14.74 9.95-14.75 9.52-13.68ZM2.99-6.95L8.64-6.95C9.28-6.95 9.71-7.24 9.96-7.86L10.62-9.53L12.52-3.32C12.86-2.23 14.54-2.23 14.89-3.33L16.02-6.95L18.86-6.95C19.49-6.95 19.89-7.25 20.16-7.86L20.88-9.57L22.78-3.32C23.12-2.23 24.81-2.23 25.16-3.33L26.29-6.95L31.30-6.95L31.30-1.42C31.30 1.48 29.60 3.18 26.71 3.18L7.58 3.18C4.69 3.18 2.99 1.48 2.99-1.42Z" fill="currentColor"/>
</svg>