<svg xmlns="http://www.w3.org/2000/svg" viewBox="0 0 24 24" width="24" height="24">
  <title>waveform.path.ecg.text.page.fill</title>
  <path transform="matrix(0.755831118984352, 0, 0, 0.755831118984352, 1.486271036315323, 18.386182462356068)" d="M2.99 0.18C2.99 3.08 4.69 4.78 7.58 4.78L20.24 4.78C23.14 4.78 24.83 3.08 24.83 0.18L24.83-17.07C24.83-19.98 23.14-21.68 20.24-21.68L7.58-21.68C4.69-21.68 2.99-19.98 2.99-17.07ZM9.82-11.14C9.35-11.14 8.96-11.51 8.96-12C8.96-12.45 9.36-12.84 9.82-12.84L11.00-12.84L11.77-16.08C11.99-16.95 13.20-16.93 13.37-16.04L14.07-12.69L14.74-14.70C15.02-15.55 16.17-15.60 16.38-14.74L16.86-12.84L18-12.84C18.49-12.84 18.87-12.47 18.87-12C18.87-11.51 18.49-11.14 18-11.14L16.32-11.14C15.96-11.14 15.69-11.30 15.55-11.59L15.52-11.67L14.75-9.21C14.48-8.33 13.31-8.36 13.11-9.25L12.52-12.11L12.45-11.81C12.34-11.38 12.02-11.14 11.58-11.14ZM9.84-4.79C9.30-4.79 8.89-5.20 8.89-5.74C8.89-6.26 9.30-6.66 9.84-6.66L17.96-6.66C18.49-6.66 18.90-6.26 18.90-5.74C18.90-5.20 18.49-4.79 17.96-4.79ZM9.84-1.56C9.30-1.56 8.89-1.96 8.89-2.47C8.89-3.01 9.30-3.42 9.84-3.42L14.23-3.42C14.77-3.42 15.16-3.01 15.16-2.47C15.16-1.96 14.77-1.56 14.23-1.56Z" fill="currentColor"/>
</svg>