<svg xmlns="http://www.w3.org/2000/svg" viewBox="0 0 24 24" width="24" height="24">
  <title>wave.3.down.car.side</title>
  <path transform="matrix(0.438957475994513, 0, 0, 0.438957475994513, 0.6882716049382716, 15.71141975308642)" d="M7.71-0.33L8.93-0.33C9.81 1.28 11.51 2.34 13.50 2.34C15.48 2.34 17.18 1.28 18.06-0.33L33.49-0.33C34.36 1.28 36.06 2.34 38.04 2.34C40.03 2.34 41.73 1.28 42.61-0.33L43.83-0.33C46.88-0.33 48.55-2.09 48.55-5.31L48.55-8.71C48.55-11.34 47.13-12.96 44.52-13.91L42.74-14.55C40.41-16.59 36.67-19.25 31.90-19.25L29.92-19.25C24.68-19.25 22.46-18.74 19.29-16.73L14.47-13.69L9.22-13.05C5.37-12.60 2.99-10.09 2.99-6.70L2.99-5.21C2.99-2.06 4.66-0.33 7.71-0.33ZM38.04-8.05C35.51-8.05 33.45-6.32 32.96-3.94L18.59-3.94C18.09-6.32 16.03-8.05 13.50-8.05C10.96-8.05 8.89-6.32 8.40-3.94L7.71-3.94C6.98-3.94 6.60-4.43 6.60-5.31L6.60-6.70C6.60-8.23 7.57-9.22 9.69-9.47L14.58-10.07C15.34-10.16 16.02-10.39 16.64-10.77L21.22-13.65C23.85-15.29 25.29-15.64 29.92-15.64L31.90-15.64C34.83-15.64 37.13-14.55 40.23-11.86C40.90-11.27 41.36-11.06 42.23-10.78L43.44-10.39C44.41-10.09 44.94-9.39 44.94-8.43L44.94-5.31C44.94-4.43 44.55-3.94 43.83-3.94L43.14-3.94C42.64-6.32 40.58-8.05 38.04-8.05ZM26.05-10.95C26.96-10.95 27.89-11.25 28.63-11.77C29.09-12.09 29.21-12.75 28.90-13.27C28.56-13.86 27.86-13.96 27.15-13.56C26.80-13.35 26.45-13.25 26.05-13.25C25.65-13.25 25.29-13.35 24.95-13.56C24.23-13.96 23.55-13.86 23.20-13.27C22.89-12.75 23.00-12.09 23.47-11.77C24.20-11.25 25.13-10.95 26.05-10.95ZM26.05-7.98C27.46-7.98 28.83-8.38 29.99-9.13C30.52-9.43 30.69-10.09 30.38-10.64C30.04-11.25 29.32-11.38 28.64-10.99C27.86-10.52 26.98-10.29 26.05-10.29C25.11-10.29 24.23-10.52 23.46-10.99C22.77-11.38 22.05-11.25 21.73-10.64C21.41-10.09 21.57-9.43 22.10-9.13C23.26-8.38 24.63-7.98 26.05-7.98ZM26.05-5.03C27.93-5.03 29.79-5.54 31.41-6.50C31.97-6.84 32.14-7.50 31.80-8.07C31.48-8.65 30.77-8.80 30.13-8.43C28.89-7.70 27.50-7.32 26.05-7.32C24.60-7.32 23.21-7.70 21.96-8.43C21.32-8.80 20.60-8.65 20.29-8.07C19.96-7.51 20.13-6.84 20.68-6.50C22.30-5.54 24.16-5.03 26.05-5.03ZM13.50-1.11C12.52-1.11 11.74-1.88 11.74-2.85C11.74-3.83 12.52-4.61 13.50-4.61C14.47-4.61 15.23-3.83 15.23-2.85C15.23-1.88 14.47-1.11 13.50-1.11ZM38.04-1.11C37.07-1.11 36.30-1.88 36.30-2.85C36.30-3.83 37.07-4.61 38.04-4.61C39.02-4.61 39.80-3.83 39.80-2.85C39.80-1.88 39.02-1.11 38.04-1.11Z" fill="currentColor"/>
</svg>