<svg xmlns="http://www.w3.org/2000/svg" viewBox="0 0 24 24" width="24" height="24">
  <title>wifi</title>
  <path transform="matrix(0.6930859719439432, 0, 0, 0.6930859719439432, 0.921453917208533, 17.85603498951074)" d="M3.57-9.69C3.95-9.30 4.56-9.32 4.92-9.71C7.89-12.83 11.68-14.47 15.98-14.47C20.32-14.47 24.13-12.83 27.08-9.69C27.45-9.33 28.03-9.34 28.39-9.73L30.14-11.48C30.48-11.81 30.50-12.32 30.20-12.64C27.12-16.48 21.53-18.96 15.98-18.96C10.44-18.96 4.85-16.48 1.77-12.64C1.46-12.32 1.49-11.81 1.83-11.48ZM8.63-4.89C9.04-4.50 9.61-4.52 10.00-4.95C11.55-6.52 13.80-7.45 15.98-7.45C18.20-7.45 20.48-6.48 22.04-4.89C22.41-4.49 22.93-4.52 23.34-4.89L25.30-6.70C25.63-7.02 25.68-7.46 25.37-7.80C23.32-10.17 19.71-11.67 15.98-11.67C12.26-11.67 8.66-10.17 6.60-7.80C6.29-7.46 6.34-7.02 6.67-6.70ZM16.00 2.06C16.39 2.06 16.75 1.88 17.27 1.37L20.24-1.50C20.58-1.83 20.64-2.36 20.32-2.72C19.29-4.00 17.65-4.78 16.00-4.78C14.32-4.78 12.59-3.95 11.54-2.54C11.32-2.23 11.45-1.79 11.74-1.50L14.72 1.37C15.26 1.88 15.61 2.06 16.00 2.06Z" fill="currentColor"/>
</svg>