<svg xmlns="http://www.w3.org/2000/svg" viewBox="0 0 24 24" width="24" height="24">
  
  <path transform="matrix(0.8606488485459741, 0, 0, 0.8606488485459741, -0.571860816944024, 19.286938981341404)" d="M7.58 3.15L21.63 3.15C24.53 3.15 26.23 1.46 26.23-1.44L26.23-15.49C26.23-18.39 24.53-20.09 21.63-20.09L7.58-20.09C4.69-20.09 2.99-18.39 2.99-15.49L2.99-1.44C2.99 1.46 4.69 3.15 7.58 3.15ZM8.21-1.01C7.50-1.01 7.15-1.30 7.15-2.07L7.15-14.85C7.15-15.62 7.50-15.91 8.21-15.91L21-15.91C21.71-15.91 22.07-15.62 22.07-14.85L22.07-2.07C22.07-1.30 21.71-1.01 21-1.01ZM8.86-8.99C9.06-8.78 9.38-8.78 9.59-9.01C10.95-10.42 12.66-11.16 14.61-11.16C16.58-11.16 18.32-10.41 19.64-8.99C19.84-8.79 20.14-8.79 20.36-8.99L21.15-9.80C21.32-9.98 21.34-10.25 21.18-10.43C19.76-12.21 17.17-13.37 14.61-13.37C12.05-13.37 9.46-12.21 8.04-10.43C7.88-10.25 7.90-9.98 8.06-9.80ZM11.19-6.77C11.41-6.57 11.71-6.60 11.92-6.80C12.61-7.50 13.63-7.95 14.61-7.95C15.59-7.95 16.62-7.50 17.32-6.80C17.52-6.57 17.81-6.57 18.02-6.77L18.93-7.61C19.10-7.78 19.13-8.03 18.96-8.21C18.01-9.33 16.34-10.02 14.61-10.02C12.89-10.02 11.20-9.33 10.25-8.21C10.10-8.03 10.11-7.78 10.30-7.61ZM14.61-3.56C14.81-3.56 14.99-3.67 15.25-3.91L16.62-5.23C16.79-5.41 16.82-5.70 16.66-5.88C16.16-6.49 15.40-6.86 14.61-6.86C13.80-6.86 13.01-6.46 12.52-5.81C12.39-5.64 12.43-5.39 12.61-5.23L13.98-3.91C14.24-3.67 14.41-3.56 14.61-3.56Z" fill="currentColor"/>
</svg>