<svg xmlns="http://www.w3.org/2000/svg" viewBox="0 0 24 24" width="24" height="24">
  <title>wifi.exclamationmark.circle.fill</title>
  <path transform="matrix(0.7810831426392068, 0, 0, 0.7810831426392068, 0.3615560640732265, 18.599542334096114)" d="M14.89 4.35C21.97 4.35 27.70-1.38 27.70-8.45C27.70-15.52 21.97-21.25 14.89-21.25C7.83-21.25 2.10-15.52 2.10-8.45C2.10-1.38 7.83 4.35 14.89 4.35ZM14.89-6.67C14.03-6.67 13.58-7.16 13.56-8.06C13.52-9.04 13.39-12.15 13.38-12.83C13.38-13.65 13.96-14.33 14.89-14.33C15.84-14.33 16.39-13.65 16.39-12.83C16.39-12.15 16.25-9.04 16.23-8.06C16.20-7.16 15.76-6.67 14.89-6.67ZM7.49-10.65C8.65-12.11 10.50-13.18 12.53-13.69C12.42-13.41 12.39-13.11 12.39-12.81C12.39-12.55 12.41-11.85 12.42-11.07C11.24-10.69 10.16-10.01 9.25-9.04C8.99-8.79 8.64-8.79 8.40-9.02L7.51-9.94C7.32-10.15 7.31-10.44 7.49-10.65ZM22.30-10.65C22.48-10.44 22.46-10.15 22.27-9.94L21.39-9.02C21.13-8.80 20.80-8.80 20.55-9.02C19.65-10.01 18.57-10.69 17.36-11.07C17.37-11.85 17.40-12.54 17.40-12.81C17.40-13.11 17.36-13.41 17.25-13.69C19.28-13.18 21.13-12.11 22.30-10.65ZM9.97-8.16C10.59-8.86 11.48-9.42 12.49-9.79C12.53-9.08 12.54-8.45 12.55-8.10C12.56-7.77 12.61-7.46 12.70-7.22C12.40-7.03 12.11-6.81 11.87-6.55C11.63-6.33 11.29-6.32 11.04-6.54L10.03-7.46C9.82-7.65 9.80-7.95 9.97-8.16ZM19.80-8.16C19.98-7.95 19.97-7.65 19.75-7.46L18.74-6.54C18.50-6.32 18.18-6.32 17.94-6.55C17.70-6.81 17.40-7.03 17.07-7.22C17.18-7.48 17.21-7.78 17.23-8.10C17.24-8.45 17.26-9.08 17.29-9.79C18.30-9.42 19.20-8.86 19.80-8.16ZM14.89-2.86C14.00-2.86 13.29-3.53 13.29-4.36C13.29-5.19 14.00-5.86 14.89-5.86C15.77-5.86 16.48-5.19 16.48-4.36C16.48-3.53 15.77-2.86 14.89-2.86Z" fill="currentColor"/>
</svg>