<svg xmlns="http://www.w3.org/2000/svg" viewBox="0 0 24 24" width="24" height="24">
  
  <path transform="matrix(0.7810831426392068, 0, 0, 0.7810831426392068, 0.3615560640732265, 18.608695652173914)" d="M14.89 4.34C21.97 4.34 27.70-1.39 27.70-8.46C27.70-15.53 21.97-21.26 14.89-21.26C7.83-21.26 2.10-15.53 2.10-8.46C2.10-1.39 7.83 4.34 14.89 4.34ZM11.99-2.75C11.12-2.75 10.54-3.27 10.36-4.17L9.64-8.00L8.19-8.00C8.00-8.00 7.88-8.14 7.88-8.33C7.88-8.52 8.00-8.65 8.19-8.65L9.54-8.65L8.89-12.08C8.88-12.22 8.86-12.32 8.86-12.43C8.86-13.17 9.33-13.66 10.13-13.66C10.80-13.66 11.31-13.22 11.39-12.56L11.88-8.65L12.80-8.65L13.54-12.45C13.69-13.20 14.12-13.68 14.88-13.68C15.64-13.68 16.10-13.22 16.24-12.45L16.98-8.65L17.92-8.65L18.41-12.56C18.49-13.21 19.01-13.66 19.66-13.66C20.52-13.66 20.94-13.10 20.94-12.43C20.94-12.32 20.93-12.23 20.91-12.08L20.26-8.65L21.61-8.65C21.80-8.65 21.93-8.52 21.93-8.33C21.93-8.14 21.80-8.00 21.61-8.00L20.16-8.00L19.43-4.17C19.27-3.26 18.67-2.75 17.78-2.75C16.90-2.75 16.32-3.26 16.16-4.17L15.42-8.00L14.38-8.00L13.64-4.17C13.46-3.26 12.87-2.75 11.99-2.75ZM14.51-8.65L15.29-8.65L14.93-10.50L14.87-10.50ZM11.96-8.00L12.23-5.93L12.27-5.93L12.69-8.00ZM17.10-8.00L17.51-5.93L17.57-5.93L17.84-8.00Z" fill="currentColor"/>
</svg>