<svg xmlns="http://www.w3.org/2000/svg" viewBox="0 0 24 24" width="24" height="24">
  
  <path transform="matrix(0.7810831426392068, 0, 0, 0.7810831426392068, 0.3615560640732265, 18.608695652173914)" d="M14.89 4.34C21.97 4.34 27.70-1.39 27.70-8.46C27.70-15.53 21.97-21.26 14.89-21.26C7.83-21.26 2.10-15.53 2.10-8.46C2.10-1.39 7.83 4.34 14.89 4.34ZM14.89 0.16C10.13 0.16 6.27-3.69 6.27-8.46C6.27-13.23 10.13-17.09 14.89-17.09C19.66-17.09 23.53-13.23 23.53-8.46C23.53-3.69 19.66 0.16 14.89 0.16ZM9.61-5.50L20.20-5.50C20.86-5.50 21.34-5.99 21.34-6.64L21.34-10.28C21.34-10.93 20.86-11.41 20.20-11.41L9.61-11.41C8.95-11.41 8.47-10.93 8.47-10.28L8.47-6.63C8.47-5.98 8.95-5.50 9.61-5.50Z" fill="currentColor"/>
</svg>