<svg xmlns="http://www.w3.org/2000/svg" viewBox="0 0 24 24" width="24" height="24">
  
  <path transform="matrix(0.6998119089025215, 0, 0, 0.6998119089025215, 0.3198385399932351, 17.92157628532047)" d="M3.95-5.20L13.43 4.28C15.49 6.34 17.89 6.34 19.95 4.29L29.44-5.20C31.50-7.27 31.49-9.66 29.44-11.72L19.95-21.21C17.89-23.26 15.49-23.26 13.44-21.21L3.94-11.72C1.89-9.66 1.89-7.27 3.95-5.20ZM13.25-3.32C12.28-3.32 11.54-4.07 11.54-5.05C11.54-5.47 11.73-5.91 12.06-6.22L14.26-8.44L12.06-10.64C11.73-10.96 11.54-11.39 11.54-11.82C11.54-12.81 12.28-13.55 13.25-13.55C13.79-13.55 14.19-13.38 14.54-13.04L16.70-10.89L18.87-13.04C19.22-13.38 19.62-13.55 20.16-13.55C21.13-13.55 21.87-12.81 21.87-11.82C21.87-11.40 21.68-10.97 21.34-10.64L19.16-8.44L21.34-6.22C21.68-5.91 21.87-5.47 21.87-5.05C21.87-4.07 21.12-3.32 20.16-3.32C19.62-3.32 19.21-3.48 18.87-3.83L16.70-5.96L14.54-3.83C14.20-3.48 13.79-3.32 13.25-3.32Z" fill="currentColor"/>
</svg>