<svg xmlns="http://www.w3.org/2000/svg" viewBox="0 0 24 24" width="24" height="24">
  <title>y.circle.fill</title>
  <path transform="matrix(0.7810831426392068, 0, 0, 0.7810831426392068, 0.3615560640732265, 18.608695652173914)" d="M14.89 4.34C21.97 4.34 27.70-1.39 27.70-8.46C27.70-15.53 21.97-21.26 14.89-21.26C7.83-21.26 2.10-15.53 2.10-8.46C2.10-1.39 7.83 4.34 14.89 4.34ZM14.89-2.68C13.49-2.68 12.67-3.60 12.67-5.17L12.67-6.06L9.87-11.18C9.64-11.58 9.56-11.93 9.56-12.33C9.56-13.42 10.39-14.20 11.57-14.20C12.59-14.20 13.08-13.82 13.58-12.63L14.85-9.76L14.95-9.76L16.22-12.63C16.72-13.82 17.21-14.20 18.23-14.20C19.41-14.20 20.24-13.42 20.24-12.33C20.24-11.93 20.14-11.58 19.93-11.18L17.13-6.06L17.13-5.17C17.13-3.61 16.30-2.68 14.89-2.68Z" fill="currentColor"/>
</svg>