<svg xmlns="http://www.w3.org/2000/svg" viewBox="0 0 24 24" width="24" height="24">
  <title>zr.button.roundedtop.horizontal</title>
  <path transform="matrix(0.700027344818157, 0, 0, 0.700027344818157, -0.09187858900738322, 17.914684167350288)" d="M13.05-19.69C5.89-19.69 2.99-16.70 2.99-9.38L2.99-1.80C2.99 1.09 4.69 2.79 7.58 2.79L26.96 2.79C29.86 2.79 31.56 1.09 31.56-1.80L31.56-9.38C31.56-16.70 28.65-19.69 21.49-19.69ZM13.28-15.52L21.27-15.52C25.62-15.52 27.40-13.72 27.40-9.30L27.40-2.45C27.40-1.77 27-1.37 26.33-1.37L8.21-1.37C7.54-1.37 7.15-1.77 7.15-2.45L7.15-9.30C7.15-13.72 8.92-15.52 13.28-15.52ZM12.22-4.10L15.47-4.10C16.01-4.10 16.34-4.44 16.34-5.00C16.34-5.66 15.91-5.92 15.47-5.92L13.54-5.92L13.54-5.99L15.98-10.88C16.07-11.07 16.21-11.39 16.21-11.75C16.21-12.41 15.71-12.82 15.09-12.82L12.05-12.82C11.53-12.82 11.05-12.53 11.05-11.89C11.05-11.39 11.39-10.99 12.05-10.99L13.77-10.99L13.77-10.93L11.31-5.99C11.18-5.72 11.12-5.40 11.12-5.11C11.12-4.49 11.55-4.10 12.22-4.10ZM18.56-3.94C19.30-3.94 19.69-4.39 19.69-5.13L19.69-7.14L20.09-7.14L20.78-4.92C20.98-4.25 21.36-3.94 21.94-3.94C22.57-3.94 23.04-4.41 23.00-5.07C22.99-5.31 22.96-5.45 22.88-5.66L22.18-7.61C22.86-8.11 23.12-9.07 23.12-9.93C23.12-11.86 22.05-12.81 20.23-12.81L18.56-12.81C17.81-12.81 17.43-12.36 17.43-11.60L17.43-5.13C17.43-4.38 17.81-3.94 18.56-3.94ZM19.69-8.67L19.69-11.10L20.03-11.10C20.58-11.10 20.80-10.43 20.80-9.88C20.80-9.29 20.59-8.67 20.02-8.67Z" fill="currentColor"/>
</svg>