<svg xmlns="http://www.w3.org/2000/svg" viewBox="0 0 24 24" width="24" height="24">
  <title>08.square.fill</title>
  <path transform="matrix(0.8752136752136752, 0, 0, 0.8752136752136752, -0.6153846153846154, 19.405128205128204)" d="M7.37 2.96L21.46 2.96C24.25 2.96 25.84 1.38 25.84-1.41L25.84-15.52C25.84-18.30 24.25-19.89 21.46-19.89L7.37-19.89C4.58-19.89 2.99-18.30 2.99-15.52L2.99-1.41C2.99 1.38 4.58 2.96 7.37 2.96ZM10.78-3.47C8.34-3.47 7.59-6.08 7.59-8.46C7.59-10.84 8.34-13.46 10.78-13.46C13.22-13.46 13.96-10.84 13.96-8.46C13.96-6.08 13.22-3.47 10.78-3.47ZM18.27-3.47C16.44-3.47 15.11-4.54 15.11-6.28C15.11-7.49 15.86-8.47 16.89-8.68L16.89-8.73C16.10-8.98 15.35-9.69 15.35-10.85C15.35-12.55 16.72-13.43 18.27-13.43C19.97-13.43 21.21-12.42 21.21-10.84C21.21-9.82 20.58-9.01 19.69-8.73L19.69-8.68C20.74-8.46 21.45-7.48 21.45-6.27C21.45-4.49 20.05-3.47 18.27-3.47ZM18.27-9.39C18.74-9.39 19.01-9.89 19.01-10.62C19.01-11.32 18.75-11.84 18.27-11.84C17.82-11.84 17.55-11.32 17.55-10.62C17.55-9.91 17.81-9.39 18.27-9.39ZM10.78-5.27C11.41-5.27 11.67-6.47 11.67-8.46C11.67-10.45 11.41-11.66 10.78-11.66C10.15-11.66 9.90-10.45 9.90-8.46C9.90-6.47 10.15-5.27 10.78-5.27ZM18.27-5.07C18.80-5.07 19.09-5.64 19.09-6.45C19.09-7.24 18.79-7.79 18.27-7.79C17.75-7.79 17.47-7.24 17.47-6.45C17.47-5.64 17.75-5.07 18.27-5.07Z" fill="currentColor"/>
</svg>