<svg xmlns="http://www.w3.org/2000/svg" viewBox="0 0 24 24" width="24" height="24">
  
  <path transform="matrix(0.8752136752136752, 0, 0, 0.8752136752136752, -0.6153846153846154, 19.405128205128204)" d="M7.37 2.96L21.46 2.96C24.25 2.96 25.84 1.38 25.84-1.41L25.84-15.52C25.84-18.30 24.25-19.89 21.46-19.89L7.37-19.89C4.58-19.89 2.99-18.30 2.99-15.52L2.99-1.41C2.99 1.38 4.58 2.96 7.37 2.96ZM7.86-0.66C7.03-0.66 6.61-1.03 6.61-1.91L6.61-15C6.61-15.88 7.03-16.25 7.86-16.25L20.96-16.25C21.79-16.25 22.21-15.88 22.21-15L22.21-1.91C22.21-1.03 21.79-0.66 20.96-0.66ZM11.00-3.77C13.29-3.77 13.99-6.23 13.99-8.46C13.99-10.70 13.29-13.15 11.00-13.15C8.72-13.15 8.03-10.70 8.03-8.46C8.03-6.23 8.72-3.77 11.00-3.77ZM17.14-7.14C18.04-7.14 18.59-7.77 18.80-8.58L18.82-8.58L18.82-8.06C18.82-6.59 18.57-5.41 17.88-5.41C17.58-5.41 17.39-5.60 17.20-5.99C16.99-6.41 16.72-6.59 16.30-6.59C15.67-6.59 15.45-6.16 15.45-5.72C15.45-5.59 15.46-5.40 15.50-5.26C15.79-4.25 16.73-3.77 17.81-3.77C20.13-3.77 20.82-6.18 20.82-8.50C20.82-10.52 20.18-13.14 17.84-13.14C16.08-13.14 15.14-11.67 15.14-9.97C15.14-8.53 15.74-7.14 17.14-7.14ZM11.00-5.46C10.41-5.46 10.17-6.60 10.17-8.46C10.17-10.32 10.41-11.46 11.00-11.46C11.61-11.46 11.85-10.32 11.85-8.46C11.85-6.60 11.61-5.46 11.00-5.46ZM17.87-8.64C17.38-8.64 17.14-9.23 17.14-10.04C17.14-10.86 17.39-11.46 17.87-11.46C18.38-11.46 18.61-10.85 18.61-10.02C18.61-9.21 18.36-8.64 17.87-8.64Z" fill="currentColor"/>
</svg>