<svg xmlns="http://www.w3.org/2000/svg" viewBox="0 0 24 24" width="24" height="24">
  <title>10.arrow.trianglehead.counterclockwise</title>
  <path transform="matrix(0.7343244447583911, 0, 0, 0.7343244447583911, 1.204570125592949, 18.962306300784626)" d="M14.70 4.14C21.66 4.14 27.30-1.51 27.30-8.46C27.30-14.51 23.05-19.55 17.36-20.78L17.36-22.13C17.36-23.11 16.45-23.36 15.77-22.83L11.81-19.78C11.32-19.42 11.33-18.77 11.81-18.40L15.77-15.38C16.45-14.86 17.36-15.09 17.36-16.05L17.36-17.00C21.01-15.87 23.64-12.47 23.64-8.46C23.64-3.52 19.64 0.48 14.70 0.48C9.75 0.48 5.75-3.52 5.75-8.46C5.75-11.00 6.77-13.16 8.52-14.87C9.29-15.70 9.54-16.79 8.77-17.63C8.09-18.36 6.94-18.43 6.01-17.51C3.48-15.14 2.10-11.81 2.10-8.46C2.10-1.51 7.73 4.14 14.70 4.14ZM17.58-3.86C19.90-3.86 20.79-6.04 20.79-8.40C20.79-10.75 19.90-12.89 17.58-12.89C15.22-12.89 14.34-10.72 14.34-8.39C14.34-6.05 15.25-3.86 17.58-3.86ZM11.70-3.95C12.39-3.95 12.81-4.43 12.81-5.12L12.81-11.55C12.81-12.35 12.29-12.81 11.48-12.81C10.86-12.81 10.41-12.54 9.90-12.16L8.99-11.50C8.70-11.29 8.52-11.02 8.52-10.65C8.52-10.22 8.82-9.88 9.27-9.88C9.48-9.88 9.61-9.95 9.79-10.08L10.54-10.63L10.58-10.63L10.58-5.12C10.58-4.43 11.00-3.95 11.70-3.95ZM17.58-5.60C16.92-5.60 16.61-6.62 16.61-8.39C16.61-10.15 16.92-11.16 17.58-11.16C18.21-11.16 18.54-10.15 18.54-8.39C18.54-6.62 18.21-5.60 17.58-5.60Z" fill="currentColor"/>
</svg>