<svg xmlns="http://www.w3.org/2000/svg" viewBox="0 0 24 24" width="24" height="24">
  <title>13.calendar</title>
  <path transform="matrix(0.7919566898685229, 0, 0, 0.7919566898685229, -0.36658932714617176, 18.691415313225058)" d="M7.37 2.98L23.86 2.98C26.66 2.98 28.24 1.39 28.24-1.39L28.24-15.50C28.24-18.29 26.66-19.88 23.86-19.88L7.37-19.88C4.58-19.88 2.99-18.29 2.99-15.50L2.99-1.39C2.99 1.39 4.58 2.98 7.37 2.98ZM7.79-0.64C7.01-0.64 6.61-1.00 6.61-1.84L6.61-11.93C6.61-12.77 7.01-13.13 7.79-13.13L23.43-13.13C24.21-13.13 24.62-12.77 24.62-11.93L24.62-1.84C24.62-1.00 24.21-0.64 23.43-0.64ZM18.04-2.13C19.75-2.13 20.96-3.14 20.96-4.79C20.96-5.99 20.29-6.77 19.31-6.89L19.31-6.94C20.09-7.14 20.71-7.95 20.71-9C20.71-10.55 19.58-11.45 17.98-11.45C16.83-11.45 15.75-10.85 15.43-9.81C15.38-9.62 15.35-9.41 15.35-9.20C15.35-8.80 15.60-8.37 16.22-8.37C16.65-8.37 17.05-8.51 17.18-8.99C17.29-9.41 17.52-9.82 17.99-9.82C18.53-9.82 18.73-9.30 18.73-8.77C18.73-8.16 18.46-7.58 17.77-7.58L17.64-7.58C17.11-7.58 16.84-7.30 16.84-6.86C16.84-6.40 17.10-6.12 17.64-6.12L17.78-6.12C18.55-6.12 18.91-5.70 18.91-4.91C18.91-4.35 18.66-3.77 18.02-3.77C17.52-3.77 17.26-4.13 17.12-4.52C16.96-4.99 16.64-5.24 16.17-5.24C15.60-5.24 15.23-4.89 15.23-4.31C15.23-4.09 15.26-3.88 15.32-3.70C15.64-2.67 16.78-2.13 18.04-2.13ZM12.63-2.21C13.23-2.21 13.70-2.68 13.70-3.28L13.70-10.20C13.70-10.97 13.23-11.39 12.46-11.39C11.87-11.39 11.46-11.16 11.07-10.85L10.10-10.10C9.80-9.88 9.64-9.61 9.64-9.27C9.64-8.74 10.00-8.51 10.35-8.51C10.55-8.51 10.69-8.57 10.86-8.71L11.55-9.25L11.55-3.28C11.55-2.68 12.04-2.21 12.63-2.21Z" fill="currentColor"/>
</svg>