<svg xmlns="http://www.w3.org/2000/svg" viewBox="0 0 24 24" width="24" height="24">
  
  <path transform="matrix(0.7919566898685229, 0, 0, 0.7919566898685229, -0.36658932714617176, 18.691415313225058)" d="M7.37 2.98L23.86 2.98C26.66 2.98 28.24 1.39 28.24-1.39L28.24-15.50C28.24-18.29 26.66-19.88 23.86-19.88L7.37-19.88C4.58-19.88 2.99-18.29 2.99-15.50L2.99-1.39C2.99 1.39 4.58 2.98 7.37 2.98ZM7.79-0.64C7.01-0.64 6.61-1.00 6.61-1.84L6.61-11.93C6.61-12.77 7.01-13.13 7.79-13.13L23.43-13.13C24.21-13.13 24.62-12.77 24.62-11.93L24.62-1.84C24.62-1.00 24.21-0.64 23.43-0.64ZM11.34-2.36L15.01-2.36C15.57-2.36 15.81-2.74 15.81-3.18C15.81-3.62 15.57-4.01 15.01-4.01L12.84-4.01L12.84-4.10L14.16-5.68C15.09-6.80 15.67-7.65 15.67-8.85C15.67-10.50 14.53-11.48 12.95-11.48C11.52-11.48 10.36-10.42 10.36-9.19C10.36-8.65 10.66-8.26 11.23-8.26C11.66-8.26 11.99-8.47 12.14-8.98C12.28-9.47 12.47-9.86 12.94-9.86C13.48-9.86 13.68-9.36 13.68-8.78C13.68-7.96 13.11-7.15 12.45-6.30L10.91-4.35C10.51-3.86 10.36-3.55 10.36-3.19C10.36-2.66 10.70-2.36 11.34-2.36ZM19.41-2.21C19.99-2.21 20.47-2.68 20.47-3.28L20.47-10.20C20.47-10.97 20.00-11.39 19.22-11.39C18.64-11.39 18.23-11.16 17.85-10.85L16.88-10.10C16.57-9.88 16.41-9.61 16.41-9.27C16.41-8.74 16.77-8.51 17.12-8.51C17.32-8.51 17.46-8.57 17.64-8.71L18.33-9.25L18.33-3.28C18.33-2.68 18.81-2.21 19.41-2.21Z" fill="currentColor"/>
</svg>