<svg xmlns="http://www.w3.org/2000/svg" viewBox="0 0 24 24" width="24" height="24">
  <title>21.circle.fill</title>
  <path transform="matrix(0.7934294126762746, 0, 0, 0.7934294126762746, 0.33565783356578316, 18.713156671315666)" d="M14.70 4.14C21.66 4.14 27.30-1.50 27.30-8.46C27.30-15.42 21.66-21.06 14.70-21.06C7.75-21.06 2.10-15.42 2.10-8.46C2.10-1.50 7.75 4.14 14.70 4.14ZM10.14-3.71C9.47-3.71 9.11-4.05 9.11-4.61C9.11-4.99 9.26-5.32 9.68-5.85L11.32-7.92C12.04-8.82 12.63-9.69 12.63-10.57C12.63-11.19 12.41-11.71 11.86-11.71C11.36-11.71 11.16-11.30 11.00-10.78C10.84-10.23 10.48-10.01 10.02-10.01C9.42-10.01 9.09-10.42 9.09-10.99C9.09-12.32 10.34-13.45 11.86-13.45C13.55-13.45 14.77-12.41 14.77-10.63C14.77-9.36 14.14-8.45 13.15-7.27L11.75-5.58L11.75-5.48L14.06-5.48C14.66-5.48 14.92-5.07 14.92-4.59C14.92-4.14 14.66-3.71 14.06-3.71ZM18.74-3.56C18.11-3.56 17.59-4.07 17.59-4.71L17.59-11.06L16.86-10.48C16.68-10.35 16.52-10.28 16.31-10.28C15.94-10.28 15.55-10.54 15.55-11.09C15.55-11.46 15.71-11.73 16.04-11.98L17.07-12.77C17.50-13.10 17.93-13.35 18.55-13.35C19.38-13.35 19.89-12.90 19.89-12.07L19.89-4.71C19.89-4.07 19.38-3.56 18.74-3.56Z" fill="currentColor"/>
</svg>