<svg xmlns="http://www.w3.org/2000/svg" viewBox="0 0 24 24" width="24" height="24">
  <title>23.square.fill</title>
  <path transform="matrix(0.8752136752136752, 0, 0, 0.8752136752136752, -0.6153846153846154, 19.405128205128204)" d="M7.37 2.96L21.46 2.96C24.25 2.96 25.84 1.38 25.84-1.41L25.84-15.52C25.84-18.30 24.25-19.89 21.46-19.89L7.37-19.89C4.58-19.89 2.99-18.30 2.99-15.52L2.99-1.41C2.99 1.38 4.58 2.96 7.37 2.96ZM9.18-3.71C8.50-3.71 8.13-4.05 8.13-4.61C8.13-5.00 8.29-5.32 8.72-5.85L10.35-7.92C11.06-8.82 11.66-9.69 11.66-10.57C11.66-11.19 11.45-11.71 10.89-11.71C10.38-11.71 10.20-11.31 10.04-10.79C9.88-10.23 9.52-10.01 9.06-10.01C8.45-10.01 8.13-10.43 8.13-11.00C8.13-12.32 9.36-13.45 10.89-13.45C12.57-13.45 13.79-12.41 13.79-10.64C13.79-9.36 13.17-8.45 12.18-7.27L10.79-5.58L10.79-5.48L13.09-5.48C13.70-5.48 13.95-5.09 13.95-4.59C13.95-4.14 13.70-3.71 13.09-3.71ZM17.93-3.48C16.58-3.48 15.36-4.05 15.02-5.14C14.96-5.34 14.92-5.58 14.92-5.81C14.92-6.42 15.33-6.79 15.94-6.79C16.44-6.79 16.78-6.54 16.96-6.04C17.10-5.61 17.37-5.24 17.91-5.24C18.57-5.24 18.84-5.85 18.84-6.45C18.84-7.28 18.47-7.72 17.64-7.72L17.51-7.72C16.92-7.72 16.65-8.03 16.65-8.51C16.65-8.99 16.93-9.29 17.51-9.29L17.63-9.29C18.36-9.29 18.64-9.90 18.64-10.56C18.64-11.12 18.45-11.67 17.87-11.67C17.37-11.67 17.12-11.24 17.02-10.78C16.88-10.28 16.44-10.13 15.98-10.13C15.32-10.13 15.06-10.58 15.06-11.02C15.06-11.24 15.08-11.46 15.15-11.67C15.48-12.79 16.64-13.43 17.85-13.43C19.57-13.43 20.78-12.46 20.78-10.80C20.78-9.68 20.10-8.82 19.29-8.61L19.29-8.55C20.32-8.43 21.05-7.59 21.05-6.32C21.05-4.56 19.76-3.48 17.93-3.48Z" fill="currentColor"/>
</svg>