<svg xmlns="http://www.w3.org/2000/svg" viewBox="0 0 24 24" width="24" height="24">
  <title>28.circle.fill</title>
  <path transform="matrix(0.7934294126762746, 0, 0, 0.7934294126762746, 0.33565783356578316, 18.713156671315666)" d="M14.70 4.14C21.66 4.14 27.30-1.50 27.30-8.46C27.30-15.42 21.66-21.06 14.70-21.06C7.75-21.06 2.10-15.42 2.10-8.46C2.10-1.50 7.75 4.14 14.70 4.14ZM9.18-3.71C8.48-3.71 8.12-4.05 8.12-4.61C8.12-5.00 8.29-5.32 8.71-5.85L10.35-7.92C11.05-8.82 11.65-9.69 11.65-10.57C11.65-11.19 11.45-11.71 10.88-11.71C10.38-11.71 10.18-11.31 10.04-10.79C9.87-10.24 9.52-10.01 9.05-10.01C8.45-10.01 8.12-10.43 8.12-11.00C8.12-12.32 9.35-13.45 10.89-13.45C12.57-13.45 13.79-12.41 13.79-10.64C13.79-9.36 13.16-8.45 12.18-7.27L10.79-5.58L10.79-5.48L13.09-5.48C13.69-5.48 13.95-5.09 13.95-4.59C13.95-4.14 13.69-3.71 13.09-3.71ZM18.08-3.47C16.27-3.47 14.92-4.55 14.92-6.28C14.92-7.49 15.68-8.47 16.70-8.68L16.70-8.73C15.91-8.98 15.18-9.69 15.18-10.85C15.18-12.55 16.54-13.43 18.08-13.43C19.79-13.43 21.02-12.41 21.02-10.84C21.02-9.82 20.39-9.01 19.50-8.73L19.50-8.68C20.57-8.46 21.26-7.48 21.26-6.27C21.26-4.49 19.88-3.47 18.08-3.47ZM18.08-9.39C18.56-9.39 18.82-9.89 18.82-10.62C18.82-11.32 18.56-11.84 18.08-11.84C17.64-11.84 17.37-11.32 17.37-10.62C17.37-9.91 17.63-9.39 18.08-9.39ZM18.08-5.07C18.61-5.07 18.90-5.64 18.90-6.45C18.90-7.24 18.60-7.79 18.08-7.79C17.57-7.79 17.29-7.24 17.29-6.45C17.29-5.64 17.57-5.07 18.08-5.07Z" fill="currentColor"/>
</svg>