<svg xmlns="http://www.w3.org/2000/svg" viewBox="0 0 24 24" width="24" height="24">
  <title>29.square.fill</title>
  <path transform="matrix(0.8752136752136752, 0, 0, 0.8752136752136752, -0.6153846153846154, 19.405128205128204)" d="M7.37 2.96L21.46 2.96C24.25 2.96 25.84 1.38 25.84-1.41L25.84-15.52C25.84-18.30 24.25-19.89 21.46-19.89L7.37-19.89C4.58-19.89 2.99-18.30 2.99-15.52L2.99-1.41C2.99 1.38 4.58 2.96 7.37 2.96ZM9.13-3.71C8.46-3.71 8.10-4.05 8.10-4.61C8.10-5.00 8.25-5.32 8.67-5.85L10.31-7.92C11.03-8.82 11.63-9.69 11.63-10.57C11.63-11.19 11.40-11.72 10.85-11.72C10.34-11.72 10.15-11.31 10.00-10.79C9.83-10.24 9.47-10.02 9.01-10.02C8.41-10.02 8.09-10.43 8.09-11.00C8.09-12.33 9.33-13.45 10.85-13.45C12.54-13.45 13.75-12.41 13.75-10.64C13.75-9.36 13.14-8.45 12.14-7.27L10.75-5.59L10.75-5.48L13.05-5.48C13.65-5.48 13.91-5.09 13.91-4.59C13.91-4.14 13.65-3.71 13.05-3.71ZM17.07-7.04C15.57-7.04 14.94-8.54 14.94-10.07C14.94-11.88 15.95-13.44 17.81-13.44C20.32-13.44 21-10.66 21-8.50C21-6.02 20.27-3.46 17.79-3.46C16.65-3.46 15.63-3.97 15.33-5.05C15.28-5.20 15.27-5.40 15.27-5.53C15.27-6.01 15.52-6.47 16.18-6.47C16.63-6.47 16.92-6.28 17.14-5.82C17.34-5.41 17.54-5.23 17.87-5.23C18.60-5.23 18.86-6.45 18.86-8.03L18.86-8.59L18.83-8.59C18.62-7.73 18.04-7.04 17.07-7.04ZM17.86-8.65C18.38-8.65 18.64-9.27 18.64-10.11C18.64-11.02 18.39-11.66 17.86-11.66C17.36-11.66 17.09-11.03 17.09-10.15C17.09-9.29 17.34-8.65 17.86-8.65Z" fill="currentColor"/>
</svg>