<svg xmlns="http://www.w3.org/2000/svg" viewBox="0 0 24 24" width="24" height="24">
  <title>3.square</title>
  <path transform="matrix(0.8752136752136752, 0, 0, 0.8752136752136752, -0.6153846153846154, 19.405128205128204)" d="M7.37 2.96L21.46 2.96C24.25 2.96 25.84 1.38 25.84-1.41L25.84-15.52C25.84-18.30 24.25-19.89 21.46-19.89L7.37-19.89C4.58-19.89 2.99-18.30 2.99-15.52L2.99-1.41C2.99 1.38 4.58 2.96 7.37 2.96ZM7.86-0.66C7.03-0.66 6.61-1.03 6.61-1.91L6.61-15C6.61-15.88 7.03-16.25 7.86-16.25L20.96-16.25C21.79-16.25 22.21-15.88 22.21-15L22.21-1.91C22.21-1.03 21.79-0.66 20.96-0.66ZM14.51-3.06C17.30-3.06 19.02-4.29 19.02-6.21C19.02-7.52 18.07-8.57 16.78-8.67L16.78-8.84C17.86-8.98 18.75-9.96 18.75-11.03C18.75-12.74 17.09-13.86 14.53-13.86C12.46-13.86 10.96-13.11 10.54-11.87C10.46-11.66 10.43-11.46 10.43-11.24C10.43-10.46 10.98-9.98 11.87-9.98C12.41-9.98 12.81-10.20 13.13-10.65C13.43-11.17 13.91-11.47 14.52-11.47C15.16-11.47 15.57-11.17 15.57-10.68C15.57-10.13 15.14-9.75 14.47-9.75L14.23-9.75C13.36-9.75 12.83-9.29 12.83-8.53C12.83-7.79 13.37-7.30 14.23-7.30L14.48-7.30C15.29-7.30 15.76-6.96 15.76-6.41C15.76-5.89 15.28-5.54 14.58-5.54C13.83-5.54 13.35-5.85 13.03-6.35C12.71-6.81 12.32-7.03 11.75-7.03C10.88-7.03 10.32-6.54 10.32-5.77C10.32-5.54 10.36-5.34 10.44-5.13C10.86-3.91 12.52-3.06 14.51-3.06Z" fill="currentColor"/>
</svg>