<svg xmlns="http://www.w3.org/2000/svg" viewBox="0 0 24 24" width="24" height="24">
  
  <path transform="matrix(0.7934294126762746, 0, 0, 0.7934294126762746, 0.33565783356578316, 18.713156671315666)" d="M14.70 4.14C21.66 4.14 27.30-1.50 27.30-8.46C27.30-15.42 21.66-21.06 14.70-21.06C7.75-21.06 2.10-15.42 2.10-8.46C2.10-1.50 7.75 4.14 14.70 4.14ZM11.06-3.48C9.73-3.48 8.51-4.05 8.17-5.16C8.10-5.34 8.07-5.58 8.07-5.81C8.07-6.42 8.46-6.79 9.08-6.79C9.57-6.79 9.93-6.54 10.09-6.04C10.24-5.61 10.51-5.24 11.05-5.24C11.73-5.24 11.99-5.86 11.99-6.45C11.99-7.28 11.61-7.72 10.79-7.72L10.64-7.72C10.07-7.72 9.80-8.03 9.80-8.51C9.80-8.99 10.08-9.29 10.64-9.29L10.78-9.29C11.52-9.29 11.79-9.91 11.79-10.56C11.79-11.12 11.58-11.67 11.02-11.67C10.52-11.67 10.27-11.24 10.15-10.78C10.02-10.28 9.59-10.13 9.13-10.13C8.46-10.13 8.20-10.59 8.20-11.02C8.20-11.24 8.23-11.46 8.30-11.67C8.63-12.79 9.79-13.43 11.00-13.43C12.71-13.43 13.92-12.46 13.92-10.80C13.92-9.68 13.24-8.82 12.43-8.61L12.43-8.55C13.46-8.43 14.20-7.59 14.20-6.32C14.20-4.56 12.90-3.48 11.06-3.48ZM18.27-3.47C17.05-3.47 15.98-4.21 15.66-5.18C15.60-5.39 15.55-5.60 15.55-5.82C15.55-6.38 15.88-6.73 16.43-6.73C16.88-6.73 17.21-6.49 17.39-6C17.52-5.58 17.77-5.23 18.22-5.23C18.87-5.23 19.03-6.21 19.03-6.89C19.03-7.61 18.82-8.51 18.21-8.51C17.87-8.51 17.65-8.24 17.48-7.96C17.26-7.61 17.04-7.50 16.63-7.50C16.00-7.50 15.64-7.92 15.64-8.60C15.64-8.71 15.66-8.96 15.66-9.07L15.79-12.01C15.82-12.73 16.14-13.20 16.85-13.20L20.02-13.20C20.54-13.20 20.85-12.84 20.85-12.30C20.85-11.81 20.59-11.43 20.02-11.43L17.61-11.43L17.47-9.04L17.53-9.04C17.73-9.54 18.23-10.04 19.08-10.04C20.60-10.04 21.18-8.43 21.18-6.95C21.18-5.03 20.19-3.47 18.27-3.47Z" fill="currentColor"/>
</svg>