<svg xmlns="http://www.w3.org/2000/svg" viewBox="0 0 24 24" width="24" height="24">
  <title>35.square</title>
  <path transform="matrix(0.8752136752136752, 0, 0, 0.8752136752136752, -0.6153846153846154, 19.405128205128204)" d="M7.37 2.96L21.46 2.96C24.25 2.96 25.84 1.38 25.84-1.41L25.84-15.52C25.84-18.30 24.25-19.89 21.46-19.89L7.37-19.89C4.58-19.89 2.99-18.30 2.99-15.52L2.99-1.41C2.99 1.38 4.58 2.96 7.37 2.96ZM7.86-0.66C7.03-0.66 6.61-1.03 6.61-1.91L6.61-15C6.61-15.88 7.03-16.25 7.86-16.25L20.96-16.25C21.79-16.25 22.21-15.88 22.21-15L22.21-1.91C22.21-1.03 21.79-0.66 20.96-0.66ZM11.00-3.80C12.73-3.80 13.95-4.80 13.95-6.45C13.95-7.65 13.25-8.43 12.28-8.55L12.28-8.60C13.05-8.80 13.68-9.60 13.68-10.65C13.68-12.21 12.55-13.11 10.95-13.11C9.81-13.11 8.72-12.52 8.41-11.47C8.34-11.27 8.32-11.06 8.32-10.86C8.32-10.45 8.57-10.03 9.19-10.03C9.62-10.03 10.02-10.17 10.15-10.65C10.25-11.07 10.49-11.48 10.97-11.48C11.50-11.48 11.70-10.96 11.70-10.43C11.70-9.82 11.44-9.23 10.73-9.23L10.61-9.23C10.08-9.23 9.81-8.95 9.81-8.51C9.81-8.05 10.08-7.78 10.61-7.78L10.75-7.78C11.52-7.78 11.88-7.35 11.88-6.57C11.88-6.01 11.64-5.43 11.00-5.43C10.49-5.43 10.23-5.79 10.09-6.18C9.93-6.66 9.61-6.89 9.14-6.89C8.57-6.89 8.20-6.55 8.20-5.98C8.20-5.75 8.23-5.54 8.30-5.36C8.61-4.34 9.75-3.80 11.00-3.80ZM17.77-3.77C19.56-3.77 20.48-5.24 20.48-7.04C20.48-8.43 19.95-9.94 18.52-9.94C17.73-9.94 17.25-9.48 17.07-8.99L17.02-8.99L17.14-11.25L19.39-11.25C19.93-11.25 20.18-11.61 20.18-12.07C20.18-12.56 19.90-12.90 19.39-12.90L16.43-12.90C15.77-12.90 15.47-12.46 15.43-11.79L15.32-9.04C15.30-8.93 15.29-8.70 15.29-8.59C15.29-7.96 15.63-7.56 16.23-7.56C16.61-7.56 16.80-7.65 17.02-7.99C17.18-8.25 17.39-8.51 17.70-8.51C18.29-8.51 18.48-7.66 18.48-6.98C18.48-6.34 18.33-5.43 17.72-5.43C17.30-5.43 17.06-5.75 16.92-6.15C16.77-6.61 16.44-6.83 16.04-6.83C15.53-6.83 15.21-6.50 15.21-5.98C15.21-5.78 15.25-5.58 15.32-5.38C15.62-4.46 16.62-3.77 17.77-3.77Z" fill="currentColor"/>
</svg>