<svg xmlns="http://www.w3.org/2000/svg" viewBox="0 0 24 24" width="24" height="24">
  
  <path transform="matrix(0.8752136752136752, 0, 0, 0.8752136752136752, -0.6153846153846154, 19.405128205128204)" d="M7.37 2.96L21.46 2.96C24.25 2.96 25.84 1.38 25.84-1.41L25.84-15.52C25.84-18.30 24.25-19.89 21.46-19.89L7.37-19.89C4.58-19.89 2.99-18.30 2.99-15.52L2.99-1.41C2.99 1.38 4.58 2.96 7.37 2.96ZM7.86-0.66C7.03-0.66 6.61-1.03 6.61-1.91L6.61-15C6.61-15.88 7.03-16.25 7.86-16.25L20.96-16.25C21.79-16.25 22.21-15.88 22.21-15L22.21-1.91C22.21-1.03 21.79-0.66 20.96-0.66ZM17.95-3.77C19.70-3.77 20.64-5.23 20.64-6.94C20.64-8.37 20.05-9.77 18.63-9.77C17.74-9.77 17.19-9.14 16.99-8.32L16.97-8.32L16.97-8.85C16.97-10.32 17.21-11.48 17.89-11.48C18.25-11.48 18.42-11.21 18.59-10.90C18.81-10.49 19.07-10.32 19.49-10.32C20.11-10.32 20.34-10.75 20.34-11.19C20.34-11.32 20.32-11.51 20.29-11.65C19.99-12.66 19.05-13.14 17.98-13.14C15.64-13.14 14.96-10.73 14.96-8.40C14.96-6.39 15.61-3.77 17.95-3.77ZM11.02-3.80C12.73-3.80 13.95-4.80 13.95-6.45C13.95-7.65 13.27-8.43 12.29-8.55L12.29-8.60C13.07-8.80 13.69-9.60 13.69-10.65C13.69-12.21 12.56-13.11 10.96-13.11C9.81-13.11 8.73-12.52 8.41-11.47C8.36-11.27 8.33-11.06 8.33-10.86C8.33-10.45 8.58-10.03 9.20-10.03C9.63-10.03 10.02-10.17 10.16-10.65C10.27-11.07 10.50-11.48 10.97-11.48C11.51-11.48 11.71-10.96 11.71-10.43C11.71-9.82 11.44-9.23 10.75-9.23L10.62-9.23C10.09-9.23 9.82-8.95 9.82-8.51C9.82-8.05 10.08-7.78 10.62-7.78L10.76-7.78C11.53-7.78 11.89-7.35 11.89-6.57C11.89-6.01 11.64-5.43 11.00-5.43C10.50-5.43 10.24-5.79 10.10-6.18C9.94-6.66 9.62-6.89 9.15-6.89C8.58-6.89 8.20-6.55 8.20-5.98C8.20-5.75 8.24-5.54 8.30-5.36C8.63-4.34 9.76-3.80 11.02-3.80ZM17.91-5.43C17.40-5.43 17.17-6.06 17.17-6.88C17.17-7.66 17.41-8.26 17.91-8.26C18.40-8.26 18.64-7.64 18.63-6.84C18.63-6.04 18.39-5.43 17.91-5.43Z" fill="currentColor"/>
</svg>