<svg xmlns="http://www.w3.org/2000/svg" viewBox="0 0 24 24" width="24" height="24">
  
  <path transform="matrix(0.8752136752136752, 0, 0, 0.8752136752136752, -0.6153846153846154, 19.405128205128204)" d="M7.37 2.96L21.46 2.96C24.25 2.96 25.84 1.38 25.84-1.41L25.84-15.52C25.84-18.30 24.25-19.89 21.46-19.89L7.37-19.89C4.58-19.89 2.99-18.30 2.99-15.52L2.99-1.41C2.99 1.38 4.58 2.96 7.37 2.96ZM7.86-0.66C7.03-0.66 6.61-1.03 6.61-1.91L6.61-15C6.61-15.88 7.03-16.25 7.86-16.25L20.96-16.25C21.79-16.25 22.21-15.88 22.21-15L22.21-1.91C22.21-1.03 21.79-0.66 20.96-0.66ZM16.91-7.14C17.80-7.14 18.35-7.77 18.55-8.58L18.57-8.58L18.57-8.06C18.57-6.59 18.33-5.41 17.65-5.41C17.33-5.41 17.14-5.60 16.96-5.99C16.75-6.41 16.48-6.59 16.05-6.59C15.43-6.59 15.20-6.16 15.20-5.72C15.20-5.59 15.22-5.40 15.26-5.26C15.55-4.25 16.50-3.77 17.57-3.77C19.90-3.77 20.58-6.18 20.58-8.50C20.58-10.52 19.95-13.14 17.60-13.14C15.84-13.14 14.91-11.67 14.91-9.97C14.91-8.53 15.50-7.14 16.91-7.14ZM10.96-3.80C12.67-3.80 13.89-4.80 13.89-6.45C13.89-7.65 13.20-8.43 12.22-8.55L12.22-8.60C13.00-8.80 13.63-9.60 13.63-10.65C13.63-12.21 12.50-13.11 10.89-13.11C9.75-13.11 8.66-12.52 8.36-11.47C8.30-11.27 8.26-11.06 8.26-10.86C8.26-10.45 8.51-10.03 9.14-10.03C9.56-10.03 9.96-10.17 10.09-10.65C10.20-11.07 10.43-11.48 10.91-11.48C11.44-11.48 11.64-10.96 11.64-10.43C11.64-9.82 11.38-9.23 10.68-9.23L10.56-9.23C10.02-9.23 9.76-8.95 9.76-8.51C9.76-8.05 10.02-7.78 10.56-7.78L10.69-7.78C11.47-7.78 11.82-7.35 11.82-6.57C11.82-6.01 11.58-5.43 10.95-5.43C10.43-5.43 10.17-5.79 10.03-6.18C9.88-6.66 9.55-6.89 9.08-6.89C8.51-6.89 8.14-6.55 8.14-5.98C8.14-5.75 8.18-5.54 8.24-5.36C8.55-4.34 9.69-3.80 10.96-3.80ZM17.64-8.64C17.14-8.64 16.91-9.23 16.91-10.04C16.91-10.86 17.16-11.46 17.64-11.46C18.14-11.46 18.38-10.85 18.38-10.02C18.38-9.21 18.13-8.64 17.64-8.64Z" fill="currentColor"/>
</svg>