<svg xmlns="http://www.w3.org/2000/svg" viewBox="0 0 24 24" width="24" height="24">
  <title>4.lane</title>
  <path transform="matrix(0.8752136752136752, 0, 0, 0.8752136752136752, -0.6153846153846154, 19.297435897435896)" d="M2.99-0.07C2.99 0.93 3.80 1.75 4.80 1.75C5.80 1.75 6.61 0.93 6.61-0.07L6.61-16.62C6.61-17.61 5.80-18.42 4.80-18.42C3.80-18.42 2.99-17.61 2.99-16.62ZM22.21-0.07C22.21 0.93 23.03 1.75 24.02 1.75C25.02 1.75 25.84 0.93 25.84-0.07L25.84-16.62C25.84-17.61 25.02-18.42 24.02-18.42C23.03-18.42 22.21-17.61 22.21-16.62ZM15.82-3.28C16.46-3.28 17.04-3.63 17.04-4.51L17.04-5.11L17.23-5.11C17.95-5.11 18.21-5.58 18.21-6.11C18.21-6.64 17.95-7.10 17.23-7.10L17.04-7.10L17.04-11.63C17.04-12.81 16.20-13.44 15.01-13.44C13.85-13.44 13.28-12.82 12.81-11.88C12.19-10.69 11.23-8.65 10.83-7.42C10.72-7.09 10.65-6.76 10.65-6.42C10.65-5.68 11.14-5.11 12.06-5.11L14.61-5.11L14.61-4.51C14.61-3.63 15.19-3.28 15.82-3.28ZM14.70-7.01L12.73-7.01L12.73-7.13C13.24-8.47 14.02-10.20 14.65-11.52L14.70-11.52Z" fill="currentColor"/>
</svg>