<svg xmlns="http://www.w3.org/2000/svg" viewBox="0 0 24 24" width="24" height="24">
  <title>42.square.fill</title>
  <path transform="matrix(0.8752136752136752, 0, 0, 0.8752136752136752, -0.6153846153846154, 19.405128205128204)" d="M7.37 2.96L21.46 2.96C24.25 2.96 25.84 1.38 25.84-1.41L25.84-15.52C25.84-18.30 24.25-19.89 21.46-19.89L7.37-19.89C4.58-19.89 2.99-18.30 2.99-15.52L2.99-1.41C2.99 1.38 4.58 2.96 7.37 2.96ZM16.17-3.71C15.49-3.71 15.13-4.05 15.13-4.61C15.13-4.99 15.28-5.32 15.71-5.85L17.34-7.92C18.06-8.82 18.66-9.69 18.66-10.57C18.66-11.19 18.43-11.71 17.87-11.71C17.38-11.71 17.18-11.30 17.04-10.78C16.88-10.23 16.51-10.01 16.05-10.01C15.45-10.01 15.12-10.42 15.12-10.99C15.12-12.32 16.36-13.45 17.87-13.45C19.57-13.45 20.78-12.41 20.78-10.64C20.78-9.36 20.17-8.45 19.17-7.27L17.79-5.58L17.79-5.48L20.09-5.48C20.70-5.48 20.94-5.07 20.94-4.59C20.94-4.14 20.70-3.71 20.09-3.71ZM12.16-3.54C11.59-3.54 11.09-3.87 11.09-4.64L11.09-5.37L9.02-5.37C8.18-5.37 7.73-5.80 7.73-6.61C7.73-7.05 7.84-7.52 8.02-8.02L9.29-11.25C9.69-12.34 10.11-13.34 11.50-13.34C12.54-13.34 13.24-12.75 13.24-11.70L13.24-7.15L13.41-7.15C13.99-7.15 14.26-6.81 14.26-6.26C14.26-5.79 14.06-5.37 13.41-5.37L13.24-5.37L13.24-4.64C13.24-3.87 12.75-3.54 12.16-3.54ZM11.16-7.08L11.16-11.57L11.11-11.57L9.59-7.17L9.59-7.08Z" fill="currentColor"/>
</svg>