<svg xmlns="http://www.w3.org/2000/svg" viewBox="0 0 24 24" width="24" height="24">
  <title>44.circle.fill</title>
  <path transform="matrix(0.7934294126762746, 0, 0, 0.7934294126762746, 0.33565783356578316, 18.713156671315666)" d="M14.70 4.14C21.66 4.14 27.30-1.50 27.30-8.46C27.30-15.42 21.66-21.06 14.70-21.06C7.75-21.06 2.10-15.42 2.10-8.46C2.10-1.50 7.75 4.14 14.70 4.14ZM12.06-3.55C11.48-3.55 10.98-3.89 10.98-4.65L10.98-5.37L8.92-5.37C8.07-5.37 7.63-5.81 7.63-6.61C7.63-7.05 7.73-7.52 7.92-8.03L9.19-11.25C9.59-12.34 10.01-13.34 11.40-13.34C12.45-13.34 13.14-12.75 13.14-11.70L13.14-7.15L13.31-7.15C13.89-7.15 14.16-6.81 14.16-6.26C14.16-5.80 13.96-5.37 13.30-5.37L13.14-5.37L13.14-4.65C13.14-3.87 12.66-3.55 12.06-3.55ZM19.50-3.55C18.93-3.55 18.42-3.89 18.42-4.65L18.42-5.37L16.36-5.37C15.52-5.37 15.07-5.81 15.07-6.61C15.07-7.05 15.18-7.52 15.36-8.03L16.62-11.25C17.02-12.34 17.45-13.34 18.83-13.34C19.88-13.34 20.57-12.75 20.57-11.70L20.57-7.15L20.74-7.15C21.33-7.15 21.60-6.81 21.60-6.26C21.60-5.80 21.39-5.37 20.73-5.37L20.57-5.37L20.57-4.65C20.57-3.87 20.09-3.55 19.50-3.55ZM11.05-7.09L11.05-11.57L11.00-11.57L9.48-7.17L9.48-7.09ZM18.49-7.09L18.49-11.57L18.43-11.57L16.91-7.17L16.91-7.09Z" fill="currentColor"/>
</svg>