<svg xmlns="http://www.w3.org/2000/svg" viewBox="0 0 24 24" width="24" height="24">
  
  <path transform="matrix(0.8752136752136752, 0, 0, 0.8752136752136752, -0.6153846153846154, 19.405128205128204)" d="M7.37 2.96L21.46 2.96C24.25 2.96 25.84 1.38 25.84-1.41L25.84-15.52C25.84-18.30 24.25-19.89 21.46-19.89L7.37-19.89C4.58-19.89 2.99-18.30 2.99-15.52L2.99-1.41C2.99 1.38 4.58 2.96 7.37 2.96ZM7.86-0.66C7.03-0.66 6.61-1.03 6.61-1.91L6.61-15C6.61-15.88 7.03-16.25 7.86-16.25L20.96-16.25C21.79-16.25 22.21-15.88 22.21-15L22.21-1.91C22.21-1.03 21.79-0.66 20.96-0.66ZM17.82-3.79C19.50-3.79 20.80-4.73 20.80-6.41C20.80-7.54 20.14-8.46 19.15-8.67L19.15-8.71C19.98-8.98 20.57-9.74 20.57-10.70C20.57-12.16 19.42-13.11 17.82-13.11C16.37-13.11 15.09-12.29 15.09-10.70C15.09-9.61 15.79-8.94 16.51-8.71L16.51-8.67C15.56-8.47 14.86-7.55 14.86-6.41C14.86-4.78 16.11-3.79 17.82-3.79ZM12-3.86C12.55-3.86 13.00-4.16 13.00-4.88L13.00-5.57L13.16-5.57C13.77-5.57 13.96-5.96 13.96-6.40C13.96-6.91 13.71-7.23 13.17-7.23L13.00-7.23L13.00-11.51C13.00-12.49 12.35-13.03 11.38-13.03C10.09-13.03 9.68-12.11 9.30-11.09L8.11-8.04C7.93-7.58 7.84-7.14 7.84-6.73C7.84-5.98 8.26-5.57 9.05-5.57L10.99-5.57L10.99-4.88C10.99-4.16 11.46-3.86 12-3.86ZM17.82-9.33C17.39-9.33 17.14-9.83 17.14-10.48C17.14-11.14 17.40-11.64 17.82-11.64C18.28-11.64 18.52-11.14 18.52-10.48C18.52-9.80 18.27-9.33 17.82-9.33ZM11.05-7.16L9.56-7.16L9.56-7.25L11.00-11.38L11.05-11.38ZM17.82-5.27C17.33-5.27 17.06-5.81 17.06-6.57C17.06-7.31 17.33-7.85 17.82-7.85C18.32-7.85 18.60-7.32 18.60-6.57C18.60-5.81 18.32-5.27 17.82-5.27Z" fill="currentColor"/>
</svg>