<svg xmlns="http://www.w3.org/2000/svg" viewBox="0 0 24 24" width="24" height="24">
  
  <path transform="matrix(0.6957467047153146, 0, 0, 0.6957467047153146, -0.0790868324500611, 17.87851610273135)" d="M22.57 0.35L30 0.35C30.96 0.35 31.73-0.41 31.73-1.36C31.73-2.31 30.96-3.07 30-3.07L24.69-3.07L24.69-15.42C24.69-16.58 23.74-17.53 22.58-17.53C21.42-17.53 20.47-16.58 20.47-15.42L20.47-1.86C20.47-0.52 21.36 0.35 22.57 0.35ZM13.11 0.63C14.25 0.63 15.15-0.28 15.15-1.42L15.15-2.71L15.79-2.71C16.75-2.71 17.48-3.43 17.48-4.39C17.48-5.33 16.75-6.08 15.80-6.08L15.15-6.08L15.15-14.24C15.15-16.17 13.70-17.53 11.64-17.53C9.70-17.53 8.50-16.35 7.72-14.82L3.41-6.82C3.14-6.30 2.99-5.73 2.99-5.18C2.99-3.88 3.76-2.71 5.58-2.71L11.07-2.71L11.07-1.42C11.07-0.25 12.01 0.63 13.11 0.63ZM11.18-5.93L6.56-5.93L6.56-6.05L11.06-14.20L11.18-14.20Z" fill="currentColor"/>
</svg>