<svg xmlns="http://www.w3.org/2000/svg" viewBox="0 0 24 24" width="24" height="24">
  <title>6.lane</title>
  <path transform="matrix(0.8752136752136752, 0, 0, 0.8752136752136752, -0.6153846153846154, 19.297435897435896)" d="M2.99-0.07C2.99 0.93 3.80 1.75 4.80 1.75C5.80 1.75 6.61 0.93 6.61-0.07L6.61-16.62C6.61-17.61 5.80-18.42 4.80-18.42C3.80-18.42 2.99-17.61 2.99-16.62ZM22.21-0.07C22.21 0.93 23.03 1.75 24.02 1.75C25.02 1.75 25.84 0.93 25.84-0.07L25.84-16.62C25.84-17.61 25.02-18.42 24.02-18.42C23.03-18.42 22.21-17.61 22.21-16.62ZM14.59-3.19C16.55-3.19 18-4.55 18-6.73C18-8.46 17.11-9.86 15.42-9.86C14.37-9.86 13.62-9.23 13.31-8.26L13.28-8.26C13.28-9 13.30-9.55 13.38-10.03C13.50-10.76 13.79-11.59 14.53-11.59C14.98-11.59 15.26-11.38 15.48-11.00C15.74-10.57 16.09-10.36 16.59-10.36C17.34-10.36 17.63-10.88 17.63-11.38C17.63-11.66 17.55-11.92 17.44-12.15C16.99-13.05 15.81-13.55 14.60-13.55C11.87-13.55 10.90-11.11 10.86-8.48C10.84-7.29 11.04-6.15 11.45-5.26C12.04-4.01 13.07-3.19 14.59-3.19ZM14.54-5.16C13.84-5.16 13.54-5.95 13.54-6.66C13.54-7.45 13.91-8.07 14.57-8.07C15.27-8.07 15.56-7.32 15.56-6.61C15.56-5.85 15.21-5.16 14.54-5.16Z" fill="currentColor"/>
</svg>