<svg xmlns="http://www.w3.org/2000/svg" viewBox="0 0 24 24" width="24" height="24">
  <title>8.circle</title>
  <path transform="matrix(0.7934294126762746, 0, 0, 0.7934294126762746, 0.33565783356578316, 18.713156671315666)" d="M14.70 4.14C21.66 4.14 27.30-1.50 27.30-8.46C27.30-15.42 21.66-21.06 14.70-21.06C7.73-21.06 2.10-15.42 2.10-8.46C2.10-1.50 7.73 4.14 14.70 4.14ZM14.70 0.48C9.75 0.48 5.75-3.52 5.75-8.46C5.75-13.41 9.75-17.40 14.70-17.40C19.64-17.40 23.64-13.41 23.64-8.46C23.64-3.52 19.64 0.48 14.70 0.48ZM14.68-3.06C17.63-3.06 19.46-4.27 19.46-6.21C19.46-7.54 18.53-8.50 17.06-8.70L17.06-8.84C18.38-9.19 19.02-9.93 19.02-11.04C19.02-12.76 17.34-13.86 14.70-13.86C12.05-13.86 10.37-12.76 10.37-11.04C10.37-9.93 11.02-9.20 12.33-8.84L12.33-8.70C10.86-8.50 9.93-7.54 9.93-6.21C9.93-4.27 11.75-3.06 14.68-3.06ZM14.70-9.66C14.07-9.66 13.62-10.09 13.62-10.68C13.62-11.25 14.09-11.68 14.70-11.68C15.30-11.68 15.77-11.25 15.77-10.68C15.77-10.09 15.32-9.66 14.70-9.66ZM14.70-5.25C13.93-5.25 13.38-5.75 13.38-6.46C13.38-7.15 13.93-7.69 14.70-7.69C15.47-7.69 16.01-7.16 16.01-6.46C16.01-5.75 15.46-5.25 14.70-5.25Z" fill="currentColor"/>
</svg>