<svg xmlns="http://www.w3.org/2000/svg" viewBox="0 0 24 24" width="24" height="24">
  <title>ac.slash</title>
  <path transform="matrix(0.6313972129732396, 0, 0, 0.6313972129732396, 0.1132075471698113, 17.3666755964523)" d="M29.77 4.03C30.16 4.43 30.83 4.41 31.22 4.02C31.62 3.62 31.62 2.96 31.22 2.57L7.64-21.01C7.23-21.42 6.57-21.42 6.16-21.01C5.78-20.63 5.78-19.96 6.16-19.56ZM21.82-10.41L23.34-16.10C23.57-16.93 23.11-17.77 22.27-17.99C21.43-18.20 20.64-17.72 20.41-16.88L19.35-12.88ZM29.45-14.47C30.33-14.47 30.61-13.58 30.80-12.57C30.98-11.43 31.63-10.80 32.78-10.80C33.87-10.80 34.54-11.53 34.54-12.73C34.54-13.17 34.48-13.61 34.37-13.99C33.80-16.29 31.92-17.85 29.43-17.85C25.11-17.85 23.67-13.63 23.58-8.98C23.59-8.86 23.59-8.74 23.59-8.64L28.10-4.14C27.89-5.12 27.82-6.55 27.82-8.47C27.82-12.71 28.24-14.47 29.45-14.47ZM4.96 1.04C6.20 1.04 6.80 0.33 7.01-0.93L7.44-3.14L10.76-3.14L11.20-0.87C11.44 0.41 12.05 1.04 13.34 1.04C14.48 1.04 15.26 0.18 15.26-0.97C15.26-1.41 15.20-1.80 15.11-2.23L13.73-8.43L9.09-13.04L10.23-6.20L7.91-6.20L8.96-13.18L6.15-16.00L3.16-2.30C3.06-1.75 2.99-1.25 2.99-0.96C2.99 0.23 3.67 1.04 4.96 1.04ZM32.47 0.25C33.60-0.55 34.25-1.78 34.54-2.96C34.62-3.32 34.66-3.68 34.66-4.01C34.66-4.98 34.10-5.89 32.70-5.89C31.56-5.89 30.97-5.33 30.84-4.18C30.74-3.43 30.52-2.59 29.87-2.36ZM17.21 1.08C18.06 1.30 18.86 0.79 19.08-0.04L19.72-2.41L17.24-4.91L16.15-0.81C15.93 0.02 16.39 0.86 17.21 1.08Z" fill="currentColor"/>
</svg>