<svg xmlns="http://www.w3.org/2000/svg" viewBox="0 0 24 24" width="24" height="24">
  
  <path transform="matrix(0.7066942719116632, 0, 0, 0.7066942719116632, -0.11180124223602483, 17.979296066252587)" d="M2.99-12.04L10.80-12.04C11.04-12.53 11.59-12.87 12.22-12.87L22.04-12.87C22.68-12.87 23.21-12.53 23.46-12.04L31.28-12.04L31.28-12.28C31.28-17.18 28.77-19.45 23.68-19.45L10.58-19.45C5.50-19.45 2.99-17.18 2.99-12.28ZM10.58 2.53L23.70 2.53C28.89 2.53 31.29 0.13 31.29-5.05L31.29-10.65L23.46-10.65C23.24-10.16 22.71-9.82 22.04-9.82L12.22-9.82C11.59-9.82 11.05-10.16 10.82-10.65L2.99-10.65L2.99-5.05C2.99 0.13 5.39 2.53 10.58 2.53ZM17.13-5.18C16.44-5.17 15.87-5.74 15.87-6.43C15.87-7.14 16.44-7.70 17.13-7.70C17.84-7.70 18.40-7.14 18.40-6.43C18.40-5.75 17.84-5.19 17.13-5.18Z" fill="currentColor"/>
</svg>