<svg xmlns="http://www.w3.org/2000/svg" viewBox="0 0 24 24" width="24" height="24">
  
  <path transform="matrix(0.3839520059992501, 0, 0, 0.3839520059992501, 1.1946006749156355, 15.24859392575928)" d="M13.99-12.04L21.81-12.04C22.04-12.53 22.59-12.87 23.23-12.87L33.05-12.87C33.68-12.87 34.22-12.53 34.46-12.04L42.28-12.04L42.28-12.28C42.28-17.18 39.77-19.45 34.69-19.45L21.57-19.45C16.50-19.45 13.99-17.18 13.99-12.28ZM49.15-0.48C49.66 0.16 50.58 0.26 51.34-0.53C53.25-2.48 54.19-5.38 54.19-8.46C54.19-11.52 53.12-14.51 51.34-16.38C50.60-17.18 49.68-17.06 49.15-16.44C48.67-15.86 48.82-15.14 49.35-14.57C50.75-13.03 51.50-10.84 51.50-8.46C51.50-6.07 50.73-3.88 49.35-2.36C48.83-1.77 48.68-1.05 49.15-0.48ZM7.13-0.48C7.61-1.05 7.45-1.77 6.93-2.36C5.55-3.88 4.78-6.07 4.78-8.46C4.78-10.84 5.54-13.04 6.93-14.57C7.46-15.14 7.61-15.86 7.13-16.44C6.60-17.06 5.68-17.18 4.93-16.38C3.16-14.51 2.10-11.52 2.10-8.46C2.10-5.38 3.04-2.48 4.93-0.53C5.71 0.26 6.61 0.16 7.13-0.48ZM45.29-3.89C45.79-3.25 46.78-3.21 47.46-3.95C48.42-5.00 48.93-6.68 48.93-8.46C48.93-10.24 48.42-11.93 47.46-12.98C46.78-13.72 45.79-13.68 45.29-13.03C44.87-12.47 45.01-11.79 45.43-11.19C45.89-10.55 46.25-9.42 46.25-8.46C46.25-7.50 45.89-6.38 45.43-5.74C45-5.14 44.87-4.46 45.29-3.89ZM10.98-3.89C11.41-4.46 11.29-5.14 10.85-5.74C10.38-6.38 10.03-7.50 10.03-8.46C10.03-9.42 10.38-10.55 10.85-11.19C11.27-11.79 11.41-12.47 10.98-13.03C10.50-13.68 9.50-13.72 8.81-12.98C7.85-11.93 7.35-10.24 7.35-8.46C7.35-6.68 7.85-5.00 8.81-3.95C9.50-3.21 10.50-3.25 10.98-3.89ZM21.57 2.53L34.70 2.53C39.89 2.53 42.29 0.13 42.29-5.05L42.29-10.65L34.46-10.65C34.24-10.16 33.71-9.82 33.05-9.82L23.23-9.82C22.59-9.82 22.05-10.16 21.82-10.65L13.99-10.65L13.99-5.05C13.99 0.13 16.39 2.53 21.57 2.53ZM28.14-5.18C27.45-5.17 26.87-5.74 26.87-6.43C26.87-7.14 27.45-7.70 28.14-7.70C28.84-7.70 29.40-7.14 29.40-6.43C29.40-5.75 28.84-5.19 28.14-5.18Z" fill="currentColor"/>
</svg>