<svg xmlns="http://www.w3.org/2000/svg" viewBox="0 0 24 24" width="24" height="24">
  <title>airport.express</title>
  <path transform="matrix(0.7353152376849059, 0, 0, 0.7353152376849059, 1.81473502800517, 18.122361051271003)" d="M7.54 5.27L20.17 5.27C23.12 5.27 24.71 3.70 24.71 0.79L24.71-17.44C24.71-20.36 23.12-21.93 20.17-21.93L7.54-21.93C4.58-21.93 2.99-20.36 2.99-17.44L2.99 0.79C2.99 3.70 4.58 5.27 7.54 5.27ZM7.57-18.30L9.87-18.30L9.87-14.89C9.87-14.27 9.55-13.96 8.95-13.96L6.61-13.96L6.61-17.32C6.61-17.98 6.95-18.30 7.57-18.30ZM7.57 1.65C6.95 1.65 6.61 1.31 6.61 0.67L6.61-11.74L8.99-11.74C11.03-11.74 12.08-12.79 12.08-14.78L12.08-18.30L20.13-18.30C20.75-18.30 21.09-17.98 21.09-17.32L21.09 0.67C21.09 1.31 20.75 1.65 20.13 1.65Z" fill="currentColor"/>
</svg>