<svg xmlns="http://www.w3.org/2000/svg" viewBox="0 0 24 24" width="24" height="24">
  <title>airpods.chargingcase</title>
  <path transform="matrix(0.7990012484394506, 0, 0, 0.7990012484394506, 1.1292134831460685, 18.750936329588015)" d="M9.47 4.07L17.75 4.07C22.08 4.07 24.22 1.91 24.22-2.41L24.22-14.50C24.22-18.82 22.08-20.96 17.75-20.96L9.47-20.96C5.14-20.96 2.99-18.82 2.99-14.50L2.99-2.41C2.99 1.91 5.14 4.07 9.47 4.07ZM17.19-14.46L10.02-14.46C9.45-14.46 8.95-14.17 8.71-13.69L6.50-13.69L6.50-14.50C6.50-16.54 7.43-17.45 9.47-17.45L17.75-17.45C19.79-17.45 20.71-16.54 20.71-14.50L20.71-13.69L18.52-13.69C18.27-14.17 17.79-14.46 17.19-14.46ZM9.47 0.55C7.43 0.55 6.50-0.38 6.50-2.41L6.50-12.28L8.71-12.28C8.95-11.80 9.45-11.51 10.02-11.51L17.19-11.51C17.79-11.51 18.27-11.80 18.52-12.28L20.71-12.28L20.71-2.41C20.71-0.38 19.79 0.55 17.75 0.55Z" fill="currentColor"/>
</svg>