<svg xmlns="http://www.w3.org/2000/svg" viewBox="0 0 24 24" width="24" height="24">
  
  <path transform="matrix(0.7934294126762746, 0, 0, 0.7934294126762746, 0.33565783356578316, 18.70385867038587)" d="M14.70 4.15C21.66 4.15 27.30-1.49 27.30-8.45C27.30-15.41 21.66-21.05 14.70-21.05C7.75-21.05 2.10-15.41 2.10-8.45C2.10-1.49 7.75 4.15 14.70 4.15ZM22.49-8.43C22.49-7.52 21.34-6.79 20.00-6.79L17.46-6.79C17.24-6.79 17.19-6.75 17.00-6.57L12.95-2.31C12.79-2.12 12.55-2.02 12.29-2.02L11.34-2.02C10.99-2.02 10.79-2.36 10.93-2.68L12.90-6.80L10.37-7.09L9.35-5.40C9.22-5.18 9-5.05 8.74-5.05L8.45-5.05C8.12-5.05 7.88-5.29 7.88-5.61L7.88-11.24C7.88-11.55 8.12-11.79 8.45-11.79L8.74-11.79C9-11.79 9.22-11.67 9.35-11.45L10.37-9.76L12.90-10.05L10.93-14.16C10.79-14.48 10.99-14.84 11.34-14.84L12.29-14.84C12.55-14.84 12.79-14.72 12.95-14.53L17.00-10.27C17.19-10.09 17.24-10.07 17.46-10.07L20.00-10.07C21.34-10.07 22.49-9.33 22.49-8.43Z" fill="currentColor"/>
</svg>