<svg xmlns="http://www.w3.org/2000/svg" viewBox="0 0 24 24" width="24" height="24">
  <title>airpods.gen4.chargingcase.wireless</title>
  <path transform="matrix(0.842798353909465, 0, 0, 0.842798353909465, -0.5185185185185186, 19.125925925925927)" d="M10.80 2.53L18.90 2.53C24.13 2.53 26.72-0.12 26.72-5.47L26.72-11.43C26.72-16.78 24.13-19.44 18.90-19.44L10.80-19.44C5.58-19.44 2.99-16.78 2.99-11.43L2.99-5.47C2.99-0.12 5.58 2.53 10.80 2.53ZM18.75-13.43L10.95-13.43C10.46-13.43 10.04-13.20 9.81-12.82L6.74-12.82C7.13-14.84 8.46-15.82 10.80-15.82L18.90-15.82C21.25-15.82 22.58-14.84 22.97-12.82L19.89-12.82C19.66-13.20 19.25-13.43 18.75-13.43ZM10.80-1.09C7.98-1.09 6.61-2.51 6.61-5.47L6.61-11.40L9.81-11.40C10.04-11.03 10.46-10.79 10.95-10.79L18.75-10.79C19.25-10.79 19.66-11.03 19.89-11.40L23.10-11.40L23.10-5.47C23.10-2.51 21.73-1.09 18.90-1.09ZM14.86-6.86C15.57-6.88 16.15-7.44 16.15-8.13C16.15-8.85 15.57-9.41 14.86-9.41C14.16-9.41 13.57-8.85 13.57-8.13C13.57-7.43 14.16-6.84 14.86-6.86Z" fill="currentColor"/>
</svg>