<svg xmlns="http://www.w3.org/2000/svg" viewBox="0 0 24 24" width="24" height="24">
  <title>airpods.pro.right</title>
  <path transform="matrix(0.8819944791557165, 0, 0, 0.8819944791557165, 2.1034017915047047, 19.467711163361518)" d="M14.26-19.80C12.02-19.82 9.59-18.77 8.12-16.64C8.00-16.48 7.89-16.30 7.79-16.10C10.83-15.60 13.30-12.94 13.30-9.90C13.30-9.05 13.14-8.25 12.83-7.55C14.07-7.78 15.01-8.13 15.87-8.66C18.07-9.98 19.45-12.01 19.45-14.54C19.45-17.71 17.29-19.78 14.26-19.80ZM15.49-14.47C15.15-14.18 14.64-14.23 14.37-14.58C14.11-14.93 14.14-15.39 14.47-15.67L15.90-16.84C16.23-17.11 16.72-17.10 16.99-16.72C17.26-16.38 17.24-15.93 16.90-15.64ZM7.76-6C10.04-6 11.70-7.51 11.70-9.90C11.70-12.32 9.43-14.58 6.81-14.58C4.56-14.58 2.99-12.84 2.99-10.71C2.99-8.04 5.23-6 7.76-6ZM7.35-7.97C6.88-7.57 6.18-8.00 5.46-8.89C4.73-9.80 4.41-10.52 4.88-10.89C5.38-11.31 6.05-10.89 6.77-9.98C7.50-9.08 7.82-8.37 7.35-7.97ZM12.38 2.87L13.36 2.87C14.44 2.87 15.14 2.24 15.14 1.20L15.14-6.52C13.73-5.98 12.07-5.67 10.58-5.68L10.58 1.20C10.58 2.24 11.30 2.87 12.38 2.87Z" fill="currentColor"/>
</svg>