<svg xmlns="http://www.w3.org/2000/svg" viewBox="0 0 24 24" width="24" height="24">
  <title>airplane.arrival</title>
  <path transform="matrix(0.6810321894120777, 0, 0, 0.6810321894120777, -0.1308858739026335, 18.934288216828676)" d="M6.76-10.70L26.96-5.27C29.52-4.58 31.97-5.41 32.32-7.31C32.59-9.06 30.79-10.77 28.41-11.23L20.89-12.71C20.44-12.81 20.20-12.96 19.88-13.44L13.75-22.28C13.48-22.65 13.10-22.90 12.69-23.00L11.81-23.23C11.27-23.36 10.85-22.85 10.99-22.25L12.82-14.32L9.49-14.98L5.71-19.39C5.40-19.77 5.02-19.89 4.46-19.77L3.97-19.68C3.47-19.57 3.20-19.16 3.30-18.68L4.54-12.62C4.73-11.68 5.51-11.03 6.76-10.70ZM4.93 2.88L30.68 2.88C31.69 2.88 32.50 2.07 32.50 1.07C32.50 0.07 31.69-0.74 30.68-0.74L4.93-0.74C3.94-0.74 3.13 0.07 3.13 1.07C3.13 2.07 3.94 2.88 4.93 2.88Z" fill="currentColor"/>
</svg>