<svg xmlns="http://www.w3.org/2000/svg" viewBox="0 0 24 24" width="24" height="24">
  
  <path transform="matrix(0.56756457155526, 0, 0, 0.56756457155526, 0.8094446291985367, 16.802128367143332)" d="M13.96 3.40C20.51 3.40 25.80-1.91 25.80-8.46C25.80-15.01 20.51-20.32 13.96-20.32C7.41-20.32 2.10-15.01 2.10-8.46C2.10-1.91 7.41 3.40 13.96 3.40ZM32.31-0.48C32.82 0.16 33.73 0.26 34.50-0.53C36.40-2.48 37.34-5.38 37.34-8.46C37.34-11.52 36.28-14.51 34.50-16.38C33.75-17.18 32.84-17.06 32.31-16.44C31.83-15.86 31.98-15.14 32.51-14.57C33.90-13.03 34.66-10.84 34.66-8.46C34.66-6.07 33.89-3.88 32.51-2.36C31.99-1.77 31.84-1.05 32.31-0.48ZM13.96-0.14C9.35-0.14 5.63-3.86 5.63-8.46C5.63-13.07 9.35-16.79 13.96-16.79C18.55-16.79 22.28-13.07 22.28-8.46C22.28-3.86 18.55-0.14 13.96-0.14ZM15.11-12.28C15.39-12.63 15.60-13.07 15.60-13.54C15.60-13.61 15.60-13.68 15.57-13.71C15.11-13.71 14.57-13.41 14.25-13.03C13.99-12.74 13.75-12.28 13.75-11.81C13.75-11.74 13.77-11.67 13.77-11.64C13.80-11.64 13.83-11.63 13.89-11.63C14.30-11.63 14.81-11.91 15.11-12.28ZM28.45-3.89C28.95-3.25 29.93-3.21 30.62-3.95C31.58-5.00 32.09-6.68 32.09-8.46C32.09-10.24 31.58-11.93 30.62-12.98C29.93-13.72 28.95-13.68 28.45-13.03C28.02-12.47 28.16-11.79 28.58-11.19C29.05-10.55 29.40-9.42 29.40-8.46C29.40-7.50 29.05-6.38 28.58-5.74C28.16-5.14 28.02-4.46 28.45-3.89ZM13.95-5.05C14.66-5.05 14.81-4.70 15.42-4.70C16.03-4.70 16.44-5.27 16.84-5.81C17.29-6.43 17.46-7.05 17.46-7.09C17.41-7.10 16.24-7.58 16.24-8.92C16.24-10.08 17.17-10.58 17.21-10.64C16.62-11.52 15.68-11.53 15.42-11.53C14.74-11.53 14.20-11.12 13.83-11.12C13.45-11.12 12.97-11.52 12.38-11.52C11.24-11.52 10.11-10.57 10.11-8.84C10.11-7.72 10.54-6.57 11.05-5.84C11.50-5.19 11.89-4.69 12.47-4.69C13.01-4.69 13.28-5.05 13.95-5.05Z" fill="currentColor"/>
</svg>