<svg xmlns="http://www.w3.org/2000/svg" viewBox="0 0 24 24" width="24" height="24">
  
  <path transform="matrix(0.6462198662122933, 0, 0, 0.6462198662122933, 0.06891329042029537, 17.45626656569481)" d="M32.23 6.70C33.16 6.70 33.94 5.95 33.94 5.02L33.94-21.90C33.94-22.83 33.16-23.59 32.23-23.59C31.29-23.59 30.52-22.83 30.52-21.90L30.52 5.02C30.52 5.95 31.29 6.70 32.23 6.70ZM25.25-9.42C27.32-9.42 28.62-10.71 28.62-12.75L28.62-17.30C28.62-19.32 27.32-20.61 25.25-20.61L14.07-20.61C12.02-20.61 10.72-19.32 10.72-17.30L10.72-12.75C10.72-10.71 12.02-9.42 14.07-9.42ZM24.54-12.86L14.81-12.86C14.39-12.86 14.14-13.10 14.14-13.52L14.14-16.51C14.14-16.93 14.39-17.18 14.81-17.18L24.54-17.18C24.94-17.18 25.18-16.93 25.18-16.51L25.18-13.52C25.18-13.10 24.94-12.86 24.54-12.86ZM25.25 3.68C27.32 3.68 28.62 2.39 28.62 0.36L28.62-4.18C28.62-6.21 27.32-7.50 25.25-7.50L6.35-7.50C4.29-7.50 2.99-6.21 2.99-4.18L2.99 0.36C2.99 2.39 4.29 3.68 6.35 3.68ZM24.54 0.25L7.08 0.25C6.67 0.25 6.42 0 6.42-0.42L6.42-3.40C6.42-3.82 6.67-4.07 7.08-4.07L24.54-4.07C24.94-4.07 25.18-3.82 25.18-3.40L25.18-0.42C25.18 0 24.94 0.25 24.54 0.25Z" fill="currentColor"/>
</svg>