<svg xmlns="http://www.w3.org/2000/svg" viewBox="0 0 24 24" width="24" height="24">
  
  <path transform="matrix(0.6325673338275266, 0, 0, 0.6325673338275266, 0.6137879911045216, 17.35211267605634)" d="M22.82-21.01C23.72-21.01 24.45-21.74 24.45-22.64C24.45-23.53 23.72-24.27 22.82-24.27C21.93-24.27 21.19-23.53 21.19-22.64C21.19-21.74 21.93-21.01 22.82-21.01ZM15.97-18.66C16.88-18.66 17.60-19.38 17.60-20.29C17.60-21.19 16.88-21.91 15.97-21.91C15.08-21.91 14.34-21.19 14.34-20.29C14.34-19.38 15.08-18.66 15.97-18.66ZM29.79-17.87C30.69-17.87 31.42-18.60 31.42-19.50C31.42-20.39 30.69-21.13 29.79-21.13C28.90-21.13 28.16-20.39 28.16-19.50C28.16-18.60 28.90-17.87 29.79-17.87ZM22.46-6.95C25.78-6.95 28.49-9.68 28.49-13.00C28.49-16.29 25.78-19.00 22.46-19.00C19.17-19.00 16.44-16.29 16.44-13.00C16.44-9.68 19.17-6.95 22.46-6.95ZM13.07-11.65C13.97-11.65 14.70-12.38 14.70-13.28C14.70-14.17 13.97-14.91 13.07-14.91C12.16-14.91 11.44-14.17 11.44-13.28C11.44-12.38 12.16-11.65 13.07-11.65ZM32.13-10.98C33.04-10.98 33.76-11.72 33.76-12.61C33.76-13.51 33.04-14.24 32.13-14.24C31.23-14.24 30.50-13.51 30.50-12.61C30.50-11.72 31.23-10.98 32.13-10.98ZM6.96-8.51C7.86-8.51 8.59-9.23 8.59-10.14C8.59-11.03 7.86-11.77 6.96-11.77C6.06-11.77 5.33-11.03 5.33-10.14C5.33-9.23 6.06-8.51 6.96-8.51ZM12.93 1.86C15.83 1.86 18.18-0.49 18.18-3.42C18.18-6.29 15.82-8.64 12.93-8.64C10.04-8.64 7.68-6.29 7.68-3.42C7.68-0.49 10.04 1.86 12.93 1.86ZM28.99-4.05C29.89-4.05 30.62-4.78 30.62-5.68C30.62-6.57 29.89-7.31 28.99-7.31C28.09-7.31 27.36-6.57 27.36-5.68C27.36-4.78 28.09-4.05 28.99-4.05ZM3.87-2.07C4.77-2.07 5.50-2.80 5.50-3.70C5.50-4.59 4.77-5.33 3.87-5.33C2.96-5.33 2.24-4.59 2.24-3.70C2.24-2.80 2.96-2.07 3.87-2.07ZM22.29-1.49C23.18-1.49 23.92-2.23 23.92-3.12C23.92-4.02 23.18-4.75 22.29-4.75C21.39-4.75 20.65-4.02 20.65-3.12C20.65-2.23 21.39-1.49 22.29-1.49ZM6.53 4.52C7.42 4.52 8.16 3.79 8.16 2.89C8.16 1.99 7.42 1.27 6.53 1.27C5.63 1.27 4.90 1.99 4.90 2.89C4.90 3.79 5.63 4.52 6.53 4.52ZM19.28 4.65C20.18 4.65 20.91 3.91 20.91 3.02C20.91 2.12 20.18 1.39 19.28 1.39C18.38 1.39 17.65 2.12 17.65 3.02C17.65 3.91 18.38 4.65 19.28 4.65ZM12.64 7.35C13.55 7.35 14.27 6.62 14.27 5.72C14.27 4.83 13.55 4.09 12.64 4.09C11.74 4.09 11.02 4.83 11.02 5.72C11.02 6.62 11.74 7.35 12.64 7.35Z" fill="currentColor"/>
</svg>