<svg xmlns="http://www.w3.org/2000/svg" viewBox="0 0 24 24" width="24" height="24">
  <title>american.football.professional</title>
  <path transform="matrix(0.7950436450224134, 0, 0, 0.7950436450224134, -0.14398864295503078, 18.73085945047821)" d="M22.44-1.30C27.16-6.02 28.83-12.77 27.30-17.93C26.84-19.45 26.26-20.04 24.74-20.50C19.58-22.02 12.83-20.36 8.11-15.63C3.38-10.90 1.72-4.15 3.25 1.01C3.70 2.53 4.28 3.11 5.80 3.56C10.97 5.09 17.71 3.43 22.44-1.30ZM20.34-3.39C16.48 0.48 11.52 1.95 6.76 0.71C6.26 0.61 6.21 0.56 6.06 0C4.89-4.75 6.34-9.68 10.20-13.54C14.05-17.40 18.98-18.84 23.73-17.67C24.29-17.52 24.34-17.47 24.45-16.98C25.68-12.21 24.21-7.25 20.34-3.39ZM10.00-5.98L12.77-3.19C13.09-2.88 13.58-2.88 13.90-3.19C14.20-3.50 14.20-4.00 13.90-4.31L13.07-5.14L13.62-5.70L14.45-4.86C14.74-4.55 15.26-4.55 15.56-4.86C15.87-5.16 15.87-5.67 15.56-5.98L14.73-6.81L15.27-7.35L16.11-6.52C16.42-6.22 16.92-6.22 17.23-6.52C17.53-6.82 17.53-7.34 17.23-7.64L16.39-8.47L16.96-9.04L17.79-8.20C18.11-7.90 18.60-7.90 18.90-8.20C19.22-8.52 19.22-9.01 18.90-9.32L18.07-10.15L18.63-10.71L19.46-9.88C19.76-9.57 20.27-9.57 20.58-9.88C20.88-10.17 20.88-10.68 20.58-10.99L17.80-13.77C17.48-14.07 16.98-14.07 16.69-13.77C16.37-13.46 16.37-12.95 16.69-12.66L17.52-11.82L16.96-11.26L16.13-12.11C15.82-12.41 15.33-12.41 15.01-12.11C14.71-11.79 14.71-11.30 15.01-10.98L15.84-10.15L15.28-9.59L14.45-10.42C14.14-10.72 13.63-10.72 13.32-10.42C13.02-10.11 13.02-9.61 13.32-9.30L14.16-8.46L13.62-7.92L12.79-8.75C12.48-9.06 11.96-9.06 11.67-8.75C11.36-8.45 11.36-7.93 11.67-7.64L12.50-6.81L11.95-6.26L11.11-7.09C10.80-7.39 10.30-7.39 10.00-7.09C9.69-6.77 9.69-6.28 10.00-5.98Z" fill="currentColor"/>
</svg>