<svg xmlns="http://www.w3.org/2000/svg" viewBox="0 0 24 24" width="24" height="24">
  <title>antenna.radiowaves.left.and.right.circle</title>
  <path transform="matrix(0.7934294126762746, 0, 0, 0.7934294126762746, 0.33565783356578316, 18.713156671315666)" d="M14.70 4.14C21.66 4.14 27.30-1.50 27.30-8.46C27.30-15.42 21.66-21.06 14.70-21.06C7.73-21.06 2.10-15.42 2.10-8.46C2.10-1.50 7.73 4.14 14.70 4.14ZM14.70 0.48C9.75 0.48 5.75-3.52 5.75-8.46C5.75-13.41 9.75-17.40 14.70-17.40C19.64-17.40 23.64-13.41 23.64-8.46C23.64-3.52 19.64 0.48 14.70 0.48ZM7.71-8.72C7.71-7.03 8.25-5.53 9.23-4.50C9.67-4.08 10.23-4.05 10.57-4.48C10.85-4.80 10.80-5.24 10.46-5.65C9.76-6.40 9.38-7.49 9.38-8.72C9.38-9.94 9.76-11.04 10.46-11.80C10.80-12.18 10.85-12.63 10.57-12.95C10.23-13.38 9.67-13.37 9.23-12.94C8.27-11.93 7.71-10.36 7.71-8.72ZM20.02-8.72C20.02-7.49 19.63-6.40 18.93-5.65C18.59-5.24 18.54-4.80 18.82-4.48C19.16-4.05 19.72-4.08 20.16-4.50C21.14-5.53 21.68-7.03 21.68-8.72C21.68-10.36 21.12-11.93 20.16-12.94C19.72-13.37 19.16-13.38 18.82-12.95C18.54-12.63 18.59-12.18 18.93-11.80C19.63-11.04 20.02-9.94 20.02-8.72ZM10.31-8.72C10.31-7.73 10.62-6.84 11.13-6.28C11.52-5.86 12.14-5.85 12.45-6.26C12.70-6.59 12.63-7.01 12.34-7.45C12.13-7.78 11.99-8.27 11.99-8.72C11.99-9.19 12.15-9.74 12.39-10.05C12.67-10.46 12.68-10.86 12.45-11.19C12.13-11.60 11.52-11.60 11.13-11.17C10.61-10.59 10.31-9.70 10.31-8.72ZM17.40-8.72C17.40-8.24 17.23-7.69 17.00-7.39C16.69-6.98 16.70-6.57 16.95-6.26C17.25-5.85 17.87-5.86 18.26-6.28C18.77-6.84 19.08-7.73 19.08-8.72C19.08-9.70 18.79-10.59 18.26-11.17C17.87-11.60 17.26-11.60 16.95-11.19C16.71-10.86 16.72-10.46 17.00-10.05C17.24-9.74 17.40-9.19 17.40-8.72ZM13.22-8.72C13.22-8.20 13.48-7.75 13.89-7.48L13.89-2.61C13.89-2.07 14.21-1.71 14.70-1.71C15.19-1.71 15.50-2.06 15.50-2.61L15.50-7.48C15.91-7.75 16.17-8.20 16.17-8.72C16.17-9.55 15.53-10.22 14.70-10.22C13.86-10.22 13.22-9.55 13.22-8.72Z" fill="currentColor"/>
</svg>