<svg xmlns="http://www.w3.org/2000/svg" viewBox="0 0 24 24" width="24" height="24">
  
  <path transform="matrix(0.8819982773471146, 0, 0, 0.8819982773471146, -0.625322997416021, 19.478036175710596)" d="M2.99-9.29L2.99-13.29C2.99-15.34 3.60-16.98 4.72-18.08C5.82-19.20 7.46-19.82 9.52-19.82L19.11-19.82C21.16-19.82 22.79-19.20 23.91-18.08C25.03-16.97 25.64-15.34 25.64-13.29L25.64-9.29L20.06-9.29C21.12-10.02 21.79-11.13 21.79-12.46C21.79-14.17 20.45-15.55 18.61-15.55C17.26-15.55 16.14-14.81 15.41-13.63L15.41-19.79L13.22-19.79L13.22-13.63C12.49-14.81 11.37-15.55 10.02-15.55C8.18-15.55 6.84-14.17 6.84-12.46C6.84-11.13 7.51-10.02 8.57-9.29ZM12.77-9.34C10.85-9.34 9.25-10.75 9.25-11.99C9.25-12.70 9.69-13.10 10.38-13.10C11.78-13.10 13.01-11.43 13.01-9.61L13.01-9.34ZM15.86-9.34L15.62-9.34L15.62-9.61C15.62-11.43 16.85-13.10 18.25-13.10C18.94-13.10 19.38-12.70 19.38-11.99C19.38-10.75 17.78-9.34 15.86-9.34ZM20.45-4.41C19.08-4.72 17.44-6.09 16.79-7.24L25.64-7.24L25.64-3.66C25.64-1.61 25.03 0.02 23.91 1.14C22.80 2.24 21.16 2.86 19.11 2.86L15.41 2.86L15.41-5.71L15.49-5.71C16.32-3.47 18.36-1.80 20.13-1.50C21.22-1.30 21.82-2.12 21.82-2.92C21.82-3.68 21.34-4.17 20.45-4.41ZM9.52 2.86C7.46 2.86 5.82 2.25 4.72 1.14C3.60 0.02 2.99-1.61 2.99-3.66L2.99-7.24L11.84-7.24C11.19-6.09 9.55-4.73 8.18-4.41C7.29-4.16 6.81-3.68 6.81-2.92C6.81-2.12 7.42-1.30 8.50-1.50C10.27-1.80 12.30-3.47 13.14-5.71L13.22-5.71L13.22 2.86Z" fill="currentColor"/>
</svg>