<svg xmlns="http://www.w3.org/2000/svg" viewBox="0 0 24 24" width="24" height="24">
  <title>apple.homekit</title>
  <path transform="matrix(0.6571685277884739, 0, 0, 0.6571685277884739, 0.0361956103195995, 17.50106118448587)" d="M6.66 1.64C6.66 3.66 7.92 4.89 10.07 4.89L26.33 4.89C28.49 4.89 29.74 3.66 29.74 1.64L29.74-9.06L30.89-8.10C31.21-7.83 31.57-7.66 32.05-7.66C32.82-7.66 33.42-8.20 33.42-9.01C33.42-9.50 33.19-9.88 32.79-10.22L29.74-12.77L29.74-18.56C29.74-19.14 29.38-19.50 28.82-19.50L26.18-19.50C25.62-19.50 25.24-19.14 25.24-18.56L25.24-16.56L20.04-20.93C18.94-21.86 17.47-21.87 16.37-20.93L3.62-10.22C3.21-9.88 2.99-9.50 2.99-9.01C2.99-8.20 3.57-7.66 4.35-7.66C4.84-7.66 5.19-7.83 5.52-8.10L6.66-9.06ZM10.97 2.05C9.96 2.05 9.53 1.63 9.53 0.64L9.53-11.45L17.74-18.34C18.04-18.57 18.38-18.57 18.66-18.34L26.88-11.45L26.88 0.64C26.88 1.63 26.45 2.05 25.43 2.05ZM10.68-1.02C10.68 0.32 11.31 0.90 12.76 0.90L23.65 0.90C25.10 0.90 25.73 0.32 25.73-1.02L25.73-10.88L19.18-16.38C18.56-16.90 17.84-16.90 17.23-16.38L10.68-10.88ZM13.55-2.84L13.55-9.52L17.75-13.05C18-13.27 18.39-13.28 18.66-13.05L22.86-9.52L22.86-2.84C22.86-2.24 22.56-1.93 21.97-1.93L14.44-1.93C13.85-1.93 13.55-2.24 13.55-2.84ZM14.70-4.55C14.70-3.57 15.20-3.08 16.22-3.08L20.18-3.08C21.21-3.08 21.71-3.57 21.71-4.55L21.71-8.96L19.11-11.17C18.52-11.67 17.91-11.68 17.30-11.17L14.70-8.96ZM17.52-6.09L17.52-7.66L18-8.06C18.12-8.16 18.29-8.16 18.41-8.06L18.89-7.66L18.89-6.09C18.89-5.93 18.81-5.86 18.66-5.86L17.75-5.86C17.59-5.86 17.52-5.93 17.52-6.09Z" fill="currentColor"/>
</svg>