<svg xmlns="http://www.w3.org/2000/svg" viewBox="0 0 24 24" width="24" height="24">
  
  <path transform="matrix(0.8181527644614893, 0, 0, 0.8181527644614893, -0.44487056567593486, 18.91275167785235)" d="M10.01 3.76L20.41 3.76C22.97 3.76 24.61 3.39 25.84 2.14C27.07 0.91 27.43-0.68 27.43-3.26L27.43-13.64C27.43-16.21 27.07-17.82 25.84-19.04C24.60-20.27 22.97-20.66 20.41-20.66L10.00-20.66C7.45-20.66 5.82-20.27 4.58-19.04C3.35-17.81 2.99-16.21 2.99-13.64L2.99-3.26C2.99-0.68 3.35 0.93 4.58 2.14C5.84 3.39 7.45 3.76 10.01 3.76ZM9.68 0.14C8.44 0.14 7.72-0.05 7.24-0.50C6.79-0.98 6.61-1.68 6.61-2.93L6.61-13.96C6.61-15.22 6.79-15.91 7.24-16.38C7.72-16.85 8.44-17.03 9.68-17.03L20.74-17.03C21.98-17.03 22.70-16.85 23.18-16.38C23.64-15.91 23.81-15.22 23.81-13.97L23.81-2.93C23.81-1.68 23.64-0.98 23.18-0.50C22.70-0.05 21.98 0.14 20.74 0.14ZM10.52-10.79C11.36-10.71 12.04-11.65 11.95-12.40C11.11-12.35 10.49-11.61 10.52-10.79ZM16.25-11.88L15.18-11.88L15.18-10.64L14.44-10.64L14.44-9.80L15.18-9.80L15.18-6.76C15.18-5.72 15.60-5.33 16.68-5.33C16.92-5.33 17.17-5.37 17.25-5.38L17.25-6.25C17.20-6.23 17.03-6.23 16.92-6.23C16.46-6.23 16.25-6.41 16.25-6.88L16.25-9.80L17.29-9.80L17.29-10.64L16.25-10.64ZM13.41-7.17C13.00-7.36 12.73-7.63 12.59-8.00C12.42-8.44 12.46-8.84 12.59-9.19C12.67-9.41 12.83-9.71 13.23-9.96C12.93-10.41 12.45-10.64 11.88-10.64C11.25-10.64 10.86-10.31 10.56-10.31C10.29-10.31 9.98-10.63 9.46-10.63C8.92-10.63 8.44-10.41 8.14-10.02C7.82-9.59 7.66-9.04 7.66-8.50C7.66-7.58 8.06-6.53 8.67-5.85C8.99-5.50 9.22-5.32 9.50-5.32C9.94-5.32 10.17-5.63 10.69-5.63C10.91-5.63 11.09-5.52 11.23-5.50C11.44-5.44 11.59-5.33 11.82-5.33C12.09-5.33 12.28-5.44 12.43-5.57C12.91-5.96 13.25-6.66 13.41-7.17ZM20.84-5.38L22.73-10.64L21.56-10.64L20.26-6.41L18.91-10.64L17.77-10.64L19.70-5.38Z" fill="currentColor"/>
</svg>