<svg xmlns="http://www.w3.org/2000/svg" viewBox="0 0 24 24" width="24" height="24">
  
  <path transform="matrix(0.7185964912280701, 0, 0, 0.7185964912280701, 4.745263157894737, 18.08421052631579)" d="M2.99 1.92C2.99 4.13 4.38 5.45 6.69 5.45L13.51 5.45C15.81 5.45 17.20 4.13 17.20 1.92L17.20-18.86C17.20-21.06 15.81-22.38 13.51-22.38L6.69-22.38C4.38-22.38 2.99-21.06 2.99-18.86ZM10.10-10.04C7.73-10.04 5.79-11.99 5.79-14.37C5.79-16.73 7.73-18.67 10.10-18.67C12.47-18.67 14.43-16.73 14.43-14.37C14.43-11.99 12.47-10.04 10.10-10.04ZM10.10-12.62C11.07-12.62 11.86-13.39 11.86-14.37C11.86-15.34 11.07-16.11 10.10-16.11C9.14-16.11 8.36-15.34 8.36-14.37C8.36-13.39 9.14-12.62 10.10-12.62ZM10.10-4.72C9.16-4.72 8.41-5.48 8.41-6.42C8.41-7.36 9.16-8.11 10.10-8.11C11.04-8.11 11.80-7.36 11.80-6.42C11.80-5.48 11.04-4.72 10.10-4.72Z" fill="currentColor"/>
</svg>