<svg xmlns="http://www.w3.org/2000/svg" viewBox="0 0 24 24" width="24" height="24">
  <title>apple.intelligence</title>
  <path transform="matrix(0.7126318552859745, 0, 0, 0.7126318552859745, 0.5102339516552268, 18.46796920217563)" d="M22.32 4.25C24.46 3.22 25.11 1.23 25.10-1.44C27.68-2.03 29.50-3.12 30.04-5.41C30.55-7.69 29.37-9.48 27.29-11.12C28.46-13.50 28.75-15.62 27.28-17.46C25.82-19.31 23.71-19.52 21.09-18.90C19.95-21.30 18.46-22.86 16.13-22.86C13.78-22.86 12.30-21.32 11.14-18.91C8.53-19.52 6.41-19.31 4.98-17.48C3.48-15.63 3.77-13.50 4.95-11.13C2.88-9.49 1.69-7.69 2.21-5.41C2.73-3.13 4.55-2.03 7.15-1.44C7.14 1.23 7.79 3.22 9.93 4.25C10.58 4.57 11.24 4.71 11.87 4.71C13.31 4.71 14.71 4.00 16.13 2.85C17.55 4.00 18.94 4.71 20.37 4.71C21.01 4.71 21.66 4.57 22.32 4.25ZM16.13-19.44C16.98-19.44 17.41-18.79 17.75-18.04C17.20-17.92 16.65-17.85 16.13-17.85C15.59-17.85 15.04-17.92 14.48-18.04C14.82-18.77 15.26-19.44 16.13-19.44ZM23.34-14.36C23.00-14.77 22.72-15.25 22.48-15.75C23.27-15.95 24.06-16.03 24.60-15.35C25.15-14.67 24.89-13.92 24.53-13.20C24.08-13.56 23.67-13.93 23.34-14.36ZM7.63-15.34C8.18-16.03 8.96-15.95 9.76-15.75C9.52-15.25 9.23-14.77 8.89-14.36C8.57-13.93 8.16-13.56 7.71-13.20C7.35-13.92 7.09-14.66 7.63-15.34ZM13.59-3.33C12.71-3.76 11.70-4.03 10.65-4.24C10.68-5.31 10.63-6.36 10.41-7.32C10.21-8.25 9.79-9.19 9.32-10.13C10.16-10.78 10.96-11.46 11.55-12.22C12.18-12.98 12.67-13.91 13.10-14.87C14.12-14.63 15.15-14.43 16.13-14.43C17.10-14.43 18.12-14.63 19.14-14.87C19.58-13.91 20.07-12.98 20.68-12.22C21.28-11.46 22.09-10.78 22.92-10.13C22.45-9.19 22.03-8.24 21.81-7.30C21.60-6.35 21.56-5.31 21.59-4.25C20.54-4.03 19.51-3.75 18.63-3.32C17.78-2.91 16.93-2.29 16.13-1.62C15.30-2.30 14.46-2.92 13.59-3.33ZM25.15-6.54C25.27-7.05 25.45-7.57 25.70-8.07C26.33-7.58 26.88-7.01 26.70-6.16C26.51-5.33 25.77-5.06 24.97-4.89C24.98-5.46 25.03-6.02 25.15-6.54ZM5.54-6.16C5.36-7.01 5.91-7.57 6.55-8.07C6.79-7.56 6.97-7.04 7.09-6.52C7.22-6 7.27-5.45 7.27-4.89C6.48-5.05 5.74-5.32 5.54-6.16ZM20.85 1.18C20.06 1.55 19.39 1.14 18.76 0.62C19.21 0.27 19.66-0.04 20.14-0.26C20.63-0.49 21.15-0.67 21.70-0.80C21.71 0.02 21.62 0.81 20.85 1.18ZM11.39 1.18C10.62 0.81 10.52 0.02 10.54-0.80C11.10-0.66 11.63-0.49 12.12-0.25C12.59-0.02 13.04 0.28 13.49 0.61C12.86 1.14 12.18 1.55 11.39 1.18Z" fill="currentColor"/>
</svg>