<svg xmlns="http://www.w3.org/2000/svg" viewBox="0 0 24 24" width="24" height="24">
  
  <path transform="matrix(0.7712004820003012, 0, 0, 0.7712004820003012, 0.3822864889290556, 18.52507907817442)" d="M14.14 4.13C21.68 4.13 28.03-1.90 28.03-9.90C28.03-16.17 23.18-21.05 16.75-21.05C9.42-21.05 2.10-14.89 2.10-7.15C2.10-0.54 7.08 4.13 14.14 4.13ZM20.66-9.50C21.71-8.65 22.27-7.77 22.02-6.67C21.74-5.52 20.82-4.99 19.56-4.69C19.56-3.28 19.18-2.36 18.18-1.85C17.86-1.70 17.53-1.64 17.19-1.64C16.50-1.64 15.83-1.97 15.08-2.54C14.36-1.98 13.68-1.64 12.98-1.64C12.67-1.64 12.32-1.70 12.01-1.85C10.98-2.36 10.62-3.29 10.61-4.69C9.33-4.99 8.43-5.53 8.17-6.67C7.91-7.78 8.47-8.67 9.53-9.52C8.94-10.72 8.82-11.77 9.55-12.68C10.23-13.56 11.27-13.70 12.60-13.38C13.20-14.61 13.95-15.33 15.09-15.33C16.22-15.33 16.98-14.60 17.58-13.38C18.89-13.69 19.95-13.57 20.63-12.67C21.34-11.78 21.25-10.77 20.66-9.50ZM15.08-13.59C14.68-13.59 14.48-13.32 14.30-12.95C14.57-12.90 14.82-12.87 15.09-12.87C15.35-12.87 15.60-12.90 15.86-12.95C15.68-13.32 15.48-13.59 15.08-13.59ZM19.27-11.58C19.01-11.89 18.66-11.88 18.26-11.79C18.39-11.55 18.53-11.33 18.70-11.12C18.86-10.92 19.04-10.75 19.24-10.57C19.42-10.95 19.50-11.29 19.27-11.58ZM10.90-11.57C10.64-11.27 10.73-10.92 10.91-10.54C11.12-10.71 11.32-10.91 11.48-11.11C11.64-11.32 11.78-11.55 11.91-11.79C11.52-11.88 11.14-11.89 10.90-11.57ZM16.11-5.85C16.41-6.23 16.75-6.60 17.07-6.88C17.20-7.14 17.38-7.35 17.60-7.57C17.47-8.05 17.40-8.53 17.39-8.96C17.27-9.22 17.21-9.49 17.18-9.79C16.73-10.00 16.30-10.24 15.95-10.51C15.68-10.58 15.43-10.70 15.19-10.85C14.74-10.64 14.29-10.45 13.86-10.34C13.64-10.17 13.38-10.07 13.09-9.96C13.00-9.49 12.86-9.01 12.68-8.60C12.67-8.32 12.60-8.05 12.50-7.77C12.81-7.39 13.09-7.00 13.31-6.60C13.51-6.43 13.69-6.21 13.84-5.95C14.34-5.96 14.85-5.93 15.28-5.84C15.56-5.89 15.82-5.87 16.11-5.85ZM9.87-7.04C9.95-6.67 10.28-6.53 10.66-6.43C10.66-6.70 10.63-6.97 10.58-7.22C10.52-7.48 10.43-7.72 10.32-7.98C10.01-7.71 9.79-7.44 9.87-7.04ZM20.29-7.04C20.37-7.43 20.16-7.70 19.83-7.97C19.72-7.72 19.63-7.48 19.58-7.23C19.52-6.98 19.49-6.70 19.49-6.43C19.89-6.54 20.21-6.67 20.29-7.04ZM17.41-3.41C17.75-3.60 17.82-3.95 17.82-4.36C17.57-4.30 17.32-4.21 17.09-4.08C16.85-3.97 16.63-3.83 16.42-3.68C16.75-3.43 17.05-3.27 17.41-3.41ZM12.74-3.42C13.09-3.26 13.42-3.43 13.73-3.69C13.52-3.83 13.31-3.97 13.09-4.07C12.84-4.21 12.59-4.29 12.32-4.36C12.33-3.94 12.39-3.60 12.74-3.42Z" fill="currentColor"/>
</svg>