<svg xmlns="http://www.w3.org/2000/svg" viewBox="0 0 24 24" width="24" height="24">
  
  <path transform="matrix(0.6719160104986877, 0, 0, 0.6719160104986877, 0.2755905511811019, 17.68503937007874)" d="M17.47-20.71C18.23-20.71 18.80-21.27 18.80-22.02C18.80-22.76 18.20-23.34 17.47-23.34C16.76-23.34 16.16-22.73 16.16-22.02C16.16-21.29 16.75-20.71 17.47-20.71ZM11.64-17.33C12.39-17.33 12.95-17.91 12.95-18.66C12.95-19.38 12.36-19.98 11.64-19.98C10.92-19.98 10.31-19.37 10.31-18.66C10.31-17.93 10.91-17.33 11.64-17.33ZM23.31-17.33C24.07-17.33 24.63-17.91 24.63-18.66C24.63-19.38 24.05-19.98 23.31-19.98C22.61-19.98 22.00-19.37 22.00-18.66C22.00-17.92 22.57-17.33 23.31-17.33ZM5.80-13.92C6.55-13.92 7.11-14.48 7.11-15.25C7.11-15.97 6.53-16.56 5.80-16.56C5.09-16.56 4.49-15.96 4.49-15.25C4.49-14.51 5.06-13.92 5.80-13.92ZM17.47-13.92C18.23-13.92 18.80-14.48 18.80-15.25C18.80-15.97 18.20-16.56 17.47-16.56C16.76-16.56 16.16-15.96 16.16-15.25C16.16-14.52 16.75-13.92 17.47-13.92ZM29.11-13.92C29.85-13.92 30.41-14.48 30.41-15.25C30.41-15.97 29.84-16.56 29.11-16.56C28.39-16.56 27.79-15.96 27.79-15.25C27.79-14.51 28.37-13.92 29.11-13.92ZM11.64-10.55C12.39-10.55 12.95-11.11 12.95-11.86C12.95-12.59 12.36-13.18 11.64-13.18C10.92-13.18 10.31-12.57 10.31-11.86C10.31-11.13 10.91-10.55 11.64-10.55ZM23.31-10.55C24.07-10.55 24.63-11.11 24.63-11.86C24.63-12.59 24.05-13.18 23.31-13.18C22.61-13.18 22.00-12.57 22.00-11.86C22.00-11.12 22.57-10.55 23.31-10.55ZM5.80-7.15C6.55-7.15 7.11-7.71 7.11-8.46C7.11-9.19 6.53-9.79 5.80-9.79C5.09-9.79 4.49-9.18 4.49-8.46C4.49-7.72 5.06-7.15 5.80-7.15ZM17.47-7.15C18.23-7.15 18.80-7.71 18.80-8.46C18.80-9.19 18.20-9.79 17.47-9.79C16.76-9.79 16.16-9.18 16.16-8.46C16.16-7.73 16.75-7.15 17.47-7.15ZM29.11-7.15C29.85-7.15 30.41-7.71 30.41-8.46C30.41-9.19 29.84-9.79 29.11-9.79C28.39-9.79 27.79-9.18 27.79-8.46C27.79-7.72 28.37-7.15 29.11-7.15ZM11.64-3.75C12.39-3.75 12.95-4.31 12.95-5.06C12.95-5.80 12.38-6.39 11.64-6.39C10.92-6.39 10.31-5.78 10.31-5.06C10.31-4.34 10.91-3.75 11.64-3.75ZM23.31-3.75C24.07-3.75 24.63-4.31 24.63-5.06C24.63-5.80 24.06-6.39 23.31-6.39C22.59-6.39 22.00-5.79 22.00-5.06C22.00-4.32 22.57-3.75 23.31-3.75ZM5.80-0.36C6.55-0.36 7.11-0.93 7.11-1.69C7.11-2.43 6.54-3 5.80-3C5.09-3 4.49-2.40 4.49-1.69C4.49-0.94 5.06-0.36 5.80-0.36ZM17.47-0.36C18.23-0.36 18.80-0.93 18.80-1.69C18.80-2.43 18.21-3 17.47-3C16.76-3 16.16-2.39 16.16-1.69C16.16-0.95 16.75-0.36 17.47-0.36ZM29.11-0.36C29.85-0.36 30.41-0.93 30.41-1.69C30.41-2.43 29.84-3 29.11-3C28.38-3 27.79-2.40 27.79-1.69C27.79-0.94 28.37-0.36 29.11-0.36ZM11.64 3.05C12.39 3.05 12.95 2.48 12.95 1.73C12.95 1.00 12.38 0.41 11.64 0.41C10.92 0.41 10.31 1.02 10.31 1.73C10.31 2.46 10.91 3.05 11.64 3.05ZM23.31 3.05C24.07 3.05 24.63 2.48 24.63 1.73C24.63 1.00 24.06 0.41 23.31 0.41C22.59 0.41 22.00 1.01 22.00 1.73C22.00 2.47 22.57 3.05 23.31 3.05ZM17.47 6.42C18.22 6.42 18.80 5.85 18.80 5.10C18.80 4.36 18.21 3.79 17.47 3.79C16.76 3.79 16.16 4.38 16.16 5.10C16.16 5.82 16.75 6.42 17.47 6.42Z" fill="currentColor"/>
</svg>