<svg xmlns="http://www.w3.org/2000/svg" viewBox="0 0 24 24" width="24" height="24">
  <title>arcade.stick.and.arrow.right</title>
  <path transform="matrix(0.7436456063907044, 0, 0, 0.7436456063907044, -0.009803921568628304, 18.296296296296298)" d="M10.88-0.68C11.96-0.68 12.74-1.18 12.74-1.93L12.74-11.80C14.71-12.55 16.10-14.46 16.10-16.69C16.10-19.57 13.75-21.91 10.88-21.91C7.99-21.91 5.65-19.55 5.65-16.69C5.65-14.43 7.05-12.53 9.04-11.79L9.04-1.93C9.04-1.18 9.80-0.68 10.88-0.68ZM17.51-11.07C17.51-10.21 18.19-9.53 19.05-9.53L22.79-9.53L22.79-7.63C22.79-6.49 23.94-6.04 24.81-6.76L28.90-10.22C29.45-10.68 29.45-11.44 28.90-11.91L24.81-15.36C23.93-16.10 22.79-15.66 22.79-14.47L22.79-12.61L19.05-12.61C18.19-12.61 17.51-11.93 17.51-11.07ZM10.93 4.98C15.39 4.98 18.87 2.03 18.87-1.85C18.87-4.69 16.98-7.05 14.20-8.10L14.20-5.13C15.42-4.39 16.18-3.22 16.18-1.85C16.18 0.53 13.97 2.31 10.93 2.31C7.90 2.31 5.67 0.53 5.67-1.85C5.67-3.19 6.40-4.35 7.57-5.07L7.57-8.05C4.84-7.01 2.99-4.66 2.99-1.85C2.99 2.03 6.47 4.98 10.93 4.98Z" fill="currentColor"/>
</svg>