<svg xmlns="http://www.w3.org/2000/svg" viewBox="0 0 24 24" width="24" height="24">
  
  <path transform="matrix(0.800875958079149, 0, 0, 0.800875958079149, -0.3932426091037069, 18.489910839981228)" d="M15.47 3.52C15.95 3.52 16.65 3.09 17.33 2.64C23.71-1.58 27.96-6.63 27.96-11.68C27.96-16.52 24.57-19.72 20.65-19.72C18.20-19.72 16.49-18.38 15.47-16.46C14.46-18.38 12.75-19.72 10.29-19.72C6.38-19.72 2.99-16.52 2.99-11.68C2.99-6.63 7.24-1.58 13.61 2.64C14.30 3.09 15 3.52 15.47 3.52ZM15.49-2.87C13.13-2.87 11.19-4.80 11.19-7.21C11.19-9.26 12.62-10.96 14.52-11.40L14.52-12.26C14.52-12.88 15.16-13.13 15.68-12.73L17.72-11.05C18.14-10.69 18.15-10.13 17.72-9.76L15.68-8.05C15.18-7.64 14.52-7.89 14.52-8.52L14.52-9.40C13.68-9.05 13.09-8.19 13.09-7.21C13.09-5.86 14.14-4.78 15.49-4.78C16.83-4.78 17.89-5.85 17.89-7.20C17.89-7.71 18.32-8.13 18.84-8.13C19.37-8.13 19.79-7.71 19.79-7.20C19.79-4.80 17.86-2.87 15.49-2.87Z" fill="currentColor"/>
</svg>