<svg xmlns="http://www.w3.org/2000/svg" viewBox="0 0 24 24" width="24" height="24">
  
  <path transform="matrix(0.7934294126762746, 0, 0, 0.7934294126762746, 0.33565783356578316, 18.713156671315666)" d="M14.70 4.14C21.66 4.14 27.30-1.50 27.30-8.46C27.30-15.42 21.66-21.06 14.70-21.06C7.75-21.06 2.10-15.42 2.10-8.46C2.10-1.50 7.75 4.14 14.70 4.14ZM9.06-12.64L12.06-15.56C12.23-15.73 12.49-15.84 12.75-15.84C13.32-15.84 13.73-15.45 13.73-14.87C13.73-14.60 13.64-14.37 13.44-14.19L12.23-13.03L12.11-12.90L12.77-12.91L19.66-12.91C20.23-12.91 20.66-12.47 20.66-11.91C20.66-11.34 20.23-10.92 19.66-10.92L12.77-10.92L12.09-10.93L12.23-10.80L13.44-9.64C13.64-9.47 13.73-9.22 13.73-8.95C13.73-8.38 13.32-7.98 12.75-7.98C12.49-7.98 12.25-8.10 12.06-8.29L9.06-11.19C8.65-11.59 8.64-12.23 9.06-12.64ZM20.32-4.25L17.33-1.35C17.14-1.16 16.89-1.04 16.63-1.04C16.07-1.04 15.66-1.45 15.66-2.02C15.66-2.29 15.75-2.52 15.94-2.71L17.14-3.87L17.29-3.98L9.71-3.98C9.16-3.98 8.73-4.42 8.73-4.98C8.73-5.55 9.16-5.96 9.71-5.96L17.29-5.96L17.14-6.09L15.94-7.24C15.74-7.43 15.66-7.68 15.66-7.95C15.66-8.51 16.05-8.92 16.63-8.92C16.89-8.92 17.14-8.79 17.33-8.61L20.32-5.71C20.74-5.30 20.77-4.65 20.32-4.25Z" fill="currentColor"/>
</svg>