<svg xmlns="http://www.w3.org/2000/svg" viewBox="0 0 24 24" width="24" height="24">
  <title>arrow.up.and.person.rectangle.portrait</title>
  <path transform="matrix(0.5997180930178833, 0, 0, 0.5997180930178833, 0.20633820568215855, 17.067149356240943)" d="M15 0.23C15 3.04 16.58 4.62 19.36 4.62L31.97 4.62C34.76 4.62 36.34 3.04 36.34 0.23L36.34-17.14C36.34-19.93 34.76-21.52 31.97-21.52L19.36-21.52C16.58-21.52 15-19.93 15-17.14ZM18.62-0.25L18.62-16.65C18.62-17.47 19.00-17.89 19.88-17.89L31.46-17.89C32.34-17.89 32.72-17.47 32.72-16.65L32.72-0.25C32.72 0.57 32.34 1.00 31.46 1.00L19.88 1.00C19.00 1.00 18.62 0.57 18.62-0.25ZM25.68-8.99C27.26-8.99 28.54-10.32 28.54-12.12C28.54-13.79 27.26-15.16 25.68-15.16C24.09-15.16 22.82-13.79 22.82-12.12C22.82-10.32 24.09-9 25.68-8.99ZM4.23-7.88L6.25-7.88L6.25-3.97C6.25-3.13 6.94-2.52 7.82-2.52C8.68-2.52 9.38-3.13 9.38-3.97L9.38-7.88L11.34-7.88C12.55-7.88 13.03-9.05 12.26-9.91L8.66-14.02C8.17-14.57 7.43-14.57 6.94-14.02L3.35-9.91C2.60-9.06 3.08-7.88 4.23-7.88ZM21.02-2.85L30.33-2.85C30.97-2.85 31.30-3.33 31.30-3.89C31.30-5.12 29.60-8.18 25.68-8.18C21.75-8.18 20.05-5.12 20.05-3.89C20.05-3.33 20.38-2.85 21.02-2.85Z" fill="currentColor"/>
</svg>