<svg xmlns="http://www.w3.org/2000/svg" viewBox="0 0 24 24" width="24" height="24">
  <title>arrow.down.square</title>
  <path transform="matrix(0.8752136752136752, 0, 0, 0.8752136752136752, -0.6153846153846154, 19.405128205128204)" d="M7.37 2.96L21.46 2.96C24.25 2.96 25.84 1.38 25.84-1.41L25.84-15.52C25.84-18.30 24.25-19.89 21.46-19.89L7.37-19.89C4.58-19.89 2.99-18.30 2.99-15.52L2.99-1.41C2.99 1.38 4.58 2.96 7.37 2.96ZM7.86-0.66C7.03-0.66 6.61-1.03 6.61-1.91L6.61-15C6.61-15.88 7.03-16.25 7.86-16.25L20.96-16.25C21.79-16.25 22.21-15.88 22.21-15L22.21-1.91C22.21-1.03 21.79-0.66 20.96-0.66ZM14.43-2.24C14.86-2.24 15.30-2.39 15.74-2.79L19.63-6.54C19.90-6.81 20.05-7.09 20.05-7.50C20.05-8.27 19.37-8.81 18.68-8.81C18.27-8.81 17.92-8.64 17.65-8.37L16.39-7.03L15.94-6.27L16.04-7.84L16.04-13.10C16.04-13.96 15.33-14.68 14.43-14.68C13.52-14.68 12.81-13.96 12.81-13.10L12.81-7.84L12.91-6.27L12.45-7.03L11.20-8.37C10.93-8.64 10.57-8.81 10.16-8.81C9.47-8.81 8.79-8.27 8.79-7.50C8.79-7.09 8.95-6.81 9.21-6.54L13.11-2.79C13.55-2.39 13.98-2.24 14.43-2.24Z" fill="currentColor"/>
</svg>