<svg xmlns="http://www.w3.org/2000/svg" viewBox="0 0 24 24" width="24" height="24">
  
  <path transform="matrix(0.8276753960556095, 0, 0, 0.8276753960556095, 2.9796314258001937, 19.00290979631426)" d="M10.90 3.62C11.40 3.62 11.94 3.42 12.28 3.07L18.23-2.92C18.61-3.29 18.81-3.77 18.81-4.27C18.81-5.36 18.04-6.08 17.03-6.08C16.44-6.08 16.02-5.82 15.68-5.47L13.84-3.59L12.71-2.19L12.79-4.55L12.79-12.38L12.71-14.73L13.84-13.34L15.68-11.45C16.02-11.10 16.44-10.84 17.03-10.84C18.04-10.84 18.81-11.57 18.81-12.66C18.81-13.15 18.61-13.63 18.23-14.00L12.28-19.99C11.94-20.34 11.40-20.54 10.90-20.54C10.38-20.54 9.84-20.34 9.50-19.99L3.57-14.00C3.20-13.63 2.99-13.15 2.99-12.66C2.99-11.57 3.76-10.84 4.78-10.84C5.37-10.84 5.78-11.10 6.12-11.45L7.96-13.34L9.07-14.73L9.01-12.38L9.01-4.55L9.07-2.19L7.96-3.59L6.12-5.47C5.78-5.82 5.37-6.08 4.78-6.08C3.76-6.08 2.99-5.36 2.99-4.27C2.99-3.77 3.20-3.29 3.57-2.92L9.50 3.07C9.84 3.42 10.38 3.62 10.90 3.62Z" fill="currentColor"/>
</svg>