<svg xmlns="http://www.w3.org/2000/svg" viewBox="0 0 24 24" width="24" height="24">
  
  <path transform="matrix(1.001564945226917, 0, 0, 1.001564945226917, -0.3943661971830985, 20.456572769953052)" d="M20.13-18.25C19.56-18.25 19.07-18.05 18.32-17.67L4.20-10.82C3.02-10.24 2.39-9.48 2.39-8.45C2.39-7.42 3.02-6.66 4.20-6.08L18.32 0.77C19.07 1.15 19.56 1.36 20.14 1.36C21.32 1.36 22.36 0.46 22.36-1.10L22.36-15.80C22.36-17.34 21.32-18.25 20.13-18.25ZM18.57-13.57C18.63-13.57 18.67-13.54 18.67-13.45L18.68-3.43C18.68-3.35 18.64-3.30 18.57-3.30C18.55-3.30 18.52-3.33 18.46-3.35L7.64-8.34C7.59-8.37 7.56-8.40 7.56-8.45C7.56-8.50 7.59-8.53 7.64-8.55L18.46-13.54C18.50-13.56 18.54-13.57 18.57-13.57Z" fill="currentColor"/>
</svg>