<svg xmlns="http://www.w3.org/2000/svg" viewBox="0 0 24 24" width="24" height="24">
  
  <path transform="matrix(0.7934294126762746, 0, 0, 0.7934294126762746, 0.33565783356578316, 18.713156671315666)" d="M14.70 4.14C21.66 4.14 27.30-1.50 27.30-8.46C27.30-15.42 21.66-21.06 14.70-21.06C7.75-21.06 2.10-15.42 2.10-8.46C2.10-1.50 7.75 4.14 14.70 4.14ZM19.82-8.12C19.17-8.12 18.64-8.64 18.64-9.29L18.64-9.74L18.86-10.89L17.03-8.87C16.52-8.30 15.62-8.33 15.08-8.86C14.54-9.41 14.51-10.30 15.08-10.80L17.10-12.62L15.94-12.42L15.53-12.42C14.88-12.42 14.34-12.94 14.34-13.59C14.34-14.25 14.88-14.78 15.53-14.78L19.39-14.78C20.45-14.78 21.01-14.20 21.01-13.18L21.01-9.29C21.01-8.64 20.47-8.12 19.82-8.12ZM13.82-2.12L9.94-2.12C8.88-2.12 8.33-2.68 8.33-3.71L8.33-7.59C8.33-8.25 8.86-8.78 9.52-8.78C10.16-8.78 10.69-8.25 10.69-7.59L10.69-7.16L10.49-6.01L12.32-8.03C12.81-8.60 13.71-8.57 14.26-8.03C14.79-7.49 14.82-6.60 14.25-6.08L12.25-4.28L13.39-4.48L13.82-4.48C14.46-4.48 14.99-3.96 14.99-3.30C14.99-2.65 14.46-2.12 13.82-2.12Z" fill="currentColor"/>
</svg>