<svg xmlns="http://www.w3.org/2000/svg" viewBox="0 0 24 24" width="24" height="24">
  <title>arrow.up.left.arrow.down.right.square.fill</title>
  <path transform="matrix(0.8752136752136752, 0, 0, 0.8752136752136752, -0.6153846153846154, 19.405128205128204)" d="M7.37 2.96L21.46 2.96C24.25 2.96 25.84 1.38 25.84-1.41L25.84-15.52C25.84-18.30 24.25-19.89 21.46-19.89L7.37-19.89C4.58-19.89 2.99-18.30 2.99-15.52L2.99-1.41C2.99 1.38 4.58 2.96 7.37 2.96ZM12.75-15.12C13.15-15.52 13.77-15.50 14.14-15.13L19.21-10.07L19.50-9.77L19.49-10.07L19.45-11.64C19.45-11.89 19.55-12.13 19.75-12.32C20.16-12.73 20.72-12.73 21.12-12.33C21.30-12.14 21.41-11.86 21.42-11.61L21.48-7.44C21.48-6.86 21.02-6.40 20.45-6.40L16.27-6.47C16.01-6.47 15.75-6.57 15.56-6.75C15.15-7.15 15.16-7.73 15.56-8.14C15.74-8.31 15.98-8.43 16.24-8.43L17.82-8.39L18.09-8.38L17.80-8.67L12.75-13.72C12.36-14.11 12.34-14.71 12.75-15.12ZM16.28-1.78C15.88-1.39 15.26-1.41 14.88-1.78L9.82-6.83L9.54-7.13L9.55-6.84L9.57-5.27C9.59-5.02 9.48-4.78 9.28-4.59C8.88-4.18 8.31-4.18 7.92-4.58C7.73-4.77 7.63-5.05 7.62-5.30L7.56-9.46C7.56-10.05 8.02-10.51 8.59-10.51L12.79-10.44C13.03-10.44 13.29-10.32 13.48-10.16C13.89-9.76 13.88-9.18 13.46-8.78C13.30-8.60 13.05-8.50 12.80-8.50L11.20-8.52L10.92-8.53L11.23-8.24L16.28-3.19C16.66-2.80 16.68-2.19 16.28-1.78Z" fill="currentColor"/>
</svg>