<svg xmlns="http://www.w3.org/2000/svg" viewBox="0 0 24 24" width="24" height="24">
  <title>arrow.left.and.right.circle</title>
  <path transform="matrix(0.7934294126762746, 0, 0, 0.7934294126762746, 0.33565783356578316, 18.713156671315666)" d="M14.70 4.14C21.66 4.14 27.30-1.50 27.30-8.46C27.30-15.42 21.66-21.06 14.70-21.06C7.73-21.06 2.10-15.42 2.10-8.46C2.10-1.50 7.73 4.14 14.70 4.14ZM14.70 0.48C9.75 0.48 5.75-3.52 5.75-8.46C5.75-13.41 9.75-17.40 14.70-17.40C19.64-17.40 23.64-13.41 23.64-8.46C23.64-3.52 19.64 0.48 14.70 0.48ZM7.79-8.46C7.79-8.00 7.97-7.65 8.27-7.36L11.16-4.61C11.43-4.34 11.72-4.25 12.01-4.25C12.64-4.25 13.07-4.71 13.07-5.38C13.07-5.74 12.89-6.09 12.60-6.26L12.33-6.52L11.32-7.22L13.35-7.14L16.04-7.14L18.07-7.22L17.06-6.52L16.79-6.26C16.50-6.09 16.32-5.74 16.32-5.38C16.32-4.71 16.75-4.25 17.38-4.25C17.67-4.25 17.96-4.34 18.23-4.61L21.12-7.36C21.42-7.65 21.60-8.00 21.60-8.46C21.60-8.91 21.42-9.26 21.12-9.55L18.23-12.30C17.96-12.56 17.67-12.66 17.38-12.66C16.75-12.66 16.32-12.20 16.32-11.53C16.32-11.17 16.50-10.82 16.79-10.65L17.06-10.39L18.07-9.69L16.04-9.77L13.35-9.77L11.32-9.69L12.33-10.39L12.60-10.65C12.89-10.82 13.07-11.17 13.07-11.53C13.07-12.20 12.64-12.66 12.01-12.66C11.72-12.66 11.43-12.56 11.16-12.30L8.27-9.55C7.97-9.26 7.79-8.91 7.79-8.46Z" fill="currentColor"/>
</svg>