<svg xmlns="http://www.w3.org/2000/svg" viewBox="0 0 24 24" width="24" height="24">
  <title>arrowshape.down.circle.fill</title>
  <path transform="matrix(0.7934294126762746, 0, 0, 0.7934294126762746, 0.33565783356578316, 18.70385867038587)" d="M14.70 4.15C21.66 4.15 27.30-1.49 27.30-8.45C27.30-15.41 21.66-21.05 14.70-21.05C7.75-21.05 2.10-15.41 2.10-8.45C2.10-1.49 7.75 4.15 14.70 4.15ZM14.70-1.41C14.40-1.41 14.04-1.54 13.79-1.80L9.14-6.84C8.75-7.24 8.59-7.58 8.59-8.00C8.59-8.67 9.09-9.19 9.76-9.19L11.68-9.19L11.68-13.63C11.68-14.79 12.34-15.46 13.50-15.46L15.90-15.46C17.04-15.46 17.73-14.79 17.73-13.63L17.73-9.19L19.62-9.19C20.29-9.19 20.81-8.67 20.81-7.99C20.81-7.59 20.65-7.29 20.25-6.84L15.61-1.80C15.35-1.52 15.02-1.41 14.70-1.41Z" fill="currentColor"/>
</svg>