<svg xmlns="http://www.w3.org/2000/svg" viewBox="0 0 24 24" width="24" height="24">
  
  <path transform="matrix(0.7544945475979958, 0, 0, 0.7544945475979958, 2.4420866489832016, 18.374889478337753)" d="M4.92-6.22C5.54-6.22 6.01-6.50 6.39-6.89L9-9.52L10.75-11.59L10.63-9.06L10.63 2.66C10.63 3.95 11.45 4.80 12.68 4.80C13.90 4.80 14.72 3.95 14.72 2.66L14.72-9.06L14.60-11.59L16.35-9.52L18.96-6.89C19.34-6.50 19.79-6.22 20.43-6.22C21.52-6.22 22.35-7.02 22.35-8.19C22.35-8.72 22.14-9.23 21.71-9.64L14.18-17.20C13.83-17.55 13.28-17.78 12.75-17.80L20.41-17.80C21.50-17.80 22.35-18.67 22.35-19.75C22.35-20.82 21.50-21.70 20.41-21.70L4.93-21.70C3.84-21.70 2.99-20.82 2.99-19.75C2.99-18.67 3.84-17.80 4.93-17.80L12.60-17.80C12.07-17.78 11.52-17.55 11.18-17.20L3.62-9.64C3.21-9.23 2.99-8.72 2.99-8.19C2.99-7.02 3.82-6.22 4.92-6.22Z" fill="currentColor"/>
</svg>