<svg xmlns="http://www.w3.org/2000/svg" viewBox="0 0 24 24" width="24" height="24">
  <title>arrow.trianglehead.2.clockwise.rotate.90.camera</title>
  <path transform="matrix(0.6767116045466561, 0, 0, 0.6767116045466561, -0.022204599524187074, 17.951625693893735)" d="M7.37 2.98L28.16 2.98C30.96 2.98 32.54 1.39 32.54-1.39L32.54-13.77C32.54-16.56 30.96-18.14 28.16-18.14L25.41-18.14C24.50-18.14 24.15-18.23 23.47-18.84L22.57-19.69C21.89-20.32 21.22-20.57 20.07-20.57L15.45-20.57C14.30-20.57 13.63-20.32 12.94-19.69L12.05-18.84C11.37-18.23 11.02-18.14 10.11-18.14L7.37-18.14C4.58-18.14 2.99-16.56 2.99-13.77L2.99-1.39C2.99 1.39 4.58 2.98 7.37 2.98ZM7.86-0.64C7.04-0.64 6.61-1.02 6.61-1.90L6.61-13.25C6.61-14.13 7.04-14.51 7.86-14.51L11.41-14.51C12.46-14.51 12.93-14.67 13.54-15.29L14.34-16.14C14.96-16.77 15.36-16.93 16.36-16.93L19.16-16.93C20.14-16.93 20.54-16.76 21.13-16.16L21.98-15.29C22.58-14.67 23.05-14.51 24.11-14.51L27.68-14.51C28.50-14.51 28.92-14.13 28.92-13.25L28.92-1.90C28.92-1.02 28.50-0.64 27.68-0.64ZM17.78-14.23C16.61-14.23 15.52-13.89 14.60-13.30C13.23-12.46 14.44-10.43 15.77-11.30C16.34-11.68 17.04-11.89 17.78-11.89C19.36-11.89 20.71-10.89 21.21-9.48L20.50-9.48C19.84-9.48 19.59-8.80 20.02-8.26L21.82-5.89C22.20-5.40 22.84-5.40 23.21-5.89L25.01-8.26C25.42-8.81 25.17-9.48 24.50-9.48L23.64-9.48C23.06-12.19 20.66-14.23 17.78-14.23ZM11.04-7.01L11.91-7.01C12.48-4.30 14.88-2.26 17.78-2.26C18.94-2.26 20.03-2.60 20.94-3.19C22.31-4.03 21.11-6.06 19.77-5.19C19.21-4.80 18.52-4.59 17.78-4.59C16.18-4.59 14.84-5.60 14.33-7.01L15.05-7.01C15.71-7.01 15.95-7.69 15.53-8.23L13.72-10.59C13.35-11.09 12.70-11.09 12.33-10.59L10.55-8.23C10.13-7.68 10.37-7.01 11.04-7.01Z" fill="currentColor"/>
</svg>