<svg xmlns="http://www.w3.org/2000/svg" viewBox="0 0 24 24" width="24" height="24">
  <title>arrow.counterclockwise.square.fill</title>
  <path transform="matrix(0.8752136752136752, 0, 0, 0.8752136752136752, -0.6153846153846154, 19.405128205128204)" d="M7.37 2.96L21.46 2.96C24.25 2.96 25.84 1.38 25.84-1.41L25.84-15.52C25.84-18.30 24.25-19.89 21.46-19.89L7.37-19.89C4.58-19.89 2.99-18.30 2.99-15.52L2.99-1.41C2.99 1.38 4.58 2.96 7.37 2.96ZM14.52-2.44C11.53-2.44 9.08-4.89 9.08-7.90C9.08-8.55 9.62-9.09 10.28-9.09C10.96-9.09 11.50-8.55 11.50-7.90C11.50-6.20 12.84-4.85 14.52-4.85C16.22-4.85 17.55-6.22 17.55-7.90C17.55-9.41 16.63-10.51 15.25-10.73C15.18-10.73 15.11-10.73 15.05-10.75L15.43-10.35C15.60-10.15 15.69-9.96 15.69-9.67C15.69-9.15 15.29-8.65 14.58-8.65C14.24-8.65 13.92-8.82 13.73-9.04L11.73-11.18C11.51-11.40 11.40-11.68 11.40-11.96C11.40-12.26 11.51-12.54 11.73-12.76L13.73-14.89C13.92-15.11 14.24-15.29 14.58-15.29C15.29-15.29 15.69-14.78 15.69-14.29C15.69-13.93 15.54-13.73 15.34-13.48L15.08-13.21C15.20-13.21 15.33-13.20 15.45-13.17C18.20-12.82 19.96-10.43 19.96-7.91C19.96-4.89 17.52-2.44 14.52-2.44Z" fill="currentColor"/>
</svg>