<svg xmlns="http://www.w3.org/2000/svg" viewBox="0 0 24 24" width="24" height="24">
  
  <path transform="matrix(0.8819982773471146, 0, 0, 0.8819982773471146, -0.625322997416021, 19.478036175710596)" d="M9.52 2.86L19.11 2.86C21.16 2.86 22.80 2.24 23.91 1.14C25.03 0.02 25.64-1.61 25.64-3.66L25.64-13.29C25.64-15.34 25.03-16.97 23.91-18.08C22.79-19.20 21.16-19.82 19.11-19.82L9.52-19.82C7.46-19.82 5.82-19.20 4.72-18.08C3.60-16.98 2.99-15.34 2.99-13.29L2.99-3.66C2.99-1.61 3.60 0.02 4.72 1.14C5.82 2.25 7.46 2.86 9.52 2.86ZM9.81-0.76C8.64-0.76 7.84-0.97 7.34-1.48C6.82-1.98 6.61-2.78 6.61-3.95L6.61-13.00C6.61-14.18 6.82-14.96 7.34-15.47C7.83-15.97 8.64-16.20 9.81-16.20L18.82-16.20C19.98-16.20 20.79-15.97 21.29-15.47C21.81-14.96 22.02-14.18 22.02-13.00L22.02-3.95C22.02-2.78 21.81-1.98 21.29-1.48C20.80-0.98 19.98-0.76 18.82-0.76ZM14.32-2.25C14.77-2.25 15.21-2.39 15.63-2.80L19.54-6.55C19.80-6.82 19.96-7.10 19.96-7.51C19.96-8.29 19.28-8.82 18.59-8.82C18.18-8.82 17.81-8.65 17.54-8.37L16.30-7.04L15.84-6.28L15.95-7.85L15.95-13.11C15.95-13.96 15.23-14.70 14.32-14.70C13.43-14.70 12.70-13.96 12.70-13.11L12.70-7.85L12.81-6.28L12.35-7.04L11.11-8.37C10.83-8.65 10.48-8.82 10.07-8.82C9.36-8.82 8.70-8.29 8.70-7.51C8.70-7.10 8.85-6.82 9.12-6.55L13.02-2.80C13.44-2.39 13.89-2.25 14.32-2.25Z" fill="currentColor"/>
</svg>