<svg xmlns="http://www.w3.org/2000/svg" viewBox="0 0 24 24" width="24" height="24">
  
  <path transform="matrix(0.8865800865800866, 0, 0, 0.8865800865800866, -0.6493506493506493, 19.677922077922076)" d="M17.39 0.49L24.94-7.05C25.31-7.42 25.55-8.00 25.55-8.55C25.55-9.11 25.31-9.70 24.94-10.07L17.39-17.60C16.97-18.02 16.46-18.23 15.97-18.23C14.77-18.23 13.96-17.40 13.96-16.31C13.96-15.68 14.24-15.21 14.63-14.85L17.25-12.23L19.24-10.52L16.72-10.61L10.68-10.61C8.09-10.61 7.09-11.65 7.09-14.26C7.10-15.18 7.16-15.90 7.17-16.44C7.17-17.65 6.41-18.45 5.23-18.45C3.86-18.45 3.28-17.31 3.14-16.43C3.01-15.62 2.99-14.93 2.99-14.25C2.99-9.22 5.32-6.52 10.32-6.52L16.72-6.52L19.24-6.60L17.25-4.88L14.63-2.26C14.24-1.89 13.96-1.43 13.96-0.80C13.96 0.29 14.77 1.13 15.97 1.13C16.46 1.13 16.97 0.91 17.39 0.49Z" fill="currentColor"/>
</svg>