<svg xmlns="http://www.w3.org/2000/svg" viewBox="0 0 24 24" width="24" height="24">
  <title>arrow.down.heart</title>
  <path transform="matrix(0.800875958079149, 0, 0, 0.800875958079149, -0.3932426091037069, 18.489910839981228)" d="M2.99-11.68C2.99-6.63 7.24-1.58 13.61 2.64C14.30 3.09 15 3.52 15.47 3.52C15.95 3.52 16.65 3.09 17.33 2.64C23.71-1.58 27.96-6.63 27.96-11.68C27.96-16.52 24.57-19.72 20.61-19.72C18.20-19.72 16.49-18.71 15.47-17.29C14.46-18.70 12.75-19.72 10.34-19.72C6.38-19.72 2.99-16.52 2.99-11.68ZM6.88-11.73C6.88-14.24 8.64-15.98 10.95-15.98C12.77-15.98 13.73-14.99 14.44-14.04C14.78-13.56 15.07-13.32 15.47-13.32C15.88-13.32 16.15-13.56 16.50-14.04C17.25-14.99 18.18-15.98 20.00-15.98C22.31-15.98 24.06-14.24 24.06-11.73C24.06-8.26 20.66-4.07 15.63-0.73C15.56-0.68 15.52-0.64 15.47-0.64C15.43-0.64 15.39-0.68 15.32-0.73C10.29-4.07 6.88-8.26 6.88-11.73ZM15.47-3.32C15.94-3.32 16.30-3.52 16.64-3.83L19.43-6.34C19.75-6.62 19.86-6.89 19.86-7.28C19.86-7.95 19.34-8.45 18.63-8.45C18.30-8.45 17.93-8.25 17.74-7.99L17.37-7.58L16.79-6.95L16.91-8.47L16.91-10.91C16.91-11.72 16.27-12.23 15.47-12.23C14.68-12.23 14.04-11.72 14.04-10.91L14.04-8.47L14.16-6.94L13.59-7.58L13.21-7.99C13.01-8.25 12.66-8.45 12.32-8.45C11.61-8.45 11.09-7.95 11.09-7.28C11.09-6.89 11.20-6.62 11.52-6.34L14.31-3.83C14.65-3.52 15-3.32 15.47-3.32Z" fill="currentColor"/>
</svg>