<svg xmlns="http://www.w3.org/2000/svg" viewBox="0 0 24 24" width="24" height="24">
  <title>arrow.trianglehead.merge</title>
  <path transform="matrix(0.7659651583822936, 0, 0, 0.7659651583822936, 3.732961981991104, 18.499299862080925)" d="M4.58 4.57C4.99 4.57 5.43 4.44 5.82 4.18L6.39 3.82C7.77 2.92 9.54 1.18 10.79-0.86C12.06 1.18 13.82 2.91 15.19 3.81L15.75 4.18C16.16 4.43 16.58 4.56 17.00 4.56C18.04 4.56 18.60 3.84 18.60 2.99C18.60 2.45 18.30 1.92 17.78 1.58L16.92 1.04C15.11-0.12 12.40-3.18 12.40-5.75L12.40-14.47L14.46-14.47C15.54-14.47 15.88-15.43 15.16-16.39L11.82-20.96C11.26-21.74 10.32-21.73 9.77-20.96L6.42-16.41C5.71-15.43 6.01-14.47 7.13-14.47L9.18-14.47L9.18-5.75C9.18-3.16 6.48-0.11 4.66 1.05L3.81 1.59C3.28 1.93 2.99 2.46 2.99 3C2.99 3.86 3.55 4.57 4.58 4.57Z" fill="currentColor"/>
</svg>