<svg xmlns="http://www.w3.org/2000/svg" viewBox="0 0 24 24" width="24" height="24">
  <title>arrow.up.forward.bottomleading.rectangle</title>
  <path transform="matrix(0.7105190119344991, 0, 0, 0.7105190119344991, -0.1232306411323898, 18.003330557868445)" d="M7.37 2.98L26.75 2.98C29.55 2.98 31.14 1.39 31.14-1.39L31.14-15.50C31.14-18.29 29.55-19.88 26.75-19.88L7.37-19.88C4.58-19.88 2.99-18.29 2.99-15.50L2.99-1.39C2.99 1.39 4.58 2.98 7.37 2.98ZM7.86-0.64C7.03-0.64 6.61-1.02 6.61-1.91L6.61-14.99C6.61-15.88 7.03-16.24 7.86-16.24L26.27-16.24C27.09-16.24 27.52-15.88 27.52-14.99L27.52-1.91C27.52-1.02 27.09-0.64 26.27-0.64ZM8.60-4.48C8.34-4.21 8.19-3.86 8.19-3.53C8.19-2.75 8.78-2.24 9.50-2.24C9.87-2.24 10.18-2.37 10.49-2.66L13.24-5.40L14.21-6.53L14.20-6.32L14.20-4.17C14.20-3.52 14.66-3.04 15.32-3.04C15.96-3.04 16.41-3.49 16.41-4.16L16.41-8.78C16.41-9.75 15.75-10.39 14.79-10.39L10.17-10.39C9.52-10.39 9.06-9.95 9.06-9.30C9.06-8.65 9.52-8.20 10.18-8.19L12.35-8.19L12.49-8.20L11.39-7.25Z" fill="currentColor"/>
</svg>