<svg xmlns="http://www.w3.org/2000/svg" viewBox="0 0 24 24" width="24" height="24">
  <title>arrow.up.folder.fill</title>
  <path transform="matrix(0.7234703970609015, 0, 0, 0.7234703970609015, -0.16193302246714714, 18.29927935565918)" d="M7.37 2.82L26.37 2.82C29.05 2.82 30.63 1.24 30.63-1.54L30.63-13.64C30.63-16.43 29.04-18.01 26.25-18.01L16.46-18.01C15.50-18.01 14.91-18.22 14.09-18.84L13.56-19.25C12.57-19.99 11.94-20.24 10.50-20.24L7.25-20.24C4.64-20.24 2.99-18.62 2.99-15.83L2.99-1.54C2.99 1.24 4.58 2.82 7.37 2.82ZM16.82-13.91C17.26-13.91 17.71-13.76 18.14-13.35L22.08-9.56C22.35-9.29 22.50-9.01 22.50-8.59C22.50-7.80 21.82-7.27 21.12-7.27C20.71-7.27 20.34-7.44 20.07-7.72L18.81-9.07L18.30-10.02L18.46-8.26L18.46-2.93C18.46-2.07 17.74-1.34 16.82-1.34C15.91-1.34 15.19-2.07 15.19-2.93L15.19-8.26L15.34-10.02L14.84-9.07L13.57-7.72C13.29-7.44 12.93-7.27 12.52-7.27C11.81-7.27 11.14-7.80 11.14-8.59C11.14-9.01 11.30-9.29 11.57-9.56L15.50-13.35C15.94-13.76 16.37-13.91 16.82-13.91Z" fill="currentColor"/>
</svg>