<svg xmlns="http://www.w3.org/2000/svg" viewBox="0 0 24 24" width="24" height="24">
  
  <path transform="matrix(0.6496637482552976, 0, 0, 0.6496637482552976, 0.05862200228397407, 18.887593730641584)" d="M10.52-18.38L10.52-19.92L26.26-19.92L26.26-18.38C26.26-17.39 27.22-17.04 28.00-17.63L31.51-20.32C32.00-20.70 31.99-21.40 31.51-21.77L28.00-24.47C27.21-25.08 26.26-24.71 26.26-23.71L26.26-22.21L10.52-22.21L10.52-23.71C10.52-24.71 9.57-25.08 8.79-24.47L5.27-21.77C4.78-21.40 4.77-20.70 5.27-20.32L8.79-17.63C9.55-17.05 10.52-17.38 10.52-18.38ZM5.45 3.56L14.80 3.56C16.63 3.56 17.54 2.66 17.54 0.83L17.54-12.60C17.54-14.51 16.15-15.62 14.63-15.62C13.57-15.62 12.43-15.09 11.73-13.90L3.57-0.50C3.21 0.09 2.99 0.60 2.99 1.30C2.99 2.61 3.80 3.56 5.45 3.56ZM31.30 3.56C32.95 3.56 33.77 2.61 33.77 1.30C33.77 0.60 33.55 0.09 33.19-0.50L25.03-13.90C24.33-15.09 23.19-15.62 22.14-15.62C20.60-15.62 19.22-14.51 19.22-12.60L19.22 0.83C19.22 2.66 20.13 3.56 21.96 3.56Z" fill="currentColor"/>
</svg>