<svg xmlns="http://www.w3.org/2000/svg" viewBox="0 0 24 24" width="24" height="24">
  <title>arrow.up.left.and.arrow.down.right.rectangle</title>
  <path transform="matrix(0.7105190119344991, 0, 0, 0.7105190119344991, -0.1232306411323898, 18.003330557868445)" d="M7.37 2.98L26.75 2.98C29.55 2.98 31.14 1.39 31.14-1.39L31.14-15.50C31.14-18.29 29.55-19.88 26.75-19.88L7.37-19.88C4.58-19.88 2.99-18.29 2.99-15.50L2.99-1.39C2.99 1.39 4.58 2.98 7.37 2.98ZM7.86-0.64C7.03-0.64 6.61-1.02 6.61-1.91L6.61-14.99C6.61-15.88 7.03-16.24 7.86-16.24L26.27-16.24C27.09-16.24 27.52-15.88 27.52-14.99L27.52-1.91C27.52-1.02 27.09-0.64 26.27-0.64ZM11.03-8.43C11.59-8.43 12.02-8.86 12.02-9.42L12.02-10.41L11.93-11.63L12.88-10.37L14.63-8.63C14.91-8.34 15.22-8.21 15.53-8.21C16.16-8.21 16.65-8.71 16.65-9.33C16.65-9.62 16.52-9.93 16.27-10.18L14.47-11.96L13.23-12.91L14.38-12.80L15.42-12.80C16.00-12.80 16.43-13.23 16.43-13.79C16.43-14.36 16.00-14.78 15.43-14.78L11.44-14.78C10.57-14.78 10.04-14.27 10.04-13.39L10.04-9.43C10.04-8.86 10.46-8.43 11.03-8.43ZM18.60-8.67C17.98-8.67 17.48-8.19 17.48-7.57C17.48-7.28 17.61-6.97 17.87-6.71L19.65-4.93L20.89-3.98L19.76-4.10L18.70-4.10C18.13-4.10 17.70-3.67 17.70-3.11C17.70-2.54 18.13-2.12 18.69-2.12L22.69-2.12C23.55-2.12 24.09-2.61 24.09-3.50L24.09-7.46C24.09-8.03 23.66-8.47 23.10-8.47C22.54-8.47 22.11-8.04 22.11-7.48L22.11-6.49L22.21-5.26L21.26-6.53L19.51-8.27C19.23-8.55 18.91-8.67 18.60-8.67Z" fill="currentColor"/>
</svg>