<svg xmlns="http://www.w3.org/2000/svg" viewBox="0 0 24 24" width="24" height="24">
  
  <path transform="matrix(0.8752136752136752, 0, 0, 0.8752136752136752, -0.6153846153846154, 19.405128205128204)" d="M7.37 2.96L21.46 2.96C24.25 2.96 25.84 1.38 25.84-1.41L25.84-15.52C25.84-18.30 24.25-19.89 21.46-19.89L7.37-19.89C4.58-19.89 2.99-18.30 2.99-15.52L2.99-1.41C2.99 1.38 4.58 2.96 7.37 2.96ZM9.74-7.28C8.80-7.83 8.82-9.13 9.74-9.67L16.10-13.42C17.09-14.00 18.22-13.49 18.22-12.34L18.22-4.62C18.22-3.46 17.09-2.94 16.10-3.53Z" fill="currentColor"/>
</svg>