<svg xmlns="http://www.w3.org/2000/svg" viewBox="0 0 24 24" width="24" height="24">
  <title>arrow.turn.up.left</title>
  <path transform="matrix(0.8865800865800866, 0, 0, 0.8865800865800866, -0.6493506493506493, 19.485714285714288)" d="M25.39-0.68C25.52-1.49 25.55-2.18 25.55-2.85C25.55-7.89 23.21-10.59 18.21-10.59L11.81-10.59L9.29-10.51L11.30-12.23L13.91-14.85C14.30-15.21 14.58-15.68 14.58-16.31C14.58-17.40 13.78-18.23 12.56-18.23C12.07-18.23 11.57-18.01 11.14-17.60L3.60-10.05C3.22-9.69 2.99-9.09 2.99-8.54C2.99-7.99 3.22-7.41 3.60-7.04L11.14 0.49C11.57 0.91 12.07 1.13 12.56 1.13C13.78 1.13 14.58 0.29 14.58-0.80C14.58-1.43 14.30-1.90 13.91-2.26L11.30-4.86L9.29-6.59L11.81-6.50L17.87-6.50C20.45-6.50 21.45-5.46 21.45-2.85C21.43-1.93 21.38-1.21 21.38-0.67C21.38 0.54 22.13 1.35 23.31 1.35C24.68 1.35 25.25 0.20 25.39-0.68Z" fill="currentColor"/>
</svg>