<svg xmlns="http://www.w3.org/2000/svg" viewBox="0 0 24 24" width="24" height="24">
  
  <path transform="matrix(0.7105190119344991, 0, 0, 0.7105190119344991, -0.1232306411323898, 18.003330557868445)" d="M7.37 2.98L26.75 2.98C29.55 2.98 31.14 1.39 31.14-1.39L31.14-15.50C31.14-18.29 29.55-19.88 26.75-19.88L7.37-19.88C4.58-19.88 2.99-18.29 2.99-15.50L2.99-1.39C2.99 1.39 4.58 2.98 7.37 2.98ZM24.04-9.53C24.04-11.58 22.85-12.76 20.79-12.76L6.61-12.76L6.61-14.99C6.61-15.88 7.03-16.24 7.86-16.24L26.27-16.24C27.09-16.24 27.52-15.88 27.52-14.99L27.52-1.91C27.52-1.02 27.09-0.64 26.27-0.64L24.04-0.64ZM7.86-0.64C7.03-0.64 6.61-1.02 6.61-1.91L6.61-10.04L14.39-10.04L14.39-0.64ZM20.40-10.04C21-10.04 21.32-9.75 21.32-9.13L21.32-0.64L17.10-0.64L17.10-10.04Z" fill="currentColor"/>
</svg>