<svg xmlns="http://www.w3.org/2000/svg" viewBox="0 0 24 24" width="24" height="24">
  <title>australian.football.fill</title>
  <path transform="matrix(0.7952230327561444, 0, 0, 0.7952230327561444, -0.14268294033997364, 18.728334997458127)" d="M8.10-15.63C4.86-12.39 2.75-7.37 2.70-3.34C2.64 1.25 5.54 4.18 10.11 4.10C14.23 4.07 18.91 2.24 22.44-1.30C25.98-4.83 27.80-9.50 27.84-13.62C27.90-18.19 25.00-21.11 20.40-21.02C16.37-20.99 11.34-18.87 8.10-15.63ZM9.62-5.80C9.32-6.13 9.30-6.67 9.62-7.01C9.97-7.34 10.51-7.32 10.84-7.01L11.73-6.12L12.32-6.69L11.43-7.58C11.10-7.91 11.09-8.45 11.41-8.78C11.74-9.11 12.30-9.11 12.62-8.79L13.52-7.90L14.09-8.47L13.20-9.36C12.87-9.68 12.87-10.22 13.20-10.56C13.51-10.89 14.07-10.89 14.39-10.57L15.29-9.68L15.89-10.27L15-11.17C14.67-11.50 14.66-12.04 14.99-12.34C15.33-12.69 15.86-12.68 16.18-12.34L17.07-11.45L17.67-12.05L16.78-12.95C16.44-13.27 16.44-13.82 16.77-14.12C17.11-14.46 17.65-14.46 17.96-14.13L20.93-11.17C21.27-10.83 21.27-10.29 20.93-9.96C20.61-9.64 20.07-9.64 19.73-9.97L18.86-10.86L18.27-10.27L19.15-9.39C19.49-9.05 19.49-8.53 19.15-8.19C18.83-7.88 18.30-7.86 17.96-8.19L17.07-9.08L16.48-8.48L17.36-7.61C17.68-7.28 17.68-6.70 17.36-6.39C17.03-6.06 16.49-6.06 16.15-6.40L15.27-7.28L14.71-6.70L15.57-5.81C15.91-5.50 15.93-4.92 15.57-4.62C15.25-4.29 14.72-4.30 14.39-4.62L13.50-5.51L12.93-4.92L13.79-4.03C14.13-3.71 14.13-3.19 13.79-2.84C13.46-2.51 12.94-2.50 12.60-2.84Z" fill="currentColor"/>
</svg>