<svg xmlns="http://www.w3.org/2000/svg" viewBox="0 0 24 24" width="24" height="24">
  
  <path transform="matrix(0.7030053369915651, 0, 0, 0.7030053369915651, 0.8698686482032545, 17.99616491666523)" d="M4.43-13.43L5.94-12.88C7.15-12.43 8.32-13.03 8.75-14.25L9.43-16.09L11.54-16.09C11.59-16.52 11.78-16.95 12.09-17.26L12.67-17.81L12.13-18.33C11.81-18.66 11.63-19.08 11.59-19.51L10.65-19.51C10.91-20.61 10.37-21.64 9.28-22.05L7.77-22.61C6.56-23.05 5.39-22.46 4.96-21.25L3.15-16.30C2.70-15.07 3.23-13.88 4.43-13.43ZM22.39-13.43L23.89-12.88C25.10-12.43 26.27-13.03 26.72-14.25L28.52-19.20C28.96-20.41 28.43-21.61 27.23-22.05L25.73-22.61C24.52-23.05 23.36-22.46 22.91-21.25L22.28-19.51L20.12-19.51C20.07-19.09 19.89-18.68 19.57-18.35L18.98-17.79L19.51-17.27C19.84-16.95 20.03-16.51 20.07-16.09L21.04-16.09C20.72-14.94 21.26-13.85 22.39-13.43ZM12.91-14.89C13.31-14.51 14.02-14.46 14.41-14.87L15.83-16.30L17.21-14.93C17.63-14.53 18.29-14.54 18.69-14.94C19.10-15.34 19.10-16.01 18.69-16.42L17.32-17.79L18.75-19.22C19.16-19.63 19.13-20.29 18.73-20.70C18.33-21.11 17.66-21.13 17.25-20.73L15.82-19.29L14.43-20.68C14.03-21.07 13.35-21.08 12.95-20.68C12.55-20.27 12.55-19.59 12.95-19.20L14.33-17.81L12.89-16.38C12.49-16.00 12.50-15.28 12.91-14.89ZM6.06 5.70L7.86 5.70C9.14 5.70 10.05 4.75 10.05 3.45L10.05 2.51L14.12 2.51L14.12 2.53L17.54 2.53L17.54 2.51L21.62 2.51L21.62 3.45C21.62 4.75 22.52 5.70 23.80 5.70L25.62 5.70C26.89 5.70 27.80 4.75 27.80 3.45L27.80-1.82C27.80-3.12 26.89-4.07 25.62-4.07L23.80-4.07C22.52-4.07 21.62-3.12 21.62-1.82L21.62-0.87L17.54-0.87L17.54-13.55C17.11-13.59 16.69-13.79 16.35-14.12L15.83-14.64L15.28-14.07C14.98-13.75 14.55-13.57 14.12-13.52L14.12-0.87L10.05-0.87L10.05-1.82C10.05-3.12 9.14-4.07 7.86-4.07L6.06-4.07C4.77-4.07 3.87-3.12 3.87-1.82L3.87 3.45C3.87 4.75 4.77 5.70 6.06 5.70Z" fill="currentColor"/>
</svg>