<svg xmlns="http://www.w3.org/2000/svg" viewBox="0 0 24 24" width="24" height="24">
  
  <path transform="matrix(0.8752136752136752, 0, 0, 0.8752136752136752, -0.6153846153846154, 19.405128205128204)" d="M7.37 2.96L21.46 2.96C24.25 2.96 25.84 1.38 25.84-1.41L25.84-15.52C25.84-18.30 24.25-19.89 21.46-19.89L7.37-19.89C4.58-19.89 2.99-18.30 2.99-15.52L2.99-1.41C2.99 1.38 4.58 2.96 7.37 2.96ZM7.86-0.66C7.03-0.66 6.61-1.03 6.61-1.91L6.61-15C6.61-15.88 7.03-16.25 7.86-16.25L20.96-16.25C21.79-16.25 22.21-15.88 22.21-15L22.21-1.91C22.21-1.03 21.79-0.66 20.96-0.66ZM11.84-3.29L15.54-3.29C17.66-3.29 19.13-4.45 19.13-6.14C19.13-7.59 18.21-8.55 16.64-8.75L16.64-8.86C17.87-9.06 18.68-9.95 18.68-11.11C18.68-12.68 17.43-13.65 15.38-13.65L11.84-13.65C10.57-13.65 9.91-13.00 9.91-11.73L9.91-5.23C9.91-3.95 10.56-3.29 11.84-3.29ZM13.02-9.54L13.02-11.64L14.33-11.64C15.11-11.64 15.60-11.24 15.60-10.62C15.60-9.93 15.09-9.54 14.17-9.54ZM13.02-5.45L13.02-7.76L14.41-7.76C15.32-7.76 15.86-7.32 15.86-6.61C15.86-5.85 15.30-5.45 14.24-5.45Z" fill="currentColor"/>
</svg>