<svg xmlns="http://www.w3.org/2000/svg" viewBox="0 0 24 24" width="24" height="24">
  
  <path transform="matrix(0.7694619777577397, 0, 0, 0.7694619777577397, 1.630297565374211, 18.510369702434627)" d="M24.27 1.88C25.55 1.88 26.47 0.97 26.47-0.25L26.47-16.68C26.47-17.89 25.55-18.80 24.27-18.80C22.99-18.80 22.08-17.89 22.08-16.68L22.08-0.25C22.08 0.97 22.99 1.88 24.27 1.88ZM19.00-0.60L19.00-16.32C19.00-17.95 17.96-18.80 16.75-18.80C16.24-18.80 15.70-18.66 15.19-18.35L2.18-10.78C1.13-10.17 0.48-9.50 0.48-8.46C0.48-7.42 1.13-6.75 2.18-6.14L15.19 1.43C15.70 1.73 16.24 1.88 16.75 1.88C17.96 1.88 19.00 1.03 19.00-0.60ZM15.38-3.02C15.38-2.86 15.26-2.74 15.12-2.74C15.07-2.74 15.01-2.75 14.95-2.79L5.54-8.23C5.44-8.29 5.39-8.38 5.39-8.46C5.39-8.54 5.44-8.64 5.54-8.70L14.95-14.13C15.01-14.17 15.07-14.18 15.12-14.18C15.26-14.18 15.38-14.07 15.38-13.91Z" fill="currentColor"/>
</svg>