<svg xmlns="http://www.w3.org/2000/svg" viewBox="0 0 24 24" width="24" height="24">
  <title>backpack</title>
  <path transform="matrix(0.6337417997276891, 0, 0, 0.6337417997276891, 3.5038989974006673, 17.744522836984775)" d="M9.79 6.71L17.03 6.71C21.52 6.71 23.86 4.34 23.82-0.21C23.78-4.98 23.75-8.47 23.63-11.07C23.34-17.29 21.82-20.19 17.67-21.18C17.39-23.41 15.77-24.84 13.39-24.84C11.02-24.84 9.40-23.41 9.12-21.18C4.99-20.18 3.47-17.27 3.19-11.07C3.06-8.47 3.04-4.98 2.99-0.21C2.95 4.34 5.30 6.71 9.79 6.71ZM13.39-22.50C14.16-22.50 14.73-22.15 15.04-21.55C14.52-21.57 13.98-21.60 13.41-21.60C12.83-21.60 12.28-21.57 11.75-21.55C12.06-22.15 12.64-22.50 13.39-22.50ZM9.79 3.64C7.00 3.64 6.02 2.65 6.05-0.19C6.09-4.96 6.12-8.39 6.25-10.93C6.52-17.31 7.69-18.53 13.41-18.53C19.13-18.53 20.30-17.31 20.57-10.93C20.70-8.39 20.72-4.96 20.77-0.19C20.79 2.65 19.82 3.64 17.03 3.64ZM9.70 1.51L17.11 1.51C18.34 1.51 19.16 0.69 19.16-0.53L19.16-6.26C19.16-7.46 18.34-8.30 17.11-8.30L9.70-8.30C8.48-8.30 7.65-7.45 7.65-6.26L7.65-0.53C7.65 0.68 8.48 1.51 9.70 1.51ZM9.93-5.74C9.93-5.92 10.04-6.04 10.22-6.04L16.59-6.04C16.77-6.04 16.89-5.92 16.89-5.74L16.89-4.85L9.93-4.85ZM10.22-0.74C10.04-0.74 9.93-0.86 9.93-1.03L9.93-2.77L16.89-2.77L16.89-1.03C16.89-0.86 16.77-0.74 16.59-0.74Z" fill="currentColor"/>
</svg>