<svg xmlns="http://www.w3.org/2000/svg" viewBox="0 0 24 24" width="24" height="24">
  
  <path transform="matrix(0.7839534527637422, 0, 0, 0.7839534527637422, -0.34267340376665123, 18.632981166743225)" d="M8.04 1.85C9.43 1.85 10.09 1.16 10.09-0.20L10.09-7.79C10.31-7.11 10.88-6.61 11.68-6.14L24.69 1.43C25.21 1.73 25.75 1.88 26.25 1.88C27.47 1.88 28.50 1.03 28.50-0.60L28.50-16.32C28.50-17.95 27.47-18.80 26.25-18.80C25.75-18.80 25.21-18.66 24.69-18.35L11.68-10.78C10.88-10.31 10.31-9.81 10.09-9.13L10.09-16.73C10.09-18.09 9.40-18.79 8.04-18.79L5.04-18.79C3.68-18.79 2.99-18.07 2.99-16.73L2.99-0.20C2.99 1.16 3.68 1.85 5.04 1.85Z" fill="currentColor"/>
</svg>