<svg xmlns="http://www.w3.org/2000/svg" viewBox="0 0 24 24" width="24" height="24">
  <title>barcode</title>
  <path transform="matrix(0.842798353909465, 0, 0, 0.842798353909465, -0.5185185185185186, 19.160493827160494)" d="M2.99 0.89L4.98 0.89L4.98-17.88L2.99-17.88ZM6.90 0.89L8.05 0.89L8.05-17.88L6.90-17.88ZM9.95 0.89L13.21 0.89L13.21-17.88L9.95-17.88ZM14.40 0.89L16.46 0.89L16.46-17.88L14.40-17.88ZM17.70 0.89L20.93 0.89L20.93-17.88L17.70-17.88ZM21.91 0.89L24.45 0.89L24.45-17.88L21.91-17.88ZM25.08 0.89L26.72 0.89L26.72-17.88L25.08-17.88Z" fill="currentColor"/>
</svg>