<svg xmlns="http://www.w3.org/2000/svg" viewBox="0 0 24 24" width="24" height="24">
  <title>baseball</title>
  <path transform="matrix(0.7934294126762746, 0, 0, 0.7934294126762746, 0.33565783356578316, 18.713156671315666)" d="M14.70 4.14C21.66 4.14 27.30-1.50 27.30-8.46C27.30-15.42 21.66-21.06 14.70-21.06C7.73-21.06 2.10-15.42 2.10-8.46C2.10-1.50 7.73 4.14 14.70 4.14ZM14.70 1.34C14.36 1.34 14.00 1.32 13.66 1.29C13.83 0.67 13.93 0.02 13.99-0.61L14.31-0.61C14.72-0.61 15.06-0.96 15.06-1.37C15.06-1.77 14.72-2.12 14.32-2.12L14.02-2.12C13.99-2.64 13.93-3.15 13.84-3.66L14.10-3.73C14.51-3.82 14.74-4.24 14.64-4.64C14.51-5.09 14.09-5.27 13.71-5.18L13.48-5.11C13.31-5.61 13.11-6.09 12.88-6.57L13.18-6.75C13.58-6.96 13.65-7.44 13.45-7.77C13.23-8.17 12.76-8.26 12.43-8.05L12.12-7.89C11.81-8.36 11.46-8.80 11.09-9.21L11.36-9.48C11.68-9.81 11.63-10.25 11.36-10.52C11.04-10.84 10.57-10.83 10.29-10.55L10.00-10.25C9.63-10.56 9.26-10.83 8.87-11.09L9-11.31C9.21-11.67 9.09-12.12 8.73-12.30C8.33-12.54 7.88-12.40 7.69-12.06L7.55-11.82C6.97-12.09 6.38-12.32 5.77-12.49C7.30-15.89 10.72-18.27 14.70-18.27C15.02-18.27 15.34-18.25 15.64-18.22C15.49-17.60 15.39-16.96 15.34-16.32L15.06-16.32C14.64-16.31 14.31-15.97 14.31-15.55C14.29-15.16 14.60-14.81 15.04-14.81L15.32-14.81C15.34-14.34 15.39-13.88 15.47-13.41L15.06-13.30C14.65-13.18 14.44-12.76 14.55-12.38C14.64-12 15.01-11.73 15.45-11.85L15.82-11.95C16.00-11.41 16.21-10.90 16.45-10.38L16.15-10.20C15.79-10.01 15.68-9.55 15.89-9.19C16.08-8.84 16.54-8.68 16.89-8.91L17.20-9.08C17.50-8.64 17.82-8.21 18.18-7.83L18-7.65C17.71-7.38 17.68-6.91 18.01-6.60C18.27-6.33 18.74-6.29 19.05-6.60L19.25-6.79C19.64-6.45 20.06-6.14 20.50-5.86L20.36-5.63C20.14-5.25 20.27-4.79 20.63-4.59C20.98-4.38 21.46-4.50 21.66-4.86L21.81-5.14C22.41-4.86 23.02-4.64 23.65-4.46C22.11-1.04 18.68 1.34 14.70 1.34ZM18.76-10.00C19.08-10.17 19.24-10.58 19.04-11.00C18.84-11.37 18.36-11.51 18.01-11.29L17.92-11.23C17.73-11.60 17.58-11.99 17.45-12.38L17.52-12.40C17.96-12.53 18.15-12.95 18.05-13.30C17.96-13.68 17.57-13.97 17.13-13.84L17.09-13.83C17.03-14.16 16.99-14.47 16.97-14.80L17.19-14.80C17.60-14.80 17.93-15.11 17.93-15.53C17.95-15.93 17.63-16.30 17.19-16.30L16.98-16.30C17.02-16.85 17.11-17.39 17.25-17.93C21.42-16.80 24.50-12.98 24.50-8.46C24.50-7.61 24.39-6.79 24.19-5.99C23.65-6.14 23.13-6.33 22.63-6.56L22.72-6.73C22.93-7.10 22.79-7.54 22.43-7.76C22.08-7.97 21.61-7.84 21.42-7.49L21.32-7.29C21.01-7.50 20.72-7.71 20.45-7.95L20.59-8.10C20.92-8.45 20.85-8.92 20.57-9.18C20.31-9.45 19.85-9.49 19.51-9.16L19.36-9.02C19.11-9.30 18.88-9.61 18.66-9.94ZM12.16-0.62L12.34-0.62C12.29-0.08 12.20 0.46 12.06 0.98C7.93-0.18 4.90-3.97 4.90-8.46C4.90-9.33 5.00-10.16 5.21-10.96C5.74-10.80 6.25-10.62 6.75-10.38L6.63-10.18C6.41-9.80 6.55-9.34 6.91-9.15C7.28-8.96 7.71-9.04 7.92-9.43L8.04-9.64C8.31-9.47 8.57-9.27 8.81-9.06L8.77-9.01C8.47-8.72 8.47-8.23 8.79-7.96C9.09-7.65 9.54-7.65 9.84-7.96L9.90-8.02C10.16-7.71 10.42-7.39 10.65-7.05L10.56-7.00C10.18-6.80 10.08-6.30 10.30-5.95C10.50-5.64 10.90-5.47 11.30-5.67L11.40-5.74C11.58-5.39 11.72-5.04 11.85-4.69L11.65-4.63C11.24-4.52 11.00-4.10 11.12-3.71C11.23-3.27 11.66-3.06 12.04-3.18L12.22-3.23C12.29-2.87 12.34-2.50 12.36-2.13L12.18-2.13C11.75-2.14 11.43-1.79 11.41-1.38C11.41-0.94 11.78-0.63 12.16-0.62Z" fill="currentColor"/>
</svg>