<svg xmlns="http://www.w3.org/2000/svg" viewBox="0 0 24 24" width="24" height="24">
  <title>batteryblock.fill</title>
  <path transform="matrix(0.7105190119344991, 0, 0, 0.7105190119344991, -0.1232306411323898, 18.003330557868445)" d="M7.37 2.23L26.75 2.23C29.55 2.23 31.14 0.64 31.14-2.14L31.14-11.45C31.14-14.24 29.55-15.82 26.75-15.82L25.76-15.82L25.76-16.99C25.76-18.33 24.98-19.13 23.65-19.13L22.11-19.13C20.79-19.13 20.02-18.33 20.02-16.99L20.02-15.82L14.12-15.82L14.12-16.99C14.12-18.33 13.35-19.13 12.01-19.13L10.48-19.13C9.15-19.13 8.38-18.33 8.38-16.99L8.38-15.82L7.37-15.82C4.58-15.82 2.99-14.24 2.99-11.45L2.99-2.14C2.99 0.64 4.58 2.23 7.37 2.23Z" fill="currentColor"/>
</svg>