<svg xmlns="http://www.w3.org/2000/svg" viewBox="0 0 24 24" width="24" height="24">
  <title>beats.solobuds.chargingcase.fill</title>
  <path transform="matrix(0.6123669417533788, 0, 0, 0.6123669417533788, 0.7154646573376391, 17.18119842124148)" d="M16.28-0.04L20.58-0.04C24.22-0.04 26.66-0.08 29.24-0.95C32.78-2.16 34.76-4.85 34.76-8.46C34.76-12.07 32.78-14.78 29.24-15.97C26.66-16.84 24.22-16.89 20.58-16.89L16.28-16.89C12.63-16.89 10.20-16.84 7.62-15.97C4.08-14.78 2.10-12.07 2.10-8.46C2.10-4.85 4.08-2.16 7.62-0.95C10.20-0.08 12.63-0.04 16.28-0.04ZM18.42-5.32C16.93-5.32 15.77-6.48 15.77-7.93L15.77-11.75L16.97-12.28L16.97-10.16C17.43-10.49 17.91-10.64 18.42-10.64C19.88-10.64 21.09-9.42 21.09-7.93C21.09-6.50 19.90-5.32 18.42-5.32ZM18.42-6.50C19.22-6.50 19.88-7.16 19.88-7.93C19.88-8.71 19.22-9.40 18.42-9.40C17.65-9.40 16.97-8.74 16.97-7.93C16.97-7.16 17.63-6.50 18.42-6.50Z" fill="currentColor"/>
</svg>