<svg xmlns="http://www.w3.org/2000/svg" viewBox="0 0 24 24" width="24" height="24">
  
  <path transform="matrix(0.7729468599033816, 0, 0, 0.7729468599033816, 0.8949275362318845, 18.530797101449274)" d="M4.79-0.75L23.95-0.75C25.45-0.75 26.43-1.68 26.43-3.06C26.43-4.49 25.46-5.58 24.30-6.49C23.34-7.27 23.19-8.99 22.86-11.11C22.43-14.82 20.96-17.68 18.18-18.69C17.58-20.27 16.11-21.39 14.37-21.39C12.63-21.39 11.17-20.27 10.57-18.69C7.77-17.68 6.30-14.82 5.88-11.11C5.55-8.99 5.40-7.27 4.44-6.49C3.28-5.58 2.31-4.49 2.31-3.06C2.31-1.68 3.29-0.75 4.79-0.75ZM14.37 4.49C16.70 4.49 18.41 2.91 18.55 1.00L10.20 1.00C10.34 2.91 12.05 4.49 14.37 4.49Z" fill="currentColor"/>
</svg>