<svg xmlns="http://www.w3.org/2000/svg" viewBox="0 0 24 24" width="24" height="24">
  <title>bell.slash.fill</title>
  <path transform="matrix(0.7729468599033816, 0, 0, 0.7729468599033816, 0.726782612781175, 18.530797101449274)" d="M14.37-21.39C12.63-21.39 11.17-20.27 10.57-18.69C10.01-18.49 9.49-18.22 9.05-17.88L25.62-1.30C26.13-1.69 26.43-2.30 26.43-3.06C26.43-4.49 25.45-5.58 24.30-6.49C23.33-7.27 23.18-8.99 22.86-11.11C22.43-14.82 20.96-17.68 18.16-18.69C17.57-20.27 16.10-21.39 14.37-21.39ZM3.08-18.53L25.11 3.47C25.51 3.87 26.18 3.87 26.57 3.47C26.95 3.06 26.96 2.41 26.57 2.02L4.55-19.99C4.15-20.39 3.49-20.39 3.08-19.99C2.70-19.59 2.70-18.93 3.08-18.53ZM4.78-0.75L18.53-0.75L6.18-13.09C6.04-12.48 5.93-11.82 5.87-11.11C5.53-8.99 5.40-7.27 4.43-6.49C3.28-5.58 2.31-4.49 2.31-3.06C2.31-1.68 3.29-0.75 4.78-0.75ZM14.37 4.49C16.70 4.49 18.39 2.91 18.54 1.00L10.20 1.00C10.34 2.91 12.04 4.49 14.37 4.49Z" fill="currentColor"/>
</svg>