<svg xmlns="http://www.w3.org/2000/svg" viewBox="0 0 24 24" width="24" height="24">
  
  <path transform="matrix(0.7465733449985419, 0, 0, 0.7465733449985419, -0.23972003499562566, 18.294838145231846)" d="M3-19.54C3-18.53 3.81-17.72 4.80-17.72L27.98-17.72C28.98-17.72 29.79-18.53 29.79-19.54C29.79-20.53 28.98-21.34 27.98-21.34L4.80-21.34C3.81-21.34 3-20.53 3-19.54ZM4.80-14.37C5.38-14.37 5.84-14.86 5.84-15.41C5.84-15.98 5.39-16.44 4.80-16.44C4.22-16.44 3.77-15.98 3.77-15.41C3.77-14.86 4.23-14.37 4.80-14.37ZM7.44-15.01L7.44-13.17C7.44-12.39 7.97-11.86 8.77-11.86L27.14-11.86C27.94-11.86 28.46-12.40 28.46-13.20L28.46-15.01C28.46-15.81 27.94-16.32 27.14-16.32L8.77-16.32C7.97-16.32 7.44-15.79 7.44-15.01ZM4.80-11.67C5.38-11.67 5.84-12.14 5.84-12.70C5.84-13.28 5.39-13.75 4.80-13.75C4.22-13.75 3.77-13.28 3.77-12.70C3.77-12.14 4.23-11.67 4.80-11.67ZM4.80-9C5.38-9 5.84-9.47 5.84-10.03C5.84-10.61 5.39-11.06 4.80-11.06C4.22-11.06 3.77-10.61 3.77-10.03C3.77-9.47 4.23-9 4.80-9ZM7.44-9.57L7.44-7.75C7.44-6.96 7.97-6.42 8.77-6.42L27.14-6.42C27.94-6.42 28.46-6.97 28.46-7.76L28.46-9.59C28.46-10.37 27.94-10.89 27.15-10.89L8.77-10.89C7.97-10.89 7.44-10.36 7.44-9.57ZM4.80-6.30C5.38-6.30 5.84-6.79 5.84-7.34C5.84-7.91 5.39-8.37 4.80-8.37C4.22-8.37 3.77-7.91 3.77-7.34C3.77-6.79 4.23-6.30 4.80-6.30ZM4.80-3.62C5.38-3.62 5.84-4.09 5.84-4.65C5.84-5.23 5.39-5.68 4.80-5.68C4.22-5.68 3.77-5.23 3.77-4.65C3.77-4.09 4.23-3.62 4.80-3.62ZM7.44-4.14L7.44-2.31C7.44-1.52 7.97-1.00 8.77-1.00L27.15-1.00C27.95-1.00 28.46-1.54 28.46-2.32L28.46-4.16C28.46-4.93 27.94-5.46 27.14-5.46L8.77-5.46C7.97-5.46 7.44-4.93 7.44-4.14ZM4.80-0.94C5.38-0.94 5.84-1.41 5.84-1.98C5.84-2.55 5.39-3 4.80-3C4.22-3 3.77-2.55 3.77-1.98C3.77-1.41 4.23-0.94 4.80-0.94ZM4.80 4.48C5.46 4.48 5.98 3.96 5.98 3.30L5.98 0.86C5.98 0.21 5.46-0.32 4.80-0.32C4.16-0.32 3.64 0.21 3.64 0.86L3.64 3.30C3.64 3.96 4.16 4.48 4.80 4.48ZM7.45 1.29L7.45 3.12C7.45 3.90 7.97 4.43 8.77 4.43L27.13 4.43C27.93 4.43 28.46 3.89 28.46 3.11L28.46 1.28C28.46 0.49 27.94-0.02 27.14-0.02L8.77-0.02C7.97-0.02 7.45 0.50 7.45 1.29Z" fill="currentColor"/>
</svg>