<svg xmlns="http://www.w3.org/2000/svg" viewBox="0 0 24 24" width="24" height="24">
  <title>bolt.circle</title>
  <path transform="matrix(0.7934294126762746, 0, 0, 0.7934294126762746, 0.33565783356578316, 18.713156671315666)" d="M14.70 4.14C21.66 4.14 27.30-1.50 27.30-8.46C27.30-15.42 21.66-21.06 14.70-21.06C7.73-21.06 2.10-15.42 2.10-8.46C2.10-1.50 7.73 4.14 14.70 4.14ZM14.70 0.48C9.75 0.48 5.75-3.52 5.75-8.46C5.75-13.41 9.75-17.40 14.70-17.40C19.64-17.40 23.64-13.41 23.64-8.46C23.64-3.52 19.64 0.48 14.70 0.48ZM9.83-7.76C9.83-7.38 10.14-7.09 10.51-7.09L13.98-7.09L12.14-2.27C11.80-1.37 12.77-0.84 13.41-1.57L19.38-8.80C19.52-8.95 19.59-9.15 19.59-9.34C19.59-9.71 19.29-10.01 18.91-10.01L15.45-10.01L17.29-14.82C17.63-15.73 16.65-16.25 16.03-15.53L10.04-8.30C9.90-8.14 9.83-7.95 9.83-7.76Z" fill="currentColor"/>
</svg>