<svg xmlns="http://www.w3.org/2000/svg" viewBox="0 0 24 24" width="24" height="24">
  
  <path transform="matrix(0.7934294126762746, 0, 0, 0.7934294126762746, 0.33565783356578316, 18.713156671315666)" d="M14.70 4.14C21.66 4.14 27.30-1.50 27.30-8.46C27.30-15.42 21.66-21.06 14.70-21.06C7.73-21.06 2.10-15.42 2.10-8.46C2.10-1.50 7.73 4.14 14.70 4.14ZM14.70 0.48C9.75 0.48 5.75-3.52 5.75-8.46C5.75-13.41 9.75-17.40 14.70-17.40C19.64-17.40 23.64-13.41 23.64-8.46C23.64-3.52 19.64 0.48 14.70 0.48ZM7.82-6.93C7.10-6.04 7.90-5.04 8.92-5.54L12.38-7.31L16.25-5.12C16.52-4.96 16.79-4.89 17.05-4.89C17.44-4.89 17.80-5.10 18.12-5.48L21.57-9.80C22.27-10.66 21.49-11.66 20.47-11.17L17.00-9.41L13.13-11.58C12.86-11.74 12.60-11.82 12.33-11.82C11.94-11.82 11.59-11.63 11.27-11.23Z" fill="currentColor"/>
</svg>