<svg xmlns="http://www.w3.org/2000/svg" viewBox="0 0 24 24" width="24" height="24">
  
  <path transform="matrix(0.613640464443995, 0, 0, 0.613640464443995, 0.1662697058607181, 17.233579443533518)" d="M23.46 4.62L25.64 4.62C27.12 4.62 27.98 3.75 27.98 2.29L27.98-12.76L29.52 2.63C29.65 4.09 30.62 4.84 32.09 4.70L33.49 4.55C34.95 4.39 35.70 3.42 35.57 1.97L33.75-16.09C33.62-17.55 32.65-18.32 31.18-18.16L29.78-18.01C28.92-17.93 28.31-17.55 27.98-16.97L27.98-19.44C27.98-20.91 27.12-21.77 25.64-21.77L23.46-21.77C22.00-21.77 21.13-20.91 21.13-19.44L21.13 2.29C21.13 3.75 22.00 4.62 23.46 4.62ZM5.32 4.62L7.41 4.62C8.87 4.62 9.74 3.75 9.74 2.29L9.74-15.94C9.74-17.41 8.87-18.28 7.41-18.28L5.32-18.28C3.86-18.28 2.99-17.41 2.99-15.94L2.99 2.29C2.99 3.75 3.86 4.62 5.32 4.62ZM13.54 4.62L17.32 4.62C18.80 4.62 19.66 3.75 19.66 2.29L19.66-11.33C19.66-12.81 18.80-13.68 17.32-13.68L13.54-13.68C12.07-13.68 11.20-12.81 11.20-11.33L11.20 2.29C11.20 3.75 12.07 4.62 13.54 4.62ZM14.36-8.71C13.80-8.71 13.37-9.13 13.37-9.67C13.37-10.22 13.79-10.64 14.36-10.64L16.57-10.64C17.21-10.64 17.53-10.22 17.53-9.67C17.53-9.13 17.11-8.71 16.57-8.71ZM14.36 1.59C13.79 1.59 13.37 1.17 13.37 0.62C13.37 0.08 13.80-0.35 14.36-0.35L16.57-0.35C17.11-0.35 17.53 0.08 17.53 0.62C17.53 1.17 17.11 1.59 16.57 1.59Z" fill="currentColor"/>
</svg>