<svg xmlns="http://www.w3.org/2000/svg" viewBox="0 0 24 24" width="24" height="24">
  
  <path transform="matrix(0.7934294126762746, 0, 0, 0.7934294126762746, 0.33565783356578316, 18.713156671315666)" d="M14.70 4.14C21.66 4.14 27.30-1.50 27.30-8.46C27.30-15.42 21.66-21.06 14.70-21.06C7.75-21.06 2.10-15.42 2.10-8.46C2.10-1.50 7.75 4.14 14.70 4.14ZM11.48-1.99C10.83-1.99 10.37-2.47 10.37-3.19L10.37-12.93C10.37-14.18 11.10-14.92 12.35-14.92L17.05-14.92C18.30-14.92 19.03-14.18 19.03-12.93L19.03-3.19C19.03-2.47 18.57-1.99 17.92-1.99C17.53-1.99 17.26-2.17 16.85-2.57L14.74-4.68C14.72-4.70 14.68-4.70 14.66-4.68L12.56-2.57C12.14-2.17 11.87-1.99 11.48-1.99Z" fill="currentColor"/>
</svg>