<svg xmlns="http://www.w3.org/2000/svg" viewBox="0 0 24 24" width="24" height="24">
  
  <path transform="matrix(0.6815761448349308, 0, 0, 0.6815761448349308, 1.4448881789137387, 17.77476038338658)" d="M17.43 6.20C22.15 6.19 25.07 4.42 25.07 1.38L25.07-4.13C26.91-5.85 27.98-8.54 27.98-11.45C27.98-18.46 23.40-23.14 16.59-23.14C9.80-23.14 5.25-18.55 5.25-11.70C5.25-11.39 5.25-11.11 5.27-10.84L3.57-7.82C3.20-7.14 2.99-6.43 2.99-5.78C2.99-4.63 3.70-3.64 5.24-3.40L5.24-2.10C5.24 0.49 6.87 1.93 9.42 1.88L9.94 1.84L9.94 1.92C10.22 4.64 13.05 6.20 17.43 6.20ZM12.16-9.98C10.54-9.98 9.32-11.33 9.32-13.11C9.32-13.92 9.55-14.67 9.97-15.27C10.37-14.77 11.02-14.47 11.81-14.47C12.21-14.47 12.54-14.80 12.54-15.20C12.54-15.59 12.21-15.91 11.81-15.91C11.30-15.91 10.98-16.31 10.98-16.79C10.98-17.63 11.81-18.55 13.32-18.55C13.48-18.55 13.61-18.55 13.76-18.53C13.69-18.29 13.63-18.01 13.63-17.71C13.62-17.26 13.92-16.95 14.33-16.95C14.75-16.95 15.05-17.24 15.05-17.66C15.05-18.55 15.82-19.21 16.83-19.21C17.47-19.21 18.06-18.90 18.55-18.41C18.67-18.43 18.80-18.43 19.02-18.43C20.39-18.46 21.57-17.33 21.57-16.00C21.57-13.14 16.95-13.04 16.95-9.48C16.95-9.33 16.96-9.18 16.98-9.02C16.68-8.99 16.45-8.98 16.29-8.98C15.63-8.98 15.01-9.11 14.46-9.35C15.07-9.84 15.46-10.56 15.50-11.40C15.50-11.57 15.50-11.72 15.48-11.87C16.63-12.25 17.20-13.09 17.20-14.36C17.20-14.77 16.85-15.09 16.45-15.09C16.07-15.09 15.75-14.77 15.75-14.36C15.75-13.77 15.56-13.38 15.06-13.23C14.96-13.37 14.86-13.51 14.73-13.61C14.53-13.78 14.32-13.84 14.13-13.84C13.75-13.84 13.43-13.54 13.43-13.17C13.43-12.98 13.52-12.76 13.73-12.56C13.96-12.35 14.11-12.02 14.11-11.70C14.11-10.71 13.30-9.98 12.16-9.98ZM21.25-6.70C20.36-6.70 19.63-7.43 19.38-8.47L19.30-8.47C18.64-8.47 18.27-8.93 18.27-9.55C18.27-11.78 22.39-12.39 22.95-15.59C23.66-15.05 24.09-14.31 24.09-13.36C24.09-12.32 23.34-11.60 22.20-11.71C21.80-11.74 21.46-11.41 21.46-11.00C21.46-10.62 21.75-10.31 22.15-10.29C22.66-10.24 23.12-10.30 23.52-10.42C23.52-10.31 23.52-10.21 23.52-10.10C23.52-8.05 22.56-6.70 21.25-6.70Z" fill="currentColor"/>
</svg>