<svg xmlns="http://www.w3.org/2000/svg" viewBox="0 0 24 24" width="24" height="24">
  
  <path transform="matrix(0.6865111289890051, 0, 0, 0.6865111289890051, -0.05148833467417546, 17.81255028157683)" d="M5.32 1.90L30.08 1.90L30.08 0.71C30.08 0.06 29.67-0.33 29.04-0.33L28.58-0.33L28.58-13.15L29.52-13.15C30.48-13.15 31.04-13.86 31.04-14.58C31.04-15.11 30.75-15.59 30.14-15.95L19.45-22.11C18.91-22.42 18.28-22.62 17.70-22.62C17.11-22.62 16.48-22.42 15.94-22.11L5.25-15.95C4.64-15.59 4.35-15.11 4.35-14.58C4.35-13.86 4.91-13.15 5.88-13.15L6.82-13.15L6.82-0.33L6.36-0.33C5.72-0.33 5.32 0.06 5.32 0.71ZM9.35-0.33L9.35-14.93L17.45-19.45C17.53-19.50 17.63-19.52 17.70-19.52C17.78-19.52 17.86-19.50 17.94-19.45L26.05-14.93L26.05-0.33ZM20.92-3.94C21.05-3.94 21.14-4.02 21.14-4.15L21.14-4.93C22.57-5.02 23.65-5.80 23.65-7.15C23.65-8.43 22.80-8.92 21.79-9.32L21.14-9.57L21.14-11.19C21.49-11.11 21.70-10.85 21.83-10.54C22.00-10.24 22.23-10.00 22.62-10.00C23.19-10.00 23.44-10.37 23.44-10.71C23.44-10.90 23.38-11.09 23.31-11.23C22.93-12.09 22.10-12.52 21.14-12.56L21.14-13.35C21.14-13.48 21.05-13.56 20.92-13.56C20.79-13.56 20.71-13.48 20.71-13.35L20.71-12.57C19.38-12.50 18.25-11.77 18.25-10.38C18.25-9.20 18.93-8.65 20.06-8.19L20.71-7.93L20.71-6.30C20.27-6.35 20.03-6.57 19.89-7.00C19.75-7.37 19.49-7.55 19.10-7.55C18.62-7.55 18.27-7.28 18.27-6.80C18.27-6.67 18.30-6.52 18.35-6.38C18.69-5.39 19.62-4.97 20.71-4.93L20.71-4.15C20.71-4.02 20.79-3.94 20.92-3.94ZM12.98-4.69C13.62-4.69 13.95-5.06 13.95-5.68L13.95-7.62L14.63-7.62L15.49-5.53C15.69-5.03 15.89-4.69 16.48-4.69C17.02-4.69 17.41-5.05 17.41-5.61C17.41-5.85 17.31-6.12 17.20-6.35L16.46-7.98C17.09-8.37 17.53-9.08 17.53-10.13C17.53-11.84 16.46-12.69 14.77-12.69L12.98-12.69C12.40-12.69 12.02-12.38 12.02-11.70L12.02-5.68C12.02-5.06 12.34-4.69 12.98-4.69ZM13.95-8.94L13.95-11.24L14.59-11.24C15.23-11.24 15.57-10.72 15.57-10.09C15.57-9.45 15.26-8.94 14.59-8.94ZM20.00-10.54C20.00-10.93 20.31-11.14 20.71-11.20L20.71-9.75C20.30-9.95 20.00-10.18 20.00-10.54ZM21.89-6.96C21.89-6.56 21.63-6.35 21.14-6.30L21.14-7.76C21.54-7.58 21.89-7.39 21.89-6.96ZM4.43 5.68L30.67 5.68C31.44 5.68 32.12 5.05 32.12 4.24C32.12 3.46 31.44 2.80 30.67 2.80L4.43 2.80C3.66 2.80 2.99 3.46 2.99 4.24C2.99 5.04 3.66 5.68 4.43 5.68Z" fill="currentColor"/>
</svg>