<svg xmlns="http://www.w3.org/2000/svg" viewBox="0 0 24 24" width="24" height="24">
  <title>bubble.middle.top</title>
  <path transform="matrix(0.7585185185185185, 0, 0, 0.7585185185185185, -0.2666666666666666, 19.177777777777777)" d="M16.34-22.54C15.19-22.54 14.55-21.84 13.80-20.72L11.84-17.73L8.93-17.73C5.30-17.73 2.99-15.41 2.99-11.79L2.99-2.33C2.99 1.29 5.30 3.61 8.93 3.61L23.41 3.61C27.05 3.61 29.36 1.29 29.36-2.33L29.36-11.79C29.36-15.41 27.05-17.73 23.41-17.73L20.80-17.73L18.87-20.70C18.09-21.87 17.50-22.54 16.34-22.54ZM16.34-18.90L18.43-15.21C18.90-14.37 19.36-14.11 20.32-14.11L23.13-14.11C24.86-14.11 25.72-13.24 25.72-11.51L25.72-2.60C25.72-0.87 24.86-0.01 23.13-0.01L9.21-0.01C7.49-0.01 6.61-0.87 6.61-2.60L6.61-11.51C6.61-13.24 7.49-14.11 9.21-14.11L12.32-14.11C13.28-14.11 13.70-14.38 14.19-15.21Z" fill="currentColor"/>
</svg>