<svg xmlns="http://www.w3.org/2000/svg" viewBox="0 0 24 24" width="24" height="24">
  <title>button.horizontal.top.press.fill</title>
  <path transform="matrix(0.6571685277884739, 0, 0, 0.6571685277884739, 0.22487485560261877, 18.180207932229496)" d="M21.53-17.30L19.50-17.30L19.50-23.04C19.50-24 18.80-24.62 17.91-24.62C17.03-24.62 16.32-24 16.32-23.04L16.32-17.30L14.26-17.30C13.09-17.30 12.59-16.09 13.36-15.20L17.03-11.03C17.52-10.45 18.28-10.45 18.77-11.03L22.45-15.20C23.24-16.10 22.77-17.30 21.53-17.30ZM10.72 0.43L25.11 0.43C29.81 0.43 32.85-2.36 32.85-6.67C32.85-10.98 29.81-13.77 25.11-13.77L23.57-13.77L20.17-9.90C18.93-8.50 16.85-8.50 15.63-9.90L12.26-13.77L10.72-13.77C6.02-13.77 2.99-10.98 2.99-6.67C2.99-2.36 6.02 0.43 10.72 0.43ZM10.72 5.81L25.11 5.81C29.60 5.81 32.52 3.40 32.81-1.02C31.15 1.05 28.44 2.29 25.11 2.29L10.72 2.29C7.38 2.29 4.69 1.05 3.01-1.02C3.33 3.41 6.23 5.81 10.72 5.81Z" fill="currentColor"/>
</svg>