<svg xmlns="http://www.w3.org/2000/svg" viewBox="0 0 24 24" width="24" height="24">
  
  <path transform="matrix(0.6253817026994015, 0, 0, 0.6253817026994015, 0.13118358373030414, 17.13397246792119)" d="M2.99-7.21C2.99-4.38 3.59-2.93 5.67-1.83L12.15 1.57C14.80 2.96 16.88 3.32 19.84 2.44L29.91-0.53C33.40-1.55 34.97-3.77 34.97-7.21L34.97-14.99C34.97-17.68 33.32-19.34 30.63-19.34L7.32-19.34C4.64-19.34 2.99-17.70 2.99-15ZM6.61-7.21L6.61-14.52C6.61-15.27 7.08-15.73 7.82-15.73L30.14-15.73C30.89-15.73 31.35-15.26 31.35-14.51L31.35-7.21C31.35-5.39 30.71-4.49 28.82-3.91L19.42-1.10C17.10-0.40 15.93-0.56 14.10-1.51L7.85-4.75C6.89-5.24 6.61-5.91 6.61-7.21Z" fill="currentColor"/>
</svg>