<svg xmlns="http://www.w3.org/2000/svg" viewBox="0 0 24 24" width="24" height="24">
  <title>camera.macro.slash.circle.fill</title>
  <path transform="matrix(0.7934294126762746, 0, 0, 0.7934294126762746, 0.33565783356578316, 18.713156671315666)" d="M14.70 4.14C21.66 4.14 27.30-1.50 27.30-8.46C27.30-15.42 21.66-21.06 14.70-21.06C7.75-21.06 2.10-15.42 2.10-8.46C2.10-1.50 7.75 4.14 14.70 4.14ZM19.25-2.77L9-13.00C8.68-13.30 8.70-13.83 9-14.14C9.32-14.46 9.84-14.47 10.16-14.14L20.40-3.91C20.72-3.60 20.71-3.08 20.40-2.77C20.09-2.46 19.56-2.46 19.25-2.77ZM18.95-11.73C18.95-10.30 18.34-9.07 17.31-8.33L11.45-14.17C11.46-14.18 11.46-14.19 11.47-14.20C11.67-14.27 11.93-14.21 12.14-14.00L13.27-12.87L14.21-14.10C14.51-14.47 15.01-14.46 15.30-14.10L16.27-12.87L17.38-14.00C17.74-14.38 18.28-14.27 18.52-13.84C18.86-13.15 18.95-12.45 18.95-11.73ZM7.56-5.75C7.36-6.29 7.63-6.70 8.19-6.70C10.16-6.70 11.84-5.98 13.03-4.77L13.03-1.71C13.03-1.54 13.08-1.34 13.13-1.18C10.54-1.70 8.36-3.46 7.56-5.75ZM21.94-5.75C21.76-5.24 21.52-4.73 21.25-4.38L19.22-6.40C19.88-6.60 20.57-6.70 21.30-6.70C21.88-6.70 22.14-6.29 21.94-5.75ZM15.50-3.63C15.69-3.96 15.91-4.25 16.17-4.52L18.67-2.02C17.53-1.38 16.18-0.98 14.75-0.98C14.34-0.98 14.02-1.31 14.02-1.71L14.02-6.68L15.50-5.18Z" fill="currentColor"/>
</svg>