<svg xmlns="http://www.w3.org/2000/svg" viewBox="0 0 24 24" width="24" height="24">
  
  <path transform="matrix(0.42752171008684037, 0, 0, 0.42752171008684037, 1.1032064128256511, 15.609719438877756)" d="M25.50 3.41C32.05 3.41 37.35-1.89 37.35-8.44C37.35-14.99 32.05-20.30 25.50-20.30C18.94-20.30 13.64-14.99 13.64-8.44C13.64-1.89 18.94 3.41 25.50 3.41ZM7.13-0.48C7.61-1.05 7.45-1.77 6.93-2.36C5.55-3.88 4.78-6.07 4.78-8.46C4.78-10.84 5.53-13.03 6.93-14.57C7.46-15.14 7.61-15.86 7.13-16.44C6.60-17.06 5.68-17.18 4.93-16.38C3.16-14.51 2.10-11.52 2.10-8.46C2.10-5.38 3.04-2.48 4.93-0.53C5.71 0.26 6.61 0.16 7.13-0.48ZM43.85-0.46C44.37 0.19 45.27 0.28 46.04-0.50C47.94-2.46 48.88-5.36 48.88-8.44C48.88-11.50 47.82-14.48 46.04-16.37C45.29-17.16 44.38-17.05 43.85-16.42C43.37-15.83 43.52-15.12 44.05-14.54C45.45-13.01 46.20-10.82 46.20-8.44C46.20-6.06 45.43-3.87 44.05-2.33C43.52-1.76 43.38-1.04 43.85-0.46ZM20.89-3.45C19.64-3.45 18.91-4.16 18.91-5.41L18.91-11.02C18.91-12.27 19.64-13.00 20.89-13.00L21.91-13.00C22.31-13.00 22.46-13.03 22.77-13.31L23.18-13.69C23.50-13.99 23.80-14.09 24.32-14.09L26.70-14.09C27.21-14.09 27.52-13.97 27.82-13.69L28.23-13.31C28.54-13.03 28.70-13.00 29.11-13.00L30.12-13.00C31.39-13.00 32.11-12.27 32.11-11.02L32.11-5.41C32.11-4.16 31.39-3.45 30.12-3.45ZM10.98-3.89C11.41-4.46 11.29-5.14 10.85-5.74C10.38-6.38 10.03-7.50 10.03-8.46C10.03-9.42 10.38-10.55 10.85-11.19C11.27-11.79 11.41-12.47 10.98-13.03C10.50-13.68 9.50-13.72 8.81-12.98C7.85-11.93 7.35-10.24 7.35-8.46C7.35-6.68 7.85-5.00 8.81-3.95C9.50-3.21 10.50-3.25 10.98-3.89ZM40.00-3.87C40.48-3.22 41.47-3.20 42.16-3.93C43.13-4.98 43.63-6.66 43.63-8.44C43.63-10.23 43.13-11.91 42.16-12.97C41.47-13.70 40.48-13.65 40.00-13.02C39.56-12.45 39.70-11.77 40.13-11.17C40.59-10.54 40.95-9.40 40.95-8.44C40.95-7.49 40.59-6.35 40.13-5.72C39.69-5.12 39.56-4.44 40.00-3.87ZM25.51-5.20C27.20-5.20 28.55-6.55 28.55-8.25C28.55-9.94 27.20-11.29 25.51-11.29C23.82-11.29 22.46-9.94 22.46-8.25C22.46-6.56 23.82-5.20 25.51-5.20ZM29.95-9.64C30.39-9.64 30.76-10.01 30.76-10.46C30.76-10.91 30.39-11.27 29.95-11.27C29.50-11.27 29.13-10.91 29.13-10.46C29.13-10.01 29.50-9.64 29.95-9.64ZM25.50-6.74C24.68-6.74 24.01-7.42 24.01-8.25C24.01-9.09 24.68-9.76 25.50-9.76C26.33-9.76 27.01-9.09 27.01-8.25C27.01-7.42 26.33-6.74 25.50-6.74Z" fill="currentColor"/>
</svg>