<svg xmlns="http://www.w3.org/2000/svg" viewBox="0 0 24 24" width="24" height="24">
  <title>capsule.on.rectangle.fill</title>
  <path transform="matrix(0.6246949731576379, 0, 0, 0.6246949731576379, 0.13323572474377743, 17.29282576866764)" d="M2.99-5.79C2.99-3.26 4.28-1.71 6.63-1.48L6.84-1.48C6.46-2.70 6.26-4.02 6.26-5.45C6.26-12.53 11.25-17.37 18.47-17.37L24.66-17.37C25.71-17.37 26.73-17.26 27.70-17.05L27.70-17.23C27.70-19.98 26.10-21.55 23.32-21.55L7.37-21.55C4.57-21.55 2.99-19.97 2.99-17.18ZM18.47 4.61L24.66 4.61C30.84 4.61 35.00 0.60 35.00-5.45C35.00-11.48 30.84-15.50 24.66-15.50L18.47-15.50C12.26-15.50 8.12-11.48 8.12-5.45C8.12 0.60 12.26 4.61 18.47 4.61Z" fill="currentColor"/>
</svg>