<svg xmlns="http://www.w3.org/2000/svg" viewBox="0 0 24 24" width="24" height="24">
  <title>car.top.video.rear.left</title>
  <path transform="matrix(0.6009346991281678, 0, 0, 0.6009346991281678, 3.4156028310983944, 17.126653129616848)" d="M17.27-2.19C21.82-2.19 23.92-3.41 23.92-6.20L23.92-15.48L24.41-15.48C25.11-15.48 25.58-16.02 25.58-16.79L25.58-16.95C25.58-17.72 25.11-18.26 24.41-18.26L23.92-18.26L23.92-20.60C23.92-23.58 21.56-25.17 17.27-25.17C13.01-25.17 10.64-23.57 10.64-20.60L10.64-18.33L10.15-18.33C9.45-18.33 8.98-17.79 8.98-17.02L8.98-16.86C8.98-16.09 9.45-15.56 10.15-15.56L10.64-15.56L10.64-6.20C10.64-3.41 12.74-2.19 17.27-2.19ZM17.27-4.70C14.36-4.70 13.17-5.18 13.17-6.28L13.17-20.54C13.17-21.91 14.54-22.64 17.27-22.64C20.03-22.64 21.39-21.91 21.39-20.54L21.39-6.28C21.39-5.18 20.20-4.70 17.27-4.70ZM17.27-15.12C18.11-15.12 19.25-15.04 19.52-15.04C20.23-15.04 20.54-15.33 20.60-16.04L20.74-17.66C20.87-18.97 19.89-19.48 17.27-19.48C14.67-19.48 13.69-18.97 13.80-17.66L13.96-16.04C14.02-15.33 14.33-15.04 15.04-15.04C15.30-15.04 16.44-15.12 17.27-15.12ZM17.27-6.27C19.99-6.27 20.91-6.74 20.72-8.09L20.60-8.85C20.45-9.95 19.54-10.29 17.27-10.29C15.01-10.29 14.11-9.95 13.95-8.85L13.84-8.09C13.65-6.74 14.57-6.27 17.27-6.27ZM10.65 2.36L12.12 2.23C12.40 2.20 12.62 2.16 12.77 2.00C13.02 1.76 13.02 1.43 12.76 1.17L9.94-1.65C9.68-1.91 9.34-1.91 9.11-1.66C8.95-1.51 8.91-1.29 8.88-1.01L8.75 0.45ZM7.92 7.58L10.56 4.95C11.20 4.29 11.21 3.59 10.59 2.96L8.10 0.47C7.48-0.15 6.79-0.15 6.13 0.50L3.48 3.14C2.84 3.80 2.82 4.51 3.45 5.12L5.99 7.68C6.61 8.30 7.27 8.24 7.92 7.58Z" fill="currentColor"/>
</svg>