<svg xmlns="http://www.w3.org/2000/svg" viewBox="0 0 24 24" width="24" height="24">
  
  <path transform="matrix(0.6687565308254964, 0, 0, 0.6687565308254964, 0.0015673981191222097, 17.693573667711597)" d="M2.99-18.70L2.99-0.61L10.10-0.61C9.98-1.05 9.93-1.51 9.93-1.98C9.93-5.07 12.43-7.56 15.52-7.56C18.60-7.56 21.11-5.07 21.11-1.98C21.11-1.51 21.04-1.05 20.93-0.61L21.28-0.61C22.78-0.61 23.91-1.03 24.67-1.84L28.76-1.84L28.76-1.30C28.76-0.73 29.18-0.32 29.73-0.32C30.30-0.32 30.71-0.73 30.71-1.30L30.71-1.84L31.83-1.84C32.41-1.84 32.89-2.32 32.89-2.92C32.89-3.50 32.41-3.98 31.83-3.98L30.71-3.98L30.71-5.31L30.91-5.31C31.05-5.31 31.13-5.36 31.25-5.43C31.85-5.92 32.25-6.63 32.25-7.44C32.25-8.81 31.11-9.98 29.73-9.98C28.32-9.98 27.20-8.81 27.20-7.44C27.20-6.63 27.59-5.92 28.18-5.43C28.32-5.36 28.39-5.31 28.52-5.31L28.76-5.31L28.76-3.98L25.66-3.98C25.73-4.39 25.78-4.85 25.78-5.34L25.78-8.70C25.78-11.24 24.45-12.80 21.91-13.69L20.12-14.32C17.78-16.36 14.16-18.95 9.47-18.95L7.54-18.95C5.68-18.95 4.23-18.88 2.99-18.70ZM15.52 1.92C17.67 1.92 19.43 0.18 19.43-1.98C19.43-4.15 17.67-5.88 15.52-5.88C13.36-5.88 11.60-4.15 11.60-1.98C11.60 0.18 13.36 1.92 15.52 1.92Z" fill="currentColor"/>
</svg>