<svg xmlns="http://www.w3.org/2000/svg" viewBox="0 0 24 24" width="24" height="24">
  
  <path transform="matrix(0.6208318176306535, 0, 0, 0.6208318176306535, 1.0251000363768654, 17.249181520552927)" d="M14.12 7.65C20.48 7.65 23.33 5.98 23.33 2.19L23.33-11.24L23.82-11.24C24.69-11.24 25.25-11.88 25.25-12.87L25.25-13.08C25.25-14.06 24.69-14.72 23.82-14.72L23.33-14.72L23.33-18.28C23.33-22.38 20.11-24.56 14.12-24.56C8.14-24.56 4.92-22.36 4.92-18.28L4.92-14.82L4.43-14.82C3.56-14.82 2.99-14.17 2.99-13.18L2.99-12.97C2.99-11.99 3.56-11.34 4.43-11.34L4.92-11.34L4.92 2.19C4.92 5.98 7.77 7.65 14.12 7.65ZM14.12 4.52C9.94 4.52 8.06 3.77 8.06 2.06L8.06-18.19C8.06-20.29 10.20-21.41 14.12-21.41C18.06-21.41 20.19-20.27 20.19-18.19L20.19 2.06C20.19 3.77 18.32 4.52 14.12 4.52ZM32.37-14.78L32.37-20.23C32.37-21.14 31.51-21.57 30.73-21.11L26.26-18.43C25.52-17.99 25.50-17.00 26.26-16.56L30.73-13.89C31.50-13.43 32.37-13.83 32.37-14.78ZM14.12-10.66C15.30-10.66 16.93-10.56 17.31-10.56C18.20-10.56 18.57-10.90 18.64-11.81L18.86-14.12C19.01-15.83 17.71-16.49 14.12-16.49C10.55-16.49 9.25-15.83 9.40-14.12L9.60-11.81C9.68-10.90 10.05-10.56 10.95-10.56C11.32-10.56 12.94-10.66 14.12-10.66ZM14.12 1.88C17.86 1.88 19.09 1.28 18.82-0.48L18.66-1.56C18.46-2.99 17.26-3.47 14.12-3.47C10.98-3.47 9.80-2.99 9.59-1.56L9.43-0.48C9.16 1.28 10.38 1.88 14.12 1.88Z" fill="currentColor"/>
</svg>