<svg xmlns="http://www.w3.org/2000/svg" viewBox="0 0 24 24" width="24" height="24">
  
  <path transform="matrix(0.5984104721832632, 0, 0, 0.5984104721832632, 0.21178120617110996, 16.682854293952786)" d="M19.37-11.98L21.07-14.78L24.76-11.46C25.10-11.16 25.56-11.50 25.35-11.91L23.18-15.97L25.44-16.65C25.70-16.73 25.72-17.05 25.46-17.16L23.46-17.99L24.90-22.10C25.01-22.41 24.66-22.72 24.38-22.44L22.09-20.26L21.55-22.35C21.46-22.69 21.04-22.72 20.94-22.34L20.44-20.27L17.78-23.00C17.52-23.26 17.11-23.05 17.24-22.66L18.16-19.92L17.06-20.43C16.68-20.60 16.42-20.29 16.68-19.95L17.27-19.17L14.18-19.61C13.75-19.66 13.61-19.17 13.96-18.96L16.90-17.19L15.23-16.56C15.15-16.52 15.07-16.48 15.02-16.39L15.53-15.89L17.20-15.79L16.24-15.13L17.43-13.93L18.20-14.11L18.21-13.15ZM33.19 7.17C33.60 7.56 34.25 7.57 34.64 7.17C35.04 6.76 35.05 6.12 34.64 5.72L7.42-21.50C7.01-21.91 6.35-21.91 5.94-21.50C5.55-21.12 5.55-20.45 5.94-20.05ZM2.99-0.09L2.99 2.79L5.12 2.79C5.86 4.22 7.35 5.18 9.09 5.18C10.84 5.18 12.33 4.22 13.07 2.79L14.12 2.79C16.78 2.79 18.18 1.31 18.18-1.49L18.18-4.50C18.18-4.85 18.15-5.19 18.07-5.48L14.47-9.08C14.04-9.23 13.61-9.40 13.08-9.59C10.93-11.43 7.69-13.76 3.50-13.76L2.99-13.76L2.99-10.85L3.50-10.85C6.16-10.85 8.25-9.87 11.03-7.45C11.59-6.94 11.98-6.77 12.73-6.53L13.83-6.19C14.78-5.87 15.28-5.24 15.28-4.31L15.28-1.49C15.28-0.57 14.89-0.09 14.12-0.09L13.50-0.09C13.13-2.20 11.33-3.76 9.09-3.76C6.86-3.76 5.05-2.20 4.69-0.09ZM26.57-5.37L30.93-5.89C31.61-5.98 32.18-6.16 32.72-6.49L36.41-8.80L36.41-12.21C36.02-12 35.65-11.79 35.25-11.53L30.91-8.79L26.19-8.23C25.29-8.12 24.47-7.89 23.77-7.54L26.03-5.27C26.19-5.31 26.38-5.34 26.57-5.37ZM24.83 2.79L26.45 2.79L24.22 0.57L24.07 0.57C23.37 0.48 22.97 0.11 22.88-0.64L22.88-0.75L20.78-2.82L20.78-1.39C20.78 1.35 22.20 2.79 24.83 2.79ZM9.09 2.41C8.13 2.41 7.37 1.66 7.37 0.70C7.37-0.25 8.13-1.02 9.09-1.02C10.05-1.02 10.80-0.25 10.80 0.70C10.80 1.66 10.05 2.41 9.09 2.41ZM34.09 2.79L36.40 2.79L36.40-0.09L31.21-0.09Z" fill="currentColor"/>
</svg>