<svg xmlns="http://www.w3.org/2000/svg" viewBox="0 0 24 24" width="24" height="24">
  
  <path transform="matrix(0.49219027593222653, 0, 0, 0.49219027593222653, 0.52773681059533, 16.198998291546808)" d="M16.62-11.45C16.62-11.03 16.95-10.69 17.38-10.69L18.05-10.69C18.48-10.69 18.81-11.03 18.81-11.45L18.81-12.13L27.90-12.13L27.90-11.45C27.90-11.03 28.23-10.69 28.65-10.69L29.33-10.69C29.75-10.69 30.08-11.03 30.08-11.45L30.08-15.22C30.08-16.25 29.99-16.86 29.43-17.50L28.88-18.12L28.30-19.69C27.90-20.79 27.21-21.20 26.39-21.30C25.93-21.36 24.87-21.40 23.36-21.40C21.83-21.40 20.77-21.36 20.31-21.30C19.49-21.20 18.81-20.79 18.41-19.69L17.84-18.12L17.27-17.50C16.72-16.86 16.62-16.25 16.62-15.22ZM19.85-17.94C19.50-17.94 19.31-18.16 19.43-18.48L19.75-19.38C19.90-19.80 20.17-19.92 20.61-19.98C20.91-20.02 21.86-20.04 23.36-20.04C24.84-20.04 25.80-20.02 26.10-19.98C26.53-19.92 26.81-19.80 26.95-19.38L27.27-18.48C27.39-18.16 27.20-17.94 26.85-17.94ZM19.16-14.39C18.76-14.39 18.46-14.68 18.46-15.08L18.46-15.89C18.46-16.28 18.76-16.57 19.16-16.57C19.55-16.57 19.85-16.29 19.85-15.89L19.85-15.08C19.85-14.68 19.55-14.39 19.16-14.39ZM27.60-14.39C27.21-14.39 26.91-14.68 26.91-15.08L26.91-15.89C26.91-16.28 27.21-16.57 27.60-16.57C28.00-16.57 28.29-16.29 28.29-15.89L28.29-15.08C28.29-14.67 28.00-14.39 27.60-14.39ZM22.15-14.66C21.82-14.66 21.60-14.89 21.60-15.23L21.60-15.73C21.60-16.08 21.82-16.30 22.15-16.30L24.53-16.30C24.86-16.30 25.09-16.08 25.09-15.73L25.09-15.23C25.09-14.88 24.86-14.66 24.53-14.66ZM4.49 4.34L6.30 4.34C7.30 4.34 7.83 3.81 8.10 3.13L14.17-11.73C14.47-12.46 14.06-13.15 13.29-13.15L11.92-13.15C11.36-13.15 10.88-12.87 10.58-12.28L3.19 2.24C2.70 3.21 3.13 4.34 4.49 4.34ZM40.31 4.34L42.13 4.34C43.49 4.34 43.92 3.21 43.43 2.24L36.04-12.28C35.74-12.87 35.26-13.15 34.70-13.15L33.32-13.15C32.55-13.15 32.14-12.46 32.45-11.72L38.52 3.13C38.79 3.81 39.32 4.34 40.31 4.34ZM14.32-7.73L32.29-7.73L31.54-9.63L15.09-9.63ZM13.10-4.70L33.50-4.70L32.75-6.62L13.88-6.62Z" fill="currentColor"/>
</svg>