<svg xmlns="http://www.w3.org/2000/svg" viewBox="0 0 24 24" width="24" height="24">
  
  <path transform="matrix(0.6208318176306535, 0, 0, 0.6208318176306535, 1.0251000363768654, 17.249181520552927)" d="M14.12 7.65C20.48 7.65 23.33 5.98 23.33 2.19L23.33-11.24L23.82-11.24C24.69-11.24 25.25-11.88 25.25-12.87L25.25-13.08C25.25-14.06 24.69-14.72 23.82-14.72L23.33-14.72L23.33-18.28C23.33-22.38 20.11-24.56 14.12-24.56C8.14-24.56 4.92-22.36 4.92-18.28L4.92-14.82L4.43-14.82C3.56-14.82 2.99-14.17 2.99-13.18L2.99-12.97C2.99-11.99 3.56-11.34 4.43-11.34L4.92-11.34L4.92 2.19C4.92 5.98 7.77 7.65 14.12 7.65ZM32.37-14.78L32.37-20.23C32.37-21.14 31.51-21.57 30.73-21.11L26.26-18.43C25.52-17.99 25.50-17.00 26.26-16.56L30.73-13.89C31.50-13.43 32.37-13.83 32.37-14.78ZM14.12-10.79C12.89-10.79 11.23-10.69 10.83-10.69C9.89-10.69 9.50-11.04 9.42-11.99L9.22-14.37C9.06-16.16 10.41-16.85 14.12-16.85C17.84-16.85 19.20-16.16 19.03-14.37L18.82-11.99C18.75-11.04 18.35-10.69 17.43-10.69C17.03-10.69 15.34-10.79 14.12-10.79ZM14.12 2.23C10.24 2.23 8.98 1.61 9.26-0.22L9.41-1.35C9.63-2.82 10.86-3.33 14.12-3.33C17.38-3.33 18.62-2.82 18.83-1.35L19.00-0.22C19.28 1.61 18.01 2.23 14.12 2.23Z" fill="currentColor"/>
</svg>