<svg xmlns="http://www.w3.org/2000/svg" viewBox="0 0 24 24" width="24" height="24">
  <title>car.rear.and.tire.marks.slash</title>
  <path transform="matrix(0.7030705908114152, 0, 0, 0.7030705908114152, -0.10140851388618755, 17.92803855572828)" d="M21.23-9.18L24.09-9.18L24.09-8.31C24.09-7.68 24.59-7.18 25.23-7.18L26.17-7.18C26.81-7.18 27.32-7.68 27.32-8.31L27.32-13.55C27.32-15.01 27.20-15.90 26.39-16.79L25.62-17.64L24.82-19.80C24.23-21.38 23.26-21.97 22.09-22.10C21.47-22.20 19.96-22.24 17.86-22.24C15.76-22.24 14.26-22.20 13.64-22.10C12.46-21.97 11.51-21.36 10.91-19.80L10.83-19.58L12.47-17.94C12.47-18 12.49-18.05 12.50-18.11L12.93-19.32C13.11-19.85 13.44-19.99 14.05-20.09C14.47-20.14 15.79-20.16 17.86-20.16C19.95-20.16 21.26-20.14 21.66-20.09C22.28-19.99 22.62-19.85 22.79-19.32L23.23-18.06C23.36-17.67 23.17-17.44 22.71-17.44L12.97-17.44L15.67-14.73L15.67-14.74C15.79-14.88 15.96-14.98 16.20-14.98L19.49-14.98C19.92-14.98 20.18-14.71 20.18-14.27L20.18-13.57C20.18-13.14 19.92-12.87 19.49-12.87L17.53-12.87ZM29.68 4.82C30.08 5.21 30.74 5.19 31.14 4.80C31.54 4.39 31.54 3.75 31.14 3.35L6.06-21.73C5.66-22.13 4.99-22.14 4.58-21.73C4.20-21.34 4.20-20.66 4.58-20.27ZM23.77-12.50C23.25-12.50 22.89-12.86 22.89-13.36L22.89-14.50C22.89-15 23.25-15.36 23.77-15.36C24.27-15.36 24.64-15.01 24.64-14.50L24.64-13.36C24.64-12.83 24.27-12.50 23.77-12.50ZM9.56-7.18L10.50-7.18C11.13-7.18 11.64-7.68 11.64-8.31L11.64-9.18L13.07-9.18L8.45-13.78C8.43-13.64 8.40-13.52 8.40-13.35L8.40-8.31C8.40-7.68 8.92-7.18 9.56-7.18ZM14.44-4.66L13.52-5.34C13.18-5.60 12.80-5.72 12.39-5.72L9.50-5.72C9.02-5.72 8.85-5.13 9.22-4.85L11.07-3.49C11.66-3.08 11.58-2.52 10.92-2.21L4.89 0.39C2.58 1.38 2.37 2.89 4.30 4.32L5.21 5.00C5.55 5.26 5.94 5.38 6.35 5.38L9.22 5.38C9.71 5.38 9.89 4.80 9.50 4.52L7.65 3.15C7.08 2.74 7.15 2.18 7.82 1.89L13.85-0.73C16.16-1.72 16.37-3.22 14.44-4.66ZM27.82-4.66L26.91-5.34C26.57-5.59 26.18-5.71 25.76-5.71L24.75-5.71L28.72-1.73C29.47-2.60 29.17-3.66 27.82-4.66ZM21.32-0.93L18.27 0.39C15.96 1.38 15.75 2.89 17.67 4.34L18.60 5.02C18.94 5.26 19.32 5.38 19.73 5.38L22.61 5.38C23.10 5.38 23.27 4.80 22.89 4.52L21.04 3.16C20.46 2.74 20.53 2.17 21.20 1.89L23.24 1.01Z" fill="currentColor"/>
</svg>