<svg xmlns="http://www.w3.org/2000/svg" viewBox="0 0 24 24" width="24" height="24">
  <title>car.side.lock.fill</title>
  <path transform="matrix(0.447826467243943, 0, 0, 0.447826467243943, 0.661768564681186, 17.489372868013646)" d="M25.59-13.86L31.45-13.86C32.44-13.86 32.95-14.37 32.95-15.46L32.95-20.06C32.95-20.99 32.58-21.50 31.83-21.62L31.83-23.03C31.83-25.07 30.49-26.44 28.51-26.44C26.54-26.44 25.20-25.07 25.20-23.03L25.20-21.62C24.46-21.50 24.08-20.99 24.08-20.06L24.08-15.46C24.08-14.37 24.60-13.86 25.59-13.86ZM26.96-23.10C26.96-24.05 27.59-24.70 28.51-24.70C29.44-24.70 30.07-24.05 30.07-23.10L30.07-21.66L26.96-21.66ZM43.79-13.69L42-14.32C40.27-15.84 37.84-17.63 34.80-18.45L34.80-15.46C34.80-13.35 33.46-12.01 31.44-12.01L25.59-12.01C23.55-12.01 22.22-13.35 22.22-15.46L22.22-18.06C21.13-17.71 20.13-17.19 19.02-16.48L14.21-13.45L8.98-12.82C5.26-12.38 2.99-9.98 2.99-6.75L2.99-5.25C2.99-2.21 4.55-0.61 7.48-0.61L7.84-0.61C7.72-1.05 7.66-1.51 7.66-1.98C7.66-5.07 10.17-7.56 13.25-7.56C16.34-7.56 18.83-5.07 18.83-1.98C18.83-1.51 18.77-1.05 18.66-0.61L31.98-0.61C31.86-1.05 31.80-1.51 31.80-1.98C31.80-5.07 34.31-7.56 37.39-7.56C40.48-7.56 42.97-5.07 42.97-1.98C42.97-1.51 42.91-1.05 42.80-0.61L43.16-0.61C46.10-0.61 47.65-2.24 47.65-5.34L47.65-8.70C47.65-11.24 46.31-12.80 43.79-13.69ZM13.25 1.92C15.41 1.92 17.16 0.18 17.16-1.98C17.16-4.15 15.41-5.88 13.25-5.88C11.09-5.88 9.34-4.15 9.34-1.98C9.34 0.18 11.09 1.92 13.25 1.92ZM37.39 1.92C39.55 1.92 41.30 0.18 41.30-1.98C41.30-4.15 39.55-5.88 37.39-5.88C35.24-5.88 33.48-4.15 33.48-1.98C33.48 0.18 35.24 1.92 37.39 1.92Z" fill="currentColor"/>
</svg>