<svg xmlns="http://www.w3.org/2000/svg" viewBox="0 0 24 24" width="24" height="24">
  
  <path transform="matrix(0.4851241235550502, 0, 0, 0.4851241235550502, 0.5503126776577603, 16.329164297896533)" d="M4.68 2.99L6.19 2.99C7.13 2.99 7.86 2.25 7.86 1.31L7.86-0.93C9.07-0.84 10.59-0.77 12.20-0.73L12.20-6.22C12.20-8.54 12.47-9.86 13.66-11.29L14.84-12.67L14.94-13.01C12.39-12.98 11.43-12.95 9.96-12.90C9.20-12.88 8.88-13.31 9.06-14.02C9.26-14.84 9.66-16.05 9.95-16.66C10.25-17.31 10.82-17.59 11.79-17.73C12.43-17.82 13.90-17.86 16.46-17.88C16.79-19.07 17.31-20.05 18.07-20.84C14.30-20.82 12.16-20.74 11.20-20.61C9.39-20.39 7.98-19.42 7.25-17.86C6.84-16.99 6.07-14.78 5.63-12.67L4.45-11.29C3.32-9.81 2.99-8.54 2.99-6.22L2.99 1.31C2.99 2.25 3.74 2.99 4.68 2.99ZM15.95 2.99L17.45 2.99C18.40 2.99 19.14 2.25 19.14 1.31L19.14-0.93C21.77-0.75 25.85-0.61 29.24-0.61C32.64-0.61 36.71-0.74 39.35-0.93L39.35 1.31C39.35 2.25 40.09 2.99 41.04 2.99L42.54 2.99C43.49 2.99 44.21 2.25 44.21 1.31L44.21-6.22C44.21-8.54 43.90-9.81 42.76-11.29L41.58-12.67C41.14-14.78 40.36-16.98 39.95-17.86C39.22-19.42 37.82-20.37 36-20.61C34.98-20.75 32.63-20.84 29.24-20.84C25.86-20.84 23.51-20.74 22.49-20.61C20.67-20.38 19.27-19.42 18.54-17.86C18.13-16.98 17.34-14.78 16.90-12.67L15.73-11.29C14.59-9.81 14.26-8.54 14.26-6.22L14.26 1.31C14.26 2.25 15 2.99 15.95 2.99ZM20.31-14.04C20.51-14.87 20.89-16.04 21.14-16.51C21.54-17.33 22.07-17.64 23.06-17.77C23.73-17.87 25.77-17.92 29.24-17.92C32.71-17.92 34.76-17.87 35.44-17.77C36.41-17.64 36.94-17.33 37.35-16.51C37.59-16.04 37.98-14.87 38.17-14.04C38.34-13.34 38.04-12.91 37.27-12.93C35.89-12.98 33.73-13.09 29.24-13.09C24.77-13.09 22.61-12.98 21.22-12.93C20.45-12.91 20.13-13.34 20.31-14.04ZM8.05-4.80C6.95-4.80 6.12-5.64 6.12-6.74C6.12-7.84 6.95-8.67 8.05-8.67C9.15-8.67 9.98-7.84 9.98-6.74C9.98-5.64 9.15-4.80 8.05-4.80ZM20.27-4.18C19.02-4.18 18.07-5.13 18.07-6.39C18.07-7.63 19.02-8.58 20.27-8.58C21.52-8.58 22.46-7.63 22.46-6.39C22.46-5.13 21.52-4.18 20.27-4.18ZM38.21-4.18C36.97-4.18 36.02-5.13 36.02-6.39C36.02-7.63 36.97-8.58 38.21-8.58C39.47-8.58 40.42-7.63 40.42-6.39C40.42-5.13 39.47-4.18 38.21-4.18ZM25.88-4.76C24.95-4.76 24.27-5.44 24.27-6.36C24.27-7.30 24.95-7.98 25.88-7.98L32.60-7.98C33.54-7.98 34.22-7.30 34.22-6.36C34.22-5.44 33.54-4.76 32.60-4.76Z" fill="currentColor"/>
</svg>