<svg xmlns="http://www.w3.org/2000/svg" viewBox="0 0 24 24" width="24" height="24">
  <title>car.rear.fill</title>
  <path transform="matrix(0.6677099634846114, 0, 0, 0.6677099634846114, 0.004694835680751019, 17.935054773082943)" d="M2.99 1.34C2.99 2.29 3.73 3.02 4.68 3.02L6.18 3.02C7.13 3.02 7.86 2.29 7.86 1.34L7.86-0.19L28.08-0.19L28.08 1.34C28.08 2.29 28.80 3.02 29.75 3.02L31.27 3.02C32.20 3.02 32.94 2.29 32.94 1.34L32.94-7.04C32.94-9.36 32.72-10.71 31.48-12.11L30.25-13.49L28.97-16.99C28.08-19.44 26.55-20.34 24.73-20.58C23.71-20.72 21.34-20.80 17.96-20.80C14.59-20.80 12.23-20.72 11.20-20.58C9.38-20.34 7.85-19.44 6.96-16.99L5.68-13.49L4.45-12.11C3.21-10.71 2.99-9.36 2.99-7.04ZM10.21-13.09C9.41-13.09 8.99-13.59 9.25-14.31L9.95-16.31C10.28-17.23 10.89-17.50 11.88-17.64C12.53-17.72 14.64-17.77 17.96-17.77C21.28-17.77 23.40-17.72 24.05-17.64C25.03-17.50 25.65-17.23 25.97-16.31L26.68-14.31C26.93-13.59 26.51-13.09 25.71-13.09ZM8.65-5.20C7.77-5.20 7.10-5.86 7.10-6.73L7.10-8.53C7.10-9.41 7.77-10.07 8.65-10.07C9.53-10.07 10.20-9.42 10.20-8.53L10.20-6.73C10.20-5.85 9.53-5.20 8.65-5.20ZM27.39-5.20C26.52-5.20 25.84-5.87 25.84-6.73L25.84-8.53C25.84-9.40 26.52-10.07 27.39-10.07C28.27-10.07 28.92-9.42 28.92-8.53L28.92-6.73C28.92-5.84 28.27-5.20 27.39-5.20ZM15.30-5.79C14.57-5.79 14.07-6.32 14.07-7.08L14.07-8.19C14.07-8.95 14.57-9.46 15.30-9.46L20.57-9.46C21.32-9.46 21.82-8.95 21.82-8.19L21.82-7.08C21.82-6.29 21.30-5.79 20.57-5.79Z" fill="currentColor"/>
</svg>