<svg xmlns="http://www.w3.org/2000/svg" viewBox="0 0 24 24" width="24" height="24">
  <title>car.top.lane.dashed.departure.left.slash</title>
  <path transform="matrix(0.6851671432933181, 0, 0, 0.6851671432933181, 0.9782712619053744, 18.09975509604704)" d="M28.93 5.39C29.32 5.78 30 5.79 30.39 5.39C30.77 4.98 30.79 4.34 30.39 3.94L3.25-23.19C2.85-23.59 2.18-23.59 1.78-23.19C1.39-22.80 1.39-22.13 1.78-21.74ZM28.22-13.95L29.34-13.95C30.06-13.95 30.61-14.51 30.61-15.22L30.61-19.71C30.61-20.44 30.06-20.99 29.34-20.99L28.22-20.99C27.50-20.99 26.95-20.44 26.95-19.71L26.95-15.22C26.95-14.51 27.50-13.95 28.22-13.95ZM14.41-15.14L13.30-17.07C12.56-18.34 11.47-19.01 10.10-19.07L10.13-19.04C10.23-19.07 10.30-19.05 10.34-19.00L16.30-12.88L16.38-12.80L16.22-13.08L16.28-13.11C16.77-13.46 16.86-14.10 16.54-14.73L16.45-14.86C16.11-15.54 15.42-15.74 14.82-15.40ZM9.11 1.55C10.48 3.90 12.83 3.93 16.68 1.71C18.18 0.84 19.25 0.01 19.93-0.84L18.08-2.70C17.86-2.05 17.03-1.32 15.45-0.41C13.00 1.00 11.74 1.17 11.21 0.25L4.27-11.77C3.66-12.83 4.31-13.92 5.81-14.95L4.03-16.72C1.44-14.75 0.91-12.64 2.10-10.59L3.25-8.61L2.82-8.37C2.23-8.03 2.12-7.36 2.47-6.68L2.54-6.55C2.88-5.88 3.57-5.68 4.17-6.02L4.59-6.28ZM8.53-8.03C9.43-8.65 10.30-9.14 11.14-9.61L8.04-12.74C6.47-11.78 5.37-10.86 6.21-9.66L7.13-8.36C7.52-7.79 7.97-7.65 8.53-8.03ZM28.22-5.11L29.34-5.11C30.06-5.11 30.61-5.66 30.61-6.39L30.61-10.86C30.61-11.59 30.06-12.14 29.34-12.14L28.22-12.14C27.50-12.14 26.95-11.59 26.95-10.86L26.95-6.39C26.95-5.66 27.50-5.11 28.22-5.11ZM10.90-1.59C11.41-0.35 12.40-0.42 14.68-1.73C16.16-2.59 16.86-3.23 16.89-3.89L14.82-5.95C14.30-5.92 13.62-5.64 12.73-5.12C10.82-4.02 10.22-3.29 10.63-2.29ZM4.27 3.79L5.38 3.79C6.09 3.79 6.66 3.23 6.66 2.52L6.66-2.05C6.66-2.77 6.09-3.32 5.38-3.32L4.27-3.32C3.54-3.32 2.99-2.77 2.99-2.05L2.99 2.52C2.99 3.23 3.54 3.79 4.27 3.79ZM28.22-3.32C27.59-3.32 27.08-2.85 27.05-2.23L27.05-2.13L30.61 1.43L30.61-2.05C30.61-2.77 30.06-3.32 29.34-3.32Z" fill="currentColor"/>
</svg>