<svg xmlns="http://www.w3.org/2000/svg" viewBox="0 0 24 24" width="24" height="24">
  <title>car.front.waves.left.and.right.and.up.fill</title>
  <path transform="matrix(0.42181578513758444, 0, 0, 0.42181578513758444, 1.1151754819574888, 16.34503213049926)" d="M25.82-22.55C28.34-22.55 30.66-21.75 32.27-20.29C32.88-19.73 33.64-19.56 34.27-20.07C34.95-20.63 35.04-21.60 34.21-22.41C32.13-24.40 29.07-25.41 25.82-25.41C22.58-25.41 19.39-24.30 17.44-22.41C16.61-21.60 16.70-20.63 17.38-20.07C18-19.56 18.76-19.73 19.37-20.29C20.99-21.75 23.31-22.55 25.82-22.55ZM25.83-17.32C26.85-17.32 28.03-16.95 28.70-16.46C29.32-16.01 30.06-15.87 30.66-16.32C31.34-16.85 31.38-17.89 30.61-18.62C29.50-19.64 27.71-20.18 25.83-20.18C23.95-20.18 22.17-19.64 21.06-18.62C20.29-17.89 20.32-16.85 21.01-16.32C21.61-15.87 22.34-16.01 22.97-16.46C23.64-16.95 24.82-17.32 25.83-17.32ZM25.84 1.80C28.35 1.80 31.31 1.72 33.40 1.58L33.40 3.48C33.40 4.23 33.98 4.80 34.73 4.80L36.40 4.80C37.15 4.80 37.73 4.23 37.73 3.48L37.73-2.61C37.73-4.45 37.52-5.48 36.57-6.61L35.65-7.70C35.31-9.36 34.69-11.11 34.36-11.80C33.80-13.02 32.67-13.78 31.24-13.97C30.45-14.07 28.56-14.13 25.84-14.13C23.12-14.13 21.22-14.07 20.43-13.97C19.00-13.78 17.88-13.02 17.32-11.80C16.99-11.11 16.37-9.36 16.02-7.70L15.11-6.61C14.14-5.48 13.93-4.45 13.93-2.61L13.93 3.48C13.93 4.23 14.52 4.80 15.27 4.80L16.95 4.80C17.70 4.80 18.28 4.23 18.28 3.48L18.28 1.58C20.37 1.72 23.33 1.80 25.84 1.80ZM44.48 3.41C45 4.04 45.90 4.14 46.68 3.35C48.57 1.39 49.51-1.50 49.51-4.58C49.51-7.64 48.45-10.63 46.68-12.50C45.93-13.30 45.01-13.18 44.48-12.56C43.99-11.98 44.14-11.26 44.68-10.68C46.08-9.15 46.83-6.96 46.83-4.58C46.83-2.19 46.05 0 44.68 1.52C44.16 2.11 44.00 2.82 44.48 3.41ZM7.13 3.41C7.61 2.82 7.45 2.11 6.93 1.52C5.55 0 4.78-2.19 4.78-4.58C4.78-6.96 5.54-9.16 6.93-10.68C7.46-11.26 7.61-11.98 7.13-12.56C6.60-13.18 5.68-13.30 4.93-12.50C3.16-10.63 2.10-7.64 2.10-4.58C2.10-1.50 3.04 1.39 4.93 3.35C5.71 4.14 6.61 4.04 7.13 3.41ZM18.73-8.71C18.89-9.38 19.20-10.37 19.38-10.73C19.71-11.38 20.12-11.63 20.89-11.73C21.43-11.81 23.04-11.91 25.84-11.91C28.63-11.91 30.25-11.82 30.77-11.73C31.55-11.63 31.97-11.38 32.30-10.73C32.48-10.37 32.78-9.38 32.94-8.71C33.08-8.17 32.82-7.83 32.24-7.84C31.14-7.89 29.43-7.98 25.84-7.98C22.25-7.98 20.54-7.89 19.44-7.84C18.84-7.83 18.59-8.17 18.73-8.71ZM40.63-0.01C41.11 0.63 42.11 0.67 42.79-0.07C43.76-1.11 44.26-2.80 44.26-4.58C44.26-6.36 43.76-8.04 42.79-9.11C42.11-9.84 41.11-9.80 40.63-9.15C40.20-8.58 40.34-7.91 40.76-7.31C41.23-6.67 41.58-5.54 41.58-4.58C41.58-3.62 41.23-2.50 40.76-1.86C40.32-1.27 40.20-0.57 40.63-0.01ZM10.98-0.01C11.41-0.57 11.29-1.27 10.85-1.86C10.38-2.50 10.03-3.62 10.03-4.58C10.03-5.54 10.38-6.67 10.85-7.31C11.27-7.91 11.41-8.58 10.98-9.15C10.50-9.80 9.50-9.84 8.81-9.11C7.85-8.04 7.35-6.36 7.35-4.58C7.35-2.80 7.85-1.11 8.81-0.07C9.50 0.67 10.50 0.63 10.98-0.01ZM18.70-1.01C17.72-1.01 16.97-1.76 16.97-2.74C16.97-3.73 17.72-4.46 18.70-4.46C19.69-4.46 20.43-3.73 20.43-2.74C20.43-1.76 19.69-1.01 18.70-1.01ZM32.96-1.01C31.99-1.01 31.24-1.76 31.24-2.74C31.24-3.73 31.99-4.46 32.96-4.46C33.96-4.46 34.70-3.73 34.70-2.74C34.70-1.76 33.96-1.01 32.96-1.01ZM23.13-1.46C22.39-1.46 21.87-1.98 21.87-2.73C21.87-3.47 22.39-3.98 23.13-3.98L28.54-3.98C29.29-3.98 29.81-3.47 29.81-2.73C29.81-1.98 29.29-1.46 28.54-1.46Z" fill="currentColor"/>
</svg>