<svg xmlns="http://www.w3.org/2000/svg" viewBox="0 0 24 24" width="24" height="24">
  
  <path transform="matrix(0.5685098823006884, 0, 0, 0.5685098823006884, 0.3011325782811458, 16.800133244503662)" d="M7.37 2.96L25.45 2.96C28.25 2.96 29.84 1.38 29.84-1.41L29.84-15.52C29.84-18.28 28.25-19.85 25.48-19.85L19.70-19.85C17.54-19.85 16.14-19.37 14.39-18.08L5.23-11.25C3.57-10.02 2.99-8.81 2.99-6.82L2.99-1.41C2.99 1.38 4.57 2.96 7.37 2.96ZM35.93-6.25C37.03-6.25 37.72-6.88 37.78-8.03L38.03-14.37C38.09-15.62 37.24-16.45 35.92-16.45C34.57-16.45 33.73-15.62 33.79-14.37L34.07-7.99C34.11-6.88 34.82-6.25 35.93-6.25ZM9.28-8.47C8.68-8.47 8.50-9.18 9-9.55L16.92-15.47C17.67-16.04 18.27-16.23 19.28-16.23L24.98-16.23C25.79-16.23 26.20-15.87 26.20-15L26.20-9.71C26.20-9.01 25.78-8.47 24.98-8.47ZM35.93-0.48C37.25-0.48 38.17-1.35 38.17-2.57C38.17-3.77 37.25-4.63 35.93-4.63C34.59-4.63 33.66-3.77 33.66-2.57C33.66-1.35 34.61-0.48 35.93-0.48Z" fill="currentColor"/>
</svg>