<svg xmlns="http://www.w3.org/2000/svg" viewBox="0 0 24 24" width="24" height="24">
  <title>carseat.right.1</title>
  <path transform="matrix(0.6924720252103393, 0, 0, 0.6924720252103393, -0.06828337294628017, 17.867077432348538)" d="M31.63-0.66C32.77-4.73 29.87-6.66 22.78-6.66C20.10-6.66 17.44-6.48 15.07-6.13C15.22-10.21 14.05-13.59 11.79-15.68C12.08-19.00 9.91-21.91 6.81-21.91C3.98-21.91 2.46-19.76 3.15-16.98L7.78 1.73C8.31 3.83 9.70 4.97 11.78 4.97L26.44 4.97C29.23 4.97 30.45 3.63 31.63-0.66ZM26.14-10.51C26.99-10.51 27.52-11.04 27.52-11.88L27.52-19.31C27.52-20.20 26.92-20.74 25.93-20.74C25.27-20.74 24.91-20.57 24.26-20.12L22.59-19.02C22.23-18.77 22.03-18.47 22.03-18.07C22.03-17.50 22.45-17.10 23.04-17.10C23.25-17.10 23.43-17.13 23.65-17.30L24.69-17.96L24.74-17.96L24.74-11.88C24.74-11.04 25.28-10.51 26.14-10.51ZM28.55-1.52C27.71 1.51 27.43 1.76 26.44 1.76L11.78 1.76C11.30 1.76 11.05 1.52 10.91 0.97L6.26-17.80C6.13-18.35 6.36-18.70 6.87-18.70C8.09-18.70 8.95-17.53 8.65-15.57C8.52-14.75 8.71-14.23 9.21-13.80C11.24-12.09 12.19-9.46 12.16-4.59C12.16-3.53 12.90-2.78 13.97-2.79C15.19-2.81 18.28-3.46 22.78-3.46C27.71-3.46 28.95-2.92 28.55-1.52Z" fill="currentColor"/>
</svg>