<svg xmlns="http://www.w3.org/2000/svg" viewBox="0 0 24 24" width="24" height="24">
  
  <path transform="matrix(0.7691152170647438, 0, 0, 0.7691152170647438, 2.5588102748986037, 18.50292924740874)" d="M12.68 4.55C13.07 4.55 13.34 4.28 13.34 3.88L13.34 1.98C16.68 1.86 20.04 0.36 21.27-2.79C21.45-3.20 21.56-3.77 21.56-4.23C21.56-5.53 20.68-6.43 19.25-6.43C18.12-6.43 17.52-5.91 17.07-4.88C16.39-3.18 15.07-2.19 13.34-2.04L13.34-14.84C15.02-14.66 16.34-13.64 16.98-12.06C17.43-11.05 18.11-10.51 19.27-10.51C20.64-10.51 21.42-11.40 21.42-12.63C21.42-13.25 21.22-13.92 20.93-14.48C19.50-17.32 16.61-18.71 13.34-18.86L13.34-20.79C13.34-21.21 13.03-21.46 12.68-21.46C12.32-21.46 12.01-21.21 12.01-20.79L12.01-18.86C6.35-18.53 2.99-14.57 2.99-8.45C2.99-2.27 6.28 1.59 12.01 1.96L12.01 3.88C12.01 4.29 12.30 4.55 12.68 4.55ZM8.12-8.46C8.12-11.47 9.20-14.36 12.01-14.80L12.01-2.07C9.23-2.53 8.12-5.34 8.12-8.46Z" fill="currentColor"/>
</svg>