<svg xmlns="http://www.w3.org/2000/svg" viewBox="0 0 24 24" width="24" height="24">
  <title>chart.bar</title>
  <path transform="matrix(0.5938297378798423, 0, 0, 0.5938297378798423, 0.22546972860125258, 16.99652052887961)" d="M30.46 3.02L32.70 3.02C35.13 3.02 36.67 1.56 36.67-0.77L36.67-16.05C36.67-18.39 35.13-19.85 32.70-19.85L30.46-19.85C28.03-19.85 26.50-18.39 26.50-16.04L26.50-0.77C26.50 1.56 28.03 3.02 30.46 3.02ZM31.01-0.08C30.28-0.08 29.88-0.47 29.88-1.18L29.88-15.64C29.88-16.36 30.28-16.76 31.01-16.76L32.16-16.76C32.88-16.76 33.28-16.36 33.28-15.64L33.28-1.18C33.28-0.47 32.88-0.08 32.14-0.08ZM18.70 3.02L20.94 3.02C23.38 3.02 24.91 1.56 24.91-0.77L24.91-12.66C24.91-14.98 23.38-16.44 20.94-16.44L18.70-16.44C16.28-16.44 14.74-14.98 14.74-12.64L14.74-0.77C14.74 1.56 16.28 3.02 18.70 3.02ZM19.25-0.08C18.53-0.08 18.13-0.47 18.13-1.18L18.13-12.23C18.13-12.95 18.53-13.35 19.25-13.35L20.40-13.35C21.13-13.35 21.53-12.95 21.53-12.23L21.53-1.18C21.53-0.47 21.13-0.08 20.39-0.08ZM6.95 3.02L9.19 3.02C11.63 3.02 13.16 1.56 13.16-0.77L13.16-9.19C13.16-11.52 11.63-12.98 9.19-12.98L6.95-12.98C4.52-12.98 2.99-11.52 2.99-9.18L2.99-0.77C2.99 1.56 4.52 3.02 6.95 3.02ZM7.50-0.08C6.77-0.08 6.38-0.47 6.38-1.18L6.38-8.78C6.38-9.49 6.77-9.88 7.50-9.88L8.65-9.88C9.38-9.88 9.77-9.49 9.77-8.78L9.77-1.18C9.77-0.47 9.38-0.08 8.64-0.08Z" fill="currentColor"/>
</svg>