<svg xmlns="http://www.w3.org/2000/svg" viewBox="0 0 24 24" width="24" height="24">
  
  <path transform="matrix(0.7388167388167388, 0, 0, 0.7388167388167388, -0.20779220779220786, 18.311688311688314)" d="M2.99 2.19C2.99 2.93 3.48 3.42 4.22 3.42L28.21 3.42C29.26 3.42 30.06 2.68 30.06 1.61C30.06 0.54 29.26-0.20 28.21-0.20L6.93-0.20C6.73-0.20 6.61-0.30 6.61-0.52L6.61-6.89L10.72-9.28C11.18-8.94 11.73-8.75 12.33-8.75C12.79-8.75 13.21-8.86 13.58-9.06L15.76-7.27C15.73-7.10 15.71-6.94 15.71-6.76C15.71-5.26 16.93-4.03 18.45-4.03C19.95-4.03 21.16-5.26 21.16-6.76C21.16-6.82 21.16-6.88 21.16-6.94L25.92-9.81C26.31-9.60 26.75-9.48 27.22-9.48C28.72-9.48 29.94-10.71 29.94-12.21C29.94-13.71 28.72-14.94 27.22-14.94C25.71-14.94 24.49-13.71 24.49-12.21C24.49-12.13 24.49-12.06 24.50-11.99L19.78-9.14C19.38-9.36 18.93-9.49 18.45-9.49C18.06-9.49 17.70-9.41 17.37-9.27L15.05-11.18C15.06-11.29 15.06-11.38 15.06-11.48C15.06-12.98 13.84-14.20 12.33-14.20C10.89-14.20 9.69-13.07 9.61-11.64L6.61-9.90L6.61-18.66C6.61-19.70 5.87-20.51 4.80-20.51C3.73-20.51 2.99-19.70 2.99-18.66Z" fill="currentColor"/>
</svg>