<svg xmlns="http://www.w3.org/2000/svg" viewBox="0 0 24 24" width="24" height="24">
  
  <path transform="matrix(0.7653213751868461, 0, 0, 0.7653213751868461, 1.5470852017937213, 18.466367713004484)" d="M2.99 0.23C2.99 3.04 4.57 4.62 7.36 4.62L19.97 4.62C22.75 4.62 24.33 3.04 24.33 0.23L24.33-17.14C24.33-19.93 22.75-21.52 19.97-21.52L7.36-21.52C4.57-21.52 2.99-19.93 2.99-17.14ZM12.39-2.47C11.80-2.47 11.33-2.75 10.92-3.23L8.27-6.35C7.96-6.73 7.85-7.03 7.85-7.42C7.85-8.25 8.53-8.89 9.34-8.89C9.81-8.89 10.17-8.71 10.50-8.32L12.36-6.11L16.70-12.95C17.06-13.51 17.47-13.80 18.01-13.80C18.82-13.80 19.55-13.21 19.55-12.39C19.55-12.07 19.44-11.72 19.21-11.39L13.79-3.27C13.46-2.78 12.95-2.47 12.39-2.47Z" fill="currentColor"/>
</svg>