<svg xmlns="http://www.w3.org/2000/svg" viewBox="0 0 24 24" width="24" height="24">
  <title>checkmark.diamond.fill</title>
  <path transform="matrix(0.7115551752267086, 0, 0, 0.7115551752267086, 0.29269375759806016, 18.02042386539473)" d="M3.89-5.37L13.35 4.10C15.34 6.08 17.57 6.09 19.55 4.11L29.03-5.37C31.01-7.35 31.00-9.59 29.02-11.57L19.56-21.02C17.58-23.00 15.34-23.02 13.36-21.04L3.88-11.55C1.90-9.57 1.91-7.35 3.89-5.37ZM15.18-2.50C14.59-2.50 14.12-2.77 13.71-3.25L11.06-6.36C10.75-6.74 10.63-7.04 10.63-7.43C10.63-8.26 11.32-8.91 12.13-8.91C12.60-8.91 12.96-8.72 13.29-8.33L15.15-6.12L19.49-12.96C19.85-13.52 20.26-13.82 20.80-13.82C21.61-13.82 22.34-13.22 22.34-12.40C22.34-12.08 22.23-11.73 22.00-11.40L16.58-3.28C16.25-2.79 15.74-2.50 15.18-2.50Z" fill="currentColor"/>
</svg>