<svg xmlns="http://www.w3.org/2000/svg" viewBox="0 0 24 24" width="24" height="24">
  <title>checkmark.icloud</title>
  <path transform="matrix(0.6375295729049931, 0, 0, 0.6375295729049931, 0.6626821068360105, 18.32050803137841)" d="M26.27 1.17C30.26 1.17 33.47-1.78 33.47-5.50C33.47-8.10 32.03-10.52 29.60-11.53C29.59-17.04 25.57-21 20.33-21C17.37-21 14.81-19.65 13.14-17.31C9.91-17.95 6.83-15.68 6.56-12.30C3.79-11.67 2.10-9.12 2.10-6C2.10-2.06 5.53 1.16 9.90 1.16ZM26.29-2.46L9.93-2.46C7.59-2.46 5.82-4.07 5.82-6C5.82-8.30 7.35-9.69 9.48-9.69C9.68-9.69 9.77-9.81 9.75-10.00C9.46-13.17 11.68-14.66 14.53-13.85C14.68-13.82 14.81-13.85 14.89-13.99C16.11-16.05 17.71-17.38 20.26-17.38C23.52-17.38 25.99-14.82 26.14-11.63C26.19-10.76 26.11-9.93 26.04-9.30C26.02-9.12 26.09-9.01 26.29-8.99C28.39-8.75 29.73-7.42 29.73-5.50C29.73-3.81 28.22-2.46 26.29-2.46ZM16.88-4.46C17.37-4.46 17.82-4.72 18.11-5.14L22.72-12.27C22.91-12.54 23.02-12.84 23.02-13.13C23.02-13.83 22.39-14.37 21.69-14.37C21.21-14.37 20.82-14.13 20.52-13.63L16.86-7.64L14.94-9.93C14.67-10.24 14.36-10.42 13.95-10.42C13.22-10.42 12.62-9.86 12.62-9.13C12.62-8.80 12.73-8.52 13.00-8.20L15.62-5.11C15.96-4.70 16.37-4.46 16.88-4.46Z" fill="currentColor"/>
</svg>