<svg xmlns="http://www.w3.org/2000/svg" viewBox="0 0 24 24" width="24" height="24">
  
  <path transform="matrix(0.7311020835015971, 0, 0, 0.7311020835015971, 0.4824662181922532, 18.205097413123717)" d="M8.72 2.06L11.13 2.06C11.31 2.06 11.43 2.10 11.57 2.24L13.27 3.94C14.93 5.61 16.57 5.60 18.23 3.94L19.95 2.24C20.07 2.10 20.19 2.06 20.37 2.06L22.78 2.06C25.14 2.06 26.30 0.89 26.30-1.45L26.30-3.87C26.30-4.04 26.36-4.17 26.47-4.30L28.18-6C29.85-7.68 29.85-9.30 28.18-10.97L26.47-12.68C26.34-12.82 26.30-12.93 26.30-13.10L26.30-15.53C26.30-17.88 25.14-19.03 22.78-19.03L20.37-19.03C20.19-19.03 20.07-19.09 19.95-19.21L18.23-20.92C16.56-22.59 14.95-22.57 13.27-20.91L11.57-19.21C11.44-19.09 11.31-19.03 11.13-19.03L8.72-19.03C6.36-19.03 5.20-17.89 5.20-15.53L5.20-13.10C5.20-12.93 5.16-12.81 5.03-12.68L3.33-10.97C1.65-9.30 1.66-7.68 3.33-6L5.03-4.30C5.16-4.17 5.20-4.04 5.20-3.87L5.20-1.45C5.20 0.90 6.38 2.06 8.72 2.06ZM9.38-0.93C8.38-0.93 8.20-1.10 8.19-2.10L8.19-4.88C8.19-5.20 8.11-5.45 7.88-5.68L5.89-7.65C5.19-8.37 5.19-8.59 5.89-9.30L7.88-11.27C8.11-11.51 8.19-11.75 8.20-12.08L8.20-14.85C8.20-15.87 8.36-16.03 9.38-16.03L12.15-16.03C12.48-16.03 12.73-16.13 12.96-16.36L14.92-18.33C15.64-19.04 15.86-19.05 16.58-18.33L18.55-16.36C18.77-16.13 19.02-16.03 19.35-16.03L22.13-16.03C23.13-16.03 23.30-15.86 23.30-14.85L23.30-12.08C23.31-11.75 23.40-11.51 23.64-11.27L25.61-9.30C26.32-8.59 26.32-8.37 25.61-7.65L23.64-5.68C23.40-5.45 23.31-5.20 23.31-4.88L23.30-2.10C23.30-1.10 23.13-0.93 22.13-0.93L19.35-0.91C19.02-0.91 18.80-0.84 18.55-0.60L16.58 1.37C15.87 2.09 15.64 2.09 14.92 1.37L12.96-0.60C12.71-0.84 12.48-0.91 12.15-0.91ZM14.55-2.89C15.08-2.89 15.57-3.18 15.88-3.63L20.74-11.05C20.95-11.36 21.06-11.68 21.06-11.96C21.06-12.74 20.38-13.30 19.64-13.30C19.14-13.30 18.73-13.04 18.40-12.50L14.54-6.28L12.79-8.37C12.47-8.73 12.14-8.91 11.71-8.91C10.93-8.91 10.30-8.30 10.30-7.52C10.30-7.16 10.42-6.88 10.71-6.53L13.20-3.60C13.57-3.15 14.00-2.89 14.55-2.89Z" fill="currentColor"/>
</svg>