<svg xmlns="http://www.w3.org/2000/svg" viewBox="0 0 24 24" width="24" height="24">
  
  <path transform="matrix(0.7934294126762746, 0, 0, 0.7934294126762746, 0.33565783356578316, 18.713156671315666)" d="M14.70 4.14C21.66 4.14 27.30-1.50 27.30-8.46C27.30-15.42 21.66-21.06 14.70-21.06C7.73-21.06 2.10-15.42 2.10-8.46C2.10-1.50 7.73 4.14 14.70 4.14ZM14.70 0.48C9.75 0.48 5.75-3.52 5.75-8.46C5.75-13.41 9.75-17.40 14.70-17.40C19.64-17.40 23.64-13.41 23.64-8.46C23.64-3.52 19.64 0.48 14.70 0.48ZM13.50-2.87C14.03-2.87 14.51-3.14 14.81-3.61L19.69-11.02C19.90-11.33 20.00-11.65 20.00-11.94C20.00-12.71 19.32-13.27 18.57-13.27C18.07-13.27 17.66-13.02 17.33-12.48L13.48-6.25L11.72-8.34C11.41-8.70 11.07-8.88 10.64-8.88C9.88-8.88 9.25-8.27 9.25-7.50C9.25-7.14 9.35-6.86 9.64-6.50L12.14-3.57C12.52-3.13 12.95-2.87 13.50-2.87Z" fill="currentColor"/>
</svg>