<svg xmlns="http://www.w3.org/2000/svg" viewBox="0 0 24 24" width="24" height="24">
  <title>chevron.up.forward.2</title>
  <path transform="matrix(0.8092302829144934, 0, 0, 0.8092302829144934, -0.4182076813655762, 18.846846846846844)" d="M12.89-16.17L23.18-16.17L23.18-6C23.18-4.45 24.28-3.64 25.44-3.64C26.59-3.64 27.70-4.45 27.70-6L27.70-17.98C27.70-19.57 26.57-20.71 24.96-20.71L12.89-20.71C11.33-20.71 10.52-19.61 10.52-18.45C10.52-17.30 11.33-16.17 12.89-16.17ZM5.34-8.75L15.63-8.75L15.63 1.42C15.63 2.98 16.75 3.79 17.91 3.79C19.05 3.79 20.17 2.98 20.17 1.42L20.17-10.56C20.17-12.15 19.03-13.29 17.43-13.29L5.34-13.29C3.80-13.29 2.99-12.19 2.99-11.02C2.99-9.88 3.80-8.75 5.34-8.75Z" fill="currentColor"/>
</svg>