<svg xmlns="http://www.w3.org/2000/svg" viewBox="0 0 24 24" width="24" height="24">
  
  <path transform="matrix(0.8752136752136752, 0, 0, 0.8752136752136752, -0.6153846153846154, 19.405128205128204)" d="M7.37 2.96L21.46 2.96C24.25 2.96 25.84 1.38 25.84-1.41L25.84-15.52C25.84-18.30 24.25-19.89 21.46-19.89L7.37-19.89C4.58-19.89 2.99-18.30 2.99-15.52L2.99-1.41C2.99 1.38 4.58 2.96 7.37 2.96ZM16.14-4.63C15.25-3.68 13.80-3.69 12.91-4.64L8.50-9.39C7.95-9.97 7.95-10.86 8.46-11.36C9.06-11.93 9.95-11.93 10.49-11.36L14.53-7.02L18.57-11.36C19.10-11.93 19.99-11.93 20.60-11.36C21.12-10.88 21.11-9.96 20.57-9.38Z" fill="currentColor"/>
</svg>