<svg xmlns="http://www.w3.org/2000/svg" viewBox="0 0 24 24" width="24" height="24">
  
  <path transform="matrix(0.8752136752136752, 0, 0, 0.8752136752136752, -0.6153846153846154, 19.405128205128204)" d="M7.37 2.96L21.46 2.96C24.25 2.96 25.84 1.38 25.84-1.41L25.84-15.52C25.84-18.30 24.25-19.89 21.46-19.89L7.37-19.89C4.58-19.89 2.99-18.30 2.99-15.52L2.99-1.41C2.99 1.38 4.58 2.96 7.37 2.96ZM17.05-2.44C16.58-1.98 15.59-1.99 15.08-2.46L10.39-6.84C9.48-7.69 9.48-9.19 10.39-10.04L15.08-14.41C15.64-14.95 16.49-14.92 17.02-14.45C17.60-13.91 17.60-12.97 17.04-12.45L12.75-8.45L17.04-4.44C17.59-3.91 17.64-3.04 17.05-2.44Z" fill="currentColor"/>
</svg>