<svg xmlns="http://www.w3.org/2000/svg" viewBox="0 0 24 24" width="24" height="24">
  
  <path transform="matrix(0.7293447293447294, 0, 0, 0.7293447293447294, -0.17948717948717974, 18.17094017094017)" d="M12.40-16.31C13.01-16.31 13.78-16.66 14.46-16.98L16.70-17.99L18.94-16.98C19.61-16.66 20.39-16.31 20.99-16.31C22.07-16.31 23.02-17.14 23.03-18.47C23.03-19.27 22.51-19.86 21.87-20.18L18.79-21.57C17.96-21.95 17.45-22.17 16.70-22.17C15.94-22.17 15.42-21.95 14.60-21.57L11.54-20.18C10.88-19.86 10.36-19.27 10.36-18.47C10.37-17.14 11.33-16.31 12.40-16.31ZM26.70-2.13C27.49-2.13 28.09-2.64 28.39-3.30L29.80-6.38C30.20-7.21 30.41-7.70 30.41-8.47C30.41-9.23 30.19-9.73 29.80-10.56L28.39-13.63C28.09-14.30 27.49-14.80 26.70-14.80C25.38-14.79 24.54-13.84 24.54-12.76C24.54-12.15 24.90-11.37 25.22-10.71L26.21-8.46L25.22-6.22C24.90-5.57 24.54-4.78 24.54-4.16C24.54-3.09 25.38-2.14 26.70-2.13ZM6.70-2.13C8.03-2.14 8.87-3.09 8.87-4.16C8.87-4.78 8.50-5.57 8.18-6.22L7.18-8.46L8.18-10.71C8.50-11.37 8.87-12.15 8.87-12.76C8.87-13.84 8.03-14.79 6.70-14.80C5.92-14.80 5.31-14.30 5.00-13.63L3.61-10.56C3.22-9.73 2.99-9.23 2.99-8.47C2.99-7.70 3.21-7.21 3.61-6.38L5.00-3.30C5.31-2.64 5.92-2.13 6.70-2.13ZM16.70 5.25C17.45 5.25 17.96 5.02 18.79 4.64L21.87 3.25C22.51 2.94 23.03 2.33 23.03 1.54C23.02 0.21 22.07-0.62 20.99-0.62C20.39-0.62 19.61-0.27 18.94 0.05L16.70 1.05L14.46 0.05C13.78-0.27 13.01-0.62 12.40-0.62C11.33-0.62 10.37 0.21 10.36 1.54C10.36 2.33 10.88 2.94 11.54 3.25L14.60 4.64C15.42 5.03 15.94 5.25 16.70 5.25Z" fill="currentColor"/>
</svg>