<svg xmlns="http://www.w3.org/2000/svg" viewBox="0 0 24 24" width="24" height="24">
  <title>chevron.forward.circle.fill</title>
  <path transform="matrix(0.7934294126762746, 0, 0, 0.7934294126762746, 0.33565783356578316, 18.713156671315666)" d="M14.70 4.14C21.66 4.14 27.30-1.50 27.30-8.46C27.30-15.42 21.66-21.06 14.70-21.06C7.75-21.06 2.10-15.42 2.10-8.46C2.10-1.50 7.75 4.14 14.70 4.14ZM11.96-2.38C11.38-2.98 11.43-3.87 11.98-4.39L16.32-8.45L11.98-12.49C11.41-13.02 11.41-13.96 12-14.51C12.53-14.99 13.38-15.01 13.96-14.47L18.69-10.05C19.61-9.20 19.61-7.69 18.69-6.83L13.96-2.40C13.44-1.92 12.45-1.92 11.96-2.38Z" fill="currentColor"/>
</svg>