<svg xmlns="http://www.w3.org/2000/svg" viewBox="0 0 24 24" width="24" height="24">
  <title>chineseyuanrenminbisign.square</title>
  <path transform="matrix(0.8752136752136752, 0, 0, 0.8752136752136752, -0.6153846153846154, 19.405128205128204)" d="M7.37 2.96L21.46 2.96C24.25 2.96 25.84 1.38 25.84-1.41L25.84-15.52C25.84-18.30 24.25-19.89 21.46-19.89L7.37-19.89C4.58-19.89 2.99-18.30 2.99-15.52L2.99-1.41C2.99 1.38 4.58 2.96 7.37 2.96ZM7.86-0.66C7.03-0.66 6.61-1.03 6.61-1.91L6.61-15C6.61-15.88 7.03-16.25 7.86-16.25L20.96-16.25C21.79-16.25 22.21-15.88 22.21-15L22.21-1.91C22.21-1.03 21.79-0.66 20.96-0.66ZM10.64-5.48C10.64-5.31 10.79-5.16 10.97-5.16L13.21-5.16L13.21-4.38C13.21-3.62 13.68-3.14 14.41-3.14C15.16-3.14 15.63-3.62 15.63-4.38L15.63-5.16L17.88-5.16C18.05-5.16 18.20-5.31 18.20-5.48C18.20-5.66 18.05-5.80 17.88-5.80L15.63-5.80L15.63-6.83L15.69-6.93L17.88-6.93C18.05-6.93 18.20-7.08 18.20-7.24C18.20-7.42 18.05-7.57 17.88-7.57L16.09-7.57L18.63-11.74C18.81-12.04 18.90-12.28 18.90-12.61C18.90-13.31 18.35-13.78 17.66-13.78C17.14-13.78 16.76-13.51 16.50-12.98L14.47-9.06L14.41-9.06L12.40-12.97C12.13-13.51 11.75-13.78 11.21-13.78C10.48-13.78 9.94-13.32 9.94-12.59C9.94-12.28 10.03-11.99 10.20-11.73L12.75-7.57L10.97-7.57C10.79-7.57 10.64-7.42 10.64-7.24C10.64-7.08 10.79-6.93 10.97-6.93L13.15-6.93L13.21-6.83L13.21-5.80L10.97-5.80C10.79-5.80 10.64-5.66 10.64-5.48Z" fill="currentColor"/>
</svg>