<svg xmlns="http://www.w3.org/2000/svg" viewBox="0 0 24 24" width="24" height="24">
  
  <path transform="matrix(0.7105190119344991, 0, 0, 0.7105190119344991, -0.1232306411323898, 18.003330557868445)" d="M7.37 2.98L26.75 2.98C29.55 2.98 31.14 1.39 31.14-1.39L31.14-15.50C31.14-18.29 29.55-19.88 26.75-19.88L7.37-19.88C4.58-19.88 2.99-18.29 2.99-15.50L2.99-1.39C2.99 1.39 4.58 2.98 7.37 2.98ZM6.61-14.99C6.61-15.88 7.03-16.24 7.86-16.24L10.13-16.24L6.61-12.74ZM6.61-8.84L14.03-16.24L18.41-16.24L16.93-14.78C13.54-14.72 10.79-11.96 10.72-8.57L6.61-4.45ZM26.27-16.24C26.65-16.24 26.94-16.17 27.15-16.00L22.62-11.46C22.03-12.54 21.14-13.43 20.06-14.02L22.29-16.24ZM17.05-4.32C14.77-4.32 12.93-6.16 12.93-8.45C12.93-10.73 14.77-12.57 17.05-12.57C19.34-12.57 21.18-10.73 21.18-8.45C21.18-6.16 19.34-4.32 17.05-4.32ZM15.67-0.64L17.13-2.12C20.57-2.16 23.34-4.93 23.39-8.37L27.52-12.50L27.52-8.12L20.05-0.64ZM7.86-0.64C7.46-0.64 7.16-0.74 6.95-0.93L11.48-5.44C12.07-4.36 12.95-3.47 14.03-2.88L11.79-0.64ZM27.52-1.91C27.52-1.02 27.09-0.64 26.27-0.64L23.95-0.64L27.52-4.22Z" fill="currentColor"/>
</svg>