<svg xmlns="http://www.w3.org/2000/svg" viewBox="0 0 24 24" width="24" height="24">
  
  <path transform="matrix(0.689005517426995, 0, 0, 0.689005517426995, -0.05894226887363763, 17.821558336697617)" d="M7.38 2.98L27.63 2.98C30.43 2.98 32.02 1.38 32.02-1.41L32.02-15.50C32.02-18.29 30.43-19.88 27.63-19.88L7.37-19.88C4.58-19.88 2.99-18.29 2.99-15.50L2.99-1.41C2.99 1.38 4.58 2.98 7.38 2.98ZM7.88-0.64C7.04-0.64 6.62-1.02 6.62-1.90L6.62-14.99C6.62-15.87 7.03-16.24 7.86-16.24L27.15-16.24C27.97-16.24 28.39-15.87 28.39-14.99L28.39-1.90C28.39-1.02 27.97-0.64 27.15-0.64ZM17.51-2.82C20.60-2.82 23.13-5.36 23.13-8.46C23.13-11.55 20.60-14.09 17.51-14.09C14.40-14.09 11.87-11.55 11.87-8.46C11.87-5.36 14.40-2.82 17.51-2.82Z" fill="currentColor"/>
</svg>