<svg xmlns="http://www.w3.org/2000/svg" viewBox="0 0 24 24" width="24" height="24">
  
  <path transform="matrix(0.70874861572536, 0, 0, 0.70874861572536, 0.7126245847176069, 17.996677740863788)" d="M15.93-12.08C18.80-12.08 21.16-14.46 21.16-17.33C21.16-20.19 18.80-22.57 15.93-22.57C13.03-22.57 10.66-20.19 10.66-17.33C10.66-14.46 13.03-12.08 15.93-12.08ZM15.91-15.20C14.71-15.20 13.76-16.13 13.76-17.32C13.76-18.52 14.71-19.49 15.91-19.49C17.11-19.49 18.07-18.52 18.07-17.32C18.07-16.13 17.11-15.20 15.91-15.20ZM7.36-3.21C10.23-3.21 12.60-5.59 12.60-8.46C12.60-11.32 10.23-13.70 7.36-13.70C4.46-13.70 2.10-11.32 2.10-8.46C2.10-5.59 4.46-3.21 7.36-3.21ZM24.52-3.21C27.39-3.21 29.75-5.59 29.75-8.46C29.75-11.32 27.39-13.70 24.52-13.70C21.61-13.70 19.25-11.32 19.25-8.46C19.25-5.59 21.61-3.21 24.52-3.21ZM7.35-6.33C6.14-6.33 5.19-7.25 5.19-8.46C5.19-9.66 6.14-10.62 7.35-10.62C8.54-10.62 9.50-9.66 9.50-8.46C9.50-7.25 8.54-6.33 7.35-6.33ZM24.50-6.33C23.29-6.33 22.35-7.25 22.35-8.46C22.35-9.66 23.29-10.62 24.50-10.62C25.70-10.62 26.66-9.66 26.66-8.46C26.66-7.25 25.70-6.33 24.50-6.33ZM15.94 5.65C18.81 5.65 21.18 3.27 21.18 0.40C21.18-2.46 18.81-4.84 15.94-4.84C13.03-4.84 10.68-2.46 10.68 0.40C10.68 3.27 13.03 5.65 15.94 5.65Z" fill="currentColor"/>
</svg>