<svg xmlns="http://www.w3.org/2000/svg" viewBox="0 0 24 24" width="24" height="24">
  <title>cloud.hail.circle.fill</title>
  <path transform="matrix(0.7934294126762746, 0, 0, 0.7934294126762746, 0.33565783356578316, 18.70385867038587)" d="M14.70 4.15C21.66 4.15 27.30-1.49 27.30-8.45C27.30-15.41 21.66-21.05 14.70-21.05C7.75-21.05 2.10-15.41 2.10-8.45C2.10-1.49 7.75 4.15 14.70 4.15ZM11.26-7.02C9.64-7.02 8.58-8.09 8.58-9.52C8.58-10.62 9.23-11.48 10.29-11.86C10.56-13.86 12.20-15.27 14.21-15.27C15.77-15.27 16.96-14.54 17.63-13.24C19.45-13.24 20.82-11.91 20.82-10.11C20.82-8.38 19.46-7.02 17.68-7.02ZM12.15-4.07C12.01-3.80 11.64-3.69 11.34-3.84C11.04-4.02 10.96-4.41 11.11-4.68L11.71-5.71C11.85-5.98 12.23-6.08 12.53-5.93C12.82-5.75 12.90-5.37 12.75-5.10ZM17.85-4.07C17.70-3.80 17.32-3.69 17.04-3.84C16.73-4.02 16.65-4.41 16.80-4.68L17.39-5.71C17.54-5.98 17.92-6.08 18.22-5.93C18.50-5.75 18.60-5.37 18.43-5.10ZM15.01-4.04C14.86-3.77 14.48-3.67 14.19-3.82C13.89-4.00 13.80-4.38 13.96-4.65L14.55-5.68C14.71-5.96 15.08-6.06 15.39-5.91C15.67-5.73 15.75-5.34 15.59-5.07ZM10.63-1.77C10.18-1.77 9.82-2.13 9.82-2.59C9.82-3.02 10.18-3.39 10.63-3.39C11.07-3.39 11.44-3.02 11.44-2.59C11.44-2.13 11.07-1.77 10.63-1.77ZM16.32-1.77C15.88-1.77 15.52-2.13 15.52-2.59C15.52-3.02 15.88-3.39 16.32-3.39C16.77-3.39 17.13-3.02 17.13-2.59C17.13-2.13 16.77-1.77 16.32-1.77ZM13.49-1.76C13.03-1.76 12.67-2.12 12.67-2.57C12.67-3 13.03-3.36 13.49-3.36C13.92-3.36 14.29-3 14.29-2.57C14.29-2.12 13.92-1.76 13.49-1.76Z" fill="currentColor"/>
</svg>