<svg xmlns="http://www.w3.org/2000/svg" viewBox="0 0 24 24" width="24" height="24">
  
  <path transform="matrix(0.6840347361389446, 0, 0, 0.6840347361389446, 0.8617234468937864, 17.438877755511022)" d="M8.33-3.40L23.12-3.40C27.29-3.40 30.47-6.57 30.47-10.62C30.47-14.71 27.29-17.87 23.10-17.87C21.74-20.50 19.21-22.57 15.12-22.57C10.36-22.57 6.68-19.13 6.06-14.72C3.80-13.95 2.10-11.96 2.10-9.26C2.10-5.95 4.58-3.40 8.33-3.40ZM8.43-6.62C6.34-6.62 5.32-7.70 5.32-9.20C5.32-10.55 6.16-11.54 8.02-12.04C8.78-12.23 8.99-12.57 9.09-13.35C9.64-17.25 12.07-19.35 15.12-19.35C17.41-19.35 19.34-18.05 20.63-15.60C20.95-14.96 21.33-14.74 22.11-14.74C25.62-14.74 27.25-12.89 27.25-10.55C27.25-8.33 25.57-6.62 23.05-6.62ZM10.22 0.87L10.77-0.08C11.04-0.54 10.91-1.11 10.44-1.38C9.96-1.65 9.43-1.49 9.15-1.00L8.60-0.04C8.36 0.41 8.45 0.97 8.93 1.25C9.40 1.52 9.96 1.32 10.22 0.87ZM15.34 2.67L16.92-0.06C17.18-0.52 17.06-1.09 16.58-1.37C16.11-1.64 15.59-1.46 15.30-0.98L13.72 1.76C13.46 2.20 13.57 2.77 14.04 3.05C14.52 3.32 15.08 3.12 15.34 2.67ZM22.50 0.91L23.05-0.04C23.32-0.49 23.19-1.07 22.72-1.34C22.24-1.62 21.71-1.44 21.43-0.95L20.88 0C20.63 0.46 20.73 1.02 21.21 1.29C21.68 1.56 22.24 1.37 22.50 0.91ZM7.64 4.88C8.45 4.88 9.12 4.21 9.12 3.39C9.12 2.59 8.45 1.92 7.64 1.92C6.83 1.92 6.16 2.59 6.16 3.39C6.16 4.21 6.83 4.88 7.64 4.88ZM19.92 4.92C20.73 4.92 21.40 4.25 21.40 3.43C21.40 2.64 20.73 1.97 19.92 1.97C19.11 1.97 18.45 2.64 18.45 3.43C18.45 4.25 19.11 4.92 19.92 4.92ZM12.76 6.67C13.56 6.67 14.23 6 14.23 5.18C14.23 4.38 13.57 3.71 12.76 3.71C11.95 3.71 11.29 4.38 11.29 5.18C11.29 6 11.95 6.67 12.76 6.67Z" fill="currentColor"/>
</svg>