<svg xmlns="http://www.w3.org/2000/svg" viewBox="0 0 24 24" width="24" height="24">
  
  <path transform="matrix(0.7934294126762746, 0, 0, 0.7934294126762746, 0.33565783356578316, 18.713156671315666)" d="M14.70 4.14C21.66 4.14 27.30-1.50 27.30-8.46C27.30-15.42 21.66-21.06 14.70-21.06C7.73-21.06 2.10-15.42 2.10-8.46C2.10-1.50 7.73 4.14 14.70 4.14ZM14.70 0.48C9.75 0.48 5.75-3.52 5.75-8.46C5.75-13.41 9.75-17.40 14.70-17.40C19.64-17.40 23.64-13.41 23.64-8.46C23.64-3.52 19.64 0.48 14.70 0.48ZM11.38-7.61L17.58-7.61C19.29-7.61 20.60-8.91 20.60-10.57C20.60-12.29 19.28-13.59 17.52-13.59C16.86-14.85 15.73-15.54 14.23-15.54C12.29-15.54 10.71-14.18 10.44-12.26C9.43-11.89 8.80-11.06 8.80-10.00C8.80-8.63 9.82-7.61 11.38-7.61ZM12.34-4.15C12.26-3.97 12.32-3.86 12.50-3.86L13.82-3.86L12.90-1.63C12.87-1.54 12.89-1.45 12.95-1.42C13.02-1.39 13.10-1.41 13.17-1.49L17.00-4.93C17.17-5.07 17.11-5.30 16.90-5.30L15.28-5.30L15.88-6.43C15.95-6.59 15.89-6.70 15.73-6.70L13.69-6.70C13.50-6.70 13.42-6.63 13.35-6.48ZM10.71-4.48L11.39-5.66C11.54-5.93 11.46-6.28 11.18-6.45C10.89-6.61 10.54-6.52 10.38-6.23L9.70-5.06C9.54-4.78 9.63-4.43 9.93-4.27C10.20-4.11 10.55-4.21 10.71-4.48ZM19.04-4.48L19.71-5.66C19.88-5.93 19.79-6.28 19.51-6.45C19.22-6.61 18.87-6.52 18.71-6.23L18.04-5.06C17.87-4.78 17.96-4.43 18.26-4.27C18.53-4.11 18.88-4.21 19.04-4.48Z" fill="currentColor"/>
</svg>