<svg xmlns="http://www.w3.org/2000/svg" viewBox="0 0 24 24" width="24" height="24">
  
  <path transform="matrix(0.70494286107669, 0, 0, 0.70494286107669, 0.5212722015695994, 18.100784799669558)" d="M8.33-3.40L23.12-3.40C27.29-3.40 30.47-6.57 30.47-10.62C30.47-14.71 27.29-17.87 23.10-17.87C21.74-20.50 19.21-22.57 15.12-22.57C10.36-22.57 6.68-19.13 6.06-14.72C3.80-13.95 2.10-11.96 2.10-9.26C2.10-5.95 4.58-3.40 8.33-3.40ZM8.43-6.62C6.34-6.62 5.32-7.70 5.32-9.20C5.32-10.55 6.16-11.54 8.02-12.04C8.78-12.23 8.99-12.57 9.09-13.35C9.64-17.25 12.07-19.35 15.12-19.35C17.41-19.35 19.34-18.05 20.63-15.60C20.95-14.96 21.33-14.74 22.11-14.74C25.62-14.74 27.25-12.89 27.25-10.55C27.25-8.33 25.57-6.62 23.05-6.62ZM23.75-0.60L9.05-0.60C8.47-0.60 8.04-0.20 8.04 0.34C8.04 0.88 8.47 1.29 9.05 1.29L23.75 1.29C24.33 1.29 24.76 0.88 24.76 0.34C24.76-0.20 24.33-0.60 23.75-0.60ZM23.75 3.38L9.05 3.38C8.47 3.38 8.04 3.79 8.04 4.32C8.04 4.86 8.47 5.26 9.05 5.26L23.75 5.26C24.33 5.26 24.76 4.86 24.76 4.32C24.76 3.79 24.33 3.38 23.75 3.38Z" fill="currentColor"/>
</svg>