<svg xmlns="http://www.w3.org/2000/svg" viewBox="0 0 24 24" width="24" height="24">
  
  <path transform="matrix(0.6863383639177761, 0, 0, 0.6863383639177761, 0.8242130078466807, 17.49087135436293)" d="M8.33-3.40L23.12-3.40C27.29-3.40 30.47-6.57 30.47-10.62C30.47-14.71 27.29-17.87 23.10-17.87C21.74-20.50 19.21-22.57 15.12-22.57C10.36-22.57 6.68-19.13 6.06-14.72C3.80-13.95 2.10-11.96 2.10-9.26C2.10-5.95 4.58-3.40 8.33-3.40ZM18.19 2.79L19.65 0.26C19.91-0.20 19.79-0.77 19.32-1.05C18.84-1.32 18.32-1.15 18.04-0.67L16.57 1.88C16.30 2.32 16.41 2.88 16.89 3.16C17.37 3.43 17.92 3.23 18.19 2.79ZM8.85 2.79L10.32 0.26C10.58-0.20 10.46-0.77 9.98-1.04C9.52-1.32 8.99-1.15 8.71-0.66L7.23 1.88C6.97 2.32 7.08 2.89 7.56 3.16C8.03 3.43 8.59 3.25 8.85 2.79ZM21.89 6.07L23.36 3.54C23.63 3.08 23.50 2.51 23.03 2.23C22.55 1.96 22.03 2.13 21.74 2.61L20.27 5.16C20.02 5.60 20.12 6.18 20.59 6.45C21.07 6.71 21.63 6.52 21.89 6.07ZM12.56 6.07L14.03 3.54C14.29 3.08 14.17 2.51 13.70 2.24C13.22 1.96 12.69 2.13 12.41 2.63L10.95 5.16C10.68 5.61 10.78 6.18 11.26 6.45C11.74 6.71 12.29 6.53 12.56 6.07Z" fill="currentColor"/>
</svg>