<svg xmlns="http://www.w3.org/2000/svg" viewBox="0 0 24 24" width="24" height="24">
  
  <path transform="matrix(0.6932384758215074, 0, 0, 0.6932384758215074, 0.1396318593148913, 17.566387911957957)" d="M4.16 0.35L9.69 5.89C10.36 6.56 11.45 6.56 12.12 5.89C12.77 5.23 12.76 4.15 12.12 3.49L9.02 0.40L9.74-0.32L13.10 3.04C13.52 3.46 14.21 3.47 14.63 3.06C15.06 2.64 15.07 1.93 14.65 1.51L11.27-1.85L11.99-2.57L15.36 0.80C15.77 1.21 16.48 1.21 16.89 0.80C17.31 0.38 17.32-0.32 16.90-0.74L13.54-4.11L14.25-4.84L17.61-1.46C18.02-1.04 18.74-1.04 19.15-1.46C19.56-1.89 19.59-2.58 19.16-3.01L15.80-6.38L16.51-7.10L19.88-3.74C20.31-3.30 21-3.30 21.41-3.73C21.81-4.15 21.84-4.84 21.41-5.27L18.05-8.64L18.76-9.35L22.14-5.99C22.54-5.58 23.25-5.57 23.67-5.98C24.08-6.39 24.11-7.10 23.67-7.54L20.31-10.90L21.04-11.61L24.40-8.24C24.80-7.84 25.51-7.84 25.92-8.24C26.37-8.65 26.37-9.36 25.95-9.79L22.57-13.15L23.29-13.88L26.66-10.50C27.07-10.09 27.77-10.08 28.17-10.50C28.59-10.92 28.61-11.61 28.18-12.04L24.82-15.41L25.54-16.13L28.63-13.03C29.29-12.38 30.38-12.36 31.03-13.03C31.69-13.70 31.70-14.78 31.03-15.45L25.50-20.99C23.53-22.95 21.15-22.95 19.17-20.98L4.17-5.96C2.20-4.00 2.19-1.61 4.16 0.35Z" fill="currentColor"/>
</svg>