<svg xmlns="http://www.w3.org/2000/svg" viewBox="0 0 24 24" width="24" height="24">
  <title>convertible.side.arrow.trianglehead.backward.fill</title>
  <path transform="matrix(0.4350412099583652, 0, 0, 0.4350412099583652, 0.6999745093041039, 16.81399856298498)" d="M38.36-17.79L38.31-19.51C41.41-19.77 44.70-18.83 47.05-17.80C47.67-17.53 48.41-17.81 48.69-18.45C48.95-19.08 48.66-19.82 48.02-20.07C45.55-21.14 41.86-22.23 38.24-21.98L38.20-23.60C38.18-24.60 37.51-24.84 36.77-24.29L32.78-21.38C32.14-20.93 32.16-20.26 32.80-19.83L36.89-17.04C37.69-16.52 38.36-16.79 38.36-17.79ZM39.16-13.93C37.30-14.26 35.33-14.36 33.09-14.24L23.60-13.69C24.88-14.68 26.12-15.49 27.49-16.32C29.32-17.50 27.79-20.17 25.82-19.08C22.73-17.37 19.93-15.45 17.47-13.36L9.43-11.87C5.21-11.09 2.99-9.01 2.99-5.53L2.99-3.49C2.99-1.27 4.00-0.12 6.22 0.13L8.07 0.34C7.88-0.14 7.77-0.82 7.77-1.45C7.77-4.54 10.28-7.03 13.36-7.03C16.43-7.03 18.94-4.54 18.94-1.45C18.94-0.97 18.88-0.50 18.76-0.08L33.23-0.08C33.12-0.50 33.05-0.97 33.05-1.45C33.05-4.54 35.55-7.03 38.64-7.03C41.72-7.03 44.21-4.46 44.21-1.38C44.21-1.08 44.20-0.82 44.16-0.53L44.94-0.61C47.64-0.89 48.96-2.39 48.96-5.16L48.96-7.79C48.96-11.02 47.71-12.42 44.72-12.94ZM13.36 2.45C15.52 2.45 17.26 0.71 17.26-1.45C17.26-3.61 15.52-5.36 13.36-5.36C11.19-5.36 9.45-3.61 9.45-1.45C9.45 0.71 11.19 2.45 13.36 2.45ZM38.64 2.45C40.79 2.45 42.55 0.71 42.55-1.45C42.55-3.61 40.79-5.36 38.64-5.36C36.48-5.36 34.72-3.61 34.72-1.45C34.72 0.71 36.48 2.45 38.64 2.45Z" fill="currentColor"/>
</svg>