<svg xmlns="http://www.w3.org/2000/svg" viewBox="0 0 24 24" width="24" height="24">
  
  <path transform="matrix(0.41364064229194647, 0, 0, 0.41364064229194647, 0.759171735368487, 15.449230327514748)" d="M12.16-20.63C12.53-20.26 13.11-20.26 13.48-20.63C13.84-20.98 13.84-21.56 13.48-21.93L12.81-22.59C13.54-23.12 14.39-23.47 15.32-23.63L15.32-22.64C15.32-22.13 15.74-21.70 16.24-21.70C16.76-21.70 17.18-22.13 17.18-22.64L17.18-23.63C18.11-23.47 18.95-23.11 19.66-22.58L19.01-21.93C18.64-21.56 18.64-20.98 19.01-20.63C19.37-20.26 19.96-20.26 20.32-20.63L20.96-21.26C21.36-20.70 21.66-20.06 21.83-19.38C22.51-20.51 22.93-21.01 23.80-21.29C22.51-24.18 19.61-26.20 16.24-26.20C11.64-26.20 7.88-22.44 7.88-17.84C7.88-15.94 8.51-14.18 9.59-12.81C9.81-12.52 10.17-12.34 10.56-12.34C11.25-12.34 11.82-12.90 11.82-13.58C11.82-13.86 11.73-14.11 11.55-14.34C10.85-15.28 10.39-16.50 10.39-17.85C10.39-19.13 10.80-20.32 11.50-21.28ZM34.75-20.63C33.36-20.12 31.99-19.42 30.53-18.47L24.29-14.37C24.77-15.55 25.29-16.58 25.90-17.70C26.68-19.18 24.61-20.39 23.71-18.89C22.30-16.54 21.15-14.14 20.30-11.78L15.45-7.63C12.89-5.45 12.21-3.18 13.56-0.83L14.36 0.54C15.22 2.04 16.36 2.43 17.95 1.72L19.29 1.15C18.97 0.90 18.63 0.48 18.39 0.05C17.18-2.03 17.91-4.69 19.99-5.89C22.07-7.09 24.73-6.39 25.93-4.30C26.12-3.98 26.26-3.63 26.34-3.32L36.13-8.96C35.89-9.20 35.66-9.49 35.47-9.82C34.28-11.89 34.99-14.55 37.08-15.76C39.15-16.96 41.85-16.20 43.05-14.12C43.17-13.92 43.25-13.73 43.34-13.52L43.84-13.90C45.55-15.13 45.87-16.66 44.79-18.53L43.76-20.30C42.50-22.48 41.11-22.93 38.88-22.13ZM3.82-15.90L6.12-17.31C6.49-17.54 6.49-18.06 6.11-18.28L3.83-19.70C3.43-19.95 2.99-19.73 3-19.28L3-16.35C3-15.88 3.45-15.67 3.82-15.90ZM16.21-16.30C17.03-16.27 17.66-16.97 17.66-17.79C17.65-18.62 16.97-19.25 16.15-19.25C16.02-19.24 15.76-19.20 15.42-19.11L12.14-18.32C11.79-18.22 11.60-18 11.61-17.71C11.60-17.39 11.80-17.17 12.15-17.09L15.48-16.42C15.84-16.34 16.04-16.30 16.21-16.30ZM40.78-9.35C42.23-10.20 42.74-12.06 41.89-13.52C41.05-14.98 39.19-15.47 37.73-14.64C36.27-13.79 35.77-11.93 36.61-10.46C37.45-9 39.32-8.51 40.78-9.35ZM17.09 8.66C17.59 9.49 18.62 9.76 19.42 9.30L50.51-8.65C51.29-9.11 51.60-10.15 51.13-10.96C50.64-11.79 49.58-12.06 48.81-11.60L17.71 6.35C16.92 6.82 16.63 7.85 17.09 8.66ZM23.68 0.52C25.14-0.33 25.64-2.19 24.80-3.66C23.95-5.11 22.09-5.60 20.64-4.76C19.17-3.91 18.67-2.06 19.51-0.60C20.36 0.87 22.22 1.36 23.68 0.52Z" fill="currentColor"/>
</svg>