<svg xmlns="http://www.w3.org/2000/svg" viewBox="0 0 24 24" width="24" height="24">
  <title>convertible.side.hill.up</title>
  <path transform="matrix(0.47997917793736855, 0, 0, 0.47997917793736855, 0.5663121950672869, 16.07439900590157)" d="M7.18-18.57L9.79-23.07C10.35-24.04 9.55-24.93 8.57-24.71L4.68-23.92C4.00-23.77 3.68-23.23 3.90-22.57L5.16-18.81C5.47-17.85 6.63-17.60 7.18-18.57ZM15.46-10.34C16.85-9.53 18.49-9.67 19.69-10.57L31.02-4.02C30.84-2.54 31.55-1.05 32.94-0.25C34.44 0.62 36.21 0.40 37.42-0.68L38.39-0.25C40.31 0.62 41.79 0.12 42.88-1.75L43.90-3.53C45.15-5.70 44.84-7.14 43.04-8.66L39.68-11.48C38.52-12.45 37.43-13.17 36.06-13.88L28.78-17.55C30.06-17.66 31.36-17.70 32.68-17.68C34.43-17.67 34.38-20.16 32.66-20.18C29.93-20.23 27.22-20.02 24.79-19.57L18.76-21.70C15.60-22.83 13.29-22.29 11.94-19.93L11.14-18.56C10.28-17.06 10.52-15.88 11.92-14.86L13.51-13.69C13.50-12.35 14.20-11.06 15.46-10.34ZM39.35-2.51L38.66-2.82C39-4.42 38.30-6.07 36.81-6.93C35.20-7.85 33.29-7.55 32.10-6.28L21.11-12.62C21.60-14.30 20.92-16.10 19.32-17.03C17.64-18 15.59-17.59 14.40-16.14L13.65-16.69C13.34-16.92 13.27-17.24 13.45-17.57L14.10-18.69C14.77-19.84 15.90-20.09 17.86-19.41L23.58-17.39L34.69-11.78C35.98-11.13 36.83-10.55 37.99-9.55L41.40-6.67C42.08-6.09 42.21-5.60 41.73-4.77L40.71-3C40.37-2.41 39.93-2.25 39.35-2.51ZM16.65-12.39C15.93-12.81 15.68-13.70 16.10-14.43C16.51-15.15 17.41-15.39 18.14-14.96C18.86-14.55 19.10-13.65 18.68-12.93C18.26-12.21 17.37-11.98 16.65-12.39ZM3.22-13.04C2.74-12.20 3.02-11.16 3.82-10.70L35.41 7.55C36.21 8.00 37.27 7.73 37.73 6.93C38.20 6.09 37.92 5.04 37.13 4.58L5.53-13.65C4.73-14.11 3.68-13.84 3.22-13.04ZM34.13-2.30C33.40-2.72 33.16-3.61 33.57-4.32C34.00-5.05 34.90-5.30 35.61-4.88C36.34-4.46 36.57-3.56 36.15-2.84C35.74-2.12 34.85-1.89 34.13-2.30Z" fill="currentColor"/>
</svg>