<svg xmlns="http://www.w3.org/2000/svg" viewBox="0 0 24 24" width="24" height="24">
  <title>cricket.ball.fill</title>
  <path transform="matrix(0.7934294126762746, 0, 0, 0.7934294126762746, 0.33565783356578316, 18.713156671315666)" d="M2.10-8.46C2.10-6.60 2.51-4.80 3.27-3.20L5.32-5.25C5.68-5.63 6.25-5.61 6.60-5.25C6.94-4.88 6.97-4.34 6.60-3.97L4.18-1.55C4.45-1.13 4.76-0.73 5.09-0.35L22.82-18.09C22.44-18.42 22.03-18.71 21.62-19.00L19.16-16.54C18.81-16.17 18.23-16.18 17.88-16.54C17.52-16.89 17.51-17.44 17.88-17.80L19.98-19.91C18.36-20.65 16.57-21.06 14.70-21.06C7.73-21.06 2.10-15.42 2.10-8.46ZM14.70 4.14C21.66 4.14 27.30-1.50 27.30-8.46C27.30-10.35 26.88-12.14 26.13-13.73L24.08-11.67C23.72-11.31 23.16-11.32 22.79-11.67C22.45-12.05 22.44-12.60 22.79-12.95L25.23-15.39C24.96-15.80 24.67-16.18 24.35-16.56L6.64 1.20C7.01 1.51 7.38 1.79 7.79 2.05L10.23-0.40C10.61-0.76 11.16-0.75 11.52-0.40C11.87-0.04 11.88 0.52 11.52 0.88L9.43 2.96C11.04 3.71 12.82 4.14 14.70 4.14ZM17.29-14.65L15.61-12.96C15.25-12.59 14.68-12.62 14.32-12.96C13.96-13.34 13.96-13.89 14.32-14.25L16.01-15.94C16.36-16.29 16.93-16.29 17.29-15.94C17.65-15.57 17.64-15.02 17.29-14.65ZM13.73-11.09L12.04-9.40C11.68-9.05 11.13-9.05 10.77-9.40C10.41-9.77 10.41-10.32 10.77-10.69L12.45-12.36C12.81-12.73 13.36-12.73 13.73-12.36C14.09-12.01 14.10-11.44 13.73-11.09ZM22.20-9.81L20.51-8.12C20.14-7.75 19.59-7.76 19.24-8.12C18.89-8.47 18.88-9.04 19.24-9.40L20.92-11.07C21.28-11.44 21.84-11.44 22.20-11.07C22.57-10.72 22.56-10.17 22.20-9.81ZM10.16-7.52L8.48-5.85C8.11-5.48 7.56-5.48 7.20-5.85C6.83-6.20 6.83-6.75 7.20-7.11L8.88-8.81C9.25-9.18 9.80-9.18 10.16-8.81C10.51-8.45 10.52-7.90 10.16-7.52ZM18.63-6.25L16.95-4.56C16.59-4.20 16.03-4.20 15.67-4.56C15.32-4.92 15.30-5.48 15.67-5.84L17.37-7.52C17.72-7.88 18.27-7.88 18.63-7.52C18.98-7.16 18.98-6.60 18.63-6.25ZM15.07-2.67L13.39-1.00C13.03-0.64 12.47-0.63 12.12-1.00C11.75-1.35 11.75-1.91 12.12-2.27L13.79-3.97C14.14-4.34 14.72-4.30 15.07-3.97C15.43-3.60 15.43-3.04 15.07-2.67Z" fill="currentColor"/>
</svg>