<svg xmlns="http://www.w3.org/2000/svg" viewBox="0 0 24 24" width="24" height="24">
  
  <path transform="matrix(0.7158086050819615, 0, 0, 0.7158086050819615, 0.8182866729579525, 18.124567474048444)" d="M15.59-9.48L27.22-16.21C27.01-16.42 26.77-16.62 26.50-16.78L17.39-22.04C16.27-22.69 14.96-22.69 13.85-22.04L4.75-16.78C4.46-16.61 4.21-16.41 3.98-16.18ZM16.78-7.57L16.78 5.41C17.00 5.33 17.21 5.23 17.44 5.10L26.53-0.16C27.59-0.77 28.25-1.93 28.25-3.21L28.25-13.65C28.25-13.82 28.23-14.00 28.21-14.17ZM14.50-7.51L3.02-14.12C3-13.97 2.99-13.80 2.99-13.64L2.99-3.20C2.99-1.92 3.66-0.77 4.75-0.15L13.85 5.11C14.06 5.24 14.27 5.34 14.50 5.41Z" fill="currentColor"/>
</svg>