<svg xmlns="http://www.w3.org/2000/svg" viewBox="0 0 24 24" width="24" height="24">
  
  <path transform="matrix(0.670069362648868, 0, 0, 0.670069362648868, 0.5944248135060857, 17.69179174678174)" d="M2.10-6.04C2.10-2.36 3.42 1.01 5.63 3.61C5.95 4.00 6.48 4.00 6.84 3.63L9.77 0.70C10.07 0.41 10.07-0.01 9.81-0.34C8.55-1.92 7.83-3.89 7.83-6.04C7.83-10.68 11.26-14.51 15.71-15.14C16.14-15.20 16.43-15.52 16.43-15.94L16.43-20.06C16.43-20.57 16.04-20.94 15.54-20.89C8.00-20.14 2.10-13.77 2.10-6.04ZM31.95-6.04C31.95-13.77 26.05-20.14 18.52-20.89C18-20.94 17.61-20.57 17.61-20.06L17.61-15.94C17.61-15.52 17.92-15.20 18.33-15.14C22.79-14.51 26.23-10.68 26.23-6.04C26.23-3.89 25.50-1.92 24.23-0.33C23.98 0 23.98 0.41 24.27 0.71L27.20 3.64C27.55 4.01 28.09 4.00 28.41 3.62C30.62 1.01 31.95-2.36 31.95-6.04ZM12.43-1.98C13.01-1.98 13.42-2.39 13.42-2.98L13.42-4.07L13.90-4.52L15.07-2.64C15.28-2.25 15.56-1.98 16.03-1.98C16.54-1.98 16.99-2.34 16.99-2.82C16.99-3.16 16.89-3.34 16.73-3.59L15.36-5.64L16.64-6.91C16.90-7.18 17.02-7.39 17.02-7.66C17.02-8.16 16.65-8.52 16.15-8.52C15.83-8.52 15.55-8.37 15.35-8.12L13.44-6.01L13.42-6.01L13.42-9.86C13.42-10.45 13.01-10.88 12.43-10.88C11.86-10.88 11.45-10.46 11.45-9.87L11.45-2.98C11.45-2.39 11.86-1.98 12.43-1.98ZM19.04-1.98C19.56-1.98 19.96-2.36 19.96-2.98L19.96-5.53C19.96-6.18 20.13-6.66 20.84-6.67C21.13-6.67 21.47-6.74 21.68-6.93C21.88-7.07 21.98-7.30 21.98-7.61C21.98-8.16 21.68-8.52 21.15-8.52C20.45-8.52 20.07-7.89 19.97-7.21L19.88-7.21L19.88-7.55C19.88-8.13 19.54-8.52 19.01-8.52C18.47-8.52 18.11-8.13 18.11-7.55L18.11-2.98C18.11-2.39 18.48-1.98 19.04-1.98ZM22.50-2.03C23.11-2.03 23.53-2.45 23.53-3.06C23.53-3.66 23.11-4.09 22.50-4.09C21.89-4.09 21.46-3.66 21.46-3.06C21.46-2.45 21.89-2.03 22.50-2.03Z" fill="currentColor"/>
</svg>