<svg xmlns="http://www.w3.org/2000/svg" viewBox="0 0 24 24" width="24" height="24">
  <title>degreesign.fahrenheit</title>
  <path transform="matrix(0.7978806295776842, 0, 0, 0.7978806295776842, -0.3842917251051894, 18.75549322113137)" d="M16.34 2.10C18 2.10 18.93 1.05 18.93-0.60L18.93-6.39L25.18-6.39C26.51-6.39 27.35-7.16 27.35-8.37C27.35-9.57 26.51-10.35 25.18-10.35L18.93-10.35L18.93-14.87L25.76-14.87C27.16-14.87 28.05-15.69 28.05-16.96C28.05-18.23 27.16-19.03 25.76-19.03L16.34-19.03C14.67-19.03 13.75-18.05 13.75-16.35L13.75-0.60C13.75 1.08 14.67 2.10 16.34 2.10ZM6.95-9.73C9.15-9.73 10.89-11.46 10.89-13.68C10.89-15.89 9.15-17.63 6.95-17.63C4.73-17.63 2.99-15.89 2.99-13.68C2.99-11.46 4.73-9.73 6.95-9.73ZM6.95-12.13C6.07-12.13 5.39-12.81 5.39-13.68C5.39-14.55 6.07-15.23 6.95-15.23C7.82-15.23 8.50-14.55 8.50-13.68C8.50-12.81 7.82-12.13 6.95-12.13Z" fill="currentColor"/>
</svg>