<svg xmlns="http://www.w3.org/2000/svg" viewBox="0 0 24 24" width="24" height="24">
  <title>diamond.circle</title>
  <path transform="matrix(0.7934294126762746, 0, 0, 0.7934294126762746, 0.33565783356578316, 18.713156671315666)" d="M14.70 4.14C21.66 4.14 27.30-1.50 27.30-8.46C27.30-15.42 21.66-21.06 14.70-21.06C7.73-21.06 2.10-15.42 2.10-8.46C2.10-1.50 7.73 4.14 14.70 4.14ZM14.70 0.48C9.75 0.48 5.75-3.52 5.75-8.46C5.75-13.41 9.75-17.40 14.70-17.40C19.64-17.40 23.64-13.41 23.64-8.46C23.64-3.52 19.64 0.48 14.70 0.48ZM9.09-7.41L13.65-2.84C14.30-2.19 15.09-2.18 15.73-2.81L20.33-7.42C20.98-8.05 20.95-8.86 20.32-9.50L15.75-14.07C15.11-14.71 14.31-14.73 13.66-14.09L9.06-9.48C8.44-8.86 8.45-8.05 9.09-7.41Z" fill="currentColor"/>
</svg>