<svg xmlns="http://www.w3.org/2000/svg" viewBox="0 0 24 24" width="24" height="24">
  <title>digitalcrown.horizontal.arrow.counterclockwise</title>
  <path transform="matrix(0.6530276138045663, 0, 0, 0.6530276138045663, 1.6995097478795356, 17.527262051673418)" d="M15.77-4.20C23.77-4.20 28.56-6.74 28.56-12.27L28.56-17.33C28.56-21.38 23.67-23.78 15.77-23.78C7.88-23.78 2.99-21.38 2.99-17.33L2.99-12.27C2.99-6.74 7.78-4.20 15.77-4.20ZM15.77-14.31C10.18-14.31 6.61-15.53 6.61-17.33C6.61-19.15 10.18-20.36 15.77-20.36C21.36-20.36 24.94-19.15 24.94-17.33C24.94-15.53 21.36-14.31 15.77-14.31ZM10.32-10.86L10.32-11.36C10.70-11.29 11.09-11.21 11.48-11.17L11.48-10.21C11.48-9.69 11.91-9.27 12.42-9.27C12.95-9.27 13.37-9.69 13.37-10.21L13.37-10.97C13.83-10.95 14.31-10.92 14.79-10.91L14.79-9.95C14.79-9.43 15.21-9.02 15.73-9.02C16.24-9.02 16.66-9.43 16.66-9.95L16.66-10.90C17.16-10.91 17.63-10.93 18.08-10.97L18.08-10.21C18.08-9.69 18.52-9.27 19.03-9.27C19.55-9.27 19.97-9.69 19.97-10.21L19.97-11.16C20.37-11.20 20.77-11.27 21.14-11.33L21.14-10.86C21.14-10.34 21.56-9.91 22.08-9.91C22.58-9.91 23.02-10.35 23.02-10.86L23.02-11.78C23.72-11.99 24.35-12.23 24.94-12.50L24.94-12.27C24.94-9.19 21.45-7.82 15.77-7.82C10.10-7.82 6.61-9.19 6.61-12.27L6.61-12.50C7.16-12.25 7.77-12.01 8.44-11.81L8.44-10.86C8.44-10.35 8.87-9.91 9.38-9.91C9.90-9.91 10.32-10.34 10.32-10.86ZM5.29 1.95C5.29 2.54 5.59 3.16 6.32 3.42C8.64 4.23 11.23 4.68 13.86 4.68C15.61 4.68 17.31 4.50 18.91 4.15L19.38 5.78C19.77 7.13 21.25 7.11 21.86 6.23L24.69 2.13C25.31 1.27 25.01 0.16 24.11-0.22L19.46-2.17C18.57-2.54 17.17-1.84 17.55-0.48L18.01 1.09C16.70 1.37 15.32 1.54 13.86 1.54C11.53 1.54 9.36 1.17 7.37 0.46C6.12 0 5.29 0.97 5.29 1.95Z" fill="currentColor"/>
</svg>