<svg xmlns="http://www.w3.org/2000/svg" viewBox="0 0 24 24" width="24" height="24">
  <title>digitalcrown.horizontal.press</title>
  <path transform="matrix(0.6648487209453318, 0, 0, 0.6648487209453318, 1.5130502532138679, 18.22126996493962)" d="M19.38-17.07L17.37-17.07L17.37-22.82C17.37-23.78 16.66-24.40 15.77-24.40C14.88-24.40 14.19-23.78 14.19-22.82L14.19-17.07L12.12-17.07C10.95-17.07 10.45-15.87 11.23-14.99L14.89-10.80C15.39-10.24 16.15-10.23 16.64-10.80L20.32-14.99C21.11-15.88 20.63-17.07 19.38-17.07ZM15.77 5.68C23.77 5.68 28.56 3.13 28.56-2.40L28.56-7.46C28.56-10.42 25.92-12.50 21.41-13.41L18.73-10.36C22.59-10.00 24.94-8.94 24.94-7.46C24.94-5.65 21.36-4.44 15.77-4.44C10.18-4.44 6.61-5.65 6.61-7.46C6.61-8.93 8.95-10.00 12.81-10.36L10.15-13.41C5.63-12.52 2.99-10.42 2.99-7.46L2.99-2.40C2.99 3.13 7.78 5.68 15.77 5.68ZM10.32-1.00L10.32-1.49C10.70-1.42 11.09-1.35 11.48-1.30L11.48-0.34C11.48 0.19 11.91 0.61 12.42 0.61C12.95 0.61 13.37 0.19 13.37-0.34L13.37-1.10C13.83-1.07 14.31-1.05 14.79-1.03L14.79-0.08C14.79 0.45 15.21 0.86 15.73 0.86C16.24 0.86 16.66 0.45 16.66-0.08L16.66-1.03C17.16-1.04 17.63-1.07 18.08-1.10L18.08-0.34C18.08 0.19 18.52 0.61 19.03 0.61C19.55 0.61 19.97 0.19 19.97-0.34L19.97-1.28C20.37-1.34 20.77-1.39 21.14-1.46L21.14-1.00C21.14-0.47 21.56-0.05 22.08-0.05C22.58-0.05 23.02-0.48 23.02-1.00L23.02-1.91C23.72-2.12 24.35-2.36 24.94-2.64L24.94-2.40C24.94 0.68 21.45 2.05 15.77 2.05C10.10 2.05 6.61 0.68 6.61-2.40L6.61-2.64C7.16-2.37 7.77-2.14 8.44-1.93L8.44-1.00C8.44-0.48 8.87-0.05 9.38-0.05C9.90-0.05 10.32-0.47 10.32-1.00Z" fill="currentColor"/>
</svg>