<svg xmlns="http://www.w3.org/2000/svg" viewBox="0 0 24 24" width="24" height="24">
  
  <path transform="matrix(0.585879391234695, 0, 0, 0.585879391234695, 0.24922760041194647, 16.994850669412976)" d="M28.07-17.45C30.04-17.45 31.00-20.60 31.00-21.54C31.00-22.44 30.49-22.93 29.55-22.93L26.59-22.93C25.65-22.93 25.13-22.44 25.13-21.54C25.13-20.60 26.09-17.45 28.07-17.45ZM5.46 5.88L8.05 5.88C9.63 5.88 10.54 4.88 10.54 3.71C10.54 2.44 9.86 2.03 8.57 1.88C8.06 1.82 8.10 1.14 8.52 1.05C11.41 0.52 13.34-0.59 13.83-3.09C15.66-1.98 18.40-1.82 21.41-2.12C21.40-0.34 21.13 1.82 21.13 3.05C21.13 4.73 22.23 5.88 23.87 5.88L25.93 5.88C27.50 5.88 28.42 4.88 28.42 3.73C28.42 2.46 27.75 1.95 26.67 1.80C26.30 1.75 26.19 1.56 26.26 1.18C26.43 0.23 27.06-2.24 27.47-3.47C28.34-6.08 29.55-7.83 29.55-10.61C29.55-11.57 29.77-12.20 29.96-12.50C30.87-11.99 31.57-11.66 32.55-11.66C34.83-11.66 37.13-13.92 37.13-16.37C37.13-17.79 35.99-17.80 34.82-18.55C33.81-19.24 33.15-20.20 32.10-20.80C31.78-19.02 30.42-16.28 28.07-16.28C26.63-16.28 25.56-17.31 24.89-18.49C23.95-17.23 23.52-16.31 21.06-15.47L10.69-14.70C10.49-14.68 10.31-14.63 10.16-14.58L9.36-15.54C7.63-17.64 4.89-15.08 6.61-13.13L7.52-12.09C7.03-10.92 6.76-9.46 6.76-7.64C6.76-4.75 6.57-4.07 5.88-3.52C3.81-1.85 2.99-0.79 2.99 1.04L2.99 3.30C2.99 4.80 4.04 5.88 5.46 5.88ZM32.75-16.18C32.31-16.18 31.98-16.54 31.98-16.96C31.98-17.40 32.31-17.72 32.75-17.72C33.18-17.72 33.50-17.40 33.50-16.96C33.50-16.54 33.18-16.18 32.75-16.18Z" fill="currentColor"/>
</svg>