<svg xmlns="http://www.w3.org/2000/svg" viewBox="0 0 24 24" width="24" height="24">
  
  <path transform="matrix(0.670069362648868, 0, 0, 0.670069362648868, 0.5944248135060857, 17.69179174678174)" d="M2.10-6.04C2.10-2.36 3.42 1.01 5.63 3.61C5.95 4.00 6.48 4.00 6.84 3.63L9.77 0.70C10.07 0.41 10.07-0.01 9.81-0.34C8.55-1.92 7.83-3.89 7.83-6.04C7.83-10.68 11.26-14.51 15.71-15.14C16.14-15.20 16.43-15.52 16.43-15.94L16.43-20.06C16.43-20.57 16.04-20.94 15.54-20.89C8.00-20.14 2.10-13.77 2.10-6.04ZM31.95-6.04C31.95-13.77 26.05-20.14 18.52-20.89C18-20.94 17.61-20.57 17.61-20.06L17.61-15.94C17.61-15.52 17.92-15.20 18.33-15.14C22.79-14.51 26.23-10.68 26.23-6.04C26.23-3.89 25.50-1.92 24.23-0.33C23.98 0 23.98 0.41 24.27 0.71L27.20 3.64C27.55 4.01 28.09 4.00 28.41 3.62C30.62 1.01 31.95-2.36 31.95-6.04ZM17.00 0.12C17.18 0.12 17.33-0.04 17.33-0.20L17.33-1.15C19.27-1.25 21.08-2.17 21.08-4.21C21.08-5.98 19.82-6.62 18.04-7.02L17.33-7.18L17.33-9.35C17.89-9.27 18.39-9.01 18.66-8.51C18.93-8.09 19.28-7.84 19.77-7.84C20.31-7.84 20.80-8.12 20.80-8.70C20.80-10.08 19.21-11.03 17.33-11.14L17.33-12.13C17.33-12.29 17.18-12.45 17.00-12.45C16.84-12.45 16.69-12.29 16.69-12.13L16.69-11.16C14.75-11.09 13.00-10.09 13.00-8.17C13.00-6.42 14.34-5.65 15.98-5.31L16.69-5.16L16.69-2.94C15.94-2.99 15.46-3.23 15.19-3.80C14.92-4.25 14.61-4.50 14.11-4.50C13.48-4.50 13.03-4.16 13.03-3.52C13.03-3.29 13.09-3.08 13.20-2.86C13.65-1.84 14.99-1.20 16.69-1.14L16.69-0.20C16.69-0.04 16.84 0.12 17.00 0.12ZM15.30-8.39C15.30-8.98 15.88-9.30 16.69-9.36L16.69-7.32C15.76-7.56 15.30-7.85 15.30-8.39ZM18.79-3.95C18.79-3.32 18.19-3 17.33-2.94L17.33-5.03C18.15-4.84 18.79-4.59 18.79-3.95Z" fill="currentColor"/>
</svg>