<svg xmlns="http://www.w3.org/2000/svg" viewBox="0 0 24 24" width="24" height="24">
  <title>dollarsign</title>
  <path transform="matrix(0.7625856419422103, 0, 0, 0.7625856419422103, 3.1974977658623764, 18.45218945487042)" d="M11.45 4.65C11.81 4.65 12.11 4.36 12.11 4.00L12.11 1.99C16.36 1.77 19.97-0.28 19.97-4.39C19.97-8.13 17.12-9.47 13.62-10.23L12.11-10.56L12.11-15.18C13.35-15.02 14.37-14.47 14.95-13.38C15.53-12.50 16.21-12 17.26-12C18.45-12 19.37-12.59 19.37-13.77C19.37-15.39 18.12-16.75 16.61-17.58C15.27-18.39 13.76-18.79 12.11-18.88L12.11-20.92C12.11-21.27 11.81-21.57 11.45-21.57C11.10-21.57 10.79-21.27 10.79-20.92L10.79-18.89C6.75-18.74 3.12-16.66 3.12-12.67C3.12-9.02 5.91-7.46 9.35-6.74L10.79-6.42L10.79-1.68C9.21-1.79 8.09-2.39 7.61-3.53C7.10-4.49 6.39-4.97 5.40-4.97C4.09-4.97 3.16-4.23 3.16-2.96C3.16-1.88 3.91-0.77 4.76-0.01C6.30 1.38 8.58 1.93 10.79 2.00L10.79 4.00C10.79 4.36 11.10 4.65 11.45 4.65ZM7.89-13.13C7.89-14.36 9.07-15.07 10.79-15.20L10.79-10.85C8.86-11.34 7.89-11.98 7.89-13.13ZM15.23-3.84C15.23-2.37 13.63-1.82 12.11-1.69L12.11-6.14C14.38-5.61 15.23-5.11 15.23-3.84Z" fill="currentColor"/>
</svg>