<svg xmlns="http://www.w3.org/2000/svg" viewBox="0 0 24 24" width="24" height="24">
  
  <path transform="matrix(0.7482098494812217, 0, 0, 0.7482098494812217, 0.43051293292415593, 18.33494081543183)" d="M15.46 4.90C22.83 4.90 28.83-1.09 28.83-8.46C28.83-15.83 22.83-21.83 15.46-21.83C8.10-21.83 2.10-15.83 2.10-8.46C2.10-1.09 8.10 4.90 15.46 4.90ZM15.46 0.13C10.71 0.13 6.87-3.71 6.87-8.46C6.87-13.21 10.71-17.05 15.46-17.05C20.21-17.05 24.06-13.21 24.06-8.46C24.06-3.71 20.21 0.13 15.46 0.13ZM15.45-2.24C15.62-2.24 15.77-2.39 15.77-2.55L15.77-3.50C17.71-3.62 19.52-4.54 19.52-6.57C19.52-8.34 18.26-8.99 16.48-9.38L15.77-9.54L15.77-11.71C16.34-11.64 16.83-11.37 17.10-10.88C17.37-10.44 17.71-10.20 18.21-10.20C18.75-10.20 19.24-10.48 19.24-11.06C19.24-12.43 17.65-13.39 15.77-13.51L15.77-14.48C15.77-14.65 15.62-14.80 15.45-14.80C15.28-14.80 15.13-14.65 15.13-14.48L15.13-13.51C13.20-13.44 11.44-12.45 11.44-10.52C11.44-8.78 12.79-8.02 14.43-7.66L15.13-7.52L15.13-5.30C14.38-5.34 13.90-5.59 13.63-6.15C13.36-6.61 13.05-6.86 12.55-6.86C11.92-6.86 11.47-6.52 11.47-5.87C11.47-5.65 11.53-5.44 11.64-5.21C12.09-4.20 13.43-3.55 15.13-3.50L15.13-2.55C15.13-2.39 15.28-2.24 15.45-2.24ZM13.75-10.75C13.75-11.34 14.32-11.66 15.13-11.72L15.13-9.68C14.20-9.91 13.75-10.21 13.75-10.75ZM17.23-6.30C17.23-5.67 16.63-5.37 15.77-5.30L15.77-7.38C16.59-7.20 17.23-6.96 17.23-6.30Z" fill="currentColor"/>
</svg>