<svg xmlns="http://www.w3.org/2000/svg" viewBox="0 0 24 24" width="24" height="24">
  
  <path transform="matrix(0.6389616872582055, 0, 0, 0.6389616872582055, 0.09060277049794063, 17.398727068513665)" d="M32.48 4.59C33.48 4.59 34.29 3.77 34.29 2.78L34.29-17.70C34.29-20.06 32.86-21.49 30.48-21.49L6.81-21.49C4.42-21.49 2.99-20.06 2.99-17.70L2.99 2.78C2.99 3.77 3.80 4.59 4.80 4.59C5.80 4.59 6.61 3.77 6.61 2.78L6.61-17.18C6.61-17.60 6.88-17.87 7.29-17.87L29.99-17.87C30.41-17.87 30.67-17.60 30.67-17.18L30.67 2.78C30.67 3.77 31.48 4.59 32.48 4.59ZM18.28 3.80C18.47 3.80 18.62 3.66 18.62 3.47L18.62-16.07C18.62-16.25 18.47-16.41 18.28-16.41L8.41-16.41C8.23-16.41 8.07-16.25 8.07-16.07L8.07 3.47C8.07 3.66 8.23 3.80 8.41 3.80ZM15.91-4.98C15.50-4.98 15.19-5.31 15.19-5.71L15.19-7.75C15.19-8.16 15.50-8.47 15.91-8.47C16.31-8.47 16.64-8.16 16.64-7.75L16.64-5.71C16.64-5.31 16.31-4.98 15.91-4.98Z" fill="currentColor"/>
</svg>