<svg xmlns="http://www.w3.org/2000/svg" viewBox="0 0 24 24" width="24" height="24">
  <title>dot.scope.display</title>
  <path transform="matrix(0.6648487209453318, 0, 0, 0.6648487209453318, 0.013245033112582849, 17.520062329567587)" d="M6.63 0.28L13.83 0.28L13.83 1.91L13.80 1.91C13.01 1.91 12.38 2.58 12.38 3.34C12.38 4.08 13.01 4.76 13.80 4.76L22.25 4.76C23.05 4.76 23.68 4.08 23.68 3.34C23.68 2.58 23.05 1.91 22.25 1.91L22.23 1.91L22.23 0.28L29.43 0.28C31.71 0.28 33.07-1.08 33.07-3.38L33.07-17.71C33.07-20.00 31.71-21.36 29.43-21.36L6.63-21.36C4.35-21.36 2.99-20.00 2.99-17.71L2.99-3.38C2.99-1.08 4.35 0.28 6.63 0.28ZM7.11-3.14C6.67-3.14 6.40-3.40 6.40-3.84L6.40-17.24C6.40-17.68 6.67-17.94 7.11-17.94L28.96-17.94C29.39-17.94 29.66-17.68 29.66-17.24L29.66-3.84C29.66-3.40 29.39-3.14 28.96-3.14ZM12.80-9.83L13.30-9.83C13.61-7.76 15.25-6.13 17.31-5.81L17.31-5.31C17.31-4.90 17.65-4.58 18.04-4.58C18.43-4.58 18.75-4.92 18.75-5.31L18.75-5.81C20.82-6.12 22.45-7.76 22.77-9.83L23.29-9.83C23.68-9.83 24-10.18 24-10.55C24-10.92 23.68-11.26 23.29-11.26L22.77-11.26C22.45-13.34 20.82-14.98 18.75-15.29L18.75-15.81C18.75-16.18 18.46-16.52 18.04-16.52C17.64-16.52 17.31-16.20 17.31-15.81L17.31-15.29C15.25-14.98 13.61-13.34 13.30-11.26L12.80-11.26C12.40-11.26 12.07-10.95 12.07-10.55C12.07-10.16 12.38-9.83 12.80-9.83ZM20.63-9.83L21.18-9.83C20.93-8.57 20.00-7.63 18.75-7.37L18.75-7.97C18.75-8.34 18.46-8.68 18.04-8.68C17.65-8.68 17.31-8.36 17.31-7.97L17.31-7.37C16.07-7.63 15.15-8.57 14.89-9.83L15.46-9.83C15.84-9.83 16.16-10.16 16.16-10.55C16.16-10.97 15.83-11.26 15.46-11.26L14.89-11.26C15.15-12.53 16.07-13.48 17.31-13.73L17.31-13.15C17.31-12.74 17.64-12.42 18.04-12.42C18.43-12.42 18.75-12.76 18.75-13.15L18.75-13.73C19.99-13.48 20.92-12.53 21.18-11.26L20.63-11.26C20.24-11.26 19.91-10.97 19.91-10.55C19.91-10.16 20.24-9.83 20.63-9.83ZM18.05-9.55C18.59-9.55 19.03-10.01 19.03-10.56C19.03-11.10 18.59-11.55 18.05-11.55C17.50-11.55 17.04-11.10 17.04-10.56C17.04-10.01 17.50-9.55 18.05-9.55Z" fill="currentColor"/>
</svg>