<svg xmlns="http://www.w3.org/2000/svg" viewBox="0 0 24 24" width="24" height="24">
  <title>dryer</title>
  <path transform="matrix(0.7023844324572079, 0, 0, 0.7023844324572079, 1.2419946888097182, 17.5649487708193)" d="M6.49 5.24L15.08 5.24C15.09 4.27 15.60 4.01 15.61 3.43C15.61 3.08 15.47 2.71 14.91 1.92L6.91 1.92C6.55 1.92 6.32 1.69 6.32 1.32L6.32-12.20L22.75-12.20L22.75-6.49C23.55-7.68 24.95-7.96 26.06-7.43L26.06-18.59C26.06-20.70 24.63-22.16 22.57-22.16L6.49-22.16C4.42-22.16 2.99-20.70 2.99-18.59L2.99 1.66C2.99 3.77 4.42 5.24 6.49 5.24ZM6.32-18.25C6.32-18.61 6.55-18.86 6.91-18.86L22.15-18.86C22.50-18.86 22.75-18.61 22.75-18.25L22.75-14.36L6.32-14.36ZM9.06-15.30C9.80-15.30 10.41-15.91 10.41-16.65C10.41-17.39 9.80-18 9.06-18C8.33-18 7.72-17.39 7.72-16.65C7.72-15.91 8.33-15.30 9.06-15.30ZM12.68-15.30C13.42-15.30 14.03-15.91 14.03-16.65C14.03-17.39 13.42-18 12.68-18C11.94-18 11.33-17.39 11.33-16.65C11.33-15.91 11.94-15.30 12.68-15.30ZM17.74-15.79L20.27-15.79C20.79-15.79 21.16-16.15 21.16-16.66C21.16-17.18 20.79-17.55 20.27-17.55L17.74-17.55C17.23-17.55 16.85-17.18 16.85-16.66C16.85-16.15 17.23-15.79 17.74-15.79ZM10.03 0.28L14.07 0.28C13.85-0.27 13.65-0.91 13.55-1.69L10.80-1.69C10.62-1.69 10.46-1.84 10.46-2.03L10.46-8.24C10.46-8.44 10.62-8.59 10.80-8.59L18.26-8.59C18.45-8.59 18.60-8.44 18.60-8.24L18.60-6.43C19.11-7.24 19.83-7.61 20.57-7.68L20.57-9.02C20.57-9.91 19.92-10.56 19.03-10.56L10.03-10.56C9.13-10.56 8.50-9.91 8.50-9.02L8.50-1.25C8.50-0.35 9.13 0.28 10.03 0.28ZM25.48 6.11C25.93 6.43 26.64 6.40 27 5.73C27.42 5.04 27.64 4.21 27.64 3.41C27.64 0.47 25.44-0.90 25.44-3.05C25.44-3.53 25.54-3.90 25.83-4.44C26.16-5.00 25.91-5.52 25.50-5.77C25.04-6.05 24.38-6.02 24.01-5.39C23.59-4.68 23.38-3.87 23.38-3.05C23.38-0.13 25.57 1.22 25.57 3.41C25.57 3.89 25.49 4.24 25.18 4.79C24.87 5.36 25.09 5.85 25.48 6.11ZM21.36 6.11C21.82 6.43 22.51 6.41 22.89 5.73C23.31 5.04 23.53 4.22 23.53 3.41C23.53 0.47 21.33-0.89 21.33-3.04C21.33-3.52 21.41-3.90 21.71-4.44C22.04-5.00 21.80-5.52 21.39-5.75C20.93-6.05 20.26-6.01 19.90-5.38C19.48-4.68 19.27-3.86 19.27-3.04C19.27-0.13 21.46 1.23 21.46 3.41C21.46 3.89 21.38 4.24 21.07 4.79C20.75 5.36 20.98 5.85 21.36 6.11ZM17.26 6.12C17.72 6.43 18.41 6.41 18.80 5.74C19.21 5.04 19.44 4.22 19.44 3.41C19.44 0.47 17.24-0.89 17.24-3.04C17.24-3.52 17.32-3.90 17.63-4.44C17.95-4.99 17.71-5.51 17.30-5.75C16.84-6.05 16.17-6.01 15.81-5.38C15.39-4.68 15.18-3.86 15.18-3.04C15.18-0.13 17.37 1.23 17.37 3.41C17.37 3.89 17.29 4.25 16.97 4.79C16.65 5.36 16.89 5.86 17.26 6.12Z" fill="currentColor"/>
</svg>