<svg xmlns="http://www.w3.org/2000/svg" viewBox="0 0 24 24" width="24" height="24">
  
  <path transform="matrix(0.8650109815847271, 0, 0, 0.8650109815847271, 0.26659908768373075, 19.303598580841356)" d="M12.60 3.12C19.07 3.12 24.14-1.98 24.14-8.45C24.14-14.91 19.07-20.00 12.60-20.00C6.97-20.00 2.99-16.51 2.99-11.53C2.99-9.46 4.00-7.42 6.26-6L9.69-3.83C10.68-3.23 11.72-2.94 12.64-2.94C15.19-2.94 17.19-4.95 17.19-7.27C17.19-8.72 16.41-10.29 14.46-11.50L11.58-13.29C9.59-14.53 10.36-16.62 12.60-16.62C17.17-16.62 20.74-13.03 20.74-8.45C20.74-3.87 17.17-0.29 12.60-0.29C11.65-0.29 10.90 0.47 10.90 1.42C10.90 2.37 11.65 3.12 12.60 3.12Z" fill="currentColor"/>
</svg>