<svg xmlns="http://www.w3.org/2000/svg" viewBox="0 0 24 24" width="24" height="24">
  <title>earpods</title>
  <path transform="matrix(0.7764634516226873, 0, 0, 0.7764634516226873, -0.32029117379435856, 18.569608735213833)" d="M8.91-10.16C12.07-10.13 14.78-12.63 14.74-15.66C14.71-18.67 12.06-21.12 8.91-21.12C6.52-21.12 4.65-19.86 3.45-18.14C3.14-17.67 2.99-17.12 2.99-16.55L2.99-14.72C2.99-14.18 3.14-13.64 3.43-13.17C4.51-11.48 6.49-10.18 8.91-10.16ZM22.83-10.16C25.24-10.18 27.22-11.48 28.30-13.17C28.59-13.64 28.75-14.18 28.75-14.72L28.75-16.55C28.75-17.12 28.58-17.67 28.29-18.14C27.08-19.86 25.21-21.12 22.83-21.12C19.68-21.12 17.03-18.67 16.98-15.66C16.96-12.63 19.65-10.13 22.83-10.16ZM5.87-13.39C5.48-13.39 5.18-13.70 5.18-14.10L5.18-17.19C5.18-17.59 5.48-17.88 5.87-17.88C6.27-17.88 6.56-17.59 6.56-17.19L6.56-14.10C6.56-13.70 6.27-13.39 5.87-13.39ZM25.86-13.39C25.46-13.39 25.16-13.70 25.16-14.10L25.16-17.19C25.16-17.59 25.46-17.88 25.86-17.88C26.25-17.88 26.55-17.59 26.55-17.19L26.55-14.10C26.55-13.70 26.25-13.39 25.86-13.39ZM10.35 4.20L12.18 4.20L12.18-0.49C13.00-0.62 13.50-1.20 13.50-2.05L13.50-10.08C12.21-9.11 10.66-8.58 9.02-8.57L9.02-2.05C9.02-1.20 9.55-0.62 10.35-0.49ZM21.38 4.20L21.38-0.49C22.18-0.62 22.71-1.20 22.71-2.05L22.71-8.57C21.07-8.58 19.52-9.11 18.22-10.08L18.22-2.05C18.22-1.20 18.73-0.62 19.55-0.49L19.55 4.20Z" fill="currentColor"/>
</svg>