<svg xmlns="http://www.w3.org/2000/svg" viewBox="0 0 24 24" width="24" height="24">
  <title>entry.lever.keypad</title>
  <path transform="matrix(0.7691152170647438, 0, 0, 0.7691152170647438, 1.3195132942767023, 18.50292924740874)" d="M22.10-0.39L18.48-0.39L18.48-0.13C18.48 0.55 18.09 0.93 17.44 0.93L7.65 0.93C7.00 0.93 6.62 0.55 6.62-0.13L6.62-16.79C6.62-17.46 7.00-17.84 7.65-17.84L17.44-17.84C18.09-17.84 18.48-17.46 18.48-16.79L18.48-5.66L22.10-5.66L22.10-17.31C22.10-19.97 20.60-21.46 17.93-21.46L7.16-21.46C4.50-21.46 2.99-19.97 2.99-17.31L2.99 0.39C2.99 3.05 4.50 4.55 7.16 4.55L17.93 4.55C20.60 4.55 22.10 3.05 22.10 0.39ZM9.04-13.86C9.84-13.86 10.50-14.53 10.50-15.32C10.50-16.14 9.84-16.79 9.04-16.79C8.23-16.79 7.57-16.14 7.57-15.32C7.57-14.53 8.23-13.86 9.04-13.86ZM12.48-13.86C13.31-13.86 13.97-14.53 13.97-15.32C13.97-16.14 13.31-16.79 12.48-16.79C11.67-16.79 11.02-16.14 11.02-15.32C11.02-14.53 11.67-13.86 12.48-13.86ZM15.95-13.86C16.76-13.86 17.41-14.53 17.41-15.32C17.41-16.14 16.76-16.79 15.95-16.79C15.14-16.79 14.48-16.14 14.48-15.32C14.48-14.53 15.14-13.86 15.95-13.86ZM9.04-10.54C9.84-10.54 10.50-11.19 10.50-12.01C10.50-12.83 9.84-13.50 9.04-13.50C8.23-13.50 7.57-12.83 7.57-12.01C7.57-11.19 8.23-10.54 9.04-10.54ZM12.48-10.54C13.31-10.54 13.97-11.19 13.97-12.01C13.97-12.83 13.31-13.50 12.48-13.50C11.67-13.50 11.02-12.83 11.02-12.01C11.02-11.19 11.67-10.54 12.48-10.54ZM15.95-10.54C16.76-10.54 17.41-11.19 17.41-12.01C17.41-12.83 16.76-13.50 15.95-13.50C15.14-13.50 14.48-12.83 14.48-12.01C14.48-11.19 15.14-10.54 15.95-10.54ZM9.04-7.21C9.84-7.21 10.50-7.86 10.50-8.70C10.50-9.48 9.84-10.16 9.04-10.16C8.23-10.16 7.57-9.48 7.57-8.70C7.57-7.86 8.23-7.21 9.04-7.21ZM12.48-7.21C13.31-7.21 13.97-7.86 13.97-8.70C13.97-9.48 13.31-10.16 12.48-10.16C11.67-10.16 11.02-9.48 11.02-8.70C11.02-7.86 11.67-7.21 12.48-7.21ZM15.95-7.21C16.76-7.21 17.41-7.86 17.41-8.70C17.41-9.48 16.76-10.16 15.95-10.16C15.14-10.16 14.48-9.48 14.48-8.70C14.48-7.86 15.14-7.21 15.95-7.21ZM12.48 0.14C13.68 0.14 14.72-0.52 15.27-1.49L23.25-1.49C24.08-1.49 24.79-2.17 24.79-3.02C24.79-3.88 24.08-4.56 23.25-4.56L15.27-4.56C14.72-5.53 13.68-6.19 12.48-6.19C10.72-6.19 9.30-4.78 9.30-3.04C9.30-1.27 10.72 0.14 12.48 0.14Z" fill="currentColor"/>
</svg>