<svg xmlns="http://www.w3.org/2000/svg" viewBox="0 0 24 24" width="24" height="24">
  
  <path transform="matrix(0.7934294126762746, 0, 0, 0.7934294126762746, 0.33565783356578316, 18.70385867038587)" d="M14.70 4.15C21.66 4.15 27.30-1.49 27.30-8.45C27.30-15.41 21.66-21.05 14.70-21.05C7.75-21.05 2.10-15.41 2.10-8.45C2.10-1.49 7.75 4.15 14.70 4.15ZM14.70-8.13C14.55-8.13 14.43-8.19 14.27-8.34L8.89-13.14C9.19-13.29 9.49-13.35 9.89-13.35L19.51-13.35C19.90-13.35 20.20-13.29 20.51-13.14L15.13-8.34C14.96-8.19 14.85-8.13 14.70-8.13ZM8.03-4.70C7.96-4.92 7.92-5.18 7.92-5.50L7.92-11.38C7.92-11.72 7.96-12.01 8.04-12.21L12.01-8.67ZM21.38-4.70L17.39-8.67L21.35-12.21C21.43-12.01 21.48-11.72 21.48-11.38L21.48-5.50C21.48-5.18 21.45-4.92 21.38-4.70ZM9.83-3.53C9.45-3.53 9.12-3.61 8.86-3.73L12.96-7.82L13.54-7.31C13.92-6.95 14.27-6.83 14.70-6.83C15.13-6.83 15.47-6.95 15.86-7.31L16.44-7.82L20.54-3.73C20.29-3.61 19.95-3.53 19.56-3.53Z" fill="currentColor"/>
</svg>