<svg xmlns="http://www.w3.org/2000/svg" viewBox="0 0 24 24" width="24" height="24">
  <title>eurozonesign.ring</title>
  <path transform="matrix(0.7482098494812217, 0, 0, 0.7482098494812217, 0.43051293292415593, 18.33494081543183)" d="M15.46 4.90C22.83 4.90 28.83-1.09 28.83-8.46C28.83-15.83 22.83-21.83 15.46-21.83C8.10-21.83 2.10-15.83 2.10-8.46C2.10-1.09 8.10 4.90 15.46 4.90ZM15.46 0.13C10.71 0.13 6.87-3.71 6.87-8.46C6.87-13.21 10.71-17.05 15.46-17.05C20.21-17.05 24.06-13.21 24.06-8.46C24.06-3.71 20.21 0.13 15.46 0.13ZM11.19-4.61L13.99-4.61C14.50-4.61 14.81-4.85 14.81-5.36C14.81-5.84 14.48-6.12 13.99-6.12L12.14-6.12L12.14-7.79L13.93-7.79C14.38-7.79 14.66-8.04 14.66-8.48C14.66-8.95 14.36-9.18 13.93-9.18L12.14-9.18L12.14-10.82L13.99-10.82C14.50-10.82 14.81-11.09 14.81-11.57C14.81-12.07 14.50-12.32 13.99-12.32L11.19-12.32C10.59-12.32 10.25-11.94 10.25-11.34L10.25-5.59C10.25-4.98 10.59-4.61 11.19-4.61ZM16.75-4.61L20.23-4.61C20.70-4.61 20.95-4.90 20.95-5.36C20.95-5.82 20.70-6.12 20.23-6.12L17.91-6.12L17.91-6.18L20.60-10.73C20.72-10.91 20.82-11.12 20.82-11.45C20.82-11.99 20.47-12.32 19.90-12.32L16.62-12.32C16.13-12.32 15.79-12.06 15.79-11.57C15.79-11.07 16.13-10.82 16.62-10.82L18.75-10.82L18.75-10.76L16.02-6.16C15.89-5.96 15.81-5.70 15.81-5.44C15.81-4.89 16.22-4.61 16.75-4.61Z" fill="currentColor"/>
</svg>