<svg xmlns="http://www.w3.org/2000/svg" viewBox="0 0 24 24" width="24" height="24">
  <title>faxmachine.fill</title>
  <path transform="matrix(0.7315330761537362, 0, 0, 0.7315330761537362, -0.18602657522503208, 18.258036862408915)" d="M8.09-19.11L25.22-19.11L25.22-19.20C25.22-21.07 23.53-22.05 21.40-22.05L11.92-22.05C9.81-22.05 8.09-21.07 8.09-19.20ZM11.34 4.95L21.97 4.95C24.20 4.95 25.25 3.91 25.25 1.68L25.25 0.41L26.11 0.41C28.79 0.41 30.33-1.10 30.33-3.79L30.33-12.87C30.33-15.55 28.79-17.06 26.11-17.06L7.21-17.06C4.56-17.06 2.99-15.55 2.99-12.87L2.99-3.79C2.99-1.10 4.52 0.41 7.21 0.41L8.06 0.41L8.06 1.68C8.06 3.91 9.12 4.95 11.34 4.95ZM10.46-11.04C10.04-11.04 9.81-11.29 9.81-11.71L9.81-12.88C9.81-13.30 10.04-13.54 10.46-13.54L11.63-13.54C12.06-13.54 12.29-13.30 12.29-12.88L12.29-11.71C12.29-11.29 12.06-11.04 11.63-11.04ZM14.23-11.04C13.80-11.04 13.56-11.29 13.56-11.71L13.56-12.88C13.56-13.30 13.80-13.54 14.23-13.54L15.39-13.54C15.81-13.54 16.04-13.30 16.04-12.88L16.04-11.71C16.04-11.29 15.81-11.04 15.39-11.04ZM17.98-11.04C17.57-11.04 17.32-11.29 17.32-11.71L17.32-12.88C17.32-13.30 17.57-13.54 17.98-13.54L19.15-13.54C19.56-13.54 19.80-13.30 19.80-12.88L19.80-11.71C19.80-11.29 19.56-11.04 19.15-11.04ZM21.74-11.04C21.32-11.04 21.08-11.29 21.08-11.71L21.08-12.88C21.08-13.30 21.32-13.54 21.74-13.54L22.91-13.54C23.32-13.54 23.57-13.30 23.57-12.88L23.57-11.71C23.57-11.29 23.32-11.04 22.91-11.04ZM10.46-7.15C10.04-7.15 9.81-7.38 9.81-7.80L9.81-8.98C9.81-9.40 10.04-9.64 10.46-9.64L11.63-9.64C12.06-9.64 12.29-9.40 12.29-8.98L12.29-7.80C12.29-7.38 12.06-7.15 11.63-7.15ZM14.23-7.15C13.80-7.15 13.56-7.38 13.56-7.80L13.56-8.98C13.56-9.40 13.80-9.64 14.23-9.64L15.39-9.64C15.81-9.64 16.04-9.40 16.04-8.98L16.04-7.80C16.04-7.38 15.81-7.15 15.39-7.15ZM17.98-7.15C17.57-7.15 17.32-7.38 17.32-7.80L17.32-8.98C17.32-9.40 17.57-9.64 17.98-9.64L19.15-9.64C19.56-9.64 19.80-9.40 19.80-8.98L19.80-7.80C19.80-7.38 19.56-7.15 19.15-7.15ZM21.74-7.15C21.32-7.15 21.08-7.38 21.08-7.80L21.08-8.98C21.08-9.40 21.32-9.64 21.74-9.64L22.91-9.64C23.32-9.64 23.57-9.40 23.57-8.98L23.57-7.80C23.57-7.38 23.32-7.15 22.91-7.15ZM11.52 2.10C11.16 2.10 10.96 1.91 10.96 1.54L10.96-2.59C10.96-2.95 11.16-3.15 11.52-3.15L21.80-3.15C22.16-3.15 22.36-2.95 22.36-2.59L22.36 1.54C22.36 1.91 22.16 2.10 21.80 2.10ZM13.58 0.67L19.79 0.67C20.45 0.67 20.98 0.14 20.98-0.53C20.98-1.18 20.45-1.71 19.79-1.71L13.58-1.71C12.91-1.71 12.39-1.18 12.39-0.53C12.39 0.14 12.91 0.67 13.58 0.67Z" fill="currentColor"/>
</svg>