<svg xmlns="http://www.w3.org/2000/svg" viewBox="0 0 24 24" width="24" height="24">
  <title>figure.seated.side.right.airbag.off.2</title>
  <path transform="matrix(0.5890112727200253, 0, 0, 0.5890112727200253, 0.23296618183992424, 17.040778998386642)" d="M30.09-8.37C31.51-8.37 32.84-8.81 33.94-9.56L34.43-9.07C34.92-8.58 35.74-8.58 36.25-9.07C36.75-9.56 36.75-10.38 36.25-10.89L35.77-11.38C36.52-12.47 36.95-13.78 36.95-15.16C36.95-16.61 36.52-17.93 35.78-19.03L36.25-19.50C36.75-20.00 36.75-20.82 36.25-21.33C35.74-21.82 34.92-21.82 34.43-21.33L33.96-20.86C32.86-21.61 31.52-22.04 30.09-22.04C28.66-22.04 27.35-21.61 26.26-20.87L25.80-21.33C25.31-21.82 24.49-21.82 24-21.33C23.50-20.82 23.50-20.00 24-19.50L24.46-19.04C23.72-17.94 23.30-16.61 23.30-15.16C23.30-13.77 23.73-12.46 24.47-11.37L24-10.89C23.50-10.38 23.50-9.56 24-9.07C24.49-8.58 25.31-8.58 25.80-9.07L26.29-9.54C27.36-8.80 28.66-8.37 30.09-8.37ZM15.33-14.52C17.33-14.52 18.90-16.16 18.90-18.09C18.90-20.10 17.33-21.71 15.33-21.71C13.32-21.71 11.72-20.10 11.72-18.09C11.72-16.16 13.32-14.52 15.33-14.52ZM30.09-19.48C30.81-19.48 31.49-19.30 32.09-18.98L30.12-17.02L28.14-19.00C28.71-19.30 29.38-19.48 30.09-19.48ZM25.86-15.16C25.86-15.89 26.04-16.57 26.33-17.17L28.30-15.20L26.34-13.23C26.04-13.82 25.86-14.47 25.86-15.16ZM34.38-15.16C34.38-14.47 34.21-13.82 33.89-13.24L31.93-15.20L33.90-17.16C34.21-16.56 34.38-15.88 34.38-15.16ZM30.09-10.93C29.39-10.93 28.73-11.11 28.15-11.41L30.12-13.38L32.07-11.43C31.48-11.12 30.80-10.93 30.09-10.93ZM17.51-1.03L21.93-6.43L19.56-10.71C18.41-12.77 16.49-13.54 14.63-12.49C12.69-11.48 12.33-9.42 13.46-7.37L15.89-2.98C16.35-2.12 16.96-1.46 17.51-1.03ZM36.42 4.39C37.11 3.70 37.20 2.58 36.29 1.63L30.59-4.32C29.21-5.74 27.79-5.95 26.09-5.32L23.73-4.44L20.05 0.09C20.89 0.27 22.03 0.25 23.09-0.15L27.26-1.71C27.57-1.82 27.73-1.79 27.95-1.57L33.48 4.15C34.41 5.11 35.65 5.17 36.42 4.39ZM4.22 4.92L9.86 4.92C10.51 4.92 10.97 4.46 10.97 3.83C10.97 3.18 10.51 2.74 9.86 2.74L6.77 2.74L6.77 2.71L8.81 0.82C9.86-0.12 10.52-1.05 10.52-2.09C10.52-3.90 9.02-5.09 6.74-5.09C5.04-5.09 3.53-4.27 3.13-2.96C3.09-2.78 3.06-2.58 3.06-2.39C3.06-1.75 3.53-1.28 4.21-1.28C4.80-1.28 5.18-1.54 5.39-2.03C5.60-2.57 6.01-2.94 6.68-2.94C7.39-2.94 7.86-2.54 7.86-1.97C7.86-1.43 7.48-0.95 6.87-0.39L3.63 2.53C3.22 2.89 3 3.29 3 3.75C3 4.46 3.47 4.92 4.22 4.92ZM14.81 4.45C15.41 4.92 16.16 4.89 16.78 4.13L20.05 0.09C19.08-0.15 18.23-0.54 17.51-1.03L14.71 2.44C14.10 3.18 14.17 3.93 14.81 4.45Z" fill="currentColor"/>
</svg>