<svg xmlns="http://www.w3.org/2000/svg" viewBox="0 0 24 24" width="24" height="24">
  
  <path transform="matrix(0.6915006469939852, 0, 0, 0.6915006469939852, 0.7369346230236764, 17.9234231016779)" d="M15.47-17.30C17.04-17.30 18.33-18.59 18.33-20.17C18.33-21.74 17.04-23.03 15.47-23.03C13.89-23.03 12.60-21.74 12.60-20.17C12.60-18.59 13.89-17.30 15.47-17.30ZM4.02 5.47C4.58 5.99 5.47 6.08 6.09 5.47L11.46 0.12C11.86-0.26 11.93-0.60 11.88-1.11L11.63-3.94C11.60-4.21 11.87-4.31 12.07-4.14L15.36-1.30L17.34 4.85C17.63 5.71 18.48 6.02 19.20 5.81C20.02 5.57 20.41 4.73 20.17 3.96L18.08-2.59C18.01-2.79 17.89-3.04 17.70-3.20L13.69-7.20L16.24-12.33C16.31-12.46 16.43-12.48 16.54-12.38L19.49-9.40C19.64-9.25 19.89-9.11 20.09-9.04L26.05-7.25C26.64-7.09 27.59-7.30 27.89-8.26C28.11-9.04 27.67-9.88 26.91-10.10L21.30-11.75L18.11-14.98C17.32-15.75 16.43-16.10 15.38-16.10L6.84-16.10C6.28-16.10 5.78-15.76 5.53-15.28L3.14-10.51C2.79-9.81 3.05-8.91 3.81-8.55C4.55-8.19 5.43-8.46 5.79-9.21L7.73-13.14L10.10-13.14C10.25-13.14 10.32-13.00 10.25-12.87L8.43-9.19C7.75-7.82 7.57-6.23 7.95-4.76L8.78-1.39L4.01 3.35C3.43 3.93 3.45 4.89 4.02 5.47ZM26.48 0.26C28.21 0.26 29.59-1.14 29.59-2.85C29.59-4.58 28.21-5.98 26.48-5.98C24.75-5.98 23.37-4.58 23.37-2.85C23.37-1.14 24.75 0.26 26.48 0.26Z" fill="currentColor"/>
</svg>