<svg xmlns="http://www.w3.org/2000/svg" viewBox="0 0 24 24" width="24" height="24">
  
  <path transform="matrix(0.7934294126762746, 0, 0, 0.7934294126762746, 0.33565783356578316, 18.713156671315666)" d="M14.70 4.14C21.66 4.14 27.30-1.50 27.30-8.46C27.30-15.42 21.66-21.06 14.70-21.06C7.73-21.06 2.10-15.42 2.10-8.46C2.10-1.50 7.73 4.14 14.70 4.14ZM14.70 0.48C9.75 0.48 5.75-3.52 5.75-8.46C5.75-13.41 9.75-17.40 14.70-17.40C19.64-17.40 23.64-13.41 23.64-8.46C23.64-3.52 19.64 0.48 14.70 0.48ZM14.85-12.62C15.57-12.62 16.18-13.23 16.18-13.97C16.18-14.72 15.57-15.32 14.85-15.32C14.10-15.32 13.50-14.72 13.50-13.97C13.50-13.23 14.10-12.62 14.85-12.62ZM10.93-10.71L12.79-10.71C12.84-10.71 12.88-10.66 12.88-10.62L12.70-8.20C12.63-7.29 13.18-6.73 13.96-6.55L16.30-6.06L16.82-3.53C16.89-3.12 17.32-2.93 17.63-2.99C18-3.06 18.25-3.43 18.16-3.80L17.58-6.79C17.52-7.04 17.30-7.24 17.05-7.31L15.26-7.88L15.41-10.05C15.42-10.15 15.50-10.18 15.57-10.13L16.46-9.39C16.58-9.28 16.73-9.22 16.90-9.22L19.57-9.22C19.96-9.22 20.25-9.54 20.25-9.91C20.25-10.30 19.96-10.59 19.57-10.59L17.13-10.59L15.88-11.65C15.55-11.93 15.22-12.09 14.73-12.09L11.87-12.09L12.49-14.18C12.60-14.54 12.40-14.93 12.04-15.04C11.67-15.14 11.27-14.93 11.17-14.57L10.29-11.60C10.15-11.16 10.37-10.71 10.93-10.71ZM13.43-1.24C13.75-1.15 14.17-1.29 14.29-1.70L15.18-4.65C15.20-4.75 15.21-4.84 15.21-4.93L15.21-5.68L13.84-5.98C13.77-5.99 13.75-6 13.70-6.01L13.82-4.95L12.96-2.10C12.86-1.73 13.07-1.36 13.43-1.24Z" fill="currentColor"/>
</svg>