<svg xmlns="http://www.w3.org/2000/svg" viewBox="0 0 24 24" width="24" height="24">
  <title>figure.seated.side.left.windshield.front.and.heat.waves.air.distribution.middle</title>
  <path transform="matrix(0.5513823425075306, 0, 0, 0.5513823425075306, 2.169620205207678, 16.576596042120133)" d="M32.36-14.43C34.36-14.43 35.96-16.07 35.96-18C35.96-20.00 34.36-21.62 32.36-21.62C30.36-21.62 28.78-20.00 28.78-18C28.78-16.07 30.36-14.43 32.36-14.43ZM14.36-15.71C14.36-14.98 14.94-14.39 15.68-14.39L19.90-14.39L19.90-12.60C19.90-11.57 20.94-11.11 21.70-11.80L25.21-14.95C25.71-15.41 25.71-16.01 25.21-16.46L21.70-19.62C20.98-20.27 19.90-19.91 19.90-18.82L19.90-17.03L15.68-17.03C14.94-17.03 14.36-16.43 14.36-15.71ZM3.32-10.41C3.73-9.89 4.49-10.44 4.08-10.99C3.83-11.33 3.77-11.52 3.77-11.79C3.77-12.19 4.02-12.42 4.25-12.73C4.88-12.98 5.60-13.17 6.23-13.21C6.35-13.38 6.45-13.55 6.45-13.76C6.45-14.40 5.58-14.64 5.58-15.75C5.58-16.21 5.72-16.63 6.09-17.11C6.52-17.61 7.28-17.07 6.87-16.54C6.61-16.18 6.55-16.00 6.55-15.75C6.55-14.99 7.41-14.79 7.41-13.76C7.41-13.51 7.35-13.30 7.28-13.14C7.75-13.04 8.21-12.89 8.64-12.71C8.48-12.48 8.37-12.20 8.37-11.79C8.37-11.31 8.52-10.88 8.88-10.41C9.30-9.89 10.05-10.44 9.66-10.99C9.40-11.33 9.33-11.52 9.33-11.79C9.33-12.30 9.75-12.55 10.00-13.00L12.91-16.68C13.32-17.20 13.24-17.79 12.74-18.18C11.41-19.23 8.93-19.95 6.43-19.95C3.94-19.95 1.46-19.23 0.14-18.18C-0.38-17.79-0.46-17.19-0.05-16.68L3.06-12.74L3.08-12.73C2.92-12.49 2.80-12.20 2.80-11.79C2.80-11.31 2.95-10.88 3.32-10.41ZM8.96-12.56C8.86-12.62 8.75-12.67 8.64-12.71C8.89-13.11 9.25-13.35 9.25-13.76C9.25-14.40 8.37-14.64 8.37-15.75C8.37-16.21 8.52-16.63 8.88-17.11C9.30-17.61 10.05-17.07 9.66-16.54C9.40-16.18 9.33-16.00 9.33-15.75C9.33-14.99 10.20-14.79 10.20-13.76C10.20-13.44 10.11-13.21 10.00-13.00L9.80-12.74C9.57-12.47 9.27-12.45 8.96-12.56ZM3.68-13.76C3.68-14.40 2.80-14.64 2.80-15.75C2.80-16.21 2.95-16.63 3.32-17.11C3.73-17.61 4.49-17.07 4.08-16.54C3.83-16.18 3.77-16.00 3.77-15.75C3.77-14.99 4.63-14.79 4.63-13.76C4.63-13.28 4.44-12.98 4.25-12.73C4.13-12.67 4.01-12.62 3.90-12.56C3.62-12.45 3.30-12.46 3.08-12.73C3.34-13.11 3.68-13.35 3.68-13.76ZM6.09-10.41C6.50-9.89 7.27-10.44 6.87-10.99C6.61-11.33 6.55-11.52 6.55-11.79C6.55-12.35 7.03-12.60 7.28-13.14C6.98-13.18 6.69-13.22 6.43-13.22C6.36-13.22 6.29-13.22 6.23-13.21C5.98-12.87 5.58-12.53 5.58-11.79C5.58-11.31 5.72-10.88 6.09-10.41ZM11.27 4.49C12.04 5.26 13.28 5.20 14.21 4.24L19.73-1.48C19.96-1.70 20.12-1.72 20.43-1.62L24.49-0.09C27.27 0.94 30.34-0.22 31.69-2.67L34.22-7.28C35.34-9.33 34.97-11.33 33.06-12.39C31.20-13.43 29.27-12.68 28.13-10.62L24.55-4.13L21.60-5.23C19.90-5.86 18.47-5.65 17.10-4.23L11.39 1.72C10.49 2.67 10.57 3.80 11.27 4.49Z" fill="currentColor"/>
</svg>