<svg xmlns="http://www.w3.org/2000/svg" viewBox="0 0 24 24" width="24" height="24">
  <title>figure.dance.circle.fill</title>
  <path transform="matrix(0.7934294126762746, 0, 0, 0.7934294126762746, 0.33565783356578316, 18.713156671315666)" d="M14.70 4.14C21.66 4.14 27.30-1.50 27.30-8.46C27.30-15.42 21.66-21.06 14.70-21.06C7.75-21.06 2.10-15.42 2.10-8.46C2.10-1.50 7.75 4.14 14.70 4.14ZM11.75-0.81C11.37-0.81 11.06-1.11 11.06-1.51L11.06-4.70C11.06-4.84 11.09-4.98 11.19-5.12L12.86-7.44C12.59-8.37 12.45-9.61 12.40-10.29C12.36-10.55 12.32-10.65 12.20-10.80L10.89-12.68C10.79-12.81 10.76-12.94 10.76-13.10L10.76-15.42C10.76-15.80 11.09-16.11 11.48-16.11C11.87-16.11 12.20-15.80 12.20-15.42L12.20-13.32L12.93-12.27C13.22-11.84 13.66-11.67 14.19-11.54C14.65-11.44 15.18-11.33 15.66-11.09L17.30-10.27C17.44-10.20 17.55-10.08 17.61-9.94L18.75-7.66C19.22-6.74 17.91-6.15 17.48-7.02L16.45-9.09L15.35-9.66C15.20-9.73 15.14-9.69 15.15-9.52C15.22-8.82 15.34-8.14 15.60-7.63L18.48-1.85C18.90-1.00 17.64-0.34 17.18-1.24L15.80-4.02L14.25-6.07C14.20-6.14 14.11-6.15 14.05-6.08L12.48-4.41L12.48-1.51C12.48-1.11 12.16-0.81 11.75-0.81ZM14.70-12.13C13.89-12.13 13.24-12.77 13.24-13.56C13.24-14.34 13.89-14.99 14.70-14.99C15.47-14.99 16.13-14.34 16.13-13.56C16.13-12.77 15.47-12.13 14.70-12.13Z" fill="currentColor"/>
</svg>