<svg xmlns="http://www.w3.org/2000/svg" viewBox="0 0 24 24" width="24" height="24">
  
  <path transform="matrix(0.7934294126762746, 0, 0, 0.7934294126762746, 0.33565783356578316, 18.713156671315666)" d="M14.70 4.14C21.66 4.14 27.30-1.50 27.30-8.46C27.30-15.42 21.66-21.06 14.70-21.06C7.73-21.06 2.10-15.42 2.10-8.46C2.10-1.50 7.73 4.14 14.70 4.14ZM14.70 0.48C9.75 0.48 5.75-3.52 5.75-8.46C5.75-13.41 9.75-17.40 14.70-17.40C19.64-17.40 23.64-13.41 23.64-8.46C23.64-3.52 19.64 0.48 14.70 0.48ZM15.66-13.22C16.39-13.22 17.00-13.83 17.00-14.57C17.00-15.30 16.39-15.91 15.66-15.91C14.91-15.91 14.31-15.30 14.31-14.57C14.31-13.83 14.91-13.22 15.66-13.22ZM10.03-6.08L13.84-6.08C14.45-6.08 14.72-6.76 14.37-7.18L13.29-8.51L16.52-8.73L19.72-8.73C20.10-8.73 20.40-9.02 20.40-9.40C20.40-9.76 20.10-10.08 19.72-10.08L14.02-10.08L15.27-11.33C15.30-11.37 15.35-11.39 15.41-11.39L19.61-10.84C20.00-10.78 20.38-11.09 20.38-11.52C20.38-11.85 20.11-12.14 19.78-12.18L10.99-13.30C10.78-13.32 10.58-13.25 10.43-13.10L8.96-11.64C8.68-11.36 8.71-10.96 8.96-10.68C9.20-10.43 9.64-10.41 9.93-10.68L11.14-11.92L12.41-11.75C12.49-11.73 12.52-11.67 12.46-11.59L11.23-10.38C10.68-9.84 10.68-9 11.23-8.43L12.20-7.43L10.03-7.43C9.66-7.43 9.35-7.14 9.35-6.76C9.35-6.39 9.66-6.08 10.03-6.08ZM15.38-1.48C15.38-1.21 15.60-0.98 15.87-0.98C16.14-0.98 16.35-1.21 16.35-1.48L16.35-7.17C16.35-7.44 16.14-7.66 15.87-7.66C15.60-7.66 15.38-7.44 15.38-7.17Z" fill="currentColor"/>
</svg>