<svg xmlns="http://www.w3.org/2000/svg" viewBox="0 0 24 24" width="24" height="24">
  
  <path transform="matrix(0.7934294126762746, 0, 0, 0.7934294126762746, 0.33565783356578316, 18.713156671315666)" d="M14.70 4.14C21.66 4.14 27.30-1.50 27.30-8.46C27.30-15.42 21.66-21.06 14.70-21.06C7.73-21.06 2.10-15.42 2.10-8.46C2.10-1.50 7.73 4.14 14.70 4.14ZM14.70 0.48C9.75 0.48 5.75-3.52 5.75-8.46C5.75-13.41 9.75-17.40 14.70-17.40C19.64-17.40 23.64-13.41 23.64-8.46C23.64-3.52 19.64 0.48 14.70 0.48ZM11.99-12.25C12.74-12.25 13.34-12.86 13.34-13.59C13.34-14.33 12.74-14.94 11.99-14.94C11.26-14.94 10.64-14.33 10.64-13.59C10.64-12.86 11.26-12.25 11.99-12.25ZM20.14-4.46L16.79-6.28L14.58-7.80C14.45-7.90 14.33-8.00 14.23-8.12C14.41-8.30 14.48-8.55 14.43-8.81L13.99-10.56C13.84-11.23 13.23-11.67 12.56-11.67L11.18-11.67C10.73-11.67 10.43-11.57 10.13-11.27L8.57-9.70C8.34-9.48 8.31-9.15 8.46-8.88L9.54-6.97L9.54-3.87C9.54-3.49 9.86-3.19 10.22-3.19C10.61-3.19 10.92-3.49 10.92-3.87L10.92-6.43L14.17-6.19L16.17-5.04L19.49-3.26C19.89-3.06 20.29-3.26 20.41-3.54C20.59-3.88 20.46-4.29 20.14-4.46ZM9.90-9.11L10.77-9.98L11.48-8.14L10.95-7.85L10.63-7.85Z" fill="currentColor"/>
</svg>