<svg xmlns="http://www.w3.org/2000/svg" viewBox="0 0 24 24" width="24" height="24">
  
  <path transform="matrix(0.6728760598767841, 0, 0, 0.6728760598767841, -0.010742913303671386, 17.53246011090856)" d="M4.78 0.86L21.76 0.86L26.74-4.11C26.96-4.35 27.30-4.36 27.54-4.11L29.34-2.32L27.36-0.33C26.07 0.98 28.04 2.94 29.33 1.63L32.29-1.34C32.86-1.92 32.85-2.75 32.29-3.30L28.83-6.76C28.13-7.48 27.18-7.89 26.18-7.89L17.79-7.89L17.79-21.83C17.79-22.95 16.18-23.41 15.50-22.18L3.77-1.07C3.22-0.06 3.80 0.86 4.78 0.86ZM6.66-1.22C6.45-1.22 6.41-1.39 6.49-1.54L15.46-17.65C15.52-17.78 15.71-17.72 15.71-17.58L15.71-1.22ZM25.37-9.09C26.95-9.09 28.24-10.38 28.24-11.95C28.24-13.54 26.95-14.82 25.37-14.82C23.79-14.82 22.51-13.54 22.51-11.95C22.51-10.38 23.79-9.09 25.37-9.09ZM19.77-5.09C19.99-5.09 20.02-4.89 19.91-4.77L17.79-2.65L17.79-5.09ZM3.95 6.47L5.21 6.47C8.67 6.47 9.33 4.49 11.40 4.49C13.46 4.49 14.13 6.47 17.58 6.47C21.04 6.47 21.69 4.49 23.75 4.49C25.83 4.49 26.50 6.47 29.94 6.47L31.22 6.47C31.76 6.47 32.18 6.05 32.18 5.52C32.18 4.98 31.76 4.56 31.22 4.56L29.94 4.56C27.80 4.56 27.08 2.58 23.75 2.58C20.45 2.58 19.72 4.56 17.58 4.56C15.43 4.56 14.71 2.58 11.40 2.58C8.09 2.58 7.36 4.56 5.21 4.56L3.95 4.56C3.41 4.56 2.99 4.98 2.99 5.52C2.99 6.05 3.41 6.47 3.95 6.47Z" fill="currentColor"/>
</svg>