<svg xmlns="http://www.w3.org/2000/svg" viewBox="0 0 24 24" width="24" height="24">
  
  <path transform="matrix(0.5593190070255255, 0, 0, 0.5593190070255255, 0.32859749853700393, 16.64247212232884)" d="M6.60-14.43C8.60-14.43 10.18-16.07 10.18-18C10.18-20.00 8.60-21.62 6.60-21.62C4.59-21.62 2.99-20.00 2.99-18C2.99-16.07 4.59-14.43 6.60-14.43ZM15.76-15.66L17.57-15.66L17.57-11.21C17.57-10.49 18.15-9.89 18.89-9.89C19.61-9.89 20.20-10.49 20.20-11.21L20.20-15.66L21.98-15.66C23.03-15.66 23.47-16.70 22.78-17.46L19.63-20.95C19.17-21.46 18.59-21.46 18.13-20.95L14.98-17.46C14.31-16.72 14.70-15.66 15.76-15.66ZM25.52-16.68L28.63-12.74L28.64-12.73C28.49-12.49 28.37-12.20 28.37-11.79C28.37-11.31 28.52-10.88 28.88-10.41C29.30-9.89 30.06-10.44 29.64-10.99C29.39-11.33 29.34-11.52 29.34-11.79C29.34-12.19 29.59-12.42 29.81-12.73C30.43-12.98 31.16-13.17 31.79-13.21C31.92-13.38 32.02-13.55 32.02-13.76C32.02-14.40 31.15-14.64 31.15-15.75C31.15-16.21 31.29-16.63 31.65-17.11C32.07-17.61 32.84-17.07 32.44-16.54C32.18-16.18 32.12-16.00 32.12-15.75C32.12-14.99 32.96-14.79 32.96-13.76C32.96-13.51 32.92-13.30 32.84-13.14C33.30-13.04 33.79-12.89 34.21-12.71C34.05-12.48 33.93-12.20 33.93-11.79C33.93-11.31 34.08-10.88 34.44-10.41C34.88-9.89 35.63-10.44 35.21-10.99C34.97-11.33 34.90-11.52 34.90-11.79C34.90-12.30 35.31-12.55 35.57-13.00L38.48-16.68C38.89-17.20 38.81-17.79 38.31-18.18C36.97-19.23 34.50-19.95 31.99-19.95C29.51-19.95 27.04-19.23 25.71-18.18C25.18-17.79 25.11-17.19 25.52-16.68ZM34.52-12.56C34.43-12.62 34.31-12.67 34.21-12.71C34.46-13.11 34.80-13.35 34.80-13.76C34.80-14.40 33.93-14.64 33.93-15.75C33.93-16.21 34.08-16.63 34.45-17.11C34.88-17.61 35.63-17.07 35.21-16.54C34.97-16.18 34.90-16.00 34.90-15.75C34.90-14.99 35.77-14.79 35.77-13.76C35.77-13.44 35.68-13.21 35.57-13.00L35.37-12.74C35.14-12.47 34.83-12.45 34.52-12.56ZM29.24-13.76C29.24-14.40 28.37-14.64 28.37-15.75C28.37-16.21 28.52-16.63 28.88-17.11C29.30-17.61 30.06-17.07 29.65-16.54C29.39-16.18 29.34-16.00 29.34-15.75C29.34-14.99 30.20-14.79 30.20-13.76C30.20-13.28 30.01-12.98 29.81-12.73C29.70-12.67 29.58-12.62 29.47-12.56C29.18-12.45 28.86-12.46 28.64-12.73C28.90-13.11 29.24-13.35 29.24-13.76ZM31.65-10.41C32.07-9.89 32.84-10.44 32.44-10.99C32.18-11.33 32.12-11.52 32.12-11.79C32.12-12.35 32.60-12.60 32.84-13.14C32.55-13.18 32.26-13.22 31.99-13.22C31.93-13.22 31.86-13.22 31.79-13.21C31.54-12.87 31.15-12.53 31.15-11.79C31.15-11.31 31.29-10.88 31.65-10.41ZM27.69 4.49C28.39 3.80 28.48 2.67 27.56 1.72L21.87-4.23C20.50-5.65 19.05-5.86 17.37-5.23L14.40-4.13L10.83-10.62C9.69-12.68 7.76-13.43 5.91-12.39C4.00-11.33 3.62-9.33 4.75-7.28L7.28-2.67C8.63-0.22 11.70 0.94 14.46-0.09L18.54-1.62C18.84-1.72 19.01-1.70 19.22-1.48L24.75 4.24C25.68 5.20 26.92 5.26 27.69 4.49Z" fill="currentColor"/>
</svg>