<svg xmlns="http://www.w3.org/2000/svg" viewBox="0 0 24 24" width="24" height="24">
  <title>figure.skiing.downhill.circle.fill</title>
  <path transform="matrix(0.7934294126762746, 0, 0, 0.7934294126762746, 0.33565783356578316, 18.713156671315666)" d="M14.70 4.14C21.66 4.14 27.30-1.50 27.30-8.46C27.30-15.42 21.66-21.06 14.70-21.06C7.75-21.06 2.10-15.42 2.10-8.46C2.10-1.50 7.75 4.14 14.70 4.14ZM17.36-13.39C16.56-13.39 15.91-14.05 15.91-14.84C15.91-15.63 16.56-16.28 17.36-16.28C18.14-16.28 18.79-15.63 18.79-14.84C18.79-14.05 18.14-13.39 17.36-13.39ZM20.18-4.64C19.89-4.64 19.66-4.88 19.66-5.17L19.66-10.52L16.99-10.52C16.80-10.52 16.62-10.61 16.49-10.73L15.48-11.75C15.41-11.81 15.34-11.81 15.28-11.75L13.89-10.37L15.45-8.80C15.59-8.66 15.67-8.48 15.67-8.30L15.67-5.33C15.67-5.19 15.62-5.06 15.56-4.96L18.13-2.39C18.42-2.10 18.55-2.02 18.91-2.02C19.20-2.02 19.44-1.77 19.44-1.49C19.44-1.20 19.20-0.97 18.91-0.97C18.39-0.97 17.89-1.13 17.50-1.52L13.89-5.14L13.88-5.03C13.85-4.90 13.77-4.77 13.69-4.69L16.42-1.96C16.71-1.65 16.85-1.58 17.10-1.58C17.38-1.58 17.61-1.35 17.61-1.04C17.61-0.75 17.38-0.52 17.05-0.52C16.57-0.52 16.17-0.71 15.79-1.09L9.13-7.77C8.92-7.97 8.91-8.30 9.13-8.51C9.33-8.72 9.64-8.71 9.87-8.50L12.43-5.94L12.43-6.60L10.83-8.21C10.63-8.41 10.62-8.75 10.83-8.95C11.03-9.16 11.37-9.15 11.57-8.95L12.43-8.09L12.43-8.59L11.37-9.64C10.88-10.11 10.77-10.93 11.19-11.47L11.24-11.53L7.55-11.53C7.27-11.53 7.03-11.77 7.03-12.05C7.03-12.33 7.27-12.57 7.55-12.57L11.96-12.57L11.16-13.38C10.70-13.85 10.92-14.65 11.65-14.65L13.97-14.65C14.39-14.65 14.81-14.45 15.12-14.16L17.30-11.99L19.97-11.99C20.37-11.99 20.70-11.66 20.70-11.26L20.70-5.17C20.70-4.88 20.47-4.64 20.18-4.64ZM13.90-6.62L14.19-6.33L14.19-7.98L13.90-8.30Z" fill="currentColor"/>
</svg>