<svg xmlns="http://www.w3.org/2000/svg" viewBox="0 0 24 24" width="24" height="24">
  <title>figure.pickleball.circle.fill</title>
  <path transform="matrix(0.7934294126762746, 0, 0, 0.7934294126762746, 0.33565783356578316, 18.713156671315666)" d="M14.70 4.14C21.66 4.14 27.30-1.50 27.30-8.46C27.30-15.42 21.66-21.06 14.70-21.06C7.75-21.06 2.10-15.42 2.10-8.46C2.10-1.50 7.75 4.14 14.70 4.14ZM8.98-8.47L9.95-11.38C10.05-11.70 10.31-11.88 10.64-11.88L14.68-11.88C15.18-11.88 15.67-11.68 15.98-11.38L17.43-9.94L18.74-11.25C18.77-11.27 18.81-11.32 18.84-11.34L18.84-11.98L18.38-12.21C18.12-12.33 17.96-12.59 17.96-12.87L17.96-14.74C17.96-15.15 18.30-15.48 18.70-15.48L20.02-15.48C20.44-15.48 20.74-15.14 20.74-14.74L20.74-12.87C20.74-12.59 20.60-12.34 20.34-12.21L19.89-11.98L19.89-11.33C20.17-11.05 20.18-10.62 19.89-10.31L17.94-8.37C17.65-8.07 17.18-8.09 16.90-8.37L15.42-9.87C15.32-9.96 15.20-9.94 15.16-9.82L14.13-6.71L16.09-5.85C16.32-5.73 16.43-5.59 16.50-5.39L17.44-2.16C17.58-1.65 17.26-1.34 16.91-1.24C16.57-1.16 16.16-1.28 16.03-1.75L15.20-4.64L12.60-5.78C11.65-6.19 11.40-7.01 11.68-7.86L12.47-10.22C12.49-10.34 12.45-10.43 12.33-10.43L11.16-10.43L10.35-8.03C10.20-7.57 9.81-7.43 9.47-7.51C9.11-7.61 8.80-7.97 8.98-8.47ZM14.68-12.48C13.89-12.48 13.25-13.14 13.25-13.93C13.25-14.72 13.89-15.38 14.68-15.38C15.47-15.38 16.11-14.72 16.11-13.93C16.11-13.14 15.47-12.48 14.68-12.48ZM9.23-1.70C9.05-2.00 9.04-2.45 9.49-2.71L11.59-3.87L11.85-5.40C12-5.32 12.15-5.23 12.34-5.16L13.43-4.65L12.97-3.22C12.90-3.02 12.82-2.87 12.62-2.77L10.22-1.43C9.79-1.20 9.42-1.39 9.23-1.70Z" fill="currentColor"/>
</svg>