<svg xmlns="http://www.w3.org/2000/svg" viewBox="0 0 24 24" width="24" height="24">
  <title>figure.ice.skating.circle.fill</title>
  <path transform="matrix(0.7934294126762746, 0, 0, 0.7934294126762746, 0.33565783356578316, 18.713156671315666)" d="M14.70 4.14C21.66 4.14 27.30-1.50 27.30-8.46C27.30-15.42 21.66-21.06 14.70-21.06C7.75-21.06 2.10-15.42 2.10-8.46C2.10-1.50 7.75 4.14 14.70 4.14ZM11.10-12.66C10.30-12.66 9.66-13.30 9.66-14.09C9.66-14.89 10.30-15.53 11.10-15.53C11.89-15.53 12.53-14.89 12.53-14.09C12.53-13.30 11.89-12.66 11.10-12.66ZM12.14-1.99C11.59-1.99 11.54-2.75 12.02-2.92L12.77-3.16L12.26-5.33C12.19-5.67 12.25-5.93 12.39-6.18L13.27-7.65C12.01-8.18 10.80-9.07 10.48-10.32C10.43-10.43 10.36-10.49 10.17-10.45L7.30-9.93C6.82-9.83 6.50-10.16 6.43-10.51C6.39-10.86 6.56-11.27 7.02-11.36L16.82-13.15C17.29-13.22 17.60-12.93 17.67-12.57C17.75-12.22 17.58-11.80 17.07-11.71L13.56-11.09C13.44-11.05 13.38-10.97 13.43-10.83C13.68-10.24 14.73-9.79 15.39-9.68L17.72-9.55L21.43-10.21C21.76-10.25 21.98-10.13 22.05-9.79L22.35-8.10C22.44-7.56 21.66-7.39 21.43-7.83L21.01-8.63L15.60-7.65L13.78-5.40L14.39-2.72C14.50-2.25 14.26-1.99 13.89-1.99ZM23.52-7.80C23.55-7.63 23.44-7.46 23.27-7.43C23.10-7.41 22.92-7.54 22.90-7.70L22.46-10.15C22.43-10.32 22.55-10.48 22.71-10.51C22.89-10.55 23.06-10.43 23.09-10.25ZM11.70-0.88C11.52-0.88 11.38-1.02 11.38-1.20C11.38-1.36 11.52-1.50 11.70-1.50L14.19-1.50C14.37-1.50 14.50-1.36 14.50-1.20C14.50-1.02 14.37-0.88 14.19-0.88Z" fill="currentColor"/>
</svg>