<svg xmlns="http://www.w3.org/2000/svg" viewBox="0 0 24 24" width="24" height="24">
  
  <path transform="matrix(0.6476049714079827, 0, 0, 0.6476049714079827, 0.05985188663502328, 17.491727885333333)" d="M10.97-15.76C12.55-15.76 13.85-17.09 13.85-18.62C13.85-20.23 12.55-21.52 10.97-21.52C9.36-21.52 8.11-20.23 8.11-18.62C8.11-17.07 9.36-15.76 10.97-15.76ZM25.85-17.66L30.97-17.66C31.39-17.66 31.45-18.09 31.15-18.30L28.97-19.83C28.59-20.09 28.25-20.09 27.88-19.83L25.68-18.30C25.37-18.09 25.43-17.66 25.85-17.66ZM15.45-13.14L17.81-15.77C18.33-16.35 18.30-16.96 17.79-17.38C17.32-17.78 16.75-17.78 16.23-17.20L13.50-14.13C14.23-13.90 14.88-13.56 15.45-13.14ZM23.05-14.77L23.05-12.11C23.05-11.37 23.61-10.82 24.34-10.82L26.47-10.82C27.25-10.82 27.81-11.37 27.81-12.11L27.81-14.77C27.81-15.52 27.25-16.07 26.47-16.07L24.34-16.07C23.61-16.07 23.05-15.52 23.05-14.77ZM29.12-14.77L29.12-12.11C29.12-11.37 29.68-10.82 30.42-10.82L32.54-10.82C33.33-10.82 33.88-11.37 33.88-12.11L33.88-14.77C33.88-15.52 33.33-16.07 32.54-16.07L30.42-16.07C29.68-16.07 29.12-15.52 29.12-14.77ZM25.42-12.13C24.70-12.13 24.08-12.71 24.08-13.46C24.08-14.18 24.70-14.77 25.42-14.77C26.14-14.77 26.77-14.18 26.77-13.46C26.77-12.71 26.14-12.13 25.42-12.13ZM31.50-12.13C30.79-12.13 30.16-12.71 30.16-13.46C30.16-14.18 30.79-14.77 31.50-14.77C32.23-14.77 32.84-14.18 32.84-13.46C32.84-12.71 32.23-12.13 31.50-12.13ZM5.43-5.16L13.50-14.13C12.75-14.39 11.91-14.53 10.97-14.53C7.27-14.53 5.06-12.73 5.06-9.75C5.06-9.05 5.11-8.07 5.20-7.08ZM16.50-5.16L16.71-7.08C16.82-8.07 16.88-9.05 16.88-9.75C16.88-11.18 16.37-12.33 15.45-13.14L9.23-6.22C9.81-6.29 10.39-6.32 10.97-6.32C12.79-6.32 14.64-6.08 16.50-5.16ZM23.05-7.42L23.05-4.78C23.05-4.04 23.61-3.49 24.35-3.49L26.47-3.49C27.26-3.49 27.81-4.04 27.81-4.78L27.81-7.42C27.81-8.18 27.26-8.74 26.47-8.74L24.35-8.74C23.61-8.74 23.05-8.18 23.05-7.42ZM29.12-7.42L29.12-4.78C29.12-4.04 29.68-3.49 30.42-3.49L32.54-3.49C33.32-3.49 33.87-4.04 33.87-4.78L33.87-7.42C33.87-8.18 33.32-8.74 32.54-8.74L30.42-8.74C29.68-8.74 29.12-8.18 29.12-7.42ZM25.42-4.79C24.70-4.79 24.08-5.39 24.08-6.14C24.08-6.84 24.70-7.44 25.42-7.44C26.14-7.44 26.77-6.84 26.77-6.14C26.77-5.39 26.14-4.79 25.42-4.79ZM31.50-4.79C30.79-4.79 30.16-5.39 30.16-6.14C30.16-6.84 30.79-7.44 31.50-7.44C32.23-7.44 32.84-6.84 32.84-6.14C32.84-5.39 32.23-4.79 31.50-4.79ZM3.61-4.08C2.89-3.57 2.87-2.87 3.20-2.44C3.49-2.03 4.08-1.86 4.66-2.26C4.98-2.50 5.31-2.70 5.66-2.87L5.43-5.16C4.78-4.85 4.17-4.51 3.61-4.08ZM18.32-4.08C17.75-4.51 17.14-4.85 16.50-5.16L16.27-2.87C16.62-2.70 16.95-2.50 17.25-2.26C17.84-1.86 18.42-2.03 18.73-2.44C19.05-2.87 19.04-3.57 18.32-4.08ZM7.95 4.55C8.78 4.44 9.33 3.86 9.21 2.80L8.72-1.80L13.20-1.80L12.71 2.80C12.60 3.86 13.15 4.44 14.00 4.55C14.86 4.63 15.52 4.13 15.63 3.09L16.27-2.87C14.58-3.83 12.73-4.21 10.97-4.21C9.20-4.21 7.32-3.83 5.66-2.87L6.30 3.09C6.42 4.13 7.07 4.63 7.95 4.55ZM23.05-0.09L23.05 2.54C23.05 3.29 23.61 3.83 24.34 3.83L26.47 3.83C27.25 3.83 27.81 3.29 27.81 2.54L27.81-0.09C27.81-0.86 27.25-1.42 26.47-1.42L24.34-1.42C23.61-1.42 23.05-0.86 23.05-0.09ZM29.12-0.09L29.12 2.54C29.12 3.29 29.68 3.83 30.42 3.83L32.54 3.83C33.33 3.83 33.88 3.29 33.88 2.54L33.88-0.09C33.88-0.86 33.33-1.42 32.54-1.42L30.42-1.42C29.68-1.42 29.12-0.86 29.12-0.09ZM25.42 2.53C24.70 2.53 24.08 1.93 24.08 1.20C24.08 0.48 24.70-0.11 25.42-0.11C26.14-0.11 26.77 0.48 26.77 1.20C26.77 1.93 26.14 2.53 25.42 2.53ZM31.50 2.53C30.79 2.53 30.16 1.93 30.16 1.20C30.16 0.48 30.79-0.11 31.50-0.11C32.23-0.11 32.84 0.48 32.84 1.20C32.84 1.93 32.23 2.53 31.50 2.53Z" fill="currentColor"/>
</svg>