<svg xmlns="http://www.w3.org/2000/svg" viewBox="0 0 24 24" width="24" height="24">
  <title>figure.mind.and.body.circle.fill</title>
  <path transform="matrix(0.7934294126762746, 0, 0, 0.7934294126762746, 0.33565783356578316, 18.713156671315666)" d="M14.70 4.14C21.66 4.14 27.30-1.50 27.30-8.46C27.30-15.42 21.66-21.06 14.70-21.06C7.75-21.06 2.10-15.42 2.10-8.46C2.10-1.50 7.75 4.14 14.70 4.14ZM14.70-11.45C13.90-11.45 13.25-12.08 13.25-12.89C13.25-13.66 13.90-14.33 14.70-14.33C15.48-14.33 16.13-13.66 16.13-12.89C16.13-12.08 15.48-11.45 14.70-11.45ZM8.30-8.81C7.98-9.12 7.97-9.61 8.30-9.93C8.58-10.22 9.09-10.22 9.40-9.93L10.84-8.47L12.33-10.30C12.61-10.62 13.02-10.84 13.46-10.84L15.90-10.84C16.36-10.84 16.78-10.62 17.05-10.30L18.54-8.47L19.98-9.93C20.30-10.22 20.79-10.22 21.09-9.93C21.40-9.61 21.40-9.12 21.09-8.81L19.03-6.74C18.71-6.42 18.18-6.41 17.86-6.80L16.68-8.26C16.61-8.33 16.51-8.30 16.51-8.20L16.51-5.78L18.73-6.02C19.65-6.12 19.95-4.77 19.05-4.49L16.50-3.64C16.57-3.06 16.07-2.59 15.48-2.78L14.70-3.04L13.90-2.78C13.32-2.59 12.80-3.06 12.87-3.64L10.31-4.49C9.42-4.77 9.74-6.12 10.64-6.02L12.87-5.78L12.87-8.20C12.87-8.30 12.77-8.34 12.70-8.26L11.53-6.80C11.21-6.41 10.68-6.42 10.36-6.74Z" fill="currentColor"/>
</svg>