<svg xmlns="http://www.w3.org/2000/svg" viewBox="0 0 24 24" width="24" height="24">
  <title>figure.seated.side.right.windshield.front.and.heat.waves.air.distribution.middle</title>
  <path transform="matrix(0.55131170067694, 0, 0, 0.55131170067694, 0.35252558196148787, 16.576009699219092)" d="M6.60-14.43C8.60-14.43 10.18-16.07 10.18-18C10.18-20.00 8.60-21.62 6.60-21.62C4.59-21.62 2.99-20.00 2.99-18C2.99-16.07 4.59-14.43 6.60-14.43ZM19.05-18.82C19.05-19.89 17.99-20.29 17.25-19.62L13.76-16.46C13.25-16.00 13.25-15.41 13.76-14.95L17.25-11.80C18.01-11.12 19.05-11.55 19.05-12.60L19.05-14.39L23.50-14.39C24.22-14.39 24.81-14.98 24.81-15.70C24.81-16.43 24.22-17.02 23.50-17.02L19.05-17.02ZM26.05-16.68L29.14-12.74L29.17-12.73C29.02-12.49 28.89-12.20 28.89-11.79C28.89-11.31 29.04-10.88 29.40-10.41C29.82-9.89 30.57-10.44 30.16-10.99C29.92-11.33 29.87-11.52 29.87-11.79C29.87-12.19 30.11-12.42 30.34-12.73C30.96-12.98 31.69-13.17 32.32-13.21C32.44-13.38 32.53-13.55 32.53-13.76C32.53-14.40 31.68-14.64 31.68-15.75C31.68-16.21 31.82-16.63 32.18-17.11C32.60-17.61 33.36-17.07 32.96-16.54C32.71-16.18 32.64-16.00 32.64-15.75C32.64-14.99 33.49-14.79 33.49-13.76C33.49-13.51 33.45-13.30 33.36-13.14C33.83-13.04 34.31-12.89 34.72-12.71C34.57-12.48 34.45-12.20 34.45-11.79C34.45-11.31 34.61-10.88 34.97-10.41C35.39-9.89 36.14-10.44 35.74-10.99C35.48-11.33 35.43-11.52 35.43-11.79C35.43-12.30 35.84-12.55 36.09-13.00L39-16.68C39.41-17.20 39.34-17.79 38.82-18.18C37.50-19.23 35.03-19.95 32.52-19.95C30.02-19.95 27.56-19.23 26.23-18.18C25.71-17.79 25.63-17.19 26.05-16.68ZM35.05-12.56C34.95-12.62 34.84-12.67 34.72-12.71C34.98-13.11 35.33-13.35 35.33-13.76C35.33-14.40 34.45-14.64 34.45-15.75C34.45-16.21 34.61-16.63 34.97-17.11C35.39-17.61 36.14-17.07 35.74-16.54C35.48-16.18 35.43-16.00 35.43-15.75C35.43-14.99 36.28-14.79 36.28-13.76C36.28-13.44 36.20-13.21 36.09-13.00L35.88-12.74C35.67-12.47 35.36-12.45 35.05-12.56ZM29.77-13.76C29.77-14.40 28.89-14.64 28.89-15.75C28.89-16.21 29.04-16.63 29.40-17.11C29.82-17.61 30.59-17.07 30.16-16.54C29.92-16.18 29.87-16.00 29.87-15.75C29.87-14.99 30.71-14.79 30.71-13.76C30.71-13.28 30.54-12.98 30.34-12.73C30.22-12.67 30.11-12.62 29.99-12.56C29.71-12.45 29.39-12.46 29.17-12.73C29.43-13.11 29.77-13.35 29.77-13.76ZM32.18-10.41C32.60-9.89 33.36-10.44 32.95-10.99C32.71-11.33 32.64-11.52 32.64-11.79C32.64-12.35 33.13-12.60 33.36-13.14C33.07-13.18 32.79-13.22 32.52-13.22C32.45-13.22 32.39-13.22 32.32-13.21C32.06-12.87 31.68-12.53 31.68-11.79C31.68-11.31 31.82-10.88 32.18-10.41ZM27.69 4.49C28.39 3.80 28.48 2.67 27.56 1.72L21.87-4.23C20.50-5.65 19.05-5.86 17.37-5.23L14.40-4.13L10.83-10.62C9.69-12.68 7.76-13.43 5.91-12.39C4.00-11.33 3.62-9.33 4.75-7.28L7.28-2.67C8.63-0.22 11.70 0.94 14.46-0.09L18.54-1.62C18.84-1.72 19.01-1.70 19.22-1.48L24.75 4.24C25.68 5.20 26.92 5.26 27.69 4.49Z" fill="currentColor"/>
</svg>