<svg xmlns="http://www.w3.org/2000/svg" viewBox="0 0 24 24" width="24" height="24">
  <title>figure.skateboarding.circle</title>
  <path transform="matrix(0.7934294126762746, 0, 0, 0.7934294126762746, 0.33565783356578316, 18.713156671315666)" d="M14.70 4.14C21.66 4.14 27.30-1.50 27.30-8.46C27.30-15.42 21.66-21.06 14.70-21.06C7.73-21.06 2.10-15.42 2.10-8.46C2.10-1.50 7.73 4.14 14.70 4.14ZM14.70 0.48C9.75 0.48 5.75-3.52 5.75-8.46C5.75-13.41 9.75-17.40 14.70-17.40C19.64-17.40 23.64-13.41 23.64-8.46C23.64-3.52 19.64 0.48 14.70 0.48ZM17.06-13.05C17.81-13.05 18.41-13.66 18.41-14.40C18.41-15.15 17.81-15.75 17.06-15.75C16.32-15.75 15.71-15.15 15.71-14.40C15.71-13.66 16.32-13.05 17.06-13.05ZM12.43-2.58L16.42-2.58C17.09-2.58 17.67-2.72 18.12-3.11C18.39-3.34 18.35-3.66 18.18-3.84C18.02-4.01 17.74-4.08 17.48-3.87C17.21-3.66 16.96-3.57 16.50-3.56L16.50-6.34C16.50-6.53 16.44-6.71 16.31-6.88L14.91-8.67L16.10-10.49C16.15-10.57 16.24-10.57 16.28-10.49L16.68-9.68C16.79-9.45 17.03-9.30 17.29-9.30L19.66-9.30C20.05-9.30 20.34-9.60 20.34-9.98C20.34-10.37 20.05-10.66 19.66-10.66L17.72-10.66L17.12-11.88C16.85-12.41 16.30-12.75 15.71-12.75L12.54-12.75C12.32-12.75 12.08-12.63 11.96-12.43L10.78-10.65C10.58-10.35 10.66-9.91 10.97-9.71C11.29-9.50 11.72-9.59 11.93-9.91L12.90-11.39L13.71-11.39C13.77-11.39 13.80-11.34 13.77-11.29L12.83-9.88C12.49-9.38 12.56-8.70 13.00-8.26L15.13-6.14L15.13-3.56L12.43-3.56C11.91-3.56 11.65-3.64 11.37-3.87C11.10-4.07 10.83-4.01 10.68-3.84C10.50-3.66 10.45-3.34 10.73-3.11C11.17-2.72 11.75-2.58 12.43-2.58ZM9.41-7.38L11.75-5.36C12.16-4.98 12.64-5.18 12.84-5.50L13.64-6.73L12.55-7.82C12.53-7.85 12.52-7.86 12.49-7.88L12.04-6.93L10.32-8.43C10.03-8.67 9.61-8.66 9.35-8.36C9.11-8.07 9.12-7.64 9.41-7.38ZM12.43-1.13C12.75-1.13 13.01-1.38 13.01-1.70C13.01-2.03 12.75-2.29 12.43-2.29C12.11-2.29 11.84-2.03 11.84-1.70C11.84-1.38 12.11-1.13 12.43-1.13ZM16.42-1.13C16.75-1.13 17.00-1.38 17.00-1.70C17.00-2.03 16.75-2.29 16.42-2.29C16.10-2.29 15.84-2.03 15.84-1.70C15.84-1.38 16.10-1.13 16.42-1.13Z" fill="currentColor"/>
</svg>