<svg xmlns="http://www.w3.org/2000/svg" viewBox="0 0 24 24" width="24" height="24">
  <title>figure.barre.circle</title>
  <path transform="matrix(0.7934294126762746, 0, 0, 0.7934294126762746, 0.33565783356578316, 18.713156671315666)" d="M14.70 4.14C21.66 4.14 27.30-1.50 27.30-8.46C27.30-15.42 21.66-21.06 14.70-21.06C7.73-21.06 2.10-15.42 2.10-8.46C2.10-1.50 7.73 4.14 14.70 4.14ZM14.70 0.48C9.75 0.48 5.75-3.52 5.75-8.46C5.75-13.41 9.75-17.40 14.70-17.40C19.64-17.40 23.64-13.41 23.64-8.46C23.64-3.52 19.64 0.48 14.70 0.48ZM13.23-12.75C13.97-12.75 14.57-13.35 14.57-14.10C14.57-14.84 13.97-15.43 13.23-15.43C12.49-15.43 11.88-14.84 11.88-14.10C11.88-13.35 12.49-12.75 13.23-12.75ZM13.62-7.20L16.79-6.22L19.83-4.84C20.72-4.43 21.26-5.72 20.40-6.09L15.23-8.45L15.23-11.19C15.23-11.33 15.27-11.38 15.39-11.43L16.97-12.07C17.14-12.15 17.19-12.18 17.32-12.34L18.97-14.26C19.23-14.55 19.18-14.99 18.90-15.22C18.61-15.48 18.16-15.43 17.93-15.15L16.36-13.32L9.09-10.36C8.92-10.29 8.74-10.18 8.63-10.05L12.04-10.05L12.56-10.28C12.67-10.32 12.73-10.27 12.73-10.20L12.73-8.43C12.73-7.79 13.02-7.38 13.62-7.20ZM7.77-8.48L12.13-8.48L12.13-9.47L7.77-9.47C7.50-9.47 7.28-9.25 7.28-8.98C7.28-8.71 7.50-8.48 7.77-8.48ZM16.59-8.48L20.95-8.48C21.21-8.48 21.45-8.71 21.45-8.98C21.45-9.25 21.21-9.47 20.95-9.47L15.82-9.47L15.82-8.93ZM13.02-2.27C12.88-1.75 13.30-1.43 13.71-1.43C13.99-1.43 14.27-1.57 14.37-1.91L15.20-4.99C15.21-5.06 15.23-5.12 15.23-5.17L15.23-6.08L13.68-6.56L13.84-5.21Z" fill="currentColor"/>
</svg>