<svg xmlns="http://www.w3.org/2000/svg" viewBox="0 0 24 24" width="24" height="24">
  
  <path transform="matrix(0.7170868347338936, 0, 0, 0.7170868347338936, 1.0329094370087097, 18.30252100840336)" d="M11.40-17.02C12.98-17.02 14.26-18.29 14.26-19.88C14.26-21.45 12.98-22.73 11.40-22.73C9.83-22.73 8.54-21.45 8.54-19.88C8.54-18.29 9.83-17.02 11.40-17.02ZM7.18 5.16C7.82 5.16 8.29 4.80 8.53 3.96C8.94 2.46 10.16-2.66 10.58-3.89C10.86-4.75 11.00-4.99 11.40-4.99C11.80-4.99 11.94-4.75 12.23-3.89C12.50-3.07 14.03 3.04 14.29 3.96C14.52 4.80 14.99 5.16 15.63 5.16C16.52 5.16 17.09 4.35 16.84 3.47C16.23 0.96 14.94-4.51 14.72-5.80C14.53-6.97 14.48-9.28 14.47-10.70C14.47-10.85 14.64-10.91 14.73-10.78L15.73-9.36C15.75-10.39 16.62-11.31 17.74-11.34L16.09-13.77C15.12-15.20 13.95-15.96 11.40-15.96C8.87-15.96 7.66-15.19 6.71-13.77L3.48-8.96C3.38-8.80 3.23-8.61 3.14-8.44C2.82-7.89 3-7.13 3.71-6.73C4.25-6.42 4.92-6.50 5.34-6.97C5.67-7.35 7.13-9.40 8.09-10.78C8.17-10.90 8.34-10.85 8.34-10.70C8.33-9.27 8.29-6.97 8.09-5.80C7.83-4.27 6.06 3.15 5.96 3.47C5.73 4.35 6.28 5.16 7.18 5.16ZM21.70-9.04C22.90-9.04 23.87-10.00 23.87-11.18C23.87-12.38 22.90-13.34 21.70-13.34C20.52-13.34 19.56-12.38 19.56-11.18C19.56-10.00 20.52-9.04 21.70-9.04ZM18.94 5.16C19.48 5.16 19.92 4.85 20.09 4.16C20.37 3.21 21.15-0.09 21.42-0.89C21.50-1.17 21.56-1.22 21.66-1.22C21.76-1.22 21.81-1.17 21.90-0.89C22.17-0.09 22.96 3.21 23.23 4.16C23.40 4.85 23.85 5.16 24.38 5.16C25.16 5.16 25.66 4.43 25.45 3.68C25.42 3.56 24.27-1.27 24.11-2.26C24.01-2.81 23.98-3.62 23.98-4.00C23.98-4.15 24.15-4.20 24.23-4.08L25.71-1.95C26.09-1.39 26.72-1.37 27.14-1.65C27.56-1.91 27.79-2.46 27.40-3.05L25.44-6.08C24.62-7.36 23.55-7.82 22.18-7.82L21.66-7.82C20.89-7.82 20.50-8.05 19.93-8.65L18.53-10.17C18.16-10.56 17.41-10.56 16.96-10.09C16.57-9.70 16.48-9.11 16.79-8.64C16.95-8.41 18.16-7.02 19.10-5.88C19.28-5.67 19.37-5.43 19.37-5.07C19.37-4.43 19.35-3.06 19.22-2.26C19.05-1.27 17.91 3.56 17.87 3.68C17.66 4.43 18.15 5.16 18.94 5.16Z" fill="currentColor"/>
</svg>