<svg xmlns="http://www.w3.org/2000/svg" viewBox="0 0 24 24" width="24" height="24">
  <title>figure.seated.side.left.windshield.front.and.heat.waves.air.distribution.upper</title>
  <path transform="matrix(0.5594589217111451, 0, 0, 0.5594589217111451, 1.8791472961151836, 16.64363344532937)" d="M32.36-14.43C34.36-14.43 35.96-16.07 35.96-18C35.96-20.00 34.36-21.62 32.36-21.62C30.36-21.62 28.78-20.00 28.78-18C28.78-16.07 30.36-14.43 32.36-14.43ZM20.07-9.89C20.80-9.89 21.39-10.49 21.39-11.21L21.39-15.66L23.19-15.66C24.27-15.66 24.66-16.72 23.99-17.46L20.84-20.95C20.38-21.46 19.78-21.46 19.34-20.95L16.18-17.46C15.49-16.70 15.93-15.66 16.98-15.66L18.76-15.66L18.76-11.21C18.76-10.49 19.35-9.89 20.07-9.89ZM3.83-10.41C4.25-9.89 5.02-10.44 4.59-10.99C4.35-11.33 4.30-11.52 4.30-11.79C4.30-12.19 4.55-12.42 4.77-12.73C5.39-12.98 6.12-13.17 6.75-13.21C6.88-13.38 6.97-13.55 6.97-13.76C6.97-14.40 6.11-14.64 6.11-15.75C6.11-16.21 6.25-16.63 6.61-17.11C7.03-17.61 7.79-17.07 7.39-16.54C7.14-16.18 7.08-16.00 7.08-15.75C7.08-14.99 7.92-14.79 7.92-13.76C7.92-13.51 7.88-13.30 7.79-13.14C8.26-13.04 8.74-12.89 9.16-12.71C9.01-12.48 8.88-12.20 8.88-11.79C8.88-11.31 9.04-10.88 9.40-10.41C9.83-9.89 10.58-10.44 10.17-10.99C9.93-11.33 9.86-11.52 9.86-11.79C9.86-12.30 10.27-12.55 10.52-13.00L13.44-16.68C13.85-17.20 13.77-17.79 13.27-18.18C11.93-19.23 9.46-19.95 6.95-19.95C4.46-19.95 1.99-19.23 0.67-18.18C0.14-17.79 0.07-17.19 0.48-16.68L3.59-12.74L3.60-12.73C3.45-12.49 3.33-12.20 3.33-11.79C3.33-11.31 3.48-10.88 3.83-10.41ZM9.48-12.56C9.39-12.62 9.27-12.67 9.16-12.71C9.42-13.11 9.76-13.35 9.76-13.76C9.76-14.40 8.88-14.64 8.88-15.75C8.88-16.21 9.04-16.63 9.41-17.11C9.83-17.61 10.58-17.07 10.17-16.54C9.93-16.18 9.86-16.00 9.86-15.75C9.86-14.99 10.72-14.79 10.72-13.76C10.72-13.44 10.64-13.21 10.52-13.00L10.32-12.74C10.10-12.47 9.79-12.45 9.48-12.56ZM4.20-13.76C4.20-14.40 3.33-14.64 3.33-15.75C3.33-16.21 3.48-16.63 3.83-17.11C4.25-17.61 5.02-17.07 4.61-16.54C4.35-16.18 4.30-16.00 4.30-15.75C4.30-14.99 5.16-14.79 5.16-13.76C5.16-13.28 4.97-12.98 4.77-12.73C4.65-12.67 4.54-12.62 4.43-12.56C4.14-12.45 3.82-12.46 3.60-12.73C3.86-13.11 4.20-13.35 4.20-13.76ZM6.61-10.41C7.03-9.89 7.79-10.44 7.39-10.99C7.14-11.33 7.08-11.52 7.08-11.79C7.08-12.35 7.56-12.60 7.79-13.14C7.51-13.18 7.22-13.22 6.95-13.22C6.89-13.22 6.82-13.22 6.75-13.21C6.49-12.87 6.11-12.53 6.11-11.79C6.11-11.31 6.25-10.88 6.61-10.41ZM11.27 4.49C12.04 5.26 13.28 5.20 14.21 4.24L19.73-1.48C19.96-1.70 20.12-1.72 20.43-1.62L24.49-0.09C27.27 0.94 30.34-0.22 31.69-2.67L34.22-7.28C35.34-9.33 34.97-11.33 33.06-12.39C31.20-13.43 29.27-12.68 28.13-10.62L24.55-4.13L21.60-5.23C19.90-5.86 18.47-5.65 17.10-4.23L11.39 1.72C10.49 2.67 10.57 3.80 11.27 4.49Z" fill="currentColor"/>
</svg>