<svg xmlns="http://www.w3.org/2000/svg" viewBox="0 0 24 24" width="24" height="24">
  
  <path transform="matrix(0.7055865492427111, 0, 0, 0.7055865492427111, -0.10849105535419534, 16.969285646812192)" d="M7.37 2.98L21.84 2.98C21.80 2.75 21.77 2.54 21.77 2.30L21.83-0.64L7.86-0.64C7.04-0.64 6.61-1.02 6.61-1.90L6.61-14.99C6.61-15.87 7.03-16.24 7.86-16.24L26.27-16.24C27.09-16.24 27.52-15.87 27.52-14.99L27.52-6.90L31.14-3.27L31.14-15.50C31.14-18.29 29.55-19.88 26.75-19.88L7.37-19.88C4.58-19.88 2.99-18.29 2.99-15.50L2.99-1.39C2.99 1.39 4.57 2.98 7.37 2.98ZM10.11-11.92L21.90-11.92C22.36-11.92 22.71-12.27 22.71-12.74C22.71-13.18 22.36-13.54 21.90-13.54L10.11-13.54C9.64-13.54 9.29-13.18 9.29-12.74C9.29-12.27 9.64-11.92 10.11-11.92ZM10.11-7.63L16.93-7.63C17.39-7.63 17.74-7.99 17.74-8.45C17.74-8.89 17.39-9.25 16.93-9.25L10.11-9.25C9.64-9.25 9.29-8.89 9.29-8.45C9.29-7.99 9.64-7.63 10.11-7.63ZM29.34 5.68C30.05 5.39 30.38 4.63 30.08 3.94L28.57 0.47L30.59 0.50C31.25 0.53 31.58-0.18 31.11-0.66L24.90-6.90C24.46-7.35 23.80-7.09 23.79-6.46L23.64 2.37C23.63 3.07 24.39 3.33 24.84 2.84L26.17 1.41L27.59 4.97C27.87 5.64 28.66 5.98 29.34 5.68ZM10.11-3.36L19.18-3.36C19.65-3.36 20.00-3.70 20.00-4.16C20.00-4.62 19.65-4.98 19.18-4.98L10.11-4.98C9.64-4.98 9.29-4.62 9.29-4.16C9.29-3.70 9.64-3.36 10.11-3.36Z" fill="currentColor"/>
</svg>