<svg xmlns="http://www.w3.org/2000/svg" viewBox="0 0 24 24" width="24" height="24">
  
  <path transform="matrix(0.829284094590217, 0, 0, 0.829284094590217, -0.473275024295432, 19.006802721088434)" d="M9.52 3.61L20.58 3.61C22.63 3.61 24.26 2.99 25.36 1.88C26.48 0.76 27.09-0.87 27.09-2.92L27.09-13.98C27.09-16.03 26.48-17.66 25.36-18.77C24.26-19.89 22.63-20.51 20.58-20.51L9.52-20.51C7.46-20.51 5.82-19.89 4.72-18.77C3.60-17.66 2.99-16.03 2.99-13.98L2.99-2.92C2.99-0.87 3.60 0.76 4.72 1.88C5.82 2.99 7.46 3.61 9.52 3.61ZM9.81-0.01C8.64-0.01 7.84-0.23 7.34-0.74C6.82-1.24 6.61-2.03 6.61-3.21L6.61-13.69C6.61-14.86 6.82-15.66 7.34-16.16C7.83-16.66 8.64-16.88 9.81-16.88L14.54-16.88C14.47-16.70 14.41-16.51 14.36-16.30L12.19-8.74C11.60-6.74 12.76-5.73 14.14-5.73L14.82-5.73L14.82-3.43C13.31-3.54 11.84-4.08 10.73-5.07C10.29-5.47 9.71-5.34 9.45-5.06C9.19-4.77 9.09-4.27 9.49-3.83C10.71-2.54 12.75-1.84 14.82-1.75L14.82-1.25C14.82-0.80 14.88-0.39 14.99-0.01ZM17.88-0.01C17.33-0.01 16.77-0.32 16.77-1.14L16.77-1.83C18.53-2.06 20.17-2.73 21.22-3.83C21.61-4.25 21.53-4.73 21.27-5.04C20.96-5.37 20.41-5.48 19.97-5.07C19.11-4.28 17.99-3.77 16.77-3.55L16.77-7.69L14.40-7.69C14.13-7.69 14.00-7.89 14.07-8.16L16.22-15.82C16.42-16.54 16.66-16.88 17.33-16.88L20.29-16.88C21.45-16.88 22.25-16.66 22.76-16.16C23.26-15.66 23.47-14.86 23.47-13.69L23.47-3.21C23.47-2.03 23.26-1.24 22.76-0.74C22.25-0.23 21.45-0.01 20.29-0.01ZM10.43-10.18C10.91-10.18 11.29-10.55 11.29-11.03L11.29-12.91C11.29-13.39 10.91-13.77 10.43-13.77C9.96-13.77 9.59-13.39 9.59-12.91L9.59-11.03C9.59-10.55 9.96-10.18 10.43-10.18ZM19.73-10.18C20.21-10.18 20.59-10.55 20.59-11.03L20.59-12.91C20.59-13.39 20.21-13.77 19.73-13.77C19.27-13.77 18.88-13.39 18.88-12.91L18.88-11.03C18.88-10.55 19.27-10.18 19.73-10.18Z" fill="currentColor"/>
</svg>