<svg xmlns="http://www.w3.org/2000/svg" viewBox="0 0 24 24" width="24" height="24">
  <title>flag.2.crossed.circle</title>
  <path transform="matrix(0.7934294126762746, 0, 0, 0.7934294126762746, 0.33565783356578316, 18.713156671315666)" d="M14.70 4.14C21.66 4.14 27.30-1.50 27.30-8.46C27.30-15.42 21.66-21.06 14.70-21.06C7.73-21.06 2.10-15.42 2.10-8.46C2.10-1.50 7.73 4.14 14.70 4.14ZM14.70 0.48C9.75 0.48 5.75-3.52 5.75-8.46C5.75-13.41 9.75-17.40 14.70-17.40C19.64-17.40 23.64-13.41 23.64-8.46C23.64-3.52 19.64 0.48 14.70 0.48ZM17.04-3.95C17.32-4.09 17.40-4.45 17.25-4.71L12.68-12.60C12.42-13.04 12.06-13.14 11.70-13.14C11.39-13.14 11.02-12.96 10.70-12.79C9.55-12.11 9.16-11.18 8.18-10.62C7.73-10.37 7.36-10.25 7.16-10.14C6.83-9.96 6.67-9.57 6.89-9.19L8.57-6.30C8.78-5.95 9.05-5.78 9.46-5.78C9.88-5.78 10.25-5.95 10.57-6.14C11.72-6.81 12.11-7.76 13.09-8.31C13.32-8.46 13.52-8.54 13.72-8.60L16.29-4.15C16.45-3.88 16.78-3.77 17.04-3.95ZM19.92-5.78C20.33-5.78 20.60-5.95 20.81-6.30L22.48-9.19C22.71-9.57 22.55-9.96 22.22-10.14C22.02-10.25 21.64-10.37 21.19-10.62C20.21-11.18 19.82-12.11 18.68-12.79C18.35-12.96 17.99-13.14 17.68-13.14C17.32-13.14 16.96-13.04 16.70-12.60L15.20-10.01L16.15-8.38C17.19-7.86 17.67-6.80 18.81-6.14C19.13-5.95 19.50-5.78 19.92-5.78ZM12.33-3.95C12.60-3.77 12.93-3.88 13.08-4.15L14.19-6.05L13.55-7.15L12.13-4.71C11.98-4.45 12.06-4.09 12.33-3.95Z" fill="currentColor"/>
</svg>