<svg xmlns="http://www.w3.org/2000/svg" viewBox="0 0 24 24" width="24" height="24">
  
  <path transform="matrix(0.7934294126762746, 0, 0, 0.7934294126762746, 0.33565783356578316, 18.70385867038587)" d="M14.70 4.15C21.66 4.15 27.30-1.49 27.30-8.45C27.30-15.41 21.66-21.05 14.70-21.05C7.75-21.05 2.10-15.41 2.10-8.45C2.10-1.49 7.75 4.15 14.70 4.15ZM19.54-2.45L8.70-13.28C8.39-13.58 8.39-14.11 8.70-14.43C9.01-14.74 9.54-14.74 9.86-14.43L20.68-3.60C21-3.28 21-2.78 20.68-2.45C20.37-2.13 19.85-2.14 19.54-2.45ZM11.41-14.40C11.59-14.43 11.77-14.43 11.98-14.43C14.16-14.43 15.49-13.39 17.36-13.39C18.23-13.39 18.74-13.63 19.15-13.63C19.78-13.63 20.13-13.29 20.13-12.73L20.13-7.00C20.13-6.59 20.03-6.26 19.82-6ZM14.73-5.71C13.89-5.98 13.04-6.25 12.04-6.25C11.60-6.25 11.23-6.18 10.98-6.09L10.98-2.93C10.98-2.44 10.62-2.05 10.13-2.05C9.66-2.05 9.25-2.45 9.25-2.93L9.25-11.21Z" fill="currentColor"/>
</svg>