<svg xmlns="http://www.w3.org/2000/svg" viewBox="0 0 24 24" width="24" height="24">
  <title>florinsign.circle</title>
  <path transform="matrix(0.7934294126762746, 0, 0, 0.7934294126762746, 0.33565783356578316, 18.713156671315666)" d="M14.70 4.14C21.66 4.14 27.30-1.50 27.30-8.46C27.30-15.42 21.66-21.06 14.70-21.06C7.73-21.06 2.10-15.42 2.10-8.46C2.10-1.50 7.73 4.14 14.70 4.14ZM14.70 0.48C9.75 0.48 5.75-3.52 5.75-8.46C5.75-13.41 9.75-17.40 14.70-17.40C19.64-17.40 23.64-13.41 23.64-8.46C23.64-3.52 19.64 0.48 14.70 0.48ZM11.94-3.40C14.03-3.40 15.16-4.25 15.52-6.32L15.81-8.02L17.91-8.02C18.28-8.02 18.54-8.25 18.54-8.59C18.54-8.94 18.28-9.18 17.91-9.18L16.00-9.18L16.18-10.31C16.34-11.21 16.80-11.67 17.72-11.67C18.25-11.67 18.61-11.67 18.86-11.80C19.10-11.91 19.22-12.12 19.22-12.42C19.22-12.76 19.01-13.02 18.71-13.20C18.35-13.41 17.82-13.50 17.37-13.50C15.29-13.50 14.12-12.66 13.78-10.59L13.54-9.18L11.63-9.18C11.26-9.18 10.99-8.94 10.99-8.59C10.99-8.25 11.26-8.02 11.63-8.02L13.35-8.02L13.10-6.61C12.95-5.70 12.50-5.21 11.59-5.21C11.17-5.21 10.95-5.23 10.68-5.19C10.29-5.12 10.08-4.86 10.08-4.46C10.08-4.14 10.25-3.91 10.54-3.74C10.91-3.48 11.43-3.40 11.94-3.40Z" fill="currentColor"/>
</svg>