<svg xmlns="http://www.w3.org/2000/svg" viewBox="0 0 24 24" width="24" height="24">
  
  <path transform="matrix(0.5124018196442691, 0, 0, 0.5124018196442691, 0.46879924989114885, 15.610335032552763)" d="M2.99-6.68C2.99 0.20 9.42 4.79 19.02 4.79C28.64 4.79 35.07 0.21 35.07-6.68C35.07-7.34 34.79-7.96 34.29-8.52L40.66-13.03C44.09-15.46 40.48-21.25 36-17.84L27.66-11.45C25.22-11.95 22.29-12.23 19.02-12.23C9.66-12.23 2.99-9.93 2.99-6.68ZM6.16-6.68C6.16-7.78 13.37-9.20 19.02-9.20C24.68-9.20 31.89-7.78 31.89-6.68C31.89-6 28.92-5.19 25.25-4.70C24.70-6.73 22.82-8.10 20.51-8.10C19.00-8.10 17.58-7.48 16.64-6.46C16.31-6.53 16.00-6.56 15.62-6.56C14.16-6.56 12.83-5.86 12.11-4.79C8.77-5.29 6.16-6.05 6.16-6.68Z" fill="currentColor"/>
</svg>