<svg xmlns="http://www.w3.org/2000/svg" viewBox="0 0 24 24" width="24" height="24">
  <title>gauge.with.dots.needle.100percent</title>
  <path transform="matrix(0.7934294126762746, 0, 0, 0.7934294126762746, 0.33565783356578316, 18.713156671315666)" d="M14.70 4.14C21.66 4.14 27.30-1.50 27.30-8.46C27.30-15.42 21.66-21.06 14.70-21.06C7.73-21.06 2.10-15.42 2.10-8.46C2.10-1.50 7.73 4.14 14.70 4.14ZM14.70 0.48C9.75 0.48 5.75-3.52 5.75-8.46C5.75-13.41 9.75-17.40 14.70-17.40C19.64-17.40 23.64-13.41 23.64-8.46C23.64-3.52 19.64 0.48 14.70 0.48ZM14.70-13.24C15.47-13.24 16.10-13.88 16.10-14.65C16.10-15.42 15.47-16.05 14.70-16.05C13.92-16.05 13.29-15.42 13.29-14.65C13.29-13.88 13.92-13.24 14.70-13.24ZM10.44-11.29C11.21-11.29 11.85-11.92 11.85-12.69C11.85-13.46 11.21-14.10 10.44-14.10C9.67-14.10 9.04-13.46 9.04-12.69C9.04-11.92 9.67-11.29 10.44-11.29ZM18.95-11.29C19.72-11.29 20.36-11.92 20.36-12.69C20.36-13.46 19.72-14.10 18.95-14.10C18.18-14.10 17.54-13.46 17.54-12.69C17.54-11.92 18.18-11.29 18.95-11.29ZM12.90-10.43C12.02-9.57 12.02-8.20 12.90-7.34C13.03-7.21 13.35-6.98 13.79-6.69L18.28-3.77C18.73-3.49 19.16-3.53 19.49-3.86C19.79-4.17 19.84-4.61 19.56-5.04L16.64-9.54C16.36-9.98 16.14-10.30 16.00-10.43C15.13-11.31 13.77-11.31 12.90-10.43ZM8.61-7.05C9.39-7.05 10.02-7.69 10.02-8.46C10.02-9.23 9.39-9.87 8.61-9.87C7.83-9.87 7.20-9.23 7.20-8.46C7.20-7.69 7.83-7.05 8.61-7.05ZM20.78-7.05C21.55-7.05 22.18-7.69 22.18-8.46C22.18-9.23 21.55-9.87 20.78-9.87C19.99-9.87 19.36-9.23 19.36-8.46C19.36-7.69 19.99-7.05 20.78-7.05ZM10.44-2.82C11.21-2.82 11.85-3.46 11.85-4.23C11.85-5.02 11.21-5.65 10.44-5.65C9.67-5.65 9.04-5.02 9.04-4.23C9.04-3.46 9.67-2.82 10.44-2.82Z" fill="currentColor"/>
</svg>