<svg xmlns="http://www.w3.org/2000/svg" viewBox="0 0 24 24" width="24" height="24">
  
  <path transform="matrix(0.7934294126762746, 0, 0, 0.7934294126762746, 0.33565783356578316, 18.70385867038587)" d="M14.70 4.15C21.66 4.15 27.30-1.49 27.30-8.45C27.30-15.41 21.66-21.05 14.70-21.05C7.75-21.05 2.10-15.41 2.10-8.45C2.10-1.49 7.75 4.15 14.70 4.15ZM14.18-2.02C13.72-2.02 13.36-2.31 13.25-2.74L12.98-3.86C12.87-3.90 12.75-3.95 12.63-3.98L11.67-3.41C11.30-3.18 10.80-3.21 10.50-3.53L9.77-4.27C9.46-4.58 9.43-5.06 9.67-5.44L10.24-6.40C10.20-6.50 10.15-6.61 10.11-6.71L9-6.98C8.55-7.09 8.27-7.45 8.27-7.92L8.27-8.93C8.27-9.39 8.55-9.77 9-9.87L10.10-10.13C10.15-10.24 10.20-10.36 10.24-10.45L9.66-11.44C9.41-11.84 9.45-12.28 9.77-12.61L10.51-13.35C10.83-13.66 11.26-13.71 11.65-13.49L12.63-12.88C12.74-12.93 12.87-12.98 12.98-13.02L13.25-14.13C13.36-14.58 13.72-14.87 14.18-14.87L15.22-14.87C15.68-14.87 16.04-14.58 16.15-14.14L16.42-13.02C16.54-12.97 16.64-12.93 16.76-12.88L17.75-13.49C18.14-13.71 18.56-13.64 18.88-13.35L19.63-12.61C19.96-12.28 19.99-11.84 19.75-11.44L19.16-10.45C19.21-10.36 19.25-10.24 19.30-10.13L20.40-9.87C20.84-9.77 21.13-9.39 21.13-8.93L21.13-7.92C21.13-7.45 20.84-7.09 20.40-6.98L19.29-6.71C19.24-6.61 19.21-6.50 19.16-6.40L19.72-5.44C19.97-5.06 19.93-4.58 19.62-4.27L18.89-3.53C18.59-3.21 18.11-3.18 17.72-3.41L16.76-3.98C16.64-3.95 16.54-3.90 16.41-3.86L16.15-2.74C16.04-2.31 15.68-2.02 15.22-2.02ZM14.70-6.48C15.79-6.48 16.68-7.36 16.68-8.45C16.68-9.53 15.79-10.42 14.70-10.42C13.62-10.42 12.73-9.53 12.73-8.45C12.73-7.36 13.62-6.48 14.70-6.48Z" fill="currentColor"/>
</svg>