<svg xmlns="http://www.w3.org/2000/svg" viewBox="0 0 24 24" width="24" height="24">
  <title>gearshape.fill</title>
  <path transform="matrix(0.7625856419422103, 0, 0, 0.7625856419422103, 0.4003574620196604, 18.45218945487042)" d="M14.16 4.64L16.27 4.64C17.23 4.64 17.98 4.04 18.20 3.11L18.73 0.90C18.96 0.82 19.18 0.73 19.38 0.63L21.30 1.83C22.11 2.32 23.09 2.23 23.75 1.56L25.24 0.07C25.91-0.60 25.98-1.61 25.49-2.40L24.32-4.31C24.41-4.51 24.49-4.71 24.56-4.92L26.79-5.46C27.73-5.67 28.32-6.42 28.32-7.39L28.32-9.46C28.32-10.42 27.73-11.17 26.79-11.39L24.60-11.92C24.52-12.14 24.42-12.36 24.34-12.54L25.51-14.51C26.02-15.34 25.93-16.29 25.25-16.97L23.74-18.46C23.06-19.07 22.18-19.18 21.39-18.75L19.38-17.52C19.18-17.61 18.97-17.70 18.74-17.79L18.20-20.03C17.96-20.96 17.23-21.56 16.27-21.56L14.16-21.56C13.18-21.56 12.45-20.96 12.22-20.02L11.68-17.80C11.46-17.73 11.23-17.64 11.02-17.53L9.04-18.75C8.23-19.18 7.32-19.10 6.67-18.46L5.17-16.97C4.48-16.29 4.41-15.34 4.90-14.51L6.08-12.54C5.99-12.36 5.91-12.14 5.82-11.92L3.62-11.39C2.70-11.17 2.10-10.42 2.10-9.46L2.10-7.39C2.10-6.42 2.70-5.67 3.62-5.46L5.86-4.92C5.93-4.71 6.01-4.51 6.11-4.31L4.93-2.40C4.43-1.61 4.50-0.60 5.17 0.07L6.66 1.56C7.32 2.23 8.31 2.32 9.11 1.83L11.04 0.63C11.24 0.73 11.46 0.82 11.68 0.90L12.22 3.11C12.43 4.04 13.18 4.64 14.16 4.64ZM15.21-4.48C13.01-4.48 11.23-6.26 11.23-8.46C11.23-10.66 13.01-12.45 15.21-12.45C17.41-12.45 19.20-10.66 19.20-8.46C19.20-6.26 17.41-4.48 15.21-4.48Z" fill="currentColor"/>
</svg>