<svg xmlns="http://www.w3.org/2000/svg" viewBox="0 0 24 24" width="24" height="24">
  <title>gear.circle</title>
  <path transform="matrix(0.7934294126762746, 0, 0, 0.7934294126762746, 0.33565783356578316, 18.713156671315666)" d="M14.70 4.14C21.66 4.14 27.30-1.50 27.30-8.46C27.30-15.42 21.66-21.06 14.70-21.06C7.73-21.06 2.10-15.42 2.10-8.46C2.10-1.50 7.73 4.14 14.70 4.14ZM14.70 0.48C9.75 0.48 5.75-3.52 5.75-8.46C5.75-13.41 9.75-17.40 14.70-17.40C19.64-17.40 23.64-13.41 23.64-8.46C23.64-3.52 19.64 0.48 14.70 0.48ZM14.70-2.46C14.80-2.46 14.89-2.46 15-2.46L15.30-1.90C15.43-1.66 15.66-1.57 15.90-1.61C16.15-1.65 16.32-1.84 16.36-2.09L16.44-2.72C16.64-2.78 16.85-2.85 17.04-2.93L17.51-2.51C17.70-2.33 17.95-2.31 18.18-2.44C18.40-2.57 18.48-2.80 18.43-3.04L18.30-3.66C18.48-3.79 18.63-3.91 18.79-4.05L19.38-3.83C19.62-3.74 19.86-3.80 20.03-3.98C20.19-4.18 20.19-4.45 20.07-4.64L19.73-5.18C19.84-5.36 19.95-5.54 20.05-5.73L20.68-5.71C20.93-5.71 21.15-5.85 21.23-6.08C21.33-6.32 21.25-6.56 21.05-6.71L20.55-7.10C20.59-7.31 20.63-7.52 20.66-7.73L21.26-7.92C21.50-7.99 21.66-8.21 21.66-8.46C21.66-8.71 21.50-8.92 21.26-8.99L20.66-9.19C20.63-9.40 20.59-9.60 20.55-9.81L21.05-10.20C21.25-10.37 21.32-10.59 21.25-10.83C21.16-11.06 20.92-11.20 20.70-11.20L20.05-11.19C19.96-11.38 19.85-11.55 19.73-11.73L20.06-12.26C20.20-12.49 20.19-12.73 20.04-12.94C19.88-13.13 19.62-13.16 19.38-13.09L18.80-12.86C18.63-13.00 18.48-13.14 18.32-13.25L18.45-13.86C18.48-14.13 18.40-14.34 18.19-14.48C17.96-14.61 17.70-14.57 17.52-14.40L17.04-13.99C16.85-14.07 16.65-14.14 16.45-14.21L16.37-14.82C16.32-15.08 16.16-15.26 15.91-15.32C15.66-15.36 15.43-15.22 15.32-15.01L15.01-14.46C14.91-14.47 14.80-14.47 14.70-14.47C14.59-14.47 14.48-14.47 14.38-14.46L14.09-15.01C13.96-15.25 13.75-15.35 13.50-15.32C13.24-15.27 13.07-15.07 13.03-14.84L12.95-14.21C12.74-14.14 12.54-14.07 12.34-13.99L11.88-14.40C11.70-14.59 11.44-14.61 11.23-14.50C11.00-14.36 10.90-14.12 10.96-13.88L11.09-13.27C10.91-13.14 10.76-13.00 10.61-12.86L10.01-13.08C9.77-13.17 9.53-13.13 9.36-12.94C9.21-12.74 9.20-12.47 9.32-12.27L9.66-11.73C9.54-11.57 9.43-11.38 9.33-11.18L8.71-11.20C8.46-11.20 8.24-11.07 8.16-10.84C8.06-10.61 8.14-10.35 8.34-10.20L8.84-9.81C8.80-9.60 8.77-9.40 8.73-9.19L8.13-8.99C7.89-8.92 7.73-8.71 7.73-8.46C7.73-8.21 7.89-7.99 8.13-7.92L8.73-7.73C8.77-7.52 8.80-7.32 8.84-7.11L8.33-6.73C8.12-6.56 8.07-6.32 8.16-6.08C8.24-5.84 8.46-5.72 8.70-5.72L9.33-5.74C9.43-5.55 9.54-5.37 9.66-5.19L9.30-4.65C9.16-4.43 9.20-4.18 9.36-4.00C9.53-3.80 9.77-3.74 10.00-3.83L10.58-4.08C10.75-3.93 10.91-3.79 11.07-3.67L10.95-3.04C10.90-2.79 10.99-2.57 11.21-2.44C11.44-2.31 11.70-2.34 11.86-2.50L12.34-2.94C12.54-2.85 12.73-2.78 12.94-2.72L13.02-2.09C13.07-1.83 13.24-1.65 13.49-1.61C13.73-1.57 13.97-1.68 14.07-1.89L14.37-2.46C14.47-2.46 14.59-2.46 14.70-2.46ZM14.70-10.42C14.59-10.42 14.48-10.42 14.38-10.39L13.13-12.57C13.61-12.76 14.14-12.87 14.70-12.87C16.88-12.87 18.68-11.27 19.03-9.20L16.51-9.20C16.22-9.91 15.52-10.42 14.70-10.42ZM10.30-8.46C10.30-9.82 10.91-11.04 11.88-11.85L13.15-9.67C12.89-9.34 12.74-8.92 12.74-8.46C12.74-8.02 12.89-7.61 13.14-7.28L11.84-5.12C10.90-5.93 10.30-7.13 10.30-8.46ZM14.70-7.82C14.33-7.82 14.05-8.10 14.05-8.46C14.05-8.82 14.33-9.12 14.70-9.12C15.06-9.12 15.34-8.82 15.34-8.46C15.34-8.10 15.06-7.82 14.70-7.82ZM14.70-4.07C14.11-4.07 13.56-4.17 13.05-4.38L14.37-6.53C14.47-6.52 14.58-6.50 14.70-6.50C15.52-6.50 16.23-7.02 16.51-7.75L19.03-7.75C18.69-5.66 16.88-4.07 14.70-4.07Z" fill="currentColor"/>
</svg>