<svg xmlns="http://www.w3.org/2000/svg" viewBox="0 0 24 24" width="24" height="24">
  
  <path transform="matrix(0.7934294126762746, 0, 0, 0.7934294126762746, 0.33565783356578316, 18.713156671315666)" d="M14.70 4.14C21.66 4.14 27.30-1.50 27.30-8.46C27.30-15.42 21.66-21.06 14.70-21.06C7.75-21.06 2.10-15.42 2.10-8.46C2.10-1.50 7.75 4.14 14.70 4.14ZM11.79-3.57C10.89-3.57 10.25-4.21 10.25-5.12C10.25-5.88 10.61-6.32 11.54-6.68L15.62-8.39L15.62-8.52L11.54-10.25C10.62-10.61 10.25-11.05 10.25-11.80C10.25-12.71 10.89-13.35 11.78-13.35C12.11-13.35 12.39-13.28 12.69-13.14L19.28-9.88C19.96-9.55 20.30-9.08 20.30-8.41C20.30-7.75 19.95-7.32 19.28-7.01L12.69-3.79C12.39-3.64 12.11-3.57 11.79-3.57Z" fill="currentColor"/>
</svg>