<svg xmlns="http://www.w3.org/2000/svg" viewBox="0 0 24 24" width="24" height="24">
  <title>guaranisign.circle</title>
  <path transform="matrix(0.7934294126762746, 0, 0, 0.7934294126762746, 0.33565783356578316, 18.713156671315666)" d="M14.70 4.14C21.66 4.14 27.30-1.50 27.30-8.46C27.30-15.42 21.66-21.06 14.70-21.06C7.73-21.06 2.10-15.42 2.10-8.46C2.10-1.50 7.73 4.14 14.70 4.14ZM14.70 0.48C9.75 0.48 5.75-3.52 5.75-8.46C5.75-13.41 9.75-17.40 14.70-17.40C19.64-17.40 23.64-13.41 23.64-8.46C23.64-3.52 19.64 0.48 14.70 0.48ZM14.78-2.50C14.95-2.50 15.08-2.63 15.08-2.81L15.08-3.52C17.59-3.60 19.15-5.14 19.15-7.55L19.15-7.72C19.15-8.48 18.73-9.01 17.98-9.01L15.08-9.01L15.08-11.54C15.82-11.47 16.36-11.07 16.69-10.46C16.96-10.09 17.25-9.84 17.80-9.84C18.42-9.84 18.82-10.25 18.82-10.86C18.82-11.09 18.77-11.32 18.66-11.54C18.01-12.82 16.51-13.43 15.08-13.49L15.08-14.21C15.08-14.40 14.95-14.53 14.78-14.53C14.59-14.53 14.45-14.40 14.45-14.21L14.45-13.49C11.67-13.34 10.17-11.38 10.17-8.51C10.17-5.59 11.66-3.69 14.45-3.53L14.45-2.81C14.45-2.63 14.59-2.50 14.78-2.50ZM12.67-8.54C12.67-9.94 13.09-11.32 14.45-11.53L14.45-5.50C13.15-5.75 12.67-7.11 12.67-8.54ZM16.78-7.38L16.77-7.08C16.73-6.14 16.09-5.52 15.08-5.46L15.08-7.38Z" fill="currentColor"/>
</svg>