<svg xmlns="http://www.w3.org/2000/svg" viewBox="0 0 24 24" width="24" height="24">
  <title>guaranisign.bank.building</title>
  <path transform="matrix(0.6865111289890051, 0, 0, 0.6865111289890051, -0.05148833467417546, 17.81255028157683)" d="M5.32 1.90L30.08 1.90L30.08 0.71C30.08 0.06 29.67-0.33 29.04-0.33L28.58-0.33L28.58-13.15L29.52-13.15C30.48-13.15 31.04-13.86 31.04-14.58C31.04-15.11 30.75-15.59 30.14-15.95L19.45-22.11C18.91-22.42 18.28-22.62 17.70-22.62C17.11-22.62 16.48-22.42 15.94-22.11L5.25-15.95C4.64-15.59 4.35-15.11 4.35-14.58C4.35-13.86 4.91-13.15 5.88-13.15L6.82-13.15L6.82-0.33L6.36-0.33C5.72-0.33 5.32 0.06 5.32 0.71ZM9.35-0.33L9.35-14.93L17.45-19.45C17.53-19.50 17.63-19.52 17.70-19.52C17.78-19.52 17.86-19.50 17.94-19.45L26.05-14.93L26.05-0.33ZM17.78-2.78C17.95-2.78 18.09-2.91 18.09-3.09L18.09-3.80C20.60-3.88 22.16-5.43 22.16-7.83L22.16-8.00C22.16-8.77 21.74-9.29 20.99-9.29L18.09-9.29L18.09-11.82C18.83-11.75 19.37-11.36 19.70-10.75C19.97-10.37 20.26-10.13 20.81-10.13C21.42-10.13 21.83-10.54 21.83-11.14C21.83-11.37 21.79-11.60 21.67-11.82C21.02-13.10 19.52-13.71 18.09-13.77L18.09-14.48C18.09-14.68 17.95-14.81 17.78-14.81C17.60-14.81 17.46-14.68 17.46-14.48L17.46-13.77C14.68-13.62 13.17-11.66 13.17-8.79C13.17-5.87 14.67-3.97 17.46-3.80L17.46-3.09C17.46-2.91 17.60-2.78 17.78-2.78ZM15.67-8.82C15.67-10.22 16.10-11.60 17.46-11.81L17.46-5.78C16.15-6.04 15.67-7.39 15.67-8.82ZM19.79-7.66L19.78-7.36C19.75-6.42 19.10-5.80 18.09-5.74L18.09-7.66ZM4.43 5.68L30.67 5.68C31.44 5.68 32.12 5.05 32.12 4.24C32.12 3.46 31.44 2.80 30.67 2.80L4.43 2.80C3.66 2.80 2.99 3.46 2.99 4.24C2.99 5.04 3.66 5.68 4.43 5.68Z" fill="currentColor"/>
</svg>