<svg xmlns="http://www.w3.org/2000/svg" viewBox="0 0 24 24" width="24" height="24">
  
  <path transform="matrix(0.6435051925087977, 0, 0, 0.6435051925087977, 0.26912178121253727, 17.303895384215018)" d="M28.39-8.55C29.07-7.90 29.94-7.88 30.56-8.50L33.33-11.29C33.94-11.88 33.91-12.76 33.27-13.43L32.65-14.07C32.14-14.59 31.76-14.66 31.22-14.60L30.41-14.52L29.82-15.09L30.05-16.10C30.25-16.96 29.95-17.77 29.11-18.62L26.92-20.79C23.96-23.71 18.26-23.13 15.88-20.67C15.28-20.05 15.26-19.29 15.60-18.76C15.91-18.28 16.61-18.09 17.34-18.43C18.93-19.15 20.47-19.43 21.86-19.02L21.05-16.92C20.66-15.93 20.80-15.15 21.50-14.44L23.33-12.60C24.08-11.85 24.81-11.59 25.68-11.78L26.74-12L27.33-11.41L27.21-10.61C27.14-10.07 27.25-9.68 27.77-9.16ZM3.63 4.00L4.98 5.36C6.28 6.64 8.02 6.59 9.28 5.10L22.80-10.75C22.54-10.93 22.28-11.14 22.02-11.41L20.26-13.18C20.05-13.39 19.88-13.61 19.73-13.83L3.88-0.30C2.36 1.00 2.32 2.70 3.63 4.00Z" fill="currentColor"/>
</svg>