<svg xmlns="http://www.w3.org/2000/svg" viewBox="0 0 24 24" width="24" height="24">
  
  <path transform="matrix(0.7293447293447294, 0, 0, 0.7293447293447294, 0.5512820512820502, 18.23931623931624)" d="M8.98-3.67C8.93 1.42 13.05 5.11 19.17 5.14L20.93 5.16C22.52 5.16 23.86 5.04 24.67 4.85C26.02 4.54 26.96 3.63 26.96 2.33C26.96 1.90 26.87 1.54 26.74 1.25C26.68 1.15 26.71 1.09 26.78 1.04C27.68 0.53 28.22-0.28 28.22-1.28C28.22-1.83 28.08-2.36 27.82-2.78C27.76-2.87 27.79-2.96 27.88-3.02C28.49-3.47 28.88-4.27 28.88-5.16C28.88-5.82 28.69-6.45 28.38-6.83C28.30-6.93 28.31-7.01 28.39-7.08C28.83-7.48 29.04-8.17 29.04-8.88C29.04-10.38 27.87-11.57 26.39-11.57L21.81-11.57C20.85-11.57 20.26-12.01 20.26-12.71C20.26-14.34 22.46-17.54 22.46-19.95C22.46-21.33 21.54-22.27 20.25-22.27C19.25-22.27 18.66-21.69 18-20.43C16.08-16.73 13.55-13.69 11.57-11.07C9.75-8.67 9.01-6.66 8.98-3.67ZM2.36-3.56C2.36 0.62 4.90 3.91 8.29 3.91L10.24 3.91C8.07 2.03 6.93-0.63 6.96-3.70C6.98-6.70 7.80-8.98 9.22-11.07L7.80-11.07C4.69-11.07 2.36-7.82 2.36-3.56Z" fill="currentColor"/>
</svg>