<svg xmlns="http://www.w3.org/2000/svg" viewBox="0 0 24 24" width="24" height="24">
  <title>heart.gauge.open</title>
  <path transform="matrix(0.7231638418079096, 0, 0, 0.7231638418079096, 0.48305084745762716, 18.214994989746117)" d="M15.93-20.51C8.30-20.51 2.10-14.32 2.10-6.68C2.10-3.08 3.46 0.19 5.78 2.71C6.56 3.56 7.91 3.47 8.64 2.75C9.41 1.98 9.23 0.69 8.48-0.21C6.98-1.93 6.07-4.22 6.07-6.69C6.07-12.15 10.46-16.56 15.93-16.56C21.39-16.56 25.78-12.15 25.78-6.69C25.78-4.22 24.87-1.93 23.38-0.21C22.62 0.69 22.44 1.98 23.21 2.75C23.93 3.46 25.30 3.56 26.07 2.71C28.39 0.19 29.75-3.08 29.75-6.68C29.75-14.32 23.57-20.51 15.93-20.51ZM13.30-11.52C11.53-11.52 10.10-10.14 10.10-8.06C10.10-4.52 14.19-1.93 15.23-1.31C15.43-1.20 15.73-1.03 15.94-1.03C16.15-1.03 16.42-1.20 16.63-1.31C17.67-1.92 21.76-4.52 21.76-8.06C21.76-10.14 20.33-11.52 18.56-11.52C17.30-11.52 16.39-10.77 15.93-9.96C15.46-10.77 14.58-11.52 13.30-11.52Z" fill="currentColor"/>
</svg>