<svg xmlns="http://www.w3.org/2000/svg" viewBox="0 0 24 24" width="24" height="24">
  
  <path transform="matrix(0.7934294126762746, 0, 0, 0.7934294126762746, 0.33565783356578316, 18.713156671315666)" d="M14.70 4.14C21.66 4.14 27.30-1.50 27.30-8.46C27.30-15.42 21.66-21.06 14.70-21.06C7.75-21.06 2.10-15.42 2.10-8.46C2.10-1.50 7.75 4.14 14.70 4.14ZM19.49-2.52L8.77-13.23C8.46-13.55 8.46-14.06 8.77-14.38C9.08-14.68 9.60-14.68 9.91-14.38L20.63-3.67C20.94-3.35 20.94-2.84 20.63-2.52C20.32-2.21 19.80-2.23 19.49-2.52ZM12.32-13.50C12.40-13.49 12.47-13.49 12.56-13.46C13.55-13.28 14.29-12.63 14.70-11.92C15.19-12.76 16.14-13.55 17.47-13.55C19.35-13.55 20.84-12.09 20.84-9.90C20.84-8.58 20.29-7.37 19.50-6.30ZM16.80-3.70C16.21-3.27 15.70-2.96 15.45-2.79C15.22-2.68 14.93-2.51 14.71-2.51C14.48-2.51 14.17-2.68 13.96-2.79C12.89-3.41 8.55-6.15 8.55-9.90C8.55-10.54 8.68-11.11 8.91-11.59Z" fill="currentColor"/>
</svg>