<svg xmlns="http://www.w3.org/2000/svg" viewBox="0 0 24 24" width="24" height="24">
  
  <path transform="matrix(0.7859825508498792, 0, 0, 0.7859825508498792, -0.3553964211432543, 19.008608907734413)" d="M22.01-15.08L23.23-15.08L23.23-14.91C23.23-10.65 25.48-10.32 25.48-8.26C25.48-6.25 22.63-5.64 22.63-1.35C22.63 0.07 23.06 1.24 24.06 2.53C25.28 4.05 27.69 2.46 26.43 0.77C25.77-0.11 25.57-0.63 25.57-1.51C25.57-4.04 28.42-5.10 28.42-8.26C28.42-11.43 26.16-11.92 26.16-14.91L26.16-15.08L27.27-15.08C28.28-15.08 28.76-16.15 28.22-16.89L25.72-20.39C25.16-21.18 24.29-21.23 23.66-20.39L21.06-16.89C20.52-16.18 20.98-15.08 22.01-15.08ZM13.14-15.07L14.36-15.07L14.36-14.89C14.36-10.64 16.61-10.31 16.61-8.25C16.61-6.22 13.76-5.63 13.76-1.32C13.76 0.08 14.19 1.25 15.20 2.54C16.41 4.07 18.82 2.47 17.55 0.79C16.90-0.09 16.70-0.62 16.70-1.50C16.70-4.03 19.55-5.07 19.55-8.25C19.55-11.41 17.29-11.89 17.29-14.89L17.29-15.07L18.40-15.07C19.41-15.07 19.89-16.14 19.35-16.88L16.85-20.37C16.29-21.16 15.42-21.22 14.79-20.37L12.19-16.88C11.65-16.17 12.12-15.07 13.14-15.07ZM4.17-15.05L5.39-15.05L5.39-14.88C5.39-10.62 7.64-10.30 7.64-8.23C7.64-6.21 4.80-5.61 4.80-1.31C4.80 0.09 5.23 1.27 6.23 2.55C7.44 4.08 9.87 2.48 8.59 0.80C7.93-0.08 7.75-0.61 7.75-1.49C7.75-4.02 10.58-5.06 10.58-8.23C10.58-11.40 8.32-11.88 8.32-14.88L8.32-15.05L9.43-15.05C10.44-15.05 10.92-16.13 10.38-16.86L7.89-20.36C7.32-21.15 6.46-21.21 5.82-20.36L3.22-16.86C2.68-16.16 3.15-15.05 4.17-15.05Z" fill="currentColor"/>
</svg>