<svg xmlns="http://www.w3.org/2000/svg" viewBox="0 0 24 24" width="24" height="24">
  <title>heater.vertical.fill</title>
  <path transform="matrix(0.6096795915820256, 0, 0, 0.6096795915820256, -0.7364134794052632, 17.158460919401044)" d="M8.24 6.90L16.42 6.90C18.80 6.90 20.17 5.53 20.17 3.16L20.17-20.09C20.17-22.45 18.80-23.82 16.42-23.82L8.24-23.82C5.86-23.82 4.49-22.45 4.49-20.09L4.49 3.16C4.49 5.53 5.86 6.90 8.24 6.90ZM15.84-13.18C15.39-13.18 15.01-13.56 15.01-14.00L15.01-18.64C15.01-19.07 15.39-19.45 15.84-19.45C16.29-19.45 16.64-19.07 16.64-18.64L16.64-14.00C16.64-13.56 16.29-13.18 15.84-13.18ZM12.97-13.18C12.53-13.18 12.15-13.56 12.15-14.00L12.15-18.64C12.15-19.07 12.53-19.45 12.97-19.45C13.42-19.45 13.77-19.07 13.77-18.64L13.77-14.00C13.77-13.56 13.42-13.18 12.97-13.18ZM25.42-9.95C29.09-9.95 30.82-12.76 33.64-12.76C34.30-12.76 34.79-12.61 35.46-12.25C36.05-11.92 36.69-12.08 37.05-12.59C37.49-13.21 37.31-14.03 36.60-14.43C35.70-14.95 34.69-15.23 33.64-15.23C29.96-15.23 28.23-12.42 25.42-12.42C24.77-12.42 24.28-12.56 23.61-12.93C23.03-13.29 22.34-13.10 22.00-12.56C21.60-11.95 21.77-11.14 22.48-10.75C23.38-10.22 24.38-9.95 25.42-9.95ZM15.84-5.34C15.39-5.34 15.01-5.71 15.01-6.18L15.01-10.80C15.01-11.24 15.39-11.60 15.84-11.60C16.29-11.60 16.64-11.24 16.64-10.80L16.64-6.18C16.64-5.71 16.29-5.34 15.84-5.34ZM12.97-5.34C12.53-5.34 12.15-5.71 12.15-6.18L12.15-10.80C12.15-11.24 12.53-11.60 12.97-11.60C13.42-11.60 13.77-11.24 13.77-10.80L13.77-6.18C13.77-5.71 13.42-5.34 12.97-5.34ZM25.43-5.82C29.09-5.82 30.83-8.61 33.64-8.61C34.30-8.61 34.79-8.48 35.47-8.10C36.05-7.78 36.70-7.95 37.07-8.45C37.49-9.06 37.31-9.89 36.60-10.30C35.70-10.83 34.69-11.09 33.64-11.09C29.96-11.09 28.24-8.29 25.43-8.29C24.77-8.29 24.28-8.43 23.61-8.80C23.03-9.14 22.34-8.96 22.00-8.43C21.60-7.82 21.77-7.01 22.48-6.61C23.38-6.08 24.39-5.82 25.43-5.82ZM25.42-1.68C29.09-1.68 30.82-4.48 33.64-4.48C34.30-4.48 34.79-4.35 35.46-3.96C36.05-3.64 36.69-3.80 37.05-4.30C37.49-4.92 37.31-5.75 36.60-6.16C35.70-6.68 34.69-6.95 33.64-6.95C29.96-6.95 28.23-4.15 25.42-4.15C24.77-4.15 24.28-4.29 23.61-4.66C23.03-5.00 22.34-4.82 22.00-4.29C21.60-3.67 21.77-2.87 22.48-2.47C23.38-1.95 24.38-1.68 25.42-1.68ZM15.84 2.51C15.39 2.51 15.01 2.13 15.01 1.71L15.01-2.93C15.01-3.39 15.39-3.75 15.84-3.75C16.29-3.75 16.64-3.39 16.64-2.93L16.64 1.71C16.64 2.13 16.29 2.51 15.84 2.51ZM12.97 2.51C12.53 2.51 12.15 2.13 12.15 1.71L12.15-2.93C12.15-3.39 12.53-3.75 12.97-3.75C13.42-3.75 13.77-3.39 13.77-2.93L13.77 1.71C13.77 2.13 13.42 2.51 12.97 2.51Z" fill="currentColor"/>
</svg>