<svg xmlns="http://www.w3.org/2000/svg" viewBox="0 0 24 24" width="24" height="24">
  <title>helm</title>
  <path transform="matrix(0.6856836748359448, 0, 0, 0.6856836748359448, 0.5616713539574125, 17.79349136199277)" d="M3.38-7.18L4.96-7.18C5.20-4.88 6.12-2.77 7.50-1.05L6.38 0.07C5.86 0.59 5.87 1.37 6.38 1.88C6.88 2.38 7.68 2.37 8.18 1.86L9.29 0.74C11.00 2.12 13.11 3.04 15.41 3.28L15.41 4.85C15.41 5.57 15.96 6.13 16.68 6.13C17.39 6.13 17.94 5.57 17.94 4.85L17.94 3.28C20.25 3.04 22.36 2.12 24.08 0.74L25.20 1.85C25.71 2.37 26.48 2.37 26.99 1.86C27.49 1.36 27.49 0.59 26.98 0.07L25.86-1.05C27.25-2.77 28.16-4.88 28.41-7.18L29.99-7.18C30.69-7.18 31.27-7.73 31.27-8.45C31.27-9.16 30.69-9.71 29.99-9.71L28.41-9.71C28.16-12.01 27.25-14.12 25.88-15.83L26.99-16.96C27.49-17.46 27.50-18.25 27-18.75C26.50-19.25 25.71-19.27 25.20-18.75L24.08-17.63C22.36-19.01 20.25-19.92 17.94-20.17L17.94-21.75C17.94-22.46 17.39-23.03 16.68-23.03C15.96-23.03 15.41-22.46 15.41-21.75L15.41-20.17C13.10-19.92 10.99-19.01 9.28-17.63L8.17-18.75C7.65-19.27 6.87-19.25 6.36-18.76C5.87-18.26 5.86-17.47 6.38-16.96L7.50-15.84C6.12-14.13 5.20-12.02 4.96-9.71L3.38-9.71C2.66-9.71 2.10-9.16 2.10-8.45C2.10-7.73 2.66-7.18 3.38-7.18ZM11.70-15.22C12.76-16.01 14.04-16.56 15.41-16.76L15.41-11.50ZM17.94-16.76C19.32-16.56 20.59-16.01 21.67-15.22L17.94-11.50ZM8.37-9.71C8.58-11.09 9.12-12.36 9.91-13.43L13.63-9.71ZM19.75-9.71L23.46-13.42C24.25-12.35 24.79-11.09 25.00-9.71ZM8.37-7.18L13.63-7.18L9.91-3.46C9.12-4.54 8.58-5.80 8.37-7.18ZM19.73-7.18L25.00-7.18C24.79-5.80 24.25-4.54 23.45-3.46ZM17.94-5.40L21.67-1.68C20.59-0.89 19.32-0.34 17.94-0.13ZM11.71-1.66L15.41-5.38L15.41-0.13C14.04-0.34 12.77-0.88 11.71-1.66Z" fill="currentColor"/>
</svg>