<svg xmlns="http://www.w3.org/2000/svg" viewBox="0 0 24 24" width="24" height="24">
  <title>hifispeaker.arrow.forward.fill</title>
  <path transform="matrix(0.7629265385188496, 0, 0, 0.7629265385188496, 3.032632990612427, 18.450603486812696)" d="M2.99-17.29L2.99-5.79L11.41-5.79L12.60-5.70L12.07-6.09L11.37-6.77C11.13-7.01 10.98-7.36 10.98-7.70C10.98-8.44 11.52-8.98 12.26-8.98C12.63-8.98 12.93-8.85 13.16-8.61L16.07-5.68C16.46-5.27 16.65-4.86 16.65-4.41C16.65-3.96 16.46-3.54 16.07-3.13L13.16-0.20C12.93 0.04 12.63 0.16 12.26 0.16C11.52 0.16 10.98-0.38 10.98-1.11C10.98-1.45 11.14-1.82 11.37-2.05L12.07-2.73L12.60-3.13L11.41-3.02L2.99-3.02L2.99 0.38C2.99 3.11 4.54 4.65 7.25 4.65L19.35 4.65C22.07 4.65 23.61 3.11 23.61 0.38L23.61-17.29C23.61-20.00 22.07-21.56 19.35-21.56L7.25-21.56C4.54-21.56 2.99-20.00 2.99-17.29ZM13.29-11.33C11.60-11.33 10.25-12.67 10.25-14.38C10.25-16.09 11.60-17.44 13.29-17.43C15-17.41 16.34-16.09 16.35-14.38C16.37-12.67 15-11.33 13.29-11.33ZM13.30-13.42C13.83-13.42 14.26-13.85 14.26-14.38C14.26-14.92 13.82-15.35 13.30-15.35C12.77-15.35 12.34-14.94 12.34-14.38C12.34-13.85 12.77-13.42 13.30-13.42ZM1.24-3.02L2.99-3.02L2.99-5.79L1.24-5.79C0.50-5.79-0.11-5.18-0.11-4.41C-0.11-3.63 0.50-3.02 1.24-3.02Z" fill="currentColor"/>
</svg>