<svg xmlns="http://www.w3.org/2000/svg" viewBox="0 0 24 24" width="24" height="24">
  
  <path transform="matrix(0.6671879072191816, 0, 0, 0.6671879072191816, 0.006254886630179923, 17.648944487881156)" d="M12.42-20.03C15.36-20.03 17.55-20.52 17.55-21.43C17.55-22.36 15.38-22.84 12.42-22.84C9.55-22.84 7.36-22.36 7.36-21.43C7.36-20.52 9.56-20.03 12.42-20.03ZM2.99-6.62C2.99-1.55 5.82 0.77 12.01 0.86L12-2.39C7.88-2.47 6.22-3.71 6.22-6.76L6.22-15.27C6.22-15.57 6.27-15.87 6.38-16.11C7.76-15.57 9.77-15.22 12.42-15.22C15.07-15.22 17.09-15.57 18.47-16.11C18.53-15.98 18.56-15.84 18.57-15.69C18.59-15.46 18.60-15.22 18.61-14.96C19.32-15.04 19.88-15.04 21.84-15.04C21.84-15.27 21.83-15.50 21.83-15.73C21.79-17.03 21.50-18.50 20.86-19.51C20.50-20.10 19.75-20.27 18.95-19.88C17.39-19.04 15.12-18.55 12.42-18.55C9.73-18.55 7.45-19.04 5.89-19.88C5.10-20.27 4.36-20.10 3.98-19.51C3.28-18.42 2.99-16.82 2.99-15.30ZM19.48 5.91L27.55 5.91C29.51 5.91 30.79 5.61 31.73 4.66C32.68 3.71 32.96 2.46 32.96 0.48L32.96-7.56C32.96-9.53 32.68-10.78 31.73-11.72C30.77-12.68 29.51-12.97 27.55-12.97L19.48-12.97C17.52-12.97 16.27-12.68 15.30-11.72C14.34-10.77 14.06-9.53 14.06-7.56L14.06 0.48C14.06 2.46 14.34 3.71 15.29 4.66C16.27 5.61 17.52 5.91 19.48 5.91ZM19.65-5.44C19.63-6.11 20.14-6.73 20.84-6.77C20.91-6.14 20.34-5.38 19.65-5.44ZM24.38-6.34L24.38-5.31L25.23-5.31L25.23-4.63L24.38-4.63L24.38-2.21C24.38-1.82 24.56-1.68 24.94-1.68C25.02-1.68 25.17-1.68 25.20-1.69L25.20-0.97C25.14-0.95 24.94-0.93 24.73-0.93C23.84-0.93 23.50-1.25 23.50-2.11L23.50-4.63L22.89-4.63L22.89-5.31L23.50-5.31L23.50-6.34ZM22.04-2.44C21.90-2.03 21.62-1.45 21.23-1.11C21.11-1.02 20.94-0.93 20.73-0.93C20.54-0.93 20.41-1.01 20.24-1.07C20.11-1.09 19.97-1.17 19.78-1.17C19.36-1.17 19.17-0.93 18.81-0.93C18.59-0.93 18.38-1.07 18.12-1.36C17.63-1.91 17.30-2.79 17.30-3.54C17.30-4.00 17.43-4.44 17.70-4.80C17.94-5.12 18.33-5.30 18.77-5.30C19.22-5.30 19.46-5.04 19.68-5.04C19.93-5.04 20.25-5.31 20.78-5.31C21.23-5.31 21.63-5.12 21.89-4.75C21.56-4.55 21.42-4.31 21.36-4.11C21.25-3.82 21.23-3.49 21.36-3.14C21.48-2.82 21.70-2.60 22.04-2.44ZM28.18-0.97L27.22-0.97L25.64-5.31L26.59-5.31L27.70-1.82L28.77-5.31L29.74-5.31Z" fill="currentColor"/>
</svg>