<svg xmlns="http://www.w3.org/2000/svg" viewBox="0 0 24 24" width="24" height="24">
  
  <path transform="matrix(0.7639510593852581, 0, 0, 0.7639510593852581, 3.3786929274843343, 18.445837063563115)" d="M13.39-18.41C10.23-18.41 7.82-18.96 7.82-19.97C7.82-20.99 10.22-21.53 13.39-21.53C16.64-21.53 19.05-20.99 19.05-19.97C19.05-18.96 16.63-18.41 13.39-18.41ZM13.43 4.65C6.21 4.65 2.99 2.07 2.99-3.63L2.99-5.16L9.79-5.16L10.96-5.25L10.44-4.85L9.74-4.17C9.50-3.95 9.34-3.59 9.34-3.25C9.34-2.51 9.88-1.97 10.63-1.97C11.00-1.97 11.29-2.10 11.53-2.33L14.43-5.26C14.84-5.67 15.02-6.08 15.02-6.54C15.02-6.98 14.84-7.41 14.43-7.82L11.53-10.75C11.29-10.98 11.00-11.11 10.63-11.11C9.88-11.11 9.34-10.57 9.34-9.83C9.34-9.49 9.50-9.14 9.74-8.91L10.44-8.21L10.96-7.82L9.79-7.92L2.99-7.92L2.99-13.22C2.99-14.87 3.30-16.65 4.09-17.85C4.49-18.49 5.31-18.69 6.19-18.26C7.86-17.34 10.52-16.77 13.43-16.77C16.34-16.77 19.00-17.34 20.68-18.26C21.55-18.69 22.37-18.49 22.78-17.85C23.55-16.65 23.87-14.87 23.87-13.22L23.87-3.63C23.87 2.07 20.65 4.65 13.43 4.65ZM0.04-5.16C-0.70-5.16-1.30-5.77-1.30-6.54C-1.30-7.31-0.70-7.92 0.04-7.92L2.99-7.92L2.99-5.16Z" fill="currentColor"/>
</svg>