<svg xmlns="http://www.w3.org/2000/svg" viewBox="0 0 24 24" width="24" height="24">
  
  <path transform="matrix(0.8797250859106529, 0, 0, 0.8797250859106529, 2.845360824742268, 19.443298969072163)" d="M5.48 2.91L15.33 2.91C16.86 2.91 17.82 1.97 17.82 0.39L17.82 0.20C17.82-2.91 14.67-5.98 13.46-7.18C12.69-7.96 12.68-8.98 13.46-9.77C14.67-10.98 17.82-14.04 17.82-17.16L17.82-17.32C17.82-18.89 16.86-19.83 15.33-19.83L5.48-19.83C3.94-19.83 2.99-18.89 2.99-17.32L2.99-17.16C2.99-14.04 6.14-10.98 7.35-9.77C8.13-8.98 8.12-7.96 7.35-7.18C6.14-5.98 2.99-2.91 2.99 0.20L2.99 0.39C2.99 1.97 3.94 2.91 5.48 2.91ZM11.70-10.75C10.79-9.90 10.02-9.90 9.12-10.75C8.46-11.34 6.53-13.42 5.50-14.86C5.10-15.41 5.23-16.02 5.87-16.02L14.94-16.02C15.59-16.02 15.71-15.41 15.32-14.86C14.29-13.42 12.35-11.34 11.70-10.75Z" fill="currentColor"/>
</svg>