<svg xmlns="http://www.w3.org/2000/svg" viewBox="0 0 24 24" width="24" height="24">
  <title>house.lodge</title>
  <path transform="matrix(0.38768187656512065, 0, 0, 0.38768187656512065, 0.8420309901101215, 15.275608980509203)" d="M4.83-5.03L5.14-5.03L5.14 0.08C5.14 2.07 6.41 3.33 8.52 3.33L49.04 3.33C51.15 3.33 52.41 2.07 52.41 0.08L52.41-5.03L52.73-5.03C54.62-5.03 55.22-7.28 53.77-8.32L45.94-13.92C45.46-14.26 44.87-14.45 44.24-14.45L37.09-14.45L31.18-19.31C30.48-19.91 29.63-20.23 28.78-20.23C27.94-20.23 27.08-19.91 26.38-19.31L20.47-14.45L13.31-14.45C12.69-14.45 12.09-14.26 11.63-13.92L3.80-8.32C2.34-7.28 2.94-5.03 4.83-5.03ZM32.18-5.19C32.18-5.75 31.82-6.11 31.27-6.11L26.31-6.11C25.76-6.11 25.38-5.75 25.38-5.19L25.38-0.28L19.30-0.28C18.64-0.28 18.27-0.66 18.27-1.32L18.27-8.02L27.97-16.01C28.22-16.22 28.51-16.34 28.78-16.34C29.05-16.34 29.34-16.22 29.59-16.01L39.29-8.02L39.29-1.32C39.29-0.66 38.92-0.28 38.26-0.28L32.18-0.28ZM43.90-11.12C44.05-11.12 44.18-11.09 44.30-11.00L48.02-8.36L44.47-8.36L41.12-11.12ZM9.54-8.36L13.27-11.00C13.38-11.09 13.51-11.12 13.66-11.12L16.44-11.12L13.09-8.36ZM48.80-1.32C48.80-0.66 48.43-0.28 47.77-0.28L42.89-0.28L42.89-5.03L48.80-5.03ZM9.79-0.28C9.13-0.28 8.75-0.66 8.75-1.32L8.75-5.03L14.66-5.03L14.66-0.28Z" fill="currentColor"/>
</svg>