<svg xmlns="http://www.w3.org/2000/svg" viewBox="0 0 24 24" width="24" height="24">
  
  <path transform="matrix(0.7934294126762746, 0, 0, 0.7934294126762746, 0.33565783356578316, 18.713156671315666)" d="M14.70 4.14C21.66 4.14 27.30-1.50 27.30-8.46C27.30-15.42 21.66-21.06 14.70-21.06C7.75-21.06 2.10-15.42 2.10-8.46C2.10-1.50 7.75 4.14 14.70 4.14ZM9.33-3.39C8.61-3.39 8.12-3.91 8.12-4.61L8.12-12.36C8.12-13.08 8.65-13.57 9.33-13.57C10.04-13.57 10.52-13.04 10.52-12.36L10.52-9.53L13.18-9.53L13.18-12.36C13.18-13.08 13.71-13.57 14.39-13.57C15.08-13.57 15.60-13.08 15.60-12.36L15.60-4.61C15.60-3.90 15.09-3.39 14.39-3.39C13.70-3.39 13.18-3.90 13.18-4.61L13.18-7.54L10.52-7.54L10.52-4.61C10.52-3.90 10.03-3.39 9.33-3.39ZM17.52-3.55C17.04-3.55 16.70-3.86 16.70-4.31C16.70-4.64 16.83-4.84 17.20-5.24L18.93-7.03C19.28-7.41 19.50-7.65 19.50-7.95C19.50-8.24 19.28-8.43 18.90-8.43C18.60-8.43 18.38-8.25 18.25-7.92C18.07-7.57 17.80-7.41 17.45-7.41C17.00-7.41 16.66-7.73 16.66-8.20C16.66-8.37 16.70-8.53 16.77-8.68C17.07-9.45 18.01-9.98 18.94-9.98C20.34-9.98 21.28-9.21 21.28-8.02C21.28-7.35 20.85-6.73 20.23-6.12L19.25-5.13L20.78-5.14C21.21-5.14 21.54-4.82 21.54-4.36C21.54-3.90 21.21-3.55 20.78-3.55Z" fill="currentColor"/>
</svg>