<svg xmlns="http://www.w3.org/2000/svg" viewBox="0 0 24 24" width="24" height="24">
  <title>infinity.circle.fill</title>
  <path transform="matrix(0.7934294126762746, 0, 0, 0.7934294126762746, 0.33565783356578316, 18.713156671315666)" d="M14.70 4.14C21.66 4.14 27.30-1.50 27.30-8.46C27.30-15.42 21.66-21.06 14.70-21.06C7.75-21.06 2.10-15.42 2.10-8.46C2.10-1.50 7.75 4.14 14.70 4.14ZM6.53-8.46C6.53-10.88 8.07-12.53 10.35-12.53C11.51-12.52 12.53-12.04 13.59-11.00L14.72-9.93L15.83-11.00C16.91-12.04 17.92-12.53 19.08-12.53C21.35-12.53 22.91-10.88 22.91-8.46C22.91-6.05 21.35-4.41 19.08-4.41C17.92-4.41 16.91-4.89 15.83-5.92L14.72-7.00L13.59-5.92C12.53-4.90 11.51-4.41 10.35-4.41C8.07-4.41 6.53-6.05 6.53-8.46ZM8.65-8.46C8.65-7.27 9.29-6.54 10.35-6.54C10.91-6.54 11.45-6.80 12.12-7.45L13.18-8.46L12.12-9.48C11.44-10.14 10.91-10.38 10.35-10.38C9.29-10.38 8.65-9.66 8.65-8.46ZM16.24-8.46L17.31-7.45C17.98-6.80 18.52-6.54 19.08-6.54C20.14-6.54 20.78-7.27 20.78-8.46C20.78-9.66 20.14-10.38 19.08-10.38C18.52-10.38 17.99-10.14 17.31-9.48Z" fill="currentColor"/>
</svg>