<svg xmlns="http://www.w3.org/2000/svg" viewBox="0 0 24 24" width="24" height="24">
  <title>info.square</title>
  <path transform="matrix(0.8752136752136752, 0, 0, 0.8752136752136752, -0.6153846153846154, 19.405128205128204)" d="M7.37 2.96L21.46 2.96C24.25 2.96 25.84 1.38 25.84-1.41L25.84-15.52C25.84-18.30 24.25-19.89 21.46-19.89L7.37-19.89C4.58-19.89 2.99-18.30 2.99-15.52L2.99-1.41C2.99 1.38 4.58 2.96 7.37 2.96ZM7.86-0.66C7.03-0.66 6.61-1.03 6.61-1.91L6.61-15C6.61-15.88 7.03-16.25 7.86-16.25L20.96-16.25C21.79-16.25 22.21-15.88 22.21-15L22.21-1.91C22.21-1.03 21.79-0.66 20.96-0.66ZM14.45-11.60C15.43-11.60 16.22-12.41 16.22-13.36C16.22-14.36 15.43-15.14 14.45-15.14C13.50-15.14 12.68-14.36 12.68-13.36C12.68-12.41 13.50-11.60 14.45-11.60ZM12.38-2.38L16.92-2.38C17.57-2.38 18.07-2.84 18.07-3.52C18.07-4.13 17.57-4.62 16.92-4.62L16.09-4.62L16.09-8.77C16.09-9.64 15.66-10.22 14.82-10.22L12.61-10.22C11.95-10.22 11.45-9.71 11.45-9.11C11.45-8.44 11.95-7.98 12.61-7.98L13.56-7.98L13.56-4.62L12.38-4.62C11.73-4.62 11.23-4.13 11.23-3.52C11.23-2.84 11.73-2.38 12.38-2.38Z" fill="currentColor"/>
</svg>