<svg xmlns="http://www.w3.org/2000/svg" viewBox="0 0 24 24" width="24" height="24">
  
  <path transform="matrix(0.7934294126762746, 0, 0, 0.7934294126762746, 0.33565783356578316, 18.713156671315666)" d="M14.70 4.14C21.66 4.14 27.30-1.50 27.30-8.46C27.30-15.42 21.66-21.06 14.70-21.06C7.75-21.06 2.10-15.42 2.10-8.46C2.10-1.50 7.75 4.14 14.70 4.14ZM14.73-11.96C13.66-11.96 12.76-12.87 12.76-13.92C12.76-15.04 13.66-15.90 14.73-15.90C15.80-15.90 16.68-15.04 16.68-13.92C16.68-12.87 15.80-11.96 14.73-11.96ZM12.42-1.83C11.71-1.83 11.14-2.33 11.14-3.08C11.14-3.77 11.71-4.32 12.42-4.32L13.72-4.32L13.72-7.97L12.67-7.97C11.94-7.97 11.39-8.47 11.39-9.22C11.39-9.91 11.94-10.45 12.67-10.45L15.13-10.45C16.07-10.45 16.54-9.83 16.54-8.84L16.54-4.32L17.44-4.32C18.15-4.32 18.71-3.77 18.71-3.08C18.71-2.33 18.15-1.83 17.44-1.83Z" fill="currentColor"/>
</svg>