<svg xmlns="http://www.w3.org/2000/svg" viewBox="0 0 24 24" width="24" height="24">
  <title>info.bubble.fill</title>
  <path transform="matrix(0.7240842879366426, 0, 0, 0.7240842879366426, -0.16376750106067028, 17.67670767925329)" d="M11.31 5.21C11.88 5.21 12.35 4.99 13.05 4.38L17.53 0.45L24.67 0.45C28.30 0.45 30.61-1.88 30.61-5.50L30.61-14.94C30.61-18.56 28.30-20.89 24.67-20.89L8.93-20.89C5.30-20.89 2.99-18.57 2.99-14.94L2.99-5.50C2.99-1.86 5.51 0.45 8.61 0.45L9.95 0.45L9.95 3.74C9.95 4.65 10.46 5.21 11.31 5.21ZM16.83-13.46C15.84-13.46 15.01-14.30 15.01-15.28C15.01-16.30 15.84-17.11 16.83-17.11C17.82-17.11 18.63-16.30 18.63-15.28C18.63-14.30 17.82-13.46 16.83-13.46ZM14.70-4.08C14.03-4.08 13.51-4.54 13.51-5.24C13.51-5.87 14.03-6.39 14.70-6.39L15.89-6.39L15.89-9.76L14.93-9.76C14.25-9.76 13.73-10.23 13.73-10.92C13.73-11.55 14.25-12.06 14.93-12.06L17.20-12.06C18.07-12.06 18.50-11.48 18.50-10.56L18.50-6.39L19.34-6.39C20.00-6.39 20.53-5.87 20.53-5.24C20.53-4.54 20.00-4.08 19.34-4.08Z" fill="currentColor"/>
</svg>