<svg xmlns="http://www.w3.org/2000/svg" viewBox="0 0 24 24" width="24" height="24">
  
  <path transform="matrix(0.6898293934393864, 0, 0, 0.6898293934393864, 3.044326490623504, 17.809190516004314)" d="M7.22-20.21C9.43-20.77 11.03-21.73 10.84-22.41C10.66-23.05 8.73-23.09 6.60-22.51C4.34-21.94 2.81-21 3-20.33C3.18-19.70 5.07-19.65 7.22-20.21ZM15.27 5.59L14.99 1.52C14.89 0.12 15.12-0.41 15.98-1.18L19.42-4.17L17.73-4.52C17.47-4.58 17.30-4.73 17.23-5.02L14.36-15.98C14.06-17.06 13.23-17.73 12.22-17.66L11.40-20.46C10.71-19.75 9.35-19.13 7.79-18.70C5.94-18.21 4.29-18.21 3.59-18.35L4.44-15.47C3.69-14.99 3.27-14.02 3.66-12.60L7.68 2.05C8.09 3.50 9.01 4.38 10.75 4.72ZM17.24 5.96C18.46 6.22 19.27 6.04 19.97 5.33L22.25 3.05C22.76 2.54 22.98 2.03 22.98 1.20L22.98-1.76C22.98-3.01 22.41-3.52 21.55-3.71L21.33-3.76L17.55-0.32C16.75 0.41 16.63 0.79 16.71 1.96L17.00 5.92Z" fill="currentColor"/>
</svg>