<svg xmlns="http://www.w3.org/2000/svg" viewBox="0 0 24 24" width="24" height="24">
  <title>inset.filled.triangle</title>
  <path transform="matrix(0.7861200675571933, 0, 0, 0.7861200675571933, 0.1206817134960847, 18.517733763242745)" d="M6.14 3.32L24.09 3.32C26.31 3.32 27.83 1.56 27.83-0.43C27.83-1.07 27.68-1.71 27.34-2.31L18.34-18.02C17.61-19.29 16.38-19.90 15.12-19.90C13.85-19.90 12.59-19.27 11.87-18.02L2.88-2.30C2.55-1.70 2.39-1.07 2.39-0.43C2.39 1.56 3.91 3.32 6.14 3.32ZM6.95-0.08C6.48-0.08 6.18-0.46 6.18-0.89C6.18-1.01 6.20-1.18 6.27-1.31L14.45-15.75C14.59-16.00 14.86-16.09 15.12-16.09C15.36-16.09 15.63-15.98 15.77-15.75L23.96-1.29C24.04-1.16 24.06-1.00 24.06-0.89C24.06-0.46 23.74-0.08 23.29-0.08ZM9.81-2.18L20.41-2.18C20.72-2.18 20.87-2.47 20.73-2.73L15.43-12.09C15.28-12.36 14.94-12.36 14.79-12.09L9.49-2.73C9.34-2.47 9.50-2.18 9.81-2.18Z" fill="currentColor"/>
</svg>