<svg xmlns="http://www.w3.org/2000/svg" viewBox="0 0 24 24" width="24" height="24">
  
  <path transform="matrix(0.595695171611402, 0, 0, 0.595695171611402, 0.2198952879581153, 16.848167539267017)" d="M7.38 2.98L25.58 2.98L25.44 2.58C24.20 1.68 23.60 0.66 23.48-0.64L7.88-0.64C7.04-0.64 6.62-1.02 6.62-1.90L6.62-14.99C6.62-15.87 7.04-16.24 7.86-16.24L27.15-16.24C27.97-16.24 28.37-15.87 28.39-15.08L28.39-14.84L32.03-14.84L32.03-15.50C32.03-18.29 30.43-19.88 27.64-19.88L7.37-19.88C4.58-19.88 2.99-18.29 2.99-15.50L2.99-1.41C2.99 1.38 4.59 2.98 7.38 2.98ZM28.72 3.60L32.12 3.60C32.65 3.60 33.08 3.34 33.28 2.84L33.69 1.82C33.86 1.42 34.13 1.11 34.54 0.84C35.34 0.32 35.79-0.46 35.79-1.61L35.79-5.09C36.22-5.09 36.56-5.44 36.56-5.96L36.56-6.97C36.56-7.45 36.25-7.82 35.79-7.85C35.79-8.92 35.34-9.70 34.54-10.23C34.13-10.50 33.86-10.79 33.69-11.19L33.28-12.22C33.09-12.73 32.65-12.97 32.12-12.97L28.72-12.97C28.18-12.97 27.75-12.73 27.55-12.22L27.13-11.19C26.96-10.77 26.68-10.46 26.30-10.23C25.49-9.70 25.05-8.92 25.05-7.78L25.05-1.61C25.05-0.46 25.49 0.32 26.30 0.84C26.72 1.11 26.96 1.41 27.13 1.82L27.55 2.84C27.75 3.35 28.18 3.60 28.72 3.60ZM28.36-0.90C27.57-0.90 27.25-1.25 27.25-2.07L27.25-7.31C27.25-8.13 27.57-8.48 28.36-8.48L32.48-8.48C33.27-8.48 33.61-8.13 33.61-7.31L33.61-2.07C33.61-1.27 33.27-0.90 32.48-0.90ZM12.94-1.69L22.09-1.69C22.48-1.69 22.77-1.95 22.77-2.37C22.77-2.78 22.48-3.06 22.09-3.06L12.94-3.06C12.55-3.06 12.26-2.78 12.26-2.37C12.26-1.95 12.55-1.69 12.94-1.69Z" fill="currentColor"/>
</svg>