<svg xmlns="http://www.w3.org/2000/svg" viewBox="0 0 24 24" width="24" height="24">
  
  <path transform="matrix(0.6974526631249148, 0, 0, 0.6974526631249148, 2.2656313853698413, 17.905190028606455)" d="M7.23 5.87L20.68 5.87C23.32 5.87 24.93 4.28 24.93 1.66L24.93-18.61C24.93-21.21 23.32-22.80 20.68-22.80L7.23-22.80C4.59-22.80 2.99-21.21 2.99-18.61L2.99 1.66C2.99 4.28 4.59 5.87 7.23 5.87ZM13.97-19.11C13.50-19.11 13.13-19.48 13.13-19.96C13.13-20.41 13.50-20.79 13.97-20.79C14.43-20.79 14.80-20.41 14.80-19.96C14.80-19.48 14.43-19.11 13.97-19.11ZM6.61 0.47L6.61-17.41L21.30-17.41L21.30 0.47ZM13.97 4.34C13.23 4.34 12.64 3.75 12.64 3.01C12.64 2.30 13.23 1.71 13.97 1.71C14.70 1.71 15.28 2.30 15.28 3.01C15.28 3.75 14.70 4.34 13.97 4.34Z" fill="currentColor"/>
</svg>