<svg xmlns="http://www.w3.org/2000/svg" viewBox="0 0 24 24" width="24" height="24">
  <title>ipad.landscape</title>
  <path transform="matrix(0.689005517426995, 0, 0, 0.689005517426995, -0.05894226887363763, 17.821558336697617)" d="M7.38 2.98L27.63 2.98C30.43 2.98 32.02 1.38 32.02-1.41L32.02-15.50C32.02-18.29 30.43-19.88 27.63-19.88L7.37-19.88C4.58-19.88 2.99-18.29 2.99-15.50L2.99-1.41C2.99 1.38 4.58 2.98 7.38 2.98ZM7.88-0.64C7.04-0.64 6.62-1.02 6.62-1.90L6.62-14.99C6.62-15.87 7.03-16.24 7.86-16.24L27.15-16.24C27.97-16.24 28.39-15.87 28.39-14.99L28.39-1.90C28.39-1.02 27.97-0.64 27.15-0.64ZM12.94-1.69L22.08-1.69C22.48-1.69 22.77-1.95 22.77-2.37C22.77-2.78 22.48-3.06 22.08-3.06L12.94-3.06C12.54-3.06 12.26-2.78 12.26-2.37C12.26-1.95 12.54-1.69 12.94-1.69Z" fill="currentColor"/>
</svg>