<svg xmlns="http://www.w3.org/2000/svg" viewBox="0 0 24 24" width="24" height="24">
  
  <path transform="matrix(0.689005517426995, 0, 0, 0.689005517426995, -0.05894226887363763, 17.796780031171004)" d="M28.85 4.41C29.26 4.80 29.92 4.78 30.32 4.39C30.71 3.98 30.71 3.34 30.32 2.94L6.16-21.22C5.75-21.62 5.10-21.62 4.69-21.22C4.30-20.84 4.30-20.16 4.69-19.77ZM31.18 1.43C31.72 0.73 32.02-0.23 32.02-1.41L32.02-15.50C32.02-18.29 30.43-19.88 27.63-19.88L9.89-19.88L13.51-16.24L26.61-16.24L26.61-3.14ZM7.38 2.98L25.05 2.98L21.43-0.64L8.38-0.64L8.38-13.70L3.79-18.29C3.26-17.59 2.99-16.65 2.99-15.50L2.99-1.41C2.99 1.38 4.58 2.98 7.38 2.98ZM29.16-7.14C28.43-7.14 27.84-7.72 27.84-8.46C27.84-9.19 28.43-9.77 29.16-9.77C29.89-9.77 30.48-9.19 30.48-8.46C30.48-7.72 29.89-7.14 29.16-7.14ZM5.84-7.62C5.38-7.61 5.00-7.99 5.00-8.46C4.99-8.92 5.38-9.29 5.84-9.29C6.32-9.29 6.68-8.92 6.68-8.46C6.68-7.99 6.30-7.62 5.84-7.62Z" fill="currentColor"/>
</svg>