<svg xmlns="http://www.w3.org/2000/svg" viewBox="0 0 24 24" width="24" height="24">
  
  <path transform="matrix(0.634684517168712, 0, 0, 0.634684517168712, -0.513945704722945, 17.184083302342877)" d="M7.93 5.66L11.00 5.66C10.14 4.66 9.54 3.32 9.25 1.77L8.80 1.77C8.06 1.77 7.59 1.34 7.59 0.59L7.59-17.55C7.59-18.30 8.06-18.74 8.80-18.74L17.77-18.74C18.50-18.74 18.97-18.28 18.97-17.54L18.97-9.23C20.41-9.35 20.99-9.39 22.59-9.38L22.59-18.80C22.59-21.09 21.09-22.63 18.84-22.63L7.93-22.63C5.55-22.63 3.96-21.09 3.96-18.81L3.96 1.84C3.96 4.13 5.55 5.66 7.93 5.66ZM11.63-15.47L14.93-15.47C15.59-15.47 16.07-15.95 16.07-16.61C16.07-17.26 15.57-17.75 14.93-17.75L11.63-17.75C10.98-17.75 10.49-17.26 10.49-16.61C10.49-15.95 10.97-15.47 11.63-15.47ZM23.12 3.53C24.90 3.53 26.36 6.29 29.82 6.29C33.11 6.29 35.47 3.43 35.47-0.43C35.47-6.95 29.78-7.51 23.12-7.51C16.48-7.51 10.78-6.94 10.78-0.43C10.78 3.43 13.15 6.29 16.44 6.29C19.90 6.29 21.35 3.53 23.12 3.53ZM23.12 0.87C19.78 0.87 18.91 3.61 16.39 3.61C14.53 3.61 13.44 2.09 13.44-0.43C13.44-4.11 16.21-4.85 23.12-4.85C30.06-4.85 32.81-4.11 32.81-0.43C32.81 2.09 31.72 3.61 29.85 3.61C27.35 3.61 26.47 0.87 23.12 0.87Z" fill="currentColor"/>
</svg>