<svg xmlns="http://www.w3.org/2000/svg" viewBox="0 0 24 24" width="24" height="24">
  
  <path transform="matrix(0.7069870201601768, 0, 0, 0.7069870201601768, 2.613090306545153, 17.9983429991715)" d="M3.96 1.84C3.96 4.13 5.55 5.66 7.93 5.66L18.84 5.66C21.09 5.66 22.59 4.13 22.59 1.83L22.59-18.80C22.59-21.09 21.09-22.63 18.84-22.63L7.93-22.63C5.55-22.63 3.96-21.09 3.96-18.81ZM7.58-17.55C7.58-18.30 8.05-18.74 8.80-18.74L11.34-18.74L7.58-15.57ZM7.58-13.98L13.25-18.74L16.77-18.74L7.58-11.02ZM18.96-17.54L18.96-16.02L7.58-6.47L7.58-9.43L18.46-18.56C18.79-18.36 18.96-18.01 18.96-17.54ZM7.58-4.88L18.96-14.43L18.96-11.46L7.58-1.91ZM7.58 0.59L7.58-0.32L18.96-9.88L18.96-6.91L8.63 1.76C7.98 1.70 7.58 1.28 7.58 0.59ZM10.52 1.77L18.96-5.33L18.96-2.36L14.05 1.77ZM18.96 0.57C18.96 1.31 18.49 1.77 17.77 1.77L15.95 1.77L18.96-0.77Z" fill="currentColor"/>
</svg>