<svg xmlns="http://www.w3.org/2000/svg" viewBox="0 0 24 24" width="24" height="24">
  
  <path transform="matrix(0.7069870201601768, 0, 0, 0.7069870201601768, 2.578391055932407, 17.9983429991715)" d="M19.03-6.53L22.65-2.89L22.65-18.80C22.65-21.09 21.15-22.63 18.90-22.63L7.99-22.63C6.54-22.63 5.37-22.07 4.73-21.07L4.65-20.93L7.71-17.85L7.77-18C7.88-18.48 8.29-18.74 8.86-18.74L17.82-18.74C18.56-18.74 19.03-18.28 19.03-17.54ZM23.60 3.30C24 3.70 24.67 3.70 25.05 3.30C25.44 2.91 25.45 2.25 25.05 1.85L3.07-20.12C2.67-20.52 2.00-20.53 1.59-20.12C1.21-19.73 1.21-19.05 1.59-18.67ZM11.63-15.45L14.93-15.45C15.59-15.45 16.07-15.93 16.07-16.58C16.07-17.24 15.57-17.73 14.93-17.73L11.63-17.73C10.98-17.73 10.49-17.24 10.49-16.58C10.49-15.93 10.97-15.45 11.63-15.45ZM7.99 5.66L18.90 5.66C20.18 5.66 21.21 5.17 21.83 4.30C21.88 4.23 21.94 4.16 21.98 4.09L18.91 1.00C18.89 1.03 18.88 1.08 18.87 1.13C18.71 1.54 18.35 1.77 17.82 1.77L8.86 1.77C8.12 1.77 7.65 1.34 7.65 0.59L7.65-10.25L4.02-13.88L4.02 1.84C4.02 4.13 5.61 5.66 7.99 5.66ZM10.69 0.67L16.00 0.67C16.42 0.67 16.73 0.38 16.73-0.07C16.73-0.52 16.42-0.81 16.00-0.81L10.69-0.81C10.27-0.81 9.95-0.52 9.95-0.07C9.95 0.38 10.27 0.67 10.69 0.67Z" fill="currentColor"/>
</svg>