<svg xmlns="http://www.w3.org/2000/svg" viewBox="0 0 24 24" width="24" height="24">
  
  <path transform="matrix(0.7066942719116632, 0, 0, 0.7066942719116632, 2.6319817842736373, 17.991718426501038)" d="M22.59-2.89L22.59-18.80C22.59-21.09 21.09-22.63 18.84-22.63L7.93-22.63C6.41-22.63 5.23-22.00 4.57-20.94L4.57-20.93L8.70-16.79L8.70-16.82L18.96-16.82L18.96-6.52ZM13.29-18.84C12.79-18.84 12.39-19.24 12.39-19.75C12.39-20.24 12.79-20.63 13.29-20.63C13.78-20.63 14.18-20.24 14.18-19.75C14.18-19.24 13.78-18.84 13.29-18.84ZM23.52 3.30C23.93 3.70 24.59 3.70 24.98 3.30C25.37 2.91 25.38 2.25 24.98 1.85L3-20.12C2.59-20.52 1.93-20.53 1.52-20.12C1.14-19.73 1.14-19.05 1.52-18.67ZM7.93 5.67L18.84 5.67C20.23 5.67 21.30 5.10 21.93 4.10L21.93 4.09L17.66-0.18L17.66-0.14L7.58-0.14L7.58-10.24L3.96-13.86L3.96 1.85C3.96 4.14 5.55 5.67 7.93 5.67ZM13.29 3.93C12.55 3.93 11.96 3.34 11.96 2.60C11.96 1.89 12.55 1.30 13.29 1.30C14.02 1.30 14.60 1.89 14.60 2.60C14.60 3.34 14.02 3.93 13.29 3.93Z" fill="currentColor"/>
</svg>