<svg xmlns="http://www.w3.org/2000/svg" viewBox="0 0 24 24" width="24" height="24">
  <title>key.slash.fill</title>
  <path transform="matrix(0.6656915325857305, 0, 0, 0.6656915325857305, 4.994143896429076, 17.656752803510482)" d="M14.87-8.09C17.79-9.74 19.42-12.34 19.42-15.33C19.42-19.86 15.76-23.52 11.20-23.52C7.98-23.52 5.23-21.71 3.89-19.05ZM-1.31-18.70L20.89 3.48C21.30 3.89 21.97 3.87 22.35 3.48C22.76 3.07 22.75 2.44 22.35 2.05L0.15-20.13C-0.26-20.54-0.93-20.54-1.31-20.16C-1.70-19.77-1.70-19.08-1.31-18.70ZM11.20-16.41C10.13-16.41 9.23-17.29 9.23-18.38C9.23-19.46 10.11-20.33 11.20-20.33C12.28-20.33 13.17-19.45 13.17-18.38C13.17-17.29 12.28-16.41 11.20-16.41ZM12.23 6.15L15.73 2.66C15.95 2.43 15.95 2.10 15.71 1.86L13.36-0.48L13.80-0.95L7.69-7.05L7.69 2.86C7.69 3.34 7.85 3.86 8.25 4.21L10.48 6.21C10.93 6.61 11.72 6.67 12.23 6.15Z" fill="currentColor"/>
</svg>