<svg xmlns="http://www.w3.org/2000/svg" viewBox="0 0 24 24" width="24" height="24">
  <title>key.fill</title>
  <path transform="matrix(0.6656915325857305, 0, 0, 0.6656915325857305, 4.546075085324231, 17.656752803510482)" d="M11.20-23.52C6.63-23.52 2.99-19.88 2.99-15.33C2.99-12.13 4.79-9.25 7.69-7.90L7.69 2.86C7.69 3.34 7.85 3.86 8.24 4.21L10.48 6.21C10.93 6.61 11.72 6.67 12.23 6.15L15.88 2.50C16.46 1.92 16.44 1.03 15.87 0.45L14.26-1.17L16.71-3.63C17.27-4.21 17.29-5.11 16.70-5.70L14.51-7.90C17.66-9.54 19.41-12.22 19.41-15.33C19.41-19.86 15.76-23.52 11.20-23.52ZM11.20-16.41C10.11-16.41 9.23-17.29 9.23-18.38C9.23-19.46 10.11-20.33 11.20-20.33C12.28-20.33 13.16-19.45 13.16-18.38C13.16-17.29 12.28-16.41 11.20-16.41Z" fill="currentColor"/>
</svg>