<svg xmlns="http://www.w3.org/2000/svg" viewBox="0 0 24 24" width="24" height="24">
  <title>l.circle</title>
  <path transform="matrix(0.7934294126762746, 0, 0, 0.7934294126762746, 0.33565783356578316, 18.713156671315666)" d="M14.70 4.14C21.66 4.14 27.30-1.50 27.30-8.46C27.30-15.42 21.66-21.06 14.70-21.06C7.73-21.06 2.10-15.42 2.10-8.46C2.10-1.50 7.73 4.14 14.70 4.14ZM14.70 0.48C9.75 0.48 5.75-3.52 5.75-8.46C5.75-13.41 9.75-17.40 14.70-17.40C19.64-17.40 23.64-13.41 23.64-8.46C23.64-3.52 19.64 0.48 14.70 0.48ZM12.70-3.30L17.36-3.30C18.32-3.30 18.90-3.82 18.90-4.73C18.90-5.63 18.32-6.15 17.36-6.15L14.54-6.15L14.54-11.81C14.54-13.09 13.88-13.85 12.70-13.85C11.53-13.85 10.86-13.09 10.86-11.81L10.86-5.33C10.86-4.07 11.53-3.30 12.70-3.30Z" fill="currentColor"/>
</svg>