<svg xmlns="http://www.w3.org/2000/svg" viewBox="0 0 24 24" width="24" height="24">
  
  <path transform="matrix(0.6643311275463865, 0, 0, 0.6643311275463865, 1.7041650447644985, 19.018295056442195)" d="M12.08-23.88L14.77-20.37C15.14-19.88 15.84-19.89 16.22-20.37L18.91-23.88C19.51-24.67 19.17-25.62 18.15-25.62L12.82-25.62C11.84-25.62 11.48-24.66 12.08-23.88ZM15.50-1.57C23.80-1.57 28.90-5.29 28.90-10.10C28.90-14.92 23.80-18.63 15.48-18.63C7.20-18.63 2.10-14.92 2.10-10.10C2.10-5.29 7.20-1.57 15.50-1.57ZM15.50-4.92C9.68-4.92 5.80-7.00 5.80-10.10C5.80-13.20 9.68-15.28 15.48-15.28C21.30-15.28 25.21-13.20 25.21-10.10C25.21-7.00 21.32-4.92 15.50-4.92ZM14.21-6.50L17.54-6.50C18.29-6.50 18.74-6.94 18.74-7.62C18.74-8.32 18.29-8.73 17.54-8.73L15.63-8.73L15.63-12.67C15.63-13.64 15.11-14.23 14.21-14.23C13.32-14.23 12.81-13.65 12.81-12.67L12.81-8.07C12.81-7.09 13.32-6.50 14.21-6.50ZM15.50 4.49C19.07 4.49 21.33 2.82 21.33-0.04L21.33-0.25C19.56 0.19 17.60 0.42 15.50 0.42C13.39 0.42 11.44 0.19 9.67-0.25L9.67-0.04C9.67 2.82 11.93 4.49 15.50 4.49Z" fill="currentColor"/>
</svg>