<svg xmlns="http://www.w3.org/2000/svg" viewBox="0 0 24 24" width="24" height="24">
  
  <path transform="matrix(0.6412120061224437, 0, 0, 0.6412120061224437, 1.4162447973813057, 18.18278477605233)" d="M19.61-21.74L17.19-24.89C16.84-25.36 16.18-25.35 15.83-24.89L13.39-21.73C12.84-21 13.16-20.11 14.11-20.11L18.90-20.11C19.82-20.11 20.14-21.01 19.61-21.74ZM30.91-8.46C30.91-14.53 27.14-19.72 21.83-21.84C22.07-20.89 21.83-19.91 21.25-19.20C25.37-17.36 28.25-13.24 28.25-8.46C28.25-1.98 22.99 3.29 16.50 3.29C10.02 3.29 4.76-1.98 4.76-8.46C4.76-13.24 7.63-17.36 11.74-19.20C11.16-19.91 10.92-20.88 11.17-21.86C5.86-19.72 2.10-14.52 2.10-8.46C2.10-0.50 8.55 5.95 16.50 5.95C24.46 5.95 30.91-0.50 30.91-8.46ZM6.84-8.46C6.84-3.14 11.18 1.21 16.50 1.21C21.83 1.21 26.17-3.14 26.17-8.46C26.17-13.79 21.83-18.13 16.50-18.13C11.18-18.13 6.84-13.79 6.84-8.46ZM9.88-8.46C9.88-12.12 12.84-15.08 16.50-15.08C20.16-15.08 23.13-12.12 23.13-8.46C23.13-4.79 20.16-1.83 16.50-1.83C12.84-1.83 9.88-4.79 9.88-8.46ZM15-4.27L18.48-4.27C18.96-4.27 19.37-4.65 19.37-5.16C19.37-5.65 18.96-6.04 18.48-6.04L16.11-6.04L16.11-11.58C16.11-12.22 15.63-12.71 15.01-12.71C14.38-12.71 13.91-12.21 13.91-11.58L13.91-5.43C13.91-4.70 14.29-4.27 15-4.27Z" fill="currentColor"/>
</svg>