<svg xmlns="http://www.w3.org/2000/svg" viewBox="0 0 24 24" width="24" height="24">
  
  <path transform="matrix(0.6994535519125683, 0, 0, 0.6994535519125683, -0.09016393442622972, 17.90983606557377)" d="M12.40 2.89L22.17 2.89C29.25 2.89 31.58 0.48 31.58-6.59L31.58-10.31C31.58-17.38 29.25-19.79 22.17-19.79L12.40-19.79C5.32-19.79 2.99-17.38 2.99-10.31L2.99-6.59C2.99 0.48 5.32 2.89 12.40 2.89ZM12.53-3.75C11.81-3.75 11.40-4.21 11.40-4.93L11.40-12.18C11.40-12.80 11.91-13.30 12.55-13.30C13.16-13.30 13.66-12.80 13.66-12.18L13.66-5.60L15.42-5.60C15.93-5.60 16.35-5.18 16.35-4.68C16.35-4.17 15.93-3.75 15.42-3.75ZM21.48-3.60C20.92-3.60 20.41-3.91 20.41-4.69L20.41-5.40L18.38-5.40C17.54-5.40 17.10-5.84 17.10-6.63C17.10-7.07 17.19-7.54 17.38-8.03L18.63-11.21C19.02-12.30 19.45-13.29 20.82-13.29C21.86-13.29 22.55-12.70 22.55-11.66L22.55-7.16L22.72-7.16C23.30-7.16 23.57-6.83 23.57-6.28C23.57-5.82 23.36-5.40 22.71-5.40L22.55-5.40L22.55-4.69C22.55-3.91 22.07-3.60 21.48-3.60ZM20.47-7.10L20.47-11.53L20.44-11.53L18.93-7.18L18.93-7.10Z" fill="currentColor"/>
</svg>