<svg xmlns="http://www.w3.org/2000/svg" viewBox="0 0 24 24" width="24" height="24">
  <title>lanyardcard.fill</title>
  <path transform="matrix(0.7653213751868461, 0, 0, 0.7653213751868461, 2.116591928251121, 18.466367713004484)" d="M2.99 0.23C2.99 3.04 4.57 4.62 7.36 4.62L18.47 4.62C21.26 4.62 22.84 3.04 22.84 0.23L22.84-17.14C22.84-19.93 21.26-21.52 18.47-21.52L7.36-21.52C4.57-21.52 2.99-19.93 2.99-17.14ZM10.24-17.02C9.76-17.02 9.35-17.41 9.35-17.89C9.35-18.38 9.75-18.79 10.24-18.79L15.59-18.79C16.08-18.79 16.48-18.38 16.48-17.89C16.48-17.41 16.07-17.02 15.59-17.02Z" fill="currentColor"/>
</svg>