<svg xmlns="http://www.w3.org/2000/svg" viewBox="0 0 24 24" width="24" height="24">
  <title>lanyardcard</title>
  <path transform="matrix(0.7653213751868461, 0, 0, 0.7653213751868461, 2.116591928251121, 18.466367713004484)" d="M2.99 0.23C2.99 3.04 4.57 4.62 7.36 4.62L18.47 4.62C21.26 4.62 22.84 3.04 22.84 0.23L22.84-17.14C22.84-19.93 21.26-21.52 18.47-21.52L7.36-21.52C4.57-21.52 2.99-19.93 2.99-17.14ZM6.61-0.25L6.61-16.65C6.61-17.47 6.98-17.89 7.86-17.89L17.95-17.89C18.83-17.89 19.21-17.47 19.21-16.65L19.21-0.25C19.21 0.57 18.83 1.00 17.95 1.00L7.86 1.00C6.98 1.00 6.61 0.57 6.61-0.25ZM10.30-15.22L15.53-15.22C16.00-15.22 16.39-15.62 16.39-16.10C16.39-16.57 16.01-16.98 15.53-16.98L10.30-16.98C9.82-16.98 9.43-16.57 9.43-16.10C9.43-15.62 9.83-15.22 10.30-15.22Z" fill="currentColor"/>
</svg>