<svg xmlns="http://www.w3.org/2000/svg" viewBox="0 0 24 24" width="24" height="24">
  
  <path transform="matrix(0.6160971457568967, 0, 0, 0.6160971457568967, 0.1598375088131334, 17.275030981858976)" d="M33.95-17.11C34.77-17.11 35.45-17.80 35.45-18.61C35.45-19.43 34.78-20.11 33.95-20.11L9.69-20.11C8.87-20.11 8.19-19.43 8.19-18.61C8.19-17.80 8.88-17.11 9.69-17.11L11.95-17.11C12.52-11.93 16.35-8.51 21.82-8.51C27.30-8.51 31.13-11.92 31.70-17.11ZM3.43-7.37C4.08-6.75 4.96-6.73 5.58-7.36L11.23-13.01C10.75-13.99 10.43-15.09 10.25-16.27L3.45-9.48C2.84-8.86 2.84-7.98 3.43-7.37ZM6.74-4.08C7.37-3.43 8.26-3.42 8.88-4.07L14.09-9.29C13.31-9.93 12.63-10.68 12.07-11.52L6.74-6.19C6.12-5.57 6.13-4.68 6.74-4.08ZM10.03-0.77C10.65-0.15 11.53-0.14 12.16-0.77L18.48-7.09C17.39-7.36 16.36-7.78 15.47-8.33L10.03-2.89C9.41-2.27 9.43-1.39 10.03-0.77ZM13.34 2.52C13.95 3.14 14.82 3.14 15.46 2.52L25.04-7.07C23.54-6.68 22.04-6.61 20.50-6.75L13.34 0.40C12.71 1.03 12.71 1.91 13.34 2.52Z" fill="currentColor"/>
</svg>