<svg xmlns="http://www.w3.org/2000/svg" viewBox="0 0 24 24" width="24" height="24">
  
  <path transform="matrix(0.6901199622590646, 0, 0, 0.6901199622590646, 2.7359482410028306, 17.705620703598868)" d="M2.99-17.33C2.99-12.77 9.28-9.84 9.28-3.60L9.28-2.04C9.28-1.30 9.73-0.86 10.46-0.86L16.37-0.86C17.12-0.86 17.57-1.30 17.57-2.04L17.57-3.60C17.57-9.87 23.86-12.68 23.86-17.33C23.86-20.81 20.03-22.76 13.42-22.76C6.82-22.76 2.99-20.81 2.99-17.33ZM5.94-17.33C5.94-18.69 8.82-19.80 13.42-19.80C18.01-19.80 20.91-18.69 20.91-17.33C20.91-17.23 20.89-17.11 20.87-16.99L5.98-16.99C5.95-17.11 5.94-17.23 5.94-17.33ZM12.22-4.25C12.22-8.26 9.22-11.81 7.37-14.43L19.48-14.43C17.61-11.81 14.61-8.27 14.61-4.27L14.61-3.30L12.22-3.30ZM10.63 2.47L16.22 2.47C16.76 2.47 17.19 2.02 17.19 1.51C17.19 1.00 16.76 0.55 16.22 0.55L10.63 0.55C10.08 0.55 9.66 1.00 9.66 1.51C9.66 2.02 10.08 2.47 10.63 2.47ZM13.42 6.22C15.14 6.22 16.42 5.27 16.58 3.87L10.27 3.87C10.42 5.27 11.68 6.22 13.42 6.22Z" fill="currentColor"/>
</svg>