<svg xmlns="http://www.w3.org/2000/svg" viewBox="0 0 24 24" width="24" height="24">
  <title>list.bullet.below.rectangle</title>
  <path transform="matrix(0.8465608465608465, 0, 0, 0.8465608465608465, -0.5297619047619047, 19.003968253968253)" d="M6.93-19.65C4.15-19.65 2.99-18.32 2.99-15.59L2.99-10.90C2.99-8.17 4.15-6.84 6.93-6.84L22.69-6.84C25.45-6.84 26.61-8.17 26.61-10.90L26.61-15.59C26.61-18.32 25.45-19.65 22.69-19.65ZM6.61-10.82L6.61-15.66C6.61-16.25 6.88-16.57 7.46-16.57L22.14-16.57C22.73-16.57 22.99-16.25 22.99-15.66L22.99-10.82C22.99-10.22 22.73-9.93 22.14-9.93L7.46-9.93C6.88-9.93 6.61-10.22 6.61-10.82ZM6.74-3.42C6.74-4.44 5.98-5.21 4.95-5.21C3.97-5.21 3.16-4.42 3.16-3.42C3.16-2.47 3.97-1.63 4.95-1.63C5.91-1.63 6.74-2.47 6.74-3.42ZM25.97-3.42C25.97-4.23 25.31-4.83 24.48-4.83L9.35-4.83C8.52-4.83 7.89-4.23 7.89-3.42C7.89-2.60 8.52-2.00 9.35-2.00L24.48-2.00C25.31-2.00 25.97-2.60 25.97-3.42ZM6.74 1.31C6.74 0.29 5.98-0.48 4.95-0.48C3.97-0.48 3.16 0.32 3.16 1.31C3.16 2.26 3.97 3.11 4.95 3.11C5.91 3.11 6.74 2.26 6.74 1.31ZM25.97 1.31C25.97 0.50 25.31-0.09 24.48-0.09L9.35-0.09C8.52-0.09 7.89 0.50 7.89 1.31C7.89 2.12 8.52 2.73 9.35 2.73L24.48 2.73C25.31 2.73 25.97 2.12 25.97 1.31Z" fill="currentColor"/>
</svg>