<svg xmlns="http://www.w3.org/2000/svg" viewBox="0 0 24 24" width="24" height="24">
  <title>list.dash.header.rectangle</title>
  <path transform="matrix(0.7105190119344991, 0, 0, 0.7105190119344991, -0.1232306411323898, 18.003330557868445)" d="M7.37 2.98L26.75 2.98C29.55 2.98 31.14 1.39 31.14-1.39L31.14-15.50C31.14-18.29 29.55-19.88 26.75-19.88L7.37-19.88C4.58-19.88 2.99-18.29 2.99-15.50L2.99-1.39C2.99 1.39 4.58 2.98 7.37 2.98ZM7.86-0.64C7.03-0.64 6.61-1.02 6.61-1.91L6.61-14.99C6.61-15.88 7.03-16.24 7.86-16.24L26.27-16.24C27.09-16.24 27.52-15.88 27.52-14.99L27.52-1.91C27.52-1.02 27.09-0.64 26.27-0.64ZM10.13-12.11L11.21-12.11C11.73-12.11 12.18-12.53 12.18-13.05C12.18-13.59 11.73-14.02 11.21-14.02L10.13-14.02C9.61-14.02 9.18-13.59 9.18-13.05C9.18-12.54 9.61-12.11 10.13-12.11ZM14.26-12.19L24.06-12.19C24.54-12.19 24.93-12.57 24.93-13.05C24.93-13.54 24.54-13.91 24.06-13.91L14.26-13.91C13.79-13.91 13.41-13.55 13.41-13.05C13.41-12.57 13.78-12.19 14.26-12.19ZM10.13-8.46L11.21-8.46C11.73-8.46 12.18-8.88 12.18-9.41C12.18-9.94 11.73-10.37 11.21-10.37L10.13-10.37C9.61-10.37 9.18-9.94 9.18-9.41C9.18-8.88 9.61-8.46 10.13-8.46ZM14.26-8.55L24.06-8.55C24.54-8.55 24.93-8.93 24.93-9.41C24.93-9.89 24.54-10.28 24.06-10.28L14.26-10.28C13.79-10.28 13.41-9.90 13.41-9.41C13.41-8.94 13.78-8.55 14.26-8.55Z" fill="currentColor"/>
</svg>