<svg xmlns="http://www.w3.org/2000/svg" viewBox="0 0 24 24" width="24" height="24">
  <title>location</title>
  <path transform="matrix(0.8123483029578932, 0, 0, 0.8123483029578932, 0.31076125289419876, 18.717160124394166)" d="M3.75-11.61C1.14-10.43 1.73-6.73 4.54-6.73L12.77-6.71C12.82-6.71 12.84-6.69 12.84-6.64L12.86 1.57C12.86 4.39 16.56 4.96 17.77 2.31L26.31-16.45C27.62-19.35 25.44-21.48 22.55-20.16ZM9.43-10.20C9.35-10.20 9.34-10.24 9.42-10.28L22.01-15.97C22.09-16.02 22.16-16.00 22.10-15.87L16.39-3.30C16.36-3.25 16.31-3.26 16.31-3.32L16.35-8.37C16.36-9.76 15.88-10.24 14.48-10.23Z" fill="currentColor"/>
</svg>