<svg xmlns="http://www.w3.org/2000/svg" viewBox="0 0 24 24" width="24" height="24">
  <title>location.circle</title>
  <path transform="matrix(0.7934294126762746, 0, 0, 0.7934294126762746, 0.33565783356578316, 18.713156671315666)" d="M14.70 4.14C21.66 4.14 27.30-1.50 27.30-8.46C27.30-15.42 21.66-21.06 14.70-21.06C7.73-21.06 2.10-15.42 2.10-8.46C2.10-1.50 7.73 4.14 14.70 4.14ZM14.70 0.48C9.75 0.48 5.75-3.52 5.75-8.46C5.75-13.41 9.75-17.40 14.70-17.40C19.64-17.40 23.64-13.41 23.64-8.46C23.64-3.52 19.64 0.48 14.70 0.48ZM9.18-7.56L13.11-7.56C13.36-7.56 13.54-7.38 13.54-7.14L13.54-3.22C13.54-2.07 14.95-1.61 15.53-2.89L19.73-12.09C20.24-13.22 19.17-14.27 18.06-13.77L8.86-9.56C7.56-8.96 8.04-7.56 9.18-7.56Z" fill="currentColor"/>
</svg>