<svg xmlns="http://www.w3.org/2000/svg" viewBox="0 0 24 24" width="24" height="24">
  <title>lock.square.stack.fill</title>
  <path transform="matrix(0.6772486772486772, 0, 0, 0.6772486772486772, 2.5555555555555562, 17.72222222222222)" d="M7.62-21.27L19.95-21.27C19.84-22.51 19.03-23.21 17.73-23.21L9.83-23.21C8.53-23.21 7.72-22.51 7.62-21.27ZM5.68-17.36L21.88-17.36C21.74-18.64 21-19.44 19.48-19.44L8.09-19.44C6.56-19.44 5.82-18.64 5.68-17.36ZM7.37 6.32L20.64 6.32C23.32 6.32 24.90 4.73 24.90 1.95L24.90-11.24C24.90-14.02 23.32-15.60 20.52-15.60L7.37-15.60C4.58-15.60 2.99-14.03 2.99-11.24L2.99 1.95C2.99 4.73 4.58 6.32 7.37 6.32ZM9.60 0L9.60-4.52C9.60-5.31 9.90-5.77 10.50-5.91L10.50-7.09C10.50-9.39 11.89-10.92 13.96-10.92C16.02-10.92 17.43-9.39 17.43-7.09L17.43-5.89C18.01-5.77 18.32-5.31 18.32-4.52L18.32 0C18.32 1.02 17.86 1.46 16.93 1.46L10.98 1.46C10.05 1.46 9.60 1.02 9.60 0ZM12.47-5.96L15.45-5.96L15.45-7.17C15.45-8.29 14.85-8.99 13.95-8.99C13.04-8.99 12.47-8.27 12.47-7.17Z" fill="currentColor"/>
</svg>