<svg xmlns="http://www.w3.org/2000/svg" viewBox="0 0 24 24" width="24" height="24">
  <title>lock.heart</title>
  <path transform="matrix(0.800875958079149, 0, 0, 0.800875958079149, -0.3932426091037069, 18.489910839981228)" d="M2.99-11.68C2.99-6.63 7.24-1.58 13.61 2.64C14.30 3.09 15 3.52 15.47 3.52C15.95 3.52 16.65 3.09 17.33 2.64C23.71-1.58 27.96-6.63 27.96-11.68C27.96-16.52 24.57-19.72 20.61-19.72C18.20-19.72 16.49-18.71 15.47-17.29C14.46-18.70 12.75-19.72 10.34-19.72C6.38-19.72 2.99-16.52 2.99-11.68ZM6.88-11.73C6.88-14.24 8.64-15.98 10.95-15.98C12.77-15.98 13.73-14.99 14.44-14.04C14.78-13.56 15.07-13.32 15.47-13.32C15.88-13.32 16.15-13.56 16.50-14.04C17.25-14.99 18.18-15.98 20.00-15.98C22.31-15.98 24.06-14.24 24.06-11.73C24.06-8.26 20.66-4.07 15.63-0.73C15.56-0.68 15.52-0.64 15.47-0.64C15.43-0.64 15.39-0.68 15.32-0.73C10.29-4.07 6.88-8.26 6.88-11.73ZM12.41-4.79C12.41-4.10 12.74-3.77 13.39-3.77L17.59-3.77C18.23-3.77 18.56-4.10 18.56-4.79L18.56-7.99C18.56-8.54 18.34-8.87 17.93-8.95L17.93-9.81C17.93-11.41 16.95-12.50 15.49-12.50C14.04-12.50 13.05-11.41 13.05-9.81L13.05-8.96C12.63-8.87 12.41-8.54 12.41-7.99ZM14.44-9L14.44-9.87C14.44-10.64 14.85-11.14 15.49-11.14C16.14-11.14 16.55-10.65 16.55-9.87L16.55-9Z" fill="currentColor"/>
</svg>