<svg xmlns="http://www.w3.org/2000/svg" viewBox="0 0 24 24" width="24" height="24">
  <title>lock.shield.fill</title>
  <path transform="matrix(0.8353728177516724, 0, 0, 0.8353728177516724, 0.9720998531571228, 18.916299559471366)" d="M13.21 3.69C13.46 3.69 13.82 3.57 14.12 3.42C20.99 0.07 23.41-1.97 23.41-6.16L23.41-14.52C23.41-16.38 22.86-17.21 21.18-17.92C20.17-18.34 16.09-19.68 15.18-19.96C14.57-20.13 13.79-20.25 13.21-20.25C12.61-20.25 11.85-20.12 11.24-19.96C10.31-19.68 6.25-18.34 5.23-17.92C3.55-17.21 2.99-16.38 2.99-14.52L2.99-6.16C2.99-1.97 5.45 0.01 12.28 3.42C12.59 3.57 12.94 3.69 13.21 3.69ZM8.86-4.41L8.86-8.94C8.86-9.73 9.15-10.17 9.75-10.31L9.75-11.51C9.75-13.80 11.16-15.34 13.21-15.34C15.28-15.34 16.68-13.80 16.68-11.51L16.68-10.31C17.26-10.17 17.57-9.73 17.57-8.94L17.57-4.41C17.57-3.40 17.11-2.94 16.20-2.94L10.24-2.94C9.30-2.94 8.86-3.40 8.86-4.41ZM11.73-10.38L14.70-10.38L14.70-11.59C14.70-12.70 14.11-13.41 13.20-13.41C12.30-13.41 11.73-12.69 11.73-11.59Z" fill="currentColor"/>
</svg>