<svg xmlns="http://www.w3.org/2000/svg" viewBox="0 0 24 24" width="24" height="24">
  <title>lt.circle.fill</title>
  <path transform="matrix(0.7934294126762746, 0, 0, 0.7934294126762746, 0.33565783356578316, 18.713156671315666)" d="M14.70 4.14C21.66 4.14 27.30-1.50 27.30-8.46C27.30-15.42 21.66-21.06 14.70-21.06C7.75-21.06 2.10-15.42 2.10-8.46C2.10-1.50 7.75 4.14 14.70 4.14ZM10.79-3.94C10.10-3.94 9.73-4.38 9.73-5.07L9.73-12.02C9.73-12.62 10.21-13.10 10.82-13.10C11.41-13.10 11.88-12.62 11.88-12.02L11.88-5.71L13.58-5.71C14.06-5.71 14.47-5.31 14.47-4.83C14.47-4.35 14.06-3.94 13.58-3.94ZM17.19-3.81C16.59-3.81 16.10-4.28 16.10-4.90L16.10-11.20L15.19-11.20C14.70-11.20 14.31-11.59 14.31-12.09C14.31-12.55 14.70-12.96 15.19-12.96L19.18-12.96C19.65-12.96 20.05-12.55 20.05-12.09C20.05-11.59 19.65-11.20 19.18-11.20L18.27-11.20L18.27-4.90C18.27-4.28 17.79-3.81 17.19-3.81Z" fill="currentColor"/>
</svg>