<svg xmlns="http://www.w3.org/2000/svg" viewBox="0 0 24 24" width="24" height="24">
  
  <path transform="matrix(0.5885057471264368, 0, 0, 0.5885057471264368, 0.24137931034482762, 16.982758620689655)" d="M7.36-0.53L32.59-0.53C35.39-0.53 36.97-2.11 36.97-4.89L36.97-12.04C36.97-14.82 35.39-16.41 32.59-16.41L7.36-16.41C4.57-16.41 2.99-14.82 2.99-12.04L2.99-4.89C2.99-2.11 4.57-0.53 7.36-0.53ZM7.85-4.15C7.03-4.15 6.61-4.52 6.61-5.39L6.61-11.53C6.61-12.41 7.03-12.77 7.85-12.77L32.11-12.77C32.93-12.77 33.34-12.41 33.34-11.53L33.34-5.39C33.34-4.52 32.93-4.15 32.11-4.15ZM10.86-8.95C10.86-9.48 10.45-9.89 9.93-9.89C9.41-9.89 8.99-9.48 8.99-8.95L8.99-7.28C8.99-6.75 9.41-6.34 9.93-6.34C10.45-6.34 10.86-6.75 10.86-7.28ZM14.13-8.95C14.13-9.48 13.72-9.89 13.20-9.89C12.68-9.89 12.27-9.48 12.27-8.95L12.27-7.28C12.27-6.75 12.68-6.34 13.20-6.34C13.72-6.34 14.13-6.75 14.13-7.28ZM29.51-6.67C30.32-6.67 30.96-7.32 30.96-8.12C30.96-8.93 30.32-9.57 29.51-9.57C28.71-9.57 28.07-8.93 28.07-8.12C28.07-7.32 28.71-6.67 29.51-6.67ZM25.79-7.02C26.39-7.02 26.88-7.52 26.88-8.12C26.88-8.73 26.39-9.22 25.79-9.22C25.18-9.22 24.69-8.73 24.69-8.12C24.69-7.52 25.18-7.02 25.79-7.02Z" fill="currentColor"/>
</svg>