<svg xmlns="http://www.w3.org/2000/svg" viewBox="0 0 24 24" width="24" height="24">
  
  <path transform="matrix(0.6865111289890051, 0, 0, 0.6865111289890051, -0.05148833467417546, 17.81255028157683)" d="M4.43 5.68L30.67 5.68C31.44 5.68 32.12 5.05 32.12 4.24C32.12 3.46 31.44 2.80 30.67 2.80L30.08 2.80L30.08 1.70C30.08 1.05 29.67 0.66 29.04 0.66L28.58 0.66L28.58-13.15L29.52-13.15C30.48-13.15 31.04-13.86 31.04-14.58C31.04-15.11 30.75-15.59 30.14-15.95L19.45-22.11C18.91-22.42 18.28-22.62 17.70-22.62C17.11-22.62 16.48-22.42 15.94-22.11L5.25-15.95C4.64-15.59 4.35-15.11 4.35-14.58C4.35-13.86 4.91-13.15 5.88-13.15L6.82-13.15L6.82 0.66L6.36 0.66C5.72 0.66 5.32 1.05 5.32 1.70L5.32 2.80L4.43 2.80C3.66 2.80 2.99 3.46 2.99 4.24C2.99 5.04 3.66 5.68 4.43 5.68ZM17.98-2.84C17.40-2.84 17.10-3.19 17.10-3.76L17.10-9.97C17.10-10.84 17.59-11.31 18.46-11.31C19.15-11.31 19.63-11.03 19.82-10.25L20.99-5.64L21.02-5.64L22.20-10.25C22.37-10.99 22.83-11.31 23.55-11.31C24.41-11.31 24.91-10.88 24.91-9.97L24.91-3.76C24.91-3.19 24.62-2.84 24.05-2.84C23.48-2.84 23.17-3.19 23.17-3.76L23.17-8.33L23.09-8.33L21.88-3.76C21.75-3.27 21.49-2.99 21.02-2.99C20.53-2.99 20.26-3.30 20.14-3.75L18.94-8.33L18.84-8.33L18.84-3.76C18.84-3.19 18.54-2.84 17.98-2.84ZM11.50-2.84C10.84-2.84 10.48-3.23 10.48-3.88L10.48-10.13C10.48-10.78 10.85-11.18 11.50-11.18L13.35-11.18C15.11-11.18 16.23-10.34 16.23-8.51C16.23-7.57 15.93-6.82 15.13-6.26L15.90-4.58C16.03-4.30 16.11-4.07 16.11-3.81C16.14-3.19 15.70-2.84 15.18-2.84C14.61-2.84 14.31-3.19 14.10-3.73L13.21-5.88L12.49-5.88L12.49-3.88C12.49-3.23 12.15-2.84 11.50-2.84ZM12.49-7.27L13.16-7.27C13.88-7.27 14.17-7.83 14.17-8.46C14.17-9.19 13.80-9.66 13.17-9.66L12.49-9.66Z" fill="currentColor"/>
</svg>