<svg xmlns="http://www.w3.org/2000/svg" viewBox="0 0 24 24" width="24" height="24">
  
  <path transform="matrix(0.7482098494812217, 0, 0, 0.7482098494812217, 0.43051293292415593, 18.33494081543183)" d="M15.46 4.90C22.83 4.90 28.83-1.09 28.83-8.46C28.83-15.83 22.83-21.83 15.46-21.83C8.10-21.83 2.10-15.83 2.10-8.46C2.10-1.09 8.10 4.90 15.46 4.90ZM15.46 0.13C10.71 0.13 6.87-3.71 6.87-8.46C6.87-13.21 10.71-17.05 15.46-17.05C20.21-17.05 24.06-13.21 24.06-8.46C24.06-3.71 20.21 0.13 15.46 0.13ZM12.14-3.42C12.82-3.42 13.34-3.79 13.34-4.62L13.34-7.44C13.34-8.86 13.75-10.00 14.92-10.27L14.92-4.05C14.92-3.68 15.13-3.46 15.46-3.46C15.80-3.46 16.01-3.68 16.01-4.05L16.01-10.27C17.19-10.01 17.59-8.86 17.59-7.44L17.59-4.62C17.59-3.87 18.05-3.42 18.80-3.42C19.51-3.42 20.00-3.83 20.00-4.62L20.00-7.37C20.00-10.15 18.59-12.12 16.01-12.36L16.01-13.50C16.01-13.86 15.80-14.10 15.46-14.10C15.13-14.10 14.92-13.86 14.92-13.50L14.92-12.35C12.34-12.12 10.93-10.14 10.93-7.37L10.93-4.62C10.93-3.87 11.39-3.42 12.14-3.42Z" fill="currentColor"/>
</svg>