<svg xmlns="http://www.w3.org/2000/svg" viewBox="0 0 24 24" width="24" height="24">
  
  <path transform="matrix(0.7934294126762746, 0, 0, 0.7934294126762746, 0.33565783356578316, 18.713156671315666)" d="M14.70 4.14C21.66 4.14 27.30-1.50 27.30-8.46C27.30-15.42 21.66-21.06 14.70-21.06C7.73-21.06 2.10-15.42 2.10-8.46C2.10-1.50 7.73 4.14 14.70 4.14ZM14.70 0.48C9.75 0.48 5.75-3.52 5.75-8.46C5.75-13.41 9.75-17.40 14.70-17.40C19.64-17.40 23.64-13.41 23.64-8.46C23.64-3.52 19.64 0.48 14.70 0.48ZM12.36-12.75C12.36-11.70 13.05-10.79 14.00-10.46L14.00-7.23C14.00-6.14 14.45-5.16 14.75-5.16C15.06-5.16 15.49-6.14 15.49-7.23L15.49-10.46C16.45-10.78 17.16-11.70 17.16-12.75C17.16-14.07 16.09-15.15 14.75-15.15C13.43-15.15 12.36-14.07 12.36-12.75ZM14.10-12.61C13.66-12.61 13.29-12.98 13.29-13.42C13.29-13.86 13.66-14.23 14.10-14.23C14.53-14.23 14.91-13.86 14.91-13.42C14.91-12.98 14.53-12.61 14.10-12.61ZM14.74-2.73C18.25-2.73 20.54-3.97 20.54-5.58C20.54-7.08 18.57-8.18 16.43-8.36L16.43-6.95C17.72-6.83 18.96-6.29 18.96-5.63C18.96-4.77 17.21-4.16 14.74-4.16C12.27-4.16 10.52-4.77 10.52-5.63C10.52-6.29 11.77-6.83 13.05-6.95L13.05-8.36C10.91-8.18 8.94-7.08 8.94-5.58C8.94-3.97 11.25-2.73 14.74-2.73Z" fill="currentColor"/>
</svg>