<svg xmlns="http://www.w3.org/2000/svg" viewBox="0 0 24 24" width="24" height="24">
  
  <path transform="matrix(0.7934294126762746, 0, 0, 0.7934294126762746, 0.33565783356578316, 18.713156671315666)" d="M14.70 4.14C21.66 4.14 27.30-1.50 27.30-8.46C27.30-15.42 21.66-21.06 14.70-21.06C7.73-21.06 2.10-15.42 2.10-8.46C2.10-1.50 7.73 4.14 14.70 4.14ZM14.70 0.48C9.75 0.48 5.75-3.52 5.75-8.46C5.75-13.41 9.75-17.40 14.70-17.40C19.64-17.40 23.64-13.41 23.64-8.46C23.64-3.52 19.64 0.48 14.70 0.48ZM11.61-12.13C11.61-10.84 12.39-9.74 13.50-9.28L13.50-4.11C13.50-2.94 14.06-1.41 14.70-1.41C15.32-1.41 15.88-2.92 15.88-4.11L15.88-9.27C17.00-9.73 17.78-10.84 17.78-12.13C17.78-13.84 16.38-15.22 14.70-15.21C13.00-15.20 11.61-13.82 11.61-12.13ZM13.04-12.98C13.04-13.52 13.50-13.97 14.03-13.97C14.57-13.97 15.01-13.52 15.01-12.98C15.01-12.45 14.57-11.99 14.03-11.99C13.50-11.99 13.04-12.45 13.04-12.98Z" fill="currentColor"/>
</svg>