<svg xmlns="http://www.w3.org/2000/svg" viewBox="0 0 24 24" width="24" height="24">
  
  <path transform="matrix(0.7934294126762746, 0, 0, 0.7934294126762746, 0.33565783356578316, 18.70385867038587)" d="M14.70 4.15C21.66 4.15 27.30-1.49 27.30-8.45C27.30-15.41 21.66-21.05 14.70-21.05C7.75-21.05 2.10-15.41 2.10-8.45C2.10-1.49 7.75 4.15 14.70 4.15ZM12.21-12.98C12.21-14.39 13.34-15.54 14.77-15.54C16.18-15.54 17.32-14.39 17.32-12.98C17.32-11.86 16.57-10.89 15.55-10.55L15.55-7.11C15.55-5.95 15.09-4.90 14.77-4.90C14.44-4.90 13.97-5.96 13.97-7.11L13.97-10.55C12.94-10.90 12.21-11.86 12.21-12.98ZM14.06-12.83C14.52-12.83 14.92-13.22 14.92-13.70C14.92-14.17 14.52-14.55 14.06-14.55C13.59-14.55 13.20-14.17 13.20-13.70C13.20-13.22 13.59-12.83 14.06-12.83ZM14.75-2.31C11.03-2.31 8.55-3.62 8.55-5.36C8.55-6.95 10.65-8.12 12.94-8.32L12.94-6.80C11.57-6.68 10.25-6.12 10.25-5.40C10.25-4.49 12.11-3.83 14.75-3.83C17.38-3.83 19.23-4.49 19.23-5.40C19.23-6.12 17.93-6.68 16.55-6.80L16.55-8.32C18.83-8.12 20.94-6.95 20.94-5.36C20.94-3.62 18.47-2.31 14.75-2.31Z" fill="currentColor"/>
</svg>