<svg xmlns="http://www.w3.org/2000/svg" viewBox="0 0 24 24" width="24" height="24">
  
  <path transform="matrix(0.5836753305973552, 0, 0, 0.5836753305973552, 0.2558139534883721, 16.948700410396718)" d="M7.82-1.85L25.37-1.85C28.97-1.85 30.19-3.53 30.19-8.47C30.19-13.43 28.97-15.11 25.37-15.11L7.82-15.11C4.21-15.11 2.99-13.43 2.99-8.47C2.99-3.53 4.21-1.85 7.82-1.85ZM31.92-4.83L34.45-4.83C36.25-4.83 37.25-5.79 37.25-7.50L37.25-9.47C37.25-11.18 36.25-12.14 34.45-12.14L31.92-12.14C32.14-11.10 32.25-9.88 32.25-8.47C32.25-7.09 32.14-5.87 31.92-4.83ZM7.82-9.11C7.02-9.11 6.39-9.74 6.39-10.54C6.39-11.32 7.02-11.95 7.82-11.95C8.61-11.95 9.25-11.32 9.25-10.54C9.25-9.74 8.61-9.11 7.82-9.11Z" fill="currentColor"/>
</svg>