<svg xmlns="http://www.w3.org/2000/svg" viewBox="0 0 24 24" width="24" height="24">
  <title>megaphone.fill</title>
  <path transform="matrix(0.7020430549842315, 0, 0, 0.7020430549842315, -0.09790209790209792, 17.93582887700535)" d="M28.55 2.41C30.20 2.41 31.48 1.11 31.48-0.54L31.48-18.82C31.48-20.47 30.20-21.77 28.55-21.77C26.89-21.77 25.61-20.47 25.61-18.82L25.61-0.54C25.61 1.11 26.89 2.41 28.55 2.41ZM12.26-3.63C15.80-3.19 20.02-2.05 23.78-0.16C23.77-0.38 23.75-0.57 23.75-0.79L23.75-18.54C23.75-18.71 23.77-18.89 23.77-19.07C20.23-17.26 15.54-15.97 12.26-15.61ZM8.38-3.64L10.31-3.64L10.31-15.61L8.38-15.61C4.91-15.61 2.99-13.73 2.99-10.39L2.99-8.85C2.99-5.51 4.91-3.64 8.38-3.64ZM13.48 4.86C15.19 4.86 16.51 3.41 15.97 1.44L15.28-1.16C13.70-1.54 11.75-1.76 8.61-1.78C8.44-1.78 8.23-1.79 8.00-1.79L10.31 2.63C11.06 4.05 11.84 4.86 13.48 4.86Z" fill="currentColor"/>
</svg>