<svg xmlns="http://www.w3.org/2000/svg" viewBox="0 0 24 24" width="24" height="24">
  
  <path transform="matrix(0.8628244017526121, 0, 0, 0.8628244017526121, -0.578361981799798, 19.30030333670374)" d="M8.03 2.66C8.66 2.66 9.02 2.43 9.48 1.76L16.05-8.07L22.22-17.21C22.44-17.55 22.58-17.88 22.58-18.23C22.58-19.02 21.95-19.58 21.15-19.58C20.41-19.58 20.06-19.32 19.59-18.64L13.25-9.13L6.88 0.28C6.67 0.61 6.53 0.89 6.53 1.35C6.53 2.16 7.25 2.66 8.03 2.66ZM4.35-12.28L10.79-12.28C11.54-12.28 12.15-12.89 12.15-13.64C12.15-14.39 11.54-15 10.79-15L4.35-15C3.60-15 2.99-14.39 2.99-13.64C2.99-12.89 3.60-12.28 4.35-12.28ZM17.00-2.58C17.00-1.83 17.61-1.22 18.36-1.22L20.23-1.22L20.23 0.64C20.23 1.39 20.84 2.00 21.59 2.00C22.34 2.00 22.93 1.39 22.93 0.64L22.93-1.22L24.81-1.22C25.56-1.22 26.17-1.83 26.17-2.58C26.17-3.33 25.56-3.94 24.81-3.94L22.93-3.94L22.93-5.80C22.93-6.55 22.32-7.16 21.59-7.15C20.82-7.15 20.23-6.55 20.23-5.80L20.23-3.94L18.36-3.94C17.61-3.94 17.00-3.33 17.00-2.58Z" fill="currentColor"/>
</svg>