<svg xmlns="http://www.w3.org/2000/svg" viewBox="0 0 24 24" width="24" height="24">
  <title>moon.zzz.fill</title>
  <path transform="matrix(0.6799468791500664, 0, 0, 0.6799468791500664, 1.5617529880478096, 18.286852589641434)" d="M21.60-18.50L19.16-18.50L19.16-18.56L22.00-22.02C22.30-22.39 22.42-22.63 22.42-23.00C22.42-23.57 22.01-23.95 21.41-23.95L17.41-23.95C16.79-23.95 16.41-23.60 16.41-23.05C16.41-22.50 16.82-22.15 17.41-22.15L19.77-22.15L19.77-22.09L16.96-18.66C16.65-18.29 16.55-18.02 16.55-17.66C16.55-17.11 16.96-16.72 17.53-16.72L21.60-16.72C22.21-16.72 22.61-17.06 22.61-17.61C22.61-18.16 22.22-18.50 21.60-18.50ZM27.54-13.69L26.11-13.69L26.11-13.75L27.89-15.82C28.20-16.15 28.31-16.42 28.31-16.78C28.31-17.32 27.91-17.67 27.36-17.67L24.54-17.67C23.95-17.67 23.59-17.38 23.59-16.88C23.59-16.37 23.96-16.07 24.54-16.07L25.90-16.07L25.90-16.01L24.18-13.99C23.86-13.65 23.72-13.34 23.72-12.97C23.72-12.45 24.11-12.09 24.66-12.09L27.54-12.09C28.11-12.09 28.50-12.39 28.50-12.89C28.50-13.38 28.13-13.69 27.54-13.69ZM14.00 5.46C18.74 5.46 22.90 2.65 24.76-1.50C25.46-3.07 24.34-3.91 23.12-3.35C22.08-2.88 20.64-2.57 19.43-2.57C13.57-2.57 10.27-5.87 10.27-11.73C10.27-12.93 10.59-14.37 11.07-15.45C11.72-16.82 10.68-17.81 9.21-17.17C5.09-15.34 2.20-11.18 2.20-6.33C2.20 0.19 7.50 5.46 14.00 5.46ZM21.95-9.50L20.71-9.50L20.71-9.56L22.27-11.36C22.54-11.65 22.64-11.89 22.64-12.22C22.64-12.70 22.29-13.03 21.79-13.03L19.09-13.03C18.56-13.03 18.25-12.74 18.25-12.26C18.25-11.80 18.59-11.51 19.09-11.51L20.29-11.51L20.29-11.45L18.79-9.71C18.47-9.38 18.36-9.13 18.36-8.78C18.35-8.32 18.69-7.99 19.20-7.99L21.95-7.99C22.46-7.99 22.80-8.29 22.80-8.75C22.80-9.22 22.49-9.50 21.95-9.50Z" fill="currentColor"/>
</svg>