<svg xmlns="http://www.w3.org/2000/svg" viewBox="0 0 24 24" width="24" height="24">
  <title>mount.fill</title>
  <path transform="matrix(0.6687565308254964, 0, 0, 0.6687565308254964, 2.015673981191222, 17.66614420062696)" d="M3.30-14.88C3.30-13.79 4.07-12.79 5.47-12.79L24.38-12.79C25.78-12.79 26.54-13.79 26.54-14.88C26.54-15.68 26.19-16.52 25.38-17.06L17.43-22.58C16.59-23.16 15.76-23.43 14.92-23.43C14.09-23.43 13.25-23.16 12.42-22.58L4.46-17.06C3.66-16.52 3.30-15.68 3.30-14.88ZM2.99-8.47C2.99-7.46 3.82-6.57 4.85-6.57L25.02-6.57C26.06-6.57 26.87-7.44 26.87-8.47C26.87-9.53 26.07-10.37 25.02-10.37L4.85-10.37C3.81-10.37 2.99-9.52 2.99-8.47ZM3.29-2.06C3.29-1.27 3.64-0.42 4.45 0.12L12.41 5.64C13.24 6.20 14.07 6.48 14.92 6.48C15.75 6.48 16.59 6.20 17.43 5.64L25.37 0.12C26.18-0.42 26.54-1.27 26.54-2.06C26.54-3.15 25.77-4.16 24.36-4.16L5.46-4.16C4.07-4.16 3.29-3.15 3.29-2.06Z" fill="currentColor"/>
</svg>