<svg xmlns="http://www.w3.org/2000/svg" viewBox="0 0 24 24" width="24" height="24">
  
  <path transform="matrix(0.8819982773471146, 0, 0, 0.8819982773471146, -0.625322997416021, 19.478036175710596)" d="M9.52 2.86L19.11 2.86C21.16 2.86 22.80 2.24 23.91 1.14C25.03 0.02 25.64-1.61 25.64-3.66L25.64-13.29C25.64-15.34 25.03-16.97 23.91-18.08C22.79-19.20 21.16-19.82 19.11-19.82L9.52-19.82C7.46-19.82 5.82-19.20 4.72-18.08C3.60-16.98 2.99-15.34 2.99-13.29L2.99-3.66C2.99-1.61 3.60 0.02 4.72 1.14C5.82 2.25 7.46 2.86 9.52 2.86ZM9.81-0.76C8.64-0.76 7.84-0.97 7.34-1.48C6.82-1.98 6.61-2.78 6.61-3.95L6.61-13.00C6.61-14.18 6.82-14.96 7.34-15.47C7.83-15.97 8.64-16.20 9.81-16.20L18.82-16.20C19.98-16.20 20.79-15.97 21.29-15.47C21.81-14.96 22.02-14.18 22.02-13.00L22.02-3.95C22.02-2.78 21.81-1.98 21.29-1.48C20.80-0.98 19.98-0.76 18.82-0.76ZM14.32-2.60C17.57-2.60 20.19-5.23 20.19-8.47C20.19-11.72 17.57-14.34 14.32-14.34C11.07-14.34 8.45-11.72 8.45-8.47C8.45-5.23 11.07-2.60 14.32-2.60ZM14.32-11.78C16.15-11.78 17.63-10.30 17.63-8.47C17.63-8.02 17.53-7.57 17.37-7.17L13.02-11.51C13.42-11.68 13.86-11.78 14.32-11.78ZM14.32-5.17C12.49-5.17 11.03-6.64 11.03-8.47C11.03-8.94 11.12-9.40 11.30-9.80L15.66-5.45C15.25-5.27 14.80-5.17 14.32-5.17Z" fill="currentColor"/>
</svg>