<svg xmlns="http://www.w3.org/2000/svg" viewBox="0 0 24 24" width="24" height="24">
  
  <path transform="matrix(0.7105190119344991, 0, 0, 0.7105190119344991, -0.1232306411323898, 18.003330557868445)" d="M7.37 2.98L26.75 2.98C29.55 2.98 31.14 1.39 31.14-1.39L31.14-15.50C31.14-18.29 29.55-19.88 26.75-19.88L7.37-19.88C4.58-19.88 2.99-18.29 2.99-15.50L2.99-1.39C2.99 1.39 4.58 2.98 7.37 2.98ZM10.18-3.93C9.43-3.93 8.98-4.39 8.98-5.13L8.98-10.56L8.92-10.56L7.99-9.96C7.77-9.82 7.62-9.80 7.45-9.80C6.95-9.80 6.59-10.16 6.59-10.63C6.59-10.98 6.75-11.25 7.08-11.46L8.54-12.45C9.13-12.82 9.42-12.98 10.00-12.98C10.85-12.98 11.37-12.52 11.37-11.74L11.37-5.13C11.37-4.38 10.91-3.93 10.18-3.93ZM23.75-3.91C22.18-3.91 20.93-4.56 20.52-5.58C20.45-5.79 20.41-5.94 20.41-6.13C20.41-6.70 20.84-7.13 21.45-7.13C21.93-7.13 22.20-6.96 22.50-6.55C22.71-6.13 23.17-5.82 23.80-5.82C24.55-5.82 25.04-6.20 25.04-6.77C25.04-7.35 24.60-7.68 23.80-7.68L23.41-7.68C22.89-7.68 22.50-8.04 22.50-8.54C22.50-9.06 22.89-9.42 23.41-9.42L23.79-9.42C24.49-9.42 24.91-9.75 24.91-10.28C24.91-10.79 24.49-11.12 23.82-11.12C23.21-11.12 22.77-10.80 22.55-10.34C22.30-9.95 22.00-9.79 21.52-9.79C20.93-9.79 20.52-10.18 20.52-10.71C20.52-10.92 20.57-11.11 20.65-11.31C21.07-12.34 22.41-12.97 23.82-12.97C25.84-12.97 27.16-12 27.16-10.55C27.16-9.50 26.40-8.67 25.52-8.63L25.52-8.60C26.63-8.57 27.46-7.76 27.46-6.61C27.46-4.97 25.99-3.91 23.75-3.91ZM13.76-4.10C13.11-4.09 12.69-4.49 12.69-5.11C12.69-5.50 12.89-5.86 13.23-6.16L16.11-8.79C16.65-9.29 17.00-9.73 17.00-10.21C17.00-10.71 16.59-11.07 15.95-11.07C15.33-11.07 14.95-10.73 14.77-10.25C14.59-9.83 14.26-9.61 13.73-9.61C13.15-9.61 12.74-10.01 12.74-10.57C12.74-10.75 12.79-10.90 12.82-11.06C13.15-12.22 14.50-12.94 15.97-12.94C17.99-12.94 19.31-11.91 19.31-10.30C19.31-9.39 18.74-8.54 17.80-7.71L15.96-6.02L15.96-5.99L18.61-5.99C19.20-5.99 19.59-5.60 19.59-5.04C19.59-4.49 19.20-4.09 18.61-4.10Z" fill="currentColor"/>
</svg>