<svg xmlns="http://www.w3.org/2000/svg" viewBox="0 0 24 24" width="24" height="24">
  <title>number.circle.fill</title>
  <path transform="matrix(0.7934294126762746, 0, 0, 0.7934294126762746, 0.33565783356578316, 18.713156671315666)" d="M14.70 4.14C21.66 4.14 27.30-1.50 27.30-8.46C27.30-15.42 21.66-21.06 14.70-21.06C7.75-21.06 2.10-15.42 2.10-8.46C2.10-1.50 7.75 4.14 14.70 4.14ZM11.64-2.58C10.82-2.58 10.31-3.19 10.48-3.98L10.76-5.39L10.35-5.39C9.71-5.39 9.27-5.84 9.27-6.50C9.27-7.30 9.82-7.85 10.64-7.85L11.25-7.85L11.53-9.23L11.09-9.23C10.45-9.23 10.02-9.70 10.02-10.37C10.02-11.17 10.57-11.72 11.38-11.72L11.99-11.72L12.27-13.17C12.42-13.98 12.90-14.36 13.69-14.36C14.48-14.36 15.02-13.72 14.87-12.95L14.63-11.72L15.95-11.72L16.24-13.17C16.38-13.98 16.88-14.36 17.66-14.36C18.45-14.36 19.00-13.72 18.84-12.95L18.61-11.72L19.03-11.72C19.68-11.72 20.12-11.26 20.12-10.58C20.12-9.80 19.56-9.23 18.75-9.23L18.14-9.23L17.87-7.85L18.27-7.85C18.93-7.85 19.36-7.41 19.36-6.73C19.36-5.95 18.81-5.39 18-5.39L17.37-5.39L17.04-3.80C16.88-2.99 16.38-2.58 15.57-2.58C14.75-2.58 14.27-3.18 14.41-3.98L14.70-5.38L13.38-5.38L13.07-3.76C12.90-2.96 12.43-2.58 11.64-2.58ZM13.59-7.48L15.40-7.48L15.79-9.48L13.99-9.48Z" fill="currentColor"/>
</svg>