<svg xmlns="http://www.w3.org/2000/svg" viewBox="0 0 24 24" width="24" height="24">
  <title>numbersign</title>
  <path transform="matrix(0.7839534527637422, 0, 0, 0.7839534527637422, -0.34267340376665123, 18.550298576022048)" d="M23.72-8.29C26.59-8.29 28.50-10.09 28.50-12.81C28.50-15.53 26.59-17.32 23.72-17.32C20.87-17.32 19.01-15.52 19.01-12.81C19.01-10.09 20.88-8.29 23.72-8.29ZM5.04 0.61C6.34 0.61 7.09-0.16 7.09-1.51L7.09-9.67L13.49-0.76C14.21 0.22 14.84 0.61 15.67 0.61C16.98 0.61 17.71-0.18 17.71-1.61L17.71-15.18C17.71-16.51 16.96-17.31 15.66-17.31C14.36-17.31 13.61-16.52 13.61-15.18L13.61-7.10L7.23-15.95C6.46-16.99 5.95-17.31 5.04-17.31C3.77-17.31 2.99-16.45 2.99-15.09L2.99-1.51C2.99-0.18 3.74 0.61 5.04 0.61ZM23.72-10.98C22.73-10.98 22.13-11.67 22.13-12.82C22.13-13.97 22.72-14.66 23.72-14.66C24.77-14.66 25.37-13.98 25.37-12.82C25.37-11.66 24.76-10.98 23.72-10.98ZM20.95-4.27L26.54-4.27C27.59-4.27 28.18-4.83 28.18-5.85C28.18-6.88 27.59-7.45 26.54-7.45L20.95-7.45C19.92-7.45 19.32-6.88 19.32-5.85C19.32-4.83 19.92-4.27 20.95-4.27Z" fill="currentColor"/>
</svg>