<svg xmlns="http://www.w3.org/2000/svg" viewBox="0 0 24 24" width="24" height="24">
  
  <path transform="matrix(0.7934294126762746, 0, 0, 0.7934294126762746, 0.33565783356578316, 18.713156671315666)" d="M14.70 4.14C21.66 4.14 27.30-1.50 27.30-8.46C27.30-15.42 21.66-21.06 14.70-21.06C7.75-21.06 2.10-15.42 2.10-8.46C2.10-1.50 7.75 4.14 14.70 4.14ZM11.03-3.41C10.32-3.41 9.93-3.83 9.93-4.46L9.93-12.45C9.93-13.09 10.32-13.51 11.03-13.51L12.55-13.51C13.24-13.51 13.63-13.09 13.63-12.45L13.63-4.46C13.63-3.83 13.24-3.41 12.55-3.41ZM16.85-3.41C16.16-3.41 15.77-3.83 15.77-4.46L15.77-12.45C15.77-13.09 16.16-13.51 16.85-13.51L18.39-13.51C19.08-13.51 19.48-13.09 19.48-12.45L19.48-4.46C19.48-3.83 19.08-3.41 18.39-3.41Z" fill="currentColor"/>
</svg>