<svg xmlns="http://www.w3.org/2000/svg" viewBox="0 0 24 24" width="24" height="24">
  <title>pedal.brake</title>
  <path transform="matrix(0.7768196283963718, 0, 0, 0.7768196283963718, -0.3213555301688453, 18.384736326089573)" d="M7.38 3.08L21.75 3.08C25.99 3.08 27.94 0.94 28.50-3.84C28.83-6.54 28.83-9.27 28.39-12.89C27.83-18.01 25.15-20.02 19.73-19.42L7.85-18.07C4.72-17.72 2.99-15.81 2.99-12.71L2.99-1.31C2.99 1.49 4.58 3.08 7.38 3.08ZM7.86-0.54C7.08-0.54 6.61-1.01 6.61-1.79L6.61-12.71C6.61-13.73 7.18-14.37 8.21-14.48L20.12-15.81C23.07-16.14 24.52-15.18 24.81-12.71C25.22-9.19 25.22-6.63 24.91-4.02C24.60-1.50 23.84-0.54 21.75-0.54ZM9.95-10.37L21.69-10.37C22.28-10.37 22.73-10.83 22.73-11.39C22.73-11.98 22.28-12.43 21.69-12.43L9.95-12.43C9.39-12.43 8.94-11.98 8.94-11.39C8.94-10.83 9.39-10.37 9.95-10.37ZM9.95-6.57L21.69-6.57C22.28-6.57 22.73-7.03 22.73-7.59C22.73-8.18 22.28-8.64 21.69-8.64L9.95-8.64C9.39-8.64 8.94-8.18 8.94-7.59C8.94-7.03 9.39-6.57 9.95-6.57ZM9.95-2.79L21.69-2.79C22.28-2.79 22.73-3.25 22.73-3.82C22.73-4.39 22.28-4.85 21.69-4.85L9.95-4.85C9.39-4.85 8.94-4.39 8.94-3.82C8.94-3.25 9.39-2.79 9.95-2.79Z" fill="currentColor"/>
</svg>