<svg xmlns="http://www.w3.org/2000/svg" viewBox="0 0 24 24" width="24" height="24">
  <title>pencil.circle.fill</title>
  <path transform="matrix(0.7934294126762746, 0, 0, 0.7934294126762746, 0.33565783356578316, 18.70385867038587)" d="M14.70 4.15C21.66 4.15 27.30-1.49 27.30-8.45C27.30-15.41 21.66-21.05 14.70-21.05C7.75-21.05 2.10-15.41 2.10-8.45C2.10-1.49 7.75 4.15 14.70 4.15ZM19.41-11.33L17.46-13.28L18.33-14.18C18.83-14.70 19.50-14.71 19.99-14.21L20.34-13.88C20.82-13.39 20.82-12.70 20.31-12.20ZM11.31-3.22L9.60-2.58C9.05-2.38 8.47-2.91 8.70-3.49L9.35-5.18L16.68-12.54L18.66-10.56Z" fill="currentColor"/>
</svg>