<svg xmlns="http://www.w3.org/2000/svg" viewBox="0 0 24 24" width="24" height="24">
  <title>pentagon</title>
  <path transform="matrix(0.7409135364285511, 0, 0, 0.7409135364285511, -0.21401148180136964, 18.15486425549753)" d="M3.26-8.72L6.68 1.57C7.36 3.59 8.86 4.70 10.99 4.70L21.97 4.70C24.12 4.70 25.62 3.59 26.29 1.57L29.71-8.71C30.39-10.76 29.79-12.54 28.10-13.79L19.17-20.36C17.43-21.63 15.54-21.63 13.80-20.36L4.88-13.79C3.18-12.54 2.59-10.76 3.26-8.72ZM6.66-9.59C6.45-10.21 6.61-10.69 7.17-11.11L15.68-17.38C16.21-17.77 16.76-17.77 17.29-17.38L25.79-11.11C26.36-10.69 26.53-10.21 26.32-9.59L23.04 0.25C22.84 0.86 22.36 1.18 21.75 1.18L11.23 1.18C10.61 1.18 10.14 0.86 9.94 0.25Z" fill="currentColor"/>
</svg>