<svg xmlns="http://www.w3.org/2000/svg" viewBox="0 0 24 24" width="24" height="24">
  
  <path transform="matrix(0.7343244447583911, 0, 0, 0.7343244447583911, 1.204570125592949, 18.962306300784626)" d="M14.70 4.14C21.66 4.14 27.30-1.51 27.30-8.46C27.30-14.51 23.05-19.55 17.36-20.78L17.36-22.13C17.36-23.11 16.45-23.36 15.77-22.83L11.81-19.78C11.32-19.42 11.33-18.77 11.81-18.40L15.77-15.38C16.45-14.86 17.36-15.09 17.36-16.05L17.36-17.00C21.01-15.87 23.64-12.47 23.64-8.46C23.64-3.52 19.64 0.48 14.70 0.48C9.75 0.48 5.75-3.52 5.75-8.46C5.75-11.00 6.77-13.16 8.52-14.87C9.29-15.70 9.54-16.79 8.77-17.63C8.09-18.36 6.94-18.43 6.01-17.51C3.48-15.14 2.10-11.81 2.10-8.46C2.10-1.51 7.73 4.14 14.70 4.14ZM17.41-8.99C18.57-8.99 19.51-10.02 19.51-11.31C19.51-12.54 18.57-13.57 17.41-13.57C16.24-13.57 15.30-12.53 15.30-11.30C15.30-10.02 16.23-8.99 17.41-8.99ZM11.43-8.88C12.46-8.88 13.28-9.79 13.28-10.90C13.28-11.96 12.45-12.88 11.43-12.88C10.42-12.88 9.59-11.95 9.59-10.90C9.59-9.79 10.41-8.88 11.43-8.88ZM8.70-4.18L12.38-4.18C11.80-5.00 12.25-6.52 13.54-7.57C13.00-7.89 12.27-8.12 11.43-8.12C9.21-8.12 7.63-6.48 7.63-5.19C7.63-4.56 7.90-4.18 8.70-4.18ZM14.30-4.18L20.51-4.18C21.46-4.18 21.76-4.51 21.76-5.05C21.76-6.35 20.05-8.11 17.41-8.11C14.75-8.11 13.03-6.35 13.03-5.05C13.03-4.51 13.35-4.18 14.30-4.18Z" fill="currentColor"/>
</svg>