<svg xmlns="http://www.w3.org/2000/svg" viewBox="0 0 24 24" width="24" height="24">
  
  <path transform="matrix(0.6772486772486772, 0, 0, 0.6772486772486772, 2.5555555555555562, 17.72222222222222)" d="M7.62-21.27L19.95-21.27C19.84-22.51 19.03-23.21 17.73-23.21L9.83-23.21C8.53-23.21 7.72-22.51 7.62-21.27ZM5.68-17.36L21.88-17.36C21.74-18.64 21-19.44 19.48-19.44L8.09-19.44C6.56-19.44 5.82-18.64 5.68-17.36ZM7.37 6.32L20.64 6.32C23.32 6.32 24.90 4.73 24.90 1.95L24.90-11.24C24.90-14.02 23.32-15.60 20.52-15.60L7.37-15.60C4.58-15.60 2.99-14.03 2.99-11.24L2.99 1.95C2.99 4.73 4.58 6.32 7.37 6.32ZM10.25-1.95C8.77-1.95 7.46-1.32 6.61-0.48L6.61-10.72C6.61-11.60 7.03-11.98 7.86-11.98L20.04-11.98C20.86-11.98 21.28-11.60 21.28-10.72L21.28-0.62C20.37-1.38 19.05-1.93 17.45-1.93C14.26-1.93 12.20 0.25 12.20 1.99C12.20 2.27 12.25 2.51 12.34 2.70L10.86 2.70C10.79 2.46 10.76 2.19 10.76 1.92C10.76 0.77 11.33-0.49 12.43-1.46C11.87-1.76 11.11-1.95 10.25-1.95ZM17.45-3.08C18.88-3.08 20.00-4.31 20.00-5.85C20.00-7.36 18.87-8.57 17.45-8.57C16.05-8.57 14.92-7.35 14.92-5.85C14.92-4.31 16.03-3.08 17.45-3.08ZM10.25-2.95C11.50-2.95 12.47-4.02 12.47-5.36C12.47-6.66 11.48-7.73 10.25-7.73C9.05-7.73 8.05-6.66 8.05-5.34C8.05-4.02 9.04-2.95 10.25-2.95Z" fill="currentColor"/>
</svg>