<svg xmlns="http://www.w3.org/2000/svg" viewBox="0 0 24 24" width="24" height="24">
  
  <path transform="matrix(0.4126370083816892, 0, 0, 0.4126370083816892, 0.7669245647969054, 15.491295938104447)" d="M13.50-8.29C16.48-8.29 18.83-10.84 18.83-14.04C18.83-17.16 16.44-19.70 13.50-19.70C10.57-19.70 8.16-17.14 8.17-14.04C8.18-10.84 10.52-8.29 13.50-8.29ZM27.21-8.29C30.19-8.29 32.55-10.84 32.55-14.04C32.55-17.16 30.16-19.70 27.21-19.70C24.28-19.70 21.87-17.14 21.88-14.04C21.89-10.84 24.25-8.29 27.21-8.29ZM40.95-8.29C43.91-8.29 46.28-10.84 46.28-14.04C46.28-17.16 43.89-19.70 40.95-19.70C38.00-19.70 35.59-17.14 35.60-14.04C35.61-10.84 37.97-8.29 40.95-8.29ZM13.51-11.13C12.18-11.13 11.05-12.38 11.05-14.04C11.05-15.60 12.20-16.85 13.51-16.85C14.84-16.85 15.96-15.61 15.96-14.04C15.96-12.39 14.86-11.13 13.51-11.13ZM27.21-11.13C25.89-11.13 24.76-12.38 24.76-14.04C24.76-15.60 25.91-16.85 27.21-16.85C28.54-16.85 29.66-15.61 29.66-14.04C29.66-12.39 28.56-11.13 27.21-11.13ZM40.96-11.13C39.62-11.13 38.50-12.38 38.50-14.04C38.50-15.60 39.64-16.85 40.96-16.85C42.27-16.85 43.39-15.61 43.39-14.04C43.39-12.39 42.29-11.13 40.96-11.13ZM6.38 2.78L20.63 2.78C22.89 2.78 24.01 1.98 24.01 0.33C24.01-3.32 19.57-7.20 13.50-7.20C7.43-7.20 2.99-3.32 2.99 0.33C2.99 1.98 4.13 2.78 6.38 2.78ZM27.21-7.20C25.45-7.20 23.82-6.86 22.41-6.29C23.27-5.61 24.01-4.84 24.56-3.98C25.36-4.20 26.25-4.34 27.21-4.34C31.75-4.34 34.42-1.68 34.42-0.30C34.42-0.18 34.36-0.07 34.17-0.07L26.02-0.07C26.07 0.95 25.93 1.92 25.36 2.78L34.35 2.78C36.60 2.78 37.72 1.98 37.72 0.33C37.72-3.32 33.28-7.20 27.21-7.20ZM40.95-7.20C39.16-7.20 37.55-6.86 36.12-6.29C36.98-5.61 37.72-4.84 38.29-3.97C39.07-4.20 39.96-4.34 40.95-4.34C45.48-4.34 48.14-1.68 48.14-0.30C48.14-0.18 48.09-0.07 47.91-0.07L39.73-0.07C39.79 0.95 39.64 1.92 39.07 2.78L48.07 2.78C50.32 2.78 51.46 1.98 51.46 0.33C51.46-3.32 47.02-7.20 40.95-7.20ZM6.54-0.07C6.35-0.07 6.29-0.18 6.29-0.30C6.29-1.68 8.96-4.34 13.50-4.34C18.04-4.34 20.71-1.68 20.71-0.30C20.71-0.18 20.65-0.07 20.46-0.07Z" fill="currentColor"/>
</svg>