<svg xmlns="http://www.w3.org/2000/svg" viewBox="0 0 24 24" width="24" height="24">
  <title>person.and.arrow.left.and.arrow.right.outward</title>
  <path transform="matrix(0.6047715508981393, 0, 0, 0.6047715508981393, 0.5533399314946401, 17.116934293927226)" d="M18.93-8.29C21.90-8.29 24.27-10.84 24.27-14.04C24.27-17.16 21.87-19.70 18.93-19.70C16.00-19.70 13.59-17.14 13.59-14.04C13.59-10.84 15.96-8.29 18.93-8.29ZM26.98-12.82L29.85-12.82L29.85-11.34C29.85-10.37 30.81-10.02 31.58-10.61L35.10-13.29C35.59-13.68 35.58-14.37 35.10-14.74L31.58-17.45C30.80-18.05 29.85-17.71 29.85-16.68L29.85-15.26L26.98-15.26C26.31-15.26 25.76-14.71 25.76-14.04C25.76-13.37 26.31-12.82 26.98-12.82ZM8.02-11.34L8.02-12.82L10.88-12.82C11.55-12.82 12.09-13.37 12.09-14.04C12.09-14.71 11.55-15.26 10.88-15.26L8.02-15.26L8.02-16.68C8.02-17.71 7.05-18.05 6.28-17.45L2.77-14.74C2.27-14.37 2.26-13.68 2.77-13.29L6.28-10.61C7.05-10.02 8.02-10.37 8.02-11.34ZM18.93-11.13C17.60-11.13 16.49-12.29 16.49-14.04C16.49-15.69 17.63-16.85 18.93-16.85C20.25-16.85 21.38-15.69 21.38-14.04C21.38-12.29 20.27-11.13 18.93-11.13ZM11.80 2.78L26.06 2.78C28.31 2.78 29.44 1.98 29.44 0.33C29.44-3.32 25.00-7.20 18.93-7.20C12.86-7.20 8.41-3.32 8.41 0.33C8.41 1.98 9.55 2.78 11.80 2.78ZM11.96-0.07C11.78-0.07 11.73-0.18 11.73-0.30C11.73-1.68 14.39-4.34 18.93-4.34C23.46-4.34 26.13-1.68 26.13-0.30C26.13-0.18 26.07-0.07 25.89-0.07Z" fill="currentColor"/>
</svg>