<svg xmlns="http://www.w3.org/2000/svg" viewBox="0 0 24 24" width="24" height="24">
  
  <path transform="matrix(0.7934294126762746, 0, 0, 0.7934294126762746, 0.33565783356578316, 18.713156671315666)" d="M14.70 4.14C21.66 4.14 27.30-1.50 27.30-8.46C27.30-15.42 21.66-21.06 14.70-21.06C7.73-21.06 2.10-15.42 2.10-8.46C2.10-1.50 7.73 4.14 14.70 4.14ZM14.70 0.48C9.75 0.48 5.75-3.52 5.75-8.46C5.75-13.41 9.75-17.40 14.70-17.40C19.64-17.40 23.64-13.41 23.64-8.46C23.64-3.52 19.64 0.48 14.70 0.48ZM15.93-2.68C16.41-2.68 16.70-3.01 16.77-3.55L18.02-11.98C18.05-12.08 18.05-12.16 18.05-12.26C18.05-12.77 17.78-13.13 17.23-13.13C16.73-13.13 16.45-12.80 16.38-12.26L15.12-3.83C15.11-3.73 15.09-3.64 15.09-3.55C15.09-3.04 15.36-2.68 15.93-2.68ZM11.75-4.55C13.52-4.55 14.63-5.46 14.63-7.10C14.63-8.43 13.95-9.01 12.79-9.42L12.04-9.68C11.45-9.89 10.96-10.15 10.96-10.77C10.96-11.21 11.26-11.55 11.74-11.55C12.27-11.55 12.53-11.25 12.68-10.83C12.86-10.42 13.13-10.25 13.56-10.25C14.14-10.25 14.41-10.62 14.41-11.04C14.41-11.24 14.36-11.43 14.31-11.54C13.90-12.63 12.87-13.10 11.74-13.10C10.15-13.10 9.01-12.19 9.01-10.62C9.01-9.39 9.67-8.66 10.91-8.23L11.54-8.00C12.26-7.75 12.68-7.51 12.68-6.91C12.68-6.42 12.32-6.11 11.77-6.11C11.29-6.11 10.95-6.33 10.78-6.79C10.58-7.22 10.30-7.39 9.86-7.39C9.33-7.39 9-7.03 9-6.56C9-6.35 9.07-6.11 9.18-5.89C9.60-4.99 10.62-4.55 11.75-4.55ZM19.65-4.64C20.24-4.64 20.68-5.10 20.68-5.68C20.68-6.25 20.24-6.70 19.65-6.70C19.07-6.70 18.61-6.25 18.61-5.68C18.61-5.10 19.07-4.64 19.65-4.64Z" fill="currentColor"/>
</svg>