<svg xmlns="http://www.w3.org/2000/svg" viewBox="0 0 24 24" width="24" height="24">
  
  <path transform="matrix(0.8752136752136752, 0, 0, 0.8752136752136752, -0.6153846153846154, 19.405128205128204)" d="M7.37 2.96L21.46 2.96C24.25 2.96 25.84 1.38 25.84-1.41L25.84-15.52C25.84-18.30 24.25-19.89 21.46-19.89L7.37-19.89C4.58-19.89 2.99-18.30 2.99-15.52L2.99-1.41C2.99 1.38 4.58 2.96 7.37 2.96ZM7.86-0.66C7.03-0.66 6.61-1.03 6.61-1.91L6.61-15C6.61-15.88 7.03-16.25 7.86-16.25L20.96-16.25C21.79-16.25 22.21-15.88 22.21-15L22.21-1.91C22.21-1.03 21.79-0.66 20.96-0.66ZM12.23-3.33C12.97-3.33 13.44-3.80 13.44-4.56L13.44-6.01L15.06-6.01C16.91-6.01 18.15-7.10 18.55-8.67L19.27-8.67C19.45-8.67 19.59-8.80 19.59-8.99C19.59-9.16 19.45-9.30 19.27-9.30L18.67-9.30C18.68-9.47 18.69-9.63 18.69-9.81C18.69-9.95 18.68-10.09 18.67-10.22L19.27-10.22C19.45-10.22 19.59-10.36 19.59-10.54C19.59-10.71 19.45-10.85 19.27-10.85L18.57-10.85C18.20-12.38 17.02-13.49 15.21-13.49L12.30-13.49C11.52-13.49 11.02-12.98 11.02-12.19L11.02-10.85L10.31-10.85C10.13-10.85 10.00-10.71 10.00-10.54C10.00-10.36 10.13-10.22 10.31-10.22L11.02-10.22L11.02-9.30L10.31-9.30C10.13-9.30 10.00-9.16 10.00-8.99C10.00-8.80 10.13-8.67 10.31-8.67L11.02-8.67L11.02-4.56C11.02-3.80 11.48-3.33 12.23-3.33ZM13.44-11.71L14.55-11.71C15.27-11.71 15.77-11.39 16.03-10.85L13.44-10.85ZM16.24-9.80C16.24-9.62 16.23-9.46 16.21-9.30L13.44-9.30L13.44-10.22L16.22-10.22C16.24-10.09 16.24-9.95 16.24-9.80ZM13.44-7.75L13.44-8.67L16.03-8.67C15.76-8.10 15.26-7.75 14.54-7.75Z" fill="currentColor"/>
</svg>