<svg xmlns="http://www.w3.org/2000/svg" viewBox="0 0 24 24" width="24" height="24">
  <title>pet.carrier</title>
  <path transform="matrix(0.6764433875016514, 0, 0, 0.6764433875016514, -0.021403091557669285, 17.723345223939756)" d="M7.31 4.14L28.23 4.14C31.01 4.14 32.55 2.60 32.55-0.18L32.55-8.32C32.55-13.22 29.71-16.18 25.02-16.18L24.54-16.18L24.54-17.23C24.54-19.65 22.78-21.06 19.92-21.06L15.62-21.06C12.80-21.06 11.00-19.65 11.00-17.23L11.00-16.18L10.52-16.18C5.84-16.18 2.99-13.22 2.99-8.32L2.99-0.18C2.99 2.60 4.54 4.14 7.31 4.14ZM14.13-16.18L14.13-16.82C14.13-17.72 14.70-18.29 15.62-18.29L19.93-18.29C20.85-18.29 21.42-17.72 21.42-16.82L21.42-16.18ZM7.61 0.83C6.96 0.83 6.61 0.49 6.61-0.18L6.61-8.31C6.61-11.17 8.19-12.87 10.83-12.87L24.71-12.87C27.35-12.87 28.93-11.17 28.93-8.31L28.93-0.18C28.93 0.49 28.58 0.83 27.94 0.83ZM14.86-9.35C14.86-8.34 15.43-7.52 16.16-7.52C16.90-7.52 17.47-8.34 17.47-9.35C17.47-10.36 16.90-11.18 16.16-11.18C15.43-11.18 14.86-10.36 14.86-9.35ZM18.07-9.35C18.07-8.34 18.64-7.52 19.37-7.52C20.10-7.52 20.68-8.34 20.68-9.35C20.68-10.36 20.11-11.18 19.37-11.18C18.64-11.18 18.07-10.36 18.07-9.35ZM12.45-6.48C12.45-5.45 13.02-4.64 13.75-4.64C14.48-4.64 15.06-5.45 15.06-6.48C15.06-7.48 14.48-8.30 13.75-8.30C13.02-8.30 12.45-7.48 12.45-6.48ZM20.47-6.48C20.47-5.45 21.06-4.64 21.80-4.64C22.51-4.64 23.09-5.45 23.09-6.48C23.09-7.48 22.51-8.30 21.80-8.30C21.06-8.30 20.47-7.48 20.47-6.48ZM14.04-2.71C14.04-1.63 14.75-0.87 15.79-0.87C16.29-0.87 16.65-1.01 16.98-1.11C17.24-1.21 17.47-1.28 17.77-1.28C18.06-1.28 18.29-1.21 18.56-1.11C18.88-1.01 19.25-0.87 19.75-0.87C20.79-0.87 21.50-1.63 21.50-2.71C21.50-3.57 20.98-4.03 20.50-4.41C20.25-4.62 20.00-4.82 19.83-5.06C19.70-5.25 19.59-5.47 19.46-5.73C19.13-6.47 18.84-7.21 17.77-7.21C16.70-7.21 16.41-6.46 16.07-5.73C15.94-5.47 15.83-5.26 15.70-5.06C15.54-4.82 15.29-4.62 15.04-4.41C14.55-4.03 14.04-3.57 14.04-2.71Z" fill="currentColor"/>
</svg>