<svg xmlns="http://www.w3.org/2000/svg" viewBox="0 0 24 24" width="24" height="24">
  <title>pet.carrier.circle</title>
  <path transform="matrix(0.7934294126762746, 0, 0, 0.7934294126762746, 0.33565783356578316, 18.713156671315666)" d="M14.70 4.14C21.66 4.14 27.30-1.50 27.30-8.46C27.30-15.42 21.66-21.06 14.70-21.06C7.73-21.06 2.10-15.42 2.10-8.46C2.10-1.50 7.73 4.14 14.70 4.14ZM14.70 0.48C9.75 0.48 5.75-3.52 5.75-8.46C5.75-13.41 9.75-17.40 14.70-17.40C19.64-17.40 23.64-13.41 23.64-8.46C23.64-3.52 19.64 0.48 14.70 0.48ZM10.29-3.90L19.09-3.90C20.26-3.90 20.91-4.54 20.91-5.71L20.91-9.14C20.91-11.19 19.71-12.43 17.72-12.43L17.52-12.43L17.52-12.87C17.52-13.90 16.79-14.46 15.61-14.46L13.77-14.46C12.60-14.46 11.85-13.90 11.85-12.87L11.85-12.43L11.65-12.43C9.67-12.43 8.47-11.19 8.47-9.14L8.47-5.71C8.47-4.54 9.12-3.90 10.29-3.90ZM13.15-12.43L13.15-12.71C13.15-13.08 13.37-13.31 13.77-13.31L15.62-13.31C16.01-13.31 16.23-13.08 16.23-12.71L16.23-12.43ZM13.37-9.69C13.37-10.13 13.63-10.50 13.97-10.50C14.30-10.50 14.55-10.13 14.55-9.69C14.55-9.23 14.30-8.86 13.97-8.86C13.63-8.86 13.37-9.23 13.37-9.69ZM14.82-9.69C14.82-10.13 15.09-10.50 15.41-10.50C15.75-10.50 16.00-10.13 16.00-9.69C16.00-9.23 15.75-8.86 15.41-8.86C15.09-8.86 14.82-9.23 14.82-9.69ZM12.29-8.38C12.29-8.82 12.54-9.20 12.87-9.20C13.20-9.20 13.45-8.82 13.45-8.38C13.45-7.91 13.20-7.55 12.87-7.55C12.54-7.55 12.29-7.91 12.29-8.38ZM15.93-8.38C15.93-8.82 16.18-9.20 16.51-9.20C16.84-9.20 17.10-8.82 17.10-8.38C17.10-7.91 16.84-7.55 16.51-7.55C16.18-7.55 15.93-7.91 15.93-8.38ZM13.00-6.67C13.00-7.07 13.24-7.25 13.45-7.43C13.57-7.52 13.69-7.62 13.76-7.73C13.82-7.82 13.88-7.91 13.92-8.04C14.07-8.37 14.20-8.71 14.70-8.71C15.18-8.71 15.30-8.37 15.47-8.04C15.52-7.91 15.55-7.82 15.63-7.73C15.70-7.62 15.82-7.52 15.93-7.43C16.14-7.25 16.39-7.07 16.39-6.67C16.39-6.19 16.05-5.84 15.59-5.84C15.36-5.84 15.20-5.91 15.06-5.94C14.93-5.98 14.82-6.01 14.70-6.01C14.54-6.01 14.45-5.98 14.33-5.94C14.18-5.91 14.02-5.84 13.78-5.84C13.32-5.84 13.00-6.19 13.00-6.67Z" fill="currentColor"/>
</svg>