<svg xmlns="http://www.w3.org/2000/svg" viewBox="0 0 24 24" width="24" height="24">
  <title>phone.bubble.fill</title>
  <path transform="matrix(0.7240842879366426, 0, 0, 0.7240842879366426, -0.16376750106067028, 17.67670767925329)" d="M11.31 5.21C11.88 5.21 12.35 4.99 13.05 4.38L17.53 0.45L24.67 0.45C28.30 0.45 30.61-1.88 30.61-5.50L30.61-14.94C30.61-18.56 28.30-20.89 24.67-20.89L8.93-20.89C5.30-20.89 2.99-18.57 2.99-14.94L2.99-5.50C2.99-1.86 5.51 0.45 8.61 0.45L9.95 0.45L9.95 3.74C9.95 4.65 10.46 5.21 11.31 5.21ZM13.93-7.42C11.95-9.41 10.48-11.74 10.48-13.66C10.48-14.51 10.77-15.28 11.33-15.80C11.73-16.18 12.28-16.54 12.71-16.54C13.09-16.54 13.39-16.28 13.70-15.84L14.85-14.24C15.13-13.89 15.19-13.61 15.19-13.35C15.19-13.11 15.13-12.95 14.96-12.64L14.36-11.58C14.30-11.50 14.25-11.40 14.25-11.31C14.25-11.20 14.30-11.11 14.34-11.03C14.60-10.49 15.09-9.86 15.73-9.21C16.37-8.59 17.10-8.02 17.59-7.79C17.74-7.72 17.81-7.69 17.94-7.69C18.04-7.69 18.11-7.71 18.21-7.78L19.29-8.37C19.64-8.57 19.82-8.59 20.02-8.59C20.27-8.59 20.46-8.54 20.87-8.25L22.51-7.05C22.96-6.75 23.13-6.49 23.13-6.20C23.13-5.84 22.92-5.40 22.42-4.85C21.90-4.28 21.13-3.91 20.23-3.91C18.30-3.91 15.91-5.44 13.93-7.42Z" fill="currentColor"/>
</svg>