<svg xmlns="http://www.w3.org/2000/svg" viewBox="0 0 24 24" width="24" height="24">
  
  <path transform="matrix(0.7105190119344991, 0, 0, 0.7105190119344991, -0.1232306411323898, 18.003330557868445)" d="M7.37 2.98C4.58 2.98 2.99 1.39 2.99-1.39L2.99-15.50C2.99-18.29 4.58-19.88 7.37-19.88L26.75-19.88C29.55-19.88 31.14-18.29 31.14-15.50L31.14-1.39C31.14 1.39 29.55 2.98 26.75 2.98L24.29 2.98L24.29-6.25L24.46-6.25C24.97-6.25 25.46-6.55 25.46-7.34L25.46-19.88L21.88-19.88L21.88-7.34C21.88-6.55 22.38-6.25 22.90-6.25L23.05-6.25L23.05 2.98L17.68 2.98L17.68-6.25L17.85-6.25C18.36-6.25 18.86-6.55 18.86-7.34L18.86-19.88L15.28-19.88L15.28-7.34C15.28-6.54 15.87-6.25 16.29-6.25L16.44-6.25L16.44 2.98L11.07 2.98L11.07-6.25L11.24-6.25C11.75-6.25 12.25-6.55 12.25-7.34L12.25-19.88L8.66-19.88L8.66-7.34C8.66-6.55 9.16-6.25 9.68-6.25L9.83-6.25L9.83 2.98L9.83 2.98Z" fill="currentColor"/>
</svg>