<svg xmlns="http://www.w3.org/2000/svg" viewBox="0 0 24 24" width="24" height="24">
  
  <path transform="matrix(0.6802178822904211, 0, 0, 0.6802178822904211, 2.139497807891591, 17.65563969709047)" d="M4.75-4.89C4.75-3.62 5.61-2.77 6.91-2.77L12.95-2.77L12.95 2.96C12.95 4.17 14.07 6.39 14.50 6.39C14.92 6.39 16.04 4.17 16.04 2.96L16.04-2.77L22.08-2.77C23.38-2.77 24.25-3.62 24.25-4.89C24.25-7.56 22.17-10.10 18.81-11.40L18.43-17.05C20.31-18.11 21.62-19.18 22.21-19.92C22.57-20.38 22.77-20.88 22.77-21.35C22.77-22.31 22.02-23.02 20.98-23.02L8.02-23.02C6.97-23.02 6.22-22.31 6.22-21.35C6.22-20.88 6.42-20.38 6.79-19.92C7.37-19.18 8.68-18.11 10.56-17.05L10.18-11.40C6.82-10.10 4.75-7.56 4.75-4.89Z" fill="currentColor"/>
</svg>