<svg xmlns="http://www.w3.org/2000/svg" viewBox="0 0 24 24" width="24" height="24">
  <title>pip.swap</title>
  <path transform="matrix(0.6145720801824511, 0, 0, 0.6145720801824511, 0.16348577601728476, 17.19265394310407)" d="M7.37-0.98L14.10-0.98L14.10 0.69C14.10 3.47 15.68 5.05 18.48 5.05L31.16 5.05C33.95 5.05 35.53 3.47 35.53 0.69L35.53-7.75C35.53-10.52 33.95-12.11 31.16-12.11L29.14-12.11L29.14-17.58C29.14-20.37 27.56-21.95 24.77-21.95L7.37-21.95C4.57-21.95 2.99-20.37 2.99-17.58L2.99-5.36C2.99-2.57 4.57-0.98 7.37-0.98ZM7.86-4.62C7.03-4.62 6.61-4.98 6.61-5.87L6.61-17.07C6.61-17.95 7.03-18.33 7.86-18.33L24.28-18.33C25.10-18.33 25.52-17.95 25.52-17.07L25.52-12.11L18.48-12.11C15.68-12.11 14.10-10.52 14.10-7.75L14.10-4.62ZM13.42-15.53C13.37-16.16 12.67-16.58 12.13-16.04L11.04-14.96L9.63-16.36C9.26-16.75 8.66-16.73 8.27-16.36C7.90-15.98 7.90-15.39 8.27-15.01L9.68-13.61L8.59-12.50C8.06-11.95 8.47-11.25 9.12-11.20L12.80-10.85C13.11-10.82 13.37-10.91 13.55-11.07C13.72-11.26 13.82-11.52 13.79-11.84ZM18.38-4.10L18.01-7.80C17.99-8.11 18.07-8.37 18.25-8.55C18.42-8.72 18.68-8.81 19.00-8.78L22.69-8.43C23.32-8.37 23.75-7.66 23.20-7.13L22.11-6.02L23.52-4.63C23.89-4.25 23.89-3.64 23.52-3.27C23.13-2.89 22.55-2.89 22.16-3.27L20.77-4.68L19.66-3.59C19.14-3.05 18.42-3.47 18.38-4.10Z" fill="currentColor"/>
</svg>