<svg xmlns="http://www.w3.org/2000/svg" viewBox="0 0 24 24" width="24" height="24">
  
  <path transform="matrix(0.6974526631249148, 0, 0, 0.6974526631249148, 2.2656313853698413, 17.905190028606455)" d="M2.99 1.66C2.99 4.28 4.59 5.87 7.23 5.87L20.68 5.87C23.32 5.87 24.93 4.28 24.93 1.66L24.93-18.61C24.93-21.21 23.32-22.80 20.68-22.80L7.23-22.80C4.59-22.80 2.99-21.21 2.99-18.61ZM6.61 1.09L6.61-18.02C6.61-18.79 6.97-19.18 7.79-19.18L20.13-19.18C20.94-19.18 21.30-18.79 21.30-18.02L21.30 1.09C21.30 1.85 20.94 2.24 20.13 2.24L7.79 2.24C6.97 2.24 6.61 1.85 6.61 1.09ZM9.94-10.56L17.99-10.56C18.61-10.56 19.03-10.97 19.03-11.61L19.03-14.24C19.03-14.88 18.61-15.30 17.99-15.30L9.94-15.30C9.33-15.30 8.91-14.88 8.91-14.24L8.91-11.61C8.91-10.97 9.33-10.56 9.94-10.56ZM9.94-1.66L17.99-1.66C18.61-1.66 19.03-2.07 19.03-2.72L19.03-5.34C19.03-5.99 18.61-6.41 17.99-6.41L9.94-6.41C9.33-6.41 8.91-5.99 8.91-5.34L8.91-2.72C8.91-2.07 9.33-1.66 9.94-1.66Z" fill="currentColor"/>
</svg>