<svg xmlns="http://www.w3.org/2000/svg" viewBox="0 0 24 24" width="24" height="24">
  
  <path transform="matrix(0.643782220545706, 0, 0, 0.643782220545706, 0.07619766125990202, 17.450773293096944)" d="M13.72-17.57L27.68-17.57L27.68-17.61C27.52-20.13 25.97-21.55 23.32-21.55L7.37-21.55C4.57-21.55 2.99-19.97 2.99-17.18L2.99-5.79C2.99-3.07 4.48-1.51 7.14-1.43L7.28-1.43L7.28-11.13C7.28-15.07 9.79-17.57 13.72-17.57ZM13.72 4.62L29.67 4.62C32.47 4.62 34.05 3.04 34.05 0.26L34.05-11.13C34.05-13.92 32.47-15.50 29.67-15.50L13.72-15.50C10.93-15.50 9.34-13.92 9.34-11.13L9.34 0.26C9.34 3.05 10.93 4.62 13.72 4.62ZM21.70 0.28C20.80 0.28 20.13-0.39 20.13-1.25L20.13-3.87L17.52-3.87C16.64-3.87 15.98-4.55 15.98-5.44C15.98-6.34 16.64-7.02 17.52-7.02L20.13-7.02L20.13-9.63C20.13-10.51 20.80-11.17 21.70-11.17C22.61-11.17 23.29-10.51 23.29-9.63L23.29-7.02L25.90-7.02C26.78-7.02 27.43-6.34 27.43-5.44C27.43-4.55 26.78-3.87 25.90-3.87L23.29-3.87L23.29-1.25C23.29-0.38 22.61 0.28 21.70 0.28Z" fill="currentColor"/>
</svg>