<svg xmlns="http://www.w3.org/2000/svg" viewBox="0 0 24 24" width="24" height="24">
  <title>plusminus</title>
  <path transform="matrix(0.8801787863159705, 0, 0, 0.8801787863159705, 2.4074265085095403, 19.441980402269213)" d="M10.90-4.13C12.18-4.13 13.05-5.00 13.05-6.28L13.05-9.82L16.64-9.82C17.93-9.82 18.81-10.70 18.81-11.98C18.81-13.25 17.93-14.13 16.64-14.13L13.05-14.13L13.05-17.66C13.05-18.94 12.18-19.82 10.90-19.82C9.62-19.82 8.73-18.94 8.73-17.66L8.73-14.13L5.14-14.13C3.87-14.13 2.99-13.25 2.99-11.98C2.99-10.70 3.87-9.82 5.14-9.82L8.73-9.82L8.73-6.28C8.73-5.00 9.62-4.13 10.90-4.13ZM2.99 0.74C2.99 2.02 3.87 2.91 5.14 2.91L16.64 2.91C17.92 2.91 18.81 2.02 18.81 0.74C18.81-0.54 17.92-1.42 16.64-1.42L5.14-1.42C3.87-1.42 2.99-0.54 2.99 0.74Z" fill="currentColor"/>
</svg>