<svg xmlns="http://www.w3.org/2000/svg" viewBox="0 0 24 24" width="24" height="24">
  <title>pointer.arrow.ipad.slash.square.fill</title>
  <path transform="matrix(0.8752136752136752, 0, 0, 0.8752136752136752, -0.6153846153846154, 19.405128205128204)" d="M7.37 2.96L21.46 2.96C24.25 2.96 25.84 1.38 25.84-1.41L25.84-15.52C25.84-18.30 24.25-19.89 21.46-19.89L7.37-19.89C4.58-19.89 2.99-18.30 2.99-15.52L2.99-1.41C2.99 1.38 4.58 2.96 7.37 2.96ZM20.31-7.09C21.07-6.29 20.54-5.07 19.28-5.07L19.11-5.07L10.90-13.27L10.90-13.51C10.90-14.71 12.21-15.21 13.04-14.33ZM7.61-13.62C7.38-13.84 7.38-14.21 7.61-14.44C7.84-14.66 8.21-14.66 8.44-14.44L20.44-2.45C20.66-2.21 20.66-1.85 20.44-1.63C20.20-1.39 19.84-1.39 19.62-1.63ZM10.90-9.05L15.23-4.69L13.10-2.53C12.16-1.62 10.90-2.09 10.90-3.19Z" fill="currentColor"/>
</svg>