<svg xmlns="http://www.w3.org/2000/svg" viewBox="0 0 24 24" width="24" height="24">
  <title>point.bottomleft.forward.to.arrow.triangle.scurvepath</title>
  <path transform="matrix(0.7017974051782964, 0, 0, 0.7017974051782964, 1.5388324290610202, 17.698749497168954)" d="M7.64 6.13C9.59 6.13 11.26 4.92 11.95 3.21L19.42 3.21C23.89 3.21 26.82 0.79 26.82-3.04C26.82-6.93 24-9.45 18.63-10.00L11.67-10.71C8.03-11.10 6.61-12.16 6.61-13.88C6.61-15.55 7.88-16.50 10.41-16.50L20.00-16.50L20.00-15.21C20.00-14.25 20.92-14.00 21.59-14.53L25.56-17.61C26.04-17.99 26.04-18.63 25.56-19.00L21.60-22.09C20.92-22.63 20.00-22.38 20.00-21.40L20.00-20.12L10.41-20.12C5.93-20.12 2.99-17.70 2.99-13.88C2.99-9.98 5.81-7.46 11.17-6.91L18.13-6.20C21.77-5.81 23.20-4.75 23.20-3.04C23.20-1.36 21.94-0.41 19.42-0.41L11.87-0.41C11.14-2.03 9.52-3.16 7.64-3.16C5.07-3.16 2.99-1.08 2.99 1.49C2.99 4.05 5.07 6.13 7.64 6.13ZM7.64 2.98C6.79 2.98 6.15 2.34 6.15 1.49C6.15 0.64 6.80 0 7.64 0C8.47 0 9.12 0.66 9.12 1.49C9.12 2.33 8.48 2.98 7.64 2.98Z" fill="currentColor"/>
</svg>