<svg xmlns="http://www.w3.org/2000/svg" viewBox="0 0 24 24" width="24" height="24">
  
  <path transform="matrix(0.8752136752136752, 0, 0, 0.8752136752136752, -0.6153846153846154, 19.405128205128204)" d="M7.37 2.96L21.46 2.96C24.25 2.96 25.84 1.38 25.84-1.41L25.84-15.52C25.84-18.30 24.25-19.89 21.46-19.89L7.37-19.89C4.58-19.89 2.99-18.30 2.99-15.52L2.99-1.41C2.99 1.38 4.58 2.96 7.37 2.96ZM7.86-0.66C7.03-0.66 6.61-1.03 6.61-1.91L6.61-15C6.61-15.88 7.03-16.25 7.86-16.25L20.96-16.25C21.79-16.25 22.21-15.88 22.21-15L22.21-1.91C22.21-1.03 21.79-0.66 20.96-0.66ZM10.62-3.35L18.20-3.35C19.08-3.35 19.69-3.96 19.69-4.84L19.69-12.08C19.69-12.97 19.08-13.57 18.20-13.57L10.62-13.57C9.75-13.57 9.13-12.97 9.13-12.08L9.13-4.84C9.13-3.96 9.75-3.35 10.62-3.35ZM14.41-9.11C13.75-9.11 13.20-9.64 13.20-10.34C13.20-11.02 13.73-11.54 14.41-11.54C15.09-11.54 15.63-11.02 15.63-10.34C15.63-9.64 15.08-9.11 14.41-9.11ZM12.23-5.38C11.58-5.38 11.06-5.89 11.06-6.53C11.06-7.17 11.58-7.68 12.23-7.68C12.86-7.68 13.37-7.16 13.37-6.53C13.37-5.89 12.86-5.38 12.23-5.38ZM16.61-5.38C15.97-5.38 15.46-5.89 15.46-6.53C15.46-7.16 15.97-7.68 16.61-7.68C17.25-7.68 17.78-7.16 17.78-6.53C17.78-5.89 17.25-5.38 16.61-5.38Z" fill="currentColor"/>
</svg>