<svg xmlns="http://www.w3.org/2000/svg" viewBox="0 0 24 24" width="24" height="24">
  
  <path transform="matrix(0.6378862218955463, 0, 0, 0.6378862218955463, 0.47693424548455443, 17.400853070150767)" d="M11.39-18.11C9.47-18.11 8.12-17.41 6.87-15.82L3.40-11.40C2.04-9.68 2.06-7.35 3.40-5.61L6.84-1.14C7.99 0.38 9.59 1.17 11.39 1.17L24.74 1.17C26.54 1.17 28.13 0.38 29.29-1.14L32.73-5.61C34.07-7.35 34.09-9.69 32.73-11.40L29.26-15.82C28.01-17.41 26.66-18.11 24.74-18.11ZM11.39-14.70L24.74-14.70C25.63-14.70 25.96-14.53 26.58-13.72L30.04-9.32C30.43-8.81 30.43-8.21 30.02-7.69L26.57-3.22C26.04-2.54 25.50-2.25 24.74-2.25L11.39-2.25C10.63-2.25 10.09-2.54 9.56-3.22L6.11-7.69C5.70-8.21 5.70-8.81 6.09-9.32L9.55-13.72C10.17-14.53 10.50-14.70 11.39-14.70ZM11.30-10.55C10.16-10.55 9.22-9.61 9.22-8.46C9.22-7.32 10.16-6.39 11.30-6.39C12.45-6.39 13.37-7.32 13.37-8.46C13.37-9.61 12.45-10.55 11.30-10.55ZM24.83-10.55C23.68-10.55 22.75-9.61 22.75-8.46C22.75-7.32 23.68-6.39 24.83-6.39C25.97-6.39 26.91-7.32 26.91-8.46C26.91-9.61 25.97-10.55 24.83-10.55ZM18.06-8.04C16.92-8.04 15.98-7.10 15.98-5.96C15.98-4.82 16.92-3.89 18.06-3.89C19.21-3.89 20.14-4.82 20.14-5.96C20.14-7.10 19.21-8.04 18.06-8.04Z" fill="currentColor"/>
</svg>