<svg xmlns="http://www.w3.org/2000/svg" viewBox="0 0 24 24" width="24" height="24">
  
  <path transform="matrix(0.8440487965710518, 0, 0, 0.8440487965710518, -0.5222551928783385, 19.131552917903065)" d="M7.37 2.98L22.30 2.98C25.09 2.98 26.68 1.39 26.68-1.39L26.68-15.50C26.68-18.29 25.09-19.88 22.30-19.88L7.37-19.88C4.58-19.88 2.99-18.29 2.99-15.50L2.99-1.39C2.99 1.39 4.58 2.98 7.37 2.98ZM14.84-9.53C13.70-9.53 12.79-10.43 12.79-11.58C12.79-12.70 13.70-13.62 14.84-13.62C15.96-13.62 16.88-12.70 16.88-11.58C16.88-10.43 15.96-9.53 14.84-9.53ZM10.97-3.30C9.84-3.30 8.92-4.22 8.92-5.36C8.92-6.49 9.84-7.39 10.97-7.39C12.12-7.39 13.02-6.49 13.02-5.36C13.02-4.22 12.12-3.30 10.97-3.30ZM18.70-3.30C17.55-3.30 16.65-4.22 16.65-5.36C16.65-6.49 17.55-7.39 18.70-7.39C19.83-7.39 20.74-6.49 20.74-5.36C20.74-4.22 19.83-3.30 18.70-3.30Z" fill="currentColor"/>
</svg>