<svg xmlns="http://www.w3.org/2000/svg" viewBox="0 0 24 24" width="24" height="24">
  
  <path transform="matrix(0.7069870201601768, 0, 0, 0.7069870201601768, 0.5169842584921291, 18.014913007456503)" d="M16.24-14.02C17.16-14.02 17.92-14.77 17.92-15.68L17.92-20.99C17.92-21.90 17.16-22.65 16.24-22.65C15.33-22.65 14.58-21.90 14.58-20.99L14.58-15.68C14.58-14.77 15.33-14.02 16.24-14.02ZM20.13-12.40C20.79-11.75 21.84-11.75 22.49-12.40L26.25-16.15C26.89-16.80 26.89-17.86 26.25-18.50C25.59-19.16 24.54-19.16 23.88-18.50L20.13-14.75C19.49-14.11 19.49-13.04 20.13-12.40ZM12.35-12.40C13.00-13.04 13.00-14.11 12.35-14.75L8.60-18.50C7.95-19.16 6.89-19.16 6.25-18.50C5.59-17.86 5.59-16.80 6.25-16.15L10.00-12.40C10.64-11.75 11.71-11.75 12.35-12.40ZM21.75-8.51C21.75-7.58 22.50-6.84 23.41-6.84L28.72-6.84C29.64-6.84 30.39-7.59 30.39-8.51C30.39-9.42 29.64-10.17 28.72-10.17L23.41-10.17C22.50-10.17 21.75-9.42 21.75-8.51ZM10.73-8.51C10.73-9.42 9.98-10.17 9.07-10.17L3.76-10.17C2.85-10.17 2.10-9.42 2.10-8.51C2.10-7.59 2.85-6.84 3.76-6.84L9.07-6.84C9.98-6.84 10.73-7.58 10.73-8.51ZM12.35-4.62C11.71-5.26 10.64-5.26 10.00-4.62L6.25-0.87C5.59-0.21 5.59 0.84 6.25 1.50C6.89 2.14 7.95 2.14 8.60 1.50L12.35-2.26C13.00-2.91 13.00-3.96 12.35-4.62ZM20.13-4.62C19.49-3.96 19.49-2.91 20.13-2.26L23.88 1.50C24.54 2.14 25.61 2.14 26.25 1.50C26.89 0.84 26.89-0.21 26.25-0.87L22.49-4.62C21.84-5.26 20.79-5.26 20.13-4.62ZM16.24-3C15.33-3 14.58-2.25 14.58-1.34L14.58 3.97C14.58 4.89 15.33 5.64 16.24 5.64C17.16 5.64 17.92 4.89 17.92 3.97L17.92-1.34C17.92-2.25 17.16-3 16.24-3Z" fill="currentColor"/>
</svg>