<svg xmlns="http://www.w3.org/2000/svg" viewBox="0 0 24 24" width="24" height="24">
  
  <path transform="matrix(0.8333333333333334, 0, 0, 0.8333333333333334, 1.2236328125, 19.16796875)" d="M9.57 3.40C10.28 3.40 11.02 3.07 11.53 2.58L15.42-1.21C15.95-1.71 16.15-2.12 16.15-2.75C16.15-3.82 15.27-4.54 14.31-4.54C13.65-4.54 13.23-4.34 12.76-3.77L12.19-3.13L11.32-2.02L11.50-4.44L11.50-11.92C11.50-15.16 13.04-16.86 15.47-16.86C17.67-16.86 19.17-15.41 19.17-13.24C19.17-11.24 17.85-9.87 15.94-9.87C15.19-9.87 14.84-9.96 14.51-9.96C13.50-9.96 12.88-9.25 12.88-8.37C12.88-7.68 13.23-7.13 13.82-6.75C14.37-6.40 15.13-6.22 15.97-6.22C20.12-6.22 22.88-9.06 22.88-13.24C22.88-17.55 19.90-20.60 15.47-20.60C10.61-20.60 7.64-17.57 7.64-12.39L7.64-4.44L7.82-2.02L6.95-3.12L6.38-3.76C5.91-4.34 5.48-4.54 4.83-4.54C3.86-4.54 2.99-3.81 2.99-2.74C2.99-2.11 3.20-1.70 3.71-1.21L7.61 2.58C8.12 3.07 8.86 3.40 9.57 3.40Z" fill="currentColor"/>
</svg>