<svg xmlns="http://www.w3.org/2000/svg" viewBox="0 0 24 24" width="24" height="24">
  <title>questionmark.key.filled</title>
  <path transform="matrix(0.5435226601218139, 0, 0, 0.5435226601218139, 0.3758660416379884, 16.509539570698177)" d="M9.63-4.01C10.73-4.01 11.47-4.52 11.72-5.51C11.73-5.58 11.75-5.67 11.77-5.73C11.96-6.79 12.46-7.29 14.44-8.47C16.64-9.80 17.71-11.31 17.71-13.51C17.71-17.20 14.70-19.49 10.27-19.49C7.00-19.49 4.46-18.21 3.45-16.27C3.14-15.70 2.99-15.11 2.99-14.52C2.98-13.25 3.83-12.41 5.19-12.41C6.18-12.41 7.02-12.90 7.42-13.77C7.92-15.05 8.81-15.57 10.02-15.57C11.46-15.57 12.56-14.70 12.56-13.42C12.56-12.06 11.91-11.40 9.98-10.24C8.39-9.27 7.36-8.14 7.36-6.47L7.36-6.20C7.36-4.89 8.27-4.01 9.63-4.01ZM39.79-8.46C39.79-11.70 37.20-14.29 33.98-14.29C31.72-14.29 29.70-13.01 28.73-10.98L21.25-10.98C20.89-10.98 20.52-10.86 20.26-10.58L18.84-9.01C18.54-8.66 18.52-8.09 18.90-7.70L21.45-5.14C21.88-4.71 22.55-4.72 22.99-5.16L24.07-6.23L25.75-4.56C26.17-4.14 26.85-4.14 27.28-4.57L28.77-6.04C29.93-3.87 31.80-2.65 33.98-2.65C37.20-2.65 39.79-5.24 39.79-8.46ZM34.75-8.39C34.75-9.15 35.37-9.79 36.14-9.79C36.94-9.79 37.55-9.16 37.55-8.39C37.55-7.63 36.91-7.00 36.14-7.00C35.37-7.00 34.75-7.63 34.75-8.39ZM9.69 2.89C11.20 2.89 12.43 1.73 12.43 0.28C12.43-1.17 11.20-2.32 9.69-2.32C8.18-2.32 6.96-1.17 6.96 0.28C6.96 1.73 8.18 2.89 9.69 2.89Z" fill="currentColor"/>
</svg>