<svg xmlns="http://www.w3.org/2000/svg" viewBox="0 0 24 24" width="24" height="24">
  
  <path transform="matrix(0.6412120061224436, 0, 0, 0.6412120061224436, 0.654957627782218, 17.429011809649985)" d="M16.51-22.88C8.55-22.88 2.10-16.42 2.10-8.46C2.10-0.52 8.55 5.94 16.51 5.94C22.57 5.94 27.77 2.18 29.91-3.13C28.93-2.88 27.96-3.12 27.25-3.70C25.41 0.41 21.29 3.28 16.51 3.28C10.03 3.28 4.76-1.98 4.76-8.46C4.76-14.94 10.03-20.21 16.51-20.21C21.29-20.21 25.41-17.33 27.25-13.21C27.96-13.79 28.95-14.03 29.89-13.79C27.77-19.10 22.58-22.88 16.51-22.88ZM16.51 1.20C21.84 1.20 26.18-3.14 26.18-8.46C26.18-13.79 21.84-18.13 16.51-18.13C11.19-18.13 6.83-13.79 6.83-8.46C6.83-3.14 11.19 1.20 16.51 1.20ZM16.51-1.84C12.84-1.84 9.88-4.80 9.88-8.46C9.88-12.12 12.84-15.09 16.51-15.09C20.17-15.09 23.13-12.12 23.13-8.46C23.13-4.80 20.17-1.84 16.51-1.84ZM14.53-4.27C15.29-4.27 15.64-4.76 15.64-5.43L15.64-7.21L16.48-7.21L17.60-5.05C17.89-4.49 18.20-4.27 18.75-4.27C19.37-4.27 19.76-4.68 19.76-5.30C19.76-5.59 19.63-5.87 19.51-6.09L18.64-7.58C19.48-8.02 19.95-8.95 19.95-9.91C19.95-11.80 18.63-12.71 16.76-12.71L14.53-12.71C13.89-12.71 13.42-12.33 13.42-11.54L13.42-5.43C13.42-4.70 13.82-4.27 14.53-4.27ZM29.79-11.57C29.06-12.11 28.16-11.78 28.16-10.86L28.16-6.07C28.16-5.12 29.05-4.80 29.78-5.36L32.94-7.79C33.40-8.14 33.41-8.80 32.94-9.15ZM15.64-8.73L15.64-11.05L16.55-11.05C17.27-11.05 17.71-10.58 17.71-9.87C17.71-9.15 17.30-8.73 16.54-8.73Z" fill="currentColor"/>
</svg>