<svg xmlns="http://www.w3.org/2000/svg" viewBox="0 0 24 24" width="24" height="24">
  
  <path transform="matrix(0.6409711867354241, 0, 0, 0.6409711867354241, 1.4202197283182245, 16.669727277667384)" d="M30.91-8.46C30.91-16.42 24.46-22.89 16.50-22.89C8.55-22.89 2.10-16.42 2.10-8.46C2.10-2.41 5.86 2.80 11.17 4.92C10.92 3.96 11.16 2.99 11.74 2.27C7.63 0.43 4.76-3.68 4.76-8.46C4.76-14.94 10.02-20.21 16.50-20.21C22.99-20.21 28.25-14.94 28.25-8.46C28.25-3.68 25.37 0.43 21.25 2.27C21.83 2.99 22.07 3.96 21.83 4.91C27.14 2.80 30.91-2.39 30.91-8.46ZM6.84-8.46C6.84-3.14 11.18 1.20 16.50 1.20C21.83 1.20 26.17-3.14 26.17-8.46C26.17-13.78 21.83-18.14 16.50-18.14C11.18-18.14 6.84-13.78 6.84-8.46ZM14.38-4.00C13.61-4.00 13.20-4.45 13.20-5.23L13.20-11.73C13.20-12.57 13.69-13.00 14.38-13.00L16.73-13.00C18.75-13.00 20.14-12.02 20.14-10.01C20.14-8.99 19.65-7.99 18.76-7.51L19.69-5.95C19.82-5.71 19.95-5.41 19.95-5.09C19.95-4.42 19.52-4.00 18.88-4.00C18.28-4.00 17.94-4.22 17.65-4.82L16.45-7.13L15.57-7.13L15.57-5.23C15.57-4.52 15.20-4.00 14.38-4.00ZM15.57-8.75L16.51-8.75C17.31-8.75 17.75-9.20 17.75-9.96C17.75-10.70 17.29-11.21 16.52-11.21L15.57-11.21ZM19.61 4.80C20.14 4.09 19.82 3.19 18.90 3.19L14.11 3.19C13.16 3.19 12.84 4.08 13.39 4.80L15.83 7.97C16.18 8.43 16.84 8.44 17.19 7.97Z" fill="currentColor"/>
</svg>