<svg xmlns="http://www.w3.org/2000/svg" viewBox="0 0 24 24" width="24" height="24">
  <title>r3.button.angledbottom.horizontal.right</title>
  <path transform="matrix(0.6253817026994015, 0, 0, 0.6253817026994015, 0.13118358373030414, 17.13397246792119)" d="M2.99-7.21C2.99-4.38 3.59-2.93 5.67-1.83L12.15 1.57C14.80 2.96 16.88 3.32 19.84 2.44L29.91-0.53C33.40-1.55 34.97-3.77 34.97-7.21L34.97-14.99C34.97-17.68 33.32-19.34 30.63-19.34L7.32-19.34C4.64-19.34 2.99-17.70 2.99-15ZM6.61-7.21L6.61-14.52C6.61-15.27 7.08-15.73 7.82-15.73L30.14-15.73C30.89-15.73 31.35-15.26 31.35-14.51L31.35-7.21C31.35-5.39 30.71-4.49 28.82-3.91L19.42-1.10C17.10-0.40 15.93-0.56 14.10-1.51L7.85-4.75C6.89-5.24 6.61-5.91 6.61-7.21ZM22.25-4.73C23.96-4.73 25.18-5.74 25.18-7.38C25.18-8.59 24.50-9.36 23.53-9.49L23.53-9.54C24.30-9.74 24.93-10.55 24.93-11.59C24.93-13.15 23.80-14.05 22.20-14.05C21.05-14.05 19.97-13.45 19.65-12.41C19.59-12.21 19.57-12 19.57-11.80C19.57-11.39 19.82-10.97 20.44-10.97C20.87-10.97 21.26-11.11 21.40-11.59C21.50-12.01 21.74-12.42 22.21-12.42C22.75-12.42 22.95-11.89 22.95-11.37C22.95-10.76 22.68-10.17 21.98-10.17L21.86-10.17C21.33-10.17 21.06-9.89 21.06-9.45C21.06-9 21.32-8.72 21.86-8.72L22.00-8.72C22.77-8.72 23.13-8.30 23.13-7.51C23.13-6.95 22.88-6.36 22.24-6.36C21.74-6.36 21.48-6.73 21.34-7.13C21.18-7.59 20.86-7.83 20.39-7.83C19.82-7.83 19.44-7.49 19.44-6.91C19.44-6.69 19.48-6.48 19.54-6.29C19.86-5.27 21-4.73 22.25-4.73ZM13.78-4.78C14.46-4.78 14.84-5.21 14.84-5.92L14.84-8.12L15.41-8.12L16.22-5.71C16.42-5.09 16.77-4.78 17.32-4.78C17.89-4.78 18.35-5.20 18.33-5.85C18.32-6.06 18.27-6.22 18.19-6.45L17.39-8.57C18.13-9.06 18.43-10.04 18.43-10.93C18.43-12.87 17.34-13.83 15.52-13.83L13.77-13.83C13.07-13.83 12.70-13.42 12.70-12.70L12.70-5.92C12.70-5.21 13.07-4.78 13.78-4.78ZM14.84-9.59L14.84-12.21L15.33-12.21C15.96-12.21 16.24-11.53 16.24-10.90C16.24-10.23 15.98-9.59 15.32-9.59Z" fill="currentColor"/>
</svg>