<svg xmlns="http://www.w3.org/2000/svg" viewBox="0 0 24 24" width="24" height="24">
  <title>recordingtape</title>
  <path transform="matrix(0.5244826879737758, 0, 0, 0.5244826879737758, 0.8998156115550093, 16.434542102028274)" d="M2.10-8.46C2.10-3.75 5.91 0.06 10.62 0.06L31.72 0.06C36.42 0.06 40.23-3.76 40.23-8.46C40.23-13.17 36.42-16.97 31.72-16.97C27.01-16.97 23.19-13.17 23.19-8.46C23.19-6.70 23.77-5.05 24.76-3.71L17.57-3.71C18.56-5.05 19.14-6.70 19.14-8.46C19.14-13.17 15.32-16.97 10.62-16.97C5.91-16.97 2.10-13.17 2.10-8.46ZM5.87-8.46C5.87-11.09 7.99-13.21 10.62-13.21C13.24-13.21 15.35-11.09 15.35-8.46C15.35-5.84 13.24-3.71 10.62-3.71C7.99-3.71 5.87-5.84 5.87-8.46ZM26.96-8.46C26.96-11.09 29.09-13.21 31.72-13.21C34.34-13.21 36.46-11.09 36.46-8.46C36.46-5.84 34.34-3.71 31.72-3.71C29.09-3.71 26.96-5.84 26.96-8.46Z" fill="currentColor"/>
</svg>