<svg xmlns="http://www.w3.org/2000/svg" viewBox="0 0 24 24" width="24" height="24">
  
  <path transform="matrix(0.6617552022747835, 0, 0, 0.6617552022747835, 0.02248933695230715, 17.60294687863513)" d="M5.41-13.77L30.79-13.77C32.29-13.77 33.21-14.71 33.21-16.25L33.21-19.02C33.21-20.57 32.29-21.50 30.79-21.50L5.41-21.50C3.91-21.50 2.99-20.57 2.99-19.02L2.99-16.25C2.99-14.71 3.91-13.77 5.41-13.77ZM5.88-16.21C5.59-16.21 5.43-16.37 5.43-16.71L5.43-18.59C5.43-18.90 5.59-19.07 5.88-19.07L30.30-19.07C30.61-19.07 30.77-18.90 30.77-18.59L30.77-16.71C30.77-16.37 30.61-16.21 30.30-16.21ZM5.41-4.59L30.79-4.59C32.29-4.59 33.21-5.54 33.21-7.08L33.21-9.86C33.21-11.39 32.29-12.34 30.79-12.34L5.41-12.34C3.91-12.34 2.99-11.39 2.99-9.86L2.99-7.08C2.99-5.54 3.91-4.59 5.41-4.59ZM5.88-7.03C5.59-7.03 5.43-7.21 5.43-7.54L5.43-9.42C5.43-9.73 5.59-9.90 5.88-9.90L30.30-9.90C30.61-9.90 30.77-9.73 30.77-9.42L30.77-7.54C30.77-7.21 30.61-7.03 30.30-7.03ZM5.41 4.57L30.79 4.57C32.29 4.57 33.21 3.62 33.21 2.09L33.21-0.68C33.21-2.23 32.29-3.18 30.79-3.18L5.41-3.18C3.91-3.18 2.99-2.23 2.99-0.68L2.99 2.09C2.99 3.62 3.91 4.57 5.41 4.57ZM5.88 2.13C5.59 2.13 5.43 1.96 5.43 1.63L5.43-0.25C5.43-0.56 5.59-0.74 5.88-0.74L30.30-0.74C30.61-0.74 30.77-0.56 30.77-0.25L30.77 1.63C30.77 1.96 30.61 2.13 30.30 2.13Z" fill="currentColor"/>
</svg>