<svg xmlns="http://www.w3.org/2000/svg" viewBox="0 0 24 24" width="24" height="24">
  <title>rectangle.on.rectangle.slash.fill</title>
  <path transform="matrix(0.643782220545706, 0, 0, 0.643782220545706, 0.07619766125990202, 17.435684647302907)" d="M31.63 5.96C32.03 6.36 32.70 6.36 33.08 5.96C33.47 5.55 33.48 4.91 33.08 4.51L5.72-22.85C5.31-23.25 4.65-23.25 4.24-22.85C3.86-22.45 3.86-21.79 4.24-21.39ZM9.38-21.55L13.37-17.54C13.59-17.55 13.84-17.57 14.06-17.57L27.64-17.57L27.64-17.61C27.48-20.13 25.93-21.55 23.29-21.55ZM2.99-5.79C2.99-3.07 4.48-1.51 7.14-1.43L7.28-1.43L7.28-11.13C7.28-12.64 7.65-13.93 8.34-14.94L3.62-19.66C3.21-19.02 2.99-18.19 2.99-17.18ZM15.41-15.50L33.52 2.60C33.88 1.96 34.05 1.17 34.05 0.26L34.05-11.13C34.05-13.92 32.47-15.50 29.67-15.50ZM9.34 0.26C9.34 3.05 10.93 4.62 13.72 4.62L27.91 4.62L9.87-13.43C9.52-12.82 9.34-12.05 9.34-11.13Z" fill="currentColor"/>
</svg>