<svg xmlns="http://www.w3.org/2000/svg" viewBox="0 0 24 24" width="24" height="24">
  <title>rectangle.ratio.3.to.4</title>
  <path transform="matrix(0.8752136752136752, 0, 0, 0.8752136752136752, 1.78974358974359, 19.394871794871793)" d="M7.37 2.98L15.96 2.98C18.75 2.98 20.34 1.39 20.34-1.39L20.34-15.50C20.34-18.29 18.75-19.88 15.96-19.88L7.37-19.88C4.58-19.88 2.99-18.29 2.99-15.50L2.99-1.39C2.99 1.39 4.58 2.98 7.37 2.98ZM7.86-0.64C7.03-0.64 6.61-1.02 6.61-1.90L6.61-14.99C6.61-15.87 7.03-16.24 7.86-16.24L15.47-16.24C16.29-16.24 16.71-15.87 16.71-14.99L16.71-1.90C16.71-1.02 16.29-0.64 15.47-0.64Z" fill="currentColor"/>
</svg>