<svg xmlns="http://www.w3.org/2000/svg" viewBox="0 0 24 24" width="24" height="24">
  
  <path transform="matrix(0.6787225398863741, 0, 0, 0.6787225398863741, -0.02821383989482884, 18.141674163485078)" d="M7.18-2.20L10.72-2.20C9.81-3.25 9.34-4.32 9.35-5.44L7.66-5.44C6.71-5.44 6.22-5.93 6.22-6.89L6.22-18.30C6.22-19.27 6.71-19.75 7.66-19.75L22.48-19.75C23.43-19.75 23.92-19.27 23.92-18.30L23.92-13.99C24.91-14.30 25.99-14.26 27.15-13.90L27.15-18.81C27.15-21.49 25.66-22.98 22.97-22.98L7.18-22.98C4.49-22.98 2.99-21.49 2.99-18.81L2.99-6.38C2.99-3.69 4.49-2.20 7.18-2.20ZM26.79 4.24C31.84 2.41 33.63-1.84 31.69-7.18L30.88-9.45C30.15-11.45 28.64-12.50 27.36-12.05C27-11.92 26.85-11.60 26.98-11.24L27.30-10.34C27.43-10.00 27.35-9.76 27.16-9.69C26.96-9.62 26.75-9.74 26.64-10.08L26.41-10.68C25.96-11.94 24.81-12.52 23.67-12.11C23.10-11.91 22.89-11.50 23.07-10.98L23.54-9.73C23.66-9.38 23.59-9.15 23.40-9.09C23.18-9.02 22.99-9.12 22.86-9.47L22.43-10.64C21.94-11.99 20.88-12.49 19.70-12.07C19.14-11.86 18.91-11.45 19.10-10.96L20.03-8.43C20.14-8.10 20.06-7.88 19.89-7.82C19.68-7.75 19.48-7.85 19.36-8.19L16.42-16.27C16.07-17.21 15.19-17.65 14.33-17.34C13.44-17.03 13.05-16.13 13.41-15.18L17.59-3.70C17.67-3.48 17.59-3.33 17.47-3.29C17.37-3.26 17.24-3.28 17.11-3.43L14.38-6.39C13.88-6.94 13.24-7.24 12.47-6.96C11.53-6.61 11.10-5.75 11.41-4.85C11.52-4.57 11.67-4.32 11.82-4.13L15.87 0.80C19.14 4.76 22.82 5.68 26.79 4.24Z" fill="currentColor"/>
</svg>