<svg xmlns="http://www.w3.org/2000/svg" viewBox="0 0 24 24" width="24" height="24">
  
  <path transform="matrix(0.7934294126762746, 0, 0, 0.7934294126762746, 0.33565783356578316, 18.713156671315666)" d="M14.70 4.14C21.66 4.14 27.30-1.50 27.30-8.46C27.30-15.42 21.66-21.06 14.70-21.06C7.73-21.06 2.10-15.42 2.10-8.46C2.10-1.50 7.73 4.14 14.70 4.14ZM14.70 0.48C9.75 0.48 5.75-3.52 5.75-8.46C5.75-13.41 9.75-17.40 14.70-17.40C19.64-17.40 23.64-13.41 23.64-8.46C23.64-3.52 19.64 0.48 14.70 0.48ZM13.18-13.29L13.18-12.16L10.72-12.16C8.68-12.16 7.34-10.96 7.34-9.09L7.34-8.40C7.34-7.92 7.72-7.52 8.19-7.52C8.68-7.52 9.07-7.91 9.07-8.40L9.07-8.99C9.07-9.86 9.67-10.43 10.59-10.43L13.18-10.43L13.18-9.26C13.18-8.84 13.46-8.54 13.91-8.54C14.11-8.54 14.31-8.61 14.45-8.74L16.83-10.75C17.19-11.05 17.19-11.51 16.83-11.81L14.45-13.82C14.32-13.93 14.11-14.00 13.91-14.00C13.46-14.00 13.18-13.72 13.18-13.29ZM19.93-9.33C20.47-9.33 20.82-9.69 20.82-10.24L20.82-12.86C20.82-13.49 20.40-13.92 19.79-13.92C19.39-13.92 19.13-13.80 18.74-13.51L17.92-12.88C17.71-12.73 17.61-12.50 17.61-12.28C17.61-11.92 17.92-11.61 18.30-11.61C18.46-11.61 18.62-11.67 18.76-11.79L19.01-11.99L19.01-10.24C19.01-9.69 19.37-9.33 19.93-9.33ZM13.59-2.84L13.59-3.97L17.39-3.97C19.45-3.97 20.80-5.19 20.80-7.04L20.80-7.73C20.80-8.21 20.40-8.60 19.92-8.60C19.43-8.60 19.04-8.21 19.04-7.73L19.04-7.15C19.04-6.28 18.45-5.71 17.52-5.71L13.59-5.71L13.59-6.87C13.59-7.29 13.30-7.58 12.86-7.58C12.67-7.58 12.46-7.51 12.32-7.38L9.94-5.38C9.57-5.09 9.59-4.61 9.95-4.31L12.32-2.32C12.46-2.20 12.66-2.12 12.86-2.12C13.30-2.12 13.59-2.40 13.59-2.84Z" fill="currentColor"/>
</svg>