<svg xmlns="http://www.w3.org/2000/svg" viewBox="0 0 24 24" width="24" height="24">
  <title>road.lanes</title>
  <path transform="matrix(0.5306015751262619, 0, 0, 0.5306015751262619, 0.4128390878528885, 16.483168777336346)" d="M21.52-13.89L22.13-13.89C22.90-13.89 23.51-14.47 23.51-15.27L23.51-16.70C23.51-17.48 22.90-18.08 22.13-18.08L21.52-18.08C20.74-18.08 20.13-17.48 20.13-16.70L20.13-15.27C20.13-14.47 20.74-13.89 21.52-13.89ZM4.49 1.18L6.11 1.18C7.10 1.18 7.63 0.66 7.90-0.02C10.13-5.55 12.35-11.11 14.58-16.64C14.87-17.37 14.47-18.06 13.71-18.06L12.86-18.06C12.28-18.06 11.80-17.78 11.51-17.20C8.73-11.77 5.96-6.34 3.19-0.91C2.70 0.05 3.13 1.18 4.49 1.18ZM37.56 1.18L39.18 1.18C40.55 1.18 40.98 0.05 40.49-0.91C37.71-6.34 34.93-11.78 32.17-17.20C31.86-17.79 31.38-18.06 30.82-18.06L29.96-18.06C29.20-18.06 28.79-17.37 29.09-16.64C31.31-11.11 33.55-5.55 35.78-0.02C36.05 0.66 36.57 1.18 37.56 1.18ZM21.52-6.84L22.13-6.84C22.90-6.84 23.51-7.43 23.51-8.23L23.51-10.64C23.51-11.43 22.90-12.02 22.13-12.02L21.52-12.02C20.74-12.02 20.13-11.43 20.13-10.64L20.13-8.23C20.13-7.43 20.74-6.84 21.52-6.84ZM21.52 1.18L22.13 1.18C22.90 1.18 23.51 0.59 23.51-0.21L23.51-3.57C23.51-4.36 22.90-4.96 22.13-4.96L21.52-4.96C20.74-4.96 20.13-4.36 20.13-3.57L20.13-0.21C20.13 0.59 20.74 1.18 21.52 1.18Z" fill="currentColor"/>
</svg>