<svg xmlns="http://www.w3.org/2000/svg" viewBox="0 0 24 24" width="24" height="24">
  
  <path transform="matrix(0.6960304513322458, 0, 0, 0.6960304513322458, 0.5399673735725936, 18.88749533067108)" d="M16.46-7.71C22.96-7.71 30.64-10.27 30.64-13.38C30.64-16.48 24.30-19.00 16.46-19.00C8.61-19.00 2.27-16.48 2.27-13.38C2.27-10.27 9.97-7.71 16.46-7.71ZM16.46-13.32C13.82-13.32 12.29-14.10 12.29-15.09C12.29-16.09 13.80-16.85 16.46-16.85C19.11-16.85 20.64-16.08 20.64-15.09C20.64-14.10 19.10-13.32 16.46-13.32ZM16.46-14.63C17.93-14.63 18.74-14.84 18.74-15.11C18.74-15.36 17.94-15.60 16.46-15.60C14.98-15.60 14.18-15.36 14.18-15.11C14.18-14.84 14.99-14.63 16.46-14.63ZM11.48-10.38C10.64-10.38 9.93-10.71 9.93-11.16C9.93-11.57 10.64-11.92 11.48-11.92C12.35-11.92 13.07-11.57 13.07-11.16C13.07-10.71 12.35-10.38 11.48-10.38ZM21.45-10.38C20.58-10.38 19.88-10.71 19.88-11.16C19.88-11.57 20.58-11.92 21.45-11.92C22.29-11.92 23.00-11.57 23.00-11.16C23.00-10.71 22.29-10.38 21.45-10.38ZM16.46-9.90C15.61-9.90 14.91-10.24 14.91-10.66C14.91-11.10 15.61-11.45 16.46-11.45C17.32-11.45 18.02-11.10 18.02-10.66C18.02-10.24 17.32-9.90 16.46-9.90ZM7.71-0.83C8.17-0.70 8.46-0.91 8.46-1.37L8.46-2.46C8.46-3.28 9.02-3.63 9.76-3.43C11.38-2.99 13.98-2.67 16.49-2.67C19.01-2.67 21.60-2.99 23.23-3.43C23.96-3.63 24.53-3.28 24.53-2.46L24.53-1.39C24.53-0.93 24.81-0.71 25.27-0.86C28.65-1.93 30.83-3.67 30.83-5.86L30.83-10.30C28.32-7.93 23.24-5.98 16.46-5.98C9.73-5.98 4.61-7.93 2.10-10.30L2.10-5.86C2.10-3.66 4.30-1.91 7.71-0.83Z" fill="currentColor"/>
</svg>