<svg xmlns="http://www.w3.org/2000/svg" viewBox="0 0 24 24" width="24" height="24">
  <title>rt.circle.fill</title>
  <path transform="matrix(0.7934294126762746, 0, 0, 0.7934294126762746, 0.33565783356578316, 18.713156671315666)" d="M14.70 4.14C21.66 4.14 27.30-1.50 27.30-8.46C27.30-15.42 21.66-21.06 14.70-21.06C7.75-21.06 2.10-15.42 2.10-8.46C2.10-1.50 7.75 4.14 14.70 4.14ZM18.12-3.81C17.52-3.81 17.03-4.29 17.03-4.90L17.03-11.20L16.11-11.20C15.63-11.20 15.23-11.60 15.23-12.09C15.23-12.56 15.63-12.96 16.11-12.96L20.10-12.96C20.58-12.96 20.98-12.56 20.98-12.09C20.98-11.60 20.58-11.20 20.10-11.20L19.21-11.20L19.21-4.90C19.21-4.29 18.71-3.81 18.12-3.81ZM9.76-3.80C9.05-3.80 8.67-4.22 8.67-4.95L8.67-11.81C8.67-12.54 9.05-12.95 9.76-12.95L11.52-12.95C13.37-12.95 14.48-11.98 14.48-10.02C14.48-9.12 14.18-8.12 13.43-7.62L14.23-5.48C14.32-5.25 14.36-5.10 14.37-4.88C14.39-4.22 13.93-3.80 13.35-3.80C12.79-3.80 12.43-4.10 12.23-4.72L11.41-7.16L10.84-7.16L10.84-4.95C10.84-4.24 10.46-3.80 9.76-3.80ZM10.84-8.66L11.32-8.66C12-8.66 12.26-9.30 12.26-9.97C12.26-10.63 11.96-11.31 11.33-11.31L10.84-11.31Z" fill="currentColor"/>
</svg>