<svg xmlns="http://www.w3.org/2000/svg" viewBox="0 0 24 24" width="24" height="24">
  <title>rublesign.bank.building.fill</title>
  <path transform="matrix(0.6865111289890051, 0, 0, 0.6865111289890051, -0.05148833467417546, 17.81255028157683)" d="M4.43 5.68L30.67 5.68C31.44 5.68 32.12 5.05 32.12 4.24C32.12 3.46 31.44 2.80 30.67 2.80L30.08 2.80L30.08 1.70C30.08 1.05 29.67 0.66 29.04 0.66L28.58 0.66L28.58-13.15L29.52-13.15C30.48-13.15 31.04-13.86 31.04-14.58C31.04-15.11 30.75-15.59 30.14-15.95L19.45-22.11C18.91-22.42 18.28-22.62 17.70-22.62C17.11-22.62 16.48-22.42 15.94-22.11L5.25-15.95C4.64-15.59 4.35-15.11 4.35-14.58C4.35-13.86 4.91-13.15 5.88-13.15L6.82-13.15L6.82 0.66L6.36 0.66C5.72 0.66 5.32 1.05 5.32 1.70L5.32 2.80L4.43 2.80C3.66 2.80 2.99 3.46 2.99 4.24C2.99 5.04 3.66 5.68 4.43 5.68ZM15.55-1.56C14.77-1.56 14.26-2.09 14.26-2.92L14.26-3.38L13.10-3.38C12.88-3.38 12.74-3.50 12.74-3.71C12.74-3.93 12.88-4.07 13.10-4.07L14.26-4.07L14.26-5.60L13.10-5.60C12.87-5.60 12.73-5.74 12.73-5.96C12.73-6.18 12.87-6.32 13.10-6.32L14.26-6.32L14.26-11.11C14.26-11.96 14.77-12.53 15.61-12.53L18.84-12.53C21-12.53 22.54-11.16 22.54-9.05C22.54-7.03 20.93-5.60 18.67-5.60L16.86-5.60L16.86-4.07L19.36-4.07C19.57-4.07 19.71-3.93 19.71-3.71C19.71-3.50 19.57-3.38 19.36-3.38L16.86-3.38L16.86-2.92C16.86-2.09 16.36-1.56 15.55-1.56ZM16.86-7.51L18.02-7.51C19.17-7.51 19.89-8.07 19.89-9.02C19.89-9.89 19.25-10.51 18.04-10.51L16.86-10.51Z" fill="currentColor"/>
</svg>