<svg xmlns="http://www.w3.org/2000/svg" viewBox="0 0 24 24" width="24" height="24">
  
  <path transform="matrix(0.6269899583639481, 0, 0, 0.6269899583639481, 0.12637766348273316, 17.102865540044085)" d="M8.27-9.50C10.70-9.50 10.88-10.38 12.07-10.38C12.36-10.38 12.57-10.32 12.87-10.16L13.95-9.57C14.25-9.40 14.50-9.26 14.70-9.15L14.82-9.15C15.20-10.48 15.53-11.13 16.39-11.79L16.39-11.92L14.66-12.83C13.72-13.32 13.57-13.69 13.57-14.78C13.57-17.73 11.21-20.09 8.27-20.09C5.33-20.09 2.99-17.73 2.99-14.78C2.99-11.85 5.32-9.50 8.27-9.50ZM8.26-12.61C7.08-12.61 6.12-13.61 6.12-14.79C6.12-16.01 7.08-16.98 8.26-16.98C9.47-16.98 10.44-16.01 10.44-14.79C10.44-13.61 9.47-12.61 8.26-12.61ZM8.27 3.81C11.23 3.81 13.57 1.48 13.57-1.46C13.57-2.47 13.72-2.93 14.61-3.40L34.89-14.13C34.41-16.29 32.07-16.90 28.80-15.73L18.29-11.93C16.70-11.34 15.94-10.54 15.53-9.04L15.27-8.10C15.07-7.37 14.74-7.10 13.59-6.49L12.87-6.11C12.50-5.91 12.33-5.86 12.06-5.86C10.98-5.86 10.70-6.76 8.27-6.76C5.33-6.76 2.99-4.39 2.99-1.46C2.99 1.48 5.32 3.81 8.27 3.81ZM18.50-8.04C18-8.04 17.54-8.47 17.54-9C17.54-9.55 18-9.97 18.50-9.97C19.03-9.97 19.49-9.55 19.49-9C19.49-8.47 19.03-8.04 18.50-8.04ZM28.80-0.66C32.09 0.54 34.39-0.05 34.89-2.26L24.47-7.76L18.56-4.62L18.56-4.41ZM8.26 0.70C7.08 0.70 6.12-0.28 6.12-1.48C6.12-2.68 7.08-3.66 8.26-3.66C9.47-3.66 10.44-2.68 10.44-1.48C10.44-0.28 9.47 0.70 8.26 0.70Z" fill="currentColor"/>
</svg>