<svg xmlns="http://www.w3.org/2000/svg" viewBox="0 0 24 24" width="24" height="24">
  
  <path transform="matrix(0.7896635217660892, 0, 0, 0.7896635217660892, 0.11221064327794283, 19.12252486885275)" d="M2.86-5.12C3.50-4.45 4.52-4.46 5.18-5.12L7.24-7.18C15.48-15.42 18.21-17.82 18.91-17.13C19.49-16.56 17.73-14.67 14.39-10.75C11.18-6.96 7.21-2.54 10.09 0.35C12.71 3 16.72-0.42 19.71-3.27C22.63-6.06 23.41-6.66 23.43-6.67C23.46-6.63 22.89-6.23 22.00-4.66C20.88-2.74 19.31 0.02 21.12 1.83C22.50 3.21 24.63 2.54 27.14 0.04C27.87-0.69 27.91-1.71 27.25-2.38C26.60-3.01 25.62-3.01 24.95-2.39C24.55-2.02 24.13-1.61 23.81-1.29C24.11-1.71 24.47-2.29 24.79-2.82C26.66-5.95 27.04-7.68 25.77-8.93C24.19-10.50 21.64-9.62 17.40-5.64C14.57-2.96 12.79-1.62 12.40-1.99C12-2.39 13.41-4.63 16.86-8.63C22.07-14.63 23.39-17.30 21.21-19.45C18.48-22.17 15.80-20.36 4.93-9.49L2.87-7.43C2.23-6.79 2.24-5.78 2.86-5.12Z" fill="currentColor"/>
</svg>