<svg xmlns="http://www.w3.org/2000/svg" viewBox="0 0 24 24" width="24" height="24">
  
  <path transform="matrix(0.7649783355744808, 0, 0, 0.7649783355744808, 1.5517705064993272, 18.45898700134469)" d="M7.36 4.63L19.97 4.63C22.75 4.63 24.33 3.04 24.33 0.25L24.33-17.13C24.33-19.93 22.75-21.52 19.97-21.52L12.94-21.52C11.23-21.52 9.87-21 8.86-19.96L4.43-15.53C3.49-14.60 2.99-13.29 2.99-11.75L2.99 0.25C2.99 3.04 4.57 4.63 7.36 4.63ZM10.85-15.93C10.85-16.48 11.31-16.93 11.86-16.93C12.42-16.93 12.86-16.50 12.86-15.93L12.86-12.45C12.86-11.89 12.41-11.45 11.86-11.45C11.31-11.45 10.85-11.89 10.85-12.45ZM13.48-15.93C13.48-16.48 13.93-16.93 14.51-16.93C15.06-16.93 15.48-16.48 15.48-15.93L15.48-12.45C15.48-11.89 15.04-11.45 14.51-11.45C13.93-11.45 13.48-11.89 13.48-12.45ZM16.13-15.93C16.13-16.48 16.56-16.93 17.11-16.93C17.67-16.93 18.11-16.50 18.11-15.93L18.12-12.45C18.12-11.89 17.66-11.45 17.11-11.45C16.58-11.45 16.13-11.89 16.13-12.45ZM18.75-15.93C18.75-16.48 19.20-16.93 19.75-16.93C20.31-16.93 20.74-16.50 20.74-15.93L20.74-12.46C20.74-11.89 20.30-11.45 19.75-11.45C19.20-11.45 18.75-11.91 18.75-12.46Z" fill="currentColor"/>
</svg>