<svg xmlns="http://www.w3.org/2000/svg" viewBox="0 0 24 24" width="24" height="24">
  
  <path transform="matrix(0.7472270869819031, 0, 0, 0.7472270869819031, 0.21366024518388782, 18.42294220665499)" d="M11.84 3.02L19.72 3.02C21.70 3.02 22.84 1.84 22.84-0.11L22.84-4.79L26.99-4.79C28.29-4.79 29.16-5.54 29.16-6.70C29.16-7.43 28.88-7.89 28.16-8.63L17.57-19.38C17.03-19.92 16.42-20.21 15.77-20.21C15.13-20.21 14.53-19.92 13.98-19.38L3.40-8.63C2.67-7.88 2.39-7.44 2.39-6.70C2.39-5.54 3.26-4.79 4.56-4.79L8.71-4.79L8.71-0.11C8.71 1.84 9.86 3.02 11.84 3.02ZM13.10-0.73C12.77-0.73 12.54-0.96 12.54-1.29L12.54-7.57C12.54-7.84 12.45-7.95 12.18-7.95L7.96-7.95C7.91-7.95 7.89-7.97 7.89-8.00C7.89-8.03 7.89-8.05 7.92-8.09L15.64-15.84C15.68-15.88 15.74-15.90 15.77-15.90C15.82-15.90 15.87-15.88 15.90-15.84L23.63-8.09C23.66-8.05 23.67-8.03 23.67-8.00C23.67-7.97 23.65-7.95 23.59-7.95L19.38-7.95C19.10-7.95 19.01-7.84 19.01-7.57L19.01-1.29C19.01-0.97 18.77-0.73 18.46-0.73Z" fill="currentColor"/>
</svg>