<svg xmlns="http://www.w3.org/2000/svg" viewBox="0 0 24 24" width="24" height="24">
  <title>signpost.right.circle</title>
  <path transform="matrix(0.7934294126762746, 0, 0, 0.7934294126762746, 0.33565783356578316, 18.713156671315666)" d="M14.70 4.14C21.66 4.14 27.30-1.50 27.30-8.46C27.30-15.42 21.66-21.06 14.70-21.06C7.73-21.06 2.10-15.42 2.10-8.46C2.10-1.50 7.73 4.14 14.70 4.14ZM14.70 0.48C9.75 0.48 5.75-3.52 5.75-8.46C5.75-13.41 9.75-17.40 14.70-17.40C19.64-17.40 23.64-13.41 23.64-8.46C23.64-3.52 19.64 0.48 14.70 0.48ZM11.10-7.02L13.88-7.02L13.88-4.11L12.61-4.11C12.16-4.11 11.79-3.75 11.79-3.29C11.79-2.85 12.16-2.48 12.61-2.48L16.77-2.48C17.21-2.48 17.58-2.85 17.58-3.29C17.58-3.75 17.21-4.11 16.77-4.11L15.50-4.11L15.50-7.02L17.81-7.02C18.30-7.02 18.60-7.16 18.96-7.51L20.30-8.80C20.99-9.47 21-10.17 20.30-10.84L18.96-12.14C18.60-12.47 18.30-12.61 17.81-12.61L15.50-12.61L15.50-13.63C15.50-14.07 15.14-14.44 14.70-14.44C14.24-14.44 13.88-14.07 13.88-13.63L13.88-12.61L11.10-12.61C10.23-12.61 9.70-12.11 9.70-11.24L9.70-8.40C9.70-7.55 10.23-7.02 11.10-7.02Z" fill="currentColor"/>
</svg>