<svg xmlns="http://www.w3.org/2000/svg" viewBox="0 0 24 24" width="24" height="24">
  
  <path transform="matrix(0.7653213751868461, 0, 0, 0.7653213751868461, 1.188340807174888, 18.493273542600896)" d="M2.99-7.72C2.99-5.78 4.16-4.62 6.12-4.62L12.53-4.62L12.53 1.38L9.52 1.38C8.65 1.38 7.91 2.10 7.91 2.98C7.91 3.86 8.64 4.58 9.52 4.58L18.75 4.58C19.62 4.58 20.34 3.87 20.34 2.98C20.34 2.11 19.63 1.38 18.75 1.38L15.73 1.38L15.73-4.62L22.13-4.62C24.09-4.62 25.27-5.78 25.27-7.72L25.27-15.28C25.27-17.23 24.09-18.38 22.13-18.38L15.73-18.38L15.73-19.95C15.73-20.82 15.01-21.55 14.12-21.55C13.25-21.55 12.53-20.84 12.53-19.95L12.53-18.38L6.12-18.38C4.16-18.38 2.99-17.23 2.99-15.28ZM11.25-8.89C10.37-8.89 10.13-9.63 10.69-10.39L13.34-14.02C13.76-14.60 14.50-14.63 14.93-14.02L17.57-10.39C18.13-9.62 17.86-8.89 17.00-8.89Z" fill="currentColor"/>
</svg>