<svg xmlns="http://www.w3.org/2000/svg" viewBox="0 0 24 24" width="24" height="24">
  <title>simcard.fill</title>
  <path transform="matrix(0.7649783355744808, 0, 0, 0.7649783355744808, 1.5517705064993272, 18.45898700134469)" d="M7.36 4.63L19.97 4.63C22.75 4.63 24.33 3.04 24.33 0.25L24.33-11.75C24.33-13.29 23.82-14.60 22.89-15.53L18.47-19.96C17.45-21 16.10-21.52 14.38-21.52L7.36-21.52C4.57-21.52 2.99-19.93 2.99-17.13L2.99 0.25C2.99 3.04 4.57 4.63 7.36 4.63ZM7.69-7.09L7.69-9.33C7.69-10.48 8.31-11.10 9.45-11.10L14.75-11.10L14.75 0.43L12.77 0.43L12.77-6.08C12.77-6.70 12.38-7.09 11.77-7.09ZM16.62 0.43L16.62-11.10L17.89-11.10C19.02-11.10 19.65-10.48 19.65-9.33L19.65-1.34C19.65-0.19 19.02 0.43 17.89 0.43ZM7.69-1.34L7.69-5.23L10.63-5.23C10.79-5.23 10.90-5.12 10.90-4.96L10.90 0.43L9.45 0.43C8.31 0.43 7.69-0.19 7.69-1.34Z" fill="currentColor"/>
</svg>