<svg xmlns="http://www.w3.org/2000/svg" viewBox="0 0 24 24" width="24" height="24">
  <title>slider.horizontal.below.sun.max</title>
  <path transform="matrix(0.6759075907590759, 0, 0, 0.6759075907590759, 1.4732673267326728, 17.88910891089109)" d="M15.59-23.51C14.79-23.51 14.16-22.85 14.16-22.08L14.16-20.52C14.16-19.73 14.79-19.05 15.59-19.05C16.37-19.05 17.03-19.73 17.03-20.52L17.03-22.08C17.03-22.85 16.37-23.51 15.59-23.51ZM22.98-20.43C22.44-20.96 21.53-20.96 20.99-20.41L19.86-19.27C19.31-18.73 19.32-17.84 19.89-17.26C20.43-16.72 21.33-16.76 21.88-17.29L23.00-18.40C23.55-18.95 23.53-19.90 22.98-20.43ZM8.19-20.43C7.66-19.90 7.63-18.95 8.18-18.40L9.28-17.29C9.82-16.75 10.76-16.71 11.30-17.26C11.85-17.85 11.86-18.74 11.32-19.27L10.20-20.41C9.67-20.95 8.74-20.96 8.19-20.43ZM15.59-8.16C18.26-8.16 20.46-10.36 20.46-13.02C20.46-15.70 18.26-17.91 15.59-17.91C12.91-17.91 10.70-15.70 10.70-13.02C10.70-10.36 12.91-8.16 15.59-8.16ZM26.07-13.02C26.07-13.80 25.43-14.47 24.64-14.47L23.09-14.47C22.31-14.47 21.67-13.80 21.67-13.02C21.67-12.26 22.31-11.59 23.09-11.59L24.64-11.59C25.43-11.59 26.07-12.25 26.07-13.02ZM5.11-13.02C5.11-12.25 5.74-11.59 6.52-11.59L8.07-11.59C8.87-11.59 9.52-12.26 9.52-13.02C9.52-13.80 8.87-14.47 8.07-14.47L6.52-14.47C5.74-14.47 5.11-13.80 5.11-13.02ZM23.00-5.66C23.55-6.20 23.57-7.11 22.99-7.68L21.87-8.79C21.30-9.32 20.41-9.33 19.86-8.78C19.30-8.21 19.34-7.30 19.89-6.75L21-5.64C21.55-5.10 22.46-5.13 23.00-5.66ZM8.17-5.66C8.73-5.11 9.63-5.09 10.18-5.64L11.30-6.75C11.86-7.30 11.86-8.24 11.32-8.78C10.76-9.33 9.84-9.32 9.30-8.79L8.18-7.68C7.63-7.14 7.62-6.18 8.17-5.66ZM15.59-2.55C16.37-2.55 17.03-3.21 17.03-3.98L17.03-5.54C17.03-6.33 16.37-7.01 15.59-7.01C14.79-7.01 14.16-6.33 14.16-5.54L14.16-3.98C14.16-3.21 14.79-2.55 15.59-2.55ZM19.85 6.08C21.33 6.08 22.62 5.23 23.23 3.97L26.57 3.97C27.46 3.97 28.16 3.20 28.16 2.32C28.16 1.42 27.47 0.67 26.57 0.67L23.23 0.67C22.62-0.59 21.34-1.44 19.85-1.44C18.38-1.44 17.09-0.59 16.48 0.67L4.59 0.67C3.69 0.67 2.99 1.43 2.99 2.32C2.99 3.18 3.70 3.97 4.59 3.97L16.48 3.97C17.09 5.23 18.38 6.08 19.85 6.08ZM19.85 3.96C18.94 3.96 18.21 3.22 18.21 2.32C18.21 1.38 18.94 0.68 19.85 0.68C20.78 0.68 21.49 1.38 21.49 2.32C21.49 3.22 20.78 3.96 19.85 3.96Z" fill="currentColor"/>
</svg>