<svg xmlns="http://www.w3.org/2000/svg" viewBox="0 0 24 24" width="24" height="24">
  
  <path transform="matrix(0.7934294126762746, 0, 0, 0.7934294126762746, 0.33565783356578316, 18.713156671315666)" d="M14.70 4.14C21.66 4.14 27.30-1.50 27.30-8.46C27.30-15.42 21.66-21.06 14.70-21.06C7.75-21.06 2.10-15.42 2.10-8.46C2.10-1.50 7.75 4.14 14.70 4.14ZM14.70-3.33C11.86-3.33 9.56-5.63 9.56-8.46C9.56-11.30 11.86-13.59 14.70-13.59C17.54-13.59 19.83-11.30 19.83-8.46C19.83-5.63 17.54-3.33 14.70-3.33ZM14.70-6.26C15.91-6.26 16.90-7.24 16.90-8.46C16.90-9.68 15.91-10.66 14.70-10.66C13.48-10.66 12.49-9.68 12.49-8.46C12.49-7.24 13.48-6.26 14.70-6.26Z" fill="currentColor"/>
</svg>