<svg xmlns="http://www.w3.org/2000/svg" viewBox="0 0 24 24" width="24" height="24">
  <title>snowflake.circle</title>
  <path transform="matrix(0.7934294126762746, 0, 0, 0.7934294126762746, 0.33565783356578316, 18.713156671315666)" d="M14.70 4.14C21.66 4.14 27.30-1.50 27.30-8.46C27.30-15.42 21.66-21.06 14.70-21.06C7.73-21.06 2.10-15.42 2.10-8.46C2.10-1.50 7.73 4.14 14.70 4.14ZM14.70 0.48C9.75 0.48 5.75-3.52 5.75-8.46C5.75-13.41 9.75-17.40 14.70-17.40C19.64-17.40 23.64-13.41 23.64-8.46C23.64-3.52 19.64 0.48 14.70 0.48ZM11.29-3.74C11.67-3.73 11.94-4.01 11.94-4.43L11.94-5.96L12.55-6.32L14.06-7.36L13.92-5.53L13.92-4.84L12.59-4.07C12.22-3.87 12.12-3.48 12.30-3.15C12.49-2.82 12.87-2.73 13.23-2.94L13.92-3.34L13.92-2.39C13.92-1.91 14.25-1.58 14.70-1.58C15.14-1.58 15.47-1.91 15.47-2.39L15.47-3.34L16.16-2.94C16.52-2.73 16.89-2.82 17.09-3.15C17.27-3.48 17.17-3.87 16.80-4.07L15.47-4.84L15.47-5.53L15.33-7.36L16.84-6.32L17.45-5.96L17.44-4.44C17.45-4.01 17.72-3.74 18.11-3.75C18.48-3.74 18.75-4.01 18.75-4.43L18.75-5.23L19.56-4.76C19.98-4.51 20.43-4.64 20.65-5.03C20.87-5.41 20.75-5.86 20.33-6.11L19.52-6.57L20.21-6.97C20.58-7.17 20.68-7.55 20.48-7.88C20.30-8.20 19.92-8.31 19.56-8.09L18.22-7.32L17.61-7.68L15.96-8.46L17.61-9.25L18.23-9.61L19.56-8.85C19.92-8.63 20.30-8.73 20.48-9.06C20.68-9.39 20.58-9.76 20.21-9.96L19.54-10.36L20.33-10.83C20.75-11.06 20.87-11.52 20.65-11.91C20.43-12.29 19.98-12.41 19.56-12.16L18.75-11.71L18.75-12.50C18.75-12.93 18.48-13.21 18.11-13.18C17.72-13.21 17.45-12.93 17.44-12.49L17.45-10.96L16.84-10.61L15.33-9.56L15.47-11.39L15.47-12.09L16.80-12.87C17.17-13.08 17.27-13.45 17.09-13.78C16.89-14.11 16.52-14.20 16.16-13.99L15.47-13.61L15.47-14.53C15.47-15.01 15.14-15.34 14.70-15.34C14.25-15.34 13.92-15.01 13.92-14.53L13.92-13.61L13.23-13.99C12.87-14.20 12.49-14.11 12.30-13.78C12.12-13.45 12.22-13.08 12.59-12.87L13.92-12.09L13.92-11.39L14.06-9.56L12.55-10.61L11.94-10.96L11.94-12.49C11.94-12.93 11.67-13.21 11.29-13.18C10.91-13.21 10.64-12.93 10.64-12.50L10.64-11.71L9.83-12.16C9.41-12.41 8.96-12.29 8.74-11.91C8.51-11.52 8.63-11.06 9.06-10.83L9.86-10.36L9.18-9.96C8.81-9.76 8.71-9.39 8.89-9.06C9.09-8.73 9.47-8.63 9.83-8.85L11.16-9.61L11.78-9.25L13.42-8.46L11.78-7.68L11.16-7.32L9.83-8.09C9.47-8.30 9.09-8.20 8.89-7.88C8.71-7.55 8.81-7.17 9.18-6.97L9.87-6.56L9.06-6.11C8.63-5.86 8.51-5.41 8.74-5.03C8.96-4.64 9.41-4.51 9.83-4.76L10.64-5.23L10.64-4.43C10.64-4.01 10.91-3.73 11.29-3.74Z" fill="currentColor"/>
</svg>