<svg xmlns="http://www.w3.org/2000/svg" viewBox="0 0 24 24" width="24" height="24">
  <title>spatial.capture.on.hexagon.fill</title>
  <path transform="matrix(0.6604747162022704, 0, 0, 0.6604747162022704, 0.026315789473684292, 17.487616099071207)" d="M4.57-2.37L9.28 0.36C8.91-0.33 8.68-1.14 8.68-2.04L8.68-11.50C8.68-13.13 9.49-14.86 11.19-15.86L18.94-20.33L15.95-22.07C14.94-22.65 13.77-22.65 12.76-22.07L4.57-17.33C3.59-16.76 2.99-15.74 2.99-14.58L2.99-5.11C2.99-3.95 3.59-2.93 4.57-2.37ZM12.12 0.71L20.31 5.45C21.33 6.04 22.49 6.04 23.50 5.45L31.69 0.71C32.67 0.15 33.27-0.88 33.27-2.04L33.27-11.50C33.27-12.66 32.67-13.68 31.69-14.25L23.50-18.98C22.49-19.57 21.33-19.57 20.31-18.98L12.12-14.25C11.13-13.68 10.54-12.66 10.54-11.50L10.54-2.04C10.54-0.88 11.13 0.15 12.12 0.71ZM19.23-6.50C17.75-6.50 16.54-7.72 16.54-9.20C16.54-10.68 17.75-11.91 19.23-11.91C20.70-11.91 21.91-10.68 21.91-9.20C21.91-7.72 20.70-6.50 19.23-6.50ZM14.23-1.73C13.91-1.92 13.71-2.25 13.71-2.63L13.71-3.12L15.45-4.65C15.89-5.03 16.28-5.23 16.82-5.23C17.30-5.23 17.80-5.03 18.25-4.63L20.20-2.88L25.00-7.16C25.48-7.58 25.99-7.79 26.58-7.79C27.13-7.79 27.70-7.58 28.15-7.15L30.11-5.31L30.11-2.64C30.11-2.26 29.92-1.93 29.59-1.73L22.43 2.41C22.10 2.59 21.73 2.59 21.40 2.41Z" fill="currentColor"/>
</svg>