<svg xmlns="http://www.w3.org/2000/svg" viewBox="0 0 24 24" width="24" height="24">
  <title>speaker.wave.2.bubble</title>
  <path transform="matrix(0.7240842879366426, 0, 0, 0.7240842879366426, -0.16376750106067028, 17.685193042002545)" d="M11.63 5.19C12.54 5.19 13.30 4.83 14.43 3.86L18.34 0.46L24.67 0.46C28.30 0.46 30.61-1.88 30.61-5.50L30.61-14.94C30.61-18.56 28.30-20.89 24.67-20.89L8.93-20.89C5.30-20.89 2.99-18.57 2.99-14.94L2.99-5.50C2.99-1.86 5.51 0.46 8.61 0.46L9.47 0.46L9.47 2.82C9.47 4.30 10.29 5.19 11.63 5.19ZM12.49 1.20L12.49-1.98C12.49-2.85 12.04-3.18 11.29-3.18L9.21-3.18C7.49-3.18 6.61-4.03 6.61-5.77L6.61-14.67C6.61-16.41 7.49-17.26 9.21-17.26L24.39-17.26C26.11-17.26 26.99-16.41 26.99-14.67L26.99-5.77C26.99-4.03 26.11-3.18 24.39-3.18L18.04-3.18C17.14-3.18 16.77-2.99 16.10-2.34ZM15.98-5.47C16.49-5.47 16.89-5.86 16.89-6.36L16.89-14.06C16.89-14.57 16.49-14.95 15.98-14.95C15.66-14.95 15.41-14.82 15.08-14.52L12.96-12.61C12.95-12.57 12.91-12.57 12.88-12.57L11.57-12.57C10.66-12.57 10.16-12.06 10.16-11.12L10.16-9.32C10.16-8.38 10.66-7.85 11.57-7.85L12.88-7.85C12.91-7.85 12.95-7.85 12.96-7.83L15.08-5.89C15.39-5.61 15.66-5.47 15.98-5.47ZM21.05-6.20C21.42-5.99 21.87-6.08 22.08-6.43C22.78-7.54 23.19-8.81 23.19-10.21C23.19-11.60 22.79-12.88 22.08-13.98C21.86-14.34 21.41-14.44 21.05-14.23C20.64-13.98 20.59-13.49 20.86-13.04C21.38-12.25 21.64-11.25 21.64-10.21C21.64-9.18 21.38-8.17 20.86-7.38C20.58-6.93 20.63-6.43 21.05-6.20ZM18.63-7.65C18.98-7.43 19.43-7.54 19.65-7.85C20.11-8.48 20.40-9.33 20.40-10.22C20.40-11.11 20.12-11.95 19.65-12.59C19.44-12.89 19.00-13.00 18.63-12.79C18.26-12.56 18.16-12.08 18.48-11.55C18.71-11.19 18.84-10.71 18.84-10.22C18.84-9.74 18.70-9.26 18.48-8.88C18.18-8.34 18.25-7.91 18.63-7.65Z" fill="currentColor"/>
</svg>