<svg xmlns="http://www.w3.org/2000/svg" viewBox="0 0 24 24" width="24" height="24">
  
  <path transform="matrix(0.6309303758471966, 0, 0, 0.6309303758471966, 0.11460258780036958, 17.338262476894638)" d="M8.11 2.96L17.61 2.96L17.61-2.86C15.02-3.41 13.09-5.71 13.09-8.46C13.09-11.21 15.02-13.51 17.61-14.06L17.61-19.89L8.11-19.89C4.82-19.89 2.99-18.12 2.99-14.85L2.99-14.64L6.11-14.64C8.06-14.64 9.12-13.58 9.12-11.63L9.12-5.29C9.12-3.33 8.06-2.26 6.11-2.26L2.99-2.26L2.99-2.06C2.99 1.20 4.83 2.96 8.11 2.96ZM20.06 2.96L29.57 2.96C32.85 2.96 34.69 1.20 34.69-2.06L34.69-2.26L31.57-2.26C29.61-2.26 28.56-3.33 28.56-5.29L28.56-11.63C28.56-13.58 29.61-14.64 31.57-14.64L34.69-14.64L34.69-14.85C34.69-18.12 32.85-19.89 29.57-19.89L20.06-19.89L20.06-14.06C22.63-13.51 24.56-11.21 24.56-8.46C24.56-5.72 22.63-3.42 20.06-2.86ZM2.99-4.54L6.07-4.54C6.56-4.54 6.84-4.82 6.84-5.31L6.84-11.59C6.84-12.08 6.56-12.35 6.07-12.35L2.99-12.35ZM34.69-4.54L34.69-12.35L31.59-12.35C31.10-12.35 30.83-12.08 30.83-11.59L30.83-5.31C30.83-4.82 31.10-4.54 31.59-4.54ZM17.61-5.32L17.61-6.79C17.09-7.16 16.75-7.77 16.75-8.46C16.75-9.15 17.09-9.76 17.61-10.15L17.61-11.61C16.34-11.14 15.42-9.91 15.42-8.46C15.42-7.01 16.34-5.78 17.61-5.32ZM20.06-5.33C21.32-5.80 22.23-7.02 22.23-8.46C22.23-9.90 21.32-11.12 20.06-11.60L20.06-10.13C20.58-9.75 20.91-9.14 20.91-8.46C20.91-7.78 20.58-7.17 20.06-6.80Z" fill="currentColor"/>
</svg>