<svg xmlns="http://www.w3.org/2000/svg" viewBox="0 0 24 24" width="24" height="24">
  <title>squareshape.split.2x2.dotted.outside</title>
  <path transform="matrix(0.8703042665306816, 0, 0, 0.8703042665306816, -0.6007139214686386, 19.36868944416114)" d="M4.32-7.16L13.18-7.16L13.18 1.70C13.18 2.45 13.70 3.02 14.47 3.02C15.25 3.02 15.77 2.45 15.77 1.70L15.77-7.16L24.63-7.16C25.38-7.16 25.97-7.69 25.97-8.46C25.97-9.23 25.38-9.76 24.63-9.76L15.77-9.76L15.77-18.62C15.77-19.37 15.25-19.96 14.47-19.96C13.70-19.96 13.18-19.37 13.18-18.62L13.18-9.76L4.32-9.76C3.57-9.76 2.99-9.23 2.99-8.46C2.99-7.69 3.57-7.16 4.32-7.16ZM4.39-17.13C5.17-17.13 5.80-17.77 5.80-18.54C5.80-19.32 5.17-19.96 4.39-19.96C3.62-19.96 2.99-19.32 2.99-18.54C2.99-17.77 3.62-17.13 4.39-17.13ZM7.76-17.13C8.53-17.13 9.16-17.77 9.16-18.54C9.16-19.32 8.53-19.96 7.76-19.96C6.98-19.96 6.35-19.32 6.35-18.54C6.35-17.77 6.98-17.13 7.76-17.13ZM11.12-17.13C11.89-17.13 12.53-17.77 12.53-18.54C12.53-19.32 11.89-19.96 11.12-19.96C10.34-19.96 9.70-19.32 9.70-18.54C9.70-17.77 10.34-17.13 11.12-17.13ZM17.84-17.13C18.61-17.13 19.24-17.77 19.24-18.54C19.24-19.32 18.61-19.96 17.84-19.96C17.06-19.96 16.43-19.32 16.43-18.54C16.43-17.77 17.06-17.13 17.84-17.13ZM21.20-17.13C21.97-17.13 22.61-17.77 22.61-18.54C22.61-19.32 21.97-19.96 21.20-19.96C20.43-19.96 19.79-19.32 19.79-18.54C19.79-17.77 20.43-17.13 21.20-17.13ZM24.56-17.13C25.34-17.13 25.97-17.77 25.97-18.54C25.97-19.32 25.34-19.96 24.56-19.96C23.78-19.96 23.14-19.32 23.14-18.54C23.14-17.77 23.78-17.13 24.56-17.13ZM4.39-13.77C5.17-13.77 5.80-14.40 5.80-15.19C5.80-15.96 5.17-16.59 4.39-16.59C3.62-16.59 2.99-15.96 2.99-15.19C2.99-14.40 3.62-13.77 4.39-13.77ZM24.56-13.77C25.34-13.77 25.97-14.40 25.97-15.19C25.97-15.96 25.34-16.59 24.56-16.59C23.78-16.59 23.14-15.96 23.14-15.19C23.14-14.40 23.78-13.77 24.56-13.77ZM4.39-10.42C5.17-10.42 5.80-11.05 5.80-11.82C5.80-12.60 5.17-13.23 4.39-13.23C3.62-13.23 2.99-12.60 2.99-11.82C2.99-11.05 3.62-10.42 4.39-10.42ZM24.56-10.42C25.34-10.42 25.97-11.05 25.97-11.82C25.97-12.60 25.34-13.23 24.56-13.23C23.78-13.23 23.14-12.60 23.14-11.82C23.14-11.05 23.78-10.42 24.56-10.42ZM4.39-3.69C5.17-3.69 5.80-4.32 5.80-5.10C5.80-5.88 5.17-6.52 4.39-6.52C3.62-6.52 2.99-5.88 2.99-5.10C2.99-4.32 3.62-3.69 4.39-3.69ZM24.56-3.69C25.34-3.69 25.97-4.32 25.97-5.10C25.97-5.88 25.34-6.52 24.56-6.52C23.78-6.52 23.14-5.88 23.14-5.10C23.14-4.32 23.78-3.69 24.56-3.69ZM4.39-0.33C5.17-0.33 5.80-0.96 5.80-1.75C5.80-2.52 5.17-3.15 4.39-3.15C3.62-3.15 2.99-2.52 2.99-1.75C2.99-0.96 3.62-0.33 4.39-0.33ZM24.56-0.33C25.34-0.33 25.97-0.96 25.97-1.75C25.97-2.52 25.34-3.15 24.56-3.15C23.78-3.15 23.14-2.52 23.14-1.75C23.14-0.96 23.78-0.33 24.56-0.33ZM4.39 3.02C5.17 3.02 5.80 2.39 5.80 1.62C5.80 0.84 5.17 0.21 4.39 0.21C3.62 0.21 2.99 0.84 2.99 1.62C2.99 2.39 3.62 3.02 4.39 3.02ZM7.76 3.02C8.53 3.02 9.16 2.39 9.16 1.62C9.16 0.84 8.53 0.21 7.76 0.21C6.98 0.21 6.35 0.84 6.35 1.62C6.35 2.39 6.98 3.02 7.76 3.02ZM11.12 3.02C11.89 3.02 12.53 2.39 12.53 1.62C12.53 0.84 11.89 0.21 11.12 0.21C10.34 0.21 9.70 0.84 9.70 1.62C9.70 2.39 10.34 3.02 11.12 3.02ZM17.84 3.02C18.61 3.02 19.24 2.39 19.24 1.62C19.24 0.84 18.61 0.21 17.84 0.21C17.06 0.21 16.43 0.84 16.43 1.62C16.43 2.39 17.06 3.02 17.84 3.02ZM21.20 3.02C21.97 3.02 22.61 2.39 22.61 1.62C22.61 0.84 21.97 0.21 21.20 0.21C20.43 0.21 19.79 0.84 19.79 1.62C19.79 2.39 20.43 3.02 21.20 3.02ZM24.56 3.02C25.34 3.02 25.97 2.39 25.97 1.62C25.97 0.84 25.34 0.21 24.56 0.21C23.78 0.21 23.14 0.84 23.14 1.62C23.14 2.39 23.78 3.02 24.56 3.02Z" fill="currentColor"/>
</svg>