<svg xmlns="http://www.w3.org/2000/svg" viewBox="0 0 24 24" width="24" height="24">
  
  <path transform="matrix(0.8703042665306816, 0, 0, 0.8703042665306816, -0.6007139214686386, 19.36868944416114)" d="M4.39-17.13C5.17-17.13 5.80-17.77 5.80-18.54C5.80-19.32 5.17-19.96 4.39-19.96C3.62-19.96 2.99-19.32 2.99-18.54C2.99-17.77 3.62-17.13 4.39-17.13ZM7.76-17.13C8.53-17.13 9.16-17.77 9.16-18.54C9.16-19.32 8.53-19.96 7.76-19.96C6.98-19.96 6.35-19.32 6.35-18.54C6.35-17.77 6.98-17.13 7.76-17.13ZM11.12-17.13C11.89-17.13 12.53-17.77 12.53-18.54C12.53-19.32 11.89-19.96 11.12-19.96C10.34-19.96 9.70-19.32 9.70-18.54C9.70-17.77 10.34-17.13 11.12-17.13ZM14.47-17.13C15.26-17.13 15.89-17.77 15.89-18.54C15.89-19.32 15.26-19.96 14.47-19.96C13.70-19.96 13.07-19.32 13.07-18.54C13.07-17.77 13.70-17.13 14.47-17.13ZM17.84-17.13C18.61-17.13 19.24-17.77 19.24-18.54C19.24-19.32 18.61-19.96 17.84-19.96C17.06-19.96 16.43-19.32 16.43-18.54C16.43-17.77 17.06-17.13 17.84-17.13ZM21.20-17.13C21.97-17.13 22.61-17.77 22.61-18.54C22.61-19.32 21.97-19.96 21.20-19.96C20.43-19.96 19.79-19.32 19.79-18.54C19.79-17.77 20.43-17.13 21.20-17.13ZM24.56-17.13C25.34-17.13 25.97-17.77 25.97-18.54C25.97-19.32 25.34-19.96 24.56-19.96C23.78-19.96 23.14-19.32 23.14-18.54C23.14-17.77 23.78-17.13 24.56-17.13ZM24.56-13.77C25.34-13.77 25.97-14.40 25.97-15.19C25.97-15.96 25.34-16.59 24.56-16.59C23.78-16.59 23.14-15.96 23.14-15.19C23.14-14.40 23.78-13.77 24.56-13.77ZM14.47-13.77C15.26-13.77 15.89-14.40 15.89-15.19C15.89-15.96 15.26-16.59 14.47-16.59C13.70-16.59 13.07-15.96 13.07-15.19C13.07-14.40 13.70-13.77 14.47-13.77ZM4.39-13.77C5.17-13.77 5.80-14.40 5.80-15.19C5.80-15.96 5.17-16.59 4.39-16.59C3.62-16.59 2.99-15.96 2.99-15.19C2.99-14.40 3.62-13.77 4.39-13.77ZM24.56-10.42C25.34-10.42 25.97-11.05 25.97-11.82C25.97-12.60 25.34-13.23 24.56-13.23C23.78-13.23 23.14-12.60 23.14-11.82C23.14-11.05 23.78-10.42 24.56-10.42ZM14.47-10.42C15.26-10.42 15.89-11.05 15.89-11.82C15.89-12.60 15.26-13.23 14.47-13.23C13.70-13.23 13.07-12.60 13.07-11.82C13.07-11.05 13.70-10.42 14.47-10.42ZM4.39-10.42C5.17-10.42 5.80-11.05 5.80-11.82C5.80-12.60 5.17-13.23 4.39-13.23C3.62-13.23 2.99-12.60 2.99-11.82C2.99-11.05 3.62-10.42 4.39-10.42ZM21.20-7.05C21.97-7.05 22.61-7.69 22.61-8.46C22.61-9.23 21.97-9.87 21.20-9.87C20.43-9.87 19.79-9.23 19.79-8.46C19.79-7.69 20.43-7.05 21.20-7.05ZM4.39-7.05C5.17-7.05 5.80-7.69 5.80-8.46C5.80-9.23 5.17-9.87 4.39-9.87C3.62-9.87 2.99-9.23 2.99-8.46C2.99-7.69 3.62-7.05 4.39-7.05ZM24.56-7.05C25.34-7.05 25.97-7.69 25.97-8.46C25.97-9.23 25.34-9.87 24.56-9.87C23.78-9.87 23.14-9.23 23.14-8.46C23.14-7.69 23.78-7.05 24.56-7.05ZM14.47-7.05C15.26-7.05 15.89-7.69 15.89-8.46C15.89-9.23 15.26-9.87 14.47-9.87C13.70-9.87 13.07-9.23 13.07-8.46C13.07-7.69 13.70-7.05 14.47-7.05ZM7.76-7.05C8.53-7.05 9.16-7.69 9.16-8.46C9.16-9.23 8.53-9.87 7.76-9.87C6.98-9.87 6.35-9.23 6.35-8.46C6.35-7.69 6.98-7.05 7.76-7.05ZM11.12-7.05C11.89-7.05 12.53-7.69 12.53-8.46C12.53-9.23 11.89-9.87 11.12-9.87C10.34-9.87 9.70-9.23 9.70-8.46C9.70-7.69 10.34-7.05 11.12-7.05ZM17.84-7.05C18.61-7.05 19.24-7.69 19.24-8.46C19.24-9.23 18.61-9.87 17.84-9.87C17.06-9.87 16.43-9.23 16.43-8.46C16.43-7.69 17.06-7.05 17.84-7.05ZM4.39-3.69C5.17-3.69 5.80-4.32 5.80-5.10C5.80-5.88 5.17-6.52 4.39-6.52C3.62-6.52 2.99-5.88 2.99-5.10C2.99-4.32 3.62-3.69 4.39-3.69ZM24.56-3.69C25.34-3.69 25.97-4.32 25.97-5.10C25.97-5.88 25.34-6.52 24.56-6.52C23.78-6.52 23.14-5.88 23.14-5.10C23.14-4.32 23.78-3.69 24.56-3.69ZM14.47-3.69C15.26-3.69 15.89-4.32 15.89-5.10C15.89-5.88 15.26-6.52 14.47-6.52C13.70-6.52 13.07-5.88 13.07-5.10C13.07-4.32 13.70-3.69 14.47-3.69ZM4.39-0.33C5.17-0.33 5.80-0.96 5.80-1.75C5.80-2.52 5.17-3.15 4.39-3.15C3.62-3.15 2.99-2.52 2.99-1.75C2.99-0.96 3.62-0.33 4.39-0.33ZM24.56-0.33C25.34-0.33 25.97-0.96 25.97-1.75C25.97-2.52 25.34-3.15 24.56-3.15C23.78-3.15 23.14-2.52 23.14-1.75C23.14-0.96 23.78-0.33 24.56-0.33ZM14.47-0.33C15.26-0.33 15.89-0.96 15.89-1.75C15.89-2.52 15.26-3.15 14.47-3.15C13.70-3.15 13.07-2.52 13.07-1.75C13.07-0.96 13.70-0.33 14.47-0.33ZM17.84 3.02C18.61 3.02 19.24 2.39 19.24 1.62C19.24 0.84 18.61 0.21 17.84 0.21C17.06 0.21 16.43 0.84 16.43 1.62C16.43 2.39 17.06 3.02 17.84 3.02ZM14.47 3.02C15.26 3.02 15.89 2.39 15.89 1.62C15.89 0.84 15.26 0.21 14.47 0.21C13.70 0.21 13.07 0.84 13.07 1.62C13.07 2.39 13.70 3.02 14.47 3.02ZM21.20 3.02C21.97 3.02 22.61 2.39 22.61 1.62C22.61 0.84 21.97 0.21 21.20 0.21C20.43 0.21 19.79 0.84 19.79 1.62C19.79 2.39 20.43 3.02 21.20 3.02ZM7.76 3.02C8.53 3.02 9.16 2.39 9.16 1.62C9.16 0.84 8.53 0.21 7.76 0.21C6.98 0.21 6.35 0.84 6.35 1.62C6.35 2.39 6.98 3.02 7.76 3.02ZM4.39 3.02C5.17 3.02 5.80 2.39 5.80 1.62C5.80 0.84 5.17 0.21 4.39 0.21C3.62 0.21 2.99 0.84 2.99 1.62C2.99 2.39 3.62 3.02 4.39 3.02ZM24.56 3.02C25.34 3.02 25.97 2.39 25.97 1.62C25.97 0.84 25.34 0.21 24.56 0.21C23.78 0.21 23.14 0.84 23.14 1.62C23.14 2.39 23.78 3.02 24.56 3.02ZM11.12 3.02C11.89 3.02 12.53 2.39 12.53 1.62C12.53 0.84 11.89 0.21 11.12 0.21C10.34 0.21 9.70 0.84 9.70 1.62C9.70 2.39 10.34 3.02 11.12 3.02Z" fill="currentColor"/>
</svg>