<svg xmlns="http://www.w3.org/2000/svg" viewBox="0 0 24 24" width="24" height="24">
  <title>squareroot</title>
  <path transform="matrix(0.8378334151530028, 0, 0, 0.8378334151530028, -0.5036818851251841, 19.491408934707906)" d="M9.05 1.28C11.19 1.28 12.26 0.12 12.88-1.69L17.30-15.07L24.82-15.07C26.07-15.07 26.86-15.90 26.86-17.12C26.86-18.33 26.07-19.16 24.82-19.16L17.11-19.16C14.87-19.16 13.89-18.23 13.25-16.22L9.27-3.30L8.91-3.30L7.13-9.61C6.80-10.72 6.22-11.30 5.06-11.30C3.81-11.30 2.99-10.41 2.99-9.28C2.99-8.85 3.07-8.52 3.22-8.05L5.26-1.66C5.86 0.16 6.96 1.28 9.05 1.28Z" fill="currentColor"/>
</svg>