<svg xmlns="http://www.w3.org/2000/svg" viewBox="0 0 24 24" width="24" height="24">
  
  <path transform="matrix(0.8278973094981634, 0, 0, 0.8278973094981634, -1.3568648721058345, 19.525882120508342)" d="M26.98-17.54L27.71-18.29C28.35-18.91 28.38-19.83 27.79-20.40L27.35-20.82C26.84-21.33 25.90-21.22 25.30-20.63L24.60-19.91ZM9.49 2.96L20.60 2.96C24.08 2.96 26.03 1.02 26.03-2.46L26.03-13.00C26.03-13.22 26.03-13.45 26.00-13.66L22.39-10.05C22.41-9.90 22.41-9.75 22.41-9.59L22.41-2.73C22.41-1.41 21.67-0.66 20.34-0.66L9.74-0.66C8.41-0.66 7.68-1.41 7.68-2.73L7.68-13.31C7.68-14.64 8.41-15.39 9.74-15.39L16.49-15.39C16.70-15.39 16.93-15.39 17.14-15.38L20.75-18.98C20.53-19.00 20.30-19.01 20.07-19.01L9.49-19.01C6-19.01 4.05-17.06 4.05-13.58L4.05-2.46C4.05 1.02 6 2.96 9.49 2.96ZM13.38-5.60L16.09-6.66L25.99-16.56L23.61-18.94L13.72-9.04L12.66-6.35C12.47-5.87 12.97-5.45 13.38-5.60Z" fill="currentColor"/>
</svg>