<svg xmlns="http://www.w3.org/2000/svg" viewBox="0 0 24 24" width="24" height="24">
  <title>square.arrowtriangle.4.outward</title>
  <path transform="matrix(0.7243916242218449, 0, 0, 0.7243916242218449, 0.07300509337860905, 18.120543293718164)" d="M5.03-16.37L8.88-20.23C9.59-20.93 9.28-22.25 8.05-22.25L4.55-22.25C3.60-22.25 2.99-21.63 2.99-20.70L2.99-17.19C2.99-15.97 4.31-15.66 5.03-16.37ZM27.90-16.37C28.62-15.66 29.94-15.97 29.94-17.19L29.94-20.70C29.94-21.63 29.33-22.25 28.38-22.25L24.88-22.25C23.65-22.25 23.34-20.93 24.05-20.23ZM12.22 0.18L20.71 0.18C23.51 0.18 25.09-1.41 25.09-4.20L25.09-12.71C25.09-15.49 23.51-17.07 20.71-17.07L12.22-17.07C9.42-17.07 7.84-15.49 7.84-12.71L7.84-4.20C7.84-1.41 9.42 0.18 12.22 0.18ZM12.71-3.46C11.88-3.46 11.46-3.82 11.46-4.71L11.46-12.20C11.46-13.08 11.88-13.45 12.71-13.45L20.21-13.45C21.04-13.45 21.47-13.08 21.47-12.20L21.47-4.71C21.47-3.82 21.04-3.46 20.21-3.46ZM5.03-0.54C4.31-1.24 2.99-0.93 2.99 0.29L2.99 3.79C2.99 4.73 3.60 5.36 4.55 5.36L8.05 5.36C9.28 5.36 9.59 4.03 8.88 3.33ZM27.90-0.54L24.05 3.33C23.34 4.03 23.65 5.36 24.88 5.36L28.38 5.36C29.33 5.36 29.94 4.73 29.94 3.79L29.94 0.29C29.94-0.93 28.62-1.24 27.90-0.54Z" fill="currentColor"/>
</svg>