<svg xmlns="http://www.w3.org/2000/svg" viewBox="0 0 24 24" width="24" height="24">
  <title>square.3.layers.3d.top.filled</title>
  <path transform="matrix(0.7111111111111111, 0, 0, 0.7111111111111111, 0.9083333333333332, 17.975)" d="M17.52 4.97L26.44-0.18C27.57-0.84 28.21-1.54 28.21-2.60C28.21-3.67 27.57-4.35 26.44-5.02L25.69-5.45L26.44-5.88C27.57-6.54 28.21-7.23 28.21-8.30C28.21-9.36 27.57-10.04 26.44-10.71L25.50-11.25L26.44-11.79C27.57-12.46 28.21-13.14 28.21-14.20C28.21-15.27 27.57-15.96 26.44-16.63L17.52-21.77C16.75-22.23 16.18-22.46 15.60-22.46C15.01-22.46 14.46-22.23 13.69-21.77L4.77-16.63C3.62-15.96 2.99-15.27 2.99-14.20C2.99-13.14 3.62-12.46 4.77-11.79L5.71-11.25L4.77-10.71C3.62-10.04 2.99-9.36 2.99-8.30C2.99-7.23 3.62-6.54 4.77-5.88L5.52-5.45L4.77-5.02C3.62-4.35 2.99-3.67 2.99-2.60C2.99-1.54 3.62-0.84 4.77-0.18L13.69 4.97C14.46 5.41 15.01 5.66 15.60 5.66C16.18 5.66 16.75 5.41 17.52 4.97ZM15.60-5.95C16.18-5.95 16.75-6.19 17.52-6.64L22.07-9.27L23.63-8.40C23.67-8.37 23.70-8.34 23.70-8.30C23.70-8.25 23.67-8.21 23.63-8.19L15.95-3.88C15.81-3.81 15.71-3.77 15.60-3.77C15.49-3.77 15.40-3.81 15.26-3.88L7.58-8.19C7.54-8.21 7.51-8.25 7.51-8.30C7.51-8.34 7.54-8.37 7.58-8.40L9.13-9.27L13.69-6.64C14.46-6.19 15.01-5.95 15.60-5.95ZM15.26 1.82L7.58-2.50C7.54-2.52 7.51-2.55 7.51-2.60C7.51-2.65 7.54-2.67 7.58-2.71L8.94-3.47L13.69-0.73C14.46-0.28 15.01-0.04 15.60-0.04C16.18-0.04 16.75-0.28 17.52-0.73L22.27-3.47L23.63-2.71C23.67-2.67 23.70-2.65 23.70-2.60C23.70-2.55 23.67-2.52 23.63-2.50L15.95 1.82C15.81 1.89 15.71 1.92 15.60 1.92C15.49 1.92 15.40 1.89 15.26 1.82Z" fill="currentColor"/>
</svg>