<svg xmlns="http://www.w3.org/2000/svg" viewBox="0 0 24 24" width="24" height="24">
  <title>square.3.layers.3d.down.right.slash</title>
  <path transform="matrix(0.7124081897965197, 0, 0, 0.7124081897965197, 0.673104199002724, 18.071790908806804)" d="M15.33-13.14L19.50-15.55C19.59-15.60 19.68-15.54 19.68-15.45L19.68-13.65L16.59-11.87L19.10-9.36L24.66-12.57C24.75-12.62 24.83-12.56 24.83-12.48L24.83-4.32C24.83-4.21 24.82-4.13 24.81-4.02C24.80-3.93 24.77-3.82 24.76-3.70L27.42-1.04C27.66-1.28 27.82-1.52 27.95-1.79C28.17-2.24 28.23-2.78 28.23-3.47L28.23-13.86C28.23-16.52 25.97-17.30 24.11-16.22L23.07-15.62L23.07-16.83C23.07-19.50 20.81-20.27 18.95-19.18L18.01-18.64L18.01-19.73C18.01-22.39 15.74-23.17 13.89-22.09L9.13-19.34L11.64-16.83L14.43-18.45C14.52-18.50 14.61-18.43 14.61-18.35L14.61-16.68L12.82-15.64ZM27.06 3.84C27.46 4.24 28.13 4.25 28.51 3.84C28.90 3.45 28.92 2.79 28.51 2.39L5.04-21.07C4.64-21.47 3.97-21.47 3.57-21.07C3.18-20.68 3.18-20.00 3.57-19.62ZM7.34-0.96L8.05-1.38L8.05-0.40C8.05 2.34 10.08 3.28 12.40 1.93L13.21 1.46L13.21 2.58C13.21 5.32 15.23 6.25 17.55 4.91L22.76 1.91L20.27-0.56L16.80 1.48C16.71 1.54 16.62 1.48 16.62 1.38L16.62-4.22L13.21-7.62L13.21-2.43L11.64-1.49C11.55-1.43 11.46-1.50 11.46-1.59L11.46-9.07C11.46-9.15 11.46-9.25 11.50-9.34L8.41-12.41C8.16-11.93 8.05-11.19 8.05-10.50L8.05-5.26L6.57-4.39C6.48-4.34 6.40-4.39 6.40-4.49L6.40-13.37C6.40-13.58 6.45-13.71 6.56-13.83C6.64-13.91 6.73-13.97 6.80-14.03L4.34-16.49C4.23-16.42 4.14-16.34 4.04-16.28C3.26-15.59 2.99-14.79 2.99-13.39L2.99-3.29C2.99-0.55 5.03 0.38 7.34-0.96Z" fill="currentColor"/>
</svg>