<svg xmlns="http://www.w3.org/2000/svg" viewBox="0 0 24 24" width="24" height="24">
  <title>square.stack.3d.up.slash</title>
  <path transform="matrix(0.7111111111111111, 0, 0, 0.7111111111111111, 1.4078068393625165, 17.975)" d="M19.37-7.85L26.19-11.79C27.33-12.46 27.96-13.14 27.96-14.20C27.96-15.27 27.33-15.96 26.19-16.63L17.27-21.77C16.50-22.23 15.94-22.46 15.35-22.46C14.77-22.46 14.20-22.23 13.44-21.77L8.37-18.84L10.90-16.31L15-18.62C15.15-18.69 15.23-18.74 15.35-18.74C15.47-18.74 15.56-18.69 15.70-18.62L23.38-14.31C23.43-14.29 23.44-14.25 23.44-14.20C23.44-14.17 23.43-14.13 23.38-14.11L16.80-10.42ZM26.24 4.61C26.63 5.00 27.30 5.02 27.69 4.61C28.09 4.21 28.10 3.56 27.69 3.15L3.55-20.98C3.15-21.38 2.48-21.38 2.09-20.98C1.70-20.59 1.70-19.91 2.09-19.52ZM10.57-8.30L3.29-15.57C2.91-15.16 2.74-14.73 2.74-14.20C2.74-13.15 3.36-12.46 4.50-11.80ZM15.35-0.04C15.93-0.04 16.45-0.28 17.20-0.73L17.85-1.10L14.72-4.35L14.53-4.24C14.46-4.21 14.43-4.18 14.36-4.18C14.27-4.18 14.17-4.22 13.99-4.32L3.83-10.25C3.18-9.79 2.74-9.15 2.74-8.32C2.74-7.35 3.33-6.67 4.31-6.09L13.50-0.73C14.25-0.29 14.78-0.04 15.35-0.04ZM23.07-4.15L26.40-6.09C27.39-6.67 27.97-7.35 27.97-8.32C27.97-9.15 27.53-9.79 26.87-10.25L20.63-6.60ZM15.35 5.66C15.93 5.66 16.45 5.40 17.20 4.97L21.45 2.50L18.98 0.05L16.71 1.37C16.16 1.70 15.77 1.89 15.35 1.89C14.94 1.89 14.54 1.70 13.99 1.37L3.83-4.56C3.18-4.09 2.74-3.46 2.74-2.63C2.74-1.65 3.33-0.97 4.31-0.40L13.50 4.97C14.25 5.40 14.78 5.66 15.35 5.66ZM26.64-0.57L27.12-0.89C27.61-1.34 27.97-1.89 27.97-2.63C27.97-3.46 27.53-4.09 26.87-4.56L24.21-3Z" fill="currentColor"/>
</svg>