<svg xmlns="http://www.w3.org/2000/svg" viewBox="0 0 24 24" width="24" height="24">
  
  <path transform="matrix(0.8752136752136752, 0, 0, 0.8752136752136752, -0.6153846153846154, 19.405128205128204)" d="M7.37 2.96L21.46 2.96C24.25 2.96 25.84 1.38 25.84-1.41L25.84-15.52C25.84-18.30 24.25-19.89 21.46-19.89L7.37-19.89C4.58-19.89 2.99-18.30 2.99-15.52L2.99-1.41C2.99 1.38 4.58 2.96 7.37 2.96ZM11.37-2.43C10.58-1.84 9.71-2.40 10.04-3.39L11.27-7.08L8.10-9.38C7.43-9.87 7.56-10.96 8.61-10.95L12.52-10.90L13.70-14.63C14.02-15.59 15.01-15.59 15.33-14.63L16.52-10.90L20.43-10.95C21.52-10.96 21.59-9.86 20.93-9.38L17.77-7.09L18.98-3.39C19.32-2.36 18.46-1.85 17.67-2.43L14.52-4.73Z" fill="currentColor"/>
</svg>