<svg xmlns="http://www.w3.org/2000/svg" viewBox="0 0 24 24" width="24" height="24">
  
  <path transform="matrix(0.7334192809053144, 0, 0, 0.7334192809053144, -0.19166308551783384, 18.1968199398367)" d="M2.99-5.78C2.99-3.06 4.51-1.41 7.37-1.41L7.65-1.41L7.65-11.12C7.65-15.05 10.16-17.55 14.10-17.55L23.53-17.55L23.53-17.60C23.53-20.37 21.94-21.95 19.15-21.95L7.37-21.95C4.57-21.95 2.99-20.37 2.99-17.58ZM14.10 5.05L25.88 5.05C28.68 5.05 30.26 3.47 30.26 0.69L30.26-11.12C30.26-13.91 28.68-15.49 25.88-15.49L14.10-15.49C11.31-15.49 9.71-13.91 9.71-11.12L9.71 0.69C9.71 3.47 11.31 5.05 14.10 5.05ZM17.24 0.11C16.55 0.62 15.77 0.12 16.07-0.75L17.16-4.00L14.36-6.01C13.77-6.45 13.88-7.42 14.81-7.41L18.25-7.36L19.29-10.64C19.56-11.48 20.45-11.48 20.72-10.64L21.77-7.36L25.21-7.41C26.17-7.42 26.23-6.43 25.65-6.01L22.86-4.01L23.94-0.75C24.23 0.16 23.47 0.61 22.78 0.11L20.00-1.93Z" fill="currentColor"/>
</svg>