<svg xmlns="http://www.w3.org/2000/svg" viewBox="0 0 24 24" width="24" height="24">
  <title>suitcase.circle</title>
  <path transform="matrix(0.7934294126762746, 0, 0, 0.7934294126762746, 0.33565783356578316, 18.713156671315666)" d="M14.70 4.14C21.66 4.14 27.30-1.50 27.30-8.46C27.30-15.42 21.66-21.06 14.70-21.06C7.73-21.06 2.10-15.42 2.10-8.46C2.10-1.50 7.73 4.14 14.70 4.14ZM14.70 0.48C9.75 0.48 5.75-3.52 5.75-8.46C5.75-13.41 9.75-17.40 14.70-17.40C19.64-17.40 23.64-13.41 23.64-8.46C23.64-3.52 19.64 0.48 14.70 0.48ZM11.51-3.83L17.88-3.83L17.88-12.29L17.54-12.29L17.54-12.96C17.54-13.91 16.99-14.39 15.96-14.39L13.42-14.39C12.41-14.39 11.85-13.91 11.85-12.96L11.85-12.29L11.51-12.29ZM13.16-12.69C13.16-12.98 13.31-13.14 13.61-13.14L15.79-13.14C16.08-13.14 16.23-12.98 16.23-12.69L16.23-12.29L13.16-12.29ZM10.48-3.83L10.48-12.29L10.32-12.29C9.18-12.29 8.54-11.66 8.54-10.50L8.54-5.61C8.54-4.46 9.18-3.83 10.32-3.83ZM18.91-3.83L19.07-3.83C20.21-3.83 20.85-4.46 20.85-5.61L20.85-10.50C20.85-11.66 20.21-12.29 19.07-12.29L18.91-12.29Z" fill="currentColor"/>
</svg>