<svg xmlns="http://www.w3.org/2000/svg" viewBox="0 0 24 24" width="24" height="24">
  
  <path transform="matrix(0.6772486772486772, 0, 0, 0.6772486772486772, 6.190476190476192, 17.730158730158728)" d="M4.16-13.07L13.00-13.07C13.64-13.07 14.17-13.61 14.17-14.25C14.17-14.89 13.64-15.42 13.00-15.42L12.09-15.42C12.83-16.25 13.28-17.34 13.28-18.54C13.28-21.13 11.18-23.23 8.59-23.23C6-23.23 3.89-21.13 3.89-18.54C3.89-17.34 4.35-16.25 5.07-15.42L4.16-15.42C3.52-15.42 2.99-14.89 2.99-14.25C2.99-13.61 3.52-13.07 4.16-13.07ZM8.59-16.66C7.55-16.66 6.71-17.50 6.71-18.54C6.71-19.58 7.55-20.41 8.59-20.41C9.63-20.41 10.45-19.58 10.45-18.54C10.45-17.50 9.63-16.66 8.59-16.66ZM4.16-8.75L13.00-8.75C13.64-8.75 14.17-9.27 14.17-9.93C14.17-10.57 13.64-11.10 13.00-11.10L4.16-11.10C3.52-11.10 2.99-10.57 2.99-9.93C2.99-9.27 3.52-8.75 4.16-8.75ZM4.16-4.42L4.59-4.42L4.59-1.43C4.59-0.04 4.98 0.91 5.80 1.43C5.52 1.91 5.36 2.47 5.36 3.08C5.36 4.86 6.81 6.30 8.59 6.30C10.37 6.30 11.81 4.86 11.81 3.08C11.81 2.47 11.65 1.91 11.37 1.43C12.18 0.90 12.56-0.05 12.56-1.43L12.56-4.42L13.00-4.42C13.64-4.42 14.17-4.95 14.17-5.59C14.17-6.23 13.64-6.77 13.00-6.77L4.16-6.77C3.52-6.77 2.99-6.23 2.99-5.59C2.99-4.95 3.52-4.42 4.16-4.42ZM8.59 3.95C8.11 3.95 7.72 3.55 7.72 3.08C7.72 2.60 8.11 2.21 8.59 2.21C9.06 2.21 9.46 2.60 9.46 3.08C9.46 3.55 9.06 3.95 8.59 3.95Z" fill="currentColor"/>
</svg>