<svg xmlns="http://www.w3.org/2000/svg" viewBox="0 0 24 24" width="24" height="24">
  
  <path transform="matrix(0.4532979194333776, 0, 0, 0.4532979194333776, 0.6454183266932272, 14.506632202348863)" d="M6.84-0.59L9-0.59C9.79 1.01 11.43 2.11 13.32 2.11C15.22 2.11 16.86 1.01 17.65-0.59L32.77-0.59C33.55 1.01 35.19 2.11 37.09 2.11C38.99 2.11 40.63 1.01 41.41-0.59L43.45-0.59C45.76-0.59 47.11-2.02 47.11-4.41L47.11-9.86C47.11-11.48 46.48-13.37 45.48-14.84L44.94-15.62C43.43-17.85 41.54-18.73 38.51-18.73L28.72-18.73C23.72-18.73 21.61-18.22 18.57-16.32L13.96-13.43L9.74-12.91C5.32-12.38 2.99-10.22 2.99-6.52L2.99-4.52C2.99-1.97 4.49-0.59 6.84-0.59ZM37.09-7.55C34.92-7.55 33.08-6.11 32.48-4.13L17.93-4.13C17.33-6.11 15.50-7.55 13.32-7.55C11.16-7.55 9.32-6.11 8.72-4.13L7.45-4.13C6.88-4.13 6.53-4.50 6.53-5.12L6.53-6.52C6.53-8.21 7.52-9.07 10.18-9.40L15.18-10.02L20.46-13.30C22.95-14.86 24.30-15.19 28.72-15.19L38.51-15.19C40.36-15.19 41.18-14.79 42.04-13.58L42.56-12.82C43.21-11.91 43.57-10.82 43.57-9.86L43.57-5.11C43.57-4.43 43.28-4.13 42.64-4.13L41.70-4.13C41.10-6.11 39.27-7.55 37.09-7.55ZM13.32-1.09C12.45-1.09 11.75-1.78 11.75-2.66C11.75-3.55 12.45-4.24 13.32-4.24C14.20-4.24 14.91-3.55 14.91-2.66C14.91-1.78 14.20-1.09 13.32-1.09ZM37.09-1.09C36.21-1.09 35.52-1.78 35.52-2.66C35.52-3.55 36.21-4.24 37.09-4.24C37.97-4.24 38.67-3.55 38.67-2.66C38.67-1.78 37.97-1.09 37.09-1.09ZM22.64 1.01C21.70 1.01 21.29 1.86 21.75 2.64L24.42 7.11C24.87 7.86 25.86 7.84 26.30 7.11L28.97 2.64C29.44 1.85 29.00 1.01 28.09 1.01Z" fill="currentColor"/>
</svg>