<svg xmlns="http://www.w3.org/2000/svg" viewBox="0 0 24 24" width="24" height="24">
  <title>swatchpalette.fill</title>
  <path transform="matrix(0.700027344818157, 0, 0, 0.700027344818157, 0.17928119623232375, 17.922887612797375)" d="M2.99-14.71L14.55-14.71L14.55-19.21C14.55-21.53 13.30-22.75 10.95-22.75L6.63-22.75C4.25-22.75 2.99-21.53 2.99-19.21ZM16.41-12.75L21.90-9.57L24.11-13.38C25.28-15.43 24.73-17.48 22.64-18.68L19.44-20.53C18.26-21.21 17.07-21.32 16.09-20.88C16.31-20.26 16.42-19.57 16.41-18.83ZM24.79-1.75L28.88-4.10C30.88-5.26 31.31-6.95 30.14-8.99L27.97-12.73C27.60-13.39 27.13-13.98 26.39-14.38C26.25-13.61 26.04-13.01 25.70-12.42L22.16-6.30ZM2.99-4.29L14.55-4.29L14.55-12.64L2.99-12.64ZM16.41-0.09L20.87-7.78L16.41-10.37ZM16.86 2.84L23.00-0.71L20.96-4.24ZM6.63 5.82L10.95 5.82C13.30 5.82 14.55 4.61 14.55 2.29L14.55-2.23L2.99-2.23L2.99 2.29C2.99 4.61 4.25 5.82 6.63 5.82Z" fill="currentColor"/>
</svg>