<svg xmlns="http://www.w3.org/2000/svg" viewBox="0 0 24 24" width="24" height="24">
  
  <path transform="matrix(0.6417529105496521, 0, 0, 0.6417529105496521, 0.08226181027154733, 17.41855045372294)" d="M7.13 3.82L19.23 3.82C19.15 3.52 19.11 3.20 19.08 2.85L18.86 0.62L7.62 0.62C6.68 0.62 6.20 0.13 6.20-0.81L6.20-12.67C6.20-12.93 6.22-13.03 6.35-13.21L8.57-16.16C8.86-16.55 8.91-16.79 8.91-17.29L8.91-18.79C8.91-19.51 9.28-19.89 10.00-19.89L18.20-19.89C18.91-19.89 19.29-19.51 19.29-18.79L19.29-17.29C19.29-16.79 19.34-16.55 19.62-16.16L21.34-13.89C21.66-13.90 21.95-13.90 22.27-13.82L25.04-13.82C25.00-14.17 24.89-14.40 24.68-14.67L22.25-17.89L22.25-19.30C22.25-21.57 20.95-22.85 18.64-22.85L9.55-22.85C7.24-22.85 5.94-21.57 5.94-19.30L5.94-17.89L3.50-14.67C3.12-14.14 2.99-13.64 2.99-12.59L2.99-0.30C2.99 2.36 4.46 3.82 7.13 3.82ZM11.20-16.64L17.03-16.64C17.52-16.64 17.92-17.05 17.92-17.54C17.92-18.04 17.51-18.46 17.03-18.46L11.20-18.46C10.72-18.46 10.31-18.04 10.31-17.54C10.31-17.05 10.71-16.64 11.20-16.64ZM24.49 5.96L29.60 5.96C31.70 5.96 32.75 4.92 32.98 2.66L34.14-9.45C34.28-10.83 33.49-11.75 32.19-11.75L28.70-11.75L28.73-12.25C28.77-12.70 28.88-12.93 29.17-13.14L33.08-15.95C34.54-16.98 32.99-19.15 31.49-18.07L27.71-15.35C26.70-14.60 26.21-13.73 26.11-12.42L26.05-11.75L21.90-11.75C20.60-11.75 19.83-10.83 19.96-9.45L21.12 2.66C21.34 4.92 22.39 5.96 24.49 5.96ZM24.68 2.82C24.40 2.82 24.27 2.70 24.23 2.38L23.19-8.60L30.91-8.60L29.86 2.38C29.82 2.70 29.70 2.82 29.41 2.82Z" fill="currentColor"/>
</svg>