<svg xmlns="http://www.w3.org/2000/svg" viewBox="0 0 24 24" width="24" height="24">
  <title>teletype</title>
  <path transform="matrix(0.7081604426002767, 0, 0, 0.7081604426002767, -0.11618257261410792, 17.99585062240664)" d="M17.11-20.25C11.95-20.25 7.04-19.24 4.58-16.77C3.55-15.73 2.99-14.44 2.99-13.00C2.99-11.51 3.47-10.00 5.02-9.97C5.29-9.95 5.55-9.98 5.88-10.03L9.30-10.59C10.52-10.79 11.10-11.24 11.43-12.42L12-14.51C12.11-14.89 12.29-15.08 12.70-15.23C13.71-15.56 15.13-15.77 17.11-15.77C19.09-15.76 20.51-15.56 21.52-15.23C21.93-15.08 22.11-14.89 22.22-14.51L22.79-12.42C23.12-11.24 23.70-10.79 24.91-10.59L28.35-10.03C28.66-9.98 28.95-9.95 29.20-9.97C30.76-10.00 31.23-11.51 31.23-13.00C31.23-14.44 30.67-15.73 29.64-16.77C27.18-19.24 22.27-20.25 17.11-20.25ZM6.25-3.21L8.68-3.21C9.56-3.21 10.07-3.69 10.07-4.59L10.07-7.04C10.07-7.95 9.56-8.43 8.68-8.43L6.25-8.43C5.34-8.43 4.83-7.95 4.83-7.04L4.83-4.59C4.83-3.69 5.34-3.21 6.25-3.21ZM12.77-3.21L15.21-3.21C16.08-3.21 16.61-3.69 16.61-4.59L16.61-7.04C16.61-7.95 16.08-8.43 15.21-8.43L12.77-8.43C11.87-8.43 11.34-7.95 11.34-7.04L11.34-4.59C11.34-3.69 11.87-3.21 12.77-3.21ZM19.28-3.21L21.70-3.21C22.59-3.21 23.12-3.69 23.12-4.59L23.12-7.04C23.12-7.95 22.59-8.43 21.70-8.43L19.28-8.43C18.39-8.43 17.88-7.95 17.88-7.04L17.88-4.59C17.88-3.69 18.39-3.21 19.28-3.21ZM25.78-3.21L28.22-3.21C29.12-3.21 29.66-3.69 29.66-4.59L29.66-7.04C29.66-7.95 29.12-8.43 28.22-8.43L25.78-8.43C24.90-8.43 24.40-7.95 24.40-7.04L24.40-4.59C24.40-3.69 24.90-3.21 25.78-3.21ZM6.22 3.32L8.66 3.32C9.55 3.32 10.07 2.82 10.07 1.93L10.07-0.54C10.07-1.42 9.55-1.93 8.66-1.93L6.22-1.93C5.33-1.93 4.83-1.42 4.83-0.54L4.83 1.93C4.83 2.82 5.33 3.32 6.22 3.32ZM12.73 3.32L21.75 3.32C22.64 3.32 23.13 2.82 23.13 1.93L23.13-0.54C23.13-1.42 22.64-1.93 21.75-1.93L12.73-1.93C11.84-1.93 11.34-1.42 11.34-0.54L11.34 1.93C11.34 2.82 11.84 3.32 12.73 3.32ZM25.83 3.32L28.27 3.32C29.17 3.32 29.66 2.82 29.66 1.93L29.66-0.54C29.66-1.42 29.17-1.93 28.27-1.93L25.83-1.93C24.94-1.93 24.41-1.42 24.41-0.54L24.41 1.93C24.41 2.82 24.94 3.32 25.83 3.32Z" fill="currentColor"/>
</svg>