<svg xmlns="http://www.w3.org/2000/svg" viewBox="0 0 24 24" width="24" height="24">
  <title>tennis.racket.circle.fill</title>
  <path transform="matrix(0.7934294126762746, 0, 0, 0.7934294126762746, 0.33565783356578316, 18.713156671315666)" d="M14.70 4.14C21.66 4.14 27.30-1.50 27.30-8.46C27.30-15.42 21.66-21.06 14.70-21.06C7.75-21.06 2.10-15.42 2.10-8.46C2.10-1.50 7.75 4.14 14.70 4.14ZM20.30-14.07C21.80-12.57 21.60-9.96 19.90-8.24C18.89-7.27 17.67-6.88 16.44-6.82C14.88-6.76 13.98-6.67 12.70-5.55C12.80-5.29 12.73-4.99 12.49-4.75L10.28-2.52C9.94-2.18 9.43-2.18 9.09-2.52L8.72-2.89C8.39-3.25 8.40-3.71 8.72-4.05L10.96-6.30C11.20-6.54 11.53-6.61 11.81-6.50C12.90-7.77 13.01-8.67 13.05-10.23C13.08-11.44 13.50-12.68 14.46-13.68C16.17-15.38 18.79-15.57 20.30-14.07ZM16.76-13.59L17.29-13.08L17.99-13.76C17.59-13.80 17.18-13.75 16.76-13.59ZM17.92-12.45L18.77-11.59L19.75-12.57C19.65-12.77 19.51-12.96 19.35-13.13C19.22-13.25 19.08-13.37 18.93-13.45ZM15.06-12.29L15.79-11.57L16.66-12.45L15.95-13.15C15.77-13.03 15.60-12.89 15.43-12.73C15.30-12.57 15.16-12.45 15.06-12.29ZM16.41-10.93L17.27-10.08L18.15-10.95L17.29-11.81ZM19.41-10.95L19.82-10.54C19.93-10.88 20.00-11.21 19.99-11.54ZM14.37-10.15L15.14-10.93L14.59-11.50C14.40-11.05 14.33-10.59 14.37-10.15ZM17.89-9.45L18.52-8.84C18.66-8.94 18.80-9.06 18.94-9.20C19.10-9.36 19.25-9.54 19.38-9.71L18.77-10.32ZM14.68-9.21C14.77-9.06 14.88-8.93 15.01-8.80C15.18-8.61 15.39-8.47 15.59-8.38L16.64-9.43L15.79-10.31ZM16.59-8.14C16.96-8.13 17.34-8.21 17.72-8.37L17.27-8.82Z" fill="currentColor"/>
</svg>