<svg xmlns="http://www.w3.org/2000/svg" viewBox="0 0 24 24" width="24" height="24">
  
  <path transform="matrix(0.7934294126762746, 0, 0, 0.7934294126762746, 0.33565783356578316, 18.713156671315666)" d="M14.70 4.14C21.66 4.14 27.30-1.50 27.30-8.46C27.30-15.42 21.66-21.06 14.70-21.06C7.75-21.06 2.10-15.42 2.10-8.46C2.10-1.50 7.75 4.14 14.70 4.14ZM14.70-2.18C11.25-2.18 8.43-5.00 8.43-8.44C8.43-8.55 8.43-8.65 8.44-8.75C8.92-8.55 9.43-8.46 9.97-8.46C12.46-8.46 14.47-10.48 14.47-12.96C14.47-13.59 14.34-14.18 14.09-14.68C14.29-14.70 14.48-14.71 14.70-14.71C18.13-14.71 20.95-11.88 20.95-8.44L20.95-8.20C20.51-8.43 19.98-8.52 19.44-8.52C16.96-8.52 14.95-6.50 14.95-4.02C14.95-3.35 15.07-2.72 15.40-2.21C15.16-2.19 14.92-2.18 14.70-2.18ZM8.55-9.71C9.05-12.04 10.82-13.90 13.10-14.50C13.37-14.00 13.48-13.54 13.48-12.96C13.48-10.95 11.98-9.46 9.97-9.46C9.48-9.46 9.05-9.55 8.55-9.71ZM16.37-2.40C16.08-2.91 15.94-3.41 15.94-4.02C15.94-6.01 17.44-7.51 19.44-7.51C19.97-7.51 20.39-7.41 20.84-7.25C20.39-4.91 18.63-3.04 16.37-2.40Z" fill="currentColor"/>
</svg>