<svg xmlns="http://www.w3.org/2000/svg" viewBox="0 0 24 24" width="24" height="24">
  
  <path transform="matrix(0.5290349245711924, 0, 0, 0.5290349245711924, 0.7352758834469932, 16.381587104773715)" d="M10.49 4.65L32.09 4.65C33.94 4.65 34.78 2.93 33.96 1.30L30.83-4.97L37.13 3.82C37.52 4.36 38.06 4.65 38.64 4.65C39.54 4.65 40.20 4.03 40.20 3.06L40.20-0.68C40.20-1.41 39.60-2.03 38.85-2.03C38.11-2.03 37.51-1.41 37.51-0.68L37.51-0.14L23.23-20.14C22.20-21.57 20.38-21.57 19.37-20.14L5.09-0.14L5.09-0.68C5.09-1.41 4.48-2.03 3.74-2.03C2.99-2.03 2.39-1.41 2.39-0.68L2.39 3.06C2.39 4.03 3.05 4.65 3.95 4.65C4.52 4.65 5.06 4.36 5.46 3.82L11.75-4.97L8.63 1.30C7.80 2.93 8.65 4.65 10.49 4.65ZM15.20 1.69L20.13-9.21C20.37-9.71 20.82-9.97 21.29-9.97C21.75-9.97 22.21-9.71 22.44-9.21L27.38 1.69L23.20 1.69L21.29-6.45L19.37 1.69Z" fill="currentColor"/>
</svg>