<svg xmlns="http://www.w3.org/2000/svg" viewBox="0 0 24 24" width="24" height="24">
  
  <path transform="matrix(0.7653213751868461, 0, 0, 0.7653213751868461, 1.5470852017937213, 18.466367713004484)" d="M2.99 0.23C2.99 3.04 4.57 4.62 7.36 4.62L19.97 4.62C22.75 4.62 24.33 3.04 24.33 0.23L24.33-17.14C24.33-19.93 22.75-21.52 19.97-21.52L7.36-21.52C4.57-21.52 2.99-19.93 2.99-17.14ZM6.61-0.25L6.61-16.65C6.61-17.47 6.98-17.89 7.86-17.89L19.45-17.89C20.33-17.89 20.71-17.47 20.71-16.65L20.71-0.25C20.71 0.57 20.33 1.00 19.45 1.00L7.86 1.00C6.98 1.00 6.61 0.57 6.61-0.25ZM9.88-13.34L17.46-13.34C17.92-13.34 18.27-13.70 18.27-14.16C18.27-14.60 17.92-14.95 17.46-14.95L9.88-14.95C9.40-14.95 9.05-14.60 9.05-14.16C9.05-13.70 9.40-13.34 9.88-13.34ZM9.88-9.60L17.46-9.60C17.92-9.60 18.27-9.96 18.27-10.42C18.27-10.86 17.92-11.21 17.46-11.21L9.88-11.21C9.40-11.21 9.05-10.86 9.05-10.42C9.05-9.96 9.40-9.60 9.88-9.60ZM9.88-5.86L13.83-5.86C14.30-5.86 14.64-6.20 14.64-6.66C14.64-7.11 14.30-7.48 13.83-7.48L9.88-7.48C9.40-7.48 9.05-7.11 9.05-6.66C9.05-6.20 9.40-5.86 9.88-5.86Z" fill="currentColor"/>
</svg>