<svg xmlns="http://www.w3.org/2000/svg" viewBox="0 0 24 24" width="24" height="24">
  <title>text.page.slash</title>
  <path transform="matrix(0.7653213751868461, 0, 0, 0.7653213751868461, 1.5470604828567371, 18.466367713004484)" d="M7.36-21.52C6.43-21.52 5.64-21.33 5.00-20.99L8.16-17.82C8.36-17.87 8.59-17.89 8.84-17.89L19.45-17.89C20.34-17.89 20.71-17.47 20.71-16.65L20.71-5.27L24.34-1.65L24.34-17.14C24.34-19.93 22.76-21.52 19.97-21.52ZM24.14 3.47C24.55 3.87 25.21 3.87 25.59 3.47C25.98 3.07 26.00 2.41 25.59 2.00L3.19-20.39C2.79-20.80 2.12-20.80 1.72-20.39C1.32-20.00 1.32-19.32 1.72-18.94ZM7.36 4.62L19.97 4.62C20.92 4.62 21.71 4.44 22.36 4.09L19.21 0.93C19.07 0.97 18.91 1.00 18.74 1.00L7.88 1.00C7.00 1.00 6.62 0.57 6.62-0.25L6.62-11.64L2.99-15.26L2.99 0.23C2.99 3.04 4.57 4.62 7.36 4.62ZM12.66-13.34L17.46-13.34C17.93-13.34 18.27-13.70 18.27-14.16C18.27-14.60 17.93-14.95 17.46-14.95L11.03-14.95ZM16.39-9.60L17.46-9.60C17.93-9.60 18.27-9.96 18.27-10.42C18.27-10.86 17.93-11.21 17.46-11.21L14.78-11.21ZM9.88-5.86L12.41-5.86L10.79-7.48L9.88-7.48C9.40-7.48 9.06-7.11 9.06-6.66C9.06-6.20 9.40-5.86 9.88-5.86Z" fill="currentColor"/>
</svg>