<svg xmlns="http://www.w3.org/2000/svg" viewBox="0 0 24 24" width="24" height="24">
  
  <path transform="matrix(0.725315200453322, 0, 0, 0.725315200453322, 1.7106716797175197, 18.132596685082873)" d="M9.40 5.33C13.41 5.33 16.68 2.16 16.68-1.86C16.68-3.82 15.94-5.51 14.54-6.86C14.31-7.08 14.27-7.20 14.27-7.51L14.27-17.02C14.27-20.14 12.29-22.24 9.40-22.24C6.47-22.24 4.50-20.14 4.50-17.02L4.50-7.51C4.50-7.20 4.46-7.07 4.23-6.86C2.81-5.54 2.10-3.82 2.10-1.86C2.10 2.16 5.36 5.33 9.40 5.33ZM15.80-6.70C16.02-6.34 16.43-6.23 16.83-6.47L17.79-7.02L17.79-5.72C17.79-5.21 18.18-4.82 18.68-4.82C19.18-4.82 19.57-5.21 19.57-5.72L19.57-7.02L20.54-6.47C20.93-6.23 21.35-6.34 21.56-6.70C21.79-7.08 21.64-7.50 21.27-7.72L19.57-8.70L19.57-9.75L19.32-12.33L21.43-10.83L22.35-10.30L22.35-8.34C22.35-7.90 22.65-7.57 23.09-7.57C23.51-7.57 23.80-7.90 23.80-8.34L23.80-9.47L24.93-8.81C25.36-8.55 25.90-8.70 26.16-9.14C26.40-9.57 26.25-10.10 25.83-10.35L24.69-11.00L25.66-11.57C26.05-11.79 26.18-12.21 25.96-12.59C25.75-12.94 25.31-13.04 24.93-12.83L23.24-11.85L22.32-12.38L19.97-13.44L22.32-14.51L23.24-15.04L24.93-14.06C25.30-13.84 25.73-13.95 25.96-14.32C26.17-14.68 26.04-15.11 25.65-15.32L24.70-15.88L25.83-16.54C26.26-16.78 26.40-17.32 26.14-17.77C25.90-18.19 25.36-18.33 24.93-18.08L23.80-17.43L23.80-18.54C23.80-19.00 23.51-19.31 23.07-19.31C22.64-19.31 22.34-19.00 22.34-18.54L22.34-16.58L21.45-16.05L19.32-14.55L19.57-17.13L19.57-18.19L21.27-19.16C21.64-19.39 21.79-19.80 21.56-20.18C21.35-20.55 20.93-20.65 20.54-20.41L19.57-19.86L19.57-21.18C19.57-21.67 19.18-22.07 18.68-22.07C18.18-22.07 17.79-21.67 17.79-21.18L17.79-19.86L16.82-20.41C16.43-20.65 16.02-20.55 15.80-20.18C15.59-19.80 15.71-19.39 16.09-19.16L17.79-18.19L17.79-17.14L18.04-14.55L15.95-16.03L15.95-14.11L17.40-13.44L15.95-12.77L15.95-10.85L18.04-12.33L17.79-9.74L17.79-8.70L16.09-7.72C15.71-7.50 15.59-7.08 15.80-6.70ZM9.40 2.33C7.02 2.33 5.10 0.41 5.10-1.97C5.10-3.52 5.81-4.73 7.03-5.53C7.38-5.77 7.51-5.95 7.51-6.42L7.51-16.93C7.51-18.32 8.27-19.24 9.40-19.24C10.49-19.24 11.25-18.32 11.25-16.93L11.25-6.42C11.25-5.95 11.39-5.77 11.74-5.53C12.96-4.73 13.68-3.52 13.68-1.97C13.68 0.41 11.75 2.33 9.40 2.33ZM9.39 0.75C10.89 0.75 12.09-0.46 12.09-1.98C12.09-3.02 11.51-3.89 10.64-4.36C10.28-4.56 10.16-4.69 10.16-5.24L10.16-7.84C10.16-8.40 9.81-8.75 9.39-8.75C8.95-8.75 8.61-8.40 8.61-7.84L8.61-5.24C8.61-4.69 8.50-4.56 8.12-4.36C7.27-3.89 6.67-3.02 6.67-1.98C6.67-0.46 7.89 0.75 9.39 0.75Z" fill="currentColor"/>
</svg>