<svg xmlns="http://www.w3.org/2000/svg" viewBox="0 0 24 24" width="24" height="24">
  <title>touchid</title>
  <path transform="matrix(0.7289829644374561, 0, 0, 0.7289829644374561, 0.47051163863136347, 18.163185000725953)" d="M3.22-11.59C3.79-11.38 4.30-11.67 4.51-12.21C6.35-17.13 10.66-20.10 15.64-20.10C17.70-20.10 19.23-19.71 20.66-19.02C21.29-18.73 21.84-18.73 22.10-19.28C22.31-19.72 22.14-20.17 21.62-20.47C19.73-21.60 17.93-21.95 15.64-21.95C9.70-21.95 4.91-18.71 2.72-13.07C2.46-12.40 2.71-11.78 3.22-11.59ZM4.99-0.64C5.31-0.20 5.93-0.13 6.36-0.49C7.27-1.25 7.76-2.51 7.76-3.88C7.76-5.59 7.03-6.48 7.03-8.45C7.03-13.17 10.90-17.05 15.63-17.05C21.19-17.05 24.86-12.45 24.87-5.54C24.87-2.74 24.40-0.88 23.99 0.09C23.79 0.57 23.96 1.13 24.40 1.34C24.88 1.57 25.50 1.35 25.70 0.83C26.14-0.34 26.72-2.47 26.72-5.55C26.72-13.54 22.29-18.89 15.63-18.89C9.90-18.89 5.19-14.18 5.19-8.45C5.19-6.46 5.95-5.11 5.96-3.90C5.96-3.09 5.65-2.40 5.17-1.92C4.79-1.54 4.71-1.03 4.99-0.64ZM28.66-6.89C29.20-6.89 29.57-7.32 29.53-7.89C29.07-12.93 27.42-15.89 24.61-18.55C24.20-18.93 23.60-18.86 23.27-18.47C22.93-18.11 22.99-17.57 23.41-17.16C25.90-14.70 27.38-11.91 27.74-7.83C27.81-7.28 28.16-6.89 28.66-6.89ZM10.79-5.50C10.49-6.30 10.11-7.22 10.11-8.44C10.11-11.50 12.57-13.98 15.64-13.98C16.79-13.98 17.14-13.88 18.09-13.45C18.59-13.23 19.04-13.37 19.24-13.76C19.49-14.21 19.36-14.78 18.83-15.08C17.99-15.57 16.93-15.83 15.64-15.83C11.57-15.83 8.25-12.50 8.25-8.44C8.25-7.05 8.63-5.73 8.98-4.79C9.19-4.24 9.74-4.02 10.29-4.24C10.78-4.43 10.97-4.96 10.79-5.50ZM20.24-11.61C21.28-9.94 21.83-7.79 21.83-4.95C21.83-1.90 21.01 1.00 19.71 2.58C19.39 2.99 19.41 3.54 19.75 3.88C20.16 4.25 20.81 4.20 21.13 3.77C22.69 1.68 23.66-1.62 23.66-4.99C23.66-8.92 22.83-10.84 21.83-12.60C21.54-13.10 20.95-13.27 20.51-13.03C19.99-12.77 19.91-12.14 20.24-11.61ZM10.77 3.29C12.81 1.65 13.97-1.00 13.96-3.91C13.93-6.13 13.17-7.45 13.17-8.58C13.17-10.00 14.16-10.92 15.63-10.92C17.68-10.92 18.61-8.72 18.71-5.04C18.84-1.50 17.60 1.79 15.73 3.40C15.34 3.73 15.26 4.24 15.52 4.65C15.83 5.10 16.48 5.18 16.90 4.79C18.95 2.93 20.47-1.13 20.45-5.17C20.44-9.91 18.91-12.76 15.63-12.76C13.16-12.76 11.34-11.10 11.34-8.73C11.34-7.29 12.08-5.58 12.09-3.91C12.12-1.54 11.23 0.55 9.62 1.85C9.21 2.19 9.13 2.71 9.40 3.14C9.74 3.61 10.35 3.66 10.77 3.29ZM3.83-4.10C4.29-4.25 4.54-4.73 4.42-5.29C4.11-6.53 3.95-7.57 3.98-9.19C3.98-9.70 3.66-10.09 3.19-10.16C2.61-10.23 2.17-9.88 2.12-9.27C2.04-7.85 2.17-6.46 2.65-4.77C2.80-4.22 3.32-3.94 3.83-4.10ZM17.04-2.66C17.33-4.42 17.23-6.41 16.63-8.30C16.45-8.87 15.97-9.13 15.46-8.96C14.96-8.82 14.71-8.34 14.86-7.82C15.39-6.04 15.47-4.50 15.22-2.94C15.14-2.43 15.40-1.96 15.94-1.86C16.46-1.77 16.96-2.11 17.04-2.66ZM8.17 1.69C9.18 1.18 10.32-0.36 10.70-1.57C10.85-2.06 10.61-2.59 10.14-2.75C9.66-2.92 9.16-2.64 8.98-2.12C8.65-1.20 8.14-0.50 7.34 0.07C6.84 0.42 6.68 0.89 6.87 1.32C7.08 1.79 7.63 1.97 8.17 1.69ZM13.66 4.28C14.64 3.56 15.61 2.20 16.16 0.75C16.36 0.23 16.16-0.34 15.68-0.49C15.12-0.69 14.67-0.40 14.45 0.12C13.97 1.27 13.37 2.10 12.54 2.79C12.14 3.12 12.04 3.67 12.30 4.08C12.57 4.51 13.21 4.61 13.66 4.28Z" fill="currentColor"/>
</svg>