<svg xmlns="http://www.w3.org/2000/svg" viewBox="0 0 24 24" width="24" height="24">
  
  <path transform="matrix(0.7934294126762746, 0, 0, 0.7934294126762746, 0.33565783356578316, 18.70385867038587)" d="M14.70 4.15C21.66 4.15 27.30-1.49 27.30-8.45C27.30-15.41 21.66-21.05 14.70-21.05C7.75-21.05 2.10-15.41 2.10-8.45C2.10-1.49 7.75 4.15 14.70 4.15ZM9.56-5.78L9.56-9.82C9.56-11.29 9.67-12.07 9.83-12.83C10.15-14.45 10.91-15.25 12.47-15.49C12.96-15.56 13.77-15.61 14.70-15.61C15.63-15.61 16.43-15.56 16.93-15.49C18.48-15.25 19.24-14.45 19.57-12.83C19.73-12.07 19.84-11.29 19.84-9.82L19.84-5.78C19.84-4.51 19.17-3.77 17.95-3.66L19.00-1.98C19.20-1.64 19.00-1.24 18.61-1.24L18.27-1.24C18.06-1.24 17.94-1.31 17.82-1.50L17.54-1.95L11.73-1.95L11.46-1.50C11.34-1.31 11.21-1.24 10.99-1.24L10.57-1.24C10.18-1.24 10.07-1.64 10.24-1.92L11.33-3.67C10.21-3.82 9.56-4.54 9.56-5.78ZM12.84-13.85C12.84-13.57 13.04-13.36 13.31-13.36L16.08-13.36C16.35-13.36 16.57-13.57 16.57-13.85C16.57-14.13 16.35-14.33 16.08-14.33L13.31-14.33C13.04-14.33 12.84-14.13 12.84-13.85ZM11.23-8.19C11.23-7.82 11.45-7.56 11.82-7.51C12.36-7.45 13.37-7.39 14.70-7.38C15.91-7.39 16.93-7.44 17.58-7.51C17.95-7.56 18.18-7.82 18.18-8.19L18.18-9.59C18.18-10.59 18.05-11.53 18-11.84C17.95-12.15 17.72-12.36 17.43-12.40C16.85-12.46 16.02-12.50 14.70-12.52C13.37-12.50 12.54-12.46 11.96-12.40C11.67-12.36 11.45-12.15 11.40-11.84C11.36-11.53 11.23-10.59 11.23-9.59ZM16.52-5.75C16.52-5.32 16.85-4.99 17.30-4.99C17.71-4.99 18.05-5.32 18.05-5.75C18.05-6.19 17.73-6.50 17.30-6.50C16.85-6.50 16.52-6.19 16.52-5.75ZM11.36-5.75C11.36-5.32 11.67-4.99 12.11-4.99C12.54-4.99 12.87-5.32 12.87-5.75C12.87-6.19 12.55-6.50 12.11-6.50C11.68-6.50 11.36-6.19 11.36-5.75ZM12.40-3.02L16.88-3.02L16.49-3.63L12.77-3.63Z" fill="currentColor"/>
</svg>