<svg xmlns="http://www.w3.org/2000/svg" viewBox="0 0 24 24" width="24" height="24">
  <title>trash.square.fill</title>
  <path transform="matrix(0.8752136752136752, 0, 0, 0.8752136752136752, -0.6153846153846154, 19.405128205128204)" d="M7.37 2.96L21.46 2.96C24.25 2.96 25.84 1.38 25.84-1.41L25.84-15.52C25.84-18.30 24.25-19.89 21.46-19.89L7.37-19.89C4.58-19.89 2.99-18.30 2.99-15.52L2.99-1.41C2.99 1.38 4.58 2.96 7.37 2.96ZM11.89-1.68C10.84-1.68 10.24-2.20 10.20-3.26L9.80-11.73L9.12-11.73C8.66-11.73 8.29-12.05 8.31-12.50C8.33-12.97 8.66-13.28 9.12-13.28L11.47-13.28L11.47-13.88C11.47-15.01 12.25-15.69 13.58-15.69L15.46-15.69C16.80-15.69 17.57-15.01 17.57-13.88L17.57-13.28L19.92-13.28C20.40-13.28 20.74-12.97 20.73-12.50C20.73-12.05 20.40-11.73 19.92-11.73L19.27-11.73L18.87-3.26C18.81-2.20 18.22-1.68 17.16-1.68ZM13.05-13.28L16.00-13.28L16.00-13.89C16.00-14.16 15.77-14.36 15.46-14.36L13.59-14.36C13.29-14.36 13.05-14.16 13.05-13.89ZM12.54-3.52C12.84-3.52 13.04-3.71 13.03-4.00L12.84-10.44C12.83-10.75 12.63-10.93 12.35-10.93C12.04-10.93 11.85-10.73 11.86-10.42L12.06-3.98C12.07-3.70 12.26-3.52 12.54-3.52ZM14.53-3.52C14.84-3.52 15.02-3.70 15.02-3.98L15.02-10.46C15.02-10.76 14.84-10.93 14.53-10.93C14.21-10.93 14.04-10.76 14.04-10.46L14.04-3.98C14.04-3.70 14.21-3.52 14.53-3.52ZM16.51-3.52C16.78-3.52 16.98-3.70 16.99-3.98L17.19-10.42C17.19-10.73 17.02-10.93 16.71-10.93C16.42-10.93 16.22-10.75 16.21-10.44L16.02-4.00C16.01-3.71 16.21-3.52 16.51-3.52Z" fill="currentColor"/>
</svg>