<svg xmlns="http://www.w3.org/2000/svg" viewBox="0 0 24 24" width="24" height="24">
  
  <path transform="matrix(0.7934294126762746, 0, 0, 0.7934294126762746, 0.33565783356578316, 18.713156671315666)" d="M14.70 4.14C21.66 4.14 27.30-1.50 27.30-8.46C27.30-15.42 21.66-21.06 14.70-21.06C7.73-21.06 2.10-15.42 2.10-8.46C2.10-1.50 7.73 4.14 14.70 4.14ZM14.70 0.48C9.75 0.48 5.75-3.52 5.75-8.46C5.75-13.41 9.75-17.40 14.70-17.40C19.64-17.40 23.64-13.41 23.64-8.46C23.64-3.52 19.64 0.48 14.70 0.48ZM8.51-7.22C8.51-6.02 9.34-5.16 10.52-5.16C10.85-5.16 11.21-5.23 11.59-5.39C11.92-5.17 12.54-4.82 13.35-4.78C13.21-5.46 12.73-6.46 12.36-7.14C12.59-7.15 12.77-7.20 12.95-7.25C13.36-6.47 13.97-5.17 13.97-4.42C13.97-3.82 13.89-2.93 13.89-2.61C13.89-2.36 14.21-2.17 14.70-2.17C15.16-2.17 15.50-2.36 15.50-2.61C15.50-2.93 15.42-3.82 15.42-4.42C15.42-5.14 16.00-6.40 16.43-7.25C16.61-7.20 16.80-7.15 17.03-7.14C16.66-6.46 16.18-5.46 16.04-4.78C16.85-4.82 17.47-5.17 17.80-5.39C18.18-5.23 18.54-5.16 18.87-5.16C20.05-5.16 20.88-6.02 20.88-7.22C20.88-7.78 20.67-8.37 20.20-8.89C20.55-9.34 20.71-9.84 20.71-10.32C20.71-11.46 19.90-12.53 18.81-12.74C18.64-13.84 17.41-14.57 16.27-14.57C15.68-14.57 15.13-14.40 14.70-14.00C14.26-14.40 13.71-14.57 13.13-14.57C11.98-14.57 10.75-13.84 10.58-12.74C9.49-12.53 8.68-11.46 8.68-10.32C8.68-9.84 8.84-9.34 9.19-8.89C8.72-8.37 8.51-7.78 8.51-7.22ZM13.79-8.10C13.93-8.02 14.09-7.96 14.26-7.91L14.26-6.49C14.02-7.02 13.82-7.39 13.62-7.77C13.69-7.88 13.75-7.98 13.79-8.10ZM15.60-8.10C15.64-7.99 15.70-7.88 15.77-7.78C15.56-7.39 15.36-7.02 15.12-6.49L15.11-7.91C15.28-7.95 15.45-8.02 15.60-8.10Z" fill="currentColor"/>
</svg>