<svg xmlns="http://www.w3.org/2000/svg" viewBox="0 0 24 24" width="24" height="24">
  <title>truck.pickup.side.hill.down.and.gauge.open.with.lines.needle.25percent.and.arrowtriangle.fill</title>
  <path transform="matrix(0.39957757890518264, 0, 0, 0.39957757890518264, 0.806038036144904, 15.269328137465724)" d="M12.15-20.63C12.52-20.26 13.10-20.26 13.46-20.63C13.83-20.98 13.83-21.56 13.46-21.93L12.81-22.59C13.54-23.12 14.38-23.47 15.30-23.63L15.30-22.64C15.30-22.13 15.73-21.70 16.23-21.70C16.75-21.70 17.17-22.13 17.17-22.64L17.17-23.63C18.09-23.47 18.94-23.11 19.66-22.59L19.00-21.93C18.63-21.56 18.63-20.98 19.00-20.63C19.36-20.26 19.95-20.26 20.31-20.63L20.96-21.27C21.43-20.63 21.77-19.86 21.94-19.03C22.57-19.51 23.29-19.98 24.14-20.50C23.05-23.79 19.90-26.20 16.23-26.20C11.63-26.20 7.86-22.44 7.86-17.84C7.86-15.94 8.50-14.18 9.57-12.81C9.80-12.52 10.16-12.34 10.55-12.34C11.24-12.34 11.81-12.90 11.81-13.58C11.81-13.86 11.72-14.11 11.54-14.34C10.84-15.28 10.38-16.50 10.38-17.85C10.38-19.13 10.79-20.32 11.50-21.28ZM18.45 1.93L19.15 1.52C18.89 1.27 18.66 0.96 18.47 0.63C17.30-1.41 18-4.01 20.03-5.18C22.05-6.35 24.67-5.66 25.84-3.63C26.03-3.29 26.18-2.94 26.27-2.59L36.29-8.37C36.04-8.63 35.79-8.93 35.60-9.27C34.43-11.30 35.13-13.91 37.16-15.08C39.19-16.25 41.80-15.55 42.97-13.52C43.17-13.18 43.31-12.83 43.41-12.48L45.86-13.90C47.45-14.81 47.88-16.41 46.93-18.05L44.88-21.61C43.90-23.31 42.13-23.70 40.31-22.64L34.25-19.15L33.70-19.89C32.36-21.69 30.62-22.07 28.69-20.95L25.52-19.13C22.37-17.31 21.07-16.07 19.79-13.66L17.80-9.89L15.15-7.85C12.49-5.82 11.80-3.57 13.18-1.17L14.31 0.79C15.30 2.50 16.85 2.85 18.45 1.93ZM3.82-15.90L6.11-17.31C6.48-17.54 6.48-18.06 6.09-18.28L3.82-19.70C3.43-19.95 2.98-19.73 2.99-19.28L2.99-16.35C2.99-15.88 3.43-15.67 3.82-15.90ZM16.20-16.30C17.03-16.27 17.65-16.97 17.65-17.79C17.63-18.62 16.96-19.25 16.15-19.25C16.01-19.23 15.75-19.20 15.41-19.11L12.13-18.32C11.78-18.22 11.59-18 11.60-17.71C11.59-17.39 11.79-17.17 12.14-17.09L15.48-16.42C15.83-16.34 16.03-16.30 16.20-16.30ZM40.77-8.84C42.18-9.66 42.66-11.46 41.85-12.87C41.03-14.29 39.22-14.75 37.82-13.95C36.41-13.14 35.92-11.32 36.73-9.91C37.55-8.51 39.35-8.03 40.77-8.84ZM16.79 8.96C17.27 9.80 18.32 10.08 19.11 9.62L52.20-9.47C52.99-9.94 53.29-10.98 52.82-11.79C52.32-12.61 51.27-12.90 50.48-12.43L17.41 6.66C16.62 7.13 16.32 8.16 16.79 8.96ZM23.64 1.05C25.04 0.25 25.52-1.56 24.71-2.98C23.89-4.38 22.09-4.86 20.68-4.05C19.27-3.25 18.79-1.43 19.59-0.02C20.41 1.38 22.22 1.86 23.64 1.05Z" fill="currentColor"/>
</svg>