<svg xmlns="http://www.w3.org/2000/svg" viewBox="0 0 24 24" width="24" height="24">
  
  <path transform="matrix(0.7934294126762746, 0, 0, 0.7934294126762746, 0.33565783356578316, 18.713156671315666)" d="M14.70 4.14C21.66 4.14 27.30-1.50 27.30-8.46C27.30-15.42 21.66-21.06 14.70-21.06C7.75-21.06 2.10-15.42 2.10-8.46C2.10-1.50 7.75 4.14 14.70 4.14ZM11.95-2.10C10.82-2.10 10.17-2.72 10.15-3.84L10.09-8.58L9.29-8.40C8.51-8.26 7.95-8.58 7.80-9.29L7.38-11.27C7.23-12 7.55-12.60 8.25-12.89L11.84-14.39C12.16-14.53 12.45-14.53 12.74-14.39C13.50-14.04 13.98-13.91 14.68-13.91C15.39-13.91 15.87-14.04 16.63-14.39C16.92-14.53 17.20-14.53 17.53-14.39L21.12-12.89C21.82-12.60 22.14-12 21.98-11.27L21.56-9.29C21.42-8.58 20.86-8.26 20.06-8.40L19.28-8.58L19.21-3.84C19.20-2.72 18.55-2.10 17.41-2.10ZM14.68-11.86C15.39-11.86 16.01-12.25 16.23-12.74C15.75-12.60 15.23-12.54 14.68-12.54C14.13-12.54 13.62-12.60 13.14-12.74C13.36-12.23 13.99-11.86 14.68-11.86Z" fill="currentColor"/>
</svg>