<svg xmlns="http://www.w3.org/2000/svg" viewBox="0 0 24 24" width="24" height="24">
  
  <path transform="matrix(0.9397944199706314, 0, 0, 0.9397944199706314, 0.7555066079295165, 19.951541850220263)" d="M10.37 2.18L10.80 2.18C13.61 2.18 16.34 1.52 18.39-0.14C19.89-1.39 20.94-3.13 20.94-5.04C20.94-6.38 19.97-7.20 18.61-7.20C17.24-7.20 16.57-6.40 16.31-5.36C16.18-4.63 15.86-4.02 15.41-3.53C14.48-2.51 12.97-2.07 11.46-2.07L11.46-8.57L16.25-10.32C16.57-10.44 16.72-10.65 16.72-10.96C16.72-11.32 16.49-11.67 16.07-11.67C15.96-11.67 15.86-11.64 15.77-11.61L11.46-10.03L11.46-12.71L16.25-14.47C16.57-14.59 16.72-14.80 16.72-15.12C16.72-15.49 16.48-15.82 16.07-15.82C15.96-15.82 15.86-15.80 15.77-15.76L11.46-14.18L11.46-16.64C11.46-18.15 10.51-19.10 9.02-19.10C7.56-19.10 6.61-18.15 6.61-16.65L6.61-12.48L3.46-11.33C3.14-11.21 2.99-10.99 2.99-10.69C2.99-10.31 3.25-9.97 3.64-9.97C3.75-9.97 3.86-10.00 3.94-10.03L6.61-11.00L6.61-8.31L3.46-7.17C3.14-7.05 2.99-6.83 2.99-6.53C2.99-6.14 3.25-5.81 3.64-5.81C3.75-5.81 3.86-5.84 3.94-5.87L6.61-6.86L6.61-1.09C6.61 1.20 8.04 2.18 10.37 2.18Z" fill="currentColor"/>
</svg>