<svg xmlns="http://www.w3.org/2000/svg" viewBox="0 0 24 24" width="24" height="24">
  <title>video.square.fill</title>
  <path transform="matrix(0.8752136752136752, 0, 0, 0.8752136752136752, -0.6153846153846154, 19.405128205128204)" d="M7.37 2.96L21.46 2.96C24.25 2.96 25.84 1.38 25.84-1.41L25.84-15.52C25.84-18.30 24.25-19.89 21.46-19.89L7.37-19.89C4.58-19.89 2.99-18.30 2.99-15.52L2.99-1.41C2.99 1.38 4.58 2.96 7.37 2.96ZM10.10-3.87C8.74-3.87 8.00-4.48 8.00-5.75L8.00-11.03C8.00-12.29 8.77-13.03 10.10-13.03L15.55-13.03C16.91-13.03 17.61-12.29 17.61-11.03L17.61-5.87C17.61-4.59 16.89-3.87 15.53-3.87ZM18.32-6.42L18.32-10.37L19.95-11.73C20.26-12.01 20.55-12.19 20.86-12.19C21.36-12.19 21.71-11.86 21.71-11.32L21.71-5.50C21.71-4.93 21.36-4.61 20.86-4.61C20.55-4.61 20.26-4.78 19.95-5.05Z" fill="currentColor"/>
</svg>