<svg xmlns="http://www.w3.org/2000/svg" viewBox="0 0 24 24" width="24" height="24">
  
  <path transform="matrix(0.6406406406406406, 0, 0, 0.6406406406406406, 0.07057057057057059, 17.495495495495497)" d="M4.95 0.36L14.98 0.36C16.01 0.36 16.72-0.30 16.72-1.31C16.72-2.33 16.02-2.99 14.98-2.99L8.54-2.99L8.54-3.07L12.95-7.02C15.20-9.05 16.21-10.43 16.21-12.29C16.21-15.35 13.58-17.52 9.52-17.52C6.25-17.52 3.96-16.17 3.18-13.80C3.06-13.46 3.01-13.16 3.01-12.81C3.01-11.79 3.73-11.09 4.80-11.09C5.75-11.09 6.33-11.50 6.66-12.34C6.75-12.62 6.87-12.87 7.03-13.10C7.52-13.79 8.32-14.23 9.40-14.23C10.93-14.23 11.95-13.29 11.95-12.05C11.95-11.02 11.43-10.17 9.82-8.70L4.15-3.57C3.39-2.89 3.01-2.24 3.01-1.46C3.01-0.34 3.77 0.36 4.95 0.36ZM21.08 0.34L25.88 0.34C30.90 0.34 34.23-3.21 34.23-8.54C34.23-13.77 30.90-17.24 25.88-17.24L21.08-17.24C19.75-17.24 18.89-16.44 18.89-15.09L18.89-1.79C18.89-0.43 19.75 0.34 21.08 0.34ZM23.26-3.15L23.26-13.75L25.31-13.75C28.00-13.75 29.78-11.66 29.78-8.54C29.78-5.31 28.00-3.15 25.31-3.15Z" fill="currentColor"/>
</svg>