<svg xmlns="http://www.w3.org/2000/svg" viewBox="0 0 24 24" width="24" height="24">
  
  <path transform="matrix(0.7653213751868461, 0, 0, 0.7653213751868461, 1.5470852017937213, 18.466367713004484)" d="M7.36 4.62L19.97 4.62C22.75 4.62 24.33 3.04 24.33 0.23L24.33-17.14C24.33-19.95 22.75-21.52 19.97-21.52L16.38-21.52C15.84-21.52 15.56-21.28 15.56-20.84C15.56-19.88 14.87-18.93 13.66-18.93C12.45-18.93 11.75-19.88 11.75-20.84C11.75-21.28 11.47-21.52 10.93-21.52L7.36-21.52C4.57-21.52 2.99-19.95 2.99-17.14L2.99 0.23C2.99 3.04 4.57 4.62 7.36 4.62ZM7.86 1.00C6.98 1.00 6.61 0.57 6.61-0.25L6.61-16.66C6.61-17.48 6.98-17.91 7.86-17.91L9.77-17.91C10.43-16.44 11.85-15.60 13.66-15.60C15.47-15.60 16.90-16.44 17.54-17.91L19.45-17.91C20.33-17.91 20.71-17.48 20.71-16.66L20.71-0.25C20.71 0.57 20.33 1.00 19.45 1.00ZM9.87-11.71L17.45-11.71C17.91-11.71 18.26-12.06 18.26-12.53C18.26-12.97 17.91-13.32 17.45-13.32L9.87-13.32C9.39-13.32 9.04-12.97 9.04-12.53C9.04-12.06 9.39-11.71 9.87-11.71ZM9.87-7.95L13.82-7.95C14.29-7.95 14.63-8.30 14.63-8.74C14.63-9.21 14.29-9.56 13.82-9.56L9.87-9.56C9.39-9.56 9.04-9.21 9.04-8.74C9.04-8.30 9.39-7.95 9.87-7.95Z" fill="currentColor"/>
</svg>