<svg xmlns="http://www.w3.org/2000/svg" viewBox="0 0 24 24" width="24" height="24">
  <title>washer.circle</title>
  <path transform="matrix(0.7934294126762746, 0, 0, 0.7934294126762746, 0.33565783356578316, 18.713156671315666)" d="M14.70 4.14C21.66 4.14 27.30-1.50 27.30-8.46C27.30-15.42 21.66-21.06 14.70-21.06C7.73-21.06 2.10-15.42 2.10-8.46C2.10-1.50 7.73 4.14 14.70 4.14ZM14.70 0.48C9.75 0.48 5.75-3.52 5.75-8.46C5.75-13.41 9.75-17.40 14.70-17.40C19.64-17.40 23.64-13.41 23.64-8.46C23.64-3.52 19.64 0.48 14.70 0.48ZM18.20-14.46L11.17-14.46C10.28-14.46 9.66-13.82 9.66-12.90L9.66-11.51L19.71-11.51L19.71-12.90C19.71-13.82 19.10-14.46 18.20-14.46ZM11.82-12.22C11.48-12.22 11.21-12.49 11.21-12.83C11.21-13.16 11.48-13.44 11.82-13.44C12.15-13.44 12.42-13.16 12.42-12.83C12.42-12.49 12.15-12.22 11.82-12.22ZM13.45-12.22C13.13-12.22 12.86-12.49 12.86-12.83C12.86-13.16 13.13-13.44 13.45-13.44C13.79-13.44 14.06-13.16 14.06-12.83C14.06-12.49 13.79-12.22 13.45-12.22ZM16.59-12.42C16.36-12.42 16.20-12.59 16.20-12.83C16.20-13.05 16.36-13.23 16.59-13.23L17.77-13.23C18-13.23 18.16-13.05 18.16-12.83C18.16-12.59 18-12.42 17.77-12.42ZM11.17-2.48L18.20-2.48C19.10-2.48 19.71-3.12 19.71-4.03L19.71-10.56L9.66-10.56L9.66-4.03C9.66-3.12 10.28-2.48 11.17-2.48ZM14.68-3.62C13.00-3.62 11.63-4.99 11.63-6.67C11.63-8.36 13.00-9.73 14.68-9.73C16.37-9.73 17.74-8.36 17.74-6.67C17.74-4.99 16.37-3.62 14.68-3.62ZM14.68-4.55C15.86-4.55 16.82-5.50 16.82-6.67C16.82-7.85 15.86-8.80 14.68-8.80C13.51-8.80 12.55-7.85 12.55-6.67C12.55-5.50 13.51-4.55 14.68-4.55Z" fill="currentColor"/>
</svg>