<svg xmlns="http://www.w3.org/2000/svg" viewBox="0 0 24 24" width="24" height="24">
  <title>waveform.path.ecg.rectangle.fill</title>
  <path transform="matrix(0.7105190119344991, 0, 0, 0.7105190119344991, -0.1232306411323898, 18.003330557868445)" d="M9.47-13.77L7.65-9.33L2.99-9.33L2.99-15.50C2.99-18.29 4.58-19.88 7.37-19.88L26.75-19.88C29.55-19.88 31.14-18.29 31.14-15.50L31.14-9.33L25.61-9.33C25.00-9.33 24.63-9.01 24.41-8.46L24.05-7.51L21.98-13.78C21.67-14.74 20.25-14.75 19.85-13.77L18.04-9.33L15.22-9.33C14.61-9.33 14.24-9.01 14.02-8.46L13.66-7.51L11.60-13.78C11.29-14.74 9.87-14.75 9.47-13.77ZM2.99-7.07L8.36-7.07C9.01-7.07 9.40-7.34 9.63-7.91L10.48-10.03L12.57-3.22C12.88-2.24 14.41-2.24 14.73-3.25L15.93-7.07L18.75-7.07C19.34-7.07 19.70-7.35 19.95-7.91L20.86-10.07L22.97-3.22C23.26-2.24 24.80-2.24 25.11-3.25L26.31-7.07L31.14-7.07L31.14-1.39C31.14 1.39 29.55 2.98 26.75 2.98L7.37 2.98C4.58 2.98 2.99 1.39 2.99-1.39Z" fill="currentColor"/>
</svg>