<svg xmlns="http://www.w3.org/2000/svg" viewBox="0 0 24 24" width="24" height="24">
  <title>web.camera</title>
  <path transform="matrix(0.7708521529659741, 0, 0, 0.7708521529659741, 1.5980126467931353, 18.522131887985545)" d="M8.89 4.51L18.09 4.51C18.94 4.51 19.65 3.81 19.65 2.95C19.65 2.11 18.94 1.41 18.09 1.41L15.06 1.41L15.06-0.50C20.12-1.25 24-5.64 24-10.91C24-16.73 19.31-21.43 13.50-21.43C7.69-21.43 2.99-16.73 2.99-10.91C2.99-5.64 6.87-1.27 11.94-0.50L11.94 1.41L8.89 1.41C8.05 1.41 7.35 2.11 7.35 2.95C7.35 3.81 8.04 4.51 8.89 4.51ZM13.50-3.49C9.28-3.49 6.09-6.70 6.09-10.91C6.09-15.14 9.28-18.33 13.50-18.33C17.72-18.33 20.91-15.14 20.91-10.91C20.91-6.70 17.72-3.49 13.50-3.49ZM13.50-5.43C16.57-5.43 18.97-7.85 18.97-10.92C18.97-13.99 16.57-16.39 13.50-16.39C10.44-16.39 8.02-13.99 8.02-10.92C8.02-7.85 10.44-5.43 13.50-5.43ZM13.50-8.85C12.35-8.85 11.43-9.77 11.43-10.92C11.43-12.07 12.35-12.98 13.50-12.98C14.65-12.98 15.56-12.07 15.56-10.92C15.56-9.77 14.65-8.85 13.50-8.85Z" fill="currentColor"/>
</svg>