<svg xmlns="http://www.w3.org/2000/svg" viewBox="0 0 24 24" width="24" height="24">
  <title>wrench.and.screwdriver.fill</title>
  <path transform="matrix(0.6921058336281505, 0, 0, 0.6921058336281505, -0.06903795053961037, 17.709520285839574)" d="M5.59 4.03C7.82 6.23 10.86 6.11 12.91 4.03C14.46 2.48 15.54 0.08 17.82-3.05L21.90 1.03L22.02 1.98C22.08 2.48 22.39 2.98 22.85 3.26L26.51 5.53C27 5.84 27.53 5.86 27.93 5.46L30.15 3.23C30.54 2.85 30.52 2.32 30.20 1.82L27.95-1.83C27.66-2.29 27.16-2.60 26.65-2.66L25.71-2.77L21.28-7.18C21.67-7.58 22.07-7.98 22.50-8.40C25.03-7.46 27.93-7.97 29.89-9.94C32.30-12.33 32.58-16.22 30.46-19.13L28.73-17.41L27.13-15.82C26.88-15.57 26.67-15.59 26.44-15.81L25.45-16.78C25.20-17.04 25.20-17.26 25.43-17.51L27.62-19.71L28.75-20.82C25.84-22.95 21.96-22.68 19.56-20.27C18.14-18.87 17.48-16.97 17.58-15.08L12.50-20.17C10.50-22.16 8.32-22.20 6.38-20.25L4.43-18.29C2.48-16.34 2.51-14.19 4.51-12.19L10.18-6.50C8.24-5.26 6.70-4.43 5.58-3.30C3.50-1.25 3.38 1.80 5.59 4.03ZM23.52-15.49L25.15-13.89C26.05-13.00 27.21-12.97 28.07-13.83L29.21-14.98C29.26-13.79 28.85-12.64 28.02-11.81C26.32-10.11 23.47-10.21 21.64-12.02C19.82-13.85 19.73-16.69 21.45-18.39C22.28-19.23 23.43-19.64 24.60-19.59L23.45-18.45C22.57-17.57 22.61-16.39 23.52-15.49ZM13.08-12.18L9.08-16.20C8.77-16.52 8.77-17.06 9.11-17.37C9.42-17.66 9.91-17.67 10.22-17.36L14.25-13.34C14.58-13.01 14.57-12.48 14.23-12.16C13.93-11.87 13.39-11.85 13.08-12.18ZM11.34-10.44L7.34-14.45C7.02-14.78 7.02-15.32 7.36-15.63C7.68-15.91 8.18-15.94 8.48-15.62L12.50-11.59C12.83-11.25 12.82-10.75 12.49-10.44C12.18-10.14 11.66-10.11 11.34-10.44ZM19.77-10.15C19.90-10.02 20.03-9.90 20.17-9.79C13.58-2.94 13.31-0.15 11.04 2.13C10.03 3.13 8.65 3.27 7.49 2.13C6.34 0.96 6.49-0.41 7.49-1.42C9.77-3.69 12.55-3.97 19.39-10.56C19.51-10.42 19.64-10.28 19.77-10.15ZM9.22 1.63C9.90 1.63 10.44 1.08 10.44 0.41C10.44-0.26 9.90-0.81 9.22-0.81C8.55-0.81 8.00-0.26 8.00 0.41C8.00 1.08 8.55 1.63 9.22 1.63Z" fill="currentColor"/>
</svg>