<svg xmlns="http://www.w3.org/2000/svg" viewBox="0 0 24 24" width="24" height="24">
  <title>xmark.app</title>
  <path transform="matrix(0.8819982773471146, 0, 0, 0.8819982773471146, -0.625322997416021, 19.478036175710596)" d="M9.52 2.86L19.11 2.86C21.16 2.86 22.80 2.24 23.91 1.14C25.03 0.02 25.64-1.61 25.64-3.66L25.64-13.29C25.64-15.34 25.03-16.97 23.91-18.08C22.79-19.20 21.16-19.82 19.11-19.82L9.52-19.82C7.46-19.82 5.82-19.20 4.72-18.08C3.60-16.98 2.99-15.34 2.99-13.29L2.99-3.66C2.99-1.61 3.60 0.02 4.72 1.14C5.82 2.25 7.46 2.86 9.52 2.86ZM9.81-0.76C8.64-0.76 7.84-0.97 7.34-1.48C6.82-1.98 6.61-2.78 6.61-3.95L6.61-13.00C6.61-14.18 6.82-14.96 7.34-15.47C7.83-15.97 8.64-16.20 9.81-16.20L18.82-16.20C19.98-16.20 20.79-15.97 21.29-15.47C21.81-14.96 22.02-14.18 22.02-13.00L22.02-3.95C22.02-2.78 21.81-1.98 21.29-1.48C20.80-0.98 19.98-0.76 18.82-0.76ZM12-4.08L14.33-6.41L16.66-4.08C16.95-3.79 17.29-3.64 17.73-3.64C18.54-3.64 19.16-4.28 19.16-5.10C19.16-5.46 19.01-5.81 18.73-6.09L16.37-8.45L18.73-10.80C19.01-11.09 19.16-11.44 19.16-11.80C19.16-12.62 18.54-13.24 17.73-13.24C17.30-13.24 16.96-13.10 16.66-12.82L14.33-10.48L11.99-12.82C11.71-13.10 11.37-13.24 10.93-13.24C10.11-13.24 9.49-12.62 9.49-11.80C9.49-11.44 9.66-11.09 9.93-10.80L12.29-8.45L9.93-6.09C9.66-5.81 9.49-5.46 9.49-5.10C9.49-4.28 10.11-3.64 10.93-3.64C11.37-3.64 11.71-3.79 12-4.08Z" fill="currentColor"/>
</svg>