<svg xmlns="http://www.w3.org/2000/svg" viewBox="0 0 24 24" width="24" height="24">
  
  <path transform="matrix(0.7673860911270983, 0, 0, 0.7673860911270983, 0.6016187050359716, 18.492805755395683)" d="M5.53-8.43L12.97-8.43C13.91-8.43 14.55-9.01 14.55-9.94C14.55-10.85 13.91-11.43 12.97-11.43L8.14-11.43L8.14-11.48L13.73-18.19C14.24-18.77 14.41-19.22 14.41-19.76C14.41-20.84 13.64-21.49 12.47-21.49L5.24-21.49C4.29-21.49 3.66-20.91 3.66-20.00C3.66-19.08 4.29-18.49 5.24-18.49L10.04-18.49L10.04-18.43L4.27-11.50C3.89-11.05 3.75-10.66 3.75-10.11C3.75-9.13 4.49-8.43 5.53-8.43ZM18.61-2.02L24.49-2.02C25.43-2.02 26.05-2.60 26.05-3.50C26.05-4.38 25.42-4.96 24.49-4.96L21.11-4.96L21.11-5.02L25.16-9.86C25.69-10.49 25.90-10.91 25.90-11.46C25.90-12.50 25.16-13.15 24.02-13.15L18.32-13.15C17.39-13.15 16.77-12.59 16.77-11.68C16.77-10.78 17.39-10.22 18.32-10.22L21.70-10.22L21.70-10.16L17.47-5.09C17.04-4.58 16.88-4.20 16.88-3.67C16.88-2.70 17.59-2.02 18.61-2.02ZM8.98 4.57L13.70 4.57C14.58 4.57 15.16 4.01 15.16 3.15C15.16 2.30 14.58 1.76 13.70 1.76L11.38 1.76L11.38 1.70L14.34-1.86C14.82-2.46 15.04-2.91 15.04-3.45C15.04-4.39 14.37-4.98 13.35-4.98L8.67-4.98C7.79-4.98 7.21-4.44 7.21-3.59C7.21-2.73 7.79-2.18 8.67-2.18L11.04-2.18L11.04-2.12L7.89 1.65C7.46 2.16 7.32 2.50 7.32 3.01C7.32 3.91 8.03 4.57 8.98 4.57Z" fill="currentColor"/>
</svg>