<svg xmlns="http://www.w3.org/2000/svg" viewBox="0 0 24 24" width="24" height="24">
  
  <path transform="matrix(0.8926080892608089, 0, 0, 0.8926080892608089, -0.6673640167364017, 19.552301255230127)" d="M7.13 2.74L21.26 2.74C23.94 2.74 25.39 1.29 25.39-1.36L25.39-15.55C25.39-18.20 23.94-19.66 21.26-19.66L7.13-19.66C4.45-19.66 2.99-18.21 2.99-15.55L2.99-1.36C2.99 1.29 4.45 2.74 7.13 2.74ZM10.61-3.42C8.18-3.42 7.44-6.06 7.44-8.46C7.44-10.86 8.18-13.51 10.61-13.51C13.04-13.51 13.78-10.86 13.78-8.46C13.78-6.06 13.04-3.42 10.61-3.42ZM17.99-3.42C16.83-3.42 15.75-4.13 15.39-5.10C15.32-5.32 15.26-5.54 15.26-5.79C15.26-6.30 15.57-6.63 16.09-6.63C16.49-6.63 16.80-6.41 16.96-5.96C17.13-5.46 17.43-5.06 17.95-5.06C18.69-5.06 18.91-6.06 18.91-6.86C18.91-7.63 18.66-8.58 17.95-8.58C17.57-8.58 17.31-8.31 17.11-7.99C16.88-7.64 16.66-7.52 16.29-7.52C15.68-7.52 15.36-7.95 15.36-8.55C15.36-8.68 15.38-8.92 15.38-9.05L15.53-12.11C15.57-12.79 15.88-13.24 16.56-13.24L19.78-13.24C20.26-13.24 20.57-12.90 20.57-12.42C20.57-11.95 20.30-11.59 19.78-11.59L17.23-11.59L17.07-9.01L17.13-9.01C17.36-9.59 17.92-10.03 18.71-10.03C20.25-10.03 20.91-8.45 20.91-6.90C20.91-4.98 19.90-3.42 17.99-3.42ZM10.61-5.10C11.37-5.10 11.66-6.43 11.66-8.46C11.66-10.49 11.37-11.82 10.61-11.82C9.86-11.82 9.56-10.49 9.56-8.46C9.56-6.43 9.86-5.10 10.61-5.10Z" fill="currentColor"/>
</svg>