<svg xmlns="http://www.w3.org/2000/svg" viewBox="0 0 24 24" width="24" height="24">
  <title>1.calendar</title>
  <path transform="matrix(0.8130855963157059, 0, 0, 0.8130855963157059, -0.42972844211529315, 18.869938065745593)" d="M7.13 2.75L23.45 2.75C26.13 2.75 27.59 1.30 27.59-1.36L27.59-15.54C27.59-18.20 26.13-19.65 23.45-19.65L7.13-19.65C4.45-19.65 2.99-18.20 2.99-15.54L2.99-1.36C2.99 1.30 4.45 2.75 7.13 2.75ZM7.35-0.27C6.47-0.27 6.01-0.69 6.01-1.62L6.01-12.04C6.01-12.96 6.47-13.38 7.35-13.38L23.23-13.38C24.09-13.38 24.56-12.96 24.56-12.04L24.56-1.62C24.56-0.69 24.09-0.27 23.23-0.27ZM15.97-1.79C16.77-1.79 17.30-2.24 17.30-3.19L17.30-10.35C17.30-11.19 16.70-11.74 15.81-11.74C15.25-11.74 14.79-11.59 14.18-11.19L12.46-10.04C12.08-9.80 11.92-9.53 11.92-9.12C11.92-8.61 12.28-8.20 12.80-8.20C13.02-8.20 13.16-8.24 13.48-8.45L14.57-9.18L14.66-9.18L14.66-3.19C14.66-2.24 15.18-1.79 15.97-1.79Z" fill="currentColor"/>
</svg>