<svg xmlns="http://www.w3.org/2000/svg" viewBox="0 0 24 24" width="24" height="24">
  <title>12.square</title>
  <path transform="matrix(0.8926080892608089, 0, 0, 0.8926080892608089, -0.6673640167364017, 19.552301255230127)" d="M7.13 2.74L21.26 2.74C23.94 2.74 25.39 1.29 25.39-1.36L25.39-15.55C25.39-18.20 23.94-19.66 21.26-19.66L7.13-19.66C4.45-19.66 2.99-18.21 2.99-15.55L2.99-1.36C2.99 1.29 4.45 2.74 7.13 2.74ZM7.45-0.28C6.52-0.28 6.01-0.74 6.01-1.73L6.01-15.18C6.01-16.17 6.52-16.64 7.45-16.64L20.93-16.64C21.87-16.64 22.37-16.17 22.37-15.18L22.37-1.73C22.37-0.74 21.87-0.28 20.93-0.28ZM14.77-3.91L18.57-3.91C19.09-3.91 19.32-4.27 19.32-4.69C19.32-5.13 19.08-5.47 18.57-5.47L16.20-5.47L16.20-5.57L17.64-7.35C18.66-8.58 19.17-9.43 19.17-10.57C19.17-12.21 18.06-13.24 16.45-13.24C15-13.24 13.85-12.12 13.85-10.89C13.85-10.39 14.14-10.03 14.66-10.03C15.08-10.03 15.38-10.23 15.52-10.70C15.69-11.29 15.91-11.72 16.45-11.72C17.04-11.72 17.31-11.17 17.31-10.51C17.31-9.64 16.72-8.78 16.07-7.96L14.36-5.78C14.03-5.36 13.85-5.06 13.85-4.69C13.85-4.22 14.16-3.91 14.77-3.91ZM11.31-3.77C11.86-3.77 12.30-4.22 12.30-4.77L12.30-12.04C12.30-12.76 11.86-13.16 11.14-13.16C10.59-13.16 10.20-12.90 9.84-12.63L8.75-11.80C8.48-11.59 8.33-11.34 8.33-11.02C8.33-10.55 8.65-10.30 9-10.30C9.20-10.30 9.33-10.36 9.48-10.48L10.30-11.13L10.30-4.77C10.30-4.22 10.75-3.77 11.31-3.77Z" fill="currentColor"/>
</svg>