<svg xmlns="http://www.w3.org/2000/svg" viewBox="0 0 24 24" width="24" height="24">
  <title>12.square.fill</title>
  <path transform="matrix(0.8926080892608089, 0, 0, 0.8926080892608089, -0.6673640167364017, 19.552301255230127)" d="M7.13 2.74L21.26 2.74C23.94 2.74 25.39 1.29 25.39-1.36L25.39-15.55C25.39-18.20 23.94-19.66 21.26-19.66L7.13-19.66C4.45-19.66 2.99-18.21 2.99-15.55L2.99-1.36C2.99 1.29 4.45 2.74 7.13 2.74ZM14.89-3.67C14.25-3.67 13.92-3.98 13.92-4.49C13.92-4.88 14.11-5.19 14.46-5.64L16.25-7.92C16.93-8.80 17.57-9.70 17.57-10.62C17.57-11.31 17.29-11.87 16.66-11.87C16.10-11.87 15.87-11.43 15.69-10.80C15.54-10.31 15.22-10.10 14.78-10.10C14.23-10.10 13.92-10.49 13.92-11.02C13.92-12.32 15.13-13.50 16.68-13.50C18.35-13.50 19.54-12.41 19.54-10.69C19.54-9.48 18.98-8.58 17.93-7.29L16.41-5.41L16.41-5.32L18.90-5.32C19.44-5.32 19.70-4.96 19.70-4.49C19.70-4.04 19.44-3.67 18.90-3.67ZM11.24-3.52C10.64-3.52 10.18-4.00 10.18-4.58L10.18-11.27L9.32-10.57C9.15-10.45 9.01-10.39 8.80-10.39C8.44-10.39 8.10-10.65 8.10-11.14C8.10-11.50 8.26-11.77 8.54-11.98L9.69-12.86C10.05-13.14 10.48-13.41 11.06-13.41C11.82-13.41 12.29-12.98 12.29-12.22L12.29-4.58C12.29-4.00 11.81-3.52 11.24-3.52Z" fill="currentColor"/>
</svg>