<svg xmlns="http://www.w3.org/2000/svg" viewBox="0 0 24 24" width="24" height="24">
  <title>15.square.fill</title>
  <path transform="matrix(0.8926080892608089, 0, 0, 0.8926080892608089, -0.6673640167364017, 19.552301255230127)" d="M7.13 2.74L21.26 2.74C23.94 2.74 25.39 1.29 25.39-1.36L25.39-15.55C25.39-18.20 23.94-19.66 21.26-19.66L7.13-19.66C4.45-19.66 2.99-18.21 2.99-15.55L2.99-1.36C2.99 1.29 4.45 2.74 7.13 2.74ZM11.03-3.53C10.44-3.53 9.97-4.00 9.97-4.58L9.97-11.27L9.11-10.59C8.94-10.45 8.80-10.39 8.59-10.39C8.23-10.39 7.89-10.65 7.89-11.14C7.89-11.50 8.05-11.77 8.34-11.98L9.47-12.87C9.84-13.14 10.28-13.41 10.85-13.41C11.63-13.41 12.08-12.98 12.08-12.22L12.08-4.58C12.08-4.00 11.61-3.53 11.03-3.53ZM16.84-3.42C15.66-3.42 14.59-4.13 14.23-5.10C14.14-5.32 14.10-5.54 14.10-5.79C14.10-6.30 14.41-6.63 14.93-6.63C15.33-6.63 15.64-6.42 15.81-5.96C15.98-5.46 16.27-5.06 16.79-5.06C17.52-5.06 17.75-6.06 17.75-6.86C17.75-7.63 17.51-8.58 16.79-8.58C16.41-8.58 16.16-8.32 15.95-8.00C15.71-7.64 15.50-7.52 15.13-7.52C14.52-7.52 14.20-7.95 14.20-8.55C14.20-8.68 14.20-8.92 14.21-9.05L14.37-12.12C14.41-12.80 14.72-13.24 15.40-13.24L18.62-13.24C19.10-13.24 19.41-12.90 19.41-12.42C19.41-11.95 19.14-11.59 18.62-11.59L16.07-11.59L15.90-9.01L15.97-9.01C16.20-9.59 16.76-10.03 17.55-10.03C19.10-10.03 19.75-8.45 19.75-6.90C19.75-4.98 18.74-3.42 16.84-3.42Z" fill="currentColor"/>
</svg>