<svg xmlns="http://www.w3.org/2000/svg" viewBox="0 0 24 24" width="24" height="24">
  <title>17.circle</title>
  <path transform="matrix(0.8080808080808081, 0, 0, 0.8080808080808081, 0.30492424242424243, 18.83712121212121)" d="M14.47 3.91C21.30 3.91 26.85-1.63 26.85-8.46C26.85-15.29 21.30-20.84 14.47-20.84C7.64-20.84 2.10-15.29 2.10-8.46C2.10-1.63 7.64 3.91 14.47 3.91ZM14.47 0.83C9.34 0.83 5.18-3.33 5.18-8.46C5.18-13.61 9.34-17.75 14.47-17.75C19.62-17.75 23.77-13.61 23.77-8.46C23.77-3.33 19.62 0.83 14.47 0.83ZM11.91-3.77C12.46-3.77 12.90-4.22 12.90-4.77L12.90-12.04C12.90-12.76 12.46-13.16 11.74-13.16C11.19-13.16 10.79-12.90 10.44-12.63L9.35-11.80C9.08-11.59 8.93-11.34 8.93-11.02C8.93-10.55 9.25-10.30 9.60-10.30C9.80-10.30 9.93-10.36 10.08-10.48L10.91-11.13L10.91-4.77C10.91-4.22 11.36-3.77 11.91-3.77ZM16.18-3.76C16.69-3.76 16.91-3.96 17.07-4.41L19.43-10.92C19.57-11.32 19.65-11.63 19.65-12.02C19.65-12.62 19.20-13.00 18.62-13.00L15.13-13.00C14.65-13.00 14.37-12.66 14.37-12.22C14.37-11.77 14.67-11.44 15.13-11.44L17.66-11.44L17.66-11.33L15.43-5.33C15.34-5.07 15.28-4.88 15.28-4.59C15.28-4.21 15.53-3.76 16.18-3.76Z" fill="currentColor"/>
</svg>