<svg xmlns="http://www.w3.org/2000/svg" viewBox="0 0 24 24" width="24" height="24">
  
  <path transform="matrix(0.8080808080808081, 0, 0, 0.8080808080808081, 0.30492424242424243, 18.83712121212121)" d="M14.47 3.91C21.30 3.91 26.85-1.63 26.85-8.46C26.85-15.29 21.30-20.84 14.47-20.84C7.64-20.84 2.10-15.29 2.10-8.46C2.10-1.63 7.64 3.91 14.47 3.91ZM17.99-3.42C15.57-3.42 14.84-6.06 14.84-8.46C14.84-10.86 15.57-13.51 17.99-13.51C20.43-13.51 21.16-10.86 21.16-8.46C21.16-6.06 20.43-3.42 17.99-3.42ZM8.93-3.67C8.30-3.67 7.96-3.98 7.96-4.49C7.96-4.89 8.14-5.20 8.51-5.64L10.30-7.93C10.98-8.80 11.60-9.70 11.60-10.62C11.60-11.31 11.32-11.87 10.71-11.87C10.15-11.87 9.90-11.44 9.74-10.82C9.57-10.31 9.26-10.11 8.82-10.11C8.27-10.11 7.96-10.49 7.96-11.03C7.96-12.32 9.19-13.50 10.71-13.50C12.40-13.50 13.57-12.41 13.57-10.69C13.57-9.48 13.03-8.58 11.96-7.29L10.44-5.41L10.44-5.32L12.95-5.32C13.48-5.32 13.73-4.97 13.73-4.49C13.73-4.04 13.49-3.67 12.95-3.67ZM17.99-5.10C18.75-5.10 19.04-6.43 19.04-8.46C19.04-10.49 18.75-11.82 17.99-11.82C17.24-11.82 16.95-10.49 16.95-8.46C16.95-6.43 17.24-5.10 17.99-5.10Z" fill="currentColor"/>
</svg>