<svg xmlns="http://www.w3.org/2000/svg" viewBox="0 0 24 24" width="24" height="24">
  
  <path transform="matrix(0.8130855963157059, 0, 0, 0.8130855963157059, -0.42972844211529315, 18.869938065745593)" d="M7.13 2.75L23.45 2.75C26.13 2.75 27.59 1.30 27.59-1.36L27.59-15.54C27.59-18.20 26.13-19.65 23.45-19.65L7.13-19.65C4.45-19.65 2.99-18.20 2.99-15.54L2.99-1.36C2.99 1.30 4.45 2.75 7.13 2.75ZM7.35-0.27C6.47-0.27 6.01-0.69 6.01-1.62L6.01-12.04C6.01-12.96 6.47-13.38 7.35-13.38L23.23-13.38C24.09-13.38 24.56-12.96 24.56-12.04L24.56-1.62C24.56-0.69 24.09-0.27 23.23-0.27ZM10.13-2.21L13.93-2.21C14.45-2.21 14.68-2.57 14.68-3C14.68-3.45 14.44-3.77 13.93-3.77L11.55-3.77L11.55-3.87L13.01-5.65C14.02-6.89 14.53-7.75 14.53-8.88C14.53-10.51 13.42-11.55 11.82-11.55C10.37-11.55 9.21-10.43 9.21-9.20C9.21-8.70 9.50-8.34 10.02-8.34C10.44-8.34 10.75-8.54 10.89-9C11.05-9.60 11.27-10.02 11.81-10.02C12.41-10.02 12.67-9.48 12.67-8.81C12.67-7.95 12.08-7.09 11.44-6.27L9.71-4.08C9.39-3.67 9.21-3.36 9.21-3C9.21-2.52 9.53-2.21 10.13-2.21ZM18.55-2.00C20.25-2.00 21.50-3.02 21.50-4.71C21.50-6 20.75-6.76 19.77-6.88L19.77-6.93C20.64-7.15 21.23-8.00 21.23-9.04C21.23-10.61 20.07-11.52 18.49-11.52C17.33-11.52 16.25-10.89 15.94-9.84C15.88-9.64 15.84-9.43 15.84-9.22C15.84-8.84 16.10-8.45 16.66-8.45C17.09-8.45 17.43-8.59 17.55-9.05C17.68-9.56 17.96-9.98 18.50-9.98C19.13-9.98 19.38-9.43 19.38-8.81C19.38-8.12 19.04-7.52 18.28-7.52L18.11-7.52C17.63-7.52 17.36-7.25 17.36-6.83C17.36-6.41 17.63-6.14 18.11-6.14L18.29-6.14C19.15-6.14 19.57-5.67 19.57-4.82C19.57-4.16 19.27-3.55 18.55-3.55C17.92-3.55 17.61-3.98 17.47-4.42C17.33-4.86 17.04-5.09 16.59-5.09C16.07-5.09 15.71-4.77 15.71-4.23C15.71-4.01 15.75-3.81 15.81-3.62C16.14-2.57 17.30-2.00 18.55-2.00Z" fill="currentColor"/>
</svg>