<svg xmlns="http://www.w3.org/2000/svg" viewBox="0 0 24 24" width="24" height="24">
  <title>29.square</title>
  <path transform="matrix(0.8926080892608089, 0, 0, 0.8926080892608089, -0.6673640167364017, 19.552301255230127)" d="M7.13 2.74L21.26 2.74C23.94 2.74 25.39 1.29 25.39-1.36L25.39-15.55C25.39-18.20 23.94-19.66 21.26-19.66L7.13-19.66C4.45-19.66 2.99-18.21 2.99-15.55L2.99-1.36C2.99 1.29 4.45 2.74 7.13 2.74ZM7.45-0.28C6.52-0.28 6.01-0.74 6.01-1.73L6.01-15.18C6.01-16.17 6.52-16.64 7.45-16.64L20.93-16.64C21.87-16.64 22.37-16.17 22.37-15.18L22.37-1.73C22.37-0.74 21.87-0.28 20.93-0.28ZM9-3.91L12.81-3.91C13.32-3.91 13.56-4.27 13.56-4.69C13.56-5.13 13.31-5.47 12.81-5.47L10.43-5.47L10.43-5.57L11.88-7.35C12.89-8.58 13.41-9.43 13.41-10.57C13.41-12.21 12.29-13.24 10.70-13.24C9.25-13.24 8.09-12.12 8.09-10.89C8.09-10.39 8.38-10.03 8.89-10.03C9.32-10.03 9.62-10.23 9.76-10.70C9.93-11.29 10.15-11.72 10.69-11.72C11.29-11.72 11.54-11.17 11.54-10.51C11.54-9.64 10.96-8.78 10.31-7.96L8.59-5.78C8.26-5.36 8.09-5.06 8.09-4.69C8.09-4.22 8.40-3.91 9-3.91ZM16.72-7.09C17.64-7.09 18.25-7.72 18.48-8.60L18.50-8.60L18.50-8.21C18.50-6.80 18.29-5.23 17.39-5.23C17.00-5.23 16.76-5.47 16.56-5.91C16.37-6.30 16.11-6.48 15.71-6.48C15.13-6.48 14.91-6.09 14.91-5.66C14.91-5.53 14.93-5.36 14.98-5.21C15.25-4.21 16.22-3.68 17.33-3.68C19.68-3.68 20.37-6.16 20.37-8.52C20.37-10.61 19.71-13.23 17.36-13.23C15.59-13.23 14.61-11.75 14.61-10.01C14.61-8.52 15.27-7.09 16.72-7.09ZM17.38-8.51C16.76-8.51 16.49-9.26 16.49-10.08C16.49-10.92 16.79-11.67 17.38-11.67C18.01-11.67 18.29-10.91 18.29-10.05C18.29-9.22 18-8.51 17.38-8.51Z" fill="currentColor"/>
</svg>