<svg xmlns="http://www.w3.org/2000/svg" viewBox="0 0 24 24" width="24" height="24">
  <title>33.circle</title>
  <path transform="matrix(0.8080808080808081, 0, 0, 0.8080808080808081, 0.30492424242424243, 18.83712121212121)" d="M14.47 3.91C21.30 3.91 26.85-1.63 26.85-8.46C26.85-15.29 21.30-20.84 14.47-20.84C7.64-20.84 2.10-15.29 2.10-8.46C2.10-1.63 7.64 3.91 14.47 3.91ZM14.47 0.83C9.34 0.83 5.18-3.33 5.18-8.46C5.18-13.61 9.34-17.75 14.47-17.75C19.62-17.75 23.77-13.61 23.77-8.46C23.77-3.33 19.62 0.83 14.47 0.83ZM11.06-3.69C12.76-3.69 14.00-4.72 14.00-6.41C14.00-7.70 13.25-8.45 12.28-8.57L12.28-8.61C13.15-8.84 13.73-9.69 13.73-10.72C13.73-12.30 12.59-13.21 11.00-13.21C9.83-13.21 8.77-12.59 8.45-11.53C8.38-11.33 8.36-11.12 8.36-10.92C8.36-10.52 8.60-10.14 9.18-10.14C9.60-10.14 9.94-10.29 10.05-10.73C10.20-11.25 10.48-11.67 11.02-11.67C11.63-11.67 11.88-11.12 11.88-10.51C11.88-9.81 11.55-9.22 10.79-9.22L10.61-9.22C10.13-9.22 9.87-8.95 9.87-8.53C9.87-8.10 10.13-7.84 10.61-7.84L10.80-7.84C11.66-7.84 12.08-7.37 12.08-6.50C12.08-5.86 11.77-5.24 11.05-5.24C10.42-5.24 10.13-5.67 9.98-6.12C9.84-6.55 9.54-6.77 9.11-6.77C8.57-6.77 8.23-6.46 8.23-5.92C8.23-5.71 8.25-5.50 8.32-5.31C8.64-4.27 9.80-3.69 11.06-3.69ZM17.89-3.69C19.61-3.69 20.85-4.72 20.85-6.41C20.85-7.70 20.10-8.45 19.11-8.57L19.11-8.61C19.99-8.84 20.58-9.69 20.58-10.72C20.58-12.30 19.42-13.21 17.84-13.21C16.68-13.21 15.61-12.59 15.28-11.53C15.22-11.33 15.20-11.12 15.20-10.92C15.20-10.52 15.45-10.14 16.02-10.14C16.43-10.14 16.77-10.29 16.90-10.73C17.04-11.25 17.32-11.67 17.85-11.67C18.47-11.67 18.73-11.12 18.73-10.51C18.73-9.81 18.39-9.22 17.63-9.22L17.45-9.22C16.97-9.22 16.71-8.95 16.71-8.53C16.71-8.10 16.97-7.84 17.45-7.84L17.65-7.84C18.49-7.84 18.93-7.37 18.93-6.50C18.93-5.86 18.61-5.24 17.89-5.24C17.26-5.24 16.96-5.67 16.83-6.12C16.68-6.55 16.38-6.77 15.95-6.77C15.41-6.77 15.07-6.46 15.07-5.92C15.07-5.71 15.09-5.50 15.15-5.31C15.48-4.27 16.64-3.69 17.89-3.69Z" fill="currentColor"/>
</svg>