<svg xmlns="http://www.w3.org/2000/svg" viewBox="0 0 24 24" width="24" height="24">
  <title>35.circle</title>
  <path transform="matrix(0.8080808080808081, 0, 0, 0.8080808080808081, 0.30492424242424243, 18.83712121212121)" d="M14.47 3.91C21.30 3.91 26.85-1.63 26.85-8.46C26.85-15.29 21.30-20.84 14.47-20.84C7.64-20.84 2.10-15.29 2.10-8.46C2.10-1.63 7.64 3.91 14.47 3.91ZM14.47 0.83C9.34 0.83 5.18-3.33 5.18-8.46C5.18-13.61 9.34-17.75 14.47-17.75C19.62-17.75 23.77-13.61 23.77-8.46C23.77-3.33 19.62 0.83 14.47 0.83ZM11.00-3.69C12.71-3.69 13.96-4.72 13.96-6.41C13.96-7.70 13.21-8.45 12.22-8.57L12.22-8.61C13.10-8.84 13.69-9.69 13.69-10.72C13.69-12.30 12.53-13.21 10.95-13.21C9.79-13.21 8.72-12.59 8.39-11.53C8.33-11.33 8.31-11.12 8.31-10.92C8.31-10.52 8.55-10.14 9.13-10.14C9.54-10.14 9.88-10.29 10.01-10.73C10.14-11.25 10.42-11.67 10.96-11.67C11.58-11.67 11.84-11.12 11.84-10.51C11.84-9.81 11.50-9.22 10.73-9.22L10.56-9.22C10.08-9.22 9.82-8.95 9.82-8.53C9.82-8.10 10.08-7.84 10.56-7.84L10.76-7.84C11.60-7.84 12.04-7.37 12.04-6.50C12.04-5.86 11.72-5.24 11.00-5.24C10.37-5.24 10.07-5.67 9.93-6.12C9.79-6.55 9.49-6.77 9.06-6.77C8.52-6.77 8.17-6.46 8.17-5.92C8.17-5.71 8.20-5.50 8.26-5.31C8.59-4.27 9.75-3.69 11.00-3.69ZM17.88-3.67C19.70-3.67 20.65-5.16 20.65-6.98C20.65-8.45 20.03-9.95 18.56-9.95C17.81-9.95 17.29-9.54 17.06-8.98L17.00-8.98L17.16-11.44L19.58-11.44C20.06-11.44 20.32-11.78 20.32-12.22C20.32-12.68 20.04-13.00 19.58-13.00L16.52-13.00C15.88-13.00 15.59-12.57 15.55-11.93L15.41-9.01C15.40-8.88 15.39-8.67 15.39-8.54C15.39-7.98 15.68-7.57 16.27-7.57C16.62-7.57 16.82-7.69 17.04-8.02C17.24-8.32 17.48-8.58 17.85-8.58C18.53-8.58 18.76-7.66 18.76-6.93C18.76-6.18 18.55-5.23 17.85-5.23C17.34-5.23 17.06-5.61 16.90-6.09C16.75-6.52 16.44-6.73 16.08-6.73C15.59-6.73 15.29-6.41 15.29-5.93C15.29-5.70 15.34-5.47 15.41-5.26C15.76-4.35 16.77-3.67 17.88-3.67Z" fill="currentColor"/>
</svg>