<svg xmlns="http://www.w3.org/2000/svg" viewBox="0 0 24 24" width="24" height="24">
  
  <path transform="matrix(0.8080808080808081, 0, 0, 0.8080808080808081, 0.30492424242424243, 18.83712121212121)" d="M14.47 3.91C21.30 3.91 26.85-1.63 26.85-8.46C26.85-15.29 21.30-20.84 14.47-20.84C7.64-20.84 2.10-15.29 2.10-8.46C2.10-1.63 7.64 3.91 14.47 3.91ZM14.47 0.83C9.34 0.83 5.18-3.33 5.18-8.46C5.18-13.61 9.34-17.75 14.47-17.75C19.62-17.75 23.77-13.61 23.77-8.46C23.77-3.33 19.62 0.83 14.47 0.83ZM18.04-3.67C19.80-3.67 20.77-5.14 20.77-6.89C20.77-8.38 20.12-9.82 18.66-9.82C17.74-9.82 17.13-9.19 16.91-8.31L16.88-8.31L16.88-8.68C16.88-10.10 17.10-11.68 18-11.68C18.41-11.68 18.64-11.37 18.82-10.99C19.02-10.61 19.27-10.43 19.68-10.43C20.25-10.43 20.47-10.82 20.47-11.25C20.47-11.38 20.45-11.55 20.41-11.70C20.14-12.70 19.17-13.23 18.06-13.23C15.70-13.23 15.01-10.73 15.01-8.39C15.01-6.29 15.68-3.67 18.04-3.67ZM10.97-3.69C12.68-3.69 13.92-4.72 13.92-6.41C13.92-7.70 13.17-8.45 12.19-8.57L12.19-8.61C13.07-8.84 13.65-9.69 13.65-10.72C13.65-12.30 12.49-13.21 10.91-13.21C9.75-13.21 8.68-12.59 8.36-11.53C8.30-11.33 8.27-11.12 8.27-10.92C8.27-10.52 8.52-10.14 9.09-10.14C9.50-10.14 9.84-10.29 9.97-10.73C10.11-11.25 10.39-11.67 10.92-11.67C11.54-11.67 11.80-11.12 11.80-10.51C11.80-9.81 11.46-9.22 10.70-9.22L10.52-9.22C10.04-9.22 9.79-8.95 9.79-8.53C9.79-8.10 10.04-7.84 10.52-7.84L10.72-7.84C11.57-7.84 12-7.37 12-6.50C12-5.86 11.68-5.24 10.97-5.24C10.34-5.24 10.03-5.67 9.90-6.12C9.75-6.55 9.46-6.77 9.02-6.77C8.48-6.77 8.14-6.46 8.14-5.92C8.14-5.71 8.17-5.50 8.23-5.31C8.55-4.27 9.71-3.69 10.97-3.69ZM18-5.23C17.37-5.23 17.09-6.02 17.09-6.86C17.09-7.66 17.39-8.38 18-8.38C18.62-8.38 18.90-7.63 18.89-6.81C18.89-5.98 18.60-5.23 18-5.23Z" fill="currentColor"/>
</svg>