<svg xmlns="http://www.w3.org/2000/svg" viewBox="0 0 24 24" width="24" height="24">
  <title>37.circle.fill</title>
  <path transform="matrix(0.8080808080808081, 0, 0, 0.8080808080808081, 0.30492424242424243, 18.83712121212121)" d="M14.47 3.91C21.30 3.91 26.85-1.63 26.85-8.46C26.85-15.29 21.30-20.84 14.47-20.84C7.64-20.84 2.10-15.29 2.10-8.46C2.10-1.63 7.64 3.91 14.47 3.91ZM11.25-3.45C9.93-3.45 8.70-4.03 8.36-5.13C8.29-5.33 8.26-5.55 8.26-5.79C8.26-6.35 8.63-6.69 9.19-6.69C9.66-6.69 9.97-6.46 10.13-5.99C10.27-5.52 10.58-5.07 11.24-5.07C11.99-5.07 12.32-5.73 12.32-6.40C12.32-7.31 11.87-7.79 10.97-7.79L10.78-7.79C10.27-7.79 9.98-8.07 9.98-8.53C9.98-8.98 10.27-9.26 10.78-9.26L10.96-9.26C11.77-9.26 12.12-9.89 12.12-10.62C12.12-11.26 11.85-11.84 11.20-11.84C10.63-11.84 10.35-11.39 10.20-10.85C10.07-10.38 9.70-10.22 9.26-10.22C8.66-10.22 8.39-10.63 8.39-11.05C8.39-11.27 8.43-11.50 8.50-11.71C8.82-12.81 9.96-13.46 11.18-13.46C12.86-13.46 14.07-12.50 14.07-10.84C14.07-9.76 13.45-8.86 12.54-8.63L12.54-8.57C13.57-8.45 14.36-7.65 14.36-6.29C14.36-4.52 13.04-3.45 11.25-3.45ZM17.19-3.52C16.50-3.52 16.24-3.97 16.24-4.39C16.24-4.69 16.29-4.90 16.39-5.17L18.74-11.47L18.74-11.59L16.08-11.59C15.59-11.59 15.27-11.94 15.27-12.42C15.27-12.88 15.57-13.24 16.08-13.24L19.75-13.24C20.37-13.24 20.84-12.84 20.84-12.21C20.84-11.79 20.75-11.46 20.60-11.05L18.13-4.20C17.96-3.73 17.73-3.52 17.19-3.52Z" fill="currentColor"/>
</svg>