<svg xmlns="http://www.w3.org/2000/svg" viewBox="0 0 24 24" width="24" height="24">
  <title>4.alt.square</title>
  <path transform="matrix(0.8926080892608089, 0, 0, 0.8926080892608089, -0.6673640167364017, 19.552301255230127)" d="M7.13 2.74L21.26 2.74C23.94 2.74 25.39 1.29 25.39-1.36L25.39-15.55C25.39-18.20 23.94-19.66 21.26-19.66L7.13-19.66C4.45-19.66 2.99-18.21 2.99-15.55L2.99-1.36C2.99 1.29 4.45 2.74 7.13 2.74ZM7.45-0.28C6.52-0.28 6.01-0.74 6.01-1.73L6.01-15.18C6.01-16.17 6.52-16.64 7.45-16.64L20.93-16.64C21.87-16.64 22.37-16.17 22.37-15.18L22.37-1.73C22.37-0.74 21.87-0.28 20.93-0.28ZM9.50-6.47C9.50-5.57 10.08-5.09 10.95-5.09L14.78-5.09L14.78-4.29C14.78-3.45 15.25-3 15.97-3C16.72-3 17.18-3.43 17.18-4.29L17.18-5.09L17.65-5.09C18.41-5.09 18.88-5.51 18.88-6.19C18.88-6.84 18.42-7.25 17.66-7.25L17.18-7.25L17.18-8.85C17.18-9.60 16.71-10.07 15.97-10.07C15.23-10.07 14.78-9.59 14.78-8.85L14.78-7.25L12.49-7.25C13.28-8.77 14.18-10.49 14.92-11.94C15.08-12.32 15.15-12.53 15.15-12.81C15.15-13.43 14.66-13.92 13.95-13.92C13.39-13.92 13.05-13.66 12.79-13.16C11.79-11.32 10.85-9.60 9.88-7.76C9.64-7.27 9.50-6.88 9.50-6.47Z" fill="currentColor"/>
</svg>