<svg xmlns="http://www.w3.org/2000/svg" viewBox="0 0 24 24" width="24" height="24">
  <title>48.circle</title>
  <path transform="matrix(0.8080808080808081, 0, 0, 0.8080808080808081, 0.30492424242424243, 18.83712121212121)" d="M14.47 3.91C21.30 3.91 26.85-1.63 26.85-8.46C26.85-15.29 21.30-20.84 14.47-20.84C7.64-20.84 2.10-15.29 2.10-8.46C2.10-1.63 7.64 3.91 14.47 3.91ZM14.47 0.83C9.34 0.83 5.18-3.33 5.18-8.46C5.18-13.61 9.34-17.75 14.47-17.75C19.62-17.75 23.77-13.61 23.77-8.46C23.77-3.33 19.62 0.83 14.47 0.83ZM17.88-3.69C19.62-3.69 20.88-4.71 20.88-6.36C20.88-7.55 20.17-8.47 19.20-8.68L19.20-8.72C20.02-8.98 20.64-9.74 20.64-10.75C20.64-12.23 19.50-13.22 17.88-13.22C16.43-13.22 15.14-12.38 15.14-10.76C15.14-9.63 15.84-8.95 16.59-8.72L16.59-8.68C15.62-8.47 14.89-7.55 14.89-6.38C14.89-4.70 16.17-3.69 17.88-3.69ZM11.96-3.75C12.48-3.75 12.89-4.04 12.89-4.71L12.89-5.57L13.15-5.57C13.70-5.57 13.90-5.93 13.90-6.35C13.90-6.82 13.66-7.13 13.15-7.13L12.89-7.13L12.89-11.71C12.89-12.63 12.29-13.14 11.39-13.14C10.25-13.14 9.86-12.39 9.50-11.47L7.99-7.91C7.80-7.44 7.72-7.05 7.72-6.66C7.72-5.98 8.13-5.57 8.85-5.57L11.03-5.57L11.03-4.71C11.03-4.03 11.48-3.75 11.96-3.75ZM17.88-9.30C17.34-9.30 17.05-9.88 17.05-10.55C17.05-11.25 17.36-11.81 17.88-11.81C18.45-11.81 18.73-11.25 18.73-10.55C18.73-9.84 18.43-9.30 17.88-9.30ZM11.07-7.08L9.35-7.08L9.35-7.16L11.03-11.54L11.07-11.54ZM17.88-5.11C17.27-5.11 16.95-5.72 16.95-6.52C16.95-7.29 17.27-7.90 17.88-7.90C18.49-7.90 18.83-7.31 18.83-6.52C18.83-5.72 18.50-5.11 17.88-5.11Z" fill="currentColor"/>
</svg>