<svg xmlns="http://www.w3.org/2000/svg" viewBox="0 0 24 24" width="24" height="24">
  <title>5.circle.fill</title>
  <path transform="matrix(0.8080808080808081, 0, 0, 0.8080808080808081, 0.30492424242424243, 18.83712121212121)" d="M14.47 3.91C21.30 3.91 26.85-1.63 26.85-8.46C26.85-15.29 21.30-20.84 14.47-20.84C7.64-20.84 2.10-15.29 2.10-8.46C2.10-1.63 7.64 3.91 14.47 3.91ZM14.41-2.70C12.27-2.70 10.77-3.43 10.29-4.62C10.21-4.82 10.16-5.03 10.16-5.27C10.16-5.94 10.63-6.39 11.41-6.39C11.99-6.39 12.33-6.19 12.59-5.87C12.96-5.34 13.54-4.98 14.34-4.98C15.34-4.98 16.07-5.70 16.07-6.66C16.07-7.63 15.45-8.27 14.50-8.27C13.98-8.27 13.62-8.12 13.17-7.80C12.75-7.54 12.41-7.41 11.85-7.41C10.78-7.41 10.22-7.98 10.29-8.99L10.55-12.42C10.59-13.32 11.23-13.93 12.19-13.93L17.30-13.93C18.06-13.93 18.50-13.54 18.50-12.84C18.50-12.18 18.02-11.77 17.30-11.77L12.88-11.77L12.67-9.27L12.82-9.27C13.21-9.90 14.21-10.34 15.27-10.34C17.48-10.34 18.97-8.89 18.97-6.74C18.97-4.28 17.18-2.70 14.41-2.70Z" fill="currentColor"/>
</svg>