<svg xmlns="http://www.w3.org/2000/svg" viewBox="0 0 24 24" width="24" height="24">
  
  <path transform="matrix(0.8926080892608089, 0, 0, 0.8926080892608089, -0.6673640167364017, 19.552301255230127)" d="M7.13 2.74L21.26 2.74C23.94 2.74 25.39 1.29 25.39-1.36L25.39-15.55C25.39-18.20 23.94-19.66 21.26-19.66L7.13-19.66C4.45-19.66 2.99-18.21 2.99-15.55L2.99-1.36C2.99 1.29 4.45 2.74 7.13 2.74ZM14.29-2.70C11.41-2.70 9.57-4.35 9.57-6.90C9.57-8.29 10.20-9.67 11.30-11.10C11.75-11.71 12.49-12.67 13.04-13.37C13.39-13.79 13.75-14.21 14.48-14.21C15.29-14.21 15.73-13.66 15.73-13.09C15.73-12.80 15.62-12.54 15.41-12.26C14.98-11.68 14.39-10.96 13.97-10.42C13.70-10.05 13.54-9.84 13.36-9.59L13.51-9.57C13.89-9.91 14.64-10.22 15.48-10.22C17.55-10.22 18.98-8.73 18.98-6.73C18.98-4.39 17.12-2.70 14.29-2.70ZM14.29-4.92C15.42-4.92 16.24-5.64 16.24-6.57C16.24-7.52 15.42-8.20 14.29-8.20C13.17-8.20 12.35-7.52 12.35-6.59C12.35-5.64 13.18-4.92 14.29-4.92Z" fill="currentColor"/>
</svg>