<svg xmlns="http://www.w3.org/2000/svg" viewBox="0 0 24 24" width="24" height="24">
  
  <path transform="matrix(0.8080808080808081, 0, 0, 0.8080808080808081, 0.30492424242424243, 18.83712121212121)" d="M14.47 3.91C21.30 3.91 26.85-1.63 26.85-8.46C26.85-15.29 21.30-20.84 14.47-20.84C7.64-20.84 2.10-15.29 2.10-8.46C2.10-1.63 7.64 3.91 14.47 3.91ZM14.59-2.70C12.87-2.70 11.46-3.35 10.64-4.69C10.08-5.58 9.77-6.81 9.77-8.39C9.77-12.21 11.70-14.23 14.89-14.23C16.50-14.23 17.85-13.57 18.33-12.69C18.47-12.46 18.55-12.21 18.55-11.93C18.55-11.32 18.09-10.91 17.44-10.91C16.90-10.91 16.59-11.13 16.23-11.43C15.89-11.73 15.52-12 14.85-12C13.52-12 12.67-10.79 12.67-9C12.67-8.89 12.68-8.79 12.69-8.67L12.80-8.67C13.23-9.47 14.21-10.13 15.57-10.13C17.54-10.13 19.10-8.84 19.10-6.69C19.10-4.21 17.27-2.70 14.59-2.70ZM14.45-4.89C15.47-4.89 16.15-5.58 16.15-6.61C16.15-7.59 15.46-8.29 14.45-8.29C13.45-8.29 12.75-7.58 12.75-6.61C12.75-5.60 13.45-4.89 14.45-4.89Z" fill="currentColor"/>
</svg>