<svg xmlns="http://www.w3.org/2000/svg" viewBox="0 0 24 24" width="24" height="24">
  
  <path transform="matrix(0.46251129177958444, 0, 0, 0.46251129177958444, 0.6178861788617886, 15.940379403794038)" d="M44.66-14.71L44.12-15.49C42.67-17.63 40.86-18.47 37.93-18.47L28.36-18.47C23.41-18.47 21.38-17.98 18.40-16.11L13.75-13.20L9.47-12.67C5.20-12.15 2.99-10.11 2.99-6.57L2.99-4.57C2.99-2.25 4.36-0.94 6.55-0.94L7.98-0.94C7.89-1.31 7.84-1.72 7.84-2.13C7.84-4.97 10.15-7.27 12.97-7.27C15.80-7.27 18.11-4.97 18.11-2.13C18.11-1.72 18.06-1.31 17.96-0.94L31.69-0.94C31.59-1.31 31.55-1.72 31.55-2.13C31.55-4.96 33.86-7.27 36.68-7.27C39.50-7.27 41.80-4.97 41.80-2.13C41.80-1.72 41.75-1.31 41.66-0.94L42.81-0.94C45.02-0.94 46.23-2.24 46.23-4.61L46.23-9.90C46.23-11.47 45.62-13.29 44.66-14.71ZM19.55-6.73C19.02-6.73 18.71-7.07 18.71-7.57C18.71-7.71 18.75-7.91 18.80-8.16L19.84-12.76C19.99-13.50 20.48-13.83 21.18-13.83C21.87-13.83 22.39-13.56 22.57-12.76L23.63-8.16C23.66-7.95 23.70-7.78 23.70-7.57C23.70-7.09 23.37-6.73 22.88-6.73C22.35-6.73 22.10-6.98 21.98-7.52L21.87-8.09L20.52-8.09L20.41-7.55C20.32-6.98 20.05-6.73 19.55-6.73ZM25.44-6.73C24.88-6.73 24.56-7.07 24.56-7.64L24.56-12.90C24.56-13.48 24.88-13.83 25.44-13.83C26.00-13.83 26.33-13.48 26.33-12.90L26.33-7.64C26.33-7.07 26.00-6.73 25.44-6.73ZM28.28-6.73C27.70-6.73 27.39-7.07 27.39-7.64L27.39-12.80C27.39-13.42 27.75-13.72 28.28-13.72L29.60-13.72C31.13-13.72 31.89-12.88 31.89-11.46C31.89-10.83 31.64-9.98 31.14-9.63L31.70-8.07C31.75-7.90 31.83-7.70 31.83-7.55C31.83-7.05 31.48-6.73 30.95-6.73C30.48-6.73 30.21-7.01 30.08-7.48L29.50-9.26L29.14-9.26L29.14-7.64C29.14-7.08 28.83-6.73 28.28-6.73ZM29.14-10.44L29.45-10.44C29.89-10.45 30.08-10.97 30.08-11.43C30.08-11.87 29.89-12.40 29.45-12.40L29.14-12.40ZM20.71-9.36L21.66-9.36L21.20-11.86L21.14-11.86ZM12.97 1.43C14.94 1.43 16.54-0.15 16.54-2.13C16.54-4.10 14.94-5.70 12.97-5.70C11.00-5.70 9.41-4.10 9.41-2.13C9.41-0.16 11.00 1.43 12.97 1.43ZM36.68 1.43C38.64 1.43 40.24-0.16 40.24-2.13C40.24-4.10 38.64-5.70 36.68-5.70C34.71-5.70 33.11-4.09 33.11-2.13C33.11-0.16 34.71 1.43 36.68 1.43Z" fill="currentColor"/>
</svg>