<svg xmlns="http://www.w3.org/2000/svg" viewBox="0 0 24 24" width="24" height="24">
  
  <path transform="matrix(0.4443287338366745, 0, 0, 0.4443287338366745, 0.672220775839625, 15.65302556365307)" d="M5.99-0.28L8.48-0.01C9.28 1.39 10.79 2.33 12.56 2.33C14.52 2.33 16.17 1.18 16.88-0.49L34.13-0.49C34.83 1.18 36.47 2.33 38.44 2.33C40.55 2.33 42.28 1.01 42.89-0.88L44.21-1.01C46.76-1.27 48-2.70 48-5.31L48-7.73C48-10.80 46.80-12.13 43.95-12.64L38.43-13.64C36.64-13.96 35.06-14.09 33.12-13.98L22.14-13.35C23.58-14.37 25.11-15.32 26.72-16.21C28.38-17.14 26.99-19.49 25.31-18.56C22.35-16.93 19.56-15.06 17.20-13.07L9.19-11.58C5.10-10.82 2.99-8.85 2.99-5.51L2.99-3.63C2.99-1.57 3.94-0.50 5.99-0.28ZM6.64-3C6.05-3.06 5.74-3.38 5.74-3.93L5.74-5.51C5.74-7.31 6.94-8.38 9.59-8.87L17.19-10.30L17.20-10.31L32.95-11.21C34.71-11.32 36.04-11.21 37.98-10.85L43.48-9.83C44.74-9.60 45.25-9.07 45.25-7.73L45.25-5.31C45.25-4.34 44.80-3.81 43.89-3.71L42.95-3.62C42.40-5.61 40.62-7.03 38.44-7.03C36.12-7.03 34.24-5.43 33.83-3.25L17.16-3.25C16.75-5.43 14.88-7.03 12.56-7.03C10.10-7.03 8.14-5.24 7.90-2.85ZM21.02-4.13C21.42-4.13 21.63-4.32 21.70-4.77L21.80-5.24L22.91-5.24L23.02-4.76C23.10-4.32 23.31-4.13 23.71-4.13C24.11-4.13 24.36-4.42 24.36-4.78C24.36-4.95 24.34-5.07 24.30-5.25L23.44-9.01C23.30-9.63 22.89-9.84 22.34-9.84C21.79-9.84 21.40-9.59 21.28-9.01L20.43-5.25C20.39-5.06 20.37-4.90 20.37-4.78C20.37-4.38 20.61-4.13 21.02-4.13ZM25.76-4.13C26.20-4.13 26.47-4.38 26.47-4.85L26.47-9.12C26.47-9.57 26.20-9.84 25.76-9.84C25.32-9.84 25.07-9.57 25.07-9.12L25.07-4.85C25.07-4.38 25.32-4.13 25.76-4.13ZM28.03-4.13C28.48-4.13 28.72-4.39 28.72-4.85L28.72-6.18L29.03-6.18L29.51-4.72C29.63-4.35 29.82-4.13 30.20-4.13C30.61-4.13 30.89-4.37 30.89-4.77C30.89-4.89 30.84-5.05 30.79-5.18L30.32-6.47C30.74-6.75 30.94-7.44 30.94-7.95C30.94-9.08 30.33-9.76 29.11-9.76L28.03-9.76C27.62-9.76 27.33-9.53 27.33-9.04L27.33-4.85C27.33-4.39 27.57-4.13 28.03-4.13ZM28.72-7.11L28.72-8.72L28.99-8.72C29.34-8.72 29.51-8.29 29.51-7.92C29.51-7.55 29.34-7.13 28.98-7.13ZM21.95-6.25L22.31-8.29L22.35-8.29L22.73-6.25ZM12.56-0.28C11.40-0.28 10.49-1.20 10.49-2.34C10.49-3.50 11.40-4.42 12.56-4.42C13.71-4.42 14.63-3.50 14.63-2.34C14.63-1.20 13.71-0.28 12.56-0.28ZM38.44-0.28C37.28-0.28 36.36-1.20 36.36-2.34C36.36-3.50 37.28-4.42 38.44-4.42C39.59-4.42 40.50-3.50 40.50-2.34C40.50-1.20 39.59-0.28 38.44-0.28Z" fill="currentColor"/>
</svg>