<svg xmlns="http://www.w3.org/2000/svg" viewBox="0 0 24 24" width="24" height="24">
  
  <path transform="matrix(0.644604039453872, 0, 0, 0.644604039453872, 0.4537819417354285, 17.515820668417028)" d="M2.99-20.70L2.99-12.83C2.99-10.71 4.24-9.46 6.34-9.46L29.48-9.46C31.58-9.46 32.84-10.71 32.84-12.83L32.84-20.70C32.84-22.80 31.58-24.07 29.48-24.07L6.34-24.07C4.24-24.07 2.99-22.80 2.99-20.70ZM22.71-16.14C22.71-16.55 23.05-16.89 23.46-16.89L28.15-16.89C28.54-16.89 28.89-16.55 28.89-16.14C28.89-15.73 28.54-15.40 28.15-15.40L23.46-15.40C23.05-15.40 22.71-15.73 22.71-16.14ZM14.85-16.14C14.85-16.55 15.18-16.89 15.61-16.89L20.29-16.89C20.68-16.89 21.02-16.55 21.02-16.14C21.02-15.73 20.68-15.40 20.29-15.40L15.61-15.40C15.18-15.40 14.85-15.73 14.85-16.14ZM6.97-16.14C6.97-16.55 7.31-16.89 7.71-16.89L12.39-16.89C12.81-16.89 13.14-16.55 13.14-16.14C13.14-15.73 12.81-15.40 12.39-15.40L7.71-15.40C7.31-15.40 6.97-15.73 6.97-16.14ZM22.71-13.39C22.71-13.82 23.05-14.14 23.46-14.14L28.15-14.14C28.54-14.14 28.89-13.82 28.89-13.39C28.89-12.98 28.54-12.66 28.15-12.66L23.46-12.66C23.05-12.66 22.71-12.98 22.71-13.39ZM14.85-13.39C14.85-13.82 15.18-14.14 15.61-14.14L20.29-14.14C20.68-14.14 21.02-13.82 21.02-13.39C21.02-12.98 20.68-12.66 20.29-12.66L15.61-12.66C15.18-12.66 14.85-12.98 14.85-13.39ZM6.97-13.39C6.97-13.82 7.31-14.14 7.71-14.14L12.39-14.14C12.81-14.14 13.14-13.82 13.14-13.39C13.14-12.98 12.81-12.66 12.39-12.66L7.71-12.66C7.31-12.66 6.97-12.98 6.97-13.39ZM19.37-4.43C19.37-0.94 22.09 0.75 22.09 3.55C22.09 4.18 21.95 4.70 21.57 5.37C21.28 5.89 21.45 6.45 21.87 6.75C22.39 7.11 23.11 7.00 23.47 6.34C23.98 5.48 24.23 4.54 24.23 3.55C24.23 0.04 21.50-1.65 21.50-4.43C21.50-5.06 21.66-5.58 22.02-6.25C22.34-6.77 22.16-7.35 21.70-7.64C21.19-7.98 20.48-7.85 20.13-7.23C19.62-6.38 19.37-5.41 19.37-4.43ZM11.58-4.43C11.58-0.94 14.29 0.75 14.29 3.55C14.29 4.18 14.16 4.70 13.77 5.37C13.49 5.89 13.64 6.45 14.07 6.75C14.59 7.11 15.32 7.00 15.68 6.34C16.18 5.48 16.43 4.54 16.43 3.55C16.43 0.04 13.71-1.65 13.71-4.43C13.71-5.06 13.85-5.58 14.23-6.25C14.53-6.77 14.36-7.35 13.91-7.64C13.39-7.98 12.69-7.85 12.33-7.23C11.82-6.38 11.58-5.41 11.58-4.43ZM15.48-4.42C15.48-0.94 18.19 0.76 18.19 3.55C18.19 4.20 18.06 4.70 17.67 5.38C17.39 5.89 17.54 6.46 17.96 6.76C18.49 7.11 19.22 7.00 19.58 6.35C20.09 5.48 20.33 4.54 20.33 3.55C20.33 0.05 17.61-1.65 17.61-4.42C17.61-5.06 17.75-5.58 18.13-6.25C18.43-6.76 18.26-7.35 17.81-7.64C17.30-7.98 16.59-7.85 16.23-7.22C15.71-6.36 15.48-5.41 15.48-4.42ZM23.54-3.90C23.54-3.55 23.84-3.30 24.20-3.36L25.15-3.48L24.57-2.71C24.36-2.43 24.41-2.05 24.70-1.88C25.01-1.69 25.42-1.83 25.54-2.18L25.90-3.02L26.29-2.16C26.43-1.83 26.78-1.69 27.09-1.86C27.39-2.03 27.45-2.43 27.23-2.72L26.68-3.47L27.60-3.35C27.96-3.30 28.27-3.54 28.27-3.90C28.27-4.27 27.97-4.51 27.60-4.46L26.68-4.36L27.23-5.12C27.45-5.40 27.39-5.79 27.09-5.95C26.78-6.13 26.41-5.99 26.27-5.66L25.91-4.79L25.54-5.66C25.41-6 25.02-6.14 24.70-5.95C24.41-5.79 24.35-5.41 24.57-5.12L25.14-4.36L24.20-4.45C23.84-4.50 23.54-4.25 23.54-3.90ZM7.58 3.56C7.58 3.93 7.88 4.17 8.25 4.11L9.18 4.01L8.63 4.77C8.40 5.06 8.45 5.44 8.77 5.61C9.07 5.79 9.42 5.66 9.56 5.32L9.95 4.46L10.31 5.31C10.44 5.65 10.83 5.79 11.14 5.61C11.45 5.45 11.50 5.07 11.27 4.78L10.71 4.00L11.65 4.11C12.01 4.16 12.32 3.93 12.32 3.56C12.32 3.21 12.01 2.96 11.65 3.01L10.72 3.12L11.27 2.37C11.48 2.09 11.44 1.71 11.14 1.54C10.85 1.34 10.45 1.48 10.31 1.83L9.94 2.70L9.57 1.82C9.45 1.49 9.07 1.35 8.77 1.52C8.46 1.68 8.39 2.09 8.61 2.38L9.16 3.12L8.26 3.01C7.90 2.95 7.58 3.21 7.58 3.56Z" fill="currentColor"/>
</svg>