<svg xmlns="http://www.w3.org/2000/svg" viewBox="0 0 24 24" width="24" height="24">
  <title>airplane.ticket.fill</title>
  <path transform="matrix(0.5862819191572197, 0, 0, 0.5862819191572197, 0.24802473376846446, 16.96049467536929)" d="M2.99-1.59C2.99 0.91 4.41 2.32 6.94 2.32L33.15 2.32C35.68 2.32 37.10 0.91 37.10-1.59L37.10-5.34C35.38-5.34 33.97-6.74 33.97-8.47C33.97-10.20 35.38-11.59 37.10-11.58L37.10-15.33C37.10-17.84 35.68-19.24 33.15-19.24L6.94-19.24C4.41-19.24 2.99-17.84 2.99-15.33L2.99-11.58C4.71-11.58 6.11-10.18 6.11-8.47C6.11-6.74 4.71-5.34 2.99-5.34ZM27.50-12.53L27.50-16.79L29.54-16.79L29.54-12.53ZM24.53-8.44C24.53-7.58 23.44-6.89 22.13-6.89L19.62-6.89C19.36-6.89 19.29-6.87 19.10-6.67L15.05-2.34C14.87-2.17 14.66-2.06 14.43-2.06L13.56-2.06C13.25-2.06 13.05-2.37 13.20-2.66L15.19-6.91L12.54-7.22L11.51-5.44C11.38-5.23 11.19-5.11 10.92-5.11L10.65-5.11C10.36-5.11 10.14-5.32 10.14-5.61L10.14-11.26C10.14-11.54 10.36-11.75 10.65-11.75L10.92-11.75C11.19-11.75 11.38-11.65 11.51-11.44L12.54-9.66L15.19-9.96L13.20-14.20C13.05-14.51 13.25-14.81 13.56-14.81L14.43-14.81C14.66-14.81 14.87-14.71 15.05-14.53L19.10-10.20C19.29-10.00 19.36-9.97 19.62-9.97L22.13-9.97C23.44-9.97 24.53-9.29 24.53-8.44ZM27.50-5.92L27.50-10.97L29.54-10.97L29.54-5.92ZM27.50-0.11L27.50-4.37L29.54-4.37L29.54-0.11Z" fill="currentColor"/>
</svg>