<svg xmlns="http://www.w3.org/2000/svg" viewBox="0 0 24 24" width="24" height="24">
  
  <path transform="matrix(0.64903962249161, 0, 0, 0.64903962249161, 0.060981085649397304, 17.446085767877292)" d="M9.98-5.91L30.16-11.30C32.63-11.96 34.30-13.80 33.67-15.57C33.07-17.18 30.69-17.68 28.50-16.93L21.33-14.48C20.87-14.33 20.57-14.34 20.02-14.60L10.25-19.21C9.87-19.38 9.45-19.42 9.08-19.31L8.24-19.05C7.80-18.91 7.68-18.38 8.04-18L13.76-11.89L10.31-10.72L4.76-12.69C4.35-12.83 3.98-12.75 3.61-12.41L3.25-12.08C2.92-11.79 2.91-11.36 3.19-11.05L7.29-6.45C7.90-5.75 8.82-5.60 9.98-5.91ZM5.45 2.59L31.04 2.59C31.88 2.59 32.55 1.91 32.55 1.08C32.55 0.25 31.88-0.43 31.04-0.43L5.45-0.43C4.62-0.43 3.94 0.25 3.94 1.08C3.94 1.91 4.62 2.59 5.45 2.59Z" fill="currentColor"/>
</svg>