<svg xmlns="http://www.w3.org/2000/svg" viewBox="0 0 24 24" width="24" height="24">
  
  <path transform="matrix(0.8080808080808081, 0, 0, 0.8080808080808081, 0.30492424242424243, 18.827651515151516)" d="M14.47 3.93C21.30 3.93 26.85-1.62 26.85-8.45C26.85-15.28 21.30-20.82 14.47-20.82C7.64-20.82 2.10-15.28 2.10-8.45C2.10-1.62 7.64 3.93 14.47 3.93ZM14.47-14.54C17.82-14.54 20.58-11.79 20.58-8.44C20.58-6.84 19.96-5.36 18.89-4.25L18.19-5.05C19.02-5.96 19.51-7.17 19.51-8.44C19.51-11.20 17.23-13.48 14.47-13.48C11.72-13.48 9.45-11.20 9.45-8.44C9.45-7.17 9.94-5.96 10.77-5.05L10.05-4.25C9-5.36 8.38-6.84 8.38-8.44C8.38-11.79 11.12-14.54 14.47-14.54ZM14.47-12.86C16.90-12.86 18.89-10.86 18.89-8.44C18.89-7.35 18.48-6.32 17.78-5.51L17.05-6.33C17.54-6.90 17.82-7.65 17.82-8.44C17.82-10.28 16.31-11.79 14.47-11.79C12.64-11.79 11.13-10.28 11.13-8.44C11.13-7.65 11.40-6.91 11.89-6.33L11.18-5.51C10.46-6.32 10.07-7.35 10.07-8.44C10.07-10.86 12.05-12.86 14.47-12.86ZM14.47-11.18C15.97-11.18 17.21-9.94 17.21-8.44C17.21-7.82 17.00-7.25 16.64-6.80L15.90-7.63C16.05-7.86 16.15-8.16 16.15-8.44C16.15-9.36 15.39-10.11 14.47-10.11C13.56-10.11 12.81-9.36 12.81-8.44C12.81-8.16 12.89-7.88 13.04-7.63L12.30-6.79C11.95-7.27 11.74-7.82 11.74-8.44C11.74-9.94 12.97-11.18 14.47-11.18ZM11.09-2.55C10.65-2.55 10.44-3.05 10.73-3.36L14.09-7.15C14.30-7.38 14.66-7.39 14.87-7.15L18.21-3.36C18.50-3.05 18.30-2.55 17.86-2.55Z" fill="currentColor"/>
</svg>