<svg xmlns="http://www.w3.org/2000/svg" viewBox="0 0 24 24" width="24" height="24">
  
  <path transform="matrix(0.7764634516226873, 0, 0, 0.7764634516226873, 0.9171974522293, 18.505914467697906)" d="M11.30-0.30L22.46-0.30C24.18-0.30 25.56-1.70 25.56-3.41C25.56-5.12 24.18-6.52 22.46-6.52L13.99-6.52C13.03-6.52 12.06-6.18 11.43-5.70L10.29-9.63L18.61-9.63C19.29-9.63 19.84-10.18 19.84-10.86C19.84-11.54 19.29-12.11 18.61-12.11L9.57-12.11L7.44-19.48C7.09-20.71 6.09-21.26 5.20-21.26C4.07-21.26 2.99-20.40 2.99-19.02C2.99-18.70 3.07-18.34 3.16-17.99L7.42-3.46C7.98-1.51 9.25-0.30 11.30-0.30ZM10.89 4.50L21.95 4.50C22.63 4.50 23.19 3.95 23.19 3.27C23.19 2.59 22.63 2.03 21.95 2.03L10.89 2.03C10.20 2.03 9.64 2.59 9.64 3.27C9.64 3.95 10.20 4.50 10.89 4.50Z" fill="currentColor"/>
</svg>