<svg xmlns="http://www.w3.org/2000/svg" viewBox="0 0 24 24" width="24" height="24">
  
  <path transform="matrix(0.6810321894120777, 0, 0, 0.6810321894120777, -0.03511572226656012, 17.758180367118914)" d="M4.41 6.15C5.17 6.15 5.82 5.53 5.82 4.77L5.82-21.67C5.82-22.44 5.17-23.06 4.41-23.06C3.63-23.06 2.99-22.44 2.99-21.67L2.99 4.77C2.99 5.53 3.63 6.15 4.41 6.15ZM10.93-9.48L21.30-9.48C23.26-9.48 24.43-10.65 24.43-12.57L24.43-16.96C24.43-18.87 23.26-20.04 21.30-20.04L10.93-20.04C8.99-20.04 7.80-18.87 7.80-16.96L7.80-12.57C7.80-10.65 8.99-9.48 10.93-9.48ZM11.41-12.34C10.95-12.34 10.66-12.62 10.66-13.11L10.66-16.41C10.66-16.90 10.95-17.18 11.41-17.18L20.82-17.18C21.29-17.18 21.57-16.90 21.57-16.41L21.57-13.11C21.57-12.62 21.29-12.34 20.82-12.34ZM10.93 3.11L29.24 3.11C31.18 3.11 32.36 1.95 32.36 0.02L32.36-4.36C32.36-6.28 31.18-7.44 29.24-7.44L10.93-7.44C8.99-7.44 7.80-6.28 7.80-4.36L7.80 0.02C7.80 1.95 8.99 3.11 10.93 3.11ZM11.41 0.25C10.95 0.25 10.66-0.04 10.66-0.52L10.66-3.82C10.66-4.30 10.95-4.58 11.41-4.58L28.75-4.58C29.23-4.58 29.51-4.30 29.51-3.82L29.51-0.52C29.51-0.04 29.23 0.25 28.75 0.25Z" fill="currentColor"/>
</svg>