<svg xmlns="http://www.w3.org/2000/svg" viewBox="0 0 24 24" width="24" height="24">
  <title>align.horizontal.left.fill</title>
  <path transform="matrix(0.6810321894120777, 0, 0, 0.6810321894120777, -0.03511572226656012, 17.758180367118914)" d="M4.41 6.15C5.17 6.15 5.82 5.53 5.82 4.77L5.82-21.67C5.82-22.44 5.17-23.06 4.41-23.06C3.63-23.06 2.99-22.44 2.99-21.67L2.99 4.77C2.99 5.53 3.63 6.15 4.41 6.15ZM10.93-9.48L21.30-9.48C23.26-9.48 24.43-10.65 24.43-12.57L24.43-16.96C24.43-18.87 23.26-20.04 21.30-20.04L10.93-20.04C8.99-20.04 7.80-18.87 7.80-16.96L7.80-12.57C7.80-10.65 8.99-9.48 10.93-9.48ZM10.93 3.11L29.24 3.11C31.18 3.11 32.36 1.95 32.36 0.02L32.36-4.36C32.36-6.28 31.18-7.44 29.24-7.44L10.93-7.44C8.99-7.44 7.80-6.28 7.80-4.36L7.80 0.02C7.80 1.95 8.99 3.11 10.93 3.11Z" fill="currentColor"/>
</svg>