<svg xmlns="http://www.w3.org/2000/svg" viewBox="0 0 24 24" width="24" height="24">
  <title>alt</title>
  <path transform="matrix(0.8142493638676844, 0, 0, 0.8142493638676844, -0.43320610687022887, 18.884541984732824)" d="M4.70 2.31L10.14 2.31C11.38 2.31 12.38 1.65 12.93 0.49L20.40-15.48C20.54-15.76 20.78-15.90 21.12-15.90L25.84-15.90C26.80-15.90 27.55-16.63 27.55-17.57C27.55-18.49 26.79-19.22 25.84-19.22L20.36-19.22C19.02-19.22 18.19-18.68 17.58-17.41L10.08-1.43C9.95-1.15 9.71-1.01 9.40-1.01L4.70-1.01C3.73-1.01 2.99-0.28 2.99 0.66C2.99 1.58 3.74 2.31 4.70 2.31ZM18.77 2.31L25.84 2.31C26.81 2.31 27.54 1.59 27.54 0.66C27.54-0.28 26.81-1.00 25.84-1.00L18.77-1.00C17.80-1.00 17.07-0.28 17.07 0.66C17.07 1.59 17.81 2.31 18.77 2.31Z" fill="currentColor"/>
</svg>