<svg xmlns="http://www.w3.org/2000/svg" viewBox="0 0 24 24" width="24" height="24">
  <title>american.football</title>
  <path transform="matrix(0.8099548971032505, 0, 0, 0.8099548971032505, -0.17786487868324174, 18.852977762209534)" d="M22.05-1.45C26.71-6.12 28.35-12.75 26.84-17.85C26.40-19.30 25.88-19.83 24.42-20.26C19.34-21.77 12.69-20.13 8.03-15.47C3.36-10.80 1.72-4.16 3.23 0.93C3.67 2.38 4.20 2.91 5.65 3.34C10.75 4.85 17.38 3.21 22.05-1.45ZM23.52-17.78C24.13-17.63 24.20-17.54 24.33-17.00C24.73-15.49 24.84-13.96 24.70-12.43L19.01-18.13C20.51-18.27 22.03-18.15 23.52-17.78ZM20.20-3.29C18.40-1.49 16.36-0.20 14.20 0.53L6.05-7.63C6.79-9.77 8.06-11.82 9.87-13.63C11.67-15.43 13.72-16.72 15.87-17.45L24.04-9.29C23.30-7.14 22.01-5.10 20.20-3.29ZM10.05-6.07L12.64-3.48C12.91-3.21 13.34-3.21 13.61-3.48C13.88-3.75 13.88-4.18 13.61-4.45L12.80-5.26L13.44-5.89L14.25-5.09C14.52-4.82 14.95-4.82 15.22-5.09C15.49-5.34 15.49-5.79 15.22-6.06L14.41-6.87L15.05-7.50L15.86-6.69C16.13-6.43 16.56-6.43 16.83-6.69C17.10-6.96 17.10-7.41 16.83-7.66L16.02-8.48L16.66-9.13L17.47-8.32C17.74-8.05 18.18-8.05 18.45-8.32C18.71-8.59 18.71-9.01 18.45-9.28L17.64-10.10L18.28-10.73L19.09-9.93C19.35-9.66 19.79-9.66 20.06-9.93C20.33-10.18 20.33-10.63 20.06-10.90L17.46-13.49C17.20-13.76 16.76-13.76 16.50-13.49C16.23-13.22 16.23-12.77 16.50-12.52L17.31-11.71L16.68-11.06L15.86-11.87C15.59-12.14 15.15-12.14 14.88-11.87C14.63-11.61 14.63-11.17 14.88-10.90L15.70-10.09L15.06-9.45L14.24-10.25C13.98-10.52 13.54-10.52 13.27-10.25C13.01-9.98 13.01-9.55 13.27-9.28L14.07-8.47L13.44-7.84L12.63-8.65C12.36-8.92 11.92-8.92 11.66-8.65C11.39-8.38 11.39-7.95 11.66-7.69L12.48-6.87L11.84-6.22L11.03-7.04C10.76-7.30 10.31-7.30 10.05-7.04C9.79-6.77 9.79-6.34 10.05-6.07ZM6.49 0.83C5.95 0.70 5.87 0.63 5.72 0.02C5.34-1.46 5.23-2.99 5.37-4.49L11.06 1.21C9.54 1.35 8.00 1.23 6.49 0.83Z" fill="currentColor"/>
</svg>