<svg xmlns="http://www.w3.org/2000/svg" viewBox="0 0 24 24" width="24" height="24">
  <title>ant.circle.fill</title>
  <path transform="matrix(0.8080808080808081, 0, 0, 0.8080808080808081, 0.30492424242424243, 18.827651515151516)" d="M14.47 3.93C21.30 3.93 26.85-1.62 26.85-8.45C26.85-15.28 21.30-20.82 14.47-20.82C7.64-20.82 2.10-15.28 2.10-8.45C2.10-1.62 7.64 3.93 14.47 3.93ZM9.04-5.05C8.89-5.91 9.23-6.40 10.20-6.62L12.96-7.24C12.77-7.32 12.57-7.54 12.48-7.80L10.56-8.03C9.63-8.12 9.21-8.68 9.21-9.61L9.21-11.71C9.21-12.09 9.46-12.34 9.86-12.34C10.25-12.34 10.48-12.09 10.48-11.71L10.48-9.88C10.48-9.36 10.75-9.20 11.20-9.16L12.42-9.02C12.47-9.21 12.61-9.42 12.75-9.52C11.67-9.71 11.13-10.38 11.13-11.36C11.13-12.06 11.36-12.73 11.75-13.27L11.65-13.35C10.96-13.84 10.83-14.54 11.27-15.36L11.60-15.96C11.75-16.24 11.93-16.35 12.18-16.35C12.50-16.35 12.74-16.11 12.74-15.81C12.74-15.67 12.73-15.57 12.64-15.45L12.36-14.98C12.19-14.67 12.18-14.39 12.39-14.21L12.55-14.11C13.11-14.50 13.80-14.72 14.48-14.72C15.15-14.72 15.86-14.50 16.42-14.11L16.57-14.21C16.79-14.39 16.77-14.67 16.59-14.98L16.32-15.45C16.23-15.57 16.22-15.67 16.22-15.81C16.22-16.11 16.45-16.35 16.78-16.35C17.04-16.35 17.20-16.23 17.36-15.96L17.68-15.36C18.14-14.54 18.01-13.84 17.31-13.35L17.20-13.27C17.61-12.73 17.82-12.06 17.82-11.36C17.82-10.38 17.30-9.71 16.22-9.52C16.35-9.41 16.49-9.21 16.54-9.02L17.75-9.16C18.21-9.21 18.49-9.36 18.49-9.88L18.49-11.71C18.49-12.09 18.71-12.34 19.10-12.34C19.51-12.34 19.76-12.09 19.76-11.71L19.76-9.61C19.76-8.68 19.32-8.12 18.40-8.03L16.48-7.80C16.38-7.54 16.18-7.32 16.00-7.24L18.77-6.62C19.72-6.40 20.07-5.91 19.93-5.05L19.44-1.90C19.38-1.50 19.18-1.24 18.79-1.24C18.40-1.24 18.09-1.54 18.16-2.00L18.60-4.80C18.66-5.16 18.55-5.34 18.19-5.47C18.07-5.51 17.95-5.53 17.84-5.57C17.89-5.40 17.91-5.21 17.91-5.03C17.91-2.92 16.32-0.95 14.48-0.95C12.63-0.95 11.05-2.92 11.05-5.03C11.05-5.21 11.06-5.40 11.12-5.57C11.00-5.53 10.89-5.51 10.77-5.47C10.41-5.34 10.30-5.16 10.37-4.80L10.79-2.00C10.85-1.54 10.56-1.24 10.17-1.24C9.77-1.24 9.59-1.50 9.52-1.90Z" fill="currentColor"/>
</svg>