<svg xmlns="http://www.w3.org/2000/svg" viewBox="0 0 24 24" width="24" height="24">
  <title>antenna.radiowaves.left.and.right</title>
  <path transform="matrix(0.7462469027838508, 0, 0, 0.7462469027838508, 0.4346305203323131, 18.23145114528075)" d="M2.10-11.02C2.10-7.96 3.09-5.09 5.00-3.08C5.67-2.39 6.48-2.45 6.95-3.02C7.39-3.55 7.25-4.21 6.76-4.76C5.32-6.36 4.51-8.59 4.51-11.02C4.51-13.44 5.31-15.68 6.76-17.27C7.27-17.82 7.39-18.48 6.95-19.01C6.48-19.57 5.65-19.65 5.00-18.96C3.18-16.99 2.10-14.07 2.10-11.02ZM24.04-3.02C24.50-2.45 25.32-2.39 25.98-3.08C27.90-5.09 28.90-7.96 28.90-11.02C28.90-14.07 27.82-16.99 25.98-18.96C25.34-19.65 24.52-19.57 24.04-19.01C23.59-18.48 23.73-17.82 24.22-17.27C25.69-15.68 26.48-13.44 26.48-11.02C26.48-8.59 25.66-6.36 24.22-4.76C23.74-4.21 23.60-3.55 24.04-3.02ZM20.25-6.41C20.71-5.84 21.60-5.81 22.18-6.48C23.17-7.61 23.71-9.26 23.71-11.02C23.71-12.79 23.17-14.44 22.18-15.57C21.60-16.23 20.71-16.20 20.25-15.63C19.84-15.11 19.99-14.48 20.39-13.92C20.92-13.18 21.29-12.07 21.29-11.02C21.29-9.97 20.93-8.84 20.39-8.13C19.98-7.56 19.84-6.93 20.25-6.41ZM7.29-11.02C7.29-9.26 7.82-7.61 8.80-6.48C9.40-5.81 10.29-5.84 10.75-6.41C11.16-6.93 11.02-7.56 10.61-8.13C10.05-8.84 9.70-9.97 9.70-11.02C9.70-12.07 10.07-13.18 10.61-13.92C11.00-14.48 11.16-15.11 10.75-15.63C10.29-16.20 9.40-16.23 8.80-15.57C7.82-14.44 7.29-12.79 7.29-11.02ZM12.96-11.02C12.96-10.05 13.49-9.22 14.29-8.80L14.29 1.38C14.29 2.19 14.79 2.75 15.50 2.75C16.25 2.75 16.72 2.21 16.72 1.38L16.72-8.80C17.51-9.22 18.05-10.07 18.05-11.02C18.05-12.43 16.91-13.57 15.50-13.57C14.10-13.57 12.96-12.43 12.96-11.02Z" fill="currentColor"/>
</svg>