<svg xmlns="http://www.w3.org/2000/svg" viewBox="0 0 24 24" width="24" height="24">
  <title>applepencil.squeeze</title>
  <path transform="matrix(0.9208083226324257, 0, 0, 0.9208083226324257, 0.23375559059745754, 19.490084717809466)" d="M4.46-1.96L6.67 0.26L7.54-0.20L23.10-15.73C23.82-16.44 23.81-17.61 23.10-18.32C22.37-19.04 21.21-19.04 20.50-18.33L4.92-2.81ZM7.78-10.52C8.95-11.71 9.79-13.14 10.22-14.67C10.41-15.39 9.96-16.04 9.29-16.15C8.63-16.25 8.10-15.84 7.91-15.22C7.61-14.10 7.01-13.07 6.12-12.18C5.18-11.24 4.10-10.63 2.94-10.35C2.27-10.20 1.83-9.66 1.93-8.98C2.04-8.32 2.65-7.84 3.35-8.02C4.99-8.41 6.53-9.27 7.78-10.52ZM15.68-3.05C14.51-1.86 13.66-0.43 13.23 1.10C13.05 1.82 13.49 2.47 14.17 2.58C14.84 2.68 15.34 2.26 15.55 1.65C15.84 0.52 16.44-0.50 17.33-1.39C18.28-2.33 19.36-2.94 20.52-3.22C21.19-3.38 21.63-3.93 21.53-4.59C21.42-5.25 20.81-5.73 20.10-5.57C18.46-5.16 16.93-4.30 15.68-3.05ZM2.75 1.18C2.50 1.68 3.07 2.17 3.49 1.95L5.48 0.89L3.82-0.77Z" fill="currentColor"/>
</svg>