<svg xmlns="http://www.w3.org/2000/svg" viewBox="0 0 24 24" width="24" height="24">
  
  <path transform="matrix(0.7848093664343079, 0, 0, 0.7848093664343079, 0.12381510836798282, 18.564926191056088)" d="M10.31-5.51L12.52-3.29L13.38-3.75L27.34-17.67C28.05-18.40 28.05-19.56 27.33-20.27C26.60-21 25.44-21 24.73-20.29L10.77-6.36ZM8.60-2.37C8.34-1.88 8.92-1.38 9.34-1.61L11.33-2.66L9.67-4.32ZM6.61 4.09C8.94 4.09 10.83 3.29 10.83 2.31C10.83 1.35 8.94 0.54 6.61 0.54C4.27 0.54 2.39 1.35 2.39 2.31C2.39 3.29 4.27 4.09 6.61 4.09Z" fill="currentColor"/>
</svg>