<svg xmlns="http://www.w3.org/2000/svg" viewBox="0 0 24 24" width="24" height="24">
  
  <path transform="matrix(0.48102217211574594, 0, 0, 0.48102217211574594, 0.9909808342728299, 16.064261555806088)" d="M13.92-3.40C13.92-1.56 14.60-0.22 15.98 0.62C16.68 1.04 17.09 1.51 17.36 2.25L17.94 3.81C18.23 4.59 18.87 5.02 19.76 5.02L25.36 5.02C26.26 5.02 26.88 4.61 27.18 3.81L27.76 2.25C28.03 1.51 28.44 1.04 29.12 0.62C30.50-0.22 31.20-1.56 31.20-3.40L31.20-9.16C31.95-9.16 32.46-9.69 32.46-10.51L32.46-12.15C32.46-12.96 31.95-13.50 31.20-13.50C31.20-15.35 30.50-16.68 29.12-17.53C28.44-17.94 28.03-18.42 27.76-19.15L27.18-20.71C26.89-21.49 26.25-21.91 25.36-21.91L19.76-21.91C18.87-21.91 18.23-21.50 17.94-20.71L17.36-19.15C17.07-18.41 16.65-17.91 15.98-17.53C14.61-16.70 13.92-15.35 13.92-13.50ZM6.95-0.47C7.39-1.00 7.25-1.65 6.76-2.19C5.32-3.80 4.51-6.02 4.51-8.46C4.51-10.89 5.31-13.13 6.76-14.72C7.27-15.27 7.39-15.93 6.95-16.45C6.48-17.02 5.65-17.09 5.00-16.39C3.18-14.44 2.10-11.52 2.10-8.46C2.10-5.40 3.09-2.53 5.00-0.52C5.67 0.16 6.48 0.11 6.95-0.47ZM38.81-0.47C39.28 0.11 40.10 0.16 40.76-0.52C42.68-2.53 43.68-5.40 43.68-8.46C43.68-11.52 42.60-14.44 40.76-16.39C40.11-17.09 39.29-17.02 38.81-16.45C38.37-15.93 38.51-15.27 39-14.72C40.46-13.11 41.26-10.89 41.26-8.46C41.26-6.02 40.45-3.80 39-2.19C38.52-1.65 38.38-1.00 38.81-0.47ZM16.54-3.98L16.54-12.91C16.54-14.57 17.47-15.54 19.07-15.54L26.05-15.54C27.64-15.54 28.58-14.55 28.58-12.91L28.58-3.98C28.58-2.34 27.64-1.37 26.05-1.37L19.07-1.37C17.47-1.37 16.54-2.33 16.54-3.98ZM35.16-3.86C35.61-3.28 36.50-3.26 37.10-3.93C38.07-5.05 38.61-6.70 38.61-8.46C38.61-10.23 38.07-11.88 37.10-13.01C36.50-13.68 35.61-13.64 35.16-13.07C34.75-12.55 34.90-11.93 35.30-11.37C35.85-10.64 36.20-9.52 36.20-8.46C36.20-7.42 35.85-6.28 35.30-5.57C34.89-5.00 34.75-4.37 35.16-3.86ZM10.62-3.86C11.03-4.37 10.88-5.00 10.48-5.57C9.93-6.28 9.57-7.42 9.57-8.46C9.57-9.52 9.93-10.64 10.48-11.37C10.88-11.93 11.03-12.55 10.62-13.07C10.16-13.64 9.27-13.68 8.67-13.01C7.69-11.88 7.16-10.23 7.16-8.46C7.16-6.70 7.69-5.05 8.67-3.93C9.27-3.26 10.16-3.28 10.62-3.86Z" fill="currentColor"/>
</svg>