<svg xmlns="http://www.w3.org/2000/svg" viewBox="0 0 24 24" width="24" height="24">
  <title>apple.haptics.and.exclamationmark.triangle</title>
  <path transform="matrix(0.6469547637098813, 0, 0, 0.6469547637098813, 0.6429112964366943, 18.15617892342684)" d="M13.90-4.10C14.43-4.10 15.08-4.14 15.68-4.21L17.27-7.01C17.04-6.87 16.80-6.75 16.55-6.66C18.11-8.14 19.08-10.25 19.08-12.59C19.08-14.92 18.11-17.03 16.54-18.52C19.01-17.41 20.43-14.93 20.41-12.49L20.92-13.37C21.22-13.89 21.66-14.30 22.14-14.60C21.76-16.13 20.95-17.47 19.84-18.52C21.39-17.88 22.62-16.64 23.24-15.08C23.61-15.22 24-15.30 24.39-15.30C24.69-15.30 24.97-15.26 25.25-15.18C24.15-18.59 20.93-21.08 17.17-21.08C16.61-21.08 16.07-21.02 15.52-20.92C14.99-21.02 14.45-21.08 13.89-21.08C13.32-21.08 12.76-21.02 12.23-20.92C11.71-21.02 11.16-21.08 10.59-21.08C5.92-21.08 2.10-17.25 2.10-12.59C2.10-7.92 5.93-4.10 10.59-4.10C11.16-4.10 11.71-4.15 12.25-4.25C12.77-4.15 13.32-4.10 13.90-4.10ZM4.03-12.59C4.03-15.27 5.64-17.55 7.93-18.52C6.38-17.03 5.39-14.92 5.39-12.59C5.39-10.25 6.38-8.14 7.93-6.66C5.64-7.62 4.03-9.91 4.03-12.59ZM7.32-12.59C7.32-15.26 8.92-17.54 11.20-18.50C9.66-17.03 8.67-14.92 8.67-12.59C8.67-10.27 9.66-8.16 11.20-6.68C8.92-7.64 7.32-9.91 7.32-12.59ZM10.61-12.59C10.61-15.04 11.93-17.14 13.88-18.26C15.84-17.14 17.16-15.04 17.16-12.59C17.16-10.15 15.84-8.03 13.88-6.91C11.93-8.03 10.61-10.15 10.61-12.59ZM18.22 2.05L30.56 2.05C32.04 2.05 33.01 0.93 33.01-0.40C33.01-0.81 32.89-1.24 32.67-1.63L26.50-12.41C26.03-13.24 25.22-13.64 24.39-13.64C23.57-13.64 22.75-13.23 22.29-12.41L16.10-1.62C15.89-1.23 15.77-0.81 15.77-0.40C15.77 0.93 16.75 2.05 18.22 2.05ZM24.40-3.71C23.84-3.71 23.50-4.02 23.47-4.59L23.34-8.05C23.32-8.66 23.75-9.07 24.39-9.07C25.03-9.07 25.48-8.65 25.44-8.04L25.30-4.61C25.28-4.02 24.96-3.71 24.40-3.71ZM24.40-0.81C23.77-0.81 23.26-1.21 23.26-1.82C23.26-2.43 23.75-2.84 24.40-2.84C25.04-2.84 25.54-2.43 25.54-1.82C25.54-1.21 25.04-0.81 24.40-0.81Z" fill="currentColor"/>
</svg>