<svg xmlns="http://www.w3.org/2000/svg" viewBox="0 0 24 24" width="24" height="24">
  
  <path transform="matrix(0.7312292856368627, 0, 0, 0.7312292856368627, 1.408600815853566, 18.041078945731673)" d="M2.99 0.89C2.99 3.15 4.39 4.46 6.88 4.31C10.82 4.09 14.93 3.50 18.81 2.37C20.72 1.80 21.36 0.63 21.36-1.49L21.36-18.56C21.36-21.20 19.78-22.38 17.29-21.79C14.11-21.04 10.27-20.40 6.35-20.13C4.22-19.99 2.99-18.87 2.99-16.63ZM13.22 5.41L21.93 5.41C24.60 5.41 25.98 4.01 25.98 1.30L25.98-15.95C25.98-18.20 24.98-19.57 23.05-19.92C23.13-19.28 23.18-18.84 23.18-18.39L23.18-1.49C23.18 1.95 21.71 3.34 19.31 4.07C17.32 4.63 15.26 5.07 13.22 5.41ZM5.74 0.45L5.74-16.41C5.74-17.09 6.20-17.41 6.86-17.45C10.35-17.65 14.13-18.28 17.33-19.03C18.12-19.22 18.61-18.80 18.61-18.01L18.61-1.57C18.61-0.74 18.40-0.32 17.65-0.11C14.53 0.82 10.75 1.36 6.98 1.56C6.22 1.61 5.74 1.21 5.74 0.45ZM12.21-1.15C13.24-1.36 13.93-2.29 13.93-3.41C13.93-3.75 13.85-4.22 13.72-4.75C14.98-5.41 15.76-6.59 15.76-7.90C15.76-9.36 14.75-10.14 13.38-9.84C12.98-9.76 12.60-9.60 12.26-9.36C12.14-9.73 12.02-10.07 11.92-10.39C12.82-11.59 13.73-12.91 13.73-14.80C13.73-15.64 13.43-16.11 12.81-16.00C11.60-15.75 10.66-14.36 10.66-12.59C10.66-12.22 10.72-11.79 10.83-11.31C9.62-10.16 8.34-8.82 8.34-6.87C8.34-4.76 9.94-3.77 12.38-4.27C12.60-4.31 12.81-4.37 13.02-4.44C13.13-4.00 13.18-3.60 13.18-3.26C13.18-2.58 12.84-2.02 12.32-1.91C12.21-1.90 12.14-1.95 12.14-2.03C12.14-2.20 12.34-2.43 12.34-2.75C12.34-3.28 11.99-3.56 11.44-3.43C10.83-3.32 10.44-2.80 10.44-2.17C10.44-1.36 11.18-0.94 12.21-1.15ZM11.43-12.23C11.37-13.38 12.04-14.24 12.79-14.39C12.90-14.43 12.96-14.36 12.96-14.24C12.96-13.41 12.29-12.69 11.47-11.91C11.45-12.04 11.43-12.15 11.43-12.23ZM10.14-6.76C10.14-7.83 10.66-8.71 11.32-9.60C11.41-9.32 11.51-9.04 11.60-8.75C11.18-8.23 10.92-7.55 10.92-6.83C10.92-6.48 11.23-6.45 11.51-6.70C11.68-6.86 11.91-7.04 12.15-7.21C12.41-6.48 12.64-5.78 12.83-5.14C12.70-5.10 12.57-5.06 12.43-5.03C11.03-4.75 10.14-5.46 10.14-6.76ZM12.93-7.55C13.70-7.70 14.20-7.38 14.20-6.73C14.20-6.26 13.95-5.82 13.52-5.51C13.35-6.14 13.11-6.84 12.88-7.54Z" fill="currentColor"/>
</svg>