<svg xmlns="http://www.w3.org/2000/svg" viewBox="0 0 24 24" width="24" height="24">
  
  <path transform="matrix(0.7381776239907728, 0, 0, 0.7381776239907728, 2.519031141868512, 18.262975778546714)" d="M4.15 1.51C4.15 3.64 5.63 5.06 7.84 5.06L17.99 5.06C20.12 5.06 21.54 3.64 21.54 1.51L21.54-18.47C21.54-20.60 20.12-22.03 17.99-22.03L7.84-22.03C5.63-22.03 4.15-20.60 4.15-18.47ZM7.17 0.59L7.17-17.54C7.17-18.36 7.66-18.82 8.50-18.82L17.19-18.82C18.02-18.82 18.52-18.35 18.52-17.53L18.52 0.57C18.52 1.39 18.02 1.86 17.19 1.86L8.50 1.86C7.66 1.86 7.17 1.41 7.17 0.59ZM9.06-15.32L10.21-15.32C10.49-15.32 10.68-15.49 10.68-15.76L10.68-16.95C10.68-17.20 10.49-17.38 10.21-17.38L9.06-17.38C8.80-17.38 8.63-17.20 8.63-16.95L8.63-15.76C8.63-15.49 8.80-15.32 9.06-15.32ZM12.26-15.32L13.41-15.32C13.69-15.32 13.88-15.49 13.88-15.76L13.88-16.95C13.88-17.20 13.69-17.38 13.41-17.38L12.26-17.38C12-17.38 11.81-17.20 11.81-16.95L11.81-15.76C11.81-15.49 12-15.32 12.26-15.32ZM15.45-15.32L16.59-15.32C16.88-15.32 17.06-15.49 17.06-15.76L17.06-16.95C17.06-17.20 16.88-17.38 16.59-17.38L15.45-17.38C15.19-17.38 15-17.20 15-16.95L15-15.76C15-15.49 15.19-15.32 15.45-15.32ZM9.06-12.07L10.21-12.07C10.49-12.07 10.68-12.25 10.68-12.50L10.68-13.69C10.68-13.95 10.49-14.12 10.21-14.12L9.06-14.12C8.80-14.12 8.63-13.95 8.63-13.69L8.63-12.50C8.63-12.25 8.80-12.07 9.06-12.07ZM12.26-12.07L13.41-12.07C13.69-12.07 13.88-12.25 13.88-12.50L13.88-13.69C13.88-13.95 13.69-14.12 13.41-14.12L12.26-14.12C12-14.12 11.81-13.95 11.81-13.69L11.81-12.50C11.81-12.25 12-12.07 12.26-12.07ZM15.45-12.07L16.59-12.07C16.88-12.07 17.06-12.25 17.06-12.50L17.06-13.69C17.06-13.95 16.88-14.12 16.59-14.12L15.45-14.12C15.19-14.12 15-13.95 15-13.69L15-12.50C15-12.25 15.19-12.07 15.45-12.07ZM9.06-8.81L10.21-8.81C10.49-8.81 10.68-8.99 10.68-9.25L10.68-10.43C10.68-10.70 10.49-10.88 10.21-10.88L9.06-10.88C8.80-10.88 8.63-10.70 8.63-10.43L8.63-9.25C8.63-8.99 8.80-8.81 9.06-8.81ZM12.26-8.81L13.41-8.81C13.69-8.81 13.88-8.99 13.88-9.25L13.88-10.43C13.88-10.70 13.69-10.88 13.41-10.88L12.26-10.88C12-10.88 11.81-10.70 11.81-10.43L11.81-9.25C11.81-8.99 12-8.81 12.26-8.81ZM9.06 0.46L10.21 0.46C10.49 0.46 10.68 0.28 10.68 0.02L10.68-1.16C10.68-1.42 10.49-1.59 10.21-1.59L9.06-1.59C8.80-1.59 8.63-1.42 8.63-1.16L8.63 0.02C8.63 0.28 8.80 0.46 9.06 0.46ZM12.26 0.46L13.41 0.46C13.69 0.46 13.88 0.28 13.88 0.02L13.88-1.16C13.88-1.42 13.69-1.59 13.41-1.59L12.26-1.59C12-1.59 11.81-1.42 11.81-1.16L11.81 0.02C11.81 0.28 12 0.46 12.26 0.46ZM15.45 0.46L16.59 0.46C16.88 0.46 17.06 0.28 17.06 0.02L17.06-1.16C17.06-1.42 16.88-1.59 16.59-1.59L15.45-1.59C15.19-1.59 15-1.42 15-1.16L15 0.02C15 0.28 15.19 0.46 15.45 0.46Z" fill="currentColor"/>
</svg>