<svg xmlns="http://www.w3.org/2000/svg" viewBox="0 0 24 24" width="24" height="24">
  
  <path transform="matrix(0.6513994910941476, 0, 0, 0.6513994910941476, 0.6335877862595418, 18.354961832061072)" d="M25.92 1.02C29.75 1.02 32.80-1.82 32.80-5.36C32.80-7.90 31.38-10.23 29.00-11.21C28.99-16.63 25.08-20.53 19.98-20.53C16.95-20.53 14.50-19.05 12.91-16.82C9.80-17.53 6.70-15.28 6.50-11.94C3.77-11.38 2.10-8.89 2.10-5.86C2.10-2.10 5.39 1.02 9.63 1.02ZM18.05-3.48C15.40-3.48 13.24-5.63 13.24-8.32C13.24-10.65 14.87-12.57 17.04-13.04L17.04-14.05C17.04-14.68 17.71-14.93 18.21-14.52L20.47-12.64C20.89-12.28 20.92-11.71 20.47-11.32L18.21-9.42C17.72-9 17.04-9.26 17.04-9.89L17.04-11.05C15.93-10.66 15.14-9.59 15.14-8.32C15.14-6.69 16.43-5.38 18.05-5.38C19.66-5.38 20.95-6.68 20.95-8.30C20.95-8.82 21.38-9.23 21.90-9.23C22.42-9.23 22.85-8.82 22.85-8.30C22.85-5.63 20.70-3.48 18.05-3.48Z" fill="currentColor"/>
</svg>