<svg xmlns="http://www.w3.org/2000/svg" viewBox="0 0 24 24" width="24" height="24">
  
  <path transform="matrix(0.8926080892608089, 0, 0, 0.8926080892608089, -0.6673640167364017, 19.552301255230127)" d="M7.13 2.74L21.26 2.74C23.94 2.74 25.39 1.29 25.39-1.36L25.39-15.55C25.39-18.20 23.94-19.66 21.26-19.66L7.13-19.66C4.45-19.66 2.99-18.21 2.99-15.55L2.99-1.36C2.99 1.29 4.45 2.74 7.13 2.74ZM19.49-8.24C18.89-8.24 18.41-8.72 18.41-9.32L18.41-9.81L18.59-11.24L16.46-8.94C16.01-8.44 15.21-8.46 14.73-8.94C14.25-9.42 14.23-10.22 14.73-10.68L17.02-12.79L15.60-12.61L15.12-12.61C14.53-12.61 14.05-13.08 14.05-13.68C14.05-14.27 14.53-14.77 15.12-14.77L19.15-14.77C20.06-14.77 20.57-14.29 20.57-13.36L20.57-9.32C20.57-8.72 20.09-8.24 19.49-8.24ZM13.37-2.13L9.34-2.13C8.43-2.13 7.93-2.61 7.93-3.54L7.93-7.58C7.93-8.18 8.41-8.66 9.01-8.66C9.61-8.66 10.09-8.18 10.09-7.58L10.09-7.09L9.91-5.66L12.04-7.96C12.49-8.46 13.29-8.44 13.77-7.96C14.24-7.48 14.26-6.68 13.76-6.22L11.48-4.11L12.89-4.29L13.37-4.29C13.97-4.29 14.45-3.82 14.45-3.22C14.45-2.61 13.97-2.13 13.37-2.13Z" fill="currentColor"/>
</svg>