<svg xmlns="http://www.w3.org/2000/svg" viewBox="0 0 24 24" width="24" height="24">
  <title>arrow.uturn.left</title>
  <path transform="matrix(0.8658887197699983, 0, 0, 0.8658887197699983, -0.5266362252663619, 19.321156773211566)" d="M2.99-11.82C2.99-11.37 3.18-10.89 3.49-10.57L9.96-4.18C10.30-3.86 10.75-3.66 11.18-3.66C12.16-3.66 12.82-4.36 12.82-5.29C12.82-5.80 12.61-6.18 12.29-6.48L9.93-8.79L8.14-10.25L10.79-10.13L17.21-10.13C20.60-10.13 22.62-8.10 22.62-5.23C22.62-2.36 20.60-0.30 17.21-0.30L14.44-0.30C13.44-0.30 12.71 0.46 12.71 1.39C12.71 2.33 13.45 3.09 14.44 3.09L17.44 3.09C22.65 3.09 25.95-0.14 25.95-5.17C25.95-10.11 22.61-13.52 17.33-13.52L10.79-13.52L8.13-13.41L9.93-14.87L12.29-17.18C12.61-17.48 12.82-17.86 12.82-18.38C12.82-19.31 12.16-20.00 11.18-20.00C10.75-20.00 10.30-19.80 9.96-19.48L3.49-13.08C3.18-12.76 2.99-12.29 2.99-11.82Z" fill="currentColor"/>
</svg>