<svg xmlns="http://www.w3.org/2000/svg" viewBox="0 0 24 24" width="24" height="24">
  
  <path transform="matrix(1.0164780623386938, 0, 0, 1.0164780623386938, -0.22751637879690367, 20.642048838594402)" d="M21.67-0.61C21.67-1.15 21.46-1.61 21.13-2.26L14.12-16.71C13.57-17.82 12.91-18.34 12.02-18.34C11.14-18.34 10.48-17.82 9.94-16.71L2.93-2.26C2.60-1.61 2.39-1.15 2.39-0.61C2.39 0.46 3.21 1.34 4.58 1.34L19.48 1.32C20.85 1.32 21.67 0.46 21.67-0.61ZM17.84-1.84C17.84-1.77 17.79-1.73 17.71-1.73L6.34-1.73C6.26-1.73 6.21-1.77 6.21-1.84C6.21-1.88 6.23-1.91 6.26-1.97L11.91-14.00C11.94-14.05 11.98-14.10 12.02-14.10C12.08-14.10 12.12-14.05 12.14-14.00L17.79-1.97C17.81-1.91 17.84-1.88 17.84-1.84Z" fill="currentColor"/>
</svg>