<svg xmlns="http://www.w3.org/2000/svg" viewBox="0 0 24 24" width="24" height="24">
  <title>arrow.turn.up.right</title>
  <path transform="matrix(0.894010825912345, 0, 0, 0.894010825912345, -0.6715557883708749, 19.54321634363541)" d="M6.47-0.52C6.46-1.00 6.41-1.63 6.41-2.41C6.41-5.63 7.57-6.91 10.76-6.91L17.53-6.91L20.17-7.02L17.48-4.66L14.87-2.04C14.55-1.73 14.33-1.34 14.33-0.82C14.33 0.09 15.01 0.79 16.01 0.79C16.42 0.79 16.84 0.61 17.19 0.26L24.83-7.36C25.16-7.68 25.36-8.16 25.36-8.61C25.36-9.08 25.16-9.56 24.83-9.88L17.21-17.48C16.84-17.85 16.42-18.04 16.01-18.04C15.01-18.04 14.33-17.33 14.33-16.42C14.33-15.91 14.55-15.52 14.87-15.20L17.48-12.57L20.16-10.22L17.53-10.31L10.49-10.32C5.30-10.32 2.99-7.70 2.99-2.45C2.99-1.77 3.01-1.13 3.13-0.47C3.25 0.27 3.73 1.16 4.84 1.16C5.82 1.16 6.47 0.48 6.47-0.52Z" fill="currentColor"/>
</svg>