<svg xmlns="http://www.w3.org/2000/svg" viewBox="0 0 24 24" width="24" height="24">
  
  <path transform="matrix(1.0164780623386938, 0, 0, 1.0164780623386938, -0.43001786777843964, 20.58844550327576)" d="M20.12-18.08C19.58-18.08 19.13-17.87 18.47-17.55L4.02-10.54C2.91-10.00 2.39-9.34 2.39-8.45C2.39-7.56 2.91-6.90 4.02-6.36L18.47 0.66C19.14 0.98 19.59 1.18 20.13 1.18C21.20 1.18 22.07 0.36 22.07-1.00L22.07-15.90C22.07-17.26 21.19-18.08 20.12-18.08ZM18.89-14.25C18.96-14.25 19.00-14.20 19.00-14.12L19.01-2.77C19.01-2.68 18.96-2.64 18.90-2.64C18.87-2.64 18.82-2.66 18.77-2.68L6.74-8.33C6.68-8.36 6.64-8.39 6.64-8.45C6.64-8.50 6.68-8.53 6.74-8.57L18.76-14.20C18.82-14.24 18.86-14.25 18.89-14.25Z" fill="currentColor"/>
</svg>