<svg xmlns="http://www.w3.org/2000/svg" viewBox="0 0 24 24" width="24" height="24">
  
  <path transform="matrix(0.7331042382588774, 0, 0, 0.7331042382588774, -0.19072164948453585, 18.335910652920962)" d="M7.13 2.61L26.33 2.61C28.82 2.61 30.27 1.15 30.27-1.50L30.27-13.58C30.27-16.24 28.80-17.70 26.13-17.70L15.84-17.70C14.94-17.70 14.39-17.91 13.64-18.48L13.05-18.95C12.14-19.66 11.52-19.90 10.17-19.90L6.90-19.90C4.48-19.90 2.99-18.43 2.99-15.79L2.99-1.50C2.99 1.16 4.45 2.61 7.13 2.61ZM16.64-13.80C17.02-13.80 17.38-13.69 17.74-13.32L21.70-9.53C21.94-9.28 22.08-9.04 22.08-8.67C22.08-7.99 21.50-7.51 20.87-7.51C20.52-7.51 20.19-7.66 19.96-7.91L18.49-9.47L17.92-10.35L18.05-8.57L18.05-2.74C18.05-2.00 17.43-1.37 16.64-1.37C15.87-1.37 15.25-2.00 15.25-2.74L15.25-8.57L15.36-10.35L14.79-9.47L13.32-7.91C13.09-7.66 12.76-7.51 12.41-7.51C11.78-7.51 11.20-7.99 11.20-8.67C11.20-9.04 11.34-9.28 11.59-9.53L15.54-13.32C15.90-13.69 16.27-13.80 16.64-13.80Z" fill="currentColor"/>
</svg>