<svg xmlns="http://www.w3.org/2000/svg" viewBox="0 0 24 24" width="24" height="24">
  <title>arrow.down.app.fill</title>
  <path transform="matrix(0.8968295673497986, 0, 0, 0.8968295673497986, -0.6747241198108256, 19.59327377824488)" d="M9.46 2.68L18.81 2.68C20.86 2.68 22.49 2.07 23.57 0.98C24.68-0.12 25.28-1.75 25.28-3.80L25.28-13.15C25.28-15.20 24.68-16.82 23.57-17.92C22.48-19.02 20.86-19.62 18.81-19.62L9.46-19.62C7.41-19.62 5.78-19.01 4.70-17.92C3.59-16.82 2.99-15.20 2.99-13.15L2.99-3.80C2.99-1.75 3.59-0.12 4.70 0.98C5.79 2.07 7.41 2.68 9.46 2.68ZM14.13-2.00C13.73-2.00 13.36-2.14 12.97-2.52L8.87-6.46C8.61-6.70 8.47-6.97 8.47-7.35C8.47-8.06 9.08-8.57 9.74-8.57C10.10-8.57 10.45-8.41 10.70-8.16L12.20-6.56L12.76-5.70L12.67-7.49L12.67-13.48C12.67-14.26 13.31-14.93 14.13-14.93C14.95-14.93 15.61-14.26 15.61-13.48L15.61-7.49L15.50-5.70L16.07-6.56L17.57-8.16C17.81-8.41 18.15-8.57 18.53-8.57C19.18-8.57 19.79-8.06 19.79-7.35C19.79-6.97 19.65-6.70 19.39-6.46L15.30-2.52C14.91-2.14 14.53-2.00 14.13-2.00Z" fill="currentColor"/>
</svg>