<svg xmlns="http://www.w3.org/2000/svg" viewBox="0 0 24 24" width="24" height="24">
  
  <path transform="matrix(0.8080808080808081, 0, 0, 0.8080808080808081, 0.30492424242424243, 18.83712121212121)" d="M14.47 3.91C21.30 3.91 26.85-1.63 26.85-8.46C26.85-15.29 21.30-20.84 14.47-20.84C7.64-20.84 2.10-15.29 2.10-8.46C2.10-1.63 7.64 3.91 14.47 3.91ZM18.30-4.95C17.55-4.95 17.09-5.47 17.09-6.30L17.09-7.97L17.25-9.49L15.79-7.84L11.89-3.95C11.58-3.64 11.23-3.50 10.83-3.50C10.05-3.50 9.45-4.05 9.45-4.89C9.45-5.25 9.61-5.63 9.88-5.91L13.80-9.82L15.47-11.29L14.02-11.10L12.25-11.10C11.41-11.10 10.88-11.57 10.88-12.30C10.88-13.05 11.41-13.52 12.25-13.52L17.87-13.52C18.89-13.52 19.50-12.97 19.50-11.91L19.50-6.30C19.50-5.48 19.03-4.95 18.30-4.95Z" fill="currentColor"/>
</svg>