<svg xmlns="http://www.w3.org/2000/svg" viewBox="0 0 24 24" width="24" height="24">
  <title>arrow.trianglehead.counterclockwise.icloud.fill</title>
  <path transform="matrix(0.6513994910941476, 0, 0, 0.6513994910941476, 0.6335877862595418, 18.354961832061072)" d="M25.92 1.02C29.75 1.02 32.80-1.82 32.80-5.36C32.80-7.90 31.38-10.23 29.00-11.21C28.99-16.63 25.08-20.53 19.98-20.53C16.95-20.53 14.50-19.05 12.91-16.82C9.80-17.53 6.70-15.28 6.50-11.94C3.77-11.38 2.10-8.89 2.10-5.86C2.10-2.10 5.39 1.02 9.63 1.02ZM18.05-3.48C15.40-3.48 13.24-5.63 13.24-8.30C13.24-8.82 13.68-9.23 14.19-9.23C14.72-9.23 15.14-8.82 15.14-8.30C15.14-6.68 16.44-5.38 18.05-5.38C19.66-5.38 20.95-6.69 20.95-8.32C20.95-9.59 20.17-10.66 19.05-11.05L19.05-9.89C19.05-9.26 18.38-9 17.88-9.42L15.62-11.32C15.18-11.71 15.20-12.28 15.62-12.64L17.88-14.52C18.39-14.93 19.05-14.68 19.05-14.05L19.05-13.04C21.22-12.57 22.85-10.65 22.85-8.32C22.85-5.63 20.70-3.48 18.05-3.48Z" fill="currentColor"/>
</svg>