<svg xmlns="http://www.w3.org/2000/svg" viewBox="0 0 24 24" width="24" height="24">
  
  <path transform="matrix(0.7149839407903924, 0, 0, 0.7149839407903924, -0.13657310431504, 18.04105571847507)" d="M7.13 2.75L26.82 2.75C29.51 2.75 30.96 1.30 30.96-1.36L30.96-15.54C30.96-18.20 29.51-19.65 26.82-19.65L7.13-19.65C4.45-19.65 2.99-18.20 2.99-15.54L2.99-1.36C2.99 1.30 4.45 2.75 7.13 2.75ZM18.89-2.61C18.25-2.61 17.82-3.08 17.82-3.74L17.82-8.87C17.82-9.81 18.42-10.35 19.30-10.35L24.45-10.35C25.10-10.35 25.56-9.91 25.56-9.28C25.56-8.64 25.09-8.19 24.42-8.19L22.85-8.19L21.47-8.30L22.92-7.00L26.12-3.82C26.36-3.56 26.51-3.23 26.51-2.93C26.51-2.19 25.97-1.71 25.28-1.71C24.93-1.71 24.62-1.83 24.34-2.11L21.19-5.26L19.88-6.71L19.97-5.29L19.97-3.73C19.97-3.07 19.54-2.61 18.89-2.61Z" fill="currentColor"/>
</svg>