<svg xmlns="http://www.w3.org/2000/svg" viewBox="0 0 24 24" width="24" height="24">
  <title>arrowshape.turn.up.backward.2</title>
  <path transform="matrix(0.6172393007836046, 0, 0, 0.6172393007836046, 0.8933092224231465, 17.21880650994575)" d="M13.82 2.72C14.91 2.72 15.74 1.89 15.74 0.80L15.74-0.90L18.61 1.78C19.31 2.43 19.89 2.72 20.61 2.72C21.71 2.72 22.54 1.89 22.54 0.80L22.54-2.98L22.75-2.98C26.64-2.98 28.86-1.55 30.40 1.25C30.95 2.26 31.57 2.58 32.37 2.58C33.49 2.58 34.20 1.48 34.20-0.70C34.20-8.96 30.34-13.88 22.75-13.88L22.54-13.88L22.54-17.67C22.54-18.76 21.71-19.63 20.60-19.63C19.90-19.63 19.38-19.35 18.61-18.64L15.74-15.98L15.74-17.67C15.74-18.76 14.91-19.63 13.80-19.63C13.10-19.63 12.57-19.35 11.81-18.64L2.47-10.00C1.99-9.55 1.79-8.98 1.79-8.46C1.79-7.96 2.00-7.36 2.48-6.91L11.81 1.78C12.50 2.43 13.09 2.72 13.82 2.72ZM19.77-1.09C19.70-1.09 19.64-1.11 19.58-1.18L12.09-8.25C12-8.33 11.96-8.39 11.96-8.46C11.96-8.53 12-8.58 12.09-8.67L19.57-15.79C19.63-15.83 19.70-15.87 19.77-15.87C19.88-15.87 19.96-15.79 19.96-15.67L19.96-11.59C19.96-11.32 20.07-11.20 20.33-11.20L21.73-11.20C28.57-11.20 31.55-7.09 31.68-1.45C31.68-1.38 31.64-1.34 31.59-1.34C31.55-1.34 31.52-1.37 31.49-1.44C30.07-4.35 26.81-5.70 21.73-5.70L20.33-5.70C20.07-5.70 19.96-5.58 19.96-5.32L19.96-1.29C19.96-1.17 19.88-1.09 19.77-1.09ZM12.77-1.18L5.29-8.25C5.20-8.33 5.17-8.39 5.17-8.46C5.17-8.53 5.20-8.58 5.29-8.67L12.77-15.79C12.83-15.83 12.89-15.87 12.96-15.87C13.07-15.87 13.16-15.79 13.16-15.67L13.16-13.59L9.28-10.00C8.80-9.55 8.59-8.98 8.59-8.46C8.59-7.96 8.81-7.36 9.28-6.91L13.16-3.30L13.16-1.29C13.16-1.17 13.08-1.09 12.96-1.09C12.90-1.09 12.84-1.11 12.77-1.18Z" fill="currentColor"/>
</svg>