<svg xmlns="http://www.w3.org/2000/svg" viewBox="0 0 24 24" width="24" height="24">
  
  <path transform="matrix(0.8080808080808081, 0, 0, 0.8080808080808081, 0.30492424242424243, 18.83712121212121)" d="M14.47 3.91C21.30 3.91 26.85-1.63 26.85-8.46C26.85-15.29 21.30-20.84 14.47-20.84C7.64-20.84 2.10-15.29 2.10-8.46C2.10-1.63 7.64 3.91 14.47 3.91ZM19.69-8.24C19.10-8.24 18.61-8.72 18.61-9.32L18.61-9.81L18.79-11.24L16.68-8.94C16.22-8.44 15.42-8.46 14.93-8.94C14.46-9.42 14.44-10.22 14.94-10.68L17.23-12.79L15.81-12.61L15.33-12.61C14.73-12.61 14.25-13.08 14.25-13.68C14.25-14.27 14.73-14.77 15.33-14.77L19.36-14.77C20.27-14.77 20.78-14.29 20.78-13.36L20.78-9.32C20.78-8.72 20.29-8.24 19.69-8.24ZM13.58-2.13L9.55-2.13C8.64-2.13 8.13-2.61 8.13-3.54L8.13-7.58C8.13-8.18 8.63-8.66 9.22-8.66C9.81-8.66 10.30-8.18 10.30-7.58L10.30-7.09L10.11-5.66L12.23-7.96C12.69-8.46 13.49-8.44 13.98-7.96C14.45-7.48 14.47-6.68 13.97-6.22L11.68-4.11L13.10-4.29L13.58-4.29C14.18-4.29 14.66-3.82 14.66-3.22C14.66-2.61 14.18-2.13 13.58-2.13Z" fill="currentColor"/>
</svg>