<svg xmlns="http://www.w3.org/2000/svg" viewBox="0 0 24 24" width="24" height="24">
  <title>arrow.up.arrow.down.square.fill</title>
  <path transform="matrix(0.8926080892608089, 0, 0, 0.8926080892608089, -0.6673640167364017, 19.552301255230127)" d="M7.13 2.74L21.26 2.74C23.94 2.74 25.39 1.29 25.39-1.36L25.39-15.55C25.39-18.20 23.94-19.66 21.26-19.66L7.13-19.66C4.45-19.66 2.99-18.21 2.99-15.55L2.99-1.36C2.99 1.29 4.45 2.74 7.13 2.74ZM17.87-14.44C18.40-14.44 18.81-14.04 18.81-13.51L18.81-6.06L18.80-5.67L19.13-6.02L20.24-7.17C20.41-7.35 20.65-7.43 20.89-7.43C21.43-7.43 21.81-7.04 21.81-6.50C21.81-6.27 21.70-6.02 21.53-5.85L18.56-2.80C18.19-2.41 17.55-2.40 17.17-2.80L14.23-5.85C14.05-6.02 13.93-6.26 13.93-6.50C13.93-7.04 14.32-7.43 14.85-7.43C15.11-7.43 15.34-7.35 15.50-7.17L16.62-6.02L16.93-5.67L16.93-13.51C16.93-14.04 17.33-14.44 17.87-14.44ZM10.66-2.48C10.14-2.48 9.73-2.88 9.73-3.41L9.73-10.86L9.74-11.25L9.42-10.90L8.31-9.76C8.14-9.57 7.90-9.49 7.65-9.49C7.11-9.49 6.74-9.88 6.74-10.42C6.74-10.66 6.86-10.90 7.03-11.07L9.98-14.12C10.36-14.51 10.99-14.52 11.38-14.12L14.33-11.07C14.50-10.90 14.60-10.65 14.60-10.42C14.60-9.88 14.23-9.49 13.70-9.49C13.44-9.49 13.22-9.57 13.04-9.76L11.93-10.90L11.59-11.26L11.60-10.86L11.60-3.41C11.60-2.88 11.19-2.48 10.66-2.48Z" fill="currentColor"/>
</svg>