<svg xmlns="http://www.w3.org/2000/svg" viewBox="0 0 24 24" width="24" height="24">
  <title>arrow.down.applewatch</title>
  <path transform="matrix(0.7426747896721787, 0, 0, 0.7426747896721787, 2.0783289817232378, 18.28372497824195)" d="M4.09-3.41C4.09-1.57 4.77-0.22 6.15 0.62C6.83 1.03 7.25 1.51 7.52 2.24L8.11 3.80C8.40 4.59 9.04 5.00 9.93 5.00L15.53 5.00C16.43 5.00 17.05 4.59 17.33 3.80L17.93 2.24C18.20 1.51 18.61 1.03 19.29 0.62C20.67-0.22 21.36-1.56 21.36-3.41L21.36-9.16C22.11-9.16 22.63-9.70 22.63-10.51L22.63-12.16C22.63-12.96 22.11-13.50 21.36-13.50C21.36-15.35 20.67-16.69 19.29-17.53C18.61-17.94 18.20-18.42 17.93-19.16L17.33-20.71C17.06-21.50 16.42-21.93 15.53-21.93L9.93-21.93C9.04-21.93 8.40-21.50 8.11-20.71L7.52-19.16C7.24-18.41 6.82-17.92 6.15-17.53C4.78-16.71 4.09-15.36 4.09-13.50ZM6.70-4.00L6.70-12.93C6.70-14.57 7.63-15.54 9.23-15.54L16.22-15.54C17.81-15.54 18.75-14.57 18.75-12.93L18.75-4.00C18.75-2.36 17.81-1.38 16.22-1.38L9.23-1.38C7.63-1.38 6.70-2.34 6.70-4.00ZM12.76-3.61C13.11-3.61 13.41-3.74 13.65-4.01L16.70-7.18C16.91-7.41 17.00-7.62 17.00-7.90C17.00-8.43 16.61-8.80 16.05-8.80C15.77-8.80 15.52-8.68 15.36-8.50L14.43-7.45L13.77-6.59L13.84-7.96L13.84-12.34C13.84-12.94 13.37-13.36 12.76-13.36C12.16-13.36 11.70-12.94 11.70-12.34L11.70-7.96L11.75-6.59L11.12-7.45L10.17-8.50C10.02-8.68 9.76-8.80 9.48-8.80C8.93-8.80 8.54-8.43 8.54-7.90C8.54-7.62 8.63-7.41 8.84-7.18L11.89-4.01C12.14-3.74 12.42-3.61 12.76-3.61Z" fill="currentColor"/>
</svg>