<svg xmlns="http://www.w3.org/2000/svg" viewBox="0 0 24 24" width="24" height="24">
  <title>arrow.up.backward.circle</title>
  <path transform="matrix(0.8080808080808081, 0, 0, 0.8080808080808081, 0.30492424242424243, 18.83712121212121)" d="M14.47 3.91C21.30 3.91 26.85-1.63 26.85-8.46C26.85-15.29 21.30-20.84 14.47-20.84C7.64-20.84 2.10-15.29 2.10-8.46C2.10-1.63 7.64 3.91 14.47 3.91ZM14.47 0.83C9.34 0.83 5.18-3.33 5.18-8.46C5.18-13.61 9.34-17.75 14.47-17.75C19.62-17.75 23.77-13.61 23.77-8.46C23.77-3.33 19.62 0.83 14.47 0.83ZM11.99-8.02L11.79-9.52L13.21-7.90L16.92-4.18C17.21-3.90 17.54-3.77 17.93-3.77C18.66-3.77 19.23-4.29 19.23-5.06C19.23-5.41 19.08-5.77 18.82-6.01L15.08-9.76L13.43-11.19L14.87-10.97L16.58-10.97C17.36-10.97 17.86-11.41 17.86-12.12C17.86-12.82 17.36-13.25 16.57-13.25L11.23-13.25C10.28-13.25 9.69-12.74 9.69-11.74L9.69-6.42C9.69-5.66 10.14-5.14 10.84-5.14C11.54-5.14 11.99-5.64 11.99-6.42Z" fill="currentColor"/>
</svg>