<svg xmlns="http://www.w3.org/2000/svg" viewBox="0 0 24 24" width="24" height="24">
  
  <path transform="matrix(0.8076983751380344, 0, 0, 0.8076983751380344, 0.31045906294368164, 18.942735447231424)" d="M14.47 3.79C21.30 3.79 26.85-1.77 26.85-8.60C26.85-15.43 21.30-20.98 14.47-20.98C7.64-20.98 2.10-15.43 2.10-8.60C2.10-1.77 7.64 3.79 14.47 3.79ZM12.05-2.14C11.75-2.14 11.47-2.27 11.25-2.48L7.90-5.80C7.68-5.99 7.58-6.25 7.58-6.52C7.58-7.08 8.07-7.57 8.65-7.57C8.92-7.57 9.18-7.45 9.36-7.24L10.46-6.06L11.06-5.26L11.03-6.32L11.03-9.89C11.03-12.86 12.90-14.94 15.86-14.94C18.84-14.94 20.77-12.86 20.77-9.90L20.77-8.14C20.77-7.42 20.33-6.93 19.64-6.93C18.97-6.93 18.55-7.43 18.55-8.13L18.55-9.90C18.55-11.53 17.48-12.67 15.80-12.67C14.13-12.67 13.14-11.51 13.14-9.89L13.14-6.32L13.09-5.27L13.56-5.92L14.73-7.25C14.92-7.48 15.19-7.58 15.45-7.58C16.03-7.58 16.50-7.09 16.50-6.54C16.50-6.26 16.41-6 16.21-5.80L12.84-2.48C12.62-2.27 12.34-2.14 12.05-2.14Z" fill="currentColor"/>
</svg>