<svg xmlns="http://www.w3.org/2000/svg" viewBox="0 0 24 24" width="24" height="24">
  
  <path transform="matrix(0.8912097476066144, 0, 0, 0.8912097476066144, 0.9556135770234992, 19.535248041775457)" d="M4.59-8.67C5.11-8.67 5.51-8.88 5.81-9.20L8.45-11.82L10.80-14.58L10.69-12L10.69 1.01C10.69 2.06 11.38 2.77 12.39 2.77C13.41 2.77 14.09 2.06 14.09 1.01L14.09-12L13.98-14.57L16.34-11.82L18.97-9.20C19.29-8.88 19.69-8.67 20.19-8.67C21.11-8.67 21.80-9.35 21.80-10.31C21.80-10.76 21.62-11.17 21.27-11.53L13.64-19.16C13.32-19.49 12.86-19.68 12.39-19.68C11.93-19.68 11.45-19.49 11.13-19.16L3.52-11.53C3.16-11.17 2.99-10.76 2.99-10.31C2.99-9.35 3.68-8.67 4.59-8.67Z" fill="currentColor"/>
</svg>