<svg xmlns="http://www.w3.org/2000/svg" viewBox="0 0 24 24" width="24" height="24">
  
  <path transform="matrix(0.6748385396072228, 0, 0, 0.6748385396072228, -0.016607354685646225, 19.134434414490308)" d="M10.21-18.15L10.21-19.73L25.42-19.73L25.42-18.15C25.42-17.23 26.32-16.90 27.05-17.45L30.43-20.02C30.91-20.38 30.89-21.05 30.43-21.40L27.05-23.98C26.31-24.54 25.42-24.20 25.42-23.26L25.42-21.69L10.21-21.69L10.21-23.26C10.21-24.20 9.30-24.54 8.57-23.98L5.18-21.40C4.72-21.05 4.71-20.38 5.18-20.02L8.57-17.45C9.29-16.91 10.21-17.21 10.21-18.15ZM5.21 3.11L14.53 3.11C16.21 3.11 17.02 2.29 17.02 0.62L17.02-13.02C17.02-14.63 15.84-15.54 14.57-15.54C13.68-15.54 12.74-15.11 12.15-14.13L3.49-0.53C3.18-0.01 2.99 0.47 2.99 1.07C2.99 2.23 3.71 3.11 5.21 3.11ZM30.40 3.11C31.90 3.11 32.63 2.23 32.63 1.07C32.63 0.47 32.44-0.01 32.11-0.53L23.46-14.13C22.86-15.11 21.94-15.54 21.05-15.54C19.76-15.54 18.59-14.63 18.59-13.02L18.59 0.62C18.59 2.29 19.41 3.11 21.08 3.11Z" fill="currentColor"/>
</svg>