<svg xmlns="http://www.w3.org/2000/svg" viewBox="0 0 24 24" width="24" height="24">
  <title>arrowtriangle.down.circle.fill</title>
  <path transform="matrix(0.8080808080808081, 0, 0, 0.8080808080808081, 0.30492424242424243, 18.83712121212121)" d="M14.47 3.91C21.30 3.91 26.85-1.63 26.85-8.46C26.85-15.29 21.30-20.84 14.47-20.84C7.64-20.84 2.10-15.29 2.10-8.46C2.10-1.63 7.64 3.91 14.47 3.91ZM13.46-3.89L9.60-10.44C9.12-11.26 9.53-12.25 10.48-12.25L18.45-12.25C19.41-12.25 19.83-11.27 19.34-10.44L15.48-3.89C15.01-3.09 13.92-3.13 13.46-3.89Z" fill="currentColor"/>
</svg>