<svg xmlns="http://www.w3.org/2000/svg" viewBox="0 0 24 24" width="24" height="24">
  <title>arrowshape.zigzag.right</title>
  <path transform="matrix(0.661498708010336, 0, 0, 0.661498708010336, 0.02325581395348819, 17.593023255813954)" d="M6.30 2.55L13.43 2.55C15.74 2.55 16.76 1.51 16.76-0.79L16.76-2.82L19.28-2.82L19.28 0.80C19.28 1.89 20.10 2.72 21.19 2.72C21.93 2.72 22.50 2.43 23.19 1.78L32.53-6.91C33-7.36 33.22-7.96 33.22-8.46C33.22-8.98 33.01-9.55 32.53-10.00L23.19-18.64C22.43-19.35 21.91-19.63 21.21-19.63C20.10-19.63 19.28-18.76 19.28-17.67L19.28-13.80L12.69-13.80C10.25-13.80 9.19-12.69 9.19-10.27L9.19-8.41L6.30-8.41C4.16-8.41 2.99-7.29 2.99-5.20L2.99-0.64C2.99 1.49 4.10 2.55 6.30 2.55ZM22.04-1.09C21.94-1.09 21.86-1.17 21.86-1.29L21.86-5.57C21.86-5.84 21.74-5.95 21.48-5.95L13.13-5.95C12.52-5.95 12.21-6.28 12.21-6.94L12.21-10.21C12.21-10.86 12.52-11.20 13.13-11.20L21.48-11.20C21.74-11.20 21.86-11.32 21.86-11.59L21.86-15.67C21.86-15.79 21.94-15.87 22.04-15.87C22.11-15.87 22.18-15.83 22.23-15.79L29.72-8.67C29.81-8.58 29.85-8.53 29.85-8.46C29.85-8.39 29.81-8.33 29.72-8.25L22.23-1.18C22.17-1.11 22.11-1.09 22.04-1.09ZM6.70 0.06C6.12 0.06 5.81-0.27 5.81-0.90L5.81-4.95C5.81-5.58 6.12-5.91 6.70-5.91L9.35-5.91L9.35-5.57C9.35-4.82 9.64-4.22 10.35-3.62L13.92-1.00L13.92-0.90C13.92-0.27 13.63 0.06 13.03 0.06Z" fill="currentColor"/>
</svg>