<svg xmlns="http://www.w3.org/2000/svg" viewBox="0 0 24 24" width="24" height="24">
  <title>arrowtriangle.right.and.line.vertical.and.arrowtriangle.left</title>
  <path transform="matrix(0.5564612542114987, 0, 0, 0.5564612542114987, 0.2067166612324749, 16.698402347570916)" d="M21.19 4.24C21.89 4.24 22.49 3.74 22.49 3L22.49-19.90C22.49-20.63 21.88-21.13 21.19-21.13C20.52-21.13 19.90-20.61 19.90-19.90L19.90 3C19.90 3.74 20.51 4.24 21.19 4.24ZM15.53-6.64C16.97-7.52 16.97-9.38 15.53-10.24L6.33-15.83C4.86-16.73 3.22-15.97 3.22-14.19L3.22-2.70C3.22-0.90 4.90-0.19 6.33-1.05ZM36.05-1.05C37.49-0.19 39.16-0.90 39.16-2.70L39.16-14.19C39.16-15.97 37.52-16.73 36.05-15.83L26.86-10.24C25.41-9.38 25.41-7.52 26.86-6.64ZM13.48-8.29L6.06-3.75C5.95-3.68 5.77-3.69 5.77-3.89L5.77-13.01C5.77-13.21 5.96-13.21 6.06-13.15L13.48-8.61C13.65-8.50 13.61-8.37 13.48-8.29ZM36.33-3.75L28.91-8.29C28.78-8.37 28.72-8.50 28.91-8.61L36.33-13.15C36.42-13.21 36.61-13.21 36.61-13.01L36.61-3.89C36.61-3.69 36.43-3.68 36.33-3.75Z" fill="currentColor"/>
</svg>