<svg xmlns="http://www.w3.org/2000/svg" viewBox="0 0 24 24" width="24" height="24">
  <title>arrowshape.left.circle</title>
  <path transform="matrix(0.8080808080808081, 0, 0, 0.8080808080808081, 0.30492424242424243, 18.83712121212121)" d="M14.47 3.91C21.30 3.91 26.85-1.63 26.85-8.46C26.85-15.29 21.30-20.84 14.47-20.84C7.64-20.84 2.10-15.29 2.10-8.46C2.10-1.63 7.64 3.91 14.47 3.91ZM14.47 0.83C9.34 0.83 5.18-3.33 5.18-8.46C5.18-13.61 9.34-17.75 14.47-17.75C19.62-17.75 23.77-13.61 23.77-8.46C23.77-3.33 19.62 0.83 14.47 0.83ZM14.67-3.66L14.67-5.72L19.24-5.72C20.26-5.72 20.86-6.30 20.86-7.32L20.86-9.55C20.86-10.57 20.26-11.17 19.24-11.17L14.67-11.17L14.67-13.23C14.67-13.78 14.25-14.23 13.68-14.23C13.34-14.23 13.07-14.09 12.68-13.72L7.84-9.25C7.59-9.01 7.49-8.72 7.49-8.46C7.49-8.20 7.61-7.90 7.84-7.66L12.68-3.16C13.03-2.84 13.32-2.68 13.70-2.68C14.25-2.68 14.67-3.11 14.67-3.66Z" fill="currentColor"/>
</svg>