<svg xmlns="http://www.w3.org/2000/svg" viewBox="0 0 24 24" width="24" height="24">
  <title>arrow.3.trianglepath</title>
  <path transform="matrix(0.7672074496322394, 0, 0, 0.7672074496322394, 0.5323464608681088, 17.841635073265692)" d="M20.30-9.49C20.78-9.36 21.18-9.39 21.56-9.61C21.96-9.84 22.18-10.17 22.31-10.66L23.26-14.47C23.45-15.19 23.05-15.86 22.38-16.01C21.70-16.18 21.01-15.80 20.85-15.07L20.64-14.19L18.04-18.84C17.36-20.05 16.16-20.65 14.95-20.65C13.73-20.65 12.54-20.06 11.86-18.84L9.07-13.89C8.65-13.13 8.84-12.32 9.56-11.91C10.30-11.51 11.12-11.72 11.53-12.45L14.09-17.05C14.27-17.38 14.61-17.51 14.94-17.51C15.27-17.51 15.60-17.37 15.77-17.05L18.23-12.64L17.21-12.95C16.49-13.17 15.80-12.79 15.61-12.09C15.45-11.43 15.81-10.77 16.52-10.57ZM6.07 2.57L11.48 2.57C12.32 2.57 12.94 1.96 12.94 1.14C12.94 0.32 12.32-0.29 11.48-0.29L6.43-0.29C5.86-0.29 5.48-0.71 5.48-1.22C5.48-1.42 5.55-1.66 5.66-1.85L7.88-5.85L8.09-4.97C8.25-4.23 8.95-3.83 9.63-4.02C10.30-4.20 10.69-4.85 10.50-5.57L9.54-9.38C9.42-9.86 9.19-10.20 8.80-10.41C8.41-10.64 8.02-10.68 7.52-10.54L3.75-9.46C3.04-9.26 2.66-8.58 2.85-7.92C3.05-7.24 3.73-6.84 4.44-7.07L5.44-7.37L2.98-2.98C2.64-2.37 2.39-1.77 2.39-1.08C2.39 0.91 3.73 2.57 6.07 2.57ZM18 5.06C18.50 5.55 19.28 5.53 19.75 5.04C20.24 4.55 20.23 3.76 19.70 3.25L18.98 2.57L23.82 2.57C26.16 2.57 27.50 0.91 27.50-1.08C27.50-1.77 27.27-2.34 26.92-2.98L24.33-7.61C23.92-8.34 23.09-8.55 22.37-8.14C21.64-7.75 21.42-6.88 21.81-6.18L24.22-1.85C24.33-1.66 24.41-1.42 24.41-1.22C24.41-0.71 24.02-0.29 23.45-0.29L18.98-0.29L19.69-0.96C20.24-1.49 20.25-2.29 19.73-2.78C19.25-3.26 18.49-3.27 17.96-2.75L15.15-0.02C14.79 0.33 14.61 0.69 14.61 1.14C14.61 1.59 14.79 1.96 15.15 2.31Z" fill="currentColor"/>
</svg>