<svg xmlns="http://www.w3.org/2000/svg" viewBox="0 0 24 24" width="24" height="24">
  
  <path transform="matrix(0.8926080892608089, 0, 0, 0.8926080892608089, -0.6673640167364017, 19.552301255230127)" d="M7.13 2.74L21.26 2.74C23.94 2.74 25.39 1.29 25.39-1.36L25.39-15.55C25.39-18.20 23.94-19.66 21.26-19.66L7.13-19.66C4.45-19.66 2.99-18.21 2.99-15.55L2.99-1.36C2.99 1.29 4.45 2.74 7.13 2.74ZM7.45-0.28C6.52-0.28 6.01-0.74 6.01-1.73L6.01-15.18C6.01-16.17 6.52-16.64 7.45-16.64L20.93-16.64C21.87-16.64 22.37-16.17 22.37-15.18L22.37-1.73C22.37-0.74 21.87-0.28 20.93-0.28ZM9.46-6.06C9.46-5.87 9.62-5.72 9.81-5.72L10.45-5.72L10.09-4.56C10.03-4.39 10.01-4.27 10.01-4.11C10.01-3.53 10.42-3.22 11.00-3.22C11.52-3.22 11.81-3.47 11.95-3.97L12.46-5.72L15.95-5.72L16.44-3.97C16.58-3.48 16.88-3.22 17.41-3.22C17.98-3.22 18.39-3.53 18.39-4.11C18.39-4.28 18.36-4.42 18.30-4.58L17.95-5.72L18.60-5.72C18.79-5.72 18.94-5.87 18.94-6.06C18.94-6.25 18.79-6.40 18.60-6.40L17.74-6.40L17.34-7.65L18.60-7.65C18.79-7.65 18.94-7.80 18.94-7.99C18.94-8.18 18.79-8.33 18.60-8.33L17.12-8.33L15.79-12.56C15.54-13.38 15.05-13.76 14.20-13.76C13.36-13.76 12.84-13.36 12.61-12.56L11.27-8.33L9.81-8.33C9.62-8.33 9.46-8.18 9.46-7.99C9.46-7.80 9.62-7.65 9.81-7.65L11.06-7.65L10.66-6.40L9.81-6.40C9.62-6.40 9.46-6.25 9.46-6.06ZM14.17-11.70L14.23-11.70L15.19-8.33L13.21-8.33ZM12.66-6.40L13.01-7.65L15.39-7.65L15.75-6.40Z" fill="currentColor"/>
</svg>