<svg xmlns="http://www.w3.org/2000/svg" viewBox="0 0 24 24" width="24" height="24">
  <title>automatic.headlight.high.beam</title>
  <path transform="matrix(0.6221898165026127, 0, 0, 0.6221898165026127, 0.14072183740430178, 17.264309150565076)" d="M14.82-8.46C14.82-6.26 14.99-4.03 15.63-1.76C16.41 0.86 17.87 1.83 20.95 1.83L21.63 1.83C28.86 1.83 35.13-2.91 35.13-8.46C35.13-14.03 28.86-18.75 21.63-18.75L20.95-18.75C17.88-18.75 16.42-17.78 15.63-15.18C14.99-12.89 14.82-10.68 14.82-8.46ZM2.99-15.23C2.99-14.54 3.55-14.00 4.22-14.00L13.14-14.00C13.37-15.13 13.54-15.81 13.79-16.46L4.22-16.46C3.55-16.46 2.99-15.91 2.99-15.23ZM17.65-8.46C17.65-10.89 17.84-12.63 18.34-14.38C18.68-15.55 19.34-15.94 20.95-15.94L21.63-15.94C27.25-15.94 32.32-12.42 32.32-8.46C32.32-4.51 27.25-0.98 21.63-0.98L20.95-0.98C19.32-0.98 18.68-1.38 18.34-2.54C17.84-4.29 17.65-6.04 17.65-8.46ZM20.82-4.13C21.45-4.13 21.84-4.45 22.03-5.21L22.48-6.55L25.52-6.55L25.95-5.21C26.13-4.45 26.54-4.13 27.16-4.13C27.91-4.13 28.37-4.55 28.37-5.26C28.37-5.47 28.31-5.73 28.20-6.08L25.95-12.47C25.61-13.49 24.96-13.98 23.96-13.98C23.00-13.98 22.38-13.49 22.04-12.47L19.79-6.08C19.68-5.73 19.62-5.47 19.62-5.26C19.62-4.55 20.07-4.13 20.82-4.13ZM2.99-10.72C2.99-10.04 3.55-9.48 4.22-9.48L12.67-9.48C12.68-10.29 12.74-11.12 12.83-11.95L4.22-11.95C3.55-11.95 2.99-11.40 2.99-10.72ZM22.95-8.36L23.94-11.68L24.06-11.68L25.04-8.36ZM2.99-6.20C2.99-5.52 3.55-4.97 4.22-4.97L12.83-4.97C12.74-5.81 12.69-6.63 12.67-7.44L4.22-7.44C3.55-7.44 2.99-6.87 2.99-6.20ZM2.99-1.69C2.99-1.01 3.55-0.46 4.22-0.46L13.80-0.45C13.54-1.14 13.30-2.10 13.14-2.92L4.22-2.92C3.55-2.92 2.99-2.36 2.99-1.69Z" fill="currentColor"/>
</svg>