<svg xmlns="http://www.w3.org/2000/svg" viewBox="0 0 24 24" width="24" height="24">
  <title>b.circle</title>
  <path transform="matrix(0.8080808080808081, 0, 0, 0.8080808080808081, 0.30492424242424243, 18.83712121212121)" d="M14.47 3.91C21.30 3.91 26.85-1.63 26.85-8.46C26.85-15.29 21.30-20.84 14.47-20.84C7.64-20.84 2.10-15.29 2.10-8.46C2.10-1.63 7.64 3.91 14.47 3.91ZM14.47 0.83C9.34 0.83 5.18-3.33 5.18-8.46C5.18-13.61 9.34-17.75 14.47-17.75C19.62-17.75 23.77-13.61 23.77-8.46C23.77-3.33 19.62 0.83 14.47 0.83ZM11.81-3.27L15.41-3.27C17.64-3.27 19.14-4.43 19.14-6.16C19.14-7.62 18.21-8.59 16.64-8.79L16.64-8.87C17.85-9.11 18.63-10.01 18.63-11.17C18.63-12.75 17.36-13.75 15.32-13.75L11.81-13.75C10.76-13.75 10.20-13.18 10.20-12.13L10.20-4.89C10.20-3.83 10.75-3.27 11.81-3.27ZM12.86-9.48L12.86-11.95L14.51-11.95C15.42-11.95 16.00-11.48 16.00-10.75C16.00-9.94 15.36-9.48 14.21-9.48ZM12.84-5.16L12.84-7.88L14.63-7.88C15.70-7.88 16.35-7.36 16.35-6.50C16.35-5.60 15.68-5.16 14.31-5.16Z" fill="currentColor"/>
</svg>