<svg xmlns="http://www.w3.org/2000/svg" viewBox="0 0 24 24" width="24" height="24">
  <title>backward.end.fill</title>
  <path transform="matrix(0.8268733850129198, 0, 0, 0.8268733850129198, -0.4709302325581395, 18.996124031007753)" d="M7.76 1.36C9.02 1.36 9.63 0.73 9.63-0.53L9.63-7.89C9.82-7.31 10.32-6.87 11.09-6.43L23.85 1.01C24.30 1.27 24.77 1.39 25.22 1.39C26.29 1.39 27.18 0.66 27.18-0.79L27.18-16.14C27.18-17.59 26.29-18.32 25.22-18.32C24.77-18.32 24.30-18.20 23.85-17.93L11.09-10.50C10.32-10.05 9.82-9.61 9.63-9.04L9.63-16.41C9.63-17.65 9-18.29 7.76-18.29L4.86-18.29C3.62-18.29 2.99-17.65 2.99-16.41L2.99-0.53C2.99 0.73 3.62 1.36 4.86 1.36Z" fill="currentColor"/>
</svg>