<svg xmlns="http://www.w3.org/2000/svg" viewBox="0 0 24 24" width="24" height="24">
  <title>backward.end.alt</title>
  <path transform="matrix(0.517015045945673, 0, 0, 0.517015045945673, 0.4550136322326568, 16.37443199030597)" d="M4.77 1.39C5.80 1.39 6.55 0.66 6.55-0.34L6.55-7.89C6.75-7.31 7.24-6.87 8.00-6.43L20.77 1.01C21.22 1.27 21.69 1.39 22.15 1.39C23.20 1.39 24.09 0.66 24.09-0.79L24.09-7.98C24.26-7.36 24.77-6.89 25.57-6.43L38.34 1.01C38.79 1.27 39.26 1.39 39.71 1.39C40.77 1.39 41.67 0.66 41.67-0.79L41.67-16.14C41.67-17.59 40.77-18.32 39.71-18.32C39.26-18.32 38.79-18.20 38.34-17.93L25.57-10.50C24.77-10.03 24.26-9.57 24.09-8.94L24.09-16.14C24.09-17.59 23.20-18.32 22.15-18.32C21.69-18.32 21.22-18.20 20.77-17.93L8.00-10.50C7.24-10.05 6.75-9.61 6.55-9.04L6.55-16.59C6.55-17.58 5.80-18.32 4.77-18.32C3.74-18.32 2.99-17.58 2.99-16.59L2.99-0.34C2.99 0.66 3.74 1.39 4.77 1.39ZM38.64-2.70C38.64-2.53 38.54-2.43 38.40-2.43C38.36-2.43 38.31-2.45 38.25-2.47L28.31-8.25C28.21-8.31 28.17-8.39 28.17-8.46C28.17-8.54 28.21-8.63 28.31-8.67L38.25-14.45C38.31-14.48 38.36-14.50 38.40-14.50C38.54-14.50 38.64-14.39 38.64-14.24ZM21.07-2.70C21.07-2.53 20.98-2.43 20.84-2.43C20.79-2.43 20.73-2.45 20.68-2.47L10.75-8.25C10.64-8.31 10.61-8.39 10.61-8.46C10.61-8.54 10.64-8.63 10.75-8.67L20.68-14.45C20.73-14.48 20.79-14.50 20.84-14.50C20.98-14.50 21.07-14.39 21.07-14.24Z" fill="currentColor"/>
</svg>