<svg xmlns="http://www.w3.org/2000/svg" viewBox="0 0 24 24" width="24" height="24">
  
  <path transform="matrix(0.8035153797865662, 0, 0, 0.8035153797865662, 0.8229755178907721, 18.7984934086629)" d="M7.13 3.98L20.89 3.98C23.38 3.98 24.83 2.53 24.83-0.13L24.83-12.22C24.83-14.87 23.37-16.34 20.70-16.34L19.15-16.34C18.88-19.00 16.76-20.91 13.91-20.91C11.07-20.91 8.94-19.00 8.67-16.34L7.13-16.34C4.45-16.34 2.99-14.88 2.99-12.22L2.99-0.13C2.99 2.53 4.45 3.98 7.13 3.98ZM13.91-18.40C15.16-18.40 16.09-17.57 16.31-16.34L11.52-16.34C11.74-17.57 12.66-18.40 13.91-18.40Z" fill="currentColor"/>
</svg>