<svg xmlns="http://www.w3.org/2000/svg" viewBox="0 0 24 24" width="24" height="24">
  
  <path transform="matrix(0.7114075309156593, 0, 0, 0.7114075309156593, -0.12588578574406029, 18.019174656106713)" d="M5.05 1.68L29.23 1.68L29.23 0.63C29.23 0.04 28.86-0.30 28.28-0.30L27.73-0.30L27.73-13.07L28.69-13.07C29.54-13.07 30.05-13.70 30.05-14.33C30.05-14.80 29.79-15.22 29.24-15.55L18.79-21.57C18.27-21.87 17.68-22.04 17.13-22.04C16.58-22.04 16.00-21.87 15.49-21.57L5.04-15.55C4.48-15.22 4.23-14.80 4.23-14.33C4.23-13.70 4.72-13.07 5.58-13.07L6.55-13.07L6.55-0.30L6-0.30C5.41-0.30 5.05 0.04 5.05 0.63ZM8.82-0.30L8.82-14.75L16.82-19.23C16.91-19.29 17.04-19.32 17.13-19.32C17.24-19.32 17.36-19.29 17.46-19.23L25.45-14.75L25.45-0.30ZM14.63-3.69L16.65-3.69L16.65-2.78C16.65-2.57 16.79-2.43 17.00-2.43C17.21-2.43 17.34-2.57 17.34-2.78L17.34-3.69L17.81-3.69C19.78-3.69 21.33-4.65 21.33-6.56C21.33-7.95 20.29-8.89 18.91-9.01L18.91-9.07C20.02-9.22 20.84-10.17 20.84-11.27C20.84-13.03 19.34-13.79 17.73-13.79L17.34-13.79L17.34-14.78C17.34-14.99 17.21-15.13 17.00-15.13C16.79-15.13 16.65-14.99 16.65-14.78L16.65-13.79L14.63-13.79C13.89-13.79 13.50-13.34 13.50-12.63L13.50-4.84C13.50-4.15 13.90-3.69 14.63-3.69ZM15.52-9.57L15.52-12.26L16.65-12.26L16.65-9.57ZM18.87-10.96C18.87-10.07 18.21-9.66 17.34-9.59L17.34-12.26C18.22-12.23 18.87-11.84 18.87-10.96ZM15.52-5.21L15.52-8.20L16.65-8.20L16.65-5.21ZM19.23-6.73C19.23-5.64 18.45-5.21 17.34-5.21L17.34-8.20C18.41-8.19 19.23-7.80 19.23-6.73ZM4.27 5.12L29.82 5.12C30.50 5.12 31.10 4.56 31.10 3.84C31.10 3.15 30.50 2.58 29.82 2.58L4.27 2.58C3.57 2.58 2.99 3.15 2.99 3.84C2.99 4.55 3.57 5.12 4.27 5.12Z" fill="currentColor"/>
</svg>