<svg xmlns="http://www.w3.org/2000/svg" viewBox="0 0 24 24" width="24" height="24">
  
  <path transform="matrix(0.7531626949102678, 0, 0, 0.7531626949102678, 0.42453662842012374, 18.372462488967344)" d="M15.38 4.82C22.68 4.82 28.64-1.15 28.64-8.46C28.64-15.77 22.68-21.74 15.38-21.74C8.06-21.74 2.10-15.77 2.10-8.46C2.10-1.15 8.06 4.82 15.38 4.82ZM15.38 0.19C10.59 0.19 6.73-3.68 6.73-8.46C6.73-13.24 10.59-17.11 15.38-17.11C20.14-17.11 24.01-13.24 24.01-8.46C24.01-3.68 20.14 0.19 15.38 0.19ZM12.86-3.45L14.88-3.45L14.88-2.53C14.88-2.32 15.02-2.18 15.23-2.18C15.45-2.18 15.57-2.32 15.57-2.53L15.57-3.45L16.04-3.45C18.01-3.45 19.56-4.41 19.56-6.32C19.56-7.70 18.52-8.66 17.13-8.77L17.13-8.82C18.25-8.98 19.07-9.94 19.07-11.03C19.07-12.79 17.57-13.55 15.96-13.55L15.57-13.55L15.57-14.53C15.57-14.75 15.45-14.88 15.23-14.88C15.02-14.88 14.88-14.75 14.88-14.53L14.88-13.55L12.86-13.55C12.12-13.55 11.73-13.09 11.73-12.39L11.73-4.59C11.73-3.90 12.13-3.45 12.86-3.45ZM13.75-9.33L13.75-12.02L14.88-12.02L14.88-9.33ZM17.10-10.71C17.10-9.82 16.44-9.42 15.57-9.34L15.57-12.01C16.45-11.99 17.10-11.59 17.10-10.71ZM13.75-4.97L13.75-7.97L14.88-7.97L14.88-4.97ZM17.45-6.48C17.45-5.39 16.68-4.97 15.57-4.97L15.57-7.97C16.64-7.95 17.45-7.56 17.45-6.48Z" fill="currentColor"/>
</svg>