<svg xmlns="http://www.w3.org/2000/svg" viewBox="0 0 24 24" width="24" height="24">
  
  <path transform="matrix(0.8080808080808081, 0, 0, 0.8080808080808081, 0.30492424242424243, 18.83712121212121)" d="M14.47 3.91C21.30 3.91 26.85-1.63 26.85-8.46C26.85-15.29 21.30-20.84 14.47-20.84C7.64-20.84 2.10-15.29 2.10-8.46C2.10-1.63 7.64 3.91 14.47 3.91ZM14.48-2.11C14.21-2.11 13.96-2.13 13.69-2.17C13.83-2.64 13.93-3.14 13.99-3.63L14.24-3.63C14.50-3.63 14.70-3.84 14.71-4.10C14.71-4.35 14.51-4.57 14.25-4.57L14.00-4.57C13.99-4.88 13.96-5.19 13.90-5.48L14.13-5.55C14.38-5.60 14.52-5.87 14.45-6.13C14.39-6.38 14.13-6.50 13.89-6.46L13.68-6.38C13.58-6.69 13.46-6.98 13.32-7.27L13.56-7.41C13.80-7.54 13.85-7.83 13.73-8.03C13.59-8.27 13.31-8.34 13.10-8.21L12.86-8.09C12.67-8.37 12.45-8.61 12.23-8.86L12.43-9.08C12.63-9.27 12.61-9.54 12.43-9.71C12.23-9.91 11.96-9.90 11.79-9.74L11.55-9.52C11.34-9.68 11.12-9.87 10.88-10.01L10.99-10.20C11.11-10.43 11.04-10.71 10.80-10.82C10.58-10.96 10.30-10.88 10.18-10.66L10.05-10.45C9.61-10.68 9.15-10.83 8.66-10.95C9.63-13.20 11.88-14.80 14.47-14.80C14.73-14.80 14.98-14.78 15.22-14.75C15.09-14.26 14.99-13.77 14.93-13.28L14.71-13.28C14.45-13.28 14.25-13.07 14.25-12.81C14.24-12.56 14.43-12.35 14.70-12.35L14.92-12.34C14.93-12.06 14.96-11.78 15.01-11.50L14.71-11.43C14.45-11.34 14.32-11.09 14.39-10.85C14.45-10.62 14.67-10.44 14.94-10.52L15.23-10.59C15.32-10.29 15.46-9.97 15.60-9.66L15.36-9.53C15.15-9.41 15.09-9.13 15.20-8.91C15.33-8.68 15.61-8.60 15.83-8.73L16.05-8.87C16.24-8.59 16.43-8.36 16.65-8.10L16.50-7.95C16.32-7.77 16.32-7.49 16.52-7.30C16.69-7.15 16.97-7.11 17.16-7.30L17.32-7.46C17.55-7.27 17.81-7.08 18.07-6.93L17.96-6.71C17.84-6.48 17.91-6.20 18.12-6.08C18.34-5.94 18.63-6.04 18.76-6.26L18.88-6.48C19.34-6.27 19.82-6.11 20.32-6C19.35-3.73 17.09-2.11 14.48-2.11ZM20.82-8.45C20.82-7.88 20.75-7.32 20.59-6.80C20.16-6.89 19.72-7.02 19.30-7.22L19.39-7.38C19.52-7.62 19.44-7.89 19.22-8.02C19.00-8.14 18.71-8.06 18.60-7.83L18.50-7.66C18.30-7.78 18.12-7.93 17.94-8.07L18.08-8.23C18.28-8.43 18.23-8.72 18.08-8.87C17.89-9.05 17.63-9.08 17.41-8.87L17.29-8.74C17.13-8.92 16.98-9.11 16.84-9.32L16.96-9.39C17.17-9.50 17.25-9.75 17.12-10.00C17.02-10.23 16.72-10.32 16.50-10.18L16.38-10.11C16.27-10.36 16.17-10.59 16.08-10.82L16.21-10.86C16.46-10.92 16.59-11.18 16.52-11.41C16.45-11.66 16.23-11.81 15.96-11.74L15.87-11.73C15.83-11.93 15.81-12.13 15.79-12.34L16.01-12.33C16.25-12.33 16.45-12.53 16.45-12.79C16.45-13.04 16.27-13.25 16.01-13.27L15.79-13.27C15.84-13.72 15.93-14.16 16.07-14.59C18.79-13.89 20.82-11.39 20.82-8.45ZM8.14-8.45C8.14-9.05 8.21-9.60 8.38-10.14C8.81-10.03 9.23-9.90 9.64-9.70L9.55-9.53C9.41-9.28 9.50-9 9.73-8.88C9.94-8.77 10.21-8.82 10.35-9.07L10.44-9.25C10.62-9.14 10.78-9.01 10.95-8.88L10.85-8.81C10.69-8.63 10.69-8.33 10.88-8.16C11.06-7.98 11.34-7.97 11.53-8.14L11.60-8.23C11.78-8.05 11.93-7.84 12.08-7.64L11.96-7.57C11.74-7.44 11.67-7.14 11.81-6.94C11.93-6.71 12.19-6.63 12.42-6.75L12.54-6.83C12.64-6.61 12.74-6.39 12.82-6.16L12.63-6.12C12.39-6.05 12.25-5.79 12.32-5.54C12.38-5.30 12.63-5.16 12.87-5.21L13.05-5.27C13.10-5.04 13.13-4.82 13.14-4.58L12.95-4.58C12.69-4.59 12.49-4.37 12.49-4.13C12.49-3.86 12.70-3.66 12.95-3.64L13.13-3.64C13.08-3.20 13.00-2.77 12.86-2.33C10.16-3.08 8.14-5.55 8.14-8.45Z" fill="currentColor"/>
</svg>