<svg xmlns="http://www.w3.org/2000/svg" viewBox="0 0 24 24" width="24" height="24">
  <title>base.unit</title>
  <path transform="matrix(0.8765622324944359, 0, 0, 0.8765622324944359, -0.6194144838212634, 19.452491011813045)" d="M4.69-0.25C5.70-0.25 6.39-0.95 6.39-2.00L6.39-6.80L22.41-6.80L22.41-2.00C22.41-0.95 23.10-0.25 24.11-0.25C25.13-0.25 25.80-0.95 25.80-2.00L25.80-15C25.80-16.05 25.13-16.76 24.11-16.76C23.10-16.76 22.41-16.05 22.41-15L22.41-10.20L6.39-10.20L6.39-15C6.39-16.05 5.70-16.76 4.69-16.76C3.67-16.76 2.99-16.05 2.99-15L2.99-2.00C2.99-0.95 3.67-0.25 4.69-0.25Z" fill="currentColor"/>
</svg>