<svg xmlns="http://www.w3.org/2000/svg" viewBox="0 0 24 24" width="24" height="24">
  <title>baseball</title>
  <path transform="matrix(0.8080808080808081, 0, 0, 0.8080808080808081, 0.30492424242424243, 18.83712121212121)" d="M14.47 3.91C21.30 3.91 26.85-1.63 26.85-8.46C26.85-15.29 21.30-20.84 14.47-20.84C7.64-20.84 2.10-15.29 2.10-8.46C2.10-1.63 7.64 3.91 14.47 3.91ZM14.47 1.54C14.10 1.54 13.72 1.51 13.35 1.46C13.51 0.83 13.62 0.18 13.68-0.48L14.07-0.48C14.45-0.47 14.75-0.79 14.75-1.16C14.75-1.52 14.45-1.83 14.09-1.84L13.71-1.84C13.69-2.43 13.62-3.01 13.51-3.59L13.86-3.68C14.23-3.77 14.44-4.15 14.34-4.50C14.23-4.90 13.86-5.09 13.51-4.99L13.18-4.91C13.01-5.47 12.77-6.04 12.50-6.57L12.88-6.79C13.23-6.98 13.31-7.41 13.13-7.70C12.93-8.05 12.52-8.14 12.21-7.97L11.82-7.75C11.47-8.29 11.07-8.79 10.65-9.25L10.98-9.57C11.26-9.87 11.23-10.28 10.97-10.51C10.69-10.79 10.28-10.79 10.02-10.54L9.67-10.18C9.25-10.54 8.81-10.86 8.36-11.14L8.52-11.44C8.71-11.77 8.60-12.16 8.27-12.34C7.92-12.54 7.51-12.43 7.34-12.11L7.16-11.80C6.57-12.08 5.96-12.32 5.33-12.49C6.88-16.01 10.39-18.46 14.47-18.46C14.82-18.46 15.18-18.43 15.53-18.40C15.36-17.77 15.26-17.11 15.20-16.45L14.85-16.45C14.46-16.45 14.17-16.15 14.17-15.76C14.14-15.41 14.44-15.09 14.82-15.09L15.18-15.09C15.20-14.54 15.26-14.00 15.35-13.46L14.87-13.34C14.48-13.23 14.30-12.86 14.41-12.50C14.48-12.16 14.82-11.93 15.21-12.04L15.67-12.15C15.86-11.54 16.09-10.96 16.38-10.38L16.00-10.16C15.68-9.98 15.59-9.57 15.77-9.25C15.94-8.93 16.35-8.79 16.68-9L17.05-9.21C17.39-8.70 17.77-8.23 18.16-7.78L17.93-7.54C17.67-7.30 17.66-6.88 17.94-6.59C18.19-6.35 18.61-6.32 18.89-6.59L19.14-6.84C19.59-6.46 20.06-6.11 20.57-5.80L20.39-5.48C20.19-5.16 20.31-4.75 20.64-4.56C20.95-4.37 21.39-4.49 21.56-4.82L21.75-5.16C22.36-4.86 22.98-4.63 23.63-4.45C22.08-0.93 18.56 1.54 14.47 1.54ZM18.57-10.09C18.88-10.27 19.01-10.63 18.82-11.00C18.64-11.33 18.22-11.46 17.91-11.26L17.71-11.14C17.48-11.60 17.30-12.07 17.14-12.54L17.32-12.59C17.72-12.69 17.89-13.07 17.79-13.39C17.72-13.75 17.37-13.99 16.97-13.89L16.82-13.84C16.75-14.25 16.70-14.66 16.68-15.07L17.02-15.06C17.38-15.06 17.67-15.34 17.67-15.73C17.70-16.09 17.39-16.41 17.00-16.42L16.69-16.42C16.73-17.00 16.83-17.58 16.97-18.14C21.28-17.03 24.47-13.11 24.47-8.46C24.47-7.56 24.35-6.68 24.12-5.84C23.55-5.99 23.00-6.20 22.48-6.45L22.63-6.70C22.82-7.04 22.69-7.44 22.37-7.63C22.04-7.82 21.63-7.71 21.46-7.38L21.29-7.10C20.92-7.34 20.57-7.61 20.21-7.91L20.44-8.12C20.72-8.44 20.67-8.86 20.41-9.09C20.18-9.34 19.77-9.38 19.46-9.09L19.24-8.86C18.94-9.21 18.64-9.59 18.39-9.98ZM11.89-0.50L12.19-0.50C12.13 0.07 12.04 0.63 11.89 1.20C7.63 0.06 4.48-3.84 4.48-8.46C4.48-9.38 4.61-10.27 4.84-11.11C5.39-10.95 5.93-10.75 6.45-10.50L6.28-10.21C6.08-9.86 6.21-9.45 6.54-9.28C6.87-9.11 7.25-9.18 7.44-9.53L7.62-9.83C7.96-9.62 8.29-9.38 8.60-9.11L8.47-8.99C8.20-8.72 8.20-8.27 8.48-8.03C8.77-7.76 9.16-7.75 9.43-8.03L9.57-8.17C9.90-7.80 10.21-7.42 10.49-7.00L10.31-6.89C9.96-6.71 9.87-6.27 10.07-5.96C10.25-5.66 10.62-5.52 10.97-5.71L11.17-5.81C11.38-5.39 11.55-4.96 11.71-4.52L11.40-4.44C11.04-4.35 10.83-3.97 10.93-3.62C11.03-3.22 11.40-3.02 11.75-3.13L12.05-3.21C12.13-2.75 12.19-2.31 12.21-1.86L11.91-1.86C11.53-1.86 11.23-1.56 11.23-1.20C11.23-0.80 11.54-0.52 11.89-0.50Z" fill="currentColor"/>
</svg>