<svg xmlns="http://www.w3.org/2000/svg" viewBox="0 0 24 24" width="24" height="24">
  
  <path transform="matrix(0.8080808080808081, 0, 0, 0.8080808080808081, 0.30492424242424243, 18.83712121212121)" d="M14.47 3.91C21.30 3.91 26.85-1.63 26.85-8.46C26.85-15.29 21.30-20.84 14.47-20.84C7.64-20.84 2.10-15.29 2.10-8.46C2.10-1.63 7.64 3.91 14.47 3.91ZM14.47 0.83C9.34 0.83 5.18-3.33 5.18-8.46C5.18-13.61 9.34-17.75 14.47-17.75C19.62-17.75 23.77-13.61 23.77-8.46C23.77-3.33 19.62 0.83 14.47 0.83ZM12.38-11.53C12.61-11.65 12.84-11.73 13.09-11.82C13.07-11.93 13.07-12.04 13.07-12.18C13.07-13.09 13.55-13.93 14.44-14.44C14.02-14.43 13.23-14.32 12.70-14.14C12.42-13.45 12.28-12.67 12.38-11.53ZM13.95-12.06C14.63-12.23 15.34-12.32 16.07-12.32C17.27-12.32 18.48-12.07 19.51-11.64C18.70-12.91 17.40-13.88 15.90-14.26C14.58-13.89 13.90-13.00 13.95-12.06ZM11.16-10.90C11.30-10.98 11.44-11.06 11.59-11.16C11.47-12.11 11.48-12.96 11.73-13.77C11.09-13.43 10.50-12.97 10.01-12.43C10.63-12.27 11.02-11.53 11.16-10.90ZM8.50-8.40C9.02-9.13 9.64-9.79 10.37-10.34C10.36-10.93 10.05-11.58 9.49-11.75C8.86-10.80 8.45-9.43 8.50-8.40ZM14.21-11.25C15.25-9.53 19.01-8.65 19.92-6C20.26-6.75 20.46-7.58 20.46-8.46C20.46-9.13 20.34-9.77 20.11-10.37C18.83-11.10 17.53-11.45 16.07-11.45C15.43-11.45 14.81-11.39 14.21-11.25ZM12.49-10.65C12.88-8.50 13.99-5.53 16.36-2.78C17.54-3.18 18.57-3.93 19.29-4.93C18.98-7.88 14.46-8.70 13.34-10.99C13.04-10.91 12.77-10.79 12.49-10.65ZM11.21-9.91C11.18-7.36 10.11-4.90 12.46-2.87C13.08-2.61 13.76-2.47 14.47-2.47C14.80-2.47 15.12-2.48 15.43-2.54C13.28-5.17 12.15-8.00 11.73-10.24C11.54-10.14 11.38-10.02 11.21-9.91ZM8.66-7.08C8.95-5.87 9.62-4.80 10.52-3.98C9.82-5.54 10.16-7.46 10.30-9.14C9.67-8.54 9.13-7.88 8.66-7.08Z" fill="currentColor"/>
</svg>