<svg xmlns="http://www.w3.org/2000/svg" viewBox="0 0 24 24" width="24" height="24">
  <title>beats.earphones</title>
  <path transform="matrix(0.6474456246838645, 0, 0, 0.6474456246838645, 0.06525037936267064, 17.46661608497724)" d="M11.09 3.76L13.29 3.76L13.29-6.76C13.97-6.90 14.38-7.38 14.38-8.13L14.38-10.00C16.36-10.85 17.74-12.84 17.74-15.11C17.74-18.18 15.20-20.65 12.19-20.65C11.65-20.65 11.16-20.60 10.72-20.46L10.72-17.32C11.16-17.64 11.66-17.81 12.19-17.81C13.63-17.81 14.86-16.57 14.86-15.11C14.86-13.65 13.66-12.47 12.19-12.47C10.69-12.47 9.53-13.62 9.53-15.11L9.53-19.99C7.76-19.00 6.63-17.17 6.63-15.11C6.63-12.80 8.02-10.83 10.00-10.00L10.00-8.13C10.00-7.39 10.43-6.90 11.09-6.76ZM25.78 3.76L25.78-6.76C26.45-6.90 26.87-7.39 26.87-8.13L26.87-10.00C28.85-10.85 30.23-12.84 30.23-15.11C30.23-18.18 27.69-20.65 24.68-20.65C24.14-20.65 23.65-20.60 23.21-20.46L23.21-17.32C23.65-17.64 24.15-17.81 24.68-17.81C26.12-17.81 27.35-16.57 27.35-15.11C27.35-13.65 26.16-12.47 24.68-12.47C23.18-12.47 22.02-13.62 22.02-15.11L22.02-19.99C20.25-19.00 19.13-17.17 19.13-15.11C19.13-12.80 20.51-10.83 22.49-10.00L22.49-8.13C22.49-7.38 22.90-6.90 23.58-6.76L23.58 3.76ZM5.46-15.09C5.46-17.26 6.48-19.18 8.06-20.40C5.20-20.24 2.99-17.96 2.99-15.09C2.99-12.22 5.19-9.93 8.09-9.77C6.49-11.00 5.46-12.93 5.46-15.09ZM31.41-15.09C31.41-12.93 30.38-11.00 28.78-9.77C31.66-9.93 33.88-12.21 33.88-15.09C33.88-17.95 31.69-20.24 28.80-20.40C30.39-19.18 31.41-17.26 31.41-15.09ZM12.19-13.63C12.97-13.63 13.64-14.32 13.64-15.11C13.64-15.86 12.96-16.56 12.19-16.56C11.43-16.56 10.73-15.88 10.73-15.11C10.73-14.31 11.40-13.63 12.19-13.63ZM24.68-13.63C25.46-13.63 26.14-14.32 26.14-15.11C26.14-15.86 25.45-16.56 24.68-16.56C23.92-16.56 23.23-15.88 23.23-15.11C23.23-14.31 23.89-13.63 24.68-13.63Z" fill="currentColor"/>
</svg>