<svg xmlns="http://www.w3.org/2000/svg" viewBox="0 0 24 24" width="24" height="24">
  
  <path transform="matrix(0.7223088754132324, 0, 0, 0.7223088754132324, 3.2264865308693507, 18.177246568440133)" d="M9.35 4.72L20.82-9.71C21.05-10.00 21.16-10.27 21.16-10.57C21.16-11.11 20.74-11.51 20.18-11.51L13.36-11.51L16.79-20.82C17.31-22.24 15.84-22.98 14.93-21.83L3.47-7.39C3.25-7.11 3.13-6.83 3.13-6.54C3.13-5.99 3.54-5.60 4.11-5.60L10.93-5.60L7.50 3.71C6.98 5.13 8.45 5.88 9.35 4.72ZM14.26-7.75L6.88-7.75L13.11-15.96L10.03-9.36L17.41-9.36L11.18-1.15Z" fill="currentColor"/>
</svg>