<svg xmlns="http://www.w3.org/2000/svg" viewBox="0 0 24 24" width="24" height="24">
  <title>bolt.batteryblock.fill</title>
  <path transform="matrix(0.7149839407903924, 0, 0, 0.7149839407903924, -0.13657310431504, 18.04105571847507)" d="M7.13 2.00L26.82 2.00C29.51 2.00 30.96 0.55 30.96-2.11L30.96-11.59C30.96-14.25 29.51-15.70 26.82-15.70L25.71-15.70L25.71-17.02C25.71-18.20 25.03-18.90 23.85-18.90L22.03-18.90C20.86-18.90 20.17-18.20 20.17-17.02L20.17-15.70L13.78-15.70L13.78-17.02C13.78-18.20 13.09-18.90 11.92-18.90L10.10-18.90C8.92-18.90 8.24-18.20 8.24-17.02L8.24-15.70L7.13-15.70C4.45-15.70 2.99-14.25 2.99-11.59L2.99-2.11C2.99 0.55 4.45 2.00 7.13 2.00ZM13.63-6.22C13.63-6.35 13.69-6.47 13.77-6.57L18.07-11.84C18.46-12.32 19.09-11.98 18.87-11.39L17.51-7.80L20.06-7.80C20.30-7.80 20.50-7.62 20.50-7.38C20.50-7.25 20.44-7.13 20.34-7.03L16.07-1.77C15.68-1.29 15.05-1.63 15.26-2.21L16.62-5.81L14.07-5.81C13.83-5.81 13.63-5.99 13.63-6.22Z" fill="currentColor"/>
</svg>