<svg xmlns="http://www.w3.org/2000/svg" viewBox="0 0 24 24" width="24" height="24">
  <title>books.vertical.circle.fill</title>
  <path transform="matrix(0.8080808080808081, 0, 0, 0.8080808080808081, 0.30492424242424243, 18.827651515151516)" d="M14.47 3.93C21.30 3.93 26.85-1.62 26.85-8.45C26.85-15.28 21.30-20.82 14.47-20.82C7.64-20.82 2.10-15.28 2.10-8.45C2.10-1.62 7.64 3.93 14.47 3.93ZM15.29-3.73L15.29-13.62C15.29-14.18 15.60-14.50 16.16-14.50L17.25-14.50C17.81-14.50 18.13-14.18 18.13-13.62L18.13-12.68L19.07-12.90C19.62-13.02 19.99-12.75 20.10-12.20L21.69-4.05C21.80-3.50 21.55-3.12 21.01-3.01L20.31-2.86C19.77-2.74 19.38-3.01 19.29-3.54L18.13-9.36L18.13-3.73C18.13-3.18 17.81-2.86 17.25-2.86L16.16-2.86C15.60-2.86 15.29-3.18 15.29-3.73ZM7.52-3.73L7.52-12.12C7.52-12.66 7.85-12.98 8.41-12.98L9.36-12.98C9.90-12.98 10.23-12.66 10.23-12.12L10.23-3.73C10.23-3.18 9.90-2.86 9.36-2.86L8.41-2.86C7.85-2.86 7.52-3.18 7.52-3.73ZM10.96-3.73L10.96-10.17C10.96-10.72 11.27-11.05 11.84-11.05L13.69-11.05C14.24-11.05 14.55-10.72 14.55-10.17L14.55-3.73C14.55-3.18 14.24-2.86 13.69-2.86L11.84-2.86C11.27-2.86 10.96-3.18 10.96-3.73ZM11.86-9.36C11.86-9.15 12.02-8.98 12.25-8.98L13.29-8.98C13.52-8.98 13.69-9.16 13.69-9.36C13.69-9.59 13.55-9.77 13.29-9.77L12.25-9.77C12.02-9.77 11.86-9.59 11.86-9.36ZM11.86-4.54C11.86-4.30 12.02-4.13 12.25-4.13L13.29-4.13C13.52-4.13 13.69-4.30 13.69-4.54C13.69-4.77 13.52-4.93 13.29-4.93L12.25-4.93C12.02-4.93 11.86-4.77 11.86-4.54Z" fill="currentColor"/>
</svg>