<svg xmlns="http://www.w3.org/2000/svg" viewBox="0 0 24 24" width="24" height="24">
  <title>brazilianrealsign.square.fill</title>
  <path transform="matrix(0.8926080892608089, 0, 0, 0.8926080892608089, -0.6673640167364017, 19.552301255230127)" d="M7.13 2.74L21.26 2.74C23.94 2.74 25.39 1.29 25.39-1.36L25.39-15.55C25.39-18.20 23.94-19.66 21.26-19.66L7.13-19.66C4.45-19.66 2.99-18.21 2.99-15.55L2.99-1.36C2.99 1.29 4.45 2.74 7.13 2.74ZM17.81-3.01C17.65-3.01 17.54-3.12 17.54-3.28L17.54-4.16C16.35-4.22 15.34-4.73 14.99-5.91C14.95-6.04 14.91-6.21 14.91-6.33C14.91-6.81 15.26-7.08 15.74-7.08C16.11-7.08 16.39-6.89 16.51-6.52C16.66-5.93 16.98-5.60 17.54-5.53L17.54-7.76L16.95-8.00C15.67-8.54 14.93-9.18 14.93-10.48C14.93-11.96 16.10-12.79 17.54-12.88L17.54-13.76C17.54-13.92 17.65-14.03 17.81-14.03C17.98-14.03 18.08-13.92 18.08-13.76L18.08-12.88C19.16-12.81 20.09-12.32 20.45-11.23C20.52-11.10 20.57-10.90 20.57-10.72C20.57-10.36 20.31-10.01 19.76-10.01C19.35-10.01 19.11-10.27 18.97-10.57C18.84-11.03 18.59-11.40 18.08-11.50L18.08-9.32L18.71-9.06C19.86-8.58 20.78-8.03 20.78-6.62C20.78-5.13 19.65-4.25 18.08-4.16L18.08-3.28C18.08-3.12 17.98-3.01 17.81-3.01ZM9.02-3.88C8.38-3.88 8.07-4.25 8.07-4.85L8.07-12.06C8.07-12.70 8.44-13.02 9-13.02L11.02-13.02C12.86-13.02 14.03-12.06 14.03-10.18C14.03-9.05 13.55-8.16 12.74-7.72L13.72-5.48C13.83-5.26 13.93-5.02 13.93-4.78C13.93-4.23 13.55-3.88 13.03-3.88C12.48-3.88 12.27-4.20 12.07-4.68L10.95-7.36L9.95-7.36L9.95-4.85C9.95-4.25 9.62-3.88 9.02-3.88ZM9.95-8.70L10.85-8.70C11.72-8.70 12.13-9.32 12.13-10.14C12.13-10.97 11.68-11.58 10.85-11.58L9.95-11.58ZM16.65-10.61C16.65-10.13 17.03-9.82 17.54-9.56L17.54-11.51C17.04-11.44 16.65-11.14 16.65-10.61ZM18.08-5.53C18.70-5.59 19.05-5.88 19.05-6.43C19.05-7.01 18.61-7.28 18.08-7.52Z" fill="currentColor"/>
</svg>