<svg xmlns="http://www.w3.org/2000/svg" viewBox="0 0 24 24" width="24" height="24">
  <title>briefcase.circle</title>
  <path transform="matrix(0.8080808080808081, 0, 0, 0.8080808080808081, 0.30492424242424243, 18.83712121212121)" d="M14.47 3.91C21.30 3.91 26.85-1.63 26.85-8.46C26.85-15.29 21.30-20.84 14.47-20.84C7.64-20.84 2.10-15.29 2.10-8.46C2.10-1.63 7.64 3.91 14.47 3.91ZM14.47 0.83C9.34 0.83 5.18-3.33 5.18-8.46C5.18-13.61 9.34-17.75 14.47-17.75C19.62-17.75 23.77-13.61 23.77-8.46C23.77-3.33 19.62 0.83 14.47 0.83ZM12.39-13.08C12.39-13.29 12.54-13.41 12.76-13.41L16.20-13.41C16.42-13.41 16.57-13.29 16.57-13.08L16.57-12.50L12.39-12.50ZM14.47-9.16C16.64-9.16 18.76-9.54 20.72-10.36L20.72-10.68C20.72-11.87 20.09-12.50 18.88-12.50L17.88-12.50L17.88-13.13C17.88-14.05 17.30-14.59 16.28-14.59L12.67-14.59C11.66-14.59 11.07-14.05 11.07-13.13L11.07-12.50L10.07-12.50C8.87-12.50 8.23-11.87 8.23-10.68L8.23-10.36C10.20-9.54 12.32-9.16 14.47-9.16ZM10.07-3.56L18.88-3.56C20.09-3.56 20.72-4.20 20.72-5.39L20.72-9.13C19.00-8.50 17.54-8.23 16.05-8.11L16.05-7.69C16.05-7.24 15.79-7.00 15.33-7.00L13.63-7.00C13.17-7.00 12.90-7.24 12.90-7.69L12.90-8.11C11.40-8.23 9.95-8.50 8.23-9.13L8.23-5.39C8.23-4.20 8.87-3.56 10.07-3.56Z" fill="currentColor"/>
</svg>