<svg xmlns="http://www.w3.org/2000/svg" viewBox="0 0 24 24" width="24" height="24">
  <title>bubble.right</title>
  <path transform="matrix(0.7407407407407407, 0, 0, 0.7407407407407407, -0.21354166666666652, 17.77690972222222)" d="M21.84 4.92C23.00 4.92 23.71 4.14 23.71 2.86L23.71 0.26L24.45 0.26C27.69 0.26 29.99-1.93 29.99-5.48L29.99-14.78C29.99-18.34 27.83-20.52 24.25-20.52L8.73-20.52C5.14-20.52 2.99-18.34 2.99-14.78L2.99-5.48C2.99-1.93 5.14 0.26 8.73 0.26L15.47 0.26L19.43 3.73C20.41 4.58 21.05 4.92 21.84 4.92ZM21.12 1.57L17.45-2.03C16.86-2.61 16.50-2.77 15.69-2.77L8.92-2.77C6.97-2.77 6.01-3.75 6.01-5.67L6.01-14.60C6.01-16.52 6.97-17.50 8.92-17.50L24.06-17.50C26.02-17.50 26.96-16.52 26.96-14.60L26.96-5.67C26.96-3.75 26.02-2.77 24.06-2.77L22.21-2.77C21.49-2.77 21.12-2.47 21.12-1.68Z" fill="currentColor"/>
</svg>