<svg xmlns="http://www.w3.org/2000/svg" viewBox="0 0 24 24" width="24" height="24">
  <title>bubble.left.and.exclamationmark.bubble.right</title>
  <path transform="matrix(0.5625137332454405, 0, 0, 0.5625137332454405, 0.3190507580751485, 16.74950560316414)" d="M21.84 0.88L25.08 0.88L28.98 4.22C29.85 4.97 30.66 5.41 31.38 5.41C32.52 5.41 33.22 4.59 33.22 3.36L33.22 0.88L33.40 0.88C36.64 0.88 38.54-1.01 38.54-4.16L38.54-11.33C38.54-14.60 36.55-16.57 33.19-16.57L29.17-16.57C29.17-20.12 27.01-22.30 23.43-22.30L8.73-22.30C5.14-22.30 2.99-20.12 2.99-16.56L2.99-7.28C2.99-3.71 5.29-1.52 8.53-1.52L8.86-1.52L8.86 1.08C8.86 2.36 9.56 3.14 10.72 3.14C11.52 3.14 12.15 2.80 13.14 1.95L17.09-1.52C17.92 0.01 19.56 0.88 21.84 0.88ZM11.45-3.46C11.45-4.25 11.07-4.55 10.36-4.55L8.92-4.55C6.96-4.55 6.01-5.53 6.01-7.45L6.01-16.38C6.01-18.30 6.96-19.28 8.92-19.28L23.24-19.28C25.11-19.28 26.07-18.38 26.14-16.57L21.84-16.57C18.48-16.57 16.49-14.60 16.49-11.33L16.49-4.54C15.93-4.49 15.60-4.30 15.12-3.82L11.45-0.21ZM22.28-2.02C20.40-2.02 19.44-3.01 19.44-4.82L19.45-10.88C19.45-12.68 20.40-13.69 22.28-13.69L32.75-13.69C34.63-13.69 35.59-12.68 35.59-10.88L35.59-4.82C35.59-3.01 34.63-2.02 32.75-2.02L31.80-2.02C31.13-2.02 30.64-1.58 30.64-0.81L30.64 2.20L26.99-1.17C26.43-1.71 25.75-2.02 25.08-2.02ZM27.39-6.67C28.07-6.67 28.45-7.04 28.50-7.76L28.66-11.10C28.70-11.85 28.16-12.38 27.38-12.38C26.59-12.38 26.06-11.86 26.10-11.10L26.26-7.75C26.31-7.04 26.70-6.67 27.39-6.67ZM27.39-3.01C28.22-3.01 28.79-3.53 28.79-4.28C28.79-5.04 28.21-5.55 27.39-5.55C26.53-5.55 25.97-5.04 25.97-4.28C25.97-3.53 26.54-3.01 27.39-3.01Z" fill="currentColor"/>
</svg>