<svg xmlns="http://www.w3.org/2000/svg" viewBox="0 0 24 24" width="24" height="24">
  <title>bubble.left.circle</title>
  <path transform="matrix(0.8080808080808081, 0, 0, 0.8080808080808081, 0.30492424242424243, 18.83712121212121)" d="M14.47 3.91C21.30 3.91 26.85-1.63 26.85-8.46C26.85-15.29 21.30-20.84 14.47-20.84C7.64-20.84 2.10-15.29 2.10-8.46C2.10-1.63 7.64 3.91 14.47 3.91ZM14.47 0.83C9.34 0.83 5.18-3.33 5.18-8.46C5.18-13.61 9.34-17.75 14.47-17.75C19.62-17.75 23.77-13.61 23.77-8.46C23.77-3.33 19.62 0.83 14.47 0.83ZM11.73-1.92C11.99-1.92 12.18-2.02 12.46-2.27L14.50-4.09L18.01-4.09C19.65-4.09 20.63-5.09 20.63-6.71L20.63-10.98C20.63-12.60 19.65-13.61 18.01-13.61L10.96-13.61C9.32-13.61 8.33-12.60 8.33-10.98L8.33-6.71C8.33-5.09 9.38-4.09 10.88-4.09L11.17-4.09L11.17-2.54C11.17-2.16 11.38-1.92 11.73-1.92Z" fill="currentColor"/>
</svg>