<svg xmlns="http://www.w3.org/2000/svg" viewBox="0 0 24 24" width="24" height="24">
  <title>building.2</title>
  <path transform="matrix(0.7006020799124247, 0, 0, 0.7006020799124247, 1.0435139573070615, 17.92775041050903)" d="M5.63 5.81L25.65 5.81C27.33 5.81 28.29 4.76 28.29 3L28.29-13.86C28.29-15.62 27.33-16.68 25.65-16.68L21.48-16.68L21.48-19.93C21.48-21.69 20.51-22.73 18.84-22.73L5.63-22.73C3.96-22.73 2.99-21.69 2.99-19.93L2.99 3C2.99 4.76 3.96 5.81 5.63 5.81ZM6.27 3C5.96 3 5.80 2.84 5.80 2.53L5.80-19.45C5.80-19.76 5.96-19.93 6.27-19.93L18.19-19.93C18.49-19.93 18.67-19.76 18.67-19.45L18.67 2.53C18.67 2.84 18.49 3 18.19 3L15.96 3L15.96-0.14C15.96-1.07 15.48-1.58 14.60-1.58L9.88-1.58C8.99-1.58 8.51-1.07 8.51-0.14L8.51 3ZM8.68-13.52L10.84-13.52C11.11-13.52 11.29-13.70 11.29-13.98L11.29-16.08C11.29-16.36 11.11-16.54 10.84-16.54L8.68-16.54C8.41-16.54 8.24-16.36 8.24-16.08L8.24-13.98C8.24-13.70 8.41-13.52 8.68-13.52ZM13.62-13.52L15.77-13.52C16.04-13.52 16.22-13.70 16.22-13.98L16.22-16.08C16.22-16.36 16.04-16.54 15.77-16.54L13.62-16.54C13.35-16.54 13.17-16.36 13.17-16.08L13.17-13.98C13.17-13.70 13.35-13.52 13.62-13.52ZM23.36-0.94C23.58-0.94 23.71-1.08 23.71-1.29L23.71-2.95C23.71-3.18 23.58-3.32 23.36-3.32L21.48-3.32L21.48-4.80L23.36-4.80C23.58-4.80 23.71-4.95 23.71-5.16L23.71-6.82C23.71-7.04 23.58-7.17 23.36-7.17L21.48-7.17L21.48-8.67L23.36-8.67C23.58-8.67 23.71-8.81 23.71-9.02L23.71-10.69C23.71-10.91 23.58-11.04 23.36-11.04L21.48-11.04L21.48-13.86L25.01-13.86C25.31-13.86 25.48-13.70 25.48-13.39L25.48 2.53C25.48 2.84 25.31 3 25.01 3L21.48 3L21.48-0.94ZM8.68-9.22L10.84-9.22C11.11-9.22 11.29-9.40 11.29-9.68L11.29-11.78C11.29-12.05 11.11-12.23 10.84-12.23L8.68-12.23C8.41-12.23 8.24-12.05 8.24-11.78L8.24-9.68C8.24-9.40 8.41-9.22 8.68-9.22ZM13.62-9.22L15.77-9.22C16.04-9.22 16.22-9.40 16.22-9.68L16.22-11.78C16.22-12.05 16.04-12.23 15.77-12.23L13.62-12.23C13.35-12.23 13.17-12.05 13.17-11.78L13.17-9.68C13.17-9.40 13.35-9.22 13.62-9.22ZM8.68-4.92L10.84-4.92C11.11-4.92 11.29-5.10 11.29-5.37L11.29-7.48C11.29-7.75 11.11-7.93 10.84-7.93L8.68-7.93C8.41-7.93 8.24-7.75 8.24-7.48L8.24-5.37C8.24-5.10 8.41-4.92 8.68-4.92ZM13.62-4.92L15.77-4.92C16.04-4.92 16.22-5.10 16.22-5.37L16.22-7.48C16.22-7.75 16.04-7.93 15.77-7.93L13.62-7.93C13.35-7.93 13.17-7.75 13.17-7.48L13.17-5.37C13.17-5.10 13.35-4.92 13.62-4.92ZM10.62 0.71C10.62 0.52 10.73 0.39 10.93 0.39L13.54 0.39C13.75 0.39 13.86 0.52 13.86 0.71L13.86 3L10.62 3Z" fill="currentColor"/>
</svg>