<svg xmlns="http://www.w3.org/2000/svg" viewBox="0 0 24 24" width="24" height="24">
  <title>burst</title>
  <path transform="matrix(0.6156806156806157, 0, 0, 0.6156806156806157, 0.528138528138528, 17.1984126984127)" d="M33.68-7.02C34.48-7.36 34.88-7.98 34.88-8.57C34.88-9.15 34.49-9.75 33.68-10.04L28.14-12.01L30.36-17.29C30.48-17.54 30.54-17.82 30.54-18.07C30.54-18.87 29.92-19.52 29.06-19.52C28.78-19.52 28.48-19.46 28.18-19.32L22.80-16.45L20.24-22.22C19.89-23.04 19.20-23.36 18.63-23.36C18.06-23.36 17.37-23.04 17.03-22.22L14.46-16.45L9.07-19.32C8.79-19.46 8.47-19.52 8.20-19.52C7.35-19.52 6.73-18.87 6.73-18.07C6.73-17.82 6.79-17.54 6.89-17.29L9.13-12.01L3.57-10.04C2.79-9.76 2.39-9.15 2.39-8.55C2.39-7.98 2.78-7.36 3.57-7.02L9-4.69L6.49 1.27C6.38 1.54 6.32 1.82 6.32 2.07C6.32 2.82 6.88 3.46 7.68 3.46C7.96 3.46 8.27 3.38 8.58 3.21L14.94-0.52L17.09 5.32C17.40 6.14 18.07 6.47 18.63 6.47C19.20 6.47 19.85 6.14 20.17 5.32L22.32-0.52L28.69 3.21C28.98 3.38 29.31 3.45 29.59 3.45C30.38 3.45 30.95 2.84 30.95 2.07C30.95 1.83 30.89 1.54 30.77 1.27L28.27-4.69ZM30.63-8.55L30.63-8.51L25.57-6.48C25.15-6.33 24.95-6.02 24.95-5.72C24.95-5.63 24.97-5.50 25.02-5.40L27.62-0.15L27.57-0.11L21.83-3.62C21.68-3.71 21.47-3.82 21.26-3.82C21-3.82 20.74-3.66 20.65-3.35L18.66 2.75L18.61 2.75L16.62-3.35C16.51-3.66 16.25-3.82 16.00-3.82C15.80-3.82 15.59-3.71 15.43-3.62L9.69-0.09L9.66-0.14L12.23-5.40C12.28-5.50 12.32-5.63 12.32-5.72C12.32-6.02 12.11-6.33 11.68-6.48L6.62-8.51L6.62-8.55L11.81-10.21C12.25-10.35 12.46-10.64 12.46-10.96C12.46-11.05 12.43-11.19 12.38-11.29L9.94-16.07L9.97-16.10L14.91-13.41C15.06-13.32 15.26-13.22 15.46-13.22C15.71-13.22 15.96-13.37 16.08-13.65L18.60-19.88L18.66-19.88L21.19-13.65C21.29-13.37 21.55-13.22 21.81-13.22C22.01-13.22 22.21-13.32 22.36-13.41L27.28-16.11L27.32-16.07L24.88-11.29C24.83-11.19 24.81-11.05 24.81-10.96C24.81-10.64 25.02-10.35 25.45-10.21Z" fill="currentColor"/>
</svg>