<svg xmlns="http://www.w3.org/2000/svg" viewBox="0 0 24 24" width="24" height="24">
  
  <path transform="matrix(0.6290699103083917, 0, 0, 0.6290699103083917, 0.12016218208625151, 17.315149281238483)" d="M2.99-5.31C2.99-2.65 4.45-1.20 7.13-1.20L7.58-1.20L7.58-9.68C7.58-13.39 9.89-15.69 13.63-15.69L15.07-15.69C15.39-15.69 15.50-15.75 15.68-15.91L16.57-16.66C17.60-17.52 18.73-17.94 20.14-17.94L24.13-17.94C25.55-17.94 26.71-17.52 27.71-16.64L28.34-16.11C28.41-16.04 28.49-15.96 28.56-15.93L28.56-17.41C28.56-20.06 27.09-21.53 24.42-21.53L7.13-21.53C4.45-21.53 2.99-20.07 2.99-17.41ZM13.63 4.63L30.64 4.63C33.33 4.63 34.78 3.18 34.78 0.52L34.78-9.68C34.78-12.34 33.33-13.79 30.64-13.79L29.19-13.79C28.31-13.79 28.01-13.89 27.46-14.37L26.50-15.20C25.83-15.79 25.13-16.03 24.13-16.03L20.14-16.03C19.15-16.03 18.46-15.77 17.77-15.20L16.78-14.37C16.23-13.91 15.96-13.79 15.07-13.79L13.63-13.79C10.95-13.79 9.49-12.34 9.49-9.68L9.49 0.52C9.49 3.18 10.95 4.63 13.63 4.63ZM22.01 0.55C18.95 0.55 16.46-1.93 16.46-4.99C16.46-8.04 18.95-10.52 22.01-10.52C25.04-10.52 27.53-8.04 27.53-4.99C27.53-1.93 25.04 0.55 22.01 0.55ZM30.16-7.56C29.38-7.56 28.75-8.19 28.75-8.98C28.75-9.76 29.38-10.42 30.16-10.42C30.95-10.42 31.61-9.76 31.61-8.98C31.61-8.19 30.95-7.56 30.16-7.56ZM22.01-1.95C23.67-1.95 25.04-3.30 25.04-4.99C25.04-6.68 23.67-8.04 22.01-8.04C20.32-8.04 18.95-6.68 18.95-4.99C18.95-3.30 20.32-1.95 22.01-1.95Z" fill="currentColor"/>
</svg>