<svg xmlns="http://www.w3.org/2000/svg" viewBox="0 0 24 24" width="24" height="24">
  
  <path transform="matrix(0.8080808080808081, 0, 0, 0.8080808080808081, 0.30492424242424243, 18.83712121212121)" d="M14.47 3.91C21.30 3.91 26.85-1.63 26.85-8.46C26.85-15.29 21.30-20.84 14.47-20.84C7.64-20.84 2.10-15.29 2.10-8.46C2.10-1.63 7.64 3.91 14.47 3.91ZM14.47 0.83C9.34 0.83 5.18-3.33 5.18-8.46C5.18-13.61 9.34-17.75 14.47-17.75C19.62-17.75 23.77-13.61 23.77-8.46C23.77-3.33 19.62 0.83 14.47 0.83ZM19.10-2.87C19.36-2.63 19.79-2.61 20.05-2.87C20.32-3.14 20.32-3.56 20.05-3.83L9.84-14.04C9.57-14.31 9.14-14.31 8.87-14.04C8.61-13.78 8.61-13.35 8.87-13.09ZM16.78-8.32C17.82-9.01 18.47-10.21 18.47-11.60C18.47-12.27 18.35-12.94 18.04-13.59C17.85-13.97 17.40-14.04 17.10-13.73L15.95-12.55L14.95-13.83C14.72-14.14 14.30-14.14 14.05-13.83L13.07-12.55L11.91-13.73C11.73-13.91 11.51-13.96 11.32-13.88C11.31-13.85 11.30-13.83 11.30-13.80ZM14.51-1.32C15.90-1.32 17.26-1.73 18.36-2.39L16.03-4.71C15.71-4.38 15.40-4.00 15.13-3.54L15.13-5.63L13.88-6.88L13.88-1.93C13.88-1.59 14.16-1.32 14.51-1.32ZM13.11-1.49C13.07-1.62 13.03-1.78 13.03-1.93L13.03-4.57C11.91-5.84 10.23-6.64 8.21-6.64C7.72-6.64 7.51-6.32 7.68-5.86C8.46-3.62 10.59-1.92 13.11-1.49ZM20.63-4.48C20.88-4.88 21.13-5.36 21.30-5.86C21.48-6.32 21.27-6.64 20.78-6.64C20.05-6.64 19.37-6.55 18.74-6.36Z" fill="currentColor"/>
</svg>