<svg xmlns="http://www.w3.org/2000/svg" viewBox="0 0 24 24" width="24" height="24">
  <title>camera.macro.circle</title>
  <path transform="matrix(0.8080808080808081, 0, 0, 0.8080808080808081, 0.30492424242424243, 18.83712121212121)" d="M14.47 3.91C21.30 3.91 26.85-1.63 26.85-8.46C26.85-15.29 21.30-20.84 14.47-20.84C7.64-20.84 2.10-15.29 2.10-8.46C2.10-1.63 7.64 3.91 14.47 3.91ZM14.47 0.83C9.34 0.83 5.18-3.33 5.18-8.46C5.18-13.61 9.34-17.75 14.47-17.75C19.62-17.75 23.77-13.61 23.77-8.46C23.77-3.33 19.62 0.83 14.47 0.83ZM13.88-1.93C13.88-1.59 14.16-1.32 14.51-1.32C17.55-1.32 20.38-3.20 21.30-5.86C21.48-6.32 21.27-6.64 20.78-6.64C18.25-6.64 16.23-5.40 15.13-3.54L15.13-7.66C17.14-7.95 18.47-9.57 18.47-11.60C18.47-12.27 18.35-12.94 18.04-13.59C17.86-13.97 17.39-14.04 17.10-13.73L15.95-12.55L14.95-13.83C14.72-14.14 14.30-14.14 14.05-13.83L13.07-12.55L11.91-13.73C11.61-14.04 11.16-13.97 10.98-13.59C10.66-12.94 10.55-12.26 10.55-11.60C10.55-9.57 11.87-7.96 13.88-7.66ZM13.03-4.57C11.91-5.84 10.23-6.64 8.21-6.64C7.72-6.64 7.51-6.32 7.68-5.86C8.46-3.62 10.59-1.92 13.11-1.49C13.07-1.62 13.03-1.78 13.03-1.93Z" fill="currentColor"/>
</svg>