<svg xmlns="http://www.w3.org/2000/svg" viewBox="0 0 24 24" width="24" height="24">
  <title>car.side.lock.fill</title>
  <path transform="matrix(0.458165548098434, 0, 0, 0.458165548098434, 0.6308724832214765, 17.63758389261745)" d="M24.73-13.85L30.39-13.85C31.38-13.85 31.90-14.37 31.90-15.45L31.90-19.86C31.90-20.78 31.52-21.28 30.81-21.42L30.81-22.77C30.81-24.82 29.51-26.18 27.55-26.18C25.61-26.18 24.30-24.82 24.30-22.77L24.30-21.42C23.58-21.28 23.21-20.77 23.21-19.86L23.21-15.45C23.21-14.37 23.73-13.85 24.73-13.85ZM25.90-22.88C25.90-23.92 26.55-24.61 27.55-24.61C28.55-24.61 29.21-23.92 29.21-22.88L29.21-21.46L25.90-21.46ZM43.00-13.44L41.17-14.06C39.34-15.66 36.84-17.50 33.66-18.22L33.66-15.45C33.66-13.38 32.36-12.08 30.39-12.08L24.71-12.08C22.73-12.08 21.43-13.38 21.43-15.45L21.43-17.59C20.52-17.26 19.66-16.80 18.70-16.20L13.92-13.20L8.71-12.56C5.16-12.13 2.99-9.87 2.99-6.79L2.99-5.30C2.99-2.39 4.42-0.91 7.22-0.91L7.70-0.91C7.61-1.34 7.55-1.77 7.55-2.20C7.55-5.17 9.93-7.54 12.90-7.54C15.86-7.54 18.25-5.17 18.25-2.20C18.25-1.77 18.19-1.34 18.08-0.91L31.55-0.91C31.44-1.34 31.39-1.77 31.39-2.20C31.39-5.17 33.77-7.54 36.74-7.54C39.70-7.54 42.08-5.17 42.08-2.20C42.08-1.77 42.02-1.34 41.93-0.91L42.42-0.91C45.23-0.91 46.64-2.41 46.64-5.38L46.64-8.70C46.64-11.11 45.41-12.60 43.00-13.44ZM12.90 1.57C14.99 1.57 16.68-0.11 16.68-2.20C16.68-4.30 14.99-5.96 12.90-5.96C10.80-5.96 9.12-4.30 9.12-2.20C9.12-0.11 10.80 1.57 12.90 1.57ZM36.74 1.57C38.84 1.57 40.51-0.11 40.51-2.20C40.51-4.30 38.84-5.96 36.74-5.96C34.64-5.96 32.96-4.30 32.96-2.20C32.96-0.11 34.64 1.57 36.74 1.57Z" fill="currentColor"/>
</svg>