<svg xmlns="http://www.w3.org/2000/svg" viewBox="0 0 24 24" width="24" height="24">
  
  <path transform="matrix(0.5043930973201961, 0, 0, 0.5043930973201961, 0.4931705151051855, 16.274164305401488)" d="M7.15-18.11L9.70-22.52C10.22-23.40 9.49-24.20 8.60-24.01L4.75-23.25C4.13-23.12 3.84-22.63 4.04-22.03L5.31-18.32C5.60-17.45 6.64-17.23 7.15-18.11ZM14.63-9.87C15.90-9.13 17.40-9.22 18.53-9.98L29.58-3.61C29.48-2.25 30.15-0.90 31.43-0.16C32.72 0.57 34.21 0.48 35.34-0.28L36.11 0.16C38.03 1.27 39.59 0.81 40.76-1.22L42.07-3.49C43.02-5.14 42.76-6.64 41.44-8.18L40.44-9.33C39.63-11.66 38.23-14.74 35.09-16.55L33.81-17.30C30.38-19.28 28.73-19.77 25.91-19.66L21.45-19.49L17.61-21.12C15.02-22.23 12.64-21.54 11.44-19.44L10.84-18.41C9.69-16.42 10.09-14.86 12-13.76L12.77-13.31C12.67-11.95 13.34-10.61 14.63-9.87ZM37.18-1.71L36.70-1.98C37.41-3.68 36.76-5.61 35.12-6.56C33.48-7.51 31.49-7.09 30.38-5.65L19.90-11.70C20.59-13.38 19.96-15.32 18.32-16.27C16.68-17.21 14.68-16.79 13.56-15.35L13.08-15.62C12.39-16.02 12.28-16.61 12.74-17.39L13.30-18.36C13.95-19.48 15.18-19.82 16.79-19.14L20.30-17.64C20.84-17.41 21.30-17.32 21.82-17.33L25.99-17.48C28.42-17.58 29.63-17.21 32.73-15.42L34.01-14.68C36.07-13.50 37.25-11.80 38.30-8.75C38.50-8.16 38.70-7.89 39.13-7.41L39.81-6.66C40.46-5.94 40.58-5.23 40.15-4.48L38.88-2.30C38.43-1.51 37.88-1.31 37.18-1.71ZM15.64-11.64C14.85-12.11 14.58-13.09 15.05-13.89C15.50-14.68 16.50-14.95 17.30-14.50C18.09-14.03 18.35-13.04 17.89-12.25C17.44-11.45 16.44-11.18 15.64-11.64ZM3.19-12.88C2.78-12.18 3.02-11.29 3.69-10.90L34.55 6.90C35.21 7.29 36.11 7.07 36.49 6.39C36.89 5.67 36.66 4.79 35.99 4.41L5.13-13.41C4.46-13.79 3.57-13.56 3.19-12.88ZM32.45-1.93C31.65-2.40 31.39-3.39 31.85-4.18C32.31-4.98 33.30-5.25 34.10-4.79C34.90-4.32 35.17-3.34 34.70-2.54C34.24-1.75 33.25-1.48 32.45-1.93Z" fill="currentColor"/>
</svg>