<svg xmlns="http://www.w3.org/2000/svg" viewBox="0 0 24 24" width="24" height="24">
  <title>car.rear.road.lane.wave.up</title>
  <path transform="matrix(0.5503737796145161, 0, 0, 0.5503737796145161, 0.3519192305862415, 18.356172185274676)" d="M21.18-21.86C22.84-21.86 24.33-21.28 25.49-20.25C26.07-19.76 26.68-19.72 27.08-20.13C27.55-20.59 27.56-21.28 27.05-21.76C25.48-23.23 23.40-23.98 21.18-23.98C18.95-23.98 16.89-23.23 15.32-21.76C14.79-21.28 14.80-20.59 15.27-20.13C15.67-19.72 16.28-19.76 16.86-20.25C18.04-21.26 19.51-21.86 21.18-21.86ZM21.18-18.02C21.97-18.02 22.64-17.79 23.18-17.38C23.82-16.93 24.36-16.91 24.76-17.31C25.23-17.78 25.21-18.47 24.69-18.91C23.87-19.61 22.57-20.14 21.18-20.14C19.78-20.14 18.48-19.61 17.67-18.91C17.14-18.47 17.12-17.78 17.59-17.31C17.99-16.92 18.54-16.93 19.17-17.38C19.72-17.79 20.39-18.02 21.18-18.02ZM36.43 0.88L38.02 0.88C39.22 0.88 39.60-0.11 39.15-0.94L30.94-17.03C30.68-17.52 30.28-17.78 29.77-17.78L28.95-17.78C28.30-17.78 27.97-17.20 28.22-16.59L34.83-0.20C35.07 0.42 35.54 0.88 36.43 0.88ZM4.30 0.88L5.89 0.88C6.79 0.88 7.25 0.42 7.50-0.20L14.11-16.58C14.36-17.20 14.03-17.77 13.38-17.77L12.56-17.77C12.05-17.77 11.65-17.52 11.39-17.02L3.18-0.94C2.73-0.09 3.11 0.88 4.30 0.88ZM13.37-3.39C13.37-2.89 13.75-2.52 14.24-2.52L15.01-2.52C15.50-2.52 15.88-2.89 15.88-3.39L15.88-4.23L26.34-4.23L26.34-3.39C26.34-2.89 26.73-2.52 27.22-2.52L28.00-2.52C28.49-2.52 28.86-2.89 28.86-3.39L28.86-7.73C28.86-8.91 28.73-9.59 28.08-10.31L27.43-11.03L26.77-12.89C26.33-14.10 25.57-14.55 24.63-14.67C24.13-14.74 22.84-14.78 21.12-14.78C19.38-14.78 18.09-14.74 17.59-14.67C16.66-14.55 15.89-14.10 15.46-12.89L14.79-11.03L14.14-10.31C13.49-9.59 13.37-8.91 13.37-7.73ZM16.95-10.88C16.57-10.88 16.39-11.13 16.51-11.47L16.89-12.57C17.05-13.04 17.34-13.17 17.82-13.24C18.20-13.29 19.35-13.32 21.12-13.32C22.89-13.32 24.04-13.29 24.41-13.24C24.88-13.17 25.17-13.04 25.34-12.57L25.71-11.47C25.84-11.13 25.65-10.88 25.27-10.88ZM16.11-6.80C15.67-6.80 15.34-7.13 15.34-7.56L15.34-8.52C15.34-8.95 15.67-9.27 16.11-9.27C16.55-9.27 16.88-8.95 16.88-8.52L16.88-7.56C16.88-7.11 16.55-6.80 16.11-6.80ZM26.17-6.80C25.75-6.80 25.41-7.13 25.41-7.56L25.41-8.52C25.41-8.95 25.75-9.27 26.17-9.27C26.61-9.27 26.94-8.96 26.94-8.52L26.94-7.56C26.94-7.11 26.61-6.80 26.17-6.80ZM19.70-7.10C19.34-7.10 19.10-7.36 19.10-7.73L19.10-8.34C19.10-8.72 19.34-8.96 19.70-8.96L22.50-8.96C22.86-8.96 23.11-8.72 23.11-8.34L23.11-7.73C23.11-7.35 22.86-7.10 22.50-7.10Z" fill="currentColor"/>
</svg>