<svg xmlns="http://www.w3.org/2000/svg" viewBox="0 0 24 24" width="24" height="24">
  <title>carbon.monoxide.cloud.fill</title>
  <path transform="matrix(0.6759075907590759, 0, 0, 0.6759075907590759, -0.01980198019801982, 17.718811881188117)" d="M22.90-16.99C23.80-16.99 24.54-17.73 24.54-18.62C24.54-19.52 23.80-20.26 22.90-20.26C22.01-20.26 21.27-19.52 21.27-18.62C21.27-17.73 22.01-16.99 22.90-16.99ZM28.15-12.68C29.50-12.68 30.59-13.77 30.59-15.13C30.59-16.49 29.50-17.57 28.15-17.57C26.78-17.57 25.69-16.49 25.69-15.13C25.69-13.77 26.78-12.68 28.15-12.68ZM9.54 3.34L25.11 3.34C29.32 3.34 32.58 0.15 32.58-3.96C32.58-8.12 29.33-11.32 24.90-11.32C23.27-14.50 20.38-16.28 16.68-16.28C11.95-16.28 7.99-12.82 7.39-7.98C4.88-7.17 3.28-5.06 3.28-2.47C3.28 0.82 5.74 3.34 9.54 3.34ZM4.73-8.96C5.70-8.96 6.46-9.74 6.46-10.71C6.46-11.67 5.70-12.43 4.73-12.43C3.76-12.43 2.99-11.67 2.99-10.71C2.99-9.74 3.76-8.96 4.73-8.96ZM14.58-1.02C12.38-1.02 11.51-2.87 11.51-5.02C11.51-7.21 12.46-9 14.54-9C16.21-9 17.27-7.82 17.30-6.52C17.30-6.02 16.99-5.66 16.52-5.66C16.09-5.66 15.84-5.92 15.73-6.40C15.61-6.94 15.33-7.54 14.57-7.54C13.50-7.54 13.14-6.29 13.14-5.02C13.14-3.66 13.48-2.48 14.58-2.48C15.34-2.48 15.66-3.08 15.79-3.61C15.89-4.09 16.13-4.35 16.57-4.35C17.03-4.35 17.33-3.98 17.33-3.49C17.31-2.20 16.25-1.02 14.58-1.02ZM20.88-1.02C19.01-1.02 17.82-2.57 17.82-5.00C17.82-7.44 19.01-9 20.87-9C22.73-9 23.91-7.44 23.91-5.00C23.91-2.57 22.73-1.02 20.88-1.02ZM20.88-2.48C21.75-2.48 22.29-3.39 22.29-5.00C22.29-6.62 21.75-7.54 20.87-7.54C19.99-7.54 19.45-6.62 19.45-5.00C19.45-3.39 19.99-2.48 20.88-2.48Z" fill="currentColor"/>
</svg>