<svg xmlns="http://www.w3.org/2000/svg" viewBox="0 0 24 24" width="24" height="24">
  <title>carseat.right.backrest.up.and.down.fill</title>
  <path transform="matrix(0.5710803234785633, 0, 0, 0.5710803234785633, 0.29170450579461793, 16.828528750661523)" d="M37.79-0.80C38.85-4.62 36.12-6.38 29.34-6.38C26.44-6.38 23.52-6.13 21.12-5.71C21.67-10.09 20.39-13.70 17.48-15.74C17.82-19.00 15.74-21.47 13.21-21.47C11.09-21.47 9.67-19.75 10.38-16.86L14.93 1.56C15.41 3.52 16.70 4.56 18.62 4.56L32.89 4.56C35.52 4.56 36.67 3.30 37.79-0.80ZM22.86-13.31C23.07-12.48 23.91-12.33 24.48-12.91L27.88-16.37C28.44-16.92 28.22-17.78 27.46-18L22.80-19.39C22.02-19.63 21.39-19.07 21.59-18.28ZM9.59-8.88L8.31-13.84C8.10-14.66 7.28-14.84 6.70-14.24L3.30-10.78C2.75-10.23 2.95-9.38 3.71-9.15L8.37-7.77C9.16-7.54 9.79-8.07 9.59-8.88Z" fill="currentColor"/>
</svg>