<svg xmlns="http://www.w3.org/2000/svg" viewBox="0 0 24 24" width="24" height="24">
  <title>carseat.left.massage.fill</title>
  <path transform="matrix(0.7189012746682046, 0, 0, 0.7189012746682046, -0.14736525919347176, 18.663664779119117)" d="M20.18-18.84C20.03-20.02 20.53-21.07 21.53-21.52C21.96-21.75 22.07-22.20 21.93-22.57C21.77-22.97 21.29-23.27 20.72-22.98C19.21-22.23 18.29-20.33 18.57-18.50C18.66-17.96 19.20-17.71 19.69-17.89C20.10-18.06 20.26-18.43 20.18-18.84ZM3.21-0.80C4.34 3.30 5.47 4.56 8.10 4.56L22.37 4.56C24.30 4.56 25.58 3.50 26.06 1.56L30.62-16.88C31.34-19.76 29.91-21.47 27.80-21.47C25.27-21.47 23.18-19.01 23.52-15.75C20.61-13.70 19.32-10.09 19.88-5.71C17.47-6.14 14.55-6.38 11.66-6.38C4.88-6.38 2.14-4.62 3.21-0.80ZM17.00-9.88C16.56-11.54 17.10-13.79 19.09-14.85C19.63-15.15 19.68-15.67 19.48-16.03C19.28-16.37 18.84-16.57 18.30-16.31C15.75-15.11 14.79-11.72 15.42-9.42C15.55-8.89 16.07-8.72 16.48-8.82C16.86-8.92 17.17-9.29 17.00-9.88Z" fill="currentColor"/>
</svg>