<svg xmlns="http://www.w3.org/2000/svg" viewBox="0 0 24 24" width="24" height="24">
  <title>cedisign</title>
  <path transform="matrix(0.7646356033452808, 0, 0, 0.7646356033452808, 2.8109318996415764, 18.46057347670251)" d="M12.41 4.63C12.82 4.63 13.11 4.35 13.11 3.93L13.11 1.99C16.39 1.86 19.61 0.38 20.79-2.74C20.94-3.13 21.05-3.66 21.05-4.05C21.05-5.16 20.31-5.87 19.16-5.87C18.20-5.87 17.71-5.40 17.33-4.51C16.66-2.64 15.09-1.54 13.11-1.37L13.11-15.52C15.01-15.33 16.58-14.19 17.23-12.40C17.59-11.52 18.13-11.05 19.11-11.05C20.24-11.05 20.89-11.78 20.89-12.80C20.89-13.32 20.74-13.90 20.51-14.38C19.21-17.23 16.32-18.73 13.11-18.88L13.11-20.81C13.11-21.28 12.77-21.53 12.41-21.53C12.05-21.53 11.72-21.28 11.72-20.81L11.72-18.87C6.19-18.50 2.99-14.43 2.99-8.46C2.99-2.45 6.14 1.58 11.72 1.97L11.72 3.93C11.72 4.38 12.04 4.63 12.41 4.63ZM7.20-8.47C7.20-11.87 8.53-15.01 11.72-15.48L11.72-1.41C8.58-1.88 7.20-4.96 7.20-8.47Z" fill="currentColor"/>
</svg>