<svg xmlns="http://www.w3.org/2000/svg" viewBox="0 0 24 24" width="24" height="24">
  <title>cedisign.ring</title>
  <path transform="matrix(0.7531626949102678, 0, 0, 0.7531626949102678, 0.42453662842012374, 18.372462488967344)" d="M15.38 4.82C22.68 4.82 28.64-1.15 28.64-8.46C28.64-15.77 22.68-21.74 15.38-21.74C8.06-21.74 2.10-15.77 2.10-8.46C2.10-1.15 8.06 4.82 15.38 4.82ZM15.38 0.19C10.59 0.19 6.73-3.68 6.73-8.46C6.73-13.24 10.59-17.11 15.38-17.11C20.14-17.11 24.01-13.24 24.01-8.46C24.01-3.68 20.14 0.19 15.38 0.19ZM15.36-2.18C15.56-2.18 15.70-2.33 15.70-2.53L15.70-3.46C17.33-3.53 18.89-4.28 19.45-5.75C19.54-5.96 19.58-6.19 19.58-6.41C19.58-6.97 19.20-7.32 18.63-7.32C18.15-7.32 17.88-7.08 17.71-6.63C17.38-5.79 16.65-5.25 15.70-5.16L15.70-11.91C16.63-11.81 17.34-11.23 17.65-10.45C17.85-9.98 18.11-9.76 18.61-9.76C19.15-9.76 19.51-10.10 19.51-10.65C19.51-10.96 19.42-11.26 19.28-11.51C18.62-12.87 17.21-13.54 15.70-13.61L15.70-14.53C15.70-14.73 15.56-14.88 15.36-14.88C15.16-14.88 15.02-14.73 15.02-14.53L15.02-13.61C12.33-13.43 10.77-11.43 10.77-8.53C10.77-5.72 12.22-3.67 15.02-3.47L15.02-2.53C15.02-2.33 15.16-2.18 15.36-2.18ZM12.89-8.54C12.89-10.17 13.55-11.66 15.02-11.89L15.02-5.18C13.50-5.41 12.89-6.95 12.89-8.54Z" fill="currentColor"/>
</svg>