<svg xmlns="http://www.w3.org/2000/svg" viewBox="0 0 24 24" width="24" height="24">
  <title>cellularbars.circle</title>
  <path transform="matrix(0.8080808080808081, 0, 0, 0.8080808080808081, 0.30492424242424243, 18.83712121212121)" d="M14.47 3.91C21.30 3.91 26.85-1.63 26.85-8.46C26.85-15.29 21.30-20.84 14.47-20.84C7.64-20.84 2.10-15.29 2.10-8.46C2.10-1.63 7.64 3.91 14.47 3.91ZM14.47 0.83C9.34 0.83 5.18-3.33 5.18-8.46C5.18-13.61 9.34-17.75 14.47-17.75C19.62-17.75 23.77-13.61 23.77-8.46C23.77-3.33 19.62 0.83 14.47 0.83ZM19.20-4.20L20.20-4.20C20.66-4.20 20.95-4.50 20.95-4.95L20.95-12.27C20.95-12.71 20.66-13.02 20.20-13.02L19.20-13.02C18.74-13.02 18.43-12.71 18.43-12.27L18.43-4.95C18.43-4.50 18.74-4.20 19.20-4.20ZM15.62-4.20L16.62-4.20C17.07-4.20 17.38-4.50 17.38-4.95L17.38-10.28C17.38-10.72 17.07-11.02 16.62-11.02L15.62-11.02C15.15-11.02 14.85-10.72 14.85-10.28L14.85-4.95C14.85-4.50 15.15-4.20 15.62-4.20ZM12.04-4.20L13.03-4.20C13.49-4.20 13.79-4.50 13.79-4.95L13.79-8.45C13.79-8.89 13.49-9.19 13.03-9.19L12.04-9.19C11.58-9.19 11.27-8.89 11.27-8.45L11.27-4.95C11.27-4.50 11.58-4.20 12.04-4.20ZM8.45-4.20L9.46-4.20C9.90-4.20 10.22-4.50 10.22-4.95L10.22-6.95C10.22-7.38 9.90-7.69 9.46-7.69L8.45-7.69C7.99-7.69 7.69-7.38 7.69-6.95L7.69-4.95C7.69-4.50 7.99-4.20 8.45-4.20Z" fill="currentColor"/>
</svg>