<svg xmlns="http://www.w3.org/2000/svg" viewBox="0 0 24 24" width="24" height="24">
  
  <path transform="matrix(0.7531626949102678, 0, 0, 0.7531626949102678, 0.42453662842012374, 18.372462488967344)" d="M15.38 4.82C22.68 4.82 28.64-1.15 28.64-8.46C28.64-15.77 22.68-21.74 15.38-21.74C8.06-21.74 2.10-15.77 2.10-8.46C2.10-1.15 8.06 4.82 15.38 4.82ZM15.38 0.19C10.59 0.19 6.73-3.68 6.73-8.46C6.73-13.24 10.59-17.11 15.38-17.11C20.14-17.11 24.01-13.24 24.01-8.46C24.01-3.68 20.14 0.19 15.38 0.19ZM15.36-3.19C15.55-3.19 15.71-3.34 15.71-3.53L15.71-4.43C16.68-4.49 17.60-4.83 18.21-5.48C18.55-5.84 18.81-6.32 18.81-6.75C18.81-7.28 18.40-7.57 17.89-7.57C17.45-7.57 17.23-7.32 17.03-7.01C16.72-6.45 16.30-6.13 15.71-6.05L15.71-10.98C16.30-10.90 16.73-10.57 17.02-10.01C17.23-9.66 17.47-9.46 17.88-9.46C18.40-9.46 18.80-9.75 18.80-10.29C18.80-10.69 18.53-11.17 18.18-11.54C17.59-12.16 16.69-12.53 15.71-12.60L15.71-13.50C15.71-13.69 15.55-13.85 15.36-13.85C15.16-13.85 15.01-13.69 15.01-13.50L15.01-12.60C12.70-12.45 11.44-10.80 11.44-8.52C11.44-6.06 12.84-4.58 15.01-4.43L15.01-3.53C15.01-3.34 15.16-3.19 15.36-3.19ZM13.49-8.52C13.49-9.79 13.93-10.79 15.01-10.97L15.01-6.06C13.91-6.25 13.49-7.27 13.49-8.52Z" fill="currentColor"/>
</svg>