<svg xmlns="http://www.w3.org/2000/svg" viewBox="0 0 24 24" width="24" height="24">
  <title>centsign.circle</title>
  <path transform="matrix(0.8080808080808081, 0, 0, 0.8080808080808081, 0.30492424242424243, 18.83712121212121)" d="M14.47 3.91C21.30 3.91 26.85-1.63 26.85-8.46C26.85-15.29 21.30-20.84 14.47-20.84C7.64-20.84 2.10-15.29 2.10-8.46C2.10-1.63 7.64 3.91 14.47 3.91ZM14.47 0.83C9.34 0.83 5.18-3.33 5.18-8.46C5.18-13.61 9.34-17.75 14.47-17.75C19.62-17.75 23.77-13.61 23.77-8.46C23.77-3.33 19.62 0.83 14.47 0.83ZM14.46-3.19C14.65-3.19 14.81-3.34 14.81-3.53L14.81-4.43C15.77-4.49 16.70-4.83 17.31-5.48C17.65-5.84 17.91-6.32 17.91-6.75C17.91-7.28 17.50-7.57 16.99-7.57C16.55-7.57 16.32-7.32 16.13-7.01C15.82-6.45 15.40-6.13 14.81-6.05L14.81-10.98C15.40-10.90 15.83-10.57 16.11-10.01C16.31-9.66 16.57-9.46 16.98-9.46C17.50-9.46 17.89-9.75 17.89-10.29C17.89-10.69 17.63-11.17 17.27-11.54C16.69-12.16 15.77-12.53 14.81-12.60L14.81-13.50C14.81-13.69 14.65-13.85 14.46-13.85C14.26-13.85 14.11-13.69 14.11-13.50L14.11-12.60C11.80-12.45 10.54-10.80 10.54-8.52C10.54-6.06 11.94-4.58 14.11-4.43L14.11-3.53C14.11-3.34 14.26-3.19 14.46-3.19ZM12.59-8.52C12.59-9.79 13.03-10.79 14.11-10.97L14.11-6.06C13.01-6.25 12.59-7.27 12.59-8.52Z" fill="currentColor"/>
</svg>