<svg xmlns="http://www.w3.org/2000/svg" viewBox="0 0 24 24" width="24" height="24">
  <title>centsign.bank.building.fill</title>
  <path transform="matrix(0.7114075309156593, 0, 0, 0.7114075309156593, -0.12588578574406029, 18.019174656106713)" d="M4.27 5.12L29.82 5.12C30.50 5.12 31.10 4.56 31.10 3.84C31.10 3.15 30.50 2.58 29.82 2.58L29.23 2.58L29.23 1.56C29.23 0.97 28.86 0.62 28.28 0.62L27.73 0.62L27.73-13.07L28.69-13.07C29.54-13.07 30.05-13.70 30.05-14.33C30.05-14.80 29.79-15.22 29.24-15.55L18.79-21.57C18.27-21.87 17.68-22.04 17.13-22.04C16.58-22.04 16.00-21.87 15.49-21.57L5.04-15.55C4.48-15.22 4.23-14.80 4.23-14.33C4.23-13.70 4.72-13.07 5.58-13.07L6.55-13.07L6.55 0.62L6 0.62C5.41 0.62 5.05 0.97 5.05 1.56L5.05 2.58L4.27 2.58C3.57 2.58 2.99 3.15 2.99 3.84C2.99 4.55 3.57 5.12 4.27 5.12ZM17.16-1.68C16.95-1.68 16.78-1.85 16.78-2.05L16.78-2.99C14.48-3.15 13.00-4.71 13.00-7.31C13.00-9.71 14.33-11.44 16.78-11.60L16.78-12.55C16.78-12.75 16.95-12.93 17.16-12.93C17.34-12.93 17.52-12.75 17.52-12.55L17.52-11.60C18.54-11.53 19.50-11.14 20.12-10.49C20.50-10.10 20.78-9.59 20.78-9.16C20.78-8.60 20.34-8.29 19.80-8.29C19.36-8.29 19.09-8.50 18.88-8.87C18.59-9.47 18.13-9.80 17.52-9.88L17.52-4.71C18.13-4.79 18.57-5.13 18.90-5.72C19.09-6.05 19.34-6.32 19.82-6.32C20.36-6.32 20.79-6.01 20.79-5.44C20.79-4.98 20.52-4.48 20.16-4.10C19.51-3.41 18.54-3.06 17.52-2.99L17.52-2.05C17.52-1.85 17.34-1.68 17.16-1.68ZM15.18-7.31C15.18-5.99 15.63-4.92 16.78-4.71L16.78-9.88C15.64-9.68 15.18-8.64 15.18-7.31Z" fill="currentColor"/>
</svg>