<svg xmlns="http://www.w3.org/2000/svg" viewBox="0 0 24 24" width="24" height="24">
  
  <path transform="matrix(0.687894666129249, 0, 0, 0.687894666129249, 2.834340991535671, 18.316001612253125)" d="M9.73-17.36L16.91-17.36C17.67-17.36 18.12-17.84 18.12-18.63L18.12-19.86C18.12-20.67 17.67-21.14 16.91-21.14L16.08-21.14C15.97-22.57 14.79-23.72 13.32-23.72C11.86-23.72 10.68-22.57 10.57-21.14L9.73-21.14C8.98-21.14 8.53-20.67 8.53-19.86L8.53-18.63C8.53-17.84 8.98-17.36 9.73-17.36ZM13.32-19.98C12.74-19.98 12.26-20.47 12.26-21.04C12.26-21.62 12.74-22.09 13.32-22.09C13.91-22.09 14.38-21.62 14.38-21.04C14.38-20.47 13.91-19.98 13.32-19.98ZM7.11 5.36L19.54 5.36C22.14 5.36 23.66 3.82 23.66 1.18L23.66-16.50C23.66-19.14 22.14-20.67 19.59-20.67L19.39-20.67C19.50-20.46 19.55-20.21 19.55-19.95L19.55-18.63C19.55-17.06 18.48-15.93 16.91-15.93L9.73-15.93C8.17-15.93 7.10-17.06 7.10-18.63L7.10-19.95C7.10-20.21 7.15-20.46 7.24-20.67L7.05-20.67C4.51-20.67 2.99-19.14 2.99-16.50L2.99 1.18C2.99 3.82 4.51 5.36 7.11 5.36ZM13.03-7.25C12.40-7.25 11.75-7.73 11.72-8.52L9.27-9.86C9.06-9.73 8.82-9.66 8.58-9.66C7.84-9.66 7.24-10.27 7.24-10.98C7.24-11.72 7.84-12.32 8.58-12.32C9.34-12.32 9.95-11.71 9.89-10.91L12.23-9.64C12.46-9.82 12.73-9.93 13.03-9.93C13.29-9.93 13.54-9.84 13.73-9.73L16.78-11.95C16.64-12.79 17.26-13.52 18.07-13.52C18.82-13.52 19.41-12.91 19.41-12.18C19.41-11.46 18.82-10.85 18.07-10.85C17.88-10.85 17.70-10.89 17.54-10.96L14.37-8.65C14.37-7.71 13.66-7.25 13.03-7.25ZM8.23-3.56C7.75-3.56 7.38-3.93 7.38-4.39C7.38-4.85 7.75-5.21 8.23-5.21L18.43-5.21C18.90-5.21 19.27-4.85 19.27-4.39C19.27-3.93 18.90-3.56 18.43-3.56ZM8.23 1.02C7.76 1.02 7.38 0.66 7.38 0.19C7.38-0.27 7.75-0.63 8.23-0.63L14.25-0.63C14.72-0.63 15.08-0.27 15.08 0.19C15.08 0.66 14.72 1.02 14.25 1.02Z" fill="currentColor"/>
</svg>