<svg xmlns="http://www.w3.org/2000/svg" viewBox="0 0 24 24" width="24" height="24">
  <title>checkmark.rectangle</title>
  <path transform="matrix(0.7149839407903924, 0, 0, 0.7149839407903924, -0.13657310431504, 18.04105571847507)" d="M7.13 2.75L26.82 2.75C29.51 2.75 30.96 1.30 30.96-1.36L30.96-15.54C30.96-18.20 29.51-19.65 26.82-19.65L7.13-19.65C4.45-19.65 2.99-18.20 2.99-15.54L2.99-1.36C2.99 1.30 4.45 2.75 7.13 2.75ZM7.45-0.27C6.52-0.27 6.01-0.73 6.01-1.72L6.01-15.18C6.01-16.17 6.52-16.63 7.45-16.63L26.50-16.63C27.43-16.63 27.94-16.17 27.94-15.18L27.94-1.72C27.94-0.73 27.43-0.27 26.50-0.27ZM15.76-2.88C16.24-2.88 16.66-3.13 16.95-3.55L21.98-11.32C22.17-11.60 22.29-11.89 22.29-12.18C22.29-12.87 21.68-13.35 21.02-13.35C20.59-13.35 20.23-13.11 19.93-12.64L15.73-5.87L13.78-8.27C13.48-8.64 13.17-8.79 12.77-8.79C12.09-8.79 11.54-8.25 11.54-7.57C11.54-7.24 11.66-6.96 11.91-6.66L14.52-3.53C14.87-3.11 15.26-2.88 15.76-2.88Z" fill="currentColor"/>
</svg>