<svg xmlns="http://www.w3.org/2000/svg" viewBox="0 0 24 24" width="24" height="24">
  
  <path transform="matrix(0.8080808080808081, 0, 0, 0.8080808080808081, 0.30492424242424243, 18.83712121212121)" d="M14.47 3.91C21.30 3.91 26.85-1.63 26.85-8.46C26.85-15.29 21.30-20.84 14.47-20.84C7.64-20.84 2.10-15.29 2.10-8.46C2.10-1.63 7.64 3.91 14.47 3.91ZM13.18-2.58C12.66-2.58 12.25-2.81 11.87-3.27L9.12-6.55C8.85-6.88 8.74-7.17 8.74-7.51C8.74-8.24 9.33-8.81 10.04-8.81C10.46-8.81 10.79-8.65 11.11-8.27L13.15-5.75L17.72-13.02C18.02-13.51 18.41-13.76 18.87-13.76C19.57-13.76 20.21-13.24 20.21-12.52C20.21-12.22 20.10-11.91 19.89-11.60L14.45-3.28C14.14-2.84 13.69-2.58 13.18-2.58Z" fill="currentColor"/>
</svg>