<svg xmlns="http://www.w3.org/2000/svg" viewBox="0 0 24 24" width="24" height="24">
  
  <path transform="matrix(0.7442511835638945, 0, 0, 0.7442511835638945, 1.2287084566241047, 19.086954351831945)" d="M14.47 3.91C21.30 3.91 26.85-1.64 26.85-8.46C26.85-12.05 25.28-15.42 22.57-17.73C21.79-18.47 20.80-18.38 20.25-17.73C19.64-17.02 19.86-16.11 20.53-15.45C22.54-13.71 23.77-11.27 23.77-8.46C23.77-3.33 19.62 0.83 14.47 0.83C9.34 0.83 5.18-3.33 5.18-8.46C5.18-12.73 8.04-16.31 11.95-17.41L11.95-16.21C11.95-15.28 12.75-15.06 13.41-15.55L17.30-18.43C17.79-18.81 17.80-19.43 17.30-19.79L13.42-22.70C12.75-23.20 11.95-22.97 11.95-22.03L11.95-20.58C6.32-19.41 2.10-14.43 2.10-8.46C2.10-1.64 7.64 3.91 14.47 3.91ZM13.25-2.88C13.73-2.88 14.16-3.13 14.44-3.55L19.48-11.32C19.66-11.60 19.78-11.89 19.78-12.18C19.78-12.87 19.17-13.35 18.52-13.35C18.08-13.35 17.72-13.11 17.43-12.64L13.22-5.87L11.27-8.27C10.98-8.64 10.66-8.79 10.27-8.79C9.59-8.79 9.04-8.25 9.04-7.57C9.04-7.24 9.15-6.96 9.40-6.66L12.01-3.53C12.36-3.11 12.75-2.88 13.25-2.88Z" fill="currentColor"/>
</svg>