<svg xmlns="http://www.w3.org/2000/svg" viewBox="0 0 24 24" width="24" height="24">
  <title>checkmark.seal</title>
  <path transform="matrix(0.7379380217682422, 0, 0, 0.7379380217682422, 0.4639532690761492, 18.26905456548546)" d="M8.58 1.92L11.04 1.92C11.24 1.92 11.37 1.97 11.52 2.12L13.27 3.86C14.86 5.46 16.41 5.45 18 3.86L19.75 2.12C19.90 1.97 20.03 1.92 20.23 1.92L22.69 1.92C24.95 1.92 26.05 0.82 26.05-1.44L26.05-3.90C26.05-4.09 26.11-4.24 26.25-4.38L27.98-6.13C29.59-7.72 29.58-9.27 27.98-10.86L26.25-12.61C26.10-12.76 26.05-12.89 26.05-13.09L26.05-15.55C26.05-17.81 24.95-18.91 22.69-18.91L20.23-18.91C20.03-18.91 19.89-18.96 19.75-19.11L18-20.85C16.39-22.45 14.87-22.44 13.25-20.84L11.52-19.11C11.38-18.97 11.24-18.91 11.04-18.91L8.58-18.91C6.30-18.91 5.21-17.84 5.21-15.55L5.21-13.09C5.21-12.89 5.16-12.75 5.02-12.61L3.28-10.86C1.68-9.27 1.69-7.72 3.28-6.13L5.02-4.38C5.16-4.24 5.21-4.09 5.21-3.90L5.21-1.44C5.21 0.82 6.32 1.92 8.58 1.92ZM9.01-0.68C7.99-0.68 7.83-0.84 7.82-1.86L7.82-4.77C7.82-5.11 7.72-5.36 7.48-5.60L5.43-7.65C4.70-8.38 4.70-8.60 5.43-9.33L7.48-11.38C7.72-11.61 7.82-11.87 7.83-12.21L7.83-15.12C7.83-16.15 7.98-16.30 9.01-16.30L11.92-16.30C12.26-16.30 12.52-16.41 12.75-16.64L14.80-18.70C15.53-19.42 15.74-19.43 16.46-18.70L18.52-16.64C18.75-16.41 19.01-16.30 19.35-16.30L22.25-16.30C23.27-16.30 23.44-16.13 23.44-15.12L23.44-12.21C23.45-11.87 23.54-11.61 23.79-11.38L25.84-9.33C26.57-8.60 26.57-8.38 25.84-7.65L23.79-5.60C23.54-5.36 23.45-5.11 23.45-4.77L23.44-1.86C23.44-0.84 23.27-0.68 22.25-0.68L19.35-0.67C19.01-0.67 18.77-0.59 18.52-0.34L16.46 1.72C15.74 2.44 15.53 2.44 14.80 1.72L12.75-0.34C12.49-0.59 12.26-0.67 11.92-0.67ZM14.41-2.92C14.89-2.92 15.33-3.16 15.60-3.59L20.64-11.36C20.82-11.63 20.94-11.93 20.94-12.21C20.94-12.90 20.34-13.38 19.68-13.38C19.24-13.38 18.88-13.15 18.59-12.68L14.38-5.91L12.43-8.31C12.14-8.67 11.82-8.82 11.44-8.82C10.76-8.82 10.20-8.29 10.20-7.59C10.20-7.28 10.31-7.00 10.56-6.69L13.17-3.56C13.52-3.14 13.91-2.92 14.41-2.92Z" fill="currentColor"/>
</svg>