<svg xmlns="http://www.w3.org/2000/svg" viewBox="0 0 24 24" width="24" height="24">
  <title>checkmark.rectangle.portrait.fill</title>
  <path transform="matrix(0.7754051188853551, 0, 0, 0.7754051188853551, 1.6274420717855524, 18.556110858700592)" d="M2.99 0.30C2.99 2.99 4.44 4.44 7.10 4.44L19.65 4.44C22.31 4.44 23.77 2.99 23.77 0.30L23.77-17.21C23.77-19.89 22.31-21.35 19.65-21.35L7.10-21.35C4.44-21.35 2.99-19.89 2.99-17.21ZM12.09-2.57C11.57-2.57 11.16-2.80 10.78-3.26L8.03-6.54C7.76-6.87 7.65-7.16 7.65-7.51C7.65-8.23 8.24-8.80 8.95-8.80C9.38-8.80 9.70-8.64 10.02-8.26L12.06-5.75L16.63-13.01C16.93-13.50 17.32-13.75 17.78-13.75C18.48-13.75 19.13-13.23 19.13-12.50C19.13-12.21 19.01-11.89 18.80-11.59L13.36-3.28C13.05-2.82 12.60-2.57 12.09-2.57Z" fill="currentColor"/>
</svg>