<svg xmlns="http://www.w3.org/2000/svg" viewBox="0 0 24 24" width="24" height="24">
  
  <path transform="matrix(0.8810875924969884, 0, 0, 0.8810875924969884, -0.632937532266391, 19.485802787816212)" d="M14.82 2.24C15.33 2.24 15.76 2.06 16.13 1.71L24.98-6.96C25.48-7.43 25.69-7.91 25.69-8.50C25.68-9.08 25.46-9.57 24.98-10.03L16.13-18.69C15.76-19.05 15.34-19.23 14.82-19.23C13.78-19.23 12.94-18.39 12.94-17.37C12.94-16.85 13.15-16.37 13.55-16.00L21.27-8.51L13.55-1.00C13.16-0.62 12.94-0.14 12.94 0.38C12.94 1.41 13.78 2.24 14.82 2.24ZM4.34-16.30C5.07-16.30 5.67-16.90 5.67-17.64C5.67-18.39 5.07-18.98 4.34-18.98C3.59-18.98 2.99-18.39 2.99-17.64C2.99-16.90 3.59-16.30 4.34-16.30ZM6.62-14.00C7.36-14.00 7.96-14.60 7.96-15.35C7.96-16.09 7.36-16.69 6.62-16.69C5.87-16.69 5.27-16.09 5.27-15.35C5.27-14.60 5.87-14.00 6.62-14.00ZM8.91-11.71C9.64-11.71 10.25-12.30 10.25-13.05C10.25-13.79 9.64-14.39 8.91-14.39C8.16-14.39 7.56-13.79 7.56-13.05C7.56-12.30 8.16-11.71 8.91-11.71ZM11.19-9.41C11.94-9.41 12.54-10.01 12.54-10.76C12.54-11.51 11.94-12.11 11.19-12.11C10.44-12.11 9.84-11.51 9.84-10.76C9.84-10.01 10.44-9.41 11.19-9.41ZM13.48-7.13C14.23-7.13 14.82-7.72 14.82-8.46C14.82-9.21 14.23-9.81 13.48-9.81C12.73-9.81 12.13-9.21 12.13-8.46C12.13-7.72 12.73-7.13 13.48-7.13ZM11.19-4.83C11.94-4.83 12.54-5.43 12.54-6.16C12.54-6.91 11.94-7.51 11.19-7.51C10.44-7.51 9.84-6.91 9.84-6.16C9.84-5.43 10.44-4.83 11.19-4.83ZM8.91-2.53C9.64-2.53 10.25-3.13 10.25-3.88C10.25-4.62 9.64-5.21 8.91-5.21C8.16-5.21 7.56-4.62 7.56-3.88C7.56-3.13 8.16-2.53 8.91-2.53ZM6.62-0.23C7.36-0.23 7.96-0.83 7.96-1.58C7.96-2.32 7.36-2.92 6.62-2.92C5.87-2.92 5.27-2.32 5.27-1.58C5.27-0.83 5.87-0.23 6.62-0.23ZM4.34 2.06C5.07 2.06 5.67 1.46 5.67 0.71C5.67-0.04 5.07-0.63 4.34-0.63C3.59-0.63 2.99-0.04 2.99 0.71C2.99 1.46 3.59 2.06 4.34 2.06Z" fill="currentColor"/>
</svg>