<svg xmlns="http://www.w3.org/2000/svg" viewBox="0 0 24 24" width="24" height="24">
  
  <path transform="matrix(0.8615177519771159, 0, 0, 0.8615177519771159, -0.5744573447753658, 19.28924785461888)" d="M4.88 2.27C5.38 2.27 5.80 2.10 6.16 1.75L15.04-6.93C15.52-7.41 15.73-7.89 15.73-8.46C15.73-9.05 15.50-9.54 15.04-10.00L6.16-18.67C5.81-19.02 5.39-19.20 4.88-19.20C3.83-19.20 2.99-18.36 2.99-17.33C2.99-16.83 3.20-16.35 3.59-15.96L11.32-8.47L3.59-0.97C3.21-0.59 2.99-0.11 2.99 0.41C2.99 1.44 3.83 2.27 4.88 2.27ZM15.34 2.27C15.86 2.27 16.28 2.10 16.64 1.75L25.51-6.93C25.98-7.41 26.20-7.89 26.20-8.46C26.19-9.05 25.98-9.54 25.50-10.00L16.64-18.67C16.28-19.02 15.86-19.20 15.34-19.20C14.30-19.20 13.45-18.36 13.45-17.33C13.45-16.83 13.66-16.35 14.06-15.96L21.79-8.47L14.06-0.97C13.68-0.59 13.45-0.11 13.45 0.41C13.45 1.44 14.30 2.27 15.34 2.27Z" fill="currentColor"/>
</svg>