<svg xmlns="http://www.w3.org/2000/svg" viewBox="0 0 24 24" width="24" height="24">
  
  <path transform="matrix(0.7960199004975125, 0, 0, 0.7960199004975125, 2.5876865671641784, 18.73507462686567)" d="M11.82-21.02C11.25-21.02 10.76-20.79 10.29-20.32L3.67-13.97C3.27-13.58 2.99-13.11 2.99-12.59C2.99-11.48 3.90-10.71 4.85-10.71C5.32-10.71 5.82-10.85 6.22-11.25L11.82-16.73L17.43-11.25C17.84-10.86 18.33-10.71 18.80-10.71C19.76-10.71 20.66-11.48 20.66-12.59C20.66-13.11 20.39-13.58 19.99-13.97L13.37-20.32C12.89-20.79 12.41-21.02 11.82-21.02ZM11.82 4.10C12.41 4.10 12.89 3.87 13.37 3.40L19.99-2.95C20.39-3.34 20.66-3.81 20.66-4.34C20.66-5.44 19.76-6.21 18.80-6.21C18.33-6.21 17.84-6.06 17.43-5.67L11.82-0.19L6.22-5.67C5.82-6.07 5.32-6.21 4.85-6.21C3.90-6.21 2.99-5.44 2.99-4.34C2.99-3.81 3.27-3.34 3.67-2.95L10.29 3.40C10.76 3.87 11.25 4.10 11.82 4.10Z" fill="currentColor"/>
</svg>