<svg xmlns="http://www.w3.org/2000/svg" viewBox="0 0 24 24" width="24" height="24">
  <title>chevron.compact.backward</title>
  <path transform="matrix(0.9195402298850575, 0, 0, 0.9195402298850575, 5.84698275862069, 19.790948275862068)" d="M6.93 1.34C7.21 1.96 7.77 2.40 8.46 2.40C9.63 2.40 10.39 1.56 10.39 0.57C10.39 0.02 10.08-0.67 9.81-1.24L6.73-8.47L9.81-15.70C10.08-16.28 10.39-16.98 10.39-17.52C10.39-18.50 9.63-19.35 8.46-19.35C7.77-19.35 7.21-18.90 6.93-18.28L3.57-10.52C3.23-9.76 2.99-9.19 2.99-8.47C2.99-7.76 3.23-7.20 3.57-6.43Z" fill="currentColor"/>
</svg>