<svg xmlns="http://www.w3.org/2000/svg" viewBox="0 0 24 24" width="24" height="24">
  <title>chineseyuanrenminbisign.gauge.chart.leftthird.topthird.rightthird</title>
  <path transform="matrix(0.6829398426037081, 0, 0, 0.6829398426037081, 0.5674269707883155, 17.800813747563765)" d="M16.75-15.20C18.83-15.20 20.77-14.50 22.31-13.30C22.61-13.08 22.98-13.10 23.26-13.38L26.10-16.23C26.43-16.56 26.41-17.04 26.06-17.33C23.53-19.43 20.29-20.68 16.75-20.68C13.21-20.68 9.96-19.43 7.43-17.33C7.07-17.04 7.05-16.56 7.38-16.23L10.23-13.38C10.50-13.10 10.89-13.09 11.20-13.32C12.74-14.50 14.66-15.20 16.75-15.20ZM31.38-6.04C31.38-9.59 30.13-12.84 28.02-15.39C27.74-15.73 27.26-15.73 26.93-15.40L24.08-12.55C23.80-12.27 23.80-11.89 24.02-11.58C25.21-10.03 25.90-8.12 25.90-6.04C25.90-3.90 25.17-1.93 23.91-0.34C23.68-0.05 23.70 0.32 23.94 0.56L26.82 3.45C27.14 3.77 27.62 3.77 27.93 3.42C30.08 0.87 31.38-2.43 31.38-6.04ZM2.10-6.04C2.10-2.43 3.41 0.89 5.58 3.45C5.87 3.79 6.34 3.77 6.67 3.45L9.54 0.56C9.80 0.32 9.81-0.05 9.57-0.34C8.31-1.93 7.58-3.90 7.58-6.04C7.58-8.12 8.29-10.03 9.46-11.58C9.69-11.89 9.68-12.27 9.41-12.55L6.56-15.40C6.23-15.73 5.74-15.71 5.45-15.36C3.35-12.82 2.10-9.57 2.10-6.04ZM13.10-3.16C13.10-2.96 13.27-2.81 13.45-2.81L15.70-2.81L15.70-1.72C15.70-1.09 16.11-0.67 16.73-0.67C17.37-0.67 17.77-1.09 17.77-1.72L17.77-2.81L20.04-2.81C20.23-2.81 20.39-2.96 20.39-3.16C20.39-3.35 20.23-3.52 20.04-3.52L17.77-3.52L17.77-4.65L17.78-4.66L20.04-4.66C20.23-4.66 20.39-4.83 20.39-5.02C20.39-5.20 20.23-5.37 20.04-5.37L18.21-5.37L20.88-9.73C21.04-9.97 21.11-10.17 21.11-10.44C21.11-11.04 20.65-11.43 20.06-11.43C19.64-11.43 19.31-11.20 19.09-10.77L16.78-6.54L16.72-6.54L14.43-10.77C14.20-11.20 13.90-11.44 13.44-11.44C12.82-11.44 12.36-11.04 12.36-10.43C12.36-10.18 12.45-9.95 12.59-9.71L15.27-5.37L13.45-5.37C13.27-5.37 13.10-5.20 13.10-5.02C13.10-4.83 13.27-4.66 13.45-4.66L15.69-4.66L15.70-4.65L15.70-3.52L13.45-3.52C13.27-3.52 13.10-3.35 13.10-3.16Z" fill="currentColor"/>
</svg>