<svg xmlns="http://www.w3.org/2000/svg" viewBox="0 0 24 24" width="24" height="24">
  
  <path transform="matrix(0.6829398426037081, 0, 0, 0.6829398426037081, 0.5674269707883155, 17.795235653186992)" d="M2.10-6.06C2.10-2.45 3.40 0.84 5.55 3.40C5.85 3.75 6.33 3.75 6.66 3.42L9.54 0.53C9.80 0.28 9.80-0.08 9.57-0.36C8.31-1.97 7.58-3.93 7.58-6.06C7.58-10.70 11.04-14.53 15.50-15.14C15.89-15.19 16.16-15.48 16.16-15.86L16.16-19.88C16.16-20.34 15.81-20.68 15.34-20.64C7.92-19.93 2.10-13.68 2.10-6.06ZM31.38-6.06C31.38-13.68 25.57-19.93 18.14-20.64C17.68-20.68 17.32-20.34 17.32-19.88L17.32-15.86C17.32-15.48 17.60-15.19 17.98-15.14C22.45-14.53 25.90-10.70 25.90-6.06C25.90-3.93 25.18-1.97 23.91-0.36C23.68-0.07 23.68 0.28 23.94 0.54L26.82 3.42C27.15 3.76 27.63 3.75 27.93 3.40C30.09 0.84 31.38-2.46 31.38-6.06ZM13.10-3.16C13.10-2.96 13.27-2.81 13.45-2.81L15.70-2.81L15.70-1.72C15.70-1.09 16.11-0.67 16.73-0.67C17.37-0.67 17.77-1.09 17.77-1.72L17.77-2.81L20.04-2.81C20.23-2.81 20.39-2.96 20.39-3.16C20.39-3.35 20.23-3.52 20.04-3.52L17.77-3.52L17.77-4.65L17.78-4.66L20.04-4.66C20.23-4.66 20.39-4.83 20.39-5.02C20.39-5.20 20.23-5.37 20.04-5.37L18.21-5.37L20.88-9.73C21.04-9.97 21.11-10.17 21.11-10.44C21.11-11.04 20.65-11.43 20.06-11.43C19.64-11.43 19.31-11.20 19.09-10.77L16.78-6.54L16.72-6.54L14.43-10.77C14.20-11.20 13.90-11.44 13.44-11.44C12.82-11.44 12.36-11.04 12.36-10.43C12.36-10.18 12.45-9.95 12.59-9.71L15.27-5.37L13.45-5.37C13.27-5.37 13.10-5.20 13.10-5.02C13.10-4.83 13.27-4.66 13.45-4.66L15.69-4.66L15.70-4.65L15.70-3.52L13.45-3.52C13.27-3.52 13.10-3.35 13.10-3.16Z" fill="currentColor"/>
</svg>