<svg xmlns="http://www.w3.org/2000/svg" viewBox="0 0 24 24" width="24" height="24">
  <title>circle.circle</title>
  <path transform="matrix(0.8080808080808081, 0, 0, 0.8080808080808081, 0.30492424242424243, 18.83712121212121)" d="M14.47 3.91C21.30 3.91 26.85-1.63 26.85-8.46C26.85-15.29 21.30-20.84 14.47-20.84C7.64-20.84 2.10-15.29 2.10-8.46C2.10-1.63 7.64 3.91 14.47 3.91ZM14.47 0.83C9.34 0.83 5.18-3.33 5.18-8.46C5.18-13.61 9.34-17.75 14.47-17.75C19.62-17.75 23.77-13.61 23.77-8.46C23.77-3.33 19.62 0.83 14.47 0.83ZM14.47-2.45C17.79-2.45 20.48-5.14 20.48-8.46C20.48-11.79 17.79-14.47 14.47-14.47C11.14-14.47 8.46-11.79 8.46-8.46C8.46-5.14 11.14-2.45 14.47-2.45ZM14.47-4.92C12.52-4.92 10.93-6.50 10.93-8.46C10.93-10.42 12.52-12 14.47-12C16.43-12 18.01-10.42 18.01-8.46C18.01-6.50 16.43-4.92 14.47-4.92Z" fill="currentColor"/>
</svg>