<svg xmlns="http://www.w3.org/2000/svg" viewBox="0 0 24 24" width="24" height="24">
  <title>circle.lefthalf.striped.horizontal.inverse</title>
  <path transform="matrix(0.8080808080808081, 0, 0, 0.8080808080808081, 0.30492424242424243, 18.83712121212121)" d="M14.47 3.91C21.30 3.91 26.85-1.63 26.85-8.46C26.85-15.29 21.30-20.84 14.47-20.84C7.64-20.84 2.10-15.29 2.10-8.46C2.10-1.63 7.64 3.91 14.47 3.91ZM14.47-17.75L14.48-17.75L14.48-16.98L10.75-16.98C11.89-17.48 13.15-17.75 14.47-17.75ZM7.35-14.44C7.62-14.75 7.90-15.05 8.20-15.33L14.48-15.33L14.48-14.44ZM5.84-11.89C5.95-12.20 6.09-12.49 6.25-12.79L14.48-12.79L14.48-11.89ZM5.23-9.35C5.25-9.66 5.30-9.95 5.34-10.23L14.48-10.23L14.48-9.35ZM5.32-6.82C5.27-7.10 5.24-7.41 5.21-7.70L14.48-7.70L14.48-6.82ZM6.18-4.28C6.02-4.56 5.89-4.85 5.79-5.16L14.48-5.16L14.48-4.28ZM8.06-1.73C7.77-2.00 7.50-2.30 7.24-2.61L14.48-2.61L14.48-1.73ZM14.47 0.83C13.15 0.83 11.89 0.55 10.75 0.06L14.48 0.06L14.48 0.83Z" fill="currentColor"/>
</svg>