<svg xmlns="http://www.w3.org/2000/svg" viewBox="0 0 24 24" width="24" height="24">
  <title>cloud.sun.circle.fill</title>
  <path transform="matrix(0.8080808080808081, 0, 0, 0.8080808080808081, 0.30492424242424243, 18.827651515151516)" d="M14.47 3.93C21.30 3.93 26.85-1.62 26.85-8.45C26.85-15.28 21.30-20.82 14.47-20.82C7.64-20.82 2.10-15.28 2.10-8.45C2.10-1.62 7.64 3.93 14.47 3.93ZM17.13-12.80C16.78-12.80 16.50-13.08 16.50-13.43L16.50-14.47C16.50-14.85 16.78-15.12 17.13-15.12C17.48-15.12 17.77-14.85 17.77-14.47L17.77-13.43C17.77-13.08 17.48-12.80 17.13-12.80ZM19.62-11.78C19.36-12.01 19.36-12.42 19.62-12.67L20.34-13.42C20.60-13.66 21.01-13.65 21.25-13.42C21.49-13.18 21.48-12.77 21.23-12.52L20.50-11.77C20.27-11.52 19.85-11.54 19.62-11.78ZM13.77-11.78L13.04-12.53C12.82-12.77 12.79-13.18 13.03-13.43C13.27-13.65 13.66-13.65 13.95-13.42L14.68-12.67C14.91-12.43 14.92-12.01 14.68-11.77C14.44-11.54 14.02-11.52 13.77-11.78ZM19.96-9.32C19.96-8.37 19.50-7.54 18.77-7.02C18.52-8.66 17.20-9.90 15.49-10.13C15.30-10.42 15.07-10.68 14.82-10.91C15.30-11.65 16.16-12.13 17.13-12.13C18.71-12.13 19.96-10.89 19.96-9.32ZM8.88-3.52C7.44-3.52 6.48-4.44 6.48-5.77C6.48-6.80 7.11-7.63 8.05-7.92C8.25-9.76 9.81-11.18 11.71-11.18C13.27-11.18 14.36-10.34 14.94-9.25C16.65-9.22 17.91-8.00 17.91-6.36C17.91-4.75 16.69-3.52 15.08-3.52ZM21.26-8.68C20.92-8.68 20.63-8.98 20.63-9.32C20.63-9.67 20.92-9.95 21.26-9.95L22.30-9.95C22.66-9.95 22.93-9.67 22.93-9.32C22.93-8.98 22.66-8.68 22.30-8.68ZM20.34-5.19L19.61-5.94C19.36-6.20 19.36-6.60 19.61-6.83C19.84-7.08 20.26-7.08 20.52-6.83L21.23-6.11C21.49-5.86 21.48-5.46 21.25-5.21C21-4.97 20.60-4.95 20.34-5.19Z" fill="currentColor"/>
</svg>