<svg xmlns="http://www.w3.org/2000/svg" viewBox="0 0 24 24" width="24" height="24">
  
  <path transform="matrix(0.7388167388167388, 0, 0, 0.7388167388167388, -0.20779220779220786, 18.23809523809524)" d="M8.06 3.98L19.97 3.98C23.34 3.98 25.97 1.41 25.97-1.89C25.97-3.05 25.66-4.10 25.11-4.99C25.80-7.04 27.75-8.51 30.06-8.51L30.06-10.44C27.27-10.44 24.87-8.87 23.67-6.55C23.50-6.69 23.30-6.82 23.10-6.94C24.42-9.43 27.04-11.11 30.06-11.11L30.06-13.04C26.23-13.04 22.89-10.85 21.28-7.64C21.06-7.69 20.82-7.72 20.59-7.75C22.28-11.29 25.88-13.72 30.06-13.72L30.06-15.66C25.32-15.66 21.21-13.01 19.11-9.11C18.96-9.29 18.80-9.47 18.63-9.63C20.86-13.63 25.14-16.32 30.06-16.32L30.06-18.26C24.49-18.26 19.65-15.26 17.06-10.77C16.85-10.88 16.65-10.97 16.44-11.06C19.14-15.77 24.22-18.94 30.06-18.94L30.06-20.87C23.31-20.87 17.47-17.10 14.51-11.54C14.19-11.59 13.86-11.60 13.52-11.60C9.79-11.60 6.68-8.86 6.15-5.14C4.24-4.52 2.99-2.84 2.99-0.75C2.99 2.00 5.09 3.98 8.06 3.98Z" fill="currentColor"/>
</svg>