<svg xmlns="http://www.w3.org/2000/svg" viewBox="0 0 24 24" width="24" height="24">
  
  <path transform="matrix(0.8080808080808081, 0, 0, 0.8080808080808081, 0.30492424242424243, 18.827651515151516)" d="M14.47 3.93C21.30 3.93 26.85-1.62 26.85-8.45C26.85-15.28 21.30-20.82 14.47-20.82C7.64-20.82 2.10-15.28 2.10-8.45C2.10-1.62 7.64 3.93 14.47 3.93ZM11.10-7.30C9.42-7.30 8.36-8.39 8.36-9.83C8.36-10.99 9.08-11.88 10.15-12.25C10.39-14.33 12.13-15.87 14.23-15.87C15.86-15.87 17.10-15.07 17.81-13.70C19.71-13.70 21.16-12.33 21.16-10.49C21.16-8.70 19.75-7.30 17.91-7.30ZM11.96-4.24C11.81-3.97 11.44-3.86 11.16-4.02C10.85-4.18 10.78-4.57 10.92-4.84L11.55-5.93C11.71-6.19 12.07-6.30 12.38-6.14C12.66-5.98 12.74-5.60 12.59-5.32ZM18.07-4.24C17.93-3.97 17.55-3.86 17.26-4.02C16.97-4.18 16.89-4.57 17.04-4.84L17.66-5.93C17.81-6.19 18.19-6.30 18.48-6.14C18.77-5.98 18.86-5.60 18.70-5.32ZM15.02-4.22C14.87-3.96 14.50-3.84 14.21-4.01C13.92-4.17 13.84-4.56 13.99-4.83L14.60-5.92C14.77-6.18 15.14-6.29 15.43-6.13C15.71-5.96 15.80-5.59 15.64-5.31ZM10.43-1.43C10.24-1.43 10.11-1.59 10.13-1.78L10.16-2.23L9.82-1.96C9.67-1.85 9.46-1.88 9.36-2.04C9.27-2.20 9.33-2.40 9.53-2.48L9.93-2.66L9.54-2.84C9.34-2.92 9.28-3.13 9.38-3.27C9.47-3.43 9.67-3.46 9.82-3.35L10.16-3.09L10.11-3.52C10.10-3.71 10.24-3.88 10.43-3.88C10.62-3.88 10.76-3.73 10.72-3.52L10.68-3.09L11.04-3.35C11.18-3.45 11.40-3.42 11.48-3.27C11.57-3.11 11.51-2.92 11.32-2.84L10.92-2.65L11.31-2.50C11.52-2.41 11.58-2.19 11.47-2.03C11.39-1.89 11.19-1.85 11.04-1.96L10.68-2.23L10.72-1.78C10.76-1.59 10.62-1.43 10.43-1.43ZM16.55-1.43C16.35-1.43 16.22-1.59 16.23-1.78L16.27-2.23L15.93-1.96C15.77-1.85 15.56-1.88 15.47-2.04C15.38-2.20 15.43-2.40 15.63-2.48L16.03-2.66L15.64-2.84C15.43-2.92 15.40-3.13 15.48-3.27C15.57-3.43 15.79-3.46 15.93-3.35L16.27-3.09L16.23-3.52C16.21-3.71 16.35-3.88 16.55-3.88C16.73-3.88 16.86-3.73 16.84-3.52L16.78-3.09L17.14-3.35C17.29-3.45 17.51-3.42 17.59-3.27C17.67-3.11 17.61-2.91 17.44-2.84L17.04-2.65L17.43-2.50C17.63-2.41 17.68-2.19 17.58-2.03C17.50-1.89 17.30-1.85 17.14-1.96L16.78-2.23L16.84-1.78C16.86-1.59 16.73-1.43 16.55-1.43ZM13.50-1.42C13.29-1.42 13.16-1.58 13.18-1.77L13.22-2.21L12.88-1.95C12.73-1.84 12.52-1.86 12.42-2.03C12.33-2.19 12.39-2.39 12.57-2.47L12.98-2.65L12.59-2.81C12.39-2.91 12.34-3.12 12.42-3.26C12.52-3.42 12.74-3.45 12.88-3.33L13.22-3.07L13.18-3.50C13.15-3.70 13.29-3.87 13.50-3.87C13.68-3.87 13.82-3.71 13.78-3.50L13.73-3.07L14.09-3.33C14.24-3.43 14.46-3.41 14.54-3.26C14.64-3.09 14.57-2.89 14.38-2.81L13.98-2.64L14.37-2.48C14.58-2.40 14.64-2.18 14.52-2.02C14.44-1.88 14.25-1.84 14.09-1.95L13.73-2.21L13.78-1.77C13.82-1.58 13.68-1.42 13.50-1.42Z" fill="currentColor"/>
</svg>