<svg xmlns="http://www.w3.org/2000/svg" viewBox="0 0 24 24" width="24" height="24">
  
  <path transform="matrix(0.8080808080808081, 0, 0, 0.8080808080808081, 0.30492424242424243, 18.827651515151516)" d="M14.47 3.93C21.30 3.93 26.85-1.62 26.85-8.45C26.85-15.28 21.30-20.82 14.47-20.82C7.64-20.82 2.10-15.28 2.10-8.45C2.10-1.62 7.64 3.93 14.47 3.93ZM10.86-7.20C9.19-7.20 8.12-8.29 8.12-9.73C8.12-10.89 8.85-11.79 9.91-12.14C10.16-14.23 11.89-15.76 13.99-15.76C15.62-15.76 16.86-14.96 17.58-13.59C19.49-13.59 20.93-12.22 20.93-10.38C20.93-8.59 19.51-7.20 17.67-7.20ZM9.89-2.30C9.74-2.02 9.38-1.91 9.08-2.07C8.79-2.24 8.70-2.61 8.86-2.89L10.55-5.82C10.70-6.11 11.06-6.20 11.36-6.04C11.65-5.87 11.74-5.51 11.58-5.21ZM15.11-2.30C14.94-2.02 14.58-1.91 14.30-2.07C13.99-2.24 13.92-2.61 14.07-2.89L15.76-5.82C15.91-6.11 16.28-6.20 16.57-6.04C16.86-5.87 16.96-5.51 16.79-5.21ZM12.50-2.29C12.34-2.00 11.98-1.90 11.70-2.06C11.40-2.23 11.31-2.60 11.47-2.87L13.15-5.80C13.32-6.09 13.68-6.19 13.96-6.02C14.26-5.86 14.36-5.48 14.18-5.20ZM17.71-2.29C17.57-2.00 17.19-1.90 16.91-2.06C16.61-2.23 16.52-2.60 16.68-2.87L18.36-5.80C18.53-6.09 18.89-6.19 19.18-6.02C19.46-5.86 19.56-5.48 19.41-5.20Z" fill="currentColor"/>
</svg>