<svg xmlns="http://www.w3.org/2000/svg" viewBox="0 0 24 24" width="24" height="24">
  
  <path transform="matrix(0.7442511835638945, 0, 0, 0.7442511835638945, 2.0186000600209093, 18.29706274843514)" d="M0.90-10.98C-0.04-10.98-0.27-10.20 0.23-9.52L3.14-5.64C3.50-5.13 4.13-5.14 4.50-5.64L7.38-9.53C7.88-10.20 7.65-10.98 6.73-10.98L5.52-10.98C6.62-14.89 10.21-17.75 14.47-17.75C19.61-17.75 23.77-13.61 23.77-8.46C23.77-3.33 19.61 0.83 14.47 0.83C11.66 0.83 9.22-0.40 7.49-2.40C6.82-3.07 5.92-3.29 5.20-2.68C4.56-2.13 4.46-1.15 5.20-0.36C7.51 2.33 10.89 3.91 14.47 3.91C21.29 3.91 26.85-1.63 26.85-8.46C26.85-15.29 21.29-20.84 14.47-20.84C8.51-20.84 3.53-16.62 2.36-10.98ZM12.14-2.19C12.32-2.19 12.42-2.27 12.47-2.45L12.81-3.84C13.16-3.73 13.54-3.64 13.95-3.60L13.72-2.68C13.71-2.61 13.70-2.57 13.70-2.52C13.70-2.33 13.84-2.19 14.04-2.19C14.21-2.19 14.33-2.27 14.37-2.45L14.64-3.56C16.30-3.59 17.91-4.37 18.46-5.85C18.55-6.07 18.57-6.26 18.57-6.48C18.57-7.05 18.18-7.38 17.65-7.38C17.18-7.38 16.93-7.13 16.75-6.71C16.45-5.93 15.84-5.41 15.06-5.27L16.42-10.89C16.54-10.73 16.62-10.56 16.69-10.37C16.88-9.94 17.13-9.70 17.63-9.70C18.13-9.70 18.50-10.01 18.50-10.57C18.50-10.83 18.45-11.10 18.32-11.33C18-12.02 17.50-12.54 16.91-12.89L17.24-14.29C17.26-14.37 17.27-14.41 17.27-14.45C17.27-14.64 17.14-14.78 16.95-14.78C16.76-14.78 16.64-14.68 16.61-14.52L16.28-13.20C15.91-13.32 15.54-13.42 15.14-13.46L15.34-14.29C15.36-14.37 15.38-14.41 15.38-14.45C15.38-14.64 15.23-14.78 15.04-14.78C14.85-14.78 14.74-14.68 14.70-14.52L14.45-13.50C11.60-13.50 9.97-11.45 9.97-8.53C9.97-6.50 10.73-4.92 12.18-4.13L11.82-2.68C11.81-2.61 11.80-2.57 11.80-2.52C11.80-2.33 11.94-2.19 12.14-2.19ZM13.23-5.60L14.74-11.84C15.16-11.80 15.54-11.66 15.86-11.45L14.34-5.23C13.91-5.26 13.54-5.39 13.23-5.60ZM12.04-8.54C12.04-10.09 12.67-11.52 14.04-11.80L12.67-6.18C12.23-6.80 12.04-7.66 12.04-8.54Z" fill="currentColor"/>
</svg>