<svg xmlns="http://www.w3.org/2000/svg" viewBox="0 0 24 24" width="24" height="24">
  <title>cone</title>
  <path transform="matrix(0.7619047619047619, 0, 0, 0.7619047619047619, 0.6919642857142863, 18.285714285714285)" d="M2.39-0.41C2.40 2.60 7.30 4.88 14.85 4.88C22.38 4.88 27.29 2.60 27.29-0.41C27.29-0.91 27.11-1.54 26.78-2.13L16.49-20.41C16.11-21.09 15.49-21.38 14.85-21.38C14.19-21.38 13.58-21.09 13.20-20.41L2.91-2.13C2.58-1.54 2.39-0.91 2.39-0.41ZM5.47-0.43C5.47-0.53 5.55-0.71 5.70-0.97L14.61-16.93C14.67-17.03 14.75-17.09 14.85-17.09C14.93-17.09 15.01-17.03 15.07-16.93L23.99-0.97C24.13-0.71 24.21-0.53 24.21-0.43C24.21 0.79 20.14 2.05 14.85 2.05C9.54 2.05 5.47 0.79 5.47-0.43Z" fill="currentColor"/>
</svg>