<svg xmlns="http://www.w3.org/2000/svg" viewBox="0 0 24 24" width="24" height="24">
  
  <path transform="matrix(0.442440940696366, 0, 0, 0.442440940696366, 0.6778620326846874, 16.63783801316732)" d="M43.78-22.35L43.22-20.85C39.97-22.24 36.25-22.41 33.59-22.18C32.95-22.14 32.46-21.60 32.51-20.95C32.55-20.32 33.12-19.83 33.76-19.88C36.30-20.09 39.61-19.92 42.40-18.68L41.79-17.10C41.48-16.21 42-15.76 42.87-15.98L47.46-17.19C48.19-17.38 48.40-17.98 47.98-18.56L45.28-22.51C44.79-23.20 44.11-23.21 43.78-22.35ZM38.43-13.64C36.62-13.97 34.88-14.09 32.77-13.96L22.37-13.34C23.75-14.38 25.13-15.29 26.74-16.22C28.34-17.18 27-19.49 25.29-18.55C22.31-16.91 19.57-15.07 17.20-13.07L9.19-11.58C5.11-10.82 2.99-8.85 2.99-5.51L2.99-3.63C2.99-1.57 3.93-0.52 5.99-0.28L8.00-0.05C7.85-0.49 7.76-1.16 7.76-1.72C7.76-4.68 10.15-7.05 13.10-7.05C16.07-7.05 18.45-4.68 18.45-1.72C18.45-1.29 18.40-0.84 18.30-0.49L32.79-0.49C32.68-0.86 32.63-1.29 32.63-1.72C32.63-4.68 35.02-7.05 37.98-7.05C40.93-7.05 43.31-4.55 43.31-1.59C43.31-1.35 43.30-1.15 43.27-0.91L44.21-1.01C46.76-1.28 48-2.70 48-5.31L48-7.73C48-10.80 46.83-12.13 43.96-12.64ZM13.10 2.05C15.20 2.05 16.88 0.38 16.88-1.72C16.88-3.82 15.20-5.48 13.10-5.48C11.00-5.48 9.33-3.82 9.33-1.72C9.33 0.38 11.00 2.05 13.10 2.05ZM37.98 2.05C40.07 2.05 41.75 0.38 41.75-1.72C41.75-3.82 40.07-5.48 37.98-5.48C35.88-5.48 34.20-3.82 34.20-1.72C34.20 0.38 35.88 2.05 37.98 2.05Z" fill="currentColor"/>
</svg>