<svg xmlns="http://www.w3.org/2000/svg" viewBox="0 0 24 24" width="24" height="24">
  
  <path transform="matrix(0.6459445399540132, 0, 0, 0.6459445399540132, 1.7771706889699819, 17.46529638101716)" d="M22.28-18.63L22.28-19.97L22.84-19.97C24.93-19.97 26.37-18.46 26.37-16.29L26.37-14.92C26.37-14.40 26.79-13.97 27.32-13.97C27.82-13.97 28.24-14.40 28.24-14.92L28.24-16.29C28.24-19.52 25.97-21.75 22.80-21.75L22.28-21.75L22.28-23.06C22.28-23.94 21.54-24.19 20.87-23.68L17.92-21.46C17.46-21.12 17.46-20.60 17.92-20.26L20.87-18.04C21.53-17.54 22.28-17.80 22.28-18.63ZM3.16-13.30C3.16-12.41 3.79-11.82 4.73-11.82L9.41-11.82L9.41-3.30C9.41-2.64 9.87-2.18 10.54-2.18L19.18-2.18L19.18 2.26C19.18 3.19 19.80 3.81 20.72 3.81C21.66 3.81 22.28 3.19 22.28 2.26L22.28-2.18L26.92-2.18C27.87-2.18 28.49-2.78 28.49-3.67C28.49-4.55 27.87-5.14 26.92-5.14L22.28-5.14L22.28-13.65C22.28-14.33 21.83-14.78 21.15-14.78L12.50-14.78L12.50-19.18C12.50-20.11 11.88-20.74 10.97-20.74C10.03-20.74 9.41-20.11 9.41-19.18L9.41-14.78L4.73-14.78C3.79-14.78 3.16-14.19 3.16-13.30ZM12.83-5.14C12.61-5.14 12.50-5.25 12.50-5.46L12.50-11.82L18.87-11.82C19.08-11.82 19.18-11.72 19.18-11.50L19.18-5.14ZM9.41 1.71L9.41 3.05L8.85 3.05C6.77 3.05 5.33 1.54 5.33-0.63L5.33-2.00C5.33-2.52 4.90-2.95 4.37-2.95C3.87-2.95 3.45-2.52 3.45-2.00L3.45-0.63C3.45 2.60 5.72 4.82 8.88 4.82L9.41 4.82L9.41 6.14C9.41 7.02 10.15 7.27 10.82 6.76L13.77 4.54C14.23 4.18 14.24 3.68 13.77 3.33L10.82 1.11C10.16 0.61 9.41 0.87 9.41 1.71Z" fill="currentColor"/>
</svg>