<svg xmlns="http://www.w3.org/2000/svg" viewBox="0 0 24 24" width="24" height="24">
  <title>cruzeirosign.gauge.chart.leftthird.topthird.rightthird</title>
  <path transform="matrix(0.6829398426037081, 0, 0, 0.6829398426037081, 0.5674269707883155, 17.800813747563765)" d="M16.75-15.20C18.83-15.20 20.77-14.50 22.31-13.30C22.61-13.08 22.98-13.10 23.26-13.38L26.10-16.23C26.43-16.56 26.41-17.04 26.06-17.33C23.53-19.43 20.29-20.68 16.75-20.68C13.21-20.68 9.96-19.43 7.43-17.33C7.07-17.04 7.05-16.56 7.38-16.23L10.23-13.38C10.50-13.10 10.89-13.09 11.20-13.32C12.74-14.50 14.66-15.20 16.75-15.20ZM31.38-6.04C31.38-9.59 30.13-12.84 28.02-15.39C27.74-15.73 27.26-15.73 26.93-15.40L24.08-12.55C23.80-12.27 23.80-11.89 24.02-11.58C25.21-10.03 25.90-8.12 25.90-6.04C25.90-3.90 25.17-1.93 23.91-0.34C23.68-0.05 23.70 0.32 23.94 0.56L26.82 3.45C27.14 3.77 27.62 3.77 27.93 3.42C30.08 0.87 31.38-2.43 31.38-6.04ZM2.10-6.04C2.10-2.43 3.41 0.89 5.58 3.45C5.87 3.79 6.34 3.77 6.67 3.45L9.54 0.56C9.80 0.32 9.81-0.05 9.57-0.34C8.31-1.93 7.58-3.90 7.58-6.04C7.58-8.12 8.29-10.03 9.46-11.58C9.69-11.89 9.68-12.27 9.41-12.55L6.56-15.40C6.23-15.73 5.74-15.71 5.45-15.36C3.35-12.82 2.10-9.57 2.10-6.04ZM16.83-0.94C18.52-0.94 20.17-1.69 20.73-3.14C20.80-3.30 20.85-3.52 20.85-3.70C20.85-4.23 20.45-4.54 19.92-4.54C19.45-4.54 19.18-4.29 19.00-3.87C18.64-2.96 17.92-2.52 17.06-2.46L17.06-3.84C17.06-4.69 17.55-5.27 18.30-5.41C18.54-5.54 18.80-5.59 19.04-5.59C19.29-5.59 19.42-5.63 19.51-5.78C19.61-5.87 19.65-5.99 19.56-6.16C19.49-6.34 19.23-6.41 19.00-6.45C18.07-6.49 17.33-6.01 17.07-5.19L17.04-5.19L17.04-6.04C17.04-6.27 16.90-6.42 16.68-6.42C16.44-6.42 16.30-6.27 16.30-6.04L16.30-2.51C14.85-2.84 14.31-4.43 14.31-6.04C14.31-7.80 15.08-9.41 16.92-9.41C17.87-9.41 18.64-8.93 18.97-8.09C19.18-7.64 19.42-7.44 19.90-7.44C20.38-7.44 20.78-7.75 20.78-8.26C20.78-8.47 20.71-8.75 20.59-8.96C19.92-10.41 18.39-11.11 16.78-11.11C13.96-11.11 12.18-9.11 12.18-6.02C12.18-3.07 13.78-0.94 16.83-0.94Z" fill="currentColor"/>
</svg>