<svg xmlns="http://www.w3.org/2000/svg" viewBox="0 0 24 24" width="24" height="24">
  <title>cruzeirosign.gauge.chart.lefthalf.righthalf</title>
  <path transform="matrix(0.6829398426037081, 0, 0, 0.6829398426037081, 0.5674269707883155, 17.795235653186992)" d="M2.10-6.06C2.10-2.45 3.40 0.84 5.55 3.40C5.85 3.75 6.33 3.75 6.66 3.42L9.54 0.53C9.80 0.28 9.80-0.08 9.57-0.36C8.31-1.97 7.58-3.93 7.58-6.06C7.58-10.70 11.04-14.53 15.50-15.14C15.89-15.19 16.16-15.48 16.16-15.86L16.16-19.88C16.16-20.34 15.81-20.68 15.34-20.64C7.92-19.93 2.10-13.68 2.10-6.06ZM31.38-6.06C31.38-13.68 25.57-19.93 18.14-20.64C17.68-20.68 17.32-20.34 17.32-19.88L17.32-15.86C17.32-15.48 17.60-15.19 17.98-15.14C22.45-14.53 25.90-10.70 25.90-6.06C25.90-3.93 25.18-1.97 23.91-0.36C23.68-0.07 23.68 0.28 23.94 0.54L26.82 3.42C27.15 3.76 27.63 3.75 27.93 3.40C30.09 0.84 31.38-2.46 31.38-6.06ZM16.83-0.94C18.52-0.94 20.17-1.69 20.73-3.14C20.80-3.30 20.85-3.52 20.85-3.70C20.85-4.23 20.45-4.54 19.92-4.54C19.45-4.54 19.18-4.29 19.00-3.87C18.64-2.96 17.92-2.52 17.06-2.46L17.06-3.84C17.06-4.69 17.55-5.27 18.30-5.41C18.54-5.54 18.80-5.59 19.04-5.59C19.29-5.59 19.42-5.63 19.51-5.78C19.61-5.87 19.65-5.99 19.56-6.16C19.49-6.34 19.23-6.41 19.00-6.45C18.07-6.49 17.33-6.01 17.07-5.19L17.04-5.19L17.04-6.04C17.04-6.27 16.90-6.42 16.68-6.42C16.44-6.42 16.30-6.27 16.30-6.04L16.30-2.51C14.85-2.84 14.31-4.43 14.31-6.04C14.31-7.80 15.08-9.41 16.92-9.41C17.87-9.41 18.64-8.93 18.97-8.09C19.18-7.64 19.42-7.44 19.90-7.44C20.38-7.44 20.78-7.75 20.78-8.26C20.78-8.47 20.71-8.75 20.59-8.96C19.92-10.41 18.39-11.11 16.78-11.11C13.96-11.11 12.18-9.11 12.18-6.02C12.18-3.07 13.78-0.94 16.83-0.94Z" fill="currentColor"/>
</svg>