<svg xmlns="http://www.w3.org/2000/svg" viewBox="0 0 24 24" width="24" height="24">
  <title>d.circle.fill</title>
  <path transform="matrix(0.8080808080808081, 0, 0, 0.8080808080808081, 0.30492424242424243, 18.83712121212121)" d="M14.47 3.91C21.30 3.91 26.85-1.63 26.85-8.46C26.85-15.29 21.30-20.84 14.47-20.84C7.64-20.84 2.10-15.29 2.10-8.46C2.10-1.63 7.64 3.91 14.47 3.91ZM11.46-2.99C10.37-2.99 9.82-3.61 9.82-4.73L9.82-12.28C9.82-13.39 10.37-14.03 11.46-14.03L14.53-14.03C17.98-14.03 19.89-12.05 19.89-8.52C19.89-4.97 17.95-2.99 14.53-2.99ZM12.73-5.26L14.06-5.26C15.90-5.26 16.80-6.28 16.80-8.51C16.80-10.68 15.89-11.75 14.06-11.75L12.73-11.75Z" fill="currentColor"/>
</svg>