<svg xmlns="http://www.w3.org/2000/svg" viewBox="0 0 24 24" width="24" height="24">
  
  <path transform="matrix(0.8080808080808081, 0, 0, 0.8080808080808081, 0.30492424242424243, 18.83712121212121)" d="M14.47 3.91C21.30 3.91 26.85-1.63 26.85-8.46C26.85-15.29 21.30-20.84 14.47-20.84C7.64-20.84 2.10-15.29 2.10-8.46C2.10-1.63 7.64 3.91 14.47 3.91ZM14.47 0.83C9.34 0.83 5.18-3.33 5.18-8.46C5.18-13.61 9.34-17.75 14.47-17.75C19.62-17.75 23.77-13.61 23.77-8.46C23.77-3.33 19.62 0.83 14.47 0.83ZM9.94-4.10C10.44-4.10 10.80-4.46 10.80-4.99L10.80-6.39L11.36-6.93L12.87-4.64C13.05-4.32 13.30-4.10 13.69-4.10C14.14-4.10 14.53-4.43 14.53-4.85C14.53-5.13 14.44-5.30 14.30-5.51L12.63-7.92L14.19-9.52C14.41-9.75 14.52-9.93 14.52-10.17C14.52-10.59 14.19-10.92 13.75-10.92C13.48-10.92 13.22-10.78 13.04-10.58L10.83-8.13L10.80-8.13L10.80-12.52C10.80-13.04 10.44-13.42 9.94-13.42C9.43-13.42 9.07-13.05 9.07-12.53L9.07-4.99C9.07-4.46 9.43-4.10 9.94-4.10ZM16.55-4.10C16.98-4.10 17.36-4.41 17.36-4.99L17.36-7.93C17.36-8.64 17.58-9.27 18.39-9.28C18.67-9.28 18.97-9.34 19.16-9.50C19.35-9.62 19.44-9.82 19.44-10.10C19.44-10.61 19.14-10.92 18.64-10.92C17.92-10.92 17.50-10.29 17.37-9.57L17.29-9.57L17.29-10.07C17.29-10.57 16.97-10.92 16.51-10.92C16.04-10.92 15.71-10.57 15.71-10.07L15.71-4.99C15.71-4.46 16.04-4.10 16.55-4.10ZM19.90-4.18C20.47-4.18 20.87-4.58 20.87-5.14C20.87-5.70 20.47-6.11 19.90-6.11C19.34-6.11 18.94-5.70 18.94-5.14C18.94-4.58 19.34-4.18 19.90-4.18Z" fill="currentColor"/>
</svg>