<svg xmlns="http://www.w3.org/2000/svg" viewBox="0 0 24 24" width="24" height="24">
  
  <path transform="matrix(0.6942540869691937, 0, 0, 0.6942540869691937, 1.2729607773177913, 17.767161178276922)" d="M15.45-11.57C22.76-11.57 27.30-13.75 27.30-17.14C27.30-20.53 22.76-22.71 15.45-22.71C8.13-22.71 3.60-20.53 3.60-17.14C3.60-13.75 8.13-11.57 15.45-11.57ZM15.45-4.52C23.23-4.52 27.91-6.89 27.91-12.21L27.91-13.57C27.04-12.50 25.75-11.65 24.08-11.00L24.08-9.35C24.08-8.88 23.68-8.47 23.20-8.47C22.72-8.47 22.32-8.87 22.32-9.35L22.32-10.44C21.68-10.27 20.98-10.13 20.31-10.02L20.31-8.65C20.31-8.17 19.91-7.77 19.43-7.77C18.94-7.77 18.54-8.17 18.54-8.65L18.54-9.80C17.80-9.73 17.00-9.68 16.25-9.67L16.25-8.38C16.25-7.90 15.86-7.51 15.38-7.51C14.88-7.51 14.50-7.90 14.50-8.38L14.50-9.67C13.71-9.69 12.95-9.74 12.20-9.81L12.20-8.65C12.20-8.17 11.80-7.77 11.32-7.77C10.83-7.77 10.44-8.17 10.44-8.65L10.44-10.04C9.73-10.16 9.06-10.30 8.41-10.49L8.41-9.35C8.41-8.87 8.02-8.47 7.54-8.47C7.05-8.47 6.66-8.88 6.66-9.35L6.66-11.06C5.07-11.70 3.83-12.54 2.99-13.57L2.99-12.21C2.99-6.89 7.66-4.52 15.45-4.52ZM10.51 5.20L11.03 3.56C12.75 3.96 14.57 4.17 16.44 4.17C19.11 4.17 21.70 3.73 24.04 2.93C24.66 2.72 24.91 2.18 24.91 1.66C24.91 0.84 24.21 0.02 23.14 0.41C21.11 1.14 18.84 1.50 16.44 1.50C14.84 1.50 13.30 1.31 11.84 0.98L12.35-0.63C12.70-1.79 11.52-2.45 10.72-2.12L6.27-0.38C5.48-0.06 5.21 0.84 5.73 1.59L8.37 5.55C8.89 6.33 10.17 6.33 10.51 5.20Z" fill="currentColor"/>
</svg>