<svg xmlns="http://www.w3.org/2000/svg" viewBox="0 0 24 24" width="24" height="24">
  <title>digitalcrown.horizontal.press</title>
  <path transform="matrix(0.6867873910127431, 0, 0, 0.6867873910127431, 1.3883299798792756, 18.42655935613682)" d="M18.89-16.59L16.84-16.59L16.84-22.54C16.84-23.37 16.23-23.92 15.46-23.92C14.67-23.92 14.06-23.37 14.06-22.54L14.06-16.59L11.98-16.59C10.88-16.59 10.41-15.47 11.13-14.64L14.61-10.68C15.09-10.14 15.79-10.14 16.27-10.68L19.76-14.64C20.48-15.46 20.05-16.59 18.89-16.59ZM15.45 5.20C23.23 5.20 27.91 2.82 27.91-2.50L27.91-7.42C27.91-10.24 25.25-12.27 20.80-13.14L18.53-10.57C22.46-10.17 24.89-9.02 24.89-7.42C24.89-5.45 21.18-4.13 15.45-4.13C9.73-4.13 6.01-5.45 6.01-7.42C6.01-9.01 8.43-10.17 12.36-10.57L10.11-13.14C5.64-12.28 2.99-10.24 2.99-7.42L2.99-2.50C2.99 2.82 7.66 5.20 15.45 5.20ZM9.52-1.09L9.52-1.83C9.98-1.72 10.48-1.63 10.98-1.55L10.98-0.39C10.98 0.09 11.38 0.49 11.87 0.49C12.35 0.49 12.75 0.09 12.75-0.39L12.75-1.35C13.31-1.30 13.89-1.27 14.50-1.25L14.50-0.12C14.50 0.36 14.88 0.76 15.38 0.76C15.86 0.76 16.25 0.36 16.25-0.12L16.25-1.24C16.85-1.27 17.43-1.29 17.99-1.34L17.99-0.39C17.99 0.09 18.39 0.49 18.88 0.49C19.36 0.49 19.76 0.09 19.76-0.39L19.76-1.52C20.27-1.61 20.77-1.69 21.23-1.79L21.23-1.09C21.23-0.61 21.62-0.21 22.11-0.21C22.59-0.21 22.99-0.61 22.99-1.09L22.99-2.26C23.70-2.50 24.33-2.77 24.89-3.07L24.89-2.50C24.89 0.81 21.30 2.17 15.45 2.17C9.60 2.17 6.01 0.81 6.01-2.50L6.01-3.07C6.53-2.79 7.11-2.54 7.75-2.32L7.75-1.09C7.75-0.61 8.16-0.21 8.64-0.21C9.12-0.21 9.52-0.61 9.52-1.09Z" fill="currentColor"/>
</svg>