<svg xmlns="http://www.w3.org/2000/svg" viewBox="0 0 24 24" width="24" height="24">
  <title>digitalcrown.horizontal.press.fill</title>
  <path transform="matrix(0.6867873910127431, 0, 0, 0.6867873910127431, 1.3883299798792756, 18.42655935613682)" d="M18.89-16.59L16.84-16.59L16.84-22.54C16.84-23.37 16.23-23.92 15.46-23.92C14.67-23.92 14.06-23.37 14.06-22.54L14.06-16.59L11.98-16.59C10.88-16.59 10.41-15.47 11.13-14.64L14.61-10.68C15.09-10.14 15.79-10.14 16.27-10.68L19.76-14.64C20.48-15.46 20.05-16.59 18.89-16.59ZM13.29-9.50L10.57-12.60C6.18-11.84 3.60-9.97 3.60-7.42C3.60-4.03 8.13-1.85 15.45-1.85C22.76-1.85 27.30-4.03 27.30-7.42C27.30-9.97 24.73-11.84 20.34-12.60L17.59-9.50C16.42-8.17 14.47-8.17 13.29-9.50ZM15.45 5.20C23.23 5.20 27.91 2.82 27.91-2.50L27.91-3.84C27.04-2.79 25.75-1.93 24.08-1.29L24.08 0.36C24.08 0.83 23.68 1.24 23.20 1.24C22.72 1.24 22.32 0.84 22.32 0.36L22.32-0.73C21.68-0.55 20.98-0.41 20.31-0.30L20.31 1.07C20.31 1.55 19.91 1.95 19.43 1.95C18.94 1.95 18.54 1.55 18.54 1.07L18.54-0.08C17.80-0.01 17.00 0.04 16.25 0.05L16.25 1.34C16.25 1.82 15.86 2.20 15.38 2.20C14.88 2.20 14.50 1.82 14.50 1.34L14.50 0.05C13.71 0.04 12.95-0.02 12.20-0.09L12.20 1.07C12.20 1.55 11.80 1.95 11.32 1.95C10.83 1.95 10.44 1.55 10.44 1.07L10.44-0.33C9.73-0.45 9.06-0.59 8.41-0.77L8.41 0.36C8.41 0.84 8.02 1.24 7.54 1.24C7.05 1.24 6.66 0.83 6.66 0.36L6.66-1.35C5.07-1.98 3.83-2.82 2.99-3.84L2.99-2.50C2.99 2.82 7.66 5.20 15.45 5.20Z" fill="currentColor"/>
</svg>