<svg xmlns="http://www.w3.org/2000/svg" viewBox="0 0 24 24" width="24" height="24">
  
  <path transform="matrix(0.5876951331496786, 0, 0, 0.5876951331496786, 0.24380165289256195, 16.972451790633606)" d="M4.41 6.54C5.17 6.54 5.82 5.92 5.82 5.14L5.82-22.07C5.82-22.84 5.17-23.46 4.41-23.46C3.63-23.46 2.99-22.84 2.99-22.07L2.99 5.14C2.99 5.92 3.63 6.54 4.41 6.54ZM23.19 6.54C23.95 6.54 24.60 5.92 24.60 5.14L24.60-22.07C24.60-22.84 23.95-23.46 23.19-23.46C22.42-23.46 21.77-22.84 21.77-22.07L21.77 5.14C21.77 5.92 22.42 6.54 23.19 6.54ZM10.77 3.68L15.15 3.68C17.06 3.68 18.23 2.51 18.23 0.55L18.23-17.47C18.23-19.42 17.06-20.60 15.15-20.60L10.77-20.60C8.85-20.60 7.68-19.42 7.68-17.47L7.68 0.55C7.68 2.51 8.85 3.68 10.77 3.68ZM11.31 0.82C10.82 0.82 10.54 0.54 10.54 0.07L10.54-16.99C10.54-17.46 10.82-17.74 11.31-17.74L14.60-17.74C15.09-17.74 15.38-17.46 15.38-16.99L15.38 0.07C15.38 0.54 15.09 0.82 14.60 0.82ZM29.55-0.28L33.94-0.28C35.85-0.28 37.02-1.46 37.02-3.41L37.02-13.51C37.02-15.46 35.85-16.64 33.94-16.64L29.55-16.64C27.63-16.64 26.46-15.46 26.46-13.51L26.46-3.41C26.46-1.46 27.63-0.28 29.55-0.28ZM30.09-3.14C29.60-3.14 29.32-3.42 29.32-3.90L29.32-13.03C29.32-13.50 29.60-13.78 30.09-13.78L33.39-13.78C33.88-13.78 34.16-13.50 34.16-13.03L34.16-3.90C34.16-3.42 33.88-3.14 33.39-3.14Z" fill="currentColor"/>
</svg>