<svg xmlns="http://www.w3.org/2000/svg" viewBox="0 0 24 24" width="24" height="24">
  <title>dollarsign.bank.building.fill</title>
  <path transform="matrix(0.7114075309156593, 0, 0, 0.7114075309156593, -0.12588578574406029, 18.019174656106713)" d="M4.27 5.12L29.82 5.12C30.50 5.12 31.10 4.56 31.10 3.84C31.10 3.15 30.50 2.58 29.82 2.58L29.23 2.58L29.23 1.56C29.23 0.97 28.86 0.62 28.28 0.62L27.73 0.62L27.73-13.07L28.69-13.07C29.54-13.07 30.05-13.70 30.05-14.33C30.05-14.80 29.79-15.22 29.24-15.55L18.79-21.57C18.27-21.87 17.68-22.04 17.13-22.04C16.58-22.04 16.00-21.87 15.49-21.57L5.04-15.55C4.48-15.22 4.23-14.80 4.23-14.33C4.23-13.70 4.72-13.07 5.58-13.07L6.55-13.07L6.55 0.62L6 0.62C5.41 0.62 5.05 0.97 5.05 1.56L5.05 2.58L4.27 2.58C3.57 2.58 2.99 3.15 2.99 3.84C2.99 4.55 3.57 5.12 4.27 5.12ZM17.13-0.59C16.93-0.59 16.77-0.75 16.77-0.94L16.77-1.96C15.06-2.04 13.62-2.73 13.15-3.94C13.05-4.14 13.01-4.32 13.01-4.54C13.01-5.12 13.43-5.44 13.99-5.44C14.46-5.44 14.73-5.20 14.98-4.76C15.29-4.03 15.88-3.69 16.77-3.63L16.77-6.45L16.17-6.56C14.51-6.93 13.04-7.70 13.04-9.54C13.04-11.48 14.80-12.54 16.77-12.66L16.77-13.68C16.77-13.88 16.93-14.04 17.13-14.04C17.33-14.04 17.50-13.88 17.50-13.68L17.50-12.64C19.37-12.50 21.06-11.48 21.06-10.03C21.06-9.47 20.59-9.20 20.11-9.20C19.64-9.20 19.31-9.45 19.08-9.87C18.81-10.52 18.22-10.89 17.50-10.97L17.50-8.25L18.12-8.11C19.92-7.70 21.32-7.02 21.32-5.14C21.32-3.05 19.50-2.09 17.50-1.97L17.50-0.94C17.50-0.75 17.33-0.59 17.13-0.59ZM15.14-9.74C15.14-9.04 15.73-8.68 16.64-8.45L16.77-8.41L16.77-10.97C15.86-10.89 15.14-10.49 15.14-9.74ZM17.50-3.63C18.47-3.70 19.23-4.08 19.23-4.92C19.23-5.74 18.50-6.04 17.61-6.25L17.50-6.28Z" fill="currentColor"/>
</svg>