<svg xmlns="http://www.w3.org/2000/svg" viewBox="0 0 24 24" width="24" height="24">
  <title>dollarsign</title>
  <path transform="matrix(0.7608857185317284, 0, 0, 0.7608857185317284, 3.49799375835934, 18.433348194382525)" d="M11.10 4.69C11.47 4.69 11.79 4.37 11.79 4.00L11.79 1.96C15.83 1.72 19.24-0.29 19.24-4.22C19.24-7.88 16.42-9.19 13.00-9.96L11.79-10.23L11.79-15.76C13.30-15.59 14.48-14.85 15.07-13.49C15.50-12.71 16.08-12.26 16.98-12.26C17.96-12.26 18.73-12.80 18.73-13.77C18.73-15.16 17.70-16.49 16.43-17.31C15.12-18.28 13.51-18.76 11.79-18.88L11.79-20.91C11.79-21.29 11.47-21.60 11.10-21.60C10.71-21.60 10.41-21.29 10.41-20.91L10.41-18.89C6.60-18.69 3.22-16.66 3.22-12.89C3.22-9.38 6.01-7.85 9.29-7.14L10.41-6.89L10.41-1.15C8.60-1.29 7.28-2.04 6.77-3.50C6.38-4.34 5.79-4.76 4.95-4.76C3.87-4.76 3.11-4.13 3.11-3.09C3.11-2.00 3.84-0.84 4.68-0.08C6.16 1.28 8.30 1.86 10.41 1.96L10.41 4.00C10.41 4.37 10.71 4.69 11.10 4.69ZM7.11-13.24C7.11-14.74 8.55-15.61 10.41-15.77L10.41-10.56C8.36-11.06 7.11-11.80 7.11-13.24ZM15.36-3.80C15.36-2.02 13.62-1.29 11.79-1.15L11.79-6.57C14.16-6.04 15.36-5.43 15.36-3.80Z" fill="currentColor"/>
</svg>