<svg xmlns="http://www.w3.org/2000/svg" viewBox="0 0 24 24" width="24" height="24">
  
  <path transform="matrix(0.6581822856408279, 0, 0, 0.6581822856408279, 0.033166216737369636, 17.568839182414195)" d="M4.50 4.37C5.33 4.37 6.01 3.69 6.01 2.86L6.01-17.60C6.01-18 6.27-18.26 6.67-18.26L29.70-18.26C30.09-18.26 30.35-18 30.35-17.60L30.35 2.86C30.35 3.69 31.03 4.37 31.86 4.37C32.70 4.37 33.38 3.69 33.38 2.86L33.38-17.98C33.38-20.02 32.10-21.29 30.02-21.29L6.34-21.29C4.27-21.29 2.99-20.02 2.99-17.98L2.99 2.86C2.99 3.69 3.67 4.37 4.50 4.37ZM18.59 3.71L28.56 3.71C28.76 3.71 28.92 3.56 28.92 3.36L28.92-16.48C28.92-16.68 28.76-16.83 28.56-16.83L18.59-16.83C18.39-16.83 18.23-16.68 18.23-16.48L18.23 3.36C18.23 3.56 18.39 3.71 18.59 3.71ZM20.92-5.06C20.53-5.06 20.25-5.36 20.25-5.73L20.25-7.78C20.25-8.16 20.53-8.45 20.92-8.45C21.29-8.45 21.59-8.16 21.59-7.78L21.59-5.73C21.59-5.36 21.29-5.06 20.92-5.06Z" fill="currentColor"/>
</svg>