<svg xmlns="http://www.w3.org/2000/svg" viewBox="0 0 24 24" width="24" height="24">
  
  <path transform="matrix(0.7423517471364361, 0, 0, 0.7423517471364361, -0.21835580687255352, 18.289691170073944)" d="M11.54-16.23C11.54-14.88 11.65-14.43 12.59-13.49L14.87-11.20C15.81-10.27 17.13-10.27 18.07-11.20L20.36-13.49C21.29-14.43 21.40-14.88 21.40-16.23L21.40-19.17C21.40-20.92 20.48-21.94 18.93-21.94L14.02-21.94C12.46-21.94 11.54-20.92 11.54-19.17ZM8.68-3.54C10.04-3.54 10.50-3.64 11.44-4.58L13.72-6.86C14.66-7.79 14.66-9.13 13.72-10.07L11.44-12.35C10.50-13.28 10.04-13.38 8.68-13.38L5.75-13.38C4.01-13.38 2.99-12.48 2.99-10.92L2.99-6.01C2.99-4.44 4.01-3.54 5.75-3.54ZM24.23-13.38C22.88-13.38 22.42-13.28 21.48-12.34L19.20-10.07C18.26-9.13 18.26-7.79 19.20-6.86L21.48-4.58C22.42-3.64 22.88-3.54 24.23-3.54L27.16-3.54C28.91-3.54 29.93-4.44 29.93-6.01L29.93-10.92C29.93-12.48 28.91-13.38 27.16-13.38ZM21.39-0.70C21.39-2.05 21.28-2.52 20.36-3.45L18.07-5.73C17.13-6.67 15.81-6.67 14.87-5.73L12.59-3.45C11.65-2.52 11.54-2.05 11.54-0.70L11.54 2.23C11.54 3.98 12.45 4.99 14.02 4.99L18.93 4.99C20.48 4.99 21.39 3.98 21.39 2.23Z" fill="currentColor"/>
</svg>