<svg xmlns="http://www.w3.org/2000/svg" viewBox="0 0 24 24" width="24" height="24">
  
  <path transform="matrix(0.7722473604826546, 0, 0, 0.7722473604826546, 2.3846153846153837, 18.751131221719458)" d="M2.99-1.62C2.99 2.05 5.18 4.21 8.75 4.21C11.43 4.21 13.38 2.92 14.63 0.59L15.64-1.30C17.66-5.07 21.91-6.28 21.91-12.13C21.91-17.86 18.15-21.69 12.52-21.69C6.81-21.69 2.99-17.82 2.99-12.04ZM5.55-1.69L5.55-12.04C5.55-16.30 8.33-19.13 12.52-19.13C16.63-19.13 19.36-16.32 19.36-12.13C19.36-7.37 15.59-6.54 13.29-2.30L12.40-0.69C11.60 0.81 10.52 1.62 8.87 1.62C6.80 1.62 5.55 0.38 5.55-1.69ZM8.11-6.18C8.72-6.18 9.16-6.62 9.16-7.23L9.16-9.35L11.37-9.35C12.07-9.35 12.52-8.94 12.52-8.32C12.52-7.96 12.35-7.56 12.08-7.23L10.89-5.72C10.70-5.48 10.59-5.23 10.59-4.98C10.59-4.42 11.06-3.97 11.65-3.97C11.98-3.97 12.27-4.14 12.48-4.41L13.80-6.08C14.32-6.73 14.65-7.65 14.65-8.40C14.65-10.21 13.31-11.43 11.34-11.43L9.16-11.43L9.16-12.08C9.16-14.10 10.49-15.42 12.50-15.42C14.52-15.42 15.84-14.12 15.84-12.14C15.84-11.55 16.31-11.09 16.90-11.09C17.46-11.09 17.93-11.55 17.93-12.14C17.93-15.35 15.76-17.51 12.50-17.51C9.26-17.51 7.07-15.33 7.07-12.08L7.07-7.23C7.07-6.62 7.51-6.18 8.11-6.18Z" fill="currentColor"/>
</svg>