<svg xmlns="http://www.w3.org/2000/svg" viewBox="0 0 24 24" width="24" height="24">
  
  <path transform="matrix(0.8884261669269478, 0, 0, 0.8884261669269478, 2.052056220718376, 19.334721499219157)" d="M2.99-14.02C2.99-10.21 6.81-8.53 9.53-8.53C12.01-8.53 13.38-10.49 13.38-14.02C13.38-17.54 12.01-19.51 9.53-19.51C6.81-19.51 2.99-17.82 2.99-14.02ZM12.70 3L13.93 3C15 3 15.66 2.38 15.66 1.35L15.66-5.21C15.66-6.29 15.82-7.00 16.37-7.68C16.62-7.99 16.91-8.29 17.26-8.61C18.55-9.80 19.41-11.40 19.41-13.28C19.41-16.73 16.95-19.32 13.24-19.35C14.29-18.16 14.82-16.32 14.82-14.02C14.82-10.18 13.31-7.66 10.55-7.17C10.89-6.64 10.98-6.04 10.98-5.21L10.98 1.35C10.98 2.38 11.64 3 12.70 3ZM5.84-11.79C5.13-11.79 4.59-12.79 4.59-14.02C4.59-15.25 5.13-16.24 5.84-16.24C6.54-16.24 7.09-15.25 7.09-14.02C7.09-12.79 6.54-11.79 5.84-11.79Z" fill="currentColor"/>
</svg>