<svg xmlns="http://www.w3.org/2000/svg" viewBox="0 0 24 24" width="24" height="24">
  <title>earpods</title>
  <path transform="matrix(0.8031372549019608, 0, 0, 0.8031372549019608, -0.3999999999999999, 18.8)" d="M8.64-10.24C11.66-10.21 14.25-12.60 14.23-15.48C14.20-18.35 11.65-20.70 8.64-20.70C6.21-20.70 4.45-19.34 3.41-17.82C3.13-17.39 2.99-16.89 2.99-16.36L2.99-14.57C2.99-14.05 3.13-13.56 3.40-13.13C4.35-11.65 6.19-10.27 8.64-10.24ZM22.24-10.24C24.69-10.27 26.53-11.65 27.48-13.13C27.76-13.56 27.89-14.05 27.89-14.57L27.89-16.36C27.89-16.89 27.75-17.39 27.47-17.82C26.43-19.34 24.67-20.70 22.24-20.70C19.23-20.70 16.68-18.35 16.65-15.48C16.63-12.60 19.22-10.21 22.24-10.24ZM5.61-13.35C5.25-13.35 4.98-13.63 4.98-13.99L4.98-16.93C4.98-17.30 5.25-17.58 5.61-17.58C5.98-17.58 6.26-17.30 6.26-16.93L6.26-13.99C6.26-13.63 5.98-13.35 5.61-13.35ZM25.27-13.35C24.90-13.35 24.63-13.63 24.63-13.99L24.63-16.93C24.63-17.30 24.90-17.58 25.27-17.58C25.63-17.58 25.90-17.30 25.90-16.93L25.90-13.99C25.90-13.63 25.63-13.35 25.27-13.35ZM10.16 3.76L11.77 3.76L11.77-0.83C12.53-0.93 13.00-1.43 13.00-2.23L13.00-10.24C11.84-9.36 10.43-8.85 8.93-8.81L8.93-2.23C8.93-1.43 9.41-0.93 10.16-0.83ZM20.72 3.76L20.72-0.83C21.47-0.93 21.96-1.43 21.96-2.23L21.96-8.81C20.46-8.85 19.05-9.36 17.88-10.24L17.88-2.23C17.88-1.43 18.35-0.93 19.11-0.83L19.11 3.76Z" fill="currentColor"/>
</svg>