<svg xmlns="http://www.w3.org/2000/svg" viewBox="0 0 24 24" width="24" height="24">
  <title>eject.circle</title>
  <path transform="matrix(0.8080808080808081, 0, 0, 0.8080808080808081, 0.30492424242424243, 18.83712121212121)" d="M14.47 3.91C21.30 3.91 26.85-1.63 26.85-8.46C26.85-15.29 21.30-20.84 14.47-20.84C7.64-20.84 2.10-15.29 2.10-8.46C2.10-1.63 7.64 3.91 14.47 3.91ZM14.47 0.83C9.34 0.83 5.18-3.33 5.18-8.46C5.18-13.61 9.34-17.75 14.47-17.75C19.62-17.75 23.77-13.61 23.77-8.46C23.77-3.33 19.62 0.83 14.47 0.83ZM9.88-8.38L19.05-8.38C19.63-8.38 20.03-8.75 20.03-9.28C20.03-9.53 19.88-9.81 19.65-10.02L15.49-14.19C15.09-14.57 14.82-14.74 14.47-14.74C14.12-14.74 13.84-14.54 13.44-14.19L9.27-10.02C9.05-9.81 8.91-9.53 8.91-9.28C8.93-8.75 9.29-8.38 9.88-8.38ZM10.09-3.67L18.86-3.67C19.57-3.67 20.02-4.07 20.02-4.80L20.02-5.89C20.02-6.59 19.57-7.02 18.86-7.02L10.09-7.02C9.36-7.02 8.92-6.59 8.92-5.89L8.92-4.80C8.92-4.07 9.36-3.67 10.09-3.67Z" fill="currentColor"/>
</svg>