<svg xmlns="http://www.w3.org/2000/svg" viewBox="0 0 24 24" width="24" height="24">
  <title>ellipsis.circle.fill</title>
  <path transform="matrix(0.8080808080808081, 0, 0, 0.8080808080808081, 0.30492424242424243, 18.83712121212121)" d="M14.47 3.91C21.30 3.91 26.85-1.63 26.85-8.46C26.85-15.29 21.30-20.84 14.47-20.84C7.64-20.84 2.10-15.29 2.10-8.46C2.10-1.63 7.64 3.91 14.47 3.91ZM8.61-6.49C7.54-6.49 6.64-7.37 6.64-8.46C6.64-9.55 7.54-10.44 8.61-10.44C9.70-10.44 10.59-9.55 10.59-8.46C10.59-7.37 9.70-6.49 8.61-6.49ZM14.47-6.49C13.38-6.49 12.50-7.37 12.50-8.46C12.50-9.55 13.38-10.44 14.47-10.44C15.56-10.44 16.45-9.55 16.45-8.46C16.45-7.37 15.56-6.49 14.47-6.49ZM20.33-6.49C19.24-6.49 18.35-7.37 18.35-8.46C18.35-9.55 19.24-10.44 20.33-10.44C21.42-10.44 22.31-9.55 22.31-8.46C22.31-7.37 21.42-6.49 20.33-6.49Z" fill="currentColor"/>
</svg>