<svg xmlns="http://www.w3.org/2000/svg" viewBox="0 0 24 24" width="24" height="24">
  <title>ellipsis.bubble</title>
  <path transform="matrix(0.7407407407407407, 0, 0, 0.7407407407407407, -0.21354166666666652, 17.77690972222222)" d="M11.13 4.92C11.93 4.92 12.56 4.58 13.55 3.73L17.51 0.26L24.25 0.26C27.83 0.26 29.99-1.93 29.99-5.48L29.99-14.78C29.99-18.34 27.83-20.52 24.25-20.52L8.73-20.52C5.14-20.52 2.99-18.34 2.99-14.78L2.99-5.48C2.99-1.93 5.29 0.26 8.53 0.26L9.28 0.26L9.28 2.86C9.28 4.14 9.97 4.92 11.13 4.92ZM11.86 1.57L11.86-1.68C11.86-2.47 11.48-2.77 10.77-2.77L8.92-2.77C6.96-2.77 6.01-3.75 6.01-5.67L6.01-14.60C6.01-16.52 6.96-17.50 8.92-17.50L24.06-17.50C26.00-17.50 26.96-16.52 26.96-14.60L26.96-5.67C26.96-3.75 26.00-2.77 24.06-2.77L17.29-2.77C16.48-2.77 16.11-2.61 15.53-2.03ZM10.95-8.27C11.96-8.27 12.80-9.11 12.80-10.14C12.80-11.16 11.96-11.99 10.95-11.99C9.91-11.99 9.08-11.16 9.08-10.14C9.08-9.11 9.91-8.27 10.95-8.27ZM16.50-8.27C17.52-8.27 18.35-9.11 18.35-10.14C18.35-11.16 17.52-11.99 16.50-11.99C15.47-11.99 14.64-11.16 14.64-10.14C14.64-9.11 15.47-8.27 16.50-8.27ZM22.05-8.27C23.09-8.27 23.91-9.11 23.91-10.14C23.91-11.16 23.09-11.99 22.05-11.99C21.02-11.99 20.20-11.16 20.20-10.14C20.20-9.11 21.02-8.27 22.05-8.27Z" fill="currentColor"/>
</svg>