<svg xmlns="http://www.w3.org/2000/svg" viewBox="0 0 24 24" width="24" height="24">
  <title>engine.combustion.fill</title>
  <path transform="matrix(0.5617730963353084, 0, 0, 0.5617730963353084, 0.3212639894667544, 16.753127057274522)" d="M4.32-1.42C5.06-1.42 5.67-2.03 5.67-2.77L5.67-5.20L7.10-5.20L7.10-2.77C7.10-1.04 8.21 0.06 9.97 0.06L13.05 0.06L14.93 2.11C15.45 2.67 16.00 2.93 16.70 2.93L28.21 2.93C29.98 2.93 31.11 1.84 31.11 0.07L31.11-1.78C31.11-1.85 31.16-1.90 31.23-1.90L32.25-1.90C32.32-1.90 32.37-1.85 32.37-1.78L32.37-0.86C32.37 0.80 33.47 1.85 35.19 1.85L35.77 1.85C37.49 1.85 38.59 0.81 38.59-0.86L38.59-9.11C38.59-10.78 37.50-11.81 35.77-11.81L35.19-11.81C33.45-11.81 32.37-10.77 32.37-9.11L32.37-8.27C32.37-8.20 32.32-8.16 32.25-8.16L31.23-8.16C31.16-8.16 31.11-8.20 31.11-8.27L31.11-10.08C31.11-11.81 30.01-12.89 28.23-12.89L27.53-12.89L25.66-14.92C25.15-15.48 24.56-15.74 23.88-15.74L21.50-15.74L21.50-17.17L25.08-17.17C25.83-17.17 26.43-17.78 26.43-18.52C26.43-19.24 25.83-19.85 25.08-19.85L15.50-19.85C14.75-19.85 14.16-19.24 14.16-18.50C14.16-17.75 14.77-17.17 15.50-17.17L19.08-17.17L19.08-15.74L14.68-15.74C13.98-15.74 13.41-15.47 12.89-14.92L11.03-12.89L9.97-12.89C8.23-12.89 7.10-11.80 7.10-10.08L7.10-7.62L5.67-7.62L5.67-10.07C5.67-10.79 5.06-11.40 4.32-11.40C3.60-11.40 2.99-10.79 2.99-10.07L2.99-2.77C2.99-2.03 3.60-1.42 4.32-1.42Z" fill="currentColor"/>
</svg>