<svg xmlns="http://www.w3.org/2000/svg" viewBox="0 0 24 24" width="24" height="24">
  
  <path transform="matrix(0.565114669810274, 0, 0, 0.565114669810274, 0.311278428106017, 16.175446866977083)" d="M7.13 2.14L22.82 2.14C22.35 1.34 22.04 0.40 21.93-0.64L7.90-0.64C7.66-0.64 7.44-0.68 7.27-0.73L13.86-7.32L15.27-6.07C16.07-5.34 16.80-5.04 17.71-5.04C18.60-5.04 19.34-5.34 20.13-6.07L21.60-7.37L21.60-10.65L18.63-7.98C18.34-7.71 18.02-7.57 17.71-7.57C17.38-7.57 17.07-7.71 16.77-7.98L7.65-16.20C7.82-16.23 7.98-16.25 8.17-16.25L27.15-16.25C27.27-16.25 27.38-16.24 27.48-16.23C28.00-16.98 28.92-17.38 29.91-17.38C30.69-17.38 31.48-17.14 32.11-16.68C31.59-18.22 30.27-19.04 28.28-19.04L6.94-19.04C4.45-19.04 2.99-17.59 2.99-14.93L2.99-1.97C2.99 0.69 4.46 2.14 7.13 2.14ZM29.86 4.27C32.37 4.27 34.09 3.30 35.36 1.38C36.43-0.08 37.16-2.37 37.57-3.71C37.88-4.69 38.30-5.91 38.37-6.43C38.45-7.04 38.11-7.52 37.54-7.61C36.88-7.70 36.41-7.34 36.07-6.61L34.84-3.87C34.73-3.64 34.64-3.57 34.52-3.57C34.39-3.57 34.28-3.64 34.28-3.90L34.28-13.25C34.28-13.90 33.81-14.38 33.16-14.38C32.53-14.38 32.05-13.89 32.05-13.25L32.05-6.27C31.85-6.35 31.63-6.41 31.39-6.46L31.39-14.46C31.39-15.11 30.93-15.59 30.28-15.59C29.65-15.59 29.17-15.11 29.17-14.46L29.17-6.54C28.95-6.53 28.70-6.50 28.49-6.47L28.49-13.76C28.49-14.39 28.01-14.87 27.38-14.87C26.74-14.87 26.26-14.39 26.26-13.76L26.26-5.86C26.02-5.75 25.80-5.64 25.59-5.51L25.59-11.02C25.59-11.66 25.13-12.14 24.48-12.14C23.85-12.14 23.37-11.66 23.37-11.02L23.37-2.19C23.37 1.84 26.18 4.27 29.86 4.27ZM5.84-2.75C5.80-2.89 5.79-3.06 5.79-3.22L5.79-14.13C5.79-14.29 5.80-14.43 5.82-14.55L12.04-8.96Z" fill="currentColor"/>
</svg>