<svg xmlns="http://www.w3.org/2000/svg" viewBox="0 0 24 24" width="24" height="24">
  
  <path transform="matrix(0.8080808080808081, 0, 0, 0.8080808080808081, 0.30492424242424243, 18.83712121212121)" d="M14.47 3.91C21.30 3.91 26.85-1.63 26.85-8.46C26.85-15.29 21.30-20.84 14.47-20.84C7.64-20.84 2.10-15.29 2.10-8.46C2.10-1.63 7.64 3.91 14.47 3.91ZM10.35-9.48C9.47-9.48 8.88-9.94 8.88-10.73C8.88-11.54 9.46-12.01 10.35-12.01L18.60-12.01C19.49-12.01 20.05-11.54 20.05-10.73C20.05-9.94 19.46-9.48 18.59-9.48ZM10.35-4.88C9.47-4.88 8.88-5.33 8.88-6.13C8.88-6.94 9.46-7.41 10.35-7.41L18.60-7.41C19.49-7.41 20.05-6.94 20.05-6.13C20.05-5.33 19.46-4.88 18.59-4.88Z" fill="currentColor"/>
</svg>