<svg xmlns="http://www.w3.org/2000/svg" viewBox="0 0 24 24" width="24" height="24">
  
  <path transform="matrix(0.7442511835638945, 0, 0, 0.7442511835638945, 2.0186000600209093, 18.29706274843514)" d="M0.90-10.98C-0.04-10.98-0.27-10.20 0.23-9.52L3.14-5.64C3.50-5.13 4.13-5.14 4.50-5.64L7.38-9.53C7.88-10.20 7.65-10.98 6.73-10.98L5.52-10.98C6.62-14.89 10.21-17.75 14.47-17.75C19.61-17.75 23.77-13.61 23.77-8.46C23.77-3.33 19.61 0.83 14.47 0.83C11.66 0.83 9.22-0.40 7.49-2.40C6.82-3.07 5.92-3.29 5.20-2.68C4.56-2.13 4.46-1.15 5.20-0.36C7.51 2.33 10.89 3.91 14.47 3.91C21.29 3.91 26.85-1.63 26.85-8.46C26.85-15.29 21.29-20.84 14.47-20.84C8.51-20.84 3.53-16.62 2.36-10.98ZM9.88-4.27L13.00-4.27C13.46-4.27 13.76-4.51 13.76-4.97C13.76-5.41 13.45-5.68 13.00-5.68L10.73-5.68L10.73-7.85L12.91-7.85C13.32-7.85 13.59-8.10 13.59-8.51C13.59-8.93 13.31-9.16 12.91-9.16L10.73-9.16L10.73-11.24L13.00-11.24C13.46-11.24 13.76-11.50 13.76-11.95C13.76-12.41 13.46-12.64 13.00-12.64L9.88-12.64C9.33-12.64 9.02-12.30 9.02-11.75L9.02-5.17C9.02-4.61 9.32-4.27 9.88-4.27ZM15.74-4.27L19.62-4.27C20.04-4.27 20.29-4.55 20.29-4.97C20.29-5.40 20.04-5.68 19.62-5.68L16.82-5.68L16.82-5.74L19.95-11.16C20.06-11.33 20.16-11.54 20.16-11.84C20.16-12.33 19.85-12.64 19.30-12.64L15.63-12.64C15.19-12.64 14.87-12.40 14.87-11.95C14.87-11.50 15.19-11.24 15.63-11.24L18.25-11.24L18.25-11.18L15.08-5.74C14.96-5.53 14.88-5.30 14.88-5.05C14.88-4.54 15.27-4.27 15.74-4.27Z" fill="currentColor"/>
</svg>