<svg xmlns="http://www.w3.org/2000/svg" viewBox="0 0 24 24" width="24" height="24">
  
  <path transform="matrix(0.7531626949102678, 0, 0, 0.7531626949102678, 0.42453662842012374, 18.372462488967344)" d="M15.38 4.82C22.68 4.82 28.64-1.15 28.64-8.46C28.64-15.77 22.68-21.74 15.38-21.74C8.06-21.74 2.10-15.77 2.10-8.46C2.10-1.15 8.06 4.82 15.38 4.82ZM15.38 0.19C10.59 0.19 6.73-3.68 6.73-8.46C6.73-13.24 10.59-17.11 15.38-17.11C20.14-17.11 24.01-13.24 24.01-8.46C24.01-3.68 20.14 0.19 15.38 0.19ZM10.90-4.39L13.93-4.39C14.38-4.39 14.67-4.63 14.67-5.07C14.67-5.51 14.38-5.75 13.93-5.75L11.74-5.75L11.74-7.88L13.85-7.88C14.25-7.88 14.51-8.11 14.51-8.51C14.51-8.92 14.24-9.14 13.85-9.14L11.74-9.14L11.74-11.17L13.93-11.17C14.38-11.17 14.67-11.41 14.67-11.85C14.67-12.29 14.38-12.53 13.93-12.53L10.90-12.53C10.37-12.53 10.07-12.19 10.07-11.66L10.07-5.26C10.07-4.72 10.36-4.39 10.90-4.39ZM16.59-4.39L20.36-4.39C20.78-4.39 21.01-4.65 21.01-5.07C21.01-5.50 20.78-5.75 20.36-5.75L17.65-5.75L17.65-5.81L20.68-11.07C20.79-11.25 20.88-11.45 20.88-11.74C20.88-12.21 20.59-12.53 20.05-12.53L16.50-12.53C16.05-12.53 15.75-12.28 15.75-11.85C15.75-11.41 16.05-11.17 16.50-11.17L19.03-11.17L19.03-11.11L15.96-5.81C15.84-5.63 15.76-5.38 15.76-5.14C15.76-4.65 16.14-4.39 16.59-4.39Z" fill="currentColor"/>
</svg>