<svg xmlns="http://www.w3.org/2000/svg" viewBox="0 0 24 24" width="24" height="24">
  
  <path transform="matrix(0.7754051188853551, 0, 0, 0.7754051188853551, 1.6274420717855524, 18.583371194911404)" d="M2.99 0.27C2.99 2.94 4.44 4.41 7.10 4.41L19.65 4.41C22.31 4.41 23.77 2.94 23.77 0.27L23.77-17.25C23.77-19.92 22.31-21.39 19.65-21.39L7.10-21.39C4.44-21.39 2.99-19.92 2.99-17.25ZM10.35-8.89C9.70-8.89 9.28-9.39 9.28-9.96C9.28-10.13 9.32-10.30 9.43-10.45L12.47-15.93C12.67-16.28 13.02-16.48 13.38-16.48C13.75-16.48 14.09-16.29 14.30-15.93L17.34-10.45C17.45-10.30 17.48-10.13 17.48-9.96C17.48-9.39 17.06-8.89 16.43-8.89ZM13.38-11.75C13.69-11.75 13.92-11.95 13.92-12.25L13.99-14.13C14.02-14.50 13.75-14.74 13.38-14.74C13.02-14.74 12.76-14.50 12.79-14.13L12.84-12.25C12.84-11.95 13.07-11.75 13.38-11.75ZM13.38-9.95C13.78-9.95 14.09-10.25 14.10-10.62C14.10-11.02 13.77-11.30 13.38-11.30C13.00-11.30 12.68-11.02 12.68-10.62C12.68-10.25 13.00-9.95 13.38-9.95ZM9.12-4.91C8.64-4.91 8.27-5.29 8.27-5.75C8.27-6.21 8.64-6.56 9.12-6.56L17.65-6.56C18.12-6.56 18.47-6.21 18.47-5.75C18.47-5.29 18.12-4.91 17.65-4.91ZM9.12-1.38C8.64-1.38 8.27-1.75 8.27-2.20C8.27-2.67 8.64-3.04 9.12-3.04L13.41-3.04C13.89-3.04 14.23-2.67 14.23-2.20C14.23-1.75 13.89-1.38 13.41-1.38Z" fill="currentColor"/>
</svg>