<svg xmlns="http://www.w3.org/2000/svg" viewBox="0 0 24 24" width="24" height="24">
  
  <path transform="matrix(0.8432147562582345, 0, 0, 0.8432147562582345, 1.0513833992094868, 18.986166007905137)" d="M12.98 3.57C13.22 3.57 13.55 3.48 13.86 3.33C20.65-0.07 22.98-2.02 22.98-6.21L22.98-14.73C22.98-16.37 22.44-17.04 21-17.65C19.86-18.12 15.68-19.55 14.61-19.89C14.11-20.04 13.49-20.14 12.98-20.14C12.48-20.14 11.87-20.03 11.37-19.89C10.29-19.56 6.11-18.12 4.97-17.65C3.54-17.05 2.99-16.37 2.99-14.73L2.99-6.21C2.99-2.02 5.39-0.19 12.12 3.33C12.42 3.49 12.75 3.57 12.98 3.57ZM13.00-7.17C12.18-7.17 11.70-7.63 11.65-8.45L11.46-13.52C11.43-14.40 12.05-15.01 12.98-15.01C13.92-15.01 14.55-14.40 14.52-13.51L14.32-8.47C14.29-7.62 13.80-7.17 13.00-7.17ZM13.00-2.93C12.07-2.93 11.34-3.53 11.34-4.42C11.34-5.31 12.06-5.91 13.00-5.91C13.93-5.91 14.65-5.31 14.65-4.42C14.65-3.52 13.93-2.93 13.00-2.93Z" fill="currentColor"/>
</svg>