<svg xmlns="http://www.w3.org/2000/svg" viewBox="0 0 24 24" width="24" height="24">
  <title>exclamationmark.bubble.circle</title>
  <path transform="matrix(0.8080808080808081, 0, 0, 0.8080808080808081, 0.30492424242424243, 18.83712121212121)" d="M14.47 3.91C21.30 3.91 26.85-1.63 26.85-8.46C26.85-15.29 21.30-20.84 14.47-20.84C7.64-20.84 2.10-15.29 2.10-8.46C2.10-1.63 7.64 3.91 14.47 3.91ZM14.47 0.83C9.34 0.83 5.18-3.33 5.18-8.46C5.18-13.61 9.34-17.75 14.47-17.75C19.62-17.75 23.77-13.61 23.77-8.46C23.77-3.33 19.62 0.83 14.47 0.83ZM11.73-1.92C11.99-1.92 12.16-2.03 12.46-2.27L14.50-4.09L17.87-4.09C19.51-4.09 20.48-5.09 20.48-6.71L20.48-10.98C20.48-12.60 19.51-13.61 17.87-13.61L11.09-13.61C9.46-13.61 8.47-12.60 8.47-10.98L8.47-6.71C8.47-5.09 9.52-4.09 11.00-4.09L11.17-4.09L11.17-2.54C11.17-2.16 11.38-1.92 11.73-1.92ZM14.48-8.02C14.12-8.02 13.90-8.23 13.88-8.60L13.79-10.98C13.77-11.38 14.06-11.66 14.47-11.66C14.89-11.66 15.19-11.38 15.18-10.98L15.09-8.60C15.07-8.23 14.86-8.02 14.48-8.02ZM14.48-6.08C14.06-6.08 13.72-6.36 13.72-6.76C13.72-7.17 14.06-7.45 14.48-7.45C14.92-7.45 15.25-7.17 15.25-6.76C15.25-6.36 14.91-6.08 14.48-6.08Z" fill="currentColor"/>
</svg>