<svg xmlns="http://www.w3.org/2000/svg" viewBox="0 0 24 24" width="24" height="24">
  
  <path transform="matrix(0.8926080892608089, 0, 0, 0.8926080892608089, -0.6673640167364017, 19.552301255230127)" d="M7.13 2.74L21.26 2.74C23.94 2.74 25.39 1.29 25.39-1.36L25.39-15.55C25.39-18.20 23.94-19.66 21.26-19.66L7.13-19.66C4.45-19.66 2.99-18.21 2.99-15.55L2.99-1.36C2.99 1.29 4.45 2.74 7.13 2.74ZM7.45-0.28C6.52-0.28 6.01-0.74 6.01-1.73L6.01-15.18C6.01-16.17 6.52-16.64 7.45-16.64L20.93-16.64C21.87-16.64 22.37-16.17 22.37-15.18L22.37-1.73C22.37-0.74 21.87-0.28 20.93-0.28ZM14.20-6.79C14.96-6.79 15.41-7.21 15.45-8.02L15.63-12.84C15.67-13.66 15.06-14.24 14.19-14.24C13.31-14.24 12.71-13.68 12.75-12.84L12.94-7.99C12.97-7.22 13.42-6.79 14.20-6.79ZM14.20-2.78C15.08-2.78 15.76-3.33 15.76-4.18C15.76-5.02 15.08-5.58 14.20-5.58C13.32-5.58 12.63-5.02 12.63-4.18C12.63-3.34 13.32-2.78 14.20-2.78Z" fill="currentColor"/>
</svg>