<svg xmlns="http://www.w3.org/2000/svg" viewBox="0 0 24 24" width="24" height="24">
  <title>exclamationmark.bubble</title>
  <path transform="matrix(0.7407407407407407, 0, 0, 0.7407407407407407, -0.21354166666666652, 17.77690972222222)" d="M11.13 4.92C11.93 4.92 12.56 4.58 13.55 3.73L17.51 0.26L24.25 0.26C27.83 0.26 29.99-1.93 29.99-5.48L29.99-14.78C29.99-18.34 27.83-20.52 24.25-20.52L8.73-20.52C5.14-20.52 2.99-18.34 2.99-14.78L2.99-5.48C2.99-1.93 5.29 0.26 8.53 0.26L9.28 0.26L9.28 2.86C9.28 4.14 9.97 4.92 11.13 4.92ZM11.86 1.57L11.86-1.68C11.86-2.47 11.48-2.77 10.77-2.77L8.92-2.77C6.96-2.77 6.01-3.75 6.01-5.67L6.01-14.60C6.01-16.52 6.96-17.50 8.92-17.50L24.06-17.50C26.00-17.50 26.96-16.52 26.96-14.60L26.96-5.67C26.96-3.75 26.00-2.77 24.06-2.77L17.29-2.77C16.48-2.77 16.11-2.61 15.53-2.03ZM16.50-8.46C17.26-8.46 17.71-8.88 17.74-9.68L17.93-14.51C17.96-15.34 17.36-15.91 16.49-15.91C15.61-15.91 15.01-15.34 15.05-14.52L15.23-9.67C15.27-8.88 15.71-8.46 16.50-8.46ZM16.50-4.44C17.38-4.44 18.06-5.00 18.06-5.85C18.06-6.69 17.38-7.25 16.50-7.25C15.62-7.25 14.93-6.69 14.93-5.85C14.93-5.02 15.62-4.44 16.50-4.44Z" fill="currentColor"/>
</svg>