<svg xmlns="http://www.w3.org/2000/svg" viewBox="0 0 24 24" width="24" height="24">
  <title>eye.circle.fill</title>
  <path transform="matrix(0.8080808080808081, 0, 0, 0.8080808080808081, 0.30492424242424243, 18.827651515151516)" d="M14.47 3.93C21.30 3.93 26.85-1.62 26.85-8.45C26.85-15.28 21.30-20.82 14.47-20.82C7.64-20.82 2.10-15.28 2.10-8.45C2.10-1.62 7.64 3.93 14.47 3.93ZM14.47-3.49C9.81-3.49 6.67-7.29 6.67-8.44C6.67-9.60 9.80-13.38 14.47-13.38C19.18-13.38 22.28-9.60 22.28-8.44C22.28-7.29 19.18-3.49 14.47-3.49ZM14.47-5.30C16.22-5.30 17.64-6.74 17.64-8.44C17.64-10.18 16.22-11.59 14.47-11.59C12.74-11.59 11.31-10.18 11.31-8.44C11.31-6.74 12.74-5.30 14.47-5.30ZM14.48-7.07C13.71-7.07 13.10-7.69 13.10-8.44C13.10-9.19 13.71-9.81 14.48-9.81C15.23-9.81 15.86-9.19 15.86-8.44C15.86-7.69 15.23-7.07 14.48-7.07Z" fill="currentColor"/>
</svg>