<svg xmlns="http://www.w3.org/2000/svg" viewBox="0 0 24 24" width="24" height="24">
  <title>eye.square</title>
  <path transform="matrix(0.8926080892608089, 0, 0, 0.8926080892608089, -0.6673640167364017, 19.552301255230127)" d="M7.13 2.74L21.26 2.74C23.94 2.74 25.39 1.29 25.39-1.36L25.39-15.55C25.39-18.20 23.94-19.66 21.26-19.66L7.13-19.66C4.45-19.66 2.99-18.21 2.99-15.55L2.99-1.36C2.99 1.29 4.45 2.74 7.13 2.74ZM7.45-0.28C6.52-0.28 6.01-0.74 6.01-1.73L6.01-15.18C6.01-16.17 6.52-16.64 7.45-16.64L20.93-16.64C21.87-16.64 22.37-16.17 22.37-15.18L22.37-1.73C22.37-0.74 21.87-0.28 20.93-0.28ZM14.19-3.79C18.63-3.79 21.56-7.37 21.56-8.46C21.56-9.55 18.63-13.13 14.19-13.13C9.79-13.13 6.82-9.55 6.82-8.46C6.82-7.37 9.80-3.79 14.19-3.79ZM14.19-5.48C12.55-5.48 11.20-6.84 11.19-8.45C11.19-10.11 12.55-11.44 14.19-11.44C15.84-11.44 17.18-10.11 17.18-8.45C17.18-6.84 15.84-5.48 14.19-5.48ZM14.20-7.16C14.91-7.16 15.49-7.75 15.49-8.45C15.49-9.15 14.91-9.75 14.20-9.75C13.48-9.75 12.90-9.15 12.90-8.45C12.90-7.75 13.48-7.16 14.20-7.16Z" fill="currentColor"/>
</svg>