<svg xmlns="http://www.w3.org/2000/svg" viewBox="0 0 24 24" width="24" height="24">
  
  <path transform="matrix(0.687894666129249, 0, 0, 0.687894666129249, 0.5570334542523177, 17.816203143893592)" d="M8.80 2.43C12.71 2.43 15.57-1.96 15.57-8.46C15.57-14.96 12.71-19.34 8.80-19.34C5.23-19.34 2.51-15.63 2.10-9.98C2.68-11.04 3.74-11.67 5.13-11.67C7.24-11.67 8.64-10.20 8.64-8.02C8.64-5.81 7.24-4.35 5.13-4.35C3.83-4.35 2.81-4.90 2.21-5.84C2.87-0.81 5.45 2.43 8.80 2.43ZM24.41 2.43C28.31 2.43 31.17-1.96 31.17-8.46C31.17-14.96 28.31-19.34 24.41-19.34C20.82-19.34 18.12-15.63 17.70-9.98C18.28-11.04 19.35-11.67 20.73-11.67C22.84-11.67 24.23-10.20 24.23-8.02C24.23-5.81 22.84-4.35 20.73-4.35C19.44-4.35 18.41-4.90 17.81-5.84C18.47-0.81 21.05 2.43 24.41 2.43ZM4.18-8.44C4.62-8.36 5.02-8.74 5.12-9.28C5.23-9.81 4.97-10.34 4.51-10.41C4.10-10.48 3.66-10.10 3.56-9.56C3.48-9.02 3.75-8.52 4.18-8.44ZM19.79-8.44C20.21-8.36 20.63-8.74 20.72-9.28C20.82-9.81 20.57-10.35 20.12-10.41C19.71-10.48 19.27-10.10 19.17-9.56C19.08-9.02 19.35-8.52 19.79-8.44Z" fill="currentColor"/>
</svg>