<svg xmlns="http://www.w3.org/2000/svg" viewBox="0 0 24 24" width="24" height="24">
  <title>faceid</title>
  <path transform="matrix(0.8436315702751689, 0, 0, 0.8436315702751689, -0.5160652496292641, 19.123084527928818)" d="M4.50-11.85C5.48-11.85 6.01-12.40 6.01-13.37L6.01-15.81C6.01-16.82 6.52-17.27 7.45-17.27L9.94-17.27C10.92-17.27 11.46-17.81 11.46-18.79C11.46-19.76 10.92-20.30 9.94-20.30L7.13-20.30C4.45-20.30 2.99-18.84 2.99-16.18L2.99-13.37C2.99-12.39 3.53-11.85 4.50-11.85ZM25.17-11.85C26.16-11.85 26.68-12.39 26.68-13.37L26.68-16.18C26.68-18.84 25.23-20.30 22.55-20.30L19.75-20.30C18.75-20.30 18.21-19.76 18.21-18.79C18.21-17.81 18.76-17.27 19.75-17.27L22.22-17.27C23.16-17.27 23.66-16.82 23.66-15.81L23.66-13.37C23.66-12.39 24.20-11.85 25.17-11.85ZM13.92-6.50L14.03-6.50C15.27-6.50 15.96-7.20 15.96-8.44L15.96-12.08C15.96-12.61 15.60-12.97 15.07-12.97C14.54-12.97 14.18-12.61 14.18-12.08L14.18-8.45C14.18-8.36 14.12-8.30 14.04-8.30L13.75-8.30C13.24-8.30 12.86-7.92 12.86-7.43C12.86-6.84 13.27-6.50 13.92-6.50ZM10.55-9.22C11.16-9.22 11.60-9.67 11.60-10.28L11.60-11.91C11.60-12.52 11.16-12.96 10.55-12.96C9.95-12.96 9.50-12.50 9.50-11.91L9.50-10.28C9.50-9.67 9.95-9.22 10.55-9.22ZM19.11-9.22C19.71-9.22 20.16-9.67 20.16-10.28L20.16-11.91C20.16-12.50 19.71-12.96 19.11-12.96C18.50-12.96 18.06-12.52 18.06-11.91L18.06-10.28C18.06-9.67 18.50-9.22 19.11-9.22ZM14.79-2.77C16.21-2.77 17.66-3.39 18.70-4.41C18.86-4.57 18.94-4.79 18.94-5.07C18.94-5.58 18.55-5.95 18.05-5.95C17.78-5.95 17.59-5.86 17.34-5.60C16.75-4.97 15.77-4.55 14.79-4.55C13.84-4.55 12.88-4.95 12.22-5.60C12-5.82 11.81-5.95 11.52-5.95C11.00-5.95 10.62-5.58 10.62-5.07C10.62-4.84 10.70-4.64 10.88-4.43C11.78-3.36 13.28-2.77 14.79-2.77ZM7.13 3.41L9.94 3.41C10.92 3.41 11.46 2.87 11.46 1.89C11.46 0.91 10.92 0.38 9.94 0.38L7.45 0.38C6.52 0.38 6.01-0.08 6.01-1.08L6.01-3.52C6.01-4.51 5.47-5.04 4.50-5.04C3.52-5.04 2.99-4.51 2.99-3.52L2.99-0.70C2.99 1.96 4.45 3.41 7.13 3.41ZM19.75 3.41L22.55 3.41C25.23 3.41 26.68 1.95 26.68-0.70L26.68-3.52C26.68-4.51 26.16-5.04 25.17-5.04C24.20-5.04 23.66-4.50 23.66-3.52L23.66-1.08C23.66-0.08 23.16 0.38 22.22 0.38L19.75 0.38C18.75 0.38 18.21 0.91 18.21 1.89C18.21 2.87 18.75 3.41 19.75 3.41Z" fill="currentColor"/>
</svg>