<svg xmlns="http://www.w3.org/2000/svg" viewBox="0 0 24 24" width="24" height="24">
  <title>fan.floor.fill</title>
  <path transform="matrix(0.694049071438254, 0, 0, 0.694049071438254, 2.878405856039041, 17.868239121594144)" d="M7.62 5.95L18.67 5.95C19.32 5.95 19.69 5.43 19.69 4.76C19.69 3.68 18.76 2.95 17.53 2.95L14.55 2.95L14.55-2.66C19.50-3.34 23.30-7.57 23.30-12.71C23.30-18.32 18.75-22.86 13.15-22.86C7.54-22.86 2.99-18.32 2.99-12.71C2.99-7.57 6.80-3.34 11.74-2.66L11.74 2.95L8.75 2.95C7.52 2.95 6.60 3.68 6.60 4.76C6.60 5.43 6.96 5.95 7.62 5.95ZM15.89-13.15C15.93-12.94 15.94-12.79 15.93-12.54C18.01-11.93 19.16-11.13 19.16-9.67C19.16-7.91 17.26-6.22 15.30-6.22C14.18-6.22 13.58-6.88 13.58-8.02L13.58-9.96C13.37-9.93 13.23-9.91 12.97-9.93C12.36-7.85 11.57-6.69 10.10-6.69C8.34-6.69 6.66-8.59 6.66-10.55C6.66-11.67 7.31-12.28 8.45-12.28L10.39-12.28C10.36-12.49 10.35-12.63 10.36-12.88C8.29-13.49 7.13-14.30 7.13-15.75C7.13-17.51 9.02-19.21 10.98-19.21C12.11-19.21 12.71-18.54 12.71-17.41L12.71-15.46C12.93-15.49 13.07-15.50 13.31-15.49C13.92-17.58 14.73-18.73 16.18-18.73C17.94-18.73 19.64-16.83 19.64-14.87C19.64-13.75 18.97-13.15 17.85-13.15ZM13.15-11.43C13.86-11.43 14.44-12 14.44-12.71C14.44-13.42 13.86-14.00 13.15-14.00C12.45-14.00 11.86-13.42 11.86-12.71C11.86-12 12.45-11.43 13.15-11.43Z" fill="currentColor"/>
</svg>