<svg xmlns="http://www.w3.org/2000/svg" viewBox="0 0 24 24" width="24" height="24">
  <title>field.of.view.wide</title>
  <path transform="matrix(0.7058485916544104, 0, 0, 0.7058485916544104, 0.31264035096773246, 18.13757408211999)" d="M3.30-9.84L13.84 0.66C15.56 2.37 17.54 2.39 19.32 0.63L29.81-9.84C31.05-11.07 31.01-12.67 29.80-13.92C26.59-17.29 21.56-19.34 16.56-19.34C11.55-19.34 6.55-17.26 3.30-13.92C2.11-12.67 2.06-11.07 3.30-9.84ZM5.89-11.45C5.65-11.71 5.70-12 5.93-12.20C8.40-14.58 12.34-16.31 16.52-16.31C20.73-16.31 24.63-14.53 27.13-12.20C27.36-12 27.42-11.71 27.16-11.45L17.37-1.69C16.80-1.13 16.25-1.13 15.69-1.69Z" fill="currentColor"/>
</svg>