<svg xmlns="http://www.w3.org/2000/svg" viewBox="0 0 24 24" width="24" height="24">
  
  <path transform="matrix(0.6957467047153146, 0, 0, 0.6957467047153146, 3.233031704792901, 17.890746025275174)" d="M19.41-17.32C20.92-17.32 22.16-18.56 22.16-20.09C22.16-21.61 20.92-22.84 19.41-22.84C17.87-22.84 16.64-21.61 16.64-20.09C16.64-18.56 17.87-17.32 19.41-17.32ZM13.25 1.49C14.02 1.49 14.65 0.86 14.65 0.11L14.65-6.22C14.65-6.55 14.53-6.84 14.33-7.09L11.48-10.57C11.36-10.73 11.40-10.91 11.55-10.99L14.99-12.77C15.16-12.87 15.34-12.81 15.38-12.60L15.68-10.50C15.75-9.98 16.04-9.62 16.58-9.35L20.02-7.63C21.02-7.13 21.82-7.52 22.09-8.17C22.36-8.78 22.18-9.61 21.33-10.05L18.32-11.58L17.84-15.16C17.57-17.19 15.30-18.45 13.17-17.33L8.64-14.96C6.47-13.83 6.18-11.34 7.79-9.73L11.89-5.64L11.89 0.11C11.89 0.86 12.52 1.49 13.25 1.49ZM3.57-6.06C4.07-5.19 4.98-4.90 5.87-5.09L8.64 3.14L6.49 4.54C5.87 4.93 6.07 5.91 6.82 5.91L19.63 5.91C20.37 5.91 20.55 4.92 19.96 4.54L17.85 3.16L20.65-5.39C20.81-5.87 20.57-6.45 20.07-6.59C19.56-6.75 19.05-6.46 18.90-5.99L17.50-1.76C17.03-2.51 16.36-3.13 15.57-3.55L15.57-1.02C16.01-0.53 16.25 0.13 16.25 0.88C16.25 2.58 14.93 3.90 13.22 3.90C11.54 3.90 10.20 2.54 10.20 0.88C10.20 0.12 10.49-0.57 10.97-1.09L10.97-3.59C10.15-3.18 9.46-2.54 8.98-1.77L7.73-5.48L8.54-5.66C8.98-5.75 9.25-6.08 9.25-6.53C9.25-6.97 8.93-7.30 8.51-7.37L4.07-8.13C3.20-8.30 2.74-7.56 3.14-6.84Z" fill="currentColor"/>
</svg>