<svg xmlns="http://www.w3.org/2000/svg" viewBox="0 0 24 24" width="24" height="24">
  <title>figure.squash</title>
  <path transform="matrix(0.6508156329617939, 0, 0, 0.6508156329617939, 1.4164563114946536, 17.470053508411596)" d="M16.44-22.95C15.23-24.16 13.75-24.11 11.93-22.28C10.93-21.26 10.41-19.23 10.09-17.78L8.27-15.95C7.75-15.41 7.84-14.65 8.32-14.18L11.95-10.55C12.20-10.31 12.52-10.16 12.90-10.16L14.74-10.16C14.81-10.16 14.86-10.04 14.78-10.00L12.79-9.01C10.57-7.91 10.05-4.95 12.32-3.29L16.69-0.08L14.14 4.99C13.80 5.66 14.07 6.49 14.73 6.82C15.35 7.13 16.18 6.94 16.56 6.21L19.55 0.23C19.82-0.30 19.88-0.97 19.28-1.57L15.81-5.02L20.32-7.28C20.51-7.37 20.67-7.34 20.81-7.20L27.23-0.77C27.77-0.23 28.66-0.27 29.14-0.77C29.66-1.31 29.67-2.17 29.14-2.70L19.66-12.18C19.22-12.62 18.73-12.88 18.11-12.88L13.45-12.88L10.52-15.82L11.30-16.59C12.74-16.90 14.78-17.44 15.77-18.45C17.61-20.26 17.67-21.75 16.44-22.95ZM15.25-21.74C15.80-21.21 15.64-20.72 14.57-19.64C13.98-19.05 12.91-18.76 12-18.50C12.26-19.42 12.56-20.47 13.15-21.08C14.23-22.15 14.68-22.29 15.25-21.74ZM23.19-11.61C24.71-11.61 25.95-12.84 25.95-14.37C25.95-15.90 24.71-17.13 23.19-17.13C21.67-17.13 20.43-15.90 20.43-14.37C20.43-12.84 21.67-11.61 23.19-11.61ZM4.35 2.07L10.46 2.07C11.04 2.07 11.51 1.65 11.75 1.17L12.94-1.22L11.54-2.24C11.05-2.60 10.68-2.99 10.39-3.40L9.48-0.66L4.35-0.66C3.61-0.66 2.99-0.04 2.99 0.70C2.99 1.46 3.61 2.07 4.35 2.07Z" fill="currentColor"/>
</svg>