<svg xmlns="http://www.w3.org/2000/svg" viewBox="0 0 24 24" width="24" height="24">
  
  <path transform="matrix(0.8080808080808081, 0, 0, 0.8080808080808081, 0.30492424242424243, 18.83712121212121)" d="M14.47 3.91C21.30 3.91 26.85-1.63 26.85-8.46C26.85-15.29 21.30-20.84 14.47-20.84C7.64-20.84 2.10-15.29 2.10-8.46C2.10-1.63 7.64 3.91 14.47 3.91ZM14.47 0.83C9.34 0.83 5.18-3.33 5.18-8.46C5.18-13.61 9.34-17.75 14.47-17.75C19.62-17.75 23.77-13.61 23.77-8.46C23.77-3.33 19.62 0.83 14.47 0.83ZM8.80-9.32C9.56-9.32 10.17-9.94 10.17-10.69C10.17-11.44 9.56-12.06 8.80-12.06C8.05-12.06 7.43-11.44 7.43-10.69C7.43-9.94 8.05-9.32 8.80-9.32ZM12.79-5.64L14.51-5.64C15.98-5.64 16.39-6.49 16.28-7.46L15.89-10.55L18.28-10.55C18.66-10.55 18.95-10.85 18.95-11.24C18.95-11.61 18.66-11.91 18.28-11.91L15.06-11.91C14.67-11.91 14.38-11.63 14.38-11.17L14.38-8.05L13.41-8.05C12.87-8.05 12.43-8.23 12.18-8.64C12.13-8.72 12.13-8.82 12.22-8.94L13.77-10.78C14.16-11.24 13.85-11.91 13.28-11.91L11.14-11.91C10.77-11.91 10.46-11.61 10.46-11.24C10.46-10.84 10.76-10.55 11.14-10.55L11.86-10.55L11.04-9.57C10.41-8.80 9.82-8.31 8.87-7.88L8.06-7.50L8.30-8.36C8.40-8.72 8.14-9.09 7.80-9.18C7.43-9.26 7.07-9.04 6.97-8.68L6.41-6.49C6.23-5.82 6.83-5.47 7.41-5.73L9.35-6.59C9.54-6.66 9.61-6.66 9.75-6.55C10.39-6 11.40-5.64 12.79-5.64ZM22.37-8.40L19.37-8.40C19.32-8.40 19.25-8.39 19.18-8.39L16.77-8.18L16.86-7.54C16.90-7.17 16.89-6.83 16.79-6.50L19.43-7.04L22.37-7.04C22.75-7.04 23.06-7.35 23.06-7.72C23.06-8.11 22.75-8.40 22.37-8.40Z" fill="currentColor"/>
</svg>