<svg xmlns="http://www.w3.org/2000/svg" viewBox="0 0 24 24" width="24" height="24">
  <title>figure.climbing.circle.fill</title>
  <path transform="matrix(0.8080808080808081, 0, 0, 0.8080808080808081, 0.30492424242424243, 18.83712121212121)" d="M14.47 3.91C21.30 3.91 26.85-1.63 26.85-8.46C26.85-15.29 21.30-20.84 14.47-20.84C7.64-20.84 2.10-15.29 2.10-8.46C2.10-1.63 7.64 3.91 14.47 3.91ZM16.23-0.05C15.97-0.05 15.74-0.26 15.74-0.53L15.74-3.12C15.50-2.99 15.22-2.91 14.93-2.91C13.95-2.91 13.15-3.60 13.15-4.70L13.15-5.84L10.97-6.20L8.87-4.11C8.59-3.82 8.14-3.83 7.88-4.11C7.58-4.39 7.59-4.84 7.88-5.12L10.21-7.48C10.36-7.63 10.57-7.68 10.77-7.68L12.81-7.68C12.91-7.68 12.97-7.79 12.89-7.86L11.09-9.49L7.97-9.49C7.57-9.49 7.24-9.83 7.24-10.22C7.24-10.61 7.57-10.92 7.97-10.92L11.34-10.92C11.54-10.92 11.66-10.90 11.78-10.82L13.15-9.84L13.15-16.46C13.15-16.73 13.37-16.95 13.64-16.95C13.90-16.95 14.12-16.75 14.12-16.46L14.12-9.15L14.53-8.88L16.21-10.56C16.31-10.65 16.31-10.76 16.21-10.85L14.74-12.29L14.74-14.33L18.50-10.58C18.76-10.34 18.90-9.97 18.90-9.54L18.90-6.64C18.90-6.46 18.82-6.27 18.69-6.15L16.78-4.24C16.77-4.22 16.75-4.20 16.72-4.18L16.72-0.53C16.72-0.26 16.50-0.05 16.23-0.05ZM19.31-11.37C18.52-11.37 17.87-12.01 17.87-12.82C17.87-13.59 18.52-14.25 19.31-14.25C20.10-14.25 20.77-13.59 20.77-12.82C20.77-12.01 20.10-11.37 19.31-11.37ZM16.72-6.19L17.46-6.94L17.46-7.86C17.46-7.99 17.34-8.04 17.25-7.95L16.72-7.42ZM14.93-3.88C15.27-3.88 15.53-4.04 15.64-4.30C15.47-4.54 15.47-4.89 15.68-5.13C15.69-5.16 15.71-5.19 15.74-5.21L15.74-6.46L15.68-6.41C15.25-6.01 14.70-5.79 14.12-5.75L14.12-4.70C14.12-4.15 14.45-3.88 14.93-3.88Z" fill="currentColor"/>
</svg>