<svg xmlns="http://www.w3.org/2000/svg" viewBox="0 0 24 24" width="24" height="24">
  
  <path transform="matrix(0.7126025521144547, 0, 0, 0.7126025521144547, 0.7391323618529877, 18.267380134987786)" d="M20.04-17.29C21.57-17.29 22.82-18.53 22.82-20.06C22.82-21.59 21.57-22.83 20.04-22.83C18.52-22.83 17.27-21.59 17.27-20.06C17.27-18.53 18.52-17.29 20.04-17.29ZM6.53-3.62L3.32 0.95C2.77 1.73 2.92 2.51 3.69 3.06L6.21 4.80C6.96 5.34 7.76 5.19 8.30 4.44L11.51-0.14C12.05-0.91 11.91-1.69 11.12-2.25L10.73-2.52L13.09-5.87C13.80-5.86 14.25-6.34 14.32-7.16L14.60-10.42L15.42-11.14C15.69-11.39 16.08-11.24 16.05-10.91L15.86-8.29C15.75-6.90 16.05-6.19 17.07-4.91L19.65-1.68C19.89-1.37 19.93-1.27 20.04-1.04L22.70 4.36C23.55 6.07 26.11 5.00 25.18 3.14L22.59-2.11C22.41-2.51 22.14-2.92 21.87-3.30L20.26-5.59L20.34-5.87C20.77-7.22 20.96-8.02 21.05-9.32L21.30-13.00C21.43-14.85 20.33-16.20 18.50-16.20C17.12-16.20 16.18-15.48 14.94-14.27L12.98-12.36C12.34-11.74 12.12-11.19 12.05-10.32L11.81-7.31C11.81-7.28 11.81-7.24 11.81-7.20L9.25-3.56L8.63-4.00C7.84-4.55 7.05-4.39 6.53-3.62ZM27.22-11.23L24.34-11.23L22.62-13.13L22.39-9.75L22.88-9.28C23.33-8.86 23.71-8.71 24.49-8.71L27.22-8.71C28.07-8.71 28.62-9.20 28.62-9.97C28.62-10.72 28.05-11.23 27.22-11.23ZM13.58 4.76L17.40 0.21C17.79-0.26 17.85-0.39 18-0.84L18.20-1.42L15.98-4.20L15.41-1.50L11.66 2.95C10.34 4.50 12.49 6.05 13.58 4.76Z" fill="currentColor"/>
</svg>