<svg xmlns="http://www.w3.org/2000/svg" viewBox="0 0 24 24" width="24" height="24">
  
  <path transform="matrix(0.7931516390302896, 0, 0, 0.7931516390302896, -0.19559005361330106, 18.721247640025286)" d="M10.56-15.50C12.08-15.50 13.35-16.78 13.35-18.28C13.35-19.83 12.08-21.08 10.56-21.08C9.01-21.08 7.79-19.83 7.79-18.28C7.79-16.77 9.01-15.50 10.56-15.50ZM14.86-13.02L17.18-15.60C17.65-16.11 17.61-16.69 17.14-17.07C16.72-17.44 16.18-17.45 15.70-16.91L13.05-13.95C13.72-13.71 14.33-13.41 14.86-13.02ZM22.46-13.37L27.41-13.37C27.81-13.37 27.87-13.79 27.57-13.99L25.43-15.48C25.10-15.70 24.79-15.70 24.46-15.48L22.29-13.99C22.00-13.79 22.07-13.37 22.46-13.37ZM5.20-5.21L13.05-13.95C12.32-14.20 11.50-14.33 10.56-14.33C6.97-14.33 4.85-12.60 4.85-9.71C4.85-9.04 4.89-8.09 4.99-7.14ZM15.91-5.21L16.13-7.14C16.23-8.09 16.27-9.04 16.27-9.71C16.27-11.11 15.77-12.23 14.86-13.02L8.75-6.22C9.36-6.30 9.96-6.33 10.56-6.33C12.32-6.33 14.10-6.11 15.91-5.21ZM22.15-9.91L22.15-6.82C22.15-5.93 22.79-5.27 23.68-5.27L26.20-5.27C27.08-5.27 27.74-5.93 27.74-6.82L27.74-9.91C27.74-10.80 27.08-11.46 26.20-11.46L23.68-11.46C22.79-11.46 22.15-10.80 22.15-9.91ZM3.53-4.22C2.91-3.77 2.88-3.15 3.18-2.75C3.42-2.37 3.96-2.20 4.50-2.55C4.80-2.77 5.10-2.95 5.43-3.12L5.20-5.21C4.61-4.93 4.04-4.62 3.53-4.22ZM17.60-4.22C17.06-4.62 16.51-4.93 15.91-5.21L15.68-3.12C16.01-2.95 16.31-2.77 16.61-2.55C17.13-2.20 17.67-2.36 17.93-2.74C18.22-3.14 18.21-3.77 17.60-4.22ZM7.58 4.13C8.37 4.02 8.89 3.46 8.79 2.47L8.30-2.03L12.81-2.03L12.33 2.47C12.21 3.46 12.74 4.02 13.54 4.13C14.34 4.21 14.94 3.71 15.06 2.75L15.68-3.12C14.06-4.05 12.27-4.42 10.56-4.42C8.84-4.42 7.03-4.05 5.43-3.12L6.06 2.75C6.16 3.71 6.77 4.21 7.58 4.13Z" fill="currentColor"/>
</svg>