<svg xmlns="http://www.w3.org/2000/svg" viewBox="0 0 24 24" width="24" height="24">
  <title>figure.wave.circle</title>
  <path transform="matrix(0.8080808080808081, 0, 0, 0.8080808080808081, 0.30492424242424243, 18.83712121212121)" d="M14.47 3.91C21.30 3.91 26.85-1.63 26.85-8.46C26.85-15.29 21.30-20.84 14.47-20.84C7.64-20.84 2.10-15.29 2.10-8.46C2.10-1.63 7.64 3.91 14.47 3.91ZM14.47 0.83C9.34 0.83 5.18-3.33 5.18-8.46C5.18-13.61 9.34-17.75 14.47-17.75C19.62-17.75 23.77-13.61 23.77-8.46C23.77-3.33 19.62 0.83 14.47 0.83ZM14.47-12.53C15.22-12.53 15.83-13.14 15.83-13.89C15.83-14.65 15.22-15.26 14.47-15.26C13.72-15.26 13.10-14.65 13.10-13.89C13.10-13.14 13.72-12.53 14.47-12.53ZM10.92-14.59L11.03-12.48C11.04-12.08 11.19-11.84 11.48-11.63L12.81-10.68C12.96-10.56 13.01-10.49 13.01-10.25L13.01-2.30C13.01-1.93 13.30-1.66 13.65-1.66C14.00-1.66 14.29-1.95 14.29-2.30L14.29-6.59C14.29-6.68 14.37-6.76 14.47-6.76C14.57-6.76 14.65-6.68 14.65-6.59L14.65-2.30C14.65-1.95 14.93-1.66 15.28-1.66C15.64-1.66 15.93-1.93 15.93-2.30L15.93-9.34C15.93-9.45 16.00-9.52 16.10-9.52C16.20-9.52 16.28-9.45 16.28-9.34L16.28-7.02C16.28-6.69 16.54-6.43 16.86-6.43C17.18-6.43 17.44-6.69 17.44-7.02L17.44-9.61C17.44-10.98 16.41-11.88 14.93-11.88L13.65-11.88C13.30-11.88 13.09-11.95 12.80-12.15L12.20-12.59L12.07-14.65C12.06-14.98 11.79-15.23 11.46-15.21C11.14-15.19 10.90-14.92 10.92-14.59Z" fill="currentColor"/>
</svg>