<svg xmlns="http://www.w3.org/2000/svg" viewBox="0 0 24 24" width="24" height="24">
  <title>figure.baseball.circle.fill</title>
  <path transform="matrix(0.8080808080808081, 0, 0, 0.8080808080808081, 0.30492424242424243, 18.83712121212121)" d="M14.47 3.91C21.30 3.91 26.85-1.63 26.85-8.46C26.85-15.29 21.30-20.84 14.47-20.84C7.64-20.84 2.10-15.29 2.10-8.46C2.10-1.63 7.64 3.91 14.47 3.91ZM10.70-1.00C10.30-1.08 10.04-1.46 10.11-1.84L10.69-5.03C10.71-5.23 10.80-5.43 10.98-5.57L13.18-7.22L12.81-8.67C12.79-8.79 12.69-8.80 12.61-8.71L11.92-8.02C11.64-7.75 11.18-7.75 10.90-8.02L9.32-9.61C9.13-9.81 9.02-10.09 9.15-10.42L11.26-15.91C11.38-16.20 11.63-16.32 11.86-16.32C12.29-16.32 12.69-15.94 12.42-15.36L10.61-11.52L14.38-11.52C14.88-11.52 15.29-11.19 15.40-10.73L17.19-3.53L19.39-2.31C19.75-2.10 19.88-1.65 19.66-1.31C19.51-1.00 19.11-0.81 18.69-1.04L16.25-2.39C16.13-2.46 15.97-2.61 15.90-2.78L14.67-5.77C14.64-5.85 14.55-5.87 14.46-5.82L12.07-4.51L11.53-1.59C11.45-1.18 11.09-0.93 10.70-1.00ZM14.14-12.16C13.35-12.16 12.70-12.80 12.70-13.61C12.70-14.39 13.35-15.04 14.14-15.04C14.93-15.04 15.59-14.39 15.59-13.61C15.59-12.80 14.93-12.16 14.14-12.16ZM12.05-10.13L10.77-10.13L11.41-9.49Z" fill="currentColor"/>
</svg>