<svg xmlns="http://www.w3.org/2000/svg" viewBox="0 0 24 24" width="24" height="24">
  
  <path transform="matrix(0.8080808080808081, 0, 0, 0.8080808080808081, 0.30492424242424243, 18.83712121212121)" d="M14.47 3.91C21.30 3.91 26.85-1.63 26.85-8.46C26.85-15.29 21.30-20.84 14.47-20.84C7.64-20.84 2.10-15.29 2.10-8.46C2.10-1.63 7.64 3.91 14.47 3.91ZM9.16-6.14L11.18-11.32C11.32-11.70 11.74-11.88 12.13-11.74C12.49-11.59 12.68-11.17 12.53-10.79L11.06-7.02C10.99-6.86 11.03-6.75 11.17-6.68C11.77-6.32 12.20-6.11 12.94-6.11L14.05-6.11L13.16-8.65C13.14-8.71 13.13-8.80 13.13-8.89L13.13-13.66C13.13-14.07 13.44-14.38 13.84-14.38C14.25-14.38 14.58-14.07 14.58-13.66L14.58-9.06L16.20-5.93C16.76-4.86 16.30-3.60 14.70-3.60L12.68-3.60C11.39-3.60 10.57-3.82 9.71-4.42C9.16-4.82 8.91-5.48 9.16-6.14ZM7.70-6.53C6.90-6.53 6.26-7.18 6.26-7.97C6.26-8.77 6.90-9.42 7.70-9.42C8.50-9.42 9.14-8.77 9.14-7.97C9.14-7.18 8.50-6.53 7.70-6.53ZM17.05-4.62C17.16-5.12 17.05-5.73 16.79-6.25L16.72-6.38L18.95-6.79L22.08-7.35C22.46-7.43 22.85-7.17 22.92-6.76C22.99-6.36 22.73-5.99 22.34-5.92L19.37-5.39Z" fill="currentColor"/>
</svg>