<svg xmlns="http://www.w3.org/2000/svg" viewBox="0 0 24 24" width="24" height="24">
  <title>figure.seated.side.left.airbag.on</title>
  <path transform="matrix(0.7731618501146893, 0, 0, 0.7731618501146893, 0.302960002990317, 18.6169394505118)" d="M9.55-8.43C13.18-8.43 16.03-11.41 16.03-14.91C16.03-18.56 13.17-21.49 9.55-21.49C5.92-21.49 2.99-18.56 2.99-14.91C2.99-11.41 5.92-8.43 9.55-8.43ZM23.81-14.30C25.73-14.30 27.27-15.88 27.27-17.73C27.27-19.65 25.73-21.21 23.81-21.21C21.89-21.21 20.37-19.65 20.37-17.73C20.37-15.86 21.89-14.30 23.81-14.30ZM21.68-1.27C22.22-1.70 22.78-2.37 23.25-3.22L25.58-7.45C26.67-9.42 26.32-11.40 24.47-12.38C22.68-13.37 20.82-12.63 19.73-10.65L17.41-6.47ZM3.49 3.87C4.20 4.61 5.38 4.55 6.25 3.64L11.60-1.90C11.80-2.10 11.94-2.13 12.23-2.02L16.44-0.45C17.45-0.06 18.54-0.08 19.35-0.25L15.93-4.45L13.35-5.40C11.77-6 10.43-5.80 9.15-4.48L3.61 1.29C2.77 2.17 2.84 3.22 3.49 3.87ZM24.32 3.96C24.91 3.49 24.97 2.79 24.41 2.11L21.68-1.27C21-0.80 20.21-0.45 19.35-0.25L22.52 3.67C23.07 4.35 23.75 4.41 24.32 3.96Z" fill="currentColor"/>
</svg>