<svg xmlns="http://www.w3.org/2000/svg" viewBox="0 0 24 24" width="24" height="24">
  
  <path transform="matrix(0.8080808080808081, 0, 0, 0.8080808080808081, 0.30492424242424243, 18.83712121212121)" d="M14.47 3.91C21.30 3.91 26.85-1.63 26.85-8.46C26.85-15.29 21.30-20.84 14.47-20.84C7.64-20.84 2.10-15.29 2.10-8.46C2.10-1.63 7.64 3.91 14.47 3.91ZM14.47 0.83C9.34 0.83 5.18-3.33 5.18-8.46C5.18-13.61 9.34-17.75 14.47-17.75C19.62-17.75 23.77-13.61 23.77-8.46C23.77-3.33 19.62 0.83 14.47 0.83ZM11.52-12.64C12.28-12.64 12.89-13.25 12.89-14.03C12.89-14.78 12.28-15.39 11.52-15.39C10.77-15.39 10.15-14.78 10.15-14.03C10.15-13.25 10.77-12.64 11.52-12.64ZM15.33-2.13L18.73-2.13C19.20-2.13 19.34-2.73 18.95-3L17.86-3.71C17.95-3.88 18.01-4.08 18.07-4.28L19.43-9.69C20.34-9.76 21.08-10.54 21.08-11.46C21.08-12.43 20.29-13.23 19.31-13.23C18.34-13.23 17.54-12.43 17.54-11.46C17.54-10.78 17.94-10.18 18.52-9.89L17.17-4.50C16.95-3.63 16.23-3.07 15.33-3.07C15.07-3.07 14.87-2.84 14.87-2.60C14.87-2.36 15.07-2.13 15.33-2.13ZM19.31-10.62C18.82-10.62 18.47-10.98 18.47-11.46C18.47-11.94 18.82-12.30 19.31-12.30C19.80-12.30 20.17-11.94 20.17-11.46C20.17-10.98 19.80-10.62 19.31-10.62ZM13.62-2.41C13.93-2.32 14.32-2.48 14.43-2.88L15.34-6.18C15.46-6.63 15.27-6.96 14.81-7.09L12.21-7.83L12.41-10.01C12.41-10.09 12.49-10.11 12.55-10.08L13.70-9.25C13.93-9.08 14.24-9.08 14.48-9.25L16.62-10.77C16.92-10.99 16.99-11.41 16.78-11.71C16.57-12.02 16.14-12.08 15.83-11.87L14.10-10.62L12.66-11.65C12.34-11.88 11.95-12.05 11.48-12.05C10.68-12.05 10.05-11.53 10.01-10.80L9.81-7.93C9.75-7.07 10.17-6.40 11.17-6.25L13.85-5.87L13.14-3.23C13.02-2.84 13.24-2.50 13.62-2.41ZM9.62-2.13L12.23-2.13C12.49-2.13 12.69-2.36 12.69-2.60C12.69-2.85 12.49-3.07 12.23-3.07C11.89-3.07 11.65-3.22 11.57-3.60L11.32-4.69L11.73-4.77C11.94-4.82 12.07-5.00 12.07-5.20C12.07-5.41 11.91-5.60 11.72-5.63L9.68-5.96C9.25-6.05 9.08-5.64 9.21-5.34L9.34-5.12C9.55-4.70 9.90-4.44 10.41-4.50L10.57-3.77L9.36-2.99C8.98-2.73 9.13-2.13 9.62-2.13Z" fill="currentColor"/>
</svg>