<svg xmlns="http://www.w3.org/2000/svg" viewBox="0 0 24 24" width="24" height="24">
  <title>figure.stair.stepper.circle</title>
  <path transform="matrix(0.8080808080808081, 0, 0, 0.8080808080808081, 0.30492424242424243, 18.83712121212121)" d="M14.47 3.91C21.30 3.91 26.85-1.63 26.85-8.46C26.85-15.29 21.30-20.84 14.47-20.84C7.64-20.84 2.10-15.29 2.10-8.46C2.10-1.63 7.64 3.91 14.47 3.91ZM14.47 0.83C9.34 0.83 5.18-3.33 5.18-8.46C5.18-13.61 9.34-17.75 14.47-17.75C19.62-17.75 23.77-13.61 23.77-8.46C23.77-3.33 19.62 0.83 14.47 0.83ZM13.44-13.36C14.20-13.36 14.81-13.98 14.81-14.73C14.81-15.49 14.20-16.10 13.44-16.10C12.69-16.10 12.08-15.49 12.08-14.73C12.08-13.98 12.69-13.36 13.44-13.36ZM12.25-7.61L14.47-7.09L13.84-4.99C13.69-4.50 14.00-4.17 14.36-4.11C14.66-4.07 14.99-4.22 15.11-4.61L15.91-7.32C16.03-7.73 15.87-8.09 15.48-8.23L13.42-8.96L13.72-11.07C13.73-11.16 13.80-11.18 13.89-11.14L14.93-10.68C15.07-10.62 15.20-10.58 15.38-10.57L18.04-10.29C18.41-10.25 18.74-10.52 18.76-10.89C18.80-11.24 18.53-11.57 18.16-11.60L15.46-11.87L13.43-12.81C12.52-13.23 11.57-12.76 11.44-11.84L11.10-9.27C10.99-8.50 11.48-7.78 12.25-7.61ZM19.93-12.23C19.82-12.47 19.55-12.56 19.31-12.45C19.05-12.33 18.81-12.21 18.59-12.09C18.90-11.96 19.14-11.72 19.27-11.38C19.44-11.47 19.58-11.54 19.71-11.61C19.95-11.73 20.04-12 19.93-12.23ZM11.71-1.03L13.96-1.03C14.20-1.03 14.41-1.23 14.41-1.49L14.41-2.43L16.21-2.43C16.45-2.43 16.66-2.65 16.66-2.91L16.66-3.84L17.70-3.84C17.94-3.84 18.14-4.05 18.16-4.30L18.38-9.75C18.25-9.71 18.14-9.70 17.46-9.77L17.25-4.78L16.21-4.78C15.95-4.78 15.74-4.58 15.74-4.32L15.74-3.36L13.96-3.36C13.71-3.36 13.49-3.14 13.49-2.91L13.49-1.95L11.71-1.95C11.46-1.95 11.25-1.73 11.25-1.49C11.25-1.23 11.47-1.03 11.71-1.03ZM10.18-2.21C10.45-2.07 10.85-2.11 11.11-2.48L12.74-4.92C12.80-5.03 12.83-5.16 12.87-5.31L13.11-6.81L12.12-7.03C11.89-7.09 11.71-7.17 11.65-7.21L11.54-5.52L10.01-3.22C9.73-2.79 9.89-2.39 10.18-2.21Z" fill="currentColor"/>
</svg>