<svg xmlns="http://www.w3.org/2000/svg" viewBox="0 0 24 24" width="24" height="24">
  
  <path transform="matrix(0.6544426443838559, 0, 0, 0.6544426443838559, 3.1095877773713347, 17.56090772017395)" d="M13.58-17.04C15.46-17.04 16.96-18.59 16.96-20.39C16.96-22.27 15.46-23.78 13.58-23.78C11.71-23.78 10.24-22.27 10.24-20.39C10.24-18.56 11.71-17.04 13.58-17.04ZM18.79-14.02L21.61-17.14C22.16-17.78 22.13-18.46 21.57-18.94C21.06-19.37 20.41-19.37 19.83-18.73L16.62-15.13C17.44-14.86 18.16-14.46 18.79-14.02ZM7.09-4.56L16.62-15.13C15.73-15.45 14.72-15.60 13.58-15.60C9.25-15.60 6.67-13.50 6.67-10.01C6.67-9.18 6.71-8.04 6.84-6.87ZM20.07-4.56L20.33-6.87C20.46-8.04 20.51-9.18 20.51-10.01C20.51-11.68 19.91-13.07 18.79-14.02L11.40-5.77C12.13-5.87 12.86-5.91 13.58-5.91C15.73-5.91 17.88-5.63 20.07-4.56ZM3.32-0.26C3.82 0.27 4.50 0.25 5.09-0.35C5.79-1.02 6.50-1.58 7.37-2.02L7.09-4.56C5.74-3.93 4.57-3.05 3.43-1.99C2.87-1.46 2.86-0.75 3.32-0.26ZM23.85-0.26C24.30-0.75 24.30-1.45 23.74-1.99C22.59-3.05 21.43-3.93 20.07-4.56L19.79-2.02C20.66-1.58 21.38-1.02 22.08-0.34C22.66 0.25 23.34 0.27 23.85-0.26ZM9.97 6.77C10.93 6.64 11.57 5.95 11.44 4.78L10.85-0.69L16.32-0.69L15.74 4.78C15.62 5.95 16.24 6.64 17.19 6.77C18.18 6.87 18.93 6.27 19.05 5.11L19.79-2.02C17.84-3.15 15.67-3.57 13.58-3.57C11.51-3.57 9.33-3.15 7.37-2.02L8.12 5.11C8.25 6.27 9 6.87 9.97 6.77Z" fill="currentColor"/>
</svg>