<svg xmlns="http://www.w3.org/2000/svg" viewBox="0 0 24 24" width="24" height="24">
  
  <path transform="matrix(0.8080808080808081, 0, 0, 0.8080808080808081, 0.30492424242424243, 18.83712121212121)" d="M14.47 3.91C21.30 3.91 26.85-1.63 26.85-8.46C26.85-15.29 21.30-20.84 14.47-20.84C7.64-20.84 2.10-15.29 2.10-8.46C2.10-1.63 7.64 3.91 14.47 3.91ZM12.47-11.93C11.67-11.93 11.02-12.57 11.02-13.37C11.02-14.17 11.67-14.81 12.47-14.81C13.28-14.81 13.91-14.17 13.91-13.37C13.91-12.57 13.28-11.93 12.47-11.93ZM9.06-7.09L9.68-9.42C9.98-10.55 11.04-11.29 12.33-11.29L18.19-11.29C18.59-11.29 18.91-10.98 18.91-10.58C18.91-10.17 18.59-9.86 18.19-9.86L12.81-9.86C12.50-9.86 12.25-9.66 12.16-9.36L11.68-7.69L14.12-8.74C14.41-8.87 14.72-8.86 15-8.72L18.98-6.73C19.46-6.47 19.56-6.02 19.39-5.72C19.25-5.39 18.83-5.19 18.33-5.45L14.55-7.32L11.14-5.52C10.86-5.36 10.59-5.30 10.32-5.30C9.46-5.30 8.77-6 9.06-7.09ZM8.91-3.15C8.64-3.15 8.43-3.36 8.43-3.63C8.43-3.91 8.64-4.13 8.91-4.13L20.03-4.13C20.31-4.13 20.52-3.91 20.52-3.63C20.52-3.36 20.31-3.15 20.03-3.15Z" fill="currentColor"/>
</svg>