<svg xmlns="http://www.w3.org/2000/svg" viewBox="0 0 24 24" width="24" height="24">
  
  <path transform="matrix(0.7956487956487956, 0, 0, 0.7956487956487956, 0.09790209790209792, 18.662004662004662)" d="M5.94 3.07L23.98 3.07C26.12 3.07 27.53 1.45 27.53-0.48C27.53-1.08 27.38-1.70 27.05-2.27L18.02-18.04C17.33-19.22 16.16-19.82 14.96-19.82C13.76-19.82 12.57-19.21 11.89-18.04L2.87-2.26C2.54-1.69 2.39-1.08 2.39-0.48C2.39 1.45 3.80 3.07 5.94 3.07ZM15.14-11.29C14.41-11.29 13.84-11.86 13.84-12.56C13.84-13.28 14.41-13.85 15.14-13.85C15.84-13.85 16.42-13.28 16.42-12.56C16.42-11.86 15.84-11.29 15.14-11.29ZM16.38-1.18L15.14-3.71C15.09-3.81 15.07-3.87 14.95-4.01L13.76-5.51C13.29-6.09 13.14-6.43 13.20-7.09L13.28-8.32C13.29-8.47 13.11-8.54 12.98-8.41L12.60-8.09L12.47-6.56C12.43-6.15 12.21-5.94 11.85-5.98C11.51-5.99 11.29-6.26 11.31-6.63L11.43-8.04C11.45-8.44 11.55-8.68 11.85-8.99L12.76-9.87C13.35-10.43 13.77-10.77 14.41-10.77C15.27-10.77 15.79-10.14 15.73-9.28L15.60-7.57C15.55-6.95 15.48-6.57 15.26-5.95L15.23-5.82L15.98-4.75C16.10-4.58 16.23-4.39 16.32-4.21L17.53-1.75C17.95-0.89 16.77-0.41 16.38-1.18ZM18.48-8.44C18.86-8.44 19.13-8.21 19.13-7.86C19.13-7.51 18.86-7.29 18.48-7.29L17.21-7.29C16.85-7.29 16.66-7.36 16.46-7.56L16.24-7.77L16.35-9.32L17.14-8.44ZM12.13-1.02C11.61-0.41 10.63-1.13 11.23-1.84L12.97-3.91L13.24-5.14L14.26-3.88L14.18-3.61C14.11-3.41 14.09-3.34 13.91-3.13Z" fill="currentColor"/>
</svg>