<svg xmlns="http://www.w3.org/2000/svg" viewBox="0 0 24 24" width="24" height="24">
  <title>figure.and.child.holdinghands</title>
  <path transform="matrix(0.7331042382588774, 0, 0, 0.7331042382588774, 1.0005037602401097, 18.400343642611684)" d="M11.21-16.89C12.74-16.89 13.96-18.11 13.96-19.63C13.96-21.14 12.74-22.37 11.21-22.37C9.70-22.37 8.47-21.14 8.47-19.63C8.47-18.11 9.70-16.89 11.21-16.89ZM7.05 4.91C7.66 4.91 8.10 4.57 8.32 3.77C8.73 2.29 9.95-2.75 10.35-3.97C10.63-4.83 10.79-5.10 11.21-5.10C11.64-5.10 11.80-4.83 12.08-3.97C12.40-3.02 13.80 2.67 14.11 3.77C14.33 4.57 14.77 4.91 15.38 4.91C16.22 4.91 16.75 4.15 16.51 3.32C16.09 1.56 14.66-4.48 14.44-5.82C14.24-7.03 14.18-9.45 14.18-10.80C14.18-10.96 14.36-11.02 14.46-10.89L15.57-9.32C15.63-10.23 16.43-11.10 17.51-11.12L15.80-13.63C14.82-15.06 13.64-15.77 11.21-15.77C8.79-15.77 7.59-15.05 6.63-13.63L3.47-8.94C3.35-8.78 3.22-8.59 3.13-8.41C2.84-7.90 3-7.17 3.67-6.81C4.18-6.52 4.82-6.60 5.21-7.04C5.53-7.42 7.04-9.55 7.98-10.89C8.06-11.02 8.26-10.96 8.26-10.79C8.25-9.43 8.20-7.03 8.00-5.82C7.75-4.31 6.01 3 5.92 3.32C5.68 4.15 6.21 4.91 7.05 4.91ZM21.36-8.87C22.50-8.87 23.43-9.79 23.43-10.92C23.43-12.06 22.50-12.98 21.36-12.98C20.23-12.98 19.31-12.06 19.31-10.92C19.31-9.79 20.23-8.87 21.36-8.87ZM18.66 4.91C19.16 4.91 19.58 4.62 19.73 3.97C20.00 3.05 20.77-0.16 21.02-0.94C21.14-1.29 21.19-1.34 21.29-1.34C21.40-1.34 21.45-1.29 21.56-0.94C21.82-0.16 22.58 3.05 22.85 3.97C23.00 4.62 23.43 4.91 23.93 4.91C24.68 4.91 25.14 4.22 24.95 3.52C24.90 3.36 23.79-1.29 23.63-2.25C23.54-2.81 23.51-3.68 23.51-4.08C23.51-4.23 23.70-4.28 23.78-4.16L25.27-2.02C25.63-1.49 26.21-1.48 26.60-1.73C26.99-1.98 27.19-2.50 26.84-3.04L24.88-6.05C24.11-7.25 23.05-7.69 21.77-7.69L21.29-7.69C20.52-7.69 20.14-7.92 19.59-8.52L18.25-9.96C17.89-10.34 17.19-10.34 16.77-9.89C16.41-9.53 16.31-8.96 16.61-8.51C16.76-8.30 17.92-6.97 18.83-5.86C19.01-5.65 19.11-5.40 19.11-5.06C19.11-4.43 19.08-3.02 18.96-2.25C18.80-1.29 17.68 3.36 17.64 3.52C17.45 4.22 17.91 4.91 18.66 4.91Z" fill="currentColor"/>
</svg>