<svg xmlns="http://www.w3.org/2000/svg" viewBox="0 0 24 24" width="24" height="24">
  <title>figure.kickboxing.circle</title>
  <path transform="matrix(0.8080808080808081, 0, 0, 0.8080808080808081, 0.30492424242424243, 18.83712121212121)" d="M14.47 3.91C21.30 3.91 26.85-1.63 26.85-8.46C26.85-15.29 21.30-20.84 14.47-20.84C7.64-20.84 2.10-15.29 2.10-8.46C2.10-1.63 7.64 3.91 14.47 3.91ZM14.47 0.83C9.34 0.83 5.18-3.33 5.18-8.46C5.18-13.61 9.34-17.75 14.47-17.75C19.62-17.75 23.77-13.61 23.77-8.46C23.77-3.33 19.62 0.83 14.47 0.83ZM10.69-12.48C11.44-12.48 12.06-13.09 12.06-13.85C12.06-14.60 11.44-15.22 10.69-15.22C9.93-15.22 9.32-14.60 9.32-13.85C9.32-13.09 9.93-12.48 10.69-12.48ZM10.04-7.48L12.52-7.48L12.64-7.35C12.95-7.03 13.38-6.88 13.79-6.88C14.13-6.88 14.47-6.98 14.75-7.21L17.77-9.45L20.75-11.25C21.08-11.44 21.19-11.85 21-12.16C20.80-12.48 20.40-12.57 20.07-12.39L14.43-9L12.97-10.45C12.93-10.49 12.95-10.54 13.00-10.54L14.32-10.54C14.68-10.54 14.99-10.84 14.99-11.21L14.99-12.97C15.34-13.11 15.61-13.46 15.61-13.86C15.61-14.41 15.15-14.84 14.63-14.84C14.09-14.84 13.65-14.43 13.64-13.88C13.64-13.88 13.64-13.88 13.64-13.86L13.64-11.87L10.65-11.87C9.95-11.87 9.38-11.31 9.38-10.61L9.38-8.16C9.38-7.79 9.67-7.48 10.04-7.48ZM10.64-8.75L10.64-9.28C10.64-9.34 10.71-9.38 10.77-9.33L11.33-8.75ZM13.88-0.77C14.21-0.71 14.60-0.93 14.67-1.31L15.28-4.36C15.29-4.43 15.29-4.51 15.29-4.59L15.19-6.80C14.78-6.47 14.30-6.29 13.79-6.29C13.72-6.29 13.64-6.29 13.57-6.30L13.93-4.50L13.35-1.57C13.28-1.21 13.51-0.84 13.88-0.77Z" fill="currentColor"/>
</svg>