<svg xmlns="http://www.w3.org/2000/svg" viewBox="0 0 24 24" width="24" height="24">
  <title>figure.badminton.circle.fill</title>
  <path transform="matrix(0.8080808080808081, 0, 0, 0.8080808080808081, 0.30492424242424243, 18.83712121212121)" d="M14.47 3.91C21.30 3.91 26.85-1.63 26.85-8.46C26.85-15.29 21.30-20.84 14.47-20.84C7.64-20.84 2.10-15.29 2.10-8.46C2.10-1.63 7.64 3.91 14.47 3.91ZM8.29-10.77L9.95-13.68C9.68-13.93 9.52-14.30 9.52-14.71C9.52-15.52 10.17-16.17 10.99-16.17C11.80-16.17 12.46-15.52 12.46-14.71C12.46-13.89 11.80-13.23 10.99-13.23C10.92-13.23 10.85-13.24 10.78-13.25L9.47-10.95C9.53-10.90 9.61-10.84 9.67-10.78L11.10-9.34L20.14-13.86C20.51-14.04 20.93-13.90 21.12-13.54C21.29-13.18 21.16-12.74 20.79-12.55L16.64-10.49C16.50-10.42 16.46-10.30 16.51-10.10L18.28-3.05C18.38-2.68 18.22-2.36 17.91-2.14L15-0.21C14.66 0.01 14.20-0.08 13.99-0.41C13.77-0.75 13.86-1.22 14.18-1.43L16.71-3.08L16.05-4.80C16.01-4.92 15.91-4.92 15.86-4.83L14.58-2.47C14.43-2.20 14.17-2.07 13.90-2.07L10.95-2.07C10.54-2.07 10.21-2.40 10.21-2.80C10.21-3.22 10.54-3.54 10.95-3.54L13.43-3.54L14.50-6.18L13.85-8.81C13.82-8.94 13.68-9.01 13.52-8.93L11.33-7.83C10.97-7.64 10.62-7.75 10.43-7.95L8.41-9.94C8.18-10.18 8.13-10.49 8.29-10.77ZM10.39-14.71C10.39-14.37 10.65-14.12 10.99-14.12C11.32-14.12 11.58-14.37 11.58-14.71C11.58-15.04 11.32-15.29 10.99-15.29C10.65-15.29 10.39-15.04 10.39-14.71ZM14.36-11.81C13.56-11.81 12.91-12.47 12.91-13.27C12.91-14.05 13.56-14.70 14.36-14.70C15.15-14.70 15.80-14.05 15.80-13.27C15.80-12.47 15.15-11.81 14.36-11.81Z" fill="currentColor"/>
</svg>