<svg xmlns="http://www.w3.org/2000/svg" viewBox="0 0 24 24" width="24" height="24">
  
  <path transform="matrix(0.8080808080808081, 0, 0, 0.8080808080808081, 0.30492424242424243, 18.83712121212121)" d="M14.47 3.91C21.30 3.91 26.85-1.63 26.85-8.46C26.85-15.29 21.30-20.84 14.47-20.84C7.64-20.84 2.10-15.29 2.10-8.46C2.10-1.63 7.64 3.91 14.47 3.91ZM14.40-13.49C13.61-13.49 12.95-14.16 12.95-14.95C12.95-15.74 13.61-16.39 14.40-16.39C15.20-16.39 15.84-15.74 15.84-14.95C15.84-14.16 15.20-13.49 14.40-13.49ZM17.30-1.07C16.91-1.07 16.59-1.39 16.59-1.79L16.59-4.92L13.61-6.53C13.04-6.82 12.70-7.41 12.70-8.02L12.70-8.85L10.92-8.85C10.32-8.85 9.97-9.63 10.41-10.16L12.09-12.23C12.42-12.62 12.77-12.86 13.39-12.86L20.54-12.86C20.94-12.86 21.26-12.53 21.26-12.15C21.26-11.75 20.94-11.44 20.54-11.44L15.59-11.44C15.49-11.44 15.43-11.38 15.43-11.27L15.43-7.46L17.71-5.94C17.93-5.80 18.02-5.55 18.02-5.38L18.02-1.79C18.02-1.39 17.71-1.07 17.30-1.07ZM12.19-10.20L12.79-10.20L12.79-10.93ZM9.97-1.31C9.71-1.61 9.75-2.07 10.04-2.33L12.48-4.45L12.97-6.21C13.01-6.18 13.14-6.09 13.30-5.99L14.41-5.39L13.77-3.80C13.72-3.66 13.66-3.60 13.52-3.48L10.99-1.27C10.69-1.00 10.24-1.02 9.97-1.31Z" fill="currentColor"/>
</svg>