<svg xmlns="http://www.w3.org/2000/svg" viewBox="0 0 24 24" width="24" height="24">
  
  <path transform="matrix(0.7816261663406414, 0, 0, 0.7816261663406414, 0.17490473819988095, 18.698099623894407)" d="M23.81-14.45C25.73-14.45 27.27-16.03 27.27-17.88C27.27-19.80 25.73-21.36 23.81-21.36C21.90-21.36 20.38-19.80 20.38-17.88C20.38-16.01 21.90-14.45 23.81-14.45ZM9.52-10.38C9.52-9.35 10.56-8.89 11.32-9.59L14.92-12.81C15.43-13.27 15.43-13.86 14.92-14.33L11.32-17.57C10.59-18.22 9.52-17.85 9.52-16.77L9.52-14.81L4.23-14.81C3.54-14.81 3-14.26 3-13.58C3-12.89 3.54-12.34 4.23-12.34L9.52-12.34ZM3.49 3.71C4.21 4.45 5.38 4.39 6.25 3.50L11.60-2.05C11.80-2.25 11.95-2.29 12.25-2.17L16.27-0.67C18.96 0.35 21.79-0.70 23.05-3L25.58-7.61C26.66-9.57 26.31-11.52 24.47-12.53C22.68-13.52 20.82-12.79 19.73-10.80L16.25-4.49L13.36-5.57C11.77-6.15 10.43-5.95 9.15-4.63L3.61 1.14C2.77 2.02 2.84 3.07 3.49 3.71Z" fill="currentColor"/>
</svg>