<svg xmlns="http://www.w3.org/2000/svg" viewBox="0 0 24 24" width="24" height="24">
  
  <path transform="matrix(0.7816261663406414, 0, 0, 0.7816261663406414, 0.1731035832643566, 18.698099623894407)" d="M6.45-14.45C8.37-14.45 9.88-16.01 9.88-17.88C9.88-19.80 8.37-21.36 6.45-21.36C4.52-21.36 2.99-19.80 2.99-17.88C2.99-16.03 4.52-14.45 6.45-14.45ZM19.10-15.36L21.06-15.36L21.06-10.09C21.06-9.40 21.61-8.85 22.30-8.85C22.98-8.85 23.53-9.40 23.53-10.09L23.53-15.36L25.49-15.36C26.57-15.36 26.93-16.45 26.27-17.18L23.05-20.78C22.58-21.29 21.98-21.28 21.53-20.78L18.30-17.18C17.61-16.41 18.07-15.36 19.10-15.36ZM26.77 3.71C27.42 3.07 27.50 2.02 26.65 1.14L21.11-4.63C19.83-5.95 18.49-6.15 16.91-5.57L14.00-4.49L10.52-10.80C9.43-12.79 7.58-13.52 5.79-12.53C3.95-11.52 3.60-9.57 4.68-7.61L7.21-3C8.47-0.70 11.31 0.35 13.99-0.67L18.01-2.17C18.30-2.29 18.46-2.25 18.66-2.05L24.01 3.50C24.88 4.39 26.06 4.45 26.77 3.71Z" fill="currentColor"/>
</svg>