<svg xmlns="http://www.w3.org/2000/svg" viewBox="0 0 24 24" width="24" height="24">
  <title>figure.strengthtraining.functional</title>
  <path transform="matrix(0.7513647360759762, 0, 0, 0.7513647360759762, 1.8219494592217558, 18.412623453659606)" d="M14.63-16.32C16.14-16.32 17.38-17.57 17.38-19.10C17.38-20.61 16.14-21.84 14.63-21.84C13.09-21.84 11.86-20.61 11.86-19.10C11.86-17.57 13.09-16.32 14.63-16.32ZM11.25 2.94C11.74 2.81 12.06 2.65 12.28 2.25L14.91-2.46C14.95-2.53 15.01-2.58 15.11-2.58L21.38-2.58L21.38 3.40C21.38 4.17 22.00 4.76 22.72 4.76C23.50 4.76 24.11 4.17 24.11 3.40L24.11-3.81C24.11-4.69 23.61-5.23 22.70-5.31L17.36-5.79L17.36-12.53C17.36-13.93 16.36-15.12 14.63-15.12L14.05-15.12C13.05-15.12 12.26-14.94 11.27-14.20L7.21-11.16C6.45-10.59 6.49-9.46 7.29-8.93L12.18-5.67L12.18-5.45L10.05 0.45L4.00 2.11C3.27 2.31 2.84 3.06 3.04 3.76C3.26 4.54 3.95 4.92 4.71 4.72ZM10.41-10.14L11.89-11.25C12.02-11.36 12.18-11.29 12.18-11.12L12.18-8.95Z" fill="currentColor"/>
</svg>