<svg xmlns="http://www.w3.org/2000/svg" viewBox="0 0 24 24" width="24" height="24">
  
  <path transform="matrix(0.7268597387847814, 0, 0, 0.7268597387847814, 0.6669505962521294, 18.19250425894378)" d="M8.12-20.53L23.06-20.53C22.97-21.66 22.27-22.28 21.07-22.28L10.11-22.28C8.92-22.28 8.21-21.66 8.12-20.53ZM5.78-16.91L25.41-16.91C25.25-18.11 24.60-18.82 23.23-18.82L7.95-18.82C6.57-18.82 5.93-18.11 5.78-16.91ZM5.65 5.24L25.54 5.24C27.15 5.24 28.20 4.18 28.20 2.60L28.20-12.33C28.20-13.91 27.15-14.96 25.54-14.96L5.65-14.96C4.03-14.96 2.99-13.91 2.99-12.33L2.99 2.60C2.99 4.18 4.03 5.24 5.65 5.24ZM5.65-10.72C5.37-10.72 5.17-10.92 5.17-11.18L5.17-12.11C5.17-12.40 5.38-12.60 5.67-12.60L6.74-12.60C7.01-12.60 7.20-12.40 7.20-12.12L7.20-11.18C7.20-10.92 7.01-10.72 6.74-10.72ZM9.67-6.07C9.32-6.07 9.07-6.30 9.07-6.66L9.07-12C9.07-12.35 9.32-12.60 9.67-12.60L21.46-12.60C21.80-12.60 22.05-12.35 22.05-12L22.05-6.66C22.05-6.30 21.80-6.07 21.46-6.07ZM24.39-10.72C24.12-10.72 23.92-10.92 23.92-11.18L23.92-12.12C23.92-12.40 24.12-12.60 24.39-12.60L25.45-12.60C25.75-12.60 25.95-12.40 25.95-12.11L25.95-11.18C25.95-10.92 25.76-10.72 25.46-10.72ZM5.65-7.34C5.37-7.34 5.17-7.55 5.17-7.79L5.17-8.73C5.17-9 5.37-9.21 5.65-9.21L6.74-9.21C7.01-9.21 7.20-9 7.20-8.73L7.20-7.79C7.20-7.55 7.01-7.34 6.74-7.34ZM24.39-7.34C24.12-7.34 23.92-7.55 23.92-7.79L23.92-8.73C23.92-9 24.12-9.21 24.39-9.21L25.46-9.21C25.76-9.21 25.95-9 25.95-8.73L25.95-7.79C25.95-7.55 25.76-7.34 25.46-7.34ZM5.65-3.94C5.37-3.94 5.17-4.15 5.17-4.41L5.17-5.32C5.17-5.61 5.37-5.81 5.65-5.81L6.74-5.81C7.01-5.81 7.20-5.61 7.20-5.32L7.20-4.41C7.20-4.15 7.01-3.94 6.74-3.94ZM24.39-3.94C24.12-3.94 23.92-4.15 23.92-4.41L23.92-5.32C23.92-5.61 24.12-5.81 24.39-5.81L25.46-5.81C25.76-5.81 25.95-5.61 25.95-5.32L25.95-4.41C25.95-4.15 25.76-3.94 25.46-3.94ZM9.67 2.85C9.32 2.85 9.07 2.60 9.07 2.25L9.07-3.07C9.07-3.42 9.32-3.67 9.67-3.67L21.46-3.67C21.80-3.67 22.05-3.42 22.05-3.07L22.05 2.25C22.05 2.60 21.80 2.85 21.46 2.85ZM5.65-0.54C5.37-0.54 5.17-0.75 5.17-1.00L5.17-1.92C5.17-2.20 5.37-2.40 5.65-2.40L6.74-2.40C7.01-2.40 7.20-2.20 7.20-1.92L7.20-1.00C7.20-0.75 7.01-0.54 6.74-0.54ZM24.39-0.54C24.12-0.54 23.92-0.75 23.92-1.00L23.92-1.92C23.92-2.20 24.12-2.40 24.39-2.40L25.46-2.40C25.76-2.40 25.95-2.20 25.95-1.92L25.95-1.00C25.95-0.75 25.76-0.54 25.46-0.54ZM5.67 2.85C5.38 2.85 5.17 2.65 5.17 2.37L5.17 1.44C5.17 1.17 5.37 0.98 5.65 0.98L6.74 0.98C7.01 0.98 7.20 1.17 7.20 1.44L7.20 2.38C7.20 2.66 7.01 2.85 6.74 2.85ZM24.39 2.85C24.12 2.85 23.92 2.66 23.92 2.38L23.92 1.44C23.92 1.17 24.12 0.98 24.39 0.98L25.46 0.98C25.76 0.98 25.95 1.17 25.95 1.44L25.95 2.37C25.95 2.65 25.75 2.85 25.45 2.85Z" fill="currentColor"/>
</svg>