<svg xmlns="http://www.w3.org/2000/svg" viewBox="0 0 24 24" width="24" height="24">
  
  <path transform="matrix(0.8280769852822255, 0, 0, 0.8280769852822255, 1.0975254730713235, 18.797671033478895)" d="M13.17 3.87C13.41 3.87 13.75 3.76 14.05 3.61C20.92 0.04 23.34-1.83 23.34-6.09L23.34-14.77C23.34-16.44 22.78-17.12 21.33-17.74C20.17-18.23 15.90-19.66 14.81-20.02C14.31-20.18 13.68-20.29 13.17-20.29C12.66-20.29 12.04-20.16 11.52-20.02C10.43-19.71 6.16-18.22 5.00-17.74C3.55-17.12 2.99-16.44 2.99-14.77L2.99-6.09C2.99-1.83 5.43 0.02 12.28 3.61C12.59 3.76 12.93 3.87 13.17 3.87ZM13.17 0.80C13.03 0.80 12.90 0.75 12.57 0.56C7.32-2.68 5.79-3.42 5.79-6.54L5.79-14.38C5.79-14.82 5.88-15 6.22-15.14C7.88-15.81 11.09-16.86 12.30-17.32C12.70-17.45 12.94-17.51 13.17-17.51C13.41-17.51 13.63-17.45 14.03-17.32C15.25-16.86 18.45-15.76 20.11-15.14C20.45-15.01 20.54-14.82 20.54-14.38L20.54-6.54C20.54-3.36 18.84-2.47 13.76 0.56C13.43 0.75 13.30 0.80 13.17 0.80ZM14.17-13.62L14.17-12.62L8.91-12.62C8.39-12.62 7.98-12.20 7.98-11.70C7.98-11.18 8.39-10.76 8.91-10.76L14.17-10.76L14.17-9.77C14.17-9.16 14.79-8.92 15.27-9.25L18.05-11.12C18.47-11.40 18.47-11.98 18.02-12.27L15.26-14.12C14.79-14.46 14.17-14.21 14.17-13.62ZM8.29-5.26L11.06-3.40C11.54-3.07 12.16-3.30 12.16-3.93L12.16-4.91L17.43-4.91C17.94-4.91 18.35-5.33 18.35-5.84C18.35-6.35 17.94-6.77 17.43-6.77L12.16-6.77L12.16-7.76C12.16-8.37 11.55-8.59 11.07-8.27L8.31-6.42C7.88-6.12 7.86-5.54 8.29-5.26Z" fill="currentColor"/>
</svg>