<svg xmlns="http://www.w3.org/2000/svg" viewBox="0 0 24 24" width="24" height="24">
  
  <path transform="matrix(0.5679662438698992, 0, 0, 0.5679662438698992, 0.3019145896577575, 16.590184150901152)" d="M3.02-0.79C3.09-0.07 3.61 0.35 4.32 0.34C7.29 0.29 9.82-1.07 12.01-3.50C14.20-1.38 16.72-0.08 19.35 0.57L18.95 3.84C18.80 5.04 19.51 5.80 20.88 5.58C24.05 5.10 27.61 2.74 29.48 0.04C34.04-1.45 38.20-4.32 38.20-7.88C38.20-11.38 34.16-14.21 29.67-15.74C28.07-20.98 21.15-23.37 16.24-20.65C15.55-20.29 15.42-19.64 15.97-18.90C16.97-17.58 17.33-16.80 17.54-15.77C15.56-15.01 13.70-13.88 12.01-12.26C9.82-14.70 7.29-16.04 4.32-16.09C3.61-16.11 3.09-15.69 3.02-14.96C2.78-12.39 3.90-9.62 5.67-7.88C3.90-6.14 2.78-3.38 3.02-0.79ZM31.20-7.04C30.43-7.04 29.79-7.69 29.79-8.45C29.79-9.21 30.43-9.86 31.20-9.86C31.96-9.86 32.60-9.21 32.60-8.45C32.60-7.69 31.96-7.04 31.20-7.04Z" fill="currentColor"/>
</svg>