<svg xmlns="http://www.w3.org/2000/svg" viewBox="0 0 24 24" width="24" height="24">
  <title>fish</title>
  <path transform="matrix(0.55938829821412, 0, 0, 0.55938829821412, 0.32807366528265103, 16.51623930665272)" d="M21.20 5.85C24.36 5.36 27.98 2.99 29.88 0.28C34.45-1.23 38.73-4.20 38.74-7.88C38.73-11.50 34.62-14.40 30.15-15.94C28.44-21.23 21.35-23.64 16.37-20.88C15.59-20.46 15.39-19.58 16.03-18.74C16.93-17.53 17.27-16.84 17.50-15.93C15.66-15.20 13.89-14.12 12.29-12.63C10.11-14.99 7.55-16.31 4.59-16.36C3.77-16.37 3.11-15.82 3.02-14.99C2.78-12.43 3.87-9.67 5.57-7.88C3.87-6.09 2.78-3.33 3.02-0.76C3.11 0.07 3.77 0.62 4.59 0.61C7.55 0.56 10.11-0.77 12.29-3.12C14.41-1.16 16.83 0.12 19.32 0.79L18.95 3.82C18.79 5.13 19.66 6.09 21.20 5.85ZM18.90-18.97C18.81-19.10 18.83-19.23 18.96-19.27C21.80-20.06 25.18-19.10 26.89-16.80C25.78-17.00 24.71-17.12 23.73-17.12C22.46-17.12 21.16-16.97 19.89-16.68C19.69-17.44 19.41-18.16 18.90-18.97ZM23.73-1.42C19.86-1.42 16.22-2.78 13.18-6.16C12.61-6.82 11.77-6.80 11.20-6.11C9.47-3.96 7.96-2.85 6.13-2.39C5.96-2.34 5.86-2.47 5.88-2.64C6.12-4.15 7.13-5.74 8.44-6.81C9.34-7.57 9.26-8.26 8.44-8.95C7.22-9.95 6.21-11.40 5.88-13.11C5.85-13.29 5.96-13.41 6.13-13.37C8.04-12.89 9.57-11.66 11.20-9.66C11.77-8.95 12.61-8.94 13.18-9.59C16.22-12.98 19.86-14.33 23.73-14.33C28.90-14.33 35.99-10.99 35.99-7.88C35.99-4.76 28.90-1.42 23.73-1.42ZM31.46-7.10C32.19-7.10 32.81-7.71 32.81-8.45C32.81-9.19 32.19-9.80 31.46-9.80C30.73-9.80 30.11-9.19 30.11-8.45C30.11-7.71 30.73-7.10 31.46-7.10ZM23.73 1.36C24.19 1.36 24.67 1.34 25.16 1.29C24.23 1.96 23.26 2.52 22.18 2.86C22.00 2.92 21.87 2.86 21.89 2.63L22.02 1.28C22.59 1.34 23.17 1.36 23.73 1.36Z" fill="currentColor"/>
</svg>