<svg xmlns="http://www.w3.org/2000/svg" viewBox="0 0 24 24" width="24" height="24">
  <title>flag.pattern.checkered.circle</title>
  <path transform="matrix(0.8080808080808081, 0, 0, 0.8080808080808081, 0.30492424242424243, 18.83712121212121)" d="M14.47 3.91C21.30 3.91 26.85-1.63 26.85-8.46C26.85-15.29 21.30-20.84 14.47-20.84C7.64-20.84 2.10-15.29 2.10-8.46C2.10-1.63 7.64 3.91 14.47 3.91ZM14.47 0.83C9.34 0.83 5.18-3.33 5.18-8.46C5.18-13.61 9.34-17.75 14.47-17.75C19.62-17.75 23.77-13.61 23.77-8.46C23.77-3.33 19.62 0.83 14.47 0.83ZM10.28-2.36C10.69-2.36 10.98-2.67 10.98-3.07L10.98-6.21C11.21-6.29 11.60-6.39 12.12-6.39C14.06-6.39 15.32-5.40 17.30-5.40C18.14-5.40 18.54-5.50 19.01-5.71C19.56-5.95 19.80-6.36 19.80-6.97L19.80-12.49C19.80-12.95 19.54-13.24 18.97-13.24C18.61-13.24 18.12-13.01 17.24-13.01C15.41-13.01 14.13-14.00 12.06-14.00C11.20-14.00 10.82-13.91 10.36-13.71C9.83-13.48 9.55-13.04 9.55-12.46L9.55-3.07C9.55-2.68 9.89-2.36 10.28-2.36ZM10.90-9.16L10.90-10.79C11.03-10.92 11.39-11.09 11.96-11.09C12.13-11.09 12.48-11.07 12.73-11.03L12.73-12.52C13.39-12.43 14.02-12.23 14.66-12.05L14.66-10.55C15.27-10.36 15.97-10.20 16.58-10.13L16.58-11.61C16.82-11.58 17.05-11.57 17.30-11.57C17.73-11.57 18.12-11.60 18.41-11.68L18.41-10.20C18.16-10.14 17.75-10.08 17.30-10.08C17.12-10.08 16.89-10.08 16.58-10.13L16.58-8.48C16.90-8.44 17.18-8.44 17.39-8.44C17.82-8.44 18.14-8.47 18.41-8.57L18.41-7.11C18.28-6.98 17.93-6.83 17.33-6.83C17.07-6.83 16.84-6.86 16.58-6.90L16.58-8.48C15.89-8.58 15.29-8.72 14.66-8.93L14.66-7.38C14.05-7.56 13.42-7.73 12.73-7.80L12.73-9.39C12.53-9.42 12.29-9.46 11.96-9.46C11.38-9.46 11.03-9.29 10.90-9.16ZM12.73-9.39C13.43-9.29 13.97-9.12 14.66-8.93L14.66-10.55C14.02-10.76 13.44-10.93 12.73-11.03Z" fill="currentColor"/>
</svg>