<svg xmlns="http://www.w3.org/2000/svg" viewBox="0 0 24 24" width="24" height="24">
  
  <path transform="matrix(0.8169778203287059, 0, 0, 0.8169778203287059, -2.786979415988511, 18.912398276687412)" d="M7.64 1.39C8.67 1.39 9.43 0.66 9.43-0.34L9.43-16.59C9.43-17.58 8.67-18.32 7.64-18.32C6.62-18.32 5.86-17.58 5.86-16.59L5.86-0.34C5.86 0.66 6.62 1.39 7.64 1.39ZM12.71-0.79C12.71 0.66 13.62 1.39 14.67 1.39C15.12 1.39 15.59 1.27 16.04 1.01L28.82-6.43C29.80-7.01 30.34-7.58 30.34-8.46C30.34-9.35 29.80-9.93 28.82-10.50L16.04-17.93C15.59-18.20 15.12-18.32 14.67-18.32C13.62-18.32 12.71-17.59 12.71-16.14ZM15.74-2.70L15.74-14.24C15.74-14.39 15.84-14.50 15.98-14.50C16.03-14.50 16.08-14.48 16.13-14.45L26.07-8.67C26.17-8.63 26.21-8.54 26.21-8.46C26.21-8.39 26.17-8.31 26.07-8.25L16.13-2.47C16.08-2.45 16.03-2.43 15.98-2.43C15.84-2.43 15.74-2.53 15.74-2.70Z" fill="currentColor"/>
</svg>