<svg xmlns="http://www.w3.org/2000/svg" viewBox="0 0 24 24" width="24" height="24">
  <title>fuelpump.thermometer</title>
  <path transform="matrix(0.5283797729618163, 0, 0, 0.5283797729618163, 0.42105263157894757, 16.46749226006192)" d="M2.99 1.97C2.99 2.60 3.49 3.11 4.11 3.11L19.64 3.11C20.26 3.11 20.78 2.60 20.78 1.97C20.78 1.35 20.26 0.84 19.64 0.84L19.09 0.84L19.09-10.23C19.95-9.70 20.30-8.94 20.30-8.05C20.30-6.45 20.05-4.58 20.05-2.87C20.05-1.09 21.16 0.05 22.91 0.05C24.82 0.05 25.90-1.23 25.90-3.48C25.90-6.02 25.43-8.99 24.45-13.49L24.25-14.41C24.01-15.48 23.68-16.37 23.06-17.14L21.96-18.53C21.36-19.28 20.20-18.41 20.85-17.61L22.25-15.84C22.34-15.74 22.35-15.61 22.27-15.48L21.43-13.93C21.19-13.48 21.23-13.14 21.64-12.70L23.60-10.61C24.19-7.85 24.47-5.41 24.47-3.48C24.47-2.11 23.92-1.38 22.91-1.38C22.03-1.38 21.47-1.93 21.47-2.87C21.47-4.37 21.71-6.23 21.71-8.05C21.71-9.74 20.96-11.04 19.09-11.81L19.09-17.19C19.09-19.01 18.08-20.02 16.27-20.02L7.49-20.02C5.67-20.02 4.68-19.01 4.68-17.19L4.68 0.84L4.11 0.84C3.50 0.84 2.99 1.35 2.99 1.97ZM32.88 1.17C35.21 1.17 37.09-0.70 37.09-3.05C37.09-4.69 36.12-5.92 34.99-6.64C34.64-6.87 34.45-7.20 34.45-7.69L34.45-16.68C34.45-17.53 33.74-18.26 32.88-18.26C32.03-18.26 31.31-17.53 31.31-16.68L31.31-7.69C31.31-7.21 31.13-6.88 30.75-6.67C29.64-5.94 28.68-4.69 28.68-3.05C28.68-0.70 30.55 1.17 32.88 1.17ZM6.97-16.97C6.97-17.44 7.22-17.71 7.69-17.71L16.07-17.71C16.52-17.71 16.78-17.44 16.78-16.97L16.78 0.84L6.97 0.84ZM37.43-15.21L40.05-15.21C40.52-15.21 40.84-15.56 40.84-15.98C40.84-16.42 40.52-16.76 40.05-16.76L37.43-16.76C36.95-16.76 36.64-16.42 36.64-15.98C36.64-15.56 36.95-15.21 37.43-15.21ZM8.78-10.57L14.98-10.57C15.42-10.57 15.74-10.88 15.74-11.29L15.74-15.96C15.74-16.38 15.42-16.68 14.98-16.68L8.78-16.68C8.33-16.68 8.02-16.38 8.02-15.96L8.02-11.29C8.02-10.88 8.33-10.57 8.78-10.57ZM37.43-12.09L40.05-12.09C40.52-12.09 40.84-12.43 40.84-12.87C40.84-13.29 40.52-13.64 40.05-13.64L37.43-13.64C36.95-13.64 36.64-13.29 36.64-12.87C36.64-12.43 36.95-12.09 37.43-12.09ZM37.43-8.96L40.05-8.96C40.52-8.96 40.84-9.32 40.84-9.74C40.84-10.16 40.52-10.51 40.05-10.51L37.43-10.51C36.95-10.51 36.64-10.16 36.64-9.74C36.64-9.32 36.95-8.96 37.43-8.96Z" fill="currentColor"/>
</svg>