<svg xmlns="http://www.w3.org/2000/svg" viewBox="0 0 24 24" width="24" height="24">
  
  <path transform="matrix(0.7173882583718649, 0, 0, 0.7173882583718649, -0.14375788146279955, 18.05296343001261)" d="M17.94 0.50C18.61 0.50 18.96 0.29 19.50-0.47L23.41-5.87L23.51-5.87L27.45-0.42C27.95 0.28 28.37 0.50 29.10 0.50C30.05 0.50 30.76-0.18 30.76-1.09C30.76-1.54 30.62-1.93 30.34-2.32L25.80-8.44L30.43-14.60C30.73-15 30.87-15.35 30.87-15.75C30.87-16.70 30.15-17.38 29.18-17.38C28.49-17.38 28.07-17.11 27.60-16.41L23.73-10.80L23.65-10.80L19.80-16.39C19.31-17.14 18.95-17.38 18.18-17.38C17.13-17.38 16.38-16.68 16.38-15.70C16.38-15.29 16.52-14.88 16.78-14.52L21.19-8.48L16.59-2.11C16.36-1.78 16.24-1.43 16.24-1.05C16.24-0.16 16.98 0.50 17.94 0.50ZM4.79 0.47C5.91 0.47 6.62-0.19 6.62-1.31L6.62-6.64L12.61-6.64C13.56-6.64 14.14-7.15 14.14-8.04C14.14-8.95 13.56-9.47 12.61-9.47L6.62-9.47L6.62-14.16L13.25-14.16C14.24-14.16 14.85-14.70 14.85-15.63C14.85-16.57 14.24-17.12 13.25-17.12L4.78-17.12C3.69-17.12 2.99-16.45 2.99-15.34L2.99-1.31C2.99-0.19 3.69 0.47 4.79 0.47Z" fill="currentColor"/>
</svg>