<svg xmlns="http://www.w3.org/2000/svg" viewBox="0 0 24 24" width="24" height="24">
  
  <path transform="matrix(0.8080808080808081, 0, 0, 0.8080808080808081, 0.30492424242424243, 18.83712121212121)" d="M14.47 3.91C21.30 3.91 26.85-1.63 26.85-8.46C26.85-15.29 21.30-20.84 14.47-20.84C7.64-20.84 2.10-15.29 2.10-8.46C2.10-1.63 7.64 3.91 14.47 3.91ZM14.47 0.83C9.34 0.83 5.18-3.33 5.18-8.46C5.18-13.61 9.34-17.75 14.47-17.75C19.62-17.75 23.77-13.61 23.77-8.46C23.77-3.33 19.62 0.83 14.47 0.83ZM9.30-4.62C10.07-4.62 10.61-4.92 11.06-5.41L11.88-6.32C12-6.46 12.11-6.52 12.26-6.52L16.68-6.52C16.84-6.52 16.93-6.46 17.05-6.32L17.88-5.41C18.34-4.92 18.87-4.62 19.64-4.62C20.75-4.62 21.56-5.34 21.56-6.56C21.56-7.09 21.46-7.68 21.26-8.33C20.96-9.30 20.45-10.64 19.97-11.67C19.55-12.53 19.31-13.00 18.21-13.25C17.27-13.45 16.00-13.59 14.47-13.59C12.94-13.59 11.66-13.45 10.72-13.25C9.63-13.00 9.39-12.53 8.98-11.67C8.50-10.64 7.98-9.30 7.68-8.33C7.49-7.68 7.37-7.09 7.37-6.56C7.37-5.34 8.18-4.62 9.30-4.62ZM10.34-10.00C10.34-10.30 10.54-10.51 10.86-10.51L11.60-10.51L11.60-11.23C11.60-11.55 11.81-11.75 12.13-11.75C12.43-11.75 12.64-11.55 12.64-11.23L12.64-10.51L13.35-10.51C13.69-10.51 13.90-10.30 13.90-10.00C13.90-9.68 13.69-9.48 13.35-9.48L12.64-9.48L12.64-8.77C12.64-8.44 12.43-8.24 12.13-8.24C11.81-8.24 11.60-8.44 11.60-8.77L11.60-9.48L10.86-9.48C10.54-9.48 10.34-9.68 10.34-10.00ZM17.61-10.02C17.19-10.02 16.84-10.35 16.84-10.78C16.84-11.21 17.19-11.55 17.61-11.55C18.05-11.55 18.39-11.21 18.39-10.78C18.39-10.35 18.05-10.02 17.61-10.02ZM16.11-8.48C15.68-8.48 15.34-8.82 15.34-9.26C15.34-9.68 15.68-10.02 16.11-10.02C16.54-10.02 16.89-9.68 16.89-9.26C16.89-8.82 16.54-8.48 16.11-8.48Z" fill="currentColor"/>
</svg>