<svg xmlns="http://www.w3.org/2000/svg" viewBox="0 0 24 24" width="24" height="24">
  
  <path transform="matrix(0.7857581338244322, 0, 0, 0.7857581338244322, 0.4069981583793747, 19.0902394106814)" d="M2.99-10.02C2.99-8.64 3.82-7.90 5.17-7.90L13.39-7.90L13.39-14.92L11.74-14.92C10.03-14.92 9.05-15.90 9.05-17.14C9.05-18.33 9.82-19.10 11.05-19.10C12.34-19.10 13.39-17.99 13.39-16.46L13.39-14.92L16.11-14.92L16.11-7.90L24.33-7.90C25.69-7.90 26.52-8.64 26.52-10.02L26.52-12.25C26.52-14.02 25.52-14.92 23.79-14.92L22.11-14.92C22.78-15.60 23.19-16.51 23.19-17.55C23.19-19.99 21.23-21.75 18.81-21.75C16.93-21.75 15.30-20.65 14.75-18.69C14.20-20.65 12.57-21.75 10.70-21.75C8.27-21.75 6.30-19.99 6.30-17.55C6.30-16.51 6.71-15.60 7.38-14.92L5.72-14.92C4.02-14.92 2.99-14.02 2.99-12.25ZM18.46-19.10C19.69-19.10 20.45-18.33 20.45-17.14C20.45-15.90 19.48-14.92 17.77-14.92L16.11-14.92L16.11-16.46C16.11-17.99 17.17-19.10 18.46-19.10ZM4.51 0.47C4.51 2.54 5.74 3.70 7.84 3.70L13.39 3.70L13.39-6.19L4.51-6.19ZM16.11 3.70L21.67 3.70C23.75 3.70 24.98 2.54 24.98 0.47L24.98-6.19L16.11-6.19Z" fill="currentColor"/>
</svg>