<svg xmlns="http://www.w3.org/2000/svg" viewBox="0 0 24 24" width="24" height="24">
  
  <path transform="matrix(0.8080808080808081, 0, 0, 0.8080808080808081, 0.30492424242424243, 18.83712121212121)" d="M14.47 3.91C21.30 3.91 26.85-1.63 26.85-8.46C26.85-15.29 21.30-20.84 14.47-20.84C7.64-20.84 2.10-15.29 2.10-8.46C2.10-1.63 7.64 3.91 14.47 3.91ZM13.83-4.50C13.83-6.23 12.46-7.54 10.63-7.54C9.36-7.54 8.78-8.12 8.78-9.32C8.78-10.93 10.48-12 12.26-12C13.43-12 14.38-11.50 15.30-11.50C16.09-11.50 16.73-12.63 16.73-13.59C16.73-14.73 14.38-15.96 13.68-15.96C13.15-15.96 12.87-15.69 12.77-15.15L12.75-15.18C12.33-15.49 11.96-15.69 11.54-15.69C10.61-15.69 10.16-14.27 9.73-14.27C9.62-14.27 9.55-14.34 9.55-14.46C9.55-14.85 10.83-15.91 10.84-17.29L10.85-17.78C11.98-18.22 13.20-18.46 14.47-18.46C19.99-18.46 24.47-13.98 24.47-8.46C24.47-8.18 24.46-7.91 24.43-7.64C23.48-8.43 23.80-11.74 22.23-11.74C21.69-11.74 21.34-11.29 21.23-11.29C21.18-11.29 20.61-11.74 20.24-12.05C19.92-12.32 19.55-12.69 18.87-12.69C18.05-12.69 17.26-11.80 17.26-10.92C17.26-9.66 19.51-8.88 19.51-8.60C19.51-8.40 19.42-8.23 19.02-7.78C18.52-7.21 18.30-6.83 18.30-6.36C18.30-6.16 18.33-5.98 18.34-5.80C18.40-5.09 18.36-4.84 18.18-4.51C17.67-3.73 16.21-1.10 14.85-1.10C13.72-1.10 13.83-2.79 13.83-4.50ZM14.47 1.54C8.96 1.54 4.48-2.94 4.48-8.46C4.48-12.18 6.50-15.41 9.50-17.13C9.50-15.94 8.30-15.46 8.30-14.29C8.30-13.63 8.78-13.20 9.49-13.20C10.75-13.20 11.11-14.54 11.61-14.54C11.93-14.53 12.38-13.84 13.25-13.84C13.66-13.84 13.95-14.09 14.05-14.53C14.75-14.23 15.39-13.84 15.39-13.51C15.39-13.28 15.29-12.93 15.08-12.93C14.71-12.93 13.42-13.43 12.26-13.43C9.70-13.43 7.35-11.72 7.35-9.32C7.35-7.32 8.57-6.11 10.63-6.11C11.65-6.11 12.40-5.43 12.40-4.50C12.40-2.82 12.20 0.33 14.85 0.33C17.09 0.33 18.94-3.04 19.39-3.80C20.02-4.82 19.73-5.81 19.73-6.36C19.73-6.61 20.94-7.58 20.94-8.60C20.94-9.69 18.61-10.66 18.61-10.93C18.61-11.13 18.80-11.39 18.93-11.39C19.28-11.39 20.55-9.82 21.33-9.82C21.86-9.82 22.02-10.21 22.10-10.21C22.31-10.21 22.51-6.84 24.20-6.16C23.16-1.76 19.20 1.54 14.47 1.54ZM17.95-15.32C18.18-15.32 18.39-15.07 18.86-15.07C19.18-15.07 19.42-15.36 19.42-15.74C19.42-16.35 18.75-16.83 17.86-16.83C16.83-16.83 16.22-16.48 16.22-15.84C16.22-15.42 16.54-15.11 16.96-15.11C17.40-15.11 17.55-15.32 17.95-15.32Z" fill="currentColor"/>
</svg>