<svg xmlns="http://www.w3.org/2000/svg" viewBox="0 0 24 24" width="24" height="24">
  <title>globe</title>
  <path transform="matrix(0.8080808080808081, 0, 0, 0.8080808080808081, 0.30492424242424243, 18.83712121212121)" d="M14.47 3.91C21.30 3.91 26.85-1.63 26.85-8.46C26.85-15.29 21.30-20.84 14.47-20.84C7.64-20.84 2.10-15.29 2.10-8.46C2.10-1.63 7.64 3.91 14.47 3.91ZM7.34-15.46C8.48-16.63 9.90-17.51 11.51-18.01C10.64-17.17 9.91-15.97 9.36-14.51C8.57-14.77 7.89-15.08 7.34-15.46ZM17.45-18.01C19.04-17.51 20.47-16.63 21.61-15.46C21.07-15.08 20.38-14.77 19.58-14.51C19.04-15.97 18.30-17.17 17.45-18.01ZM11.19-14.07C11.80-15.68 12.64-16.89 13.57-17.38L13.57-13.83C12.73-13.86 11.93-13.95 11.19-14.07ZM15.39-17.38C16.30-16.89 17.14-15.68 17.75-14.07C17.02-13.95 16.22-13.86 15.39-13.83ZM4.52-9.38C4.68-11.10 5.27-12.70 6.20-14.07C6.88-13.57 7.78-13.14 8.85-12.80C8.60-11.74 8.44-10.58 8.38-9.38ZM20.57-9.38C20.51-10.58 20.36-11.74 20.10-12.80C21.16-13.14 22.08-13.57 22.75-14.07C23.67-12.70 24.27-11.10 24.43-9.38ZM10.23-9.38C10.29-10.41 10.44-11.41 10.66-12.34C11.57-12.18 12.55-12.06 13.57-12.02L13.57-9.38ZM15.39-9.38L15.39-12.02C16.41-12.06 17.38-12.18 18.29-12.34C18.52-11.41 18.66-10.41 18.71-9.38ZM4.52-7.56L8.38-7.56C8.44-6.32 8.60-5.14 8.86-4.07C7.80-3.74 6.90-3.30 6.23-2.81C5.29-4.18 4.68-5.80 4.52-7.56ZM10.23-7.56L13.57-7.56L13.57-4.85C12.55-4.80 11.58-4.69 10.66-4.52C10.44-5.47 10.29-6.49 10.23-7.56ZM15.39-4.85L15.39-7.56L18.73-7.56C18.67-6.49 18.52-5.47 18.28-4.52C17.38-4.69 16.39-4.80 15.39-4.85ZM20.10-4.07C20.36-5.14 20.52-6.32 20.57-7.56L24.43-7.56C24.27-5.80 23.66-4.18 22.72-2.81C22.04-3.30 21.15-3.74 20.10-4.07ZM15.39-3.04C16.22-3 17.00-2.92 17.74-2.79C17.13-1.21 16.29-0.01 15.39 0.48ZM11.20-2.79C11.94-2.92 12.74-3 13.57-3.04L13.57 0.48C12.66-0.01 11.81-1.21 11.20-2.79ZM7.37-1.43C7.91-1.80 8.59-2.11 9.38-2.36C9.91-0.94 10.63 0.25 11.47 1.08C9.90 0.57 8.51-0.29 7.37-1.43ZM19.57-2.36C20.36-2.11 21.04-1.80 21.57-1.43C20.45-0.29 19.04 0.57 17.47 1.08C18.32 0.25 19.04-0.94 19.57-2.36Z" fill="currentColor"/>
</svg>