<svg xmlns="http://www.w3.org/2000/svg" viewBox="0 0 24 24" width="24" height="24">
  <title>grid.circle</title>
  <path transform="matrix(0.8080808080808081, 0, 0, 0.8080808080808081, 0.30492424242424243, 18.83712121212121)" d="M14.47 3.91C21.30 3.91 26.85-1.63 26.85-8.46C26.85-15.29 21.30-20.84 14.47-20.84C7.64-20.84 2.10-15.29 2.10-8.46C2.10-1.63 7.64 3.91 14.47 3.91ZM14.47 0.83C9.34 0.83 5.18-3.33 5.18-8.46C5.18-13.61 9.34-17.75 14.47-17.75C19.62-17.75 23.77-13.61 23.77-8.46C23.77-3.33 19.62 0.83 14.47 0.83ZM7.88-6.25C7.88-5.64 8.29-5.25 8.91-5.25L11.24-5.25L11.24-2.92C11.24-2.27 11.63-1.89 12.23-1.89C12.83-1.89 13.22-2.27 13.22-2.92L13.22-5.25L15.71-5.25L15.71-2.92C15.71-2.27 16.09-1.89 16.70-1.89C17.31-1.89 17.70-2.29 17.70-2.92L17.70-5.25L20.03-5.25C20.66-5.25 21.07-5.64 21.07-6.25C21.07-6.84 20.66-7.23 20.03-7.23L17.70-7.23L17.70-9.70L20.03-9.70C20.66-9.70 21.07-10.09 21.07-10.69C21.07-11.30 20.66-11.68 20.03-11.68L17.70-11.68L17.70-14.02C17.70-14.65 17.31-15.05 16.70-15.05C16.09-15.05 15.71-14.66 15.71-14.02L15.71-11.68L13.22-11.68L13.22-14.02C13.22-14.66 12.83-15.05 12.23-15.05C11.63-15.05 11.24-14.66 11.24-14.02L11.24-11.68L8.91-11.68C8.29-11.68 7.88-11.30 7.88-10.69C7.88-10.09 8.29-9.70 8.91-9.70L11.24-9.70L11.24-7.23L8.91-7.23C8.29-7.23 7.88-6.84 7.88-6.25ZM13.22-7.23L13.22-9.70L15.73-9.70L15.73-7.23Z" fill="currentColor"/>
</svg>