<svg xmlns="http://www.w3.org/2000/svg" viewBox="0 0 24 24" width="24" height="24">
  <title>hammer.fill</title>
  <path transform="matrix(0.6622790388074873, 0, 0, 0.6622790388074873, 0.21910883005559656, 17.46650172554581)" d="M27.84-8.53C28.43-7.97 29.16-7.95 29.71-8.48L32.51-11.30C33.04-11.81 33.01-12.56 32.45-13.14L31.79-13.79C31.35-14.26 31.01-14.32 30.53-14.27L29.60-14.18L28.97-14.80L29.23-15.93C29.41-16.71 29.14-17.48 28.35-18.28L26.10-20.51C23.36-23.21 17.78-22.78 15.47-20.36C14.93-19.78 14.94-19.11 15.26-18.66C15.54-18.26 16.13-18.08 16.72-18.36C18.35-19.10 19.99-19.38 21.43-18.88L20.57-16.65C20.20-15.71 20.36-15.01 21-14.37L22.93-12.42C23.55-11.80 24.18-11.59 24.96-11.75L26.18-12.01L26.81-11.38L26.71-10.46C26.64-9.96 26.72-9.63 27.20-9.16ZM3.54 3.70L4.84 5.02C6.04 6.21 7.58 6.13 8.77 4.77L22.24-10.89C22.04-11.03 21.86-11.19 21.66-11.38L19.86-13.18C19.71-13.35 19.56-13.51 19.45-13.68L3.80-0.21C2.39 0.98 2.34 2.51 3.54 3.70Z" fill="currentColor"/>
</svg>