<svg xmlns="http://www.w3.org/2000/svg" viewBox="0 0 24 24" width="24" height="24">
  <title>handbag.sensor.tag.radiowaves.left.and.right</title>
  <path transform="matrix(0.44340521347536155, 0, 0, 0.44340521347536155, 1.0698882826708236, 15.746427643543777)" d="M24.66 2.86C30.90 2.86 35.96-2.20 35.96-8.45C35.96-14.70 30.90-19.76 24.66-19.76C18.40-19.76 13.34-14.70 13.34-8.45C13.34-2.20 18.40 2.86 24.66 2.86ZM6.95-0.47C7.39-1.00 7.25-1.65 6.76-2.19C5.32-3.80 4.51-6.02 4.51-8.46C4.51-10.89 5.31-13.11 6.76-14.72C7.27-15.27 7.39-15.93 6.95-16.45C6.48-17.02 5.65-17.09 5.00-16.39C3.18-14.44 2.10-11.52 2.10-8.46C2.10-5.40 3.09-2.53 5.00-0.52C5.67 0.16 6.48 0.11 6.95-0.47ZM42.35-0.46C42.82 0.12 43.64 0.18 44.30-0.50C46.21-2.52 47.20-5.38 47.20-8.45C47.20-11.50 46.13-14.43 44.30-16.38C43.65-17.07 42.82-17.00 42.35-16.44C41.91-15.91 42.05-15.26 42.54-14.71C43.99-13.10 44.79-10.88 44.79-8.45C44.79-6.01 43.98-3.79 42.54-2.18C42.05-1.64 41.91-0.98 42.35-0.46ZM24.66-0.09C20.04-0.09 16.30-3.83 16.30-8.45C16.30-13.07 20.04-16.80 24.66-16.80C29.27-16.80 33-13.07 33-8.45C33-3.83 29.27-0.09 24.66-0.09ZM24.64-8.43C26.37-8.43 27.73-9.14 28.56-10.88C28.38-10.96 28.17-11.00 27.93-11.02L27.93-11.41C27.93-13.29 26.58-14.59 24.64-14.59C22.71-14.59 21.35-13.29 21.35-11.41L21.35-11.02C21.15-11.02 20.92-10.97 20.72-10.88C21.56-9.14 22.91-8.43 24.64-8.43ZM10.62-3.86C11.03-4.37 10.88-5.00 10.48-5.57C9.93-6.28 9.57-7.42 9.57-8.46C9.57-9.52 9.93-10.64 10.48-11.37C10.88-11.93 11.03-12.55 10.62-13.07C10.16-13.64 9.27-13.68 8.67-13.01C7.69-11.88 7.16-10.23 7.16-8.46C7.16-6.70 7.69-5.05 8.67-3.93C9.27-3.26 10.16-3.28 10.62-3.86ZM38.68-3.84C39.14-3.27 40.03-3.25 40.63-3.90C41.61-5.03 42.14-6.69 42.14-8.45C42.14-10.21 41.61-11.86 40.63-13.00C40.03-13.66 39.14-13.63 38.68-13.05C38.27-12.54 38.43-11.92 38.82-11.34C39.38-10.63 39.73-9.49 39.73-8.45C39.73-7.39 39.38-6.27 38.82-5.55C38.43-4.99 38.27-4.36 38.68-3.84ZM22.51-11.41C22.51-12.60 23.39-13.44 24.64-13.44C25.90-13.44 26.78-12.60 26.78-11.41L26.78-11.02L22.51-11.02ZM29.99-5.78L29.55-9.49C29.53-9.73 29.47-9.91 29.39-10.08C28.52-8.52 27.28-7.70 25.77-7.42L25.77-7.17C25.77-6.73 25.55-6.50 25.10-6.50L24.19-6.50C23.73-6.50 23.51-6.73 23.51-7.17L23.51-7.42C22.01-7.70 20.78-8.52 19.90-10.08C19.82-9.91 19.76-9.71 19.72-9.49L19.29-5.78C19.14-4.44 19.85-3.59 21.11-3.59L28.18-3.59C29.43-3.59 30.14-4.44 29.99-5.78Z" fill="currentColor"/>
</svg>