<svg xmlns="http://www.w3.org/2000/svg" viewBox="0 0 24 24" width="24" height="24">
  
  <path transform="matrix(0.569458347236125, 0, 0, 0.569458347236125, 0.29829829829829846, 16.621287954621287)" d="M18.64-16.29C18.67-20.23 15.53-23.16 10.70-23.16L9.29-23.17C8.02-23.17 6.98-23.07 6.38-22.92C5.39-22.69 4.63-22.05 4.63-21.04C4.63-20.68 4.72-20.39 4.83-20.17C4.89-20.06 4.88-20.00 4.79-19.97C4.11-19.59 3.63-18.98 3.63-18.19C3.63-17.73 3.76-17.32 3.96-17.02C4.04-16.90 4.03-16.80 3.91-16.75C3.45-16.42 3.13-15.81 3.13-15.11C3.13-14.60 3.27-14.10 3.53-13.82C3.62-13.71 3.61-13.64 3.50-13.56C3.18-13.24 2.99-12.74 2.99-12.15C2.99-11.04 3.86-10.14 4.99-10.14L8.61-10.14C9.43-10.14 9.94-9.75 9.94-9.12C9.94-7.80 8.21-5.27 8.21-3.39C8.21-2.34 8.89-1.68 9.83-1.68C10.62-1.68 11.05-2.14 11.52-3.07C13.05-6.01 15.06-8.43 16.62-10.49C18.02-12.34 18.62-13.91 18.64-16.29ZM23.84-16.38C23.84-19.59 21.86-22.18 19.22-22.18L17.64-22.18C19.41-20.74 20.27-18.64 20.25-16.25C20.24-13.82 19.46-12 18.41-10.54L19.59-10.54C22.01-10.54 23.84-13.08 23.84-16.38ZM16.70-0.52C16.70 3.05 18.96 5.94 22.08 5.94L25.15 5.94C26.46 6.59 28.00 6.94 29.63 6.94L30.96 6.94C32.26 6.94 33.35 6.86 34.04 6.68C35.57 6.32 36.57 5.16 36.57 3.79C36.57 3.60 36.56 3.41 36.52 3.26C37.16 2.68 37.50 1.92 37.50 1.08C37.50 0.73 37.44 0.36 37.34 0.06C37.76-0.45 37.98-1.11 37.98-1.83C37.98-2.29 37.90-2.73 37.72-3.09C37.98-3.56 38.11-4.11 38.11-4.71C38.11-6.40 36.86-7.68 35.18-7.68L31.77-7.68C31.65-7.68 31.59-7.71 31.62-7.82C31.73-8.71 33.14-10.96 33.14-12.90C33.14-14.50 31.99-15.68 30.43-15.68C29.32-15.68 28.52-15.08 27.82-13.73C26.63-11.40 25.11-9.40 23.23-7.03L21.71-7.03C18.79-7.03 16.70-4.16 16.70-0.52ZM23.30-0.63C23.30-2.57 23.71-3.79 24.98-5.50C26.41-7.42 28.43-9.75 29.86-12.63C30.07-13.04 30.20-13.15 30.41-13.15C30.63-13.15 30.80-12.97 30.80-12.66C30.80-11.47 29.21-9.09 29.21-7.48C29.21-6.19 30.22-5.34 31.65-5.34L35.07-5.34C35.48-5.34 35.78-5.04 35.78-4.65C35.78-4.36 35.68-4.18 35.44-3.93C35.05-3.54 35.02-2.91 35.34-2.53C35.57-2.23 35.65-2.06 35.65-1.83C35.65-1.55 35.52-1.34 35.23-1.10C34.75-0.77 34.61-0.18 34.86 0.36C35.03 0.67 35.10 0.83 35.10 1.04C35.10 1.39 34.89 1.64 34.43 1.90C33.96 2.16 33.82 2.72 34.01 3.20C34.15 3.54 34.17 3.61 34.17 3.75C34.17 4.03 33.97 4.28 33.43 4.41C32.89 4.54 32.02 4.62 30.73 4.61L29.70 4.59C25.85 4.58 23.30 2.44 23.30-0.63ZM18.98-0.52C18.98-2.82 20.07-4.59 21.38-4.73L21.79-4.73C21.21-3.47 20.95-2.17 20.95-0.60C20.95 1.05 21.47 2.54 22.44 3.76C22.25 3.75 22.04 3.75 21.83 3.75C20.26 3.60 18.98 1.79 18.98-0.52Z" fill="currentColor"/>
</svg>