<svg xmlns="http://www.w3.org/2000/svg" viewBox="0 0 24 24" width="24" height="24">
  
  <path transform="matrix(0.7234703970609015, 0, 0, 0.7234703970609015, 1.996820686731665, 18.447647308181434)" d="M21.12-2.47L22.97-0.62C23.25-1.18 23.51-1.78 23.73-2.41L25.86-8.38C26.04-8.86 26.11-9.32 26.11-9.75C26.11-11.19 25.08-12.38 23.46-12.38C22.62-12.38 21.79-11.91 21.39-11.02L20.96-10.01C20.95-9.97 20.93-9.95 20.88-9.95C20.84-9.95 20.81-9.98 20.81-10.03L20.81-18.42C20.81-20.09 19.68-21.19 18.01-21.19C17.63-21.19 17.25-21.08 16.95-20.88C16.59-22.04 15.68-22.73 14.40-22.73C13.18-22.73 12.23-22.02 11.87-20.91C11.60-21.09 11.26-21.19 10.91-21.19C9.36-21.19 8.27-20.11 8.27-18.59L8.27-17.82C8.02-18.02 7.68-18.13 7.31-18.13C6.77-18.13 6.28-17.95 5.94-17.65L7.75-15.83L7.75-15.88C7.78-15.97 7.85-16.03 7.97-16.03C8.32-16.03 8.57-15.79 8.57-15.43L8.57-15.02L10.44-13.14L10.44-18.16C10.44-18.52 10.68-18.76 11.02-18.76C11.36-18.76 11.61-18.52 11.61-18.16L11.61-11.98L13.79-9.80L13.79-19.70C13.79-20.05 14.04-20.31 14.38-20.31C14.71-20.31 14.95-20.05 14.95-19.70L14.95-9.96C14.95-9.35 15.45-8.88 16.04-8.88C16.64-8.88 17.13-9.35 17.13-9.96L17.13-18.16C17.13-18.52 17.38-18.76 17.72-18.76C18.06-18.76 18.30-18.52 18.30-18.16L18.30-6.26C18.30-5.59 18.82-4.98 19.54-4.99C20.09-5.00 20.61-5.26 20.91-5.93L22.58-9.69C22.76-10.09 23.07-10.22 23.38-10.11C23.70-10.01 23.81-9.68 23.67-9.27L21.43-3.23C21.33-2.96 21.23-2.72 21.12-2.47ZM22.97 4.22C23.34 4.59 23.99 4.61 24.36 4.22C24.74 3.83 24.75 3.21 24.36 2.82L3.23-18.29C2.85-18.68 2.21-18.68 1.82-18.29C1.45-17.92 1.45-17.27 1.82-16.90ZM14.07 4.91C16.34 4.91 18.27 4.32 19.85 3.16L18 1.34C16.89 2.00 15.55 2.32 13.99 2.32C9.71 2.32 7.10-0.38 7.10-5.04L7.10-9.55L4.65-11.99L4.65-4.82C4.65 1.15 8.40 4.91 14.07 4.91Z" fill="currentColor"/>
</svg>