<svg xmlns="http://www.w3.org/2000/svg" viewBox="0 0 24 24" width="24" height="24">
  <title>hand.thumbsup</title>
  <path transform="matrix(0.7262411347517731, 0, 0, 0.7262411347517731, 1.012765957446807, 18.263829787234044)" d="M2.10-3.93C2.10 0.43 4.84 3.93 8.64 3.93L12.40 3.93C13.99 4.71 15.84 5.14 17.84 5.14L19.46 5.14C21.06 5.14 22.38 5.04 23.24 4.82C25.08 4.37 26.29 2.99 26.29 1.34C26.29 1.10 26.25 0.89 26.19 0.68C26.98 0 27.42-0.94 27.42-1.97C27.42-2.41 27.34-2.85 27.20-3.21C27.73-3.82 28.01-4.65 28.01-5.52C28.01-6.08 27.89-6.63 27.67-7.08C27.98-7.61 28.16-8.31 28.16-9.06C28.16-11.07 26.65-12.61 24.64-12.61L20.48-12.61C20.31-12.61 20.18-12.69 20.21-12.88C20.38-13.97 22.08-16.71 22.08-19.04C22.08-20.98 20.71-22.39 18.83-22.39C17.48-22.39 16.52-21.68 15.67-20.05C14.19-17.18 12.32-14.68 10.03-11.84L8.19-11.84C4.62-11.84 2.10-8.36 2.10-3.93ZM10.03-4.07C10.03-6.43 10.56-7.95 12.12-10.03C13.86-12.39 16.31-15.23 18.06-18.74C18.33-19.25 18.50-19.38 18.79-19.38C19.13-19.38 19.34-19.14 19.34-18.73C19.34-17.27 17.40-14.39 17.40-12.42C17.40-10.90 18.59-9.87 20.32-9.87L24.50-9.87C25.03-9.87 25.41-9.48 25.41-8.96C25.41-8.61 25.29-8.37 24.98-8.04C24.54-7.58 24.47-6.82 24.88-6.40C25.14-6.04 25.25-5.81 25.25-5.51C25.25-5.16 25.07-4.85 24.71-4.59C24.15-4.21 23.99-3.48 24.29-2.85C24.48-2.50 24.57-2.29 24.57-2.02C24.57-1.57 24.29-1.23 23.74-0.93C23.19-0.62 23.03 0.07 23.25 0.61C23.43 1.02 23.45 1.11 23.45 1.31C23.45 1.69 23.17 2.00 22.51 2.16C21.84 2.32 20.75 2.40 19.15 2.40L17.92 2.39C13.20 2.37 10.03-0.26 10.03-4.07ZM4.76-3.93C4.76-6.74 6.08-8.94 7.72-9.13C7.93-9.14 8.14-9.14 8.36-9.15C7.62-7.59 7.28-5.96 7.28-4.02C7.28-1.98 7.95-0.13 9.19 1.38C8.92 1.38 8.60 1.37 8.31 1.37C6.34 1.17 4.76-1.07 4.76-3.93Z" fill="currentColor"/>
</svg>