<svg xmlns="http://www.w3.org/2000/svg" viewBox="0 0 24 24" width="24" height="24">
  <title>hand.point.up.braille</title>
  <path transform="matrix(0.7069870201601768, 0, 0, 0.7069870201601768, 3.669776438395398, 17.990057995028998)" d="M9.59-19.48C10.46-19.48 11.17-20.18 11.17-21.05C11.17-21.90 10.46-22.62 9.59-22.62C8.73-22.62 8.03-21.90 8.03-21.05C8.03-20.18 8.73-19.48 9.59-19.48ZM19.86-19.48C20.72-19.48 21.43-20.18 21.43-21.05C21.43-21.90 20.72-22.62 19.86-22.62C19.00-22.62 18.29-21.90 18.29-21.05C18.29-20.18 19.00-19.48 19.86-19.48ZM12.73 5.67C17.79 5.67 20.91 2.51 20.91-2.87L20.91-5.71C20.91-8.26 19.62-9.87 17.47-9.96C17.12-10.76 16.35-11.24 15.40-11.24C15.14-11.24 14.89-11.20 14.66-11.14C14.27-12.01 13.55-12.52 12.59-12.52C12.47-12.52 12.34-12.49 12.20-12.47L12.21-15C12.21-16.63 11.14-17.73 9.59-17.73C8.00-17.73 6.90-16.63 6.90-15L6.90-7.62C6.90-7.55 6.83-7.52 6.80-7.58L6.43-8.39C5.96-9.07 5.33-9.52 4.52-9.52C3.18-9.52 2.13-8.63 2.13-7.21C2.12-6.80 2.21-6.32 2.37-5.92L4.27-0.66C5.78 3.50 8.68 5.67 12.73 5.67ZM15.08-14.58C15.95-14.58 16.65-15.29 16.65-16.15C16.65-17.02 15.95-17.72 15.08-17.72C14.21-17.72 13.52-17.02 13.52-16.15C13.52-15.29 14.21-14.58 15.08-14.58ZM19.86-14.58C20.72-14.58 21.43-15.29 21.43-16.15C21.43-17.02 20.72-17.72 19.86-17.72C19.00-17.72 18.29-17.02 18.29-16.15C18.29-15.29 19.00-14.58 19.86-14.58ZM4.17-14.57C5.04-14.57 5.74-15.26 5.74-16.13C5.74-16.98 5.04-17.70 4.17-17.70C3.30-17.70 2.60-16.98 2.60-16.13C2.60-15.26 3.30-14.57 4.17-14.57ZM12.80 3.28C9.83 3.28 7.73 1.83 6.46-1.48L4.45-6.64C4.41-6.75 4.39-6.83 4.39-6.96C4.39-7.20 4.55-7.38 4.84-7.38C5.04-7.38 5.17-7.25 5.26-7.03L6.84-3.82C7.11-3.26 7.55-3.06 7.99-3.06C8.59-3.06 9.08-3.50 9.08-4.21L9.09-15.13C9.09-15.41 9.28-15.61 9.55-15.61C9.84-15.61 10.03-15.41 10.03-15.13L10.03-7.63C10.03-7.10 10.48-6.68 11.00-6.68C11.52-6.68 11.96-7.10 11.96-7.63L11.96-10.20C12.08-10.24 12.23-10.27 12.38-10.27C12.69-10.27 12.91-10.04 12.91-9.69L12.91-7.18C12.91-6.64 13.35-6.26 13.86-6.26C14.37-6.26 14.80-6.64 14.80-7.18L14.80-8.93C14.93-8.96 15.07-9 15.21-9C15.54-9 15.76-8.78 15.76-8.43L15.76-6.77C15.76-6.23 16.21-5.82 16.72-5.82C17.23-5.82 17.67-6.23 17.67-6.77L17.67-7.55C18.32-7.51 18.66-6.94 18.66-5.82L18.66-3.07C18.66 0.98 16.48 3.28 12.80 3.28Z" fill="currentColor"/>
</svg>