<svg xmlns="http://www.w3.org/2000/svg" viewBox="0 0 24 24" width="24" height="24">
  <title>hare.circle</title>
  <path transform="matrix(0.8080808080808081, 0, 0, 0.8080808080808081, 0.30492424242424243, 18.83712121212121)" d="M14.47 3.91C21.30 3.91 26.85-1.63 26.85-8.46C26.85-15.29 21.30-20.84 14.47-20.84C7.64-20.84 2.10-15.29 2.10-8.46C2.10-1.63 7.64 3.91 14.47 3.91ZM14.47 0.83C9.34 0.83 5.18-3.33 5.18-8.46C5.18-13.61 9.34-17.75 14.47-17.75C19.62-17.75 23.77-13.61 23.77-8.46C23.77-3.33 19.62 0.83 14.47 0.83ZM14.87-3.54C15.23-3.54 15.60-3.71 16.27-3.71C16.93-3.71 17.13-3.54 17.65-3.54C18.39-3.54 18.82-3.86 18.82-4.42C18.82-5.29 17.96-6 16.41-6C15.61-6 15.27-5.88 14.81-5.78L14.23-7.08C13.65-8.33 12.61-9 11.40-9L10.78-9C10.54-9 10.38-9.11 10.38-9.35C10.38-9.73 10.84-9.82 11.36-9.82C12.91-9.82 14.18-9.01 14.94-7.32L15.28-6.54C15.61-6.61 15.98-6.64 16.36-6.64C16.66-6.64 16.95-6.62 17.24-6.56C17.57-6.74 17.93-6.94 18.32-7.14C18.91-6.75 19.55-6.39 20.50-6.39C21.70-6.39 22.37-6.80 22.37-8.14C22.37-9.76 21.23-11.13 19.50-11.06L18.27-12.83C17.55-13.86 16.59-14.33 15.66-14.33C14.91-14.33 13.65-13.92 13.65-13.32C13.65-12.94 14.48-12.36 15.13-11.94L17.95-10.11C17.73-9.91 17.55-9.80 17.25-9.80C16.82-9.80 16.34-10.09 15.79-10.41C14.17-11.39 13.07-12.22 11.34-12.22C9.68-12.22 8.30-11.30 7.61-9.28C7.05-9.29 6.63-8.94 6.63-8.44C6.63-7.86 7.10-7.50 7.75-7.50C8.51-6.27 9.63-5.82 11.18-5.82C11.27-5.82 11.37-5.84 11.44-5.84L13.54-4.08C14.05-3.63 14.46-3.54 14.87-3.54ZM20.12-8.32C19.85-8.32 19.64-8.55 19.64-8.81C19.64-9.09 19.86-9.33 20.13-9.33C20.40-9.33 20.61-9.11 20.61-8.85C20.61-8.57 20.39-8.32 20.12-8.32ZM10.93-3.12C11.87-3.12 12.47-3.28 12.96-3.62L11.43-4.91C11.36-4.91 11.27-4.90 11.18-4.90C10.93-4.90 10.49-4.98 10.08-4.98C9.50-4.98 9.16-4.69 9.16-4.24C9.16-3.57 9.86-3.12 10.93-3.12Z" fill="currentColor"/>
</svg>