<svg xmlns="http://www.w3.org/2000/svg" viewBox="0 0 24 24" width="24" height="24">
  <title>headphones.sensor.tag.radiowaves.left.and.right.fill</title>
  <path transform="matrix(0.44340521347536155, 0, 0, 0.44340521347536155, 1.0698882826708236, 15.746427643543777)" d="M24.66 2.86C30.90 2.86 35.96-2.20 35.96-8.45C35.96-14.70 30.90-19.76 24.66-19.76C18.40-19.76 13.34-14.70 13.34-8.45C13.34-2.20 18.40 2.86 24.66 2.86ZM6.95-0.47C7.39-1.00 7.25-1.65 6.76-2.19C5.32-3.80 4.51-6.02 4.51-8.46C4.51-10.89 5.31-13.11 6.76-14.72C7.27-15.27 7.39-15.93 6.95-16.45C6.48-17.02 5.65-17.09 5.00-16.39C3.18-14.44 2.10-11.52 2.10-8.46C2.10-5.40 3.09-2.53 5.00-0.52C5.67 0.16 6.48 0.11 6.95-0.47ZM42.35-0.46C42.82 0.12 43.64 0.18 44.30-0.50C46.21-2.52 47.20-5.38 47.20-8.45C47.20-11.50 46.13-14.43 44.30-16.38C43.65-17.07 42.82-17.00 42.35-16.44C41.91-15.91 42.05-15.26 42.54-14.71C43.99-13.10 44.79-10.88 44.79-8.45C44.79-6.01 43.98-3.79 42.54-2.18C42.05-1.64 41.91-0.98 42.35-0.46ZM18.91-8.46C18.91-12.15 21.22-14.64 24.68-14.64C28.14-14.64 30.47-12.14 30.47-8.46C30.47-6.47 29.99-5.00 29.16-3.55C28.93-3.16 28.50-3.04 28.10-3.21C27.81-2.91 27.38-2.80 26.89-2.94C26.17-3.13 25.83-3.74 26.03-4.45L26.78-7.07C26.99-7.79 27.61-8.14 28.31-7.93C28.51-7.89 28.69-7.79 28.83-7.69C28.84-7.93 28.85-8.19 28.85-8.46C28.85-11.19 27.19-13.02 24.68-13.02C22.17-13.02 20.52-11.20 20.52-8.46C20.52-8.19 20.53-7.95 20.55-7.70C20.68-7.80 20.85-7.89 21.02-7.93C21.75-8.14 22.37-7.79 22.58-7.07L23.33-4.48C23.53-3.75 23.19-3.13 22.46-2.94C22.00-2.79 21.55-2.91 21.25-3.21C20.86-3.04 20.43-3.16 20.21-3.55C19.39-4.95 18.91-6.43 18.91-8.46ZM10.62-3.86C11.03-4.37 10.88-5.00 10.48-5.57C9.93-6.28 9.57-7.42 9.57-8.46C9.57-9.52 9.93-10.64 10.48-11.37C10.88-11.93 11.03-12.55 10.62-13.07C10.16-13.64 9.27-13.68 8.67-13.01C7.69-11.88 7.16-10.23 7.16-8.46C7.16-6.70 7.69-5.05 8.67-3.93C9.27-3.26 10.16-3.28 10.62-3.86ZM38.68-3.84C39.14-3.27 40.03-3.25 40.63-3.90C41.61-5.03 42.14-6.69 42.14-8.45C42.14-10.21 41.61-11.86 40.63-13.00C40.03-13.66 39.14-13.63 38.68-13.05C38.27-12.54 38.43-11.92 38.82-11.34C39.38-10.63 39.73-9.49 39.73-8.45C39.73-7.39 39.38-6.27 38.82-5.55C38.43-4.99 38.27-4.36 38.68-3.84Z" fill="currentColor"/>
</svg>