<svg xmlns="http://www.w3.org/2000/svg" viewBox="0 0 24 24" width="24" height="24">
  <title>headphones.dots</title>
  <path transform="matrix(0.8084636033475446, 0, 0, 0.8084636033475446, 0.0814779725248691, 18.84509711037423)" d="M6.07-11.59C6.07-9.09 6.80-6.36 8.02-4.23C8.32-3.68 8.94-3.47 9.52-3.73C10.01-3.18 10.75-2.98 11.57-3.23C12.68-3.61 13.20-4.63 12.82-5.72L11.67-9.33C11.31-10.44 10.30-10.95 9.20-10.61C8.95-10.52 8.73-10.41 8.55-10.27C8.50-10.71 8.47-11.16 8.47-11.59C8.47-15.71 10.97-18.43 14.74-18.43C18.52-18.43 21.01-15.71 21.01-11.59C21.01-11.16 20.98-10.71 20.93-10.27C20.75-10.41 20.53-10.52 20.29-10.61C19.17-10.95 18.18-10.44 17.81-9.33L16.65-5.72C16.28-4.63 16.80-3.61 17.92-3.23C18.73-2.98 19.48-3.18 19.97-3.73C20.54-3.47 21.15-3.68 21.47-4.23C22.69-6.36 23.41-9.09 23.41-11.59C23.41-17.13 19.95-20.84 14.74-20.84C9.53-20.84 6.07-17.13 6.07-11.59ZM5.16 3.90C6.35 3.90 7.32 2.93 7.32 1.75C7.32 0.55 6.35-0.42 5.16-0.42C3.96-0.42 2.99 0.55 2.99 1.75C2.99 2.93 3.96 3.90 5.16 3.90ZM11.54 3.90C12.74 3.90 13.71 2.93 13.71 1.75C13.71 0.55 12.74-0.42 11.54-0.42C10.35-0.42 9.38 0.55 9.38 1.75C9.38 2.93 10.35 3.90 11.54 3.90ZM17.94 3.90C19.14 3.90 20.11 2.93 20.11 1.75C20.11 0.55 19.14-0.42 17.94-0.42C16.75-0.42 15.77 0.55 15.77 1.75C15.77 2.93 16.75 3.90 17.94 3.90ZM24.33 3.90C25.52 3.90 26.50 2.93 26.50 1.75C26.50 0.55 25.52-0.42 24.33-0.42C23.13-0.42 22.16 0.55 22.16 1.75C22.16 2.93 23.13 3.90 24.33 3.90Z" fill="currentColor"/>
</svg>