<svg xmlns="http://www.w3.org/2000/svg" viewBox="0 0 24 24" width="24" height="24">
  <title>headlight.fog.fill</title>
  <path transform="matrix(0.6181335265000604, 0, 0, 0.6181335265000604, 0.15284317276349157, 17.230449660535132)" d="M4.23-5.03C3.55-5.03 2.99-4.45 2.99-3.79C2.99-3.11 3.55-2.54 4.23-2.54L8.30-2.54C8.12-1.37 7.66-0.36 6.94 0.36C5.64 1.64 7.37 3.35 8.68 2.18C9.96 1.02 10.72-0.64 10.96-2.54L13.49-2.54C13.31-3.38 13.18-4.21 13.10-5.02L10.97-5.02C10.89-5.74 10.75-6.48 10.52-7.22L12.96-7.22C12.95-7.70 12.95-9.22 12.96-9.70L9.62-9.70C9.36-10.44 9.19-11.18 9.09-11.89L13.10-11.89C13.18-12.62 13.34-13.71 13.49-14.37L9.09-14.37C9.27-15.55 9.73-16.56 10.45-17.29C11.75-18.57 10.02-20.27 8.70-19.10C7.42-17.94 6.66-16.28 6.43-14.37L4.23-14.37C3.55-14.37 2.99-13.82 2.99-13.14C2.99-12.45 3.55-11.91 4.23-11.91L6.42-11.89C6.50-11.18 6.66-10.44 6.87-9.70L4.23-9.70C3.55-9.70 2.99-9.13 2.99-8.46C2.99-7.78 3.55-7.22 4.23-7.22L7.77-7.22C8.03-6.48 8.20-5.74 8.31-5.02ZM14.85-8.46C14.82-6.22 15-3.98 15.66-1.69C16.43 0.95 17.92 1.92 21.02 1.92L21.71 1.92C29.00 1.92 35.34-2.85 35.34-8.46C35.34-14.07 29.00-18.86 21.71-18.86L21.02-18.86C17.93-18.86 16.45-17.87 15.66-15.25C15-12.95 14.82-10.70 14.85-8.46Z" fill="currentColor"/>
</svg>