<svg xmlns="http://www.w3.org/2000/svg" viewBox="0 0 24 24" width="24" height="24">
  
  <path transform="matrix(0.7722473604826546, 0, 0, 0.7722473604826546, 2.3846153846153837, 18.751131221719458)" d="M2.99-1.62C2.99 2.05 5.18 4.21 8.75 4.21C11.43 4.21 13.38 2.92 14.63 0.59L15.64-1.30C17.67-5.07 21.91-6.28 21.91-12.13C21.91-17.86 18.15-21.69 12.52-21.69C6.81-21.69 2.99-17.82 2.99-12.04ZM5.55-1.69L5.55-12.04C5.55-16.30 8.33-19.13 12.52-19.13C16.63-19.13 19.36-16.32 19.36-12.13C19.36-7.37 15.59-6.54 13.29-2.30L12.40-0.69C11.60 0.81 10.52 1.62 8.87 1.62C6.80 1.62 5.55 0.38 5.55-1.69ZM7.20-5.05C7.20-3.86 8.12-3.04 9.50-3.04C11.33-3.04 12.57-4.42 12.57-6.30C12.57-9.50 9.28-10.07 9.29-12.52C9.29-14.23 10.58-15.42 12.50-15.42C14.52-15.42 15.84-14.12 15.84-12.14C15.84-11.55 16.31-11.09 16.90-11.09C17.46-11.09 17.93-11.55 17.93-12.14C17.93-15.35 15.76-17.51 12.50-17.51C9.33-17.51 7.20-15.41 7.20-12.52C7.20-9.93 9.34-9.14 9.34-8.10C9.34-6.90 7.20-7.10 7.20-5.05Z" fill="currentColor"/>
</svg>