<svg xmlns="http://www.w3.org/2000/svg" viewBox="0 0 24 24" width="24" height="24">
  
  <path transform="matrix(0.572773534733509, 0, 0, 0.572773534733509, 0.7973551233957847, 16.888014598108658)" d="M19.56-0.96C21.75-0.96 24.39-0.20 26.33 0.76C27.04 1.10 27.82 1.01 28.31 0.38L36.39-9.89C37.36-11.12 37.20-12.49 35.98-13.45C32.55-16.13 26.12-18.02 19.56-18.02C12.98-18.02 6.56-16.13 3.14-13.45C1.92-12.49 1.76-11.12 2.73-9.89L10.80 0.38C11.30 1.01 12.07 1.10 12.77 0.76C14.73-0.20 17.37-0.96 19.56-0.96ZM5.65-11.46C9.43-13.83 14.39-15.21 19.56-15.21C24.73-15.21 29.68-13.83 33.47-11.46C33.70-11.31 33.73-11.09 33.56-10.86L32.41-9.42L26.84-9.42L25.71-11.84C25.31-12.68 24.25-12.67 23.87-11.87L22.30-8.50L20.37-12.75C20.03-13.49 19.08-13.49 18.74-12.75L16.80-8.50L15.23-11.87C14.86-12.67 13.79-12.68 13.41-11.84L12.28-9.42L6.69-9.42L5.55-10.86C5.39-11.09 5.43-11.31 5.65-11.46ZM19.56-3.77C17.44-3.77 14.93-3.21 12.71-2.31C12.48-2.21 12.34-2.24 12.18-2.46L8.34-7.31L12.93-7.31C13.37-7.31 13.65-7.54 13.84-7.95L14.32-9L16.00-5.37C16.31-4.66 17.27-4.66 17.61-5.39L19.56-9.64L21.49-5.39C21.83-4.66 22.78-4.66 23.11-5.37L24.79-9L25.27-7.95C25.45-7.54 25.73-7.31 26.18-7.31L30.76-7.31L26.95-2.47C26.77-2.24 26.64-2.20 26.39-2.31C24.19-3.21 21.68-3.77 19.56-3.77Z" fill="currentColor"/>
</svg>