<svg xmlns="http://www.w3.org/2000/svg" viewBox="0 0 24 24" width="24" height="24">
  <title>hifireceiver.fill</title>
  <path transform="matrix(0.5431784426055591, 0, 0, 0.5431784426055591, 0.3768300445576047, 16.598981540420116)" d="M12.67-1.30L12.67-2.14L30.14-2.14L30.14-1.30C30.14-0.48 30.70 0.08 31.52 0.08L35.78 0.08C36.60 0.08 37.16-0.48 37.16-1.30L37.16-2.32C38.88-2.77 39.81-4.10 39.81-6.20L39.81-12.96C39.81-15.59 38.37-17.02 35.73-17.02L7.08-17.02C4.44-17.02 2.99-15.59 2.99-12.96L2.99-6.20C2.99-4.10 3.91-2.77 5.64-2.32L5.64-1.30C5.64-0.48 6.20 0.08 7.03 0.08L11.27 0.08C12.11 0.08 12.67-0.48 12.67-1.30ZM10.04-6.83C8.52-6.83 7.28-8.06 7.28-9.60C7.28-11.12 8.52-12.35 10.04-12.35C11.57-12.35 12.79-11.12 12.79-9.60C12.79-8.06 11.57-6.83 10.04-6.83ZM32.75-6.83C31.24-6.83 30.01-8.06 30.01-9.60C30.01-11.12 31.24-12.35 32.75-12.35C34.29-12.35 35.52-11.12 35.52-9.60C35.52-8.06 34.29-6.83 32.75-6.83ZM16.42-6.96C15.75-6.96 15.33-7.38 15.33-8.05L15.33-11.11C15.33-11.78 15.75-12.20 16.42-12.20L26.38-12.20C27.05-12.20 27.48-11.78 27.48-11.11L27.48-8.05C27.48-7.38 27.05-6.96 26.38-6.96Z" fill="currentColor"/>
</svg>