<svg xmlns="http://www.w3.org/2000/svg" viewBox="0 0 24 24" width="24" height="24">
  
  <path transform="matrix(0.6147934678194045, 0, 0, 0.6147934678194045, 0.16282420749279525, 17.371037463976947)" d="M6.63-1.69L11.39-1.69C11.17-2.51 11.04-3.60 11.00-4.39L6.96-4.39C6.11-4.39 5.70-4.83 5.70-5.65L5.70-19.01C5.70-19.82 6.11-20.26 6.96-20.26L16.00-20.26C16.85-20.26 17.26-19.82 17.26-19.01L17.26-15.89C18.08-16.27 18.98-16.55 19.97-16.76L19.97-19.30C19.97-21.66 18.67-22.97 16.32-22.97L6.63-22.97C4.29-22.97 2.99-21.66 2.99-19.30L2.99-5.34C2.99-2.99 4.29-1.69 6.63-1.69ZM11.48-14.47C12.74-14.47 13.78-15.50 13.78-16.77C13.78-18.02 12.75-19.05 11.48-19.05C10.22-19.05 9.19-18.02 9.19-16.77C9.19-15.50 10.22-14.47 11.48-14.47ZM11.48-15.86C10.97-15.86 10.56-16.25 10.56-16.77C10.56-17.27 10.97-17.68 11.48-17.68C11.99-17.68 12.40-17.27 12.40-16.77C12.40-16.25 11.99-15.86 11.48-15.86ZM24.14-12.48C27.09-12.48 29.25-13.02 29.25-13.88C29.25-14.75 27.11-15.28 24.14-15.28C21.21-15.28 19.07-14.75 19.07-13.88C19.07-13.02 21.22-12.48 24.14-12.48ZM7.54-9.36C7.54-7.37 9.02-5.72 10.96-5.47C10.97-6.22 11.06-7.27 11.23-8.03C10.56-8.12 10.07-8.68 10.07-9.38C10.07-10.16 10.70-10.79 11.48-10.79C11.67-10.79 11.87-10.75 12.05-10.64C12.40-11.44 12.82-12.18 13.31-12.86C12.70-13.15 12.12-13.31 11.48-13.31C9.30-13.31 7.54-11.54 7.54-9.36ZM24.14 5.50C28.23 5.50 30.07 4.95 31.78 3.35C34.14 1.21 35.52-1.92 35.52-5.20C35.52-7.82 34.64-10.32 33.05-12.29C32.43-13.09 31.55-13.24 30.64-12.68C29.18-11.68 27.26-11.07 24.14-11.07C21.02-11.07 19.10-11.68 17.64-12.68C16.73-13.24 15.86-13.10 15.23-12.29C13.64-10.32 12.76-7.82 12.76-5.20C12.76-1.92 14.13 1.21 16.49 3.35C18.20 4.95 20.05 5.50 24.14 5.50ZM24.14 2.46C20.86 2.46 19.66 2.17 18.55 1.11C16.78-0.50 15.80-2.78 15.80-5.20C15.80-6.59 16.11-7.91 16.97-9.41C18.77-8.51 21.19-8.03 24.14-8.03C27.09-8.03 29.51-8.51 31.30-9.41C32.17-7.92 32.48-6.59 32.48-5.20C32.48-2.78 31.49-0.50 29.72 1.11C28.61 2.17 27.42 2.46 24.14 2.46Z" fill="currentColor"/>
</svg>