<svg xmlns="http://www.w3.org/2000/svg" viewBox="0 0 24 24" width="24" height="24">
  
  <path transform="matrix(0.8111533586818758, 0, 0, 0.8111533586818758, -0.42395437262357394, 18.81083650190114)" d="M15.32-16.65C18.59-16.65 20.95-17.24 20.95-18.19C20.95-19.15 18.60-19.72 15.32-19.72C12.08-19.72 9.73-19.15 9.73-18.19C9.73-17.24 12.09-16.65 15.32-16.65ZM15.32 2.93C19.75 2.93 21.74 2.36 23.60 0.63C26.16-1.71 27.64-5.09 27.64-8.64C27.64-11.43 26.73-14.17 24.86-16.48C24.22-17.31 23.51-17.32 22.76-16.83C20.95-15.56 18.70-14.93 15.32-14.93C11.92-14.93 9.67-15.56 7.88-16.83C7.13-17.32 6.40-17.31 5.77-16.48C3.90-14.17 2.99-11.43 2.99-8.64C2.99-5.09 4.48-1.71 7.03 0.63C8.89 2.36 10.89 2.93 15.32 2.93Z" fill="currentColor"/>
</svg>