<svg xmlns="http://www.w3.org/2000/svg" viewBox="0 0 24 24" width="24" height="24">
  <title>horn</title>
  <path transform="matrix(0.6664063516855395, 0, 0, 0.6664063516855395, 0.008590394377196331, 17.641264295723857)" d="M4.43-2.48C5.23-2.48 5.87-3.13 5.87-3.94L5.87-4.20L7.28-4.20C7.11-3.76 7.02-3.30 7.02-2.81C7.02-0.74 8.72 0.96 10.79 0.96L17.44 0.96C19.45 0.96 21.13-0.66 21.21-2.67C23.46-1.69 25.63-0.19 27.71 1.84C29.92 3.96 33 2.73 33-0.32L33-16.61C33-19.65 29.92-20.89 27.71-18.77C23.66-14.85 19.11-12.73 14.71-12.73L5.87-12.73L5.87-13.01C5.87-13.80 5.23-14.45 4.43-14.45C3.63-14.45 2.99-13.80 2.99-13.01L2.99-3.94C2.99-3.13 3.63-2.48 4.43-2.48ZM29.17-0.77C25.00-4.91 19.59-7.08 14.71-7.08L5.87-7.08L5.87-9.84L14.71-9.84C19.59-9.84 25.00-12.01 29.17-16.15C29.68-16.65 30.11-16.52 30.11-15.91L30.11-1.02C30.11-0.40 29.68-0.27 29.17-0.77ZM9.56-2.81C9.56-3.49 10.13-4.05 10.79-4.05L17.34-4.05C17.60-3.98 17.87-3.91 18.14-3.82C18.46-3.60 18.67-3.22 18.67-2.81C18.67-2.16 18.11-1.59 17.44-1.59L10.79-1.59C10.13-1.59 9.56-2.16 9.56-2.81Z" fill="currentColor"/>
</svg>