<svg xmlns="http://www.w3.org/2000/svg" viewBox="0 0 24 24" width="24" height="24">
  <title>hourglass.circle.fill</title>
  <path transform="matrix(0.8080808080808081, 0, 0, 0.8080808080808081, 0.30492424242424243, 18.83712121212121)" d="M14.47 3.91C21.30 3.91 26.85-1.63 26.85-8.46C26.85-15.29 21.30-20.84 14.47-20.84C7.64-20.84 2.10-15.29 2.10-8.46C2.10-1.63 7.64 3.91 14.47 3.91ZM11.37-1.44C10.48-1.44 9.93-1.97 9.93-2.88L9.93-3.02C9.93-4.91 11.87-6.83 12.75-7.69C13.24-8.19 13.22-8.78 12.75-9.26C11.87-10.11 9.93-12.02 9.93-13.93L9.93-14.04C9.93-14.95 10.48-15.48 11.37-15.48L17.58-15.48C18.47-15.48 19.02-14.95 19.02-14.04L19.02-13.93C19.02-12.02 17.07-10.11 16.21-9.26C15.73-8.78 15.70-8.19 16.21-7.69C17.07-6.83 19.02-4.91 19.02-3.02L19.02-2.88C19.02-1.97 18.47-1.44 17.58-1.44ZM12.07-2.84L16.88-2.84C17.25-2.84 17.36-3.27 17.10-3.50L15.09-5.55C14.95-5.72 14.91-5.75 14.91-6.04L14.91-8.94C14.91-9.35 15-9.57 15.29-9.86C15.71-10.27 16.25-10.79 16.65-11.24C16.89-11.48 16.78-11.81 16.44-11.81L12.52-11.81C12.18-11.81 12.07-11.48 12.29-11.24C12.69-10.79 13.23-10.27 13.66-9.86C13.96-9.57 14.05-9.35 14.05-8.94L14.05-6.04C14.05-5.75 14.00-5.72 13.85-5.55L11.85-3.50C11.59-3.27 11.71-2.84 12.07-2.84Z" fill="currentColor"/>
</svg>