<svg xmlns="http://www.w3.org/2000/svg" viewBox="0 0 24 24" width="24" height="24">
  <title>house.lodge.circle.fill</title>
  <path transform="matrix(0.8080808080808081, 0, 0, 0.8080808080808081, 0.30492424242424243, 18.827651515151516)" d="M14.47 3.93C21.30 3.93 26.85-1.62 26.85-8.45C26.85-15.28 21.30-20.82 14.47-20.82C7.64-20.82 2.10-15.28 2.10-8.45C2.10-1.62 7.64 3.93 14.47 3.93ZM9.50-8.13C8.85-7.61 8.17-8.46 8.74-8.92L13.71-12.96C13.95-13.15 14.21-13.24 14.47-13.24C14.74-13.24 15.02-13.14 15.25-12.96L20.21-8.92C20.79-8.45 20.10-7.61 19.45-8.13L14.72-11.96C14.65-12.02 14.55-12.06 14.47-12.06C14.39-12.06 14.30-12.02 14.23-11.96ZM10.56-4.93C9.86-4.93 9.43-5.34 9.43-6.04L9.43-7.39C9.64-7.43 9.83-7.55 10.07-7.71L14.47-11.29L18.89-7.71C19.11-7.55 19.30-7.43 19.51-7.39L19.51-6.04C19.51-5.34 19.09-4.93 18.40-4.93ZM8.32-9.46C7.77-9.02 7.76-8.44 7.99-7.99L6.35-7.99C5.79-7.99 5.61-8.64 6.02-8.93L8.89-10.97C9.06-11.09 9.26-11.16 9.47-11.16L10.41-11.14ZM20.64-9.46L18.55-11.14L19.49-11.16C19.70-11.16 19.89-11.09 20.06-10.97L22.92-8.93C23.34-8.63 23.18-7.99 22.61-7.99L20.95-7.99C21.20-8.44 21.18-9.04 20.64-9.46ZM13.27-6.02L15.69-6.02L15.69-7.89C15.69-8.07 15.56-8.20 15.36-8.20L13.61-8.20C13.39-8.20 13.27-8.07 13.27-7.89ZM8.77-6.04C8.77-5.61 8.87-5.24 9.09-4.93L7.75-4.93C7.03-4.93 6.61-5.34 6.61-6.04L6.61-7.32L8.77-7.32ZM20.20-6.04L20.20-7.32L22.35-7.32L22.35-6.04C22.35-5.34 21.93-4.93 21.20-4.93L19.86-4.93C20.09-5.24 20.20-5.61 20.20-6.04Z" fill="currentColor"/>
</svg>