<svg xmlns="http://www.w3.org/2000/svg" viewBox="0 0 24 24" width="24" height="24">
  <title>hryvniasign.ring</title>
  <path transform="matrix(0.7531626949102678, 0, 0, 0.7531626949102678, 0.42453662842012374, 18.372462488967344)" d="M15.38 4.82C22.68 4.82 28.64-1.15 28.64-8.46C28.64-15.77 22.68-21.74 15.38-21.74C8.06-21.74 2.10-15.77 2.10-8.46C2.10-1.15 8.06 4.82 15.38 4.82ZM15.38 0.19C10.59 0.19 6.73-3.68 6.73-8.46C6.73-13.24 10.59-17.11 15.38-17.11C20.14-17.11 24.01-13.24 24.01-8.46C24.01-3.68 20.14 0.19 15.38 0.19ZM10.93-9.48C10.93-9.29 11.09-9.14 11.27-9.14L19.55-9.14C19.73-9.14 19.89-9.29 19.89-9.48C19.89-9.68 19.73-9.83 19.55-9.83L18.50-9.83C18.80-10.14 18.98-10.56 18.98-11.04C18.98-12.82 17.19-13.68 15.36-13.68C14.26-13.68 12.95-13.39 12.25-12.32C12.09-12.08 11.99-11.86 11.99-11.53C11.99-11.06 12.35-10.76 12.83-10.76C13.22-10.76 13.44-10.91 13.69-11.19C14.10-11.79 14.67-12.04 15.33-12.04C16.17-12.04 16.96-11.66 16.96-10.86C16.96-10.46 16.72-10.04 16.21-9.83L11.27-9.83C11.09-9.83 10.93-9.68 10.93-9.48ZM10.93-7.73C10.93-7.55 11.09-7.39 11.27-7.39L12.32-7.39C11.95-7.04 11.73-6.53 11.73-6.05C11.73-4.25 13.63-3.39 15.43-3.39C16.83-3.39 18.21-3.82 18.80-4.99C18.90-5.20 18.97-5.43 18.97-5.64C18.97-6.09 18.60-6.40 18.13-6.40C17.73-6.40 17.51-6.26 17.26-5.95C16.89-5.32 16.28-5.03 15.48-5.03C14.58-5.03 13.78-5.44 13.78-6.27C13.78-6.74 14.02-7.16 14.53-7.39L19.55-7.39C19.73-7.39 19.89-7.55 19.89-7.73C19.89-7.93 19.73-8.09 19.55-8.09L11.27-8.09C11.09-8.09 10.93-7.93 10.93-7.73Z" fill="currentColor"/>
</svg>