<svg xmlns="http://www.w3.org/2000/svg" viewBox="0 0 24 24" width="24" height="24">
  
  <path transform="matrix(0.6513994910941476, 0, 0, 0.6513994910941476, 0.6335877862595418, 17.19465648854962)" d="M2.10-6.63C2.10-3.30 4.68-0.62 8.67-0.62L15.97-0.62L15.97 3.71C15.97 4.43 16.57 5.05 17.32 5.05C18.08 5.05 18.68 4.43 18.68 3.71L18.68-0.62L15.97-0.62L15.97-7.03L16.16-8.75L15.54-7.91L14.11-6.39C13.88-6.14 13.56-6 13.22-6C12.60-6 12.05-6.46 12.05-7.13C12.05-7.46 12.18-7.72 12.41-7.96L16.25-11.64C16.61-11.99 16.96-12.12 17.32-12.12C17.68-12.12 18.04-11.99 18.40-11.64L22.23-7.96C22.46-7.72 22.61-7.46 22.61-7.13C22.61-6.46 22.04-6 21.42-6C21.08-6 20.77-6.14 20.54-6.39L19.11-7.91L18.49-8.74L18.68-7.03L18.68-0.62L26.63-0.62C30.40-0.62 32.80-2.81 32.80-5.99C32.80-8.66 31.38-10.77 29.00-11.68C28.99-17.10 25.08-21 19.98-21C16.95-21 14.50-19.52 12.91-17.29C9.93-17.94 6.70-15.75 6.50-12.41C3.77-11.87 2.10-9.54 2.10-6.63Z" fill="currentColor"/>
</svg>