<svg xmlns="http://www.w3.org/2000/svg" viewBox="0 0 24 24" width="24" height="24">
  <title>icloud.circle.fill</title>
  <path transform="matrix(0.8080808080808081, 0, 0, 0.8080808080808081, 0.30492424242424243, 18.827651515151516)" d="M14.47 3.93C21.30 3.93 26.85-1.62 26.85-8.45C26.85-15.28 21.30-20.82 14.47-20.82C7.64-20.82 2.10-15.28 2.10-8.45C2.10-1.62 7.64 3.93 14.47 3.93ZM10.15-3.96C8.41-3.96 7.10-5.13 7.10-7.00C7.10-8.44 7.89-9.53 9.05-10.00C9.23-11.11 10.10-11.93 11.18-12.07C11.43-12.12 11.71-12.13 12-12.11C12.80-13.16 14.11-13.82 15.53-13.82C17.94-13.82 19.82-12 19.98-9.71C20.02-9.53 20.03-9.34 20.02-9.13C21.05-8.80 21.87-7.88 21.87-6.62C21.87-5.13 20.73-3.96 19.27-3.96Z" fill="currentColor"/>
</svg>