<svg xmlns="http://www.w3.org/2000/svg" viewBox="0 0 24 24" width="24" height="24">
  
  <path transform="matrix(0.6024238145664196, 0, 0, 0.6024238145664196, 0.736321920225909, 17.100600070596542)" d="M2.10-8.46C2.10-3.73 5.17-0.60 9.71-0.60C12.05-0.60 14.06-1.57 16.14-3.59L18.70-6.07L21.26-3.59C23.33-1.57 25.35-0.60 27.68-0.60C32.23-0.60 35.30-3.73 35.30-8.46C35.30-13.21 32.23-16.34 27.68-16.34C25.35-16.34 23.33-15.35 21.26-13.34L18.70-10.86L16.14-13.34C14.06-15.35 12.05-16.34 9.71-16.34C5.17-16.34 2.10-13.21 2.10-8.46ZM5.58-8.46C5.58-11.13 7.23-12.86 9.71-12.86C11.06-12.86 12.30-12.19 13.70-10.86L16.24-8.46L13.70-6.06C12.30-4.73 11.06-4.08 9.71-4.08C7.23-4.08 5.58-5.80 5.58-8.46ZM21.15-8.46L23.70-10.86C25.09-12.19 26.33-12.86 27.68-12.86C30.16-12.86 31.82-11.13 31.82-8.46C31.82-5.80 30.16-4.08 27.68-4.08C26.33-4.08 25.10-4.73 23.70-6.06Z" fill="currentColor"/>
</svg>