<svg xmlns="http://www.w3.org/2000/svg" viewBox="0 0 24 24" width="24" height="24">
  
  <path transform="matrix(0.572773534733509, 0, 0, 0.572773534733509, 0.7973551233957847, 16.888014598108658)" d="M19.56-0.96C21.75-0.96 24.39-0.20 26.33 0.76C27.04 1.10 27.82 1.01 28.31 0.38L36.39-9.89C37.36-11.12 37.20-12.49 35.98-13.45C32.55-16.13 26.12-18.02 19.56-18.02C12.98-18.02 6.56-16.13 3.14-13.45C1.92-12.49 1.76-11.12 2.73-9.89L10.80 0.38C11.30 1.01 12.07 1.10 12.77 0.76C14.73-0.20 17.37-0.96 19.56-0.96ZM19.56-3.77C17.44-3.77 14.93-3.21 12.71-2.31C12.48-2.21 12.34-2.24 12.18-2.46L5.55-10.86C5.39-11.09 5.43-11.31 5.65-11.46C9.43-13.83 14.39-15.21 19.56-15.21C24.73-15.21 29.68-13.83 33.47-11.46C33.70-11.31 33.73-11.10 33.56-10.86L26.95-2.47C26.77-2.24 26.64-2.20 26.39-2.31C24.19-3.21 21.68-3.77 19.56-3.77ZM19.38-11.66C20.12-11.66 20.71-12.27 20.71-12.97C20.71-13.71 20.11-14.31 19.38-14.31C18.68-14.31 18.07-13.71 18.07-12.97C18.07-12.27 18.68-11.66 19.38-11.66ZM17.96-4.89L21.21-4.89C21.68-4.89 22.07-5.24 22.07-5.74C22.07-6.21 21.68-6.59 21.21-6.59L20.60-6.59L20.60-9.79C20.60-10.39 20.27-10.84 19.68-10.84L18.13-10.84C17.64-10.84 17.24-10.46 17.24-10.00C17.24-9.48 17.64-9.13 18.13-9.13L18.71-9.13L18.71-6.59L17.96-6.59C17.50-6.59 17.10-6.21 17.10-5.74C17.10-5.23 17.50-4.89 17.96-4.89Z" fill="currentColor"/>
</svg>