<svg xmlns="http://www.w3.org/2000/svg" viewBox="0 0 24 24" width="24" height="24">
  
  <path transform="matrix(0.7149839407903924, 0, 0, 0.7149839407903924, -0.13657310431504, 18.04105571847507)" d="M7.13 2.75L26.82 2.75C29.51 2.75 30.96 1.30 30.96-1.36L30.96-15.54C30.96-18.20 29.51-19.65 26.82-19.65L7.13-19.65C4.45-19.65 2.99-18.20 2.99-15.54L2.99-1.36C2.99 1.30 4.45 2.75 7.13 2.75ZM7.45-0.27C6.52-0.27 6.01-0.73 6.01-1.72L6.01-15.18C6.01-16.17 6.52-16.63 7.45-16.63L26.50-16.63C27.43-16.63 27.94-16.17 27.94-15.18L27.94-1.72C27.94-0.73 27.43-0.27 26.50-0.27ZM8.67-11.68L25.29-11.68C25.83-11.68 26.05-11.89 26.05-12.42L26.05-14.04C26.05-14.57 25.83-14.78 25.29-14.78L8.67-14.78C8.14-14.78 7.91-14.57 7.91-14.04L7.91-12.42C7.91-11.89 8.14-11.68 8.67-11.68ZM8.67-6.90L25.29-6.90C25.83-6.90 26.05-7.11 26.05-7.64L26.05-9.26C26.05-9.77 25.83-9.98 25.29-9.98L8.67-9.98C8.14-9.98 7.91-9.77 7.91-9.26L7.91-7.64C7.91-7.11 8.14-6.90 8.67-6.90ZM8.67-2.11L25.29-2.11C25.83-2.11 26.05-2.32 26.05-2.85L26.05-4.46C26.05-4.99 25.83-5.20 25.29-5.20L8.67-5.20C8.14-5.20 7.91-4.99 7.91-4.46L7.91-2.85C7.91-2.32 8.14-2.11 8.67-2.11Z" fill="currentColor"/>
</svg>