<svg xmlns="http://www.w3.org/2000/svg" viewBox="0 0 24 24" width="24" height="24">
  
  <path transform="matrix(0.7149839407903924, 0, 0, 0.7149839407903924, -0.13657310431504, 18.04105571847507)" d="M7.13 2.75L26.82 2.75C29.51 2.75 30.96 1.30 30.96-1.36L30.96-15.54C30.96-18.20 29.51-19.65 26.82-19.65L7.13-19.65C4.45-19.65 2.99-18.20 2.99-15.54L2.99-1.36C2.99 1.30 4.45 2.75 7.13 2.75ZM7.45-0.27C6.52-0.27 6.01-0.73 6.01-1.72L6.01-15.18C6.01-16.17 6.52-16.63 7.45-16.63L26.50-16.63C27.43-16.63 27.94-16.17 27.94-15.18L27.94-1.72C27.94-0.73 27.43-0.27 26.50-0.27ZM8.65-2.17L14.26-2.17C14.78-2.17 14.99-2.39 14.99-2.93L14.99-7.70C14.99-8.23 14.78-8.46 14.26-8.46L8.65-8.46C8.12-8.46 7.91-8.23 7.91-7.70L7.91-2.93C7.91-2.39 8.12-2.17 8.65-2.17ZM19.70-2.17L25.30-2.17C25.83-2.17 26.04-2.39 26.04-2.93L26.04-7.70C26.04-8.23 25.83-8.46 25.30-8.46L19.70-8.46C19.17-8.46 18.96-8.23 18.96-7.70L18.96-2.93C18.96-2.39 19.17-2.17 19.70-2.17Z" fill="currentColor"/>
</svg>