<svg xmlns="http://www.w3.org/2000/svg" viewBox="0 0 24 24" width="24" height="24">
  
  <path transform="matrix(0.8317089018843404, 0, 0, 0.8317089018843404, 0.0750487329434697, 19.017543859649123)" d="M8.91 3.59L18.14 3.59C21.73 3.59 24.06 1.21 24.06-2.45L24.06-9.52L24.27-9.52C25.13-9.52 25.69-10.11 25.69-11.05L25.69-13.01C25.69-13.95 25.13-14.55 24.27-14.55L24.06-14.55C24.01-18.15 21.69-20.46 18.14-20.46L8.91-20.46C5.33-20.46 2.99-18.09 2.99-14.45L2.99-2.45C2.99 1.21 5.33 3.59 8.91 3.59ZM8.86 0.80C6.93 0.80 5.79-0.39 5.79-2.40L5.79-14.46C5.79-16.46 6.93-17.65 8.86-17.65L18.19-17.65C20.12-17.65 21.27-16.46 21.27-14.46L21.27-2.40C21.27-0.39 20.12 0.80 18.19 0.80ZM7.23-2.31C7.23-1.27 7.80-0.64 8.78-0.64L18.27-0.64C19.24-0.64 19.82-1.27 19.82-2.31L19.82-14.58C19.82-15.60 19.22-16.23 18.27-16.23L8.78-16.23C7.83-16.23 7.23-15.60 7.23-14.58Z" fill="currentColor"/>
</svg>