<svg xmlns="http://www.w3.org/2000/svg" viewBox="0 0 24 24" width="24" height="24">
  
  <path transform="matrix(0.8926080892608089, 0, 0, 0.8926080892608089, -0.6673640167364017, 19.552301255230127)" d="M7.13 2.74L21.26 2.74C23.94 2.74 25.39 1.29 25.39-1.36L25.39-15.55C25.39-18.20 23.94-19.66 21.26-19.66L7.13-19.66C4.45-19.66 2.99-18.21 2.99-15.55L2.99-1.36C2.99 1.29 4.45 2.74 7.13 2.74ZM7.45-0.28C6.52-0.28 6.01-0.74 6.01-1.73L6.01-15.18C6.01-16.17 6.52-16.64 7.45-16.64L20.93-16.64C21.87-16.64 22.37-16.17 22.37-15.18L22.37-1.73C22.37-0.74 21.87-0.28 20.93-0.28ZM8.65-10.57L19.73-10.57C20.26-10.57 20.47-10.79 20.47-11.33L20.47-13.97C20.47-14.51 20.26-14.73 19.73-14.73L8.65-14.73C8.12-14.73 7.91-14.51 7.91-13.97L7.91-11.33C7.91-10.79 8.12-10.57 8.65-10.57Z" fill="currentColor"/>
</svg>