<svg xmlns="http://www.w3.org/2000/svg" viewBox="0 0 24 24" width="24" height="24">
  <title>ipad.gen2.landscape.slash</title>
  <path transform="matrix(0.7006020799124247, 0, 0, 0.7006020799124247, -0.09359605911330027, 17.90104400267281)" d="M28.36 4.08C28.75 4.46 29.38 4.45 29.75 4.07C30.13 3.68 30.14 3.06 29.75 2.67L6.16-20.92C5.78-21.30 5.14-21.30 4.76-20.92C4.38-20.54 4.38-19.90 4.76-19.52ZM30.68 1.38C31.24 0.73 31.54-0.20 31.54-1.36L31.54-15.54C31.54-18.20 30.08-19.65 27.40-19.65L9.66-19.65L12.68-16.63L27.07-16.63C28.01-16.63 28.51-16.16 28.51-15.16L28.51-1.72C28.51-1.42 28.43-1.18 28.27-1.03ZM7.14 2.75L24.81 2.75L21.79-0.27L7.46-0.27C6.52-0.27 6.02-0.73 6.02-1.72L6.02-15.09C6.02-15.39 6.11-15.63 6.27-15.80L3.82-18.25C3.27-17.59 2.99-16.69 2.99-15.54L2.99-1.36C2.99 1.30 4.46 2.75 7.14 2.75ZM12.70-1.25L20.70-1.25L19.42-2.53L12.70-2.53C12.34-2.53 12.07-2.27 12.07-1.89C12.07-1.50 12.34-1.25 12.70-1.25Z" fill="currentColor"/>
</svg>