<svg xmlns="http://www.w3.org/2000/svg" viewBox="0 0 24 24" width="24" height="24">
  <title>iphone.gen2.slash</title>
  <path transform="matrix(0.7381776239907728, 0, 0, 0.7381776239907728, 2.4925326897186415, 18.262975778546714)" d="M18.56-6.36L21.59-3.33L21.59-18.47C21.59-20.60 20.17-22.03 18.04-22.03L7.89-22.03C6.46-22.03 5.32-21.45 4.78-20.40L4.70-20.24L7.25-17.66L7.29-17.85C7.36-18.48 7.82-18.82 8.54-18.82L10.14-18.82C10.32-18.82 10.43-18.73 10.43-18.54L10.43-18.18C10.43-17.63 10.78-17.25 11.33-17.25L14.45-17.25C15-17.25 15.35-17.63 15.35-18.18L15.35-18.54C15.35-18.73 15.46-18.82 15.64-18.82L17.24-18.82C18.07-18.82 18.56-18.35 18.56-17.53ZM22.73 2.84C23.12 3.21 23.75 3.22 24.13 2.84C24.50 2.45 24.52 1.83 24.13 1.44L3.02-19.65C2.65-20.03 2.02-20.04 1.62-19.65C1.25-19.28 1.25-18.63 1.62-18.26ZM7.89 5.06L18.04 5.06C19.34 5.06 20.34 4.54 20.91 3.60C20.95 3.54 21 3.46 21.04 3.40L18.49 0.81C18.47 0.87 18.47 0.91 18.46 0.97C18.34 1.55 17.91 1.86 17.24 1.86L8.54 1.86C7.71 1.86 7.22 1.41 7.22 0.59L7.22-10.43L4.20-13.45L4.20 1.51C4.20 3.64 5.67 5.06 7.89 5.06ZM10.29 0.84L15.49 0.84C15.88 0.84 16.16 0.59 16.16 0.18C16.16-0.22 15.88-0.49 15.49-0.49L10.29-0.49C9.91-0.49 9.62-0.22 9.62 0.18C9.62 0.59 9.91 0.84 10.29 0.84Z" fill="currentColor"/>
</svg>