<svg xmlns="http://www.w3.org/2000/svg" viewBox="0 0 24 24" width="24" height="24">
  <title>j.circle</title>
  <path transform="matrix(0.8080808080808081, 0, 0, 0.8080808080808081, 0.30492424242424243, 18.83712121212121)" d="M14.47 3.91C21.30 3.91 26.85-1.63 26.85-8.46C26.85-15.29 21.30-20.84 14.47-20.84C7.64-20.84 2.10-15.29 2.10-8.46C2.10-1.63 7.64 3.91 14.47 3.91ZM14.47 0.83C9.34 0.83 5.18-3.33 5.18-8.46C5.18-13.61 9.34-17.75 14.47-17.75C19.62-17.75 23.77-13.61 23.77-8.46C23.77-3.33 19.62 0.83 14.47 0.83ZM13.97-3.04C16.52-3.04 18-4.43 18-6.88L18-12.28C18-13.30 17.46-13.92 16.54-13.92C15.60-13.92 15.07-13.29 15.07-12.28L15.07-6.96C15.07-5.99 14.67-5.50 13.95-5.50C13.32-5.50 12.93-5.80 12.73-6.35C12.50-7.00 12.09-7.30 11.38-7.30C10.59-7.29 10.05-6.76 10.05-5.98C10.05-5.74 10.09-5.52 10.16-5.31C10.59-3.93 12.06-3.04 13.97-3.04Z" fill="currentColor"/>
</svg>