<svg xmlns="http://www.w3.org/2000/svg" viewBox="0 0 24 24" width="24" height="24">
  
  <path transform="matrix(0.8080808080808081, 0, 0, 0.8080808080808081, 0.30492424242424243, 18.83712121212121)" d="M14.47 3.91C21.30 3.91 26.85-1.63 26.85-8.46C26.85-15.29 21.30-20.84 14.47-20.84C7.64-20.84 2.10-15.29 2.10-8.46C2.10-1.63 7.64 3.91 14.47 3.91ZM11.23-2.92C10.30-2.92 9.76-3.52 9.76-4.56L9.76-12.46C9.76-13.51 10.30-14.11 11.23-14.11C12.18-14.11 12.71-13.50 12.71-12.46L12.71-9.30L12.81-9.30L16.48-13.43C16.88-13.91 17.20-14.11 17.70-14.11C18.45-14.11 19.07-13.57 19.07-12.89C19.07-12.49 18.95-12.22 18.63-11.86L16.05-9.05L18.87-5.30C19.13-4.92 19.24-4.64 19.24-4.25C19.24-3.48 18.64-2.92 17.81-2.92C17.29-2.92 16.92-3.13 16.54-3.64L13.88-7.25L12.71-5.96L12.71-4.49C12.71-3.49 12.15-2.92 11.23-2.92Z" fill="currentColor"/>
</svg>