<svg xmlns="http://www.w3.org/2000/svg" viewBox="0 0 24 24" width="24" height="24">
  
  <path transform="matrix(0.8080808080808081, 0, 0, 0.8080808080808081, 0.30492424242424243, 18.827651515151516)" d="M14.47 3.93C21.30 3.93 26.85-1.62 26.85-8.45C26.85-15.28 21.30-20.82 14.47-20.82C7.64-20.82 2.10-15.28 2.10-8.45C2.10-1.62 7.64 3.93 14.47 3.93ZM14.47-15.60C16.73-15.60 18.52-13.79 18.52-11.57C18.52-9.95 17.58-8.60 15.89-7.80L17.18-6.49C17.41-6.26 17.41-5.91 17.19-5.68L15.81-4.29L16.76-3.35C16.98-3.12 16.99-2.75 16.76-2.53L14.88-0.67C14.68-0.45 14.34-0.47 14.17-0.64L13.08-1.65C12.91-1.82 12.84-2.02 12.84-2.23L12.84-7.85C11.36-8.50 10.43-9.94 10.43-11.57C10.43-13.79 12.22-15.60 14.47-15.60ZM14.47-11.82C15.09-11.82 15.57-12.30 15.57-12.93C15.57-13.54 15.09-14.02 14.47-14.02C13.85-14.02 13.38-13.54 13.38-12.93C13.38-12.30 13.85-11.82 14.47-11.82Z" fill="currentColor"/>
</svg>