<svg xmlns="http://www.w3.org/2000/svg" viewBox="0 0 24 24" width="24" height="24">
  
  <path transform="matrix(0.627306495122416, 0, 0, 0.627306495122416, 2.960267706636046, 17.419168113720602)" d="M25.96-7.30C26.46-6.82 27.21-6.81 27.80-7.46C29.47-9.45 30.35-12.33 30.35-15.32C30.35-18.28 29.40-21.23 27.80-23.16C27.22-23.82 26.46-23.80 25.96-23.32C25.49-22.86 25.52-22.21 25.97-21.66C27.27-20.02 27.98-17.73 27.98-15.32C27.98-12.89 27.25-10.61 25.97-8.96C25.54-8.41 25.49-7.76 25.96-7.30ZM11.14-20.98C14.30-20.98 16.82-18.45 16.82-15.32C16.82-12.81 15.20-10.64 12.67-9.87L14.55-7.99C17.59-9.62 19.30-12.25 19.30-15.32C19.30-19.82 15.67-23.45 11.14-23.45C7.85-23.45 5.05-21.53 3.79-18.75L5.68-16.85C6.35-19.23 8.53-20.98 11.14-20.98ZM21.73-10.54C22.18-10.05 22.99-10.09 23.52-10.70C24.45-11.79 24.95-13.51 24.95-15.32C24.95-17.11 24.45-18.83 23.52-19.93C22.99-20.54 22.18-20.57 21.73-20.09C21.26-19.62 21.27-18.96 21.67-18.41C22.22-17.66 22.58-16.44 22.58-15.32C22.58-14.19 22.21-12.97 21.67-12.22C21.27-11.66 21.26-11.00 21.73-10.54ZM-1.25-18.52L20.60 3.32C21 3.71 21.63 3.69 22.00 3.32C22.38 2.92 22.37 2.32 22.00 1.93L0.15-19.90C-0.25-20.29-0.88-20.29-1.25-19.91C-1.63-19.54-1.62-18.88-1.25-18.52ZM11.14-15.55C12.19-15.55 13.04-16.41 13.04-17.45C13.04-18.49 12.19-19.34 11.14-19.34C10.10-19.34 9.26-18.49 9.26-17.45C9.26-16.41 10.10-15.55 11.14-15.55ZM12.19 5.98L15.80 2.36C16.14 2.03 16.10 1.58 15.83 1.31L11.89-2.64L11.89-0.11L13.32 1.30L11.14 3.50L9.91 2.29L9.91-4.89L7.64-7.16L7.64 2.96C7.64 3.43 7.79 3.97 8.20 4.31L10.11 5.96C10.75 6.50 11.60 6.56 12.19 5.98Z" fill="currentColor"/>
</svg>