<svg xmlns="http://www.w3.org/2000/svg" viewBox="0 0 24 24" width="24" height="24">
  <title>keyboard.chevron.compact.down</title>
  <path transform="matrix(0.6564102564102564, 0, 0, 0.6564102564102564, 0.03846153846153855, 15.36923076923077)" d="M7.13 1.38L29.32 1.38C31.99 1.38 33.46-0.07 33.46-2.72L33.46-14.21C33.46-16.88 31.99-18.33 29.32-18.33L7.13-18.33C4.45-18.33 2.99-16.88 2.99-14.21L2.99-2.72C2.99-0.06 4.45 1.38 7.13 1.38ZM7.45-1.64C6.52-1.64 6.01-2.10 6.01-3.09L6.01-13.85C6.01-14.85 6.52-15.30 7.45-15.30L28.98-15.30C29.92-15.30 30.43-14.85 30.43-13.85L30.43-3.09C30.43-2.10 29.92-1.64 28.98-1.64ZM8.68-10.99L9.77-10.99C10.14-10.99 10.36-11.21 10.36-11.58L10.36-12.67C10.36-13.04 10.14-13.25 9.77-13.25L8.68-13.25C8.32-13.25 8.10-13.04 8.10-12.67L8.10-11.58C8.10-11.21 8.32-10.99 8.68-10.99ZM12.28-10.99L13.36-10.99C13.73-10.99 13.95-11.21 13.95-11.58L13.95-12.67C13.95-13.04 13.73-13.25 13.36-13.25L12.28-13.25C11.91-13.25 11.70-13.04 11.70-12.67L11.70-11.58C11.70-11.21 11.91-10.99 12.28-10.99ZM15.87-10.99L16.96-10.99C17.32-10.99 17.54-11.21 17.54-11.58L17.54-12.67C17.54-13.04 17.32-13.25 16.96-13.25L15.87-13.25C15.50-13.25 15.28-13.04 15.28-12.67L15.28-11.58C15.28-11.21 15.50-10.99 15.87-10.99ZM19.46-10.99L20.54-10.99C20.92-10.99 21.13-11.21 21.13-11.58L21.13-12.67C21.13-13.04 20.92-13.25 20.54-13.25L19.46-13.25C19.09-13.25 18.88-13.04 18.88-12.67L18.88-11.58C18.88-11.21 19.09-10.99 19.46-10.99ZM23.12-10.99L24.14-10.99C24.50-10.99 24.73-11.21 24.73-11.58L24.73-12.67C24.73-13.04 24.50-13.25 24.14-13.25L23.12-13.25C22.71-13.25 22.46-13.04 22.46-12.67L22.46-11.58C22.46-11.21 22.71-10.99 23.12-10.99ZM26.64-10.99L27.73-10.99C28.09-10.99 28.31-11.21 28.31-11.58L28.31-12.67C28.31-13.04 28.09-13.25 27.73-13.25L26.64-13.25C26.27-13.25 26.05-13.04 26.05-12.67L26.05-11.58C26.05-11.21 26.27-10.99 26.64-10.99ZM8.68-7.34L9.77-7.34C10.14-7.34 10.36-7.55 10.36-7.92L10.36-9.01C10.36-9.38 10.14-9.60 9.77-9.60L8.68-9.60C8.32-9.60 8.10-9.38 8.10-9.01L8.10-7.92C8.10-7.55 8.32-7.34 8.68-7.34ZM12.28-7.34L13.36-7.34C13.73-7.34 13.95-7.55 13.95-7.92L13.95-9.01C13.95-9.38 13.73-9.60 13.36-9.60L12.28-9.60C11.91-9.60 11.70-9.38 11.70-9.01L11.70-7.92C11.70-7.55 11.91-7.34 12.28-7.34ZM15.87-7.34L16.96-7.34C17.32-7.34 17.54-7.55 17.54-7.92L17.54-9.01C17.54-9.38 17.32-9.60 16.96-9.60L15.87-9.60C15.50-9.60 15.28-9.38 15.28-9.01L15.28-7.92C15.28-7.55 15.50-7.34 15.87-7.34ZM19.46-7.34L20.54-7.34C20.92-7.34 21.13-7.55 21.13-7.92L21.13-9.01C21.13-9.38 20.92-9.60 20.54-9.60L19.46-9.60C19.09-9.60 18.88-9.38 18.88-9.01L18.88-7.92C18.88-7.55 19.09-7.34 19.46-7.34ZM23.12-7.34L24.14-7.34C24.50-7.34 24.73-7.55 24.73-7.92L24.73-9.01C24.73-9.38 24.50-9.60 24.14-9.60L23.12-9.60C22.71-9.60 22.46-9.38 22.46-9.01L22.46-7.92C22.46-7.55 22.71-7.34 23.12-7.34ZM26.64-7.34L27.73-7.34C28.09-7.34 28.31-7.55 28.31-7.92L28.31-9.01C28.31-9.38 28.09-9.60 27.73-9.60L26.64-9.60C26.27-9.60 26.05-9.38 26.05-9.01L26.05-7.92C26.05-7.55 26.27-7.34 26.64-7.34ZM8.68-3.67L9.77-3.67C10.14-3.67 10.36-3.89 10.36-4.25L10.36-5.34C10.36-5.72 10.14-5.94 9.77-5.94L8.68-5.94C8.32-5.94 8.10-5.72 8.10-5.34L8.10-4.25C8.10-3.89 8.32-3.67 8.68-3.67ZM12.34-3.67L24.07-3.67C24.48-3.67 24.73-3.91 24.73-4.32L24.73-5.29C24.73-5.70 24.48-5.94 24.07-5.94L12.34-5.94C11.93-5.94 11.70-5.70 11.70-5.29L11.70-4.32C11.70-3.91 11.93-3.67 12.34-3.67ZM26.64-3.67L27.73-3.67C28.09-3.67 28.31-3.89 28.31-4.25L28.31-5.34C28.31-5.72 28.09-5.94 27.73-5.94L26.64-5.94C26.27-5.94 26.05-5.72 26.05-5.34L26.05-4.25C26.05-3.89 26.27-3.67 26.64-3.67ZM18.22 8.06C18.73 8.06 19.29 7.83 19.84 7.65L25.42 5.71C26.09 5.48 26.43 4.91 26.43 4.42C26.43 3.59 25.85 2.98 25.02 2.98C24.56 2.98 24.18 3.15 23.77 3.30L18.22 5.33L12.68 3.30C12.27 3.15 11.89 2.98 11.43 2.98C10.62 2.98 10.03 3.56 10.03 4.42C10.03 4.91 10.36 5.48 11.03 5.71L16.61 7.65C17.17 7.84 17.72 8.06 18.22 8.06Z" fill="currentColor"/>
</svg>