<svg xmlns="http://www.w3.org/2000/svg" viewBox="0 0 24 24" width="24" height="24">
  
  <path transform="matrix(0.8080808080808081, 0, 0, 0.8080808080808081, 0.30492424242424243, 18.83712121212121)" d="M14.47 3.91C21.30 3.91 26.85-1.63 26.85-8.46C26.85-15.29 21.30-20.84 14.47-20.84C7.64-20.84 2.10-15.29 2.10-8.46C2.10-1.63 7.64 3.91 14.47 3.91ZM7.82-4.80C7.34-4.80 7.01-5.07 7.01-5.65L7.01-11.26C7.01-11.79 7.29-12.11 7.80-12.11C8.34-12.11 8.61-11.79 8.61-11.26L8.61-8.89L8.71-8.89L10.04-11.48C10.21-11.85 10.38-12.11 10.84-12.11C11.25-12.11 11.55-11.77 11.55-11.38C11.55-11.10 11.48-10.91 11.34-10.66L10.25-8.71L11.46-6.34C11.55-6.15 11.68-5.79 11.68-5.57C11.68-5.11 11.32-4.82 10.96-4.82C10.56-4.82 10.29-5.03 10.11-5.39L9.01-7.65L8.63-6.91L8.63-5.65C8.63-5.13 8.34-4.80 7.82-4.80ZM18.05-4.80C17.51-4.80 17.25-5.12 17.25-5.67L17.25-11.25C17.25-11.79 17.52-12.11 18.05-12.11C18.59-12.11 18.86-11.79 18.86-11.25L18.86-9.16L20.26-9.16L20.26-11.25C20.26-11.79 20.54-12.11 21.07-12.11C21.61-12.11 21.89-11.79 21.89-11.25L21.89-5.67C21.89-5.12 21.61-4.80 21.07-4.80C20.53-4.80 20.26-5.12 20.26-5.67L20.26-7.84L18.86-7.84L18.86-5.67C18.86-5.13 18.60-4.80 18.05-4.80ZM13.07-4.82C12.55-4.82 12.26-5.13 12.26-5.66L12.26-11.14C12.26-11.67 12.55-11.99 13.07-11.99L14.61-11.99C15.89-11.99 16.61-10.91 16.61-9.53C16.61-8.23 15.89-7.08 14.51-7.08L13.88-7.08L13.88-5.66C13.88-5.13 13.59-4.82 13.07-4.82ZM13.88-8.33L14.18-8.33C14.81-8.33 15-8.88 15-9.53C15-10.18 14.81-10.73 14.19-10.73L13.88-10.73Z" fill="currentColor"/>
</svg>