<svg xmlns="http://www.w3.org/2000/svg" viewBox="0 0 24 24" width="24" height="24">
  
  <path transform="matrix(0.6543327985696434, 0, 0, 0.6543327985696434, 2.1859849433129837, 17.536268912897842)" d="M16.18-22.55C10.20-22.55 5.07-18.80 3.05-13.52C3.90-13.70 4.77-13.49 5.40-12.96C7.18-17.19 11.33-20.16 16.18-20.16C22.65-20.16 27.89-14.93 27.89-8.46C27.89-2.00 22.65 3.22 16.18 3.22C11.34 3.22 7.20 0.27 5.41-3.95C4.77-3.42 3.91-3.20 3.05-3.40C5.09 1.88 10.21 5.63 16.18 5.63C23.96 5.63 30.28-0.69 30.28-8.46C30.28-16.24 23.96-22.55 16.18-22.55ZM16.18 1.09C21.46 1.09 25.76-3.20 25.76-8.46C25.76-13.73 21.46-18.02 16.18-18.02C10.91-18.02 6.63-13.73 6.63-8.46C6.63-3.20 10.91 1.09 16.18 1.09ZM14.52-3.94C13.83-3.94 13.45-4.38 13.45-5.09L13.45-11.94C13.45-12.59 13.89-13.08 14.53-13.08C15.16-13.08 15.63-12.59 15.63-11.94L15.63-5.71L18.46-5.71C18.95-5.71 19.36-5.32 19.36-4.83C19.36-4.31 18.95-3.94 18.46-3.94ZM3.09-11.44L0.06-9.13C-0.41-8.79-0.39-8.14 0.06-7.80L3.11-5.48C3.80-4.96 4.66-5.26 4.66-6.16L4.66-10.77C4.66-11.64 3.80-11.95 3.09-11.44Z" fill="currentColor"/>
</svg>