<svg xmlns="http://www.w3.org/2000/svg" viewBox="0 0 24 24" width="24" height="24">
  
  <path transform="matrix(0.8926080892608089, 0, 0, 0.8926080892608089, -0.6673640167364017, 19.552301255230127)" d="M7.13 2.74L21.26 2.74C23.94 2.74 25.39 1.29 25.39-1.36L25.39-15.55C25.39-18.20 23.94-19.66 21.26-19.66L7.13-19.66C4.45-19.66 2.99-18.21 2.99-15.55L2.99-1.36C2.99 1.29 4.45 2.74 7.13 2.74ZM12.09-2.99C11.05-2.99 10.48-3.68 10.48-4.80L10.48-12.40C10.48-13.52 11.05-14.21 12.09-14.21C13.14-14.21 13.73-13.52 13.73-12.40L13.73-5.54L17.26-5.54C18.09-5.54 18.63-5.07 18.63-4.28C18.63-3.46 18.09-2.99 17.26-2.99Z" fill="currentColor"/>
</svg>