<svg xmlns="http://www.w3.org/2000/svg" viewBox="0 0 24 24" width="24" height="24">
  
  <path transform="matrix(0.8080808080808081, 0, 0, 0.8080808080808081, 0.30492424242424243, 18.827651515151516)" d="M14.47 3.93C21.30 3.93 26.85-1.62 26.85-8.45C26.85-15.28 21.30-20.82 14.47-20.82C7.64-20.82 2.10-15.28 2.10-8.45C2.10-1.62 7.64 3.93 14.47 3.93ZM14.47-14.95C14.81-14.95 15.13-14.92 15.43-14.86L15.43-14.92C15.47-15.43 15.80-15.83 16.35-16.00L16.82-16.16C17.60-16.41 17.98-15.23 17.20-15.05L16.83-14.93C16.59-14.86 16.54-14.75 16.56-14.59L16.59-14.45C17.43-13.98 17.88-13.23 17.88-12.40C17.88-12.05 17.77-11.81 17.27-11.55C16.64-11.24 15.70-11.05 14.68-11.04C14.51-11.04 14.31-11.05 14.14-11.06L11.53-13.68C11.71-13.98 12-14.25 12.35-14.45L12.38-14.59C12.41-14.75 12.34-14.87 12.12-14.93L11.74-15.05C10.96-15.23 11.34-16.42 12.13-16.16L12.60-16.00C13.15-15.82 13.48-15.43 13.51-14.92L13.51-14.86C13.82-14.92 14.13-14.95 14.47-14.95ZM19.35-2.55L8.59-13.29C8.32-13.56 8.32-14.03 8.59-14.31C8.88-14.58 9.34-14.59 9.62-14.31L20.37-3.57C20.65-3.29 20.64-2.84 20.37-2.55C20.09-2.29 19.62-2.29 19.35-2.55ZM21-7.93C21.40-7.92 21.66-7.68 21.66-7.31C21.66-6.95 21.40-6.70 21-6.70L20.04-6.70C20.03-6.25 19.97-5.78 19.85-5.37L17.92-7.29C18.21-7.48 18.42-7.79 18.42-8.16C18.42-8.71 17.95-9.21 17.38-9.21C17.00-9.21 16.68-9 16.51-8.71L14.87-10.34C15.04-10.34 15.18-10.34 15.33-10.35C16.22-10.43 17.04-10.63 17.78-10.97C17.92-11.03 18.08-11.04 18.30-10.89L19.57-11.89C19.89-12.14 20.25-12.16 20.48-11.88C20.71-11.59 20.66-11.19 20.34-10.95L19.28-10.09C19.63-9.47 19.88-8.70 19.97-7.95ZM7.96-6.69C7.56-6.69 7.31-6.94 7.31-7.30C7.31-7.68 7.56-7.91 7.96-7.92L8.99-7.93C9.09-8.68 9.33-9.46 9.68-10.08L8.61-10.95C8.31-11.18 8.25-11.57 8.45-11.84C8.50-11.91 8.58-11.93 8.64-11.93L10.04-10.55L10.05-10.56L13.99-6.62L13.99-1.82C13.99-1.46 13.72-1.30 13.31-1.36C12.07-1.56 11.04-2.13 10.28-3.01L9.53-2.38C9.21-2.12 8.84-2.11 8.60-2.40C8.38-2.67 8.45-3.06 8.74-3.32L9.57-4.02C9.18-4.79 8.94-5.70 8.91-6.69ZM10.71-4.91C10.71-4.30 11.21-3.80 11.82-3.80C12.42-3.80 12.93-4.30 12.93-4.91C12.93-5.48 12.42-6.01 11.82-6.01C11.21-6.01 10.71-5.50 10.71-4.91ZM14.96-5.65L18.13-2.48C17.45-1.90 16.61-1.51 15.63-1.36C15.22-1.30 14.96-1.46 14.96-1.82Z" fill="currentColor"/>
</svg>