<svg xmlns="http://www.w3.org/2000/svg" viewBox="0 0 24 24" width="24" height="24">
  
  <path transform="matrix(0.673241288625904, 0, 0, 0.673241288625904, 3.7380147185994583, 17.660749506903354)" d="M6.88 6.45L17.66 6.45C18.29 6.45 18.73 5.98 18.73 5.32C18.73 4.18 17.81 3.40 16.45 3.40L13.59 3.40L13.59-6.83C15.79-6.88 17.86-7.03 19.62-7.30C21.34-7.55 21.93-8.85 21.33-10.70L18.19-20.50C17.60-22.36 16.10-23.26 13.97-23.26L10.57-23.26C8.44-23.26 6.94-22.36 6.35-20.50L3.22-10.70C2.61-8.85 3.20-7.55 4.92-7.30C6.68-7.03 8.77-6.88 10.95-6.83L10.95 3.40L8.09 3.40C6.73 3.40 5.81 4.18 5.81 5.32C5.81 5.98 6.25 6.45 6.88 6.45Z" fill="currentColor"/>
</svg>