<svg xmlns="http://www.w3.org/2000/svg" viewBox="0 0 24 24" width="24" height="24">
  <title>lessthan.square.fill</title>
  <path transform="matrix(0.8926080892608089, 0, 0, 0.8926080892608089, -0.6673640167364017, 19.552301255230127)" d="M7.13 2.74L21.26 2.74C23.94 2.74 25.39 1.29 25.39-1.36L25.39-15.55C25.39-18.20 23.94-19.66 21.26-19.66L7.13-19.66C4.45-19.66 2.99-18.21 2.99-15.55L2.99-1.36C2.99 1.29 4.45 2.74 7.13 2.74ZM17.38-3.38C17.07-3.38 16.83-3.43 16.56-3.57L9.52-7.08C8.88-7.39 8.55-7.79 8.55-8.43C8.55-9.06 8.87-9.49 9.52-9.82L16.56-13.41C16.83-13.54 17.07-13.59 17.40-13.59C18.21-13.59 18.80-13.01 18.80-12.19C18.80-11.52 18.48-11.10 17.66-10.77L12.75-8.52L12.75-8.41L17.66-6.20C18.48-5.88 18.80-5.47 18.80-4.79C18.80-3.96 18.21-3.38 17.38-3.38Z" fill="currentColor"/>
</svg>