<svg xmlns="http://www.w3.org/2000/svg" viewBox="0 0 24 24" width="24" height="24">
  
  <path transform="matrix(0.7605466428995841, 0, 0, 0.7605466428995841, 0.23975044563279813, 18.4349376114082)" d="M15.47 4.69C22.98 4.69 27.94 2.05 27.94-2.05L27.94-14.40C27.94-18.77 22.96-21.61 15.47-21.61C7.97-21.61 2.99-18.77 2.99-14.40L2.99-2.05C2.99 2.05 7.95 4.69 15.47 4.69ZM5.73-2.05C5.73-4.32 9.74-6.05 15.47-6.05C21.19-6.05 25.20-4.32 25.20-2.05C25.20 0.21 21.19 1.93 15.47 1.93C9.74 1.93 5.73 0.21 5.73-2.05ZM10.50-4.32C10.79-2.65 12.90-1.35 15.47-1.35C18.02-1.35 20.13-2.65 20.43-4.32C19.03-4.68 17.32-4.88 15.47-4.88C13.62-4.88 11.89-4.68 10.50-4.32Z" fill="currentColor"/>
</svg>