<svg xmlns="http://www.w3.org/2000/svg" viewBox="0 0 24 24" width="24" height="24">
  
  <path transform="matrix(0.8967504370713697, 0, 0, 0.8967504370713697, -0.4058344154195863, 19.58379962241727)" d="M13.10-1.64L11.13-3.62L18.68-11.16L20.64-9.20C21.40-8.45 22.50-8.88 22.78-9.93L24.94-17.96C25.20-18.96 24.30-19.83 23.33-19.56L15.32-17.40C14.25-17.12 13.82-16.03 14.58-15.28L16.55-13.30L8.99-5.75L7.04-7.71C6.28-8.47 5.17-8.04 4.89-6.98L2.73 1.05C2.47 2.04 3.38 2.91 4.35 2.65L12.36 0.49C13.42 0.21 13.86-0.88 13.10-1.64Z" fill="currentColor"/>
</svg>