<svg xmlns="http://www.w3.org/2000/svg" viewBox="0 0 24 24" width="24" height="24">
  
  <path transform="matrix(0.8080808080808081, 0, 0, 0.8080808080808081, 0.30492424242424243, 18.83712121212121)" d="M14.47 3.91C21.30 3.91 26.85-1.63 26.85-8.46C26.85-15.29 21.30-20.84 14.47-20.84C7.64-20.84 2.10-15.29 2.10-8.46C2.10-1.63 7.64 3.91 14.47 3.91ZM10.92-3.22C10.39-3.22 10.00-3.57 10.00-4.14C10.00-4.61 10.29-4.89 10.70-5.11C11.32-5.43 11.82-6.02 11.94-6.81C11.98-6.94 12-7.07 12-7.16L10.28-7.16C10.05-7.16 9.88-7.32 9.88-7.55C9.88-7.77 10.05-7.92 10.28-7.92L11.93-7.92C11.86-8.37 11.73-8.79 11.61-9.26L10.28-9.26C10.05-9.26 9.88-9.41 9.88-9.64C9.88-9.87 10.05-10.02 10.28-10.02L11.47-10.02C11.44-10.23 11.41-10.42 11.41-10.63C11.41-12.82 13.32-13.91 15.59-13.91C16.29-13.91 17.06-13.85 17.68-13.62C18.12-13.46 18.43-13.18 18.43-12.70C18.43-12.28 18.18-11.99 17.66-11.99C17.50-11.99 17.32-12 17.11-12.04C16.84-12.09 16.34-12.16 15.94-12.16C14.68-12.16 13.63-11.63 13.63-10.38C13.63-10.27 13.63-10.14 13.64-10.02L16.89-10.02C17.12-10.02 17.30-9.87 17.30-9.64C17.30-9.41 17.12-9.26 16.89-9.26L13.78-9.26C13.90-8.82 14.04-8.43 14.11-7.92L16.89-7.92C17.12-7.92 17.30-7.77 17.30-7.55C17.30-7.32 17.12-7.16 16.89-7.16L14.13-7.16C14.13-7.05 14.12-6.96 14.11-6.87C13.99-6.11 13.64-5.43 12.96-5.09L12.96-5.03L17.75-5.03C18.33-5.03 18.69-4.66 18.69-4.14C18.69-3.60 18.33-3.22 17.75-3.22Z" fill="currentColor"/>
</svg>