<svg xmlns="http://www.w3.org/2000/svg" viewBox="0 0 24 24" width="24" height="24">
  
  <path transform="matrix(0.7442511835638945, 0, 0, 0.7442511835638945, 2.0186000600209093, 18.29706274843514)" d="M0.90-10.98C-0.04-10.98-0.27-10.20 0.23-9.52L3.14-5.64C3.50-5.13 4.13-5.14 4.50-5.64L7.38-9.53C7.88-10.20 7.65-10.98 6.73-10.98L5.52-10.98C6.62-14.89 10.21-17.75 14.47-17.75C19.61-17.75 23.77-13.61 23.77-8.46C23.77-3.33 19.61 0.83 14.47 0.83C11.66 0.83 9.22-0.40 7.49-2.40C6.82-3.07 5.92-3.29 5.20-2.68C4.56-2.13 4.46-1.15 5.20-0.36C7.51 2.33 10.89 3.91 14.47 3.91C21.29 3.91 26.85-1.63 26.85-8.46C26.85-15.29 21.29-20.84 14.47-20.84C8.51-20.84 3.53-16.62 2.36-10.98ZM11.09-3.50L17.58-3.50C18.12-3.50 18.46-3.84 18.46-4.35C18.46-4.85 18.12-5.19 17.58-5.19L13.02-5.19L13.02-5.25C13.65-5.57 14.00-6.22 14.10-6.95C14.12-7.04 14.13-7.14 14.12-7.22L16.76-7.22C16.97-7.22 17.13-7.38 17.13-7.59C17.13-7.80 16.97-7.96 16.76-7.96L14.10-7.96C14.04-8.43 13.90-8.81 13.79-9.21L16.76-9.21C16.97-9.21 17.13-9.38 17.13-9.59C17.13-9.80 16.97-9.95 16.76-9.95L13.66-9.95C13.65-10.05 13.64-10.17 13.64-10.30C13.64-11.47 14.65-11.99 15.84-11.99C16.22-11.99 16.71-11.93 16.96-11.88C17.16-11.84 17.33-11.82 17.48-11.82C17.96-11.82 18.21-12.11 18.21-12.49C18.21-12.95 17.92-13.21 17.51-13.36C16.92-13.58 16.18-13.63 15.53-13.63C13.37-13.63 11.57-12.60 11.57-10.52C11.57-10.32 11.59-10.14 11.61-9.95L10.49-9.95C10.28-9.95 10.11-9.80 10.11-9.59C10.11-9.38 10.28-9.21 10.49-9.21L11.75-9.21C11.86-8.79 11.99-8.39 12.06-7.96L10.49-7.96C10.28-7.96 10.11-7.80 10.11-7.59C10.11-7.38 10.28-7.22 10.49-7.22L12.12-7.22C12.12-7.14 12.11-7.01 12.08-6.90C11.95-6.14 11.47-5.58 10.88-5.27C10.50-5.06 10.22-4.80 10.22-4.36C10.22-3.82 10.59-3.50 11.09-3.50Z" fill="currentColor"/>
</svg>