<svg xmlns="http://www.w3.org/2000/svg" viewBox="0 0 24 24" width="24" height="24">
  <title>list.dash.header.rectangle</title>
  <path transform="matrix(0.7149839407903924, 0, 0, 0.7149839407903924, -0.13657310431504, 18.04105571847507)" d="M7.13 2.75L26.82 2.75C29.51 2.75 30.96 1.30 30.96-1.36L30.96-15.54C30.96-18.20 29.51-19.65 26.82-19.65L7.13-19.65C4.45-19.65 2.99-18.20 2.99-15.54L2.99-1.36C2.99 1.30 4.45 2.75 7.13 2.75ZM7.45-0.27C6.52-0.27 6.01-0.73 6.01-1.72L6.01-15.18C6.01-16.17 6.52-16.63 7.45-16.63L26.50-16.63C27.43-16.63 27.94-16.17 27.94-15.18L27.94-1.72C27.94-0.73 27.43-0.27 26.50-0.27ZM9.68-12.26L10.89-12.26C11.39-12.26 11.82-12.68 11.82-13.20C11.82-13.72 11.39-14.13 10.89-14.13L9.68-14.13C9.18-14.13 8.75-13.72 8.75-13.20C8.75-12.69 9.18-12.26 9.68-12.26ZM14.02-12.38L24.35-12.38C24.81-12.38 25.17-12.74 25.17-13.20C25.17-13.65 24.81-14.02 24.35-14.02L14.02-14.02C13.57-14.02 13.21-13.65 13.21-13.20C13.21-12.74 13.56-12.38 14.02-12.38ZM9.68-8.53L10.89-8.53C11.39-8.53 11.82-8.94 11.82-9.46C11.82-9.97 11.40-10.39 10.89-10.39L9.68-10.39C9.18-10.39 8.75-9.97 8.75-9.46C8.75-8.94 9.18-8.53 9.68-8.53ZM14.02-8.65L24.35-8.65C24.81-8.65 25.17-9 25.17-9.46C25.17-9.91 24.81-10.29 24.35-10.29L14.02-10.29C13.57-10.29 13.21-9.93 13.21-9.46C13.21-9.01 13.56-8.65 14.02-8.65Z" fill="currentColor"/>
</svg>