<svg xmlns="http://www.w3.org/2000/svg" viewBox="0 0 24 24" width="24" height="24">
  <title>lizard</title>
  <path transform="matrix(0.5979873609693438, 0, 0, 0.5979873609693438, 0.21317142280832013, 16.899227150354132)" d="M7.42-2.81L5.91-0.46L3.80-0.50C2.64-0.53 2.79 1.15 3.84 1.04C4.42 1.00 4.78 1.54 4.42 1.93C3.70 2.71 5.14 3.87 5.72 2.84C6 2.33 6.63 2.40 6.76 2.93C7.07 4.25 8.65 3.67 8.30 2.66L7.49 0.45L8.74-0.76L10.72 0.60C12.94 4.88 17.61 7.56 23.50 7.56C32.52 7.56 36.43-0.53 36.43-5.09C36.43-6.88 34.20-6.94 33.98-5.27C33.42-0.55 29.33 2.51 25.22 2.51C22.66 2.51 20.51 1.49 19.17-0.18L20.29-2.03L21.93-1.45L22.11 0.90C22.21 1.95 23.91 1.82 23.63 0.52C23.50-0.02 24.07-0.34 24.53 0.01C25.44 0.69 26.29-0.96 25.32-1.36C24.82-1.57 24.88-2.39 25.46-2.41C26.52-2.44 25.92-4.34 24.87-3.83L22.99-2.93L20.63-4.44C19.93-4.88 19.05-4.76 18.55-4.08L17.85-3.09C17.77-3.52 17.72-3.96 17.72-4.42C17.72-6.02 18.21-7.65 19.00-9.04L19.00-8.67C19.00-7.83 19.66-7.23 20.47-7.18L23.27-7.03L24.29-5.20C24.84-4.18 26.33-5.24 25.59-6.02C25.20-6.45 25.57-7.07 26.09-6.96C27.11-6.74 27.36-8.54 26.21-8.53C25.65-8.53 25.38-9.11 25.78-9.47C26.78-10.37 25.46-11.45 24.80-10.65L23.27-8.85L21.59-9.34L21.80-11.98C22.46-12.35 23.18-12.57 23.88-12.57C24.76-12.57 25.32-11.19 27.08-11.19C29.39-11.19 34.86-15.11 34.35-18.01C33.98-20.09 31.37-21.53 26.73-21.53C24.14-21.53 22.89-20.12 22.71-18.56C22.68-18.06 22.41-17.88 21.90-17.88C20.72-17.88 19.58-17.72 18.50-17.43L16.51-18.36L16.92-20.07L19.25-20.50C20.27-20.67 19.99-22.35 18.71-21.95C18.21-21.79 17.84-22.31 18.13-22.78C18.70-23.75 17.04-24.45 16.71-23.46C16.54-22.95 15.96-22.86 15.69-23.43C15.20-24.47 13.69-23.78 14.29-22.77L15.35-20.99L14.09-18.49C13.72-17.75 13.91-16.89 14.64-16.46L15.33-16.05C11.72-13.88 9.32-9.93 9.32-5.39C9.32-4.69 9.36-4.01 9.46-3.34C8.72-3.76 7.88-3.52 7.42-2.81ZM23.16 5.21C16.13 5.21 11.66 0.97 11.66-5.39C11.66-11.21 16.00-15.61 22.03-15.61C23.70-15.61 24.86-16.59 25.01-18.15C25.09-18.79 25.50-19.22 26.73-19.22C30.12-19.22 31.86-18.56 32.05-17.78C32.40-16.29 28.54-13.54 27.08-13.54C25.76-13.54 25.50-14.78 23.86-14.78C18.94-14.78 15.38-9.41 15.38-4.42C15.38 0.36 19.08 4.16 23.91 4.69C25.10 4.71 26.24 4.31 27.11 3.62C26.23 4.46 24.93 5.21 23.16 5.21Z" fill="currentColor"/>
</svg>