<svg xmlns="http://www.w3.org/2000/svg" viewBox="0 0 24 24" width="24" height="24">
  <title>lizard.circle.fill</title>
  <path transform="matrix(0.8080808080808081, 0, 0, 0.8080808080808081, 0.30492424242424243, 18.827651515151516)" d="M14.47 3.93C21.30 3.93 26.85-1.62 26.85-8.45C26.85-15.28 21.30-20.82 14.47-20.82C7.64-20.82 2.10-15.28 2.10-8.45C2.10-1.62 7.64 3.93 14.47 3.93ZM15.67-1.98C13.29-1.98 11.40-3 10.42-4.65L9.25-5.45L8.75-4.98L9.11-4.03C9.29-3.52 8.45-3.20 8.31-3.89C8.26-4.08 8.05-4.10 7.96-3.91C7.66-3.36 6.90-3.95 7.28-4.38C7.41-4.52 7.31-4.70 7.08-4.66C6.54-4.62 6.46-5.48 7.05-5.47L7.96-5.45L8.60-6.46C8.81-6.81 9.23-6.91 9.59-6.73L9.74-6.64C9.69-6.91 9.68-7.17 9.68-7.45C9.68-9.43 10.77-11.10 12.38-11.98L11.95-12.23C11.60-12.45 11.53-12.87 11.70-13.21L12.23-14.29L11.77-15.05C11.46-15.56 12.25-15.91 12.47-15.42C12.56-15.22 12.77-15.21 12.83-15.40C13.01-15.93 13.86-15.56 13.57-15.05C13.46-14.87 13.58-14.71 13.77-14.77C14.40-14.98 14.57-14.12 14.04-14.03L13.03-13.83L12.88-13.16L14.10-12.57C14.39-12.62 14.68-12.63 14.96-12.63C15.33-12.63 15.52-12.82 15.56-13.21C15.67-13.78 16.13-14.13 17.37-14.13C19.04-14.13 20.16-13.70 20.16-12.97C20.16-11.88 18.11-10.51 17.14-10.51C16.50-10.51 16.48-10.80 15.84-10.80C15.59-10.80 15.29-10.76 15.01-10.64L14.91-9.40L15.56-9.18L16.23-9.94C16.58-10.36 17.25-9.80 16.76-9.34C16.61-9.19 16.68-9.01 16.90-9.01C17.50-9.02 17.37-8.10 16.84-8.20C16.64-8.24 16.54-8.06 16.66-7.88C16.98-7.43 16.29-6.94 16.00-7.45L15.55-8.25L14.34-8.36C13.97-8.40 13.64-8.66 13.64-9.07L13.64-9.54C13.13-8.82 12.82-7.92 12.82-7.01C12.82-6.73 12.86-6.47 12.93-6.20L13.39-6.86C13.62-7.18 14.05-7.24 14.38-7.03L15.42-6.36L16.23-6.75C16.75-7.00 17.05-6.19 16.54-6.02C16.31-5.95 16.28-5.73 16.46-5.65C16.96-5.44 16.54-4.61 16.05-4.96C15.87-5.09 15.69-4.98 15.74-4.79C15.88-4.15 15.02-4.05 14.94-4.61L14.88-5.59L14.23-5.82L13.64-4.88C14.30-4.13 15.30-3.64 16.43-3.64C18.36-3.64 20.09-5.19 20.36-7.39C20.45-8.11 21.39-8.09 21.39-7.32C21.39-5.45 19.50-1.98 15.67-1.98Z" fill="currentColor"/>
</svg>