<svg xmlns="http://www.w3.org/2000/svg" viewBox="0 0 24 24" width="24" height="24">
  
  <path transform="matrix(0.6022074285193803, 0, 0, 0.6022074285193803, 0.20056156215196586, 17.03443079645077)" d="M7.42-3.08L5.91-0.73L3.80-0.77C2.64-0.80 2.79 0.87 3.84 0.77C4.42 0.71 4.78 1.27 4.42 1.65C3.70 2.43 5.16 3.60 5.72 2.57C6 2.06 6.63 2.12 6.76 2.66C7.05 3.98 8.65 3.39 8.30 2.38L7.49 0.18L8.74-1.03L11.09 0.57C13.25 4.54 17.67 7.02 23.24 7.02C31.91 7.02 36.20-0.81 36.20-5.09C36.20-6.88 33.94-6.94 33.73-5.27C33.13-0.33 29.27 3.12 24.95 3.12C22.35 3.12 20.07 2.04 18.61 0.32L19.95-1.89L21.59-1.31L21.77 1.03C21.87 2.09 23.57 1.95 23.27 0.66C23.16 0.12 23.73-0.21 24.18 0.14C25.10 0.82 25.93-0.82 24.98-1.22C24.48-1.44 24.54-2.25 25.13-2.27C26.18-2.30 25.58-4.21 24.54-3.70L22.65-2.79L20.29-4.30C19.58-4.75 18.71-4.62 18.21-3.94L17.14-2.46C16.98-3.07 16.89-3.71 16.89-4.39C16.89-6.49 17.60-8.61 18.79-10.21L18.80-9C18.80-8.16 19.45-7.56 20.27-7.51L23.07-7.37L24.09-5.53C24.64-4.52 26.13-5.58 25.38-6.36C24.98-6.79 25.36-7.41 25.89-7.29C26.91-7.07 27.15-8.87 26.02-8.86C25.44-8.86 25.17-9.43 25.58-9.81C26.57-10.71 25.27-11.79 24.59-10.99L23.06-9.19L21.39-9.68L21.61-12.48C22.21-12.73 22.84-12.86 23.51-12.86C24.93-12.86 25.09-12.07 26.57-12.07C28.75-12.07 33.41-15.33 33.41-17.81C33.41-19.52 30.90-20.50 27.04-20.50C24.23-20.50 23.18-19.73 22.92-18.21C22.79-17.46 22.43-17.14 21.77-17.14C20.96-17.14 20.17-17.06 19.39-16.92L16.79-18.16L17.20-19.86L19.54-20.29C20.55-20.47 20.26-22.14 19.00-21.74C18.48-21.59 18.12-22.10 18.40-22.58C18.97-23.55 17.31-24.25 16.98-23.26C16.80-22.73 16.23-22.66 15.97-23.23C15.47-24.26 13.96-23.57 14.55-22.58L15.63-20.79L14.37-18.28C13.99-17.55 14.18-16.68 14.91-16.25L15.87-15.70C12.13-13.71 9.62-9.88 9.62-5.37C9.62-4.71 9.67-4.07 9.76-3.45L9.46-3.62C8.72-4.04 7.88-3.79 7.42-3.08Z" fill="currentColor"/>
</svg>