<svg xmlns="http://www.w3.org/2000/svg" viewBox="0 0 24 24" width="24" height="24">
  <title>lock.shield.fill</title>
  <path transform="matrix(0.8432147562582345, 0, 0, 0.8432147562582345, 1.0513833992094868, 18.986166007905137)" d="M12.98 3.57C13.22 3.57 13.55 3.48 13.86 3.33C20.65-0.07 22.98-2.02 22.98-6.21L22.98-14.73C22.98-16.37 22.44-17.04 21-17.65C19.86-18.12 15.68-19.55 14.61-19.89C14.11-20.04 13.49-20.14 12.98-20.14C12.48-20.14 11.87-20.03 11.37-19.89C10.29-19.56 6.11-18.12 4.97-17.65C3.54-17.05 2.99-16.37 2.99-14.73L2.99-6.21C2.99-2.02 5.39-0.19 12.12 3.33C12.42 3.49 12.75 3.57 12.98 3.57ZM8.64-4.24L8.64-8.87C8.64-9.68 8.95-10.11 9.59-10.23L9.59-11.50C9.59-13.77 10.97-15.29 13.00-15.29C15.02-15.29 16.41-13.77 16.41-11.50L16.41-10.22C17.04-10.11 17.36-9.68 17.36-8.87L17.36-4.24C17.36-3.27 16.92-2.82 16.03-2.82L9.97-2.82C9.07-2.82 8.64-3.27 8.64-4.24ZM11.32-10.28L14.67-10.28L14.67-11.60C14.67-12.81 14.00-13.61 12.98-13.61C11.98-13.61 11.32-12.81 11.32-11.60Z" fill="currentColor"/>
</svg>