<svg xmlns="http://www.w3.org/2000/svg" viewBox="0 0 24 24" width="24" height="24">
  <title>lt.circle</title>
  <path transform="matrix(0.8080808080808081, 0, 0, 0.8080808080808081, 0.30492424242424243, 18.83712121212121)" d="M14.47 3.91C21.30 3.91 26.85-1.63 26.85-8.46C26.85-15.29 21.30-20.84 14.47-20.84C7.64-20.84 2.10-15.29 2.10-8.46C2.10-1.63 7.64 3.91 14.47 3.91ZM14.47 0.83C9.34 0.83 5.18-3.33 5.18-8.46C5.18-13.61 9.34-17.75 14.47-17.75C19.62-17.75 23.77-13.61 23.77-8.46C23.77-3.33 19.62 0.83 14.47 0.83ZM10.51-3.90L13.48-3.90C13.92-3.90 14.30-4.27 14.30-4.71C14.30-5.16 13.92-5.53 13.48-5.53L11.51-5.53L11.51-12.16C11.51-12.70 11.06-13.15 10.52-13.15C9.97-13.15 9.53-12.70 9.53-12.16L9.53-4.93C9.53-4.30 9.88-3.90 10.51-3.90ZM17.02-3.76C17.55-3.76 18-4.21 18-4.76L18-11.38L19.08-11.38C19.52-11.38 19.89-11.74 19.89-12.20C19.89-12.63 19.52-13.00 19.08-13.00L14.92-13.00C14.46-13.00 14.11-12.63 14.11-12.20C14.11-11.74 14.46-11.38 14.92-11.38L16.02-11.38L16.02-4.76C16.02-4.21 16.45-3.76 17.02-3.76Z" fill="currentColor"/>
</svg>