<svg xmlns="http://www.w3.org/2000/svg" viewBox="0 0 24 24" width="24" height="24">
  <title>m.circle.fill</title>
  <path transform="matrix(0.8080808080808081, 0, 0, 0.8080808080808081, 0.30492424242424243, 18.83712121212121)" d="M14.47 3.91C21.30 3.91 26.85-1.63 26.85-8.46C26.85-15.29 21.30-20.84 14.47-20.84C7.64-20.84 2.10-15.29 2.10-8.46C2.10-1.63 7.64 3.91 14.47 3.91ZM9.95-2.77C9.21-2.77 8.79-3.23 8.79-4.05L8.79-12.63C8.79-13.58 9.43-14.21 10.41-14.21C11.29-14.21 11.84-13.79 12.13-12.94L14.44-6.59L14.52-6.59L16.82-12.94C17.10-13.79 17.65-14.21 18.54-14.21C19.51-14.21 20.16-13.58 20.16-12.63L20.16-4.05C20.16-3.23 19.72-2.77 18.98-2.77C18.25-2.77 17.81-3.23 17.81-4.05L17.81-9.94L17.70-9.94L15.59-4.24C15.38-3.67 15.02-3.41 14.45-3.41C13.88-3.41 13.52-3.68 13.34-4.24L11.25-9.94L11.13-9.94L11.13-4.05C11.13-3.23 10.69-2.77 9.95-2.77Z" fill="currentColor"/>
</svg>