<svg xmlns="http://www.w3.org/2000/svg" viewBox="0 0 24 24" width="24" height="24">
  <title>macbook.and.ipod</title>
  <path transform="matrix(0.5799071242496319, 0, 0, 0.5799071242496319, 0.2670744138634047, 16.75365273530411)" d="M4.76 1.80L25.65 1.80C25.42 1.23 25.35 0.62 25.35 0.22L25.35-1.73L10.04-1.73L10.04-14.73C10.04-15.40 10.42-15.76 11.09-15.76L34.58-15.76C34.54-17.71 33.39-18.73 31.42-18.73L10.43-18.73C8.34-18.73 7.09-17.53 7.09-15.40L7.09-1.73L4.76-1.73C3.80-1.73 2.99-0.94 2.99 0.04C2.99 1.01 3.80 1.80 4.76 1.80ZM27.12 0.22C27.12 1.49 28.00 2.33 29.32 2.33L35.34 2.33C36.62 2.33 37.48 1.49 37.48 0.22L37.48-11.75C37.48-13.02 36.62-13.86 35.34-13.86L29.32-13.86C28.00-13.86 27.12-13.02 27.12-11.75ZM32.31-11.74C32.03-11.74 31.82-11.96 31.82-12.25C31.82-12.53 32.03-12.74 32.31-12.74C32.59-12.74 32.80-12.53 32.80-12.25C32.80-11.96 32.59-11.74 32.31-11.74ZM29.14-1.00L29.14-10.55L35.44-10.55L35.44-1.00ZM32.31 1.42C31.90 1.42 31.57 1.09 31.57 0.68C31.57 0.28 31.90-0.05 32.31-0.05C32.71-0.05 33.02 0.28 33.02 0.68C33.02 1.09 32.71 1.42 32.31 1.42Z" fill="currentColor"/>
</svg>