<svg xmlns="http://www.w3.org/2000/svg" viewBox="0 0 24 24" width="24" height="24">
  <title>macbook.slash</title>
  <path transform="matrix(0.5593794384354857, 0, 0, 0.5593794384354857, 0.328416912487709, 16.711551357099626)" d="M31.85 4.00C32.24 4.38 32.87 4.37 33.25 3.98C33.62 3.60 33.63 2.98 33.25 2.59L9.82-20.84C9.43-21.22 8.80-21.22 8.41-20.84C8.04-20.46 8.04-19.82 8.41-19.44ZM19.05-14.20L23.27-14.20C23.82-14.20 24.18-14.58 24.18-15.12L24.18-15.41C24.18-15.60 24.27-15.70 24.47-15.70L30.57-15.70C31.27-15.70 31.62-15.38 31.62-14.66L31.62-1.83L31.08-1.83L34.70 1.80L36.97 1.80C37.93 1.80 38.74 1.01 38.74 0.04C38.74-0.94 37.93-1.73 36.97-1.73L34.64-1.73L34.64-15.40C34.64-17.53 33.43-18.73 31.30-18.73L14.18-18.73L17.19-15.70L17.55-15.70ZM23.88-1.73L10.11-1.73L10.11-14.66C10.11-14.94 10.20-15.15 10.37-15.26L7.92-17.71C7.38-17.18 7.09-16.41 7.09-15.40L7.09-1.73L4.76-1.73C3.80-1.73 2.99-0.94 2.99 0.04C2.99 1.01 3.80 1.80 4.76 1.80L27.43 1.80Z" fill="currentColor"/>
</svg>