<svg xmlns="http://www.w3.org/2000/svg" viewBox="0 0 24 24" width="24" height="24">
  
  <path transform="matrix(0.5494741360807041, 0, 0, 0.5494741360807041, 0.3580167417900837, 16.47198969735995)" d="M4.76 1.80L28.82 1.80L28.71 1.52C27.55 0.70 26.89-0.36 26.75-1.73L10.11-1.73L10.11-14.66C10.11-15.38 10.46-15.70 11.16-15.70L30.56-15.70C30.95-15.70 31.16-15.55 31.24-15.25C31.57-15.39 31.95-15.45 32.33-15.45L34.63-15.45C34.56-17.61 33.35-18.73 31.30-18.73L10.43-18.73C8.34-18.73 7.09-17.53 7.09-15.40L7.09-1.73L4.76-1.73C3.80-1.73 2.99-0.94 2.99 0.04C2.99 1.01 3.80 1.80 4.76 1.80ZM31.77 2.45L35.13 2.45C35.64 2.45 36.05 2.21 36.23 1.70L36.59 0.77C36.73 0.36 36.97 0.07 37.38-0.18C38.16-0.66 38.64-1.43 38.64-2.60L38.64-6.05C39.09-6.05 39.39-6.38 39.39-6.86L39.39-7.85C39.39-8.32 39.09-8.66 38.64-8.66C38.64-9.80 38.17-10.57 37.38-11.05C36.97-11.32 36.73-11.59 36.59-12L36.23-12.95C36.06-13.45 35.64-13.69 35.13-13.69L31.77-13.69C31.27-13.69 30.83-13.45 30.66-12.95L30.32-12C30.16-11.57 29.89-11.29 29.50-11.05C28.73-10.58 28.27-9.80 28.27-8.63L28.27-2.60C28.27-1.43 28.72-0.66 29.50-0.18C29.92 0.07 30.16 0.35 30.32 0.77L30.66 1.70C30.84 2.23 31.27 2.45 31.77 2.45ZM31.38-1.76C30.57-1.76 30.21-2.13 30.21-2.99L30.21-8.26C30.21-9.11 30.57-9.48 31.38-9.48L35.51-9.48C36.34-9.48 36.69-9.09 36.69-8.26L36.69-2.99C36.69-2.14 36.33-1.76 35.51-1.76Z" fill="currentColor"/>
</svg>