<svg xmlns="http://www.w3.org/2000/svg" viewBox="0 0 24 24" width="24" height="24">
  <title>macmini.gen2.fill</title>
  <path transform="matrix(0.5938297378798423, 0, 0, 0.5938297378798423, 0.22546972860125258, 17.027835768963115)" d="M7.08-2.44L32.57-2.44C35.21-2.44 36.67-3.88 36.67-6.50L36.67-10.43C36.67-13.04 35.21-14.50 32.57-14.50L7.08-14.50C4.44-14.50 2.99-13.04 2.99-10.43L2.99-6.50C2.99-3.88 4.44-2.44 7.08-2.44ZM28.31-6.81C27.63-6.81 27.09-7.34 27.09-8.03C27.09-8.71 27.63-9.25 28.31-9.25C28.99-9.25 29.53-8.71 29.53-8.03C29.53-7.34 28.99-6.81 28.31-6.81Z" fill="currentColor"/>
</svg>