<svg xmlns="http://www.w3.org/2000/svg" viewBox="0 0 24 24" width="24" height="24">
  
  <path transform="matrix(0.7531626949102678, 0, 0, 0.7531626949102678, 0.42453662842012374, 18.372462488967344)" d="M15.38 4.82C22.68 4.82 28.64-1.15 28.64-8.46C28.64-15.77 22.68-21.74 15.38-21.74C8.06-21.74 2.10-15.77 2.10-8.46C2.10-1.15 8.06 4.82 15.38 4.82ZM15.38 0.19C10.59 0.19 6.73-3.68 6.73-8.46C6.73-13.24 10.59-17.11 15.38-17.11C20.14-17.11 24.01-13.24 24.01-8.46C24.01-3.68 20.14 0.19 15.38 0.19ZM12.02-3.40C12.62-3.40 13.04-3.73 13.04-4.43L13.04-7.50C13.04-9.08 13.52-10.38 14.85-10.65L14.85-3.98C14.85-3.63 15.05-3.42 15.38-3.42C15.69-3.42 15.89-3.63 15.89-3.98L15.89-10.66C17.25-10.41 17.72-9.09 17.72-7.50L17.72-4.43C17.72-3.79 18.11-3.40 18.75-3.40C19.35-3.40 19.77-3.76 19.77-4.43L19.77-7.48C19.77-10.23 18.43-12.22 15.89-12.46L15.89-13.65C15.89-13.99 15.69-14.21 15.38-14.21C15.05-14.21 14.85-13.99 14.85-13.65L14.85-12.46C12.32-12.21 10.99-10.21 10.99-7.48L10.99-4.43C10.99-3.79 11.39-3.40 12.02-3.40Z" fill="currentColor"/>
</svg>