<svg xmlns="http://www.w3.org/2000/svg" viewBox="0 0 24 24" width="24" height="24">
  <title>map.fill</title>
  <path transform="matrix(0.7934294126762746, 0, 0, 0.7934294126762746, -0.3709902370990239, 18.531845653184565)" d="M12.38 0.21L17.48 3.05C17.91 3.28 18.22 3.45 18.70 3.54L18.70-16.43L13.77-19.35C13.21-19.66 12.75-19.90 12.38-20.00ZM2.99 1.37C2.99 2.65 3.86 3.32 4.95 3.32C5.36 3.32 5.77 3.21 6.19 2.98L10.48 0.66L10.48-19.98C10.14-19.89 9.73-19.71 9.25-19.44L4.35-16.68C3.41-16.16 2.99-15.42 2.99-14.38ZM20.60 3.45C20.75 3.40 20.93 3.33 21.11 3.23L26.78 0.05C27.79-0.50 28.20-1.23 28.20-2.29L28.20-17.82C28.20-19.17 27.30-19.79 26.07-19.79C25.62-19.79 25.09-19.65 24.64-19.39L20.60-17.16Z" fill="currentColor"/>
</svg>