<svg xmlns="http://www.w3.org/2000/svg" viewBox="0 0 24 24" width="24" height="24">
  <title>message</title>
  <path transform="matrix(0.6923597025016903, 0, 0, 0.6923597025016903, 0.5476673427991887, 18.486815415821503)" d="M16.54 2.80C24.87 2.80 30.98-2.33 30.98-9.38C30.98-16.46 24.83-21.54 16.54-21.54C8.24-21.54 2.10-16.46 2.10-9.38C2.10-6.64 2.91-4.77 3.89-3.25C4.43-2.38 4.73-1.72 4.73-1.01C4.73-0.27 4.54 0.23 3.91 0.82C3.02 1.61 3.52 2.80 4.76 2.80C6.36 2.80 8.06 2.30 9.35 1.41C11.43 2.32 13.84 2.80 16.54 2.80ZM16.54-0.16C14.34-0.16 12.39-0.56 10.72-1.30C9.86-1.69 9.19-1.62 8.44-1.24C8.14-1.07 7.80-0.91 7.41-0.80C7.54-1.13 7.62-1.38 7.62-1.72C7.62-2.63 7.20-3.62 6.46-4.75C5.54-6.05 5.05-7.64 5.05-9.38C5.05-14.70 9.76-18.59 16.54-18.59C23.32-18.59 28.03-14.68 28.03-9.38C28.03-4.08 23.32-0.16 16.54-0.16Z" fill="currentColor"/>
</svg>