<svg xmlns="http://www.w3.org/2000/svg" viewBox="0 0 24 24" width="24" height="24">
  <title>millsign.arrow.trianglehead.counterclockwise.rotate.90</title>
  <path transform="matrix(0.7442511835638945, 0, 0, 0.7442511835638945, 2.0186000600209093, 18.29706274843514)" d="M0.90-10.98C-0.04-10.98-0.27-10.20 0.23-9.52L3.14-5.64C3.50-5.13 4.13-5.14 4.50-5.64L7.38-9.53C7.88-10.20 7.65-10.98 6.73-10.98L5.52-10.98C6.62-14.89 10.21-17.75 14.47-17.75C19.61-17.75 23.77-13.61 23.77-8.46C23.77-3.33 19.61 0.83 14.47 0.83C11.66 0.83 9.22-0.40 7.49-2.40C6.82-3.07 5.92-3.29 5.20-2.68C4.56-2.13 4.46-1.15 5.20-0.36C7.51 2.33 10.89 3.91 14.47 3.91C21.29 3.91 26.85-1.63 26.85-8.46C26.85-15.29 21.29-20.84 14.47-20.84C8.51-20.84 3.53-16.62 2.36-10.98ZM11.40-2.02C11.55-2.02 11.66-2.09 11.73-2.25L13.71-6.67L13.71-5.38C13.71-4.90 14.03-4.51 14.50-4.51C14.98-4.51 15.28-4.90 15.28-5.38L15.28-9.30C15.28-10.00 15.57-10.71 16.34-10.71C17.09-10.71 17.32-10.13 17.32-9.38L17.32-5.38C17.32-4.89 17.67-4.51 18.15-4.51C18.66-4.51 19.00-4.89 19.00-5.38L19.00-9.88C19.00-11.18 18.35-12.34 16.97-12.34C16.69-12.34 16.43-12.28 16.20-12.19L17.23-14.46C17.25-14.53 17.26-14.59 17.26-14.65C17.26-14.86 17.11-14.96 16.93-14.96C16.76-14.96 16.68-14.86 16.61-14.72L14.99-11.13C14.74-11.91 14.19-12.34 13.35-12.34C12.45-12.34 11.85-11.67 11.67-10.88L11.60-10.88L11.60-11.47C11.60-12 11.27-12.33 10.79-12.33C10.30-12.33 9.98-11.98 9.98-11.47L9.98-5.38C9.98-4.90 10.31-4.51 10.83-4.51C11.34-4.51 11.66-4.88 11.66-5.38L11.66-9.26C11.66-9.98 11.99-10.71 12.73-10.71C13.41-10.71 13.71-10.17 13.71-9.43L13.71-8.30L11.11-2.52C11.09-2.46 11.06-2.39 11.06-2.33C11.06-2.12 11.23-2.02 11.40-2.02Z" fill="currentColor"/>
</svg>