<svg xmlns="http://www.w3.org/2000/svg" viewBox="0 0 24 24" width="24" height="24">
  <title>minus.plus.lines.measurement.horizontal.aligned.bottom</title>
  <path transform="matrix(0.7882986913010007, 0, 0, 0.7882986913010007, -0.35565819861431835, 19.279445727482678)" d="M21.42-12.84C21.98-12.84 22.43-13.30 22.43-13.86L22.43-15.43L24-15.43C24.56-15.43 25.02-15.89 25.02-16.45C25.02-17.02 24.56-17.47 24-17.47L22.43-17.47L22.43-19.04C22.43-19.62 21.97-20.07 21.41-20.07C20.85-20.07 20.39-19.62 20.39-19.04L20.39-17.47L18.82-17.47C18.25-17.47 17.79-17.02 17.79-16.45C17.79-15.89 18.25-15.43 18.82-15.43L20.39-15.43L20.39-13.86C20.39-13.30 20.85-12.84 21.42-12.84ZM7.49-15.43L12.14-15.43C12.70-15.43 13.16-15.89 13.16-16.45C13.16-17.02 12.70-17.47 12.14-17.47L7.49-17.47C6.93-17.47 6.47-17.02 6.47-16.45C6.47-15.89 6.93-15.43 7.49-15.43ZM4.23 1.61C4.91 1.61 5.45 1.08 5.45 0.39L5.45-11.23C5.45-11.91 4.91-12.46 4.23-12.46C3.53-12.46 2.99-11.91 2.99-11.23L2.99 0.39C2.99 1.08 3.53 1.61 4.23 1.61ZM15.68 1.61C16.36 1.61 16.91 1.08 16.91 0.39L16.91-11.23C16.91-11.91 16.36-12.46 15.68-12.46C14.99-12.46 14.45-11.91 14.45-11.23L14.45 0.39C14.45 1.08 14.99 1.61 15.68 1.61ZM27.14 1.61C27.82 1.61 28.36 1.08 28.36 0.39L28.36-11.23C28.36-11.91 27.82-12.46 27.14-12.46C26.45-12.46 25.91-11.91 25.91-11.23L25.91 0.39C25.91 1.08 26.45 1.61 27.14 1.61ZM9.96 1.61C10.64 1.61 11.18 1.07 11.18 0.39L11.18-5.51C11.18-6.20 10.64-6.75 9.96-6.75C9.27-6.75 8.72-6.20 8.72-5.51L8.72 0.39C8.72 1.07 9.27 1.61 9.96 1.61ZM21.42 1.61C22.10 1.61 22.63 1.07 22.63 0.39L22.63-5.51C22.63-6.20 22.10-6.75 21.42-6.75C20.72-6.75 20.18-6.20 20.18-5.51L20.18 0.39C20.18 1.07 20.72 1.61 21.42 1.61Z" fill="currentColor"/>
</svg>