<svg xmlns="http://www.w3.org/2000/svg" viewBox="0 0 24 24" width="24" height="24">
  <title>minus.plus.and.fluid.batteryblock</title>
  <path transform="matrix(0.7149839407903924, 0, 0, 0.7149839407903924, -0.13657310431504, 18.04105571847507)" d="M7.13 2.00L26.82 2.00C29.51 2.00 30.96 0.55 30.96-2.11L30.96-11.59C30.96-14.25 29.51-15.70 26.82-15.70L25.71-15.70L25.71-17.02C25.71-18.20 25.03-18.90 23.85-18.90L22.03-18.90C20.86-18.90 20.17-18.20 20.17-17.02L20.17-15.70L13.78-15.70L13.78-17.02C13.78-18.20 13.09-18.90 11.92-18.90L10.10-18.90C8.92-18.90 8.24-18.20 8.24-17.02L8.24-15.70L7.13-15.70C4.45-15.70 2.99-14.25 2.99-11.59L2.99-2.11C2.99 0.55 4.45 2.00 7.13 2.00ZM6.01-2.47L6.01-11.23C6.01-12.22 6.52-12.68 7.45-12.68L26.50-12.68C27.43-12.68 27.94-12.22 27.94-11.23L27.94-2.43C27.47-2.60 27.05-2.86 26.71-3.20C26.33-3.56 26.06-3.55 25.68-3.20C25.04-2.55 24.12-2.19 23.12-2.19C22.14-2.19 21.21-2.55 20.57-3.20C20.19-3.55 19.91-3.56 19.55-3.20C18.93-2.58 17.99-2.19 16.98-2.19C15.96-2.19 15.04-2.58 14.41-3.20C14.04-3.56 13.76-3.55 13.38-3.20C12.74-2.55 11.82-2.19 10.83-2.19C9.83-2.19 8.92-2.55 8.27-3.20C7.89-3.55 7.62-3.56 7.24-3.20C6.90-2.86 6.48-2.60 6.01-2.43ZM22.20-3.93C22.77-3.93 23.21-4.38 23.21-4.95L23.21-6.30L24.57-6.30C25.14-6.30 25.59-6.76 25.59-7.32C25.59-7.89 25.14-8.34 24.57-8.34L23.21-8.34L23.21-9.71C23.21-10.28 22.76-10.73 22.20-10.73C21.63-10.73 21.18-10.28 21.18-9.71L21.18-8.34L19.80-8.34C19.23-8.34 18.79-7.89 18.79-7.32C18.79-6.76 19.24-6.30 19.80-6.30L21.18-6.30L21.18-4.95C21.18-4.37 21.63-3.93 22.20-3.93ZM9.63-6.30L13.88-6.30C14.44-6.30 14.89-6.76 14.89-7.32C14.89-7.89 14.44-8.34 13.88-8.34L9.63-8.34C9.07-8.34 8.61-7.89 8.61-7.32C8.61-6.76 9.07-6.30 9.63-6.30Z" fill="currentColor"/>
</svg>