<svg xmlns="http://www.w3.org/2000/svg" viewBox="0 0 24 24" width="24" height="24">
  
  <path transform="matrix(0.583276372750057, 0, 0, 0.583276372750057, 0.2570061517429938, 16.007715981513826)" d="M2.99-7.77C2.99-2.78 5.98 0.16 10.97 0.36C10.85 0.74 10.79 1.15 10.79 1.64C10.79 2.59 11.07 3.34 11.73 4.16C12.39 4.99 13.64 4.14 12.97 3.26C12.48 2.60 12.32 2.23 12.32 1.52C12.32 1.10 12.42 0.73 12.57 0.38L16.65 0.38C16.55 0.74 16.49 1.16 16.49 1.64C16.49 2.59 16.77 3.34 17.43 4.16C18.08 5.00 19.32 4.14 18.67 3.26C18.16 2.60 18.01 2.23 18.01 1.52C18.01 1.10 18.11 0.73 18.26 0.38L22.34 0.38C22.24 0.74 22.17 1.16 22.17 1.64C22.17 2.59 22.45 3.34 23.11 4.16C23.77 5.00 25.01 4.14 24.35 3.26C23.87 2.60 23.70 2.23 23.70 1.52C23.70 1.10 23.80 0.73 23.95 0.38L29.70 0.38C31.52 0.38 32.94 0.50 34.35 0.87C36.05 1.31 37.28 0.74 37.28-1.08L37.28-6.57C37.28-7.78 36.40-8.66 35.19-8.66L32.58-8.66C31.82-8.66 31.39-9.04 31.49-9.90L31.80-12.96C32.16-16.21 30.20-18.25 26.58-18.25C22.91-18.23 15.89-18.07 11.80-17.61C6.28-16.96 2.99-13.31 2.99-7.77ZM5.92-7.77C5.92-11.66 8.20-14.23 12.11-14.67C16.09-15.12 22.93-15.32 26.58-15.32C28.43-15.32 29.05-14.74 28.89-13.30L27.94-4.82C27.75-3.11 27.12-2.55 25.25-2.53C25.31-2.81 25.35-3.12 25.35-3.46C25.35-5.54 23.88-6.08 23.78-8.34L24.75-8.34C25.24-8.34 25.49-8.87 25.22-9.25L23.54-11.72C23.40-11.92 23.23-12.02 23.00-12.02C22.79-12.02 22.63-11.92 22.49-11.72L20.81-9.25C20.54-8.87 20.79-8.34 21.28-8.34L22.24-8.34C22.32-5.32 23.81-5.00 23.81-3.46C23.81-3.12 23.77-2.81 23.68-2.53L19.56-2.53C19.62-2.81 19.65-3.12 19.65-3.46C19.65-5.54 18.20-6.08 18.09-8.34L19.04-8.34C19.55-8.34 19.79-8.87 19.54-9.25L17.85-11.72C17.71-11.92 17.54-12.02 17.32-12.02C17.11-12.02 16.93-11.92 16.79-11.72L15.12-9.25C14.85-8.87 15.09-8.34 15.60-8.34L16.56-8.34C16.64-5.32 18.12-5.00 18.12-3.46C18.12-3.12 18.07-2.81 17.99-2.53L13.88-2.53C13.93-2.81 13.97-3.12 13.97-3.46C13.97-5.54 12.50-6.08 12.41-8.34L13.36-8.34C13.85-8.34 14.10-8.86 13.84-9.25L12.15-11.72C12.01-11.92 11.85-12.02 11.63-12.02C11.41-12.02 11.24-11.92 11.11-11.72L9.43-9.25C9.16-8.87 9.41-8.34 9.90-8.34L10.88-8.34C10.95-5.32 12.43-5.00 12.43-3.46C12.43-3.12 12.39-2.81 12.30-2.53L11.50-2.53C8.03-2.53 5.92-4.42 5.92-7.77Z" fill="currentColor"/>
</svg>