<svg xmlns="http://www.w3.org/2000/svg" viewBox="0 0 24 24" width="24" height="24">
  
  <path transform="matrix(0.8080808080808081, 0, 0, 0.8080808080808081, 0.30492424242424243, 18.83712121212121)" d="M14.47 3.91C21.30 3.91 26.85-1.63 26.85-8.46C26.85-15.29 21.30-20.84 14.47-20.84C7.64-20.84 2.10-15.29 2.10-8.46C2.10-1.63 7.64 3.91 14.47 3.91ZM18.32-8.45C18.32-4.46 16.78-1.22 14.07 0.80C9 0.52 5.17-3.45 5.18-8.46C5.19-13.46 9-17.41 14.05-17.71C16.77-15.67 18.32-12.41 18.32-8.45Z" fill="currentColor"/>
</svg>