<svg xmlns="http://www.w3.org/2000/svg" viewBox="0 0 24 24" width="24" height="24">
  <title>moonphase.waxing.crescent</title>
  <path transform="matrix(0.8080808080808081, 0, 0, 0.8080808080808081, 0.30492424242424243, 18.83712121212121)" d="M14.47 3.91C21.30 3.91 26.85-1.63 26.85-8.46C26.85-15.29 21.30-20.84 14.47-20.84C7.64-20.84 2.10-15.29 2.10-8.46C2.10-1.63 7.64 3.91 14.47 3.91ZM23.77-8.46C23.78-3.33 19.68 0.84 14.55 0.84C14.36 0.84 14.16 0.83 13.96 0.81C16.69-1.30 18.27-4.56 18.27-8.45C18.27-12.35 16.69-15.62 13.95-17.72C14.16-17.74 14.36-17.75 14.57-17.75C19.68-17.75 23.77-13.58 23.77-8.46Z" fill="currentColor"/>
</svg>