<svg xmlns="http://www.w3.org/2000/svg" viewBox="0 0 24 24" width="24" height="24">
  
  <path transform="matrix(0.8080808080808081, 0, 0, 0.8080808080808081, 0.30492424242424243, 18.83712121212121)" d="M14.47 3.91C21.30 3.91 26.85-1.63 26.85-8.46C26.85-15.29 21.30-20.84 14.47-20.84C7.64-20.84 2.10-15.29 2.10-8.46C2.10-1.63 7.64 3.91 14.47 3.91ZM14.47 0.83C9.34 0.83 5.18-3.33 5.18-8.46C5.18-13.61 9.34-17.75 14.47-17.75C19.62-17.75 23.77-13.61 23.77-8.46C23.77-3.33 19.62 0.83 14.47 0.83ZM13.35-10.22C13.85-10.09 14.23-9.64 14.61-9.64C15.06-9.64 15.46-10.27 16.15-10.27C16.86-10.27 17.24-9.64 17.70-9.64C18.07-9.64 18.43-10.10 18.97-10.22L17.20-12.52C16.59-13.30 15.71-13.30 15.11-12.52ZM7.98-4.99L9.74-4.99C9.36-5.64 9.38-6.53 9.91-7.23L12.56-10.66L12.42-10.83C11.82-11.47 11.04-11.39 10.46-10.68L7.28-6.62C6.74-5.93 7.08-4.99 7.98-4.99ZM11.43-4.99L20.87-4.99C21.89-4.99 22.18-5.99 21.64-6.69L19.68-9.26C18.98-9.82 18.56-8.89 17.68-8.89C16.84-8.89 16.52-9.53 16.15-9.53C15.77-9.53 15.46-8.89 14.61-8.89C13.73-8.89 13.31-9.83 12.62-9.26L10.64-6.69C10.11-6 10.39-4.99 11.43-4.99Z" fill="currentColor"/>
</svg>