<svg xmlns="http://www.w3.org/2000/svg" viewBox="0 0 24 24" width="24" height="24">
  
  <path transform="matrix(0.8080808080808081, 0, 0, 0.8080808080808081, 0.30492424242424243, 18.83712121212121)" d="M14.47 3.91C21.30 3.91 26.85-1.63 26.85-8.46C26.85-15.29 21.30-20.84 14.47-20.84C7.64-20.84 2.10-15.29 2.10-8.46C2.10-1.63 7.64 3.91 14.47 3.91ZM10.97-2.80C10.14-2.80 9.64-3.35 9.64-4.24L9.64-12.86C9.64-13.69 10.14-14.21 10.91-14.21C11.48-14.21 11.80-14.03 12.29-13.37L16.54-7.55L16.64-7.55L16.64-12.77C16.64-13.68 17.12-14.21 17.96-14.21C18.81-14.21 19.30-13.68 19.30-12.77L19.30-4.10C19.30-3.29 18.82-2.80 18.06-2.80C17.50-2.80 17.17-2.99 16.71-3.60L12.41-9.50L12.30-9.50L12.30-4.24C12.30-3.34 11.81-2.80 10.97-2.80Z" fill="currentColor"/>
</svg>