<svg xmlns="http://www.w3.org/2000/svg" viewBox="0 0 24 24" width="24" height="24">
  
  <path transform="matrix(0.8926080892608089, 0, 0, 0.8926080892608089, -0.6673640167364017, 19.552301255230127)" d="M7.13 2.74L21.26 2.74C23.94 2.74 25.39 1.29 25.39-1.36L25.39-15.55C25.39-18.20 23.94-19.66 21.26-19.66L7.13-19.66C4.45-19.66 2.99-18.21 2.99-15.55L2.99-1.36C2.99 1.29 4.45 2.74 7.13 2.74ZM11.24-2.96C10.62-2.96 10.24-3.34 10.24-3.98L10.24-8.13L9.54-8.13C9.34-8.13 9.18-8.29 9.18-8.50C9.18-8.70 9.34-8.86 9.54-8.86L10.24-8.86L10.24-12.70C10.24-13.52 10.85-13.99 11.63-13.99C12.36-13.99 12.82-13.59 13.08-12.97L14.88-8.86L16.11-8.86L16.11-12.98C16.11-13.63 16.48-13.99 17.11-13.99C17.73-13.99 18.09-13.62 18.09-12.98L18.09-8.86L18.87-8.86C19.07-8.86 19.24-8.70 19.24-8.50C19.24-8.29 19.07-8.13 18.87-8.13L18.09-8.13L18.09-4.27C18.09-3.50 17.57-2.96 16.71-2.96C15.98-2.96 15.53-3.34 15.27-3.98L13.45-8.13L12.22-8.13L12.22-3.98C12.22-3.34 11.86-2.96 11.24-2.96ZM12.22-8.86L13.13-8.86L12.28-10.62L12.22-10.62ZM15.20-8.13L16.05-6.32L16.11-6.32L16.11-8.13Z" fill="currentColor"/>
</svg>