<svg xmlns="http://www.w3.org/2000/svg" viewBox="0 0 24 24" width="24" height="24">
  <title>nairasign.ring</title>
  <path transform="matrix(0.7531626949102678, 0, 0, 0.7531626949102678, 0.42453662842012374, 18.372462488967344)" d="M15.38 4.82C22.68 4.82 28.64-1.15 28.64-8.46C28.64-15.77 22.68-21.74 15.38-21.74C8.06-21.74 2.10-15.77 2.10-8.46C2.10-1.15 8.06 4.82 15.38 4.82ZM15.38 0.19C10.59 0.19 6.73-3.68 6.73-8.46C6.73-13.24 10.59-17.11 15.38-17.11C20.14-17.11 24.01-13.24 24.01-8.46C24.01-3.68 20.14 0.19 15.38 0.19ZM12.49-3.25C13.08-3.25 13.43-3.61 13.43-4.21L13.43-8.14L14.57-8.14L16.34-4.21C16.58-3.61 17.02-3.25 17.70-3.25C18.49-3.25 18.98-3.75 18.98-4.48L18.98-8.14L19.72-8.14C19.92-8.14 20.07-8.30 20.07-8.50C20.07-8.68 19.92-8.84 19.72-8.84L18.98-8.84L18.98-12.76C18.98-13.36 18.66-13.71 18.06-13.71C17.46-13.71 17.13-13.36 17.13-12.76L17.13-8.84L15.97-8.84L14.21-12.75C13.98-13.34 13.55-13.71 12.86-13.71C12.13-13.71 11.57-13.27 11.57-12.49L11.57-8.84L10.90-8.84C10.70-8.84 10.55-8.68 10.55-8.50C10.55-8.30 10.70-8.14 10.90-8.14L11.57-8.14L11.57-4.21C11.57-3.61 11.91-3.25 12.49-3.25ZM13.43-10.54L13.48-10.54L14.25-8.84L13.43-8.84ZM17.07-6.41L16.29-8.14L17.13-8.14L17.13-6.41Z" fill="currentColor"/>
</svg>