<svg xmlns="http://www.w3.org/2000/svg" viewBox="0 0 24 24" width="24" height="24">
  <title>newspaper.fill</title>
  <path transform="matrix(0.735632183908046, 0, 0, 0.735632183908046, -0.1982758620689653, 18.219827586206897)" d="M7.46 4.44L26.04 4.44C28.72 4.44 30.18 2.99 30.18 0.33L30.18-17.24C30.18-19.90 28.72-21.35 26.04-21.35L12.70-21.35C10.02-21.35 8.57-19.90 8.57-17.24L8.57 2.31C8.57 3.41 8.27 4.04 7.46 4.44ZM14.00-13.50C13.50-13.50 13.10-13.89 13.10-14.39C13.10-14.88 13.49-15.27 14.00-15.27L24.75-15.27C25.25-15.27 25.64-14.88 25.64-14.39C25.64-13.89 25.24-13.50 24.75-13.50ZM2.99-9.40L2.99 0.76C2.99 1.92 3.87 2.43 4.64 2.43C5.41 2.41 6.28 1.92 6.28 0.76L6.28-12.61L5.99-12.61C4.42-12.61 2.99-11.51 2.99-9.40ZM14.00-9.59C13.49-9.59 13.10-9.96 13.10-10.45C13.10-10.96 13.50-11.36 14.00-11.36L24.75-11.36C25.24-11.36 25.64-10.96 25.64-10.45C25.64-9.96 25.25-9.59 24.75-9.59ZM20.88-5.66C20.38-5.66 19.98-6.05 19.98-6.53C19.98-7.03 20.37-7.43 20.88-7.43L24.74-7.43C25.24-7.43 25.63-7.03 25.63-6.53C25.63-6.05 25.24-5.66 24.74-5.66ZM14.54-1.76C13.64-1.76 13.09-2.31 13.09-3.21L13.09-5.98C13.09-6.87 13.64-7.43 14.54-7.43L17.16-7.43C18.06-7.43 18.61-6.87 18.61-5.98L18.61-3.21C18.61-2.31 18.06-1.76 17.16-1.76ZM20.88-1.78C20.37-1.78 19.98-2.17 19.98-2.66C19.98-3.16 20.38-3.56 20.88-3.56L24.74-3.56C25.24-3.56 25.63-3.16 25.63-2.66C25.63-2.17 25.24-1.78 24.74-1.78Z" fill="currentColor"/>
</svg>