<svg xmlns="http://www.w3.org/2000/svg" viewBox="0 0 24 24" width="24" height="24">
  <title>newspaper.circle</title>
  <path transform="matrix(0.8080808080808081, 0, 0, 0.8080808080808081, 0.30492424242424243, 18.83712121212121)" d="M14.47 3.91C21.30 3.91 26.85-1.63 26.85-8.46C26.85-15.29 21.30-20.84 14.47-20.84C7.64-20.84 2.10-15.29 2.10-8.46C2.10-1.63 7.64 3.91 14.47 3.91ZM14.47 0.83C9.34 0.83 5.18-3.33 5.18-8.46C5.18-13.61 9.34-17.75 14.47-17.75C19.62-17.75 23.77-13.61 23.77-8.46C23.77-3.33 19.62 0.83 14.47 0.83ZM10.49-2.85L18.59-2.85C19.75-2.85 20.38-3.46 20.38-4.62L20.38-12.29C20.38-13.45 19.75-14.06 18.59-14.06L12.75-14.06C11.59-14.06 10.97-13.45 10.97-12.29L10.97-3.77C10.97-3.29 10.84-3.01 10.49-2.85ZM13.32-10.66C13.10-10.66 12.93-10.84 12.93-11.06C12.93-11.27 13.09-11.45 13.32-11.45L18.02-11.45C18.25-11.45 18.41-11.27 18.41-11.06C18.41-10.84 18.23-10.66 18.02-10.66ZM8.55-8.87L8.55-4.43C8.55-3.93 8.92-3.71 9.26-3.71C9.60-3.73 9.97-3.93 9.97-4.43L9.97-10.23L9.82-10.23C9.14-10.23 8.55-9.75 8.55-8.87ZM13.32-8.94C13.10-8.94 12.93-9.12 12.93-9.34C12.93-9.56 13.09-9.73 13.32-9.73L18.02-9.73C18.25-9.73 18.41-9.56 18.41-9.34C18.41-9.12 18.25-8.94 18.02-8.94ZM16.35-7.21C16.11-7.21 15.95-7.38 15.95-7.59C15.95-7.82 16.11-7.99 16.35-7.99L18.02-7.99C18.23-7.99 18.41-7.82 18.41-7.59C18.41-7.38 18.23-7.21 18.02-7.21ZM13.55-5.52C13.16-5.52 12.91-5.75 12.91-6.14L12.91-7.36C12.91-7.75 13.16-7.99 13.55-7.99L14.70-7.99C15.09-7.99 15.34-7.75 15.34-7.36L15.34-6.14C15.34-5.75 15.09-5.52 14.70-5.52ZM16.35-5.52C16.11-5.52 15.95-5.68 15.95-5.91C15.95-6.13 16.11-6.30 16.35-6.30L18.02-6.30C18.23-6.30 18.41-6.13 18.41-5.91C18.41-5.68 18.25-5.52 18.02-5.52Z" fill="currentColor"/>
</svg>