<svg xmlns="http://www.w3.org/2000/svg" viewBox="0 0 24 24" width="24" height="24">
  <title>newspaper</title>
  <path transform="matrix(0.7105190119344991, 0, 0, 0.7105190119344991, -0.1232306411323898, 18.007493755203996)" d="M2.99 0.38C2.99 2.93 4.59 4.44 7.34 4.44L27 4.44C29.68 4.44 31.14 2.99 31.14 0.33L31.14-17.24C31.14-19.90 29.68-21.35 27-21.35L12.79-21.35C10.11-21.35 8.65-19.90 8.65-17.24L8.65-12.61L6.42-12.61C4.27-12.61 2.99-11.37 2.99-9.27ZM11.44 1.42C11.59 1.10 11.67 0.74 11.67 0.30L11.67-16.86C11.67-17.84 12.15-18.33 13.13-18.33L26.67-18.33C27.64-18.33 28.11-17.84 28.11-16.86L28.11-0.04C28.11 0.93 27.64 1.42 26.67 1.42ZM14.53-13.50L25.28-13.50C25.77-13.50 26.17-13.89 26.17-14.39C26.17-14.88 25.78-15.27 25.28-15.27L14.53-15.27C14.02-15.27 13.63-14.88 13.63-14.39C13.63-13.89 14.03-13.50 14.53-13.50ZM14.53-9.59L25.28-9.59C25.78-9.59 26.17-9.96 26.17-10.45C26.17-10.96 25.77-11.36 25.28-11.36L14.53-11.36C14.03-11.36 13.63-10.96 13.63-10.45C13.63-9.96 14.02-9.59 14.53-9.59ZM6.01 0.06L6.01-8.75C6.01-9.26 6.34-9.59 6.84-9.59L8.65-9.59L8.65 0.06C8.65 0.86 8.09 1.42 7.34 1.42C6.57 1.42 6.01 0.84 6.01 0.06ZM15.14-1.78L17.86-1.78C18.81-1.78 19.38-2.37 19.38-3.30L19.38-5.91C19.38-6.84 18.81-7.43 17.86-7.43L15.14-7.43C14.20-7.43 13.62-6.84 13.62-5.91L13.62-3.30C13.62-2.37 14.20-1.78 15.14-1.78ZM21.41-5.66L25.27-5.66C25.77-5.66 26.16-6.05 26.16-6.53C26.16-7.03 25.77-7.43 25.27-7.43L21.41-7.43C20.89-7.43 20.51-7.03 20.51-6.53C20.51-6.05 20.91-5.66 21.41-5.66ZM21.41-1.78L25.27-1.78C25.77-1.78 26.16-2.17 26.16-2.66C26.16-3.16 25.77-3.56 25.27-3.56L21.41-3.56C20.91-3.56 20.51-3.16 20.51-2.66C20.51-2.17 20.89-1.78 21.41-1.78Z" fill="currentColor"/>
</svg>