<svg xmlns="http://www.w3.org/2000/svg" viewBox="0 0 24 24" width="24" height="24">
  
  <path transform="matrix(0.8926080892608089, 0, 0, 0.8926080892608089, -0.6673640167364017, 19.552301255230127)" d="M7.13 2.74L21.26 2.74C23.94 2.74 25.39 1.29 25.39-1.36L25.39-15.55C25.39-18.20 23.94-19.66 21.26-19.66L7.13-19.66C4.45-19.66 2.99-18.21 2.99-15.55L2.99-1.36C2.99 1.29 4.45 2.74 7.13 2.74ZM14.26-2.73C11.11-2.73 8.81-4.97 8.81-8.51C8.81-12.06 11.11-14.29 14.26-14.29C17.43-14.29 19.72-12.06 19.72-8.51C19.72-4.97 17.43-2.73 14.26-2.73ZM14.26-5.14C15.69-5.14 16.70-6.38 16.70-8.51C16.70-10.64 15.69-11.87 14.26-11.87C12.83-11.87 11.84-10.64 11.84-8.51C11.84-6.38 12.83-5.14 14.26-5.14Z" fill="currentColor"/>
</svg>