<svg xmlns="http://www.w3.org/2000/svg" viewBox="0 0 24 24" width="24" height="24">
  <title>opticaldiscdrive.fill</title>
  <path transform="matrix(0.7105190119344991, 0, 0, 0.7105190119344991, -0.1232306411323898, 18.003330557868445)" d="M8.11-10.01L26.02-10.01C27.32-10.01 28.49-9.71 29.50-9.19L26.48-15.97C25.64-17.88 24.01-18.96 21.79-18.96L12.35-18.96C10.13-18.96 8.51-17.88 7.65-15.97L4.65-9.20C5.65-9.71 6.82-10.01 8.11-10.01ZM8.11 2.06L26.02 2.06C29.06 2.06 31.14 0 31.14-3.02C31.14-6.05 29.06-8.11 26.02-8.11L8.11-8.11C5.06-8.11 2.99-6.05 2.99-3.02C2.99 0 5.06 2.06 8.11 2.06ZM7.80-3.02C7.80-3.59 8.26-4.05 8.84-4.05L25.30-4.05C25.86-4.05 26.32-3.59 26.32-3.02C26.32-2.46 25.86-1.99 25.30-1.99L8.84-1.99C8.26-1.99 7.80-2.46 7.80-3.02Z" fill="currentColor"/>
</svg>