<svg xmlns="http://www.w3.org/2000/svg" viewBox="0 0 24 24" width="24" height="24">
  <title>p.square.fill</title>
  <path transform="matrix(0.8926080892608089, 0, 0, 0.8926080892608089, -0.6673640167364017, 19.552301255230127)" d="M7.13 2.74L21.26 2.74C23.94 2.74 25.39 1.29 25.39-1.36L25.39-15.55C25.39-18.20 23.94-19.66 21.26-19.66L7.13-19.66C4.45-19.66 2.99-18.21 2.99-15.55L2.99-1.36C2.99 1.29 4.45 2.74 7.13 2.74ZM11.55-2.80C10.58-2.80 10.04-3.45 10.04-4.50L10.04-12.29C10.04-13.39 10.59-14.03 11.68-14.03L14.96-14.03C17.50-14.03 19.13-12.45 19.13-10.03C19.13-7.59 17.47-6.02 14.93-6.02L13.09-6.02L13.09-4.50C13.09-3.45 12.53-2.80 11.55-2.80ZM13.09-8.24L14.53-8.24C15.63-8.24 16.25-8.88 16.25-10.02C16.25-11.17 15.63-11.80 14.53-11.80L13.09-11.80Z" fill="currentColor"/>
</svg>