<svg xmlns="http://www.w3.org/2000/svg" viewBox="0 0 24 24" width="24" height="24">
  
  <path transform="matrix(0.7075732448866777, 0, 0, 0.7075732448866777, -0.11442786069651723, 17.982587064676615)" d="M12.34 2.60L21.90 2.60C28.88 2.60 31.25 0.15 31.25-6.64L31.25-10.27C31.25-17.06 28.88-19.51 21.90-19.51L12.34-19.51C5.36-19.51 2.99-17.06 2.99-10.27L2.99-6.64C2.99 0.15 5.36 2.60 12.34 2.60ZM20.71-3.45C19.38-3.45 18.16-4.03 17.82-5.13C17.77-5.33 17.72-5.55 17.72-5.79C17.72-6.35 18.09-6.69 18.67-6.69C19.13-6.69 19.44-6.46 19.59-5.99C19.75-5.52 20.05-5.07 20.71-5.07C21.46-5.07 21.79-5.73 21.79-6.40C21.79-7.31 21.34-7.79 20.45-7.79L20.24-7.79C19.73-7.79 19.45-8.07 19.45-8.53C19.45-8.98 19.73-9.26 20.24-9.26L20.44-9.26C21.23-9.26 21.59-9.89 21.59-10.62C21.59-11.26 21.30-11.84 20.66-11.84C20.11-11.84 19.82-11.39 19.68-10.85C19.54-10.38 19.17-10.22 18.74-10.22C18.13-10.22 17.87-10.63 17.87-11.05C17.87-11.27 17.89-11.50 17.95-11.71C18.29-12.81 19.43-13.46 20.65-13.46C22.32-13.46 23.54-12.50 23.54-10.84C23.54-9.76 22.92-8.86 22.01-8.63L22.01-8.57C23.04-8.45 23.82-7.65 23.82-6.29C23.82-4.52 22.51-3.45 20.71-3.45ZM11.65-3.53C11.02-3.53 10.59-3.89 10.59-4.62L10.59-12.14C10.59-12.84 10.99-13.24 11.65-13.24L13.85-13.24C15.61-13.24 16.61-11.78 16.61-9.94C16.61-8.10 15.60-6.63 13.72-6.63L12.70-6.63L12.70-4.62C12.70-3.94 12.34-3.53 11.65-3.53ZM12.70-8.26L13.29-8.26C14.20-8.26 14.52-9 14.52-9.94C14.52-10.89 14.18-11.60 13.30-11.60L12.70-11.60Z" fill="currentColor"/>
</svg>