<svg xmlns="http://www.w3.org/2000/svg" viewBox="0 0 24 24" width="24" height="24">
  
  <path transform="matrix(0.6906688923771105, 0, 0, 0.6906688923771105, 1.1593278559357367, 17.74965452549365)" d="M4.34 4.51C6.50 6.68 9.05 6.70 11.19 4.57C12.55 3.22 13.97 0.16 15.04-1.24L17.37 1.10C18.46 2.21 19.84 2.21 20.91 1.14L22.49-0.46C23.37-1.34 23.52-2.38 22.96-3.34L27.62-7.99C29.09-9.46 29.05-11.23 27.55-12.74L18.32-21.98C16.80-23.50 14.37-22.84 13.86-20.64C12.95-16.71 12.76-15.69 11.88-14.27C11.02-14.64 10.09-14.43 9.29-13.63L7.71-12.06C6.63-10.97 6.63-9.63 7.76-8.52L10.08-6.18C8.68-5.12 5.63-3.69 4.28-2.34C2.14-0.20 2.17 2.34 4.34 4.51ZM19.85-9.28C20.40-8.72 23.32-10.27 24.73-11.67L25.55-10.84C25.95-10.45 25.93-10.07 25.58-9.71L21.16-5.27L13.95-12.50C15.18-14.47 15.41-15.98 16.30-19.17C16.39-19.56 16.71-19.66 16.98-19.39L22.39-13.99C22.04-12.23 21.06-10.91 19.88-9.73C19.72-9.59 19.75-9.39 19.85-9.28ZM10.05-10.38L10.90-11.21C11.10-11.40 11.31-11.41 11.51-11.21L20.06-2.66C20.25-2.47 20.25-2.25 20.05-2.05L19.23-1.22C19.02-1.01 18.80-1.01 18.60-1.21L15.76-4.05C15.21-4.62 14.45-4.57 13.82-3.96C12.89-3.06 11.33 0.73 9.46 2.59C8.47 3.57 7.30 3.57 6.28 2.57C5.29 1.56 5.27 0.36 6.25-0.61C8.13-2.47 11.92-4.04 12.82-4.96C13.42-5.60 13.46-6.36 12.91-6.91L10.05-9.77C9.86-9.96 9.86-10.18 10.05-10.38ZM7.85 2.32C8.58 2.32 9.15 1.73 9.15 1.02C9.15 0.30 8.58-0.28 7.85-0.28C7.14-0.28 6.55 0.30 6.55 1.02C6.55 1.73 7.14 2.32 7.85 2.32Z" fill="currentColor"/>
</svg>