<svg xmlns="http://www.w3.org/2000/svg" viewBox="0 0 24 24" width="24" height="24">
  
  <path transform="matrix(0.670069362648868, 0, 0, 0.670069362648868, 0.5944248135060857, 17.720455437769925)" d="M17.99 3.93C23.47 3.93 27.14 1.95 27.14-1.00C27.14-3.47 25.24-3.94 25.24-5.33C25.24-7.24 31.95-7.46 31.95-12.56C31.95-17.64 26.70-21 18.84-21C8.82-21 2.10-15.82 2.10-8.37C2.10-1.01 8.50 3.93 17.99 3.93ZM19.31-13.14C18.20-13.14 17.26-14.04 17.26-15.15C17.26-16.29 18.20-17.19 19.31-17.19C20.43-17.19 21.34-16.29 21.34-15.15C21.34-14.04 20.43-13.14 19.31-13.14ZM12.70-11.13C11.32-11.13 10.20-12.23 10.20-13.63C10.20-15.01 11.31-16.09 12.70-16.09C14.06-16.09 15.19-15.01 15.19-13.63C15.19-12.23 14.06-11.13 12.70-11.13ZM25.25-12.15C24.34-12.15 23.59-12.88 23.59-13.80C23.59-14.71 24.34-15.46 25.25-15.46C26.17-15.46 26.91-14.66 26.91-13.80C26.91-12.93 26.17-12.15 25.25-12.15ZM7.88-6.76C6.76-6.76 5.85-7.70 5.85-8.80C5.85-9.89 6.79-10.80 7.88-10.80C8.99-10.80 9.89-9.91 9.89-8.80C9.89-7.70 8.99-6.76 7.88-6.76ZM17.94-0.76C16.00-0.76 14.41-2.36 14.41-4.31C14.41-6.26 16.00-7.85 17.94-7.85C19.91-7.85 21.49-6.26 21.49-4.31C21.49-2.27 19.99-0.76 17.94-0.76Z" fill="currentColor"/>
</svg>