<svg xmlns="http://www.w3.org/2000/svg" viewBox="0 0 24 24" width="24" height="24">
  
  <path transform="matrix(0.6991316540653254, 0, 0, 0.6991316540653254, 1.1918802231233405, 17.915732591362286)" d="M22.64-3.39L27.16-7.90C28.61-9.34 28.57-11.07 27.09-12.57L26.33-13.36C25.13-11.82 21.67-9.95 21.02-10.59C20.92-10.70 20.91-10.91 21.06-11.06C22.43-12.43 23.43-13.86 23.64-16.04L17.63-22.05C16.28-23.41 14.11-22.78 13.48-20.51C12.66-17.51 12-15.69 11.53-14.50ZM4.20 4.34C6.16 6.33 8.75 6.34 10.70 4.39C11.99 3.11 13.25 0.35 14.24-1.31L16.78 1.24C17.81 2.26 19.07 2.29 20.04 1.28L21.01 0.30C22.02-0.73 22.00-1.91 20.96-2.94L11.48-12.42C10.45-13.45 9.23-13.48 8.23-12.47L7.27-11.51C6.26-10.51 6.27-9.27 7.29-8.24L9.84-5.71C8.19-4.72 5.44-3.46 4.15-2.16C2.19-0.21 2.21 2.38 4.20 4.34ZM7.52 2.45C6.79 2.45 6.18 1.85 6.18 1.11C6.18 0.38 6.79-0.23 7.52-0.23C8.26-0.23 8.86 0.38 8.86 1.11C8.86 1.85 8.26 2.45 7.52 2.45Z" fill="currentColor"/>
</svg>