<svg xmlns="http://www.w3.org/2000/svg" viewBox="0 0 24 24" width="24" height="24">
  
  <path transform="matrix(0.505080398540002, 0, 0, 0.505080398540002, 0.9405149452500741, 16.378886877404817)" d="M6.95-4.23C7.39-4.76 7.25-5.41 6.76-5.96C5.32-7.56 4.51-9.79 4.51-12.22C4.51-14.65 5.31-16.88 6.76-18.48C7.27-19.03 7.39-19.69 6.95-20.21C6.48-20.78 5.65-20.85 5.00-20.16C3.18-18.20 2.10-15.28 2.10-12.22C2.10-9.16 3.09-6.29 5.00-4.28C5.67-3.60 6.48-3.66 6.95-4.23ZM36.84-4.23C37.31-3.66 38.13-3.60 38.79-4.28C40.71-6.29 41.70-9.16 41.70-12.22C41.70-15.28 40.63-18.20 38.79-20.16C38.14-20.85 37.31-20.78 36.84-20.21C36.40-19.69 36.54-19.03 37.03-18.48C38.48-16.88 39.28-14.65 39.28-12.22C39.28-9.79 38.47-7.56 37.03-5.96C36.54-5.41 36.40-4.76 36.84-4.23ZM15.82 3.32C17.36 3.32 18.27 2.37 18.27 0.77L18.27-4.32L22.45-4.32C27.38-4.32 30.75-7.50 30.75-12.22C30.75-16.99 27.48-20.14 22.69-20.14L15.82-20.14C14.30-20.14 13.38-19.21 13.38-17.60L13.38 0.77C13.38 2.37 14.30 3.32 15.82 3.32ZM33.19-7.62C33.63-7.04 34.54-7.02 35.12-7.69C36.11-8.81 36.63-10.46 36.63-12.22C36.63-13.99 36.11-15.64 35.12-16.77C34.54-17.44 33.63-17.40 33.19-16.84C32.78-16.31 32.92-15.69 33.32-15.13C33.87-14.40 34.22-13.28 34.22-12.22C34.22-11.18 33.87-10.04 33.32-9.33C32.92-8.77 32.78-8.13 33.19-7.62ZM10.62-7.62C11.03-8.13 10.88-8.77 10.48-9.33C9.93-10.04 9.57-11.18 9.57-12.22C9.57-13.28 9.93-14.40 10.48-15.13C10.88-15.69 11.03-16.31 10.62-16.84C10.16-17.40 9.27-17.44 8.67-16.77C7.69-15.64 7.16-13.99 7.16-12.22C7.16-10.46 7.69-8.81 8.67-7.69C9.27-7.02 10.16-7.04 10.62-7.62ZM18.27-8.23L18.27-16.20L21.50-16.20C24.21-16.20 25.79-14.79 25.79-12.22C25.79-9.64 24.21-8.23 21.49-8.23Z" fill="currentColor"/>
</svg>