<svg xmlns="http://www.w3.org/2000/svg" viewBox="0 0 24 24" width="24" height="24">
  <title>party.popper</title>
  <path transform="matrix(0.6349354951402185, 0, 0, 0.6349354951402185, 0.10216606799613737, 17.580508694044397)" d="M14.37-20.77C15.25-20.77 15.95-21.47 15.95-22.34C15.95-23.21 15.25-23.93 14.37-23.93C13.48-23.93 12.79-23.21 12.79-22.34C12.79-21.47 13.48-20.77 14.37-20.77ZM21.83-18.89C23.21-18.89 24.32-20.00 24.32-21.39C24.32-22.78 23.21-23.87 21.83-23.87C20.44-23.87 19.34-22.78 19.34-21.39C19.34-20.00 20.44-18.89 21.83-18.89ZM31.63-20.57C32.36-20.57 32.94-21.16 32.94-21.90C32.94-22.63 32.36-23.24 31.63-23.24C30.88-23.24 30.29-22.63 30.29-21.90C30.29-21.16 30.88-20.57 31.63-20.57ZM27.97-19.98L25.79-17.80C25.37-17.36 25.37-16.65 25.79-16.22C26.23-15.79 26.94-15.79 27.38-16.21L29.55-18.39C29.98-18.82 29.98-19.54 29.55-19.98C29.10-20.40 28.39-20.39 27.97-19.98ZM22.68-0.68C24.43-1.41 24.62-3.05 24.04-4.88C25.48-4.90 26.91-4.77 28.35-4.50C28.97-4.35 29.53-4.95 29.53-5.58C29.53-6.19 29.04-6.57 28.48-6.70C26.66-7.04 24.86-7.16 23.04-7.07C22.46-8.05 21.76-9.01 21.05-9.83L25.00-13.77C25.38-14.18 25.43-14.89 25.00-15.33C24.56-15.79 23.84-15.74 23.43-15.34L19.48-11.41C18.64-12.15 17.70-12.88 16.71-13.46C16.80-15.25 16.68-17.03 16.35-18.82C16.22-19.38 15.84-19.86 15.23-19.86C14.61-19.86 14.00-19.32 14.14-18.68C14.41-17.29 14.54-15.88 14.54-14.47C12.79-15.02 11.20-14.78 10.37-12.96L3.27 2.80C2.24 5.11 4.22 7.05 6.47 6.11ZM19.61-15.02C20.36-15.02 20.94-15.62 20.94-16.37C20.94-17.09 20.36-17.70 19.61-17.70C18.88-17.70 18.28-17.10 18.28-16.37C18.28-15.62 18.88-15.02 19.61-15.02ZM27.63-9C28.83-9 29.80-9.94 29.80-11.13C29.80-12.33 28.84-13.30 27.63-13.30C26.44-13.30 25.50-12.33 25.50-11.13C25.50-9.94 26.44-9 27.63-9ZM32.91-9.48C33.77-9.48 34.49-10.17 34.49-11.06C34.49-11.94 33.77-12.64 32.91-12.64C32.00-12.64 31.31-11.94 31.31-11.06C31.31-10.17 32.02-9.48 32.91-9.48ZM12.66-12.23C12.93-12.52 13.55-12.47 14.39-12.09C14.33-11.55 14.25-11.00 14.14-10.45C14.00-9.81 14.60-9.29 15.22-9.28C15.80-9.28 16.22-9.71 16.35-10.32C16.37-10.50 16.41-10.69 16.44-10.86C16.88-10.54 17.32-10.16 17.80-9.74L17.31-9.25C16.88-8.81 16.89-8.10 17.31-7.66C17.74-7.24 18.46-7.23 18.89-7.66L19.38-8.16C19.82-7.69 20.19-7.23 20.52-6.80C20.34-6.76 20.17-6.73 19.98-6.70C19.38-6.56 18.95-6.14 18.95-5.58C18.95-4.96 19.48-4.36 20.11-4.48C20.67-4.58 21.22-4.68 21.79-4.73C22.17-3.86 22.22-3.21 21.94-2.94C21.30-2.29 18.80-3.35 15.94-6.22C13.07-9.09 12-11.60 12.66-12.23ZM5.64 3.27L11.10-8.85C11.77-7.44 12.88-5.93 14.26-4.55C15.60-3.20 17.07-2.12 18.43-1.45L6.04 3.69C5.72 3.83 5.47 3.62 5.64 3.27ZM32.26-3.34C33.13-3.34 33.83-4.04 33.83-4.92C33.83-5.80 33.13-6.50 32.26-6.50C31.38-6.50 30.68-5.80 30.68-4.92C30.68-4.04 31.38-3.34 32.26-3.34Z" fill="currentColor"/>
</svg>