<svg xmlns="http://www.w3.org/2000/svg" viewBox="0 0 24 24" width="24" height="24">
  
  <path transform="matrix(0.8080808080808081, 0, 0, 0.8080808080808081, 0.30492424242424243, 18.83712121212121)" d="M14.47 3.91C21.30 3.91 26.85-1.63 26.85-8.46C26.85-15.29 21.30-20.84 14.47-20.84C7.64-20.84 2.10-15.29 2.10-8.46C2.10-1.63 7.64 3.91 14.47 3.91ZM11.10-12.69C11.10-13.86 11.75-14.79 12.59-14.79C13.41-14.79 14.07-13.86 14.07-12.69C14.07-11.52 13.41-10.58 12.59-10.58C11.75-10.58 11.10-11.52 11.10-12.69ZM14.87-12.69C14.87-13.86 15.53-14.79 16.36-14.79C17.19-14.79 17.84-13.86 17.84-12.69C17.84-11.52 17.18-10.58 16.36-10.58C15.53-10.58 14.87-11.52 14.87-12.69ZM8.26-9.32C8.26-10.49 8.93-11.41 9.75-11.41C10.57-11.41 11.24-10.49 11.24-9.32C11.24-8.13 10.57-7.21 9.75-7.21C8.93-7.21 8.26-8.13 8.26-9.32ZM17.71-9.32C17.71-10.49 18.36-11.41 19.20-11.41C20.02-11.41 20.67-10.49 20.67-9.32C20.67-8.13 20.02-7.21 19.20-7.21C18.36-7.21 17.71-8.13 17.71-9.32ZM10.09-4.86C10.09-5.88 10.70-6.40 11.26-6.86C11.57-7.10 11.87-7.34 12.07-7.66C12.23-7.90 12.36-8.16 12.50-8.44C12.90-9.32 13.24-10.18 14.47-10.18C15.69-10.18 16.03-9.32 16.44-8.44C16.58-8.16 16.71-7.89 16.86-7.65C17.07-7.34 17.38-7.10 17.67-6.86C18.23-6.40 18.84-5.88 18.84-4.86C18.84-3.64 18.04-2.77 16.83-2.77C16.24-2.77 15.82-2.92 15.43-3.06C15.12-3.16 14.82-3.26 14.47-3.26C14.11-3.26 13.82-3.16 13.51-3.06C13.11-2.92 12.69-2.77 12.11-2.77C10.91-2.77 10.09-3.64 10.09-4.86Z" fill="currentColor"/>
</svg>