<svg xmlns="http://www.w3.org/2000/svg" viewBox="0 0 24 24" width="24" height="24">
  <title>pedal.clutch.fill</title>
  <path transform="matrix(0.7639089406307619, 0, 0, 0.7639089406307619, 1.6491070424018504, 18.454985072385373)" d="M8.98 4.64L20.03 4.64C22.57 4.64 24.09 3.13 24.09 0.59L24.11-15.80C24.11-18.20 22.65-19.88 20.09-20.50C17.25-21.18 14.34-21.50 11.24-21.54C6.64-21.60 4.04-19.88 3.50-15.89C2.86-11.07 2.82-4.50 3.41-0.14C3.80 2.78 5.94 4.64 8.98 4.64ZM8.82-10.85C8.27-10.85 7.84-11.30 7.84-11.85C7.84-12.41 8.27-12.84 8.82-12.84L18.54-12.84C19.10-12.84 19.55-12.41 19.55-11.85C19.55-11.30 19.10-10.85 18.54-10.85ZM8.82-6.62C8.27-6.62 7.84-7.07 7.84-7.61C7.84-8.17 8.27-8.60 8.82-8.60L18.54-8.60C19.10-8.60 19.55-8.17 19.55-7.61C19.55-7.07 19.10-6.62 18.54-6.62ZM8.82-2.38C8.27-2.38 7.84-2.81 7.84-3.38C7.84-3.93 8.27-4.37 8.82-4.37L18.54-4.37C19.10-4.37 19.55-3.93 19.55-3.38C19.55-2.81 19.10-2.38 18.54-2.38Z" fill="currentColor"/>
</svg>