<svg xmlns="http://www.w3.org/2000/svg" viewBox="0 0 24 24" width="24" height="24">
  
  <path transform="matrix(0.7993096993468065, 0, 0, 0.7993096993468065, -0.15274342525621787, 18.737657290586085)" d="M21.66-14.31L23.07-15.71C23.77-16.41 23.80-17.19 23.16-17.85L22.59-18.41C21.95-19.05 21.14-19.00 20.46-18.32L19.04-16.92ZM6.53 0.81L20.37-13.04L17.77-15.66L3.93-1.79L2.73 1.21C2.55 1.68 3.04 2.13 3.47 1.97ZM8.09 1.92L26.20 1.92C27.04 1.92 27.71 1.24 27.71 0.41C27.71-0.42 27.04-1.10 26.20-1.10L11.12-1.10Z" fill="currentColor"/>
</svg>