<svg xmlns="http://www.w3.org/2000/svg" viewBox="0 0 24 24" width="24" height="24">
  
  <path transform="matrix(0.47210696173351774, 0, 0, 0.47210696173351774, 0.5892116182572615, 15.994467496542185)" d="M11.98-8.37C14.58-8.37 16.68-10.63 16.68-13.44C16.68-16.21 14.57-18.43 11.98-18.43C9.39-18.43 7.28-16.18 7.28-13.44C7.28-10.63 9.36-8.37 11.98-8.37ZM36.38-8.34C38.98-8.34 41.07-10.61 41.07-13.42C41.07-16.17 38.96-18.40 36.38-18.40C33.79-18.40 31.68-16.15 31.68-13.41C31.68-10.59 33.76-8.34 36.38-8.34ZM11.98-10.71C10.71-10.71 9.67-11.82 9.67-13.44C9.67-14.99 10.72-16.09 11.98-16.09C13.23-16.09 14.29-15 14.29-13.44C14.29-11.84 13.25-10.71 11.98-10.71ZM36.38-10.68C35.11-10.68 34.07-11.79 34.07-13.42C34.07-14.95 35.12-16.07 36.38-16.07C37.63-16.07 38.68-14.96 38.68-13.42C38.68-11.81 37.65-10.68 36.38-10.68ZM19.93-8.12C20.63-8.12 21.20-8.70 21.20-9.40C21.20-10.09 20.63-10.66 19.93-10.66C19.23-10.66 18.66-10.09 18.66-9.40C18.66-8.70 19.23-8.12 19.93-8.12ZM24.16-8.12C24.87-8.12 25.44-8.70 25.44-9.40C25.44-10.09 24.87-10.66 24.16-10.66C23.47-10.66 22.90-10.09 22.90-9.40C22.90-8.70 23.47-8.12 24.16-8.12ZM28.39-8.12C29.10-8.12 29.67-8.70 29.67-9.40C29.67-10.09 29.10-10.66 28.39-10.66C27.70-10.66 27.13-10.09 27.13-9.40C27.13-8.70 27.70-8.12 28.39-8.12ZM5.88 1.48L18.06 1.48C19.98 1.48 20.95 0.81 20.95-0.59C20.95-3.68 17.38-7.30 11.96-7.30C6.56-7.30 2.99-3.68 2.99-0.59C2.99 0.81 3.96 1.48 5.88 1.48ZM30.28 1.51L42.46 1.51C44.37 1.51 45.35 0.84 45.35-0.56C45.35-3.64 41.78-7.27 36.36-7.27C30.96-7.27 27.39-3.64 27.39-0.56C27.39 0.84 28.36 1.51 30.28 1.51ZM5.84-0.86C5.68-0.86 5.64-0.95 5.64-1.04C5.64-2.37 7.82-4.96 11.96-4.96C16.13-4.96 18.30-2.37 18.30-1.04C18.30-0.95 18.26-0.86 18.11-0.86ZM30.23-0.83C30.08-0.83 30.04-0.91 30.04-1.02C30.04-2.33 32.21-4.92 36.36-4.92C40.51-4.92 42.70-2.33 42.70-1.02C42.70-0.91 42.64-0.83 42.50-0.83Z" fill="currentColor"/>
</svg>