<svg xmlns="http://www.w3.org/2000/svg" viewBox="0 0 24 24" width="24" height="24">
  
  <path transform="matrix(0.6963144294845641, 0, 0, 0.6963144294845641, -0.08078335373317014, 17.895552835577316)" d="M12.96-8.77C15.60-8.77 17.75-11.07 17.75-14.02C17.75-16.88 15.57-19.16 12.96-19.16C10.35-19.16 8.17-16.85 8.17-14.00C8.17-11.07 10.32-8.77 12.96-8.77ZM25.18-7.92C25.66-7.92 26.09-8.17 26.37-8.59L31.41-16.36C31.59-16.64 31.71-16.95 31.71-17.23C31.71-17.91 31.10-18.39 30.45-18.39C30.01-18.39 29.65-18.16 29.36-17.68L25.15-10.91L23.20-13.31C22.91-13.68 22.59-13.83 22.20-13.83C21.52-13.83 20.96-13.29 20.96-12.61C20.96-12.28 21.08-12 21.33-11.70L23.94-8.57C24.29-8.14 24.68-7.92 25.18-7.92ZM5.27 2.23L20.65 2.23C22.08 2.23 22.93 1.54 22.93 0.39C22.93-2.61 19.03-6.71 12.96-6.71C6.88-6.71 2.99-2.61 2.99 0.39C2.99 1.54 3.84 2.23 5.27 2.23Z" fill="currentColor"/>
</svg>