<svg xmlns="http://www.w3.org/2000/svg" viewBox="0 0 24 24" width="24" height="24">
  
  <path transform="matrix(0.6194797338173019, 0, 0, 0.6194797338173019, 0.14882032667876577, 16.55714816352485)" d="M32.72 5.88C33.11 6.27 33.74 6.26 34.11 5.87C34.48 5.48 34.50 4.88 34.11 4.48L9.04-20.59C8.65-20.98 8.02-20.98 7.63-20.59C7.25-20.21 7.25-19.57 7.63-19.20ZM25.30-8.74C27.94-8.74 30.11-11.05 30.11-13.99C30.11-16.85 27.93-19.14 25.30-19.14C22.69-19.14 20.51-16.83 20.51-13.98C20.51-11.05 22.66-8.74 25.30-8.74ZM11.67-8.47C12.86-8.47 13.93-9.02 14.70-9.90L8.58-16.03C7.91-15.25 7.49-14.19 7.49-13.04C7.49-10.50 9.38-8.47 11.67-8.47ZM5.32 2.25L13.91 2.25C12.61 0.42 13.78-3.09 16.61-5.37C15.35-6.14 13.66-6.71 11.67-6.71C6.52-6.71 2.99-2.92 2.99 0.15C2.99 1.48 3.59 2.25 5.32 2.25ZM35.27 0.41C35.27-2.54 31.43-6.69 25.56-6.69C25.43-6.69 25.31-6.68 25.21-6.64L33.83 1.99L34.17 1.99C34.96 1.71 35.27 1.17 35.27 0.41ZM18.09 2.25L26.86 2.25L19.41-5.19C16.83-3.74 15.33-1.45 15.33 0.41C15.33 1.57 16.02 2.25 18.09 2.25Z" fill="currentColor"/>
</svg>