<svg xmlns="http://www.w3.org/2000/svg" viewBox="0 0 24 24" width="24" height="24">
  
  <path transform="matrix(0.7178676512611945, 0, 0, 0.7178676512611945, 0.6557281907142114, 18.020882042423302)" d="M19.05-22.17C18.66-22.51 18.13-22.21 18.27-21.76C18.32-21.63 18.34-21.56 18.34-21.48C18.34-20.86 17.19-20.34 15.81-20.34C14.41-20.34 13.27-20.86 13.27-21.48C13.27-21.56 13.29-21.63 13.34-21.76C13.48-22.21 12.95-22.51 12.56-22.17C12.28-21.93 12.11-21.56 12.11-21.15C12.11-19.93 13.61-19.04 15.81-19.04C18-19.04 19.50-19.93 19.50-21.15C19.50-21.56 19.32-21.93 19.05-22.17ZM20.92-20.94C20.51-21.09 20.13-20.71 20.26-20.34C20.32-20.14 20.38-20.02 20.38-19.75C20.38-18.56 18.28-17.66 15.81-17.66C13.32-17.66 11.23-18.56 11.23-19.75C11.23-20.02 11.29-20.14 11.34-20.34C11.47-20.71 11.10-21.09 10.69-20.94C10.15-20.72 9.76-20.12 9.76-19.44C9.76-17.33 12.26-16.02 15.81-16.02C19.35-16.02 21.84-17.33 21.84-19.44C21.84-20.12 21.46-20.72 20.92-20.94ZM27.23-4.07C27.39-4.48 27-4.86 26.64-4.72C26.45-4.65 26.32-4.61 26.04-4.61C24.86-4.61 23.96-6.70 23.96-9.18C23.96-11.66 24.86-13.76 26.04-13.76C26.32-13.76 26.45-13.70 26.64-13.64C27-13.50 27.39-13.89 27.23-14.30C27.01-14.84 26.41-15.21 25.73-15.21C23.64-15.21 22.31-12.73 22.31-9.18C22.31-5.64 23.64-3.14 25.73-3.14C26.41-3.14 27.01-3.53 27.23-4.07ZM4.37-4.05C4.59-3.52 5.19-3.13 5.87-3.13C7.97-3.13 9.29-5.63 9.29-9.18C9.29-12.73 7.97-15.21 5.87-15.21C5.19-15.21 4.59-14.82 4.37-14.29C4.22-13.88 4.61-13.50 4.97-13.64C5.16-13.69 5.29-13.75 5.57-13.75C6.75-13.75 7.65-11.65 7.65-9.18C7.65-6.70 6.75-4.61 5.57-4.61C5.29-4.61 5.16-4.65 4.97-4.71C4.61-4.85 4.22-4.46 4.37-4.05ZM15.81-4.42C18.19-4.42 20.16-6.53 20.16-9.19C20.16-11.79 18.18-13.85 15.81-13.85C13.43-13.85 11.45-11.77 11.45-9.18C11.45-6.53 13.42-4.42 15.81-4.42ZM28.48-5.94C28.82-6.33 28.50-6.86 28.05-6.71C27.94-6.67 27.86-6.64 27.77-6.64C27.16-6.64 26.65-7.79 26.65-9.18C26.65-10.57 27.16-11.71 27.77-11.71C27.86-11.71 27.94-11.70 28.05-11.65C28.50-11.51 28.82-12.02 28.48-12.42C28.23-12.70 27.87-12.88 27.46-12.88C26.24-12.88 25.35-11.39 25.35-9.18C25.35-6.98 26.24-5.47 27.46-5.47C27.87-5.47 28.23-5.66 28.48-5.94ZM3.13-5.93C3.38-5.66 3.75-5.47 4.15-5.47C5.37-5.47 6.26-6.98 6.26-9.18C6.26-11.38 5.37-12.88 4.15-12.88C3.75-12.88 3.38-12.69 3.13-12.42C2.79-12.02 3.11-11.50 3.55-11.65C3.67-11.68 3.75-11.71 3.83-11.71C4.44-11.71 4.96-10.56 4.96-9.18C4.96-7.78 4.44-6.64 3.83-6.64C3.75-6.64 3.67-6.66 3.55-6.70C3.11-6.84 2.79-6.33 3.13-5.93ZM8.82 5.54L22.78 5.54C24.07 5.54 24.84 4.91 24.84 3.88C24.84 1.16 21.30-2.57 15.80-2.57C10.29-2.57 6.76 1.16 6.76 3.88C6.76 4.91 7.54 5.54 8.82 5.54Z" fill="currentColor"/>
</svg>