<svg xmlns="http://www.w3.org/2000/svg" viewBox="0 0 24 24" width="24" height="24">
  <title>person.2.fill</title>
  <path transform="matrix(0.6194797338173019, 0, 0, 0.6194797338173019, 0.14882032667876577, 17.245009074410163)" d="M25.30-8.77C27.94-8.77 30.11-11.07 30.11-14.02C30.11-16.88 27.93-19.16 25.30-19.16C22.69-19.16 20.51-16.85 20.51-14.00C20.51-11.07 22.66-8.77 25.30-8.77ZM11.67-8.51C13.97-8.51 15.84-10.52 15.84-13.08C15.84-15.57 13.95-17.55 11.67-17.55C9.40-17.55 7.49-15.55 7.49-13.07C7.49-10.52 9.38-8.51 11.67-8.51ZM5.32 2.23L13.91 2.23C12.61 0.40 13.78-3.12 16.61-5.39C15.35-6.16 13.66-6.74 11.67-6.74C6.52-6.74 2.99-2.94 2.99 0.13C2.99 1.45 3.59 2.23 5.32 2.23ZM18.09 2.23L32.51 2.23C34.58 2.23 35.27 1.55 35.27 0.39C35.27-2.61 31.38-6.71 25.30-6.71C19.23-6.71 15.33-2.61 15.33 0.39C15.33 1.55 16.02 2.23 18.09 2.23Z" fill="currentColor"/>
</svg>