<svg xmlns="http://www.w3.org/2000/svg" viewBox="0 0 24 24" width="24" height="24">
  
  <path transform="matrix(0.7754051188853551, 0, 0, 0.7754051188853551, 1.6274420717855524, 18.556110858700592)" d="M2.99 3.32C2.99 4.00 3.43 4.44 4.11 4.44L22.64 4.44C23.32 4.44 23.77 4.00 23.77 3.32L23.77-20.21C23.77-20.89 23.32-21.35 22.64-21.35L4.11-21.35C3.43-21.35 2.99-20.89 2.99-20.21ZM5.87 1.23L5.87-18.14C5.87-18.35 5.98-18.46 6.20-18.46L20.55-18.46C20.78-18.46 20.88-18.35 20.88-18.14L20.88 1.23C20.88 1.45 20.78 1.56 20.55 1.56L6.20 1.56C5.98 1.56 5.87 1.45 5.87 1.23ZM6.97-0.07C6.97 0.28 7.15 0.47 7.48 0.47L19.28 0.47C19.61 0.47 19.79 0.28 19.79-0.07L19.79-16.84C19.79-17.19 19.61-17.37 19.28-17.37L7.48-17.37C7.15-17.37 6.97-17.19 6.97-16.84ZM13.37-5.67C10.85-5.67 9.20-4.43 8.31-3.20L8.31-15.81C8.31-15.95 8.39-16.02 8.52-16.02L18.23-16.02C18.38-16.02 18.45-15.95 18.45-15.81L18.45-3.18C17.55-4.43 15.90-5.67 13.37-5.67ZM13.37-6.55C15.01-6.54 16.34-7.93 16.34-9.79C16.34-11.52 15.01-12.95 13.37-12.95C11.73-12.95 10.41-11.52 10.41-9.79C10.41-7.93 11.73-6.55 13.37-6.55Z" fill="currentColor"/>
</svg>