<svg xmlns="http://www.w3.org/2000/svg" viewBox="0 0 24 24" width="24" height="24">
  <title>peruviansolessign.gauge.chart.lefthalf.righthalf</title>
  <path transform="matrix(0.6829398426037081, 0, 0, 0.6829398426037081, 0.5674269707883155, 17.795235653186992)" d="M2.10-6.06C2.10-2.45 3.40 0.84 5.55 3.40C5.85 3.75 6.33 3.75 6.66 3.42L9.54 0.53C9.80 0.28 9.80-0.08 9.57-0.36C8.31-1.97 7.58-3.93 7.58-6.06C7.58-10.70 11.04-14.53 15.50-15.14C15.89-15.19 16.16-15.48 16.16-15.86L16.16-19.88C16.16-20.34 15.81-20.68 15.34-20.64C7.92-19.93 2.10-13.68 2.10-6.06ZM31.38-6.06C31.38-13.68 25.57-19.93 18.14-20.64C17.68-20.68 17.32-20.34 17.32-19.88L17.32-15.86C17.32-15.48 17.60-15.19 17.98-15.14C22.45-14.53 25.90-10.70 25.90-6.06C25.90-3.93 25.18-1.97 23.91-0.36C23.68-0.07 23.68 0.28 23.94 0.54L26.82 3.42C27.15 3.76 27.63 3.75 27.93 3.40C30.09 0.84 31.38-2.46 31.38-6.06ZM17.91 0.01C18.35 0.01 18.60-0.27 18.67-0.75L20.12-9.89C20.13-10.00 20.14-10.09 20.14-10.21C20.14-10.65 19.90-10.97 19.42-10.97C18.97-10.97 18.73-10.69 18.66-10.20L17.20-1.05C17.19-0.96 17.18-0.86 17.18-0.75C17.18-0.29 17.43 0.01 17.91 0.01ZM13.88-1.97C15.70-1.97 16.76-2.99 16.76-4.58C16.76-6 15.97-6.60 14.78-7.03L14.05-7.29C13.38-7.54 12.86-7.84 12.86-8.55C12.86-9.12 13.23-9.55 13.85-9.55C14.46-9.55 14.82-9.20 14.99-8.63C15.14-8.24 15.39-8.09 15.79-8.09C16.28-8.09 16.54-8.40 16.54-8.80C16.54-8.96 16.50-9.13 16.45-9.25C16.08-10.38 15.06-10.95 13.85-10.95C12.21-10.95 11.13-9.95 11.13-8.43C11.13-7.13 11.86-6.39 13.13-5.94L13.77-5.71C14.54-5.44 15.02-5.12 15.02-4.42C15.02-3.81 14.59-3.38 13.90-3.38C13.28-3.38 12.86-3.69 12.67-4.30C12.52-4.69 12.26-4.86 11.86-4.86C11.39-4.86 11.10-4.54 11.10-4.10C11.10-3.91 11.16-3.68 11.24-3.50C11.65-2.50 12.66-1.97 13.88-1.97ZM21.73-2.06C22.28-2.06 22.70-2.48 22.70-3.02C22.70-3.56 22.28-3.98 21.73-3.98C21.19-3.98 20.77-3.56 20.77-3.02C20.77-2.48 21.19-2.06 21.73-2.06Z" fill="currentColor"/>
</svg>