<svg xmlns="http://www.w3.org/2000/svg" viewBox="0 0 24 24" width="24" height="24">
  
  <path transform="matrix(0.9408305769937523, 0, 0, 0.9408305769937523, 0.14773980154354982, 19.971334068357223)" d="M7.21 2.16C8.48 2.16 9.25 1.38 9.25 0.09L9.25-4.10L13.01-4.10C16.59-4.10 19.14-6.18 20.00-9.22L21.49-9.22C21.90-9.22 22.21-9.52 22.21-9.91C22.21-10.31 21.90-10.61 21.49-10.61L20.29-10.61C20.32-10.96 20.34-11.32 20.34-11.68C20.34-12.01 20.33-12.32 20.30-12.63L21.49-12.63C21.90-12.63 22.21-12.93 22.21-13.32C22.21-13.72 21.90-14.02 21.49-14.02L20.04-14.02C19.20-17.05 16.69-19.10 13.22-19.10L7.31-19.10C5.99-19.10 5.17-18.34 5.17-16.93L5.17-14.02L3.69-14.02C3.29-14.02 2.99-13.72 2.99-13.32C2.99-12.93 3.29-12.63 3.69-12.63L5.17-12.63L5.17-10.61L3.69-10.61C3.29-10.61 2.99-10.31 2.99-9.91C2.99-9.52 3.29-9.22 3.69-9.22L5.17-9.22L5.17 0.09C5.17 1.38 5.94 2.16 7.21 2.16ZM9.25-16.02L12.15-16.02C13.88-16.02 15.09-15.27 15.73-14.02L9.25-14.02ZM16.24-11.67C16.24-11.30 16.21-10.95 16.16-10.61L9.25-10.61L9.25-12.63L16.16-12.63C16.21-12.33 16.23-12.01 16.24-11.67ZM9.25-7.15L9.25-9.22L15.73-9.22C15.09-7.93 13.88-7.15 12.13-7.15Z" fill="currentColor"/>
</svg>