<svg xmlns="http://www.w3.org/2000/svg" viewBox="0 0 24 24" width="24" height="24">
  
  <path transform="matrix(0.8080808080808081, 0, 0, 0.8080808080808081, 0.30492424242424243, 18.83712121212121)" d="M14.47 3.91C21.30 3.91 26.85-1.63 26.85-8.46C26.85-15.29 21.30-20.84 14.47-20.84C7.64-20.84 2.10-15.29 2.10-8.46C2.10-1.63 7.64 3.91 14.47 3.91ZM14.47 0.83C9.34 0.83 5.18-3.33 5.18-8.46C5.18-13.61 9.34-17.75 14.47-17.75C19.62-17.75 23.77-13.61 23.77-8.46C23.77-3.33 19.62 0.83 14.47 0.83ZM9.84-3.73L19.10-3.73C20.29-3.73 20.92-4.35 20.92-5.53L20.92-9.18C20.92-11.32 19.68-12.56 17.55-12.56L17.37-12.56L17.37-12.97C17.37-14.04 16.68-14.59 15.53-14.59L13.42-14.59C12.28-14.59 11.57-14.04 11.57-12.97L11.57-12.56L11.38-12.56C9.27-12.56 8.02-11.32 8.02-9.18L8.02-5.53C8.02-4.35 8.66-3.73 9.84-3.73ZM12.76-12.56L12.76-12.89C12.76-13.28 13.00-13.52 13.41-13.52L15.55-13.52C15.95-13.52 16.18-13.28 16.18-12.89L16.18-12.56ZM13.07-9.79C13.07-10.27 13.34-10.65 13.68-10.65C14.03-10.65 14.30-10.27 14.30-9.79C14.30-9.30 14.03-8.91 13.68-8.91C13.34-8.91 13.07-9.30 13.07-9.79ZM14.64-9.79C14.64-10.27 14.92-10.65 15.26-10.65C15.61-10.65 15.88-10.27 15.88-9.79C15.88-9.30 15.61-8.91 15.26-8.91C14.92-8.91 14.64-9.30 14.64-9.79ZM11.88-8.37C11.88-8.86 12.15-9.26 12.49-9.26C12.83-9.26 13.11-8.86 13.11-8.37C13.11-7.88 12.83-7.49 12.49-7.49C12.15-7.49 11.88-7.88 11.88-8.37ZM15.83-8.37C15.83-8.86 16.11-9.26 16.45-9.26C16.79-9.26 17.06-8.86 17.06-8.37C17.06-7.88 16.79-7.49 16.45-7.49C16.11-7.49 15.83-7.88 15.83-8.37ZM12.63-6.50C12.63-6.93 12.90-7.14 13.13-7.34C13.27-7.44 13.38-7.54 13.46-7.68C13.54-7.77 13.59-7.88 13.65-8.00C13.83-8.37 13.96-8.73 14.47-8.73C14.99-8.73 15.12-8.37 15.30-8.00C15.35-7.88 15.40-7.77 15.48-7.66C15.56-7.54 15.68-7.44 15.81-7.34C16.04-7.14 16.31-6.93 16.31-6.50C16.31-5.99 15.95-5.63 15.46-5.63C15.22-5.63 15.05-5.70 14.88-5.74C14.74-5.79 14.63-5.82 14.47-5.82C14.31-5.82 14.20-5.79 14.06-5.74C13.90-5.70 13.72-5.63 13.48-5.63C12.98-5.63 12.63-5.99 12.63-6.50Z" fill="currentColor"/>
</svg>