<svg xmlns="http://www.w3.org/2000/svg" viewBox="0 0 24 24" width="24" height="24">
  
  <path transform="matrix(0.86941755815928, 0, 0, 0.86941755815928, -0.3433520122261844, 19.356087620988284)" d="M8.98-3.38C12.59 0.23 16.90 2.99 20.37 2.99C22.01 2.99 23.43 2.33 24.36 1.29C25.25 0.29 25.63-0.49 25.63-1.15C25.63-1.69 25.30-2.16 24.50-2.72L21.50-4.86C20.77-5.39 20.43-5.48 19.99-5.48C19.61-5.48 19.29-5.43 18.64-5.07L16.71-4.01C16.48-3.88 16.37-3.86 16.20-3.86C15.97-3.86 15.82-3.91 15.59-4.02C14.65-4.44 13.34-5.47 12.18-6.62C11.02-7.79 10.14-8.94 9.64-9.91C9.59-10.03 9.52-10.21 9.52-10.42C9.52-10.57 9.59-10.73 9.69-10.90L10.82-12.86C11.12-13.38 11.23-13.68 11.23-14.10C11.23-14.58 11.06-15.09 10.59-15.74L8.54-18.61C7.96-19.44 7.44-19.91 6.77-19.91C5.96-19.91 4.97-19.28 4.25-18.60C3.23-17.61 2.70-16.23 2.70-14.70C2.70-11.19 5.38-6.96 8.98-3.38ZM24.89-10.73C24.88-11.43 24.39-11.93 23.73-11.92L22.08-11.93L19.58-11.68L21.08-13.04L25.30-17.27C25.56-17.54 25.70-17.86 25.70-18.22C25.69-18.88 25.17-19.39 24.45-19.38C24.11-19.39 23.80-19.27 23.55-19.02L19.34-14.81L17.92-13.30L18.20-15.79L18.21-17.37C18.20-18.02 17.70-18.53 17.00-18.54C16.34-18.55 15.79-18.05 15.79-17.39L15.79-11.09C15.79-10.07 16.35-9.50 17.37-9.50L23.74-9.50C24.40-9.50 24.90-10.05 24.89-10.73Z" fill="currentColor"/>
</svg>