<svg xmlns="http://www.w3.org/2000/svg" viewBox="0 0 24 24" width="24" height="24">
  <title>pin.square</title>
  <path transform="matrix(0.8926080892608089, 0, 0, 0.8926080892608089, -0.6673640167364017, 19.552301255230127)" d="M7.13 2.74L21.26 2.74C23.94 2.74 25.39 1.29 25.39-1.36L25.39-15.55C25.39-18.20 23.94-19.66 21.26-19.66L7.13-19.66C4.45-19.66 2.99-18.21 2.99-15.55L2.99-1.36C2.99 1.29 4.45 2.74 7.13 2.74ZM7.45-0.28C6.52-0.28 6.01-0.74 6.01-1.73L6.01-15.18C6.01-16.17 6.52-16.64 7.45-16.64L20.93-16.64C21.87-16.64 22.37-16.17 22.37-15.18L22.37-1.73C22.37-0.74 21.87-0.28 20.93-0.28ZM9.62-6.39C9.62-5.82 10.00-5.47 10.55-5.47L13.32-5.47L13.32-3.48C13.32-2.53 13.95-1.24 14.20-1.24C14.46-1.24 15.08-2.53 15.08-3.48L15.08-5.47L17.86-5.47C18.42-5.47 18.79-5.82 18.79-6.39C18.79-7.59 17.68-8.79 16.14-9.38L15.95-11.98C16.79-12.46 17.43-12.96 17.71-13.31C17.86-13.52 17.95-13.75 17.95-13.95C17.95-14.34 17.64-14.64 17.19-14.64L11.21-14.64C10.78-14.64 10.46-14.34 10.46-13.95C10.46-13.75 10.55-13.51 10.71-13.31C11.00-12.96 11.63-12.45 12.46-11.98L12.27-9.38C10.72-8.79 9.62-7.59 9.62-6.39Z" fill="currentColor"/>
</svg>