<svg xmlns="http://www.w3.org/2000/svg" viewBox="0 0 24 24" width="24" height="24">
  
  <path transform="matrix(0.6684945815380599, 0, 0, 0.6684945815380599, 0.00235017626321965, 17.656090873482178)" d="M5.45-6.81L7.63-6.81C9.25-6.81 10.09-7.63 10.09-9.20L10.09-9.80L13.72-9.80L15.02-12.25C15.64-13.42 16.69-14.06 17.95-14.06C19.21-14.06 20.24-13.42 20.87-12.23L22.20-9.80L25.79-9.80L25.79-9.20C25.79-7.63 26.65-6.81 28.27-6.81L30.43-6.81C32.05-6.81 32.91-7.63 32.91-9.20L32.91-17.77C32.91-19.34 32.05-20.16 30.43-20.16L28.27-20.16C26.65-20.16 25.79-19.34 25.79-17.77L25.79-17.19L10.09-17.19L10.09-17.77C10.09-19.34 9.25-20.16 7.63-20.16L5.45-20.16C3.83-20.16 2.99-19.34 2.99-17.77L2.99-9.20C2.99-7.63 3.83-6.81 5.45-6.81ZM17.95 3.23C20.99 3.23 23.40 0.86 23.40-2.10C23.40-3.73 22.59-5.30 21.95-6.52L19.32-11.40C19.00-12 18.55-12.30 17.95-12.30C17.34-12.30 16.90-11.99 16.58-11.40L13.97-6.52C13.31-5.30 12.50-3.73 12.50-2.10C12.50 0.86 14.93 3.23 17.95 3.23Z" fill="currentColor"/>
</svg>