<svg xmlns="http://www.w3.org/2000/svg" viewBox="0 0 24 24" width="24" height="24">
  <title>platter.2.filled.ipad.landscape</title>
  <path transform="matrix(0.7006020799124247, 0, 0, 0.7006020799124247, -0.09359605911330027, 17.919540229885058)" d="M7.14 2.75L27.40 2.75C30.08 2.75 31.54 1.29 31.54-1.36L31.54-15.54C31.54-18.20 30.08-19.65 27.40-19.65L7.13-19.65C4.45-19.65 2.99-18.20 2.99-15.54L2.99-1.36C2.99 1.30 4.46 2.75 7.14 2.75ZM7.46-0.27C6.52-0.27 6.02-0.73 6.02-1.72L6.02-15.16C6.02-16.16 6.52-16.63 7.45-16.63L27.07-16.63C28.01-16.63 28.51-16.16 28.51-15.16L28.51-1.72C28.51-0.73 28.01-0.27 27.07-0.27ZM9.39-5.68L15.20-5.68C15.82-5.68 16.24-6.11 16.24-6.75L16.24-10.15C16.24-10.79 15.82-11.20 15.20-11.20L9.39-11.20C8.77-11.20 8.34-10.79 8.34-10.15L8.34-6.75C8.34-6.11 8.77-5.68 9.39-5.68ZM19.24-5.68L25.07-5.68C25.69-5.68 26.10-6.11 26.10-6.75L26.10-10.15C26.10-10.79 25.69-11.20 25.07-11.20L19.24-11.20C18.62-11.20 18.21-10.79 18.21-10.15L18.21-6.75C18.21-6.11 18.62-5.68 19.24-5.68Z" fill="currentColor"/>
</svg>