<svg xmlns="http://www.w3.org/2000/svg" viewBox="0 0 24 24" width="24" height="24">
  <title>point.topright.arrow.triangle.backward.to.point.bottomleft.filled.scurvepath</title>
  <path transform="matrix(0.7125956854558108, 0, 0, 0.7125956854558108, 1.753653444676408, 18.025052192066806)" d="M18.67 4.08L18.67 2.68L19.04 2.68C23.02 2.68 25.77 0.42 25.77-3.16C25.77-6.81 23.10-9.18 18.01-9.69L11.16-10.41C7.56-10.78 6.01-11.95 6.01-13.75C6.01-15.53 7.42-16.57 9.97-16.57L17.37-16.57C18-14.95 19.57-13.79 21.41-13.79C23.82-13.79 25.77-15.74 25.77-18.15C25.77-20.54 23.82-22.49 21.41-22.49C19.54-22.49 17.93-21.28 17.32-19.59L9.97-19.59C5.73-19.59 2.99-17.33 2.99-13.75C2.99-10.10 5.65-7.73 10.72-7.22L17.59-6.50C21.20-6.13 22.75-4.96 22.75-3.16C22.75-1.38 21.34-0.34 19.04-0.34L18.67-0.34L18.67-1.75C18.67-2.68 17.86-3 17.19-2.47L13.48 0.48C12.98 0.87 13.00 1.46 13.48 1.84L17.20 4.79C17.86 5.31 18.67 4.99 18.67 4.08ZM21.41-16.50C20.50-16.50 19.78-17.23 19.78-18.15C19.78-19.08 20.50-19.78 21.41-19.78C22.36-19.78 23.06-19.08 23.06-18.15C23.06-17.21 22.35-16.50 21.41-16.50ZM7.34 5.58C9.75 5.58 11.70 3.63 11.70 1.22C11.70-1.17 9.75-3.12 7.34-3.12C4.95-3.12 3-1.17 3 1.22C3 3.63 4.95 5.58 7.34 5.58Z" fill="currentColor"/>
</svg>