<svg xmlns="http://www.w3.org/2000/svg" viewBox="0 0 24 24" width="24" height="24">
  
  <path transform="matrix(0.7994314163985704, 0, 0, 0.7994314163985704, 0.4301039150128776, 18.656903027617087)" d="M2.10-8.46C2.10-3.80 4.73 0.29 8.17 2.18C10.07 3.23 11.54 0.61 9.71-0.47C7.08-1.97 5.19-4.99 5.19-8.46C5.19-13.61 9.32-17.75 14.47-17.75C19.62-17.75 23.77-13.61 23.77-8.46C23.77-7.52 24.50-6.89 25.34-6.89C26.16-6.89 26.85-7.52 26.85-8.46C26.85-15.25 21.26-20.84 14.47-20.84C7.68-20.84 2.10-15.25 2.10-8.46ZM7.39-8.46C7.39-5.92 8.77-3.74 10.30-2.75C11.86-1.75 13.37-3.88 11.99-4.97C10.89-5.74 10.17-7.01 10.17-8.46C10.17-10.85 12.09-12.76 14.47-12.76C16.85-12.76 18.68-10.85 18.79-8.60C18.83-7.73 19.46-7.24 20.18-7.24C20.91-7.24 21.56-7.78 21.56-8.63C21.56-12.35 18.36-15.54 14.47-15.54C10.59-15.54 7.39-12.35 7.39-8.46ZM20.00 4.09C20.64 3.83 20.94 3.13 20.67 2.50L19.05-1.25L21.25-1.27C21.83-1.25 22.13-1.86 21.70-2.30L15.43-8.66C15.04-9.05 14.45-8.82 14.44-8.26L14.30 0.75C14.29 1.37 14.98 1.58 15.38 1.16L16.86-0.39L18.40 3.43C18.64 4.04 19.38 4.35 20.00 4.09Z" fill="currentColor"/>
</svg>