<svg xmlns="http://www.w3.org/2000/svg" viewBox="0 0 24 24" width="24" height="24">
  
  <path transform="matrix(0.6617552022747835, 0, 0, 0.6617552022747835, 2.663120274783269, 17.60294687863513)" d="M8.71 4.72L15.66 4.72C16.03 4.92 16.44 5.05 16.88 5.10C17.53 6.04 18.64 6.64 19.82 6.64C21.01 6.64 22.13 6 22.71 4.98C24.18 4.57 25.18 3.22 25.18 1.70C25.18 0.38 24.41-0.82 23.18-1.43C23.17-2.36 22.76-3.12 22.13-3.63L23.57-11.24C23.81-12.53 23.48-13.63 22.83-14.44C23.31-15.08 23.59-15.89 23.59-16.76C23.59-18.90 22.25-20.43 20.30-20.52C19.71-21.74 18.73-22.46 17.44-22.46C16.59-22.46 15.82-22.18 15.21-21.66C14.96-21.73 14.65-21.74 14.39-21.70C13.80-22.85 12.63-23.58 11.33-23.58C9.64-23.58 8.40-22.58 8.12-21.42C7.30-21.42 6.59-20.68 6.52-19.92C4.63-19.91 3.08-18.36 3.08-16.44C3.08-15.66 3.34-14.93 3.77-14.33C3.16-13.54 2.88-12.48 3.12-11.24L5.58 1.78C5.93 3.62 6.86 4.72 8.71 4.72ZM13.34-16.52C11.81-16.52 10.56-15.90 9.80-14.91C9.13-15.55 8.21-15.93 7.21-15.93C6.62-15.93 6.05-15.82 5.53-15.62C5.34-15.86 5.25-16.15 5.25-16.49C5.25-17.41 6.30-18.22 7.62-17.75C7.44-18.83 8.70-19.76 9.84-19.24C9.46-20.52 10.22-21.40 11.33-21.40C12.36-21.40 13.10-20.51 12.90-19.31C13.65-19.89 15.28-19.77 15.88-19.00C16.11-19.90 16.79-20.31 17.54-20.31C18.53-20.31 19.23-19.51 19.04-18.34C20.46-18.54 21.45-17.86 21.45-16.62C21.45-16.27 21.29-15.93 21.05-15.67C20.55-15.83 20.03-15.93 19.48-15.93C18.46-15.93 17.55-15.55 16.88-14.91C16.13-15.90 14.87-16.52 13.34-16.52ZM12.55 2.39L11.25-12C11.13-13.29 11.99-14.19 13.34-14.19C14.70-14.19 15.55-13.29 15.43-12L14.36-0.09C14.04 0.43 13.84 1.04 13.84 1.70C13.84 1.93 13.88 2.17 13.91 2.39ZM17.75-11.87C17.85-12.97 18.57-13.59 19.48-13.59C20.65-13.59 21.54-12.75 21.28-11.43L19.92-4.42C19.89-4.42 19.85-4.42 19.82-4.42C18.61-4.42 17.57-3.91 16.96-3.08ZM8.85 2.39C8.32 2.39 8.02 2.12 7.92 1.62L5.40-11.43C5.14-12.75 6.04-13.59 7.21-13.59C8.11-13.59 8.84-12.97 8.93-11.87L10.22 2.39ZM19.82 4.83C18.94 4.83 18.06 4.28 18.08 3.19C16.92 3.57 15.66 2.98 15.66 1.70C15.66 0.35 16.69-0.35 18.22-0.06C17.80-1.14 18.35-2.59 19.82-2.59C21.22-2.59 21.86-1.21 21.46-0.01C22.61-0.16 23.32 0.67 23.32 1.72C23.32 2.66 22.65 3.38 21.42 3.27C21.48 4.18 20.65 4.83 19.82 4.83Z" fill="currentColor"/>
</svg>