<svg xmlns="http://www.w3.org/2000/svg" viewBox="0 0 24 24" width="24" height="24">
  <title>poweroutlet.strip</title>
  <path transform="matrix(0.41025641025641024, 0, 0, 0.41025641025641024, 0.7740384615384617, 15.788461538461538)" d="M6.56-1.73L37.45-1.73C39.39-1.73 40.72-2.89 40.98-4.68L42.40-4.68C43.38-4.68 44.14-5.44 44.14-6.42L44.14-7.88L51.74-7.88L51.74-10.36L44.14-10.36L44.14-12.05C44.14-13.03 43.38-13.79 42.40-13.79L40.98-13.79C40.72-15.57 39.38-16.73 37.45-16.73L6.56-16.73C4.42-16.73 2.99-15.30 2.99-13.16L2.99-5.31C2.99-3.16 4.42-1.73 6.56-1.73ZM6.82-4.30C6.04-4.30 5.55-4.77 5.55-5.57L5.55-12.90C5.55-13.70 6.04-14.17 6.82-14.17L37.20-14.17C37.97-14.17 38.46-13.70 38.46-12.90L38.46-5.57C38.46-4.77 37.97-4.30 37.20-4.30ZM15.56-5.47C17.65-5.47 19.34-7.14 19.34-9.22C19.34-11.30 17.65-13.00 15.56-13.00C13.49-13.00 11.80-11.30 11.80-9.22C11.80-7.14 13.49-5.47 15.56-5.47ZM24.30-5.47C26.38-5.47 28.08-7.14 28.08-9.22C28.08-11.30 26.38-13.00 24.30-13.00C22.23-13.00 20.54-11.30 20.54-9.22C20.54-7.14 22.23-5.47 24.30-5.47ZM33.04-5.47C35.12-5.47 36.80-7.14 36.80-9.22C36.80-11.30 35.12-13.00 33.04-13.00C30.96-13.00 29.29-11.30 29.29-9.22C29.29-7.14 30.96-5.47 33.04-5.47ZM8.38-6.29L9.14-6.29C9.56-6.29 9.86-6.59 9.86-7.02L9.86-11.46C9.86-11.91 9.56-12.20 9.14-12.20L8.38-12.20C7.95-12.20 7.64-11.91 7.64-11.46L7.64-7.02C7.64-6.59 7.95-6.29 8.38-6.29ZM41.53-11.58C41.77-11.58 41.93-11.41 41.93-11.18L41.93-7.29C41.93-7.05 41.77-6.89 41.53-6.89L41.03-6.89L41.03-11.58ZM14.23-7.34C13.95-7.34 13.69-7.57 13.69-7.84L13.69-10.61C13.69-10.88 13.95-11.13 14.23-11.13C14.51-11.13 14.72-10.90 14.72-10.61L14.72-7.84C14.72-7.56 14.51-7.34 14.23-7.34ZM16.92-7.34C16.64-7.34 16.38-7.56 16.38-7.84L16.38-10.61C16.38-10.90 16.62-11.13 16.92-11.13C17.19-11.13 17.41-10.90 17.41-10.61L17.41-7.84C17.41-7.56 17.19-7.34 16.92-7.34ZM22.95-7.34C22.66-7.34 22.43-7.56 22.43-7.84L22.43-10.61C22.43-10.88 22.66-11.13 22.95-11.13C23.24-11.13 23.46-10.90 23.46-10.61L23.46-7.84C23.46-7.56 23.24-7.34 22.95-7.34ZM25.64-7.34C25.36-7.34 25.13-7.56 25.13-7.84L25.13-10.61C25.13-10.90 25.36-11.13 25.64-11.13C25.93-11.13 26.16-10.90 26.16-10.61L26.16-7.84C26.16-7.56 25.92-7.34 25.64-7.34ZM31.69-7.34C31.41-7.34 31.17-7.56 31.17-7.84L31.17-10.61C31.17-10.88 31.41-11.13 31.69-11.13C31.98-11.13 32.20-10.90 32.20-10.61L32.20-7.84C32.20-7.56 31.97-7.34 31.69-7.34ZM34.38-7.34C34.10-7.34 33.86-7.56 33.86-7.84L33.86-10.61C33.86-10.90 34.09-11.13 34.38-11.13C34.66-11.13 34.89-10.90 34.89-10.61L34.89-7.84C34.89-7.56 34.66-7.34 34.38-7.34Z" fill="currentColor"/>
</svg>