<svg xmlns="http://www.w3.org/2000/svg" viewBox="0 0 24 24" width="24" height="24">
  
  <path transform="matrix(0.6777866031241726, 0, 0, 0.6777866031241726, -0.025416997617156323, 17.754567116759333)" d="M2.99-9.97L2.99-7.01C2.99-5.33 3.89-4.44 5.58-4.44L10.00-4.44C11.40-4.44 12.11-3.88 13.02-2.70C14.71-0.53 17.26 0.71 19.98 0.71L23.25 0.71C24.47 0.71 25.20 0 25.20-1.21L25.20-2.73L30.66-2.73C31.68-2.73 32.50-3.55 32.50-4.56C32.50-5.57 31.68-6.39 30.66-6.39L25.20-6.39L25.20-10.57L30.66-10.57C31.68-10.57 32.50-11.39 32.50-12.39C32.50-13.39 31.68-14.23 30.66-14.23L25.20-14.23L25.20-15.79C25.20-17.00 24.47-17.70 23.25-17.70L19.98-17.70C17.26-17.70 14.71-16.48 13.02-14.29C12.11-13.10 11.40-12.54 10.00-12.54L5.58-12.54C3.89-12.54 2.99-11.67 2.99-9.97Z" fill="currentColor"/>
</svg>