<svg xmlns="http://www.w3.org/2000/svg" viewBox="0 0 24 24" width="24" height="24">
  
  <path transform="matrix(0.8080808080808081, 0, 0, 0.8080808080808081, 0.30492424242424243, 18.83712121212121)" d="M14.47 3.91C21.30 3.91 26.85-1.63 26.85-8.46C26.85-15.29 21.30-20.84 14.47-20.84C7.64-20.84 2.10-15.29 2.10-8.46C2.10-1.63 7.64 3.91 14.47 3.91ZM8.71-5.17C8.71-5.72 9.15-6.12 9.66-6.12C10.00-6.12 10.22-6.01 10.46-5.73L10.89-5.27L11.48-4.57L11.37-6.07L11.37-10.76C11.37-13.56 13.02-15.27 15.71-15.27C18.19-15.27 19.88-13.51 19.88-11.10C19.88-8.68 18.29-7.07 15.90-7.07C15.43-7.07 15-7.20 14.72-7.41C14.45-7.61 14.31-7.86 14.31-8.20C14.31-8.66 14.64-9.04 15.16-9.04C15.35-9.04 15.56-8.99 15.91-8.99C17.10-8.99 17.92-9.83 17.93-11.10C17.93-12.41 17.04-13.30 15.71-13.30C14.25-13.30 13.37-12.36 13.37-10.50L13.37-6.08L13.28-4.57L13.86-5.29L14.30-5.74C14.55-6 14.74-6.12 15.09-6.12C15.60-6.12 16.03-5.72 16.03-5.17C16.03-4.89 15.94-4.65 15.69-4.39L13.42-2.17C13.11-1.89 12.74-1.72 12.38-1.72C12.01-1.72 11.64-1.89 11.34-2.17L9.07-4.38C8.82-4.64 8.71-4.89 8.71-5.17Z" fill="currentColor"/>
</svg>