<svg xmlns="http://www.w3.org/2000/svg" viewBox="0 0 24 24" width="24" height="24">
  <title>questionmark.text.page.fill</title>
  <path transform="matrix(0.7754051188853551, 0, 0, 0.7754051188853551, 1.6274420717855524, 18.556110858700592)" d="M2.99 0.30C2.99 2.99 4.44 4.44 7.10 4.44L19.65 4.44C22.31 4.44 23.77 2.99 23.77 0.30L23.77-17.21C23.77-19.89 22.31-21.35 19.65-21.35L7.10-21.35C4.44-21.35 2.99-19.89 2.99-17.21ZM13.09-10.91C12.39-10.91 12.01-11.21 12.01-11.79L12.01-11.87C12.01-12.59 12.45-13.03 13.08-13.46C13.79-13.96 14.14-14.19 14.14-14.68C14.14-15.15 13.76-15.50 13.18-15.50C12.75-15.50 12.40-15.30 12.14-14.87L12.02-14.74C11.84-14.46 11.55-14.33 11.19-14.33C10.71-14.33 10.32-14.70 10.32-15.18C10.32-15.35 10.35-15.49 10.41-15.64C10.73-16.62 11.96-17.21 13.37-17.21C15.06-17.21 16.43-16.29 16.43-14.80C16.43-13.79 15.94-13.28 15.02-12.70C14.51-12.39 14.18-12.11 14.11-11.71C14.11-11.68 14.11-11.65 14.10-11.61C14.04-11.20 13.64-10.91 13.09-10.91ZM13.09-8.10C12.41-8.10 11.88-8.53 11.88-9.18C11.88-9.83 12.40-10.27 13.09-10.27C13.76-10.27 14.27-9.83 14.27-9.18C14.27-8.53 13.75-8.10 13.09-8.10ZM9.12-4.90C8.64-4.90 8.27-5.27 8.27-5.74C8.27-6.20 8.64-6.55 9.12-6.55L17.64-6.55C18.12-6.55 18.47-6.20 18.47-5.74C18.47-5.27 18.12-4.90 17.64-4.90ZM9.12-1.38C8.64-1.38 8.27-1.73 8.27-2.19C8.27-2.66 8.64-3.04 9.12-3.04L13.42-3.04C13.90-3.04 14.25-2.66 14.25-2.19C14.25-1.73 13.90-1.38 13.42-1.38Z" fill="currentColor"/>
</svg>