<svg xmlns="http://www.w3.org/2000/svg" viewBox="0 0 24 24" width="24" height="24">
  
  <path transform="matrix(0.8926080892608089, 0, 0, 0.8926080892608089, -0.6673640167364017, 19.552301255230127)" d="M7.13 2.74L21.26 2.74C23.94 2.74 25.39 1.29 25.39-1.36L25.39-15.55C25.39-18.20 23.94-19.66 21.26-19.66L7.13-19.66C4.45-19.66 2.99-18.21 2.99-15.55L2.99-1.36C2.99 1.29 4.45 2.74 7.13 2.74ZM7.45-0.28C6.52-0.28 6.01-0.74 6.01-1.73L6.01-15.18C6.01-16.17 6.52-16.64 7.45-16.64L20.93-16.64C21.87-16.64 22.37-16.17 22.37-15.18L22.37-1.73C22.37-0.74 21.87-0.28 20.93-0.28ZM13.91-6.28C14.64-6.28 15.15-6.66 15.23-7.17C15.23-7.21 15.25-7.27 15.26-7.30C15.34-7.83 15.81-8.20 16.48-8.64C17.67-9.40 18.30-10.05 18.30-11.34C18.30-13.30 16.51-14.53 14.29-14.53C12.28-14.53 10.86-13.68 10.42-12.55C10.34-12.33 10.29-12.12 10.29-11.87C10.29-11.24 10.77-10.77 11.40-10.77C11.88-10.77 12.23-10.95 12.49-11.30L12.63-11.47C13.01-12.04 13.46-12.28 14.03-12.28C14.78-12.28 15.30-11.80 15.30-11.19C15.30-10.54 14.81-10.22 13.88-9.56C13.05-9 12.49-8.43 12.49-7.51L12.49-7.42C12.49-6.67 13.00-6.28 13.91-6.28ZM13.90-2.52C14.78-2.52 15.46-3.08 15.46-3.93C15.46-4.77 14.78-5.33 13.90-5.33C13.02-5.33 12.33-4.77 12.33-3.93C12.33-3.08 13.02-2.52 13.90-2.52Z" fill="currentColor"/>
</svg>