<svg xmlns="http://www.w3.org/2000/svg" viewBox="0 0 24 24" width="24" height="24">
  
  <path transform="matrix(0.7722473604826546, 0, 0, 0.7722473604826546, 0.38009049773755654, 17.53846153846154)" d="M15.05-1.70C23.00-1.70 28.00-5.26 28.00-10.02C28.00-14.79 22.99-18.33 15.04-18.33C7.09-18.33 2.10-14.79 2.10-10.02C2.10-5.26 7.09-1.70 15.05-1.70ZM15.05-4.59C9.18-4.59 5.25-6.77 5.25-10.02C5.25-13.25 9.18-15.45 15.04-15.45C20.91-15.45 24.83-13.25 24.83-10.02C24.83-6.77 20.92-4.59 15.05-4.59ZM13.18-6.39C13.79-6.39 14.17-6.81 14.17-7.49L14.17-8.92L15.05-8.92L16.17-7.08C16.51-6.55 16.75-6.39 17.17-6.39C17.72-6.39 18.12-6.74 18.12-7.25C18.12-7.50 18.05-7.69 17.89-7.90L16.95-9.28C17.82-9.60 18.36-10.39 18.36-11.37C18.36-12.89 17.30-13.78 15.49-13.78L13.34-13.78C12.60-13.78 12.20-13.35 12.20-12.57L12.20-7.49C12.20-6.80 12.56-6.39 13.18-6.39ZM14.17-10.41L14.17-12.27L15.26-12.27C15.90-12.27 16.28-11.89 16.28-11.32C16.28-10.76 15.89-10.41 15.23-10.41ZM15.05 3.98C18.36 3.98 20.43 2.43 20.43-0.22L20.43-0.52C18.79-0.13 16.98 0.07 15.05 0.07C13.11 0.07 11.30-0.13 9.67-0.52L9.67-0.22C9.67 2.43 11.73 3.98 15.05 3.98Z" fill="currentColor"/>
</svg>