<svg xmlns="http://www.w3.org/2000/svg" viewBox="0 0 24 24" width="24" height="24">
  <title>r.joystick.tilt.right.fill</title>
  <path transform="matrix(0.6543327985696434, 0, 0, 0.6543327985696434, 0.6274347155003963, 17.536268912897842)" d="M16.18-22.55C8.41-22.55 2.10-16.24 2.10-8.46C2.10-0.69 8.41 5.63 16.18 5.63C22.17 5.63 27.29 1.88 29.33-3.40C28.46-3.20 27.61-3.42 26.96-3.95C25.18 0.27 21.04 3.22 16.18 3.22C9.73 3.22 4.49-2.00 4.49-8.46C4.49-14.93 9.73-20.16 16.18-20.16C21.05-20.16 25.20-17.19 26.98-12.96C27.61-13.49 28.48-13.70 29.33-13.52C27.30-18.80 22.18-22.55 16.18-22.55ZM16.18 1.09C21.47 1.09 25.75-3.20 25.75-8.46C25.75-13.73 21.47-18.02 16.18-18.02C10.92-18.02 6.62-13.73 6.62-8.46C6.62-3.20 10.92 1.09 16.18 1.09ZM13.95-3.94C13.23-3.94 12.86-4.37 12.86-5.09L12.86-11.89C12.86-12.66 13.29-13.09 13.93-13.09L16.46-13.09C18.50-13.09 19.89-12.02 19.89-10.07C19.89-8.98 19.30-7.96 18.34-7.50L19.42-5.72C19.56-5.50 19.68-5.23 19.68-4.93C19.68-4.34 19.27-3.94 18.67-3.94C18.14-3.94 17.82-4.14 17.54-4.68L16.20-7.14L15.06-7.14L15.06-5.09C15.06-4.42 14.68-3.94 13.95-3.94ZM29.29-11.44C28.58-11.95 27.71-11.64 27.71-10.77L27.71-6.16C27.71-5.26 28.58-4.96 29.27-5.48L32.32-7.80C32.77-8.14 32.79-8.79 32.32-9.13ZM15.06-8.71L16.24-8.71C17.17-8.71 17.68-9.18 17.68-10.03C17.68-10.86 17.13-11.40 16.25-11.40L15.06-11.40Z" fill="currentColor"/>
</svg>