<svg xmlns="http://www.w3.org/2000/svg" viewBox="0 0 24 24" width="24" height="24">
  
  <path transform="matrix(0.7571724341910677, 0, 0, 0.7571724341910677, -0.26264418811002654, 18.39751552795031)" d="M18.90-21.53L7.13-21.53C4.45-21.53 2.99-20.07 2.99-17.41L2.99-5.59C2.99-2.93 4.45-1.48 7.13-1.48L18.90-1.48C21.57-1.48 23.04-2.93 23.04-5.59L23.04-17.41C23.04-20.07 21.57-21.53 18.90-21.53ZM9.77-5.84C8.87-5.84 8.37-6.42 8.37-7.41L8.37-15.33C8.37-16.43 8.93-17.06 10.01-17.06L13.35-17.06C16.08-17.06 17.68-15.73 17.68-13.43C17.68-11.92 16.82-10.69 15.45-10.25L16.97-7.99C17.19-7.69 17.27-7.42 17.27-7.07C17.27-6.34 16.73-5.84 15.96-5.84C15.34-5.84 14.99-6.09 14.51-6.84L12.74-9.74L11.19-9.74L11.19-7.41C11.19-6.42 10.66-5.84 9.77-5.84ZM29.40-11.59C29.40-14.19 27.98-15.69 25.27-15.69L24.94-15.69L24.94-5.59C24.94-1.88 22.63 0.42 18.90 0.42L9.08 0.42L9.08 0.53C9.08 3.18 10.55 4.63 13.22 4.63L25.27 4.63C27.95 4.63 29.40 3.18 29.40 0.52ZM11.19-11.81L12.96-11.81C14.04-11.81 14.72-12.39 14.72-13.36C14.72-14.36 14.04-14.95 13.00-14.95L11.19-14.95Z" fill="currentColor"/>
</svg>