<svg xmlns="http://www.w3.org/2000/svg" viewBox="0 0 24 24" width="24" height="24">
  
  <path transform="matrix(0.7195053400786959, 0, 0, 0.7195053400786959, -0.15008431703204073, 18.08347386172007)" d="M12.94-19.18C5.95-19.18 2.99-16.13 2.99-9.27L2.99-1.80C2.99 0.83 4.44 2.27 7.09 2.27L26.70 2.27C29.33 2.27 30.79 0.82 30.79-1.80L30.79-9.27C30.79-16.13 27.82-19.18 20.84-19.18ZM13.04-16.16L20.73-16.16C25.66-16.16 27.76-14.06 27.76-9.29L27.76-2.17C27.76-1.24 27.26-0.75 26.36-0.75L7.42-0.75C6.52-0.75 6.01-1.24 6.01-2.17L6.01-9.29C6.01-14.06 8.11-16.16 13.04-16.16ZM18.62-3.91L22.43-3.91C22.95-3.91 23.18-4.27 23.18-4.69C23.18-5.13 22.93-5.47 22.43-5.47L20.05-5.47L20.05-5.55L21.49-7.35C22.51-8.58 23.03-9.43 23.03-10.57C23.03-12.20 21.91-13.24 20.31-13.24C18.87-13.24 17.71-12.12 17.71-10.89C17.71-10.39 18-10.03 18.52-10.03C18.94-10.03 19.23-10.23 19.38-10.69C19.55-11.29 19.77-11.72 20.31-11.72C20.89-11.72 21.16-11.17 21.16-10.50C21.16-9.64 20.58-8.78 19.92-7.96L18.21-5.78C17.88-5.36 17.71-5.06 17.71-4.69C17.71-4.22 18.02-3.91 18.62-3.91ZM11.92-3.75C12.55-3.75 12.91-4.15 12.91-4.79L12.91-7.23L13.66-7.23L14.63-4.59C14.81-4.03 15.13-3.75 15.66-3.75C16.16-3.75 16.59-4.10 16.58-4.73C16.58-4.91 16.52-5.11 16.43-5.34L15.53-7.65C16.34-8.14 16.68-9.13 16.68-10.09C16.68-12.01 15.56-13.00 13.73-13.00L11.92-13.00C11.26-13.00 10.91-12.60 10.91-11.95L10.91-4.79C10.91-4.15 11.26-3.75 11.92-3.75ZM12.91-8.63L12.91-11.46L13.56-11.46C14.29-11.46 14.65-10.79 14.65-10.04C14.65-9.29 14.32-8.63 13.56-8.63Z" fill="currentColor"/>
</svg>