<svg xmlns="http://www.w3.org/2000/svg" viewBox="0 0 24 24" width="24" height="24">
  <title>rb.button.roundedbottom.horizontal</title>
  <path transform="matrix(0.7195053400786959, 0, 0, 0.7195053400786959, -0.15008431703204073, 18.08347386172007)" d="M12.94 2.27L20.84 2.27C27.82 2.27 30.79-0.79 30.79-7.64L30.79-15.11C30.79-17.73 29.33-19.18 26.70-19.18L7.09-19.18C4.44-19.18 2.99-17.74 2.99-15.11L2.99-7.64C2.99-0.79 5.95 2.27 12.94 2.27ZM13.04-0.75C8.11-0.75 6.01-2.85 6.01-7.62L6.01-14.74C6.01-15.67 6.52-16.16 7.42-16.16L26.36-16.16C27.26-16.16 27.76-15.67 27.76-14.74L27.76-7.62C27.76-2.85 25.66-0.75 20.73-0.75ZM18.73-3.89L21.14-3.89C22.71-3.89 23.57-5.02 23.57-6.49C23.57-7.59 22.88-8.60 21.86-8.68L21.86-8.74C22.73-8.88 23.34-9.80 23.34-10.72C23.34-12.16 22.42-13.00 21.06-13.00L18.73-13.00C18.06-13.00 17.74-12.55 17.74-11.95L17.74-4.93C17.74-4.32 18.07-3.89 18.73-3.89ZM11.66-3.75C12.28-3.75 12.64-4.15 12.64-4.79L12.64-7.23L13.39-7.23L14.36-4.59C14.54-4.03 14.86-3.75 15.39-3.75C15.89-3.75 16.34-4.10 16.31-4.73C16.31-4.91 16.25-5.11 16.16-5.34L15.26-7.65C16.07-8.14 16.41-9.13 16.41-10.09C16.41-12.01 15.30-13.00 13.48-13.00L11.65-13.00C10.99-13.00 10.65-12.60 10.65-11.95L10.65-4.79C10.65-4.15 11.00-3.75 11.66-3.75ZM19.71-9.21L19.71-11.54L20.46-11.54C21.20-11.54 21.46-11.06 21.46-10.41C21.46-9.68 21.09-9.21 20.37-9.21ZM12.64-8.63L12.64-11.46L13.30-11.46C14.02-11.46 14.38-10.79 14.38-10.04C14.38-9.29 14.06-8.63 13.29-8.63ZM19.71-5.34L19.71-7.96L20.44-7.96C21.16-7.96 21.59-7.48 21.59-6.67C21.59-5.88 21.25-5.34 20.47-5.34Z" fill="currentColor"/>
</svg>