<svg xmlns="http://www.w3.org/2000/svg" viewBox="0 0 24 24" width="24" height="24">
  
  <path transform="matrix(0.8080808080808081, 0, 0, 0.8080808080808081, 0.30492424242424243, 18.83712121212121)" d="M14.47 3.91C21.30 3.91 26.85-1.63 26.85-8.46C26.85-15.29 21.30-20.84 14.47-20.84C7.64-20.84 2.10-15.29 2.10-8.46C2.10-1.63 7.64 3.91 14.47 3.91ZM14.47 0.83C9.34 0.83 5.18-3.33 5.18-8.46C5.18-13.61 9.34-17.75 14.47-17.75C19.62-17.75 23.77-13.61 23.77-8.46C23.77-3.33 19.62 0.83 14.47 0.83ZM13.04-13.44L13.04-12.21L10.44-12.21C8.38-12.21 7.04-11.00 7.04-9.12L7.04-8.43C7.04-7.98 7.39-7.62 7.84-7.62C8.30-7.62 8.66-7.98 8.66-8.43L8.66-9.01C8.66-9.96 9.32-10.59 10.31-10.59L13.04-10.59L13.04-9.32C13.04-8.92 13.30-8.66 13.71-8.66C13.90-8.66 14.09-8.73 14.21-8.84L16.65-10.89C17.00-11.17 17.00-11.59 16.65-11.87L14.21-13.92C14.09-14.04 13.90-14.10 13.71-14.10C13.30-14.10 13.04-13.84 13.04-13.44ZM19.88-9.47C20.38-9.47 20.72-9.80 20.72-10.31L20.72-13.02C20.72-13.62 20.32-14.02 19.75-14.02C19.36-14.02 19.09-13.91 18.73-13.63L17.88-12.97C17.68-12.83 17.60-12.64 17.60-12.43C17.60-12.09 17.87-11.82 18.23-11.82C18.38-11.82 18.52-11.87 18.66-11.98L19.02-12.27L19.02-10.31C19.02-9.81 19.36-9.47 19.88-9.47ZM13.29-2.73L13.29-3.97L17.27-3.97C19.35-3.97 20.68-5.19 20.68-7.05L20.68-7.76C20.68-8.20 20.32-8.55 19.88-8.55C19.42-8.55 19.05-8.20 19.05-7.76L19.05-7.16C19.05-6.22 18.40-5.59 17.40-5.59L13.29-5.59L13.29-6.84C13.29-7.24 13.03-7.50 12.62-7.50C12.43-7.50 12.25-7.44 12.12-7.32L9.67-5.29C9.34-5.00 9.35-4.57 9.69-4.29L12.12-2.25C12.25-2.14 12.43-2.07 12.62-2.07C13.03-2.07 13.29-2.33 13.29-2.73Z" fill="currentColor"/>
</svg>