<svg xmlns="http://www.w3.org/2000/svg" viewBox="0 0 24 24" width="24" height="24">
  
  <path transform="matrix(0.8080808080808081, 0, 0, 0.8080808080808081, 0.30492424242424243, 18.83712121212121)" d="M14.47 3.91C21.30 3.91 26.85-1.63 26.85-8.46C26.85-15.29 21.30-20.84 14.47-20.84C7.64-20.84 2.10-15.29 2.10-8.46C2.10-1.63 7.64 3.91 14.47 3.91ZM14.47 0.83C9.34 0.83 5.18-3.33 5.18-8.46C5.18-13.61 9.34-17.75 14.47-17.75C19.62-17.75 23.77-13.61 23.77-8.46C23.77-3.33 19.62 0.83 14.47 0.83ZM9.14-9.90C8.02-9.25 8.09-7.66 9.15-7.02L15.90-3.01C16.98-2.37 18.45-2.77 18.45-4.30L18.45-12.63C18.45-14.16 16.98-14.57 15.90-13.92ZM11.91-8.61L15.71-10.86C15.83-10.93 15.93-10.89 15.93-10.77L15.93-6.16C15.93-6.05 15.83-6 15.71-6.07L11.92-8.31C11.78-8.38 11.79-8.54 11.91-8.61Z" fill="currentColor"/>
</svg>