<svg xmlns="http://www.w3.org/2000/svg" viewBox="0 0 24 24" width="24" height="24">
  
  <path transform="matrix(0.9250225835591689, 0, 0, 0.9250225835591689, 2.7371273712737128, 19.81029810298103)" d="M17.71 2.37C18.80 2.37 19.69 1.52 19.69 0.12L19.69-17.02C19.69-18.42 18.80-19.25 17.71-19.25C17.16-19.25 16.66-19.09 16.02-18.71L1.96-10.56C0.88-9.93 0.34-9.35 0.34-8.45C0.34-7.54 0.88-6.96 1.96-6.34L16.02 1.82C16.66 2.19 17.16 2.37 17.71 2.37ZM16.41-1.58C16.37-1.58 16.34-1.59 16.28-1.63L4.65-8.33C4.61-8.37 4.57-8.39 4.57-8.45C4.57-8.50 4.61-8.53 4.65-8.57L16.28-15.28C16.34-15.30 16.37-15.33 16.41-15.33C16.48-15.33 16.51-15.28 16.51-15.20L16.51-1.70C16.51-1.63 16.48-1.58 16.41-1.58Z" fill="currentColor"/>
</svg>