<svg xmlns="http://www.w3.org/2000/svg" viewBox="0 0 24 24" width="24" height="24">
  <title>robotic.vacuum</title>
  <path transform="matrix(0.7137878154189321, 0, 0, 0.7137878154189321, 0.5027185278126307, 18.486825595984946)" d="M16.10 0.50C23.37 0.50 30.12-2.09 30.12-5.51L30.12-12.15L30.12-12.16C30.12-16.31 23.74-18.68 16.10-18.68C8.47-18.68 2.10-16.31 2.10-12.16L2.10-12.15L2.10-5.51C2.10-2.09 8.66 0.50 16.10 0.50ZM16.10-8.26C10.48-8.26 4.78-9.90 4.78-12.16C4.78-14.18 9.07-16.15 16.10-16.15C23.14-16.15 27.43-14.18 27.43-12.16C27.43-9.90 21.74-8.26 16.10-8.26ZM16.10-11.86C18.52-11.86 19.91-12.53 19.91-13.45C19.91-14.36 18.53-15.06 16.10-15.06C13.68-15.06 12.32-14.37 12.32-13.45C12.32-12.53 13.69-11.86 16.10-11.86ZM16.10-12.95C14.70-12.95 13.93-13.18 13.93-13.46C13.93-13.73 14.67-13.97 16.10-13.97C17.53-13.97 18.27-13.73 18.27-13.46C18.27-13.18 17.50-12.95 16.10-12.95ZM11.68-9.54C12.43-9.54 13.05-9.84 13.05-10.22C13.05-10.58 12.43-10.89 11.68-10.89C10.95-10.89 10.31-10.58 10.31-10.22C10.31-9.84 10.95-9.54 11.68-9.54ZM20.53-9.54C21.27-9.54 21.91-9.84 21.91-10.22C21.91-10.58 21.27-10.89 20.53-10.89C19.78-10.89 19.16-10.58 19.16-10.22C19.16-9.84 19.78-9.54 20.53-9.54ZM16.10-9.08C16.86-9.08 17.48-9.39 17.48-9.76C17.48-10.13 16.86-10.44 16.10-10.44C15.35-10.44 14.74-10.13 14.74-9.76C14.74-9.39 15.35-9.08 16.10-9.08ZM16.10-5.61C20.81-5.61 25.01-6.63 27.55-8.31L27.55-5.96C27.55-4.97 26.26-4.00 24.14-3.28L24.14-3.82C24.14-4.52 23.64-4.84 22.99-4.66C21.09-4.14 18.45-3.87 16.10-3.87C13.77-3.87 11.12-4.14 9.22-4.66C8.58-4.84 8.07-4.52 8.07-3.82L8.07-3.28C5.95-4.00 4.66-4.97 4.66-5.96L4.66-8.25C7.21-6.59 11.40-5.61 16.10-5.61Z" fill="currentColor"/>
</svg>