<svg xmlns="http://www.w3.org/2000/svg" viewBox="0 0 24 24" width="24" height="24">
  <title>roman.shade.open</title>
  <path transform="matrix(0.7653213751868461, 0, 0, 0.7653213751868461, -0.30493273542600896, 18.457399103139014)" d="M3.01-19.51C3.01-18.68 3.69-18 4.52-18L27.63-18C28.46-18 29.14-18.68 29.14-19.51C29.14-20.34 28.46-21.02 27.63-21.02L4.52-21.02C3.69-21.02 3.01-20.34 3.01-19.51ZM4.52-14.87C5.05-14.87 5.47-15.32 5.47-15.83C5.47-16.36 5.05-16.78 4.52-16.78C3.98-16.78 3.56-16.36 3.56-15.83C3.56-15.32 3.98-14.87 4.52-14.87ZM8.17-12.04L26.78-12.04C27.47-12.04 27.94-12.52 27.94-13.20L27.94-15.49C27.94-16.18 27.47-16.65 26.78-16.65L8.17-16.65C7.49-16.65 7.01-16.18 7.01-15.50L7.01-13.20C7.01-12.52 7.49-12.04 8.17-12.04ZM4.52-12.16C5.05-12.16 5.47-12.61 5.47-13.13C5.47-13.65 5.05-14.07 4.52-14.07C3.98-14.07 3.56-13.65 3.56-13.13C3.56-12.61 3.98-12.16 4.52-12.16ZM4.52-9.48C5.05-9.48 5.47-9.91 5.47-10.43C5.47-10.96 5.05-11.38 4.52-11.38C3.98-11.38 3.56-10.96 3.56-10.43C3.56-9.91 3.98-9.48 4.52-9.48ZM9.48-6.41L25.46-6.41C26.16-6.41 26.63-6.88 26.63-7.56L26.63-10.34L8.32-10.34L8.32-7.56C8.32-6.87 8.80-6.41 9.48-6.41ZM4.52-6.79C5.05-6.79 5.47-7.23 5.47-7.73C5.47-8.26 5.05-8.68 4.52-8.68C3.98-8.68 3.56-8.26 3.56-7.73C3.56-7.23 3.98-6.79 4.52-6.79ZM4.52-4.09C5.05-4.09 5.47-4.52 5.47-5.04C5.47-5.57 5.05-5.99 4.52-5.99C3.98-5.99 3.56-5.57 3.56-5.04C3.56-4.52 3.98-4.09 4.52-4.09ZM4.52-1.39C5.05-1.39 5.47-1.83 5.47-2.34C5.47-2.88 5.05-3.29 4.52-3.29C3.98-3.29 3.56-2.88 3.56-2.34C3.56-1.83 3.98-1.39 4.52-1.39ZM4.52 4.15C5.12 4.15 5.60 3.66 5.60 3.05L5.60 0.49C5.60-0.11 5.12-0.61 4.52-0.61C3.91-0.61 3.43-0.11 3.43 0.49L3.43 3.05C3.43 3.66 3.91 4.15 4.52 4.15Z" fill="currentColor"/>
</svg>