<svg xmlns="http://www.w3.org/2000/svg" viewBox="0 0 24 24" width="24" height="24">
  <title>rugbyball.circle</title>
  <path transform="matrix(0.8080808080808081, 0, 0, 0.8080808080808081, 0.30492424242424243, 18.83712121212121)" d="M14.47 3.91C21.30 3.91 26.85-1.63 26.85-8.46C26.85-15.29 21.30-20.84 14.47-20.84C7.64-20.84 2.10-15.29 2.10-8.46C2.10-1.63 7.64 3.91 14.47 3.91ZM14.47 0.83C9.34 0.83 5.18-3.33 5.18-8.46C5.18-13.61 9.34-17.75 14.47-17.75C19.62-17.75 23.77-13.61 23.77-8.46C23.77-3.33 19.62 0.83 14.47 0.83ZM19.72-13.23L16.52-10.03L16.91-9.66C17.05-9.53 17.03-9.30 16.91-9.19C16.78-9.05 16.57-9.06 16.43-9.19L15.19-10.43C15.06-10.56 15.05-10.77 15.18-10.90C15.32-11.03 15.53-11.03 15.66-10.90L16.04-10.51L19.25-13.71C19.13-13.78 18.98-13.83 18.80-13.89C16.24-14.63 13.10-13.51 11.26-11.67C9.42-9.83 8.31-6.69 9.06-4.14C9.11-3.96 9.15-3.81 9.22-3.69L12.43-6.89L12.05-7.29C11.91-7.42 11.91-7.63 12.04-7.75C12.18-7.89 12.39-7.89 12.52-7.76L13.76-6.50C13.90-6.38 13.89-6.15 13.76-6.04C13.63-5.91 13.43-5.92 13.29-6.05L12.90-6.42L9.71-3.21C9.83-3.15 9.97-3.09 10.15-3.05C12.70-2.30 15.86-3.41 17.68-5.25C19.54-7.09 20.64-10.24 19.90-12.80C19.84-12.97 19.79-13.11 19.72-13.23ZM16.11-8.87C16.25-8.74 16.24-8.51 16.11-8.39C15.98-8.26 15.77-8.27 15.63-8.40L14.39-9.64C14.26-9.77 14.25-9.98 14.39-10.10C14.52-10.24 14.73-10.24 14.86-10.11ZM15.34-8.09C15.47-7.95 15.46-7.72 15.34-7.61C15.21-7.48 15-7.49 14.86-7.62L13.62-8.86C13.49-8.99 13.48-9.20 13.61-9.32C13.75-9.46 13.96-9.46 14.09-9.33ZM14.55-7.30C14.70-7.17 14.68-6.95 14.55-6.83C14.43-6.69 14.21-6.70 14.09-6.84L12.83-8.07C12.70-8.20 12.70-8.41 12.83-8.54C12.96-8.68 13.17-8.68 13.30-8.54Z" fill="currentColor"/>
</svg>