<svg xmlns="http://www.w3.org/2000/svg" viewBox="0 0 24 24" width="24" height="24">
  
  <path transform="matrix(0.7114075309156593, 0, 0, 0.7114075309156593, -0.12588578574406029, 18.019174656106713)" d="M5.05 1.68L29.23 1.68L29.23 0.63C29.23 0.04 28.86-0.30 28.28-0.30L27.73-0.30L27.73-13.07L28.69-13.07C29.54-13.07 30.05-13.70 30.05-14.33C30.05-14.80 29.79-15.22 29.24-15.55L18.79-21.57C18.27-21.87 17.68-22.04 17.13-22.04C16.58-22.04 16.00-21.87 15.49-21.57L5.04-15.55C4.48-15.22 4.23-14.80 4.23-14.33C4.23-13.70 4.72-13.07 5.58-13.07L6.55-13.07L6.55-0.30L6-0.30C5.41-0.30 5.05 0.04 5.05 0.63ZM8.82-0.30L8.82-14.75L16.82-19.23C16.91-19.29 17.04-19.32 17.13-19.32C17.24-19.32 17.36-19.29 17.46-19.23L25.45-14.75L25.45-0.30ZM12.71-4.29C13.28-4.29 13.58-4.64 13.58-5.20L13.58-7.61L14.54-7.61L15.62-5.04C15.82-4.54 16.09-4.29 16.51-4.29C16.99-4.29 17.38-4.59 17.38-5.13C17.38-5.37 17.30-5.57 17.19-5.80L16.23-7.95C17.07-8.37 17.47-9.35 17.47-10.29C17.47-11.94 16.49-12.98 14.61-12.98L12.70-12.98C12.15-12.98 11.82-12.63 11.82-12.07L11.82-5.20C11.82-4.64 12.14-4.29 12.71-4.29ZM13.58-8.87L13.58-11.63L14.46-11.63C15.25-11.63 15.68-11.06 15.68-10.25C15.68-9.47 15.29-8.87 14.46-8.87ZM20.84-4.28C22.21-4.28 23.39-5.00 23.39-6.40C23.39-7.48 22.72-7.93 21.67-8.19L20.71-8.41C20.29-8.52 19.95-8.74 19.95-9.15C19.95-9.61 20.30-9.91 20.77-9.91C21.29-9.91 21.68-9.57 21.90-9.19C22.05-9 22.29-8.92 22.48-8.92C22.91-8.92 23.13-9.14 23.13-9.49C23.13-9.57 23.10-9.69 23.06-9.80C22.79-10.65 21.79-11.10 20.79-11.10C19.35-11.10 18.30-10.37 18.30-9.06C18.30-8.02 18.97-7.44 19.98-7.20L20.95-6.97C21.39-6.86 21.70-6.66 21.70-6.21C21.70-5.73 21.32-5.46 20.86-5.46C20.27-5.46 19.93-5.66 19.59-6.16C19.37-6.43 19.11-6.54 18.87-6.54C18.49-6.54 18.22-6.28 18.22-5.91C18.22-5.80 18.26-5.64 18.32-5.51C18.68-4.63 19.80-4.28 20.84-4.28ZM4.27 5.12L29.82 5.12C30.50 5.12 31.10 4.56 31.10 3.84C31.10 3.15 30.50 2.58 29.82 2.58L4.27 2.58C3.57 2.58 2.99 3.15 2.99 3.84C2.99 4.55 3.57 5.12 4.27 5.12Z" fill="currentColor"/>
</svg>