<svg xmlns="http://www.w3.org/2000/svg" viewBox="0 0 24 24" width="24" height="24">
  
  <path transform="matrix(0.8926080892608089, 0, 0, 0.8926080892608089, -0.6673640167364017, 19.552301255230127)" d="M7.13 2.74L21.26 2.74C23.94 2.74 25.39 1.29 25.39-1.36L25.39-15.55C25.39-18.20 23.94-19.66 21.26-19.66L7.13-19.66C4.45-19.66 2.99-18.21 2.99-15.55L2.99-1.36C2.99 1.29 4.45 2.74 7.13 2.74ZM7.45-0.28C6.52-0.28 6.01-0.74 6.01-1.73L6.01-15.18C6.01-16.17 6.52-16.64 7.45-16.64L20.93-16.64C21.87-16.64 22.37-16.17 22.37-15.18L22.37-1.73C22.37-0.74 21.87-0.28 20.93-0.28ZM14.02-3.02C16.83-3.02 18.64-4.37 18.64-6.49C18.64-8.13 17.55-9.07 15.53-9.48L14.14-9.79C13.02-10.01 12.62-10.30 12.62-10.84C12.62-11.52 13.18-11.93 14.10-11.93C14.94-11.93 15.48-11.64 15.95-10.96C16.34-10.56 16.62-10.39 17.12-10.39C17.78-10.39 18.21-10.75 18.21-11.38C18.21-11.61 18.15-11.86 18.02-12.12C17.50-13.21 16.01-13.98 14.14-13.98C11.55-13.98 9.81-12.62 9.81-10.62C9.81-9.04 10.88-8.07 12.81-7.68L14.18-7.36C15.50-7.08 15.88-6.84 15.88-6.23C15.88-5.52 15.16-5.12 14.18-5.12C13.25-5.12 12.62-5.44 12.06-6.14C11.72-6.49 11.40-6.66 10.96-6.66C10.29-6.66 9.82-6.22 9.82-5.58C9.82-5.33 9.88-5.10 10.01-4.86C10.50-3.84 11.95-3.02 14.02-3.02Z" fill="currentColor"/>
</svg>