<svg xmlns="http://www.w3.org/2000/svg" viewBox="0 0 24 24" width="24" height="24">
  
  <path transform="matrix(0.8080808080808081, 0, 0, 0.8080808080808081, 0.30492424242424243, 18.83712121212121)" d="M14.47 3.91C21.30 3.91 26.85-1.63 26.85-8.46C26.85-15.29 21.30-20.84 14.47-20.84C7.64-20.84 2.10-15.29 2.10-8.46C2.10-1.63 7.64 3.91 14.47 3.91ZM14.47 0.83C9.34 0.83 5.18-3.33 5.18-8.46C5.18-13.61 9.34-17.75 14.47-17.75C19.62-17.75 23.77-13.61 23.77-8.46C23.77-3.33 19.62 0.83 14.47 0.83ZM11.12-1.93L16.55-1.93C17.14-1.93 17.47-2.06 17.91-2.43C18.43-2.88 19.20-4.05 19.20-4.52C19.20-4.85 18.95-5.11 18.47-5.05C17.25-4.90 15.81-4.80 14.34-4.75L14.43-5.65C15.80-5.53 17.17-5.58 18.06-5.72C18.83-5.84 19.21-6.15 19.46-6.84C19.75-7.54 19.85-8.31 19.85-9.14C19.85-11.30 18.76-13.85 15.93-15.34C15.64-15.48 15.38-15.56 15.13-15.56C14.61-15.56 14.20-15.23 14.14-14.68L13.96-12.60L9.76-6.73C9.40-6.22 9.60-5.73 10.18-5.67C11.20-5.55 12.29-5.54 13.32-5.63L13.24-4.72C12.16-4.69 11.10-4.68 10.13-4.68C9.61-4.68 9.32-4.29 9.50-3.81L9.91-2.72C10.10-2.19 10.50-1.93 11.12-1.93ZM15.14-14.10C15.15-14.18 15.26-14.18 15.28-14.10C15.61-13.15 15.80-11.96 15.80-10.85C15.80-9.35 15.40-7.97 14.53-6.98Z" fill="currentColor"/>
</svg>