<svg xmlns="http://www.w3.org/2000/svg" viewBox="0 0 24 24" width="24" height="24">
  
  <path transform="matrix(0.5541125541125541, 0, 0, 0.5541125541125541, 0.8376623376623376, 15.793420642412173)" d="M32.21 5.63C32.60 6.01 33.23 6 33.61 5.63C33.98 5.23 34.00 4.62 33.61 4.23L10.08-19.31C9.69-19.70 9.06-19.70 8.67-19.31C8.30-18.94 8.30-18.29 8.67-17.92ZM36.75 1.57C37.55 1.57 38.19 0.94 38.19 0.13C38.19-10.55 30.09-19.25 20.14-19.25C17.86-19.25 15.68-18.79 13.66-17.94L15.94-15.67C17.26-16.13 18.68-16.37 20.14-16.37C28.51-16.37 35.32-8.98 35.32 0.13C35.32 0.94 35.96 1.57 36.75 1.57ZM3.54 1.57C4.32 1.57 4.96 0.94 4.96 0.13C4.96-5.34 7.42-10.17 11.18-13.17L9.15-15.21C4.86-11.67 2.10-6.11 2.10 0.13C2.10 0.94 2.74 1.57 3.54 1.57ZM23.16-8.45C23.61-9.04 23.91-9.83 23.91-10.71C23.91-12.91 22.20-14.71 20.16-14.71C19.28-14.71 18.46-14.33 17.88-13.72ZM32.48 0.70C32.63 0.57 32.73 0.36 32.73 0.13C32.73-5.05 29.87-9.76 25.49-11.95C25.76-10.88 25.71-9.75 25.34-8.70C27.45-7.28 28.91-5.02 29.33-2.45ZM8.99 1.56C9.79 1.56 10.44 0.93 10.44 0.13C10.44-3.46 12.14-6.69 14.88-8.63C14.67-9.04 14.53-9.47 14.46-9.90L13.32-11.05C9.80-8.61 7.56-4.43 7.56 0.13C7.56 0.93 8.19 1.56 8.99 1.56ZM14.36 1.66L26.04 1.66L19.11-5.26C15.06-4.85 12.50-2.00 12.50 0.16C12.50 1.11 13.21 1.66 14.36 1.66Z" fill="currentColor"/>
</svg>