<svg xmlns="http://www.w3.org/2000/svg" viewBox="0 0 24 24" width="24" height="24">
  
  <path transform="matrix(0.6829398426037081, 0, 0, 0.6829398426037081, 0.5674269707883155, 17.800813747563765)" d="M16.75-15.20C18.83-15.20 20.77-14.50 22.31-13.30C22.61-13.08 22.98-13.10 23.26-13.38L26.10-16.23C26.43-16.56 26.41-17.04 26.06-17.33C23.53-19.43 20.29-20.68 16.75-20.68C13.21-20.68 9.96-19.43 7.43-17.33C7.07-17.04 7.05-16.56 7.38-16.23L10.23-13.38C10.50-13.10 10.89-13.09 11.20-13.32C12.74-14.50 14.66-15.20 16.75-15.20ZM31.38-6.04C31.38-9.59 30.13-12.84 28.02-15.39C27.74-15.73 27.26-15.73 26.93-15.40L24.08-12.55C23.80-12.27 23.80-11.89 24.02-11.58C25.21-10.03 25.90-8.12 25.90-6.04C25.90-3.90 25.17-1.93 23.91-0.34C23.68-0.05 23.70 0.32 23.94 0.56L26.82 3.45C27.14 3.77 27.62 3.77 27.93 3.42C30.08 0.87 31.38-2.43 31.38-6.04ZM2.10-6.04C2.10-2.43 3.41 0.89 5.58 3.45C5.87 3.79 6.34 3.77 6.67 3.45L9.54 0.56C9.80 0.32 9.81-0.05 9.57-0.34C8.31-1.93 7.58-3.90 7.58-6.04C7.58-8.12 8.29-10.03 9.46-11.58C9.69-11.89 9.68-12.27 9.41-12.55L6.56-15.40C6.23-15.73 5.74-15.71 5.45-15.36C3.35-12.82 2.10-9.57 2.10-6.04ZM15.69-1.03L18.98-1.03C21.04-1.03 21.90-2.07 21.90-4.13L21.90-10.25C21.90-10.80 21.59-11.14 21.08-11.14C20.57-11.14 20.25-10.80 20.25-10.25L20.25-4.44C20.25-3.08 19.98-2.71 18.62-2.71L16.09-2.71L16.09-7.24C16.09-7.77 15.82-8.11 15.30-8.11C14.79-8.11 14.51-7.77 14.51-7.24L14.51-2.14C14.51-1.37 14.99-1.03 15.69-1.03ZM12.40-0.95C12.93-0.95 13.22-1.28 13.22-1.83L13.22-9.40L15.62-9.40C16.88-9.40 17.38-9.09 17.38-7.72L17.38-4.82C17.38-4.30 17.68-3.96 18.18-3.96C18.66-3.96 18.96-4.30 18.96-4.82L18.96-8.11C18.96-10.23 18.06-11.07 16.02-11.07L12.96-11.07C12.05-11.07 11.57-10.65 11.57-9.73L11.57-1.83C11.57-1.27 11.87-0.95 12.40-0.95Z" fill="currentColor"/>
</svg>