<svg xmlns="http://www.w3.org/2000/svg" viewBox="0 0 24 24" width="24" height="24">
  <title>shield.lefthalf.filled.slash</title>
  <path transform="matrix(0.8261728992698374, 0, 0, 0.8261728992698374, 1.5709720821152104, 18.805034491104927)" d="M22.84 3.14C23.23 3.53 23.86 3.53 24.23 3.14C24.61 2.75 24.62 2.13 24.23 1.75L2.41-20.05C2.04-20.44 1.41-20.44 1.01-20.05C0.63-19.68 0.63-19.03 1.01-18.66ZM22.38-2.36C23.05-3.43 23.34-4.62 23.34-6.09L23.34-14.77C23.34-16.44 22.78-17.12 21.33-17.74C20.17-18.23 15.90-19.66 14.81-20.02C14.31-20.18 13.68-20.29 13.17-20.29C12.66-20.29 12.04-20.16 11.52-20.02C10.69-19.78 8.24-18.94 6.45-18.29L13.17-11.57L13.17-17.51C13.41-17.51 13.63-17.45 14.03-17.32C15.25-16.86 18.45-15.76 20.11-15.14C20.45-15.01 20.54-14.82 20.54-14.38L20.54-6.54C20.54-5.75 20.44-5.12 20.17-4.56ZM2.99-14.48L2.99-6.09C2.99-1.83 5.43 0.02 12.28 3.61C12.59 3.76 12.93 3.87 13.17 3.87C13.41 3.87 13.75 3.76 14.05 3.61C15.84 2.66 17.33 1.85 18.55 1.08L16.42-1.05C15.66-0.59 14.78-0.06 13.76 0.56C13.44 0.75 13.31 0.80 13.17 0.80L13.17-4.29Z" fill="currentColor"/>
</svg>