<svg xmlns="http://www.w3.org/2000/svg" viewBox="0 0 24 24" width="24" height="24">
  
  <path transform="matrix(0.8080808080808081, 0, 0, 0.8080808080808081, 0.30492424242424243, 18.83712121212121)" d="M14.47 3.91C21.30 3.91 26.85-1.63 26.85-8.46C26.85-15.29 21.30-20.84 14.47-20.84C7.64-20.84 2.10-15.29 2.10-8.46C2.10-1.63 7.64 3.91 14.47 3.91ZM14.47 0.83C9.34 0.83 5.18-3.33 5.18-8.46C5.18-13.61 9.34-17.75 14.47-17.75C19.62-17.75 23.77-13.61 23.77-8.46C23.77-3.33 19.62 0.83 14.47 0.83ZM19.61-5.47C20.16-5.16 20.59-5.11 21.01-5.24C21.04-5.26 21.05-5.31 21.07-5.34L22.05-7.07C22.52-7.86 22.03-8.70 21.05-8.72C20.65-8.73 20.37-8.78 19.97-9C19.54-9.25 19.28-9.68 19.15-10.58C19.01-11.60 18.35-12.11 17.38-12.13L17.09-12.13L17.25-10.66C17.27-10.50 17.16-10.34 16.97-10.29C16.82-10.27 16.63-10.38 16.62-10.57L16.44-12.13L15.95-12.12L16.10-10.71C16.13-10.52 16.02-10.37 15.84-10.34C15.64-10.31 15.49-10.43 15.47-10.61L15.32-12.12L14.81-12.12L14.96-10.76C14.99-10.58 14.87-10.43 14.71-10.39C14.52-10.35 14.36-10.48 14.33-10.66L14.17-12.13C13.93-12.13 13.85-12.18 13.62-12.32C13.27-12.50 12.42-13.22 11.99-13.46C11.39-13.80 10.83-13.80 10.36-13.64C9.93-13.48 9.87-12.95 10.24-12.35L11.12-10.95C11.51-10.31 11.89-9.94 12.89-9.36ZM18.26-4.39C18.89-4.01 19.78-3.87 20.54-4.62C19.98-4.57 19.70-4.68 19.29-4.92L12.57-8.79C11.52-9.40 11.06-9.86 10.61-10.58L9.76-11.92C9.49-12.35 9.41-12.66 9.47-12.96C9.43-12.90 9.39-12.86 9.35-12.80C8.96-12.12 9.02-11.31 9.57-10.38C10.24-9.27 10.88-8.65 12.16-7.89ZM8.41-6.34L8.96-5.95L7.77-4.23C7.58-3.96 7.66-3.62 7.91-3.45C8.17-3.27 8.52-3.30 8.70-3.59L9.90-5.30L10.45-4.90C10.84-4.63 11.27-4.90 11.23-5.37L11.02-7.25C10.99-7.55 10.72-7.72 10.43-7.65L8.59-7.21C8.16-7.10 8.03-6.62 8.41-6.34Z" fill="currentColor"/>
</svg>