<svg xmlns="http://www.w3.org/2000/svg" viewBox="0 0 24 24" width="24" height="24">
  
  <path transform="matrix(0.8080808080808081, 0, 0, 0.8080808080808081, 0.30492424242424243, 18.83712121212121)" d="M14.47 3.91C21.30 3.91 26.85-1.63 26.85-8.46C26.85-15.29 21.30-20.84 14.47-20.84C7.64-20.84 2.10-15.29 2.10-8.46C2.10-1.63 7.64 3.91 14.47 3.91ZM14.47 0.83C9.34 0.83 5.18-3.33 5.18-8.46C5.18-13.61 9.34-17.75 14.47-17.75C19.62-17.75 23.77-13.61 23.77-8.46C23.77-3.33 19.62 0.83 14.47 0.83ZM10.66-7.08L13.70-7.08L13.70-3.87L12.33-3.87C11.91-3.87 11.55-3.53 11.55-3.11C11.55-2.70 11.91-2.36 12.33-2.36L16.61-2.36C17.03-2.36 17.36-2.70 17.36-3.11C17.36-3.53 17.03-3.87 16.61-3.87L15.21-3.87L15.21-7.08L17.72-7.08C18.21-7.08 18.49-7.23 18.83-7.56L20.25-8.92C20.92-9.56 20.93-10.23 20.24-10.88L18.83-12.23C18.49-12.56 18.21-12.70 17.72-12.70L15.21-12.70L15.21-13.82C15.21-14.24 14.88-14.58 14.47-14.58C14.04-14.58 13.70-14.24 13.70-13.82L13.70-12.70L10.66-12.70C9.82-12.70 9.33-12.22 9.33-11.39L9.33-8.40C9.33-7.57 9.82-7.08 10.66-7.08Z" fill="currentColor"/>
</svg>