<svg xmlns="http://www.w3.org/2000/svg" viewBox="0 0 24 24" width="24" height="24">
  
  <path transform="matrix(0.7475543875018251, 0, 0, 0.7475543875018251, 0.10775295663600515, 18.346911957950066)" d="M2.99-2.65C2.99-0.18 4.36 1.20 6.82 1.20L8.12 1.20L8.12-2.71L7.31-2.71C6.36-2.71 5.74-3.32 5.74-4.28L5.74-7.62L8.12-7.62L8.12-9.32L5.74-9.32L5.74-10.95C5.74-11.92 6.36-12.53 7.31-12.53L8.12-12.53L8.12-14.32C8.12-17.85 10.35-20.07 13.85-20.07L17.06-20.07L16.54-20.61C15.68-21.46 14.64-21.87 13.29-21.87L6.82-21.87C4.36-21.87 2.99-20.48 2.99-18.01ZM10.02 1.03C10.02 3.50 11.39 4.89 13.85 4.89L25.00 4.89C27.46 4.89 28.83 3.50 28.83 1.03L28.83-9.77C28.83-11.05 28.45-12.04 27.66-12.83L23.57-16.92C22.72-17.77 21.68-18.18 20.32-18.18L13.85-18.18C11.40-18.18 10.02-16.79 10.02-14.32ZM14.17-5.64L14.17-7.27C14.17-8.23 14.79-8.84 15.74-8.84L20.48-8.84L20.48 0.97L18.54 0.97L18.54-4.71C18.54-5.29 18.19-5.64 17.60-5.64ZM22.18 0.97L22.18-8.84L23.06-8.84C24.01-8.84 24.62-8.23 24.62-7.27L24.62-0.60C24.62 0.36 24.01 0.97 23.06 0.97ZM14.17-0.60L14.17-3.93L16.58-3.93C16.73-3.93 16.84-3.84 16.84-3.68L16.84 0.97L15.74 0.97C14.79 0.97 14.17 0.36 14.17-0.60Z" fill="currentColor"/>
</svg>