<svg xmlns="http://www.w3.org/2000/svg" viewBox="0 0 24 24" width="24" height="24">
  
  <path transform="matrix(0.7442511835638946, 0, 0, 0.7442511835638946, 1.2287084566241027, 19.086954351831945)" d="M14.47 3.91C21.30 3.91 26.85-1.64 26.85-8.46C26.85-14.43 22.63-19.41 17.00-20.58L17.00-22.03C17.00-22.97 16.21-23.20 15.53-22.70L11.65-19.79C11.14-19.43 11.16-18.81 11.65-18.43L15.54-15.55C16.21-15.06 17.00-15.28 17.00-16.21L17.00-17.41C20.92-16.31 23.77-12.73 23.77-8.46C23.77-3.33 19.62 0.83 14.47 0.83C9.34 0.83 5.18-3.33 5.18-8.46C5.18-11.27 6.41-13.71 8.41-15.45C9.08-16.11 9.30-17.02 8.70-17.73C8.14-18.38 7.16-18.47 6.38-17.73C3.68-15.42 2.10-12.05 2.10-8.46C2.10-1.64 7.64 3.91 14.47 3.91ZM9.38-9.97L13.96-9.97C14.33-9.09 15.20-8.47 16.22-8.47C17.23-8.47 18.09-9.09 18.47-9.97L19.61-9.97C20.10-9.97 20.54-10.39 20.54-10.95C20.54-11.46 20.10-11.89 19.61-11.89L18.48-11.89C18.11-12.77 17.23-13.41 16.22-13.41C15.20-13.41 14.32-12.77 13.95-11.89L9.38-11.89C8.84-11.89 8.40-11.46 8.40-10.95C8.40-10.39 8.84-9.97 9.38-9.97ZM16.22-10.00C15.69-10.00 15.28-10.42 15.28-10.95C15.28-11.47 15.69-11.87 16.22-11.87C16.73-11.87 17.14-11.47 17.14-10.95C17.14-10.42 16.73-10.00 16.22-10.00ZM9.33-4.13L10.46-4.13C10.84-3.25 11.71-2.63 12.73-2.63C13.75-2.63 14.63-3.25 15-4.13L19.56-4.13C20.10-4.13 20.54-4.56 20.54-5.10C20.54-5.61 20.10-6.05 19.56-6.05L15-6.05C14.63-6.94 13.75-7.56 12.73-7.56C11.71-7.56 10.84-6.94 10.46-6.05L9.33-6.05C8.84-6.05 8.40-5.61 8.40-5.10C8.40-4.56 8.84-4.13 9.33-4.13ZM12.73-4.16C12.21-4.16 11.79-4.57 11.79-5.10C11.79-5.63 12.21-6.04 12.73-6.04C13.25-6.04 13.68-5.63 13.68-5.10C13.68-4.57 13.25-4.16 12.73-4.16Z" fill="currentColor"/>
</svg>