<svg xmlns="http://www.w3.org/2000/svg" viewBox="0 0 24 24" width="24" height="24">
  
  <path transform="matrix(0.8080808080808081, 0, 0, 0.8080808080808081, 0.30492424242424243, 18.83712121212121)" d="M14.47 3.91C21.30 3.91 26.85-1.63 26.85-8.46C26.85-15.29 21.30-20.84 14.47-20.84C7.64-20.84 2.10-15.29 2.10-8.46C2.10-1.63 7.64 3.91 14.47 3.91ZM14.47-3.50C11.73-3.50 9.52-5.72 9.52-8.46C9.52-11.20 11.73-13.42 14.47-13.42C17.21-13.42 19.43-11.20 19.43-8.46C19.43-5.72 17.21-3.50 14.47-3.50ZM14.47-6.09C15.79-6.09 16.85-7.15 16.85-8.46C16.85-9.77 15.79-10.84 14.47-10.84C13.16-10.84 12.11-9.77 12.11-8.46C12.11-7.15 13.16-6.09 14.47-6.09Z" fill="currentColor"/>
</svg>