<svg xmlns="http://www.w3.org/2000/svg" viewBox="0 0 24 24" width="24" height="24">
  <title>smoke.fill</title>
  <path transform="matrix(0.6823937091829935, 0, 0, 0.6823937091829935, 1.0083966413434626, 17.781687325069974)" d="M4.34-4.14C4.80-6.61 6.55-8.24 8.67-8.60C9.54-11.34 11.98-12.90 14.70-12.90C15.06-12.90 15.41-12.86 15.75-12.82C16.91-14.64 18.89-15.41 21.25-15.23C20.66-16.37 19.28-17.18 17.55-17.18C17.03-17.18 16.55-17.10 16.07-16.95C14.88-18.54 13.23-19.35 11.32-19.35C8.26-19.35 5.71-17.03 5.32-14.05C3.05-13.39 1.45-11.33 1.45-8.93C1.45-7.02 2.33-5.27 4.34-4.14ZM10.72 2.40L25.20 2.40C28.46 2.40 30.76 0.09 30.76-2.92C30.76-5.32 29.16-7.39 26.89-8.05C26.51-11.03 23.98-13.35 20.92-13.35C19.00-13.35 17.27-12.46 16.18-10.93C15.75-11.04 15.33-11.10 14.87-11.10C12.55-11.10 10.52-9.48 10.00-7.28C7.55-6.97 5.71-4.93 5.71-2.48C5.71 0.28 7.78 2.40 10.72 2.40Z" fill="currentColor"/>
</svg>