<svg xmlns="http://www.w3.org/2000/svg" viewBox="0 0 24 24" width="24" height="24">
  <title>snowflake</title>
  <path transform="matrix(0.8130788228021487, 0, 0, 0.8130788228021487, 1.496127433146396, 18.884089929750868)" d="M2.26-2.32C2.58-1.73 3.26-1.56 3.83-1.90L5.66-2.94L5.66-1.09C5.66-0.50 6.05-0.07 6.61-0.08C7.18-0.07 7.58-0.50 7.58-1.09L7.58-4.05L8.88-4.82L12.09-7.05L11.77-3.14L11.77-1.63L9.19-0.15C8.70 0.14 8.52 0.70 8.81 1.20C9.09 1.68 9.64 1.80 10.15 1.51L11.77 0.59L11.77 2.68C11.77 3.35 12.26 3.83 12.90 3.83C13.57 3.84 14.06 3.35 14.06 2.68L14.06 0.59L15.68 1.51C16.18 1.80 16.73 1.68 17.02 1.20C17.31 0.70 17.13 0.14 16.64-0.15L14.06-1.63L14.06-3.15L13.72-7.07L16.95-4.82L18.26-4.05L18.25-1.09C18.25-0.50 18.66-0.08 19.23-0.08C19.78-0.08 20.18-0.50 20.17-1.09L20.18-2.94L22.00-1.90C22.57-1.57 23.24-1.73 23.58-2.33C23.91-2.88 23.71-3.55 23.14-3.89L21.33-4.93L22.93-5.87C23.44-6.16 23.61-6.71 23.33-7.20C23.05-7.69 22.48-7.83 21.97-7.54L19.41-6.05L18.09-6.80L14.54-8.46L18.09-10.13L19.41-10.89L21.96-9.40C22.46-9.11 23.04-9.25 23.32-9.74C23.60-10.22 23.44-10.77 22.93-11.06L21.33-11.99L23.13-13.04C23.72-13.38 23.91-14.05 23.57-14.63C23.24-15.19 22.57-15.35 22.00-15.04L20.17-13.98L20.17-15.84C20.17-16.42 19.78-16.85 19.22-16.84C18.64-16.85 18.25-16.42 18.25-15.84L18.25-12.87L16.96-12.12L13.72-9.87L14.06-13.77L14.06-15.29L16.64-16.77C17.13-17.06 17.31-17.63 17.02-18.12C16.73-18.60 16.18-18.73 15.68-18.43L14.06-17.51L14.06-19.61C14.06-20.27 13.57-20.77 12.90-20.77C12.26-20.77 11.77-20.27 11.77-19.61L11.77-17.51L10.15-18.43C9.64-18.73 9.09-18.60 8.81-18.12C8.52-17.63 8.70-17.06 9.19-16.77L11.77-15.29L11.77-13.78L12.09-9.88L8.87-12.12L7.57-12.87L7.58-15.83C7.58-16.42 7.17-16.84 6.60-16.84C6.05-16.84 5.65-16.42 5.66-15.83L5.65-13.98L3.84-15.02C3.26-15.35 2.60-15.19 2.27-14.63C1.93-14.06 2.11-13.38 2.68-13.04L4.51-11.99L2.89-11.05C2.39-10.76 2.21-10.21 2.50-9.73C2.78-9.23 3.35-9.09 3.86-9.39L6.43-10.89L7.73-10.14L11.30-8.47L7.73-6.80L6.42-6.04L3.87-7.54C3.36-7.82 2.78-7.69 2.51-7.20C2.21-6.70 2.39-6.16 2.89-5.87L4.50-4.93L2.70-3.89C2.12-3.55 1.93-2.89 2.26-2.32Z" fill="currentColor"/>
</svg>