<svg xmlns="http://www.w3.org/2000/svg" viewBox="0 0 24 24" width="24" height="24">
  <title>soccerball</title>
  <path transform="matrix(0.8080808080808081, 0, 0, 0.8080808080808081, 0.30492424242424243, 18.83712121212121)" d="M14.47 3.91C21.30 3.91 26.85-1.63 26.85-8.46C26.85-15.29 21.30-20.84 14.47-20.84C7.64-20.84 2.10-15.29 2.10-8.46C2.10-1.63 7.64 3.91 14.47 3.91ZM15.32-12.50L15.32-15.71L17.94-17.84C19.64-17.20 21.13-16.13 22.25-14.73L21.27-11.48L18.23-10.25ZM7.69-11.48L6.69-14.73C7.82-16.13 9.29-17.20 10.99-17.84L13.64-15.69L13.64-12.50L10.72-10.25ZM4.48-8.46L4.48-8.47L7.07-9.93L10.27-8.63L11.34-5.31L9.62-3.09L6.08-3.05C5.06-4.61 4.48-6.47 4.48-8.46ZM24.47-8.46C24.47-6.45 23.87-4.56 22.84-2.99L19.31-3.05L17.59-5.26L18.68-8.63L21.88-9.93L24.47-8.47ZM14.47 1.54C13.50 1.54 12.55 1.39 11.66 1.13L10.92-2.05L12.49-4.07L16.39-4.07L18.01-2.00L17.29 1.13C16.39 1.39 15.46 1.54 14.47 1.54Z" fill="currentColor"/>
</svg>