<svg xmlns="http://www.w3.org/2000/svg" viewBox="0 0 24 24" width="24" height="24">
  
  <path transform="matrix(0.6677099634846114, 0, 0, 0.6677099634846114, 0.004694835680751019, 14.754303599374023)" d="M2.99-2.68C2.99-0.87 4.04 0.23 5.91 0.23L30.02 0.23C31.89 0.23 32.94-0.87 32.94-2.68L32.94-6.89C32.94-7.77 32.23-8.48 31.35-8.48C30.47-8.48 29.75-7.77 29.75-6.89L29.75-3.47C29.75-3.12 29.48-2.85 29.13-2.85L6.80-2.85C6.42-2.85 6.18-3.11 6.18-3.47L6.18-6.89C6.18-7.77 5.46-8.48 4.58-8.48C3.70-8.48 2.99-7.77 2.99-6.89Z" fill="currentColor"/>
</svg>