<svg xmlns="http://www.w3.org/2000/svg" viewBox="0 0 24 24" width="24" height="24">
  
  <path transform="matrix(0.82130253448829, 0, 0, 0.82130253448829, 0.03657362848893153, 18.948989412897017)" d="M14.57 3.71C15.21 3.71 15.73 3.25 15.82 2.58C16.90-5.24 17.99-6.34 25.56-7.20C26.24-7.28 26.74-7.80 26.74-8.46C26.74-9.12 26.24-9.64 25.57-9.74C18.02-10.68 17.00-11.68 15.82-19.50C15.71-20.17 15.20-20.64 14.57-20.64C13.92-20.64 13.41-20.17 13.30-19.50C12.22-11.68 11.14-10.58 3.57-9.74C2.89-9.66 2.39-9.12 2.39-8.46C2.39-7.80 2.88-7.29 3.56-7.20C11.12-6.15 12.09-5.23 13.30 2.58C13.43 3.26 13.93 3.71 14.57 3.71Z" fill="currentColor"/>
</svg>