<svg xmlns="http://www.w3.org/2000/svg" viewBox="0 0 24 24" width="24" height="24">
  
  <path transform="matrix(0.687894666129249, 0, 0, 0.687894666129249, 2.834340991535671, 18.316001612253125)" d="M9.73-17.36L16.91-17.36C17.67-17.36 18.12-17.84 18.12-18.63L18.12-19.86C18.12-20.67 17.67-21.14 16.91-21.14L16.08-21.14C15.97-22.57 14.79-23.72 13.32-23.72C11.86-23.72 10.68-22.57 10.57-21.14L9.73-21.14C8.98-21.14 8.53-20.67 8.53-19.86L8.53-18.63C8.53-17.84 8.98-17.36 9.73-17.36ZM13.32-19.98C12.74-19.98 12.26-20.47 12.26-21.04C12.26-21.62 12.74-22.09 13.32-22.09C13.91-22.09 14.38-21.62 14.38-21.04C14.38-20.47 13.91-19.98 13.32-19.98ZM7.11 5.36L19.54 5.36C22.14 5.36 23.66 3.82 23.66 1.18L23.66-16.49C23.66-19.10 22.16-20.67 19.61-20.67L19.36-20.67C19.46-20.44 19.51-20.16 19.51-19.86L19.51-18.73C19.51-18.38 19.46-18.06 19.35-17.78L19.52-17.78C20.33-17.78 20.77-17.26 20.77-16.46L20.77 1.15C20.77 1.98 20.29 2.47 19.42 2.47L7.22 2.47C6.35 2.47 5.87 1.98 5.87 1.15L5.87-16.46C5.87-17.26 6.32-17.78 7.13-17.78L7.30-17.78C7.18-18.06 7.14-18.38 7.14-18.73L7.14-19.86C7.14-20.16 7.18-20.44 7.28-20.67L7.04-20.67C4.49-20.67 2.99-19.10 2.99-16.49L2.99 1.18C2.99 3.82 4.51 5.36 7.11 5.36ZM10.82-8.54C10.98-8.54 11.12-8.67 11.14-8.85C11.31-9.89 11.45-10.46 11.80-10.82C12.16-11.18 12.74-11.32 13.78-11.47C13.96-11.51 14.09-11.64 14.09-11.81C14.09-11.98 13.96-12.11 13.78-12.14C12.74-12.29 12.16-12.43 11.80-12.80C11.45-13.16 11.31-13.73 11.14-14.77C11.12-14.95 10.98-15.08 10.82-15.08C10.64-15.08 10.51-14.95 10.49-14.77C10.32-13.73 10.18-13.16 9.82-12.80C9.47-12.43 8.89-12.29 7.85-12.14C7.68-12.11 7.55-11.98 7.55-11.81C7.55-11.64 7.68-11.51 7.85-11.47C8.89-11.32 9.47-11.18 9.82-10.82C10.18-10.46 10.32-9.89 10.49-8.85C10.51-8.67 10.64-8.54 10.82-8.54ZM8.48-5.30L18.18-5.30C18.62-5.30 18.96-5.65 18.96-6.09C18.96-6.53 18.62-6.87 18.18-6.87L8.48-6.87C8.03-6.87 7.69-6.53 7.69-6.09C7.69-5.65 8.03-5.30 8.48-5.30ZM8.48-0.95L14.20-0.95C14.64-0.95 14.99-1.30 14.99-1.75C14.99-2.18 14.65-2.52 14.20-2.52L8.48-2.52C8.03-2.52 7.69-2.18 7.69-1.75C7.69-1.30 8.04-0.95 8.48-0.95Z" fill="currentColor"/>
</svg>