<svg xmlns="http://www.w3.org/2000/svg" viewBox="0 0 24 24" width="24" height="24">
  <title>speaker.wave.1</title>
  <path transform="matrix(0.8819982773471146, 0, 0, 0.8819982773471146, -1.3488372093023258, 19.452196382428944)" d="M6.75-3.08L10.02-3.08C10.09-3.08 10.17-3.06 10.24-3L15.14 1.38C15.83 2.00 16.36 2.30 17.07 2.30C18.12 2.30 18.91 1.50 18.91 0.46L18.91-17.32C18.91-18.36 18.12-19.20 17.05-19.20C16.38-19.20 15.88-18.90 15.14-18.25L10.24-13.90C10.16-13.83 10.09-13.80 10.02-13.80L6.75-13.80C4.82-13.80 3.80-12.74 3.80-10.71L3.80-6.18C3.80-4.14 4.82-3.08 6.75-3.08ZM7.15-5.78C6.84-5.78 6.68-5.94 6.68-6.25L6.68-10.63C6.68-10.95 6.84-11.11 7.15-11.11L10.66-11.11C11.00-11.11 11.25-11.18 11.53-11.44L15.68-15.23C15.74-15.28 15.80-15.32 15.87-15.32C15.96-15.32 16.03-15.25 16.03-15.14L16.03-1.76C16.03-1.65 15.96-1.57 15.87-1.57C15.81-1.57 15.74-1.61 15.68-1.65L11.53-5.45C11.26-5.70 11.00-5.78 10.66-5.78ZM22.93-2.88C23.60-2.47 24.43-2.64 24.87-3.25C25.88-4.63 26.47-6.50 26.47-8.46C26.47-10.42 25.88-12.27 24.87-13.68C24.43-14.29 23.60-14.44 22.93-14.02C22.21-13.56 22.04-12.69 22.64-11.73C23.24-10.83 23.57-9.67 23.57-8.46C23.57-7.24 23.23-6.08 22.64-5.18C22.05-4.22 22.21-3.35 22.93-2.88Z" fill="currentColor"/>
</svg>