<svg xmlns="http://www.w3.org/2000/svg" viewBox="0 0 24 24" width="24" height="24">
  <title>square.split.1x2</title>
  <path transform="matrix(0.8926080892608089, 0, 0, 0.8926080892608089, -0.6673640167364017, 19.5418410041841)" d="M2.99-15.52L2.99-1.38C2.99 1.29 4.44 2.75 7.10 2.75L21.28 2.75C23.94 2.75 25.39 1.29 25.39-1.38L25.39-15.52C25.39-18.19 23.94-19.65 21.28-19.65L7.10-19.65C4.44-19.65 2.99-18.19 2.99-15.52ZM6.01-15.19C6.01-16.13 6.47-16.63 7.46-16.63L20.92-16.63C21.91-16.63 22.37-16.13 22.37-15.19L22.37-9.89L6.01-9.89ZM7.46-0.27C6.47-0.27 6.01-0.77 6.01-1.71L6.01-7.01L22.37-7.01L22.37-1.71C22.37-0.77 21.91-0.27 20.92-0.27Z" fill="currentColor"/>
</svg>