<svg xmlns="http://www.w3.org/2000/svg" viewBox="0 0 24 24" width="24" height="24">
  <title>square.stack.fill</title>
  <path transform="matrix(0.6963144294845641, 0, 0, 0.6963144294845641, 2.452876376988984, 17.87923296613627)" d="M7.61-21.02L19.59-21.02C19.50-22.17 18.79-22.80 17.55-22.80L9.64-22.80C8.41-22.80 7.70-22.17 7.61-21.02ZM5.64-17.33L21.56-17.33C21.41-18.54 20.75-19.27 19.36-19.27L7.85-19.27C6.45-19.27 5.79-18.54 5.64-17.33ZM7.13 5.92L20.48 5.92C22.97 5.92 24.43 4.45 24.43 1.80L24.43-11.41C24.43-14.07 22.97-15.53 20.30-15.53L7.13-15.53C4.45-15.53 2.99-14.07 2.99-11.41L2.99 1.80C2.99 4.46 4.45 5.92 7.13 5.92Z" fill="currentColor"/>
</svg>