<svg xmlns="http://www.w3.org/2000/svg" viewBox="0 0 24 24" width="24" height="24">
  
  <path transform="matrix(0.8926080892608089, 0, 0, 0.8926080892608089, -0.6673640167364017, 19.5418410041841)" d="M14.19-10.49L23.05-19.35C22.55-19.55 21.95-19.65 21.26-19.65L7.13-19.65C6.43-19.65 5.84-19.55 5.33-19.35ZM12.15-8.45L3.29-17.31C3.09-16.80 2.99-16.22 2.99-15.54L2.99-1.36C2.99-0.68 3.09-0.08 3.29 0.42ZM16.23-8.45L25.09 0.41C25.29-0.08 25.39-0.68 25.39-1.36L25.39-15.54C25.39-16.22 25.29-16.80 25.09-17.31ZM14.19-6.41L5.33 2.46C5.84 2.66 6.43 2.75 7.13 2.75L21.26 2.75C21.95 2.75 22.55 2.66 23.05 2.46Z" fill="currentColor"/>
</svg>