<svg xmlns="http://www.w3.org/2000/svg" viewBox="0 0 24 24" width="24" height="24">
  <title>square.3.layers.3d.down.right.slash</title>
  <path transform="matrix(0.725919323572134, 0, 0, 0.725919323572134, 0.607703817494142, 18.189996554073062)" d="M14.79-13.37L19.34-16.01C19.43-16.05 19.51-16.00 19.51-15.90L19.51-13.58L16.38-11.78L18.53-9.63L24.43-13.04C24.53-13.10 24.61-13.04 24.61-12.94L24.61-4.35C24.61-4.22 24.61-4.13 24.57-4.02C24.54-3.93 24.50-3.82 24.47-3.70L26.79-1.38C26.99-1.58 27.13-1.80 27.23-2.04C27.45-2.44 27.50-2.89 27.50-3.49L27.50-14.07C27.50-16.38 25.51-17.04 23.88-16.10L22.41-15.25L22.41-17.03C22.41-19.35 20.41-20.00 18.79-19.07L17.47-18.30L17.47-19.86C17.47-22.17 15.48-22.83 13.86-21.89L9.05-19.10L11.19-16.97L14.40-18.83C14.51-18.89 14.59-18.83 14.59-18.73L14.59-16.64L12.64-15.52ZM26.72 3.56C27.11 3.94 27.74 3.95 28.11 3.56C28.49 3.18 28.50 2.55 28.11 2.17L4.92-21.01C4.54-21.40 3.90-21.40 3.52-21.01C3.14-20.64 3.14-19.99 3.52-19.62ZM6.81-1.08L7.92-1.72L7.92-0.35C7.92 2.12 9.66 2.95 11.74 1.75L13.02 1.01L13.02 2.61C13.02 5.09 14.75 5.91 16.84 4.70L22.42 1.49L20.30-0.63L16.09 1.83C15.98 1.89 15.90 1.83 15.90 1.72L15.90-5.02L13.02-7.89L13.02-2.32L10.99-1.14C10.89-1.08 10.80-1.13 10.80-1.23L10.80-9.68C10.80-9.77 10.82-9.91 10.89-10.02L8.38-12.53C8.06-12.08 7.92-11.36 7.92-10.63L7.92-5.05L6.06-3.96C5.96-3.90 5.88-3.96 5.88-4.05L5.88-13.41C5.88-13.70 5.96-13.89 6.18-14.05C6.30-14.14 6.43-14.24 6.57-14.33L4.48-16.43C4.34-16.34 4.21-16.24 4.08-16.15C3.28-15.52 2.99-14.78 2.99-13.46L2.99-3.18C2.99-0.70 4.73 0.12 6.81-1.08Z" fill="currentColor"/>
</svg>