<svg xmlns="http://www.w3.org/2000/svg" viewBox="0 0 24 24" width="24" height="24">
  
  <path transform="matrix(0.7302809870203966, 0, 0, 0.7302809870203966, -0.18228498074454436, 18.195977749251178)" d="M4.16-19.27L29.20-19.27C29.91-19.27 30.38-19.76 30.38-20.51C30.38-21.25 29.91-21.75 29.20-21.75L4.16-21.75C3.46-21.75 2.99-21.26 2.99-20.51C2.99-19.75 3.45-19.27 4.16-19.27ZM6-9.39L8.00-9.39C10.05-9.39 11.03-10.35 11.03-12.42L11.03-14.38C11.03-16.45 10.05-17.41 8.00-17.41L6-17.41C3.96-17.41 2.99-16.45 2.99-14.38L2.99-12.42C2.99-10.35 3.96-9.39 6-9.39ZM15.68-9.39L17.68-9.39C19.72-9.39 20.70-10.35 20.70-12.42L20.70-14.38C20.70-16.45 19.72-17.41 17.68-17.41L15.68-17.41C13.63-17.41 12.66-16.45 12.66-14.38L12.66-12.42C12.66-10.35 13.63-9.39 15.68-9.39ZM25.35-9.39L27.35-9.39C29.40-9.39 30.36-10.35 30.36-12.42L30.36-14.38C30.36-16.45 29.40-17.41 27.35-17.41L25.35-17.41C23.31-17.41 22.34-16.45 22.34-14.38L22.34-12.42C22.34-10.35 23.31-9.39 25.35-9.39ZM6-11.80C5.59-11.80 5.40-11.99 5.40-12.41L5.40-14.39C5.40-14.80 5.59-15 6-15L8.00-15C8.41-15 8.60-14.80 8.60-14.39L8.60-12.41C8.60-11.99 8.41-11.80 8.00-11.80ZM15.68-11.80C15.27-11.80 15.08-11.99 15.08-12.41L15.08-14.39C15.08-14.80 15.27-15 15.68-15L17.68-15C18.09-15 18.28-14.80 18.28-14.39L18.28-12.41C18.28-11.99 18.09-11.80 17.68-11.80ZM25.35-11.80C24.94-11.80 24.75-11.99 24.75-12.41L24.75-14.39C24.75-14.80 24.94-15 25.35-15L27.35-15C27.76-15 27.95-14.80 27.95-14.39L27.95-12.41C27.95-11.99 27.76-11.80 27.35-11.80ZM4.16-5.11L29.20-5.11C29.91-5.11 30.38-5.59 30.38-6.35C30.38-7.08 29.91-7.58 29.20-7.58L4.16-7.58C3.46-7.58 2.99-7.10 2.99-6.35C2.99-5.58 3.45-5.11 4.16-5.11ZM6.01 4.78L8.02 4.78C10.05 4.78 11.03 3.81 11.03 1.73L11.03-0.21C11.03-2.29 10.05-3.26 8.02-3.26L6.01-3.26C3.96-3.26 3-2.29 3-0.21L3 1.73C3 3.81 3.96 4.78 6.01 4.78ZM15.68 4.78L17.68 4.78C19.73 4.78 20.71 3.81 20.71 1.73L20.71-0.21C20.71-2.29 19.73-3.26 17.68-3.26L15.68-3.26C13.64-3.26 12.67-2.29 12.67-0.21L12.67 1.73C12.67 3.81 13.64 4.78 15.68 4.78ZM25.36 4.78L27.36 4.78C29.40 4.78 30.38 3.81 30.38 1.73L30.38-0.21C30.38-2.29 29.40-3.26 27.36-3.26L25.36-3.26C23.31-3.26 22.35-2.29 22.35-0.21L22.35 1.73C22.35 3.81 23.31 4.78 25.36 4.78ZM6.01 2.37C5.60 2.37 5.41 2.17 5.41 1.76L5.41-0.22C5.41-0.64 5.60-0.84 6.01-0.84L8.00-0.84C8.41-0.84 8.61-0.64 8.61-0.22L8.61 1.76C8.61 2.17 8.41 2.37 8.00 2.37ZM15.69 2.37C15.27 2.37 15.08 2.17 15.08 1.76L15.08-0.22C15.08-0.64 15.27-0.84 15.69-0.84L17.68-0.84C18.09-0.84 18.28-0.64 18.28-0.22L18.28 1.76C18.28 2.17 18.09 2.37 17.68 2.37ZM25.36 2.37C24.95 2.37 24.76 2.17 24.76 1.76L24.76-0.22C24.76-0.64 24.95-0.84 25.36-0.84L27.35-0.84C27.77-0.84 27.96-0.64 27.96-0.22L27.96 1.76C27.96 2.17 27.77 2.37 27.35 2.37Z" fill="currentColor"/>
</svg>