<svg xmlns="http://www.w3.org/2000/svg" viewBox="0 0 24 24" width="24" height="24">
  <title>staroflife.circle</title>
  <path transform="matrix(0.8080808080808081, 0, 0, 0.8080808080808081, 0.30492424242424243, 18.83712121212121)" d="M14.47 3.91C21.30 3.91 26.85-1.63 26.85-8.46C26.85-15.29 21.30-20.84 14.47-20.84C7.64-20.84 2.10-15.29 2.10-8.46C2.10-1.63 7.64 3.91 14.47 3.91ZM14.47 0.83C9.34 0.83 5.18-3.33 5.18-8.46C5.18-13.61 9.34-17.75 14.47-17.75C19.62-17.75 23.77-13.61 23.77-8.46C23.77-3.33 19.62 0.83 14.47 0.83ZM9.21-11.32C8.82-10.61 8.92-10.25 9.61-9.88L12.11-8.51L9.61-7.08C8.92-6.68 8.82-6.35 9.23-5.64L9.39-5.37C9.80-4.65 10.14-4.57 10.82-4.98L13.21-6.38L13.21-3.55C13.20-2.75 13.45-2.51 14.31-2.51L14.63-2.51C15.46-2.51 15.71-2.75 15.71-3.55L15.71-6.38L18.11-4.98C18.80-4.56 19.15-4.64 19.54-5.37L19.69-5.64C20.07-6.36 19.98-6.69 19.31-7.08L16.80-8.51L19.30-9.88C20.00-10.25 20.10-10.61 19.71-11.32L19.55-11.59C19.16-12.30 18.81-12.42 18.08-11.98L15.71-10.58L15.71-13.38C15.71-14.17 15.46-14.41 14.63-14.41L14.31-14.41C13.46-14.41 13.21-14.17 13.21-13.38L13.21-10.58L10.83-11.98C10.10-12.40 9.75-12.30 9.38-11.59Z" fill="currentColor"/>
</svg>