<svg xmlns="http://www.w3.org/2000/svg" viewBox="0 0 24 24" width="24" height="24">
  <title>steeringwheel.arrow.trianglehead.counterclockwise.and.clockwise</title>
  <path transform="matrix(0.5780150119507321, 0, 0, 0.5780150119507321, 3.634587424697413, 17.85379286617258)" d="M2.03-15.95L1.21-16.41C2.57-18.71 4.54-20.64 6.89-21.94C7.49-22.28 7.72-22.92 7.43-23.53C7.15-24.14 6.43-24.38 5.79-24C3.06-22.46 0.76-20.24-0.83-17.55L-1.58-17.98C-2.24-18.34-2.88-18.01-2.82-17.17L-2.57-13.44C-2.52-12.74-1.96-12.42-1.32-12.76L1.97-14.46C2.74-14.86 2.67-15.57 2.03-15.95ZM26.92-15.95C26.27-15.57 26.20-14.86 26.98-14.46L30.27-12.76C30.90-12.42 31.46-12.74 31.51-13.44L31.77-17.17C31.83-18.01 31.18-18.34 30.53-17.98L29.79-17.55C28.18-20.24 25.89-22.46 23.17-24C22.51-24.38 21.80-24.14 21.52-23.53C21.22-22.92 21.47-22.28 22.05-21.94C24.41-20.64 26.38-18.71 27.74-16.41ZM14.47 3.93C21.30 3.93 26.85-1.62 26.85-8.46C26.85-15.29 21.30-20.84 14.47-20.84C7.64-20.84 2.10-15.29 2.10-8.46C2.10-1.62 7.64 3.93 14.47 3.93ZM6.73-13.98C8.45-16.44 11.29-17.98 14.45-17.98C17.61-17.98 20.45-16.44 22.18-13.99C22.63-13.37 22.43-12.73 21.73-12.73L7.18-12.73C6.49-12.73 6.28-13.37 6.73-13.98ZM14.46-5.63C13.17-5.63 12.13-6.66 12.13-7.96C12.13-9.23 13.17-10.27 14.46-10.27C15.74-10.27 16.78-9.23 16.78-7.96C16.78-6.66 15.74-5.63 14.46-5.63ZM5.37-5.81C5.20-6.43 5.51-6.71 6.06-6.63C9.19-6.21 11.55-3.48 11.50-0.28C11.50 0.26 11.11 0.56 10.59 0.29C7.99-0.90 6.11-3.11 5.37-5.81ZM23.55-5.81C22.80-3.11 20.93-0.90 18.33 0.29C17.81 0.56 17.43 0.26 17.41-0.28C17.37-3.48 19.73-6.21 22.86-6.63C23.41-6.71 23.73-6.43 23.55-5.81Z" fill="currentColor"/>
</svg>