<svg xmlns="http://www.w3.org/2000/svg" viewBox="0 0 24 24" width="24" height="24">
  
  <path transform="matrix(0.8926080892608089, 0, 0, 0.8926080892608089, -0.6673640167364017, 19.552301255230127)" d="M7.13 2.74L21.26 2.74C23.94 2.74 25.39 1.29 25.39-1.36L25.39-15.55C25.39-18.20 23.94-19.66 21.26-19.66L7.13-19.66C4.45-19.66 2.99-18.21 2.99-15.55L2.99-1.36C2.99 1.29 4.45 2.74 7.13 2.74ZM7.45-0.28C6.52-0.28 6.01-0.74 6.01-1.73L6.01-15.18C6.01-16.17 6.52-16.64 7.45-16.64L20.93-16.64C21.87-16.64 22.37-16.17 22.37-15.18L22.37-1.73C22.37-0.74 21.87-0.28 20.93-0.28ZM10.68-3.39L17.17-3.39C17.68-3.39 18.06-3.71 18.06-4.23C18.06-4.77 17.65-5.07 17.17-5.07L12.62-5.07L12.62-5.13C13.41-5.53 13.75-6.42 13.75-7.32C13.75-7.56 13.72-7.76 13.69-7.93L16.35-7.93C16.70-7.93 16.95-8.17 16.95-8.48C16.95-8.80 16.70-9.04 16.35-9.04L13.43-9.04C13.30-9.53 13.25-9.83 13.25-10.18C13.25-11.32 14.17-11.91 15.45-11.91C15.84-11.91 16.28-11.86 16.55-11.80C16.72-11.77 16.91-11.74 17.10-11.74C17.53-11.74 17.81-12 17.81-12.41C17.81-12.95 17.40-13.21 16.86-13.34C16.34-13.50 15.86-13.56 15.13-13.56C12.97-13.56 11.17-12.50 11.17-10.41C11.17-9.96 11.25-9.53 11.39-9.04L10.31-9.04C9.96-9.04 9.71-8.81 9.71-8.48C9.71-8.16 9.96-7.93 10.31-7.93L11.64-7.93C11.70-7.69 11.73-7.46 11.73-7.24C11.73-6.34 11.31-5.59 10.51-5.19C10.15-4.99 9.81-4.70 9.81-4.24C9.81-3.71 10.18-3.39 10.68-3.39Z" fill="currentColor"/>
</svg>