<svg xmlns="http://www.w3.org/2000/svg" viewBox="0 0 24 24" width="24" height="24">
  <title>storefront.circle</title>
  <path transform="matrix(0.8080808080808081, 0, 0, 0.8080808080808081, 0.30492424242424243, 18.83712121212121)" d="M14.47 3.91C21.30 3.91 26.85-1.63 26.85-8.46C26.85-15.29 21.30-20.84 14.47-20.84C7.64-20.84 2.10-15.29 2.10-8.46C2.10-1.63 7.64 3.91 14.47 3.91ZM14.47 0.83C9.34 0.83 5.18-3.33 5.18-8.46C5.18-13.61 9.34-17.75 14.47-17.75C19.62-17.75 23.77-13.61 23.77-8.46C23.77-3.33 19.62 0.83 14.47 0.83ZM8.30-10.85L20.59-10.85L18.91-13.84C18.61-14.38 18.08-14.67 17.48-14.67L11.40-14.67C10.80-14.67 10.27-14.38 9.97-13.84ZM10.08-8.29C10.68-8.29 11.19-8.54 11.53-8.98C11.87-8.54 12.40-8.29 13.00-8.29C13.58-8.29 14.10-8.55 14.44-8.98C14.79-8.55 15.30-8.29 15.89-8.29C16.50-8.29 17.02-8.54 17.36-8.96C17.70-8.54 18.21-8.29 18.81-8.29C19.86-8.29 20.71-9.12 20.71-9.98L20.71-10.05L8.18-10.05L8.18-9.93C8.18-9.06 9.02-8.29 10.08-8.29ZM10.37-2.25L18.55-2.25C19.44-2.25 19.96-2.77 19.96-3.62L19.96-7.75C19.62-7.57 19.23-7.48 18.83-7.48C18.27-7.48 17.78-7.64 17.37-7.93C16.97-7.64 16.46-7.48 15.91-7.48C15.38-7.48 14.87-7.64 14.46-7.93C14.05-7.64 13.55-7.48 13.02-7.48C12.46-7.48 11.96-7.64 11.55-7.93C11.14-7.64 10.65-7.48 10.09-7.48C9.69-7.48 9.30-7.56 8.96-7.72L8.96-3.62C8.96-2.77 9.48-2.25 10.37-2.25ZM12.41-3.47L12.41-5.96C12.41-6.22 12.59-6.39 12.86-6.39L16.08-6.39C16.34-6.39 16.50-6.22 16.50-5.96L16.50-3.47Z" fill="currentColor"/>
</svg>