<svg xmlns="http://www.w3.org/2000/svg" viewBox="0 0 24 24" width="24" height="24">
  
  <path transform="matrix(0.7636092468307233, 0, 0, 0.7636092468307233, 0.035794183445191585, 18.40268456375839)" d="M10.57 4.71C12.15 4.71 13.46 3.70 13.92 2.29L21.74 2.29C22.20 3.62 23.47 4.58 24.96 4.58C26.84 4.58 28.35 3.07 28.35 1.18C28.35-0.69 26.84-2.20 24.96-2.20C24.53-2.20 24.12-2.12 23.73-1.98L21.89-3.82C27.35-4.00 28.27-8.39 28.27-11.61C28.27-16.79 24.62-21.48 18.55-21.48C17.45-21.48 16.68-20.66 16.68-19.55L16.68-12.83L12.87-12.83L8.02-17.70C7.68-18.02 7.29-18.19 6.83-18.19L4.23-18.19C3.55-18.19 2.99-17.63 2.99-16.95C2.99-16.27 3.55-15.70 4.23-15.70L6.52-15.70L9.39-12.83L7.45-12.83C6.80-12.83 6.28-12.32 6.28-11.66C6.28-11.02 6.80-10.49 7.45-10.49L7.92-8.03C8.38-5.53 10.39-3.96 13.64-3.82L11.91-2.09C11.50-2.25 11.05-2.33 10.57-2.33C8.61-2.33 7.04-0.77 7.04 1.18C7.04 3.15 8.61 4.71 10.57 4.71ZM19.02-18.61C19.02-18.88 19.20-19.04 19.45-19.04C22.08-19.04 25.30-16.96 25.83-12.83L19.02-12.83ZM14.10-6.16C11.75-6.16 10.52-7.02 10.23-8.46L9.83-10.49L25.86-10.49C25.68-8.39 24.83-6.16 21.55-6.16ZM13.92 0.07C13.86-0.09 13.80-0.26 13.72-0.41L17.13-3.82L18.41-3.82L21.91-0.32C21.84-0.19 21.80-0.06 21.75 0.07ZM10.57 2.87C9.63 2.87 8.89 2.12 8.89 1.18C8.89 0.25 9.63-0.48 10.57-0.48C11.52-0.48 12.25 0.25 12.25 1.18C12.25 2.12 11.52 2.87 10.57 2.87ZM24.96 2.87C24.02 2.87 23.29 2.12 23.29 1.18C23.29 0.25 24.02-0.48 24.96-0.48C25.90-0.48 26.64 0.25 26.64 1.18C26.64 2.12 25.90 2.87 24.96 2.87Z" fill="currentColor"/>
</svg>