<svg xmlns="http://www.w3.org/2000/svg" viewBox="0 0 24 24" width="24" height="24">
  <title>sun.snow.circle</title>
  <path transform="matrix(0.8080808080808081, 0, 0, 0.8080808080808081, 0.30492424242424243, 18.83712121212121)" d="M14.47 3.91C21.30 3.91 26.85-1.63 26.85-8.46C26.85-15.29 21.30-20.84 14.47-20.84C7.64-20.84 2.10-15.29 2.10-8.46C2.10-1.63 7.64 3.91 14.47 3.91ZM14.47 0.83C9.34 0.83 5.18-3.33 5.18-8.46C5.18-13.61 9.34-17.75 14.47-17.75C19.62-17.75 23.77-13.61 23.77-8.46C23.77-3.33 19.62 0.83 14.47 0.83ZM15.20-13.91L15.20-15.11C15.20-15.54 14.86-15.88 14.47-15.88C14.07-15.88 13.73-15.54 13.73-15.11L13.73-13.91C13.73-13.49 14.06-13.14 14.47-13.14C14.87-13.14 15.20-13.49 15.20-13.91ZM17.33-11.72C17.63-11.44 18.07-11.45 18.38-11.75L19.23-12.60C19.54-12.91 19.54-13.37 19.25-13.66C18.97-13.95 18.52-13.95 18.21-13.64L17.36-12.77C17.04-12.47 17.04-12.01 17.33-11.72ZM10.57-11.75C10.86-11.45 11.32-11.44 11.61-11.72C11.91-12.01 11.89-12.47 11.59-12.77L10.73-13.64C10.42-13.96 9.96-13.93 9.68-13.66C9.40-13.37 9.40-12.91 9.70-12.60ZM17.74-8.88C17.74-10.69 16.27-12.16 14.47-12.16C12.68-12.16 11.19-10.69 11.19-8.88C11.19-8.60 11.24-8.31 11.32-8.05L17.61-8.05C17.71-8.31 17.74-8.60 17.74-8.88ZM8.46-8.47L9.66-8.47C10.09-8.47 10.43-8.79 10.43-9.20C10.43-9.60 10.09-9.93 9.66-9.93L8.46-9.93C8.04-9.93 7.70-9.60 7.70-9.20C7.70-8.80 8.04-8.47 8.46-8.47ZM19.28-8.47L20.48-8.47C20.91-8.47 21.23-8.80 21.23-9.20C21.23-9.60 20.91-9.93 20.48-9.93L19.28-9.93C18.86-9.93 18.50-9.60 18.50-9.20C18.50-8.80 18.87-8.47 19.28-8.47ZM8.53-5.53L20.40-5.53C20.87-5.53 21.23-5.91 21.23-6.35C21.23-6.81 20.87-7.17 20.40-7.17L8.53-7.17C8.06-7.17 7.70-6.80 7.70-6.35C7.70-5.92 8.09-5.53 8.53-5.53ZM18.11-1.69C18.33-1.69 18.49-1.90 18.46-2.12L18.39-2.74L18.89-2.37C19.08-2.24 19.32-2.27 19.42-2.45C19.56-2.64 19.46-2.91 19.23-3L18.68-3.23L19.24-3.49C19.46-3.59 19.55-3.82 19.43-4.02C19.32-4.21 19.07-4.24 18.89-4.10L18.39-3.74L18.46-4.35C18.49-4.58 18.33-4.78 18.11-4.78C17.87-4.78 17.71-4.58 17.74-4.35L17.80-3.74L17.30-4.11C17.12-4.24 16.88-4.21 16.77-4.02C16.65-3.84 16.73-3.60 16.96-3.49L17.52-3.23L16.96-2.99C16.73-2.89 16.65-2.65 16.77-2.45C16.86-2.26 17.12-2.23 17.30-2.37L17.80-2.74L17.75-2.12C17.72-1.90 17.87-1.69 18.11-1.69ZM14.47-1.69C14.70-1.69 14.85-1.90 14.81-2.12L14.74-2.74L15.26-2.37C15.43-2.23 15.68-2.27 15.79-2.45C15.91-2.64 15.83-2.91 15.60-3L15.04-3.23L15.60-3.49C15.83-3.59 15.90-3.82 15.80-4.02C15.69-4.21 15.42-4.24 15.26-4.10L14.74-3.74L14.81-4.35C14.85-4.58 14.70-4.78 14.47-4.78C14.23-4.78 14.07-4.58 14.11-4.35L14.17-3.74L13.66-4.11C13.49-4.24 13.23-4.21 13.14-4.02C13.02-3.84 13.09-3.60 13.32-3.49L13.89-3.23L13.31-2.99C13.09-2.89 13.02-2.65 13.13-2.45C13.23-2.26 13.49-2.23 13.66-2.37L14.17-2.74L14.11-2.12C14.09-1.90 14.23-1.69 14.47-1.69ZM10.83-1.69C11.05-1.69 11.21-1.90 11.18-2.12L11.11-2.74L11.63-2.37C11.80-2.23 12.05-2.27 12.15-2.45C12.28-2.64 12.20-2.91 11.95-3L11.40-3.23L11.96-3.49C12.19-3.59 12.27-3.82 12.15-4.02C12.05-4.21 11.79-4.24 11.63-4.10L11.11-3.74L11.18-4.35C11.21-4.58 11.05-4.78 10.83-4.78C10.59-4.78 10.44-4.58 10.46-4.35L10.52-3.74L10.02-4.11C9.84-4.24 9.60-4.21 9.49-4.02C9.38-3.84 9.46-3.60 9.68-3.49L10.24-3.23L9.68-2.99C9.46-2.89 9.38-2.65 9.49-2.45C9.60-2.26 9.84-2.23 10.02-2.37L10.52-2.74L10.48-2.12C10.44-1.90 10.59-1.69 10.83-1.69Z" fill="currentColor"/>
</svg>