<svg xmlns="http://www.w3.org/2000/svg" viewBox="0 0 24 24" width="24" height="24">
  
  <path transform="matrix(0.8080808080808081, 0, 0, 0.8080808080808081, 0.30492424242424243, 18.83712121212121)" d="M14.47 3.91C21.30 3.91 26.85-1.63 26.85-8.46C26.85-15.29 21.30-20.84 14.47-20.84C7.64-20.84 2.10-15.29 2.10-8.46C2.10-1.63 7.64 3.91 14.47 3.91ZM14.47 0.83C9.34 0.83 5.18-3.33 5.18-8.46C5.18-13.61 9.34-17.75 14.47-17.75C19.62-17.75 23.77-13.61 23.77-8.46C23.77-3.33 19.62 0.83 14.47 0.83ZM14.50-10.72C14.87-10.72 15.19-11.06 15.19-11.44L15.19-13.21L15.15-13.54L15.20-13.51L15.73-12.94C15.84-12.79 16.04-12.67 16.25-12.67C16.61-12.67 16.89-12.95 16.89-13.29C16.89-13.50 16.78-13.68 16.63-13.83L14.99-15.36C14.82-15.52 14.68-15.59 14.50-15.59C14.31-15.59 14.17-15.52 14.00-15.36L12.36-13.83C12.21-13.68 12.11-13.50 12.11-13.29C12.11-12.95 12.39-12.67 12.74-12.67C12.96-12.67 13.14-12.79 13.27-12.94L13.84-13.55L13.84-13.51L13.80-13.21L13.80-11.44C13.80-11.06 14.12-10.72 14.50-10.72ZM17.20-9.39C17.47-9.12 17.89-9.13 18.19-9.41L19.00-10.22C19.29-10.50 19.29-10.95 19.02-11.21C18.76-11.48 18.32-11.48 18.02-11.19L17.21-10.38C16.92-10.09 16.92-9.67 17.20-9.39ZM10.80-9.41C11.10-9.13 11.53-9.12 11.80-9.39C12.08-9.67 12.06-10.10 11.78-10.38L10.97-11.19C10.68-11.48 10.24-11.47 9.97-11.21C9.70-10.95 9.70-10.50 10.00-10.22ZM17.59-6.70C17.59-8.40 16.20-9.81 14.50-9.81C12.81-9.81 11.40-8.40 11.40-6.70C11.40-6.43 11.44-6.16 11.52-5.92L17.47-5.92C17.55-6.16 17.59-6.43 17.59-6.70ZM8.82-6.32L9.96-6.32C10.36-6.32 10.69-6.62 10.69-7.01C10.69-7.38 10.36-7.70 9.96-7.70L8.82-7.70C8.43-7.70 8.10-7.38 8.10-7.01C8.10-6.63 8.43-6.32 8.82-6.32ZM19.03-6.32L20.17-6.32C20.58-6.32 20.89-6.63 20.89-7.01C20.89-7.38 20.58-7.70 20.17-7.70L19.03-7.70C18.64-7.70 18.30-7.38 18.30-7.01C18.30-6.62 18.64-6.32 19.03-6.32ZM8.88-3.55L20.11-3.55C20.54-3.55 20.89-3.90 20.89-4.34C20.89-4.76 20.54-5.11 20.11-5.11L8.88-5.11C8.45-5.11 8.10-4.75 8.10-4.34C8.10-3.91 8.46-3.55 8.88-3.55Z" fill="currentColor"/>
</svg>