<svg xmlns="http://www.w3.org/2000/svg" viewBox="0 0 24 24" width="24" height="24">
  <title>sunrise.fill</title>
  <path transform="matrix(0.6658863311223826, 0, 0, 0.6658863311223826, 0.010144362075692692, 17.634022629730786)" d="M19.21-12.38L19.21-16.13L19.03-18.08L19.77-17.03L20.91-15.80C21.14-15.52 21.43-15.32 21.82-15.32C22.44-15.32 22.90-15.79 22.90-16.37C22.90-16.73 22.70-17.03 22.42-17.31L18.89-20.63C18.59-20.92 18.34-21.02 18.01-21.02C17.68-21.02 17.45-20.92 17.13-20.63L13.61-17.31C13.32-17.03 13.13-16.73 13.13-16.37C13.13-15.79 13.59-15.32 14.20-15.32C14.59-15.32 14.88-15.52 15.12-15.80L16.32-17.09L16.98-18.05L16.82-16.13L16.80-12.38C16.80-11.68 17.36-11.12 18.01-11.12C18.66-11.12 19.21-11.68 19.21-12.38ZM24.07-8.14C24.54-7.69 25.31-7.70 25.80-8.20L27.53-9.90C28.03-10.41 28.02-11.18 27.56-11.65C27.11-12.11 26.33-12.11 25.83-11.60L24.12-9.89C23.61-9.39 23.60-8.61 24.07-8.14ZM10.21-8.20C10.70-7.70 11.48-7.69 11.94-8.14C12.40-8.61 12.40-9.39 11.89-9.89L10.18-11.60C9.68-12.11 8.92-12.11 8.45-11.65C7.98-11.18 7.98-10.41 8.48-9.90ZM24.39-2.11C24.39-5.64 21.52-8.51 18.01-8.51C14.50-8.51 11.63-5.64 11.63-2.11C11.63-1.52 11.73-0.95 11.93-0.42L24.08-0.42C24.28-0.95 24.39-1.52 24.39-2.11ZM5.74-1.61L8.17-1.59C8.88-1.59 9.43-2.13 9.43-2.80C9.42-3.46 8.87-4.00 8.17-4.00L5.74-4.00C5.04-4.00 4.49-3.46 4.49-2.80C4.49-2.13 5.05-1.61 5.74-1.61ZM27.84-1.61L30.27-1.61C30.98-1.61 31.52-2.13 31.52-2.80C31.52-3.46 30.98-4.00 30.27-4.00L27.84-4.00C27.14-4.00 26.58-3.46 26.58-2.80C26.59-2.13 27.15-1.61 27.84-1.61ZM4.41 4.10L31.61 4.10C32.39 4.10 33.02 3.45 33.02 2.70C33.02 1.92 32.40 1.29 31.61 1.29L4.41 1.29C3.62 1.29 2.99 1.93 2.99 2.70C2.99 3.43 3.63 4.10 4.41 4.10Z" fill="currentColor"/>
</svg>