<svg xmlns="http://www.w3.org/2000/svg" viewBox="0 0 24 24" width="24" height="24">
  
  <path transform="matrix(0.6407412750937744, 0, 0, 0.6407412750937744, 0.2759395322416338, 16.87298058488834)" d="M4.18 6.50C5.82 8.14 8.00 8.43 10.72 7.39C15.02 5.73 19.98 2.16 24.57-2.44C33.18-11.04 36.02-17.92 32.31-21.62C28.62-25.32 21.74-22.48 13.14-13.89C8.53-9.29 4.96-4.34 3.30-0.02C2.26 2.68 2.54 4.86 4.18 6.50ZM5.98 0.50C7.88-3.61 11.16-8.03 15.07-11.94C22.11-18.98 27.32-21.77 29.92-20.05L5.75 4.10C5.19 3.22 5.25 2.06 5.98 0.50ZM22.63-4.37C18.71-0.47 14.31 2.81 10.18 4.71C8.63 5.44 7.46 5.50 6.59 4.93L30.74-19.23C32.46-16.63 29.67-11.41 22.63-4.37Z" fill="currentColor"/>
</svg>