<svg xmlns="http://www.w3.org/2000/svg" viewBox="0 0 24 24" width="24" height="24">
  <title>suv.side.hill.up.fill</title>
  <path transform="matrix(0.4985802348743664, 0, 0, 0.4985802348743664, 0.5079391749379796, 16.232015659666754)" d="M7.15-18.05L9.70-22.46C10.21-23.34 9.49-24.14 8.60-23.96L4.75-23.19C4.13-23.06 3.84-22.58 4.04-21.97L5.31-18.27C5.60-17.39 6.64-17.17 7.15-18.05ZM43.09-8.33L43.03-9.08C42.87-11.11 41.98-12.41 39.97-13.56L33.42-17.34C30.04-19.30 28.44-19.77 25.66-19.66L21.33-19.51L18.19-20.85C15.06-22.17 12.74-21.64 11.34-19.23L10.56-17.86C9.64-16.28 10.05-14.85 11.55-13.98L12.54-13.41C12.63-13.70 12.75-13.99 12.91-14.27C14.03-16.21 16.51-16.86 18.45-15.75C20.38-14.64 21.05-12.16 19.92-10.23C19.77-9.95 19.57-9.69 19.36-9.47L28.78-4.03C28.88-4.32 28.99-4.62 29.16-4.90C30.27-6.83 32.75-7.49 34.69-6.38C36.61-5.26 37.28-2.79 36.16-0.86C36-0.57 35.81-0.32 35.60-0.09L36.39 0.35C37.90 1.23 39.23 0.82 40.17-0.81L42.26-4.43C42.88-5.50 43.18-6.98 43.09-8.33ZM15.02-9.82C16.36-9.05 18.07-9.49 18.86-10.85C19.63-12.19 19.17-13.91 17.82-14.68C16.48-15.46 14.77-15 13.99-13.65C13.21-12.32 13.68-10.59 15.02-9.82ZM3.19-12.83C2.79-12.12 3.02-11.24 3.69-10.85L34.32 6.83C34.98 7.21 35.87 6.98 36.27 6.30C36.67 5.59 36.42 4.71 35.77 4.32L5.13-13.35C4.46-13.73 3.57-13.51 3.19-12.83ZM31.25-0.45C32.60 0.33 34.31-0.13 35.10-1.46C35.87-2.81 35.40-4.54 34.07-5.31C32.73-6.08 31.00-5.63 30.22-4.28C29.45-2.94 29.92-1.22 31.25-0.45Z" fill="currentColor"/>
</svg>