<svg xmlns="http://www.w3.org/2000/svg" viewBox="0 0 24 24" width="24" height="24">
  
  <path transform="matrix(0.46251129177958444, 0, 0, 0.46251129177958444, 0.6178861788617886, 15.867208672086722)" d="M12.97 1.75C14.84 1.75 16.42 0.64 17.12-0.94L32.50-0.94C33.20 0.64 34.78 1.75 36.64 1.75C38.50 1.75 40.09 0.64 40.79-0.94L42.81-0.94C45.02-0.94 46.23-2.24 46.23-4.61L46.23-9.90C46.23-11.47 45.62-13.29 44.66-14.71L44.12-15.49C42.67-17.63 40.86-18.47 37.93-18.47L28.36-18.47C23.41-18.47 21.38-17.98 18.40-16.11L16.73-15.07L18.55-12.69L19.98-13.58C22.50-15.15 23.92-15.50 28.36-15.50L37.93-15.50C39.84-15.50 40.79-15.06 41.67-13.79L42.21-13.02C42.88-12.07 43.25-10.92 43.25-9.90L43.25-5.03C43.25-4.27 42.94-3.91 42.23-3.91L41.04-3.91C40.55-5.89 38.78-7.34 36.64-7.34C34.51-7.34 32.73-5.89 32.24-3.91L17.38-3.91C16.89-5.89 15.11-7.34 12.97-7.34C10.84-7.34 9.06-5.89 8.57-3.91L6.98-3.91C6.34-3.91 5.95-4.34 5.95-5.04L5.95-6.57C5.95-8.41 7.09-9.39 9.84-9.73L13.89-10.22L11.80-12.96L9.47-12.67C5.20-12.15 2.99-10.11 2.99-6.57L2.99-4.57C2.99-2.25 4.36-0.94 6.55-0.94L8.82-0.94C9.53 0.64 11.11 1.75 12.97 1.75ZM22.15-11.66L22.15-10.75L19.45-10.75C18.33-10.75 17.91-10.97 17.18-11.92L14.05-16.01C13.02-17.36 11.81-17.88 9.97-17.88L7.15-17.88C6.57-17.88 6.12-17.41 6.12-16.85C6.12-16.29 6.57-15.82 7.15-15.82L9.97-15.82C11.29-15.82 11.77-15.61 12.43-14.74L15.53-10.65C16.57-9.27 17.74-8.68 19.45-8.68L22.15-8.68L22.15-7.76C22.15-6.86 22.93-6.60 23.60-7.02L26.55-8.93C27.18-9.32 27.19-10.09 26.55-10.50L23.61-12.39C22.93-12.83 22.15-12.56 22.15-11.66ZM12.97-1.00C11.99-1.00 11.21-1.77 11.21-2.77C11.21-3.75 11.99-4.52 12.97-4.52C13.96-4.52 14.74-3.75 14.74-2.77C14.74-1.77 13.96-1.00 12.97-1.00ZM36.64-1.00C35.65-1.00 34.88-1.77 34.88-2.77C34.88-3.75 35.65-4.52 36.64-4.52C37.63-4.52 38.41-3.75 38.41-2.77C38.41-1.77 37.63-1.00 36.64-1.00Z" fill="currentColor"/>
</svg>