<svg xmlns="http://www.w3.org/2000/svg" viewBox="0 0 24 24" width="24" height="24">
  
  <path transform="matrix(0.4813488814261379, 0, 0, 0.4813488814261379, 0.561084062671191, 16.107940042976086)" d="M35.10-24.61L34.42-24.94C32.58-25.82 31.01-25.69 29.00-24.53L22.46-20.75C19.08-18.80 17.87-17.65 16.57-15.19L14.53-11.36L11.81-9.30C9.09-7.25 8.39-4.99 9.79-2.58L10.58-1.21C11.50 0.39 12.95 0.74 14.44-0.13L15.43-0.70C15.22-0.91 15.02-1.17 14.86-1.45C13.75-3.39 14.41-5.87 16.35-6.98C18.28-8.10 20.75-7.44 21.87-5.50C22.03-5.23 22.16-4.92 22.24-4.63L31.66-10.08C31.45-10.30 31.27-10.55 31.10-10.83C29.99-12.76 30.66-15.25 32.59-16.36C34.51-17.47 37.00-16.82 38.11-14.88C38.27-14.60 38.40-14.31 38.48-14.02L39.27-14.46C40.78-15.34 41.10-16.70 40.16-18.32L38.06-21.95C37.44-23.02 36.32-24.02 35.10-24.61ZM36.01-10.43C37.36-11.20 37.82-12.91 37.04-14.26C36.27-15.61 34.55-16.07 33.21-15.29C31.86-14.51 31.39-12.79 32.17-11.45C32.95-10.10 34.66-9.64 36.01-10.43ZM11.24 7.71C11.66 8.41 12.55 8.64 13.21 8.26L43.83-9.43C44.50-9.81 44.74-10.70 44.36-11.39C43.95-12.09 43.05-12.32 42.39-11.94L11.77 5.75C11.11 6.14 10.85 7.03 11.24 7.71ZM19.77-1.04C21.12-1.83 21.59-3.54 20.80-4.89C20.03-6.23 18.30-6.68 16.97-5.91C15.62-5.13 15.15-3.42 15.94-2.07C16.71-0.73 18.43-0.27 19.77-1.04ZM8.71 1.66L6.15-2.77C5.65-3.64 4.61-3.42 4.31-2.55L3.06 1.16C2.85 1.77 3.13 2.26 3.76 2.38L7.59 3.14C8.50 3.33 9.21 2.53 8.71 1.66Z" fill="currentColor"/>
</svg>