<svg xmlns="http://www.w3.org/2000/svg" viewBox="0 0 24 24" width="24" height="24">
  <title>swedishkronasign.circle</title>
  <path transform="matrix(0.8080808080808081, 0, 0, 0.8080808080808081, 0.30492424242424243, 18.83712121212121)" d="M14.47 3.91C21.30 3.91 26.85-1.63 26.85-8.46C26.85-15.29 21.30-20.84 14.47-20.84C7.64-20.84 2.10-15.29 2.10-8.46C2.10-1.63 7.64 3.91 14.47 3.91ZM14.47 0.83C9.34 0.83 5.18-3.33 5.18-8.46C5.18-13.61 9.34-17.75 14.47-17.75C19.62-17.75 23.77-13.61 23.77-8.46C23.77-3.33 19.62 0.83 14.47 0.83ZM10.64-4.10C11.16-4.10 11.51-4.46 11.51-4.99L11.51-6.39L12.06-6.93L13.57-4.64C13.76-4.32 14.00-4.10 14.40-4.10C14.85-4.10 15.23-4.43 15.23-4.85C15.23-5.13 15.14-5.30 15-5.51L13.34-7.92L14.89-9.52C15.12-9.75 15.22-9.93 15.22-10.17C15.22-10.59 14.89-10.92 14.45-10.92C14.18-10.92 13.93-10.78 13.76-10.58L11.54-8.13L11.51-8.13L11.51-12.52C11.51-13.04 11.16-13.42 10.64-13.42C10.14-13.42 9.77-13.05 9.77-12.53L9.77-4.99C9.77-4.46 10.14-4.10 10.64-4.10ZM17.25-4.10C17.68-4.10 18.06-4.41 18.06-4.99L18.06-7.93C18.06-8.64 18.28-9.27 19.09-9.28C19.37-9.28 19.68-9.34 19.88-9.50C20.05-9.62 20.16-9.82 20.16-10.10C20.16-10.61 19.84-10.92 19.35-10.92C18.63-10.92 18.20-10.29 18.07-9.57L17.99-9.57L17.99-10.07C17.99-10.57 17.68-10.92 17.21-10.92C16.75-10.92 16.43-10.57 16.43-10.07L16.43-4.99C16.43-4.46 16.75-4.10 17.25-4.10Z" fill="currentColor"/>
</svg>