<svg xmlns="http://www.w3.org/2000/svg" viewBox="0 0 24 24" width="24" height="24">
  <title>swedishkronasign.ring</title>
  <path transform="matrix(0.7531626949102678, 0, 0, 0.7531626949102678, 0.42453662842012374, 18.372462488967344)" d="M15.38 4.82C22.68 4.82 28.64-1.15 28.64-8.46C28.64-15.77 22.68-21.74 15.38-21.74C8.06-21.74 2.10-15.77 2.10-8.46C2.10-1.15 8.06 4.82 15.38 4.82ZM15.38 0.19C10.59 0.19 6.73-3.68 6.73-8.46C6.73-13.24 10.59-17.11 15.38-17.11C20.14-17.11 24.01-13.24 24.01-8.46C24.01-3.68 20.14 0.19 15.38 0.19ZM11.54-4.10C12.06-4.10 12.41-4.46 12.41-4.99L12.41-6.39L12.96-6.93L14.47-4.64C14.66-4.32 14.91-4.10 15.30-4.10C15.75-4.10 16.14-4.43 16.14-4.85C16.14-5.13 16.05-5.30 15.91-5.51L14.24-7.92L15.80-9.52C16.02-9.75 16.13-9.93 16.13-10.17C16.13-10.59 15.80-10.92 15.35-10.92C15.08-10.92 14.84-10.78 14.66-10.58L12.45-8.13L12.41-8.13L12.41-12.52C12.41-13.04 12.06-13.42 11.54-13.42C11.04-13.42 10.68-13.05 10.68-12.53L10.68-4.99C10.68-4.46 11.04-4.10 11.54-4.10ZM18.15-4.10C18.59-4.10 18.96-4.41 18.96-4.99L18.96-7.93C18.96-8.64 19.18-9.27 19.99-9.28C20.27-9.28 20.58-9.34 20.78-9.50C20.95-9.62 21.06-9.82 21.06-10.10C21.06-10.61 20.74-10.92 20.25-10.92C19.54-10.92 19.11-10.29 18.97-9.57L18.89-9.57L18.89-10.07C18.89-10.57 18.59-10.92 18.12-10.92C17.65-10.92 17.33-10.57 17.33-10.07L17.33-4.99C17.33-4.46 17.65-4.10 18.15-4.10Z" fill="currentColor"/>
</svg>