<svg xmlns="http://www.w3.org/2000/svg" viewBox="0 0 24 24" width="24" height="24">
  <title>swiftdata</title>
  <path transform="matrix(0.7340501792114695, 0, 0, 0.7340501792114695, 0.2451612903225806, 18.262891967954985)" d="M23.78-10.24C23.78-14.26 21.93-18.07 19.13-20.67C20.50-18.71 22.36-15.74 22.36-11.61C22.36-10.10 21.96-8.46 21.62-7.64C18-9.73 11.06-15.50 8.30-18.46C10.52-15.04 13.16-11.95 16.08-8.71C12.15-11.19 8.50-13.97 5.07-17.03C8.36-12.28 12.48-7.61 17.94-3.20C16.37-2.33 14.78-1.64 12.02-1.64C8.70-1.64 4.61-3.26 2.39-5.06C4.99-2.23 8.91-0.08 13.08-0.08C18.79-0.08 23.78-3.54 23.78-10.24ZM20.96-19.39C23.12-16.69 24.55-13.22 24.55-9.75C24.55-3.62 20.03 0.70 13.61 0.70C9.81 0.70 6.42-1.05 4.41-2.44C7.13 0.45 11.11 2.31 14.26 2.31C20.75 2.31 26.23-2.12 26.23-8.74C26.23-12.91 24.22-16.72 20.96-19.39ZM27.80-6.88C27.80-8.80 27.21-11.51 25.62-14.21C26.37-12.30 26.85-10.15 26.85-8.03C26.85-0.94 21.09 2.93 14.23 2.93C13.73 2.93 13.25 2.92 12.79 2.87C13.96 3.26 15.61 3.49 17.11 3.49C21.73 3.49 23.00 1.34 25.68 1.34C27.91 1.34 28.80 2.84 29.14 3.42C29.24 3.61 29.41 3.74 29.52 3.39C29.58 3.12 29.64 2.78 29.64 2.36C29.64 1.18 29.29-1.08 27.32-3.54C27.75-4.75 27.80-6.08 27.80-6.88Z" fill="currentColor"/>
</svg>