<svg xmlns="http://www.w3.org/2000/svg" viewBox="0 0 24 24" width="24" height="24">
  <title>syringe</title>
  <path transform="matrix(0.6856489440806172, 0, 0, 0.6856489440806172, 0.15297485599377358, 17.914653050002077)" d="M3.08 5.41C3.56 5.89 4.32 5.87 4.80 5.39L9 1.20L9.43 1.62C10.80 2.99 12.69 2.94 14.14 1.49L25.56-9.93L26.86-8.64C27.47-8.02 28.45-8.02 29.06-8.64C29.66-9.23 29.67-10.23 29.06-10.84L27.76-12.14L28.34-12.71C28.95-13.34 28.96-14.31 28.34-14.93L27.07-16.20L28.20-17.33L29.20-16.31C29.80-15.69 30.81-15.70 31.41-16.31C32.02-16.92 32.02-17.91 31.41-18.52L27.36-22.56C26.75-23.17 25.77-23.17 25.16-22.56C24.55-21.96 24.54-20.96 25.16-20.36L26.18-19.34L25.05-18.21L23.41-19.85C22.80-20.46 21.82-20.46 21.21-19.85L20.63-19.27L19.34-20.55C18.70-21.19 17.74-21.18 17.13-20.55C16.52-19.95 16.51-18.98 17.13-18.35L18.42-17.06L6.98-5.64C5.53-4.17 5.48-2.30 6.88-0.93L7.27-0.54L3.07 3.66C2.58 4.14 2.55 4.93 3.08 5.41ZM11.03-0.52L9-2.54C8.59-2.94 8.59-3.48 9-3.89L10.29-5.18L11.88-3.59C12.14-3.33 12.54-3.33 12.80-3.59C13.04-3.84 13.03-4.24 12.79-4.49L11.19-6.08L12.76-7.66L14.37-6.06C14.63-5.81 15.02-5.81 15.28-6.06C15.53-6.32 15.52-6.73 15.27-6.97L13.66-8.57L15.25-10.15L16.85-8.54C17.11-8.31 17.50-8.30 17.75-8.54C18-8.80 18-9.20 17.75-9.46L16.16-11.05L17.73-12.63L19.32-11.03C19.58-10.77 19.98-10.78 20.24-11.03C20.50-11.27 20.48-11.68 20.24-11.94L18.63-13.54L20.30-15.20L23.70-11.80L12.39-0.48C11.99-0.09 11.45-0.11 11.03-0.52Z" fill="currentColor"/>
</svg>