<svg xmlns="http://www.w3.org/2000/svg" viewBox="0 0 24 24" width="24" height="24">
  
  <path transform="matrix(0.8926080892608089, 0, 0, 0.8926080892608089, -0.6673640167364017, 19.552301255230127)" d="M7.13 2.74L21.26 2.74C23.94 2.74 25.39 1.29 25.39-1.36L25.39-15.55C25.39-18.20 23.94-19.66 21.26-19.66L7.13-19.66C4.45-19.66 2.99-18.21 2.99-15.55L2.99-1.36C2.99 1.29 4.45 2.74 7.13 2.74ZM14.25-2.78C13.21-2.78 12.62-3.47 12.62-4.59L12.62-11.63L10.51-11.63C9.68-11.63 9.16-12.09 9.16-12.87C9.16-13.65 9.68-14.11 10.51-14.11L18.02-14.11C18.84-14.11 19.36-13.65 19.36-12.87C19.36-12.09 18.84-11.63 18.02-11.63L15.89-11.63L15.89-4.59C15.89-3.47 15.29-2.78 14.25-2.78Z" fill="currentColor"/>
</svg>