<svg xmlns="http://www.w3.org/2000/svg" viewBox="0 0 24 24" width="24" height="24">
  <title>teletype</title>
  <path transform="matrix(0.725315200453322, 0, 0, 0.725315200453322, -0.16744581385465374, 18.13684657883553)" d="M16.78-19.97C11.91-19.97 6.98-19.05 4.55-16.57C3.55-15.57 2.99-14.32 2.99-12.87C2.99-11.54 3.41-10.03 4.84-9.98C5.12-9.94 5.41-9.96 5.75-10.02L9.13-10.57C10.32-10.77 10.89-11.21 11.20-12.36L11.77-14.40C11.87-14.80 12.04-14.96 12.47-15.13C13.44-15.46 14.87-15.66 16.78-15.64C18.68-15.64 20.11-15.46 21.08-15.13C21.52-14.96 21.68-14.80 21.79-14.40L22.35-12.36C22.66-11.21 23.23-10.77 24.42-10.57L27.80-10.02C28.14-9.96 28.43-9.94 28.71-9.98C30.14-10.03 30.56-11.54 30.56-12.87C30.56-14.32 30-15.57 29.00-16.57C26.57-19.05 21.64-19.97 16.78-19.97ZM6.08-3.36L8.41-3.36C9.27-3.36 9.76-3.84 9.76-4.72L9.76-7.05C9.76-7.93 9.27-8.41 8.41-8.41L6.08-8.41C5.21-8.41 4.70-7.93 4.70-7.05L4.70-4.72C4.70-3.84 5.21-3.36 6.08-3.36ZM12.49-3.36L14.81-3.36C15.68-3.36 16.18-3.84 16.18-4.72L16.18-7.05C16.18-7.93 15.68-8.41 14.81-8.41L12.49-8.41C11.61-8.41 11.10-7.93 11.10-7.05L11.10-4.72C11.10-3.84 11.61-3.36 12.49-3.36ZM18.89-3.36L21.20-3.36C22.08-3.36 22.58-3.84 22.58-4.72L22.58-7.05C22.58-7.93 22.08-8.41 21.20-8.41L18.89-8.41C18.01-8.41 17.52-7.93 17.52-7.05L17.52-4.72C17.52-3.84 18.01-3.36 18.89-3.36ZM25.28-3.36L27.60-3.36C28.48-3.36 29.00-3.84 29.00-4.72L29.00-7.05C29.00-7.93 28.48-8.41 27.60-8.41L25.28-8.41C24.42-8.41 23.93-7.93 23.93-7.05L23.93-4.72C23.93-3.84 24.42-3.36 25.28-3.36ZM6.06 3.05L8.38 3.05C9.26 3.05 9.76 2.57 9.76 1.69L9.76-0.66C9.76-1.52 9.26-2.03 8.38-2.03L6.06-2.03C5.19-2.03 4.70-1.52 4.70-0.66L4.70 1.69C4.70 2.57 5.19 3.05 6.06 3.05ZM12.46 3.05L21.25 3.05C22.13 3.05 22.61 2.57 22.61 1.69L22.61-0.66C22.61-1.52 22.13-2.03 21.25-2.03L12.46-2.03C11.59-2.03 11.10-1.52 11.10-0.66L11.10 1.69C11.10 2.57 11.59 3.05 12.46 3.05ZM25.32 3.05L27.64 3.05C28.52 3.05 29.00 2.57 29.00 1.69L29.00-0.66C29.00-1.52 28.52-2.03 27.64-2.03L25.32-2.03C24.45-2.03 23.94-1.52 23.94-0.66L23.94 1.69C23.94 2.57 24.45 3.05 25.32 3.05Z" fill="currentColor"/>
</svg>