<svg xmlns="http://www.w3.org/2000/svg" viewBox="0 0 24 24" width="24" height="24">
  
  <path transform="matrix(0.7531626949102678, 0, 0, 0.7531626949102678, 0.42453662842012374, 18.372462488967344)" d="M15.38 4.82C22.68 4.82 28.64-1.15 28.64-8.46C28.64-15.77 22.68-21.74 15.38-21.74C8.06-21.74 2.10-15.77 2.10-8.46C2.10-1.15 8.06 4.82 15.38 4.82ZM15.38 0.19C10.59 0.19 6.73-3.68 6.73-8.46C6.73-13.24 10.59-17.11 15.38-17.11C20.14-17.11 24.01-13.24 24.01-8.46C24.01-3.68 20.14 0.19 15.38 0.19ZM11.23-13.21C11.23-13.01 11.38-12.87 11.58-12.87L19.15-12.87C19.35-12.87 19.49-13.02 19.49-13.21C19.49-13.39 19.35-13.55 19.15-13.55L11.58-13.55C11.38-13.55 11.23-13.39 11.23-13.21ZM15.38-3.11C16.00-3.11 16.41-3.53 16.41-4.16L16.41-10.28L18.81-10.28C19.22-10.28 19.49-10.56 19.49-10.96C19.49-11.36 19.22-11.63 18.81-11.63L11.94-11.63C11.53-11.63 11.25-11.36 11.25-10.96C11.25-10.56 11.53-10.28 11.94-10.28L14.34-10.28L14.34-4.16C14.34-3.53 14.77-3.11 15.38-3.11Z" fill="currentColor"/>
</svg>