<svg xmlns="http://www.w3.org/2000/svg" viewBox="0 0 24 24" width="24" height="24">
  
  <path transform="matrix(0.8080808080808081, 0, 0, 0.8080808080808081, 0.30492424242424243, 18.83712121212121)" d="M14.47 3.91C21.30 3.91 26.85-1.63 26.85-8.46C26.85-15.29 21.30-20.84 14.47-20.84C7.64-20.84 2.10-15.29 2.10-8.46C2.10-1.63 7.64 3.91 14.47 3.91ZM14.47 0.83C9.34 0.83 5.18-3.33 5.18-8.46C5.18-13.61 9.34-17.75 14.47-17.75C19.62-17.75 23.77-13.61 23.77-8.46C23.77-3.33 19.62 0.83 14.47 0.83ZM8.65-3.06L9.01-2.68C9.32-2.38 9.77-2.38 10.08-2.68L12.25-4.85C12.46-5.09 12.52-5.36 12.42-5.61C13.68-6.70 14.57-6.81 16.08-6.86C17.27-6.90 18.46-7.28 19.42-8.23C21.07-9.89 21.27-12.40 19.82-13.83C18.38-15.27 15.87-15.08 14.21-13.44C13.28-12.48 12.87-11.27 12.86-10.11C12.82-8.60 12.70-7.70 11.63-6.46C11.36-6.56 11.05-6.50 10.83-6.28L8.65-4.09C8.37-3.79 8.34-3.36 8.65-3.06ZM16.35-13.45C16.79-13.63 17.24-13.69 17.67-13.64L16.92-12.88ZM18.98-13.00C19.15-12.83 19.29-12.64 19.39-12.45L18.38-11.43L17.51-12.29L18.55-13.34C18.70-13.24 18.86-13.14 18.98-13.00ZM15.07-12.60C15.23-12.76 15.40-12.91 15.57-13.04L16.32-12.29L15.42-11.39L14.67-12.14C14.79-12.30 14.92-12.46 15.07-12.60ZM16.01-10.79L16.92-11.71L17.79-10.83L16.89-9.93ZM18.97-10.83L19.64-11.50C19.65-11.13 19.59-10.73 19.44-10.36ZM14.24-11.39L14.84-10.79L14.02-9.98C13.96-10.43 14.04-10.92 14.24-11.39ZM18.59-9.07C18.43-8.93 18.28-8.80 18.13-8.68L17.47-9.34L18.38-10.24L19.02-9.60C18.90-9.41 18.75-9.23 18.59-9.07ZM14.65-8.67C14.52-8.80 14.40-8.95 14.32-9.11L15.42-10.21L16.30-9.33L15.23-8.25C15.02-8.36 14.82-8.50 14.65-8.67ZM16.16-8.02L16.89-8.74L17.38-8.25C16.97-8.07 16.56-8.00 16.16-8.02Z" fill="currentColor"/>
</svg>