<svg xmlns="http://www.w3.org/2000/svg" viewBox="0 0 24 24" width="24" height="24">
  
  <path transform="matrix(0.7754051188853551, 0, 0, 0.7754051188853551, 1.6274420717855524, 18.556110858700592)" d="M2.99 0.30C2.99 2.99 4.44 4.44 7.10 4.44L19.65 4.44C22.31 4.44 23.77 2.99 23.77 0.30L23.77-17.21C23.77-19.89 22.31-21.35 19.65-21.35L7.10-21.35C4.44-21.35 2.99-19.89 2.99-17.21ZM6.01-0.02L6.01-16.88C6.01-17.82 6.47-18.33 7.46-18.33L19.29-18.33C20.29-18.33 20.74-17.82 20.74-16.88L20.74-0.02C20.74 0.91 20.29 1.42 19.29 1.42L7.46 1.42C6.47 1.42 6.01 0.91 6.01-0.02ZM9.33-14.40L17.68-14.40C18.13-14.40 18.46-14.74 18.46-15.19C18.46-15.62 18.13-15.96 17.68-15.96L9.33-15.96C8.87-15.96 8.54-15.62 8.54-15.19C8.54-14.74 8.87-14.40 9.33-14.40ZM9.33-11.10L14.18-11.10C14.63-11.10 14.96-11.45 14.96-11.89C14.96-12.33 14.63-12.66 14.18-12.66L9.33-12.66C8.87-12.66 8.54-12.33 8.54-11.89C8.54-11.45 8.87-11.10 9.33-11.10ZM9.49-0.56L17.30-0.56C18.25-0.56 18.73-1.05 18.73-2.00L18.73-7.92C18.73-8.87 18.25-9.36 17.30-9.36L9.49-9.36C8.58-9.36 8.03-8.87 8.03-7.92L8.03-2.00C8.03-1.05 8.58-0.56 9.49-0.56Z" fill="currentColor"/>
</svg>