<svg xmlns="http://www.w3.org/2000/svg" viewBox="0 0 24 24" width="24" height="24">
  
  <path transform="matrix(0.4593214120449558, 0, 0, 0.4593214120449558, 0.5682090358911143, 15.326787479732229)" d="M4.86-3.20C5.80-3.20 6.41-3.66 6.71-4.72L7.68-7.56L14.06-7.56L15.02-4.72C15.33-3.64 15.93-3.20 16.86-3.20C17.94-3.20 18.69-3.84 18.69-4.88C18.69-5.30 18.63-5.63 18.49-6.05L13.89-19.14C13.42-20.54 12.47-21.19 10.90-21.19C9.40-21.19 8.47-20.54 8.00-19.15L3.32-5.91C3.19-5.52 3.12-5.17 3.12-4.83C3.12-3.80 3.82-3.20 4.86-3.20ZM22.15-3.14C23.19-3.14 23.85-3.76 23.85-4.82L23.85-5.65C24.50-4.10 25.95-3.13 27.88-3.13C31.23-3.13 33.29-5.71 33.29-9.86C33.29-14.02 31.22-16.58 27.87-16.58C26.04-16.58 24.59-15.60 23.88-14.00L23.88-19.21C23.88-20.24 23.19-20.93 22.18-20.93C21.18-20.93 20.48-20.24 20.48-19.21L20.48-4.82C20.48-3.76 21.12-3.14 22.15-3.14ZM8.45-10.22L10.84-17.75L10.97-17.75L13.35-10.22ZM40.93-3.13C43.44-3.13 45.63-4.41 46.43-6.21C46.57-6.54 46.63-6.84 46.63-7.09C46.63-7.91 45.97-8.47 45.16-8.47C44.40-8.47 44.02-8.14 43.61-7.46C43.05-6.43 42.22-5.80 40.98-5.80C39.16-5.80 38.00-7.29 38.00-9.91C38.00-12.50 39.16-14.02 40.99-14.02C42.16-14.02 43.00-13.44 43.61-12.23C43.95-11.63 44.38-11.33 45.08-11.33C45.90-11.33 46.57-11.84 46.57-12.67C46.57-12.93 46.49-13.22 46.39-13.48C45.68-15.39 43.52-16.69 40.90-16.69C37.01-16.69 34.54-14.03 34.54-9.90C34.54-5.73 37.02-3.13 40.93-3.13ZM26.87-5.86C25.11-5.86 23.88-7.39 23.88-9.84C23.88-12.30 25.11-13.86 26.87-13.86C28.65-13.86 29.81-12.34 29.81-9.86C29.81-7.37 28.66-5.86 26.87-5.86ZM8.71 5.73L8.71 4.15L41.30 4.15L41.30 5.73C41.30 6.66 42.19 6.98 42.93 6.43L46.31 3.86C46.78 3.50 46.77 2.82 46.31 2.47L42.93-0.09C42.19-0.67 41.30-0.33 41.30 0.61L41.30 2.18L8.71 2.18L8.71 0.61C8.71-0.33 7.83-0.67 7.08-0.09L3.69 2.47C3.22 2.84 3.22 3.50 3.69 3.86L7.08 6.43C7.79 6.97 8.71 6.67 8.71 5.73Z" fill="currentColor"/>
</svg>