<svg xmlns="http://www.w3.org/2000/svg" viewBox="0 0 24 24" width="24" height="24">
  
  <path transform="matrix(1.4662084765177548, 0, 0, 1.4662084765177548, -1.2817869415807541, 24.40549828178694)" d="M4.58-1.64C5.41-1.64 5.91-2.09 6.19-3.11L6.79-4.98L11.31-4.98L11.91-3.08C12.18-2.05 12.67-1.64 13.56-1.64C14.47-1.64 15.13-2.26 15.13-3.15C15.13-3.52 15.06-3.83 14.92-4.24L11.53-13.42C11.06-14.71 10.29-15.28 9.01-15.28C7.82-15.28 7.04-14.70 6.59-13.42L3.21-4.24C3.08-3.87 2.99-3.46 2.99-3.15C2.99-2.21 3.60-1.64 4.58-1.64ZM7.44-7.35L8.91-12.23L9.11-12.23L10.62-7.35Z" fill="currentColor"/>
</svg>