<svg xmlns="http://www.w3.org/2000/svg" viewBox="0 0 24 24" width="24" height="24">
  
  <path transform="matrix(0.7754051188853551, 0, 0, 0.7754051188853551, 1.6257317485822331, 18.556110858700592)" d="M9.98-15.55L17.61-15.55C18.09-15.55 18.45-15.20 18.45-14.74C18.45-14.27 18.09-13.90 17.61-13.90L11.63-13.90L14.05-11.48L17.61-11.48C18.09-11.48 18.45-11.13 18.45-10.68C18.45-10.21 18.09-9.83 17.61-9.83L15.70-9.83L23.78-1.76L23.78-17.21C23.78-19.89 22.32-21.35 19.66-21.35L7.11-21.35C6.16-21.35 5.37-21.14 4.76-20.77ZM23.81 3.34C24.21 3.73 24.83 3.73 25.21 3.34C25.58 2.95 25.59 2.33 25.21 1.95L2.95-20.31C2.57-20.70 1.93-20.70 1.55-20.31C1.17-19.93 1.17-19.29 1.55-18.91ZM12.39-5.78L9.16-5.78C8.68-5.78 8.33-6.13 8.33-6.59C8.33-7.05 8.68-7.42 9.16-7.42L10.75-7.42L3-15.15L3 0.30C3 2.99 4.45 4.44 7.11 4.44L19.66 4.44C20.63 4.44 21.42 4.25 22.03 3.87Z" fill="currentColor"/>
</svg>