<svg xmlns="http://www.w3.org/2000/svg" viewBox="0 0 24 24" width="24" height="24">
  
  <path transform="matrix(0.7712004820003012, 0, 0, 0.7712004820003012, 0.8431992769995482, 18.529597830998647)" d="M5.26-16.62L23.66-16.62C24.43-16.62 25.04-17.27 25.04-18.02C25.04-18.81 24.45-19.44 23.66-19.44L5.26-19.44C4.50-19.44 3.89-18.80 3.89-18.02C3.89-17.29 4.50-16.62 5.26-16.62ZM5.26-7.05L23.67-7.05C25.78-7.05 27.43-8.72 27.43-10.83C27.43-12.94 25.78-14.59 23.67-14.59L5.26-14.59C3.16-14.59 1.50-12.94 1.50-10.83C1.50-8.72 3.16-7.05 5.26-7.05ZM5.26-8.39C3.90-8.39 2.82-9.46 2.82-10.83C2.82-12.19 3.90-13.27 5.26-13.27L23.67-13.27C25.03-13.27 26.11-12.19 26.11-10.83C26.11-9.46 25.03-8.39 23.67-8.39ZM5.26-9.40L23.66-9.40C24.43-9.40 25.04-10.05 25.04-10.80C25.04-11.58 24.45-12.21 23.66-12.21L5.26-12.21C4.50-12.21 3.89-11.57 3.89-10.80C3.89-10.07 4.50-9.40 5.26-9.40ZM5.26-2.29L23.66-2.29C24.43-2.29 25.04-2.93 25.04-3.69C25.04-4.46 24.45-5.10 23.66-5.10L5.26-5.10C4.50-5.10 3.89-4.45 3.89-3.69C3.89-2.95 4.50-2.29 5.26-2.29ZM5.26 2.51L23.66 2.51C24.43 2.51 25.04 1.86 25.04 1.10C25.04 0.33 24.45-0.30 23.66-0.30L5.26-0.30C4.50-0.30 3.89 0.34 3.89 1.10C3.89 1.85 4.50 2.51 5.26 2.51Z" fill="currentColor"/>
</svg>