<svg xmlns="http://www.w3.org/2000/svg" viewBox="0 0 24 24" width="24" height="24">
  
  <path transform="matrix(0.8080808080808081, 0, 0, 0.8080808080808081, 0.30492424242424243, 18.83712121212121)" d="M14.47 3.91C21.30 3.91 26.85-1.63 26.85-8.46C26.85-15.29 21.30-20.84 14.47-20.84C7.64-20.84 2.10-15.29 2.10-8.46C2.10-1.63 7.64 3.91 14.47 3.91ZM14.47 0.83C9.34 0.83 5.18-3.33 5.18-8.46C5.18-13.61 9.34-17.75 14.47-17.75C19.62-17.75 23.77-13.61 23.77-8.46C23.77-3.33 19.62 0.83 14.47 0.83ZM15.41-13.91C15.76-13.91 16.03-14.19 16.03-14.53L16.03-15.63C16.03-15.97 15.76-16.25 15.41-16.25C15.07-16.25 14.79-15.97 14.79-15.63L14.79-14.53C14.79-14.19 15.07-13.91 15.41-13.91ZM18.04-12.81C18.27-12.57 18.68-12.57 18.93-12.81L19.70-13.59C19.93-13.84 19.95-14.24 19.70-14.48C19.45-14.73 19.07-14.72 18.83-14.47L18.04-13.70C17.79-13.46 17.80-13.05 18.04-12.81ZM12.45-1.05C14.27-1.05 15.74-2.50 15.74-4.32C15.74-5.24 15.39-6.04 14.70-6.68C14.60-6.77 14.58-6.83 14.58-6.98L14.58-11.80C14.58-13.17 13.71-14.11 12.45-14.11C11.17-14.11 10.30-13.17 10.30-11.80L10.30-6.98C10.30-6.83 10.29-6.76 10.16-6.68C9.48-6.05 9.13-5.24 9.13-4.32C9.13-2.50 10.61-1.05 12.45-1.05ZM15.46-7.23C17.06-7.23 18.36-8.55 18.36-10.18C18.36-11.84 17.05-13.15 15.41-13.15C15.34-13.15 15.26-13.15 15.19-13.14C15.36-12.75 15.47-12.29 15.47-11.80ZM12.45-2.27C11.29-2.27 10.36-3.19 10.36-4.36C10.36-5.09 10.70-5.68 11.29-6.08C11.47-6.19 11.53-6.29 11.53-6.54L11.53-11.77C11.53-12.43 11.89-12.87 12.45-12.87C12.98-12.87 13.35-12.43 13.35-11.77L13.35-6.54C13.35-6.29 13.41-6.19 13.59-6.08C14.18-5.68 14.52-5.09 14.52-4.36C14.52-3.19 13.59-2.27 12.45-2.27ZM12.43-3C13.20-3 13.79-3.61 13.79-4.36C13.79-4.89 13.50-5.31 13.05-5.54C12.89-5.64 12.83-5.71 12.83-5.98L12.83-11.31C12.83-11.58 12.66-11.77 12.43-11.77C12.21-11.77 12.05-11.58 12.05-11.31L12.05-5.98C12.05-5.71 12-5.64 11.81-5.54C11.39-5.31 11.09-4.89 11.09-4.36C11.09-3.61 11.68-3 12.43-3ZM19.75-9.57L20.84-9.57C21.18-9.57 21.47-9.86 21.47-10.18C21.47-10.54 21.18-10.83 20.84-10.83L19.75-10.83C19.39-10.83 19.11-10.52 19.11-10.18C19.11-9.86 19.39-9.57 19.75-9.57ZM18.83-5.89C19.05-5.66 19.45-5.65 19.70-5.89C19.93-6.13 19.93-6.54 19.69-6.77L18.91-7.56C18.67-7.80 18.27-7.80 18.04-7.56C17.80-7.31 17.80-6.91 18.04-6.68Z" fill="currentColor"/>
</svg>