<svg xmlns="http://www.w3.org/2000/svg" viewBox="0 0 24 24" width="24" height="24">
  
  <path transform="matrix(0.7872078720787208, 0, 0, 0.7872078720787208, 0.3487084870848709, 18.65129151291513)" d="M2.10-8.44C2.10-5.67 3.13-3.36 4.22-1.55C4.76-0.63 5.02 0.12 5.02 0.90L5.02 2.78C5.02 3.42 5.57 3.98 6.21 3.98C6.87 3.98 7.42 3.43 7.42 2.78L7.42 2.02L8.51 2.02L8.51 2.78C8.51 3.43 9.06 3.98 9.71 3.98C10.37 3.98 10.91 3.43 10.91 2.78L10.91 2.02L11.89 2.02L11.89 2.78C11.89 3.43 12.43 3.98 13.10 3.98C13.76 3.98 14.30 3.43 14.30 2.78L14.30 2.02L15.29 2.02L15.29 2.78C15.29 3.43 15.84 3.98 16.49 3.98C17.16 3.98 17.71 3.43 17.71 2.78L17.71 2.02L18.68 2.02L18.68 2.78C18.68 3.43 19.22 3.98 19.89 3.98C20.53 3.98 21.08 3.42 21.08 2.78L21.08 2.02L22.17 2.02L22.17 2.78C22.17 3.43 22.72 3.98 23.38 3.98C24.02 3.98 24.59 3.42 24.59 2.78L24.59 0.93C24.59 0.20 24.88-0.64 25.49-1.69C26.52-3.48 27.50-5.74 27.50-8.44C27.50-11.03 26.50-13.54 25.20-15.45C24.32-16.89 23.98-17.24 23.98-18.18L23.98-19.42C23.98-20.21 23.32-20.88 22.51-20.88C21.73-20.88 21.06-20.21 21.06-19.42L21.06-17.87C21.06-16.15 21.40-15.80 22.46-14.27C23.58-12.74 24.50-10.66 24.50-8.44C24.50-5.37 22.98-3.06 20.91-1.61L8.70-1.61C6.62-3.06 5.10-5.37 5.10-8.44C5.10-10.66 6.02-12.74 7.14-14.27C8.20-15.80 8.54-16.15 8.54-17.87L8.54-19.42C8.54-20.21 7.88-20.88 7.09-20.88C6.29-20.88 5.63-20.21 5.63-19.42L5.63-18.18C5.63-17.24 5.29-16.89 4.41-15.45C3.11-13.54 2.10-11.03 2.10-8.44ZM13.35-4.41C14.93-4.41 16.20-5.67 16.20-7.28C16.20-8.38 15.57-9.27 14.72-9.76C14.39-9.96 14.26-10.20 14.26-10.64L14.26-15.90C14.26-16.45 13.85-16.85 13.35-16.85C12.83-16.85 12.42-16.45 12.42-15.90L12.42-10.64C12.42-10.20 12.29-9.96 11.96-9.76C11.12-9.27 10.49-8.38 10.49-7.28C10.49-5.67 11.75-4.41 13.35-4.41ZM16.32-14.67L18.34-14.67C18.70-14.67 18.98-14.95 18.98-15.32C18.98-15.68 18.70-15.95 18.34-15.95L16.32-15.95C15.96-15.95 15.68-15.67 15.68-15.32C15.68-14.95 15.96-14.67 16.32-14.67ZM16.32-12.54L18.34-12.54C18.70-12.54 18.98-12.81 18.98-13.17C18.98-13.54 18.70-13.82 18.34-13.82L16.32-13.82C15.96-13.82 15.68-13.54 15.68-13.17C15.68-12.82 15.96-12.54 16.32-12.54ZM16.32-10.36L18.34-10.36C18.70-10.36 18.98-10.64 18.98-11.02C18.98-11.38 18.70-11.65 18.34-11.65L16.32-11.65C15.96-11.65 15.68-11.37 15.68-11.02C15.68-10.64 15.96-10.36 16.32-10.36Z" fill="currentColor"/>
</svg>