<svg xmlns="http://www.w3.org/2000/svg" viewBox="0 0 24 24" width="24" height="24">
  <title>touchid</title>
  <path transform="matrix(0.7443214272740545, 0, 0, 0.7443214272740545, 0.43472482582649885, 18.296392788267106)" d="M3.13-11.55C3.61-11.38 4.09-11.61 4.29-12.12C6.15-17.17 10.54-20.02 15.36-20.02C17.44-20.02 19.01-19.61 20.43-18.88C20.98-18.61 21.49-18.61 21.71-19.10C21.93-19.55 21.74-19.92 21.29-20.19C19.44-21.30 17.64-21.68 15.36-21.68C9.66-21.68 4.85-18.59 2.68-12.90C2.44-12.27 2.67-11.72 3.13-11.55ZM4.92-0.80C5.21-0.41 5.77-0.33 6.16-0.67C7.05-1.41 7.52-2.63 7.52-3.95C7.52-5.63 6.81-6.48 6.81-8.47C6.81-13.15 10.65-17.00 15.34-17.00C20.89-17.00 24.53-12.42 24.53-5.60C24.54-2.86 24.08-1.00 23.66 0C23.47 0.45 23.64 0.94 24.04 1.14C24.46 1.34 25.02 1.15 25.20 0.68C25.65-0.53 26.19-2.63 26.19-5.61C26.19-13.41 21.88-18.67 15.34-18.67C9.75-18.67 5.13-14.05 5.13-8.47C5.13-6.50 5.88-5.17 5.91-3.96C5.91-3.15 5.59-2.44 5.09-1.96C4.75-1.63 4.68-1.15 4.92-0.80ZM28.20-7.01C28.68-7.01 29.02-7.41 28.97-7.91C28.49-12.86 26.87-15.83 24.08-18.39C23.71-18.75 23.17-18.67 22.89-18.34C22.59-18.01 22.62-17.52 23.02-17.14C25.44-14.79 26.99-12 27.36-7.86C27.42-7.37 27.74-7.01 28.20-7.01ZM10.55-5.43C10.24-6.22 9.83-7.17 9.83-8.44C9.83-11.52 12.28-13.98 15.36-13.98C16.54-13.98 16.90-13.86 17.87-13.42C18.33-13.21 18.74-13.34 18.91-13.69C19.14-14.10 19.01-14.60 18.53-14.88C17.72-15.36 16.62-15.64 15.36-15.64C11.38-15.64 8.16-12.42 8.16-8.44C8.16-7.02 8.54-5.74 8.91-4.79C9.11-4.29 9.59-4.09 10.10-4.29C10.54-4.46 10.70-4.93 10.55-5.43ZM19.91-11.67C20.99-10.01 21.54-7.80 21.54-4.99C21.54-1.98 20.73 0.88 19.43 2.47C19.15 2.84 19.15 3.34 19.46 3.64C19.83 3.97 20.41 3.94 20.72 3.55C22.22 1.51 23.18-1.71 23.18-5.03C23.18-8.84 22.38-10.82 21.35-12.55C21.08-13.02 20.55-13.17 20.16-12.95C19.70-12.71 19.61-12.15 19.91-11.67ZM10.51 3.06C12.52 1.45 13.64-1.14 13.62-3.98C13.61-6.15 12.86-7.45 12.86-8.58C12.86-10.02 13.85-10.96 15.35-10.96C17.50-10.96 18.38-8.60 18.47-5.10C18.59-1.51 17.32 1.71 15.49 3.28C15.14 3.57 15.06 4.04 15.30 4.41C15.59 4.82 16.16 4.89 16.55 4.54C18.52 2.74 20.04-1.17 20.03-5.21C20.02-9.68 18.63-12.62 15.35-12.62C12.98-12.62 11.21-11.03 11.21-8.72C11.21-7.31 11.93-5.64 11.95-3.98C11.96-1.63 11.09 0.46 9.48 1.76C9.11 2.07 9.02 2.54 9.28 2.93C9.59 3.35 10.13 3.40 10.51 3.06ZM3.70-4.24C4.11-4.37 4.34-4.82 4.23-5.31C3.93-6.53 3.76-7.64 3.80-9.28C3.80-9.76 3.50-10.09 3.08-10.15C2.55-10.21 2.17-9.88 2.13-9.35C2.04-7.97 2.16-6.50 2.63-4.84C2.77-4.35 3.23-4.09 3.70-4.24ZM16.66-2.73C16.97-4.43 16.86-6.43 16.27-8.27C16.10-8.80 15.67-9.04 15.21-8.89C14.77-8.75 14.53-8.33 14.67-7.85C15.20-6.09 15.28-4.50 15.04-2.98C14.95-2.52 15.18-2.10 15.67-2.02C16.15-1.93 16.58-2.23 16.66-2.73ZM7.97 1.48C8.92 1.00 10.09-0.55 10.44-1.75C10.57-2.18 10.36-2.67 9.93-2.81C9.49-2.96 9.06-2.71 8.89-2.24C8.57-1.29 8.04-0.56 7.21 0.01C6.75 0.34 6.62 0.77 6.79 1.16C6.97 1.57 7.46 1.73 7.97 1.48ZM13.36 4.03C14.31 3.33 15.35 1.91 15.87 0.45C16.02 0.01 15.87-0.50 15.42-0.66C14.92-0.83 14.51-0.57 14.33-0.13C13.80 1.16 13.16 2.03 12.34 2.70C11.98 2.99 11.88 3.48 12.13 3.86C12.38 4.25 12.95 4.32 13.36 4.03Z" fill="currentColor"/>
</svg>