<svg xmlns="http://www.w3.org/2000/svg" viewBox="0 0 24 24" width="24" height="24">
  
  <path transform="matrix(0.6251526251526252, 0, 0, 0.6251526251526252, 2.8644688644688645, 17.31868131868132)" d="M5.58 7.49L6.45 7.49C6.89 7.49 7.15 7.34 7.39 6.95L8.03 5.92L21.01 5.92L21.64 6.95C21.89 7.34 22.15 7.49 22.59 7.49L23.32 7.49C24.11 7.49 24.52 6.68 24.08 6L21.83 2.37C24.61 2.14 26.24 0.22 26.24-2.66L26.24-11.00C26.24-14.32 25.95-16.58 25.52-18.48C24.81-21.96 22.97-23.77 19.73-24.22C18.66-24.38 16.76-24.50 14.61-24.50C12.34-24.50 10.57-24.38 9.49-24.22C6.26-23.77 4.42-21.96 3.70-18.48C3.28-16.58 2.99-14.38 2.99-11.06L2.99-2.66C2.99 0.16 4.55 2.06 7.22 2.34L4.88 6.09C4.51 6.69 4.79 7.49 5.58 7.49ZM8.32-0.07C6.40-0.07 5.43-1.21 5.43-2.93L5.43-11.06C5.43-14.32 5.72-16.30 6.12-18.16C6.57-20.48 7.75-21.57 9.89-21.83C10.85-21.96 12.48-22.04 14.61-22.04C16.62-22.04 18.38-21.96 19.34-21.83C21.48-21.57 22.65-20.48 23.11-18.16C23.51-16.30 23.81-14.26 23.81-11.00L23.81-2.93C23.81-1.21 22.83-0.07 20.91-0.07ZM11.61-18.71L17.61-18.71C18.18-18.71 18.56-19.11 18.56-19.66C18.56-20.23 18.18-20.61 17.61-20.61L11.61-20.61C11.05-20.61 10.66-20.23 10.66-19.66C10.66-19.10 11.05-18.71 11.61-18.71ZM14.61-6.45C17.55-6.47 19.72-6.57 20.95-6.73C21.74-6.82 22.13-7.35 22.13-8.11L22.13-11.05C22.13-13.28 21.88-15.29 21.74-16.01C21.62-16.63 21.20-17.07 20.58-17.14C19.32-17.30 17.70-17.38 14.61-17.40C11.52-17.38 9.89-17.30 8.64-17.14C8.03-17.07 7.61-16.63 7.49-16.01C7.35-15.29 7.10-13.28 7.10-11.05L7.10-8.11C7.10-7.35 7.49-6.82 8.27-6.73C9.49-6.57 11.65-6.47 14.61-6.45ZM20.19-1.68C21.11-1.68 21.82-2.38 21.82-3.32C21.82-4.24 21.12-4.96 20.19-4.96C19.25-4.96 18.54-4.24 18.54-3.32C18.54-2.38 19.25-1.68 20.19-1.68ZM9.04-1.68C9.96-1.68 10.68-2.38 10.68-3.32C10.68-4.25 9.97-4.95 9.04-4.95C8.10-4.95 7.41-4.25 7.41-3.32C7.41-2.38 8.10-1.68 9.04-1.68ZM9.45 3.64L10.23 2.39L18.81 2.39L19.59 3.64Z" fill="currentColor"/>
</svg>