<svg xmlns="http://www.w3.org/2000/svg" viewBox="0 0 24 24" width="24" height="24">
  <title>trash.circle</title>
  <path transform="matrix(0.8080808080808081, 0, 0, 0.8080808080808081, 0.30492424242424243, 18.83712121212121)" d="M14.47 3.91C21.30 3.91 26.85-1.63 26.85-8.46C26.85-15.29 21.30-20.84 14.47-20.84C7.64-20.84 2.10-15.29 2.10-8.46C2.10-1.63 7.64 3.91 14.47 3.91ZM14.47 0.83C9.34 0.83 5.18-3.33 5.18-8.46C5.18-13.61 9.34-17.75 14.47-17.75C19.62-17.75 23.77-13.61 23.77-8.46C23.77-3.33 19.62 0.83 14.47 0.83ZM11.81-1.91L17.13-1.91C18.06-1.91 18.59-2.39 18.63-3.32L19.02-11.72L19.75-11.72C20.13-11.72 20.41-12 20.41-12.38C20.43-12.75 20.13-13.02 19.75-13.02L17.32-13.02L17.32-13.71C17.32-14.74 16.64-15.38 15.46-15.38L13.48-15.38C12.30-15.38 11.61-14.74 11.61-13.71L11.61-13.02L9.19-13.02C8.81-13.02 8.52-12.75 8.51-12.38C8.51-12 8.81-11.72 9.19-11.72L9.94-11.72L10.31-3.32C10.36-2.39 10.89-1.91 11.81-1.91ZM12.98-13.02L13.00-13.70C13.00-13.97 13.21-14.17 13.50-14.17L15.42-14.17C15.73-14.17 15.93-13.97 15.94-13.70L15.95-13.02ZM12.55-3.67C12.30-3.67 12.12-3.84 12.11-4.10L11.91-10.42C11.89-10.70 12.07-10.88 12.35-10.88C12.61-10.88 12.80-10.71 12.80-10.44L13.00-4.11C13.01-3.84 12.83-3.67 12.55-3.67ZM14.46-3.67C14.19-3.67 14.02-3.84 14.02-4.10L14.02-10.45C14.02-10.71 14.18-10.88 14.46-10.88C14.74-10.88 14.92-10.71 14.92-10.45L14.92-4.10C14.92-3.84 14.74-3.67 14.46-3.67ZM16.37-3.67C16.10-3.67 15.93-3.84 15.93-4.11L16.13-10.44C16.14-10.71 16.32-10.88 16.58-10.88C16.86-10.88 17.03-10.70 17.02-10.42L16.82-4.10C16.80-3.84 16.63-3.67 16.37-3.67Z" fill="currentColor"/>
</svg>