<svg xmlns="http://www.w3.org/2000/svg" viewBox="0 0 24 24" width="24" height="24">
  
  <path transform="matrix(0.7081604426002767, 0, 0, 0.7081604426002767, -0.11618257261410792, 17.983402489626556)" d="M7.14-5.98L27.09-5.98C29.78-5.98 31.23-7.43 31.23-10.01L31.23-14.27C31.23-15.62 31.01-16.48 30.05-17.19L26.06-20.44C24.60-21.59 23.47-22.00 21.69-22.00L12.53-22.00C10.76-22.00 9.63-21.59 8.16-20.44L4.17-17.19C3.22-16.48 2.99-15.62 2.99-14.27L2.99-10.01C2.99-7.43 4.45-5.98 7.14-5.98ZM17.11-11.65C15.52-11.65 14.58-13.01 14.58-14.23L14.58-14.27C14.58-14.74 14.29-15.15 13.58-15.15L6.46-15.15C6.13-15.15 6.07-15.48 6.30-15.67L10.30-18.91C10.85-19.38 11.24-19.58 12.07-19.58L22.15-19.58C22.99-19.58 23.38-19.38 23.93-18.91L27.93-15.67C28.15-15.48 28.09-15.15 27.77-15.15L20.65-15.15C19.93-15.15 19.65-14.74 19.65-14.27L19.65-14.23C19.65-13.01 18.70-11.65 17.11-11.65ZM7.14 5.10L27.09 5.10C29.78 5.10 31.23 3.66 31.23 1.08L31.23-3.20C31.23-3.95 31.17-4.56 30.95-5.06C30.05-4.43 28.92-4.07 27.60-4.07L20.65-4.08C19.93-4.08 19.65-3.66 19.65-3.19L19.65-3.15C19.65-1.92 18.70-0.57 17.11-0.57C15.52-0.57 14.58-1.92 14.58-3.15L14.58-3.19C14.58-3.66 14.29-4.08 13.58-4.08L6.64-4.07C5.32-4.07 4.18-4.43 3.28-5.06C3.06-4.56 2.99-3.95 2.99-3.20L2.99 1.08C2.99 3.64 4.45 5.10 7.14 5.10Z" fill="currentColor"/>
</svg>