<svg xmlns="http://www.w3.org/2000/svg" viewBox="0 0 24 24" width="24" height="24">
  
  <path transform="matrix(0.7963913516876653, 0, 0, 0.7963913516876653, 0.09612692487167518, 18.65422305179655)" d="M2.39-0.52C2.39 1.43 3.82 3.07 5.96 3.07L23.93 3.07C26.07 3.07 27.50 1.43 27.50-0.52C27.50-1.10 27.35-1.71 27.02-2.27L18.04-17.99C17.34-19.18 16.16-19.78 14.95-19.78C13.73-19.78 12.54-19.17 11.86-17.99L2.86-2.26C2.54-1.70 2.39-1.10 2.39-0.52ZM5.52-0.81C5.52-0.95 5.54-1.15 5.64-1.31L8.91-7.07L20.96-7.07L24.26-1.30C24.34-1.14 24.38-0.95 24.38-0.81C24.38-0.27 23.98 0.21 23.39 0.21L6.50 0.21C5.92 0.21 5.52-0.27 5.52-0.81Z" fill="currentColor"/>
</svg>