<svg xmlns="http://www.w3.org/2000/svg" viewBox="0 0 24 24" width="24" height="24">
  <title>triangle.lefthalf.filled</title>
  <path transform="matrix(0.7963913516876653, 0, 0, 0.7963913516876653, 0.09612692487167518, 18.65422305179655)" d="M2.39-0.52C2.39 1.43 3.82 3.07 5.95 3.07L23.92 3.07C26.06 3.07 27.50 1.43 27.50-0.52C27.50-1.10 27.35-1.70 27.02-2.26L18.04-17.99C17.36-19.17 16.15-19.78 14.94-19.78C13.72-19.78 12.55-19.18 11.86-17.99L2.86-2.27C2.54-1.71 2.39-1.10 2.39-0.52ZM14.94 0.21L14.94-16.65C15.27-16.65 15.61-16.51 15.80-16.20L24.26-1.31C24.34-1.15 24.36-0.95 24.36-0.81C24.36-0.27 23.98 0.21 23.39 0.21Z" fill="currentColor"/>
</svg>