<svg xmlns="http://www.w3.org/2000/svg" viewBox="0 0 24 24" width="24" height="24">
  
  <path transform="matrix(0.8080808080808081, 0, 0, 0.8080808080808081, 0.30492424242424243, 18.83712121212121)" d="M14.47 3.91C21.30 3.91 26.85-1.63 26.85-8.46C26.85-15.29 21.30-20.84 14.47-20.84C7.64-20.84 2.10-15.29 2.10-8.46C2.10-1.63 7.64 3.91 14.47 3.91ZM14.47 0.83C9.34 0.83 5.18-3.33 5.18-8.46C5.18-13.61 9.34-17.75 14.47-17.75C19.62-17.75 23.77-13.61 23.77-8.46C23.77-3.33 19.62 0.83 14.47 0.83ZM10.83-8.46C10.83-6.46 12.49-4.80 14.47-4.80C14.87-4.80 15.26-4.89 15.59-5.05C14.54-3.62 12.82-2.78 10.80-2.78C10.35-2.78 10.01-2.43 10.01-1.99C10.01-1.57 10.35-1.22 10.80-1.22C14.84-1.22 18.12-4.16 18.12-8.46C18.12-10.45 16.46-12.11 14.47-12.11C14.07-12.11 13.70-12.02 13.36-11.86C14.40-13.29 16.14-14.13 18.14-14.13C18.60-14.13 18.94-14.48 18.94-14.92C18.94-15.35 18.60-15.69 18.14-15.69C14.12-15.69 10.83-12.75 10.83-8.46ZM12.40-8.46C12.40-9.61 13.32-10.54 14.47-10.54C15.63-10.54 16.55-9.61 16.55-8.46C16.55-7.30 15.63-6.38 14.47-6.38C13.32-6.38 12.40-7.30 12.40-8.46ZM13.38-8.46C13.38-7.86 13.89-7.36 14.47-7.36C15.07-7.36 15.56-7.88 15.56-8.46C15.56-9.06 15.07-9.55 14.47-9.55C13.89-9.55 13.38-9.06 13.38-8.46Z" fill="currentColor"/>
</svg>