<svg xmlns="http://www.w3.org/2000/svg" viewBox="0 0 24 24" width="24" height="24">
  
  <path transform="matrix(0.4580425836464484, 0, 0, 0.4580425836464484, 0.6312399355877616, 16.29213633923779)" d="M21.41-19.16L31.92-19.16C33.15-19.16 33.70-19.84 33.70-21.16L33.70-22.44C33.70-24.43 32.78-25.42 30.69-25.42L29.06-25.42C26.94-25.42 25.76-25.11 23.27-23.79L20.82-22.41C19.90-21.90 19.58-21.42 19.58-20.68C19.58-19.76 20.20-19.16 21.41-19.16ZM37.83 6.39C38.21 6.77 38.86 6.77 39.22 6.39C39.61 6 39.61 5.38 39.22 5.00L11.93-22.29C11.53-22.69 10.91-22.68 10.52-22.29C10.15-21.93 10.14-21.28 10.52-20.89ZM40.43-0.47L43.34-0.47C45.38-0.47 46.65-1.76 46.65-3.86L46.65-8.66C46.65-10.82 45.25-12.13 43.01-12.13L34.45-12.13L34.31-13.37C34.02-15.86 32.58-17.17 30.08-17.17L25.72-17.17C23.29-17.17 21.56-16.98 19.99-16.46L22.50-13.95C23.43-14.12 24.43-14.19 25.72-14.19L30.11-14.19C30.87-14.19 31.21-13.90 31.29-13.16L31.73-9.16L42.95-9.16C43.45-9.16 43.69-8.91 43.69-8.32L43.69-4.30C43.69-3.71 43.45-3.46 42.95-3.46L40.43-3.46ZM6.29-0.47L8.16-0.47C8.81 1.00 10.29 2.02 12.02 2.02C13.73 2.02 15.21 1.00 15.88-0.47L28.75-0.47L25.76-3.46L16.05-3.46C15.53-5.19 13.92-6.43 12.02-6.43C10.10-6.43 8.51-5.19 7.98-3.46L6.69-3.46C6.20-3.46 5.96-3.73 5.96-4.30L5.96-6.40C5.96-7.80 6.71-8.45 8.98-8.75L13.59-9.39L17.44-11.78L15.26-13.95L12.57-12.26L8.60-11.70C4.85-11.18 2.99-9.46 2.99-6.40L2.99-3.86C2.99-1.69 4.27-0.47 6.29-0.47ZM37.66 1.22C38.84 0.55 39.60-0.73 39.60-2.20C39.60-4.56 37.72-6.43 35.39-6.43C33.90-6.43 32.64-5.64 31.97-4.49L33.98-2.46C33.97-2.50 33.97-2.53 33.97-2.57C34.08-3.26 34.65-3.74 35.39-3.74C36.27-3.74 36.95-3.07 36.95-2.18C36.95-1.44 36.47-0.88 35.78-0.76C35.74-0.76 35.70-0.77 35.67-0.79ZM12.02-0.61C11.13-0.61 10.45-1.29 10.45-2.18C10.45-3.07 11.13-3.74 12.02-3.74C12.89-3.74 13.58-3.07 13.58-2.18C13.58-1.29 12.89-0.61 12.02-0.61Z" fill="currentColor"/>
</svg>