<svg xmlns="http://www.w3.org/2000/svg" viewBox="0 0 24 24" width="24" height="24">
  
  <path transform="matrix(0.8926080892608089, 0, 0, 0.8926080892608089, -0.6673640167364017, 19.552301255230127)" d="M7.13 2.74L21.26 2.74C23.94 2.74 25.39 1.29 25.39-1.36L25.39-15.55C25.39-18.20 23.94-19.66 21.26-19.66L7.13-19.66C4.45-19.66 2.99-18.21 2.99-15.55L2.99-1.36C2.99 1.29 4.45 2.74 7.13 2.74ZM7.45-0.28C6.52-0.28 6.01-0.74 6.01-1.73L6.01-15.18C6.01-16.17 6.52-16.64 7.45-16.64L20.93-16.64C21.87-16.64 22.37-16.17 22.37-15.18L22.37-1.73C22.37-0.74 21.87-0.28 20.93-0.28ZM11.47-5.02C11.53-5.02 11.59-5.03 11.65-5.05L13.16-5.61L13.16-4.07C13.16-3.32 13.64-3.02 14.20-3.02C14.75-3.02 15.23-3.32 15.23-4.07L15.23-6.38L17.02-7.04C17.18-7.11 17.27-7.22 17.27-7.39C17.27-7.61 17.12-7.75 16.93-7.75C16.88-7.75 16.82-7.72 16.76-7.71L15.23-7.14L15.23-8.47L17.02-9.14C17.18-9.21 17.27-9.33 17.27-9.49C17.27-9.70 17.12-9.84 16.93-9.84C16.88-9.84 16.82-9.83 16.76-9.81L15.23-9.23L15.23-11.61L17.72-11.61C18.23-11.61 18.60-11.94 18.60-12.46C18.60-12.97 18.23-13.31 17.72-13.31L10.68-13.31C10.16-13.31 9.79-12.97 9.79-12.46C9.79-11.95 10.16-11.61 10.68-11.61L13.16-11.61L13.16-8.46L11.39-7.80C11.21-7.73 11.13-7.62 11.13-7.45C11.13-7.27 11.27-7.10 11.47-7.10C11.53-7.10 11.59-7.11 11.65-7.14L13.16-7.70L13.16-6.36L11.39-5.71C11.21-5.64 11.13-5.52 11.13-5.36C11.13-5.17 11.27-5.02 11.47-5.02Z" fill="currentColor"/>
</svg>