<svg xmlns="http://www.w3.org/2000/svg" viewBox="0 0 24 24" width="24" height="24">
  <title>umbrella</title>
  <path transform="matrix(0.7170868347338936, 0, 0, 0.7170868347338936, 1.2394957983193282, 18.361344537815125)" d="M4.32-7.14C4.90-7.14 5.34-7.43 5.94-8.04C6.54-8.82 7.17-9.18 7.99-9.18C8.81-9.18 9.41-8.78 10.10-7.83C10.46-7.36 10.82-7.14 11.27-7.14C11.73-7.14 12.09-7.37 12.43-7.83C12.74-8.24 13.15-8.58 13.58-8.81L13.58 1.03C13.58 1.79 13.02 2.36 12.25 2.36C11.47 2.36 10.92 1.78 10.92 1.00C10.92 0.12 10.34-0.52 9.50-0.52C8.65-0.52 8.06 0.13 8.06 1.03C8.06 3.32 9.89 5.07 12.26 5.07C14.63 5.07 16.43 3.55 16.43 1.10L16.43-8.81C16.88-8.58 17.27-8.24 17.58-7.83C17.93-7.37 18.29-7.14 18.75-7.14C19.20-7.14 19.56-7.36 19.92-7.83C20.60-8.78 21.21-9.18 22.02-9.18C22.84-9.18 23.48-8.82 24.07-8.04C24.67-7.43 25.11-7.14 25.69-7.14C26.45-7.14 27.02-7.77 27.02-8.59C27.02-12.94 23.68-19.20 16.43-19.93L16.43-21.38C16.43-22.18 15.80-22.82 15.01-22.82C14.21-22.82 13.58-22.20 13.58-21.38L13.58-19.93C6.34-19.20 2.99-12.94 2.99-8.59C2.99-7.77 3.56-7.14 4.32-7.14ZM15.01-11.80C13.66-11.80 12.30-11.16 11.48-10.21C11.38-10.08 11.29-10.09 11.18-10.22C10.45-11.17 9.36-11.77 7.98-11.77C7.31-11.77 6.70-11.64 6.14-11.37C7.36-14.82 10.78-17.40 15.01-17.40C19.24-17.40 22.65-14.82 23.86-11.36C23.31-11.64 22.70-11.77 22.04-11.77C20.65-11.77 19.57-11.17 18.83-10.22C18.73-10.09 18.63-10.08 18.53-10.21C17.71-11.16 16.35-11.80 15.01-11.80Z" fill="currentColor"/>
</svg>