<svg xmlns="http://www.w3.org/2000/svg" viewBox="0 0 24 24" width="24" height="24">
  
  <path transform="matrix(0.6666666666666666, 0, 0, 0.6666666666666666, -0.09375, 17.640625)" d="M8.17 1.61L20.26 1.61C23.50 1.61 25.30-0.18 25.30-3.28L25.30-4.37L29.18-1.07C29.86-0.49 30.50-0.11 31.18-0.11C32.32-0.11 33.14-0.91 33.14-2.17L33.14-14.60C33.14-15.87 32.32-16.66 31.18-16.66C30.49-16.66 29.86-16.28 29.18-15.70L25.30-12.41L25.30-13.65C25.30-16.75 23.50-18.53 20.26-18.53L8.17-18.53C5.02-18.53 3.14-16.75 3.14-13.64L3.14-3.08C3.14 0.01 4.93 1.61 8.17 1.61ZM8.65-1.05C6.95-1.05 5.99-2.00 5.99-3.71L5.99-13.22C5.99-14.99 6.95-15.88 8.65-15.88L19.78-15.88C21.48-15.88 22.45-14.93 22.45-13.22L22.45-3.71C22.45-2.00 21.46-1.05 19.77-1.05ZM30.07-3.50L25.30-7.35L25.30-9.43L30.07-13.27C30.15-13.34 30.22-13.38 30.30-13.38C30.42-13.38 30.49-13.30 30.49-13.16L30.49-3.61C30.49-3.47 30.42-3.39 30.30-3.39C30.22-3.39 30.15-3.45 30.07-3.50Z" fill="currentColor"/>
</svg>