<svg xmlns="http://www.w3.org/2000/svg" viewBox="0 0 24 24" width="24" height="24">
  
  <path transform="matrix(0.6569155760841673, 0, 0, 0.6569155760841673, 0.036951501154734556, 17.554272517321017)" d="M9.46 0.57C13.64 0.57 16.45-1.55 16.45-4.62C16.45-7.00 14.73-8.53 12.05-8.75L12.05-8.82C14.27-9.20 15.76-10.73 15.76-12.86C15.76-15.61 13.24-17.48 9.48-17.48C6.54-17.48 4.28-16.29 3.54-14.38C3.36-14.00 3.28-13.63 3.28-13.23C3.28-12.40 3.88-11.85 4.75-11.85C5.51-11.85 5.93-12.09 6.28-12.75C6.89-14.04 7.92-14.72 9.46-14.72C11.21-14.72 12.35-13.82 12.35-12.38C12.35-10.90 11.17-9.95 9.38-9.95L8.40-9.95C7.55-9.95 7.02-9.43 7.02-8.67C7.02-7.90 7.56-7.38 8.40-7.38L9.36-7.38C11.50-7.38 12.75-6.46 12.75-4.86C12.75-3.35 11.43-2.32 9.52-2.32C7.88-2.32 6.71-2.98 6.15-4.20C5.71-4.89 5.31-5.13 4.57-5.13C3.64-5.13 2.99-4.56 2.99-3.63C2.99-3.21 3.09-2.81 3.30-2.40C4.23-0.60 6.42 0.57 9.46 0.57ZM20.53 0.20L25.28 0.20C30.19 0.20 33.43-3.29 33.43-8.53C33.43-13.68 30.19-17.10 25.28-17.10L20.53-17.10C19.44-17.10 18.74-16.44 18.74-15.33L18.74-1.58C18.74-0.46 19.44 0.20 20.53 0.20ZM22.34-2.75L22.34-14.16L24.86-14.16C27.82-14.16 29.77-11.91 29.77-8.52C29.77-5.06 27.82-2.75 24.86-2.75Z" fill="currentColor"/>
</svg>