<svg xmlns="http://www.w3.org/2000/svg" viewBox="0 0 24 24" width="24" height="24">
  
  <path transform="matrix(0.8080808080808081, 0, 0, 0.8080808080808081, 0.30492424242424243, 18.83712121212121)" d="M14.47 3.91C21.30 3.91 26.85-1.63 26.85-8.46C26.85-15.29 21.30-20.84 14.47-20.84C7.64-20.84 2.10-15.29 2.10-8.46C2.10-1.63 7.64 3.91 14.47 3.91ZM14.47 0.83C9.34 0.83 5.18-3.33 5.18-8.46C5.18-13.61 9.34-17.75 14.47-17.75C19.62-17.75 23.77-13.61 23.77-8.46C23.77-3.33 19.62 0.83 14.47 0.83ZM14.47-5.89C15.28-5.89 16.30-4.24 18.39-4.24C20.45-4.24 21.98-6.12 21.98-8.50C21.98-12.43 18.50-12.86 14.47-12.86C10.44-12.86 6.96-12.43 6.96-8.50C6.96-6.12 8.48-4.24 10.55-4.24C12.63-4.24 13.66-5.89 14.47-5.89ZM14.47-7.51C12.71-7.51 12-5.87 10.55-5.87C9.33-5.87 8.57-6.83 8.57-8.50C8.57-10.99 10.61-11.24 14.47-11.24C18.33-11.24 20.37-10.99 20.37-8.50C20.37-6.83 19.62-5.87 18.39-5.87C16.93-5.87 16.22-7.51 14.47-7.51Z" fill="currentColor"/>
</svg>