<svg xmlns="http://www.w3.org/2000/svg" viewBox="0 0 24 24" width="24" height="24">
  <title>w.circle</title>
  <path transform="matrix(0.8080808080808081, 0, 0, 0.8080808080808081, 0.30492424242424243, 18.83712121212121)" d="M14.47 3.91C21.30 3.91 26.85-1.63 26.85-8.46C26.85-15.29 21.30-20.84 14.47-20.84C7.64-20.84 2.10-15.29 2.10-8.46C2.10-1.63 7.64 3.91 14.47 3.91ZM14.47 0.83C9.34 0.83 5.18-3.33 5.18-8.46C5.18-13.61 9.34-17.75 14.47-17.75C19.62-17.75 23.77-13.61 23.77-8.46C23.77-3.33 19.62 0.83 14.47 0.83ZM11.52-3.04C12.35-3.04 12.89-3.48 13.07-4.36L14.40-10.03L14.51-10.03L15.84-4.36C16.03-3.48 16.57-3.04 17.40-3.04C18.26-3.04 18.76-3.47 18.95-4.34L20.78-12.38C20.81-12.50 20.82-12.62 20.82-12.74C20.82-13.42 20.36-13.91 19.64-13.91C18.93-13.91 18.54-13.52 18.40-12.69L17.23-6.40L17.12-6.40L15.69-12.80C15.55-13.46 15.14-13.80 14.46-13.80C13.77-13.80 13.37-13.48 13.23-12.80L11.79-6.40L11.70-6.40L10.52-12.69C10.39-13.52 10.00-13.91 9.28-13.91C8.57-13.91 8.10-13.42 8.10-12.74C8.10-12.62 8.11-12.50 8.14-12.38L9.97-4.34C10.16-3.47 10.66-3.04 11.52-3.04Z" fill="currentColor"/>
</svg>