<svg xmlns="http://www.w3.org/2000/svg" viewBox="0 0 24 24" width="24" height="24">
  <title>water.waves.slash</title>
  <path transform="matrix(0.7754051188853551, 0, 0, 0.7754051188853551, -0.3171285779191275, 18.563500418614495)" d="M26.13 3.20C26.52 3.59 27.15 3.59 27.53 3.20C27.90 2.81 27.91 2.19 27.53 1.80L5.59-20.13C5.20-20.51 4.57-20.52 4.17-20.13C3.81-19.76 3.81-19.10 4.17-18.74ZM15.88-13.13C19.36-13.13 19.82-15.55 21.55-15.55C23.31-15.55 23.59-13.13 27.49-13.13L27.59-13.13C28.24-13.13 28.78-13.66 28.78-14.32C28.78-14.98 28.24-15.50 27.59-15.50L27.49-15.50C26.46-15.50 25.80-15.91 24.82-16.62C24.04-17.18 22.99-17.94 21.55-17.94C20.09-17.94 19.03-17.16 18.25-16.58C17.43-15.96 16.83-15.50 15.88-15.50C14.93-15.50 14.34-15.96 13.51-16.58C12.74-17.16 11.67-17.94 10.22-17.94C10.09-17.94 9.96-17.93 9.84-17.91L14.25-13.50C14.81-13.45 15.20-13.13 15.88-13.13ZM21.55-8.50C23.31-8.50 23.59-6.07 27.49-6.07L27.59-6.07C28.24-6.07 28.78-6.60 28.78-7.27C28.78-7.91 28.24-8.45 27.59-8.45L27.49-8.45C26.46-8.45 25.80-8.85 24.82-9.55C24.04-10.13 22.99-10.88 21.55-10.88C20.09-10.88 19.05-10.09 18.23-9.52L19.97-7.78C20.46-8.16 20.91-8.50 21.55-8.50ZM2.99-7.27C2.99-6.60 3.52-6.07 4.18-6.07L4.27-6.07C8.17-6.07 8.46-8.50 10.22-8.50C11.65-8.50 12.19-6.79 14.45-6.27L9.93-10.80C9.74-10.82 9.55-10.82 9.35-10.78C8.40-10.58 7.59-10.02 6.95-9.55C5.96-8.85 5.30-8.45 4.27-8.45L4.18-8.45C3.52-8.45 2.99-7.91 2.99-7.27ZM15.88 1.00C18.19 1.00 19.16-0.08 20.09-0.79L18.35-2.52C17.54-1.95 16.88-1.38 15.88-1.38C14.93-1.38 14.34-1.84 13.51-2.46C12.74-3.04 11.67-3.81 10.22-3.81C8.78-3.81 7.72-3.06 6.95-2.50C5.96-1.79 5.30-1.38 4.27-1.38L4.18-1.38C3.52-1.38 2.99-0.86 2.99-0.20C2.99 0.47 3.52 1.00 4.18 1.00L4.27 1.00C8.17 1.00 8.46-1.43 10.22-1.43C11.95-1.43 12.40 1.00 15.88 1.00Z" fill="currentColor"/>
</svg>