<svg xmlns="http://www.w3.org/2000/svg" viewBox="0 0 24 24" width="24" height="24">
  <title>wave.3.down</title>
  <path transform="matrix(0.667152412214609, 0, 0, 0.667152412214609, 0.6008776734466061, 17.727060218554524)" d="M17.07-12.80C19.57-12.80 21.95-13.65 23.87-15.19C25.63-16.57 23.85-19.03 22.17-17.81C20.33-16.43 18.91-15.95 17.07-15.95C15.23-15.95 13.82-16.43 11.98-17.81C10.30-19.03 8.52-16.57 10.27-15.19C12.20-13.65 14.58-12.80 17.07-12.80ZM17.07-5.92C20.99-5.92 24.67-7.16 27.62-9.42C29.59-10.93 27.62-13.50 25.90-12.08C23.44-10.13 20.39-9.07 17.07-9.07C13.76-9.07 10.71-10.13 8.26-12.08C6.53-13.50 4.57-10.93 6.53-9.42C9.48-7.16 13.16-5.92 17.07-5.92ZM17.07 0.97C22.32 0.97 27.26-0.69 31.31-3.75C33.13-5.12 31.36-7.79 29.57-6.36C26.00-3.61 21.73-2.18 17.07-2.18C12.41-2.18 8.14-3.61 4.62-6.34C2.86-7.72 1.00-5.14 2.89-3.69C6.89-0.69 11.81 0.97 17.07 0.97Z" fill="currentColor"/>
</svg>