<svg xmlns="http://www.w3.org/2000/svg" viewBox="0 0 24 24" width="24" height="24">
  
  <path transform="matrix(0.6445115810674723, 0, 0, 0.6445115810674723, 0.07401812688821763, 17.453172205438065)" d="M9.74 6.49L27.27 6.49C29.63 6.49 31.28 6.18 32.50 4.96C33.71 3.74 34.02 2.12 34.02-0.26L34.02-16.66C34.02-19.04 33.71-20.67 32.50-21.89C31.27-23.11 29.63-23.41 27.27-23.41L9.73-23.41C7.38-23.41 5.73-23.11 4.51-21.88C3.29-20.66 2.99-19.04 2.99-16.69L2.99-0.26C2.99 2.12 3.28 3.75 4.51 4.96C5.73 6.18 7.38 6.49 9.74 6.49ZM9.41 3.47C8.18 3.47 7.28 3.29 6.73 2.74C6.18 2.19 6.01 1.30 6.01 0.07L6.01-16.98C6.01-18.22 6.18-19.11 6.73-19.68C7.28-20.23 8.19-20.39 9.43-20.39L27.60-20.39C28.82-20.39 29.73-20.21 30.28-19.66C30.83-19.11 31.00-18.23 31.00-16.99L31.00 0.07C31.00 1.30 30.83 2.19 30.28 2.74C29.73 3.29 28.82 3.47 27.60 3.47ZM9.69-13.25L12.38-13.25C13.35-13.25 14.03-13.92 14.03-14.91L14.03-16.83C14.03-17.81 13.35-18.48 12.38-18.48L9.69-18.48C8.72-18.48 8.04-17.81 8.04-16.83L8.04-14.91C8.04-13.92 8.72-13.25 9.69-13.25ZM9.08-4.79L27.93-4.79C28.38-4.79 28.75-5.17 28.75-5.61C28.75-6.07 28.38-6.42 27.93-6.42L9.08-6.42C8.63-6.42 8.26-6.07 8.26-5.61C8.26-5.17 8.63-4.79 9.08-4.79ZM9.08-1.75L27.93-1.75C28.38-1.75 28.75-2.11 28.75-2.57C28.75-3.01 28.38-3.38 27.93-3.38L9.08-3.38C8.63-3.38 8.26-3.01 8.26-2.57C8.26-2.11 8.63-1.75 9.08-1.75ZM9.08 1.31L20.32 1.31C20.78 1.31 21.14 0.94 21.14 0.49C21.14 0.04 20.78-0.32 20.32-0.32L9.08-0.32C8.63-0.32 8.26 0.04 8.26 0.49C8.26 0.94 8.63 1.31 9.08 1.31Z" fill="currentColor"/>
</svg>