<svg xmlns="http://www.w3.org/2000/svg" viewBox="0 0 24 24" width="24" height="24">
  
  <path transform="matrix(0.5440442035915418, 0, 0, 0.5440442035915418, 0.374242907236213, 16.599936244819894)" d="M9.74 3.04L33 3.04C35.36 3.04 37.01 2.72 38.23 1.50C39.45 0.28 39.75-1.35 39.75-3.73L39.75-13.20C39.75-15.56 39.45-17.19 38.23-18.41C37.01-19.63 35.36-19.95 33-19.95L9.74-19.95C7.38-19.95 5.73-19.63 4.51-18.41C3.28-17.19 2.99-15.56 2.99-13.20L2.99-3.73C2.99-1.35 3.28 0.28 4.51 1.50C5.73 2.72 7.38 3.04 9.74 3.04ZM9.41 0.01C8.18 0.01 7.28-0.18 6.73-0.71C6.18-1.28 6.01-2.16 6.01-3.40L6.01-13.51C6.01-14.75 6.18-15.63 6.73-16.20C7.28-16.75 8.18-16.92 9.41-16.92L33.33-16.92C34.55-16.92 35.46-16.75 36.01-16.20C36.56-15.63 36.73-14.75 36.73-13.51L36.73-3.40C36.73-2.16 36.56-1.28 36.01-0.71C35.46-0.16 34.55 0.01 33.33 0.01ZM9.69-9.77L12.38-9.77C13.35-9.77 14.03-10.45 14.03-11.43L14.03-13.36C14.03-14.33 13.35-15.01 12.38-15.01L9.69-15.01C8.72-15.01 8.04-14.33 8.04-13.36L8.04-11.43C8.04-10.45 8.72-9.77 9.69-9.77ZM9-2.04L33.74-2.04C34.20-2.04 34.56-2.40 34.56-2.86C34.56-3.32 34.20-3.67 33.74-3.67L9-3.67C8.54-3.67 8.18-3.32 8.18-2.86C8.18-2.40 8.54-2.04 9-2.04Z" fill="currentColor"/>
</svg>