<svg xmlns="http://www.w3.org/2000/svg" viewBox="0 0 24 24" width="24" height="24">
  
  <path transform="matrix(0.5553747694977763, 0, 0, 0.5553747694977763, 0.3403839895867231, 16.702245362837616)" d="M20.99-20.88C18.45-20.88 15.96-20.16 13.91-18.83C13.36-18.47 13.20-17.80 13.54-17.26C13.88-16.71 14.57-16.58 15.18-16.96C16.85-18.04 18.89-18.63 20.99-18.63C23.10-18.63 25.13-18.05 26.80-16.96C27.41-16.58 28.10-16.71 28.44-17.26C28.78-17.80 28.63-18.48 28.08-18.83C26.00-20.16 23.53-20.88 20.99-20.88ZM21-17.17C19.13-17.17 17.30-16.63 15.83-15.63C15.30-15.29 15.15-14.64 15.49-14.10C15.82-13.55 16.52-13.42 17.17-13.80C18.23-14.52 19.58-14.91 21-14.91C22.41-14.91 23.75-14.52 24.82-13.80C25.46-13.42 26.17-13.55 26.51-14.10C26.84-14.64 26.68-15.29 26.16-15.63C24.71-16.63 22.89-17.17 21-17.17ZM20.99-13.44C19.79-13.44 18.59-13.08 17.72-12.43C17.24-12.11 17.12-11.45 17.43-10.92C17.80-10.35 18.49-10.25 19.15-10.65C19.65-10.99 20.31-11.18 20.99-11.18C21.68-11.18 22.34-10.99 22.83-10.65C23.48-10.25 24.19-10.34 24.55-10.92C24.87-11.45 24.74-12.09 24.26-12.43C23.37-13.08 22.17-13.44 20.99-13.44ZM6.88 3.95L35.11 3.95C37.54 3.95 39 2.51 39 0.09L39-4.36C39-6.76 37.54-8.21 35.11-8.21L6.88-8.21C4.45-8.21 2.99-6.76 2.99-4.36L2.99 0.09C2.99 2.51 4.45 3.95 6.88 3.95ZM7.07 1.14C6.41 1.14 6.01 0.75 6.01 0.11L6.01-4.37C6.01-5.00 6.41-5.40 7.07-5.40L34.92-5.40C35.58-5.40 35.98-5.00 35.98-4.37L35.98 0.11C35.98 0.75 35.58 1.14 34.92 1.14ZM18.70-0.43C19.63-0.43 20.40-1.21 20.40-2.14C20.40-3.07 19.63-3.84 18.70-3.84C17.77-3.84 16.99-3.07 16.99-2.14C16.99-1.21 17.77-0.43 18.70-0.43ZM23.24-0.43C24.15-0.43 24.93-1.21 24.93-2.14C24.93-3.07 24.15-3.84 23.24-3.84C22.30-3.84 21.53-3.07 21.53-2.14C21.53-1.21 22.30-0.43 23.24-0.43ZM27.76-0.43C28.69-0.43 29.46-1.21 29.46-2.14C29.46-3.07 28.69-3.84 27.76-3.84C26.82-3.84 26.05-3.07 26.05-2.14C26.05-1.21 26.82-0.43 27.76-0.43ZM32.30-0.43C33.21-0.43 33.98-1.21 33.98-2.14C33.98-3.07 33.21-3.84 32.30-3.84C31.36-3.84 30.57-3.07 30.57-2.14C30.57-1.21 31.36-0.43 32.30-0.43ZM9.21-1.46L12.74-1.46C13.42-1.46 13.91-1.96 13.91-2.64C13.91-3.30 13.42-3.81 12.74-3.81L9.21-3.81C8.54-3.81 8.04-3.30 8.04-2.64C8.04-1.96 8.54-1.46 9.21-1.46Z" fill="currentColor"/>
</svg>