<svg xmlns="http://www.w3.org/2000/svg" viewBox="0 0 24 24" width="24" height="24">
  
  <path transform="matrix(0.5982399648231288, 0, 0, 0.5982399648231288, 0.7429784670579709, 16.994275710054943)" d="M6.01-19.17C6.56-18.86 7.20-19.00 7.63-19.51C8.24-20.21 8.98-20.74 9.83-21.05C10.48-21.29 10.86-21.86 10.71-22.49C10.56-23.25 9.82-23.60 8.99-23.31C7.77-22.89 6.61-22.05 5.72-20.99C5.21-20.37 5.38-19.56 6.01-19.17ZM31.64-19.17C32.27-19.56 32.44-20.37 31.93-20.99C31.05-22.05 29.88-22.89 28.66-23.31C27.84-23.60 27.09-23.25 26.94-22.49C26.80-21.86 27.18-21.29 27.83-21.05C28.68-20.74 29.43-20.21 30.02-19.51C30.46-19.00 31.09-18.86 31.64-19.17ZM17.53-19.21C18.18-19.61 18.30-20.37 17.80-21C16.92-22.07 15.76-22.89 14.55-23.30C13.69-23.60 12.95-23.21 12.81-22.46C12.70-21.83 13.07-21.29 13.71-21.05C14.55-20.74 15.29-20.21 15.88-19.52C16.35-18.98 16.98-18.84 17.53-19.21ZM20.12-19.21C20.67-18.84 21.32-18.98 21.77-19.52C22.36-20.21 23.10-20.74 23.95-21.05C24.60-21.29 24.95-21.83 24.84-22.46C24.70-23.21 23.98-23.60 23.10-23.30C21.90-22.89 20.73-22.07 19.86-21C19.36-20.37 19.49-19.61 20.12-19.21ZM18.83-12.83C19.49-12.83 20.03-13.37 20.03-14.03L20.03-16.56C20.03-17.23 19.49-17.77 18.83-17.77C18.16-17.77 17.63-17.23 17.63-16.56L17.63-14.03C17.63-13.37 18.16-12.83 18.83-12.83ZM18.81-0.69C20.91-0.69 23.41 0.04 25.28 0.95C25.96 1.28 26.73 1.18 27.22 0.56L34.92-9.23C35.87-10.43 35.70-11.77 34.52-12.69C31.78-14.84 27-16.46 21.82-16.92L21.82-14.13C25.64-13.71 29.23-12.53 32.09-10.72C32.30-10.59 32.32-10.42 32.17-10.22L25.84-2.19C25.69-1.98 25.58-1.97 25.37-2.05C23.25-2.93 20.85-3.47 18.81-3.47C18.09-3.47 17.32-3.40 16.54-3.27L10.83-13.11C12.41-13.59 14.09-13.95 15.81-14.13L15.81-16.92C13.52-16.72 11.32-16.29 9.33-15.69L8.60-16.95C8.24-17.58 7.45-17.79 6.76-17.43C6.09-17.06 5.91-16.23 6.28-15.59L6.76-14.77C5.33-14.16 4.09-13.45 3.11-12.68C1.93-11.77 1.77-10.43 2.71-9.23L10.41 0.56C10.90 1.18 11.67 1.28 12.35 0.95C13.22 0.53 14.21 0.14 15.25-0.15L16.36 1.78C15.97 2.30 15.75 2.94 15.75 3.63C15.75 5.33 17.12 6.71 18.83 6.71C20.52 6.71 21.91 5.33 21.91 3.63C21.91 1.93 20.53 0.55 18.83 0.55C18.81 0.55 18.77 0.55 18.75 0.55L18.05-0.67C18.30-0.69 18.56-0.69 18.81-0.69ZM11.79-2.18L5.46-10.22C5.31-10.42 5.34-10.59 5.54-10.72C6.39-11.26 7.30-11.74 8.27-12.16L13.80-2.61C13.28-2.45 12.76-2.25 12.26-2.05C12.06-1.97 11.95-1.98 11.79-2.18ZM18.83-6.53C19.49-6.53 20.03-7.07 20.03-7.73L20.03-10.27C20.03-10.92 19.49-11.46 18.83-11.46C18.16-11.46 17.63-10.92 17.63-10.27L17.63-7.73C17.63-7.07 18.16-6.53 18.83-6.53ZM18.83 4.68C18.25 4.68 17.78 4.22 17.78 3.63C17.78 3.05 18.25 2.57 18.83 2.57C19.41 2.57 19.89 3.05 19.89 3.63C19.89 4.22 19.41 4.68 18.83 4.68Z" fill="currentColor"/>
</svg>