<svg xmlns="http://www.w3.org/2000/svg" viewBox="0 0 24 24" width="24" height="24">
  <title>xmark.shield</title>
  <path transform="matrix(0.8280769852822255, 0, 0, 0.8280769852822255, 1.0975254730713235, 18.797671033478895)" d="M13.17 3.87C13.41 3.87 13.75 3.76 14.05 3.61C20.92 0.04 23.34-1.83 23.34-6.09L23.34-14.77C23.34-16.44 22.78-17.12 21.33-17.74C20.17-18.23 15.90-19.66 14.81-20.02C14.31-20.18 13.68-20.29 13.17-20.29C12.66-20.29 12.04-20.16 11.52-20.02C10.43-19.71 6.16-18.22 5.00-17.74C3.55-17.12 2.99-16.44 2.99-14.77L2.99-6.09C2.99-1.83 5.43 0.02 12.28 3.61C12.59 3.76 12.93 3.87 13.17 3.87ZM13.17 0.80C13.03 0.80 12.90 0.75 12.57 0.56C7.32-2.68 5.79-3.42 5.79-6.54L5.79-14.38C5.79-14.82 5.88-15 6.22-15.14C7.88-15.81 11.09-16.86 12.30-17.32C12.70-17.45 12.94-17.51 13.17-17.51C13.41-17.51 13.63-17.45 14.03-17.32C15.25-16.86 18.45-15.76 20.11-15.14C20.45-15.01 20.54-14.82 20.54-14.38L20.54-6.54C20.54-3.36 18.84-2.47 13.76 0.56C13.43 0.75 13.30 0.80 13.17 0.80ZM10.50-4.43L13.18-7.11L15.86-4.43C16.10-4.18 16.41-4.05 16.79-4.05C17.50-4.05 18.05-4.62 18.05-5.33C18.05-5.66 17.92-5.96 17.67-6.21L14.96-8.91L17.67-11.60C17.92-11.85 18.05-12.15 18.05-12.48C18.05-13.20 17.50-13.73 16.79-13.73C16.42-13.73 16.11-13.62 15.87-13.37L13.18-10.69L10.49-13.37C10.24-13.62 9.95-13.73 9.57-13.73C8.86-13.73 8.31-13.20 8.31-12.48C8.31-12.15 8.45-11.85 8.70-11.60L11.39-8.91L8.70-6.21C8.45-5.96 8.31-5.66 8.31-5.33C8.31-4.62 8.86-4.05 9.57-4.05C9.96-4.05 10.25-4.18 10.50-4.43Z" fill="currentColor"/>
</svg>