<svg xmlns="http://www.w3.org/2000/svg" viewBox="0 0 24 24" width="24" height="24">
  <title>xserve</title>
  <path transform="matrix(0.7011777595179403, 0, 0, 0.7011777595179403, -0.09531635168446995, 17.928512736236648)" d="M7.13 0.95L27.38 0.95C29.95 0.95 31.51-0.59 31.51-3.15L31.51-7.77C31.51-9.55 30.98-11.03 29.99-12.04L26.44-15.66C24.94-17.18 24.14-17.86 22.24-17.86L12.26-17.86C10.36-17.86 9.56-17.18 8.05-15.66L4.51-12.04C3.47-10.97 2.99-9.63 2.99-7.77L2.99-3.15C2.99-0.59 4.55 0.95 7.13 0.95ZM6.71-9.48C6.32-9.48 6.22-9.83 6.45-10.08L10.75-14.59C11.29-15.15 11.70-15.42 12.45-15.42L22.05-15.42C22.80-15.42 23.21-15.15 23.75-14.59L28.05-10.08C28.28-9.83 28.18-9.48 27.79-9.48ZM7.37-1.93C6.47-1.93 5.93-2.46 5.93-3.39L5.93-5.99C5.93-6.68 6.28-7.03 6.97-7.03L27.53-7.03C28.22-7.03 28.57-6.68 28.57-5.99L28.57-3.39C28.57-2.46 28.03-1.93 27.12-1.93ZM11.38-2.99C11.80-2.99 12.16-3.33 12.16-3.77L12.16-5.20C12.16-5.64 11.80-5.99 11.38-5.99C10.95-5.99 10.59-5.64 10.59-5.20L10.59-3.77C10.59-3.33 10.95-2.99 11.38-2.99ZM13.69-2.99C14.12-2.99 14.48-3.33 14.48-3.77L14.48-5.20C14.48-5.64 14.12-5.99 13.69-5.99C13.25-5.99 12.91-5.64 12.91-5.20L12.91-3.77C12.91-3.33 13.25-2.99 13.69-2.99ZM18.47-2.99C18.89-2.99 19.24-3.33 19.24-3.77L19.24-5.20C19.24-5.64 18.89-5.99 18.47-5.99C18.04-5.99 17.67-5.64 17.67-5.20L17.67-3.77C17.67-3.33 18.04-2.99 18.47-2.99ZM20.79-2.99C21.21-2.99 21.55-3.33 21.55-3.77L21.55-5.20C21.55-5.64 21.21-5.99 20.79-5.99C20.34-5.99 19.98-5.64 19.98-5.20L19.98-3.77C19.98-3.33 20.34-2.99 20.79-2.99ZM8.36-3.38C8.98-3.38 9.48-3.89 9.48-4.51C9.48-5.13 8.98-5.65 8.36-5.65C7.73-5.65 7.22-5.13 7.22-4.51C7.22-3.89 7.73-3.38 8.36-3.38ZM23.44-3.70L26.55-3.70C27-3.70 27.33-4.04 27.33-4.49C27.33-4.95 27-5.27 26.55-5.27L23.44-5.27C22.99-5.27 22.66-4.95 22.66-4.49C22.66-4.04 22.99-3.70 23.44-3.70ZM16.08-3.79C16.48-3.79 16.80-4.11 16.80-4.51C16.80-4.91 16.48-5.24 16.08-5.24C15.68-5.24 15.35-4.91 15.35-4.51C15.35-4.11 15.68-3.79 16.08-3.79Z" fill="currentColor"/>
</svg>