<svg xmlns="http://www.w3.org/2000/svg" viewBox="0 0 24 24" width="24" height="24">
  <title>yensign.circle.fill</title>
  <path transform="matrix(0.8080808080808081, 0, 0, 0.8080808080808081, 0.30492424242424243, 18.83712121212121)" d="M14.47 3.91C21.30 3.91 26.85-1.63 26.85-8.46C26.85-15.29 21.30-20.84 14.47-20.84C7.64-20.84 2.10-15.29 2.10-8.46C2.10-1.63 7.64 3.91 14.47 3.91ZM14.47-2.79C13.80-2.79 13.38-3.23 13.38-3.91L13.38-5.04L11.00-5.04C10.79-5.04 10.64-5.20 10.64-5.40C10.64-5.61 10.79-5.78 11.00-5.78L13.38-5.78L13.38-6.90L13.32-7.00L11.00-7.00C10.79-7.00 10.64-7.16 10.64-7.36C10.64-7.57 10.79-7.73 11.00-7.73L12.91-7.73L10.09-12.30C9.95-12.55 9.87-12.81 9.87-13.07C9.87-13.72 10.34-14.14 11.00-14.14C11.54-14.14 11.81-13.90 12.06-13.43L14.46-8.99L14.52-8.99L16.95-13.43C17.18-13.91 17.53-14.13 17.98-14.13C18.61-14.13 19.09-13.72 19.09-13.09C19.09-12.80 19.01-12.57 18.86-12.32L16.03-7.73L17.96-7.73C18.16-7.73 18.33-7.57 18.33-7.36C18.33-7.16 18.16-7.00 17.96-7.00L15.62-7.00L15.57-6.90L15.57-5.78L17.96-5.78C18.16-5.78 18.33-5.61 18.33-5.40C18.33-5.20 18.16-5.04 17.96-5.04L15.57-5.04L15.57-3.91C15.57-3.23 15.14-2.79 14.47-2.79Z" fill="currentColor"/>
</svg>